<?xml version='1.0' encoding='utf-8'?>
<svg xmlns="http://www.w3.org/2000/svg" xmlns:atlas="http://example.com/atlas" width="4980" height="3334" viewBox="0 0 4980 3334">
  
  <metadata>
    <atlas:source>
      <atlas:jp2-path>../media/v1/p18.jp2</atlas:jp2-path>
      <atlas:volume>vol1</atlas:volume>
      <atlas:plate-id>p18</atlas:plate-id>
      <atlas:image-width>4980</atlas:image-width>
      <atlas:image-height>3334</atlas:image-height>
    </atlas:source>
  </metadata>

  
  <image id="background" href="file://../media/v1/p18.jp2" width="4980" height="3334" opacity="0.5" />

  <style>
    .block-label { font-family: sans-serif; font-size: 14px; font-weight: bold; }
  </style>

  
  <g id="blocks">
    <polygon points="553,236 552,237 549,237 548,238 546,238 545,239 544,239 539,244 539,246 538,247 538,251 537,252 537,257 536,258 536,266 537,267 537,274 538,275 538,301 539,302 539,309 540,310 540,316 541,317 541,339 542,340 542,354 543,355 543,363 544,364 544,370 545,371 545,379 546,380 546,388 547,389 547,421 548,422 548,429 549,430 549,438 550,439 550,485 551,486 551,503 552,504 552,512 553,513 553,519 554,520 554,525 555,526 555,530 556,531 556,535 557,536 557,541 558,542 558,549 559,550 559,559 560,560 560,584 559,585 559,610 560,611 560,616 561,617 561,620 562,621 562,624 563,625 563,628 564,629 564,635 565,636 565,649 566,650 566,671 567,672 567,674 568,675 568,676 569,677 569,678 571,680 571,681 575,685 576,685 577,686 578,686 579,687 580,687 581,688 582,688 583,689 584,689 585,690 587,690 588,691 590,691 591,692 597,692 598,693 609,693 610,694 684,694 685,695 694,695 695,696 703,696 704,697 714,697 715,698 728,698 729,699 756,699 757,700 769,700 770,701 776,701 777,702 784,702 785,703 836,703 837,704 859,704 860,705 888,705 889,706 899,706 900,707 911,707 912,706 921,706 922,705 923,705 924,704 925,704 929,700 929,699 931,697 931,696 932,695 932,694 933,693 933,689 934,688 934,687 933,686 933,682 932,681 932,676 931,675 931,668 930,667 930,641 929,640 929,625 930,624 930,616 931,615 931,609 930,608 930,601 929,600 929,592 928,591 928,583 927,582 927,576 926,575 926,569 925,568 925,562 924,561 924,553 923,552 923,531 922,530 922,522 921,521 921,509 920,508 920,476 919,475 919,467 918,466 918,460 917,459 917,443 916,442 916,403 915,402 915,390 914,389 914,382 913,381 913,361 912,360 912,317 911,316 911,308 910,307 910,303 909,302 909,301 908,300 908,299 906,297 906,296 904,294 904,293 901,290 901,289 900,288 900,287 897,284 897,283 893,279 892,279 891,278 890,278 889,277 888,277 887,276 874,276 873,277 861,277 860,276 854,276 853,275 846,275 845,274 835,274 834,273 826,273 825,272 819,272 818,271 813,271 812,270 807,270 806,269 800,269 799,268 794,268 793,267 788,267 787,266 782,266 781,265 775,265 774,264 768,264 767,263 759,263 758,262 750,262 749,261 743,261 742,260 737,260 736,259 731,259 730,258 726,258 725,257 720,257 719,256 713,256 712,255 707,255 706,254 702,254 701,253 696,253 695,252 668,252 667,251 659,251 658,250 650,250 649,249 642,249 641,248 636,248 635,247 629,247 628,246 622,246 621,245 617,245 616,244 612,244 611,243 608,243 607,242 602,242 601,241 596,241 595,240 584,240 583,239 576,239 575,238 569,238 568,237 561,237 560,236" fill="rgba(188,20,102,0.3)" stroke="rgb(188,20,102)" stroke-width="2" data-block-id="0001" data-name="b-0004" /><text x="728" y="451" text-anchor="middle" dominant-baseline="middle" class="block-label" fill="rgb(188,20,102)" stroke="white" stroke-width="3" paint-order="stroke">b-0004</text><polygon points="2582,2229 2581,2230 2552,2230 2551,2231 2547,2231 2546,2232 2544,2232 2543,2233 2542,2233 2539,2236 2539,2237 2538,2238 2538,2258 2537,2259 2537,2275 2536,2276 2536,2283 2535,2284 2535,2288 2536,2289 2536,2316 2537,2317 2537,2325 2536,2326 2536,2334 2535,2335 2535,2337 2536,2338 2536,2385 2535,2386 2535,2401 2536,2402 2536,2407 2535,2408 2535,2418 2534,2419 2534,2426 2533,2427 2533,2458 2534,2459 2534,2468 2533,2469 2533,2507 2534,2508 2534,2558 2533,2559 2533,2562 2534,2563 2534,2617 2535,2618 2535,2623 2534,2624 2534,2668 2533,2669 2533,2677 2532,2678 2532,2682 2533,2683 2533,2772 2534,2773 2534,2783 2533,2784 2533,2788 2534,2789 2534,2828 2533,2829 2533,2869 2534,2870 2534,2872 2533,2873 2533,2899 2532,2900 2532,2911 2531,2912 2531,2916 2530,2917 2530,2922 2529,2923 2529,2934 2528,2935 2528,2953 2529,2954 2529,2956 2530,2957 2530,2958 2535,2963 2536,2963 2537,2964 2574,2964 2575,2963 2591,2963 2592,2964 2624,2964 2625,2965 2628,2965 2629,2966 2633,2966 2634,2967 2641,2967 2642,2968 2644,2968 2645,2969 2647,2969 2648,2970 2650,2970 2651,2971 2652,2971 2653,2972 2654,2972 2656,2974 2660,2974 2661,2973 2662,2973 2663,2972 2664,2972 2665,2971 2690,2971 2691,2972 2722,2972 2723,2971 2740,2971 2741,2972 2745,2972 2746,2973 2749,2973 2750,2974 2758,2974 2759,2973 2763,2973 2764,2972 2770,2972 2771,2971 2794,2971 2795,2972 2846,2972 2847,2971 2867,2971 2868,2972 2901,2972 2902,2971 2907,2971 2908,2970 2909,2970 2911,2968 2911,2966 2912,2965 2912,2961 2913,2960 2913,2957 2914,2956 2914,2934 2913,2933 2913,2926 2914,2925 2914,2900 2915,2899 2915,2891 2914,2890 2914,2837 2913,2836 2913,2834 2914,2833 2914,2808 2915,2807 2915,2797 2914,2796 2914,2790 2913,2789 2913,2788 2914,2787 2914,2784 2915,2783 2915,2778 2916,2777 2916,2773 2915,2772 2915,2765 2914,2764 2914,2760 2915,2759 2915,2743 2914,2742 2914,2738 2915,2737 2915,2689 2916,2688 2916,2673 2915,2672 2915,2664 2916,2663 2916,2649 2915,2648 2915,2643 2916,2642 2916,2638 2917,2637 2917,2627 2916,2626 2916,2620 2915,2619 2915,2618 2916,2617 2916,2600 2915,2599 2915,2576 2916,2575 2916,2556 2917,2555 2917,2516 2916,2515 2916,2508 2917,2507 2917,2496 2916,2495 2916,2470 2915,2469 2915,2461 2916,2460 2916,2422 2915,2421 2915,2415 2916,2414 2916,2407 2917,2406 2917,2400 2916,2399 2916,2386 2917,2385 2917,2382 2916,2381 2916,2374 2915,2373 2915,2366 2916,2365 2916,2314 2917,2313 2917,2304 2916,2303 2916,2289 2917,2288 2917,2249 2916,2248 2916,2239 2911,2234 2909,2234 2908,2233 2903,2233 2902,2232 2877,2232 2876,2233 2857,2233 2856,2232 2853,2232 2852,2231 2834,2231 2833,2232 2812,2232 2811,2231 2792,2231 2791,2232 2751,2232 2750,2231 2723,2231 2722,2232 2718,2232 2717,2231 2711,2231 2710,2230 2706,2230 2705,2229 2682,2229 2681,2230 2676,2230 2675,2231 2641,2231 2640,2230 2615,2230 2614,2229 2606,2229 2605,2230 2593,2230 2592,2229" fill="rgba(121,210,214,0.3)" stroke="rgb(121,210,214)" stroke-width="2" data-block-id="0002" data-name="b-0005" /><text x="2735" y="2622" text-anchor="middle" dominant-baseline="middle" class="block-label" fill="rgb(121,210,214)" stroke="white" stroke-width="3" paint-order="stroke">b-0005</text><polygon points="1127,2151 1126,2152 1122,2152 1121,2153 1118,2153 1116,2155 1116,2158 1115,2159 1115,2174 1114,2175 1114,2179 1115,2180 1115,2187 1116,2188 1116,2203 1117,2204 1117,2214 1118,2215 1118,2228 1119,2229 1119,2237 1120,2238 1120,2244 1121,2245 1121,2253 1122,2254 1122,2259 1123,2260 1123,2263 1122,2264 1122,2270 1121,2271 1121,2277 1122,2278 1122,2302 1123,2303 1123,2315 1124,2316 1124,2338 1125,2339 1125,2348 1124,2349 1124,2363 1125,2364 1125,2373 1126,2374 1126,2386 1127,2387 1127,2412 1128,2413 1128,2423 1129,2424 1129,2433 1130,2434 1130,2467 1131,2468 1131,2499 1130,2500 1130,2508 1129,2509 1129,2523 1128,2524 1128,2539 1127,2540 1127,2552 1126,2553 1126,2574 1125,2575 1125,2592 1124,2593 1124,2606 1123,2607 1123,2630 1122,2631 1122,2647 1121,2648 1121,2655 1120,2656 1120,2686 1119,2687 1119,2695 1118,2696 1118,2700 1117,2701 1117,2710 1118,2711 1118,2721 1117,2722 1117,2737 1116,2738 1116,2742 1115,2743 1115,2746 1114,2747 1114,2773 1113,2774 1113,2792 1112,2793 1112,2801 1111,2802 1111,2813 1110,2814 1110,2837 1109,2838 1109,2847 1108,2848 1108,2859 1107,2860 1107,2861 1108,2862 1108,2893 1109,2894 1109,2895 1112,2898 1113,2898 1114,2899 1116,2899 1117,2900 1123,2900 1124,2901 1154,2901 1155,2902 1164,2902 1165,2903 1180,2903 1181,2904 1193,2904 1194,2903 1200,2903 1201,2904 1208,2904 1209,2905 1229,2905 1230,2906 1242,2906 1243,2907 1253,2907 1254,2908 1258,2908 1259,2909 1263,2909 1264,2908 1279,2908 1280,2909 1302,2909 1303,2910 1315,2910 1316,2909 1355,2909 1356,2910 1373,2910 1374,2911 1384,2911 1385,2912 1407,2912 1408,2913 1432,2913 1433,2914 1446,2914 1447,2915 1459,2915 1460,2916 1464,2916 1465,2915 1468,2915 1469,2914 1472,2914 1473,2913 1474,2913 1478,2909 1478,2907 1479,2906 1479,2877 1480,2876 1480,2867 1481,2866 1481,2860 1482,2859 1482,2833 1483,2832 1483,2816 1484,2815 1484,2802 1485,2801 1485,2793 1486,2792 1486,2785 1487,2784 1487,2771 1488,2770 1488,2763 1489,2762 1489,2741 1490,2740 1490,2727 1491,2726 1491,2707 1492,2706 1492,2700 1491,2699 1491,2689 1492,2688 1492,2676 1493,2675 1493,2645 1494,2644 1494,2638 1495,2637 1495,2610 1496,2609 1496,2596 1497,2595 1497,2591 1498,2590 1498,2583 1499,2582 1499,2570 1500,2569 1500,2547 1501,2546 1501,2521 1502,2520 1502,2480 1501,2479 1501,2461 1500,2460 1500,2455 1499,2454 1499,2438 1498,2437 1498,2433 1497,2432 1497,2429 1496,2428 1496,2419 1495,2418 1495,2391 1494,2390 1494,2383 1493,2382 1493,2372 1492,2371 1492,2357 1491,2356 1491,2333 1490,2332 1490,2325 1489,2324 1489,2309 1488,2308 1488,2290 1489,2289 1489,2284 1488,2283 1488,2271 1487,2270 1487,2263 1486,2262 1486,2235 1485,2234 1485,2228 1484,2227 1484,2220 1483,2219 1483,2204 1482,2203 1482,2192 1481,2191 1481,2186 1480,2185 1480,2180 1479,2179 1479,2178 1478,2177 1478,2176 1477,2175 1476,2175 1475,2174 1474,2174 1473,2173 1463,2173 1462,2172 1446,2172 1445,2171 1422,2171 1421,2170 1407,2170 1406,2171 1402,2171 1401,2170 1396,2170 1395,2169 1379,2169 1378,2168 1364,2168 1363,2167 1356,2167 1355,2166 1350,2166 1349,2165 1342,2165 1341,2164 1335,2164 1334,2163 1329,2163 1328,2162 1322,2162 1321,2161 1315,2161 1314,2162 1306,2162 1305,2161 1295,2161 1294,2160 1293,2161 1283,2161 1282,2160 1276,2160 1275,2159 1269,2159 1268,2160 1255,2160 1254,2159 1251,2159 1250,2158 1245,2158 1244,2157 1236,2157 1235,2156 1222,2156 1221,2157 1216,2157 1215,2158 1210,2158 1209,2157 1205,2157 1204,2156 1200,2156 1199,2155 1185,2155 1184,2154 1161,2154 1160,2153 1139,2153 1138,2152 1132,2152 1131,2151" fill="rgba(74,202,87,0.3)" stroke="rgb(74,202,87)" stroke-width="2" data-block-id="0003" data-name="b-0006" /><text x="1299" y="2498" text-anchor="middle" dominant-baseline="middle" class="block-label" fill="rgb(74,202,87)" stroke="white" stroke-width="3" paint-order="stroke">b-0006</text><polygon points="2035,2200 2034,2201 2031,2201 2030,2202 2027,2202 2026,2203 2025,2203 2022,2206 2022,2207 2020,2209 2020,2210 2019,2211 2019,2213 2018,2214 2018,2218 2017,2219 2017,2244 2018,2245 2018,2267 2019,2268 2019,2297 2020,2298 2020,2303 2021,2304 2021,2306 2022,2307 2022,2313 2021,2314 2021,2317 2020,2318 2020,2331 2021,2332 2021,2351 2022,2352 2022,2363 2021,2364 2021,2379 2020,2380 2020,2383 2021,2384 2021,2403 2022,2404 2022,2413 2021,2414 2021,2418 2022,2419 2022,2429 2023,2430 2023,2434 2024,2435 2024,2440 2025,2441 2025,2446 2026,2447 2026,2451 2027,2452 2027,2454 2026,2455 2026,2461 2025,2462 2025,2471 2026,2472 2026,2494 2027,2495 2027,2505 2026,2506 2026,2516 2027,2517 2027,2522 2028,2523 2028,2533 2027,2534 2027,2540 2028,2541 2028,2565 2029,2566 2029,2570 2030,2571 2030,2576 2029,2577 2029,2589 2030,2590 2030,2603 2029,2604 2029,2611 2030,2612 2030,2616 2031,2617 2031,2623 2030,2624 2030,2627 2029,2628 2029,2651 2028,2652 2028,2655 2029,2656 2029,2660 2030,2661 2030,2664 2031,2665 2031,2671 2030,2672 2030,2675 2029,2676 2029,2696 2028,2697 2028,2701 2027,2702 2027,2718 2026,2719 2026,2725 2025,2726 2025,2729 2026,2730 2026,2741 2025,2742 2025,2744 2023,2746 2023,2747 2021,2749 2021,2759 2022,2760 2022,2771 2021,2772 2021,2787 2020,2788 2020,2790 2019,2791 2019,2793 2018,2794 2018,2797 2017,2798 2017,2804 2016,2805 2016,2815 2017,2816 2017,2848 2016,2849 2016,2856 2015,2857 2015,2861 2016,2862 2016,2868 2017,2869 2017,2874 2016,2875 2016,2899 2015,2900 2015,2914 2016,2915 2016,2923 2015,2924 2015,2943 2019,2947 2020,2947 2021,2948 2022,2948 2023,2949 2025,2949 2026,2950 2034,2950 2035,2951 2054,2951 2055,2952 2064,2952 2065,2953 2069,2953 2070,2954 2077,2954 2078,2953 2088,2953 2089,2954 2093,2954 2094,2955 2107,2955 2108,2956 2114,2956 2115,2957 2133,2957 2134,2958 2149,2958 2150,2957 2154,2957 2155,2956 2163,2956 2164,2957 2172,2957 2173,2958 2180,2958 2181,2959 2201,2959 2202,2960 2206,2960 2207,2959 2234,2959 2235,2960 2274,2960 2275,2961 2295,2961 2296,2962 2315,2962 2316,2963 2343,2963 2344,2964 2361,2964 2362,2965 2373,2965 2374,2964 2375,2964 2376,2963 2377,2963 2381,2959 2381,2958 2382,2957 2382,2956 2383,2955 2383,2948 2384,2947 2384,2918 2385,2917 2385,2916 2384,2915 2384,2907 2385,2906 2385,2887 2384,2886 2384,2874 2385,2873 2385,2821 2386,2820 2386,2814 2387,2813 2387,2775 2388,2774 2388,2766 2389,2765 2389,2741 2390,2740 2390,2723 2389,2722 2389,2708 2390,2707 2390,2694 2389,2693 2390,2692 2390,2682 2391,2681 2391,2677 2390,2676 2390,2641 2391,2640 2391,2637 2392,2636 2392,2580 2393,2579 2393,2576 2394,2575 2394,2572 2395,2571 2395,2554 2394,2553 2394,2539 2393,2538 2393,2528 2392,2527 2392,2513 2391,2512 2391,2486 2390,2485 2390,2480 2389,2479 2389,2444 2390,2443 2389,2442 2389,2436 2388,2435 2388,2432 2387,2431 2387,2416 2388,2415 2388,2391 2387,2390 2387,2385 2386,2384 2386,2356 2385,2355 2385,2330 2384,2329 2384,2326 2383,2325 2383,2323 2382,2322 2382,2321 2378,2317 2378,2316 2377,2315 2377,2313 2376,2312 2376,2308 2375,2307 2375,2304 2374,2303 2374,2300 2373,2299 2373,2283 2372,2282 2372,2277 2371,2276 2371,2258 2370,2257 2370,2252 2369,2251 2369,2243 2370,2242 2370,2239 2369,2238 2369,2236 2367,2234 2366,2234 2365,2233 2364,2233 2363,2232 2360,2232 2359,2231 2355,2231 2354,2230 2351,2230 2350,2229 2339,2229 2338,2230 2336,2230 2335,2229 2331,2229 2330,2228 2328,2228 2327,2227 2321,2227 2320,2228 2318,2228 2317,2229 2314,2229 2313,2230 2310,2230 2309,2229 2306,2229 2305,2228 2303,2228 2302,2227 2300,2227 2299,2226 2293,2226 2292,2227 2289,2227 2288,2226 2284,2226 2283,2225 2281,2225 2280,2224 2278,2224 2277,2223 2271,2223 2270,2224 2246,2224 2245,2225 2238,2225 2237,2224 2233,2224 2232,2223 2212,2223 2211,2222 2204,2222 2203,2221 2201,2221 2200,2220 2198,2220 2197,2219 2195,2219 2194,2218 2192,2218 2191,2217 2190,2218 2185,2218 2184,2219 2179,2219 2177,2217 2176,2217 2175,2216 2173,2216 2172,2215 2170,2215 2169,2214 2154,2214 2153,2213 2150,2213 2149,2212 2144,2212 2143,2211 2133,2211 2132,2210 2125,2210 2124,2209 2093,2209 2092,2208 2088,2208 2087,2207 2069,2207 2068,2206 2064,2206 2063,2205 2060,2205 2059,2204 2053,2204 2052,2203 2047,2203 2046,2202 2043,2202 2042,2201 2039,2201 2038,2200" fill="rgba(116,99,103,0.3)" stroke="rgb(116,99,103)" stroke-width="2" data-block-id="0004" data-name="b-0007" /><text x="2183" y="2528" text-anchor="middle" dominant-baseline="middle" class="block-label" fill="rgb(116,99,103)" stroke="white" stroke-width="3" paint-order="stroke">b-0007</text><polygon points="3494,2238 3493,2239 3477,2239 3476,2240 3469,2240 3468,2241 3466,2241 3463,2244 3463,2245 3462,2246 3462,2247 3461,2248 3461,2256 3462,2257 3462,2335 3463,2336 3463,2340 3464,2341 3464,2349 3463,2350 3463,2353 3462,2354 3462,2357 3461,2358 3461,2359 3462,2360 3462,2364 3463,2365 3463,2378 3462,2379 3462,2391 3461,2392 3461,2408 3462,2409 3462,2414 3463,2415 3463,2420 3462,2421 3462,2430 3461,2431 3461,2481 3460,2482 3460,2496 3459,2497 3459,2515 3458,2516 3458,2546 3459,2547 3459,2550 3458,2551 3458,2560 3457,2561 3457,2575 3458,2576 3458,2580 3459,2581 3459,2595 3458,2596 3458,2608 3457,2609 3457,2616 3456,2617 3456,2621 3457,2622 3457,2628 3458,2629 3458,2636 3459,2637 3459,2645 3460,2646 3460,2648 3459,2649 3459,2665 3458,2666 3458,2668 3459,2669 3459,2678 3460,2679 3460,2690 3461,2691 3461,2693 3460,2694 3460,2700 3459,2701 3459,2706 3458,2707 3458,2712 3457,2713 3457,2715 3458,2716 3458,2718 3459,2719 3459,2720 3460,2721 3460,2723 3461,2724 3461,2730 3462,2731 3462,2742 3461,2743 3461,2745 3460,2746 3460,2749 3459,2750 3459,2768 3460,2769 3460,2780 3461,2781 3461,2789 3460,2790 3460,2792 3459,2793 3459,2794 3458,2795 3458,2796 3457,2797 3457,2800 3456,2801 3456,2813 3457,2814 3457,2820 3458,2821 3458,2825 3459,2826 3459,2830 3460,2831 3460,2839 3459,2840 3459,2846 3458,2847 3458,2855 3457,2856 3457,2859 3458,2860 3458,2864 3459,2865 3459,2867 3460,2868 3460,2874 3461,2875 3461,2883 3460,2884 3460,2887 3459,2888 3459,2891 3458,2892 3458,2907 3459,2908 3459,2914 3460,2915 3460,2922 3461,2923 3461,2934 3460,2935 3460,2937 3459,2938 3459,2941 3458,2942 3458,2955 3459,2956 3459,2957 3460,2958 3460,2959 3461,2960 3461,2961 3464,2964 3464,2965 3465,2965 3467,2967 3468,2967 3469,2968 3474,2968 3475,2969 3513,2969 3514,2968 3517,2968 3518,2969 3587,2969 3588,2970 3604,2970 3605,2969 3635,2969 3636,2970 3647,2970 3648,2971 3649,2970 3690,2970 3691,2971 3708,2971 3709,2972 3710,2972 3711,2973 3713,2973 3714,2974 3716,2974 3717,2975 3718,2975 3719,2974 3721,2974 3722,2973 3723,2973 3724,2972 3725,2972 3726,2971 3729,2971 3730,2970 3762,2970 3763,2971 3813,2971 3814,2970 3816,2970 3817,2969 3818,2969 3821,2966 3821,2965 3822,2964 3822,2962 3823,2961 3823,2959 3824,2958 3824,2954 3825,2953 3825,2952 3824,2951 3824,2911 3823,2910 3823,2897 3824,2896 3824,2865 3825,2864 3825,2805 3826,2804 3826,2797 3825,2796 3825,2752 3824,2751 3824,2740 3825,2739 3825,2719 3824,2718 3824,2694 3825,2693 3825,2668 3826,2667 3826,2664 3825,2663 3825,2640 3824,2639 3824,2629 3825,2628 3825,2596 3824,2595 3824,2493 3823,2492 3823,2466 3824,2465 3824,2457 3825,2456 3825,2448 3824,2447 3824,2436 3823,2435 3823,2428 3822,2427 3822,2422 3821,2421 3821,2414 3822,2413 3822,2411 3823,2410 3823,2406 3824,2405 3824,2397 3823,2396 3823,2373 3822,2372 3822,2368 3823,2367 3823,2360 3824,2359 3824,2331 3823,2330 3823,2327 3822,2326 3822,2317 3823,2316 3823,2310 3824,2309 3824,2305 3823,2304 3823,2281 3822,2280 3822,2264 3823,2263 3823,2260 3822,2259 3822,2249 3821,2248 3821,2247 3820,2246 3820,2245 3816,2241 3813,2241 3812,2240 3802,2240 3801,2239 3735,2239 3734,2240 3723,2240 3722,2239 3711,2239 3710,2238 3704,2238 3703,2239 3691,2239 3690,2238 3678,2238 3677,2239 3643,2239 3642,2238 3625,2238 3624,2239 3623,2238 3579,2238 3578,2239 3568,2239 3567,2238 3538,2238 3537,2239 3513,2239 3512,2238" fill="rgba(151,130,149,0.3)" stroke="rgb(151,130,149)" stroke-width="2" data-block-id="0005" data-name="b-0008" /><text x="3603" y="2634" text-anchor="middle" dominant-baseline="middle" class="block-label" fill="rgb(151,130,149)" stroke="white" stroke-width="3" paint-order="stroke">b-0008</text><polygon points="3146,2234 3145,2235 3140,2235 3139,2236 3068,2236 3067,2237 3055,2237 3054,2238 3028,2238 3027,2239 3024,2239 3023,2240 3021,2240 3020,2241 3019,2241 3018,2242 3017,2242 3016,2243 3015,2243 3015,2244 3013,2246 3013,2248 3012,2249 3012,2268 3011,2269 3011,2276 3012,2277 3012,2331 3013,2332 3013,2335 3012,2336 3012,2366 3011,2367 3011,2370 3012,2371 3012,2388 3011,2389 3011,2406 3012,2407 3012,2410 3013,2411 3013,2413 3014,2414 3014,2419 3013,2420 3013,2422 3012,2423 3012,2425 3011,2426 3011,2431 3010,2432 3010,2440 3009,2441 3009,2454 3010,2455 3010,2497 3009,2498 3009,2502 3010,2503 3010,2517 3009,2518 3009,2528 3008,2529 3008,2555 3009,2556 3009,2567 3008,2568 3008,2609 3007,2610 3007,2625 3008,2626 3008,2642 3009,2643 3009,2687 3010,2688 3010,2694 3009,2695 3009,2698 3008,2699 3008,2702 3007,2703 3007,2718 3008,2719 3008,2725 3009,2726 3009,2731 3010,2732 3010,2734 3011,2735 3011,2737 3012,2738 3012,2740 3011,2741 3011,2743 3010,2744 3010,2747 3009,2748 3009,2760 3010,2761 3010,2782 3011,2783 3011,2790 3010,2791 3010,2793 3009,2794 3009,2796 3008,2797 3008,2803 3007,2804 3007,2811 3008,2812 3008,2816 3009,2817 3009,2821 3010,2822 3010,2826 3011,2827 3011,2830 3012,2831 3012,2839 3011,2840 3011,2843 3010,2844 3010,2882 3009,2883 3009,2885 3008,2886 3008,2888 3007,2889 3007,2890 3006,2891 3006,2905 3007,2906 3007,2910 3008,2911 3008,2918 3009,2919 3009,2935 3008,2936 3008,2949 3007,2950 3007,2954 3008,2955 3008,2957 3009,2958 3009,2959 3010,2960 3010,2961 3011,2962 3011,2963 3012,2964 3012,2965 3015,2968 3016,2968 3017,2969 3019,2969 3020,2970 3021,2970 3022,2971 3025,2971 3026,2972 3037,2972 3038,2971 3063,2971 3064,2972 3070,2972 3071,2973 3082,2973 3083,2974 3088,2974 3089,2973 3098,2973 3099,2972 3171,2972 3172,2973 3198,2973 3199,2972 3205,2972 3206,2971 3208,2971 3209,2972 3241,2972 3242,2971 3294,2971 3295,2970 3308,2970 3309,2971 3327,2971 3328,2972 3344,2972 3345,2971 3350,2971 3351,2970 3354,2970 3355,2969 3358,2969 3359,2968 3361,2968 3365,2964 3365,2963 3366,2962 3366,2961 3367,2960 3367,2958 3368,2957 3368,2933 3367,2932 3367,2912 3368,2911 3368,2899 3369,2898 3369,2886 3368,2885 3368,2881 3369,2880 3369,2863 3368,2862 3368,2856 3369,2855 3369,2841 3368,2840 3368,2802 3369,2801 3369,2796 3368,2795 3368,2784 3369,2783 3369,2762 3370,2761 3370,2742 3369,2741 3369,2739 3370,2738 3370,2704 3371,2703 3371,2689 3372,2688 3372,2651 3371,2650 3371,2625 3370,2624 3370,2613 3371,2612 3371,2578 3370,2577 3370,2560 3371,2559 3371,2477 3370,2476 3370,2432 3371,2431 3371,2428 3370,2427 3370,2415 3371,2414 3371,2410 3372,2409 3372,2383 3371,2382 3371,2376 3370,2375 3370,2360 3371,2359 3371,2338 3370,2337 3370,2316 3371,2315 3371,2287 3370,2286 3370,2278 3371,2277 3371,2250 3370,2249 3370,2246 3369,2245 3369,2244 3368,2243 3368,2242 3365,2239 3364,2239 3362,2237 3361,2237 3360,2236 3355,2236 3354,2237 3341,2237 3340,2236 3335,2236 3334,2237 3313,2237 3312,2236 3270,2236 3269,2235 3265,2235 3264,2234 3239,2234 3238,2235 3235,2235 3234,2236 3229,2236 3228,2237 3227,2237 3226,2236 3201,2236 3200,2237 3173,2237 3172,2236 3166,2236 3165,2235 3153,2235 3152,2234" fill="rgba(52,1,87,0.3)" stroke="rgb(52,1,87)" stroke-width="2" data-block-id="0006" data-name="b-0009" /><text x="3157" y="2627" text-anchor="middle" dominant-baseline="middle" class="block-label" fill="rgb(52,1,87)" stroke="white" stroke-width="3" paint-order="stroke">b-0009</text><polygon points="1597,2178 1596,2179 1589,2179 1588,2180 1584,2180 1580,2184 1580,2185 1579,2186 1579,2188 1578,2189 1578,2196 1579,2197 1579,2207 1580,2208 1580,2230 1581,2231 1581,2259 1582,2260 1582,2277 1583,2278 1583,2289 1584,2290 1584,2300 1585,2301 1585,2319 1586,2320 1586,2329 1585,2330 1585,2349 1586,2350 1586,2356 1587,2357 1587,2363 1588,2364 1588,2374 1589,2375 1589,2403 1590,2404 1590,2406 1589,2407 1589,2429 1590,2430 1590,2435 1591,2436 1591,2441 1592,2442 1592,2451 1593,2452 1593,2461 1594,2462 1594,2469 1595,2470 1595,2492 1596,2493 1596,2511 1595,2512 1595,2525 1594,2526 1594,2545 1595,2546 1595,2547 1594,2548 1594,2552 1593,2553 1593,2557 1592,2558 1592,2564 1591,2565 1591,2600 1590,2601 1590,2604 1589,2605 1589,2608 1588,2609 1588,2627 1589,2628 1589,2641 1588,2642 1588,2654 1587,2655 1587,2663 1586,2664 1586,2696 1585,2697 1585,2702 1584,2703 1584,2712 1583,2713 1583,2737 1584,2738 1583,2739 1583,2741 1582,2742 1582,2744 1581,2745 1581,2747 1580,2748 1580,2766 1579,2767 1579,2796 1578,2797 1578,2840 1577,2841 1577,2860 1576,2861 1576,2881 1575,2882 1575,2891 1574,2892 1574,2909 1575,2910 1575,2914 1576,2915 1576,2918 1577,2919 1577,2920 1580,2923 1581,2923 1582,2924 1584,2924 1585,2925 1609,2925 1610,2926 1616,2926 1617,2927 1625,2927 1626,2926 1631,2926 1632,2927 1636,2927 1637,2928 1640,2928 1641,2929 1645,2929 1646,2928 1650,2928 1651,2927 1657,2927 1658,2928 1660,2928 1661,2929 1663,2929 1664,2930 1675,2930 1676,2929 1678,2929 1679,2930 1683,2930 1684,2931 1687,2931 1688,2932 1695,2932 1696,2931 1708,2931 1709,2932 1728,2932 1729,2933 1734,2933 1735,2934 1746,2934 1747,2933 1752,2933 1753,2934 1786,2934 1787,2935 1792,2935 1793,2936 1796,2936 1797,2937 1799,2937 1800,2938 1803,2938 1804,2939 1809,2939 1810,2940 1811,2940 1812,2939 1821,2939 1822,2938 1829,2938 1830,2937 1836,2937 1837,2938 1842,2938 1843,2939 1861,2939 1862,2940 1867,2940 1868,2941 1887,2941 1888,2942 1899,2942 1900,2941 1906,2941 1907,2940 1910,2940 1911,2939 1914,2939 1915,2938 1916,2938 1917,2937 1918,2937 1919,2936 1919,2935 1920,2934 1920,2933 1921,2932 1921,2927 1922,2926 1922,2896 1923,2895 1923,2878 1924,2877 1924,2867 1925,2866 1925,2856 1926,2855 1926,2851 1927,2850 1927,2846 1928,2845 1928,2833 1929,2832 1929,2829 1930,2828 1930,2824 1931,2823 1931,2814 1932,2813 1932,2804 1933,2803 1933,2780 1934,2779 1934,2765 1935,2764 1935,2734 1936,2733 1936,2719 1937,2718 1937,2684 1938,2683 1938,2672 1939,2671 1939,2661 1940,2660 1940,2630 1941,2629 1941,2623 1942,2622 1942,2617 1941,2616 1941,2602 1940,2601 1940,2571 1939,2570 1939,2546 1938,2545 1938,2528 1937,2527 1937,2506 1936,2505 1936,2460 1935,2459 1935,2426 1934,2425 1934,2406 1933,2405 1933,2379 1934,2378 1934,2365 1933,2364 1933,2359 1932,2358 1932,2346 1931,2345 1931,2339 1930,2338 1930,2335 1929,2334 1929,2320 1930,2319 1930,2306 1929,2305 1929,2302 1928,2301 1928,2298 1927,2297 1927,2294 1926,2293 1926,2289 1925,2288 1925,2265 1924,2264 1924,2252 1923,2251 1923,2228 1922,2227 1922,2211 1921,2210 1921,2206 1920,2205 1920,2203 1919,2202 1919,2201 1916,2198 1915,2198 1914,2197 1911,2197 1910,2196 1903,2196 1902,2195 1856,2195 1855,2194 1851,2194 1850,2193 1840,2193 1839,2192 1819,2192 1818,2191 1801,2191 1800,2190 1791,2190 1790,2189 1775,2189 1774,2188 1756,2188 1755,2189 1746,2189 1745,2188 1739,2188 1738,2187 1727,2187 1726,2186 1697,2186 1696,2185 1687,2185 1686,2184 1681,2184 1680,2183 1676,2183 1675,2184 1669,2184 1668,2185 1664,2185 1663,2184 1654,2184 1653,2183 1641,2183 1640,2182 1631,2182 1630,2181 1616,2181 1615,2180 1612,2180 1611,2179 1609,2179 1608,2178" fill="rgba(235,157,37,0.3)" stroke="rgb(235,157,37)" stroke-width="2" data-block-id="0007" data-name="b-0010" /><text x="1746" y="2586" text-anchor="middle" dominant-baseline="middle" class="block-label" fill="rgb(235,157,37)" stroke="white" stroke-width="3" paint-order="stroke">b-0010</text><polygon points="1069,1332 1067,1334 1067,1335 1066,1336 1066,1338 1065,1339 1065,1352 1066,1353 1066,1372 1067,1373 1067,1392 1068,1393 1068,1417 1069,1418 1069,1425 1070,1426 1070,1452 1071,1453 1071,1465 1072,1466 1072,1478 1073,1479 1073,1489 1074,1490 1074,1511 1075,1512 1075,1530 1076,1531 1076,1543 1077,1544 1077,1553 1076,1554 1076,1572 1077,1573 1077,1580 1078,1581 1078,1589 1079,1590 1079,1597 1080,1598 1080,1607 1081,1608 1081,1620 1082,1621 1082,1636 1083,1637 1083,1669 1084,1670 1084,1682 1085,1683 1085,1705 1086,1706 1086,1722 1087,1723 1087,1731 1088,1732 1088,1757 1089,1758 1089,1768 1090,1769 1090,1776 1091,1777 1091,1783 1092,1784 1092,1788 1091,1789 1091,1800 1092,1801 1092,1809 1093,1810 1093,1823 1094,1824 1094,1829 1095,1830 1095,1846 1096,1847 1096,1864 1097,1865 1097,1883 1098,1884 1098,1901 1099,1902 1099,1920 1100,1921 1100,1943 1101,1944 1101,1959 1102,1960 1102,1974 1103,1975 1103,1995 1104,1996 1104,2013 1106,2015 1106,2016 1107,2016 1108,2017 1109,2017 1110,2018 1111,2018 1112,2019 1114,2019 1115,2020 1130,2020 1131,2021 1158,2021 1159,2022 1182,2022 1183,2023 1204,2023 1205,2024 1229,2024 1230,2025 1252,2025 1253,2026 1264,2026 1265,2027 1275,2027 1276,2028 1302,2028 1303,2029 1319,2029 1320,2030 1341,2030 1342,2031 1358,2031 1359,2032 1365,2032 1366,2033 1385,2033 1386,2034 1412,2034 1413,2035 1429,2035 1430,2036 1433,2036 1434,2037 1440,2037 1441,2038 1458,2038 1459,2039 1463,2039 1464,2038 1465,2038 1466,2037 1467,2037 1469,2035 1469,2034 1470,2033 1470,2031 1471,2030 1471,2027 1472,2026 1472,2019 1471,2018 1471,2008 1470,2007 1470,1997 1469,1996 1469,1976 1468,1975 1468,1962 1467,1961 1467,1950 1466,1949 1466,1930 1465,1929 1465,1906 1464,1905 1464,1888 1463,1887 1463,1871 1462,1870 1462,1864 1461,1863 1461,1851 1460,1850 1460,1830 1459,1829 1459,1814 1458,1813 1458,1801 1457,1800 1457,1784 1456,1783 1456,1766 1455,1765 1455,1751 1454,1750 1454,1738 1453,1737 1453,1725 1452,1724 1452,1709 1451,1708 1451,1692 1450,1691 1450,1682 1449,1681 1449,1666 1448,1665 1448,1653 1447,1652 1447,1636 1446,1635 1446,1625 1445,1624 1445,1614 1444,1613 1444,1589 1443,1588 1443,1563 1442,1562 1442,1538 1441,1537 1441,1521 1440,1520 1440,1511 1439,1510 1439,1503 1438,1502 1438,1493 1437,1492 1437,1477 1436,1476 1436,1461 1435,1460 1435,1451 1434,1450 1434,1430 1433,1429 1433,1415 1432,1414 1432,1402 1431,1401 1431,1391 1430,1390 1430,1386 1429,1385 1429,1384 1428,1383 1428,1382 1426,1380 1424,1380 1423,1379 1421,1379 1420,1378 1417,1378 1416,1377 1411,1377 1410,1376 1400,1376 1399,1375 1390,1375 1389,1374 1384,1374 1383,1373 1378,1373 1377,1372 1374,1372 1373,1371 1369,1371 1368,1370 1360,1370 1359,1369 1353,1369 1352,1368 1348,1368 1347,1367 1344,1367 1343,1366 1341,1366 1340,1365 1337,1365 1336,1364 1328,1364 1327,1363 1317,1363 1316,1362 1306,1362 1305,1361 1298,1361 1297,1360 1281,1360 1280,1359 1271,1359 1270,1358 1265,1358 1264,1357 1260,1357 1259,1356 1253,1356 1252,1355 1248,1355 1247,1354 1245,1354 1244,1353 1240,1353 1239,1352 1234,1352 1233,1351 1225,1351 1224,1350 1217,1350 1216,1349 1208,1349 1207,1348 1199,1348 1198,1347 1189,1347 1188,1346 1182,1346 1181,1345 1173,1345 1172,1344 1160,1344 1159,1343 1153,1343 1152,1342 1147,1342 1146,1341 1139,1341 1138,1340 1129,1340 1128,1339 1121,1339 1120,1338 1115,1338 1114,1337 1109,1337 1108,1336 1102,1336 1101,1335 1096,1335 1095,1334 1089,1334 1088,1333 1080,1333 1079,1332" fill="rgba(129,191,187,0.3)" stroke="rgb(129,191,187)" stroke-width="2" data-block-id="0008" data-name="b-0011" /><text x="1270" y="1644" text-anchor="middle" dominant-baseline="middle" class="block-label" fill="rgb(129,191,187)" stroke="white" stroke-width="3" paint-order="stroke">b-0011</text><polygon points="4130,2240 4129,2241 4096,2241 4095,2242 4055,2242 4054,2241 4029,2241 4028,2242 4024,2242 4023,2243 4020,2243 4019,2244 4012,2244 4011,2245 4005,2245 4004,2244 4001,2244 4000,2243 3997,2243 3996,2242 3929,2242 3928,2241 3923,2241 3922,2242 3921,2242 3920,2243 3920,2244 3919,2245 3919,2247 3918,2248 3918,2251 3917,2252 3917,2260 3916,2261 3916,2267 3915,2268 3915,2289 3916,2290 3916,2343 3915,2344 3915,2357 3916,2358 3916,2362 3917,2363 3917,2366 3918,2367 3918,2371 3917,2372 3917,2375 3916,2376 3916,2380 3915,2381 3915,2385 3916,2386 3916,2409 3917,2410 3917,2423 3916,2424 3916,2451 3917,2452 3917,2519 3916,2520 3916,2566 3917,2567 3917,2573 3916,2574 3916,2636 3917,2637 3917,2652 3916,2653 3916,2683 3917,2684 3917,2688 3918,2689 3918,2693 3919,2694 3919,2717 3920,2718 3920,2732 3921,2733 3921,2738 3920,2739 3920,2746 3919,2747 3919,2773 3918,2774 3918,2777 3919,2778 3919,2790 3918,2791 3918,2793 3917,2794 3917,2797 3916,2798 3916,2807 3917,2808 3917,2820 3918,2821 3918,2841 3917,2842 3917,2916 3916,2917 3916,2918 3917,2919 3917,2933 3916,2934 3916,2939 3915,2940 3915,2957 3916,2958 3916,2960 3917,2961 3917,2963 3919,2965 3919,2966 3920,2967 3921,2967 3922,2968 3925,2968 3926,2969 3932,2969 3933,2970 3987,2970 3988,2971 3997,2971 3998,2970 4009,2970 4010,2971 4039,2971 4040,2972 4041,2971 4052,2971 4053,2970 4094,2970 4095,2971 4108,2971 4109,2970 4117,2970 4118,2971 4156,2971 4157,2970 4170,2970 4171,2971 4192,2971 4193,2970 4198,2970 4199,2971 4210,2971 4211,2972 4221,2972 4222,2971 4224,2971 4225,2970 4226,2970 4227,2969 4228,2969 4229,2968 4230,2968 4232,2966 4232,2965 4233,2964 4233,2960 4234,2959 4234,2955 4235,2954 4235,2927 4236,2926 4236,2916 4235,2915 4235,2909 4234,2908 4234,2903 4235,2902 4235,2889 4234,2888 4234,2874 4235,2873 4235,2867 4234,2866 4234,2857 4235,2856 4235,2841 4234,2840 4234,2816 4235,2815 4235,2778 4236,2777 4236,2768 4235,2767 4235,2763 4236,2762 4236,2744 4235,2743 4235,2735 4236,2734 4236,2724 4235,2723 4235,2667 4236,2666 4236,2651 4235,2650 4235,2553 4234,2552 4234,2547 4235,2546 4235,2435 4234,2434 4234,2427 4235,2426 4235,2381 4234,2380 4234,2376 4233,2375 4233,2373 4232,2372 4232,2370 4231,2369 4231,2367 4232,2366 4232,2362 4233,2361 4233,2328 4234,2327 4234,2316 4233,2315 4233,2256 4232,2255 4232,2250 4231,2249 4231,2248 4230,2248 4229,2247 4228,2247 4227,2246 4226,2246 4225,2245 4223,2245 4222,2244 4220,2244 4219,2243 4217,2243 4216,2242 4212,2242 4211,2241 4181,2241 4180,2240 4171,2240 4170,2241 4163,2241 4162,2242 4145,2242 4144,2241 4140,2241 4139,2240" fill="rgba(20,160,203,0.3)" stroke="rgb(20,160,203)" stroke-width="2" data-block-id="0009" data-name="b-0012" /><text x="4073" y="2610" text-anchor="middle" dominant-baseline="middle" class="block-label" fill="rgb(20,160,203)" stroke="white" stroke-width="3" paint-order="stroke">b-0012</text><polygon points="4339,2240 4338,2241 4337,2241 4336,2242 4335,2242 4334,2243 4333,2243 4331,2245 4331,2246 4329,2248 4329,2250 4328,2251 4328,2268 4327,2269 4327,2280 4328,2281 4328,2312 4327,2313 4327,2378 4328,2379 4328,2386 4327,2387 4327,2419 4328,2420 4328,2472 4329,2473 4329,2482 4328,2483 4328,2512 4329,2513 4329,2531 4328,2532 4328,2563 4329,2564 4329,2614 4330,2615 4330,2650 4329,2651 4329,2680 4330,2681 4330,2689 4331,2690 4331,2695 4330,2696 4330,2712 4331,2713 4331,2720 4330,2721 4330,2731 4331,2732 4331,2745 4330,2746 4330,2760 4331,2761 4331,2796 4330,2797 4330,2805 4331,2806 4331,2813 4330,2814 4330,2832 4331,2833 4331,2836 4330,2837 4330,2904 4331,2905 4331,2911 4330,2912 4330,2924 4331,2925 4331,2932 4330,2933 4330,2956 4331,2957 4331,2960 4332,2961 4332,2964 4333,2965 4333,2966 4336,2969 4337,2969 4338,2970 4339,2970 4340,2971 4357,2971 4358,2970 4405,2970 4406,2971 4422,2971 4423,2970 4443,2970 4444,2971 4458,2971 4459,2970 4472,2970 4473,2969 4490,2969 4491,2970 4522,2970 4523,2971 4594,2971 4595,2972 4630,2972 4631,2971 4638,2971 4639,2970 4640,2970 4642,2968 4642,2966 4643,2965 4643,2960 4644,2959 4644,2902 4645,2901 4645,2891 4644,2890 4644,2878 4645,2877 4645,2864 4644,2863 4644,2857 4645,2856 4645,2848 4646,2847 4646,2794 4645,2793 4645,2783 4646,2782 4646,2780 4647,2779 4647,2768 4646,2767 4646,2756 4645,2755 4645,2743 4644,2742 4644,2741 4645,2740 4645,2737 4646,2736 4646,2732 4647,2731 4647,2724 4646,2723 4646,2694 4645,2693 4646,2692 4646,2684 4647,2683 4647,2602 4646,2601 4646,2593 4647,2592 4647,2569 4646,2568 4646,2561 4645,2560 4645,2559 4646,2558 4646,2518 4645,2517 4645,2509 4646,2508 4646,2493 4645,2492 4645,2486 4646,2485 4646,2472 4645,2471 4645,2467 4644,2466 4644,2462 4645,2461 4645,2455 4646,2454 4646,2388 4647,2387 4647,2379 4646,2378 4646,2376 4645,2375 4645,2373 4644,2372 4644,2371 4643,2370 4643,2366 4644,2365 4644,2362 4645,2361 4645,2311 4644,2310 4644,2302 4645,2301 4645,2279 4646,2278 4646,2275 4645,2274 4645,2267 4644,2266 4644,2262 4643,2261 4643,2256 4642,2255 4642,2251 4641,2250 4641,2249 4638,2246 4625,2246 4624,2245 4618,2245 4617,2244 4576,2244 4575,2243 4557,2243 4556,2244 4554,2244 4553,2243 4510,2243 4509,2244 4508,2243 4480,2243 4479,2242 4462,2242 4461,2241 4453,2241 4452,2240 4443,2240 4442,2241 4432,2241 4431,2240 4398,2240 4397,2241 4383,2241 4382,2240" fill="rgba(57,21,252,0.3)" stroke="rgb(57,21,252)" stroke-width="2" data-block-id="0010" data-name="b-0013" /><text x="4501" y="2596" text-anchor="middle" dominant-baseline="middle" class="block-label" fill="rgb(57,21,252)" stroke="white" stroke-width="3" paint-order="stroke">b-0013</text><polygon points="1537,1392 1536,1393 1535,1393 1533,1395 1533,1396 1532,1397 1532,1399 1531,1400 1531,1410 1532,1411 1532,1427 1533,1428 1532,1429 1532,1441 1533,1442 1533,1458 1534,1459 1534,1478 1535,1479 1535,1485 1536,1486 1536,1498 1537,1499 1537,1514 1538,1515 1538,1531 1539,1532 1539,1535 1538,1536 1538,1551 1539,1552 1539,1559 1540,1560 1540,1570 1541,1571 1541,1579 1542,1580 1542,1610 1543,1611 1543,1620 1544,1621 1544,1647 1543,1648 1543,1656 1544,1657 1544,1663 1545,1664 1545,1669 1546,1670 1546,1695 1547,1696 1547,1711 1548,1712 1548,1722 1549,1723 1549,1734 1550,1735 1550,1740 1549,1741 1549,1752 1550,1753 1550,1760 1551,1761 1551,1782 1552,1783 1552,1800 1553,1801 1553,1807 1554,1808 1554,1811 1555,1812 1555,1814 1556,1815 1556,1817 1557,1818 1557,1820 1558,1821 1558,1836 1559,1837 1559,1850 1558,1851 1558,1865 1557,1866 1557,1867 1558,1868 1558,1878 1559,1879 1559,1898 1560,1899 1560,1914 1561,1915 1561,1922 1562,1923 1562,1936 1563,1937 1563,1948 1564,1949 1564,1958 1565,1959 1565,1973 1566,1974 1566,1990 1567,1991 1567,2016 1568,2017 1568,2027 1569,2028 1569,2038 1570,2039 1570,2040 1573,2043 1575,2043 1576,2044 1579,2044 1580,2045 1586,2045 1587,2046 1591,2046 1592,2047 1615,2047 1616,2048 1626,2048 1627,2047 1630,2047 1631,2048 1639,2048 1640,2049 1660,2049 1661,2050 1669,2050 1670,2051 1681,2051 1682,2052 1687,2052 1688,2053 1706,2053 1707,2054 1711,2054 1712,2055 1729,2055 1730,2056 1756,2056 1757,2057 1808,2057 1809,2058 1813,2058 1814,2059 1818,2059 1819,2060 1847,2060 1848,2061 1875,2061 1876,2062 1885,2062 1886,2063 1892,2063 1893,2064 1902,2064 1903,2065 1904,2065 1905,2064 1909,2064 1910,2063 1911,2063 1913,2061 1914,2061 1915,2060 1915,2059 1917,2057 1917,2056 1918,2055 1918,2054 1919,2053 1919,2050 1920,2049 1920,2045 1919,2044 1919,2037 1918,2036 1918,2020 1917,2019 1917,1999 1916,1998 1916,1993 1915,1992 1915,1983 1914,1982 1914,1978 1913,1977 1913,1964 1914,1963 1914,1948 1913,1947 1913,1938 1912,1937 1912,1933 1911,1932 1911,1921 1910,1920 1910,1910 1909,1909 1909,1893 1908,1892 1908,1884 1907,1883 1907,1858 1906,1857 1906,1842 1905,1841 1905,1835 1904,1834 1904,1800 1903,1799 1903,1782 1902,1781 1902,1769 1901,1768 1901,1759 1900,1758 1900,1746 1899,1745 1899,1735 1898,1734 1898,1723 1897,1722 1897,1714 1896,1713 1896,1700 1895,1699 1895,1682 1894,1681 1894,1668 1893,1667 1893,1657 1892,1656 1892,1639 1891,1638 1891,1626 1890,1625 1890,1617 1889,1616 1889,1611 1888,1610 1888,1607 1887,1606 1887,1603 1888,1602 1888,1586 1887,1585 1887,1573 1886,1572 1886,1567 1885,1566 1885,1563 1884,1562 1884,1541 1883,1540 1883,1523 1882,1522 1882,1517 1881,1516 1881,1511 1880,1510 1880,1508 1881,1507 1881,1484 1880,1483 1880,1472 1879,1471 1879,1463 1878,1462 1878,1457 1879,1456 1879,1451 1878,1450 1878,1444 1877,1443 1877,1439 1876,1438 1876,1437 1871,1432 1868,1432 1867,1431 1851,1431 1850,1430 1838,1430 1837,1431 1834,1431 1833,1430 1827,1430 1826,1429 1818,1429 1817,1428 1809,1428 1808,1427 1803,1427 1802,1426 1799,1426 1798,1425 1794,1425 1793,1424 1782,1424 1781,1423 1773,1423 1772,1422 1767,1422 1766,1421 1759,1421 1758,1420 1754,1420 1753,1419 1744,1419 1743,1418 1733,1418 1732,1417 1723,1417 1722,1416 1716,1416 1715,1415 1713,1415 1712,1414 1710,1414 1709,1413 1708,1413 1707,1412 1705,1412 1704,1411 1700,1411 1699,1410 1691,1410 1690,1409 1682,1409 1681,1408 1665,1408 1664,1407 1660,1407 1659,1406 1643,1406 1642,1405 1633,1405 1632,1404 1625,1404 1624,1403 1617,1403 1616,1402 1606,1402 1605,1401 1601,1401 1600,1400 1595,1400 1594,1399 1582,1399 1581,1398 1576,1398 1575,1397 1571,1397 1570,1396 1567,1396 1566,1395 1562,1395 1561,1394 1555,1394 1554,1393 1539,1393 1538,1392" fill="rgba(235,88,48,0.3)" stroke="rgb(235,88,48)" stroke-width="2" data-block-id="0011" data-name="b-0014" /><text x="1723" y="1703" text-anchor="middle" dominant-baseline="middle" class="block-label" fill="rgb(235,88,48)" stroke="white" stroke-width="3" paint-order="stroke">b-0014</text><polygon points="1977,1453 1974,1456 1974,1457 1973,1458 1973,1459 1972,1460 1972,1477 1973,1478 1973,1505 1974,1506 1974,1516 1975,1517 1975,1534 1976,1535 1976,1549 1977,1550 1977,1561 1978,1562 1978,1576 1979,1577 1979,1601 1980,1602 1980,1623 1981,1624 1981,1636 1982,1637 1982,1649 1983,1650 1983,1667 1984,1668 1984,1673 1985,1674 1985,1691 1986,1692 1986,1700 1987,1701 1987,1721 1988,1722 1988,1735 1989,1736 1989,1743 1990,1744 1990,1760 1991,1761 1991,1776 1992,1777 1992,1791 1993,1792 1993,1800 1994,1801 1994,1812 1995,1813 1995,1823 1996,1824 1996,1831 1997,1832 1997,1837 1998,1838 1998,1841 1999,1842 1999,1846 1998,1847 1998,1850 1997,1851 1997,1863 1998,1864 1998,1871 1999,1872 1999,1880 2000,1881 2000,1899 2001,1900 2001,1913 2002,1914 2002,1932 2003,1933 2003,1953 2004,1954 2004,1963 2005,1964 2005,1985 2006,1986 2006,1998 2007,1999 2007,2016 2008,2017 2008,2027 2009,2028 2009,2038 2010,2039 2010,2047 2011,2048 2011,2052 2010,2053 2010,2058 2011,2059 2011,2063 2012,2064 2012,2065 2014,2067 2014,2068 2015,2068 2016,2069 2017,2069 2018,2070 2022,2070 2023,2071 2039,2071 2040,2072 2053,2072 2054,2073 2066,2073 2067,2074 2081,2074 2082,2075 2093,2075 2094,2076 2111,2076 2112,2077 2127,2077 2128,2078 2151,2078 2152,2079 2167,2079 2168,2080 2178,2080 2179,2081 2200,2081 2201,2082 2216,2082 2217,2083 2235,2083 2236,2084 2268,2084 2269,2085 2281,2085 2282,2086 2309,2086 2310,2087 2319,2087 2320,2088 2336,2088 2337,2089 2373,2089 2374,2088 2375,2088 2376,2087 2377,2087 2378,2086 2378,2085 2379,2084 2379,2070 2378,2069 2378,2064 2377,2063 2377,2057 2376,2056 2376,2045 2375,2044 2375,2035 2374,2034 2374,2020 2373,2019 2373,2012 2372,2011 2372,2005 2371,2004 2371,1976 2370,1975 2370,1963 2369,1962 2369,1944 2368,1943 2368,1920 2367,1919 2367,1912 2366,1911 2366,1906 2365,1905 2365,1884 2364,1883 2364,1867 2363,1866 2363,1861 2362,1860 2362,1846 2361,1845 2361,1822 2360,1821 2360,1813 2359,1812 2359,1789 2358,1788 2358,1777 2357,1776 2357,1763 2356,1762 2356,1745 2355,1744 2355,1735 2354,1734 2354,1729 2353,1728 2353,1717 2352,1716 2352,1701 2351,1700 2351,1691 2350,1690 2350,1671 2349,1670 2349,1658 2348,1657 2348,1639 2347,1638 2347,1628 2346,1627 2346,1619 2345,1618 2345,1594 2344,1593 2344,1583 2343,1582 2343,1560 2342,1559 2342,1551 2341,1550 2341,1539 2340,1538 2340,1524 2339,1523 2339,1510 2338,1509 2338,1505 2337,1504 2337,1500 2335,1498 2335,1497 2333,1495 2332,1495 2331,1494 2330,1494 2329,1493 2327,1493 2326,1492 2324,1492 2323,1491 2314,1491 2313,1490 2301,1490 2300,1489 2293,1489 2292,1488 2283,1488 2282,1487 2274,1487 2273,1486 2269,1486 2268,1485 2263,1485 2262,1484 2258,1484 2257,1483 2254,1483 2253,1482 2250,1482 2249,1481 2245,1481 2244,1480 2238,1480 2237,1479 2229,1479 2228,1478 2222,1478 2221,1477 2215,1477 2214,1476 2202,1476 2201,1475 2186,1475 2185,1474 2174,1474 2173,1473 2168,1473 2167,1472 2161,1472 2160,1471 2157,1471 2156,1470 2154,1470 2152,1468 2150,1468 2149,1467 2148,1467 2147,1466 2144,1466 2143,1465 2120,1465 2119,1464 2104,1464 2103,1463 2099,1463 2098,1462 2090,1462 2089,1463 2083,1463 2082,1462 2079,1462 2078,1461 2072,1461 2071,1460 2059,1460 2058,1459 2057,1459 2056,1458 2053,1458 2052,1457 2049,1457 2048,1456 2041,1456 2040,1455 2019,1455 2018,1454 2008,1454 2007,1453" fill="rgba(218,58,254,0.3)" stroke="rgb(218,58,254)" stroke-width="2" data-block-id="0012" data-name="b-0015" /><text x="2171" y="1746" text-anchor="middle" dominant-baseline="middle" class="block-label" fill="rgb(218,58,254)" stroke="white" stroke-width="3" paint-order="stroke">b-0015</text><polygon points="2527,1544 2526,1545 2525,1545 2522,1548 2522,1549 2521,1550 2521,1552 2520,1553 2520,1567 2521,1568 2521,1582 2522,1583 2522,1601 2523,1602 2523,1612 2524,1613 2524,1644 2525,1645 2525,1678 2526,1679 2526,1706 2527,1707 2527,1737 2528,1738 2527,1739 2527,1752 2528,1753 2528,1779 2529,1780 2529,1801 2530,1802 2530,1818 2529,1819 2529,1828 2530,1829 2530,1835 2529,1836 2529,1846 2530,1847 2530,1852 2531,1853 2531,1896 2532,1897 2532,1902 2533,1903 2533,1921 2534,1922 2534,1941 2535,1942 2535,1982 2536,1983 2536,2005 2537,2006 2537,2036 2538,2037 2538,2069 2539,2070 2539,2087 2540,2088 2540,2093 2541,2094 2541,2095 2542,2096 2542,2097 2544,2099 2545,2099 2546,2100 2547,2100 2548,2101 2550,2101 2551,2102 2555,2102 2556,2101 2569,2101 2570,2102 2578,2102 2579,2101 2596,2101 2597,2102 2611,2102 2612,2103 2642,2103 2643,2104 2676,2104 2677,2105 2696,2105 2697,2106 2700,2106 2701,2107 2704,2107 2705,2108 2712,2108 2713,2107 2722,2107 2723,2108 2727,2108 2728,2109 2731,2109 2732,2108 2734,2108 2735,2107 2738,2107 2739,2106 2744,2106 2745,2107 2748,2107 2749,2108 2750,2108 2751,2109 2757,2109 2758,2108 2760,2108 2761,2107 2766,2107 2767,2106 2768,2107 2772,2107 2773,2108 2796,2108 2797,2109 2807,2109 2808,2108 2814,2108 2815,2107 2824,2107 2825,2106 2831,2106 2832,2105 2843,2105 2844,2106 2854,2106 2855,2105 2863,2105 2864,2106 2865,2106 2866,2107 2867,2107 2868,2108 2869,2108 2871,2110 2873,2110 2874,2111 2875,2111 2876,2110 2880,2110 2881,2109 2883,2109 2884,2108 2887,2108 2888,2109 2890,2109 2891,2110 2894,2110 2895,2111 2897,2111 2898,2110 2901,2110 2902,2109 2903,2109 2904,2108 2906,2108 2907,2107 2908,2107 2909,2106 2910,2106 2912,2104 2913,2104 2916,2101 2916,2100 2918,2098 2918,2097 2919,2096 2919,2093 2920,2092 2920,2078 2919,2077 2919,2067 2920,2066 2920,2063 2921,2062 2921,2045 2922,2044 2922,2029 2921,2028 2921,2014 2922,2013 2922,2010 2921,2009 2921,1985 2920,1984 2920,1979 2919,1978 2919,1963 2920,1962 2920,1932 2919,1931 2919,1910 2920,1909 2920,1901 2919,1900 2919,1867 2920,1866 2920,1860 2921,1859 2921,1849 2920,1848 2920,1840 2921,1839 2921,1756 2922,1755 2922,1737 2921,1736 2921,1698 2922,1697 2922,1597 2923,1596 2923,1586 2922,1585 2922,1560 2921,1559 2921,1556 2919,1554 2919,1553 2918,1553 2916,1551 2915,1551 2914,1550 2912,1550 2911,1549 2873,1549 2872,1550 2830,1550 2829,1549 2788,1549 2787,1550 2780,1550 2779,1551 2774,1551 2773,1550 2766,1550 2765,1549 2750,1549 2749,1550 2745,1550 2744,1551 2742,1551 2741,1550 2739,1550 2738,1549 2736,1549 2735,1548 2733,1548 2732,1547 2725,1547 2724,1548 2690,1548 2689,1547 2683,1547 2682,1546 2629,1546 2628,1547 2587,1547 2586,1546 2574,1546 2573,1545 2560,1545 2559,1544 2547,1544 2546,1545 2533,1545 2532,1544" fill="rgba(169,219,187,0.3)" stroke="rgb(169,219,187)" stroke-width="2" data-block-id="0013" data-name="b-0016" /><text x="2736" y="1892" text-anchor="middle" dominant-baseline="middle" class="block-label" fill="rgb(169,219,187)" stroke="white" stroke-width="3" paint-order="stroke">b-0016</text><polygon points="3030,1552 3029,1553 3025,1553 3024,1554 3023,1554 3022,1555 3021,1555 3019,1557 3019,1558 3018,1559 3018,1565 3017,1566 3017,1609 3016,1610 3016,1621 3017,1622 3017,1637 3016,1638 3016,1674 3017,1675 3017,1685 3016,1686 3016,1698 3015,1699 3015,1710 3016,1711 3016,1714 3015,1715 3015,1739 3014,1740 3014,1773 3015,1774 3015,1827 3014,1828 3014,1873 3015,1874 3015,1882 3014,1883 3014,1985 3013,1986 3013,1991 3014,1992 3014,2004 3013,2005 3013,2071 3012,2072 3012,2098 3013,2099 3013,2102 3014,2103 3014,2104 3016,2106 3017,2106 3018,2107 3020,2107 3021,2108 3039,2108 3040,2107 3048,2107 3049,2106 3097,2106 3098,2107 3209,2107 3210,2108 3225,2108 3226,2107 3250,2107 3251,2106 3254,2106 3255,2107 3261,2107 3262,2108 3285,2108 3286,2107 3287,2107 3288,2108 3322,2108 3323,2107 3334,2107 3335,2108 3357,2108 3358,2107 3362,2107 3363,2106 3365,2106 3366,2105 3367,2105 3371,2101 3371,2099 3372,2098 3372,2096 3373,2095 3373,2036 3372,2035 3372,2017 3373,2016 3373,1940 3374,1939 3374,1938 3373,1937 3373,1905 3374,1904 3374,1879 3373,1878 3373,1854 3374,1853 3374,1817 3373,1816 3373,1802 3374,1801 3374,1794 3373,1793 3373,1706 3374,1705 3374,1696 3373,1695 3373,1647 3374,1646 3374,1630 3373,1629 3373,1610 3374,1609 3374,1581 3375,1580 3375,1567 3374,1566 3374,1562 3373,1561 3373,1560 3371,1558 3368,1558 3367,1557 3352,1557 3351,1558 3345,1558 3344,1557 3311,1557 3310,1556 3302,1556 3301,1555 3282,1555 3281,1554 3206,1554 3205,1555 3187,1555 3186,1554 3175,1554 3174,1555 3166,1555 3165,1554 3136,1554 3135,1553 3127,1553 3126,1554 3122,1554 3121,1553 3114,1553 3113,1552 3106,1552 3105,1553 3090,1553 3089,1552 3081,1552 3080,1553 3052,1553 3051,1552" fill="rgba(207,14,189,0.3)" stroke="rgb(207,14,189)" stroke-width="2" data-block-id="0014" data-name="b-0017" /><text x="3191" y="1804" text-anchor="middle" dominant-baseline="middle" class="block-label" fill="rgb(207,14,189)" stroke="white" stroke-width="3" paint-order="stroke">b-0017</text><polygon points="3480,1557 3479,1558 3468,1558 3465,1561 3465,1562 3464,1563 3464,1565 3463,1566 3463,1585 3464,1586 3464,1615 3463,1616 3463,1629 3464,1630 3464,1650 3463,1651 3463,1659 3464,1660 3464,1668 3463,1669 3463,1683 3464,1684 3464,1707 3465,1708 3465,1722 3464,1723 3464,1734 3463,1735 3463,1805 3464,1806 3464,1841 3463,1842 3463,1850 3464,1851 3464,1857 3463,1858 3463,1888 3462,1889 3462,1896 3463,1897 3463,1910 3462,1911 3462,1936 3463,1937 3463,1943 3462,1944 3462,1961 3461,1962 3461,1970 3462,1971 3462,1983 3463,1984 3463,1996 3462,1997 3462,2003 3463,2004 3463,2027 3462,2028 3462,2042 3463,2043 3463,2053 3462,2054 3462,2100 3463,2101 3463,2103 3464,2104 3464,2105 3466,2107 3466,2108 3467,2108 3469,2110 3472,2110 3473,2111 3476,2111 3477,2112 3491,2112 3492,2111 3496,2111 3497,2110 3502,2110 3503,2109 3510,2109 3511,2108 3550,2108 3551,2109 3568,2109 3569,2110 3574,2110 3575,2109 3588,2109 3589,2108 3653,2108 3654,2109 3674,2109 3675,2108 3707,2108 3708,2109 3713,2109 3714,2110 3740,2110 3741,2109 3787,2109 3788,2110 3798,2110 3799,2109 3813,2109 3814,2108 3816,2108 3819,2105 3819,2104 3820,2103 3820,2102 3821,2101 3821,2098 3822,2097 3822,2076 3823,2075 3823,2054 3822,2053 3822,2026 3823,2025 3823,1995 3824,1994 3824,1948 3823,1947 3823,1934 3824,1933 3824,1898 3825,1897 3825,1863 3824,1862 3824,1850 3825,1849 3825,1829 3824,1828 3824,1810 3823,1809 3823,1807 3824,1806 3824,1771 3823,1770 3823,1749 3824,1748 3824,1720 3823,1719 3823,1707 3824,1706 3824,1666 3823,1665 3823,1648 3824,1647 3824,1628 3823,1627 3823,1594 3824,1593 3824,1571 3823,1570 3823,1568 3819,1564 3818,1564 3817,1563 3816,1563 3815,1562 3798,1562 3797,1563 3777,1563 3776,1562 3711,1562 3710,1561 3707,1561 3706,1562 3699,1562 3698,1563 3694,1563 3693,1562 3687,1562 3686,1561 3672,1561 3671,1560 3602,1560 3601,1561 3600,1561 3599,1560 3594,1560 3593,1559 3590,1559 3589,1558 3578,1558 3577,1559 3576,1559 3575,1558 3567,1558 3566,1557 3562,1557 3561,1558 3555,1558 3554,1559 3502,1559 3501,1558 3494,1558 3493,1557" fill="rgba(189,174,189,0.3)" stroke="rgb(189,174,189)" stroke-width="2" data-block-id="0015" data-name="b-0018" /><text x="3622" y="1832" text-anchor="middle" dominant-baseline="middle" class="block-label" fill="rgb(189,174,189)" stroke="white" stroke-width="3" paint-order="stroke">b-0018</text><polygon points="2508,1002 2507,1003 2504,1003 2502,1005 2502,1006 2501,1007 2501,1039 2502,1040 2502,1057 2503,1058 2503,1093 2504,1094 2504,1102 2505,1103 2505,1145 2506,1146 2506,1163 2507,1164 2507,1192 2508,1193 2508,1197 2509,1198 2509,1200 2510,1201 2510,1216 2511,1217 2511,1225 2512,1226 2512,1273 2513,1274 2513,1286 2512,1287 2512,1332 2513,1333 2513,1342 2514,1343 2514,1347 2513,1348 2513,1370 2514,1371 2514,1380 2515,1381 2515,1394 2516,1395 2516,1401 2517,1402 2517,1409 2518,1410 2518,1427 2519,1428 2519,1432 2520,1433 2520,1435 2521,1436 2521,1438 2522,1439 2522,1441 2523,1442 2523,1444 2524,1445 2524,1446 2525,1447 2525,1449 2526,1449 2527,1450 2542,1450 2543,1451 2546,1451 2547,1452 2574,1452 2575,1453 2593,1453 2594,1454 2624,1454 2625,1455 2631,1455 2632,1456 2636,1456 2637,1457 2640,1457 2641,1458 2645,1458 2646,1459 2677,1459 2678,1458 2686,1458 2687,1459 2726,1459 2727,1460 2750,1460 2751,1459 2756,1459 2757,1460 2789,1460 2790,1461 2809,1461 2810,1462 2813,1462 2814,1461 2821,1461 2822,1460 2855,1460 2856,1461 2875,1461 2876,1462 2911,1462 2912,1461 2913,1461 2914,1460 2915,1460 2916,1459 2917,1459 2919,1457 2919,1456 2920,1455 2920,1453 2921,1452 2921,1383 2922,1382 2922,1277 2923,1276 2923,1254 2922,1253 2922,1245 2923,1244 2923,1203 2924,1202 2924,1136 2925,1135 2925,1125 2924,1124 2924,1110 2925,1109 2925,1086 2924,1085 2924,1065 2925,1064 2925,1029 2926,1028 2926,1015 2925,1014 2925,1010 2924,1009 2924,1008 2921,1005 2913,1005 2912,1004 2902,1004 2901,1005 2898,1005 2897,1004 2781,1004 2780,1005 2773,1005 2772,1004 2690,1004 2689,1005 2683,1005 2682,1004 2657,1004 2656,1005 2618,1005 2617,1006 2600,1006 2599,1007 2585,1007 2584,1006 2576,1006 2575,1005 2551,1005 2550,1004 2543,1004 2542,1003 2531,1003 2530,1002" fill="rgba(50,107,54,0.3)" stroke="rgb(50,107,54)" stroke-width="2" data-block-id="0016" data-name="b-0019" /><text x="2678" y="1260" text-anchor="middle" dominant-baseline="middle" class="block-label" fill="rgb(50,107,54)" stroke="white" stroke-width="3" paint-order="stroke">b-0019</text><polygon points="771,1294 770,1295 768,1295 766,1297 766,1298 765,1299 765,1300 764,1301 764,1304 763,1305 763,1322 762,1323 762,1332 761,1333 761,1338 760,1339 760,1345 759,1346 759,1357 758,1358 758,1366 757,1367 757,1378 756,1379 756,1402 755,1403 755,1420 754,1421 754,1429 753,1430 753,1437 752,1438 752,1443 751,1444 751,1447 750,1448 750,1466 749,1467 749,1471 748,1472 748,1477 747,1478 747,1480 746,1481 746,1483 745,1484 745,1488 744,1489 744,1496 743,1497 743,1524 742,1525 742,1529 741,1530 741,1538 740,1539 740,1568 739,1569 739,1577 738,1578 738,1586 737,1587 737,1592 736,1593 736,1599 735,1600 735,1607 734,1608 734,1613 733,1614 733,1620 732,1621 732,1627 731,1628 731,1649 730,1650 730,1659 729,1660 729,1665 728,1666 728,1670 727,1671 727,1704 726,1705 726,1725 725,1726 725,1732 724,1733 724,1750 723,1751 723,1756 722,1757 722,1763 721,1764 721,1780 720,1781 720,1800 719,1801 719,1810 718,1811 718,1821 717,1822 717,1843 716,1844 716,1851 715,1852 715,1858 714,1859 714,1868 713,1869 713,1881 712,1882 712,1886 711,1887 711,1906 710,1907 710,1915 709,1916 709,1930 708,1931 708,1937 707,1938 707,1960 706,1961 706,1972 705,1973 705,1988 706,1989 706,1990 707,1991 707,1992 709,1994 711,1994 712,1995 720,1995 721,1996 748,1996 749,1997 756,1997 757,1998 771,1998 772,1999 780,1999 781,2000 799,2000 800,2001 814,2001 815,2002 828,2002 829,2003 843,2003 844,2004 864,2004 865,2005 885,2005 886,2006 916,2006 917,2007 927,2007 928,2008 934,2008 935,2009 952,2009 953,2010 976,2010 977,2011 984,2011 985,2012 1002,2012 1003,2011 1008,2011 1009,2010 1009,2009 1010,2008 1010,2006 1011,2005 1011,1982 1010,1981 1010,1969 1009,1968 1009,1954 1008,1953 1008,1936 1007,1935 1007,1924 1006,1923 1006,1911 1005,1910 1005,1890 1004,1889 1004,1883 1003,1882 1003,1858 1002,1857 1002,1845 1001,1844 1001,1827 1000,1826 1000,1823 999,1822 999,1817 1000,1816 1000,1802 999,1801 999,1788 1000,1787 1000,1785 999,1784 999,1778 998,1777 998,1773 997,1772 997,1758 996,1757 996,1751 995,1750 995,1746 996,1745 996,1733 995,1732 995,1728 994,1727 994,1716 995,1715 995,1714 994,1713 994,1704 993,1703 993,1699 994,1698 994,1691 995,1690 995,1688 994,1687 994,1682 993,1681 993,1674 992,1673 992,1662 991,1661 991,1648 992,1647 992,1637 991,1636 991,1633 990,1632 990,1622 991,1621 991,1615 990,1614 990,1610 989,1609 989,1602 990,1601 990,1596 991,1595 990,1594 990,1593 989,1592 989,1591 987,1589 987,1588 985,1586 985,1585 984,1584 984,1578 985,1577 985,1572 986,1571 986,1564 985,1563 985,1542 984,1541 984,1533 983,1532 983,1518 982,1517 982,1509 981,1508 981,1504 980,1503 980,1498 979,1497 979,1472 978,1471 978,1453 977,1452 977,1431 976,1430 976,1401 975,1400 975,1377 974,1376 974,1363 973,1362 973,1352 972,1351 972,1345 971,1344 971,1340 970,1339 970,1334 969,1333 969,1329 968,1328 968,1326 967,1325 967,1323 966,1322 966,1321 965,1320 965,1319 963,1317 961,1317 960,1316 957,1316 956,1315 950,1315 949,1314 939,1314 938,1313 928,1313 927,1312 917,1312 916,1311 909,1311 908,1310 892,1310 891,1309 888,1309 887,1308 885,1308 884,1307 881,1307 880,1306 876,1306 875,1305 870,1305 869,1304 863,1304 862,1303 854,1303 853,1302 847,1302 846,1303 844,1303 843,1302 838,1302 837,1301 834,1301 833,1300 826,1300 825,1299 807,1299 806,1298 802,1298 801,1297 798,1297 797,1296 792,1296 791,1295 776,1295 775,1294" fill="rgba(243,63,248,0.3)" stroke="rgb(243,63,248)" stroke-width="2" data-block-id="0017" data-name="b-0020" /><text x="866" y="1628" text-anchor="middle" dominant-baseline="middle" class="block-label" fill="rgb(243,63,248)" stroke="white" stroke-width="3" paint-order="stroke">b-0020</text><polygon points="3945,1564 3944,1565 3940,1565 3939,1566 3938,1566 3937,1567 3930,1567 3929,1566 3923,1566 3922,1567 3921,1567 3919,1569 3919,1570 3918,1571 3918,1574 3917,1575 3917,1624 3916,1625 3916,1665 3917,1666 3917,1684 3918,1685 3918,1688 3917,1689 3917,1703 3918,1704 3918,1721 3919,1722 3919,1746 3918,1747 3918,1750 3919,1751 3919,1772 3918,1773 3918,1779 3919,1780 3919,1787 3918,1788 3918,1801 3919,1802 3919,1842 3918,1843 3918,1847 3919,1848 3919,1860 3918,1861 3918,1931 3919,1932 3919,1938 3920,1939 3919,1940 3919,1945 3918,1946 3918,1951 3917,1952 3917,2102 3918,2103 3918,2106 3919,2107 3919,2108 3921,2110 3922,2110 3923,2111 3926,2111 3927,2112 3930,2112 3931,2113 3940,2113 3941,2114 3948,2114 3949,2113 3957,2113 3958,2112 4009,2112 4010,2113 4017,2113 4018,2114 4029,2114 4030,2113 4036,2113 4037,2112 4043,2112 4044,2111 4091,2111 4092,2112 4098,2112 4099,2113 4153,2113 4154,2114 4182,2114 4183,2113 4185,2113 4186,2114 4192,2114 4193,2115 4217,2115 4218,2114 4228,2114 4229,2113 4232,2113 4233,2112 4234,2112 4236,2110 4236,2109 4237,2108 4237,2106 4238,2105 4238,2100 4239,2099 4239,2079 4238,2078 4238,2016 4237,2015 4237,2012 4238,2011 4238,1978 4239,1977 4239,1945 4238,1944 4238,1936 4239,1935 4239,1923 4238,1922 4238,1883 4239,1882 4239,1855 4238,1854 4238,1839 4239,1838 4239,1835 4240,1834 4240,1831 4239,1830 4239,1825 4238,1824 4238,1776 4237,1775 4237,1740 4236,1739 4236,1728 4235,1727 4235,1724 4236,1723 4236,1715 4237,1714 4237,1682 4236,1681 4236,1676 4237,1675 4237,1670 4238,1669 4238,1660 4237,1659 4237,1650 4238,1649 4238,1619 4237,1618 4237,1612 4236,1611 4236,1602 4237,1601 4237,1596 4238,1595 4238,1582 4237,1581 4237,1578 4236,1577 4236,1576 4235,1575 4235,1574 4233,1572 4232,1572 4231,1571 4227,1571 4226,1570 4220,1570 4219,1569 4218,1570 4207,1570 4206,1569 4200,1569 4199,1568 4195,1568 4194,1569 4157,1569 4156,1568 4104,1568 4103,1567 4088,1567 4087,1568 4085,1568 4084,1569 4080,1569 4079,1570 4075,1570 4074,1569 4070,1569 4069,1568 4034,1568 4033,1569 4015,1569 4014,1570 4009,1570 4008,1571 4004,1571 4003,1570 4001,1570 4000,1569 3998,1569 3997,1568 3994,1568 3993,1567 3991,1567 3990,1568 3979,1568 3978,1567 3976,1567 3975,1566 3973,1566 3972,1565 3967,1565 3965,1567 3964,1567 3962,1569 3961,1569 3960,1570 3956,1570 3955,1569 3954,1569 3952,1567 3951,1567 3949,1565 3946,1565" fill="rgba(130,228,50,0.3)" stroke="rgb(130,228,50)" stroke-width="2" data-block-id="0018" data-name="b-0021" /><text x="4077" y="1784" text-anchor="middle" dominant-baseline="middle" class="block-label" fill="rgb(130,228,50)" stroke="white" stroke-width="3" paint-order="stroke">b-0021</text><polygon points="4341,1568 4340,1569 4337,1569 4336,1570 4335,1570 4334,1571 4333,1571 4332,1572 4332,1573 4331,1574 4331,1579 4330,1580 4330,1589 4331,1590 4331,1652 4332,1653 4332,1721 4333,1722 4333,1725 4332,1726 4332,1830 4331,1831 4331,1834 4332,1835 4332,1855 4333,1856 4333,1870 4332,1871 4332,1960 4333,1961 4333,1966 4332,1967 4332,2009 4333,2010 4333,2014 4332,2015 4332,2100 4333,2101 4333,2104 4334,2105 4334,2106 4335,2107 4335,2108 4336,2109 4336,2110 4339,2113 4340,2113 4341,2114 4375,2114 4376,2113 4391,2113 4392,2112 4431,2112 4432,2111 4445,2111 4446,2110 4462,2110 4463,2111 4494,2111 4495,2110 4507,2110 4508,2109 4512,2109 4513,2110 4555,2110 4556,2109 4623,2109 4624,2110 4629,2110 4630,2109 4637,2109 4638,2108 4640,2108 4641,2107 4642,2107 4643,2106 4644,2106 4644,2105 4646,2103 4646,2101 4647,2100 4647,2098 4648,2097 4648,2076 4647,2075 4647,2068 4648,2067 4648,2054 4647,2053 4647,2045 4648,2044 4648,1953 4649,1952 4649,1928 4648,1927 4648,1918 4649,1917 4649,1906 4650,1905 4650,1802 4649,1801 4649,1777 4650,1776 4650,1770 4649,1769 4649,1702 4650,1701 4650,1686 4649,1685 4649,1602 4648,1601 4648,1580 4647,1579 4647,1578 4646,1577 4646,1576 4645,1575 4644,1575 4643,1574 4642,1574 4641,1573 4619,1573 4618,1572 4576,1572 4575,1571 4550,1571 4549,1572 4538,1572 4537,1571 4508,1571 4507,1570 4471,1570 4470,1569 4459,1569 4458,1570 4431,1570 4430,1569 4422,1569 4421,1570 4405,1570 4404,1569 4391,1569 4390,1570 4374,1570 4373,1569 4352,1569 4351,1568" fill="rgba(134,20,72,0.3)" stroke="rgb(134,20,72)" stroke-width="2" data-block-id="0019" data-name="b-0022" /><text x="4489" y="1844" text-anchor="middle" dominant-baseline="middle" class="block-label" fill="rgb(134,20,72)" stroke="white" stroke-width="3" paint-order="stroke">b-0022</text><polygon points="3022,1007 3021,1008 3020,1008 3018,1010 3018,1011 3017,1012 3017,1015 3016,1016 3016,1053 3017,1054 3017,1061 3016,1062 3016,1075 3017,1076 3017,1102 3016,1103 3016,1119 3017,1120 3017,1150 3016,1151 3016,1196 3017,1197 3017,1201 3016,1202 3016,1234 3015,1235 3015,1269 3016,1270 3016,1288 3015,1289 3015,1335 3014,1336 3014,1352 3013,1353 3013,1360 3014,1361 3014,1410 3013,1411 3013,1455 3014,1456 3014,1458 3015,1459 3015,1460 3016,1460 3017,1461 3021,1461 3022,1462 3047,1462 3048,1463 3057,1463 3058,1464 3061,1464 3062,1465 3071,1465 3072,1466 3084,1466 3085,1465 3094,1465 3095,1464 3107,1464 3108,1465 3112,1465 3113,1464 3124,1464 3125,1465 3179,1465 3180,1464 3197,1464 3198,1465 3220,1465 3221,1466 3229,1466 3230,1465 3283,1465 3284,1466 3311,1466 3312,1465 3323,1465 3324,1466 3334,1466 3335,1467 3349,1467 3350,1468 3358,1468 3359,1469 3360,1469 3361,1468 3367,1468 3368,1467 3370,1467 3371,1466 3372,1466 3373,1465 3373,1464 3374,1463 3374,1461 3375,1460 3375,1432 3374,1431 3374,1374 3375,1373 3375,1346 3374,1345 3374,1329 3375,1328 3375,1270 3376,1269 3376,1245 3375,1244 3375,1206 3376,1205 3376,1145 3375,1144 3375,1141 3376,1140 3376,1093 3377,1092 3377,1063 3376,1062 3376,1034 3377,1033 3377,1019 3376,1018 3376,1016 3375,1015 3375,1014 3372,1011 3361,1011 3360,1010 3348,1010 3347,1009 3317,1009 3316,1008 3307,1008 3306,1009 3293,1009 3292,1008 3222,1008 3221,1007 3210,1007 3209,1008 3188,1008 3187,1009 3169,1009 3168,1008 3120,1008 3119,1007 3091,1007 3090,1008 3083,1008 3082,1007" fill="rgba(166,17,131,0.3)" stroke="rgb(166,17,131)" stroke-width="2" data-block-id="0020" data-name="b-0023" /><text x="3191" y="1261" text-anchor="middle" dominant-baseline="middle" class="block-label" fill="rgb(166,17,131)" stroke="white" stroke-width="3" paint-order="stroke">b-0023</text><polygon points="3477,1013 3476,1014 3472,1014 3471,1015 3469,1015 3466,1018 3466,1019 3465,1020 3465,1022 3464,1023 3464,1027 3463,1028 3463,1065 3464,1066 3464,1070 3463,1071 3463,1089 3464,1090 3464,1097 3465,1098 3465,1112 3464,1113 3464,1140 3465,1141 3465,1368 3464,1369 3464,1384 3465,1385 3465,1408 3464,1409 3464,1432 3465,1433 3465,1441 3464,1442 3464,1448 3463,1449 3463,1451 3464,1452 3464,1461 3465,1462 3465,1464 3466,1465 3466,1466 3467,1466 3469,1468 3476,1468 3477,1469 3488,1469 3489,1470 3510,1470 3511,1471 3515,1471 3516,1470 3524,1470 3525,1469 3535,1469 3536,1470 3552,1470 3553,1471 3570,1471 3571,1472 3587,1472 3588,1471 3591,1471 3592,1470 3596,1470 3597,1469 3605,1469 3606,1470 3632,1470 3633,1471 3649,1471 3650,1472 3725,1472 3726,1471 3731,1471 3732,1470 3734,1470 3735,1471 3816,1471 3817,1470 3818,1470 3819,1469 3820,1469 3822,1467 3822,1466 3823,1465 3823,1462 3824,1461 3824,1395 3823,1394 3823,1363 3824,1362 3824,1352 3823,1351 3823,1267 3824,1266 3824,1250 3823,1249 3823,1246 3824,1245 3824,1239 3825,1238 3825,1230 3824,1229 3824,1220 3825,1219 3825,1214 3826,1213 3826,1209 3825,1208 3825,1200 3824,1199 3824,1167 3825,1166 3825,1162 3824,1161 3824,1156 3823,1155 3823,1150 3824,1149 3824,1144 3825,1143 3825,1134 3824,1133 3824,1125 3825,1124 3825,1118 3826,1117 3826,1115 3825,1114 3825,1098 3826,1097 3826,1087 3825,1086 3825,1075 3826,1074 3826,1062 3825,1061 3825,1047 3826,1046 3826,1044 3825,1043 3825,1035 3824,1034 3824,1029 3823,1028 3823,1026 3822,1025 3822,1023 3819,1020 3818,1020 3817,1019 3813,1019 3812,1018 3789,1018 3788,1017 3769,1017 3768,1018 3735,1018 3734,1017 3693,1017 3692,1016 3668,1016 3667,1017 3652,1017 3651,1016 3637,1016 3636,1015 3630,1015 3629,1016 3621,1016 3620,1015 3611,1015 3610,1014 3595,1014 3594,1015 3569,1015 3568,1014 3543,1014 3542,1015 3534,1015 3533,1014 3498,1014 3497,1013" fill="rgba(88,59,13,0.3)" stroke="rgb(88,59,13)" stroke-width="2" data-block-id="0021" data-name="b-0024" /><text x="3662" y="1225" text-anchor="middle" dominant-baseline="middle" class="block-label" fill="rgb(88,59,13)" stroke="white" stroke-width="3" paint-order="stroke">b-0024</text><polygon points="1951,923 1950,924 1943,924 1942,925 1940,925 1938,927 1938,928 1937,929 1937,930 1936,931 1936,933 1935,934 1935,950 1936,951 1936,966 1937,967 1937,992 1938,993 1938,1000 1939,1001 1939,1020 1938,1021 1938,1022 1939,1023 1939,1040 1940,1041 1940,1049 1941,1050 1941,1069 1942,1070 1942,1075 1943,1076 1943,1081 1944,1082 1944,1087 1945,1088 1945,1095 1946,1096 1946,1104 1947,1105 1947,1118 1948,1119 1948,1131 1949,1132 1949,1147 1950,1148 1950,1159 1951,1160 1951,1174 1952,1175 1952,1189 1953,1190 1953,1206 1954,1207 1954,1227 1955,1228 1955,1253 1956,1254 1956,1262 1957,1263 1957,1271 1958,1272 1958,1285 1959,1286 1959,1308 1960,1309 1960,1311 1961,1312 1961,1313 1964,1316 1966,1316 1967,1317 1972,1317 1973,1318 1978,1318 1979,1319 1984,1319 1985,1320 1991,1320 1992,1321 2002,1321 2003,1322 2012,1322 2013,1323 2026,1323 2027,1324 2032,1324 2033,1325 2039,1325 2040,1326 2049,1326 2050,1327 2056,1327 2057,1328 2062,1328 2063,1329 2068,1329 2069,1330 2074,1330 2075,1331 2084,1331 2085,1332 2093,1332 2094,1333 2101,1333 2102,1334 2107,1334 2108,1335 2114,1335 2115,1336 2120,1336 2121,1337 2125,1337 2126,1338 2130,1338 2131,1339 2134,1339 2135,1338 2137,1338 2138,1337 2140,1337 2141,1336 2142,1336 2143,1335 2148,1335 2149,1336 2151,1336 2152,1337 2154,1337 2155,1338 2157,1338 2158,1339 2163,1339 2164,1340 2168,1340 2169,1341 2171,1341 2172,1342 2175,1342 2176,1343 2178,1343 2179,1344 2189,1344 2190,1345 2198,1345 2199,1346 2210,1346 2211,1347 2221,1347 2222,1348 2227,1348 2228,1349 2233,1349 2234,1350 2240,1350 2241,1351 2247,1351 2248,1352 2252,1352 2253,1353 2263,1353 2264,1354 2268,1354 2269,1355 2271,1355 2272,1356 2284,1356 2285,1357 2291,1357 2292,1358 2295,1358 2296,1359 2299,1359 2300,1360 2309,1360 2310,1361 2313,1361 2314,1360 2319,1360 2320,1359 2323,1359 2324,1358 2325,1358 2326,1357 2326,1356 2327,1355 2327,1350 2326,1349 2326,1344 2325,1343 2325,1332 2324,1331 2324,1324 2323,1323 2323,1301 2322,1300 2322,1291 2321,1290 2321,1272 2320,1271 2320,1266 2319,1265 2319,1262 2318,1261 2318,1259 2319,1258 2319,1255 2320,1254 2320,1249 2321,1248 2321,1246 2320,1245 2320,1236 2319,1235 2319,1209 2318,1208 2318,1191 2319,1190 2319,1186 2318,1185 2318,1174 2317,1173 2317,1160 2316,1159 2316,1154 2315,1153 2315,1129 2314,1128 2314,1119 2315,1118 2314,1117 2314,1107 2313,1106 2313,1095 2312,1094 2312,1086 2311,1085 2311,1077 2312,1076 2312,1073 2313,1072 2313,1070 2314,1069 2314,1046 2313,1045 2313,1043 2311,1041 2311,1040 2308,1037 2308,1036 2306,1034 2306,1033 2305,1032 2305,1020 2304,1019 2304,991 2303,990 2303,979 2304,978 2304,961 2303,960 2303,958 2301,956 2301,955 2300,954 2300,953 2297,950 2296,950 2295,949 2293,949 2292,948 2288,948 2287,947 2263,947 2262,946 2246,946 2245,945 2226,945 2225,944 2219,944 2218,943 2208,943 2207,942 2197,942 2196,941 2181,941 2180,940 2165,940 2164,939 2158,939 2157,938 2154,938 2153,939 2142,939 2141,938 2136,938 2135,937 2130,937 2129,936 2122,936 2121,935 2101,935 2100,934 2088,934 2087,933 2071,933 2070,932 2054,932 2053,931 2039,931 2038,930 2025,930 2024,929 2014,929 2013,928 2007,928 2006,927 2002,927 2001,926 1995,926 1994,925 1985,925 1984,924 1959,924 1958,923" fill="rgba(83,91,110,0.3)" stroke="rgb(83,91,110)" stroke-width="2" data-block-id="0022" data-name="b-0027" /><text x="2146" y="1167" text-anchor="middle" dominant-baseline="middle" class="block-label" fill="rgb(83,91,110)" stroke="white" stroke-width="3" paint-order="stroke">b-0027</text><polygon points="3935,1020 3934,1021 3923,1021 3920,1024 3920,1025 3919,1026 3919,1029 3918,1030 3918,1040 3919,1041 3919,1111 3918,1112 3918,1137 3919,1138 3919,1142 3918,1143 3918,1198 3919,1199 3919,1214 3918,1215 3918,1268 3917,1269 3917,1278 3918,1279 3918,1302 3919,1303 3919,1310 3918,1311 3918,1318 3917,1319 3917,1326 3918,1327 3918,1364 3917,1365 3917,1368 3918,1369 3918,1410 3917,1411 3917,1421 3918,1422 3918,1436 3917,1437 3917,1440 3918,1441 3918,1452 3917,1453 3917,1466 3918,1467 3918,1469 3919,1470 3919,1471 3920,1472 3920,1473 3921,1473 3922,1474 3924,1474 3925,1475 3937,1475 3938,1476 3951,1476 3952,1475 3955,1475 3956,1474 3961,1474 3962,1475 3967,1475 3968,1476 3990,1476 3991,1477 4025,1477 4026,1476 4034,1476 4035,1477 4075,1477 4076,1476 4079,1476 4080,1477 4092,1477 4093,1476 4111,1476 4112,1477 4129,1477 4130,1478 4143,1478 4144,1477 4203,1477 4204,1478 4222,1478 4223,1477 4231,1477 4232,1476 4233,1476 4235,1474 4235,1472 4236,1471 4236,1467 4237,1466 4237,1454 4236,1453 4236,1436 4237,1435 4237,1413 4236,1412 4236,1393 4237,1392 4237,1382 4236,1381 4236,1380 4237,1379 4237,1357 4236,1356 4236,1351 4237,1350 4237,1314 4236,1313 4236,1282 4237,1281 4237,1268 4236,1267 4236,1255 4237,1254 4237,1243 4238,1242 4238,1228 4239,1227 4239,1222 4238,1221 4238,1214 4237,1213 4237,1195 4238,1194 4238,1168 4239,1167 4239,1162 4238,1161 4238,1156 4237,1155 4237,1141 4238,1140 4238,1115 4239,1114 4239,1097 4238,1096 4238,1090 4239,1089 4239,1059 4240,1058 4240,1050 4239,1049 4239,1031 4238,1030 4238,1029 4236,1027 4235,1027 4234,1026 4232,1026 4231,1025 4223,1025 4222,1024 4214,1024 4213,1023 4169,1023 4168,1022 4152,1022 4151,1021 4147,1021 4146,1022 4138,1022 4137,1023 4136,1023 4135,1022 4127,1022 4126,1021 4121,1021 4120,1022 4107,1022 4106,1021 4061,1021 4060,1020" fill="rgba(187,198,171,0.3)" stroke="rgb(187,198,171)" stroke-width="2" data-block-id="0023" data-name="b-0028" /><text x="4091" y="1273" text-anchor="middle" dominant-baseline="middle" class="block-label" fill="rgb(187,198,171)" stroke="white" stroke-width="3" paint-order="stroke">b-0028</text><polygon points="1014,299 1013,300 1008,300 1007,301 1006,301 1005,302 1004,302 1003,303 1002,303 999,306 999,311 998,312 998,320 999,321 999,327 1000,328 1000,338 1001,339 1001,348 1002,349 1002,360 1001,361 1001,364 1002,365 1002,373 1003,374 1003,389 1004,390 1004,402 1005,403 1005,407 1006,408 1006,421 1005,422 1005,437 1006,438 1006,448 1007,449 1007,452 1008,453 1008,456 1009,457 1009,462 1010,463 1010,473 1011,474 1011,484 1012,485 1012,512 1013,513 1013,531 1014,532 1014,543 1015,544 1015,551 1016,552 1016,561 1017,562 1017,586 1018,587 1018,605 1019,606 1019,615 1020,616 1020,632 1021,633 1021,661 1022,662 1022,701 1023,702 1023,707 1024,708 1024,709 1025,710 1025,711 1026,712 1027,712 1028,713 1030,713 1031,714 1044,714 1045,715 1053,715 1054,716 1067,716 1068,717 1085,717 1086,718 1103,718 1104,719 1116,719 1117,720 1125,720 1126,721 1136,721 1137,722 1148,722 1149,723 1165,723 1166,724 1183,724 1184,725 1192,725 1193,726 1198,726 1199,727 1204,727 1205,726 1210,726 1211,725 1215,725 1216,726 1222,726 1223,727 1230,727 1231,728 1240,728 1241,729 1251,729 1252,730 1261,730 1262,731 1268,731 1269,732 1292,732 1293,733 1313,733 1314,734 1323,734 1324,735 1334,735 1335,736 1359,736 1360,737 1379,737 1380,736 1382,736 1383,735 1384,735 1384,734 1385,733 1385,731 1386,730 1386,705 1385,704 1385,694 1384,693 1384,680 1383,679 1383,661 1382,660 1382,651 1381,650 1381,637 1380,636 1380,620 1379,619 1379,608 1378,607 1378,586 1377,585 1377,573 1376,572 1376,564 1375,563 1375,555 1374,554 1374,550 1375,549 1375,543 1374,542 1374,534 1373,533 1373,504 1372,503 1372,491 1371,490 1371,478 1370,477 1370,456 1369,455 1369,441 1368,440 1368,431 1367,430 1367,419 1366,418 1366,400 1365,399 1365,370 1364,369 1364,360 1363,359 1363,357 1362,356 1362,354 1358,350 1357,350 1356,349 1349,349 1348,348 1339,348 1338,347 1332,347 1331,346 1327,346 1326,345 1322,345 1321,344 1312,344 1311,343 1303,343 1302,342 1296,342 1295,341 1287,341 1286,340 1281,340 1280,339 1276,339 1275,338 1270,338 1269,337 1266,337 1265,336 1263,336 1262,335 1259,335 1258,334 1252,334 1251,333 1230,333 1229,332 1222,332 1221,331 1215,331 1214,330 1210,330 1209,329 1205,329 1204,328 1186,328 1185,327 1183,327 1182,326 1179,326 1178,325 1176,325 1175,324 1173,324 1172,323 1169,323 1168,322 1163,322 1162,321 1149,321 1148,320 1141,320 1140,319 1135,319 1134,318 1130,318 1129,317 1124,317 1123,316 1119,316 1118,315 1115,315 1114,314 1109,314 1108,313 1095,313 1094,312 1089,312 1088,311 1084,311 1083,310 1076,310 1075,309 1068,309 1067,308 1062,308 1061,307 1052,307 1051,306 1047,306 1046,305 1044,305 1043,304 1040,304 1039,303 1035,303 1034,302 1031,302 1030,301 1027,301 1026,300 1024,300 1023,299" fill="rgba(252,7,174,0.3)" stroke="rgb(252,7,174)" stroke-width="2" data-block-id="0024" data-name="b-0029" /><text x="1179" y="486" text-anchor="middle" dominant-baseline="middle" class="block-label" fill="rgb(252,7,174)" stroke="white" stroke-width="3" paint-order="stroke">b-0029</text><polygon points="4496,1026 4495,1027 4490,1027 4489,1028 4477,1028 4476,1027 4464,1027 4463,1028 4457,1028 4456,1027 4411,1027 4410,1028 4384,1028 4383,1029 4380,1029 4379,1030 4373,1030 4372,1029 4369,1029 4368,1028 4364,1028 4363,1027 4342,1027 4341,1028 4340,1028 4337,1031 4337,1032 4336,1033 4336,1041 4335,1042 4335,1116 4334,1117 4334,1163 4333,1164 4333,1206 4332,1207 4332,1233 4333,1234 4333,1238 4332,1239 4332,1432 4333,1433 4333,1444 4332,1445 4332,1456 4333,1457 4333,1474 4334,1475 4334,1476 4337,1479 4338,1479 4339,1480 4373,1480 4374,1479 4408,1479 4409,1480 4433,1480 4434,1479 4438,1479 4439,1480 4476,1480 4477,1481 4493,1481 4494,1482 4510,1482 4511,1481 4516,1481 4517,1480 4525,1480 4526,1481 4560,1481 4561,1482 4576,1482 4577,1483 4594,1483 4595,1482 4606,1482 4607,1483 4642,1483 4643,1482 4644,1482 4647,1479 4647,1478 4648,1477 4648,1322 4649,1321 4649,1315 4648,1314 4648,1294 4649,1293 4649,1275 4650,1274 4650,1262 4649,1261 4650,1260 4650,1199 4651,1198 4651,1154 4652,1153 4652,1135 4651,1134 4651,1117 4652,1116 4652,1041 4651,1040 4651,1038 4650,1037 4650,1035 4648,1033 4647,1033 4646,1032 4644,1032 4643,1031 4613,1031 4612,1030 4591,1030 4590,1029 4570,1029 4569,1028 4564,1028 4563,1029 4554,1029 4553,1028 4546,1028 4545,1027 4541,1027 4540,1028 4534,1028 4533,1029 4529,1029 4528,1028 4515,1028 4514,1027 4503,1027 4502,1026" fill="rgba(34,205,80,0.3)" stroke="rgb(34,205,80)" stroke-width="2" data-block-id="0025" data-name="b-0030" /><text x="4497" y="1215" text-anchor="middle" dominant-baseline="middle" class="block-label" fill="rgb(34,205,80)" stroke="white" stroke-width="3" paint-order="stroke">b-0030</text><polygon points="1509,898 1508,899 1507,899 1506,900 1505,900 1504,901 1504,902 1503,903 1503,904 1502,905 1502,907 1501,908 1501,912 1500,913 1500,916 1501,917 1501,940 1502,941 1502,948 1503,949 1503,954 1504,955 1504,964 1505,965 1505,975 1504,976 1504,994 1505,995 1505,1004 1506,1005 1506,1034 1507,1035 1507,1047 1508,1048 1508,1071 1509,1072 1509,1088 1510,1089 1510,1100 1511,1101 1511,1108 1512,1109 1512,1116 1513,1117 1513,1120 1512,1121 1512,1129 1513,1130 1513,1140 1514,1141 1514,1145 1515,1146 1515,1150 1516,1151 1516,1162 1517,1163 1517,1175 1518,1176 1518,1193 1519,1194 1519,1209 1520,1210 1520,1236 1521,1237 1521,1241 1522,1242 1522,1244 1523,1245 1523,1247 1524,1248 1524,1249 1526,1251 1526,1252 1533,1259 1534,1259 1535,1260 1536,1260 1537,1261 1539,1261 1540,1262 1543,1262 1544,1263 1563,1263 1564,1264 1570,1264 1571,1265 1574,1265 1575,1266 1577,1266 1578,1267 1580,1267 1581,1268 1592,1268 1593,1269 1594,1268 1600,1268 1601,1267 1603,1267 1604,1266 1607,1266 1608,1267 1609,1267 1612,1270 1613,1270 1614,1271 1616,1271 1617,1272 1620,1272 1621,1273 1633,1273 1634,1274 1639,1274 1640,1275 1643,1275 1644,1276 1649,1276 1650,1277 1672,1277 1673,1276 1683,1276 1684,1277 1690,1277 1691,1278 1695,1278 1696,1279 1698,1279 1699,1280 1701,1280 1702,1281 1705,1281 1706,1282 1711,1282 1712,1283 1715,1283 1716,1284 1718,1284 1719,1285 1722,1285 1723,1286 1742,1286 1743,1287 1746,1287 1747,1288 1752,1288 1753,1289 1764,1289 1765,1290 1772,1290 1773,1291 1776,1291 1777,1290 1789,1290 1790,1291 1793,1291 1794,1292 1797,1292 1798,1293 1804,1293 1805,1294 1813,1294 1814,1295 1818,1295 1819,1296 1823,1296 1824,1297 1835,1297 1836,1298 1843,1298 1844,1299 1852,1299 1853,1300 1857,1300 1858,1299 1860,1299 1863,1296 1863,1295 1864,1294 1864,1291 1865,1290 1865,1274 1864,1273 1864,1259 1863,1258 1863,1243 1862,1242 1862,1229 1861,1228 1861,1205 1860,1204 1860,1189 1859,1188 1859,1176 1858,1175 1858,1157 1857,1156 1857,1140 1856,1139 1856,1133 1855,1132 1855,1113 1854,1112 1854,1107 1853,1106 1853,1097 1852,1096 1852,1085 1851,1084 1851,1077 1852,1076 1852,1061 1851,1060 1851,1044 1850,1043 1850,1023 1851,1022 1851,1021 1850,1020 1850,1013 1849,1012 1849,1005 1848,1004 1848,993 1847,992 1847,977 1848,976 1848,969 1847,968 1847,948 1846,947 1846,942 1845,941 1845,937 1844,936 1844,932 1843,931 1843,926 1842,925 1842,923 1837,918 1836,918 1835,917 1833,917 1832,916 1812,916 1811,915 1801,915 1800,914 1782,914 1781,913 1759,913 1758,912 1748,912 1747,911 1740,911 1739,910 1728,910 1727,909 1719,909 1718,908 1708,908 1707,907 1696,907 1695,906 1684,906 1683,905 1676,905 1675,906 1669,906 1668,907 1659,907 1658,906 1648,906 1647,905 1632,905 1631,904 1621,904 1620,903 1609,903 1608,902 1602,902 1601,901 1597,901 1596,900 1587,900 1586,901 1580,901 1579,900 1563,900 1562,901 1560,901 1559,900 1555,900 1554,899 1549,899 1548,898" fill="rgba(131,1,253,0.3)" stroke="rgb(131,1,253)" stroke-width="2" data-block-id="0026" data-name="b-0032" /><text x="1678" y="1113" text-anchor="middle" dominant-baseline="middle" class="block-label" fill="rgb(131,1,253)" stroke="white" stroke-width="3" paint-order="stroke">b-0032</text><polygon points="1476,365 1475,366 1473,366 1471,368 1471,369 1469,371 1469,373 1468,374 1468,394 1469,395 1469,402 1470,403 1470,410 1471,411 1471,441 1472,442 1472,459 1473,460 1473,469 1474,470 1474,494 1475,495 1475,512 1476,513 1476,520 1477,521 1477,524 1478,525 1478,526 1479,527 1479,529 1480,530 1480,532 1479,533 1479,535 1478,536 1478,538 1477,539 1477,542 1476,543 1476,560 1477,561 1477,567 1478,568 1478,573 1479,574 1479,580 1480,581 1480,586 1481,587 1481,609 1482,610 1482,620 1483,621 1483,634 1484,635 1484,648 1485,649 1485,655 1484,656 1484,664 1485,665 1485,675 1486,676 1486,683 1487,684 1487,688 1486,689 1486,721 1487,722 1487,725 1488,726 1488,730 1489,731 1489,734 1490,735 1490,736 1491,737 1491,738 1494,741 1495,741 1497,743 1499,743 1500,744 1506,744 1507,745 1514,745 1515,746 1521,746 1522,747 1540,747 1541,748 1560,748 1561,749 1569,749 1570,750 1590,750 1591,751 1611,751 1612,752 1617,752 1618,753 1633,753 1634,754 1639,754 1640,755 1648,755 1649,754 1656,754 1658,756 1660,756 1661,757 1663,757 1664,758 1667,758 1668,759 1672,759 1673,760 1677,760 1678,761 1684,761 1685,762 1708,762 1709,763 1717,763 1718,764 1727,764 1728,765 1742,765 1743,766 1749,766 1750,767 1764,767 1765,768 1777,768 1778,769 1786,769 1787,770 1791,770 1792,771 1812,771 1813,772 1823,772 1824,771 1825,771 1826,770 1827,770 1829,768 1829,735 1828,734 1828,721 1827,720 1827,700 1826,699 1826,679 1825,678 1825,653 1824,652 1824,622 1823,621 1823,610 1822,609 1822,607 1821,606 1821,602 1820,601 1821,600 1821,579 1820,578 1820,569 1819,568 1819,562 1818,561 1818,537 1817,536 1817,517 1816,516 1816,509 1815,508 1815,479 1814,478 1814,470 1813,469 1813,463 1812,462 1812,430 1811,429 1811,422 1810,421 1810,418 1809,417 1809,415 1808,414 1808,412 1806,410 1805,410 1804,409 1803,409 1802,408 1800,408 1799,407 1793,407 1792,406 1780,406 1779,405 1749,405 1748,404 1742,404 1741,403 1734,403 1733,402 1727,402 1726,401 1722,401 1721,400 1718,400 1717,399 1714,399 1713,398 1706,398 1705,397 1691,397 1690,396 1686,396 1685,395 1682,395 1681,394 1677,394 1676,393 1672,393 1671,392 1666,392 1665,391 1662,391 1661,390 1659,390 1658,389 1656,389 1655,388 1644,388 1643,387 1639,387 1638,386 1630,386 1629,385 1625,385 1624,384 1617,384 1616,383 1596,383 1595,382 1588,382 1587,381 1582,381 1581,380 1578,380 1577,379 1575,379 1574,378 1572,378 1571,377 1567,377 1566,376 1562,376 1561,375 1557,375 1556,374 1549,374 1548,373 1544,373 1543,372 1541,372 1540,371 1538,371 1537,370 1536,370 1535,369 1498,369 1497,368 1494,368 1493,367 1490,367 1489,366 1485,366 1484,365" fill="rgba(133,53,105,0.3)" stroke="rgb(133,53,105)" stroke-width="2" data-block-id="0027" data-name="b-0033" /><text x="1630" y="551" text-anchor="middle" dominant-baseline="middle" class="block-label" fill="rgb(133,53,105)" stroke="white" stroke-width="3" paint-order="stroke">b-0033</text><polygon points="1046,866 1045,867 1042,867 1037,872 1037,873 1036,874 1036,900 1037,901 1037,914 1038,915 1038,930 1039,931 1039,941 1040,942 1040,952 1041,953 1041,963 1042,964 1042,977 1043,978 1043,991 1044,992 1044,1018 1045,1019 1045,1038 1046,1039 1046,1044 1047,1045 1047,1062 1048,1063 1048,1079 1049,1080 1049,1085 1050,1086 1050,1090 1051,1091 1051,1107 1052,1108 1052,1122 1053,1123 1053,1139 1054,1140 1054,1169 1055,1170 1055,1190 1056,1191 1056,1193 1057,1194 1057,1195 1060,1198 1061,1198 1062,1199 1064,1199 1065,1200 1066,1200 1067,1201 1070,1201 1071,1202 1075,1202 1076,1203 1079,1203 1080,1204 1088,1204 1089,1205 1109,1205 1110,1206 1114,1206 1115,1207 1121,1207 1122,1208 1126,1208 1127,1209 1131,1209 1132,1210 1140,1210 1141,1211 1151,1211 1152,1212 1158,1212 1159,1213 1172,1213 1173,1214 1182,1214 1183,1215 1188,1215 1189,1216 1193,1216 1194,1217 1198,1217 1199,1218 1204,1218 1205,1219 1212,1219 1213,1220 1216,1220 1217,1221 1220,1221 1221,1222 1224,1222 1225,1223 1240,1223 1241,1224 1251,1224 1252,1225 1261,1225 1262,1226 1266,1226 1267,1227 1270,1227 1271,1228 1287,1228 1288,1229 1291,1229 1292,1230 1296,1230 1297,1231 1302,1231 1303,1232 1310,1232 1311,1233 1317,1233 1318,1234 1334,1234 1335,1235 1340,1235 1341,1236 1348,1236 1349,1237 1358,1237 1359,1238 1367,1238 1368,1239 1379,1239 1380,1240 1384,1240 1385,1241 1389,1241 1390,1242 1397,1242 1398,1243 1415,1243 1416,1242 1417,1242 1418,1241 1418,1240 1419,1239 1419,1238 1420,1237 1420,1209 1419,1208 1419,1198 1418,1197 1418,1186 1417,1185 1417,1168 1416,1167 1416,1152 1415,1151 1415,1146 1414,1145 1414,1135 1413,1134 1413,1119 1412,1118 1412,1107 1411,1106 1411,1095 1410,1094 1410,1083 1409,1082 1409,1061 1408,1060 1408,1031 1407,1030 1407,1025 1406,1024 1406,1017 1405,1016 1405,1001 1404,1000 1404,979 1403,978 1403,964 1402,963 1402,953 1401,952 1401,937 1400,936 1400,928 1399,927 1399,898 1398,897 1398,894 1397,893 1397,892 1396,891 1396,890 1394,888 1393,888 1392,887 1379,887 1378,886 1365,886 1364,885 1348,885 1347,884 1331,884 1330,883 1310,883 1309,882 1304,882 1303,881 1299,881 1298,880 1280,880 1279,879 1264,879 1263,878 1250,878 1249,877 1240,877 1239,876 1220,876 1219,875 1198,875 1197,874 1188,874 1187,873 1178,873 1177,872 1167,872 1166,871 1165,872 1145,872 1144,871 1133,871 1132,870 1115,870 1114,869 1093,869 1092,868 1085,868 1084,867 1060,867 1059,866" fill="rgba(3,53,220,0.3)" stroke="rgb(3,53,220)" stroke-width="2" data-block-id="0028" data-name="b-0034" /><text x="1231" y="1079" text-anchor="middle" dominant-baseline="middle" class="block-label" fill="rgb(3,53,220)" stroke="white" stroke-width="3" paint-order="stroke">b-0034</text><polygon points="1906,425 1905,426 1904,426 1904,427 1902,429 1902,431 1901,432 1901,443 1902,444 1902,465 1903,466 1903,490 1904,491 1904,502 1905,503 1905,508 1906,509 1906,515 1907,516 1907,529 1908,530 1908,548 1909,549 1909,555 1910,556 1910,572 1911,573 1911,582 1912,583 1912,609 1913,610 1913,619 1914,620 1914,626 1915,627 1915,629 1914,630 1914,640 1915,641 1915,648 1916,649 1916,665 1917,666 1917,671 1918,672 1918,681 1917,682 1917,690 1918,691 1918,701 1919,702 1919,709 1920,710 1920,719 1921,720 1921,732 1920,733 1920,744 1921,745 1921,755 1922,756 1922,763 1923,764 1923,768 1924,769 1924,770 1927,773 1928,773 1929,774 1950,774 1951,775 1964,775 1965,776 1976,776 1977,777 1997,777 1998,778 2004,778 2005,779 2011,779 2012,780 2021,780 2022,781 2041,781 2042,782 2051,782 2052,783 2060,783 2061,784 2073,784 2074,785 2075,785 2076,784 2086,784 2087,785 2100,785 2101,786 2115,786 2116,787 2139,787 2140,788 2156,788 2157,789 2171,789 2172,790 2182,790 2183,791 2199,791 2200,792 2213,792 2214,793 2228,793 2229,794 2246,794 2247,795 2265,795 2266,796 2281,796 2282,795 2284,795 2285,794 2286,794 2288,792 2288,788 2289,787 2289,776 2288,775 2288,766 2287,765 2287,753 2286,752 2286,726 2285,725 2285,716 2284,715 2284,711 2283,710 2283,692 2284,691 2284,677 2283,676 2283,667 2282,666 2282,662 2281,661 2281,659 2280,658 2280,654 2279,653 2279,643 2280,642 2280,636 2279,635 2279,627 2278,626 2278,615 2277,614 2277,608 2276,607 2276,586 2275,585 2275,580 2274,579 2274,563 2273,562 2273,557 2272,556 2272,534 2271,533 2271,522 2270,521 2270,515 2269,514 2269,485 2268,484 2268,480 2267,479 2267,478 2266,477 2266,475 2265,474 2265,473 2264,473 2263,472 2262,472 2261,471 2256,471 2255,470 2249,470 2248,469 2243,469 2242,468 2237,468 2236,467 2228,467 2227,466 2220,466 2219,465 2211,465 2210,464 2203,464 2202,463 2197,463 2196,462 2190,462 2189,461 2182,461 2181,460 2176,460 2175,459 2170,459 2169,458 2158,458 2157,457 2151,457 2150,456 2146,456 2145,455 2142,455 2141,454 2137,454 2136,453 2129,453 2128,452 2117,452 2116,451 2107,451 2106,450 2092,450 2091,451 2089,451 2088,452 2087,452 2082,457 2080,457 2079,458 2073,458 2072,459 2060,459 2059,458 2057,458 2056,457 2055,457 2054,456 2053,456 2051,454 2049,454 2048,453 2035,453 2034,452 2031,452 2030,451 2027,451 2026,450 2014,450 2013,449 2010,449 2009,448 2006,448 2005,447 2003,447 2002,446 2001,446 1996,441 1996,440 1993,437 1992,437 1991,436 1989,436 1988,435 1987,435 1986,434 1983,434 1982,433 1978,433 1977,432 1969,432 1968,431 1952,431 1951,430 1944,430 1943,429 1937,429 1936,428 1932,428 1931,427 1926,427 1925,426 1913,426 1912,425" fill="rgba(190,145,217,0.3)" stroke="rgb(190,145,217)" stroke-width="2" data-block-id="0029" data-name="b-0035" /><text x="2090" y="586" text-anchor="middle" dominant-baseline="middle" class="block-label" fill="rgb(190,145,217)" stroke="white" stroke-width="3" paint-order="stroke">b-0035</text><polygon points="588,831 587,832 584,832 583,833 582,833 581,834 581,835 580,836 580,850 581,851 581,878 582,879 582,893 583,894 583,913 584,914 584,924 585,925 585,941 586,942 586,957 587,958 587,969 588,970 588,990 589,991 589,1012 590,1013 590,1027 591,1028 591,1039 592,1040 592,1054 593,1055 593,1070 594,1071 594,1088 595,1089 595,1102 596,1103 596,1122 597,1123 597,1130 598,1131 598,1134 599,1135 599,1136 602,1139 604,1139 605,1140 608,1140 609,1141 613,1141 614,1142 621,1142 622,1143 629,1143 630,1144 635,1144 636,1145 644,1145 645,1146 652,1146 653,1147 657,1147 658,1148 664,1148 665,1149 675,1149 676,1150 685,1150 686,1151 691,1151 692,1152 696,1152 697,1153 703,1153 704,1154 713,1154 714,1155 734,1155 735,1156 738,1156 739,1157 741,1157 742,1158 744,1158 745,1159 749,1159 750,1160 758,1160 759,1161 765,1161 766,1162 774,1162 775,1163 783,1163 784,1164 786,1164 787,1165 792,1165 793,1166 800,1166 801,1167 806,1167 807,1168 811,1168 812,1169 832,1169 833,1170 836,1170 837,1171 841,1171 842,1172 854,1172 855,1173 859,1173 860,1174 862,1174 863,1175 872,1175 873,1176 884,1176 885,1177 895,1177 896,1178 905,1178 906,1179 911,1179 912,1180 919,1180 920,1181 928,1181 929,1182 936,1182 937,1183 942,1183 943,1184 956,1184 957,1183 959,1183 960,1182 960,1180 961,1179 961,1163 960,1162 960,1148 959,1147 959,1125 958,1124 958,1114 957,1113 957,1107 956,1106 956,1088 955,1087 955,1077 954,1076 954,1070 953,1069 953,1048 952,1047 952,1035 951,1034 951,1012 950,1011 950,992 949,991 949,973 948,972 948,959 947,958 947,941 946,940 946,930 945,929 945,908 944,907 944,892 943,891 943,880 942,879 942,864 941,863 941,862 937,858 934,858 933,857 928,857 927,856 919,856 918,855 904,855 903,854 893,854 892,853 881,853 880,852 870,852 869,851 850,851 849,850 839,850 838,851 828,851 827,850 821,850 820,849 804,849 803,848 784,848 783,847 763,847 762,848 758,848 757,849 752,849 751,850 726,850 725,851 721,851 720,852 717,852 716,853 707,853 706,854 697,854 696,853 692,853 691,852 690,852 689,851 689,850 688,849 688,848 687,847 687,846 686,845 686,844 683,841 682,841 681,840 679,840 678,839 670,839 669,840 666,840 665,841 661,841 660,840 657,840 656,839 652,839 651,838 648,838 647,837 644,837 643,836 638,836 637,835 631,835 630,834 623,834 622,835 606,835 605,834 602,834 601,833 599,833 598,832 594,832 593,831" fill="rgba(189,227,13,0.3)" stroke="rgb(189,227,13)" stroke-width="2" data-block-id="0030" data-name="b-0037" /><text x="757" y="1006" text-anchor="middle" dominant-baseline="middle" class="block-label" fill="rgb(189,227,13)" stroke="white" stroke-width="3" paint-order="stroke">b-0037</text><polygon points="3483,1016 3482,1017 3475,1017 3474,1018 3470,1018 3469,1019 3468,1019 3467,1020 3467,1021 3466,1022 3466,1049 3467,1050 3467,1054 3468,1055 3468,1058 3469,1059 3469,1064 3470,1065 3470,1072 3469,1073 3469,1078 3468,1079 3468,1095 3469,1096 3469,1101 3470,1102 3470,1104 3469,1105 3469,1108 3468,1109 3468,1111 3467,1112 3467,1114 3466,1115 3466,1123 3467,1124 3467,1147 3466,1148 3466,1158 3467,1159 3467,1167 3466,1168 3466,1189 3467,1190 3467,1197 3468,1198 3468,1202 3469,1203 3469,1209 3470,1210 3470,1213 3469,1214 3469,1219 3468,1220 3468,1226 3469,1227 3469,1230 3470,1231 3470,1233 3474,1237 3475,1237 3476,1238 3479,1238 3480,1239 3562,1239 3563,1240 3588,1240 3589,1241 3597,1241 3598,1242 3603,1242 3604,1241 3618,1241 3619,1242 3628,1242 3629,1241 3667,1241 3668,1242 3675,1242 3676,1241 3685,1241 3686,1242 3691,1242 3692,1243 3698,1243 3699,1242 3702,1242 3703,1241 3705,1241 3706,1240 3720,1240 3721,1239 3735,1239 3736,1240 3739,1240 3740,1241 3759,1241 3760,1242 3797,1242 3798,1241 3816,1241 3821,1236 3821,1215 3822,1214 3822,1187 3821,1186 3821,1172 3822,1171 3822,1121 3823,1120 3823,1114 3822,1113 3822,1111 3821,1110 3821,1108 3820,1107 3820,1098 3821,1097 3821,1085 3820,1084 3820,1077 3821,1076 3821,1072 3822,1071 3822,1062 3821,1061 3821,1051 3822,1050 3822,1035 3821,1034 3821,1027 3820,1026 3820,1022 3819,1022 3817,1020 3815,1020 3814,1019 3711,1019 3710,1018 3699,1018 3698,1019 3694,1019 3693,1018 3640,1018 3639,1017 3632,1017 3631,1018 3568,1018 3567,1017 3559,1017 3558,1018 3523,1018 3522,1017 3495,1017 3494,1016" fill="rgba(236,81,110,0.3)" stroke="rgb(236,81,110)" stroke-width="2" data-block-id="0031" data-name="b-0042" /><text x="3618" y="1134" text-anchor="middle" dominant-baseline="middle" class="block-label" fill="rgb(236,81,110)" stroke="white" stroke-width="3" paint-order="stroke">b-0042</text><polygon points="626,1337 625,1338 622,1338 621,1339 619,1339 618,1340 617,1340 616,1341 616,1342 615,1343 615,1346 616,1347 616,1351 617,1352 617,1354 616,1355 616,1357 615,1358 615,1359 614,1360 614,1361 613,1362 613,1364 612,1365 612,1369 611,1370 611,1374 610,1375 610,1377 609,1378 609,1379 607,1381 607,1382 603,1386 603,1387 601,1389 601,1390 600,1391 600,1394 599,1395 599,1400 598,1401 598,1404 597,1405 597,1407 596,1408 596,1411 595,1412 595,1414 594,1415 594,1421 593,1422 593,1428 592,1429 592,1433 591,1434 591,1437 590,1438 590,1442 589,1443 589,1446 588,1447 588,1450 587,1451 587,1453 586,1454 586,1455 585,1456 585,1457 584,1458 584,1459 582,1461 582,1463 581,1464 581,1476 580,1477 580,1481 579,1482 579,1485 578,1486 578,1489 577,1490 577,1493 576,1494 576,1497 575,1498 575,1500 574,1501 574,1502 573,1503 573,1505 572,1506 572,1507 571,1508 571,1510 570,1511 570,1515 569,1516 569,1522 568,1523 568,1526 567,1527 567,1529 566,1530 566,1533 565,1534 565,1539 564,1540 564,1545 563,1546 563,1550 562,1551 562,1553 561,1554 561,1556 560,1557 560,1560 559,1561 559,1565 558,1566 558,1569 557,1570 557,1572 556,1573 556,1576 555,1577 555,1579 554,1580 554,1584 553,1585 553,1593 552,1594 552,1597 551,1598 551,1601 550,1602 550,1605 549,1606 549,1609 548,1610 548,1613 547,1614 547,1618 546,1619 546,1625 545,1626 545,1630 544,1631 544,1633 543,1634 543,1635 542,1636 542,1638 541,1639 541,1640 540,1641 540,1643 538,1645 538,1646 537,1647 537,1648 535,1650 535,1651 534,1652 534,1653 533,1654 533,1657 532,1658 532,1664 531,1665 531,1669 530,1670 530,1674 529,1675 529,1681 528,1682 528,1688 527,1689 527,1697 526,1698 526,1712 525,1713 525,1718 524,1719 524,1721 523,1722 523,1724 522,1725 522,1728 521,1729 521,1735 520,1736 520,1740 519,1741 519,1742 518,1743 518,1745 517,1746 517,1748 516,1749 516,1751 515,1752 515,1756 514,1757 514,1761 513,1762 513,1764 512,1765 512,1766 511,1767 511,1768 509,1770 509,1773 508,1774 508,1779 507,1780 507,1784 506,1785 506,1787 505,1788 505,1790 504,1791 504,1793 503,1794 503,1796 502,1797 502,1801 501,1802 501,1806 500,1807 500,1810 499,1811 499,1815 498,1816 498,1820 497,1821 497,1829 496,1830 496,1834 495,1835 495,1837 494,1838 494,1840 493,1841 493,1843 492,1844 492,1846 491,1847 491,1850 490,1851 490,1854 489,1855 489,1861 488,1862 488,1867 487,1868 487,1871 486,1872 486,1873 485,1874 485,1877 484,1878 484,1880 483,1881 483,1882 482,1883 482,1884 481,1885 481,1887 480,1888 480,1891 479,1892 479,1898 478,1899 478,1906 477,1907 477,1909 476,1910 476,1913 475,1914 475,1917 474,1918 474,1925 473,1926 473,1932 472,1933 472,1936 471,1937 471,1942 474,1945 475,1945 476,1946 477,1946 478,1947 480,1947 481,1948 484,1948 485,1949 493,1949 494,1950 498,1950 499,1951 501,1951 502,1952 506,1952 507,1953 510,1953 511,1954 514,1954 515,1955 519,1955 520,1956 523,1956 524,1957 526,1957 527,1958 529,1958 530,1959 536,1959 537,1960 545,1960 546,1961 549,1961 550,1962 552,1962 553,1963 556,1963 557,1964 562,1964 563,1965 568,1965 569,1966 574,1966 575,1967 581,1967 582,1968 590,1968 591,1969 595,1969 596,1970 599,1970 600,1971 603,1971 604,1972 607,1972 608,1973 611,1973 612,1974 616,1974 617,1973 618,1973 619,1972 620,1972 624,1968 624,1967 625,1966 625,1964 626,1963 626,1961 627,1960 627,1958 628,1957 628,1954 629,1953 629,1941 630,1940 630,1930 631,1929 631,1922 632,1921 632,1902 631,1901 631,1890 632,1889 632,1887 633,1886 633,1885 634,1884 634,1882 635,1881 635,1878 636,1877 636,1872 637,1871 637,1858 638,1857 638,1842 639,1841 639,1833 640,1832 640,1819 641,1818 641,1809 642,1808 642,1789 643,1788 643,1772 644,1771 644,1765 645,1764 645,1735 646,1734 646,1728 647,1727 647,1715 648,1714 648,1710 649,1709 649,1707 650,1706 650,1704 651,1703 651,1702 652,1701 652,1696 653,1695 653,1691 654,1690 654,1679 655,1678 655,1667 656,1666 656,1654 657,1653 657,1652 658,1651 658,1650 662,1646 662,1645 664,1643 664,1641 665,1640 665,1639 664,1638 664,1630 663,1629 663,1628 662,1627 662,1626 661,1625 661,1624 660,1623 660,1621 659,1620 659,1594 660,1593 660,1580 661,1579 661,1569 662,1568 662,1559 663,1558 663,1552 664,1551 664,1533 665,1532 665,1516 666,1515 666,1508 667,1507 667,1502 668,1501 668,1492 669,1491 669,1483 670,1482 670,1454 671,1453 671,1442 672,1441 672,1436 673,1435 673,1423 674,1422 674,1412 675,1411 675,1399 674,1398 674,1396 671,1393 671,1392 670,1391 670,1390 669,1389 669,1382 668,1381 668,1379 669,1378 669,1374 670,1373 670,1370 671,1369 671,1356 672,1355 672,1352 671,1351 671,1344 670,1344 668,1342 667,1342 666,1341 663,1341 662,1340 646,1340 645,1339 639,1339 638,1338 630,1338 629,1337" fill="rgba(156,14,44,0.3)" stroke="rgb(156,14,44)" stroke-width="2" data-block-id="0032" data-name="b-0046" /><text x="578" y="1670" text-anchor="middle" dominant-baseline="middle" class="block-label" fill="rgb(156,14,44)" stroke="white" stroke-width="3" paint-order="stroke">b-0046</text></g>
</svg>