<?xml version='1.0' encoding='utf-8'?>
<svg xmlns="http://www.w3.org/2000/svg" xmlns:atlas="http://example.com/atlas" width="4984" height="3264" viewBox="0 0 4984 3264">
  
  <metadata>
    <atlas:source>
      <atlas:jp2-path>/Users/pwright/workspace/atlas/media/v2/p30.jp2</atlas:jp2-path>
      <atlas:volume>unknown</atlas:volume>
      <atlas:plate-id>p30</atlas:plate-id>
      <atlas:image-width>4984</atlas:image-width>
      <atlas:image-height>3264</atlas:image-height>
    </atlas:source>
  </metadata>

  
  <image id="background" href="file:///Users/pwright/workspace/atlas/media/v2/p30.jp2" width="4984" height="3264" opacity="0.5" />

  <style>
    .block-label { font-family: sans-serif; font-size: 14px; font-weight: bold; }
  </style>

  
  <g id="blocks">
    <polygon points="902,1968 901,1969 898,1969 897,1970 896,1970 895,1971 894,1971 892,1973 892,1999 891,2000 891,2022 890,2023 891,2024 891,2040 890,2041 890,2076 891,2077 891,2088 890,2089 890,2097 891,2098 891,2110 890,2111 890,2137 889,2138 889,2143 890,2144 890,2149 891,2150 891,2155 890,2156 890,2162 889,2163 889,2166 890,2167 890,2185 889,2186 889,2192 890,2193 890,2205 889,2206 889,2238 888,2239 888,2251 887,2252 887,2258 886,2259 887,2260 887,2265 888,2266 888,2269 889,2270 889,2285 888,2286 888,2313 887,2314 887,2328 886,2329 886,2330 887,2331 887,2332 890,2335 891,2335 892,2336 893,2336 894,2337 898,2337 899,2338 905,2338 906,2339 932,2339 933,2340 941,2340 942,2339 946,2339 947,2340 951,2340 952,2341 954,2341 955,2342 958,2342 959,2343 961,2343 962,2342 972,2342 973,2341 977,2341 978,2340 1016,2340 1017,2339 1020,2339 1021,2340 1065,2340 1066,2339 1067,2339 1068,2340 1108,2340 1109,2339 1115,2339 1116,2340 1119,2340 1120,2341 1122,2341 1123,2342 1129,2342 1130,2341 1166,2341 1167,2340 1287,2340 1288,2341 1299,2341 1300,2342 1327,2342 1328,2341 1334,2341 1335,2340 1378,2340 1379,2341 1384,2341 1385,2342 1387,2342 1388,2343 1390,2343 1391,2344 1393,2344 1394,2345 1396,2345 1397,2346 1402,2346 1403,2345 1407,2345 1408,2344 1422,2344 1423,2343 1425,2343 1426,2342 1430,2342 1431,2341 1512,2341 1513,2342 1521,2342 1522,2341 1556,2341 1557,2342 1593,2342 1594,2341 1604,2341 1605,2342 1617,2342 1618,2341 1650,2341 1651,2342 1656,2342 1657,2343 1665,2343 1666,2342 1683,2342 1684,2341 1701,2341 1702,2342 1732,2342 1733,2341 1760,2341 1761,2342 1788,2342 1789,2341 1794,2341 1795,2342 1828,2342 1829,2341 1848,2341 1849,2342 1857,2342 1858,2341 2025,2341 2026,2342 2053,2342 2054,2343 2114,2343 2115,2342 2121,2342 2122,2341 2239,2341 2240,2342 2312,2342 2313,2341 2344,2341 2345,2340 2348,2340 2349,2339 2350,2339 2354,2335 2354,2334 2355,2333 2355,2328 2356,2327 2356,2315 2355,2314 2355,2300 2356,2299 2356,2293 2355,2292 2355,2268 2356,2267 2356,2251 2357,2250 2357,2239 2356,2238 2356,2180 2357,2179 2357,2176 2356,2175 2356,2005 2355,2004 2355,1982 2354,1981 2354,1980 2353,1979 2353,1978 2350,1975 2348,1975 2347,1974 2343,1974 2342,1973 2311,1973 2310,1974 2285,1974 2284,1975 2273,1975 2272,1974 2269,1974 2268,1975 2261,1975 2260,1976 2245,1976 2244,1975 2243,1975 2242,1976 2230,1976 2229,1975 2135,1975 2134,1974 2119,1974 2118,1975 2110,1975 2109,1974 1975,1974 1974,1975 1881,1975 1880,1974 1777,1974 1776,1973 1691,1973 1690,1972 1659,1972 1658,1973 1647,1973 1646,1972 1642,1972 1641,1971 1621,1971 1620,1972 1567,1972 1566,1973 1555,1973 1554,1972 1501,1972 1500,1971 1466,1971 1465,1972 1456,1972 1455,1971 1404,1971 1403,1970 1353,1970 1352,1969 1350,1969 1349,1970 1307,1970 1306,1969 1253,1969 1252,1970 1212,1970 1211,1969 1128,1969 1127,1970 1110,1970 1109,1969 1082,1969 1081,1968" fill="rgba(14,106,71,0.3)" stroke="rgb(14,106,71)" stroke-width="2" data-block-id="0001" data-name="b-0002" /><text x="1492" y="2197" text-anchor="middle" dominant-baseline="middle" class="block-label" fill="rgb(14,106,71)" stroke="white" stroke-width="3" paint-order="stroke">b-0002</text><polygon points="904,2444 903,2445 896,2445 895,2446 893,2446 892,2447 890,2447 887,2450 887,2451 886,2452 886,2465 885,2466 885,2470 884,2471 884,2478 885,2479 885,2482 886,2483 886,2492 885,2493 885,2533 884,2534 884,2549 883,2550 883,2555 882,2556 882,2559 881,2560 881,2565 880,2566 880,2573 881,2574 881,2580 882,2581 882,2585 883,2586 883,2589 884,2590 884,2596 885,2597 885,2650 884,2651 884,2695 883,2696 883,2716 882,2717 882,2722 881,2723 881,2737 882,2738 882,2741 883,2742 883,2747 884,2748 884,2752 883,2753 883,2784 882,2785 882,2808 883,2809 883,2810 887,2814 891,2814 892,2815 901,2815 902,2816 950,2816 951,2817 963,2817 964,2818 971,2818 972,2819 975,2819 976,2820 986,2820 987,2819 989,2819 990,2818 992,2818 993,2817 1010,2817 1011,2816 1021,2816 1022,2817 1061,2817 1062,2816 1130,2816 1131,2817 1235,2817 1236,2816 1244,2816 1245,2815 1247,2815 1248,2816 1259,2816 1260,2815 1274,2815 1275,2814 1297,2814 1298,2815 1316,2815 1317,2816 1404,2816 1405,2817 1417,2817 1418,2816 1427,2816 1428,2817 1449,2817 1450,2818 1456,2818 1457,2819 1464,2819 1465,2818 1479,2818 1480,2817 1502,2817 1503,2816 1556,2816 1557,2817 1571,2817 1572,2818 1584,2818 1585,2817 1596,2817 1597,2818 1604,2818 1605,2817 1616,2817 1617,2818 1618,2818 1619,2819 1620,2819 1621,2820 1622,2820 1624,2822 1626,2822 1627,2823 1638,2823 1639,2822 1642,2822 1643,2821 1647,2821 1648,2820 1654,2820 1655,2819 1659,2819 1660,2818 1709,2818 1710,2819 1732,2819 1733,2818 1822,2818 1823,2817 1842,2817 1843,2818 1857,2818 1858,2817 1899,2817 1900,2818 1907,2818 1908,2819 1917,2819 1918,2818 1930,2818 1931,2817 1945,2817 1946,2818 1952,2818 1953,2817 1972,2817 1973,2818 1993,2818 1994,2819 2025,2819 2026,2818 2032,2818 2033,2819 2043,2819 2044,2820 2050,2820 2051,2821 2057,2821 2058,2822 2064,2822 2065,2821 2072,2821 2073,2820 2113,2820 2114,2819 2121,2819 2122,2818 2169,2818 2170,2819 2188,2819 2189,2820 2201,2820 2202,2819 2209,2819 2210,2818 2230,2818 2231,2817 2232,2818 2266,2818 2267,2817 2272,2817 2273,2818 2282,2818 2283,2817 2327,2817 2328,2816 2332,2816 2333,2815 2334,2815 2335,2814 2336,2814 2337,2813 2338,2813 2339,2812 2340,2812 2342,2810 2343,2810 2346,2807 2346,2806 2347,2805 2347,2802 2348,2801 2348,2800 2349,2799 2349,2795 2350,2794 2349,2793 2349,2745 2350,2744 2350,2736 2351,2735 2351,2727 2352,2726 2352,2721 2351,2720 2351,2711 2350,2710 2350,2704 2349,2703 2349,2696 2348,2695 2348,2691 2347,2690 2347,2686 2346,2685 2346,2681 2345,2680 2345,2676 2346,2675 2346,2673 2347,2672 2347,2671 2348,2670 2348,2669 2349,2668 2349,2667 2350,2666 2350,2659 2351,2658 2351,2653 2350,2652 2350,2649 2349,2648 2349,2646 2348,2645 2348,2642 2347,2641 2347,2634 2346,2633 2346,2626 2347,2625 2347,2608 2346,2607 2346,2604 2347,2603 2347,2547 2348,2546 2348,2501 2347,2500 2347,2462 2346,2461 2346,2460 2345,2459 2345,2458 2341,2454 2340,2454 2339,2453 2336,2453 2335,2452 2331,2452 2330,2451 2314,2451 2313,2452 2301,2452 2300,2451 2287,2451 2286,2452 2232,2452 2231,2453 2230,2452 2115,2452 2114,2451 2094,2451 2093,2450 2086,2450 2085,2451 2047,2451 2046,2450 2013,2450 2012,2449 1978,2449 1977,2450 1879,2450 1878,2451 1866,2451 1865,2450 1811,2450 1810,2449 1800,2449 1799,2450 1784,2450 1783,2449 1685,2449 1684,2450 1660,2450 1659,2449 1653,2449 1652,2448 1636,2448 1635,2449 1613,2449 1612,2450 1598,2450 1597,2451 1582,2451 1581,2452 1565,2452 1564,2453 1549,2453 1548,2454 1526,2454 1525,2453 1479,2453 1478,2452 1476,2452 1475,2451 1473,2451 1472,2450 1470,2450 1469,2449 1443,2449 1442,2450 1433,2450 1432,2451 1423,2451 1422,2452 1392,2452 1391,2453 1377,2453 1376,2454 1360,2454 1359,2453 1355,2453 1354,2452 1335,2452 1334,2451 1328,2451 1327,2450 1326,2450 1325,2451 1318,2451 1317,2452 1316,2451 1314,2451 1313,2450 1311,2450 1310,2449 1308,2449 1307,2448 1284,2448 1283,2447 1273,2447 1272,2448 1266,2448 1265,2447 1249,2447 1248,2448 1238,2448 1237,2447 1230,2447 1229,2448 1212,2448 1211,2447 1207,2447 1206,2448 1163,2448 1162,2447 1158,2447 1157,2448 1141,2448 1140,2447 1072,2447 1071,2446 1043,2446 1042,2447 1015,2447 1014,2446 955,2446 954,2445 925,2445 924,2444" fill="rgba(188,20,102,0.3)" stroke="rgb(188,20,102)" stroke-width="2" data-block-id="0002" data-name="b-0003" /><text x="1638" y="2648" text-anchor="middle" dominant-baseline="middle" class="block-label" fill="rgb(188,20,102)" stroke="white" stroke-width="3" paint-order="stroke">b-0003</text><polygon points="922,1491 921,1492 913,1492 912,1493 908,1493 907,1494 906,1494 905,1495 904,1495 902,1497 902,1498 901,1499 901,1501 900,1502 900,1506 899,1507 899,1515 898,1516 898,1521 899,1522 899,1526 900,1527 900,1543 899,1544 899,1548 898,1549 898,1574 899,1575 899,1587 900,1588 900,1591 899,1592 899,1599 898,1600 898,1616 899,1617 899,1621 900,1622 900,1650 899,1651 899,1653 898,1654 898,1656 897,1657 897,1658 896,1659 896,1666 897,1667 897,1671 898,1672 898,1685 897,1686 897,1703 898,1704 898,1710 897,1711 897,1717 896,1718 896,1750 895,1751 895,1764 896,1765 896,1788 895,1789 895,1822 894,1823 894,1837 893,1838 893,1839 894,1840 894,1842 895,1843 895,1844 896,1845 896,1846 897,1847 897,1848 898,1849 898,1850 899,1851 900,1851 902,1853 903,1853 904,1854 906,1854 907,1855 910,1855 911,1856 937,1856 938,1857 954,1857 955,1858 979,1858 980,1857 983,1857 984,1858 992,1858 993,1859 1004,1859 1005,1860 1009,1860 1010,1859 1028,1859 1029,1858 1044,1858 1045,1859 1073,1859 1074,1858 1079,1858 1080,1859 1100,1859 1101,1858 1115,1858 1116,1859 1122,1859 1123,1860 1130,1860 1131,1859 1145,1859 1146,1860 1160,1860 1161,1859 1192,1859 1193,1860 1220,1860 1221,1861 1249,1861 1250,1860 1317,1860 1318,1861 1361,1861 1362,1860 1383,1860 1384,1859 1390,1859 1391,1860 1396,1860 1397,1861 1445,1861 1446,1862 1473,1862 1474,1861 1490,1861 1491,1862 1545,1862 1546,1861 1567,1861 1568,1862 1586,1862 1587,1863 1656,1863 1657,1862 1674,1862 1675,1863 1690,1863 1691,1862 1706,1862 1707,1861 1708,1861 1709,1862 1742,1862 1743,1861 1749,1861 1750,1862 1763,1862 1764,1863 1775,1863 1776,1862 1798,1862 1799,1861 1805,1861 1806,1862 1836,1862 1837,1861 1841,1861 1842,1862 1853,1862 1854,1863 1880,1863 1881,1862 1887,1862 1888,1861 1889,1861 1890,1862 1926,1862 1927,1861 1932,1861 1933,1860 1936,1860 1937,1861 1941,1861 1942,1862 1981,1862 1982,1861 2011,1861 2012,1862 2024,1862 2025,1861 2106,1861 2107,1862 2166,1862 2167,1861 2215,1861 2216,1862 2298,1862 2299,1861 2306,1861 2307,1862 2328,1862 2329,1861 2347,1861 2348,1860 2351,1860 2352,1859 2353,1859 2354,1858 2354,1857 2355,1856 2355,1855 2356,1854 2356,1850 2357,1849 2357,1817 2358,1816 2358,1799 2359,1798 2359,1760 2358,1759 2358,1754 2359,1753 2359,1712 2358,1711 2358,1707 2359,1706 2359,1665 2358,1664 2358,1659 2359,1658 2359,1646 2360,1645 2360,1637 2359,1636 2359,1634 2358,1633 2358,1631 2357,1630 2357,1628 2356,1627 2356,1619 2357,1618 2357,1584 2358,1583 2358,1557 2359,1556 2359,1533 2358,1532 2358,1515 2357,1514 2357,1508 2356,1507 2356,1506 2354,1504 2353,1504 2352,1503 2332,1503 2331,1502 2323,1502 2322,1503 2311,1503 2310,1502 2240,1502 2239,1501 2196,1501 2195,1502 2182,1502 2181,1501 2176,1501 2175,1500 2156,1500 2155,1501 2140,1501 2139,1500 2133,1500 2132,1501 2121,1501 2120,1500 2023,1500 2022,1499 1954,1499 1953,1498 1942,1498 1941,1499 1937,1499 1936,1500 1934,1500 1933,1501 1930,1501 1929,1502 1926,1502 1925,1503 1916,1503 1915,1504 1911,1504 1910,1503 1904,1503 1903,1502 1891,1502 1890,1503 1887,1503 1886,1502 1880,1502 1879,1501 1847,1501 1846,1502 1838,1502 1837,1501 1791,1501 1790,1500 1691,1500 1690,1499 1675,1499 1674,1500 1672,1500 1671,1499 1656,1499 1655,1500 1646,1500 1645,1499 1596,1499 1595,1498 1523,1498 1522,1497 1481,1497 1480,1496 1472,1496 1471,1495 1383,1495 1382,1494 1355,1494 1354,1493 1318,1493 1317,1494 1306,1494 1305,1493 1300,1493 1299,1494 1293,1494 1292,1493 1280,1493 1279,1492 1278,1492 1277,1493 1237,1493 1236,1492 1229,1492 1228,1493 1212,1493 1211,1492 1187,1492 1186,1491 1182,1491 1181,1492 1166,1492 1165,1493 1128,1493 1127,1494 1122,1494 1121,1493 1106,1493 1105,1494 1100,1494 1099,1493 1052,1493 1051,1492 1023,1492 1022,1491 1014,1491 1013,1492 973,1492 972,1491 965,1491 964,1492 956,1492 955,1491" fill="rgba(121,210,214,0.3)" stroke="rgb(121,210,214)" stroke-width="2" data-block-id="0003" data-name="b-0004" /><text x="1539" y="1678" text-anchor="middle" dominant-baseline="middle" class="block-label" fill="rgb(121,210,214)" stroke="white" stroke-width="3" paint-order="stroke">b-0004</text><polygon points="957,1009 956,1010 952,1010 951,1011 933,1011 932,1012 919,1012 918,1013 913,1013 912,1014 910,1014 908,1016 907,1016 906,1017 906,1018 904,1020 904,1022 903,1023 903,1025 902,1026 902,1028 901,1029 901,1140 900,1141 900,1163 899,1164 899,1213 898,1214 898,1223 899,1224 899,1237 898,1238 898,1243 897,1244 897,1246 898,1247 898,1263 897,1264 897,1276 898,1277 898,1282 897,1283 897,1300 898,1301 898,1307 897,1308 897,1322 898,1323 898,1349 899,1350 899,1360 900,1361 900,1367 901,1368 901,1370 902,1371 902,1372 905,1375 906,1375 907,1376 908,1376 909,1377 916,1377 917,1378 928,1378 929,1377 943,1377 944,1378 991,1378 992,1379 1026,1379 1027,1378 1033,1378 1034,1379 1071,1379 1072,1378 1084,1378 1085,1379 1127,1379 1128,1380 1169,1380 1170,1379 1175,1379 1176,1380 1205,1380 1206,1379 1217,1379 1218,1380 1235,1380 1236,1381 1249,1381 1250,1380 1283,1380 1284,1381 1296,1381 1297,1380 1325,1380 1326,1381 1341,1381 1342,1380 1380,1380 1381,1379 1406,1379 1407,1380 1419,1380 1420,1381 1424,1381 1425,1380 1478,1380 1479,1379 1494,1379 1495,1378 1666,1378 1667,1379 1717,1379 1718,1378 1724,1378 1725,1379 1758,1379 1759,1380 1783,1380 1784,1381 1799,1381 1800,1380 1812,1380 1813,1379 1818,1379 1819,1380 1830,1380 1831,1381 1846,1381 1847,1380 1853,1380 1854,1381 1859,1381 1860,1382 1892,1382 1893,1381 1900,1381 1901,1382 1908,1382 1909,1383 1919,1383 1920,1382 1942,1382 1943,1381 1962,1381 1963,1382 2002,1382 2003,1383 2097,1383 2098,1384 2126,1384 2127,1385 2128,1384 2144,1384 2145,1385 2151,1385 2152,1384 2157,1384 2158,1383 2164,1383 2165,1384 2182,1384 2183,1383 2186,1383 2187,1384 2193,1384 2194,1385 2275,1385 2276,1384 2283,1384 2284,1385 2342,1385 2343,1384 2353,1384 2354,1383 2355,1383 2356,1382 2357,1382 2359,1380 2359,1379 2361,1377 2361,1375 2362,1374 2362,1372 2361,1371 2361,1363 2362,1362 2362,1341 2361,1340 2361,1318 2362,1317 2362,1246 2361,1245 2361,1227 2362,1226 2362,1201 2363,1200 2363,1195 2362,1194 2362,1180 2361,1179 2361,1170 2362,1169 2362,1140 2361,1139 2361,1122 2362,1121 2362,1074 2363,1073 2363,1040 2362,1039 2362,1036 2361,1035 2361,1032 2360,1031 2360,1030 2357,1027 2356,1027 2355,1026 2354,1026 2353,1025 2307,1025 2306,1024 2295,1024 2294,1025 2264,1025 2263,1024 2252,1024 2251,1025 2240,1025 2239,1026 2225,1026 2224,1025 2158,1025 2157,1024 2151,1024 2150,1023 2135,1023 2134,1024 2096,1024 2095,1023 2049,1023 2048,1022 2011,1022 2010,1021 1997,1021 1996,1020 1993,1020 1992,1019 1989,1019 1988,1018 1978,1018 1977,1019 1974,1019 1973,1020 1962,1020 1961,1019 1949,1019 1948,1018 1933,1018 1932,1019 1929,1019 1928,1020 1926,1020 1925,1021 1921,1021 1920,1020 1919,1020 1918,1019 1917,1019 1916,1018 1914,1018 1913,1017 1910,1017 1909,1018 1907,1018 1906,1019 1903,1019 1902,1020 1833,1020 1832,1021 1689,1021 1688,1020 1574,1020 1573,1019 1560,1019 1559,1020 1550,1020 1549,1019 1521,1019 1520,1018 1518,1018 1517,1019 1497,1019 1496,1018 1486,1018 1485,1019 1476,1019 1475,1018 1470,1018 1469,1019 1447,1019 1446,1018 1428,1018 1427,1017 1417,1017 1416,1018 1402,1018 1401,1017 1385,1017 1384,1016 1380,1016 1379,1015 1375,1015 1374,1014 1373,1014 1372,1015 1366,1015 1365,1016 1363,1016 1362,1015 1357,1015 1356,1014 1344,1014 1343,1015 1311,1015 1310,1014 1296,1014 1295,1015 1271,1015 1270,1016 1263,1016 1262,1017 1259,1017 1258,1018 1252,1018 1251,1017 1241,1017 1240,1016 1224,1016 1223,1017 1218,1017 1217,1016 1143,1016 1142,1015 1128,1015 1127,1016 1124,1016 1123,1015 1071,1015 1070,1014 1048,1014 1047,1013 1009,1013 1008,1014 1005,1014 1004,1013 999,1013 998,1012 987,1012 986,1013 981,1013 980,1012 976,1012 975,1011 970,1011 969,1010 962,1010 961,1009" fill="rgba(74,202,87,0.3)" stroke="rgb(74,202,87)" stroke-width="2" data-block-id="0004" data-name="b-0005" /><text x="1590" y="1182" text-anchor="middle" dominant-baseline="middle" class="block-label" fill="rgb(74,202,87)" stroke="white" stroke-width="3" paint-order="stroke">b-0005</text><polygon points="961,538 960,539 937,539 936,540 926,540 925,539 924,539 923,540 917,540 916,541 913,541 912,542 911,542 909,544 909,546 908,547 908,550 907,551 907,557 906,558 906,578 905,579 905,594 906,595 906,602 905,603 905,617 906,618 906,634 905,635 905,665 906,666 906,669 907,670 907,677 906,678 906,689 907,690 907,703 906,704 906,712 907,713 907,718 908,719 908,726 907,727 907,741 908,742 908,744 907,745 907,795 906,796 906,845 905,846 905,854 906,855 906,860 907,861 907,871 906,872 906,879 907,880 907,897 908,898 908,899 910,901 911,901 912,902 931,902 932,903 943,903 944,902 957,902 958,903 974,903 975,902 1030,902 1031,903 1046,903 1047,902 1074,902 1075,901 1080,901 1081,902 1095,902 1096,901 1116,901 1117,900 1131,900 1132,901 1143,901 1144,902 1169,902 1170,901 1179,901 1180,902 1206,902 1207,903 1210,903 1211,902 1241,902 1242,903 1252,903 1253,902 1260,902 1261,903 1386,903 1387,904 1391,904 1392,903 1405,903 1406,902 1433,902 1434,903 1436,903 1437,902 1514,902 1515,903 1553,903 1554,904 1620,904 1621,905 1691,905 1692,906 1703,906 1704,905 1714,905 1715,906 1728,906 1729,905 1735,905 1736,906 1780,906 1781,905 1801,905 1802,906 1804,906 1805,905 1824,905 1825,906 1836,906 1837,905 1857,905 1858,906 1865,906 1866,905 1902,905 1903,906 1930,906 1931,907 1952,907 1953,906 2037,906 2038,907 2050,907 2051,908 2058,908 2059,907 2068,907 2069,908 2075,908 2076,909 2096,909 2097,910 2102,910 2103,911 2119,911 2120,912 2129,912 2130,911 2135,911 2136,910 2144,910 2145,911 2181,911 2182,910 2185,910 2186,911 2189,911 2190,912 2195,912 2196,913 2199,913 2200,912 2230,912 2231,911 2232,911 2233,912 2239,912 2240,913 2259,913 2260,914 2288,914 2289,915 2294,915 2295,914 2333,914 2334,913 2354,913 2355,912 2356,912 2357,911 2358,911 2362,907 2362,906 2363,905 2363,903 2364,902 2364,900 2365,899 2365,798 2366,797 2366,783 2367,782 2367,766 2366,765 2366,752 2367,751 2367,685 2368,684 2368,677 2369,676 2369,657 2368,656 2368,647 2369,646 2369,631 2368,630 2368,609 2367,608 2367,598 2368,597 2368,588 2369,587 2369,578 2368,577 2368,568 2367,567 2367,560 2366,559 2366,554 2365,553 2365,552 2362,549 2359,549 2358,548 2355,548 2354,547 2332,547 2331,546 2283,546 2282,545 2253,545 2252,546 2241,546 2240,545 2183,545 2182,544 2140,544 2139,543 2130,543 2129,544 2097,544 2096,543 2080,543 2079,544 2057,544 2056,545 2052,545 2051,544 2036,544 2035,545 2023,545 2022,544 2013,544 2012,545 2003,545 2002,544 1975,544 1974,543 1966,543 1965,544 1956,544 1955,543 1951,543 1950,542 1883,542 1882,541 1860,541 1859,542 1849,542 1848,543 1820,543 1819,544 1809,544 1808,543 1802,543 1801,544 1760,544 1759,545 1721,545 1720,546 1691,546 1690,545 1655,545 1654,546 1644,546 1643,545 1574,545 1573,544 1557,544 1556,545 1552,545 1551,544 1510,544 1509,545 1505,545 1504,544 1494,544 1493,543 1482,543 1481,544 1464,544 1463,545 1453,545 1452,544 1429,544 1428,543 1420,543 1419,544 1409,544 1408,543 1402,543 1401,542 1379,542 1378,543 1342,543 1341,544 1309,544 1308,543 1267,543 1266,544 1246,544 1245,543 1240,543 1239,544 1222,544 1221,545 1219,545 1218,544 1175,544 1174,545 1173,544 1154,544 1153,543 1135,543 1134,544 1122,544 1121,543 1108,543 1107,542 1099,542 1098,541 1093,541 1092,540 1077,540 1076,539 1056,539 1055,540 1052,540 1051,539 1021,539 1020,538 1012,538 1011,539 1002,539 1001,538 991,538 990,539 985,539 984,540 980,540 979,539 976,539 975,538" fill="rgba(116,99,103,0.3)" stroke="rgb(116,99,103)" stroke-width="2" data-block-id="0005" data-name="b-0006" /><text x="1595" y="711" text-anchor="middle" dominant-baseline="middle" class="block-label" fill="rgb(116,99,103)" stroke="white" stroke-width="3" paint-order="stroke">b-0006</text><polygon points="3752,2442 3751,2443 3749,2443 3748,2444 3747,2444 3746,2445 3744,2445 3743,2446 3741,2446 3740,2447 3728,2447 3727,2448 3719,2448 3718,2449 3712,2449 3711,2448 3678,2448 3677,2447 3675,2447 3674,2446 3670,2446 3669,2445 3664,2445 3663,2446 3653,2446 3652,2445 3612,2445 3611,2444 3609,2444 3608,2445 3598,2445 3597,2446 3590,2446 3589,2447 3576,2447 3575,2446 3563,2446 3562,2447 3561,2446 3557,2446 3556,2445 3548,2445 3547,2444 3546,2445 3537,2445 3536,2446 3506,2446 3505,2445 3495,2445 3494,2446 3483,2446 3482,2447 3466,2447 3465,2446 3458,2446 3457,2445 3447,2445 3446,2446 3429,2446 3428,2445 3403,2445 3402,2446 3362,2446 3361,2445 3353,2445 3352,2446 3327,2446 3326,2447 3320,2447 3319,2446 3304,2446 3303,2447 3281,2447 3280,2446 3266,2446 3265,2445 3260,2445 3259,2446 3222,2446 3221,2445 3210,2445 3209,2446 3200,2446 3199,2445 3140,2445 3139,2446 3128,2446 3127,2447 3122,2447 3121,2448 3119,2448 3118,2447 3114,2447 3113,2446 3105,2446 3104,2445 3089,2445 3088,2446 3081,2446 3080,2445 3053,2445 3052,2446 3036,2446 3035,2445 3004,2445 3003,2446 2983,2446 2982,2445 2973,2445 2972,2446 2960,2446 2959,2445 2933,2445 2932,2444 2923,2444 2922,2445 2915,2445 2914,2444 2900,2444 2899,2445 2887,2445 2886,2444 2863,2444 2862,2445 2849,2445 2848,2446 2843,2446 2842,2445 2794,2445 2793,2444 2755,2444 2754,2443 2744,2443 2743,2444 2721,2444 2720,2445 2665,2445 2664,2444 2655,2444 2654,2445 2636,2445 2635,2446 2630,2446 2629,2445 2598,2445 2597,2446 2580,2446 2579,2445 2555,2445 2554,2446 2551,2446 2550,2447 2549,2447 2548,2448 2547,2448 2546,2449 2545,2449 2543,2451 2543,2458 2544,2459 2544,2465 2543,2466 2543,2469 2542,2470 2542,2474 2541,2475 2541,2488 2540,2489 2540,2495 2539,2496 2539,2501 2538,2502 2538,2551 2539,2552 2539,2555 2540,2556 2540,2560 2539,2561 2539,2563 2538,2564 2538,2567 2537,2568 2537,2592 2538,2593 2538,2608 2537,2609 2537,2624 2538,2625 2538,2634 2537,2635 2537,2669 2536,2670 2536,2680 2537,2681 2537,2698 2536,2699 2536,2718 2535,2719 2535,2728 2536,2729 2536,2776 2535,2777 2535,2799 2536,2800 2536,2801 2537,2802 2537,2803 2540,2806 2541,2806 2542,2807 2544,2807 2545,2808 2547,2808 2548,2809 2552,2809 2553,2810 2558,2810 2559,2811 2599,2811 2600,2812 2651,2812 2652,2813 2664,2813 2665,2812 2686,2812 2687,2813 2693,2813 2694,2812 2711,2812 2712,2813 2716,2813 2717,2812 2725,2812 2726,2811 2748,2811 2749,2812 2751,2812 2752,2811 2769,2811 2770,2812 2779,2812 2780,2813 2790,2813 2791,2812 2801,2812 2802,2811 2869,2811 2870,2812 2874,2812 2875,2811 2897,2811 2898,2812 2903,2812 2904,2813 2915,2813 2916,2812 2971,2812 2972,2813 2989,2813 2990,2812 3104,2812 3105,2811 3125,2811 3126,2812 3171,2812 3172,2811 3232,2811 3233,2812 3257,2812 3258,2811 3292,2811 3293,2810 3305,2810 3306,2811 3316,2811 3317,2810 3332,2810 3333,2811 3335,2811 3336,2810 3350,2810 3351,2809 3398,2809 3399,2810 3408,2810 3409,2809 3454,2809 3455,2808 3479,2808 3480,2807 3533,2807 3534,2806 3542,2806 3543,2807 3581,2807 3582,2806 3590,2806 3591,2807 3597,2807 3598,2806 3614,2806 3615,2805 3619,2805 3620,2806 3623,2806 3624,2807 3628,2807 3629,2808 3639,2808 3640,2807 3649,2807 3650,2806 3673,2806 3674,2805 3686,2805 3687,2806 3734,2806 3735,2805 3740,2805 3741,2806 3746,2806 3747,2807 3820,2807 3821,2806 3824,2806 3825,2807 3841,2807 3842,2806 3854,2806 3855,2807 3859,2807 3860,2806 3911,2806 3912,2805 3924,2805 3925,2806 3932,2806 3933,2805 3939,2805 3940,2804 3944,2804 3945,2805 3956,2805 3957,2804 3962,2804 3963,2803 3967,2803 3968,2802 3971,2802 3972,2801 3974,2801 3975,2800 3976,2800 3976,2799 3978,2797 3978,2794 3979,2793 3979,2689 3978,2688 3978,2687 3979,2686 3979,2638 3978,2637 3978,2633 3977,2632 3977,2629 3978,2628 3978,2626 3979,2625 3979,2624 3980,2623 3980,2622 3981,2621 3981,2620 3982,2619 3982,2613 3981,2612 3981,2607 3980,2606 3980,2601 3981,2600 3981,2591 3980,2590 3980,2585 3979,2584 3979,2579 3980,2578 3980,2562 3979,2561 3979,2537 3978,2536 3978,2531 3979,2530 3979,2517 3978,2516 3978,2502 3977,2501 3977,2488 3976,2487 3976,2475 3975,2474 3975,2462 3971,2458 3971,2457 3969,2455 3969,2454 3968,2453 3968,2452 3966,2450 3965,2450 3964,2449 3963,2449 3962,2448 3961,2448 3960,2447 3957,2447 3956,2446 3952,2446 3951,2445 3926,2445 3925,2446 3912,2446 3911,2445 3877,2445 3876,2446 3869,2446 3868,2445 3862,2445 3861,2444 3842,2444 3841,2443 3837,2443 3836,2442 3819,2442 3818,2443 3814,2443 3813,2444 3806,2444 3805,2443 3801,2443 3800,2442 3792,2442 3791,2443 3781,2443 3780,2442" fill="rgba(151,130,149,0.3)" stroke="rgb(151,130,149)" stroke-width="2" data-block-id="0006" data-name="b-0007" /><text x="3314" y="2599" text-anchor="middle" dominant-baseline="middle" class="block-label" fill="rgb(151,130,149)" stroke="white" stroke-width="3" paint-order="stroke">b-0007</text><polygon points="2568,1974 2567,1975 2561,1975 2560,1976 2556,1976 2555,1977 2552,1977 2551,1978 2550,1978 2549,1979 2548,1979 2547,1980 2547,1981 2545,1983 2545,1985 2544,1986 2544,1991 2543,1992 2543,1999 2542,2000 2542,2004 2541,2005 2541,2007 2540,2008 2540,2012 2541,2013 2541,2048 2542,2049 2542,2082 2541,2083 2541,2100 2542,2101 2542,2107 2541,2108 2541,2134 2540,2135 2540,2144 2541,2145 2541,2148 2542,2149 2542,2151 2543,2152 2543,2174 2544,2175 2544,2178 2543,2179 2543,2197 2544,2198 2544,2205 2545,2206 2545,2212 2546,2213 2546,2219 2547,2220 2547,2244 2546,2245 2546,2259 2545,2260 2545,2268 2544,2269 2544,2277 2543,2278 2543,2304 2542,2305 2542,2306 2543,2307 2543,2310 2544,2311 2544,2313 2545,2314 2545,2316 2546,2317 2546,2330 2547,2331 2547,2332 2549,2334 2550,2334 2552,2336 2553,2336 2554,2337 2555,2337 2556,2338 2558,2338 2559,2339 2569,2339 2570,2338 2571,2338 2572,2339 2581,2339 2582,2340 2601,2340 2602,2341 2623,2341 2624,2340 2628,2340 2629,2339 2652,2339 2653,2338 2676,2338 2677,2339 2694,2339 2695,2338 2698,2338 2699,2337 2702,2337 2703,2336 2705,2336 2706,2337 2721,2337 2722,2336 2735,2336 2736,2337 2740,2337 2741,2336 2788,2336 2789,2335 2852,2335 2853,2336 2862,2336 2863,2335 2874,2335 2875,2336 2883,2336 2884,2335 2888,2335 2889,2334 2894,2334 2895,2333 2896,2334 2909,2334 2910,2333 2922,2333 2923,2334 2934,2334 2935,2333 2946,2333 2947,2334 2958,2334 2959,2333 2972,2333 2973,2334 2982,2334 2983,2333 2991,2333 2992,2334 2996,2334 2997,2335 3003,2335 3004,2334 3009,2334 3010,2333 3028,2333 3029,2334 3034,2334 3035,2335 3037,2335 3038,2336 3041,2336 3042,2337 3044,2337 3045,2338 3051,2338 3052,2337 3054,2337 3055,2336 3058,2336 3059,2335 3067,2335 3068,2336 3075,2336 3076,2335 3093,2335 3094,2336 3099,2336 3100,2335 3110,2335 3111,2336 3120,2336 3121,2337 3122,2337 3123,2336 3139,2336 3140,2337 3144,2337 3145,2336 3170,2336 3171,2337 3177,2337 3178,2338 3185,2338 3186,2337 3295,2337 3296,2336 3312,2336 3313,2337 3362,2337 3363,2336 3460,2336 3461,2335 3474,2335 3475,2336 3476,2336 3477,2335 3554,2335 3555,2334 3603,2334 3604,2335 3610,2335 3611,2334 3614,2334 3615,2333 3618,2333 3619,2332 3622,2332 3623,2333 3626,2333 3627,2334 3724,2334 3725,2335 3736,2335 3737,2334 3741,2334 3742,2335 3771,2335 3772,2336 3783,2336 3784,2335 3797,2335 3798,2334 3808,2334 3809,2335 3817,2335 3818,2336 3834,2336 3835,2335 3860,2335 3861,2336 3866,2336 3867,2337 3872,2337 3873,2336 3876,2336 3877,2335 3879,2335 3880,2334 3885,2334 3886,2335 3892,2335 3893,2336 3975,2336 3976,2335 3978,2335 3979,2334 3980,2334 3983,2331 3983,2330 3984,2329 3984,2326 3985,2325 3985,2321 3986,2320 3986,2314 3985,2313 3985,2295 3986,2294 3986,2278 3985,2277 3985,2265 3986,2264 3986,2219 3985,2218 3985,2192 3986,2191 3986,2185 3985,2184 3985,2174 3986,2173 3986,2169 3987,2168 3987,2145 3988,2144 3988,2138 3987,2137 3987,2123 3988,2122 3988,2112 3987,2111 3987,2100 3988,2099 3988,2096 3989,2095 3989,2091 3988,2090 3988,2086 3987,2085 3987,2079 3988,2078 3988,2076 3989,2075 3989,2073 3990,2072 3990,2066 3989,2065 3989,2063 3988,2062 3988,2061 3987,2060 3987,2054 3988,2053 3988,2050 3989,2049 3989,2041 3988,2040 3988,2036 3987,2035 3987,2032 3988,2031 3988,2029 3989,2028 3989,2025 3990,2024 3990,2017 3989,2016 3989,2012 3988,2011 3988,2007 3989,2006 3989,1993 3988,1992 3988,1987 3987,1986 3987,1985 3985,1983 3984,1983 3983,1982 3982,1982 3981,1981 3978,1981 3977,1980 3894,1980 3893,1981 3876,1981 3875,1980 3864,1980 3863,1981 3848,1981 3847,1980 3824,1980 3823,1981 3817,1981 3816,1982 3807,1982 3806,1981 3804,1981 3803,1980 3800,1980 3799,1979 3796,1979 3795,1980 3788,1980 3787,1981 3781,1981 3780,1980 3772,1980 3771,1981 3756,1981 3755,1980 3746,1980 3745,1981 3686,1981 3685,1980 3628,1980 3627,1981 3624,1981 3623,1982 3617,1982 3616,1981 3615,1981 3614,1980 3613,1980 3612,1979 3611,1979 3610,1978 3608,1978 3607,1977 3596,1977 3595,1976 3585,1976 3584,1977 3549,1977 3548,1976 3496,1976 3495,1977 3485,1977 3484,1976 3461,1976 3460,1977 3434,1977 3433,1976 3368,1976 3367,1977 3343,1977 3342,1976 3307,1976 3306,1977 3282,1977 3281,1978 3274,1978 3273,1979 3260,1979 3259,1980 3247,1980 3246,1979 3241,1979 3240,1978 3235,1978 3234,1979 3225,1979 3224,1980 3216,1980 3215,1981 3206,1981 3205,1982 3204,1982 3203,1981 3199,1981 3198,1980 3195,1980 3194,1979 3174,1979 3173,1978 3170,1978 3169,1977 3153,1977 3152,1976 3147,1976 3146,1975 3135,1975 3134,1976 3118,1976 3117,1977 3110,1977 3109,1978 3108,1978 3107,1977 3103,1977 3102,1976 3098,1976 3097,1975 3092,1975 3091,1976 3080,1976 3079,1977 3067,1977 3066,1978 3058,1978 3057,1977 3054,1977 3053,1976 3050,1976 3049,1975 3046,1975 3045,1976 3042,1976 3041,1977 3039,1977 3038,1978 2989,1978 2988,1979 2976,1979 2975,1980 2960,1980 2959,1979 2955,1979 2954,1978 2949,1978 2948,1979 2922,1979 2921,1980 2917,1980 2916,1979 2913,1979 2912,1978 2909,1978 2908,1977 2900,1977 2899,1978 2879,1978 2878,1979 2866,1979 2865,1978 2862,1978 2861,1977 2848,1977 2847,1978 2846,1978 2845,1977 2837,1977 2836,1976 2830,1976 2829,1977 2820,1977 2819,1976 2815,1976 2814,1975 2810,1975 2809,1974 2808,1974 2807,1975 2785,1975 2784,1976 2777,1976 2776,1977 2773,1977 2772,1976 2769,1976 2768,1975 2762,1975 2761,1974 2760,1975 2753,1975 2752,1976 2749,1976 2748,1975 2732,1975 2731,1976 2720,1976 2719,1975 2706,1975 2705,1976 2687,1976 2686,1977 2675,1977 2674,1976 2671,1976 2670,1975 2654,1975 2653,1976 2627,1976 2626,1975 2624,1975 2623,1974 2611,1974 2610,1975 2603,1975 2602,1974 2592,1974 2591,1975 2586,1975 2585,1976 2582,1976 2581,1975 2575,1975 2574,1974" fill="rgba(235,157,37,0.3)" stroke="rgb(235,157,37)" stroke-width="2" data-block-id="0007" data-name="b-0009" /><text x="3207" y="2135" text-anchor="middle" dominant-baseline="middle" class="block-label" fill="rgb(235,157,37)" stroke="white" stroke-width="3" paint-order="stroke">b-0009</text><polygon points="2611,1502 2610,1503 2590,1503 2589,1504 2579,1504 2578,1503 2567,1503 2566,1504 2561,1504 2560,1505 2557,1505 2556,1506 2555,1506 2554,1507 2553,1507 2552,1508 2551,1508 2550,1509 2550,1510 2549,1511 2549,1512 2548,1513 2548,1514 2547,1515 2547,1517 2546,1518 2546,1525 2547,1526 2547,1539 2548,1540 2548,1543 2547,1544 2547,1550 2546,1551 2546,1559 2545,1560 2545,1573 2546,1574 2546,1594 2545,1595 2545,1602 2544,1603 2544,1607 2543,1608 2543,1611 2542,1612 2542,1615 2543,1616 2543,1618 2544,1619 2544,1621 2545,1622 2545,1626 2546,1627 2546,1634 2545,1635 2545,1650 2544,1651 2544,1657 2543,1658 2543,1663 2544,1664 2544,1667 2545,1668 2545,1673 2546,1674 2546,1690 2545,1691 2545,1700 2544,1701 2544,1707 2543,1708 2543,1709 2544,1710 2544,1714 2545,1715 2545,1741 2546,1742 2546,1743 2545,1744 2545,1750 2544,1751 2544,1754 2543,1755 2543,1759 2544,1760 2544,1763 2545,1764 2545,1797 2544,1798 2544,1801 2543,1802 2543,1806 2544,1807 2544,1810 2545,1811 2545,1831 2546,1832 2546,1835 2547,1836 2547,1844 2546,1845 2546,1847 2545,1848 2545,1852 2547,1854 2548,1854 2550,1856 2551,1856 2552,1857 2553,1857 2554,1858 2556,1858 2557,1859 2559,1859 2560,1860 2598,1860 2599,1861 2622,1861 2623,1862 2668,1862 2669,1861 2714,1861 2715,1860 2730,1860 2731,1861 2766,1861 2767,1860 2771,1860 2772,1859 2793,1859 2794,1858 2800,1858 2801,1859 2805,1859 2806,1860 2816,1860 2817,1859 2839,1859 2840,1860 2863,1860 2864,1859 2874,1859 2875,1860 2944,1860 2945,1861 2948,1861 2949,1862 2953,1862 2954,1863 2955,1862 2961,1862 2962,1861 2986,1861 2987,1862 2993,1862 2994,1861 3080,1861 3081,1862 3086,1862 3087,1861 3120,1861 3121,1862 3134,1862 3135,1863 3148,1863 3149,1862 3166,1862 3167,1861 3171,1861 3172,1860 3173,1860 3174,1859 3175,1859 3176,1858 3177,1858 3178,1857 3179,1857 3180,1856 3185,1856 3186,1857 3190,1857 3191,1858 3192,1858 3193,1859 3194,1859 3195,1860 3197,1860 3198,1861 3201,1861 3202,1862 3215,1862 3216,1863 3287,1863 3288,1862 3306,1862 3307,1861 3312,1861 3313,1862 3337,1862 3338,1861 3362,1861 3363,1860 3367,1860 3368,1859 3377,1859 3378,1860 3385,1860 3386,1859 3400,1859 3401,1860 3413,1860 3414,1861 3419,1861 3420,1862 3423,1862 3424,1863 3437,1863 3438,1862 3452,1862 3453,1863 3471,1863 3472,1864 3480,1864 3481,1863 3556,1863 3557,1864 3570,1864 3571,1863 3576,1863 3577,1864 3651,1864 3652,1865 3736,1865 3737,1864 3738,1864 3739,1865 3763,1865 3764,1864 3791,1864 3792,1865 3805,1865 3806,1864 3819,1864 3820,1865 3824,1865 3825,1864 3897,1864 3898,1863 3911,1863 3912,1864 3947,1864 3948,1863 3956,1863 3957,1864 3975,1864 3976,1863 3981,1863 3982,1862 3984,1862 3985,1861 3986,1861 3988,1859 3988,1858 3989,1857 3989,1855 3990,1854 3990,1792 3989,1791 3989,1783 3988,1782 3988,1779 3987,1778 3987,1773 3986,1772 3986,1763 3987,1762 3987,1743 3986,1742 3986,1730 3985,1729 3985,1717 3986,1716 3986,1683 3985,1682 3985,1671 3986,1670 3986,1665 3987,1664 3987,1629 3986,1628 3986,1615 3987,1614 3987,1606 3988,1605 3988,1602 3989,1601 3989,1596 3990,1595 3990,1559 3989,1558 3989,1541 3988,1540 3988,1517 3985,1514 3983,1514 3982,1513 3979,1513 3978,1512 3969,1512 3968,1511 3962,1511 3961,1512 3948,1512 3947,1511 3934,1511 3933,1512 3926,1512 3925,1511 3912,1511 3911,1512 3902,1512 3901,1511 3885,1511 3884,1512 3878,1512 3877,1511 3861,1511 3860,1512 3857,1512 3856,1511 3849,1511 3848,1510 3844,1510 3843,1511 3825,1511 3824,1510 3819,1510 3818,1511 3806,1511 3805,1510 3793,1510 3792,1511 3778,1511 3777,1510 3770,1510 3769,1511 3761,1511 3760,1510 3754,1510 3753,1509 3749,1509 3748,1510 3744,1510 3743,1511 3733,1511 3732,1510 3726,1510 3725,1509 3724,1510 3713,1510 3712,1509 3708,1509 3707,1508 3699,1508 3698,1509 3686,1509 3685,1508 3673,1508 3672,1509 3664,1509 3663,1508 3658,1508 3657,1507 3655,1507 3654,1508 3650,1508 3649,1509 3646,1509 3645,1510 3642,1510 3641,1509 3637,1509 3636,1508 3613,1508 3612,1507 3606,1507 3605,1508 3600,1508 3599,1509 3592,1509 3591,1508 3585,1508 3584,1507 3565,1507 3564,1506 3558,1506 3557,1507 3551,1507 3550,1508 3546,1508 3545,1507 3530,1507 3529,1506 3507,1506 3506,1507 3477,1507 3476,1506 3475,1506 3474,1507 3459,1507 3458,1506 3439,1506 3438,1507 3435,1507 3434,1508 3432,1508 3431,1509 3430,1509 3429,1510 3423,1510 3422,1511 3396,1511 3395,1510 3391,1510 3390,1509 3386,1509 3385,1508 3370,1508 3369,1507 3360,1507 3359,1506 3348,1506 3347,1505 3336,1505 3335,1506 3300,1506 3299,1505 3246,1505 3245,1504 3210,1504 3209,1505 3187,1505 3186,1506 3182,1506 3181,1507 3177,1507 3176,1506 3172,1506 3171,1505 3132,1505 3131,1506 3122,1506 3121,1505 3120,1506 3106,1506 3105,1505 3067,1505 3066,1506 3057,1506 3056,1505 3040,1505 3039,1506 3033,1506 3032,1505 2995,1505 2994,1506 2991,1506 2990,1507 2982,1507 2981,1506 2958,1506 2957,1505 2939,1505 2938,1506 2932,1506 2931,1507 2923,1507 2922,1508 2916,1508 2915,1507 2910,1507 2909,1506 2898,1506 2897,1507 2866,1507 2865,1506 2850,1506 2849,1507 2820,1507 2819,1506 2816,1506 2815,1505 2801,1505 2800,1506 2796,1506 2795,1505 2779,1505 2778,1506 2772,1506 2771,1505 2766,1505 2765,1504 2759,1504 2758,1505 2743,1505 2742,1504 2736,1504 2735,1505 2731,1505 2730,1506 2725,1506 2724,1505 2722,1505 2721,1504 2719,1504 2718,1503 2707,1503 2706,1504 2683,1504 2682,1505 2677,1505 2676,1504 2671,1504 2670,1503 2662,1503 2661,1504 2651,1504 2650,1503 2627,1503 2626,1502" fill="rgba(129,191,187,0.3)" stroke="rgb(129,191,187)" stroke-width="2" data-block-id="0008" data-name="b-0010" /><text x="3207" y="1653" text-anchor="middle" dominant-baseline="middle" class="block-label" fill="rgb(129,191,187)" stroke="white" stroke-width="3" paint-order="stroke">b-0010</text><polygon points="2595,1025 2594,1026 2570,1026 2569,1027 2565,1027 2564,1028 2561,1028 2560,1029 2559,1029 2556,1032 2556,1033 2555,1034 2555,1035 2554,1036 2554,1038 2553,1039 2553,1040 2552,1041 2552,1047 2551,1048 2551,1058 2550,1059 2550,1069 2549,1070 2549,1093 2550,1094 2550,1101 2551,1102 2551,1114 2550,1115 2550,1120 2549,1121 2549,1131 2550,1132 2550,1166 2549,1167 2549,1187 2548,1188 2548,1214 2547,1215 2547,1220 2546,1221 2546,1223 2547,1224 2547,1234 2548,1235 2548,1243 2549,1244 2549,1256 2548,1257 2548,1261 2547,1262 2547,1266 2546,1267 2546,1274 2547,1275 2547,1288 2546,1289 2546,1294 2547,1295 2547,1308 2546,1309 2546,1335 2547,1336 2547,1346 2548,1347 2548,1361 2547,1362 2547,1366 2548,1367 2548,1375 2549,1376 2549,1378 2555,1384 2556,1384 2557,1385 2558,1385 2559,1386 2601,1386 2602,1387 2646,1387 2647,1386 2650,1386 2651,1385 2658,1385 2659,1386 2661,1386 2662,1387 2663,1387 2664,1388 2668,1388 2669,1389 2673,1389 2674,1388 2689,1388 2690,1387 2691,1388 2702,1388 2703,1389 2705,1389 2706,1388 2716,1388 2717,1389 2719,1389 2720,1390 2722,1390 2723,1391 2724,1391 2725,1392 2727,1392 2728,1393 2742,1393 2743,1392 2753,1392 2754,1391 2760,1391 2761,1390 2766,1390 2767,1389 2773,1389 2774,1388 2776,1388 2777,1389 2782,1389 2783,1390 2786,1390 2787,1391 2792,1391 2793,1392 2800,1392 2801,1391 2804,1391 2805,1390 2808,1390 2809,1389 2813,1389 2814,1390 2862,1390 2863,1389 2891,1389 2892,1390 2909,1390 2910,1389 2932,1389 2933,1390 2940,1390 2941,1391 2944,1391 2945,1390 2957,1390 2958,1389 2969,1389 2970,1390 2981,1390 2982,1391 3022,1391 3023,1390 3024,1391 3076,1391 3077,1392 3177,1392 3178,1393 3179,1392 3183,1392 3184,1391 3186,1391 3187,1390 3188,1390 3189,1389 3196,1389 3197,1390 3217,1390 3218,1389 3259,1389 3260,1388 3269,1388 3270,1387 3319,1387 3320,1388 3325,1388 3326,1387 3338,1387 3339,1388 3378,1388 3379,1387 3380,1387 3381,1388 3403,1388 3404,1387 3409,1387 3410,1388 3431,1388 3432,1389 3437,1389 3438,1390 3469,1390 3470,1389 3483,1389 3484,1390 3551,1390 3552,1391 3564,1391 3565,1390 3570,1390 3571,1389 3574,1389 3575,1390 3602,1390 3603,1391 3616,1391 3617,1390 3622,1390 3623,1391 3672,1391 3673,1392 3678,1392 3679,1393 3681,1393 3682,1392 3690,1392 3691,1391 3772,1391 3773,1392 3780,1392 3781,1391 3822,1391 3823,1392 3824,1392 3825,1391 3896,1391 3897,1390 3935,1390 3936,1389 3944,1389 3945,1388 3947,1388 3948,1387 3949,1387 3950,1386 3951,1386 3951,1380 3952,1379 3952,1374 3951,1373 3951,1365 3950,1364 3950,1362 3949,1361 3949,1360 3948,1359 3948,1357 3947,1356 3947,1353 3946,1352 3946,1350 3945,1349 3945,1347 3944,1346 3944,1345 3943,1344 3943,1342 3942,1341 3942,1340 3941,1339 3941,1334 3940,1333 3940,1328 3939,1327 3939,1324 3938,1323 3938,1319 3937,1318 3937,1312 3936,1311 3936,1305 3935,1304 3935,1296 3934,1295 3934,1290 3933,1289 3933,1287 3932,1286 3932,1285 3931,1284 3931,1283 3929,1281 3929,1280 3928,1279 3928,1278 3927,1277 3927,1275 3926,1274 3926,1272 3925,1271 3925,1269 3924,1268 3924,1265 3923,1264 3923,1258 3922,1257 3922,1252 3921,1251 3921,1247 3920,1246 3920,1244 3919,1243 3919,1241 3917,1239 3917,1238 3916,1237 3916,1236 3915,1235 3915,1234 3914,1233 3914,1231 3913,1230 3913,1227 3912,1226 3912,1221 3911,1220 3911,1214 3910,1213 3910,1208 3909,1207 3909,1202 3908,1201 3908,1197 3907,1196 3907,1194 3906,1193 3906,1192 3904,1190 3904,1189 3901,1186 3901,1185 3900,1184 3900,1182 3899,1181 3899,1176 3898,1175 3898,1171 3897,1170 3897,1168 3896,1167 3896,1165 3895,1164 3895,1162 3894,1161 3894,1159 3893,1158 3893,1156 3892,1155 3892,1153 3891,1152 3891,1151 3890,1150 3890,1137 3889,1136 3889,1134 3888,1133 3888,1130 3887,1129 3887,1125 3886,1124 3886,1120 3885,1119 3885,1115 3884,1114 3884,1105 3883,1104 3883,1099 3882,1098 3882,1097 3881,1096 3881,1094 3880,1093 3880,1092 3879,1091 3879,1090 3878,1089 3878,1088 3877,1087 3877,1086 3876,1085 3876,1082 3875,1081 3875,1078 3874,1077 3874,1064 3873,1063 3873,1061 3872,1060 3872,1059 3871,1058 3871,1056 3869,1054 3869,1053 3867,1051 3867,1050 3865,1048 3865,1047 3864,1046 3864,1045 3863,1044 3863,1043 3859,1039 3847,1039 3846,1038 3841,1038 3840,1037 3832,1037 3831,1036 3819,1036 3818,1037 3816,1037 3815,1038 3808,1038 3807,1037 3806,1037 3805,1036 3803,1036 3802,1035 3801,1035 3800,1034 3795,1034 3794,1035 3790,1035 3789,1036 3768,1036 3767,1037 3757,1037 3756,1036 3744,1036 3743,1037 3732,1037 3731,1036 3724,1036 3723,1037 3706,1037 3705,1036 3686,1036 3685,1035 3676,1035 3675,1036 3671,1036 3670,1037 3660,1037 3659,1036 3654,1036 3653,1037 3648,1037 3647,1038 3515,1038 3514,1037 3500,1037 3499,1036 3492,1036 3491,1035 3487,1035 3486,1036 3483,1036 3482,1037 3449,1037 3448,1036 3436,1036 3435,1037 3419,1037 3418,1036 3396,1036 3395,1035 3394,1036 3388,1036 3387,1037 3381,1037 3380,1038 3379,1037 3365,1037 3364,1036 3354,1036 3353,1035 3339,1035 3338,1036 3327,1036 3326,1037 3312,1037 3311,1036 3305,1036 3304,1035 3294,1035 3293,1034 3279,1034 3278,1033 3259,1033 3258,1032 3250,1032 3249,1031 3228,1031 3227,1032 3222,1032 3221,1033 3184,1033 3183,1032 3178,1032 3177,1033 3171,1033 3170,1034 3162,1034 3161,1033 3155,1033 3154,1032 3147,1032 3146,1031 3128,1031 3127,1032 3120,1032 3119,1033 3118,1033 3117,1032 3102,1032 3101,1033 3084,1033 3083,1034 3056,1034 3055,1033 3044,1033 3043,1032 3032,1032 3031,1033 3016,1033 3015,1032 2992,1032 2991,1031 2989,1031 2988,1032 2981,1032 2980,1033 2970,1033 2969,1032 2957,1032 2956,1031 2934,1031 2933,1032 2909,1032 2908,1031 2901,1031 2900,1030 2860,1030 2859,1029 2853,1029 2852,1030 2836,1030 2835,1031 2829,1031 2828,1030 2788,1030 2787,1031 2784,1031 2783,1030 2769,1030 2768,1029 2754,1029 2753,1030 2748,1030 2747,1029 2723,1029 2722,1028 2718,1028 2717,1027 2701,1027 2700,1026 2691,1026 2690,1025 2689,1025 2688,1026 2674,1026 2673,1025 2659,1025 2658,1026 2651,1026 2650,1025 2637,1025 2636,1026 2628,1026 2627,1025" fill="rgba(20,160,203,0.3)" stroke="rgb(20,160,203)" stroke-width="2" data-block-id="0009" data-name="b-0011" /><text x="3319" y="1202" text-anchor="middle" dominant-baseline="middle" class="block-label" fill="rgb(20,160,203)" stroke="white" stroke-width="3" paint-order="stroke">b-0011</text><polygon points="2808,547 2807,548 2802,548 2801,549 2783,549 2782,550 2779,550 2778,551 2771,551 2770,550 2768,550 2767,549 2765,549 2764,548 2759,548 2758,549 2751,549 2750,550 2747,550 2746,551 2744,551 2743,552 2742,552 2741,553 2740,553 2739,554 2736,554 2735,555 2732,555 2731,556 2730,556 2728,558 2727,558 2726,557 2725,557 2723,555 2722,555 2721,554 2719,554 2718,553 2701,553 2700,552 2698,552 2697,551 2695,551 2694,550 2675,550 2674,551 2665,551 2664,550 2649,550 2648,549 2642,549 2641,550 2635,550 2634,551 2611,551 2610,552 2607,552 2606,551 2591,551 2590,552 2583,552 2582,553 2579,553 2578,554 2575,554 2574,555 2567,555 2566,556 2560,556 2557,559 2557,560 2555,562 2555,564 2554,565 2554,568 2553,569 2553,576 2552,577 2552,592 2551,593 2551,596 2550,597 2550,615 2551,616 2551,626 2552,627 2552,635 2551,636 2551,664 2552,665 2552,670 2553,671 2553,689 2552,690 2552,697 2551,698 2552,699 2552,714 2553,715 2553,724 2552,725 2552,729 2551,730 2551,733 2550,734 2550,737 2549,738 2549,741 2548,742 2548,761 2549,762 2549,777 2550,778 2550,779 2549,780 2549,786 2548,787 2548,817 2549,818 2549,830 2548,831 2548,837 2547,838 2547,844 2548,845 2548,855 2549,856 2549,860 2550,861 2550,898 2551,899 2551,902 2552,903 2552,905 2553,906 2553,907 2554,908 2554,909 2559,914 2597,914 2598,915 2675,915 2676,914 2691,914 2692,915 2719,915 2720,916 2735,916 2736,917 2764,917 2765,916 2769,916 2770,915 2781,915 2782,916 2810,916 2811,915 2832,915 2833,916 2861,916 2862,915 2867,915 2868,914 2871,914 2872,915 2879,915 2880,916 2890,916 2891,917 2905,917 2906,916 2912,916 2913,915 2929,915 2930,916 2954,916 2955,917 2971,917 2972,918 3015,918 3016,919 3023,919 3024,920 3034,920 3035,921 3038,921 3039,920 3046,920 3047,919 3054,919 3055,918 3063,918 3064,919 3099,919 3100,918 3111,918 3112,919 3142,919 3143,920 3145,920 3146,919 3161,919 3162,920 3191,920 3192,921 3200,921 3201,920 3202,921 3209,921 3210,922 3218,922 3219,921 3222,921 3223,920 3231,920 3232,921 3235,921 3236,922 3262,922 3263,923 3276,923 3277,924 3283,924 3284,925 3314,925 3315,924 3317,924 3318,923 3327,923 3328,924 3331,924 3332,925 3340,925 3341,924 3349,924 3350,925 3364,925 3365,924 3377,924 3378,925 3395,925 3396,924 3407,924 3408,923 3414,923 3415,922 3421,922 3422,921 3427,921 3428,920 3429,921 3432,921 3433,922 3436,922 3437,923 3441,923 3442,924 3454,924 3455,923 3470,923 3471,922 3484,922 3485,923 3544,923 3545,922 3551,922 3552,923 3569,923 3570,922 3574,922 3575,923 3592,923 3593,922 3598,922 3599,923 3605,923 3606,924 3610,924 3611,923 3616,923 3617,922 3622,922 3623,923 3628,923 3629,924 3634,924 3635,923 3640,923 3641,922 3648,922 3649,923 3659,923 3660,922 3661,922 3662,921 3663,921 3664,920 3665,920 3666,919 3668,919 3670,921 3671,921 3672,922 3673,922 3674,923 3675,923 3676,924 3711,924 3712,923 3718,923 3719,924 3734,924 3735,923 3743,923 3744,924 3804,924 3805,923 3822,923 3823,922 3824,922 3825,921 3826,921 3827,920 3827,919 3831,915 3831,914 3832,913 3832,912 3833,911 3833,909 3832,908 3832,907 3831,906 3831,905 3830,904 3830,902 3829,901 3829,900 3828,899 3828,896 3827,895 3827,891 3826,890 3826,886 3825,885 3825,876 3824,875 3824,871 3823,870 3823,868 3822,867 3822,864 3821,863 3821,862 3820,861 3820,859 3819,858 3819,855 3818,854 3818,850 3817,849 3817,842 3816,841 3816,835 3815,834 3815,830 3814,829 3814,823 3813,822 3813,816 3812,815 3812,813 3811,812 3811,811 3808,808 3808,807 3806,805 3806,804 3805,803 3805,800 3804,799 3804,793 3803,792 3803,786 3802,785 3802,778 3801,777 3801,771 3800,770 3800,767 3799,766 3799,764 3798,763 3798,760 3797,759 3797,757 3796,756 3796,753 3795,752 3795,748 3794,747 3794,742 3793,741 3793,732 3792,731 3792,728 3791,727 3791,724 3790,723 3790,720 3789,719 3789,718 3788,717 3788,716 3787,715 3787,714 3786,713 3786,712 3785,711 3785,710 3784,709 3784,707 3783,706 3783,702 3782,701 3782,696 3781,695 3781,684 3780,683 3780,678 3779,677 3779,673 3778,672 3778,670 3777,669 3777,667 3776,666 3776,663 3775,662 3775,660 3774,659 3774,656 3773,655 3773,653 3772,652 3772,648 3771,647 3771,643 3770,642 3770,639 3769,638 3769,632 3768,631 3768,624 3767,623 3767,620 3766,619 3766,617 3765,616 3765,613 3764,612 3764,609 3763,608 3763,605 3762,604 3762,602 3761,601 3761,600 3760,599 3760,598 3759,597 3759,596 3758,595 3758,593 3757,592 3757,589 3756,588 3756,584 3755,583 3755,579 3754,578 3754,575 3753,574 3753,569 3752,568 3752,565 3751,564 3751,563 3748,560 3747,560 3746,559 3743,559 3742,558 3737,558 3736,557 3732,557 3731,556 3723,556 3722,557 3718,557 3717,558 3706,558 3705,557 3704,558 3685,558 3684,557 3676,557 3675,558 3672,558 3671,559 3649,559 3648,560 3643,560 3642,559 3638,559 3637,558 3632,558 3631,557 3630,557 3629,558 3605,558 3604,559 3589,559 3588,558 3580,558 3579,559 3538,559 3537,558 3524,558 3523,557 3516,557 3515,556 3506,556 3505,557 3499,557 3498,556 3491,556 3490,555 3473,555 3472,554 3466,554 3465,553 3462,553 3461,554 3452,554 3451,555 3449,555 3448,556 3446,556 3445,557 3442,557 3441,558 3415,558 3414,559 3409,559 3408,560 3402,560 3401,559 3386,559 3385,558 3346,558 3345,557 3340,557 3339,556 3325,556 3324,555 3323,556 3317,556 3316,557 3302,557 3301,556 3268,556 3267,557 3261,557 3260,556 3253,556 3252,555 3220,555 3219,556 3212,556 3211,555 3205,555 3204,554 3201,554 3200,555 3175,555 3174,556 3066,556 3065,555 3046,555 3045,554 3041,554 3040,553 3032,553 3031,554 3027,554 3026,555 3019,555 3018,554 3007,554 3006,555 2996,555 2995,554 2981,554 2980,555 2974,555 2973,554 2936,554 2935,553 2930,553 2929,554 2921,554 2920,555 2916,555 2915,554 2912,554 2911,553 2908,553 2907,552 2888,552 2887,551 2878,551 2877,552 2868,552 2867,551 2865,551 2864,550 2862,550 2861,549 2858,549 2857,548 2856,548 2855,549 2849,549 2848,550 2844,550 2843,549 2840,549 2839,548 2836,548 2835,547 2831,547 2830,548 2827,548 2826,549 2817,549 2816,548 2813,548 2812,547" fill="rgba(57,21,252,0.3)" stroke="rgb(57,21,252)" stroke-width="2" data-block-id="0010" data-name="b-0012" /><text x="3270" y="724" text-anchor="middle" dominant-baseline="middle" class="block-label" fill="rgb(57,21,252)" stroke="white" stroke-width="3" paint-order="stroke">b-0012</text></g>
</svg>