<?xml version='1.0' encoding='utf-8'?>
<svg xmlns="http://www.w3.org/2000/svg" xmlns:atlas="http://example.com/atlas" width="4980" height="3313" viewBox="0 0 4980 3313">
  
  <metadata>
    <atlas:source>
      <atlas:jp2-path>../media/v1/p31.jp2</atlas:jp2-path>
      <atlas:volume>vol1</atlas:volume>
      <atlas:plate-id>p31</atlas:plate-id>
      <atlas:image-width>4980</atlas:image-width>
      <atlas:image-height>3313</atlas:image-height>
    <atlas:angle>24.879295612038945</atlas:angle><atlas:scale>1.2751873571634122</atlas:scale><atlas:pos-x>2248.2626607244633</atlas:pos-x><atlas:pos-y>674.9332708195774</atlas:pos-y></atlas:source>
  </metadata>

  
  <image id="background" href="file://../media/v1/p31.jp2" width="4980" height="3313" opacity="0.5" />

  <style>
    .block-label { font-family: sans-serif; font-size: 14px; font-weight: bold; }
  </style>

  
  <g id="blocks">
    <polygon points="1573,777 1572,778 1553,778 1552,779 1547,779 1546,780 1541,780 1540,781 1519,781 1518,782 1512,782 1511,783 1503,783 1502,784 1494,784 1493,785 1484,785 1483,786 1457,786 1456,787 1451,787 1450,788 1441,788 1440,787 1439,787 1438,788 1430,788 1429,789 1420,789 1419,788 1408,788 1407,787 1398,787 1397,786 1382,786 1381,787 1376,787 1375,788 1371,788 1370,789 1354,789 1353,790 1348,790 1347,791 1340,791 1339,792 1333,792 1332,793 1318,793 1317,794 1314,794 1313,795 1310,795 1309,796 1269,796 1268,797 1264,797 1263,798 1255,798 1254,799 1239,799 1238,800 1225,800 1224,801 1214,801 1213,802 1205,802 1204,801 1183,801 1182,802 1176,802 1175,803 1156,803 1155,804 1141,804 1140,803 1129,803 1128,804 1126,804 1125,805 1123,805 1122,806 1119,806 1118,807 1109,807 1108,808 1088,808 1087,809 1083,809 1082,810 1029,810 1028,809 1016,809 1015,808 996,808 995,809 994,809 992,811 991,811 990,812 989,812 988,813 987,813 986,814 960,814 959,815 952,815 951,816 941,816 940,817 899,817 898,818 897,818 896,819 894,819 893,820 890,820 889,821 874,821 873,822 866,822 865,823 857,823 856,824 847,824 846,825 832,825 831,824 823,824 822,825 813,825 812,826 807,826 806,827 792,827 791,828 773,828 772,829 765,829 764,830 761,830 760,831 755,831 754,832 752,832 751,833 750,833 749,834 748,834 748,835 745,838 745,839 743,841 743,848 744,849 744,878 745,879 745,883 746,884 746,891 745,892 745,894 744,895 744,896 741,899 741,900 740,901 740,904 741,905 741,908 742,909 742,922 741,923 741,928 742,929 742,944 743,945 743,963 744,964 744,982 745,983 745,1015 744,1016 744,1019 743,1020 743,1022 742,1023 742,1025 741,1026 741,1028 740,1029 740,1030 741,1031 741,1032 745,1036 746,1036 750,1040 750,1041 751,1042 751,1046 752,1047 752,1057 753,1058 753,1059 754,1060 754,1061 756,1063 758,1063 759,1064 765,1064 766,1065 767,1065 768,1066 767,1067 767,1068 759,1076 759,1077 758,1078 757,1078 756,1079 755,1079 754,1080 753,1080 751,1082 750,1082 747,1085 747,1086 746,1087 746,1088 745,1089 745,1092 744,1093 744,1094 743,1095 743,1098 742,1099 742,1111 743,1112 743,1119 742,1120 742,1130 743,1131 743,1134 744,1135 744,1158 745,1159 745,1166 744,1167 744,1172 743,1173 743,1176 744,1177 744,1180 745,1181 745,1184 746,1185 746,1204 747,1205 747,1224 748,1225 748,1227 749,1228 749,1231 750,1232 750,1235 749,1236 749,1238 748,1239 748,1242 747,1243 747,1250 748,1251 748,1254 749,1255 749,1262 748,1263 748,1277 749,1278 749,1285 750,1286 750,1290 751,1291 751,1306 752,1307 752,1308 755,1311 756,1311 757,1312 758,1312 759,1313 760,1313 761,1314 762,1314 763,1315 764,1315 767,1318 769,1318 770,1319 779,1319 780,1318 797,1318 798,1317 811,1317 812,1318 819,1318 820,1319 830,1319 831,1318 837,1318 838,1317 851,1317 852,1316 856,1316 857,1315 858,1315 859,1314 860,1314 861,1313 862,1313 863,1312 864,1312 865,1311 874,1311 875,1312 879,1312 880,1311 906,1311 907,1310 927,1310 928,1309 930,1309 931,1308 932,1308 933,1307 934,1307 935,1306 942,1306 943,1307 948,1307 949,1308 953,1308 954,1307 959,1307 960,1308 963,1308 964,1309 966,1309 967,1310 979,1310 980,1309 989,1309 990,1310 993,1310 994,1311 997,1311 998,1310 1000,1310 1001,1309 1003,1309 1004,1308 1006,1308 1007,1307 1012,1307 1013,1306 1023,1306 1024,1305 1037,1305 1038,1306 1050,1306 1051,1305 1060,1305 1061,1306 1076,1306 1077,1305 1081,1305 1082,1306 1086,1306 1087,1307 1092,1307 1093,1308 1098,1308 1099,1309 1116,1309 1117,1308 1128,1308 1129,1309 1136,1309 1137,1310 1140,1310 1141,1309 1146,1309 1147,1308 1151,1308 1152,1307 1153,1307 1154,1308 1160,1308 1161,1309 1165,1309 1166,1308 1180,1308 1181,1309 1191,1309 1192,1308 1195,1308 1196,1307 1205,1307 1206,1308 1215,1308 1216,1307 1220,1307 1221,1306 1225,1306 1226,1307 1232,1307 1233,1308 1239,1308 1240,1309 1246,1309 1247,1310 1276,1310 1277,1311 1287,1311 1288,1310 1292,1310 1293,1309 1304,1309 1305,1310 1306,1309 1316,1309 1317,1308 1320,1308 1321,1309 1335,1309 1336,1308 1339,1308 1340,1307 1345,1307 1346,1308 1358,1308 1359,1307 1361,1307 1362,1306 1364,1306 1365,1305 1379,1305 1380,1306 1383,1306 1384,1307 1386,1307 1387,1308 1394,1308 1395,1307 1398,1307 1399,1306 1407,1306 1408,1305 1415,1305 1416,1306 1420,1306 1421,1307 1428,1307 1429,1306 1431,1306 1432,1305 1434,1305 1435,1304 1442,1304 1443,1305 1445,1305 1446,1306 1455,1306 1456,1305 1465,1305 1466,1306 1470,1306 1471,1307 1474,1307 1475,1306 1477,1306 1478,1305 1479,1305 1480,1304 1482,1304 1483,1303 1489,1303 1490,1304 1492,1304 1493,1305 1495,1305 1496,1306 1509,1306 1510,1307 1514,1307 1515,1308 1526,1308 1527,1307 1529,1307 1530,1306 1537,1306 1538,1307 1540,1307 1541,1308 1550,1308 1551,1307 1562,1307 1563,1308 1571,1308 1572,1307 1574,1307 1575,1306 1576,1306 1577,1305 1578,1305 1579,1304 1584,1304 1585,1305 1586,1305 1587,1306 1589,1306 1590,1307 1596,1307 1597,1306 1601,1306 1602,1305 1607,1305 1608,1306 1611,1306 1612,1307 1616,1307 1617,1306 1618,1306 1620,1304 1620,1303 1622,1301 1622,1300 1623,1299 1623,1298 1624,1297 1624,1294 1625,1293 1625,1290 1624,1289 1624,1279 1625,1278 1625,1266 1624,1265 1624,1261 1623,1260 1623,1247 1622,1246 1622,1237 1621,1236 1621,1228 1622,1227 1622,1221 1621,1220 1621,1202 1620,1201 1620,1192 1619,1191 1619,1183 1618,1182 1618,1171 1617,1170 1617,1156 1616,1155 1616,1147 1615,1146 1615,1141 1614,1140 1614,1120 1613,1119 1613,1111 1614,1110 1614,1101 1613,1100 1613,1098 1612,1097 1612,1095 1611,1094 1611,1091 1610,1090 1610,1085 1611,1084 1611,1061 1612,1060 1612,1057 1611,1056 1611,1053 1610,1052 1610,1050 1609,1049 1609,1046 1608,1045 1608,1037 1607,1036 1607,1028 1606,1027 1606,1022 1605,1021 1605,1013 1604,1012 1604,993 1603,992 1603,986 1602,985 1602,956 1601,955 1601,932 1602,931 1602,907 1603,906 1603,898 1602,897 1602,889 1601,888 1601,866 1600,865 1600,858 1599,857 1599,848 1598,847 1598,839 1597,838 1597,829 1596,828 1596,817 1595,816 1595,810 1594,809 1594,803 1593,802 1593,796 1592,795 1592,789 1591,788 1591,783 1587,779 1586,779 1585,778 1584,778 1583,777" fill="rgba(188,20,102,0.3)" stroke="rgb(188,20,102)" stroke-width="2" data-block-id="0001" data-name="b-0003" /><text x="1165" y="1098" text-anchor="middle" dominant-baseline="middle" class="block-label" fill="rgb(188,20,102)" stroke="white" stroke-width="3" paint-order="stroke">b-0003</text><polygon points="3893,612 3892,613 3881,613 3880,614 3869,614 3868,615 3859,615 3858,616 3846,616 3845,617 3825,617 3824,618 3811,618 3810,619 3790,619 3789,620 3775,620 3774,621 3765,621 3764,622 3752,622 3751,623 3728,623 3727,624 3712,624 3711,623 3705,623 3704,624 3694,624 3693,625 3687,625 3686,626 3680,626 3679,627 3670,627 3669,628 3660,628 3659,629 3650,629 3649,630 3642,630 3641,631 3633,631 3632,632 3626,632 3625,633 3607,633 3606,634 3601,634 3600,635 3593,635 3592,636 3576,636 3575,637 3569,637 3568,638 3558,638 3557,639 3552,639 3550,641 3549,641 3546,644 3546,645 3545,646 3545,647 3544,648 3544,710 3545,711 3545,715 3546,716 3546,718 3548,720 3548,723 3547,724 3547,725 3546,726 3546,728 3545,729 3545,754 3546,755 3545,756 3545,758 3544,759 3544,762 3543,763 3543,822 3542,823 3542,837 3541,838 3541,843 3542,844 3542,853 3543,854 3543,855 3542,856 3542,865 3543,866 3543,871 3544,872 3544,954 3543,955 3543,964 3544,965 3544,976 3543,977 3543,980 3542,981 3542,989 3543,990 3543,1003 3542,1004 3542,1012 3543,1013 3543,1026 3542,1027 3542,1034 3543,1035 3543,1049 3542,1050 3542,1065 3543,1066 3543,1070 3542,1071 3542,1085 3543,1086 3543,1095 3542,1096 3542,1106 3543,1107 3543,1111 3544,1112 3544,1114 3545,1115 3545,1120 3544,1121 3544,1131 3545,1132 3545,1166 3544,1167 3544,1184 3545,1185 3545,1188 3544,1189 3544,1196 3543,1197 3543,1200 3544,1201 3544,1217 3543,1218 3543,1226 3544,1227 3544,1231 3545,1232 3545,1236 3544,1237 3544,1240 3543,1241 3543,1256 3544,1257 3544,1260 3543,1261 3543,1276 3544,1277 3544,1291 3543,1292 3543,1302 3544,1303 3544,1308 3545,1309 3545,1310 3548,1313 3549,1313 3550,1314 3551,1314 3552,1315 3571,1315 3572,1316 3593,1316 3594,1317 3670,1317 3671,1316 3681,1316 3682,1317 3683,1317 3684,1316 3700,1316 3701,1315 3716,1315 3717,1314 3729,1314 3730,1315 3742,1315 3743,1316 3793,1316 3794,1315 3819,1315 3820,1316 3893,1316 3894,1315 3896,1315 3897,1314 3898,1314 3899,1313 3900,1313 3906,1307 3906,1305 3907,1304 3907,1297 3908,1296 3908,1293 3907,1292 3907,1289 3906,1288 3906,1286 3905,1285 3905,1261 3904,1260 3904,1256 3905,1255 3905,1247 3906,1246 3906,1240 3907,1239 3907,1223 3908,1222 3908,1221 3910,1219 3910,1218 3911,1217 3911,1216 3912,1215 3912,1213 3913,1212 3913,1209 3914,1208 3914,1203 3915,1202 3915,1164 3916,1163 3916,1145 3915,1144 3915,1133 3916,1132 3916,1125 3915,1124 3915,1108 3916,1107 3916,1098 3915,1097 3915,1049 3914,1048 3914,1041 3913,1040 3913,1027 3912,1026 3912,990 3913,989 3913,978 3912,977 3912,970 3913,969 3913,968 3914,967 3914,964 3915,963 3915,925 3916,924 3916,896 3917,895 3917,886 3916,885 3916,867 3917,866 3917,864 3916,863 3916,847 3915,846 3915,834 3916,833 3916,735 3917,734 3917,719 3916,718 3916,700 3917,699 3917,687 3918,686 3918,672 3917,671 3917,622 3916,621 3916,618 3915,617 3915,616 3912,613 3911,613 3910,612" fill="rgba(116,99,103,0.3)" stroke="rgb(116,99,103)" stroke-width="2" data-block-id="0002" data-name="b-0006" /><text x="3712" y="968" text-anchor="middle" dominant-baseline="middle" class="block-label" fill="rgb(116,99,103)" stroke="white" stroke-width="3" paint-order="stroke">b-0006</text><polygon points="3377,652 3376,653 3360,653 3359,654 3356,654 3355,655 3353,655 3352,656 3348,656 3347,655 3342,655 3341,654 3336,654 3335,655 3330,655 3329,656 3310,656 3309,657 3289,657 3288,658 3283,658 3282,659 3274,659 3273,660 3251,660 3250,659 3228,659 3227,660 3223,660 3222,661 3215,661 3214,662 3204,662 3203,663 3177,663 3176,664 3171,664 3170,665 3167,665 3166,666 3164,666 3163,667 3161,667 3160,668 3153,668 3152,669 3145,669 3144,668 3120,668 3119,669 3090,669 3089,670 3088,670 3080,678 3080,679 3079,680 3079,681 3078,682 3078,683 3077,684 3077,776 3076,777 3076,791 3075,792 3075,840 3074,841 3074,857 3075,858 3075,896 3074,897 3074,957 3075,958 3075,963 3074,964 3074,1011 3073,1012 3073,1028 3074,1029 3074,1038 3073,1039 3073,1045 3074,1046 3074,1124 3075,1125 3075,1132 3074,1133 3074,1147 3073,1148 3073,1156 3074,1157 3074,1170 3075,1171 3075,1223 3074,1224 3074,1249 3073,1250 3073,1266 3074,1267 3074,1273 3073,1274 3073,1290 3074,1291 3074,1308 3075,1309 3075,1311 3076,1312 3076,1313 3079,1316 3080,1316 3081,1317 3083,1317 3084,1318 3087,1318 3088,1319 3097,1319 3098,1320 3102,1320 3103,1319 3118,1319 3119,1318 3131,1318 3132,1319 3139,1319 3140,1318 3151,1318 3152,1319 3163,1319 3164,1320 3171,1320 3172,1321 3173,1321 3174,1320 3280,1320 3281,1319 3322,1319 3323,1318 3329,1318 3330,1317 3335,1317 3336,1316 3348,1316 3349,1315 3354,1315 3355,1316 3367,1316 3368,1315 3392,1315 3393,1314 3433,1314 3434,1313 3436,1313 3437,1312 3438,1312 3443,1307 3443,1305 3444,1304 3444,1301 3445,1300 3445,1295 3446,1294 3446,1293 3445,1292 3445,1284 3444,1283 3444,1273 3445,1272 3445,1269 3444,1268 3444,1245 3445,1244 3445,1237 3446,1236 3446,1217 3445,1216 3445,1187 3444,1186 3444,1185 3445,1184 3445,1099 3444,1098 3444,1092 3443,1091 3443,1079 3444,1078 3444,1072 3445,1071 3445,1067 3446,1066 3446,1047 3445,1046 3445,1037 3446,1036 3446,1024 3445,1023 3445,1018 3446,1017 3446,982 3447,981 3447,958 3446,957 3446,947 3445,946 3446,945 3446,895 3445,894 3445,882 3446,881 3446,866 3447,865 3447,856 3448,855 3448,846 3447,845 3447,835 3448,834 3448,826 3447,825 3447,801 3446,800 3446,790 3447,789 3447,718 3448,717 3448,693 3449,692 3449,685 3450,684 3450,667 3451,666 3451,662 3450,661 3450,660 3449,660 3446,657 3445,657 3444,656 3440,656 3439,655 3436,655 3435,654 3430,654 3429,655 3416,655 3415,656 3406,656 3405,657 3399,657 3398,656 3397,656 3395,654 3394,654 3393,653 3390,653 3389,652" fill="rgba(151,130,149,0.3)" stroke="rgb(151,130,149)" stroke-width="2" data-block-id="0003" data-name="b-0007" /><text x="3283" y="967" text-anchor="middle" dominant-baseline="middle" class="block-label" fill="rgb(151,130,149)" stroke="white" stroke-width="3" paint-order="stroke">b-0007</text><polygon points="2951,682 2950,683 2943,683 2942,684 2916,684 2915,685 2914,684 2907,684 2906,685 2902,685 2901,686 2898,686 2897,687 2893,687 2892,688 2859,688 2858,689 2844,689 2843,690 2834,690 2833,691 2811,691 2810,692 2796,692 2795,693 2782,693 2781,694 2765,694 2764,695 2758,695 2757,696 2754,696 2753,697 2750,697 2749,698 2727,698 2726,699 2714,699 2713,700 2711,700 2710,701 2708,701 2707,702 2704,702 2703,703 2696,703 2695,704 2668,704 2667,705 2666,705 2665,706 2664,706 2659,711 2659,713 2658,714 2658,717 2657,718 2657,722 2656,723 2656,752 2655,753 2655,776 2654,777 2654,805 2653,806 2653,970 2652,971 2652,973 2653,974 2653,1172 2654,1173 2654,1176 2653,1177 2653,1217 2654,1218 2654,1289 2653,1290 2653,1304 2654,1305 2654,1308 2657,1311 2659,1311 2660,1312 2663,1312 2664,1313 2670,1313 2671,1312 2674,1312 2675,1311 2687,1311 2688,1312 2695,1312 2696,1311 2706,1311 2707,1312 2713,1312 2714,1313 2722,1313 2723,1312 2725,1312 2726,1313 2744,1313 2745,1312 2748,1312 2749,1311 2754,1311 2755,1312 2772,1312 2773,1311 2792,1311 2793,1312 2812,1312 2813,1311 2816,1311 2817,1310 2820,1310 2821,1309 2824,1309 2825,1310 2831,1310 2832,1311 2835,1311 2836,1310 2841,1310 2842,1309 2848,1309 2849,1310 2852,1310 2853,1311 2865,1311 2866,1310 2875,1310 2876,1311 2888,1311 2889,1310 2894,1310 2895,1311 2897,1311 2898,1312 2900,1312 2901,1313 2904,1313 2905,1314 2907,1314 2909,1316 2911,1316 2912,1317 2915,1317 2916,1318 2920,1318 2921,1319 2936,1319 2937,1320 2954,1320 2955,1319 2966,1319 2967,1318 2969,1318 2970,1317 2972,1317 2973,1316 2974,1316 2975,1315 2975,1314 2976,1313 2976,1312 2977,1311 2977,1310 2978,1309 2978,1156 2979,1155 2979,1148 2978,1147 2978,1131 2979,1130 2979,1121 2980,1120 2980,1099 2979,1098 2979,1042 2980,1041 2980,953 2981,952 2981,909 2980,908 2980,897 2981,896 2981,866 2982,865 2982,840 2981,839 2981,808 2980,807 2980,760 2981,759 2981,704 2982,703 2982,695 2981,694 2981,689 2980,688 2980,686 2978,684 2977,684 2976,683 2972,683 2971,682" fill="rgba(52,1,87,0.3)" stroke="rgb(52,1,87)" stroke-width="2" data-block-id="0004" data-name="b-0008" /><text x="2827" y="1032" text-anchor="middle" dominant-baseline="middle" class="block-label" fill="rgb(52,1,87)" stroke="white" stroke-width="3" paint-order="stroke">b-0008</text><polygon points="580,2254 579,2255 578,2255 578,2256 577,2257 577,2267 576,2268 576,2275 575,2276 575,2338 576,2339 576,2352 579,2355 585,2355 586,2356 594,2356 595,2357 605,2357 606,2358 610,2358 611,2359 619,2359 620,2358 636,2358 637,2359 640,2359 642,2361 643,2361 646,2364 646,2365 647,2366 647,2368 648,2369 648,2372 649,2373 649,2381 648,2382 648,2412 649,2413 649,2469 650,2470 650,2475 651,2476 651,2483 652,2484 651,2485 651,2492 650,2493 650,2496 649,2497 649,2500 648,2501 648,2504 647,2505 647,2507 646,2508 646,2512 645,2513 645,2521 646,2522 646,2524 647,2525 647,2530 648,2531 648,2572 647,2573 647,2694 646,2695 646,2703 647,2704 647,2736 648,2737 648,2739 651,2742 652,2742 653,2743 654,2743 656,2745 657,2745 661,2749 664,2749 667,2746 668,2746 669,2745 671,2745 672,2744 675,2744 676,2745 680,2745 681,2746 690,2746 691,2745 695,2745 696,2744 700,2744 701,2745 711,2745 712,2744 713,2744 714,2743 716,2743 717,2742 718,2742 719,2741 720,2741 721,2740 724,2740 725,2739 730,2739 731,2738 735,2738 736,2739 738,2739 739,2740 742,2740 743,2741 745,2741 746,2742 751,2742 752,2743 761,2743 762,2742 766,2742 767,2741 773,2741 774,2742 787,2742 788,2741 800,2741 801,2742 815,2742 816,2743 821,2743 822,2744 833,2744 834,2743 836,2743 837,2742 839,2742 840,2741 842,2741 843,2742 845,2742 846,2743 849,2743 850,2744 853,2744 854,2745 865,2745 866,2744 867,2744 868,2743 869,2743 870,2742 871,2742 872,2741 873,2741 874,2740 882,2740 883,2741 897,2741 898,2740 902,2740 903,2741 906,2741 907,2742 912,2742 913,2743 943,2743 944,2744 954,2744 955,2745 965,2745 966,2744 974,2744 975,2743 1000,2743 1001,2744 1016,2744 1017,2743 1025,2743 1026,2744 1048,2744 1049,2743 1054,2743 1055,2742 1058,2742 1059,2743 1073,2743 1074,2742 1088,2742 1089,2743 1105,2743 1106,2742 1108,2742 1109,2741 1110,2741 1116,2735 1116,2733 1117,2732 1117,2729 1116,2728 1116,2710 1115,2709 1115,2703 1114,2702 1114,2693 1115,2692 1115,2687 1116,2686 1116,2655 1115,2654 1115,2647 1116,2646 1116,2641 1117,2640 1117,2636 1116,2635 1116,2630 1115,2629 1115,2622 1116,2621 1116,2616 1117,2615 1117,2612 1116,2611 1116,2597 1117,2596 1117,2593 1118,2592 1118,2588 1117,2587 1117,2584 1116,2583 1116,2570 1117,2569 1117,2565 1116,2564 1116,2558 1115,2557 1115,2553 1116,2552 1116,2549 1117,2548 1117,2545 1118,2544 1118,2539 1117,2538 1117,2533 1116,2532 1116,2522 1117,2521 1117,2520 1116,2519 1116,2511 1115,2510 1115,2505 1116,2504 1116,2501 1117,2500 1117,2498 1118,2497 1118,2491 1117,2490 1117,2485 1116,2484 1116,2468 1115,2467 1115,2461 1114,2460 1114,2458 1115,2457 1115,2452 1116,2451 1116,2440 1115,2439 1115,2426 1116,2425 1116,2423 1115,2422 1115,2416 1114,2415 1114,2409 1115,2408 1115,2405 1116,2404 1116,2402 1117,2401 1117,2395 1116,2394 1116,2380 1117,2379 1117,2374 1115,2372 1115,2371 1113,2369 1112,2369 1110,2367 1108,2367 1107,2366 1105,2366 1104,2365 1099,2365 1098,2366 1079,2366 1078,2367 1071,2367 1070,2368 1053,2368 1052,2367 1042,2367 1041,2366 1029,2366 1028,2367 1008,2367 1007,2366 1002,2366 1001,2365 981,2365 980,2366 976,2366 975,2367 956,2367 955,2368 952,2368 951,2369 949,2369 948,2370 942,2370 941,2369 937,2369 936,2370 931,2370 930,2371 928,2371 927,2372 919,2372 918,2371 909,2371 908,2370 899,2370 898,2369 882,2369 881,2370 876,2370 875,2369 873,2369 872,2368 870,2368 869,2367 866,2367 865,2366 858,2366 857,2365 849,2365 848,2366 840,2366 839,2367 829,2367 828,2368 827,2368 826,2367 816,2367 815,2366 813,2366 812,2365 808,2365 807,2364 799,2364 798,2365 776,2365 775,2364 770,2364 769,2363 767,2363 766,2362 764,2362 763,2361 752,2361 751,2362 747,2362 746,2363 744,2363 743,2364 742,2364 741,2365 740,2365 740,2366 739,2367 739,2368 738,2369 738,2372 737,2373 737,2380 736,2381 736,2397 735,2398 734,2397 734,2392 733,2391 733,2387 731,2385 731,2379 730,2378 730,2366 729,2365 729,2362 728,2361 728,2360 727,2359 727,2357 726,2356 726,2353 725,2352 725,2349 724,2348 724,2345 723,2344 723,2342 722,2341 722,2340 721,2339 721,2338 720,2337 720,2336 717,2333 717,2332 711,2326 711,2325 708,2322 707,2322 703,2318 703,2317 701,2315 701,2314 698,2311 698,2310 695,2307 695,2306 692,2303 692,2302 689,2299 689,2298 687,2296 687,2295 686,2294 686,2293 685,2292 685,2291 683,2289 683,2288 681,2286 681,2285 679,2283 679,2282 678,2281 678,2280 675,2277 674,2277 672,2275 671,2275 670,2274 669,2274 667,2272 666,2272 663,2269 662,2269 660,2267 659,2267 658,2266 657,2266 656,2265 655,2265 652,2262 652,2261 650,2259 650,2258 649,2257 646,2257 645,2256 639,2256 638,2255 630,2255 629,2254" fill="rgba(235,157,37,0.3)" stroke="rgb(235,157,37)" stroke-width="2" data-block-id="0005" data-name="b-0009" /><text x="846" y="2499" text-anchor="middle" dominant-baseline="middle" class="block-label" fill="rgb(235,157,37)" stroke="white" stroke-width="3" paint-order="stroke">b-0009</text><polygon points="2503,1004 2502,1005 2482,1005 2481,1006 2465,1006 2464,1007 2448,1007 2447,1008 2430,1008 2429,1009 2404,1009 2403,1010 2394,1010 2393,1011 2386,1011 2385,1010 2380,1010 2379,1011 2373,1011 2372,1012 2370,1012 2369,1013 2353,1013 2352,1014 2333,1014 2332,1015 2321,1015 2320,1016 2305,1016 2304,1017 2280,1017 2279,1018 2254,1018 2253,1019 2236,1019 2235,1020 2223,1020 2222,1021 2213,1021 2211,1023 2210,1023 2209,1024 2208,1024 2207,1025 2206,1025 2205,1026 2201,1026 2200,1027 2194,1027 2193,1026 2191,1026 2190,1027 2183,1027 2182,1028 2167,1028 2166,1027 2156,1027 2155,1026 2142,1026 2141,1027 2131,1027 2130,1028 2108,1028 2107,1029 2102,1029 2101,1030 2099,1030 2098,1031 2097,1031 2095,1033 2095,1034 2094,1035 2094,1037 2093,1038 2093,1039 2090,1042 2088,1042 2088,1043 2087,1044 2087,1045 2088,1045 2089,1046 2090,1046 2091,1047 2092,1047 2093,1048 2093,1050 2094,1051 2094,1053 2095,1054 2095,1057 2094,1058 2094,1072 2095,1073 2095,1075 2096,1076 2096,1078 2097,1079 2097,1090 2098,1091 2098,1092 2099,1093 2099,1094 2100,1095 2100,1097 2101,1098 2101,1101 2102,1102 2102,1128 2100,1130 2100,1131 2095,1136 2093,1136 2092,1137 2081,1137 2080,1136 2079,1136 2078,1135 2077,1135 2074,1132 2073,1132 2071,1130 2068,1130 2066,1132 2065,1132 2064,1133 2063,1133 2062,1134 2060,1134 2059,1135 2057,1135 2056,1134 2055,1134 2054,1133 2053,1133 2052,1132 2051,1132 2050,1131 2049,1131 2048,1130 2047,1130 2046,1131 2045,1131 2038,1138 2038,1139 2037,1140 2037,1141 2035,1143 2034,1143 2033,1144 2032,1143 2032,1142 2031,1141 2031,1140 2030,1139 2030,1138 2027,1135 2027,1134 2023,1130 2023,1129 2022,1128 2022,1127 2021,1126 2021,1114 2020,1113 2020,1112 2019,1111 2019,1109 2018,1108 2018,1107 2017,1106 2017,1101 2018,1100 2018,1099 2019,1098 2019,1097 2020,1096 2020,1095 2021,1094 2021,1088 2020,1087 2020,1086 2019,1085 2019,1084 2015,1080 2013,1080 2012,1079 2011,1079 2010,1078 2008,1078 2007,1077 2006,1077 2005,1076 2002,1076 2001,1075 1986,1075 1985,1076 1984,1076 1981,1079 1981,1081 1980,1082 1980,1087 1979,1088 1979,1096 1980,1097 1980,1123 1981,1124 1981,1125 1980,1126 1980,1128 1975,1133 1974,1133 1973,1134 1971,1134 1970,1133 1966,1133 1965,1132 1962,1132 1958,1128 1956,1128 1955,1127 1954,1127 1953,1126 1937,1126 1936,1125 1934,1125 1933,1124 1932,1124 1931,1123 1930,1123 1928,1121 1927,1121 1926,1120 1925,1120 1923,1122 1922,1122 1917,1127 1915,1127 1912,1124 1912,1121 1911,1120 1911,1117 1910,1116 1910,1103 1911,1102 1911,1091 1910,1090 1910,1081 1909,1080 1909,1078 1907,1076 1907,1075 1905,1073 1903,1073 1902,1072 1901,1072 1900,1073 1887,1073 1886,1072 1883,1072 1882,1071 1877,1071 1876,1072 1875,1072 1874,1073 1873,1073 1872,1074 1871,1074 1864,1081 1863,1081 1862,1082 1859,1082 1858,1083 1855,1083 1854,1084 1853,1084 1851,1086 1850,1086 1849,1087 1849,1088 1847,1090 1847,1093 1846,1094 1846,1103 1845,1104 1845,1121 1846,1122 1846,1158 1845,1159 1845,1163 1844,1164 1844,1165 1843,1166 1843,1167 1842,1168 1841,1168 1840,1169 1839,1169 1838,1170 1832,1170 1831,1171 1808,1171 1807,1172 1806,1172 1805,1173 1804,1173 1804,1174 1802,1176 1802,1179 1801,1180 1801,1183 1800,1184 1800,1194 1801,1195 1801,1202 1802,1203 1802,1207 1803,1208 1803,1219 1804,1220 1804,1229 1805,1230 1805,1243 1804,1244 1804,1247 1805,1248 1805,1275 1806,1276 1806,1279 1807,1280 1807,1282 1808,1283 1808,1284 1809,1285 1809,1287 1810,1288 1810,1289 1811,1290 1811,1292 1812,1293 1812,1294 1813,1295 1813,1296 1814,1297 1814,1298 1817,1301 1818,1301 1819,1302 1820,1302 1821,1303 1824,1303 1825,1304 1826,1304 1827,1305 1829,1305 1830,1306 1833,1306 1835,1304 1836,1304 1838,1302 1839,1302 1840,1301 1842,1301 1843,1300 1848,1300 1849,1301 1870,1301 1871,1302 1873,1302 1874,1303 1882,1303 1883,1302 1884,1302 1885,1301 1887,1301 1888,1300 1897,1300 1898,1301 1901,1301 1902,1302 1905,1302 1906,1301 1919,1301 1920,1302 1922,1302 1923,1303 1924,1303 1925,1304 1928,1304 1929,1303 1930,1303 1931,1302 1932,1302 1933,1301 1934,1301 1935,1300 1937,1300 1938,1299 1941,1299 1942,1300 1945,1300 1946,1301 1948,1301 1949,1302 1957,1302 1958,1301 1967,1301 1968,1302 1976,1302 1977,1301 1980,1301 1981,1300 1990,1300 1991,1301 1996,1301 1997,1302 2000,1302 2001,1301 2005,1301 2006,1300 2014,1300 2015,1301 2016,1301 2017,1302 2019,1302 2020,1303 2025,1303 2026,1302 2027,1302 2028,1301 2029,1301 2030,1300 2031,1300 2032,1299 2035,1299 2036,1300 2037,1300 2038,1301 2039,1301 2040,1302 2041,1302 2042,1303 2044,1303 2045,1304 2054,1304 2055,1303 2059,1303 2060,1304 2063,1304 2064,1305 2066,1305 2067,1306 2072,1306 2073,1305 2074,1305 2075,1304 2077,1304 2078,1303 2097,1303 2098,1302 2109,1302 2110,1303 2114,1303 2115,1304 2121,1304 2122,1303 2125,1303 2126,1302 2138,1302 2139,1303 2155,1303 2156,1304 2157,1304 2158,1305 2160,1305 2161,1306 2165,1306 2166,1307 2167,1307 2168,1306 2172,1306 2173,1305 2185,1305 2186,1306 2193,1306 2194,1305 2208,1305 2209,1306 2216,1306 2217,1305 2220,1305 2221,1304 2228,1304 2229,1305 2232,1305 2233,1306 2245,1306 2246,1305 2253,1305 2254,1306 2263,1306 2264,1305 2265,1305 2266,1304 2267,1304 2268,1303 2280,1303 2281,1304 2303,1304 2304,1305 2312,1305 2313,1304 2316,1304 2317,1303 2324,1303 2325,1304 2329,1304 2330,1305 2340,1305 2341,1304 2344,1304 2345,1305 2348,1305 2349,1306 2351,1306 2352,1307 2353,1307 2354,1308 2358,1308 2359,1307 2360,1307 2362,1305 2363,1305 2364,1304 2365,1304 2366,1303 2371,1303 2372,1304 2374,1304 2375,1305 2376,1305 2377,1306 2382,1306 2383,1305 2385,1305 2386,1304 2387,1304 2388,1303 2392,1303 2393,1302 2394,1302 2395,1303 2413,1303 2414,1302 2418,1302 2419,1303 2424,1303 2425,1304 2436,1304 2437,1303 2443,1303 2444,1304 2457,1304 2458,1303 2491,1303 2492,1304 2504,1304 2505,1303 2510,1303 2511,1302 2512,1302 2514,1300 2514,1299 2515,1298 2515,1297 2516,1296 2516,1263 2517,1262 2517,1233 2516,1232 2516,1219 2517,1218 2517,1163 2518,1162 2518,1160 2517,1159 2517,1142 2516,1141 2516,1126 2517,1125 2517,1118 2518,1117 2518,1106 2517,1105 2517,1089 2516,1088 2516,1076 2517,1075 2517,1045 2516,1044 2516,1029 2517,1028 2517,1017 2516,1016 2516,1009 2515,1008 2515,1007 2512,1004" fill="rgba(20,160,203,0.3)" stroke="rgb(20,160,203)" stroke-width="2" data-block-id="0006" data-name="b-0011" /><text x="2090" y="1180" text-anchor="middle" dominant-baseline="middle" class="block-label" fill="rgb(20,160,203)" stroke="white" stroke-width="3" paint-order="stroke">b-0011</text><polygon points="2497,714 2496,715 2485,715 2484,716 2478,716 2477,717 2463,717 2462,718 2437,718 2436,719 2420,719 2419,720 2403,720 2402,721 2394,721 2393,722 2381,722 2380,723 2362,723 2361,724 2353,724 2352,725 2348,725 2347,726 2344,726 2343,727 2337,727 2336,728 2326,728 2325,727 2317,727 2316,726 2312,726 2311,725 2306,725 2305,726 2300,726 2299,727 2291,727 2290,728 2282,728 2281,729 2267,729 2266,730 2250,730 2249,731 2228,731 2227,732 2219,732 2218,733 2213,733 2212,734 2206,734 2205,735 2192,735 2191,736 2179,736 2178,737 2168,737 2167,738 2138,738 2137,739 2116,739 2115,740 2107,740 2106,741 2088,741 2087,742 2077,742 2076,741 2069,741 2068,742 2066,742 2065,743 2062,743 2061,744 2058,744 2057,745 2053,745 2052,746 2046,746 2045,747 2030,747 2029,748 2017,748 2016,749 2007,749 2006,750 2000,750 1999,751 1964,751 1963,752 1959,752 1958,751 1945,751 1944,752 1926,752 1925,753 1911,753 1910,754 1890,754 1889,755 1856,755 1855,756 1830,756 1829,757 1824,757 1823,758 1811,758 1810,759 1801,759 1800,760 1782,760 1781,761 1780,761 1779,762 1778,762 1777,763 1777,764 1776,765 1776,766 1775,767 1775,774 1776,775 1776,795 1777,796 1777,832 1778,833 1778,851 1779,852 1779,861 1780,862 1780,867 1781,868 1781,873 1782,874 1782,893 1783,894 1783,898 1784,899 1784,917 1785,918 1785,929 1784,930 1784,939 1785,940 1785,945 1786,946 1786,964 1787,965 1787,973 1788,974 1788,983 1789,984 1789,985 1790,986 1790,987 1791,988 1792,988 1794,990 1805,990 1806,989 1832,989 1833,988 1843,988 1844,987 1860,987 1861,986 1879,986 1880,985 1894,985 1895,984 1909,984 1910,983 1917,983 1918,982 1924,982 1925,981 1931,981 1932,980 1938,980 1939,979 1950,979 1951,978 1969,978 1970,977 1994,977 1995,976 2010,976 2011,975 2019,975 2020,974 2032,974 2033,973 2040,973 2041,974 2047,974 2048,973 2056,973 2057,972 2076,972 2077,971 2083,971 2084,970 2093,970 2094,969 2098,969 2099,968 2104,968 2105,967 2111,967 2112,966 2119,966 2120,965 2126,965 2127,964 2147,964 2148,963 2183,963 2184,962 2193,962 2194,961 2197,961 2198,960 2215,960 2216,959 2220,959 2221,958 2226,958 2227,957 2263,957 2264,956 2276,956 2277,955 2290,955 2291,954 2308,954 2309,953 2316,953 2317,952 2328,952 2329,951 2338,951 2339,950 2355,950 2356,949 2362,949 2363,948 2367,948 2368,947 2379,947 2380,946 2387,946 2388,945 2403,945 2404,944 2413,944 2414,943 2437,943 2438,942 2465,942 2466,941 2472,941 2473,940 2507,940 2508,939 2511,939 2512,938 2513,938 2514,937 2514,936 2515,935 2515,931 2516,930 2516,887 2517,886 2517,879 2518,878 2518,828 2519,827 2519,804 2518,803 2518,780 2519,779 2519,767 2518,766 2518,722 2517,721 2517,720 2513,716 2511,716 2510,715 2502,715 2501,714" fill="rgba(57,21,252,0.3)" stroke="rgb(57,21,252)" stroke-width="2" data-block-id="0007" data-name="b-0012" /><text x="2129" y="850" text-anchor="middle" dominant-baseline="middle" class="block-label" fill="rgb(57,21,252)" stroke="white" stroke-width="3" paint-order="stroke">b-0012</text><polygon points="3556,2362 3555,2363 3548,2363 3547,2364 3544,2364 3541,2367 3541,2368 3540,2369 3540,2370 3539,2371 3539,2373 3538,2374 3538,2393 3539,2394 3539,2401 3538,2402 3538,2437 3539,2438 3539,2488 3540,2489 3540,2515 3541,2516 3541,2521 3540,2522 3540,2549 3539,2550 3539,2596 3538,2597 3538,2656 3539,2657 3539,2674 3538,2675 3539,2676 3539,2688 3538,2689 3538,2737 3539,2738 3539,2741 3540,2742 3540,2744 3543,2747 3545,2747 3546,2748 3551,2748 3552,2749 3557,2749 3558,2748 3581,2748 3582,2749 3666,2749 3667,2750 3689,2750 3690,2749 3701,2749 3702,2750 3774,2750 3775,2749 3903,2749 3904,2748 3906,2748 3907,2747 3909,2747 3912,2744 3912,2742 3913,2741 3913,2738 3914,2737 3914,2728 3915,2727 3915,2719 3914,2718 3914,2684 3915,2683 3915,2671 3914,2670 3914,2665 3913,2664 3913,2652 3914,2651 3914,2648 3913,2647 3913,2633 3914,2632 3914,2571 3913,2570 3913,2560 3914,2559 3914,2553 3913,2552 3913,2373 3912,2372 3912,2370 3911,2369 3911,2368 3908,2365 3906,2365 3905,2364 3903,2364 3902,2363 3895,2363 3894,2364 3881,2364 3880,2365 3856,2365 3855,2364 3800,2364 3799,2365 3777,2365 3776,2364 3734,2364 3733,2363 3708,2363 3707,2364 3682,2364 3681,2363 3642,2363 3641,2362 3628,2362 3627,2363 3618,2363 3617,2362 3586,2362 3585,2363 3580,2363 3579,2364 3576,2364 3575,2363 3571,2363 3570,2362" fill="rgba(235,88,48,0.3)" stroke="rgb(235,88,48)" stroke-width="2" data-block-id="0008" data-name="b-0013" /><text x="3710" y="2539" text-anchor="middle" dominant-baseline="middle" class="block-label" fill="rgb(235,88,48)" stroke="white" stroke-width="3" paint-order="stroke">b-0013</text><polygon points="2619,2355 2618,2356 2615,2356 2614,2357 2610,2357 2609,2358 2607,2358 2603,2362 2603,2363 2602,2364 2602,2383 2601,2384 2601,2420 2600,2421 2600,2429 2601,2430 2601,2486 2600,2487 2600,2502 2601,2503 2601,2512 2600,2513 2600,2524 2601,2525 2601,2536 2600,2537 2600,2547 2601,2548 2601,2560 2600,2561 2600,2599 2601,2600 2601,2724 2600,2725 2600,2732 2601,2733 2601,2735 2602,2736 2602,2737 2604,2739 2605,2739 2606,2740 2607,2740 2608,2741 2626,2741 2627,2742 2667,2742 2668,2743 2678,2743 2679,2744 2682,2744 2683,2743 2697,2743 2698,2744 2743,2744 2744,2745 2796,2745 2797,2746 2827,2746 2828,2747 2840,2747 2841,2748 2851,2748 2852,2747 2877,2747 2878,2746 2884,2746 2885,2747 2968,2747 2969,2746 2971,2746 2973,2744 2974,2744 2974,2738 2975,2737 2975,2715 2974,2714 2974,2706 2975,2705 2975,2671 2974,2670 2974,2642 2973,2641 2973,2621 2974,2620 2974,2585 2975,2584 2975,2546 2976,2545 2976,2543 2975,2542 2975,2534 2974,2533 2974,2528 2975,2527 2975,2474 2976,2473 2976,2469 2975,2468 2975,2461 2974,2460 2974,2437 2975,2436 2975,2432 2974,2431 2974,2418 2975,2417 2975,2373 2974,2372 2974,2369 2973,2368 2973,2367 2970,2364 2968,2364 2967,2363 2962,2363 2961,2362 2933,2362 2932,2363 2916,2363 2915,2362 2902,2362 2901,2361 2894,2361 2893,2360 2891,2360 2890,2361 2875,2361 2874,2362 2867,2362 2866,2361 2858,2361 2857,2360 2850,2360 2849,2359 2834,2359 2833,2360 2825,2360 2824,2361 2808,2361 2807,2362 2793,2362 2792,2361 2773,2361 2772,2360 2760,2360 2759,2361 2753,2361 2752,2362 2747,2362 2746,2361 2717,2361 2716,2360 2710,2360 2709,2359 2701,2359 2700,2358 2692,2358 2691,2357 2657,2357 2656,2356 2633,2356 2632,2355" fill="rgba(218,58,254,0.3)" stroke="rgb(218,58,254)" stroke-width="2" data-block-id="0009" data-name="b-0014" /><text x="2793" y="2517" text-anchor="middle" dominant-baseline="middle" class="block-label" fill="rgb(218,58,254)" stroke="white" stroke-width="3" paint-order="stroke">b-0014</text><polygon points="1288,2362 1287,2363 1284,2363 1283,2364 1272,2364 1271,2365 1259,2365 1258,2366 1257,2366 1256,2367 1254,2367 1253,2368 1250,2368 1249,2369 1244,2369 1243,2370 1228,2370 1227,2369 1222,2369 1221,2370 1219,2370 1218,2371 1216,2371 1215,2372 1213,2372 1212,2373 1210,2373 1209,2374 1206,2374 1205,2375 1204,2375 1203,2376 1202,2376 1202,2378 1203,2379 1203,2382 1204,2383 1204,2389 1205,2390 1205,2395 1206,2396 1206,2413 1207,2414 1207,2448 1208,2449 1208,2471 1207,2472 1207,2490 1208,2491 1208,2515 1209,2516 1209,2520 1208,2521 1208,2528 1207,2529 1207,2533 1208,2534 1208,2557 1209,2558 1209,2602 1208,2603 1208,2609 1209,2610 1209,2613 1208,2614 1208,2643 1207,2644 1207,2664 1206,2665 1206,2723 1205,2724 1205,2736 1207,2738 1207,2739 1209,2741 1210,2741 1211,2742 1213,2742 1214,2743 1216,2743 1217,2744 1219,2744 1220,2745 1232,2745 1233,2744 1251,2744 1252,2745 1275,2745 1276,2744 1318,2744 1319,2745 1334,2745 1335,2744 1383,2744 1384,2743 1393,2743 1394,2744 1401,2744 1402,2745 1439,2745 1440,2744 1443,2744 1444,2743 1446,2743 1447,2742 1455,2742 1456,2743 1500,2743 1501,2744 1507,2744 1508,2745 1510,2745 1511,2744 1517,2744 1518,2743 1531,2743 1532,2744 1533,2743 1554,2743 1555,2744 1564,2744 1565,2743 1579,2743 1580,2742 1582,2742 1585,2739 1585,2738 1586,2737 1586,2736 1587,2735 1587,2713 1588,2712 1588,2708 1587,2707 1587,2697 1586,2696 1587,2695 1587,2656 1586,2655 1586,2646 1587,2645 1587,2634 1586,2633 1586,2604 1585,2603 1585,2601 1586,2600 1586,2560 1585,2559 1585,2548 1586,2547 1586,2507 1585,2506 1585,2505 1586,2504 1586,2491 1585,2490 1585,2382 1586,2381 1586,2373 1585,2372 1585,2371 1584,2370 1584,2369 1583,2368 1583,2367 1581,2365 1577,2365 1576,2366 1575,2366 1574,2367 1573,2367 1571,2369 1569,2369 1568,2370 1565,2370 1564,2369 1561,2369 1560,2368 1542,2368 1541,2367 1532,2367 1531,2366 1528,2366 1527,2365 1511,2365 1510,2364 1476,2364 1475,2365 1428,2365 1427,2364 1409,2364 1408,2365 1403,2365 1402,2366 1400,2366 1399,2367 1396,2367 1395,2368 1389,2368 1388,2369 1383,2369 1382,2368 1369,2368 1368,2369 1367,2368 1357,2368 1356,2367 1351,2367 1350,2366 1348,2366 1347,2365 1344,2365 1343,2364 1339,2364 1338,2363 1333,2363 1332,2362" fill="rgba(169,219,187,0.3)" stroke="rgb(169,219,187)" stroke-width="2" data-block-id="0010" data-name="b-0015" /><text x="1385" y="2525" text-anchor="middle" dominant-baseline="middle" class="block-label" fill="rgb(169,219,187)" stroke="white" stroke-width="3" paint-order="stroke">b-0015</text><polygon points="3276,2361 3275,2362 3254,2362 3253,2363 3192,2363 3191,2362 3177,2362 3176,2363 3143,2363 3142,2362 3135,2362 3134,2363 3124,2363 3123,2364 3114,2364 3113,2363 3093,2363 3092,2364 3078,2364 3077,2365 3075,2365 3074,2366 3074,2367 3073,2368 3073,2369 3072,2370 3072,2372 3071,2373 3071,2383 3072,2384 3072,2520 3071,2521 3071,2524 3070,2525 3070,2538 3071,2539 3071,2550 3072,2551 3072,2560 3071,2561 3071,2570 3072,2571 3072,2605 3071,2606 3071,2622 3072,2623 3072,2627 3071,2628 3071,2647 3072,2648 3072,2674 3071,2675 3071,2684 3070,2685 3070,2693 3069,2694 3069,2738 3070,2739 3070,2741 3071,2742 3071,2743 3074,2746 3075,2746 3076,2747 3084,2747 3085,2748 3167,2748 3168,2749 3240,2749 3241,2750 3245,2750 3246,2749 3269,2749 3270,2748 3332,2748 3333,2749 3356,2749 3357,2748 3377,2748 3378,2749 3435,2749 3436,2748 3437,2748 3439,2746 3439,2745 3440,2744 3440,2739 3441,2738 3441,2725 3440,2724 3440,2690 3441,2689 3441,2643 3442,2642 3442,2593 3443,2592 3443,2581 3442,2580 3442,2578 3443,2577 3443,2563 3442,2562 3442,2548 3443,2547 3443,2538 3442,2537 3442,2532 3441,2531 3441,2523 3442,2522 3442,2516 3441,2515 3441,2502 3442,2501 3442,2476 3443,2475 3443,2468 3442,2467 3442,2391 3441,2390 3441,2385 3442,2384 3442,2373 3441,2372 3441,2369 3440,2368 3440,2367 3439,2366 3439,2365 3438,2364 3437,2364 3436,2363 3435,2363 3434,2362 3426,2362 3425,2361 3417,2361 3416,2362 3406,2362 3405,2363 3377,2363 3376,2362 3373,2362 3372,2363 3336,2363 3335,2362 3330,2362 3329,2361 3317,2361 3316,2362 3284,2362 3283,2361" fill="rgba(207,14,189,0.3)" stroke="rgb(207,14,189)" stroke-width="2" data-block-id="0011" data-name="b-0016" /><text x="3268" y="2525" text-anchor="middle" dominant-baseline="middle" class="block-label" fill="rgb(207,14,189)" stroke="white" stroke-width="3" paint-order="stroke">b-0016</text><polygon points="2459,2357 2458,2358 2455,2358 2454,2359 2435,2359 2434,2360 2390,2360 2389,2361 2372,2361 2371,2360 2342,2360 2341,2359 2336,2359 2335,2358 2306,2358 2305,2359 2296,2359 2295,2360 2291,2360 2290,2361 2285,2361 2284,2362 2282,2362 2281,2361 2265,2361 2264,2362 2255,2362 2254,2363 2224,2363 2223,2362 2197,2362 2196,2361 2192,2361 2191,2360 2183,2360 2182,2361 2176,2361 2175,2360 2171,2360 2170,2359 2164,2359 2163,2360 2162,2360 2161,2361 2160,2361 2159,2362 2158,2362 2155,2365 2155,2367 2154,2368 2154,2371 2153,2372 2153,2376 2152,2377 2152,2402 2153,2403 2153,2417 2152,2418 2152,2434 2153,2435 2153,2454 2154,2455 2154,2468 2153,2469 2153,2495 2154,2496 2154,2535 2153,2536 2153,2569 2154,2570 2154,2593 2153,2594 2153,2643 2154,2644 2154,2679 2153,2680 2153,2688 2154,2689 2154,2722 2153,2723 2153,2733 2154,2734 2154,2737 2155,2738 2155,2740 2158,2743 2159,2743 2160,2744 2162,2744 2163,2745 2172,2745 2173,2744 2232,2744 2233,2745 2241,2745 2242,2744 2254,2744 2255,2745 2294,2745 2295,2744 2379,2744 2380,2743 2404,2743 2405,2744 2407,2744 2408,2743 2430,2743 2431,2742 2438,2742 2439,2741 2468,2741 2469,2740 2483,2740 2484,2739 2512,2739 2513,2738 2515,2738 2517,2736 2518,2736 2519,2735 2519,2734 2520,2733 2520,2704 2519,2703 2519,2691 2520,2690 2520,2645 2521,2644 2521,2639 2522,2638 2522,2634 2521,2633 2521,2607 2520,2606 2520,2598 2521,2597 2521,2577 2520,2576 2520,2567 2519,2566 2519,2545 2520,2544 2520,2543 2519,2542 2519,2528 2518,2527 2518,2504 2519,2503 2519,2478 2520,2477 2520,2461 2519,2460 2519,2402 2520,2401 2520,2394 2519,2393 2519,2367 2518,2366 2518,2363 2517,2362 2517,2361 2514,2358 2513,2358 2512,2357 2487,2357 2486,2358 2481,2358 2480,2359 2474,2359 2473,2358 2470,2358 2469,2357" fill="rgba(189,174,189,0.3)" stroke="rgb(189,174,189)" stroke-width="2" data-block-id="0012" data-name="b-0017" /><text x="2335" y="2521" text-anchor="middle" dominant-baseline="middle" class="block-label" fill="rgb(189,174,189)" stroke="white" stroke-width="3" paint-order="stroke">b-0017</text><polygon points="765,2362 764,2363 759,2363 758,2364 753,2364 752,2365 747,2365 744,2368 744,2369 743,2370 743,2372 742,2373 742,2379 741,2380 741,2408 740,2409 740,2437 741,2438 741,2444 742,2445 742,2449 741,2450 741,2457 740,2458 740,2461 739,2462 739,2465 738,2466 738,2478 739,2479 739,2490 738,2491 738,2503 739,2504 739,2505 738,2506 738,2514 737,2515 737,2539 738,2540 738,2624 739,2625 739,2725 738,2726 738,2735 744,2741 748,2741 749,2742 762,2742 763,2743 796,2743 797,2744 847,2744 848,2745 868,2745 869,2744 873,2744 874,2743 883,2743 884,2744 893,2744 894,2743 917,2743 918,2744 939,2744 940,2745 959,2745 960,2744 972,2744 973,2743 975,2743 976,2744 988,2744 989,2743 1005,2743 1006,2744 1009,2744 1010,2743 1089,2743 1090,2742 1096,2742 1097,2743 1102,2743 1103,2742 1105,2742 1106,2741 1107,2741 1111,2737 1111,2736 1112,2735 1112,2732 1113,2731 1113,2727 1114,2726 1114,2717 1113,2716 1113,2710 1112,2709 1112,2702 1113,2701 1113,2676 1114,2675 1114,2669 1113,2668 1113,2646 1112,2645 1112,2587 1113,2586 1113,2571 1112,2570 1112,2538 1113,2537 1113,2462 1112,2461 1112,2455 1113,2454 1113,2421 1112,2420 1112,2407 1113,2406 1113,2383 1112,2382 1112,2376 1111,2375 1111,2373 1107,2369 1106,2369 1105,2368 1100,2368 1099,2369 1096,2369 1095,2370 1092,2370 1091,2371 1086,2371 1085,2370 1078,2370 1077,2371 1058,2371 1057,2370 1053,2370 1052,2371 1025,2371 1024,2372 1018,2372 1017,2371 1011,2371 1010,2370 1001,2370 1000,2371 982,2371 981,2372 979,2372 978,2373 975,2373 974,2374 972,2374 971,2373 970,2373 969,2372 967,2372 966,2371 965,2371 964,2370 952,2370 951,2371 942,2371 941,2370 935,2370 934,2371 930,2371 929,2372 920,2372 919,2371 914,2371 913,2370 910,2370 909,2371 882,2371 881,2372 878,2372 877,2371 875,2371 874,2370 872,2370 871,2369 869,2369 868,2368 866,2368 865,2367 857,2367 856,2366 839,2366 838,2367 832,2367 831,2368 828,2368 827,2367 823,2367 822,2366 801,2366 800,2365 788,2365 787,2364 779,2364 778,2363 773,2363 772,2362" fill="rgba(50,107,54,0.3)" stroke="rgb(50,107,54)" stroke-width="2" data-block-id="0013" data-name="b-0018" /><text x="930" y="2504" text-anchor="middle" dominant-baseline="middle" class="block-label" fill="rgb(50,107,54)" stroke="white" stroke-width="3" paint-order="stroke">b-0018</text><polygon points="3083,1899 3082,1900 3078,1900 3076,1902 3075,1902 3075,1903 3074,1904 3074,1905 3073,1906 3073,1910 3072,1911 3072,1912 3073,1913 3073,1971 3074,1972 3074,2001 3073,2002 3073,2016 3072,2017 3072,2071 3073,2072 3073,2077 3072,2078 3072,2084 3071,2085 3071,2094 3072,2095 3072,2109 3071,2110 3071,2114 3072,2115 3072,2128 3071,2129 3071,2134 3070,2135 3070,2141 3071,2142 3071,2172 3072,2173 3072,2239 3071,2240 3071,2246 3072,2247 3072,2249 3075,2252 3076,2252 3077,2253 3080,2253 3081,2254 3178,2254 3179,2255 3192,2255 3193,2254 3224,2254 3225,2255 3236,2255 3237,2254 3270,2254 3271,2255 3290,2255 3291,2254 3305,2254 3306,2255 3330,2255 3331,2254 3357,2254 3358,2253 3392,2253 3393,2254 3411,2254 3412,2253 3435,2253 3436,2252 3438,2252 3439,2251 3440,2251 3441,2250 3441,2249 3442,2248 3442,2246 3443,2245 3443,2229 3442,2228 3442,2211 3443,2210 3443,2206 3442,2205 3442,2189 3443,2188 3443,2176 3442,2175 3442,2157 3443,2156 3443,2137 3442,2136 3442,2117 3443,2116 3443,2066 3444,2065 3444,2055 3443,2054 3443,2001 3444,2000 3444,1972 3445,1971 3445,1964 3444,1963 3444,1916 3443,1915 3443,1907 3442,1906 3442,1905 3440,1903 3439,1903 3438,1902 3436,1902 3435,1901 3426,1901 3425,1902 3419,1902 3418,1901 3339,1901 3338,1900 3331,1900 3330,1899 3319,1899 3318,1900 3246,1900 3245,1899 3244,1899 3243,1900 3229,1900 3228,1901 3211,1901 3210,1900 3189,1900 3188,1899 3179,1899 3178,1900 3171,1900 3170,1901 3104,1901 3103,1900 3094,1900 3093,1899" fill="rgba(130,228,50,0.3)" stroke="rgb(130,228,50)" stroke-width="2" data-block-id="0014" data-name="b-0020" /><text x="3257" y="2074" text-anchor="middle" dominant-baseline="middle" class="block-label" fill="rgb(130,228,50)" stroke="white" stroke-width="3" paint-order="stroke">b-0020</text><polygon points="3598,1902 3597,1903 3590,1903 3589,1904 3546,1904 3545,1905 3542,1905 3541,1906 3540,1906 3539,1907 3539,1908 3538,1909 3538,1922 3539,1923 3539,1989 3540,1990 3540,1995 3539,1996 3539,2114 3538,2115 3538,2147 3539,2148 3539,2153 3538,2154 3538,2163 3539,2164 3539,2240 3538,2241 3538,2243 3539,2244 3539,2248 3540,2249 3540,2251 3541,2251 3543,2253 3639,2253 3640,2252 3695,2252 3696,2253 3699,2253 3700,2252 3785,2252 3786,2253 3798,2253 3799,2252 3810,2252 3811,2253 3828,2253 3829,2252 3851,2252 3852,2253 3865,2253 3866,2252 3888,2252 3889,2253 3890,2252 3904,2252 3905,2251 3909,2251 3910,2250 3911,2250 3913,2248 3914,2248 3915,2247 3915,2246 3916,2245 3916,2244 3917,2243 3917,2240 3916,2239 3916,2231 3915,2230 3915,2226 3914,2225 3914,2221 3913,2220 3913,2203 3912,2202 3912,2194 3911,2193 3911,2190 3910,2189 3910,2175 3911,2174 3911,2171 3912,2170 3912,2167 3913,2166 3913,2092 3914,2091 3914,2090 3913,2089 3913,2057 3914,2056 3914,2050 3913,2049 3913,2034 3914,2033 3914,2016 3913,2015 3913,2001 3912,2000 3912,1995 3911,1994 3911,1983 3912,1982 3912,1976 3911,1975 3911,1956 3912,1955 3912,1941 3913,1940 3913,1910 3912,1909 3912,1907 3909,1904 3908,1904 3907,1903 3902,1903 3901,1902 3888,1902 3887,1903 3780,1903 3779,1904 3778,1904 3777,1903 3678,1903 3677,1904 3610,1904 3609,1903 3604,1903 3603,1902" fill="rgba(134,20,72,0.3)" stroke="rgb(134,20,72)" stroke-width="2" data-block-id="0015" data-name="b-0021" /><text x="3778" y="2097" text-anchor="middle" dominant-baseline="middle" class="block-label" fill="rgb(134,20,72)" stroke="white" stroke-width="3" paint-order="stroke">b-0021</text><polygon points="2618,1898 2617,1899 2611,1899 2610,1900 2609,1900 2607,1902 2607,1903 2606,1904 2606,1909 2605,1910 2605,1918 2606,1919 2606,1930 2607,1931 2607,1938 2606,1939 2606,1977 2607,1978 2607,1985 2606,1986 2606,2006 2605,2007 2605,2022 2606,2023 2606,2096 2605,2097 2605,2119 2604,2120 2604,2143 2605,2144 2605,2190 2604,2191 2604,2223 2603,2224 2603,2236 2602,2237 2602,2244 2603,2245 2603,2246 2604,2247 2605,2247 2606,2248 2607,2248 2608,2249 2612,2249 2613,2250 2618,2250 2619,2251 2626,2251 2627,2252 2631,2252 2632,2251 2637,2251 2638,2250 2674,2250 2675,2251 2716,2251 2717,2252 2745,2252 2746,2253 2762,2253 2763,2252 2826,2252 2827,2251 2844,2251 2845,2250 2860,2250 2861,2251 2878,2251 2879,2250 2880,2250 2881,2251 2883,2251 2884,2252 2886,2252 2887,2253 2921,2253 2922,2252 2932,2252 2933,2253 2961,2253 2962,2254 2965,2254 2966,2253 2968,2253 2969,2252 2970,2252 2974,2248 2974,2247 2976,2245 2976,2234 2975,2233 2975,2216 2976,2215 2976,2210 2977,2209 2977,2205 2976,2204 2976,2171 2975,2170 2975,2143 2976,2142 2976,2122 2977,2121 2977,2108 2976,2107 2976,2086 2975,2085 2975,2081 2974,2080 2974,2070 2975,2069 2975,2060 2974,2059 2974,2049 2975,2048 2975,2044 2976,2043 2976,2034 2975,2033 2975,1974 2976,1973 2976,1964 2975,1963 2975,1929 2976,1928 2976,1918 2975,1917 2975,1912 2974,1911 2974,1907 2973,1906 2973,1905 2972,1904 2972,1903 2971,1902 2970,1902 2969,1901 2967,1901 2966,1900 2961,1900 2960,1901 2907,1901 2906,1902 2887,1902 2886,1901 2865,1901 2864,1902 2841,1902 2840,1901 2797,1901 2796,1900 2783,1900 2782,1901 2723,1901 2722,1900 2656,1900 2655,1899 2640,1899 2639,1898" fill="rgba(166,17,131,0.3)" stroke="rgb(166,17,131)" stroke-width="2" data-block-id="0016" data-name="b-0022" /><text x="2806" y="2088" text-anchor="middle" dominant-baseline="middle" class="block-label" fill="rgb(166,17,131)" stroke="white" stroke-width="3" paint-order="stroke">b-0022</text><polygon points="1707,2359 1706,2360 1687,2360 1686,2361 1685,2361 1684,2362 1683,2362 1681,2364 1681,2365 1680,2366 1680,2369 1679,2370 1679,2372 1678,2373 1678,2375 1677,2376 1677,2378 1676,2379 1676,2381 1675,2382 1675,2386 1674,2387 1674,2391 1675,2392 1675,2400 1676,2401 1676,2404 1677,2405 1677,2408 1678,2409 1678,2412 1677,2413 1677,2419 1676,2420 1676,2425 1677,2426 1677,2428 1678,2429 1678,2431 1679,2432 1679,2438 1678,2439 1678,2443 1677,2444 1677,2449 1678,2450 1678,2455 1679,2456 1679,2471 1680,2472 1680,2502 1681,2503 1681,2512 1682,2513 1682,2549 1683,2550 1683,2577 1684,2578 1684,2650 1683,2651 1683,2666 1682,2667 1682,2673 1681,2674 1681,2686 1680,2687 1680,2727 1681,2728 1681,2735 1682,2736 1682,2737 1686,2741 1687,2741 1688,2742 1692,2742 1693,2743 1763,2743 1764,2744 1829,2744 1830,2745 1836,2745 1837,2744 1883,2744 1884,2745 1910,2745 1911,2744 1930,2744 1931,2745 1994,2745 1995,2744 2003,2744 2004,2743 2006,2743 2007,2742 2008,2742 2010,2740 2010,2739 2011,2738 2011,2736 2012,2735 2012,2680 2011,2679 2011,2633 2012,2632 2012,2623 2011,2622 2011,2597 2012,2596 2012,2572 2011,2571 2011,2469 2010,2468 2010,2401 2011,2400 2011,2396 2010,2395 2010,2385 2011,2384 2011,2372 2010,2371 2010,2369 2009,2368 2009,2367 2007,2365 2006,2365 2005,2364 2003,2364 2002,2363 1977,2363 1976,2362 1975,2362 1974,2363 1948,2363 1947,2362 1930,2362 1929,2363 1923,2363 1922,2364 1909,2364 1908,2363 1839,2363 1838,2362 1828,2362 1827,2363 1804,2363 1803,2362 1792,2362 1791,2361 1786,2361 1785,2360 1784,2361 1780,2361 1779,2362 1776,2362 1775,2363 1757,2363 1756,2362 1747,2362 1746,2361 1735,2361 1734,2362 1727,2362 1726,2363 1723,2363 1722,2362 1720,2362 1719,2361 1716,2361 1715,2360 1712,2360 1711,2359" fill="rgba(88,59,13,0.3)" stroke="rgb(88,59,13)" stroke-width="2" data-block-id="0017" data-name="b-0023" /><text x="1803" y="2489" text-anchor="middle" dominant-baseline="middle" class="block-label" fill="rgb(88,59,13)" stroke="white" stroke-width="3" paint-order="stroke">b-0023</text><polygon points="3551,1431 3550,1432 3545,1432 3544,1433 3543,1433 3543,1435 3542,1436 3542,1462 3541,1463 3541,1492 3540,1493 3541,1494 3541,1569 3540,1570 3540,1680 3541,1681 3541,1682 3540,1683 3540,1734 3539,1735 3539,1760 3540,1761 3540,1766 3542,1768 3543,1768 3544,1769 3607,1769 3608,1770 3618,1770 3619,1769 3763,1769 3764,1768 3805,1768 3806,1769 3904,1769 3905,1768 3909,1768 3911,1766 3911,1763 3912,1762 3912,1743 3913,1742 3913,1723 3912,1722 3912,1709 3913,1708 3912,1707 3912,1690 3913,1689 3913,1639 3914,1638 3914,1631 3913,1630 3913,1616 3914,1615 3914,1571 3913,1570 3913,1448 3914,1447 3914,1445 3913,1444 3913,1439 3912,1438 3912,1436 3911,1435 3911,1434 3909,1432 3905,1432 3904,1431 3843,1431 3842,1432 3838,1432 3837,1431 3818,1431 3817,1432 3813,1432 3812,1431 3782,1431 3781,1432 3776,1432 3775,1431 3753,1431 3752,1432 3733,1432 3732,1431 3695,1431 3694,1432 3580,1432 3579,1431" fill="rgba(89,52,129,0.3)" stroke="rgb(89,52,129)" stroke-width="2" data-block-id="0018" data-name="b-0025" /><text x="3750" y="1576" text-anchor="middle" dominant-baseline="middle" class="block-label" fill="rgb(89,52,129)" stroke="white" stroke-width="3" paint-order="stroke">b-0025</text><polygon points="2876,1426 2875,1427 2867,1427 2866,1428 2837,1428 2836,1427 2834,1427 2833,1428 2813,1428 2812,1427 2801,1427 2800,1428 2789,1428 2788,1429 2784,1429 2783,1428 2733,1428 2732,1429 2722,1429 2721,1428 2700,1428 2699,1427 2691,1427 2690,1428 2682,1428 2681,1429 2676,1429 2675,1428 2630,1428 2629,1429 2618,1429 2617,1430 2615,1430 2613,1432 2612,1432 2612,1433 2611,1434 2611,1436 2610,1437 2610,1439 2609,1440 2609,1445 2608,1446 2608,1463 2609,1464 2609,1509 2608,1510 2608,1557 2607,1558 2607,1573 2608,1574 2608,1599 2607,1600 2607,1625 2608,1626 2608,1635 2609,1636 2608,1637 2608,1647 2607,1648 2607,1652 2608,1653 2608,1660 2607,1661 2607,1726 2608,1727 2608,1737 2607,1738 2607,1757 2608,1758 2608,1760 2609,1761 2609,1762 2610,1763 2610,1764 2611,1764 2612,1765 2613,1765 2614,1766 2616,1766 2617,1767 2627,1767 2628,1766 2633,1766 2634,1767 2648,1767 2649,1768 2665,1768 2666,1767 2675,1767 2676,1766 2712,1766 2713,1767 2716,1767 2717,1766 2733,1766 2734,1767 2751,1767 2752,1766 2787,1766 2788,1767 2799,1767 2800,1768 2884,1768 2885,1767 2895,1767 2896,1768 2935,1768 2936,1769 2952,1769 2953,1768 2964,1768 2965,1767 2968,1767 2969,1766 2971,1766 2973,1764 2973,1763 2974,1762 2974,1757 2975,1756 2975,1648 2976,1647 2976,1586 2977,1585 2977,1559 2978,1558 2978,1509 2979,1508 2979,1495 2980,1494 2980,1478 2979,1477 2979,1450 2980,1449 2980,1439 2979,1438 2979,1432 2978,1431 2978,1430 2975,1427 2970,1427 2969,1426 2939,1426 2938,1427 2920,1427 2919,1428 2908,1428 2907,1427 2889,1427 2888,1426" fill="rgba(83,91,110,0.3)" stroke="rgb(83,91,110)" stroke-width="2" data-block-id="0019" data-name="b-0026" /><text x="2763" y="1588" text-anchor="middle" dominant-baseline="middle" class="block-label" fill="rgb(83,91,110)" stroke="white" stroke-width="3" paint-order="stroke">b-0026</text><polygon points="3087,1428 3086,1429 3082,1429 3081,1430 3078,1430 3077,1431 3076,1431 3074,1433 3074,1439 3073,1440 3073,1452 3074,1453 3074,1459 3073,1460 3073,1477 3074,1478 3074,1514 3073,1515 3073,1566 3072,1567 3072,1580 3073,1581 3073,1616 3074,1617 3074,1631 3073,1632 3073,1642 3072,1643 3072,1653 3073,1654 3073,1715 3074,1716 3074,1747 3073,1748 3073,1756 3074,1757 3074,1762 3075,1763 3075,1765 3078,1768 3081,1768 3082,1769 3097,1769 3098,1768 3116,1768 3117,1769 3156,1769 3157,1770 3162,1770 3163,1769 3172,1769 3173,1768 3177,1768 3178,1769 3192,1769 3193,1770 3208,1770 3209,1769 3214,1769 3215,1768 3244,1768 3245,1769 3359,1769 3360,1768 3371,1768 3372,1769 3375,1769 3376,1768 3397,1768 3398,1769 3423,1769 3424,1768 3437,1768 3438,1767 3440,1767 3441,1766 3442,1766 3444,1764 3444,1761 3445,1760 3445,1736 3444,1735 3444,1724 3445,1723 3445,1627 3444,1626 3444,1622 3445,1621 3445,1611 3446,1610 3446,1596 3445,1595 3445,1584 3444,1583 3444,1571 3443,1570 3443,1527 3444,1526 3444,1516 3445,1515 3445,1512 3444,1511 3444,1439 3443,1438 3443,1434 3441,1432 3441,1431 3440,1431 3439,1430 3438,1430 3437,1429 3405,1429 3404,1430 3325,1430 3324,1429 3272,1429 3271,1430 3238,1430 3237,1431 3233,1431 3232,1432 3228,1432 3227,1431 3207,1431 3206,1430 3200,1430 3199,1429 3184,1429 3183,1430 3177,1430 3176,1431 3165,1431 3164,1430 3142,1430 3141,1429 3132,1429 3131,1430 3100,1430 3099,1429 3091,1429 3090,1428" fill="rgba(241,249,8,0.3)" stroke="rgb(241,249,8)" stroke-width="2" data-block-id="0020" data-name="b-0024" /><text x="3240" y="1594" text-anchor="middle" dominant-baseline="middle" class="block-label" fill="rgb(241,249,8)" stroke="white" stroke-width="3" paint-order="stroke">b-0024</text></g>
</svg>