<?xml version='1.0' encoding='utf-8'?>
<svg xmlns="http://www.w3.org/2000/svg" xmlns:atlas="http://example.com/atlas" width="4984" height="3304" viewBox="0 0 4984 3304">
  
  <metadata>
    <atlas:source>
      <atlas:jp2-path>/Users/pwright/workspace/atlas/media/v2/p12.jp2</atlas:jp2-path>
      <atlas:volume>unknown</atlas:volume>
      <atlas:plate-id>p12</atlas:plate-id>
      <atlas:image-width>4984</atlas:image-width>
      <atlas:image-height>3304</atlas:image-height>
    </atlas:source>
  </metadata>

  
  <image id="background" href="file:///Users/pwright/workspace/atlas/media/v2/p12.jp2" width="4984" height="3304" opacity="0.5" />

  <style>
    .block-label { font-family: sans-serif; font-size: 14px; font-weight: bold; }
  </style>

  
  <g id="blocks">
    <polygon points="2591,2634 2590,2635 2582,2635 2581,2636 2573,2636 2572,2637 2559,2637 2558,2638 2551,2638 2550,2639 2540,2639 2539,2640 2528,2640 2527,2641 2511,2641 2510,2642 2498,2642 2497,2641 2482,2641 2481,2640 2463,2640 2462,2641 2434,2641 2433,2642 2342,2642 2341,2643 2329,2643 2328,2642 2302,2642 2301,2641 2292,2641 2291,2642 2262,2642 2261,2641 2166,2641 2165,2640 2147,2640 2146,2639 2140,2639 2139,2640 2063,2640 2062,2639 1971,2639 1970,2638 1939,2638 1938,2639 1866,2639 1865,2640 1862,2640 1861,2641 1860,2641 1857,2644 1857,2645 1856,2646 1856,2655 1855,2656 1855,2664 1856,2665 1856,2684 1855,2685 1855,2714 1856,2715 1856,2723 1855,2724 1855,2731 1854,2732 1854,2738 1853,2739 1853,2749 1854,2750 1854,2771 1855,2772 1855,2903 1854,2904 1854,2992 1855,2993 1855,2996 1856,2997 1856,2998 1859,3001 1860,3001 1861,3002 1862,3002 1863,3003 1866,3003 1867,3004 1911,3004 1912,3005 1982,3005 1983,3004 1995,3004 1996,3005 2044,3005 2045,3006 2065,3006 2066,3007 2089,3007 2090,3008 2103,3008 2104,3009 2107,3009 2108,3008 2123,3008 2124,3007 2174,3007 2175,3008 2205,3008 2206,3007 2279,3007 2280,3008 2309,3008 2310,3007 2367,3007 2368,3008 2382,3008 2383,3007 2452,3007 2453,3008 2460,3008 2461,3009 2474,3009 2475,3008 2479,3008 2480,3007 2491,3007 2492,3006 2511,3006 2512,3005 2529,3005 2530,3004 2551,3004 2552,3003 2559,3003 2560,3002 2566,3002 2567,3001 2573,3001 2574,3000 2579,3000 2580,2999 2585,2999 2586,2998 2591,2998 2592,2997 2597,2997 2598,2996 2603,2996 2604,2995 2620,2995 2621,2996 2622,2996 2623,2997 2624,2997 2625,2998 2626,2998 2627,2999 2629,2999 2630,3000 2632,3000 2633,3001 2655,3001 2656,3002 2668,3002 2669,3003 2674,3003 2675,3004 2679,3004 2680,3005 2696,3005 2697,3006 2703,3006 2704,3007 2721,3007 2722,3008 2726,3008 2727,3009 2734,3009 2735,3008 2813,3008 2814,3009 2826,3009 2827,3008 2932,3008 2933,3009 2955,3009 2956,3008 2979,3008 2980,3007 3006,3007 3007,3006 3010,3006 3011,3005 3012,3005 3014,3003 3015,3003 3015,3002 3017,3000 3017,2999 3018,2998 3018,2997 3019,2996 3019,2995 3020,2994 3020,2964 3019,2963 3019,2946 3020,2945 3020,2915 3019,2914 3019,2903 3018,2902 3018,2887 3017,2886 3017,2858 3018,2857 3018,2843 3017,2842 3017,2834 3018,2833 3018,2820 3017,2819 3017,2785 3018,2784 3018,2777 3019,2776 3019,2766 3020,2765 3020,2736 3019,2735 3019,2715 3018,2714 3018,2693 3019,2692 3019,2688 3020,2687 3020,2684 3021,2683 3021,2666 3020,2665 3020,2657 3019,2656 3019,2653 3018,2652 3018,2649 3017,2648 3017,2646 3016,2645 3016,2644 3013,2641 3012,2641 3011,2640 3005,2640 3004,2639 2997,2639 2996,2640 2963,2640 2962,2639 2935,2639 2934,2640 2917,2640 2916,2639 2760,2639 2759,2638 2746,2638 2745,2639 2722,2639 2721,2638 2707,2638 2706,2637 2683,2637 2682,2636 2672,2636 2671,2635 2654,2635 2653,2634 2623,2634 2622,2635 2616,2635 2615,2634" fill="rgba(188,20,102,0.3)" stroke="rgb(188,20,102)" stroke-width="2" data-block-id="0001" data-name="b-0004" /><text x="2528" y="2836" text-anchor="middle" dominant-baseline="middle" class="block-label" fill="rgb(188,20,102)" stroke="white" stroke-width="3" paint-order="stroke">b-0004</text><polygon points="2844,273 2843,274 2842,274 2841,275 2840,275 2837,278 2837,279 2836,280 2835,280 2834,281 2832,281 2831,280 2827,280 2826,279 2822,279 2821,278 2819,278 2818,277 2815,277 2814,276 2803,276 2802,275 2790,275 2789,276 2771,276 2770,275 2766,275 2765,274 2752,274 2751,275 2743,275 2742,276 2735,276 2734,277 2721,277 2720,278 2704,278 2703,279 2696,279 2695,280 2685,280 2684,281 2675,281 2674,282 2666,282 2665,283 2652,283 2651,284 2646,284 2645,285 2639,285 2638,284 2630,284 2629,285 2626,285 2625,286 2622,286 2621,287 2612,287 2611,288 2609,288 2608,287 2604,287 2603,286 2600,286 2599,285 2595,285 2594,284 2590,284 2589,283 2584,283 2583,282 2575,282 2574,281 2568,281 2567,280 2563,280 2562,279 2551,279 2550,278 2505,278 2504,277 2401,277 2400,278 2329,278 2328,279 2319,279 2318,278 2218,278 2217,277 2202,277 2201,278 2200,277 2188,277 2187,278 2174,278 2173,277 2121,277 2120,276 2119,277 2110,277 2109,278 2098,278 2097,277 2092,277 2091,278 2073,278 2072,277 2068,277 2067,278 1990,278 1989,279 1985,279 1984,278 1952,278 1951,279 1933,279 1932,278 1924,278 1923,279 1877,279 1876,280 1871,280 1870,281 1869,281 1867,283 1867,284 1866,285 1866,288 1865,289 1865,297 1864,298 1864,311 1865,312 1865,317 1864,318 1864,442 1863,443 1863,450 1864,451 1864,515 1863,516 1863,525 1864,526 1864,532 1863,533 1863,550 1864,551 1864,556 1863,557 1863,612 1862,613 1862,616 1863,617 1863,628 1864,629 1864,631 1865,632 1865,633 1866,634 1866,635 1868,637 1870,637 1871,638 1875,638 1876,639 1899,639 1900,640 2023,640 2024,639 2098,639 2099,638 2119,638 2120,639 2124,639 2125,638 2130,638 2131,639 2146,639 2147,638 2162,638 2163,639 2172,639 2173,638 2195,638 2196,639 2209,639 2210,638 2229,638 2230,639 2282,639 2283,638 2304,638 2305,637 2310,637 2311,638 2315,638 2316,639 2324,639 2325,640 2360,640 2361,639 2375,639 2376,638 2382,638 2383,639 2432,639 2433,640 2440,640 2441,641 2444,641 2445,642 2450,642 2451,643 2455,643 2456,642 2464,642 2465,641 2470,641 2471,640 2490,640 2491,641 2516,641 2517,642 2541,642 2542,643 2552,643 2553,644 2561,644 2562,645 2579,645 2580,646 2591,646 2592,645 2598,645 2599,646 2606,646 2607,647 2617,647 2618,648 2619,647 2626,647 2627,646 2635,646 2636,645 2646,645 2647,644 2665,644 2666,643 2701,643 2702,642 2719,642 2720,641 2771,641 2772,640 2849,640 2850,639 2866,639 2867,640 2903,640 2904,641 2905,641 2906,640 2936,640 2937,641 2950,641 2951,642 2981,642 2982,641 2989,641 2990,640 3005,640 3006,639 3011,639 3012,638 3013,638 3016,635 3016,634 3017,633 3017,632 3018,631 3018,630 3019,629 3019,628 3020,627 3020,625 3021,624 3020,623 3020,614 3019,613 3019,609 3018,608 3018,604 3017,603 3017,568 3018,567 3018,534 3017,533 3017,503 3016,502 3016,492 3017,491 3017,486 3018,485 3018,459 3017,458 3017,446 3016,445 3016,426 3017,425 3017,401 3018,400 3018,389 3017,388 3017,372 3016,371 3016,333 3017,332 3017,325 3018,324 3018,313 3017,312 3017,304 3016,303 3016,294 3015,293 3015,288 3014,287 3014,285 3013,284 3013,282 3012,281 3012,280 3010,278 3008,278 3007,277 3005,277 3004,276 2956,276 2955,275 2912,275 2911,274 2900,274 2899,275 2890,275 2889,276 2867,276 2866,275 2862,275 2861,274 2858,274 2857,273" fill="rgba(121,210,214,0.3)" stroke="rgb(121,210,214)" stroke-width="2" data-block-id="0002" data-name="b-0005" /><text x="2531" y="447" text-anchor="middle" dominant-baseline="middle" class="block-label" fill="rgb(121,210,214)" stroke="white" stroke-width="3" paint-order="stroke">b-0005</text><polygon points="2390,2165 2389,2166 2349,2166 2348,2167 2344,2167 2343,2166 2328,2166 2327,2167 2324,2167 2323,2168 2315,2168 2314,2167 2306,2167 2305,2168 2278,2168 2277,2169 2269,2169 2268,2168 2254,2168 2253,2169 2248,2169 2247,2168 2233,2168 2232,2169 2227,2169 2226,2170 2221,2170 2220,2169 2193,2169 2192,2168 2190,2168 2189,2169 2184,2169 2183,2170 2175,2170 2174,2169 2171,2169 2170,2168 2136,2168 2135,2169 2127,2169 2126,2168 2088,2168 2087,2169 2080,2169 2079,2168 2075,2168 2074,2167 2063,2167 2062,2168 2040,2168 2039,2169 2033,2169 2032,2168 2029,2168 2028,2167 1942,2167 1941,2168 1939,2168 1938,2167 1900,2167 1899,2168 1873,2168 1872,2169 1866,2169 1865,2170 1864,2170 1863,2171 1862,2171 1860,2173 1860,2174 1858,2176 1858,2177 1857,2178 1857,2181 1856,2182 1856,2189 1857,2190 1857,2208 1856,2209 1856,2262 1855,2263 1855,2266 1856,2267 1856,2305 1855,2306 1855,2361 1856,2362 1856,2392 1857,2393 1857,2396 1856,2397 1856,2407 1855,2408 1855,2409 1856,2410 1856,2439 1857,2440 1857,2446 1856,2447 1856,2465 1857,2466 1857,2470 1856,2471 1856,2515 1857,2516 1857,2518 1858,2519 1858,2520 1861,2523 1862,2523 1863,2524 1865,2524 1866,2525 1982,2525 1983,2526 2025,2526 2026,2525 2047,2525 2048,2526 2060,2526 2061,2525 2099,2525 2100,2526 2113,2526 2114,2527 2173,2527 2174,2526 2180,2526 2181,2527 2235,2527 2236,2528 2240,2528 2241,2527 2256,2527 2257,2528 2334,2528 2335,2529 2362,2529 2363,2530 2370,2530 2371,2531 2394,2531 2395,2530 2399,2530 2400,2529 2408,2529 2409,2528 2461,2528 2462,2527 2500,2527 2501,2526 2517,2526 2518,2525 2528,2525 2529,2524 2546,2524 2547,2525 2549,2525 2550,2524 2558,2524 2559,2523 2567,2523 2568,2522 2578,2522 2579,2521 2597,2521 2598,2520 2605,2520 2606,2519 2609,2519 2610,2520 2617,2520 2618,2521 2633,2521 2634,2522 2644,2522 2645,2523 2665,2523 2666,2524 2683,2524 2684,2525 2702,2525 2703,2526 2742,2526 2743,2527 2791,2527 2792,2528 2816,2528 2817,2529 2825,2529 2826,2528 2831,2528 2832,2527 2839,2527 2840,2528 2918,2528 2919,2527 2932,2527 2933,2528 2955,2528 2956,2527 2991,2527 2992,2526 3003,2526 3004,2525 3005,2525 3006,2524 3007,2524 3008,2523 3009,2523 3011,2521 3011,2520 3013,2518 3013,2516 3014,2515 3014,2466 3015,2465 3015,2462 3016,2461 3016,2457 3017,2456 3017,2449 3018,2448 3018,2440 3017,2439 3017,2414 3016,2413 3016,2398 3015,2397 3015,2374 3016,2373 3016,2346 3015,2345 3015,2297 3016,2296 3016,2285 3017,2284 3017,2252 3016,2251 3016,2224 3015,2223 3015,2180 3014,2179 3014,2176 3013,2175 3013,2174 3012,2173 3012,2172 3010,2170 3008,2170 3007,2169 3002,2169 3001,2168 2975,2168 2974,2169 2869,2169 2868,2168 2857,2168 2856,2167 2842,2167 2841,2168 2828,2168 2827,2167 2814,2167 2813,2168 2806,2168 2805,2167 2797,2167 2796,2168 2730,2168 2729,2167 2717,2167 2716,2168 2701,2168 2700,2167 2645,2167 2644,2166 2611,2166 2610,2167 2606,2167 2605,2166 2590,2166 2589,2167 2573,2167 2572,2168 2523,2168 2522,2169 2508,2169 2507,2168 2475,2168 2474,2169 2431,2169 2430,2168 2425,2168 2424,2169 2415,2169 2414,2168 2407,2168 2406,2167 2401,2167 2400,2166 2393,2166 2392,2165" fill="rgba(74,202,87,0.3)" stroke="rgb(74,202,87)" stroke-width="2" data-block-id="0003" data-name="b-0006" /><text x="2433" y="2335" text-anchor="middle" dominant-baseline="middle" class="block-label" fill="rgb(74,202,87)" stroke="white" stroke-width="3" paint-order="stroke">b-0006</text><polygon points="1959,1693 1958,1694 1909,1694 1908,1695 1865,1695 1864,1696 1863,1696 1862,1697 1861,1697 1860,1698 1860,1699 1858,1701 1858,1783 1857,1784 1857,1827 1856,1828 1856,1834 1855,1835 1855,1838 1856,1839 1856,1866 1857,1867 1857,1875 1856,1876 1856,1892 1857,1893 1857,1900 1856,1901 1856,1908 1857,1909 1857,1951 1856,1952 1856,1956 1857,1957 1857,1975 1856,1976 1856,1981 1857,1982 1857,1999 1856,2000 1856,2004 1857,2005 1857,2018 1856,2019 1856,2038 1857,2039 1857,2042 1858,2043 1858,2045 1859,2046 1859,2047 1861,2049 1862,2049 1863,2050 1864,2050 1865,2051 1901,2051 1902,2052 1932,2052 1933,2051 1994,2051 1995,2050 2000,2050 2001,2051 2005,2051 2006,2052 2065,2052 2066,2051 2072,2051 2073,2052 2083,2052 2084,2053 2086,2053 2087,2052 2112,2052 2113,2051 2125,2051 2126,2052 2139,2052 2140,2051 2141,2051 2142,2052 2210,2052 2211,2051 2215,2051 2216,2052 2290,2052 2291,2053 2313,2053 2314,2054 2335,2054 2336,2053 2552,2053 2553,2054 2560,2054 2561,2053 2567,2053 2568,2052 2575,2052 2576,2051 2589,2051 2590,2050 2623,2050 2624,2051 2676,2051 2677,2052 2694,2052 2695,2051 2721,2051 2722,2052 2747,2052 2748,2051 2762,2051 2763,2052 2791,2052 2792,2051 2812,2051 2813,2052 2831,2052 2832,2051 2835,2051 2836,2052 2843,2052 2844,2053 2864,2053 2865,2052 2962,2052 2963,2051 3004,2051 3005,2050 3008,2050 3009,2049 3011,2049 3012,2048 3013,2048 3015,2046 3015,2045 3016,2044 3016,2043 3017,2042 3017,2041 3018,2040 3018,1999 3019,1998 3019,1984 3018,1983 3018,1914 3019,1913 3019,1820 3018,1819 3018,1740 3019,1739 3019,1732 3020,1731 3020,1712 3019,1711 3019,1704 3018,1703 3018,1701 3017,1700 3017,1698 3015,1696 3015,1695 3014,1695 3013,1694 2936,1694 2935,1695 2917,1695 2916,1694 2897,1694 2896,1693 2895,1694 2887,1694 2886,1695 2878,1695 2877,1694 2840,1694 2839,1695 2822,1695 2821,1696 2812,1696 2811,1697 2787,1697 2786,1696 2783,1696 2782,1697 2765,1697 2764,1696 2742,1696 2741,1697 2738,1697 2737,1696 2728,1696 2727,1695 2684,1695 2683,1694 2657,1694 2656,1695 2648,1695 2647,1696 2633,1696 2632,1695 2614,1695 2613,1694 2576,1694 2575,1695 2556,1695 2555,1696 2539,1696 2538,1695 2508,1695 2507,1696 2386,1696 2385,1695 2368,1695 2367,1696 2364,1696 2363,1697 2361,1697 2360,1698 2354,1698 2353,1697 2351,1697 2350,1696 2347,1696 2346,1695 2340,1695 2339,1696 2299,1696 2298,1695 2271,1695 2270,1696 2266,1696 2265,1697 2258,1697 2257,1696 2252,1696 2251,1695 2248,1695 2247,1696 2219,1696 2218,1697 2211,1697 2210,1696 2191,1696 2190,1697 2183,1697 2182,1698 2176,1698 2175,1697 2174,1697 2173,1696 2169,1696 2168,1695 2147,1695 2146,1696 2134,1696 2133,1695 2109,1695 2108,1696 2104,1696 2103,1695 2042,1695 2041,1696 2033,1696 2032,1695 2029,1695 2028,1694 2024,1694 2023,1693 2007,1693 2006,1694 1995,1694 1994,1695 1983,1695 1982,1694 1969,1694 1968,1693" fill="rgba(116,99,103,0.3)" stroke="rgb(116,99,103)" stroke-width="2" data-block-id="0004" data-name="b-0007" /><text x="2386" y="1853" text-anchor="middle" dominant-baseline="middle" class="block-label" fill="rgb(116,99,103)" stroke="white" stroke-width="3" paint-order="stroke">b-0007</text><polygon points="2212,1214 2211,1215 2206,1215 2205,1216 2191,1216 2189,1218 2189,1219 2183,1225 2182,1225 2181,1226 2180,1226 2179,1227 2177,1227 2176,1226 2175,1226 2174,1225 2172,1225 2171,1224 2151,1224 2150,1225 2148,1225 2147,1226 2145,1226 2144,1227 2135,1227 2134,1226 2099,1226 2098,1227 2088,1227 2087,1226 2009,1226 2008,1225 2000,1225 1999,1224 1980,1224 1979,1223 1970,1223 1969,1224 1892,1224 1891,1223 1869,1223 1868,1224 1866,1224 1862,1228 1862,1229 1861,1230 1861,1232 1860,1233 1860,1237 1859,1238 1859,1252 1858,1253 1858,1304 1857,1305 1857,1331 1858,1332 1858,1350 1857,1351 1857,1390 1858,1391 1858,1395 1857,1396 1857,1436 1858,1437 1858,1448 1857,1449 1857,1457 1858,1458 1858,1479 1857,1480 1857,1544 1856,1545 1856,1554 1857,1555 1857,1569 1858,1570 1858,1573 1859,1574 1859,1575 1861,1577 1862,1577 1863,1578 1864,1578 1865,1579 1868,1579 1869,1580 1888,1580 1889,1579 1897,1579 1898,1580 1910,1580 1911,1581 1936,1581 1937,1580 1950,1580 1951,1581 1963,1581 1964,1582 2005,1582 2006,1583 2029,1583 2030,1582 2066,1582 2067,1583 2071,1583 2072,1582 2098,1582 2099,1581 2145,1581 2146,1582 2169,1582 2170,1581 2175,1581 2176,1580 2184,1580 2185,1581 2195,1581 2196,1582 2208,1582 2209,1581 2218,1581 2219,1582 2227,1582 2228,1583 2275,1583 2276,1582 2302,1582 2303,1583 2323,1583 2324,1582 2338,1582 2339,1583 2349,1583 2350,1582 2355,1582 2356,1581 2359,1581 2360,1582 2462,1582 2463,1583 2473,1583 2474,1582 2478,1582 2479,1583 2514,1583 2515,1582 2576,1582 2577,1583 2583,1583 2584,1584 2589,1584 2590,1583 2688,1583 2689,1582 2694,1582 2695,1583 2702,1583 2703,1584 2709,1584 2710,1583 2730,1583 2731,1582 2746,1582 2747,1583 2780,1583 2781,1582 2793,1582 2794,1583 2806,1583 2807,1582 2820,1582 2821,1581 2876,1581 2877,1580 2887,1580 2888,1581 2928,1581 2929,1580 2932,1580 2933,1581 2948,1581 2949,1580 3001,1580 3002,1579 3009,1579 3010,1578 3012,1578 3015,1575 3015,1574 3016,1573 3016,1566 3017,1565 3017,1551 3016,1550 3016,1544 3017,1543 3017,1533 3016,1532 3016,1435 3015,1434 3015,1420 3016,1419 3016,1417 3015,1416 3015,1279 3016,1278 3016,1238 3015,1237 3015,1233 3014,1232 3014,1230 3013,1229 3013,1228 3010,1225 3008,1225 3007,1224 3001,1224 3000,1223 2999,1224 2915,1224 2914,1223 2889,1223 2888,1224 2876,1224 2875,1223 2849,1223 2848,1224 2817,1224 2816,1223 2801,1223 2800,1224 2792,1224 2791,1225 2789,1225 2788,1226 2785,1226 2784,1225 2782,1225 2781,1224 2694,1224 2693,1225 2662,1225 2661,1226 2649,1226 2648,1227 2636,1227 2635,1228 2624,1228 2623,1229 2615,1229 2614,1228 2604,1228 2603,1229 2591,1229 2590,1228 2569,1228 2568,1227 2519,1227 2518,1226 2454,1226 2453,1225 2438,1225 2437,1226 2430,1226 2429,1227 2422,1227 2421,1226 2395,1226 2394,1225 2373,1225 2372,1226 2370,1226 2369,1225 2364,1225 2363,1224 2320,1224 2319,1223 2312,1223 2311,1222 2296,1222 2295,1221 2293,1221 2292,1220 2291,1220 2289,1218 2288,1218 2287,1217 2287,1216 2286,1216 2285,1215 2279,1215 2278,1216 2271,1216 2270,1215 2267,1215 2266,1214 2258,1214 2257,1215 2254,1215 2253,1216 2251,1216 2250,1217 2248,1217 2247,1216 2241,1216 2240,1215 2235,1215 2234,1216 2221,1216 2220,1215 2217,1215 2216,1214" fill="rgba(151,130,149,0.3)" stroke="rgb(151,130,149)" stroke-width="2" data-block-id="0005" data-name="b-0008" /><text x="2383" y="1383" text-anchor="middle" dominant-baseline="middle" class="block-label" fill="rgb(151,130,149)" stroke="white" stroke-width="3" paint-order="stroke">b-0008</text><polygon points="2053,750 2052,751 2044,751 2043,752 2037,752 2036,753 2034,753 2033,752 2028,752 2027,751 2011,751 2010,752 2003,752 2002,753 1978,753 1977,752 1943,752 1942,753 1939,753 1938,752 1933,752 1932,751 1868,751 1867,752 1866,752 1863,755 1863,756 1862,757 1862,763 1861,764 1861,799 1860,800 1860,810 1861,811 1861,850 1860,851 1860,865 1861,866 1861,879 1860,880 1860,930 1861,931 1861,940 1860,941 1860,984 1859,985 1859,999 1860,1000 1860,1016 1859,1017 1859,1096 1860,1097 1860,1103 1861,1104 1861,1105 1864,1108 1865,1108 1866,1109 1868,1109 1869,1110 1921,1110 1922,1111 1969,1111 1970,1112 1984,1112 1985,1111 2000,1111 2001,1110 2029,1110 2030,1109 2041,1109 2042,1110 2065,1110 2066,1109 2077,1109 2078,1110 2092,1110 2093,1109 2094,1110 2283,1110 2284,1109 2285,1109 2286,1110 2411,1110 2412,1111 2424,1111 2425,1110 2467,1110 2468,1111 2480,1111 2481,1112 2529,1112 2530,1113 2553,1113 2554,1114 2568,1114 2569,1113 2598,1113 2599,1112 2601,1112 2602,1111 2604,1111 2605,1110 2608,1110 2609,1109 2619,1109 2620,1110 2625,1110 2626,1111 2641,1111 2642,1110 2687,1110 2688,1109 2696,1109 2697,1110 2715,1110 2716,1109 2717,1109 2718,1110 2731,1110 2732,1109 2747,1109 2748,1110 2761,1110 2762,1109 2764,1109 2765,1110 2776,1110 2777,1109 2786,1109 2787,1108 2789,1108 2790,1109 2826,1109 2827,1108 2860,1108 2861,1109 2869,1109 2870,1110 2872,1110 2873,1109 2879,1109 2880,1108 2884,1108 2885,1109 2891,1109 2892,1110 2897,1110 2898,1109 2903,1109 2904,1108 2909,1108 2910,1109 2913,1109 2914,1110 2965,1110 2966,1109 3004,1109 3005,1108 3007,1108 3008,1107 3010,1107 3014,1103 3014,1102 3015,1101 3015,1098 3016,1097 3016,1074 3015,1073 3015,1059 3016,1058 3016,1023 3015,1022 3015,1017 3016,1016 3016,998 3015,997 3015,981 3014,980 3014,963 3015,962 3015,941 3014,940 3014,930 3013,929 3013,918 3014,917 3014,908 3015,907 3015,893 3014,892 3014,811 3015,810 3015,777 3016,776 3016,769 3015,768 3015,766 3014,765 3014,764 3013,763 3013,761 3012,760 3012,759 3011,758 3011,757 3009,755 3008,755 3007,754 3006,754 3005,753 2875,753 2874,752 2849,752 2848,753 2844,753 2843,752 2801,752 2800,753 2792,753 2791,754 2784,754 2783,753 2750,753 2749,754 2743,754 2742,753 2741,753 2740,754 2705,754 2704,755 2695,755 2694,754 2692,754 2691,755 2663,755 2662,756 2652,756 2651,757 2644,757 2643,758 2636,758 2635,759 2630,759 2629,760 2627,760 2626,761 2623,761 2622,762 2618,762 2617,763 2590,763 2589,762 2570,762 2569,761 2565,761 2564,760 2560,760 2559,759 2546,759 2545,758 2537,758 2536,757 2524,757 2523,756 2511,756 2510,755 2461,755 2460,754 2417,754 2416,753 2373,753 2372,754 2360,754 2359,753 2358,753 2357,754 2337,754 2336,753 2332,753 2331,754 2315,754 2314,753 2241,753 2240,754 2235,754 2234,753 2172,753 2171,752 2159,752 2158,751 2147,751 2146,750" fill="rgba(52,1,87,0.3)" stroke="rgb(52,1,87)" stroke-width="2" data-block-id="0006" data-name="b-0009" /><text x="2510" y="925" text-anchor="middle" dominant-baseline="middle" class="block-label" fill="rgb(52,1,87)" stroke="white" stroke-width="3" paint-order="stroke">b-0009</text><polygon points="1649,2637 1648,2638 1621,2638 1620,2639 1573,2639 1572,2638 1570,2638 1569,2639 1565,2639 1564,2640 1562,2640 1561,2641 1560,2641 1559,2642 1553,2642 1552,2641 1526,2641 1525,2642 1516,2642 1515,2641 1496,2641 1495,2642 1491,2642 1490,2643 1488,2643 1487,2644 1470,2644 1469,2643 1466,2643 1465,2642 1459,2642 1458,2643 1454,2643 1453,2644 1443,2644 1442,2643 1412,2643 1411,2642 1388,2642 1387,2643 1382,2643 1381,2644 1374,2644 1373,2643 1350,2643 1349,2642 1345,2642 1344,2641 1323,2641 1322,2640 1286,2640 1285,2641 1284,2641 1283,2640 1265,2640 1264,2641 1261,2641 1260,2642 1256,2642 1255,2641 1250,2641 1249,2640 1243,2640 1242,2641 1217,2641 1216,2642 1207,2642 1206,2641 1147,2641 1146,2642 1141,2642 1140,2643 1107,2643 1106,2642 1076,2642 1075,2641 1049,2641 1048,2642 1037,2642 1036,2643 1030,2643 1029,2642 1022,2642 1021,2641 1016,2641 1015,2642 1003,2642 1002,2641 996,2641 995,2642 991,2642 990,2643 987,2643 986,2644 983,2644 982,2643 981,2643 980,2642 979,2642 978,2641 975,2641 974,2640 968,2640 967,2641 941,2641 940,2640 912,2640 911,2641 892,2641 891,2640 888,2640 887,2641 879,2641 878,2642 866,2642 865,2641 858,2641 857,2640 850,2640 849,2641 846,2641 845,2642 843,2642 842,2643 840,2643 839,2642 837,2642 836,2641 833,2641 832,2640 820,2640 819,2641 784,2641 783,2640 778,2640 777,2641 758,2641 757,2642 743,2642 742,2641 717,2641 716,2642 714,2642 713,2643 711,2643 710,2644 707,2644 706,2645 697,2645 695,2643 694,2643 693,2642 692,2642 691,2641 689,2641 688,2640 682,2640 681,2641 675,2641 674,2642 625,2642 624,2643 617,2643 616,2644 597,2644 596,2643 565,2643 564,2644 563,2644 562,2645 561,2645 558,2648 558,2657 557,2658 557,2661 556,2662 556,2664 555,2665 555,2668 554,2669 554,2676 555,2677 555,2689 554,2690 554,2699 555,2700 555,2710 554,2711 554,2714 553,2715 553,2724 554,2725 554,2738 553,2739 553,2746 554,2747 554,2759 553,2760 553,2831 552,2832 552,2850 553,2851 553,2889 554,2890 554,2918 555,2919 555,2923 554,2924 554,2992 555,2993 555,2994 556,2995 556,2996 557,2996 559,2998 561,2998 562,2999 563,2999 564,3000 574,3000 575,3001 600,3001 601,3002 610,3002 611,3001 617,3001 618,3002 648,3002 649,3003 657,3003 658,3002 667,3002 668,3003 675,3003 676,3002 688,3002 689,3003 693,3003 694,3004 696,3004 697,3005 701,3005 702,3004 729,3004 730,3003 752,3003 753,3002 759,3002 760,3003 764,3003 765,3004 777,3004 778,3003 802,3003 803,3002 808,3002 809,3003 828,3003 829,3002 850,3002 851,3003 868,3003 869,3002 879,3002 880,3001 903,3001 904,3002 907,3002 908,3003 910,3003 911,3004 923,3004 924,3003 932,3003 933,3002 939,3002 940,3003 947,3003 948,3004 966,3004 967,3005 973,3005 974,3004 978,3004 979,3003 982,3003 983,3002 990,3002 991,3003 1023,3003 1024,3002 1049,3002 1050,3003 1075,3003 1076,3002 1113,3002 1114,3003 1118,3003 1119,3002 1132,3002 1133,3003 1148,3003 1149,3004 1171,3004 1172,3003 1205,3003 1206,3002 1215,3002 1216,3003 1220,3003 1221,3004 1227,3004 1228,3005 1249,3005 1250,3004 1264,3004 1265,3003 1303,3003 1304,3002 1311,3002 1312,3003 1347,3003 1348,3002 1360,3002 1361,3003 1370,3003 1371,3002 1417,3002 1418,3001 1446,3001 1447,3002 1469,3002 1470,3001 1508,3001 1509,3000 1529,3000 1530,2999 1537,2999 1538,3000 1551,3000 1552,2999 1562,2999 1563,3000 1592,3000 1593,2999 1665,2999 1666,2998 1669,2998 1670,2997 1672,2997 1673,2996 1675,2996 1678,2993 1678,2989 1679,2988 1679,2965 1678,2964 1678,2938 1677,2937 1677,2915 1676,2914 1676,2906 1677,2905 1677,2871 1676,2870 1676,2842 1675,2841 1675,2804 1674,2803 1674,2773 1673,2772 1673,2760 1674,2759 1674,2751 1673,2750 1673,2740 1674,2739 1674,2735 1675,2734 1675,2702 1674,2701 1674,2690 1675,2689 1675,2685 1676,2684 1676,2680 1675,2679 1675,2674 1674,2673 1674,2668 1675,2667 1675,2651 1674,2650 1674,2645 1673,2644 1673,2643 1669,2639 1667,2639 1666,2638 1657,2638 1656,2637" fill="rgba(235,157,37,0.3)" stroke="rgb(235,157,37)" stroke-width="2" data-block-id="0007" data-name="b-0010" /><text x="1081" y="2796" text-anchor="middle" dominant-baseline="middle" class="block-label" fill="rgb(235,157,37)" stroke="white" stroke-width="3" paint-order="stroke">b-0010</text><polygon points="637,2165 636,2166 609,2166 608,2167 597,2167 596,2166 586,2166 585,2167 568,2167 567,2168 565,2168 563,2170 563,2171 562,2172 562,2173 561,2174 561,2175 560,2176 560,2178 559,2179 559,2192 560,2193 560,2205 559,2206 559,2208 558,2209 558,2212 557,2213 557,2262 556,2263 556,2269 557,2270 557,2321 556,2322 556,2326 557,2327 557,2332 558,2333 558,2350 557,2351 557,2380 558,2381 558,2389 557,2390 557,2416 558,2417 558,2448 559,2449 559,2464 558,2465 558,2469 559,2470 559,2481 560,2482 560,2499 559,2500 559,2516 560,2517 560,2518 561,2519 562,2519 564,2521 565,2521 566,2522 568,2522 569,2523 572,2523 573,2524 576,2524 577,2525 617,2525 618,2526 621,2526 622,2527 624,2527 625,2528 644,2528 645,2527 653,2527 654,2526 668,2526 669,2527 677,2527 678,2526 682,2526 683,2525 767,2525 768,2526 771,2526 772,2525 793,2525 794,2526 826,2526 827,2525 830,2525 831,2526 929,2526 930,2527 944,2527 945,2526 951,2526 952,2527 961,2527 962,2528 1006,2528 1007,2529 1014,2529 1015,2528 1047,2528 1048,2529 1112,2529 1113,2528 1175,2528 1176,2527 1188,2527 1189,2526 1208,2526 1209,2527 1210,2527 1211,2526 1223,2526 1224,2525 1288,2525 1289,2526 1295,2526 1296,2527 1306,2527 1307,2528 1350,2528 1351,2527 1357,2527 1358,2528 1374,2528 1375,2529 1382,2529 1383,2528 1542,2528 1543,2527 1546,2527 1547,2528 1551,2528 1552,2529 1555,2529 1556,2530 1562,2530 1563,2529 1575,2529 1576,2528 1590,2528 1591,2527 1594,2527 1595,2528 1601,2528 1602,2529 1641,2529 1642,2528 1647,2528 1648,2527 1655,2527 1656,2526 1663,2526 1664,2525 1666,2525 1667,2524 1668,2524 1669,2523 1670,2523 1674,2519 1674,2518 1675,2517 1675,2516 1676,2515 1676,2503 1675,2502 1675,2494 1674,2493 1674,2485 1673,2484 1673,2478 1674,2477 1674,2474 1675,2473 1675,2470 1676,2469 1676,2463 1675,2462 1675,2427 1676,2426 1676,2419 1675,2418 1675,2412 1674,2411 1674,2389 1675,2388 1675,2360 1674,2359 1674,2346 1675,2345 1675,2338 1676,2337 1676,2322 1675,2321 1675,2305 1674,2304 1674,2267 1673,2266 1673,2260 1674,2259 1674,2245 1673,2244 1673,2241 1674,2240 1674,2225 1673,2224 1673,2179 1672,2178 1672,2177 1671,2176 1671,2175 1669,2173 1669,2172 1668,2171 1667,2171 1666,2170 1646,2170 1645,2169 1631,2169 1630,2170 1628,2170 1627,2169 1575,2169 1574,2168 1561,2168 1560,2169 1552,2169 1551,2168 1544,2168 1543,2169 1526,2169 1525,2168 1504,2168 1503,2169 1491,2169 1490,2168 1478,2168 1477,2169 1384,2169 1383,2168 1361,2168 1360,2169 1348,2169 1347,2168 1301,2168 1300,2169 1290,2169 1289,2168 1216,2168 1215,2167 1096,2167 1095,2166 1093,2166 1092,2167 1087,2167 1086,2168 1084,2168 1083,2169 1082,2169 1081,2170 1078,2170 1077,2169 1075,2169 1074,2168 1070,2168 1069,2167 1061,2167 1060,2168 1006,2168 1005,2167 997,2167 996,2166 994,2166 993,2167 960,2167 959,2168 958,2167 948,2167 947,2168 924,2168 923,2167 898,2167 897,2168 881,2168 880,2167 848,2167 847,2168 832,2168 831,2167 799,2167 798,2168 789,2168 788,2167 719,2167 718,2166 713,2166 712,2165 703,2165 702,2166 688,2166 687,2165 659,2165 658,2166 653,2166 652,2167 648,2167 647,2166 641,2166 640,2165" fill="rgba(129,191,187,0.3)" stroke="rgb(129,191,187)" stroke-width="2" data-block-id="0008" data-name="b-0011" /><text x="1113" y="2347" text-anchor="middle" dominant-baseline="middle" class="block-label" fill="rgb(129,191,187)" stroke="white" stroke-width="3" paint-order="stroke">b-0011</text><polygon points="684,1689 683,1690 659,1690 658,1691 595,1691 594,1690 589,1690 588,1691 583,1691 582,1692 577,1692 576,1693 573,1693 572,1694 571,1694 568,1697 568,1698 567,1699 567,1701 566,1702 566,1715 567,1716 567,1719 566,1720 566,1732 565,1733 565,1757 564,1758 564,1778 563,1779 563,1784 562,1785 562,1794 563,1795 563,1802 562,1803 562,1818 563,1819 563,1825 562,1826 562,1831 561,1832 561,1839 562,1840 562,1851 561,1852 561,1863 562,1864 562,1876 561,1877 561,1912 562,1913 562,1921 561,1922 561,1955 562,1956 562,1974 561,1975 561,1997 562,1998 562,2003 561,2004 561,2019 560,2020 560,2033 559,2034 559,2038 560,2039 560,2041 562,2043 562,2044 564,2046 565,2046 566,2047 567,2047 568,2048 571,2048 572,2049 575,2049 576,2050 635,2050 636,2051 640,2051 641,2050 657,2050 658,2051 761,2051 762,2052 778,2052 779,2051 783,2051 784,2052 801,2052 802,2053 825,2053 826,2052 837,2052 838,2051 847,2051 848,2052 1229,2052 1230,2053 1277,2053 1278,2054 1302,2054 1303,2053 1352,2053 1353,2052 1366,2052 1367,2053 1397,2053 1398,2052 1406,2052 1407,2053 1497,2053 1498,2052 1500,2052 1501,2053 1558,2053 1559,2054 1560,2054 1561,2053 1621,2053 1622,2052 1664,2052 1665,2051 1667,2051 1670,2048 1670,2047 1671,2046 1671,2045 1672,2044 1672,2042 1673,2041 1673,2020 1674,2019 1674,2007 1673,2006 1673,1998 1674,1997 1674,1957 1675,1956 1675,1951 1674,1950 1674,1934 1675,1933 1675,1928 1674,1927 1674,1914 1675,1913 1675,1898 1674,1897 1674,1890 1675,1889 1675,1878 1674,1877 1674,1866 1675,1865 1675,1849 1674,1848 1674,1846 1675,1845 1675,1814 1676,1813 1676,1778 1675,1777 1675,1772 1676,1771 1676,1721 1677,1720 1677,1711 1676,1710 1676,1702 1675,1701 1675,1699 1674,1698 1674,1697 1672,1695 1670,1695 1669,1694 1664,1694 1663,1693 1568,1693 1567,1692 1553,1692 1552,1693 1549,1693 1548,1694 1542,1694 1541,1693 1535,1693 1534,1692 1505,1692 1504,1693 1309,1693 1308,1694 1304,1694 1303,1693 1231,1693 1230,1694 1216,1694 1215,1693 1131,1693 1130,1694 1126,1694 1125,1693 1121,1693 1120,1692 1087,1692 1086,1693 1075,1693 1074,1692 1026,1692 1025,1691 1008,1691 1007,1692 910,1692 909,1691 903,1691 902,1690 865,1690 864,1691 863,1690 823,1690 822,1691 765,1691 764,1690 716,1690 715,1689 707,1689 706,1690 690,1690 689,1689" fill="rgba(20,160,203,0.3)" stroke="rgb(20,160,203)" stroke-width="2" data-block-id="0009" data-name="b-0012" /><text x="1070" y="1860" text-anchor="middle" dominant-baseline="middle" class="block-label" fill="rgb(20,160,203)" stroke="white" stroke-width="3" paint-order="stroke">b-0012</text><polygon points="609,1217 608,1218 577,1218 576,1219 575,1219 574,1220 573,1220 572,1221 571,1221 570,1222 569,1222 567,1224 567,1226 566,1227 566,1233 565,1234 565,1245 566,1246 566,1260 565,1261 565,1279 564,1280 564,1289 565,1290 565,1349 564,1350 564,1357 563,1358 563,1371 562,1372 562,1392 563,1393 563,1425 562,1426 562,1433 563,1434 563,1468 562,1469 562,1483 563,1484 563,1494 562,1495 562,1509 563,1510 563,1515 562,1516 562,1528 563,1529 563,1562 564,1563 564,1567 565,1568 565,1571 567,1573 567,1574 568,1574 569,1575 570,1575 571,1576 573,1576 574,1577 578,1577 579,1578 587,1578 588,1579 594,1579 595,1578 608,1578 609,1579 628,1579 629,1580 634,1580 635,1581 657,1581 658,1580 672,1580 673,1579 674,1580 691,1580 692,1579 695,1579 696,1578 705,1578 706,1579 726,1579 727,1580 739,1580 740,1579 775,1579 776,1580 785,1580 786,1579 790,1579 791,1578 798,1578 799,1579 856,1579 857,1580 872,1580 873,1579 892,1579 893,1580 904,1580 905,1579 960,1579 961,1580 986,1580 987,1579 998,1579 999,1578 1027,1578 1028,1577 1048,1577 1049,1578 1073,1578 1074,1577 1095,1577 1096,1578 1116,1578 1117,1577 1130,1577 1131,1578 1177,1578 1178,1579 1183,1579 1184,1580 1271,1580 1272,1579 1289,1579 1290,1580 1299,1580 1300,1579 1316,1579 1317,1580 1326,1580 1327,1581 1356,1581 1357,1580 1397,1580 1398,1579 1406,1579 1407,1580 1447,1580 1448,1579 1456,1579 1457,1580 1494,1580 1495,1579 1501,1579 1502,1580 1507,1580 1508,1581 1512,1581 1513,1580 1592,1580 1593,1581 1655,1581 1656,1580 1667,1580 1668,1579 1669,1579 1670,1578 1671,1578 1674,1575 1674,1574 1675,1573 1675,1567 1676,1566 1676,1423 1677,1422 1677,1411 1676,1410 1676,1399 1677,1398 1677,1323 1678,1322 1678,1317 1677,1316 1677,1309 1678,1308 1678,1289 1677,1288 1677,1262 1678,1261 1678,1240 1677,1239 1677,1233 1676,1232 1676,1228 1675,1227 1675,1226 1673,1224 1672,1224 1671,1223 1670,1223 1669,1222 1667,1222 1666,1221 1656,1221 1655,1220 1634,1220 1633,1221 1608,1221 1607,1220 1604,1220 1603,1221 1587,1221 1586,1220 1560,1220 1559,1219 1552,1219 1551,1220 1502,1220 1501,1221 1497,1221 1496,1220 1493,1220 1492,1219 1476,1219 1475,1220 1426,1220 1425,1219 1412,1219 1411,1220 1403,1220 1402,1221 1349,1221 1348,1220 1338,1220 1337,1221 1308,1221 1307,1220 1289,1220 1288,1221 1276,1221 1275,1220 1257,1220 1256,1219 1251,1219 1250,1218 1215,1218 1214,1219 1212,1219 1211,1218 1197,1218 1196,1219 1188,1219 1187,1220 1158,1220 1157,1219 1148,1219 1147,1220 1118,1220 1117,1219 1113,1219 1112,1220 1094,1220 1093,1221 1088,1221 1087,1220 1047,1220 1046,1221 1027,1221 1026,1220 1000,1220 999,1221 990,1221 989,1220 921,1220 920,1219 908,1219 907,1220 876,1220 875,1219 860,1219 859,1220 836,1220 835,1219 813,1219 812,1220 760,1220 759,1219 729,1219 728,1218 715,1218 714,1219 696,1219 695,1218 689,1218 688,1217 669,1217 668,1218 651,1218 650,1217" fill="rgba(57,21,252,0.3)" stroke="rgb(57,21,252)" stroke-width="2" data-block-id="0010" data-name="b-0013" /><text x="1068" y="1392" text-anchor="middle" dominant-baseline="middle" class="block-label" fill="rgb(57,21,252)" stroke="white" stroke-width="3" paint-order="stroke">b-0013</text><polygon points="669,270 668,271 657,271 656,272 646,272 645,271 625,271 624,272 620,272 619,273 617,273 616,274 607,274 606,273 580,273 579,274 578,274 577,275 576,275 575,276 575,277 574,278 574,279 573,280 573,290 572,291 572,300 571,301 571,367 570,368 570,469 569,470 569,478 568,479 568,526 567,527 567,533 568,534 568,549 567,550 567,562 568,563 568,570 567,571 567,582 568,583 568,596 567,597 567,608 568,609 568,621 569,622 569,627 570,628 570,629 573,632 574,632 575,633 576,633 577,634 582,634 583,635 596,635 597,634 626,634 627,635 647,635 648,634 656,634 657,635 663,635 664,634 727,634 728,635 739,635 740,634 813,634 814,633 898,633 899,634 907,634 908,633 914,633 915,634 958,634 959,635 1006,635 1007,634 1021,634 1022,635 1040,635 1041,634 1044,634 1045,635 1050,635 1051,636 1060,636 1061,637 1095,637 1096,636 1127,636 1128,635 1149,635 1150,636 1175,636 1176,635 1177,635 1178,636 1195,636 1196,635 1210,635 1211,636 1250,636 1251,637 1276,637 1277,636 1286,636 1287,637 1316,637 1317,636 1318,636 1319,637 1326,637 1327,638 1348,638 1349,637 1370,637 1371,636 1387,636 1388,637 1418,637 1419,636 1461,636 1462,635 1465,635 1466,636 1502,636 1503,635 1536,635 1537,636 1551,636 1552,635 1561,635 1562,636 1577,636 1578,637 1615,637 1616,638 1656,638 1657,637 1676,637 1677,636 1678,636 1679,635 1679,634 1680,633 1680,632 1681,631 1681,629 1682,628 1682,593 1681,592 1681,570 1682,569 1682,539 1681,538 1681,407 1682,406 1682,369 1681,368 1681,332 1682,331 1682,292 1681,291 1681,282 1680,281 1680,280 1679,279 1679,278 1678,278 1677,277 1676,277 1675,276 1669,276 1668,275 1650,275 1649,276 1549,276 1548,275 1544,275 1543,276 1323,276 1322,277 1311,277 1310,276 1296,276 1295,277 1289,277 1288,278 1285,278 1284,279 1275,279 1274,278 1235,278 1234,279 1222,279 1221,278 1194,278 1193,279 1161,279 1160,278 1119,278 1118,277 1102,277 1101,278 1064,278 1063,277 1049,277 1048,278 1036,278 1035,277 1021,277 1020,276 1002,276 1001,277 990,277 989,276 968,276 967,275 955,275 954,276 928,276 927,275 914,275 913,276 900,276 899,277 898,276 867,276 866,275 835,275 834,274 818,274 817,273 803,273 802,272 748,272 747,271 725,271 724,270 692,270 691,271 680,271 679,270" fill="rgba(235,88,48,0.3)" stroke="rgb(235,88,48)" stroke-width="2" data-block-id="0011" data-name="b-0014" /><text x="1065" y="462" text-anchor="middle" dominant-baseline="middle" class="block-label" fill="rgb(235,88,48)" stroke="white" stroke-width="3" paint-order="stroke">b-0014</text><polygon points="657,742 656,743 630,743 629,744 623,744 622,743 602,743 601,744 600,744 599,743 589,743 588,744 581,744 580,745 578,745 577,746 576,746 575,747 575,748 573,750 573,751 572,752 572,753 571,754 571,755 570,756 570,764 569,765 569,783 568,784 568,789 567,790 567,802 568,803 568,806 567,807 567,858 566,859 566,865 565,866 566,867 566,887 567,888 567,896 568,897 568,903 569,904 569,907 570,908 570,916 571,917 571,924 570,925 570,930 569,931 569,934 568,935 568,941 567,942 567,956 566,957 566,962 567,963 567,992 568,993 568,997 567,998 567,1003 566,1004 566,1071 567,1072 567,1080 566,1081 566,1086 565,1087 565,1091 566,1092 566,1093 567,1094 567,1095 569,1097 569,1098 571,1100 571,1101 574,1104 575,1104 576,1105 577,1105 578,1106 586,1106 587,1107 593,1107 594,1106 607,1106 608,1107 631,1107 632,1108 645,1108 646,1107 652,1107 653,1108 658,1108 659,1109 667,1109 668,1108 681,1108 682,1109 689,1109 690,1108 706,1108 707,1109 737,1109 738,1108 741,1108 742,1107 746,1107 747,1106 766,1106 767,1107 786,1107 787,1106 805,1106 806,1107 809,1107 810,1106 821,1106 822,1107 832,1107 833,1106 867,1106 868,1107 882,1107 883,1106 901,1106 902,1107 930,1107 931,1106 975,1106 976,1105 989,1105 990,1106 1051,1106 1052,1107 1071,1107 1072,1106 1094,1106 1095,1107 1101,1107 1102,1108 1148,1108 1149,1109 1170,1109 1171,1108 1183,1108 1184,1109 1217,1109 1218,1108 1253,1108 1254,1109 1263,1109 1264,1108 1302,1108 1303,1109 1309,1109 1310,1108 1367,1108 1368,1107 1372,1107 1373,1108 1390,1108 1391,1107 1404,1107 1405,1108 1406,1108 1407,1109 1408,1109 1409,1110 1410,1110 1412,1112 1413,1112 1414,1113 1420,1113 1421,1112 1438,1112 1439,1111 1441,1111 1442,1110 1445,1110 1446,1109 1480,1109 1481,1110 1497,1110 1498,1111 1501,1111 1502,1112 1503,1112 1504,1113 1505,1113 1507,1115 1508,1115 1509,1116 1513,1116 1514,1115 1518,1115 1519,1114 1522,1114 1523,1113 1524,1113 1525,1112 1527,1112 1528,1111 1531,1111 1532,1110 1536,1110 1537,1109 1543,1109 1544,1108 1549,1108 1550,1109 1671,1109 1672,1108 1675,1108 1677,1106 1677,1105 1678,1104 1678,1103 1679,1102 1679,1091 1680,1090 1680,1086 1679,1085 1679,956 1680,955 1680,945 1679,944 1679,883 1680,882 1680,851 1679,850 1679,799 1680,798 1680,775 1679,774 1679,755 1678,754 1678,753 1675,750 1612,750 1611,749 1600,749 1599,750 1562,750 1561,749 1556,749 1555,750 1551,750 1550,751 1540,751 1539,750 1535,750 1534,749 1525,749 1524,750 1522,750 1521,749 1482,749 1481,750 1474,750 1473,751 1465,751 1464,752 1458,752 1457,751 1429,751 1428,752 1425,752 1424,751 1413,751 1412,750 1401,750 1400,749 1394,749 1393,748 1386,748 1385,749 1345,749 1344,748 1343,749 1328,749 1327,750 1321,750 1320,751 1311,751 1310,750 1297,750 1296,749 1295,750 1287,750 1286,751 1256,751 1255,750 1241,750 1240,751 1178,751 1177,750 1170,750 1169,751 1162,751 1161,750 1112,750 1111,749 1101,749 1100,750 1096,750 1095,751 1090,751 1089,752 1078,752 1077,751 1072,751 1071,750 1052,750 1051,751 1011,751 1010,750 951,750 950,751 938,751 937,750 903,750 902,751 885,751 884,750 841,750 840,749 823,749 822,748 815,748 814,749 793,749 792,748 789,748 788,747 785,747 784,746 779,746 778,745 767,745 766,744 697,744 696,743 680,743 679,744 671,744 670,743 665,743 664,742" fill="rgba(218,58,254,0.3)" stroke="rgb(218,58,254)" stroke-width="2" data-block-id="0012" data-name="b-0015" /><text x="1050" y="932" text-anchor="middle" dominant-baseline="middle" class="block-label" fill="rgb(218,58,254)" stroke="white" stroke-width="3" paint-order="stroke">b-0015</text><polygon points="3818,748 3817,749 3813,749 3812,750 3805,750 3804,751 3791,751 3790,750 3774,750 3773,751 3753,751 3752,752 3748,752 3747,751 3741,751 3740,750 3719,750 3718,751 3694,751 3693,750 3678,750 3677,751 3620,751 3619,752 3614,752 3613,753 3608,753 3607,754 3548,754 3547,753 3514,753 3513,752 3498,752 3497,751 3487,751 3486,750 3484,750 3483,751 3474,751 3473,752 3464,752 3463,753 3457,753 3456,752 3440,752 3439,751 3437,751 3436,752 3427,752 3426,753 3420,753 3419,754 3412,754 3411,753 3407,753 3406,752 3338,752 3337,753 3332,753 3331,754 3324,754 3323,753 3313,753 3312,752 3249,752 3248,751 3246,751 3245,752 3232,752 3231,751 3226,751 3225,750 3224,750 3223,751 3219,751 3218,752 3215,752 3214,753 3204,753 3203,754 3199,754 3196,757 3196,760 3195,761 3195,767 3194,768 3194,770 3195,771 3195,779 3196,780 3195,781 3195,787 3194,788 3194,810 3195,811 3195,855 3196,856 3196,865 3197,866 3197,867 3196,868 3196,901 3195,902 3196,903 3196,916 3195,917 3195,927 3196,928 3196,936 3195,937 3195,938 3194,939 3194,941 3193,942 3193,944 3192,945 3192,957 3193,958 3193,964 3192,965 3192,991 3191,992 3191,1001 3192,1002 3192,1031 3191,1032 3191,1050 3192,1051 3192,1059 3191,1060 3191,1077 3190,1078 3190,1093 3191,1094 3191,1096 3192,1097 3192,1099 3193,1100 3193,1102 3194,1103 3194,1104 3198,1108 3199,1108 3200,1109 3204,1109 3205,1110 3221,1110 3222,1109 3225,1109 3226,1110 3232,1110 3233,1111 3237,1111 3238,1110 3244,1110 3245,1109 3249,1109 3250,1110 3277,1110 3278,1111 3288,1111 3289,1110 3302,1110 3303,1111 3313,1111 3314,1110 3323,1110 3324,1111 3361,1111 3362,1112 3378,1112 3379,1113 3382,1113 3383,1114 3388,1114 3389,1115 3393,1115 3394,1114 3420,1114 3421,1115 3439,1115 3440,1116 3450,1116 3451,1115 3458,1115 3459,1114 3470,1114 3471,1115 3473,1115 3474,1114 3481,1114 3482,1113 3507,1113 3508,1112 3518,1112 3519,1113 3521,1113 3522,1112 3561,1112 3562,1111 3599,1111 3600,1112 3653,1112 3654,1113 3655,1113 3656,1112 3668,1112 3669,1113 3704,1113 3705,1112 3730,1112 3731,1111 3741,1111 3742,1112 3745,1112 3746,1113 3754,1113 3755,1112 3764,1112 3765,1113 3771,1113 3772,1114 3777,1114 3778,1113 3787,1113 3788,1114 3799,1114 3800,1113 3805,1113 3806,1112 3812,1112 3813,1113 3824,1113 3825,1112 3828,1112 3829,1111 3836,1111 3837,1112 3839,1112 3840,1113 3876,1113 3877,1112 3881,1112 3882,1113 3885,1113 3886,1114 3889,1114 3890,1115 3893,1115 3894,1114 3897,1114 3898,1113 3908,1113 3909,1114 3911,1114 3912,1115 3915,1115 3916,1116 3926,1116 3927,1115 3931,1115 3932,1114 3936,1114 3937,1113 3944,1113 3945,1112 3952,1112 3953,1113 3956,1113 3957,1114 3960,1114 3961,1115 3966,1115 3967,1114 3971,1114 3972,1113 3979,1113 3980,1112 3992,1112 3993,1111 3999,1111 4000,1110 4013,1110 4014,1109 4021,1109 4022,1108 4023,1108 4026,1105 4026,1103 4027,1102 4027,1066 4028,1065 4028,1061 4029,1060 4029,1054 4030,1053 4030,1048 4031,1047 4031,994 4030,993 4030,986 4029,985 4029,972 4028,971 4028,964 4027,963 4027,957 4026,956 4026,947 4025,946 4025,936 4024,935 4024,930 4023,929 4023,927 4022,926 4022,909 4021,908 4021,904 4020,903 4020,901 4019,900 4019,899 4018,898 4018,896 4016,894 4016,893 4015,892 4015,891 4014,890 4014,889 4012,887 4012,886 4010,884 4010,883 4008,881 4008,880 4005,877 4005,876 4004,875 4004,871 4005,870 4005,850 4004,849 4004,844 4003,843 4003,827 4002,826 4002,816 4001,815 4001,812 4000,811 4000,809 3999,808 3999,807 3998,806 3998,805 3997,804 3997,801 3996,801 3991,796 3991,795 3990,794 3990,780 3988,778 3988,776 3987,775 3987,774 3986,773 3986,772 3985,771 3985,767 3986,766 3986,763 3987,762 3987,758 3986,757 3985,757 3984,756 3980,756 3979,755 3961,755 3960,754 3956,754 3955,753 3927,753 3926,752 3911,752 3910,753 3877,753 3876,752 3856,752 3855,753 3853,753 3852,752 3845,752 3844,753 3829,753 3828,752 3827,752 3826,751 3825,751 3824,750 3823,750 3822,749 3820,749 3819,748" fill="rgba(50,107,54,0.3)" stroke="rgb(50,107,54)" stroke-width="2" data-block-id="0013" data-name="b-0019" /><text x="3649" y="938" text-anchor="middle" dominant-baseline="middle" class="block-label" fill="rgb(50,107,54)" stroke="white" stroke-width="3" paint-order="stroke">b-0019</text><polygon points="3749,1220 3748,1221 3708,1221 3707,1222 3679,1222 3678,1223 3669,1223 3668,1222 3666,1222 3665,1223 3658,1223 3657,1224 3651,1224 3650,1223 3647,1223 3646,1222 3574,1222 3573,1223 3560,1223 3559,1224 3558,1223 3529,1223 3528,1222 3501,1222 3500,1223 3480,1223 3479,1222 3417,1222 3416,1223 3410,1223 3409,1222 3397,1222 3396,1221 3389,1221 3388,1222 3386,1222 3385,1223 3383,1223 3382,1224 3368,1224 3367,1223 3362,1223 3361,1222 3341,1222 3340,1223 3300,1223 3299,1224 3292,1224 3291,1223 3256,1223 3255,1224 3243,1224 3242,1223 3220,1223 3219,1224 3207,1224 3206,1225 3201,1225 3199,1227 3198,1227 3198,1230 3197,1231 3197,1234 3196,1235 3196,1276 3195,1277 3195,1312 3194,1313 3194,1324 3195,1325 3195,1340 3194,1341 3194,1350 3195,1351 3195,1366 3194,1367 3194,1370 3195,1371 3195,1379 3196,1380 3196,1382 3195,1383 3195,1401 3196,1402 3196,1408 3195,1409 3195,1424 3196,1425 3196,1440 3195,1441 3195,1471 3196,1472 3196,1492 3195,1493 3195,1519 3196,1520 3196,1542 3195,1543 3195,1562 3196,1563 3196,1567 3197,1568 3197,1571 3198,1572 3198,1573 3201,1576 3203,1576 3204,1577 3206,1577 3207,1578 3209,1578 3210,1579 3217,1579 3218,1578 3225,1578 3226,1579 3229,1579 3230,1580 3233,1580 3234,1581 3237,1581 3238,1580 3240,1580 3241,1579 3244,1579 3245,1578 3251,1578 3252,1579 3256,1579 3257,1580 3273,1580 3274,1581 3279,1581 3280,1582 3286,1582 3287,1581 3292,1581 3293,1580 3321,1580 3322,1579 3328,1579 3329,1578 3338,1578 3339,1577 3344,1577 3345,1578 3353,1578 3354,1579 3376,1579 3377,1578 3396,1578 3397,1579 3403,1579 3404,1580 3422,1580 3423,1579 3445,1579 3446,1580 3456,1580 3457,1579 3478,1579 3479,1578 3495,1578 3496,1579 3500,1579 3501,1578 3515,1578 3516,1579 3528,1579 3529,1578 3547,1578 3548,1577 3550,1577 3551,1576 3554,1576 3555,1575 3559,1575 3560,1576 3563,1576 3564,1577 3647,1577 3648,1576 3661,1576 3662,1577 3666,1577 3667,1576 3673,1576 3674,1575 3676,1575 3677,1574 3681,1574 3682,1573 3684,1573 3685,1572 3687,1572 3688,1571 3691,1571 3692,1570 3694,1570 3695,1569 3696,1569 3698,1567 3699,1567 3700,1566 3705,1566 3706,1567 3712,1567 3713,1568 3718,1568 3719,1569 3722,1569 3723,1570 3727,1570 3728,1569 3736,1569 3737,1570 3738,1570 3740,1572 3741,1572 3742,1573 3743,1573 3744,1574 3747,1574 3748,1575 3751,1575 3752,1576 3757,1576 3758,1577 3765,1577 3766,1576 3779,1576 3780,1577 3788,1577 3789,1576 3820,1576 3821,1577 3837,1577 3838,1576 3867,1576 3868,1577 3885,1577 3886,1576 3919,1576 3920,1577 3932,1577 3933,1576 4001,1576 4002,1575 4004,1575 4005,1574 4007,1574 4010,1571 4010,1569 4011,1568 4011,1466 4010,1465 4010,1443 4011,1442 4011,1437 4010,1436 4010,1364 4009,1363 4009,1353 4010,1352 4010,1333 4009,1332 4009,1308 4010,1307 4010,1301 4011,1300 4011,1288 4012,1287 4012,1268 4013,1267 4013,1258 4014,1257 4014,1250 4015,1249 4015,1228 4014,1227 4014,1226 4012,1224 4011,1224 4010,1223 4003,1223 4002,1222 3957,1222 3956,1223 3948,1223 3947,1222 3933,1222 3932,1223 3920,1223 3919,1224 3915,1224 3914,1223 3910,1223 3909,1222 3903,1222 3902,1221 3885,1221 3884,1222 3873,1222 3872,1223 3861,1223 3860,1222 3850,1222 3849,1223 3825,1223 3824,1222 3821,1222 3820,1221 3814,1221 3813,1220 3789,1220 3788,1221 3777,1221 3776,1220" fill="rgba(243,63,248,0.3)" stroke="rgb(243,63,248)" stroke-width="2" data-block-id="0014" data-name="b-0020" /><text x="3567" y="1423" text-anchor="middle" dominant-baseline="middle" class="block-label" fill="rgb(243,63,248)" stroke="white" stroke-width="3" paint-order="stroke">b-0020</text><polygon points="3852,276 3851,277 3757,277 3756,278 3744,278 3743,277 3715,277 3714,278 3706,278 3705,279 3694,279 3693,280 3684,280 3683,279 3672,279 3671,280 3651,280 3650,281 3622,281 3621,282 3611,282 3610,281 3585,281 3584,280 3562,280 3561,281 3556,281 3555,280 3515,280 3514,279 3505,279 3504,280 3480,280 3479,281 3455,281 3454,282 3444,282 3443,281 3383,281 3382,282 3375,282 3374,281 3265,281 3264,282 3244,282 3243,281 3230,281 3229,282 3198,282 3197,283 3196,283 3194,285 3193,285 3193,286 3191,288 3191,289 3190,290 3190,292 3189,293 3189,295 3188,296 3188,298 3187,299 3187,301 3184,304 3184,305 3187,308 3187,311 3188,312 3188,319 3187,320 3187,324 3186,325 3186,329 3187,330 3187,333 3188,334 3188,343 3189,344 3189,383 3188,384 3188,389 3189,390 3189,405 3188,406 3188,442 3187,443 3187,463 3188,464 3188,480 3189,481 3189,511 3188,512 3188,537 3189,538 3189,568 3188,569 3188,576 3187,577 3187,580 3188,581 3188,587 3189,588 3189,592 3188,593 3188,618 3189,619 3189,626 3190,627 3190,629 3191,630 3191,631 3192,632 3192,634 3194,636 3194,637 3195,637 3197,639 3198,639 3199,640 3216,640 3217,639 3366,639 3367,638 3384,638 3385,639 3415,639 3416,638 3421,638 3422,639 3464,639 3465,638 3472,638 3473,637 3476,637 3477,638 3510,638 3511,637 3534,637 3535,638 3536,638 3537,637 3544,637 3545,638 3555,638 3556,639 3559,639 3560,638 3601,638 3602,639 3608,639 3609,638 3623,638 3624,639 3645,639 3646,638 3660,638 3661,639 3674,639 3675,638 3682,638 3683,637 3686,637 3687,636 3719,636 3720,637 3757,637 3758,636 3759,636 3760,637 3767,637 3768,638 3780,638 3781,637 3787,637 3788,638 3805,638 3806,637 3810,637 3811,638 3831,638 3832,637 3836,637 3837,636 3839,636 3842,633 3843,633 3844,632 3853,632 3854,633 3864,633 3865,634 3868,634 3869,633 3872,633 3873,632 3875,632 3876,631 3879,631 3883,635 3883,636 3884,636 3885,637 3886,637 3887,638 3889,638 3890,639 3899,639 3900,638 3915,638 3916,637 3930,637 3931,636 3944,636 3945,635 3953,635 3954,634 3961,634 3962,633 3964,633 3965,632 3966,632 3970,628 3970,626 3971,625 3971,624 3970,623 3970,619 3969,618 3969,615 3968,614 3968,610 3967,609 3967,605 3966,604 3966,579 3965,578 3965,575 3964,574 3964,572 3963,571 3963,570 3962,569 3962,568 3961,567 3961,566 3960,565 3960,560 3959,559 3959,547 3958,546 3958,530 3957,529 3957,527 3956,526 3956,524 3955,523 3955,521 3954,520 3954,502 3953,501 3953,498 3952,497 3952,493 3951,492 3951,483 3950,482 3950,478 3949,477 3949,475 3948,474 3948,471 3947,470 3947,467 3946,466 3946,464 3945,463 3945,461 3944,460 3944,458 3943,457 3943,455 3942,454 3942,452 3941,451 3941,447 3940,446 3940,424 3939,423 3939,420 3938,419 3938,417 3937,416 3937,414 3936,413 3936,411 3935,410 3935,405 3934,404 3934,399 3933,398 3933,394 3932,393 3932,388 3931,387 3931,382 3930,381 3930,373 3929,372 3929,367 3928,366 3928,363 3927,362 3927,349 3926,348 3926,338 3925,337 3925,327 3924,326 3924,324 3923,323 3923,321 3922,320 3922,318 3921,317 3921,314 3920,313 3920,309 3919,308 3919,301 3920,300 3920,296 3921,295 3921,290 3920,289 3920,288 3919,287 3919,286 3918,285 3918,284 3916,282 3915,282 3914,281 3913,281 3912,280 3909,280 3908,279 3900,279 3899,280 3896,280 3895,281 3889,281 3888,280 3886,280 3885,279 3883,279 3882,278 3875,278 3874,277 3859,277 3858,276" fill="rgba(134,20,72,0.3)" stroke="rgb(134,20,72)" stroke-width="2" data-block-id="0015" data-name="b-0022" /><text x="3674" y="469" text-anchor="middle" dominant-baseline="middle" class="block-label" fill="rgb(134,20,72)" stroke="white" stroke-width="3" paint-order="stroke">b-0022</text><polygon points="4604,1692 4603,1693 4513,1693 4511,1695 4511,1696 4510,1697 4510,1699 4509,1700 4509,1997 4508,1998 4508,2021 4509,2022 4509,2038 4511,2040 4513,2040 4514,2041 4515,2040 4525,2040 4526,2041 4584,2041 4585,2042 4586,2041 4601,2041 4602,2042 4615,2042 4616,2041 4625,2041 4626,2042 4635,2042 4636,2041 4650,2041 4651,2042 4661,2042 4662,2041 4721,2041 4722,2040 4736,2040 4737,2041 4892,2041 4893,2040 4895,2040 4897,2038 4897,2037 4898,2036 4898,2021 4897,2020 4897,2006 4896,2005 4896,2003 4895,2002 4894,2002 4893,2001 4889,2001 4888,2000 4766,2000 4765,2001 4759,2001 4758,2000 4749,2000 4748,2001 4747,2001 4746,2002 4745,2002 4744,2003 4743,2003 4742,2004 4742,2005 4737,2010 4724,2010 4723,2009 4717,2009 4716,2008 4705,2008 4704,2007 4703,2007 4701,2005 4700,2005 4698,2003 4697,2003 4696,2002 4694,2002 4693,2001 4680,2001 4679,2002 4559,2002 4558,2001 4556,2001 4553,1998 4553,1997 4552,1996 4552,1994 4551,1993 4551,1947 4550,1946 4550,1756 4551,1755 4551,1739 4555,1735 4556,1735 4557,1734 4640,1734 4641,1735 4647,1735 4648,1734 4658,1734 4659,1735 4754,1735 4755,1734 4796,1734 4797,1733 4837,1733 4838,1732 4880,1732 4881,1731 4887,1731 4888,1730 4890,1730 4891,1729 4892,1729 4893,1728 4893,1727 4894,1726 4894,1719 4895,1718 4895,1712 4894,1711 4894,1701 4893,1700 4893,1697 4892,1696 4892,1695 4890,1693 4888,1693 4887,1692 4638,1692 4637,1693 4626,1693 4625,1692" fill="rgba(8,87,128,0.3)" stroke="rgb(8,87,128)" stroke-width="2" data-block-id="0016" data-name="b-0048" /><text x="4709" y="1903" text-anchor="middle" dominant-baseline="middle" class="block-label" fill="rgb(8,87,128)" stroke="white" stroke-width="3" paint-order="stroke">b-0048</text><polygon points="3186,1686 3186,3025 4719,3025 4724,2810 4506,2807 4470,1664 4134,1658 4126,1583 4008,1583 3997,1664" fill="rgba(102,179,92,0.3)" stroke="rgb(102,179,92)" stroke-width="2" data-block-id="0017" data-name="b-0036" /><text x="4105" y="2150" text-anchor="middle" dominant-baseline="middle" class="block-label" fill="rgb(102,179,92)" stroke="white" stroke-width="3" paint-order="stroke">b-0036</text></g>
</svg>