<?xml version='1.0' encoding='utf-8'?>
<svg xmlns="http://www.w3.org/2000/svg" xmlns:atlas="http://example.com/atlas" width="4980" height="3364" viewBox="0 0 4980 3364">
  
  <metadata>
    <atlas:source>
      <atlas:jp2-path>../media/v1/p12.jp2</atlas:jp2-path>
      <atlas:volume>vol1</atlas:volume>
      <atlas:plate-id>p12</atlas:plate-id>
      <atlas:image-width>4980</atlas:image-width>
      <atlas:image-height>3364</atlas:image-height>
    </atlas:source>
  </metadata>

  
  <image id="background" href="file://../media/v1/p12.jp2" width="4980" height="3364" opacity="0.5" />

  <style>
    .block-label { font-family: sans-serif; font-size: 14px; font-weight: bold; }
  </style>

  
  <g id="blocks">
    <polygon points="3068,2225 3067,2226 3058,2226 3057,2227 3047,2227 3042,2232 3041,2232 3039,2234 3038,2234 3037,2235 3036,2235 3035,2236 3034,2236 3033,2237 3030,2237 3029,2238 3027,2238 3026,2239 3024,2239 3019,2244 3018,2244 3016,2246 3015,2246 3014,2247 3012,2247 3011,2248 3009,2248 3008,2249 3007,2249 3006,2250 3005,2250 3004,2251 3003,2251 3002,2252 3001,2252 3000,2253 2999,2253 2997,2255 2996,2255 2992,2259 2991,2259 2989,2261 2988,2261 2986,2263 2985,2263 2984,2264 2983,2264 2982,2265 2980,2265 2979,2266 2977,2266 2976,2267 2974,2267 2973,2268 2972,2268 2971,2269 2970,2269 2969,2270 2968,2270 2967,2271 2966,2271 2964,2273 2963,2273 2962,2274 2961,2274 2960,2275 2959,2275 2958,2276 2956,2276 2955,2277 2954,2277 2953,2278 2952,2278 2951,2279 2950,2279 2949,2280 2948,2280 2945,2283 2944,2283 2942,2285 2941,2285 2939,2287 2938,2287 2936,2289 2935,2289 2934,2290 2933,2290 2932,2291 2931,2291 2930,2292 2929,2292 2928,2293 2926,2293 2925,2294 2924,2294 2922,2296 2921,2296 2917,2300 2916,2300 2915,2301 2914,2301 2913,2302 2911,2302 2910,2303 2907,2303 2906,2304 2905,2304 2904,2305 2903,2305 2902,2306 2901,2306 2900,2307 2899,2307 2897,2309 2896,2309 2893,2312 2892,2312 2891,2313 2890,2313 2889,2314 2888,2314 2887,2315 2885,2315 2884,2316 2883,2316 2881,2318 2880,2318 2879,2319 2878,2319 2877,2320 2876,2320 2875,2321 2874,2321 2872,2323 2871,2323 2870,2324 2869,2324 2868,2325 2865,2325 2864,2326 2862,2326 2861,2327 2859,2327 2858,2328 2857,2328 2856,2329 2855,2329 2854,2330 2853,2330 2851,2332 2850,2332 2847,2335 2846,2335 2844,2337 2843,2337 2842,2338 2840,2338 2839,2339 2837,2339 2836,2340 2835,2340 2834,2341 2833,2341 2832,2342 2831,2342 2830,2343 2829,2343 2827,2345 2826,2345 2824,2347 2823,2347 2822,2348 2821,2348 2820,2349 2819,2349 2818,2350 2817,2350 2816,2351 2815,2351 2814,2352 2813,2352 2812,2353 2811,2353 2809,2355 2808,2355 2807,2356 2806,2356 2804,2358 2803,2358 2802,2359 2801,2359 2800,2360 2799,2360 2798,2361 2797,2361 2796,2362 2794,2362 2793,2363 2792,2363 2790,2365 2789,2365 2788,2366 2786,2366 2785,2367 2784,2367 2783,2368 2781,2368 2780,2369 2778,2369 2777,2370 2776,2370 2775,2371 2774,2371 2773,2372 2771,2372 2770,2373 2769,2373 2768,2374 2767,2374 2766,2375 2765,2375 2764,2376 2763,2376 2762,2377 2761,2377 2760,2378 2759,2378 2758,2379 2757,2379 2756,2380 2755,2380 2754,2381 2753,2381 2751,2383 2750,2383 2749,2384 2748,2384 2746,2386 2745,2386 2744,2387 2743,2387 2742,2388 2741,2388 2739,2390 2738,2390 2735,2393 2734,2393 2729,2398 2729,2399 2725,2403 2724,2403 2722,2405 2721,2405 2720,2406 2719,2406 2718,2407 2716,2407 2715,2408 2713,2408 2711,2410 2710,2410 2709,2411 2708,2411 2707,2412 2706,2412 2705,2413 2703,2413 2702,2414 2700,2414 2699,2415 2697,2415 2696,2416 2695,2416 2694,2417 2692,2417 2691,2418 2690,2418 2689,2419 2686,2419 2685,2420 2681,2420 2680,2421 2676,2421 2675,2422 2672,2422 2671,2423 2668,2423 2667,2424 2665,2424 2664,2425 2662,2425 2661,2426 2659,2426 2657,2428 2656,2428 2651,2433 2650,2433 2649,2434 2648,2434 2646,2436 2645,2436 2644,2437 2643,2437 2642,2438 2640,2438 2639,2439 2637,2439 2636,2440 2633,2440 2632,2441 2631,2441 2630,2442 2628,2442 2627,2443 2625,2443 2624,2444 2622,2444 2621,2445 2619,2445 2618,2446 2617,2446 2615,2448 2614,2448 2607,2455 2606,2455 2601,2460 2600,2460 2598,2462 2597,2462 2595,2464 2594,2464 2592,2466 2591,2466 2590,2467 2589,2467 2588,2468 2586,2468 2585,2469 2583,2469 2582,2470 2579,2470 2578,2471 2576,2471 2575,2472 2573,2472 2572,2473 2570,2473 2569,2474 2567,2474 2566,2475 2565,2475 2564,2476 2563,2476 2561,2478 2560,2478 2557,2481 2556,2481 2555,2482 2554,2482 2553,2483 2552,2483 2551,2484 2550,2484 2549,2485 2548,2485 2541,2492 2540,2492 2537,2495 2536,2495 2534,2497 2533,2497 2532,2498 2531,2498 2530,2499 2529,2499 2528,2500 2525,2500 2524,2501 2522,2501 2521,2502 2520,2502 2512,2510 2511,2510 2509,2512 2507,2512 2506,2513 2504,2513 2503,2514 2502,2514 2501,2515 2499,2515 2496,2518 2495,2518 2492,2521 2491,2521 2490,2522 2489,2522 2488,2523 2487,2523 2486,2524 2483,2524 2482,2525 2478,2525 2477,2526 2475,2526 2474,2527 2473,2527 2466,2534 2466,2535 2459,2542 2457,2542 2456,2543 2453,2543 2452,2544 2450,2544 2449,2545 2448,2545 2439,2554 2438,2554 2436,2556 2435,2556 2434,2557 2432,2557 2431,2558 2430,2558 2429,2559 2428,2559 2427,2560 2425,2560 2424,2561 2423,2561 2422,2562 2421,2562 2419,2564 2418,2564 2417,2565 2415,2565 2414,2566 2412,2566 2411,2567 2408,2567 2407,2568 2404,2568 2403,2569 2400,2569 2399,2570 2393,2570 2392,2571 2387,2571 2386,2572 2382,2572 2381,2573 2380,2573 2379,2574 2378,2574 2377,2575 2376,2575 2376,2577 2375,2578 2375,2582 2374,2583 2374,2585 2373,2586 2373,2587 2370,2590 2369,2590 2367,2592 2366,2592 2365,2593 2363,2593 2362,2594 2361,2594 2360,2595 2359,2595 2357,2597 2356,2597 2355,2598 2354,2598 2350,2602 2350,2603 2348,2605 2347,2605 2343,2609 2342,2609 2341,2610 2340,2610 2339,2611 2338,2611 2337,2612 2335,2612 2334,2613 2333,2613 2332,2614 2330,2614 2329,2615 2323,2615 2322,2616 2315,2616 2314,2617 2310,2617 2309,2618 2306,2618 2305,2619 2304,2619 2298,2625 2298,2626 2294,2630 2293,2630 2291,2632 2289,2632 2288,2633 2287,2633 2286,2634 2284,2634 2283,2635 2282,2635 2281,2636 2280,2636 2279,2637 2278,2637 2277,2638 2276,2638 2275,2639 2274,2639 2272,2641 2271,2641 2270,2642 2268,2642 2267,2643 2261,2643 2260,2644 2257,2644 2253,2648 2253,2649 2252,2650 2252,2651 2247,2656 2246,2656 2245,2657 2244,2657 2243,2658 2241,2658 2240,2659 2238,2659 2237,2660 2234,2660 2233,2661 2232,2661 2231,2662 2229,2662 2228,2663 2226,2663 2225,2664 2223,2664 2222,2665 2220,2665 2219,2666 2218,2666 2217,2667 2215,2667 2214,2668 2212,2668 2209,2671 2209,2672 2208,2673 2208,2676 2206,2678 2205,2678 2204,2679 2198,2679 2197,2680 2195,2680 2194,2681 2193,2681 2192,2682 2191,2682 2190,2683 2189,2683 2188,2684 2187,2684 2186,2685 2185,2685 2184,2686 2182,2686 2181,2687 2180,2687 2179,2688 2177,2688 2176,2689 2173,2689 2172,2690 2168,2690 2167,2691 2164,2691 2163,2692 2162,2692 2158,2696 2158,2697 2150,2705 2149,2705 2148,2706 2145,2706 2144,2707 2142,2707 2141,2708 2136,2708 2135,2709 2125,2709 2124,2710 2118,2710 2117,2711 2116,2711 2115,2712 2115,2714 2114,2715 2114,2718 2112,2720 2112,2721 2108,2725 2107,2725 2106,2726 2105,2726 2104,2727 2101,2727 2100,2728 2099,2728 2098,2729 2097,2729 2096,2730 2095,2730 2094,2731 2093,2731 2091,2733 2090,2733 2089,2734 2088,2734 2086,2736 2085,2736 2083,2738 2082,2738 2081,2739 2079,2739 2078,2740 2077,2740 2076,2741 2074,2741 2073,2742 2072,2742 2071,2743 2070,2743 2069,2744 2068,2744 2065,2747 2065,2748 2061,2752 2060,2752 2059,2753 2057,2753 2056,2754 2054,2754 2053,2755 2050,2755 2049,2756 2048,2756 2047,2757 2045,2757 2044,2758 2043,2758 2042,2759 2040,2759 2039,2760 2038,2760 2037,2761 2035,2761 2034,2762 2032,2762 2031,2763 2028,2763 2027,2764 2026,2764 2025,2765 2024,2765 2022,2767 2021,2767 2012,2776 2011,2776 2010,2777 2009,2777 2007,2779 2005,2779 2004,2780 2003,2780 2002,2781 2001,2781 2000,2782 1999,2782 1998,2783 1997,2783 1996,2784 1994,2784 1993,2785 1992,2785 1991,2786 1990,2786 1989,2787 1988,2787 1982,2793 1981,2793 1979,2795 1978,2795 1975,2798 1975,2799 1974,2800 1974,2806 1975,2807 1975,2810 1976,2811 1976,2812 1977,2813 1977,2814 1981,2818 1981,2819 1983,2821 1983,2822 1984,2823 1984,2824 1985,2825 1985,2826 1986,2827 1986,2829 1987,2830 1987,2831 1988,2832 1988,2833 1989,2834 1989,2835 1990,2836 1990,2837 1991,2838 1991,2839 1992,2840 1992,2841 1993,2842 1993,2844 1994,2845 1994,2846 1996,2848 1996,2849 1999,2852 2000,2852 2002,2854 2003,2854 2004,2855 2005,2855 2009,2859 2009,2860 2010,2861 2010,2862 2011,2863 2011,2864 2012,2865 2012,2866 2013,2867 2013,2868 2014,2869 2014,2870 2016,2872 2016,2873 2018,2875 2018,2876 2020,2878 2020,2879 2022,2881 2022,2882 2025,2885 2025,2886 2030,2891 2030,2892 2033,2895 2033,2896 2035,2898 2035,2900 2036,2901 2036,2902 2037,2903 2037,2904 2038,2905 2038,2907 2039,2908 2039,2909 2041,2911 2041,2912 2047,2918 2047,2919 2056,2928 2056,2929 2058,2931 2058,2932 2059,2933 2059,2934 2060,2935 2060,2936 2061,2937 2061,2938 2068,2945 2068,2946 2069,2947 2069,2948 2070,2949 2070,2950 2071,2951 2071,2952 2072,2953 2072,2954 2074,2956 2074,2957 2076,2959 2076,2960 2077,2961 2077,2962 2079,2964 2079,2965 2080,2966 2080,2967 2081,2968 2081,2969 2082,2970 2082,2971 2083,2972 2083,2974 2084,2975 2084,2976 2086,2978 2086,2979 2087,2980 2087,2981 2088,2982 2088,2987 2089,2988 2089,2991 2092,2994 2093,2994 2094,2995 2096,2995 2097,2996 2099,2996 2100,2997 2101,2997 2107,3003 2107,3005 2108,3006 2108,3007 2109,3008 2109,3010 2110,3011 2110,3012 2111,3013 2111,3014 2115,3018 2116,3018 2117,3019 2119,3019 2120,3020 2122,3020 2123,3021 2125,3021 2126,3020 2128,3020 2129,3019 2130,3019 2131,3018 2132,3018 2133,3017 2134,3017 2135,3016 2136,3016 2137,3015 2139,3015 2140,3014 2144,3014 2145,3013 2147,3013 2148,3012 2150,3012 2152,3010 2153,3010 2162,3001 2163,3001 2164,3000 2166,3000 2167,2999 2168,2999 2169,2998 2171,2998 2172,2997 2173,2997 2174,2996 2175,2996 2182,2989 2183,2989 2184,2988 2185,2988 2186,2987 2188,2987 2189,2986 2191,2986 2192,2985 2195,2985 2197,2983 2198,2983 2200,2981 2200,2980 2202,2978 2203,2978 2205,2976 2206,2976 2207,2975 2208,2975 2209,2974 2214,2974 2215,2973 2220,2973 2221,2972 2223,2972 2224,2971 2225,2971 2227,2969 2228,2969 2231,2966 2232,2966 2233,2965 2235,2965 2236,2964 2238,2964 2239,2963 2240,2963 2241,2962 2242,2962 2243,2961 2244,2961 2245,2960 2246,2960 2246,2959 2249,2956 2249,2955 2252,2952 2253,2952 2255,2950 2256,2950 2257,2949 2261,2949 2262,2948 2267,2948 2268,2947 2269,2947 2270,2946 2271,2946 2271,2945 2276,2940 2277,2940 2279,2938 2280,2938 2281,2937 2283,2937 2284,2936 2286,2936 2287,2935 2289,2935 2290,2934 2291,2934 2293,2932 2294,2932 2296,2930 2297,2930 2298,2929 2299,2929 2300,2928 2302,2928 2303,2927 2309,2927 2310,2926 2315,2926 2316,2925 2318,2925 2321,2922 2321,2921 2329,2913 2330,2913 2331,2912 2332,2912 2333,2911 2335,2911 2336,2910 2338,2910 2339,2909 2340,2909 2341,2908 2342,2908 2343,2907 2344,2907 2346,2905 2347,2905 2348,2904 2349,2904 2350,2903 2352,2903 2353,2902 2355,2902 2356,2901 2358,2901 2359,2900 2362,2900 2363,2899 2364,2899 2365,2898 2366,2898 2369,2895 2369,2894 2376,2887 2377,2887 2378,2886 2380,2886 2381,2885 2384,2885 2385,2884 2388,2884 2389,2883 2390,2883 2391,2882 2393,2882 2394,2881 2395,2881 2396,2880 2397,2880 2398,2879 2399,2879 2400,2878 2402,2878 2403,2877 2405,2877 2406,2876 2407,2876 2408,2875 2409,2875 2410,2874 2411,2874 2412,2873 2412,2872 2416,2868 2416,2867 2423,2860 2424,2860 2426,2858 2428,2858 2429,2857 2430,2857 2431,2856 2434,2856 2435,2855 2439,2855 2440,2854 2442,2854 2443,2853 2444,2853 2445,2852 2446,2852 2447,2851 2448,2851 2450,2849 2451,2849 2452,2848 2453,2848 2454,2847 2455,2847 2456,2846 2458,2846 2459,2845 2460,2845 2462,2843 2463,2843 2469,2837 2470,2837 2471,2836 2472,2836 2473,2835 2477,2835 2478,2834 2482,2834 2483,2833 2485,2833 2493,2825 2493,2824 2495,2822 2496,2822 2498,2820 2501,2820 2502,2819 2505,2819 2506,2818 2508,2818 2511,2815 2511,2814 2518,2807 2519,2807 2520,2806 2521,2806 2522,2805 2524,2805 2525,2804 2527,2804 2528,2803 2529,2803 2530,2802 2531,2802 2535,2798 2535,2797 2544,2788 2545,2788 2546,2787 2548,2787 2549,2786 2552,2786 2553,2785 2555,2785 2556,2784 2558,2784 2559,2783 2560,2783 2562,2781 2563,2781 2566,2778 2567,2778 2570,2775 2572,2775 2573,2774 2574,2774 2575,2773 2577,2773 2578,2772 2581,2772 2582,2771 2584,2771 2585,2770 2586,2770 2587,2769 2588,2769 2589,2768 2590,2768 2592,2766 2593,2766 2594,2765 2596,2765 2597,2764 2599,2764 2600,2763 2602,2763 2603,2762 2604,2762 2605,2761 2606,2761 2608,2759 2609,2759 2611,2757 2612,2757 2613,2756 2614,2756 2615,2755 2625,2755 2626,2754 2629,2754 2630,2755 2639,2755 2640,2754 2641,2754 2644,2751 2644,2750 2645,2749 2645,2747 2646,2746 2646,2745 2647,2744 2647,2743 2649,2741 2650,2741 2658,2733 2659,2733 2662,2730 2663,2730 2664,2729 2665,2729 2666,2728 2667,2728 2668,2727 2669,2727 2670,2726 2671,2726 2672,2725 2674,2725 2675,2724 2676,2724 2677,2723 2678,2723 2679,2722 2680,2722 2681,2721 2682,2721 2685,2718 2686,2718 2687,2717 2688,2717 2689,2716 2691,2716 2692,2715 2697,2715 2698,2714 2701,2714 2702,2713 2703,2713 2704,2712 2705,2712 2707,2710 2708,2710 2709,2709 2710,2709 2712,2707 2713,2707 2714,2706 2715,2706 2718,2703 2719,2703 2721,2701 2722,2701 2724,2699 2725,2699 2732,2692 2733,2692 2735,2690 2737,2690 2738,2689 2739,2689 2740,2688 2742,2688 2743,2687 2744,2687 2745,2686 2747,2686 2748,2685 2749,2685 2750,2684 2751,2684 2752,2683 2753,2683 2755,2681 2756,2681 2758,2679 2759,2679 2761,2677 2763,2677 2764,2676 2765,2676 2766,2675 2767,2675 2768,2674 2770,2674 2771,2673 2774,2673 2775,2672 2777,2672 2778,2671 2780,2671 2781,2670 2782,2670 2783,2669 2786,2669 2787,2668 2790,2668 2791,2667 2794,2667 2795,2666 2797,2666 2799,2664 2800,2664 2806,2658 2806,2657 2809,2654 2810,2654 2813,2651 2814,2651 2816,2649 2817,2649 2818,2648 2819,2648 2821,2646 2822,2646 2825,2643 2826,2643 2827,2642 2828,2642 2829,2641 2831,2641 2832,2640 2833,2640 2834,2639 2836,2639 2837,2638 2838,2638 2839,2637 2840,2637 2841,2636 2842,2636 2844,2634 2845,2634 2847,2632 2848,2632 2850,2630 2851,2630 2852,2629 2853,2629 2854,2628 2855,2628 2856,2627 2857,2627 2858,2626 2860,2626 2861,2625 2863,2625 2864,2624 2866,2624 2867,2623 2869,2623 2870,2622 2871,2622 2872,2621 2873,2621 2874,2620 2875,2620 2876,2619 2877,2619 2878,2618 2880,2618 2881,2617 2884,2617 2885,2616 2887,2616 2888,2615 2889,2615 2899,2605 2900,2605 2902,2603 2903,2603 2904,2602 2905,2602 2906,2601 2907,2601 2908,2600 2909,2600 2910,2599 2911,2599 2912,2598 2913,2598 2915,2596 2916,2596 2917,2595 2918,2595 2919,2594 2920,2594 2921,2593 2922,2593 2923,2592 2924,2592 2925,2591 2927,2591 2928,2590 2929,2590 2930,2589 2931,2589 2932,2588 2933,2588 2935,2586 2936,2586 2938,2584 2939,2584 2941,2582 2943,2582 2944,2581 2945,2581 2946,2580 2947,2580 2948,2579 2949,2579 2950,2578 2952,2578 2953,2577 2954,2577 2955,2576 2956,2576 2957,2575 2959,2575 2960,2574 2961,2574 2962,2573 2963,2573 2966,2570 2967,2570 2969,2568 2970,2568 2971,2567 2972,2567 2973,2566 2974,2566 2975,2565 2976,2565 2977,2564 2978,2564 2983,2559 2984,2559 2985,2558 2986,2558 2987,2557 2989,2557 2990,2556 2991,2556 2992,2555 2993,2555 2994,2554 2995,2554 2996,2553 2997,2553 2998,2552 2999,2552 3000,2551 3001,2551 3002,2550 3003,2550 3004,2549 3005,2549 3006,2548 3007,2548 3008,2547 3009,2547 3010,2546 3011,2546 3012,2545 3013,2545 3014,2544 3016,2544 3017,2543 3018,2543 3019,2542 3020,2542 3021,2541 3022,2541 3023,2540 3026,2540 3027,2539 3029,2539 3030,2538 3031,2538 3032,2537 3034,2537 3035,2536 3039,2536 3040,2535 3045,2535 3047,2533 3048,2533 3055,2526 3056,2526 3059,2523 3060,2523 3064,2519 3065,2519 3066,2518 3067,2518 3068,2517 3069,2517 3070,2516 3071,2516 3072,2515 3073,2515 3074,2514 3075,2514 3077,2512 3078,2512 3080,2510 3081,2510 3082,2509 3083,2509 3084,2508 3086,2508 3087,2507 3088,2507 3090,2505 3091,2505 3094,2502 3095,2502 3097,2500 3098,2500 3099,2499 3100,2499 3101,2498 3102,2498 3103,2497 3104,2497 3105,2496 3106,2496 3107,2495 3108,2495 3109,2494 3110,2494 3111,2493 3113,2493 3114,2492 3115,2492 3116,2491 3117,2491 3118,2490 3119,2490 3120,2489 3122,2489 3123,2488 3124,2488 3125,2487 3126,2487 3127,2486 3129,2486 3130,2485 3131,2485 3132,2484 3133,2484 3135,2482 3136,2482 3140,2478 3141,2478 3142,2477 3143,2477 3144,2476 3145,2476 3146,2475 3148,2475 3149,2474 3150,2474 3151,2473 3153,2473 3154,2472 3156,2472 3157,2471 3159,2471 3160,2470 3162,2470 3163,2469 3165,2469 3166,2468 3169,2468 3170,2467 3172,2467 3173,2466 3175,2466 3177,2464 3178,2464 3180,2462 3180,2461 3182,2459 3182,2458 3183,2457 3183,2456 3189,2450 3191,2450 3192,2449 3195,2449 3196,2448 3199,2448 3200,2447 3201,2447 3202,2446 3203,2446 3213,2436 3214,2436 3215,2435 3217,2435 3218,2434 3220,2434 3221,2433 3222,2433 3223,2432 3225,2432 3226,2431 3227,2431 3228,2430 3229,2430 3230,2429 3231,2429 3232,2428 3233,2428 3234,2427 3235,2427 3236,2426 3238,2426 3239,2425 3241,2425 3242,2424 3244,2424 3245,2423 3247,2423 3248,2422 3249,2422 3254,2417 3254,2414 3255,2413 3255,2409 3256,2408 3256,2407 3255,2406 3255,2404 3245,2394 3245,2393 3240,2388 3240,2387 3236,2383 3236,2382 3234,2380 3234,2379 3233,2378 3233,2377 3230,2374 3230,2373 3224,2367 3223,2367 3219,2363 3218,2363 3210,2355 3209,2355 3206,2352 3205,2352 3203,2350 3202,2350 3191,2339 3190,2339 3181,2330 3180,2330 3179,2329 3178,2329 3177,2328 3176,2328 3175,2327 3174,2327 3173,2326 3172,2326 3168,2322 3168,2321 3165,2318 3164,2318 3162,2316 3162,2315 3159,2312 3159,2311 3155,2307 3154,2307 3152,2305 3151,2305 3146,2300 3146,2299 3142,2295 3141,2295 3138,2292 3138,2291 3134,2287 3134,2286 3133,2285 3132,2285 3130,2283 3129,2283 3127,2281 3126,2281 3112,2267 3112,2266 3110,2264 3110,2263 3105,2258 3104,2258 3098,2252 3098,2251 3096,2249 3096,2248 3093,2245 3093,2244 3090,2241 3090,2240 3089,2239 3089,2238 3083,2232 3082,2232 3081,2231 3080,2231 3079,2230 3078,2230 3077,2229 3076,2229 3074,2227 3073,2227 3072,2226 3070,2226 3069,2225" fill="rgba(151,130,149,0.3)" stroke="rgb(151,130,149)" stroke-width="2" data-block-id="0001" data-name="b-0010" /><text x="2602" y="2616" text-anchor="middle" dominant-baseline="middle" class="block-label" fill="rgb(151,130,149)" stroke="white" stroke-width="3" paint-order="stroke">b-0010</text><polygon points="2424,2053 2423,2054 2416,2054 2415,2055 2410,2055 2409,2056 2393,2056 2392,2057 2352,2057 2351,2056 2317,2056 2316,2055 2289,2055 2288,2054 2226,2054 2225,2055 2219,2055 2218,2056 2213,2056 2212,2057 2199,2057 2198,2056 2180,2056 2179,2057 2169,2057 2168,2058 2120,2058 2119,2059 2042,2059 2041,2060 2012,2060 2011,2061 2008,2061 2007,2062 2006,2062 2005,2063 2004,2063 2003,2064 2002,2064 1997,2069 1997,2070 1995,2072 1995,2074 1994,2075 1994,2076 1993,2077 1993,2079 1992,2080 1992,2081 1991,2082 1991,2085 1990,2086 1990,2090 1989,2091 1989,2112 1988,2113 1988,2118 1987,2119 1987,2124 1986,2125 1986,2133 1985,2134 1985,2145 1984,2146 1984,2151 1983,2152 1983,2157 1982,2158 1982,2164 1981,2165 1981,2181 1980,2182 1980,2193 1979,2194 1979,2202 1978,2203 1978,2212 1977,2213 1977,2220 1976,2221 1976,2230 1975,2231 1975,2249 1974,2250 1974,2260 1973,2261 1973,2268 1972,2269 1972,2277 1971,2278 1971,2288 1970,2289 1970,2297 1969,2298 1969,2307 1968,2308 1968,2317 1967,2318 1967,2325 1966,2326 1966,2332 1965,2333 1965,2338 1964,2339 1964,2344 1963,2345 1963,2350 1962,2351 1962,2356 1961,2357 1961,2364 1960,2365 1960,2372 1959,2373 1959,2380 1958,2381 1958,2391 1957,2392 1957,2401 1956,2402 1956,2412 1955,2413 1955,2424 1954,2425 1954,2436 1953,2437 1953,2445 1952,2446 1952,2454 1951,2455 1951,2474 1950,2475 1950,2488 1949,2489 1949,2498 1948,2499 1948,2506 1947,2507 1947,2513 1946,2514 1946,2524 1945,2525 1945,2541 1944,2542 1944,2558 1943,2559 1943,2568 1942,2569 1942,2577 1941,2578 1941,2586 1940,2587 1940,2593 1939,2594 1939,2598 1938,2599 1938,2602 1937,2603 1937,2607 1936,2608 1936,2613 1935,2614 1935,2623 1934,2624 1934,2633 1933,2634 1933,2643 1932,2644 1932,2653 1931,2654 1931,2663 1930,2664 1930,2676 1929,2677 1929,2691 1930,2692 1930,2696 1931,2697 1931,2698 1932,2699 1932,2700 1933,2701 1934,2701 1935,2702 1939,2702 1940,2701 1942,2701 1943,2700 1945,2700 1946,2699 1948,2699 1949,2698 1952,2698 1953,2697 1954,2697 1955,2696 1956,2696 1957,2695 1958,2695 1959,2694 1960,2694 1961,2693 1962,2693 1963,2692 1964,2692 1965,2691 1966,2691 1967,2690 1968,2690 1969,2689 1970,2689 1971,2688 1972,2688 1973,2687 1975,2687 1976,2686 1977,2686 1979,2684 1980,2684 1981,2683 1982,2683 1983,2682 1984,2682 1986,2680 1987,2680 1988,2679 1989,2679 1990,2678 1991,2678 1992,2677 1993,2677 1994,2676 1995,2676 1996,2675 1997,2675 1998,2674 2000,2674 2001,2673 2002,2673 2003,2672 2004,2672 2005,2671 2006,2671 2007,2670 2008,2670 2009,2669 2010,2669 2011,2668 2012,2668 2013,2667 2014,2667 2015,2666 2016,2666 2017,2665 2018,2665 2019,2664 2020,2664 2021,2663 2022,2663 2023,2662 2024,2662 2025,2661 2026,2661 2027,2660 2028,2660 2029,2659 2031,2659 2032,2658 2033,2658 2034,2657 2035,2657 2037,2655 2038,2655 2039,2654 2040,2654 2041,2653 2043,2653 2044,2652 2045,2652 2046,2651 2047,2651 2048,2650 2050,2650 2051,2649 2053,2649 2054,2648 2055,2648 2056,2647 2057,2647 2059,2645 2060,2645 2061,2644 2062,2644 2063,2643 2064,2643 2066,2641 2067,2641 2069,2639 2070,2639 2071,2638 2072,2638 2073,2637 2074,2637 2075,2636 2077,2636 2078,2635 2079,2635 2080,2634 2081,2634 2082,2633 2084,2633 2085,2632 2086,2632 2087,2631 2089,2631 2090,2630 2091,2630 2092,2629 2094,2629 2095,2628 2096,2628 2097,2627 2098,2627 2099,2626 2100,2626 2102,2624 2103,2624 2105,2622 2106,2622 2109,2619 2110,2619 2112,2617 2113,2617 2114,2616 2115,2616 2116,2615 2117,2615 2118,2614 2119,2614 2120,2613 2121,2613 2123,2611 2124,2611 2125,2610 2126,2610 2127,2609 2128,2609 2129,2608 2131,2608 2132,2607 2133,2607 2134,2606 2135,2606 2136,2605 2137,2605 2138,2604 2139,2604 2140,2603 2141,2603 2142,2602 2143,2602 2144,2601 2145,2601 2146,2600 2147,2600 2148,2599 2149,2599 2150,2598 2151,2598 2153,2596 2154,2596 2156,2594 2157,2594 2158,2593 2159,2593 2160,2592 2161,2592 2163,2590 2164,2590 2165,2589 2167,2589 2168,2588 2169,2588 2170,2587 2171,2587 2172,2586 2173,2586 2174,2585 2175,2585 2176,2584 2178,2584 2179,2583 2180,2583 2181,2582 2182,2582 2183,2581 2185,2581 2186,2580 2187,2580 2188,2579 2190,2579 2191,2578 2192,2578 2193,2577 2195,2577 2196,2576 2198,2576 2199,2575 2200,2575 2201,2574 2202,2574 2203,2573 2205,2573 2206,2572 2207,2572 2208,2571 2209,2571 2211,2569 2212,2569 2213,2568 2214,2568 2216,2566 2217,2566 2219,2564 2220,2564 2222,2562 2223,2562 2225,2560 2226,2560 2227,2559 2228,2559 2229,2558 2230,2558 2231,2557 2232,2557 2233,2556 2235,2556 2236,2555 2237,2555 2238,2554 2239,2554 2240,2553 2241,2553 2242,2552 2243,2552 2244,2551 2246,2551 2247,2550 2248,2550 2249,2549 2250,2549 2251,2548 2252,2548 2253,2547 2254,2547 2255,2546 2256,2546 2257,2545 2258,2545 2259,2544 2260,2544 2261,2543 2262,2543 2264,2541 2265,2541 2266,2540 2267,2540 2268,2539 2269,2539 2270,2538 2271,2538 2272,2537 2273,2537 2274,2536 2275,2536 2276,2535 2277,2535 2278,2534 2279,2534 2280,2533 2281,2533 2282,2532 2283,2532 2284,2531 2285,2531 2286,2530 2287,2530 2288,2529 2289,2529 2290,2528 2291,2528 2292,2527 2293,2527 2294,2526 2295,2526 2296,2525 2297,2525 2298,2524 2299,2524 2300,2523 2301,2523 2303,2521 2304,2521 2305,2520 2306,2520 2307,2519 2308,2519 2309,2518 2310,2518 2311,2517 2312,2517 2313,2516 2314,2516 2316,2514 2317,2514 2318,2513 2319,2513 2321,2511 2322,2511 2324,2509 2325,2509 2327,2507 2328,2507 2329,2506 2330,2506 2332,2504 2333,2504 2334,2503 2335,2503 2336,2502 2337,2502 2338,2501 2339,2501 2340,2500 2341,2500 2342,2499 2343,2499 2344,2498 2345,2498 2346,2497 2347,2497 2348,2496 2349,2496 2350,2495 2351,2495 2352,2494 2353,2494 2354,2493 2355,2493 2356,2492 2357,2492 2358,2491 2359,2491 2361,2489 2362,2489 2363,2488 2364,2488 2366,2486 2367,2486 2369,2484 2370,2484 2371,2483 2372,2483 2374,2481 2375,2481 2377,2479 2378,2479 2379,2478 2380,2478 2381,2477 2382,2477 2383,2476 2384,2476 2385,2475 2387,2475 2388,2474 2389,2474 2390,2473 2392,2473 2393,2472 2394,2472 2395,2471 2396,2471 2397,2470 2399,2470 2400,2469 2401,2469 2402,2468 2403,2468 2404,2467 2405,2467 2406,2466 2407,2466 2409,2464 2410,2464 2412,2462 2413,2462 2415,2460 2416,2460 2417,2459 2418,2459 2420,2457 2421,2457 2422,2456 2423,2456 2424,2455 2425,2455 2426,2454 2427,2454 2428,2453 2429,2453 2431,2451 2432,2451 2433,2450 2434,2450 2435,2449 2436,2449 2437,2448 2438,2448 2439,2447 2440,2447 2441,2446 2442,2446 2443,2445 2444,2445 2445,2444 2446,2444 2447,2443 2448,2443 2449,2442 2450,2442 2451,2441 2452,2441 2453,2440 2454,2440 2455,2439 2456,2439 2457,2438 2459,2438 2460,2437 2461,2437 2462,2436 2464,2436 2465,2435 2466,2435 2467,2434 2469,2434 2470,2433 2471,2433 2472,2432 2473,2432 2474,2431 2475,2431 2477,2429 2478,2429 2479,2428 2480,2428 2481,2427 2482,2427 2483,2426 2484,2426 2485,2425 2486,2425 2487,2424 2489,2424 2490,2423 2491,2423 2492,2422 2493,2422 2494,2421 2495,2421 2496,2420 2497,2420 2498,2419 2500,2419 2501,2418 2502,2418 2503,2417 2504,2417 2505,2416 2507,2416 2508,2415 2509,2415 2510,2414 2511,2414 2512,2413 2513,2413 2514,2412 2515,2412 2516,2411 2517,2411 2519,2409 2520,2409 2522,2407 2523,2407 2527,2403 2528,2403 2532,2399 2532,2398 2535,2395 2535,2394 2536,2393 2536,2392 2537,2391 2537,2390 2538,2389 2538,2388 2539,2387 2539,2386 2540,2385 2540,2383 2541,2382 2541,2381 2542,2380 2542,2376 2543,2375 2543,2371 2544,2370 2544,2362 2545,2361 2545,2354 2544,2353 2544,2325 2543,2324 2543,2306 2544,2305 2544,2264 2543,2263 2543,2240 2544,2239 2544,2211 2543,2210 2543,2125 2542,2124 2542,2118 2541,2117 2541,2106 2540,2105 2540,2071 2539,2070 2539,2068 2537,2066 2537,2065 2533,2061 2532,2061 2530,2059 2529,2059 2527,2057 2526,2057 2525,2056 2524,2056 2523,2055 2522,2055 2521,2054 2517,2054 2516,2053 2514,2053 2513,2054 2487,2054 2486,2053 2448,2053 2447,2054 2429,2054 2428,2053" fill="rgba(235,157,37,0.3)" stroke="rgb(235,157,37)" stroke-width="2" data-block-id="0002" data-name="b-0012" /><text x="2206" y="2466" text-anchor="middle" dominant-baseline="middle" class="block-label" fill="rgb(235,157,37)" stroke="white" stroke-width="3" paint-order="stroke">b-0012</text><polygon points="1560,1203 1559,1204 1558,1204 1555,1207 1554,1207 1550,1211 1550,1212 1549,1213 1549,1215 1548,1216 1548,1219 1547,1220 1547,1225 1546,1226 1546,1233 1547,1234 1547,1240 1546,1241 1546,1262 1545,1263 1545,1267 1544,1268 1544,1271 1543,1272 1543,1292 1544,1293 1544,1298 1545,1299 1545,1305 1546,1306 1546,1317 1545,1318 1545,1326 1544,1327 1544,1337 1543,1338 1543,1341 1542,1342 1542,1345 1541,1346 1541,1350 1540,1351 1540,1356 1539,1357 1539,1360 1538,1361 1538,1364 1537,1365 1537,1367 1536,1368 1536,1388 1535,1389 1535,1418 1534,1419 1534,1433 1533,1434 1533,1442 1532,1443 1532,1455 1531,1456 1531,1461 1530,1462 1530,1476 1529,1477 1529,1487 1528,1488 1528,1492 1529,1493 1529,1504 1528,1505 1528,1508 1527,1509 1527,1513 1526,1514 1526,1527 1525,1528 1525,1532 1524,1533 1524,1548 1523,1549 1523,1554 1522,1555 1522,1558 1521,1559 1521,1562 1520,1563 1520,1582 1521,1583 1521,1587 1520,1588 1520,1600 1519,1601 1519,1616 1520,1617 1520,1623 1519,1624 1519,1628 1518,1629 1518,1639 1517,1640 1517,1649 1516,1650 1516,1654 1515,1655 1515,1670 1514,1671 1514,1674 1513,1675 1513,1677 1512,1678 1512,1690 1513,1691 1513,1692 1512,1693 1512,1699 1511,1700 1511,1705 1510,1706 1510,1709 1511,1710 1511,1718 1510,1719 1510,1723 1509,1724 1509,1743 1508,1744 1508,1761 1509,1762 1509,1766 1508,1767 1508,1769 1507,1770 1507,1773 1506,1774 1506,1792 1505,1793 1505,1801 1504,1802 1504,1816 1503,1817 1503,1820 1502,1821 1502,1825 1501,1826 1502,1827 1502,1839 1501,1840 1501,1842 1500,1843 1500,1845 1499,1846 1499,1853 1498,1854 1498,1879 1497,1880 1497,1891 1496,1892 1496,1906 1495,1907 1495,1912 1496,1913 1496,1922 1495,1923 1495,1943 1497,1945 1497,1946 1498,1946 1499,1947 1500,1947 1501,1948 1504,1948 1505,1949 1514,1949 1515,1950 1528,1950 1529,1951 1542,1951 1543,1952 1568,1952 1569,1953 1575,1953 1576,1954 1582,1954 1583,1955 1590,1955 1591,1956 1596,1956 1597,1957 1617,1957 1618,1958 1638,1958 1639,1959 1654,1959 1655,1958 1658,1958 1659,1959 1663,1959 1664,1960 1669,1960 1670,1961 1682,1961 1683,1962 1697,1962 1698,1961 1710,1961 1711,1962 1719,1962 1720,1963 1731,1963 1732,1964 1741,1964 1742,1965 1750,1965 1751,1966 1773,1966 1774,1967 1784,1967 1785,1968 1794,1968 1795,1969 1800,1969 1801,1970 1809,1970 1810,1969 1811,1969 1812,1970 1813,1970 1814,1971 1815,1971 1816,1972 1817,1972 1818,1973 1822,1973 1823,1974 1848,1974 1849,1975 1855,1975 1856,1976 1862,1976 1863,1975 1864,1975 1865,1974 1866,1974 1870,1970 1870,1968 1871,1967 1871,1965 1872,1964 1872,1962 1873,1961 1873,1959 1874,1958 1874,1947 1875,1946 1875,1916 1876,1915 1876,1891 1877,1890 1877,1877 1878,1876 1878,1860 1879,1859 1879,1849 1880,1848 1880,1837 1881,1836 1881,1831 1882,1830 1882,1824 1883,1823 1883,1801 1884,1800 1884,1797 1885,1796 1885,1794 1886,1793 1886,1792 1887,1791 1887,1789 1888,1788 1888,1785 1889,1784 1889,1780 1890,1779 1890,1769 1891,1768 1891,1747 1890,1746 1890,1736 1891,1735 1891,1715 1892,1714 1892,1704 1893,1703 1893,1676 1894,1675 1894,1648 1893,1647 1893,1644 1892,1643 1892,1639 1891,1638 1891,1624 1892,1623 1892,1600 1891,1599 1892,1598 1892,1586 1893,1585 1893,1582 1894,1581 1894,1580 1895,1579 1895,1578 1896,1577 1896,1575 1897,1574 1897,1564 1898,1563 1898,1537 1899,1536 1899,1530 1900,1529 1900,1525 1901,1524 1901,1522 1902,1521 1902,1519 1903,1518 1903,1515 1904,1514 1904,1497 1905,1496 1905,1488 1906,1487 1906,1478 1907,1477 1907,1473 1908,1472 1908,1469 1909,1468 1909,1446 1910,1445 1910,1431 1911,1430 1911,1422 1912,1421 1912,1413 1911,1412 1911,1394 1912,1393 1912,1392 1911,1391 1911,1382 1912,1381 1912,1378 1913,1377 1913,1374 1914,1373 1914,1369 1915,1368 1915,1362 1916,1361 1916,1341 1917,1340 1917,1332 1918,1331 1918,1322 1919,1321 1919,1318 1920,1317 1920,1314 1921,1313 1921,1311 1922,1310 1922,1304 1921,1303 1921,1296 1922,1295 1922,1286 1923,1285 1923,1270 1924,1269 1924,1260 1925,1259 1925,1243 1924,1242 1924,1238 1923,1237 1923,1236 1922,1235 1922,1234 1918,1230 1917,1230 1916,1229 1915,1229 1914,1228 1912,1228 1911,1227 1908,1227 1907,1226 1904,1226 1903,1225 1891,1225 1890,1226 1885,1226 1884,1227 1874,1227 1873,1228 1858,1228 1857,1227 1852,1227 1851,1226 1831,1226 1830,1225 1808,1225 1807,1224 1798,1224 1797,1223 1792,1223 1791,1222 1782,1222 1781,1223 1765,1223 1764,1222 1754,1222 1753,1221 1750,1221 1749,1220 1746,1220 1745,1219 1740,1219 1739,1218 1718,1218 1717,1217 1710,1217 1709,1216 1704,1216 1703,1215 1686,1215 1685,1216 1675,1216 1674,1215 1658,1215 1657,1214 1653,1214 1652,1213 1647,1213 1646,1212 1641,1212 1640,1211 1633,1211 1632,1210 1627,1210 1626,1209 1620,1209 1619,1208 1615,1208 1614,1207 1612,1207 1611,1206 1600,1206 1599,1207 1580,1207 1579,1206 1573,1206 1572,1205 1569,1205 1568,1204 1566,1204 1565,1203" fill="rgba(129,191,187,0.3)" stroke="rgb(129,191,187)" stroke-width="2" data-block-id="0003" data-name="b-0013" /><text x="1707" y="1572" text-anchor="middle" dominant-baseline="middle" class="block-label" fill="rgb(129,191,187)" stroke="white" stroke-width="3" paint-order="stroke">b-0013</text><polygon points="651,1154 650,1155 649,1155 641,1163 641,1164 640,1165 640,1166 639,1167 639,1168 638,1169 638,1171 637,1172 637,1174 636,1175 636,1177 635,1178 635,1184 636,1185 636,1192 635,1193 635,1196 634,1197 634,1201 633,1202 633,1221 632,1222 632,1237 631,1238 631,1249 630,1250 630,1262 629,1263 629,1267 628,1268 628,1272 627,1273 627,1289 626,1290 626,1294 625,1295 625,1315 624,1316 624,1331 625,1332 625,1333 624,1334 624,1338 623,1339 623,1341 622,1342 622,1346 621,1347 621,1349 622,1350 622,1383 621,1384 621,1408 620,1409 620,1416 619,1417 619,1421 618,1422 618,1426 617,1427 617,1431 616,1432 616,1438 615,1439 615,1467 614,1468 614,1477 613,1478 613,1484 612,1485 612,1508 613,1509 613,1515 612,1516 612,1518 611,1519 611,1521 610,1522 610,1527 609,1528 609,1537 608,1538 608,1542 609,1543 609,1563 608,1564 608,1570 607,1571 607,1580 606,1581 606,1589 607,1590 607,1600 606,1601 606,1602 605,1603 605,1605 604,1606 604,1607 603,1608 603,1623 602,1624 602,1627 601,1628 601,1639 602,1640 602,1643 603,1644 603,1645 602,1646 602,1649 601,1650 601,1652 600,1653 600,1657 599,1658 599,1666 598,1667 598,1697 597,1698 597,1724 596,1725 596,1744 595,1745 595,1764 594,1765 594,1771 593,1772 593,1775 592,1776 592,1782 593,1783 593,1790 592,1791 592,1793 591,1794 591,1795 590,1796 590,1797 589,1798 589,1799 588,1800 588,1804 589,1805 589,1807 590,1808 590,1810 591,1811 591,1814 590,1815 590,1818 589,1819 589,1823 588,1824 588,1827 589,1828 589,1839 588,1840 588,1844 587,1845 587,1850 586,1851 586,1872 587,1873 587,1875 588,1876 588,1877 592,1881 593,1881 594,1882 595,1882 596,1883 597,1883 598,1884 599,1884 600,1885 603,1885 604,1886 607,1886 608,1887 614,1887 615,1888 622,1888 623,1887 629,1887 630,1888 642,1888 643,1889 659,1889 660,1890 680,1890 681,1891 704,1891 705,1892 711,1892 712,1893 723,1893 724,1894 738,1894 739,1895 747,1895 748,1896 753,1896 754,1897 760,1897 761,1898 780,1898 781,1899 793,1899 794,1900 822,1900 823,1901 849,1901 850,1902 865,1902 866,1903 872,1903 873,1904 879,1904 880,1905 885,1905 886,1906 889,1906 890,1907 898,1907 899,1908 911,1908 912,1909 930,1909 931,1910 935,1910 936,1911 947,1911 948,1910 953,1910 954,1909 955,1909 956,1908 957,1908 960,1905 960,1904 961,1903 961,1902 962,1901 962,1899 963,1898 963,1895 964,1894 964,1890 965,1889 965,1866 966,1865 966,1840 967,1839 967,1816 968,1815 968,1795 969,1794 969,1785 970,1784 970,1778 971,1777 971,1762 972,1761 972,1756 973,1755 973,1749 974,1748 974,1742 975,1741 975,1734 976,1733 976,1715 977,1714 977,1706 978,1705 978,1688 979,1687 979,1656 980,1655 980,1645 981,1644 981,1632 980,1631 980,1614 981,1613 981,1606 982,1605 982,1588 981,1587 982,1586 982,1582 983,1581 983,1578 984,1577 984,1575 985,1574 985,1567 986,1566 986,1556 987,1555 987,1543 986,1542 986,1538 987,1537 987,1535 988,1534 988,1532 989,1531 989,1529 990,1528 990,1522 989,1521 989,1509 990,1508 990,1506 991,1505 991,1502 992,1501 992,1481 993,1480 993,1473 992,1472 992,1467 993,1466 993,1462 994,1461 994,1458 995,1457 995,1453 996,1452 996,1437 995,1436 995,1423 996,1422 996,1415 997,1414 997,1411 998,1410 998,1406 999,1405 999,1403 998,1402 998,1393 999,1392 999,1390 1000,1389 1000,1386 1001,1385 1001,1367 1002,1366 1002,1338 1003,1337 1003,1326 1002,1325 1002,1322 1003,1321 1003,1305 1002,1304 1002,1293 1003,1292 1003,1289 1004,1288 1004,1279 1003,1278 1003,1274 1004,1273 1004,1270 1005,1269 1005,1266 1006,1265 1006,1261 1007,1260 1007,1249 1008,1248 1008,1246 1009,1245 1009,1244 1010,1243 1010,1241 1011,1240 1011,1225 1012,1224 1012,1219 1013,1218 1013,1210 1014,1209 1014,1177 1013,1176 1013,1175 1011,1173 1010,1173 1009,1172 1008,1173 1005,1173 1004,1174 1002,1174 1001,1175 999,1175 998,1176 997,1176 995,1174 994,1174 993,1173 991,1173 990,1172 989,1172 988,1171 983,1171 982,1172 978,1172 977,1173 972,1173 971,1172 966,1172 965,1171 963,1171 962,1170 961,1170 959,1168 958,1168 957,1167 955,1167 954,1166 953,1166 952,1165 948,1165 947,1164 943,1164 942,1163 937,1163 936,1164 931,1164 930,1165 925,1165 924,1164 921,1164 920,1163 917,1163 916,1162 912,1162 911,1161 905,1161 904,1160 898,1160 897,1159 887,1159 886,1160 883,1160 882,1161 878,1161 877,1160 875,1160 874,1159 872,1159 871,1158 869,1158 868,1157 859,1157 858,1156 851,1156 850,1155 845,1155 844,1154 838,1154 837,1155 829,1155 828,1156 826,1156 824,1158 823,1158 823,1159 818,1164 816,1164 815,1163 813,1163 812,1162 803,1162 802,1163 801,1163 800,1164 799,1164 797,1166 776,1166 775,1167 770,1167 769,1166 763,1166 762,1165 754,1165 753,1164 748,1164 747,1163 736,1163 735,1164 733,1164 732,1165 730,1165 729,1166 726,1166 725,1167 724,1166 722,1166 716,1160 715,1160 714,1159 712,1159 711,1158 707,1158 706,1157 702,1157 701,1156 699,1156 698,1157 695,1157 694,1158 661,1158 660,1157 658,1157 657,1156 656,1156 655,1155 654,1155 653,1154" fill="rgba(20,160,203,0.3)" stroke="rgb(20,160,203)" stroke-width="2" data-block-id="0004" data-name="b-0014" /><text x="801" y="1481" text-anchor="middle" dominant-baseline="middle" class="block-label" fill="rgb(20,160,203)" stroke="white" stroke-width="3" paint-order="stroke">b-0014</text><polygon points="3261,389 3260,390 3231,390 3230,391 3169,391 3168,392 3167,392 3166,391 3158,391 3157,390 3137,390 3136,391 3089,391 3088,392 3084,392 3083,393 3082,393 3079,396 3079,397 3078,398 3078,400 3077,401 3077,427 3078,428 3078,591 3077,592 3077,593 3078,594 3078,700 3079,701 3078,702 3078,717 3079,718 3079,752 3078,753 3078,789 3079,790 3079,803 3078,804 3078,809 3079,810 3079,864 3080,865 3080,884 3079,885 3079,1055 3080,1056 3080,1061 3079,1062 3079,1095 3080,1096 3080,1097 3081,1098 3081,1099 3082,1100 3083,1100 3084,1101 3085,1101 3086,1102 3089,1102 3090,1103 3120,1103 3121,1102 3174,1102 3175,1103 3206,1103 3207,1102 3222,1102 3223,1103 3235,1103 3236,1102 3240,1102 3241,1103 3255,1103 3256,1102 3302,1102 3303,1101 3329,1101 3330,1102 3344,1102 3345,1101 3352,1101 3353,1100 3367,1100 3368,1101 3371,1101 3372,1100 3422,1100 3423,1101 3444,1101 3445,1100 3449,1100 3450,1099 3453,1099 3454,1098 3455,1098 3457,1096 3457,1094 3458,1093 3458,1077 3459,1076 3459,1045 3458,1044 3458,1019 3457,1018 3457,1007 3458,1006 3458,993 3459,992 3459,969 3458,968 3458,959 3459,958 3459,941 3458,940 3458,921 3457,920 3457,911 3456,910 3456,873 3455,872 3455,868 3456,867 3456,857 3457,856 3457,843 3458,842 3458,823 3459,822 3459,821 3458,820 3458,811 3457,810 3457,799 3456,798 3456,789 3457,788 3457,759 3456,758 3456,750 3455,749 3455,746 3456,745 3456,741 3457,740 3457,699 3456,698 3456,693 3455,692 3455,668 3454,667 3454,623 3453,622 3453,573 3452,572 3452,561 3453,560 3453,530 3452,529 3452,514 3453,513 3453,501 3452,500 3452,492 3453,491 3453,482 3452,481 3452,476 3451,475 3451,464 3452,463 3452,454 3451,453 3451,446 3452,445 3452,439 3453,438 3453,431 3452,430 3452,417 3453,416 3453,399 3452,398 3452,396 3451,395 3451,394 3450,393 3450,392 3449,392 3448,391 3446,391 3445,390 3441,390 3440,389 3425,389 3424,390 3415,390 3414,391 3343,391 3342,390 3337,390 3336,389 3305,389 3304,390 3277,390 3276,389" fill="rgba(57,21,252,0.3)" stroke="rgb(57,21,252)" stroke-width="2" data-block-id="0005" data-name="b-0015" /><text x="3320" y="746" text-anchor="middle" dominant-baseline="middle" class="block-label" fill="rgb(57,21,252)" stroke="white" stroke-width="3" paint-order="stroke">b-0015</text><polygon points="2922,390 2921,391 2864,391 2863,392 2854,392 2853,393 2849,393 2848,394 2843,394 2842,395 2839,395 2838,394 2803,394 2802,395 2791,395 2790,396 2784,396 2783,397 2763,397 2762,398 2752,398 2751,397 2731,397 2730,396 2718,396 2717,395 2689,395 2688,396 2679,396 2678,397 2673,397 2672,398 2667,398 2666,399 2645,399 2644,400 2635,400 2634,401 2628,401 2627,402 2623,402 2622,403 2620,403 2619,404 2618,404 2615,407 2615,408 2614,409 2614,413 2613,414 2613,426 2614,427 2614,505 2615,506 2615,510 2614,511 2614,538 2615,539 2615,551 2614,552 2614,559 2613,560 2613,566 2614,567 2614,571 2615,572 2615,574 2616,575 2616,577 2617,578 2617,579 2618,580 2618,582 2619,583 2619,588 2620,589 2620,592 2619,593 2619,597 2618,598 2618,607 2619,608 2619,612 2620,613 2620,620 2619,621 2619,664 2618,665 2618,669 2617,670 2617,718 2618,719 2618,725 2617,726 2617,727 2616,728 2616,730 2615,731 2615,735 2614,736 2614,744 2613,745 2613,781 2614,782 2614,784 2613,785 2613,801 2612,802 2612,810 2613,811 2613,864 2614,865 2614,876 2615,877 2615,881 2614,882 2614,906 2615,907 2615,924 2614,925 2614,982 2613,983 2613,990 2614,991 2614,1039 2615,1040 2615,1077 2614,1078 2614,1095 2615,1096 2615,1098 2616,1099 2616,1100 2620,1104 2621,1104 2622,1105 2624,1105 2625,1106 2628,1106 2629,1107 2635,1107 2636,1108 2645,1108 2646,1107 2658,1107 2659,1106 2695,1106 2696,1105 2754,1105 2755,1104 2760,1104 2761,1105 2774,1105 2775,1106 2803,1106 2804,1105 2831,1105 2832,1106 2845,1106 2846,1105 2859,1105 2860,1106 2870,1106 2871,1105 2878,1105 2879,1104 2962,1104 2963,1105 2978,1105 2979,1104 2984,1104 2985,1103 2987,1103 2990,1100 2990,1099 2991,1098 2991,1097 2992,1096 2992,1074 2991,1073 2991,1053 2992,1052 2992,1028 2991,1027 2991,1014 2990,1013 2990,1010 2991,1009 2991,998 2992,997 2992,990 2993,989 2993,985 2992,984 2992,975 2991,974 2991,953 2992,952 2992,932 2991,931 2991,919 2992,918 2992,910 2991,909 2991,879 2990,878 2990,866 2991,865 2991,859 2992,858 2992,848 2993,847 2993,840 2992,839 2992,832 2991,831 2991,798 2992,797 2992,780 2991,779 2991,764 2992,763 2992,755 2993,754 2993,732 2992,731 2992,718 2993,717 2993,707 2992,706 2992,676 2991,675 2991,674 2992,673 2992,663 2993,662 2993,656 2994,655 2994,644 2993,643 2993,607 2994,606 2994,602 2993,601 2993,585 2992,584 2992,543 2993,542 2993,518 2994,517 2994,500 2993,499 2993,492 2992,491 2992,485 2991,484 2991,475 2992,474 2992,464 2993,463 2993,455 2992,454 2992,406 2991,405 2991,399 2990,398 2990,397 2987,394 2986,394 2985,393 2964,393 2963,392 2942,392 2941,391 2930,391 2929,390" fill="rgba(235,88,48,0.3)" stroke="rgb(235,88,48)" stroke-width="2" data-block-id="0006" data-name="b-0016" /><text x="2799" y="725" text-anchor="middle" dominant-baseline="middle" class="block-label" fill="rgb(235,88,48)" stroke="white" stroke-width="3" paint-order="stroke">b-0016</text><polygon points="1616,369 1615,370 1613,370 1612,371 1611,371 1608,374 1608,375 1607,376 1607,380 1606,381 1606,390 1605,391 1605,401 1604,402 1605,403 1605,414 1604,415 1604,425 1603,426 1603,437 1602,438 1602,447 1601,448 1601,458 1600,459 1600,481 1599,482 1599,491 1598,492 1598,505 1597,506 1597,518 1596,519 1596,530 1595,531 1595,555 1594,556 1594,573 1593,574 1593,590 1592,591 1592,608 1591,609 1591,616 1590,617 1590,635 1589,636 1589,643 1590,644 1590,654 1589,655 1589,659 1588,660 1588,682 1587,683 1587,690 1586,691 1586,698 1585,699 1585,704 1584,705 1584,710 1583,711 1583,726 1582,727 1582,747 1581,748 1581,760 1580,761 1580,768 1579,769 1579,806 1578,807 1578,814 1577,815 1577,835 1576,836 1576,839 1575,840 1575,858 1574,859 1574,863 1573,864 1573,876 1574,877 1574,880 1573,881 1573,884 1572,885 1572,889 1571,890 1571,899 1570,900 1570,912 1569,913 1569,920 1570,921 1570,927 1569,928 1569,933 1568,934 1568,949 1567,950 1567,958 1566,959 1566,972 1567,973 1567,974 1566,975 1566,979 1565,980 1565,983 1564,984 1564,993 1563,994 1563,1007 1562,1008 1562,1026 1561,1027 1561,1033 1560,1034 1560,1044 1559,1045 1559,1049 1560,1050 1560,1057 1561,1058 1561,1059 1564,1062 1565,1062 1566,1063 1568,1063 1569,1064 1571,1064 1572,1065 1580,1065 1581,1066 1588,1066 1589,1067 1592,1067 1593,1068 1597,1068 1598,1069 1602,1069 1603,1068 1610,1068 1611,1069 1617,1069 1618,1070 1627,1070 1628,1071 1638,1071 1639,1072 1654,1072 1655,1071 1656,1071 1657,1072 1664,1072 1665,1073 1672,1073 1673,1074 1681,1074 1682,1075 1692,1075 1693,1076 1701,1076 1702,1077 1712,1077 1713,1078 1733,1078 1734,1079 1746,1079 1747,1080 1755,1080 1756,1081 1768,1081 1769,1082 1790,1082 1791,1083 1800,1083 1801,1084 1828,1084 1829,1085 1842,1085 1843,1086 1856,1086 1857,1087 1874,1087 1875,1088 1883,1088 1884,1089 1890,1089 1891,1090 1896,1090 1897,1091 1921,1091 1922,1092 1931,1092 1932,1091 1933,1091 1937,1087 1937,1086 1938,1085 1938,1082 1939,1081 1939,1076 1940,1075 1940,1069 1941,1068 1941,1059 1942,1058 1942,1045 1943,1044 1943,1036 1944,1035 1944,1031 1943,1030 1943,1022 1944,1021 1944,1016 1945,1015 1945,1000 1946,999 1946,995 1947,994 1947,992 1948,991 1948,987 1949,986 1949,977 1950,976 1950,962 1949,961 1949,953 1948,952 1948,949 1949,948 1949,937 1950,936 1950,920 1951,919 1951,912 1950,911 1950,902 1951,901 1951,897 1952,896 1952,889 1953,888 1953,871 1954,870 1954,860 1955,859 1955,853 1956,852 1956,841 1957,840 1957,835 1958,834 1958,816 1959,815 1959,805 1960,804 1960,799 1961,798 1961,773 1962,772 1962,763 1963,762 1963,746 1964,745 1964,730 1965,729 1965,718 1966,717 1966,702 1967,701 1967,692 1968,691 1968,675 1969,674 1969,670 1970,669 1970,662 1971,661 1971,649 1972,648 1972,602 1973,601 1973,585 1974,584 1974,575 1975,574 1975,570 1976,569 1976,560 1977,559 1977,530 1978,529 1978,519 1979,518 1979,493 1980,492 1980,477 1981,476 1981,467 1982,466 1982,456 1983,455 1983,446 1984,445 1984,439 1985,438 1985,431 1984,430 1984,424 1985,423 1985,417 1986,416 1986,401 1985,400 1985,398 1984,397 1984,396 1982,394 1981,394 1980,393 1976,393 1975,392 1966,392 1965,391 1954,391 1953,390 1947,390 1946,389 1932,389 1931,388 1919,388 1918,387 1911,387 1910,386 1896,386 1895,385 1886,385 1885,384 1876,384 1875,383 1865,383 1864,382 1832,382 1831,381 1825,381 1824,380 1813,380 1812,379 1788,379 1787,378 1759,378 1758,377 1751,377 1750,376 1740,376 1739,375 1725,375 1724,374 1699,374 1698,373 1674,373 1673,372 1658,372 1657,371 1646,371 1645,370 1632,370 1631,369" fill="rgba(218,58,254,0.3)" stroke="rgb(218,58,254)" stroke-width="2" data-block-id="0007" data-name="b-0017" /><text x="1767" y="760" text-anchor="middle" dominant-baseline="middle" class="block-label" fill="rgb(218,58,254)" stroke="white" stroke-width="3" paint-order="stroke">b-0017</text><polygon points="712,308 711,309 709,309 708,310 705,310 704,311 701,311 700,312 699,312 696,315 696,317 695,318 695,334 694,335 694,357 693,358 693,373 692,374 692,384 691,385 691,394 690,395 690,399 689,400 689,402 688,403 688,405 687,406 687,407 686,408 686,410 685,411 685,430 684,431 684,436 683,437 683,458 682,459 682,465 681,466 681,472 680,473 680,507 681,508 681,525 680,526 680,535 679,536 679,548 678,549 678,554 677,555 677,560 676,561 676,584 675,585 675,594 674,595 674,603 673,604 673,611 672,612 672,632 671,633 671,660 670,661 670,676 671,677 671,679 672,680 672,682 673,683 673,685 674,686 674,691 673,692 673,695 672,696 672,700 671,701 671,705 672,706 672,718 673,719 673,731 672,732 672,739 671,740 671,745 670,746 670,760 669,761 669,765 668,766 668,783 667,784 667,786 665,788 665,789 664,790 664,791 663,792 663,794 662,795 662,800 663,801 663,814 662,815 662,834 661,835 661,840 660,841 660,865 659,866 660,867 660,882 659,883 659,886 658,887 658,914 657,915 657,931 656,932 656,947 655,948 655,964 654,965 654,977 653,978 653,981 652,982 652,987 651,988 651,998 652,999 652,1000 653,1001 654,1001 655,1002 657,1002 658,1003 661,1003 662,1004 667,1004 668,1005 678,1005 679,1006 689,1006 690,1007 697,1007 698,1008 717,1008 718,1009 728,1009 729,1010 748,1010 749,1011 752,1011 753,1012 756,1012 757,1013 763,1013 764,1014 794,1014 795,1015 803,1015 804,1016 811,1016 812,1017 842,1017 843,1018 849,1018 850,1019 857,1019 858,1020 869,1020 870,1021 881,1021 882,1022 892,1022 893,1023 902,1023 903,1024 925,1024 926,1025 941,1025 942,1024 943,1024 944,1023 945,1023 947,1021 947,1019 948,1018 948,1015 949,1014 949,1013 951,1011 953,1011 956,1014 956,1015 957,1016 957,1018 958,1019 958,1020 960,1022 962,1022 963,1023 966,1023 967,1022 971,1022 972,1021 985,1021 986,1022 989,1022 990,1021 1008,1021 1009,1022 1010,1021 1012,1021 1012,1020 1015,1017 1015,1016 1017,1014 1018,1014 1020,1012 1021,1012 1022,1011 1022,1010 1024,1008 1024,1007 1025,1006 1025,1005 1026,1004 1026,1001 1027,1000 1027,971 1028,970 1028,955 1029,954 1029,930 1030,929 1030,919 1031,918 1031,909 1032,908 1032,900 1033,899 1033,889 1034,888 1034,884 1035,883 1035,880 1036,879 1036,857 1037,856 1037,841 1038,840 1038,834 1039,833 1039,803 1040,802 1040,795 1041,794 1041,784 1042,783 1042,774 1043,773 1043,763 1042,762 1042,761 1043,760 1043,752 1044,751 1044,737 1045,736 1045,729 1046,728 1046,721 1047,720 1047,711 1048,710 1048,686 1049,685 1049,664 1050,663 1050,658 1051,657 1051,648 1052,647 1052,613 1053,612 1053,593 1054,592 1054,581 1055,580 1055,574 1056,573 1056,569 1057,568 1057,557 1058,556 1058,551 1059,550 1059,547 1060,546 1060,526 1061,525 1061,502 1062,501 1062,486 1063,485 1063,457 1064,456 1064,450 1065,449 1065,410 1066,409 1066,404 1067,403 1067,398 1068,397 1068,393 1069,392 1069,386 1070,385 1070,380 1071,379 1071,376 1072,375 1072,371 1073,370 1073,363 1074,362 1074,340 1073,339 1073,338 1071,336 1070,336 1069,335 1062,335 1061,334 1047,334 1046,333 1041,333 1040,332 1034,332 1033,331 1016,331 1015,330 1000,330 999,329 993,329 992,328 971,328 970,327 952,327 951,326 936,326 935,327 933,327 932,328 931,328 930,329 926,329 925,328 924,328 923,327 922,327 920,325 918,325 917,324 915,324 914,323 906,323 905,324 899,324 898,323 891,323 890,324 883,324 882,325 878,325 877,324 873,324 872,323 864,323 863,322 849,322 848,321 832,321 831,320 824,320 823,319 811,319 810,318 802,318 801,319 797,319 796,318 793,318 792,317 790,317 789,316 788,316 787,315 782,315 781,314 767,314 766,313 746,313 745,312 738,312 737,311 734,311 733,310 731,310 730,309 727,309 726,308" fill="rgba(169,219,187,0.3)" stroke="rgb(169,219,187)" stroke-width="2" data-block-id="0008" data-name="b-0018" /><text x="855" y="667" text-anchor="middle" dominant-baseline="middle" class="block-label" fill="rgb(169,219,187)" stroke="white" stroke-width="3" paint-order="stroke">b-0018</text><polygon points="1119,1173 1118,1174 1116,1174 1113,1177 1112,1177 1108,1181 1108,1184 1107,1185 1107,1188 1106,1189 1106,1192 1105,1193 1105,1197 1104,1198 1104,1209 1103,1210 1103,1239 1102,1240 1102,1256 1101,1257 1101,1272 1100,1273 1100,1279 1099,1280 1099,1285 1098,1286 1098,1310 1097,1311 1097,1317 1096,1318 1096,1335 1095,1336 1095,1343 1094,1344 1094,1356 1093,1357 1093,1366 1092,1367 1092,1380 1091,1381 1091,1392 1090,1393 1090,1410 1089,1411 1089,1418 1088,1419 1088,1452 1087,1453 1087,1460 1086,1461 1086,1468 1085,1469 1085,1477 1084,1478 1084,1481 1083,1482 1083,1484 1082,1485 1082,1489 1081,1490 1081,1502 1080,1503 1080,1510 1079,1511 1079,1524 1078,1525 1078,1542 1077,1543 1077,1552 1076,1553 1076,1560 1075,1561 1075,1588 1076,1589 1076,1594 1077,1595 1077,1600 1076,1601 1076,1609 1075,1610 1075,1644 1074,1645 1074,1654 1073,1655 1073,1672 1072,1673 1072,1676 1071,1677 1071,1681 1070,1682 1070,1686 1069,1687 1069,1692 1068,1693 1068,1697 1067,1698 1067,1708 1066,1709 1066,1728 1065,1729 1065,1738 1064,1739 1064,1745 1063,1746 1063,1788 1062,1789 1062,1797 1061,1798 1061,1810 1060,1811 1060,1833 1059,1834 1059,1841 1058,1842 1058,1848 1057,1849 1057,1882 1058,1883 1057,1884 1057,1889 1056,1890 1056,1895 1055,1896 1055,1903 1054,1904 1054,1908 1055,1909 1055,1910 1056,1911 1056,1912 1057,1913 1058,1913 1060,1915 1062,1915 1063,1916 1066,1916 1067,1917 1070,1917 1071,1918 1075,1918 1076,1919 1078,1919 1079,1920 1082,1920 1083,1921 1103,1921 1104,1922 1122,1922 1123,1923 1125,1923 1126,1924 1130,1924 1131,1925 1132,1925 1133,1924 1140,1924 1141,1923 1142,1923 1143,1924 1153,1924 1154,1925 1159,1925 1160,1926 1163,1926 1164,1927 1182,1927 1183,1928 1189,1928 1190,1929 1204,1929 1205,1930 1210,1930 1211,1931 1223,1931 1224,1930 1226,1930 1227,1931 1231,1931 1232,1932 1236,1932 1237,1933 1243,1933 1244,1932 1252,1932 1253,1933 1256,1933 1257,1934 1259,1934 1260,1935 1266,1935 1267,1934 1279,1934 1280,1935 1285,1935 1286,1936 1319,1936 1320,1937 1339,1937 1340,1938 1359,1938 1360,1939 1366,1939 1367,1940 1392,1940 1393,1939 1395,1939 1396,1938 1396,1937 1398,1935 1398,1933 1399,1932 1399,1917 1400,1916 1400,1908 1401,1907 1401,1900 1402,1899 1402,1886 1403,1885 1403,1881 1404,1880 1404,1877 1405,1876 1405,1872 1406,1871 1406,1864 1407,1863 1407,1857 1408,1856 1408,1849 1409,1848 1409,1846 1408,1845 1408,1835 1409,1834 1409,1827 1410,1826 1410,1809 1411,1808 1411,1783 1412,1782 1412,1765 1413,1764 1413,1749 1414,1748 1414,1742 1415,1741 1415,1730 1416,1729 1416,1725 1417,1724 1417,1721 1418,1720 1418,1714 1419,1713 1419,1702 1420,1701 1420,1695 1421,1694 1421,1661 1422,1660 1422,1652 1423,1651 1423,1646 1424,1645 1424,1629 1423,1628 1423,1622 1424,1621 1424,1608 1425,1607 1425,1602 1426,1601 1426,1594 1427,1593 1427,1579 1426,1578 1426,1571 1427,1570 1427,1562 1428,1561 1428,1558 1429,1557 1429,1555 1430,1554 1430,1552 1431,1551 1431,1543 1432,1542 1432,1525 1433,1524 1433,1506 1434,1505 1434,1482 1435,1481 1435,1462 1436,1461 1436,1447 1437,1446 1437,1431 1438,1430 1438,1417 1439,1416 1439,1413 1440,1412 1440,1410 1441,1409 1441,1390 1442,1389 1442,1385 1443,1384 1443,1372 1444,1371 1444,1363 1445,1362 1445,1340 1446,1339 1446,1326 1445,1325 1445,1320 1446,1319 1446,1295 1447,1294 1447,1277 1448,1276 1448,1269 1449,1268 1449,1261 1450,1260 1450,1244 1451,1243 1451,1234 1452,1233 1452,1226 1453,1225 1453,1216 1454,1215 1454,1210 1453,1209 1453,1203 1452,1202 1452,1201 1451,1201 1449,1199 1448,1199 1447,1198 1445,1198 1444,1197 1442,1197 1441,1196 1420,1196 1419,1195 1415,1195 1414,1196 1405,1196 1404,1195 1401,1195 1400,1194 1397,1194 1396,1193 1382,1193 1381,1192 1367,1192 1366,1191 1350,1191 1349,1190 1334,1190 1333,1189 1326,1189 1325,1188 1292,1188 1291,1187 1283,1187 1282,1186 1279,1186 1278,1185 1255,1185 1254,1184 1248,1184 1247,1185 1235,1185 1234,1184 1230,1184 1229,1183 1225,1183 1224,1182 1218,1182 1217,1181 1199,1181 1198,1182 1187,1182 1186,1181 1184,1181 1183,1180 1181,1180 1180,1179 1176,1179 1175,1178 1151,1178 1150,1177 1140,1177 1139,1176 1132,1176 1131,1175 1126,1175 1125,1174 1122,1174 1121,1173" fill="rgba(207,14,189,0.3)" stroke="rgb(207,14,189)" stroke-width="2" data-block-id="0009" data-name="b-0019" /><text x="1250" y="1569" text-anchor="middle" dominant-baseline="middle" class="block-label" fill="rgb(207,14,189)" stroke="white" stroke-width="3" paint-order="stroke">b-0019</text><polygon points="2290,387 2289,388 2288,388 2287,389 2286,389 2284,391 2283,391 2282,392 2281,392 2280,393 2277,393 2276,394 2263,394 2262,395 2243,395 2242,394 2208,394 2207,393 2204,393 2203,392 2201,392 2200,391 2198,391 2197,390 2196,391 2194,391 2193,392 2191,392 2190,393 2188,393 2187,394 2179,394 2178,395 2160,395 2157,398 2157,400 2156,401 2156,409 2155,410 2155,425 2154,426 2154,431 2153,432 2153,453 2152,454 2152,457 2151,458 2151,464 2150,465 2150,477 2149,478 2149,499 2148,500 2148,504 2147,505 2147,547 2146,548 2146,551 2145,552 2145,577 2146,578 2146,579 2145,580 2145,589 2144,590 2144,599 2143,600 2143,636 2142,637 2142,644 2141,645 2141,650 2140,651 2140,675 2139,676 2139,680 2138,681 2138,685 2137,686 2137,702 2136,703 2136,713 2135,714 2135,719 2134,720 2134,730 2133,731 2133,738 2134,739 2134,744 2135,745 2135,758 2136,759 2136,767 2137,768 2137,781 2136,782 2136,793 2135,794 2135,797 2136,798 2136,813 2135,814 2135,831 2136,832 2136,833 2137,834 2137,835 2155,853 2155,854 2160,859 2161,859 2175,873 2175,874 2176,875 2176,876 2178,878 2178,879 2179,880 2179,881 2180,882 2180,883 2184,887 2185,887 2194,896 2195,896 2200,901 2200,902 2202,904 2202,905 2209,912 2210,912 2222,924 2222,925 2224,927 2224,928 2227,931 2227,932 2231,936 2232,936 2234,938 2235,938 2239,942 2240,942 2247,949 2247,950 2249,952 2249,953 2252,956 2252,957 2253,958 2254,958 2270,974 2270,975 2272,977 2272,978 2274,980 2274,981 2281,988 2282,988 2285,991 2286,991 2289,994 2290,994 2295,999 2295,1000 2303,1008 2304,1008 2307,1011 2307,1012 2333,1038 2333,1039 2342,1048 2342,1049 2344,1051 2344,1052 2357,1065 2358,1065 2369,1076 2369,1077 2377,1085 2377,1086 2382,1091 2383,1091 2385,1093 2386,1093 2388,1095 2389,1095 2392,1098 2393,1098 2394,1099 2395,1099 2397,1101 2399,1101 2400,1102 2403,1102 2404,1103 2410,1103 2411,1104 2416,1104 2417,1105 2420,1105 2421,1106 2426,1106 2427,1105 2431,1105 2432,1104 2443,1104 2444,1105 2449,1105 2450,1104 2465,1104 2466,1105 2491,1105 2492,1106 2509,1106 2510,1107 2515,1107 2516,1108 2523,1108 2524,1107 2529,1107 2530,1106 2532,1106 2535,1103 2535,1102 2537,1100 2537,1098 2538,1097 2538,1075 2537,1074 2537,1054 2538,1053 2538,1004 2539,1003 2539,877 2538,876 2538,841 2539,840 2539,828 2538,827 2538,815 2539,814 2539,800 2538,799 2538,788 2539,787 2539,779 2538,778 2538,714 2539,713 2539,712 2538,711 2538,655 2537,654 2537,649 2538,648 2538,615 2537,614 2537,571 2538,570 2538,562 2537,561 2537,550 2538,549 2538,540 2537,539 2537,528 2538,527 2538,512 2537,511 2537,493 2536,492 2536,451 2537,450 2537,446 2536,445 2536,431 2535,430 2535,415 2534,414 2534,409 2533,408 2533,405 2532,404 2532,403 2530,401 2529,401 2528,400 2524,400 2523,399 2516,399 2515,398 2511,398 2510,397 2509,397 2508,396 2507,396 2506,395 2504,395 2503,394 2500,394 2499,393 2488,393 2487,394 2464,394 2463,395 2443,395 2442,394 2434,394 2433,393 2430,393 2429,392 2427,392 2426,391 2424,391 2423,390 2420,390 2419,391 2413,391 2412,392 2408,392 2407,393 2402,393 2401,394 2397,394 2396,393 2387,393 2386,392 2383,392 2382,391 2381,391 2380,390 2379,390 2378,389 2376,389 2375,388 2372,388 2371,389 2367,389 2366,390 2363,390 2362,391 2354,391 2353,392 2344,392 2343,391 2310,391 2309,390 2305,390 2304,389 2301,389 2300,388 2297,388 2296,387" fill="rgba(189,174,189,0.3)" stroke="rgb(189,174,189)" stroke-width="2" data-block-id="0010" data-name="b-0020" /><text x="2331" y="695" text-anchor="middle" dominant-baseline="middle" class="block-label" fill="rgb(189,174,189)" stroke="white" stroke-width="3" paint-order="stroke">b-0020</text><polygon points="1177,341 1176,342 1174,342 1173,343 1172,343 1171,344 1170,344 1168,346 1168,347 1167,348 1167,349 1166,350 1166,352 1165,353 1165,356 1164,357 1164,361 1163,362 1163,379 1162,380 1162,386 1161,387 1161,394 1160,395 1160,407 1159,408 1159,425 1158,426 1158,434 1157,435 1157,444 1156,445 1156,461 1155,462 1155,470 1154,471 1154,477 1155,478 1155,486 1154,487 1154,494 1153,495 1153,527 1154,528 1154,535 1153,536 1153,547 1152,548 1152,559 1151,560 1151,570 1150,571 1150,578 1149,579 1149,583 1148,584 1148,588 1147,589 1147,617 1146,618 1146,630 1145,631 1145,636 1144,637 1144,644 1143,645 1143,665 1142,666 1142,672 1141,673 1141,690 1140,691 1140,700 1139,701 1139,719 1138,720 1138,733 1137,734 1137,741 1136,742 1136,759 1135,760 1135,768 1134,769 1134,783 1133,784 1133,799 1132,800 1132,807 1131,808 1131,816 1130,817 1130,824 1129,825 1129,841 1130,842 1130,849 1129,850 1129,872 1128,873 1128,882 1127,883 1127,899 1126,900 1126,917 1125,918 1125,926 1124,927 1124,938 1123,939 1123,949 1122,950 1122,964 1121,965 1121,978 1120,979 1120,998 1119,999 1119,1009 1118,1010 1118,1021 1117,1022 1117,1024 1118,1025 1118,1031 1119,1032 1119,1033 1120,1034 1121,1034 1122,1035 1125,1035 1126,1036 1134,1036 1135,1037 1154,1037 1155,1038 1163,1038 1164,1039 1180,1039 1181,1040 1196,1040 1197,1041 1209,1041 1210,1042 1228,1042 1229,1043 1250,1043 1251,1044 1272,1044 1273,1045 1279,1045 1280,1046 1285,1046 1286,1047 1303,1047 1304,1048 1325,1048 1326,1049 1345,1049 1346,1050 1356,1050 1357,1051 1364,1051 1365,1052 1377,1052 1378,1053 1397,1053 1398,1054 1406,1054 1407,1055 1418,1055 1419,1056 1440,1056 1441,1057 1456,1057 1457,1056 1460,1056 1461,1055 1462,1055 1463,1054 1464,1054 1465,1053 1465,1052 1466,1051 1466,1050 1467,1049 1467,1045 1468,1044 1468,1027 1469,1026 1469,1008 1470,1007 1470,987 1471,986 1471,980 1472,979 1472,969 1473,968 1473,953 1474,952 1474,935 1475,934 1475,926 1476,925 1476,906 1477,905 1477,886 1478,885 1478,877 1479,876 1479,867 1480,866 1480,860 1481,859 1481,850 1482,849 1482,837 1483,836 1483,826 1484,825 1484,805 1485,804 1485,794 1486,793 1486,783 1487,782 1487,776 1488,775 1488,768 1489,767 1489,737 1490,736 1490,733 1491,732 1491,728 1492,727 1492,701 1493,700 1493,691 1494,690 1494,680 1495,679 1495,644 1496,643 1496,638 1497,637 1497,633 1498,632 1498,601 1499,600 1499,595 1500,594 1500,584 1501,583 1501,576 1502,575 1502,564 1503,563 1503,538 1504,537 1504,524 1505,523 1505,513 1506,512 1506,489 1507,488 1507,477 1508,476 1508,458 1509,457 1509,451 1510,450 1510,431 1511,430 1511,418 1512,417 1512,408 1513,407 1513,379 1514,378 1513,377 1513,369 1512,368 1512,366 1511,365 1511,364 1510,364 1508,362 1507,362 1505,360 1504,360 1503,359 1495,359 1494,360 1485,360 1484,359 1462,359 1461,358 1454,358 1453,357 1448,357 1447,356 1422,356 1421,357 1416,357 1415,356 1411,356 1410,355 1403,355 1402,354 1393,354 1392,353 1364,353 1363,352 1325,352 1324,351 1306,351 1305,350 1294,350 1293,349 1286,349 1285,348 1280,348 1279,347 1253,347 1252,346 1248,346 1247,345 1244,345 1243,344 1239,344 1238,343 1224,343 1223,344 1208,344 1207,343 1198,343 1197,342 1190,342 1189,341" fill="rgba(50,107,54,0.3)" stroke="rgb(50,107,54)" stroke-width="2" data-block-id="0011" data-name="b-0021" /><text x="1308" y="687" text-anchor="middle" dominant-baseline="middle" class="block-label" fill="rgb(50,107,54)" stroke="white" stroke-width="3" paint-order="stroke">b-0021</text><polygon points="4266,377 4265,378 4264,378 4263,379 4261,379 4260,380 4258,380 4257,381 4248,381 4247,382 4240,382 4239,381 4229,381 4228,382 4222,382 4221,383 4218,383 4217,382 4208,382 4207,381 4177,381 4176,382 4153,382 4152,383 4142,383 4141,382 4133,382 4132,381 4112,381 4111,382 4107,382 4106,383 4102,383 4101,384 4099,384 4098,383 4095,383 4094,382 4092,382 4091,381 4084,381 4083,382 4081,382 4080,383 4076,383 4075,384 4070,384 4069,383 4047,383 4046,382 4029,382 4028,383 4005,383 4004,382 3993,382 3992,381 3979,381 3978,382 3976,382 3975,383 3974,383 3973,384 3971,384 3970,385 3969,385 3968,386 3967,386 3965,388 3965,389 3964,390 3964,391 3963,392 3963,394 3962,395 3962,397 3961,398 3961,412 3960,413 3960,418 3959,419 3959,429 3960,430 3960,455 3961,456 3961,477 3960,478 3960,531 3961,532 3961,544 3960,545 3960,552 3959,553 3959,565 3960,566 3960,573 3961,574 3961,617 3962,618 3962,693 3963,694 3963,708 3964,709 3964,724 3965,725 3965,726 3964,727 3964,760 3965,761 3965,790 3964,791 3964,799 3965,800 3965,815 3964,816 3964,865 3965,866 3965,868 3964,869 3964,878 3963,879 3963,904 3964,905 3964,914 3965,915 3965,935 3966,936 3966,952 3965,953 3965,974 3966,975 3966,1003 3965,1004 3965,1024 3966,1025 3966,1069 3967,1070 3967,1077 3968,1078 3968,1085 3969,1086 3969,1088 3970,1089 3970,1091 3971,1092 3971,1093 3973,1095 3974,1095 3975,1096 3976,1096 3977,1097 3978,1097 3979,1098 3988,1098 3989,1097 4009,1097 4010,1098 4018,1098 4019,1097 4048,1097 4049,1096 4108,1096 4109,1097 4120,1097 4121,1096 4212,1096 4213,1097 4276,1097 4277,1098 4279,1098 4280,1097 4283,1097 4284,1096 4286,1096 4287,1095 4288,1095 4289,1094 4290,1094 4292,1092 4292,1091 4293,1090 4293,1087 4294,1086 4294,1083 4295,1082 4295,1075 4296,1074 4296,1067 4295,1066 4295,1051 4296,1050 4296,1041 4295,1040 4295,1031 4296,1030 4296,1025 4297,1024 4297,1017 4296,1016 4296,997 4295,996 4295,982 4296,981 4296,949 4295,948 4295,935 4296,934 4296,930 4297,929 4297,924 4296,923 4296,917 4295,916 4295,894 4294,893 4294,888 4295,887 4295,872 4296,871 4296,856 4295,855 4295,848 4294,847 4294,840 4295,839 4295,833 4296,832 4296,829 4295,828 4295,804 4294,803 4294,794 4295,793 4295,788 4296,787 4296,776 4295,775 4295,742 4296,741 4296,728 4295,727 4295,704 4296,703 4296,684 4295,683 4295,677 4294,676 4294,655 4293,654 4293,650 4294,649 4294,623 4295,622 4295,617 4296,616 4296,607 4295,606 4295,588 4294,587 4294,583 4293,582 4293,566 4294,565 4294,546 4293,545 4293,541 4292,540 4292,536 4291,535 4291,527 4292,526 4292,516 4291,515 4291,491 4290,490 4290,481 4291,480 4291,466 4290,465 4290,456 4291,455 4291,442 4290,441 4290,399 4289,398 4289,394 4288,393 4288,391 4287,390 4287,388 4285,386 4285,385 4284,385 4282,383 4280,383 4279,382 4277,382 4276,381 4274,381 4273,380 4272,380 4271,379 4270,379 4268,377" fill="rgba(243,63,248,0.3)" stroke="rgb(243,63,248)" stroke-width="2" data-block-id="0012" data-name="b-0022" /><text x="4150" y="687" text-anchor="middle" dominant-baseline="middle" class="block-label" fill="rgb(243,63,248)" stroke="white" stroke-width="3" paint-order="stroke">b-0022</text><polygon points="3777,386 3776,387 3756,387 3755,388 3750,388 3749,387 3734,387 3733,388 3724,388 3723,387 3706,387 3705,388 3700,388 3699,387 3679,387 3678,388 3667,388 3666,389 3660,389 3659,390 3654,390 3653,389 3594,389 3593,390 3590,390 3589,391 3580,391 3579,390 3567,390 3566,391 3557,391 3556,392 3550,392 3549,393 3548,393 3545,396 3545,397 3544,398 3544,400 3543,401 3543,406 3544,407 3544,430 3543,431 3543,454 3544,455 3544,464 3543,465 3543,491 3544,492 3544,501 3543,502 3543,549 3544,550 3544,563 3543,564 3543,571 3544,572 3544,586 3543,587 3543,597 3544,598 3544,613 3543,614 3543,618 3544,619 3544,662 3545,663 3545,680 3544,681 3544,696 3545,697 3545,706 3544,707 3544,713 3545,714 3545,805 3546,806 3546,822 3545,823 3545,857 3546,858 3546,868 3545,869 3545,887 3546,888 3546,921 3545,922 3545,933 3546,934 3546,952 3547,953 3547,971 3546,972 3546,980 3547,981 3547,1008 3548,1009 3548,1012 3547,1013 3547,1054 3548,1055 3548,1095 3550,1097 3551,1097 3552,1098 3558,1098 3559,1099 3577,1099 3578,1100 3588,1100 3589,1099 3608,1099 3609,1098 3614,1098 3615,1099 3622,1099 3623,1098 3653,1098 3654,1097 3664,1097 3665,1098 3676,1098 3677,1099 3684,1099 3685,1098 3692,1098 3693,1097 3732,1097 3733,1098 3790,1098 3791,1097 3831,1097 3832,1098 3854,1098 3855,1099 3868,1099 3869,1098 3873,1098 3874,1097 3875,1097 3876,1096 3876,1095 3878,1093 3878,1090 3879,1089 3879,1083 3880,1082 3880,958 3879,957 3879,949 3880,948 3880,888 3879,887 3879,882 3878,881 3878,871 3879,870 3879,864 3878,863 3878,835 3877,834 3877,715 3878,714 3878,696 3877,695 3877,621 3878,620 3878,561 3877,560 3877,552 3878,551 3878,535 3877,534 3877,494 3876,493 3876,487 3875,486 3875,480 3876,479 3876,460 3875,459 3876,458 3876,447 3875,446 3875,418 3874,417 3874,397 3873,396 3873,394 3872,393 3872,392 3871,391 3871,390 3870,390 3869,389 3866,389 3865,388 3863,388 3862,387 3844,387 3843,386 3833,386 3832,387 3797,387 3796,386" fill="rgba(130,228,50,0.3)" stroke="rgb(130,228,50)" stroke-width="2" data-block-id="0013" data-name="b-0023" /><text x="3694" y="699" text-anchor="middle" dominant-baseline="middle" class="block-label" fill="rgb(130,228,50)" stroke="white" stroke-width="3" paint-order="stroke">b-0023</text><polygon points="3327,1230 3326,1231 3320,1231 3319,1232 3313,1232 3312,1233 3297,1233 3296,1232 3289,1232 3288,1231 3284,1231 3283,1232 3279,1232 3278,1233 3268,1233 3267,1232 3259,1232 3258,1233 3253,1233 3252,1234 3241,1234 3240,1233 3239,1234 3233,1234 3232,1235 3228,1235 3227,1236 3208,1236 3207,1235 3202,1235 3201,1234 3192,1234 3191,1235 3176,1235 3175,1234 3169,1234 3168,1233 3164,1233 3163,1234 3140,1234 3139,1235 3129,1235 3128,1236 3092,1236 3091,1237 3088,1237 3087,1238 3084,1238 3083,1239 3081,1239 3080,1240 3079,1240 3078,1241 3077,1241 3074,1244 3073,1244 3072,1245 3072,1246 3071,1247 3071,1254 3072,1255 3072,1258 3073,1259 3073,1267 3072,1268 3072,1272 3071,1273 3071,1274 3072,1275 3072,1278 3073,1279 3073,1281 3074,1282 3074,1293 3073,1294 3073,1300 3074,1301 3074,1306 3075,1307 3075,1315 3076,1316 3076,1328 3077,1329 3077,1343 3078,1344 3078,1366 3077,1367 3077,1374 3078,1375 3078,1391 3079,1392 3079,1411 3078,1412 3078,1420 3079,1421 3079,1430 3080,1431 3080,1435 3081,1436 3081,1440 3082,1441 3082,1448 3083,1449 3083,1480 3082,1481 3082,1493 3083,1494 3083,1506 3082,1507 3082,1511 3081,1512 3081,1542 3080,1543 3080,1559 3079,1560 3079,1568 3078,1569 3078,1608 3079,1609 3079,1612 3080,1613 3080,1614 3081,1615 3081,1616 3082,1617 3082,1619 3083,1620 3083,1621 3085,1623 3085,1624 3088,1627 3088,1628 3090,1630 3090,1631 3092,1633 3092,1634 3098,1640 3098,1641 3106,1649 3107,1649 3110,1652 3111,1652 3113,1654 3114,1654 3118,1658 3119,1658 3123,1662 3124,1662 3141,1679 3141,1680 3145,1684 3145,1685 3150,1690 3150,1691 3154,1695 3155,1695 3157,1697 3158,1697 3160,1699 3161,1699 3164,1702 3165,1702 3170,1707 3170,1708 3175,1713 3176,1713 3183,1720 3184,1720 3188,1724 3189,1724 3197,1732 3197,1733 3209,1745 3210,1745 3214,1749 3215,1749 3217,1751 3217,1752 3224,1759 3225,1759 3232,1766 3232,1767 3233,1768 3234,1768 3237,1771 3238,1771 3248,1781 3248,1782 3249,1782 3262,1795 3263,1795 3266,1798 3266,1799 3269,1802 3269,1803 3271,1805 3272,1805 3279,1812 3279,1813 3282,1816 3283,1816 3286,1819 3287,1819 3289,1821 3290,1821 3300,1831 3301,1831 3307,1837 3307,1838 3308,1838 3311,1841 3312,1841 3314,1843 3315,1843 3319,1847 3319,1848 3324,1853 3324,1854 3327,1857 3327,1858 3328,1859 3328,1860 3331,1863 3331,1864 3332,1864 3335,1867 3336,1867 3339,1870 3340,1870 3357,1887 3358,1887 3361,1890 3362,1890 3366,1894 3367,1894 3372,1899 3372,1900 3374,1902 3374,1903 3375,1904 3375,1905 3376,1906 3376,1907 3378,1909 3378,1910 3380,1912 3381,1912 3383,1914 3384,1914 3386,1916 3387,1916 3390,1919 3391,1919 3395,1923 3396,1923 3398,1925 3399,1925 3402,1928 3403,1928 3406,1931 3408,1931 3409,1932 3413,1932 3414,1933 3418,1933 3419,1932 3420,1932 3421,1931 3422,1931 3424,1929 3425,1929 3426,1928 3427,1928 3428,1927 3429,1927 3430,1926 3431,1926 3432,1925 3433,1925 3434,1924 3435,1924 3436,1923 3437,1923 3438,1922 3439,1922 3440,1921 3441,1921 3442,1920 3443,1920 3445,1918 3446,1918 3447,1917 3448,1917 3449,1916 3450,1916 3451,1915 3452,1915 3453,1914 3455,1914 3456,1913 3457,1913 3458,1912 3459,1912 3461,1910 3462,1910 3465,1907 3465,1906 3466,1905 3466,1904 3467,1903 3467,1902 3468,1901 3468,1897 3469,1896 3469,1881 3468,1880 3468,1872 3469,1871 3469,1863 3470,1862 3470,1850 3469,1849 3469,1798 3468,1797 3468,1740 3467,1739 3467,1716 3468,1715 3468,1703 3467,1702 3467,1672 3466,1671 3466,1650 3465,1649 3465,1640 3466,1639 3466,1626 3467,1625 3467,1607 3466,1606 3466,1564 3467,1563 3466,1562 3466,1556 3465,1555 3465,1501 3464,1500 3465,1499 3465,1488 3464,1487 3464,1481 3463,1480 3463,1470 3464,1469 3464,1464 3463,1463 3463,1445 3464,1444 3464,1439 3463,1438 3463,1389 3462,1388 3462,1339 3461,1338 3461,1326 3460,1325 3460,1320 3461,1319 3461,1292 3460,1291 3460,1245 3459,1244 3459,1240 3458,1239 3458,1238 3454,1234 3453,1234 3452,1233 3435,1233 3434,1232 3428,1232 3427,1233 3424,1233 3423,1234 3410,1234 3409,1233 3397,1233 3396,1232 3385,1232 3384,1231 3379,1231 3378,1232 3362,1232 3361,1231 3355,1231 3354,1232 3348,1232 3347,1233 3345,1233 3344,1232 3340,1232 3339,1231 3336,1231 3335,1230" fill="rgba(134,20,72,0.3)" stroke="rgb(134,20,72)" stroke-width="2" data-block-id="0014" data-name="b-0024" /><text x="3282" y="1587" text-anchor="middle" dominant-baseline="middle" class="block-label" fill="rgb(134,20,72)" stroke="white" stroke-width="3" paint-order="stroke">b-0024</text><polygon points="3812,1227 3811,1228 3806,1228 3805,1229 3786,1229 3785,1230 3773,1230 3772,1231 3739,1231 3738,1230 3723,1230 3722,1231 3710,1231 3709,1230 3677,1230 3676,1231 3665,1231 3664,1230 3634,1230 3633,1231 3624,1231 3623,1232 3618,1232 3617,1231 3589,1231 3588,1230 3582,1230 3581,1231 3574,1231 3573,1232 3568,1232 3567,1233 3557,1233 3556,1234 3553,1234 3552,1235 3551,1235 3551,1236 3550,1237 3550,1238 3549,1239 3549,1259 3548,1260 3548,1265 3549,1266 3549,1296 3548,1297 3548,1299 3549,1300 3549,1312 3550,1313 3550,1358 3551,1359 3551,1439 3552,1440 3552,1472 3551,1473 3551,1495 3552,1496 3552,1535 3553,1536 3553,1558 3552,1559 3552,1564 3551,1565 3551,1574 3552,1575 3552,1576 3553,1577 3553,1578 3554,1579 3554,1583 3555,1584 3555,1588 3554,1589 3554,1605 3553,1606 3553,1615 3554,1616 3554,1623 3553,1624 3553,1686 3554,1687 3554,1718 3555,1719 3555,1779 3556,1780 3556,1819 3557,1820 3557,1834 3558,1835 3558,1842 3559,1843 3559,1845 3560,1846 3560,1847 3561,1847 3562,1848 3565,1848 3566,1847 3571,1847 3572,1846 3575,1846 3576,1845 3578,1845 3579,1844 3582,1844 3583,1843 3585,1843 3586,1842 3587,1842 3588,1841 3589,1841 3590,1840 3591,1840 3592,1839 3594,1839 3595,1838 3597,1838 3598,1837 3599,1837 3600,1836 3601,1836 3602,1835 3603,1835 3604,1834 3606,1834 3607,1833 3608,1833 3609,1832 3610,1832 3612,1830 3613,1830 3615,1828 3616,1828 3617,1827 3618,1827 3620,1825 3621,1825 3622,1824 3623,1824 3624,1823 3626,1823 3627,1822 3628,1822 3629,1821 3631,1821 3632,1820 3634,1820 3635,1819 3636,1819 3637,1818 3638,1818 3639,1817 3640,1817 3641,1816 3642,1816 3643,1815 3644,1815 3645,1814 3647,1814 3648,1813 3649,1813 3650,1812 3651,1812 3652,1811 3653,1811 3654,1810 3655,1810 3656,1809 3657,1809 3659,1807 3660,1807 3662,1805 3663,1805 3665,1803 3666,1803 3669,1800 3670,1800 3672,1798 3673,1798 3674,1797 3675,1797 3676,1796 3677,1796 3678,1795 3679,1795 3680,1794 3681,1794 3682,1793 3683,1793 3684,1792 3685,1792 3686,1791 3687,1791 3688,1790 3690,1790 3691,1789 3692,1789 3693,1788 3695,1788 3696,1787 3697,1787 3698,1786 3699,1786 3700,1785 3701,1785 3702,1784 3703,1784 3704,1783 3705,1783 3706,1782 3707,1782 3709,1780 3710,1780 3711,1779 3712,1779 3713,1778 3714,1778 3715,1777 3716,1777 3717,1776 3718,1776 3719,1775 3720,1775 3721,1774 3723,1774 3724,1773 3726,1773 3727,1772 3729,1772 3730,1771 3731,1771 3732,1770 3733,1770 3734,1769 3735,1769 3736,1768 3737,1768 3738,1767 3740,1767 3741,1766 3742,1766 3744,1764 3745,1764 3747,1762 3748,1762 3749,1761 3750,1761 3752,1759 3753,1759 3754,1758 3755,1758 3757,1756 3758,1756 3759,1755 3760,1755 3762,1753 3763,1753 3765,1751 3766,1751 3770,1747 3771,1747 3772,1746 3773,1746 3774,1745 3775,1745 3776,1744 3777,1744 3778,1743 3779,1743 3780,1742 3781,1742 3782,1741 3783,1741 3784,1740 3785,1740 3786,1739 3787,1739 3787,1738 3791,1734 3792,1734 3795,1731 3796,1731 3797,1730 3798,1730 3799,1729 3800,1729 3801,1728 3802,1728 3803,1727 3804,1727 3805,1726 3806,1726 3807,1725 3808,1725 3809,1724 3811,1724 3812,1723 3813,1723 3814,1722 3815,1722 3816,1721 3817,1721 3818,1720 3819,1720 3820,1719 3822,1719 3823,1718 3824,1718 3825,1717 3826,1717 3827,1716 3828,1716 3830,1714 3832,1714 3833,1713 3835,1713 3836,1712 3838,1712 3840,1710 3841,1710 3842,1709 3843,1709 3844,1708 3845,1708 3846,1707 3847,1707 3848,1706 3849,1706 3850,1705 3851,1705 3852,1704 3853,1704 3854,1703 3855,1703 3856,1702 3857,1702 3858,1701 3859,1701 3860,1700 3862,1700 3863,1699 3864,1699 3865,1698 3866,1698 3867,1697 3868,1697 3869,1696 3871,1696 3872,1695 3873,1695 3874,1694 3875,1694 3877,1692 3878,1692 3882,1688 3882,1687 3883,1686 3883,1685 3884,1684 3884,1682 3885,1681 3885,1675 3886,1674 3886,1530 3887,1529 3887,1460 3886,1459 3886,1433 3887,1432 3887,1429 3886,1428 3886,1397 3885,1396 3885,1395 3886,1394 3886,1376 3885,1375 3885,1243 3884,1242 3884,1235 3883,1234 3883,1232 3882,1231 3882,1230 3881,1230 3880,1229 3878,1229 3877,1228 3844,1228 3843,1229 3828,1229 3827,1228 3817,1228 3816,1227" fill="rgba(166,17,131,0.3)" stroke="rgb(166,17,131)" stroke-width="2" data-block-id="0015" data-name="b-0025" /><text x="3708" y="1649" text-anchor="middle" dominant-baseline="middle" class="block-label" fill="rgb(166,17,131)" stroke="white" stroke-width="3" paint-order="stroke">b-0025</text><polygon points="4119,1666 4118,1667 4116,1667 4115,1668 4113,1668 4112,1669 4111,1669 4109,1671 4108,1671 4107,1672 4106,1672 4104,1674 4103,1674 4102,1675 4101,1675 4100,1676 4099,1676 4097,1678 4096,1678 4093,1681 4092,1681 4090,1683 4089,1683 4088,1684 4087,1684 4086,1685 4085,1685 4084,1686 4083,1686 4082,1687 4081,1687 4080,1688 4079,1688 4078,1689 4076,1689 4075,1690 4073,1690 4072,1691 4070,1691 4069,1692 4068,1692 4067,1693 4066,1693 4065,1694 4064,1694 4063,1695 4062,1695 4061,1696 4060,1696 4059,1697 4058,1697 4056,1699 4055,1699 4054,1700 4053,1700 4051,1702 4050,1702 4046,1706 4045,1706 4043,1708 4042,1708 4041,1709 4040,1709 4039,1710 4038,1710 4036,1712 4035,1712 4033,1714 4032,1714 4031,1715 4030,1715 4028,1717 4027,1717 4026,1718 4025,1718 4024,1719 4022,1719 4021,1720 4019,1720 4018,1721 4015,1721 4014,1722 4013,1722 4012,1723 4010,1723 4009,1724 4007,1724 4006,1725 4005,1725 4004,1726 4003,1726 4002,1727 4001,1727 3996,1732 3995,1732 3992,1735 3991,1735 3990,1736 3989,1736 3988,1737 3987,1737 3986,1738 3985,1738 3984,1739 3982,1739 3981,1740 3980,1740 3979,1741 3978,1741 3977,1742 3976,1742 3975,1743 3974,1743 3973,1744 3972,1744 3971,1745 3969,1745 3968,1746 3967,1746 3966,1747 3965,1747 3963,1749 3962,1749 3961,1750 3960,1750 3959,1751 3958,1751 3955,1754 3954,1754 3951,1757 3950,1757 3949,1758 3948,1758 3947,1759 3946,1759 3945,1760 3944,1760 3943,1761 3941,1761 3940,1762 3939,1762 3938,1763 3937,1763 3935,1765 3934,1765 3933,1766 3931,1766 3930,1767 3929,1767 3928,1768 3926,1768 3925,1769 3923,1769 3922,1770 3921,1770 3920,1771 3919,1771 3915,1775 3914,1775 3912,1777 3911,1777 3910,1778 3909,1778 3908,1779 3907,1779 3906,1780 3905,1780 3904,1781 3902,1781 3901,1782 3900,1782 3899,1783 3898,1783 3897,1784 3896,1784 3895,1785 3893,1785 3892,1786 3891,1786 3890,1787 3889,1787 3888,1788 3887,1788 3886,1789 3885,1789 3884,1790 3883,1790 3882,1791 3881,1791 3880,1792 3879,1792 3878,1793 3876,1793 3875,1794 3874,1794 3873,1795 3872,1795 3870,1797 3869,1797 3864,1802 3863,1802 3862,1803 3861,1803 3860,1804 3858,1804 3857,1805 3856,1805 3855,1806 3853,1806 3852,1807 3851,1807 3850,1808 3849,1808 3847,1810 3846,1810 3843,1813 3842,1813 3841,1814 3840,1814 3839,1815 3838,1815 3837,1816 3836,1816 3835,1817 3833,1817 3832,1818 3830,1818 3829,1819 3828,1819 3827,1820 3826,1820 3825,1821 3824,1821 3822,1823 3821,1823 3817,1827 3816,1827 3814,1829 3812,1829 3811,1830 3809,1830 3808,1831 3807,1831 3806,1832 3804,1832 3803,1833 3802,1833 3801,1834 3800,1834 3799,1835 3798,1835 3796,1837 3795,1837 3793,1839 3792,1839 3791,1840 3790,1840 3788,1842 3787,1842 3786,1843 3785,1843 3784,1844 3783,1844 3781,1846 3780,1846 3778,1848 3777,1848 3776,1849 3775,1849 3774,1850 3773,1850 3772,1851 3771,1851 3770,1852 3769,1852 3768,1853 3766,1853 3765,1854 3764,1854 3763,1855 3762,1855 3761,1856 3760,1856 3759,1857 3758,1857 3757,1858 3756,1858 3755,1859 3754,1859 3753,1860 3752,1860 3751,1861 3750,1861 3748,1863 3747,1863 3746,1864 3745,1864 3742,1867 3741,1867 3739,1869 3738,1869 3737,1870 3735,1870 3734,1871 3732,1871 3731,1872 3729,1872 3728,1873 3727,1873 3725,1875 3724,1875 3722,1877 3721,1877 3720,1878 3719,1878 3718,1879 3717,1879 3716,1880 3715,1880 3714,1881 3713,1881 3712,1882 3710,1882 3709,1883 3707,1883 3706,1884 3705,1884 3704,1885 3702,1885 3701,1886 3700,1886 3699,1887 3698,1887 3697,1888 3696,1888 3695,1889 3693,1889 3692,1890 3691,1890 3690,1891 3688,1891 3687,1892 3686,1892 3685,1893 3684,1893 3683,1894 3682,1894 3681,1895 3680,1895 3679,1896 3678,1896 3676,1898 3675,1898 3674,1899 3673,1899 3671,1901 3670,1901 3668,1903 3667,1903 3665,1905 3664,1905 3663,1906 3661,1906 3660,1907 3659,1907 3658,1908 3657,1908 3656,1909 3655,1909 3654,1910 3653,1910 3651,1912 3650,1912 3649,1913 3648,1913 3647,1914 3646,1914 3645,1915 3644,1915 3643,1916 3642,1916 3640,1918 3639,1918 3636,1921 3635,1921 3634,1922 3633,1922 3632,1923 3631,1923 3630,1924 3628,1924 3627,1925 3626,1925 3625,1926 3624,1926 3623,1927 3621,1927 3620,1928 3619,1928 3618,1929 3617,1929 3615,1931 3614,1931 3612,1933 3611,1933 3610,1934 3609,1934 3608,1935 3606,1935 3605,1936 3604,1936 3603,1937 3601,1937 3600,1938 3599,1938 3598,1939 3597,1939 3595,1941 3594,1941 3591,1944 3590,1944 3587,1947 3586,1947 3584,1949 3583,1949 3582,1950 3581,1950 3579,1952 3577,1952 3576,1953 3575,1953 3574,1954 3573,1954 3572,1955 3571,1955 3570,1956 3569,1956 3567,1958 3566,1958 3564,1960 3563,1960 3559,1964 3559,1965 3558,1966 3558,1988 3557,1989 3557,1996 3558,1997 3558,2033 3557,2034 3557,2041 3556,2042 3556,2064 3557,2065 3557,2077 3558,2078 3558,2091 3559,2092 3559,2096 3560,2097 3560,2100 3561,2101 3561,2103 3562,2104 3562,2105 3563,2106 3563,2108 3564,2109 3564,2110 3566,2112 3566,2113 3582,2129 3583,2129 3591,2137 3591,2138 3609,2156 3610,2156 3615,2161 3615,2162 3619,2166 3619,2167 3625,2173 3626,2173 3630,2177 3631,2177 3633,2179 3634,2179 3642,2187 3642,2188 3645,2191 3645,2192 3647,2194 3648,2194 3650,2196 3651,2196 3652,2197 3653,2197 3654,2198 3657,2198 3658,2199 3659,2199 3660,2198 3664,2198 3665,2197 3669,2197 3670,2196 3672,2196 3673,2195 3674,2195 3675,2194 3676,2194 3678,2192 3679,2192 3680,2191 3680,2190 3689,2181 3691,2181 3692,2180 3694,2180 3695,2179 3698,2179 3699,2178 3701,2178 3702,2177 3705,2177 3706,2176 3707,2176 3708,2175 3710,2175 3711,2174 3712,2174 3714,2172 3715,2172 3721,2166 3722,2166 3725,2163 3726,2163 3727,2162 3728,2162 3735,2155 3736,2155 3737,2154 3739,2154 3740,2153 3742,2153 3743,2152 3745,2152 3746,2151 3747,2151 3748,2150 3749,2150 3750,2149 3751,2149 3752,2148 3753,2148 3755,2146 3756,2146 3757,2145 3758,2145 3760,2143 3761,2143 3763,2141 3764,2141 3766,2139 3767,2139 3768,2138 3769,2138 3770,2137 3771,2137 3773,2135 3774,2135 3775,2134 3776,2134 3777,2133 3778,2133 3779,2132 3781,2132 3782,2131 3783,2131 3784,2130 3786,2130 3787,2129 3790,2129 3791,2128 3793,2128 3794,2127 3795,2127 3796,2126 3798,2126 3799,2125 3800,2125 3802,2123 3803,2123 3808,2118 3809,2118 3815,2112 3816,2112 3817,2111 3818,2111 3820,2109 3822,2109 3823,2108 3825,2108 3826,2107 3828,2107 3829,2106 3830,2106 3831,2105 3832,2105 3833,2104 3835,2104 3836,2103 3837,2103 3838,2102 3839,2102 3840,2101 3841,2101 3843,2099 3844,2099 3846,2097 3847,2097 3850,2094 3851,2094 3853,2092 3854,2092 3856,2090 3857,2090 3858,2089 3859,2089 3860,2088 3861,2088 3862,2087 3863,2087 3864,2086 3866,2086 3867,2085 3868,2085 3869,2084 3871,2084 3872,2083 3874,2083 3875,2082 3877,2082 3878,2081 3880,2081 3881,2080 3882,2080 3883,2079 3884,2079 3885,2078 3886,2078 3890,2074 3891,2074 3893,2072 3894,2072 3896,2070 3897,2070 3899,2068 3900,2068 3902,2066 3903,2066 3905,2064 3906,2064 3907,2063 3908,2063 3909,2062 3910,2062 3912,2060 3913,2060 3914,2059 3915,2059 3916,2058 3917,2058 3919,2056 3920,2056 3921,2055 3923,2055 3924,2054 3925,2054 3926,2053 3927,2053 3928,2052 3929,2052 3930,2051 3931,2051 3932,2050 3933,2050 3934,2049 3935,2049 3936,2048 3937,2048 3938,2047 3939,2047 3940,2046 3941,2046 3942,2045 3943,2045 3944,2044 3946,2044 3947,2043 3948,2043 3950,2041 3951,2041 3953,2039 3954,2039 3956,2037 3957,2037 3958,2036 3959,2036 3960,2035 3961,2035 3963,2033 3964,2033 3965,2032 3966,2032 3967,2031 3968,2031 3970,2029 3971,2029 3982,2018 3984,2018 3985,2017 3987,2017 3988,2016 3989,2016 3990,2015 3991,2015 3994,2012 3994,2011 3999,2006 4000,2006 4002,2004 4003,2004 4004,2003 4005,2003 4006,2002 4007,2002 4008,2001 4009,2001 4010,2000 4011,2000 4012,1999 4014,1999 4015,1998 4018,1998 4019,1997 4023,1997 4024,1996 4029,1996 4030,1995 4032,1995 4033,1994 4035,1994 4036,1993 4038,1993 4039,1992 4041,1992 4042,1991 4044,1991 4045,1990 4047,1990 4048,1989 4050,1989 4051,1988 4052,1988 4053,1987 4054,1987 4055,1986 4056,1986 4057,1985 4058,1985 4060,1983 4061,1983 4064,1980 4065,1980 4067,1978 4068,1978 4069,1977 4070,1977 4071,1976 4072,1976 4073,1975 4074,1975 4075,1974 4076,1974 4077,1973 4078,1973 4079,1972 4080,1972 4081,1971 4082,1971 4083,1970 4084,1970 4085,1969 4086,1969 4087,1968 4089,1968 4090,1967 4091,1967 4092,1966 4093,1966 4094,1965 4095,1965 4097,1963 4098,1963 4100,1961 4101,1961 4102,1960 4103,1960 4104,1959 4105,1959 4107,1957 4108,1957 4110,1955 4111,1955 4112,1954 4113,1954 4114,1953 4115,1953 4116,1952 4117,1952 4118,1951 4119,1951 4120,1950 4121,1950 4122,1949 4123,1949 4124,1948 4125,1948 4126,1947 4127,1947 4128,1946 4129,1946 4130,1945 4131,1945 4133,1943 4134,1943 4135,1942 4136,1942 4137,1941 4138,1941 4139,1940 4140,1940 4141,1939 4142,1939 4143,1938 4144,1938 4145,1937 4146,1937 4147,1936 4148,1936 4150,1934 4151,1934 4153,1932 4154,1932 4156,1930 4157,1930 4158,1929 4159,1929 4160,1928 4161,1928 4162,1927 4163,1927 4164,1926 4166,1926 4167,1925 4168,1925 4169,1924 4170,1924 4171,1923 4172,1923 4173,1922 4174,1922 4176,1920 4177,1920 4179,1918 4180,1918 4181,1917 4182,1917 4183,1916 4184,1916 4185,1915 4187,1915 4188,1914 4189,1914 4190,1913 4191,1913 4192,1912 4193,1912 4194,1911 4195,1911 4196,1910 4197,1910 4198,1909 4199,1909 4201,1907 4202,1907 4204,1905 4205,1905 4206,1904 4207,1904 4208,1903 4209,1903 4211,1901 4212,1901 4214,1899 4215,1899 4216,1898 4217,1898 4219,1896 4220,1896 4221,1895 4223,1895 4224,1894 4226,1894 4227,1893 4229,1893 4230,1892 4231,1892 4232,1891 4233,1891 4234,1890 4235,1890 4237,1888 4238,1888 4244,1882 4244,1880 4245,1879 4245,1877 4246,1876 4246,1872 4245,1871 4245,1870 4243,1868 4243,1867 4241,1865 4241,1864 4239,1862 4239,1861 4238,1860 4238,1859 4237,1858 4237,1857 4236,1856 4236,1854 4235,1853 4235,1852 4234,1851 4234,1850 4233,1849 4233,1848 4231,1846 4231,1845 4229,1843 4229,1842 4228,1841 4228,1840 4227,1839 4227,1838 4226,1837 4226,1836 4225,1835 4225,1834 4224,1833 4224,1832 4223,1831 4223,1830 4222,1829 4222,1828 4221,1827 4221,1826 4220,1825 4220,1824 4219,1823 4219,1822 4218,1821 4218,1819 4217,1818 4217,1817 4216,1816 4216,1814 4215,1813 4215,1811 4214,1810 4214,1809 4213,1808 4213,1807 4212,1806 4212,1805 4210,1803 4210,1802 4207,1799 4207,1798 4205,1796 4205,1795 4204,1794 4204,1793 4203,1792 4203,1791 4202,1790 4202,1788 4201,1787 4201,1786 4200,1785 4200,1784 4198,1782 4198,1781 4197,1780 4197,1779 4195,1777 4195,1776 4194,1775 4194,1774 4193,1773 4193,1772 4192,1771 4192,1770 4190,1768 4190,1767 4188,1765 4188,1764 4187,1763 4187,1762 4186,1761 4186,1760 4183,1757 4183,1756 4182,1755 4182,1754 4180,1752 4180,1751 4179,1750 4179,1749 4177,1747 4177,1746 4175,1744 4175,1743 4174,1742 4174,1741 4172,1739 4172,1738 4170,1736 4170,1735 4168,1733 4168,1732 4167,1731 4167,1730 4166,1729 4166,1727 4165,1726 4165,1725 4164,1724 4164,1723 4163,1722 4163,1721 4162,1720 4162,1719 4161,1718 4161,1717 4160,1716 4160,1715 4159,1714 4159,1713 4157,1711 4157,1710 4156,1709 4156,1708 4155,1707 4155,1706 4154,1705 4154,1704 4153,1703 4153,1702 4152,1701 4152,1700 4151,1699 4151,1698 4150,1697 4150,1696 4148,1694 4148,1693 4147,1692 4147,1691 4145,1689 4145,1688 4144,1687 4144,1686 4143,1685 4143,1684 4141,1682 4141,1681 4140,1680 4140,1679 4138,1677 4138,1676 4129,1667 4128,1667 4127,1666" fill="rgba(88,59,13,0.3)" stroke="rgb(88,59,13)" stroke-width="2" data-block-id="0016" data-name="b-0026" /><text x="3931" y="1908" text-anchor="middle" dominant-baseline="middle" class="block-label" fill="rgb(88,59,13)" stroke="white" stroke-width="3" paint-order="stroke">b-0026</text><polygon points="3997,1227 3996,1228 3984,1228 3983,1229 3977,1229 3976,1230 3975,1230 3974,1231 3973,1231 3969,1235 3969,1237 3968,1238 3968,1340 3969,1341 3969,1365 3970,1366 3970,1387 3969,1388 3969,1425 3970,1426 3970,1449 3971,1450 3971,1483 3972,1484 3972,1536 3973,1537 3973,1618 3972,1619 3972,1623 3973,1624 3973,1630 3974,1631 3974,1633 3977,1636 3978,1636 3979,1637 3981,1637 3982,1636 3984,1636 3985,1635 3986,1635 3987,1634 3989,1634 3990,1633 3991,1633 3992,1632 3993,1632 3994,1631 3995,1631 3996,1630 3997,1630 3998,1629 3999,1629 4000,1628 4001,1628 4002,1627 4004,1627 4005,1626 4006,1626 4008,1624 4009,1624 4010,1623 4011,1623 4012,1622 4013,1622 4014,1621 4015,1621 4016,1620 4017,1620 4018,1619 4020,1619 4021,1618 4022,1618 4024,1616 4025,1616 4026,1615 4027,1615 4028,1614 4029,1614 4030,1613 4031,1613 4032,1612 4033,1612 4034,1611 4035,1611 4036,1610 4037,1610 4038,1609 4040,1609 4041,1608 4042,1608 4044,1606 4045,1606 4046,1605 4047,1605 4048,1604 4049,1604 4050,1603 4051,1603 4053,1601 4054,1601 4055,1600 4056,1600 4058,1598 4059,1598 4061,1596 4062,1596 4063,1595 4064,1595 4065,1594 4066,1594 4067,1593 4069,1593 4070,1592 4071,1592 4072,1591 4074,1591 4075,1590 4076,1590 4078,1588 4079,1588 4081,1586 4082,1586 4084,1584 4085,1584 4086,1583 4087,1583 4088,1582 4089,1582 4090,1581 4091,1581 4092,1580 4093,1580 4094,1579 4095,1579 4096,1578 4097,1578 4099,1576 4101,1576 4102,1575 4103,1575 4104,1574 4105,1574 4106,1573 4107,1573 4108,1572 4110,1572 4111,1571 4112,1571 4113,1570 4114,1570 4115,1569 4116,1569 4117,1568 4118,1568 4119,1567 4120,1567 4122,1565 4123,1565 4124,1564 4125,1564 4126,1563 4127,1563 4129,1561 4130,1561 4131,1560 4132,1560 4133,1559 4134,1559 4135,1558 4137,1558 4138,1557 4139,1557 4140,1556 4141,1556 4142,1555 4143,1555 4145,1553 4146,1553 4147,1552 4148,1552 4149,1551 4150,1551 4152,1549 4153,1549 4155,1547 4156,1547 4157,1546 4159,1546 4160,1545 4162,1545 4163,1544 4164,1544 4165,1543 4166,1543 4167,1542 4168,1542 4169,1541 4170,1541 4171,1540 4172,1540 4174,1538 4175,1538 4177,1536 4178,1536 4180,1534 4181,1534 4182,1533 4183,1533 4185,1531 4186,1531 4187,1530 4188,1530 4189,1529 4190,1529 4191,1528 4192,1528 4193,1527 4195,1527 4196,1526 4197,1526 4198,1525 4199,1525 4201,1523 4202,1523 4203,1522 4204,1522 4205,1521 4206,1521 4207,1520 4208,1520 4209,1519 4210,1519 4212,1517 4213,1517 4215,1515 4216,1515 4219,1512 4220,1512 4221,1511 4223,1511 4224,1510 4225,1510 4226,1509 4227,1509 4228,1508 4230,1508 4231,1507 4232,1507 4233,1506 4234,1506 4235,1505 4236,1505 4237,1504 4238,1504 4239,1503 4240,1503 4241,1502 4242,1502 4243,1501 4244,1501 4246,1499 4247,1499 4248,1498 4249,1498 4250,1497 4251,1497 4253,1495 4254,1495 4255,1494 4256,1494 4257,1493 4259,1493 4260,1492 4261,1492 4262,1491 4263,1491 4264,1490 4265,1490 4266,1489 4267,1489 4268,1488 4269,1488 4270,1487 4271,1487 4272,1486 4273,1486 4274,1485 4275,1485 4276,1484 4277,1484 4278,1483 4279,1483 4280,1482 4281,1482 4282,1481 4283,1481 4284,1480 4285,1480 4287,1478 4288,1478 4289,1477 4290,1477 4291,1476 4292,1476 4295,1473 4295,1472 4297,1470 4297,1468 4298,1467 4298,1387 4297,1386 4297,1346 4296,1345 4296,1246 4295,1245 4295,1239 4294,1238 4294,1235 4293,1234 4293,1232 4291,1230 4290,1230 4289,1229 4286,1229 4285,1228 4281,1228 4280,1227 4238,1227 4237,1228 4201,1228 4200,1227 4190,1227 4189,1228 4151,1228 4150,1227 4147,1227 4146,1228 4140,1228 4139,1229 4110,1229 4109,1228 4102,1228 4101,1227 4086,1227 4085,1228 4013,1228 4012,1227" fill="rgba(89,52,129,0.3)" stroke="rgb(89,52,129)" stroke-width="2" data-block-id="0017" data-name="b-0028" /><text x="4130" y="1506" text-anchor="middle" dominant-baseline="middle" class="block-label" fill="rgb(89,52,129)" stroke="white" stroke-width="3" paint-order="stroke">b-0028</text><polygon points="2642,2061 2641,2062 2627,2062 2626,2063 2625,2063 2623,2065 2623,2066 2622,2067 2622,2069 2621,2070 2621,2089 2622,2090 2622,2124 2621,2125 2621,2133 2622,2134 2622,2154 2621,2155 2621,2186 2620,2187 2620,2196 2621,2197 2621,2220 2622,2221 2622,2227 2621,2228 2621,2236 2620,2237 2620,2242 2621,2243 2621,2267 2622,2268 2622,2281 2621,2282 2621,2291 2622,2292 2622,2302 2623,2303 2623,2308 2624,2309 2624,2312 2623,2313 2623,2328 2624,2329 2624,2332 2625,2333 2625,2335 2626,2336 2627,2336 2628,2337 2630,2337 2631,2336 2635,2336 2636,2335 2639,2335 2640,2334 2641,2334 2642,2333 2643,2333 2644,2332 2645,2332 2646,2331 2648,2331 2649,2330 2650,2330 2651,2329 2652,2329 2653,2328 2655,2328 2656,2327 2657,2327 2658,2326 2659,2326 2660,2325 2661,2325 2662,2324 2664,2324 2665,2323 2666,2323 2667,2322 2669,2322 2670,2321 2671,2321 2672,2320 2673,2320 2674,2319 2675,2319 2676,2318 2677,2318 2678,2317 2679,2317 2681,2315 2683,2315 2684,2314 2685,2314 2686,2313 2687,2313 2688,2312 2689,2312 2690,2311 2691,2311 2692,2310 2693,2310 2694,2309 2695,2309 2696,2308 2697,2308 2698,2307 2700,2307 2701,2306 2702,2306 2703,2305 2704,2305 2705,2304 2706,2304 2707,2303 2708,2303 2709,2302 2710,2302 2712,2300 2713,2300 2714,2299 2715,2299 2716,2298 2717,2298 2718,2297 2719,2297 2720,2296 2721,2296 2722,2295 2723,2295 2724,2294 2725,2294 2726,2293 2728,2293 2729,2292 2730,2292 2732,2290 2733,2290 2734,2289 2735,2289 2736,2288 2737,2288 2738,2287 2739,2287 2740,2286 2741,2286 2742,2285 2743,2285 2744,2284 2745,2284 2746,2283 2747,2283 2749,2281 2750,2281 2752,2279 2753,2279 2754,2278 2756,2278 2757,2277 2758,2277 2759,2276 2760,2276 2762,2274 2763,2274 2764,2273 2765,2273 2766,2272 2767,2272 2768,2271 2769,2271 2770,2270 2772,2270 2773,2269 2775,2269 2776,2268 2777,2268 2778,2267 2779,2267 2780,2266 2781,2266 2782,2265 2783,2265 2784,2264 2785,2264 2787,2262 2788,2262 2789,2261 2790,2261 2791,2260 2792,2260 2793,2259 2794,2259 2795,2258 2796,2258 2797,2257 2798,2257 2799,2256 2800,2256 2801,2255 2802,2255 2803,2254 2804,2254 2805,2253 2806,2253 2807,2252 2808,2252 2810,2250 2811,2250 2812,2249 2813,2249 2814,2248 2815,2248 2816,2247 2818,2247 2819,2246 2821,2246 2822,2245 2823,2245 2824,2244 2825,2244 2826,2243 2827,2243 2828,2242 2829,2242 2831,2240 2832,2240 2833,2239 2834,2239 2835,2238 2836,2238 2837,2237 2838,2237 2839,2236 2840,2236 2841,2235 2842,2235 2843,2234 2844,2234 2845,2233 2846,2233 2847,2232 2848,2232 2849,2231 2850,2231 2851,2230 2852,2230 2853,2229 2854,2229 2855,2228 2856,2228 2858,2226 2859,2226 2861,2224 2862,2224 2863,2223 2864,2223 2865,2222 2867,2222 2868,2221 2870,2221 2871,2220 2872,2220 2873,2219 2875,2219 2876,2218 2877,2218 2878,2217 2879,2217 2881,2215 2882,2215 2885,2212 2886,2212 2890,2208 2891,2208 2892,2207 2893,2207 2894,2206 2895,2206 2896,2205 2897,2205 2898,2204 2900,2204 2901,2203 2902,2203 2903,2202 2904,2202 2905,2201 2906,2201 2907,2200 2908,2200 2909,2199 2910,2199 2911,2198 2912,2198 2913,2197 2914,2197 2915,2196 2916,2196 2917,2195 2918,2195 2920,2193 2921,2193 2925,2189 2926,2189 2927,2188 2928,2188 2929,2187 2930,2187 2931,2186 2933,2186 2934,2185 2935,2185 2936,2184 2937,2184 2938,2183 2939,2183 2940,2182 2942,2182 2943,2181 2944,2181 2945,2180 2946,2180 2947,2179 2948,2179 2949,2178 2951,2178 2952,2177 2953,2177 2954,2176 2955,2176 2956,2175 2957,2175 2958,2174 2959,2174 2960,2173 2963,2173 2964,2172 2966,2172 2967,2171 2969,2171 2970,2170 2971,2170 2972,2169 2973,2169 2975,2167 2976,2167 2977,2166 2978,2166 2980,2164 2981,2164 2984,2161 2985,2161 2988,2158 2988,2157 2989,2156 2989,2155 2990,2154 2990,2152 2989,2151 2989,2147 2988,2146 2988,2144 2986,2142 2986,2141 2985,2141 2980,2136 2979,2136 2975,2132 2974,2132 2969,2127 2969,2126 2964,2121 2964,2120 2961,2117 2960,2117 2956,2113 2955,2113 2950,2108 2949,2108 2944,2103 2944,2102 2939,2097 2939,2096 2934,2091 2933,2091 2929,2087 2928,2087 2925,2084 2924,2084 2918,2078 2918,2077 2911,2070 2910,2070 2908,2068 2907,2068 2906,2067 2905,2067 2904,2066 2902,2066 2901,2065 2897,2065 2896,2064 2884,2064 2883,2065 2870,2065 2869,2064 2798,2064 2797,2063 2774,2063 2773,2064 2733,2064 2732,2063 2725,2063 2724,2062 2721,2062 2720,2063 2715,2063 2714,2064 2707,2064 2706,2063 2701,2063 2700,2062 2654,2062 2653,2061" fill="rgba(34,205,80,0.3)" stroke="rgb(34,205,80)" stroke-width="2" data-block-id="0018" data-name="b-0032" /><text x="2798" y="2220" text-anchor="middle" dominant-baseline="middle" class="block-label" fill="rgb(34,205,80)" stroke="white" stroke-width="3" paint-order="stroke">b-0032</text><polygon points="1910,2854 1909,2855 1908,2855 1906,2857 1906,2858 1904,2860 1904,2862 1903,2863 1903,2866 1902,2867 1902,2870 1901,2871 1901,2879 1900,2880 1900,2888 1899,2889 1899,2898 1898,2899 1898,2911 1897,2912 1897,2916 1896,2917 1896,2921 1895,2922 1895,2932 1894,2933 1894,2944 1893,2945 1893,2951 1892,2952 1892,2959 1891,2960 1891,2969 1890,2970 1890,2984 1889,2985 1889,2994 1888,2995 1888,3001 1887,3002 1887,3004 1888,3005 1888,3007 1889,3008 1889,3010 1890,3011 1890,3012 1892,3014 1892,3015 1896,3019 1896,3020 1899,3023 1899,3024 1901,3026 1901,3027 1903,3029 1903,3030 1905,3032 1905,3033 1907,3035 1907,3036 1909,3038 1909,3039 1911,3041 1911,3042 1913,3044 1913,3045 1916,3048 1916,3049 1920,3053 1920,3054 1922,3056 1922,3057 1924,3059 1924,3060 1926,3062 1926,3063 1928,3065 1928,3066 1930,3068 1930,3069 1931,3070 1931,3071 1934,3074 1934,3075 1935,3076 1935,3077 1937,3079 1937,3080 1938,3081 1938,3082 1941,3085 1941,3086 1944,3089 1944,3090 1945,3091 1945,3092 1946,3093 1946,3094 1947,3095 1947,3096 1950,3099 1950,3100 1951,3100 1954,3103 1955,3103 1956,3104 1966,3104 1967,3103 1970,3103 1972,3101 1973,3101 1974,3100 1975,3100 1977,3098 1978,3098 1979,3097 1980,3097 1981,3096 1982,3096 1983,3095 1984,3095 1985,3094 1986,3094 1988,3092 1989,3092 1991,3090 1992,3090 1993,3089 1994,3089 1995,3088 1996,3088 1997,3087 1998,3087 2000,3085 2001,3085 2002,3084 2003,3084 2004,3083 2005,3083 2007,3081 2008,3081 2009,3080 2010,3080 2011,3079 2013,3079 2014,3078 2015,3078 2016,3077 2017,3077 2019,3075 2020,3075 2021,3074 2022,3074 2024,3072 2025,3072 2026,3071 2027,3071 2028,3070 2029,3070 2030,3069 2032,3069 2033,3068 2034,3068 2035,3067 2036,3067 2038,3065 2039,3065 2040,3064 2041,3064 2042,3063 2043,3063 2044,3062 2045,3062 2047,3060 2047,3059 2048,3058 2048,3057 2049,3056 2049,3055 2050,3054 2050,3051 2049,3050 2049,3048 2048,3047 2048,3046 2047,3045 2047,3044 2046,3043 2046,3042 2045,3041 2045,3040 2043,3038 2043,3037 2040,3034 2040,3033 2038,3031 2038,3030 2037,3029 2037,3028 2036,3027 2036,3026 2035,3025 2035,3024 2034,3023 2034,3022 2032,3020 2032,3019 2029,3016 2029,3015 2025,3011 2025,3010 2023,3008 2023,3007 2021,3005 2021,3004 2018,3001 2018,3000 2015,2997 2015,2996 2012,2993 2012,2992 2010,2990 2010,2989 2007,2986 2007,2985 2005,2983 2005,2982 2003,2980 2003,2979 2001,2977 2001,2976 1999,2974 1999,2973 1996,2970 1996,2969 1994,2967 1994,2966 1992,2964 1992,2963 1990,2961 1990,2960 1987,2957 1987,2956 1984,2953 1984,2952 1980,2948 1980,2947 1978,2945 1978,2944 1976,2942 1976,2941 1974,2939 1974,2938 1973,2937 1973,2936 1971,2934 1971,2933 1969,2931 1969,2930 1965,2926 1965,2925 1963,2923 1963,2922 1961,2920 1961,2919 1959,2917 1959,2916 1956,2913 1956,2912 1954,2910 1954,2909 1953,2908 1953,2907 1951,2905 1951,2904 1949,2902 1949,2901 1947,2899 1947,2898 1945,2896 1945,2895 1942,2892 1942,2891 1938,2887 1938,2886 1935,2883 1935,2882 1934,2881 1934,2880 1933,2879 1933,2878 1931,2876 1931,2875 1929,2873 1929,2872 1927,2870 1927,2869 1925,2867 1925,2866 1922,2863 1922,2862 1918,2858 1917,2858 1916,2857 1915,2857 1914,2856 1913,2856 1912,2855 1911,2855" fill="rgba(189,227,13,0.3)" stroke="rgb(189,227,13)" stroke-width="2" data-block-id="0019" data-name="b-0039" /><text x="1965" y="3000" text-anchor="middle" dominant-baseline="middle" class="block-label" fill="rgb(189,227,13)" stroke="white" stroke-width="3" paint-order="stroke">b-0039</text></g>
</svg>