<?xml version='1.0' encoding='utf-8'?>
<svg xmlns="http://www.w3.org/2000/svg" xmlns:atlas="http://example.com/atlas" width="4984" height="3248" viewBox="0 0 4984 3248">
  
  <metadata>
    <atlas:source>
      <atlas:jp2-path>/Users/pwright/workspace/atlas/media/v2/p40.jp2</atlas:jp2-path>
      <atlas:volume>unknown</atlas:volume>
      <atlas:plate-id>p40</atlas:plate-id>
      <atlas:image-width>4984</atlas:image-width>
      <atlas:image-height>3248</atlas:image-height>
    <atlas:angle>-90</atlas:angle><atlas:scale>1.3914619304117193</atlas:scale><atlas:pos-x>583.6111146669946</atlas:pos-x><atlas:pos-y>520.8322298223378</atlas:pos-y></atlas:source>
  </metadata>

  
  <image id="background" href="file:///Users/pwright/workspace/atlas/media/v2/p40.jp2" width="4984" height="3248" opacity="0.5" />

  <style>
    .block-label { font-family: sans-serif; font-size: 14px; font-weight: bold; }
  </style>

  
  <g id="blocks">
    <polygon points="975,1458 974,1459 958,1459 957,1460 954,1460 953,1461 952,1461 949,1464 949,1465 948,1466 948,1470 947,1471 947,1496 946,1497 946,1518 947,1519 947,1539 948,1540 948,1561 947,1562 947,1565 948,1566 948,1643 947,1644 947,1651 948,1652 948,1668 947,1669 947,1672 948,1673 948,1722 949,1723 949,1736 948,1737 948,1757 949,1758 949,1779 948,1780 948,1823 949,1824 948,1825 948,1834 947,1835 947,1853 946,1854 946,1861 947,1862 947,1865 948,1866 948,1869 949,1870 949,1878 948,1879 948,1943 947,1944 947,1961 948,1962 948,1974 947,1975 947,2038 946,2039 946,2058 947,2059 947,2069 946,2070 946,2091 945,2092 945,2102 946,2103 946,2137 945,2138 945,2155 946,2156 946,2161 945,2162 945,2192 944,2193 945,2194 945,2202 946,2203 946,2234 945,2235 945,2250 946,2251 946,2256 945,2257 945,2298 946,2299 946,2309 945,2310 945,2316 946,2317 946,2329 945,2330 945,2345 946,2346 946,2353 945,2354 945,2365 946,2366 946,2391 947,2392 947,2426 946,2427 946,2437 947,2438 947,2461 948,2462 948,2470 947,2471 947,2489 948,2490 948,2494 947,2495 947,2520 946,2521 946,2525 945,2526 945,2532 946,2533 946,2544 945,2545 945,2556 946,2557 946,2565 944,2567 944,2568 943,2569 943,2570 942,2571 942,2572 941,2573 941,2580 942,2581 942,2584 943,2585 943,2599 944,2600 944,2617 943,2618 943,2628 944,2629 944,2640 943,2641 943,2649 944,2650 944,2654 945,2655 945,2661 944,2662 944,2664 943,2665 943,2667 942,2668 942,2676 943,2677 943,2701 944,2702 944,2708 943,2709 943,2713 942,2714 942,2731 941,2732 941,2737 940,2738 940,2743 941,2744 941,2746 942,2747 942,2748 943,2749 943,2751 944,2752 944,2755 943,2756 943,2757 942,2758 942,2760 941,2761 941,2762 940,2763 940,2774 941,2775 941,2785 940,2786 940,2789 941,2790 941,2795 942,2796 942,2805 941,2806 941,2810 940,2811 940,2816 941,2817 941,2822 942,2823 942,2844 943,2845 943,2851 942,2852 942,2856 941,2857 941,2868 942,2869 942,2888 943,2889 943,2892 944,2893 944,2899 943,2900 943,2902 942,2903 942,2905 941,2906 941,2918 942,2919 942,2921 944,2923 944,2924 945,2924 949,2928 950,2928 956,2934 957,2934 959,2936 960,2935 961,2935 962,2934 965,2934 966,2933 981,2933 982,2932 985,2932 986,2931 989,2931 990,2930 995,2930 996,2931 998,2931 999,2932 1001,2932 1002,2933 1018,2933 1019,2932 1032,2932 1033,2931 1038,2931 1039,2930 1040,2931 1044,2931 1045,2932 1047,2932 1048,2933 1050,2933 1051,2934 1062,2934 1063,2933 1076,2933 1077,2932 1081,2932 1082,2931 1085,2931 1086,2930 1090,2930 1091,2931 1094,2931 1095,2932 1099,2932 1100,2933 1106,2933 1107,2932 1124,2932 1125,2931 1133,2931 1134,2930 1135,2931 1138,2931 1139,2932 1141,2932 1142,2933 1143,2933 1144,2934 1145,2934 1146,2935 1148,2935 1149,2936 1150,2935 1156,2935 1157,2934 1162,2934 1163,2933 1169,2933 1170,2932 1174,2932 1175,2931 1178,2931 1179,2930 1189,2930 1190,2931 1193,2931 1194,2932 1203,2932 1204,2931 1213,2931 1214,2930 1233,2930 1234,2931 1236,2931 1237,2932 1238,2932 1239,2933 1240,2933 1242,2935 1248,2935 1249,2934 1253,2934 1254,2933 1258,2933 1259,2932 1263,2932 1264,2931 1268,2931 1269,2930 1273,2930 1274,2929 1281,2929 1282,2930 1283,2930 1284,2931 1285,2931 1286,2932 1287,2932 1289,2934 1294,2934 1295,2933 1298,2933 1299,2932 1301,2932 1302,2931 1303,2931 1305,2929 1306,2929 1311,2924 1312,2924 1314,2922 1314,2921 1315,2920 1315,2918 1316,2917 1316,2900 1315,2899 1315,2894 1316,2893 1316,2877 1315,2876 1315,2869 1316,2868 1316,2834 1317,2833 1317,2808 1318,2807 1318,2789 1319,2788 1319,2769 1320,2768 1320,2766 1319,2765 1319,2760 1318,2759 1318,2756 1317,2755 1317,2752 1318,2751 1318,2750 1319,2749 1319,2748 1320,2747 1320,2745 1321,2744 1321,2742 1322,2741 1322,2739 1321,2738 1321,2730 1320,2729 1320,2707 1321,2706 1321,2699 1322,2698 1322,2692 1321,2691 1321,2689 1320,2688 1320,2685 1319,2684 1319,2681 1320,2680 1320,2678 1321,2677 1321,2674 1322,2673 1322,2669 1321,2668 1321,2667 1320,2666 1320,2665 1319,2664 1319,2663 1318,2662 1318,2661 1317,2660 1317,2647 1318,2646 1318,2629 1317,2628 1317,2616 1318,2615 1318,2587 1317,2586 1317,2565 1318,2564 1318,2543 1317,2542 1317,2519 1318,2518 1318,2498 1317,2497 1317,2487 1316,2486 1316,2476 1317,2475 1317,2471 1318,2470 1318,2466 1319,2465 1319,2457 1320,2456 1320,2453 1319,2452 1319,2430 1320,2429 1320,2393 1319,2392 1319,2382 1320,2381 1320,2376 1321,2375 1321,2341 1320,2340 1320,2332 1321,2331 1321,2291 1320,2290 1320,2266 1321,2265 1321,2259 1322,2258 1322,2253 1323,2252 1322,2251 1322,2238 1323,2237 1323,2233 1324,2232 1324,2215 1323,2214 1323,2179 1322,2178 1322,2146 1323,2145 1323,2139 1324,2138 1324,2131 1323,2130 1323,2113 1324,2112 1323,2111 1323,2104 1322,2103 1322,2096 1323,2095 1323,2092 1324,2091 1324,2087 1325,2086 1325,2085 1324,2084 1324,2075 1323,2074 1323,2071 1322,2070 1322,2067 1321,2066 1321,2047 1322,2046 1322,2031 1321,2030 1321,2007 1320,2006 1320,2005 1321,2004 1321,1995 1322,1994 1322,1983 1323,1982 1323,1967 1322,1966 1322,1960 1321,1959 1321,1954 1322,1953 1322,1948 1323,1947 1323,1932 1322,1931 1322,1921 1321,1920 1321,1910 1322,1909 1322,1906 1323,1905 1323,1904 1325,1902 1325,1900 1326,1899 1326,1897 1327,1896 1327,1893 1326,1892 1326,1885 1325,1884 1325,1883 1322,1880 1322,1879 1320,1877 1320,1875 1319,1874 1319,1868 1320,1867 1320,1860 1321,1859 1321,1851 1322,1850 1322,1847 1321,1846 1321,1825 1320,1824 1320,1811 1321,1810 1321,1783 1320,1782 1320,1761 1321,1760 1321,1737 1320,1736 1320,1652 1321,1651 1321,1643 1320,1642 1320,1618 1321,1617 1321,1593 1320,1592 1320,1570 1321,1569 1321,1543 1320,1542 1320,1514 1321,1513 1321,1505 1320,1504 1320,1478 1319,1477 1319,1469 1318,1468 1318,1466 1316,1464 1316,1463 1315,1463 1314,1462 1239,1462 1238,1461 1202,1461 1201,1462 1194,1462 1193,1461 1145,1461 1144,1460 1055,1460 1054,1459 990,1459 989,1458" fill="rgba(121,210,214,0.3)" stroke="rgb(121,210,214)" stroke-width="2" data-block-id="0001" data-name="b-0004" /><text x="1139" y="2410" text-anchor="middle" dominant-baseline="middle" class="block-label" fill="rgb(121,210,214)" stroke="white" stroke-width="3" paint-order="stroke">b-0004</text><polygon points="667,1463 666,1464 664,1464 663,1465 662,1465 661,1466 660,1466 659,1467 658,1467 657,1468 656,1468 654,1470 652,1470 651,1471 649,1471 648,1470 647,1470 646,1469 645,1469 644,1468 642,1468 641,1467 639,1467 638,1466 635,1466 634,1465 609,1465 608,1466 604,1466 603,1467 600,1467 599,1468 597,1468 596,1469 590,1469 589,1468 585,1468 584,1467 579,1467 578,1466 528,1466 527,1467 504,1467 503,1466 494,1466 493,1467 485,1467 484,1468 479,1468 477,1470 476,1470 473,1473 473,1474 472,1475 472,1476 471,1477 471,1478 470,1479 470,1480 469,1481 469,1482 468,1483 468,1485 467,1486 467,1489 466,1490 466,1496 467,1497 467,1513 468,1514 468,1557 467,1558 467,1580 468,1581 468,1669 469,1670 469,1712 468,1713 468,1733 467,1734 467,1783 468,1784 468,1786 467,1787 467,1804 466,1805 466,1810 465,1811 465,1820 464,1821 464,1828 465,1829 465,1884 466,1885 466,1890 467,1891 467,1895 468,1896 468,1901 467,1902 467,1904 466,1905 466,1908 465,1909 465,1914 464,1915 464,1925 465,1926 465,1937 466,1938 466,1950 467,1951 467,1989 466,1990 466,1995 467,1996 467,2008 468,2009 468,2018 467,2019 467,2023 466,2024 466,2030 465,2031 465,2046 466,2047 466,2064 465,2065 465,2079 466,2080 466,2147 467,2148 467,2236 466,2237 466,2244 465,2245 465,2255 466,2256 466,2265 467,2266 467,2290 466,2291 466,2302 465,2303 465,2317 466,2318 466,2338 465,2339 465,2368 464,2369 464,2403 465,2404 465,2416 466,2417 466,2429 465,2430 465,2436 464,2437 464,2488 465,2489 465,2517 464,2518 464,2527 463,2528 463,2552 464,2553 464,2572 465,2573 465,2580 464,2581 464,2590 463,2591 463,2599 462,2600 462,2603 461,2604 461,2606 460,2607 460,2610 459,2611 459,2615 458,2616 458,2688 457,2689 457,2706 458,2707 458,2748 459,2749 459,2758 458,2759 458,2764 457,2765 457,2769 456,2770 456,2785 457,2786 457,2804 456,2805 456,2828 457,2829 457,2836 456,2837 456,2846 455,2847 455,2909 456,2910 456,2914 457,2915 457,2917 458,2918 458,2919 459,2920 459,2921 464,2926 465,2926 466,2927 467,2927 468,2928 469,2928 470,2929 472,2929 473,2930 477,2930 478,2931 482,2931 483,2930 510,2930 511,2931 530,2931 531,2930 533,2930 534,2931 552,2931 553,2932 561,2932 562,2931 577,2931 578,2932 594,2932 595,2933 621,2933 622,2934 638,2934 639,2935 650,2935 651,2936 679,2936 680,2935 703,2935 704,2934 746,2934 747,2935 807,2935 808,2934 811,2934 812,2933 814,2933 816,2931 817,2931 820,2928 820,2927 821,2926 821,2925 822,2924 822,2923 823,2922 823,2921 824,2920 824,2919 825,2918 825,2916 826,2915 826,2886 827,2885 827,2850 828,2849 828,2838 829,2837 829,2808 830,2807 830,2799 831,2798 831,2773 830,2772 830,2761 829,2760 829,2754 830,2753 830,2749 831,2748 831,2744 832,2743 832,2735 833,2734 833,2704 832,2703 832,2690 831,2689 831,2681 830,2680 830,2675 831,2674 831,2662 832,2661 832,2658 831,2657 831,2579 832,2578 832,2568 833,2567 833,2563 834,2562 834,2558 835,2557 835,2546 836,2545 836,2531 837,2530 837,2417 836,2416 836,2356 835,2355 835,2342 834,2341 834,2335 833,2334 833,2328 832,2327 832,2324 833,2323 833,2315 834,2314 834,2282 835,2281 835,2256 836,2255 836,2250 835,2249 835,2239 834,2238 834,2222 835,2221 835,2215 836,2214 836,2196 835,2195 835,2160 836,2159 836,2113 835,2112 835,2103 834,2102 834,2097 833,2096 833,2094 834,2093 834,2086 835,2085 835,2080 836,2079 836,2069 835,2068 835,2063 834,2062 834,2059 833,2058 833,2055 832,2054 832,2052 833,2051 833,2047 834,2046 834,2039 835,2038 835,2032 834,2031 834,2023 833,2022 833,2006 834,2005 834,1930 835,1929 835,1912 836,1911 836,1903 837,1902 837,1886 836,1885 836,1817 837,1816 837,1796 838,1795 838,1734 839,1733 839,1702 838,1701 838,1693 837,1692 837,1675 838,1674 838,1659 837,1658 837,1653 836,1652 836,1641 837,1640 837,1637 838,1636 838,1630 839,1629 839,1621 838,1620 838,1608 837,1607 837,1604 838,1603 838,1589 839,1588 839,1577 838,1576 838,1560 837,1559 837,1552 836,1551 836,1538 835,1537 835,1497 834,1496 834,1489 833,1488 833,1485 832,1484 832,1482 831,1481 831,1479 830,1478 830,1476 829,1475 829,1473 826,1470 826,1469 825,1468 824,1468 823,1467 820,1467 819,1466 814,1466 813,1465 784,1465 783,1464 773,1464 772,1463 756,1463 755,1464 736,1464 735,1463" fill="rgba(74,202,87,0.3)" stroke="rgb(74,202,87)" stroke-width="2" data-block-id="0002" data-name="b-0005" /><text x="651" y="2156" text-anchor="middle" dominant-baseline="middle" class="block-label" fill="rgb(74,202,87)" stroke="white" stroke-width="3" paint-order="stroke">b-0005</text><polygon points="2870,1458 2869,1459 2865,1459 2864,1460 2860,1460 2859,1461 2857,1461 2856,1462 2855,1462 2851,1466 2851,1467 2850,1468 2850,1474 2849,1475 2849,1484 2848,1485 2848,1536 2847,1537 2847,1544 2848,1545 2848,1556 2847,1557 2847,1580 2846,1581 2846,1592 2847,1593 2847,1607 2846,1608 2846,1616 2847,1617 2847,1629 2846,1630 2846,1638 2847,1639 2847,1647 2848,1648 2847,1649 2847,1665 2846,1666 2846,1676 2845,1677 2845,1686 2846,1687 2846,1692 2847,1693 2847,1698 2846,1699 2846,1717 2845,1718 2845,1737 2846,1738 2846,1757 2845,1758 2845,1810 2844,1811 2844,1834 2845,1835 2845,1868 2844,1869 2844,1874 2845,1875 2845,1880 2846,1881 2846,1890 2845,1891 2845,1912 2844,1913 2844,1989 2845,1990 2845,1994 2844,1995 2844,2016 2845,2017 2845,2166 2846,2167 2846,2210 2845,2211 2845,2375 2844,2376 2844,2419 2843,2420 2843,2448 2842,2449 2842,2696 2841,2697 2841,2715 2840,2716 2840,2731 2841,2732 2841,2748 2842,2749 2842,2756 2841,2757 2841,2774 2842,2775 2842,2777 2841,2778 2841,2807 2840,2808 2840,2819 2841,2820 2841,2828 2840,2829 2840,2856 2839,2857 2839,2866 2840,2867 2840,2892 2841,2893 2841,2910 2843,2912 2843,2913 2847,2917 2849,2917 2850,2918 2855,2918 2856,2919 2870,2919 2871,2920 2901,2920 2902,2921 2918,2921 2919,2920 2922,2920 2923,2921 2931,2921 2932,2922 2933,2922 2934,2923 2935,2923 2937,2925 2938,2925 2941,2928 2943,2928 2944,2929 2953,2929 2954,2928 2963,2928 2964,2927 2968,2927 2969,2928 2974,2928 2975,2929 2981,2929 2982,2930 2995,2930 2996,2931 3004,2931 3005,2930 3017,2930 3018,2931 3020,2931 3021,2932 3024,2932 3025,2933 3026,2932 3030,2932 3031,2931 3033,2931 3034,2930 3036,2930 3037,2929 3049,2929 3050,2928 3051,2928 3052,2927 3053,2927 3054,2926 3055,2926 3056,2925 3057,2925 3058,2924 3059,2924 3060,2923 3069,2923 3070,2924 3075,2924 3076,2923 3080,2923 3081,2922 3140,2922 3141,2921 3191,2921 3192,2920 3198,2920 3199,2919 3202,2919 3203,2918 3204,2918 3206,2916 3206,2915 3207,2914 3207,2913 3208,2912 3208,2909 3209,2908 3209,2900 3210,2899 3210,2887 3209,2886 3209,2855 3210,2854 3210,2825 3209,2824 3209,2811 3210,2810 3210,2759 3211,2758 3211,2733 3210,2732 3210,2716 3211,2715 3211,2615 3212,2614 3212,2575 3211,2574 3211,2543 3212,2542 3212,2533 3213,2532 3213,2511 3212,2510 3212,2480 3213,2479 3213,2469 3214,2468 3214,2435 3213,2434 3213,2433 3214,2432 3214,2427 3215,2426 3215,2407 3214,2406 3214,2383 3213,2382 3213,2359 3212,2358 3212,2340 3211,2339 3211,2333 3212,2332 3212,2265 3211,2264 3211,2261 3210,2260 3210,2254 3209,2253 3209,2239 3210,2238 3210,2230 3211,2229 3211,2198 3210,2197 3210,2193 3211,2192 3211,2137 3212,2136 3212,2109 3211,2108 3211,2095 3212,2094 3212,2046 3213,2045 3213,2005 3214,2004 3214,1995 3215,1994 3215,1967 3214,1966 3214,1961 3213,1960 3213,1954 3214,1953 3214,1948 3215,1947 3215,1928 3214,1927 3214,1913 3213,1912 3213,1908 3214,1907 3214,1899 3215,1898 3215,1891 3214,1890 3214,1854 3215,1853 3215,1844 3214,1843 3214,1834 3215,1833 3215,1809 3216,1808 3216,1770 3215,1769 3215,1764 3216,1763 3216,1709 3217,1708 3217,1702 3216,1701 3216,1642 3217,1641 3217,1629 3216,1628 3216,1619 3217,1618 3217,1580 3216,1579 3216,1574 3217,1573 3217,1568 3218,1567 3218,1556 3217,1555 3217,1549 3218,1548 3218,1508 3217,1507 3217,1498 3218,1497 3218,1487 3217,1486 3217,1478 3216,1477 3216,1472 3215,1471 3215,1469 3213,1467 3212,1467 3211,1466 3210,1466 3209,1465 3207,1465 3206,1464 3192,1464 3191,1463 3169,1463 3168,1462 3153,1462 3152,1463 3138,1463 3137,1462 3113,1462 3112,1461 3107,1461 3106,1462 3090,1462 3089,1461 3052,1461 3051,1462 3048,1462 3047,1461 3024,1461 3023,1460 3018,1460 3017,1459 2985,1459 2984,1460 2973,1460 2972,1459 2949,1459 2948,1460 2942,1460 2941,1459 2930,1459 2929,1458 2911,1458 2910,1459 2902,1459 2901,1458 2893,1458 2892,1459 2875,1459 2874,1458" fill="rgba(116,99,103,0.3)" stroke="rgb(116,99,103)" stroke-width="2" data-block-id="0003" data-name="b-0006" /><text x="3041" y="2183" text-anchor="middle" dominant-baseline="middle" class="block-label" fill="rgb(116,99,103)" stroke="white" stroke-width="3" paint-order="stroke">b-0006</text><polygon points="3343,1464 3342,1465 3335,1465 3334,1466 3333,1466 3329,1470 3329,1471 3328,1472 3328,1475 3327,1476 3327,1497 3326,1498 3326,1572 3325,1573 3325,1587 3326,1588 3326,1613 3325,1614 3325,1619 3324,1620 3324,1626 3325,1627 3325,1632 3326,1633 3326,1638 3325,1639 3325,1665 3326,1666 3326,1685 3325,1686 3325,1704 3326,1705 3326,1706 3325,1707 3325,1713 3324,1714 3324,1734 3323,1735 3323,1746 3324,1747 3324,1757 3323,1758 3323,1768 3322,1769 3322,1792 3323,1793 3323,1809 3322,1810 3322,1842 3323,1843 3323,1856 3322,1857 3322,1892 3323,1893 3323,1900 3322,1901 3322,1969 3321,1970 3321,1975 3320,1976 3320,1991 3319,1992 3319,1998 3318,1999 3318,2043 3317,2044 3317,2048 3316,2049 3316,2059 3317,2060 3317,2068 3318,2069 3318,2082 3319,2083 3319,2118 3318,2119 3318,2137 3319,2138 3319,2166 3318,2167 3318,2196 3319,2197 3319,2210 3318,2211 3318,2306 3317,2307 3317,2364 3318,2365 3318,2370 3319,2371 3319,2376 3318,2377 3318,2394 3319,2395 3319,2398 3318,2399 3318,2415 3319,2416 3319,2427 3318,2428 3318,2435 3319,2436 3319,2455 3318,2456 3318,2458 3319,2459 3319,2476 3318,2477 3318,2484 3319,2485 3319,2497 3318,2498 3318,2513 3319,2514 3318,2515 3318,2561 3319,2562 3319,2565 3318,2566 3318,2631 3319,2632 3319,2637 3318,2638 3318,2680 3319,2681 3318,2682 3318,2713 3317,2714 3317,2721 3318,2722 3318,2740 3317,2741 3317,2793 3318,2794 3318,2821 3319,2822 3319,2827 3318,2828 3318,2835 3317,2836 3317,2842 3318,2843 3318,2851 3317,2852 3317,2888 3318,2889 3318,2910 3319,2911 3319,2912 3323,2916 3324,2916 3325,2917 3346,2917 3347,2918 3376,2918 3377,2919 3387,2919 3388,2918 3390,2918 3391,2917 3394,2917 3395,2916 3407,2916 3408,2917 3416,2917 3417,2918 3424,2918 3425,2919 3444,2919 3445,2918 3452,2918 3453,2917 3456,2917 3457,2918 3466,2918 3467,2919 3480,2919 3481,2918 3532,2918 3533,2917 3630,2917 3631,2916 3654,2916 3655,2915 3663,2915 3664,2914 3668,2914 3669,2913 3670,2913 3671,2912 3672,2912 3674,2910 3674,2909 3675,2908 3675,2891 3676,2890 3676,2882 3675,2881 3675,2878 3674,2877 3674,2873 3673,2872 3673,2871 3674,2870 3674,2864 3675,2863 3675,2845 3676,2844 3676,2841 3677,2840 3677,2830 3676,2829 3676,2822 3677,2821 3677,2805 3676,2804 3676,2783 3675,2782 3675,2773 3676,2772 3676,2766 3677,2765 3677,2755 3678,2754 3678,2739 3677,2738 3677,2733 3676,2732 3676,2728 3677,2727 3677,2725 3678,2724 3678,2721 3679,2720 3679,2703 3680,2702 3680,2699 3681,2698 3681,2693 3680,2692 3680,2691 3679,2690 3679,2689 3678,2688 3678,2687 3677,2686 3677,2685 3676,2684 3676,2679 3677,2678 3677,2675 3678,2674 3678,2663 3677,2662 3677,2656 3678,2655 3678,2652 3679,2651 3679,2644 3678,2643 3678,2640 3677,2639 3677,2638 3676,2637 3676,2629 3677,2628 3677,2622 3678,2621 3678,2590 3677,2589 3677,2585 3678,2584 3678,2571 3677,2570 3677,2546 3676,2545 3676,2513 3677,2512 3677,2496 3676,2495 3676,2486 3677,2485 3677,2459 3678,2458 3678,2453 3677,2452 3677,2406 3678,2405 3678,2401 3679,2400 3679,2378 3680,2377 3680,2371 3679,2370 3679,2364 3678,2363 3678,2361 3679,2360 3679,2356 3680,2355 3680,2330 3679,2329 3679,2308 3678,2307 3678,2257 3679,2256 3679,2251 3678,2250 3678,2231 3679,2230 3679,2207 3678,2206 3678,2192 3679,2191 3679,2161 3680,2160 3680,2047 3681,2046 3681,2018 3682,2017 3682,1950 3683,1949 3683,1935 3682,1934 3682,1913 3681,1912 3681,1906 3682,1905 3682,1887 3681,1886 3682,1885 3682,1832 3683,1831 3683,1803 3684,1802 3684,1796 3683,1795 3683,1787 3684,1786 3684,1757 3685,1756 3685,1710 3686,1709 3686,1685 3687,1684 3687,1661 3688,1660 3688,1655 3687,1654 3687,1611 3688,1610 3688,1607 3687,1606 3687,1575 3688,1574 3688,1564 3689,1563 3689,1562 3688,1561 3688,1539 3687,1538 3687,1530 3686,1529 3686,1526 3687,1525 3687,1502 3686,1501 3686,1492 3685,1491 3685,1477 3684,1476 3684,1475 3683,1474 3683,1473 3680,1470 3678,1470 3677,1469 3674,1469 3673,1468 3652,1468 3651,1467 3645,1467 3644,1466 3640,1466 3639,1467 3630,1467 3629,1466 3616,1466 3615,1467 3607,1467 3606,1466 3555,1466 3554,1465 3517,1465 3516,1466 3513,1466 3512,1465 3485,1465 3484,1464 3473,1464 3472,1465 3463,1465 3462,1464 3427,1464 3426,1465 3421,1465 3420,1466 3418,1466 3417,1465 3412,1465 3411,1464" fill="rgba(151,130,149,0.3)" stroke="rgb(151,130,149)" stroke-width="2" data-block-id="0004" data-name="b-0007" /><text x="3517" y="2244" text-anchor="middle" dominant-baseline="middle" class="block-label" fill="rgb(151,130,149)" stroke="white" stroke-width="3" paint-order="stroke">b-0007</text><polygon points="2655,1455 2654,1456 2601,1456 2600,1457 2590,1457 2589,1458 2575,1458 2574,1459 2567,1459 2566,1460 2561,1460 2560,1459 2548,1459 2547,1458 2522,1458 2521,1457 2429,1457 2428,1458 2422,1458 2421,1459 2411,1459 2410,1460 2409,1460 2408,1461 2407,1461 2407,1462 2406,1463 2406,1464 2405,1465 2405,1467 2404,1468 2404,1476 2403,1477 2403,1558 2404,1559 2404,1570 2405,1571 2405,1583 2404,1584 2404,1590 2403,1591 2403,1596 2402,1597 2402,1620 2403,1621 2403,1720 2402,1721 2402,1761 2403,1762 2403,1770 2402,1771 2402,1780 2403,1781 2403,1813 2404,1814 2404,1817 2403,1818 2403,1880 2402,1881 2402,1954 2403,1955 2403,1960 2402,1961 2402,2166 2403,2167 2403,2181 2402,2182 2402,2184 2403,2185 2403,2310 2404,2311 2404,2323 2403,2324 2403,2327 2404,2328 2404,2345 2403,2346 2403,2353 2404,2354 2404,2366 2403,2367 2403,2375 2404,2376 2404,2393 2403,2394 2403,2404 2404,2405 2404,2410 2403,2411 2403,2443 2402,2444 2402,2451 2401,2452 2401,2454 2400,2455 2400,2459 2401,2460 2401,2464 2402,2465 2402,2472 2401,2473 2401,2479 2400,2480 2400,2492 2401,2493 2401,2501 2402,2502 2402,2509 2401,2510 2401,2545 2402,2546 2402,2556 2401,2557 2401,2569 2402,2570 2402,2588 2401,2589 2401,2598 2400,2599 2400,2614 2399,2615 2399,2620 2398,2621 2398,2627 2399,2628 2399,2637 2400,2638 2400,2662 2399,2663 2399,2665 2398,2666 2398,2667 2397,2668 2397,2673 2398,2674 2398,2676 2399,2677 2399,2680 2400,2681 2400,2698 2401,2699 2401,2731 2400,2732 2400,2740 2399,2741 2399,2775 2400,2776 2400,2782 2401,2783 2401,2806 2400,2807 2400,2816 2399,2817 2399,2826 2400,2827 2400,2831 2401,2832 2401,2876 2402,2877 2402,2910 2403,2911 2403,2913 2404,2914 2404,2916 2405,2917 2405,2918 2407,2920 2408,2920 2409,2921 2411,2921 2412,2922 2417,2922 2418,2923 2425,2923 2426,2924 2448,2924 2449,2923 2454,2923 2455,2922 2477,2922 2478,2921 2496,2921 2497,2920 2519,2920 2520,2919 2524,2919 2525,2918 2528,2918 2529,2917 2534,2917 2535,2916 2538,2916 2539,2915 2541,2915 2542,2914 2545,2914 2546,2913 2550,2913 2551,2912 2558,2912 2559,2911 2566,2911 2567,2910 2573,2910 2574,2909 2579,2909 2580,2908 2587,2908 2588,2907 2599,2907 2600,2906 2609,2906 2610,2905 2611,2906 2617,2906 2618,2907 2620,2907 2621,2908 2625,2908 2626,2909 2633,2909 2634,2910 2636,2910 2637,2911 2638,2911 2639,2912 2641,2912 2642,2913 2644,2913 2645,2914 2655,2914 2656,2915 2681,2915 2682,2916 2687,2916 2688,2917 2692,2917 2693,2918 2698,2918 2699,2917 2709,2917 2710,2916 2715,2916 2716,2915 2719,2915 2720,2914 2721,2914 2723,2912 2724,2912 2726,2910 2726,2909 2727,2908 2727,2907 2728,2906 2728,2904 2730,2902 2730,2901 2731,2900 2731,2899 2733,2897 2733,2893 2732,2892 2732,2890 2731,2889 2731,2875 2732,2874 2732,2871 2731,2870 2731,2859 2733,2857 2733,2856 2738,2851 2738,2850 2739,2849 2739,2847 2738,2846 2738,2845 2737,2844 2737,2843 2736,2842 2736,2841 2735,2840 2735,2835 2736,2834 2736,2833 2737,2832 2737,2831 2738,2830 2738,2829 2739,2828 2739,2827 2740,2826 2740,2823 2739,2822 2739,2821 2738,2820 2738,2818 2737,2817 2737,2816 2736,2815 2736,2812 2737,2811 2737,2808 2738,2807 2738,2804 2739,2803 2739,2801 2738,2800 2738,2797 2737,2796 2737,2794 2736,2793 2736,2791 2735,2790 2735,2788 2734,2787 2734,2785 2733,2784 2733,2783 2732,2782 2732,2781 2730,2779 2730,2775 2731,2774 2731,2772 2732,2771 2732,2769 2733,2768 2733,2767 2734,2766 2734,2765 2735,2764 2735,2763 2736,2762 2736,2760 2737,2759 2737,2757 2738,2756 2738,2746 2737,2745 2737,2740 2736,2739 2736,2738 2735,2737 2735,2736 2734,2735 2734,2734 2733,2733 2733,2732 2732,2731 2732,2730 2731,2729 2731,2725 2730,2724 2730,2717 2731,2716 2731,2713 2732,2712 2732,2709 2733,2708 2733,2697 2732,2696 2732,2691 2733,2690 2733,2677 2732,2676 2732,2669 2733,2668 2733,2664 2734,2663 2734,2652 2733,2651 2733,2642 2734,2641 2734,2636 2735,2635 2735,2616 2736,2615 2736,2605 2735,2604 2735,2596 2736,2595 2736,2591 2737,2590 2737,2586 2738,2585 2738,2578 2739,2577 2739,2556 2740,2555 2740,2553 2737,2550 2736,2550 2734,2548 2734,2547 2733,2546 2733,2545 2732,2544 2732,2541 2731,2540 2731,2528 2732,2527 2732,2519 2733,2518 2733,2454 2732,2453 2732,2447 2731,2446 2731,2438 2732,2437 2732,2424 2731,2423 2731,2408 2732,2407 2732,2381 2733,2380 2733,2347 2734,2346 2734,2340 2735,2339 2735,2326 2736,2325 2736,2306 2737,2305 2737,2301 2738,2300 2738,2296 2739,2295 2739,2288 2738,2287 2738,2286 2737,2285 2737,2284 2736,2283 2736,2282 2735,2281 2735,2280 2734,2279 2734,2275 2733,2274 2733,2245 2734,2244 2734,2237 2735,2236 2735,2232 2736,2231 2736,2214 2735,2213 2735,2200 2736,2199 2736,2190 2735,2189 2735,2166 2736,2165 2736,2156 2737,2155 2737,2146 2738,2145 2738,2141 2739,2140 2739,2137 2740,2136 2740,2134 2741,2133 2741,2120 2740,2119 2740,2114 2739,2113 2739,2109 2740,2108 2740,2105 2741,2104 2741,2102 2742,2101 2742,2100 2741,2099 2741,2097 2739,2095 2739,2094 2738,2093 2738,2092 2736,2090 2736,2089 2735,2088 2735,2083 2736,2082 2736,2073 2735,2072 2735,2068 2734,2067 2734,2032 2735,2031 2735,2022 2734,2021 2734,2013 2735,2012 2735,1859 2734,1858 2734,1849 2733,1848 2733,1835 2734,1834 2734,1828 2735,1827 2735,1721 2736,1720 2736,1714 2735,1713 2735,1705 2736,1704 2736,1685 2735,1684 2735,1681 2736,1680 2736,1665 2735,1664 2735,1657 2736,1656 2736,1651 2737,1650 2737,1608 2738,1607 2738,1595 2737,1594 2737,1592 2736,1591 2736,1587 2735,1586 2735,1582 2736,1581 2736,1559 2737,1558 2737,1548 2736,1547 2736,1542 2735,1541 2735,1536 2736,1535 2736,1523 2737,1522 2737,1511 2738,1510 2738,1501 2737,1500 2737,1496 2736,1495 2736,1479 2735,1478 2735,1468 2734,1467 2734,1463 2733,1462 2733,1460 2732,1459 2732,1458 2730,1458 2729,1457 2722,1457 2721,1456 2690,1456 2689,1455" fill="rgba(52,1,87,0.3)" stroke="rgb(52,1,87)" stroke-width="2" data-block-id="0005" data-name="b-0008" /><text x="2618" y="2388" text-anchor="middle" dominant-baseline="middle" class="block-label" fill="rgb(52,1,87)" stroke="white" stroke-width="3" paint-order="stroke">b-0008</text><polygon points="4826,21 4825,22 4809,22 4808,23 4792,23 4791,24 4776,24 4775,25 4767,25 4766,26 4755,26 4754,25 4749,25 4748,24 4743,24 4742,23 4733,23 4732,24 4702,24 4701,25 4699,25 4698,26 4697,26 4697,27 4696,28 4696,30 4695,31 4696,32 4696,33 4697,34 4697,35 4698,36 4698,37 4699,38 4699,39 4701,41 4701,42 4703,44 4703,45 4705,47 4706,47 4707,48 4708,48 4709,49 4710,49 4712,51 4712,52 4713,53 4713,54 4714,55 4714,58 4715,59 4715,65 4716,66 4716,68 4717,69 4717,71 4718,72 4718,73 4719,74 4719,76 4720,77 4720,80 4721,81 4721,115 4722,116 4722,191 4721,192 4721,232 4722,233 4722,267 4721,268 4721,347 4720,348 4720,380 4721,381 4721,415 4720,416 4720,472 4721,473 4721,494 4720,495 4720,551 4721,552 4721,583 4720,584 4720,603 4721,604 4721,623 4722,624 4722,653 4721,654 4721,668 4720,669 4720,745 4719,746 4719,756 4720,757 4720,782 4721,783 4721,808 4720,809 4720,864 4719,865 4719,873 4720,874 4720,890 4719,891 4719,914 4720,915 4720,932 4721,933 4721,959 4722,960 4722,982 4723,983 4723,986 4724,987 4724,989 4725,990 4725,991 4726,992 4726,993 4727,994 4727,995 4734,1002 4735,1002 4736,1003 4737,1003 4738,1004 4752,1004 4753,1003 4773,1003 4774,1002 4783,1002 4784,1003 4824,1003 4825,1002 4842,1002 4843,1001 4853,1001 4854,1000 4863,1000 4864,1001 4876,1001 4877,1000 4879,1000 4880,999 4880,998 4881,997 4881,996 4882,995 4882,994 4883,993 4883,992 4884,991 4884,989 4885,988 4885,986 4886,985 4886,981 4885,980 4885,977 4884,976 4884,974 4883,973 4883,970 4882,969 4882,967 4881,966 4881,964 4880,963 4880,958 4879,957 4879,942 4878,941 4878,896 4877,895 4877,878 4876,877 4876,831 4877,830 4877,823 4876,822 4876,796 4877,795 4877,777 4876,776 4876,767 4877,766 4877,713 4876,712 4876,692 4877,691 4877,665 4876,664 4876,537 4877,536 4877,453 4878,452 4878,371 4879,370 4879,303 4880,302 4880,247 4879,246 4879,182 4878,181 4878,175 4877,174 4877,168 4876,167 4876,160 4875,159 4875,154 4874,153 4874,150 4872,150 4871,151 4866,151 4865,152 4859,152 4855,148 4855,145 4854,144 4854,142 4855,141 4855,140 4856,139 4856,138 4857,137 4857,136 4858,135 4858,134 4859,133 4860,133 4862,135 4863,135 4865,137 4866,137 4868,139 4869,139 4871,141 4872,141 4873,142 4874,142 4874,140 4875,139 4875,137 4876,136 4876,134 4877,133 4877,130 4878,129 4878,61 4877,60 4877,45 4876,44 4876,36 4875,35 4875,31 4874,30 4874,29 4873,28 4873,27 4872,26 4871,26 4870,25 4869,25 4868,24 4866,24 4865,23 4863,23 4862,22 4856,22 4855,21" fill="rgba(166,17,131,0.3)" stroke="rgb(166,17,131)" stroke-width="2" data-block-id="0006" data-name="b-0023" /><text x="4800" y="439" text-anchor="middle" dominant-baseline="middle" class="block-label" fill="rgb(166,17,131)" stroke="white" stroke-width="3" paint-order="stroke">b-0023</text><polygon points="4731,1457 4735,2956 4337,2933 4325,1449" fill="rgba(102,179,92,0.3)" stroke="rgb(102,179,92)" stroke-width="2" data-block-id="0007" data-name="b-0009" /><text x="4532" y="2198" text-anchor="middle" dominant-baseline="middle" class="block-label" fill="rgb(102,179,92)" stroke="white" stroke-width="3" paint-order="stroke">b-0009</text><polygon points="4253,1461 4245,2933 3840,2937 3859,1457" fill="rgba(102,179,92,0.3)" stroke="rgb(102,179,92)" stroke-width="2" data-block-id="0008" data-name="b-0010" /><text x="4049" y="2197" text-anchor="middle" dominant-baseline="middle" class="block-label" fill="rgb(102,179,92)" stroke="white" stroke-width="3" paint-order="stroke">b-0010</text></g>
</svg>