<?xml version='1.0' encoding='utf-8'?>
<svg xmlns="http://www.w3.org/2000/svg" xmlns:atlas="http://example.com/atlas" width="4984" height="3288" viewBox="0 0 4984 3288">
  
  <metadata>
    <atlas:source>
      <atlas:jp2-path>/Users/pwright/workspace/atlas/media/v2/p17.jp2</atlas:jp2-path>
      <atlas:volume>unknown</atlas:volume>
      <atlas:plate-id>p17</atlas:plate-id>
      <atlas:image-width>4984</atlas:image-width>
      <atlas:image-height>3288</atlas:image-height>
    <atlas:angle>-90.0</atlas:angle><atlas:scale>1.2527229115213534</atlas:scale><atlas:pos-x>588.9672475769014</atlas:pos-x><atlas:pos-y>2347.9744811336896</atlas:pos-y></atlas:source>
  </metadata>

  
  <image id="background" href="file:///Users/pwright/workspace/atlas/media/v2/p17.jp2" width="4984" height="3288" opacity="0.5" />

  <style>
    .block-label { font-family: sans-serif; font-size: 14px; font-weight: bold; }
  </style>

  
  <g id="blocks">
    <polygon points="3747,1508 3746,1509 3740,1509 3739,1510 3735,1510 3734,1509 3722,1509 3721,1510 3716,1510 3715,1511 3669,1511 3668,1512 3663,1512 3662,1511 3649,1511 3648,1512 3633,1512 3632,1511 3627,1511 3626,1512 3612,1512 3611,1511 3603,1511 3602,1512 3596,1512 3595,1513 3585,1513 3584,1512 3583,1513 3574,1513 3573,1514 3554,1514 3553,1515 3546,1515 3545,1516 3539,1516 3538,1517 3534,1517 3533,1518 3530,1518 3529,1519 3527,1519 3526,1520 3525,1520 3523,1522 3522,1522 3521,1523 3520,1523 3519,1524 3517,1524 3516,1525 3514,1525 3513,1526 3510,1526 3509,1527 3508,1527 3507,1528 3506,1528 3505,1529 3504,1529 3501,1532 3500,1532 3499,1533 3498,1533 3497,1534 3495,1534 3494,1535 3492,1535 3491,1536 3490,1536 3489,1537 3481,1537 3480,1536 3468,1536 3467,1537 3463,1537 3462,1538 3461,1538 3460,1539 3459,1539 3458,1540 3457,1540 3451,1546 3450,1546 3450,1547 3446,1551 3446,1552 3445,1553 3445,1554 3444,1555 3444,1559 3443,1560 3443,1563 3442,1564 3442,1567 3441,1568 3441,1579 3442,1580 3442,1582 3443,1583 3443,1584 3444,1585 3444,1587 3445,1588 3445,1595 3444,1596 3444,1601 3445,1602 3445,1604 3446,1605 3446,1606 3447,1607 3447,1608 3449,1610 3449,1611 3450,1612 3450,1618 3449,1619 3449,1622 3448,1623 3448,1624 3449,1625 3449,1626 3450,1627 3450,1628 3452,1630 3452,1631 3453,1632 3453,1633 3454,1634 3454,1636 3455,1637 3455,1639 3454,1640 3454,1643 3453,1644 3453,1647 3452,1648 3452,1649 3451,1650 3451,1651 3441,1661 3441,1663 3440,1664 3440,1674 3442,1676 3442,1677 3445,1680 3445,1681 3447,1683 3447,1685 3448,1686 3448,1690 3449,1691 3449,1695 3448,1696 3448,1697 3447,1698 3446,1698 3444,1700 3443,1700 3440,1703 3440,1704 3439,1705 3439,1707 3438,1708 3438,1722 3441,1725 3441,1726 3446,1731 3446,1732 3447,1733 3447,1738 3446,1739 3446,1743 3444,1745 3444,1746 3442,1748 3442,1749 3441,1750 3441,1751 3440,1752 3440,1755 3439,1756 3439,1761 3438,1762 3438,1769 3440,1771 3440,1772 3442,1774 3443,1774 3447,1778 3447,1780 3448,1781 3447,1782 3447,1784 3446,1785 3446,1786 3445,1787 3445,1788 3444,1789 3444,1790 3443,1791 3443,1792 3442,1793 3442,1794 3441,1795 3441,1798 3440,1799 3440,1802 3439,1803 3439,1806 3438,1807 3438,1812 3437,1813 3437,1815 3438,1816 3438,1817 3442,1821 3443,1821 3445,1823 3446,1823 3448,1825 3449,1825 3450,1826 3450,1829 3447,1832 3446,1832 3445,1833 3445,1834 3441,1838 3441,1844 3442,1845 3442,1854 3441,1855 3441,1857 3440,1858 3440,1860 3439,1861 3439,1864 3438,1865 3439,1866 3439,1892 3440,1893 3440,1902 3439,1903 3439,1906 3438,1907 3438,1914 3439,1915 3439,1917 3440,1918 3440,1923 3441,1924 3441,1925 3440,1926 3440,1951 3439,1952 3439,1960 3440,1961 3440,1962 3441,1963 3441,1964 3443,1966 3443,1967 3445,1969 3445,1973 3443,1975 3443,1976 3442,1977 3442,1978 3441,1979 3441,1980 3440,1981 3440,1983 3439,1984 3440,1985 3440,2008 3442,2010 3442,2011 3443,2012 3443,2013 3447,2017 3446,2018 3446,2020 3443,2023 3443,2024 3442,2025 3442,2027 3441,2028 3441,2035 3440,2036 3440,2045 3439,2046 3439,2051 3438,2052 3438,2055 3439,2056 3439,2058 3440,2059 3440,2061 3441,2062 3441,2069 3440,2070 3440,2072 3439,2073 3439,2074 3438,2075 3438,2083 3439,2084 3439,2094 3438,2095 3438,2098 3437,2099 3437,2104 3438,2105 3438,2106 3439,2107 3439,2109 3440,2110 3440,2111 3441,2112 3441,2115 3438,2118 3438,2119 3437,2120 3437,2122 3436,2123 3436,2128 3437,2129 3437,2131 3438,2132 3438,2133 3439,2134 3439,2135 3440,2136 3440,2142 3439,2143 3439,2147 3438,2148 3439,2149 3439,2153 3440,2154 3440,2157 3441,2158 3441,2163 3440,2164 3440,2165 3439,2166 3439,2168 3438,2169 3438,2179 3439,2180 3439,2183 3440,2184 3440,2201 3441,2202 3441,2213 3440,2214 3440,2218 3439,2219 3439,2225 3440,2226 3440,2233 3441,2234 3441,2252 3442,2253 3442,2258 3441,2259 3441,2266 3440,2267 3440,2284 3439,2285 3439,2296 3440,2297 3440,2299 3441,2300 3441,2309 3440,2310 3440,2313 3439,2314 3439,2321 3440,2322 3440,2330 3439,2331 3439,2333 3438,2334 3438,2335 3437,2336 3437,2338 3436,2339 3436,2341 3437,2342 3437,2344 3438,2345 3438,2346 3440,2348 3440,2349 3441,2350 3441,2361 3440,2362 3440,2379 3439,2380 3439,2384 3438,2385 3438,2389 3439,2390 3439,2392 3440,2393 3440,2395 3441,2396 3441,2404 3440,2405 3440,2408 3439,2409 3439,2418 3440,2419 3440,2425 3439,2426 3439,2428 3438,2429 3438,2430 3437,2431 3437,2439 3438,2440 3438,2441 3439,2442 3439,2443 3440,2444 3440,2452 3439,2453 3439,2456 3438,2457 3438,2463 3439,2464 3439,2467 3440,2468 3440,2475 3439,2476 3439,2478 3438,2479 3438,2480 3437,2481 3437,2486 3438,2487 3438,2491 3439,2492 3439,2496 3438,2497 3438,2500 3437,2501 3437,2503 3436,2504 3436,2506 3437,2507 3437,2508 3438,2509 3438,2510 3439,2511 3439,2512 3440,2513 3440,2514 3441,2515 3441,2517 3442,2518 3442,2520 3441,2521 3441,2523 3440,2524 3440,2526 3439,2527 3439,2534 3440,2535 3440,2538 3441,2539 3441,2561 3442,2562 3442,2567 3441,2568 3441,2571 3440,2572 3440,2588 3441,2589 3441,2625 3440,2626 3440,2630 3441,2631 3441,2652 3440,2653 3440,2670 3439,2671 3439,2673 3440,2674 3440,2679 3441,2680 3441,2695 3440,2696 3440,2699 3441,2700 3441,2735 3442,2736 3442,2748 3441,2749 3441,2774 3442,2775 3442,2786 3443,2787 3443,2790 3444,2791 3444,2794 3445,2795 3445,2841 3446,2842 3446,2881 3447,2882 3447,2958 3448,2959 3448,2961 3452,2965 3454,2965 3455,2966 3461,2966 3462,2967 3614,2967 3615,2966 3624,2966 3625,2967 3652,2967 3653,2966 3668,2966 3669,2967 3709,2967 3710,2966 3718,2966 3719,2967 3759,2967 3760,2966 3761,2967 3765,2967 3766,2968 3769,2968 3770,2969 3778,2969 3779,2968 3784,2968 3785,2967 3787,2967 3788,2966 3790,2966 3791,2965 3793,2965 3794,2964 3796,2964 3799,2961 3799,2960 3800,2959 3800,2945 3801,2944 3801,2839 3802,2838 3802,2787 3803,2786 3803,2763 3804,2762 3804,2756 3803,2755 3803,2751 3802,2750 3802,2748 3801,2747 3801,2741 3802,2740 3802,2733 3803,2732 3803,2713 3804,2712 3804,2711 3803,2710 3803,2706 3802,2705 3802,2703 3801,2702 3801,2700 3800,2699 3800,2692 3801,2691 3801,2659 3800,2658 3800,2625 3799,2624 3799,2572 3798,2571 3798,2563 3799,2562 3799,2515 3800,2514 3800,2511 3801,2510 3801,2503 3802,2502 3802,2485 3801,2484 3801,2480 3800,2479 3800,2476 3799,2475 3799,2474 3798,2473 3798,2433 3797,2432 3797,2426 3796,2425 3796,2422 3797,2421 3797,2417 3798,2416 3798,2403 3797,2402 3797,2396 3798,2395 3798,2385 3797,2384 3797,2380 3796,2379 3796,2373 3797,2372 3797,2370 3798,2369 3798,2366 3799,2365 3799,2345 3798,2344 3798,2301 3797,2300 3797,2297 3796,2296 3796,2262 3795,2261 3795,2222 3796,2221 3796,2210 3795,2209 3795,2177 3796,2176 3796,2173 3795,2172 3795,2166 3794,2165 3794,2135 3795,2134 3795,2125 3796,2124 3795,2123 3795,2113 3794,2112 3794,2103 3793,2102 3793,2100 3794,2099 3794,2087 3795,2086 3795,2067 3794,2066 3794,2059 3795,2058 3795,2055 3794,2054 3794,2047 3793,2046 3793,2037 3794,2036 3794,2030 3795,2029 3795,2028 3794,2027 3794,1988 3795,1987 3795,1981 3794,1980 3794,1977 3793,1976 3793,1973 3792,1972 3792,1967 3793,1966 3793,1962 3794,1961 3794,1954 3793,1953 3793,1943 3794,1942 3794,1881 3793,1880 3793,1878 3792,1877 3792,1874 3793,1873 3793,1870 3794,1869 3794,1841 3793,1840 3793,1820 3794,1819 3794,1796 3795,1795 3795,1789 3794,1788 3794,1785 3793,1784 3793,1780 3792,1779 3793,1778 3793,1773 3794,1772 3794,1761 3793,1760 3793,1695 3792,1694 3792,1690 3791,1689 3791,1681 3792,1680 3792,1676 3793,1675 3793,1667 3792,1666 3792,1654 3793,1653 3793,1646 3792,1645 3792,1590 3791,1589 3791,1586 3792,1585 3792,1516 3791,1515 3791,1514 3787,1510 3786,1510 3785,1509 3776,1509 3775,1508 3771,1508 3770,1509 3754,1509 3753,1508" fill="rgba(188,20,102,0.3)" stroke="rgb(188,20,102)" stroke-width="2" data-block-id="0001" data-name="b-0003" /><text x="3558" y="2090" text-anchor="middle" dominant-baseline="middle" class="block-label" fill="rgb(188,20,102)" stroke="white" stroke-width="3" paint-order="stroke">b-0003</text><polygon points="3315,1569 3314,1570 3307,1570 3306,1571 3302,1571 3301,1572 3298,1572 3297,1573 3293,1573 3292,1574 3289,1574 3288,1575 3284,1575 3283,1576 3278,1576 3277,1577 3272,1577 3271,1578 3268,1578 3267,1579 3264,1579 3263,1580 3259,1580 3258,1581 3255,1581 3254,1582 3251,1582 3250,1583 3247,1583 3246,1584 3243,1584 3242,1585 3240,1585 3239,1586 3237,1586 3236,1587 3233,1587 3232,1588 3230,1588 3229,1589 3227,1589 3226,1590 3224,1590 3223,1591 3219,1591 3218,1592 3213,1592 3212,1593 3209,1593 3208,1594 3205,1594 3204,1595 3202,1595 3201,1596 3196,1596 3195,1597 3190,1597 3189,1598 3185,1598 3184,1599 3180,1599 3179,1600 3176,1600 3175,1601 3173,1601 3172,1602 3171,1602 3170,1603 3167,1603 3166,1604 3160,1604 3159,1605 3155,1605 3154,1606 3151,1606 3150,1607 3147,1607 3146,1608 3144,1608 3143,1609 3139,1609 3138,1610 3135,1610 3134,1611 3132,1611 3131,1612 3128,1612 3127,1613 3125,1613 3124,1614 3121,1614 3120,1615 3116,1615 3115,1616 3111,1616 3110,1617 3107,1617 3106,1618 3102,1618 3101,1619 3098,1619 3097,1620 3094,1620 3093,1621 3089,1621 3088,1622 3085,1622 3084,1623 3079,1623 3078,1624 3074,1624 3073,1625 3069,1625 3068,1626 3065,1626 3064,1627 3061,1627 3060,1628 3057,1628 3056,1629 3051,1629 3050,1630 3046,1630 3045,1631 3041,1631 3040,1632 3037,1632 3036,1633 3033,1633 3032,1634 3029,1634 3028,1635 3026,1635 3025,1636 3023,1636 3022,1637 3018,1637 3017,1638 3012,1638 3011,1639 3006,1639 3005,1640 3002,1640 3001,1641 3000,1641 2999,1642 2997,1642 2996,1643 2987,1643 2986,1644 2985,1644 2984,1645 2983,1645 2981,1647 2980,1647 2976,1651 2976,1654 2975,1655 2975,1661 2974,1662 2974,1677 2973,1678 2973,1690 2974,1691 2974,1706 2973,1707 2973,1712 2974,1713 2974,1734 2975,1735 2975,1752 2974,1753 2974,1784 2975,1785 2975,1801 2974,1802 2974,1809 2975,1810 2975,1831 2976,1832 2976,1846 2975,1847 2975,1877 2976,1878 2976,1892 2975,1893 2975,1920 2976,1921 2976,1938 2977,1939 2977,1952 2976,1953 2976,1963 2975,1964 2975,1978 2976,1979 2976,2006 2975,2007 2975,2037 2976,2038 2976,2121 2975,2122 2975,2151 2974,2152 2974,2187 2973,2188 2973,2222 2974,2223 2974,2227 2975,2228 2975,2231 2976,2232 2976,2236 2975,2237 2975,2243 2974,2244 2974,2246 2973,2247 2973,2250 2972,2251 2972,2254 2971,2255 2971,2290 2970,2291 2970,2382 2969,2383 2969,2431 2968,2432 2968,2499 2969,2500 2969,2646 2970,2647 2970,2681 2971,2682 2971,2730 2970,2731 2970,2737 2971,2738 2971,2752 2970,2753 2970,2775 2969,2776 2969,2789 2970,2790 2970,2801 2971,2802 2971,2873 2970,2874 2970,2882 2971,2883 2971,2891 2970,2892 2970,2944 2971,2945 2971,2962 2972,2963 2972,2966 2973,2967 2973,2969 2974,2970 2974,2971 2976,2973 2977,2973 2978,2974 2979,2974 2980,2975 2983,2975 2984,2976 3003,2976 3004,2977 3021,2977 3022,2976 3030,2976 3031,2975 3047,2975 3048,2974 3054,2974 3055,2973 3087,2973 3088,2972 3171,2972 3172,2971 3197,2971 3198,2972 3208,2972 3209,2971 3229,2971 3230,2970 3250,2970 3251,2969 3299,2969 3300,2968 3310,2968 3311,2967 3317,2967 3318,2966 3320,2966 3321,2965 3322,2965 3323,2964 3324,2964 3325,2963 3325,2962 3327,2960 3327,2957 3328,2956 3328,2952 3329,2951 3329,2943 3328,2942 3328,2894 3327,2893 3327,2883 3328,2882 3328,2872 3327,2871 3327,2855 3328,2854 3328,2851 3327,2850 3327,2823 3326,2822 3326,2809 3327,2808 3327,2803 3326,2802 3326,2797 3325,2796 3325,2789 3326,2788 3326,2782 3327,2781 3327,2777 3326,2776 3326,2736 3327,2735 3327,2732 3326,2731 3326,2701 3325,2700 3325,2687 3326,2686 3326,2659 3325,2658 3325,2620 3326,2619 3326,2607 3325,2606 3325,2596 3326,2595 3326,2581 3325,2580 3326,2579 3326,2559 3325,2558 3325,2476 3326,2475 3326,2420 3325,2419 3325,2416 3324,2415 3324,2412 3323,2411 3323,2405 3324,2404 3324,2367 3323,2366 3323,2359 3324,2358 3324,2321 3323,2320 3323,2314 3324,2313 3324,2310 3325,2309 3325,2304 3326,2303 3326,2277 3325,2276 3325,2260 3326,2259 3326,2258 3325,2257 3325,2249 3324,2248 3324,2239 3325,2238 3325,2228 3324,2227 3324,2209 3325,2208 3325,2207 3324,2206 3324,2194 3325,2193 3325,2179 3324,2178 3324,2167 3325,2166 3325,2140 3326,2139 3326,2134 3325,2133 3325,2121 3326,2120 3326,2109 3325,2108 3325,1986 3324,1985 3324,1977 3325,1976 3325,1963 3324,1962 3324,1957 3325,1956 3325,1939 3324,1938 3324,1906 3325,1905 3325,1893 3324,1892 3324,1882 3325,1881 3325,1807 3326,1806 3326,1763 3327,1762 3327,1737 3326,1736 3326,1731 3327,1730 3327,1697 3326,1696 3326,1695 3327,1694 3327,1630 3328,1629 3328,1605 3327,1604 3327,1583 3326,1582 3326,1576 3325,1575 3325,1574 3324,1573 3324,1572 3322,1570 3321,1570 3320,1569" fill="rgba(74,202,87,0.3)" stroke="rgb(74,202,87)" stroke-width="2" data-block-id="0002" data-name="b-0005" /><text x="3164" y="2111" text-anchor="middle" dominant-baseline="middle" class="block-label" fill="rgb(74,202,87)" stroke="white" stroke-width="3" paint-order="stroke">b-0005</text><polygon points="2843,1680 2842,1681 2838,1681 2837,1682 2833,1682 2832,1683 2828,1683 2827,1684 2823,1684 2822,1685 2818,1685 2817,1686 2812,1686 2811,1687 2807,1687 2806,1688 2803,1688 2802,1689 2799,1689 2798,1690 2795,1690 2794,1691 2790,1691 2789,1692 2785,1692 2784,1693 2780,1693 2779,1694 2776,1694 2775,1695 2770,1695 2769,1696 2764,1696 2763,1697 2759,1697 2758,1698 2754,1698 2753,1699 2748,1699 2747,1700 2742,1700 2741,1701 2737,1701 2736,1702 2732,1702 2731,1703 2728,1703 2727,1704 2724,1704 2723,1705 2719,1705 2718,1706 2714,1706 2713,1707 2711,1707 2710,1708 2708,1708 2707,1709 2705,1709 2704,1710 2702,1710 2701,1711 2698,1711 2697,1712 2694,1712 2693,1713 2691,1713 2690,1714 2688,1714 2687,1715 2685,1715 2684,1716 2681,1716 2680,1717 2677,1717 2676,1718 2672,1718 2671,1719 2668,1719 2667,1720 2664,1720 2663,1721 2660,1721 2659,1722 2656,1722 2655,1723 2651,1723 2650,1724 2647,1724 2646,1725 2641,1725 2640,1726 2637,1726 2636,1727 2632,1727 2631,1728 2628,1728 2627,1729 2625,1729 2624,1730 2623,1730 2622,1731 2621,1731 2620,1732 2619,1732 2618,1733 2617,1733 2616,1734 2614,1734 2613,1735 2612,1735 2611,1736 2608,1736 2607,1737 2605,1737 2604,1738 2602,1738 2601,1739 2598,1739 2597,1740 2595,1740 2594,1741 2591,1741 2590,1742 2588,1742 2587,1743 2585,1743 2584,1744 2581,1744 2580,1745 2573,1745 2572,1746 2568,1746 2567,1747 2563,1747 2562,1748 2559,1748 2558,1749 2555,1749 2554,1750 2550,1750 2549,1751 2547,1751 2546,1752 2543,1752 2542,1753 2541,1753 2540,1754 2539,1754 2538,1755 2537,1755 2536,1756 2534,1756 2533,1757 2532,1757 2530,1759 2529,1759 2528,1760 2528,1761 2527,1762 2527,1763 2526,1764 2526,1765 2525,1766 2525,1788 2524,1789 2524,1800 2525,1801 2525,1858 2524,1859 2524,1864 2525,1865 2525,1885 2524,1886 2524,1920 2525,1921 2525,1925 2524,1926 2524,2191 2523,2192 2523,2290 2522,2291 2522,2294 2523,2295 2523,2312 2522,2313 2522,2373 2523,2374 2523,2706 2522,2707 2522,2717 2523,2718 2523,2723 2522,2724 2522,2742 2523,2743 2523,2746 2522,2747 2522,2814 2523,2815 2523,2816 2522,2817 2522,2868 2521,2869 2521,2948 2522,2949 2522,2950 2521,2951 2521,2959 2522,2960 2522,2966 2523,2967 2523,2969 2524,2970 2524,2971 2526,2973 2528,2973 2529,2974 2533,2974 2534,2975 2536,2975 2537,2974 2551,2974 2552,2973 2563,2973 2564,2972 2573,2972 2574,2971 2582,2971 2583,2970 2588,2970 2589,2969 2594,2969 2595,2968 2601,2968 2602,2967 2612,2967 2613,2966 2631,2966 2632,2967 2635,2967 2636,2968 2639,2968 2640,2969 2658,2969 2659,2970 2666,2970 2667,2971 2698,2971 2699,2972 2716,2972 2717,2973 2741,2973 2742,2974 2787,2974 2788,2975 2839,2975 2840,2976 2844,2976 2845,2975 2849,2975 2850,2974 2852,2974 2856,2970 2856,2969 2857,2968 2857,2966 2858,2965 2858,2962 2859,2961 2859,2737 2860,2736 2860,2728 2859,2727 2859,2708 2860,2707 2860,2683 2859,2682 2859,2598 2858,2597 2858,2470 2859,2469 2859,2444 2858,2443 2858,2330 2859,2329 2859,2313 2858,2312 2858,2306 2857,2305 2857,2291 2858,2290 2858,2176 2857,2175 2857,2171 2858,2170 2858,2151 2857,2150 2857,2130 2858,2129 2858,2119 2857,2118 2857,2109 2858,2108 2858,1976 2857,1975 2857,1969 2858,1968 2858,1929 2857,1928 2857,1919 2858,1918 2858,1900 2857,1899 2857,1865 2858,1864 2858,1862 2857,1861 2857,1735 2856,1734 2856,1729 2857,1728 2857,1718 2856,1717 2856,1711 2855,1710 2855,1698 2854,1697 2854,1692 2853,1691 2853,1688 2852,1687 2852,1685 2849,1682 2848,1682 2847,1681 2844,1681" fill="rgba(116,99,103,0.3)" stroke="rgb(116,99,103)" stroke-width="2" data-block-id="0003" data-name="b-0006" /><text x="2684" y="2111" text-anchor="middle" dominant-baseline="middle" class="block-label" fill="rgb(116,99,103)" stroke="white" stroke-width="3" paint-order="stroke">b-0006</text><polygon points="1935,1891 1934,1892 1932,1892 1931,1893 1928,1893 1927,1894 1922,1894 1921,1893 1913,1893 1912,1894 1910,1894 1909,1895 1908,1895 1907,1896 1906,1896 1903,1899 1902,1899 1901,1900 1892,1900 1886,1906 1885,1906 1884,1907 1882,1907 1881,1908 1877,1908 1876,1909 1855,1909 1854,1910 1850,1910 1849,1911 1846,1911 1845,1912 1841,1912 1840,1913 1837,1913 1836,1914 1832,1914 1831,1915 1826,1915 1825,1916 1820,1916 1819,1917 1816,1917 1815,1918 1812,1918 1811,1919 1807,1919 1806,1920 1803,1920 1802,1921 1799,1921 1798,1922 1796,1922 1795,1923 1792,1923 1791,1924 1787,1924 1786,1925 1783,1925 1782,1926 1780,1926 1779,1927 1776,1927 1775,1928 1770,1928 1769,1929 1765,1929 1764,1930 1760,1930 1759,1931 1756,1931 1755,1932 1751,1932 1750,1933 1744,1933 1743,1934 1739,1934 1738,1935 1733,1935 1732,1936 1728,1936 1727,1937 1722,1937 1721,1938 1717,1938 1716,1939 1712,1939 1711,1940 1708,1940 1707,1941 1703,1941 1702,1942 1699,1942 1698,1943 1694,1943 1693,1944 1689,1944 1688,1945 1685,1945 1684,1946 1683,1946 1682,1947 1681,1947 1680,1948 1678,1948 1676,1950 1661,1950 1660,1951 1658,1951 1657,1952 1654,1952 1653,1953 1650,1953 1649,1954 1641,1954 1640,1955 1635,1955 1634,1956 1629,1956 1628,1957 1625,1957 1624,1958 1622,1958 1621,1959 1619,1959 1618,1960 1616,1960 1615,1961 1612,1961 1611,1962 1607,1962 1606,1963 1603,1963 1602,1964 1600,1964 1599,1965 1597,1965 1596,1966 1595,1966 1594,1967 1593,1967 1592,1968 1591,1968 1589,1970 1589,1971 1588,1972 1588,1976 1587,1977 1587,1983 1586,1984 1586,2015 1585,2016 1585,2098 1586,2099 1586,2134 1585,2135 1585,2143 1586,2144 1586,2198 1585,2199 1585,2265 1584,2266 1584,2267 1585,2268 1585,2273 1586,2274 1586,2278 1587,2279 1587,2290 1588,2291 1587,2292 1587,2297 1586,2298 1586,2301 1585,2302 1585,2305 1584,2306 1584,2308 1583,2309 1583,2312 1582,2313 1582,2325 1583,2326 1583,2333 1582,2334 1582,2340 1583,2341 1583,2344 1584,2345 1584,2347 1585,2348 1585,2349 1586,2350 1586,2352 1587,2353 1587,2358 1588,2359 1588,2369 1587,2370 1587,2373 1586,2374 1586,2386 1585,2387 1585,2389 1584,2390 1584,2391 1583,2392 1583,2393 1582,2394 1582,2398 1581,2399 1581,2420 1580,2421 1580,2439 1581,2440 1581,2457 1580,2458 1580,2487 1581,2488 1581,2534 1580,2535 1580,2598 1579,2599 1579,2616 1578,2617 1578,2631 1579,2632 1579,2638 1580,2639 1580,2641 1579,2642 1579,2653 1580,2654 1580,2703 1581,2704 1581,2728 1582,2729 1582,2737 1581,2738 1581,2754 1582,2755 1582,2784 1581,2785 1581,2796 1582,2797 1582,2824 1583,2825 1583,2835 1582,2836 1582,2844 1583,2845 1583,2862 1582,2863 1582,2871 1583,2872 1583,2877 1582,2878 1582,2931 1581,2932 1581,2958 1582,2959 1582,2964 1583,2965 1583,2966 1586,2969 1587,2969 1588,2970 1589,2970 1590,2971 1600,2971 1601,2972 1642,2972 1643,2971 1661,2971 1662,2972 1689,2972 1690,2973 1720,2973 1721,2972 1748,2972 1749,2973 1768,2973 1769,2972 1772,2972 1773,2973 1803,2973 1804,2974 1817,2974 1818,2975 1845,2975 1846,2976 1861,2976 1862,2975 1871,2975 1872,2976 1883,2976 1884,2975 1894,2975 1895,2976 1931,2976 1932,2975 1935,2975 1936,2974 1938,2974 1939,2973 1943,2973 1944,2972 1946,2972 1947,2971 1948,2971 1949,2970 1949,2967 1950,2966 1950,2963 1951,2962 1951,2955 1950,2954 1950,2948 1949,2947 1949,2943 1948,2942 1948,2939 1947,2938 1947,2936 1946,2935 1946,2934 1945,2933 1945,2930 1944,2929 1944,2925 1943,2924 1943,2915 1942,2914 1942,2911 1943,2910 1943,2905 1944,2904 1944,2883 1943,2882 1943,2857 1944,2856 1944,2847 1945,2846 1945,2831 1944,2830 1944,2826 1945,2825 1945,2813 1946,2812 1946,2806 1947,2805 1947,2802 1948,2801 1948,2798 1949,2797 1949,2794 1950,2793 1950,2792 1949,2791 1949,2788 1948,2787 1948,2784 1947,2783 1947,2781 1948,2780 1948,2778 1949,2777 1949,2776 1950,2775 1950,2774 1951,2773 1951,2728 1950,2727 1950,2724 1949,2723 1949,2720 1950,2719 1950,2716 1951,2715 1951,2705 1950,2704 1950,2702 1949,2701 1949,2700 1948,2699 1948,2697 1947,2696 1947,2694 1946,2693 1946,2690 1945,2689 1945,2681 1946,2680 1946,2677 1947,2676 1947,2655 1946,2654 1946,2646 1945,2645 1945,2631 1946,2630 1946,2625 1947,2624 1947,2618 1948,2617 1948,2606 1949,2605 1949,2587 1950,2586 1950,2583 1951,2582 1951,2566 1952,2565 1952,2557 1953,2556 1953,2516 1952,2515 1952,2509 1951,2508 1951,2502 1950,2501 1950,2496 1949,2495 1949,2467 1950,2466 1950,2452 1949,2451 1949,2442 1950,2441 1950,2420 1951,2419 1951,2403 1950,2402 1950,2392 1951,2391 1951,2374 1952,2373 1952,2369 1953,2368 1953,2366 1954,2365 1954,2344 1955,2343 1955,2328 1954,2327 1954,2324 1953,2323 1953,2321 1952,2320 1952,2319 1951,2318 1951,2316 1944,2309 1943,2309 1938,2304 1938,2301 1939,2300 1939,2296 1940,2295 1940,2283 1941,2282 1941,2261 1942,2260 1942,2227 1941,2226 1941,2198 1942,2197 1942,2175 1941,2174 1941,2171 1942,2170 1942,2128 1941,2127 1941,2116 1942,2115 1942,2090 1943,2089 1943,2036 1942,2035 1942,2005 1943,2004 1943,1988 1942,1987 1942,1977 1943,1976 1943,1949 1944,1948 1944,1947 1943,1946 1943,1938 1942,1937 1942,1933 1943,1932 1943,1928 1944,1927 1944,1915 1943,1914 1943,1907 1942,1906 1942,1901 1941,1900 1941,1897 1940,1896 1940,1895 1939,1894 1939,1893 1938,1892 1937,1892 1936,1891" fill="rgba(235,157,37,0.3)" stroke="rgb(235,157,37)" stroke-width="2" data-block-id="0004" data-name="b-0009" /><text x="1791" y="2375" text-anchor="middle" dominant-baseline="middle" class="block-label" fill="rgb(235,157,37)" stroke="white" stroke-width="3" paint-order="stroke">b-0009</text><polygon points="981,2089 980,2090 976,2090 975,2091 968,2091 967,2092 960,2092 959,2093 957,2093 956,2094 954,2094 953,2095 951,2095 950,2096 946,2096 945,2097 940,2097 939,2098 935,2098 934,2099 933,2099 932,2100 931,2100 929,2102 928,2102 925,2105 924,2105 923,2106 922,2106 921,2107 919,2107 918,2108 914,2108 913,2109 910,2109 909,2110 907,2110 906,2111 905,2111 903,2113 902,2113 901,2114 900,2114 899,2115 896,2115 895,2116 891,2116 890,2117 887,2117 886,2118 884,2118 883,2119 880,2119 879,2120 876,2120 875,2121 872,2121 871,2122 869,2122 868,2123 866,2123 865,2124 863,2124 862,2125 859,2125 858,2126 855,2126 854,2127 851,2127 850,2128 846,2128 845,2129 839,2129 838,2130 834,2130 833,2131 828,2131 827,2132 821,2132 820,2133 816,2133 815,2134 803,2134 802,2135 799,2135 798,2136 796,2136 795,2137 793,2137 792,2138 790,2138 789,2139 786,2139 785,2140 780,2140 779,2141 772,2141 771,2142 768,2142 767,2143 764,2143 763,2144 759,2144 758,2145 755,2145 754,2146 752,2146 751,2147 750,2147 749,2148 747,2148 746,2149 745,2149 744,2150 740,2150 739,2151 736,2151 735,2152 731,2152 730,2153 725,2153 724,2154 717,2154 716,2155 710,2155 709,2156 704,2156 703,2157 699,2157 698,2158 694,2158 693,2159 690,2159 689,2160 686,2160 685,2161 681,2161 680,2162 677,2162 676,2163 673,2163 672,2164 670,2164 669,2165 666,2165 665,2166 661,2166 660,2167 656,2167 655,2168 651,2168 650,2169 648,2169 646,2171 645,2171 643,2173 642,2173 639,2176 638,2176 636,2178 635,2178 633,2180 633,2181 631,2183 631,2192 632,2193 632,2200 631,2201 631,2206 630,2207 630,2217 631,2218 631,2221 630,2222 630,2229 629,2230 629,2240 630,2241 630,2247 629,2248 629,2311 628,2312 628,2353 627,2354 627,2364 626,2365 626,2379 625,2380 625,2403 626,2404 626,2417 625,2418 625,2429 624,2430 624,2442 623,2443 623,2451 624,2452 624,2463 623,2464 623,2469 622,2470 622,2475 623,2476 623,2486 622,2487 622,2493 621,2494 621,2498 622,2499 622,2509 621,2510 621,2518 620,2519 620,2557 619,2558 619,2567 618,2568 618,2577 619,2578 619,2607 618,2608 618,2718 617,2719 617,2727 618,2728 618,2737 617,2738 617,2767 616,2768 616,2789 617,2790 617,2806 616,2807 616,2816 615,2817 615,2844 614,2845 614,2864 613,2865 613,2873 612,2874 612,2880 613,2881 613,2913 612,2914 612,2922 611,2923 611,2926 612,2927 612,2953 611,2954 611,2959 612,2960 612,2963 613,2964 613,2965 617,2969 618,2969 619,2970 620,2970 621,2971 622,2971 623,2972 648,2972 649,2973 680,2973 681,2974 689,2974 690,2973 701,2973 702,2974 754,2974 755,2975 758,2975 759,2974 764,2974 765,2973 782,2973 783,2972 787,2972 788,2971 797,2971 798,2972 802,2972 803,2973 806,2973 807,2972 812,2972 813,2971 934,2971 935,2972 954,2972 955,2971 974,2971 975,2970 976,2970 977,2969 978,2969 980,2967 980,2966 982,2964 982,2962 983,2961 983,2899 984,2898 984,2872 985,2871 985,2823 986,2822 986,2790 987,2789 987,2727 988,2726 988,2677 989,2676 989,2647 990,2646 990,2619 991,2618 991,2584 992,2583 992,2552 991,2551 991,2545 990,2544 990,2541 991,2540 991,2533 992,2532 992,2525 991,2524 991,2517 992,2516 992,2509 993,2508 993,2502 992,2501 992,2492 993,2491 993,2483 994,2482 994,2470 995,2469 995,2467 996,2466 996,2465 997,2464 997,2462 998,2461 998,2457 997,2456 997,2452 996,2451 996,2448 995,2447 995,2436 994,2435 994,2410 993,2409 993,2404 992,2403 992,2393 993,2392 993,2382 992,2381 992,2369 993,2368 993,2359 992,2358 992,2347 991,2346 991,2329 992,2328 992,2323 993,2322 993,2314 994,2313 994,2293 995,2292 995,2287 996,2286 996,2279 997,2278 997,2271 998,2270 998,2269 997,2268 997,2262 996,2261 996,2257 995,2256 995,2254 996,2253 996,2223 997,2222 997,2220 996,2219 996,2213 995,2212 995,2205 996,2204 996,2184 997,2183 997,2178 998,2177 998,2168 997,2167 997,2152 998,2151 998,2124 997,2123 997,2097 996,2096 996,2092 994,2090 992,2090 991,2089" fill="rgba(235,88,48,0.3)" stroke="rgb(235,88,48)" stroke-width="2" data-block-id="0005" data-name="b-0013" /><text x="815" y="2399" text-anchor="middle" dominant-baseline="middle" class="block-label" fill="rgb(235,88,48)" stroke="white" stroke-width="3" paint-order="stroke">b-0013</text><polygon points="4470,1696 4469,1697 4440,1697 4439,1698 4437,1698 4436,1699 4436,1700 4435,1701 4435,1702 4434,1703 4434,1704 4433,1705 4433,1710 4432,1711 4432,1728 4433,1729 4433,1735 4432,1736 4432,1744 4431,1745 4431,1747 4432,1748 4432,1758 4431,1759 4431,1773 4432,1774 4432,1787 4431,1788 4431,1811 4430,1812 4430,1817 4431,1818 4431,1825 4432,1826 4432,1829 4431,1830 4431,1840 4430,1841 4431,1842 4431,1853 4430,1854 4430,1867 4431,1868 4431,1883 4430,1884 4430,1919 4431,1920 4431,1927 4430,1928 4430,1955 4429,1956 4429,1958 4430,1959 4430,1968 4431,1969 4431,1972 4430,1973 4430,1997 4429,1998 4429,2010 4430,2011 4430,2028 4429,2029 4429,2038 4430,2039 4430,2041 4429,2042 4429,2058 4430,2059 4430,2095 4429,2096 4429,2104 4430,2105 4430,2112 4431,2113 4431,2115 4430,2116 4430,2156 4431,2157 4431,2169 4430,2170 4430,2178 4431,2179 4431,2189 4430,2190 4430,2201 4431,2202 4431,2230 4432,2231 4432,2234 4431,2235 4431,2249 4432,2250 4432,2287 4431,2288 4431,2295 4432,2296 4432,2304 4433,2305 4433,2306 4432,2307 4432,2337 4431,2338 4431,2340 4432,2341 4432,2347 4433,2348 4433,2364 4432,2365 4433,2366 4433,2382 4432,2383 4432,2390 4433,2391 4433,2396 4434,2397 4434,2442 4435,2443 4435,2492 4436,2493 4436,2502 4435,2503 4435,2511 4436,2512 4436,2523 4435,2524 4435,2533 4436,2534 4436,2605 4437,2606 4437,2617 4436,2618 4436,2631 4437,2632 4437,2717 4436,2718 4436,2725 4437,2726 4437,2798 4438,2799 4438,2871 4439,2872 4439,2925 4440,2926 4440,2951 4441,2952 4441,2954 4442,2955 4442,2956 4445,2959 4446,2959 4447,2960 4448,2960 4449,2961 4452,2961 4453,2962 4486,2962 4487,2961 4503,2961 4504,2962 4512,2962 4513,2961 4522,2961 4523,2960 4526,2960 4527,2959 4528,2959 4530,2957 4530,2955 4531,2954 4531,2948 4532,2947 4532,2927 4531,2926 4531,2921 4532,2920 4532,2903 4531,2902 4531,2898 4532,2897 4532,2882 4531,2881 4531,2870 4532,2869 4532,2861 4531,2860 4531,2783 4530,2782 4531,2781 4531,2723 4532,2722 4532,2720 4531,2719 4531,2692 4530,2691 4530,2682 4531,2681 4531,2664 4530,2663 4530,2657 4531,2656 4531,2648 4530,2647 4530,2633 4531,2632 4531,2619 4530,2618 4530,2584 4531,2583 4531,2571 4530,2570 4530,2538 4531,2537 4531,2521 4530,2520 4530,2499 4529,2498 4529,2493 4530,2492 4530,2471 4529,2470 4529,2469 4530,2468 4530,2450 4529,2449 4529,2448 4530,2447 4530,2428 4529,2427 4529,2406 4528,2405 4528,2398 4529,2397 4529,2379 4528,2378 4528,2343 4529,2342 4529,2339 4528,2338 4528,2316 4527,2315 4527,2299 4528,2298 4528,2287 4527,2286 4527,2271 4528,2270 4528,2256 4529,2255 4529,2252 4530,2251 4530,2249 4532,2247 4532,2246 4535,2243 4535,2242 4538,2239 4540,2239 4541,2238 4576,2238 4577,2239 4598,2239 4602,2243 4602,2244 4606,2248 4607,2248 4608,2247 4609,2247 4609,2245 4610,2244 4610,2232 4611,2231 4611,2227 4612,2226 4612,2222 4610,2220 4599,2220 4598,2221 4587,2221 4586,2220 4585,2221 4582,2221 4581,2222 4580,2222 4575,2227 4574,2227 4573,2228 4570,2228 4569,2229 4559,2229 4558,2230 4553,2230 4552,2231 4545,2231 4544,2230 4539,2230 4538,2229 4537,2229 4534,2226 4534,2225 4533,2224 4533,2222 4530,2219 4530,2218 4529,2217 4529,2216 4528,2215 4528,2213 4527,2212 4527,2182 4526,2181 4526,2140 4525,2139 4525,2116 4524,2115 4524,2113 4525,2112 4525,2044 4524,2043 4524,2035 4525,2034 4525,2029 4524,2028 4524,2012 4525,2011 4525,2002 4524,2001 4524,1952 4523,1951 4523,1938 4524,1937 4524,1931 4523,1930 4523,1919 4524,1918 4524,1903 4523,1902 4523,1895 4524,1894 4524,1804 4523,1803 4523,1802 4524,1801 4524,1761 4523,1760 4523,1748 4524,1747 4524,1737 4523,1736 4523,1731 4524,1730 4524,1714 4523,1713 4523,1708 4522,1707 4522,1703 4521,1702 4521,1700 4520,1699 4520,1698 4519,1698 4518,1697 4516,1697 4515,1696" fill="rgba(189,174,189,0.3)" stroke="rgb(189,174,189)" stroke-width="2" data-block-id="0006" data-name="b-0017" /><text x="4493" y="2269" text-anchor="middle" dominant-baseline="middle" class="block-label" fill="rgb(189,174,189)" stroke="white" stroke-width="3" paint-order="stroke">b-0017</text><polygon points="4673,1694 4672,1695 4638,1695 4637,1696 4633,1696 4632,1697 4631,1697 4630,1698 4630,1701 4629,1702 4629,1708 4628,1709 4628,1713 4627,1714 4627,1719 4626,1720 4626,1723 4627,1724 4627,1736 4628,1737 4628,1755 4627,1756 4627,1760 4626,1761 4626,1768 4625,1769 4625,1770 4626,1771 4626,1788 4627,1789 4627,1807 4626,1808 4626,1813 4625,1814 4625,1823 4626,1824 4626,1845 4627,1846 4627,1854 4626,1855 4626,1860 4625,1861 4625,1870 4626,1871 4626,1901 4625,1902 4625,1907 4624,1908 4624,1915 4625,1916 4625,1927 4626,1928 4626,1943 4625,1944 4625,1954 4624,1955 4624,1967 4625,1968 4625,1979 4626,1980 4626,1993 4625,1994 4625,2001 4624,2002 4624,2016 4625,2017 4625,2025 4626,2026 4626,2049 4625,2050 4625,2056 4626,2057 4626,2061 4627,2062 4627,2068 4628,2069 4628,2074 4629,2075 4629,2090 4628,2091 4628,2096 4627,2097 4627,2116 4628,2117 4628,2123 4629,2124 4629,2131 4628,2132 4628,2142 4627,2143 4627,2169 4628,2170 4628,2176 4629,2177 4629,2179 4630,2180 4630,2181 4631,2182 4631,2183 4632,2184 4632,2185 4633,2186 4633,2188 4632,2189 4632,2197 4631,2198 4631,2203 4630,2204 4630,2214 4631,2215 4631,2219 4632,2220 4632,2225 4633,2226 4633,2248 4632,2249 4632,2253 4631,2254 4631,2259 4632,2260 4632,2262 4633,2263 4633,2266 4634,2267 4633,2268 4633,2271 4632,2272 4632,2273 4631,2274 4631,2275 4630,2276 4630,2278 4629,2279 4629,2281 4628,2282 4628,2309 4629,2310 4629,2326 4628,2327 4628,2335 4627,2336 4627,2342 4628,2343 4628,2351 4629,2352 4629,2358 4630,2359 4630,2364 4631,2365 4631,2381 4630,2382 4630,2403 4631,2404 4631,2409 4632,2410 4632,2418 4631,2419 4631,2425 4630,2426 4630,2428 4629,2429 4629,2431 4628,2432 4628,2459 4629,2460 4629,2465 4630,2466 4630,2468 4631,2469 4631,2474 4630,2475 4630,2477 4629,2478 4629,2482 4628,2483 4628,2486 4629,2487 4629,2513 4628,2514 4628,2516 4627,2517 4627,2518 4624,2521 4624,2530 4625,2531 4625,2533 4626,2534 4626,2535 4627,2536 4627,2538 4628,2539 4628,2541 4629,2542 4629,2547 4628,2548 4628,2564 4627,2565 4627,2566 4625,2568 4625,2569 4624,2570 4624,2573 4623,2574 4623,2580 4624,2581 4624,2582 4625,2583 4625,2585 4626,2586 4626,2588 4627,2589 4627,2606 4628,2607 4628,2608 4629,2609 4629,2610 4631,2612 4631,2617 4630,2618 4630,2619 4629,2620 4629,2621 4628,2622 4628,2629 4629,2630 4629,2631 4630,2632 4630,2633 4631,2634 4631,2635 4632,2636 4632,2643 4631,2644 4631,2647 4630,2648 4630,2649 4631,2650 4631,2653 4632,2654 4632,2656 4633,2657 4633,2658 4634,2659 4634,2664 4633,2665 4633,2666 4632,2667 4632,2668 4631,2669 4631,2670 4630,2671 4630,2677 4631,2678 4631,2679 4632,2680 4632,2682 4633,2683 4633,2689 4632,2690 4632,2692 4631,2693 4631,2695 4630,2696 4630,2699 4631,2700 4631,2703 4632,2704 4632,2707 4633,2708 4633,2711 4632,2712 4632,2713 4631,2714 4631,2716 4630,2717 4630,2719 4629,2720 4629,2721 4630,2722 4630,2724 4631,2725 4631,2726 4632,2727 4632,2728 4634,2730 4634,2731 4635,2732 4635,2735 4634,2736 4634,2738 4633,2739 4633,2741 4632,2742 4632,2748 4633,2749 4633,2751 4634,2752 4634,2755 4635,2756 4635,2759 4634,2760 4634,2765 4633,2766 4633,2769 4634,2770 4634,2771 4639,2776 4641,2776 4642,2777 4644,2777 4645,2778 4647,2778 4648,2779 4651,2779 4652,2780 4656,2780 4657,2781 4691,2781 4692,2780 4706,2780 4707,2781 4718,2781 4719,2780 4725,2780 4726,2779 4731,2779 4732,2778 4737,2778 4738,2777 4739,2777 4740,2776 4741,2776 4742,2775 4742,2774 4744,2772 4744,2771 4745,2770 4745,2753 4746,2752 4746,2737 4745,2736 4745,2704 4746,2703 4746,2694 4745,2693 4745,2634 4744,2633 4744,2592 4743,2591 4743,2560 4744,2559 4744,2549 4743,2548 4743,2494 4742,2493 4742,2468 4743,2467 4743,2453 4742,2452 4742,2421 4743,2420 4743,2413 4744,2412 4744,2406 4743,2405 4743,2350 4742,2349 4742,2292 4741,2291 4741,2246 4740,2245 4740,2223 4741,2222 4740,2221 4740,2165 4739,2164 4739,2157 4740,2156 4740,2120 4739,2119 4739,2077 4738,2076 4738,2058 4739,2057 4739,2045 4738,2044 4738,2041 4739,2040 4739,2026 4738,2025 4738,1977 4737,1976 4737,1963 4738,1962 4738,1930 4737,1929 4737,1918 4738,1917 4738,1911 4739,1910 4739,1909 4738,1908 4738,1882 4737,1881 4737,1877 4736,1876 4736,1874 4737,1873 4737,1867 4738,1866 4738,1840 4737,1839 4737,1834 4736,1833 4736,1821 4737,1820 4737,1797 4738,1796 4738,1791 4737,1790 4737,1786 4736,1785 4736,1773 4737,1772 4737,1759 4736,1758 4736,1749 4737,1748 4737,1745 4736,1744 4736,1740 4735,1739 4735,1735 4734,1734 4734,1725 4735,1724 4735,1715 4734,1714 4734,1708 4733,1707 4733,1706 4732,1705 4732,1704 4731,1703 4731,1702 4729,1700 4729,1699 4726,1696 4724,1696 4723,1695 4720,1695 4719,1694" fill="rgba(189,174,189,0.3)" stroke="rgb(189,174,189)" stroke-width="2" data-block-id="0007" data-name="b-0018" /><text x="4661" y="2295" text-anchor="middle" dominant-baseline="middle" class="block-label" fill="rgb(189,174,189)" stroke="white" stroke-width="3" paint-order="stroke">b-0018</text><polygon points="2141,2993 2141,2807 2029,2803 2032,3000" fill="rgba(102,179,92,0.3)" stroke="rgb(102,179,92)" stroke-width="2" data-block-id="0008" data-name="b-0028" /><text x="2085" y="2900" text-anchor="middle" dominant-baseline="middle" class="block-label" fill="rgb(102,179,92)" stroke="white" stroke-width="3" paint-order="stroke">b-0028</text><polygon points="1461,1998 1460,1999 1456,1999 1455,2000 1452,2000 1451,2001 1447,2001 1446,2002 1442,2002 1441,2003 1436,2003 1435,2004 1429,2004 1428,2005 1423,2005 1422,2006 1418,2006 1417,2007 1414,2007 1413,2008 1411,2008 1410,2009 1407,2009 1406,2010 1403,2010 1402,2011 1395,2011 1394,2012 1390,2012 1389,2013 1386,2013 1385,2014 1379,2014 1378,2015 1375,2015 1374,2016 1371,2016 1370,2017 1369,2017 1368,2018 1365,2018 1364,2019 1361,2019 1360,2020 1357,2020 1356,2021 1352,2021 1351,2022 1347,2022 1346,2023 1343,2023 1342,2024 1335,2024 1334,2025 1329,2025 1328,2026 1325,2026 1324,2027 1320,2027 1319,2028 1314,2028 1313,2029 1309,2029 1308,2030 1304,2030 1303,2031 1298,2031 1297,2032 1293,2032 1292,2033 1288,2033 1287,2034 1284,2034 1283,2035 1279,2035 1278,2036 1272,2036 1271,2037 1267,2037 1266,2038 1262,2038 1261,2039 1259,2039 1258,2040 1256,2040 1255,2041 1254,2041 1253,2042 1251,2042 1250,2043 1248,2043 1247,2044 1243,2044 1242,2045 1236,2045 1235,2046 1231,2046 1230,2047 1226,2047 1225,2048 1220,2048 1219,2049 1216,2049 1215,2050 1212,2050 1211,2051 1209,2051 1208,2052 1206,2052 1205,2053 1203,2053 1202,2054 1201,2054 1200,2055 1199,2055 1197,2057 1194,2057 1193,2058 1188,2058 1187,2059 1183,2059 1182,2060 1179,2060 1178,2061 1175,2061 1174,2062 1162,2062 1161,2063 1159,2063 1158,2064 1157,2064 1152,2069 1151,2069 1150,2070 1148,2070 1147,2069 1146,2069 1145,2068 1144,2068 1143,2067 1135,2067 1134,2068 1132,2068 1131,2069 1128,2069 1127,2070 1125,2070 1124,2071 1123,2071 1122,2072 1120,2072 1119,2073 1117,2073 1116,2074 1115,2074 1114,2075 1113,2075 1111,2077 1111,2078 1110,2079 1110,2082 1111,2083 1111,2108 1110,2109 1110,2124 1111,2125 1111,2127 1112,2128 1112,2129 1113,2130 1113,2131 1115,2133 1115,2134 1117,2136 1117,2138 1116,2139 1116,2140 1107,2149 1107,2158 1108,2159 1108,2163 1107,2164 1107,2176 1108,2177 1108,2179 1109,2180 1109,2191 1108,2192 1108,2195 1107,2196 1107,2217 1106,2218 1106,2227 1107,2228 1107,2231 1106,2232 1106,2234 1105,2235 1105,2236 1104,2237 1104,2240 1103,2241 1103,2253 1104,2254 1104,2260 1103,2261 1103,2372 1102,2373 1102,2408 1101,2409 1101,2415 1102,2416 1102,2427 1101,2428 1101,2480 1100,2481 1100,2487 1101,2488 1101,2513 1100,2514 1100,2540 1101,2541 1101,2545 1100,2546 1100,2571 1099,2572 1099,2621 1098,2622 1098,2638 1099,2639 1099,2650 1098,2651 1098,2660 1097,2661 1097,2706 1096,2707 1096,2755 1095,2756 1095,2820 1094,2821 1094,2867 1093,2868 1093,2916 1092,2917 1092,2952 1091,2953 1091,2959 1092,2960 1092,2963 1093,2964 1093,2966 1095,2968 1095,2969 1097,2971 1098,2971 1099,2972 1100,2972 1101,2973 1102,2973 1103,2974 1133,2974 1134,2973 1223,2973 1224,2974 1285,2974 1286,2975 1413,2975 1414,2976 1454,2976 1455,2975 1460,2975 1464,2971 1464,2969 1465,2968 1465,2965 1466,2964 1466,2912 1467,2911 1467,2833 1468,2832 1468,2816 1469,2815 1469,2813 1468,2812 1468,2780 1469,2779 1469,2714 1468,2713 1468,2686 1469,2685 1469,2681 1470,2680 1470,2678 1471,2677 1471,2676 1472,2675 1472,2672 1471,2671 1471,2668 1470,2667 1470,2648 1471,2647 1471,2634 1472,2633 1472,2620 1471,2619 1471,2613 1470,2612 1470,2607 1469,2606 1469,2588 1470,2587 1470,2582 1471,2581 1471,2575 1470,2574 1470,2570 1469,2569 1469,2560 1470,2559 1470,2539 1471,2538 1471,2528 1470,2527 1470,2522 1469,2521 1469,2517 1470,2516 1470,2488 1471,2487 1471,2473 1470,2472 1470,2444 1471,2443 1471,2338 1472,2337 1472,2321 1471,2320 1471,2285 1472,2284 1472,2269 1471,2268 1471,2258 1472,2257 1472,2247 1473,2246 1473,2236 1474,2235 1474,2225 1473,2224 1473,2208 1474,2207 1474,2195 1475,2194 1475,2180 1474,2179 1474,2164 1475,2163 1475,2131 1474,2130 1474,2118 1475,2117 1475,2080 1476,2079 1476,2007 1475,2006 1475,2003 1474,2002 1474,2001 1472,1999 1467,1999 1466,1998" fill="rgba(129,191,187,0.3)" stroke="rgb(129,191,187)" stroke-width="2" data-block-id="0009" data-name="b-0010" /><text x="1282" y="2299" text-anchor="middle" dominant-baseline="middle" class="block-label" fill="rgb(129,191,187)" stroke="white" stroke-width="3" paint-order="stroke">b-0010</text><polygon points="3897,1497 3986,1495 3992,1696 3893,1702" fill="rgba(102,179,92,0.3)" stroke="rgb(102,179,92)" stroke-width="2" data-block-id="0010" data-name="b-0010" /><text x="3942" y="1597" text-anchor="middle" dominant-baseline="middle" class="block-label" fill="rgb(102,179,92)" stroke="white" stroke-width="3" paint-order="stroke">b-0010</text><polygon points="3903,2782 3981,2779 3990,2985 3910,2988" fill="rgba(102,179,92,0.3)" stroke="rgb(102,179,92)" stroke-width="2" data-block-id="0011" data-name="b-0011" /><text x="3946" y="2883" text-anchor="middle" dominant-baseline="middle" class="block-label" fill="rgb(102,179,92)" stroke="white" stroke-width="3" paint-order="stroke">b-0011</text></g>
</svg>