<?xml version='1.0' encoding='utf-8'?>
<svg xmlns="http://www.w3.org/2000/svg" xmlns:atlas="http://example.com/atlas" width="4984" height="3232" viewBox="0 0 4984 3232">
  
  <metadata>
    <atlas:source>
      <atlas:jp2-path>/Users/pwright/workspace/atlas/media/v2/p26.jp2</atlas:jp2-path>
      <atlas:volume>unknown</atlas:volume>
      <atlas:plate-id>p26</atlas:plate-id>
      <atlas:image-width>4984</atlas:image-width>
      <atlas:image-height>3232</atlas:image-height>
    <atlas:angle>0.0</atlas:angle><atlas:scale>1.3847958570922765</atlas:scale><atlas:pos-x>1909.2596314567902</atlas:pos-x><atlas:pos-y>1488.2961871086354</atlas:pos-y></atlas:source>
  </metadata>

  
  <image id="background" href="file:///Users/pwright/workspace/atlas/media/v2/p26.jp2" width="4984" height="3232" opacity="0.5" />

  <style>
    .block-label { font-family: sans-serif; font-size: 14px; font-weight: bold; }
  </style>

  
  <g id="blocks">
    <polygon points="3802,2497 3801,2498 3758,2498 3757,2499 3743,2499 3742,2498 3698,2498 3697,2499 3655,2499 3654,2498 3651,2498 3650,2499 3642,2499 3641,2500 3637,2500 3636,2501 3633,2501 3632,2502 3625,2502 3624,2501 3608,2501 3607,2500 3579,2500 3578,2499 3529,2499 3528,2500 3510,2500 3509,2501 3502,2501 3501,2502 3493,2502 3492,2503 3491,2502 3478,2502 3477,2501 3471,2501 3470,2502 3425,2502 3424,2503 3400,2503 3399,2502 3389,2502 3388,2503 3373,2503 3372,2502 3356,2502 3355,2501 3339,2501 3338,2500 3315,2500 3314,2501 3285,2501 3284,2500 3281,2500 3280,2501 3272,2501 3271,2502 3266,2502 3265,2503 3247,2503 3246,2502 3242,2502 3241,2503 3237,2503 3236,2504 3234,2504 3233,2505 3230,2505 3229,2506 3226,2506 3225,2507 3215,2507 3214,2506 3207,2506 3206,2505 3198,2505 3197,2506 3188,2506 3187,2507 3173,2507 3172,2506 3111,2506 3110,2507 3099,2507 3098,2506 3079,2506 3078,2507 3071,2507 3070,2508 3020,2508 3019,2507 3013,2507 3012,2506 3001,2506 3000,2507 2994,2507 2993,2508 2983,2508 2982,2509 2947,2509 2946,2510 2925,2510 2924,2511 2918,2511 2917,2512 2913,2512 2912,2513 2888,2513 2887,2512 2878,2512 2877,2511 2869,2511 2868,2510 2807,2510 2806,2509 2792,2509 2791,2508 2775,2508 2774,2507 2753,2507 2752,2508 2749,2508 2748,2509 2743,2509 2742,2510 2736,2510 2735,2511 2686,2511 2685,2512 2646,2512 2645,2513 2616,2513 2615,2512 2603,2512 2602,2511 2593,2511 2592,2512 2519,2512 2518,2513 2513,2513 2512,2514 2508,2514 2507,2515 2505,2515 2504,2516 2503,2516 2499,2520 2499,2521 2498,2522 2498,2525 2497,2526 2497,2536 2496,2537 2496,2579 2495,2580 2495,2604 2496,2605 2496,2615 2497,2616 2497,2621 2496,2622 2496,2635 2495,2636 2495,2655 2496,2656 2496,2685 2497,2686 2497,2735 2496,2736 2496,2738 2497,2739 2497,2765 2498,2766 2498,2791 2497,2792 2497,2814 2496,2815 2496,2841 2497,2842 2497,2849 2498,2850 2498,2854 2499,2855 2499,2857 2500,2858 2500,2859 2503,2862 2504,2862 2505,2863 2522,2863 2523,2864 2527,2864 2528,2865 2531,2865 2532,2866 2534,2866 2535,2867 2536,2867 2537,2868 2539,2868 2540,2869 2573,2869 2574,2870 2608,2870 2609,2869 2679,2869 2680,2868 2686,2868 2687,2867 2693,2867 2694,2866 2699,2866 2700,2865 2705,2865 2706,2864 2711,2864 2712,2863 2720,2863 2721,2862 2730,2862 2731,2861 2740,2861 2741,2860 2754,2860 2755,2859 2799,2859 2800,2858 2848,2858 2849,2857 2855,2857 2856,2858 2895,2858 2896,2857 2901,2857 2902,2856 2906,2856 2907,2855 2951,2855 2952,2856 3073,2856 3074,2857 3081,2857 3082,2858 3107,2858 3108,2859 3125,2859 3126,2860 3171,2860 3172,2859 3178,2859 3179,2858 3218,2858 3219,2857 3253,2857 3254,2856 3272,2856 3273,2857 3287,2857 3288,2856 3301,2856 3302,2857 3307,2857 3308,2858 3312,2858 3313,2859 3316,2859 3317,2860 3383,2860 3384,2861 3405,2861 3406,2860 3414,2860 3415,2859 3426,2859 3427,2858 3465,2858 3466,2859 3476,2859 3477,2860 3483,2860 3484,2859 3502,2859 3503,2858 3515,2858 3516,2857 3542,2857 3543,2856 3583,2856 3584,2855 3615,2855 3616,2854 3623,2854 3624,2853 3626,2853 3627,2852 3631,2852 3632,2851 3638,2851 3639,2852 3654,2852 3655,2851 3664,2851 3665,2850 3673,2850 3674,2851 3681,2851 3682,2852 3690,2852 3691,2853 3699,2853 3700,2854 3752,2854 3753,2853 3795,2853 3796,2852 3823,2852 3824,2851 3834,2851 3835,2850 3842,2850 3843,2849 3872,2849 3873,2848 3914,2848 3915,2847 3926,2847 3927,2846 3933,2846 3934,2845 3942,2845 3943,2844 3945,2844 3946,2845 3972,2845 3973,2844 3983,2844 3984,2843 3993,2843 3994,2842 4126,2842 4127,2841 4133,2841 4134,2840 4138,2840 4139,2839 4141,2839 4142,2838 4143,2838 4144,2837 4145,2837 4146,2836 4147,2836 4151,2832 4151,2831 4152,2830 4152,2815 4153,2814 4153,2809 4154,2808 4154,2804 4155,2803 4155,2800 4156,2799 4156,2795 4157,2794 4157,2776 4158,2775 4158,2770 4159,2769 4159,2763 4160,2762 4160,2749 4159,2748 4159,2743 4158,2742 4158,2738 4157,2737 4157,2733 4156,2732 4156,2725 4155,2724 4155,2696 4156,2695 4156,2691 4157,2690 4157,2687 4158,2686 4158,2682 4159,2681 4159,2678 4160,2677 4160,2675 4161,2674 4161,2672 4162,2671 4162,2668 4163,2667 4163,2664 4164,2663 4164,2656 4165,2655 4165,2654 4164,2653 4164,2637 4163,2636 4163,2625 4162,2624 4162,2610 4161,2609 4161,2591 4162,2590 4162,2572 4161,2571 4161,2523 4160,2522 4160,2516 4159,2515 4159,2511 4158,2510 4158,2508 4156,2506 4156,2505 4155,2504 4151,2504 4150,2503 4136,2503 4135,2502 4116,2502 4115,2501 4074,2501 4073,2500 4050,2500 4049,2501 4015,2501 4014,2500 3989,2500 3988,2499 3965,2499 3964,2500 3954,2500 3953,2499 3916,2499 3915,2500 3908,2500 3907,2501 3899,2501 3898,2500 3890,2500 3889,2499 3867,2499 3866,2500 3861,2500 3860,2499 3829,2499 3828,2498 3811,2498 3810,2497" fill="rgba(14,106,71,0.3)" stroke="rgb(14,106,71)" stroke-width="2" data-block-id="0001" data-name="b-0002" /><text x="3376" y="2676" text-anchor="middle" dominant-baseline="middle" class="block-label" fill="rgb(14,106,71)" stroke="white" stroke-width="3" paint-order="stroke">b-0002</text><polygon points="3304,2034 3303,2035 3300,2035 3299,2036 3296,2036 3295,2037 3292,2037 3291,2038 3287,2038 3286,2037 3282,2037 3281,2036 3276,2036 3275,2037 3274,2037 3273,2038 3267,2038 3266,2039 3253,2039 3252,2040 3249,2040 3248,2041 3245,2041 3244,2042 3239,2042 3238,2041 3236,2041 3235,2040 3232,2040 3231,2039 3228,2039 3227,2038 3222,2038 3221,2037 3203,2037 3202,2038 3174,2038 3173,2039 3143,2039 3142,2038 3133,2038 3132,2039 3120,2039 3119,2040 3093,2040 3092,2041 3082,2041 3081,2040 3075,2040 3074,2039 3073,2039 3072,2038 3070,2038 3069,2037 3068,2037 3067,2036 3065,2036 3064,2035 3055,2035 3054,2036 3047,2036 3046,2037 3023,2037 3022,2038 3011,2038 3010,2039 3005,2039 3004,2040 2978,2040 2977,2041 2971,2041 2970,2042 2966,2042 2965,2041 2950,2041 2949,2040 2937,2040 2936,2039 2933,2039 2932,2038 2900,2038 2899,2039 2897,2039 2896,2038 2888,2038 2887,2037 2882,2037 2881,2038 2852,2038 2851,2039 2847,2039 2846,2038 2834,2038 2833,2039 2823,2039 2822,2038 2819,2038 2818,2037 2807,2037 2806,2038 2778,2038 2777,2039 2763,2039 2762,2040 2759,2040 2758,2041 2750,2041 2749,2040 2716,2040 2715,2041 2705,2041 2704,2040 2696,2040 2695,2039 2693,2039 2692,2040 2681,2040 2680,2041 2675,2041 2674,2042 2654,2042 2653,2041 2645,2041 2644,2042 2641,2042 2640,2043 2634,2043 2633,2042 2631,2042 2630,2041 2627,2041 2626,2040 2621,2040 2620,2041 2616,2041 2615,2042 2609,2042 2608,2041 2605,2041 2604,2040 2595,2040 2594,2041 2567,2041 2566,2042 2563,2042 2562,2041 2523,2041 2522,2042 2505,2042 2504,2043 2502,2043 2501,2044 2500,2044 2499,2045 2499,2046 2498,2047 2498,2058 2497,2059 2497,2061 2496,2062 2496,2064 2495,2065 2495,2069 2494,2070 2494,2087 2495,2088 2495,2099 2494,2100 2494,2113 2495,2114 2495,2118 2494,2119 2494,2229 2495,2230 2495,2255 2494,2256 2494,2272 2493,2273 2493,2309 2494,2310 2494,2330 2495,2331 2495,2347 2496,2348 2496,2354 2497,2355 2497,2364 2498,2365 2498,2375 2499,2376 2499,2380 2498,2381 2498,2387 2497,2388 2497,2389 2498,2390 2498,2391 2501,2394 2502,2394 2504,2396 2506,2396 2507,2397 2509,2397 2510,2398 2513,2398 2514,2399 2525,2399 2526,2398 2558,2398 2559,2399 2586,2399 2587,2400 2590,2400 2591,2399 2621,2399 2622,2398 2625,2398 2626,2399 2641,2399 2642,2398 2645,2398 2646,2397 2651,2397 2652,2398 2685,2398 2686,2397 2706,2397 2707,2398 2712,2398 2713,2397 2721,2397 2722,2398 2743,2398 2744,2397 2749,2397 2750,2396 2755,2396 2756,2395 2757,2396 2776,2396 2777,2395 2799,2395 2800,2396 2805,2396 2806,2395 2823,2395 2824,2396 2827,2396 2828,2395 2841,2395 2842,2394 2858,2394 2859,2395 2868,2395 2869,2396 2887,2396 2888,2395 2894,2395 2895,2394 2901,2394 2902,2395 2941,2395 2942,2396 2969,2396 2970,2395 2987,2395 2988,2394 2994,2394 2995,2395 3029,2395 3030,2396 3036,2396 3037,2397 3056,2397 3057,2396 3060,2396 3061,2395 3070,2395 3071,2396 3084,2396 3085,2395 3093,2395 3094,2394 3103,2394 3104,2395 3110,2395 3111,2396 3113,2396 3114,2395 3124,2395 3125,2394 3155,2394 3156,2395 3160,2395 3161,2394 3169,2394 3170,2393 3209,2393 3210,2392 3223,2392 3224,2393 3232,2393 3233,2392 3251,2392 3252,2393 3256,2393 3257,2392 3302,2392 3303,2391 3317,2391 3318,2392 3325,2392 3326,2393 3340,2393 3341,2392 3345,2392 3346,2391 3349,2391 3350,2390 3353,2390 3354,2389 3357,2389 3358,2388 3363,2388 3364,2389 3368,2389 3369,2390 3398,2390 3399,2391 3416,2391 3417,2390 3450,2390 3451,2391 3458,2391 3459,2390 3462,2390 3463,2389 3468,2389 3469,2388 3493,2388 3494,2387 3496,2387 3497,2386 3499,2386 3500,2385 3501,2385 3502,2384 3503,2385 3505,2385 3507,2387 3508,2387 3510,2389 3511,2389 3512,2390 3515,2390 3516,2391 3519,2391 3520,2390 3527,2390 3528,2389 3533,2389 3534,2388 3537,2388 3538,2387 3553,2387 3554,2388 3558,2388 3559,2389 3565,2389 3566,2390 3577,2390 3578,2389 3580,2389 3581,2388 3585,2388 3586,2387 3606,2387 3607,2386 3633,2386 3634,2387 3653,2387 3654,2388 3672,2388 3673,2387 3676,2387 3677,2386 3680,2386 3681,2385 3685,2385 3686,2384 3689,2384 3690,2383 3698,2383 3699,2384 3701,2384 3702,2385 3745,2385 3746,2386 3794,2386 3795,2385 3821,2385 3822,2384 3827,2384 3828,2385 3843,2385 3844,2384 3880,2384 3881,2385 3886,2385 3887,2384 3894,2384 3895,2383 3992,2383 3993,2382 4013,2382 4014,2381 4024,2381 4025,2382 4046,2382 4047,2381 4057,2381 4058,2382 4109,2382 4110,2383 4124,2383 4125,2382 4145,2382 4146,2381 4148,2381 4152,2377 4152,2370 4153,2369 4153,2362 4152,2361 4152,2347 4153,2346 4153,2342 4152,2341 4152,2336 4151,2335 4151,2329 4152,2328 4152,2326 4153,2325 4153,2323 4154,2322 4154,2308 4153,2307 4153,2304 4152,2303 4152,2302 4151,2301 4151,2299 4150,2298 4150,2297 4149,2296 4149,2293 4148,2292 4148,2288 4147,2287 4147,2281 4148,2280 4148,2278 4149,2277 4149,2275 4150,2274 4150,2269 4151,2268 4151,2247 4150,2246 4150,2241 4149,2240 4149,2231 4150,2230 4150,2224 4151,2223 4151,2209 4152,2208 4152,2202 4153,2201 4153,2199 4152,2198 4152,2184 4153,2183 4153,2181 4154,2180 4154,2176 4155,2175 4155,2146 4154,2145 4154,2141 4155,2140 4155,2139 4156,2138 4156,2137 4158,2135 4158,2134 4160,2132 4160,2131 4161,2130 4161,2128 4159,2126 4159,2125 4157,2123 4157,2122 4155,2120 4155,2119 4154,2118 4154,2117 4153,2116 4153,2114 4152,2113 4152,2111 4151,2110 4151,2109 4149,2107 4149,2106 4146,2103 4146,2102 4142,2098 4141,2098 4140,2097 4138,2097 4137,2096 4135,2096 4133,2094 4133,2091 4134,2090 4134,2089 4135,2088 4145,2088 4146,2087 4147,2087 4148,2086 4148,2085 4150,2083 4150,2081 4151,2080 4151,2070 4150,2069 4150,2067 4149,2066 4149,2065 4147,2063 4147,2062 4146,2062 4144,2060 4138,2060 4137,2061 4135,2061 4134,2060 4134,2059 4133,2058 4133,2055 4134,2054 4134,2051 4135,2050 4137,2052 4138,2052 4139,2053 4141,2053 4142,2054 4144,2054 4147,2051 4147,2048 4148,2047 4147,2046 4147,2044 4145,2044 4144,2043 4143,2043 4142,2044 4139,2044 4137,2046 4136,2046 4135,2047 4130,2042 4129,2042 4128,2041 4127,2041 4126,2040 4124,2040 4123,2039 4119,2039 4118,2040 4113,2040 4112,2041 4080,2041 4079,2040 4070,2040 4069,2041 4037,2041 4036,2040 4025,2040 4024,2041 4017,2041 4016,2042 4009,2042 4008,2041 3992,2041 3991,2040 3986,2040 3985,2039 3981,2039 3980,2038 3964,2038 3963,2039 3958,2039 3957,2040 3945,2040 3944,2039 3934,2039 3933,2038 3930,2038 3929,2039 3919,2039 3918,2040 3894,2040 3893,2039 3890,2039 3889,2038 3877,2038 3876,2039 3872,2039 3871,2040 3869,2040 3868,2039 3859,2039 3858,2040 3855,2040 3854,2041 3851,2041 3850,2042 3849,2042 3848,2041 3846,2041 3845,2040 3843,2040 3842,2039 3818,2039 3817,2040 3798,2040 3797,2039 3772,2039 3771,2040 3751,2040 3750,2039 3743,2039 3742,2038 3739,2038 3738,2039 3709,2039 3708,2040 3704,2040 3703,2039 3694,2039 3693,2038 3680,2038 3679,2039 3676,2039 3675,2040 3671,2040 3670,2041 3664,2041 3663,2040 3654,2040 3653,2039 3620,2039 3619,2040 3592,2040 3591,2041 3574,2041 3573,2042 3568,2042 3567,2043 3564,2043 3563,2042 3561,2042 3560,2041 3559,2041 3558,2040 3556,2040 3555,2039 3543,2039 3542,2040 3533,2040 3532,2041 3520,2041 3519,2040 3514,2040 3513,2039 3509,2039 3508,2038 3492,2038 3491,2039 3486,2039 3485,2040 3482,2040 3481,2041 3469,2041 3468,2040 3464,2040 3463,2039 3460,2039 3459,2038 3448,2038 3447,2037 3446,2037 3445,2038 3441,2038 3440,2039 3438,2039 3437,2040 3422,2040 3421,2039 3418,2039 3417,2038 3415,2038 3414,2037 3412,2037 3411,2036 3409,2036 3408,2035 3389,2035 3388,2036 3384,2036 3383,2035 3377,2035 3376,2034 3369,2034 3368,2035 3363,2035 3362,2036 3352,2036 3351,2035 3350,2035 3349,2036 3340,2036 3339,2037 3332,2037 3331,2038 3324,2038 3323,2037 3321,2037 3320,2036 3319,2036 3318,2035 3316,2035 3315,2034" fill="rgba(188,20,102,0.3)" stroke="rgb(188,20,102)" stroke-width="2" data-block-id="0002" data-name="b-0003" /><text x="3422" y="2183" text-anchor="middle" dominant-baseline="middle" class="block-label" fill="rgb(188,20,102)" stroke="white" stroke-width="3" paint-order="stroke">b-0003</text><polygon points="3193,1567 3192,1568 3187,1568 3186,1569 3182,1569 3181,1570 3179,1570 3178,1571 3176,1571 3175,1572 3165,1572 3164,1573 3129,1573 3128,1574 3120,1574 3119,1573 3117,1573 3116,1572 3113,1572 3112,1571 3108,1571 3107,1570 3102,1570 3101,1569 3098,1569 3097,1570 3089,1570 3088,1571 3079,1571 3078,1572 3073,1572 3072,1571 3066,1571 3065,1570 3064,1571 3062,1571 3061,1572 3059,1572 3058,1573 3057,1573 3056,1574 3054,1574 3053,1575 3036,1575 3035,1576 3014,1576 3013,1575 3009,1575 3008,1574 2998,1574 2997,1575 2989,1575 2988,1574 2973,1574 2972,1573 2932,1573 2931,1572 2927,1572 2926,1571 2918,1571 2917,1572 2914,1572 2913,1573 2908,1573 2907,1574 2901,1574 2900,1575 2898,1575 2897,1574 2895,1574 2894,1573 2893,1573 2892,1572 2890,1572 2889,1571 2888,1571 2887,1570 2881,1570 2880,1571 2873,1571 2872,1572 2864,1572 2863,1573 2858,1573 2857,1572 2848,1572 2847,1573 2778,1573 2777,1574 2769,1574 2768,1575 2766,1575 2765,1574 2762,1574 2761,1573 2757,1573 2756,1572 2746,1572 2745,1573 2708,1573 2707,1572 2687,1572 2686,1573 2681,1573 2680,1574 2678,1574 2677,1575 2676,1575 2675,1576 2672,1576 2671,1577 2670,1577 2669,1576 2665,1576 2664,1575 2651,1575 2650,1576 2637,1576 2636,1575 2602,1575 2601,1574 2598,1574 2597,1573 2596,1573 2595,1572 2594,1572 2593,1571 2592,1571 2590,1569 2586,1569 2585,1570 2583,1570 2582,1571 2580,1571 2579,1572 2578,1572 2577,1573 2575,1573 2574,1574 2568,1574 2567,1575 2559,1575 2558,1576 2543,1576 2542,1575 2538,1575 2537,1576 2526,1576 2525,1575 2509,1575 2508,1576 2504,1576 2503,1577 2501,1577 2497,1581 2497,1582 2496,1583 2496,1584 2497,1585 2497,1614 2496,1615 2496,1633 2497,1634 2497,1648 2496,1649 2496,1669 2497,1670 2497,1681 2496,1682 2496,1694 2495,1695 2495,1706 2496,1707 2496,1717 2495,1718 2495,1731 2496,1732 2496,1752 2495,1753 2495,1763 2494,1764 2494,1782 2495,1783 2495,1791 2496,1792 2496,1825 2497,1826 2497,1848 2498,1849 2498,1854 2499,1855 2499,1858 2498,1859 2498,1887 2499,1888 2499,1902 2498,1903 2498,1916 2502,1920 2503,1920 2504,1921 2505,1921 2506,1922 2507,1922 2508,1923 2510,1923 2511,1924 2512,1924 2513,1925 2515,1925 2516,1926 2542,1926 2543,1925 2590,1925 2591,1924 2598,1924 2599,1923 2603,1923 2604,1924 2620,1924 2621,1923 2630,1923 2631,1924 2681,1924 2682,1925 2686,1925 2687,1924 2702,1924 2703,1925 2711,1925 2712,1924 2742,1924 2743,1923 2749,1923 2750,1922 2760,1922 2761,1923 2767,1923 2768,1924 2769,1923 2786,1923 2787,1922 2792,1922 2793,1923 2797,1923 2798,1924 2828,1924 2829,1925 2837,1925 2838,1926 2845,1926 2846,1927 2852,1927 2853,1926 2857,1926 2858,1925 2865,1925 2866,1924 2887,1924 2888,1923 2891,1923 2892,1922 2907,1922 2908,1923 2914,1923 2915,1924 2944,1924 2945,1925 2978,1925 2979,1924 2980,1925 3033,1925 3034,1926 3050,1926 3051,1925 3091,1925 3092,1924 3128,1924 3129,1923 3144,1923 3145,1922 3146,1923 3156,1923 3157,1924 3174,1924 3175,1923 3185,1923 3186,1922 3191,1922 3192,1921 3215,1921 3216,1920 3224,1920 3225,1921 3235,1921 3236,1920 3244,1920 3245,1921 3289,1921 3290,1920 3320,1920 3321,1921 3327,1921 3328,1922 3332,1922 3333,1923 3340,1923 3341,1922 3346,1922 3347,1921 3426,1921 3427,1920 3451,1920 3452,1919 3459,1919 3460,1920 3489,1920 3490,1919 3511,1919 3512,1920 3522,1920 3523,1919 3531,1919 3532,1920 3548,1920 3549,1919 3553,1919 3554,1920 3568,1920 3569,1919 3575,1919 3576,1918 3577,1918 3578,1919 3627,1919 3628,1920 3640,1920 3641,1919 3656,1919 3657,1920 3662,1920 3663,1919 3675,1919 3676,1920 3685,1920 3686,1919 3705,1919 3706,1920 3707,1920 3708,1919 3722,1919 3723,1920 3734,1920 3735,1919 3746,1919 3747,1920 3783,1920 3784,1919 3792,1919 3793,1920 3817,1920 3818,1919 3825,1919 3826,1918 3829,1918 3830,1917 3833,1917 3834,1916 3852,1916 3853,1915 3864,1915 3865,1914 3870,1914 3871,1913 3874,1913 3875,1914 3891,1914 3892,1913 3900,1913 3901,1912 3904,1912 3905,1911 3909,1911 3910,1910 3916,1910 3917,1909 3922,1909 3923,1910 3928,1910 3929,1911 3935,1911 3936,1912 3941,1912 3942,1913 3962,1913 3963,1912 3963,1911 3965,1909 3965,1908 3966,1907 3967,1907 3969,1905 3971,1905 3972,1906 3977,1906 3979,1908 3979,1910 3980,1911 3980,1912 3981,1913 3983,1913 3984,1914 3986,1914 3987,1915 3991,1915 3992,1916 3993,1915 3999,1915 4000,1914 4006,1914 4007,1915 4011,1915 4012,1916 4018,1916 4019,1915 4028,1915 4029,1914 4067,1914 4068,1915 4074,1915 4075,1916 4090,1916 4091,1915 4098,1915 4099,1914 4105,1914 4106,1913 4118,1913 4119,1912 4132,1912 4133,1913 4145,1913 4148,1910 4148,1909 4149,1908 4149,1907 4152,1904 4152,1902 4153,1901 4153,1885 4154,1884 4154,1876 4155,1875 4155,1867 4156,1866 4156,1854 4155,1853 4155,1849 4154,1848 4154,1847 4153,1846 4153,1844 4152,1843 4152,1841 4153,1840 4153,1837 4154,1836 4154,1827 4153,1826 4153,1824 4152,1823 4152,1820 4151,1819 4151,1810 4150,1809 4150,1797 4151,1796 4151,1792 4152,1791 4152,1789 4153,1788 4153,1782 4152,1781 4152,1780 4151,1779 4151,1778 4150,1777 4150,1775 4149,1774 4149,1769 4150,1768 4150,1763 4151,1762 4151,1757 4152,1756 4152,1754 4153,1753 4153,1752 4159,1746 4159,1745 4161,1743 4161,1742 4162,1741 4162,1740 4163,1739 4163,1738 4164,1737 4164,1736 4165,1735 4165,1734 4167,1732 4167,1731 4168,1730 4168,1713 4167,1712 4167,1711 4166,1711 4164,1709 4164,1708 4163,1707 4163,1706 4162,1705 4162,1702 4160,1700 4160,1699 4156,1695 4156,1694 4152,1690 4152,1688 4162,1678 4162,1674 4161,1673 4161,1670 4160,1669 4160,1659 4161,1658 4161,1639 4160,1638 4160,1635 4159,1634 4159,1632 4158,1631 4158,1628 4159,1627 4159,1626 4160,1625 4160,1622 4161,1621 4161,1612 4160,1611 4160,1606 4159,1605 4159,1602 4158,1601 4158,1598 4157,1597 4157,1594 4156,1593 4156,1592 4154,1590 4154,1589 4153,1588 4153,1587 4152,1586 4152,1584 4150,1582 4150,1581 4149,1580 4148,1580 4147,1579 4145,1579 4144,1578 4132,1578 4131,1577 4105,1577 4104,1578 4093,1578 4092,1577 4065,1577 4064,1576 4060,1576 4059,1577 4046,1577 4045,1576 4036,1576 4035,1577 4030,1577 4029,1578 4022,1578 4021,1577 3991,1577 3990,1576 3984,1576 3983,1575 3964,1575 3963,1576 3958,1576 3957,1577 3934,1577 3933,1576 3917,1576 3916,1575 3910,1575 3909,1574 3908,1575 3901,1575 3900,1576 3897,1576 3896,1577 3879,1577 3878,1576 3843,1576 3842,1577 3836,1577 3835,1578 3834,1577 3822,1577 3821,1576 3812,1576 3811,1575 3800,1575 3799,1576 3792,1576 3791,1577 3788,1577 3787,1576 3785,1576 3784,1575 3782,1575 3781,1574 3779,1574 3778,1573 3771,1573 3770,1574 3752,1574 3751,1575 3747,1575 3746,1576 3744,1576 3743,1577 3738,1577 3737,1576 3734,1576 3733,1575 3703,1575 3702,1576 3643,1576 3642,1575 3625,1575 3624,1576 3596,1576 3595,1575 3580,1575 3579,1574 3572,1574 3571,1573 3562,1573 3561,1572 3558,1572 3557,1571 3554,1571 3553,1570 3529,1570 3528,1569 3521,1569 3520,1570 3514,1570 3513,1571 3512,1571 3511,1572 3510,1572 3509,1573 3508,1573 3507,1574 3506,1574 3505,1575 3498,1575 3497,1574 3480,1574 3479,1575 3462,1575 3461,1576 3452,1576 3451,1575 3446,1575 3445,1574 3435,1574 3434,1575 3433,1574 3413,1574 3412,1575 3406,1575 3405,1574 3398,1574 3397,1573 3364,1573 3363,1574 3359,1574 3358,1573 3337,1573 3336,1572 3334,1572 3333,1571 3332,1571 3331,1570 3329,1570 3328,1569 3327,1569 3326,1568 3322,1568 3321,1569 3316,1569 3315,1570 3311,1570 3310,1569 3294,1569 3293,1570 3276,1570 3274,1572 3273,1572 3272,1573 3271,1573 3270,1574 3269,1574 3268,1575 3264,1575 3263,1574 3262,1574 3261,1573 3260,1573 3259,1572 3258,1572 3256,1570 3248,1570 3247,1571 3224,1571 3223,1570 3203,1570 3202,1569 3199,1569 3198,1568 3194,1568" fill="rgba(121,210,214,0.3)" stroke="rgb(121,210,214)" stroke-width="2" data-block-id="0003" data-name="b-0004" /><text x="3414" y="1724" text-anchor="middle" dominant-baseline="middle" class="block-label" fill="rgb(121,210,214)" stroke="white" stroke-width="3" paint-order="stroke">b-0004</text><polygon points="1633,625 1632,626 1631,626 1630,627 1628,627 1627,628 1626,628 1625,629 1618,629 1617,628 1615,628 1614,627 1608,627 1607,628 1605,628 1604,629 1602,629 1601,630 1596,630 1595,629 1593,629 1592,628 1590,628 1589,627 1586,627 1585,628 1584,628 1583,629 1581,629 1580,630 1577,630 1576,631 1574,631 1573,630 1570,630 1569,629 1567,629 1566,628 1559,628 1558,629 1556,629 1555,630 1553,630 1551,632 1550,632 1549,633 1548,633 1546,635 1545,635 1544,636 1542,636 1541,637 1532,637 1531,638 1529,638 1528,637 1523,637 1522,636 1520,636 1519,635 1511,635 1510,636 1506,636 1505,637 1502,637 1501,636 1497,636 1496,635 1488,635 1487,636 1483,636 1482,637 1478,637 1477,636 1474,636 1473,635 1462,635 1461,636 1451,636 1450,635 1446,635 1445,634 1443,634 1442,635 1436,635 1435,636 1431,636 1430,635 1427,635 1426,634 1414,634 1413,635 1402,635 1401,634 1394,634 1393,635 1388,635 1387,636 1383,636 1382,635 1378,635 1377,634 1368,634 1367,635 1354,635 1353,634 1344,634 1343,635 1334,635 1333,634 1328,634 1327,633 1322,633 1321,634 1307,634 1306,633 1296,633 1295,634 1285,634 1284,633 1281,633 1280,632 1273,632 1272,633 1263,633 1262,632 1259,632 1258,631 1250,631 1249,632 1246,632 1245,633 1232,633 1231,634 1226,634 1225,635 1223,635 1222,636 1221,636 1220,637 1219,637 1217,639 1217,640 1216,641 1216,642 1215,643 1215,645 1214,646 1214,650 1215,651 1215,653 1216,654 1216,656 1217,657 1217,659 1218,660 1218,662 1219,663 1219,665 1220,666 1220,668 1221,669 1221,672 1222,673 1222,675 1223,676 1223,680 1224,681 1224,685 1225,686 1225,692 1226,693 1226,698 1227,699 1227,702 1228,703 1228,705 1229,706 1229,708 1230,709 1230,710 1232,712 1232,713 1233,714 1233,715 1234,716 1234,717 1235,718 1235,720 1236,721 1236,729 1237,730 1237,735 1238,736 1238,740 1239,741 1239,745 1240,746 1240,750 1241,751 1241,754 1242,755 1242,758 1243,759 1243,762 1244,763 1244,765 1245,766 1245,771 1246,772 1246,777 1247,778 1247,781 1248,782 1248,784 1249,785 1249,788 1250,789 1250,791 1251,792 1251,795 1252,796 1252,797 1253,798 1253,799 1254,800 1254,802 1255,803 1255,804 1256,805 1256,807 1257,808 1257,809 1258,810 1258,812 1259,813 1259,815 1260,816 1260,823 1261,824 1261,831 1262,832 1262,836 1263,837 1263,840 1264,841 1264,843 1265,844 1265,846 1266,847 1266,848 1267,849 1267,851 1268,852 1268,853 1269,854 1269,856 1270,857 1270,859 1271,860 1271,862 1272,863 1272,865 1273,866 1273,869 1274,870 1274,872 1275,873 1275,875 1276,876 1276,879 1277,880 1277,882 1278,883 1278,885 1279,886 1279,888 1280,889 1280,890 1281,891 1281,895 1282,896 1282,900 1283,901 1283,904 1284,905 1284,907 1285,908 1285,912 1286,913 1286,918 1287,919 1287,923 1288,924 1288,927 1289,928 1289,929 1290,930 1290,932 1291,933 1291,935 1292,936 1292,938 1293,939 1293,942 1294,943 1294,945 1295,946 1295,948 1296,949 1296,951 1297,952 1297,954 1298,955 1298,958 1299,959 1299,963 1300,964 1300,966 1301,967 1301,969 1302,970 1302,972 1303,973 1303,976 1304,977 1304,980 1305,981 1305,983 1306,984 1306,986 1307,987 1307,989 1308,990 1308,992 1312,996 1319,996 1320,997 1389,997 1390,996 1524,996 1525,997 1528,997 1529,996 1536,996 1537,995 1562,995 1563,996 1591,996 1592,997 1594,997 1595,998 1598,998 1599,999 1608,999 1609,1000 1610,1000 1611,999 1617,999 1618,998 1622,998 1623,997 1634,997 1635,996 1734,996 1735,997 1757,997 1758,996 1762,996 1763,995 1769,995 1770,996 1790,996 1791,995 1802,995 1803,994 1810,994 1811,993 1829,993 1830,992 1875,992 1876,991 1946,991 1947,992 2025,992 2026,993 2032,993 2033,992 2039,992 2040,993 2047,993 2048,994 2124,994 2125,993 2128,993 2129,992 2137,992 2138,993 2141,993 2142,994 2178,994 2179,993 2210,993 2211,994 2270,994 2271,993 2280,993 2281,994 2303,994 2304,993 2308,993 2309,992 2311,992 2313,990 2313,989 2314,988 2314,986 2315,985 2315,983 2316,982 2316,980 2317,979 2317,977 2318,976 2318,972 2319,971 2319,967 2318,966 2318,961 2317,960 2317,945 2316,944 2316,906 2317,905 2317,903 2318,902 2318,900 2319,899 2319,897 2320,896 2320,881 2319,880 2319,873 2318,872 2318,864 2317,863 2317,860 2318,859 2318,847 2317,846 2317,834 2318,833 2318,828 2319,827 2319,822 2318,821 2318,807 2319,806 2319,794 2318,793 2318,788 2319,787 2319,770 2318,769 2318,768 2319,767 2319,760 2320,759 2320,751 2319,750 2319,746 2318,745 2318,739 2319,738 2319,689 2320,688 2320,676 2321,675 2321,655 2320,654 2320,648 2319,647 2319,644 2318,643 2318,641 2317,640 2317,639 2316,638 2316,637 2313,634 2311,634 2310,633 2213,633 2212,634 2077,634 2076,635 2066,635 2065,634 2064,634 2063,635 2044,635 2043,634 2035,634 2034,635 2016,635 2015,636 2003,636 2002,635 1994,635 1993,634 1989,634 1988,635 1972,635 1971,634 1959,634 1958,635 1953,635 1952,634 1938,634 1937,635 1929,635 1928,634 1887,634 1886,635 1881,635 1880,634 1840,634 1839,635 1835,635 1834,634 1822,634 1821,635 1818,635 1817,636 1813,636 1812,637 1810,637 1809,636 1801,636 1800,635 1798,635 1797,636 1787,636 1786,635 1783,635 1782,634 1779,634 1778,633 1775,633 1774,632 1773,632 1772,631 1771,631 1768,628 1767,628 1765,626 1757,626 1756,627 1747,627 1746,628 1738,628 1737,627 1734,627 1733,626 1727,626 1726,627 1724,627 1723,628 1721,628 1720,629 1711,629 1710,628 1703,628 1702,629 1698,629 1697,630 1692,630 1691,629 1688,629 1687,628 1684,628 1683,627 1676,627 1675,628 1666,628 1665,627 1657,627 1656,628 1652,628 1651,629 1644,629 1643,628 1642,628 1641,627 1640,627 1639,626 1637,626 1636,625" fill="rgba(116,99,103,0.3)" stroke="rgb(116,99,103)" stroke-width="2" data-block-id="0004" data-name="b-0006" /><text x="1621" y="765" text-anchor="middle" dominant-baseline="middle" class="block-label" fill="rgb(116,99,103)" stroke="white" stroke-width="3" paint-order="stroke">b-0006</text><polygon points="3703,635 3702,636 3695,636 3694,637 3687,637 3686,636 3682,636 3681,637 3664,637 3663,636 3648,636 3647,637 3626,637 3625,636 3594,636 3593,637 3582,637 3581,636 3556,636 3555,637 3527,637 3526,636 3505,636 3504,637 3484,637 3483,636 3461,636 3460,637 3431,637 3430,636 3408,636 3407,637 3388,637 3387,636 3365,636 3364,637 3358,637 3357,636 3346,636 3345,637 3343,637 3340,640 3340,641 3339,642 3339,645 3338,646 3338,651 3337,652 3337,656 3336,657 3336,659 3331,664 3330,664 3329,665 3326,665 3325,666 3311,666 3310,667 3309,667 3308,668 3307,668 3307,669 3306,670 3306,672 3305,673 3305,689 3306,690 3306,717 3305,718 3305,741 3306,742 3306,760 3305,761 3305,788 3306,789 3306,804 3305,805 3305,842 3306,843 3306,852 3305,853 3305,928 3306,929 3306,952 3305,953 3305,980 3306,981 3306,990 3307,991 3307,994 3308,995 3308,996 3309,997 3309,998 3310,998 3312,1000 3313,1000 3314,1001 3315,1001 3316,1002 3316,1003 3317,1004 3317,1015 3318,1016 3318,1018 3319,1019 3319,1020 3320,1021 3320,1022 3321,1023 3322,1023 3324,1025 3331,1025 3332,1024 3340,1024 3341,1023 3350,1023 3351,1022 3355,1022 3356,1021 3362,1021 3363,1022 3365,1022 3366,1023 3371,1023 3372,1024 3375,1024 3376,1025 3378,1025 3381,1028 3381,1031 3380,1032 3380,1051 3379,1052 3379,1053 3378,1054 3378,1055 3376,1057 3375,1057 3374,1058 3360,1058 3359,1059 3356,1059 3355,1060 3352,1060 3351,1061 3347,1061 3346,1060 3343,1060 3342,1059 3341,1059 3340,1058 3339,1058 3338,1057 3328,1057 3327,1058 3322,1058 3321,1059 3315,1059 3314,1060 3309,1060 3308,1061 3306,1061 3304,1063 3304,1067 3305,1068 3305,1069 3306,1070 3306,1072 3307,1073 3307,1074 3308,1075 3308,1077 3309,1078 3309,1080 3310,1081 3310,1083 3311,1084 3311,1085 3310,1086 3310,1088 3308,1090 3308,1091 3307,1092 3307,1093 3306,1094 3306,1097 3305,1098 3305,1113 3306,1114 3306,1129 3307,1130 3307,1137 3306,1138 3306,1164 3307,1165 3307,1262 3308,1263 3308,1276 3307,1277 3307,1308 3308,1309 3308,1324 3307,1325 3307,1368 3308,1369 3308,1379 3307,1380 3307,1386 3308,1387 3308,1398 3307,1399 3307,1404 3306,1405 3306,1412 3307,1413 3307,1418 3310,1421 3312,1421 3313,1422 3317,1422 3318,1423 3322,1423 3323,1424 3327,1424 3328,1425 3329,1425 3330,1426 3331,1426 3334,1429 3334,1431 3335,1432 3335,1445 3336,1446 3336,1448 3338,1450 3338,1451 3339,1452 3346,1452 3347,1453 3348,1453 3349,1452 3357,1452 3358,1451 3360,1451 3361,1452 3363,1452 3364,1453 3365,1453 3366,1454 3369,1454 3370,1455 3373,1455 3374,1456 3393,1456 3394,1455 3406,1455 3407,1456 3439,1456 3440,1455 3455,1455 3456,1456 3466,1456 3467,1457 3477,1457 3478,1456 3593,1456 3594,1455 3601,1455 3602,1456 3654,1456 3655,1457 3681,1457 3682,1456 3695,1456 3696,1457 3704,1457 3705,1458 3712,1458 3713,1457 3720,1457 3721,1458 3783,1458 3784,1457 3792,1457 3793,1458 3833,1458 3834,1457 3836,1457 3837,1458 3870,1458 3871,1459 3874,1459 3875,1458 3890,1458 3891,1459 3903,1459 3904,1458 3959,1458 3960,1457 4035,1457 4036,1458 4049,1458 4050,1457 4080,1457 4081,1458 4100,1458 4101,1457 4130,1457 4131,1456 4146,1456 4147,1455 4148,1455 4152,1451 4152,1450 4154,1448 4154,1447 4155,1446 4155,1443 4156,1442 4156,1407 4155,1406 4156,1405 4156,1393 4155,1392 4155,1375 4156,1374 4156,1369 4155,1368 4155,1244 4154,1243 4154,1239 4155,1238 4155,1221 4154,1220 4154,1211 4155,1210 4155,1203 4154,1202 4154,1186 4155,1185 4155,1177 4154,1176 4154,1161 4155,1160 4155,1156 4154,1155 4154,1094 4155,1093 4155,1090 4156,1089 4156,1086 4157,1085 4156,1084 4156,1079 4155,1078 4155,1074 4154,1073 4154,1060 4155,1059 4155,1057 4157,1055 4157,1054 4158,1053 4158,1050 4157,1049 4157,1048 4155,1046 4155,1045 4154,1044 4154,1043 4153,1042 4153,1037 4154,1036 4154,1035 4155,1034 4155,1033 4156,1032 4156,1030 4157,1029 4157,998 4156,997 4156,958 4155,957 4155,954 4156,953 4156,912 4155,911 4155,905 4156,904 4156,817 4155,816 4155,719 4154,718 4154,701 4153,700 4153,676 4152,675 4152,669 4153,668 4153,663 4154,662 4154,647 4153,646 4153,644 4152,643 4152,642 4151,641 4151,640 4149,638 4148,638 4147,637 4145,637 4144,636 4130,636 4129,637 4089,637 4088,636 4085,636 4084,637 4051,637 4050,636 4000,636 3999,635 3986,635 3985,636 3950,636 3949,635 3941,635 3940,636 3840,636 3839,637 3814,637 3813,636 3805,636 3804,635 3799,635 3798,636 3793,636 3792,637 3769,637 3768,636 3757,636 3756,635 3734,635 3733,636 3729,636 3724,641 3724,642 3723,643 3723,644 3719,648 3718,647 3716,647 3715,646 3715,645 3714,644 3714,643 3713,642 3713,641 3711,639 3711,638 3710,637 3709,637 3708,636 3706,636 3705,635" fill="rgba(151,130,149,0.3)" stroke="rgb(151,130,149)" stroke-width="2" data-block-id="0005" data-name="b-0007" /><text x="3637" y="1029" text-anchor="middle" dominant-baseline="middle" class="block-label" fill="rgb(151,130,149)" stroke="white" stroke-width="3" paint-order="stroke">b-0007</text><polygon points="1869,1106 1868,1107 1815,1107 1814,1108 1807,1108 1806,1107 1769,1107 1768,1108 1761,1108 1760,1107 1746,1107 1745,1108 1739,1108 1738,1107 1724,1107 1723,1108 1661,1108 1660,1109 1647,1109 1646,1110 1642,1110 1641,1109 1630,1109 1629,1110 1542,1110 1541,1109 1530,1109 1529,1110 1526,1110 1525,1109 1513,1109 1512,1110 1499,1110 1498,1109 1479,1109 1478,1110 1428,1110 1427,1111 1416,1111 1415,1112 1400,1112 1399,1111 1356,1111 1355,1110 1347,1110 1345,1112 1344,1112 1344,1113 1342,1115 1342,1123 1343,1124 1343,1129 1344,1130 1344,1141 1345,1142 1345,1145 1346,1146 1346,1147 1347,1148 1347,1150 1348,1151 1348,1152 1349,1153 1349,1155 1350,1156 1350,1158 1351,1159 1351,1162 1352,1163 1352,1167 1353,1168 1353,1171 1354,1172 1354,1174 1355,1175 1355,1178 1356,1179 1356,1180 1357,1181 1357,1184 1358,1185 1358,1187 1359,1188 1359,1191 1360,1192 1360,1195 1361,1196 1361,1198 1362,1199 1362,1201 1363,1202 1363,1204 1364,1205 1364,1207 1365,1208 1365,1212 1366,1213 1366,1216 1367,1217 1367,1219 1368,1220 1368,1222 1369,1223 1369,1226 1370,1227 1370,1229 1371,1230 1371,1233 1372,1234 1372,1236 1373,1237 1373,1239 1374,1240 1374,1244 1375,1245 1375,1249 1376,1250 1376,1254 1377,1255 1377,1260 1378,1261 1378,1264 1379,1265 1379,1268 1380,1269 1380,1271 1381,1272 1381,1274 1382,1275 1382,1277 1383,1278 1383,1281 1384,1282 1384,1284 1385,1285 1385,1288 1386,1289 1386,1291 1387,1292 1387,1295 1388,1296 1388,1300 1389,1301 1389,1304 1390,1305 1390,1308 1391,1309 1391,1312 1392,1313 1392,1315 1393,1316 1393,1318 1394,1319 1394,1322 1395,1323 1395,1326 1396,1327 1396,1330 1397,1331 1397,1333 1398,1334 1398,1336 1399,1337 1399,1340 1400,1341 1400,1344 1401,1345 1401,1348 1402,1349 1402,1352 1403,1353 1403,1355 1404,1356 1404,1359 1405,1360 1405,1363 1406,1364 1406,1367 1407,1368 1407,1371 1408,1372 1408,1373 1409,1374 1409,1376 1410,1377 1410,1379 1411,1380 1411,1382 1412,1383 1412,1386 1413,1387 1413,1391 1414,1392 1414,1395 1415,1396 1415,1398 1416,1399 1416,1402 1417,1403 1417,1405 1418,1406 1418,1409 1419,1410 1419,1412 1420,1413 1420,1416 1421,1417 1421,1421 1422,1422 1422,1425 1423,1426 1423,1430 1424,1431 1424,1434 1425,1435 1425,1438 1426,1439 1426,1443 1427,1444 1427,1447 1428,1448 1428,1450 1429,1451 1429,1452 1430,1453 1430,1454 1431,1455 1431,1456 1434,1459 1435,1459 1437,1461 1439,1461 1440,1462 1443,1462 1444,1463 1471,1463 1472,1464 1487,1464 1488,1463 1500,1463 1501,1464 1504,1464 1505,1463 1560,1463 1561,1462 1570,1462 1571,1463 1579,1463 1580,1462 1592,1462 1593,1463 1603,1463 1604,1462 1620,1462 1621,1463 1624,1463 1625,1462 1644,1462 1645,1463 1647,1463 1648,1462 1665,1462 1666,1463 1677,1463 1678,1462 1698,1462 1699,1461 1715,1461 1716,1462 1719,1462 1720,1461 1751,1461 1752,1460 1756,1460 1757,1461 1796,1461 1797,1460 1824,1460 1825,1461 1842,1461 1843,1460 1855,1460 1856,1461 1864,1461 1865,1460 1881,1460 1882,1461 1887,1461 1888,1460 1905,1460 1906,1461 1912,1461 1913,1460 1922,1460 1923,1461 1938,1461 1939,1460 1952,1460 1953,1461 1955,1461 1956,1460 1963,1460 1964,1459 1971,1459 1972,1460 2000,1460 2001,1461 2006,1461 2007,1460 2040,1460 2041,1461 2055,1461 2056,1460 2074,1460 2075,1459 2091,1459 2092,1460 2100,1460 2101,1459 2107,1459 2108,1458 2124,1458 2125,1459 2148,1459 2149,1458 2154,1458 2155,1457 2161,1457 2162,1458 2180,1458 2181,1457 2188,1457 2189,1458 2195,1458 2196,1457 2236,1457 2237,1458 2245,1458 2246,1457 2297,1457 2298,1456 2303,1456 2304,1455 2305,1455 2306,1454 2307,1454 2310,1451 2310,1450 2311,1449 2311,1446 2312,1445 2312,1424 2313,1423 2313,1345 2312,1344 2312,1326 2313,1325 2313,1296 2314,1295 2313,1294 2313,1285 2314,1284 2314,1281 2315,1280 2315,1278 2316,1277 2316,1274 2317,1273 2317,1266 2316,1265 2316,1259 2317,1258 2317,1253 2318,1252 2318,1232 2319,1231 2319,1228 2320,1227 2320,1225 2319,1224 2319,1221 2318,1220 2318,1218 2317,1217 2317,1212 2316,1211 2316,1181 2317,1180 2317,1162 2316,1161 2316,1137 2317,1136 2317,1124 2316,1123 2316,1117 2315,1116 2315,1115 2314,1114 2314,1113 2311,1110 2310,1110 2309,1109 2307,1109 2306,1108 2301,1108 2300,1107 2292,1107 2291,1108 2189,1108 2188,1109 2167,1109 2166,1108 2149,1108 2148,1109 2132,1109 2131,1108 2095,1108 2094,1109 2092,1109 2091,1110 2090,1110 2087,1113 2086,1113 2085,1114 2084,1114 2081,1111 2080,1111 2079,1110 2077,1110 2076,1109 2065,1109 2064,1110 2046,1110 2045,1111 2042,1111 2041,1112 2032,1112 2031,1111 2017,1111 2016,1112 2012,1112 2011,1111 1988,1111 1987,1110 1975,1110 1974,1111 1970,1111 1969,1112 1957,1112 1956,1111 1956,1110 1955,1109 1954,1109 1952,1107 1950,1107 1949,1106 1925,1106 1924,1107 1901,1107 1900,1106 1886,1106 1885,1107 1882,1107 1881,1106" fill="rgba(235,157,37,0.3)" stroke="rgb(235,157,37)" stroke-width="2" data-block-id="0006" data-name="b-0009" /><text x="1730" y="1286" text-anchor="middle" dominant-baseline="middle" class="block-label" fill="rgb(235,157,37)" stroke="white" stroke-width="3" paint-order="stroke">b-0009</text><polygon points="2052,1574 2051,1575 2044,1575 2043,1576 2040,1576 2039,1577 2035,1577 2034,1576 1994,1576 1993,1577 1989,1577 1988,1576 1964,1576 1963,1575 1953,1575 1952,1576 1905,1576 1904,1577 1880,1577 1879,1576 1869,1576 1868,1577 1864,1577 1863,1578 1844,1578 1843,1577 1804,1577 1803,1578 1797,1578 1796,1577 1753,1577 1752,1578 1739,1578 1738,1577 1710,1577 1709,1578 1689,1578 1688,1577 1680,1577 1679,1578 1663,1578 1662,1579 1655,1579 1654,1578 1614,1578 1613,1579 1594,1579 1593,1578 1566,1578 1565,1579 1546,1579 1545,1578 1484,1578 1483,1577 1481,1577 1480,1578 1477,1578 1476,1579 1475,1579 1474,1580 1473,1580 1472,1581 1471,1581 1471,1582 1470,1583 1470,1595 1471,1596 1471,1599 1472,1600 1472,1604 1473,1605 1473,1608 1474,1609 1474,1612 1475,1613 1475,1615 1476,1616 1476,1620 1477,1621 1477,1627 1478,1628 1478,1633 1479,1634 1479,1636 1480,1637 1480,1640 1481,1641 1481,1644 1482,1645 1482,1649 1483,1650 1483,1653 1484,1654 1484,1656 1485,1657 1485,1658 1486,1659 1486,1660 1487,1661 1487,1662 1488,1663 1488,1665 1489,1666 1489,1669 1490,1670 1490,1674 1491,1675 1491,1678 1492,1679 1492,1681 1493,1682 1493,1683 1494,1684 1494,1686 1495,1687 1495,1689 1496,1690 1496,1694 1497,1695 1497,1700 1498,1701 1498,1705 1499,1706 1499,1708 1500,1709 1500,1712 1501,1713 1501,1716 1502,1717 1502,1720 1503,1721 1503,1724 1504,1725 1504,1728 1505,1729 1505,1731 1506,1732 1506,1734 1507,1735 1507,1738 1508,1739 1508,1742 1509,1743 1509,1745 1510,1746 1510,1748 1511,1749 1511,1751 1512,1752 1512,1754 1513,1755 1513,1759 1514,1760 1514,1764 1515,1765 1515,1769 1516,1770 1516,1773 1517,1774 1517,1775 1518,1776 1518,1778 1519,1779 1519,1780 1520,1781 1520,1783 1521,1784 1521,1787 1522,1788 1522,1791 1523,1792 1523,1794 1524,1795 1524,1798 1525,1799 1525,1804 1526,1805 1526,1810 1527,1811 1527,1812 1528,1813 1528,1815 1529,1816 1529,1818 1530,1819 1530,1821 1531,1822 1531,1825 1532,1826 1532,1830 1533,1831 1533,1834 1534,1835 1534,1838 1535,1839 1535,1842 1536,1843 1536,1847 1537,1848 1537,1853 1538,1854 1538,1857 1539,1858 1539,1859 1540,1860 1540,1862 1541,1863 1541,1865 1542,1866 1542,1869 1543,1870 1543,1873 1544,1874 1544,1876 1545,1877 1545,1881 1546,1882 1546,1886 1547,1887 1547,1892 1548,1893 1548,1896 1549,1897 1549,1901 1550,1902 1550,1906 1551,1907 1551,1909 1552,1910 1552,1913 1553,1914 1553,1915 1554,1916 1554,1917 1562,1925 1564,1925 1565,1926 1570,1926 1571,1927 1581,1927 1582,1928 1589,1928 1590,1927 1608,1927 1609,1928 1618,1928 1619,1927 1624,1927 1625,1928 1638,1928 1639,1927 1656,1927 1657,1928 1664,1928 1665,1927 1672,1927 1673,1928 1687,1928 1688,1927 1722,1927 1723,1928 1734,1928 1735,1927 1746,1927 1747,1928 1797,1928 1798,1929 1805,1929 1806,1928 1829,1928 1830,1927 1864,1927 1865,1928 1905,1928 1906,1929 1922,1929 1923,1928 1928,1928 1929,1927 1949,1927 1950,1928 1961,1928 1962,1927 1983,1927 1984,1928 1995,1928 1996,1927 2007,1927 2008,1928 2019,1928 2020,1927 2112,1927 2113,1926 2132,1926 2133,1927 2137,1927 2138,1928 2145,1928 2146,1929 2162,1929 2163,1928 2200,1928 2201,1929 2295,1929 2296,1930 2305,1930 2306,1929 2311,1929 2312,1928 2313,1928 2313,1927 2314,1926 2314,1925 2315,1924 2315,1922 2316,1921 2316,1919 2317,1918 2317,1917 2318,1916 2318,1901 2317,1900 2317,1897 2316,1896 2316,1875 2315,1874 2315,1831 2316,1830 2316,1816 2317,1815 2317,1806 2316,1805 2316,1799 2315,1798 2315,1759 2316,1758 2316,1749 2317,1748 2317,1746 2316,1745 2316,1731 2315,1730 2315,1707 2316,1706 2316,1690 2315,1689 2315,1652 2316,1651 2316,1650 2315,1649 2315,1640 2316,1639 2316,1591 2315,1590 2315,1583 2314,1582 2314,1580 2313,1579 2313,1578 2312,1577 2311,1577 2310,1576 2255,1576 2254,1577 2250,1577 2249,1576 2136,1576 2135,1577 2128,1577 2127,1578 2121,1578 2120,1577 2116,1577 2115,1576 2112,1576 2111,1575 2053,1575" fill="rgba(129,191,187,0.3)" stroke="rgb(129,191,187)" stroke-width="2" data-block-id="0007" data-name="b-0010" /><text x="1763" y="1753" text-anchor="middle" dominant-baseline="middle" class="block-label" fill="rgb(129,191,187)" stroke="white" stroke-width="3" paint-order="stroke">b-0010</text><polygon points="870,2513 869,2514 864,2514 863,2515 857,2515 856,2516 851,2516 850,2517 848,2517 844,2521 844,2523 843,2524 843,2528 842,2529 842,2531 841,2532 841,2534 842,2535 842,2537 843,2538 843,2541 844,2542 844,2561 845,2562 845,2573 846,2574 846,2582 847,2583 847,2593 846,2594 846,2596 845,2597 845,2598 844,2599 844,2601 843,2602 843,2610 844,2611 844,2624 845,2625 845,2651 846,2652 846,2688 844,2690 844,2691 843,2692 843,2693 842,2694 842,2696 841,2697 841,2700 840,2701 840,2724 839,2725 839,2743 838,2744 838,2752 839,2753 839,2769 838,2770 838,2802 837,2803 837,2829 836,2830 836,2853 837,2854 837,2864 838,2865 838,2866 839,2867 839,2868 840,2868 841,2869 843,2869 844,2870 849,2870 850,2871 990,2871 991,2872 1095,2872 1096,2873 1254,2873 1255,2874 1274,2874 1275,2873 1283,2873 1284,2872 1288,2872 1289,2871 1299,2871 1300,2870 1301,2871 1306,2871 1307,2872 1312,2872 1313,2873 1316,2873 1317,2872 1329,2872 1330,2871 1430,2871 1431,2870 1451,2870 1452,2871 1460,2871 1461,2870 1488,2870 1489,2869 1524,2869 1525,2870 1553,2870 1554,2869 1570,2869 1571,2870 1587,2870 1588,2869 1589,2870 1603,2870 1604,2869 1637,2869 1638,2868 1639,2868 1640,2867 1641,2867 1643,2865 1643,2859 1642,2858 1642,2852 1641,2851 1641,2849 1640,2848 1640,2846 1639,2845 1639,2842 1638,2841 1638,2836 1637,2835 1637,2831 1636,2830 1636,2828 1635,2827 1635,2826 1634,2825 1634,2824 1632,2822 1632,2821 1631,2820 1631,2819 1630,2818 1630,2816 1629,2815 1629,2813 1628,2812 1628,2809 1627,2808 1627,2806 1626,2805 1626,2803 1625,2802 1625,2800 1624,2799 1624,2797 1623,2796 1623,2795 1622,2794 1622,2792 1621,2791 1621,2790 1620,2789 1620,2787 1619,2786 1619,2784 1618,2783 1618,2781 1617,2780 1617,2778 1616,2777 1616,2775 1615,2774 1615,2770 1614,2769 1614,2763 1613,2762 1613,2757 1612,2756 1612,2753 1611,2752 1611,2751 1610,2750 1610,2748 1609,2747 1609,2745 1608,2744 1608,2742 1607,2741 1607,2739 1606,2738 1606,2736 1605,2735 1605,2732 1604,2731 1604,2729 1603,2728 1603,2725 1602,2724 1602,2722 1601,2721 1601,2719 1600,2718 1600,2716 1599,2715 1599,2713 1598,2712 1598,2710 1597,2709 1597,2708 1596,2707 1596,2705 1595,2704 1595,2702 1594,2701 1594,2700 1593,2699 1593,2698 1592,2697 1592,2695 1591,2694 1591,2693 1590,2692 1590,2691 1589,2690 1589,2688 1588,2687 1588,2685 1587,2684 1587,2683 1586,2682 1586,2681 1585,2680 1585,2679 1584,2678 1584,2677 1583,2676 1583,2674 1582,2673 1582,2671 1581,2670 1581,2667 1580,2666 1580,2663 1579,2662 1579,2660 1578,2659 1578,2655 1577,2654 1577,2652 1576,2651 1576,2649 1574,2647 1574,2646 1573,2645 1573,2644 1572,2643 1572,2642 1571,2641 1571,2639 1570,2638 1570,2637 1569,2636 1569,2633 1568,2632 1568,2629 1567,2628 1567,2624 1566,2623 1566,2620 1565,2619 1565,2615 1564,2614 1564,2611 1563,2610 1563,2608 1562,2607 1562,2605 1561,2604 1561,2602 1559,2600 1559,2598 1558,2597 1558,2596 1557,2595 1557,2592 1556,2591 1556,2589 1555,2588 1555,2586 1554,2585 1554,2583 1553,2582 1553,2579 1552,2578 1552,2577 1551,2576 1551,2575 1550,2574 1550,2572 1549,2571 1549,2570 1548,2569 1548,2568 1547,2567 1547,2566 1546,2565 1546,2563 1545,2562 1545,2560 1544,2559 1544,2557 1543,2556 1543,2552 1542,2551 1542,2546 1541,2545 1541,2543 1539,2541 1539,2540 1536,2537 1536,2536 1535,2535 1535,2534 1534,2533 1534,2532 1533,2531 1533,2530 1532,2529 1532,2527 1531,2526 1531,2525 1530,2524 1530,2522 1528,2520 1527,2520 1526,2519 1524,2519 1523,2518 1519,2518 1518,2517 1465,2517 1464,2516 1454,2516 1453,2517 1447,2517 1446,2518 1441,2518 1440,2517 1427,2517 1426,2516 1404,2516 1403,2517 1392,2517 1391,2516 1366,2516 1365,2515 1355,2515 1354,2516 1348,2516 1347,2515 1328,2515 1327,2516 1293,2516 1292,2515 1261,2515 1260,2516 1213,2516 1212,2515 1189,2515 1188,2514 1174,2514 1173,2515 1172,2515 1171,2514 1127,2514 1126,2515 1117,2515 1116,2514 1108,2514 1107,2515 1074,2515 1073,2514 1069,2514 1068,2513 1031,2513 1030,2514 961,2514 960,2513 946,2513 945,2514 926,2514 925,2513 916,2513 915,2514 906,2514 905,2513 891,2513 890,2514 881,2514 880,2513" fill="rgba(20,160,203,0.3)" stroke="rgb(20,160,203)" stroke-width="2" data-block-id="0008" data-name="b-0011" /><text x="1365" y="2675" text-anchor="middle" dominant-baseline="middle" class="block-label" fill="rgb(20,160,203)" stroke="white" stroke-width="3" paint-order="stroke">b-0011</text><polygon points="1662,2041 1661,2042 1657,2042 1656,2043 1654,2043 1653,2044 1651,2044 1650,2045 1648,2045 1647,2046 1641,2046 1640,2045 1611,2045 1610,2046 1605,2046 1604,2047 1601,2047 1600,2048 1599,2048 1597,2050 1597,2051 1596,2052 1596,2054 1595,2055 1595,2060 1596,2061 1596,2065 1597,2066 1597,2069 1598,2070 1598,2072 1599,2073 1599,2075 1600,2076 1600,2078 1601,2079 1601,2081 1602,2082 1602,2085 1603,2086 1603,2092 1604,2093 1604,2096 1605,2097 1605,2100 1606,2101 1606,2103 1607,2104 1607,2107 1608,2108 1608,2112 1609,2113 1609,2116 1610,2117 1610,2120 1611,2121 1611,2123 1612,2124 1612,2126 1613,2127 1613,2128 1614,2129 1614,2130 1615,2131 1615,2133 1616,2134 1616,2136 1617,2137 1617,2141 1618,2142 1618,2145 1619,2146 1619,2150 1620,2151 1620,2154 1621,2155 1621,2159 1622,2160 1622,2162 1623,2163 1623,2165 1624,2166 1624,2169 1625,2170 1625,2173 1626,2174 1626,2177 1627,2178 1627,2180 1628,2181 1628,2184 1629,2185 1629,2188 1630,2189 1630,2192 1631,2193 1631,2195 1632,2196 1632,2199 1633,2200 1633,2203 1634,2204 1634,2206 1635,2207 1635,2209 1636,2210 1636,2212 1637,2213 1637,2215 1638,2216 1638,2218 1639,2219 1639,2221 1640,2222 1640,2225 1641,2226 1641,2228 1642,2229 1642,2231 1643,2232 1643,2233 1644,2234 1644,2237 1645,2238 1645,2245 1646,2246 1646,2249 1647,2250 1647,2252 1648,2253 1648,2254 1649,2255 1649,2256 1651,2258 1651,2259 1652,2260 1652,2261 1653,2262 1653,2264 1654,2265 1654,2268 1655,2269 1655,2272 1656,2273 1656,2275 1657,2276 1657,2279 1658,2280 1658,2282 1659,2283 1659,2286 1660,2287 1660,2289 1661,2290 1661,2292 1662,2293 1662,2294 1663,2295 1663,2297 1664,2298 1664,2301 1665,2302 1665,2306 1666,2307 1666,2310 1667,2311 1667,2315 1668,2316 1668,2319 1669,2320 1669,2321 1670,2322 1670,2323 1671,2324 1671,2325 1672,2326 1672,2327 1674,2329 1674,2331 1675,2332 1675,2343 1676,2344 1676,2346 1677,2347 1677,2349 1678,2350 1678,2353 1679,2354 1679,2358 1680,2359 1680,2364 1681,2365 1681,2369 1682,2370 1682,2376 1683,2377 1683,2381 1684,2382 1684,2384 1685,2385 1685,2389 1686,2390 1686,2392 1687,2393 1687,2394 1688,2395 1688,2396 1689,2397 1689,2398 1693,2402 1695,2402 1696,2403 1758,2403 1759,2404 1789,2404 1790,2403 1806,2403 1807,2404 1878,2404 1879,2405 1900,2405 1901,2406 1903,2406 1904,2407 1905,2407 1906,2408 1908,2408 1909,2409 1918,2409 1919,2408 1921,2408 1922,2407 1924,2407 1925,2406 1928,2406 1929,2405 1945,2405 1946,2404 2040,2404 2041,2405 2056,2405 2057,2404 2066,2404 2067,2405 2069,2405 2070,2406 2072,2406 2073,2407 2088,2407 2089,2406 2117,2406 2118,2407 2131,2407 2132,2406 2137,2406 2138,2407 2151,2407 2152,2406 2167,2406 2168,2407 2173,2407 2174,2406 2182,2406 2183,2407 2196,2407 2197,2406 2199,2406 2200,2405 2202,2405 2203,2404 2276,2404 2277,2403 2281,2403 2282,2402 2285,2402 2286,2401 2290,2401 2291,2400 2297,2400 2298,2399 2299,2399 2300,2398 2301,2398 2304,2395 2304,2394 2306,2392 2306,2391 2307,2390 2307,2367 2308,2366 2308,2357 2309,2356 2309,2351 2310,2350 2310,2348 2311,2347 2311,2343 2312,2342 2312,2341 2311,2340 2311,2336 2310,2335 2310,2327 2311,2326 2311,2323 2312,2322 2312,2318 2313,2317 2312,2316 2312,2288 2313,2287 2313,2269 2312,2268 2312,2262 2311,2261 2311,2258 2312,2257 2312,2251 2313,2250 2313,2240 2312,2239 2312,2235 2313,2234 2313,2228 2314,2227 2314,2216 2313,2215 2313,2211 2314,2210 2314,2180 2315,2179 2315,2174 2314,2173 2314,2156 2315,2155 2315,2148 2316,2147 2316,2137 2315,2136 2315,2128 2314,2127 2314,2124 2313,2123 2313,2113 2314,2112 2314,2108 2315,2107 2315,2100 2314,2099 2314,2090 2315,2089 2315,2081 2316,2080 2316,2079 2315,2078 2315,2066 2314,2065 2314,2059 2313,2058 2313,2056 2312,2055 2312,2054 2311,2053 2311,2051 2307,2047 2306,2047 2305,2046 2304,2046 2303,2045 2301,2045 2300,2044 2295,2044 2294,2045 2288,2045 2287,2044 2283,2044 2282,2043 2260,2043 2259,2044 2226,2044 2225,2043 2220,2043 2219,2042 2184,2042 2183,2043 2160,2043 2159,2042 2153,2042 2152,2043 2137,2043 2136,2044 2135,2044 2134,2043 2130,2043 2129,2042 2126,2042 2125,2041 2116,2041 2115,2042 2096,2042 2095,2043 2091,2043 2090,2044 2083,2044 2082,2043 2079,2043 2078,2042 2060,2042 2059,2043 2028,2043 2027,2042 1994,2042 1993,2043 1989,2043 1988,2042 1924,2042 1923,2041 1914,2041 1913,2042 1865,2042 1864,2043 1853,2043 1852,2042 1844,2042 1843,2043 1733,2043 1732,2042 1726,2042 1725,2043 1714,2043 1713,2042 1694,2042 1693,2041" fill="rgba(57,21,252,0.3)" stroke="rgb(57,21,252)" stroke-width="2" data-block-id="0009" data-name="b-0012" /><text x="1905" y="2216" text-anchor="middle" dominant-baseline="middle" class="block-label" fill="rgb(57,21,252)" stroke="white" stroke-width="3" paint-order="stroke">b-0012</text><polygon points="863,2040 862,2041 858,2041 857,2042 855,2042 854,2043 852,2043 851,2044 850,2044 850,2045 849,2046 849,2047 848,2048 848,2067 849,2068 849,2080 848,2081 848,2086 847,2087 847,2098 848,2099 848,2108 847,2109 847,2113 846,2114 846,2121 847,2122 847,2135 846,2136 846,2145 847,2146 847,2157 846,2158 846,2173 847,2174 847,2181 846,2182 846,2190 847,2191 847,2198 848,2199 848,2207 849,2208 849,2217 850,2218 850,2226 849,2227 849,2229 848,2230 848,2260 849,2261 849,2265 850,2266 850,2275 849,2276 849,2279 848,2280 848,2312 849,2313 849,2323 848,2324 848,2332 847,2333 847,2334 848,2335 848,2350 847,2351 847,2353 848,2354 848,2360 849,2361 849,2371 848,2372 848,2390 849,2391 849,2392 850,2393 850,2394 851,2395 851,2396 852,2396 853,2397 854,2397 856,2399 857,2399 858,2400 860,2400 861,2401 905,2401 906,2402 995,2402 996,2401 1016,2401 1017,2402 1018,2402 1019,2403 1021,2403 1022,2404 1027,2404 1028,2405 1065,2405 1066,2406 1090,2406 1091,2405 1202,2405 1203,2404 1207,2404 1208,2405 1240,2405 1241,2406 1256,2406 1257,2405 1285,2405 1286,2404 1316,2404 1317,2405 1339,2405 1340,2404 1345,2404 1346,2403 1355,2403 1356,2404 1369,2404 1370,2403 1392,2403 1393,2402 1398,2402 1399,2403 1461,2403 1462,2402 1473,2402 1474,2401 1479,2401 1480,2400 1485,2400 1486,2399 1488,2399 1489,2398 1490,2398 1491,2397 1491,2396 1492,2395 1492,2394 1493,2393 1493,2384 1492,2383 1492,2379 1491,2378 1491,2376 1483,2368 1483,2366 1482,2365 1482,2353 1481,2352 1481,2348 1480,2347 1480,2343 1479,2342 1479,2339 1478,2338 1478,2335 1477,2334 1477,2331 1476,2330 1476,2328 1475,2327 1475,2325 1474,2324 1474,2322 1473,2321 1473,2317 1474,2316 1474,2311 1475,2310 1475,2307 1474,2306 1474,2303 1473,2302 1473,2300 1472,2299 1472,2296 1471,2295 1471,2289 1470,2288 1470,2279 1469,2278 1469,2273 1468,2272 1468,2270 1467,2269 1467,2268 1466,2267 1466,2265 1465,2264 1465,2263 1464,2262 1464,2260 1463,2259 1463,2257 1462,2256 1462,2255 1461,2254 1461,2252 1460,2251 1460,2248 1459,2247 1459,2245 1458,2244 1458,2240 1457,2239 1457,2237 1456,2236 1456,2232 1455,2231 1455,2228 1454,2227 1454,2225 1453,2224 1453,2222 1452,2221 1452,2216 1451,2215 1451,2211 1450,2210 1450,2208 1449,2207 1449,2205 1448,2204 1448,2202 1447,2201 1447,2197 1446,2196 1446,2191 1445,2190 1445,2188 1444,2187 1444,2186 1442,2184 1442,2183 1441,2182 1441,2181 1440,2180 1440,2179 1439,2178 1439,2177 1438,2176 1438,2174 1437,2173 1437,2170 1436,2169 1436,2164 1435,2163 1435,2157 1434,2156 1434,2151 1433,2150 1433,2148 1432,2147 1432,2145 1431,2144 1431,2142 1430,2141 1430,2139 1429,2138 1429,2137 1428,2136 1428,2135 1427,2134 1427,2132 1426,2131 1426,2128 1425,2127 1425,2122 1424,2121 1424,2116 1423,2115 1423,2112 1422,2111 1422,2107 1421,2106 1421,2104 1420,2103 1420,2102 1419,2101 1419,2099 1418,2098 1418,2097 1417,2096 1417,2093 1416,2092 1416,2088 1415,2087 1415,2083 1414,2082 1414,2078 1413,2077 1413,2074 1412,2073 1412,2070 1411,2069 1411,2067 1410,2066 1410,2064 1409,2063 1409,2062 1408,2061 1408,2060 1407,2059 1407,2057 1406,2056 1406,2055 1405,2054 1405,2053 1404,2052 1404,2050 1403,2049 1403,2048 1398,2043 1396,2043 1395,2042 1394,2042 1393,2043 1377,2043 1376,2042 1364,2042 1363,2043 1361,2043 1360,2042 1335,2042 1334,2043 1328,2043 1327,2044 1322,2044 1321,2043 1310,2043 1309,2042 1295,2042 1294,2043 1281,2043 1280,2042 1257,2042 1256,2041 1248,2041 1247,2042 1232,2042 1231,2043 1214,2043 1213,2042 1194,2042 1193,2043 1185,2043 1184,2044 1182,2044 1181,2043 1173,2043 1172,2042 1144,2042 1143,2043 1130,2043 1129,2042 1118,2042 1117,2041 1107,2041 1106,2042 1093,2042 1092,2043 1063,2043 1062,2042 1052,2042 1051,2043 1044,2043 1043,2044 1036,2044 1035,2043 1029,2043 1028,2042 1018,2042 1017,2041 1010,2041 1009,2042 1002,2042 1001,2041 924,2041 923,2040 915,2040 914,2041 865,2041 864,2040" fill="rgba(235,88,48,0.3)" stroke="rgb(235,88,48)" stroke-width="2" data-block-id="0010" data-name="b-0013" /><text x="1236" y="2206" text-anchor="middle" dominant-baseline="middle" class="block-label" fill="rgb(235,88,48)" stroke="white" stroke-width="3" paint-order="stroke">b-0013</text><polygon points="2113,2514 2112,2515 1996,2515 1995,2516 1983,2516 1982,2515 1977,2515 1976,2516 1959,2516 1958,2515 1952,2515 1951,2516 1819,2516 1818,2515 1810,2515 1809,2516 1736,2516 1735,2517 1733,2517 1732,2518 1731,2518 1730,2519 1730,2526 1731,2527 1731,2531 1732,2532 1732,2534 1733,2535 1733,2537 1734,2538 1734,2540 1735,2541 1735,2544 1736,2545 1736,2547 1737,2548 1737,2550 1738,2551 1738,2552 1739,2553 1739,2554 1740,2555 1740,2556 1741,2557 1741,2559 1742,2560 1742,2561 1743,2562 1743,2564 1744,2565 1744,2566 1745,2567 1745,2569 1746,2570 1746,2572 1747,2573 1747,2576 1748,2577 1748,2579 1749,2580 1749,2583 1750,2584 1750,2586 1751,2587 1751,2590 1752,2591 1752,2593 1753,2594 1753,2596 1754,2597 1754,2601 1755,2602 1755,2605 1756,2606 1756,2607 1757,2608 1757,2610 1758,2611 1758,2613 1759,2614 1759,2616 1760,2617 1760,2620 1761,2621 1761,2623 1762,2624 1762,2627 1763,2628 1763,2631 1764,2632 1764,2634 1765,2635 1765,2637 1766,2638 1766,2639 1767,2640 1767,2641 1768,2642 1768,2643 1769,2644 1769,2646 1770,2647 1770,2650 1771,2651 1771,2654 1772,2655 1772,2657 1773,2658 1773,2660 1774,2661 1774,2663 1775,2664 1775,2666 1776,2667 1776,2669 1777,2670 1777,2671 1778,2672 1778,2674 1779,2675 1779,2676 1780,2677 1780,2679 1781,2680 1781,2682 1782,2683 1782,2686 1783,2687 1783,2688 1784,2689 1784,2691 1785,2692 1785,2694 1786,2695 1786,2698 1787,2699 1787,2702 1788,2703 1788,2705 1789,2706 1789,2707 1790,2708 1790,2710 1791,2711 1791,2713 1792,2714 1792,2716 1793,2717 1793,2718 1794,2719 1794,2721 1795,2722 1795,2724 1796,2725 1796,2727 1797,2728 1797,2730 1798,2731 1798,2733 1799,2734 1799,2736 1800,2737 1800,2740 1801,2741 1801,2745 1802,2746 1802,2748 1803,2749 1803,2750 1804,2751 1804,2753 1805,2754 1805,2755 1806,2756 1806,2758 1807,2759 1807,2762 1808,2763 1808,2766 1809,2767 1809,2768 1810,2769 1810,2770 1811,2771 1811,2772 1812,2773 1812,2774 1813,2775 1813,2777 1814,2778 1814,2779 1815,2780 1815,2782 1816,2783 1816,2784 1817,2785 1817,2788 1818,2789 1818,2793 1819,2794 1819,2797 1820,2798 1820,2800 1821,2801 1821,2803 1822,2804 1822,2806 1823,2807 1823,2809 1824,2810 1824,2812 1825,2813 1825,2815 1826,2816 1826,2818 1827,2819 1827,2822 1828,2823 1828,2825 1829,2826 1829,2829 1830,2830 1830,2832 1831,2833 1831,2836 1832,2837 1832,2839 1833,2840 1833,2842 1834,2843 1834,2845 1835,2846 1835,2847 1836,2848 1836,2849 1837,2850 1837,2851 1838,2852 1838,2854 1839,2855 1839,2856 1840,2857 1840,2858 1841,2859 1841,2861 1842,2862 1842,2863 1843,2864 1843,2865 1845,2867 1845,2868 1847,2870 1848,2870 1849,2871 1852,2871 1853,2872 1979,2872 1980,2871 2005,2871 2006,2872 2020,2872 2021,2871 2032,2871 2033,2872 2126,2872 2127,2871 2132,2871 2133,2870 2135,2870 2136,2871 2140,2871 2141,2872 2157,2872 2158,2873 2178,2873 2179,2872 2182,2872 2183,2873 2199,2873 2200,2872 2203,2872 2204,2871 2207,2871 2208,2872 2212,2872 2213,2873 2292,2873 2293,2874 2302,2874 2303,2873 2306,2873 2307,2872 2308,2872 2309,2871 2310,2871 2316,2865 2316,2857 2317,2856 2317,2853 2316,2852 2316,2842 2315,2841 2315,2812 2314,2811 2314,2804 2315,2803 2315,2799 2316,2798 2316,2796 2317,2795 2317,2780 2316,2779 2316,2769 2315,2768 2315,2763 2314,2762 2314,2756 2315,2755 2315,2749 2316,2748 2316,2746 2315,2745 2315,2737 2314,2736 2314,2731 2315,2730 2315,2713 2314,2712 2315,2711 2315,2699 2314,2698 2314,2696 2313,2695 2313,2692 2312,2691 2312,2682 2313,2681 2313,2673 2314,2672 2314,2646 2313,2645 2313,2639 2314,2638 2314,2631 2315,2630 2315,2622 2314,2621 2314,2604 2313,2603 2313,2587 2314,2586 2314,2531 2313,2530 2313,2525 2312,2524 2312,2520 2308,2516 2307,2516 2306,2515 2303,2515 2302,2514 2254,2514 2253,2515 2210,2515 2209,2516 2203,2516 2202,2515 2199,2515 2198,2514 2183,2514 2182,2515 2162,2515 2161,2514 2145,2514 2144,2515 2139,2515 2138,2516 2131,2516 2130,2515 2126,2515 2125,2514" fill="rgba(169,219,187,0.3)" stroke="rgb(169,219,187)" stroke-width="2" data-block-id="0011" data-name="b-0015" /><text x="1944" y="2699" text-anchor="middle" dominant-baseline="middle" class="block-label" fill="rgb(169,219,187)" stroke="white" stroke-width="3" paint-order="stroke">b-0015</text><polygon points="1081,1578 1080,1579 863,1579 862,1580 857,1580 856,1581 855,1581 854,1582 853,1582 852,1583 852,1620 851,1621 851,1684 850,1685 850,1760 849,1761 849,1918 850,1919 850,1921 851,1922 851,1923 852,1924 853,1924 854,1925 858,1925 859,1926 981,1926 982,1927 996,1927 997,1926 1026,1926 1027,1927 1049,1927 1050,1926 1057,1926 1058,1927 1155,1927 1156,1926 1158,1926 1159,1927 1331,1927 1332,1926 1355,1926 1356,1925 1362,1925 1365,1922 1365,1920 1366,1919 1366,1911 1365,1910 1365,1908 1364,1907 1364,1906 1363,1905 1363,1903 1362,1902 1362,1900 1361,1899 1361,1896 1360,1895 1360,1892 1359,1891 1359,1886 1358,1885 1358,1879 1357,1878 1357,1876 1356,1875 1356,1873 1355,1872 1355,1870 1354,1869 1354,1867 1353,1866 1353,1864 1352,1863 1352,1860 1351,1859 1351,1856 1350,1855 1350,1852 1349,1851 1349,1848 1348,1847 1348,1844 1347,1843 1347,1841 1346,1840 1346,1837 1345,1836 1345,1833 1344,1832 1344,1829 1343,1828 1343,1825 1342,1824 1342,1821 1341,1820 1341,1818 1340,1817 1340,1814 1339,1813 1339,1809 1338,1808 1338,1806 1337,1805 1337,1802 1336,1801 1336,1799 1335,1798 1335,1794 1334,1793 1334,1789 1333,1788 1333,1785 1332,1784 1332,1783 1331,1782 1331,1781 1330,1780 1330,1779 1329,1778 1329,1776 1328,1775 1328,1773 1327,1772 1327,1770 1326,1769 1326,1765 1325,1764 1325,1761 1324,1760 1324,1758 1323,1757 1323,1755 1322,1754 1322,1752 1321,1751 1321,1748 1320,1747 1320,1744 1319,1743 1319,1739 1318,1738 1318,1735 1317,1734 1317,1732 1316,1731 1316,1728 1315,1727 1315,1724 1314,1723 1314,1721 1313,1720 1313,1717 1312,1716 1312,1713 1311,1712 1311,1710 1310,1709 1310,1706 1309,1705 1309,1702 1308,1701 1308,1699 1307,1698 1307,1696 1306,1695 1306,1694 1305,1693 1305,1691 1304,1690 1304,1688 1303,1687 1303,1684 1302,1683 1302,1681 1301,1680 1301,1677 1300,1676 1300,1673 1299,1672 1299,1670 1298,1669 1298,1666 1297,1665 1297,1662 1296,1661 1296,1659 1295,1658 1295,1655 1294,1654 1294,1651 1293,1650 1293,1647 1292,1646 1292,1643 1291,1642 1291,1638 1290,1637 1290,1634 1289,1633 1289,1629 1288,1628 1288,1625 1287,1624 1287,1621 1286,1620 1286,1618 1285,1617 1285,1615 1284,1614 1284,1612 1283,1611 1283,1608 1282,1607 1282,1605 1281,1604 1281,1601 1280,1600 1280,1597 1279,1596 1279,1594 1278,1593 1278,1590 1277,1589 1277,1586 1276,1585 1276,1583 1274,1581 1274,1580 1273,1580 1272,1579 1271,1579 1270,1578 1137,1578 1136,1579 1091,1579 1090,1578" fill="rgba(207,14,189,0.3)" stroke="rgb(207,14,189)" stroke-width="2" data-block-id="0012" data-name="b-0016" /><text x="1253" y="1755" text-anchor="middle" dominant-baseline="middle" class="block-label" fill="rgb(207,14,189)" stroke="white" stroke-width="3" paint-order="stroke">b-0016</text><polygon points="861,1111 860,1112 858,1112 857,1113 856,1113 853,1116 853,1134 852,1135 852,1162 851,1163 851,1171 852,1172 852,1191 853,1192 853,1206 852,1207 852,1328 851,1329 851,1334 852,1335 852,1350 851,1351 851,1424 850,1425 850,1427 851,1428 851,1435 852,1436 852,1456 853,1457 853,1459 854,1460 854,1461 855,1462 856,1462 857,1463 860,1463 861,1464 953,1464 954,1465 960,1465 961,1464 972,1464 973,1465 997,1465 998,1464 1071,1464 1072,1465 1077,1465 1078,1464 1112,1464 1113,1465 1128,1465 1129,1464 1233,1464 1234,1463 1235,1463 1236,1462 1237,1462 1238,1461 1238,1460 1239,1459 1239,1449 1238,1448 1238,1447 1237,1446 1237,1443 1236,1442 1236,1440 1235,1439 1235,1435 1234,1434 1234,1429 1233,1428 1233,1424 1232,1423 1232,1419 1231,1418 1231,1415 1230,1414 1230,1411 1229,1410 1229,1406 1228,1405 1228,1401 1227,1400 1227,1397 1226,1396 1226,1394 1225,1393 1225,1391 1224,1390 1224,1388 1223,1387 1223,1384 1222,1383 1222,1380 1221,1379 1221,1376 1220,1375 1220,1373 1219,1372 1219,1370 1218,1369 1218,1367 1217,1366 1217,1365 1216,1364 1216,1361 1215,1360 1215,1358 1214,1357 1214,1355 1213,1354 1213,1352 1212,1351 1212,1348 1211,1347 1211,1344 1210,1343 1210,1341 1209,1340 1209,1337 1208,1336 1208,1332 1207,1331 1207,1329 1206,1328 1206,1326 1205,1325 1205,1323 1204,1322 1204,1320 1203,1319 1203,1317 1202,1316 1202,1315 1201,1314 1201,1312 1200,1311 1200,1310 1199,1309 1199,1308 1198,1307 1198,1303 1197,1302 1197,1296 1196,1295 1196,1292 1195,1291 1195,1289 1194,1288 1194,1286 1193,1285 1193,1283 1192,1282 1192,1281 1191,1280 1191,1278 1190,1277 1190,1274 1189,1273 1189,1269 1188,1268 1188,1263 1187,1262 1187,1259 1186,1258 1186,1255 1185,1254 1185,1252 1184,1251 1184,1248 1183,1247 1183,1244 1182,1243 1182,1240 1181,1239 1181,1236 1180,1235 1180,1232 1179,1231 1179,1229 1178,1228 1178,1225 1177,1224 1177,1222 1176,1221 1176,1219 1175,1218 1175,1215 1174,1214 1174,1212 1173,1211 1173,1208 1172,1207 1172,1204 1171,1203 1171,1201 1170,1200 1170,1197 1169,1196 1169,1193 1168,1192 1168,1189 1167,1188 1167,1185 1166,1184 1166,1182 1165,1181 1165,1178 1164,1177 1164,1175 1163,1174 1163,1172 1162,1171 1162,1169 1161,1168 1161,1166 1160,1165 1160,1162 1159,1161 1159,1160 1158,1159 1158,1157 1157,1156 1157,1153 1156,1152 1156,1149 1155,1148 1155,1145 1154,1144 1154,1141 1153,1140 1153,1138 1152,1137 1152,1134 1151,1133 1151,1130 1150,1129 1150,1127 1149,1126 1149,1123 1148,1122 1148,1120 1147,1119 1147,1118 1146,1117 1146,1116 1144,1114 1143,1114 1142,1113 1141,1113 1140,1112 1137,1112 1136,1111 1126,1111 1125,1112 1119,1112 1118,1111 1108,1111 1107,1112 1091,1112 1090,1111 1086,1111 1085,1112 1035,1112 1034,1113 1025,1113 1024,1112 937,1112 936,1113 927,1113 926,1112 917,1112 916,1113 907,1113 906,1112 897,1112 896,1111 891,1111 890,1112 886,1112 885,1111" fill="rgba(50,107,54,0.3)" stroke="rgb(50,107,54)" stroke-width="2" data-block-id="0013" data-name="b-0018" /><text x="1118" y="1277" text-anchor="middle" dominant-baseline="middle" class="block-label" fill="rgb(50,107,54)" stroke="white" stroke-width="3" paint-order="stroke">b-0018</text><polygon points="875,637 874,638 867,638 866,639 865,639 864,640 863,640 859,644 859,645 858,646 858,650 859,651 859,656 860,657 860,665 861,666 861,729 862,730 862,731 861,732 861,753 860,754 860,793 861,794 861,806 860,807 860,861 859,862 859,870 858,871 858,878 859,879 859,963 858,964 858,983 859,984 859,990 861,992 862,992 863,993 1005,993 1006,994 1039,994 1040,993 1057,993 1058,994 1084,994 1085,993 1105,993 1106,992 1109,992 1111,990 1111,980 1110,979 1110,977 1109,976 1109,975 1108,974 1108,971 1107,970 1107,968 1106,967 1106,965 1105,964 1105,962 1104,961 1104,958 1103,957 1103,954 1102,953 1102,948 1101,947 1101,943 1100,942 1100,940 1099,939 1099,937 1098,936 1098,933 1097,932 1097,930 1096,929 1096,928 1095,927 1095,925 1094,924 1094,923 1093,922 1093,918 1092,917 1092,909 1091,908 1091,906 1090,905 1090,903 1089,902 1089,899 1088,898 1088,896 1087,895 1087,892 1086,891 1086,888 1085,887 1085,884 1084,883 1084,881 1083,880 1083,877 1082,876 1082,874 1081,873 1081,870 1080,869 1080,867 1079,866 1079,863 1078,862 1078,860 1077,859 1077,856 1076,855 1076,853 1075,852 1075,849 1074,848 1074,844 1073,843 1073,839 1072,838 1072,835 1071,834 1071,832 1070,831 1070,829 1069,828 1069,826 1068,825 1068,823 1067,822 1067,820 1066,819 1066,817 1065,816 1065,814 1064,813 1064,810 1063,809 1063,807 1062,806 1062,803 1061,802 1061,798 1060,797 1060,794 1059,793 1059,790 1058,789 1058,786 1057,785 1057,782 1056,781 1056,778 1055,777 1055,774 1054,773 1054,770 1053,769 1053,766 1052,765 1052,762 1051,761 1051,759 1050,758 1050,755 1049,754 1049,751 1048,750 1048,745 1047,744 1047,741 1046,740 1046,738 1045,737 1045,736 1044,735 1044,734 1043,733 1043,732 1042,731 1042,730 1041,729 1041,727 1040,726 1040,723 1039,722 1039,716 1038,715 1038,711 1037,710 1037,708 1036,707 1036,704 1035,703 1035,700 1034,699 1034,696 1033,695 1033,691 1032,690 1032,685 1031,684 1031,680 1030,679 1030,675 1029,674 1029,672 1028,671 1028,668 1027,667 1027,663 1026,662 1026,659 1025,658 1025,653 1024,652 1024,646 1023,645 1023,644 1022,643 1022,642 1020,640 1019,640 1018,639 1009,639 1008,638 974,638 973,639 963,639 962,638 952,638 951,639 938,639 937,638 930,638 929,639 914,639 913,638 877,638 876,637" fill="rgba(241,249,8,0.3)" stroke="rgb(241,249,8)" stroke-width="2" data-block-id="0014" data-name="b-0024" /><text x="1025" y="805" text-anchor="middle" dominant-baseline="middle" class="block-label" fill="rgb(241,249,8)" stroke="white" stroke-width="3" paint-order="stroke">b-0024</text></g>
</svg>