<?xml version='1.0' encoding='utf-8'?>
<svg xmlns="http://www.w3.org/2000/svg" xmlns:atlas="http://example.com/atlas" width="4980" height="3313" viewBox="0 0 4980 3313">
  
  <metadata>
    <atlas:source>
      <atlas:jp2-path>../media/v1/p26.jp2</atlas:jp2-path>
      <atlas:volume>vol1</atlas:volume>
      <atlas:plate-id>p26</atlas:plate-id>
      <atlas:image-width>4980</atlas:image-width>
      <atlas:image-height>3313</atlas:image-height>
    </atlas:source>
  </metadata>

  
  <image id="background" href="file://../media/v1/p26.jp2" width="4980" height="3313" opacity="0.5" />

  <style>
    .block-label { font-family: sans-serif; font-size: 14px; font-weight: bold; }
  </style>

  
  <g id="blocks">
    <polygon points="2470,1104 2469,1105 2429,1105 2428,1106 2414,1106 2413,1107 2398,1107 2397,1108 2384,1108 2383,1109 2376,1109 2375,1110 2369,1110 2368,1111 2363,1111 2362,1112 2354,1112 2353,1113 2344,1113 2343,1114 2334,1114 2333,1115 2326,1115 2325,1116 2316,1116 2315,1117 2306,1117 2305,1118 2299,1118 2298,1119 2294,1119 2293,1120 2289,1120 2288,1121 2283,1121 2282,1122 2275,1122 2274,1123 2267,1123 2266,1124 2260,1124 2259,1125 2254,1125 2253,1126 2246,1126 2245,1127 2240,1127 2239,1128 2234,1128 2233,1129 2227,1129 2226,1130 2208,1130 2207,1131 2202,1131 2201,1132 2197,1132 2196,1133 2192,1133 2191,1134 2187,1134 2186,1135 2182,1135 2181,1136 2177,1136 2176,1137 2173,1137 2172,1138 2169,1138 2168,1139 2166,1139 2165,1140 2164,1140 2163,1141 2162,1141 2160,1143 2159,1143 2158,1144 2157,1144 2156,1145 2155,1145 2154,1146 2153,1146 2152,1147 2151,1147 2146,1152 2146,1153 2145,1154 2145,1155 2144,1156 2144,1159 2143,1160 2143,1161 2144,1162 2144,1243 2143,1244 2143,1259 2142,1260 2142,1279 2143,1280 2143,1304 2144,1305 2144,1313 2143,1314 2143,1320 2142,1321 2142,1326 2141,1327 2141,1331 2140,1332 2140,1336 2139,1337 2139,1346 2138,1347 2138,1358 2139,1359 2139,1370 2140,1371 2140,1392 2139,1393 2139,1407 2138,1408 2138,1439 2139,1440 2139,1469 2138,1470 2138,1483 2137,1484 2137,1492 2138,1493 2138,1501 2139,1502 2139,1513 2138,1514 2138,1526 2137,1527 2137,1535 2138,1536 2138,1549 2137,1550 2137,1562 2136,1563 2136,1568 2137,1569 2137,1575 2138,1576 2138,1595 2137,1596 2137,1602 2136,1603 2136,1634 2135,1635 2135,1656 2136,1657 2136,1707 2135,1708 2135,1715 2134,1716 2134,1728 2135,1729 2135,1734 2136,1735 2136,1752 2135,1753 2135,1775 2136,1776 2136,1786 2135,1787 2135,1807 2136,1808 2136,1822 2135,1823 2135,1827 2134,1828 2134,1834 2133,1835 2133,1842 2134,1843 2134,1848 2135,1849 2135,1853 2136,1854 2136,1861 2135,1862 2135,1865 2134,1866 2134,1871 2133,1872 2133,1887 2134,1888 2134,1989 2133,1990 2133,2037 2134,2038 2134,2046 2135,2047 2135,2056 2134,2057 2134,2063 2133,2064 2133,2086 2134,2087 2134,2110 2135,2111 2135,2138 2134,2139 2134,2150 2133,2151 2133,2153 2134,2154 2134,2174 2133,2175 2133,2182 2132,2183 2132,2195 2133,2196 2133,2206 2134,2207 2134,2215 2133,2216 2133,2243 2134,2244 2134,2271 2135,2272 2135,2298 2134,2299 2134,2331 2135,2332 2135,2338 2136,2339 2136,2342 2137,2343 2137,2350 2138,2351 2138,2370 2137,2371 2137,2398 2138,2399 2138,2410 2139,2411 2139,2420 2140,2421 2140,2423 2141,2424 2141,2425 2142,2426 2142,2427 2143,2428 2143,2429 2148,2434 2150,2434 2151,2435 2168,2435 2169,2434 2172,2434 2173,2433 2174,2433 2175,2432 2177,2432 2178,2431 2181,2431 2182,2430 2185,2430 2186,2429 2197,2429 2198,2428 2213,2428 2214,2427 2238,2427 2239,2428 2248,2428 2249,2427 2253,2427 2254,2426 2257,2426 2258,2425 2261,2425 2262,2424 2265,2424 2266,2423 2271,2423 2272,2422 2282,2422 2283,2421 2286,2421 2287,2420 2289,2420 2290,2419 2291,2419 2292,2418 2295,2418 2296,2417 2299,2417 2300,2416 2304,2416 2305,2415 2309,2415 2310,2414 2313,2414 2314,2413 2317,2413 2318,2412 2321,2412 2322,2411 2323,2412 2328,2412 2329,2413 2333,2413 2334,2414 2351,2414 2352,2413 2359,2413 2360,2412 2367,2412 2368,2411 2377,2411 2378,2410 2386,2410 2387,2409 2395,2409 2396,2408 2403,2408 2404,2407 2408,2407 2409,2406 2413,2406 2414,2405 2418,2405 2419,2404 2423,2404 2424,2403 2437,2403 2438,2402 2451,2402 2452,2401 2461,2401 2462,2400 2467,2400 2468,2399 2471,2399 2472,2398 2474,2398 2475,2397 2477,2397 2481,2393 2481,2392 2482,2391 2482,2389 2483,2388 2483,2385 2484,2384 2484,2371 2485,2370 2485,2331 2486,2330 2486,2291 2485,2290 2485,2284 2486,2283 2486,2274 2487,2273 2487,2232 2486,2231 2486,2227 2487,2226 2487,2202 2488,2201 2488,2184 2487,2183 2487,2151 2488,2150 2488,2147 2487,2146 2487,2107 2488,2106 2488,2099 2489,2098 2489,2092 2490,2091 2490,2082 2491,2081 2491,2065 2490,2064 2490,2059 2489,2058 2489,2048 2490,2047 2490,2041 2491,2040 2491,2030 2492,2029 2492,1956 2493,1955 2493,1921 2494,1920 2494,1918 2493,1917 2493,1907 2492,1906 2492,1900 2491,1899 2491,1891 2490,1890 2490,1883 2489,1882 2489,1872 2490,1871 2490,1863 2491,1862 2491,1849 2492,1848 2492,1833 2493,1832 2493,1803 2494,1802 2494,1792 2495,1791 2495,1782 2496,1781 2496,1772 2497,1771 2497,1764 2498,1763 2498,1752 2497,1751 2497,1739 2498,1738 2498,1725 2499,1724 2498,1723 2498,1708 2497,1707 2497,1695 2498,1694 2498,1671 2497,1670 2497,1627 2498,1626 2498,1592 2497,1591 2497,1574 2496,1573 2496,1523 2497,1522 2497,1512 2498,1511 2498,1478 2499,1477 2499,1464 2498,1463 2498,1456 2497,1455 2497,1446 2498,1445 2498,1439 2499,1438 2499,1431 2500,1430 2500,1400 2499,1399 2499,1342 2500,1341 2500,1321 2499,1320 2499,1298 2500,1297 2500,1272 2501,1271 2501,1257 2502,1256 2502,1186 2503,1185 2503,1129 2502,1128 2502,1120 2501,1119 2501,1115 2500,1114 2500,1112 2499,1111 2499,1110 2495,1106 2492,1106 2491,1105 2486,1105 2485,1104" fill="rgba(188,20,102,0.3)" stroke="rgb(188,20,102)" stroke-width="2" data-block-id="0001" data-name="b-0003" /><text x="2297" y="1792" text-anchor="middle" dominant-baseline="middle" class="block-label" fill="rgb(188,20,102)" stroke="white" stroke-width="3" paint-order="stroke">b-0003</text><polygon points="2943,1044 2942,1045 2939,1045 2938,1046 2936,1046 2935,1047 2926,1047 2925,1048 2910,1048 2909,1049 2903,1049 2902,1050 2893,1050 2892,1051 2878,1051 2877,1052 2868,1052 2867,1053 2860,1053 2859,1054 2852,1054 2851,1055 2835,1055 2834,1056 2831,1056 2830,1057 2829,1057 2828,1058 2811,1058 2810,1059 2807,1059 2806,1060 2803,1060 2802,1061 2780,1061 2779,1062 2770,1062 2769,1063 2762,1063 2761,1064 2758,1064 2757,1065 2754,1065 2753,1066 2749,1066 2748,1067 2743,1067 2742,1068 2736,1068 2735,1069 2726,1069 2725,1070 2716,1070 2715,1071 2709,1071 2708,1072 2702,1072 2701,1073 2697,1073 2696,1074 2691,1074 2690,1075 2685,1075 2684,1076 2679,1076 2678,1077 2673,1077 2672,1078 2668,1078 2667,1079 2658,1079 2657,1080 2654,1080 2653,1081 2651,1081 2650,1082 2647,1082 2646,1083 2644,1083 2643,1084 2635,1084 2634,1085 2625,1085 2624,1086 2620,1086 2619,1087 2616,1087 2615,1088 2612,1088 2611,1089 2608,1089 2607,1090 2606,1090 2604,1092 2603,1092 2602,1093 2602,1094 2598,1098 2598,1099 2596,1101 2596,1104 2595,1105 2595,1106 2596,1107 2596,1129 2595,1130 2595,1163 2596,1164 2596,1180 2595,1181 2595,1212 2596,1213 2596,1266 2597,1267 2597,1275 2596,1276 2596,1312 2595,1313 2595,1350 2596,1351 2596,1357 2595,1358 2595,1372 2594,1373 2594,1465 2595,1466 2595,1595 2594,1596 2594,1606 2595,1607 2595,1623 2596,1624 2596,1636 2597,1637 2597,1644 2596,1645 2596,1660 2597,1661 2597,1813 2596,1814 2596,1843 2595,1844 2595,1858 2596,1859 2596,1887 2595,1888 2595,1898 2594,1899 2594,1913 2595,1914 2595,1918 2596,1919 2596,1921 2597,1922 2597,1923 2598,1924 2598,1925 2599,1926 2599,1928 2598,1929 2598,1931 2597,1932 2597,1934 2596,1935 2596,1948 2597,1949 2597,1997 2596,1998 2596,2000 2595,2001 2595,2003 2594,2004 2594,2007 2593,2008 2593,2009 2594,2010 2594,2013 2595,2014 2595,2015 2597,2017 2597,2018 2598,2018 2601,2021 2602,2021 2604,2023 2602,2025 2601,2025 2600,2026 2600,2027 2599,2028 2599,2029 2598,2030 2598,2031 2597,2032 2597,2036 2598,2037 2598,2039 2599,2040 2599,2041 2600,2042 2602,2042 2603,2041 2606,2041 2607,2040 2610,2040 2611,2039 2613,2039 2614,2038 2615,2038 2616,2037 2617,2037 2619,2035 2620,2035 2623,2032 2623,2027 2622,2026 2622,2025 2621,2024 2621,2023 2622,2022 2624,2022 2625,2023 2625,2027 2626,2028 2626,2030 2627,2030 2628,2031 2634,2031 2635,2030 2637,2030 2638,2029 2639,2029 2643,2025 2643,2024 2645,2022 2648,2022 2649,2023 2650,2023 2652,2025 2653,2025 2654,2026 2657,2026 2658,2027 2660,2027 2661,2028 2666,2028 2667,2029 2678,2029 2679,2028 2684,2028 2685,2027 2688,2027 2689,2026 2694,2026 2695,2025 2698,2025 2699,2024 2702,2024 2703,2023 2704,2023 2705,2022 2707,2022 2708,2021 2710,2021 2711,2020 2713,2020 2714,2019 2715,2019 2716,2018 2717,2018 2718,2017 2720,2017 2721,2016 2723,2016 2724,2015 2730,2015 2731,2014 2741,2014 2742,2013 2746,2013 2747,2012 2750,2012 2751,2011 2767,2011 2768,2010 2770,2010 2771,2009 2773,2009 2774,2008 2775,2008 2776,2007 2777,2007 2778,2006 2781,2006 2782,2005 2787,2005 2788,2004 2793,2004 2794,2003 2799,2003 2800,2002 2802,2002 2804,2000 2805,2000 2808,1997 2809,1997 2812,1994 2816,1994 2817,1995 2818,1995 2819,1996 2820,1996 2821,1997 2822,1997 2823,1998 2825,1998 2826,1999 2828,1999 2829,2000 2835,2000 2836,2001 2837,2001 2838,2000 2842,2000 2843,1999 2845,1999 2846,1998 2848,1998 2849,1997 2852,1997 2853,1996 2857,1996 2858,1995 2862,1995 2863,1994 2864,1994 2865,1993 2867,1993 2868,1992 2869,1992 2870,1991 2872,1991 2873,1990 2884,1990 2885,1989 2890,1989 2891,1988 2894,1988 2895,1987 2896,1987 2897,1986 2898,1986 2899,1985 2900,1985 2902,1983 2903,1983 2904,1982 2905,1982 2906,1981 2908,1981 2909,1980 2913,1980 2914,1981 2922,1981 2923,1980 2925,1980 2926,1979 2928,1979 2929,1978 2931,1978 2932,1977 2933,1977 2934,1976 2935,1976 2936,1975 2937,1975 2939,1973 2939,1972 2940,1971 2940,1968 2941,1967 2941,1963 2942,1962 2942,1960 2943,1959 2943,1954 2944,1953 2944,1934 2943,1933 2943,1930 2942,1929 2942,1918 2943,1917 2943,1913 2942,1912 2942,1909 2941,1908 2941,1905 2940,1904 2940,1895 2941,1894 2941,1886 2942,1885 2942,1879 2943,1878 2943,1876 2944,1875 2944,1873 2945,1872 2945,1866 2946,1865 2945,1864 2945,1858 2944,1857 2944,1828 2945,1827 2945,1801 2946,1800 2946,1785 2947,1784 2947,1766 2946,1765 2946,1763 2945,1762 2945,1760 2944,1759 2944,1757 2945,1756 2945,1751 2946,1750 2946,1744 2945,1743 2945,1725 2946,1724 2946,1694 2945,1693 2945,1681 2946,1680 2946,1666 2945,1665 2946,1664 2946,1647 2945,1646 2945,1642 2944,1641 2944,1625 2945,1624 2945,1621 2946,1620 2946,1616 2947,1615 2947,1607 2948,1606 2948,1568 2949,1567 2949,1551 2948,1550 2948,1537 2949,1536 2949,1511 2950,1510 2950,1505 2949,1504 2949,1493 2950,1492 2950,1441 2951,1440 2951,1386 2952,1385 2952,1378 2953,1377 2953,1360 2952,1359 2952,1353 2951,1352 2951,1351 2952,1350 2952,1341 2951,1340 2951,1332 2950,1331 2950,1304 2951,1303 2951,1251 2952,1250 2952,1214 2953,1213 2953,1206 2954,1205 2954,1199 2955,1198 2955,1181 2954,1180 2954,1174 2953,1173 2953,1156 2954,1155 2954,1141 2955,1140 2955,1137 2954,1136 2954,1122 2955,1121 2955,1111 2954,1110 2954,1103 2953,1102 2953,1101 2954,1100 2954,1083 2955,1082 2955,1077 2954,1076 2954,1069 2953,1068 2953,1064 2954,1063 2954,1055 2953,1054 2953,1052 2952,1051 2952,1050 2951,1049 2951,1048 2948,1045 2947,1045 2946,1044" fill="rgba(121,210,214,0.3)" stroke="rgb(121,210,214)" stroke-width="2" data-block-id="0002" data-name="b-0004" /><text x="2781" y="1643" text-anchor="middle" dominant-baseline="middle" class="block-label" fill="rgb(121,210,214)" stroke="white" stroke-width="3" paint-order="stroke">b-0004</text><polygon points="3405,989 3404,990 3402,990 3401,991 3400,991 3399,992 3396,992 3395,993 3391,993 3390,994 3382,994 3381,993 3370,993 3369,994 3363,994 3362,995 3360,995 3359,996 3357,996 3356,997 3354,997 3353,998 3351,998 3350,999 3343,999 3342,998 3340,998 3339,999 3335,999 3334,1000 3330,1000 3329,1001 3314,1001 3313,1002 3311,1002 3310,1003 3308,1003 3307,1004 3304,1004 3303,1005 3269,1005 3268,1006 3252,1006 3251,1007 3242,1007 3241,1008 3236,1008 3235,1009 3226,1009 3225,1010 3215,1010 3214,1011 3205,1011 3204,1012 3194,1012 3193,1013 3191,1013 3190,1014 3187,1014 3186,1015 3158,1015 3157,1016 3148,1016 3147,1017 3143,1017 3142,1018 3138,1018 3137,1019 3132,1019 3131,1020 3126,1020 3125,1021 3122,1021 3121,1022 3117,1022 3116,1023 3108,1023 3107,1024 3103,1024 3102,1025 3097,1025 3096,1026 3087,1026 3086,1027 3082,1027 3081,1028 3076,1028 3075,1029 3072,1029 3071,1030 3068,1030 3066,1032 3065,1032 3064,1033 3064,1037 3063,1038 3063,1058 3064,1059 3064,1061 3065,1062 3065,1063 3066,1064 3066,1074 3065,1075 3065,1085 3066,1086 3066,1093 3065,1094 3065,1096 3064,1097 3064,1098 3063,1099 3063,1108 3064,1109 3064,1112 3065,1113 3065,1119 3064,1120 3064,1127 3063,1128 3063,1132 3062,1133 3062,1142 3061,1143 3061,1248 3060,1249 3060,1283 3061,1284 3061,1291 3062,1292 3062,1299 3063,1300 3063,1309 3062,1310 3062,1314 3061,1315 3061,1339 3062,1340 3061,1341 3061,1348 3060,1349 3060,1360 3059,1361 3059,1369 3060,1370 3060,1388 3059,1389 3059,1433 3060,1434 3060,1458 3061,1459 3061,1460 3060,1461 3060,1464 3059,1465 3059,1470 3058,1471 3058,1475 3059,1476 3059,1492 3060,1493 3060,1500 3059,1501 3059,1553 3058,1554 3058,1560 3059,1561 3059,1594 3058,1595 3058,1684 3057,1685 3057,1716 3058,1717 3058,1727 3059,1728 3059,1731 3060,1732 3060,1738 3059,1739 3059,1742 3058,1743 3058,1885 3057,1886 3057,1895 3058,1896 3058,1934 3057,1935 3057,1937 3058,1938 3058,1942 3059,1943 3059,1944 3060,1945 3060,1946 3061,1947 3061,1948 3062,1949 3063,1949 3064,1950 3077,1950 3078,1951 3087,1951 3088,1952 3106,1952 3107,1953 3134,1953 3135,1954 3154,1954 3155,1955 3182,1955 3183,1956 3202,1956 3203,1957 3231,1957 3232,1958 3270,1958 3271,1959 3301,1959 3302,1960 3307,1960 3308,1959 3316,1959 3317,1960 3346,1960 3347,1961 3361,1961 3362,1960 3369,1960 3370,1959 3373,1959 3374,1958 3375,1958 3376,1957 3378,1957 3379,1956 3380,1956 3384,1952 3384,1951 3385,1950 3389,1950 3390,1951 3390,1952 3393,1955 3394,1955 3396,1957 3398,1957 3400,1955 3400,1952 3401,1951 3401,1947 3402,1946 3402,1943 3403,1942 3403,1939 3404,1938 3404,1937 3405,1936 3405,1932 3406,1931 3406,1908 3407,1907 3407,1800 3408,1799 3408,1740 3407,1739 3407,1725 3408,1724 3408,1722 3407,1721 3407,1673 3408,1672 3408,1647 3409,1646 3409,1571 3410,1570 3410,1444 3411,1443 3411,1432 3412,1431 3412,1397 3411,1396 3411,1368 3412,1367 3412,1366 3411,1365 3411,1323 3410,1322 3410,1316 3411,1315 3411,1310 3412,1309 3412,1278 3413,1277 3413,1260 3414,1259 3414,1244 3413,1243 3413,1239 3412,1238 3412,1234 3411,1233 3412,1232 3412,1226 3413,1225 3413,1191 3412,1190 3412,1180 3413,1179 3413,1142 3412,1141 3412,1137 3413,1136 3413,1109 3414,1108 3414,1096 3413,1095 3413,1089 3414,1088 3414,1012 3415,1011 3415,1009 3414,1008 3414,999 3413,998 3413,994 3412,993 3412,991 3410,989" fill="rgba(74,202,87,0.3)" stroke="rgb(74,202,87)" stroke-width="2" data-block-id="0003" data-name="b-0005" /><text x="3230" y="1387" text-anchor="middle" dominant-baseline="middle" class="block-label" fill="rgb(74,202,87)" stroke="white" stroke-width="3" paint-order="stroke">b-0005</text><polygon points="3836,928 3835,929 3827,929 3826,930 3813,930 3812,931 3808,931 3807,932 3790,932 3789,933 3786,933 3785,934 3781,934 3780,935 3773,935 3772,936 3752,936 3751,937 3748,937 3747,938 3744,938 3743,939 3737,939 3736,940 3732,940 3731,941 3728,941 3727,942 3723,942 3722,943 3720,943 3719,944 3718,944 3717,945 3716,945 3715,946 3714,946 3712,948 3711,948 3710,949 3709,949 3708,950 3693,950 3692,951 3686,951 3685,952 3671,952 3670,953 3664,953 3663,954 3657,954 3656,955 3646,955 3645,956 3638,956 3637,957 3629,957 3628,958 3620,958 3619,959 3611,959 3610,960 3603,960 3602,961 3594,961 3593,962 3589,962 3588,963 3587,963 3586,964 3583,964 3582,965 3579,965 3578,966 3576,966 3575,965 3571,965 3570,964 3568,964 3567,963 3563,963 3562,964 3560,964 3559,965 3555,965 3554,966 3553,966 3552,967 3551,967 3550,968 3548,968 3547,969 3546,969 3545,970 3544,970 3543,971 3542,971 3541,972 3540,972 3539,973 3538,973 3537,974 3537,976 3536,977 3536,978 3535,979 3535,982 3534,983 3534,985 3533,986 3533,987 3532,988 3532,989 3531,990 3531,993 3530,994 3530,1000 3529,1001 3529,1006 3528,1007 3528,1019 3527,1020 3527,1042 3528,1043 3528,1050 3529,1051 3529,1053 3530,1054 3530,1056 3529,1057 3529,1059 3528,1060 3528,1064 3527,1065 3527,1069 3528,1070 3528,1075 3529,1076 3529,1078 3530,1079 3530,1081 3529,1082 3529,1084 3528,1085 3528,1104 3527,1105 3527,1117 3528,1118 3528,1123 3529,1124 3529,1134 3528,1135 3528,1164 3527,1165 3527,1167 3526,1168 3526,1173 3525,1174 3525,1178 3526,1179 3526,1281 3525,1282 3525,1289 3524,1290 3524,1305 3525,1306 3525,1318 3526,1319 3525,1320 3525,1386 3526,1387 3526,1390 3525,1391 3525,1394 3524,1395 3524,1409 3525,1410 3525,1419 3524,1420 3524,1473 3523,1474 3523,1762 3522,1763 3522,1929 3523,1930 3523,1931 3524,1932 3524,1933 3526,1935 3528,1935 3529,1936 3544,1936 3545,1935 3552,1935 3553,1934 3560,1934 3561,1933 3572,1933 3573,1932 3584,1932 3585,1931 3594,1931 3595,1930 3602,1930 3603,1929 3615,1929 3616,1928 3620,1928 3621,1927 3624,1927 3625,1926 3637,1926 3638,1925 3642,1925 3643,1924 3646,1924 3647,1923 3651,1923 3652,1922 3656,1922 3657,1921 3660,1921 3661,1920 3684,1920 3685,1919 3696,1919 3697,1918 3703,1918 3704,1917 3706,1917 3707,1916 3722,1916 3723,1915 3733,1915 3734,1914 3741,1914 3742,1913 3751,1913 3752,1912 3762,1912 3763,1911 3773,1911 3774,1910 3787,1910 3788,1909 3796,1909 3797,1908 3805,1908 3806,1907 3811,1907 3812,1906 3816,1906 3817,1905 3823,1905 3824,1904 3830,1904 3831,1903 3834,1903 3835,1902 3837,1902 3838,1901 3839,1901 3842,1898 3842,1897 3843,1896 3843,1895 3844,1894 3844,1893 3845,1892 3845,1886 3844,1885 3844,1854 3845,1853 3844,1852 3844,1836 3845,1835 3845,1739 3846,1738 3846,1728 3845,1727 3845,1693 3846,1692 3846,1682 3845,1681 3845,1647 3844,1646 3844,1643 3843,1642 3843,1636 3844,1635 3844,1629 3845,1628 3845,1605 3846,1604 3846,1561 3845,1560 3845,1556 3846,1555 3846,1502 3847,1501 3847,1492 3846,1491 3846,1454 3847,1453 3847,1444 3846,1443 3846,1408 3847,1407 3847,1381 3848,1380 3848,1359 3849,1358 3849,1347 3848,1346 3848,1313 3849,1312 3849,1296 3848,1295 3848,1266 3849,1265 3849,1258 3850,1257 3849,1256 3849,1217 3850,1216 3850,1204 3849,1203 3849,1192 3850,1191 3850,1130 3849,1129 3849,1126 3850,1125 3850,1118 3851,1117 3851,1112 3850,1111 3850,1095 3851,1094 3851,1088 3850,1087 3850,1076 3851,1075 3851,1067 3852,1066 3852,1064 3851,1063 3851,1054 3852,1053 3852,1030 3853,1029 3853,1013 3854,1012 3854,984 3855,983 3855,951 3854,950 3854,946 3855,945 3855,936 3854,935 3854,934 3853,933 3852,933 3850,931 3848,931 3847,930 3846,930 3845,929 3843,929 3842,928" fill="rgba(116,99,103,0.3)" stroke="rgb(116,99,103)" stroke-width="2" data-block-id="0004" data-name="b-0006" /><text x="3690" y="1319" text-anchor="middle" dominant-baseline="middle" class="block-label" fill="rgb(116,99,103)" stroke="white" stroke-width="3" paint-order="stroke">b-0006</text><polygon points="1397,284 1396,285 1389,285 1388,286 1379,286 1378,287 1367,287 1366,288 1361,288 1360,289 1355,289 1354,290 1342,290 1341,291 1317,291 1316,292 1314,292 1313,293 1311,293 1310,294 1307,294 1306,295 1291,295 1290,296 1280,296 1279,295 1274,295 1273,294 1263,294 1262,295 1258,295 1257,296 1255,296 1254,297 1252,297 1251,298 1246,298 1245,299 1230,299 1229,300 1214,300 1213,301 1208,301 1207,302 1201,302 1200,303 1191,303 1190,304 1168,304 1167,305 1162,305 1161,306 1157,306 1156,307 1151,307 1150,308 1134,308 1133,309 1114,309 1113,310 1112,310 1111,311 1109,311 1108,312 1107,312 1106,313 1100,313 1099,314 1082,314 1081,315 1074,315 1073,316 1068,316 1067,317 1065,317 1064,318 1061,318 1060,319 1057,319 1056,320 1048,320 1047,321 1025,321 1024,322 1018,322 1017,323 1013,323 1012,324 1008,324 1007,325 1006,325 1005,324 998,324 997,323 996,324 993,324 992,325 990,325 989,326 986,326 985,327 981,327 980,328 976,328 975,329 970,329 969,330 948,330 947,331 942,331 941,332 935,332 934,333 927,333 926,334 920,334 919,335 912,335 911,336 903,336 902,337 899,337 898,338 896,338 895,339 893,339 892,340 889,340 888,341 878,341 877,342 868,342 867,343 856,343 855,344 845,344 844,345 833,345 832,346 827,346 826,347 824,347 823,348 820,348 819,349 811,349 810,348 801,348 800,349 793,349 792,350 785,350 784,351 779,351 778,352 774,352 773,353 763,353 762,354 743,354 742,355 735,355 734,356 718,356 717,355 712,355 711,354 705,354 704,355 698,355 697,356 695,356 694,357 693,357 692,358 691,358 689,360 688,360 686,362 686,363 685,364 685,365 684,366 684,369 683,370 683,372 682,373 682,381 683,382 683,387 684,388 684,392 685,393 685,403 686,404 686,415 687,416 687,421 688,422 688,426 689,427 689,430 690,431 690,434 691,435 691,444 692,445 692,455 693,456 693,465 694,466 694,485 695,486 695,490 696,491 696,495 697,496 697,500 698,501 698,504 699,505 699,508 700,509 700,514 701,515 701,526 702,527 702,536 703,537 703,558 704,559 704,565 705,566 705,574 706,575 706,579 707,580 707,582 708,583 708,586 709,587 709,597 710,598 710,608 711,609 711,617 712,618 712,626 713,627 713,634 714,635 714,641 715,642 715,648 716,649 716,652 717,653 717,657 718,658 718,666 719,667 719,675 720,676 720,679 721,680 721,682 722,683 722,685 723,686 723,692 724,693 724,707 725,708 725,725 726,726 726,733 727,734 727,736 731,740 733,740 734,741 737,741 738,740 746,740 747,739 754,739 755,738 777,738 778,737 785,737 786,736 793,736 794,735 804,735 805,734 808,734 809,733 811,733 812,732 815,732 816,731 823,731 824,730 831,730 832,729 837,729 838,728 850,728 851,727 865,727 866,726 879,726 880,725 885,725 886,724 894,724 895,723 906,723 907,722 913,722 914,721 921,721 922,720 927,720 928,719 935,719 936,718 943,718 944,717 953,717 954,716 966,716 967,715 973,715 974,714 977,714 978,713 981,713 982,712 988,712 989,711 996,711 997,710 999,710 1000,709 1002,709 1003,708 1005,708 1006,707 1013,707 1014,706 1023,706 1024,705 1043,705 1044,704 1053,704 1054,703 1065,703 1066,702 1073,702 1074,701 1081,701 1082,700 1089,700 1090,699 1097,699 1098,698 1104,698 1105,697 1115,697 1116,696 1121,696 1122,695 1138,695 1139,694 1146,694 1147,693 1156,693 1157,692 1165,692 1166,691 1174,691 1175,690 1183,690 1184,689 1190,689 1191,688 1196,688 1197,687 1208,687 1209,686 1213,686 1214,685 1218,685 1219,684 1222,684 1223,683 1231,683 1232,682 1241,682 1242,681 1256,681 1257,680 1265,680 1266,679 1274,679 1275,678 1282,678 1283,677 1300,677 1301,676 1311,676 1312,675 1320,675 1321,674 1327,674 1328,673 1333,673 1334,674 1346,674 1347,673 1350,673 1351,672 1354,672 1355,671 1360,671 1361,670 1364,670 1365,669 1370,669 1371,668 1389,668 1390,667 1395,667 1396,666 1400,666 1401,665 1414,665 1415,664 1419,664 1420,663 1424,663 1425,662 1427,662 1428,661 1429,661 1430,660 1432,660 1433,659 1436,659 1437,658 1448,658 1449,657 1451,657 1452,656 1453,656 1456,653 1456,652 1457,651 1457,638 1456,637 1456,630 1455,629 1455,621 1454,620 1454,613 1453,612 1453,598 1452,597 1452,587 1451,586 1451,571 1450,570 1450,564 1449,563 1449,556 1448,555 1448,547 1447,546 1447,537 1446,536 1446,523 1445,522 1445,513 1444,512 1444,493 1443,492 1443,487 1442,486 1442,468 1441,467 1441,458 1440,457 1440,449 1439,448 1439,442 1438,441 1438,437 1437,436 1437,432 1436,431 1436,427 1435,426 1435,421 1434,420 1434,409 1433,408 1433,403 1432,402 1432,396 1431,395 1431,388 1430,387 1430,382 1431,381 1431,376 1430,375 1430,365 1429,364 1429,357 1428,356 1428,351 1427,350 1427,346 1426,345 1426,342 1425,341 1425,329 1424,328 1424,325 1423,324 1423,320 1422,319 1422,301 1421,300 1421,296 1420,295 1420,292 1419,291 1419,290 1418,289 1418,288 1415,285 1413,285 1412,284" fill="rgba(52,1,87,0.3)" stroke="rgb(52,1,87)" stroke-width="2" data-block-id="0005" data-name="b-0009" /><text x="1059" y="505" text-anchor="middle" dominant-baseline="middle" class="block-label" fill="rgb(52,1,87)" stroke="white" stroke-width="3" paint-order="stroke">b-0009</text><polygon points="1457,753 1456,754 1450,754 1449,755 1443,755 1442,756 1436,756 1435,757 1429,757 1428,758 1421,758 1420,759 1416,759 1415,760 1410,760 1409,761 1404,761 1403,762 1398,762 1397,763 1378,763 1377,764 1373,764 1372,765 1369,765 1368,766 1350,766 1349,767 1339,767 1338,768 1326,768 1325,769 1317,769 1316,770 1311,770 1310,771 1303,771 1302,772 1295,772 1294,773 1286,773 1285,774 1273,774 1272,775 1261,775 1260,776 1255,776 1254,777 1243,777 1242,778 1232,778 1231,779 1226,779 1225,780 1213,780 1212,781 1207,781 1206,782 1203,782 1202,783 1198,783 1197,784 1188,784 1187,785 1182,785 1181,786 1163,786 1162,787 1157,787 1156,788 1137,788 1136,789 1130,789 1129,790 1115,790 1114,791 1111,791 1110,792 1108,792 1107,793 1102,793 1101,794 1093,794 1092,795 1083,795 1082,796 1077,796 1076,797 1070,797 1069,798 1064,798 1063,799 1060,799 1059,800 1052,800 1051,801 1041,801 1040,802 1035,802 1034,803 1027,803 1026,804 1020,804 1019,805 1015,805 1014,806 1010,806 1009,807 1001,807 1000,808 992,808 991,809 983,809 982,810 972,810 971,811 967,811 966,812 962,812 961,813 952,813 951,814 944,814 943,815 939,815 938,816 933,816 932,817 927,817 926,818 920,818 919,819 912,819 911,820 904,820 903,821 896,821 895,822 889,822 888,823 883,823 882,824 878,824 877,825 850,825 849,826 843,826 842,827 830,827 829,828 825,828 824,829 820,829 819,830 813,830 812,831 805,831 804,832 800,832 799,833 794,833 793,834 779,834 778,835 773,835 772,836 765,836 764,837 756,837 755,838 752,838 751,839 749,839 748,840 747,840 745,842 744,842 744,843 743,844 743,845 742,846 742,847 741,848 741,850 740,851 740,863 741,864 741,873 742,874 742,881 743,882 743,887 744,888 744,893 745,894 745,899 746,900 746,908 747,909 747,916 748,917 748,922 749,923 749,934 750,935 750,951 751,952 751,959 752,960 752,964 753,965 753,968 754,969 754,978 755,979 755,988 756,989 756,995 757,996 757,1009 758,1010 758,1015 759,1016 759,1022 760,1023 760,1034 761,1035 761,1054 762,1055 762,1062 763,1063 763,1068 764,1069 764,1073 765,1074 765,1079 766,1080 766,1089 767,1090 767,1098 768,1099 768,1105 769,1106 769,1111 770,1112 770,1120 771,1121 771,1134 772,1135 772,1149 773,1150 773,1160 774,1161 774,1174 775,1175 775,1185 776,1186 776,1193 777,1194 777,1200 778,1201 778,1208 779,1209 779,1211 783,1215 786,1215 787,1216 789,1216 790,1217 800,1217 801,1216 809,1216 810,1215 818,1215 819,1214 830,1214 831,1213 833,1213 834,1212 836,1212 837,1211 839,1211 840,1210 878,1210 879,1209 884,1209 885,1208 891,1208 892,1207 902,1207 903,1206 907,1206 908,1205 911,1205 912,1204 917,1204 918,1203 922,1203 923,1202 928,1202 929,1201 936,1201 937,1200 944,1200 945,1199 954,1199 955,1198 966,1198 967,1197 978,1197 979,1196 986,1196 987,1195 995,1195 996,1194 999,1194 1000,1193 1002,1193 1003,1192 1006,1192 1007,1191 1020,1191 1021,1190 1029,1190 1030,1189 1046,1189 1047,1188 1051,1188 1052,1187 1056,1187 1057,1186 1068,1186 1069,1185 1071,1185 1072,1184 1074,1184 1075,1183 1078,1183 1079,1182 1087,1182 1088,1181 1102,1181 1103,1180 1109,1180 1110,1179 1114,1179 1115,1178 1120,1178 1121,1177 1127,1177 1128,1176 1135,1176 1136,1175 1141,1175 1142,1174 1145,1174 1146,1173 1148,1173 1149,1172 1156,1172 1157,1171 1166,1171 1167,1170 1175,1170 1176,1169 1187,1169 1188,1168 1192,1168 1193,1167 1196,1167 1197,1166 1213,1166 1214,1165 1220,1165 1221,1164 1236,1164 1237,1163 1241,1163 1242,1162 1261,1162 1262,1161 1266,1161 1267,1160 1272,1160 1273,1159 1278,1159 1279,1158 1287,1158 1288,1157 1296,1157 1297,1156 1305,1156 1306,1155 1312,1155 1313,1154 1318,1154 1319,1153 1323,1153 1324,1152 1328,1152 1329,1151 1333,1151 1334,1150 1338,1150 1339,1149 1346,1149 1347,1148 1356,1148 1357,1147 1367,1147 1368,1146 1373,1146 1374,1145 1379,1145 1380,1144 1390,1144 1391,1143 1401,1143 1402,1142 1407,1142 1408,1141 1412,1141 1413,1140 1423,1140 1424,1139 1429,1139 1430,1138 1436,1138 1437,1137 1451,1137 1452,1136 1456,1136 1457,1135 1463,1135 1464,1134 1482,1134 1483,1133 1494,1133 1495,1132 1499,1132 1500,1131 1502,1131 1503,1130 1504,1130 1505,1129 1506,1129 1508,1127 1508,1126 1509,1125 1509,1123 1510,1122 1510,1118 1511,1117 1511,1114 1510,1113 1510,1109 1509,1108 1509,1104 1508,1103 1508,1100 1507,1099 1507,1096 1506,1095 1506,1092 1505,1091 1505,1077 1504,1076 1504,1067 1503,1066 1503,1060 1502,1059 1502,1053 1501,1052 1501,1046 1500,1045 1500,1029 1499,1028 1499,1023 1498,1022 1498,1017 1497,1016 1497,1010 1496,1009 1496,1004 1495,1003 1495,1000 1494,999 1494,995 1493,994 1493,989 1492,988 1492,982 1491,981 1491,978 1490,977 1490,973 1489,972 1489,945 1488,944 1488,923 1487,922 1487,914 1486,913 1486,905 1485,904 1485,896 1484,895 1484,887 1483,886 1483,882 1482,881 1482,874 1481,873 1481,858 1480,857 1480,841 1479,840 1479,833 1478,832 1478,826 1477,825 1477,817 1476,816 1476,802 1475,801 1475,794 1474,793 1474,781 1473,780 1473,776 1472,775 1472,770 1471,769 1471,764 1470,763 1470,760 1469,759 1469,758 1468,757 1468,756 1467,755 1466,755 1465,754 1464,754 1463,753" fill="rgba(235,157,37,0.3)" stroke="rgb(235,157,37)" stroke-width="2" data-block-id="0006" data-name="b-0010" /><text x="1128" y="984" text-anchor="middle" dominant-baseline="middle" class="block-label" fill="rgb(235,157,37)" stroke="white" stroke-width="3" paint-order="stroke">b-0010</text><polygon points="1499,1222 1498,1223 1486,1223 1485,1224 1479,1224 1478,1225 1466,1225 1465,1226 1459,1226 1458,1227 1455,1227 1454,1228 1451,1228 1450,1229 1445,1229 1444,1230 1439,1230 1438,1231 1434,1231 1433,1232 1426,1232 1425,1233 1420,1233 1419,1234 1414,1234 1413,1235 1407,1235 1406,1236 1399,1236 1398,1237 1391,1237 1390,1238 1368,1238 1367,1239 1362,1239 1361,1240 1359,1240 1358,1241 1356,1241 1355,1242 1350,1242 1349,1243 1338,1243 1337,1244 1331,1244 1330,1245 1319,1245 1318,1246 1315,1246 1314,1247 1311,1247 1310,1248 1307,1248 1306,1249 1283,1249 1282,1250 1271,1250 1270,1251 1268,1251 1267,1252 1265,1252 1264,1253 1262,1253 1261,1254 1259,1254 1258,1255 1245,1255 1244,1256 1239,1256 1238,1257 1233,1257 1232,1258 1225,1258 1224,1259 1214,1259 1213,1260 1196,1260 1195,1261 1188,1261 1187,1262 1182,1262 1181,1263 1175,1263 1174,1264 1169,1264 1168,1265 1164,1265 1163,1266 1159,1266 1158,1267 1152,1267 1151,1268 1136,1268 1135,1269 1130,1269 1129,1270 1097,1270 1096,1271 1090,1271 1089,1272 1082,1272 1081,1273 1076,1273 1075,1274 1071,1274 1070,1275 1065,1275 1064,1276 1056,1276 1055,1277 1047,1277 1046,1278 1038,1278 1037,1279 1030,1279 1029,1280 1022,1280 1021,1281 1001,1281 1000,1282 994,1282 993,1283 986,1283 985,1284 979,1284 978,1285 972,1285 971,1286 966,1286 965,1287 952,1287 951,1288 943,1288 942,1289 937,1289 936,1290 935,1290 934,1291 932,1291 931,1292 928,1292 927,1293 922,1293 921,1294 905,1294 904,1295 893,1295 892,1296 880,1296 879,1297 873,1297 872,1298 867,1298 866,1299 855,1299 854,1300 850,1300 849,1301 844,1301 843,1302 838,1302 837,1303 831,1303 830,1304 824,1304 823,1305 818,1305 817,1306 807,1306 806,1307 803,1307 802,1308 800,1308 799,1309 798,1309 796,1311 795,1311 795,1312 794,1313 794,1314 793,1315 793,1318 792,1319 792,1321 791,1322 791,1327 792,1328 792,1331 793,1332 793,1336 794,1337 794,1347 795,1348 795,1353 796,1354 796,1361 797,1362 797,1378 798,1379 798,1387 799,1388 799,1393 800,1394 800,1404 801,1405 801,1412 802,1413 802,1419 803,1420 803,1434 804,1435 804,1440 805,1441 805,1451 806,1452 806,1462 807,1463 807,1470 808,1471 808,1475 809,1476 809,1479 810,1480 810,1494 811,1495 811,1502 812,1503 812,1517 813,1518 813,1523 814,1524 814,1528 815,1529 815,1532 816,1533 816,1536 817,1537 817,1551 818,1552 818,1562 819,1563 819,1570 820,1571 820,1579 821,1580 821,1585 822,1586 822,1595 823,1596 823,1603 824,1604 824,1610 825,1611 825,1624 826,1625 826,1629 827,1630 827,1638 828,1639 828,1652 829,1653 829,1659 830,1660 830,1665 831,1666 831,1669 832,1670 832,1672 837,1677 838,1677 839,1678 841,1678 842,1679 848,1679 849,1678 856,1678 857,1679 868,1679 869,1678 876,1678 877,1677 882,1677 883,1676 887,1676 888,1675 902,1675 903,1674 909,1674 910,1673 916,1673 917,1672 923,1672 924,1671 931,1671 932,1670 939,1670 940,1669 947,1669 948,1668 953,1668 954,1667 958,1667 959,1666 971,1666 972,1665 979,1665 980,1664 997,1664 998,1663 1000,1663 1001,1662 1003,1662 1004,1661 1007,1661 1008,1660 1018,1660 1019,1659 1025,1659 1026,1658 1032,1658 1033,1657 1046,1657 1047,1656 1052,1656 1053,1655 1063,1655 1064,1654 1079,1654 1080,1653 1088,1653 1089,1652 1100,1652 1101,1651 1111,1651 1112,1650 1118,1650 1119,1649 1126,1649 1127,1648 1132,1648 1133,1647 1138,1647 1139,1646 1142,1646 1143,1645 1146,1645 1147,1644 1154,1644 1155,1643 1169,1643 1170,1642 1180,1642 1181,1641 1188,1641 1189,1640 1193,1640 1194,1639 1198,1639 1199,1638 1216,1638 1217,1637 1224,1637 1225,1636 1237,1636 1238,1635 1241,1635 1242,1634 1244,1634 1245,1633 1247,1633 1248,1632 1263,1632 1264,1631 1273,1631 1274,1630 1282,1630 1283,1629 1296,1629 1297,1628 1309,1628 1310,1627 1316,1627 1317,1626 1322,1626 1323,1625 1327,1625 1328,1624 1334,1624 1335,1623 1340,1623 1341,1622 1347,1622 1348,1621 1356,1621 1357,1620 1364,1620 1365,1619 1371,1619 1372,1618 1380,1618 1381,1617 1387,1617 1388,1616 1402,1616 1403,1615 1411,1615 1412,1614 1419,1614 1420,1613 1429,1613 1430,1612 1446,1612 1447,1611 1452,1611 1453,1610 1456,1610 1457,1609 1460,1609 1461,1608 1469,1608 1470,1607 1477,1607 1478,1606 1492,1606 1493,1605 1500,1605 1501,1604 1504,1604 1505,1603 1509,1603 1510,1602 1516,1602 1517,1601 1535,1601 1536,1600 1540,1600 1541,1599 1545,1599 1546,1598 1548,1598 1549,1597 1551,1597 1552,1596 1554,1596 1556,1594 1557,1594 1562,1589 1562,1578 1561,1577 1561,1573 1560,1572 1560,1569 1559,1568 1559,1566 1558,1565 1558,1557 1557,1556 1557,1548 1556,1547 1556,1543 1555,1542 1555,1535 1554,1534 1554,1525 1553,1524 1553,1518 1552,1517 1552,1505 1551,1504 1551,1498 1550,1497 1550,1492 1549,1491 1549,1481 1548,1480 1548,1473 1547,1472 1547,1461 1546,1460 1546,1451 1545,1450 1545,1439 1544,1438 1544,1431 1543,1430 1543,1426 1542,1425 1542,1419 1541,1418 1541,1410 1540,1409 1540,1399 1539,1398 1539,1389 1538,1388 1538,1382 1537,1381 1537,1376 1536,1375 1536,1370 1535,1369 1535,1361 1534,1360 1534,1348 1533,1347 1533,1334 1532,1333 1532,1323 1531,1322 1531,1315 1530,1314 1530,1298 1529,1297 1529,1290 1528,1289 1528,1284 1527,1283 1527,1278 1526,1277 1526,1266 1525,1265 1525,1258 1524,1257 1524,1247 1523,1246 1523,1238 1522,1237 1522,1234 1521,1233 1521,1230 1520,1229 1520,1228 1516,1224 1515,1224 1514,1223 1513,1223 1512,1222" fill="rgba(129,191,187,0.3)" stroke="rgb(129,191,187)" stroke-width="2" data-block-id="0007" data-name="b-0011" /><text x="1172" y="1449" text-anchor="middle" dominant-baseline="middle" class="block-label" fill="rgb(129,191,187)" stroke="white" stroke-width="3" paint-order="stroke">b-0011</text><polygon points="1553,1688 1552,1689 1546,1689 1545,1690 1536,1690 1535,1691 1520,1691 1519,1692 1508,1692 1507,1693 1505,1693 1504,1694 1503,1694 1502,1695 1500,1695 1499,1696 1493,1696 1492,1697 1484,1697 1483,1698 1481,1698 1480,1699 1477,1699 1476,1700 1464,1700 1463,1699 1462,1700 1458,1700 1457,1701 1454,1701 1453,1702 1443,1702 1442,1703 1427,1703 1426,1704 1414,1704 1413,1705 1410,1705 1409,1706 1407,1706 1406,1707 1402,1707 1401,1708 1383,1708 1382,1709 1365,1709 1364,1710 1360,1710 1359,1711 1354,1711 1353,1712 1337,1712 1336,1713 1317,1713 1316,1714 1306,1714 1305,1715 1297,1715 1296,1716 1272,1716 1271,1717 1268,1717 1267,1718 1266,1718 1265,1719 1263,1719 1262,1720 1261,1720 1260,1721 1256,1721 1255,1722 1249,1722 1248,1723 1242,1723 1241,1724 1230,1724 1229,1725 1224,1725 1223,1726 1218,1726 1217,1727 1210,1727 1209,1728 1195,1728 1194,1729 1189,1729 1188,1730 1184,1730 1183,1731 1180,1731 1179,1732 1175,1732 1174,1733 1169,1733 1168,1734 1164,1734 1163,1735 1140,1735 1139,1736 1133,1736 1132,1737 1126,1737 1125,1738 1104,1738 1103,1739 1098,1739 1097,1740 1094,1740 1093,1741 1087,1741 1086,1742 1079,1742 1078,1743 1076,1743 1075,1744 1074,1744 1073,1745 1071,1745 1070,1746 1067,1746 1066,1747 1065,1746 1053,1746 1052,1747 1049,1747 1048,1748 1043,1748 1042,1749 1041,1748 1031,1748 1030,1749 1027,1749 1026,1750 1021,1750 1020,1751 1018,1751 1017,1750 1012,1750 1011,1749 1004,1749 1003,1750 999,1750 998,1751 995,1751 994,1752 992,1752 991,1753 989,1753 988,1754 986,1754 985,1755 984,1755 983,1756 981,1756 980,1757 978,1757 977,1758 973,1758 972,1759 958,1759 957,1758 946,1758 945,1759 941,1759 940,1760 932,1760 931,1761 906,1761 905,1762 899,1762 898,1763 895,1763 894,1764 890,1764 889,1765 880,1765 879,1766 871,1766 870,1767 865,1767 864,1768 862,1768 861,1769 860,1769 859,1770 857,1770 856,1771 853,1771 852,1772 851,1772 850,1773 849,1773 844,1778 844,1794 845,1795 845,1801 846,1802 846,1805 847,1806 847,1809 848,1810 848,1812 849,1813 849,1832 850,1833 850,1842 851,1843 851,1852 852,1853 852,1855 853,1856 853,1857 854,1858 854,1860 855,1861 855,1875 856,1876 856,1882 857,1883 857,1899 858,1900 858,1902 859,1903 859,1906 860,1907 860,1918 859,1919 859,1927 860,1928 860,1938 861,1939 861,1949 860,1950 860,1955 859,1956 859,1963 858,1964 858,1972 859,1973 859,1977 860,1978 860,1980 861,1981 861,1983 862,1984 862,1985 863,1986 863,1987 864,1988 864,1990 865,1991 865,1992 866,1993 866,1996 867,1997 867,2005 868,2006 868,2017 869,2018 869,2026 870,2027 870,2044 871,2045 871,2054 872,2055 872,2068 873,2069 873,2088 874,2089 874,2093 875,2094 875,2098 876,2099 876,2106 877,2107 877,2114 878,2115 878,2120 879,2121 879,2124 880,2125 880,2126 885,2131 886,2131 887,2132 888,2132 889,2133 894,2133 895,2134 898,2134 899,2135 903,2135 904,2136 910,2136 911,2137 924,2137 925,2136 928,2136 929,2135 933,2135 934,2134 938,2134 939,2133 948,2133 949,2132 953,2132 954,2131 959,2131 960,2130 965,2130 966,2129 973,2129 974,2128 990,2128 991,2127 998,2127 999,2126 1001,2126 1002,2125 1003,2125 1004,2124 1005,2124 1006,2123 1009,2123 1010,2122 1021,2122 1022,2121 1026,2121 1027,2120 1032,2120 1033,2119 1047,2119 1048,2118 1052,2118 1053,2117 1065,2117 1066,2116 1070,2116 1071,2115 1072,2115 1073,2114 1075,2114 1076,2113 1077,2113 1078,2112 1079,2112 1080,2111 1085,2111 1086,2110 1093,2110 1094,2109 1100,2109 1101,2108 1108,2108 1109,2107 1116,2107 1117,2106 1122,2106 1123,2105 1132,2105 1133,2104 1144,2104 1145,2103 1152,2103 1153,2102 1164,2102 1165,2101 1172,2101 1173,2100 1182,2100 1183,2099 1188,2099 1189,2098 1190,2098 1191,2097 1193,2097 1194,2096 1196,2096 1197,2095 1213,2095 1214,2094 1220,2094 1221,2093 1241,2093 1242,2092 1259,2092 1260,2091 1266,2091 1267,2090 1274,2090 1275,2089 1291,2089 1292,2088 1302,2088 1303,2087 1308,2087 1309,2086 1312,2086 1313,2085 1327,2085 1328,2086 1357,2086 1358,2085 1361,2085 1362,2084 1365,2084 1366,2083 1379,2083 1380,2082 1383,2082 1384,2081 1387,2081 1388,2080 1392,2080 1393,2079 1401,2079 1402,2078 1405,2078 1406,2077 1410,2077 1411,2076 1417,2076 1418,2075 1426,2075 1427,2074 1431,2074 1432,2073 1439,2073 1440,2072 1455,2072 1456,2071 1465,2071 1466,2070 1471,2070 1472,2069 1479,2069 1480,2068 1497,2068 1498,2067 1511,2067 1512,2066 1516,2066 1517,2065 1519,2065 1520,2064 1526,2064 1527,2065 1533,2065 1534,2064 1535,2064 1536,2063 1537,2063 1538,2062 1539,2062 1540,2061 1541,2061 1542,2060 1543,2060 1544,2059 1553,2059 1554,2060 1558,2060 1559,2059 1564,2059 1565,2058 1576,2058 1577,2057 1588,2057 1589,2056 1595,2056 1596,2055 1599,2055 1600,2054 1602,2054 1603,2053 1604,2053 1605,2052 1606,2052 1607,2051 1607,2050 1608,2049 1608,2047 1609,2046 1609,2041 1610,2040 1610,2025 1609,2024 1609,2012 1608,2011 1608,2004 1607,2003 1607,1999 1606,1998 1606,1993 1605,1992 1605,1987 1604,1986 1604,1981 1603,1980 1603,1977 1604,1976 1604,1970 1603,1969 1603,1966 1602,1965 1602,1962 1601,1961 1601,1949 1600,1948 1600,1939 1599,1938 1599,1924 1600,1923 1599,1922 1599,1917 1598,1916 1598,1913 1597,1912 1597,1907 1596,1906 1596,1902 1595,1901 1595,1895 1594,1894 1594,1886 1593,1885 1593,1880 1592,1879 1592,1875 1591,1874 1591,1863 1590,1862 1590,1859 1589,1858 1589,1855 1588,1854 1588,1840 1587,1839 1587,1832 1586,1831 1586,1824 1585,1823 1585,1800 1584,1799 1584,1792 1583,1791 1583,1775 1582,1774 1582,1770 1581,1769 1581,1766 1580,1765 1580,1753 1579,1752 1579,1749 1578,1748 1578,1745 1577,1744 1577,1730 1576,1729 1576,1725 1575,1724 1575,1720 1574,1719 1574,1717 1575,1716 1575,1711 1576,1710 1576,1705 1575,1704 1575,1701 1574,1700 1574,1698 1573,1697 1573,1695 1572,1694 1572,1693 1571,1693 1569,1691 1568,1691 1567,1690 1565,1690 1564,1689 1561,1689 1560,1688" fill="rgba(20,160,203,0.3)" stroke="rgb(20,160,203)" stroke-width="2" data-block-id="0008" data-name="b-0012" /><text x="1224" y="1910" text-anchor="middle" dominant-baseline="middle" class="block-label" fill="rgb(20,160,203)" stroke="white" stroke-width="3" paint-order="stroke">b-0012</text><polygon points="1601,2143 1600,2144 1596,2144 1595,2145 1587,2145 1586,2146 1574,2146 1573,2147 1555,2147 1554,2148 1550,2148 1549,2149 1545,2149 1544,2150 1534,2150 1533,2151 1531,2151 1530,2152 1528,2152 1527,2153 1525,2153 1524,2154 1522,2154 1521,2155 1510,2155 1509,2156 1504,2156 1503,2157 1499,2157 1498,2158 1487,2158 1486,2159 1483,2159 1482,2160 1481,2160 1480,2161 1479,2161 1478,2162 1477,2162 1476,2163 1473,2163 1472,2164 1460,2164 1459,2165 1458,2165 1457,2166 1455,2166 1454,2167 1453,2167 1452,2168 1450,2168 1449,2169 1448,2169 1447,2168 1444,2168 1443,2167 1440,2167 1439,2166 1429,2166 1428,2167 1413,2167 1412,2168 1407,2168 1406,2169 1389,2169 1388,2170 1386,2170 1385,2171 1384,2171 1383,2172 1382,2172 1381,2173 1380,2173 1379,2174 1366,2174 1365,2175 1364,2175 1363,2176 1361,2176 1360,2177 1359,2177 1358,2178 1356,2178 1355,2179 1343,2179 1342,2180 1334,2180 1333,2181 1319,2181 1318,2182 1313,2182 1312,2183 1308,2183 1307,2184 1296,2184 1295,2185 1289,2185 1288,2186 1283,2186 1282,2187 1276,2187 1275,2188 1269,2188 1268,2189 1264,2189 1263,2190 1261,2190 1260,2191 1259,2190 1256,2190 1255,2189 1254,2189 1253,2188 1249,2188 1248,2187 1247,2188 1242,2188 1241,2189 1237,2189 1236,2190 1225,2190 1224,2191 1211,2191 1210,2192 1202,2192 1201,2193 1194,2193 1193,2194 1187,2194 1186,2195 1176,2195 1175,2196 1172,2196 1171,2197 1168,2197 1167,2198 1163,2198 1162,2199 1150,2199 1149,2200 1143,2200 1142,2201 1134,2201 1133,2202 1122,2202 1121,2203 1116,2203 1115,2204 1112,2204 1111,2205 1108,2205 1107,2206 1085,2206 1084,2207 1079,2207 1078,2208 1073,2208 1072,2209 1068,2209 1067,2210 1058,2210 1057,2211 1049,2211 1048,2212 1040,2212 1039,2213 1026,2213 1025,2214 1009,2214 1008,2215 997,2215 996,2216 980,2216 979,2217 971,2217 970,2218 963,2218 962,2219 959,2219 958,2220 957,2220 956,2221 954,2221 953,2222 951,2222 950,2223 942,2223 941,2222 936,2222 935,2223 934,2223 933,2224 931,2224 930,2225 927,2225 926,2226 910,2226 909,2227 907,2227 906,2228 903,2228 902,2229 900,2229 899,2230 897,2230 894,2233 894,2239 895,2240 895,2283 896,2284 896,2288 897,2289 897,2294 898,2295 898,2300 899,2301 899,2309 900,2310 900,2318 901,2319 901,2324 902,2325 902,2329 903,2330 903,2335 904,2336 904,2342 905,2343 905,2352 906,2353 906,2359 907,2360 907,2379 908,2380 908,2401 909,2402 909,2412 910,2413 910,2425 911,2426 911,2429 912,2430 912,2434 913,2435 913,2450 914,2451 914,2454 915,2455 915,2474 916,2475 916,2481 917,2482 917,2493 918,2494 918,2499 919,2500 919,2506 920,2507 920,2516 921,2517 921,2520 922,2521 922,2523 923,2524 923,2526 924,2527 924,2530 925,2531 925,2538 926,2539 926,2559 927,2560 927,2568 928,2569 928,2572 929,2573 929,2576 930,2577 930,2580 931,2581 931,2583 933,2585 933,2586 935,2588 936,2588 937,2589 941,2589 942,2590 955,2590 956,2589 972,2589 973,2588 975,2588 976,2587 979,2587 980,2586 984,2586 985,2585 993,2585 994,2584 999,2584 1000,2583 1003,2583 1004,2582 1008,2582 1009,2581 1019,2581 1020,2580 1024,2580 1025,2579 1028,2579 1029,2578 1032,2578 1033,2577 1044,2577 1045,2576 1047,2576 1048,2575 1049,2575 1050,2574 1053,2574 1054,2573 1059,2573 1060,2572 1067,2572 1068,2571 1082,2571 1083,2570 1092,2570 1093,2569 1102,2569 1103,2568 1114,2568 1115,2567 1124,2567 1125,2566 1134,2566 1135,2565 1139,2565 1140,2564 1141,2564 1142,2563 1143,2563 1144,2562 1145,2562 1146,2561 1147,2561 1148,2560 1151,2560 1152,2559 1154,2559 1155,2560 1176,2560 1177,2559 1184,2559 1185,2558 1189,2558 1190,2557 1194,2557 1195,2556 1203,2556 1204,2555 1214,2555 1215,2554 1217,2554 1218,2553 1221,2553 1222,2552 1234,2552 1235,2551 1237,2551 1238,2550 1239,2550 1240,2549 1242,2549 1243,2548 1246,2548 1247,2547 1261,2547 1262,2548 1277,2548 1278,2547 1283,2547 1284,2546 1292,2546 1293,2545 1296,2545 1297,2544 1299,2544 1300,2543 1301,2543 1305,2539 1309,2539 1310,2540 1311,2540 1312,2541 1314,2541 1315,2542 1321,2542 1322,2541 1325,2541 1326,2540 1330,2540 1331,2539 1332,2540 1337,2540 1338,2541 1343,2541 1344,2540 1345,2540 1346,2539 1347,2539 1349,2537 1350,2537 1351,2536 1352,2536 1353,2535 1359,2535 1360,2536 1370,2536 1371,2535 1375,2535 1376,2534 1383,2534 1384,2533 1397,2533 1398,2532 1403,2532 1404,2531 1406,2531 1408,2529 1409,2529 1414,2524 1415,2524 1416,2523 1418,2523 1419,2522 1421,2522 1422,2521 1424,2521 1425,2520 1457,2520 1458,2521 1479,2521 1480,2522 1488,2522 1489,2521 1498,2521 1499,2520 1512,2520 1513,2519 1518,2519 1519,2518 1523,2518 1524,2517 1529,2517 1530,2516 1534,2516 1535,2515 1541,2515 1542,2514 1549,2514 1550,2513 1559,2513 1560,2512 1571,2512 1572,2511 1580,2511 1581,2510 1593,2510 1594,2509 1601,2509 1602,2508 1614,2508 1615,2507 1620,2507 1621,2506 1624,2506 1625,2505 1628,2505 1629,2504 1637,2504 1638,2503 1642,2503 1643,2502 1646,2502 1647,2501 1651,2501 1652,2500 1654,2500 1655,2499 1656,2499 1657,2498 1658,2498 1661,2495 1661,2493 1662,2492 1662,2488 1663,2487 1663,2484 1664,2483 1664,2476 1665,2475 1665,2469 1664,2468 1664,2465 1663,2464 1663,2461 1662,2460 1662,2447 1661,2446 1661,2441 1660,2440 1660,2437 1659,2436 1659,2434 1658,2433 1658,2432 1657,2431 1657,2430 1656,2429 1656,2427 1655,2426 1655,2423 1654,2422 1654,2419 1653,2418 1653,2415 1652,2414 1652,2404 1653,2403 1653,2397 1652,2396 1652,2394 1651,2393 1651,2390 1650,2389 1650,2378 1649,2377 1649,2372 1648,2371 1648,2367 1647,2366 1647,2352 1646,2351 1646,2346 1645,2345 1645,2330 1646,2329 1645,2328 1645,2324 1644,2323 1644,2320 1643,2319 1643,2315 1642,2314 1642,2310 1641,2309 1641,2307 1640,2306 1640,2303 1639,2302 1639,2293 1638,2292 1638,2288 1637,2287 1637,2282 1636,2281 1636,2275 1637,2274 1637,2265 1636,2264 1636,2256 1635,2255 1635,2249 1634,2248 1634,2238 1633,2237 1633,2228 1632,2227 1632,2208 1631,2207 1631,2201 1630,2200 1630,2180 1629,2179 1629,2176 1628,2175 1628,2172 1627,2171 1627,2165 1626,2164 1626,2159 1625,2158 1625,2156 1624,2155 1624,2153 1623,2152 1623,2150 1621,2148 1621,2147 1619,2145 1618,2145 1617,2144 1613,2144 1612,2143" fill="rgba(57,21,252,0.3)" stroke="rgb(57,21,252)" stroke-width="2" data-block-id="0009" data-name="b-0013" /><text x="1297" y="2368" text-anchor="middle" dominant-baseline="middle" class="block-label" fill="rgb(57,21,252)" stroke="white" stroke-width="3" paint-order="stroke">b-0013</text><polygon points="2220,305 2219,306 2215,306 2214,307 2209,307 2208,308 2186,308 2185,307 2177,307 2176,306 2175,307 2164,307 2163,308 2162,308 2161,309 2158,309 2157,310 2155,310 2153,312 2152,312 2152,313 2151,314 2151,330 2150,331 2150,348 2151,349 2151,357 2150,358 2150,374 2151,375 2151,406 2150,407 2150,418 2151,419 2151,450 2150,451 2150,453 2149,454 2149,484 2150,485 2150,502 2149,503 2149,510 2150,511 2150,536 2151,537 2151,558 2150,559 2150,565 2149,566 2149,582 2150,583 2150,596 2149,597 2149,607 2150,608 2150,620 2149,621 2149,643 2148,644 2148,676 2147,677 2147,681 2146,682 2146,690 2145,691 2145,704 2146,705 2146,726 2145,727 2145,742 2146,743 2146,744 2145,745 2145,827 2144,828 2144,838 2143,839 2143,844 2144,845 2144,857 2143,858 2143,893 2144,894 2144,906 2145,907 2145,924 2144,925 2144,944 2145,945 2145,973 2144,974 2144,981 2143,982 2143,986 2144,987 2144,1002 2143,1003 2143,1028 2142,1029 2142,1033 2143,1034 2143,1041 2144,1042 2144,1043 2146,1045 2147,1045 2148,1046 2150,1046 2151,1047 2166,1047 2167,1046 2173,1046 2174,1045 2182,1045 2183,1044 2190,1044 2191,1043 2196,1043 2197,1042 2209,1042 2210,1041 2216,1041 2217,1040 2220,1040 2221,1039 2239,1039 2240,1038 2246,1038 2247,1037 2252,1037 2253,1036 2257,1036 2258,1035 2266,1035 2267,1034 2277,1034 2278,1033 2287,1033 2288,1032 2292,1032 2293,1031 2296,1031 2297,1030 2301,1030 2302,1029 2306,1029 2307,1028 2323,1028 2324,1027 2328,1027 2329,1026 2333,1026 2334,1025 2352,1025 2353,1024 2365,1024 2366,1025 2367,1025 2368,1024 2374,1024 2375,1023 2379,1023 2380,1022 2393,1022 2394,1021 2405,1021 2406,1020 2409,1020 2410,1019 2414,1019 2415,1018 2418,1018 2419,1017 2422,1017 2423,1016 2426,1016 2427,1015 2431,1015 2432,1014 2447,1014 2448,1013 2454,1013 2455,1014 2469,1014 2470,1013 2478,1013 2479,1012 2488,1012 2489,1011 2490,1011 2491,1010 2492,1010 2493,1009 2494,1009 2495,1008 2496,1008 2497,1007 2498,1007 2499,1006 2499,1004 2500,1003 2500,1001 2501,1000 2501,996 2502,995 2502,972 2503,971 2503,963 2504,962 2504,899 2505,898 2505,884 2504,883 2504,879 2503,878 2503,874 2504,873 2504,866 2505,865 2505,832 2504,831 2504,825 2505,824 2505,815 2504,814 2504,803 2503,802 2503,795 2502,794 2503,793 2503,789 2504,788 2504,786 2505,785 2505,768 2504,767 2504,752 2505,751 2505,739 2506,738 2506,730 2507,729 2507,706 2508,705 2508,695 2509,694 2509,663 2510,662 2510,657 2511,656 2511,652 2512,651 2512,647 2511,646 2511,640 2510,639 2510,610 2511,609 2511,606 2512,605 2512,596 2511,595 2511,574 2510,573 2510,562 2511,561 2511,556 2512,555 2512,553 2511,552 2511,547 2510,546 2510,536 2511,535 2511,511 2512,510 2512,502 2511,501 2511,486 2512,485 2512,470 2511,469 2511,463 2510,462 2510,457 2511,456 2511,453 2512,452 2512,449 2513,448 2513,431 2512,430 2512,419 2513,418 2513,404 2512,403 2512,394 2511,393 2511,370 2512,369 2512,347 2511,346 2511,339 2510,338 2510,328 2509,327 2509,324 2508,323 2508,322 2507,321 2507,320 2504,317 2503,317 2502,316 2500,316 2499,315 2497,315 2496,314 2493,314 2492,313 2491,313 2490,312 2483,312 2482,313 2478,313 2477,314 2471,314 2470,313 2453,313 2452,312 2428,312 2427,311 2420,311 2419,310 2389,310 2388,311 2382,311 2381,312 2377,312 2376,311 2366,311 2365,310 2360,310 2359,309 2357,309 2356,308 2353,308 2352,307 2342,307 2341,308 2340,308 2339,309 2338,309 2336,311 2335,311 2334,312 2330,312 2329,311 2328,311 2327,310 2324,310 2323,309 2316,309 2315,310 2294,310 2293,309 2286,309 2285,308 2271,308 2270,309 2267,309 2266,310 2244,310 2243,309 2236,309 2235,308 2233,308 2232,307 2231,307 2230,306 2228,306 2227,305" fill="rgba(235,88,48,0.3)" stroke="rgb(235,88,48)" stroke-width="2" data-block-id="0010" data-name="b-0014" /><text x="2341" y="667" text-anchor="middle" dominant-baseline="middle" class="block-label" fill="rgb(235,88,48)" stroke="white" stroke-width="3" paint-order="stroke">b-0014</text><polygon points="2005,1632 2004,1633 2000,1633 1999,1634 1987,1634 1986,1635 1982,1635 1981,1636 1977,1636 1976,1637 1963,1637 1962,1638 1950,1638 1949,1639 1941,1639 1940,1640 1928,1640 1927,1641 1922,1641 1921,1642 1917,1642 1916,1643 1912,1643 1911,1644 1908,1644 1907,1645 1904,1645 1903,1646 1900,1646 1899,1647 1896,1647 1895,1648 1881,1648 1880,1649 1873,1649 1872,1650 1866,1650 1865,1651 1858,1651 1857,1652 1852,1652 1851,1653 1845,1653 1844,1654 1835,1654 1834,1655 1825,1655 1824,1656 1812,1656 1811,1657 1803,1657 1802,1658 1794,1658 1793,1659 1788,1659 1787,1660 1781,1660 1780,1661 1775,1661 1774,1662 1757,1662 1756,1663 1752,1663 1751,1664 1743,1664 1742,1665 1732,1665 1731,1666 1727,1666 1726,1667 1718,1667 1717,1668 1710,1668 1709,1669 1704,1669 1703,1670 1700,1670 1699,1671 1698,1671 1693,1676 1693,1677 1692,1678 1692,1679 1691,1680 1691,1683 1690,1684 1690,1700 1691,1701 1691,1708 1692,1709 1692,1712 1693,1713 1693,1716 1694,1717 1694,1731 1695,1732 1695,1735 1696,1736 1696,1739 1697,1740 1697,1757 1698,1758 1698,1761 1699,1762 1699,1766 1700,1767 1700,1772 1699,1773 1699,1777 1700,1778 1700,1783 1701,1784 1701,1788 1702,1789 1702,1795 1703,1796 1703,1801 1704,1802 1704,1808 1705,1809 1705,1815 1706,1816 1706,1822 1707,1823 1707,1832 1708,1833 1708,1841 1709,1842 1709,1846 1710,1847 1710,1871 1711,1872 1711,1877 1712,1878 1712,1883 1713,1884 1713,1892 1714,1893 1714,1902 1715,1903 1715,1910 1716,1911 1716,1924 1717,1925 1717,1928 1718,1929 1718,1934 1719,1935 1719,1950 1720,1951 1720,1964 1721,1965 1721,1974 1722,1975 1722,1979 1723,1980 1723,1988 1724,1989 1724,1995 1725,1996 1725,1999 1726,2000 1726,2006 1727,2007 1727,2020 1728,2021 1728,2029 1729,2030 1729,2036 1730,2037 1730,2041 1731,2042 1731,2046 1732,2047 1732,2053 1733,2054 1733,2084 1734,2085 1734,2090 1735,2091 1735,2095 1736,2096 1736,2101 1737,2102 1737,2108 1738,2109 1738,2126 1739,2127 1739,2135 1740,2136 1740,2145 1741,2146 1741,2160 1742,2161 1742,2175 1743,2176 1743,2186 1744,2187 1744,2198 1745,2199 1745,2213 1746,2214 1746,2220 1747,2221 1747,2226 1748,2227 1748,2231 1749,2232 1749,2238 1750,2239 1750,2246 1751,2247 1751,2251 1752,2252 1752,2266 1753,2267 1753,2275 1754,2276 1754,2281 1755,2282 1755,2293 1756,2294 1756,2305 1757,2306 1757,2319 1758,2320 1758,2323 1759,2324 1759,2334 1760,2335 1760,2346 1761,2347 1761,2356 1762,2357 1762,2366 1763,2367 1763,2373 1764,2374 1764,2389 1765,2390 1765,2394 1766,2395 1766,2439 1767,2440 1767,2445 1768,2446 1768,2450 1767,2451 1767,2465 1768,2466 1768,2470 1769,2471 1769,2472 1771,2474 1771,2475 1772,2476 1772,2477 1774,2479 1774,2480 1776,2482 1777,2482 1779,2484 1780,2484 1781,2485 1800,2485 1801,2484 1805,2484 1806,2483 1813,2483 1814,2482 1823,2482 1824,2481 1832,2481 1833,2480 1838,2480 1839,2479 1846,2479 1847,2478 1857,2478 1858,2477 1865,2477 1866,2476 1885,2476 1886,2475 1890,2475 1891,2474 1894,2474 1895,2475 1922,2475 1923,2476 1928,2476 1929,2475 1932,2475 1933,2474 1935,2474 1936,2473 1939,2473 1940,2472 1945,2472 1946,2471 1960,2471 1961,2472 1962,2471 1966,2471 1967,2470 1969,2470 1970,2469 1972,2469 1973,2468 1974,2468 1975,2467 1977,2467 1978,2466 1980,2466 1981,2465 1983,2465 1984,2464 1986,2464 1987,2463 1990,2463 1991,2462 1994,2462 1995,2461 1997,2461 1998,2460 2000,2460 2001,2459 2003,2459 2004,2458 2005,2458 2006,2457 2008,2457 2009,2456 2010,2456 2011,2455 2013,2455 2015,2453 2016,2453 2018,2451 2018,2450 2019,2449 2019,2448 2020,2447 2020,2443 2021,2442 2021,2429 2020,2428 2020,2401 2019,2400 2019,2396 2020,2395 2020,2386 2019,2385 2019,2356 2020,2355 2020,2334 2019,2333 2019,2312 2018,2311 2018,2299 2019,2298 2019,2280 2020,2279 2020,2273 2021,2272 2021,2251 2020,2250 2020,2235 2019,2234 2019,2211 2020,2210 2020,2191 2021,2190 2021,2172 2020,2171 2020,2165 2019,2164 2019,2155 2018,2154 2018,2090 2019,2089 2019,2082 2020,2081 2020,2060 2019,2059 2019,2050 2018,2049 2018,2044 2017,2043 2017,2015 2018,2014 2018,2010 2019,2009 2019,1975 2020,1974 2020,1875 2021,1874 2021,1828 2022,1827 2022,1811 2021,1810 2021,1797 2020,1796 2020,1786 2021,1785 2021,1762 2020,1761 2020,1739 2021,1738 2021,1717 2022,1716 2022,1700 2023,1699 2023,1645 2022,1644 2022,1642 2021,1641 2021,1639 2020,1638 2020,1637 2016,1633 2014,1633 2013,1632" fill="rgba(218,58,254,0.3)" stroke="rgb(218,58,254)" stroke-width="2" data-block-id="0011" data-name="b-0015" /><text x="1846" y="2059" text-anchor="middle" dominant-baseline="middle" class="block-label" fill="rgb(218,58,254)" stroke="white" stroke-width="3" paint-order="stroke">b-0015</text><polygon points="2675,316 2674,317 2668,317 2667,318 2656,318 2655,319 2617,319 2616,320 2615,320 2614,321 2613,321 2611,323 2610,323 2607,326 2607,327 2606,328 2606,362 2607,363 2607,366 2606,367 2606,380 2607,381 2607,390 2606,391 2606,397 2605,398 2605,401 2606,402 2606,408 2607,409 2607,412 2606,413 2606,417 2605,418 2605,427 2606,428 2606,432 2607,433 2607,438 2606,439 2606,471 2605,472 2605,509 2604,510 2604,527 2605,528 2605,533 2604,534 2604,551 2603,552 2603,563 2602,564 2602,567 2603,568 2603,575 2604,576 2604,581 2603,582 2603,596 2602,597 2602,621 2603,622 2603,643 2602,644 2602,686 2601,687 2602,688 2602,735 2601,736 2601,787 2602,788 2602,802 2601,803 2601,806 2602,807 2602,846 2601,847 2601,857 2602,858 2602,884 2601,885 2601,935 2600,936 2600,977 2599,978 2599,982 2600,983 2600,987 2601,988 2601,989 2605,993 2606,993 2607,994 2616,994 2617,995 2618,994 2623,994 2624,993 2629,993 2630,992 2645,992 2646,991 2653,991 2654,990 2664,990 2665,989 2671,989 2672,988 2677,988 2678,987 2685,987 2686,986 2693,986 2694,985 2701,985 2702,984 2709,984 2710,983 2714,983 2715,982 2717,982 2718,981 2720,981 2721,980 2724,980 2725,979 2733,979 2734,978 2744,978 2745,977 2754,977 2755,976 2762,976 2763,975 2767,975 2768,974 2771,974 2772,973 2789,973 2790,972 2795,972 2796,971 2807,971 2808,972 2809,971 2812,971 2813,970 2814,970 2815,969 2817,969 2818,968 2820,968 2821,967 2831,967 2832,966 2839,966 2840,965 2848,965 2849,964 2864,964 2865,963 2875,963 2876,962 2884,962 2885,961 2890,961 2891,960 2896,960 2897,959 2902,959 2903,958 2910,958 2911,957 2921,957 2922,956 2929,956 2930,955 2935,955 2936,954 2940,954 2941,953 2944,953 2945,952 2946,952 2947,951 2948,951 2949,950 2950,950 2952,948 2952,947 2953,946 2953,944 2954,943 2954,938 2955,937 2955,912 2956,911 2956,889 2955,888 2955,840 2956,839 2956,817 2955,816 2955,806 2956,805 2956,787 2955,786 2955,769 2956,768 2956,727 2957,726 2957,700 2956,699 2956,666 2957,665 2957,652 2956,651 2957,650 2957,616 2958,615 2958,570 2959,569 2959,564 2958,563 2958,550 2959,549 2959,535 2960,534 2960,511 2959,510 2959,502 2960,501 2960,478 2961,477 2961,465 2960,464 2960,450 2961,449 2961,445 2960,444 2960,421 2961,420 2961,403 2962,402 2962,396 2961,395 2961,382 2962,381 2962,356 2963,355 2963,332 2962,331 2962,327 2961,326 2961,325 2959,323 2958,323 2956,321 2953,321 2952,320 2947,320 2946,319 2934,319 2933,320 2897,320 2896,319 2889,319 2888,320 2879,320 2878,319 2874,319 2873,318 2857,318 2856,317 2848,317 2847,316 2846,316 2845,317 2839,317 2838,318 2830,318 2829,319 2810,319 2809,318 2794,318 2793,319 2790,319 2789,320 2781,320 2780,319 2776,319 2775,318 2768,318 2767,317 2724,317 2723,316 2698,316 2697,317 2693,317 2692,318 2688,318 2687,317 2683,317 2682,316" fill="rgba(169,219,187,0.3)" stroke="rgb(169,219,187)" stroke-width="2" data-block-id="0012" data-name="b-0016" /><text x="2777" y="667" text-anchor="middle" dominant-baseline="middle" class="block-label" fill="rgb(169,219,187)" stroke="white" stroke-width="3" paint-order="stroke">b-0016</text><polygon points="4303,867 4302,868 4295,868 4294,869 4282,869 4281,870 4275,870 4274,871 4268,871 4267,872 4260,872 4259,873 4255,873 4254,874 4248,874 4247,875 4239,875 4238,876 4230,876 4229,877 4220,877 4219,878 4215,878 4214,879 4207,879 4206,880 4187,880 4186,881 4181,881 4180,882 4178,882 4177,883 4175,883 4174,884 4148,884 4147,885 4143,885 4142,886 4138,886 4137,887 4132,887 4131,888 4127,888 4126,889 4123,889 4122,890 4121,890 4120,891 4119,891 4118,892 4117,892 4116,893 4115,893 4112,896 4111,896 4108,899 4107,899 4106,900 4106,901 4105,902 4105,904 4102,907 4101,907 4100,906 4100,903 4097,900 4096,900 4095,899 4090,899 4089,898 4088,899 4071,899 4070,900 4059,900 4058,901 4052,901 4051,902 4049,902 4048,903 4047,903 4046,904 4039,904 4038,903 4026,903 4025,904 4019,904 4018,905 4011,905 4010,906 4006,906 4005,907 4004,907 4003,908 4002,908 4001,909 4000,909 3999,910 3998,910 3995,913 3993,913 3992,912 3991,912 3990,911 3986,911 3985,910 3983,910 3982,911 3979,911 3976,914 3976,915 3977,916 3977,918 3978,919 3978,920 3979,921 3979,923 3980,924 3980,938 3981,939 3981,943 3982,944 3982,948 3981,949 3981,951 3979,953 3979,955 3978,956 3978,957 3977,958 3977,960 3976,961 3976,967 3975,968 3975,973 3976,974 3976,976 3977,977 3977,978 3978,979 3978,981 3979,982 3979,983 3978,984 3978,985 3977,986 3976,986 3973,989 3972,989 3970,991 3970,992 3969,993 3969,994 3967,996 3967,998 3966,999 3966,1004 3965,1005 3965,1011 3966,1012 3966,1025 3965,1026 3965,1036 3966,1037 3966,1064 3965,1065 3965,1082 3966,1083 3966,1093 3965,1094 3965,1124 3964,1125 3964,1128 3965,1129 3965,1145 3964,1146 3964,1180 3965,1181 3965,1188 3964,1189 3964,1242 3963,1243 3963,1277 3964,1278 3964,1282 3963,1283 3963,1331 3962,1332 3962,1379 3961,1380 3961,1401 3962,1402 3962,1407 3963,1408 3963,1418 3962,1419 3962,1424 3961,1425 3961,1489 3960,1490 3960,1498 3959,1499 3959,1510 3962,1513 3965,1513 3966,1514 3993,1514 3994,1513 4002,1513 4003,1512 4009,1512 4010,1511 4019,1511 4020,1510 4021,1511 4027,1511 4028,1512 4032,1512 4032,1511 4034,1509 4035,1509 4037,1507 4038,1507 4039,1506 4042,1506 4043,1505 4056,1505 4057,1504 4062,1504 4063,1503 4081,1503 4082,1504 4083,1504 4084,1505 4085,1505 4088,1508 4088,1509 4089,1510 4088,1511 4088,1514 4087,1515 4087,1518 4086,1519 4086,1529 4085,1530 4085,1547 4084,1548 4084,1551 4083,1552 4083,1554 4082,1555 4082,1557 4084,1559 4085,1559 4086,1560 4087,1560 4088,1561 4105,1561 4106,1560 4116,1560 4117,1559 4128,1559 4129,1558 4136,1558 4137,1557 4144,1557 4145,1556 4154,1556 4155,1555 4162,1555 4163,1554 4167,1554 4168,1553 4172,1553 4173,1552 4177,1552 4178,1551 4185,1551 4186,1550 4193,1550 4194,1549 4203,1549 4204,1548 4213,1548 4214,1547 4220,1547 4221,1546 4230,1546 4231,1545 4236,1545 4237,1544 4239,1544 4240,1543 4244,1543 4245,1542 4248,1542 4249,1541 4257,1541 4258,1540 4262,1540 4263,1539 4266,1539 4267,1538 4271,1538 4272,1537 4279,1537 4280,1536 4287,1536 4288,1535 4294,1535 4295,1534 4305,1534 4306,1533 4307,1533 4310,1530 4310,1528 4311,1527 4311,1520 4312,1519 4312,1475 4311,1474 4311,1469 4312,1468 4312,1363 4313,1362 4313,1224 4314,1223 4314,1122 4315,1121 4315,1075 4316,1074 4316,1043 4315,1042 4315,1036 4316,1035 4316,989 4315,988 4315,984 4316,983 4316,974 4317,973 4317,954 4316,953 4316,913 4317,912 4317,907 4316,906 4316,875 4315,874 4315,873 4314,872 4314,871 4312,869 4311,869 4310,868 4308,868 4307,867" fill="rgba(207,14,189,0.3)" stroke="rgb(207,14,189)" stroke-width="2" data-block-id="0013" data-name="b-0017" /><text x="4108" y="1172" text-anchor="middle" dominant-baseline="middle" class="block-label" fill="rgb(207,14,189)" stroke="white" stroke-width="3" paint-order="stroke">b-0017</text><polygon points="3085,321 3084,322 3080,322 3079,323 3076,323 3074,325 3073,325 3073,326 3072,327 3072,328 3071,329 3071,354 3070,355 3070,388 3069,389 3069,411 3070,412 3070,414 3069,415 3069,427 3068,428 3068,432 3067,433 3067,447 3068,448 3068,453 3069,454 3069,464 3068,465 3068,477 3069,478 3069,485 3068,486 3068,491 3067,492 3067,511 3068,512 3068,536 3067,537 3067,551 3066,552 3066,557 3067,558 3067,573 3068,574 3068,633 3069,634 3069,637 3068,638 3068,647 3067,648 3067,666 3066,667 3066,677 3067,678 3067,691 3066,692 3066,705 3067,706 3067,718 3066,719 3066,720 3067,721 3067,741 3066,742 3066,749 3067,750 3067,766 3068,767 3068,774 3067,775 3067,790 3066,791 3066,820 3067,821 3067,833 3066,834 3066,850 3067,851 3066,852 3066,858 3065,859 3065,874 3066,875 3065,876 3065,883 3064,884 3064,894 3065,895 3065,927 3066,928 3066,929 3070,933 3071,933 3072,934 3073,934 3074,935 3080,935 3081,934 3084,934 3085,933 3088,933 3089,932 3102,932 3103,931 3114,931 3115,930 3120,930 3121,929 3134,929 3135,928 3139,928 3140,927 3142,927 3143,926 3145,926 3146,925 3155,925 3156,926 3161,926 3162,925 3166,925 3167,924 3170,924 3171,923 3185,923 3186,922 3188,922 3189,921 3191,921 3192,920 3210,920 3211,919 3214,919 3215,918 3218,918 3219,917 3221,917 3222,916 3225,916 3226,915 3228,915 3229,914 3253,914 3254,913 3260,913 3261,912 3266,912 3267,911 3270,911 3271,910 3275,910 3276,909 3281,909 3282,908 3289,908 3290,907 3302,907 3303,906 3308,906 3309,905 3313,905 3314,904 3318,904 3319,903 3323,903 3324,902 3333,902 3334,901 3348,901 3349,900 3354,900 3355,899 3359,899 3360,898 3374,898 3375,897 3382,897 3383,896 3400,896 3401,895 3404,895 3405,894 3407,894 3408,893 3409,893 3413,889 3413,888 3414,887 3414,885 3415,884 3415,880 3416,879 3416,856 3417,855 3417,845 3418,844 3418,829 3419,828 3419,820 3420,819 3420,810 3419,809 3419,793 3418,792 3418,775 3419,774 3419,762 3420,761 3420,752 3421,751 3421,742 3420,741 3420,737 3419,736 3419,726 3420,725 3420,716 3419,715 3419,698 3420,697 3420,681 3421,680 3421,676 3422,675 3422,666 3421,665 3421,582 3422,581 3422,561 3423,560 3423,551 3422,550 3422,547 3421,546 3421,542 3420,541 3420,517 3421,516 3421,505 3422,504 3422,498 3423,497 3423,454 3424,453 3424,433 3425,432 3425,413 3424,412 3424,409 3425,408 3425,380 3426,379 3426,366 3427,365 3427,361 3426,360 3426,345 3425,344 3425,336 3424,335 3424,332 3423,331 3423,329 3420,326 3418,326 3417,325 3415,325 3414,324 3409,324 3408,323 3400,323 3399,324 3384,324 3383,325 3371,325 3370,324 3357,324 3356,325 3352,325 3351,326 3348,326 3347,325 3330,325 3329,326 3315,326 3314,327 3311,327 3310,326 3298,326 3297,325 3275,325 3274,324 3269,324 3268,323 3262,323 3261,324 3230,324 3229,323 3212,323 3211,324 3203,324 3202,323 3171,323 3170,322 3157,322 3156,321 3147,321 3146,322 3139,322 3138,323 3131,323 3130,322 3100,322 3099,321" fill="rgba(50,107,54,0.3)" stroke="rgb(50,107,54)" stroke-width="2" data-block-id="0014" data-name="b-0019" /><text x="3239" y="657" text-anchor="middle" dominant-baseline="middle" class="block-label" fill="rgb(50,107,54)" stroke="white" stroke-width="3" paint-order="stroke">b-0019</text><polygon points="3709,324 3708,325 3706,325 3705,326 3702,326 3701,327 3694,327 3693,326 3689,326 3688,325 3642,325 3641,326 3634,326 3633,325 3622,325 3621,326 3568,326 3567,327 3564,327 3563,326 3547,326 3546,327 3542,327 3539,330 3539,331 3538,332 3538,334 3537,335 3537,354 3536,355 3536,432 3535,433 3535,443 3536,444 3536,449 3535,450 3535,497 3536,498 3536,500 3537,501 3537,503 3538,504 3538,508 3537,509 3537,510 3536,511 3536,512 3535,513 3535,514 3534,515 3534,516 3533,517 3533,520 3532,521 3532,528 3531,529 3531,535 3530,536 3530,545 3531,546 3531,547 3532,548 3532,550 3533,551 3533,557 3532,558 3532,562 3531,563 3531,571 3532,572 3532,584 3531,585 3531,595 3532,596 3532,642 3533,643 3533,681 3534,682 3534,689 3535,690 3535,694 3536,695 3536,698 3537,699 3537,711 3536,712 3536,715 3535,716 3535,720 3534,721 3534,736 3533,737 3533,744 3532,745 3532,763 3531,764 3531,785 3530,786 3530,833 3529,834 3529,867 3530,868 3530,870 3532,872 3533,872 3534,873 3535,873 3536,874 3538,874 3539,875 3547,875 3548,874 3556,874 3557,873 3564,873 3565,872 3571,872 3572,871 3581,871 3582,870 3590,870 3591,869 3597,869 3598,868 3602,868 3603,867 3609,867 3610,866 3619,866 3620,865 3625,865 3626,864 3629,864 3630,863 3632,863 3633,862 3635,862 3636,861 3638,861 3639,860 3641,860 3642,859 3644,859 3645,858 3663,858 3664,857 3670,857 3671,856 3679,856 3680,855 3685,855 3686,854 3691,854 3692,853 3697,853 3698,852 3711,852 3712,851 3715,851 3716,850 3719,850 3720,849 3727,849 3728,848 3736,848 3737,847 3744,847 3745,846 3753,846 3754,845 3769,845 3770,844 3774,844 3775,843 3779,843 3780,842 3784,842 3785,841 3789,841 3790,840 3795,840 3796,839 3801,839 3802,838 3809,838 3810,837 3819,837 3820,836 3830,836 3831,835 3838,835 3839,834 3844,834 3845,833 3849,833 3850,832 3851,832 3852,831 3853,831 3855,829 3855,828 3856,827 3856,825 3857,824 3857,819 3858,818 3858,813 3857,812 3857,779 3858,778 3858,766 3859,765 3859,711 3860,710 3860,701 3861,700 3861,696 3860,695 3860,685 3859,684 3860,683 3860,652 3861,651 3861,649 3860,648 3860,633 3861,632 3861,565 3862,564 3862,539 3863,538 3863,517 3862,516 3862,512 3861,511 3861,455 3862,454 3862,416 3861,415 3861,404 3862,403 3862,397 3861,396 3861,373 3862,372 3862,343 3863,342 3863,340 3862,339 3862,336 3861,335 3861,333 3860,332 3860,331 3859,330 3858,330 3856,328 3855,328 3854,327 3852,327 3851,326 3849,326 3848,325 3840,325 3839,324 3808,324 3807,325 3802,325 3801,324 3783,324 3782,325 3743,325 3742,326 3730,326 3729,325 3723,325 3722,324" fill="rgba(88,59,13,0.3)" stroke="rgb(88,59,13)" stroke-width="2" data-block-id="0015" data-name="b-0024" /><text x="3684" y="634" text-anchor="middle" dominant-baseline="middle" class="block-label" fill="rgb(88,59,13)" stroke="white" stroke-width="3" paint-order="stroke">b-0024</text><polygon points="4245,321 4244,322 4242,322 4241,323 4237,323 4236,324 4145,324 4144,323 4137,323 4136,322 4122,322 4121,323 4116,323 4115,324 4111,324 4110,325 4105,325 4104,326 4095,326 4094,325 4078,325 4077,324 4076,325 4064,325 4063,326 4003,326 4002,325 3997,325 3996,324 3993,324 3992,325 3989,325 3988,326 3985,326 3984,327 3979,327 3978,328 3975,328 3974,329 3972,329 3972,330 3971,331 3971,335 3970,336 3970,372 3971,373 3971,376 3970,377 3970,390 3971,391 3971,407 3970,408 3970,432 3969,433 3969,440 3970,441 3970,450 3969,451 3969,499 3968,500 3968,598 3967,599 3967,631 3968,632 3968,638 3967,639 3967,643 3966,644 3966,648 3965,649 3965,654 3966,655 3966,666 3967,667 3967,687 3966,688 3966,694 3965,695 3965,726 3966,727 3966,735 3965,736 3965,753 3964,754 3964,760 3965,761 3965,788 3964,789 3964,806 3965,807 3965,809 3966,810 3966,811 3967,812 3967,813 3970,816 3972,816 3973,817 3982,817 3983,816 3990,816 3991,815 3998,815 3999,814 4004,814 4005,813 4013,813 4014,812 4021,812 4022,811 4028,811 4029,810 4037,810 4038,809 4048,809 4049,808 4061,808 4062,807 4070,807 4071,806 4077,806 4078,805 4084,805 4085,804 4090,804 4091,803 4095,803 4096,802 4100,802 4101,801 4119,801 4120,800 4124,800 4125,799 4133,799 4134,798 4140,798 4141,797 4149,797 4150,796 4156,796 4157,795 4163,795 4164,794 4168,794 4169,793 4173,793 4174,792 4178,792 4179,791 4183,791 4184,790 4188,790 4189,789 4193,789 4194,788 4201,788 4202,787 4212,787 4213,786 4216,786 4217,785 4219,785 4220,784 4241,784 4242,783 4249,783 4250,782 4256,782 4257,781 4265,781 4266,780 4274,780 4275,779 4280,779 4281,778 4286,778 4287,777 4293,777 4294,776 4303,776 4304,775 4311,775 4312,774 4315,774 4319,770 4319,765 4320,764 4320,737 4321,736 4321,671 4322,670 4322,664 4323,663 4323,654 4324,653 4324,647 4323,646 4323,633 4324,632 4324,579 4325,578 4325,569 4324,568 4324,549 4325,548 4325,513 4324,512 4324,502 4325,501 4325,480 4324,479 4324,473 4323,472 4323,468 4322,467 4322,464 4321,463 4321,454 4322,453 4322,450 4323,449 4323,438 4324,437 4324,436 4323,435 4323,425 4322,424 4322,418 4323,417 4323,396 4324,395 4324,387 4325,386 4325,384 4324,383 4324,373 4325,372 4325,339 4324,338 4324,333 4323,332 4323,329 4322,328 4322,327 4317,322 4302,322 4301,321 4292,321 4291,322 4289,322 4288,323 4286,323 4285,324 4278,324 4277,323 4274,323 4273,322 4272,322 4271,321" fill="rgba(241,249,8,0.3)" stroke="rgb(241,249,8)" stroke-width="2" data-block-id="0016" data-name="b-0025" /><text x="4146" y="586" text-anchor="middle" dominant-baseline="middle" class="block-label" fill="rgb(241,249,8)" stroke="white" stroke-width="3" paint-order="stroke">b-0025</text><polygon points="1662,300 1661,301 1659,301 1658,302 1657,302 1655,304 1655,305 1654,306 1654,321 1653,322 1653,342 1652,343 1652,352 1653,353 1653,356 1654,357 1654,391 1653,392 1653,407 1654,408 1654,413 1653,414 1653,443 1652,444 1652,465 1653,466 1653,483 1652,484 1652,504 1653,505 1653,509 1652,510 1652,531 1651,532 1651,541 1652,542 1652,549 1653,550 1653,563 1652,564 1652,576 1653,577 1653,581 1652,582 1652,621 1651,622 1651,668 1652,669 1652,672 1651,673 1651,679 1650,680 1650,683 1649,684 1649,687 1650,688 1650,692 1651,693 1651,696 1652,697 1652,699 1657,704 1659,704 1660,705 1703,705 1704,706 1770,706 1771,707 1816,707 1817,708 1883,708 1884,707 1920,707 1921,708 1994,708 1995,709 2004,709 2005,708 2013,708 2014,709 2024,709 2025,708 2026,708 2027,707 2028,707 2030,705 2030,703 2031,702 2031,699 2032,698 2032,673 2033,672 2033,652 2032,651 2032,642 2033,641 2033,633 2032,632 2032,516 2033,515 2033,489 2034,488 2034,440 2033,439 2033,406 2034,405 2034,390 2033,389 2033,378 2034,377 2033,376 2033,357 2034,356 2034,315 2033,314 2033,312 2032,311 2032,310 2031,309 2030,309 2029,308 2028,308 2027,307 2026,307 2025,306 1997,306 1996,305 1990,305 1989,304 1984,304 1983,305 1969,305 1968,304 1912,304 1911,303 1898,303 1897,302 1887,302 1886,303 1865,303 1864,302 1813,302 1812,301 1806,301 1805,300 1796,300 1795,301 1742,301 1741,300 1735,300 1734,301 1716,301 1715,300 1679,300 1678,301 1675,301 1674,300" fill="rgba(89,52,129,0.3)" stroke="rgb(89,52,129)" stroke-width="2" data-block-id="0017" data-name="b-0026" /><text x="1823" y="483" text-anchor="middle" dominant-baseline="middle" class="block-label" fill="rgb(89,52,129)" stroke="white" stroke-width="3" paint-order="stroke">b-0026</text><polygon points="2004,1162 2003,1163 1994,1163 1993,1164 1985,1164 1984,1165 1977,1165 1976,1166 1969,1166 1968,1167 1952,1167 1951,1168 1943,1168 1942,1169 1936,1169 1935,1170 1928,1170 1927,1171 1922,1171 1921,1172 1916,1172 1915,1173 1908,1173 1907,1174 1898,1174 1897,1175 1889,1175 1888,1176 1884,1176 1883,1177 1880,1177 1879,1178 1865,1178 1864,1179 1856,1179 1855,1180 1848,1180 1847,1181 1837,1181 1836,1182 1816,1182 1815,1183 1806,1183 1805,1184 1797,1184 1796,1185 1791,1185 1790,1186 1784,1186 1783,1187 1780,1187 1779,1188 1776,1188 1775,1189 1771,1189 1770,1190 1766,1190 1765,1191 1758,1191 1757,1192 1748,1192 1747,1193 1740,1193 1739,1194 1733,1194 1732,1195 1725,1195 1724,1196 1719,1196 1718,1197 1713,1197 1712,1198 1705,1198 1704,1199 1696,1199 1695,1200 1688,1200 1687,1201 1682,1201 1681,1202 1675,1202 1674,1203 1667,1203 1666,1204 1658,1204 1657,1205 1652,1205 1651,1206 1649,1206 1647,1208 1647,1209 1646,1210 1646,1211 1645,1212 1645,1213 1644,1214 1644,1225 1645,1226 1645,1233 1646,1234 1646,1242 1647,1243 1647,1250 1648,1251 1648,1258 1649,1259 1649,1265 1650,1266 1650,1280 1651,1281 1651,1286 1652,1287 1652,1300 1653,1301 1653,1309 1654,1310 1654,1318 1655,1319 1655,1326 1656,1327 1656,1334 1657,1335 1657,1342 1658,1343 1658,1348 1659,1349 1659,1361 1660,1362 1660,1368 1661,1369 1661,1379 1662,1380 1662,1388 1663,1389 1663,1394 1664,1395 1664,1411 1665,1412 1665,1421 1666,1422 1666,1433 1667,1434 1667,1449 1668,1450 1668,1458 1669,1459 1669,1467 1670,1468 1670,1474 1671,1475 1671,1479 1672,1480 1672,1494 1673,1495 1673,1501 1674,1502 1674,1510 1675,1511 1675,1519 1676,1520 1676,1532 1677,1533 1677,1544 1678,1545 1678,1555 1679,1556 1679,1567 1680,1568 1680,1573 1681,1574 1681,1575 1685,1579 1687,1579 1688,1580 1698,1580 1699,1579 1714,1579 1715,1578 1720,1578 1721,1577 1726,1577 1727,1576 1737,1576 1738,1575 1744,1575 1745,1574 1754,1574 1755,1573 1763,1573 1764,1572 1769,1572 1770,1571 1776,1571 1777,1570 1785,1570 1786,1569 1790,1569 1791,1568 1795,1568 1796,1567 1802,1567 1803,1566 1810,1566 1811,1565 1818,1565 1819,1564 1832,1564 1833,1563 1838,1563 1839,1562 1844,1562 1845,1561 1859,1561 1860,1560 1870,1560 1871,1559 1878,1559 1879,1558 1883,1558 1884,1557 1889,1557 1890,1556 1895,1556 1896,1555 1901,1555 1902,1554 1910,1554 1911,1553 1918,1553 1919,1552 1929,1552 1930,1551 1939,1551 1940,1550 1945,1550 1946,1549 1952,1549 1953,1548 1959,1548 1960,1547 1966,1547 1967,1546 1974,1546 1975,1545 1984,1545 1985,1544 1991,1544 1992,1543 1998,1543 1999,1542 2003,1542 2004,1541 2009,1541 2010,1540 2014,1540 2015,1539 2017,1539 2018,1538 2019,1538 2023,1534 2023,1532 2024,1531 2024,1512 2025,1511 2025,1396 2024,1395 2024,1318 2025,1317 2025,1313 2024,1312 2024,1274 2023,1273 2023,1262 2024,1261 2024,1186 2025,1185 2025,1170 2024,1169 2024,1167 2023,1166 2023,1165 2022,1164 2021,1164 2020,1163 2017,1163 2016,1162" fill="rgba(83,91,110,0.3)" stroke="rgb(83,91,110)" stroke-width="2" data-block-id="0018" data-name="b-0027" /><text x="1805" y="1365" text-anchor="middle" dominant-baseline="middle" class="block-label" fill="rgb(83,91,110)" stroke="white" stroke-width="3" paint-order="stroke">b-0027</text><polygon points="1665,750 1664,751 1658,751 1657,752 1655,752 1654,753 1653,753 1651,755 1651,758 1650,759 1651,760 1651,822 1650,823 1650,837 1651,838 1651,843 1650,844 1650,860 1651,861 1651,868 1650,869 1650,920 1649,921 1649,991 1648,992 1648,998 1649,999 1649,1064 1648,1065 1648,1069 1649,1070 1649,1084 1648,1085 1648,1101 1649,1102 1649,1105 1651,1107 1651,1108 1652,1108 1653,1109 1667,1109 1668,1108 1675,1108 1676,1107 1681,1107 1682,1106 1688,1106 1689,1105 1695,1105 1696,1104 1704,1104 1705,1103 1713,1103 1714,1102 1719,1102 1720,1101 1729,1101 1730,1100 1739,1100 1740,1099 1746,1099 1747,1098 1755,1098 1756,1097 1764,1097 1765,1096 1769,1096 1770,1095 1781,1095 1782,1094 1790,1094 1791,1093 1798,1093 1799,1092 1808,1092 1809,1091 1814,1091 1815,1090 1821,1090 1822,1089 1832,1089 1833,1088 1838,1088 1839,1087 1847,1087 1848,1086 1855,1086 1856,1085 1865,1085 1866,1084 1872,1084 1873,1083 1878,1083 1879,1082 1888,1082 1889,1081 1897,1081 1898,1080 1903,1080 1904,1079 1910,1079 1911,1078 1915,1078 1916,1077 1930,1077 1931,1076 1936,1076 1937,1075 1945,1075 1946,1074 1952,1074 1953,1073 1958,1073 1959,1072 1965,1072 1966,1071 1973,1071 1974,1070 1983,1070 1984,1069 1993,1069 1994,1068 2001,1068 2002,1067 2008,1067 2009,1066 2015,1066 2016,1065 2020,1065 2021,1064 2022,1064 2023,1063 2024,1063 2024,1062 2025,1061 2025,1060 2026,1059 2026,1050 2027,1049 2027,1042 2028,1041 2028,1029 2027,1028 2027,1013 2028,1012 2028,994 2029,993 2029,978 2028,977 2028,970 2029,969 2029,913 2028,912 2028,909 2029,908 2029,895 2028,894 2028,809 2029,808 2029,760 2028,759 2028,758 2025,755 2022,755 2021,754 2011,754 2010,753 1874,753 1873,752 1864,752 1863,753 1849,753 1848,752 1833,752 1832,751 1823,751 1822,752 1687,752 1686,751 1667,751 1666,750" fill="rgba(252,7,174,0.3)" stroke="rgb(252,7,174)" stroke-width="2" data-block-id="0019" data-name="b-0029" /><text x="1835" y="993" text-anchor="middle" dominant-baseline="middle" class="block-label" fill="rgb(252,7,174)" stroke="white" stroke-width="3" paint-order="stroke">b-0029</text><polygon points="4068,1676 4067,1677 4059,1677 4058,1678 4021,1678 4020,1679 3979,1679 3978,1680 3962,1680 3961,1681 3957,1681 3956,1682 3954,1682 3952,1684 3951,1684 3949,1686 3949,1688 3948,1689 3948,1691 3947,1692 3947,1696 3946,1697 3946,1706 3947,1707 3947,1713 3948,1714 3948,1739 3947,1740 3947,1745 3948,1746 3948,1808 3947,1809 3947,1892 3946,1893 3946,1922 3947,1923 3947,1941 3946,1942 3946,1973 3947,1974 3947,1977 3948,1978 3948,1979 3949,1980 3949,1981 3952,1984 3953,1984 3954,1985 3955,1985 3956,1986 3958,1986 3959,1987 3987,1987 3988,1986 4017,1986 4018,1987 4080,1987 4081,1986 4088,1986 4089,1985 4092,1985 4094,1983 4094,1982 4096,1980 4096,1978 4097,1977 4097,1681 4096,1680 4096,1679 4094,1677 4093,1677 4092,1676" fill="rgba(236,81,110,0.3)" stroke="rgb(236,81,110)" stroke-width="2" data-block-id="0020" data-name="b-0042" /><text x="3993" y="1827" text-anchor="middle" dominant-baseline="middle" class="block-label" fill="rgb(236,81,110)" stroke="white" stroke-width="3" paint-order="stroke">b-0042</text><polygon points="4456,1514 4455,1515 4448,1515 4447,1516 4438,1516 4437,1517 4430,1517 4429,1518 4425,1518 4424,1519 4420,1519 4419,1520 4415,1520 4414,1521 4408,1521 4407,1522 4403,1522 4402,1523 4400,1523 4399,1524 4398,1524 4397,1525 4395,1525 4391,1529 4391,1542 4392,1543 4392,1549 4391,1550 4391,1561 4390,1562 4390,1582 4389,1583 4390,1584 4390,1594 4391,1595 4391,1602 4392,1603 4392,1613 4391,1614 4391,1649 4390,1650 4390,1671 4391,1672 4391,1733 4390,1734 4390,1743 4391,1744 4391,1752 4392,1753 4392,1806 4391,1807 4391,1872 4392,1873 4392,1889 4391,1890 4391,1898 4392,1899 4392,1924 4393,1925 4393,1934 4392,1935 4392,1950 4391,1951 4391,1969 4390,1970 4390,1978 4391,1979 4391,2036 4390,2037 4390,2064 4391,2065 4391,2085 4390,2086 4390,2122 4389,2123 4389,2137 4390,2138 4390,2216 4391,2217 4391,2248 4390,2249 4390,2254 4389,2255 4389,2257 4388,2258 4388,2259 4384,2263 4383,2263 4382,2264 4379,2264 4378,2265 4372,2265 4371,2266 4360,2266 4359,2267 4339,2267 4338,2266 4335,2266 4334,2265 4331,2265 4330,2264 4329,2265 4324,2265 4323,2266 4322,2266 4321,2267 4319,2267 4318,2268 4317,2268 4316,2269 4314,2269 4312,2271 4310,2271 4309,2272 4303,2272 4302,2271 4299,2271 4298,2270 4297,2270 4296,2269 4294,2269 4293,2268 4292,2268 4292,2269 4291,2270 4291,2288 4292,2289 4296,2289 4297,2290 4309,2290 4310,2291 4324,2291 4325,2292 4326,2292 4327,2291 4335,2291 4336,2290 4340,2290 4341,2289 4344,2289 4345,2288 4347,2288 4348,2289 4352,2289 4353,2290 4356,2290 4357,2291 4360,2291 4361,2292 4366,2292 4367,2293 4391,2293 4392,2294 4401,2294 4402,2295 4411,2295 4412,2296 4421,2296 4422,2297 4423,2296 4425,2296 4426,2295 4427,2295 4428,2294 4428,2293 4429,2292 4429,2291 4430,2290 4430,2289 4431,2288 4431,2281 4430,2280 4430,2272 4429,2271 4429,2144 4430,2143 4430,2102 4429,2101 4429,2081 4430,2080 4430,2021 4431,2020 4431,1998 4432,1997 4432,1963 4433,1962 4433,1945 4432,1944 4432,1933 4433,1932 4433,1915 4434,1914 4434,1820 4435,1819 4435,1786 4434,1785 4434,1771 4435,1770 4435,1589 4436,1588 4436,1581 4435,1580 4435,1567 4436,1566 4436,1563 4437,1562 4437,1561 4442,1556 4443,1556 4445,1554 4447,1554 4448,1553 4450,1553 4451,1552 4453,1552 4454,1551 4458,1551 4459,1550 4462,1550 4463,1549 4465,1549 4466,1548 4467,1548 4470,1545 4470,1543 4471,1542 4471,1531 4472,1530 4472,1529 4471,1528 4471,1523 4470,1522 4470,1520 4469,1519 4469,1518 4467,1516 4467,1515 4465,1515 4464,1514" fill="rgba(64,88,70,0.3)" stroke="rgb(64,88,70)" stroke-width="2" data-block-id="0021" data-name="b-0047" /><text x="4395" y="1940" text-anchor="middle" dominant-baseline="middle" class="block-label" fill="rgb(64,88,70)" stroke="white" stroke-width="3" paint-order="stroke">b-0047</text><polygon points="749,1967 748,1968 729,1968 728,1969 722,1969 721,1970 719,1970 718,1971 716,1971 715,1972 714,1972 711,1975 710,1975 709,1976 709,1977 708,1978 706,1978 705,1979 704,1979 703,1980 702,1980 701,1981 695,1981 694,1980 691,1980 690,1979 686,1979 685,1978 674,1978 673,1979 670,1979 669,1980 667,1980 666,1981 665,1981 664,1982 663,1982 662,1983 660,1983 659,1982 656,1982 655,1981 653,1981 652,1980 647,1980 646,1981 642,1981 641,1982 623,1982 622,1983 619,1983 618,1984 617,1984 616,1985 610,1985 608,1983 606,1983 605,1982 603,1982 603,1985 604,1986 604,1991 605,1992 607,1992 609,1994 611,1994 612,1995 641,1995 642,1996 644,1996 648,2000 648,2001 649,2002 649,2007 650,2008 650,2035 651,2036 651,2050 652,2051 652,2109 653,2110 653,2114 654,2115 654,2116 658,2120 659,2120 660,2121 662,2121 663,2122 665,2122 666,2123 668,2123 669,2124 670,2124 671,2125 673,2125 674,2126 675,2126 676,2127 677,2127 678,2128 679,2128 680,2129 681,2129 682,2130 684,2130 685,2131 687,2131 688,2132 691,2132 692,2133 694,2133 695,2134 698,2134 699,2135 701,2135 702,2136 705,2136 706,2137 708,2137 709,2138 713,2138 714,2139 719,2139 720,2140 723,2140 724,2141 726,2141 727,2142 728,2142 729,2143 731,2143 732,2144 735,2144 736,2145 764,2145 765,2144 770,2144 771,2143 773,2143 778,2138 778,2126 777,2125 777,2113 776,2112 776,2099 775,2098 775,2091 774,2090 774,2082 773,2081 773,2070 772,2069 772,2058 771,2057 771,2047 770,2046 770,2038 769,2037 769,2023 768,2022 768,2010 767,2009 767,1995 766,1994 766,1988 765,1987 765,1983 764,1982 764,1972 763,1971 763,1970 761,1968 759,1968 758,1967" fill="rgba(134,200,71,0.3)" stroke="rgb(134,200,71)" stroke-width="2" data-block-id="0022" data-name="b-0055" /><text x="696" y="2047" text-anchor="middle" dominant-baseline="middle" class="block-label" fill="rgb(134,200,71)" stroke="white" stroke-width="3" paint-order="stroke">b-0055</text></g>
</svg>