<?xml version='1.0' encoding='utf-8'?>
<svg xmlns="http://www.w3.org/2000/svg" xmlns:atlas="http://example.com/atlas" width="4984" height="3288" viewBox="0 0 4984 3288">
  
  <metadata>
    <atlas:source>
      <atlas:jp2-path>/Users/pwright/workspace/atlas/media/v2/p15.jp2</atlas:jp2-path>
      <atlas:volume>unknown</atlas:volume>
      <atlas:plate-id>p15</atlas:plate-id>
      <atlas:image-width>4984</atlas:image-width>
      <atlas:image-height>3288</atlas:image-height>
    <atlas:angle>0</atlas:angle><atlas:scale>1.3333333333333333</atlas:scale><atlas:pos-x>1439.5905117733225</atlas:pos-x><atlas:pos-y>2221.590295946485</atlas:pos-y></atlas:source>
  </metadata>

  
  <image id="background" href="file:///Users/pwright/workspace/atlas/media/v2/p15.jp2" width="4984" height="3288" opacity="0.5" />

  <style>
    .block-label { font-family: sans-serif; font-size: 14px; font-weight: bold; }
  </style>

  
  <g id="blocks">
    <polygon points="1650,2521 1649,2522 1647,2522 1646,2523 1643,2523 1642,2524 1640,2524 1639,2525 1637,2525 1635,2527 1634,2527 1632,2529 1631,2529 1629,2531 1627,2531 1626,2532 1624,2530 1622,2530 1621,2529 1618,2529 1617,2528 1614,2528 1613,2529 1608,2529 1607,2530 1602,2530 1601,2531 1585,2531 1584,2532 1575,2532 1574,2531 1532,2531 1531,2530 1526,2530 1525,2529 1517,2529 1516,2530 1513,2530 1512,2531 1510,2531 1509,2532 1507,2532 1506,2531 1504,2531 1503,2530 1500,2530 1499,2529 1490,2529 1489,2530 1478,2530 1477,2529 1469,2529 1468,2530 1445,2530 1444,2531 1439,2531 1438,2532 1437,2532 1436,2531 1432,2531 1431,2530 1428,2530 1427,2529 1420,2529 1419,2530 1415,2530 1414,2531 1410,2531 1409,2530 1403,2530 1402,2529 1401,2529 1400,2530 1396,2530 1395,2531 1393,2531 1392,2532 1387,2532 1386,2531 1384,2531 1383,2530 1381,2530 1380,2529 1372,2529 1371,2530 1337,2530 1336,2529 1322,2529 1321,2530 1297,2530 1296,2531 1293,2531 1292,2530 1288,2530 1287,2529 1274,2529 1273,2530 1264,2530 1263,2529 1229,2529 1228,2530 1214,2530 1213,2529 1206,2529 1205,2530 1193,2530 1192,2529 1179,2529 1178,2530 1154,2530 1153,2531 1150,2531 1149,2530 1145,2530 1144,2529 1134,2529 1133,2530 1130,2530 1129,2531 1122,2531 1121,2530 1117,2530 1116,2529 1112,2529 1111,2530 1107,2530 1106,2531 1101,2531 1100,2530 1098,2530 1097,2529 1095,2529 1094,2528 1087,2528 1086,2529 1084,2529 1083,2530 1081,2530 1080,2531 1076,2531 1075,2530 1071,2530 1070,2529 1064,2529 1063,2530 1060,2530 1059,2531 1052,2531 1051,2530 1048,2530 1047,2529 1037,2529 1036,2530 1031,2530 1030,2531 1026,2531 1025,2532 1021,2532 1020,2533 1018,2533 1011,2540 1011,2542 1010,2543 1010,2560 1009,2561 1009,2573 1010,2574 1010,2579 1009,2580 1009,2587 1008,2588 1008,2611 1009,2612 1009,2633 1008,2634 1008,2644 1009,2645 1009,2660 1008,2661 1008,2736 1007,2737 1007,2746 1006,2747 1006,2765 1007,2766 1007,2768 1006,2769 1006,2778 1005,2779 1005,2808 1006,2809 1006,2821 1005,2822 1005,2829 1004,2830 1004,2846 1005,2847 1005,2869 1004,2870 1004,2876 1005,2877 1005,2879 1006,2880 1006,2881 1007,2882 1007,2883 1010,2886 1011,2886 1012,2887 1013,2887 1014,2888 1015,2888 1016,2889 1017,2889 1018,2890 1037,2890 1038,2891 1052,2891 1053,2892 1065,2892 1066,2893 1068,2893 1069,2892 1086,2892 1087,2893 1094,2893 1095,2892 1122,2892 1123,2891 1131,2891 1132,2892 1168,2892 1169,2891 1182,2891 1183,2892 1192,2892 1193,2891 1203,2891 1204,2892 1211,2892 1212,2891 1218,2891 1219,2890 1225,2890 1226,2891 1249,2891 1250,2892 1262,2892 1263,2891 1275,2891 1276,2892 1282,2892 1283,2893 1284,2893 1285,2892 1313,2892 1314,2891 1320,2891 1321,2892 1347,2892 1348,2893 1358,2893 1359,2892 1421,2892 1422,2893 1427,2893 1428,2892 1434,2892 1435,2891 1445,2891 1446,2892 1447,2892 1448,2891 1456,2891 1457,2890 1464,2890 1465,2891 1502,2891 1503,2890 1515,2890 1516,2891 1560,2891 1561,2892 1565,2892 1566,2893 1571,2893 1572,2892 1587,2892 1588,2893 1591,2893 1592,2892 1595,2892 1596,2891 1597,2891 1598,2890 1600,2890 1601,2889 1607,2889 1608,2890 1611,2890 1612,2891 1614,2891 1615,2892 1621,2892 1622,2891 1629,2891 1630,2892 1635,2892 1636,2893 1640,2893 1641,2892 1643,2892 1644,2891 1645,2891 1646,2890 1648,2890 1649,2889 1654,2889 1655,2890 1658,2890 1659,2891 1670,2891 1671,2890 1680,2890 1681,2891 1691,2891 1692,2890 1704,2890 1705,2891 1708,2891 1709,2892 1715,2892 1716,2891 1732,2891 1733,2892 1734,2892 1735,2891 1740,2891 1741,2890 1753,2890 1754,2891 1785,2891 1786,2890 1788,2890 1789,2889 1791,2889 1792,2888 1798,2888 1799,2889 1802,2889 1803,2890 1823,2890 1824,2889 1844,2889 1845,2890 1851,2890 1852,2891 1859,2891 1860,2892 1887,2892 1888,2891 1892,2891 1893,2892 1935,2892 1936,2891 1940,2891 1941,2892 1955,2892 1956,2891 1976,2891 1977,2892 1996,2892 1997,2891 2016,2891 2017,2890 2055,2890 2056,2889 2062,2889 2063,2890 2109,2890 2110,2889 2113,2889 2114,2888 2122,2888 2123,2889 2133,2889 2134,2888 2143,2888 2144,2889 2147,2889 2148,2890 2158,2890 2159,2889 2168,2889 2169,2890 2203,2890 2204,2889 2212,2889 2213,2890 2236,2890 2237,2891 2252,2891 2253,2890 2262,2890 2263,2891 2289,2891 2290,2890 2333,2890 2334,2889 2357,2889 2358,2888 2364,2888 2365,2887 2375,2887 2376,2888 2381,2888 2382,2889 2387,2889 2388,2890 2410,2890 2411,2889 2434,2889 2435,2888 2452,2888 2453,2887 2457,2887 2458,2886 2462,2886 2463,2885 2466,2885 2467,2884 2469,2884 2470,2883 2472,2883 2473,2882 2474,2882 2475,2881 2475,2880 2476,2879 2476,2878 2477,2877 2477,2851 2478,2850 2478,2845 2479,2844 2479,2836 2478,2835 2478,2812 2477,2811 2477,2799 2478,2798 2478,2788 2477,2787 2477,2776 2476,2775 2476,2761 2477,2760 2477,2749 2478,2748 2478,2743 2477,2742 2477,2738 2476,2737 2476,2730 2477,2729 2477,2713 2476,2712 2476,2708 2477,2707 2477,2703 2478,2702 2478,2693 2477,2692 2477,2667 2476,2666 2476,2659 2477,2658 2477,2653 2478,2652 2478,2646 2477,2645 2477,2629 2478,2628 2478,2626 2477,2625 2477,2620 2476,2619 2476,2609 2477,2608 2477,2593 2476,2592 2476,2588 2477,2587 2477,2569 2476,2568 2476,2565 2477,2564 2477,2547 2476,2546 2476,2539 2475,2538 2475,2534 2474,2533 2474,2532 2473,2531 2473,2530 2472,2529 2471,2529 2470,2528 2468,2528 2467,2527 2466,2527 2465,2526 2462,2526 2461,2525 2445,2525 2444,2524 2435,2524 2434,2525 2421,2525 2420,2524 2417,2524 2416,2523 2412,2523 2411,2524 2406,2524 2405,2525 2400,2525 2399,2524 2395,2524 2394,2523 2389,2523 2388,2524 2387,2524 2386,2525 2385,2525 2384,2526 2382,2526 2381,2527 2378,2527 2377,2528 2376,2527 2369,2527 2368,2526 2367,2527 2364,2527 2363,2528 2361,2528 2360,2529 2357,2529 2356,2530 2346,2530 2345,2529 2330,2529 2329,2528 2325,2528 2324,2527 2287,2527 2286,2528 2285,2528 2284,2527 2276,2527 2275,2526 2269,2526 2268,2527 2265,2527 2264,2528 2261,2528 2260,2529 2258,2529 2257,2528 2251,2528 2250,2527 2247,2527 2246,2528 2244,2528 2243,2529 2242,2529 2241,2530 2240,2530 2238,2532 2237,2532 2236,2533 2234,2533 2233,2532 2232,2532 2231,2531 2229,2531 2228,2530 2227,2530 2226,2529 2222,2529 2221,2530 2220,2530 2219,2531 2218,2531 2217,2532 2216,2532 2215,2533 2213,2533 2212,2534 2201,2534 2200,2535 2190,2535 2189,2536 2188,2536 2187,2535 2179,2535 2178,2534 2164,2534 2163,2533 2162,2533 2161,2532 2160,2532 2158,2530 2157,2530 2156,2529 2155,2529 2154,2528 2153,2528 2152,2527 2145,2527 2144,2528 2139,2528 2138,2527 2133,2527 2132,2526 2127,2526 2126,2527 2125,2527 2124,2528 2122,2528 2121,2529 2120,2529 2119,2530 2112,2530 2111,2529 2106,2529 2105,2528 2089,2528 2088,2527 2084,2527 2083,2526 2079,2526 2078,2527 2077,2527 2076,2528 2075,2528 2074,2529 2072,2529 2071,2530 2065,2530 2064,2529 2060,2529 2059,2528 2053,2528 2052,2529 2038,2529 2037,2528 2026,2528 2025,2529 2016,2529 2015,2528 2006,2528 2005,2529 1992,2529 1991,2528 1982,2528 1981,2529 1977,2529 1976,2530 1957,2530 1956,2529 1947,2529 1946,2528 1934,2528 1933,2529 1926,2529 1925,2530 1859,2530 1858,2531 1836,2531 1835,2530 1809,2530 1808,2529 1776,2529 1775,2528 1722,2528 1721,2527 1718,2527 1717,2526 1716,2526 1715,2525 1714,2525 1713,2524 1711,2524 1710,2523 1708,2523 1707,2522 1703,2522 1702,2521 1666,2521 1665,2522 1660,2522 1659,2521" fill="rgba(121,210,214,0.3)" stroke="rgb(121,210,214)" stroke-width="2" data-block-id="0001" data-name="b-0004" /><text x="1783" y="2675" text-anchor="middle" dominant-baseline="middle" class="block-label" fill="rgb(121,210,214)" stroke="white" stroke-width="3" paint-order="stroke">b-0004</text><polygon points="1048,623 1047,624 1026,624 1025,625 1020,625 1019,626 1018,626 1017,627 1016,627 1016,628 1014,630 1014,631 1012,633 1012,634 1011,635 1011,636 1010,637 1010,646 1009,647 1009,652 1008,653 1008,657 1007,658 1007,661 1008,662 1008,664 1009,665 1009,666 1010,667 1010,669 1011,670 1011,676 1012,677 1012,692 1011,693 1011,709 1012,710 1012,749 1011,750 1011,778 1012,779 1012,854 1013,855 1013,891 1012,892 1012,935 1011,936 1011,950 1012,951 1012,966 1011,967 1011,970 1012,971 1012,974 1013,975 1013,976 1014,977 1014,978 1017,981 1018,981 1019,982 1021,982 1022,983 1026,983 1027,984 1042,984 1043,985 1057,985 1058,986 1112,986 1113,987 1114,986 1158,986 1159,985 1193,985 1194,984 1212,984 1213,983 1241,983 1242,982 1287,982 1288,983 1297,983 1298,982 1310,982 1311,983 1351,983 1352,984 1366,984 1367,985 1379,985 1380,984 1479,984 1480,983 1501,983 1502,984 1526,984 1527,983 1546,983 1547,984 1555,984 1556,985 1577,985 1578,984 1586,984 1587,985 1646,985 1647,986 1667,986 1668,985 1702,985 1703,986 1707,986 1708,987 1768,987 1769,986 1772,986 1773,987 1802,987 1803,986 1812,986 1813,985 1900,985 1901,986 1940,986 1941,987 1957,987 1958,986 2023,986 2024,985 2065,985 2066,984 2071,984 2072,985 2098,985 2099,984 2124,984 2125,985 2194,985 2195,986 2209,986 2210,987 2242,987 2243,986 2268,986 2269,987 2351,987 2352,986 2357,986 2358,987 2366,987 2367,988 2384,988 2385,987 2466,987 2467,986 2470,986 2471,985 2472,985 2475,982 2475,979 2476,978 2476,971 2477,970 2477,930 2476,929 2476,904 2477,903 2477,777 2476,776 2476,759 2477,758 2477,757 2476,756 2476,716 2477,715 2477,702 2476,701 2476,691 2477,690 2477,678 2476,677 2476,670 2477,669 2477,662 2478,661 2478,658 2477,657 2477,645 2476,644 2476,638 2475,637 2475,635 2474,634 2474,633 2472,631 2471,631 2470,630 2468,630 2467,629 2465,629 2464,628 2440,628 2439,627 2392,627 2391,626 2372,626 2371,625 2366,625 2365,626 2360,626 2359,627 2341,627 2340,626 2323,626 2322,625 2318,625 2317,626 2300,626 2299,625 2293,625 2292,626 2284,626 2283,627 2282,627 2281,626 2246,626 2245,625 2160,625 2159,624 2144,624 2143,625 2129,625 2128,626 2105,626 2104,625 2087,625 2086,624 2070,624 2069,625 2032,625 2031,626 1992,626 1991,627 1954,627 1953,626 1930,626 1929,625 1921,625 1920,626 1906,626 1905,627 1880,627 1879,628 1873,628 1872,627 1862,627 1861,626 1857,626 1856,625 1843,625 1842,626 1832,626 1831,627 1780,627 1779,626 1762,626 1761,627 1679,627 1678,628 1673,628 1672,627 1660,627 1659,626 1635,626 1634,627 1623,627 1622,628 1606,628 1605,627 1602,627 1601,628 1548,628 1547,627 1537,627 1536,628 1525,628 1524,627 1477,627 1476,626 1451,626 1450,627 1437,627 1436,626 1428,626 1427,625 1401,625 1400,626 1392,626 1391,627 1384,627 1383,628 1379,628 1378,629 1372,629 1371,630 1359,630 1358,629 1348,629 1347,630 1337,630 1336,631 1298,631 1297,632 1276,632 1275,633 1267,633 1266,632 1240,632 1239,631 1223,631 1222,630 1199,630 1198,629 1197,629 1195,627 1194,627 1193,626 1192,626 1191,625 1190,625 1189,624 1114,624 1113,625 1105,625 1104,626 1102,626 1101,625 1096,625 1095,624 1081,624 1080,623" fill="rgba(74,202,87,0.3)" stroke="rgb(74,202,87)" stroke-width="2" data-block-id="0002" data-name="b-0005" /><text x="1685" y="765" text-anchor="middle" dominant-baseline="middle" class="block-label" fill="rgb(74,202,87)" stroke="white" stroke-width="3" paint-order="stroke">b-0005</text><polygon points="1031,1098 1030,1099 1024,1099 1023,1100 1020,1100 1019,1101 1018,1101 1014,1105 1014,1106 1013,1107 1013,1108 1012,1109 1012,1110 1011,1111 1011,1112 1010,1113 1010,1149 1011,1150 1011,1230 1012,1231 1012,1237 1011,1238 1011,1250 1012,1251 1012,1259 1011,1260 1011,1284 1012,1285 1012,1333 1011,1334 1011,1358 1012,1359 1012,1362 1011,1363 1011,1428 1012,1429 1012,1440 1011,1441 1011,1450 1012,1451 1012,1453 1013,1454 1013,1456 1014,1457 1014,1458 1015,1458 1017,1460 1018,1460 1019,1461 1023,1461 1024,1462 1031,1462 1032,1463 1095,1463 1096,1462 1099,1462 1100,1461 1103,1461 1104,1460 1105,1461 1106,1461 1107,1462 1109,1462 1110,1463 1126,1463 1127,1462 1142,1462 1143,1463 1151,1463 1152,1464 1156,1464 1157,1463 1211,1463 1212,1462 1217,1462 1218,1461 1235,1461 1236,1460 1241,1460 1242,1459 1246,1459 1247,1458 1248,1458 1249,1459 1287,1459 1288,1458 1294,1458 1295,1457 1300,1457 1301,1458 1305,1458 1306,1457 1333,1457 1334,1456 1338,1456 1339,1455 1346,1455 1347,1456 1356,1456 1357,1455 1361,1455 1362,1454 1369,1454 1370,1455 1381,1455 1382,1454 1386,1454 1387,1453 1392,1453 1393,1454 1408,1454 1409,1453 1417,1453 1418,1454 1430,1454 1431,1455 1451,1455 1452,1454 1473,1454 1474,1455 1475,1454 1485,1454 1486,1455 1494,1455 1495,1456 1498,1456 1499,1455 1505,1455 1506,1454 1510,1454 1511,1455 1516,1455 1517,1456 1522,1456 1523,1455 1529,1455 1530,1454 1539,1454 1540,1455 1548,1455 1549,1454 1561,1454 1562,1455 1589,1455 1590,1456 1591,1455 1599,1455 1600,1454 1616,1454 1617,1455 1621,1455 1622,1456 1625,1456 1626,1457 1641,1457 1642,1456 1647,1456 1648,1455 1663,1455 1664,1456 1674,1456 1675,1457 1682,1457 1683,1458 1692,1458 1693,1457 1706,1457 1707,1458 1711,1458 1712,1457 1717,1457 1718,1456 1750,1456 1751,1457 1754,1457 1755,1458 1765,1458 1766,1457 1785,1457 1786,1456 1796,1456 1797,1457 1814,1457 1815,1458 1859,1458 1860,1457 1869,1457 1870,1456 1877,1456 1878,1455 1894,1455 1895,1456 1899,1456 1900,1457 1905,1457 1906,1456 1912,1456 1913,1455 1919,1455 1920,1456 1941,1456 1942,1457 1946,1457 1947,1458 1951,1458 1952,1457 1954,1457 1955,1456 1957,1456 1958,1455 1967,1455 1968,1456 1978,1456 1979,1457 1985,1457 1986,1458 1990,1458 1991,1459 1994,1459 1995,1460 2021,1460 2022,1461 2052,1461 2053,1460 2062,1460 2063,1459 2071,1459 2072,1460 2128,1460 2129,1461 2144,1461 2145,1460 2161,1460 2162,1461 2173,1461 2174,1462 2178,1462 2179,1461 2189,1461 2190,1460 2215,1460 2216,1461 2312,1461 2313,1462 2319,1462 2320,1463 2325,1463 2326,1464 2384,1464 2385,1463 2397,1463 2398,1462 2413,1462 2414,1463 2459,1463 2460,1462 2469,1462 2470,1461 2473,1461 2474,1460 2475,1460 2477,1458 2477,1456 2478,1455 2478,1453 2479,1452 2479,1445 2480,1444 2480,1427 2481,1426 2481,1406 2480,1405 2480,1394 2481,1393 2481,1384 2480,1383 2480,1371 2481,1370 2481,1361 2480,1360 2480,1339 2479,1338 2479,1309 2478,1308 2478,1277 2479,1276 2479,1266 2478,1265 2478,1251 2479,1250 2479,1236 2478,1235 2478,1221 2479,1220 2479,1191 2478,1190 2478,1178 2479,1177 2479,1172 2478,1171 2478,1123 2477,1122 2477,1117 2476,1116 2476,1112 2475,1111 2475,1109 2471,1105 2470,1105 2469,1104 2466,1104 2465,1103 2460,1103 2459,1102 2404,1102 2403,1101 2362,1101 2361,1102 2354,1102 2353,1103 2352,1102 2336,1102 2335,1103 2300,1103 2299,1104 2291,1104 2290,1105 2280,1105 2279,1106 2265,1106 2264,1105 2255,1105 2254,1106 2229,1106 2228,1105 2221,1105 2220,1106 2213,1106 2212,1107 2201,1107 2200,1108 2198,1108 2197,1107 2130,1107 2129,1108 2110,1108 2109,1109 2106,1109 2105,1108 2094,1108 2093,1107 2076,1107 2075,1108 2048,1108 2047,1109 2029,1109 2028,1108 2004,1108 2003,1109 1993,1109 1992,1108 1970,1108 1969,1109 1954,1109 1953,1108 1943,1108 1942,1107 1930,1107 1929,1108 1861,1108 1860,1107 1841,1107 1840,1108 1780,1108 1779,1107 1670,1107 1669,1106 1645,1106 1644,1105 1627,1105 1626,1104 1602,1104 1601,1103 1595,1103 1594,1102 1591,1102 1590,1101 1585,1101 1584,1100 1525,1100 1524,1099 1515,1099 1514,1100 1501,1100 1500,1099 1493,1099 1492,1100 1467,1100 1466,1101 1451,1101 1450,1100 1445,1100 1444,1101 1372,1101 1371,1102 1361,1102 1360,1101 1324,1101 1323,1102 1281,1102 1280,1101 1245,1101 1244,1100 1211,1100 1210,1099 1197,1099 1196,1100 1192,1100 1191,1099 1188,1099 1187,1100 1173,1100 1172,1099 1141,1099 1140,1098 1135,1098 1134,1099 1123,1099 1122,1098" fill="rgba(151,130,149,0.3)" stroke="rgb(151,130,149)" stroke-width="2" data-block-id="0003" data-name="b-0007" /><text x="1729" y="1318" text-anchor="middle" dominant-baseline="middle" class="block-label" fill="rgb(151,130,149)" stroke="white" stroke-width="3" paint-order="stroke">b-0007</text><polygon points="3913,1566 3912,1567 3909,1567 3908,1568 3897,1568 3896,1567 3890,1567 3889,1568 3883,1568 3882,1569 3860,1569 3859,1570 3855,1570 3854,1569 3814,1569 3813,1570 3810,1570 3809,1569 3803,1569 3802,1568 3792,1568 3791,1569 3786,1569 3785,1570 3759,1570 3758,1569 3751,1569 3750,1568 3748,1568 3747,1569 3741,1569 3740,1570 3719,1570 3718,1569 3694,1569 3693,1568 3650,1568 3649,1569 3645,1569 3644,1570 3639,1570 3638,1569 3634,1569 3633,1568 3625,1568 3624,1569 3600,1569 3599,1570 3591,1570 3590,1569 3576,1569 3575,1570 3542,1570 3541,1569 3527,1569 3526,1570 3518,1570 3517,1569 3509,1569 3508,1570 3506,1570 3505,1571 3502,1571 3501,1572 3483,1572 3482,1571 3478,1571 3477,1570 3457,1570 3456,1571 3442,1571 3441,1570 3440,1570 3439,1571 3433,1571 3432,1572 3398,1572 3397,1571 3385,1571 3384,1572 3376,1572 3375,1571 3362,1571 3361,1572 3300,1572 3299,1571 3295,1571 3294,1572 3277,1572 3276,1571 3268,1571 3267,1572 3156,1572 3155,1571 3152,1571 3151,1572 3122,1572 3121,1573 3101,1573 3100,1574 3088,1574 3087,1573 3083,1573 3082,1572 3079,1572 3078,1573 3071,1573 3070,1574 3059,1574 3058,1573 3055,1573 3054,1574 2926,1574 2925,1573 2910,1573 2909,1572 2885,1572 2884,1573 2844,1573 2843,1574 2762,1574 2761,1573 2758,1573 2757,1574 2752,1574 2751,1575 2686,1575 2685,1576 2662,1576 2661,1577 2659,1577 2658,1578 2657,1578 2656,1579 2655,1579 2653,1581 2653,1582 2652,1583 2652,1584 2651,1585 2651,1586 2650,1587 2650,1592 2649,1593 2649,1658 2648,1659 2648,1674 2649,1675 2649,1714 2650,1715 2650,1730 2649,1731 2649,1757 2650,1758 2650,1778 2649,1779 2649,1799 2648,1800 2648,1805 2647,1806 2647,1814 2648,1815 2647,1816 2647,1827 2646,1828 2646,1832 2647,1833 2647,1842 2648,1843 2648,1845 2649,1846 2649,1849 2650,1850 2650,1861 2649,1862 2649,1881 2650,1882 2650,1897 2649,1898 2649,1904 2650,1905 2650,1924 2651,1925 2651,1926 2653,1928 2654,1928 2655,1929 2657,1929 2658,1930 2660,1930 2661,1931 2664,1931 2665,1932 2684,1932 2685,1933 2733,1933 2734,1934 2737,1934 2738,1933 2754,1933 2755,1934 2763,1934 2764,1933 2770,1933 2771,1932 2773,1932 2774,1933 2786,1933 2787,1932 2792,1932 2793,1931 2802,1931 2803,1932 2841,1932 2842,1931 2844,1931 2845,1932 2864,1932 2865,1931 2869,1931 2870,1932 2889,1932 2890,1933 2906,1933 2907,1932 2912,1932 2913,1931 2916,1931 2917,1932 2922,1932 2923,1933 2952,1933 2953,1932 3006,1932 3007,1931 3012,1931 3013,1932 3070,1932 3071,1931 3083,1931 3084,1930 3095,1930 3096,1931 3105,1931 3106,1932 3111,1932 3112,1931 3123,1931 3124,1930 3136,1930 3137,1931 3170,1931 3171,1930 3187,1930 3188,1931 3219,1931 3220,1930 3277,1930 3278,1931 3286,1931 3287,1930 3330,1930 3331,1931 3333,1931 3334,1930 3363,1930 3364,1929 3375,1929 3376,1930 3447,1930 3448,1929 3469,1929 3470,1930 3498,1930 3499,1929 3527,1929 3528,1930 3545,1930 3546,1929 3564,1929 3565,1930 3590,1930 3591,1929 3617,1929 3618,1930 3636,1930 3637,1929 3644,1929 3645,1928 3661,1928 3662,1929 3686,1929 3687,1928 3707,1928 3708,1929 3725,1929 3726,1928 3739,1928 3740,1927 3746,1927 3747,1926 3752,1926 3753,1927 3766,1927 3767,1928 3790,1928 3791,1927 3803,1927 3804,1928 3815,1928 3816,1927 3826,1927 3827,1928 3834,1928 3835,1927 3840,1927 3841,1926 3851,1926 3852,1927 3862,1927 3863,1926 3873,1926 3874,1927 3885,1927 3886,1926 3908,1926 3909,1927 3928,1927 3929,1926 3942,1926 3943,1927 3960,1927 3961,1926 3968,1926 3969,1927 3978,1927 3979,1926 3981,1926 3982,1925 3984,1925 3985,1924 3995,1924 3996,1925 4019,1925 4020,1926 4026,1926 4027,1925 4033,1925 4034,1924 4036,1924 4037,1925 4042,1925 4043,1926 4053,1926 4054,1925 4065,1925 4066,1926 4072,1926 4073,1925 4075,1925 4076,1924 4077,1924 4078,1923 4079,1923 4080,1922 4081,1922 4082,1921 4083,1921 4084,1920 4085,1920 4086,1919 4087,1919 4088,1918 4089,1918 4091,1916 4092,1916 4094,1914 4094,1913 4095,1912 4095,1909 4094,1908 4094,1904 4093,1903 4093,1880 4092,1879 4092,1875 4093,1874 4093,1865 4092,1864 4092,1860 4091,1859 4091,1855 4090,1854 4090,1842 4091,1841 4091,1838 4092,1837 4092,1834 4093,1833 4093,1830 4094,1829 4094,1826 4095,1825 4095,1821 4096,1820 4096,1814 4095,1813 4095,1809 4094,1808 4094,1804 4093,1803 4093,1793 4094,1792 4094,1789 4095,1788 4095,1784 4096,1783 4096,1776 4095,1775 4095,1768 4094,1767 4094,1766 4093,1765 4093,1764 4092,1763 4092,1762 4091,1761 4091,1758 4090,1757 4090,1752 4091,1751 4091,1746 4092,1745 4092,1743 4093,1742 4093,1740 4094,1739 4094,1735 4095,1734 4095,1724 4094,1723 4094,1719 4093,1718 4093,1715 4092,1714 4092,1712 4091,1711 4091,1706 4090,1705 4090,1701 4089,1700 4089,1696 4090,1695 4090,1689 4091,1688 4091,1685 4090,1684 4090,1678 4089,1677 4089,1658 4088,1657 4088,1644 4089,1643 4089,1630 4088,1629 4088,1616 4087,1615 4087,1610 4086,1609 4086,1606 4085,1605 4085,1589 4084,1588 4084,1580 4083,1579 4083,1578 4082,1577 4082,1576 4075,1569 4074,1569 4073,1568 4063,1568 4062,1569 4055,1569 4054,1568 4030,1568 4029,1567 4015,1567 4014,1568 3999,1568 3998,1567 3982,1567 3981,1566 3966,1566 3965,1567 3947,1567 3946,1566" fill="rgba(52,1,87,0.3)" stroke="rgb(52,1,87)" stroke-width="2" data-block-id="0004" data-name="b-0008" /><text x="3512" y="1766" text-anchor="middle" dominant-baseline="middle" class="block-label" fill="rgb(52,1,87)" stroke="white" stroke-width="3" paint-order="stroke">b-0008</text><polygon points="3745,1091 3744,1092 3693,1092 3692,1093 3666,1093 3665,1094 3597,1094 3596,1095 3591,1095 3590,1094 3574,1094 3573,1095 3569,1095 3568,1094 3550,1094 3549,1095 3514,1095 3513,1094 3509,1094 3508,1095 3501,1095 3500,1096 3463,1096 3462,1097 3407,1097 3406,1098 3382,1098 3381,1097 3339,1097 3338,1098 3328,1098 3327,1097 3316,1097 3315,1098 3293,1098 3292,1097 3160,1097 3159,1098 3150,1098 3149,1097 3137,1097 3136,1098 3121,1098 3120,1099 3099,1099 3098,1098 3087,1098 3086,1099 3048,1099 3047,1098 3042,1098 3041,1099 3013,1099 3012,1100 3004,1100 3003,1099 2992,1099 2991,1100 2962,1100 2961,1099 2932,1099 2931,1100 2909,1100 2908,1099 2897,1099 2896,1100 2881,1100 2880,1099 2814,1099 2813,1100 2798,1100 2797,1099 2792,1099 2791,1100 2721,1100 2720,1101 2703,1101 2702,1102 2693,1102 2692,1103 2686,1103 2685,1104 2682,1104 2681,1105 2679,1105 2678,1106 2677,1106 2676,1107 2675,1107 2673,1109 2672,1109 2671,1110 2670,1110 2669,1111 2668,1111 2667,1112 2666,1112 2663,1115 2663,1125 2664,1126 2664,1135 2665,1136 2665,1143 2664,1144 2664,1160 2660,1164 2659,1164 2658,1165 2657,1165 2656,1166 2655,1166 2654,1167 2653,1167 2650,1170 2650,1171 2649,1172 2649,1173 2648,1174 2648,1176 2647,1177 2647,1183 2646,1184 2646,1237 2647,1238 2647,1246 2648,1247 2648,1252 2649,1253 2649,1278 2648,1279 2649,1280 2649,1288 2650,1289 2650,1298 2649,1299 2649,1325 2650,1326 2650,1333 2649,1334 2649,1376 2650,1377 2650,1421 2651,1422 2651,1428 2652,1429 2652,1433 2653,1434 2653,1442 2652,1443 2652,1447 2653,1448 2653,1451 2654,1452 2654,1454 2655,1455 2655,1456 2660,1461 2662,1461 2663,1462 2673,1462 2674,1463 2718,1463 2719,1464 2738,1464 2739,1463 2770,1463 2771,1462 2775,1462 2776,1463 2797,1463 2798,1462 2844,1462 2845,1461 2865,1461 2866,1460 2868,1460 2869,1461 2893,1461 2894,1460 2914,1460 2915,1461 2929,1461 2930,1460 2934,1460 2935,1459 2946,1459 2947,1460 2952,1460 2953,1459 3029,1459 3030,1460 3047,1460 3048,1459 3062,1459 3063,1460 3075,1460 3076,1459 3090,1459 3091,1460 3099,1460 3100,1459 3109,1459 3110,1460 3121,1460 3122,1459 3144,1459 3145,1458 3236,1458 3237,1457 3298,1457 3299,1458 3311,1458 3312,1457 3407,1457 3408,1456 3433,1456 3434,1455 3517,1455 3518,1454 3527,1454 3528,1455 3558,1455 3559,1454 3568,1454 3569,1453 3574,1453 3575,1454 3586,1454 3587,1453 3599,1453 3600,1454 3618,1454 3619,1455 3626,1455 3627,1456 3636,1456 3637,1455 3652,1455 3653,1454 3674,1454 3675,1455 3694,1455 3695,1454 3700,1454 3701,1453 3706,1453 3707,1454 3720,1454 3721,1453 3744,1453 3745,1454 3812,1454 3813,1453 3838,1453 3839,1452 3853,1452 3854,1451 3858,1451 3859,1452 3867,1452 3868,1453 3875,1453 3876,1454 3886,1454 3887,1453 3899,1453 3900,1452 3934,1452 3935,1453 3948,1453 3949,1454 3957,1454 3958,1453 3975,1453 3976,1452 3995,1452 3996,1451 4003,1451 4004,1452 4018,1452 4019,1451 4028,1451 4029,1452 4042,1452 4043,1451 4053,1451 4054,1452 4072,1452 4073,1451 4075,1451 4076,1450 4077,1450 4079,1448 4079,1447 4080,1446 4080,1440 4081,1439 4081,1428 4082,1427 4082,1385 4083,1384 4083,1379 4084,1378 4084,1371 4083,1370 4083,1361 4082,1360 4082,1357 4081,1356 4081,1348 4082,1347 4082,1329 4081,1328 4081,1303 4082,1302 4082,1287 4083,1286 4083,1277 4082,1276 4082,1269 4081,1268 4081,1220 4080,1219 4080,1214 4079,1213 4079,1202 4080,1201 4080,1186 4079,1185 4079,1181 4078,1180 4078,1176 4077,1175 4077,1168 4078,1167 4078,1133 4079,1132 4079,1120 4078,1119 4078,1105 4079,1104 4078,1103 4078,1100 4072,1094 4049,1094 4048,1093 4021,1093 4020,1094 4002,1094 4001,1093 3944,1093 3943,1092 3935,1092 3934,1093 3900,1093 3899,1092 3854,1092 3853,1091 3827,1091 3826,1092 3801,1092 3800,1091" fill="rgba(235,157,37,0.3)" stroke="rgb(235,157,37)" stroke-width="2" data-block-id="0005" data-name="b-0009" /><text x="3338" y="1286" text-anchor="middle" dominant-baseline="middle" class="block-label" fill="rgb(235,157,37)" stroke="white" stroke-width="3" paint-order="stroke">b-0009</text><polygon points="1056,1573 1055,1574 1041,1574 1040,1575 1036,1575 1035,1576 1033,1576 1032,1577 1030,1577 1029,1578 1028,1578 1027,1579 1026,1579 1025,1580 1024,1580 1024,1581 1023,1582 1023,1583 1022,1584 1022,1585 1021,1586 1021,1588 1020,1589 1020,1592 1019,1593 1019,1597 1018,1598 1018,1601 1017,1602 1017,1612 1016,1613 1016,1614 1017,1615 1017,1622 1018,1623 1018,1634 1019,1635 1019,1655 1018,1656 1018,1665 1019,1666 1019,1670 1020,1671 1020,1680 1019,1681 1019,1702 1020,1703 1020,1716 1021,1717 1021,1723 1020,1724 1020,1726 1019,1727 1019,1729 1018,1730 1018,1734 1017,1735 1017,1736 1018,1737 1018,1747 1017,1748 1017,1749 1016,1750 1016,1752 1015,1753 1015,1754 1014,1755 1014,1757 1013,1758 1013,1763 1012,1764 1012,1793 1011,1794 1011,1796 1012,1797 1012,1809 1011,1810 1011,1823 1010,1824 1010,1854 1011,1855 1011,1871 1010,1872 1010,1894 1011,1895 1011,1900 1012,1901 1012,1926 1013,1927 1013,1928 1014,1929 1014,1930 1015,1931 1015,1932 1016,1933 1016,1934 1017,1935 1018,1935 1019,1936 1030,1936 1031,1937 1038,1937 1039,1938 1047,1938 1048,1937 1064,1937 1065,1938 1069,1938 1070,1937 1084,1937 1085,1938 1095,1938 1096,1937 1112,1937 1113,1938 1117,1938 1118,1937 1132,1937 1133,1938 1145,1938 1146,1937 1165,1937 1166,1936 1168,1936 1169,1935 1193,1935 1194,1934 1224,1934 1225,1935 1275,1935 1276,1936 1287,1936 1288,1935 1299,1935 1300,1936 1338,1936 1339,1935 1368,1935 1369,1936 1385,1936 1386,1935 1394,1935 1395,1936 1414,1936 1415,1937 1444,1937 1445,1938 1468,1938 1469,1939 1480,1939 1481,1938 1487,1938 1488,1939 1501,1939 1502,1938 1514,1938 1515,1939 1523,1939 1524,1938 1530,1938 1531,1937 1536,1937 1537,1938 1546,1938 1547,1937 1553,1937 1554,1936 1563,1936 1564,1937 1567,1937 1568,1936 1575,1936 1576,1935 1718,1935 1719,1934 1766,1934 1767,1933 1789,1933 1790,1932 1800,1932 1801,1933 1809,1933 1810,1932 1849,1932 1850,1933 1858,1933 1859,1932 1874,1932 1875,1933 1884,1933 1885,1932 1891,1932 1892,1933 1909,1933 1910,1932 1918,1932 1919,1933 1954,1933 1955,1932 1961,1932 1962,1931 1964,1931 1965,1932 2003,1932 2004,1931 2030,1931 2031,1930 2032,1930 2033,1931 2051,1931 2052,1930 2064,1930 2065,1931 2088,1931 2089,1932 2094,1932 2095,1931 2105,1931 2106,1930 2107,1931 2135,1931 2136,1932 2144,1932 2145,1931 2199,1931 2200,1930 2203,1930 2204,1931 2243,1931 2244,1930 2261,1930 2262,1931 2273,1931 2274,1932 2282,1932 2283,1933 2289,1933 2290,1934 2295,1934 2296,1935 2326,1935 2327,1936 2337,1936 2338,1935 2367,1935 2368,1936 2397,1936 2398,1935 2449,1935 2450,1934 2468,1934 2469,1933 2474,1933 2477,1930 2477,1929 2478,1928 2478,1927 2479,1926 2479,1920 2480,1919 2480,1905 2481,1904 2481,1895 2482,1894 2482,1885 2481,1884 2481,1879 2480,1878 2480,1875 2481,1874 2481,1860 2482,1859 2482,1851 2481,1850 2481,1809 2482,1808 2482,1791 2481,1790 2481,1776 2482,1775 2482,1760 2481,1759 2481,1756 2482,1755 2482,1742 2481,1741 2481,1720 2482,1719 2482,1692 2481,1691 2481,1601 2480,1600 2480,1592 2479,1591 2479,1585 2478,1584 2478,1581 2477,1580 2477,1579 2475,1577 2474,1577 2473,1576 2463,1576 2462,1575 2429,1575 2428,1576 2419,1576 2418,1575 2383,1575 2382,1576 2373,1576 2372,1575 2341,1575 2340,1576 2330,1576 2329,1577 2314,1577 2313,1578 2309,1578 2308,1579 2302,1579 2301,1580 2296,1580 2295,1581 2294,1581 2292,1583 2291,1583 2290,1584 2289,1584 2288,1585 2286,1585 2285,1586 2258,1586 2257,1587 2219,1587 2218,1588 2158,1588 2157,1587 2142,1587 2141,1588 2110,1588 2109,1589 2070,1589 2069,1590 2053,1590 2052,1589 2013,1589 2012,1588 2004,1588 2003,1589 1983,1589 1982,1588 1967,1588 1966,1587 1957,1587 1956,1586 1951,1586 1950,1585 1940,1585 1939,1584 1929,1584 1928,1583 1917,1583 1916,1584 1909,1584 1908,1585 1902,1585 1901,1586 1892,1586 1891,1587 1801,1587 1800,1588 1761,1588 1760,1587 1756,1587 1755,1588 1742,1588 1741,1587 1660,1587 1659,1588 1644,1588 1643,1587 1618,1587 1617,1586 1573,1586 1572,1585 1469,1585 1468,1586 1382,1586 1381,1585 1339,1585 1338,1584 1327,1584 1326,1585 1283,1585 1282,1584 1232,1584 1231,1583 1225,1583 1224,1582 1220,1582 1219,1581 1216,1581 1215,1580 1199,1580 1198,1579 1190,1579 1189,1578 1176,1578 1175,1577 1160,1577 1159,1576 1149,1576 1148,1575 1143,1575 1142,1574 1078,1574 1077,1573" fill="rgba(129,191,187,0.3)" stroke="rgb(129,191,187)" stroke-width="2" data-block-id="0006" data-name="b-0010" /><text x="1675" y="1766" text-anchor="middle" dominant-baseline="middle" class="block-label" fill="rgb(129,191,187)" stroke="white" stroke-width="3" paint-order="stroke">b-0010</text><polygon points="3734,2039 3733,2040 3685,2040 3684,2041 3669,2041 3668,2042 3664,2042 3663,2041 3645,2041 3644,2042 3640,2042 3639,2041 3603,2041 3602,2042 3598,2042 3597,2043 3589,2043 3588,2042 3556,2042 3555,2043 3547,2043 3546,2044 3545,2044 3544,2043 3525,2043 3524,2042 3521,2042 3520,2043 3470,2043 3469,2044 3464,2044 3463,2045 3461,2045 3460,2044 3453,2044 3452,2043 3449,2043 3448,2044 3432,2044 3431,2043 3425,2043 3424,2044 3420,2044 3419,2045 3409,2045 3408,2044 3371,2044 3370,2045 3361,2045 3360,2044 3331,2044 3330,2045 3323,2045 3322,2046 3316,2046 3315,2045 3278,2045 3277,2046 3275,2046 3274,2047 3271,2047 3270,2046 3268,2046 3267,2045 3264,2045 3263,2044 3251,2044 3250,2045 3230,2045 3229,2044 3209,2044 3208,2045 3193,2045 3192,2046 3186,2046 3185,2045 3164,2045 3163,2046 3153,2046 3152,2045 3123,2045 3122,2044 3114,2044 3113,2045 3102,2045 3101,2046 3096,2046 3095,2047 3090,2047 3089,2046 3076,2046 3075,2047 3074,2047 3070,2051 3070,2052 3069,2053 3069,2054 3068,2055 3067,2054 3066,2054 3065,2053 3064,2053 3063,2052 3060,2052 3059,2051 3053,2051 3052,2050 3041,2050 3040,2049 3031,2049 3030,2048 3027,2048 3026,2047 3017,2047 3016,2048 3013,2048 3012,2049 3010,2049 3009,2048 3007,2048 3006,2047 3003,2047 3002,2046 2986,2046 2985,2047 2980,2047 2979,2048 2958,2048 2957,2047 2930,2047 2929,2048 2924,2048 2923,2049 2884,2049 2883,2048 2874,2048 2873,2047 2861,2047 2860,2048 2837,2048 2836,2049 2833,2049 2832,2050 2815,2050 2814,2049 2791,2049 2790,2048 2769,2048 2768,2047 2754,2047 2753,2048 2751,2048 2750,2049 2749,2049 2748,2050 2745,2050 2744,2049 2742,2049 2741,2048 2739,2048 2738,2047 2714,2047 2713,2046 2705,2046 2704,2047 2698,2047 2697,2046 2665,2046 2664,2047 2662,2047 2661,2048 2660,2048 2655,2053 2655,2058 2656,2059 2656,2062 2657,2063 2657,2067 2658,2068 2658,2070 2657,2071 2657,2076 2658,2077 2658,2080 2659,2081 2659,2083 2660,2084 2660,2085 2661,2086 2661,2087 2662,2088 2661,2089 2661,2090 2658,2093 2657,2093 2654,2096 2654,2097 2653,2098 2653,2105 2654,2106 2654,2108 2655,2109 2655,2110 2657,2112 2657,2118 2656,2119 2656,2123 2655,2124 2655,2125 2656,2126 2656,2129 2657,2130 2657,2131 2658,2132 2658,2133 2659,2134 2659,2135 2660,2136 2659,2137 2659,2138 2655,2142 2655,2143 2654,2144 2654,2146 2653,2147 2653,2182 2654,2183 2654,2184 2653,2185 2653,2189 2652,2190 2652,2196 2651,2197 2651,2204 2652,2205 2652,2252 2653,2253 2653,2263 2652,2264 2652,2289 2653,2290 2653,2295 2652,2296 2652,2301 2651,2302 2651,2307 2652,2308 2652,2317 2653,2318 2653,2336 2652,2337 2652,2385 2653,2386 2653,2393 2654,2394 2654,2397 2658,2401 2660,2401 2661,2402 2667,2402 2668,2403 2680,2403 2681,2404 2694,2404 2695,2405 2703,2405 2704,2406 2712,2406 2713,2407 2714,2406 2727,2406 2728,2407 2755,2407 2756,2408 2766,2408 2767,2407 2798,2407 2799,2408 2811,2408 2812,2407 2850,2407 2851,2408 2857,2408 2858,2407 2877,2407 2878,2406 2889,2406 2890,2407 2919,2407 2920,2406 2969,2406 2970,2405 2986,2405 2987,2406 3014,2406 3015,2405 3052,2405 3053,2404 3063,2404 3064,2405 3100,2405 3101,2404 3109,2404 3110,2405 3143,2405 3144,2404 3153,2404 3154,2403 3155,2403 3156,2404 3183,2404 3184,2403 3263,2403 3264,2402 3279,2402 3280,2403 3285,2403 3286,2402 3293,2402 3294,2401 3298,2401 3299,2402 3318,2402 3319,2401 3325,2401 3326,2402 3336,2402 3337,2401 3404,2401 3405,2400 3409,2400 3410,2399 3413,2399 3414,2398 3418,2398 3419,2399 3423,2399 3424,2400 3434,2400 3435,2399 3445,2399 3446,2400 3460,2400 3461,2399 3462,2400 3465,2400 3466,2401 3469,2401 3470,2402 3472,2402 3473,2403 3477,2403 3478,2402 3484,2402 3485,2401 3502,2401 3503,2400 3507,2400 3508,2399 3515,2399 3516,2400 3527,2400 3528,2399 3534,2399 3535,2398 3537,2398 3538,2399 3549,2399 3550,2398 3556,2398 3557,2397 3560,2397 3561,2398 3567,2398 3568,2399 3573,2399 3574,2398 3580,2398 3581,2397 3587,2397 3588,2398 3622,2398 3623,2397 3669,2397 3670,2396 3685,2396 3686,2397 3691,2397 3692,2396 3698,2396 3699,2395 3747,2395 3748,2396 3755,2396 3756,2397 3765,2397 3766,2396 3804,2396 3805,2397 3809,2397 3810,2396 3818,2396 3819,2395 3822,2395 3823,2396 3829,2396 3830,2397 3838,2397 3839,2396 3861,2396 3862,2395 3866,2395 3867,2394 3874,2394 3875,2395 3899,2395 3900,2396 3906,2396 3907,2395 3920,2395 3921,2396 3935,2396 3936,2395 3961,2395 3962,2394 3985,2394 3986,2395 3991,2395 3992,2394 4049,2394 4050,2395 4074,2395 4075,2394 4080,2394 4081,2393 4084,2393 4085,2392 4086,2392 4089,2389 4089,2388 4090,2387 4090,2384 4091,2383 4091,2343 4092,2342 4092,2338 4091,2337 4091,2298 4092,2297 4092,2288 4091,2287 4091,2248 4092,2247 4092,2242 4091,2241 4091,2199 4092,2198 4092,2193 4091,2192 4091,2141 4090,2140 4090,2134 4091,2133 4091,2109 4092,2108 4092,2080 4091,2079 4091,2053 4090,2052 4090,2050 4089,2049 4089,2047 4088,2046 4088,2045 4087,2044 4087,2043 4086,2042 4085,2042 4084,2041 4082,2041 4081,2040 4073,2040 4072,2039 4010,2039 4009,2040 3980,2040 3979,2041 3927,2041 3926,2042 3920,2042 3919,2043 3913,2043 3912,2042 3891,2042 3890,2041 3886,2041 3885,2040 3873,2040 3872,2041 3864,2041 3863,2040 3829,2040 3828,2041 3825,2041 3824,2042 3822,2042 3821,2043 3805,2043 3804,2044 3772,2044 3771,2043 3762,2043 3761,2042 3760,2042 3759,2041 3757,2041 3756,2040 3752,2040 3751,2039" fill="rgba(20,160,203,0.3)" stroke="rgb(20,160,203)" stroke-width="2" data-block-id="0007" data-name="b-0011" /><text x="3292" y="2200" text-anchor="middle" dominant-baseline="middle" class="block-label" fill="rgb(20,160,203)" stroke="white" stroke-width="3" paint-order="stroke">b-0011</text><polygon points="3776,618 3775,619 3742,619 3741,620 3698,620 3697,621 3691,621 3690,622 3684,622 3683,621 3630,621 3629,622 3624,622 3623,623 3620,623 3619,624 3597,624 3596,625 3531,625 3530,624 3497,624 3496,625 3479,625 3478,624 3437,624 3436,625 3431,625 3430,626 3418,626 3417,625 3394,625 3393,626 3392,625 3377,625 3376,624 3366,624 3365,625 3361,625 3360,626 3358,626 3357,627 3354,627 3353,626 3349,626 3348,625 3339,625 3338,624 3293,624 3292,625 3269,625 3268,624 3204,624 3203,625 3198,625 3197,624 3161,624 3160,625 3146,625 3145,624 3134,624 3133,625 3097,625 3096,624 3078,624 3077,625 3050,625 3049,624 3036,624 3035,625 3031,625 3030,624 3015,624 3014,625 3008,625 3007,624 2986,624 2985,625 2977,625 2976,626 2972,626 2971,625 2966,625 2965,624 2953,624 2952,623 2949,623 2948,624 2931,624 2930,623 2895,623 2894,624 2884,624 2883,623 2869,623 2868,624 2866,624 2865,623 2830,623 2829,622 2813,622 2812,623 2809,623 2808,624 2805,624 2804,625 2802,625 2801,626 2799,626 2798,627 2794,627 2792,625 2791,625 2789,623 2787,623 2786,622 2776,622 2775,623 2771,623 2770,624 2766,624 2765,625 2757,625 2756,626 2744,626 2743,627 2735,627 2734,628 2721,628 2720,627 2716,627 2715,626 2712,626 2711,625 2706,625 2705,624 2696,624 2695,625 2693,625 2692,626 2689,626 2687,628 2686,628 2685,629 2684,629 2683,630 2682,630 2681,631 2679,631 2678,632 2675,632 2674,633 2672,633 2671,634 2667,634 2666,635 2660,635 2659,636 2654,636 2652,638 2651,638 2650,639 2650,640 2649,641 2649,642 2648,643 2648,645 2647,646 2647,675 2648,676 2648,725 2647,726 2647,764 2648,765 2648,770 2647,771 2647,776 2646,777 2646,785 2647,786 2647,802 2646,803 2646,804 2647,805 2647,813 2648,814 2648,825 2647,826 2647,829 2648,830 2648,859 2649,860 2649,876 2648,877 2649,878 2649,902 2648,903 2648,920 2649,921 2649,924 2648,925 2648,954 2647,955 2647,971 2648,972 2648,980 2649,981 2649,984 2651,986 2651,987 2652,987 2654,989 2658,989 2659,990 2682,990 2683,989 2715,989 2716,988 2731,988 2732,987 2743,987 2744,986 2797,986 2798,985 2834,985 2835,984 2884,984 2885,983 2893,983 2894,984 2902,984 2903,985 2904,985 2905,984 2934,984 2935,983 2945,983 2946,984 2958,984 2959,983 2965,983 2966,984 2976,984 2977,983 3031,983 3032,982 3035,982 3036,983 3102,983 3103,982 3113,982 3114,983 3118,983 3119,982 3169,982 3170,983 3176,983 3177,984 3207,984 3208,983 3216,983 3217,982 3222,982 3223,981 3280,981 3281,980 3291,980 3292,981 3325,981 3326,980 3350,980 3351,979 3356,979 3357,978 3388,978 3389,979 3393,979 3394,978 3447,978 3448,979 3458,979 3459,978 3514,978 3515,977 3526,977 3527,978 3547,978 3548,977 3555,977 3556,976 3587,976 3588,975 3595,975 3596,976 3602,976 3603,977 3610,977 3611,976 3615,976 3616,975 3621,975 3622,976 3627,976 3628,977 3634,977 3635,976 3648,976 3649,975 3693,975 3694,974 3710,974 3711,973 3724,973 3725,974 3727,974 3728,973 3743,973 3744,972 3749,972 3750,971 3756,971 3757,970 3766,970 3767,971 3781,971 3782,970 3785,970 3786,969 3787,969 3790,966 3790,965 3791,964 3791,963 3792,962 3792,961 3794,959 3795,959 3796,958 3797,958 3798,957 3811,957 3812,956 3818,956 3819,955 3826,955 3827,954 3837,954 3838,955 3860,955 3861,956 3865,956 3866,957 3877,957 3878,956 3879,956 3880,957 3881,957 3884,960 3884,961 3885,962 3885,965 3886,966 3886,968 3887,969 3887,970 3889,972 3890,972 3891,973 3893,973 3894,974 3896,974 3897,975 3901,975 3902,976 3913,976 3914,977 3931,977 3932,976 3947,976 3948,975 3956,975 3957,976 3978,976 3979,975 3997,975 3998,974 4001,974 4002,975 4030,975 4031,974 4068,974 4069,973 4072,973 4074,971 4074,970 4075,969 4075,962 4076,961 4076,954 4075,953 4075,914 4076,913 4076,908 4075,907 4075,884 4074,883 4074,852 4073,851 4073,849 4074,848 4074,831 4073,830 4073,829 4074,828 4074,782 4073,781 4073,779 4074,778 4074,663 4073,662 4073,659 4074,658 4074,638 4073,637 4073,629 4072,628 4072,626 4071,625 4070,625 4069,624 4061,624 4060,623 4050,623 4049,622 4026,622 4025,621 4019,621 4018,622 4006,622 4005,621 3981,621 3980,620 3968,620 3967,621 3962,621 3961,620 3888,620 3887,619 3791,619 3790,618" fill="rgba(235,88,48,0.3)" stroke="rgb(235,88,48)" stroke-width="2" data-block-id="0008" data-name="b-0013" /><text x="3317" y="803" text-anchor="middle" dominant-baseline="middle" class="block-label" fill="rgb(235,88,48)" stroke="white" stroke-width="3" paint-order="stroke">b-0013</text><polygon points="1000,2041 993,2429 2501,2427 2492,2041" fill="rgba(102,179,92,0.3)" stroke="rgb(102,179,92)" stroke-width="2" data-block-id="0009" data-name="b-0012" /><text x="1746" y="2234" text-anchor="middle" dominant-baseline="middle" class="block-label" fill="rgb(102,179,92)" stroke="white" stroke-width="3" paint-order="stroke">b-0012</text><polygon points="3940,2512 3939,2513 3936,2513 3935,2514 3933,2514 3932,2515 3931,2515 3930,2516 3919,2516 3918,2515 3888,2515 3887,2516 3884,2516 3883,2517 3867,2517 3866,2516 3835,2516 3834,2515 3829,2515 3828,2516 3817,2516 3816,2515 3769,2515 3768,2514 3753,2514 3752,2515 3745,2515 3744,2516 3695,2516 3694,2515 3685,2515 3684,2516 3646,2516 3645,2517 3604,2517 3603,2518 3598,2518 3597,2519 3585,2519 3584,2520 3583,2519 3573,2519 3572,2518 3567,2518 3566,2519 3557,2519 3556,2518 3551,2518 3550,2517 3511,2517 3510,2518 3500,2518 3499,2519 3478,2519 3477,2520 3430,2520 3429,2519 3427,2519 3426,2520 3414,2520 3413,2519 3409,2519 3408,2518 3387,2518 3386,2519 3354,2519 3353,2520 3349,2520 3348,2521 3347,2521 3346,2522 3344,2522 3343,2521 3342,2521 3340,2519 3339,2519 3337,2517 3336,2517 3335,2516 3333,2516 3332,2515 3320,2515 3319,2514 3301,2514 3300,2515 3290,2515 3289,2514 3277,2514 3276,2515 3251,2515 3250,2516 3247,2516 3246,2515 3228,2515 3227,2516 3219,2516 3218,2517 3214,2517 3213,2518 3210,2518 3209,2519 3167,2519 3166,2520 3147,2520 3146,2519 3128,2519 3127,2520 3093,2520 3092,2521 3073,2521 3072,2522 3067,2522 3066,2521 3060,2521 3059,2520 3054,2520 3053,2521 3038,2521 3037,2522 3026,2522 3025,2523 3013,2523 3012,2522 3010,2522 3009,2523 2922,2523 2921,2524 2827,2524 2826,2525 2816,2525 2815,2526 2806,2526 2805,2527 2800,2527 2799,2528 2790,2528 2789,2527 2783,2527 2782,2526 2768,2526 2767,2525 2755,2525 2754,2526 2751,2526 2750,2527 2747,2527 2746,2528 2741,2528 2740,2529 2723,2529 2722,2530 2699,2530 2698,2531 2695,2531 2694,2532 2693,2532 2692,2533 2691,2533 2690,2534 2689,2534 2687,2536 2686,2536 2685,2537 2684,2537 2683,2538 2682,2538 2680,2540 2679,2540 2677,2542 2675,2542 2674,2543 2671,2543 2670,2544 2667,2544 2666,2545 2662,2545 2661,2546 2658,2546 2657,2547 2656,2547 2655,2548 2654,2548 2653,2549 2653,2550 2651,2552 2651,2558 2652,2559 2652,2562 2653,2563 2653,2572 2652,2573 2652,2581 2653,2582 2653,2586 2654,2587 2654,2597 2653,2598 2653,2604 2654,2605 2654,2606 2656,2608 2656,2609 2660,2613 2660,2614 2661,2615 2661,2616 2660,2617 2660,2618 2659,2619 2659,2620 2658,2621 2658,2622 2656,2624 2656,2626 2655,2627 2655,2628 2656,2629 2656,2634 2657,2635 2657,2650 2658,2651 2658,2652 2659,2653 2659,2654 2660,2655 2660,2656 2661,2657 2661,2659 2662,2660 2662,2662 2661,2663 2661,2664 2660,2665 2660,2666 2654,2672 2654,2678 2655,2679 2655,2681 2656,2682 2656,2686 2657,2687 2657,2694 2658,2695 2658,2699 2657,2700 2657,2704 2656,2705 2656,2708 2654,2710 2654,2711 2653,2712 2653,2713 2652,2714 2652,2717 2651,2718 2651,2726 2652,2727 2652,2731 2653,2732 2653,2739 2652,2740 2652,2755 2651,2756 2651,2764 2650,2765 2650,2776 2651,2777 2651,2786 2650,2787 2650,2795 2651,2796 2651,2824 2652,2825 2652,2833 2651,2834 2651,2866 2652,2867 2652,2868 2653,2869 2653,2870 2656,2873 2657,2873 2658,2874 2659,2874 2660,2875 2661,2875 2662,2876 2664,2876 2665,2877 2667,2877 2668,2878 2671,2878 2672,2879 2676,2879 2677,2880 2684,2880 2685,2881 2691,2881 2692,2882 2695,2882 2696,2883 2700,2883 2701,2884 2719,2884 2720,2885 2729,2885 2730,2886 2744,2886 2745,2887 2786,2887 2787,2888 2797,2888 2798,2889 2810,2889 2811,2888 2816,2888 2817,2887 2821,2887 2822,2888 2826,2888 2827,2889 2856,2889 2857,2888 2859,2888 2860,2887 2862,2887 2863,2886 2865,2886 2866,2885 2870,2885 2871,2886 2878,2886 2879,2887 2883,2887 2884,2888 2890,2888 2891,2889 2904,2889 2905,2888 2906,2888 2907,2887 2909,2887 2910,2886 2911,2886 2913,2884 2917,2884 2918,2885 2921,2885 2922,2886 2950,2886 2951,2885 2966,2885 2967,2886 2972,2886 2973,2887 2975,2887 2976,2886 2983,2886 2984,2885 2998,2885 2999,2884 3012,2884 3013,2885 3028,2885 3029,2886 3034,2886 3035,2887 3048,2887 3049,2886 3058,2886 3059,2885 3088,2885 3089,2886 3094,2886 3095,2885 3099,2885 3100,2884 3169,2884 3170,2885 3174,2885 3175,2886 3197,2886 3198,2885 3210,2885 3211,2884 3221,2884 3222,2885 3239,2885 3240,2884 3244,2884 3245,2883 3291,2883 3292,2882 3301,2882 3302,2881 3338,2881 3339,2880 3353,2880 3354,2881 3363,2881 3364,2882 3399,2882 3400,2881 3403,2881 3404,2882 3409,2882 3410,2883 3429,2883 3430,2882 3465,2882 3466,2881 3481,2881 3482,2880 3506,2880 3507,2881 3522,2881 3523,2880 3620,2880 3621,2879 3672,2879 3673,2878 3690,2878 3691,2879 3692,2878 3775,2878 3776,2879 3788,2879 3789,2878 3795,2878 3796,2877 3805,2877 3806,2878 3808,2878 3809,2877 3833,2877 3834,2878 3862,2878 3863,2877 3875,2877 3876,2878 3881,2878 3882,2877 3885,2877 3886,2876 3889,2876 3890,2875 3954,2875 3955,2874 3962,2874 3963,2873 3967,2873 3968,2874 3982,2874 3983,2875 4019,2875 4020,2876 4024,2876 4025,2875 4031,2875 4032,2874 4055,2874 4056,2873 4063,2873 4064,2874 4073,2874 4074,2873 4078,2873 4079,2872 4083,2872 4084,2871 4086,2871 4087,2870 4089,2870 4090,2869 4091,2869 4093,2867 4094,2867 4095,2866 4095,2865 4096,2864 4096,2861 4097,2860 4097,2798 4096,2797 4096,2784 4095,2783 4095,2777 4096,2776 4096,2707 4095,2706 4095,2701 4094,2700 4094,2692 4095,2691 4095,2683 4094,2682 4094,2676 4093,2675 4093,2672 4094,2671 4094,2642 4093,2641 4093,2635 4094,2634 4094,2605 4095,2604 4095,2601 4094,2600 4094,2590 4093,2589 4094,2588 4094,2566 4093,2565 4093,2560 4092,2559 4092,2556 4091,2555 4091,2540 4090,2539 4090,2536 4089,2535 4089,2533 4088,2532 4088,2526 4089,2525 4089,2520 4088,2519 4087,2519 4085,2517 4083,2517 4082,2516 4079,2516 4078,2515 4075,2515 4074,2514 4047,2514 4046,2513 4010,2513 4009,2514 3999,2514 3998,2515 3991,2515 3990,2514 3989,2514 3988,2515 3963,2515 3962,2514 3958,2514 3957,2513 3952,2513 3951,2512" fill="rgba(116,99,103,0.3)" stroke="rgb(116,99,103)" stroke-width="2" data-block-id="0010" data-name="b-0006" /><text x="3255" y="2690" text-anchor="middle" dominant-baseline="middle" class="block-label" fill="rgb(116,99,103)" stroke="white" stroke-width="3" paint-order="stroke">b-0006</text></g>
</svg>