<?xml version='1.0' encoding='utf-8'?>
<svg xmlns="http://www.w3.org/2000/svg" xmlns:atlas="http://example.com/atlas" width="4984" height="3248" viewBox="0 0 4984 3248">
  
  <metadata>
    <atlas:source>
      <atlas:jp2-path>/Users/pwright/workspace/atlas/media/v2/p39.jp2</atlas:jp2-path>
      <atlas:volume>unknown</atlas:volume>
      <atlas:plate-id>p39</atlas:plate-id>
      <atlas:image-width>4984</atlas:image-width>
      <atlas:image-height>3248</atlas:image-height>
    <atlas:angle>-90.0</atlas:angle><atlas:scale>1.3914619304117193</atlas:scale><atlas:pos-x>576.0977143262212</atlas:pos-x><atlas:pos-y>1120.14717092076</atlas:pos-y></atlas:source>
  </metadata>

  
  <image id="background" href="file:///Users/pwright/workspace/atlas/media/v2/p39.jp2" width="4984" height="3248" opacity="0.5" />

  <style>
    .block-label { font-family: sans-serif; font-size: 14px; font-weight: bold; }
  </style>

  
  <g id="blocks">
    <polygon points="1123,1488 1122,1489 1117,1489 1116,1490 1104,1490 1103,1489 1084,1489 1083,1490 1067,1490 1066,1489 1041,1489 1040,1490 1026,1490 1025,1491 1005,1491 1004,1492 1002,1492 997,1497 997,1498 996,1499 996,1501 995,1502 995,1520 994,1521 994,1542 995,1543 995,1559 996,1560 996,1565 995,1566 995,1573 994,1574 994,1578 995,1579 995,1693 994,1694 994,1700 995,1701 995,1722 994,1723 994,1736 995,1737 995,1764 994,1765 994,1772 995,1773 995,1867 994,1868 994,1879 995,1880 995,1899 994,1900 994,1921 995,1922 995,1928 996,1929 996,1951 995,1952 995,1969 994,1970 994,1988 995,1989 995,1992 994,1993 994,1998 993,1999 993,2018 994,2019 994,2023 995,2024 995,2034 994,2035 994,2065 993,2066 993,2071 992,2072 992,2084 993,2085 993,2161 992,2162 992,2167 991,2168 991,2177 992,2178 992,2186 991,2187 991,2238 990,2239 990,2245 991,2246 991,2268 990,2269 990,2283 989,2284 989,2287 988,2288 988,2293 989,2294 989,2300 990,2301 990,2308 991,2309 991,2337 990,2338 990,2367 989,2368 989,2382 990,2383 990,2402 991,2403 991,2429 990,2430 990,2436 991,2437 991,2447 990,2448 990,2457 989,2458 990,2459 990,2470 989,2471 989,2510 990,2511 990,2523 991,2524 991,2532 992,2533 992,2550 991,2551 991,2563 992,2564 992,2569 993,2570 993,2572 994,2573 994,2579 993,2580 993,2587 992,2588 992,2601 993,2602 993,2604 994,2605 994,2607 996,2609 996,2610 995,2611 995,2612 992,2615 992,2616 991,2617 991,2619 990,2620 990,2623 989,2624 989,2633 990,2634 990,2643 991,2644 991,2660 990,2661 990,2677 991,2678 991,2687 990,2688 990,2699 991,2700 991,2708 990,2709 990,2715 989,2716 989,2724 990,2725 990,2733 989,2734 989,2767 990,2768 990,2772 991,2773 991,2780 990,2781 990,2784 989,2785 989,2795 990,2796 990,2798 991,2799 991,2803 990,2804 990,2805 989,2806 989,2807 988,2808 988,2809 987,2810 987,2821 988,2822 988,2837 989,2838 989,2841 988,2842 988,2855 987,2856 987,2861 986,2862 986,2870 987,2871 987,2884 988,2885 988,2902 987,2903 987,2919 988,2920 988,2937 989,2938 989,2947 988,2948 988,2970 989,2971 989,2973 990,2974 990,2976 991,2977 991,2978 995,2982 997,2982 998,2983 1000,2983 1001,2984 1003,2984 1004,2985 1013,2985 1014,2986 1020,2986 1021,2985 1032,2985 1033,2984 1078,2984 1079,2985 1093,2985 1094,2986 1107,2986 1108,2985 1119,2985 1120,2984 1139,2984 1140,2985 1175,2985 1176,2984 1189,2984 1190,2985 1207,2985 1208,2984 1214,2984 1215,2985 1218,2985 1219,2984 1330,2984 1331,2985 1335,2985 1336,2986 1340,2986 1341,2985 1345,2985 1346,2984 1351,2984 1352,2983 1353,2983 1354,2982 1356,2982 1360,2978 1360,2976 1361,2975 1361,2973 1362,2972 1362,2952 1363,2951 1363,2932 1362,2931 1362,2926 1363,2925 1363,2921 1362,2920 1362,2868 1361,2867 1361,2858 1362,2857 1362,2824 1361,2823 1361,2813 1362,2812 1362,2805 1363,2804 1363,2782 1362,2781 1362,2770 1363,2769 1363,2767 1362,2766 1362,2760 1361,2759 1361,2756 1360,2755 1360,2732 1361,2731 1360,2730 1360,2713 1361,2712 1361,2709 1362,2708 1362,2691 1361,2690 1361,2681 1360,2680 1360,2672 1361,2671 1361,2665 1362,2664 1362,2659 1363,2658 1363,2651 1364,2650 1364,2644 1365,2643 1365,2634 1366,2633 1366,2628 1367,2627 1367,2621 1366,2620 1366,2617 1365,2616 1365,2611 1364,2610 1364,2590 1363,2589 1363,2520 1364,2519 1364,2499 1363,2498 1363,2449 1364,2448 1364,2440 1363,2439 1363,2214 1364,2213 1364,2206 1365,2205 1365,2201 1366,2200 1366,2199 1367,2198 1367,2197 1368,2196 1369,2196 1369,2195 1370,2194 1370,2193 1367,2190 1367,2189 1366,2188 1366,2186 1365,2185 1365,2172 1364,2171 1364,2154 1363,2153 1363,2141 1364,2140 1364,2126 1365,2125 1365,2105 1366,2104 1366,2097 1365,2096 1365,2092 1364,2091 1364,2088 1363,2087 1363,2085 1364,2084 1364,2079 1365,2078 1365,2071 1366,2070 1366,2064 1365,2063 1365,2059 1364,2058 1364,2049 1365,2048 1365,2044 1366,2043 1366,1996 1367,1995 1367,1976 1366,1975 1366,1947 1367,1946 1367,1942 1366,1941 1366,1930 1365,1929 1365,1925 1364,1924 1364,1914 1363,1913 1363,1907 1364,1906 1364,1901 1365,1900 1365,1854 1366,1853 1366,1838 1365,1837 1365,1817 1364,1816 1364,1815 1365,1814 1365,1780 1364,1779 1364,1775 1365,1774 1365,1758 1366,1757 1366,1741 1365,1740 1365,1716 1366,1715 1366,1688 1365,1687 1365,1668 1366,1667 1366,1660 1367,1659 1367,1656 1366,1655 1366,1592 1365,1591 1365,1581 1366,1580 1366,1549 1365,1548 1365,1535 1366,1534 1366,1514 1365,1513 1365,1502 1364,1501 1364,1500 1363,1499 1363,1498 1362,1497 1362,1496 1360,1494 1359,1494 1357,1492 1356,1492 1355,1491 1353,1491 1352,1490 1341,1490 1340,1491 1339,1491 1338,1490 1333,1490 1332,1489 1311,1489 1310,1490 1283,1490 1282,1489 1271,1489 1270,1490 1261,1490 1260,1489 1223,1489 1222,1490 1216,1490 1215,1489 1201,1489 1200,1490 1177,1490 1176,1491 1162,1491 1161,1490 1148,1490 1147,1491 1141,1491 1140,1492 1135,1492 1134,1491 1132,1491 1131,1490 1129,1490 1128,1489 1124,1489" fill="rgba(188,20,102,0.3)" stroke="rgb(188,20,102)" stroke-width="2" data-block-id="0001" data-name="b-0003" /><text x="1169" y="2277" text-anchor="middle" dominant-baseline="middle" class="block-label" fill="rgb(188,20,102)" stroke="white" stroke-width="3" paint-order="stroke">b-0003</text><polygon points="542,1488 541,1489 475,1489 474,1490 457,1490 456,1491 454,1491 453,1492 452,1492 450,1494 450,1495 448,1497 448,1498 447,1499 447,1500 446,1501 446,1502 445,1503 445,1505 444,1506 444,1509 443,1510 443,1516 442,1517 442,1522 441,1523 441,1529 440,1530 440,1539 439,1540 439,1552 440,1553 440,1557 441,1558 441,1563 442,1564 442,1574 441,1575 441,1635 442,1636 442,1650 441,1651 441,1663 440,1664 440,1677 441,1678 441,1685 440,1686 440,1730 439,1731 439,1737 438,1738 438,1751 439,1752 439,1776 438,1777 438,1781 439,1782 439,1786 440,1787 440,1789 441,1790 441,1792 442,1793 442,1794 443,1795 443,1797 444,1798 444,1800 443,1801 443,1803 442,1804 442,1805 441,1806 441,1807 440,1808 440,1810 439,1811 439,1813 438,1814 438,1818 437,1819 437,1824 438,1825 438,1832 439,1833 439,1843 440,1844 440,1877 439,1878 439,1916 440,1917 440,1945 439,1946 439,2006 440,2007 440,2018 439,2019 439,2027 438,2028 438,2032 437,2033 437,2036 436,2037 436,2042 435,2043 435,2052 434,2053 434,2065 433,2066 433,2115 432,2116 432,2260 433,2261 433,2333 432,2334 432,2369 433,2370 433,2376 434,2377 434,2381 435,2382 435,2392 434,2393 434,2404 433,2405 433,2416 434,2417 434,2437 433,2438 433,2442 434,2443 434,2452 435,2453 435,2459 436,2460 436,2467 437,2468 437,2481 436,2482 436,2485 435,2486 435,2488 434,2489 434,2491 433,2492 433,2494 432,2495 432,2498 431,2499 431,2509 432,2510 432,2516 433,2517 433,2525 432,2526 432,2528 431,2529 431,2531 430,2532 430,2535 429,2536 429,2542 428,2543 428,2547 429,2548 429,2563 430,2564 430,2569 431,2570 431,2575 432,2576 432,2587 431,2588 431,2599 430,2600 430,2614 429,2615 429,2626 428,2627 428,2653 429,2654 429,2687 430,2688 430,2710 429,2711 429,2719 430,2720 430,2745 429,2746 429,2755 428,2756 428,2808 427,2809 427,2820 426,2821 426,2846 427,2847 427,2876 428,2877 428,2881 429,2882 429,2886 430,2887 430,2891 431,2892 431,2900 432,2901 432,2923 431,2924 431,2942 432,2943 432,2970 433,2971 433,2972 434,2973 434,2974 436,2976 437,2976 439,2978 441,2978 442,2979 447,2979 448,2980 453,2980 454,2981 463,2981 464,2980 471,2980 472,2979 480,2979 481,2980 485,2980 486,2981 490,2981 491,2982 495,2982 496,2983 502,2983 503,2984 512,2984 513,2985 545,2985 546,2986 562,2986 563,2985 590,2985 591,2986 604,2986 605,2985 611,2985 612,2986 627,2986 628,2987 648,2987 649,2986 666,2986 667,2985 674,2985 675,2984 679,2984 680,2983 685,2983 686,2982 696,2982 697,2983 705,2983 706,2984 716,2984 717,2983 740,2983 741,2984 746,2984 747,2985 748,2984 755,2984 756,2983 762,2983 763,2982 771,2982 772,2981 779,2981 780,2980 786,2980 787,2979 788,2979 789,2978 790,2978 792,2976 792,2975 794,2973 794,2971 795,2970 795,2965 794,2964 794,2962 793,2961 793,2959 792,2958 792,2956 791,2955 791,2954 790,2953 790,2952 789,2951 789,2947 790,2946 790,2944 791,2943 791,2941 792,2940 792,2938 793,2937 793,2935 794,2934 794,2914 795,2913 795,2908 796,2907 796,2903 797,2902 797,2897 798,2896 798,2883 799,2882 799,2869 800,2868 800,2863 801,2862 801,2858 802,2857 802,2838 801,2837 801,2835 802,2834 802,2826 803,2825 803,2810 802,2809 802,2804 801,2803 801,2799 800,2798 800,2792 801,2791 801,2787 802,2786 802,2781 803,2780 803,2765 802,2764 802,2759 801,2758 801,2749 802,2748 802,2731 801,2730 801,2726 800,2725 800,2721 799,2720 799,2709 800,2708 800,2687 799,2686 799,2669 800,2668 800,2658 801,2657 801,2631 802,2630 802,2622 803,2621 803,2593 804,2592 804,2585 805,2584 805,2557 806,2556 806,2548 807,2547 807,2537 806,2536 806,2529 805,2528 805,2515 806,2514 806,2509 807,2508 807,2504 808,2503 808,2501 809,2500 809,2497 810,2496 810,2492 811,2491 811,2488 812,2487 812,2485 813,2484 813,2474 814,2473 814,2459 815,2458 815,2452 816,2451 816,2435 815,2434 815,2425 814,2424 814,2419 813,2418 813,2414 812,2413 812,2409 811,2408 811,2402 810,2401 810,2393 809,2392 809,2364 810,2363 810,2339 809,2338 809,2332 808,2331 808,2294 807,2293 807,2285 808,2284 808,2259 807,2258 807,2213 808,2212 808,2183 807,2182 807,2168 808,2167 808,2094 809,2093 809,2016 810,2015 810,1973 809,1972 809,1939 810,1938 810,1873 809,1872 809,1841 808,1840 808,1812 809,1811 809,1771 808,1770 808,1729 809,1728 809,1629 810,1628 810,1596 809,1595 809,1574 810,1573 810,1525 809,1524 809,1517 808,1516 808,1510 807,1509 807,1505 806,1504 806,1502 805,1501 805,1500 804,1499 804,1498 802,1496 801,1496 800,1495 799,1495 798,1494 797,1494 796,1493 792,1493 791,1492 764,1492 763,1491 754,1491 753,1490 746,1490 745,1491 739,1491 738,1492 730,1492 729,1493 726,1493 725,1492 685,1492 684,1491 661,1491 660,1492 648,1492 647,1493 619,1493 618,1492 610,1492 609,1491 593,1491 592,1490 581,1490 580,1489 566,1489 565,1488" fill="rgba(121,210,214,0.3)" stroke="rgb(121,210,214)" stroke-width="2" data-block-id="0002" data-name="b-0004" /><text x="615" y="2339" text-anchor="middle" dominant-baseline="middle" class="block-label" fill="rgb(121,210,214)" stroke="white" stroke-width="3" paint-order="stroke">b-0004</text><polygon points="1791,1487 1790,1488 1784,1488 1783,1489 1770,1489 1769,1488 1755,1488 1754,1489 1749,1489 1748,1490 1747,1490 1746,1491 1745,1491 1744,1492 1743,1492 1741,1494 1740,1494 1739,1495 1738,1495 1737,1496 1736,1496 1735,1497 1734,1497 1733,1498 1732,1498 1731,1499 1729,1499 1728,1500 1725,1500 1724,1501 1722,1501 1721,1502 1714,1502 1713,1501 1709,1501 1708,1500 1693,1500 1692,1499 1688,1499 1687,1498 1682,1498 1681,1497 1670,1497 1669,1498 1667,1498 1666,1499 1663,1499 1662,1500 1637,1500 1636,1499 1616,1499 1615,1498 1605,1498 1604,1499 1586,1499 1585,1498 1581,1498 1580,1497 1575,1497 1574,1496 1568,1496 1567,1495 1564,1495 1563,1494 1562,1494 1561,1493 1560,1493 1559,1492 1557,1492 1556,1491 1554,1491 1553,1490 1541,1490 1540,1489 1530,1489 1529,1490 1516,1490 1515,1491 1508,1491 1507,1490 1504,1490 1503,1491 1484,1491 1483,1492 1482,1492 1481,1493 1481,1494 1480,1495 1480,1497 1479,1498 1479,1501 1478,1502 1478,1517 1477,1518 1477,1524 1476,1525 1476,1535 1477,1536 1477,1645 1476,1646 1476,1663 1477,1664 1477,1702 1478,1703 1478,1705 1477,1706 1477,1789 1476,1790 1476,1837 1477,1838 1477,1995 1478,1996 1478,2047 1477,2048 1477,2123 1476,2124 1476,2142 1477,2143 1477,2211 1476,2212 1476,2226 1475,2227 1475,2241 1476,2242 1476,2263 1477,2264 1477,2265 1476,2266 1476,2313 1475,2314 1475,2332 1476,2333 1476,2357 1477,2358 1477,2364 1476,2365 1476,2400 1477,2401 1477,2414 1476,2415 1476,2430 1477,2431 1477,2434 1476,2435 1476,2450 1477,2451 1477,2460 1476,2461 1476,2479 1477,2480 1477,2482 1476,2483 1476,2497 1477,2498 1477,2508 1476,2509 1476,2546 1477,2547 1477,2554 1476,2555 1476,2598 1477,2599 1477,2620 1476,2621 1476,2644 1477,2645 1477,2680 1476,2681 1476,2699 1477,2700 1477,2709 1476,2710 1476,2759 1475,2760 1475,2795 1476,2796 1476,2843 1477,2844 1477,2853 1476,2854 1476,2861 1475,2862 1475,2863 1476,2864 1476,2877 1475,2878 1475,2918 1474,2919 1474,2922 1475,2923 1475,2937 1474,2938 1474,2948 1475,2949 1475,2970 1476,2971 1476,2972 1477,2973 1477,2974 1481,2978 1482,2978 1483,2979 1490,2979 1491,2980 1496,2980 1498,2982 1498,2990 1499,2990 1500,2991 1502,2991 1503,2992 1504,2992 1505,2991 1506,2991 1507,2990 1507,2987 1508,2986 1508,2982 1510,2980 1513,2980 1514,2979 1516,2979 1517,2980 1519,2980 1521,2982 1522,2982 1523,2983 1524,2983 1525,2984 1552,2984 1553,2983 1567,2983 1568,2984 1570,2984 1571,2985 1572,2985 1573,2986 1574,2986 1575,2987 1584,2987 1585,2986 1590,2986 1591,2985 1595,2985 1596,2984 1600,2984 1601,2983 1606,2983 1607,2982 1622,2982 1623,2981 1643,2981 1644,2982 1650,2982 1651,2981 1664,2981 1667,2984 1667,2986 1668,2987 1668,2991 1670,2993 1672,2993 1673,2994 1674,2993 1680,2993 1681,2992 1682,2992 1685,2989 1685,2985 1686,2984 1686,2983 1688,2981 1689,2981 1690,2980 1697,2980 1698,2979 1704,2979 1705,2978 1708,2978 1709,2979 1712,2979 1713,2980 1717,2980 1718,2981 1739,2981 1740,2982 1746,2982 1747,2981 1776,2981 1777,2982 1782,2982 1783,2983 1785,2983 1786,2984 1790,2984 1791,2985 1792,2984 1794,2984 1795,2983 1797,2983 1798,2982 1799,2982 1800,2981 1803,2981 1807,2985 1807,2986 1809,2988 1809,2989 1812,2992 1814,2992 1815,2993 1816,2993 1817,2992 1819,2992 1820,2991 1821,2991 1822,2990 1824,2990 1827,2987 1828,2987 1830,2985 1831,2985 1833,2983 1835,2983 1836,2982 1837,2982 1838,2981 1839,2981 1843,2977 1843,2976 1845,2974 1845,2973 1846,2972 1846,2971 1847,2970 1847,2948 1848,2947 1848,2935 1847,2934 1847,2925 1848,2924 1848,2910 1847,2909 1847,2902 1846,2901 1846,2882 1847,2881 1847,2873 1848,2872 1848,2870 1847,2869 1847,2854 1848,2853 1848,2829 1847,2828 1847,2821 1848,2820 1848,2808 1847,2807 1847,2802 1846,2801 1846,2799 1847,2798 1847,2782 1848,2781 1848,2776 1847,2775 1847,2770 1846,2769 1846,2761 1847,2760 1847,2739 1846,2738 1846,2716 1845,2715 1845,2711 1844,2710 1844,2707 1843,2706 1843,2698 1844,2697 1844,2694 1843,2693 1843,2680 1842,2679 1842,2664 1843,2663 1843,2618 1842,2617 1842,2608 1843,2607 1843,2602 1844,2601 1844,2596 1845,2595 1845,2592 1846,2591 1846,2581 1845,2580 1845,2569 1846,2568 1846,2558 1845,2557 1845,2544 1846,2543 1846,2537 1845,2536 1845,2530 1844,2529 1844,2528 1845,2527 1845,2520 1846,2519 1846,2513 1845,2512 1845,2506 1844,2505 1844,2501 1845,2500 1845,2486 1844,2485 1844,2477 1845,2476 1845,2472 1846,2471 1846,2464 1845,2463 1845,2449 1846,2448 1846,2441 1845,2440 1845,2438 1844,2437 1844,2435 1843,2434 1843,2433 1844,2432 1844,2430 1845,2429 1845,2427 1846,2426 1846,2425 1847,2424 1847,2420 1848,2419 1847,2418 1847,2414 1846,2413 1846,2402 1845,2401 1845,2384 1846,2383 1846,2381 1847,2380 1847,2379 1848,2378 1848,2376 1849,2375 1849,2367 1848,2366 1848,2345 1847,2344 1847,2331 1848,2330 1848,2321 1847,2320 1847,2283 1848,2282 1848,2272 1847,2271 1847,2257 1848,2256 1848,2248 1847,2247 1847,2241 1848,2240 1848,2235 1849,2234 1849,2224 1848,2223 1848,2217 1847,2216 1847,2205 1846,2204 1846,2190 1847,2189 1847,2175 1846,2174 1846,2143 1847,2142 1847,2126 1846,2125 1846,2120 1847,2119 1847,2094 1848,2093 1848,2091 1849,2090 1849,2086 1850,2085 1850,2070 1849,2069 1849,2061 1848,2060 1848,2056 1847,2055 1847,2048 1848,2047 1848,2042 1849,2041 1849,2038 1848,2037 1848,2031 1847,2030 1847,2022 1848,2021 1848,2013 1847,2012 1847,1995 1848,1994 1848,1990 1847,1989 1847,1983 1846,1982 1846,1963 1845,1962 1845,1953 1846,1952 1846,1949 1847,1948 1847,1939 1846,1938 1846,1916 1845,1915 1845,1905 1844,1904 1844,1901 1843,1900 1843,1893 1844,1892 1844,1889 1845,1888 1845,1882 1844,1881 1844,1876 1843,1875 1843,1858 1844,1857 1844,1834 1845,1833 1845,1822 1844,1821 1844,1809 1845,1808 1845,1805 1846,1804 1846,1774 1845,1773 1845,1761 1846,1760 1846,1756 1847,1755 1847,1752 1846,1751 1846,1745 1845,1744 1845,1725 1844,1724 1844,1718 1845,1717 1845,1710 1846,1709 1846,1699 1845,1698 1845,1694 1846,1693 1846,1689 1847,1688 1847,1686 1848,1685 1848,1684 1849,1683 1849,1676 1848,1675 1848,1669 1849,1668 1849,1651 1848,1650 1848,1644 1849,1643 1849,1638 1850,1637 1850,1635 1849,1634 1849,1632 1848,1631 1848,1630 1847,1629 1847,1628 1846,1627 1846,1624 1845,1623 1845,1616 1846,1615 1846,1604 1845,1603 1845,1592 1844,1591 1844,1570 1845,1569 1845,1553 1844,1552 1844,1542 1843,1541 1843,1538 1844,1537 1844,1527 1845,1526 1845,1521 1846,1520 1846,1514 1845,1513 1845,1511 1844,1510 1844,1508 1843,1507 1843,1505 1842,1504 1842,1502 1841,1501 1841,1499 1840,1498 1840,1494 1839,1493 1839,1492 1837,1490 1835,1490 1834,1489 1802,1489 1801,1488 1792,1488" fill="rgba(74,202,87,0.3)" stroke="rgb(74,202,87)" stroke-width="2" data-block-id="0003" data-name="b-0005" /><text x="1718" y="2280" text-anchor="middle" dominant-baseline="middle" class="block-label" fill="rgb(74,202,87)" stroke="white" stroke-width="3" paint-order="stroke">b-0005</text><polygon points="3971,1467 3970,1468 3951,1468 3950,1469 3936,1469 3935,1468 3926,1468 3925,1469 3922,1469 3921,1470 3899,1470 3898,1471 3893,1471 3892,1472 3889,1472 3888,1473 3886,1473 3885,1474 3882,1474 3881,1475 3879,1475 3878,1476 3876,1476 3875,1477 3865,1477 3864,1476 3860,1476 3859,1477 3858,1477 3856,1479 3856,1480 3855,1481 3855,1486 3856,1487 3856,1493 3855,1494 3855,1497 3854,1498 3854,1500 3853,1501 3853,1506 3852,1507 3852,1517 3851,1518 3851,1520 3850,1521 3850,1523 3849,1524 3849,1528 3848,1529 3848,1538 3849,1539 3849,1543 3850,1544 3850,1545 3851,1546 3851,1548 3852,1549 3852,1550 3853,1551 3853,1568 3854,1569 3854,1577 3855,1578 3855,1584 3856,1585 3856,1591 3857,1592 3857,1602 3856,1603 3856,1605 3855,1606 3855,1609 3854,1610 3854,1618 3855,1619 3855,1635 3856,1636 3856,1659 3855,1660 3855,1663 3854,1664 3854,1668 3853,1669 3853,1678 3854,1679 3854,1685 3855,1686 3855,1688 3856,1689 3856,1690 3857,1691 3857,1692 3858,1693 3858,1695 3850,1703 3850,1704 3849,1705 3849,1719 3850,1720 3850,1727 3851,1728 3851,1733 3852,1734 3852,1736 3853,1737 3853,1739 3854,1740 3854,1743 3853,1744 3853,1745 3852,1746 3852,1747 3850,1749 3850,1750 3849,1751 3849,1752 3848,1753 3848,1754 3847,1755 3847,1778 3848,1779 3847,1780 3847,1796 3846,1797 3846,1808 3847,1809 3847,1826 3848,1827 3848,1829 3849,1830 3849,1831 3850,1832 3850,1833 3851,1834 3851,1835 3852,1836 3852,1837 3853,1838 3853,1843 3852,1844 3852,1852 3853,1853 3853,1892 3854,1893 3854,1899 3853,1900 3853,1918 3854,1919 3854,1926 3855,1927 3855,1930 3856,1931 3856,1942 3855,1943 3855,1952 3854,1953 3854,1967 3855,1968 3855,1995 3854,1996 3854,2002 3853,2003 3853,2006 3854,2007 3854,2025 3855,2026 3855,2032 3854,2033 3854,2039 3853,2040 3853,2041 3852,2042 3852,2043 3851,2044 3851,2045 3850,2046 3850,2048 3849,2049 3849,2052 3848,2053 3848,2065 3849,2066 3849,2068 3850,2069 3850,2071 3851,2072 3851,2081 3850,2082 3850,2083 3849,2084 3849,2086 3848,2087 3848,2093 3849,2094 3849,2102 3848,2103 3848,2113 3849,2114 3849,2116 3850,2117 3850,2120 3851,2121 3851,2125 3850,2126 3850,2128 3849,2129 3849,2132 3848,2133 3848,2143 3847,2144 3847,2145 3848,2146 3848,2149 3849,2150 3849,2152 3850,2153 3850,2154 3851,2155 3851,2158 3852,2159 3852,2173 3851,2174 3851,2180 3850,2181 3850,2201 3849,2202 3849,2207 3850,2208 3850,2211 3851,2212 3851,2216 3852,2217 3852,2220 3851,2221 3851,2226 3850,2227 3850,2247 3851,2248 3851,2253 3852,2254 3852,2256 3853,2257 3853,2259 3854,2260 3854,2263 3855,2264 3855,2272 3854,2273 3854,2282 3853,2283 3853,2289 3852,2290 3852,2306 3853,2307 3853,2311 3854,2312 3854,2314 3853,2315 3853,2320 3852,2321 3852,2324 3851,2325 3851,2329 3850,2330 3850,2333 3849,2334 3849,2338 3848,2339 3848,2343 3847,2344 3847,2353 3848,2354 3848,2357 3849,2358 3849,2363 3848,2364 3848,2366 3847,2367 3847,2370 3846,2371 3846,2375 3847,2376 3847,2379 3848,2380 3848,2383 3849,2384 3849,2401 3848,2402 3848,2409 3847,2410 3847,2415 3846,2416 3846,2445 3847,2446 3847,2447 3853,2453 3853,2455 3854,2456 3854,2458 3855,2459 3855,2461 3856,2462 3856,2464 3857,2465 3857,2472 3856,2473 3856,2475 3855,2476 3855,2480 3854,2481 3854,2493 3855,2494 3855,2496 3856,2497 3856,2503 3857,2504 3857,2515 3856,2516 3856,2519 3855,2520 3855,2523 3854,2524 3854,2535 3853,2536 3853,2541 3852,2542 3852,2546 3851,2547 3851,2553 3852,2554 3852,2556 3853,2557 3853,2559 3855,2561 3855,2562 3856,2563 3856,2564 3857,2565 3857,2576 3858,2577 3858,2580 3859,2581 3859,2584 3860,2585 3860,2592 3859,2593 3859,2602 3860,2603 3860,2614 3859,2615 3859,2618 3858,2619 3858,2622 3857,2623 3857,2626 3858,2627 3858,2633 3859,2634 3859,2658 3860,2659 3860,2663 3861,2664 3861,2670 3862,2671 3862,2684 3861,2685 3861,2689 3860,2690 3860,2698 3861,2699 3861,2702 3862,2703 3862,2708 3861,2709 3861,2710 3860,2711 3860,2712 3859,2713 3859,2715 3858,2716 3858,2723 3859,2724 3859,2727 3860,2728 3860,2733 3861,2734 3861,2748 3862,2749 3862,2774 3863,2775 3863,2779 3862,2780 3862,2798 3863,2799 3863,2802 3862,2803 3862,2844 3863,2845 3863,2853 3862,2854 3862,2868 3863,2869 3863,2879 3862,2880 3862,2889 3863,2890 3863,2901 3862,2902 3862,2915 3863,2916 3863,2933 3864,2934 3864,2936 3865,2937 3865,2939 3866,2940 3866,2941 3867,2942 3867,2943 3868,2944 3868,2945 3870,2947 3871,2947 3872,2948 3873,2948 3874,2949 3878,2949 3879,2950 3884,2950 3885,2951 3904,2951 3905,2950 3914,2950 3915,2949 3936,2949 3937,2948 3974,2948 3975,2949 3983,2949 3984,2948 3995,2948 3996,2949 4019,2949 4020,2950 4040,2950 4041,2949 4100,2949 4101,2950 4106,2950 4107,2951 4118,2951 4119,2952 4120,2951 4123,2951 4124,2950 4127,2950 4128,2949 4130,2949 4131,2948 4175,2948 4176,2947 4189,2947 4190,2948 4216,2948 4217,2947 4219,2947 4220,2946 4222,2946 4223,2945 4226,2945 4227,2944 4228,2944 4229,2943 4230,2943 4234,2939 4234,2938 4235,2937 4235,2936 4236,2935 4236,2934 4237,2933 4237,2927 4236,2926 4236,2920 4235,2919 4235,2918 4236,2917 4236,2905 4235,2904 4235,2895 4236,2894 4236,2893 4237,2892 4237,2891 4239,2889 4239,2888 4241,2886 4241,2883 4240,2882 4240,2881 4239,2880 4239,2879 4238,2878 4238,2877 4237,2876 4237,2864 4238,2863 4238,2861 4237,2860 4237,2857 4236,2856 4236,2853 4235,2852 4235,2843 4236,2842 4236,2835 4235,2834 4235,2832 4234,2831 4234,2830 4233,2829 4233,2828 4232,2827 4232,2825 4231,2824 4231,2817 4230,2816 4230,2811 4231,2810 4231,2806 4232,2805 4232,2803 4233,2802 4233,2799 4234,2798 4234,2794 4235,2793 4235,2785 4234,2784 4234,2777 4233,2776 4233,2772 4232,2771 4232,2762 4233,2761 4233,2759 4234,2758 4234,2756 4235,2755 4235,2739 4234,2738 4234,2729 4233,2728 4233,2725 4232,2724 4232,2720 4231,2719 4231,2710 4230,2709 4230,2706 4231,2705 4231,2701 4232,2700 4232,2698 4233,2697 4233,2694 4234,2693 4234,2691 4233,2690 4233,2680 4232,2679 4232,2674 4231,2673 4231,2665 4230,2664 4230,2653 4229,2652 4229,2644 4230,2643 4230,2640 4231,2639 4231,2603 4230,2602 4230,2542 4229,2541 4229,2518 4228,2517 4228,2493 4227,2492 4227,2477 4226,2476 4226,2468 4225,2467 4225,2435 4226,2434 4226,2429 4225,2428 4225,2402 4224,2401 4224,2390 4225,2389 4225,2381 4224,2380 4224,2346 4225,2345 4225,2339 4226,2338 4225,2337 4225,2332 4224,2331 4224,2326 4223,2325 4223,2323 4224,2322 4224,2309 4223,2308 4223,2304 4222,2303 4222,2299 4223,2298 4223,2293 4224,2292 4224,2283 4223,2282 4223,2258 4222,2257 4222,2251 4223,2250 4223,2232 4222,2231 4222,2226 4223,2225 4223,2215 4222,2214 4222,2202 4223,2201 4223,2186 4222,2185 4222,2179 4223,2178 4223,2165 4222,2164 4222,2156 4223,2155 4223,2150 4224,2149 4224,2144 4223,2143 4223,2139 4222,2138 4222,2113 4221,2112 4222,2111 4222,2105 4223,2104 4223,2095 4222,2094 4222,2072 4221,2071 4221,2042 4220,2041 4220,2027 4219,2026 4219,2017 4218,2016 4218,1965 4217,1964 4217,1946 4218,1945 4218,1940 4217,1939 4217,1928 4218,1927 4218,1917 4217,1916 4217,1905 4218,1904 4218,1879 4219,1878 4219,1868 4218,1867 4218,1857 4219,1856 4219,1771 4218,1770 4218,1761 4219,1760 4219,1744 4218,1743 4218,1737 4217,1736 4217,1734 4216,1733 4216,1731 4215,1730 4215,1725 4214,1724 4214,1717 4215,1716 4215,1712 4216,1711 4216,1702 4215,1701 4215,1698 4214,1697 4214,1695 4213,1694 4213,1691 4214,1690 4214,1680 4213,1679 4213,1676 4212,1675 4212,1665 4213,1664 4213,1658 4214,1657 4213,1656 4213,1650 4212,1649 4212,1640 4211,1639 4211,1594 4210,1593 4210,1505 4209,1504 4209,1500 4208,1499 4208,1497 4207,1496 4207,1493 4206,1492 4206,1489 4207,1488 4207,1478 4206,1477 4206,1476 4205,1475 4205,1474 4203,1472 4196,1472 4195,1473 4179,1473 4178,1472 4174,1472 4173,1471 4170,1471 4169,1470 4142,1470 4141,1471 4130,1471 4129,1470 4123,1470 4122,1469 4116,1469 4115,1470 4106,1470 4105,1471 4102,1471 4101,1472 4095,1472 4094,1473 4084,1473 4083,1472 4080,1472 4079,1471 4077,1471 4076,1470 4044,1470 4043,1469 4030,1469 4029,1468 4021,1468 4020,1467 4009,1467 4008,1468 4002,1468 4001,1469 3987,1469 3986,1468 3983,1468 3982,1467" fill="rgba(116,99,103,0.3)" stroke="rgb(116,99,103)" stroke-width="2" data-block-id="0004" data-name="b-0006" /><text x="4008" y="2220" text-anchor="middle" dominant-baseline="middle" class="block-label" fill="rgb(116,99,103)" stroke="white" stroke-width="3" paint-order="stroke">b-0006</text><polygon points="3609,1468 3608,1469 3596,1469 3595,1470 3585,1470 3584,1469 3557,1469 3556,1470 3522,1470 3521,1471 3483,1471 3482,1472 3439,1472 3438,1473 3420,1473 3419,1474 3397,1474 3396,1475 3390,1475 3389,1476 3385,1476 3384,1477 3381,1477 3380,1478 3379,1478 3378,1479 3377,1479 3376,1480 3375,1480 3375,1481 3373,1483 3373,1484 3372,1485 3372,1486 3371,1487 3371,1505 3372,1506 3372,1517 3371,1518 3371,1532 3372,1533 3372,1541 3373,1542 3373,1556 3372,1557 3372,1569 3371,1570 3372,1571 3372,1614 3373,1615 3373,1626 3374,1627 3374,1637 3375,1638 3375,1656 3374,1657 3374,1672 3373,1673 3373,1690 3374,1691 3374,1730 3375,1731 3375,1755 3376,1756 3376,1767 3375,1768 3375,1776 3374,1777 3374,1791 3375,1792 3375,1808 3374,1809 3374,1828 3375,1829 3375,1834 3376,1835 3376,1845 3375,1846 3375,1852 3374,1853 3374,1871 3375,1872 3375,1884 3374,1885 3374,1895 3373,1896 3373,1901 3374,1902 3374,1914 3375,1915 3375,1939 3376,1940 3376,1954 3375,1955 3375,1971 3374,1972 3374,1979 3375,1980 3375,1985 3376,1986 3376,1991 3377,1992 3377,2002 3376,2003 3376,2012 3375,2013 3375,2024 3376,2025 3376,2036 3375,2037 3375,2042 3374,2043 3374,2047 3373,2048 3373,2063 3374,2064 3374,2069 3375,2070 3375,2075 3376,2076 3376,2104 3375,2105 3375,2194 3374,2195 3374,2203 3373,2204 3373,2216 3374,2217 3374,2222 3375,2223 3375,2237 3374,2238 3374,2244 3373,2245 3373,2254 3374,2255 3374,2261 3375,2262 3375,2292 3376,2293 3376,2304 3377,2305 3377,2335 3378,2336 3378,2345 3379,2346 3379,2356 3378,2357 3378,2421 3379,2422 3379,2430 3378,2431 3378,2445 3379,2446 3379,2488 3380,2489 3380,2496 3381,2497 3381,2565 3382,2566 3382,2593 3381,2594 3381,2649 3382,2650 3382,2724 3383,2725 3383,2735 3384,2736 3384,2746 3383,2747 3383,2767 3384,2768 3384,2778 3383,2779 3383,2804 3384,2805 3384,2823 3385,2824 3385,2849 3384,2850 3384,2865 3385,2866 3385,2882 3386,2883 3386,2907 3385,2908 3385,2916 3386,2917 3386,2933 3387,2934 3387,2941 3388,2942 3388,2947 3389,2948 3389,2949 3391,2951 3391,2952 3392,2953 3393,2953 3395,2955 3397,2955 3398,2956 3400,2956 3401,2957 3405,2957 3406,2958 3411,2958 3412,2959 3425,2959 3426,2958 3436,2958 3437,2957 3467,2957 3468,2956 3560,2956 3561,2955 3573,2955 3574,2954 3584,2954 3585,2955 3613,2955 3614,2954 3642,2954 3643,2955 3651,2955 3652,2954 3656,2954 3657,2953 3661,2953 3662,2952 3667,2952 3668,2951 3677,2951 3678,2952 3693,2952 3694,2951 3702,2951 3703,2950 3722,2950 3723,2951 3727,2951 3728,2950 3733,2950 3734,2949 3737,2949 3738,2948 3740,2948 3741,2947 3743,2947 3744,2946 3745,2946 3746,2945 3747,2945 3749,2943 3750,2943 3753,2940 3753,2939 3754,2938 3754,2937 3755,2936 3755,2935 3756,2934 3756,2930 3757,2929 3757,2928 3756,2927 3756,2921 3755,2920 3755,2913 3754,2912 3754,2901 3755,2900 3755,2890 3754,2889 3754,2879 3753,2878 3753,2846 3752,2845 3752,2815 3753,2814 3753,2781 3752,2780 3752,2750 3753,2749 3753,2726 3752,2725 3752,2686 3751,2685 3751,2653 3752,2652 3752,2630 3751,2629 3751,2551 3750,2550 3750,2507 3749,2506 3749,2494 3748,2493 3748,2449 3747,2448 3747,2439 3748,2438 3748,2401 3747,2400 3747,2348 3748,2347 3748,2317 3747,2316 3747,2221 3748,2220 3748,2190 3747,2189 3747,2185 3746,2184 3746,2181 3745,2180 3745,2178 3744,2177 3744,2160 3745,2159 3745,2148 3744,2147 3744,2143 3743,2142 3743,2139 3742,2138 3742,2136 3741,2135 3741,2128 3742,2127 3742,2123 3743,2122 3743,2115 3744,2114 3744,2109 3743,2108 3743,2091 3742,2090 3742,2082 3741,2081 3741,2067 3742,2066 3742,2045 3741,2044 3741,2038 3740,2037 3740,2032 3741,2031 3741,2020 3742,2019 3742,2009 3741,2008 3741,1984 3740,1983 3740,1945 3739,1944 3739,1924 3740,1923 3740,1913 3739,1912 3739,1769 3738,1768 3738,1754 3737,1753 3737,1732 3738,1731 3738,1654 3737,1653 3737,1631 3738,1630 3738,1627 3737,1626 3737,1616 3736,1615 3736,1577 3735,1576 3735,1539 3734,1538 3734,1513 3735,1512 3735,1506 3734,1505 3734,1490 3733,1489 3733,1483 3732,1482 3732,1479 3731,1478 3731,1475 3730,1474 3730,1473 3729,1472 3728,1472 3727,1471 3726,1471 3725,1470 3718,1470 3717,1471 3687,1471 3686,1470 3674,1470 3673,1469 3667,1469 3666,1470 3657,1470 3656,1471 3646,1471 3645,1470 3641,1470 3640,1469 3635,1469 3634,1468" fill="rgba(151,130,149,0.3)" stroke="rgb(151,130,149)" stroke-width="2" data-block-id="0005" data-name="b-0007" /><text x="3551" y="2204" text-anchor="middle" dominant-baseline="middle" class="block-label" fill="rgb(151,130,149)" stroke="white" stroke-width="3" paint-order="stroke">b-0007</text><polygon points="1110,1132 1109,1133 1083,1133 1082,1134 1067,1134 1066,1133 1062,1133 1061,1134 1044,1134 1043,1133 1039,1133 1038,1134 1021,1134 1020,1133 1013,1133 1012,1134 996,1134 995,1133 992,1133 991,1134 984,1134 983,1135 972,1135 971,1136 956,1136 955,1135 949,1135 948,1134 946,1134 945,1135 944,1135 942,1137 942,1138 939,1141 939,1142 937,1144 936,1144 934,1146 933,1146 932,1147 919,1147 918,1148 903,1148 902,1149 886,1149 885,1148 871,1148 870,1147 856,1147 855,1146 851,1146 850,1145 847,1145 846,1144 844,1144 843,1143 841,1143 840,1142 839,1142 838,1141 836,1141 835,1140 833,1140 832,1139 830,1139 829,1138 827,1138 826,1137 812,1137 811,1136 809,1136 808,1135 806,1135 805,1134 801,1134 800,1135 799,1135 798,1136 798,1137 797,1138 797,1139 796,1140 796,1141 795,1142 795,1145 794,1146 794,1162 793,1163 793,1168 792,1169 792,1223 793,1224 793,1233 792,1234 792,1241 791,1242 791,1266 792,1267 792,1271 793,1272 793,1277 794,1278 794,1281 795,1282 795,1283 796,1284 796,1286 797,1287 797,1288 798,1289 798,1290 799,1291 799,1292 802,1295 803,1295 805,1297 806,1297 807,1298 808,1298 810,1300 811,1300 812,1301 814,1301 815,1302 817,1302 818,1303 820,1303 821,1304 824,1304 825,1305 828,1305 829,1306 833,1306 834,1307 836,1307 837,1308 840,1308 841,1309 845,1309 846,1310 849,1310 850,1311 853,1311 854,1312 856,1312 857,1313 859,1313 860,1314 863,1314 864,1315 866,1315 867,1316 869,1316 870,1317 872,1317 873,1318 875,1318 876,1319 877,1319 878,1320 880,1320 881,1321 882,1321 883,1322 885,1322 886,1323 888,1323 889,1324 891,1324 892,1325 894,1325 895,1326 897,1326 898,1327 899,1327 900,1328 902,1328 903,1329 904,1329 905,1330 906,1330 907,1331 909,1331 910,1332 911,1332 912,1333 915,1333 916,1334 920,1334 921,1335 924,1335 925,1336 929,1336 930,1337 932,1337 933,1338 937,1338 938,1339 940,1339 941,1340 943,1340 944,1341 946,1341 947,1342 948,1342 949,1343 950,1343 951,1344 952,1344 953,1345 954,1345 955,1346 956,1346 957,1347 965,1347 966,1348 976,1348 977,1349 994,1349 995,1348 996,1348 997,1347 999,1347 1000,1346 1002,1346 1003,1345 1006,1345 1007,1344 1009,1344 1010,1343 1012,1343 1013,1342 1015,1342 1016,1341 1018,1341 1020,1339 1021,1339 1022,1338 1023,1338 1025,1336 1027,1336 1028,1335 1031,1335 1032,1334 1033,1334 1034,1333 1036,1333 1037,1332 1038,1332 1039,1331 1041,1331 1042,1330 1054,1330 1060,1324 1061,1324 1063,1322 1065,1322 1066,1321 1068,1321 1069,1320 1071,1320 1072,1319 1073,1319 1074,1318 1075,1318 1076,1317 1077,1317 1079,1315 1080,1315 1083,1312 1084,1312 1086,1310 1087,1310 1088,1309 1089,1309 1090,1308 1091,1308 1092,1307 1094,1307 1095,1306 1097,1306 1098,1305 1101,1305 1102,1304 1107,1304 1108,1303 1111,1303 1113,1301 1114,1301 1116,1299 1117,1299 1118,1298 1119,1298 1120,1297 1121,1297 1122,1296 1123,1296 1124,1295 1126,1295 1127,1294 1129,1294 1130,1293 1133,1293 1134,1292 1137,1292 1138,1291 1141,1291 1142,1290 1144,1290 1145,1289 1146,1289 1147,1288 1148,1288 1149,1287 1150,1287 1152,1285 1153,1285 1155,1283 1156,1283 1157,1282 1158,1282 1159,1281 1170,1281 1171,1280 1172,1280 1178,1274 1179,1274 1181,1272 1182,1272 1183,1271 1185,1271 1186,1270 1189,1270 1190,1269 1191,1269 1192,1268 1193,1268 1194,1267 1195,1267 1197,1265 1197,1264 1201,1260 1202,1260 1204,1258 1205,1258 1206,1257 1207,1257 1208,1256 1209,1256 1215,1250 1216,1250 1217,1249 1218,1249 1220,1247 1221,1247 1234,1234 1234,1233 1236,1231 1236,1230 1245,1221 1245,1220 1246,1219 1246,1218 1247,1217 1247,1216 1249,1214 1249,1213 1250,1212 1250,1211 1252,1209 1252,1207 1253,1206 1253,1205 1254,1204 1254,1202 1255,1201 1255,1198 1256,1197 1256,1195 1255,1194 1255,1191 1254,1190 1254,1187 1253,1186 1253,1185 1252,1184 1252,1182 1251,1181 1251,1180 1250,1179 1250,1177 1249,1176 1249,1175 1248,1174 1248,1171 1247,1170 1247,1158 1246,1157 1246,1137 1245,1136 1245,1135 1244,1134 1243,1134 1242,1133 1237,1133 1236,1132 1172,1132 1171,1133 1156,1133 1155,1134 1142,1134 1141,1133 1129,1133 1128,1134 1121,1134 1120,1133 1114,1133 1113,1132" fill="rgba(20,160,203,0.3)" stroke="rgb(20,160,203)" stroke-width="2" data-block-id="0006" data-name="b-0012" /><text x="1008" y="1251" text-anchor="middle" dominant-baseline="middle" class="block-label" fill="rgb(20,160,203)" stroke="white" stroke-width="3" paint-order="stroke">b-0012</text><polygon points="4671,992 4670,993 4631,993 4630,994 4599,994 4598,995 4573,995 4572,996 4569,996 4568,995 4560,995 4559,996 4545,996 4544,997 4542,997 4541,998 4540,998 4537,1001 4537,1003 4536,1004 4536,1010 4535,1011 4535,1023 4536,1024 4536,1038 4535,1039 4535,1041 4536,1042 4536,1074 4537,1075 4537,1082 4536,1083 4536,1092 4537,1093 4537,1106 4536,1107 4536,1126 4535,1127 4535,1128 4534,1129 4534,1131 4533,1132 4533,1133 4532,1134 4532,1135 4531,1136 4531,1137 4530,1138 4530,1139 4529,1140 4529,1141 4527,1143 4527,1144 4526,1145 4526,1146 4524,1148 4524,1149 4522,1151 4522,1152 4519,1155 4519,1156 4517,1158 4516,1158 4512,1162 4512,1163 4508,1167 4508,1168 4494,1182 4494,1183 4489,1188 4489,1189 4485,1193 4485,1194 4482,1197 4482,1198 4479,1201 4478,1201 4475,1204 4474,1204 4472,1206 4471,1206 4468,1209 4467,1209 4464,1212 4463,1212 4461,1214 4460,1214 4459,1215 4458,1215 4457,1216 4456,1216 4455,1217 4453,1217 4452,1218 4451,1218 4450,1219 4449,1219 4448,1220 4447,1220 4445,1222 4444,1222 4443,1223 4441,1223 4440,1224 4434,1224 4433,1225 4429,1225 4428,1226 4425,1226 4424,1227 4422,1227 4421,1228 4418,1228 4417,1229 4405,1229 4404,1230 4401,1230 4400,1231 4398,1231 4397,1232 4395,1232 4394,1233 4393,1233 4392,1234 4390,1234 4389,1235 4387,1235 4386,1236 4383,1236 4382,1237 4372,1237 4371,1238 4368,1238 4367,1239 4365,1239 4364,1240 4362,1240 4361,1241 4357,1241 4356,1242 4351,1242 4350,1243 4348,1243 4347,1244 4345,1244 4344,1245 4342,1245 4341,1246 4340,1246 4339,1247 4337,1247 4336,1248 4335,1248 4334,1249 4333,1249 4332,1250 4331,1250 4326,1255 4326,1256 4325,1257 4325,1267 4329,1271 4330,1271 4331,1272 4332,1272 4333,1273 4352,1273 4353,1274 4403,1274 4404,1273 4461,1273 4462,1272 4486,1272 4487,1271 4494,1271 4495,1272 4505,1272 4506,1271 4511,1271 4512,1270 4527,1270 4528,1271 4533,1271 4534,1272 4542,1272 4543,1273 4559,1273 4560,1272 4684,1272 4685,1271 4692,1271 4693,1270 4695,1270 4696,1269 4697,1269 4699,1267 4699,1266 4700,1265 4700,1261 4701,1260 4701,1256 4702,1255 4702,1216 4703,1215 4703,1211 4704,1210 4704,1192 4705,1191 4705,1190 4706,1189 4706,1188 4707,1187 4707,1186 4708,1185 4708,1183 4709,1182 4709,1173 4710,1172 4710,1171 4711,1170 4711,1169 4716,1164 4717,1164 4718,1163 4719,1163 4720,1162 4723,1162 4724,1161 4732,1161 4733,1160 4740,1160 4741,1159 4743,1159 4745,1157 4745,1153 4746,1152 4746,1143 4747,1142 4747,1138 4748,1137 4748,1132 4747,1131 4747,1119 4748,1118 4748,1112 4749,1111 4749,1089 4748,1088 4748,1068 4749,1067 4749,1060 4750,1059 4750,1055 4751,1054 4750,1053 4750,1051 4749,1050 4749,1048 4748,1047 4748,1044 4747,1043 4747,1026 4748,1025 4748,1020 4749,1019 4749,1010 4750,1009 4750,1001 4751,1000 4751,997 4752,996 4752,995 4749,995 4748,994 4742,994 4741,993 4736,993 4735,992 4724,992 4723,993 4720,993 4719,994 4704,994 4703,993 4693,993 4692,992" fill="rgba(236,81,110,0.3)" stroke="rgb(236,81,110)" stroke-width="2" data-block-id="0007" data-name="b-0043" /><text x="4554" y="1160" text-anchor="middle" dominant-baseline="middle" class="block-label" fill="rgb(236,81,110)" stroke="white" stroke-width="3" paint-order="stroke">b-0043</text><polygon points="547,548 546,549 529,549 528,550 527,550 526,551 526,552 525,553 525,559 526,560 526,658 527,659 527,772 528,773 528,776 529,777 529,778 530,779 531,779 532,780 536,780 537,781 569,781 570,782 573,782 574,783 575,783 576,784 577,784 583,790 583,791 584,792 584,797 585,798 585,802 586,803 586,805 587,806 590,806 592,804 592,803 594,801 594,800 595,799 595,798 596,797 596,796 598,794 598,793 599,792 603,792 605,794 606,794 607,795 608,795 609,796 610,796 611,797 613,797 614,798 617,798 618,799 621,799 622,800 630,800 631,799 637,799 638,798 640,798 641,797 656,797 657,796 661,796 662,797 692,797 693,796 697,796 698,795 699,795 701,793 701,792 702,791 702,776 701,775 701,730 700,729 700,684 699,683 699,616 698,615 698,600 699,599 699,578 698,577 698,565 697,564 697,552 694,549 690,549 689,548 612,548 611,549 575,549 574,548" fill="rgba(98,171,103,0.3)" stroke="rgb(98,171,103)" stroke-width="2" data-block-id="0008" data-name="b-0060" /><text x="611" y="729" text-anchor="middle" dominant-baseline="middle" class="block-label" fill="rgb(98,171,103)" stroke="white" stroke-width="3" paint-order="stroke">b-0060</text><polygon points="3528,1105 3527,1106 3475,1106 3474,1107 3460,1107 3459,1106 3454,1106 3453,1107 3411,1107 3410,1106 3406,1106 3405,1107 3398,1107 3397,1108 3392,1108 3391,1107 3379,1107 3378,1108 3373,1108 3371,1110 3370,1110 3370,1111 3369,1112 3369,1222 3370,1223 3370,1276 3371,1277 3371,1278 3372,1279 3372,1280 3373,1280 3374,1281 3420,1281 3421,1280 3520,1280 3521,1279 3541,1279 3542,1278 3545,1278 3546,1277 3547,1277 3549,1275 3549,1274 3550,1273 3550,1270 3551,1269 3551,1231 3550,1230 3550,1133 3549,1132 3549,1122 3548,1121 3548,1116 3547,1115 3547,1112 3546,1111 3546,1110 3544,1108 3543,1108 3541,1106 3538,1106 3537,1105" fill="rgba(230,236,142,0.3)" stroke="rgb(230,236,142)" stroke-width="2" data-block-id="0009" data-name="b-0073" /><text x="3469" y="1174" text-anchor="middle" dominant-baseline="middle" class="block-label" fill="rgb(230,236,142)" stroke="white" stroke-width="3" paint-order="stroke">b-0073</text><polygon points="3556,1106 3555,1107 3552,1107 3551,1108 3551,1110 3550,1111 3550,1178 3551,1179 3551,1193 3550,1194 3551,1195 3551,1230 3552,1231 3552,1248 3553,1249 3553,1262 3552,1263 3552,1266 3553,1267 3553,1274 3554,1275 3554,1276 3555,1277 3556,1277 3557,1278 3639,1278 3640,1277 3648,1277 3649,1278 3667,1278 3668,1277 3670,1277 3671,1278 3689,1278 3690,1277 3694,1277 3695,1278 3714,1278 3715,1277 3729,1277 3729,1276 3730,1275 3730,1271 3731,1270 3731,1246 3730,1245 3730,1175 3729,1174 3729,1169 3730,1168 3730,1153 3729,1152 3729,1114 3728,1113 3728,1110 3727,1109 3727,1108 3726,1108 3725,1107 3723,1107 3722,1106 3612,1106 3611,1107 3583,1107 3582,1106" fill="rgba(12,159,70,0.3)" stroke="rgb(12,159,70)" stroke-width="2" data-block-id="0010" data-name="b-0075" /><text x="3641" y="1206" text-anchor="middle" dominant-baseline="middle" class="block-label" fill="rgb(12,159,70)" stroke="white" stroke-width="3" paint-order="stroke">b-0075</text><polygon points="2902,75 2901,76 2892,76 2891,77 2884,77 2883,78 2869,78 2868,79 2863,79 2862,80 2846,80 2845,81 2838,81 2837,82 2822,82 2821,83 2815,83 2814,84 2802,84 2801,85 2786,85 2785,86 2775,86 2774,87 2763,87 2762,88 2715,88 2714,89 2690,89 2689,90 2680,90 2679,91 2669,91 2668,92 2651,92 2650,93 2632,93 2631,94 2628,94 2627,95 2624,95 2623,96 2619,96 2618,97 2615,97 2614,98 2611,98 2610,99 2608,99 2607,100 2605,100 2604,101 2603,101 2602,102 2601,102 2597,106 2597,107 2596,108 2596,109 2595,110 2595,116 2596,117 2596,120 2597,121 2597,152 2596,153 2596,166 2597,167 2597,190 2596,191 2596,214 2597,215 2597,267 2596,268 2596,273 2595,274 2595,281 2594,282 2594,295 2593,296 2593,299 2592,300 2592,303 2591,304 2591,306 2592,307 2592,314 2593,315 2593,317 2594,318 2594,319 2597,322 2597,323 2598,324 2598,338 2597,339 2597,343 2596,344 2596,346 2595,347 2595,349 2594,350 2594,355 2593,356 2593,360 2592,361 2592,363 2591,364 2591,365 2590,366 2590,367 2586,371 2584,371 2582,369 2581,369 2580,368 2579,368 2578,367 2576,367 2576,368 2575,369 2575,379 2576,380 2576,382 2577,382 2579,380 2580,380 2582,378 2583,378 2584,377 2586,377 2587,376 2589,378 2590,378 2591,379 2592,379 2593,380 2595,380 2597,382 2597,383 2598,384 2598,393 2597,394 2597,400 2598,401 2598,405 2599,406 2599,410 2600,411 2600,423 2599,424 2599,436 2598,437 2598,443 2597,444 2597,448 2598,449 2598,456 2599,457 2599,477 2600,478 2600,485 2599,486 2599,498 2600,499 2600,516 2599,517 2599,526 2598,527 2598,540 2597,541 2597,542 2596,543 2595,542 2595,535 2594,534 2594,532 2593,531 2593,529 2592,528 2592,527 2591,526 2591,525 2590,524 2590,522 2589,521 2589,520 2588,519 2588,518 2587,518 2586,517 2584,517 2582,519 2582,528 2581,529 2581,530 2576,535 2576,537 2575,538 2575,543 2576,544 2576,547 2578,549 2578,557 2577,558 2577,560 2576,561 2576,576 2577,577 2577,578 2576,579 2576,593 2577,594 2577,596 2578,597 2578,601 2579,602 2579,611 2580,612 2580,614 2582,616 2582,617 2584,619 2584,620 2587,623 2587,627 2585,629 2585,631 2584,632 2584,636 2583,637 2583,640 2582,641 2582,642 2581,643 2581,645 2580,646 2580,648 2579,649 2579,661 2580,662 2580,663 2584,667 2586,667 2587,666 2588,666 2591,663 2591,662 2592,661 2592,660 2593,659 2593,646 2594,645 2594,643 2595,642 2595,640 2596,639 2600,643 2600,645 2601,646 2601,652 2602,653 2602,660 2603,661 2603,663 2604,664 2604,667 2605,668 2605,711 2604,712 2604,715 2603,716 2603,719 2602,720 2602,723 2603,724 2603,741 2604,742 2604,753 2603,754 2603,760 2602,761 2602,762 2599,765 2598,765 2597,764 2596,764 2595,763 2595,762 2594,761 2594,760 2593,759 2593,758 2592,757 2592,736 2591,735 2591,728 2592,727 2592,718 2590,716 2590,714 2589,713 2589,711 2588,710 2588,707 2587,706 2587,704 2585,702 2584,702 2583,703 2583,704 2582,705 2582,706 2581,707 2581,726 2580,727 2580,739 2579,740 2579,760 2580,761 2580,779 2579,780 2579,783 2578,784 2578,786 2577,787 2577,798 2578,799 2578,802 2579,803 2579,804 2580,805 2580,806 2582,808 2582,810 2583,811 2583,812 2584,813 2584,814 2583,815 2583,818 2582,819 2582,821 2581,822 2581,824 2580,825 2580,834 2579,835 2579,840 2578,841 2578,847 2577,848 2577,854 2578,855 2578,868 2577,869 2577,899 2578,900 2578,901 2579,902 2579,903 2580,904 2580,905 2581,906 2581,908 2582,909 2582,914 2581,915 2581,920 2580,921 2580,928 2581,929 2581,936 2580,937 2580,949 2581,950 2581,953 2582,954 2582,967 2581,968 2581,978 2580,979 2580,997 2581,998 2581,1001 2582,1002 2582,1005 2583,1006 2583,1009 2582,1010 2582,1021 2581,1022 2581,1029 2580,1030 2580,1043 2581,1044 2581,1046 2582,1047 2582,1049 2583,1050 2583,1051 2584,1052 2584,1059 2583,1060 2583,1083 2582,1084 2582,1090 2584,1092 2584,1093 2586,1095 2588,1095 2590,1093 2590,1092 2592,1090 2592,1088 2593,1087 2592,1086 2592,1080 2591,1079 2591,1053 2592,1052 2592,1051 2594,1049 2594,1048 2595,1047 2595,1045 2596,1044 2596,1037 2595,1036 2595,1034 2594,1033 2594,1025 2595,1024 2595,1023 2596,1022 2596,1021 2599,1018 2599,1017 2600,1016 2600,1012 2599,1011 2599,1006 2598,1005 2598,1004 2596,1002 2596,1001 2595,1000 2595,998 2594,997 2594,976 2595,975 2595,967 2594,966 2594,928 2595,927 2595,917 2594,916 2594,908 2598,904 2598,903 2602,899 2602,898 2603,897 2603,894 2602,893 2602,885 2603,884 2603,882 2604,881 2604,879 2605,878 2605,874 2606,873 2605,872 2605,856 2607,854 2608,854 2611,857 2611,858 2612,859 2612,872 2611,873 2612,874 2612,895 2611,896 2611,900 2612,901 2612,908 2613,909 2613,911 2612,912 2612,918 2611,919 2611,931 2612,932 2612,935 2611,936 2611,948 2612,949 2612,952 2613,953 2613,967 2612,968 2612,975 2613,976 2613,984 2612,985 2612,1002 2613,1003 2613,1014 2614,1015 2614,1021 2615,1022 2615,1033 2614,1034 2614,1037 2613,1038 2613,1043 2614,1044 2614,1046 2615,1047 2615,1049 2616,1050 2616,1069 2615,1070 2615,1092 2616,1093 2616,1096 2617,1097 2617,1105 2616,1106 2616,1126 2615,1127 2615,1138 2616,1139 2616,1142 2617,1143 2617,1147 2618,1148 2618,1151 2617,1152 2617,1187 2618,1188 2618,1192 2619,1193 2619,1222 2618,1223 2618,1233 2619,1234 2619,1239 2620,1240 2620,1248 2619,1249 2619,1281 2620,1282 2620,1287 2621,1288 2621,1332 2622,1333 2622,1348 2621,1349 2621,1355 2622,1356 2622,1366 2621,1367 2621,1377 2622,1378 2622,1383 2623,1384 2623,1391 2622,1392 2622,1402 2623,1403 2623,1425 2624,1426 2624,1430 2625,1431 2625,1442 2624,1443 2624,1445 2625,1446 2625,1453 2626,1454 2626,1471 2627,1472 2627,1476 2628,1477 2628,1482 2629,1483 2629,1498 2630,1499 2630,1503 2631,1504 2631,1517 2632,1518 2632,1521 2633,1522 2633,1523 2634,1524 2634,1525 2636,1527 2636,1529 2637,1530 2637,1534 2638,1535 2638,1539 2639,1540 2639,1542 2640,1543 2640,1544 2641,1545 2641,1546 2642,1547 2642,1548 2648,1554 2648,1555 2649,1555 2651,1557 2652,1557 2653,1558 2654,1558 2655,1559 2657,1559 2658,1560 2661,1560 2662,1561 2664,1561 2665,1562 2667,1562 2668,1563 2670,1563 2671,1564 2674,1564 2675,1565 2681,1565 2682,1566 2729,1566 2730,1565 2817,1565 2818,1564 2921,1564 2922,1563 2936,1563 2937,1562 2940,1562 2941,1561 2942,1561 2943,1560 2945,1560 2946,1559 2951,1559 2952,1558 2958,1558 2959,1557 2963,1557 2964,1556 2967,1556 2968,1555 2970,1555 2971,1554 2974,1554 2977,1551 2974,1548 2974,1547 2972,1545 2972,1544 2971,1543 2971,1524 2972,1523 2972,1515 2971,1514 2971,1504 2970,1503 2970,1449 2971,1448 2971,1442 2970,1441 2970,1426 2971,1425 2971,1419 2970,1418 2970,1400 2971,1399 2971,1398 2970,1397 2970,1388 2969,1387 2969,1340 2968,1339 2968,1327 2967,1326 2967,1318 2966,1317 2966,1306 2967,1305 2967,1304 2966,1303 2966,1295 2965,1294 2965,1287 2966,1286 2966,1275 2965,1274 2965,1253 2964,1252 2964,1247 2963,1246 2963,1239 2964,1238 2964,1234 2965,1233 2965,1230 2964,1229 2964,1225 2963,1224 2963,1213 2964,1212 2964,1205 2963,1204 2963,1200 2962,1199 2962,1192 2963,1191 2963,1188 2964,1187 2964,1181 2963,1180 2963,1177 2962,1176 2962,1162 2963,1161 2962,1160 2962,1155 2961,1154 2961,1140 2962,1139 2962,1133 2961,1132 2961,1114 2962,1113 2962,1112 2961,1111 2961,1094 2962,1093 2962,1083 2961,1082 2961,1071 2962,1070 2962,1060 2961,1059 2961,1048 2962,1047 2962,1035 2961,1034 2961,1023 2962,1022 2962,1012 2961,1011 2961,999 2962,998 2962,990 2961,989 2961,950 2962,949 2962,941 2961,940 2961,915 2960,914 2960,907 2961,906 2961,900 2962,899 2962,897 2961,896 2961,889 2960,888 2960,884 2961,883 2961,876 2962,875 2962,856 2963,855 2963,842 2964,841 2964,832 2965,831 2965,814 2964,813 2964,790 2963,789 2963,783 2962,782 2962,776 2963,775 2963,767 2962,766 2962,763 2961,762 2961,760 2960,759 2960,758 2959,757 2959,756 2958,755 2958,751 2957,750 2957,735 2956,734 2956,698 2955,697 2955,665 2954,664 2954,637 2953,636 2953,620 2954,619 2954,606 2953,605 2953,590 2952,589 2952,580 2951,579 2951,575 2952,574 2952,541 2951,540 2951,520 2952,519 2952,514 2951,513 2951,502 2950,501 2950,495 2949,494 2949,468 2948,467 2948,440 2947,439 2947,428 2948,427 2948,412 2947,411 2947,322 2946,321 2946,312 2947,311 2947,306 2948,305 2948,299 2947,298 2947,272 2946,271 2946,187 2947,186 2947,169 2946,168 2946,89 2945,88 2945,86 2944,85 2944,84 2942,82 2941,82 2940,81 2938,81 2937,80 2935,80 2934,79 2931,79 2930,78 2924,78 2923,77 2920,77 2919,76 2914,76 2913,75" fill="rgba(52,1,87,0.3)" stroke="rgb(52,1,87)" stroke-width="2" data-block-id="0011" data-name="b-0008" /><text x="2705" y="820" text-anchor="middle" dominant-baseline="middle" class="block-label" fill="rgb(52,1,87)" stroke="white" stroke-width="3" paint-order="stroke">b-0008</text><polygon points="4408,1467 4407,1468 4365,1468 4364,1469 4361,1469 4360,1470 4348,1470 4347,1471 4346,1471 4344,1473 4342,1473 4341,1474 4337,1474 4336,1475 4335,1475 4333,1477 4333,1478 4332,1479 4332,1486 4333,1487 4333,1493 4332,1494 4332,1495 4331,1496 4331,1498 4330,1499 4330,1502 4329,1503 4329,1516 4330,1517 4330,1537 4331,1538 4331,1547 4332,1548 4332,1556 4331,1557 4331,1575 4332,1576 4332,1595 4331,1596 4331,1615 4332,1616 4332,1634 4333,1635 4333,1671 4334,1672 4334,1676 4335,1677 4335,1680 4336,1681 4336,1686 4337,1687 4337,1704 4338,1705 4338,1709 4339,1710 4339,1711 4343,1715 4344,1715 4346,1717 4345,1718 4345,1719 4344,1720 4343,1720 4342,1721 4341,1721 4340,1722 4339,1722 4337,1724 4337,1725 4336,1726 4336,1727 4335,1728 4335,1742 4334,1743 4334,1744 4332,1746 4332,1748 4331,1749 4331,1751 4330,1752 4330,1755 4331,1756 4331,1761 4332,1762 4332,1787 4331,1788 4331,1815 4332,1816 4332,1872 4333,1873 4333,1918 4334,1919 4334,1932 4333,1933 4333,1941 4332,1942 4332,1949 4333,1950 4333,1967 4334,1968 4334,1973 4333,1974 4333,1983 4334,1984 4334,2045 4335,2046 4335,2102 4336,2103 4336,2150 4337,2151 4337,2204 4338,2205 4338,2208 4337,2209 4337,2232 4338,2233 4338,2246 4339,2247 4339,2249 4340,2250 4340,2251 4341,2252 4341,2254 4342,2255 4342,2256 4341,2257 4341,2261 4340,2262 4340,2269 4339,2270 4339,2298 4340,2299 4340,2305 4339,2306 4339,2345 4340,2346 4340,2409 4341,2410 4341,2440 4342,2441 4342,2463 4341,2464 4341,2468 4342,2469 4342,2477 4343,2478 4343,2484 4344,2485 4344,2546 4345,2547 4345,2586 4346,2587 4346,2623 4347,2624 4347,2626 4348,2627 4348,2629 4349,2630 4349,2631 4350,2632 4350,2639 4349,2640 4349,2644 4348,2645 4348,2675 4349,2676 4349,2693 4348,2694 4348,2698 4349,2699 4349,2713 4350,2714 4350,2756 4351,2757 4351,2760 4352,2761 4352,2762 4353,2763 4353,2770 4352,2771 4352,2787 4353,2788 4353,2793 4354,2794 4354,2797 4355,2798 4355,2799 4356,2800 4356,2801 4355,2802 4355,2804 4353,2806 4353,2808 4352,2809 4352,2813 4351,2814 4351,2817 4352,2818 4352,2852 4353,2853 4353,2872 4352,2873 4352,2926 4353,2927 4353,2934 4354,2935 4354,2936 4355,2937 4355,2938 4356,2939 4356,2940 4358,2942 4359,2942 4360,2943 4377,2943 4378,2944 4387,2944 4388,2943 4400,2943 4401,2944 4412,2944 4413,2943 4426,2943 4427,2944 4433,2944 4434,2943 4450,2943 4451,2944 4457,2944 4458,2943 4482,2943 4483,2942 4489,2942 4490,2941 4492,2941 4493,2942 4509,2942 4510,2941 4532,2941 4533,2942 4567,2942 4568,2943 4578,2943 4579,2944 4591,2944 4592,2945 4598,2945 4599,2944 4603,2944 4604,2943 4607,2943 4608,2942 4611,2942 4612,2943 4617,2943 4618,2944 4627,2944 4628,2943 4637,2943 4638,2944 4647,2944 4648,2943 4653,2943 4654,2942 4663,2942 4664,2943 4692,2943 4693,2942 4702,2942 4703,2941 4707,2941 4708,2940 4709,2940 4710,2939 4711,2939 4712,2938 4713,2938 4714,2937 4715,2937 4717,2935 4717,2934 4718,2933 4718,2932 4719,2931 4719,2924 4720,2923 4720,2917 4721,2916 4721,2909 4722,2908 4722,2904 4721,2903 4721,2893 4722,2892 4722,2883 4721,2882 4721,2878 4720,2877 4720,2838 4719,2837 4719,2831 4718,2830 4718,2817 4719,2816 4719,2810 4718,2809 4718,2804 4717,2803 4717,2783 4716,2782 4716,2772 4717,2771 4717,2754 4716,2753 4716,2735 4715,2734 4715,2723 4716,2722 4716,2710 4715,2709 4715,2692 4714,2691 4714,2684 4713,2683 4713,2679 4714,2678 4714,2666 4715,2665 4715,2646 4714,2645 4714,2642 4713,2641 4713,2637 4712,2636 4712,2584 4713,2583 4713,2546 4712,2545 4712,2508 4711,2507 4711,2452 4710,2451 4710,2375 4711,2374 4711,2360 4710,2359 4710,2357 4709,2356 4709,2354 4708,2353 4708,2351 4707,2350 4707,2345 4708,2344 4708,2334 4709,2333 4709,2307 4708,2306 4708,2260 4707,2259 4707,2159 4708,2158 4708,2149 4709,2148 4709,2133 4708,2132 4708,2100 4707,2099 4707,2047 4706,2046 4706,2039 4705,2038 4705,2035 4706,2034 4706,2024 4707,2023 4707,2010 4706,2009 4706,2006 4705,2005 4705,2001 4706,2000 4706,1987 4705,1986 4705,1983 4704,1982 4704,1977 4705,1976 4705,1972 4706,1971 4706,1966 4705,1965 4705,1961 4704,1960 4704,1951 4705,1950 4705,1942 4704,1941 4704,1938 4703,1937 4703,1936 4702,1935 4702,1929 4703,1928 4703,1924 4704,1923 4704,1919 4703,1918 4703,1916 4702,1915 4702,1912 4701,1911 4701,1904 4702,1903 4702,1894 4701,1893 4701,1891 4700,1890 4700,1889 4699,1888 4699,1881 4700,1880 4700,1878 4701,1877 4701,1869 4700,1868 4700,1866 4699,1865 4699,1861 4698,1860 4699,1859 4699,1855 4700,1854 4700,1846 4699,1845 4699,1843 4698,1842 4698,1841 4697,1840 4697,1834 4698,1833 4698,1831 4699,1830 4699,1825 4700,1824 4699,1823 4699,1819 4698,1818 4698,1796 4697,1795 4697,1782 4698,1781 4698,1776 4697,1775 4697,1773 4696,1772 4696,1769 4695,1768 4695,1763 4696,1762 4696,1758 4697,1757 4697,1747 4696,1746 4696,1737 4697,1736 4697,1725 4696,1724 4696,1712 4697,1711 4697,1698 4696,1697 4696,1675 4695,1674 4695,1667 4696,1666 4696,1656 4695,1655 4695,1654 4694,1653 4694,1651 4692,1649 4692,1646 4693,1645 4693,1644 4695,1642 4695,1641 4696,1640 4696,1639 4697,1638 4697,1627 4696,1626 4696,1617 4697,1616 4697,1605 4696,1604 4696,1592 4695,1591 4695,1582 4694,1581 4694,1551 4693,1550 4693,1549 4691,1547 4671,1547 4670,1548 4650,1548 4649,1547 4640,1547 4639,1548 4602,1548 4601,1547 4594,1547 4593,1548 4587,1548 4586,1549 4582,1549 4581,1548 4566,1548 4565,1549 4552,1549 4551,1550 4547,1550 4545,1552 4544,1552 4543,1553 4543,1554 4541,1556 4540,1556 4538,1558 4537,1558 4533,1562 4533,1564 4532,1565 4532,1566 4528,1570 4518,1570 4517,1569 4515,1569 4510,1564 4510,1563 4509,1562 4509,1561 4507,1559 4507,1558 4505,1556 4505,1555 4503,1553 4503,1536 4502,1535 4502,1529 4501,1528 4501,1504 4500,1503 4500,1501 4499,1500 4499,1499 4498,1498 4498,1497 4497,1496 4497,1495 4495,1493 4495,1491 4494,1490 4495,1489 4495,1484 4496,1483 4496,1481 4495,1480 4495,1479 4494,1478 4494,1477 4492,1475 4492,1474 4490,1472 4489,1472 4487,1470 4484,1470 4483,1469 4479,1469 4478,1468 4472,1468 4471,1467 4447,1467 4446,1468 4427,1468 4426,1467" fill="rgba(235,157,37,0.3)" stroke="rgb(235,157,37)" stroke-width="2" data-block-id="0012" data-name="b-0009" /><text x="4531" y="2138" text-anchor="middle" dominant-baseline="middle" class="block-label" fill="rgb(235,157,37)" stroke="white" stroke-width="3" paint-order="stroke">b-0009</text><polygon points="2902,2991 3291,2982 3295,1935 2876,1931" fill="rgba(102,179,92,0.3)" stroke="rgb(102,179,92)" stroke-width="2" data-block-id="0013" data-name="b-0014" /><text x="3091" y="2459" text-anchor="middle" dominant-baseline="middle" class="block-label" fill="rgb(102,179,92)" stroke="white" stroke-width="3" paint-order="stroke">b-0014</text><polygon points="2815,2989 2811,2009 2441,2013 2447,2997" fill="rgba(102,179,92,0.3)" stroke="rgb(102,179,92)" stroke-width="2" data-block-id="0014" data-name="b-0015" /><text x="2628" y="2502" text-anchor="middle" dominant-baseline="middle" class="block-label" fill="rgb(102,179,92)" stroke="white" stroke-width="3" paint-order="stroke">b-0015</text><polygon points="2348,2995 2350,1916 2214,1872 2223,1796 1942,1739 1948,3005" fill="rgba(102,179,92,0.3)" stroke="rgb(102,179,92)" stroke-width="2" data-block-id="0015" data-name="b-0016" /><text x="2170" y="2220" text-anchor="middle" dominant-baseline="middle" class="block-label" fill="rgb(102,179,92)" stroke="white" stroke-width="3" paint-order="stroke">b-0016</text></g>
</svg>