<?xml version='1.0' encoding='utf-8'?>
<svg xmlns="http://www.w3.org/2000/svg" xmlns:atlas="http://example.com/atlas" width="4984" height="3232" viewBox="0 0 4984 3232">
  
  <metadata>
    <atlas:source>
      <atlas:jp2-path>/Users/pwright/workspace/atlas/media/v2/p23.jp2</atlas:jp2-path>
      <atlas:volume>unknown</atlas:volume>
      <atlas:plate-id>p23</atlas:plate-id>
      <atlas:image-width>4984</atlas:image-width>
      <atlas:image-height>3232</atlas:image-height>
    <atlas:angle>0.0</atlas:angle><atlas:scale>1.3333333333333333</atlas:scale><atlas:pos-x>2885.669714857721</atlas:pos-x><atlas:pos-y>1819.0954954630151</atlas:pos-y></atlas:source>
  </metadata>

  
  <image id="background" href="file:///Users/pwright/workspace/atlas/media/v2/p23.jp2" width="4984" height="3232" opacity="0.5" />

  <style>
    .block-label { font-family: sans-serif; font-size: 14px; font-weight: bold; }
  </style>

  
  <g id="blocks">
    <polygon points="744,2063 743,2064 741,2064 740,2065 739,2065 737,2067 737,2068 736,2069 736,2072 735,2073 735,2094 734,2095 734,2110 735,2111 735,2119 734,2120 734,2130 735,2131 735,2133 736,2134 736,2135 737,2136 737,2137 738,2138 738,2143 737,2144 737,2146 736,2147 736,2148 735,2149 735,2152 734,2153 734,2158 733,2159 733,2179 734,2180 734,2196 735,2197 735,2198 734,2199 734,2200 733,2201 733,2202 732,2203 732,2204 731,2205 731,2207 730,2208 730,2221 731,2222 731,2242 732,2243 732,2252 731,2253 731,2257 730,2258 730,2275 731,2276 731,2300 730,2301 730,2330 729,2331 729,2379 728,2380 728,2384 727,2385 727,2388 726,2389 726,2392 727,2393 727,2400 728,2401 728,2420 729,2421 729,2425 732,2428 733,2428 734,2429 737,2429 738,2430 747,2430 748,2431 776,2431 777,2432 780,2432 781,2431 801,2431 802,2432 804,2432 805,2431 817,2431 818,2432 882,2432 883,2431 887,2431 888,2432 917,2432 918,2433 924,2433 925,2432 965,2432 966,2433 970,2433 971,2432 979,2432 980,2431 982,2431 983,2432 1034,2432 1035,2433 1048,2433 1049,2432 1056,2432 1057,2433 1068,2433 1069,2432 1084,2432 1085,2433 1091,2433 1092,2432 1109,2432 1110,2433 1168,2433 1169,2432 1177,2432 1178,2433 1189,2433 1190,2432 1204,2432 1205,2433 1206,2432 1225,2432 1226,2433 1234,2433 1235,2432 1277,2432 1278,2433 1310,2433 1311,2432 1328,2432 1329,2431 1360,2431 1361,2432 1381,2432 1382,2431 1518,2431 1519,2430 1553,2430 1554,2431 1561,2431 1562,2432 1563,2431 1570,2431 1571,2430 1619,2430 1620,2429 1628,2429 1629,2430 1691,2430 1692,2431 1712,2431 1713,2430 1830,2430 1831,2429 1861,2429 1862,2428 1863,2428 1864,2427 1865,2427 1868,2424 1868,2422 1869,2421 1869,2418 1870,2417 1870,2405 1871,2404 1871,2403 1870,2402 1870,2378 1871,2377 1870,2376 1870,2360 1871,2359 1871,2350 1870,2349 1870,2333 1871,2332 1871,2330 1870,2329 1870,2285 1871,2284 1871,2281 1870,2280 1870,2250 1869,2249 1869,2240 1870,2239 1870,2158 1869,2157 1869,2135 1870,2134 1870,2104 1871,2103 1871,2086 1872,2085 1872,2071 1871,2070 1871,2068 1870,2067 1869,2067 1867,2065 1866,2065 1865,2064 1862,2064 1861,2063 1857,2063 1856,2064 1810,2064 1809,2065 1796,2065 1795,2064 1742,2064 1741,2065 1713,2065 1712,2066 1665,2066 1664,2067 1642,2067 1641,2066 1601,2066 1600,2065 1599,2066 1577,2066 1576,2065 1552,2065 1551,2066 1508,2066 1507,2065 1501,2065 1500,2066 1486,2066 1485,2065 1396,2065 1395,2066 1394,2065 1329,2065 1328,2064 1258,2064 1257,2065 1252,2065 1251,2066 1238,2066 1237,2067 1230,2067 1229,2068 1211,2068 1210,2067 1178,2067 1177,2068 1168,2068 1167,2067 1092,2067 1091,2066 1084,2066 1083,2067 1073,2067 1072,2066 1070,2066 1069,2065 1008,2065 1007,2066 1006,2066 1005,2065 972,2065 971,2064 966,2064 965,2065 950,2065 949,2064 940,2064 939,2065 902,2065 901,2064 893,2064 892,2065 793,2065 792,2064 747,2064 746,2063" fill="rgba(188,20,102,0.3)" stroke="rgb(188,20,102)" stroke-width="2" data-block-id="0001" data-name="b-0003" /><text x="1206" y="2250" text-anchor="middle" dominant-baseline="middle" class="block-label" fill="rgb(188,20,102)" stroke="white" stroke-width="3" paint-order="stroke">b-0003</text><polygon points="894,2539 893,2540 828,2540 827,2541 823,2541 822,2540 751,2540 750,2541 733,2541 732,2542 730,2542 729,2543 728,2543 727,2544 727,2545 726,2546 726,2556 725,2557 725,2565 724,2566 724,2569 723,2570 723,2573 722,2574 722,2577 721,2578 721,2586 722,2587 722,2598 723,2599 723,2633 722,2634 722,2704 721,2705 721,2710 720,2711 720,2731 721,2732 721,2824 720,2825 720,2845 721,2846 721,2892 722,2893 722,2898 723,2899 723,2901 726,2904 727,2904 728,2905 730,2905 731,2906 738,2906 739,2907 751,2907 752,2908 775,2908 776,2909 785,2909 786,2908 804,2908 805,2907 815,2907 816,2908 850,2908 851,2909 852,2908 880,2908 881,2907 895,2907 896,2908 900,2908 901,2907 929,2907 930,2906 937,2906 938,2907 966,2907 967,2908 968,2908 969,2907 976,2907 977,2906 998,2906 999,2907 1143,2907 1144,2906 1152,2906 1153,2907 1161,2907 1162,2906 1170,2906 1171,2905 1172,2905 1173,2906 1251,2906 1252,2907 1255,2907 1256,2906 1303,2906 1304,2905 1310,2905 1311,2904 1326,2904 1327,2903 1357,2903 1358,2902 1359,2902 1360,2903 1381,2903 1382,2902 1402,2902 1403,2903 1423,2903 1424,2902 1476,2902 1477,2901 1575,2901 1576,2900 1647,2900 1648,2901 1667,2901 1668,2900 1706,2900 1707,2901 1735,2901 1736,2902 1759,2902 1760,2903 1786,2903 1787,2902 1834,2902 1835,2901 1855,2901 1856,2900 1860,2900 1861,2899 1862,2899 1863,2898 1864,2898 1867,2895 1867,2894 1868,2893 1868,2891 1869,2890 1869,2797 1868,2796 1868,2777 1869,2776 1869,2679 1868,2678 1868,2672 1869,2671 1869,2607 1870,2606 1870,2597 1869,2596 1869,2557 1868,2556 1868,2551 1867,2550 1867,2547 1866,2546 1866,2545 1863,2542 1862,2542 1861,2541 1855,2541 1854,2540 1838,2540 1837,2541 1826,2541 1825,2542 1809,2542 1808,2541 1770,2541 1769,2540 1761,2540 1760,2541 1747,2541 1746,2540 1709,2540 1708,2539 1688,2539 1687,2540 1676,2540 1675,2539 1642,2539 1641,2540 1623,2540 1622,2539 1621,2539 1620,2540 1563,2540 1562,2539 1547,2539 1546,2540 1501,2540 1500,2541 1485,2541 1484,2540 1450,2540 1449,2541 1404,2541 1403,2542 1397,2542 1396,2543 1392,2543 1391,2544 1389,2544 1388,2545 1387,2545 1386,2546 1368,2546 1367,2547 1354,2547 1353,2546 1340,2546 1339,2547 1315,2547 1314,2548 1311,2548 1310,2547 1286,2547 1285,2546 1278,2546 1277,2545 1276,2545 1275,2546 1262,2546 1261,2545 1257,2545 1256,2544 1251,2544 1250,2543 1225,2543 1224,2544 1214,2544 1213,2543 1206,2543 1205,2542 1185,2542 1184,2541 1183,2542 1178,2542 1177,2543 1176,2543 1175,2544 1174,2544 1173,2545 1172,2545 1171,2546 1169,2546 1168,2545 1166,2545 1165,2544 1162,2544 1161,2543 1146,2543 1145,2544 1115,2544 1114,2543 1107,2543 1106,2544 1082,2544 1081,2545 1074,2545 1073,2544 1055,2544 1054,2545 1049,2545 1048,2544 1000,2544 999,2543 986,2543 985,2544 983,2544 982,2545 981,2544 978,2544 977,2543 974,2543 973,2542 968,2542 967,2541 910,2541 909,2540 900,2540 899,2539" fill="rgba(121,210,214,0.3)" stroke="rgb(121,210,214)" stroke-width="2" data-block-id="0002" data-name="b-0004" /><text x="1249" y="2687" text-anchor="middle" dominant-baseline="middle" class="block-label" fill="rgb(121,210,214)" stroke="white" stroke-width="3" paint-order="stroke">b-0004</text><polygon points="867,1044 866,1045 830,1045 829,1046 819,1046 818,1045 753,1045 752,1046 750,1046 749,1047 748,1047 744,1051 744,1052 743,1053 743,1057 742,1058 742,1085 741,1086 741,1122 740,1123 740,1154 741,1155 741,1159 740,1160 740,1164 739,1165 739,1168 738,1169 738,1175 739,1176 739,1187 740,1188 740,1220 739,1221 739,1241 740,1242 740,1249 739,1250 739,1259 740,1260 740,1268 739,1269 739,1286 740,1287 740,1298 739,1299 739,1305 740,1306 740,1344 739,1345 739,1370 738,1371 738,1398 739,1399 739,1400 742,1403 743,1403 744,1404 745,1404 746,1405 749,1405 750,1406 757,1406 758,1407 791,1407 792,1408 808,1408 809,1407 818,1407 819,1408 844,1408 845,1409 854,1409 855,1408 890,1408 891,1409 900,1409 901,1408 936,1408 937,1409 953,1409 954,1410 959,1410 960,1409 975,1409 976,1408 988,1408 989,1409 994,1409 995,1408 1002,1408 1003,1407 1005,1407 1006,1408 1015,1408 1016,1409 1046,1409 1047,1408 1080,1408 1081,1409 1119,1409 1120,1408 1124,1408 1125,1409 1274,1409 1275,1410 1280,1410 1281,1409 1330,1409 1331,1410 1350,1410 1351,1409 1400,1409 1401,1408 1433,1408 1434,1409 1452,1409 1453,1408 1459,1408 1460,1409 1505,1409 1506,1410 1608,1410 1609,1411 1611,1411 1612,1410 1700,1410 1701,1411 1861,1411 1862,1410 1866,1410 1867,1409 1869,1409 1870,1408 1871,1408 1872,1407 1872,1406 1873,1405 1873,1403 1874,1402 1874,1400 1875,1399 1875,1391 1876,1390 1876,1383 1875,1382 1875,1237 1874,1236 1874,1179 1875,1178 1875,1139 1874,1138 1874,1125 1875,1124 1875,1121 1874,1120 1874,1062 1873,1061 1873,1056 1872,1055 1872,1053 1869,1050 1867,1050 1866,1049 1863,1049 1862,1048 1833,1048 1832,1047 1810,1047 1809,1048 1741,1048 1740,1047 1713,1047 1712,1046 1700,1046 1699,1047 1690,1047 1689,1046 1674,1046 1673,1047 1643,1047 1642,1046 1630,1046 1629,1047 1618,1047 1617,1046 1606,1046 1605,1047 1586,1047 1585,1046 1567,1046 1566,1047 1520,1047 1519,1046 1513,1046 1512,1047 1498,1047 1497,1046 1416,1046 1415,1047 1379,1047 1378,1046 1357,1046 1356,1045 1260,1045 1259,1046 1235,1046 1234,1045 1217,1045 1216,1046 1195,1046 1194,1045 1047,1045 1046,1044 1023,1044 1022,1045 996,1045 995,1044 986,1044 985,1045 977,1045 976,1044 936,1044 935,1045 929,1045 928,1044 912,1044 911,1045 888,1045 887,1044" fill="rgba(74,202,87,0.3)" stroke="rgb(74,202,87)" stroke-width="2" data-block-id="0003" data-name="b-0005" /><text x="1219" y="1226" text-anchor="middle" dominant-baseline="middle" class="block-label" fill="rgb(74,202,87)" stroke="white" stroke-width="3" paint-order="stroke">b-0005</text><polygon points="2640,2525 2639,2526 2634,2526 2633,2527 2629,2527 2628,2528 2623,2528 2622,2529 2614,2529 2613,2530 2603,2530 2602,2531 2593,2531 2592,2532 2581,2532 2580,2533 2568,2533 2567,2534 2539,2534 2538,2535 2499,2535 2498,2536 2467,2536 2466,2537 2370,2537 2369,2538 2101,2538 2100,2539 2066,2539 2065,2540 2058,2540 2057,2541 2055,2541 2052,2544 2052,2548 2051,2549 2051,2588 2050,2589 2050,2604 2051,2605 2051,2634 2050,2635 2050,2718 2051,2719 2051,2730 2050,2731 2050,2792 2049,2793 2049,2806 2050,2807 2050,2889 2051,2890 2051,2893 2052,2894 2052,2895 2053,2896 2053,2897 2054,2897 2055,2898 2056,2898 2057,2899 2062,2899 2063,2900 2234,2900 2235,2901 2252,2901 2253,2900 2276,2900 2277,2899 2308,2899 2309,2900 2313,2900 2314,2901 2320,2901 2321,2900 2343,2900 2344,2899 2377,2899 2378,2900 2388,2900 2389,2899 2414,2899 2415,2898 2419,2898 2420,2897 2443,2897 2444,2896 2445,2896 2446,2897 2455,2897 2456,2898 2463,2898 2464,2897 2521,2897 2522,2896 2554,2896 2555,2895 2564,2895 2565,2894 2571,2894 2572,2893 2578,2893 2579,2892 2587,2892 2588,2891 2595,2891 2596,2890 2602,2890 2603,2889 2608,2889 2609,2888 2614,2888 2615,2887 2619,2887 2620,2886 2624,2886 2625,2885 2627,2885 2628,2884 2631,2884 2632,2883 2636,2883 2637,2882 2640,2882 2641,2881 2644,2881 2645,2880 2648,2880 2649,2879 2663,2879 2664,2880 2670,2880 2671,2881 2675,2881 2676,2882 2680,2882 2681,2883 2686,2883 2687,2884 2694,2884 2695,2885 2705,2885 2706,2886 2717,2886 2718,2887 2725,2887 2726,2888 2736,2888 2737,2889 2744,2889 2745,2890 2750,2890 2751,2891 2769,2891 2770,2892 2792,2892 2793,2893 2819,2893 2820,2894 2833,2894 2834,2895 2925,2895 2926,2896 2937,2896 2938,2895 2952,2895 2953,2894 2986,2894 2987,2895 3000,2895 3001,2894 3012,2894 3013,2893 3024,2893 3025,2894 3075,2894 3076,2893 3109,2893 3110,2894 3120,2894 3121,2895 3124,2895 3125,2894 3137,2894 3138,2893 3162,2893 3163,2892 3185,2892 3186,2891 3188,2891 3189,2890 3190,2890 3192,2888 3192,2886 3193,2885 3193,2884 3194,2883 3194,2881 3195,2880 3195,2868 3194,2867 3194,2864 3195,2863 3195,2783 3194,2782 3194,2775 3193,2774 3193,2764 3194,2763 3194,2675 3193,2674 3193,2662 3194,2661 3194,2639 3193,2638 3193,2631 3192,2630 3192,2606 3193,2605 3193,2587 3192,2586 3192,2565 3193,2564 3193,2560 3194,2559 3194,2552 3193,2551 3193,2544 3192,2543 3192,2540 3191,2539 3191,2537 3189,2535 3188,2535 3187,2534 3185,2534 3184,2533 3163,2533 3162,2534 3136,2534 3135,2533 3113,2533 3112,2534 3076,2534 3075,2533 3056,2533 3055,2534 3024,2534 3023,2535 2984,2535 2983,2536 2979,2536 2978,2535 2940,2535 2939,2536 2905,2536 2904,2535 2833,2535 2832,2534 2819,2534 2818,2535 2813,2535 2812,2534 2802,2534 2801,2533 2788,2533 2787,2532 2753,2532 2752,2531 2745,2531 2744,2530 2722,2530 2721,2529 2716,2529 2715,2528 2710,2528 2709,2527 2674,2527 2673,2526 2662,2526 2661,2525" fill="rgba(116,99,103,0.3)" stroke="rgb(116,99,103)" stroke-width="2" data-block-id="0004" data-name="b-0006" /><text x="2705" y="2746" text-anchor="middle" dominant-baseline="middle" class="block-label" fill="rgb(116,99,103)" stroke="white" stroke-width="3" paint-order="stroke">b-0006</text><polygon points="3068,2061 3067,2062 3056,2062 3055,2063 3011,2063 3010,2062 2998,2062 2997,2063 2877,2063 2876,2062 2873,2062 2872,2063 2853,2063 2852,2062 2774,2062 2773,2063 2763,2063 2762,2062 2746,2062 2745,2063 2708,2063 2707,2062 2685,2062 2684,2063 2667,2063 2666,2062 2651,2062 2650,2063 2629,2063 2628,2062 2619,2062 2618,2063 2582,2063 2581,2064 2498,2064 2497,2065 2486,2065 2485,2064 2480,2064 2479,2065 2453,2065 2452,2064 2445,2064 2444,2065 2367,2065 2366,2064 2251,2064 2250,2065 2242,2065 2241,2064 2204,2064 2203,2065 2062,2065 2061,2066 2059,2066 2058,2067 2056,2067 2055,2068 2055,2069 2054,2070 2054,2076 2053,2077 2053,2146 2054,2147 2054,2155 2053,2156 2053,2196 2054,2197 2054,2200 2053,2201 2053,2208 2052,2209 2052,2221 2053,2222 2053,2229 2052,2230 2052,2237 2053,2238 2053,2276 2052,2277 2052,2290 2053,2291 2053,2298 2052,2299 2052,2329 2051,2330 2051,2333 2052,2334 2052,2347 2051,2348 2051,2387 2052,2388 2052,2392 2051,2393 2051,2411 2052,2412 2052,2418 2053,2419 2053,2421 2054,2422 2054,2423 2055,2424 2055,2425 2057,2425 2058,2426 2059,2426 2060,2427 2065,2427 2066,2428 2099,2428 2100,2427 2120,2427 2121,2428 2178,2428 2179,2427 2255,2427 2256,2426 2296,2426 2297,2427 2425,2427 2426,2426 2460,2426 2461,2425 2479,2425 2480,2424 2491,2424 2492,2423 2512,2423 2513,2424 2523,2424 2524,2423 2539,2423 2540,2424 2565,2424 2566,2423 2579,2423 2580,2422 2587,2422 2588,2421 2599,2421 2600,2420 2609,2420 2610,2419 2618,2419 2619,2418 2628,2418 2629,2417 2638,2417 2639,2416 2644,2416 2645,2415 2666,2415 2667,2416 2689,2416 2690,2417 2705,2417 2706,2418 2721,2418 2722,2419 2744,2419 2745,2420 2771,2420 2772,2421 2790,2421 2791,2422 2820,2422 2821,2423 2832,2423 2833,2422 2839,2422 2840,2423 2846,2423 2847,2424 2882,2424 2883,2423 2966,2423 2967,2424 2999,2424 3000,2423 3009,2423 3010,2422 3013,2422 3014,2421 3034,2421 3035,2422 3046,2422 3047,2421 3080,2421 3081,2420 3102,2420 3103,2421 3106,2421 3107,2422 3121,2422 3122,2423 3123,2423 3124,2422 3160,2422 3161,2421 3184,2421 3185,2420 3186,2420 3187,2419 3188,2419 3192,2415 3192,2414 3193,2413 3193,2409 3194,2408 3194,2391 3193,2390 3193,2343 3192,2342 3192,2341 3193,2340 3193,2324 3194,2323 3194,2314 3193,2313 3193,2256 3194,2255 3194,2217 3193,2216 3193,2162 3194,2161 3194,2145 3193,2144 3193,2137 3194,2136 3194,2119 3193,2118 3193,2113 3194,2112 3194,2102 3193,2101 3193,2087 3194,2086 3194,2078 3193,2077 3193,2070 3192,2069 3192,2067 3188,2063 3187,2063 3186,2062 3185,2062 3184,2061 3179,2061 3178,2062 3084,2062 3083,2061" fill="rgba(151,130,149,0.3)" stroke="rgb(151,130,149)" stroke-width="2" data-block-id="0005" data-name="b-0007" /><text x="2647" y="2270" text-anchor="middle" dominant-baseline="middle" class="block-label" fill="rgb(151,130,149)" stroke="white" stroke-width="3" paint-order="stroke">b-0007</text><polygon points="745,1519 744,1520 741,1520 740,1521 739,1521 738,1522 737,1522 736,1523 736,1562 737,1563 737,1586 738,1587 738,1617 737,1618 737,1656 736,1657 736,1663 735,1664 735,1687 736,1688 736,1701 737,1702 737,1764 736,1765 736,1829 735,1830 735,1840 734,1841 734,1851 733,1852 733,1862 732,1863 732,1866 733,1867 733,1869 734,1870 734,1871 736,1873 736,1874 741,1879 757,1879 758,1880 764,1880 765,1881 842,1881 843,1882 881,1882 882,1881 892,1881 893,1882 901,1882 902,1881 915,1881 916,1882 938,1882 939,1883 963,1883 964,1882 996,1882 997,1883 1010,1883 1011,1882 1027,1882 1028,1881 1048,1881 1049,1882 1060,1882 1061,1881 1086,1881 1087,1882 1184,1882 1185,1883 1209,1883 1210,1882 1257,1882 1258,1881 1377,1881 1378,1882 1407,1882 1408,1881 1425,1881 1426,1882 1564,1882 1565,1883 1573,1883 1574,1884 1581,1884 1582,1883 1595,1883 1596,1882 1632,1882 1633,1881 1636,1881 1637,1882 1751,1882 1752,1881 1753,1882 1847,1882 1848,1881 1861,1881 1862,1880 1864,1880 1865,1879 1866,1879 1868,1877 1869,1877 1869,1876 1872,1873 1872,1872 1873,1871 1873,1869 1874,1868 1874,1808 1875,1807 1875,1784 1874,1783 1874,1716 1875,1715 1875,1711 1874,1710 1874,1703 1873,1702 1873,1698 1874,1697 1874,1661 1875,1660 1875,1637 1874,1636 1874,1535 1873,1534 1873,1532 1870,1529 1869,1529 1868,1528 1867,1528 1866,1527 1865,1527 1864,1526 1862,1526 1861,1525 1842,1525 1841,1524 1830,1524 1829,1525 1822,1525 1821,1524 1757,1524 1756,1525 1543,1525 1542,1526 1536,1526 1535,1525 1479,1525 1478,1524 1477,1525 1469,1525 1468,1524 1452,1524 1451,1523 1297,1523 1296,1522 1276,1522 1275,1523 1268,1523 1267,1524 1265,1524 1264,1523 1256,1523 1255,1522 1247,1522 1246,1523 1139,1523 1138,1522 1132,1522 1131,1523 1089,1523 1088,1522 1082,1522 1081,1523 1075,1523 1074,1522 1058,1522 1057,1523 1047,1523 1046,1522 1037,1522 1036,1523 1023,1523 1022,1522 1002,1522 1001,1521 972,1521 971,1520 966,1520 965,1521 921,1521 920,1520 917,1520 916,1521 879,1521 878,1520 869,1520 868,1521 858,1521 857,1520 828,1520 827,1519 820,1519 819,1520 787,1520 786,1519" fill="rgba(52,1,87,0.3)" stroke="rgb(52,1,87)" stroke-width="2" data-block-id="0006" data-name="b-0008" /><text x="1247" y="1695" text-anchor="middle" dominant-baseline="middle" class="block-label" fill="rgb(52,1,87)" stroke="white" stroke-width="3" paint-order="stroke">b-0008</text><polygon points="763,566 762,567 753,567 752,568 751,568 748,571 748,572 747,573 747,576 746,577 746,633 745,634 745,637 746,638 746,770 745,771 745,785 746,786 746,794 745,795 745,800 744,801 744,804 745,805 745,810 746,811 746,827 745,828 745,845 744,846 744,853 745,854 745,918 746,919 746,921 748,923 749,923 750,924 752,924 753,925 756,925 757,926 760,926 761,927 767,927 768,928 769,927 812,927 813,928 817,928 818,927 846,927 847,928 868,928 869,929 876,929 877,928 913,928 914,927 927,927 928,926 932,926 933,927 935,927 936,928 940,928 941,929 961,929 962,928 1048,928 1049,929 1059,929 1060,928 1094,928 1095,929 1104,929 1105,928 1129,928 1130,929 1159,929 1160,928 1190,928 1191,929 1200,929 1201,928 1214,928 1215,929 1220,929 1221,928 1233,928 1234,929 1289,929 1290,930 1322,930 1323,929 1326,929 1327,930 1354,930 1355,929 1362,929 1363,930 1364,930 1365,931 1368,931 1369,932 1385,932 1386,933 1394,933 1395,934 1403,934 1404,935 1419,935 1420,934 1422,934 1423,933 1425,933 1426,932 1441,932 1442,931 1501,931 1502,932 1559,932 1560,933 1568,933 1569,932 1631,932 1632,933 1634,933 1635,932 1662,932 1663,933 1677,933 1678,932 1684,932 1685,933 1720,933 1721,932 1731,932 1732,933 1753,933 1754,934 1797,934 1798,935 1802,935 1803,934 1851,934 1852,933 1862,933 1863,932 1865,932 1866,931 1868,931 1873,926 1873,925 1874,924 1874,921 1875,920 1875,904 1874,903 1874,802 1873,801 1874,800 1874,759 1875,758 1875,717 1876,716 1876,652 1877,651 1877,596 1876,595 1876,586 1875,585 1875,583 1874,582 1874,580 1871,577 1870,577 1869,576 1866,576 1865,575 1859,575 1858,574 1852,574 1851,573 1840,573 1839,572 1834,572 1833,573 1796,573 1795,572 1771,572 1770,571 1669,571 1668,570 1517,570 1516,569 1514,569 1513,570 1495,570 1494,569 1488,569 1487,570 1383,570 1382,569 1342,569 1341,570 1336,570 1335,569 1318,569 1317,570 1297,570 1296,569 1221,569 1220,570 1215,570 1214,569 1185,569 1184,568 1181,568 1180,569 1064,569 1063,568 1060,568 1059,569 1030,569 1029,570 1028,569 970,569 969,568 945,568 944,569 937,569 936,570 929,570 928,569 922,569 921,568 916,568 915,569 874,569 873,568 830,568 829,567 780,567 779,566" fill="rgba(129,191,187,0.3)" stroke="rgb(129,191,187)" stroke-width="2" data-block-id="0007" data-name="b-0010" /><text x="1271" y="781" text-anchor="middle" dominant-baseline="middle" class="block-label" fill="rgb(129,191,187)" stroke="white" stroke-width="3" paint-order="stroke">b-0010</text><polygon points="2147,572 2146,573 2142,573 2141,574 2103,574 2102,575 2080,575 2079,574 2073,574 2072,575 2065,575 2064,576 2063,576 2061,578 2061,579 2060,580 2060,581 2059,582 2059,583 2058,584 2058,613 2057,614 2057,643 2058,644 2058,649 2057,650 2057,694 2056,695 2056,723 2057,724 2057,763 2058,764 2058,912 2057,913 2057,922 2058,923 2058,926 2059,927 2059,928 2060,929 2060,930 2062,932 2063,932 2064,933 2067,933 2068,934 2085,934 2086,935 2134,935 2135,936 2138,936 2139,935 2156,935 2157,936 2181,936 2182,935 2185,935 2186,936 2200,936 2201,937 2217,937 2218,936 2228,936 2229,937 2230,937 2231,936 2236,936 2237,935 2242,935 2243,934 2249,934 2250,935 2283,935 2284,936 2306,936 2307,935 2323,935 2324,934 2348,934 2349,935 2369,935 2370,934 2379,934 2380,935 2416,935 2417,934 2427,934 2428,935 2482,935 2483,936 2508,936 2509,937 2526,937 2527,936 2528,936 2529,937 2533,937 2534,938 2548,938 2549,939 2571,939 2572,940 2597,940 2598,941 2609,941 2610,942 2619,942 2620,943 2634,943 2635,944 2695,944 2696,943 2711,943 2712,942 2725,942 2726,941 2769,941 2770,940 2813,940 2814,939 2905,939 2906,938 2922,938 2923,939 2939,939 2940,938 2977,938 2978,939 2983,939 2984,938 2999,938 3000,939 3010,939 3011,938 3024,938 3025,939 3038,939 3039,938 3049,938 3050,937 3056,937 3057,938 3092,938 3093,939 3157,939 3158,938 3180,938 3181,937 3182,937 3183,936 3184,936 3186,934 3186,932 3187,931 3187,927 3188,926 3188,866 3187,865 3187,852 3186,851 3186,846 3187,845 3187,843 3188,842 3188,839 3189,838 3189,814 3188,813 3188,794 3187,793 3187,786 3188,785 3188,774 3187,773 3187,764 3188,763 3188,759 3189,758 3189,756 3190,755 3190,744 3189,743 3189,740 3190,739 3190,726 3189,725 3189,721 3188,720 3188,677 3189,676 3189,607 3188,606 3188,589 3187,588 3187,585 3186,584 3186,583 3184,581 3183,581 3182,580 3173,580 3172,579 3135,579 3134,578 3107,578 3106,579 3102,579 3101,580 3084,580 3083,579 3069,579 3068,578 3062,578 3061,579 3059,579 3058,580 3056,580 3055,581 3050,581 3049,580 3048,580 3047,579 3045,579 3044,578 3034,578 3033,579 3006,579 3005,580 3003,580 3002,579 2958,579 2957,580 2954,580 2953,579 2905,579 2904,580 2870,580 2869,581 2844,581 2843,582 2829,582 2828,581 2827,582 2818,582 2817,583 2771,583 2770,584 2751,584 2750,585 2739,585 2738,586 2726,586 2725,587 2714,587 2713,588 2705,588 2704,589 2701,589 2700,590 2699,590 2698,591 2688,591 2687,592 2682,592 2681,593 2680,593 2679,594 2678,594 2677,595 2676,595 2675,596 2674,596 2673,597 2672,597 2671,598 2663,598 2662,599 2659,599 2658,598 2652,598 2651,597 2645,597 2644,596 2637,596 2636,595 2633,595 2632,594 2629,594 2628,593 2625,593 2624,592 2622,592 2621,591 2617,591 2616,590 2613,590 2612,589 2609,589 2608,588 2605,588 2604,587 2602,587 2601,586 2594,586 2593,585 2586,585 2585,584 2577,584 2576,583 2563,583 2562,582 2555,582 2554,581 2544,581 2543,580 2539,580 2538,581 2533,581 2532,582 2531,582 2530,583 2529,583 2528,584 2525,584 2524,583 2509,583 2508,584 2496,584 2495,585 2490,585 2489,584 2476,584 2475,585 2466,585 2465,584 2459,584 2458,583 2456,583 2455,584 2439,584 2438,583 2430,583 2429,584 2425,584 2424,585 2415,585 2414,584 2407,584 2406,585 2384,585 2383,586 2378,586 2377,587 2374,587 2373,586 2370,586 2369,585 2367,585 2366,584 2362,584 2361,583 2360,584 2356,584 2355,585 2343,585 2342,584 2339,584 2338,585 2336,585 2335,586 2333,586 2330,589 2330,597 2328,599 2304,599 2302,597 2302,595 2301,594 2301,592 2300,591 2300,589 2297,586 2295,586 2294,585 2293,585 2292,584 2291,584 2288,581 2287,581 2285,579 2284,579 2283,578 2282,578 2281,577 2278,577 2277,576 2274,576 2273,575 2267,575 2266,574 2264,574 2263,575 2253,575 2252,574 2213,574 2212,575 2200,575 2199,574 2192,574 2191,575 2183,575 2182,574 2172,574 2171,573 2156,573 2155,572" fill="rgba(20,160,203,0.3)" stroke="rgb(20,160,203)" stroke-width="2" data-block-id="0008" data-name="b-0011" /><text x="2602" y="707" text-anchor="middle" dominant-baseline="middle" class="block-label" fill="rgb(20,160,203)" stroke="white" stroke-width="3" paint-order="stroke">b-0011</text><polygon points="2918,1522 2917,1523 2915,1523 2914,1524 2909,1524 2908,1525 2907,1524 2902,1524 2901,1523 2896,1523 2895,1524 2894,1524 2893,1525 2891,1525 2890,1526 2881,1526 2880,1525 2878,1525 2877,1524 2870,1524 2869,1525 2867,1525 2866,1526 2856,1526 2855,1527 2847,1527 2846,1528 2844,1528 2843,1529 2841,1529 2840,1530 2837,1530 2836,1529 2834,1529 2833,1528 2830,1528 2829,1527 2821,1527 2820,1528 2807,1528 2806,1527 2800,1527 2799,1528 2766,1528 2765,1527 2762,1527 2761,1526 2758,1526 2757,1525 2753,1525 2752,1526 2749,1526 2748,1527 2734,1527 2733,1526 2723,1526 2722,1527 2720,1527 2719,1526 2710,1526 2709,1525 2688,1525 2687,1524 2676,1524 2675,1525 2658,1525 2657,1526 2655,1526 2654,1527 2652,1527 2651,1528 2623,1528 2622,1527 2617,1527 2616,1526 2609,1526 2608,1527 2604,1527 2603,1528 2587,1528 2586,1527 2574,1527 2573,1526 2567,1526 2566,1525 2562,1525 2561,1526 2552,1526 2551,1527 2550,1526 2540,1526 2539,1525 2528,1525 2527,1524 2514,1524 2513,1525 2510,1525 2509,1526 2506,1526 2505,1527 2503,1527 2502,1526 2496,1526 2495,1525 2491,1525 2490,1526 2468,1526 2467,1527 2465,1527 2464,1528 2462,1528 2461,1529 2449,1529 2448,1528 2439,1528 2438,1527 2424,1527 2423,1526 2421,1526 2420,1527 2412,1527 2411,1528 2408,1528 2407,1527 2390,1527 2389,1526 2375,1526 2374,1527 2366,1527 2365,1528 2360,1528 2359,1527 2332,1527 2331,1526 2325,1526 2324,1527 2320,1527 2319,1528 2292,1528 2291,1527 2282,1527 2281,1526 2274,1526 2273,1527 2263,1527 2262,1526 2256,1526 2255,1525 2250,1525 2249,1524 2232,1524 2231,1525 2229,1525 2228,1526 2223,1526 2222,1527 2214,1527 2213,1526 2163,1526 2162,1525 2158,1525 2157,1526 2132,1526 2131,1527 2119,1527 2118,1526 2095,1526 2094,1525 2087,1525 2086,1526 2083,1526 2082,1527 2064,1527 2061,1530 2061,1531 2060,1532 2060,1533 2059,1534 2059,1537 2058,1538 2058,1545 2057,1546 2057,1658 2056,1659 2056,1691 2057,1692 2057,1706 2056,1707 2056,1722 2057,1723 2057,1726 2056,1727 2056,1744 2057,1745 2057,1752 2056,1753 2056,1769 2057,1770 2057,1774 2056,1775 2056,1786 2057,1787 2057,1791 2058,1792 2058,1798 2057,1799 2057,1802 2056,1803 2056,1806 2055,1807 2055,1813 2056,1814 2056,1824 2055,1825 2055,1836 2056,1837 2056,1850 2055,1851 2055,1867 2056,1868 2056,1870 2057,1871 2057,1872 2058,1873 2058,1874 2059,1875 2059,1876 2061,1878 2062,1878 2063,1879 2064,1879 2065,1880 2084,1880 2085,1881 2099,1881 2100,1880 2103,1880 2104,1881 2146,1881 2147,1880 2150,1880 2151,1881 2223,1881 2224,1880 2227,1880 2228,1879 2229,1879 2230,1878 2235,1878 2236,1879 2239,1879 2240,1880 2243,1880 2244,1881 2247,1881 2248,1882 2253,1882 2254,1883 2258,1883 2259,1882 2281,1882 2282,1881 2288,1881 2289,1880 2296,1880 2297,1881 2311,1881 2312,1880 2317,1880 2318,1881 2342,1881 2343,1882 2351,1882 2352,1883 2358,1883 2359,1882 2361,1882 2362,1883 2369,1883 2370,1884 2382,1884 2383,1883 2387,1883 2388,1882 2391,1882 2392,1881 2400,1881 2401,1880 2413,1880 2414,1881 2465,1881 2466,1882 2487,1882 2488,1881 2544,1881 2545,1880 2562,1880 2563,1881 2567,1881 2568,1880 2585,1880 2586,1879 2630,1879 2631,1878 2641,1878 2642,1877 2652,1877 2653,1878 2662,1878 2663,1879 2699,1879 2700,1878 2750,1878 2751,1879 2763,1879 2764,1880 2776,1880 2777,1879 2792,1879 2793,1880 2821,1880 2822,1881 2835,1881 2836,1880 2837,1880 2838,1881 2844,1881 2845,1882 2848,1882 2849,1883 2854,1883 2855,1884 2862,1884 2863,1885 2864,1885 2865,1886 2866,1886 2868,1888 2869,1888 2871,1890 2874,1890 2875,1891 2876,1890 2877,1890 2878,1889 2880,1889 2882,1887 2883,1887 2884,1886 2886,1886 2887,1885 2888,1885 2889,1884 2891,1884 2892,1883 2895,1883 2896,1882 2924,1882 2925,1881 2929,1881 2930,1880 2942,1880 2943,1881 2950,1881 2951,1880 2958,1880 2959,1881 2969,1881 2970,1882 2971,1881 2994,1881 2995,1880 2998,1880 2999,1879 3001,1879 3002,1878 3007,1878 3008,1879 3012,1879 3013,1880 3022,1880 3023,1879 3059,1879 3060,1880 3067,1880 3068,1879 3084,1879 3085,1880 3115,1880 3116,1879 3162,1879 3163,1878 3172,1878 3173,1877 3179,1877 3180,1876 3183,1876 3184,1875 3185,1875 3187,1873 3188,1873 3191,1870 3191,1869 3192,1868 3192,1867 3193,1866 3193,1852 3192,1851 3192,1843 3191,1842 3191,1833 3190,1832 3190,1828 3189,1827 3189,1824 3188,1823 3188,1794 3189,1793 3189,1791 3190,1790 3190,1788 3191,1787 3191,1785 3192,1784 3192,1778 3191,1777 3191,1769 3192,1768 3192,1765 3193,1764 3193,1759 3192,1758 3192,1757 3190,1755 3190,1753 3189,1752 3189,1751 3188,1750 3188,1747 3189,1746 3189,1743 3190,1742 3190,1733 3189,1732 3189,1728 3188,1727 3188,1710 3189,1709 3189,1703 3190,1702 3190,1698 3191,1697 3191,1694 3192,1693 3192,1691 3193,1690 3193,1684 3192,1683 3192,1670 3193,1669 3193,1663 3192,1662 3192,1659 3191,1658 3191,1649 3190,1648 3190,1636 3189,1635 3189,1615 3190,1614 3190,1589 3189,1588 3189,1584 3188,1583 3188,1573 3187,1572 3187,1570 3188,1569 3188,1564 3189,1563 3189,1533 3188,1532 3188,1531 3187,1530 3187,1529 3184,1526 3183,1526 3182,1525 3180,1525 3179,1526 3166,1526 3165,1525 3162,1525 3161,1524 3156,1524 3155,1525 3150,1525 3149,1526 3141,1526 3140,1525 3120,1525 3119,1524 3117,1524 3116,1523 3114,1523 3113,1522 3109,1522 3108,1523 3106,1523 3105,1524 3103,1524 3102,1525 3100,1525 3099,1526 3098,1526 3097,1525 3091,1525 3090,1524 3072,1524 3071,1523 3067,1523 3066,1522 3061,1522 3060,1523 3055,1523 3054,1524 3040,1524 3039,1525 3036,1525 3035,1526 3032,1526 3031,1527 3024,1527 3023,1526 3019,1526 3018,1525 3015,1525 3014,1526 3010,1526 3009,1527 2986,1527 2985,1528 2980,1528 2979,1527 2977,1527 2976,1526 2975,1526 2974,1525 2973,1525 2972,1524 2971,1524 2970,1523 2966,1523 2965,1524 2963,1524 2962,1525 2959,1525 2958,1526 2953,1526 2952,1525 2930,1525 2929,1524 2927,1524 2926,1523 2924,1523 2923,1522" fill="rgba(57,21,252,0.3)" stroke="rgb(57,21,252)" stroke-width="2" data-block-id="0009" data-name="b-0012" /><text x="2702" y="1684" text-anchor="middle" dominant-baseline="middle" class="block-label" fill="rgb(57,21,252)" stroke="white" stroke-width="3" paint-order="stroke">b-0012</text><polygon points="3535,1052 3534,1053 3475,1053 3474,1054 3450,1054 3449,1053 3440,1053 3439,1054 3404,1054 3403,1053 3395,1053 3394,1054 3389,1054 3388,1055 3384,1055 3383,1056 3382,1056 3381,1057 3379,1057 3377,1059 3376,1059 3374,1061 3374,1062 3373,1063 3373,1122 3374,1123 3374,1133 3373,1134 3373,1147 3372,1148 3372,1177 3371,1178 3371,1245 3370,1246 3370,1261 3371,1262 3371,1318 3370,1319 3370,1367 3371,1368 3371,1387 3370,1388 3370,1397 3371,1398 3371,1403 3372,1404 3372,1406 3373,1407 3373,1408 3374,1409 3377,1409 3378,1410 3384,1410 3385,1411 3395,1411 3396,1412 3429,1412 3430,1413 3434,1413 3435,1412 3475,1412 3476,1413 3486,1413 3487,1412 3522,1412 3523,1413 3527,1413 3528,1412 3534,1412 3535,1411 3549,1411 3550,1410 3571,1410 3572,1411 3579,1411 3580,1410 3589,1410 3590,1411 3689,1411 3690,1412 3698,1412 3699,1411 3712,1411 3713,1412 3725,1412 3726,1411 3748,1411 3749,1412 3756,1412 3757,1411 3773,1411 3774,1412 3798,1412 3799,1411 3807,1411 3808,1412 3814,1412 3815,1411 3879,1411 3880,1412 3919,1412 3920,1411 3962,1411 3963,1410 3982,1410 3983,1409 3984,1409 3985,1408 3986,1408 3986,1407 3987,1406 3987,1404 3988,1403 3988,1380 3989,1379 3989,1363 3988,1362 3988,1305 3987,1304 3987,1269 3986,1268 3986,1260 3985,1259 3985,1252 3984,1251 3984,1221 3983,1220 3983,1208 3982,1207 3982,1193 3983,1192 3983,1188 3984,1187 3984,1185 3985,1184 3985,1174 3984,1173 3984,1164 3983,1163 3983,1156 3984,1155 3984,1153 3985,1152 3985,1150 3986,1149 3986,1146 3987,1145 3987,1132 3986,1131 3986,1127 3985,1126 3985,1121 3986,1120 3986,1118 3987,1117 3987,1116 3988,1115 3988,1114 3989,1113 3989,1098 3988,1097 3988,1096 3987,1095 3987,1094 3986,1093 3986,1092 3985,1091 3985,1090 3984,1089 3984,1076 3985,1075 3985,1072 3986,1071 3986,1070 3987,1069 3987,1068 3988,1067 3988,1065 3989,1064 3988,1063 3988,1061 3987,1061 3982,1056 3981,1056 3980,1055 3974,1055 3973,1056 3964,1056 3963,1055 3960,1055 3959,1054 3891,1054 3890,1055 3887,1055 3886,1056 3882,1056 3881,1055 3879,1055 3878,1054 3876,1054 3875,1053 3867,1053 3866,1052 3844,1052 3843,1053 3756,1053 3755,1052 3747,1052 3746,1053 3741,1053 3740,1052 3720,1052 3719,1053 3576,1053 3575,1054 3561,1054 3560,1053 3553,1053 3552,1052" fill="rgba(169,219,187,0.3)" stroke="rgb(169,219,187)" stroke-width="2" data-block-id="0010" data-name="b-0015" /><text x="3735" y="1217" text-anchor="middle" dominant-baseline="middle" class="block-label" fill="rgb(169,219,187)" stroke="white" stroke-width="3" paint-order="stroke">b-0015</text><polygon points="3780,2055 3779,2056 3761,2056 3760,2057 3751,2057 3750,2058 3743,2058 3742,2059 3736,2059 3735,2060 3718,2060 3717,2061 3699,2061 3698,2062 3681,2062 3680,2061 3672,2061 3671,2060 3657,2060 3656,2059 3650,2059 3649,2060 3648,2060 3647,2061 3646,2061 3644,2063 3643,2063 3641,2065 3640,2065 3639,2066 3638,2066 3637,2067 3636,2067 3635,2068 3634,2068 3633,2069 3628,2069 3627,2068 3626,2068 3625,2067 3624,2067 3623,2066 3622,2066 3621,2065 3620,2065 3619,2064 3617,2064 3616,2063 3615,2063 3614,2062 3611,2062 3610,2061 3604,2061 3603,2062 3587,2062 3586,2061 3581,2061 3580,2060 3576,2060 3575,2059 3568,2059 3567,2060 3561,2060 3560,2061 3541,2061 3540,2060 3500,2060 3499,2059 3474,2059 3473,2060 3465,2060 3464,2061 3461,2061 3460,2062 3457,2062 3456,2063 3449,2063 3448,2062 3433,2062 3432,2061 3419,2061 3418,2060 3392,2060 3391,2061 3387,2061 3386,2062 3383,2062 3382,2063 3380,2063 3379,2064 3378,2064 3374,2068 3374,2069 3373,2070 3373,2074 3372,2075 3372,2076 3373,2077 3373,2082 3374,2083 3374,2088 3375,2089 3375,2096 3374,2097 3374,2101 3373,2102 3373,2105 3372,2106 3372,2109 3371,2110 3371,2146 3370,2147 3370,2159 3369,2160 3369,2164 3368,2165 3368,2167 3367,2168 3367,2186 3368,2187 3368,2190 3367,2191 3367,2203 3366,2204 3366,2227 3365,2228 3365,2249 3366,2250 3366,2257 3367,2258 3367,2272 3368,2273 3368,2288 3369,2289 3369,2294 3370,2295 3370,2298 3371,2299 3371,2301 3372,2302 3372,2304 3373,2305 3373,2307 3374,2308 3374,2312 3375,2313 3375,2318 3376,2319 3376,2330 3375,2331 3375,2335 3374,2336 3374,2340 3373,2341 3373,2407 3374,2408 3374,2412 3375,2413 3375,2415 3376,2416 3376,2417 3377,2418 3377,2419 3379,2421 3380,2421 3381,2422 3383,2422 3384,2423 3386,2423 3387,2424 3390,2424 3391,2425 3398,2425 3399,2426 3408,2426 3409,2425 3437,2425 3438,2424 3465,2424 3466,2423 3476,2423 3477,2422 3490,2422 3491,2421 3531,2421 3532,2420 3545,2420 3546,2419 3558,2419 3559,2418 3569,2418 3570,2417 3578,2417 3579,2416 3588,2416 3589,2415 3599,2415 3600,2414 3608,2414 3609,2413 3613,2413 3614,2414 3622,2414 3623,2415 3714,2415 3715,2416 3744,2416 3745,2415 3762,2415 3763,2414 3779,2414 3780,2415 3789,2415 3790,2414 3817,2414 3818,2415 3841,2415 3842,2414 3848,2414 3849,2413 3852,2413 3853,2412 3856,2412 3857,2411 3859,2411 3860,2410 3863,2410 3864,2409 3869,2409 3870,2410 3880,2410 3881,2411 3886,2411 3887,2410 3899,2410 3900,2409 3913,2409 3914,2408 3925,2408 3926,2407 3936,2407 3937,2406 3941,2406 3942,2405 3943,2405 3944,2404 3945,2404 3948,2401 3948,2400 3949,2399 3949,2396 3950,2395 3950,2393 3951,2392 3951,2389 3952,2388 3952,2384 3953,2383 3953,2378 3954,2377 3954,2368 3955,2367 3955,2355 3956,2354 3956,2336 3955,2335 3955,2328 3956,2327 3956,2324 3958,2322 3958,2321 3959,2320 3960,2320 3963,2317 3964,2317 3965,2316 3967,2316 3968,2315 3971,2315 3972,2314 3975,2314 3976,2313 3980,2313 3981,2312 3983,2312 3984,2311 3986,2311 3987,2310 3988,2310 3990,2308 3991,2308 3993,2306 3993,2305 3994,2304 3994,2303 3995,2302 3995,2298 3996,2297 3996,2289 3997,2288 3997,2261 3996,2260 3996,2195 3995,2194 3995,2181 3996,2180 3996,2128 3995,2127 3995,2114 3994,2113 3994,2083 3993,2082 3993,2075 3992,2074 3992,2072 3991,2071 3991,2070 3986,2065 3985,2065 3984,2064 3983,2064 3982,2063 3979,2063 3978,2062 3964,2062 3963,2061 3957,2061 3956,2060 3951,2060 3950,2059 3941,2059 3940,2058 3939,2059 3930,2059 3929,2060 3909,2060 3908,2061 3900,2061 3899,2060 3854,2060 3853,2061 3842,2061 3841,2060 3840,2060 3839,2059 3837,2059 3836,2058 3833,2058 3832,2057 3829,2057 3828,2056 3819,2056 3818,2055" fill="rgba(207,14,189,0.3)" stroke="rgb(207,14,189)" stroke-width="2" data-block-id="0011" data-name="b-0016" /><text x="3674" y="2225" text-anchor="middle" dominant-baseline="middle" class="block-label" fill="rgb(207,14,189)" stroke="white" stroke-width="3" paint-order="stroke">b-0016</text><polygon points="3442,578 3441,579 3436,579 3435,580 3388,580 3387,581 3377,581 3376,582 3374,582 3372,584 3372,585 3371,586 3371,588 3370,589 3370,637 3371,638 3371,715 3372,716 3372,722 3371,723 3371,737 3370,738 3370,793 3371,794 3371,842 3370,843 3370,852 3371,853 3371,869 3370,870 3370,880 3371,881 3371,885 3370,886 3370,919 3369,920 3369,927 3370,928 3370,933 3371,934 3371,935 3374,938 3377,938 3378,939 3389,939 3390,940 3435,940 3436,941 3447,941 3448,940 3453,940 3454,939 3462,939 3463,940 3476,940 3477,939 3509,939 3510,938 3536,938 3537,937 3561,937 3562,936 3573,936 3574,937 3585,937 3586,938 3589,938 3590,937 3600,937 3601,938 3604,938 3605,939 3607,939 3608,940 3610,940 3611,941 3618,941 3619,940 3622,940 3623,941 3630,941 3631,942 3636,942 3637,941 3642,941 3643,940 3650,940 3651,941 3657,941 3658,942 3677,942 3678,941 3720,941 3721,940 3780,940 3781,939 3785,939 3786,938 3792,938 3793,939 3797,939 3798,940 3820,940 3821,939 3884,939 3885,938 3904,938 3905,937 3909,937 3910,938 3924,938 3925,937 3930,937 3931,936 3933,936 3936,933 3936,932 3937,931 3937,922 3938,921 3938,920 3939,919 3939,918 3940,917 3941,917 3943,915 3944,915 3945,914 3946,914 3947,913 3948,913 3949,912 3950,912 3952,910 3952,909 3953,908 3953,907 3954,906 3954,902 3955,901 3955,880 3956,879 3956,872 3957,871 3956,870 3956,854 3955,853 3955,846 3956,845 3956,838 3957,837 3957,833 3958,832 3958,829 3959,828 3959,818 3958,817 3958,810 3959,809 3959,783 3960,782 3960,769 3959,768 3959,765 3960,764 3960,757 3961,756 3961,744 3960,743 3960,734 3959,733 3959,727 3960,726 3960,724 3961,723 3961,720 3962,719 3962,717 3963,716 3963,715 3964,714 3964,711 3965,710 3965,703 3964,702 3964,699 3963,698 3963,696 3962,695 3962,690 3963,689 3963,665 3964,664 3964,657 3963,656 3963,654 3962,653 3962,651 3961,650 3961,641 3962,640 3962,631 3961,630 3961,626 3960,625 3960,621 3961,620 3961,616 3962,615 3962,603 3961,602 3961,591 3960,590 3960,589 3957,586 3939,586 3938,585 3889,585 3888,584 3868,584 3867,583 3842,583 3841,582 3782,582 3781,583 3771,583 3770,582 3760,582 3759,583 3734,583 3733,582 3708,582 3707,583 3706,582 3698,582 3697,581 3673,581 3672,582 3659,582 3658,581 3630,581 3629,582 3621,582 3620,583 3606,583 3605,582 3596,582 3595,583 3580,583 3579,582 3572,582 3571,583 3558,583 3557,582 3543,582 3542,581 3538,581 3537,582 3519,582 3518,583 3514,583 3513,582 3508,582 3507,581 3492,581 3491,580 3485,580 3484,581 3470,581 3469,582 3463,582 3462,583 3455,583 3454,582 3452,582 3451,581 3450,581 3449,580 3448,580 3447,579 3446,579 3445,578" fill="rgba(50,107,54,0.3)" stroke="rgb(50,107,54)" stroke-width="2" data-block-id="0012" data-name="b-0018" /><text x="3709" y="766" text-anchor="middle" dominant-baseline="middle" class="block-label" fill="rgb(50,107,54)" stroke="white" stroke-width="3" paint-order="stroke">b-0018</text><polygon points="3356,2911 3353,2512 4049,2515 4106,2911" fill="rgba(102,179,92,0.3)" stroke="rgb(102,179,92)" stroke-width="2" data-block-id="0013" data-name="b-0027" /><text x="3716" y="2712" text-anchor="middle" dominant-baseline="middle" class="block-label" fill="rgb(102,179,92)" stroke="white" stroke-width="3" paint-order="stroke">b-0027</text><polygon points="3364,1899 3353,1511 3984,1507 3969,1792 4464,1781 4449,1899" fill="rgba(102,179,92,0.3)" stroke="rgb(102,179,92)" stroke-width="2" data-block-id="0014" data-name="b-0021" /><text x="3930" y="1731" text-anchor="middle" dominant-baseline="middle" class="block-label" fill="rgb(102,179,92)" stroke="white" stroke-width="3" paint-order="stroke">b-0021</text></g>
</svg>