<?xml version='1.0' encoding='utf-8'?>
<svg xmlns="http://www.w3.org/2000/svg" xmlns:atlas="http://example.com/atlas" width="4984" height="3304" viewBox="0 0 4984 3304">
  
  <metadata>
    <atlas:source>
      <atlas:jp2-path>/Users/pwright/workspace/atlas/media/v2/p10.jp2</atlas:jp2-path>
      <atlas:volume>unknown</atlas:volume>
      <atlas:plate-id>p10</atlas:plate-id>
      <atlas:image-width>4984</atlas:image-width>
      <atlas:image-height>3304</atlas:image-height>
    <atlas:angle>0</atlas:angle><atlas:scale>1.3333333333333333</atlas:scale><atlas:pos-x>2505.9538538276356</atlas:pos-x><atlas:pos-y>2585.5756500343573</atlas:pos-y></atlas:source>
  </metadata>

  
  <image id="background" href="file:///Users/pwright/workspace/atlas/media/v2/p10.jp2" width="4984" height="3304" opacity="0.5" />

  <style>
    .block-label { font-family: sans-serif; font-size: 14px; font-weight: bold; }
  </style>

  
  <g id="blocks">
    <polygon points="1319,1779 1318,1780 1310,1780 1309,1781 1302,1781 1301,1780 1269,1780 1268,1781 1260,1781 1259,1782 1257,1782 1256,1781 1216,1781 1215,1782 1194,1782 1193,1781 1169,1781 1168,1782 1152,1782 1151,1781 1139,1781 1138,1780 1137,1781 1122,1781 1121,1780 1109,1780 1108,1781 1094,1781 1093,1780 1092,1781 1073,1781 1072,1780 1023,1780 1022,1781 1018,1781 1017,1780 978,1780 977,1781 952,1781 951,1782 907,1782 906,1781 895,1781 894,1782 880,1782 879,1781 835,1781 834,1780 814,1780 813,1781 797,1781 796,1782 744,1782 743,1781 737,1781 736,1780 725,1780 724,1781 679,1781 678,1780 675,1780 674,1781 652,1781 651,1782 648,1782 647,1781 585,1781 584,1782 577,1782 576,1781 536,1781 535,1782 521,1782 520,1781 519,1782 511,1782 510,1783 504,1783 503,1782 497,1782 496,1781 492,1781 491,1782 479,1782 478,1781 465,1781 464,1782 453,1782 452,1781 441,1781 440,1782 431,1782 430,1781 380,1781 379,1780 373,1780 372,1781 367,1781 366,1782 362,1782 361,1781 357,1781 356,1780 323,1780 322,1781 243,1781 242,1782 235,1782 234,1783 227,1783 226,1784 221,1784 220,1785 218,1785 217,1786 217,1787 216,1788 216,1796 215,1797 215,1798 216,1799 216,1810 217,1811 217,1820 218,1821 218,1825 219,1826 219,1828 220,1829 220,1831 221,1832 221,1833 222,1834 222,1837 223,1838 223,1843 224,1844 224,1849 225,1850 225,1852 226,1853 226,1856 227,1857 227,1859 228,1860 228,1863 229,1864 229,1867 230,1868 230,1872 231,1873 231,1877 232,1878 232,1881 233,1882 233,1885 234,1886 234,1889 235,1890 235,1893 236,1894 236,1897 237,1898 237,1901 238,1902 238,1906 239,1907 239,1911 240,1912 240,1916 241,1917 241,1920 242,1921 242,1924 243,1925 243,1929 244,1930 244,1938 245,1939 245,1943 246,1944 246,1945 247,1946 247,1947 248,1948 248,1949 250,1951 250,1952 251,1953 251,1954 252,1955 252,1957 253,1958 253,1960 254,1961 254,1962 255,1963 255,1964 256,1965 256,1966 257,1967 257,1970 258,1971 258,1978 259,1979 259,1982 260,1983 260,1986 261,1987 261,1991 262,1992 262,1996 263,1997 263,2000 264,2001 264,2004 265,2005 265,2010 266,2011 266,2016 267,2017 267,2019 268,2020 268,2022 269,2023 269,2024 270,2025 270,2027 271,2028 271,2030 272,2031 272,2033 273,2034 273,2037 274,2038 274,2040 275,2041 275,2043 276,2044 276,2047 277,2048 277,2051 278,2052 278,2055 279,2056 279,2058 280,2059 280,2061 281,2062 281,2065 282,2066 282,2069 283,2070 283,2073 284,2074 284,2078 285,2079 285,2083 286,2084 286,2088 287,2089 287,2091 288,2092 288,2095 289,2096 289,2100 290,2101 290,2106 291,2107 291,2109 292,2110 292,2112 293,2113 293,2115 294,2116 294,2117 295,2118 295,2120 296,2121 296,2123 297,2124 297,2129 298,2130 298,2133 299,2134 299,2136 300,2137 300,2139 301,2140 301,2141 302,2142 302,2143 307,2148 308,2148 309,2149 310,2149 311,2150 313,2150 314,2151 334,2151 335,2152 388,2152 389,2153 402,2153 403,2152 409,2152 410,2151 416,2151 417,2152 450,2152 451,2151 466,2151 467,2152 479,2152 480,2151 523,2151 524,2152 542,2152 543,2151 551,2151 552,2150 575,2150 576,2151 582,2151 583,2150 607,2150 608,2149 649,2149 650,2148 683,2148 684,2147 688,2147 689,2148 726,2148 727,2147 736,2147 737,2148 790,2148 791,2149 800,2149 801,2148 807,2148 808,2149 822,2149 823,2148 827,2148 828,2147 833,2147 834,2148 868,2148 869,2147 881,2147 882,2148 893,2148 894,2147 910,2147 911,2148 915,2148 916,2147 933,2147 934,2148 970,2148 971,2147 972,2147 973,2148 1011,2148 1012,2147 1021,2147 1022,2146 1189,2146 1190,2147 1204,2147 1205,2146 1221,2146 1222,2147 1226,2147 1227,2146 1237,2146 1238,2147 1254,2147 1255,2146 1268,2146 1269,2147 1276,2147 1277,2146 1283,2146 1284,2147 1290,2147 1291,2148 1299,2148 1300,2147 1313,2147 1314,2148 1339,2148 1340,2149 1347,2149 1348,2148 1374,2148 1375,2147 1380,2147 1381,2148 1397,2148 1398,2147 1404,2147 1405,2148 1407,2148 1408,2149 1410,2149 1411,2150 1414,2150 1415,2151 1416,2151 1417,2150 1425,2150 1426,2149 1439,2149 1440,2148 1442,2148 1443,2147 1445,2147 1448,2144 1449,2144 1452,2141 1457,2141 1458,2140 1463,2140 1464,2141 1465,2141 1466,2142 1467,2142 1468,2143 1478,2143 1479,2144 1488,2144 1489,2143 1498,2143 1499,2144 1504,2144 1505,2145 1538,2145 1539,2144 1548,2144 1549,2145 1555,2145 1556,2146 1568,2146 1569,2145 1576,2145 1577,2144 1583,2144 1584,2143 1588,2143 1589,2142 1590,2142 1591,2141 1593,2141 1594,2140 1596,2140 1597,2139 1599,2139 1600,2138 1606,2138 1607,2139 1608,2139 1610,2141 1612,2141 1613,2142 1615,2142 1617,2140 1617,2139 1618,2138 1618,2136 1619,2135 1619,2118 1618,2117 1618,2103 1619,2102 1619,2091 1620,2090 1620,2069 1619,2068 1619,2055 1620,2054 1620,2005 1621,2004 1621,1994 1620,1993 1620,1971 1619,1970 1619,1964 1620,1963 1620,1957 1621,1956 1621,1951 1622,1950 1622,1946 1623,1945 1623,1938 1622,1937 1622,1930 1623,1929 1623,1928 1624,1927 1624,1926 1625,1925 1625,1923 1626,1922 1626,1911 1625,1910 1625,1904 1626,1903 1626,1898 1627,1897 1627,1882 1626,1881 1626,1818 1625,1817 1625,1788 1624,1787 1624,1785 1621,1782 1620,1782 1619,1781 1617,1781 1616,1780 1615,1780 1614,1781 1608,1781 1607,1782 1602,1782 1601,1781 1541,1781 1540,1782 1505,1782 1504,1781 1360,1781 1359,1780 1321,1780 1320,1779" fill="rgba(74,202,87,0.3)" stroke="rgb(74,202,87)" stroke-width="2" data-block-id="0001" data-name="b-0006" /><text x="813" y="1983" text-anchor="middle" dominant-baseline="middle" class="block-label" fill="rgb(74,202,87)" stroke="white" stroke-width="3" paint-order="stroke">b-0006</text><polygon points="910,2264 909,2265 906,2265 905,2266 902,2266 901,2267 898,2267 897,2268 895,2268 894,2269 893,2269 892,2270 886,2270 885,2269 883,2269 882,2268 880,2268 879,2267 865,2267 864,2268 858,2268 857,2269 851,2269 850,2270 848,2270 847,2271 845,2271 844,2272 839,2272 838,2271 837,2271 836,2270 835,2270 834,2269 830,2269 829,2268 815,2268 814,2269 811,2269 810,2270 804,2270 803,2271 798,2271 797,2272 791,2272 790,2271 786,2271 785,2270 774,2270 773,2269 767,2269 766,2270 758,2270 757,2271 752,2271 751,2272 749,2272 748,2273 742,2273 741,2272 738,2272 737,2271 719,2271 718,2272 713,2272 712,2273 694,2273 693,2272 667,2272 666,2273 654,2273 653,2272 629,2272 628,2271 611,2271 610,2272 606,2272 605,2273 601,2273 600,2272 598,2272 597,2271 595,2271 594,2270 575,2270 574,2271 570,2271 569,2272 551,2272 550,2271 546,2271 545,2270 539,2270 538,2269 533,2269 532,2268 530,2268 529,2269 527,2269 526,2270 524,2270 523,2271 515,2271 514,2270 511,2270 510,2269 497,2269 496,2270 493,2270 492,2269 481,2269 480,2270 476,2270 475,2271 471,2271 470,2272 454,2272 453,2271 415,2271 414,2272 410,2272 409,2271 383,2271 382,2272 376,2272 375,2273 351,2273 350,2274 348,2274 347,2275 346,2275 345,2276 345,2277 344,2278 344,2279 343,2280 343,2285 342,2286 342,2290 343,2291 343,2293 344,2294 344,2297 345,2298 345,2301 346,2302 346,2308 347,2309 347,2313 348,2314 348,2317 349,2318 349,2320 350,2321 350,2323 351,2324 351,2326 352,2327 352,2329 353,2330 353,2332 354,2333 354,2336 355,2337 355,2340 356,2341 356,2345 357,2346 357,2351 358,2352 358,2359 359,2360 359,2363 360,2364 360,2367 361,2368 361,2370 362,2371 362,2373 363,2374 363,2376 364,2377 364,2380 365,2381 365,2384 366,2385 366,2388 367,2389 367,2393 368,2394 368,2397 369,2398 369,2401 370,2402 370,2405 371,2406 371,2410 372,2411 372,2415 373,2416 373,2419 374,2420 374,2422 376,2424 376,2425 377,2426 377,2427 378,2428 378,2429 379,2430 379,2431 380,2432 380,2435 381,2436 381,2440 382,2441 382,2445 383,2446 383,2451 384,2452 384,2457 385,2458 385,2461 386,2462 386,2465 387,2466 387,2468 388,2469 388,2471 389,2472 389,2474 390,2475 390,2477 391,2478 391,2481 392,2482 392,2485 393,2486 393,2489 394,2490 394,2494 395,2495 395,2499 396,2500 396,2504 397,2505 397,2509 398,2510 398,2512 399,2513 399,2514 400,2515 400,2516 401,2517 401,2518 402,2519 402,2520 403,2521 403,2522 404,2523 404,2525 405,2526 405,2529 406,2530 406,2535 407,2536 407,2541 408,2542 408,2546 409,2547 409,2550 410,2551 410,2553 411,2554 411,2555 412,2556 412,2558 413,2559 413,2560 414,2561 414,2563 415,2564 415,2565 416,2566 416,2568 417,2569 417,2571 418,2572 418,2574 419,2575 419,2580 420,2581 420,2584 421,2585 421,2588 422,2589 422,2590 423,2591 423,2592 424,2593 424,2594 425,2595 425,2596 426,2597 426,2598 427,2599 427,2602 428,2603 428,2608 429,2609 429,2612 430,2613 430,2614 431,2615 431,2616 432,2617 432,2618 433,2619 433,2620 434,2621 434,2622 436,2624 436,2625 445,2634 446,2634 447,2635 462,2635 463,2636 467,2636 468,2637 483,2637 484,2638 512,2638 513,2639 522,2639 523,2638 530,2638 531,2637 532,2637 533,2638 559,2638 560,2639 579,2639 580,2638 606,2638 607,2639 619,2639 620,2638 624,2638 625,2637 631,2637 632,2638 641,2638 642,2637 655,2637 656,2638 675,2638 676,2637 683,2637 684,2636 691,2636 692,2635 701,2635 702,2636 708,2636 709,2637 712,2637 713,2636 738,2636 739,2635 742,2635 743,2634 748,2634 749,2635 751,2635 752,2636 755,2636 756,2637 761,2637 762,2636 775,2636 776,2637 788,2637 789,2636 796,2636 797,2637 802,2637 803,2638 809,2638 810,2637 825,2637 826,2638 832,2638 833,2637 845,2637 846,2638 859,2638 860,2637 872,2637 873,2638 880,2638 881,2637 898,2637 899,2638 901,2638 902,2637 909,2637 910,2636 916,2636 917,2637 931,2637 932,2636 958,2636 959,2635 960,2635 961,2636 965,2636 966,2637 969,2637 970,2638 976,2638 977,2637 993,2637 994,2638 1000,2638 1001,2637 1011,2637 1012,2638 1018,2638 1019,2639 1022,2639 1023,2638 1037,2638 1038,2639 1048,2639 1049,2638 1053,2638 1054,2637 1059,2637 1060,2638 1063,2638 1064,2639 1071,2639 1072,2638 1077,2638 1078,2637 1086,2637 1087,2638 1109,2638 1110,2639 1125,2639 1126,2638 1127,2638 1128,2639 1137,2639 1138,2640 1139,2640 1140,2639 1145,2639 1146,2638 1150,2638 1151,2637 1153,2637 1154,2638 1161,2638 1162,2639 1165,2639 1166,2638 1190,2638 1191,2637 1193,2637 1194,2636 1195,2636 1196,2635 1197,2635 1198,2634 1202,2634 1203,2635 1206,2635 1207,2636 1218,2636 1219,2635 1229,2635 1230,2634 1241,2634 1242,2633 1249,2633 1250,2634 1254,2634 1255,2635 1262,2635 1263,2636 1276,2636 1277,2635 1284,2635 1285,2634 1287,2634 1288,2633 1290,2633 1291,2632 1294,2632 1295,2631 1297,2631 1298,2632 1323,2632 1324,2631 1333,2631 1334,2630 1336,2630 1337,2629 1339,2629 1341,2627 1342,2627 1343,2628 1344,2628 1348,2632 1350,2632 1351,2633 1353,2633 1354,2634 1372,2634 1373,2633 1380,2633 1381,2634 1403,2634 1404,2633 1453,2633 1454,2632 1466,2632 1467,2631 1494,2631 1495,2632 1502,2632 1503,2631 1518,2631 1519,2630 1521,2630 1522,2631 1527,2631 1528,2632 1531,2632 1532,2633 1537,2633 1538,2632 1548,2632 1549,2631 1558,2631 1559,2630 1595,2630 1596,2629 1602,2629 1603,2628 1618,2628 1619,2627 1620,2627 1624,2623 1624,2621 1625,2620 1625,2618 1626,2617 1626,2615 1627,2614 1627,2604 1626,2603 1626,2595 1627,2594 1627,2590 1628,2589 1628,2585 1627,2584 1627,2579 1626,2578 1626,2572 1627,2571 1627,2566 1628,2565 1628,2561 1627,2560 1627,2555 1626,2554 1626,2546 1627,2545 1627,2536 1626,2535 1626,2527 1625,2526 1625,2507 1624,2506 1624,2494 1623,2493 1623,2464 1622,2463 1622,2441 1621,2440 1621,2409 1620,2408 1620,2402 1621,2401 1621,2394 1620,2393 1620,2374 1619,2373 1619,2365 1618,2364 1618,2346 1619,2345 1619,2328 1618,2327 1618,2320 1619,2319 1619,2310 1618,2309 1618,2304 1617,2303 1617,2294 1618,2293 1618,2276 1615,2273 1614,2273 1613,2272 1612,2272 1611,2271 1610,2271 1609,2270 1608,2270 1607,2269 1605,2269 1604,2268 1600,2268 1599,2267 1586,2267 1585,2268 1580,2268 1579,2269 1575,2269 1574,2270 1558,2270 1557,2269 1540,2269 1539,2270 1528,2270 1527,2271 1493,2271 1492,2272 1472,2272 1471,2273 1469,2273 1468,2274 1466,2274 1465,2275 1460,2275 1459,2274 1457,2274 1456,2273 1454,2273 1453,2272 1444,2272 1443,2273 1440,2273 1439,2274 1434,2274 1433,2273 1415,2273 1414,2272 1412,2272 1410,2270 1409,2270 1408,2269 1407,2269 1406,2268 1405,2268 1404,2267 1402,2267 1401,2266 1400,2266 1399,2267 1388,2267 1387,2268 1377,2268 1376,2269 1369,2269 1368,2270 1367,2270 1366,2269 1358,2269 1357,2268 1348,2268 1347,2267 1342,2267 1341,2268 1339,2268 1338,2269 1337,2269 1336,2270 1333,2270 1332,2271 1324,2271 1323,2270 1317,2270 1316,2269 1310,2269 1309,2268 1292,2268 1291,2269 1280,2269 1279,2268 1275,2268 1274,2267 1271,2267 1270,2266 1268,2266 1267,2267 1245,2267 1244,2268 1240,2268 1239,2269 1232,2269 1231,2268 1227,2268 1226,2267 1197,2267 1196,2268 1193,2268 1192,2269 1190,2269 1189,2270 1183,2270 1182,2269 1178,2269 1177,2268 1171,2268 1170,2269 1155,2269 1154,2268 1150,2268 1149,2269 1134,2269 1133,2268 1101,2268 1100,2269 1097,2269 1096,2270 1094,2270 1093,2271 1088,2271 1087,2270 1082,2270 1081,2269 1073,2269 1072,2268 1062,2268 1061,2267 1053,2267 1052,2268 1048,2268 1047,2269 1038,2269 1037,2268 1033,2268 1032,2267 1020,2267 1019,2266 1009,2266 1008,2267 1002,2267 1001,2268 991,2268 990,2267 986,2267 985,2266 980,2266 979,2267 968,2267 967,2266 932,2266 931,2265 926,2265 925,2264" fill="rgba(116,99,103,0.3)" stroke="rgb(116,99,103)" stroke-width="2" data-block-id="0002" data-name="b-0007" /><text x="916" y="2442" text-anchor="middle" dominant-baseline="middle" class="block-label" fill="rgb(116,99,103)" stroke="white" stroke-width="3" paint-order="stroke">b-0007</text><polygon points="3706,278 3705,279 3698,279 3697,280 3692,280 3691,281 3686,281 3685,282 3682,282 3681,283 3679,283 3677,285 3676,285 3670,291 3670,292 3669,293 3669,302 3668,303 3668,306 3667,307 3667,309 3666,310 3666,313 3665,314 3665,326 3664,327 3664,331 3665,332 3665,343 3664,344 3664,357 3663,358 3663,365 3662,366 3662,379 3663,380 3663,417 3662,418 3662,445 3661,446 3661,449 3662,450 3662,485 3663,486 3663,497 3662,498 3662,509 3661,510 3661,515 3660,516 3660,521 3661,522 3661,525 3662,526 3662,574 3661,575 3661,595 3662,596 3662,607 3661,608 3661,617 3662,618 3662,625 3663,626 3663,631 3664,632 3664,636 3665,637 3665,638 3668,641 3669,641 3671,643 3672,643 3673,644 3674,644 3675,645 3692,645 3693,646 3701,646 3702,647 3703,646 3712,646 3713,645 3727,645 3728,646 3734,646 3735,647 3738,647 3739,646 3746,646 3747,645 3769,645 3770,644 3794,644 3795,645 3835,645 3836,644 3840,644 3841,643 3849,643 3850,644 3862,644 3863,643 3878,643 3879,644 3933,644 3934,645 3945,645 3946,644 3959,644 3960,643 3969,643 3970,644 3994,644 3995,643 4017,643 4018,644 4036,644 4037,643 4073,643 4074,644 4085,644 4086,643 4092,643 4093,642 4096,642 4097,643 4102,643 4103,644 4122,644 4123,645 4174,645 4175,644 4179,644 4180,645 4217,645 4218,644 4231,644 4232,645 4258,645 4259,644 4320,644 4321,645 4342,645 4343,644 4360,644 4361,645 4391,645 4392,644 4408,644 4409,645 4418,645 4419,646 4434,646 4435,645 4478,645 4479,644 4486,644 4487,643 4489,643 4490,644 4497,644 4498,645 4505,645 4506,644 4518,644 4519,645 4542,645 4543,644 4560,644 4561,645 4592,645 4593,644 4605,644 4606,643 4611,643 4612,644 4673,644 4674,645 4693,645 4694,644 4748,644 4749,643 4754,643 4755,642 4757,642 4758,641 4760,641 4761,640 4762,640 4763,639 4763,638 4764,637 4764,635 4765,634 4765,630 4766,629 4766,603 4767,602 4767,591 4768,590 4768,584 4767,583 4767,550 4768,549 4768,545 4769,544 4769,538 4768,537 4768,518 4767,517 4767,500 4768,499 4768,487 4767,486 4767,477 4768,476 4768,464 4767,463 4767,458 4768,457 4768,450 4769,449 4769,443 4768,442 4768,409 4769,408 4769,378 4768,377 4768,374 4769,373 4769,318 4768,317 4768,313 4769,312 4769,298 4768,297 4768,293 4767,292 4767,290 4766,289 4766,288 4761,283 4760,283 4759,282 4758,282 4757,281 4755,281 4754,280 4751,280 4750,279 4749,279 4748,280 4743,280 4742,281 4734,281 4733,280 4721,280 4720,281 4707,281 4706,280 4699,280 4698,281 4690,281 4689,280 4682,280 4681,279 4679,279 4678,280 4676,280 4675,281 4673,281 4672,282 4671,282 4670,283 4665,283 4664,282 4662,282 4661,281 4658,281 4657,280 4652,280 4651,281 4646,281 4645,282 4642,282 4641,281 4634,281 4633,280 4628,280 4627,281 4611,281 4610,280 4608,280 4607,281 4600,281 4599,282 4592,282 4591,281 4575,281 4574,282 4569,282 4568,281 4543,281 4542,280 4531,280 4530,281 4515,281 4514,280 4512,280 4511,281 4503,281 4502,282 4491,282 4490,281 4465,281 4464,282 4438,282 4437,281 4414,281 4413,282 4395,282 4394,281 4383,281 4382,280 4375,280 4374,281 4363,281 4362,282 4348,282 4347,281 4320,281 4319,282 4314,282 4313,283 4303,283 4302,282 4294,282 4293,281 4272,281 4271,282 4257,282 4256,281 4254,281 4253,280 4250,280 4249,279 4243,279 4242,278 4234,278 4233,279 4227,279 4226,280 4223,280 4222,281 4217,281 4216,282 4173,282 4172,283 4156,283 4155,282 4148,282 4147,281 4129,281 4128,282 4102,282 4101,281 4090,281 4089,280 4079,280 4078,281 4058,281 4057,280 4003,280 4002,279 3992,279 3991,280 3960,280 3959,279 3922,279 3921,280 3912,280 3911,279 3893,279 3892,280 3864,280 3863,279 3847,279 3846,280 3841,280 3840,279 3762,279 3761,278 3758,278 3757,279 3717,279 3716,278" fill="rgba(52,1,87,0.3)" stroke="rgb(52,1,87)" stroke-width="2" data-block-id="0003" data-name="b-0009" /><text x="4244" y="440" text-anchor="middle" dominant-baseline="middle" class="block-label" fill="rgb(52,1,87)" stroke="white" stroke-width="3" paint-order="stroke">b-0009</text><polygon points="4251,751 4250,752 4248,752 4247,753 4245,753 4244,754 4242,754 4241,755 4237,755 4236,756 4232,756 4231,755 4226,755 4225,756 4216,756 4215,757 4214,757 4213,756 4210,756 4209,755 4208,755 4207,754 4206,754 4205,753 4198,753 4197,754 4194,754 4193,755 4190,755 4189,756 4181,756 4180,755 4179,756 4176,756 4175,757 4173,757 4172,758 4171,758 4170,759 4168,759 4167,760 4165,760 4164,759 4162,759 4161,758 4160,758 4159,757 4157,757 4156,756 4146,756 4145,757 4121,757 4120,758 4119,757 4114,757 4113,756 4110,756 4109,755 4103,755 4102,756 4065,756 4064,755 4054,755 4053,756 4047,756 4046,757 4016,757 4015,756 4004,756 4003,757 3972,757 3971,756 3938,756 3937,757 3875,757 3874,756 3863,756 3862,755 3853,755 3852,756 3849,756 3848,757 3837,757 3836,756 3801,756 3800,757 3739,757 3738,756 3735,756 3734,757 3719,757 3718,756 3687,756 3686,757 3675,757 3674,758 3672,758 3671,759 3670,759 3669,760 3668,760 3665,763 3664,763 3664,764 3662,766 3662,767 3661,768 3661,785 3660,786 3660,800 3661,801 3661,840 3660,841 3660,843 3661,844 3661,869 3662,870 3662,885 3663,886 3663,898 3664,899 3664,910 3663,911 3663,937 3664,938 3664,955 3665,956 3665,963 3664,964 3664,1008 3665,1009 3665,1034 3666,1035 3666,1051 3665,1052 3665,1062 3666,1063 3666,1069 3665,1070 3665,1077 3664,1078 3664,1082 3665,1083 3665,1094 3666,1095 3666,1099 3667,1100 3667,1104 3668,1105 3668,1108 3669,1109 3669,1113 3670,1114 3670,1115 3673,1118 3674,1118 3675,1119 3677,1119 3678,1120 3699,1120 3700,1121 3706,1121 3707,1120 3719,1120 3720,1121 3729,1121 3730,1120 3740,1120 3741,1121 3778,1121 3779,1120 3792,1120 3793,1119 3803,1119 3804,1120 3811,1120 3812,1119 3840,1119 3841,1120 3892,1120 3893,1119 3971,1119 3972,1120 4014,1120 4015,1119 4019,1119 4020,1118 4026,1118 4027,1119 4032,1119 4033,1120 4123,1120 4124,1119 4177,1119 4178,1118 4182,1118 4183,1119 4196,1119 4197,1120 4206,1120 4207,1119 4222,1119 4223,1120 4236,1120 4237,1119 4268,1119 4269,1118 4317,1118 4318,1117 4325,1117 4326,1118 4340,1118 4341,1119 4350,1119 4351,1118 4364,1118 4365,1119 4423,1119 4424,1118 4599,1118 4600,1119 4675,1119 4676,1120 4683,1120 4684,1119 4696,1119 4697,1118 4711,1118 4712,1119 4715,1119 4716,1118 4745,1118 4746,1117 4755,1117 4756,1116 4759,1116 4760,1115 4761,1115 4762,1114 4763,1114 4764,1113 4764,1112 4765,1111 4765,1110 4766,1109 4766,1106 4767,1105 4767,1099 4768,1098 4768,1079 4767,1078 4767,1048 4768,1047 4768,1041 4767,1040 4767,1029 4768,1028 4768,1025 4769,1024 4769,1022 4770,1021 4770,1010 4769,1009 4769,997 4768,996 4768,990 4767,989 4767,976 4768,975 4768,968 4767,967 4767,956 4768,955 4768,941 4767,940 4767,935 4768,934 4768,932 4769,931 4769,929 4770,928 4770,927 4771,926 4771,925 4772,924 4772,921 4771,920 4771,916 4770,915 4770,893 4769,892 4769,884 4770,883 4770,870 4769,869 4769,856 4770,855 4770,846 4769,845 4769,835 4768,834 4768,825 4767,824 4767,797 4766,796 4766,791 4767,790 4767,786 4768,785 4768,769 4767,768 4767,766 4766,765 4766,764 4765,763 4765,762 4763,760 4763,759 4762,759 4761,758 4760,758 4759,757 4756,757 4755,756 4730,756 4729,755 4724,755 4723,756 4713,756 4712,755 4696,755 4695,756 4689,756 4688,755 4686,755 4685,754 4681,754 4680,753 4662,753 4661,754 4656,754 4655,753 4651,753 4650,752 4644,752 4643,751 4642,751 4641,752 4630,752 4629,753 4624,753 4623,754 4621,754 4620,755 4601,755 4600,754 4587,754 4586,753 4581,753 4580,754 4559,754 4558,755 4556,755 4555,756 4553,756 4552,757 4550,757 4549,758 4538,758 4537,757 4514,757 4513,758 4511,758 4510,757 4496,757 4495,758 4453,758 4452,757 4409,757 4408,756 4398,756 4397,755 4389,755 4388,756 4385,756 4384,757 4377,757 4376,756 4362,756 4361,755 4329,755 4328,754 4319,754 4318,755 4315,755 4314,756 4312,756 4311,757 4307,757 4306,756 4304,756 4303,755 4300,755 4299,754 4292,754 4291,755 4283,755 4282,754 4278,754 4277,753 4274,753 4273,752 4268,752 4267,753 4259,753 4258,752 4253,752 4252,751" fill="rgba(235,157,37,0.3)" stroke="rgb(235,157,37)" stroke-width="2" data-block-id="0004" data-name="b-0010" /><text x="4271" y="889" text-anchor="middle" dominant-baseline="middle" class="block-label" fill="rgb(235,157,37)" stroke="white" stroke-width="3" paint-order="stroke">b-0010</text><polygon points="4616,2232 4615,2233 4607,2233 4606,2234 4593,2234 4592,2235 4552,2235 4551,2234 4539,2234 4538,2233 4516,2233 4515,2234 4508,2234 4507,2235 4437,2235 4436,2236 4410,2236 4409,2237 4405,2237 4404,2236 4402,2236 4401,2235 4399,2235 4398,2234 4397,2234 4396,2233 4384,2233 4383,2234 4370,2234 4369,2235 4363,2235 4362,2236 4356,2236 4355,2237 4333,2237 4332,2238 4330,2238 4329,2237 4319,2237 4318,2238 4300,2238 4299,2237 4298,2238 4289,2238 4288,2239 4284,2239 4283,2238 4279,2238 4278,2237 4266,2237 4265,2238 4234,2238 4233,2239 4182,2239 4181,2240 4142,2240 4141,2241 4117,2241 4116,2240 4104,2240 4103,2241 4029,2241 4028,2242 3978,2242 3977,2243 3972,2243 3971,2242 3935,2242 3934,2243 3905,2243 3904,2244 3900,2244 3899,2243 3889,2243 3888,2244 3873,2244 3872,2243 3857,2243 3856,2244 3845,2244 3844,2245 3814,2245 3813,2246 3799,2246 3798,2245 3795,2245 3794,2246 3765,2246 3764,2247 3733,2247 3732,2248 3727,2248 3726,2249 3725,2249 3724,2248 3721,2248 3720,2247 3717,2247 3716,2246 3701,2246 3700,2247 3695,2247 3694,2248 3680,2248 3679,2249 3676,2249 3672,2253 3672,2254 3671,2255 3671,2257 3670,2258 3670,2260 3669,2261 3669,2285 3670,2286 3670,2293 3669,2294 3669,2342 3668,2343 3668,2356 3669,2357 3669,2380 3670,2381 3670,2388 3669,2389 3669,2434 3670,2435 3670,2445 3669,2446 3669,2463 3670,2464 3670,2501 3669,2502 3669,2517 3670,2518 3670,2530 3671,2531 3671,2543 3670,2544 3670,2578 3669,2579 3669,2586 3670,2587 3670,2591 3671,2592 3671,2594 3672,2595 3672,2597 3676,2601 3679,2601 3680,2602 3687,2602 3688,2603 3702,2603 3703,2604 3718,2604 3719,2603 3745,2603 3746,2604 3813,2604 3814,2603 3881,2603 3882,2602 3892,2602 3893,2601 3897,2601 3898,2602 3904,2602 3905,2601 3931,2601 3932,2600 3981,2600 3982,2601 4031,2601 4032,2600 4048,2600 4049,2599 4054,2599 4055,2598 4067,2598 4068,2599 4072,2599 4073,2598 4082,2598 4083,2597 4135,2597 4136,2596 4146,2596 4147,2595 4169,2595 4170,2594 4214,2594 4215,2595 4229,2595 4230,2596 4244,2596 4245,2597 4254,2597 4255,2596 4263,2596 4264,2595 4363,2595 4364,2596 4373,2596 4374,2595 4400,2595 4401,2594 4408,2594 4409,2593 4414,2593 4415,2592 4435,2592 4436,2593 4484,2593 4485,2592 4492,2592 4493,2593 4521,2593 4522,2592 4526,2592 4527,2593 4537,2593 4538,2592 4611,2592 4612,2591 4695,2591 4696,2590 4746,2590 4747,2589 4757,2589 4758,2590 4762,2590 4763,2589 4766,2589 4767,2588 4768,2588 4769,2587 4770,2587 4773,2584 4773,2582 4774,2581 4774,2578 4775,2577 4775,2567 4776,2566 4776,2562 4775,2561 4775,2551 4774,2550 4775,2549 4775,2513 4774,2512 4774,2506 4773,2505 4773,2502 4774,2501 4774,2495 4775,2494 4775,2483 4774,2482 4774,2475 4773,2474 4773,2469 4772,2468 4772,2464 4771,2463 4771,2460 4770,2459 4770,2454 4771,2453 4771,2451 4772,2450 4772,2448 4773,2447 4773,2438 4772,2437 4772,2424 4773,2423 4773,2418 4772,2417 4772,2413 4771,2412 4771,2405 4772,2404 4772,2401 4773,2400 4773,2397 4774,2396 4774,2393 4773,2392 4773,2376 4774,2375 4774,2372 4773,2371 4773,2368 4772,2367 4772,2364 4771,2363 4771,2358 4772,2357 4772,2354 4773,2353 4773,2344 4772,2343 4772,2339 4771,2338 4771,2333 4772,2332 4772,2325 4773,2324 4773,2323 4772,2322 4772,2308 4773,2307 4773,2302 4774,2301 4774,2299 4773,2298 4773,2282 4774,2281 4774,2274 4773,2273 4773,2269 4772,2268 4772,2261 4773,2260 4773,2256 4774,2255 4774,2251 4773,2250 4773,2248 4772,2247 4772,2243 4771,2242 4771,2240 4766,2235 4765,2235 4764,2234 4692,2234 4691,2235 4633,2235 4632,2234 4628,2234 4627,2233 4623,2233 4622,2232" fill="rgba(129,191,187,0.3)" stroke="rgb(129,191,187)" stroke-width="2" data-block-id="0005" data-name="b-0011" /><text x="4297" y="2400" text-anchor="middle" dominant-baseline="middle" class="block-label" fill="rgb(129,191,187)" stroke="white" stroke-width="3" paint-order="stroke">b-0011</text><polygon points="4630,1762 4629,1763 4625,1763 4624,1764 4579,1764 4578,1765 4566,1765 4565,1764 4519,1764 4518,1763 4511,1763 4510,1764 4505,1764 4504,1765 4482,1765 4481,1766 4475,1766 4474,1765 4467,1765 4466,1764 4463,1764 4462,1765 4455,1765 4454,1766 4448,1766 4447,1765 4438,1765 4437,1766 4431,1766 4430,1767 4427,1767 4426,1766 4419,1766 4418,1765 4414,1765 4413,1766 4387,1766 4386,1767 4376,1767 4375,1766 4360,1766 4359,1767 4354,1767 4353,1766 4328,1766 4327,1765 4317,1765 4316,1766 4313,1766 4312,1767 4293,1767 4292,1766 4281,1766 4280,1765 4270,1765 4269,1766 4247,1766 4246,1767 4243,1767 4242,1768 4240,1768 4239,1769 4236,1769 4235,1768 4230,1768 4229,1767 4220,1767 4219,1768 4195,1768 4194,1769 4175,1769 4174,1768 4164,1768 4163,1767 4145,1767 4144,1768 4140,1768 4139,1767 4055,1767 4054,1768 4049,1768 4048,1769 4045,1769 4044,1768 4039,1768 4038,1767 4019,1767 4018,1766 4007,1766 4006,1767 3990,1767 3989,1766 3985,1766 3984,1767 3961,1767 3960,1766 3956,1766 3955,1765 3953,1765 3952,1764 3935,1764 3934,1765 3930,1765 3929,1766 3921,1766 3920,1765 3910,1765 3909,1766 3901,1766 3900,1765 3889,1765 3888,1766 3881,1766 3880,1767 3876,1767 3875,1766 3853,1766 3852,1767 3848,1767 3847,1768 3845,1768 3844,1769 3834,1769 3833,1770 3815,1770 3814,1769 3767,1769 3766,1768 3747,1768 3746,1769 3696,1769 3695,1770 3677,1770 3676,1771 3675,1771 3674,1772 3673,1772 3672,1773 3672,1774 3671,1775 3671,1776 3670,1777 3670,1780 3669,1781 3669,1785 3668,1786 3668,2092 3667,2093 3667,2108 3668,2109 3668,2120 3669,2121 3669,2123 3673,2127 3674,2127 3675,2128 3676,2128 3677,2129 3686,2129 3687,2130 3719,2130 3720,2129 3731,2129 3732,2130 3762,2130 3763,2129 3779,2129 3780,2128 3790,2128 3791,2129 3801,2129 3802,2130 3813,2130 3814,2129 3821,2129 3822,2128 3836,2128 3837,2127 3848,2127 3849,2128 3865,2128 3866,2127 4009,2127 4010,2126 4025,2126 4026,2127 4041,2127 4042,2126 4100,2126 4101,2127 4109,2127 4110,2126 4117,2126 4118,2125 4146,2125 4147,2126 4152,2126 4153,2127 4156,2127 4157,2126 4160,2126 4161,2125 4166,2125 4167,2124 4172,2124 4173,2123 4219,2123 4220,2124 4226,2124 4227,2125 4243,2125 4244,2126 4254,2126 4255,2125 4259,2125 4260,2124 4268,2124 4269,2123 4363,2123 4364,2122 4402,2122 4403,2121 4424,2121 4425,2122 4430,2122 4431,2121 4461,2121 4462,2120 4627,2120 4628,2121 4644,2121 4645,2120 4648,2120 4649,2119 4653,2119 4654,2118 4671,2118 4672,2119 4700,2119 4701,2118 4742,2118 4743,2117 4763,2117 4764,2116 4765,2116 4770,2111 4770,2110 4771,2109 4771,2078 4770,2077 4770,2066 4771,2065 4771,2060 4770,2059 4770,2033 4769,2032 4769,2022 4770,2021 4770,2015 4771,2014 4771,2009 4770,2008 4770,1926 4771,1925 4771,1921 4772,1920 4772,1916 4771,1915 4771,1910 4770,1909 4770,1902 4769,1901 4769,1869 4770,1868 4770,1841 4769,1840 4769,1814 4768,1813 4768,1781 4767,1780 4767,1774 4766,1773 4766,1771 4765,1770 4765,1769 4761,1765 4755,1765 4754,1764 4727,1764 4726,1763 4707,1763 4706,1762 4700,1762 4699,1763 4664,1763 4663,1762" fill="rgba(20,160,203,0.3)" stroke="rgb(20,160,203)" stroke-width="2" data-block-id="0006" data-name="b-0012" /><text x="4238" y="1909" text-anchor="middle" dominant-baseline="middle" class="block-label" fill="rgb(20,160,203)" stroke="white" stroke-width="3" paint-order="stroke">b-0012</text><polygon points="4628,1226 4627,1227 4618,1227 4617,1228 4607,1228 4606,1229 4602,1229 4601,1230 4586,1230 4585,1229 4561,1229 4560,1230 4532,1230 4531,1231 4497,1231 4496,1230 4479,1230 4478,1231 4448,1231 4447,1230 4407,1230 4406,1231 4405,1230 4388,1230 4387,1231 4344,1231 4343,1230 4303,1230 4302,1229 4273,1229 4272,1230 4262,1230 4261,1229 4222,1229 4221,1230 4099,1230 4098,1229 4088,1229 4087,1230 4025,1230 4024,1231 4017,1231 4016,1230 3997,1230 3996,1231 3934,1231 3933,1232 3879,1232 3878,1233 3869,1233 3868,1232 3824,1232 3823,1233 3818,1233 3817,1232 3783,1232 3782,1233 3766,1233 3765,1232 3713,1232 3712,1231 3708,1231 3707,1232 3675,1232 3674,1233 3673,1233 3672,1234 3671,1234 3670,1235 3669,1235 3668,1236 3668,1237 3667,1238 3667,1248 3666,1249 3666,1268 3667,1269 3667,1281 3666,1282 3666,1289 3667,1290 3667,1301 3666,1302 3666,1354 3665,1355 3665,1358 3666,1359 3666,1366 3667,1367 3667,1400 3666,1401 3666,1437 3667,1438 3667,1446 3666,1447 3666,1453 3667,1454 3667,1463 3668,1464 3668,1501 3667,1502 3668,1503 3668,1569 3669,1570 3669,1574 3670,1575 3670,1577 3671,1578 3671,1579 3672,1580 3672,1581 3675,1584 3677,1584 3678,1585 3694,1585 3695,1586 3720,1586 3721,1585 3726,1585 3727,1586 3773,1586 3774,1585 3786,1585 3787,1586 3830,1586 3831,1585 3843,1585 3844,1586 3985,1586 3986,1585 3989,1585 3990,1586 4049,1586 4050,1585 4066,1585 4067,1586 4075,1586 4076,1585 4103,1585 4104,1584 4113,1584 4114,1585 4151,1585 4152,1584 4215,1584 4216,1585 4233,1585 4234,1584 4276,1584 4277,1583 4290,1583 4291,1584 4312,1584 4313,1583 4426,1583 4427,1582 4428,1583 4463,1583 4464,1584 4468,1584 4469,1583 4578,1583 4579,1584 4590,1584 4591,1583 4640,1583 4641,1582 4642,1582 4643,1583 4653,1583 4654,1584 4655,1583 4659,1583 4660,1582 4663,1582 4664,1581 4668,1581 4669,1580 4670,1581 4679,1581 4680,1582 4682,1582 4683,1581 4695,1581 4696,1582 4739,1582 4740,1581 4745,1581 4746,1580 4751,1580 4752,1579 4755,1579 4756,1578 4760,1578 4761,1577 4762,1577 4763,1576 4764,1576 4766,1574 4766,1572 4767,1571 4767,1541 4766,1540 4766,1530 4767,1529 4767,1491 4766,1490 4766,1482 4767,1481 4767,1424 4766,1423 4766,1403 4767,1402 4767,1399 4768,1398 4768,1376 4767,1375 4767,1305 4768,1304 4768,1289 4767,1288 4767,1271 4766,1270 4766,1259 4767,1258 4767,1243 4766,1242 4766,1237 4765,1236 4765,1235 4764,1234 4764,1233 4762,1231 4761,1231 4760,1230 4758,1230 4757,1229 4752,1229 4751,1228 4730,1228 4729,1227 4723,1227 4722,1228 4707,1228 4706,1227 4700,1227 4699,1228 4686,1228 4685,1227 4663,1227 4662,1226 4653,1226 4652,1227 4636,1227 4635,1226" fill="rgba(235,88,48,0.3)" stroke="rgb(235,88,48)" stroke-width="2" data-block-id="0007" data-name="b-0014" /><text x="4264" y="1399" text-anchor="middle" dominant-baseline="middle" class="block-label" fill="rgb(235,88,48)" stroke="white" stroke-width="3" paint-order="stroke">b-0014</text><polygon points="1555,2740 1554,2741 1553,2741 1552,2742 1551,2742 1550,2743 1548,2743 1547,2744 1545,2744 1544,2745 1540,2745 1539,2744 1534,2744 1533,2745 1530,2745 1529,2746 1517,2746 1516,2745 1514,2745 1513,2744 1508,2744 1507,2745 1505,2745 1504,2746 1503,2746 1502,2747 1500,2747 1499,2748 1470,2748 1469,2747 1460,2747 1459,2748 1458,2748 1457,2749 1456,2749 1455,2750 1454,2750 1453,2751 1450,2751 1449,2752 1448,2751 1446,2751 1445,2750 1443,2750 1442,2749 1441,2749 1440,2748 1432,2748 1431,2749 1423,2749 1422,2748 1407,2748 1406,2749 1397,2749 1396,2748 1385,2748 1384,2749 1347,2749 1346,2748 1341,2748 1340,2749 1333,2749 1332,2750 1327,2750 1326,2749 1295,2749 1294,2750 1287,2750 1286,2751 1279,2751 1278,2750 1267,2750 1266,2749 1254,2749 1253,2750 1241,2750 1240,2751 1231,2751 1230,2750 1218,2750 1217,2749 1196,2749 1195,2750 1178,2750 1177,2749 1156,2749 1155,2748 1150,2748 1149,2749 1131,2749 1130,2748 1102,2748 1101,2749 1097,2749 1096,2750 1063,2750 1062,2749 1056,2749 1055,2750 1052,2750 1051,2751 1047,2751 1046,2752 1031,2752 1030,2751 1015,2751 1014,2750 957,2750 956,2751 924,2751 923,2750 871,2750 870,2749 861,2749 860,2750 837,2750 836,2751 784,2751 783,2750 767,2750 766,2751 761,2751 760,2752 739,2752 738,2751 681,2751 680,2750 668,2750 667,2751 609,2751 608,2750 586,2750 585,2749 581,2749 580,2748 577,2748 576,2749 573,2749 572,2750 566,2750 565,2751 564,2750 546,2750 545,2751 541,2751 540,2750 526,2750 525,2751 478,2751 477,2752 472,2752 471,2753 469,2753 468,2754 468,2755 467,2756 467,2768 468,2769 468,2774 469,2775 469,2779 470,2780 470,2781 471,2782 471,2784 472,2785 472,2786 473,2787 473,2789 474,2790 474,2793 475,2794 475,2800 476,2801 476,2805 477,2806 477,2809 478,2810 478,2813 479,2814 479,2819 480,2820 480,2824 481,2825 481,2829 482,2830 482,2834 483,2835 483,2839 484,2840 484,2844 485,2845 485,2848 486,2849 486,2851 487,2852 487,2854 488,2855 488,2857 489,2858 489,2860 490,2861 490,2863 491,2864 491,2866 492,2867 492,2869 493,2870 493,2871 494,2872 494,2874 495,2875 495,2876 496,2877 496,2879 497,2880 497,2882 498,2883 498,2887 499,2888 499,2893 500,2894 500,2898 501,2899 501,2902 502,2903 502,2905 503,2906 503,2908 504,2909 504,2911 505,2912 505,2914 506,2915 506,2916 507,2917 507,2918 508,2919 508,2920 509,2921 509,2923 510,2924 510,2927 511,2928 511,2932 512,2933 512,2936 513,2937 513,2940 514,2941 514,2943 515,2944 515,2945 516,2946 516,2947 517,2948 517,2949 519,2951 519,2952 521,2954 521,2956 522,2957 522,2959 523,2960 523,2964 524,2965 524,2969 525,2970 525,2973 526,2974 526,2976 527,2977 527,2980 528,2981 528,2985 529,2986 529,2990 530,2991 530,2993 531,2994 531,2996 532,2997 532,2998 533,2999 533,3000 535,3002 535,3004 536,3005 536,3008 537,3009 537,3013 538,3014 538,3019 539,3020 539,3024 540,3025 540,3028 541,3029 541,3031 542,3032 542,3033 543,3034 543,3035 544,3036 544,3038 545,3039 545,3041 546,3042 546,3044 547,3045 547,3047 548,3048 548,3050 549,3051 549,3054 550,3055 550,3059 551,3060 551,3063 552,3064 552,3066 553,3067 553,3068 555,3070 555,3071 558,3074 558,3075 559,3076 559,3077 560,3078 560,3079 562,3081 562,3082 566,3086 567,3086 568,3087 569,3087 570,3088 573,3088 574,3089 580,3089 581,3090 597,3090 598,3089 606,3089 607,3090 668,3090 669,3089 681,3089 682,3090 688,3090 689,3089 694,3089 695,3088 701,3088 702,3089 708,3089 709,3090 752,3090 753,3091 758,3091 759,3090 762,3090 763,3089 764,3089 765,3088 766,3088 767,3087 770,3087 771,3086 772,3086 773,3087 779,3087 780,3088 782,3088 783,3087 790,3087 791,3086 797,3086 798,3087 832,3087 833,3086 843,3086 844,3085 851,3085 852,3084 855,3084 856,3085 868,3085 869,3086 879,3086 880,3085 886,3085 887,3084 891,3084 892,3085 925,3085 926,3084 951,3084 952,3085 958,3085 959,3086 963,3086 964,3085 1002,3085 1003,3084 1025,3084 1026,3083 1031,3083 1032,3082 1037,3082 1038,3083 1076,3083 1077,3084 1095,3084 1096,3085 1098,3085 1099,3086 1102,3086 1103,3087 1121,3087 1122,3088 1126,3088 1127,3089 1159,3089 1160,3090 1165,3090 1166,3089 1170,3089 1171,3088 1201,3088 1202,3089 1237,3089 1238,3088 1249,3088 1250,3089 1263,3089 1264,3088 1268,3088 1269,3087 1277,3087 1278,3086 1283,3086 1284,3087 1287,3087 1288,3088 1292,3088 1293,3089 1312,3089 1313,3090 1321,3090 1322,3089 1328,3089 1329,3088 1354,3088 1355,3087 1357,3087 1358,3086 1362,3086 1363,3085 1367,3085 1368,3084 1385,3084 1386,3083 1393,3083 1394,3084 1408,3084 1409,3085 1420,3085 1421,3084 1473,3084 1474,3083 1551,3083 1552,3084 1559,3084 1560,3083 1566,3083 1567,3082 1577,3082 1578,3081 1586,3081 1587,3082 1616,3082 1617,3081 1619,3081 1623,3077 1623,3076 1624,3075 1624,3071 1625,3070 1625,3067 1626,3066 1626,3062 1625,3061 1625,3046 1626,3045 1626,3036 1625,3035 1625,3021 1626,3020 1626,3011 1625,3010 1625,2999 1626,2998 1626,2988 1625,2987 1625,2936 1624,2935 1624,2914 1625,2913 1625,2905 1626,2904 1626,2891 1625,2890 1625,2879 1626,2878 1626,2865 1625,2864 1625,2861 1626,2860 1626,2854 1627,2853 1627,2847 1626,2846 1626,2838 1625,2837 1625,2836 1626,2835 1626,2794 1625,2793 1625,2786 1626,2785 1626,2771 1625,2770 1625,2759 1626,2758 1626,2755 1625,2754 1625,2752 1623,2750 1623,2749 1622,2749 1620,2747 1619,2747 1618,2746 1616,2746 1615,2745 1612,2745 1611,2744 1608,2744 1607,2743 1602,2743 1601,2744 1596,2744 1595,2745 1589,2745 1588,2744 1568,2744 1567,2743 1565,2743 1564,2742 1563,2742 1562,2741 1560,2741 1559,2740" fill="rgba(218,58,254,0.3)" stroke="rgb(218,58,254)" stroke-width="2" data-block-id="0008" data-name="b-0015" /><text x="982" y="2912" text-anchor="middle" dominant-baseline="middle" class="block-label" fill="rgb(218,58,254)" stroke="white" stroke-width="3" paint-order="stroke">b-0015</text><polygon points="908,261 907,262 862,262 861,263 858,263 857,264 856,264 855,265 854,265 852,267 852,268 851,269 851,302 850,303 850,341 849,342 849,352 848,353 848,355 847,356 847,359 846,360 846,379 847,380 847,406 846,407 846,437 847,438 847,445 848,446 848,450 847,451 847,463 848,464 848,474 849,475 849,512 850,513 850,529 851,530 851,536 852,537 852,540 853,541 853,548 854,549 854,584 853,585 853,611 852,612 853,613 853,616 854,617 854,618 855,619 855,620 858,623 859,623 860,624 862,624 863,625 887,625 888,626 1012,626 1013,627 1076,627 1077,628 1124,628 1125,629 1133,629 1134,630 1154,630 1155,629 1159,629 1160,628 1178,628 1179,629 1204,629 1205,628 1218,628 1219,629 1292,629 1293,630 1299,630 1300,629 1308,629 1309,630 1315,630 1316,631 1324,631 1325,632 1388,632 1389,631 1400,631 1401,632 1402,631 1423,631 1424,632 1427,632 1428,631 1488,631 1489,630 1493,630 1494,629 1498,629 1499,628 1518,628 1519,629 1531,629 1532,628 1537,628 1538,629 1549,629 1550,628 1609,628 1610,629 1617,629 1618,628 1620,628 1621,627 1622,627 1625,624 1625,623 1626,622 1626,620 1627,619 1627,618 1628,617 1628,616 1629,615 1629,490 1630,489 1630,473 1631,472 1631,381 1632,380 1632,373 1631,372 1631,322 1632,321 1632,296 1633,295 1633,289 1632,288 1632,281 1631,280 1631,275 1630,274 1630,271 1629,270 1629,269 1628,268 1627,268 1626,267 1623,267 1622,266 1448,266 1447,267 1415,267 1414,266 1274,266 1273,267 1269,267 1268,266 1239,266 1238,265 1206,265 1205,264 1178,264 1177,265 1173,265 1172,264 1138,264 1137,263 1090,263 1089,262 1047,262 1046,263 1038,263 1037,262 991,262 990,261" fill="rgba(207,14,189,0.3)" stroke="rgb(207,14,189)" stroke-width="2" data-block-id="0009" data-name="b-0017" /><text x="1212" y="472" text-anchor="middle" dominant-baseline="middle" class="block-label" fill="rgb(207,14,189)" stroke="white" stroke-width="3" paint-order="stroke">b-0017</text><polygon points="1877,1777 1876,1778 1855,1778 1854,1779 1838,1779 1837,1778 1829,1778 1828,1779 1825,1779 1824,1780 1822,1780 1821,1781 1820,1781 1817,1784 1817,1785 1816,1786 1816,1850 1817,1851 1817,1898 1818,1899 1818,1923 1817,1924 1817,1944 1818,1945 1818,1961 1817,1962 1817,1986 1816,1987 1816,2020 1817,2021 1817,2034 1816,2035 1816,2044 1817,2045 1817,2136 1818,2137 1818,2142 1819,2143 1819,2144 1822,2147 1829,2147 1830,2148 1888,2148 1889,2147 1907,2147 1908,2148 1924,2148 1925,2147 2016,2147 2017,2146 2026,2146 2027,2147 2056,2147 2057,2146 2075,2146 2076,2147 2085,2147 2086,2146 2090,2146 2091,2145 2095,2145 2096,2144 2097,2144 2098,2145 2124,2145 2125,2146 2139,2146 2140,2145 2171,2145 2172,2146 2182,2146 2183,2145 2187,2145 2188,2144 2196,2144 2197,2145 2235,2145 2236,2144 2245,2144 2246,2145 2271,2145 2272,2146 2277,2146 2278,2145 2295,2145 2296,2146 2301,2146 2302,2145 2313,2145 2314,2146 2325,2146 2326,2145 2328,2145 2329,2144 2331,2144 2332,2143 2335,2143 2336,2144 2337,2144 2338,2145 2341,2145 2342,2146 2351,2146 2352,2145 2359,2145 2360,2144 2369,2144 2370,2143 2378,2143 2379,2142 2384,2142 2385,2143 2410,2143 2411,2144 2424,2144 2425,2143 2435,2143 2436,2144 2447,2144 2448,2143 2458,2143 2459,2144 2467,2144 2468,2143 2496,2143 2497,2142 2514,2142 2515,2141 2521,2141 2522,2140 2536,2140 2537,2139 2564,2139 2565,2138 2573,2138 2574,2137 2577,2137 2578,2136 2580,2136 2581,2135 2582,2135 2585,2132 2585,2129 2586,2128 2586,2121 2587,2120 2587,2092 2586,2091 2586,2058 2585,2057 2585,2049 2586,2048 2586,2041 2587,2040 2587,2026 2586,2025 2586,2018 2585,2017 2585,2008 2586,2007 2586,1969 2585,1968 2585,1950 2586,1949 2586,1930 2585,1929 2585,1854 2586,1853 2586,1833 2585,1832 2585,1805 2584,1804 2584,1798 2583,1797 2583,1790 2582,1789 2582,1787 2580,1785 2579,1785 2578,1784 2577,1784 2576,1783 2574,1783 2573,1782 2560,1782 2559,1783 2540,1783 2539,1784 2537,1784 2536,1783 2528,1783 2527,1782 2522,1782 2521,1783 2513,1783 2512,1784 2501,1784 2500,1785 2482,1785 2481,1784 2475,1784 2474,1783 2470,1783 2469,1782 2466,1782 2465,1781 2462,1781 2461,1780 2458,1780 2457,1779 2444,1779 2443,1780 2437,1780 2436,1779 2420,1779 2419,1780 2409,1780 2408,1779 2403,1779 2402,1780 2385,1780 2384,1779 2378,1779 2377,1780 2342,1780 2341,1781 2337,1781 2336,1782 2332,1782 2331,1781 2330,1781 2329,1780 2327,1780 2326,1779 2324,1779 2323,1778 2308,1778 2307,1779 2295,1779 2294,1778 2275,1778 2274,1779 2242,1779 2241,1778 2234,1778 2233,1779 2138,1779 2137,1778 2123,1778 2122,1779 2091,1779 2090,1778 2076,1778 2075,1779 2044,1779 2043,1778 1995,1778 1994,1779 1934,1779 1933,1778 1882,1778 1881,1777" fill="rgba(189,174,189,0.3)" stroke="rgb(189,174,189)" stroke-width="2" data-block-id="0010" data-name="b-0018" /><text x="2276" y="1967" text-anchor="middle" dominant-baseline="middle" class="block-label" fill="rgb(189,174,189)" stroke="white" stroke-width="3" paint-order="stroke">b-0018</text><polygon points="1269,747 1268,748 1262,748 1261,749 1255,749 1254,748 1240,748 1239,749 1226,749 1225,748 1221,748 1220,749 1203,749 1202,748 1191,748 1190,749 1174,749 1173,750 1169,750 1168,751 1165,751 1164,752 1144,752 1143,753 1134,753 1133,754 1123,754 1122,753 1086,753 1085,754 1078,754 1077,753 1067,753 1066,752 1065,753 1047,753 1046,754 1035,754 1034,755 1031,755 1030,754 1024,754 1023,753 1004,753 1003,754 987,754 986,755 985,755 984,754 977,754 976,753 928,753 927,752 909,752 908,753 887,753 886,752 865,752 864,753 863,753 862,754 861,754 856,759 856,760 855,761 855,762 854,763 854,764 853,765 853,766 852,767 852,777 853,778 853,782 852,783 852,786 851,787 851,792 850,793 850,798 851,799 851,814 852,815 852,820 851,821 851,832 852,833 852,838 853,839 853,845 852,846 852,878 851,879 851,883 850,884 850,923 849,924 849,926 847,928 847,929 846,930 846,932 845,933 845,966 846,967 846,973 845,974 845,978 844,979 844,992 845,993 845,1004 844,1005 844,1012 843,1013 843,1018 842,1019 842,1022 843,1023 843,1039 842,1040 842,1053 843,1054 843,1088 842,1089 842,1090 843,1091 843,1096 844,1097 844,1101 845,1102 845,1104 846,1105 846,1106 847,1107 847,1108 850,1111 851,1111 852,1112 867,1112 868,1113 871,1113 872,1114 874,1114 875,1115 879,1115 880,1114 882,1114 883,1113 886,1113 887,1112 892,1112 893,1113 904,1113 905,1112 908,1112 909,1111 919,1111 920,1112 929,1112 930,1111 947,1111 948,1112 950,1112 951,1111 966,1111 967,1112 977,1112 978,1111 992,1111 993,1112 1000,1112 1001,1111 1015,1111 1016,1112 1024,1112 1025,1111 1063,1111 1064,1112 1075,1112 1076,1111 1083,1111 1084,1112 1101,1112 1102,1113 1103,1113 1104,1112 1112,1112 1113,1111 1121,1111 1122,1112 1133,1112 1134,1113 1159,1113 1160,1114 1171,1114 1172,1113 1181,1113 1182,1114 1209,1114 1210,1115 1214,1115 1215,1114 1241,1114 1242,1115 1249,1115 1250,1114 1258,1114 1259,1113 1261,1113 1262,1114 1303,1114 1304,1113 1314,1113 1315,1114 1359,1114 1360,1113 1411,1113 1412,1114 1428,1114 1429,1115 1440,1115 1441,1114 1445,1114 1446,1113 1449,1113 1450,1112 1453,1112 1454,1113 1472,1113 1473,1114 1489,1114 1490,1113 1495,1113 1496,1112 1498,1112 1499,1113 1503,1113 1504,1114 1515,1114 1516,1113 1519,1113 1520,1112 1523,1112 1524,1113 1525,1113 1526,1114 1528,1114 1529,1115 1532,1115 1533,1116 1539,1116 1540,1115 1547,1115 1548,1116 1566,1116 1567,1115 1599,1115 1600,1116 1610,1116 1611,1115 1617,1115 1618,1114 1620,1114 1625,1109 1625,1108 1626,1107 1626,1104 1627,1103 1627,1051 1628,1050 1628,1042 1627,1041 1627,1022 1628,1021 1628,1018 1627,1017 1627,988 1626,987 1626,982 1627,981 1627,975 1628,974 1628,963 1627,962 1627,961 1628,960 1628,951 1629,950 1629,946 1628,945 1628,936 1627,935 1627,929 1626,928 1626,924 1625,923 1625,907 1626,906 1626,896 1625,895 1625,891 1624,890 1624,846 1623,845 1623,833 1624,832 1624,824 1623,823 1623,812 1624,811 1624,774 1623,773 1623,765 1622,764 1622,760 1621,759 1621,758 1619,756 1618,756 1617,755 1616,755 1615,754 1612,754 1611,753 1608,753 1607,752 1599,752 1598,753 1582,753 1581,754 1574,754 1573,755 1564,755 1563,754 1553,754 1552,755 1539,755 1538,756 1531,756 1530,755 1514,755 1513,754 1507,754 1506,755 1495,755 1494,756 1478,756 1477,755 1459,755 1458,756 1435,756 1434,755 1432,755 1431,754 1424,754 1423,753 1408,753 1407,754 1400,754 1399,753 1391,753 1390,752 1370,752 1369,751 1353,751 1352,750 1335,750 1334,751 1325,751 1324,750 1313,750 1312,749 1305,749 1304,748 1275,748 1274,747" fill="rgba(50,107,54,0.3)" stroke="rgb(50,107,54)" stroke-width="2" data-block-id="0011" data-name="b-0019" /><text x="1222" y="934" text-anchor="middle" dominant-baseline="middle" class="block-label" fill="rgb(50,107,54)" stroke="white" stroke-width="3" paint-order="stroke">b-0019</text><polygon points="1835,750 1834,751 1823,751 1822,752 1821,752 1818,755 1818,757 1817,758 1817,768 1816,769 1816,814 1817,815 1817,818 1816,819 1816,834 1817,835 1817,875 1816,876 1816,1003 1817,1004 1817,1054 1816,1055 1816,1098 1817,1099 1817,1105 1818,1106 1818,1107 1819,1108 1819,1109 1821,1111 1822,1111 1823,1112 1826,1112 1827,1113 1830,1113 1831,1114 1835,1114 1836,1115 1842,1115 1843,1116 1877,1116 1878,1117 1888,1117 1889,1116 1892,1116 1893,1117 1910,1117 1911,1116 1921,1116 1922,1117 1935,1117 1936,1118 1957,1118 1958,1117 1969,1117 1970,1118 1975,1118 1976,1119 1981,1119 1982,1120 2000,1120 2001,1119 2003,1119 2004,1118 2007,1118 2008,1117 2027,1117 2028,1118 2041,1118 2042,1117 2052,1117 2053,1118 2109,1118 2110,1117 2122,1117 2123,1118 2148,1118 2149,1119 2186,1119 2187,1118 2220,1118 2221,1119 2230,1119 2231,1118 2315,1118 2316,1119 2324,1119 2325,1118 2343,1118 2344,1117 2359,1117 2360,1118 2377,1118 2378,1117 2386,1117 2387,1118 2457,1118 2458,1119 2500,1119 2501,1120 2573,1120 2574,1119 2577,1119 2578,1118 2580,1118 2581,1117 2582,1117 2585,1114 2585,1108 2586,1107 2586,1093 2585,1092 2585,1071 2586,1070 2586,1063 2585,1062 2585,1052 2584,1051 2584,1047 2583,1046 2583,1035 2582,1034 2582,1026 2581,1025 2581,1015 2582,1014 2582,1010 2583,1009 2583,992 2582,991 2582,979 2583,978 2583,964 2582,963 2582,956 2583,955 2583,921 2582,920 2582,908 2583,907 2583,904 2584,903 2584,898 2583,897 2583,893 2582,892 2582,860 2583,859 2583,851 2584,850 2584,836 2583,835 2583,832 2582,831 2582,825 2583,824 2583,819 2584,818 2584,813 2583,812 2583,804 2582,803 2582,799 2581,798 2581,793 2580,792 2580,791 2581,790 2581,774 2580,773 2580,768 2578,766 2578,765 2577,764 2576,764 2575,763 2574,763 2573,762 2570,762 2569,761 2560,761 2559,760 2555,760 2554,759 2552,759 2551,758 2538,758 2537,757 2514,757 2513,756 2499,756 2498,755 2486,755 2485,756 2481,756 2480,757 2479,757 2478,758 2472,758 2471,757 2467,757 2466,756 2453,756 2452,755 2437,755 2436,754 2423,754 2422,753 2412,753 2411,754 2384,754 2383,753 2364,753 2363,754 2354,754 2353,753 2348,753 2347,752 2338,752 2337,753 2329,753 2328,752 2313,752 2312,753 2303,753 2302,752 2268,752 2267,751 2234,751 2233,750 2223,750 2222,751 2203,751 2202,752 2193,752 2192,753 2187,753 2186,752 2160,752 2159,751 2145,751 2144,752 2143,752 2142,751 2098,751 2097,752 2088,752 2087,751 2078,751 2077,752 2066,752 2065,751 2051,751 2050,752 2044,752 2043,751 2008,751 2007,752 2002,752 2001,753 1994,753 1993,752 1983,752 1982,751 1971,751 1970,750 1957,750 1956,751 1945,751 1944,750 1936,750 1935,751 1920,751 1919,750 1911,750 1910,751 1876,751 1875,750 1861,750 1860,751 1849,751 1848,750" fill="rgba(243,63,248,0.3)" stroke="rgb(243,63,248)" stroke-width="2" data-block-id="0012" data-name="b-0020" /><text x="2245" y="908" text-anchor="middle" dominant-baseline="middle" class="block-label" fill="rgb(243,63,248)" stroke="white" stroke-width="3" paint-order="stroke">b-0020</text><polygon points="2166,1228 2165,1229 2102,1229 2101,1230 2077,1230 2076,1229 2069,1229 2068,1230 1930,1230 1929,1229 1926,1229 1925,1230 1907,1230 1906,1229 1901,1229 1900,1230 1884,1230 1883,1229 1876,1229 1875,1230 1829,1230 1828,1231 1825,1231 1824,1232 1822,1232 1818,1236 1818,1254 1817,1255 1817,1280 1818,1281 1818,1360 1817,1361 1817,1377 1818,1378 1818,1383 1817,1384 1817,1393 1816,1394 1816,1396 1815,1397 1815,1400 1814,1401 1814,1429 1813,1430 1813,1548 1812,1549 1812,1565 1813,1566 1813,1584 1814,1585 1814,1586 1815,1587 1815,1588 1817,1590 1818,1590 1819,1591 1843,1591 1844,1592 1963,1592 1964,1593 1965,1593 1966,1592 1981,1592 1982,1593 2012,1593 2013,1592 2033,1592 2034,1593 2098,1593 2099,1592 2104,1592 2105,1591 2106,1591 2107,1592 2111,1592 2112,1593 2115,1593 2116,1594 2147,1594 2148,1593 2213,1593 2214,1592 2219,1592 2220,1591 2223,1591 2224,1590 2231,1590 2232,1591 2255,1591 2256,1592 2268,1592 2269,1593 2313,1593 2314,1592 2319,1592 2320,1591 2403,1591 2404,1592 2423,1592 2424,1591 2428,1591 2429,1590 2447,1590 2448,1591 2460,1591 2461,1592 2484,1592 2485,1593 2506,1593 2507,1594 2525,1594 2526,1593 2569,1593 2570,1592 2574,1592 2575,1591 2577,1591 2578,1590 2579,1590 2581,1588 2582,1588 2584,1586 2584,1584 2585,1583 2585,1577 2584,1576 2584,1569 2585,1568 2585,1554 2584,1553 2584,1539 2585,1538 2585,1534 2584,1533 2584,1503 2583,1502 2584,1501 2584,1493 2585,1492 2585,1448 2586,1447 2586,1433 2585,1432 2585,1428 2586,1427 2586,1419 2587,1418 2587,1382 2586,1381 2586,1376 2587,1375 2587,1366 2586,1365 2586,1292 2585,1291 2585,1286 2586,1285 2586,1248 2585,1247 2585,1243 2584,1242 2584,1239 2583,1238 2583,1237 2581,1235 2580,1235 2579,1234 2578,1234 2577,1233 2574,1233 2573,1232 2541,1232 2540,1231 2534,1231 2533,1232 2485,1232 2484,1233 2479,1233 2478,1234 2475,1234 2474,1233 2470,1233 2469,1232 2444,1232 2443,1231 2434,1231 2433,1230 2387,1230 2386,1231 2374,1231 2373,1230 2361,1230 2360,1231 2356,1231 2355,1230 2327,1230 2326,1229 2317,1229 2316,1230 2301,1230 2300,1229 2294,1229 2293,1230 2284,1230 2283,1229 2218,1229 2217,1230 2210,1230 2209,1229 2170,1229 2169,1228" fill="rgba(130,228,50,0.3)" stroke="rgb(130,228,50)" stroke-width="2" data-block-id="0013" data-name="b-0021" /><text x="2259" y="1412" text-anchor="middle" dominant-baseline="middle" class="block-label" fill="rgb(130,228,50)" stroke="white" stroke-width="3" paint-order="stroke">b-0021</text><polygon points="2985,752 2984,753 2978,753 2977,754 2879,754 2878,755 2863,755 2862,754 2825,754 2824,755 2799,755 2798,756 2779,756 2778,755 2765,755 2764,756 2743,756 2742,757 2737,757 2736,758 2731,758 2730,759 2727,759 2726,760 2725,760 2720,765 2720,766 2718,768 2718,778 2719,779 2719,783 2718,784 2718,789 2717,790 2717,796 2718,797 2718,814 2717,815 2717,831 2716,832 2716,841 2717,842 2717,855 2718,856 2718,876 2719,877 2719,892 2718,893 2718,943 2717,944 2717,949 2718,950 2718,961 2719,962 2719,974 2718,975 2718,978 2717,979 2717,984 2716,985 2716,986 2717,987 2717,1001 2718,1002 2718,1014 2717,1015 2717,1038 2718,1039 2718,1069 2717,1070 2717,1092 2718,1093 2718,1103 2719,1104 2719,1107 2720,1108 2720,1110 2721,1111 2721,1113 2725,1117 2726,1117 2727,1118 2728,1118 2729,1119 2731,1119 2732,1120 2772,1120 2773,1121 2786,1121 2787,1122 2795,1122 2796,1121 2804,1121 2805,1120 2815,1120 2816,1119 2817,1120 2827,1120 2828,1121 2836,1121 2837,1120 2850,1120 2851,1119 2861,1119 2862,1118 2868,1118 2869,1119 2905,1119 2906,1118 2914,1118 2915,1119 2921,1119 2922,1120 2927,1120 2928,1119 2934,1119 2935,1118 2940,1118 2941,1119 2988,1119 2989,1120 2999,1120 3000,1119 3041,1119 3042,1120 3046,1120 3047,1119 3071,1119 3072,1120 3302,1120 3303,1119 3323,1119 3324,1118 3330,1118 3331,1117 3343,1117 3344,1118 3355,1118 3356,1119 3357,1118 3472,1118 3473,1117 3476,1117 3477,1116 3478,1116 3481,1113 3481,1109 3482,1108 3482,1095 3483,1094 3483,1090 3482,1089 3482,1002 3481,1001 3481,981 3482,980 3482,960 3481,959 3481,929 3482,928 3482,921 3481,920 3481,905 3482,904 3482,897 3481,896 3481,861 3480,860 3480,853 3479,852 3479,851 3480,850 3480,807 3481,806 3481,794 3480,793 3480,765 3479,764 3479,762 3478,761 3478,760 3475,757 3473,757 3472,756 3457,756 3456,755 3340,755 3339,756 3323,756 3322,755 3286,755 3285,754 3256,754 3255,755 3246,755 3245,754 3235,754 3234,753 3224,753 3223,754 3192,754 3191,753 3178,753 3177,754 3075,754 3074,755 3051,755 3050,754 3016,754 3015,755 3006,755 3005,754 3003,754 3002,753 2997,753 2996,752" fill="rgba(134,20,72,0.3)" stroke="rgb(134,20,72)" stroke-width="2" data-block-id="0014" data-name="b-0022" /><text x="3020" y="938" text-anchor="middle" dominant-baseline="middle" class="block-label" fill="rgb(134,20,72)" stroke="white" stroke-width="3" paint-order="stroke">b-0022</text><polygon points="863,1228 862,1229 860,1229 859,1230 857,1230 856,1231 854,1231 853,1232 852,1232 851,1233 850,1233 848,1235 847,1235 847,1236 845,1238 845,1245 844,1246 844,1279 843,1280 843,1293 842,1294 842,1299 843,1300 843,1307 844,1308 844,1311 843,1312 843,1331 842,1332 842,1334 843,1335 843,1354 844,1355 844,1367 845,1368 844,1369 844,1376 843,1377 843,1400 844,1401 844,1414 845,1415 845,1416 844,1417 844,1423 843,1424 843,1448 842,1449 842,1468 843,1469 843,1480 842,1481 842,1517 843,1518 843,1566 842,1567 842,1580 843,1581 843,1584 844,1584 846,1586 848,1586 849,1587 851,1587 852,1588 854,1588 855,1589 858,1589 859,1590 864,1590 865,1591 882,1591 883,1590 933,1590 934,1589 941,1589 942,1590 957,1590 958,1589 962,1589 963,1590 977,1590 978,1589 994,1589 995,1590 998,1590 999,1589 1015,1589 1016,1590 1023,1590 1024,1589 1064,1589 1065,1590 1069,1590 1070,1589 1221,1589 1222,1588 1240,1588 1241,1589 1283,1589 1284,1588 1359,1588 1360,1587 1383,1587 1384,1586 1430,1586 1431,1585 1460,1585 1461,1586 1481,1586 1482,1587 1494,1587 1495,1586 1501,1586 1502,1587 1513,1587 1514,1586 1540,1586 1541,1585 1547,1585 1548,1586 1561,1586 1562,1585 1571,1585 1572,1584 1582,1584 1583,1583 1594,1583 1595,1584 1607,1584 1608,1583 1609,1583 1610,1582 1611,1582 1613,1580 1614,1580 1619,1575 1619,1574 1620,1573 1620,1566 1619,1565 1619,1553 1620,1552 1620,1548 1619,1547 1619,1543 1618,1542 1618,1529 1619,1528 1619,1506 1620,1505 1620,1496 1619,1495 1619,1488 1620,1487 1620,1486 1621,1485 1621,1484 1622,1483 1622,1481 1623,1480 1623,1478 1624,1477 1624,1470 1625,1469 1625,1460 1624,1459 1624,1454 1623,1453 1623,1451 1624,1450 1624,1435 1623,1434 1623,1423 1624,1422 1624,1411 1623,1410 1623,1402 1624,1401 1624,1395 1625,1394 1625,1391 1624,1390 1624,1375 1625,1374 1625,1366 1624,1365 1624,1362 1623,1361 1623,1354 1624,1353 1624,1349 1625,1348 1625,1345 1624,1344 1624,1342 1623,1341 1623,1339 1622,1338 1622,1336 1621,1335 1621,1330 1622,1329 1622,1324 1623,1323 1623,1318 1622,1317 1622,1303 1623,1302 1623,1268 1622,1267 1622,1256 1623,1255 1623,1246 1622,1245 1622,1240 1621,1239 1621,1238 1618,1235 1616,1235 1615,1234 1611,1234 1610,1233 1597,1233 1596,1234 1588,1234 1587,1233 1580,1233 1579,1234 1574,1234 1573,1235 1565,1235 1564,1234 1560,1234 1559,1233 1556,1233 1555,1234 1550,1234 1549,1235 1537,1235 1536,1234 1531,1234 1530,1235 1517,1235 1516,1234 1512,1234 1511,1233 1508,1233 1507,1234 1503,1234 1502,1235 1478,1235 1477,1236 1472,1236 1471,1235 1467,1235 1466,1234 1457,1234 1456,1235 1453,1235 1452,1236 1446,1236 1445,1235 1438,1235 1437,1234 1422,1234 1421,1233 1416,1233 1415,1232 1412,1232 1411,1233 1405,1233 1404,1234 1400,1234 1399,1233 1393,1233 1392,1232 1389,1232 1388,1233 1383,1233 1382,1234 1374,1234 1373,1233 1369,1233 1368,1232 1362,1232 1361,1233 1352,1233 1351,1232 1346,1232 1345,1231 1338,1231 1337,1232 1324,1232 1323,1231 1311,1231 1310,1232 1305,1232 1304,1231 1289,1231 1288,1232 1277,1232 1276,1231 1267,1231 1266,1232 1262,1232 1261,1233 1252,1233 1251,1232 1241,1232 1240,1231 1232,1231 1231,1232 1228,1232 1227,1233 1218,1233 1217,1232 1155,1232 1154,1231 1148,1231 1147,1232 1107,1232 1106,1231 1098,1231 1097,1232 1088,1232 1087,1231 1076,1231 1075,1232 1010,1232 1009,1231 965,1231 964,1230 893,1230 892,1229 882,1229 881,1228" fill="rgba(166,17,131,0.3)" stroke="rgb(166,17,131)" stroke-width="2" data-block-id="0015" data-name="b-0023" /><text x="1303" y="1378" text-anchor="middle" dominant-baseline="middle" class="block-label" fill="rgb(166,17,131)" stroke="white" stroke-width="3" paint-order="stroke">b-0023</text><polygon points="3388,2245 3387,2246 3377,2246 3376,2247 3343,2247 3342,2248 3338,2248 3337,2249 3334,2249 3333,2250 3328,2250 3327,2249 3323,2249 3322,2248 3316,2248 3315,2247 3300,2247 3299,2248 3279,2248 3278,2249 3267,2249 3266,2248 3230,2248 3229,2249 3218,2249 3217,2248 3205,2248 3204,2249 3132,2249 3131,2250 3119,2250 3118,2249 3111,2249 3110,2250 3066,2250 3065,2251 3052,2251 3051,2250 3041,2250 3040,2251 3009,2251 3008,2252 2955,2252 2954,2253 2946,2253 2945,2254 2937,2254 2936,2255 2934,2255 2933,2254 2914,2254 2913,2253 2907,2253 2906,2252 2854,2252 2853,2251 2852,2251 2851,2252 2837,2252 2836,2251 2820,2251 2819,2252 2776,2252 2775,2253 2762,2253 2761,2252 2752,2252 2751,2253 2734,2253 2731,2256 2731,2258 2730,2259 2730,2285 2729,2286 2729,2318 2730,2319 2730,2333 2729,2334 2729,2354 2728,2355 2728,2369 2729,2370 2729,2373 2728,2374 2728,2382 2727,2383 2727,2389 2726,2390 2726,2395 2725,2396 2725,2411 2724,2412 2724,2484 2725,2485 2725,2496 2724,2497 2724,2511 2725,2512 2725,2541 2724,2542 2724,2561 2725,2562 2725,2567 2724,2568 2724,2602 2725,2603 2725,2607 2726,2608 2726,2609 2727,2610 2727,2611 2728,2612 2729,2612 2730,2613 2731,2613 2732,2614 2736,2614 2737,2615 2746,2615 2747,2616 2748,2616 2749,2615 2766,2615 2767,2616 2772,2616 2773,2615 2785,2615 2786,2616 2813,2616 2814,2617 2819,2617 2820,2616 2825,2616 2826,2615 2852,2615 2853,2614 2890,2614 2891,2613 2956,2613 2957,2612 2993,2612 2994,2613 2997,2613 2998,2612 3095,2612 3096,2611 3143,2611 3144,2610 3175,2610 3176,2611 3198,2611 3199,2610 3212,2610 3213,2611 3239,2611 3240,2610 3259,2610 3260,2609 3339,2609 3340,2608 3347,2608 3348,2607 3351,2607 3352,2606 3356,2606 3357,2607 3358,2607 3359,2608 3360,2608 3361,2609 3365,2609 3366,2610 3435,2610 3436,2609 3447,2609 3448,2610 3449,2610 3450,2609 3477,2609 3478,2608 3482,2608 3483,2607 3485,2607 3489,2603 3489,2601 3490,2600 3490,2593 3491,2592 3491,2521 3490,2520 3490,2500 3491,2499 3491,2483 3490,2482 3490,2449 3491,2448 3491,2437 3490,2436 3490,2398 3491,2397 3491,2380 3490,2379 3490,2320 3489,2319 3489,2307 3490,2306 3490,2287 3489,2286 3489,2256 3488,2255 3488,2251 3484,2247 3479,2247 3478,2246 3468,2246 3467,2247 3455,2247 3454,2246 3444,2246 3443,2247 3400,2247 3399,2246 3393,2246 3392,2245" fill="rgba(88,59,13,0.3)" stroke="rgb(88,59,13)" stroke-width="2" data-block-id="0016" data-name="b-0024" /><text x="3091" y="2424" text-anchor="middle" dominant-baseline="middle" class="block-label" fill="rgb(88,59,13)" stroke="white" stroke-width="3" paint-order="stroke">b-0024</text><polygon points="2900,271 2899,272 2886,272 2885,273 2868,273 2867,272 2838,272 2837,273 2833,273 2832,274 2787,274 2786,275 2760,275 2759,274 2754,274 2753,275 2739,275 2738,276 2725,276 2724,277 2721,277 2718,280 2718,282 2717,283 2717,288 2716,289 2716,296 2715,297 2715,307 2716,308 2716,312 2717,313 2717,329 2718,330 2718,356 2717,357 2717,408 2718,409 2718,466 2717,467 2717,487 2718,488 2718,495 2719,496 2718,497 2718,517 2719,518 2719,546 2718,547 2718,569 2719,570 2719,593 2718,594 2718,613 2717,614 2717,628 2718,629 2718,633 2719,634 2719,636 2720,637 2720,638 2722,640 2723,640 2724,641 2732,641 2733,642 2754,642 2755,641 2770,641 2771,640 2816,640 2817,639 2835,639 2836,640 2859,640 2860,639 2917,639 2918,638 2942,638 2943,637 2956,637 2957,638 3041,638 3042,639 3054,639 3055,638 3075,638 3076,639 3259,639 3260,640 3315,640 3316,641 3320,641 3321,640 3342,640 3343,639 3360,639 3361,640 3403,640 3404,639 3427,639 3428,640 3456,640 3457,639 3465,639 3466,638 3469,638 3470,637 3472,637 3473,636 3474,636 3474,635 3475,634 3475,632 3476,631 3476,629 3477,628 3477,557 3476,556 3476,501 3475,500 3475,480 3476,479 3476,416 3475,415 3475,409 3476,408 3476,388 3475,387 3475,308 3476,307 3476,302 3475,301 3475,292 3474,291 3474,288 3473,287 3473,285 3472,284 3472,282 3471,282 3470,281 3469,281 3468,280 3465,280 3464,279 3458,279 3457,278 3423,278 3422,279 3412,279 3411,278 3363,278 3362,277 3344,277 3343,278 3324,278 3323,277 3287,277 3286,276 3254,276 3253,275 3138,275 3137,276 3123,276 3122,275 3048,275 3047,274 2981,274 2980,273 2968,273 2967,274 2963,274 2962,275 2947,275 2946,274 2942,274 2941,273 2913,273 2912,272 2903,272 2902,271" fill="rgba(241,249,8,0.3)" stroke="rgb(241,249,8)" stroke-width="2" data-block-id="0017" data-name="b-0025" /><text x="3066" y="441" text-anchor="middle" dominant-baseline="middle" class="block-label" fill="rgb(241,249,8)" stroke="white" stroke-width="3" paint-order="stroke">b-0025</text><polygon points="3305,1770 3304,1771 3281,1771 3280,1772 3267,1772 3266,1771 3246,1771 3245,1772 3222,1772 3221,1771 3202,1771 3201,1772 3195,1772 3194,1771 3162,1771 3161,1772 3085,1772 3084,1773 3033,1773 3032,1774 3021,1774 3020,1775 3019,1775 3017,1777 3016,1777 3016,1778 3015,1779 3015,1781 3014,1782 3014,1783 3013,1784 3013,1785 3012,1786 3012,1788 3009,1791 3008,1791 3007,1792 3006,1792 3005,1791 3003,1791 2995,1783 2995,1782 2994,1783 2990,1783 2989,1784 2986,1784 2985,1785 2983,1785 2982,1786 2981,1786 2980,1787 2979,1787 2978,1788 2977,1788 2976,1789 2971,1789 2968,1786 2967,1786 2966,1785 2964,1785 2963,1784 2961,1784 2960,1783 2958,1783 2957,1782 2956,1782 2951,1777 2945,1777 2944,1778 2943,1778 2942,1779 2940,1779 2939,1780 2921,1780 2920,1781 2910,1781 2909,1780 2907,1780 2906,1779 2904,1779 2903,1778 2899,1778 2898,1779 2896,1779 2895,1780 2891,1780 2890,1781 2886,1781 2885,1780 2874,1780 2873,1781 2868,1781 2867,1782 2866,1782 2865,1781 2862,1781 2861,1780 2860,1780 2859,1779 2858,1779 2856,1777 2850,1777 2848,1779 2846,1779 2845,1780 2841,1780 2840,1781 2833,1781 2832,1782 2829,1782 2828,1783 2817,1783 2816,1782 2814,1782 2813,1781 2812,1781 2811,1780 2810,1780 2809,1779 2802,1779 2801,1780 2799,1780 2798,1781 2796,1781 2795,1782 2791,1782 2790,1783 2788,1783 2786,1785 2785,1785 2783,1787 2782,1787 2781,1788 2779,1788 2778,1789 2774,1789 2773,1790 2770,1790 2769,1789 2768,1789 2765,1786 2765,1785 2759,1779 2734,1779 2733,1780 2732,1780 2731,1781 2730,1781 2729,1782 2728,1782 2725,1785 2725,1787 2724,1788 2724,1790 2725,1791 2725,1796 2726,1797 2726,1800 2727,1801 2727,1805 2728,1806 2728,1809 2729,1810 2729,1827 2728,1828 2728,1847 2729,1848 2729,1861 2730,1862 2730,1872 2729,1873 2729,1877 2728,1878 2728,1881 2727,1882 2727,1898 2728,1899 2728,1923 2727,1924 2727,1948 2726,1949 2726,1980 2725,1981 2725,1995 2726,1996 2726,2001 2727,2002 2727,2005 2726,2006 2726,2014 2725,2015 2725,2018 2724,2019 2724,2025 2723,2026 2723,2028 2724,2029 2724,2057 2723,2058 2723,2080 2724,2081 2724,2089 2723,2090 2723,2124 2724,2125 2724,2129 2725,2130 2725,2132 2726,2133 2726,2134 2727,2135 2728,2135 2729,2136 2730,2136 2731,2137 2733,2137 2734,2138 2740,2138 2741,2139 2757,2139 2758,2138 2772,2138 2773,2139 2797,2139 2798,2138 2815,2138 2816,2139 2819,2139 2820,2138 2836,2138 2837,2139 2849,2139 2850,2138 2856,2138 2857,2139 2875,2139 2876,2138 2877,2139 2897,2139 2898,2138 2930,2138 2931,2139 2939,2139 2940,2138 2969,2138 2970,2137 3020,2137 3021,2136 3061,2136 3062,2135 3072,2135 3073,2136 3117,2136 3118,2135 3133,2135 3134,2136 3149,2136 3150,2137 3192,2137 3193,2138 3202,2138 3203,2137 3207,2137 3208,2136 3244,2136 3245,2135 3316,2135 3317,2136 3323,2136 3324,2137 3337,2137 3338,2136 3346,2136 3347,2135 3414,2135 3415,2136 3431,2136 3432,2137 3439,2137 3440,2136 3446,2136 3447,2135 3473,2135 3474,2134 3478,2134 3479,2133 3481,2133 3482,2132 3483,2132 3484,2131 3484,2130 3485,2129 3485,2128 3486,2127 3486,2125 3487,2124 3487,2119 3488,2118 3488,2092 3487,2091 3487,2025 3488,2024 3488,2004 3487,2003 3487,1970 3488,1969 3488,1937 3487,1936 3487,1930 3488,1929 3488,1890 3487,1889 3487,1878 3488,1877 3488,1831 3487,1830 3487,1816 3486,1815 3486,1781 3485,1780 3485,1776 3484,1775 3484,1774 3482,1772 3481,1772 3480,1771 3478,1771 3477,1770 3438,1770 3437,1771 3408,1771 3407,1770 3388,1770 3387,1771 3323,1771 3322,1772 3317,1772 3316,1771 3308,1771 3307,1770" fill="rgba(89,52,129,0.3)" stroke="rgb(89,52,129)" stroke-width="2" data-block-id="0018" data-name="b-0026" /><text x="3007" y="1910" text-anchor="middle" dominant-baseline="middle" class="block-label" fill="rgb(89,52,129)" stroke="white" stroke-width="3" paint-order="stroke">b-0026</text><polygon points="2561,2254 2560,2255 2549,2255 2548,2256 2539,2256 2538,2257 2521,2257 2520,2258 2491,2258 2490,2259 2485,2259 2484,2258 2460,2258 2459,2259 2433,2259 2432,2260 2430,2260 2429,2259 2425,2259 2424,2258 2417,2258 2416,2257 2413,2257 2412,2258 2385,2258 2384,2257 2367,2257 2366,2258 2358,2258 2357,2259 2354,2259 2353,2258 2325,2258 2324,2259 2320,2259 2319,2258 2304,2258 2303,2259 2277,2259 2276,2258 2272,2258 2271,2259 2261,2259 2260,2260 2246,2260 2245,2259 2224,2259 2223,2260 2219,2260 2218,2261 2208,2261 2207,2260 2156,2260 2155,2261 2115,2261 2114,2262 2084,2262 2083,2263 2061,2263 2060,2264 2057,2264 2056,2263 2038,2263 2037,2264 1990,2264 1989,2265 1983,2265 1982,2264 1959,2264 1958,2263 1948,2263 1947,2264 1945,2264 1944,2265 1943,2265 1942,2266 1936,2266 1935,2265 1932,2265 1931,2264 1914,2264 1913,2265 1903,2265 1902,2266 1887,2266 1886,2265 1881,2265 1880,2264 1863,2264 1862,2265 1838,2265 1837,2264 1831,2264 1830,2265 1829,2265 1826,2268 1826,2269 1825,2270 1825,2271 1824,2272 1824,2273 1822,2275 1822,2295 1821,2296 1821,2333 1822,2334 1822,2340 1821,2341 1821,2382 1822,2383 1821,2384 1821,2403 1822,2404 1822,2411 1823,2412 1823,2424 1824,2425 1824,2437 1823,2438 1823,2474 1824,2475 1824,2488 1823,2489 1823,2495 1824,2496 1824,2519 1825,2520 1825,2557 1824,2558 1824,2564 1825,2565 1825,2572 1826,2573 1826,2574 1825,2575 1825,2579 1824,2580 1824,2582 1823,2583 1823,2585 1822,2586 1822,2595 1821,2596 1821,2615 1822,2616 1822,2619 1823,2620 1823,2621 1824,2622 1825,2622 1827,2624 1828,2624 1829,2625 1833,2625 1834,2626 1884,2626 1885,2625 1913,2625 1914,2626 1917,2626 1918,2625 1929,2625 1930,2626 1932,2626 1933,2627 1950,2627 1951,2626 1966,2626 1967,2625 1985,2625 1986,2624 2007,2624 2008,2623 2016,2623 2017,2622 2021,2622 2022,2621 2046,2621 2047,2620 2074,2620 2075,2619 2085,2619 2086,2620 2089,2620 2090,2621 2094,2621 2095,2622 2102,2622 2103,2623 2135,2623 2136,2622 2139,2622 2140,2621 2145,2621 2146,2622 2149,2622 2150,2623 2188,2623 2189,2622 2233,2622 2234,2621 2247,2621 2248,2620 2281,2620 2282,2619 2303,2619 2304,2620 2328,2620 2329,2619 2342,2619 2343,2618 2364,2618 2365,2619 2372,2619 2373,2618 2446,2618 2447,2617 2470,2617 2471,2616 2495,2616 2496,2615 2505,2615 2506,2614 2527,2614 2528,2613 2549,2613 2550,2612 2554,2612 2555,2611 2558,2611 2559,2610 2564,2610 2565,2609 2571,2609 2572,2608 2575,2608 2576,2607 2577,2607 2578,2606 2579,2606 2581,2604 2581,2603 2582,2602 2582,2601 2583,2600 2583,2597 2584,2596 2584,2513 2585,2512 2585,2500 2584,2499 2584,2483 2585,2482 2585,2476 2584,2475 2584,2467 2585,2466 2585,2460 2586,2459 2586,2453 2587,2452 2587,2438 2586,2437 2586,2433 2585,2432 2585,2380 2586,2379 2586,2372 2587,2371 2587,2368 2588,2367 2588,2361 2589,2360 2589,2345 2588,2344 2588,2330 2589,2329 2589,2317 2588,2316 2588,2308 2589,2307 2589,2295 2588,2294 2588,2286 2589,2285 2589,2270 2588,2269 2588,2262 2587,2261 2587,2259 2586,2258 2586,2257 2584,2255 2582,2255 2581,2254" fill="rgba(83,91,110,0.3)" stroke="rgb(83,91,110)" stroke-width="2" data-block-id="0019" data-name="b-0027" /><text x="2201" y="2435" text-anchor="middle" dominant-baseline="middle" class="block-label" fill="rgb(83,91,110)" stroke="white" stroke-width="3" paint-order="stroke">b-0027</text><polygon points="3028,1230 3027,1231 3018,1231 3017,1232 3008,1232 3007,1233 3006,1232 2985,1232 2984,1233 2983,1233 2982,1232 2967,1232 2966,1233 2954,1233 2953,1232 2932,1232 2931,1233 2895,1233 2894,1232 2882,1232 2881,1231 2821,1231 2820,1232 2774,1232 2773,1233 2768,1233 2767,1232 2732,1232 2731,1233 2728,1233 2727,1234 2726,1234 2723,1237 2723,1239 2722,1240 2722,1256 2721,1257 2721,1400 2722,1401 2722,1430 2723,1431 2723,1438 2724,1439 2724,1446 2723,1447 2723,1455 2724,1456 2724,1489 2725,1490 2725,1495 2724,1496 2724,1582 2725,1583 2725,1585 2726,1586 2726,1587 2729,1590 2730,1590 2731,1591 2733,1591 2734,1592 2741,1592 2742,1593 2764,1593 2765,1592 2781,1592 2782,1593 2801,1593 2802,1592 2818,1592 2819,1593 2827,1593 2828,1594 2842,1594 2843,1593 2847,1593 2848,1592 2855,1592 2856,1591 2908,1591 2909,1592 2916,1592 2917,1593 2932,1593 2933,1592 2946,1592 2947,1591 2969,1591 2970,1590 3006,1590 3007,1591 3029,1591 3030,1592 3035,1592 3036,1591 3048,1591 3049,1590 3067,1590 3068,1591 3089,1591 3090,1590 3095,1590 3096,1591 3111,1591 3112,1590 3134,1590 3135,1589 3145,1589 3146,1590 3181,1590 3182,1589 3193,1589 3194,1590 3222,1590 3223,1589 3323,1589 3324,1588 3475,1588 3476,1587 3479,1587 3480,1586 3481,1586 3482,1585 3483,1585 3484,1584 3484,1583 3485,1582 3485,1565 3484,1564 3484,1495 3483,1494 3483,1438 3482,1437 3482,1411 3483,1410 3483,1385 3482,1384 3482,1325 3483,1324 3483,1319 3482,1318 3482,1261 3481,1260 3481,1244 3480,1243 3480,1237 3479,1236 3479,1235 3476,1232 3475,1232 3474,1231 3417,1231 3416,1232 3409,1232 3408,1231 3369,1231 3368,1232 3365,1232 3364,1231 3335,1231 3334,1232 3325,1232 3324,1231 3226,1231 3225,1232 3200,1232 3199,1231 3180,1231 3179,1232 3157,1232 3156,1231 3121,1231 3120,1230 3103,1230 3102,1231 3075,1231 3074,1232 3053,1232 3052,1231 3043,1231 3042,1230" fill="rgba(187,198,171,0.3)" stroke="rgb(187,198,171)" stroke-width="2" data-block-id="0020" data-name="b-0028" /><text x="3061" y="1414" text-anchor="middle" dominant-baseline="middle" class="block-label" fill="rgb(187,198,171)" stroke="white" stroke-width="3" paint-order="stroke">b-0028</text><polygon points="3329,2722 3328,2723 3323,2723 3322,2724 3317,2724 3316,2725 3311,2725 3310,2726 3304,2726 3303,2725 3299,2725 3298,2724 3292,2724 3291,2723 3282,2723 3281,2724 3277,2724 3276,2725 3274,2725 3273,2726 3255,2726 3254,2725 3232,2725 3231,2726 3216,2726 3215,2727 3208,2727 3207,2726 3190,2726 3189,2727 3146,2727 3145,2728 3136,2728 3135,2729 3133,2729 3132,2730 3131,2730 3129,2732 3129,2737 3128,2738 3128,2773 3127,2774 3127,2784 3128,2785 3128,2850 3129,2851 3129,2859 3130,2860 3130,2866 3129,2867 3129,2891 3128,2892 3128,2901 3129,2902 3129,2935 3128,2936 3128,2961 3127,2962 3127,2991 3126,2992 3126,3015 3125,3016 3126,3017 3126,3031 3127,3032 3127,3055 3128,3056 3128,3059 3129,3060 3129,3061 3131,3063 3132,3063 3133,3064 3136,3064 3137,3065 3147,3065 3148,3066 3152,3066 3153,3067 3155,3067 3156,3068 3158,3068 3159,3069 3162,3069 3163,3070 3178,3070 3179,3069 3183,3069 3184,3068 3187,3068 3188,3067 3191,3067 3192,3066 3195,3066 3196,3065 3224,3065 3225,3066 3229,3066 3230,3067 3236,3067 3237,3068 3251,3068 3252,3067 3255,3067 3256,3066 3259,3066 3260,3065 3264,3065 3265,3064 3275,3064 3276,3065 3279,3065 3280,3066 3296,3066 3297,3065 3299,3065 3300,3064 3302,3064 3303,3063 3304,3063 3306,3061 3307,3061 3308,3060 3309,3060 3310,3059 3313,3059 3314,3058 3317,3058 3318,3057 3324,3057 3325,3056 3330,3056 3336,3062 3337,3062 3338,3063 3340,3063 3341,3064 3345,3064 3346,3063 3348,3063 3349,3062 3351,3062 3352,3061 3354,3061 3355,3060 3472,3060 3473,3061 3481,3061 3482,3060 3488,3060 3489,3059 3490,3059 3493,3056 3493,3054 3494,3053 3494,3023 3493,3022 3493,2996 3492,2995 3492,2990 3493,2989 3493,2966 3494,2965 3494,2943 3493,2942 3493,2883 3494,2882 3494,2859 3493,2858 3493,2805 3492,2804 3492,2799 3493,2798 3493,2765 3492,2764 3492,2740 3491,2739 3491,2727 3490,2726 3490,2725 3487,2722 3437,2722 3436,2723 3361,2723 3360,2724 3355,2724 3354,2725 3343,2725 3342,2724 3338,2724 3337,2723 3333,2723 3332,2722" fill="rgba(131,1,253,0.3)" stroke="rgb(131,1,253)" stroke-width="2" data-block-id="0021" data-name="b-0032" /><text x="3281" y="2925" text-anchor="middle" dominant-baseline="middle" class="block-label" fill="rgb(131,1,253)" stroke="white" stroke-width="3" paint-order="stroke">b-0032</text><polygon points="2161,2738 2160,2739 2064,2739 2063,2740 2056,2740 2055,2739 2041,2739 2040,2740 2030,2740 2029,2741 2013,2741 2012,2742 1980,2742 1979,2741 1938,2741 1937,2742 1897,2742 1896,2743 1865,2743 1864,2744 1859,2744 1858,2745 1840,2745 1839,2746 1831,2746 1830,2747 1828,2747 1827,2748 1826,2748 1822,2752 1822,2753 1821,2754 1821,2759 1820,2760 1820,2821 1821,2822 1821,2831 1820,2832 1820,2846 1821,2847 1821,2855 1820,2856 1820,2864 1821,2865 1821,2879 1820,2880 1820,2954 1821,2955 1821,3037 1822,3038 1822,3043 1821,3044 1821,3063 1822,3064 1822,3071 1823,3072 1823,3075 1824,3076 1825,3076 1827,3078 1829,3078 1830,3079 1837,3079 1838,3080 1872,3080 1873,3081 1884,3081 1885,3080 1922,3080 1923,3081 1932,3081 1933,3080 1944,3080 1945,3081 1965,3081 1966,3080 1981,3080 1982,3079 1994,3079 1995,3080 2171,3080 2172,3079 2179,3079 2180,3078 2181,3078 2182,3077 2183,3077 2185,3075 2185,3073 2186,3072 2186,3065 2187,3064 2187,3037 2186,3036 2186,3024 2187,3023 2187,3002 2186,3001 2186,2984 2185,2983 2185,2965 2184,2964 2184,2949 2183,2948 2183,2921 2184,2920 2184,2912 2185,2911 2185,2908 2184,2907 2184,2903 2183,2902 2183,2889 2184,2888 2184,2860 2183,2859 2183,2789 2184,2788 2184,2762 2183,2761 2183,2753 2182,2752 2182,2744 2181,2743 2181,2742 2180,2741 2179,2741 2178,2740 2177,2740 2176,2739 2171,2739 2170,2738" fill="rgba(133,53,105,0.3)" stroke="rgb(133,53,105)" stroke-width="2" data-block-id="0022" data-name="b-0033" /><text x="2006" y="2904" text-anchor="middle" dominant-baseline="middle" class="block-label" fill="rgb(133,53,105)" stroke="white" stroke-width="3" paint-order="stroke">b-0033</text><polygon points="1824,268 1822,268 1820,270 1820,273 1819,274 1819,284 1818,285 1818,298 1819,299 1819,377 1818,378 1818,394 1819,395 1819,435 1818,436 1819,437 1819,474 1818,475 1818,576 1817,577 1817,586 1818,587 1818,591 1817,592 1817,627 1820,630 1826,630 1827,631 1839,631 1840,630 1850,630 1851,631 1861,631 1862,630 1874,630 1875,631 1943,631 1944,632 1953,632 1954,631 1971,631 1972,632 1978,632 1979,631 1986,631 1987,630 1988,630 1990,628 1990,626 1991,625 1991,624 1992,625 1992,627 1994,629 1995,629 1996,630 2025,630 2026,631 2084,631 2085,632 2096,632 2097,631 2118,631 2119,632 2182,632 2183,633 2278,633 2279,634 2360,634 2361,635 2386,635 2387,636 2397,636 2398,635 2399,636 2431,636 2432,637 2469,637 2470,638 2498,638 2499,639 2520,639 2521,640 2531,640 2532,641 2547,641 2548,642 2552,642 2553,643 2565,643 2566,644 2578,644 2579,643 2580,643 2583,640 2583,638 2584,637 2584,620 2583,619 2583,592 2584,591 2584,588 2583,587 2583,572 2584,571 2584,562 2583,561 2583,547 2584,546 2584,537 2583,536 2583,521 2584,520 2583,519 2583,355 2584,354 2584,342 2583,341 2583,291 2582,290 2582,289 2580,287 2578,287 2577,286 2573,286 2572,285 2567,285 2566,284 2560,284 2559,283 2555,283 2554,282 2551,282 2550,281 2543,281 2542,280 2535,280 2534,279 2527,279 2526,278 2504,278 2503,277 2479,277 2478,276 2450,276 2449,275 2445,275 2444,276 2434,276 2433,275 2386,275 2385,274 2344,274 2343,273 2307,273 2306,274 2303,274 2302,273 2294,273 2293,272 2233,272 2232,271 2214,271 2213,272 2206,272 2205,271 2183,271 2182,270 2167,270 2166,271 2157,271 2156,270 2141,270 2140,269 2114,269 2113,270 2102,270 2101,269 2056,269 2055,270 2053,270 2051,272 2051,274 2050,275 2050,280 2049,281 2049,329 2050,330 2050,366 2049,367 2049,380 2048,381 2048,403 2047,404 2047,397 2046,396 2046,390 2045,389 2045,385 2046,384 2046,379 2047,378 2047,365 2048,364 2048,332 2047,331 2047,284 2048,283 2048,278 2047,277 2047,274 2046,273 2046,271 2045,270 2042,270 2041,269 2005,269 2004,268 1990,268 1989,269 1982,269 1981,268 1865,268 1864,267 1825,267" fill="rgba(43,161,201,0.3)" stroke="rgb(43,161,201)" stroke-width="2" data-block-id="0023" /><text x="2205" y="437" text-anchor="middle" dominant-baseline="middle" class="block-label" fill="rgb(43,161,201)" stroke="white" stroke-width="3" paint-order="stroke">b-0023</text></g>
</svg>