<?xml version='1.0' encoding='utf-8'?>
<svg xmlns="http://www.w3.org/2000/svg" xmlns:atlas="http://example.com/atlas" width="4984" height="3288" viewBox="0 0 4984 3288">
  
  <metadata>
    <atlas:source>
      <atlas:jp2-path>/Users/pwright/workspace/atlas/media/v2/p43.jp2</atlas:jp2-path>
      <atlas:volume>unknown</atlas:volume>
      <atlas:plate-id>p43</atlas:plate-id>
      <atlas:image-width>4984</atlas:image-width>
      <atlas:image-height>3288</atlas:image-height>
    </atlas:source>
  </metadata>

  
  <image id="background" href="file:///Users/pwright/workspace/atlas/media/v2/p43.jp2" width="4984" height="3288" opacity="0.5" />

  <style>
    .block-label { font-family: sans-serif; font-size: 14px; font-weight: bold; }
  </style>

  
  <g id="blocks">
    <polygon points="2455,1275 2454,1276 2444,1276 2443,1277 2439,1277 2438,1278 2437,1278 2436,1279 2436,1280 2435,1281 2435,1284 2434,1285 2434,1290 2433,1291 2433,1301 2432,1302 2432,1309 2433,1310 2433,1389 2432,1390 2432,1446 2431,1447 2431,1449 2432,1450 2432,1480 2431,1481 2431,1493 2432,1494 2432,1511 2431,1512 2431,1521 2432,1522 2432,1575 2433,1576 2433,1588 2432,1589 2432,1594 2433,1595 2433,1606 2432,1607 2432,1617 2433,1618 2433,1624 2434,1625 2434,1633 2435,1634 2435,1638 2436,1639 2436,1640 2437,1640 2438,1641 2439,1641 2440,1642 2444,1642 2445,1643 2451,1643 2452,1644 2520,1644 2521,1643 2564,1643 2565,1642 2576,1642 2577,1641 2588,1641 2589,1640 2597,1640 2598,1639 2603,1639 2604,1638 2646,1638 2647,1639 2673,1639 2674,1640 2685,1640 2686,1639 2714,1639 2715,1640 2733,1640 2734,1639 2737,1639 2738,1640 2765,1640 2766,1641 2776,1641 2777,1640 2810,1640 2811,1641 2855,1641 2856,1642 2878,1642 2879,1643 2900,1643 2901,1644 2922,1644 2923,1645 2930,1645 2931,1644 2947,1644 2948,1645 2971,1645 2972,1646 2973,1646 2974,1645 2982,1645 2983,1644 3067,1644 3068,1645 3079,1645 3080,1644 3110,1644 3111,1645 3154,1645 3155,1646 3171,1646 3172,1645 3196,1645 3197,1646 3227,1646 3228,1645 3235,1645 3236,1646 3263,1646 3264,1645 3272,1645 3273,1644 3316,1644 3317,1643 3326,1643 3327,1644 3355,1644 3356,1643 3363,1643 3364,1642 3387,1642 3388,1643 3442,1643 3443,1644 3455,1644 3456,1643 3483,1643 3484,1644 3526,1644 3527,1643 3549,1643 3550,1642 3624,1642 3625,1643 3658,1643 3659,1644 3672,1644 3673,1645 3681,1645 3682,1646 3689,1646 3690,1647 3699,1647 3700,1648 3719,1648 3720,1647 3733,1647 3734,1648 3741,1648 3742,1647 3837,1647 3838,1646 3848,1646 3849,1645 3886,1645 3887,1644 3891,1644 3892,1643 3906,1643 3907,1644 3933,1644 3934,1643 3940,1643 3941,1642 4036,1642 4037,1643 4038,1643 4039,1642 4046,1642 4047,1643 4073,1643 4074,1642 4076,1642 4077,1641 4079,1641 4080,1640 4081,1640 4082,1639 4083,1639 4084,1638 4084,1637 4085,1636 4085,1630 4086,1629 4086,1624 4087,1623 4087,1620 4088,1619 4088,1616 4089,1615 4089,1610 4088,1609 4088,1571 4087,1570 4087,1564 4088,1563 4088,1555 4089,1554 4089,1550 4090,1549 4090,1539 4089,1538 4089,1533 4088,1532 4088,1524 4089,1523 4089,1519 4088,1518 4088,1514 4087,1513 4087,1501 4088,1500 4088,1494 4089,1493 4089,1491 4088,1490 4088,1470 4087,1469 4087,1429 4088,1428 4088,1416 4087,1415 4087,1395 4088,1394 4088,1331 4089,1330 4089,1329 4088,1328 4088,1323 4087,1322 4087,1318 4086,1317 4086,1310 4085,1309 4085,1305 4084,1304 4084,1295 4083,1294 4083,1292 4079,1288 4078,1288 4077,1287 4075,1287 4074,1286 4028,1286 4027,1287 4001,1287 4000,1286 3982,1286 3981,1287 3940,1287 3939,1286 3816,1286 3815,1285 3801,1285 3800,1286 3777,1286 3776,1287 3731,1287 3730,1288 3721,1288 3720,1287 3711,1287 3710,1286 3697,1286 3696,1285 3681,1285 3680,1286 3675,1286 3674,1285 3650,1285 3649,1286 3643,1286 3642,1287 3617,1287 3616,1286 3569,1286 3568,1285 3538,1285 3537,1284 3474,1284 3473,1283 3472,1284 3441,1284 3440,1285 3437,1285 3436,1284 3349,1284 3348,1285 3318,1285 3317,1284 3299,1284 3298,1285 3295,1285 3294,1284 3220,1284 3219,1283 3125,1283 3124,1282 3114,1282 3113,1283 3099,1283 3098,1284 3075,1284 3074,1283 3060,1283 3059,1284 3058,1284 3057,1283 2978,1283 2977,1282 2934,1282 2933,1281 2886,1281 2885,1282 2877,1282 2876,1281 2855,1281 2854,1282 2835,1282 2834,1281 2803,1281 2802,1282 2792,1282 2791,1281 2771,1281 2770,1282 2769,1281 2742,1281 2741,1280 2666,1280 2665,1281 2649,1281 2648,1280 2643,1280 2642,1279 2634,1279 2633,1280 2625,1280 2624,1279 2611,1279 2610,1280 2600,1280 2599,1279 2588,1279 2587,1278 2573,1278 2572,1277 2507,1277 2506,1276 2474,1276 2473,1275" fill="rgba(74,202,87,0.3)" stroke="rgb(74,202,87)" stroke-width="2" data-block-id="0001" data-name="b-0006" /><text x="3279" y="1479" text-anchor="middle" dominant-baseline="middle" class="block-label" fill="rgb(74,202,87)" stroke="white" stroke-width="3" paint-order="stroke">b-0006</text><polygon points="3329,1755 3328,1756 3306,1756 3305,1757 3300,1757 3299,1758 3292,1758 3291,1757 3286,1757 3285,1756 3273,1756 3272,1757 3269,1757 3268,1758 3265,1758 3264,1759 3231,1759 3230,1760 3222,1760 3221,1761 3215,1761 3214,1762 3206,1762 3205,1761 3192,1761 3191,1760 3177,1760 3176,1761 3166,1761 3165,1762 3158,1762 3157,1761 3124,1761 3123,1762 3095,1762 3094,1761 3080,1761 3079,1762 3049,1762 3048,1761 3023,1761 3022,1760 3020,1760 3019,1761 3009,1761 3008,1760 3002,1760 3001,1759 2972,1759 2971,1760 2958,1760 2957,1759 2924,1759 2923,1760 2920,1760 2919,1761 2917,1761 2916,1762 2911,1762 2910,1761 2906,1761 2905,1760 2895,1760 2894,1761 2886,1761 2885,1762 2864,1762 2863,1761 2845,1761 2844,1762 2817,1762 2816,1761 2802,1761 2801,1760 2771,1760 2770,1759 2766,1759 2765,1758 2762,1758 2761,1757 2747,1757 2746,1758 2741,1758 2740,1759 2723,1759 2722,1758 2718,1758 2717,1757 2713,1757 2712,1756 2694,1756 2693,1757 2689,1757 2688,1758 2684,1758 2683,1759 2678,1759 2677,1760 2674,1760 2673,1759 2667,1759 2666,1758 2655,1758 2654,1759 2644,1759 2643,1760 2626,1760 2625,1759 2616,1759 2615,1758 2603,1758 2602,1759 2592,1759 2591,1760 2580,1760 2579,1759 2570,1759 2569,1758 2553,1758 2552,1759 2539,1759 2538,1760 2529,1760 2528,1759 2506,1759 2505,1760 2493,1760 2492,1761 2482,1761 2481,1760 2477,1760 2476,1759 2468,1759 2467,1760 2452,1760 2451,1761 2446,1761 2445,1762 2443,1762 2442,1763 2439,1763 2437,1765 2436,1765 2436,1766 2435,1767 2435,1768 2434,1769 2434,1792 2433,1793 2433,1831 2432,1832 2432,1851 2433,1852 2433,1892 2432,1893 2432,1909 2433,1910 2433,1920 2432,1921 2432,1927 2433,1928 2433,1978 2432,1979 2432,1993 2431,1994 2431,1998 2432,1999 2432,2097 2433,2098 2433,2116 2434,2117 2434,2118 2436,2120 2437,2120 2438,2121 2441,2121 2442,2122 2448,2122 2449,2123 2453,2123 2454,2124 2458,2124 2459,2125 2509,2125 2510,2126 2517,2126 2518,2125 2526,2125 2527,2124 2547,2124 2548,2123 2551,2123 2552,2122 2555,2122 2556,2121 2564,2121 2565,2120 2571,2120 2572,2119 2574,2119 2575,2118 2577,2118 2578,2117 2600,2117 2601,2116 2604,2116 2605,2117 2610,2117 2611,2118 2616,2118 2617,2119 2618,2118 2622,2118 2623,2117 2627,2117 2628,2116 2630,2116 2631,2117 2638,2117 2639,2118 2644,2118 2645,2117 2653,2117 2654,2118 2658,2118 2659,2119 2669,2119 2670,2118 2680,2118 2681,2119 2685,2119 2686,2120 2689,2120 2690,2119 2694,2119 2695,2118 2705,2118 2706,2119 2716,2119 2717,2118 2730,2118 2731,2119 2741,2119 2742,2118 2750,2118 2751,2119 2756,2119 2757,2120 2760,2120 2761,2119 2764,2119 2765,2118 2767,2118 2768,2117 2770,2117 2771,2116 2773,2116 2774,2117 2780,2117 2781,2118 2785,2118 2786,2117 2791,2117 2792,2116 2799,2116 2800,2117 2812,2117 2813,2116 2817,2116 2818,2115 2822,2115 2823,2116 2842,2116 2843,2117 2850,2117 2851,2118 2860,2118 2861,2117 2874,2117 2875,2118 2892,2118 2893,2119 2900,2119 2901,2120 2904,2120 2905,2119 2911,2119 2912,2118 2915,2118 2916,2119 2919,2119 2920,2120 2923,2120 2924,2121 2936,2121 2937,2120 2940,2120 2941,2121 2955,2121 2956,2120 2976,2120 2977,2121 2983,2121 2984,2122 2999,2122 3000,2121 3004,2121 3005,2120 3007,2120 3008,2119 3013,2119 3014,2120 3027,2120 3028,2119 3032,2119 3033,2118 3036,2118 3037,2119 3042,2119 3043,2120 3047,2120 3048,2119 3052,2119 3053,2118 3066,2118 3067,2119 3082,2119 3083,2120 3089,2120 3090,2121 3096,2121 3097,2120 3102,2120 3103,2119 3108,2119 3109,2120 3117,2120 3118,2121 3119,2120 3134,2120 3135,2121 3146,2121 3147,2120 3161,2120 3162,2121 3172,2121 3173,2122 3207,2122 3208,2123 3215,2123 3216,2122 3221,2122 3222,2121 3245,2121 3246,2120 3260,2120 3261,2121 3293,2121 3294,2120 3302,2120 3303,2121 3309,2121 3310,2120 3314,2120 3315,2119 3325,2119 3326,2120 3342,2120 3343,2119 3346,2119 3347,2120 3364,2120 3365,2119 3369,2119 3370,2120 3403,2120 3404,2121 3405,2121 3406,2120 3415,2120 3416,2121 3422,2121 3423,2122 3432,2122 3433,2121 3456,2121 3457,2120 3467,2120 3468,2121 3478,2121 3479,2120 3484,2120 3485,2119 3527,2119 3528,2118 3562,2118 3563,2119 3579,2119 3580,2118 3597,2118 3598,2119 3607,2119 3608,2120 3613,2120 3614,2119 3636,2119 3637,2120 3644,2120 3645,2119 3712,2119 3713,2118 3718,2118 3719,2117 3722,2117 3723,2116 3725,2116 3726,2115 3728,2115 3729,2114 3732,2114 3733,2113 3737,2113 3738,2112 3739,2112 3740,2113 3787,2113 3788,2112 3834,2112 3835,2113 3840,2113 3841,2114 3847,2114 3848,2113 3851,2113 3852,2112 3856,2112 3857,2111 3860,2111 3861,2112 3872,2112 3873,2111 3880,2111 3881,2110 3901,2110 3902,2109 3924,2109 3925,2108 3931,2108 3932,2109 3997,2109 3998,2110 4009,2110 4010,2111 4019,2111 4020,2112 4026,2112 4027,2113 4033,2113 4034,2114 4043,2114 4044,2115 4077,2115 4078,2114 4082,2114 4084,2112 4084,2111 4085,2110 4085,2109 4086,2108 4086,2107 4088,2105 4088,2103 4089,2102 4089,2097 4088,2096 4088,2073 4087,2072 4087,2062 4088,2061 4088,2036 4089,2035 4089,2028 4088,2027 4088,2012 4089,2011 4089,1977 4088,1976 4088,1969 4089,1968 4089,1946 4090,1945 4090,1942 4091,1941 4091,1931 4090,1930 4090,1907 4089,1906 4089,1894 4090,1893 4090,1886 4089,1885 4089,1867 4090,1866 4090,1862 4089,1861 4089,1845 4088,1844 4088,1835 4089,1834 4089,1810 4088,1809 4088,1786 4087,1785 4087,1770 4086,1769 4086,1768 4082,1764 4081,1764 4080,1763 4078,1763 4077,1762 4072,1762 4071,1761 4042,1761 4041,1760 4031,1760 4030,1761 4017,1761 4016,1760 3952,1760 3951,1759 3897,1759 3896,1758 3863,1758 3862,1759 3849,1759 3848,1758 3839,1758 3838,1759 3799,1759 3798,1758 3773,1758 3772,1759 3761,1759 3760,1760 3759,1759 3671,1759 3670,1760 3662,1760 3661,1759 3653,1759 3652,1758 3622,1758 3621,1759 3612,1759 3611,1758 3602,1758 3601,1759 3589,1759 3588,1758 3578,1758 3577,1759 3552,1759 3551,1760 3546,1760 3545,1761 3533,1761 3532,1760 3524,1760 3523,1759 3511,1759 3510,1760 3504,1760 3503,1761 3488,1761 3487,1760 3481,1760 3480,1759 3439,1759 3438,1758 3430,1758 3429,1757 3424,1757 3423,1758 3413,1758 3412,1759 3404,1759 3403,1760 3402,1760 3401,1759 3389,1759 3388,1758 3340,1758 3339,1757 3336,1757 3335,1756 3333,1756 3332,1755" fill="rgba(116,99,103,0.3)" stroke="rgb(116,99,103)" stroke-width="2" data-block-id="0002" data-name="b-0007" /><text x="3186" y="1959" text-anchor="middle" dominant-baseline="middle" class="block-label" fill="rgb(116,99,103)" stroke="white" stroke-width="3" paint-order="stroke">b-0007</text><polygon points="2636,2231 2635,2232 2606,2232 2605,2233 2580,2233 2579,2234 2566,2234 2565,2235 2550,2235 2549,2236 2525,2236 2524,2237 2511,2237 2510,2238 2499,2238 2498,2239 2491,2239 2490,2238 2460,2238 2459,2239 2436,2239 2435,2240 2434,2240 2431,2243 2431,2245 2430,2246 2430,2249 2429,2250 2429,2254 2428,2255 2428,2271 2427,2272 2427,2278 2426,2279 2426,2317 2427,2318 2426,2319 2426,2336 2427,2337 2427,2341 2426,2342 2426,2356 2427,2357 2427,2386 2428,2387 2428,2390 2427,2391 2427,2411 2428,2412 2428,2441 2427,2442 2427,2456 2428,2457 2428,2492 2427,2493 2427,2502 2428,2503 2428,2535 2427,2536 2427,2574 2428,2575 2428,2590 2429,2591 2429,2593 2432,2596 2433,2596 2434,2597 2436,2597 2437,2598 2445,2598 2446,2599 2455,2599 2456,2598 2467,2598 2468,2599 2476,2599 2477,2598 2508,2598 2509,2597 2516,2597 2517,2596 2525,2596 2526,2595 2548,2595 2549,2594 2572,2594 2573,2593 2587,2593 2588,2592 2600,2592 2601,2591 2618,2591 2619,2590 2644,2590 2645,2591 2658,2591 2659,2590 2686,2590 2687,2591 2756,2591 2757,2592 2764,2592 2765,2591 2780,2591 2781,2590 2816,2590 2817,2591 2864,2591 2865,2590 2868,2590 2869,2591 2888,2591 2889,2592 2890,2591 2909,2591 2910,2590 2921,2590 2922,2591 2933,2591 2934,2590 2941,2590 2942,2591 2956,2591 2957,2590 3000,2590 3001,2591 3016,2591 3017,2592 3037,2592 3038,2591 3048,2591 3049,2590 3082,2590 3083,2591 3118,2591 3119,2590 3145,2590 3146,2589 3216,2589 3217,2588 3247,2588 3248,2587 3256,2587 3257,2588 3259,2588 3260,2587 3287,2587 3288,2586 3324,2586 3325,2587 3360,2587 3361,2588 3367,2588 3368,2589 3397,2589 3398,2590 3453,2590 3454,2589 3503,2589 3504,2588 3524,2588 3525,2587 3528,2587 3529,2586 3532,2586 3533,2585 3542,2585 3543,2584 3548,2584 3549,2585 3557,2585 3558,2586 3575,2586 3576,2585 3584,2585 3585,2584 3600,2584 3601,2585 3618,2585 3619,2584 3639,2584 3640,2585 3663,2585 3664,2586 3677,2586 3678,2587 3686,2587 3687,2588 3727,2588 3728,2589 3757,2589 3758,2588 3802,2588 3803,2587 3814,2587 3815,2588 3840,2588 3841,2587 3848,2587 3849,2586 3852,2586 3853,2585 3854,2585 3855,2584 3860,2584 3861,2585 3863,2585 3864,2586 3866,2586 3867,2587 3870,2587 3871,2588 3876,2588 3877,2589 3886,2589 3887,2588 3946,2588 3947,2587 3961,2587 3962,2588 3970,2588 3971,2587 4011,2587 4012,2588 4016,2588 4017,2587 4024,2587 4025,2588 4071,2588 4072,2587 4076,2587 4077,2586 4080,2586 4081,2585 4083,2585 4088,2580 4088,2578 4089,2577 4089,2571 4090,2570 4090,2562 4089,2561 4089,2489 4090,2488 4090,2481 4089,2480 4089,2446 4090,2445 4090,2412 4091,2411 4091,2399 4092,2398 4092,2397 4091,2396 4091,2255 4090,2254 4090,2251 4089,2250 4089,2247 4088,2246 4088,2245 4087,2244 4087,2243 4086,2242 4086,2241 4083,2238 4082,2238 4081,2237 4079,2237 4078,2236 4074,2236 4073,2235 4065,2235 4064,2234 4042,2234 4041,2233 4028,2233 4027,2234 4022,2234 4021,2233 3941,2233 3940,2232 3938,2232 3937,2233 3899,2233 3898,2232 3793,2232 3792,2231 3776,2231 3775,2232 3741,2232 3740,2231 3735,2231 3734,2232 3689,2232 3688,2233 3687,2232 3641,2232 3640,2231 3639,2231 3638,2232 3622,2232 3621,2231 3585,2231 3584,2232 3579,2232 3578,2231 3556,2231 3555,2232 3512,2232 3511,2233 3419,2233 3418,2234 3263,2234 3262,2235 3259,2235 3258,2234 3234,2234 3233,2233 3223,2233 3222,2234 3217,2234 3216,2235 3206,2235 3205,2234 3151,2234 3150,2235 3144,2235 3143,2236 3124,2236 3123,2237 3111,2237 3110,2236 3103,2236 3102,2235 3094,2235 3093,2234 3080,2234 3079,2235 3071,2235 3070,2236 3054,2236 3053,2235 3014,2235 3013,2234 2961,2234 2960,2233 2949,2233 2948,2234 2935,2234 2934,2235 2928,2235 2927,2236 2925,2236 2924,2237 2922,2237 2921,2238 2823,2238 2822,2239 2818,2239 2817,2238 2774,2238 2773,2237 2731,2237 2730,2236 2709,2236 2708,2235 2700,2235 2699,2234 2694,2234 2693,2233 2669,2233 2668,2232 2643,2232 2642,2231" fill="rgba(151,130,149,0.3)" stroke="rgb(151,130,149)" stroke-width="2" data-block-id="0003" data-name="b-0008" /><text x="3224" y="2426" text-anchor="middle" dominant-baseline="middle" class="block-label" fill="rgb(151,130,149)" stroke="white" stroke-width="3" paint-order="stroke">b-0008</text><polygon points="3450,2705 3449,2706 3440,2706 3439,2707 3435,2707 3434,2708 3431,2708 3430,2709 3429,2709 3428,2710 3423,2710 3422,2711 3411,2711 3410,2712 3408,2712 3405,2715 3400,2715 3399,2714 3396,2714 3395,2713 3391,2713 3390,2712 3385,2712 3384,2711 3374,2711 3373,2712 3342,2712 3341,2711 3338,2711 3337,2710 3315,2710 3314,2711 3300,2711 3299,2710 3273,2710 3272,2711 3250,2711 3249,2712 3230,2712 3229,2713 3219,2713 3218,2712 3193,2712 3192,2711 3184,2711 3183,2712 3170,2712 3169,2713 3148,2713 3147,2712 3133,2712 3132,2713 3108,2713 3107,2712 3023,2712 3022,2713 3010,2713 3009,2712 2970,2712 2969,2713 2953,2713 2952,2712 2901,2712 2900,2713 2871,2713 2870,2714 2821,2714 2820,2715 2806,2715 2805,2714 2766,2714 2765,2713 2753,2713 2752,2712 2739,2712 2738,2711 2723,2711 2722,2710 2719,2710 2718,2709 2716,2709 2715,2708 2684,2708 2683,2707 2643,2707 2642,2706 2640,2706 2639,2707 2594,2707 2593,2708 2579,2708 2578,2709 2570,2709 2569,2710 2561,2710 2560,2711 2553,2711 2552,2712 2525,2712 2524,2713 2506,2713 2505,2714 2480,2714 2479,2715 2450,2715 2449,2716 2435,2716 2434,2717 2433,2717 2432,2718 2431,2718 2430,2719 2429,2719 2428,2720 2428,2721 2427,2722 2427,2733 2426,2734 2426,2749 2425,2750 2425,2810 2424,2811 2424,2843 2425,2844 2425,2862 2424,2863 2424,2864 2425,2865 2425,2882 2424,2883 2424,2976 2423,2977 2423,3015 2422,3016 2422,3065 2423,3066 2423,3070 2424,3071 2424,3072 2425,3073 2425,3074 2426,3075 2426,3076 2427,3077 2428,3077 2429,3078 2431,3078 2432,3079 2434,3079 2435,3080 2468,3080 2469,3079 2476,3079 2477,3078 2481,3078 2482,3077 2509,3077 2510,3076 2519,3076 2520,3075 2523,3075 2524,3074 2527,3074 2528,3073 2531,3073 2532,3072 2541,3072 2542,3071 2547,3071 2548,3070 2550,3070 2551,3069 2553,3069 2554,3068 2557,3068 2558,3067 2571,3067 2572,3066 2575,3066 2576,3065 2580,3065 2581,3064 2589,3064 2590,3065 2591,3065 2592,3064 2598,3064 2599,3063 2632,3063 2633,3064 2648,3064 2649,3063 2657,3063 2658,3064 2686,3064 2687,3065 2690,3065 2691,3064 2705,3064 2706,3065 2720,3065 2721,3064 2725,3064 2726,3065 2771,3065 2772,3066 2792,3066 2793,3065 2797,3065 2798,3066 2837,3066 2838,3065 2873,3065 2874,3066 2883,3066 2884,3065 2921,3065 2922,3066 2929,3066 2930,3065 2935,3065 2936,3064 2943,3064 2944,3065 2953,3065 2954,3066 2962,3066 2963,3067 2971,3067 2972,3068 3018,3068 3019,3069 3025,3069 3026,3068 3041,3068 3042,3069 3051,3069 3052,3068 3063,3068 3064,3069 3072,3069 3073,3068 3125,3068 3126,3067 3137,3067 3138,3068 3163,3068 3164,3069 3204,3069 3205,3070 3217,3070 3218,3069 3254,3069 3255,3070 3307,3070 3308,3071 3336,3071 3337,3070 3375,3070 3376,3071 3394,3071 3395,3072 3408,3072 3409,3071 3416,3071 3417,3070 3418,3071 3435,3071 3436,3070 3443,3070 3444,3071 3495,3071 3496,3072 3505,3072 3506,3073 3525,3073 3526,3072 3554,3072 3555,3071 3567,3071 3568,3072 3572,3072 3573,3071 3652,3071 3653,3070 3687,3070 3688,3071 3694,3071 3695,3070 3705,3070 3706,3071 3717,3071 3718,3070 3733,3070 3734,3071 3767,3071 3768,3070 3780,3070 3781,3071 3792,3071 3793,3070 3801,3070 3802,3071 3811,3071 3812,3070 3819,3070 3820,3069 3822,3069 3823,3070 3833,3070 3834,3071 3835,3070 3851,3070 3852,3071 3858,3071 3859,3070 3866,3070 3867,3069 3870,3069 3871,3070 3890,3070 3891,3069 3895,3069 3896,3070 3908,3070 3909,3069 3920,3069 3921,3070 3924,3070 3925,3071 3933,3071 3934,3070 3950,3070 3951,3071 3953,3071 3954,3070 3972,3070 3973,3071 3978,3071 3979,3070 4007,3070 4008,3069 4026,3069 4027,3068 4052,3068 4053,3067 4067,3067 4068,3066 4073,3066 4078,3061 4079,3061 4084,3056 4084,3048 4085,3047 4085,3037 4086,3036 4086,3032 4087,3031 4087,3028 4086,3027 4086,3016 4087,3015 4087,3000 4086,2999 4086,2992 4087,2991 4087,2986 4088,2985 4088,2981 4087,2980 4087,2974 4086,2973 4086,2970 4087,2969 4087,2964 4088,2963 4088,2958 4087,2957 4087,2954 4086,2953 4086,2950 4085,2949 4085,2946 4084,2945 4084,2944 4083,2943 4083,2942 4081,2940 4081,2939 4079,2937 4079,2935 4080,2934 4080,2933 4088,2925 4088,2924 4089,2923 4089,2918 4090,2917 4090,2913 4089,2912 4089,2910 4088,2909 4088,2908 4087,2907 4087,2906 4086,2905 4086,2904 4085,2903 4085,2898 4086,2897 4086,2896 4087,2895 4087,2894 4088,2893 4088,2892 4089,2891 4089,2890 4090,2889 4090,2874 4091,2873 4091,2872 4092,2871 4092,2870 4093,2869 4093,2868 4094,2867 4094,2853 4093,2852 4093,2838 4092,2837 4092,2833 4091,2832 4091,2827 4092,2826 4092,2825 4093,2824 4093,2822 4094,2821 4094,2818 4095,2817 4095,2816 4094,2815 4094,2811 4093,2810 4093,2807 4092,2806 4092,2794 4093,2793 4093,2787 4094,2786 4094,2779 4095,2778 4095,2773 4096,2772 4096,2760 4095,2759 4095,2753 4094,2752 4094,2747 4093,2746 4093,2734 4092,2733 4092,2719 4091,2718 4091,2717 4090,2716 4090,2715 4089,2714 4089,2713 4088,2712 4088,2711 4085,2711 4084,2710 4082,2710 4081,2709 4078,2709 4077,2708 4053,2708 4052,2707 4039,2707 4038,2708 4021,2708 4020,2709 4016,2709 4015,2710 4009,2710 4008,2709 4005,2709 4004,2708 3993,2708 3992,2709 3982,2709 3981,2708 3973,2708 3972,2709 3966,2709 3965,2710 3964,2710 3963,2709 3958,2709 3957,2708 3935,2708 3934,2707 3896,2707 3895,2708 3887,2708 3886,2709 3884,2709 3883,2710 3880,2710 3879,2711 3875,2711 3874,2712 3873,2712 3872,2713 3871,2713 3870,2714 3869,2714 3868,2713 3867,2713 3865,2711 3863,2711 3862,2710 3859,2710 3858,2709 3855,2709 3854,2710 3850,2710 3849,2711 3846,2711 3846,2712 3845,2713 3845,2716 3844,2717 3844,2719 3839,2724 3838,2724 3836,2726 3835,2726 3829,2732 3828,2732 3827,2733 3826,2733 3825,2734 3824,2734 3823,2735 3822,2735 3821,2736 3816,2736 3815,2737 3814,2737 3814,2738 3813,2739 3813,2748 3812,2749 3812,2752 3808,2756 3808,2758 3809,2759 3810,2759 3813,2762 3813,2764 3814,2765 3814,2773 3812,2775 3812,2776 3811,2777 3810,2777 3809,2778 3808,2778 3807,2779 3804,2779 3803,2780 3801,2780 3799,2782 3798,2782 3799,2783 3801,2783 3802,2784 3805,2784 3806,2785 3808,2785 3811,2788 3811,2789 3812,2790 3812,2795 3811,2796 3811,2797 3809,2799 3808,2799 3807,2800 3803,2800 3802,2801 3800,2801 3799,2802 3798,2802 3796,2804 3796,2805 3794,2807 3794,2809 3793,2810 3793,2812 3792,2813 3792,2831 3791,2832 3791,2834 3790,2835 3790,2836 3789,2837 3789,2839 3788,2840 3788,2857 3787,2858 3787,2867 3788,2868 3788,2871 3789,2872 3789,2877 3788,2878 3788,2879 3785,2882 3784,2882 3783,2883 3771,2883 3770,2882 3768,2882 3767,2881 3765,2881 3763,2879 3762,2879 3758,2875 3758,2874 3760,2872 3760,2871 3761,2870 3761,2868 3762,2867 3762,2866 3763,2865 3763,2864 3764,2863 3764,2858 3765,2857 3765,2853 3764,2852 3764,2851 3762,2849 3747,2849 3745,2847 3745,2830 3746,2829 3746,2828 3748,2826 3748,2825 3749,2824 3749,2823 3750,2822 3750,2821 3751,2820 3751,2819 3752,2818 3752,2815 3750,2813 3750,2812 3748,2810 3748,2809 3747,2808 3747,2807 3746,2806 3746,2803 3747,2802 3747,2799 3748,2798 3748,2789 3747,2788 3747,2785 3746,2784 3746,2779 3747,2778 3747,2777 3751,2773 3754,2773 3755,2772 3757,2772 3759,2770 3759,2759 3758,2758 3755,2758 3754,2757 3753,2757 3752,2756 3751,2756 3749,2754 3749,2753 3748,2752 3748,2751 3747,2750 3747,2745 3746,2744 3746,2734 3745,2733 3745,2732 3744,2731 3744,2730 3743,2729 3742,2729 3740,2727 3735,2727 3732,2730 3732,2731 3731,2732 3731,2733 3730,2734 3730,2735 3729,2736 3729,2737 3728,2738 3728,2739 3727,2740 3726,2740 3725,2739 3724,2739 3723,2738 3723,2736 3722,2735 3722,2721 3715,2714 3714,2714 3713,2713 3710,2713 3709,2714 3690,2714 3689,2715 3686,2715 3685,2716 3680,2716 3679,2717 3678,2717 3677,2716 3674,2716 3669,2711 3668,2711 3667,2710 3662,2710 3661,2711 3656,2711 3656,2712 3655,2713 3655,2714 3653,2716 3652,2716 3651,2717 3643,2717 3642,2718 3641,2718 3639,2720 3638,2720 3637,2721 3634,2721 3633,2722 3629,2722 3628,2721 3627,2721 3626,2720 3625,2720 3623,2718 3623,2717 3620,2714 3620,2713 3618,2711 3614,2711 3613,2712 3612,2712 3611,2713 3610,2713 3609,2714 3608,2714 3606,2712 3606,2711 3604,2711 3603,2710 3601,2710 3600,2709 3598,2709 3597,2708 3570,2708 3569,2709 3558,2709 3557,2708 3554,2708 3553,2707 3549,2707 3548,2706 3538,2706 3537,2707 3535,2707 3534,2706 3522,2706 3521,2705 3520,2706 3503,2706 3502,2707 3490,2707 3489,2708 3484,2708 3483,2707 3468,2707 3467,2706 3454,2706 3453,2705" fill="rgba(52,1,87,0.3)" stroke="rgb(52,1,87)" stroke-width="2" data-block-id="0004" data-name="b-0009" /><text x="3513" y="2855" text-anchor="middle" dominant-baseline="middle" class="block-label" fill="rgb(52,1,87)" stroke="white" stroke-width="3" paint-order="stroke">b-0009</text><polygon points="2455,729 2454,730 2444,730 2443,731 2439,731 2436,734 2436,736 2435,737 2435,740 2434,741 2434,744 2433,745 2433,761 2434,762 2434,779 2433,780 2433,807 2434,808 2434,852 2435,853 2435,857 2436,858 2436,861 2437,862 2437,865 2436,866 2436,868 2435,869 2435,871 2434,872 2434,950 2435,951 2435,1044 2436,1045 2436,1050 2437,1051 2437,1079 2438,1080 2438,1081 2439,1082 2439,1083 2440,1083 2441,1084 2441,1085 2442,1086 2442,1087 2443,1088 2443,1089 2444,1089 2446,1091 2448,1091 2449,1092 2453,1092 2454,1093 2459,1093 2460,1094 2489,1094 2490,1095 2552,1095 2553,1094 2562,1094 2563,1093 2589,1093 2590,1094 2592,1094 2593,1093 2599,1093 2600,1092 2623,1092 2624,1093 2634,1093 2635,1094 2661,1094 2662,1095 2671,1095 2672,1096 2694,1096 2695,1095 2700,1095 2701,1096 2704,1096 2705,1097 2710,1097 2711,1098 2762,1098 2763,1099 2769,1099 2770,1100 2774,1100 2775,1099 2791,1099 2792,1098 2808,1098 2809,1099 2841,1099 2842,1098 2846,1098 2847,1099 2898,1099 2899,1098 2906,1098 2907,1099 2912,1099 2913,1100 2917,1100 2918,1099 2935,1099 2936,1100 2958,1100 2959,1101 2968,1101 2969,1100 2976,1100 2977,1101 2983,1101 2984,1102 2989,1102 2990,1101 3000,1101 3001,1100 3024,1100 3025,1101 3040,1101 3041,1100 3073,1100 3074,1101 3090,1101 3091,1100 3098,1100 3099,1101 3123,1101 3124,1102 3132,1102 3133,1101 3163,1101 3164,1102 3192,1102 3193,1103 3199,1103 3200,1104 3214,1104 3215,1105 3221,1105 3222,1106 3224,1106 3225,1105 3231,1105 3232,1104 3236,1104 3237,1103 3238,1103 3239,1104 3282,1104 3283,1103 3284,1103 3285,1104 3346,1104 3347,1103 3375,1103 3376,1104 3410,1104 3411,1105 3415,1105 3416,1106 3417,1106 3418,1105 3423,1105 3424,1104 3432,1104 3433,1103 3446,1103 3447,1102 3454,1102 3455,1101 3459,1101 3460,1100 3466,1100 3467,1101 3471,1101 3472,1102 3481,1102 3482,1103 3513,1103 3514,1104 3521,1104 3522,1105 3525,1105 3526,1104 3548,1104 3549,1103 3606,1103 3607,1102 3614,1102 3615,1101 3619,1101 3620,1102 3622,1102 3623,1103 3625,1103 3626,1104 3640,1104 3641,1103 3659,1103 3660,1102 3668,1102 3669,1103 3673,1103 3674,1104 3699,1104 3700,1103 3781,1103 3782,1102 3834,1102 3835,1103 3841,1103 3842,1104 3845,1104 3846,1103 3848,1103 3849,1102 3853,1102 3854,1101 3864,1101 3865,1100 3884,1100 3885,1101 3890,1101 3891,1102 3933,1102 3934,1103 3947,1103 3948,1102 3953,1102 3954,1103 3956,1103 3957,1104 3958,1104 3959,1105 3961,1105 3962,1106 3963,1106 3964,1107 3978,1107 3979,1106 3984,1106 3985,1105 3989,1105 3990,1104 3994,1104 3995,1103 4005,1103 4006,1104 4010,1104 4011,1105 4025,1105 4026,1104 4035,1104 4036,1103 4044,1103 4045,1102 4049,1102 4050,1103 4056,1103 4057,1104 4062,1104 4063,1103 4069,1103 4070,1102 4073,1102 4074,1101 4075,1101 4080,1096 4080,1095 4081,1094 4081,1093 4082,1092 4082,1090 4083,1089 4083,1088 4082,1087 4082,1033 4081,1032 4081,1022 4082,1021 4082,1018 4081,1017 4081,1003 4082,1002 4082,997 4083,996 4083,992 4082,991 4082,965 4081,964 4081,956 4082,955 4082,950 4083,949 4083,939 4082,938 4082,935 4083,934 4083,901 4082,900 4082,897 4081,896 4081,895 4080,894 4080,893 4079,892 4079,891 4078,890 4078,889 4077,888 4077,887 4076,886 4076,884 4075,883 4075,882 4074,881 4074,880 4072,878 4071,878 4070,877 4067,877 4066,876 4062,876 4059,873 4059,871 4058,870 4058,868 4057,867 4057,864 4056,863 4056,861 4055,860 4055,859 4054,858 4054,856 4053,855 4053,854 4052,853 4052,852 4051,851 4051,850 4048,847 4047,847 4046,846 4039,846 4038,845 4036,845 4033,842 4033,841 4032,840 4032,837 4031,836 4031,833 4030,832 4030,814 4029,813 4029,811 4028,810 4028,809 4024,805 4023,805 4022,804 4020,804 4019,803 4014,803 4013,802 4009,802 4008,803 3989,803 3988,804 3986,804 3985,805 3985,806 3983,808 3983,810 3982,811 3982,813 3981,814 3981,822 3980,823 3980,830 3979,831 3979,833 3978,834 3978,836 3976,838 3976,839 3975,840 3964,840 3958,846 3958,847 3953,852 3952,852 3951,853 3949,853 3948,852 3945,852 3944,851 3943,851 3942,850 3941,850 3938,853 3938,854 3937,855 3937,856 3936,857 3936,858 3935,859 3935,860 3934,861 3934,863 3933,864 3933,865 3932,866 3932,868 3931,869 3931,871 3930,872 3930,873 3928,875 3926,875 3925,874 3924,874 3922,872 3920,872 3919,871 3917,871 3916,870 3915,870 3913,868 3911,868 3910,867 3909,867 3908,866 3905,866 3904,865 3901,865 3900,864 3896,864 3895,863 3887,863 3886,864 3875,864 3874,865 3867,865 3866,866 3865,866 3861,870 3861,871 3860,872 3860,874 3859,875 3857,875 3855,873 3855,872 3854,871 3854,867 3853,866 3853,865 3852,864 3852,863 3848,859 3848,858 3846,856 3846,855 3845,854 3845,852 3844,851 3844,846 3843,845 3843,840 3842,839 3842,820 3841,819 3841,799 3840,798 3840,786 3841,785 3841,775 3840,774 3840,764 3841,763 3841,760 3842,759 3842,753 3841,752 3841,751 3838,748 3837,748 3836,747 3835,747 3834,746 3826,746 3825,745 3817,745 3816,744 3805,744 3804,743 3788,743 3787,742 3778,742 3777,741 3744,741 3743,742 3741,742 3740,743 3735,743 3734,742 3732,742 3731,741 3729,741 3728,740 3704,740 3703,741 3694,741 3693,742 3683,742 3682,741 3671,741 3670,742 3653,742 3652,743 3641,743 3640,742 3636,742 3635,741 3623,741 3622,742 3585,742 3584,741 3542,741 3541,740 3527,740 3526,739 3520,739 3519,740 3508,740 3507,739 3506,739 3505,738 3502,738 3501,737 3492,737 3491,738 3481,738 3480,737 3473,737 3472,738 3467,738 3466,739 3459,739 3458,738 3423,738 3422,739 3419,739 3418,740 3415,740 3414,741 3413,740 3409,740 3408,739 3376,739 3375,740 3361,740 3360,739 3328,739 3327,740 3324,740 3323,741 3318,741 3317,740 3315,740 3314,739 3312,739 3311,738 3281,738 3280,739 3254,739 3253,740 3242,740 3241,741 3231,741 3230,740 3194,740 3193,741 3187,741 3186,740 3170,740 3169,739 3162,739 3161,740 3150,740 3149,741 3135,741 3134,740 3125,740 3124,739 3112,739 3111,740 3077,740 3076,739 3067,739 3066,740 3061,740 3060,741 3051,741 3050,740 3031,740 3030,739 3024,739 3023,738 3021,738 3020,739 3016,739 3015,740 3012,740 3011,741 3010,740 3006,740 3005,739 3001,739 3000,738 2991,738 2990,739 2981,739 2980,738 2971,738 2970,739 2966,739 2965,740 2959,740 2958,739 2953,739 2952,738 2917,738 2916,739 2915,738 2882,738 2881,737 2870,737 2869,738 2868,738 2867,737 2817,737 2816,738 2807,738 2806,739 2804,739 2803,738 2790,738 2789,739 2782,739 2781,738 2776,738 2775,737 2763,737 2762,738 2752,738 2751,739 2745,739 2744,738 2739,738 2738,737 2733,737 2732,738 2727,738 2726,739 2719,739 2718,738 2708,738 2707,739 2697,739 2696,738 2694,738 2693,737 2690,737 2689,736 2686,736 2685,737 2682,737 2681,738 2678,738 2677,739 2668,739 2667,740 2655,740 2654,741 2653,740 2651,740 2650,739 2649,739 2647,737 2646,737 2645,736 2644,736 2643,735 2642,735 2641,734 2636,734 2635,735 2632,735 2631,736 2618,736 2617,735 2616,736 2607,736 2606,737 2605,736 2602,736 2601,735 2599,735 2598,734 2596,734 2595,733 2578,733 2577,732 2570,732 2569,731 2560,731 2559,732 2558,732 2557,731 2552,731 2551,730 2545,730 2544,729 2542,729 2541,730 2523,730 2522,731 2520,731 2519,730 2504,730 2503,729 2478,729 2477,730 2468,730 2467,729" fill="rgba(235,157,37,0.3)" stroke="rgb(235,157,37)" stroke-width="2" data-block-id="0005" data-name="b-0010" /><text x="3382" y="897" text-anchor="middle" dominant-baseline="middle" class="block-label" fill="rgb(235,157,37)" stroke="white" stroke-width="3" paint-order="stroke">b-0010</text><polygon points="776,2705 775,2706 767,2706 766,2707 764,2707 763,2708 762,2708 760,2710 760,2713 759,2714 759,2740 758,2741 758,2748 757,2749 757,2776 756,2777 756,2797 755,2798 755,2826 754,2827 754,2859 753,2860 753,2878 754,2879 754,2887 755,2888 755,2899 756,2900 756,2915 755,2916 755,2936 754,2937 754,2943 753,2944 753,2969 752,2970 752,2977 753,2978 753,3033 752,3034 752,3059 753,3060 753,3065 754,3066 754,3068 755,3069 755,3070 758,3073 759,3073 760,3074 761,3074 762,3075 764,3075 765,3076 769,3076 770,3077 776,3077 777,3078 784,3078 785,3077 802,3077 803,3078 810,3078 811,3079 854,3079 855,3080 859,3080 860,3081 877,3081 878,3080 881,3080 882,3079 885,3079 886,3078 901,3078 902,3079 927,3079 928,3078 936,3078 937,3077 955,3077 956,3078 968,3078 969,3079 972,3079 973,3078 979,3078 980,3077 1000,3077 1001,3078 1047,3078 1048,3079 1064,3079 1065,3078 1083,3078 1084,3079 1160,3079 1161,3080 1162,3079 1193,3079 1194,3080 1237,3080 1238,3081 1264,3081 1265,3080 1276,3080 1277,3079 1284,3079 1285,3080 1291,3080 1292,3081 1366,3081 1367,3080 1371,3080 1372,3081 1376,3081 1377,3080 1401,3080 1402,3079 1403,3080 1426,3080 1427,3079 1451,3079 1452,3080 1465,3080 1466,3081 1475,3081 1476,3082 1481,3082 1482,3083 1497,3083 1498,3084 1503,3084 1504,3085 1517,3085 1518,3084 1527,3084 1528,3085 1533,3085 1534,3084 1604,3084 1605,3083 1621,3083 1622,3084 1634,3084 1635,3083 1691,3083 1692,3084 1741,3084 1742,3085 1770,3085 1771,3086 1774,3086 1775,3085 1784,3085 1785,3086 1802,3086 1803,3085 1808,3085 1809,3086 1815,3086 1816,3087 1822,3087 1823,3086 1909,3086 1910,3085 1925,3085 1926,3086 1933,3086 1934,3087 1943,3087 1944,3086 1954,3086 1955,3087 1991,3087 1992,3086 2028,3086 2029,3087 2034,3087 2035,3086 2040,3086 2041,3085 2134,3085 2135,3084 2144,3084 2145,3085 2226,3085 2227,3084 2232,3084 2233,3083 2235,3083 2236,3082 2237,3082 2238,3081 2238,3080 2239,3079 2239,3077 2240,3076 2240,3045 2239,3044 2239,3041 2240,3040 2240,2965 2241,2964 2241,2959 2240,2958 2240,2947 2239,2946 2239,2811 2238,2810 2238,2802 2239,2801 2239,2760 2238,2759 2238,2755 2239,2754 2239,2739 2238,2738 2238,2722 2237,2721 2237,2720 2235,2718 2234,2718 2233,2717 2229,2717 2228,2716 2223,2716 2222,2715 2193,2715 2192,2714 2119,2714 2118,2715 2113,2715 2112,2714 2070,2714 2069,2715 2060,2715 2059,2716 2055,2716 2054,2717 2045,2717 2044,2718 2037,2718 2036,2719 2032,2719 2031,2718 2029,2718 2028,2717 2025,2717 2024,2716 2010,2716 2009,2715 2002,2715 2001,2714 1741,2714 1740,2715 1721,2715 1720,2714 1572,2714 1571,2713 1551,2713 1550,2714 1536,2714 1535,2713 1499,2713 1498,2714 1497,2714 1496,2713 1489,2713 1488,2712 1308,2712 1307,2713 1304,2713 1303,2712 1293,2712 1292,2711 1266,2711 1265,2710 1243,2710 1242,2711 1203,2711 1202,2710 1149,2710 1148,2709 1137,2709 1136,2710 1114,2710 1113,2709 1087,2709 1086,2710 1070,2710 1069,2709 1048,2709 1047,2710 1030,2710 1029,2709 1000,2709 999,2708 990,2708 989,2709 976,2709 975,2708 929,2708 928,2707 839,2707 838,2706 788,2706 787,2705" fill="rgba(129,191,187,0.3)" stroke="rgb(129,191,187)" stroke-width="2" data-block-id="0006" data-name="b-0011" /><text x="1428" y="2928" text-anchor="middle" dominant-baseline="middle" class="block-label" fill="rgb(129,191,187)" stroke="white" stroke-width="3" paint-order="stroke">b-0011</text><polygon points="781,1745 780,1746 778,1746 777,1747 775,1747 773,1749 772,1749 770,1751 770,1752 768,1754 768,1756 767,1757 767,1771 766,1772 766,1798 765,1799 765,1827 764,1828 764,1831 765,1832 765,1848 764,1849 764,1939 763,1940 763,1965 762,1966 762,1975 763,1976 763,2106 764,2107 764,2110 765,2111 765,2112 768,2115 769,2115 770,2116 773,2116 774,2117 781,2117 782,2118 797,2118 798,2119 810,2119 811,2118 848,2118 849,2117 862,2117 863,2118 903,2118 904,2119 908,2119 909,2120 931,2120 932,2119 957,2119 958,2120 977,2120 978,2119 999,2119 1000,2120 1029,2120 1030,2119 1046,2119 1047,2120 1070,2120 1071,2119 1086,2119 1087,2118 1092,2118 1093,2119 1098,2119 1099,2120 1133,2120 1134,2119 1141,2119 1142,2120 1191,2120 1192,2121 1239,2121 1240,2122 1275,2122 1276,2123 1289,2123 1290,2122 1310,2122 1311,2121 1320,2121 1321,2122 1345,2122 1346,2123 1365,2123 1366,2122 1367,2122 1368,2123 1409,2123 1410,2122 1416,2122 1417,2123 1429,2123 1430,2122 1471,2122 1472,2123 1539,2123 1540,2124 1549,2124 1550,2123 1566,2123 1567,2124 1584,2124 1585,2123 1597,2123 1598,2124 1740,2124 1741,2125 1762,2125 1763,2124 1790,2124 1791,2125 1808,2125 1809,2126 1824,2126 1825,2125 1907,2125 1908,2126 1925,2126 1926,2125 1937,2125 1938,2126 1951,2126 1952,2125 2008,2125 2009,2126 2015,2126 2016,2125 2063,2125 2064,2126 2071,2126 2072,2125 2095,2125 2096,2126 2111,2126 2112,2125 2123,2125 2124,2126 2235,2126 2236,2125 2237,2125 2241,2121 2241,2120 2242,2119 2242,2118 2243,2117 2243,2081 2242,2080 2242,2077 2243,2076 2243,1986 2242,1985 2242,1955 2243,1954 2243,1917 2242,1916 2242,1910 2243,1909 2243,1899 2242,1898 2242,1859 2243,1858 2243,1768 2242,1767 2242,1764 2241,1763 2241,1761 2238,1758 2236,1758 2235,1757 2226,1757 2225,1756 2113,1756 2112,1757 2095,1757 2094,1758 2084,1758 2083,1759 2078,1759 2077,1758 2070,1758 2069,1757 2058,1757 2057,1756 1922,1756 1921,1755 1902,1755 1901,1754 1896,1754 1895,1753 1848,1753 1847,1754 1759,1754 1758,1753 1748,1753 1747,1754 1740,1754 1739,1755 1733,1755 1732,1754 1730,1754 1729,1753 1727,1753 1726,1752 1723,1752 1722,1751 1715,1751 1714,1750 1691,1750 1690,1751 1611,1751 1610,1752 1597,1752 1596,1753 1588,1753 1587,1752 1543,1752 1542,1751 1526,1751 1525,1752 1488,1752 1487,1753 1481,1753 1480,1752 1414,1752 1413,1753 1395,1753 1394,1752 1353,1752 1352,1751 1335,1751 1334,1752 1314,1752 1313,1751 1295,1751 1294,1750 1292,1750 1291,1751 1265,1751 1264,1750 1236,1750 1235,1751 1218,1751 1217,1750 1187,1750 1186,1751 1169,1751 1168,1750 1156,1750 1155,1749 1145,1749 1144,1750 1134,1750 1133,1749 1099,1749 1098,1750 1069,1750 1068,1749 1051,1749 1050,1750 1028,1750 1027,1749 991,1749 990,1748 981,1748 980,1747 942,1747 941,1746 909,1746 908,1747 903,1747 902,1748 895,1748 894,1747 885,1747 884,1746 879,1746 878,1745 872,1745 871,1746 854,1746 853,1745" fill="rgba(20,160,203,0.3)" stroke="rgb(20,160,203)" stroke-width="2" data-block-id="0007" data-name="b-0012" /><text x="1432" y="1929" text-anchor="middle" dominant-baseline="middle" class="block-label" fill="rgb(20,160,203)" stroke="white" stroke-width="3" paint-order="stroke">b-0012</text><polygon points="1247,222 1246,223 1244,223 1243,224 1242,224 1241,225 1238,225 1237,226 1227,226 1226,225 1196,225 1195,226 1167,226 1166,225 1123,225 1122,224 1115,224 1114,223 1099,223 1098,224 1094,224 1093,225 1083,225 1082,224 1076,224 1075,225 1061,225 1060,224 1051,224 1050,225 1033,225 1032,224 1022,224 1021,223 1020,223 1019,224 1016,224 1015,225 1012,225 1011,226 1004,226 1003,225 998,225 997,224 991,224 990,225 981,225 980,224 976,224 975,223 967,223 966,224 963,224 962,225 957,225 956,224 951,224 950,223 944,223 943,224 909,224 908,225 903,225 902,226 886,226 885,227 880,227 879,228 859,228 858,227 835,227 834,226 790,226 789,227 780,227 779,228 778,228 776,230 776,231 775,232 775,233 774,234 774,238 773,239 773,246 772,247 772,260 773,261 773,269 772,270 772,276 771,277 771,285 772,286 772,298 771,299 771,320 770,321 770,336 771,337 771,364 770,365 770,368 769,369 769,372 768,373 768,377 769,378 769,381 770,382 770,386 771,387 771,406 772,407 772,413 771,414 771,417 770,418 770,429 771,430 771,437 770,438 770,440 769,441 769,443 768,444 768,447 767,448 767,453 766,454 766,460 767,461 767,464 768,465 768,467 769,468 769,471 770,472 770,476 769,477 769,490 770,491 770,521 771,522 771,551 772,552 772,553 771,554 771,562 770,563 770,568 771,569 771,573 772,574 772,582 771,583 771,587 770,588 771,589 771,591 773,593 774,593 775,594 776,594 777,595 778,595 779,596 812,596 813,597 834,597 835,596 845,596 846,597 873,597 874,598 879,598 880,597 902,597 903,598 945,598 946,599 947,598 955,598 956,597 972,597 973,598 974,597 986,597 987,598 1025,598 1026,599 1051,599 1052,598 1087,598 1088,597 1089,597 1090,598 1095,598 1096,599 1099,599 1100,600 1110,600 1111,599 1116,599 1117,598 1120,598 1121,597 1124,597 1125,596 1129,596 1130,597 1135,597 1136,598 1170,598 1171,597 1178,597 1179,598 1190,598 1191,599 1248,599 1249,600 1268,600 1269,601 1277,601 1278,602 1284,602 1285,601 1293,601 1294,600 1323,600 1324,601 1328,601 1329,600 1357,600 1358,599 1363,599 1364,598 1368,598 1369,599 1422,599 1423,600 1435,600 1436,601 1442,601 1443,602 1460,602 1461,601 1489,601 1490,602 1501,602 1502,603 1508,603 1509,604 1528,604 1529,603 1545,603 1546,602 1549,602 1550,601 1553,601 1554,600 1561,600 1562,601 1573,601 1574,600 1593,600 1594,601 1611,601 1612,602 1628,602 1629,603 1644,603 1645,602 1655,602 1656,603 1659,603 1660,604 1663,604 1664,605 1671,605 1672,604 1679,604 1680,605 1686,605 1687,604 1690,604 1691,603 1693,603 1694,602 1715,602 1716,601 1741,601 1742,600 1749,600 1750,601 1764,601 1765,602 1770,602 1771,603 1773,603 1774,604 1777,604 1778,605 1782,605 1783,606 1784,606 1785,605 1791,605 1792,604 1805,604 1806,603 1810,603 1811,602 1815,602 1816,601 1837,601 1838,602 1863,602 1864,603 1874,603 1875,602 1879,602 1880,603 1897,603 1898,604 1923,604 1924,605 1945,605 1946,606 1951,606 1952,605 2006,605 2007,606 2010,606 2011,605 2015,605 2016,604 2027,604 2028,605 2044,605 2045,606 2058,606 2059,605 2097,605 2098,606 2105,606 2106,605 2110,605 2111,604 2122,604 2123,605 2126,605 2127,606 2194,606 2195,605 2238,605 2239,604 2241,604 2242,603 2243,603 2247,599 2247,598 2248,597 2248,596 2249,595 2249,594 2250,593 2250,589 2251,588 2251,586 2250,585 2250,571 2251,570 2251,564 2250,563 2250,557 2249,556 2249,549 2250,548 2250,533 2249,532 2249,528 2250,527 2250,509 2249,508 2249,505 2250,504 2250,474 2251,473 2251,467 2250,466 2250,453 2251,452 2251,439 2250,438 2250,426 2251,425 2251,397 2250,396 2250,382 2251,381 2251,366 2250,365 2250,343 2249,342 2249,336 2250,335 2250,322 2249,321 2249,312 2250,311 2250,303 2251,302 2251,296 2250,295 2250,290 2251,289 2251,280 2250,279 2250,272 2249,271 2249,261 2250,260 2250,256 2249,255 2249,252 2248,251 2248,250 2247,249 2247,248 2246,247 2246,246 2245,246 2244,245 2243,245 2242,244 2241,244 2240,243 2238,243 2237,242 2224,242 2223,241 2214,241 2213,240 2125,240 2124,241 2121,241 2120,242 2115,242 2114,241 2113,241 2112,240 2110,240 2109,239 2108,239 2107,238 2104,238 2103,237 2102,238 2097,238 2096,239 2030,239 2029,240 2026,240 2025,241 2019,241 2018,240 2017,240 2016,239 2014,239 2013,238 2002,238 2001,239 1969,239 1968,238 1961,238 1960,237 1953,237 1952,236 1937,236 1936,237 1924,237 1923,238 1893,238 1892,237 1884,237 1883,236 1877,236 1876,235 1872,235 1871,234 1867,234 1866,233 1857,233 1856,234 1855,233 1847,233 1846,232 1838,232 1837,233 1795,233 1794,232 1783,232 1782,231 1751,231 1750,230 1738,230 1737,231 1695,231 1694,230 1689,230 1688,229 1686,229 1685,230 1680,230 1679,231 1671,231 1670,232 1666,232 1665,233 1631,233 1630,234 1626,234 1625,233 1618,233 1617,232 1609,232 1608,233 1604,233 1603,232 1597,232 1596,231 1591,231 1590,230 1581,230 1580,229 1573,229 1572,230 1560,230 1559,231 1555,231 1554,230 1552,230 1551,229 1548,229 1547,228 1536,228 1535,229 1504,229 1503,228 1486,228 1485,229 1455,229 1454,228 1399,228 1398,227 1371,227 1370,228 1363,228 1362,227 1359,227 1358,226 1340,226 1339,227 1333,227 1332,228 1323,228 1322,227 1309,227 1308,228 1306,228 1305,227 1300,227 1299,226 1296,226 1295,225 1290,225 1289,226 1286,226 1285,227 1269,227 1268,226 1265,226 1264,225 1260,225 1259,224 1254,224 1253,223 1248,223" fill="rgba(57,21,252,0.3)" stroke="rgb(57,21,252)" stroke-width="2" data-block-id="0008" data-name="b-0013" /><text x="1489" y="405" text-anchor="middle" dominant-baseline="middle" class="block-label" fill="rgb(57,21,252)" stroke="white" stroke-width="3" paint-order="stroke">b-0013</text><polygon points="781,1262 780,1263 778,1263 777,1264 775,1264 771,1268 771,1269 770,1270 770,1273 769,1274 769,1279 768,1280 768,1304 767,1305 767,1352 766,1353 766,1354 767,1355 767,1382 766,1383 766,1431 767,1432 767,1455 766,1456 766,1471 767,1472 767,1501 768,1502 768,1510 767,1511 767,1525 768,1526 768,1539 767,1540 767,1549 768,1550 768,1557 767,1558 767,1575 768,1576 768,1584 767,1585 767,1597 768,1598 768,1605 767,1606 767,1616 768,1617 768,1620 769,1621 769,1622 770,1623 770,1625 774,1629 775,1629 776,1630 777,1630 778,1631 780,1631 781,1632 790,1632 791,1631 792,1632 799,1632 800,1633 809,1633 810,1632 825,1632 826,1633 832,1633 833,1632 843,1632 844,1633 848,1633 849,1634 867,1634 868,1635 879,1635 880,1634 886,1634 887,1633 890,1633 891,1634 964,1634 965,1633 1039,1633 1040,1634 1069,1634 1070,1635 1091,1635 1092,1634 1105,1634 1106,1635 1129,1635 1130,1636 1137,1636 1138,1637 1140,1637 1141,1636 1159,1636 1160,1637 1164,1637 1165,1636 1184,1636 1185,1637 1186,1636 1195,1636 1196,1635 1204,1635 1205,1636 1218,1636 1219,1635 1223,1635 1224,1636 1240,1636 1241,1637 1255,1637 1256,1638 1259,1638 1260,1637 1274,1637 1275,1638 1314,1638 1315,1637 1319,1637 1320,1638 1359,1638 1360,1637 1373,1637 1374,1638 1398,1638 1399,1637 1440,1637 1441,1638 1476,1638 1477,1637 1534,1637 1535,1638 1549,1638 1550,1637 1571,1637 1572,1638 1601,1638 1602,1639 1615,1639 1616,1640 1627,1640 1628,1639 1644,1639 1645,1640 1649,1640 1650,1641 1684,1641 1685,1640 1721,1640 1722,1641 1821,1641 1822,1642 1872,1642 1873,1643 1880,1643 1881,1642 1933,1642 1934,1643 1944,1643 1945,1642 1967,1642 1968,1643 2001,1643 2002,1642 2072,1642 2073,1643 2089,1643 2090,1642 2113,1642 2114,1643 2175,1643 2176,1644 2194,1644 2195,1643 2215,1643 2216,1644 2232,1644 2233,1643 2237,1643 2241,1639 2241,1638 2242,1637 2242,1631 2243,1630 2243,1563 2244,1562 2244,1548 2243,1547 2243,1500 2242,1499 2242,1491 2243,1490 2243,1476 2244,1475 2244,1432 2245,1431 2245,1415 2246,1414 2246,1385 2247,1384 2247,1359 2246,1358 2246,1339 2247,1338 2247,1284 2246,1283 2246,1280 2244,1278 2243,1278 2242,1277 2241,1277 2240,1276 2194,1276 2193,1275 2173,1275 2172,1276 2148,1276 2147,1275 2099,1275 2098,1274 2084,1274 2083,1275 2079,1275 2078,1276 2074,1276 2073,1277 2068,1277 2067,1276 2066,1276 2065,1275 2062,1275 2061,1274 2056,1274 2055,1273 2054,1274 1948,1274 1947,1273 1929,1273 1928,1274 1910,1274 1909,1273 1881,1273 1880,1272 1833,1272 1832,1271 1797,1271 1796,1272 1792,1272 1791,1271 1771,1271 1770,1270 1766,1270 1765,1271 1750,1271 1749,1272 1744,1272 1743,1271 1738,1271 1737,1270 1720,1270 1719,1271 1695,1271 1694,1270 1653,1270 1652,1271 1637,1271 1636,1270 1629,1270 1628,1269 1599,1269 1598,1268 1549,1268 1548,1267 1538,1267 1537,1268 1490,1268 1489,1269 1465,1269 1464,1270 1452,1270 1451,1269 1446,1269 1445,1270 1409,1270 1408,1269 1386,1269 1385,1270 1361,1270 1360,1269 1345,1269 1344,1270 1339,1270 1338,1269 1332,1269 1331,1268 1322,1268 1321,1269 1315,1269 1314,1268 1287,1268 1286,1267 1278,1267 1277,1268 1266,1268 1265,1267 1214,1267 1213,1266 1185,1266 1184,1267 1168,1267 1167,1266 1127,1266 1126,1265 1077,1265 1076,1264 1058,1264 1057,1263 1052,1263 1051,1264 1036,1264 1035,1263 979,1263 978,1262" fill="rgba(235,88,48,0.3)" stroke="rgb(235,88,48)" stroke-width="2" data-block-id="0009" data-name="b-0014" /><text x="1442" y="1464" text-anchor="middle" dominant-baseline="middle" class="block-label" fill="rgb(235,88,48)" stroke="white" stroke-width="3" paint-order="stroke">b-0014</text><polygon points="801,714 800,715 781,715 780,716 779,716 778,717 777,717 776,718 776,719 775,720 775,723 774,724 774,739 773,740 773,798 772,799 772,809 773,810 773,846 772,847 772,890 773,891 773,906 772,907 772,928 773,929 773,965 772,966 772,975 773,976 773,986 772,987 772,999 773,1000 773,1024 774,1025 774,1033 773,1034 773,1047 774,1048 774,1052 775,1053 775,1057 774,1058 774,1068 778,1072 778,1073 779,1074 780,1074 781,1075 782,1075 783,1076 785,1076 786,1077 788,1077 789,1078 793,1078 794,1079 811,1079 812,1080 901,1080 902,1081 922,1081 923,1082 924,1082 925,1081 965,1081 966,1082 976,1082 977,1081 1010,1081 1011,1082 1028,1082 1029,1081 1036,1081 1037,1082 1058,1082 1059,1081 1073,1081 1074,1080 1082,1080 1083,1081 1116,1081 1117,1082 1137,1082 1138,1083 1195,1083 1196,1084 1225,1084 1226,1085 1229,1085 1230,1086 1239,1086 1240,1085 1266,1085 1267,1084 1274,1084 1275,1085 1291,1085 1292,1086 1315,1086 1316,1085 1341,1085 1342,1086 1358,1086 1359,1085 1378,1085 1379,1086 1384,1086 1385,1087 1393,1087 1394,1088 1405,1088 1406,1087 1411,1087 1412,1086 1413,1086 1414,1085 1415,1085 1416,1084 1417,1084 1418,1083 1419,1083 1420,1082 1422,1082 1423,1081 1428,1081 1429,1082 1432,1082 1433,1083 1435,1083 1436,1084 1440,1084 1441,1085 1457,1085 1458,1086 1470,1086 1471,1085 1478,1085 1479,1084 1483,1084 1484,1083 1488,1083 1489,1084 1501,1084 1502,1083 1520,1083 1521,1084 1527,1084 1528,1083 1531,1083 1532,1084 1549,1084 1550,1083 1638,1083 1639,1084 1669,1084 1670,1083 1707,1083 1708,1084 1714,1084 1715,1085 1718,1085 1719,1086 1723,1086 1724,1087 1771,1087 1772,1088 1789,1088 1790,1087 1803,1087 1804,1088 1809,1088 1810,1087 1830,1087 1831,1086 1835,1086 1836,1085 1849,1085 1850,1084 1870,1084 1871,1085 1904,1085 1905,1086 1919,1086 1920,1087 1935,1087 1936,1086 1952,1086 1953,1087 1965,1087 1966,1088 1983,1088 1984,1089 2018,1089 2019,1090 2023,1090 2024,1089 2045,1089 2046,1090 2068,1090 2069,1091 2114,1091 2115,1092 2238,1092 2239,1091 2240,1091 2242,1089 2242,1087 2243,1086 2243,1080 2244,1079 2244,1074 2245,1073 2245,1069 2246,1068 2246,1062 2245,1061 2245,1040 2244,1039 2244,1020 2245,1019 2245,997 2246,996 2246,995 2245,994 2245,988 2244,987 2244,979 2245,978 2245,965 2244,964 2244,951 2245,950 2245,945 2244,944 2244,939 2243,938 2243,932 2244,931 2244,911 2243,910 2244,909 2244,902 2245,901 2245,897 2244,896 2244,892 2243,891 2243,884 2244,883 2244,879 2245,878 2245,870 2244,869 2244,862 2245,861 2245,858 2246,857 2246,849 2245,848 2245,844 2244,843 2244,836 2245,835 2245,832 2246,831 2246,819 2245,818 2245,814 2246,813 2246,809 2247,808 2247,802 2246,801 2246,799 2245,798 2245,796 2244,795 2244,790 2245,789 2245,787 2246,786 2246,784 2247,783 2247,781 2248,780 2248,777 2247,776 2247,757 2246,756 2246,752 2245,751 2245,749 2244,748 2244,745 2243,744 2243,733 2240,730 2239,730 2238,729 2235,729 2234,728 2209,728 2208,727 2198,727 2197,726 2184,726 2183,725 2169,725 2168,726 2160,726 2159,725 2152,725 2151,724 2140,724 2139,723 2135,723 2134,722 2131,722 2130,721 2128,721 2127,722 2125,722 2124,723 2123,723 2122,724 2120,724 2119,725 2117,725 2116,726 2114,726 2113,725 2110,725 2109,724 2100,724 2099,725 2096,725 2095,726 2089,726 2088,725 2084,725 2083,724 2079,724 2078,725 2075,725 2074,726 2072,726 2071,727 2067,727 2066,726 2063,726 2062,725 2053,725 2052,726 2048,726 2047,727 2040,727 2039,726 1993,726 1992,725 1969,725 1968,724 1953,724 1952,725 1948,725 1947,724 1940,724 1939,723 1932,723 1931,724 1924,724 1923,723 1918,723 1917,722 1907,722 1906,723 1900,723 1899,722 1895,722 1894,721 1885,721 1884,722 1881,722 1880,723 1875,723 1874,722 1870,722 1869,721 1858,721 1857,720 1854,720 1853,721 1834,721 1833,720 1811,720 1810,719 1801,719 1800,720 1791,720 1790,721 1786,721 1785,722 1782,722 1781,723 1732,723 1731,722 1701,722 1700,721 1660,721 1659,720 1638,720 1637,719 1585,719 1584,718 1544,718 1543,719 1529,719 1528,718 1524,718 1523,717 1464,717 1463,716 1457,716 1456,717 1444,717 1443,716 1427,716 1426,715 1410,715 1409,716 1405,716 1404,717 1398,717 1397,716 1394,716 1393,715 1346,715 1345,716 1333,716 1332,717 1327,717 1326,716 1320,716 1319,715 1229,715 1228,716 1225,716 1224,717 1217,717 1216,716 1201,716 1200,715 1164,715 1163,714 1161,714 1160,715 1149,715 1148,716 1141,716 1140,717 1133,717 1132,716 1123,716 1122,715 1105,715 1104,716 1095,716 1094,715 1074,715 1073,716 1063,716 1062,715 996,715 995,716 989,716 988,717 981,717 980,716 976,716 975,715 951,715 950,716 932,716 931,715 908,715 907,716 883,716 882,715 860,715 859,716 839,716 838,715 833,715 832,714" fill="rgba(218,58,254,0.3)" stroke="rgb(218,58,254)" stroke-width="2" data-block-id="0010" data-name="b-0015" /><text x="1616" y="885" text-anchor="middle" dominant-baseline="middle" class="block-label" fill="rgb(218,58,254)" stroke="white" stroke-width="3" paint-order="stroke">b-0015</text><polygon points="779,2226 778,2227 774,2227 773,2228 770,2228 769,2229 768,2229 766,2231 766,2232 765,2233 765,2236 764,2237 764,2247 763,2248 763,2264 762,2265 762,2273 763,2274 763,2283 762,2284 762,2301 763,2302 763,2305 762,2306 762,2330 763,2331 763,2350 762,2351 762,2370 763,2371 763,2400 762,2401 762,2417 763,2418 763,2431 762,2432 762,2438 763,2439 763,2454 762,2455 762,2470 763,2471 763,2518 762,2519 762,2562 763,2563 763,2578 764,2579 764,2581 765,2582 765,2583 768,2586 769,2586 770,2587 772,2587 773,2588 779,2588 780,2589 798,2589 799,2590 815,2590 816,2589 818,2589 819,2590 844,2590 845,2591 859,2591 860,2590 892,2590 893,2591 925,2591 926,2590 932,2590 933,2589 939,2589 940,2590 944,2590 945,2591 951,2591 952,2592 975,2592 976,2591 989,2591 990,2592 1022,2592 1023,2591 1035,2591 1036,2592 1055,2592 1056,2593 1072,2593 1073,2592 1088,2592 1089,2593 1122,2593 1123,2592 1131,2592 1132,2593 1170,2593 1171,2592 1179,2592 1180,2593 1193,2593 1194,2592 1204,2592 1205,2593 1218,2593 1219,2592 1223,2592 1224,2593 1252,2593 1253,2594 1276,2594 1277,2595 1323,2595 1324,2596 1372,2596 1373,2597 1385,2597 1386,2596 1473,2596 1474,2597 1475,2596 1490,2596 1491,2597 1500,2597 1501,2596 1517,2596 1518,2597 1523,2597 1524,2596 1539,2596 1540,2597 1548,2597 1549,2596 1562,2596 1563,2597 1575,2597 1576,2596 1582,2596 1583,2597 1612,2597 1613,2598 1618,2598 1619,2597 1640,2597 1641,2598 1691,2598 1692,2597 1730,2597 1731,2598 1738,2598 1739,2597 1775,2597 1776,2598 1786,2598 1787,2597 1806,2597 1807,2598 1820,2598 1821,2599 1860,2599 1861,2598 1873,2598 1874,2599 1879,2599 1880,2598 1889,2598 1890,2597 1891,2597 1892,2598 1905,2598 1906,2599 1928,2599 1929,2598 1960,2598 1961,2599 1977,2599 1978,2598 1982,2598 1983,2597 1992,2597 1993,2598 2056,2598 2057,2599 2066,2599 2067,2598 2079,2598 2080,2599 2126,2599 2127,2598 2130,2598 2131,2599 2149,2599 2150,2598 2156,2598 2157,2599 2171,2599 2172,2598 2181,2598 2182,2599 2192,2599 2193,2598 2207,2598 2208,2599 2226,2599 2227,2598 2232,2598 2233,2597 2236,2597 2240,2593 2240,2591 2241,2590 2241,2580 2242,2579 2242,2551 2243,2550 2243,2536 2242,2535 2242,2528 2243,2527 2243,2468 2244,2467 2244,2441 2243,2440 2243,2418 2244,2417 2244,2378 2243,2377 2243,2374 2244,2373 2244,2354 2243,2353 2243,2350 2244,2349 2244,2256 2243,2255 2243,2246 2242,2245 2242,2244 2241,2243 2241,2242 2240,2241 2239,2241 2237,2239 2232,2239 2231,2238 2187,2238 2186,2237 2171,2237 2170,2238 2153,2238 2152,2237 2118,2237 2117,2238 2111,2238 2110,2237 2097,2237 2096,2236 2081,2236 2080,2237 2078,2237 2077,2238 2074,2238 2073,2239 2064,2239 2063,2238 2060,2238 2059,2237 2035,2237 2034,2238 2024,2238 2023,2239 2012,2239 2011,2238 1960,2238 1959,2237 1956,2237 1955,2236 1932,2236 1931,2235 1909,2235 1908,2236 1856,2236 1855,2237 1831,2237 1830,2236 1819,2236 1818,2237 1777,2237 1776,2238 1773,2238 1772,2239 1770,2239 1769,2238 1767,2238 1766,2237 1764,2237 1763,2236 1751,2236 1750,2235 1725,2235 1724,2236 1721,2236 1720,2235 1681,2235 1680,2234 1675,2234 1674,2235 1625,2235 1624,2234 1576,2234 1575,2235 1515,2235 1514,2234 1503,2234 1502,2235 1495,2235 1494,2234 1488,2234 1487,2233 1475,2233 1474,2232 1470,2232 1469,2233 1431,2233 1430,2232 1418,2232 1417,2233 1393,2233 1392,2232 1367,2232 1366,2233 1361,2233 1360,2232 1351,2232 1350,2233 1340,2233 1339,2232 1335,2232 1334,2231 1326,2231 1325,2232 1322,2232 1321,2233 1315,2233 1314,2232 1313,2232 1312,2231 1310,2231 1309,2230 1287,2230 1286,2229 1264,2229 1263,2228 1248,2228 1247,2229 1237,2229 1236,2230 1143,2230 1142,2229 1130,2229 1129,2230 1124,2230 1123,2229 1011,2229 1010,2228 1006,2228 1005,2229 998,2229 997,2230 987,2230 986,2231 981,2231 980,2230 953,2230 952,2229 916,2229 915,2230 887,2230 886,2229 873,2229 872,2230 868,2230 867,2231 846,2231 845,2232 842,2232 841,2233 837,2233 836,2232 830,2232 829,2231 818,2231 817,2230 816,2230 815,2229 814,2229 813,2228 811,2228 810,2227 807,2227 806,2226 801,2226 800,2227 786,2227 785,2226" fill="rgba(169,219,187,0.3)" stroke="rgb(169,219,187)" stroke-width="2" data-block-id="0011" data-name="b-0016" /><text x="1458" y="2405" text-anchor="middle" dominant-baseline="middle" class="block-label" fill="rgb(169,219,187)" stroke="white" stroke-width="3" paint-order="stroke">b-0016</text><polygon points="2457,244 2456,245 2442,245 2441,246 2438,246 2437,247 2436,247 2436,248 2435,249 2435,250 2434,251 2434,252 2433,253 2433,256 2432,257 2432,266 2431,267 2431,270 2432,271 2432,332 2433,333 2433,362 2432,363 2432,386 2433,387 2433,403 2432,404 2432,424 2433,425 2433,432 2434,433 2434,448 2433,449 2433,450 2432,451 2432,453 2431,454 2431,456 2430,457 2430,464 2431,465 2431,472 2432,473 2432,478 2433,479 2433,510 2432,511 2432,518 2433,519 2433,555 2432,556 2432,571 2433,572 2433,593 2434,594 2434,597 2435,598 2435,600 2436,601 2436,602 2437,603 2438,603 2439,604 2441,604 2442,605 2445,605 2446,606 2456,606 2457,607 2470,607 2471,608 2497,608 2498,609 2521,609 2522,610 2524,610 2525,611 2527,611 2528,612 2538,612 2539,611 2543,611 2544,610 2558,610 2559,611 2564,611 2565,612 2573,612 2574,613 2584,613 2585,614 2598,614 2599,613 2613,613 2614,614 2628,614 2629,613 2639,613 2640,612 2644,612 2645,611 2648,611 2649,610 2671,610 2672,609 2690,609 2691,610 2694,610 2695,611 2699,611 2700,612 2709,612 2710,613 2717,613 2718,612 2734,612 2735,611 2739,611 2740,610 2743,610 2744,609 2756,609 2757,610 2761,610 2762,609 2768,609 2769,608 2801,608 2802,609 2821,609 2822,610 2833,610 2834,611 2838,611 2839,612 2848,612 2849,611 2852,611 2853,610 2856,610 2857,611 2859,611 2860,612 2885,612 2886,613 2888,613 2889,614 2893,614 2894,615 2908,615 2909,614 2913,614 2914,613 2918,613 2919,612 2922,612 2923,611 2930,611 2931,612 2935,612 2936,613 2973,613 2974,614 2978,614 2979,615 3007,615 3008,616 3009,616 3010,615 3014,615 3015,614 3017,614 3018,613 3020,613 3021,612 3023,612 3024,613 3026,613 3027,614 3030,614 3031,615 3037,615 3038,614 3042,614 3043,613 3074,613 3075,614 3081,614 3082,615 3121,615 3122,616 3128,616 3129,617 3144,617 3145,618 3154,618 3155,619 3195,619 3196,620 3200,620 3201,619 3221,619 3222,620 3230,620 3231,621 3243,621 3244,622 3250,622 3251,621 3256,621 3257,620 3263,620 3264,621 3266,621 3267,622 3270,622 3271,623 3277,623 3278,622 3288,622 3289,623 3301,623 3302,622 3326,622 3327,621 3336,621 3337,622 3349,622 3350,621 3359,621 3360,622 3363,622 3364,623 3374,623 3375,622 3383,622 3384,623 3396,623 3397,622 3402,622 3403,621 3405,621 3406,622 3424,622 3425,621 3429,621 3430,622 3447,622 3448,621 3464,621 3465,620 3480,620 3481,621 3488,621 3489,620 3492,620 3493,619 3496,619 3497,618 3503,618 3504,619 3575,619 3576,620 3597,620 3598,621 3622,621 3623,622 3638,622 3639,621 3674,621 3675,622 3679,622 3680,621 3694,621 3695,620 3708,620 3709,619 3714,619 3715,618 3716,618 3718,616 3719,616 3720,615 3720,614 3721,613 3721,602 3722,601 3722,596 3723,595 3723,592 3724,591 3724,586 3723,585 3723,577 3722,576 3722,544 3721,543 3721,535 3720,534 3720,522 3719,521 3719,516 3720,515 3720,513 3721,512 3721,508 3722,507 3722,502 3723,501 3723,497 3724,496 3724,495 3723,494 3723,492 3722,491 3722,490 3721,489 3721,488 3720,487 3720,485 3719,484 3719,474 3720,473 3720,471 3719,470 3719,465 3718,464 3718,451 3719,450 3719,445 3718,444 3718,441 3717,440 3717,438 3716,437 3716,432 3717,431 3717,430 3718,429 3718,427 3719,426 3719,418 3718,417 3718,413 3717,412 3718,411 3718,406 3719,405 3719,403 3720,402 3720,401 3721,400 3721,395 3720,394 3720,391 3719,390 3719,387 3720,386 3720,385 3721,384 3721,383 3726,378 3727,378 3729,376 3728,375 3728,374 3727,374 3725,372 3724,372 3721,369 3721,368 3720,367 3720,366 3719,365 3719,362 3720,361 3720,360 3721,359 3721,358 3722,357 3722,356 3723,355 3723,354 3724,353 3724,349 3723,348 3723,346 3722,345 3722,343 3721,342 3721,338 3722,337 3722,336 3724,334 3724,333 3725,332 3725,331 3726,330 3726,329 3727,328 3727,325 3726,324 3726,320 3725,319 3725,313 3726,312 3726,309 3727,308 3727,306 3728,305 3728,300 3727,299 3727,294 3726,293 3726,287 3725,286 3725,280 3724,279 3724,277 3723,276 3723,274 3722,273 3722,272 3721,271 3721,269 3716,264 3714,264 3713,263 3692,263 3691,262 3688,262 3687,263 3671,263 3670,262 3660,262 3659,263 3647,263 3646,262 3614,262 3613,263 3605,263 3604,264 3602,264 3601,265 3600,265 3599,266 3598,266 3596,268 3595,268 3594,269 3593,269 3592,270 3586,270 3585,271 3580,271 3579,270 3574,270 3573,269 3568,269 3567,270 3564,270 3563,271 3521,271 3520,272 3489,272 3488,271 3472,271 3471,272 3462,272 3461,271 3458,271 3457,270 3454,270 3453,269 3435,269 3434,268 3430,268 3429,267 3425,267 3424,268 3419,268 3418,269 3414,269 3413,268 3410,268 3409,267 3406,267 3405,266 3394,266 3393,265 3379,265 3378,264 3377,265 3366,265 3365,264 3360,264 3359,263 3344,263 3343,264 3342,264 3341,263 3328,263 3327,264 3314,264 3313,263 3285,263 3284,262 3256,262 3255,261 3242,261 3241,262 3192,262 3191,261 3185,261 3184,262 3109,262 3108,263 3101,263 3100,262 3086,262 3085,263 3080,263 3079,262 3076,262 3075,261 3072,261 3071,260 3032,260 3031,261 3026,261 3025,262 3018,262 3017,261 3014,261 3013,260 2983,260 2982,259 2978,259 2977,258 2974,258 2973,257 2956,257 2955,258 2937,258 2936,257 2925,257 2924,256 2920,256 2919,255 2907,255 2906,256 2894,256 2893,255 2890,255 2889,256 2848,256 2847,255 2834,255 2833,254 2825,254 2824,255 2787,255 2786,254 2781,254 2780,255 2766,255 2765,256 2756,256 2755,255 2748,255 2747,254 2742,254 2741,253 2738,253 2737,252 2727,252 2726,253 2719,253 2718,252 2709,252 2708,253 2690,253 2689,252 2685,252 2684,253 2674,253 2673,252 2666,252 2665,251 2652,251 2651,252 2643,252 2642,253 2625,253 2624,252 2620,252 2619,251 2608,251 2607,252 2599,252 2598,251 2582,251 2581,250 2573,250 2572,249 2565,249 2564,248 2560,248 2559,247 2553,247 2552,248 2548,248 2547,249 2542,249 2541,248 2533,248 2532,247 2528,247 2527,248 2522,248 2521,247 2516,247 2515,246 2510,246 2509,245 2506,245 2505,246 2493,246 2492,245 2485,245 2484,244 2479,244 2478,245 2472,245 2471,244" fill="rgba(189,174,189,0.3)" stroke="rgb(189,174,189)" stroke-width="2" data-block-id="0012" data-name="b-0018" /><text x="3142" y="432" text-anchor="middle" dominant-baseline="middle" class="block-label" fill="rgb(189,174,189)" stroke="white" stroke-width="3" paint-order="stroke">b-0018</text><polygon points="3880,234 3879,235 3878,235 3877,236 3875,236 3874,237 3873,237 3872,238 3870,238 3869,239 3868,239 3867,240 3866,240 3864,242 3864,243 3862,245 3862,246 3861,247 3861,249 3860,250 3860,253 3859,254 3859,257 3858,258 3858,295 3857,296 3857,336 3856,337 3856,341 3857,342 3857,354 3858,355 3858,368 3857,369 3857,409 3856,410 3856,430 3857,431 3857,447 3856,448 3856,495 3857,496 3857,501 3858,502 3858,506 3859,507 3859,510 3860,511 3860,514 3861,515 3861,518 3862,519 3862,520 3863,521 3863,522 3864,523 3864,524 3865,525 3865,526 3866,527 3866,528 3867,529 3867,530 3870,533 3870,534 3873,537 3873,538 3876,541 3876,542 3879,545 3879,546 3881,548 3881,549 3883,551 3883,552 3885,554 3885,555 3886,556 3886,557 3888,559 3888,560 3889,561 3889,562 3890,563 3890,564 3891,565 3891,566 3892,567 3892,569 3893,570 3893,571 3894,572 3894,573 3895,574 3895,575 3901,581 3902,581 3904,583 3905,583 3906,584 3907,584 3908,585 3909,585 3910,586 3911,586 3912,587 3913,587 3916,590 3917,590 3920,593 3921,593 3923,595 3924,595 3925,596 3926,596 3927,597 3928,597 3929,598 3931,598 3932,599 3933,599 3934,600 3936,600 3937,601 3939,601 3940,602 3943,602 3944,603 3946,603 3947,604 3950,604 3951,605 3953,605 3954,606 3957,606 3958,607 3962,607 3963,608 4004,608 4005,607 4010,607 4011,606 4016,606 4017,605 4021,605 4022,604 4025,604 4026,603 4029,603 4030,602 4032,602 4033,601 4036,601 4037,600 4039,600 4040,599 4042,599 4043,598 4044,598 4045,597 4046,597 4048,595 4049,595 4056,588 4057,588 4060,585 4061,585 4065,581 4066,581 4072,575 4072,574 4073,573 4073,572 4074,571 4074,570 4075,569 4075,567 4076,566 4076,565 4077,564 4077,562 4078,561 4078,560 4079,559 4079,557 4080,556 4080,555 4081,554 4081,552 4082,551 4082,547 4083,546 4083,543 4084,542 4084,539 4085,538 4085,519 4084,518 4084,498 4085,497 4085,465 4086,464 4086,417 4085,416 4085,383 4086,382 4086,353 4085,352 4085,335 4086,334 4086,304 4087,303 4087,278 4086,277 4086,262 4085,261 4085,257 4084,256 4084,254 4083,253 4083,252 4082,251 4082,250 4079,247 4078,247 4077,246 4076,246 4075,245 4074,245 4073,244 4070,244 4069,243 4066,243 4065,242 4042,242 4041,243 4037,243 4036,244 4033,244 4032,245 4029,245 4028,246 4024,246 4023,247 4017,247 4016,248 4011,248 4010,249 4004,249 4003,250 3996,250 3995,251 3985,251 3984,252 3982,252 3981,251 3976,251 3975,250 3973,250 3972,249 3971,249 3970,248 3969,248 3968,247 3967,247 3966,246 3965,246 3963,244 3960,244 3959,243 3958,244 3955,244 3954,245 3951,245 3950,246 3947,246 3946,247 3942,247 3941,246 3938,246 3937,245 3936,245 3935,244 3933,244 3932,243 3930,243 3929,242 3917,242 3916,243 3914,243 3913,244 3911,244 3910,245 3909,245 3908,246 3907,246 3906,247 3902,247 3901,246 3900,246 3892,238 3891,238 3888,235 3887,235 3886,234" fill="rgba(88,59,13,0.3)" stroke="rgb(88,59,13)" stroke-width="2" data-block-id="0013" data-name="b-0024" /><text x="3960" y="427" text-anchor="middle" dominant-baseline="middle" class="block-label" fill="rgb(88,59,13)" stroke="white" stroke-width="3" paint-order="stroke">b-0024</text><polygon points="4060,247 4059,248 4047,248 4046,249 4041,249 4040,250 4038,250 4037,251 4036,251 4034,253 4033,253 4032,254 4031,254 4030,255 4028,255 4027,256 4021,256 4020,257 4001,257 4000,258 3984,258 3983,257 3969,257 3968,258 3957,258 3956,257 3951,257 3950,256 3949,256 3945,252 3944,252 3943,251 3942,251 3941,250 3936,250 3935,249 3908,249 3907,250 3903,250 3899,254 3899,256 3898,257 3899,258 3899,265 3900,266 3900,274 3901,275 3901,284 3900,285 3900,342 3901,343 3901,352 3902,353 3902,371 3901,372 3901,378 3902,379 3902,405 3901,406 3901,450 3900,451 3900,461 3899,462 3899,467 3898,468 3898,469 3899,470 3899,472 3900,473 3900,474 3902,476 3902,477 3903,478 3903,480 3904,481 3904,482 3905,483 3905,487 3906,488 3906,495 3907,496 3907,500 3908,501 3908,506 3909,507 3909,509 3910,510 3910,512 3911,513 3911,516 3912,517 3912,518 3913,519 3913,520 3914,521 3914,522 3915,523 3915,524 3920,529 3920,530 3925,535 3925,536 3928,539 3928,540 3935,547 3936,547 3939,550 3940,550 3941,551 3942,551 3944,553 3945,553 3946,554 3947,554 3949,556 3951,556 3952,557 3953,557 3954,558 3956,558 3957,559 3958,559 3959,560 3961,560 3962,561 3964,561 3965,562 3968,562 3969,563 3973,563 3974,564 4001,564 4002,563 4005,563 4006,562 4009,562 4010,561 4013,561 4014,560 4016,560 4017,559 4018,559 4019,558 4021,558 4022,557 4023,557 4024,556 4025,556 4026,555 4028,555 4030,553 4031,553 4032,552 4033,552 4034,551 4035,551 4036,550 4037,550 4039,548 4040,548 4054,534 4054,533 4057,530 4057,529 4059,527 4059,526 4061,524 4061,523 4063,521 4063,520 4064,519 4064,518 4065,517 4065,515 4066,514 4066,513 4067,512 4067,510 4068,509 4068,506 4069,505 4069,502 4070,501 4070,500 4071,499 4071,497 4072,496 4072,494 4073,493 4073,488 4074,487 4074,482 4075,481 4075,476 4076,475 4076,471 4077,470 4077,466 4078,465 4078,459 4079,458 4079,450 4078,449 4078,422 4079,421 4079,378 4078,377 4078,373 4079,372 4079,356 4078,355 4078,343 4077,342 4077,318 4078,317 4078,309 4077,308 4077,303 4078,302 4078,292 4079,291 4079,286 4080,285 4080,272 4081,271 4081,268 4080,267 4080,263 4079,262 4079,259 4078,258 4078,256 4077,255 4077,254 4076,253 4076,252 4073,249 4071,249 4070,248 4062,248 4061,247" fill="rgba(163,49,103,0.3)" stroke="rgb(163,49,103)" stroke-width="2" data-block-id="0014" data-name="b-0031" /><text x="3994" y="425" text-anchor="middle" dominant-baseline="middle" class="block-label" fill="rgb(163,49,103)" stroke="white" stroke-width="3" paint-order="stroke">b-0031</text></g>
</svg>