<?xml version='1.0' encoding='utf-8'?>
<svg xmlns="http://www.w3.org/2000/svg" xmlns:atlas="http://example.com/atlas" width="4980" height="3334" viewBox="0 0 4980 3334">
  
  <metadata>
    <atlas:source>
      <atlas:jp2-path>../media/v1/p19.jp2</atlas:jp2-path>
      <atlas:volume>vol1</atlas:volume>
      <atlas:plate-id>p19</atlas:plate-id>
      <atlas:image-width>4980</atlas:image-width>
      <atlas:image-height>3334</atlas:image-height>
    </atlas:source>
  </metadata>

  
  <image id="background" href="file://../media/v1/p19.jp2" width="4980" height="3334" opacity="0.5" />

  <style>
    .block-label { font-family: sans-serif; font-size: 14px; font-weight: bold; }
  </style>

  
  <g id="blocks">
    <polygon points="3798,2038 3797,2039 3792,2039 3791,2040 3782,2040 3781,2041 3773,2041 3772,2042 3761,2042 3760,2041 3751,2041 3750,2042 3746,2042 3745,2043 3742,2043 3741,2044 3738,2044 3737,2045 3734,2045 3733,2046 3724,2046 3723,2047 3690,2047 3689,2046 3673,2046 3672,2045 3666,2045 3665,2044 3661,2044 3660,2043 3656,2043 3655,2042 3649,2042 3648,2041 3638,2041 3637,2040 3633,2040 3632,2041 3622,2041 3621,2042 3620,2042 3619,2043 3618,2043 3617,2044 3617,2045 3615,2047 3615,2049 3614,2050 3614,2054 3613,2055 3613,2080 3614,2081 3614,2089 3613,2090 3613,2128 3614,2129 3614,2179 3615,2180 3615,2192 3614,2193 3614,2222 3615,2223 3615,2247 3614,2248 3614,2313 3615,2314 3615,2456 3616,2457 3616,2509 3617,2510 3617,2516 3616,2517 3616,2531 3615,2532 3615,2547 3616,2548 3616,2556 3617,2557 3617,2566 3616,2567 3616,2580 3617,2581 3617,2586 3616,2587 3616,2604 3617,2605 3617,2611 3616,2612 3616,2650 3617,2651 3617,2660 3616,2661 3616,2700 3617,2701 3617,2710 3616,2711 3616,2723 3617,2724 3617,2729 3616,2730 3616,2750 3617,2751 3617,2755 3618,2756 3618,2758 3619,2759 3619,2760 3620,2761 3620,2762 3621,2762 3622,2763 3623,2763 3624,2764 3631,2764 3632,2765 3663,2765 3664,2764 3669,2764 3670,2763 3673,2763 3674,2764 3685,2764 3686,2765 3703,2765 3704,2766 3714,2766 3715,2767 3735,2767 3736,2766 3758,2766 3759,2765 3763,2765 3764,2764 3771,2764 3772,2765 3778,2765 3779,2766 3784,2766 3785,2765 3793,2765 3794,2766 3806,2766 3807,2765 3860,2765 3861,2764 3908,2764 3909,2763 3941,2763 3942,2764 3971,2764 3972,2763 3974,2763 3975,2762 3976,2762 3979,2759 3979,2758 3980,2757 3980,2756 3981,2755 3981,2753 3982,2752 3982,2747 3983,2746 3983,2741 3984,2740 3984,2737 3983,2736 3983,2725 3982,2724 3982,2711 3981,2710 3981,2671 3980,2670 3980,2616 3981,2615 3981,2605 3980,2604 3980,2600 3979,2599 3979,2575 3978,2574 3978,2546 3979,2545 3979,2538 3980,2537 3980,2527 3979,2526 3980,2525 3980,2503 3979,2502 3980,2501 3980,2496 3981,2495 3981,2491 3982,2490 3982,2437 3981,2436 3981,2432 3980,2431 3980,2424 3981,2423 3981,2410 3980,2409 3980,2402 3981,2401 3981,2388 3980,2387 3980,2373 3981,2372 3981,2351 3982,2350 3982,2342 3981,2341 3981,2335 3980,2334 3980,2332 3981,2331 3981,2308 3982,2307 3982,2286 3981,2285 3981,2284 3982,2283 3982,2257 3983,2256 3983,2245 3982,2244 3982,2221 3981,2220 3981,2210 3982,2209 3982,2199 3981,2198 3981,2194 3980,2193 3980,2109 3981,2108 3981,2107 3980,2106 3980,2097 3979,2096 3979,2093 3980,2092 3980,2085 3981,2084 3981,2078 3982,2077 3982,2070 3983,2069 3983,2058 3982,2057 3982,2055 3981,2054 3981,2052 3980,2051 3980,2049 3979,2048 3979,2046 3978,2045 3978,2044 3975,2041 3974,2041 3973,2040 3970,2040 3969,2039 3961,2039 3960,2040 3959,2040 3958,2039 3937,2039 3936,2040 3930,2040 3929,2041 3927,2041 3926,2042 3924,2042 3923,2043 3922,2043 3921,2044 3920,2044 3919,2045 3918,2045 3917,2046 3914,2046 3913,2047 3905,2047 3904,2046 3846,2046 3845,2045 3843,2045 3842,2044 3839,2044 3838,2043 3834,2043 3833,2042 3827,2042 3826,2041 3816,2041 3815,2040 3811,2040 3810,2039 3807,2039 3806,2038" fill="rgba(116,99,103,0.3)" stroke="rgb(116,99,103)" stroke-width="2" data-block-id="0001" data-name="b-0006" /><text x="3818" y="2360" text-anchor="middle" dominant-baseline="middle" class="block-label" fill="rgb(116,99,103)" stroke="white" stroke-width="3" paint-order="stroke">b-0006</text><polygon points="3776,1227 3775,1228 3773,1228 3772,1229 3769,1229 3768,1230 3759,1230 3758,1231 3739,1231 3738,1232 3734,1232 3733,1233 3731,1233 3730,1234 3718,1234 3717,1235 3712,1235 3711,1236 3704,1236 3703,1235 3699,1235 3698,1234 3689,1234 3688,1233 3682,1233 3681,1234 3678,1234 3677,1235 3675,1235 3674,1236 3670,1236 3669,1235 3668,1235 3667,1234 3665,1234 3664,1233 3663,1233 3662,1232 3659,1232 3658,1231 3643,1231 3642,1230 3638,1230 3637,1229 3622,1229 3621,1230 3620,1230 3618,1232 3617,1232 3613,1236 3613,1238 3612,1239 3612,1242 3611,1243 3611,1245 3610,1246 3610,1265 3611,1266 3611,1274 3610,1275 3610,1280 3609,1281 3609,1289 3610,1290 3610,1302 3611,1303 3611,1308 3612,1309 3612,1314 3613,1315 3613,1320 3612,1321 3612,1322 3611,1323 3611,1324 3610,1325 3610,1327 3609,1328 3609,1335 3610,1336 3610,1339 3611,1340 3611,1347 3612,1348 3612,1372 3611,1373 3611,1379 3610,1380 3610,1392 3609,1393 3609,1409 3610,1410 3610,1417 3609,1418 3609,1439 3608,1440 3608,1451 3609,1452 3609,1454 3610,1455 3610,1457 3612,1459 3612,1462 3613,1463 3613,1464 3612,1465 3612,1470 3611,1471 3611,1482 3610,1483 3610,1505 3611,1506 3611,1512 3610,1513 3610,1542 3611,1543 3611,1548 3612,1549 3612,1553 3613,1554 3613,1559 3612,1560 3612,1563 3611,1564 3611,1566 3610,1567 3610,1577 3611,1578 3611,1583 3610,1584 3610,1599 3611,1600 3611,1610 3610,1611 3610,1635 3609,1636 3609,1643 3610,1644 3610,1650 3611,1651 3611,1657 3610,1658 3610,1693 3611,1694 3611,1696 3612,1697 3612,1701 3613,1702 3612,1703 3612,1716 3613,1717 3613,1720 3614,1721 3614,1729 3613,1730 3613,1734 3612,1735 3612,1736 3613,1737 3613,1740 3614,1741 3614,1743 3615,1744 3615,1746 3616,1747 3616,1751 3615,1752 3615,1757 3614,1758 3614,1761 3613,1762 3613,1764 3612,1765 3612,1766 3611,1767 3611,1770 3610,1771 3610,1779 3609,1780 3609,1783 3610,1784 3610,1787 3612,1789 3612,1790 3613,1791 3613,1792 3615,1794 3615,1795 3616,1796 3616,1805 3615,1806 3615,1808 3614,1809 3614,1811 3613,1812 3613,1815 3612,1816 3612,1820 3611,1821 3611,1825 3610,1826 3610,1836 3611,1837 3611,1839 3612,1840 3612,1842 3613,1843 3613,1853 3612,1854 3612,1857 3613,1858 3613,1869 3612,1870 3612,1874 3611,1875 3611,1883 3612,1884 3612,1886 3613,1887 3613,1889 3614,1890 3614,1897 3613,1898 3613,1917 3612,1918 3612,1921 3611,1922 3611,1924 3610,1925 3610,1927 3611,1928 3611,1929 3612,1930 3612,1931 3613,1932 3614,1932 3615,1933 3616,1933 3617,1934 3618,1934 3619,1935 3621,1935 3622,1936 3632,1936 3633,1935 3638,1935 3639,1936 3650,1936 3651,1937 3655,1937 3656,1938 3683,1938 3684,1937 3685,1937 3686,1936 3688,1936 3689,1935 3691,1935 3692,1934 3698,1934 3699,1935 3700,1935 3701,1936 3702,1936 3703,1937 3704,1937 3706,1939 3707,1939 3708,1940 3709,1940 3710,1941 3711,1941 3714,1944 3714,1945 3716,1947 3716,1949 3718,1951 3720,1951 3721,1952 3727,1952 3728,1953 3730,1953 3731,1952 3732,1952 3735,1949 3735,1946 3736,1945 3736,1943 3737,1942 3737,1941 3738,1940 3739,1940 3740,1939 3743,1939 3744,1938 3745,1939 3749,1939 3750,1940 3752,1940 3753,1941 3753,1944 3754,1945 3754,1946 3755,1946 3756,1945 3756,1944 3757,1943 3757,1942 3758,1941 3759,1941 3760,1940 3780,1940 3781,1939 3784,1939 3785,1938 3793,1938 3794,1939 3796,1939 3797,1940 3799,1940 3800,1941 3800,1944 3801,1945 3801,1949 3803,1951 3804,1951 3804,1950 3805,1949 3805,1947 3807,1945 3807,1944 3809,1942 3810,1942 3811,1941 3812,1941 3813,1940 3823,1940 3824,1941 3827,1941 3828,1942 3829,1942 3832,1945 3832,1946 3834,1948 3834,1949 3835,1950 3835,1951 3837,1953 3839,1953 3840,1954 3842,1954 3843,1955 3845,1955 3846,1956 3847,1956 3848,1957 3851,1957 3853,1955 3853,1954 3854,1953 3854,1950 3855,1949 3855,1948 3856,1947 3856,1946 3860,1942 3866,1942 3867,1943 3869,1943 3871,1945 3872,1945 3874,1947 3875,1947 3876,1948 3877,1948 3878,1947 3880,1947 3883,1944 3883,1943 3884,1942 3884,1941 3885,1940 3905,1940 3906,1941 3922,1941 3923,1940 3930,1940 3931,1939 3936,1939 3937,1940 3941,1940 3947,1946 3947,1947 3950,1950 3951,1950 3952,1951 3953,1951 3954,1952 3955,1952 3956,1953 3958,1953 3959,1952 3960,1952 3962,1950 3962,1949 3963,1948 3963,1946 3964,1945 3964,1943 3965,1942 3965,1941 3966,1940 3968,1940 3970,1938 3971,1938 3974,1935 3974,1934 3975,1933 3975,1932 3976,1931 3976,1929 3977,1928 3977,1900 3978,1899 3978,1873 3979,1872 3979,1868 3978,1867 3978,1859 3977,1858 3977,1842 3978,1841 3978,1838 3979,1837 3979,1834 3980,1833 3980,1832 3979,1831 3979,1828 3978,1827 3978,1824 3977,1823 3977,1807 3978,1806 3978,1788 3977,1787 3977,1781 3978,1780 3978,1765 3977,1764 3977,1742 3978,1741 3978,1733 3977,1732 3977,1727 3976,1726 3976,1714 3977,1713 3977,1681 3978,1680 3978,1667 3977,1666 3977,1659 3978,1658 3978,1654 3977,1653 3977,1568 3976,1567 3976,1551 3977,1550 3977,1536 3978,1535 3977,1534 3977,1526 3976,1525 3976,1514 3977,1513 3977,1472 3976,1471 3976,1458 3977,1457 3977,1454 3978,1453 3978,1449 3979,1448 3978,1447 3978,1438 3977,1437 3977,1420 3976,1419 3976,1408 3977,1407 3977,1393 3978,1392 3977,1391 3977,1362 3978,1361 3978,1341 3977,1340 3977,1332 3976,1331 3976,1326 3977,1325 3977,1316 3978,1315 3978,1312 3979,1311 3979,1300 3978,1299 3978,1288 3977,1287 3977,1280 3978,1279 3978,1269 3977,1268 3977,1254 3976,1253 3976,1243 3975,1242 3975,1239 3974,1238 3974,1237 3973,1236 3973,1235 3972,1234 3972,1233 3971,1232 3970,1232 3969,1231 3966,1231 3965,1230 3953,1230 3952,1231 3942,1231 3941,1230 3929,1230 3928,1229 3919,1229 3918,1230 3914,1230 3913,1231 3896,1231 3895,1230 3877,1230 3876,1231 3858,1231 3857,1230 3854,1230 3853,1229 3850,1229 3849,1228 3846,1228 3845,1229 3837,1229 3836,1228 3825,1228 3824,1229 3822,1229 3821,1230 3819,1230 3818,1231 3810,1231 3809,1230 3806,1230 3805,1229 3785,1229 3784,1228 3781,1228 3780,1227" fill="rgba(116,99,103,0.3)" stroke="rgb(116,99,103)" stroke-width="2" data-block-id="0002" data-name="b-0007" /><text x="3769" y="1650" text-anchor="middle" dominant-baseline="middle" class="block-label" fill="rgb(116,99,103)" stroke="white" stroke-width="3" paint-order="stroke">b-0007</text><polygon points="3178,1198 3177,1199 3177,1200 3176,1201 3176,1203 3175,1204 3175,1210 3171,1214 3170,1214 3169,1215 3168,1215 3166,1217 3165,1217 3161,1221 3161,1222 3159,1224 3159,1226 3158,1227 3158,1230 3157,1231 3157,1255 3156,1256 3156,1261 3157,1262 3157,1295 3156,1296 3156,1308 3155,1309 3156,1310 3156,1322 3155,1323 3155,1371 3156,1372 3156,1398 3155,1399 3155,1425 3156,1426 3156,1448 3155,1449 3156,1450 3156,1479 3157,1480 3157,1588 3156,1589 3156,1598 3157,1599 3157,1623 3158,1624 3158,1660 3157,1661 3157,1668 3158,1669 3158,1682 3157,1683 3157,1719 3158,1720 3158,1770 3159,1771 3159,1774 3158,1775 3158,1785 3157,1786 3157,1816 3158,1817 3158,1828 3157,1829 3157,1836 3158,1837 3158,1865 3159,1866 3159,1873 3158,1874 3158,1910 3159,1911 3159,1919 3158,1920 3158,1931 3159,1932 3159,1933 3160,1934 3160,1935 3166,1941 3167,1941 3169,1943 3188,1943 3189,1942 3205,1942 3206,1941 3232,1941 3233,1942 3240,1942 3241,1943 3281,1943 3282,1942 3353,1942 3354,1943 3359,1943 3360,1942 3367,1942 3368,1941 3426,1941 3427,1942 3437,1942 3438,1943 3465,1943 3466,1942 3472,1942 3473,1943 3484,1943 3485,1942 3496,1942 3497,1941 3504,1941 3505,1940 3507,1940 3508,1939 3509,1939 3510,1938 3511,1938 3514,1935 3514,1934 3515,1933 3515,1930 3516,1929 3516,1894 3517,1893 3517,1891 3516,1890 3516,1837 3517,1836 3517,1832 3516,1831 3516,1789 3517,1788 3517,1780 3516,1779 3516,1729 3515,1728 3515,1723 3516,1722 3516,1671 3515,1670 3515,1513 3514,1512 3514,1509 3515,1508 3515,1404 3516,1403 3516,1387 3515,1386 3515,1355 3516,1354 3516,1351 3515,1350 3515,1324 3514,1323 3514,1318 3515,1317 3515,1310 3516,1309 3516,1300 3515,1299 3515,1270 3516,1269 3516,1246 3515,1245 3515,1237 3514,1236 3514,1232 3513,1231 3513,1229 3509,1225 3508,1225 3507,1224 3506,1224 3505,1223 3504,1223 3501,1220 3500,1220 3499,1219 3498,1219 3497,1218 3495,1218 3494,1217 3489,1217 3488,1218 3485,1218 3484,1219 3466,1219 3465,1220 3461,1220 3460,1221 3451,1221 3450,1220 3430,1220 3429,1219 3420,1219 3419,1218 3416,1218 3415,1217 3413,1217 3410,1214 3408,1214 3407,1213 3406,1213 3405,1214 3404,1214 3403,1215 3401,1215 3400,1216 3398,1216 3397,1217 3395,1217 3394,1218 3392,1218 3391,1219 3388,1219 3387,1220 3376,1220 3375,1219 3370,1219 3369,1220 3358,1220 3357,1219 3355,1219 3354,1218 3352,1218 3351,1217 3349,1217 3348,1216 3346,1216 3345,1217 3340,1217 3339,1218 3335,1218 3334,1217 3332,1217 3331,1216 3330,1216 3329,1215 3328,1215 3327,1214 3326,1214 3325,1213 3324,1213 3323,1212 3314,1212 3313,1213 3312,1213 3310,1215 3309,1215 3308,1216 3307,1216 3306,1217 3304,1217 3303,1218 3288,1218 3287,1217 3285,1217 3284,1216 3282,1216 3281,1215 3279,1215 3278,1214 3276,1214 3275,1215 3273,1215 3272,1216 3271,1216 3270,1217 3268,1217 3267,1218 3236,1218 3235,1217 3227,1217 3226,1218 3214,1218 3213,1217 3210,1217 3209,1216 3207,1216 3206,1215 3205,1215 3204,1214 3201,1214 3200,1213 3199,1213 3198,1212 3197,1212 3196,1211 3195,1211 3193,1209 3193,1208 3192,1207 3192,1206 3191,1205 3191,1204 3190,1203 3190,1202 3188,1200 3187,1200 3186,1199 3185,1199 3184,1198" fill="rgba(52,1,87,0.3)" stroke="rgb(52,1,87)" stroke-width="2" data-block-id="0003" data-name="b-0010" /><text x="3323" y="1446" text-anchor="middle" dominant-baseline="middle" class="block-label" fill="rgb(52,1,87)" stroke="white" stroke-width="3" paint-order="stroke">b-0010</text><polygon points="4132,408 4131,409 4083,409 4082,410 4077,410 4076,411 4075,411 4073,413 4073,414 4072,415 4072,416 4071,417 4071,419 4070,420 4070,424 4069,425 4069,448 4068,449 4068,513 4067,514 4067,525 4068,526 4068,537 4067,538 4067,550 4068,551 4068,558 4067,559 4067,570 4068,571 4068,616 4067,617 4067,646 4068,647 4068,655 4067,656 4067,682 4066,683 4066,699 4067,700 4067,724 4066,725 4066,740 4065,741 4065,764 4066,765 4066,781 4065,782 4065,811 4066,812 4066,862 4067,863 4067,942 4066,943 4066,949 4067,950 4067,990 4066,991 4066,1054 4067,1055 4067,1122 4068,1123 4068,1127 4069,1128 4069,1129 4072,1132 4073,1132 4074,1133 4077,1133 4078,1134 4154,1134 4155,1135 4161,1135 4162,1136 4173,1136 4174,1137 4186,1137 4187,1136 4196,1136 4197,1135 4202,1135 4203,1136 4250,1136 4251,1137 4257,1137 4258,1138 4275,1138 4276,1139 4280,1139 4281,1138 4292,1138 4293,1137 4294,1137 4295,1138 4312,1138 4313,1139 4331,1139 4332,1138 4360,1138 4361,1139 4366,1139 4367,1138 4369,1138 4370,1137 4373,1137 4374,1136 4375,1136 4376,1135 4377,1135 4380,1132 4380,1131 4381,1130 4381,1111 4382,1110 4382,1095 4383,1094 4383,1084 4384,1083 4384,1069 4383,1068 4383,1048 4382,1047 4382,1041 4383,1040 4383,1000 4384,999 4384,958 4383,957 4383,930 4384,929 4384,924 4383,923 4383,911 4384,910 4384,906 4385,905 4385,887 4386,886 4386,864 4385,863 4385,822 4384,821 4384,801 4385,800 4385,751 4386,750 4386,726 4385,725 4385,692 4386,691 4386,683 4385,682 4385,669 4386,668 4386,647 4387,646 4387,634 4386,633 4386,621 4387,620 4387,617 4388,616 4388,595 4389,594 4389,590 4388,589 4388,585 4387,584 4387,578 4386,577 4386,576 4387,575 4387,561 4386,560 4386,546 4387,545 4387,544 4386,543 4386,536 4385,535 4385,503 4386,502 4386,492 4385,491 4385,462 4384,461 4384,453 4385,452 4385,448 4384,447 4384,442 4383,441 4383,433 4384,432 4384,430 4385,429 4385,428 4386,427 4386,426 4387,425 4387,422 4385,420 4385,419 4383,417 4383,416 4382,415 4381,415 4379,413 4378,413 4377,412 4373,412 4372,411 4361,411 4360,412 4354,412 4353,413 4346,413 4345,412 4334,412 4333,411 4309,411 4308,410 4297,410 4296,411 4293,411 4292,410 4287,410 4286,409 4238,409 4237,408 4227,408 4226,409 4207,409 4206,410 4194,410 4193,409 4144,409 4143,408" fill="rgba(235,157,37,0.3)" stroke="rgb(235,157,37)" stroke-width="2" data-block-id="0004" data-name="b-0013" /><text x="4262" y="734" text-anchor="middle" dominant-baseline="middle" class="block-label" fill="rgb(235,157,37)" stroke="white" stroke-width="3" paint-order="stroke">b-0013</text><polygon points="4231,2038 4230,2039 4228,2039 4227,2040 4226,2040 4225,2041 4223,2041 4222,2042 4216,2042 4215,2041 4194,2041 4193,2042 4180,2042 4179,2041 4170,2041 4169,2040 4147,2040 4146,2039 4135,2039 4134,2040 4131,2040 4130,2041 4127,2041 4126,2042 4084,2042 4083,2043 4078,2043 4075,2046 4075,2047 4074,2048 4074,2058 4075,2059 4075,2077 4074,2078 4074,2097 4075,2098 4075,2114 4076,2115 4076,2121 4075,2122 4075,2161 4076,2162 4076,2169 4075,2170 4075,2193 4074,2194 4074,2198 4073,2199 4073,2242 4074,2243 4074,2247 4075,2248 4075,2256 4076,2257 4076,2267 4075,2268 4075,2315 4074,2316 4074,2348 4075,2349 4075,2396 4076,2397 4076,2411 4075,2412 4075,2445 4076,2446 4076,2460 4075,2461 4075,2495 4076,2496 4076,2504 4075,2505 4075,2513 4074,2514 4074,2523 4075,2524 4075,2538 4076,2539 4076,2560 4075,2561 4075,2574 4076,2575 4076,2619 4075,2620 4075,2630 4074,2631 4074,2638 4075,2639 4075,2645 4074,2646 4074,2674 4075,2675 4075,2680 4076,2681 4076,2685 4075,2686 4075,2695 4076,2696 4076,2709 4075,2710 4075,2718 4074,2719 4074,2724 4073,2725 4073,2734 4074,2735 4074,2756 4075,2757 4075,2761 4076,2762 4076,2763 4077,2763 4078,2764 4079,2764 4080,2765 4084,2765 4085,2766 4100,2766 4101,2765 4103,2765 4104,2766 4121,2766 4122,2765 4134,2765 4135,2766 4140,2766 4141,2765 4152,2765 4153,2766 4180,2766 4181,2765 4191,2765 4192,2764 4203,2764 4204,2765 4213,2765 4214,2764 4233,2764 4234,2763 4238,2763 4239,2762 4252,2762 4253,2763 4285,2763 4286,2762 4290,2762 4291,2761 4295,2761 4296,2762 4303,2762 4304,2763 4320,2763 4321,2764 4354,2764 4355,2765 4362,2765 4363,2766 4377,2766 4378,2765 4380,2765 4381,2764 4382,2764 4384,2762 4385,2762 4390,2757 4392,2757 4393,2756 4396,2756 4397,2755 4399,2755 4400,2754 4401,2754 4402,2753 4402,2752 4403,2751 4403,2748 4402,2747 4402,2743 4401,2742 4401,2740 4400,2739 4400,2732 4399,2731 4399,2726 4400,2725 4400,2720 4401,2719 4401,2710 4402,2709 4402,2702 4401,2701 4401,2699 4400,2698 4400,2697 4399,2696 4399,2695 4397,2693 4397,2692 4396,2691 4396,2690 4397,2689 4397,2688 4398,2687 4398,2686 4399,2685 4399,2683 4400,2682 4400,2681 4401,2680 4401,2678 4402,2677 4402,2676 4403,2675 4403,2673 4404,2672 4404,2670 4405,2669 4405,2651 4404,2650 4404,2631 4403,2630 4403,2627 4402,2626 4402,2625 4401,2624 4401,2623 4400,2622 4400,2620 4399,2619 4399,2618 4400,2617 4400,2613 4401,2612 4401,2609 4400,2608 4400,2607 4398,2605 4396,2605 4395,2604 4393,2604 4392,2603 4390,2603 4389,2602 4389,2601 4388,2600 4388,2598 4387,2597 4387,2583 4388,2582 4388,2579 4389,2578 4389,2576 4390,2575 4391,2575 4393,2573 4393,2569 4392,2568 4392,2567 4389,2564 4389,2557 4388,2556 4388,2544 4389,2543 4389,2538 4390,2537 4390,2524 4391,2523 4391,2520 4392,2519 4392,2516 4393,2515 4393,2513 4392,2512 4392,2511 4390,2509 4390,2508 4389,2507 4389,2505 4388,2504 4388,2495 4389,2494 4389,2490 4390,2489 4390,2488 4391,2487 4391,2482 4392,2481 4392,2475 4393,2474 4393,2471 4394,2470 4394,2468 4395,2467 4395,2464 4392,2461 4392,2460 4391,2459 4391,2458 4390,2457 4390,2456 4389,2455 4389,2446 4390,2445 4390,2431 4391,2430 4391,2427 4392,2426 4392,2424 4393,2423 4393,2422 4394,2421 4394,2420 4395,2419 4395,2415 4393,2413 4393,2412 4389,2408 4389,2400 4391,2398 4391,2397 4393,2395 4393,2394 4394,2393 4394,2378 4395,2377 4395,2368 4394,2367 4394,2366 4393,2365 4393,2364 4391,2362 4391,2361 4389,2359 4389,2351 4390,2350 4390,2348 4391,2347 4391,2342 4392,2341 4392,2322 4391,2321 4391,2319 4390,2318 4390,2317 4389,2316 4389,2312 4388,2311 4388,2299 4389,2298 4389,2294 4390,2293 4390,2292 4391,2291 4391,2290 4392,2289 4392,2288 4393,2287 4393,2282 4392,2281 4392,2277 4391,2276 4391,2270 4390,2269 4390,2264 4389,2263 4389,2250 4390,2249 4390,2248 4391,2247 4391,2246 4392,2245 4392,2243 4393,2242 4393,2238 4392,2237 4392,2236 4391,2235 4391,2234 4390,2233 4390,2232 4389,2231 4389,2228 4388,2227 4388,2219 4389,2218 4389,2213 4388,2212 4388,2206 4387,2205 4387,2170 4388,2169 4388,2166 4387,2165 4387,2162 4386,2161 4386,2157 4385,2156 4385,2152 4386,2151 4386,2143 4387,2142 4387,2140 4386,2139 4386,2117 4385,2116 4385,2084 4384,2083 4384,2067 4383,2066 4383,2054 4382,2053 4382,2048 4378,2044 4376,2044 4375,2043 4372,2043 4371,2044 4361,2044 4360,2043 4356,2043 4355,2042 4345,2042 4344,2043 4338,2043 4337,2042 4319,2042 4318,2043 4306,2043 4305,2044 4299,2044 4298,2045 4290,2045 4289,2044 4287,2044 4286,2043 4283,2043 4282,2042 4272,2042 4271,2043 4269,2043 4268,2042 4262,2042 4261,2041 4243,2041 4242,2040 4239,2040 4238,2039 4236,2039 4235,2038" fill="rgba(57,21,252,0.3)" stroke="rgb(57,21,252)" stroke-width="2" data-block-id="0005" data-name="b-0016" /><text x="4293" y="2434" text-anchor="middle" dominant-baseline="middle" class="block-label" fill="rgb(57,21,252)" stroke="white" stroke-width="3" paint-order="stroke">b-0016</text><polygon points="4746,2035 4745,2036 4743,2036 4742,2037 4740,2037 4739,2038 4729,2038 4728,2037 4725,2037 4724,2036 4716,2036 4715,2037 4702,2037 4701,2036 4700,2036 4699,2037 4696,2037 4695,2038 4693,2038 4692,2039 4690,2039 4689,2040 4686,2040 4685,2041 4684,2040 4680,2040 4679,2039 4665,2039 4664,2040 4659,2040 4658,2039 4645,2039 4644,2038 4628,2038 4627,2037 4600,2037 4599,2038 4570,2038 4569,2039 4566,2039 4565,2038 4548,2038 4547,2039 4525,2039 4524,2040 4516,2040 4515,2039 4510,2039 4509,2038 4496,2038 4495,2037 4492,2037 4491,2038 4482,2038 4481,2039 4480,2039 4479,2040 4478,2040 4475,2043 4475,2044 4474,2045 4474,2047 4473,2048 4473,2090 4472,2091 4472,2116 4471,2117 4471,2119 4472,2120 4472,2127 4473,2128 4473,2136 4472,2137 4472,2155 4471,2156 4471,2174 4472,2175 4472,2185 4471,2186 4471,2224 4472,2225 4472,2234 4471,2235 4471,2272 4472,2273 4472,2276 4471,2277 4471,2293 4472,2294 4472,2301 4471,2302 4471,2313 4472,2314 4472,2364 4473,2365 4473,2376 4472,2377 4472,2383 4473,2384 4473,2390 4474,2391 4474,2404 4473,2405 4473,2421 4474,2422 4474,2432 4473,2433 4473,2438 4472,2439 4472,2482 4473,2483 4473,2507 4474,2508 4474,2533 4473,2534 4473,2562 4474,2563 4474,2581 4473,2582 4473,2585 4474,2586 4474,2617 4473,2618 4473,2646 4474,2647 4474,2663 4473,2664 4473,2670 4474,2671 4474,2720 4473,2721 4473,2725 4472,2726 4472,2752 4473,2753 4473,2754 4474,2755 4474,2757 4475,2758 4475,2759 4477,2761 4477,2762 4478,2762 4480,2764 4482,2764 4483,2765 4487,2765 4488,2766 4495,2766 4496,2767 4505,2767 4506,2768 4511,2768 4512,2767 4523,2767 4524,2766 4546,2766 4547,2767 4552,2767 4553,2768 4558,2768 4559,2767 4570,2767 4571,2766 4608,2766 4609,2767 4620,2767 4621,2766 4642,2766 4643,2765 4667,2765 4668,2766 4740,2766 4741,2767 4770,2767 4771,2766 4773,2766 4774,2765 4776,2765 4779,2762 4780,2762 4780,2761 4783,2758 4783,2757 4784,2756 4784,2754 4785,2753 4785,2728 4786,2727 4786,2694 4785,2693 4785,2664 4786,2663 4786,2650 4787,2649 4787,2642 4786,2641 4786,2636 4785,2635 4785,2601 4784,2600 4784,2582 4785,2581 4785,2575 4786,2574 4786,2554 4785,2553 4785,2528 4786,2527 4786,2507 4785,2506 4785,2495 4786,2494 4786,2456 4785,2455 4785,2448 4786,2447 4786,2433 4785,2432 4785,2426 4786,2425 4786,2409 4785,2408 4785,2404 4786,2403 4786,2362 4785,2361 4785,2352 4786,2351 4786,2336 4785,2335 4785,2323 4786,2322 4786,2292 4787,2291 4787,2280 4786,2279 4786,2249 4787,2248 4787,2184 4786,2183 4786,2166 4787,2165 4786,2164 4786,2146 4787,2145 4787,2143 4786,2142 4786,2138 4785,2137 4785,2131 4784,2130 4784,2129 4785,2128 4785,2118 4786,2117 4785,2116 4785,2088 4784,2087 4784,2077 4785,2076 4785,2065 4784,2064 4784,2046 4780,2042 4779,2042 4778,2041 4777,2041 4776,2040 4775,2040 4773,2038 4772,2038 4771,2037 4761,2037 4760,2036 4752,2036 4751,2035" fill="rgba(57,21,252,0.3)" stroke="rgb(57,21,252)" stroke-width="2" data-block-id="0006" data-name="b-0017" /><text x="4630" y="2359" text-anchor="middle" dominant-baseline="middle" class="block-label" fill="rgb(57,21,252)" stroke="white" stroke-width="3" paint-order="stroke">b-0017</text><polygon points="2437,384 2436,385 2430,385 2429,386 2426,386 2425,387 2423,387 2421,389 2420,389 2418,391 2418,392 2417,393 2417,395 2416,396 2416,399 2415,400 2415,426 2416,427 2416,431 2417,432 2417,442 2418,443 2418,453 2419,454 2419,476 2420,477 2420,481 2421,482 2421,494 2422,495 2422,503 2423,504 2423,520 2424,521 2424,533 2425,534 2425,541 2426,542 2426,546 2427,547 2427,550 2428,551 2428,554 2429,555 2429,561 2430,562 2430,574 2431,575 2431,594 2432,595 2432,599 2433,600 2433,605 2434,606 2434,616 2435,617 2435,621 2436,622 2436,625 2437,626 2437,628 2438,629 2438,631 2439,632 2439,634 2440,635 2440,636 2441,637 2441,640 2442,641 2442,645 2443,646 2443,717 2444,718 2444,735 2445,736 2445,746 2446,747 2446,759 2447,760 2447,769 2448,770 2448,782 2449,783 2449,792 2450,793 2450,806 2451,807 2451,812 2452,813 2452,817 2453,818 2453,825 2454,826 2454,834 2455,835 2455,842 2456,843 2456,852 2457,853 2457,859 2458,860 2458,865 2459,866 2459,875 2460,876 2460,883 2461,884 2461,890 2462,891 2462,899 2463,900 2463,906 2464,907 2464,912 2465,913 2465,925 2466,926 2466,934 2467,935 2467,948 2468,949 2468,956 2469,957 2469,967 2470,968 2470,978 2471,979 2471,987 2472,988 2472,1001 2473,1002 2473,1008 2474,1009 2474,1018 2475,1019 2475,1027 2476,1028 2476,1036 2477,1037 2477,1050 2478,1051 2478,1058 2479,1059 2479,1064 2480,1065 2480,1070 2481,1071 2481,1074 2482,1075 2482,1079 2483,1080 2483,1103 2484,1104 2484,1107 2485,1108 2485,1110 2486,1111 2486,1112 2490,1116 2493,1116 2494,1117 2499,1117 2500,1118 2516,1118 2517,1119 2528,1119 2529,1118 2542,1118 2543,1119 2554,1119 2555,1120 2564,1120 2565,1121 2575,1121 2576,1122 2613,1122 2614,1123 2659,1123 2660,1124 2686,1124 2687,1123 2743,1123 2744,1122 2776,1122 2777,1121 2793,1121 2794,1122 2817,1122 2818,1121 2828,1121 2829,1122 2987,1122 2988,1123 3021,1123 3022,1124 3043,1124 3044,1123 3051,1123 3052,1122 3055,1122 3056,1121 3058,1121 3059,1120 3060,1120 3062,1118 3062,1117 3063,1116 3063,1110 3064,1109 3064,1064 3063,1063 3063,1046 3064,1045 3064,1031 3063,1030 3063,1020 3062,1019 3062,979 3061,978 3061,952 3062,951 3062,862 3063,861 3063,822 3062,821 3062,771 3063,770 3063,744 3064,743 3064,738 3065,737 3065,710 3064,709 3064,701 3063,700 3063,680 3064,679 3064,641 3065,640 3065,612 3064,611 3064,545 3065,544 3065,417 3064,416 3064,405 3063,404 3063,400 3060,397 3057,397 3056,396 3054,396 3053,395 3050,395 3049,394 3041,394 3040,395 3037,395 3036,394 2968,394 2967,393 2936,393 2935,392 2929,392 2928,391 2915,391 2914,392 2911,392 2910,393 2908,393 2907,394 2887,394 2886,395 2840,395 2839,396 2814,396 2813,397 2793,397 2792,396 2785,396 2784,397 2773,397 2772,396 2766,396 2765,395 2731,395 2730,394 2721,394 2720,393 2692,393 2691,394 2684,394 2683,395 2671,395 2670,396 2658,396 2657,397 2644,397 2643,398 2628,398 2627,399 2603,399 2602,398 2595,398 2594,397 2589,397 2588,396 2581,396 2580,395 2563,395 2562,394 2551,394 2550,393 2540,393 2539,392 2529,392 2528,391 2520,391 2519,390 2509,390 2508,389 2501,389 2500,388 2486,388 2485,387 2466,387 2465,386 2458,386 2457,385 2447,385 2446,384" fill="rgba(218,58,254,0.3)" stroke="rgb(218,58,254)" stroke-width="2" data-block-id="0007" data-name="b-0020" /><text x="2641" y="715" text-anchor="middle" dominant-baseline="middle" class="block-label" fill="rgb(218,58,254)" stroke="white" stroke-width="3" paint-order="stroke">b-0020</text><polygon points="2520,1211 2519,1212 2510,1212 2509,1213 2501,1213 2500,1214 2498,1214 2496,1216 2496,1217 2494,1219 2494,1220 2493,1221 2493,1230 2494,1231 2494,1240 2495,1241 2495,1252 2496,1253 2496,1259 2497,1260 2497,1279 2498,1280 2498,1289 2499,1290 2499,1294 2500,1295 2500,1301 2501,1302 2501,1328 2502,1329 2502,1334 2503,1335 2503,1339 2504,1340 2504,1346 2505,1347 2505,1353 2506,1354 2506,1369 2507,1370 2507,1381 2508,1382 2508,1393 2509,1394 2509,1399 2510,1400 2510,1418 2511,1419 2511,1423 2512,1424 2512,1439 2513,1440 2513,1446 2514,1447 2514,1465 2515,1466 2515,1482 2516,1483 2516,1491 2517,1492 2517,1513 2518,1514 2518,1522 2519,1523 2519,1529 2520,1530 2520,1539 2521,1540 2521,1556 2522,1557 2522,1569 2523,1570 2523,1580 2524,1581 2524,1588 2525,1589 2525,1608 2526,1609 2526,1618 2527,1619 2527,1623 2528,1624 2528,1628 2529,1629 2529,1644 2530,1645 2530,1652 2531,1653 2531,1664 2532,1665 2532,1674 2533,1675 2533,1686 2534,1687 2534,1705 2535,1706 2535,1728 2536,1729 2536,1737 2537,1738 2537,1754 2538,1755 2538,1762 2539,1763 2539,1773 2540,1774 2540,1780 2541,1781 2541,1792 2542,1793 2542,1808 2543,1809 2543,1817 2544,1818 2544,1829 2545,1830 2545,1841 2546,1842 2546,1850 2547,1851 2547,1856 2548,1857 2548,1859 2549,1860 2549,1863 2550,1864 2550,1865 2551,1866 2551,1869 2552,1870 2552,1878 2553,1879 2553,1882 2554,1883 2554,1886 2555,1887 2555,1890 2556,1891 2556,1904 2557,1905 2557,1908 2558,1909 2558,1911 2559,1912 2559,1917 2560,1918 2560,1928 2561,1929 2561,1930 2562,1931 2562,1932 2566,1936 2568,1936 2569,1937 2572,1937 2573,1938 2599,1938 2600,1939 2661,1939 2662,1940 2715,1940 2716,1941 2734,1941 2735,1942 2741,1942 2742,1941 2779,1941 2780,1942 2803,1942 2804,1943 2807,1943 2808,1944 2818,1944 2819,1943 2858,1943 2859,1944 2860,1944 2861,1943 2871,1943 2872,1942 2877,1942 2878,1941 2890,1941 2891,1942 2898,1942 2899,1943 2902,1943 2903,1944 2906,1944 2907,1945 2916,1945 2917,1944 2918,1945 2923,1945 2924,1946 2930,1946 2931,1945 2932,1945 2934,1943 2935,1943 2936,1942 2939,1942 2940,1941 3015,1941 3016,1942 3037,1942 3038,1941 3043,1941 3044,1940 3050,1940 3051,1939 3055,1939 3056,1938 3058,1938 3059,1937 3060,1937 3062,1935 3062,1934 3063,1933 3063,1931 3064,1930 3064,1916 3065,1915 3065,1885 3064,1884 3064,1877 3065,1876 3065,1823 3064,1822 3064,1819 3065,1818 3065,1786 3064,1785 3064,1773 3065,1772 3065,1762 3066,1761 3066,1742 3065,1741 3065,1689 3064,1688 3064,1672 3065,1671 3065,1629 3066,1628 3066,1611 3065,1610 3065,1560 3064,1559 3064,1554 3065,1553 3065,1542 3064,1541 3064,1532 3065,1531 3065,1525 3066,1524 3066,1509 3065,1508 3065,1498 3064,1497 3065,1496 3065,1446 3064,1445 3064,1435 3065,1434 3065,1429 3066,1428 3066,1421 3065,1420 3065,1408 3064,1407 3064,1391 3065,1390 3065,1383 3066,1382 3066,1372 3065,1371 3065,1324 3064,1323 3064,1311 3065,1310 3065,1260 3066,1259 3066,1257 3065,1256 3065,1241 3066,1240 3066,1236 3065,1235 3065,1232 3064,1231 3064,1229 3063,1228 3063,1225 3059,1221 3058,1221 3057,1220 3055,1220 3054,1219 3052,1219 3051,1218 3032,1218 3031,1219 3025,1219 3024,1218 3007,1218 3006,1217 3000,1217 2999,1218 2984,1218 2983,1217 2980,1217 2979,1216 2928,1216 2927,1215 2914,1215 2913,1216 2900,1216 2899,1215 2833,1215 2832,1214 2816,1214 2815,1215 2797,1215 2796,1214 2729,1214 2728,1215 2661,1215 2660,1214 2650,1214 2649,1215 2592,1215 2591,1214 2573,1214 2572,1213 2564,1213 2563,1212 2551,1212 2550,1211" fill="rgba(169,219,187,0.3)" stroke="rgb(169,219,187)" stroke-width="2" data-block-id="0008" data-name="b-0021" /><text x="2758" y="1595" text-anchor="middle" dominant-baseline="middle" class="block-label" fill="rgb(169,219,187)" stroke="white" stroke-width="3" paint-order="stroke">b-0021</text><polygon points="1883,367 1882,368 1880,368 1879,369 1878,369 1876,371 1876,372 1875,373 1875,374 1874,375 1874,381 1873,382 1873,398 1874,399 1874,415 1875,416 1875,422 1876,423 1876,437 1877,438 1877,452 1878,453 1878,461 1879,462 1879,467 1880,468 1880,477 1881,478 1881,491 1882,492 1882,507 1883,508 1883,520 1884,521 1884,529 1885,530 1885,547 1886,548 1886,557 1887,558 1887,568 1888,569 1888,573 1889,574 1889,579 1890,580 1890,593 1891,594 1891,602 1892,603 1892,616 1893,617 1893,620 1894,621 1894,624 1895,625 1895,640 1896,641 1896,648 1897,649 1897,662 1898,663 1898,668 1899,669 1899,676 1900,677 1900,683 1901,684 1901,698 1902,699 1902,708 1903,709 1903,726 1904,727 1904,736 1905,737 1905,748 1906,749 1906,761 1907,762 1907,783 1908,784 1908,795 1909,796 1909,812 1910,813 1910,828 1911,829 1911,836 1912,837 1912,842 1913,843 1913,854 1914,855 1914,865 1915,866 1915,879 1916,880 1916,886 1917,887 1917,895 1918,896 1918,906 1919,907 1919,921 1920,922 1920,933 1921,934 1921,944 1922,945 1922,956 1923,957 1923,970 1924,971 1924,980 1925,981 1925,989 1926,990 1926,997 1927,998 1927,1005 1928,1006 1928,1023 1929,1024 1929,1031 1930,1032 1930,1043 1931,1044 1931,1055 1932,1056 1932,1094 1933,1095 1933,1100 1934,1101 1934,1111 1935,1112 1935,1125 1936,1126 1936,1141 1937,1142 1937,1147 1938,1148 1938,1156 1939,1157 1939,1168 1940,1169 1940,1175 1941,1176 1941,1185 1942,1186 1942,1195 1943,1196 1943,1209 1944,1210 1944,1216 1945,1217 1945,1223 1946,1224 1946,1241 1947,1242 1947,1254 1948,1255 1948,1263 1949,1264 1949,1269 1950,1270 1950,1277 1951,1278 1951,1291 1952,1292 1952,1303 1953,1304 1953,1315 1954,1316 1954,1330 1955,1331 1955,1344 1956,1345 1956,1372 1957,1373 1957,1391 1958,1392 1958,1403 1959,1404 1959,1405 1960,1406 1960,1407 1962,1409 1963,1409 1964,1410 1965,1410 1966,1411 1969,1411 1970,1412 1973,1412 1974,1413 1979,1413 1980,1414 1985,1414 1986,1415 1990,1415 1991,1416 1998,1416 1999,1417 2006,1417 2007,1418 2014,1418 2015,1419 2020,1419 2021,1420 2028,1420 2029,1421 2037,1421 2038,1422 2046,1422 2047,1423 2055,1423 2056,1424 2061,1424 2062,1425 2069,1425 2070,1426 2073,1426 2074,1427 2076,1427 2077,1428 2079,1428 2080,1429 2083,1429 2084,1430 2102,1430 2103,1431 2110,1431 2111,1432 2116,1432 2117,1433 2122,1433 2123,1434 2128,1434 2129,1435 2146,1435 2147,1436 2150,1436 2151,1437 2153,1437 2154,1438 2156,1438 2157,1439 2165,1439 2166,1440 2182,1440 2183,1441 2195,1441 2196,1442 2201,1442 2202,1443 2207,1443 2208,1444 2217,1444 2218,1445 2223,1445 2224,1446 2229,1446 2230,1447 2242,1447 2243,1448 2249,1448 2250,1449 2262,1449 2263,1450 2268,1450 2269,1451 2272,1451 2273,1452 2289,1452 2290,1453 2299,1453 2300,1452 2301,1452 2304,1449 2304,1445 2305,1444 2305,1432 2304,1431 2304,1426 2303,1425 2303,1415 2302,1414 2302,1402 2301,1401 2301,1392 2300,1391 2300,1385 2299,1384 2299,1371 2298,1370 2298,1362 2297,1361 2297,1354 2296,1353 2296,1338 2295,1337 2295,1324 2294,1323 2294,1316 2293,1315 2293,1309 2292,1308 2292,1303 2291,1302 2291,1299 2290,1298 2290,1290 2289,1289 2289,1280 2288,1279 2288,1272 2287,1271 2287,1264 2286,1263 2286,1257 2285,1256 2285,1250 2284,1249 2284,1237 2283,1236 2283,1230 2282,1229 2282,1226 2281,1225 2281,1218 2282,1217 2282,1209 2281,1208 2281,1202 2280,1201 2280,1196 2279,1195 2279,1190 2278,1189 2278,1183 2277,1182 2277,1179 2276,1178 2276,1175 2275,1174 2275,1159 2274,1158 2274,1149 2273,1148 2273,1128 2272,1127 2272,1117 2271,1116 2271,1109 2270,1108 2270,1103 2269,1102 2269,1095 2268,1094 2268,1082 2267,1081 2267,1075 2266,1074 2266,1069 2265,1068 2265,1056 2264,1055 2264,1047 2263,1046 2263,1041 2262,1040 2262,1037 2261,1036 2261,1034 2260,1033 2260,1032 2259,1031 2259,1025 2258,1024 2258,1018 2257,1017 2257,1011 2256,1010 2256,966 2255,965 2255,957 2254,956 2254,948 2253,947 2253,938 2252,937 2252,934 2251,933 2251,929 2250,928 2250,921 2249,920 2249,916 2248,915 2248,913 2247,912 2247,893 2246,892 2246,885 2245,884 2245,878 2244,877 2244,871 2243,870 2243,864 2242,863 2242,841 2241,840 2241,828 2240,827 2240,824 2239,823 2239,818 2238,817 2238,806 2237,805 2237,801 2236,800 2236,798 2235,797 2235,796 2234,795 2234,793 2233,792 2233,789 2234,788 2234,778 2233,777 2233,769 2232,768 2232,765 2231,764 2231,762 2230,761 2230,760 2229,759 2229,745 2228,744 2228,741 2227,740 2227,736 2226,735 2227,734 2227,730 2228,729 2228,725 2229,724 2229,721 2228,720 2228,716 2227,715 2227,713 2226,712 2226,702 2225,701 2225,689 2224,688 2224,671 2223,670 2223,660 2222,659 2222,652 2221,651 2221,632 2220,631 2220,620 2219,619 2219,614 2218,613 2218,600 2217,599 2217,597 2216,596 2216,595 2215,594 2215,593 2211,589 2211,577 2210,576 2210,575 2204,569 2204,568 2203,567 2203,550 2202,549 2202,540 2201,539 2201,533 2200,532 2200,523 2199,522 2199,514 2200,513 2200,490 2199,489 2199,484 2198,483 2198,479 2197,478 2197,476 2196,475 2196,474 2195,473 2195,470 2194,469 2194,465 2193,464 2193,444 2192,443 2192,440 2191,439 2191,436 2190,435 2190,434 2191,433 2191,427 2192,426 2192,422 2191,421 2191,417 2190,416 2190,415 2188,413 2188,412 2185,409 2185,408 2182,405 2182,404 2181,403 2181,399 2180,398 2180,395 2179,394 2179,392 2178,391 2178,388 2177,387 2177,385 2175,383 2175,382 2174,381 2173,381 2171,379 2167,379 2166,378 2165,379 2154,379 2153,378 2124,378 2123,377 2067,377 2066,376 2053,376 2052,377 2045,377 2044,376 2024,376 2023,375 2010,375 2009,374 1991,374 1990,373 1983,373 1982,372 1965,372 1964,371 1955,371 1954,370 1937,370 1936,369 1932,369 1931,368 1923,368 1922,369 1915,369 1914,368 1887,368 1886,367" fill="rgba(207,14,189,0.3)" stroke="rgb(207,14,189)" stroke-width="2" data-block-id="0009" data-name="b-0022" /><text x="2103" y="925" text-anchor="middle" dominant-baseline="middle" class="block-label" fill="rgb(207,14,189)" stroke="white" stroke-width="3" paint-order="stroke">b-0022</text><polygon points="2602,2033 2601,2034 2583,2034 2582,2035 2580,2035 2579,2036 2578,2036 2574,2040 2574,2041 2573,2042 2573,2043 2572,2044 2572,2046 2571,2047 2571,2050 2572,2051 2572,2074 2573,2075 2573,2077 2574,2078 2574,2081 2575,2082 2575,2086 2576,2087 2576,2092 2577,2093 2577,2096 2578,2097 2578,2101 2579,2102 2579,2122 2578,2123 2578,2135 2579,2136 2579,2140 2580,2141 2580,2151 2579,2152 2579,2169 2578,2170 2578,2176 2577,2177 2577,2184 2576,2185 2576,2207 2577,2208 2577,2213 2578,2214 2578,2218 2579,2219 2579,2223 2580,2224 2580,2244 2581,2245 2581,2257 2582,2258 2582,2264 2581,2265 2581,2280 2582,2281 2582,2287 2583,2288 2583,2291 2584,2292 2584,2296 2585,2297 2585,2300 2586,2301 2586,2302 2588,2304 2588,2305 2590,2307 2590,2309 2591,2310 2591,2312 2590,2313 2590,2316 2589,2317 2589,2325 2590,2326 2590,2330 2591,2331 2591,2338 2592,2339 2592,2345 2593,2346 2593,2425 2594,2426 2594,2455 2595,2456 2595,2467 2596,2468 2596,2483 2597,2484 2597,2499 2598,2500 2598,2520 2599,2521 2599,2529 2600,2530 2600,2536 2601,2537 2601,2557 2602,2558 2602,2569 2603,2570 2603,2589 2604,2590 2604,2611 2605,2612 2605,2619 2606,2620 2606,2635 2607,2636 2607,2644 2608,2645 2608,2659 2609,2660 2609,2664 2610,2665 2610,2668 2611,2669 2611,2675 2612,2676 2612,2683 2613,2684 2613,2693 2614,2694 2614,2701 2615,2702 2615,2738 2616,2739 2616,2742 2617,2743 2617,2744 2618,2745 2618,2746 2620,2748 2620,2749 2621,2750 2622,2750 2624,2752 2625,2752 2626,2753 2627,2753 2628,2754 2631,2754 2632,2755 2634,2755 2635,2756 2639,2756 2640,2757 2647,2757 2648,2758 2660,2758 2661,2759 2677,2759 2678,2760 2741,2760 2742,2761 2799,2761 2800,2762 2804,2762 2805,2763 2843,2763 2844,2764 2849,2764 2850,2763 2883,2763 2884,2764 2914,2764 2915,2765 2934,2765 2935,2764 2972,2764 2973,2763 2984,2763 2985,2764 2994,2764 2995,2763 3014,2763 3015,2764 3024,2764 3025,2765 3043,2765 3044,2764 3046,2764 3047,2763 3050,2763 3051,2762 3054,2762 3055,2761 3058,2761 3059,2760 3060,2760 3062,2758 3062,2757 3063,2756 3063,2753 3064,2752 3064,2720 3065,2719 3065,2713 3064,2712 3064,2695 3065,2694 3065,2687 3064,2686 3064,2676 3065,2675 3065,2644 3064,2643 3064,2642 3065,2641 3065,2628 3064,2627 3064,2570 3065,2569 3065,2557 3064,2556 3064,2543 3063,2542 3063,2529 3064,2528 3064,2459 3063,2458 3063,2372 3064,2371 3064,2368 3063,2367 3063,2229 3062,2228 3062,2215 3063,2214 3063,2046 3062,2045 3062,2044 3059,2041 3058,2041 3056,2039 3054,2039 3053,2038 3049,2038 3048,2037 3024,2037 3023,2038 3006,2038 3005,2037 2997,2037 2996,2038 2955,2038 2954,2037 2952,2037 2951,2038 2861,2038 2860,2037 2679,2037 2678,2036 2670,2036 2669,2037 2668,2036 2641,2036 2640,2035 2636,2035 2635,2034 2626,2034 2625,2033" fill="rgba(189,174,189,0.3)" stroke="rgb(189,174,189)" stroke-width="2" data-block-id="0010" data-name="b-0023" /><text x="2749" y="2428" text-anchor="middle" dominant-baseline="middle" class="block-label" fill="rgb(189,174,189)" stroke="white" stroke-width="3" paint-order="stroke">b-0023</text><polygon points="1061,316 1060,317 1057,317 1054,320 1054,321 1053,322 1053,324 1052,325 1052,328 1051,329 1051,337 1050,338 1050,355 1051,356 1051,401 1052,402 1052,410 1053,411 1053,423 1054,424 1054,430 1055,431 1055,449 1054,450 1054,454 1053,455 1053,478 1054,479 1054,501 1055,502 1055,545 1056,546 1056,550 1057,551 1057,562 1056,563 1056,573 1057,574 1057,595 1058,596 1058,613 1059,614 1059,622 1060,623 1060,651 1061,652 1061,665 1062,666 1062,705 1063,706 1063,747 1064,748 1064,768 1065,769 1065,784 1066,785 1066,794 1067,795 1067,797 1068,798 1068,799 1069,800 1069,801 1070,802 1070,803 1071,804 1071,810 1070,811 1070,813 1069,814 1069,825 1070,826 1070,848 1071,849 1071,867 1072,868 1072,872 1073,873 1073,875 1074,876 1074,879 1073,880 1073,882 1072,883 1072,885 1071,886 1071,888 1070,889 1070,891 1071,892 1071,897 1072,898 1072,913 1073,914 1073,915 1074,916 1074,917 1075,918 1075,919 1078,922 1078,923 1079,924 1079,926 1077,928 1077,929 1076,930 1076,931 1075,932 1075,933 1074,934 1074,944 1075,945 1075,957 1074,958 1074,963 1075,964 1075,993 1076,994 1076,1022 1077,1023 1077,1029 1078,1030 1078,1035 1079,1036 1079,1056 1080,1057 1080,1064 1081,1065 1081,1069 1082,1070 1082,1072 1083,1073 1083,1074 1088,1079 1088,1081 1089,1082 1089,1083 1090,1084 1090,1085 1092,1087 1092,1088 1093,1089 1093,1090 1094,1091 1094,1093 1095,1094 1095,1097 1096,1098 1096,1102 1097,1103 1097,1108 1096,1109 1096,1118 1095,1119 1095,1120 1092,1123 1092,1124 1089,1127 1089,1131 1090,1132 1090,1133 1091,1134 1091,1135 1092,1136 1092,1138 1093,1139 1092,1140 1092,1142 1091,1143 1091,1144 1090,1145 1090,1146 1089,1147 1089,1148 1088,1149 1088,1154 1089,1155 1089,1158 1090,1159 1090,1161 1091,1162 1090,1163 1090,1164 1088,1166 1088,1167 1086,1169 1086,1170 1085,1171 1085,1173 1084,1174 1084,1177 1085,1178 1085,1179 1086,1180 1086,1181 1087,1182 1087,1183 1088,1184 1088,1185 1089,1186 1089,1187 1088,1188 1088,1189 1087,1190 1086,1190 1083,1193 1083,1194 1082,1195 1082,1196 1081,1197 1081,1222 1082,1223 1082,1233 1083,1234 1083,1241 1084,1242 1084,1253 1085,1254 1085,1277 1084,1278 1084,1285 1085,1286 1085,1293 1086,1294 1086,1296 1090,1300 1091,1300 1092,1301 1104,1301 1105,1302 1110,1302 1111,1303 1115,1303 1116,1304 1128,1304 1129,1305 1134,1305 1135,1306 1141,1306 1142,1307 1154,1307 1155,1308 1159,1308 1160,1309 1166,1309 1167,1310 1178,1310 1179,1311 1186,1311 1187,1312 1194,1312 1195,1313 1201,1313 1202,1314 1211,1314 1212,1315 1217,1315 1218,1316 1222,1316 1223,1317 1228,1317 1229,1318 1236,1318 1237,1319 1243,1319 1244,1320 1249,1320 1250,1321 1255,1321 1256,1322 1267,1322 1268,1321 1276,1321 1277,1322 1283,1322 1284,1323 1286,1323 1287,1324 1288,1324 1289,1325 1291,1325 1292,1326 1295,1326 1296,1327 1302,1327 1303,1328 1311,1328 1312,1329 1320,1329 1321,1330 1327,1330 1328,1331 1337,1331 1338,1332 1348,1332 1349,1333 1359,1333 1360,1334 1368,1334 1369,1335 1376,1335 1377,1336 1385,1336 1386,1337 1392,1337 1393,1338 1400,1338 1401,1339 1418,1339 1419,1340 1424,1340 1425,1341 1427,1341 1428,1340 1429,1340 1433,1336 1433,1335 1434,1334 1434,1330 1435,1329 1435,1326 1434,1325 1434,1312 1433,1311 1433,1297 1432,1296 1432,1264 1431,1263 1431,1245 1430,1244 1430,1219 1429,1218 1429,1198 1428,1197 1428,1192 1427,1191 1427,1173 1426,1172 1426,1159 1425,1158 1425,1149 1424,1148 1424,1145 1423,1144 1423,1142 1422,1141 1422,1138 1421,1137 1421,1134 1420,1133 1420,1123 1421,1122 1421,1119 1422,1118 1422,1113 1421,1112 1421,1106 1420,1105 1420,1097 1419,1096 1419,1075 1420,1074 1420,1062 1419,1061 1419,1042 1418,1041 1418,1016 1417,1015 1417,1005 1416,1004 1416,998 1415,997 1415,980 1414,979 1414,964 1413,963 1413,957 1412,956 1412,953 1411,952 1411,934 1410,933 1410,910 1409,909 1409,881 1408,880 1408,865 1407,864 1407,860 1406,859 1406,856 1405,855 1405,852 1406,851 1406,846 1407,845 1407,836 1406,835 1406,817 1405,816 1405,807 1404,806 1404,794 1403,793 1403,786 1402,785 1402,776 1401,775 1401,756 1400,755 1400,748 1399,747 1399,728 1398,727 1398,708 1397,707 1397,682 1396,681 1396,665 1395,664 1395,643 1394,642 1394,628 1393,627 1393,617 1392,616 1392,602 1391,601 1391,594 1390,593 1390,553 1389,552 1389,532 1388,531 1388,511 1387,510 1387,494 1386,493 1386,474 1385,473 1385,446 1384,445 1384,440 1383,439 1383,413 1382,412 1382,401 1381,400 1381,391 1380,390 1380,383 1379,382 1379,377 1378,376 1378,371 1377,370 1377,361 1376,360 1376,356 1375,355 1375,353 1374,352 1374,351 1372,349 1372,348 1371,347 1371,346 1368,343 1367,343 1366,342 1365,342 1364,341 1362,341 1361,340 1360,340 1359,339 1342,339 1341,338 1338,338 1337,337 1315,337 1314,336 1294,336 1293,335 1291,335 1290,334 1287,334 1286,333 1281,333 1280,332 1272,332 1271,331 1260,331 1259,330 1235,330 1234,329 1229,329 1228,328 1223,328 1222,327 1213,327 1212,326 1208,326 1207,325 1200,325 1199,324 1174,324 1173,323 1154,323 1153,322 1139,322 1138,321 1126,321 1125,320 1120,320 1119,319 1098,319 1097,318 1085,318 1084,317 1075,317 1074,316" fill="rgba(50,107,54,0.3)" stroke="rgb(50,107,54)" stroke-width="2" data-block-id="0011" data-name="b-0024" /><text x="1220" y="902" text-anchor="middle" dominant-baseline="middle" class="block-label" fill="rgb(50,107,54)" stroke="white" stroke-width="3" paint-order="stroke">b-0024</text><polygon points="1504,342 1503,343 1487,343 1486,344 1483,344 1482,345 1481,345 1480,346 1478,346 1474,350 1474,351 1473,352 1473,358 1472,359 1472,372 1473,373 1473,412 1474,413 1474,431 1475,432 1475,449 1476,450 1476,468 1477,469 1477,496 1478,497 1478,504 1479,505 1479,526 1480,527 1480,545 1481,546 1481,552 1482,553 1482,564 1483,565 1483,595 1484,596 1484,602 1485,603 1485,619 1486,620 1486,635 1485,636 1485,637 1486,638 1486,647 1487,648 1487,656 1488,657 1488,686 1489,687 1489,695 1490,696 1490,728 1491,729 1491,740 1492,741 1492,755 1493,756 1493,783 1494,784 1494,800 1495,801 1495,817 1496,818 1496,833 1497,834 1497,849 1498,850 1498,863 1499,864 1499,879 1500,880 1500,897 1501,898 1501,919 1502,920 1502,944 1503,945 1503,955 1504,956 1504,960 1505,961 1505,971 1506,972 1506,981 1507,982 1507,1034 1506,1035 1506,1047 1507,1048 1507,1056 1508,1057 1508,1077 1509,1078 1509,1091 1510,1092 1510,1099 1511,1100 1511,1105 1512,1106 1512,1115 1513,1116 1513,1125 1514,1126 1514,1133 1515,1134 1515,1144 1516,1145 1516,1153 1517,1154 1517,1164 1518,1165 1518,1176 1519,1177 1519,1191 1520,1192 1520,1199 1521,1200 1521,1214 1522,1215 1522,1223 1523,1224 1523,1233 1524,1234 1524,1257 1525,1258 1525,1272 1526,1273 1526,1296 1527,1297 1527,1313 1528,1314 1528,1336 1529,1337 1529,1341 1530,1342 1530,1346 1531,1347 1531,1351 1532,1352 1532,1353 1533,1354 1533,1355 1534,1355 1535,1356 1536,1356 1537,1357 1540,1357 1541,1358 1543,1358 1544,1359 1548,1359 1549,1360 1560,1360 1561,1361 1569,1361 1570,1362 1576,1362 1577,1363 1582,1363 1583,1364 1590,1364 1591,1365 1597,1365 1598,1366 1603,1366 1604,1367 1611,1367 1612,1368 1621,1368 1622,1369 1632,1369 1633,1370 1639,1370 1640,1371 1646,1371 1647,1372 1652,1372 1653,1373 1658,1373 1659,1374 1665,1374 1666,1375 1675,1375 1676,1376 1681,1376 1682,1377 1687,1377 1688,1378 1694,1378 1695,1379 1705,1379 1706,1380 1717,1380 1718,1381 1723,1381 1724,1382 1729,1382 1730,1383 1735,1383 1736,1384 1742,1384 1743,1385 1749,1385 1750,1386 1757,1386 1758,1387 1766,1387 1767,1388 1788,1388 1789,1389 1794,1389 1795,1390 1805,1390 1806,1391 1813,1391 1814,1392 1818,1392 1819,1393 1824,1393 1825,1394 1832,1394 1833,1395 1839,1395 1840,1396 1845,1396 1846,1397 1859,1397 1863,1393 1863,1392 1864,1391 1864,1387 1865,1386 1865,1372 1864,1371 1864,1364 1863,1363 1863,1356 1862,1355 1862,1344 1861,1343 1861,1326 1860,1325 1860,1312 1859,1311 1859,1296 1858,1295 1858,1287 1857,1286 1857,1274 1856,1273 1856,1262 1855,1261 1855,1244 1854,1243 1854,1236 1853,1235 1853,1220 1852,1219 1852,1211 1851,1210 1851,1198 1850,1197 1850,1190 1849,1189 1849,1177 1848,1176 1848,1165 1847,1164 1847,1155 1846,1154 1846,1146 1845,1145 1845,1134 1844,1133 1844,1122 1843,1121 1843,1110 1842,1109 1842,1100 1841,1099 1841,1086 1840,1085 1840,1075 1839,1074 1839,1066 1838,1065 1838,1055 1837,1054 1837,1048 1836,1047 1836,1033 1835,1032 1835,1023 1834,1022 1834,1007 1833,1006 1833,996 1832,995 1832,984 1831,983 1831,974 1830,973 1830,962 1829,961 1829,947 1828,946 1828,938 1827,937 1827,930 1826,929 1826,920 1825,919 1825,907 1824,906 1824,893 1823,892 1823,883 1822,882 1822,874 1821,873 1821,858 1820,857 1820,843 1819,842 1819,834 1818,833 1818,823 1817,822 1817,806 1816,805 1816,798 1815,797 1815,791 1814,790 1814,782 1813,781 1813,773 1812,772 1812,758 1811,757 1811,747 1810,746 1810,729 1809,728 1809,718 1808,717 1808,708 1807,707 1807,693 1806,692 1806,679 1805,678 1805,671 1804,670 1804,665 1803,664 1803,656 1802,655 1802,646 1801,645 1801,635 1800,634 1800,626 1799,625 1799,614 1798,613 1798,606 1797,605 1797,588 1796,587 1796,577 1795,576 1795,571 1794,570 1794,559 1793,558 1793,539 1792,538 1792,528 1791,527 1791,517 1790,516 1790,508 1789,507 1789,497 1788,496 1788,482 1787,481 1787,471 1786,470 1786,462 1785,461 1785,443 1784,442 1784,436 1783,435 1783,426 1782,425 1782,415 1781,414 1781,404 1780,403 1780,393 1779,392 1779,380 1778,379 1778,370 1777,369 1777,365 1776,364 1776,363 1775,362 1774,362 1773,361 1772,361 1771,360 1769,360 1768,359 1765,359 1764,358 1759,358 1758,357 1750,357 1749,356 1734,356 1733,355 1712,355 1711,354 1683,354 1682,353 1672,353 1671,352 1659,352 1658,351 1635,351 1634,350 1623,350 1622,349 1607,349 1606,348 1597,348 1596,347 1578,347 1577,346 1568,346 1567,345 1555,345 1554,344 1538,344 1537,343 1517,343 1516,342" fill="rgba(243,63,248,0.3)" stroke="rgb(243,63,248)" stroke-width="2" data-block-id="0012" data-name="b-0025" /><text x="1679" y="915" text-anchor="middle" dominant-baseline="middle" class="block-label" fill="rgb(243,63,248)" stroke="white" stroke-width="3" paint-order="stroke">b-0025</text><polygon points="652,1345 651,1346 647,1346 646,1347 645,1347 644,1348 643,1348 641,1350 641,1351 640,1352 640,1354 639,1355 639,1358 638,1359 638,1363 637,1364 637,1371 636,1372 636,1381 635,1382 635,1388 634,1389 634,1393 633,1394 633,1398 632,1399 632,1402 631,1403 631,1409 630,1410 630,1417 629,1418 629,1428 628,1429 628,1436 627,1437 627,1440 626,1441 626,1443 625,1444 625,1447 624,1448 624,1451 623,1452 623,1458 622,1459 622,1468 621,1469 621,1499 622,1500 622,1512 623,1513 623,1533 624,1534 624,1540 625,1541 625,1551 626,1552 626,1564 627,1565 627,1581 628,1582 628,1593 629,1594 629,1607 630,1608 630,1629 631,1630 631,1634 632,1635 632,1637 633,1638 633,1639 634,1640 634,1641 635,1642 635,1657 636,1658 636,1662 637,1663 637,1685 638,1686 638,1699 639,1700 639,1708 640,1709 640,1727 641,1728 641,1736 642,1737 642,1751 643,1752 643,1761 644,1762 644,1770 645,1771 645,1777 646,1778 646,1782 647,1783 647,1787 646,1788 646,1803 647,1804 647,1812 648,1813 648,1819 649,1820 649,1843 650,1844 650,1859 651,1860 651,1870 652,1871 652,1884 653,1885 653,1897 654,1898 654,1919 655,1920 655,1938 656,1939 656,1948 657,1949 657,1960 658,1961 658,1969 659,1970 659,1991 660,1992 660,2009 661,2010 661,2020 662,2021 662,2034 663,2035 663,2041 664,2042 664,2051 665,2052 665,2066 666,2067 666,2079 667,2080 667,2088 668,2089 668,2098 669,2099 669,2119 670,2120 670,2126 671,2127 671,2138 672,2139 672,2172 673,2173 673,2189 674,2190 674,2213 675,2214 675,2219 676,2220 676,2223 677,2224 677,2228 678,2229 678,2231 680,2233 680,2234 681,2234 683,2236 685,2236 686,2237 688,2237 689,2238 692,2238 693,2239 695,2239 696,2240 699,2240 700,2241 702,2241 703,2242 707,2242 708,2243 728,2243 729,2244 734,2244 735,2245 738,2245 739,2246 741,2246 742,2247 745,2247 746,2248 776,2248 777,2247 782,2247 783,2248 790,2248 791,2249 803,2249 804,2248 805,2248 806,2249 814,2249 815,2250 825,2250 826,2251 837,2251 838,2252 847,2252 848,2253 854,2253 855,2254 858,2254 859,2255 861,2255 862,2256 865,2256 866,2257 870,2257 871,2258 875,2258 876,2259 885,2259 886,2260 898,2260 899,2261 905,2261 906,2262 911,2262 912,2263 919,2263 920,2264 927,2264 928,2265 934,2265 935,2266 944,2266 945,2267 952,2267 953,2268 959,2268 960,2269 974,2269 975,2270 980,2270 981,2271 989,2271 990,2272 1001,2272 1002,2273 1007,2273 1008,2274 1014,2274 1015,2275 1028,2275 1029,2276 1035,2276 1036,2275 1040,2275 1041,2274 1043,2274 1044,2273 1044,2270 1045,2269 1045,2265 1046,2264 1046,2242 1045,2241 1045,2222 1044,2221 1044,2214 1043,2213 1043,2201 1042,2200 1042,2192 1041,2191 1041,2189 1042,2188 1042,2174 1041,2173 1041,2168 1040,2167 1040,2151 1039,2150 1039,2145 1038,2144 1038,2128 1037,2127 1037,2099 1036,2098 1036,2091 1035,2090 1035,2086 1034,2085 1034,2078 1033,2077 1033,2061 1032,2060 1032,2050 1031,2049 1031,2015 1030,2014 1030,1997 1029,1996 1029,1983 1028,1982 1028,1959 1027,1958 1027,1945 1026,1944 1026,1920 1025,1919 1025,1903 1024,1902 1024,1895 1023,1894 1023,1877 1022,1876 1022,1855 1021,1854 1021,1844 1020,1843 1020,1819 1019,1818 1019,1807 1018,1806 1018,1800 1017,1799 1017,1785 1016,1784 1016,1765 1015,1764 1015,1756 1014,1755 1014,1749 1013,1748 1013,1733 1012,1732 1012,1714 1011,1713 1011,1704 1010,1703 1010,1687 1009,1686 1009,1677 1008,1676 1008,1671 1007,1670 1007,1665 1006,1664 1006,1644 1005,1643 1005,1631 1004,1630 1004,1622 1003,1621 1003,1600 1002,1599 1002,1588 1001,1587 1001,1579 1000,1578 1000,1571 999,1570 999,1545 998,1544 998,1533 997,1532 997,1521 996,1520 996,1510 995,1509 995,1492 994,1491 994,1477 993,1476 993,1460 992,1459 992,1437 991,1436 991,1429 990,1428 990,1408 989,1407 989,1399 988,1398 988,1395 987,1394 987,1392 984,1389 982,1389 981,1388 978,1388 977,1387 972,1387 971,1386 960,1386 959,1385 949,1385 948,1384 943,1384 942,1383 937,1383 936,1382 930,1382 929,1381 923,1381 922,1380 916,1380 915,1379 910,1379 909,1378 905,1378 904,1377 900,1377 899,1376 896,1376 895,1375 892,1375 891,1374 881,1374 880,1373 863,1373 862,1372 854,1372 853,1371 847,1371 846,1370 840,1370 839,1369 834,1369 833,1368 828,1368 827,1367 805,1367 804,1366 802,1366 801,1365 797,1365 796,1364 789,1364 788,1363 781,1363 780,1362 765,1362 764,1361 759,1361 758,1360 756,1360 755,1359 754,1359 753,1358 751,1358 750,1357 745,1357 744,1356 734,1356 733,1355 731,1355 730,1354 727,1354 726,1353 724,1353 723,1352 712,1352 711,1351 697,1351 696,1350 683,1350 682,1349 672,1349 671,1348 667,1348 666,1347 661,1347 660,1346 653,1346" fill="rgba(130,228,50,0.3)" stroke="rgb(130,228,50)" stroke-width="2" data-block-id="0013" data-name="b-0026" /><text x="818" y="1794" text-anchor="middle" dominant-baseline="middle" class="block-label" fill="rgb(130,228,50)" stroke="white" stroke-width="3" paint-order="stroke">b-0026</text><polygon points="1091,1403 1090,1404 1088,1404 1087,1405 1086,1405 1085,1406 1084,1406 1083,1407 1083,1408 1082,1409 1082,1411 1081,1412 1081,1424 1082,1425 1082,1443 1083,1444 1083,1464 1084,1465 1084,1475 1085,1476 1085,1479 1086,1480 1086,1483 1087,1484 1087,1509 1088,1510 1088,1515 1089,1516 1089,1519 1090,1520 1090,1540 1091,1541 1091,1553 1092,1554 1092,1584 1093,1585 1093,1594 1094,1595 1094,1614 1095,1615 1095,1623 1096,1624 1096,1627 1097,1628 1097,1633 1096,1634 1096,1645 1097,1646 1097,1659 1098,1660 1098,1669 1099,1670 1099,1673 1100,1674 1100,1682 1099,1683 1099,1694 1100,1695 1100,1704 1101,1705 1101,1717 1102,1718 1102,1724 1103,1725 1103,1727 1102,1728 1102,1743 1103,1744 1103,1757 1104,1758 1104,1767 1105,1768 1105,1787 1106,1788 1106,1799 1107,1800 1107,1821 1108,1822 1108,1836 1109,1837 1109,1849 1110,1850 1110,1863 1111,1864 1111,1885 1112,1886 1112,1903 1113,1904 1113,1913 1114,1914 1114,1939 1115,1940 1115,1951 1116,1952 1116,1961 1117,1962 1117,1992 1118,1993 1118,1998 1119,1999 1119,2007 1120,2008 1120,2039 1121,2040 1121,2051 1122,2052 1122,2081 1123,2082 1123,2088 1124,2089 1124,2094 1125,2095 1125,2107 1126,2108 1126,2134 1127,2135 1127,2144 1128,2145 1128,2151 1129,2152 1129,2158 1130,2159 1130,2164 1131,2165 1131,2180 1132,2181 1132,2189 1133,2190 1133,2200 1134,2201 1134,2209 1135,2210 1135,2228 1136,2229 1136,2236 1137,2237 1137,2257 1138,2258 1138,2276 1139,2277 1139,2284 1140,2285 1140,2286 1142,2288 1142,2289 1143,2289 1144,2290 1146,2290 1147,2291 1148,2291 1149,2292 1151,2292 1152,2293 1157,2293 1158,2294 1165,2294 1166,2295 1172,2295 1173,2296 1184,2296 1185,2297 1192,2297 1193,2298 1197,2298 1198,2299 1204,2299 1205,2300 1213,2300 1214,2301 1223,2301 1224,2302 1232,2302 1233,2303 1237,2303 1238,2304 1241,2304 1242,2305 1244,2305 1245,2306 1248,2306 1249,2307 1264,2307 1265,2308 1276,2308 1277,2309 1282,2309 1283,2310 1292,2310 1293,2311 1299,2311 1300,2312 1304,2312 1305,2313 1328,2313 1329,2314 1342,2314 1343,2315 1351,2315 1352,2316 1360,2316 1361,2317 1368,2317 1369,2318 1372,2318 1373,2319 1377,2319 1378,2320 1380,2320 1381,2321 1384,2321 1385,2322 1387,2322 1388,2323 1392,2323 1393,2324 1398,2324 1399,2325 1407,2325 1408,2326 1413,2326 1414,2327 1420,2327 1421,2328 1430,2328 1431,2329 1438,2329 1439,2330 1449,2330 1450,2331 1459,2331 1460,2332 1469,2332 1470,2333 1478,2333 1479,2334 1486,2334 1487,2335 1493,2335 1494,2336 1502,2336 1503,2335 1505,2335 1506,2334 1507,2334 1508,2333 1509,2333 1510,2332 1510,2330 1511,2329 1511,2325 1512,2324 1512,2296 1511,2295 1511,2292 1510,2291 1510,2290 1509,2289 1509,2288 1505,2284 1506,2283 1506,2282 1507,2281 1507,2280 1508,2279 1508,2278 1509,2277 1509,2276 1510,2275 1510,2263 1509,2262 1509,2257 1508,2256 1508,2251 1507,2250 1507,2248 1506,2247 1506,2237 1505,2236 1505,2225 1504,2224 1504,2222 1503,2221 1503,2219 1502,2218 1502,2216 1501,2215 1501,2212 1500,2211 1500,2205 1499,2204 1499,2199 1498,2198 1498,2193 1497,2192 1497,2188 1496,2187 1496,2178 1495,2177 1495,2175 1494,2174 1494,2173 1493,2172 1493,2170 1492,2169 1492,2167 1491,2166 1491,2164 1492,2163 1492,2151 1491,2150 1491,2148 1490,2147 1490,2146 1489,2145 1489,2142 1488,2141 1488,2126 1487,2125 1487,2119 1486,2118 1486,2115 1487,2114 1487,2081 1488,2080 1488,2074 1489,2073 1489,2070 1490,2069 1490,2068 1491,2067 1491,2064 1492,2063 1492,2059 1493,2058 1493,2054 1492,2053 1492,2033 1491,2032 1491,2027 1490,2026 1490,2007 1489,2006 1489,1995 1488,1994 1488,1986 1487,1985 1487,1977 1486,1976 1486,1958 1485,1957 1485,1950 1484,1949 1484,1937 1483,1936 1483,1916 1482,1915 1482,1902 1481,1901 1481,1896 1480,1895 1480,1878 1479,1877 1479,1869 1478,1868 1478,1863 1479,1862 1479,1856 1478,1855 1478,1850 1477,1849 1477,1845 1476,1844 1476,1830 1475,1829 1475,1822 1474,1821 1474,1811 1473,1810 1473,1801 1472,1800 1472,1772 1471,1771 1471,1758 1470,1757 1470,1749 1469,1748 1469,1745 1470,1744 1470,1734 1469,1733 1469,1723 1468,1722 1468,1717 1467,1716 1467,1707 1466,1706 1466,1691 1465,1690 1465,1682 1464,1681 1464,1669 1463,1668 1463,1650 1462,1649 1462,1638 1461,1637 1461,1627 1460,1626 1460,1617 1459,1616 1459,1600 1458,1599 1458,1582 1457,1581 1457,1574 1456,1573 1456,1562 1455,1561 1455,1552 1454,1551 1454,1541 1453,1540 1453,1530 1452,1529 1452,1518 1451,1517 1451,1505 1450,1504 1450,1497 1449,1496 1449,1485 1448,1484 1448,1477 1447,1476 1447,1466 1446,1465 1446,1460 1445,1459 1445,1456 1444,1455 1444,1454 1443,1453 1443,1451 1442,1450 1442,1449 1440,1447 1439,1447 1438,1446 1434,1446 1433,1445 1427,1445 1426,1444 1422,1444 1421,1443 1417,1443 1416,1442 1405,1442 1404,1441 1393,1441 1392,1440 1389,1440 1388,1439 1386,1439 1385,1438 1382,1438 1381,1437 1376,1437 1375,1436 1364,1436 1363,1435 1355,1435 1354,1434 1347,1434 1346,1433 1339,1433 1338,1432 1332,1432 1331,1431 1326,1431 1325,1430 1321,1430 1320,1429 1313,1429 1312,1428 1306,1428 1305,1427 1297,1427 1296,1426 1287,1426 1286,1425 1282,1425 1281,1424 1276,1424 1275,1423 1259,1423 1258,1422 1256,1422 1255,1421 1252,1421 1251,1420 1247,1420 1246,1419 1240,1419 1239,1418 1228,1418 1227,1417 1219,1417 1218,1416 1211,1416 1210,1415 1202,1415 1201,1414 1198,1414 1197,1413 1194,1413 1193,1412 1188,1412 1187,1411 1174,1411 1173,1410 1169,1410 1168,1409 1164,1409 1163,1408 1159,1408 1158,1407 1153,1407 1152,1406 1146,1406 1145,1405 1125,1405 1124,1404 1118,1404 1117,1403" fill="rgba(134,20,72,0.3)" stroke="rgb(134,20,72)" stroke-width="2" data-block-id="0014" data-name="b-0027" /><text x="1317" y="1890" text-anchor="middle" dominant-baseline="middle" class="block-label" fill="rgb(134,20,72)" stroke="white" stroke-width="3" paint-order="stroke">b-0027</text><polygon points="1976,1513 1975,1514 1974,1514 1973,1515 1973,1516 1972,1517 1972,1518 1971,1519 1971,1521 1970,1522 1970,1536 1971,1537 1971,1545 1972,1546 1972,1560 1973,1561 1973,1567 1974,1568 1974,1586 1975,1587 1975,1599 1976,1600 1976,1609 1977,1610 1977,1615 1978,1616 1978,1627 1979,1628 1979,1641 1980,1642 1980,1657 1981,1658 1981,1669 1982,1670 1982,1675 1983,1676 1983,1686 1984,1687 1984,1696 1985,1697 1985,1712 1986,1713 1986,1725 1987,1726 1987,1741 1988,1742 1988,1756 1989,1757 1989,1765 1990,1766 1990,1776 1991,1777 1991,1794 1992,1795 1992,1802 1993,1803 1993,1809 1994,1810 1994,1814 1995,1815 1995,1820 1996,1821 1996,1848 1997,1849 1997,1853 1998,1854 1998,1872 1999,1873 1999,1893 2000,1894 2000,1898 2001,1899 2001,1902 2002,1903 2002,1915 2003,1916 2003,1924 2004,1925 2004,1933 2005,1934 2005,1942 2006,1943 2006,1959 2007,1960 2007,1974 2008,1975 2008,1983 2009,1984 2009,2004 2010,2005 2010,2022 2011,2023 2011,2032 2012,2033 2012,2044 2013,2045 2013,2060 2014,2061 2014,2071 2015,2072 2015,2088 2016,2089 2016,2095 2017,2096 2017,2106 2018,2107 2018,2115 2019,2116 2019,2133 2020,2134 2020,2141 2021,2142 2021,2151 2022,2152 2022,2166 2023,2167 2023,2176 2024,2177 2024,2183 2025,2184 2025,2188 2026,2189 2026,2206 2027,2207 2027,2211 2028,2212 2028,2229 2029,2230 2029,2239 2030,2240 2030,2248 2031,2249 2031,2256 2032,2257 2032,2279 2033,2280 2033,2289 2034,2290 2034,2308 2035,2309 2035,2325 2036,2326 2036,2333 2037,2334 2037,2345 2038,2346 2038,2354 2039,2355 2039,2368 2040,2369 2040,2374 2041,2375 2041,2380 2042,2381 2042,2385 2043,2386 2043,2390 2044,2391 2044,2393 2045,2394 2045,2396 2049,2400 2051,2400 2052,2401 2056,2401 2057,2402 2060,2402 2061,2403 2064,2403 2065,2404 2068,2404 2069,2405 2086,2405 2087,2406 2092,2406 2093,2407 2099,2407 2100,2408 2106,2408 2107,2409 2119,2409 2120,2410 2129,2410 2130,2411 2138,2411 2139,2412 2148,2412 2149,2413 2175,2413 2176,2412 2213,2412 2214,2413 2215,2413 2216,2412 2232,2412 2233,2413 2238,2413 2239,2414 2246,2414 2247,2413 2252,2413 2253,2414 2259,2414 2260,2415 2267,2415 2268,2416 2279,2416 2280,2417 2294,2417 2295,2418 2310,2418 2311,2419 2314,2419 2315,2420 2317,2420 2318,2421 2319,2421 2320,2422 2322,2422 2323,2423 2333,2423 2334,2422 2335,2423 2338,2423 2339,2424 2341,2424 2342,2425 2343,2425 2344,2426 2345,2426 2346,2427 2353,2427 2354,2428 2366,2428 2367,2429 2379,2429 2380,2428 2386,2428 2387,2427 2389,2427 2390,2426 2391,2426 2393,2424 2393,2423 2394,2422 2394,2420 2395,2419 2395,2415 2396,2414 2396,2401 2397,2400 2397,2340 2398,2339 2398,2328 2397,2327 2397,2309 2396,2308 2396,2300 2395,2299 2395,2282 2394,2281 2394,2273 2393,2272 2393,2268 2392,2267 2392,2262 2391,2261 2391,2246 2390,2245 2390,2238 2389,2237 2389,2231 2388,2230 2388,2223 2387,2222 2387,2214 2386,2213 2386,2206 2385,2205 2385,2178 2384,2177 2384,2171 2383,2170 2383,2166 2382,2165 2382,2156 2381,2155 2381,2148 2380,2147 2380,2138 2379,2137 2379,2131 2378,2130 2378,2112 2377,2111 2377,2103 2376,2102 2376,2095 2375,2094 2375,2087 2374,2086 2374,2076 2373,2075 2373,2067 2372,2066 2372,2058 2371,2057 2371,2053 2370,2052 2370,2048 2369,2047 2369,2031 2368,2030 2368,2025 2367,2024 2367,2010 2366,2009 2366,2004 2365,2003 2365,1998 2364,1997 2364,1984 2363,1983 2363,1977 2362,1976 2362,1959 2361,1958 2361,1946 2360,1945 2360,1937 2359,1936 2359,1932 2358,1931 2358,1927 2357,1926 2357,1913 2356,1912 2356,1904 2355,1903 2355,1891 2354,1890 2354,1887 2353,1886 2353,1882 2352,1881 2352,1861 2351,1860 2351,1851 2350,1850 2350,1845 2349,1844 2349,1840 2348,1839 2348,1836 2347,1835 2347,1830 2346,1829 2346,1816 2345,1815 2345,1810 2344,1809 2344,1796 2343,1795 2343,1788 2342,1787 2342,1763 2341,1762 2341,1751 2340,1750 2340,1746 2339,1745 2339,1742 2338,1741 2338,1737 2337,1736 2337,1721 2336,1720 2336,1715 2335,1714 2335,1708 2334,1707 2334,1702 2333,1701 2333,1693 2332,1692 2332,1681 2331,1680 2331,1671 2330,1670 2330,1660 2329,1659 2329,1652 2328,1651 2328,1645 2327,1644 2327,1635 2326,1634 2326,1624 2325,1623 2325,1614 2324,1613 2324,1606 2323,1605 2323,1594 2322,1593 2322,1588 2321,1587 2321,1574 2320,1573 2320,1565 2319,1564 2319,1560 2318,1559 2318,1558 2314,1554 2313,1554 2312,1553 2311,1553 2310,1552 2307,1552 2306,1551 2303,1551 2302,1550 2295,1550 2294,1549 2284,1549 2283,1548 2277,1548 2276,1547 2269,1547 2268,1546 2259,1546 2258,1545 2253,1545 2252,1544 2248,1544 2247,1543 2244,1543 2243,1542 2234,1542 2233,1541 2215,1541 2214,1540 2209,1540 2208,1539 2199,1539 2198,1538 2188,1538 2187,1537 2182,1537 2181,1536 2174,1536 2173,1535 2165,1535 2164,1534 2148,1534 2147,1533 2143,1533 2142,1534 2139,1534 2138,1535 2137,1535 2136,1536 2135,1536 2134,1537 2129,1537 2128,1536 2127,1536 2126,1535 2124,1535 2123,1534 2120,1534 2119,1533 2107,1533 2106,1532 2100,1532 2099,1531 2084,1531 2083,1530 2078,1530 2077,1529 2073,1529 2072,1528 2064,1528 2063,1527 2060,1527 2056,1523 2055,1523 2054,1522 2053,1522 2052,1521 2050,1521 2049,1520 2045,1520 2044,1519 2037,1519 2036,1518 2028,1518 2027,1517 2019,1517 2018,1516 2003,1516 2002,1515 1997,1515 1996,1514 1992,1514 1991,1513" fill="rgba(166,17,131,0.3)" stroke="rgb(166,17,131)" stroke-width="2" data-block-id="0015" data-name="b-0028" /><text x="2189" y="1952" text-anchor="middle" dominant-baseline="middle" class="block-label" fill="rgb(166,17,131)" stroke="white" stroke-width="3" paint-order="stroke">b-0028</text><polygon points="1545,1457 1544,1458 1543,1458 1539,1462 1539,1464 1538,1465 1538,1469 1537,1470 1537,1476 1538,1477 1538,1486 1539,1487 1539,1494 1540,1495 1540,1504 1541,1505 1541,1515 1542,1516 1542,1536 1543,1537 1543,1554 1544,1555 1544,1567 1545,1568 1545,1590 1546,1591 1546,1609 1547,1610 1547,1615 1548,1616 1548,1621 1549,1622 1549,1629 1550,1630 1550,1642 1551,1643 1551,1656 1552,1657 1552,1668 1553,1669 1553,1675 1554,1676 1554,1710 1555,1711 1555,1716 1556,1717 1556,1720 1557,1721 1557,1725 1558,1726 1558,1736 1559,1737 1559,1743 1560,1744 1560,1750 1561,1751 1561,1760 1562,1761 1562,1773 1563,1774 1563,1795 1564,1796 1564,1804 1565,1805 1565,1823 1566,1824 1566,1837 1567,1838 1567,1847 1568,1848 1568,1854 1569,1855 1569,1876 1570,1877 1570,1896 1571,1897 1571,1900 1572,1901 1572,1915 1573,1916 1573,1924 1574,1925 1574,1938 1575,1939 1575,1945 1576,1946 1576,1965 1577,1966 1577,1979 1578,1980 1578,1999 1579,2000 1579,2008 1580,2009 1580,2031 1581,2032 1581,2045 1582,2046 1582,2052 1583,2053 1583,2059 1584,2060 1584,2073 1585,2074 1585,2098 1586,2099 1586,2108 1587,2109 1587,2123 1588,2124 1588,2134 1589,2135 1589,2150 1590,2151 1590,2174 1591,2175 1591,2186 1592,2187 1592,2199 1593,2200 1593,2210 1594,2211 1594,2226 1595,2227 1595,2231 1596,2232 1596,2237 1597,2238 1597,2252 1598,2253 1598,2277 1599,2278 1599,2291 1600,2292 1600,2306 1601,2307 1601,2333 1602,2334 1602,2337 1603,2338 1603,2340 1604,2341 1604,2342 1605,2343 1605,2344 1606,2344 1608,2346 1612,2346 1613,2347 1617,2347 1618,2348 1622,2348 1623,2349 1627,2349 1628,2350 1644,2350 1645,2351 1651,2351 1652,2352 1658,2352 1659,2353 1664,2353 1665,2354 1678,2354 1679,2355 1682,2355 1683,2356 1686,2356 1687,2357 1691,2357 1692,2358 1702,2358 1703,2359 1708,2359 1709,2360 1722,2360 1723,2361 1733,2361 1734,2362 1744,2362 1745,2363 1753,2363 1754,2364 1759,2364 1760,2365 1775,2365 1776,2366 1778,2366 1779,2367 1781,2367 1782,2368 1785,2368 1786,2369 1798,2369 1799,2370 1801,2370 1802,2371 1805,2371 1806,2372 1809,2372 1810,2373 1817,2373 1818,2374 1828,2374 1829,2375 1839,2375 1840,2376 1849,2376 1850,2377 1855,2377 1856,2378 1872,2378 1873,2379 1877,2379 1878,2380 1896,2380 1897,2381 1901,2381 1902,2382 1919,2382 1920,2383 1925,2383 1926,2384 1934,2384 1935,2383 1940,2383 1941,2382 1942,2382 1944,2380 1944,2377 1945,2376 1945,2372 1946,2371 1946,2367 1945,2366 1945,2358 1944,2357 1944,2333 1943,2332 1943,2315 1942,2314 1942,2297 1941,2296 1941,2293 1940,2292 1940,2289 1939,2288 1939,2285 1938,2284 1938,2283 1939,2282 1939,2273 1938,2272 1938,2268 1937,2267 1937,2263 1936,2262 1936,2245 1935,2244 1935,2230 1934,2229 1934,2221 1933,2220 1933,2214 1932,2213 1932,2210 1933,2209 1933,2201 1932,2200 1932,2196 1931,2195 1931,2174 1930,2173 1930,2170 1929,2169 1929,2166 1928,2165 1928,2164 1929,2163 1929,2152 1928,2151 1928,2146 1927,2145 1927,2126 1926,2125 1926,2120 1925,2119 1925,2110 1924,2109 1924,2081 1923,2080 1923,2073 1922,2072 1922,2066 1921,2065 1921,2061 1920,2060 1920,2057 1921,2056 1921,2040 1920,2039 1920,2020 1919,2019 1919,2001 1918,2000 1918,1994 1917,1993 1917,1986 1916,1985 1916,1968 1915,1967 1915,1961 1914,1960 1914,1957 1913,1956 1913,1952 1912,1951 1912,1943 1913,1942 1913,1941 1912,1940 1912,1935 1911,1934 1911,1929 1910,1928 1910,1887 1909,1886 1909,1882 1908,1881 1908,1875 1909,1874 1909,1866 1908,1865 1908,1858 1907,1857 1907,1840 1906,1839 1906,1836 1905,1835 1905,1832 1904,1831 1904,1811 1903,1810 1903,1793 1902,1792 1902,1783 1901,1782 1901,1771 1900,1770 1900,1765 1899,1764 1899,1757 1898,1756 1898,1749 1897,1748 1897,1745 1898,1744 1898,1733 1897,1732 1897,1723 1896,1722 1896,1713 1895,1712 1895,1703 1894,1702 1895,1701 1895,1697 1896,1696 1896,1694 1897,1693 1897,1682 1896,1681 1896,1671 1895,1670 1895,1661 1894,1660 1894,1657 1893,1656 1893,1652 1892,1651 1892,1632 1891,1631 1891,1627 1892,1626 1892,1590 1891,1589 1891,1587 1890,1586 1890,1583 1889,1582 1889,1581 1888,1580 1888,1579 1887,1578 1887,1577 1886,1576 1886,1575 1885,1574 1885,1573 1884,1572 1884,1570 1883,1569 1883,1565 1882,1564 1882,1555 1881,1554 1881,1544 1880,1543 1880,1536 1879,1535 1879,1524 1878,1523 1878,1512 1877,1511 1877,1506 1876,1505 1876,1502 1875,1501 1875,1499 1871,1495 1870,1495 1869,1494 1864,1494 1863,1493 1855,1493 1854,1492 1840,1492 1839,1491 1826,1491 1825,1490 1817,1490 1816,1489 1808,1489 1807,1488 1802,1488 1801,1487 1798,1487 1797,1486 1792,1486 1791,1485 1785,1485 1784,1484 1776,1484 1775,1483 1763,1483 1762,1482 1754,1482 1753,1481 1744,1481 1743,1480 1736,1480 1735,1479 1728,1479 1727,1478 1722,1478 1721,1477 1716,1477 1715,1476 1705,1476 1704,1475 1698,1475 1697,1474 1690,1474 1689,1473 1680,1473 1679,1472 1673,1472 1672,1471 1665,1471 1664,1470 1655,1470 1654,1469 1646,1469 1645,1468 1634,1468 1633,1467 1624,1467 1623,1466 1616,1466 1615,1465 1611,1465 1610,1464 1607,1464 1606,1463 1603,1463 1602,1462 1599,1462 1598,1461 1587,1461 1586,1460 1576,1460 1575,1459 1568,1459 1567,1458 1562,1458 1561,1457" fill="rgba(88,59,13,0.3)" stroke="rgb(88,59,13)" stroke-width="2" data-block-id="0016" data-name="b-0029" /><text x="1756" y="1915" text-anchor="middle" dominant-baseline="middle" class="block-label" fill="rgb(88,59,13)" stroke="white" stroke-width="3" paint-order="stroke">b-0029</text><polygon points="3623,402 3622,403 3620,403 3619,404 3618,404 3617,405 3616,405 3614,407 3613,407 3612,408 3612,409 3610,411 3610,485 3609,486 3609,501 3610,502 3610,526 3611,527 3611,540 3610,541 3610,607 3611,608 3611,624 3612,625 3612,626 3611,627 3611,632 3610,633 3610,635 3609,636 3609,644 3610,645 3610,680 3611,681 3611,690 3610,691 3610,706 3611,707 3611,728 3610,729 3610,744 3611,745 3611,750 3610,751 3610,760 3611,761 3611,769 3612,770 3612,772 3613,773 3613,775 3614,776 3614,778 3615,779 3615,781 3616,782 3616,796 3615,797 3615,812 3616,813 3616,819 3615,820 3615,850 3614,851 3614,867 3613,868 3613,871 3612,872 3612,877 3611,878 3611,890 3610,891 3610,901 3611,902 3611,923 3610,924 3610,957 3611,958 3611,976 3610,977 3610,1012 3611,1013 3611,1028 3612,1029 3612,1034 3613,1035 3613,1039 3614,1040 3614,1046 3615,1047 3615,1053 3616,1054 3616,1062 3615,1063 3615,1074 3616,1075 3616,1085 3615,1086 3615,1095 3616,1096 3616,1111 3615,1112 3615,1119 3616,1120 3616,1122 3617,1123 3617,1125 3621,1129 3623,1129 3624,1130 3637,1130 3638,1131 3723,1131 3724,1132 3735,1132 3736,1131 3800,1131 3801,1132 3830,1132 3831,1131 3851,1131 3852,1132 3891,1132 3892,1133 3908,1133 3909,1132 3913,1132 3914,1133 3949,1133 3950,1134 3959,1134 3960,1133 3964,1133 3965,1132 3968,1132 3969,1131 3970,1131 3972,1129 3972,1128 3973,1127 3973,1122 3974,1121 3974,1102 3975,1101 3975,1003 3974,1002 3974,995 3975,994 3975,962 3974,961 3974,959 3975,958 3975,927 3974,926 3974,901 3975,900 3975,886 3974,885 3974,859 3975,858 3975,836 3974,835 3974,824 3975,823 3975,796 3974,795 3974,789 3975,788 3975,720 3976,719 3976,706 3975,705 3975,696 3976,695 3976,676 3975,675 3975,672 3976,671 3976,643 3975,642 3975,635 3976,634 3976,546 3975,545 3975,541 3976,540 3976,431 3975,430 3975,424 3974,423 3974,412 3973,411 3973,410 3970,407 3967,407 3966,406 3957,406 3956,405 3893,405 3892,404 3845,404 3844,403 3803,403 3802,404 3783,404 3782,403 3773,403 3772,404 3762,404 3761,403 3751,403 3750,404 3717,404 3716,403 3704,403 3703,404 3688,404 3687,403 3656,403 3655,402 3644,402 3643,403 3630,403 3629,402" fill="rgba(241,249,8,0.3)" stroke="rgb(241,249,8)" stroke-width="2" data-block-id="0017" data-name="b-0030" /><text x="3756" y="780" text-anchor="middle" dominant-baseline="middle" class="block-label" fill="rgb(241,249,8)" stroke="white" stroke-width="3" paint-order="stroke">b-0030</text><polygon points="3180,397 3179,398 3173,398 3172,399 3167,399 3166,400 3163,400 3162,401 3161,401 3159,403 3159,404 3158,405 3158,408 3157,409 3157,423 3158,424 3158,432 3159,433 3159,439 3158,440 3158,455 3157,456 3157,480 3158,481 3158,553 3159,554 3159,576 3158,577 3158,581 3159,582 3159,597 3158,598 3158,620 3159,621 3159,643 3158,644 3158,680 3159,681 3159,691 3158,692 3158,730 3157,731 3157,743 3156,744 3156,749 3157,750 3157,768 3158,769 3158,783 3157,784 3157,833 3156,834 3156,850 3157,851 3157,946 3158,947 3158,1016 3159,1017 3159,1028 3158,1029 3158,1034 3159,1035 3159,1059 3160,1060 3160,1071 3159,1072 3159,1100 3158,1101 3158,1115 3159,1116 3159,1118 3160,1119 3160,1120 3164,1124 3166,1124 3167,1125 3173,1125 3174,1126 3189,1126 3190,1127 3223,1127 3224,1126 3235,1126 3236,1127 3271,1127 3272,1126 3282,1126 3283,1127 3320,1127 3321,1126 3324,1126 3325,1127 3330,1127 3331,1128 3334,1128 3335,1129 3348,1129 3349,1128 3400,1128 3401,1129 3415,1129 3416,1128 3422,1128 3423,1129 3427,1129 3428,1130 3431,1130 3432,1131 3459,1131 3460,1130 3499,1130 3500,1129 3505,1129 3506,1128 3507,1128 3509,1126 3510,1126 3511,1125 3511,1124 3512,1123 3512,1122 3513,1121 3513,1119 3514,1118 3514,1110 3515,1109 3515,1101 3514,1100 3514,1075 3513,1074 3513,1065 3514,1064 3514,1057 3515,1056 3515,1044 3514,1043 3514,966 3515,965 3515,916 3516,915 3516,910 3515,909 3515,895 3516,894 3516,883 3515,882 3515,871 3516,870 3516,864 3515,863 3515,835 3514,834 3514,824 3515,823 3515,784 3516,783 3516,754 3515,753 3515,725 3516,724 3516,721 3515,720 3515,704 3516,703 3516,692 3515,691 3515,678 3516,677 3516,640 3515,639 3515,636 3516,635 3516,621 3515,620 3515,607 3516,606 3516,558 3517,557 3517,552 3516,551 3516,493 3515,492 3515,468 3516,467 3516,431 3515,430 3515,416 3516,415 3516,413 3515,412 3515,409 3510,404 3509,404 3508,403 3506,403 3505,402 3498,402 3497,403 3483,403 3482,402 3478,402 3477,403 3460,403 3459,402 3395,402 3394,401 3319,401 3318,400 3304,400 3303,399 3262,399 3261,398 3249,398 3248,399 3232,399 3231,398 3209,398 3208,397" fill="rgba(83,91,110,0.3)" stroke="rgb(83,91,110)" stroke-width="2" data-block-id="0018" data-name="b-0032" /><text x="3345" y="781" text-anchor="middle" dominant-baseline="middle" class="block-label" fill="rgb(83,91,110)" stroke="white" stroke-width="3" paint-order="stroke">b-0032</text><polygon points="3182,2037 3181,2038 3176,2038 3175,2039 3171,2039 3170,2040 3168,2040 3167,2041 3166,2041 3165,2042 3164,2042 3160,2046 3160,2047 3159,2048 3159,2109 3158,2110 3158,2167 3157,2168 3157,2319 3156,2320 3157,2321 3157,2377 3158,2378 3158,2387 3157,2388 3157,2395 3158,2396 3158,2570 3159,2571 3159,2575 3158,2576 3158,2605 3157,2606 3157,2611 3158,2612 3158,2662 3159,2663 3159,2693 3158,2694 3158,2700 3157,2701 3157,2707 3158,2708 3158,2732 3159,2733 3159,2753 3160,2754 3160,2755 3161,2756 3161,2757 3162,2758 3162,2759 3166,2763 3167,2763 3168,2764 3169,2764 3170,2765 3172,2765 3173,2766 3178,2766 3179,2767 3183,2767 3184,2766 3187,2766 3188,2765 3190,2765 3191,2764 3214,2764 3215,2763 3219,2763 3220,2764 3235,2764 3236,2763 3246,2763 3247,2764 3272,2764 3273,2765 3278,2765 3279,2764 3283,2764 3284,2763 3289,2763 3290,2762 3291,2763 3322,2763 3323,2764 3378,2764 3379,2763 3416,2763 3417,2764 3426,2764 3427,2763 3434,2763 3435,2764 3438,2764 3439,2765 3466,2765 3467,2764 3477,2764 3478,2763 3492,2763 3493,2764 3494,2763 3505,2763 3506,2762 3507,2762 3508,2761 3509,2761 3511,2759 3512,2759 3512,2758 3514,2756 3514,2754 3515,2753 3515,2746 3516,2745 3516,2735 3517,2734 3517,2720 3516,2719 3516,2667 3517,2666 3517,2652 3516,2651 3516,2633 3517,2632 3517,2630 3516,2629 3516,2589 3517,2588 3517,2579 3516,2578 3516,2570 3517,2569 3517,2552 3516,2551 3516,2470 3517,2469 3517,2459 3516,2458 3516,2435 3515,2434 3515,2404 3516,2403 3516,2221 3517,2220 3517,2188 3516,2187 3516,2180 3515,2179 3515,2175 3516,2174 3516,2150 3515,2149 3515,2111 3516,2110 3516,2053 3515,2052 3515,2048 3514,2047 3514,2046 3513,2045 3512,2045 3511,2044 3510,2044 3509,2043 3508,2043 3507,2042 3505,2042 3504,2041 3495,2041 3494,2040 3489,2040 3488,2041 3451,2041 3450,2040 3434,2040 3433,2041 3407,2041 3406,2040 3392,2040 3391,2041 3364,2041 3363,2040 3341,2040 3340,2041 3324,2041 3323,2042 3308,2042 3307,2041 3262,2041 3261,2040 3234,2040 3233,2039 3193,2039 3192,2038 3183,2038" fill="rgba(252,7,174,0.3)" stroke="rgb(252,7,174)" stroke-width="2" data-block-id="0019" data-name="b-0034" /><text x="3343" y="2457" text-anchor="middle" dominant-baseline="middle" class="block-label" fill="rgb(252,7,174)" stroke="white" stroke-width="3" paint-order="stroke">b-0034</text><polygon points="4327,1228 4326,1229 4324,1229 4323,1230 4321,1230 4320,1231 4316,1231 4315,1232 4314,1231 4285,1231 4284,1230 4276,1230 4275,1231 4265,1231 4264,1232 4236,1232 4235,1231 4228,1231 4227,1232 4200,1232 4199,1231 4188,1231 4187,1230 4183,1230 4182,1231 4139,1231 4138,1232 4121,1232 4120,1231 4077,1231 4076,1232 4074,1232 4073,1233 4072,1233 4071,1234 4070,1234 4068,1236 4068,1240 4067,1241 4067,1255 4066,1256 4066,1280 4067,1281 4067,1285 4066,1286 4066,1343 4065,1344 4065,1357 4066,1358 4066,1419 4067,1420 4067,1555 4066,1556 4066,1561 4067,1562 4067,1577 4066,1578 4066,1588 4067,1589 4067,1635 4068,1636 4068,1664 4069,1665 4069,1695 4068,1696 4068,1709 4069,1710 4069,1753 4070,1754 4070,1764 4069,1765 4069,1848 4070,1849 4070,1864 4069,1865 4069,1891 4070,1892 4070,1931 4071,1932 4071,1933 4072,1934 4072,1935 4073,1936 4073,1937 4075,1939 4076,1939 4077,1940 4084,1940 4085,1941 4144,1941 4145,1942 4185,1942 4186,1941 4200,1941 4201,1942 4240,1942 4241,1943 4262,1943 4263,1944 4283,1944 4284,1943 4287,1943 4288,1942 4290,1942 4291,1941 4307,1941 4308,1942 4325,1942 4326,1941 4343,1941 4344,1942 4358,1942 4359,1943 4367,1943 4368,1942 4375,1942 4376,1941 4377,1941 4379,1939 4380,1939 4380,1938 4383,1935 4383,1933 4384,1932 4384,1931 4385,1930 4385,1813 4384,1812 4384,1782 4385,1781 4385,1766 4384,1765 4384,1746 4383,1745 4383,1704 4384,1703 4384,1701 4383,1700 4383,1603 4382,1602 4382,1586 4381,1585 4381,1483 4380,1482 4380,1470 4381,1469 4381,1454 4380,1453 4380,1445 4381,1444 4381,1437 4380,1436 4380,1358 4381,1357 4381,1351 4380,1350 4380,1334 4381,1333 4381,1331 4380,1330 4380,1288 4379,1287 4379,1275 4380,1274 4380,1247 4379,1246 4379,1240 4378,1239 4378,1236 4377,1235 4377,1234 4376,1234 4374,1232 4372,1232 4371,1231 4369,1231 4368,1230 4366,1230 4365,1229 4360,1229 4359,1230 4348,1230 4347,1229 4342,1229 4341,1228" fill="rgba(190,145,217,0.3)" stroke="rgb(190,145,217)" stroke-width="2" data-block-id="0020" data-name="b-0040" /><text x="4242" y="1550" text-anchor="middle" dominant-baseline="middle" class="block-label" fill="rgb(190,145,217)" stroke="white" stroke-width="3" paint-order="stroke">b-0040</text><polygon points="4485,1234 4484,1235 4480,1235 4479,1236 4477,1236 4476,1237 4474,1237 4473,1238 4473,1239 4471,1241 4471,1243 4470,1244 4470,1251 4469,1252 4469,1265 4470,1266 4470,1276 4469,1277 4469,1300 4468,1301 4468,1364 4469,1365 4469,1371 4468,1372 4468,1464 4469,1465 4469,1509 4470,1510 4470,1669 4471,1670 4471,1718 4472,1719 4472,1738 4471,1739 4471,1754 4472,1755 4472,1761 4473,1762 4473,1764 4472,1765 4472,1797 4471,1798 4472,1799 4472,1817 4473,1818 4473,1919 4474,1920 4474,1929 4475,1930 4475,1931 4476,1932 4476,1933 4480,1937 4481,1937 4482,1938 4484,1938 4485,1939 4494,1939 4495,1938 4502,1938 4503,1937 4512,1937 4513,1938 4522,1938 4523,1937 4526,1937 4527,1936 4531,1936 4532,1935 4546,1935 4547,1934 4553,1934 4554,1933 4556,1933 4557,1934 4561,1934 4562,1935 4577,1935 4578,1934 4580,1934 4581,1935 4589,1935 4590,1936 4595,1936 4596,1937 4603,1937 4604,1938 4635,1938 4636,1939 4654,1939 4655,1938 4659,1938 4660,1937 4680,1937 4681,1936 4691,1936 4692,1937 4708,1937 4709,1936 4715,1936 4716,1937 4743,1937 4744,1938 4749,1938 4750,1937 4762,1937 4763,1936 4772,1936 4773,1935 4775,1935 4776,1934 4777,1934 4778,1933 4779,1933 4780,1932 4781,1932 4783,1930 4783,1929 4784,1928 4784,1925 4785,1924 4785,1912 4784,1911 4784,1889 4783,1888 4783,1876 4784,1875 4784,1848 4785,1847 4785,1844 4784,1843 4784,1824 4785,1823 4785,1817 4784,1816 4784,1790 4783,1789 4783,1780 4784,1779 4784,1694 4783,1693 4783,1682 4784,1681 4784,1673 4783,1672 4783,1663 4784,1662 4784,1649 4785,1648 4785,1636 4784,1635 4784,1620 4783,1619 4783,1563 4782,1562 4782,1556 4783,1555 4783,1550 4784,1549 4784,1541 4783,1540 4783,1533 4782,1532 4782,1513 4781,1512 4781,1509 4782,1508 4782,1502 4783,1501 4783,1492 4782,1491 4782,1478 4783,1477 4783,1474 4782,1473 4782,1469 4781,1468 4781,1459 4782,1458 4782,1455 4783,1454 4783,1450 4784,1449 4784,1448 4783,1447 4783,1421 4782,1420 4782,1410 4783,1409 4783,1375 4782,1374 4782,1363 4783,1362 4783,1359 4784,1358 4784,1350 4783,1349 4783,1337 4784,1336 4784,1328 4783,1327 4783,1324 4782,1323 4782,1315 4783,1314 4783,1309 4784,1308 4784,1305 4783,1304 4783,1286 4784,1285 4784,1282 4783,1281 4783,1264 4784,1263 4784,1256 4783,1255 4783,1249 4782,1248 4782,1246 4779,1243 4778,1243 4777,1242 4776,1242 4775,1241 4773,1241 4772,1240 4769,1240 4768,1239 4761,1239 4760,1238 4756,1238 4755,1239 4745,1239 4744,1238 4742,1238 4741,1237 4738,1237 4737,1236 4707,1236 4706,1237 4655,1237 4654,1238 4651,1238 4650,1237 4643,1237 4642,1236 4613,1236 4612,1237 4600,1237 4599,1236 4597,1236 4596,1235 4593,1235 4592,1234 4572,1234 4571,1235 4562,1235 4561,1236 4543,1236 4542,1235 4534,1235 4533,1236 4516,1236 4515,1237 4511,1237 4510,1238 4506,1238 4505,1237 4503,1237 4502,1236 4501,1236 4500,1235 4498,1235 4497,1234" fill="rgba(43,161,201,0.3)" stroke="rgb(43,161,201)" stroke-width="2" data-block-id="0021" data-name="b-0041" /><text x="4658" y="1571" text-anchor="middle" dominant-baseline="middle" class="block-label" fill="rgb(43,161,201)" stroke="white" stroke-width="3" paint-order="stroke">b-0041</text><polygon points="736,773 733,776 733,779 732,780 732,784 731,785 731,790 730,791 730,795 729,796 729,801 728,802 728,807 727,808 727,813 726,814 726,819 725,820 725,827 724,828 724,834 723,835 723,842 722,843 722,848 721,849 721,853 720,854 720,858 719,859 719,863 718,864 718,869 717,870 717,875 716,876 716,881 715,882 715,887 714,888 714,895 713,896 713,904 712,905 712,911 711,912 711,920 710,921 710,926 709,927 709,932 708,933 708,938 707,939 707,946 706,947 706,951 705,952 705,957 704,958 704,964 703,965 703,971 702,972 702,980 701,981 701,993 700,994 700,999 699,1000 699,1004 698,1005 698,1008 697,1009 697,1013 696,1014 696,1018 695,1019 695,1023 694,1024 694,1028 693,1029 693,1034 692,1035 692,1040 691,1041 691,1047 690,1048 690,1053 689,1054 689,1058 688,1059 688,1064 687,1065 687,1068 686,1069 686,1072 685,1073 685,1077 684,1078 684,1083 683,1084 683,1089 682,1090 682,1095 681,1096 681,1101 680,1102 680,1107 679,1108 679,1113 678,1114 678,1119 677,1120 677,1125 676,1126 676,1134 675,1135 675,1142 674,1143 674,1148 673,1149 673,1155 672,1156 672,1161 671,1162 671,1167 670,1168 670,1173 669,1174 669,1179 668,1180 668,1185 667,1186 667,1191 666,1192 666,1196 665,1197 665,1201 664,1202 664,1212 663,1213 663,1216 662,1217 662,1220 661,1221 661,1232 660,1233 660,1236 661,1237 661,1241 663,1243 663,1244 664,1245 665,1245 666,1246 668,1246 669,1247 671,1247 672,1248 675,1248 676,1249 685,1249 686,1250 694,1250 695,1251 702,1251 703,1252 709,1252 710,1253 719,1253 720,1254 725,1254 726,1255 730,1255 731,1256 735,1256 736,1257 744,1257 745,1258 757,1258 758,1259 762,1259 763,1260 766,1260 767,1261 773,1261 774,1262 781,1262 782,1263 788,1263 789,1264 794,1264 795,1265 800,1265 801,1266 807,1266 808,1267 815,1267 816,1268 822,1268 823,1269 831,1269 832,1270 839,1270 840,1271 849,1271 850,1272 856,1272 857,1273 862,1273 863,1274 874,1274 875,1275 882,1275 883,1276 888,1276 889,1277 895,1277 896,1278 901,1278 902,1279 907,1279 908,1280 913,1280 914,1281 925,1281 926,1282 937,1282 938,1283 945,1283 946,1284 952,1284 953,1285 960,1285 961,1286 965,1286 966,1287 971,1287 972,1288 973,1287 977,1287 978,1286 979,1286 982,1283 982,1281 983,1280 983,1274 984,1273 984,1268 983,1267 983,1240 982,1239 982,1222 981,1221 981,1210 980,1209 980,1197 979,1196 979,1188 978,1187 978,1163 977,1162 977,1156 976,1155 976,1143 975,1142 975,1112 976,1111 976,1097 977,1096 977,1080 976,1079 976,1066 975,1065 975,1027 974,1026 974,1022 973,1021 973,1001 974,1000 974,994 973,993 973,973 972,972 972,948 971,947 971,909 970,908 970,864 969,863 969,846 968,845 968,842 967,841 967,840 966,839 966,838 965,837 964,837 962,835 960,835 959,834 957,834 956,833 952,833 951,832 947,832 946,831 945,831 944,830 942,830 941,829 939,829 938,828 936,828 935,827 933,827 932,826 929,826 928,825 925,825 924,824 922,824 921,823 918,823 917,822 915,822 914,821 911,821 910,820 907,820 906,819 904,819 903,818 901,818 900,817 898,817 897,816 896,816 895,815 893,815 892,814 889,814 888,813 886,813 885,812 883,812 882,811 880,811 879,810 876,810 875,809 873,809 872,808 870,808 869,807 867,807 866,806 863,806 862,805 859,805 858,804 854,804 853,803 851,803 850,802 847,802 846,801 844,801 843,800 841,800 840,799 838,799 837,798 835,798 834,797 832,797 831,796 828,796 827,795 824,795 823,794 820,794 819,793 817,793 816,792 813,792 812,791 810,791 809,790 806,790 805,789 803,789 802,788 800,788 799,787 797,787 796,786 794,786 793,785 790,785 789,784 786,784 785,783 783,783 782,782 780,782 779,781 777,781 776,780 774,780 773,779 770,779 769,778 765,778 764,777 761,777 760,776 757,776 756,775 753,775 752,774 749,774 748,773" fill="rgba(199,205,214,0.3)" stroke="rgb(199,205,214)" stroke-width="2" data-block-id="0022" data-name="b-0044" /><text x="806" y="1011" text-anchor="middle" dominant-baseline="middle" class="block-label" fill="rgb(199,205,214)" stroke="white" stroke-width="3" paint-order="stroke">b-0044</text><polygon points="817,303 816,304 814,304 813,305 812,305 810,307 810,308 809,309 809,310 808,311 808,314 807,315 807,321 806,322 806,327 805,328 805,335 804,336 804,343 803,344 803,350 802,351 802,355 801,356 801,359 800,360 800,364 799,365 799,372 798,373 798,377 797,378 797,382 796,383 796,389 795,390 795,394 794,395 794,398 793,399 793,405 792,406 792,413 791,414 791,420 790,421 790,426 789,427 789,433 788,434 788,439 787,440 787,444 786,445 786,450 785,451 785,455 784,456 784,459 783,460 783,466 782,467 782,472 781,473 781,479 780,480 780,487 779,488 779,494 778,495 778,501 777,502 777,509 776,510 776,516 775,517 775,522 774,523 774,527 773,528 773,531 772,532 772,536 771,537 771,541 770,542 770,546 769,547 769,555 768,556 768,563 767,564 767,570 766,571 766,575 765,576 765,581 764,582 764,588 763,589 763,594 762,595 762,598 761,599 761,603 760,604 760,610 759,611 759,617 758,618 758,622 757,623 757,629 756,630 756,637 755,638 755,643 754,644 754,649 753,650 753,657 752,658 752,663 751,664 751,667 750,668 750,672 749,673 749,679 748,680 748,686 747,687 747,694 746,695 746,699 745,700 745,704 744,705 744,714 745,715 745,716 746,717 746,718 747,719 748,719 749,720 752,720 753,721 756,721 757,722 759,722 760,723 763,723 764,724 767,724 768,725 771,725 772,726 774,726 775,727 777,727 778,728 781,728 782,729 784,729 785,730 787,730 788,731 790,731 791,732 793,732 794,733 796,733 797,734 799,734 800,735 803,735 804,736 806,736 807,737 808,737 809,738 810,738 811,739 813,739 814,740 816,740 817,741 820,741 821,742 825,742 826,743 829,743 830,744 833,744 834,745 837,745 838,746 839,746 840,747 843,747 844,748 846,748 847,749 849,749 850,750 852,750 853,751 855,751 856,752 859,752 860,753 862,753 863,754 865,754 866,755 869,755 870,756 872,756 873,757 876,757 877,758 879,758 880,759 882,759 883,760 886,760 887,761 889,761 890,762 893,762 894,763 896,763 897,764 899,764 900,765 902,765 903,766 906,766 907,767 909,767 910,768 912,768 913,769 917,769 918,770 921,770 922,771 925,771 926,772 928,772 929,773 931,773 932,774 935,774 936,775 938,775 939,776 941,776 942,777 944,777 945,778 948,778 949,779 953,779 954,780 957,780 958,781 962,781 963,780 963,779 964,778 964,775 965,774 965,762 966,761 966,754 965,753 965,719 964,718 964,693 963,692 963,680 964,679 964,673 963,672 963,640 962,639 962,618 961,617 961,583 960,582 960,568 959,567 959,546 958,545 958,496 957,495 957,459 956,458 956,426 955,425 955,383 954,382 954,360 953,359 953,320 952,319 952,315 951,314 951,313 950,312 949,312 948,311 946,311 945,310 938,310 937,309 929,309 928,308 920,308 919,307 887,307 886,306 871,306 870,305 852,305 851,304 830,304 829,303" fill="rgba(123,236,40,0.3)" stroke="rgb(123,236,40)" stroke-width="2" data-block-id="0023" data-name="b-0050" /><text x="836" y="595" text-anchor="middle" dominant-baseline="middle" class="block-label" fill="rgb(123,236,40)" stroke="white" stroke-width="3" paint-order="stroke">b-0050</text><polygon points="455,689 454,690 452,690 451,691 450,691 449,692 448,692 447,693 447,694 446,695 446,696 445,697 445,708 444,709 444,713 443,714 443,717 442,718 442,720 441,721 441,727 440,728 440,736 439,737 439,742 438,743 438,747 437,748 437,751 436,752 436,756 435,757 435,759 434,760 434,763 433,764 433,767 432,768 432,775 431,776 431,785 430,786 430,792 429,793 429,797 428,798 428,802 427,803 427,806 426,807 426,810 425,811 425,814 424,815 424,818 423,819 423,827 422,828 422,834 421,835 421,841 420,842 420,848 419,849 419,854 418,855 418,859 417,860 417,864 416,865 416,872 415,873 415,877 414,878 414,881 413,882 413,885 412,886 412,888 411,889 411,892 410,893 410,898 409,899 409,904 408,905 408,908 407,909 407,913 406,914 406,919 405,920 405,926 404,927 404,934 403,935 403,941 402,942 402,946 401,947 401,950 400,951 400,954 399,955 399,957 398,958 398,962 397,963 397,969 396,970 396,975 395,976 395,982 394,983 394,993 393,994 393,1001 392,1002 392,1007 391,1008 391,1017 390,1018 390,1024 389,1025 389,1031 388,1032 388,1036 387,1037 387,1041 386,1042 386,1047 385,1048 385,1055 384,1056 384,1064 383,1065 383,1073 382,1074 382,1080 381,1081 381,1088 380,1089 380,1095 379,1096 379,1101 378,1102 378,1108 377,1109 377,1116 376,1117 376,1119 375,1120 375,1123 374,1124 374,1129 373,1130 373,1140 372,1141 372,1145 371,1146 371,1150 370,1151 370,1157 369,1158 369,1164 368,1165 368,1174 367,1175 367,1181 366,1182 366,1186 365,1187 365,1193 364,1194 364,1201 366,1203 366,1204 367,1205 368,1205 370,1207 371,1207 372,1208 373,1208 374,1209 377,1209 378,1210 382,1210 383,1211 387,1211 388,1212 391,1212 392,1213 396,1213 397,1214 402,1214 403,1215 415,1215 416,1216 434,1216 435,1217 443,1217 444,1218 450,1218 451,1219 455,1219 456,1220 461,1220 462,1221 469,1221 470,1222 480,1222 481,1223 489,1223 490,1224 495,1224 496,1225 501,1225 502,1226 511,1226 512,1225 516,1225 517,1224 518,1224 519,1223 519,1222 520,1221 520,1220 521,1219 521,1216 522,1215 522,1211 523,1210 523,1205 524,1204 524,1199 525,1198 525,1194 526,1193 526,1189 527,1188 527,1182 528,1181 528,1174 529,1173 529,1170 530,1169 530,1166 531,1165 531,1160 532,1159 532,1153 533,1152 533,1146 534,1145 534,1136 535,1135 535,1126 536,1125 536,1121 537,1120 537,1115 538,1114 538,1106 539,1105 539,1100 540,1099 540,1096 541,1095 541,1090 542,1089 542,1084 543,1083 543,1078 544,1077 544,1073 545,1072 545,1067 546,1066 546,1061 547,1060 547,1055 548,1054 548,1049 549,1048 549,1042 550,1041 550,1035 551,1034 551,1020 552,1019 552,1014 553,1013 553,1007 554,1006 554,1003 555,1002 555,999 556,998 556,985 557,984 557,981 558,980 558,978 559,977 559,974 560,973 560,969 561,968 561,963 562,962 562,958 563,957 563,954 564,953 564,950 565,949 565,939 566,938 566,934 567,933 567,930 568,929 568,926 569,925 569,919 570,918 570,912 571,911 571,907 572,906 572,903 573,902 573,891 574,890 574,882 575,881 575,876 576,875 576,869 577,868 577,864 578,863 578,860 579,859 579,857 580,856 580,853 581,852 581,844 582,843 582,835 583,834 583,825 584,824 584,818 585,817 585,809 586,808 586,802 587,801 587,797 588,796 588,793 589,792 589,789 590,788 590,786 591,785 591,782 592,781 592,774 593,773 593,766 594,765 594,760 595,759 595,753 596,752 596,734 595,733 595,732 591,728 590,728 589,727 586,727 585,726 583,726 582,725 580,725 579,724 577,724 576,723 574,723 573,722 572,722 571,721 569,721 568,720 565,720 564,719 560,719 559,718 555,718 554,717 552,717 551,716 549,716 548,715 546,715 545,714 544,714 543,713 541,713 540,712 538,712 537,711 536,711 535,710 534,710 533,709 530,709 529,708 525,708 524,707 519,707 518,706 515,706 514,705 511,705 510,704 508,704 507,703 505,703 504,702 503,702 502,701 501,701 499,699 498,699 497,698 495,698 494,697 490,697 489,696 484,696 483,695 480,695 479,694 477,694 476,693 474,693 473,692 471,692 470,691 467,691 466,690 464,690 463,689" fill="rgba(156,14,44,0.3)" stroke="rgb(156,14,44)" stroke-width="2" data-block-id="0024" data-name="b-0051" /><text x="482" y="939" text-anchor="middle" dominant-baseline="middle" class="block-label" fill="rgb(156,14,44)" stroke="white" stroke-width="3" paint-order="stroke">b-0051</text><polygon points="520,287 519,288 518,288 516,290 516,291 515,292 515,294 514,295 514,298 513,299 513,303 512,304 512,309 511,310 511,315 510,316 510,319 509,320 509,323 508,324 508,327 507,328 507,334 506,335 506,340 505,341 505,345 504,346 504,351 503,352 503,356 502,357 502,361 501,362 501,367 500,368 500,372 499,373 499,379 498,380 498,386 497,387 497,390 496,391 496,394 495,395 495,398 494,399 494,404 493,405 493,409 492,410 492,418 491,419 491,426 490,427 490,431 489,432 489,436 488,437 488,441 487,442 487,445 486,446 486,451 485,452 485,459 484,460 484,468 483,469 483,473 482,474 482,479 481,480 481,484 480,485 480,488 479,489 479,493 478,494 478,500 477,501 477,507 476,508 476,512 475,513 475,518 474,519 474,524 473,525 473,529 472,530 472,534 471,535 471,539 470,540 470,544 469,545 469,549 468,550 468,553 467,554 467,560 466,561 466,567 465,568 465,571 464,572 464,577 463,578 463,584 462,585 462,589 461,590 461,596 460,597 460,602 459,603 459,607 458,608 458,611 457,612 457,616 456,617 456,623 455,624 455,625 456,626 456,629 459,632 459,633 460,634 461,634 463,636 464,636 465,637 467,637 468,638 470,638 471,639 474,639 475,640 477,640 478,641 481,641 482,642 484,642 485,643 486,643 487,644 489,644 490,645 491,645 492,646 494,646 495,647 497,647 498,648 501,648 502,649 504,649 505,650 508,650 509,651 511,651 512,652 514,652 515,653 517,653 518,654 521,654 522,655 525,655 526,656 529,656 530,657 532,657 533,658 535,658 536,659 538,659 539,660 541,660 542,661 544,661 545,662 547,662 548,663 551,663 552,664 553,664 554,665 557,665 558,666 560,666 561,667 564,667 565,668 568,668 569,669 572,669 573,670 576,670 577,671 579,671 580,672 582,672 583,673 585,673 586,674 587,674 588,675 590,675 591,676 594,676 595,677 598,677 599,678 604,678 605,677 606,677 609,674 609,673 610,672 610,670 611,669 611,664 612,663 612,653 613,652 613,646 614,645 614,639 615,638 615,633 616,632 616,629 617,628 617,624 618,623 618,618 619,617 619,613 620,612 620,607 621,606 621,602 622,601 622,589 623,588 623,584 624,583 624,580 625,579 625,573 626,572 626,566 627,565 627,558 628,557 628,553 629,552 629,550 630,549 630,546 631,545 631,541 632,540 632,533 633,532 633,527 634,526 634,522 635,521 635,505 636,504 636,503 637,502 637,500 638,499 638,496 639,495 639,487 640,486 640,470 641,469 641,466 642,465 642,461 643,460 643,457 644,456 644,452 645,451 645,447 646,446 646,441 647,440 647,434 648,433 648,423 649,422 649,420 650,419 650,416 651,415 651,413 652,412 652,409 653,408 653,404 654,403 654,399 655,398 655,388 656,387 656,383 657,382 657,380 658,379 658,377 659,376 659,363 660,362 660,361 661,360 661,357 662,356 662,354 663,353 663,343 664,342 664,336 665,335 665,330 666,329 666,321 667,320 667,315 668,314 668,311 669,310 669,301 667,299 667,298 666,298 664,296 662,296 661,295 657,295 656,294 650,294 649,293 643,293 642,294 640,294 639,293 631,293 630,292 624,292 623,291 617,291 616,290 598,290 597,289 564,289 563,288 544,288 543,287" fill="rgba(235,135,215,0.3)" stroke="rgb(235,135,215)" stroke-width="2" data-block-id="0025" data-name="b-0054" /><text x="557" y="504" text-anchor="middle" dominant-baseline="middle" class="block-label" fill="rgb(235,135,215)" stroke="white" stroke-width="3" paint-order="stroke">b-0054</text><polygon points="4492,413 4490,415 4489,415 4488,416 4487,416 4485,418 4483,418 4482,419 4481,419 4480,420 4478,420 4477,421 4474,421 4473,422 4472,422 4471,423 4470,423 4468,425 4468,426 4463,431 4462,431 4460,433 4460,434 4459,435 4459,443 4458,444 4458,446 4459,447 4459,451 4460,452 4460,454 4461,455 4461,458 4462,459 4462,473 4463,474 4463,475 4464,476 4464,477 4465,478 4465,480 4466,481 4466,489 4465,490 4465,497 4464,498 4464,515 4463,516 4463,517 4464,518 4464,522 4465,523 4465,526 4466,527 4466,545 4467,546 4467,550 4468,551 4468,576 4469,577 4469,578 4468,579 4468,596 4469,597 4469,644 4470,645 4470,697 4471,698 4471,703 4470,704 4470,717 4471,718 4471,721 4470,722 4470,793 4471,794 4471,801 4470,802 4470,840 4471,841 4471,872 4472,873 4472,881 4473,882 4473,891 4474,892 4474,909 4475,910 4475,920 4474,921 4474,950 4473,951 4473,953 4472,954 4472,957 4471,958 4471,964 4470,965 4470,1000 4469,1001 4469,1131 4470,1132 4470,1134 4472,1136 4473,1136 4474,1137 4485,1137 4486,1138 4490,1138 4491,1139 4493,1139 4494,1140 4498,1140 4499,1139 4503,1139 4504,1138 4513,1138 4514,1139 4525,1139 4526,1138 4535,1138 4536,1139 4544,1139 4545,1140 4546,1139 4559,1139 4560,1140 4572,1140 4573,1139 4600,1139 4601,1140 4629,1140 4630,1141 4637,1141 4638,1142 4655,1142 4656,1141 4697,1141 4698,1142 4709,1142 4710,1141 4753,1141 4754,1142 4774,1142 4775,1141 4778,1141 4779,1140 4780,1140 4782,1138 4782,1137 4783,1136 4783,1134 4784,1133 4784,1113 4785,1112 4785,1025 4786,1024 4786,1020 4785,1019 4785,958 4786,957 4786,947 4787,946 4787,924 4786,923 4786,901 4787,900 4787,850 4788,849 4788,837 4787,836 4787,806 4788,805 4788,787 4787,786 4787,777 4788,776 4788,760 4787,759 4787,757 4788,756 4788,738 4787,737 4787,731 4788,730 4788,705 4789,704 4789,673 4790,672 4790,641 4791,640 4791,555 4790,554 4790,512 4791,511 4791,504 4790,503 4790,491 4791,490 4791,435 4790,434 4790,429 4789,428 4789,426 4785,422 4784,422 4783,421 4782,421 4781,420 4779,420 4778,419 4775,419 4774,418 4762,418 4761,419 4740,419 4739,418 4668,418 4667,417 4608,417 4607,418 4599,418 4598,417 4574,417 4573,416 4566,416 4565,415 4552,415 4551,416 4547,416 4546,417 4545,417 4543,419 4541,419 4540,420 4531,420 4530,419 4528,419 4527,418 4526,418 4524,416 4523,416 4521,414 4519,414 4518,413 4517,413 4516,414 4506,414 4505,413" fill="rgba(163,49,103,0.3)" stroke="rgb(163,49,103)" stroke-width="2" data-block-id="0026" data-name="b-0036" /><text x="4589" y="714" text-anchor="middle" dominant-baseline="middle" class="block-label" fill="rgb(163,49,103)" stroke="white" stroke-width="3" paint-order="stroke">b-0036</text></g>
</svg>