<?xml version='1.0' encoding='utf-8'?>
<svg xmlns="http://www.w3.org/2000/svg" xmlns:atlas="http://example.com/atlas" width="4984" height="3288" viewBox="0 0 4984 3288">
  
  <metadata>
    <atlas:source>
      <atlas:jp2-path>/Users/pwright/workspace/atlas/media/v2/p13.jp2</atlas:jp2-path>
      <atlas:volume>unknown</atlas:volume>
      <atlas:plate-id>p13</atlas:plate-id>
      <atlas:image-width>4984</atlas:image-width>
      <atlas:image-height>3288</atlas:image-height>
    <atlas:angle>0.0</atlas:angle><atlas:scale>1.3333333333333333</atlas:scale><atlas:pos-x>2390.78661288577</atlas:pos-x><atlas:pos-y>2193.15394015837</atlas:pos-y></atlas:source>
  </metadata>

  
  <image id="background" href="file:///Users/pwright/workspace/atlas/media/v2/p13.jp2" width="4984" height="3288" opacity="0.5" />

  <style>
    .block-label { font-family: sans-serif; font-size: 14px; font-weight: bold; }
  </style>

  
  <g id="blocks">
    <polygon points="1839,1729 1838,1730 1831,1730 1830,1731 1825,1731 1824,1732 1800,1732 1799,1731 1759,1731 1758,1732 1748,1732 1747,1733 1732,1733 1731,1732 1701,1732 1700,1733 1699,1733 1698,1734 1697,1734 1696,1735 1695,1735 1694,1736 1693,1736 1691,1738 1690,1738 1690,1739 1688,1741 1688,1742 1687,1743 1687,1749 1688,1750 1688,1760 1687,1761 1687,1764 1686,1765 1686,1768 1685,1769 1685,1773 1684,1774 1684,1788 1685,1789 1685,1793 1686,1794 1686,1804 1685,1805 1685,1809 1684,1810 1684,1816 1683,1817 1683,1826 1684,1827 1684,1841 1683,1842 1683,1850 1682,1851 1682,1859 1681,1860 1681,1867 1680,1868 1680,1886 1681,1887 1681,1895 1682,1896 1682,1899 1683,1900 1683,1902 1684,1903 1684,1905 1685,1906 1685,1907 1686,1908 1686,1910 1687,1911 1687,1912 1688,1913 1688,1920 1687,1921 1687,1922 1686,1923 1686,1927 1685,1928 1685,1932 1684,1933 1684,1939 1685,1940 1685,1945 1686,1946 1686,1949 1687,1950 1687,1951 1688,1952 1688,1953 1689,1954 1689,1956 1690,1957 1690,1979 1691,1980 1691,1988 1692,1989 1692,2003 1693,2004 1693,2018 1694,2019 1694,2035 1693,2036 1693,2039 1692,2040 1692,2042 1691,2043 1691,2046 1690,2047 1690,2049 1689,2050 1689,2052 1688,2053 1688,2054 1687,2055 1687,2057 1686,2058 1686,2064 1685,2065 1685,2074 1686,2075 1686,2077 1687,2078 1688,2078 1691,2081 1692,2081 1694,2083 1695,2083 1697,2085 1698,2085 1700,2087 1701,2087 1702,2088 1705,2088 1706,2089 1711,2089 1712,2090 1718,2090 1719,2091 1737,2091 1738,2092 1766,2092 1767,2093 1789,2093 1790,2092 1797,2092 1798,2091 1813,2091 1814,2090 1861,2090 1862,2091 1868,2091 1869,2092 1874,2092 1875,2093 1902,2093 1903,2092 1909,2092 1910,2091 1931,2091 1932,2092 1943,2092 1944,2091 1978,2091 1979,2092 1986,2092 1987,2093 1997,2093 1998,2094 2004,2094 2005,2095 2010,2095 2011,2096 2036,2096 2037,2097 2045,2097 2046,2098 2058,2098 2059,2097 2063,2097 2064,2096 2069,2096 2070,2095 2108,2095 2109,2094 2111,2094 2112,2095 2121,2095 2122,2096 2128,2096 2129,2097 2134,2097 2135,2096 2141,2096 2142,2095 2181,2095 2182,2096 2194,2096 2195,2097 2201,2097 2202,2098 2206,2098 2207,2099 2220,2099 2221,2098 2242,2098 2243,2099 2260,2099 2261,2100 2272,2100 2273,2099 2279,2099 2280,2098 2284,2098 2285,2097 2291,2097 2292,2096 2304,2096 2305,2095 2354,2095 2355,2096 2370,2096 2371,2095 2377,2095 2378,2094 2396,2094 2397,2095 2408,2095 2409,2096 2414,2096 2415,2097 2418,2097 2419,2098 2421,2098 2422,2099 2425,2099 2426,2100 2430,2100 2431,2101 2433,2101 2434,2102 2436,2102 2437,2103 2438,2103 2440,2105 2442,2105 2443,2106 2447,2106 2448,2105 2449,2105 2453,2101 2453,2100 2454,2099 2454,2098 2455,2097 2455,2094 2456,2093 2456,2092 2457,2091 2457,2089 2458,2088 2458,2086 2459,2085 2459,2083 2460,2082 2460,2080 2461,2079 2461,2077 2462,2076 2462,2068 2461,2067 2461,2065 2460,2064 2460,2061 2459,2060 2459,1990 2460,1989 2460,1986 2461,1985 2461,1981 2462,1980 2462,1974 2463,1973 2463,1960 2464,1959 2464,1953 2463,1952 2463,1944 2462,1943 2462,1935 2461,1934 2461,1928 2460,1927 2460,1921 2459,1920 2459,1906 2460,1905 2460,1880 2459,1879 2459,1872 2458,1871 2458,1863 2457,1862 2457,1851 2458,1850 2458,1840 2459,1839 2459,1799 2458,1798 2458,1793 2457,1792 2457,1787 2456,1786 2456,1777 2455,1776 2455,1759 2454,1758 2454,1756 2453,1755 2453,1752 2452,1751 2452,1749 2451,1748 2451,1745 2450,1744 2450,1743 2448,1741 2448,1740 2446,1738 2444,1738 2443,1737 2435,1737 2434,1738 2394,1738 2393,1739 2365,1739 2364,1738 2361,1738 2360,1739 2343,1739 2342,1738 2320,1738 2319,1739 2316,1739 2315,1740 2312,1740 2311,1741 2307,1741 2306,1742 2298,1742 2297,1743 2291,1743 2290,1744 2288,1744 2287,1743 2281,1743 2280,1742 2276,1742 2275,1741 2270,1741 2269,1740 2262,1740 2261,1739 2254,1739 2253,1738 2245,1738 2244,1737 2237,1737 2236,1736 2218,1736 2217,1737 2203,1737 2202,1736 2189,1736 2188,1735 2177,1735 2176,1734 2145,1734 2144,1735 2130,1735 2129,1736 2128,1735 2102,1735 2101,1734 2091,1734 2090,1733 2088,1733 2087,1734 2065,1734 2064,1735 2059,1735 2058,1736 2050,1736 2049,1735 2043,1735 2042,1734 2032,1734 2031,1733 2023,1733 2022,1732 1985,1732 1984,1733 1974,1733 1973,1732 1966,1732 1965,1731 1958,1731 1957,1730 1949,1730 1948,1729 1927,1729 1926,1730 1921,1730 1920,1731 1917,1731 1916,1732 1915,1732 1914,1733 1912,1733 1911,1734 1910,1734 1909,1735 1907,1735 1906,1736 1904,1736 1903,1737 1901,1737 1900,1738 1896,1738 1895,1739 1894,1738 1881,1738 1880,1737 1877,1737 1876,1736 1874,1736 1873,1735 1872,1735 1871,1734 1869,1734 1868,1733 1866,1733 1865,1732 1863,1732 1862,1731 1859,1731 1858,1730 1844,1730 1843,1729" fill="rgba(188,20,102,0.3)" stroke="rgb(188,20,102)" stroke-width="2" data-block-id="0001" data-name="b-0004" /><text x="2049" y="1910" text-anchor="middle" dominant-baseline="middle" class="block-label" fill="rgb(188,20,102)" stroke="white" stroke-width="3" paint-order="stroke">b-0004</text><polygon points="934,1723 933,1724 927,1724 926,1725 914,1725 913,1724 876,1724 875,1725 874,1725 873,1724 810,1724 809,1725 802,1725 801,1724 790,1724 789,1725 788,1725 787,1726 786,1726 785,1727 784,1727 782,1729 781,1729 777,1733 777,1734 776,1735 776,1736 775,1737 775,1744 774,1745 774,1761 775,1762 775,1787 774,1788 774,1798 773,1799 773,1846 772,1847 772,1857 773,1858 773,1862 774,1863 774,1883 773,1884 773,1896 772,1897 772,1918 771,1919 771,1932 770,1933 770,1939 769,1940 769,1944 768,1945 768,1951 769,1952 769,1956 770,1957 770,1964 769,1965 769,1978 770,1979 770,1986 771,1987 771,1993 772,1994 772,2000 773,2001 773,2020 772,2021 773,2022 773,2036 772,2037 772,2052 773,2053 773,2057 772,2058 772,2062 771,2063 771,2066 770,2067 770,2072 771,2073 771,2078 772,2079 772,2080 777,2085 778,2085 779,2086 780,2086 781,2087 784,2087 785,2088 792,2088 793,2089 797,2089 798,2090 801,2090 802,2091 807,2091 808,2090 813,2090 814,2089 819,2089 820,2090 824,2090 825,2091 832,2091 833,2090 838,2090 839,2089 841,2089 842,2090 847,2090 848,2091 868,2091 869,2092 882,2092 883,2091 895,2091 896,2092 904,2092 905,2091 919,2091 920,2092 931,2092 932,2091 938,2091 939,2092 956,2092 957,2091 962,2091 963,2092 971,2092 972,2093 973,2093 974,2092 986,2092 987,2093 992,2093 993,2094 997,2094 998,2093 1001,2093 1002,2092 1003,2092 1004,2091 1007,2091 1008,2090 1009,2090 1010,2091 1014,2091 1015,2092 1022,2092 1023,2091 1026,2091 1027,2090 1036,2090 1037,2091 1041,2091 1042,2092 1061,2092 1062,2093 1073,2093 1074,2092 1088,2092 1089,2093 1091,2093 1092,2092 1108,2092 1109,2093 1131,2093 1132,2094 1142,2094 1143,2093 1159,2093 1160,2094 1167,2094 1168,2093 1184,2093 1185,2092 1191,2092 1192,2091 1203,2091 1204,2092 1208,2092 1209,2093 1230,2093 1231,2094 1235,2094 1236,2093 1267,2093 1268,2092 1279,2092 1280,2091 1300,2091 1301,2092 1371,2092 1372,2091 1379,2091 1380,2092 1384,2092 1385,2093 1418,2093 1419,2092 1448,2092 1449,2093 1461,2093 1462,2092 1499,2092 1500,2093 1511,2093 1512,2092 1526,2092 1527,2093 1533,2093 1534,2092 1536,2092 1537,2091 1539,2091 1540,2090 1541,2090 1543,2088 1543,2087 1545,2085 1545,2082 1546,2081 1546,2074 1547,2073 1547,2052 1548,2051 1548,2045 1549,2044 1549,2009 1550,2008 1550,2003 1549,2002 1549,1988 1548,1987 1548,1964 1547,1963 1547,1960 1548,1959 1548,1954 1549,1953 1549,1950 1550,1949 1550,1929 1549,1928 1549,1916 1548,1915 1548,1894 1549,1893 1549,1868 1548,1867 1548,1838 1549,1837 1549,1741 1548,1740 1548,1737 1547,1736 1547,1735 1546,1734 1546,1733 1545,1733 1544,1732 1543,1732 1542,1731 1538,1731 1537,1730 1529,1730 1528,1729 1498,1729 1497,1730 1484,1730 1483,1729 1426,1729 1425,1728 1421,1728 1420,1729 1387,1729 1386,1728 1379,1728 1378,1727 1341,1727 1340,1728 1321,1728 1320,1727 1286,1727 1285,1728 1250,1728 1249,1729 1242,1729 1241,1728 1230,1728 1229,1729 1222,1729 1221,1730 1210,1730 1209,1729 1198,1729 1197,1728 1181,1728 1180,1727 1164,1727 1163,1728 1160,1728 1159,1727 1084,1727 1083,1728 1074,1728 1073,1729 1058,1729 1057,1728 1049,1728 1048,1727 996,1727 995,1726 986,1726 985,1725 975,1725 974,1724 967,1724 966,1725 957,1725 956,1724 943,1724 942,1723" fill="rgba(121,210,214,0.3)" stroke="rgb(121,210,214)" stroke-width="2" data-block-id="0002" data-name="b-0005" /><text x="1095" y="1944" text-anchor="middle" dominant-baseline="middle" class="block-label" fill="rgb(121,210,214)" stroke="white" stroke-width="3" paint-order="stroke">b-0005</text><polygon points="1805,2201 1804,2202 1797,2202 1796,2203 1792,2203 1791,2202 1750,2202 1749,2203 1744,2203 1743,2202 1722,2202 1721,2203 1703,2203 1702,2204 1694,2204 1693,2205 1689,2205 1688,2206 1687,2206 1686,2207 1685,2207 1685,2208 1684,2209 1684,2219 1683,2220 1683,2223 1684,2224 1684,2252 1683,2253 1683,2263 1684,2264 1684,2271 1683,2272 1683,2286 1684,2287 1684,2296 1683,2297 1683,2321 1684,2322 1684,2326 1685,2327 1684,2328 1684,2331 1683,2332 1683,2333 1682,2334 1682,2336 1681,2337 1681,2341 1680,2342 1680,2343 1681,2344 1681,2352 1680,2353 1680,2361 1679,2362 1679,2367 1680,2368 1680,2388 1679,2389 1679,2420 1680,2421 1680,2454 1679,2455 1679,2465 1680,2466 1680,2498 1679,2499 1679,2514 1680,2515 1680,2547 1679,2548 1679,2555 1682,2558 1683,2558 1684,2559 1685,2559 1686,2560 1691,2560 1692,2561 1720,2561 1721,2562 1751,2562 1752,2561 1790,2561 1791,2562 1860,2562 1861,2561 1866,2561 1867,2562 1875,2562 1876,2563 1901,2563 1902,2562 1915,2562 1916,2563 1935,2563 1936,2562 1946,2562 1947,2561 1951,2561 1952,2562 1957,2562 1958,2563 1994,2563 1995,2562 2000,2562 2001,2563 2045,2563 2046,2564 2064,2564 2065,2565 2090,2565 2091,2564 2092,2565 2123,2565 2124,2566 2155,2566 2156,2567 2162,2567 2163,2568 2164,2568 2165,2567 2170,2567 2171,2566 2178,2566 2179,2565 2189,2565 2190,2566 2195,2566 2196,2567 2220,2567 2221,2568 2243,2568 2244,2569 2254,2569 2255,2568 2281,2568 2282,2567 2329,2567 2330,2568 2340,2568 2341,2567 2350,2567 2351,2568 2375,2568 2376,2567 2396,2567 2397,2568 2430,2568 2431,2567 2442,2567 2443,2568 2449,2568 2450,2567 2452,2567 2453,2566 2454,2566 2456,2564 2456,2563 2458,2561 2458,2560 2459,2559 2459,2558 2460,2557 2460,2556 2461,2555 2461,2548 2460,2547 2460,2529 2459,2528 2459,2519 2458,2518 2458,2517 2459,2516 2459,2452 2458,2451 2458,2445 2459,2444 2459,2426 2458,2425 2458,2420 2459,2419 2459,2387 2460,2386 2459,2385 2459,2368 2460,2367 2460,2358 2459,2357 2459,2349 2460,2348 2460,2333 2459,2332 2459,2300 2460,2299 2460,2289 2459,2288 2459,2284 2458,2283 2458,2278 2459,2277 2459,2272 2460,2271 2460,2259 2459,2258 2459,2252 2460,2251 2460,2221 2459,2220 2459,2216 2458,2215 2458,2213 2457,2212 2457,2210 2452,2205 2451,2205 2450,2204 2445,2204 2444,2205 2416,2205 2415,2204 2386,2204 2385,2203 2335,2203 2334,2204 2250,2204 2249,2205 2197,2205 2196,2206 2173,2206 2172,2205 2166,2205 2165,2204 2163,2204 2162,2205 2158,2205 2157,2206 2152,2206 2151,2207 2150,2206 2099,2206 2098,2205 2081,2205 2080,2204 2053,2204 2052,2203 2047,2203 2046,2202 2045,2203 2040,2203 2039,2204 2037,2204 2036,2205 2031,2205 2030,2204 2028,2204 2027,2203 2025,2203 2024,2202 2014,2202 2013,2203 2000,2203 1999,2202 1988,2202 1987,2203 1984,2203 1983,2202 1970,2202 1969,2203 1956,2203 1955,2202 1931,2202 1930,2201 1924,2201 1923,2202 1920,2202 1919,2203 1916,2203 1915,2204 1911,2204 1910,2203 1894,2203 1893,2204 1886,2204 1885,2203 1872,2203 1871,2204 1861,2204 1860,2203 1854,2203 1853,2202 1852,2202 1851,2203 1834,2203 1833,2202 1827,2202 1826,2203 1813,2203 1812,2202 1806,2202" fill="rgba(74,202,87,0.3)" stroke="rgb(74,202,87)" stroke-width="2" data-block-id="0003" data-name="b-0006" /><text x="2052" y="2366" text-anchor="middle" dominant-baseline="middle" class="block-label" fill="rgb(74,202,87)" stroke="white" stroke-width="3" paint-order="stroke">b-0006</text><polygon points="1733,1728 1732,1729 1696,1729 1695,1730 1692,1730 1691,1731 1690,1731 1689,1732 1688,1732 1686,1734 1686,1735 1685,1736 1685,1740 1684,1741 1684,1745 1683,1746 1683,1764 1682,1765 1682,1772 1683,1773 1683,1848 1682,1849 1682,1883 1683,1884 1683,1893 1682,1894 1682,1906 1683,1907 1683,1910 1684,1911 1684,1914 1683,1915 1683,1922 1682,1923 1682,1926 1683,1927 1683,1974 1684,1975 1684,1977 1685,1978 1685,1979 1686,1980 1686,1981 1689,1984 1689,1985 1690,1986 1690,1990 1691,1991 1691,1998 1690,1999 1690,2001 1689,2002 1689,2003 1688,2004 1688,2005 1687,2006 1687,2007 1686,2008 1686,2009 1685,2010 1685,2014 1684,2015 1684,2019 1683,2020 1683,2023 1682,2024 1682,2060 1683,2061 1683,2071 1682,2072 1682,2079 1683,2080 1683,2083 1684,2084 1684,2086 1685,2087 1685,2088 1686,2089 1687,2089 1688,2090 1717,2090 1718,2091 1788,2091 1789,2090 1799,2090 1800,2091 1900,2091 1901,2092 1903,2092 1904,2091 1931,2091 1932,2090 1947,2090 1948,2091 1949,2090 1956,2090 1957,2089 1963,2089 1964,2090 1966,2090 1967,2091 1971,2091 1972,2092 1990,2092 1991,2093 2018,2093 2019,2094 2023,2094 2024,2093 2048,2093 2049,2094 2126,2094 2127,2093 2129,2093 2130,2094 2136,2094 2137,2095 2145,2095 2146,2094 2180,2094 2181,2095 2208,2095 2209,2096 2282,2096 2283,2095 2298,2095 2299,2096 2310,2096 2311,2095 2327,2095 2328,2096 2333,2096 2334,2095 2342,2095 2343,2094 2369,2094 2370,2095 2381,2095 2382,2094 2400,2094 2401,2095 2449,2095 2450,2094 2453,2094 2454,2093 2455,2093 2458,2090 2458,2089 2459,2088 2459,2085 2460,2084 2460,2063 2461,2062 2461,2040 2462,2039 2462,1933 2461,1932 2461,1929 2460,1928 2460,1926 2459,1925 2459,1903 2460,1902 2460,1898 2459,1897 2459,1887 2460,1886 2460,1867 2461,1866 2461,1834 2462,1833 2462,1798 2461,1797 2461,1795 2462,1794 2462,1786 2463,1785 2463,1776 2462,1775 2462,1767 2461,1766 2461,1761 2460,1760 2460,1746 2459,1745 2459,1743 2458,1742 2458,1741 2455,1738 2454,1738 2453,1737 2452,1737 2451,1736 2441,1736 2440,1735 2437,1735 2436,1736 2339,1736 2338,1735 2334,1735 2333,1734 2329,1734 2328,1735 2325,1735 2324,1736 2322,1736 2321,1737 2320,1737 2319,1738 2316,1738 2315,1737 2312,1737 2311,1736 2300,1736 2299,1737 2287,1737 2286,1736 2267,1736 2266,1735 2245,1735 2244,1734 2190,1734 2189,1733 2122,1733 2121,1732 2112,1732 2111,1733 2099,1733 2098,1732 2024,1732 2023,1731 2019,1731 2018,1732 2004,1732 2003,1731 1952,1731 1951,1730 1946,1730 1945,1731 1921,1731 1920,1732 1918,1732 1917,1733 1916,1733 1915,1734 1914,1734 1913,1735 1910,1735 1909,1734 1886,1734 1885,1733 1876,1733 1875,1732 1869,1732 1868,1731 1861,1731 1860,1730 1842,1730 1841,1729 1787,1729 1786,1728 1779,1728 1778,1729 1738,1729 1737,1728" fill="rgba(116,99,103,0.3)" stroke="rgb(116,99,103)" stroke-width="2" data-block-id="0004" data-name="b-0007" /><text x="2041" y="1905" text-anchor="middle" dominant-baseline="middle" class="block-label" fill="rgb(116,99,103)" stroke="white" stroke-width="3" paint-order="stroke">b-0007</text><polygon points="827,2199 826,2200 819,2200 818,2201 810,2201 809,2202 785,2202 784,2203 780,2203 779,2204 778,2204 777,2205 776,2205 774,2207 774,2208 773,2209 773,2225 772,2226 772,2252 771,2253 771,2265 770,2266 770,2270 771,2271 771,2287 772,2288 772,2291 771,2292 771,2303 770,2304 770,2349 771,2350 771,2354 770,2355 770,2399 769,2400 769,2432 768,2433 768,2492 767,2493 767,2498 768,2499 768,2513 767,2514 767,2555 768,2556 768,2557 769,2558 770,2558 771,2559 772,2559 773,2560 775,2560 776,2561 810,2561 811,2562 884,2562 885,2563 896,2563 897,2562 902,2562 903,2563 944,2563 945,2562 950,2562 951,2563 957,2563 958,2564 970,2564 971,2563 993,2563 994,2562 995,2563 1005,2563 1006,2564 1021,2564 1022,2563 1038,2563 1039,2562 1044,2562 1045,2563 1057,2563 1058,2564 1076,2564 1077,2565 1081,2565 1082,2564 1096,2564 1097,2563 1106,2563 1107,2564 1113,2564 1114,2565 1117,2565 1118,2564 1145,2564 1146,2563 1239,2563 1240,2562 1255,2562 1256,2563 1272,2563 1273,2564 1279,2564 1280,2565 1286,2565 1287,2564 1341,2564 1342,2565 1357,2565 1358,2564 1369,2564 1370,2563 1387,2563 1388,2564 1397,2564 1398,2565 1404,2565 1405,2564 1433,2564 1434,2563 1439,2563 1440,2564 1453,2564 1454,2563 1533,2563 1534,2562 1536,2562 1538,2560 1539,2560 1539,2559 1540,2558 1540,2557 1541,2556 1541,2552 1542,2551 1542,2534 1541,2533 1541,2521 1540,2520 1540,2502 1541,2501 1541,2430 1542,2429 1542,2394 1543,2393 1543,2382 1542,2381 1542,2368 1543,2367 1543,2345 1544,2344 1544,2324 1543,2323 1543,2303 1544,2302 1544,2296 1545,2295 1545,2291 1544,2290 1544,2287 1543,2286 1543,2283 1542,2282 1542,2279 1543,2278 1543,2275 1544,2274 1544,2272 1545,2271 1545,2228 1546,2227 1546,2222 1547,2221 1547,2219 1546,2218 1546,2211 1545,2210 1545,2209 1542,2206 1541,2206 1540,2205 1539,2205 1538,2204 1536,2204 1535,2203 1501,2203 1500,2202 1494,2202 1493,2203 1461,2203 1460,2202 1455,2202 1454,2203 1416,2203 1415,2202 1383,2202 1382,2203 1367,2203 1366,2202 1336,2202 1335,2203 1153,2203 1152,2202 1151,2202 1150,2203 1142,2203 1141,2204 1136,2204 1135,2203 1129,2203 1128,2202 1118,2202 1117,2203 1098,2203 1097,2204 1024,2204 1023,2203 1010,2203 1009,2204 993,2204 992,2203 982,2203 981,2202 902,2202 901,2201 899,2201 898,2202 877,2202 876,2201 875,2201 874,2202 859,2202 858,2201 836,2201 835,2200 830,2200 829,2199" fill="rgba(151,130,149,0.3)" stroke="rgb(151,130,149)" stroke-width="2" data-block-id="0005" data-name="b-0008" /><text x="1160" y="2382" text-anchor="middle" dominant-baseline="middle" class="block-label" fill="rgb(151,130,149)" stroke="white" stroke-width="3" paint-order="stroke">b-0008</text><polygon points="2063,1260 2062,1261 2031,1261 2030,1262 2026,1262 2025,1263 2022,1263 2021,1264 2019,1264 2018,1263 2011,1263 2010,1262 2007,1262 2006,1263 1979,1263 1978,1262 1944,1262 1943,1263 1935,1263 1934,1262 1909,1262 1908,1263 1886,1263 1885,1264 1880,1264 1879,1265 1872,1265 1871,1264 1785,1264 1784,1263 1780,1263 1779,1264 1765,1264 1764,1263 1750,1263 1749,1264 1746,1264 1745,1263 1717,1263 1716,1264 1700,1264 1699,1265 1697,1265 1696,1266 1695,1266 1694,1267 1693,1267 1692,1268 1692,1269 1691,1270 1691,1272 1690,1273 1690,1280 1689,1281 1689,1304 1688,1305 1688,1346 1689,1347 1689,1356 1688,1357 1688,1378 1689,1379 1689,1402 1688,1403 1688,1408 1687,1409 1687,1421 1688,1422 1688,1425 1687,1426 1687,1454 1686,1455 1686,1470 1687,1471 1687,1480 1686,1481 1686,1483 1687,1484 1687,1498 1686,1499 1686,1537 1687,1538 1687,1545 1686,1546 1686,1552 1685,1553 1685,1559 1686,1560 1686,1608 1687,1609 1687,1613 1691,1617 1693,1617 1694,1618 1696,1618 1697,1619 1778,1619 1779,1618 1784,1618 1785,1619 1860,1619 1861,1620 1867,1620 1868,1619 1880,1619 1881,1620 1887,1620 1888,1621 1897,1621 1898,1620 1906,1620 1907,1621 1921,1621 1922,1620 1957,1620 1958,1621 1970,1621 1971,1620 2001,1620 2002,1621 2026,1621 2027,1622 2032,1622 2033,1623 2049,1623 2050,1622 2062,1622 2063,1623 2083,1623 2084,1622 2089,1622 2090,1621 2096,1621 2097,1622 2103,1622 2104,1623 2122,1623 2123,1622 2147,1622 2148,1623 2159,1623 2160,1622 2183,1622 2184,1621 2190,1621 2191,1622 2208,1622 2209,1621 2215,1621 2216,1622 2231,1622 2232,1621 2266,1621 2267,1622 2274,1622 2275,1621 2286,1621 2287,1622 2290,1622 2291,1623 2295,1623 2296,1624 2315,1624 2316,1623 2322,1623 2323,1622 2326,1622 2327,1621 2334,1621 2335,1622 2339,1622 2340,1623 2379,1623 2380,1622 2381,1623 2420,1623 2421,1622 2432,1622 2433,1623 2452,1623 2453,1622 2455,1622 2456,1621 2457,1621 2458,1620 2459,1620 2460,1619 2461,1619 2464,1616 2464,1615 2465,1614 2465,1609 2464,1608 2464,1597 2465,1596 2465,1583 2464,1582 2464,1573 2465,1572 2465,1565 2464,1564 2464,1549 2465,1548 2465,1536 2466,1535 2466,1528 2467,1527 2467,1523 2468,1522 2468,1516 2467,1515 2467,1511 2466,1510 2466,1486 2465,1485 2465,1461 2466,1460 2466,1440 2465,1439 2465,1434 2466,1433 2466,1427 2467,1426 2467,1421 2466,1420 2466,1406 2467,1405 2467,1400 2468,1399 2468,1398 2467,1397 2467,1381 2466,1380 2466,1366 2465,1365 2465,1363 2466,1362 2466,1332 2467,1331 2467,1308 2468,1307 2468,1298 2467,1297 2467,1290 2466,1289 2466,1283 2465,1282 2465,1280 2464,1279 2464,1278 2462,1276 2462,1275 2460,1273 2460,1272 2456,1268 2455,1268 2454,1267 2453,1267 2452,1266 2406,1266 2405,1265 2393,1265 2392,1266 2359,1266 2358,1265 2341,1265 2340,1266 2328,1266 2327,1265 2314,1265 2313,1264 2299,1264 2298,1265 2286,1265 2285,1266 2283,1266 2282,1265 2276,1265 2275,1264 2259,1264 2258,1265 2222,1265 2221,1264 2175,1264 2174,1265 2169,1265 2168,1266 2162,1266 2161,1265 2160,1265 2159,1264 2158,1264 2156,1262 2155,1262 2154,1261 2143,1261 2142,1262 2119,1262 2118,1261 2073,1261 2072,1260" fill="rgba(52,1,87,0.3)" stroke="rgb(52,1,87)" stroke-width="2" data-block-id="0006" data-name="b-0009" /><text x="2121" y="1441" text-anchor="middle" dominant-baseline="middle" class="block-label" fill="rgb(52,1,87)" stroke="white" stroke-width="3" paint-order="stroke">b-0009</text><polygon points="2041,790 2040,791 2013,791 2012,792 2004,792 2003,791 1977,791 1976,792 1972,792 1971,793 1966,793 1965,794 1957,794 1956,795 1932,795 1931,794 1902,794 1901,795 1897,795 1896,796 1894,796 1893,797 1892,797 1891,798 1886,798 1885,797 1882,797 1881,796 1874,796 1873,797 1869,797 1868,798 1859,798 1858,799 1846,799 1845,800 1841,800 1840,799 1837,799 1836,798 1833,798 1832,797 1828,797 1827,798 1823,798 1822,799 1815,799 1814,798 1811,798 1810,797 1793,797 1792,796 1790,796 1789,795 1788,795 1787,794 1782,794 1781,793 1780,794 1776,794 1775,795 1771,795 1770,796 1769,796 1768,795 1764,795 1763,794 1756,794 1755,795 1753,795 1752,796 1744,796 1743,795 1739,795 1738,794 1719,794 1718,795 1715,795 1714,796 1711,796 1710,797 1708,797 1707,798 1706,798 1703,801 1703,802 1702,803 1702,804 1701,805 1701,807 1700,808 1700,810 1699,811 1699,813 1698,814 1698,818 1697,819 1697,827 1696,828 1696,852 1697,853 1697,863 1698,864 1698,905 1699,906 1699,913 1698,914 1698,915 1697,916 1697,919 1696,920 1696,922 1695,923 1695,926 1694,927 1694,929 1693,930 1693,936 1692,937 1693,938 1693,950 1692,951 1692,975 1691,976 1691,1004 1692,1005 1692,1019 1691,1020 1691,1028 1690,1029 1690,1036 1691,1037 1691,1072 1690,1073 1690,1098 1691,1099 1691,1118 1690,1119 1690,1140 1691,1141 1691,1142 1692,1143 1692,1144 1695,1147 1696,1147 1697,1148 1712,1148 1713,1149 1717,1149 1718,1150 1721,1150 1722,1151 1738,1151 1739,1150 1745,1150 1746,1149 1860,1149 1861,1150 1875,1150 1876,1149 1885,1149 1886,1148 1893,1148 1894,1149 1902,1149 1903,1150 1969,1150 1970,1149 1989,1149 1990,1148 1998,1148 1999,1149 2024,1149 2025,1150 2029,1150 2030,1151 2048,1151 2049,1152 2054,1152 2055,1153 2057,1153 2058,1154 2062,1154 2063,1153 2075,1153 2076,1152 2087,1152 2088,1151 2102,1151 2103,1152 2136,1152 2137,1153 2141,1153 2142,1154 2144,1154 2145,1155 2147,1155 2148,1156 2150,1156 2151,1157 2153,1157 2154,1156 2157,1156 2158,1155 2161,1155 2162,1154 2169,1154 2170,1153 2195,1153 2196,1154 2203,1154 2204,1153 2214,1153 2215,1154 2216,1154 2217,1155 2218,1155 2219,1156 2220,1156 2221,1157 2226,1157 2227,1156 2229,1156 2230,1155 2232,1155 2233,1154 2278,1154 2279,1153 2286,1153 2287,1154 2289,1154 2290,1155 2293,1155 2294,1156 2296,1156 2297,1155 2300,1155 2301,1154 2304,1154 2305,1153 2316,1153 2317,1152 2323,1152 2324,1153 2359,1153 2360,1152 2453,1152 2454,1151 2461,1151 2462,1150 2465,1150 2466,1149 2467,1149 2470,1146 2470,1145 2472,1143 2472,1142 2473,1141 2473,1140 2474,1139 2474,1132 2473,1131 2473,1093 2474,1092 2474,1090 2473,1089 2473,1080 2472,1079 2472,1073 2473,1072 2473,1062 2472,1061 2472,1040 2471,1039 2471,1022 2472,1021 2472,1000 2473,999 2473,995 2472,994 2472,990 2471,989 2471,985 2470,984 2470,978 2471,977 2471,965 2470,964 2470,956 2471,955 2471,949 2472,948 2472,945 2471,944 2471,913 2470,912 2470,910 2471,909 2471,868 2470,867 2470,861 2471,860 2471,843 2470,842 2470,838 2471,837 2471,830 2472,829 2472,822 2471,821 2471,812 2470,811 2470,807 2469,806 2469,804 2468,803 2468,802 2466,800 2465,800 2464,799 2463,799 2462,798 2457,798 2456,797 2440,797 2439,796 2419,796 2418,795 2382,795 2381,796 2374,796 2373,795 2360,795 2359,794 2335,794 2334,795 2330,795 2329,794 2317,794 2316,793 2309,793 2308,792 2303,792 2302,793 2287,793 2286,794 2282,794 2281,793 2267,793 2266,794 2263,794 2262,795 2234,795 2233,794 2219,794 2218,793 2203,793 2202,792 2194,792 2193,793 2185,793 2184,792 2163,792 2162,791 2161,792 2132,792 2131,791 2121,791 2120,790 2102,790 2101,791 2074,791 2073,790 2066,790 2065,791 2049,791 2048,790" fill="rgba(235,157,37,0.3)" stroke="rgb(235,157,37)" stroke-width="2" data-block-id="0007" data-name="b-0010" /><text x="2071" y="952" text-anchor="middle" dominant-baseline="middle" class="block-label" fill="rgb(235,157,37)" stroke="white" stroke-width="3" paint-order="stroke">b-0010</text><polygon points="826,784 825,785 810,785 809,786 803,786 802,787 799,787 798,788 796,788 795,789 794,789 791,792 791,800 790,801 790,812 789,813 789,818 790,819 790,825 791,826 791,829 790,830 790,835 789,836 789,846 790,847 790,870 791,871 791,879 790,880 790,887 789,888 789,889 790,890 790,917 791,918 791,922 790,923 790,929 789,930 789,969 790,970 790,971 789,972 789,983 788,984 789,985 789,1011 788,1012 788,1022 787,1023 787,1077 786,1078 786,1098 787,1099 787,1112 786,1113 786,1132 787,1133 787,1137 788,1138 788,1139 790,1141 791,1141 792,1142 794,1142 795,1143 870,1143 871,1142 952,1142 953,1143 969,1143 970,1142 974,1142 975,1143 985,1143 986,1142 993,1142 994,1141 1022,1141 1023,1142 1069,1142 1070,1141 1087,1141 1088,1142 1101,1142 1102,1143 1156,1143 1157,1142 1168,1142 1169,1143 1220,1143 1221,1144 1236,1144 1237,1143 1247,1143 1248,1144 1253,1144 1254,1145 1287,1145 1288,1144 1326,1144 1327,1145 1349,1145 1350,1146 1357,1146 1358,1147 1362,1147 1363,1148 1366,1148 1367,1149 1382,1149 1383,1148 1391,1148 1392,1149 1396,1149 1397,1150 1404,1150 1405,1151 1428,1151 1429,1150 1497,1150 1498,1151 1548,1151 1549,1150 1550,1150 1551,1149 1552,1149 1555,1146 1555,1145 1556,1144 1556,1142 1557,1141 1557,1083 1556,1082 1556,1073 1557,1072 1557,1036 1556,1035 1556,1026 1557,1025 1557,976 1558,975 1558,964 1557,963 1557,956 1558,955 1558,949 1559,948 1559,931 1560,930 1560,903 1559,902 1559,892 1560,891 1560,848 1559,847 1559,843 1558,842 1558,813 1557,812 1557,808 1556,807 1556,803 1555,802 1555,799 1554,798 1554,796 1553,795 1553,794 1552,793 1552,792 1551,791 1550,791 1549,790 1548,790 1547,789 1545,789 1544,788 1481,788 1480,789 1468,789 1467,788 1452,788 1451,787 1407,787 1406,786 1400,786 1399,787 1394,787 1393,788 1391,788 1390,789 1389,789 1388,788 1385,788 1384,787 1382,787 1381,786 1379,786 1378,785 1373,785 1372,786 1359,786 1358,785 1350,785 1349,786 1345,786 1344,787 1338,787 1337,786 1331,786 1330,785 1327,785 1326,786 1313,786 1312,785 1300,785 1299,786 1287,786 1286,785 1272,785 1271,786 1266,786 1265,785 1252,785 1251,786 1244,786 1243,785 1225,785 1224,786 1189,786 1188,785 1182,785 1181,786 1172,786 1171,785 1157,785 1156,786 1153,786 1152,787 1149,787 1148,786 1144,786 1143,785 1128,785 1127,786 1125,786 1124,785 1082,785 1081,786 1076,786 1075,785 1059,785 1058,786 1052,786 1051,785 1038,785 1037,786 1022,786 1021,785 1017,785 1016,786 999,786 998,785 993,785 992,786 976,786 975,785 904,785 903,784 897,784 896,785 880,785 879,784 873,784 872,785 859,785 858,784 846,784 845,785 831,785 830,784" fill="rgba(129,191,187,0.3)" stroke="rgb(129,191,187)" stroke-width="2" data-block-id="0008" data-name="b-0011" /><text x="1171" y="920" text-anchor="middle" dominant-baseline="middle" class="block-label" fill="rgb(129,191,187)" stroke="white" stroke-width="3" paint-order="stroke">b-0011</text><polygon points="1708,2673 1707,2674 1684,2674 1683,2675 1681,2675 1679,2677 1679,2678 1678,2679 1678,2682 1677,2683 1677,2693 1676,2694 1676,2705 1675,2706 1675,2777 1676,2778 1676,2784 1675,2785 1675,2813 1674,2814 1674,2898 1673,2899 1673,2919 1674,2920 1674,2931 1673,2932 1673,2963 1674,2964 1674,2985 1673,2986 1673,3013 1674,3014 1674,3016 1675,3017 1675,3018 1676,3019 1676,3020 1677,3021 1678,3021 1679,3022 1682,3022 1683,3023 1713,3023 1714,3024 1754,3024 1755,3025 1778,3025 1779,3026 1817,3026 1818,3027 1839,3027 1840,3026 1845,3026 1846,3027 1859,3027 1860,3028 1905,3028 1906,3029 1931,3029 1932,3028 1939,3028 1940,3029 1976,3029 1977,3028 1990,3028 1991,3029 2083,3029 2084,3030 2113,3030 2114,3031 2232,3031 2233,3032 2237,3032 2238,3031 2446,3031 2447,3030 2451,3030 2452,3029 2453,3029 2456,3026 2456,3024 2457,3023 2457,2812 2458,2811 2458,2728 2459,2727 2459,2694 2458,2693 2458,2685 2455,2682 2454,2682 2453,2681 2452,2681 2451,2680 2389,2680 2388,2679 2336,2679 2335,2680 2317,2680 2316,2679 2311,2679 2310,2678 2301,2678 2300,2679 2151,2679 2150,2678 2087,2678 2086,2677 2035,2677 2034,2676 1977,2676 1976,2675 1968,2675 1967,2676 1950,2676 1949,2677 1938,2677 1937,2676 1916,2676 1915,2675 1906,2675 1905,2676 1893,2676 1892,2675 1869,2675 1868,2674 1860,2674 1859,2675 1836,2675 1835,2674 1741,2674 1740,2673" fill="rgba(20,160,203,0.3)" stroke="rgb(20,160,203)" stroke-width="2" data-block-id="0009" data-name="b-0012" /><text x="1963" y="2843" text-anchor="middle" dominant-baseline="middle" class="block-label" fill="rgb(20,160,203)" stroke="white" stroke-width="3" paint-order="stroke">b-0012</text><polygon points="848,1253 847,1254 794,1254 793,1255 791,1255 790,1256 789,1256 787,1258 786,1258 784,1260 784,1261 778,1267 778,1268 777,1269 777,1277 776,1278 776,1279 777,1280 777,1284 778,1285 778,1286 779,1287 779,1289 780,1290 780,1291 781,1292 781,1295 782,1296 782,1305 781,1306 781,1312 780,1313 780,1325 781,1326 781,1337 782,1338 782,1353 781,1354 781,1359 780,1360 780,1383 781,1384 781,1391 780,1392 780,1403 779,1404 779,1434 780,1435 780,1445 781,1446 781,1449 780,1450 780,1460 779,1461 779,1462 780,1463 780,1475 779,1476 779,1487 778,1488 778,1495 777,1496 777,1503 776,1504 776,1520 777,1521 777,1528 778,1529 778,1552 777,1553 777,1599 778,1600 778,1602 779,1603 779,1604 780,1605 781,1605 782,1606 784,1606 785,1607 788,1607 789,1608 796,1608 797,1609 805,1609 806,1610 824,1610 825,1611 832,1611 833,1610 847,1610 848,1611 857,1611 858,1610 869,1610 870,1611 883,1611 884,1610 891,1610 892,1611 918,1611 919,1612 943,1612 944,1613 950,1613 951,1612 954,1612 955,1611 958,1611 959,1610 962,1610 963,1611 967,1611 968,1612 978,1612 979,1611 987,1611 988,1612 1013,1612 1014,1613 1028,1613 1029,1612 1033,1612 1034,1613 1051,1613 1052,1612 1058,1612 1059,1613 1083,1613 1084,1614 1096,1614 1097,1613 1109,1613 1110,1614 1175,1614 1176,1615 1218,1615 1219,1616 1235,1616 1236,1615 1240,1615 1241,1614 1244,1614 1245,1613 1249,1613 1250,1614 1267,1614 1268,1615 1271,1615 1272,1614 1288,1614 1289,1613 1302,1613 1303,1614 1331,1614 1332,1613 1341,1613 1342,1614 1365,1614 1366,1613 1379,1613 1380,1614 1383,1614 1384,1615 1389,1615 1390,1616 1412,1616 1413,1615 1414,1615 1415,1616 1494,1616 1495,1617 1546,1617 1547,1616 1549,1616 1552,1613 1552,1605 1553,1604 1553,1546 1554,1545 1554,1538 1553,1537 1553,1522 1554,1521 1554,1520 1553,1519 1553,1498 1554,1497 1554,1494 1553,1493 1553,1488 1552,1487 1552,1481 1553,1480 1553,1474 1554,1473 1554,1456 1555,1455 1555,1451 1556,1450 1556,1444 1555,1443 1555,1438 1554,1437 1554,1434 1555,1433 1555,1428 1556,1427 1556,1393 1555,1392 1555,1383 1556,1382 1556,1369 1555,1368 1555,1361 1556,1360 1556,1344 1555,1343 1555,1337 1556,1336 1556,1308 1555,1307 1555,1278 1554,1277 1554,1270 1553,1269 1553,1267 1550,1264 1549,1264 1548,1263 1547,1263 1546,1262 1516,1262 1515,1261 1491,1261 1490,1260 1387,1260 1386,1259 1384,1259 1383,1258 1381,1258 1380,1257 1368,1257 1367,1258 1358,1258 1357,1257 1353,1257 1352,1258 1343,1258 1342,1259 1339,1259 1338,1258 1300,1258 1299,1259 1292,1259 1291,1258 1286,1258 1285,1257 1272,1257 1271,1258 1256,1258 1255,1259 1250,1259 1249,1260 1245,1260 1244,1261 1237,1261 1236,1262 1219,1262 1218,1261 1202,1261 1201,1262 1196,1262 1195,1261 1157,1261 1156,1262 1146,1262 1145,1261 1118,1261 1117,1260 1112,1260 1111,1261 1094,1261 1093,1260 1088,1260 1087,1261 1075,1261 1074,1260 1049,1260 1048,1259 1038,1259 1037,1260 1026,1260 1025,1259 1002,1259 1001,1258 962,1258 961,1257 956,1257 955,1256 952,1256 951,1255 948,1255 947,1254 945,1254 944,1255 917,1255 916,1256 910,1256 909,1255 905,1255 904,1254 890,1254 889,1255 885,1255 884,1254 870,1254 869,1255 863,1255 862,1254 855,1254 854,1253" fill="rgba(57,21,252,0.3)" stroke="rgb(57,21,252)" stroke-width="2" data-block-id="0010" data-name="b-0013" /><text x="1116" y="1425" text-anchor="middle" dominant-baseline="middle" class="block-label" fill="rgb(57,21,252)" stroke="white" stroke-width="3" paint-order="stroke">b-0013</text><polygon points="3567,1268 3566,1269 3547,1269 3546,1270 3545,1270 3545,1271 3544,1272 3544,1276 3543,1277 3543,1300 3544,1301 3544,1369 3543,1370 3543,1384 3542,1385 3542,1392 3543,1393 3543,1408 3542,1409 3542,1416 3543,1417 3543,1428 3542,1429 3542,1438 3543,1439 3543,1471 3544,1472 3544,1551 3543,1552 3543,1561 3544,1562 3544,1572 3543,1573 3543,1583 3544,1584 3544,1612 3543,1613 3544,1614 3544,1616 3545,1617 3545,1618 3547,1620 3547,1621 3552,1626 3553,1626 3555,1628 3557,1628 3558,1629 3562,1629 3563,1630 3637,1630 3638,1631 3646,1631 3647,1630 3674,1630 3675,1631 3676,1631 3677,1630 3711,1630 3712,1631 3713,1630 3717,1630 3718,1629 3723,1629 3724,1628 3727,1628 3728,1629 3767,1629 3768,1630 3781,1630 3782,1631 3795,1631 3796,1632 3799,1632 3800,1631 3814,1631 3815,1632 3853,1632 3854,1631 3919,1631 3920,1630 3991,1630 3992,1631 4014,1631 4015,1632 4032,1632 4033,1631 4043,1631 4044,1632 4055,1632 4056,1633 4111,1633 4112,1634 4122,1634 4123,1633 4135,1633 4136,1634 4175,1634 4176,1633 4196,1633 4197,1634 4301,1634 4302,1633 4304,1633 4306,1631 4307,1631 4307,1630 4308,1629 4308,1628 4309,1627 4309,1569 4308,1568 4308,1563 4309,1562 4309,1548 4308,1547 4308,1541 4309,1540 4309,1533 4310,1532 4310,1529 4309,1528 4309,1496 4308,1495 4308,1367 4307,1366 4307,1362 4308,1361 4308,1343 4307,1342 4307,1337 4308,1336 4308,1326 4307,1325 4307,1308 4308,1307 4308,1301 4307,1300 4307,1288 4306,1287 4306,1282 4305,1281 4305,1279 4303,1277 4302,1277 4300,1275 4294,1275 4293,1274 4216,1274 4215,1273 4211,1273 4210,1274 4201,1274 4200,1273 4098,1273 4097,1274 4086,1274 4085,1273 4066,1273 4065,1274 4029,1274 4028,1273 3990,1273 3989,1272 3958,1272 3957,1273 3949,1273 3948,1272 3921,1272 3920,1271 3897,1271 3896,1270 3876,1270 3875,1269 3865,1269 3864,1270 3730,1270 3729,1271 3698,1271 3697,1270 3621,1270 3620,1269 3614,1269 3613,1270 3602,1270 3601,1269 3586,1269 3585,1270 3583,1270 3582,1269 3573,1269 3572,1268" fill="rgba(235,88,48,0.3)" stroke="rgb(235,88,48)" stroke-width="2" data-block-id="0011" data-name="b-0014" /><text x="3897" y="1460" text-anchor="middle" dominant-baseline="middle" class="block-label" fill="rgb(235,88,48)" stroke="white" stroke-width="3" paint-order="stroke">b-0014</text><polygon points="4164,2208 4163,2209 4145,2209 4144,2210 4087,2210 4086,2211 3943,2211 3942,2212 3885,2212 3884,2213 3870,2213 3869,2212 3809,2212 3808,2211 3771,2211 3770,2210 3754,2210 3753,2209 3734,2209 3733,2210 3652,2210 3651,2209 3618,2209 3617,2210 3575,2210 3574,2209 3567,2209 3566,2210 3558,2210 3557,2211 3553,2211 3552,2212 3551,2212 3550,2213 3549,2213 3549,2214 3548,2215 3548,2216 3547,2217 3547,2247 3546,2248 3546,2257 3545,2258 3545,2296 3544,2297 3544,2337 3545,2338 3545,2343 3544,2344 3544,2368 3543,2369 3543,2389 3542,2390 3542,2414 3541,2415 3541,2438 3540,2439 3540,2444 3539,2445 3539,2458 3538,2459 3538,2479 3537,2480 3537,2514 3538,2515 3538,2549 3539,2550 3539,2558 3540,2559 3540,2561 3541,2562 3541,2563 3542,2564 3542,2565 3544,2567 3545,2567 3546,2568 3548,2568 3549,2569 3553,2569 3554,2570 3709,2570 3710,2569 3723,2569 3724,2568 3727,2568 3728,2569 3756,2569 3757,2568 3782,2568 3783,2569 3787,2569 3788,2568 3879,2568 3880,2569 3934,2569 3935,2568 3942,2568 3943,2569 3964,2569 3965,2568 3992,2568 3993,2569 4002,2569 4003,2568 4021,2568 4022,2569 4026,2569 4027,2568 4069,2568 4070,2569 4079,2569 4080,2568 4082,2568 4083,2569 4118,2569 4119,2570 4139,2570 4140,2571 4144,2571 4145,2570 4164,2570 4165,2571 4186,2571 4187,2570 4212,2570 4213,2571 4296,2571 4297,2570 4302,2570 4303,2569 4304,2569 4305,2568 4306,2568 4308,2566 4308,2562 4309,2561 4309,2490 4308,2489 4308,2478 4309,2477 4309,2442 4308,2441 4308,2438 4307,2437 4307,2434 4308,2433 4308,2426 4309,2425 4309,2422 4308,2421 4308,2414 4307,2413 4307,2386 4308,2385 4308,2379 4309,2378 4309,2374 4308,2373 4308,2367 4307,2366 4307,2312 4306,2311 4306,2298 4307,2297 4307,2266 4306,2265 4306,2226 4305,2225 4305,2220 4304,2219 4304,2218 4303,2217 4303,2216 4302,2215 4302,2214 4301,2213 4300,2213 4299,2212 4298,2212 4297,2211 4290,2211 4289,2210 4253,2210 4252,2211 4221,2211 4220,2210 4210,2210 4209,2211 4185,2211 4184,2210 4175,2210 4174,2209 4167,2209 4166,2208" fill="rgba(218,58,254,0.3)" stroke="rgb(218,58,254)" stroke-width="2" data-block-id="0012" data-name="b-0015" /><text x="3945" y="2394" text-anchor="middle" dominant-baseline="middle" class="block-label" fill="rgb(218,58,254)" stroke="white" stroke-width="3" paint-order="stroke">b-0015</text><polygon points="3664,327 3663,328 3654,328 3653,329 3645,329 3644,330 3621,330 3620,329 3619,329 3618,330 3606,330 3605,331 3581,331 3580,330 3558,330 3557,331 3555,331 3554,332 3553,332 3551,334 3551,335 3549,337 3549,341 3548,342 3548,356 3549,357 3549,370 3550,371 3550,437 3549,438 3549,507 3550,508 3550,528 3549,529 3549,534 3550,535 3550,574 3549,575 3549,586 3550,587 3550,591 3549,592 3549,603 3550,604 3550,613 3551,614 3551,645 3550,646 3550,658 3549,659 3549,664 3550,665 3550,676 3551,677 3551,680 3552,681 3552,683 3555,686 3556,686 3557,687 3576,687 3577,688 3644,688 3645,689 3682,689 3683,688 3726,688 3727,689 3729,689 3730,690 3734,690 3735,691 3742,691 3743,690 3782,690 3783,689 3785,689 3786,690 3879,690 3880,691 3926,691 3927,692 3949,692 3950,691 3955,691 3956,692 3970,692 3971,691 3978,691 3979,692 3986,692 3987,693 3990,693 3991,692 4030,692 4031,691 4073,691 4074,692 4121,692 4122,693 4216,693 4217,694 4231,694 4232,693 4267,693 4268,694 4282,694 4283,693 4302,693 4303,692 4305,692 4307,690 4308,690 4309,689 4309,688 4310,687 4310,686 4311,685 4311,680 4312,679 4312,664 4311,663 4311,644 4310,643 4310,629 4311,628 4311,624 4310,623 4310,599 4311,598 4311,578 4310,577 4310,547 4309,546 4309,536 4310,535 4310,514 4311,513 4311,423 4310,422 4310,358 4311,357 4311,347 4310,346 4310,344 4309,343 4309,341 4307,339 4307,338 4306,338 4304,336 4302,336 4301,335 4298,335 4297,334 4288,334 4287,333 4276,333 4275,332 4273,332 4272,333 4266,333 4265,334 4262,334 4261,335 4258,335 4257,334 4241,334 4240,333 4227,333 4226,332 4223,332 4222,333 4173,333 4172,332 4141,332 4140,331 4126,331 4125,332 4105,332 4104,331 4044,331 4043,332 4027,332 4026,331 3911,331 3910,330 3864,330 3863,329 3831,329 3830,330 3813,330 3812,329 3767,329 3766,328 3710,328 3709,329 3678,329 3677,328 3668,328 3667,327" fill="rgba(169,219,187,0.3)" stroke="rgb(169,219,187)" stroke-width="2" data-block-id="0013" data-name="b-0016" /><text x="3937" y="507" text-anchor="middle" dominant-baseline="middle" class="block-label" fill="rgb(169,219,187)" stroke="white" stroke-width="3" paint-order="stroke">b-0016</text><polygon points="2176,320 2175,321 2169,321 2168,322 2152,322 2151,323 2009,323 2008,324 1999,324 1998,325 1995,325 1994,324 1972,324 1971,325 1950,325 1949,324 1906,324 1905,323 1830,323 1829,322 1827,322 1826,323 1809,323 1808,322 1802,322 1801,323 1795,323 1794,322 1760,322 1759,321 1754,321 1753,322 1744,322 1743,321 1715,321 1714,322 1711,322 1710,323 1709,323 1707,325 1707,326 1706,327 1706,328 1705,329 1705,337 1704,338 1704,370 1705,371 1705,378 1704,379 1704,390 1703,391 1703,404 1704,405 1704,418 1703,419 1703,476 1704,477 1704,496 1703,497 1703,513 1704,514 1704,562 1705,563 1705,583 1704,584 1704,641 1703,642 1703,671 1704,672 1704,674 1706,676 1707,676 1708,677 1709,677 1710,678 1753,678 1754,677 1772,677 1773,678 1777,678 1778,679 1787,679 1788,678 1831,678 1832,679 1842,679 1843,680 1851,680 1852,681 1857,681 1858,680 1888,680 1889,679 1905,679 1906,680 1934,680 1935,679 1939,679 1940,680 1968,680 1969,679 1976,679 1977,680 1981,680 1982,681 2117,681 2118,680 2127,680 2128,679 2130,679 2131,680 2144,680 2145,681 2156,681 2157,680 2167,680 2168,679 2193,679 2194,680 2203,680 2204,679 2207,679 2208,678 2210,678 2211,677 2213,677 2214,678 2215,678 2216,679 2217,679 2218,680 2221,680 2222,681 2233,681 2234,680 2243,680 2244,679 2249,679 2250,678 2254,678 2255,677 2258,677 2259,676 2265,676 2266,677 2274,677 2275,676 2288,676 2289,677 2307,677 2308,678 2312,678 2313,679 2324,679 2325,678 2328,678 2329,677 2332,677 2333,678 2334,678 2335,679 2336,679 2337,680 2338,680 2339,681 2341,681 2342,682 2375,682 2376,681 2382,681 2383,682 2413,682 2414,681 2443,681 2444,680 2452,680 2453,681 2460,681 2461,682 2462,682 2463,681 2466,681 2467,680 2468,680 2469,679 2470,679 2471,678 2471,677 2472,676 2472,675 2473,674 2473,632 2474,631 2474,618 2473,617 2473,568 2472,567 2472,564 2473,563 2473,533 2474,532 2474,512 2473,511 2473,480 2474,479 2474,471 2475,470 2475,451 2474,450 2474,447 2473,446 2473,443 2472,442 2472,439 2471,438 2471,434 2472,433 2472,431 2473,430 2473,425 2474,424 2474,341 2473,340 2473,336 2472,335 2472,334 2471,333 2471,332 2469,330 2468,330 2467,329 2465,329 2464,328 2461,328 2460,327 2432,327 2431,326 2376,326 2375,327 2363,327 2362,326 2315,326 2314,325 2303,325 2302,326 2269,326 2268,325 2241,325 2240,324 2218,324 2217,325 2206,325 2205,324 2199,324 2198,323 2194,323 2193,322 2191,322 2190,321 2188,321 2187,320" fill="rgba(207,14,189,0.3)" stroke="rgb(207,14,189)" stroke-width="2" data-block-id="0014" data-name="b-0017" /><text x="2131" y="524" text-anchor="middle" dominant-baseline="middle" class="block-label" fill="rgb(207,14,189)" stroke="white" stroke-width="3" paint-order="stroke">b-0017</text><polygon points="2651,2203 2650,2204 2649,2204 2648,2205 2647,2205 2645,2207 2645,2208 2644,2209 2644,2224 2643,2225 2643,2246 2642,2247 2642,2271 2643,2272 2643,2317 2642,2318 2642,2345 2641,2346 2641,2358 2640,2359 2640,2376 2641,2377 2641,2380 2642,2381 2642,2382 2643,2383 2643,2384 2644,2385 2644,2386 2645,2387 2645,2389 2644,2390 2644,2391 2642,2393 2642,2395 2641,2396 2641,2397 2640,2398 2640,2409 2641,2410 2641,2416 2642,2417 2642,2425 2643,2426 2643,2442 2642,2443 2642,2454 2643,2455 2643,2472 2644,2473 2644,2491 2643,2492 2643,2504 2644,2505 2643,2506 2643,2548 2644,2549 2644,2553 2647,2556 2648,2556 2649,2557 2652,2557 2653,2558 2660,2558 2661,2559 2678,2559 2679,2560 2687,2560 2688,2561 2695,2561 2696,2562 2704,2562 2705,2563 2719,2563 2720,2564 2740,2564 2741,2565 2747,2565 2748,2566 2839,2566 2840,2567 2850,2567 2851,2566 2858,2566 2859,2567 2882,2567 2883,2568 2888,2568 2889,2569 2904,2569 2905,2568 2928,2568 2929,2569 2970,2569 2971,2568 2975,2568 2976,2569 3029,2569 3030,2570 3076,2570 3077,2571 3090,2571 3091,2570 3115,2570 3116,2569 3119,2569 3120,2570 3157,2570 3158,2569 3168,2569 3169,2570 3174,2570 3175,2571 3195,2571 3196,2570 3228,2570 3229,2571 3246,2571 3247,2570 3268,2570 3269,2571 3315,2571 3316,2572 3345,2572 3346,2571 3360,2571 3361,2570 3375,2570 3376,2569 3393,2569 3394,2568 3396,2568 3399,2565 3399,2562 3400,2561 3400,2553 3401,2552 3401,2536 3400,2535 3400,2499 3401,2498 3401,2490 3400,2489 3400,2461 3401,2460 3401,2455 3402,2454 3402,2450 3403,2449 3403,2446 3402,2445 3402,2440 3401,2439 3401,2417 3400,2416 3400,2368 3399,2367 3399,2360 3400,2359 3400,2316 3401,2315 3401,2306 3402,2305 3402,2299 3401,2298 3401,2285 3402,2284 3402,2281 3401,2280 3401,2271 3400,2270 3400,2253 3401,2252 3401,2247 3402,2246 3402,2242 3401,2241 3401,2227 3400,2226 3400,2220 3399,2219 3399,2217 3398,2216 3398,2215 3397,2214 3397,2213 3394,2210 3393,2210 3392,2209 3386,2209 3385,2208 3365,2208 3364,2209 3302,2209 3301,2208 3263,2208 3262,2209 3257,2209 3256,2210 3253,2210 3252,2211 3250,2211 3249,2212 3245,2212 3244,2211 3237,2211 3236,2210 3229,2210 3228,2209 3208,2209 3207,2208 3200,2208 3199,2207 3198,2207 3197,2208 3184,2208 3183,2209 3179,2209 3178,2210 3161,2210 3160,2209 3155,2209 3154,2208 3151,2208 3150,2209 3143,2209 3142,2210 3140,2210 3139,2209 3123,2209 3122,2208 3116,2208 3115,2209 3108,2209 3107,2210 3102,2210 3101,2209 3085,2209 3084,2208 3082,2208 3081,2209 3074,2209 3073,2210 3063,2210 3062,2209 3056,2209 3055,2208 3040,2208 3039,2209 3035,2209 3034,2210 3019,2210 3018,2209 3013,2209 3012,2208 2967,2208 2966,2209 2955,2209 2954,2208 2913,2208 2912,2207 2815,2207 2814,2206 2764,2206 2763,2205 2742,2205 2741,2204 2717,2204 2716,2203" fill="rgba(189,174,189,0.3)" stroke="rgb(189,174,189)" stroke-width="2" data-block-id="0015" data-name="b-0018" /><text x="3037" y="2373" text-anchor="middle" dominant-baseline="middle" class="block-label" fill="rgb(189,174,189)" stroke="white" stroke-width="3" paint-order="stroke">b-0018</text><polygon points="2705,1264 2704,1265 2685,1265 2684,1266 2677,1266 2676,1267 2660,1267 2659,1268 2656,1268 2655,1269 2653,1269 2652,1270 2650,1270 2648,1272 2648,1273 2647,1274 2647,1275 2646,1276 2646,1278 2645,1279 2645,1286 2646,1287 2646,1300 2645,1301 2645,1309 2644,1310 2644,1335 2645,1336 2645,1406 2644,1407 2644,1422 2643,1423 2643,1438 2644,1439 2644,1445 2645,1446 2645,1450 2644,1451 2644,1456 2643,1457 2643,1465 2644,1466 2644,1484 2643,1485 2644,1486 2644,1504 2645,1505 2645,1509 2646,1510 2646,1519 2647,1520 2647,1577 2648,1578 2648,1617 2649,1618 2649,1619 2650,1620 2650,1621 2651,1622 2651,1623 2653,1625 2655,1625 2656,1626 2659,1626 2660,1627 2668,1627 2669,1628 2728,1628 2729,1629 2758,1629 2759,1628 2767,1628 2768,1627 2789,1627 2790,1626 2831,1626 2832,1627 2852,1627 2853,1626 2856,1626 2857,1627 2880,1627 2881,1628 2909,1628 2910,1629 2921,1629 2922,1630 2925,1630 2926,1631 2927,1631 2930,1634 2931,1634 2933,1636 2934,1636 2935,1637 2942,1637 2943,1636 2944,1636 2945,1635 2947,1635 2948,1634 2949,1634 2950,1633 2951,1633 2953,1631 2954,1631 2955,1630 2956,1630 2957,1629 2958,1629 2959,1628 2960,1628 2961,1627 2962,1627 2963,1626 2968,1626 2969,1625 3003,1625 3004,1626 3032,1626 3033,1627 3044,1627 3045,1628 3058,1628 3059,1629 3077,1629 3078,1628 3086,1628 3087,1629 3127,1629 3128,1628 3148,1628 3149,1629 3183,1629 3184,1630 3192,1630 3193,1631 3203,1631 3204,1630 3209,1630 3210,1629 3337,1629 3338,1630 3359,1630 3360,1629 3393,1629 3394,1628 3398,1628 3399,1627 3400,1627 3401,1626 3402,1626 3403,1625 3403,1623 3404,1622 3404,1620 3405,1619 3405,1617 3406,1616 3406,1604 3405,1603 3405,1591 3406,1590 3406,1548 3405,1547 3405,1539 3406,1538 3406,1498 3405,1497 3405,1495 3406,1494 3406,1445 3407,1444 3407,1438 3408,1437 3408,1432 3407,1431 3407,1408 3408,1407 3408,1372 3407,1371 3407,1367 3406,1366 3406,1332 3405,1331 3405,1280 3404,1279 3404,1277 3403,1276 3403,1275 3402,1274 3402,1273 3400,1271 3399,1271 3398,1270 3396,1270 3395,1269 3393,1269 3392,1268 3387,1268 3386,1267 3308,1267 3307,1266 3294,1266 3293,1267 3270,1267 3269,1268 3230,1268 3229,1269 3205,1269 3204,1268 3199,1268 3198,1269 3177,1269 3176,1270 3168,1270 3167,1271 3161,1271 3160,1270 3013,1270 3012,1269 3010,1269 3009,1270 3001,1270 3000,1271 2991,1271 2990,1270 2982,1270 2981,1271 2971,1271 2970,1272 2963,1272 2962,1273 2925,1273 2924,1274 2910,1274 2909,1273 2880,1273 2879,1274 2877,1274 2876,1273 2833,1273 2832,1274 2811,1274 2810,1273 2745,1273 2744,1272 2742,1272 2741,1271 2740,1271 2739,1270 2738,1270 2736,1268 2735,1268 2734,1267 2731,1267 2730,1266 2724,1266 2723,1265 2714,1265 2713,1264" fill="rgba(50,107,54,0.3)" stroke="rgb(50,107,54)" stroke-width="2" data-block-id="0016" data-name="b-0019" /><text x="2986" y="1455" text-anchor="middle" dominant-baseline="middle" class="block-label" fill="rgb(50,107,54)" stroke="white" stroke-width="3" paint-order="stroke">b-0019</text><polygon points="817,313 816,314 802,314 797,319 797,320 796,321 796,322 795,323 795,324 794,325 794,329 793,330 793,340 792,341 792,347 791,348 791,354 792,355 792,359 793,360 793,366 792,367 792,372 791,373 791,383 792,384 792,387 791,388 791,404 792,405 792,408 793,409 793,412 792,413 792,414 791,415 791,418 790,419 790,429 791,430 791,440 790,441 790,451 791,452 791,486 790,487 790,504 789,505 789,507 790,508 790,575 789,576 789,593 788,594 788,611 789,612 789,622 790,623 790,629 789,630 789,658 788,659 789,660 789,662 790,663 790,664 791,665 792,665 793,666 794,666 795,667 801,667 802,668 816,668 817,669 928,669 929,670 983,670 984,671 1059,671 1060,670 1069,670 1070,671 1077,671 1078,672 1200,672 1201,673 1230,673 1231,674 1248,674 1249,675 1262,675 1263,674 1267,674 1268,673 1274,673 1275,674 1288,674 1289,673 1300,673 1301,672 1305,672 1306,673 1308,673 1309,674 1312,674 1313,675 1322,675 1323,676 1332,676 1333,675 1481,675 1482,674 1495,674 1496,675 1545,675 1546,674 1549,674 1550,673 1551,673 1553,671 1553,670 1554,669 1554,667 1555,666 1555,525 1556,524 1556,480 1557,479 1557,449 1558,448 1558,404 1559,403 1559,391 1560,390 1560,385 1559,384 1559,326 1558,325 1558,324 1555,321 1549,321 1548,320 1534,320 1533,321 1437,321 1436,320 1404,320 1403,319 1396,319 1395,320 1384,320 1383,319 1354,319 1353,320 1323,320 1322,319 1251,319 1250,318 1245,318 1244,319 1208,319 1207,318 1191,318 1190,319 1180,319 1179,318 1125,318 1124,317 1101,317 1100,316 1082,316 1081,317 1069,317 1068,316 1060,316 1059,315 1047,315 1046,314 1040,314 1039,315 1024,315 1023,314 1015,314 1014,315 1005,315 1004,314 975,314 974,313 968,313 967,314 953,314 952,313 944,313 943,314 926,314 925,313 922,313 921,314 907,314 906,313 843,313 842,314 838,314 837,313" fill="rgba(243,63,248,0.3)" stroke="rgb(243,63,248)" stroke-width="2" data-block-id="0017" data-name="b-0020" /><text x="1082" y="467" text-anchor="middle" dominant-baseline="middle" class="block-label" fill="rgb(243,63,248)" stroke="white" stroke-width="3" paint-order="stroke">b-0020</text><polygon points="3615,2683 3614,2684 3554,2684 3553,2685 3548,2685 3547,2686 3546,2686 3545,2687 3544,2687 3544,2688 3543,2689 3543,2692 3542,2693 3542,2705 3543,2706 3543,2716 3544,2717 3544,2722 3543,2723 3543,2727 3542,2728 3542,2740 3543,2741 3543,2751 3544,2752 3544,2770 3543,2771 3543,2794 3544,2795 3544,2806 3543,2807 3543,2825 3544,2826 3544,2850 3543,2851 3543,2858 3542,2859 3542,2870 3543,2871 3543,2883 3542,2884 3542,2897 3541,2898 3541,2903 3540,2904 3540,2907 3539,2908 3539,2916 3540,2917 3540,2921 3541,2922 3541,2927 3540,2928 3540,2933 3539,2934 3539,2943 3538,2944 3538,2969 3539,2970 3539,2973 3538,2974 3538,2988 3539,2989 3539,2996 3540,2997 3539,2998 3539,3004 3538,3005 3538,3020 3539,3021 3539,3030 3542,3033 3544,3033 3545,3034 3546,3034 3547,3035 3549,3035 3550,3036 3552,3036 3553,3037 3558,3037 3559,3038 3561,3038 3562,3037 3602,3037 3603,3038 3628,3038 3629,3037 3647,3037 3648,3038 3662,3038 3663,3037 3685,3037 3686,3038 3693,3038 3694,3037 3699,3037 3700,3036 3705,3036 3706,3035 3711,3035 3712,3034 3716,3034 3717,3033 3720,3033 3721,3032 3726,3032 3728,3034 3729,3034 3730,3035 3731,3035 3732,3036 3733,3036 3734,3037 3737,3037 3738,3038 3750,3038 3751,3037 3757,3037 3758,3036 3767,3036 3768,3037 3813,3037 3814,3036 3829,3036 3830,3037 3888,3037 3889,3038 3910,3038 3911,3037 3927,3037 3928,3038 3936,3038 3937,3039 3981,3039 3982,3040 4004,3040 4005,3039 4028,3039 4029,3040 4038,3040 4039,3041 4043,3041 4044,3042 4061,3042 4062,3041 4071,3041 4072,3040 4075,3040 4076,3039 4077,3039 4078,3038 4079,3038 4085,3032 4090,3032 4091,3033 4094,3033 4098,3037 4099,3037 4100,3038 4101,3038 4102,3039 4103,3039 4104,3040 4166,3040 4167,3039 4169,3039 4170,3040 4184,3040 4185,3039 4195,3039 4196,3040 4204,3040 4205,3039 4281,3039 4282,3038 4302,3038 4303,3037 4305,3037 4306,3036 4307,3036 4309,3034 4309,3033 4310,3032 4310,3002 4309,3001 4309,2991 4310,2990 4310,2880 4309,2879 4309,2875 4310,2874 4310,2829 4309,2828 4309,2826 4310,2825 4310,2814 4309,2813 4309,2797 4310,2796 4310,2791 4309,2790 4309,2759 4310,2758 4310,2696 4309,2695 4309,2693 4308,2692 4308,2691 4307,2690 4307,2689 4306,2689 4304,2687 4303,2687 4302,2686 4299,2686 4298,2685 4291,2685 4290,2684 4272,2684 4271,2685 4209,2685 4208,2684 4186,2684 4185,2685 4152,2685 4151,2684 4107,2684 4106,2685 4103,2685 4102,2686 4101,2686 4100,2687 4098,2687 4098,2688 4097,2689 4097,2691 4096,2692 4096,2693 4095,2694 4095,2695 4094,2696 4094,2697 4093,2698 4091,2698 4090,2699 4088,2699 4087,2700 4085,2700 4083,2698 4083,2697 4081,2695 4081,2694 4080,2693 4080,2692 4079,2691 4079,2690 4076,2687 4074,2687 4073,2686 4071,2686 4070,2685 4066,2685 4065,2684 4057,2684 4056,2683 3952,2683 3951,2684 3791,2684 3790,2685 3764,2685 3763,2684 3698,2684 3697,2683 3646,2683 3645,2684 3627,2684 3626,2683" fill="rgba(130,228,50,0.3)" stroke="rgb(130,228,50)" stroke-width="2" data-block-id="0018" data-name="b-0021" /><text x="3887" y="2880" text-anchor="middle" dominant-baseline="middle" class="block-label" fill="rgb(130,228,50)" stroke="white" stroke-width="3" paint-order="stroke">b-0021</text><polygon points="3556,1738 3555,1739 3551,1739 3550,1740 3548,1740 3545,1743 3545,1744 3544,1745 3544,1753 3543,1754 3543,1763 3544,1764 3544,1780 3543,1781 3543,1800 3544,1801 3544,1811 3543,1812 3543,1869 3542,1870 3542,1923 3541,1924 3541,1934 3542,1935 3541,1936 3541,1950 3542,1951 3542,1978 3541,1979 3541,2013 3542,2014 3542,2057 3541,2058 3541,2065 3540,2066 3540,2071 3541,2072 3541,2087 3542,2088 3542,2092 3543,2093 3543,2094 3544,2095 3545,2095 3546,2096 3547,2096 3548,2097 3558,2097 3559,2098 3567,2098 3568,2099 3681,2099 3682,2100 3713,2100 3714,2099 3719,2099 3720,2098 3725,2098 3726,2097 3742,2097 3743,2096 3770,2096 3771,2097 3778,2097 3779,2096 3794,2096 3795,2095 3802,2095 3803,2096 3842,2096 3843,2095 3844,2096 3940,2096 3941,2095 3946,2095 3947,2094 3951,2094 3952,2093 3956,2093 3957,2092 3960,2092 3961,2091 3984,2091 3985,2090 4006,2090 4007,2091 4016,2091 4017,2090 4026,2090 4027,2091 4029,2091 4030,2092 4032,2092 4033,2093 4043,2093 4044,2092 4049,2092 4050,2093 4054,2093 4055,2094 4061,2094 4062,2095 4087,2095 4088,2096 4095,2096 4096,2097 4126,2097 4127,2098 4137,2098 4138,2097 4145,2097 4146,2098 4174,2098 4175,2099 4190,2099 4191,2100 4197,2100 4198,2101 4208,2101 4209,2100 4222,2100 4223,2099 4244,2099 4245,2100 4260,2100 4261,2099 4272,2099 4273,2098 4299,2098 4300,2097 4302,2097 4303,2096 4304,2096 4308,2092 4308,2076 4309,2075 4309,2060 4308,2059 4308,2052 4309,2051 4309,2019 4308,2018 4308,2005 4309,2004 4309,2000 4310,1999 4310,1968 4309,1967 4309,1952 4310,1951 4310,1944 4309,1943 4309,1930 4310,1929 4310,1911 4311,1910 4311,1896 4310,1895 4310,1881 4311,1880 4311,1799 4310,1798 4310,1786 4311,1785 4311,1776 4310,1775 4310,1757 4309,1756 4309,1754 4308,1753 4308,1751 4306,1749 4306,1748 4305,1747 4304,1747 4303,1746 4301,1746 4300,1745 4296,1745 4295,1744 4286,1744 4285,1743 4236,1743 4235,1742 4191,1742 4190,1743 4183,1743 4182,1742 4177,1742 4176,1743 4151,1743 4150,1742 4129,1742 4128,1743 4122,1743 4121,1744 4117,1744 4116,1745 4113,1745 4112,1746 4093,1746 4092,1745 4089,1745 4088,1744 4070,1744 4069,1745 4066,1745 4065,1746 4063,1746 4062,1747 4046,1747 4045,1746 4042,1746 4041,1745 4038,1745 4037,1744 4027,1744 4026,1743 3990,1743 3989,1744 3966,1744 3965,1743 3937,1743 3936,1744 3909,1744 3908,1745 3896,1745 3895,1744 3891,1744 3890,1745 3847,1745 3846,1744 3845,1745 3837,1745 3836,1746 3827,1746 3826,1745 3812,1745 3811,1744 3798,1744 3797,1745 3780,1745 3779,1744 3759,1744 3758,1743 3738,1743 3737,1742 3688,1742 3687,1741 3684,1741 3683,1740 3675,1740 3674,1739 3645,1739 3644,1740 3629,1740 3628,1739 3627,1740 3611,1740 3610,1739 3574,1739 3573,1738" fill="rgba(134,20,72,0.3)" stroke="rgb(134,20,72)" stroke-width="2" data-block-id="0019" data-name="b-0022" /><text x="3952" y="1916" text-anchor="middle" dominant-baseline="middle" class="block-label" fill="rgb(134,20,72)" stroke="white" stroke-width="3" paint-order="stroke">b-0022</text><polygon points="1364,2674 1363,2675 1359,2675 1358,2676 1353,2676 1352,2677 1351,2677 1350,2676 1339,2676 1338,2677 1320,2677 1319,2678 1318,2678 1317,2677 1201,2677 1200,2676 1199,2676 1198,2677 1159,2677 1158,2676 1144,2676 1143,2677 1071,2677 1070,2678 1065,2678 1064,2677 1059,2677 1058,2676 1041,2676 1040,2677 1024,2677 1023,2676 1000,2676 999,2677 965,2677 964,2676 958,2676 957,2677 917,2677 916,2676 902,2676 901,2677 900,2676 775,2676 774,2677 771,2677 767,2681 767,2682 766,2683 766,2701 765,2702 765,2753 764,2754 764,2797 763,2798 763,2838 762,2839 762,2880 761,2881 761,2929 760,2930 760,2975 759,2976 759,3000 758,3001 758,3016 759,3017 759,3021 760,3022 760,3023 762,3025 763,3025 764,3026 766,3026 767,3027 788,3027 789,3026 811,3026 812,3027 831,3027 832,3026 860,3026 861,3027 868,3027 869,3026 932,3026 933,3025 1049,3025 1050,3026 1055,3026 1056,3027 1058,3027 1059,3026 1070,3026 1071,3027 1102,3027 1103,3026 1148,3026 1149,3027 1150,3026 1158,3026 1159,3025 1165,3025 1166,3026 1168,3026 1169,3027 1172,3027 1173,3028 1180,3028 1181,3027 1236,3027 1237,3026 1281,3026 1282,3027 1310,3027 1311,3028 1314,3028 1315,3029 1317,3029 1318,3030 1332,3030 1333,3029 1346,3029 1347,3028 1363,3028 1364,3027 1367,3027 1368,3026 1370,3026 1371,3025 1372,3025 1373,3024 1374,3024 1375,3023 1379,3023 1380,3024 1382,3024 1383,3025 1385,3025 1386,3026 1396,3026 1397,3025 1462,3025 1463,3024 1472,3024 1473,3025 1478,3025 1479,3026 1483,3026 1484,3027 1488,3027 1489,3026 1505,3026 1506,3025 1518,3025 1519,3024 1524,3024 1525,3023 1527,3023 1528,3022 1531,3022 1532,3021 1533,3021 1536,3018 1536,3017 1537,3016 1537,3014 1538,3013 1538,3011 1539,3010 1539,3001 1538,3000 1538,2992 1539,2991 1539,2988 1540,2987 1540,2955 1539,2954 1539,2917 1540,2916 1540,2907 1539,2906 1539,2893 1540,2892 1540,2885 1539,2884 1539,2862 1538,2861 1538,2849 1539,2848 1539,2843 1540,2842 1540,2804 1539,2803 1539,2774 1538,2773 1538,2722 1539,2721 1539,2686 1538,2685 1538,2684 1534,2680 1533,2680 1532,2679 1531,2679 1530,2678 1525,2678 1524,2677 1476,2677 1475,2678 1466,2678 1465,2677 1457,2677 1456,2678 1413,2678 1412,2677 1397,2677 1396,2676 1392,2676 1391,2675 1387,2675 1386,2676 1382,2676 1381,2677 1373,2677 1372,2676 1370,2676 1369,2675 1366,2675 1365,2674" fill="rgba(166,17,131,0.3)" stroke="rgb(166,17,131)" stroke-width="2" data-block-id="0020" data-name="b-0023" /><text x="1235" y="2873" text-anchor="middle" dominant-baseline="middle" class="block-label" fill="rgb(166,17,131)" stroke="white" stroke-width="3" paint-order="stroke">b-0023</text><polygon points="3561,799 3560,800 3554,800 3553,801 3551,801 3550,802 3549,802 3548,803 3548,804 3547,805 3547,837 3548,838 3548,930 3547,931 3547,954 3548,955 3548,975 3547,976 3547,1005 3548,1006 3548,1015 3547,1016 3547,1089 3546,1090 3546,1100 3545,1101 3545,1106 3546,1107 3546,1120 3545,1121 3545,1148 3546,1149 3546,1150 3547,1151 3547,1152 3548,1152 3549,1153 3551,1153 3552,1154 3559,1154 3560,1155 3572,1155 3573,1154 3610,1154 3611,1155 3621,1155 3622,1154 3638,1154 3639,1155 3691,1155 3692,1156 3716,1156 3717,1157 3754,1157 3755,1156 3770,1156 3771,1157 3818,1157 3819,1158 3823,1158 3824,1157 3839,1157 3840,1158 3869,1158 3870,1159 3874,1159 3875,1158 3895,1158 3896,1157 3915,1157 3916,1158 3942,1158 3943,1157 3964,1157 3965,1158 3981,1158 3982,1157 3996,1157 3997,1158 4013,1158 4014,1159 4031,1159 4032,1158 4054,1158 4055,1159 4063,1159 4064,1158 4101,1158 4102,1159 4111,1159 4112,1158 4140,1158 4141,1157 4160,1157 4161,1158 4172,1158 4173,1159 4192,1159 4193,1160 4199,1160 4200,1161 4211,1161 4212,1160 4219,1160 4220,1161 4232,1161 4233,1160 4244,1160 4245,1161 4253,1161 4254,1160 4267,1160 4268,1161 4279,1161 4280,1160 4301,1160 4302,1159 4304,1159 4305,1158 4306,1158 4307,1157 4307,1156 4308,1155 4308,1154 4309,1153 4309,1143 4310,1142 4310,1129 4309,1128 4309,1126 4310,1125 4310,1058 4309,1057 4309,1056 4310,1055 4310,1046 4311,1045 4311,1006 4310,1005 4310,989 4311,988 4311,977 4312,976 4312,952 4311,951 4311,899 4310,898 4310,893 4309,892 4309,864 4310,863 4310,825 4309,824 4309,816 4308,815 4308,814 4306,812 4305,812 4304,811 4303,811 4302,810 4298,810 4297,809 4286,809 4285,808 4259,808 4258,807 4231,807 4230,806 4161,806 4160,805 4128,805 4127,806 4122,806 4121,807 4044,807 4043,806 4024,806 4023,805 4004,805 4003,806 3981,806 3980,805 3965,805 3964,804 3954,804 3953,803 3930,803 3929,802 3893,802 3892,801 3884,801 3883,800 3874,800 3873,799 3867,799 3866,800 3862,800 3861,801 3857,801 3856,802 3822,802 3821,803 3741,803 3740,802 3697,802 3696,801 3670,801 3669,800 3663,800 3662,801 3623,801 3622,800 3574,800 3573,799" fill="rgba(88,59,13,0.3)" stroke="rgb(88,59,13)" stroke-width="2" data-block-id="0021" data-name="b-0024" /><text x="3958" y="1004" text-anchor="middle" dominant-baseline="middle" class="block-label" fill="rgb(88,59,13)" stroke="white" stroke-width="3" paint-order="stroke">b-0024</text><polygon points="2681,1735 2680,1736 2660,1736 2659,1737 2653,1737 2652,1738 2650,1738 2645,1743 2645,1745 2644,1746 2644,1751 2645,1752 2645,1793 2644,1794 2644,1802 2643,1803 2643,1829 2644,1830 2644,1837 2645,1838 2645,1846 2644,1847 2644,1862 2645,1863 2645,1920 2646,1921 2646,1928 2645,1929 2645,1957 2646,1958 2646,1985 2647,1986 2647,2001 2648,2002 2648,2081 2649,2082 2649,2084 2650,2085 2650,2087 2654,2091 2656,2091 2657,2092 2659,2092 2660,2093 2663,2093 2664,2094 2684,2094 2685,2095 2703,2095 2704,2096 2757,2096 2758,2095 2766,2095 2767,2094 2777,2094 2778,2095 2793,2095 2794,2094 2818,2094 2819,2095 2943,2095 2944,2094 2958,2094 2959,2093 3024,2093 3025,2092 3041,2092 3042,2093 3047,2093 3048,2092 3078,2092 3079,2093 3176,2093 3177,2094 3218,2094 3219,2095 3232,2095 3233,2096 3243,2096 3244,2095 3251,2095 3252,2096 3269,2096 3270,2097 3305,2097 3306,2096 3311,2096 3312,2097 3329,2097 3330,2098 3387,2098 3388,2097 3392,2097 3393,2096 3394,2096 3396,2094 3396,2093 3397,2092 3397,2088 3398,2087 3398,2082 3399,2081 3399,2060 3400,2059 3400,2053 3399,2052 3399,2032 3400,2031 3400,2017 3401,2016 3401,1944 3402,1943 3402,1903 3401,1902 3401,1897 3402,1896 3402,1829 3403,1828 3403,1772 3402,1771 3402,1744 3401,1743 3401,1742 3399,1740 3398,1740 3397,1739 3395,1739 3394,1738 3257,1738 3256,1739 3252,1739 3251,1740 3243,1740 3242,1739 3218,1739 3217,1740 3200,1740 3199,1739 3170,1739 3169,1740 3079,1740 3078,1739 3048,1739 3047,1738 3017,1738 3016,1737 2985,1737 2984,1738 2975,1738 2974,1739 2964,1739 2963,1738 2908,1738 2907,1737 2895,1737 2894,1736 2866,1736 2865,1737 2849,1737 2848,1736 2793,1736 2792,1735" fill="rgba(241,249,8,0.3)" stroke="rgb(241,249,8)" stroke-width="2" data-block-id="0022" data-name="b-0025" /><text x="3011" y="1930" text-anchor="middle" dominant-baseline="middle" class="block-label" fill="rgb(241,249,8)" stroke="white" stroke-width="3" paint-order="stroke">b-0025</text><polygon points="2648,2671 2647,2672 2645,2672 2644,2673 2643,2673 2640,2676 2640,2679 2639,2680 2639,2726 2640,2727 2640,2742 2639,2743 2639,2745 2640,2746 2640,2793 2641,2794 2640,2795 2640,2808 2639,2809 2639,2832 2640,2833 2640,2839 2639,2840 2639,2849 2638,2850 2638,2856 2639,2857 2639,2899 2638,2900 2638,2918 2639,2919 2639,3011 2640,3012 2640,3015 2641,3016 2641,3017 2642,3018 2643,3018 2645,3020 2647,3020 2648,3021 2651,3021 2652,3022 2656,3022 2657,3023 2663,3023 2664,3024 2669,3024 2670,3025 2677,3025 2678,3026 2682,3026 2683,3027 2688,3027 2689,3028 2697,3028 2698,3029 2706,3029 2707,3030 2718,3030 2719,3031 2728,3031 2729,3032 2739,3032 2740,3033 2798,3033 2799,3034 2817,3034 2818,3033 2836,3033 2837,3034 2861,3034 2862,3033 2870,3033 2871,3034 2884,3034 2885,3033 2921,3033 2922,3034 3035,3034 3036,3035 3050,3035 3051,3034 3087,3034 3088,3035 3098,3035 3099,3034 3135,3034 3136,3035 3162,3035 3163,3034 3167,3034 3168,3035 3208,3035 3209,3034 3214,3034 3215,3035 3267,3035 3268,3036 3278,3036 3279,3035 3289,3035 3290,3036 3301,3036 3302,3035 3312,3035 3313,3036 3342,3036 3343,3035 3362,3035 3363,3036 3394,3036 3395,3035 3398,3035 3399,3034 3400,3034 3401,3033 3401,3032 3402,3031 3402,3030 3403,3029 3403,3023 3404,3022 3404,3015 3403,3014 3403,2994 3404,2993 3404,2963 3405,2962 3405,2940 3404,2939 3404,2904 3403,2903 3403,2893 3404,2892 3404,2870 3403,2869 3403,2826 3404,2825 3404,2793 3403,2792 3403,2695 3402,2694 3402,2690 3401,2689 3401,2687 3400,2686 3400,2685 3399,2684 3398,2684 3397,2683 3394,2683 3393,2682 3380,2682 3379,2683 3362,2683 3361,2682 3266,2682 3265,2683 3257,2683 3256,2682 3252,2682 3251,2681 3244,2681 3243,2680 3232,2680 3231,2681 3222,2681 3221,2682 3212,2682 3211,2683 3180,2683 3179,2684 3156,2684 3155,2685 3148,2685 3147,2684 3137,2684 3136,2685 3077,2685 3076,2684 3073,2684 3072,2683 3066,2683 3065,2682 3041,2682 3040,2683 3021,2683 3020,2682 2963,2682 2962,2683 2947,2683 2946,2682 2917,2682 2916,2683 2915,2683 2914,2682 2907,2682 2906,2681 2864,2681 2863,2680 2794,2680 2793,2679 2751,2679 2750,2678 2721,2678 2720,2677 2709,2677 2708,2676 2698,2676 2697,2675 2687,2675 2686,2674 2675,2674 2674,2673 2668,2673 2667,2672 2659,2672 2658,2671" fill="rgba(89,52,129,0.3)" stroke="rgb(89,52,129)" stroke-width="2" data-block-id="0023" data-name="b-0026" /><text x="2998" y="2860" text-anchor="middle" dominant-baseline="middle" class="block-label" fill="rgb(89,52,129)" stroke="white" stroke-width="3" paint-order="stroke">b-0026</text><polygon points="2767,793 2766,794 2757,794 2756,795 2749,795 2748,796 2743,796 2742,797 2729,797 2728,796 2721,796 2720,797 2703,797 2702,796 2699,796 2698,797 2694,797 2693,798 2688,798 2687,799 2660,799 2659,800 2654,800 2653,801 2651,801 2648,804 2648,805 2647,806 2647,812 2646,813 2646,845 2645,846 2645,857 2646,858 2646,907 2647,908 2647,916 2646,917 2646,952 2647,953 2647,1026 2648,1027 2648,1040 2647,1041 2647,1094 2648,1095 2648,1106 2647,1107 2647,1143 2648,1144 2648,1149 2649,1150 2649,1151 2650,1152 2651,1152 2652,1153 2657,1153 2658,1154 2671,1154 2672,1153 2686,1153 2687,1154 2719,1154 2720,1153 2740,1153 2741,1154 2767,1154 2768,1153 2776,1153 2777,1152 2787,1152 2788,1151 2793,1151 2794,1150 2816,1150 2817,1151 2819,1151 2820,1150 2836,1150 2837,1149 2848,1149 2849,1150 2908,1150 2909,1151 2943,1151 2944,1150 2953,1150 2954,1151 2979,1151 2980,1152 3012,1152 3013,1151 3019,1151 3020,1150 3054,1150 3055,1151 3063,1151 3064,1150 3097,1150 3098,1151 3111,1151 3112,1150 3126,1150 3127,1151 3149,1151 3150,1152 3200,1152 3201,1153 3202,1153 3203,1152 3269,1152 3270,1153 3279,1153 3280,1152 3315,1152 3316,1153 3340,1153 3341,1152 3346,1152 3347,1153 3373,1153 3374,1152 3386,1152 3387,1151 3394,1151 3395,1150 3398,1150 3399,1149 3400,1149 3401,1148 3402,1148 3402,1147 3403,1146 3403,1145 3404,1144 3404,1143 3405,1142 3405,1141 3406,1140 3406,1094 3407,1093 3407,1066 3406,1065 3406,1053 3407,1052 3407,1042 3408,1041 3407,1040 3407,1008 3408,1007 3408,1004 3407,1003 3407,904 3408,903 3408,894 3407,893 3407,842 3406,841 3406,840 3407,839 3407,810 3406,809 3406,804 3404,802 3403,802 3402,801 3397,801 3396,800 3388,800 3387,799 3367,799 3366,798 3353,798 3352,797 3339,797 3338,798 3292,798 3291,799 3263,799 3262,800 3259,800 3258,799 3220,799 3219,798 3214,798 3213,797 3203,797 3202,796 3201,796 3200,797 3196,797 3195,798 3191,798 3190,799 3187,799 3186,798 3182,798 3181,797 3171,797 3170,798 3160,798 3159,797 3148,797 3147,798 3114,798 3113,797 3108,797 3107,796 3104,796 3103,797 3099,797 3098,798 3090,798 3089,799 3072,799 3071,798 3065,798 3064,797 3054,797 3053,798 3050,798 3049,799 3043,799 3042,798 3040,798 3039,797 3038,797 3037,796 3036,796 3035,795 3029,795 3028,796 3012,796 3011,795 3010,796 3006,796 3005,797 3002,797 3001,798 2959,798 2958,799 2925,799 2924,798 2920,798 2919,797 2912,797 2911,798 2908,798 2907,799 2905,799 2904,800 2900,800 2899,799 2895,799 2894,798 2886,798 2885,797 2863,797 2862,798 2847,798 2846,797 2841,797 2840,798 2827,798 2826,799 2816,799 2815,798 2811,798 2810,797 2805,797 2804,796 2802,796 2801,795 2799,795 2798,794 2797,794 2796,793 2791,793 2790,794 2775,794 2774,793" fill="rgba(83,91,110,0.3)" stroke="rgb(83,91,110)" stroke-width="2" data-block-id="0024" data-name="b-0027" /><text x="3015" y="936" text-anchor="middle" dominant-baseline="middle" class="block-label" fill="rgb(83,91,110)" stroke="white" stroke-width="3" paint-order="stroke">b-0027</text><polygon points="2792,325 2791,326 2785,326 2784,327 2780,327 2779,328 2765,328 2764,327 2739,327 2738,328 2709,328 2708,329 2699,329 2698,330 2689,330 2688,331 2679,331 2678,332 2671,332 2670,333 2663,333 2662,334 2660,334 2659,335 2657,335 2656,336 2655,336 2652,339 2652,340 2651,341 2651,343 2650,344 2650,348 2649,349 2649,380 2650,381 2650,395 2649,396 2649,402 2650,403 2650,443 2649,444 2649,448 2650,449 2650,466 2649,467 2649,500 2650,501 2650,511 2649,512 2649,519 2648,520 2649,521 2649,549 2650,550 2650,556 2649,557 2649,577 2650,578 2650,604 2649,605 2649,618 2650,619 2650,631 2649,632 2649,660 2648,661 2648,671 2649,672 2649,679 2650,680 2650,683 2652,685 2655,685 2656,686 2668,686 2669,685 2676,685 2677,684 2706,684 2707,685 2710,685 2711,684 2718,684 2719,683 2740,683 2741,682 2755,682 2756,683 2762,683 2763,682 2810,682 2811,681 2816,681 2817,680 2821,680 2822,681 2831,681 2832,682 2869,682 2870,683 2883,683 2884,682 2887,682 2888,681 2890,681 2891,680 2908,680 2909,679 2923,679 2924,680 2929,680 2930,679 2941,679 2942,680 2957,680 2958,679 2967,679 2968,680 2982,680 2983,681 3001,681 3002,682 3019,682 3020,683 3029,683 3030,682 3032,682 3033,683 3086,683 3087,684 3099,684 3100,683 3158,683 3159,684 3284,684 3285,685 3312,685 3313,684 3328,684 3329,683 3345,683 3346,684 3352,684 3353,685 3361,685 3362,684 3397,684 3398,683 3402,683 3404,681 3405,681 3405,680 3406,679 3406,677 3407,676 3407,673 3408,672 3408,652 3407,651 3407,643 3408,642 3408,622 3407,621 3407,611 3408,610 3408,579 3407,578 3407,540 3408,539 3408,498 3407,497 3407,449 3408,448 3408,413 3407,412 3407,408 3408,407 3408,381 3409,380 3409,338 3408,337 3408,335 3407,334 3407,333 3405,331 3404,331 3403,330 3401,330 3400,329 3366,329 3365,328 3337,328 3336,329 3331,329 3330,328 3269,328 3268,329 3260,329 3259,330 3257,330 3256,329 3232,329 3231,330 3190,330 3189,329 3150,329 3149,330 3142,330 3141,331 3137,331 3136,330 3099,330 3098,329 3072,329 3071,330 3067,330 3066,329 3052,329 3051,328 2953,328 2952,327 2930,327 2929,328 2926,328 2925,327 2903,327 2902,326 2869,326 2868,327 2866,327 2865,326 2823,326 2822,325" fill="rgba(187,198,171,0.3)" stroke="rgb(187,198,171)" stroke-width="2" data-block-id="0025" data-name="b-0028" /><text x="2976" y="511" text-anchor="middle" dominant-baseline="middle" class="block-label" fill="rgb(187,198,171)" stroke="white" stroke-width="3" paint-order="stroke">b-0028</text></g>
</svg>