<?xml version='1.0' encoding='utf-8'?>
<svg xmlns="http://www.w3.org/2000/svg" xmlns:atlas="http://example.com/atlas" width="4984" height="3304" viewBox="0 0 4984 3304">
  
  <metadata>
    <atlas:source>
      <atlas:jp2-path>/Users/pwright/workspace/atlas/media/v2/p6.jp2</atlas:jp2-path>
      <atlas:volume>unknown</atlas:volume>
      <atlas:plate-id>p6</atlas:plate-id>
      <atlas:image-width>4984</atlas:image-width>
      <atlas:image-height>3304</atlas:image-height>
    <atlas:angle>0</atlas:angle><atlas:scale>1.3333333333333333</atlas:scale><atlas:pos-x>930.5797431660638</atlas:pos-x><atlas:pos-y>2977.9973599103446</atlas:pos-y></atlas:source>
  </metadata>

  
  <image id="background" href="file:///Users/pwright/workspace/atlas/media/v2/p6.jp2" width="4984" height="3304" opacity="0.5" />

  <style>
    .block-label { font-family: sans-serif; font-size: 14px; font-weight: bold; }
  </style>

  
  <g id="blocks">
    <polygon points="4155,2117 4154,2118 4145,2118 4144,2119 4075,2119 4074,2120 4062,2120 4061,2121 4059,2121 4058,2120 4052,2120 4051,2119 4040,2119 4039,2120 4030,2120 4029,2119 3977,2119 3976,2120 3960,2120 3959,2119 3939,2119 3938,2120 3889,2120 3888,2121 3886,2121 3885,2122 3883,2122 3882,2123 3880,2123 3879,2124 3878,2123 3876,2123 3875,2122 3873,2122 3872,2121 3868,2121 3867,2120 3827,2120 3826,2121 3818,2121 3817,2120 3803,2120 3802,2121 3689,2121 3688,2122 3584,2122 3583,2121 3548,2121 3547,2122 3496,2122 3495,2123 3481,2123 3480,2122 3451,2122 3450,2123 3448,2123 3447,2122 3408,2122 3407,2123 3325,2123 3324,2122 3317,2122 3316,2123 3276,2123 3275,2122 3272,2122 3271,2123 3263,2123 3262,2124 3227,2124 3226,2123 3223,2123 3222,2124 3167,2124 3166,2125 3158,2125 3157,2124 3146,2124 3145,2125 3132,2125 3131,2124 3129,2124 3128,2125 3122,2125 3121,2126 3117,2126 3116,2127 3115,2127 3113,2129 3112,2129 3112,2130 3110,2132 3110,2134 3109,2135 3109,2285 3110,2286 3110,2309 3111,2310 3111,2314 3110,2315 3110,2318 3109,2319 3109,2431 3110,2432 3110,2447 3109,2448 3109,2491 3110,2492 3110,2493 3113,2496 3114,2496 3115,2497 3117,2497 3118,2498 3125,2498 3126,2499 3157,2499 3158,2498 3167,2498 3168,2499 3194,2499 3195,2498 3277,2498 3278,2497 3316,2497 3317,2498 3322,2498 3323,2497 3397,2497 3398,2496 3408,2496 3409,2497 3423,2497 3424,2496 3536,2496 3537,2495 3728,2495 3729,2496 3740,2496 3741,2495 3768,2495 3769,2496 3788,2496 3789,2495 3809,2495 3810,2496 3861,2496 3862,2495 3870,2495 3871,2494 3876,2494 3877,2493 3883,2493 3884,2494 3889,2494 3890,2495 3898,2495 3899,2494 3908,2494 3909,2495 3919,2495 3920,2494 3946,2494 3947,2493 3959,2493 3960,2494 3966,2494 3967,2493 4008,2493 4009,2494 4014,2494 4015,2493 4030,2493 4031,2494 4037,2494 4038,2493 4063,2493 4064,2494 4093,2494 4094,2493 4244,2493 4245,2494 4276,2494 4277,2493 4282,2493 4283,2492 4288,2492 4289,2493 4293,2493 4294,2494 4303,2494 4304,2493 4376,2493 4377,2492 4385,2492 4386,2493 4423,2493 4424,2492 4434,2492 4435,2493 4449,2493 4450,2492 4456,2492 4457,2493 4473,2493 4474,2492 4477,2492 4478,2493 4487,2493 4488,2494 4491,2494 4492,2493 4520,2493 4521,2492 4529,2492 4530,2493 4540,2493 4541,2492 4548,2492 4549,2491 4551,2491 4552,2490 4553,2490 4555,2488 4555,2487 4556,2486 4556,2485 4557,2484 4557,2482 4558,2481 4558,2478 4559,2477 4559,2475 4560,2474 4560,2472 4561,2471 4561,2460 4560,2459 4560,2449 4561,2448 4561,2441 4560,2440 4560,2424 4561,2423 4561,2416 4560,2415 4560,2405 4561,2404 4561,2397 4562,2396 4562,2393 4561,2392 4561,2350 4562,2349 4562,2345 4561,2344 4561,2333 4562,2332 4562,2293 4561,2292 4561,2286 4562,2285 4562,2280 4563,2279 4563,2274 4562,2273 4562,2267 4561,2266 4561,2263 4562,2262 4562,2253 4563,2252 4563,2251 4562,2250 4562,2163 4563,2162 4563,2142 4562,2141 4562,2133 4561,2132 4561,2130 4560,2129 4560,2127 4559,2126 4559,2124 4555,2120 4554,2120 4553,2119 4550,2119 4549,2118 4544,2118 4543,2119 4529,2119 4528,2118 4451,2118 4450,2119 4437,2119 4436,2118 4374,2118 4373,2117 4363,2117 4362,2118 4338,2118 4337,2119 4330,2119 4329,2118 4321,2118 4320,2117 4317,2117 4316,2118 4213,2118 4212,2119 4196,2119 4195,2118 4157,2118 4156,2117" fill="rgba(121,210,214,0.3)" stroke="rgb(121,210,214)" stroke-width="2" data-block-id="0001" data-name="b-0004" /><text x="3967" y="2310" text-anchor="middle" dominant-baseline="middle" class="block-label" fill="rgb(121,210,214)" stroke="white" stroke-width="3" paint-order="stroke">b-0004</text><polygon points="3852,2603 3851,2604 3849,2604 3848,2605 3846,2605 3845,2606 3835,2606 3834,2607 3833,2607 3832,2606 3816,2606 3815,2607 3793,2607 3792,2608 3746,2608 3745,2609 3697,2609 3696,2610 3668,2610 3667,2609 3650,2609 3649,2610 3624,2610 3623,2609 3596,2609 3595,2610 3573,2610 3572,2609 3568,2609 3567,2610 3560,2610 3559,2611 3555,2611 3554,2610 3526,2610 3525,2609 3497,2609 3496,2610 3489,2610 3488,2611 3482,2611 3481,2610 3467,2610 3466,2611 3441,2611 3440,2612 3423,2612 3422,2613 3420,2613 3419,2614 3417,2614 3416,2615 3414,2615 3413,2614 3411,2614 3410,2613 3408,2613 3407,2612 3403,2612 3402,2611 3399,2611 3398,2612 3372,2612 3371,2613 3350,2613 3349,2614 3335,2614 3334,2613 3325,2613 3324,2614 3311,2614 3310,2613 3306,2613 3305,2614 3278,2614 3277,2615 3267,2615 3266,2614 3251,2614 3250,2615 3209,2615 3208,2616 3192,2616 3191,2615 3183,2615 3182,2616 3142,2616 3141,2615 3138,2615 3137,2616 3126,2616 3125,2617 3122,2617 3121,2618 3118,2618 3117,2619 3116,2619 3113,2622 3113,2623 3112,2624 3112,2678 3111,2679 3111,2690 3112,2691 3112,2697 3111,2698 3111,2714 3112,2715 3112,2726 3111,2727 3111,2799 3110,2800 3110,2804 3111,2805 3111,2826 3110,2827 3110,2843 3111,2844 3111,2855 3112,2856 3112,2882 3111,2883 3111,2945 3112,2946 3112,2972 3113,2973 3113,2976 3114,2977 3114,2980 3115,2981 3115,2982 3118,2985 3119,2985 3120,2986 3121,2986 3122,2987 3123,2987 3124,2988 3126,2988 3127,2989 3131,2989 3132,2990 3135,2990 3136,2991 3144,2991 3145,2990 3149,2990 3150,2989 3154,2989 3155,2990 3161,2990 3162,2991 3167,2991 3168,2990 3226,2990 3227,2991 3249,2991 3250,2992 3264,2992 3265,2991 3269,2991 3270,2990 3274,2990 3275,2991 3279,2991 3280,2992 3298,2992 3299,2993 3303,2993 3304,2994 3309,2994 3310,2993 3312,2993 3313,2992 3315,2992 3316,2991 3336,2991 3337,2990 3351,2990 3352,2991 3364,2991 3365,2990 3366,2991 3375,2991 3376,2992 3383,2992 3384,2991 3395,2991 3396,2992 3405,2992 3406,2991 3408,2991 3409,2990 3411,2990 3412,2989 3431,2989 3432,2988 3444,2988 3445,2989 3454,2989 3455,2988 3482,2988 3483,2987 3492,2987 3493,2988 3511,2988 3512,2989 3519,2989 3520,2990 3530,2990 3531,2989 3545,2989 3546,2988 3549,2988 3550,2987 3551,2987 3552,2986 3554,2986 3555,2985 3557,2985 3558,2984 3561,2984 3562,2985 3590,2985 3591,2986 3623,2986 3624,2985 3649,2985 3650,2986 3663,2986 3664,2987 3677,2987 3678,2986 3684,2986 3685,2985 3691,2985 3692,2984 3698,2984 3699,2983 3706,2983 3707,2984 3716,2984 3717,2985 3720,2985 3721,2986 3738,2986 3739,2985 3741,2985 3742,2984 3745,2984 3746,2983 3755,2983 3756,2982 3771,2982 3772,2981 3782,2981 3783,2982 3804,2982 3805,2981 3809,2981 3810,2982 3833,2982 3834,2983 3847,2983 3848,2984 3862,2984 3863,2983 3885,2983 3886,2982 3935,2982 3936,2981 3984,2981 3985,2982 3986,2982 3987,2981 3996,2981 3997,2980 4021,2980 4022,2981 4077,2981 4078,2980 4086,2980 4087,2981 4100,2981 4101,2982 4116,2982 4117,2983 4141,2983 4142,2982 4148,2982 4149,2981 4154,2981 4155,2980 4156,2981 4162,2981 4163,2982 4200,2982 4201,2981 4204,2981 4205,2982 4234,2982 4235,2983 4252,2983 4253,2984 4264,2984 4265,2983 4270,2983 4271,2982 4284,2982 4285,2983 4294,2983 4295,2984 4308,2984 4309,2983 4314,2983 4315,2982 4318,2982 4319,2981 4323,2981 4324,2980 4330,2980 4331,2979 4336,2979 4337,2980 4388,2980 4389,2979 4411,2979 4412,2980 4437,2980 4438,2979 4456,2979 4457,2980 4507,2980 4508,2981 4525,2981 4526,2980 4534,2980 4535,2979 4547,2979 4548,2978 4549,2978 4552,2975 4552,2974 4553,2973 4553,2970 4554,2969 4554,2948 4555,2947 4555,2941 4554,2940 4554,2905 4555,2904 4555,2883 4554,2882 4554,2860 4555,2859 4555,2810 4556,2809 4556,2799 4555,2798 4555,2793 4554,2792 4554,2738 4553,2737 4553,2733 4552,2732 4552,2718 4553,2717 4553,2714 4554,2713 4554,2710 4555,2709 4555,2703 4554,2702 4554,2698 4553,2697 4553,2693 4554,2692 4554,2689 4555,2688 4555,2683 4556,2682 4556,2681 4555,2680 4555,2667 4556,2666 4556,2662 4557,2661 4557,2654 4556,2653 4556,2640 4555,2639 4555,2624 4554,2623 4554,2612 4551,2609 4550,2609 4549,2608 4543,2608 4542,2607 4518,2607 4517,2606 4509,2606 4508,2607 4491,2607 4490,2606 4484,2606 4483,2607 4472,2607 4471,2606 4461,2606 4460,2607 4446,2607 4445,2606 4436,2606 4435,2607 4409,2607 4408,2608 4402,2608 4401,2607 4395,2607 4394,2606 4391,2606 4390,2607 4352,2607 4351,2606 4342,2606 4341,2607 4338,2607 4337,2608 4328,2608 4327,2607 4324,2607 4323,2606 4305,2606 4304,2605 4300,2605 4299,2604 4296,2604 4295,2605 4292,2605 4291,2606 4289,2606 4288,2607 4283,2607 4282,2606 4279,2606 4278,2605 4276,2605 4275,2604 4272,2604 4271,2605 4269,2605 4268,2606 4265,2606 4264,2607 4259,2607 4258,2606 4254,2606 4253,2605 4247,2605 4246,2606 4244,2606 4243,2607 4241,2607 4240,2608 4237,2608 4236,2607 4234,2607 4233,2606 4230,2606 4229,2605 4223,2605 4222,2606 4217,2606 4216,2607 4208,2607 4207,2606 4197,2606 4196,2607 4109,2607 4108,2606 4105,2606 4104,2607 4063,2607 4062,2606 4053,2606 4052,2607 4040,2607 4039,2606 4028,2606 4027,2607 4022,2607 4021,2606 4007,2606 4006,2607 3999,2607 3998,2608 3991,2608 3990,2607 3989,2607 3988,2608 3978,2608 3977,2609 3973,2609 3972,2608 3965,2608 3964,2607 3960,2607 3959,2606 3955,2606 3954,2605 3939,2605 3938,2606 3933,2606 3932,2607 3870,2607 3869,2606 3865,2606 3864,2605 3862,2605 3861,2604 3859,2604 3858,2603" fill="rgba(74,202,87,0.3)" stroke="rgb(74,202,87)" stroke-width="2" data-block-id="0002" data-name="b-0005" /><text x="3847" y="2789" text-anchor="middle" dominant-baseline="middle" class="block-label" fill="rgb(74,202,87)" stroke="white" stroke-width="3" paint-order="stroke">b-0005</text><polygon points="3269,1227 3268,1228 3123,1228 3122,1229 3116,1229 3115,1230 3114,1230 3113,1231 3112,1231 3110,1233 3110,1234 3108,1236 3108,1241 3107,1242 3107,1301 3108,1302 3108,1306 3109,1307 3109,1312 3108,1313 3108,1332 3109,1333 3109,1348 3108,1349 3108,1354 3107,1355 3107,1361 3106,1362 3106,1436 3107,1437 3107,1444 3106,1445 3106,1468 3107,1469 3107,1480 3108,1481 3108,1486 3109,1487 3109,1491 3108,1492 3108,1517 3109,1518 3109,1521 3110,1522 3110,1530 3109,1531 3109,1555 3110,1556 3110,1559 3111,1560 3111,1561 3112,1562 3113,1562 3114,1563 3115,1563 3116,1564 3118,1564 3119,1565 3123,1565 3124,1566 3145,1566 3146,1567 3159,1567 3160,1566 3170,1566 3171,1567 3179,1567 3180,1566 3195,1566 3196,1567 3201,1567 3202,1566 3245,1566 3246,1567 3251,1567 3252,1566 3277,1566 3278,1565 3293,1565 3294,1566 3299,1566 3300,1565 3364,1565 3365,1566 3367,1566 3368,1565 3378,1565 3379,1564 3380,1564 3381,1565 3436,1565 3437,1566 3440,1566 3441,1565 3453,1565 3454,1566 3476,1566 3477,1567 3500,1567 3501,1566 3514,1566 3515,1567 3551,1567 3552,1566 3555,1566 3556,1565 3559,1565 3560,1566 3567,1566 3568,1567 3586,1567 3587,1566 3607,1566 3608,1567 3647,1567 3648,1566 3684,1566 3685,1565 3732,1565 3733,1564 3740,1564 3741,1565 3749,1565 3750,1566 3751,1565 3764,1565 3765,1566 3770,1566 3771,1567 3801,1567 3802,1566 3877,1566 3878,1565 3879,1566 3885,1566 3886,1567 3899,1567 3900,1566 3969,1566 3970,1565 3982,1565 3983,1566 4042,1566 4043,1567 4051,1567 4052,1566 4059,1566 4060,1567 4069,1567 4070,1568 4074,1568 4075,1567 4095,1567 4096,1566 4128,1566 4129,1565 4145,1565 4146,1566 4161,1566 4162,1567 4166,1567 4167,1566 4218,1566 4219,1567 4226,1567 4227,1568 4228,1567 4235,1567 4236,1566 4241,1566 4242,1567 4254,1567 4255,1566 4268,1566 4269,1567 4279,1567 4280,1566 4289,1566 4290,1567 4316,1567 4317,1568 4327,1568 4328,1569 4334,1569 4335,1570 4338,1570 4339,1571 4341,1571 4342,1572 4353,1572 4354,1571 4363,1571 4364,1570 4369,1570 4370,1569 4371,1569 4372,1568 4374,1568 4375,1567 4377,1567 4378,1566 4381,1566 4382,1565 4384,1565 4385,1566 4399,1566 4400,1565 4407,1565 4408,1566 4425,1566 4426,1565 4434,1565 4435,1566 4450,1566 4451,1565 4452,1565 4453,1566 4471,1566 4472,1565 4547,1565 4548,1564 4551,1564 4552,1563 4553,1563 4554,1562 4555,1562 4557,1560 4557,1559 4558,1558 4558,1522 4559,1521 4559,1470 4560,1469 4560,1464 4561,1463 4561,1456 4562,1455 4562,1451 4561,1450 4561,1440 4560,1439 4560,1403 4559,1402 4559,1393 4558,1392 4558,1391 4559,1390 4559,1349 4558,1348 4558,1329 4559,1328 4559,1274 4560,1273 4560,1257 4559,1256 4559,1251 4558,1250 4558,1239 4557,1238 4557,1237 4556,1236 4556,1235 4555,1235 4553,1233 4552,1233 4551,1232 4550,1232 4549,1231 4524,1231 4523,1230 4522,1230 4521,1231 4494,1231 4493,1230 4477,1230 4476,1229 4453,1229 4452,1228 4428,1228 4427,1229 4409,1229 4408,1230 4352,1230 4351,1231 4293,1231 4292,1232 4234,1232 4233,1233 4217,1233 4216,1234 4211,1234 4210,1233 4170,1233 4169,1234 4157,1234 4156,1233 4151,1233 4150,1234 4142,1234 4141,1233 4134,1233 4133,1232 4124,1232 4123,1233 4111,1233 4110,1232 4060,1232 4059,1231 4054,1231 4053,1230 4030,1230 4029,1231 4026,1231 4025,1232 4005,1232 4004,1233 3910,1233 3909,1232 3887,1232 3886,1231 3847,1231 3846,1230 3845,1230 3844,1231 3830,1231 3829,1230 3821,1230 3820,1229 3815,1229 3814,1230 3802,1230 3801,1229 3796,1229 3795,1230 3775,1230 3774,1229 3772,1229 3771,1230 3764,1230 3763,1231 3743,1231 3742,1232 3729,1232 3728,1233 3722,1233 3721,1232 3703,1232 3702,1233 3695,1233 3694,1232 3644,1232 3643,1233 3623,1233 3622,1232 3607,1232 3606,1233 3574,1233 3573,1232 3561,1232 3560,1233 3529,1233 3528,1232 3488,1232 3487,1233 3486,1232 3478,1232 3477,1231 3432,1231 3431,1230 3381,1230 3380,1231 3377,1231 3376,1230 3334,1230 3333,1229 3284,1229 3283,1228 3273,1228 3272,1227" fill="rgba(116,99,103,0.3)" stroke="rgb(116,99,103)" stroke-width="2" data-block-id="0003" data-name="b-0006" /><text x="3857" y="1420" text-anchor="middle" dominant-baseline="middle" class="block-label" fill="rgb(116,99,103)" stroke="white" stroke-width="3" paint-order="stroke">b-0006</text><polygon points="3494,770 3493,771 3491,771 3491,772 3489,774 3489,775 3487,777 3485,777 3484,778 3483,778 3482,777 3475,777 3473,779 3472,779 3471,780 3470,780 3469,781 3466,781 3465,782 3459,782 3458,781 3455,781 3454,780 3446,780 3445,781 3439,781 3438,782 3436,782 3435,781 3417,781 3416,782 3381,782 3380,781 3364,781 3363,780 3354,780 3353,781 3348,781 3347,782 3338,782 3337,781 3331,781 3330,780 3329,780 3328,781 3316,781 3315,780 3309,780 3308,779 3305,779 3304,780 3296,780 3295,781 3288,781 3287,782 3268,782 3267,781 3260,781 3259,780 3258,780 3257,781 3247,781 3246,782 3245,782 3244,781 3232,781 3231,782 3209,782 3208,783 3189,783 3188,782 3186,782 3185,783 3159,783 3158,784 3145,784 3144,783 3134,783 3133,784 3123,784 3122,785 3116,785 3115,786 3114,786 3113,787 3112,787 3109,790 3109,791 3108,792 3108,802 3107,803 3107,809 3108,810 3108,832 3107,833 3107,858 3108,859 3108,977 3109,978 3109,987 3108,988 3108,993 3107,994 3107,997 3108,998 3108,1004 3109,1005 3109,1083 3108,1084 3108,1088 3107,1089 3107,1092 3108,1093 3108,1095 3109,1096 3109,1097 3110,1098 3110,1100 3111,1101 3111,1102 3113,1104 3113,1105 3116,1108 3117,1108 3118,1109 3119,1109 3120,1110 3121,1110 3122,1111 3123,1111 3124,1112 3126,1112 3127,1113 3132,1113 3133,1114 3146,1114 3147,1113 3159,1113 3160,1114 3183,1114 3184,1115 3193,1115 3194,1114 3201,1114 3202,1115 3205,1115 3206,1116 3210,1116 3211,1117 3235,1117 3236,1116 3241,1116 3242,1115 3253,1115 3254,1116 3266,1116 3267,1115 3276,1115 3277,1114 3287,1114 3288,1115 3296,1115 3297,1116 3303,1116 3304,1117 3312,1117 3313,1116 3366,1116 3367,1115 3391,1115 3392,1116 3446,1116 3447,1117 3469,1117 3470,1118 3476,1118 3477,1117 3512,1117 3513,1118 3524,1118 3525,1117 3559,1117 3560,1116 3567,1116 3568,1115 3572,1115 3573,1116 3585,1116 3586,1117 3595,1117 3596,1116 3609,1116 3610,1117 3622,1117 3623,1116 3673,1116 3674,1115 3764,1115 3765,1116 3776,1116 3777,1115 3791,1115 3792,1116 3802,1116 3803,1115 3814,1115 3815,1116 3825,1116 3826,1115 3835,1115 3836,1116 3842,1116 3843,1117 3870,1117 3871,1116 3882,1116 3883,1117 3939,1117 3940,1118 3968,1118 3969,1117 4020,1117 4021,1116 4026,1116 4027,1117 4104,1117 4105,1118 4135,1118 4136,1117 4151,1117 4152,1116 4156,1116 4157,1117 4184,1117 4185,1116 4191,1116 4192,1117 4229,1117 4230,1116 4239,1116 4240,1117 4248,1117 4249,1118 4264,1118 4265,1117 4291,1117 4292,1118 4377,1118 4378,1117 4384,1117 4385,1118 4415,1118 4416,1119 4419,1119 4420,1118 4513,1118 4514,1119 4532,1119 4533,1118 4543,1118 4544,1119 4546,1119 4547,1118 4551,1118 4552,1117 4553,1117 4554,1116 4555,1116 4558,1113 4558,1110 4559,1109 4559,1105 4560,1104 4560,1047 4561,1046 4561,1043 4560,1042 4560,1036 4559,1035 4559,1028 4560,1027 4560,987 4559,986 4559,983 4560,982 4560,976 4561,975 4561,966 4560,965 4560,952 4561,951 4561,946 4560,945 4560,915 4559,914 4560,913 4560,905 4561,904 4561,890 4560,889 4560,869 4559,868 4559,862 4560,861 4560,828 4561,827 4561,812 4560,811 4560,807 4559,806 4559,794 4558,793 4558,791 4553,786 4552,786 4551,785 4550,785 4549,784 4538,784 4537,783 4534,783 4533,784 4504,784 4503,783 4495,783 4494,784 4489,784 4488,783 4473,783 4472,782 4442,782 4441,781 4434,781 4433,780 4428,780 4427,779 4426,780 4413,780 4412,781 4402,781 4401,782 4389,782 4388,783 4383,783 4382,784 4374,784 4373,783 4367,783 4366,784 4343,784 4342,785 4326,785 4325,784 4320,784 4319,783 4311,783 4310,782 4295,782 4294,783 4289,783 4288,784 4282,784 4281,783 4276,783 4275,782 4236,782 4235,781 4203,781 4202,782 4200,782 4199,781 4152,781 4151,782 4122,782 4121,783 4109,783 4108,782 4107,783 4091,783 4090,782 4077,782 4076,783 4062,783 4061,784 4055,784 4054,783 4040,783 4039,784 4021,784 4020,783 4014,783 4013,782 3981,782 3980,783 3971,783 3970,782 3955,782 3954,783 3926,783 3925,782 3921,782 3920,781 3911,781 3910,782 3876,782 3875,781 3840,781 3839,782 3824,782 3823,781 3819,781 3818,782 3810,782 3809,783 3792,783 3791,782 3763,782 3762,783 3759,783 3758,782 3746,782 3745,781 3739,781 3738,780 3731,780 3730,779 3724,779 3723,778 3722,779 3719,779 3718,780 3713,780 3712,781 3701,781 3700,782 3699,782 3698,781 3684,781 3683,782 3674,782 3673,781 3656,781 3655,782 3649,782 3648,781 3639,781 3638,782 3634,782 3633,783 3623,783 3622,782 3611,782 3610,783 3603,783 3602,782 3598,782 3597,781 3590,781 3589,782 3584,782 3583,783 3577,783 3576,782 3551,782 3550,781 3542,781 3541,782 3533,782 3532,783 3531,782 3519,782 3518,783 3514,783 3513,784 3508,784 3507,783 3506,783 3501,778 3501,776 3500,775 3500,771 3499,770" fill="rgba(151,130,149,0.3)" stroke="rgb(151,130,149)" stroke-width="2" data-block-id="0004" data-name="b-0007" /><text x="3778" y="912" text-anchor="middle" dominant-baseline="middle" class="block-label" fill="rgb(151,130,149)" stroke="white" stroke-width="3" paint-order="stroke">b-0007</text><polygon points="4204,1664 4203,1665 4202,1665 4201,1666 4200,1666 4197,1669 4196,1669 4194,1671 4193,1671 4192,1672 4190,1672 4189,1673 4186,1673 4185,1672 4168,1672 4167,1671 4133,1671 4132,1670 4129,1670 4128,1671 4122,1671 4121,1672 4113,1672 4112,1671 4107,1671 4106,1670 4104,1670 4103,1669 4101,1669 4100,1668 4097,1668 4096,1667 4084,1667 4083,1668 4081,1668 4080,1669 4078,1669 4077,1670 4075,1670 4074,1671 4049,1671 4048,1670 4011,1670 4010,1669 4007,1669 4006,1668 4000,1668 3999,1667 3996,1667 3995,1668 3986,1668 3985,1669 3982,1669 3981,1670 3977,1670 3976,1671 3969,1671 3968,1670 3938,1670 3937,1671 3929,1671 3928,1672 3920,1672 3919,1673 3861,1673 3860,1672 3836,1672 3835,1673 3830,1673 3829,1672 3808,1672 3807,1673 3793,1673 3792,1674 3770,1674 3769,1673 3763,1673 3762,1672 3745,1672 3744,1673 3739,1673 3738,1674 3688,1674 3687,1675 3677,1675 3676,1676 3675,1675 3650,1675 3649,1674 3642,1674 3641,1673 3639,1673 3638,1674 3620,1674 3619,1673 3600,1673 3599,1674 3548,1674 3547,1673 3533,1673 3532,1674 3520,1674 3519,1673 3489,1673 3488,1674 3459,1674 3458,1675 3448,1675 3447,1676 3418,1676 3417,1675 3410,1675 3409,1674 3386,1674 3385,1675 3374,1675 3373,1674 3360,1674 3359,1675 3354,1675 3353,1676 3348,1676 3347,1677 3317,1677 3316,1676 3312,1676 3311,1675 3281,1675 3280,1674 3252,1674 3251,1675 3211,1675 3210,1676 3205,1676 3204,1677 3192,1677 3191,1676 3160,1676 3159,1677 3124,1677 3123,1678 3118,1678 3117,1679 3116,1679 3112,1683 3112,1685 3111,1686 3111,1687 3110,1688 3110,1691 3109,1692 3109,1707 3110,1708 3110,1723 3109,1724 3109,1749 3108,1750 3108,1756 3109,1757 3109,1777 3108,1778 3108,1779 3107,1780 3107,1781 3106,1782 3106,1783 3105,1784 3105,1785 3104,1786 3104,1788 3103,1789 3103,1793 3102,1794 3102,1808 3103,1809 3103,1812 3102,1813 3102,1820 3101,1821 3101,1825 3102,1826 3102,1832 3103,1833 3103,1836 3104,1837 3104,1839 3105,1840 3105,1842 3106,1843 3106,1844 3107,1845 3107,1874 3108,1875 3108,1889 3107,1890 3107,1899 3108,1900 3108,1910 3109,1911 3109,1918 3110,1919 3110,1929 3109,1930 3109,1946 3110,1947 3110,1967 3109,1968 3109,1982 3108,1983 3108,1992 3110,1994 3110,1995 3112,1997 3112,1998 3114,2000 3114,2001 3116,2003 3117,2003 3118,2004 3119,2004 3120,2005 3123,2005 3124,2006 3129,2006 3130,2007 3146,2007 3147,2006 3154,2006 3155,2007 3159,2007 3160,2008 3167,2008 3168,2007 3171,2007 3172,2006 3181,2006 3182,2007 3197,2007 3198,2006 3200,2006 3201,2007 3205,2007 3206,2008 3207,2008 3208,2009 3210,2009 3211,2010 3214,2010 3215,2009 3221,2009 3222,2008 3235,2008 3236,2007 3241,2007 3242,2006 3252,2006 3253,2007 3263,2007 3264,2006 3269,2006 3270,2005 3273,2005 3274,2004 3276,2004 3277,2003 3278,2003 3279,2002 3280,2002 3281,2001 3286,2001 3287,2002 3288,2002 3289,2003 3290,2003 3291,2004 3292,2004 3293,2005 3296,2005 3297,2006 3300,2006 3301,2007 3302,2007 3305,2010 3305,2011 3306,2012 3309,2012 3310,2011 3310,2010 3312,2008 3312,2007 3318,2001 3319,2001 3320,2000 3326,2000 3327,1999 3333,1999 3334,2000 3346,2000 3347,1999 3356,1999 3357,2000 3358,2000 3360,2002 3361,2002 3362,2003 3363,2003 3364,2004 3370,2004 3371,2003 3372,2003 3373,2002 3375,2002 3376,2001 3377,2001 3378,2000 3380,2000 3381,2001 3382,2001 3383,2002 3385,2002 3386,2003 3388,2003 3389,2004 3397,2004 3398,2005 3403,2005 3404,2006 3406,2006 3407,2005 3417,2005 3418,2004 3420,2004 3421,2003 3422,2003 3423,2002 3424,2002 3425,2001 3428,2001 3429,2002 3430,2002 3431,2003 3433,2003 3434,2004 3438,2004 3439,2005 3449,2005 3450,2006 3456,2006 3457,2007 3465,2007 3466,2006 3471,2006 3472,2005 3479,2005 3480,2006 3488,2006 3489,2007 3493,2007 3494,2008 3502,2008 3503,2007 3506,2007 3507,2006 3524,2006 3525,2005 3528,2005 3529,2004 3535,2004 3536,2003 3546,2003 3547,2004 3550,2004 3551,2005 3554,2005 3555,2006 3565,2006 3566,2005 3581,2005 3582,2006 3589,2006 3590,2007 3594,2007 3595,2008 3598,2008 3599,2009 3605,2009 3606,2010 3607,2009 3615,2009 3616,2008 3620,2008 3621,2007 3624,2007 3625,2006 3637,2006 3638,2007 3642,2007 3643,2006 3648,2006 3649,2005 3658,2005 3659,2006 3681,2006 3682,2007 3694,2007 3695,2008 3706,2008 3707,2009 3716,2009 3717,2008 3730,2008 3731,2009 3740,2009 3741,2008 3743,2008 3744,2007 3746,2007 3747,2006 3750,2006 3751,2007 3755,2007 3756,2008 3790,2008 3791,2007 3799,2007 3800,2008 3811,2008 3812,2007 3818,2007 3819,2006 3822,2006 3823,2007 3831,2007 3832,2008 3841,2008 3842,2009 3865,2009 3866,2008 3872,2008 3873,2007 3877,2007 3878,2006 3881,2006 3882,2007 3887,2007 3888,2008 3914,2008 3915,2007 3922,2007 3923,2008 3931,2008 3932,2009 3939,2009 3940,2010 3955,2010 3956,2009 3959,2009 3960,2008 3987,2008 3988,2009 4003,2009 4004,2008 4092,2008 4093,2009 4094,2009 4095,2008 4151,2008 4152,2007 4157,2007 4158,2008 4217,2008 4218,2009 4223,2009 4224,2010 4227,2010 4228,2009 4232,2009 4233,2008 4235,2008 4236,2007 4265,2007 4266,2008 4278,2008 4279,2007 4284,2007 4285,2006 4342,2006 4343,2007 4352,2007 4353,2006 4372,2006 4373,2005 4382,2005 4383,2006 4386,2006 4387,2007 4390,2007 4391,2008 4395,2008 4396,2007 4398,2007 4399,2006 4401,2006 4402,2005 4403,2005 4404,2004 4409,2004 4410,2005 4414,2005 4415,2006 4420,2006 4421,2005 4431,2005 4432,2006 4435,2006 4436,2007 4447,2007 4448,2006 4462,2006 4463,2007 4466,2007 4467,2006 4485,2006 4486,2007 4490,2007 4491,2006 4517,2006 4518,2005 4527,2005 4528,2006 4534,2006 4535,2007 4537,2007 4538,2006 4544,2006 4545,2005 4551,2005 4552,2004 4555,2004 4556,2003 4557,2003 4559,2001 4559,1998 4560,1997 4560,1982 4559,1981 4559,1975 4560,1974 4560,1957 4559,1956 4559,1946 4560,1945 4560,1944 4559,1943 4559,1921 4560,1920 4560,1900 4559,1899 4559,1889 4558,1888 4558,1876 4559,1875 4559,1865 4558,1864 4558,1850 4559,1849 4559,1845 4558,1844 4558,1832 4559,1831 4559,1828 4560,1827 4560,1814 4559,1813 4559,1783 4560,1782 4560,1778 4561,1777 4561,1774 4560,1773 4560,1769 4559,1768 4559,1750 4558,1749 4558,1746 4557,1745 4557,1743 4556,1742 4556,1736 4557,1735 4557,1733 4558,1732 4558,1730 4559,1729 4559,1725 4558,1724 4558,1721 4557,1720 4557,1718 4556,1717 4556,1712 4557,1711 4557,1707 4558,1706 4558,1701 4557,1700 4557,1698 4556,1697 4556,1693 4555,1692 4555,1690 4554,1689 4554,1687 4553,1686 4553,1685 4552,1684 4552,1682 4548,1678 4547,1678 4546,1677 4545,1677 4544,1676 4543,1676 4542,1675 4541,1675 4540,1674 4538,1674 4537,1673 4534,1673 4533,1674 4530,1674 4529,1675 4524,1675 4523,1676 4521,1676 4520,1675 4505,1675 4504,1674 4493,1674 4492,1673 4487,1673 4486,1674 4481,1674 4480,1675 4460,1675 4459,1674 4450,1674 4449,1673 4438,1673 4437,1674 4432,1674 4431,1675 4394,1675 4393,1676 4390,1676 4389,1677 4387,1677 4386,1678 4385,1678 4384,1679 4383,1679 4382,1680 4381,1679 4379,1679 4372,1672 4372,1671 4370,1669 4370,1668 4368,1666 4368,1665 4366,1665 4365,1666 4364,1666 4363,1667 4360,1667 4359,1668 4341,1668 4340,1669 4335,1669 4334,1670 4265,1670 4264,1669 4247,1669 4246,1670 4232,1670 4231,1669 4225,1669 4224,1668 4222,1668 4221,1667 4219,1667 4218,1666 4217,1666 4216,1665 4213,1665 4212,1664" fill="rgba(52,1,87,0.3)" stroke="rgb(52,1,87)" stroke-width="2" data-block-id="0005" data-name="b-0008" /><text x="3824" y="1859" text-anchor="middle" dominant-baseline="middle" class="block-label" fill="rgb(52,1,87)" stroke="white" stroke-width="3" paint-order="stroke">b-0008</text><polygon points="3127,330 3126,331 3118,331 3117,332 3115,332 3114,333 3113,333 3111,335 3111,336 3110,337 3110,338 3109,339 3109,350 3108,351 3108,357 3107,358 3107,368 3106,369 3106,379 3107,380 3107,491 3106,492 3106,494 3107,495 3107,520 3108,521 3108,527 3109,528 3109,535 3108,536 3108,542 3107,543 3107,550 3106,551 3106,567 3107,568 3107,574 3108,575 3108,620 3109,621 3109,625 3110,626 3110,627 3109,628 3109,633 3108,634 3108,663 3114,669 3115,669 3116,670 3118,670 3119,671 3122,671 3123,672 3158,672 3159,671 3175,671 3176,672 3183,672 3184,673 3195,673 3196,672 3204,672 3205,671 3215,671 3216,670 3251,670 3252,671 3255,671 3256,672 3264,672 3265,673 3272,673 3273,672 3281,672 3282,671 3296,671 3297,670 3334,670 3335,671 3341,671 3342,672 3354,672 3355,671 3385,671 3386,672 3406,672 3407,671 3533,671 3534,672 3548,672 3549,671 3572,671 3573,672 3600,672 3601,671 3607,671 3608,672 3638,672 3639,673 3640,672 3650,672 3651,671 3664,671 3665,672 3668,672 3669,671 3709,671 3710,672 3730,672 3731,671 3753,671 3754,670 3763,670 3764,671 3827,671 3828,670 3836,670 3837,671 3859,671 3860,672 3877,672 3878,671 3890,671 3891,672 3898,672 3899,671 3936,671 3937,672 3955,672 3956,673 3968,673 3969,672 3974,672 3975,671 3978,671 3979,672 3995,672 3996,671 4001,671 4002,672 4055,672 4056,673 4094,673 4095,672 4144,672 4145,673 4158,673 4159,672 4164,672 4165,671 4169,671 4170,672 4184,672 4185,673 4211,673 4212,672 4217,672 4218,673 4269,673 4270,674 4275,674 4276,673 4283,673 4284,672 4339,672 4340,673 4369,673 4370,672 4378,672 4379,671 4383,671 4384,672 4401,672 4402,671 4407,671 4408,672 4425,672 4426,673 4444,673 4445,672 4458,672 4459,673 4519,673 4520,672 4529,672 4530,673 4538,673 4539,672 4548,672 4549,671 4551,671 4552,670 4553,670 4555,668 4556,668 4557,667 4557,666 4559,664 4559,663 4560,662 4560,641 4561,640 4561,636 4560,635 4560,581 4559,580 4559,550 4558,549 4558,534 4557,533 4557,520 4558,519 4558,504 4559,503 4559,488 4558,487 4558,481 4559,480 4559,475 4560,474 4560,463 4559,462 4559,452 4560,451 4560,391 4561,390 4561,362 4560,361 4560,353 4559,352 4559,349 4558,348 4558,346 4554,342 4553,342 4552,341 4547,341 4546,340 4532,340 4531,339 4519,339 4518,338 4505,338 4504,339 4486,339 4485,338 4466,338 4465,337 4463,337 4462,338 4444,338 4443,337 4410,337 4409,338 4400,338 4399,339 4376,339 4375,340 4373,340 4372,341 4369,341 4368,342 4366,342 4365,343 4359,343 4358,344 4337,344 4336,343 4329,343 4328,342 4313,342 4312,343 4295,343 4294,342 4258,342 4257,343 4245,343 4244,342 4232,342 4231,343 4220,343 4219,342 4210,342 4209,341 4127,341 4126,340 4116,340 4115,341 4095,341 4094,342 4086,342 4085,343 4076,343 4075,342 4062,342 4061,341 4059,341 4058,342 4055,342 4054,343 4050,343 4049,344 4039,344 4038,345 4033,345 4032,344 4027,344 4026,343 4006,343 4005,344 4001,344 4000,345 3977,345 3976,344 3955,344 3954,345 3951,345 3950,344 3945,344 3944,343 3877,343 3876,342 3874,342 3873,341 3871,341 3870,340 3842,340 3841,341 3835,341 3834,342 3812,342 3811,343 3769,343 3768,344 3736,344 3735,343 3688,343 3687,342 3673,342 3672,341 3668,341 3667,340 3644,340 3643,339 3642,339 3641,340 3632,340 3631,341 3628,341 3627,340 3622,340 3621,339 3599,339 3598,340 3590,340 3589,341 3573,341 3572,340 3556,340 3555,341 3506,341 3505,342 3482,342 3481,341 3470,341 3469,342 3463,342 3462,343 3455,343 3454,342 3448,342 3447,343 3391,343 3390,344 3389,344 3388,343 3356,343 3355,342 3346,342 3345,341 3329,341 3328,340 3311,340 3310,339 3307,339 3306,340 3299,340 3298,341 3294,341 3293,340 3291,340 3290,339 3288,339 3286,337 3284,337 3283,336 3279,336 3278,335 3270,335 3269,336 3268,336 3267,337 3266,337 3264,339 3262,339 3261,340 3259,340 3258,341 3200,341 3199,340 3195,340 3194,339 3179,339 3178,340 3168,340 3167,339 3161,339 3160,338 3157,338 3156,337 3154,337 3153,336 3152,336 3151,335 3150,335 3148,333 3147,333 3146,332 3145,332 3144,331 3142,331 3141,330" fill="rgba(235,157,37,0.3)" stroke="rgb(235,157,37)" stroke-width="2" data-block-id="0006" data-name="b-0009" /><text x="3799" y="483" text-anchor="middle" dominant-baseline="middle" class="block-label" fill="rgb(235,157,37)" stroke="white" stroke-width="3" paint-order="stroke">b-0009</text><polygon points="1783,298 1781,300 1780,300 1775,305 1775,307 1774,308 1774,314 1772,316 1771,316 1768,319 1768,320 1767,321 1767,323 1766,324 1766,328 1767,329 1767,331 1768,332 1768,333 1769,334 1769,337 1770,338 1770,351 1771,352 1771,356 1772,357 1772,360 1773,361 1773,368 1772,369 1772,371 1771,372 1771,378 1772,379 1772,381 1773,382 1773,384 1774,385 1774,389 1773,390 1773,391 1772,392 1772,393 1771,394 1771,402 1773,404 1775,404 1778,401 1778,394 1777,393 1777,391 1775,389 1775,386 1776,385 1779,385 1780,384 1783,384 1784,385 1784,386 1785,387 1785,388 1786,389 1786,391 1787,392 1787,397 1788,398 1788,413 1789,414 1789,417 1790,418 1790,419 1793,422 1794,422 1800,428 1800,429 1801,430 1801,432 1802,433 1802,434 1803,435 1803,437 1804,438 1804,439 1805,440 1805,441 1806,442 1806,443 1807,444 1807,445 1808,446 1808,447 1809,448 1809,449 1810,450 1810,452 1811,453 1811,454 1812,455 1812,456 1813,457 1813,460 1814,461 1814,464 1815,465 1815,469 1816,470 1816,474 1817,475 1817,478 1818,479 1818,483 1819,484 1819,486 1818,487 1818,497 1819,498 1819,501 1820,502 1820,504 1821,505 1821,507 1822,508 1822,513 1824,515 1826,515 1827,516 1830,516 1832,518 1832,519 1833,520 1833,521 1834,522 1834,524 1835,525 1835,527 1836,528 1836,530 1837,531 1837,538 1838,539 1838,545 1839,546 1839,547 1840,548 1842,548 1846,552 1846,553 1847,554 1847,557 1848,558 1848,562 1849,563 1849,565 1857,573 1857,574 1859,576 1859,578 1860,579 1860,581 1861,582 1861,585 1862,586 1862,590 1863,591 1863,594 1864,595 1864,597 1865,598 1865,601 1866,602 1866,612 1867,613 1867,615 1868,616 1868,617 1869,618 1869,619 1870,620 1870,621 1871,622 1871,623 1872,624 1872,626 1873,627 1873,632 1874,633 1874,636 1875,637 1875,638 1876,639 1876,640 1877,641 1877,642 1879,644 1879,646 1880,647 1880,649 1881,650 1881,651 1882,652 1882,654 1883,655 1883,658 1884,659 1884,660 1885,661 1885,662 1886,663 1887,663 1889,665 1891,665 1892,666 1900,666 1901,667 1911,667 1912,668 1934,668 1935,667 1959,667 1960,666 1980,666 1981,667 1998,667 1999,666 2006,666 2007,665 2052,665 2053,666 2109,666 2110,665 2118,665 2119,666 2123,666 2124,667 2128,667 2129,668 2137,668 2138,667 2144,667 2145,668 2177,668 2178,669 2181,669 2182,668 2271,668 2272,669 2289,669 2290,668 2330,668 2331,667 2336,667 2337,668 2353,668 2354,667 2358,667 2359,668 2434,668 2435,667 2456,667 2457,668 2487,668 2488,669 2497,669 2498,668 2499,668 2500,669 2513,669 2514,670 2515,670 2516,669 2526,669 2527,670 2545,670 2546,671 2568,671 2569,672 2585,672 2586,673 2595,673 2596,674 2610,674 2611,675 2626,675 2627,674 2672,674 2673,673 2678,673 2679,672 2699,672 2700,671 2721,671 2722,672 2729,672 2730,671 2753,671 2754,670 2780,670 2781,669 2785,669 2786,668 2789,668 2790,669 2795,669 2796,670 2803,670 2804,669 2843,669 2844,670 2853,670 2854,669 2861,669 2862,670 2918,670 2919,669 2921,669 2922,668 2923,668 2924,667 2925,667 2929,663 2929,662 2930,661 2930,657 2931,656 2931,626 2930,625 2930,618 2929,617 2929,607 2930,606 2930,583 2931,582 2931,552 2930,551 2930,528 2929,527 2929,498 2930,497 2930,462 2929,461 2929,455 2930,454 2930,438 2929,437 2929,433 2930,432 2930,406 2931,405 2931,390 2930,389 2930,384 2931,383 2931,359 2932,358 2932,348 2931,347 2931,340 2930,339 2930,337 2929,336 2929,335 2928,334 2928,333 2925,330 2924,330 2923,329 2922,329 2921,328 2920,328 2919,327 2914,327 2913,326 2863,326 2862,327 2839,327 2838,328 2827,328 2826,327 2820,327 2819,326 2816,326 2815,325 2811,325 2810,324 2785,324 2784,325 2766,325 2765,324 2746,324 2745,323 2741,323 2740,322 2737,322 2736,323 2733,323 2732,324 2730,324 2729,325 2726,325 2725,326 2723,326 2722,327 2679,327 2678,328 2672,328 2671,329 2661,329 2660,328 2640,328 2639,329 2633,329 2632,330 2630,330 2629,331 2628,331 2627,332 2625,332 2624,333 2621,333 2620,334 2617,334 2616,335 2614,335 2613,336 2611,336 2610,337 2608,337 2607,336 2605,336 2604,335 2602,335 2601,334 2598,334 2597,333 2590,333 2589,332 2581,332 2580,331 2560,331 2559,330 2552,330 2551,329 2541,329 2540,328 2535,328 2534,329 2514,329 2513,328 2501,328 2500,327 2427,327 2426,328 2418,328 2417,327 2359,327 2358,326 2352,326 2351,327 2271,327 2270,326 2258,326 2257,325 2243,325 2242,324 2229,324 2228,325 2224,325 2223,324 2214,324 2213,323 2202,323 2201,322 2188,322 2187,323 2147,323 2146,324 2122,324 2121,325 2102,325 2101,324 2097,324 2096,323 2090,323 2089,324 2077,324 2076,323 2038,323 2037,324 2036,324 2035,323 2023,323 2022,322 1981,322 1980,321 1969,321 1968,320 1954,320 1953,321 1940,321 1939,320 1935,320 1934,319 1931,319 1930,318 1919,318 1918,319 1845,319 1844,318 1828,318 1827,317 1820,317 1819,316 1814,316 1813,315 1811,315 1810,314 1809,314 1808,313 1805,313 1804,314 1801,314 1800,315 1796,315 1795,314 1794,314 1791,311 1791,310 1790,309 1790,308 1789,307 1789,306 1788,305 1788,303 1787,302 1787,301 1786,300 1786,299 1785,299 1784,298" fill="rgba(20,160,203,0.3)" stroke="rgb(20,160,203)" stroke-width="2" data-block-id="0007" data-name="b-0011" /><text x="2208" y="468" text-anchor="middle" dominant-baseline="middle" class="block-label" fill="rgb(20,160,203)" stroke="white" stroke-width="3" paint-order="stroke">b-0011</text><polygon points="1982,772 1981,773 1977,773 1976,774 1974,774 1973,775 1972,775 1971,776 1970,776 1965,781 1965,784 1964,785 1964,799 1963,800 1963,813 1964,814 1964,817 1963,818 1963,822 1962,823 1962,825 1961,826 1961,831 1963,833 1963,835 1964,836 1964,838 1965,839 1965,847 1964,848 1964,852 1965,853 1965,855 1966,856 1966,858 1967,859 1967,862 1968,863 1968,869 1969,870 1969,877 1970,878 1970,881 1971,882 1971,884 1972,885 1972,887 1974,889 1974,890 1975,891 1975,893 1976,894 1976,897 1977,898 1977,901 1978,902 1978,904 1979,905 1979,908 1980,909 1980,911 1981,912 1981,915 1982,916 1982,918 1983,919 1983,921 1984,922 1984,923 1985,924 1985,926 1986,927 1986,928 1987,929 1987,931 1988,932 1988,934 1989,935 1989,937 1990,938 1990,939 1991,940 1991,942 1992,943 1992,945 1993,946 1993,947 1994,948 1994,949 1996,951 1996,952 1998,954 1998,955 1999,956 1999,957 2000,958 2000,960 2001,961 2001,963 2002,964 2002,967 2003,968 2003,970 2004,971 2004,974 2005,975 2005,977 2006,978 2006,980 2007,981 2007,982 2008,983 2008,985 2009,986 2009,989 2010,990 2010,992 2011,993 2011,995 2012,996 2012,997 2014,999 2014,1000 2015,1001 2015,1002 2016,1003 2016,1004 2017,1005 2017,1006 2018,1007 2018,1008 2019,1009 2019,1010 2020,1011 2020,1013 2021,1014 2021,1015 2022,1016 2022,1019 2023,1020 2023,1022 2024,1023 2024,1025 2025,1026 2025,1028 2026,1029 2026,1031 2027,1032 2027,1034 2028,1035 2028,1037 2029,1038 2029,1040 2030,1041 2030,1043 2031,1044 2031,1045 2032,1046 2032,1047 2033,1048 2033,1049 2034,1050 2034,1051 2035,1052 2035,1054 2036,1055 2036,1056 2037,1057 2037,1059 2038,1060 2038,1062 2039,1063 2039,1064 2040,1065 2040,1067 2041,1068 2041,1070 2042,1071 2042,1072 2043,1073 2043,1075 2044,1076 2044,1078 2045,1079 2045,1080 2046,1081 2046,1083 2047,1084 2047,1086 2048,1087 2048,1090 2049,1091 2049,1092 2050,1093 2050,1094 2051,1095 2051,1096 2052,1097 2052,1098 2056,1102 2059,1102 2060,1103 2062,1103 2063,1104 2069,1104 2070,1105 2087,1105 2088,1106 2091,1106 2092,1105 2108,1105 2109,1106 2119,1106 2120,1105 2130,1105 2131,1106 2144,1106 2145,1105 2153,1105 2154,1106 2205,1106 2206,1107 2271,1107 2272,1108 2309,1108 2310,1109 2349,1109 2350,1110 2369,1110 2370,1111 2380,1111 2381,1110 2395,1110 2396,1111 2447,1111 2448,1112 2451,1112 2452,1111 2462,1111 2463,1112 2493,1112 2494,1113 2500,1113 2501,1112 2510,1112 2511,1113 2529,1113 2530,1112 2532,1112 2533,1113 2558,1113 2559,1114 2567,1114 2568,1115 2583,1115 2584,1116 2608,1116 2609,1117 2618,1117 2619,1116 2665,1116 2666,1115 2678,1115 2679,1114 2691,1114 2692,1113 2791,1113 2792,1114 2833,1114 2834,1113 2848,1113 2849,1112 2884,1112 2885,1113 2895,1113 2896,1112 2907,1112 2908,1113 2913,1113 2914,1112 2917,1112 2918,1111 2920,1111 2922,1109 2923,1109 2923,1108 2924,1107 2924,1106 2925,1105 2925,1095 2926,1094 2926,1075 2925,1074 2925,1059 2926,1058 2926,1046 2925,1045 2925,993 2926,992 2926,973 2927,972 2927,968 2926,967 2926,934 2925,933 2925,915 2926,914 2926,889 2925,888 2925,868 2926,867 2926,823 2927,822 2927,795 2926,794 2926,786 2925,785 2925,784 2923,782 2921,782 2920,781 2916,781 2915,780 2872,780 2871,781 2825,781 2824,782 2769,782 2768,783 2702,783 2701,784 2666,784 2665,783 2639,783 2638,784 2629,784 2628,785 2608,785 2607,784 2572,784 2571,783 2568,783 2567,782 2560,782 2559,781 2536,781 2535,782 2527,782 2526,781 2520,781 2519,780 2516,780 2515,781 2506,781 2505,780 2499,780 2498,779 2492,779 2491,780 2484,780 2483,781 2482,781 2481,780 2463,780 2462,781 2457,781 2456,780 2440,780 2439,781 2431,781 2430,780 2416,780 2415,781 2410,781 2409,780 2402,780 2401,779 2398,779 2397,780 2390,780 2389,781 2388,781 2387,780 2381,780 2380,779 2369,779 2368,780 2360,780 2359,779 2345,779 2344,780 2338,780 2337,779 2333,779 2332,778 2322,778 2321,779 2310,779 2309,778 2301,778 2300,779 2285,779 2284,778 2272,778 2271,779 2267,779 2266,778 2259,778 2258,777 2255,777 2254,778 2249,778 2248,779 2243,779 2242,778 2238,778 2237,777 2225,777 2224,778 2219,778 2218,777 2213,777 2212,776 2203,776 2202,777 2192,777 2191,776 2177,776 2176,777 2171,777 2170,776 2163,776 2162,775 2159,775 2158,776 2144,776 2143,775 2097,775 2096,774 2066,774 2065,773 2064,773 2063,774 2047,774 2046,773 2033,773 2032,774 2030,774 2029,773 2013,773 2012,772" fill="rgba(189,174,189,0.3)" stroke="rgb(189,174,189)" stroke-width="2" data-block-id="0008" data-name="b-0017" /><text x="2274" y="934" text-anchor="middle" dominant-baseline="middle" class="block-label" fill="rgb(189,174,189)" stroke="white" stroke-width="3" paint-order="stroke">b-0017</text><polygon points="2814,1677 2813,1678 2720,1678 2719,1679 2694,1679 2693,1678 2620,1678 2619,1679 2613,1679 2612,1678 2288,1678 2287,1679 2285,1679 2284,1680 2283,1680 2282,1681 2282,1691 2283,1692 2283,1694 2284,1695 2284,1696 2285,1697 2285,1699 2286,1700 2286,1701 2287,1702 2287,1703 2288,1704 2288,1705 2289,1706 2289,1708 2290,1709 2290,1711 2291,1712 2291,1714 2292,1715 2292,1717 2293,1718 2293,1720 2294,1721 2294,1724 2295,1725 2295,1727 2296,1728 2296,1730 2297,1731 2297,1733 2298,1734 2298,1735 2299,1736 2299,1738 2300,1739 2300,1740 2301,1741 2301,1743 2302,1744 2302,1746 2303,1747 2303,1748 2304,1749 2304,1751 2305,1752 2305,1754 2306,1755 2306,1758 2307,1759 2307,1761 2308,1762 2308,1765 2309,1766 2309,1767 2310,1768 2310,1770 2311,1771 2311,1773 2312,1774 2312,1775 2313,1776 2313,1777 2314,1778 2314,1779 2315,1780 2315,1782 2316,1783 2316,1784 2317,1785 2317,1787 2318,1788 2318,1790 2319,1791 2319,1793 2320,1794 2320,1795 2321,1796 2321,1798 2322,1799 2322,1801 2323,1802 2323,1804 2324,1805 2324,1806 2325,1807 2325,1809 2326,1810 2326,1812 2327,1813 2327,1814 2328,1815 2328,1817 2329,1818 2329,1820 2330,1821 2330,1823 2331,1824 2331,1826 2332,1827 2332,1829 2333,1830 2333,1831 2334,1832 2334,1834 2335,1835 2335,1836 2336,1837 2336,1838 2337,1839 2337,1841 2338,1842 2338,1843 2339,1844 2339,1845 2340,1846 2340,1847 2341,1848 2341,1850 2342,1851 2342,1853 2343,1854 2343,1855 2344,1856 2344,1858 2345,1859 2345,1860 2346,1861 2346,1865 2347,1866 2347,1870 2348,1871 2348,1873 2349,1874 2349,1876 2350,1877 2350,1878 2351,1879 2351,1880 2352,1881 2352,1882 2353,1883 2353,1885 2354,1886 2354,1888 2355,1889 2355,1891 2356,1892 2356,1894 2357,1895 2357,1896 2358,1897 2358,1899 2359,1900 2359,1901 2360,1902 2360,1904 2361,1905 2361,1907 2362,1908 2362,1909 2363,1910 2363,1911 2364,1912 2364,1914 2365,1915 2365,1916 2366,1917 2366,1919 2367,1920 2367,1921 2368,1922 2368,1924 2369,1925 2369,1926 2370,1927 2370,1930 2371,1931 2371,1933 2372,1934 2372,1936 2373,1937 2373,1938 2374,1939 2374,1941 2375,1942 2375,1944 2376,1945 2376,1947 2377,1948 2377,1949 2378,1950 2378,1952 2379,1953 2379,1955 2380,1956 2380,1958 2381,1959 2381,1961 2382,1962 2382,1963 2383,1964 2383,1966 2384,1967 2384,1968 2385,1969 2385,1971 2386,1972 2386,1973 2387,1974 2387,1975 2388,1976 2388,1978 2389,1979 2389,1981 2390,1982 2390,1984 2391,1985 2391,1986 2392,1987 2392,1989 2393,1990 2393,1992 2394,1993 2394,1995 2395,1996 2395,1998 2396,1999 2396,2001 2397,2002 2397,2004 2398,2005 2398,2006 2400,2008 2401,2008 2402,2009 2409,2009 2410,2010 2417,2010 2418,2009 2531,2009 2532,2008 2572,2008 2573,2007 2602,2007 2603,2006 2608,2006 2609,2005 2613,2005 2614,2004 2629,2004 2630,2005 2653,2005 2654,2006 2768,2006 2769,2007 2854,2007 2855,2008 2856,2007 2915,2007 2916,2006 2918,2006 2919,2005 2920,2005 2921,2004 2922,2004 2923,2003 2923,2002 2924,2001 2924,1996 2925,1995 2925,1957 2926,1956 2926,1909 2927,1908 2927,1901 2926,1900 2926,1885 2927,1884 2927,1875 2928,1874 2928,1867 2927,1866 2927,1862 2926,1861 2926,1842 2927,1841 2927,1831 2926,1830 2926,1798 2925,1797 2925,1772 2926,1771 2926,1688 2925,1687 2925,1685 2924,1684 2924,1683 2922,1681 2920,1681 2919,1680 2915,1680 2914,1679 2886,1679 2885,1678 2826,1678 2825,1677" fill="rgba(166,17,131,0.3)" stroke="rgb(166,17,131)" stroke-width="2" data-block-id="0009" data-name="b-0022" /><text x="2456" y="1852" text-anchor="middle" dominant-baseline="middle" class="block-label" fill="rgb(166,17,131)" stroke="white" stroke-width="3" paint-order="stroke">b-0022</text><polygon points="2598,2127 2597,2128 2579,2128 2578,2129 2546,2129 2545,2130 2498,2130 2497,2131 2466,2131 2465,2132 2461,2132 2461,2133 2460,2134 2460,2137 2461,2138 2461,2141 2462,2142 2462,2145 2463,2146 2463,2147 2464,2148 2464,2150 2465,2151 2465,2152 2466,2153 2466,2155 2467,2156 2467,2158 2468,2159 2468,2161 2469,2162 2469,2164 2470,2165 2470,2167 2471,2168 2471,2170 2472,2171 2472,2172 2473,2173 2473,2175 2474,2176 2474,2178 2475,2179 2475,2180 2476,2181 2476,2183 2477,2184 2477,2185 2478,2186 2478,2188 2479,2189 2479,2191 2480,2192 2480,2194 2481,2195 2481,2196 2482,2197 2482,2199 2483,2200 2483,2201 2484,2202 2484,2203 2485,2204 2485,2205 2486,2206 2486,2207 2487,2208 2487,2209 2488,2210 2488,2212 2489,2213 2489,2214 2490,2215 2490,2216 2491,2217 2491,2219 2492,2220 2492,2222 2493,2223 2493,2226 2494,2227 2494,2229 2495,2230 2495,2231 2496,2232 2496,2234 2497,2235 2497,2236 2498,2237 2498,2239 2499,2240 2499,2242 2500,2243 2500,2245 2501,2246 2501,2248 2502,2249 2502,2251 2503,2252 2503,2253 2504,2254 2504,2256 2505,2257 2505,2258 2506,2259 2506,2261 2507,2262 2507,2263 2508,2264 2508,2265 2509,2266 2509,2268 2510,2269 2510,2270 2511,2271 2511,2272 2512,2273 2512,2275 2513,2276 2513,2277 2514,2278 2514,2280 2515,2281 2515,2283 2516,2284 2516,2285 2517,2286 2517,2288 2518,2289 2518,2290 2519,2291 2519,2292 2520,2293 2520,2294 2521,2295 2521,2297 2522,2298 2522,2299 2523,2300 2523,2302 2524,2303 2524,2305 2525,2306 2525,2307 2526,2308 2526,2310 2527,2311 2527,2313 2528,2314 2528,2316 2529,2317 2529,2318 2530,2319 2530,2321 2531,2322 2531,2323 2532,2324 2532,2325 2533,2326 2533,2327 2534,2328 2534,2329 2535,2330 2535,2332 2536,2333 2536,2334 2537,2335 2537,2337 2538,2338 2538,2340 2539,2341 2539,2344 2540,2345 2540,2348 2541,2349 2541,2351 2542,2352 2542,2354 2543,2355 2543,2357 2544,2358 2544,2359 2545,2360 2545,2361 2546,2362 2546,2363 2547,2364 2547,2365 2548,2366 2548,2368 2549,2369 2549,2370 2550,2371 2550,2373 2551,2374 2551,2376 2552,2377 2552,2379 2553,2380 2553,2382 2554,2383 2554,2385 2556,2387 2556,2388 2557,2389 2557,2390 2558,2391 2558,2392 2559,2393 2559,2395 2560,2396 2560,2397 2561,2398 2561,2400 2562,2401 2562,2404 2563,2405 2563,2407 2564,2408 2564,2410 2565,2411 2565,2413 2566,2414 2566,2416 2567,2417 2567,2419 2568,2420 2568,2421 2569,2422 2569,2424 2570,2425 2570,2426 2571,2427 2571,2429 2572,2430 2572,2431 2573,2432 2573,2434 2574,2435 2574,2437 2575,2438 2575,2440 2576,2441 2576,2443 2577,2444 2577,2446 2578,2447 2578,2449 2579,2450 2579,2451 2580,2452 2580,2453 2581,2454 2581,2456 2582,2457 2582,2458 2583,2459 2583,2461 2584,2462 2584,2463 2585,2464 2585,2467 2586,2468 2586,2471 2587,2472 2587,2476 2588,2477 2588,2480 2589,2481 2589,2483 2590,2484 2590,2486 2591,2487 2591,2488 2592,2489 2592,2491 2595,2494 2596,2494 2597,2495 2599,2495 2600,2496 2609,2496 2610,2495 2619,2495 2620,2496 2623,2496 2624,2497 2659,2497 2660,2498 2713,2498 2714,2499 2752,2499 2753,2500 2858,2500 2859,2501 2873,2501 2874,2500 2880,2500 2881,2501 2906,2501 2907,2500 2915,2500 2916,2499 2918,2499 2919,2498 2920,2498 2922,2496 2923,2496 2923,2495 2924,2494 2924,2493 2925,2492 2925,2455 2924,2454 2925,2453 2925,2415 2924,2414 2924,2307 2925,2306 2925,2272 2924,2271 2924,2261 2925,2260 2925,2204 2926,2203 2926,2185 2925,2184 2925,2159 2926,2158 2926,2142 2925,2141 2925,2138 2924,2137 2924,2134 2921,2131 2920,2131 2919,2130 2918,2130 2917,2129 2916,2129 2915,2128 2907,2128 2906,2129 2892,2129 2891,2128 2888,2128 2887,2129 2808,2129 2807,2130 2805,2130 2804,2129 2772,2129 2771,2128 2769,2128 2768,2129 2750,2129 2749,2128 2698,2128 2697,2127 2696,2127 2695,2128 2684,2128 2683,2127 2669,2127 2668,2128 2653,2128 2652,2127 2646,2127 2645,2128 2637,2128 2636,2127 2624,2127 2623,2128 2621,2128 2620,2129 2619,2129 2618,2130 2612,2130 2611,2129 2609,2129 2608,2128 2606,2128 2605,2127" fill="rgba(89,52,129,0.3)" stroke="rgb(89,52,129)" stroke-width="2" data-block-id="0010" data-name="b-0025" /><text x="2600" y="2295" text-anchor="middle" dominant-baseline="middle" class="block-label" fill="rgb(89,52,129)" stroke="white" stroke-width="3" paint-order="stroke">b-0025</text><polygon points="2640,2610 2639,2611 2638,2611 2636,2613 2636,2615 2635,2616 2635,2625 2636,2626 2636,2627 2637,2628 2637,2629 2638,2630 2638,2631 2639,2632 2639,2633 2640,2634 2640,2636 2641,2637 2641,2640 2642,2641 2642,2643 2643,2644 2643,2646 2644,2647 2644,2649 2645,2650 2645,2651 2646,2652 2646,2653 2647,2654 2647,2655 2648,2656 2648,2657 2649,2658 2649,2659 2650,2660 2650,2661 2651,2662 2651,2664 2652,2665 2652,2667 2653,2668 2653,2670 2654,2671 2654,2673 2655,2674 2655,2675 2656,2676 2656,2678 2657,2679 2657,2680 2658,2681 2658,2682 2659,2683 2659,2685 2660,2686 2660,2687 2661,2688 2661,2690 2662,2691 2662,2692 2663,2693 2663,2695 2664,2696 2664,2698 2665,2699 2665,2701 2666,2702 2666,2705 2667,2706 2667,2708 2668,2709 2668,2710 2669,2711 2669,2713 2670,2714 2670,2715 2671,2716 2671,2717 2672,2718 2672,2720 2673,2721 2673,2722 2674,2723 2674,2725 2675,2726 2675,2728 2676,2729 2676,2731 2677,2732 2677,2734 2678,2735 2678,2737 2679,2738 2679,2740 2680,2741 2680,2742 2681,2743 2681,2745 2682,2746 2682,2747 2683,2748 2683,2749 2684,2750 2684,2751 2685,2752 2685,2754 2686,2755 2686,2756 2687,2757 2687,2759 2688,2760 2688,2762 2689,2763 2689,2765 2690,2766 2690,2768 2691,2769 2691,2771 2692,2772 2692,2773 2693,2774 2693,2775 2694,2776 2694,2777 2695,2778 2695,2779 2696,2780 2696,2782 2697,2783 2697,2784 2698,2785 2698,2786 2699,2787 2699,2788 2700,2789 2700,2790 2701,2791 2701,2793 2702,2794 2702,2796 2703,2797 2703,2799 2704,2800 2704,2801 2705,2802 2705,2804 2706,2805 2706,2806 2707,2807 2707,2808 2708,2809 2708,2811 2709,2812 2709,2813 2710,2814 2710,2816 2711,2817 2711,2819 2712,2820 2712,2823 2713,2824 2713,2827 2714,2828 2714,2830 2715,2831 2715,2832 2716,2833 2716,2834 2717,2835 2717,2836 2718,2837 2718,2838 2719,2839 2719,2840 2720,2841 2720,2843 2721,2844 2721,2846 2722,2847 2722,2848 2723,2849 2723,2851 2724,2852 2724,2854 2725,2855 2725,2857 2726,2858 2726,2860 2727,2861 2727,2863 2728,2864 2728,2865 2729,2866 2729,2867 2730,2868 2730,2869 2731,2870 2731,2871 2732,2872 2732,2874 2733,2875 2733,2876 2734,2877 2734,2879 2735,2880 2735,2882 2736,2883 2736,2885 2737,2886 2737,2888 2738,2889 2738,2890 2739,2891 2739,2893 2740,2894 2740,2896 2741,2897 2741,2899 2742,2900 2742,2902 2743,2903 2743,2904 2744,2905 2744,2907 2745,2908 2745,2909 2746,2910 2746,2911 2747,2912 2747,2913 2748,2914 2748,2915 2749,2916 2749,2918 2750,2919 2750,2921 2751,2922 2751,2923 2752,2924 2752,2926 2753,2927 2753,2929 2754,2930 2754,2931 2755,2932 2755,2934 2756,2935 2756,2937 2757,2938 2757,2940 2758,2941 2758,2942 2759,2943 2759,2945 2760,2946 2760,2948 2761,2949 2761,2951 2762,2952 2762,2953 2763,2954 2763,2955 2764,2956 2764,2957 2765,2958 2765,2959 2766,2960 2766,2962 2767,2963 2767,2964 2768,2965 2768,2966 2769,2967 2769,2968 2770,2969 2770,2971 2771,2972 2771,2973 2772,2974 2772,2976 2773,2977 2773,2980 2774,2981 2774,2983 2775,2984 2775,2985 2776,2986 2776,2987 2777,2988 2777,2989 2780,2992 2781,2992 2782,2993 2786,2993 2787,2994 2811,2994 2812,2993 2838,2993 2839,2992 2917,2992 2918,2991 2921,2991 2922,2990 2923,2990 2923,2989 2924,2988 2924,2986 2925,2985 2925,2967 2924,2966 2924,2819 2923,2818 2923,2622 2922,2621 2922,2616 2921,2615 2921,2614 2919,2612 2918,2612 2917,2611 2913,2611 2912,2610 2904,2610 2903,2611 2850,2611 2849,2612 2832,2612 2831,2611 2828,2611 2827,2612 2766,2612 2765,2611 2756,2611 2755,2612 2742,2612 2741,2611 2735,2611 2734,2610" fill="rgba(3,53,220,0.3)" stroke="rgb(3,53,220)" stroke-width="2" data-block-id="0011" data-name="b-0033" /><text x="2726" y="2799" text-anchor="middle" dominant-baseline="middle" class="block-label" fill="rgb(3,53,220)" stroke="white" stroke-width="3" paint-order="stroke">b-0033</text></g>
</svg>