<?xml version='1.0' encoding='utf-8'?>
<svg xmlns="http://www.w3.org/2000/svg" xmlns:atlas="http://example.com/atlas" width="4984" height="3248" viewBox="0 0 4984 3248">
  
  <metadata>
    <atlas:source>
      <atlas:jp2-path>/Users/pwright/workspace/atlas/media/v2/p38.jp2</atlas:jp2-path>
      <atlas:volume>unknown</atlas:volume>
      <atlas:plate-id>p38</atlas:plate-id>
      <atlas:image-width>4984</atlas:image-width>
      <atlas:image-height>3248</atlas:image-height>
    <atlas:angle>0.0</atlas:angle><atlas:scale>1.3736903732174852</atlas:scale><atlas:pos-x>1002.0653003234937</atlas:pos-x><atlas:pos-y>802.3383000840327</atlas:pos-y></atlas:source>
  </metadata>

  
  <image id="background" href="file:///Users/pwright/workspace/atlas/media/v2/p38.jp2" width="4984" height="3248" opacity="0.5" />

  <style>
    .block-label { font-family: sans-serif; font-size: 14px; font-weight: bold; }
  </style>

  
  <g id="blocks">
    <polygon points="1036,1196 1035,1197 1023,1197 1022,1198 1014,1198 1013,1199 1008,1199 1007,1200 1001,1200 1000,1199 989,1199 988,1200 984,1200 983,1201 981,1201 980,1200 978,1200 977,1199 976,1199 975,1198 972,1198 971,1197 964,1197 963,1198 939,1198 938,1199 925,1199 924,1198 922,1198 921,1199 917,1199 916,1200 913,1200 912,1201 911,1201 909,1203 908,1203 906,1205 905,1205 904,1206 902,1206 899,1209 899,1216 898,1217 898,1220 899,1221 899,1226 900,1227 900,1240 899,1241 899,1242 898,1243 898,1244 894,1248 894,1249 893,1250 893,1252 892,1253 892,1285 893,1286 893,1293 892,1294 892,1297 891,1298 891,1332 892,1333 892,1409 893,1410 893,1412 892,1413 892,1429 893,1430 893,1470 894,1471 894,1518 893,1519 893,1533 894,1534 894,1565 895,1566 895,1568 898,1571 899,1571 900,1572 902,1572 903,1573 906,1573 907,1574 919,1574 920,1575 923,1575 924,1574 952,1574 953,1573 966,1573 967,1574 970,1574 971,1573 988,1573 989,1574 999,1574 1000,1573 1042,1573 1043,1574 1071,1574 1072,1573 1082,1573 1083,1574 1092,1574 1093,1573 1098,1573 1099,1572 1106,1572 1107,1573 1114,1573 1115,1572 1120,1572 1121,1571 1127,1571 1128,1572 1189,1572 1190,1573 1224,1573 1225,1574 1239,1574 1240,1573 1284,1573 1285,1574 1296,1574 1297,1573 1348,1573 1349,1572 1352,1572 1353,1573 1397,1573 1398,1572 1400,1572 1401,1573 1419,1573 1420,1572 1421,1573 1438,1573 1439,1572 1517,1572 1518,1571 1532,1571 1533,1572 1546,1572 1547,1571 1584,1571 1585,1572 1615,1572 1616,1571 1636,1571 1637,1572 1660,1572 1661,1571 1679,1571 1680,1572 1685,1572 1686,1571 1692,1571 1693,1570 1705,1570 1706,1571 1709,1571 1710,1570 1721,1570 1722,1571 1758,1571 1759,1570 1763,1570 1764,1569 1788,1569 1789,1568 1804,1568 1805,1569 1837,1569 1838,1568 1923,1568 1924,1569 1940,1569 1941,1568 1949,1568 1950,1569 1988,1569 1989,1568 1995,1568 1996,1569 2001,1569 2002,1570 2008,1570 2009,1569 2129,1569 2130,1568 2137,1568 2138,1569 2177,1569 2178,1568 2189,1568 2190,1569 2231,1569 2232,1570 2239,1570 2240,1571 2286,1571 2287,1572 2352,1572 2353,1571 2354,1571 2355,1570 2356,1570 2358,1568 2358,1567 2359,1566 2359,1565 2360,1564 2360,1548 2359,1547 2359,1537 2360,1536 2360,1415 2361,1414 2361,1379 2360,1378 2360,1366 2361,1365 2361,1354 2360,1353 2360,1334 2361,1333 2361,1293 2360,1292 2360,1288 2361,1287 2361,1272 2360,1271 2360,1266 2361,1265 2361,1246 2362,1245 2361,1244 2361,1238 2360,1237 2360,1208 2359,1207 2359,1204 2358,1203 2358,1202 2356,1200 2355,1200 2354,1199 2353,1199 2352,1198 2308,1198 2307,1197 2187,1197 2186,1198 2174,1198 2173,1197 2088,1197 2087,1198 2086,1198 2085,1197 2073,1197 2072,1198 2067,1198 2066,1199 2059,1199 2058,1198 2052,1198 2051,1197 2031,1197 2030,1196 2027,1196 2026,1197 2009,1197 2008,1198 2001,1198 2000,1199 1996,1199 1995,1200 1974,1200 1973,1201 1964,1201 1963,1202 1937,1202 1936,1201 1931,1201 1930,1202 1924,1202 1923,1203 1905,1203 1904,1202 1878,1202 1877,1203 1852,1203 1851,1202 1848,1202 1847,1203 1833,1203 1832,1204 1815,1204 1814,1203 1812,1203 1811,1202 1810,1202 1809,1201 1807,1201 1806,1200 1802,1200 1801,1199 1787,1199 1786,1198 1761,1198 1760,1199 1720,1199 1719,1200 1706,1200 1705,1201 1675,1201 1674,1202 1669,1202 1668,1201 1641,1201 1640,1200 1626,1200 1625,1201 1545,1201 1544,1200 1518,1200 1517,1201 1498,1201 1497,1200 1465,1200 1464,1201 1444,1201 1443,1202 1434,1202 1433,1203 1395,1203 1394,1202 1380,1202 1379,1201 1354,1201 1353,1200 1349,1200 1348,1199 1347,1199 1346,1198 1343,1198 1342,1197 1326,1197 1325,1196 1268,1196 1267,1197 1249,1197 1248,1196 1186,1196 1185,1197 1151,1197 1150,1198 1147,1198 1146,1197 1127,1197 1126,1198 1122,1198 1121,1197 1117,1197 1116,1196 1105,1196 1104,1197 1094,1197 1093,1196 1086,1196 1085,1197 1068,1197 1067,1196 1059,1196 1058,1197 1045,1197 1044,1196" fill="rgba(121,210,214,0.3)" stroke="rgb(121,210,214)" stroke-width="2" data-block-id="0001" data-name="b-0004" /><text x="1531" y="1356" text-anchor="middle" dominant-baseline="middle" class="block-label" fill="rgb(121,210,214)" stroke="white" stroke-width="3" paint-order="stroke">b-0004</text><polygon points="1684,2642 1683,2643 1676,2643 1675,2644 1666,2644 1665,2643 1629,2643 1628,2644 1571,2644 1570,2643 1558,2643 1557,2644 1535,2644 1534,2645 1529,2645 1528,2644 1464,2644 1463,2645 1454,2645 1453,2644 1397,2644 1396,2645 1318,2645 1317,2646 1312,2646 1311,2645 1305,2645 1304,2644 1300,2644 1299,2645 1284,2645 1283,2644 1274,2644 1273,2645 1188,2645 1187,2644 1181,2644 1180,2645 1135,2645 1134,2646 1108,2646 1107,2647 1095,2647 1094,2648 1083,2648 1082,2649 1078,2649 1077,2650 1056,2650 1055,2651 1028,2651 1027,2650 1019,2650 1018,2649 1012,2649 1011,2650 1004,2650 1003,2649 999,2649 998,2648 991,2648 990,2647 980,2647 979,2646 975,2646 974,2645 960,2645 959,2646 939,2646 938,2647 931,2647 930,2646 925,2646 924,2645 917,2645 916,2646 908,2646 907,2647 900,2647 899,2648 896,2648 892,2652 892,2653 890,2655 890,2657 889,2658 889,2673 888,2674 888,2688 889,2689 889,2697 888,2698 888,2714 889,2715 889,2723 888,2724 888,2750 887,2751 887,2756 888,2757 888,2787 889,2788 888,2789 888,2799 887,2800 887,2803 888,2804 888,2829 887,2830 887,2842 886,2843 886,2973 887,2974 887,2989 886,2990 887,2991 887,3000 888,3001 888,3004 889,3005 889,3006 894,3011 895,3011 896,3012 897,3012 898,3013 900,3013 901,3014 905,3014 906,3015 914,3015 915,3016 925,3016 926,3015 944,3015 945,3016 975,3016 976,3015 989,3015 990,3016 1010,3016 1011,3017 1022,3017 1023,3016 1038,3016 1039,3017 1045,3017 1046,3016 1066,3016 1067,3015 1071,3015 1072,3014 1083,3014 1084,3015 1098,3015 1099,3014 1100,3015 1117,3015 1118,3014 1131,3014 1132,3015 1167,3015 1168,3014 1175,3014 1176,3015 1184,3015 1185,3016 1202,3016 1203,3015 1227,3015 1228,3016 1248,3016 1249,3015 1261,3015 1262,3014 1268,3014 1269,3015 1275,3015 1276,3016 1282,3016 1283,3015 1324,3015 1325,3016 1327,3016 1328,3015 1336,3015 1337,3014 1370,3014 1371,3015 1400,3015 1401,3014 1405,3014 1406,3013 1429,3013 1430,3012 1439,3012 1440,3011 1455,3011 1456,3012 1500,3012 1501,3011 1513,3011 1514,3012 1516,3012 1517,3011 1523,3011 1524,3010 1542,3010 1543,3011 1595,3011 1596,3010 1607,3010 1608,3011 1621,3011 1622,3010 1623,3011 1632,3011 1633,3012 1644,3012 1645,3011 1690,3011 1691,3010 1720,3010 1721,3011 1724,3011 1725,3012 1739,3012 1740,3011 1754,3011 1755,3010 1764,3010 1765,3009 1766,3009 1767,3010 1774,3010 1775,3011 1785,3011 1786,3010 1807,3010 1808,3011 1821,3011 1822,3012 1828,3012 1829,3011 1839,3011 1840,3010 1859,3010 1860,3009 1863,3009 1864,3010 1883,3010 1884,3009 1901,3009 1902,3010 1944,3010 1945,3009 1971,3009 1972,3010 1989,3010 1990,3009 2025,3009 2026,3010 2029,3010 2030,3009 2047,3009 2048,3010 2072,3010 2073,3011 2078,3011 2079,3010 2165,3010 2166,3011 2173,3011 2174,3010 2177,3010 2178,3009 2180,3009 2181,3008 2188,3008 2189,3009 2195,3009 2196,3010 2231,3010 2232,3009 2243,3009 2244,3008 2250,3008 2251,3007 2256,3007 2257,3008 2258,3008 2259,3009 2260,3009 2261,3010 2263,3010 2264,3011 2287,3011 2288,3010 2298,3010 2299,3011 2303,3011 2304,3010 2355,3010 2356,3009 2360,3009 2361,3008 2362,3008 2363,3007 2364,3007 2366,3005 2366,3004 2367,3003 2367,3001 2368,3000 2368,2998 2369,2997 2369,2995 2370,2994 2370,2982 2369,2981 2369,2973 2368,2972 2368,2966 2367,2965 2367,2949 2368,2948 2368,2937 2367,2936 2367,2907 2368,2906 2368,2880 2367,2879 2367,2811 2368,2810 2368,2779 2367,2778 2367,2722 2366,2721 2366,2714 2367,2713 2367,2693 2366,2692 2366,2672 2367,2671 2367,2656 2366,2655 2366,2651 2365,2650 2365,2647 2362,2644 2361,2644 2360,2643 2356,2643 2355,2642 2337,2642 2336,2643 2236,2643 2235,2642 2220,2642 2219,2643 2190,2643 2189,2644 2179,2644 2178,2643 2174,2643 2173,2642 2143,2642 2142,2643 2127,2643 2126,2642 2123,2642 2122,2643 2093,2643 2092,2644 2085,2644 2084,2643 2076,2643 2075,2642 2074,2642 2073,2643 1996,2643 1995,2644 1991,2644 1990,2643 1903,2643 1902,2644 1891,2644 1890,2643 1864,2643 1863,2644 1820,2644 1819,2645 1814,2645 1813,2646 1812,2645 1801,2645 1800,2644 1778,2644 1777,2643 1733,2643 1732,2642 1705,2642 1704,2643 1685,2643" fill="rgba(74,202,87,0.3)" stroke="rgb(74,202,87)" stroke-width="2" data-block-id="0002" data-name="b-0005" /><text x="1593" y="2852" text-anchor="middle" dominant-baseline="middle" class="block-label" fill="rgb(74,202,87)" stroke="white" stroke-width="3" paint-order="stroke">b-0005</text><polygon points="1739,225 1738,226 1735,226 1734,227 1733,227 1732,228 1731,228 1730,229 1729,229 1728,230 1725,230 1724,231 1655,231 1654,230 1639,230 1638,231 1627,231 1626,232 1569,232 1568,233 1551,233 1550,232 1462,232 1461,233 1455,233 1454,232 1430,232 1429,233 1403,233 1402,232 1381,232 1380,233 1353,233 1352,232 1347,232 1346,233 1328,233 1327,234 1324,234 1323,233 1287,233 1286,234 1281,234 1280,235 1270,235 1269,234 1249,234 1248,233 1209,233 1208,232 1191,232 1190,233 1160,233 1159,234 1158,234 1157,233 1144,233 1143,234 1123,234 1122,233 1110,233 1109,232 1083,232 1082,233 1064,233 1063,232 1059,232 1058,231 1029,231 1028,230 1014,230 1013,231 1005,231 1004,232 990,232 989,233 981,233 980,234 979,233 905,233 904,234 898,234 897,235 896,235 895,236 894,236 890,240 890,241 889,242 889,253 888,254 888,272 887,273 887,285 888,286 888,314 889,315 889,322 888,323 888,329 889,330 889,385 888,386 888,404 889,405 889,429 890,430 890,436 889,437 889,446 888,447 888,462 887,463 887,479 888,480 888,491 889,492 889,544 890,545 890,569 891,570 891,590 892,591 892,593 893,594 893,595 894,596 894,597 898,601 899,601 900,602 904,602 905,603 911,603 912,604 944,604 945,605 954,605 955,606 983,606 984,605 990,605 991,604 1051,604 1052,605 1055,605 1056,604 1099,604 1100,603 1177,603 1178,604 1193,604 1194,603 1205,603 1206,602 1209,602 1210,603 1222,603 1223,604 1258,604 1259,603 1275,603 1276,604 1281,604 1282,603 1306,603 1307,604 1324,604 1325,603 1400,603 1401,604 1423,604 1424,603 1430,603 1431,602 1481,602 1482,601 1483,601 1484,602 1570,602 1571,601 1583,601 1584,602 1594,602 1595,601 1624,601 1625,600 1626,601 1715,601 1716,600 1740,600 1741,599 1744,599 1745,600 1757,600 1758,601 1763,601 1764,602 1770,602 1771,603 1782,603 1783,604 1802,604 1803,603 1899,603 1900,602 1935,602 1936,603 1947,603 1948,602 1991,602 1992,601 2044,601 2045,602 2052,602 2053,603 2096,603 2097,602 2106,602 2107,603 2164,603 2165,602 2239,602 2240,601 2278,601 2279,602 2298,602 2299,601 2321,601 2322,602 2328,602 2329,601 2351,601 2352,600 2353,600 2354,599 2355,599 2358,596 2358,595 2359,594 2359,593 2360,592 2360,591 2361,590 2361,575 2360,574 2360,558 2359,557 2359,550 2360,549 2360,523 2359,522 2359,491 2360,490 2360,476 2359,475 2359,365 2358,364 2358,260 2357,259 2357,250 2358,249 2358,244 2357,243 2357,241 2355,239 2355,238 2351,234 2349,234 2348,233 2331,233 2330,234 2314,234 2313,233 2300,233 2299,232 2285,232 2284,231 2241,231 2240,232 2233,232 2232,233 2210,233 2209,234 2183,234 2182,233 2094,233 2093,234 2008,234 2007,233 1982,233 1981,234 1956,234 1955,235 1940,235 1939,234 1926,234 1925,235 1910,235 1909,234 1871,234 1870,233 1843,233 1842,232 1768,232 1767,231 1754,231 1753,230 1752,230 1751,229 1750,229 1749,228 1748,228 1747,227 1746,227 1745,226 1743,226 1742,225" fill="rgba(116,99,103,0.3)" stroke="rgb(116,99,103)" stroke-width="2" data-block-id="0003" data-name="b-0006" /><text x="1560" y="404" text-anchor="middle" dominant-baseline="middle" class="block-label" fill="rgb(116,99,103)" stroke="white" stroke-width="3" paint-order="stroke">b-0006</text><polygon points="1360,2156 1359,2157 1349,2157 1348,2158 1312,2158 1311,2159 1234,2159 1233,2160 1201,2160 1200,2159 1153,2159 1152,2160 1144,2160 1143,2159 1068,2159 1067,2158 1063,2158 1062,2159 1055,2159 1054,2160 1037,2160 1036,2161 1033,2161 1032,2162 1022,2162 1021,2161 1008,2161 1007,2162 985,2162 984,2161 975,2161 974,2160 965,2160 964,2161 953,2161 952,2160 913,2160 912,2161 896,2161 891,2166 891,2167 890,2168 890,2169 889,2170 889,2179 888,2180 888,2201 887,2202 887,2290 886,2291 886,2306 885,2307 885,2337 884,2338 884,2340 885,2341 885,2404 884,2405 884,2428 885,2429 885,2440 886,2441 886,2452 887,2453 887,2471 888,2472 888,2486 887,2487 887,2510 886,2511 886,2517 887,2518 887,2520 888,2521 888,2523 889,2524 889,2525 890,2526 890,2527 893,2530 894,2530 895,2531 896,2531 897,2532 900,2532 901,2533 907,2533 908,2534 916,2534 917,2535 927,2535 928,2534 941,2534 942,2535 950,2535 951,2534 962,2534 963,2535 976,2535 977,2534 986,2534 987,2535 1001,2535 1002,2534 1006,2534 1007,2535 1058,2535 1059,2536 1066,2536 1067,2535 1081,2535 1082,2536 1087,2536 1088,2537 1095,2537 1096,2538 1111,2538 1112,2537 1117,2537 1118,2536 1137,2536 1138,2535 1156,2535 1157,2534 1162,2534 1163,2535 1186,2535 1187,2536 1196,2536 1197,2535 1205,2535 1206,2534 1210,2534 1211,2533 1215,2533 1216,2532 1245,2532 1246,2533 1268,2533 1269,2534 1283,2534 1284,2533 1326,2533 1327,2534 1347,2534 1348,2533 1388,2533 1389,2532 1416,2532 1417,2533 1451,2533 1452,2532 1477,2532 1478,2531 1487,2531 1488,2532 1498,2532 1499,2531 1513,2531 1514,2532 1528,2532 1529,2531 1533,2531 1534,2530 1537,2530 1538,2529 1548,2529 1549,2530 1578,2530 1579,2529 1597,2529 1598,2530 1622,2530 1623,2529 1705,2529 1706,2530 1708,2530 1709,2529 1735,2529 1736,2528 1748,2528 1749,2529 1778,2529 1779,2530 1797,2530 1798,2529 1851,2529 1852,2530 1911,2530 1912,2531 1924,2531 1925,2530 1955,2530 1956,2531 1976,2531 1977,2530 2001,2530 2002,2529 2006,2529 2007,2530 2022,2530 2023,2529 2049,2529 2050,2530 2060,2530 2061,2531 2082,2531 2083,2530 2089,2530 2090,2529 2093,2529 2094,2528 2097,2528 2098,2527 2108,2527 2109,2528 2120,2528 2121,2527 2138,2527 2139,2528 2156,2528 2157,2529 2161,2529 2162,2528 2208,2528 2209,2527 2219,2527 2220,2526 2221,2527 2245,2527 2246,2528 2259,2528 2260,2529 2274,2529 2275,2530 2305,2530 2306,2529 2323,2529 2324,2530 2327,2530 2328,2529 2351,2529 2353,2527 2354,2527 2355,2526 2356,2526 2356,2525 2360,2521 2361,2521 2362,2520 2362,2519 2364,2517 2364,2515 2365,2514 2365,2511 2364,2510 2364,2501 2363,2500 2363,2496 2362,2495 2362,2489 2361,2488 2361,2481 2362,2480 2362,2455 2361,2454 2361,2450 2360,2449 2360,2435 2361,2434 2361,2427 2362,2426 2362,2410 2361,2409 2361,2406 2360,2405 2360,2403 2359,2402 2359,2401 2358,2400 2358,2397 2357,2396 2357,2395 2358,2394 2358,2391 2359,2390 2359,2385 2360,2384 2360,2376 2361,2375 2361,2361 2360,2360 2360,2357 2359,2356 2359,2354 2358,2353 2358,2352 2357,2351 2357,2344 2358,2343 2358,2337 2359,2336 2359,2332 2360,2331 2360,2328 2361,2327 2361,2312 2360,2311 2360,2308 2359,2307 2359,2305 2358,2304 2358,2288 2359,2287 2359,2285 2360,2284 2360,2281 2361,2280 2361,2277 2362,2276 2361,2275 2361,2266 2360,2265 2360,2260 2359,2259 2359,2256 2358,2255 2358,2247 2359,2246 2359,2239 2360,2238 2360,2235 2361,2234 2361,2231 2362,2230 2362,2227 2361,2226 2361,2219 2360,2218 2360,2213 2359,2212 2359,2207 2358,2206 2358,2171 2357,2170 2357,2169 2350,2162 2341,2162 2340,2163 2336,2163 2335,2162 2302,2162 2301,2161 2300,2161 2299,2162 2275,2162 2274,2163 2271,2163 2270,2164 2267,2164 2266,2165 2248,2165 2247,2166 2241,2166 2240,2167 2228,2167 2227,2168 2223,2168 2222,2169 2216,2169 2215,2168 2211,2168 2210,2167 2195,2167 2194,2166 2184,2166 2183,2165 2138,2165 2137,2166 2134,2166 2133,2165 2120,2165 2119,2166 2109,2166 2108,2165 2105,2165 2104,2164 2102,2164 2101,2163 2096,2163 2095,2164 2061,2164 2060,2163 2057,2163 2056,2162 2046,2162 2045,2163 2021,2163 2020,2164 2018,2164 2017,2163 2007,2163 2006,2162 2005,2163 2001,2163 2000,2164 1997,2164 1996,2165 1978,2165 1977,2166 1971,2166 1970,2167 1968,2167 1967,2166 1961,2166 1960,2165 1955,2165 1954,2166 1951,2166 1950,2167 1948,2167 1947,2168 1942,2168 1941,2169 1922,2169 1921,2168 1906,2168 1905,2167 1899,2167 1898,2166 1883,2166 1882,2167 1867,2167 1866,2166 1856,2166 1855,2167 1840,2167 1839,2166 1838,2167 1820,2167 1819,2166 1810,2166 1809,2167 1803,2167 1802,2168 1775,2168 1774,2167 1740,2167 1739,2168 1728,2168 1727,2167 1724,2167 1723,2166 1719,2166 1718,2165 1717,2165 1716,2166 1701,2166 1700,2167 1678,2167 1677,2168 1656,2168 1655,2167 1640,2167 1639,2168 1629,2168 1628,2169 1620,2169 1619,2168 1610,2168 1609,2167 1594,2167 1593,2168 1562,2168 1561,2167 1547,2167 1546,2168 1534,2168 1533,2167 1521,2167 1520,2168 1517,2168 1516,2167 1515,2167 1514,2166 1513,2166 1512,2165 1511,2165 1510,2164 1509,2164 1508,2163 1507,2163 1506,2162 1499,2162 1498,2163 1480,2163 1479,2164 1468,2164 1467,2163 1466,2163 1465,2162 1463,2162 1462,2161 1460,2161 1459,2160 1458,2160 1457,2159 1454,2159 1453,2158 1450,2158 1449,2157 1418,2157 1417,2156 1408,2156 1407,2157 1403,2157 1402,2158 1397,2158 1396,2159 1395,2158 1375,2158 1374,2157 1364,2157 1363,2156" fill="rgba(151,130,149,0.3)" stroke="rgb(151,130,149)" stroke-width="2" data-block-id="0004" data-name="b-0007" /><text x="1725" y="2333" text-anchor="middle" dominant-baseline="middle" class="block-label" fill="rgb(151,130,149)" stroke="white" stroke-width="3" paint-order="stroke">b-0007</text><polygon points="1317,709 1316,710 1311,710 1310,711 1307,711 1306,712 1303,712 1302,713 1299,713 1298,714 1282,714 1281,713 1276,713 1275,714 1260,714 1259,713 1237,713 1236,714 1209,714 1208,713 1190,713 1189,714 1163,714 1162,713 1156,713 1155,714 1129,714 1128,715 1123,715 1122,714 1084,714 1083,715 1068,715 1067,714 1060,714 1059,715 1022,715 1021,714 1010,714 1009,715 997,715 996,716 979,716 978,715 972,715 971,714 966,714 965,715 955,715 954,716 938,716 937,717 928,717 927,716 909,716 908,717 905,717 904,718 902,718 901,719 900,719 899,720 898,720 897,721 897,723 896,724 896,727 895,728 895,731 894,732 894,737 893,738 893,758 894,759 894,785 893,786 893,800 894,801 894,838 893,839 893,840 894,841 894,890 895,891 895,905 894,906 894,917 895,918 895,941 896,942 896,954 895,955 895,977 896,978 896,987 897,988 897,997 898,998 898,1023 897,1024 897,1058 896,1059 896,1062 895,1063 896,1064 896,1067 897,1068 897,1069 898,1070 898,1071 899,1072 899,1074 900,1075 900,1076 902,1078 902,1079 903,1079 906,1082 907,1082 908,1083 909,1083 910,1084 914,1084 915,1085 919,1085 920,1086 921,1086 922,1085 927,1085 928,1084 942,1084 943,1085 953,1085 954,1086 961,1086 962,1087 966,1087 967,1088 971,1088 972,1087 975,1087 976,1086 980,1086 981,1085 987,1085 988,1086 994,1086 995,1085 1038,1085 1039,1086 1043,1086 1044,1085 1061,1085 1062,1086 1063,1086 1064,1085 1068,1085 1069,1084 1071,1084 1072,1083 1076,1083 1077,1082 1079,1082 1080,1083 1092,1083 1093,1084 1103,1084 1104,1085 1112,1085 1113,1084 1117,1084 1118,1083 1121,1083 1122,1082 1127,1082 1128,1083 1135,1083 1136,1084 1143,1084 1144,1085 1151,1085 1152,1086 1157,1086 1158,1087 1162,1087 1163,1086 1198,1086 1199,1085 1203,1085 1204,1084 1222,1084 1223,1085 1236,1085 1237,1086 1245,1086 1246,1085 1302,1085 1303,1084 1329,1084 1330,1083 1346,1083 1347,1084 1353,1084 1354,1085 1359,1085 1360,1086 1376,1086 1377,1085 1382,1085 1383,1084 1404,1084 1405,1083 1437,1083 1438,1082 1441,1082 1442,1081 1447,1081 1448,1082 1450,1082 1451,1083 1454,1083 1455,1084 1475,1084 1476,1085 1485,1085 1486,1084 1490,1084 1491,1083 1493,1083 1494,1084 1497,1084 1498,1085 1501,1085 1502,1086 1513,1086 1514,1085 1528,1085 1529,1084 1533,1084 1534,1083 1537,1083 1538,1082 1542,1082 1543,1083 1545,1083 1546,1084 1548,1084 1549,1085 1552,1085 1553,1086 1567,1086 1568,1085 1572,1085 1573,1084 1577,1084 1578,1083 1580,1083 1581,1082 1584,1082 1585,1081 1591,1081 1592,1082 1596,1082 1597,1083 1618,1083 1619,1084 1630,1084 1631,1083 1638,1083 1639,1084 1643,1084 1644,1085 1648,1085 1649,1086 1668,1086 1669,1085 1673,1085 1674,1084 1677,1084 1678,1083 1683,1083 1684,1082 1685,1083 1690,1083 1691,1084 1713,1084 1714,1085 1740,1085 1741,1084 1762,1084 1763,1085 1769,1085 1770,1084 1790,1084 1791,1083 1808,1083 1809,1084 1821,1084 1822,1085 1827,1085 1828,1084 1834,1084 1835,1083 1861,1083 1862,1084 1882,1084 1883,1083 1892,1083 1893,1082 1900,1082 1901,1083 1906,1083 1907,1084 1917,1084 1918,1083 1941,1083 1942,1084 1945,1084 1946,1083 1953,1083 1954,1082 1998,1082 1999,1083 2013,1083 2014,1082 2031,1082 2032,1083 2045,1083 2046,1082 2055,1082 2056,1081 2072,1081 2073,1082 2097,1082 2098,1081 2115,1081 2116,1082 2131,1082 2132,1083 2138,1083 2139,1082 2185,1082 2186,1083 2205,1083 2206,1084 2208,1084 2209,1083 2245,1083 2246,1084 2264,1084 2265,1083 2271,1083 2272,1084 2280,1084 2281,1083 2328,1083 2329,1082 2336,1082 2337,1081 2340,1081 2341,1082 2350,1082 2351,1081 2353,1081 2354,1080 2355,1080 2357,1078 2358,1078 2359,1077 2359,1076 2361,1074 2361,1072 2362,1071 2362,1070 2363,1069 2363,1067 2364,1066 2364,1062 2363,1061 2363,1058 2362,1057 2362,1014 2361,1013 2361,1010 2360,1009 2360,985 2359,984 2359,982 2360,981 2360,973 2361,972 2361,968 2360,967 2360,963 2359,962 2359,952 2360,951 2360,928 2361,927 2361,915 2360,914 2360,884 2361,883 2361,878 2362,877 2362,872 2361,871 2361,865 2360,864 2360,844 2359,843 2359,836 2360,835 2360,830 2361,829 2361,824 2360,823 2360,817 2359,816 2359,812 2360,811 2360,793 2359,792 2359,790 2360,789 2360,776 2359,775 2359,758 2360,757 2360,750 2359,749 2359,739 2360,738 2360,730 2359,729 2359,727 2358,726 2358,724 2357,723 2357,721 2356,720 2356,719 2354,717 2353,717 2352,716 2351,716 2350,715 2328,715 2327,714 2277,714 2276,715 2275,714 2262,714 2261,715 2209,715 2208,714 2180,714 2179,715 2139,715 2138,714 2123,714 2122,715 2049,715 2048,716 2043,716 2042,717 2034,717 2033,716 1963,716 1962,715 1951,715 1950,716 1922,716 1921,715 1841,715 1840,714 1802,714 1801,715 1800,714 1782,714 1781,715 1692,715 1691,714 1640,714 1639,715 1604,715 1603,714 1601,714 1600,715 1578,715 1577,714 1573,714 1572,715 1559,715 1558,714 1552,714 1551,715 1545,715 1544,716 1538,716 1537,715 1532,715 1531,714 1524,714 1523,713 1492,713 1491,714 1451,714 1450,715 1438,715 1437,714 1418,714 1417,713 1403,713 1402,712 1336,712 1335,711 1331,711 1330,710 1326,710 1325,709" fill="rgba(52,1,87,0.3)" stroke="rgb(52,1,87)" stroke-width="2" data-block-id="0005" data-name="b-0008" /><text x="1579" y="939" text-anchor="middle" dominant-baseline="middle" class="block-label" fill="rgb(52,1,87)" stroke="white" stroke-width="3" paint-order="stroke">b-0008</text><polygon points="2241,1680 2240,1681 2233,1681 2232,1682 2225,1682 2224,1683 2221,1683 2220,1684 2218,1684 2217,1685 2215,1685 2214,1686 2212,1686 2211,1687 2208,1687 2207,1688 2202,1688 2201,1689 2186,1689 2185,1688 2182,1688 2181,1689 2176,1689 2175,1690 2153,1690 2152,1691 2144,1691 2143,1690 2141,1690 2140,1689 2138,1689 2137,1688 2132,1688 2131,1689 2124,1689 2123,1690 2121,1690 2120,1689 2109,1689 2108,1690 2102,1690 2101,1691 2099,1691 2098,1690 2095,1690 2094,1689 2092,1689 2091,1688 2089,1688 2088,1687 2084,1687 2083,1688 2066,1688 2065,1689 2060,1689 2059,1690 2048,1690 2047,1689 2044,1689 2043,1688 2010,1688 2009,1689 2002,1689 2001,1688 1984,1688 1983,1689 1970,1689 1969,1690 1959,1690 1958,1691 1957,1690 1951,1690 1950,1689 1945,1689 1944,1688 1927,1688 1926,1687 1914,1687 1913,1686 1908,1686 1907,1685 1905,1685 1904,1684 1902,1684 1901,1683 1899,1683 1898,1682 1893,1682 1892,1681 1811,1681 1810,1682 1706,1682 1705,1683 1687,1683 1686,1682 1682,1682 1681,1683 1675,1683 1674,1684 1671,1684 1670,1685 1667,1685 1666,1686 1665,1686 1664,1687 1662,1687 1661,1688 1657,1688 1656,1689 1651,1689 1650,1690 1629,1690 1628,1691 1622,1691 1621,1690 1618,1690 1617,1689 1605,1689 1604,1690 1597,1690 1596,1689 1593,1689 1592,1688 1582,1688 1581,1689 1578,1689 1577,1690 1567,1690 1566,1689 1565,1690 1560,1690 1559,1691 1556,1691 1555,1692 1550,1692 1549,1691 1547,1691 1546,1690 1543,1690 1542,1689 1536,1689 1535,1690 1512,1690 1511,1691 1500,1691 1499,1690 1495,1690 1494,1689 1488,1689 1487,1688 1479,1688 1478,1687 1471,1687 1470,1686 1462,1686 1461,1687 1457,1687 1456,1686 1449,1686 1448,1685 1381,1685 1380,1684 1363,1684 1362,1685 1342,1685 1341,1686 1336,1686 1335,1685 1319,1685 1318,1686 1311,1686 1310,1685 1272,1685 1271,1686 1210,1686 1209,1685 1198,1685 1197,1684 1121,1684 1120,1685 1100,1685 1099,1684 1049,1684 1048,1685 915,1685 914,1686 904,1686 903,1687 899,1687 895,1691 895,1692 894,1693 894,1765 893,1766 893,1770 894,1771 894,1787 893,1788 893,1793 894,1794 894,1806 893,1807 893,1896 892,1897 892,1939 891,1940 891,1948 892,1949 892,2000 893,2001 893,2012 892,2013 892,2040 893,2041 893,2042 896,2045 897,2045 899,2047 901,2047 902,2048 906,2048 907,2049 972,2049 973,2048 1004,2048 1005,2049 1010,2049 1011,2050 1022,2050 1023,2049 1037,2049 1038,2048 1040,2048 1041,2049 1056,2049 1057,2050 1069,2050 1070,2049 1082,2049 1083,2050 1100,2050 1101,2049 1169,2049 1170,2048 1172,2048 1173,2049 1178,2049 1179,2050 1190,2050 1191,2049 1222,2049 1223,2050 1276,2050 1277,2049 1290,2049 1291,2050 1335,2050 1336,2049 1347,2049 1348,2048 1362,2048 1363,2049 1369,2049 1370,2050 1381,2050 1382,2051 1392,2051 1393,2050 1491,2050 1492,2049 1496,2049 1497,2050 1511,2050 1512,2051 1524,2051 1525,2050 1531,2050 1532,2051 1550,2051 1551,2050 1574,2050 1575,2049 1577,2049 1578,2050 1595,2050 1596,2049 1609,2049 1610,2050 1613,2050 1614,2049 1629,2049 1630,2050 1640,2050 1641,2049 1693,2049 1694,2048 1703,2048 1704,2049 1707,2049 1708,2048 1725,2048 1726,2049 1747,2049 1748,2048 1760,2048 1761,2049 1795,2049 1796,2048 1805,2048 1806,2049 1895,2049 1896,2048 1899,2048 1900,2049 1939,2049 1940,2048 1950,2048 1951,2049 1964,2049 1965,2048 1990,2048 1991,2047 2011,2047 2012,2048 2018,2048 2019,2047 2037,2047 2038,2046 2043,2046 2044,2047 2186,2047 2187,2048 2214,2048 2215,2047 2239,2047 2240,2048 2347,2048 2348,2047 2352,2047 2353,2046 2355,2046 2357,2044 2358,2044 2360,2042 2360,2041 2361,2040 2361,2036 2362,2035 2362,2020 2361,2019 2361,1998 2360,1997 2360,1879 2359,1878 2359,1866 2360,1865 2360,1859 2359,1858 2359,1842 2360,1841 2360,1834 2359,1833 2359,1802 2360,1801 2360,1749 2361,1748 2361,1692 2360,1691 2360,1689 2359,1688 2359,1686 2358,1685 2357,1685 2355,1683 2353,1683 2352,1682 2347,1682 2346,1681 2290,1681 2289,1680" fill="rgba(235,157,37,0.3)" stroke="rgb(235,157,37)" stroke-width="2" data-block-id="0006" data-name="b-0009" /><text x="1686" y="1834" text-anchor="middle" dominant-baseline="middle" class="block-label" fill="rgb(235,157,37)" stroke="white" stroke-width="3" paint-order="stroke">b-0009</text><polygon points="3926,1187 3925,1188 3857,1188 3856,1189 3816,1189 3815,1188 3800,1188 3799,1189 3791,1189 3790,1190 3770,1190 3769,1191 3734,1191 3733,1192 3722,1192 3721,1191 3618,1191 3617,1192 3611,1192 3610,1193 3549,1193 3548,1194 3435,1194 3434,1195 3422,1195 3421,1194 3417,1194 3416,1195 3399,1195 3398,1194 3396,1194 3395,1195 3387,1195 3386,1196 3375,1196 3374,1195 3345,1195 3344,1196 3340,1196 3339,1197 3292,1197 3291,1198 3281,1198 3280,1197 3270,1197 3269,1198 3255,1198 3254,1197 3253,1197 3252,1198 3234,1198 3233,1197 3198,1197 3197,1198 3178,1198 3177,1197 3172,1197 3171,1196 3158,1196 3157,1195 3148,1195 3147,1194 3143,1194 3142,1195 3078,1195 3077,1194 3071,1194 3070,1195 3065,1195 3064,1196 3059,1196 3058,1197 3052,1197 3051,1198 3047,1198 3046,1197 3031,1197 3030,1198 2973,1198 2972,1197 2964,1197 2963,1198 2960,1198 2959,1199 2957,1199 2956,1200 2953,1200 2952,1201 2926,1201 2925,1202 2910,1202 2909,1203 2888,1203 2887,1204 2827,1204 2826,1203 2825,1203 2824,1204 2815,1204 2814,1205 2812,1205 2811,1204 2805,1204 2804,1203 2798,1203 2797,1202 2791,1202 2790,1201 2772,1201 2771,1200 2743,1200 2742,1199 2739,1199 2738,1200 2677,1200 2676,1201 2639,1201 2638,1200 2635,1200 2634,1201 2625,1201 2624,1202 2602,1202 2601,1201 2591,1201 2590,1200 2579,1200 2578,1201 2557,1201 2556,1202 2549,1202 2548,1203 2545,1203 2544,1204 2542,1204 2541,1205 2540,1205 2539,1206 2539,1207 2538,1208 2538,1238 2537,1239 2537,1261 2536,1262 2536,1282 2537,1283 2537,1301 2536,1302 2536,1307 2537,1308 2537,1318 2536,1319 2536,1329 2537,1330 2537,1337 2538,1338 2538,1361 2539,1362 2539,1420 2540,1421 2540,1480 2541,1481 2541,1502 2540,1503 2540,1509 2541,1510 2541,1528 2542,1529 2542,1555 2543,1556 2543,1560 2544,1561 2544,1563 2546,1565 2547,1565 2548,1566 2550,1566 2551,1567 2554,1567 2555,1568 2559,1568 2560,1569 2580,1569 2581,1570 2591,1570 2592,1569 2631,1569 2632,1570 2637,1570 2638,1569 2660,1569 2661,1570 2669,1570 2670,1571 2671,1571 2672,1570 2686,1570 2687,1569 2759,1569 2760,1570 2770,1570 2771,1569 2783,1569 2784,1568 2829,1568 2830,1569 2845,1569 2846,1570 2850,1570 2851,1569 2867,1569 2868,1568 2885,1568 2886,1569 2910,1569 2911,1568 2916,1568 2917,1567 2924,1567 2925,1568 2938,1568 2939,1569 2964,1569 2965,1568 3020,1568 3021,1569 3031,1569 3032,1568 3076,1568 3077,1567 3131,1567 3132,1566 3138,1566 3139,1567 3147,1567 3148,1566 3177,1566 3178,1565 3217,1565 3218,1566 3243,1566 3244,1565 3284,1565 3285,1564 3309,1564 3310,1563 3313,1563 3314,1564 3349,1564 3350,1563 3376,1563 3377,1562 3428,1562 3429,1561 3439,1561 3440,1560 3453,1560 3454,1561 3524,1561 3525,1562 3532,1562 3533,1561 3540,1561 3541,1562 3554,1562 3555,1561 3600,1561 3601,1560 3609,1560 3610,1559 3611,1559 3612,1560 3623,1560 3624,1559 3686,1559 3687,1560 3695,1560 3696,1559 3703,1559 3704,1558 3759,1558 3760,1559 3775,1559 3776,1558 3797,1558 3798,1559 3819,1559 3820,1558 3825,1558 3826,1559 3855,1559 3856,1560 3865,1560 3866,1559 3876,1559 3877,1558 3955,1558 3956,1557 3966,1557 3967,1556 3974,1556 3975,1555 3977,1555 3978,1554 3979,1554 3980,1553 3980,1552 3981,1551 3981,1549 3982,1548 3982,1546 3983,1545 3983,1543 3984,1542 3984,1531 3983,1530 3983,1502 3982,1501 3982,1489 3983,1488 3983,1475 3982,1474 3982,1455 3983,1454 3983,1432 3982,1431 3982,1425 3981,1424 3981,1414 3982,1413 3982,1409 3981,1408 3981,1401 3980,1400 3980,1395 3981,1394 3981,1367 3982,1366 3982,1360 3983,1359 3983,1353 3984,1352 3984,1337 3983,1336 3983,1334 3982,1333 3982,1331 3981,1330 3981,1327 3980,1326 3980,1308 3979,1307 3979,1294 3980,1293 3980,1230 3979,1229 3979,1223 3978,1222 3978,1218 3979,1217 3979,1213 3980,1212 3980,1201 3979,1200 3979,1197 3977,1195 3977,1194 3976,1194 3974,1192 3973,1192 3972,1191 3970,1191 3969,1190 3966,1190 3965,1189 3960,1189 3959,1188 3938,1188 3937,1187" fill="rgba(129,191,187,0.3)" stroke="rgb(129,191,187)" stroke-width="2" data-block-id="0007" data-name="b-0010" /><text x="3266" y="1372" text-anchor="middle" dominant-baseline="middle" class="block-label" fill="rgb(129,191,187)" stroke="white" stroke-width="3" paint-order="stroke">b-0010</text><polygon points="3822,1666 3821,1667 3719,1667 3718,1668 3708,1668 3707,1667 3706,1667 3705,1668 3674,1668 3673,1669 3654,1669 3653,1670 3520,1670 3519,1669 3497,1669 3496,1668 3485,1668 3484,1669 3473,1669 3472,1668 3460,1668 3459,1669 3424,1669 3423,1668 3415,1668 3414,1669 3395,1669 3394,1670 3385,1670 3384,1671 3361,1671 3360,1672 3352,1672 3351,1671 3348,1671 3347,1672 3276,1672 3275,1673 3268,1673 3267,1674 3246,1674 3245,1675 3238,1675 3237,1674 3231,1674 3230,1673 3227,1673 3226,1674 3204,1674 3203,1673 3166,1673 3165,1672 3136,1672 3135,1671 3133,1671 3132,1672 3029,1672 3028,1671 3027,1671 3026,1672 3011,1672 3010,1673 3005,1673 3004,1674 2939,1674 2938,1675 2917,1675 2916,1674 2880,1674 2879,1675 2865,1675 2864,1674 2827,1674 2826,1675 2738,1675 2737,1676 2635,1676 2634,1677 2611,1677 2610,1676 2591,1676 2590,1677 2581,1677 2580,1678 2561,1678 2560,1679 2555,1679 2554,1680 2552,1680 2551,1681 2549,1681 2548,1682 2547,1682 2546,1683 2545,1683 2543,1685 2543,1713 2544,1714 2544,1722 2543,1723 2543,1733 2544,1734 2544,1740 2545,1741 2545,1769 2544,1770 2544,1780 2543,1781 2543,1791 2542,1792 2542,1850 2543,1851 2543,1897 2544,1898 2544,1905 2545,1906 2545,1936 2546,1937 2546,1995 2547,1996 2547,2000 2548,2001 2548,2014 2549,2015 2549,2019 2550,2020 2550,2023 2551,2024 2551,2026 2552,2027 2552,2031 2553,2032 2553,2035 2554,2036 2554,2037 2555,2038 2555,2039 2556,2039 2557,2040 2558,2040 2559,2041 2560,2041 2561,2042 2587,2042 2588,2041 2601,2041 2602,2040 2610,2040 2611,2039 2613,2039 2614,2040 2637,2040 2638,2041 2645,2041 2646,2042 2653,2042 2654,2043 2706,2043 2707,2044 2735,2044 2736,2043 2791,2043 2792,2044 2797,2044 2798,2045 2825,2045 2826,2044 2843,2044 2844,2045 2853,2045 2854,2044 2863,2044 2864,2043 2873,2043 2874,2044 2876,2044 2877,2045 2898,2045 2899,2044 2915,2044 2916,2043 2920,2043 2921,2044 2928,2044 2929,2045 2932,2045 2933,2044 2940,2044 2941,2043 3024,2043 3025,2044 3054,2044 3055,2043 3076,2043 3077,2042 3084,2042 3085,2041 3106,2041 3107,2040 3123,2040 3124,2041 3130,2041 3131,2042 3152,2042 3153,2041 3161,2041 3162,2042 3182,2042 3183,2043 3201,2043 3202,2042 3217,2042 3218,2041 3269,2041 3270,2040 3285,2040 3286,2039 3328,2039 3329,2038 3397,2038 3398,2037 3406,2037 3407,2036 3438,2036 3439,2035 3452,2035 3453,2036 3472,2036 3473,2035 3481,2035 3482,2036 3486,2036 3487,2037 3498,2037 3499,2036 3522,2036 3523,2035 3528,2035 3529,2036 3561,2036 3562,2037 3564,2037 3565,2036 3588,2036 3589,2035 3605,2035 3606,2036 3629,2036 3630,2035 3637,2035 3638,2036 3657,2036 3658,2035 3700,2035 3701,2036 3709,2036 3710,2035 3724,2035 3725,2034 3736,2034 3737,2033 3743,2033 3744,2034 3749,2034 3750,2035 3782,2035 3783,2034 3799,2034 3800,2033 3801,2033 3802,2034 3833,2034 3834,2033 3837,2033 3838,2034 3886,2034 3887,2033 3913,2033 3914,2032 3955,2032 3956,2031 3962,2031 3963,2030 3979,2030 3980,2029 3982,2029 3985,2026 3985,2025 3986,2024 3986,2022 3987,2021 3987,1972 3986,1971 3986,1962 3987,1961 3987,1936 3986,1935 3986,1929 3985,1928 3985,1924 3984,1923 3984,1919 3985,1918 3985,1898 3986,1897 3986,1889 3987,1888 3987,1869 3986,1868 3986,1862 3985,1861 3985,1857 3986,1856 3986,1831 3987,1830 3987,1826 3986,1825 3986,1789 3985,1788 3985,1785 3984,1784 3984,1781 3983,1780 3983,1777 3984,1776 3984,1772 3985,1771 3985,1745 3984,1744 3984,1740 3985,1739 3985,1726 3984,1725 3984,1717 3985,1716 3985,1701 3984,1700 3984,1678 3983,1677 3983,1674 3982,1673 3982,1672 3979,1669 3978,1669 3977,1668 3974,1668 3973,1667 3962,1667 3961,1666 3930,1666 3929,1667 3913,1667 3912,1666" fill="rgba(20,160,203,0.3)" stroke="rgb(20,160,203)" stroke-width="2" data-block-id="0008" data-name="b-0011" /><text x="3275" y="1880" text-anchor="middle" dominant-baseline="middle" class="block-label" fill="rgb(20,160,203)" stroke="white" stroke-width="3" paint-order="stroke">b-0011</text><polygon points="3799,708 3798,709 3794,709 3793,710 3785,710 3784,711 3707,711 3706,712 3684,712 3683,711 3653,711 3652,712 3596,712 3595,713 3583,713 3582,712 3564,712 3563,713 3555,713 3554,714 3528,714 3527,713 3519,713 3518,714 3485,714 3484,713 3448,713 3447,714 3440,714 3439,713 3423,713 3422,714 3417,714 3416,713 3411,713 3410,712 3401,712 3400,713 3392,713 3391,712 3370,712 3369,713 3350,713 3349,714 3348,713 3341,713 3340,712 3318,712 3317,713 3300,713 3299,712 3270,712 3269,713 3237,713 3236,714 3220,714 3219,715 3201,715 3200,714 3169,714 3168,715 3117,715 3116,716 3044,716 3043,717 3033,717 3032,716 3024,716 3023,717 2995,717 2994,718 2963,718 2962,719 2924,719 2923,720 2888,720 2887,721 2866,721 2865,722 2851,722 2850,721 2832,721 2831,722 2812,722 2811,723 2747,723 2746,722 2732,722 2731,721 2721,721 2720,720 2711,720 2710,721 2703,721 2702,720 2695,720 2694,719 2691,719 2690,720 2680,720 2679,721 2672,721 2671,722 2663,722 2662,723 2652,723 2651,724 2641,724 2640,725 2630,725 2629,726 2624,726 2623,727 2617,727 2616,728 2600,728 2599,727 2589,727 2588,726 2582,726 2581,725 2575,725 2574,724 2555,724 2554,725 2549,725 2548,726 2545,726 2544,727 2541,727 2540,728 2539,728 2537,730 2537,731 2536,732 2536,734 2535,735 2535,737 2534,738 2534,743 2533,744 2533,746 2534,747 2534,765 2533,766 2533,812 2534,813 2534,819 2533,820 2533,857 2534,858 2534,975 2535,976 2535,987 2534,988 2534,997 2535,998 2535,1046 2536,1047 2536,1070 2537,1071 2537,1076 2538,1077 2538,1078 2541,1081 2542,1081 2544,1083 2545,1083 2546,1084 2547,1084 2548,1085 2550,1085 2551,1086 2554,1086 2555,1087 2559,1087 2560,1088 2566,1088 2567,1089 2574,1089 2575,1090 2591,1090 2592,1091 2661,1091 2662,1090 2703,1090 2704,1091 2716,1091 2717,1090 2722,1090 2723,1089 2728,1089 2729,1088 2741,1088 2742,1087 2770,1087 2771,1086 2775,1086 2776,1085 2780,1085 2781,1086 2793,1086 2794,1085 2829,1085 2830,1086 2853,1086 2854,1087 2862,1087 2863,1086 2868,1086 2869,1085 2878,1085 2879,1086 2916,1086 2917,1085 2924,1085 2925,1086 2939,1086 2940,1085 2945,1085 2946,1086 2960,1086 2961,1085 2979,1085 2980,1084 2986,1084 2987,1083 3004,1083 3005,1082 3015,1082 3016,1081 3017,1082 3048,1082 3049,1083 3050,1083 3051,1082 3092,1082 3093,1083 3100,1083 3101,1082 3116,1082 3117,1083 3148,1083 3149,1082 3152,1082 3153,1081 3168,1081 3169,1082 3248,1082 3249,1081 3271,1081 3272,1082 3291,1082 3292,1081 3345,1081 3346,1080 3352,1080 3353,1081 3361,1081 3362,1080 3543,1080 3544,1081 3590,1081 3591,1080 3639,1080 3640,1079 3678,1079 3679,1078 3687,1078 3688,1079 3736,1079 3737,1078 3746,1078 3747,1077 3793,1077 3794,1078 3839,1078 3840,1079 3887,1079 3888,1078 3928,1078 3929,1077 3954,1077 3955,1076 3961,1076 3962,1075 3965,1075 3966,1074 3968,1074 3969,1073 3970,1073 3974,1069 3974,1068 3975,1067 3975,1065 3976,1064 3976,1005 3975,1004 3975,973 3976,972 3976,960 3975,959 3975,908 3974,907 3974,888 3975,887 3975,880 3976,879 3976,860 3975,859 3975,846 3974,845 3974,836 3975,835 3975,817 3974,816 3974,804 3973,803 3973,798 3972,797 3972,783 3973,782 3973,768 3972,767 3972,755 3971,754 3971,753 3972,752 3972,721 3971,720 3971,718 3970,717 3970,716 3966,712 3964,712 3963,711 3958,711 3957,710 3871,710 3870,709 3832,709 3831,708" fill="rgba(57,21,252,0.3)" stroke="rgb(57,21,252)" stroke-width="2" data-block-id="0009" data-name="b-0012" /><text x="3171" y="885" text-anchor="middle" dominant-baseline="middle" class="block-label" fill="rgb(57,21,252)" stroke="white" stroke-width="3" paint-order="stroke">b-0012</text><polygon points="3904,2142 3903,2143 3896,2143 3895,2144 3888,2144 3887,2143 3860,2143 3859,2144 3850,2144 3849,2145 3844,2145 3843,2144 3827,2144 3826,2145 3819,2145 3818,2144 3810,2144 3809,2145 3734,2145 3733,2146 3725,2146 3724,2145 3717,2145 3716,2144 3715,2144 3714,2145 3689,2145 3688,2146 3662,2146 3661,2147 3649,2147 3648,2146 3641,2146 3640,2147 3627,2147 3626,2146 3615,2146 3614,2147 3567,2147 3566,2148 3516,2148 3515,2149 3458,2149 3457,2150 3446,2150 3445,2149 3443,2149 3442,2150 3384,2150 3383,2151 3379,2151 3378,2150 3364,2150 3363,2149 3353,2149 3352,2150 3309,2150 3308,2149 3296,2149 3295,2148 3249,2148 3248,2149 3223,2149 3222,2150 3193,2150 3192,2149 3187,2149 3186,2150 3172,2150 3171,2151 3127,2151 3126,2152 3072,2152 3071,2153 3065,2153 3064,2154 3058,2154 3057,2153 3041,2153 3040,2154 3033,2154 3032,2155 3027,2155 3026,2156 3013,2156 3012,2155 3006,2155 3005,2154 2968,2154 2967,2153 2957,2153 2956,2152 2947,2152 2946,2153 2900,2153 2899,2154 2893,2154 2892,2155 2887,2155 2886,2156 2869,2156 2868,2155 2842,2155 2841,2156 2827,2156 2826,2157 2825,2157 2824,2156 2812,2156 2811,2155 2796,2155 2795,2156 2781,2156 2780,2157 2775,2157 2774,2156 2769,2156 2768,2155 2730,2155 2729,2154 2719,2154 2718,2153 2667,2153 2666,2152 2662,2152 2661,2151 2627,2151 2626,2150 2617,2150 2616,2151 2604,2151 2603,2152 2594,2152 2593,2153 2579,2153 2578,2154 2563,2154 2562,2155 2559,2155 2558,2156 2555,2156 2554,2157 2552,2157 2551,2158 2550,2158 2548,2160 2548,2170 2549,2171 2549,2179 2550,2180 2550,2188 2549,2189 2549,2206 2550,2207 2550,2210 2551,2211 2551,2214 2552,2215 2552,2219 2553,2220 2553,2237 2552,2238 2552,2260 2553,2261 2553,2266 2554,2267 2554,2289 2553,2290 2553,2299 2552,2300 2552,2306 2553,2307 2553,2320 2554,2321 2554,2340 2553,2341 2553,2352 2552,2353 2552,2367 2553,2368 2553,2373 2552,2374 2552,2379 2551,2380 2551,2385 2550,2386 2550,2402 2551,2403 2551,2411 2552,2412 2552,2423 2551,2424 2551,2427 2550,2428 2550,2431 2549,2432 2549,2449 2548,2450 2548,2488 2547,2489 2547,2491 2548,2492 2548,2494 2549,2495 2549,2496 2550,2497 2550,2498 2551,2499 2551,2500 2553,2502 2553,2504 2554,2505 2554,2512 2555,2513 2555,2515 2557,2517 2558,2517 2559,2518 2560,2518 2561,2519 2577,2519 2578,2518 2586,2518 2587,2517 2603,2517 2604,2516 2624,2516 2625,2515 2636,2515 2637,2516 2643,2516 2644,2517 2648,2517 2649,2516 2655,2516 2656,2515 2657,2515 2658,2516 2661,2516 2662,2517 2676,2517 2677,2518 2684,2518 2685,2519 2702,2519 2703,2518 2769,2518 2770,2519 2843,2519 2844,2520 2919,2520 2920,2519 2927,2519 2928,2520 2936,2520 2937,2521 2941,2521 2942,2522 2963,2522 2964,2521 2980,2521 2981,2522 3002,2522 3003,2521 3149,2521 3150,2520 3178,2520 3179,2519 3197,2519 3198,2520 3227,2520 3228,2519 3244,2519 3245,2518 3295,2518 3296,2517 3309,2517 3310,2518 3330,2518 3331,2519 3337,2519 3338,2518 3342,2518 3343,2517 3384,2517 3385,2516 3392,2516 3393,2515 3402,2515 3403,2516 3431,2516 3432,2515 3438,2515 3439,2514 3451,2514 3452,2515 3516,2515 3517,2514 3524,2514 3525,2513 3530,2513 3531,2512 3544,2512 3545,2511 3552,2511 3553,2512 3565,2512 3566,2511 3596,2511 3597,2512 3614,2512 3615,2511 3622,2511 3623,2510 3624,2511 3644,2511 3645,2510 3652,2510 3653,2511 3670,2511 3671,2510 3696,2510 3697,2509 3713,2509 3714,2508 3731,2508 3732,2507 3743,2507 3744,2508 3781,2508 3782,2509 3803,2509 3804,2508 3852,2508 3853,2509 3879,2509 3880,2508 3981,2508 3982,2507 3985,2507 3986,2506 3987,2506 3988,2505 3989,2505 3989,2504 3990,2503 3990,2502 3991,2501 3991,2498 3992,2497 3992,2496 3993,2495 3993,2493 3994,2492 3994,2488 3995,2487 3995,2477 3994,2476 3994,2472 3993,2471 3993,2462 3992,2461 3992,2451 3993,2450 3993,2440 3992,2439 3992,2416 3993,2415 3993,2411 3994,2410 3994,2404 3995,2403 3995,2391 3996,2390 3996,2384 3995,2383 3995,2382 3994,2381 3994,2378 3993,2377 3993,2311 3992,2310 3992,2306 3991,2305 3991,2298 3990,2297 3990,2282 3991,2281 3991,2272 3990,2271 3990,2261 3991,2260 3991,2251 3990,2250 3990,2246 3989,2245 3989,2226 3988,2225 3988,2212 3989,2211 3989,2200 3988,2199 3988,2173 3989,2172 3989,2156 3988,2155 3988,2152 3987,2151 3987,2148 3985,2146 3985,2145 3984,2145 3983,2144 3982,2144 3981,2143 3961,2143 3960,2142" fill="rgba(235,88,48,0.3)" stroke="rgb(235,88,48)" stroke-width="2" data-block-id="0010" data-name="b-0013" /><text x="3235" y="2329" text-anchor="middle" dominant-baseline="middle" class="block-label" fill="rgb(235,88,48)" stroke="white" stroke-width="3" paint-order="stroke">b-0013</text><polygon points="3801,225 3800,226 3798,226 3797,227 3796,227 3795,228 3793,228 3792,229 3788,229 3787,230 3772,230 3771,231 3751,231 3750,232 3720,232 3719,233 3713,233 3712,232 3701,232 3700,233 3695,233 3694,234 3690,234 3689,233 3683,233 3682,232 3679,232 3678,233 3651,233 3650,234 3640,234 3639,233 3626,233 3625,234 3600,234 3599,235 3595,235 3594,234 3578,234 3577,235 3570,235 3569,234 3555,234 3554,235 3545,235 3544,234 3531,234 3530,235 3520,235 3519,234 3513,234 3512,235 3506,235 3505,236 3495,236 3494,235 3418,235 3417,236 3381,236 3380,235 3364,235 3363,236 3340,236 3339,235 3314,235 3313,236 3296,236 3295,235 3272,235 3271,236 3229,236 3228,237 3221,237 3220,238 3207,238 3206,237 3200,237 3199,238 3189,238 3188,237 3178,237 3177,238 3127,238 3126,239 3114,239 3113,238 3106,238 3105,239 3058,239 3057,240 2915,240 2914,239 2903,239 2902,240 2884,240 2883,241 2878,241 2877,242 2871,242 2870,243 2809,243 2808,244 2780,244 2779,245 2740,245 2739,246 2726,246 2725,247 2668,247 2667,248 2644,248 2643,249 2630,249 2629,250 2626,250 2625,251 2623,251 2622,252 2613,252 2612,253 2606,253 2605,252 2593,252 2592,251 2587,251 2586,250 2583,250 2582,249 2579,249 2578,248 2574,248 2573,247 2565,247 2564,246 2559,246 2558,247 2552,247 2551,248 2546,248 2545,247 2540,247 2539,248 2539,249 2537,251 2537,254 2536,255 2536,260 2535,261 2535,267 2534,268 2534,310 2533,311 2533,374 2532,375 2532,384 2531,385 2531,387 2532,388 2532,394 2533,395 2533,404 2532,405 2532,417 2533,418 2533,537 2532,538 2532,571 2531,572 2531,588 2532,589 2532,597 2533,598 2533,600 2534,601 2534,602 2535,603 2536,603 2538,605 2542,605 2543,606 2550,606 2551,607 2558,607 2559,608 2565,608 2566,609 2572,609 2573,610 2579,610 2580,611 2587,611 2588,612 2594,612 2595,613 2605,613 2606,614 2612,614 2613,613 2627,613 2628,614 2636,614 2637,615 2647,615 2648,616 2659,616 2660,615 2664,615 2665,614 2669,614 2670,613 2678,613 2679,612 2724,612 2725,611 2767,611 2768,610 2777,610 2778,609 2779,609 2780,610 2794,610 2795,609 2803,609 2804,610 2815,610 2816,609 2820,609 2821,608 2827,608 2828,609 2832,609 2833,610 2835,610 2836,611 2840,611 2841,612 2845,612 2846,613 2855,613 2856,612 2861,612 2862,611 2863,611 2864,610 2865,610 2866,609 2868,609 2869,608 2891,608 2892,607 2904,607 2905,608 2906,608 2907,607 2924,607 2925,608 2929,608 2930,609 2945,609 2946,608 2957,608 2958,607 2963,607 2964,606 3009,606 3010,605 3018,605 3019,606 3050,606 3051,605 3056,605 3057,604 3103,604 3104,605 3135,605 3136,604 3145,604 3146,603 3164,603 3165,602 3172,602 3173,603 3225,603 3226,602 3270,602 3271,601 3280,601 3281,602 3317,602 3318,601 3340,601 3341,600 3367,600 3368,599 3378,599 3379,600 3393,600 3394,601 3433,601 3434,602 3440,602 3441,603 3450,603 3451,602 3455,602 3456,603 3462,603 3463,604 3475,604 3476,603 3481,603 3482,602 3490,602 3491,601 3505,601 3506,600 3511,600 3512,599 3556,599 3557,600 3605,600 3606,599 3616,599 3617,600 3620,600 3621,599 3654,599 3655,598 3672,598 3673,599 3687,599 3688,598 3694,598 3695,599 3713,599 3714,598 3724,598 3725,599 3791,599 3792,598 3844,598 3845,599 3854,599 3855,598 3862,598 3863,599 3880,599 3881,598 3887,598 3888,597 3893,597 3894,596 3939,596 3940,595 3954,595 3955,594 3959,594 3960,593 3962,593 3963,592 3965,592 3966,591 3967,591 3970,588 3970,587 3971,586 3971,582 3972,581 3972,579 3973,578 3973,575 3972,574 3972,569 3971,568 3971,562 3972,561 3972,557 3973,556 3973,522 3972,521 3972,503 3973,502 3973,499 3974,498 3974,496 3975,495 3975,493 3976,492 3976,486 3977,485 3977,480 3976,479 3976,477 3975,476 3975,474 3974,473 3974,471 3973,470 3973,469 3972,468 3972,465 3971,464 3971,451 3972,450 3972,431 3971,430 3971,408 3972,407 3972,405 3973,404 3973,403 3975,401 3975,400 3976,399 3976,397 3977,396 3977,395 3976,394 3976,387 3972,383 3972,382 3971,381 3971,380 3970,379 3970,375 3969,374 3969,356 3970,355 3970,346 3969,345 3969,328 3968,327 3968,306 3969,305 3969,301 3968,300 3968,265 3969,264 3969,253 3968,252 3968,251 3967,250 3967,246 3966,245 3966,243 3964,241 3964,240 3963,239 3963,238 3962,237 3962,236 3960,234 3960,233 3959,233 3957,231 3956,231 3955,230 3934,230 3933,229 3918,229 3917,228 3890,228 3889,229 3844,229 3843,230 3837,230 3836,231 3831,231 3830,230 3822,230 3821,229 3818,229 3817,228 3815,228 3814,227 3812,227 3811,226 3806,226 3805,225" fill="rgba(218,58,254,0.3)" stroke="rgb(218,58,254)" stroke-width="2" data-block-id="0011" data-name="b-0014" /><text x="3317" y="427" text-anchor="middle" dominant-baseline="middle" class="block-label" fill="rgb(218,58,254)" stroke="white" stroke-width="3" paint-order="stroke">b-0014</text><polygon points="3904,2617 3903,2618 3846,2618 3845,2619 3829,2619 3828,2620 3802,2620 3801,2621 3767,2621 3766,2622 3760,2622 3759,2621 3728,2621 3727,2622 3706,2622 3705,2623 3693,2623 3692,2624 3676,2624 3675,2625 3672,2625 3671,2626 3660,2626 3659,2625 3653,2625 3652,2626 3638,2626 3637,2625 3628,2625 3627,2626 3618,2626 3617,2625 3582,2625 3581,2626 3576,2626 3575,2627 3566,2627 3565,2626 3562,2626 3561,2627 3552,2627 3551,2628 3522,2628 3521,2627 3488,2627 3487,2628 3471,2628 3470,2627 3461,2627 3460,2628 3434,2628 3433,2629 3428,2629 3427,2628 3320,2628 3319,2629 3253,2629 3252,2630 3222,2630 3221,2631 3212,2631 3211,2632 3206,2632 3205,2633 3184,2633 3183,2634 3179,2634 3178,2633 3112,2633 3111,2634 3101,2634 3100,2633 3098,2633 3097,2634 3079,2634 3078,2633 3071,2633 3070,2634 3045,2634 3044,2635 3022,2635 3021,2636 3014,2636 3013,2637 3012,2637 3011,2636 3001,2636 3000,2637 2996,2637 2995,2638 2988,2638 2987,2637 2984,2637 2983,2636 2972,2636 2971,2637 2939,2637 2938,2636 2933,2636 2932,2635 2929,2635 2928,2636 2913,2636 2912,2635 2903,2635 2902,2636 2889,2636 2888,2635 2879,2635 2878,2636 2864,2636 2863,2635 2857,2635 2856,2636 2842,2636 2841,2635 2827,2635 2826,2636 2822,2636 2821,2635 2793,2635 2792,2634 2783,2634 2782,2635 2772,2635 2771,2634 2715,2634 2714,2635 2712,2635 2711,2636 2709,2636 2706,2639 2706,2640 2705,2641 2705,2642 2704,2643 2704,2645 2703,2646 2703,2653 2702,2654 2702,2663 2703,2664 2703,2692 2702,2693 2702,2697 2703,2698 2703,2725 2704,2726 2704,2735 2703,2736 2703,2747 2704,2748 2704,2771 2705,2772 2705,2779 2704,2780 2704,2798 2705,2799 2705,2817 2706,2818 2706,2825 2705,2826 2705,2875 2704,2876 2704,2881 2703,2882 2703,2890 2704,2891 2704,2902 2703,2903 2703,2915 2704,2916 2704,2925 2703,2926 2703,2936 2704,2937 2704,2961 2705,2962 2705,2972 2704,2973 2704,2978 2703,2979 2703,2981 2704,2982 2704,2985 2705,2986 2705,2989 2709,2993 2711,2993 2712,2994 2713,2994 2714,2995 2716,2995 2717,2996 2720,2996 2721,2997 2725,2997 2726,2998 2742,2998 2743,2997 2749,2997 2750,2996 2762,2996 2763,2997 2766,2997 2767,2996 2781,2996 2782,2997 2794,2997 2795,2996 2807,2996 2808,2997 2831,2997 2832,2998 2838,2998 2839,2997 2844,2997 2845,2996 2857,2996 2858,2997 2859,2997 2860,2996 2879,2996 2880,2997 2891,2997 2892,2996 2899,2996 2900,2997 2913,2997 2914,2996 2921,2996 2922,2997 2937,2997 2938,2996 2951,2996 2952,2997 2962,2997 2963,2996 2968,2996 2969,2997 3023,2997 3024,2998 3031,2998 3032,2997 3083,2997 3084,2996 3088,2996 3089,2997 3119,2997 3120,2998 3122,2998 3123,2997 3151,2997 3152,2996 3161,2996 3162,2997 3173,2997 3174,2996 3221,2996 3222,2995 3249,2995 3250,2994 3255,2994 3256,2995 3271,2995 3272,2994 3283,2994 3284,2995 3307,2995 3308,2996 3313,2996 3314,2995 3318,2995 3319,2994 3322,2994 3323,2993 3325,2993 3326,2994 3330,2994 3331,2995 3339,2995 3340,2994 3343,2994 3344,2993 3352,2993 3353,2994 3366,2994 3367,2993 3400,2993 3401,2994 3411,2994 3412,2993 3425,2993 3426,2994 3454,2994 3455,2993 3460,2993 3461,2992 3470,2992 3471,2993 3478,2993 3479,2994 3495,2994 3496,2995 3506,2995 3507,2996 3520,2996 3521,2997 3530,2997 3531,2996 3546,2996 3547,2997 3562,2997 3563,2996 3579,2996 3580,2997 3589,2997 3590,2998 3595,2998 3596,2999 3600,2999 3601,2998 3606,2998 3607,2997 3614,2997 3615,2996 3622,2996 3623,2995 3650,2995 3651,2994 3664,2994 3665,2993 3675,2993 3676,2992 3699,2992 3700,2991 3743,2991 3744,2990 3751,2990 3752,2989 3765,2989 3766,2990 3787,2990 3788,2989 3800,2989 3801,2988 3802,2989 3847,2989 3848,2990 3867,2990 3868,2989 3876,2989 3877,2990 3883,2990 3884,2989 3887,2989 3888,2988 3892,2988 3893,2987 3901,2987 3902,2988 3957,2988 3958,2987 3963,2987 3964,2986 3986,2986 3987,2985 3990,2985 3991,2984 3992,2984 3995,2981 3995,2980 3996,2979 3996,2978 3997,2977 3997,2975 3998,2974 3998,2972 3999,2971 3999,2968 4000,2967 4000,2961 3999,2960 3999,2938 3998,2937 3998,2926 3999,2925 3999,2919 3998,2918 3998,2916 3997,2915 3997,2912 3996,2911 3996,2905 3997,2904 3997,2902 3998,2901 3998,2898 3999,2897 3999,2893 3998,2892 3998,2874 3997,2873 3997,2867 3996,2866 3996,2861 3995,2860 3995,2847 3994,2846 3994,2833 3995,2832 3995,2827 3996,2826 3996,2823 3995,2822 3995,2805 3996,2804 3996,2799 3995,2798 3995,2789 3994,2788 3994,2787 3995,2786 3995,2776 3994,2775 3994,2763 3995,2762 3995,2759 3996,2758 3996,2756 3997,2755 3997,2750 3996,2749 3996,2745 3995,2744 3995,2737 3996,2736 3996,2728 3995,2727 3995,2725 3994,2724 3994,2721 3993,2720 3993,2715 3994,2714 3994,2697 3993,2696 3993,2689 3994,2688 3994,2678 3993,2677 3993,2662 3994,2661 3994,2644 3995,2643 3995,2635 3994,2634 3994,2633 3993,2632 3993,2631 3991,2629 3991,2627 3990,2626 3990,2625 3986,2621 3984,2621 3983,2620 3979,2620 3978,2619 3974,2619 3973,2620 3963,2620 3962,2619 3956,2619 3955,2618 3928,2618 3927,2617" fill="rgba(169,219,187,0.3)" stroke="rgb(169,219,187)" stroke-width="2" data-block-id="0012" data-name="b-0015" /><text x="3378" y="2826" text-anchor="middle" dominant-baseline="middle" class="block-label" fill="rgb(169,219,187)" stroke="white" stroke-width="3" paint-order="stroke">b-0015</text></g>
</svg>