<?xml version='1.0' encoding='utf-8'?>
<svg xmlns="http://www.w3.org/2000/svg" xmlns:atlas="http://example.com/atlas" width="4984" height="3248" viewBox="0 0 4984 3248">
  
  <metadata>
    <atlas:source>
      <atlas:jp2-path>/Users/pwright/workspace/atlas/media/v2/p35.jp2</atlas:jp2-path>
      <atlas:volume>unknown</atlas:volume>
      <atlas:plate-id>p35</atlas:plate-id>
      <atlas:image-width>4984</atlas:image-width>
      <atlas:image-height>3248</atlas:image-height>
    <atlas:angle>0.0</atlas:angle><atlas:scale>1.3333333333333333</atlas:scale><atlas:pos-x>2391.961753933688</atlas:pos-x><atlas:pos-y>791.8454697141531</atlas:pos-y></atlas:source>
  </metadata>

  
  <image id="background" href="file:///Users/pwright/workspace/atlas/media/v2/p35.jp2" width="4984" height="3248" opacity="0.5" />

  <style>
    .block-label { font-family: sans-serif; font-size: 14px; font-weight: bold; }
  </style>

  
  <g id="blocks">
    <polygon points="1477,1735 1476,1736 1449,1736 1448,1737 1425,1737 1424,1736 1418,1736 1417,1737 1406,1737 1405,1738 1402,1738 1401,1739 1392,1739 1391,1738 1386,1738 1385,1737 1364,1737 1363,1736 1361,1736 1360,1737 1350,1737 1349,1738 1348,1737 1333,1737 1332,1738 1321,1738 1320,1739 1225,1739 1224,1738 1211,1738 1210,1737 1201,1737 1200,1738 1170,1738 1169,1737 1044,1737 1043,1738 1031,1738 1030,1737 942,1737 941,1738 927,1738 926,1737 917,1737 916,1738 867,1738 866,1739 863,1739 862,1740 860,1740 855,1745 855,1746 854,1747 854,1748 853,1749 853,1751 852,1752 852,1754 851,1755 851,1805 850,1806 850,1861 851,1862 851,1881 850,1882 850,1891 849,1892 849,1900 848,1901 848,1918 847,1919 847,1920 848,1921 848,1925 849,1926 849,1930 850,1931 850,1941 849,1942 849,1986 850,1987 850,2034 851,2035 851,2052 850,2053 850,2081 851,2082 851,2093 852,2094 852,2097 853,2098 853,2099 856,2102 857,2102 858,2103 859,2103 860,2104 865,2104 866,2105 977,2105 978,2104 1010,2104 1011,2105 1020,2105 1021,2104 1053,2104 1054,2105 1073,2105 1074,2104 1083,2104 1084,2105 1120,2105 1121,2104 1138,2104 1139,2105 1167,2105 1168,2104 1190,2104 1191,2105 1205,2105 1206,2104 1217,2104 1218,2103 1223,2103 1224,2104 1246,2104 1247,2103 1309,2103 1310,2102 1329,2102 1330,2101 1337,2101 1338,2100 1340,2100 1341,2101 1360,2101 1361,2102 1378,2102 1379,2101 1430,2101 1431,2100 1448,2100 1449,2101 1485,2101 1486,2100 1502,2100 1503,2101 1525,2101 1526,2100 1533,2100 1534,2101 1573,2101 1574,2100 1582,2100 1583,2101 1592,2101 1593,2100 1610,2100 1611,2099 1612,2099 1614,2097 1614,2096 1615,2095 1615,2094 1616,2093 1616,2092 1617,2091 1617,2080 1616,2079 1616,2067 1615,2066 1615,2046 1616,2045 1616,2036 1615,2035 1615,2024 1616,2023 1616,2008 1615,2007 1615,1995 1616,1994 1616,1984 1615,1983 1615,1953 1616,1952 1616,1927 1615,1926 1615,1910 1616,1909 1616,1846 1615,1845 1615,1808 1616,1807 1616,1781 1617,1780 1617,1774 1616,1773 1616,1743 1615,1742 1615,1741 1614,1740 1614,1739 1613,1738 1612,1738 1611,1737 1607,1737 1606,1736 1509,1736 1508,1737 1502,1737 1501,1736 1492,1736 1491,1735" fill="rgba(188,20,102,0.3)" stroke="rgb(188,20,102)" stroke-width="2" data-block-id="0001" data-name="b-0003" /><text x="1256" y="1930" text-anchor="middle" dominant-baseline="middle" class="block-label" fill="rgb(188,20,102)" stroke="white" stroke-width="3" paint-order="stroke">b-0003</text><polygon points="3880,1724 3879,1725 3869,1725 3868,1726 3861,1726 3860,1727 3844,1727 3843,1728 3830,1728 3829,1729 3823,1729 3822,1730 3821,1729 3804,1729 3803,1730 3798,1730 3797,1729 3793,1729 3792,1728 3772,1728 3771,1729 3761,1729 3760,1730 3747,1730 3746,1729 3707,1729 3706,1730 3705,1729 3697,1729 3696,1728 3676,1728 3675,1729 3650,1729 3649,1728 3636,1728 3635,1727 3634,1728 3630,1728 3629,1729 3627,1729 3626,1730 3624,1730 3623,1731 3622,1731 3621,1732 3620,1732 3616,1736 3616,1737 3615,1738 3615,1739 3614,1740 3614,1750 3615,1751 3615,1758 3614,1759 3614,1763 3613,1764 3613,1771 3614,1772 3614,1777 3615,1778 3615,1785 3614,1786 3614,1818 3615,1819 3615,1825 3616,1826 3616,1834 3615,1835 3615,1854 3614,1855 3614,1867 3615,1868 3615,1884 3614,1885 3614,1895 3613,1896 3613,1899 3614,1900 3614,1906 3615,1907 3615,1913 3614,1914 3614,1932 3615,1933 3615,1945 3614,1946 3614,1953 3613,1954 3613,1971 3614,1972 3614,1987 3613,1988 3613,2018 3614,2019 3614,2025 3615,2026 3615,2083 3616,2084 3616,2088 3617,2089 3617,2090 3618,2091 3619,2091 3620,2092 3621,2092 3622,2093 3628,2093 3629,2094 3650,2094 3651,2095 3676,2095 3677,2094 3699,2094 3700,2095 3718,2095 3719,2094 3723,2094 3724,2093 3729,2093 3730,2092 3731,2093 3747,2093 3748,2092 3763,2092 3764,2093 3831,2093 3832,2092 3843,2092 3844,2093 3867,2093 3868,2092 3872,2092 3873,2093 3878,2093 3879,2094 3887,2094 3888,2093 3895,2093 3896,2092 3899,2092 3900,2093 3933,2093 3934,2094 3945,2094 3946,2095 3958,2095 3959,2094 3963,2094 3964,2093 3972,2093 3973,2094 3983,2094 3984,2093 3994,2093 3995,2094 4017,2094 4018,2095 4030,2095 4031,2094 4099,2094 4100,2093 4103,2093 4104,2092 4106,2092 4107,2091 4111,2091 4112,2092 4116,2092 4117,2093 4119,2093 4120,2094 4124,2094 4125,2093 4145,2093 4146,2092 4154,2092 4155,2091 4159,2091 4160,2092 4198,2092 4199,2093 4222,2093 4223,2092 4249,2092 4250,2093 4268,2093 4269,2092 4279,2092 4280,2093 4295,2093 4296,2092 4319,2092 4320,2091 4363,2091 4364,2090 4372,2090 4376,2086 4376,2085 4377,2084 4377,2082 4378,2081 4378,2079 4379,2078 4379,2064 4378,2063 4378,2045 4377,2044 4377,2014 4378,2013 4378,2009 4379,2008 4379,1956 4378,1955 4378,1951 4377,1950 4377,1948 4376,1947 4376,1943 4377,1942 4377,1938 4378,1937 4378,1931 4379,1930 4379,1920 4378,1919 4378,1917 4377,1916 4377,1914 4376,1913 4376,1910 4375,1909 4375,1906 4376,1905 4376,1891 4377,1890 4377,1881 4376,1880 4376,1872 4377,1871 4377,1867 4378,1866 4378,1856 4379,1855 4379,1851 4378,1850 4378,1846 4377,1845 4377,1841 4376,1840 4376,1832 4377,1831 4377,1817 4376,1816 4376,1771 4377,1770 4377,1741 4376,1740 4376,1739 4375,1738 4375,1737 4374,1736 4374,1734 4373,1733 4373,1732 4371,1730 4370,1730 4369,1729 4362,1729 4361,1728 4352,1728 4351,1729 4297,1729 4296,1730 4293,1730 4292,1731 4284,1731 4283,1730 4278,1730 4277,1729 4268,1729 4267,1728 4253,1728 4252,1729 4221,1729 4220,1728 4209,1728 4208,1729 4201,1729 4200,1730 4198,1730 4197,1731 4195,1731 4194,1732 4190,1732 4189,1731 4186,1731 4185,1730 4163,1730 4162,1729 4157,1729 4156,1730 4151,1730 4150,1731 4148,1731 4147,1732 4139,1732 4138,1731 4129,1731 4128,1730 4091,1730 4090,1731 4087,1731 4086,1730 4083,1730 4082,1729 4079,1729 4078,1728 4071,1728 4070,1727 4057,1727 4056,1728 4045,1728 4044,1729 4034,1729 4033,1728 4028,1728 4027,1727 4007,1727 4006,1728 3997,1728 3996,1729 3987,1729 3986,1728 3982,1728 3981,1727 3975,1727 3974,1728 3970,1728 3969,1729 3947,1729 3946,1730 3942,1730 3941,1729 3939,1729 3938,1728 3935,1728 3934,1727 3927,1727 3926,1726 3916,1726 3915,1727 3910,1727 3909,1728 3900,1728 3899,1729 3894,1729 3893,1728 3891,1728 3890,1727 3888,1727 3887,1726 3886,1726 3885,1725 3883,1725 3882,1724" fill="rgba(121,210,214,0.3)" stroke="rgb(121,210,214)" stroke-width="2" data-block-id="0002" data-name="b-0004" /><text x="3995" y="1879" text-anchor="middle" dominant-baseline="middle" class="block-label" fill="rgb(121,210,214)" stroke="white" stroke-width="3" paint-order="stroke">b-0004</text><polygon points="4214,308 4213,309 4158,309 4157,310 4140,310 4139,309 4076,309 4075,310 4032,310 4031,311 4023,311 4022,310 3989,310 3988,311 3980,311 3979,312 3970,312 3969,311 3953,311 3952,312 3942,312 3941,313 3932,313 3931,312 3902,312 3901,311 3831,311 3830,312 3801,312 3800,313 3752,313 3751,314 3750,313 3649,313 3648,312 3645,312 3644,313 3635,313 3634,314 3625,314 3624,315 3621,315 3620,316 3619,316 3618,317 3618,318 3617,319 3617,320 3616,321 3616,322 3615,323 3615,335 3616,336 3616,385 3615,386 3615,421 3616,422 3616,457 3617,458 3617,474 3616,475 3616,483 3615,484 3615,495 3616,496 3616,501 3617,502 3617,510 3616,511 3616,538 3615,539 3615,544 3616,545 3616,568 3615,569 3615,574 3614,575 3614,586 3615,587 3615,591 3614,592 3614,606 3613,607 3613,614 3614,615 3614,617 3615,618 3615,643 3614,644 3614,656 3613,657 3613,662 3614,663 3614,667 3615,668 3615,671 3616,672 3616,673 3617,674 3618,674 3620,676 3625,676 3626,677 3646,677 3647,678 3662,678 3663,677 3689,677 3690,676 3827,676 3828,677 3916,677 3917,676 3923,676 3924,677 3938,677 3939,676 3947,676 3948,677 3969,677 3970,676 3973,676 3974,675 3976,675 3977,674 3989,674 3990,675 4010,675 4011,676 4016,676 4017,675 4039,675 4040,676 4077,676 4078,677 4083,677 4084,678 4093,678 4094,677 4101,677 4102,676 4125,676 4126,675 4140,675 4141,676 4161,676 4162,675 4176,675 4177,674 4184,674 4185,675 4245,675 4246,674 4278,674 4279,675 4310,675 4311,674 4313,674 4314,675 4332,675 4333,674 4341,674 4342,675 4363,675 4364,674 4367,674 4371,670 4371,669 4372,668 4372,667 4373,666 4373,665 4374,664 4374,663 4375,662 4375,661 4376,660 4376,651 4375,650 4375,641 4374,640 4374,616 4375,615 4375,607 4374,606 4374,596 4373,595 4373,568 4374,567 4374,560 4373,559 4373,549 4372,548 4372,543 4371,542 4371,537 4372,536 4372,526 4371,525 4371,509 4372,508 4372,505 4373,504 4373,502 4374,501 4374,500 4375,499 4375,498 4378,495 4378,494 4379,493 4379,490 4378,489 4378,487 4377,486 4377,483 4376,482 4376,481 4372,477 4372,476 4371,475 4371,474 4370,473 4370,471 4369,470 4369,467 4370,466 4370,441 4371,440 4371,433 4372,432 4372,426 4373,425 4373,418 4372,417 4372,382 4371,381 4371,356 4370,355 4370,341 4371,340 4371,323 4370,322 4370,319 4369,318 4369,315 4368,314 4368,313 4365,310 4364,310 4363,309 4360,309 4359,308 4353,308 4352,309 4281,309 4280,310 4273,310 4272,309 4219,309 4218,308" fill="rgba(74,202,87,0.3)" stroke="rgb(74,202,87)" stroke-width="2" data-block-id="0003" data-name="b-0005" /><text x="4042" y="511" text-anchor="middle" dominant-baseline="middle" class="block-label" fill="rgb(74,202,87)" stroke="white" stroke-width="3" paint-order="stroke">b-0005</text><polygon points="4280,782 4279,783 4250,783 4249,784 4234,784 4233,785 4205,785 4204,786 4187,786 4186,787 4180,787 4179,786 4153,786 4152,785 4076,785 4075,786 4063,786 4062,785 4032,785 4031,786 4006,786 4005,785 4001,785 4000,786 3978,786 3977,787 3962,787 3961,786 3953,786 3952,787 3880,787 3879,788 3877,788 3876,789 3874,789 3873,790 3871,790 3870,791 3868,791 3867,790 3835,790 3834,789 3815,789 3814,788 3787,788 3786,789 3769,789 3768,788 3657,788 3656,789 3632,789 3631,790 3624,790 3623,791 3621,791 3620,792 3619,792 3619,793 3618,794 3618,797 3617,798 3617,804 3616,805 3616,868 3617,869 3617,894 3618,895 3618,905 3617,906 3617,912 3618,913 3618,930 3617,931 3617,938 3618,939 3618,948 3617,949 3617,955 3616,956 3616,962 3617,963 3617,998 3618,999 3618,1049 3619,1050 3619,1059 3618,1060 3618,1084 3617,1085 3617,1101 3618,1102 3618,1118 3617,1119 3617,1132 3618,1133 3618,1141 3619,1142 3619,1145 3623,1149 3624,1149 3625,1150 3627,1150 3628,1151 3633,1151 3634,1152 3768,1152 3769,1151 3817,1151 3818,1150 3841,1150 3842,1149 3857,1149 3858,1148 3938,1148 3939,1149 4016,1149 4017,1150 4136,1150 4137,1151 4172,1151 4173,1150 4180,1150 4181,1149 4196,1149 4197,1150 4218,1150 4219,1151 4228,1151 4229,1152 4240,1152 4241,1151 4267,1151 4268,1150 4319,1150 4320,1149 4363,1149 4364,1148 4365,1148 4366,1147 4367,1147 4370,1144 4370,1143 4371,1142 4371,1141 4372,1140 4372,1139 4374,1137 4374,1121 4373,1120 4373,1101 4372,1100 4372,1062 4373,1061 4373,1057 4374,1056 4374,1055 4375,1054 4375,1052 4376,1051 4376,1046 4377,1045 4377,1037 4378,1036 4378,1028 4377,1027 4377,1026 4376,1025 4376,1023 4375,1022 4375,1021 4374,1020 4374,1017 4373,1016 4373,1015 4374,1014 4374,990 4375,989 4375,977 4374,976 4374,967 4375,966 4375,965 4376,964 4376,963 4377,962 4377,961 4378,960 4378,958 4379,957 4379,955 4378,954 4378,951 4377,950 4377,933 4376,932 4376,930 4375,929 4375,927 4374,926 4374,905 4375,904 4375,897 4376,896 4376,875 4377,874 4377,870 4378,869 4378,866 4379,865 4379,857 4378,856 4378,842 4377,841 4377,830 4376,829 4376,822 4377,821 4377,809 4378,808 4378,802 4377,801 4377,799 4376,798 4376,795 4375,794 4375,790 4374,789 4374,788 4369,783 4367,783 4366,782 4323,782 4322,783 4321,782" fill="rgba(116,99,103,0.3)" stroke="rgb(116,99,103)" stroke-width="2" data-block-id="0004" data-name="b-0006" /><text x="4076" y="950" text-anchor="middle" dominant-baseline="middle" class="block-label" fill="rgb(116,99,103)" stroke="white" stroke-width="3" paint-order="stroke">b-0006</text><polygon points="4364,2674 4363,2675 4261,2675 4260,2676 4246,2676 4245,2677 4218,2677 4217,2678 4208,2678 4207,2677 4180,2677 4179,2678 4155,2678 4154,2677 4139,2677 4138,2676 4125,2676 4124,2677 4099,2677 4098,2676 4084,2676 4083,2677 4006,2677 4005,2676 3969,2676 3968,2677 3967,2677 3966,2676 3957,2676 3956,2675 3941,2675 3940,2676 3906,2676 3905,2675 3892,2675 3891,2676 3793,2676 3792,2677 3767,2677 3766,2676 3756,2676 3755,2677 3742,2677 3741,2678 3735,2678 3734,2677 3721,2677 3720,2676 3712,2676 3711,2677 3681,2677 3680,2676 3672,2676 3671,2675 3645,2675 3644,2676 3634,2676 3633,2677 3630,2677 3629,2678 3627,2678 3626,2679 3625,2679 3622,2682 3622,2683 3621,2684 3621,2696 3620,2697 3620,2700 3619,2701 3619,2702 3618,2703 3618,2704 3617,2705 3617,2706 3616,2707 3616,2709 3617,2710 3617,2721 3618,2722 3618,2726 3619,2727 3619,2733 3620,2734 3620,2773 3621,2774 3621,2895 3622,2896 3622,2898 3621,2899 3621,2912 3622,2913 3622,2929 3621,2930 3621,2934 3622,2935 3622,2951 3621,2952 3621,2962 3622,2963 3622,2973 3621,2974 3621,2986 3622,2987 3622,2994 3621,2995 3621,3014 3622,3015 3622,3022 3623,3023 3623,3028 3624,3029 3624,3031 3626,3033 3626,3034 3627,3035 3628,3035 3629,3036 3630,3036 3631,3037 3633,3037 3634,3038 3642,3038 3643,3039 3646,3039 3647,3038 3654,3038 3655,3037 3665,3037 3666,3038 3669,3038 3670,3037 3707,3037 3708,3038 3712,3038 3713,3039 3721,3039 3722,3038 3727,3038 3728,3037 3732,3037 3733,3038 3741,3038 3742,3037 3748,3037 3749,3036 3759,3036 3760,3037 3789,3037 3790,3036 3793,3036 3794,3035 3795,3035 3796,3034 3797,3034 3798,3033 3800,3033 3801,3032 3802,3033 3807,3033 3808,3034 3813,3034 3814,3035 3825,3035 3826,3036 3831,3036 3832,3037 3836,3037 3837,3038 3847,3038 3848,3039 3861,3039 3862,3038 3863,3038 3864,3037 3867,3037 3868,3036 3875,3036 3876,3037 3889,3037 3890,3036 3901,3036 3902,3037 3913,3037 3914,3036 3932,3036 3933,3035 3949,3035 3950,3036 3963,3036 3964,3035 3970,3035 3971,3036 3983,3036 3984,3035 3996,3035 3997,3036 4025,3036 4026,3035 4046,3035 4047,3036 4056,3036 4057,3035 4081,3035 4082,3036 4093,3036 4094,3037 4101,3037 4102,3038 4115,3038 4116,3037 4121,3037 4122,3036 4131,3036 4132,3035 4149,3035 4150,3036 4178,3036 4179,3035 4184,3035 4185,3036 4219,3036 4220,3037 4223,3037 4224,3038 4226,3038 4227,3039 4230,3039 4231,3038 4236,3038 4237,3037 4241,3037 4242,3036 4247,3036 4248,3035 4256,3035 4257,3036 4269,3036 4270,3035 4287,3035 4288,3036 4307,3036 4308,3035 4362,3035 4363,3034 4375,3034 4376,3033 4382,3033 4383,3032 4384,3032 4387,3029 4387,3027 4388,3026 4388,3012 4389,3011 4389,3002 4388,3001 4388,2997 4387,2996 4387,2973 4386,2972 4386,2933 4387,2932 4387,2904 4386,2903 4386,2826 4385,2825 4385,2760 4386,2759 4386,2735 4385,2734 4385,2728 4384,2727 4384,2710 4385,2709 4385,2700 4384,2699 4384,2692 4385,2691 4385,2686 4386,2685 4386,2683 4385,2682 4385,2680 4384,2679 4384,2678 4383,2677 4382,2677 4381,2676 4380,2676 4379,2675 4376,2675 4375,2674" fill="rgba(151,130,149,0.3)" stroke="rgb(151,130,149)" stroke-width="2" data-block-id="0005" data-name="b-0007" /><text x="3952" y="2892" text-anchor="middle" dominant-baseline="middle" class="block-label" fill="rgb(151,130,149)" stroke="white" stroke-width="3" paint-order="stroke">b-0007</text><polygon points="4228,1255 4227,1256 4203,1256 4202,1257 4198,1257 4197,1258 4178,1258 4177,1259 4172,1259 4171,1260 4163,1260 4162,1259 4149,1259 4148,1260 4139,1260 4138,1259 4128,1259 4127,1260 4000,1260 3999,1261 3981,1261 3980,1262 3957,1262 3956,1261 3952,1261 3951,1262 3910,1262 3909,1261 3904,1261 3903,1262 3865,1262 3864,1261 3847,1261 3846,1262 3815,1262 3814,1261 3795,1261 3794,1262 3779,1262 3778,1263 3776,1263 3775,1262 3766,1262 3765,1261 3762,1261 3761,1262 3752,1262 3751,1263 3750,1262 3730,1262 3729,1263 3728,1262 3707,1262 3706,1263 3701,1263 3700,1262 3688,1262 3687,1263 3675,1263 3674,1262 3661,1262 3660,1263 3630,1263 3629,1264 3624,1264 3623,1265 3621,1265 3620,1266 3619,1266 3617,1268 3617,1269 3616,1270 3616,1271 3615,1272 3615,1273 3614,1274 3614,1275 3613,1276 3613,1279 3612,1280 3612,1287 3611,1288 3611,1292 3612,1293 3612,1298 3613,1299 3613,1309 3612,1310 3612,1321 3613,1322 3613,1337 3614,1338 3614,1359 3613,1360 3613,1365 3614,1366 3614,1394 3615,1395 3615,1425 3614,1426 3614,1442 3615,1443 3615,1457 3616,1458 3616,1466 3617,1467 3617,1471 3616,1472 3616,1478 3615,1479 3615,1487 3616,1488 3616,1504 3617,1505 3617,1525 3616,1526 3616,1541 3617,1542 3617,1547 3618,1548 3618,1553 3619,1554 3619,1561 3620,1562 3620,1566 3619,1567 3619,1571 3618,1572 3618,1583 3619,1584 3619,1593 3618,1594 3618,1605 3619,1606 3619,1611 3620,1612 3620,1613 3622,1615 3623,1615 3624,1616 3629,1616 3630,1617 3648,1617 3649,1618 3657,1618 3658,1619 3673,1619 3674,1618 3686,1618 3687,1619 3694,1619 3695,1620 3700,1620 3701,1621 3721,1621 3722,1620 3731,1620 3732,1621 3760,1621 3761,1620 3772,1620 3773,1621 3778,1621 3779,1620 3793,1620 3794,1621 3830,1621 3831,1620 3835,1620 3836,1621 3944,1621 3945,1620 3953,1620 3954,1619 3956,1619 3957,1620 3989,1620 3990,1619 4079,1619 4080,1618 4092,1618 4093,1619 4116,1619 4117,1618 4125,1618 4126,1619 4154,1619 4155,1620 4156,1619 4165,1619 4166,1618 4196,1618 4197,1619 4260,1619 4261,1618 4265,1618 4266,1619 4276,1619 4277,1620 4293,1620 4294,1621 4310,1621 4311,1620 4321,1620 4322,1619 4357,1619 4358,1618 4363,1618 4364,1617 4367,1617 4368,1616 4369,1616 4370,1615 4371,1615 4372,1614 4373,1614 4375,1612 4375,1611 4376,1610 4376,1609 4377,1608 4377,1606 4378,1605 4378,1604 4379,1603 4379,1602 4380,1601 4380,1597 4379,1596 4379,1590 4378,1589 4378,1586 4377,1585 4377,1583 4376,1582 4376,1570 4377,1569 4377,1555 4376,1554 4376,1551 4377,1550 4377,1530 4378,1529 4378,1524 4379,1523 4379,1521 4380,1520 4380,1518 4381,1517 4381,1514 4382,1513 4382,1508 4383,1507 4383,1503 4382,1502 4382,1495 4381,1494 4381,1493 4380,1492 4380,1491 4378,1489 4378,1488 4377,1487 4377,1486 4376,1485 4376,1484 4375,1483 4375,1476 4376,1475 4376,1441 4377,1440 4377,1437 4378,1436 4378,1434 4379,1433 4379,1429 4380,1428 4380,1425 4381,1424 4381,1420 4380,1419 4380,1418 4379,1417 4379,1415 4378,1414 4378,1412 4377,1411 4377,1406 4378,1405 4378,1397 4379,1396 4379,1387 4380,1386 4380,1382 4381,1381 4381,1378 4382,1377 4382,1375 4381,1374 4381,1372 4378,1369 4378,1368 4376,1366 4376,1365 4375,1364 4375,1357 4376,1356 4376,1343 4375,1342 4375,1335 4376,1334 4376,1312 4377,1311 4377,1307 4378,1306 4378,1302 4379,1301 4379,1297 4380,1296 4380,1293 4381,1292 4381,1290 4382,1289 4382,1285 4383,1284 4383,1277 4382,1276 4382,1274 4381,1273 4381,1272 4380,1271 4380,1270 4379,1269 4379,1268 4375,1264 4374,1264 4373,1263 4372,1263 4370,1261 4369,1261 4367,1259 4365,1259 4364,1258 4362,1258 4361,1257 4336,1257 4335,1256 4317,1256 4316,1255 4296,1255 4295,1256 4292,1256 4291,1257 4288,1257 4287,1258 4266,1258 4265,1257 4239,1257 4238,1256 4230,1256 4229,1255" fill="rgba(52,1,87,0.3)" stroke="rgb(52,1,87)" stroke-width="2" data-block-id="0006" data-name="b-0008" /><text x="4052" y="1430" text-anchor="middle" dominant-baseline="middle" class="block-label" fill="rgb(52,1,87)" stroke="white" stroke-width="3" paint-order="stroke">b-0008</text><polygon points="1592,314 1591,315 1581,315 1580,316 1574,316 1573,315 1552,315 1551,316 1532,316 1531,317 1521,317 1520,316 1511,316 1510,317 1498,317 1497,318 1463,318 1462,319 1452,319 1451,320 1434,320 1433,319 1430,319 1429,320 1423,320 1422,319 1416,319 1415,318 1402,318 1401,319 1395,319 1394,320 1388,320 1387,321 1386,320 1381,320 1380,319 1365,319 1364,318 1359,318 1358,319 1309,319 1308,320 1284,320 1283,321 1277,321 1276,320 1274,320 1273,319 1269,319 1268,318 1263,318 1262,319 1241,319 1240,318 1227,318 1226,319 1205,319 1204,318 1188,318 1187,319 1160,319 1159,318 1132,318 1131,319 1123,319 1122,318 1113,318 1112,317 1109,317 1108,318 1087,318 1086,319 1080,319 1079,320 1073,320 1072,319 1064,319 1063,318 1042,318 1041,319 1036,319 1035,320 1020,320 1019,319 996,319 995,320 991,320 990,321 987,321 986,322 976,322 975,321 969,321 968,320 966,320 965,321 956,321 955,320 913,320 912,319 909,319 908,320 878,320 877,321 872,321 871,322 870,322 867,325 867,327 866,328 866,418 865,419 865,455 864,456 864,457 865,458 865,515 866,516 866,520 865,521 865,550 866,551 865,552 865,555 864,556 864,560 863,561 863,573 864,574 864,619 863,620 863,641 862,642 862,645 861,646 861,662 862,663 862,666 863,667 863,672 864,673 864,675 865,676 865,677 866,678 866,679 868,681 869,681 870,682 871,682 872,683 892,683 893,684 931,684 932,683 935,683 936,684 954,684 955,683 967,683 968,684 969,683 1066,683 1067,682 1122,682 1123,683 1135,683 1136,682 1155,682 1156,683 1164,683 1165,682 1179,682 1180,681 1258,681 1259,680 1279,680 1280,681 1281,681 1282,680 1330,680 1331,679 1377,679 1378,678 1392,678 1393,679 1410,679 1411,680 1427,680 1428,679 1437,679 1438,678 1451,678 1452,679 1464,679 1465,678 1472,678 1473,679 1476,679 1477,680 1489,680 1490,681 1494,681 1495,680 1505,680 1506,679 1525,679 1526,678 1555,678 1556,679 1586,679 1587,678 1613,678 1614,677 1616,677 1617,676 1618,676 1620,674 1620,673 1621,672 1621,666 1622,665 1622,656 1623,655 1623,608 1622,607 1622,595 1621,594 1621,579 1622,578 1621,577 1621,549 1622,548 1622,533 1623,532 1623,531 1622,530 1622,516 1621,515 1621,497 1620,496 1620,473 1621,472 1621,468 1620,467 1620,382 1619,381 1619,358 1620,357 1620,323 1619,322 1619,321 1618,320 1618,319 1615,316 1614,316 1613,315 1609,315 1608,314" fill="rgba(235,157,37,0.3)" stroke="rgb(235,157,37)" stroke-width="2" data-block-id="0007" data-name="b-0009" /><text x="1251" y="481" text-anchor="middle" dominant-baseline="middle" class="block-label" fill="rgb(235,157,37)" stroke="white" stroke-width="3" paint-order="stroke">b-0009</text><polygon points="4299,2201 4298,2202 4293,2202 4292,2203 4282,2203 4281,2204 4270,2204 4269,2203 4260,2203 4259,2204 4220,2204 4219,2205 4210,2205 4209,2206 4194,2206 4193,2205 4055,2205 4054,2204 4043,2204 4042,2205 4034,2205 4033,2204 4016,2204 4015,2205 3979,2205 3978,2206 3888,2206 3887,2207 3879,2207 3878,2208 3869,2208 3868,2207 3863,2207 3862,2206 3852,2206 3851,2207 3842,2207 3841,2206 3829,2206 3828,2207 3821,2207 3820,2206 3792,2206 3791,2207 3773,2207 3772,2206 3713,2206 3712,2207 3700,2207 3699,2206 3675,2206 3674,2205 3665,2205 3664,2206 3648,2206 3647,2205 3639,2205 3638,2206 3629,2206 3628,2207 3626,2207 3625,2208 3623,2208 3619,2212 3619,2213 3618,2214 3618,2216 3617,2217 3617,2223 3618,2224 3618,2268 3619,2269 3619,2346 3620,2347 3620,2352 3619,2353 3619,2368 3620,2369 3620,2396 3621,2397 3621,2412 3620,2413 3620,2423 3621,2424 3621,2436 3620,2437 3620,2452 3619,2453 3619,2488 3620,2489 3620,2523 3619,2524 3619,2543 3620,2544 3620,2550 3621,2551 3621,2554 3622,2555 3622,2557 3623,2558 3623,2560 3626,2563 3627,2563 3628,2564 3629,2564 3630,2565 3691,2565 3692,2564 3703,2564 3704,2565 3735,2565 3736,2564 3757,2564 3758,2565 3766,2565 3767,2564 3775,2564 3776,2563 3801,2563 3802,2564 3814,2564 3815,2563 3819,2563 3820,2562 3824,2562 3825,2561 3826,2562 3892,2562 3893,2563 3913,2563 3914,2562 3929,2562 3930,2561 3932,2561 3933,2562 3975,2562 3976,2561 3980,2561 3981,2562 3985,2562 3986,2563 3990,2563 3991,2564 4013,2564 4014,2563 4022,2563 4023,2562 4071,2562 4072,2561 4084,2561 4085,2562 4111,2562 4112,2561 4130,2561 4131,2560 4144,2560 4145,2561 4195,2561 4196,2562 4321,2562 4322,2561 4372,2561 4373,2560 4376,2560 4377,2559 4379,2559 4380,2558 4381,2558 4384,2555 4384,2554 4385,2553 4385,2552 4386,2551 4386,2537 4387,2536 4387,2528 4386,2527 4386,2523 4385,2522 4385,2509 4386,2508 4386,2473 4387,2472 4387,2457 4386,2456 4386,2451 4385,2450 4385,2424 4384,2423 4384,2405 4385,2404 4385,2396 4384,2395 4384,2368 4383,2367 4383,2352 4384,2351 4384,2350 4383,2349 4383,2346 4382,2345 4382,2343 4381,2342 4381,2333 4382,2332 4382,2329 4383,2328 4383,2325 4384,2324 4384,2322 4383,2321 4383,2299 4382,2298 4382,2282 4381,2281 4381,2246 4380,2245 4380,2243 4381,2242 4381,2235 4382,2234 4382,2227 4381,2226 4381,2221 4380,2220 4380,2207 4378,2205 4377,2205 4376,2204 4373,2204 4372,2203 4327,2203 4326,2202 4303,2202 4302,2201" fill="rgba(129,191,187,0.3)" stroke="rgb(129,191,187)" stroke-width="2" data-block-id="0008" data-name="b-0010" /><text x="4015" y="2382" text-anchor="middle" dominant-baseline="middle" class="block-label" fill="rgb(129,191,187)" stroke="white" stroke-width="3" paint-order="stroke">b-0010</text><polygon points="866,2211 865,2212 862,2212 861,2213 860,2213 859,2214 858,2214 855,2217 855,2219 854,2220 855,2221 855,2236 854,2237 854,2244 853,2245 853,2269 852,2270 852,2304 851,2305 851,2307 850,2308 850,2310 849,2311 849,2390 850,2391 850,2398 849,2399 849,2402 848,2403 848,2408 847,2409 847,2427 848,2428 848,2440 849,2441 849,2448 850,2449 850,2452 851,2453 851,2474 850,2475 850,2483 849,2484 849,2500 850,2501 850,2505 849,2506 849,2523 850,2524 850,2530 849,2531 849,2535 848,2536 848,2545 849,2546 849,2562 850,2563 850,2564 852,2566 854,2566 855,2567 857,2567 858,2568 861,2568 862,2569 977,2569 978,2570 984,2570 985,2569 997,2569 998,2570 1015,2570 1016,2569 1024,2569 1025,2570 1032,2570 1033,2571 1037,2571 1038,2572 1046,2572 1047,2571 1092,2571 1093,2572 1129,2572 1130,2573 1145,2573 1146,2572 1184,2572 1185,2571 1222,2571 1223,2572 1235,2572 1236,2571 1282,2571 1283,2572 1298,2572 1299,2571 1338,2571 1339,2570 1344,2570 1345,2569 1348,2569 1349,2568 1352,2568 1353,2569 1360,2569 1361,2570 1371,2570 1372,2569 1373,2569 1374,2570 1391,2570 1392,2569 1401,2569 1402,2570 1405,2570 1406,2571 1410,2571 1411,2572 1415,2572 1416,2571 1424,2571 1425,2570 1429,2570 1430,2569 1436,2569 1437,2568 1442,2568 1443,2567 1448,2567 1449,2568 1454,2568 1455,2569 1462,2569 1463,2568 1472,2568 1473,2569 1497,2569 1498,2570 1544,2570 1545,2571 1558,2571 1559,2570 1578,2570 1579,2569 1600,2569 1601,2568 1603,2568 1604,2567 1606,2567 1608,2565 1609,2565 1610,2564 1610,2563 1611,2562 1611,2559 1612,2558 1612,2554 1613,2553 1613,2544 1612,2543 1612,2528 1613,2527 1613,2511 1614,2510 1614,2462 1615,2461 1615,2410 1616,2409 1616,2400 1615,2399 1615,2335 1614,2334 1614,2306 1615,2305 1615,2300 1614,2299 1614,2229 1613,2228 1613,2224 1612,2223 1612,2221 1611,2220 1611,2219 1610,2218 1607,2218 1606,2217 1602,2217 1601,2216 1594,2216 1593,2217 1586,2217 1585,2216 1562,2216 1561,2215 1557,2215 1556,2214 1505,2214 1504,2215 1495,2215 1494,2216 1484,2216 1483,2215 1480,2215 1479,2216 1463,2216 1462,2215 1456,2215 1455,2216 1451,2216 1450,2217 1448,2217 1447,2218 1437,2218 1436,2217 1422,2217 1421,2216 1408,2216 1407,2217 1405,2217 1404,2218 1403,2218 1402,2219 1401,2219 1400,2220 1399,2220 1398,2219 1397,2219 1395,2217 1395,2216 1394,2215 1393,2215 1391,2213 1389,2213 1388,2212 1385,2212 1384,2211 1383,2212 1358,2212 1357,2213 1355,2213 1354,2214 1352,2214 1351,2215 1347,2215 1346,2214 1341,2214 1340,2213 1336,2213 1335,2214 1331,2214 1330,2215 1317,2215 1316,2214 1315,2214 1314,2215 1310,2215 1309,2216 1308,2216 1307,2217 1306,2217 1304,2219 1302,2219 1301,2220 1300,2219 1298,2219 1297,2218 1295,2218 1294,2217 1274,2217 1273,2216 1260,2216 1259,2217 1238,2217 1237,2216 1233,2216 1232,2215 1230,2215 1229,2214 1224,2214 1223,2213 1188,2213 1187,2212 1171,2212 1170,2213 1167,2213 1166,2214 1164,2214 1163,2215 1162,2215 1161,2216 1154,2216 1153,2215 1140,2215 1139,2216 1132,2216 1131,2215 1116,2215 1115,2216 1110,2216 1109,2215 1102,2215 1101,2214 1077,2214 1076,2213 1072,2213 1071,2212 1047,2212 1046,2211 1034,2211 1033,2212 1026,2212 1025,2213 1016,2213 1015,2214 997,2214 996,2213 994,2213 993,2214 975,2214 974,2213 964,2213 963,2214 960,2214 959,2215 958,2215 957,2214 954,2214 953,2213 950,2213 949,2212 902,2212 901,2213 886,2213 885,2212 880,2212 879,2211" fill="rgba(20,160,203,0.3)" stroke="rgb(20,160,203)" stroke-width="2" data-block-id="0009" data-name="b-0011" /><text x="1234" y="2361" text-anchor="middle" dominant-baseline="middle" class="block-label" fill="rgb(20,160,203)" stroke="white" stroke-width="3" paint-order="stroke">b-0011</text><polygon points="919,2676 918,2677 917,2677 916,2678 914,2678 913,2679 912,2679 911,2680 910,2680 909,2681 878,2681 877,2682 865,2682 864,2681 863,2682 857,2682 856,2683 853,2683 852,2684 850,2684 848,2686 847,2686 847,2687 845,2689 845,2691 844,2692 844,2702 845,2703 845,2750 844,2751 844,2761 845,2762 845,2775 846,2776 846,2777 845,2778 845,2787 844,2788 844,2815 843,2816 843,2818 842,2819 842,2822 841,2823 841,2856 842,2857 842,2869 841,2870 841,2910 840,2911 840,2915 839,2916 839,2927 840,2928 840,2997 841,2998 841,3012 840,3013 840,3017 841,3018 841,3026 842,3027 842,3037 843,3038 843,3040 845,3042 846,3042 847,3043 848,3043 849,3044 854,3044 855,3045 878,3045 879,3044 907,3044 908,3045 914,3045 915,3044 930,3044 931,3043 950,3043 951,3042 972,3042 973,3041 988,3041 989,3042 993,3042 994,3041 1000,3041 1001,3040 1014,3040 1015,3039 1016,3039 1017,3040 1027,3040 1028,3041 1035,3041 1036,3042 1096,3042 1097,3043 1106,3043 1107,3042 1131,3042 1132,3043 1142,3043 1143,3042 1155,3042 1156,3043 1297,3043 1298,3044 1347,3044 1348,3045 1355,3045 1356,3044 1382,3044 1383,3043 1386,3043 1387,3044 1391,3044 1392,3045 1424,3045 1425,3044 1442,3044 1443,3045 1502,3045 1503,3046 1508,3046 1509,3045 1597,3045 1598,3044 1601,3044 1602,3043 1603,3043 1604,3042 1605,3042 1607,3040 1607,3039 1608,3038 1608,3034 1609,3033 1609,2986 1610,2985 1610,2974 1609,2973 1609,2947 1608,2946 1608,2941 1609,2940 1609,2785 1608,2784 1608,2734 1607,2733 1607,2728 1608,2727 1608,2700 1607,2699 1607,2694 1606,2693 1606,2692 1602,2688 1601,2688 1600,2687 1595,2687 1594,2688 1584,2688 1583,2689 1567,2689 1566,2690 1560,2690 1559,2689 1551,2689 1550,2690 1545,2690 1544,2691 1536,2691 1535,2690 1529,2690 1528,2689 1524,2689 1523,2690 1514,2690 1513,2689 1502,2689 1501,2690 1495,2690 1494,2691 1493,2690 1487,2690 1486,2689 1483,2689 1482,2688 1438,2688 1437,2687 1432,2687 1431,2686 1425,2686 1424,2685 1343,2685 1342,2686 1305,2686 1304,2685 1301,2685 1300,2686 1289,2686 1288,2687 1232,2687 1231,2688 1150,2688 1149,2687 1148,2687 1147,2688 1101,2688 1100,2687 1074,2687 1073,2688 1070,2688 1069,2689 1068,2689 1067,2690 1067,2691 1066,2692 1066,2693 1065,2694 1065,2696 1064,2697 1064,2715 1065,2716 1065,2753 1066,2754 1066,2759 1067,2760 1067,2795 1066,2796 1066,2805 1065,2806 1065,2808 1063,2810 1060,2810 1059,2809 1056,2809 1055,2808 1054,2808 1049,2803 1049,2795 1050,2794 1050,2789 1051,2788 1051,2787 1050,2786 1050,2779 1049,2778 1049,2777 1047,2775 1047,2774 1046,2773 1046,2772 1045,2771 1045,2769 1044,2768 1044,2763 1045,2762 1045,2759 1046,2758 1046,2756 1047,2755 1047,2752 1048,2751 1048,2750 1049,2749 1049,2748 1051,2746 1051,2745 1053,2743 1053,2741 1050,2738 1050,2737 1048,2735 1048,2734 1047,2733 1047,2731 1046,2730 1046,2723 1047,2722 1047,2709 1046,2708 1046,2707 1047,2706 1047,2700 1048,2699 1048,2697 1049,2696 1049,2695 1047,2693 1045,2693 1044,2692 1041,2692 1040,2691 1038,2691 1037,2692 1028,2692 1027,2691 1026,2691 1025,2690 1023,2690 1022,2689 1021,2689 1020,2688 1009,2688 1008,2689 1006,2689 1005,2688 1004,2688 1000,2684 997,2684 996,2683 992,2683 991,2682 986,2682 985,2681 979,2681 978,2680 975,2680 974,2679 972,2679 971,2678 969,2678 968,2677 967,2677 966,2678 962,2678 961,2679 958,2679 957,2680 953,2680 952,2681 939,2681 938,2680 934,2680 933,2679 932,2679 931,2678 929,2678 928,2677 926,2677 925,2676" fill="rgba(57,21,252,0.3)" stroke="rgb(57,21,252)" stroke-width="2" data-block-id="0010" data-name="b-0012" /><text x="1127" y="2806" text-anchor="middle" dominant-baseline="middle" class="block-label" fill="rgb(57,21,252)" stroke="white" stroke-width="3" paint-order="stroke">b-0012</text><polygon points="2806,2664 2805,2665 2751,2665 2750,2666 2748,2666 2747,2667 2746,2667 2745,2668 2744,2668 2743,2669 2743,2670 2742,2671 2742,2696 2741,2697 2741,2748 2740,2749 2740,2775 2741,2776 2741,2834 2740,2835 2740,2849 2739,2850 2739,2871 2740,2872 2740,2904 2739,2905 2739,2911 2740,2912 2740,2964 2741,2965 2741,2972 2740,2973 2740,3008 2741,3009 2741,3019 2742,3020 2742,3025 2743,3026 2743,3028 2745,3030 2745,3031 2746,3031 2748,3033 2750,3033 2751,3034 2757,3034 2758,3035 2802,3035 2803,3036 2817,3036 2818,3035 2821,3035 2822,3034 2830,3034 2831,3033 2899,3033 2900,3034 2926,3034 2927,3033 2934,3033 2935,3034 2953,3034 2954,3035 2958,3035 2959,3034 2993,3034 2994,3035 3031,3035 3032,3036 3038,3036 3039,3037 3041,3037 3042,3038 3043,3038 3044,3039 3046,3039 3047,3040 3048,3040 3049,3041 3094,3041 3095,3042 3128,3042 3129,3041 3140,3041 3141,3042 3168,3042 3169,3041 3172,3041 3173,3040 3174,3040 3175,3039 3176,3039 3177,3038 3179,3038 3180,3037 3219,3037 3220,3036 3237,3036 3238,3037 3283,3037 3284,3038 3319,3038 3320,3037 3326,3037 3327,3038 3352,3038 3353,3039 3375,3039 3376,3040 3381,3040 3382,3041 3385,3041 3386,3042 3389,3042 3390,3043 3394,3043 3395,3044 3407,3044 3408,3045 3417,3045 3418,3046 3456,3046 3457,3047 3469,3047 3470,3046 3471,3046 3472,3045 3473,3045 3476,3042 3476,3041 3477,3040 3477,3038 3478,3037 3478,3030 3479,3029 3479,3022 3478,3021 3478,2982 3477,2981 3477,2968 3476,2967 3476,2963 3477,2962 3477,2929 3476,2928 3476,2913 3477,2912 3477,2893 3476,2892 3476,2865 3477,2864 3477,2852 3478,2851 3478,2842 3477,2841 3477,2816 3478,2815 3478,2805 3479,2804 3479,2798 3478,2797 3478,2786 3477,2785 3477,2711 3478,2710 3478,2681 3477,2680 3477,2679 3475,2677 3475,2676 3473,2674 3472,2674 3470,2672 3469,2672 3468,2671 3463,2671 3462,2672 3456,2672 3455,2673 3453,2673 3452,2672 3393,2672 3392,2673 3391,2673 3390,2674 3388,2674 3387,2675 3386,2675 3385,2676 3341,2676 3340,2677 3331,2677 3330,2676 3302,2676 3301,2675 3298,2675 3297,2676 3282,2676 3281,2675 3211,2675 3210,2674 3185,2674 3184,2673 3174,2673 3173,2672 3168,2672 3167,2671 3163,2671 3162,2670 3154,2670 3153,2669 3138,2669 3137,2670 3130,2670 3129,2669 3102,2669 3101,2670 3088,2670 3087,2669 3048,2669 3047,2670 3043,2670 3042,2671 3031,2671 3030,2672 3025,2672 3024,2671 3009,2671 3008,2672 2995,2672 2994,2671 2989,2671 2988,2672 2924,2672 2923,2671 2915,2671 2914,2672 2901,2672 2900,2671 2890,2671 2889,2672 2880,2672 2879,2671 2854,2671 2853,2670 2843,2670 2842,2669 2835,2669 2834,2668 2828,2668 2827,2667 2823,2667 2822,2666 2819,2666 2818,2665 2815,2665 2814,2664" fill="rgba(235,88,48,0.3)" stroke="rgb(235,88,48)" stroke-width="2" data-block-id="0011" data-name="b-0013" /><text x="3126" y="2855" text-anchor="middle" dominant-baseline="middle" class="block-label" fill="rgb(235,88,48)" stroke="white" stroke-width="3" paint-order="stroke">b-0013</text><polygon points="2431,1732 2430,1733 2402,1733 2401,1734 2321,1734 2320,1733 2311,1733 2310,1734 2286,1734 2285,1735 2272,1735 2271,1736 2263,1736 2262,1737 2259,1737 2258,1738 2247,1738 2246,1737 2225,1737 2224,1738 2003,1738 2002,1739 1935,1739 1934,1738 1889,1738 1888,1737 1852,1737 1851,1738 1844,1738 1843,1737 1802,1737 1801,1738 1790,1738 1789,1737 1778,1737 1777,1738 1774,1738 1772,1740 1771,1740 1769,1742 1769,1760 1768,1761 1768,1830 1767,1831 1767,1905 1768,1906 1768,1939 1767,1940 1767,1956 1768,1957 1768,1959 1767,1960 1767,2079 1766,2080 1766,2090 1767,2091 1767,2093 1768,2094 1768,2096 1771,2099 1772,2099 1773,2100 1774,2100 1775,2101 1792,2101 1793,2102 1855,2102 1856,2103 1881,2103 1882,2102 1976,2102 1977,2101 2005,2101 2006,2100 2066,2100 2067,2101 2086,2101 2087,2100 2144,2100 2145,2101 2164,2101 2165,2100 2191,2100 2192,2099 2197,2099 2198,2100 2208,2100 2209,2101 2214,2101 2215,2102 2218,2102 2219,2103 2225,2103 2226,2104 2233,2104 2234,2105 2240,2105 2241,2106 2393,2106 2394,2105 2401,2105 2402,2106 2416,2106 2417,2105 2473,2105 2474,2104 2487,2104 2488,2103 2492,2103 2493,2102 2494,2102 2495,2101 2495,2100 2497,2098 2497,2097 2498,2096 2498,2095 2499,2094 2499,2092 2500,2091 2500,2088 2501,2087 2501,2086 2500,2085 2500,2059 2499,2058 2499,2012 2498,2011 2498,2000 2499,1999 2499,1986 2498,1985 2498,1909 2497,1908 2497,1803 2498,1802 2498,1800 2497,1799 2497,1761 2496,1760 2496,1742 2495,1741 2495,1740 2491,1736 2489,1736 2488,1735 2486,1735 2485,1734 2482,1734 2481,1733 2471,1733 2470,1732" fill="rgba(218,58,254,0.3)" stroke="rgb(218,58,254)" stroke-width="2" data-block-id="0012" data-name="b-0014" /><text x="2176" y="1939" text-anchor="middle" dominant-baseline="middle" class="block-label" fill="rgb(218,58,254)" stroke="white" stroke-width="3" paint-order="stroke">b-0014</text><polygon points="1562,786 1561,787 1559,787 1558,788 1556,788 1555,789 1553,789 1552,790 1539,790 1538,789 1534,789 1533,788 1502,788 1501,789 1457,789 1456,790 1445,790 1444,791 1417,791 1416,792 1407,792 1406,791 1378,791 1377,792 1370,792 1369,791 1354,791 1353,792 1348,792 1347,791 1335,791 1334,792 1284,792 1283,793 1191,793 1190,794 1176,794 1175,793 1147,793 1146,794 1096,794 1095,795 1044,795 1043,796 1039,796 1038,795 1000,795 999,794 976,794 975,795 968,795 967,796 902,796 901,797 894,797 893,796 874,796 873,797 872,797 869,800 869,801 868,802 868,836 867,837 867,842 868,843 868,852 867,853 867,875 868,876 868,898 867,899 867,900 868,901 868,914 867,915 867,920 866,921 866,935 867,936 867,964 868,965 868,992 867,993 867,1015 866,1016 866,1044 865,1045 865,1069 864,1070 864,1106 863,1107 863,1139 864,1140 864,1142 865,1143 865,1144 866,1145 866,1146 869,1149 870,1149 871,1150 874,1150 875,1151 921,1151 922,1150 953,1150 954,1151 971,1151 972,1150 992,1150 993,1151 1016,1151 1017,1150 1094,1150 1095,1151 1134,1151 1135,1152 1142,1152 1143,1153 1151,1153 1152,1154 1237,1154 1238,1153 1288,1153 1289,1152 1298,1152 1299,1153 1334,1153 1335,1152 1353,1152 1354,1153 1371,1153 1372,1152 1413,1152 1414,1151 1421,1151 1422,1150 1475,1150 1476,1149 1481,1149 1482,1148 1487,1148 1488,1147 1496,1147 1497,1148 1502,1148 1503,1149 1507,1149 1508,1150 1517,1150 1518,1151 1560,1151 1561,1150 1594,1150 1595,1149 1598,1149 1599,1148 1600,1148 1601,1147 1602,1147 1603,1146 1604,1146 1605,1145 1606,1145 1608,1143 1609,1143 1610,1142 1610,1141 1611,1140 1611,1139 1612,1138 1612,1137 1613,1136 1613,1130 1612,1129 1612,1094 1611,1093 1611,1089 1610,1088 1610,1080 1609,1079 1609,1067 1608,1066 1609,1065 1609,1059 1610,1058 1610,1050 1609,1049 1609,1047 1608,1046 1608,1043 1607,1042 1607,1024 1608,1023 1608,1018 1609,1017 1609,1012 1610,1011 1610,1003 1609,1002 1609,1000 1608,999 1608,997 1607,996 1607,992 1606,991 1606,966 1607,965 1607,944 1606,943 1606,929 1607,928 1607,925 1608,924 1608,921 1609,920 1609,902 1608,901 1608,890 1607,889 1607,885 1608,884 1608,879 1609,878 1609,874 1610,873 1610,867 1611,866 1611,858 1612,857 1612,848 1613,847 1613,828 1612,827 1612,822 1611,821 1611,818 1610,817 1610,814 1609,813 1609,812 1608,811 1608,809 1607,808 1607,806 1606,805 1606,803 1605,802 1605,800 1604,799 1604,797 1603,796 1603,794 1602,793 1602,792 1601,792 1599,790 1597,790 1596,789 1591,789 1590,788 1579,788 1578,789 1577,788 1571,788 1570,787 1567,787 1566,786" fill="rgba(169,219,187,0.3)" stroke="rgb(169,219,187)" stroke-width="2" data-block-id="0013" data-name="b-0015" /><text x="1347" y="960" text-anchor="middle" dominant-baseline="middle" class="block-label" fill="rgb(169,219,187)" stroke="white" stroke-width="3" paint-order="stroke">b-0015</text><polygon points="3299,315 3298,316 3293,316 3292,317 3284,317 3283,316 3270,316 3269,317 3256,317 3255,316 3250,316 3249,317 3225,317 3224,318 3214,318 3213,317 3208,317 3207,316 3190,316 3189,317 3182,317 3181,318 3177,318 3176,319 3172,319 3171,320 3113,320 3112,321 3092,321 3091,320 3080,320 3079,321 3068,321 3067,322 3060,322 3059,321 3058,321 3057,320 3053,320 3052,319 3034,319 3033,320 2997,320 2996,319 2986,319 2985,320 2980,320 2979,321 2964,321 2963,320 2959,320 2958,319 2947,319 2946,320 2941,320 2940,321 2938,321 2937,322 2935,322 2934,323 2932,323 2931,324 2928,324 2927,325 2923,325 2922,326 2919,326 2918,325 2917,325 2915,323 2914,323 2913,322 2912,322 2911,321 2910,321 2909,320 2907,320 2906,319 2904,319 2903,318 2901,318 2900,317 2898,317 2897,316 2896,316 2895,317 2894,317 2893,318 2892,318 2891,319 2889,319 2888,320 2885,320 2884,321 2867,321 2866,322 2835,322 2834,323 2826,323 2825,324 2821,324 2820,323 2808,323 2807,324 2796,324 2795,325 2782,325 2781,326 2757,326 2756,327 2752,327 2751,328 2750,328 2749,329 2748,329 2744,333 2744,334 2743,335 2743,336 2742,337 2742,352 2741,353 2741,379 2740,380 2740,405 2739,406 2739,418 2740,419 2740,443 2741,444 2741,447 2740,448 2740,458 2739,459 2740,460 2740,481 2741,482 2741,491 2742,492 2742,495 2741,496 2741,526 2740,527 2740,549 2741,550 2741,555 2740,556 2740,562 2739,563 2739,585 2740,586 2740,602 2741,603 2741,632 2742,633 2742,641 2741,642 2741,654 2742,655 2742,677 2743,678 2743,682 2744,683 2744,685 2747,688 2748,688 2750,690 2761,690 2762,689 2876,689 2877,688 2916,688 2917,687 2935,687 2936,686 3022,686 3023,685 3035,685 3036,686 3037,686 3038,685 3042,685 3043,684 3045,684 3046,683 3047,683 3048,682 3054,682 3055,683 3058,683 3059,684 3065,684 3066,685 3081,685 3082,684 3091,684 3092,683 3114,683 3115,682 3126,682 3127,683 3158,683 3159,682 3164,682 3165,681 3173,681 3174,682 3186,682 3187,681 3200,681 3201,682 3207,682 3208,681 3214,681 3215,680 3249,680 3250,681 3254,681 3255,680 3266,680 3267,679 3282,679 3283,678 3293,678 3294,679 3323,679 3324,678 3342,678 3343,679 3366,679 3367,680 3378,680 3379,679 3404,679 3405,678 3426,678 3427,677 3435,677 3436,678 3465,678 3466,677 3467,677 3470,674 3470,673 3471,672 3471,669 3472,668 3472,664 3473,663 3473,645 3472,644 3472,626 3471,625 3471,622 3472,621 3472,579 3471,578 3471,572 3472,571 3472,558 3471,557 3471,498 3472,497 3472,429 3473,428 3473,415 3472,414 3472,341 3471,340 3471,328 3470,327 3470,322 3469,321 3469,319 3468,318 3468,317 3467,317 3466,316 3463,316 3462,317 3447,317 3446,316 3438,316 3437,317 3422,317 3421,316 3418,316 3417,317 3411,317 3410,318 3404,318 3403,317 3398,317 3397,316 3393,316 3392,317 3388,317 3387,318 3379,318 3378,317 3364,317 3363,318 3357,318 3356,317 3351,317 3350,316 3343,316 3342,317 3307,317 3306,316 3300,316" fill="rgba(207,14,189,0.3)" stroke="rgb(207,14,189)" stroke-width="2" data-block-id="0014" data-name="b-0016" /><text x="3090" y="461" text-anchor="middle" dominant-baseline="middle" class="block-label" fill="rgb(207,14,189)" stroke="white" stroke-width="3" paint-order="stroke">b-0016</text><polygon points="3309,789 3308,790 3306,790 3305,791 3304,791 3302,793 3296,793 3295,792 3293,792 3292,791 3288,791 3287,790 3274,790 3273,791 3269,791 3268,792 3256,792 3255,791 3210,791 3209,792 3201,792 3200,791 3198,791 3197,790 3184,790 3183,791 3165,791 3164,790 3149,790 3148,791 3127,791 3126,792 3117,792 3116,791 3104,791 3103,792 3078,792 3077,793 3066,793 3065,792 3048,792 3047,793 3044,793 3043,794 3041,794 3040,795 3038,795 3037,796 3034,796 3033,795 3022,795 3021,794 3017,794 3016,793 3011,793 3010,794 2986,794 2985,795 2974,795 2973,794 2961,794 2960,795 2936,795 2935,796 2931,796 2930,795 2887,795 2886,796 2875,796 2874,797 2869,797 2868,796 2855,796 2854,795 2846,795 2845,796 2838,796 2837,797 2834,797 2833,796 2818,796 2817,797 2782,797 2781,798 2752,798 2751,799 2749,799 2748,800 2747,800 2745,802 2745,803 2744,804 2744,808 2743,809 2743,832 2742,833 2742,850 2743,851 2743,872 2744,873 2744,876 2743,877 2743,896 2744,897 2744,901 2743,902 2743,942 2744,943 2744,976 2743,977 2743,983 2744,984 2744,996 2743,997 2743,1022 2742,1023 2742,1027 2741,1028 2741,1032 2742,1033 2742,1049 2743,1050 2743,1070 2742,1071 2742,1086 2743,1087 2743,1099 2742,1100 2742,1124 2743,1125 2743,1136 2744,1137 2744,1144 2745,1145 2745,1148 2746,1149 2746,1150 2750,1154 2751,1154 2752,1155 2756,1155 2757,1156 2769,1156 2770,1155 2774,1155 2775,1154 2779,1154 2780,1155 2786,1155 2787,1156 2791,1156 2792,1155 2803,1155 2804,1156 2818,1156 2819,1155 2831,1155 2832,1156 2842,1156 2843,1155 2851,1155 2852,1156 2864,1156 2865,1155 2872,1155 2873,1154 2874,1155 2881,1155 2882,1156 2885,1156 2886,1155 2903,1155 2904,1156 2910,1156 2911,1155 2917,1155 2918,1154 2921,1154 2922,1155 2949,1155 2950,1156 2958,1156 2959,1155 2967,1155 2968,1154 2969,1155 3012,1155 3013,1154 3017,1154 3018,1155 3032,1155 3033,1156 3054,1156 3055,1155 3059,1155 3060,1154 3064,1154 3065,1155 3072,1155 3073,1156 3076,1156 3077,1155 3093,1155 3094,1156 3101,1156 3102,1155 3203,1155 3204,1154 3207,1154 3208,1155 3235,1155 3236,1156 3245,1156 3246,1155 3297,1155 3298,1154 3304,1154 3305,1155 3321,1155 3322,1154 3328,1154 3329,1155 3337,1155 3338,1154 3392,1154 3393,1153 3396,1153 3397,1154 3415,1154 3416,1155 3434,1155 3435,1156 3449,1156 3450,1155 3461,1155 3462,1156 3467,1156 3472,1151 3472,1150 3473,1149 3473,1143 3472,1142 3472,1108 3473,1107 3473,1097 3472,1096 3472,1044 3471,1043 3471,1037 3472,1036 3472,1023 3471,1022 3471,1014 3472,1013 3472,999 3471,998 3471,986 3472,985 3472,974 3471,973 3471,962 3472,961 3472,959 3471,958 3471,940 3472,939 3472,891 3473,890 3473,884 3472,883 3472,854 3471,853 3471,844 3472,843 3472,808 3473,807 3473,803 3472,802 3472,798 3471,797 3471,794 3470,793 3470,792 3468,790 3465,790 3464,789 3419,789 3418,790 3402,790 3401,789 3380,789 3379,790 3321,790 3320,789" fill="rgba(50,107,54,0.3)" stroke="rgb(50,107,54)" stroke-width="2" data-block-id="0015" data-name="b-0018" /><text x="3077" y="973" text-anchor="middle" dominant-baseline="middle" class="block-label" fill="rgb(50,107,54)" stroke="white" stroke-width="3" paint-order="stroke">b-0018</text><polygon points="1806,788 1805,789 1794,789 1793,790 1779,790 1778,791 1776,791 1775,792 1774,792 1773,793 1773,794 1772,795 1772,797 1771,798 1771,806 1770,807 1770,907 1769,908 1769,929 1770,930 1770,941 1771,942 1771,990 1770,991 1770,995 1771,996 1771,1014 1772,1015 1772,1091 1771,1092 1771,1140 1772,1141 1772,1144 1773,1145 1773,1146 1776,1149 1777,1149 1778,1150 1784,1150 1785,1151 1830,1151 1831,1152 1853,1152 1854,1153 1902,1153 1903,1154 1915,1154 1916,1153 2008,1153 2009,1152 2050,1152 2051,1153 2107,1153 2108,1154 2133,1154 2134,1153 2164,1153 2165,1154 2180,1154 2181,1153 2183,1153 2184,1154 2195,1154 2196,1155 2199,1155 2200,1154 2210,1154 2211,1153 2215,1153 2216,1152 2226,1152 2227,1153 2260,1153 2261,1154 2318,1154 2319,1153 2333,1153 2334,1154 2352,1154 2353,1153 2357,1153 2358,1152 2412,1152 2413,1153 2428,1153 2429,1152 2444,1152 2445,1153 2477,1153 2478,1152 2483,1152 2484,1151 2488,1151 2489,1150 2491,1150 2493,1148 2493,1147 2494,1146 2494,1142 2495,1141 2495,1122 2494,1121 2494,1103 2495,1102 2495,1092 2494,1091 2494,1085 2495,1084 2495,1078 2494,1077 2494,1005 2495,1004 2495,964 2496,963 2496,943 2495,942 2495,910 2494,909 2494,831 2493,830 2493,825 2494,824 2494,808 2495,807 2495,803 2494,802 2494,799 2492,797 2492,796 2491,796 2490,795 2489,795 2488,794 2485,794 2484,793 2479,793 2478,792 2431,792 2430,791 2387,791 2386,792 2364,792 2363,791 2358,791 2357,790 2189,790 2188,789 2178,789 2177,790 2165,790 2164,789 2129,789 2128,788 2112,788 2111,789 2045,789 2044,790 2006,790 2005,791 1848,791 1847,790 1828,790 1827,789 1819,789 1818,788" fill="rgba(243,63,248,0.3)" stroke="rgb(243,63,248)" stroke-width="2" data-block-id="0016" data-name="b-0019" /><text x="2165" y="988" text-anchor="middle" dominant-baseline="middle" class="block-label" fill="rgb(243,63,248)" stroke="white" stroke-width="3" paint-order="stroke">b-0019</text><polygon points="1787,312 1786,313 1780,313 1779,314 1777,314 1776,315 1775,315 1774,316 1773,316 1772,317 1772,318 1771,319 1771,324 1770,325 1770,384 1771,385 1770,386 1770,389 1769,390 1769,391 1768,392 1768,393 1767,394 1767,395 1766,396 1766,399 1765,400 1766,401 1766,408 1767,409 1767,412 1768,413 1768,415 1769,416 1769,418 1770,419 1770,424 1771,425 1771,447 1770,448 1770,477 1769,478 1769,491 1770,492 1770,514 1771,515 1771,523 1770,524 1770,536 1771,537 1771,593 1770,594 1770,605 1769,606 1769,626 1770,627 1770,666 1771,667 1771,671 1772,672 1772,673 1773,674 1774,674 1776,676 1790,676 1791,677 1800,677 1801,678 1823,678 1824,677 1838,677 1839,676 1840,676 1841,677 1917,677 1918,678 1924,678 1925,677 1957,677 1958,678 1960,678 1961,677 2073,677 2074,678 2093,678 2094,677 2118,677 2119,678 2140,678 2141,677 2166,677 2167,678 2190,678 2191,677 2214,677 2215,678 2237,678 2238,677 2259,677 2260,678 2299,678 2300,677 2301,678 2318,678 2319,677 2322,677 2323,676 2332,676 2333,677 2354,677 2355,678 2377,678 2378,677 2403,677 2404,678 2424,678 2425,677 2473,677 2474,676 2478,676 2479,675 2484,675 2485,674 2488,674 2489,673 2491,673 2493,671 2493,670 2494,669 2494,665 2495,664 2495,660 2496,659 2496,657 2495,656 2495,593 2494,592 2494,584 2495,583 2495,574 2494,573 2494,544 2493,543 2493,537 2494,536 2494,521 2495,520 2495,501 2494,500 2494,492 2495,491 2495,481 2496,480 2496,452 2495,451 2495,432 2496,431 2496,404 2495,403 2495,389 2496,388 2496,357 2495,356 2495,328 2494,327 2494,326 2491,323 2488,323 2487,322 2483,322 2482,321 2476,321 2475,320 2466,320 2465,319 2459,319 2458,318 2452,318 2451,319 2441,319 2440,318 2426,318 2425,319 2418,319 2417,318 2399,318 2398,319 2395,319 2394,318 2376,318 2375,319 2372,319 2371,318 2364,318 2363,317 2356,317 2355,318 2344,318 2343,317 2337,317 2336,318 2334,318 2333,319 2330,319 2329,320 2322,320 2321,319 2320,319 2319,318 2317,318 2316,317 2315,317 2314,316 2246,316 2245,317 2233,317 2232,318 2228,318 2227,317 2188,317 2187,318 2178,318 2177,317 2140,317 2139,318 2132,318 2131,317 2117,317 2116,318 2105,318 2104,317 2094,317 2093,318 2084,318 2083,317 2044,317 2043,318 2035,318 2034,317 2023,317 2022,318 1962,318 1961,317 1917,317 1916,316 1906,316 1905,317 1888,317 1887,316 1855,316 1854,315 1831,315 1830,314 1808,314 1807,313 1801,313 1800,312" fill="rgba(130,228,50,0.3)" stroke="rgb(130,228,50)" stroke-width="2" data-block-id="0017" data-name="b-0020" /><text x="2140" y="469" text-anchor="middle" dominant-baseline="middle" class="block-label" fill="rgb(130,228,50)" stroke="white" stroke-width="3" paint-order="stroke">b-0020</text><polygon points="2069,1260 2068,1261 2052,1261 2051,1262 2041,1262 2040,1263 2025,1263 2024,1264 2010,1264 2009,1265 1995,1265 1994,1264 1931,1264 1930,1263 1924,1263 1923,1262 1918,1262 1917,1263 1895,1263 1894,1264 1881,1264 1880,1263 1830,1263 1829,1262 1813,1262 1812,1263 1776,1263 1775,1264 1774,1264 1772,1266 1772,1267 1771,1268 1771,1273 1770,1274 1770,1319 1771,1320 1771,1328 1770,1329 1770,1351 1771,1352 1771,1367 1772,1368 1772,1372 1773,1373 1773,1379 1772,1380 1772,1386 1771,1387 1771,1393 1770,1394 1770,1400 1771,1401 1771,1403 1772,1404 1772,1405 1773,1406 1773,1408 1774,1409 1774,1412 1773,1413 1773,1415 1772,1416 1772,1418 1771,1419 1771,1425 1772,1426 1772,1431 1773,1432 1772,1433 1772,1438 1771,1439 1771,1442 1770,1443 1770,1449 1771,1450 1771,1454 1772,1455 1772,1460 1771,1461 1771,1466 1770,1467 1770,1469 1771,1470 1771,1473 1772,1474 1772,1475 1773,1476 1773,1478 1774,1479 1774,1483 1773,1484 1773,1486 1772,1487 1772,1488 1771,1489 1771,1491 1770,1492 1770,1497 1771,1498 1771,1550 1770,1551 1770,1596 1771,1597 1771,1613 1772,1614 1772,1615 1773,1616 1773,1617 1775,1619 1776,1619 1777,1620 1778,1620 1779,1621 1785,1621 1786,1622 1811,1622 1812,1621 1877,1621 1878,1620 1900,1620 1901,1621 2004,1621 2005,1622 2047,1622 2048,1623 2060,1623 2061,1624 2087,1624 2088,1623 2136,1623 2137,1622 2138,1623 2168,1623 2169,1624 2173,1624 2174,1623 2241,1623 2242,1622 2321,1622 2322,1621 2332,1621 2333,1622 2344,1622 2345,1621 2365,1621 2366,1620 2377,1620 2378,1621 2411,1621 2412,1620 2437,1620 2438,1619 2471,1619 2472,1618 2486,1618 2487,1617 2491,1617 2492,1616 2493,1616 2497,1612 2497,1565 2496,1564 2496,1547 2495,1546 2495,1535 2496,1534 2496,1471 2495,1470 2495,1466 2496,1465 2496,1451 2495,1450 2495,1444 2496,1443 2496,1367 2497,1366 2497,1361 2496,1360 2496,1341 2497,1340 2497,1306 2496,1305 2496,1300 2497,1299 2497,1276 2496,1275 2496,1268 2495,1267 2495,1266 2493,1264 2492,1264 2491,1263 2488,1263 2487,1262 2476,1262 2475,1261 2358,1261 2357,1262 2351,1262 2350,1263 2343,1263 2342,1264 2336,1264 2335,1263 2330,1263 2329,1262 2202,1262 2201,1263 2164,1263 2163,1262 2147,1262 2146,1263 2134,1263 2133,1262 2131,1262 2130,1261 2126,1261 2125,1260 2120,1260 2119,1261 2092,1261 2091,1260" fill="rgba(134,20,72,0.3)" stroke="rgb(134,20,72)" stroke-width="2" data-block-id="0018" data-name="b-0021" /><text x="2054" y="1426" text-anchor="middle" dominant-baseline="middle" class="block-label" fill="rgb(134,20,72)" stroke="white" stroke-width="3" paint-order="stroke">b-0021</text><polygon points="2133,2674 2132,2675 1941,2675 1940,2676 1890,2676 1889,2677 1877,2677 1876,2676 1844,2676 1843,2677 1833,2677 1832,2676 1796,2676 1795,2677 1784,2677 1783,2676 1775,2676 1774,2677 1766,2677 1765,2678 1763,2678 1762,2679 1761,2679 1758,2682 1758,2685 1757,2686 1757,2696 1756,2697 1756,2713 1757,2714 1757,2783 1758,2784 1758,2788 1759,2789 1759,2800 1760,2801 1760,2829 1761,2830 1761,2834 1762,2835 1762,2846 1761,2847 1761,2865 1760,2866 1760,2881 1761,2882 1761,2898 1760,2899 1760,2933 1759,2934 1759,2939 1758,2940 1758,2951 1759,2952 1759,2983 1758,2984 1758,3021 1759,3022 1759,3034 1760,3035 1760,3037 1761,3038 1761,3039 1762,3040 1763,3040 1764,3041 1767,3041 1768,3042 1817,3042 1818,3043 1879,3043 1880,3044 1954,3044 1955,3045 2121,3045 2122,3046 2125,3046 2126,3045 2142,3045 2143,3046 2151,3046 2152,3045 2158,3045 2159,3044 2161,3044 2163,3042 2164,3042 2165,3041 2165,3040 2167,3038 2167,3031 2168,3030 2168,2953 2169,2952 2169,2951 2173,2947 2174,2947 2175,2948 2227,2948 2228,2947 2251,2947 2252,2946 2253,2946 2254,2947 2256,2947 2257,2948 2259,2948 2260,2949 2261,2949 2262,2950 2263,2950 2264,2951 2265,2951 2266,2952 2269,2952 2270,2953 2273,2953 2274,2954 2275,2954 2277,2956 2277,2971 2278,2972 2278,2984 2279,2985 2279,3016 2280,3017 2280,3018 2281,3019 2281,3021 2282,3022 2282,3023 2283,3024 2283,3025 2284,3026 2284,3029 2285,3030 2285,3038 2286,3039 2286,3040 2288,3042 2290,3042 2291,3043 2296,3043 2297,3042 2305,3042 2306,3043 2322,3043 2323,3042 2327,3042 2328,3043 2358,3043 2359,3044 2363,3044 2364,3043 2374,3043 2375,3042 2390,3042 2391,3041 2399,3041 2400,3042 2407,3042 2408,3043 2411,3043 2412,3042 2430,3042 2431,3043 2436,3043 2437,3042 2447,3042 2448,3043 2467,3043 2468,3042 2471,3042 2472,3041 2474,3041 2475,3040 2476,3040 2478,3038 2479,3038 2479,3037 2480,3036 2480,3034 2481,3033 2481,3031 2482,3030 2482,3029 2483,3028 2484,3028 2485,3027 2486,3027 2487,3026 2488,3026 2489,3025 2490,3025 2493,3022 2493,3021 2494,3020 2494,3019 2495,3018 2495,3015 2496,3014 2496,3010 2495,3009 2495,2980 2496,2979 2496,2978 2495,2977 2495,2961 2496,2960 2496,2955 2495,2954 2495,2903 2494,2902 2494,2893 2495,2892 2495,2882 2496,2881 2496,2873 2497,2872 2497,2859 2496,2858 2496,2810 2495,2809 2495,2790 2496,2789 2496,2780 2497,2779 2497,2759 2496,2758 2496,2745 2497,2744 2497,2740 2496,2739 2496,2712 2495,2711 2495,2700 2496,2699 2496,2692 2495,2691 2495,2688 2494,2687 2494,2685 2492,2683 2492,2682 2491,2681 2490,2681 2489,2680 2487,2680 2486,2679 2483,2679 2482,2678 2478,2678 2477,2677 2435,2677 2434,2676 2400,2676 2399,2677 2395,2677 2394,2676 2329,2676 2328,2677 2307,2677 2306,2678 2289,2678 2288,2679 2287,2679 2286,2680 2285,2680 2283,2682 2283,2683 2282,2684 2282,2687 2281,2688 2281,2709 2280,2710 2280,2716 2279,2717 2279,2727 2278,2728 2278,2731 2279,2732 2279,2761 2280,2762 2280,2766 2279,2767 2279,2771 2278,2772 2278,2774 2276,2776 2266,2776 2265,2777 2263,2777 2262,2778 2261,2778 2260,2779 2259,2779 2256,2782 2255,2782 2254,2783 2250,2783 2249,2782 2237,2782 2236,2783 2222,2783 2221,2782 2217,2782 2216,2783 2212,2783 2211,2784 2196,2784 2195,2783 2181,2783 2180,2782 2174,2782 2173,2781 2172,2781 2171,2780 2171,2779 2170,2778 2170,2777 2169,2776 2169,2771 2168,2770 2168,2758 2167,2757 2167,2707 2168,2706 2168,2691 2167,2690 2167,2684 2166,2683 2166,2681 2165,2680 2165,2679 2163,2677 2162,2677 2161,2676 2159,2676 2158,2675 2151,2675 2150,2674" fill="rgba(166,17,131,0.3)" stroke="rgb(166,17,131)" stroke-width="2" data-block-id="0019" data-name="b-0022" /><text x="2214" y="2870" text-anchor="middle" dominant-baseline="middle" class="block-label" fill="rgb(166,17,131)" stroke="white" stroke-width="3" paint-order="stroke">b-0022</text><polygon points="3271,1730 3270,1731 3172,1731 3171,1732 3156,1732 3155,1731 3131,1731 3130,1732 3080,1732 3079,1731 3071,1731 3070,1732 3053,1732 3052,1731 3048,1731 3047,1732 3005,1732 3004,1731 3001,1731 3000,1732 2759,1732 2758,1733 2751,1733 2750,1734 2748,1734 2747,1735 2746,1735 2745,1736 2745,1737 2744,1738 2744,1739 2743,1740 2743,1829 2744,1830 2744,1870 2743,1871 2743,1918 2742,1919 2742,1926 2743,1927 2743,1949 2744,1950 2744,1975 2743,1976 2743,2027 2742,2028 2742,2042 2743,2043 2743,2080 2744,2081 2744,2089 2749,2094 2751,2094 2752,2095 2759,2095 2760,2094 2772,2094 2773,2095 2784,2095 2785,2094 2789,2094 2790,2095 2831,2095 2832,2094 2837,2094 2838,2095 2845,2095 2846,2096 2850,2096 2851,2095 2856,2095 2857,2094 2859,2094 2860,2093 2861,2093 2862,2092 2863,2092 2864,2091 2865,2091 2866,2090 2867,2090 2869,2088 2869,2087 2870,2086 2869,2085 2869,2077 2868,2076 2868,2072 2867,2071 2867,2065 2866,2064 2866,2053 2865,2052 2865,2012 2866,2011 2866,1953 2865,1952 2865,1926 2864,1925 2864,1918 2865,1917 2865,1906 2864,1905 2864,1903 2863,1902 2863,1900 2862,1899 2862,1896 2863,1895 2863,1894 2864,1893 2864,1892 2865,1891 2865,1888 2866,1887 2866,1885 2867,1884 2867,1883 2869,1881 2869,1880 2870,1879 2872,1879 2873,1878 2875,1878 2876,1879 2886,1879 2887,1880 2906,1880 2907,1881 2924,1881 2925,1880 2940,1880 2941,1881 2970,1881 2971,1880 2983,1880 2984,1881 2988,1881 2989,1882 2993,1882 2994,1881 3006,1881 3007,1882 3008,1882 3011,1885 3011,1886 3012,1887 3012,1894 3013,1895 3013,1929 3012,1930 3012,1949 3013,1950 3013,1968 3012,1969 3012,2017 3011,2018 3011,2021 3010,2022 3010,2025 3009,2026 3009,2029 3008,2030 3008,2036 3009,2037 3009,2049 3010,2050 3010,2054 3009,2055 3009,2064 3008,2065 3008,2068 3007,2069 3007,2071 3006,2072 3006,2074 3005,2075 3005,2076 3004,2077 3004,2078 3003,2079 3002,2079 3001,2080 3000,2080 2999,2079 2997,2079 2996,2078 2995,2078 2994,2077 2993,2077 2992,2076 2991,2076 2990,2075 2977,2075 2976,2074 2968,2074 2967,2075 2962,2075 2961,2076 2960,2076 2959,2077 2957,2077 2956,2078 2953,2078 2952,2079 2950,2079 2949,2080 2946,2080 2945,2081 2943,2081 2942,2082 2931,2082 2930,2083 2910,2083 2909,2082 2908,2083 2904,2083 2903,2084 2902,2084 2900,2086 2900,2087 2903,2087 2904,2088 2915,2088 2916,2087 2922,2087 2923,2088 2945,2088 2946,2089 3002,2089 3003,2090 3009,2090 3010,2091 3013,2091 3014,2092 3015,2092 3016,2093 3019,2093 3020,2094 3031,2094 3032,2095 3178,2095 3179,2096 3180,2095 3190,2095 3191,2094 3196,2094 3197,2095 3216,2095 3217,2094 3226,2094 3227,2093 3231,2093 3232,2094 3345,2094 3346,2093 3353,2093 3354,2094 3359,2094 3360,2093 3384,2093 3385,2094 3386,2093 3440,2093 3441,2094 3445,2094 3446,2093 3456,2093 3457,2094 3468,2094 3469,2093 3471,2093 3472,2092 3473,2092 3476,2089 3476,2087 3477,2086 3477,2083 3478,2082 3478,2059 3477,2058 3477,2049 3478,2048 3478,2002 3477,2001 3477,1857 3476,1856 3476,1840 3477,1839 3477,1815 3476,1814 3476,1789 3477,1788 3477,1740 3476,1739 3476,1737 3475,1736 3475,1735 3473,1733 3472,1733 3471,1732 3469,1732 3468,1731 3312,1731 3311,1730 3308,1730 3307,1731 3299,1731 3298,1730" fill="rgba(88,59,13,0.3)" stroke="rgb(88,59,13)" stroke-width="2" data-block-id="0020" data-name="b-0023" /><text x="3022" y="1976" text-anchor="middle" dominant-baseline="middle" class="block-label" fill="rgb(88,59,13)" stroke="white" stroke-width="3" paint-order="stroke">b-0023</text><polygon points="2030,2206 2029,2207 2013,2207 2012,2208 2009,2208 2008,2209 2006,2209 2005,2210 2003,2210 2002,2211 2000,2211 1999,2212 1998,2212 1997,2213 1995,2213 1994,2214 1989,2214 1988,2215 1959,2215 1958,2214 1948,2214 1947,2213 1940,2213 1939,2212 1933,2212 1932,2213 1923,2213 1922,2214 1865,2214 1864,2213 1853,2213 1852,2214 1829,2214 1828,2213 1800,2213 1799,2212 1797,2212 1796,2213 1778,2213 1777,2214 1774,2214 1773,2215 1772,2215 1768,2219 1768,2221 1767,2222 1767,2225 1766,2226 1766,2244 1767,2245 1767,2301 1768,2302 1768,2320 1767,2321 1767,2376 1766,2377 1766,2503 1767,2504 1767,2509 1766,2510 1766,2531 1767,2532 1767,2543 1766,2544 1766,2555 1765,2556 1765,2560 1766,2561 1766,2564 1767,2565 1767,2566 1768,2567 1768,2568 1773,2573 1774,2573 1775,2574 1776,2574 1777,2575 1780,2575 1781,2576 1833,2576 1834,2575 1859,2575 1860,2576 1906,2576 1907,2575 1960,2575 1961,2576 1982,2576 1983,2577 2010,2577 2011,2578 2027,2578 2028,2579 2099,2579 2100,2580 2112,2580 2113,2581 2128,2581 2129,2582 2148,2582 2149,2581 2154,2581 2155,2580 2157,2580 2158,2579 2159,2579 2160,2578 2161,2578 2165,2574 2165,2573 2166,2572 2166,2571 2167,2570 2167,2566 2168,2565 2168,2560 2169,2559 2169,2558 2168,2557 2168,2536 2167,2535 2167,2417 2168,2416 2168,2410 2169,2409 2169,2384 2168,2383 2168,2312 2169,2311 2169,2303 2168,2302 2168,2281 2167,2280 2167,2259 2168,2258 2168,2244 2169,2243 2169,2225 2168,2224 2168,2222 2167,2221 2167,2218 2166,2217 2166,2216 2165,2215 2165,2214 2164,2213 2163,2213 2162,2212 2161,2212 2160,2211 2158,2211 2157,2210 2154,2210 2153,2209 2101,2209 2100,2208 2063,2208 2062,2207 2038,2207 2037,2206" fill="rgba(241,249,8,0.3)" stroke="rgb(241,249,8)" stroke-width="2" data-block-id="0021" data-name="b-0024" /><text x="1984" y="2372" text-anchor="middle" dominant-baseline="middle" class="block-label" fill="rgb(241,249,8)" stroke="white" stroke-width="3" paint-order="stroke">b-0024</text><polygon points="2304,2203 2303,2204 2300,2204 2299,2205 2297,2205 2296,2206 2293,2206 2292,2207 2290,2207 2289,2208 2286,2208 2285,2209 2283,2209 2282,2210 2279,2210 2278,2211 2276,2211 2275,2212 2273,2212 2272,2213 2271,2213 2270,2214 2270,2216 2269,2217 2269,2219 2268,2220 2268,2223 2267,2224 2267,2226 2266,2227 2266,2230 2265,2231 2265,2234 2264,2235 2264,2239 2263,2240 2263,2244 2262,2245 2262,2254 2263,2255 2263,2259 2264,2260 2264,2263 2265,2264 2265,2277 2264,2278 2264,2292 2265,2293 2265,2295 2266,2296 2266,2298 2268,2300 2268,2301 2269,2302 2269,2303 2270,2304 2270,2305 2271,2306 2271,2311 2270,2312 2270,2314 2269,2315 2269,2317 2268,2318 2268,2320 2267,2321 2267,2323 2266,2324 2266,2326 2265,2327 2265,2330 2264,2331 2264,2335 2263,2336 2263,2341 2262,2342 2262,2355 2261,2356 2261,2371 2262,2372 2262,2381 2263,2382 2263,2422 2262,2423 2262,2439 2261,2440 2261,2446 2262,2447 2262,2454 2263,2455 2263,2483 2264,2484 2264,2488 2265,2489 2265,2493 2266,2494 2266,2496 2267,2497 2267,2499 2268,2500 2268,2516 2267,2517 2267,2522 2268,2523 2268,2529 2269,2530 2269,2534 2270,2535 2270,2545 2269,2546 2269,2549 2268,2550 2268,2553 2267,2554 2267,2557 2266,2558 2267,2559 2267,2561 2268,2562 2268,2563 2270,2565 2271,2565 2272,2566 2274,2566 2275,2567 2279,2567 2280,2568 2286,2568 2287,2569 2293,2569 2294,2570 2299,2570 2300,2571 2336,2571 2337,2572 2353,2572 2354,2571 2418,2571 2419,2572 2431,2572 2432,2571 2457,2571 2458,2572 2483,2572 2484,2571 2486,2571 2487,2570 2489,2570 2490,2569 2491,2569 2496,2564 2496,2563 2497,2562 2497,2550 2496,2549 2496,2525 2497,2524 2497,2517 2496,2516 2496,2493 2497,2492 2497,2478 2496,2477 2496,2457 2497,2456 2497,2448 2498,2447 2498,2442 2497,2441 2497,2435 2496,2434 2496,2431 2495,2430 2495,2428 2494,2427 2494,2421 2495,2420 2495,2417 2496,2416 2496,2412 2497,2411 2497,2392 2496,2391 2496,2361 2497,2360 2497,2339 2498,2338 2498,2327 2497,2326 2497,2258 2498,2257 2498,2226 2497,2225 2497,2220 2496,2219 2496,2216 2495,2215 2495,2213 2490,2208 2488,2208 2487,2207 2485,2207 2484,2206 2433,2206 2432,2205 2418,2205 2417,2206 2391,2206 2390,2205 2373,2205 2372,2206 2362,2206 2361,2205 2343,2205 2342,2204 2317,2204 2316,2203" fill="rgba(241,249,8,0.3)" stroke="rgb(241,249,8)" stroke-width="2" data-block-id="0022" data-name="b-0025" /><text x="2345" y="2376" text-anchor="middle" dominant-baseline="middle" class="block-label" fill="rgb(241,249,8)" stroke="white" stroke-width="3" paint-order="stroke">b-0025</text><polygon points="3464,1258 3463,1259 3447,1259 3446,1260 3439,1260 3438,1259 3425,1259 3424,1260 3390,1260 3389,1261 3386,1261 3385,1262 3380,1262 3379,1261 3356,1261 3355,1260 3327,1260 3326,1259 3261,1259 3260,1260 3233,1260 3232,1261 3202,1261 3201,1262 3197,1262 3196,1263 3193,1263 3192,1264 3190,1264 3189,1263 3173,1263 3172,1264 3156,1264 3155,1265 3153,1265 3152,1266 3151,1266 3150,1267 3149,1267 3147,1269 3146,1269 3145,1270 3143,1270 3142,1271 3136,1271 3135,1272 3129,1272 3128,1271 3105,1271 3104,1270 3083,1270 3082,1269 3077,1269 3076,1268 3061,1268 3060,1267 3059,1267 3058,1266 3055,1266 3054,1265 3049,1265 3048,1264 3033,1264 3032,1265 3012,1265 3011,1264 2988,1264 2987,1265 2958,1265 2957,1264 2955,1264 2954,1265 2948,1265 2947,1266 2944,1266 2943,1267 2942,1267 2940,1269 2939,1269 2939,1270 2930,1279 2929,1279 2928,1280 2927,1280 2925,1282 2925,1283 2924,1284 2924,1285 2923,1286 2923,1291 2922,1292 2922,1305 2921,1306 2921,1307 2920,1308 2920,1309 2916,1313 2913,1313 2912,1314 2891,1314 2890,1315 2886,1315 2885,1316 2881,1316 2880,1315 2856,1315 2855,1314 2849,1314 2848,1313 2845,1313 2844,1312 2843,1312 2841,1310 2840,1310 2834,1304 2828,1304 2827,1303 2820,1303 2819,1302 2813,1302 2812,1301 2795,1301 2794,1302 2761,1302 2760,1303 2758,1303 2757,1304 2756,1304 2755,1305 2755,1306 2754,1307 2754,1308 2753,1309 2753,1312 2752,1313 2752,1322 2753,1323 2753,1331 2754,1332 2754,1339 2755,1340 2754,1341 2754,1351 2755,1352 2755,1388 2756,1389 2756,1405 2755,1406 2755,1411 2754,1412 2754,1416 2753,1417 2753,1421 2752,1422 2752,1444 2751,1445 2751,1454 2750,1455 2750,1471 2751,1472 2751,1473 2753,1475 2753,1476 2754,1477 2755,1477 2756,1478 2757,1478 2758,1479 2759,1479 2761,1481 2762,1481 2763,1482 2766,1482 2767,1483 2790,1483 2791,1482 2857,1482 2858,1483 2863,1483 2864,1482 2883,1482 2884,1483 2891,1483 2892,1484 2907,1484 2908,1485 2913,1485 2914,1486 2917,1486 2918,1487 2919,1487 2921,1489 2921,1490 2922,1491 2922,1493 2923,1494 2923,1496 2922,1497 2922,1510 2923,1511 2923,1512 2925,1514 2926,1514 2927,1515 2929,1515 2930,1516 2932,1516 2933,1517 2935,1517 2936,1518 2937,1518 2938,1519 2939,1519 2940,1520 2942,1520 2943,1521 2947,1521 2948,1520 2953,1520 2954,1519 2956,1519 2957,1518 2958,1518 2961,1515 2962,1515 2965,1512 2966,1512 2967,1511 2968,1511 2969,1510 2970,1510 2971,1509 2972,1509 2973,1508 2974,1508 2977,1505 2978,1505 2979,1504 2980,1504 2981,1503 2982,1503 2984,1501 2984,1500 2985,1499 2985,1494 2986,1493 2986,1492 2989,1489 2990,1489 2991,1488 2997,1488 2998,1489 3003,1489 3004,1488 3010,1488 3011,1487 3019,1487 3020,1488 3026,1488 3027,1489 3031,1489 3032,1490 3036,1490 3037,1491 3046,1491 3047,1492 3051,1492 3052,1493 3053,1493 3054,1494 3055,1494 3056,1495 3056,1496 3058,1498 3058,1500 3059,1501 3059,1503 3060,1504 3060,1509 3059,1510 3059,1536 3058,1537 3058,1539 3054,1543 3053,1543 3052,1544 3014,1544 3013,1545 3012,1545 3007,1550 3007,1552 3006,1553 3006,1560 3005,1561 3005,1574 3004,1575 3004,1579 3005,1580 3005,1595 3004,1596 3004,1601 3005,1602 3005,1605 3009,1609 3011,1609 3012,1610 3018,1610 3019,1611 3023,1611 3024,1612 3027,1612 3028,1611 3029,1611 3030,1610 3031,1610 3032,1609 3033,1609 3034,1608 3036,1608 3037,1607 3039,1607 3040,1608 3041,1608 3045,1612 3045,1613 3047,1615 3047,1616 3051,1620 3052,1620 3053,1621 3055,1621 3056,1622 3140,1622 3141,1621 3148,1621 3149,1622 3174,1622 3175,1621 3194,1621 3195,1622 3208,1622 3209,1621 3220,1621 3221,1622 3245,1622 3246,1623 3256,1623 3257,1622 3284,1622 3285,1621 3327,1621 3328,1620 3343,1620 3344,1621 3351,1621 3352,1620 3390,1620 3391,1621 3408,1621 3409,1622 3413,1622 3414,1623 3416,1623 3417,1624 3421,1624 3422,1623 3425,1623 3426,1622 3445,1622 3446,1621 3458,1621 3459,1620 3467,1620 3468,1619 3470,1619 3471,1618 3472,1618 3474,1616 3475,1616 3476,1615 3476,1614 3478,1612 3478,1611 3479,1610 3479,1604 3480,1603 3480,1597 3479,1596 3479,1589 3478,1588 3478,1585 3479,1584 3479,1575 3478,1574 3478,1568 3477,1567 3477,1556 3478,1555 3478,1551 3477,1550 3477,1502 3476,1501 3476,1393 3475,1392 3475,1385 3476,1384 3476,1282 3477,1281 3477,1273 3476,1272 3476,1266 3475,1265 3475,1264 3471,1260 3470,1260 3469,1259 3467,1259 3466,1258" fill="rgba(89,52,129,0.3)" stroke="rgb(89,52,129)" stroke-width="2" data-block-id="0023" data-name="b-0026" /><text x="3065" y="1443" text-anchor="middle" dominant-baseline="middle" class="block-label" fill="rgb(89,52,129)" stroke="white" stroke-width="3" paint-order="stroke">b-0026</text><polygon points="2016,2209 2015,2210 2010,2210 2009,2211 2007,2211 2005,2213 2004,2213 2003,2214 2002,2214 2001,2215 1997,2215 1996,2216 1988,2216 1987,2217 1959,2217 1958,2216 1948,2216 1947,2215 1936,2215 1935,2214 1930,2214 1929,2215 1921,2215 1920,2216 1919,2215 1865,2215 1864,2216 1862,2216 1861,2215 1797,2215 1796,2214 1787,2214 1786,2213 1780,2213 1779,2212 1778,2213 1774,2213 1773,2214 1772,2214 1770,2216 1770,2217 1769,2218 1769,2223 1768,2224 1768,2332 1767,2333 1767,2473 1766,2474 1766,2497 1767,2498 1767,2567 1768,2568 1768,2569 1772,2573 1774,2573 1775,2574 1884,2574 1885,2575 1887,2575 1888,2574 1962,2574 1963,2573 1970,2573 1971,2574 1996,2574 1997,2575 2060,2575 2061,2574 2068,2574 2069,2575 2121,2575 2122,2576 2128,2576 2129,2575 2150,2575 2151,2574 2155,2574 2156,2573 2158,2573 2159,2572 2160,2572 2161,2571 2161,2570 2162,2569 2162,2568 2163,2567 2163,2563 2164,2562 2164,2561 2163,2560 2163,2424 2162,2423 2162,2419 2163,2418 2163,2356 2164,2355 2164,2224 2163,2223 2163,2216 2161,2214 2161,2213 2160,2213 2159,2212 2154,2212 2153,2211 2092,2211 2091,2210 2055,2210 2054,2209" fill="rgba(252,7,174,0.3)" stroke="rgb(252,7,174)" stroke-width="2" data-block-id="0024" data-name="b-0029" /><text x="1982" y="2367" text-anchor="middle" dominant-baseline="middle" class="block-label" fill="rgb(252,7,174)" stroke="white" stroke-width="3" paint-order="stroke">b-0029</text><polygon points="1276,1290 1275,1291 1272,1291 1271,1292 1270,1292 1268,1294 1267,1294 1266,1295 1264,1295 1263,1294 1262,1294 1261,1293 1260,1293 1259,1292 1258,1292 1257,1291 1256,1291 1252,1295 1252,1296 1246,1302 1227,1302 1226,1303 1204,1303 1203,1302 1198,1302 1197,1301 1196,1301 1191,1296 1190,1296 1188,1294 1187,1294 1186,1293 1182,1293 1180,1295 1179,1295 1172,1302 1171,1302 1170,1303 1168,1303 1167,1304 1164,1304 1163,1305 1148,1305 1147,1306 1144,1306 1143,1307 1141,1307 1140,1308 1138,1308 1135,1311 1135,1312 1134,1313 1134,1328 1133,1329 1133,1331 1129,1335 1128,1335 1127,1336 1126,1336 1125,1337 1124,1337 1121,1340 1121,1341 1116,1346 1113,1346 1112,1347 1099,1347 1098,1348 1094,1348 1093,1349 1087,1349 1086,1350 1066,1350 1065,1351 926,1351 925,1350 902,1350 901,1351 885,1351 884,1352 879,1352 878,1353 876,1353 873,1356 873,1358 872,1359 872,1368 873,1369 873,1371 874,1372 874,1373 878,1377 878,1378 879,1379 879,1380 880,1381 880,1383 881,1384 881,1413 880,1414 880,1419 879,1420 879,1436 880,1437 880,1461 879,1462 879,1471 880,1472 880,1477 881,1478 881,1484 880,1485 880,1495 879,1496 879,1500 878,1501 878,1502 877,1503 877,1504 875,1506 875,1507 874,1508 874,1510 873,1511 873,1519 874,1520 874,1521 875,1522 875,1523 881,1529 882,1529 883,1530 884,1530 885,1531 886,1531 887,1532 891,1532 892,1533 893,1533 894,1534 895,1534 897,1536 897,1537 899,1539 899,1541 900,1542 900,1543 901,1544 901,1545 903,1547 903,1548 905,1550 906,1550 907,1551 911,1551 913,1549 913,1548 915,1546 915,1545 916,1544 916,1543 917,1542 917,1541 918,1540 918,1539 920,1537 921,1537 922,1536 925,1536 926,1537 928,1537 929,1538 931,1538 932,1539 934,1539 935,1540 939,1540 940,1541 950,1541 951,1540 954,1540 955,1539 957,1539 960,1536 962,1536 963,1535 965,1535 966,1534 976,1534 977,1535 981,1535 982,1536 988,1536 989,1537 992,1537 993,1536 994,1536 996,1534 998,1534 999,1533 1009,1533 1010,1534 1014,1534 1015,1535 1026,1535 1027,1534 1031,1534 1032,1535 1058,1535 1059,1536 1068,1536 1069,1535 1107,1535 1108,1536 1116,1536 1117,1535 1136,1535 1137,1536 1143,1536 1144,1537 1146,1537 1147,1538 1148,1538 1151,1541 1151,1542 1152,1543 1152,1544 1153,1545 1153,1547 1154,1548 1154,1550 1155,1551 1155,1555 1156,1556 1156,1558 1157,1559 1157,1561 1163,1567 1164,1567 1172,1575 1172,1576 1174,1578 1175,1578 1176,1579 1177,1579 1178,1580 1179,1580 1180,1581 1182,1581 1183,1582 1237,1582 1238,1583 1242,1583 1243,1582 1246,1582 1247,1581 1250,1581 1251,1580 1256,1580 1257,1579 1260,1579 1261,1578 1264,1578 1265,1577 1270,1577 1271,1578 1281,1578 1282,1577 1286,1577 1287,1576 1289,1576 1290,1575 1292,1575 1293,1574 1295,1574 1296,1573 1298,1573 1299,1572 1301,1572 1302,1571 1304,1571 1305,1570 1306,1570 1307,1569 1308,1569 1309,1568 1310,1568 1311,1567 1312,1567 1313,1566 1314,1566 1314,1565 1315,1564 1315,1563 1316,1562 1316,1553 1317,1552 1317,1548 1318,1547 1318,1545 1319,1544 1319,1543 1322,1540 1323,1540 1324,1539 1325,1539 1326,1538 1342,1538 1343,1539 1345,1539 1346,1540 1347,1540 1348,1541 1354,1541 1355,1540 1362,1540 1363,1539 1369,1539 1370,1538 1378,1538 1379,1537 1447,1537 1448,1538 1451,1538 1452,1539 1453,1539 1454,1540 1455,1540 1457,1542 1458,1542 1459,1543 1462,1543 1463,1544 1473,1544 1474,1543 1475,1543 1476,1542 1477,1542 1479,1540 1480,1540 1482,1538 1483,1538 1484,1537 1486,1537 1487,1536 1488,1536 1489,1535 1491,1535 1492,1534 1493,1534 1497,1530 1497,1529 1498,1528 1498,1527 1501,1524 1501,1523 1513,1511 1513,1510 1516,1507 1516,1506 1518,1504 1519,1504 1520,1503 1521,1503 1523,1501 1524,1501 1525,1500 1526,1500 1527,1499 1535,1499 1536,1498 1541,1498 1542,1499 1551,1499 1552,1500 1574,1500 1575,1499 1589,1499 1590,1498 1599,1498 1600,1497 1601,1497 1605,1493 1605,1490 1606,1489 1606,1484 1607,1483 1607,1475 1606,1474 1606,1469 1607,1468 1607,1465 1608,1464 1608,1461 1609,1460 1609,1431 1608,1430 1608,1428 1607,1427 1607,1425 1606,1424 1606,1423 1605,1422 1605,1421 1603,1419 1603,1418 1601,1416 1600,1416 1598,1414 1594,1414 1593,1413 1584,1413 1583,1414 1550,1414 1549,1413 1546,1413 1545,1412 1542,1412 1541,1411 1540,1411 1535,1406 1534,1406 1529,1401 1528,1401 1519,1392 1518,1392 1512,1386 1512,1385 1491,1364 1490,1364 1482,1356 1482,1355 1479,1352 1479,1351 1476,1348 1475,1348 1474,1347 1472,1347 1471,1346 1470,1346 1469,1347 1467,1347 1466,1348 1465,1348 1464,1349 1463,1349 1462,1350 1461,1350 1460,1351 1457,1351 1456,1352 1443,1352 1442,1351 1437,1351 1436,1350 1433,1350 1432,1349 1430,1349 1429,1348 1426,1348 1425,1347 1418,1347 1417,1348 1415,1348 1414,1349 1412,1349 1411,1350 1391,1350 1390,1349 1388,1349 1387,1348 1386,1348 1384,1346 1383,1346 1382,1345 1381,1345 1380,1344 1379,1344 1378,1343 1375,1343 1374,1342 1369,1342 1368,1343 1363,1343 1362,1344 1361,1344 1358,1347 1357,1347 1355,1349 1354,1349 1353,1350 1352,1350 1351,1351 1344,1351 1343,1350 1329,1350 1328,1349 1327,1349 1325,1347 1325,1346 1324,1345 1324,1342 1323,1341 1323,1339 1324,1338 1324,1336 1325,1335 1325,1333 1326,1332 1326,1331 1327,1330 1327,1328 1328,1327 1328,1323 1329,1322 1329,1313 1328,1312 1328,1311 1326,1309 1325,1309 1324,1308 1317,1308 1316,1307 1309,1307 1308,1306 1304,1306 1303,1305 1298,1305 1297,1304 1294,1304 1293,1303 1291,1303 1290,1302 1289,1302 1285,1298 1285,1297 1284,1296 1284,1295 1283,1294 1283,1293 1282,1292 1281,1292 1280,1291 1279,1291 1278,1290" fill="rgba(34,205,80,0.3)" stroke="rgb(34,205,80)" stroke-width="2" data-block-id="0025" data-name="b-0030" /><text x="1239" y="1446" text-anchor="middle" dominant-baseline="middle" class="block-label" fill="rgb(34,205,80)" stroke="white" stroke-width="3" paint-order="stroke">b-0030</text><polygon points="1945,2676 1944,2677 1891,2677 1890,2678 1881,2678 1880,2677 1841,2677 1840,2678 1836,2678 1835,2677 1796,2677 1795,2678 1781,2678 1780,2677 1779,2678 1768,2678 1767,2679 1764,2679 1763,2680 1761,2680 1759,2682 1759,2683 1758,2684 1758,2689 1757,2690 1757,2704 1756,2705 1757,2706 1757,2777 1758,2778 1758,2785 1759,2786 1759,2788 1760,2789 1760,2794 1761,2795 1761,2807 1762,2808 1762,2817 1761,2818 1761,2829 1762,2830 1762,2846 1761,2847 1761,2852 1762,2853 1762,2864 1761,2865 1761,2881 1762,2882 1762,2897 1761,2898 1761,2934 1760,2935 1760,2943 1759,2944 1759,3027 1760,3028 1760,3034 1761,3035 1761,3038 1762,3039 1763,3039 1764,3040 1765,3040 1766,3041 1814,3041 1815,3042 1847,3042 1848,3041 1851,3041 1852,3042 1879,3042 1880,3043 1891,3043 1892,3042 1901,3042 1902,3043 1950,3043 1951,3042 1973,3042 1974,3043 1989,3043 1990,3042 1998,3042 1999,3043 2006,3043 2007,3042 2025,3042 2026,3043 2030,3043 2031,3042 2049,3042 2050,3043 2054,3043 2055,3042 2068,3042 2069,3043 2084,3043 2085,3042 2121,3042 2122,3043 2126,3043 2127,3042 2154,3042 2155,3041 2160,3041 2163,3038 2163,3034 2164,3033 2164,3026 2165,3025 2165,2955 2164,2954 2164,2945 2163,2944 2163,2940 2164,2939 2164,2933 2163,2932 2163,2930 2162,2929 2162,2928 2161,2927 2160,2927 2159,2926 2135,2926 2134,2925 2100,2925 2099,2926 2095,2926 2094,2927 2093,2927 2092,2928 2091,2928 2086,2933 2084,2931 2082,2931 2081,2930 2062,2930 2061,2929 2054,2929 2053,2928 2049,2928 2048,2927 2044,2927 2043,2926 2034,2926 2033,2925 2018,2925 2017,2926 2002,2926 2001,2927 2000,2927 1999,2928 1998,2928 1998,2929 1997,2930 1997,2931 1996,2932 1996,2935 1995,2936 1995,2938 1991,2942 1985,2942 1984,2941 1984,2934 1983,2933 1983,2931 1982,2930 1981,2930 1980,2929 1977,2929 1976,2928 1973,2928 1972,2927 1971,2927 1970,2926 1966,2926 1965,2927 1963,2927 1962,2928 1959,2928 1958,2929 1956,2929 1955,2930 1954,2930 1954,2934 1955,2935 1956,2935 1957,2936 1958,2936 1959,2937 1960,2937 1965,2942 1965,2943 1964,2944 1964,2945 1962,2947 1961,2947 1960,2948 1952,2948 1951,2947 1948,2947 1947,2946 1941,2946 1940,2947 1935,2947 1933,2945 1933,2944 1932,2943 1932,2940 1933,2939 1933,2935 1934,2934 1934,2930 1933,2929 1933,2924 1932,2923 1932,2914 1933,2913 1933,2908 1932,2907 1932,2904 1931,2903 1931,2899 1930,2898 1930,2846 1931,2845 1931,2832 1930,2831 1930,2822 1931,2821 1931,2815 1932,2814 1932,2811 1931,2810 1931,2787 1932,2786 1932,2783 1933,2782 1933,2781 1934,2780 1934,2779 1935,2778 1940,2778 1941,2779 1943,2779 1944,2778 1950,2778 1951,2777 1961,2777 1962,2778 1964,2778 1968,2782 1969,2782 1970,2783 1972,2783 1973,2784 1975,2784 1976,2785 1977,2785 1979,2787 1995,2787 1996,2788 1998,2788 1999,2789 2001,2789 2002,2790 2004,2790 2005,2791 2007,2791 2008,2792 2009,2792 2010,2793 2013,2793 2014,2794 2016,2794 2017,2795 2019,2795 2020,2796 2022,2796 2023,2797 2025,2797 2026,2798 2044,2798 2045,2799 2049,2799 2050,2800 2055,2800 2056,2799 2089,2799 2090,2800 2109,2800 2110,2799 2113,2799 2114,2800 2120,2800 2121,2801 2138,2801 2139,2800 2158,2800 2159,2799 2160,2799 2161,2798 2161,2797 2162,2796 2162,2795 2163,2794 2163,2790 2164,2789 2164,2762 2163,2761 2163,2742 2164,2741 2164,2687 2163,2686 2163,2683 2162,2682 2162,2681 2160,2679 2159,2679 2158,2678 2148,2678 2147,2677 2083,2677 2082,2678 2047,2678 2046,2677 2033,2677 2032,2678 2024,2678 2023,2677 1997,2677 1996,2676 1987,2676 1986,2677 1971,2677 1970,2676 1965,2676 1964,2677 1951,2677 1950,2676" fill="rgba(133,53,105,0.3)" stroke="rgb(133,53,105)" stroke-width="2" data-block-id="0026" data-name="b-0033" /><text x="1973" y="2865" text-anchor="middle" dominant-baseline="middle" class="block-label" fill="rgb(133,53,105)" stroke="white" stroke-width="3" paint-order="stroke">b-0033</text><polygon points="2900,2204 2899,2205 2751,2205 2750,2206 2749,2206 2747,2208 2747,2210 2746,2211 2746,2216 2745,2217 2745,2243 2746,2244 2746,2268 2747,2269 2747,2284 2746,2285 2746,2291 2747,2292 2747,2307 2746,2308 2746,2337 2747,2338 2747,2386 2748,2387 2748,2483 2749,2484 2749,2532 2750,2533 2750,2542 2749,2543 2749,2554 2750,2555 2750,2557 2751,2558 2751,2559 2752,2560 2753,2560 2754,2561 2778,2561 2779,2562 2797,2562 2798,2561 2815,2561 2816,2562 2882,2562 2883,2563 2886,2563 2887,2562 2954,2562 2955,2561 2972,2561 2973,2562 2991,2562 2992,2561 3014,2561 3015,2560 3018,2560 3019,2559 3020,2559 3022,2557 3022,2556 3024,2554 3024,2536 3023,2535 3023,2525 3022,2524 3022,2516 3021,2515 3021,2477 3020,2476 3020,2459 3019,2458 3019,2434 3020,2433 3020,2430 3019,2429 3019,2373 3020,2372 3020,2329 3019,2328 3019,2316 3018,2315 3018,2285 3017,2284 3017,2257 3016,2256 3016,2252 3017,2251 3017,2236 3016,2235 3016,2226 3017,2225 3017,2208 3015,2206 3014,2206 3013,2205 3010,2205 3009,2204" fill="rgba(43,161,201,0.3)" stroke="rgb(43,161,201)" stroke-width="2" data-block-id="0027" data-name="b-0036" /><text x="2894" y="2406" text-anchor="middle" dominant-baseline="middle" class="block-label" fill="rgb(43,161,201)" stroke="white" stroke-width="3" paint-order="stroke">b-0036</text><polygon points="2423,1733 2422,1734 2386,1734 2385,1735 2329,1735 2328,1736 2310,1736 2309,1735 2296,1735 2295,1736 2275,1736 2274,1737 2273,1737 2270,1740 2270,1742 2269,1743 2269,1746 2270,1747 2270,1755 2271,1756 2271,1793 2272,1794 2272,1797 2273,1798 2273,1800 2275,1802 2275,1803 2276,1804 2277,1804 2278,1805 2280,1805 2281,1806 2283,1806 2284,1807 2285,1807 2286,1808 2287,1808 2289,1810 2289,1811 2290,1812 2290,1814 2291,1815 2291,1825 2292,1826 2292,1831 2293,1832 2293,1834 2295,1836 2295,1837 2296,1838 2297,1838 2298,1839 2299,1839 2300,1840 2302,1840 2303,1841 2304,1841 2305,1840 2316,1840 2317,1841 2319,1841 2320,1842 2321,1842 2322,1843 2323,1843 2325,1845 2325,1846 2326,1847 2326,1849 2327,1850 2327,1854 2326,1855 2326,1862 2325,1863 2325,1864 2321,1868 2320,1868 2318,1870 2317,1870 2316,1871 2315,1871 2313,1873 2313,1874 2312,1875 2312,1890 2313,1891 2313,1892 2314,1893 2314,1895 2317,1898 2318,1898 2320,1900 2321,1900 2322,1901 2323,1901 2325,1903 2325,1904 2327,1906 2327,1908 2328,1909 2328,1927 2327,1928 2327,1931 2326,1932 2326,1933 2325,1934 2324,1934 2323,1935 2322,1935 2321,1936 2318,1936 2317,1937 2295,1937 2294,1938 2273,1938 2272,1939 2265,1939 2264,1940 2263,1940 2262,1941 2261,1941 2257,1945 2257,1947 2256,1948 2256,1955 2255,1956 2255,2005 2254,2006 2254,2008 2252,2010 2251,2010 2249,2012 2247,2012 2246,2013 2244,2013 2243,2014 2241,2014 2239,2016 2239,2017 2238,2018 2238,2021 2237,2022 2237,2027 2236,2028 2236,2096 2237,2097 2237,2100 2240,2103 2242,2103 2243,2104 2320,2104 2321,2103 2328,2103 2329,2104 2405,2104 2406,2103 2462,2103 2463,2102 2491,2102 2492,2101 2494,2101 2496,2099 2496,2098 2497,2097 2497,2095 2498,2094 2498,2091 2499,2090 2499,2065 2498,2064 2498,2013 2497,2012 2497,1956 2496,1955 2496,1863 2495,1862 2495,1831 2496,1830 2496,1824 2495,1823 2495,1740 2494,1739 2494,1736 2491,1733" fill="rgba(216,251,187,0.3)" stroke="rgb(216,251,187)" stroke-width="2" data-block-id="0028" data-name="b-0044" /><text x="2325" y="1900" text-anchor="middle" dominant-baseline="middle" class="block-label" fill="rgb(216,251,187)" stroke="white" stroke-width="3" paint-order="stroke">b-0044</text><polygon points="2282,2205 2281,2206 2279,2206 2277,2208 2277,2210 2276,2211 2276,2236 2275,2237 2275,2249 2276,2250 2276,2281 2275,2282 2275,2295 2276,2296 2276,2358 2275,2359 2275,2367 2276,2368 2276,2373 2275,2374 2275,2391 2276,2392 2276,2430 2275,2431 2275,2448 2276,2449 2276,2468 2275,2469 2275,2499 2276,2500 2276,2519 2275,2520 2275,2534 2276,2535 2276,2566 2277,2567 2277,2569 2280,2572 2284,2572 2285,2573 2297,2573 2298,2572 2492,2572 2493,2571 2494,2571 2496,2569 2496,2568 2497,2567 2497,2566 2498,2565 2498,2557 2497,2556 2497,2538 2498,2537 2498,2517 2497,2516 2497,2483 2498,2482 2498,2467 2497,2466 2497,2442 2498,2441 2498,2399 2499,2398 2499,2391 2500,2390 2500,2383 2499,2382 2499,2381 2498,2380 2498,2377 2497,2376 2497,2363 2498,2362 2498,2359 2497,2358 2497,2340 2498,2339 2498,2212 2497,2211 2497,2209 2494,2206 2471,2206 2470,2205 2467,2205 2466,2206 2426,2206 2425,2205 2416,2205 2415,2206 2355,2206 2354,2205" fill="rgba(123,236,40,0.3)" stroke="rgb(123,236,40)" stroke-width="2" data-block-id="0029" data-name="b-0045" /><text x="2389" y="2392" text-anchor="middle" dominant-baseline="middle" class="block-label" fill="rgb(123,236,40)" stroke="white" stroke-width="3" paint-order="stroke">b-0045</text><polygon points="2298,2676 2297,2677 2287,2677 2286,2678 2283,2678 2282,2679 2280,2679 2279,2680 2279,2681 2278,2682 2278,2702 2277,2703 2277,2707 2278,2708 2278,2798 2279,2799 2279,2801 2281,2803 2283,2803 2284,2804 2287,2804 2288,2805 2293,2805 2294,2804 2301,2804 2302,2803 2308,2803 2309,2802 2334,2802 2335,2803 2342,2803 2343,2804 2354,2804 2355,2805 2361,2805 2362,2806 2369,2806 2370,2807 2376,2807 2377,2806 2380,2806 2381,2805 2387,2805 2388,2806 2389,2806 2390,2807 2391,2807 2392,2808 2393,2808 2397,2812 2397,2817 2396,2818 2396,2831 2397,2832 2397,2875 2398,2876 2398,2880 2399,2881 2399,2891 2398,2892 2398,2898 2397,2899 2397,2906 2396,2907 2396,2910 2391,2915 2389,2915 2388,2916 2386,2916 2385,2917 2382,2917 2381,2918 2374,2918 2373,2919 2369,2919 2368,2920 2360,2920 2359,2921 2347,2921 2346,2922 2326,2922 2325,2923 2324,2923 2323,2922 2296,2922 2295,2921 2288,2921 2287,2922 2284,2922 2283,2923 2282,2923 2281,2924 2280,2924 2279,2925 2279,2927 2278,2928 2278,2931 2277,2932 2277,2941 2278,2942 2278,2943 2277,2944 2277,2985 2278,2986 2278,2994 2277,2995 2277,3009 2278,3010 2278,3029 2279,3030 2279,3038 2280,3039 2280,3040 2282,3042 2283,3042 2284,3043 2287,3043 2288,3044 2294,3044 2295,3043 2492,3043 2495,3040 2495,3039 2496,3038 2496,3019 2497,3018 2497,3013 2496,3012 2496,2850 2497,2849 2497,2845 2496,2844 2496,2835 2497,2834 2497,2792 2496,2791 2496,2781 2497,2780 2497,2750 2496,2749 2496,2683 2495,2682 2495,2680 2494,2679 2493,2679 2492,2678 2490,2678 2489,2677 2413,2677 2412,2678 2402,2678 2401,2677 2390,2677 2389,2678 2384,2678 2383,2677 2305,2677 2304,2676" fill="rgba(64,88,70,0.3)" stroke="rgb(64,88,70)" stroke-width="2" data-block-id="0030" data-name="b-0047" /><text x="2359" y="2850" text-anchor="middle" dominant-baseline="middle" class="block-label" fill="rgb(64,88,70)" stroke="white" stroke-width="3" paint-order="stroke">b-0047</text><polygon points="1834,1809 1833,1810 1831,1810 1828,1813 1828,1821 1827,1822 1827,1825 1828,1826 1828,1830 1829,1831 1829,1834 1830,1835 1830,1851 1831,1852 1831,1853 1832,1854 1832,1855 1834,1857 1835,1857 1836,1858 1837,1858 1838,1859 1839,1859 1840,1860 1841,1860 1845,1864 1845,1865 1846,1866 1846,1868 1847,1869 1847,1877 1848,1878 1848,1885 1847,1886 1847,1890 1846,1891 1846,1893 1845,1894 1845,1896 1844,1897 1844,1899 1843,1900 1843,1901 1842,1902 1842,1903 1841,1904 1841,1905 1839,1907 1839,1913 1840,1914 1840,1917 1841,1918 1841,1919 1843,1921 1844,1921 1845,1922 1846,1922 1847,1923 1850,1923 1851,1924 1857,1924 1858,1925 1873,1925 1874,1926 1876,1926 1879,1929 1880,1929 1882,1931 1882,1932 1898,1948 1898,1949 1900,1951 1900,1952 1902,1954 1902,1955 1903,1956 1903,1959 1904,1960 1904,1964 1905,1965 1905,1971 1906,1972 1906,1987 1905,1988 1905,1994 1906,1995 1906,2000 1907,2001 1907,2017 1908,2018 1910,2018 1911,2017 1911,2015 1912,2014 1912,2003 1913,2002 1913,2000 1914,1999 1914,1997 1915,1996 1915,1994 1916,1993 1916,1989 1915,1988 1915,1984 1914,1983 1914,1971 1915,1970 1915,1965 1916,1964 1916,1961 1917,1960 1917,1957 1922,1952 1923,1952 1924,1951 1925,1951 1926,1950 1929,1950 1930,1949 1934,1949 1935,1950 1937,1950 1941,1954 1941,1955 1942,1956 1942,1969 1943,1970 1943,1975 1944,1976 1944,1978 1945,1979 1945,1980 1946,1981 1947,1981 1948,1982 1952,1982 1953,1983 1957,1983 1958,1982 1959,1982 1962,1979 1962,1976 1963,1975 1963,1970 1964,1969 1964,1957 1965,1956 1965,1955 1968,1952 1969,1952 1970,1951 1981,1951 1982,1952 1983,1952 1984,1953 1985,1953 1987,1955 1988,1955 1990,1957 1991,1957 1992,1958 1993,1958 1994,1959 1998,1959 1999,1960 2002,1960 2003,1961 2004,1961 2009,1966 2009,1968 2010,1969 2010,1978 2011,1979 2011,1980 2013,1982 2014,1982 2015,1983 2017,1983 2018,1984 2024,1984 2025,1985 2036,1985 2037,1984 2039,1984 2040,1983 2041,1983 2042,1982 2042,1980 2043,1979 2043,1954 2044,1953 2044,1949 2045,1948 2045,1946 2051,1940 2055,1940 2056,1941 2059,1941 2060,1942 2063,1942 2064,1943 2072,1943 2073,1944 2078,1944 2079,1945 2081,1945 2085,1949 2085,1950 2086,1951 2086,1954 2087,1955 2087,1961 2086,1962 2086,1969 2088,1971 2088,1972 2089,1973 2090,1973 2091,1974 2092,1974 2093,1975 2096,1975 2097,1976 2103,1976 2104,1975 2112,1975 2113,1974 2115,1974 2116,1973 2117,1973 2119,1971 2119,1970 2120,1969 2120,1966 2121,1965 2121,1961 2122,1960 2122,1957 2123,1956 2123,1953 2124,1952 2124,1950 2125,1949 2125,1948 2129,1944 2130,1944 2131,1943 2132,1943 2133,1942 2138,1942 2139,1943 2143,1943 2144,1944 2150,1944 2151,1945 2195,1945 2196,1946 2197,1946 2198,1947 2199,1947 2201,1949 2201,1950 2202,1951 2202,1952 2203,1953 2203,1955 2204,1956 2204,1978 2205,1979 2205,1980 2207,1982 2208,1982 2209,1983 2210,1983 2211,1984 2212,1984 2217,1989 2217,1990 2219,1992 2219,1994 2220,1995 2220,1997 2221,1998 2221,1999 2227,2005 2228,2005 2230,2007 2232,2007 2233,2008 2243,2008 2244,2007 2247,2007 2248,2006 2249,2006 2252,2003 2252,2001 2253,2000 2253,1995 2254,1994 2254,1986 2253,1985 2253,1972 2254,1971 2254,1967 2253,1966 2253,1954 2252,1953 2252,1943 2253,1942 2253,1941 2256,1938 2257,1938 2258,1937 2259,1937 2260,1936 2263,1936 2264,1935 2306,1935 2307,1934 2313,1934 2314,1933 2317,1933 2318,1932 2320,1932 2321,1931 2322,1931 2324,1929 2324,1928 2325,1927 2325,1925 2326,1924 2326,1913 2325,1912 2325,1910 2324,1909 2324,1908 2323,1908 2322,1907 2319,1907 2318,1906 2314,1906 2313,1905 2312,1905 2311,1904 2310,1904 2306,1900 2306,1899 2305,1898 2305,1875 2306,1874 2306,1872 2308,1870 2308,1869 2309,1868 2310,1868 2312,1866 2313,1866 2314,1865 2316,1865 2317,1864 2319,1864 2320,1863 2321,1863 2322,1862 2322,1861 2323,1860 2323,1855 2324,1854 2324,1850 2323,1849 2323,1848 2322,1848 2321,1847 2320,1847 2319,1846 2314,1846 2313,1845 2310,1845 2309,1846 2302,1846 2301,1845 2297,1845 2296,1844 2295,1844 2292,1841 2292,1840 2291,1839 2291,1836 2290,1835 2290,1828 2289,1827 2289,1818 2288,1817 2288,1814 2285,1811 2284,1811 2283,1810 2281,1810 2280,1809 2273,1809 2272,1810 2270,1810 2269,1811 2268,1811 2267,1812 2266,1812 2266,1813 2264,1815 2264,1816 2263,1817 2263,1818 2262,1819 2262,1820 2261,1821 2261,1822 2260,1823 2260,1824 2259,1825 2259,1828 2260,1829 2260,1839 2259,1840 2259,1841 2258,1842 2258,1843 2257,1844 2257,1845 2253,1849 2252,1849 2251,1850 2250,1850 2247,1853 2247,1854 2246,1855 2246,1857 2245,1858 2245,1867 2246,1868 2246,1873 2245,1874 2245,1875 2244,1876 2244,1877 2240,1881 2238,1881 2237,1882 2232,1882 2231,1883 2213,1883 2212,1882 2209,1882 2205,1878 2205,1877 2204,1876 2204,1874 2203,1873 2203,1863 2202,1862 2202,1858 2201,1857 2201,1856 2200,1855 2200,1854 2199,1853 2199,1852 2197,1850 2195,1850 2194,1849 2190,1849 2189,1848 2179,1848 2178,1849 2177,1849 2173,1853 2173,1854 2172,1855 2172,1858 2171,1859 2171,1868 2172,1869 2172,1874 2171,1875 2171,1876 2170,1877 2170,1878 2169,1879 2169,1880 2168,1881 2167,1881 2166,1882 2165,1882 2164,1883 2148,1883 2147,1884 2134,1884 2133,1883 2132,1883 2128,1879 2128,1878 2127,1877 2127,1863 2128,1862 2127,1861 2127,1857 2126,1856 2126,1854 2125,1853 2125,1852 2123,1850 2122,1850 2121,1849 2120,1849 2119,1848 2116,1848 2115,1847 2103,1847 2102,1848 2100,1848 2099,1849 2098,1849 2097,1850 2097,1852 2096,1853 2096,1857 2095,1858 2095,1874 2094,1875 2094,1877 2092,1879 2092,1880 2091,1881 2090,1881 2089,1882 2088,1882 2087,1883 2065,1883 2064,1882 2059,1882 2058,1881 2056,1881 2055,1880 2054,1880 2051,1877 2051,1875 2050,1874 2050,1859 2049,1858 2049,1855 2048,1854 2048,1852 2047,1851 2047,1850 2045,1848 2044,1848 2043,1847 2040,1847 2039,1846 2037,1846 2036,1847 2020,1847 2019,1848 2016,1848 2015,1849 2014,1849 2013,1850 2013,1851 2012,1852 2012,1855 2011,1856 2011,1864 2010,1865 2010,1873 2009,1874 2009,1875 2007,1877 2006,1877 2005,1878 1967,1878 1966,1877 1964,1877 1963,1876 1961,1876 1960,1875 1959,1875 1956,1872 1956,1863 1953,1860 1951,1860 1950,1859 1948,1859 1947,1858 1941,1858 1940,1859 1913,1859 1912,1858 1904,1858 1903,1857 1899,1857 1898,1856 1880,1856 1879,1855 1877,1855 1876,1854 1874,1854 1873,1853 1872,1853 1868,1849 1868,1848 1867,1847 1867,1845 1866,1844 1866,1842 1865,1841 1865,1838 1864,1837 1864,1833 1863,1832 1863,1827 1862,1826 1862,1823 1861,1822 1861,1821 1860,1820 1860,1819 1859,1818 1859,1817 1858,1816 1858,1815 1854,1811 1853,1811 1852,1810 1851,1810 1850,1809" fill="rgba(80,135,162,0.3)" stroke="rgb(80,135,162)" stroke-width="2" data-block-id="0031" data-name="b-0051" /><text x="2080" y="1904" text-anchor="middle" dominant-baseline="middle" class="block-label" fill="rgb(80,135,162)" stroke="white" stroke-width="3" paint-order="stroke">b-0051</text></g>
</svg>