<?xml version='1.0' encoding='utf-8'?>
<svg xmlns="http://www.w3.org/2000/svg" xmlns:atlas="http://example.com/atlas" width="4984" height="3264" viewBox="0 0 4984 3264">
  
  <metadata>
    <atlas:source>
      <atlas:jp2-path>/Users/pwright/workspace/atlas/media/v2/p27.jp2</atlas:jp2-path>
      <atlas:volume>unknown</atlas:volume>
      <atlas:plate-id>p27</atlas:plate-id>
      <atlas:image-width>4984</atlas:image-width>
      <atlas:image-height>3264</atlas:image-height>
    <atlas:angle>0.0</atlas:angle><atlas:scale>1.3847958570922765</atlas:scale><atlas:pos-x>1455.3601719029118</atlas:pos-x><atlas:pos-y>1488.2961871086354</atlas:pos-y></atlas:source>
  </metadata>

  
  <image id="background" href="file:///Users/pwright/workspace/atlas/media/v2/p27.jp2" width="4984" height="3264" opacity="0.5" />

  <style>
    .block-label { font-family: sans-serif; font-size: 14px; font-weight: bold; }
  </style>

  
  <g id="blocks">
    <polygon points="1010,2045 1009,2046 1003,2046 1002,2047 998,2047 997,2048 994,2048 993,2049 987,2049 986,2048 973,2048 972,2047 971,2048 968,2048 967,2049 965,2049 964,2050 962,2050 961,2051 957,2051 956,2050 954,2050 953,2049 950,2049 949,2048 941,2048 940,2049 908,2049 907,2050 899,2050 898,2051 897,2051 896,2052 895,2052 891,2056 891,2058 890,2059 890,2065 889,2066 889,2071 890,2072 890,2076 891,2077 891,2128 890,2129 890,2149 891,2150 891,2153 890,2154 890,2162 889,2163 889,2206 888,2207 888,2215 889,2216 889,2224 890,2225 890,2227 889,2228 889,2249 888,2250 888,2268 889,2269 889,2276 888,2277 888,2291 887,2292 887,2298 888,2299 888,2308 889,2309 889,2316 890,2317 890,2325 889,2326 889,2347 888,2348 888,2372 887,2373 887,2377 886,2378 886,2383 887,2384 887,2391 888,2392 888,2393 889,2394 889,2396 890,2397 890,2398 891,2399 891,2400 892,2401 892,2402 894,2404 895,2404 896,2405 897,2405 898,2406 901,2406 902,2407 907,2407 908,2408 916,2408 917,2409 967,2409 968,2410 980,2410 981,2409 1001,2409 1002,2410 1024,2410 1025,2409 1034,2409 1035,2410 1048,2410 1049,2409 1072,2409 1073,2408 1090,2408 1091,2409 1110,2409 1111,2408 1132,2408 1133,2409 1155,2409 1156,2408 1237,2408 1238,2409 1255,2409 1256,2408 1279,2408 1280,2409 1334,2409 1335,2408 1358,2408 1359,2407 1368,2407 1369,2408 1377,2408 1378,2407 1380,2407 1381,2406 1382,2406 1383,2405 1384,2405 1385,2404 1389,2404 1390,2405 1391,2405 1392,2406 1393,2406 1394,2407 1396,2407 1397,2408 1404,2408 1405,2407 1427,2407 1428,2406 1467,2406 1468,2407 1489,2407 1490,2408 1500,2408 1501,2407 1664,2407 1665,2408 1726,2408 1727,2407 1748,2407 1749,2408 1808,2408 1809,2407 1816,2407 1817,2406 1831,2406 1832,2407 1844,2407 1845,2408 1852,2408 1853,2409 1876,2409 1877,2408 1918,2408 1919,2409 1932,2409 1933,2408 1934,2409 1942,2409 1943,2410 1950,2410 1951,2409 1958,2409 1959,2408 1985,2408 1986,2409 2050,2409 2051,2410 2055,2410 2056,2409 2099,2409 2100,2408 2114,2408 2115,2409 2171,2409 2172,2408 2214,2408 2215,2409 2234,2409 2235,2408 2328,2408 2329,2407 2339,2407 2340,2406 2341,2406 2342,2405 2343,2405 2344,2404 2344,2403 2345,2402 2345,2401 2346,2400 2346,2399 2347,2398 2347,2397 2348,2396 2348,2394 2349,2393 2349,2370 2350,2369 2350,2365 2349,2364 2349,2335 2348,2334 2348,2328 2349,2327 2349,2274 2350,2273 2350,2270 2349,2269 2349,2254 2350,2253 2350,2238 2351,2237 2351,2230 2350,2229 2350,2225 2351,2224 2351,2204 2352,2203 2352,2198 2351,2197 2351,2189 2350,2188 2350,2177 2349,2176 2349,2168 2348,2167 2348,2155 2349,2154 2349,2136 2350,2135 2350,2116 2349,2115 2349,2080 2350,2079 2350,2072 2351,2071 2351,2066 2350,2065 2350,2058 2349,2057 2349,2056 2345,2052 2344,2052 2343,2051 2342,2051 2341,2050 2339,2050 2338,2049 2305,2049 2304,2048 2257,2048 2256,2049 2213,2049 2212,2050 2204,2050 2203,2049 2181,2049 2180,2048 2168,2048 2167,2049 1999,2049 1998,2050 1973,2050 1972,2049 1968,2049 1967,2050 1901,2050 1900,2051 1881,2051 1880,2050 1867,2050 1866,2051 1849,2051 1848,2052 1834,2052 1833,2051 1757,2051 1756,2052 1705,2052 1704,2053 1695,2053 1694,2052 1687,2052 1686,2051 1593,2051 1592,2050 1581,2050 1580,2051 1549,2051 1548,2050 1430,2050 1429,2049 1418,2049 1417,2050 1411,2050 1410,2051 1409,2051 1408,2050 1393,2050 1392,2049 1357,2049 1356,2048 1280,2048 1279,2047 1278,2048 1241,2048 1240,2047 1153,2047 1152,2048 1146,2048 1145,2047 1131,2047 1130,2048 1120,2048 1119,2047 1093,2047 1092,2046 1070,2046 1069,2045 1049,2045 1048,2046 1031,2046 1030,2045" fill="rgba(102,179,92,0.3)" stroke="rgb(102,179,92)" stroke-width="2" data-block-id="0001" data-name="b-0001" /><text x="1533" y="2238" text-anchor="middle" dominant-baseline="middle" class="block-label" fill="rgb(102,179,92)" stroke="white" stroke-width="3" paint-order="stroke">b-0001</text><polygon points="959,1577 958,1578 952,1578 951,1579 929,1579 928,1580 910,1580 909,1581 907,1581 906,1582 905,1582 903,1584 902,1584 901,1585 901,1586 898,1589 898,1590 897,1591 897,1595 896,1596 896,1617 897,1618 897,1624 898,1625 898,1637 899,1638 899,1639 898,1640 898,1659 899,1660 898,1661 898,1670 897,1671 897,1682 896,1683 896,1686 897,1687 897,1695 898,1696 898,1701 897,1702 897,1739 898,1740 898,1748 897,1749 897,1760 896,1761 896,1766 895,1767 895,1777 896,1778 896,1788 897,1789 897,1805 896,1806 896,1812 895,1813 895,1826 896,1827 896,1829 895,1830 895,1849 894,1850 894,1871 895,1872 895,1881 894,1882 894,1909 895,1910 894,1911 894,1918 893,1919 893,1925 894,1926 894,1927 896,1929 896,1930 902,1936 903,1936 904,1937 905,1937 906,1938 908,1938 909,1939 940,1939 941,1940 950,1940 951,1941 972,1941 973,1940 979,1940 980,1939 984,1939 985,1940 1003,1940 1004,1939 1009,1939 1010,1940 1073,1940 1074,1939 1083,1939 1084,1940 1093,1940 1094,1941 1108,1941 1109,1942 1112,1942 1113,1941 1118,1941 1119,1940 1135,1940 1136,1941 1142,1941 1143,1940 1159,1940 1160,1941 1198,1941 1199,1940 1264,1940 1265,1939 1271,1939 1272,1940 1300,1940 1301,1939 1318,1939 1319,1940 1408,1940 1409,1939 1412,1939 1413,1940 1441,1940 1442,1939 1448,1939 1449,1940 1455,1940 1456,1941 1477,1941 1478,1940 1524,1940 1525,1941 1552,1941 1553,1942 1555,1942 1556,1941 1568,1941 1569,1940 1619,1940 1620,1941 1651,1941 1652,1940 1720,1940 1721,1941 1737,1941 1738,1940 1817,1940 1818,1941 1829,1941 1830,1940 1881,1940 1882,1939 1895,1939 1896,1940 1908,1940 1909,1941 1915,1941 1916,1940 1925,1940 1926,1939 1943,1939 1944,1940 1953,1940 1954,1939 1966,1939 1967,1940 1974,1940 1975,1939 1987,1939 1988,1940 2020,1940 2021,1939 2082,1939 2083,1940 2097,1940 2098,1941 2101,1941 2102,1940 2112,1940 2113,1939 2142,1939 2143,1940 2215,1940 2216,1941 2260,1941 2261,1940 2268,1940 2269,1939 2272,1939 2273,1940 2308,1940 2309,1939 2335,1939 2336,1938 2342,1938 2343,1937 2345,1937 2346,1936 2347,1936 2348,1935 2349,1935 2350,1934 2350,1933 2351,1932 2351,1929 2352,1928 2352,1924 2353,1923 2353,1917 2354,1916 2354,1910 2353,1909 2353,1906 2352,1905 2352,1902 2351,1901 2351,1894 2352,1893 2352,1879 2351,1878 2351,1875 2352,1874 2352,1824 2353,1823 2353,1816 2352,1815 2352,1806 2351,1805 2351,1800 2350,1799 2350,1766 2351,1765 2351,1688 2352,1687 2352,1658 2351,1657 2351,1652 2350,1651 2350,1645 2351,1644 2351,1615 2352,1614 2352,1601 2351,1600 2351,1597 2350,1596 2350,1592 2349,1591 2349,1590 2348,1589 2348,1588 2346,1586 2345,1586 2344,1585 2343,1585 2342,1584 2341,1584 2340,1583 2323,1583 2322,1582 2300,1582 2299,1581 2292,1581 2291,1580 2290,1581 2275,1581 2274,1580 2265,1580 2264,1581 2262,1581 2261,1582 2249,1582 2248,1581 2236,1581 2235,1582 2232,1582 2231,1581 2227,1581 2226,1580 2215,1580 2214,1581 2206,1581 2205,1580 2202,1580 2201,1579 2194,1579 2193,1580 2191,1580 2190,1581 2188,1581 2187,1582 2165,1582 2164,1583 2159,1583 2158,1582 2131,1582 2130,1581 2123,1581 2122,1582 2117,1582 2116,1583 2110,1583 2109,1582 2080,1582 2079,1581 2078,1582 2070,1582 2069,1583 2063,1583 2062,1582 2009,1582 2008,1581 2005,1581 2004,1582 1987,1582 1986,1581 1980,1581 1979,1582 1962,1582 1961,1581 1927,1581 1926,1582 1920,1582 1919,1581 1908,1581 1907,1582 1890,1582 1889,1581 1886,1581 1885,1582 1866,1582 1865,1581 1860,1581 1859,1582 1846,1582 1845,1581 1836,1581 1835,1582 1796,1582 1795,1581 1786,1581 1785,1582 1776,1582 1775,1581 1764,1581 1763,1582 1751,1582 1750,1581 1739,1581 1738,1582 1728,1582 1727,1581 1712,1581 1711,1582 1706,1582 1705,1581 1689,1581 1688,1582 1679,1582 1678,1581 1664,1581 1663,1582 1660,1582 1659,1581 1622,1581 1621,1582 1614,1582 1613,1583 1610,1583 1609,1582 1599,1582 1598,1583 1587,1583 1586,1582 1584,1582 1583,1581 1581,1581 1580,1580 1573,1580 1572,1581 1539,1581 1538,1580 1534,1580 1533,1579 1528,1579 1527,1580 1525,1580 1524,1581 1519,1581 1518,1582 1515,1582 1514,1581 1501,1581 1500,1582 1492,1582 1491,1581 1488,1581 1487,1580 1485,1580 1484,1579 1481,1579 1480,1580 1477,1580 1476,1581 1472,1581 1471,1582 1468,1582 1467,1581 1454,1581 1453,1582 1450,1582 1449,1583 1445,1583 1444,1582 1441,1582 1440,1581 1437,1581 1436,1580 1429,1580 1428,1581 1417,1581 1416,1580 1408,1580 1407,1581 1393,1581 1392,1580 1355,1580 1354,1581 1349,1581 1348,1580 1312,1580 1311,1581 1275,1581 1274,1582 1268,1582 1267,1583 1263,1583 1262,1584 1259,1584 1258,1585 1222,1585 1221,1584 1174,1584 1173,1583 1157,1583 1156,1582 1142,1582 1141,1581 1128,1581 1127,1580 1119,1580 1118,1581 1109,1581 1108,1580 1070,1580 1069,1579 1034,1579 1033,1578 1027,1578 1026,1579 1002,1579 1001,1578 962,1578 961,1577" fill="rgba(14,106,71,0.3)" stroke="rgb(14,106,71)" stroke-width="2" data-block-id="0002" data-name="b-0002" /><text x="1619" y="1725" text-anchor="middle" dominant-baseline="middle" class="block-label" fill="rgb(14,106,71)" stroke="white" stroke-width="3" paint-order="stroke">b-0002</text><polygon points="1393,2511 1392,2512 1387,2512 1386,2513 1384,2513 1383,2514 1346,2514 1345,2515 1320,2515 1319,2514 1308,2514 1307,2515 1249,2515 1248,2516 1186,2516 1185,2515 1168,2515 1167,2516 1126,2516 1125,2515 1111,2515 1110,2516 1096,2516 1095,2515 1081,2515 1080,2516 1060,2516 1059,2515 1021,2515 1020,2514 1016,2514 1015,2515 979,2515 978,2514 963,2514 962,2515 932,2515 931,2514 910,2514 909,2515 893,2515 892,2516 889,2516 888,2517 887,2517 884,2520 884,2521 883,2522 883,2541 882,2542 882,2548 883,2549 883,2553 884,2554 884,2565 883,2566 883,2571 884,2572 884,2579 885,2580 885,2585 884,2586 884,2598 885,2599 885,2608 884,2609 884,2613 883,2614 883,2618 882,2619 882,2644 883,2645 883,2649 884,2650 884,2699 885,2700 885,2792 884,2793 884,2831 883,2832 883,2840 882,2841 882,2854 883,2855 883,2857 884,2858 884,2860 885,2861 885,2862 886,2863 886,2864 887,2865 887,2866 888,2867 890,2867 891,2868 893,2868 894,2869 898,2869 899,2870 907,2870 908,2871 937,2871 938,2872 962,2872 963,2873 1047,2873 1048,2872 1056,2872 1057,2871 1080,2871 1081,2872 1106,2872 1107,2871 1115,2871 1116,2872 1127,2872 1128,2873 1142,2873 1143,2872 1228,2872 1229,2873 1236,2873 1237,2872 1242,2872 1243,2871 1251,2871 1252,2872 1261,2872 1262,2873 1268,2873 1269,2874 1270,2874 1271,2873 1301,2873 1302,2874 1303,2873 1311,2873 1312,2872 1338,2872 1339,2873 1346,2873 1347,2874 1361,2874 1362,2873 1380,2873 1381,2872 1384,2872 1385,2871 1389,2871 1390,2872 1394,2872 1395,2873 1407,2873 1408,2872 1415,2872 1416,2873 1430,2873 1431,2872 1436,2872 1437,2873 1444,2873 1445,2874 1456,2874 1457,2873 1465,2873 1466,2872 1474,2872 1475,2871 1491,2871 1492,2872 1497,2872 1498,2871 1523,2871 1524,2872 1531,2872 1532,2873 1535,2873 1536,2874 1551,2874 1552,2873 1568,2873 1569,2872 1576,2872 1577,2871 1593,2871 1594,2870 1617,2870 1618,2871 1622,2871 1623,2872 1627,2872 1628,2873 1661,2873 1662,2872 1667,2872 1668,2871 1680,2871 1681,2872 1688,2872 1689,2871 1717,2871 1718,2872 1754,2872 1755,2871 1758,2871 1759,2872 2033,2872 2034,2871 2047,2871 2048,2872 2083,2872 2084,2873 2093,2873 2094,2872 2164,2872 2165,2871 2180,2871 2181,2872 2196,2872 2197,2873 2226,2873 2227,2872 2237,2872 2238,2871 2294,2871 2295,2872 2309,2872 2310,2871 2323,2871 2324,2872 2330,2872 2331,2871 2339,2871 2340,2870 2342,2870 2347,2865 2347,2863 2348,2862 2348,2861 2349,2860 2349,2858 2350,2857 2350,2841 2351,2840 2351,2793 2350,2792 2350,2775 2349,2774 2349,2744 2350,2743 2350,2740 2351,2739 2351,2733 2352,2732 2352,2722 2353,2721 2353,2715 2354,2714 2354,2710 2353,2709 2353,2704 2352,2703 2352,2696 2351,2695 2351,2685 2350,2684 2350,2667 2351,2666 2351,2653 2352,2652 2352,2620 2351,2619 2351,2614 2350,2613 2350,2607 2349,2606 2349,2591 2350,2590 2350,2549 2349,2548 2349,2532 2348,2531 2348,2528 2347,2527 2347,2525 2346,2524 2346,2523 2344,2521 2344,2520 2343,2520 2342,2519 2341,2519 2340,2518 2335,2518 2334,2517 2281,2517 2280,2516 2274,2516 2273,2517 2158,2517 2157,2518 2146,2518 2145,2517 2128,2517 2127,2516 2126,2517 2113,2517 2112,2518 2099,2518 2098,2517 2084,2517 2083,2516 2074,2516 2073,2517 2042,2517 2041,2518 2026,2518 2025,2517 2014,2517 2013,2518 1989,2518 1988,2519 1943,2519 1942,2520 1932,2520 1931,2519 1918,2519 1917,2520 1892,2520 1891,2521 1877,2521 1876,2520 1859,2520 1858,2519 1842,2519 1841,2520 1840,2520 1839,2519 1814,2519 1813,2518 1806,2518 1805,2517 1801,2517 1800,2518 1785,2518 1784,2517 1749,2517 1748,2518 1741,2518 1740,2517 1618,2517 1617,2516 1580,2516 1579,2517 1577,2517 1576,2516 1562,2516 1561,2515 1546,2515 1545,2514 1527,2514 1526,2515 1518,2515 1517,2514 1473,2514 1472,2515 1469,2515 1468,2514 1435,2514 1434,2513 1419,2513 1418,2512 1404,2512 1403,2511" fill="rgba(188,20,102,0.3)" stroke="rgb(188,20,102)" stroke-width="2" data-block-id="0003" data-name="b-0003" /><text x="1593" y="2697" text-anchor="middle" dominant-baseline="middle" class="block-label" fill="rgb(188,20,102)" stroke="white" stroke-width="3" paint-order="stroke">b-0003</text><polygon points="1568,639 1567,640 1555,640 1554,641 1539,641 1538,642 1534,642 1533,643 1498,643 1497,644 1495,644 1494,643 1486,643 1485,642 1476,642 1475,643 1453,643 1452,642 1447,642 1446,641 1443,641 1442,640 1424,640 1423,641 1367,641 1366,642 1359,642 1358,641 1344,641 1343,640 1272,640 1271,641 1265,641 1264,640 1247,640 1246,641 1241,641 1240,640 1229,640 1228,641 1217,641 1216,640 1180,640 1179,641 1177,641 1176,642 1175,642 1174,643 1173,643 1172,644 1142,644 1141,645 1129,645 1128,646 1124,646 1123,645 1092,645 1091,644 1090,645 1083,645 1082,646 1073,646 1072,645 1068,645 1067,644 1058,644 1057,645 1055,645 1054,644 1050,644 1049,643 1047,643 1046,642 1042,642 1041,641 1027,641 1026,642 1020,642 1019,643 1014,643 1013,642 984,642 983,643 978,643 977,642 966,642 965,643 951,643 950,642 944,642 943,643 925,643 924,642 923,642 922,643 912,643 911,644 910,644 907,647 907,665 906,666 906,698 905,699 905,763 904,764 904,814 905,815 905,827 904,828 904,867 903,868 903,882 904,883 904,888 903,889 903,918 904,919 904,929 903,930 903,972 902,973 902,986 903,987 903,990 904,991 904,993 908,997 911,997 912,998 920,998 921,997 923,997 924,998 983,998 984,997 1014,997 1015,996 1019,996 1020,997 1031,997 1032,998 1039,998 1040,999 1051,999 1052,1000 1057,1000 1058,999 1073,999 1074,998 1121,998 1122,997 1127,997 1128,998 1133,998 1134,999 1164,999 1165,998 1216,998 1217,999 1224,999 1225,998 1254,998 1255,997 1273,997 1274,998 1285,998 1286,999 1329,999 1330,1000 1343,1000 1344,999 1393,999 1394,998 1419,998 1420,999 1436,999 1437,998 1451,998 1452,999 1478,999 1479,1000 1497,1000 1498,999 1548,999 1549,1000 1567,1000 1568,999 1575,999 1576,998 1598,998 1599,999 1617,999 1618,998 1640,998 1641,999 1662,999 1663,998 1723,998 1724,999 1757,999 1758,998 1766,998 1767,997 1802,997 1803,996 1817,996 1818,997 1846,997 1847,996 1852,996 1853,997 1860,997 1861,998 1904,998 1905,999 1936,999 1937,998 1957,998 1958,999 1960,999 1961,998 1978,998 1979,999 1986,999 1987,998 1999,998 2000,999 2027,999 2028,998 2046,998 2047,999 2061,999 2062,998 2070,998 2071,999 2093,999 2094,998 2108,998 2109,999 2131,999 2132,998 2138,998 2139,999 2147,999 2148,1000 2166,1000 2167,999 2171,999 2172,998 2177,998 2178,999 2192,999 2193,1000 2201,1000 2202,999 2212,999 2213,1000 2242,1000 2243,1001 2247,1001 2248,1000 2272,1000 2273,999 2283,999 2284,1000 2320,1000 2321,999 2342,999 2343,998 2346,998 2347,997 2349,997 2350,996 2351,996 2352,995 2352,994 2353,993 2353,989 2354,988 2354,952 2353,951 2353,942 2354,941 2354,930 2353,929 2353,903 2354,902 2354,893 2353,892 2353,879 2352,878 2352,869 2353,868 2353,825 2354,824 2354,817 2355,816 2355,806 2356,805 2356,800 2355,799 2355,776 2356,775 2356,763 2355,762 2355,748 2356,747 2356,741 2355,740 2355,695 2356,694 2356,691 2357,690 2357,687 2358,686 2358,684 2359,683 2359,679 2360,678 2360,670 2359,669 2359,664 2358,663 2358,656 2357,655 2357,650 2356,649 2356,648 2354,646 2353,646 2352,645 2351,645 2350,644 2344,644 2343,643 2330,643 2329,642 2322,642 2321,643 2314,643 2313,642 2289,642 2288,643 2208,643 2207,642 2198,642 2197,643 2175,643 2174,642 2130,642 2129,643 2123,643 2122,642 2094,642 2093,643 2090,643 2089,642 2061,642 2060,643 2055,643 2054,642 2035,642 2034,641 2018,641 2017,642 2002,642 2001,643 1986,643 1985,642 1980,642 1979,643 1970,643 1969,644 1959,644 1958,645 1954,645 1953,646 1950,646 1949,647 1945,647 1944,646 1942,646 1941,645 1938,645 1937,644 1932,644 1931,645 1925,645 1924,646 1915,646 1914,647 1910,647 1909,646 1903,646 1902,645 1886,645 1885,646 1869,646 1868,647 1858,647 1857,646 1824,646 1823,647 1817,647 1816,646 1815,646 1814,645 1813,645 1812,644 1811,644 1810,643 1807,643 1806,642 1783,642 1782,643 1781,643 1780,642 1771,642 1770,641 1757,641 1756,642 1717,642 1716,641 1699,641 1698,640 1689,640 1688,639 1662,639 1661,640 1626,640 1625,639" fill="rgba(121,210,214,0.3)" stroke="rgb(121,210,214)" stroke-width="2" data-block-id="0004" data-name="b-0004" /><text x="1676" y="798" text-anchor="middle" dominant-baseline="middle" class="block-label" fill="rgb(121,210,214)" stroke="white" stroke-width="3" paint-order="stroke">b-0004</text><polygon points="3861,1571 3860,1572 3842,1572 3841,1573 3821,1573 3820,1574 3809,1574 3808,1573 3798,1573 3797,1574 3794,1574 3793,1575 3790,1575 3789,1576 3782,1576 3781,1575 3775,1575 3774,1574 3688,1574 3687,1575 3610,1575 3609,1576 3584,1576 3583,1577 3568,1577 3567,1578 3560,1578 3559,1577 3554,1577 3553,1576 3539,1576 3538,1575 3520,1575 3519,1576 3469,1576 3468,1577 3373,1577 3372,1578 3371,1578 3370,1577 3343,1577 3342,1576 3336,1576 3335,1575 3330,1575 3329,1576 3307,1576 3306,1577 3293,1577 3292,1576 3284,1576 3283,1577 3279,1577 3278,1578 3273,1578 3272,1577 3270,1577 3269,1576 3266,1576 3265,1575 3252,1575 3251,1576 3218,1576 3217,1577 3193,1577 3192,1576 3190,1576 3189,1577 3171,1577 3170,1576 3163,1576 3162,1577 3150,1577 3149,1576 3137,1576 3136,1577 3127,1577 3126,1576 3113,1576 3112,1577 3104,1577 3103,1576 3088,1576 3087,1577 3084,1577 3083,1576 3077,1576 3076,1575 3065,1575 3064,1576 3059,1576 3058,1575 3054,1575 3053,1574 2970,1574 2969,1575 2957,1575 2956,1574 2952,1574 2951,1575 2927,1575 2926,1576 2910,1576 2909,1575 2902,1575 2901,1576 2884,1576 2883,1575 2880,1575 2879,1576 2862,1576 2861,1575 2854,1575 2853,1576 2837,1576 2836,1575 2832,1575 2831,1576 2802,1576 2801,1577 2789,1577 2788,1576 2787,1576 2786,1577 2774,1577 2773,1578 2768,1578 2767,1579 2765,1579 2764,1580 2728,1580 2727,1581 2695,1581 2694,1580 2685,1580 2684,1581 2678,1581 2677,1580 2671,1580 2670,1579 2662,1579 2661,1580 2647,1580 2646,1579 2640,1579 2639,1580 2599,1580 2598,1581 2534,1581 2533,1582 2529,1582 2528,1583 2524,1583 2523,1584 2521,1584 2520,1585 2518,1585 2517,1586 2515,1586 2511,1590 2511,1593 2510,1594 2510,1600 2509,1601 2509,1618 2510,1619 2510,1623 2511,1624 2511,1629 2510,1630 2510,1644 2511,1645 2511,1659 2510,1660 2510,1661 2511,1662 2511,1682 2510,1683 2510,1694 2509,1695 2509,1708 2510,1709 2510,1742 2511,1743 2511,1745 2510,1746 2510,1770 2509,1771 2509,1785 2510,1786 2510,1816 2511,1817 2511,1818 2510,1819 2510,1850 2509,1851 2509,1864 2510,1865 2510,1873 2511,1874 2511,1895 2510,1896 2510,1904 2511,1905 2511,1917 2510,1918 2510,1924 2511,1925 2511,1926 2514,1929 2515,1929 2516,1930 2517,1930 2518,1931 2519,1931 2520,1932 2523,1932 2524,1933 2529,1933 2530,1934 2540,1934 2541,1935 2561,1935 2562,1936 2590,1936 2591,1937 2599,1937 2600,1938 2624,1938 2625,1937 2636,1937 2637,1938 2647,1938 2648,1937 2652,1937 2653,1936 2659,1936 2660,1937 2685,1937 2686,1938 2692,1938 2693,1937 2697,1937 2698,1936 2706,1936 2707,1935 2774,1935 2775,1936 2792,1936 2793,1937 2801,1937 2802,1938 2806,1938 2807,1939 2812,1939 2813,1938 2817,1938 2818,1937 2834,1937 2835,1938 2836,1937 2850,1937 2851,1938 2865,1938 2866,1937 2885,1937 2886,1936 2890,1936 2891,1935 2900,1935 2901,1936 2910,1936 2911,1935 2920,1935 2921,1936 2976,1936 2977,1935 2980,1935 2981,1934 2985,1934 2986,1933 3008,1933 3009,1932 3020,1932 3021,1933 3050,1933 3051,1932 3056,1932 3057,1931 3063,1931 3064,1932 3070,1932 3071,1933 3075,1933 3076,1932 3104,1932 3105,1931 3116,1931 3117,1932 3171,1932 3172,1931 3175,1931 3176,1930 3185,1930 3186,1931 3198,1931 3199,1930 3214,1930 3215,1931 3224,1931 3225,1932 3246,1932 3247,1931 3258,1931 3259,1932 3264,1932 3265,1931 3295,1931 3296,1930 3303,1930 3304,1931 3326,1931 3327,1932 3335,1932 3336,1931 3363,1931 3364,1930 3386,1930 3387,1929 3394,1929 3395,1928 3396,1928 3397,1929 3427,1929 3428,1930 3430,1930 3431,1929 3438,1929 3439,1928 3445,1928 3446,1929 3454,1929 3455,1930 3465,1930 3466,1931 3480,1931 3481,1930 3526,1930 3527,1929 3531,1929 3532,1928 3544,1928 3545,1929 3551,1929 3552,1928 3574,1928 3575,1927 3613,1927 3614,1928 3619,1928 3620,1927 3666,1927 3667,1926 3699,1926 3700,1925 3772,1925 3773,1926 3774,1925 3778,1925 3779,1924 3780,1924 3782,1922 3783,1922 3783,1921 3785,1919 3786,1919 3787,1918 3788,1918 3789,1919 3790,1919 3791,1920 3792,1920 3794,1922 3796,1922 3797,1923 3807,1923 3808,1922 3812,1922 3813,1923 3820,1923 3821,1924 3823,1924 3824,1923 3830,1923 3831,1922 3841,1922 3842,1923 3849,1923 3850,1922 3863,1922 3864,1923 3877,1923 3878,1922 3886,1922 3887,1923 3903,1923 3904,1922 3906,1922 3907,1923 3912,1923 3913,1924 3942,1924 3943,1923 3946,1923 3947,1922 3949,1922 3950,1921 3953,1921 3954,1920 3955,1920 3957,1918 3958,1918 3958,1917 3960,1915 3960,1913 3961,1912 3961,1909 3962,1908 3962,1903 3963,1902 3963,1879 3964,1878 3964,1873 3963,1872 3963,1833 3964,1832 3964,1823 3963,1822 3963,1804 3962,1803 3962,1787 3963,1786 3963,1775 3962,1774 3962,1751 3961,1750 3961,1741 3962,1740 3962,1736 3963,1735 3963,1728 3962,1727 3962,1712 3963,1711 3963,1705 3962,1704 3962,1682 3961,1681 3961,1669 3962,1668 3962,1665 3963,1664 3963,1658 3962,1657 3962,1654 3961,1653 3961,1645 3962,1644 3962,1629 3961,1628 3961,1620 3962,1619 3962,1609 3961,1608 3961,1597 3962,1596 3962,1589 3961,1588 3961,1584 3960,1583 3960,1580 3959,1579 3959,1577 3955,1573 3954,1573 3953,1572 3914,1572 3913,1573 3902,1573 3901,1572 3891,1572 3890,1573 3887,1573 3886,1574 3879,1574 3878,1573 3876,1573 3875,1572 3873,1572 3872,1571" fill="rgba(74,202,87,0.3)" stroke="rgb(74,202,87)" stroke-width="2" data-block-id="0005" data-name="b-0005" /><text x="3252" y="1763" text-anchor="middle" dominant-baseline="middle" class="block-label" fill="rgb(74,202,87)" stroke="white" stroke-width="3" paint-order="stroke">b-0005</text><polygon points="1420,1110 1419,1111 1410,1111 1409,1112 1369,1112 1368,1113 1356,1113 1355,1112 1345,1112 1344,1113 1338,1113 1337,1112 1324,1112 1323,1113 1318,1113 1317,1114 1313,1114 1312,1113 1303,1113 1302,1112 1301,1113 1288,1113 1287,1112 1282,1112 1281,1111 1278,1111 1277,1112 1271,1112 1270,1113 1262,1113 1261,1112 1253,1112 1252,1113 1240,1113 1239,1112 1225,1112 1224,1113 1214,1113 1213,1112 1204,1112 1203,1113 1192,1113 1191,1112 1179,1112 1178,1113 1166,1113 1165,1112 1155,1112 1154,1113 1144,1113 1143,1112 1133,1112 1132,1113 1129,1113 1128,1114 1119,1114 1118,1113 1096,1113 1095,1112 1086,1112 1085,1113 1083,1113 1082,1114 1081,1114 1080,1115 1075,1115 1074,1114 1072,1114 1071,1113 1069,1113 1068,1112 1061,1112 1060,1113 1049,1113 1048,1112 1035,1112 1034,1113 1025,1113 1024,1112 1011,1112 1010,1113 1000,1113 999,1112 991,1112 990,1113 987,1113 986,1114 984,1114 983,1115 978,1115 977,1114 957,1114 956,1113 954,1113 953,1112 941,1112 940,1113 938,1113 937,1114 930,1114 929,1113 913,1113 912,1114 910,1114 902,1122 902,1123 901,1124 901,1125 900,1126 900,1138 899,1139 899,1146 898,1147 898,1152 899,1153 899,1158 900,1159 900,1163 899,1164 899,1166 898,1167 898,1171 897,1172 897,1177 896,1178 896,1194 897,1195 897,1198 898,1199 898,1202 899,1203 899,1206 900,1207 900,1210 899,1211 899,1215 898,1216 898,1219 897,1220 897,1229 898,1230 898,1253 899,1254 899,1257 898,1258 898,1265 897,1266 897,1285 898,1286 898,1293 899,1294 899,1309 898,1310 898,1328 899,1329 899,1368 898,1369 898,1376 899,1377 899,1381 900,1382 900,1386 901,1387 901,1404 900,1405 900,1426 899,1427 899,1431 898,1432 898,1446 899,1447 899,1450 900,1451 900,1453 901,1454 901,1456 902,1457 902,1459 903,1460 903,1461 905,1463 906,1463 908,1465 910,1465 911,1466 917,1466 918,1467 928,1467 929,1466 941,1466 942,1467 952,1467 953,1466 961,1466 962,1467 967,1467 968,1468 972,1468 973,1467 978,1467 979,1466 985,1466 986,1467 992,1467 993,1468 996,1468 997,1467 1004,1467 1005,1466 1010,1466 1011,1467 1024,1467 1025,1466 1031,1466 1032,1467 1037,1467 1038,1468 1050,1468 1051,1467 1055,1467 1056,1468 1061,1468 1062,1469 1067,1469 1068,1468 1069,1468 1070,1467 1071,1467 1072,1466 1074,1466 1075,1465 1077,1465 1078,1464 1079,1464 1080,1465 1087,1465 1088,1466 1105,1466 1106,1467 1110,1467 1111,1468 1115,1468 1116,1467 1120,1467 1121,1466 1131,1466 1132,1467 1142,1467 1143,1466 1152,1466 1153,1467 1158,1467 1159,1468 1162,1468 1163,1467 1170,1467 1171,1466 1174,1466 1175,1467 1181,1467 1182,1468 1188,1468 1189,1467 1199,1467 1200,1468 1203,1468 1204,1469 1212,1469 1213,1468 1215,1468 1216,1467 1219,1467 1220,1466 1225,1466 1226,1467 1240,1467 1241,1466 1246,1466 1247,1467 1253,1467 1254,1468 1260,1468 1261,1467 1271,1467 1272,1468 1278,1468 1279,1469 1281,1469 1282,1468 1289,1468 1290,1467 1294,1467 1295,1468 1307,1468 1308,1467 1314,1467 1315,1466 1317,1466 1318,1467 1348,1467 1349,1468 1392,1468 1393,1469 1397,1469 1398,1470 1401,1470 1402,1469 1408,1469 1409,1468 1413,1468 1414,1469 1420,1469 1421,1470 1422,1470 1423,1469 1427,1469 1428,1468 1431,1468 1432,1467 1440,1467 1441,1468 1451,1468 1452,1467 1458,1467 1459,1466 1467,1466 1468,1467 1469,1467 1470,1466 1479,1466 1480,1465 1486,1465 1487,1466 1498,1466 1499,1465 1520,1465 1521,1466 1538,1466 1539,1467 1544,1467 1545,1466 1577,1466 1578,1467 1621,1467 1622,1466 1631,1466 1632,1467 1646,1467 1647,1466 1651,1466 1652,1467 1671,1467 1672,1468 1691,1468 1692,1467 1725,1467 1726,1468 1772,1468 1773,1469 1777,1469 1778,1470 1801,1470 1802,1471 1803,1470 1807,1470 1808,1469 1810,1469 1811,1468 1815,1468 1816,1467 1819,1467 1820,1468 1835,1468 1836,1467 1849,1467 1850,1468 1865,1468 1866,1469 1878,1469 1879,1468 1884,1468 1885,1467 1895,1467 1896,1468 1908,1468 1909,1469 1938,1469 1939,1470 1951,1470 1952,1469 1955,1469 1956,1468 1976,1468 1977,1467 2001,1467 2002,1468 2011,1468 2012,1469 2020,1469 2021,1468 2023,1468 2024,1467 2026,1467 2027,1466 2038,1466 2039,1467 2049,1467 2050,1468 2057,1468 2058,1469 2070,1469 2071,1468 2073,1468 2074,1467 2076,1467 2077,1466 2086,1466 2087,1465 2089,1465 2090,1466 2096,1466 2097,1467 2100,1467 2101,1468 2115,1468 2116,1469 2128,1469 2129,1468 2144,1468 2145,1467 2165,1467 2166,1466 2193,1466 2194,1465 2341,1465 2342,1464 2343,1464 2344,1463 2345,1463 2346,1462 2347,1462 2348,1461 2349,1461 2350,1460 2350,1459 2351,1458 2351,1456 2352,1455 2352,1445 2353,1444 2353,1427 2352,1426 2352,1421 2353,1420 2353,1407 2352,1406 2352,1400 2351,1399 2351,1398 2352,1397 2352,1388 2353,1387 2353,1385 2352,1384 2352,1371 2353,1370 2353,1354 2352,1353 2352,1350 2353,1349 2353,1335 2352,1334 2352,1314 2351,1313 2351,1310 2350,1309 2350,1306 2349,1305 2350,1304 2350,1301 2351,1300 2351,1297 2352,1296 2352,1293 2353,1292 2353,1279 2354,1278 2354,1262 2353,1261 2353,1236 2352,1235 2352,1229 2353,1228 2353,1215 2352,1214 2352,1207 2353,1206 2353,1203 2354,1202 2354,1187 2353,1186 2353,1146 2354,1145 2354,1126 2353,1125 2353,1124 2348,1119 2347,1119 2346,1118 2345,1118 2344,1117 2343,1117 2342,1116 2339,1116 2338,1115 2310,1115 2309,1116 2292,1116 2291,1115 2284,1115 2283,1114 2265,1114 2264,1115 2258,1115 2257,1116 2246,1116 2245,1115 2235,1115 2234,1114 2226,1114 2225,1115 2212,1115 2211,1116 2206,1116 2205,1115 2195,1115 2194,1114 2164,1114 2163,1113 2118,1113 2117,1112 2110,1112 2109,1113 2097,1113 2096,1112 2084,1112 2083,1113 2072,1113 2071,1112 2059,1112 2058,1113 2052,1113 2051,1112 2037,1112 2036,1113 2034,1113 2033,1114 2028,1114 2027,1113 2024,1113 2023,1112 2020,1112 2019,1111 2012,1111 2011,1112 1987,1112 1986,1113 1979,1113 1978,1112 1939,1112 1938,1113 1930,1113 1929,1112 1916,1112 1915,1113 1909,1113 1908,1112 1895,1112 1894,1113 1891,1113 1890,1114 1881,1114 1880,1113 1866,1113 1865,1114 1855,1114 1854,1115 1847,1115 1846,1116 1837,1116 1836,1115 1833,1115 1832,1114 1812,1114 1811,1113 1808,1113 1807,1112 1799,1112 1798,1113 1789,1113 1788,1112 1783,1112 1782,1111 1775,1111 1774,1112 1755,1112 1754,1113 1739,1113 1738,1112 1723,1112 1722,1113 1717,1113 1716,1112 1706,1112 1705,1113 1690,1113 1689,1112 1680,1112 1679,1113 1668,1113 1667,1112 1656,1112 1655,1113 1652,1113 1651,1114 1647,1114 1646,1113 1642,1113 1641,1112 1633,1112 1632,1113 1628,1113 1627,1114 1624,1114 1623,1113 1620,1113 1619,1112 1604,1112 1603,1113 1600,1113 1599,1112 1580,1112 1579,1113 1558,1113 1557,1114 1551,1114 1550,1113 1545,1113 1544,1112 1538,1112 1537,1113 1527,1113 1526,1112 1520,1112 1519,1111 1517,1111 1516,1112 1510,1112 1509,1113 1504,1113 1503,1112 1498,1112 1497,1111 1490,1111 1489,1112 1474,1112 1473,1111 1464,1111 1463,1112 1430,1112 1429,1111 1425,1111 1424,1110" fill="rgba(116,99,103,0.3)" stroke="rgb(116,99,103)" stroke-width="2" data-block-id="0006" data-name="b-0006" /><text x="1545" y="1288" text-anchor="middle" dominant-baseline="middle" class="block-label" fill="rgb(116,99,103)" stroke="white" stroke-width="3" paint-order="stroke">b-0006</text><polygon points="3952,2501 3951,2502 3947,2502 3946,2503 3940,2503 3939,2504 3931,2504 3930,2505 3908,2505 3907,2504 3899,2504 3898,2505 3846,2505 3845,2504 3809,2504 3808,2503 3797,2503 3796,2504 3794,2504 3793,2505 3791,2505 3790,2506 3789,2506 3788,2507 3770,2507 3769,2506 3753,2506 3752,2505 3737,2505 3736,2506 3706,2506 3705,2505 3703,2505 3702,2506 3658,2506 3657,2505 3617,2505 3616,2504 3582,2504 3581,2503 3552,2503 3551,2504 3543,2504 3542,2503 3509,2503 3508,2504 3495,2504 3494,2503 3484,2503 3483,2504 3470,2504 3469,2503 3460,2503 3459,2504 3411,2504 3410,2505 3376,2505 3375,2504 3348,2504 3347,2505 3342,2505 3341,2506 3336,2506 3335,2507 3319,2507 3318,2506 3295,2506 3294,2507 3274,2507 3273,2506 3231,2506 3230,2507 3215,2507 3214,2508 3124,2508 3123,2509 3115,2509 3114,2510 3111,2510 3110,2511 3092,2511 3091,2512 3086,2512 3085,2513 3078,2513 3077,2514 3066,2514 3065,2513 3058,2513 3057,2512 3051,2512 3050,2511 3046,2511 3045,2512 3038,2512 3037,2513 3024,2513 3023,2512 3020,2512 3019,2511 3012,2511 3011,2510 3008,2510 3007,2511 2981,2511 2980,2512 2947,2512 2946,2511 2910,2511 2909,2512 2886,2512 2885,2513 2861,2513 2860,2514 2850,2514 2849,2513 2844,2513 2843,2514 2783,2514 2782,2513 2777,2513 2776,2512 2772,2512 2771,2513 2766,2513 2765,2514 2733,2514 2732,2513 2720,2513 2719,2514 2688,2514 2687,2513 2674,2513 2673,2514 2670,2514 2669,2515 2666,2515 2665,2514 2663,2514 2662,2513 2660,2513 2659,2512 2653,2512 2652,2513 2649,2513 2648,2514 2645,2514 2644,2515 2630,2515 2629,2514 2613,2514 2612,2513 2606,2513 2605,2514 2600,2514 2599,2515 2590,2515 2589,2514 2584,2514 2583,2513 2575,2513 2574,2514 2573,2513 2567,2513 2566,2512 2562,2512 2561,2511 2556,2511 2555,2512 2546,2512 2545,2511 2543,2511 2542,2510 2539,2510 2538,2509 2529,2509 2528,2510 2524,2510 2523,2511 2522,2511 2521,2512 2520,2512 2519,2513 2518,2513 2513,2518 2513,2519 2512,2520 2512,2521 2511,2522 2511,2528 2512,2529 2512,2546 2511,2547 2511,2556 2510,2557 2510,2572 2511,2573 2511,2577 2512,2578 2512,2582 2513,2583 2513,2595 2512,2596 2512,2600 2511,2601 2511,2606 2510,2607 2510,2619 2511,2620 2511,2632 2512,2633 2512,2643 2511,2644 2511,2651 2510,2652 2510,2669 2511,2670 2511,2677 2512,2678 2512,2691 2511,2692 2511,2701 2510,2702 2510,2719 2511,2720 2511,2741 2510,2742 2510,2749 2509,2750 2509,2751 2510,2752 2510,2794 2509,2795 2509,2801 2510,2802 2510,2815 2511,2816 2511,2833 2510,2834 2510,2850 2511,2851 2511,2854 2512,2855 2512,2856 2514,2858 2515,2858 2517,2860 2518,2860 2519,2861 2521,2861 2522,2862 2525,2862 2526,2863 2530,2863 2531,2862 2535,2862 2536,2863 2547,2863 2548,2864 2556,2864 2557,2865 2569,2865 2570,2866 2581,2866 2582,2867 2608,2867 2609,2868 2620,2868 2621,2869 2625,2869 2626,2870 2627,2870 2628,2871 2629,2871 2630,2872 2631,2872 2632,2873 2657,2873 2658,2872 2662,2872 2663,2871 2672,2871 2673,2870 2693,2870 2694,2869 2696,2869 2697,2868 2698,2868 2699,2867 2700,2867 2701,2866 2713,2866 2714,2867 2724,2867 2725,2868 2748,2868 2749,2869 2753,2869 2754,2868 2784,2868 2785,2869 2788,2869 2789,2868 2815,2868 2816,2867 2836,2867 2837,2866 2842,2866 2843,2865 2851,2865 2852,2866 2881,2866 2882,2865 2891,2865 2892,2866 2903,2866 2904,2867 2910,2867 2911,2868 2917,2868 2918,2869 2931,2869 2932,2868 2941,2868 2942,2867 2951,2867 2952,2866 2959,2866 2960,2865 2969,2865 2970,2864 2983,2864 2984,2865 3022,2865 3023,2864 3095,2864 3096,2863 3112,2863 3113,2862 3123,2862 3124,2863 3139,2863 3140,2862 3159,2862 3160,2861 3175,2861 3176,2862 3182,2862 3183,2861 3196,2861 3197,2862 3208,2862 3209,2863 3220,2863 3221,2862 3253,2862 3254,2861 3387,2861 3388,2862 3397,2862 3398,2861 3403,2861 3404,2860 3427,2860 3428,2861 3438,2861 3439,2862 3456,2862 3457,2861 3460,2861 3461,2860 3467,2860 3468,2859 3474,2859 3475,2858 3478,2858 3479,2859 3483,2859 3484,2860 3489,2860 3490,2861 3491,2861 3492,2860 3505,2860 3506,2859 3552,2859 3553,2858 3580,2858 3581,2857 3602,2857 3603,2856 3622,2856 3623,2855 3641,2855 3642,2856 3644,2856 3645,2855 3653,2855 3654,2854 3721,2854 3722,2853 3730,2853 3731,2854 3745,2854 3746,2853 3781,2853 3782,2854 3789,2854 3790,2853 3794,2853 3795,2852 3817,2852 3818,2851 3828,2851 3829,2852 3876,2852 3877,2853 3887,2853 3888,2852 3936,2852 3937,2851 3955,2851 3956,2850 3957,2850 3958,2849 3960,2849 3961,2848 3962,2848 3963,2847 3965,2847 3966,2846 3967,2846 3970,2843 3970,2841 3969,2840 3969,2838 3968,2837 3968,2834 3967,2833 3967,2824 3966,2823 3966,2819 3967,2818 3967,2814 3968,2813 3968,2808 3969,2807 3969,2806 3968,2805 3968,2795 3967,2794 3967,2790 3966,2789 3966,2784 3965,2783 3965,2776 3964,2775 3964,2770 3965,2769 3965,2764 3966,2763 3966,2749 3965,2748 3965,2745 3964,2744 3964,2741 3963,2740 3963,2738 3962,2737 3962,2724 3963,2723 3963,2722 3964,2721 3964,2720 3965,2719 3965,2718 3966,2717 3966,2716 3967,2715 3967,2713 3968,2712 3968,2710 3967,2709 3967,2704 3966,2703 3966,2697 3965,2696 3965,2687 3964,2686 3964,2679 3963,2678 3963,2674 3964,2673 3964,2659 3963,2658 3963,2642 3962,2641 3962,2635 3961,2634 3961,2625 3962,2624 3962,2619 3963,2618 3963,2616 3962,2615 3962,2607 3961,2606 3961,2602 3962,2601 3962,2586 3961,2585 3961,2582 3962,2581 3962,2575 3963,2574 3963,2562 3962,2561 3962,2541 3961,2540 3961,2526 3962,2525 3962,2516 3961,2515 3961,2509 3958,2506 3958,2505 3955,2502 3953,2502" fill="rgba(151,130,149,0.3)" stroke="rgb(151,130,149)" stroke-width="2" data-block-id="0007" data-name="b-0007" /><text x="3214" y="2686" text-anchor="middle" dominant-baseline="middle" class="block-label" fill="rgb(151,130,149)" stroke="white" stroke-width="3" paint-order="stroke">b-0007</text><polygon points="3677,2038 3676,2039 3673,2039 3672,2040 3671,2040 3670,2041 3664,2041 3663,2040 3659,2040 3658,2039 3651,2039 3650,2040 3627,2040 3626,2041 3622,2041 3621,2042 3617,2042 3616,2041 3597,2041 3596,2040 3581,2040 3580,2041 3558,2041 3557,2040 3479,2040 3478,2041 3475,2041 3474,2040 3456,2040 3455,2041 3439,2041 3438,2042 3435,2042 3434,2043 3431,2043 3430,2044 3423,2044 3422,2043 3411,2043 3410,2044 3404,2044 3403,2043 3396,2043 3395,2042 3393,2042 3392,2043 3387,2043 3386,2044 3366,2044 3365,2043 3349,2043 3348,2042 3344,2042 3343,2043 3332,2043 3331,2042 3329,2042 3328,2041 3326,2041 3325,2040 3319,2040 3318,2041 3313,2041 3312,2042 3298,2042 3297,2043 3265,2043 3264,2042 3251,2042 3250,2043 3239,2043 3238,2044 3215,2044 3214,2043 3205,2043 3204,2044 3178,2044 3177,2045 3175,2045 3174,2046 3171,2046 3170,2047 3168,2047 3167,2048 3153,2048 3152,2049 3148,2049 3147,2050 3135,2050 3134,2049 3124,2049 3123,2048 3090,2048 3089,2047 3070,2047 3069,2046 3066,2046 3065,2045 3057,2045 3056,2046 3053,2046 3052,2047 3038,2047 3037,2048 3029,2048 3028,2049 3013,2049 3012,2050 3003,2050 3002,2051 2983,2051 2982,2050 2977,2050 2976,2049 2975,2049 2974,2048 2973,2048 2972,2047 2969,2047 2968,2046 2961,2046 2960,2047 2957,2047 2956,2048 2945,2048 2944,2047 2939,2047 2938,2046 2935,2046 2934,2045 2932,2045 2931,2044 2929,2044 2928,2043 2926,2043 2925,2042 2923,2042 2922,2041 2921,2041 2920,2040 2915,2040 2914,2041 2913,2041 2912,2042 2911,2042 2910,2043 2908,2043 2907,2044 2893,2044 2892,2045 2871,2045 2870,2046 2866,2046 2865,2047 2862,2047 2861,2048 2849,2048 2848,2047 2843,2047 2842,2048 2836,2048 2835,2049 2820,2049 2819,2050 2815,2050 2814,2051 2778,2051 2777,2052 2761,2052 2760,2053 2748,2053 2747,2052 2744,2052 2743,2051 2738,2051 2737,2050 2736,2051 2698,2051 2697,2050 2695,2050 2694,2049 2691,2049 2690,2048 2677,2048 2676,2047 2673,2047 2672,2046 2670,2046 2669,2045 2664,2045 2663,2046 2659,2046 2658,2047 2650,2047 2649,2046 2640,2046 2639,2047 2631,2047 2630,2048 2601,2048 2600,2047 2586,2047 2585,2048 2563,2048 2562,2049 2558,2049 2557,2048 2551,2048 2550,2047 2544,2047 2543,2048 2524,2048 2523,2049 2521,2049 2520,2050 2519,2050 2518,2051 2517,2051 2516,2052 2515,2052 2512,2055 2512,2056 2511,2057 2511,2061 2512,2062 2512,2067 2513,2068 2513,2072 2512,2073 2512,2098 2511,2099 2511,2116 2512,2117 2512,2146 2511,2147 2511,2171 2512,2172 2512,2209 2511,2210 2511,2212 2512,2213 2512,2250 2511,2251 2511,2266 2512,2267 2512,2280 2511,2281 2511,2317 2512,2318 2512,2323 2511,2324 2511,2341 2510,2342 2510,2360 2511,2361 2511,2372 2510,2373 2510,2390 2511,2391 2511,2392 2513,2394 2514,2394 2515,2395 2516,2395 2517,2396 2518,2396 2519,2397 2521,2397 2522,2398 2534,2398 2535,2399 2541,2399 2542,2400 2546,2400 2547,2401 2561,2401 2562,2402 2568,2402 2569,2403 2585,2403 2586,2404 2592,2404 2593,2405 2598,2405 2599,2404 2605,2404 2606,2403 2633,2403 2634,2404 2638,2404 2639,2405 2674,2405 2675,2404 2683,2404 2684,2403 2689,2403 2690,2402 2723,2402 2724,2401 2729,2401 2730,2402 2746,2402 2747,2403 2766,2403 2767,2402 2770,2402 2771,2401 2793,2401 2794,2402 2819,2402 2820,2401 2874,2401 2875,2400 2887,2400 2888,2401 2915,2401 2916,2400 2921,2400 2922,2399 2936,2399 2937,2400 2948,2400 2949,2401 2954,2401 2955,2400 2960,2400 2961,2399 3009,2399 3010,2398 3019,2398 3020,2399 3028,2399 3029,2398 3044,2398 3045,2399 3049,2399 3050,2398 3059,2398 3060,2397 3062,2397 3063,2398 3080,2398 3081,2397 3086,2397 3087,2398 3101,2398 3102,2397 3115,2397 3116,2398 3127,2398 3128,2399 3170,2399 3171,2398 3175,2398 3176,2397 3212,2397 3213,2398 3219,2398 3220,2397 3231,2397 3232,2398 3247,2398 3248,2397 3268,2397 3269,2396 3290,2396 3291,2395 3309,2395 3310,2396 3334,2396 3335,2395 3391,2395 3392,2394 3397,2394 3398,2395 3411,2395 3412,2394 3441,2394 3442,2393 3443,2393 3444,2394 3480,2394 3481,2393 3499,2393 3500,2394 3505,2394 3506,2393 3549,2393 3550,2392 3556,2392 3557,2391 3570,2391 3571,2392 3585,2392 3586,2391 3591,2391 3592,2390 3599,2390 3600,2391 3611,2391 3612,2392 3650,2392 3651,2391 3668,2391 3669,2390 3699,2390 3700,2389 3710,2389 3711,2388 3745,2388 3746,2389 3759,2389 3760,2388 3796,2388 3797,2387 3808,2387 3809,2386 3810,2386 3811,2387 3819,2387 3820,2388 3838,2388 3839,2387 3842,2387 3843,2386 3845,2386 3846,2385 3861,2385 3862,2386 3875,2386 3876,2385 3883,2385 3884,2386 3885,2386 3886,2387 3890,2387 3891,2388 3897,2388 3898,2387 3904,2387 3905,2386 3919,2386 3920,2385 3937,2385 3938,2386 3945,2386 3946,2385 3952,2385 3953,2384 3955,2384 3957,2382 3958,2382 3961,2379 3961,2378 3962,2377 3962,2373 3963,2372 3963,2352 3964,2351 3964,2346 3965,2345 3965,2338 3966,2337 3966,2325 3965,2324 3965,2305 3964,2304 3964,2301 3963,2300 3963,2293 3964,2292 3964,2290 3965,2289 3965,2287 3966,2286 3966,2281 3965,2280 3965,2277 3964,2276 3964,2274 3963,2273 3963,2254 3962,2253 3962,2246 3963,2245 3963,2241 3964,2240 3964,2238 3965,2237 3965,2235 3964,2234 3964,2232 3963,2231 3963,2230 3962,2229 3962,2227 3961,2226 3961,2221 3962,2220 3962,2217 3963,2216 3963,2210 3962,2209 3962,2206 3961,2205 3961,2203 3960,2202 3960,2198 3961,2197 3961,2193 3962,2192 3962,2184 3961,2183 3961,2179 3960,2178 3960,2176 3961,2175 3961,2171 3962,2170 3962,2160 3961,2159 3961,2156 3960,2155 3960,2150 3961,2149 3961,2145 3962,2144 3962,2138 3961,2137 3961,2133 3960,2132 3960,2126 3961,2125 3961,2121 3962,2120 3962,2112 3961,2111 3961,2100 3962,2099 3962,2094 3963,2093 3963,2092 3962,2091 3962,2084 3961,2083 3961,2073 3962,2072 3962,2069 3961,2068 3961,2047 3960,2046 3960,2045 3956,2041 3955,2041 3954,2040 3951,2040 3950,2039 3932,2039 3931,2038 3909,2038 3908,2039 3907,2039 3906,2038 3885,2038 3884,2039 3879,2039 3878,2038 3867,2038 3866,2039 3861,2039 3860,2040 3853,2040 3852,2039 3779,2039 3778,2038 3773,2038 3772,2039 3734,2039 3733,2038 3724,2038 3723,2039 3717,2039 3716,2040 3712,2040 3711,2039 3697,2039 3696,2038" fill="rgba(235,157,37,0.3)" stroke="rgb(235,157,37)" stroke-width="2" data-block-id="0008" data-name="b-0009" /><text x="3277" y="2199" text-anchor="middle" dominant-baseline="middle" class="block-label" fill="rgb(235,157,37)" stroke="white" stroke-width="3" paint-order="stroke">b-0009</text><polygon points="3580,638 3579,639 3573,639 3572,640 3530,640 3529,641 3488,641 3487,642 3486,641 3475,641 3474,642 3449,642 3448,641 3433,641 3432,642 3399,642 3398,641 3395,641 3394,642 3387,642 3386,643 3380,643 3379,644 3374,644 3373,645 3313,645 3312,644 3305,644 3304,645 3296,645 3295,644 3271,644 3270,643 3244,643 3243,642 3223,642 3222,641 3218,641 3217,640 3200,640 3199,641 3194,641 3193,642 3189,642 3188,643 3183,643 3182,644 3177,644 3176,643 3172,643 3171,642 3134,642 3133,643 3129,643 3128,642 3114,642 3113,643 3104,643 3103,642 3067,642 3066,643 3062,643 3061,644 3057,644 3056,643 3048,643 3047,642 3040,642 3039,641 3016,641 3015,642 3009,642 3008,641 2959,641 2958,642 2944,642 2943,641 2926,641 2925,642 2910,642 2909,641 2875,641 2874,642 2867,642 2866,641 2863,641 2862,640 2827,640 2826,641 2817,641 2816,640 2787,640 2786,641 2771,641 2770,640 2757,640 2756,641 2752,641 2751,642 2745,642 2744,643 2695,643 2694,644 2692,644 2691,645 2689,645 2688,646 2685,646 2684,647 2678,647 2677,646 2676,646 2675,645 2674,645 2673,644 2672,644 2671,643 2660,643 2659,644 2652,644 2651,645 2637,645 2636,646 2593,646 2592,647 2566,647 2565,648 2559,648 2558,649 2553,649 2552,650 2547,650 2546,651 2545,651 2544,652 2543,652 2542,653 2541,653 2540,654 2539,654 2538,655 2522,655 2521,656 2518,656 2517,657 2513,657 2510,660 2510,661 2509,662 2509,665 2508,666 2508,670 2507,671 2507,696 2506,697 2506,701 2505,702 2505,706 2504,707 2504,716 2503,717 2503,721 2504,722 2504,726 2505,727 2505,776 2506,777 2506,778 2505,779 2505,808 2506,809 2506,838 2505,839 2505,841 2506,842 2506,875 2505,876 2505,909 2506,910 2506,956 2507,957 2507,960 2506,961 2506,991 2507,992 2507,994 2510,997 2511,997 2512,998 2522,998 2523,999 2556,999 2557,1000 2563,1000 2564,999 2672,999 2673,998 2687,998 2688,997 2695,997 2696,998 2711,998 2712,997 2846,997 2847,996 2848,997 2866,997 2867,996 2868,996 2869,997 2892,997 2893,996 2895,996 2896,997 2939,997 2940,996 2956,996 2957,995 2969,995 2970,996 3007,996 3008,995 3017,995 3018,996 3039,996 3040,995 3044,995 3045,994 3123,994 3124,993 3163,993 3164,994 3198,994 3199,995 3216,995 3217,994 3221,994 3222,993 3226,993 3227,992 3240,992 3241,991 3251,991 3252,990 3253,991 3263,991 3264,990 3283,990 3284,991 3288,991 3289,990 3317,990 3318,989 3325,989 3326,990 3343,990 3344,989 3351,989 3352,990 3366,990 3367,991 3403,991 3404,990 3405,990 3406,991 3411,991 3412,992 3414,992 3415,993 3422,993 3423,994 3434,994 3435,995 3445,995 3446,994 3451,994 3452,993 3460,993 3461,994 3480,994 3481,993 3526,993 3527,992 3532,992 3533,991 3552,991 3553,992 3579,992 3580,991 3628,991 3629,990 3640,990 3641,991 3659,991 3660,992 3672,992 3673,991 3703,991 3704,992 3748,992 3749,991 3754,991 3755,992 3764,992 3765,991 3768,991 3769,990 3772,990 3773,989 3781,989 3782,990 3826,990 3827,991 3855,991 3856,992 3860,992 3861,991 3875,991 3876,992 3887,992 3888,991 3900,991 3901,992 3907,992 3908,991 3911,991 3912,990 3917,990 3918,989 3920,989 3921,990 3940,990 3941,989 3943,989 3945,987 3946,987 3950,983 3950,982 3951,981 3951,948 3952,947 3952,937 3953,936 3952,935 3952,929 3951,928 3951,926 3950,925 3950,923 3951,922 3951,921 3952,920 3952,919 3953,918 3953,917 3954,916 3954,915 3955,914 3955,905 3954,904 3954,892 3955,891 3955,885 3954,884 3954,879 3953,878 3953,864 3954,863 3954,852 3955,851 3955,846 3956,845 3956,795 3957,794 3957,756 3958,755 3958,725 3957,724 3957,718 3956,717 3956,710 3955,709 3955,662 3954,661 3954,649 3953,648 3953,647 3949,643 3948,643 3947,642 3945,642 3944,641 3910,641 3909,640 3903,640 3902,641 3877,641 3876,642 3841,642 3840,641 3815,641 3814,640 3806,640 3805,641 3773,641 3772,640 3768,640 3767,639 3762,639 3761,638 3759,638 3758,639 3723,639 3722,638 3707,638 3706,639 3666,639 3665,640 3646,640 3645,639 3635,639 3634,638 3628,638 3627,639 3615,639 3614,640 3593,640 3592,639 3589,639 3588,638" fill="rgba(129,191,187,0.3)" stroke="rgb(129,191,187)" stroke-width="2" data-block-id="0009" data-name="b-0010" /><text x="3256" y="803" text-anchor="middle" dominant-baseline="middle" class="block-label" fill="rgb(129,191,187)" stroke="white" stroke-width="3" paint-order="stroke">b-0010</text><polygon points="3539,1104 3538,1105 3536,1105 3535,1106 3534,1106 3533,1107 3532,1107 3531,1108 3530,1108 3529,1109 3527,1109 3526,1110 3480,1110 3479,1111 3467,1111 3466,1110 3456,1110 3455,1109 3398,1109 3397,1110 3389,1110 3388,1111 3385,1111 3384,1112 3377,1112 3376,1111 3369,1111 3368,1110 3362,1110 3361,1109 3338,1109 3337,1110 3329,1110 3328,1109 3302,1109 3301,1110 3248,1110 3247,1111 3242,1111 3241,1112 3232,1112 3231,1111 3220,1111 3219,1110 3200,1110 3199,1111 3183,1111 3182,1112 3180,1112 3179,1111 3168,1111 3167,1110 3163,1110 3162,1111 3145,1111 3144,1112 3142,1112 3141,1111 3124,1111 3123,1110 3113,1110 3112,1111 3060,1111 3059,1112 3031,1112 3030,1111 3021,1111 3020,1112 2984,1112 2983,1111 2977,1111 2976,1110 2974,1110 2973,1111 2948,1111 2947,1112 2936,1112 2935,1111 2918,1111 2917,1112 2865,1112 2864,1113 2852,1113 2851,1114 2840,1114 2839,1113 2795,1113 2794,1112 2789,1112 2788,1111 2786,1111 2785,1112 2784,1112 2783,1113 2782,1113 2781,1114 2780,1114 2779,1115 2778,1115 2777,1116 2776,1116 2775,1117 2773,1117 2772,1116 2771,1116 2770,1115 2768,1115 2767,1114 2765,1114 2764,1113 2755,1113 2754,1114 2746,1114 2745,1113 2729,1113 2728,1114 2727,1113 2720,1113 2719,1112 2708,1112 2707,1113 2700,1113 2699,1112 2687,1112 2686,1113 2685,1113 2684,1114 2682,1114 2681,1115 2676,1115 2675,1114 2673,1114 2672,1113 2670,1113 2669,1112 2661,1112 2660,1113 2652,1113 2651,1112 2646,1112 2645,1111 2640,1111 2639,1112 2624,1112 2623,1111 2613,1111 2612,1112 2599,1112 2598,1113 2592,1113 2591,1114 2587,1114 2586,1115 2567,1115 2566,1116 2546,1116 2545,1117 2527,1117 2526,1116 2525,1116 2524,1117 2520,1117 2519,1118 2516,1118 2515,1119 2513,1119 2512,1120 2511,1120 2509,1122 2509,1123 2508,1124 2508,1125 2507,1126 2507,1130 2506,1131 2506,1134 2505,1135 2505,1143 2504,1144 2504,1151 2505,1152 2505,1172 2506,1173 2506,1239 2505,1240 2505,1246 2506,1247 2506,1252 2507,1253 2507,1302 2508,1303 2508,1332 2509,1333 2509,1361 2510,1362 2510,1366 2509,1367 2509,1375 2508,1376 2508,1379 2509,1380 2509,1394 2510,1395 2510,1408 2511,1409 2511,1413 2510,1414 2510,1442 2509,1443 2509,1449 2510,1450 2510,1454 2511,1455 2511,1458 2513,1460 2513,1461 2514,1461 2515,1462 2517,1462 2518,1463 2520,1463 2521,1464 2523,1464 2524,1465 2527,1465 2528,1466 2535,1466 2536,1467 2561,1467 2562,1468 2588,1468 2589,1467 2600,1467 2601,1466 2626,1466 2627,1465 2637,1465 2638,1464 2652,1464 2653,1465 2662,1465 2663,1466 2675,1466 2676,1465 2692,1465 2693,1464 2697,1464 2698,1463 2720,1463 2721,1462 2747,1462 2748,1463 2760,1463 2761,1462 2765,1462 2766,1461 2769,1461 2770,1460 2772,1460 2773,1459 2777,1459 2778,1460 2783,1460 2784,1461 2786,1461 2787,1460 2791,1460 2792,1459 2795,1459 2796,1458 2801,1458 2802,1459 2815,1459 2816,1458 2831,1458 2832,1459 2835,1459 2836,1460 2838,1460 2839,1461 2842,1461 2843,1462 2851,1462 2852,1463 2857,1463 2858,1462 2865,1462 2866,1461 2879,1461 2880,1462 2884,1462 2885,1461 2915,1461 2916,1462 2924,1462 2925,1463 2940,1463 2941,1462 3004,1462 3005,1461 3016,1461 3017,1462 3030,1462 3031,1463 3057,1463 3058,1462 3065,1462 3066,1463 3073,1463 3074,1462 3079,1462 3080,1461 3116,1461 3117,1462 3123,1462 3124,1461 3147,1461 3148,1460 3161,1460 3162,1461 3176,1461 3177,1460 3183,1460 3184,1461 3195,1461 3196,1460 3207,1460 3208,1461 3219,1461 3220,1460 3248,1460 3249,1459 3252,1459 3253,1460 3287,1460 3288,1459 3365,1459 3366,1458 3383,1458 3384,1457 3449,1457 3450,1458 3458,1458 3459,1457 3486,1457 3487,1456 3490,1456 3491,1457 3517,1457 3518,1458 3546,1458 3547,1459 3549,1459 3550,1458 3649,1458 3650,1457 3664,1457 3665,1456 3704,1456 3705,1455 3734,1455 3735,1456 3738,1456 3739,1455 3749,1455 3750,1454 3767,1454 3768,1455 3775,1455 3776,1456 3781,1456 3782,1455 3798,1455 3799,1456 3810,1456 3811,1455 3826,1455 3827,1456 3837,1456 3838,1455 3840,1455 3841,1454 3843,1454 3844,1453 3845,1453 3846,1452 3847,1452 3848,1451 3862,1451 3863,1452 3867,1452 3868,1453 3873,1453 3874,1454 3885,1454 3886,1453 3891,1453 3892,1452 3899,1452 3900,1451 3914,1451 3915,1452 3934,1452 3935,1453 3943,1453 3944,1452 3945,1452 3946,1451 3948,1451 3950,1449 3951,1449 3952,1448 3952,1447 3953,1446 3953,1444 3954,1443 3954,1431 3953,1430 3953,1426 3952,1425 3952,1418 3951,1417 3951,1414 3950,1413 3950,1411 3949,1410 3949,1409 3950,1408 3950,1398 3951,1397 3951,1392 3952,1391 3952,1386 3951,1385 3951,1384 3948,1381 3947,1381 3946,1380 3945,1380 3944,1379 3942,1379 3941,1378 3937,1378 3934,1375 3934,1373 3936,1371 3938,1371 3939,1370 3941,1370 3942,1369 3943,1369 3946,1366 3946,1365 3947,1364 3947,1363 3948,1362 3948,1360 3949,1359 3949,1357 3950,1356 3950,1348 3949,1347 3949,1345 3948,1344 3948,1340 3947,1339 3947,1331 3946,1330 3946,1329 3947,1328 3949,1328 3950,1327 3951,1327 3952,1326 3952,1324 3953,1323 3953,1321 3954,1320 3954,1315 3955,1314 3955,1305 3956,1304 3956,1301 3955,1300 3955,1289 3954,1288 3954,1285 3953,1284 3953,1283 3952,1282 3952,1281 3949,1278 3949,1277 3947,1275 3947,1274 3946,1273 3946,1272 3945,1271 3945,1268 3944,1267 3945,1266 3945,1264 3946,1263 3946,1260 3947,1259 3947,1254 3948,1253 3948,1239 3947,1238 3947,1235 3946,1234 3947,1233 3947,1230 3948,1229 3948,1228 3949,1227 3949,1225 3950,1224 3950,1222 3951,1221 3951,1216 3952,1215 3952,1207 3949,1204 3949,1203 3947,1201 3947,1200 3946,1199 3946,1193 3947,1192 3947,1191 3948,1190 3948,1189 3949,1188 3949,1187 3950,1186 3950,1185 3949,1184 3949,1182 3947,1180 3947,1179 3944,1176 3944,1175 3943,1174 3943,1172 3948,1167 3949,1167 3950,1166 3951,1166 3952,1165 3952,1164 3953,1163 3953,1159 3952,1158 3952,1157 3950,1155 3950,1154 3948,1152 3948,1149 3947,1148 3947,1126 3946,1125 3946,1120 3945,1119 3945,1115 3944,1115 3943,1114 3942,1114 3941,1113 3940,1113 3939,1112 3930,1112 3929,1111 3927,1111 3926,1112 3899,1112 3898,1111 3887,1111 3886,1112 3864,1112 3863,1113 3856,1113 3855,1112 3848,1112 3847,1111 3842,1111 3841,1110 3833,1110 3832,1109 3817,1109 3816,1110 3807,1110 3806,1109 3799,1109 3798,1108 3797,1108 3796,1109 3789,1109 3788,1110 3773,1110 3772,1111 3758,1111 3757,1110 3743,1110 3742,1109 3732,1109 3731,1108 3726,1108 3725,1107 3720,1107 3719,1106 3691,1106 3690,1107 3652,1107 3651,1106 3623,1106 3622,1107 3606,1107 3605,1106 3561,1106 3560,1105 3556,1105 3555,1104" fill="rgba(20,160,203,0.3)" stroke="rgb(20,160,203)" stroke-width="2" data-block-id="0010" data-name="b-0011" /><text x="3321" y="1277" text-anchor="middle" dominant-baseline="middle" class="block-label" fill="rgb(20,160,203)" stroke="white" stroke-width="3" paint-order="stroke">b-0011</text></g>
</svg>