<?xml version='1.0' encoding='utf-8'?>
<svg xmlns="http://www.w3.org/2000/svg" xmlns:atlas="http://example.com/atlas" width="4984" height="3288" viewBox="0 0 4984 3288">
  
  <metadata>
    <atlas:source>
      <atlas:jp2-path>/Users/pwright/workspace/atlas/media/v2/p16.jp2</atlas:jp2-path>
      <atlas:volume>unknown</atlas:volume>
      <atlas:plate-id>p16</atlas:plate-id>
      <atlas:image-width>4984</atlas:image-width>
      <atlas:image-height>3288</atlas:image-height>
    <atlas:angle>0</atlas:angle><atlas:scale>1.3333333333333333</atlas:scale><atlas:pos-x>1007.5475214836694</atlas:pos-x><atlas:pos-y>2205.5447975836146</atlas:pos-y></atlas:source>
  </metadata>

  
  <image id="background" href="file:///Users/pwright/workspace/atlas/media/v2/p16.jp2" width="4984" height="3288" opacity="0.5" />

  <style>
    .block-label { font-family: sans-serif; font-size: 14px; font-weight: bold; }
  </style>

  
  <g id="blocks">
    <polygon points="1912,2616 1911,2617 1908,2617 1907,2618 1869,2618 1868,2617 1864,2617 1863,2618 1854,2618 1853,2619 1837,2619 1836,2618 1823,2618 1822,2617 1817,2617 1816,2618 1811,2618 1810,2619 1802,2619 1801,2618 1766,2618 1765,2619 1752,2619 1751,2618 1740,2618 1739,2619 1731,2619 1730,2618 1720,2618 1719,2619 1695,2619 1694,2620 1687,2620 1686,2621 1678,2621 1677,2622 1674,2622 1673,2621 1670,2621 1669,2620 1664,2620 1663,2619 1622,2619 1621,2620 1595,2620 1594,2619 1526,2619 1525,2620 1515,2620 1514,2619 1478,2619 1477,2620 1407,2620 1406,2621 1384,2621 1383,2620 1345,2620 1344,2621 1326,2621 1325,2620 1302,2620 1301,2621 1292,2621 1291,2620 1288,2620 1287,2619 1277,2619 1276,2618 1249,2618 1248,2619 1166,2619 1165,2620 1111,2620 1110,2621 1065,2621 1064,2622 1036,2622 1035,2623 1001,2623 1000,2622 993,2622 992,2623 987,2623 986,2624 981,2624 980,2623 977,2623 976,2622 956,2622 955,2623 932,2623 931,2624 896,2624 895,2625 889,2625 888,2626 887,2626 886,2627 885,2627 884,2628 884,2629 882,2631 882,2632 881,2633 881,2634 880,2635 880,2636 879,2637 879,2652 878,2653 878,2658 877,2659 877,2667 878,2668 878,2692 879,2693 879,2700 878,2701 878,2706 877,2707 877,2727 876,2728 876,2742 875,2743 875,2761 876,2762 876,2770 875,2771 875,2779 874,2780 874,2795 875,2796 875,2822 874,2823 874,2871 873,2872 873,2921 872,2922 872,2939 873,2940 873,2943 874,2944 874,2952 873,2953 873,2956 872,2957 872,2976 873,2977 873,2982 876,2985 879,2985 880,2986 888,2986 889,2987 900,2987 901,2988 911,2988 912,2989 928,2989 929,2988 943,2988 944,2989 980,2989 981,2988 985,2988 986,2989 1062,2989 1063,2990 1094,2990 1095,2989 1099,2989 1100,2988 1107,2988 1108,2989 1123,2989 1124,2988 1131,2988 1132,2989 1147,2989 1148,2988 1153,2988 1154,2989 1169,2989 1170,2988 1179,2988 1180,2989 1193,2989 1194,2988 1203,2988 1204,2989 1218,2989 1219,2988 1224,2988 1225,2989 1286,2989 1287,2988 1290,2988 1291,2987 1300,2987 1301,2988 1312,2988 1313,2987 1324,2987 1325,2988 1332,2988 1333,2987 1375,2987 1376,2988 1378,2988 1379,2987 1406,2987 1407,2986 1421,2986 1422,2987 1426,2987 1427,2986 1455,2986 1456,2985 1464,2985 1465,2986 1478,2986 1479,2985 1514,2985 1515,2986 1526,2986 1527,2985 1547,2985 1548,2984 1550,2984 1551,2983 1554,2983 1555,2982 1557,2982 1558,2983 1561,2983 1562,2984 1565,2984 1566,2985 1571,2985 1572,2984 1587,2984 1588,2985 1594,2985 1595,2984 1600,2984 1601,2983 1607,2983 1608,2984 1637,2984 1638,2985 1639,2984 1643,2984 1644,2983 1647,2983 1648,2982 1655,2982 1656,2983 1659,2983 1660,2984 1669,2984 1670,2983 1679,2983 1680,2984 1695,2984 1696,2983 1701,2983 1702,2984 1709,2984 1710,2985 1713,2985 1714,2984 1726,2984 1727,2985 1774,2985 1775,2986 1788,2986 1789,2985 1800,2985 1801,2986 1813,2986 1814,2985 1825,2985 1826,2986 1837,2986 1838,2985 1845,2985 1846,2986 1857,2986 1858,2985 1922,2985 1923,2986 1929,2986 1930,2985 1945,2985 1946,2986 1979,2986 1980,2985 2014,2985 2015,2986 2029,2986 2030,2985 2039,2985 2040,2986 2064,2986 2065,2985 2075,2985 2076,2986 2088,2986 2089,2985 2096,2985 2097,2986 2157,2986 2158,2985 2191,2985 2192,2984 2202,2984 2203,2983 2220,2983 2221,2984 2249,2984 2250,2983 2268,2983 2269,2984 2277,2984 2278,2983 2290,2983 2291,2984 2314,2984 2315,2983 2338,2983 2339,2982 2345,2982 2347,2980 2348,2980 2350,2978 2351,2978 2355,2974 2355,2973 2356,2972 2356,2963 2357,2962 2357,2942 2356,2941 2356,2927 2357,2926 2357,2918 2356,2917 2356,2911 2357,2910 2357,2857 2358,2856 2358,2849 2357,2848 2357,2836 2358,2835 2358,2818 2357,2817 2357,2785 2358,2784 2358,2777 2357,2776 2357,2763 2358,2762 2358,2724 2357,2723 2357,2721 2358,2720 2358,2712 2359,2711 2359,2707 2358,2706 2358,2687 2359,2686 2359,2636 2358,2635 2358,2632 2357,2631 2357,2629 2356,2628 2356,2627 2354,2625 2353,2625 2352,2624 2348,2624 2347,2623 2341,2623 2340,2622 2335,2622 2334,2621 2323,2621 2322,2620 2315,2620 2314,2621 2305,2621 2304,2620 2297,2620 2296,2619 2293,2619 2292,2620 2269,2620 2268,2621 2265,2621 2264,2622 2255,2622 2254,2621 2252,2621 2251,2620 2249,2620 2248,2619 2221,2619 2220,2620 2215,2620 2214,2621 2133,2621 2132,2620 2124,2620 2123,2621 2106,2621 2105,2622 2095,2622 2094,2623 2091,2623 2090,2622 2084,2622 2083,2621 2074,2621 2073,2622 2066,2622 2065,2621 2056,2621 2055,2620 2050,2620 2049,2619 2035,2619 2034,2620 2028,2620 2027,2621 2004,2621 2003,2620 1976,2620 1975,2621 1963,2621 1962,2620 1955,2620 1954,2619 1950,2619 1949,2618 1946,2618 1945,2619 1935,2619 1934,2618 1930,2618 1929,2617 1922,2617 1921,2616" fill="rgba(188,20,102,0.3)" stroke="rgb(188,20,102)" stroke-width="2" data-block-id="0001" data-name="b-0003" /><text x="1647" y="2804" text-anchor="middle" dominant-baseline="middle" class="block-label" fill="rgb(188,20,102)" stroke="white" stroke-width="3" paint-order="stroke">b-0003</text><polygon points="1307,2143 1306,2144 1277,2144 1276,2145 1249,2145 1248,2146 1247,2146 1246,2145 1238,2145 1237,2144 1229,2144 1228,2145 1202,2145 1201,2146 1195,2146 1194,2145 1179,2145 1178,2146 1167,2146 1166,2145 1161,2145 1160,2146 1144,2146 1143,2145 1132,2145 1131,2146 1102,2146 1101,2145 1094,2145 1093,2144 1088,2144 1087,2145 1077,2145 1076,2146 1061,2146 1060,2145 1040,2145 1039,2146 1032,2146 1031,2147 1029,2147 1028,2146 1012,2146 1011,2147 1004,2147 1003,2146 990,2146 989,2147 954,2147 953,2146 941,2146 940,2147 927,2147 926,2146 922,2146 921,2147 898,2147 897,2148 892,2148 891,2149 889,2149 888,2150 887,2150 886,2151 886,2152 885,2153 885,2154 884,2155 884,2157 883,2158 883,2161 882,2162 882,2164 883,2165 883,2179 882,2180 882,2250 881,2251 881,2277 882,2278 882,2298 881,2299 881,2310 882,2311 882,2328 883,2329 883,2343 882,2344 882,2347 881,2348 881,2398 880,2399 880,2408 881,2409 881,2444 880,2445 880,2463 881,2464 881,2468 882,2469 882,2482 881,2483 881,2491 880,2492 880,2496 881,2497 881,2502 882,2503 882,2505 883,2506 883,2507 884,2508 885,2508 886,2509 887,2509 888,2510 900,2510 901,2511 908,2511 909,2512 1043,2512 1044,2513 1239,2513 1240,2512 1244,2512 1245,2511 1264,2511 1265,2512 1274,2512 1275,2511 1287,2511 1288,2512 1310,2512 1311,2513 1331,2513 1332,2512 1337,2512 1338,2511 1344,2511 1345,2512 1349,2512 1350,2513 1361,2513 1362,2512 1372,2512 1373,2513 1377,2513 1378,2512 1383,2512 1384,2511 1395,2511 1396,2512 1406,2512 1407,2511 1422,2511 1423,2510 1429,2510 1430,2511 1455,2511 1456,2512 1475,2512 1476,2511 1494,2511 1495,2512 1504,2512 1505,2511 1510,2511 1511,2512 1607,2512 1608,2511 1754,2511 1755,2510 1763,2510 1764,2511 1789,2511 1790,2512 1849,2512 1850,2511 1913,2511 1914,2512 1951,2512 1952,2511 1957,2511 1958,2510 1971,2510 1972,2511 1979,2511 1980,2510 1984,2510 1985,2511 2050,2511 2051,2512 2076,2512 2077,2511 2083,2511 2084,2512 2101,2512 2102,2511 2113,2511 2114,2512 2121,2512 2122,2511 2138,2511 2139,2512 2143,2512 2144,2511 2151,2511 2152,2512 2170,2512 2171,2511 2184,2511 2185,2512 2193,2512 2194,2511 2209,2511 2210,2512 2221,2512 2222,2511 2256,2511 2257,2512 2264,2512 2265,2511 2284,2511 2285,2512 2334,2512 2335,2511 2348,2511 2349,2510 2354,2510 2355,2509 2356,2509 2359,2506 2359,2502 2360,2501 2360,2486 2361,2485 2361,2480 2360,2479 2360,2416 2361,2415 2361,2378 2360,2377 2360,2316 2361,2315 2361,2313 2360,2312 2360,2302 2361,2301 2361,2272 2360,2271 2360,2255 2361,2254 2361,2227 2360,2226 2360,2215 2361,2214 2361,2201 2362,2200 2362,2193 2361,2192 2361,2178 2360,2177 2360,2167 2361,2166 2361,2161 2360,2160 2360,2154 2359,2153 2359,2151 2358,2150 2358,2149 2356,2147 2352,2147 2351,2146 2339,2146 2338,2145 2333,2145 2332,2144 2325,2144 2324,2145 2311,2145 2310,2144 2306,2144 2305,2145 2291,2145 2290,2144 2283,2144 2282,2143 2281,2143 2280,2144 2267,2144 2266,2145 2241,2145 2240,2144 2230,2144 2229,2145 2218,2145 2217,2144 2207,2144 2206,2145 2178,2145 2177,2146 2172,2146 2171,2145 2161,2145 2160,2146 2149,2146 2148,2145 2142,2145 2141,2144 2135,2144 2134,2145 2076,2145 2075,2144 2065,2144 2064,2145 2052,2145 2051,2144 2016,2144 2015,2145 2004,2145 2003,2144 1991,2144 1990,2145 1955,2145 1954,2144 1940,2144 1939,2145 1934,2145 1933,2144 1920,2144 1919,2145 1911,2145 1910,2144 1902,2144 1901,2143 1900,2143 1899,2144 1884,2144 1883,2145 1858,2145 1857,2144 1837,2144 1836,2143 1815,2143 1814,2144 1783,2144 1782,2145 1744,2145 1743,2144 1706,2144 1705,2145 1689,2145 1688,2144 1687,2145 1604,2145 1603,2146 1602,2146 1601,2145 1584,2145 1583,2146 1577,2146 1576,2145 1570,2145 1569,2144 1566,2144 1565,2145 1525,2145 1524,2144 1515,2144 1514,2145 1500,2145 1499,2144 1494,2144 1493,2145 1487,2145 1486,2146 1481,2146 1480,2145 1475,2145 1474,2144 1460,2144 1459,2145 1396,2145 1395,2144 1381,2144 1380,2143 1376,2143 1375,2144 1365,2144 1364,2145 1363,2144 1345,2144 1344,2145 1341,2145 1340,2144 1334,2144 1333,2143 1322,2143 1321,2144 1308,2144" fill="rgba(121,210,214,0.3)" stroke="rgb(121,210,214)" stroke-width="2" data-block-id="0002" data-name="b-0004" /><text x="1621" y="2291" text-anchor="middle" dominant-baseline="middle" class="block-label" fill="rgb(121,210,214)" stroke="white" stroke-width="3" paint-order="stroke">b-0004</text><polygon points="1636,1666 1635,1667 1616,1667 1615,1668 1569,1668 1568,1669 1550,1669 1549,1668 1537,1668 1536,1669 1501,1669 1500,1668 1495,1668 1494,1669 1491,1669 1490,1670 1488,1670 1487,1671 1482,1671 1481,1670 1480,1670 1479,1669 1476,1669 1475,1668 1443,1668 1442,1669 1431,1669 1430,1670 1406,1670 1405,1669 1397,1669 1396,1670 1383,1670 1382,1669 1358,1669 1357,1668 1348,1668 1347,1669 1334,1669 1333,1668 1299,1668 1298,1669 1288,1669 1287,1670 1203,1670 1202,1669 1189,1669 1188,1670 1127,1670 1126,1671 1125,1671 1124,1670 1109,1670 1108,1671 1101,1671 1100,1670 1093,1670 1092,1669 1084,1669 1083,1670 1073,1670 1072,1669 1064,1669 1063,1670 908,1670 907,1671 900,1671 899,1672 897,1672 896,1673 895,1673 892,1676 892,1689 891,1690 891,1692 890,1693 890,1694 889,1695 889,1698 888,1699 888,1717 889,1718 889,1728 890,1729 890,1734 889,1735 889,1737 888,1738 888,1739 887,1740 887,1743 886,1744 886,1751 887,1752 887,1773 888,1774 888,1783 887,1784 887,1790 886,1791 886,1834 887,1835 887,1842 888,1843 888,1883 887,1884 887,1892 886,1893 886,1918 885,1919 885,1953 886,1954 886,1964 885,1965 885,1987 884,1988 884,1998 885,1999 885,2004 886,2005 886,2014 885,2015 885,2019 886,2020 886,2022 887,2023 887,2024 888,2025 889,2025 890,2026 891,2026 892,2027 893,2027 894,2028 896,2028 897,2029 899,2029 900,2030 902,2030 903,2031 905,2031 906,2032 907,2032 908,2033 912,2033 913,2034 931,2034 932,2033 939,2033 940,2034 966,2034 967,2035 975,2035 976,2034 993,2034 994,2035 997,2035 998,2034 1015,2034 1016,2035 1022,2035 1023,2034 1038,2034 1039,2035 1098,2035 1099,2034 1132,2034 1133,2035 1159,2035 1160,2036 1182,2036 1183,2037 1190,2037 1191,2036 1205,2036 1206,2037 1219,2037 1220,2036 1223,2036 1224,2037 1237,2037 1238,2036 1244,2036 1245,2035 1249,2035 1250,2036 1259,2036 1260,2035 1264,2035 1265,2034 1277,2034 1278,2035 1285,2035 1286,2034 1339,2034 1340,2033 1343,2033 1344,2034 1377,2034 1378,2035 1379,2035 1380,2034 1392,2034 1393,2035 1419,2035 1420,2036 1426,2036 1427,2035 1431,2035 1432,2034 1492,2034 1493,2035 1498,2035 1499,2034 1516,2034 1517,2035 1524,2035 1525,2034 1536,2034 1537,2035 1552,2035 1553,2034 1558,2034 1559,2035 1764,2035 1765,2034 1777,2034 1778,2035 1788,2035 1789,2034 1815,2034 1816,2035 1817,2034 1862,2034 1863,2035 1870,2035 1871,2034 1883,2034 1884,2033 1897,2033 1898,2034 1944,2034 1945,2035 1952,2035 1953,2034 1966,2034 1967,2033 1984,2033 1985,2034 2015,2034 2016,2033 2024,2033 2025,2034 2323,2034 2324,2033 2353,2033 2354,2032 2356,2032 2358,2030 2358,2029 2359,2028 2359,2027 2360,2026 2360,2025 2361,2024 2361,2022 2362,2021 2362,2015 2361,2014 2361,1981 2362,1980 2362,1976 2363,1975 2363,1969 2362,1968 2362,1943 2361,1942 2361,1934 2362,1933 2362,1929 2363,1928 2363,1918 2362,1917 2362,1893 2361,1892 2361,1886 2362,1885 2362,1832 2363,1831 2363,1827 2362,1826 2362,1785 2363,1784 2363,1775 2362,1774 2362,1760 2363,1759 2363,1756 2362,1755 2362,1742 2363,1741 2363,1706 2362,1705 2362,1682 2361,1681 2361,1677 2360,1676 2360,1675 2357,1672 2356,1672 2355,1671 2333,1671 2332,1670 2287,1670 2286,1671 2258,1671 2257,1670 2247,1670 2246,1669 2245,1670 2230,1670 2229,1669 2217,1669 2216,1670 2205,1670 2204,1669 2195,1669 2194,1670 2131,1670 2130,1669 2104,1669 2103,1670 2095,1670 2094,1671 2089,1671 2088,1670 2077,1670 2076,1671 2069,1671 2068,1672 2043,1672 2042,1671 2008,1671 2007,1670 1993,1670 1992,1669 1937,1669 1936,1668 1935,1668 1934,1669 1920,1669 1919,1668 1914,1668 1913,1669 1906,1669 1905,1670 1897,1670 1896,1669 1880,1669 1879,1668 1875,1668 1874,1669 1845,1669 1844,1668 1810,1668 1809,1669 1794,1669 1793,1668 1775,1668 1774,1669 1760,1669 1759,1668 1681,1668 1680,1669 1677,1669 1676,1670 1675,1670 1674,1669 1672,1669 1671,1668 1668,1668 1667,1667 1642,1667 1641,1666" fill="rgba(74,202,87,0.3)" stroke="rgb(74,202,87)" stroke-width="2" data-block-id="0003" data-name="b-0005" /><text x="1543" y="1845" text-anchor="middle" dominant-baseline="middle" class="block-label" fill="rgb(74,202,87)" stroke="white" stroke-width="3" paint-order="stroke">b-0005</text><polygon points="1688,1190 1687,1191 1681,1191 1680,1192 1676,1192 1675,1193 1628,1193 1627,1194 1594,1194 1593,1193 1589,1193 1588,1194 1547,1194 1546,1193 1542,1193 1541,1194 1454,1194 1453,1193 1440,1193 1439,1194 1434,1194 1433,1193 1419,1193 1418,1194 1379,1194 1378,1193 1375,1193 1374,1194 1360,1194 1359,1193 1347,1193 1346,1194 1340,1194 1339,1193 1332,1193 1331,1192 1316,1192 1315,1193 1307,1193 1306,1194 1293,1194 1292,1193 1285,1193 1284,1192 1278,1192 1277,1193 1260,1193 1259,1192 1254,1192 1253,1193 1208,1193 1207,1192 994,1192 993,1193 980,1193 979,1192 910,1192 909,1193 905,1193 904,1194 901,1194 900,1195 899,1195 898,1196 897,1196 895,1198 895,1199 894,1200 894,1203 893,1204 893,1207 892,1208 892,1220 891,1221 891,1224 890,1225 890,1227 889,1228 889,1230 888,1231 888,1248 889,1249 889,1252 890,1253 890,1284 891,1285 891,1288 892,1289 892,1290 893,1291 893,1294 892,1295 892,1296 891,1297 891,1298 890,1299 890,1300 889,1301 889,1304 888,1305 888,1308 889,1309 889,1320 890,1321 890,1331 889,1332 889,1338 888,1339 888,1358 887,1359 887,1434 886,1435 886,1443 885,1444 885,1454 886,1455 886,1464 887,1465 887,1478 886,1479 886,1509 887,1510 887,1512 888,1513 888,1514 889,1515 889,1516 890,1517 890,1525 889,1526 889,1544 890,1545 890,1546 895,1551 896,1551 897,1552 898,1552 899,1553 901,1553 902,1554 906,1554 907,1555 911,1555 912,1556 939,1556 940,1557 957,1557 958,1556 961,1556 962,1557 968,1557 969,1558 976,1558 977,1557 1028,1557 1029,1556 1034,1556 1035,1557 1092,1557 1093,1558 1107,1558 1108,1557 1117,1557 1118,1556 1135,1556 1136,1557 1144,1557 1145,1556 1156,1556 1157,1557 1167,1557 1168,1556 1180,1556 1181,1557 1190,1557 1191,1556 1203,1556 1204,1557 1228,1557 1229,1558 1237,1558 1238,1557 1244,1557 1245,1556 1247,1556 1248,1557 1278,1557 1279,1558 1286,1558 1287,1557 1302,1557 1303,1558 1310,1558 1311,1557 1319,1557 1320,1558 1347,1558 1348,1559 1355,1559 1356,1558 1361,1558 1362,1557 1368,1557 1369,1558 1375,1558 1376,1559 1379,1559 1380,1558 1386,1558 1387,1557 1392,1557 1393,1558 1401,1558 1402,1559 1403,1558 1418,1558 1419,1559 1430,1559 1431,1558 1444,1558 1445,1559 1458,1559 1459,1558 1460,1559 1466,1559 1467,1560 1477,1560 1478,1559 1482,1559 1483,1558 1485,1558 1486,1559 1492,1559 1493,1560 1499,1560 1500,1559 1505,1559 1506,1558 1511,1558 1512,1559 1527,1559 1528,1558 1536,1558 1537,1559 1551,1559 1552,1558 1561,1558 1562,1559 1577,1559 1578,1558 1582,1558 1583,1559 1599,1559 1600,1558 1604,1558 1605,1559 1625,1559 1626,1558 1629,1558 1630,1559 1664,1559 1665,1560 1722,1560 1723,1559 1725,1559 1726,1560 1736,1560 1737,1559 1820,1559 1821,1560 1838,1560 1839,1559 1847,1559 1848,1560 1856,1560 1857,1559 1886,1559 1887,1558 1896,1558 1897,1559 1922,1559 1923,1560 1927,1560 1928,1559 1959,1559 1960,1560 1976,1560 1977,1559 2009,1559 2010,1558 2029,1558 2030,1559 2039,1559 2040,1558 2071,1558 2072,1559 2083,1559 2084,1558 2095,1558 2096,1557 2109,1557 2110,1558 2185,1558 2186,1557 2190,1557 2191,1558 2265,1558 2266,1557 2278,1557 2279,1558 2305,1558 2306,1557 2338,1557 2339,1556 2356,1556 2358,1554 2359,1554 2359,1553 2360,1552 2360,1551 2361,1550 2361,1549 2362,1548 2362,1547 2363,1546 2363,1545 2364,1544 2364,1538 2363,1537 2363,1498 2364,1497 2364,1493 2363,1492 2363,1427 2364,1426 2364,1419 2363,1418 2363,1409 2364,1408 2364,1400 2365,1399 2364,1398 2364,1383 2365,1382 2365,1379 2366,1378 2366,1372 2365,1371 2365,1361 2366,1360 2366,1357 2367,1356 2367,1348 2366,1347 2366,1343 2365,1342 2365,1324 2364,1323 2364,1312 2365,1311 2365,1308 2366,1307 2366,1301 2365,1300 2365,1285 2366,1284 2366,1278 2365,1277 2365,1272 2364,1271 2364,1265 2365,1264 2365,1253 2364,1252 2364,1249 2363,1248 2363,1243 2364,1242 2364,1239 2365,1238 2365,1236 2366,1235 2366,1230 2365,1229 2365,1224 2364,1223 2364,1210 2363,1209 2363,1207 2362,1206 2362,1205 2361,1204 2361,1203 2359,1201 2359,1200 2357,1198 2356,1198 2355,1197 2328,1197 2327,1196 2310,1196 2309,1195 2288,1195 2287,1196 2191,1196 2190,1197 2184,1197 2183,1196 2172,1196 2171,1195 2143,1195 2142,1196 2139,1196 2138,1195 2074,1195 2073,1196 2064,1196 2063,1195 2001,1195 2000,1194 1994,1194 1993,1195 1987,1195 1986,1196 1984,1196 1983,1195 1976,1195 1975,1194 1970,1194 1969,1195 1953,1195 1952,1194 1895,1194 1894,1195 1885,1195 1884,1194 1812,1194 1811,1193 1791,1193 1790,1192 1773,1192 1772,1193 1771,1193 1770,1192 1765,1192 1764,1191 1761,1191 1760,1190 1751,1190 1750,1191 1740,1191 1739,1190 1733,1190 1732,1191 1702,1191 1701,1192 1700,1192 1699,1191 1689,1191" fill="rgba(116,99,103,0.3)" stroke="rgb(116,99,103)" stroke-width="2" data-block-id="0004" data-name="b-0006" /><text x="1603" y="1388" text-anchor="middle" dominant-baseline="middle" class="block-label" fill="rgb(116,99,103)" stroke="white" stroke-width="3" paint-order="stroke">b-0006</text><polygon points="2604,2611 2603,2612 2589,2612 2588,2613 2579,2613 2578,2614 2574,2614 2573,2615 2565,2615 2564,2616 2557,2616 2556,2617 2555,2617 2553,2619 2552,2619 2550,2621 2550,2622 2547,2625 2547,2627 2546,2628 2546,2630 2545,2631 2545,2633 2544,2634 2544,2635 2543,2636 2543,2639 2542,2640 2542,2654 2543,2655 2543,2662 2544,2663 2544,2674 2543,2675 2543,2680 2542,2681 2542,2712 2543,2713 2543,2724 2542,2725 2542,2746 2543,2747 2543,2753 2544,2754 2544,2784 2543,2785 2543,2790 2542,2791 2542,2796 2543,2797 2543,2807 2544,2808 2544,2812 2545,2813 2545,2818 2544,2819 2544,2820 2543,2821 2543,2823 2542,2824 2542,2826 2541,2827 2541,2835 2542,2836 2542,2843 2541,2844 2541,2867 2540,2868 2540,2903 2541,2904 2541,2915 2540,2916 2540,2921 2539,2922 2539,2932 2540,2933 2540,2938 2541,2939 2541,2942 2542,2943 2542,2945 2543,2946 2543,2957 2542,2958 2543,2959 2543,2964 2544,2965 2544,2968 2545,2969 2545,2970 2546,2971 2546,2972 2547,2973 2548,2973 2549,2974 2550,2974 2551,2975 2553,2975 2554,2976 2573,2976 2574,2975 2584,2975 2585,2974 2594,2974 2595,2973 2599,2973 2600,2972 2604,2972 2605,2971 2618,2971 2619,2972 2629,2972 2630,2973 2636,2973 2637,2974 2645,2974 2646,2975 2653,2975 2654,2976 2664,2976 2665,2977 2674,2977 2675,2978 2692,2978 2693,2979 2698,2979 2699,2980 2701,2980 2702,2981 2708,2981 2709,2982 2720,2982 2721,2983 2725,2983 2726,2982 2731,2982 2732,2981 2747,2981 2748,2982 2752,2982 2753,2983 2757,2983 2758,2984 2785,2984 2786,2983 2798,2983 2799,2984 2807,2984 2808,2985 2809,2984 2827,2984 2828,2985 2834,2985 2835,2984 2852,2984 2853,2985 2860,2985 2861,2984 2883,2984 2884,2983 2900,2983 2901,2984 2932,2984 2933,2983 3006,2983 3007,2984 3011,2984 3012,2983 3017,2983 3018,2982 3023,2982 3024,2983 3026,2983 3027,2984 3029,2984 3030,2985 3033,2985 3034,2986 3041,2986 3042,2985 3062,2985 3063,2984 3066,2984 3067,2983 3073,2983 3074,2984 3077,2984 3078,2985 3085,2985 3086,2986 3095,2986 3096,2985 3101,2985 3102,2984 3110,2984 3111,2983 3120,2983 3121,2984 3126,2984 3127,2985 3131,2985 3132,2984 3151,2984 3152,2983 3160,2983 3161,2982 3171,2982 3172,2983 3203,2983 3204,2982 3224,2982 3225,2983 3234,2983 3235,2984 3237,2984 3238,2983 3249,2983 3250,2982 3306,2982 3307,2981 3340,2981 3341,2980 3375,2980 3376,2981 3388,2981 3389,2980 3407,2980 3408,2979 3411,2979 3412,2978 3414,2978 3415,2977 3417,2977 3418,2978 3421,2978 3422,2979 3434,2979 3435,2978 3449,2978 3450,2979 3453,2979 3454,2978 3464,2978 3465,2979 3469,2979 3470,2980 3479,2980 3480,2979 3485,2979 3486,2978 3499,2978 3500,2979 3513,2979 3514,2980 3535,2980 3536,2979 3585,2979 3586,2978 3597,2978 3598,2979 3605,2979 3606,2980 3609,2980 3610,2979 3635,2979 3636,2978 3646,2978 3647,2979 3671,2979 3672,2980 3677,2980 3678,2979 3686,2979 3687,2978 3697,2978 3698,2979 3705,2979 3706,2978 3720,2978 3721,2979 3726,2979 3727,2978 3731,2978 3732,2977 3735,2977 3736,2976 3739,2976 3740,2977 3744,2977 3745,2978 3787,2978 3788,2977 3806,2977 3807,2978 3823,2978 3824,2979 3850,2979 3851,2978 3903,2978 3904,2977 3923,2977 3924,2976 3954,2976 3955,2975 3965,2975 3966,2974 3975,2974 3976,2973 3977,2973 3978,2972 3978,2971 3979,2970 3979,2969 3980,2968 3980,2965 3981,2964 3981,2962 3982,2961 3982,2956 3981,2955 3981,2937 3980,2936 3980,2889 3981,2888 3981,2875 3980,2874 3980,2868 3979,2867 3979,2856 3980,2855 3980,2852 3979,2851 3979,2831 3980,2830 3980,2820 3981,2819 3981,2814 3980,2813 3980,2798 3981,2797 3981,2791 3982,2790 3982,2783 3983,2782 3983,2767 3982,2766 3982,2760 3981,2759 3981,2734 3980,2733 3980,2731 3981,2730 3981,2683 3982,2682 3982,2678 3983,2677 3983,2648 3982,2647 3982,2637 3981,2636 3981,2626 3980,2625 3980,2624 3976,2620 3975,2620 3974,2619 3973,2619 3972,2620 3960,2620 3959,2619 3957,2619 3956,2618 3952,2618 3951,2617 3940,2617 3939,2616 3935,2616 3934,2615 3928,2615 3927,2614 3924,2614 3923,2615 3914,2615 3913,2614 3897,2614 3896,2613 3855,2613 3854,2612 3799,2612 3798,2611 3796,2611 3795,2612 3752,2612 3751,2611 3750,2611 3749,2612 3704,2612 3703,2611 3701,2611 3700,2612 3665,2612 3664,2611 3649,2611 3648,2612 3626,2612 3625,2613 3616,2613 3615,2614 3608,2614 3607,2615 3601,2615 3600,2616 3579,2616 3578,2615 3570,2615 3569,2614 3559,2614 3558,2615 3550,2615 3549,2616 3533,2616 3532,2617 3528,2617 3527,2618 3517,2618 3516,2617 3498,2617 3497,2616 3489,2616 3488,2615 3459,2615 3458,2616 3454,2616 3453,2617 3444,2617 3443,2616 3437,2616 3436,2617 3428,2617 3427,2618 3421,2618 3420,2617 3416,2617 3415,2618 3408,2618 3407,2619 3388,2619 3387,2618 3381,2618 3380,2617 3347,2617 3346,2616 3317,2616 3316,2617 3311,2617 3310,2618 3307,2618 3306,2617 3302,2617 3301,2616 3299,2616 3298,2615 3269,2615 3268,2616 3264,2616 3263,2617 3258,2617 3257,2616 3255,2616 3254,2615 3251,2615 3250,2614 3247,2614 3246,2615 3245,2615 3244,2616 3243,2616 3242,2617 3239,2617 3238,2618 3220,2618 3219,2619 3215,2619 3214,2620 3213,2619 3212,2619 3210,2617 3209,2617 3208,2616 3207,2616 3206,2615 3204,2615 3203,2614 3199,2614 3198,2615 3196,2615 3195,2616 3193,2616 3192,2617 3175,2617 3174,2618 3170,2618 3169,2619 3162,2619 3161,2618 3158,2618 3157,2617 3150,2617 3149,2618 3145,2618 3144,2619 3133,2619 3132,2620 3121,2620 3120,2621 3118,2621 3117,2620 3116,2620 3114,2618 3113,2618 3112,2617 3111,2617 3110,2616 3108,2616 3107,2615 3104,2615 3103,2616 3101,2616 3100,2617 3097,2617 3096,2618 3067,2618 3066,2617 3061,2617 3060,2616 3056,2616 3055,2617 3051,2617 3050,2618 3025,2618 3024,2619 3022,2619 3021,2618 3013,2618 3012,2617 3009,2617 3008,2618 3004,2618 3003,2619 2981,2619 2980,2620 2972,2620 2971,2621 2961,2621 2960,2620 2934,2620 2933,2619 2919,2619 2918,2618 2911,2618 2910,2617 2895,2617 2894,2616 2892,2616 2891,2617 2887,2617 2886,2618 2883,2618 2882,2619 2871,2619 2870,2618 2862,2618 2861,2619 2850,2619 2849,2618 2828,2618 2827,2617 2821,2617 2820,2616 2814,2616 2813,2617 2798,2617 2797,2616 2795,2616 2794,2617 2773,2617 2772,2616 2761,2616 2760,2615 2758,2615 2757,2616 2746,2616 2745,2617 2738,2617 2737,2618 2736,2617 2729,2617 2728,2616 2723,2616 2722,2615 2721,2616 2703,2616 2702,2615 2696,2615 2695,2616 2681,2616 2680,2615 2673,2615 2672,2614 2667,2614 2666,2613 2657,2613 2656,2614 2651,2614 2650,2613 2644,2613 2643,2612 2635,2612 2634,2611" fill="rgba(151,130,149,0.3)" stroke="rgb(151,130,149)" stroke-width="2" data-block-id="0005" data-name="b-0007" /><text x="3183" y="2784" text-anchor="middle" dominant-baseline="middle" class="block-label" fill="rgb(151,130,149)" stroke="white" stroke-width="3" paint-order="stroke">b-0007</text><polygon points="3449,2136 3448,2137 3435,2137 3434,2138 3421,2138 3420,2139 3410,2139 3409,2140 3389,2140 3388,2141 3311,2141 3310,2140 3304,2140 3303,2141 3270,2141 3269,2142 3265,2142 3264,2143 3262,2143 3261,2144 3255,2144 3254,2143 3169,2143 3168,2142 3159,2142 3158,2143 3147,2143 3146,2142 3137,2142 3136,2143 3123,2143 3122,2142 3111,2142 3110,2143 3098,2143 3097,2142 3092,2142 3091,2143 3039,2143 3038,2144 3031,2144 3030,2143 3013,2143 3012,2144 3001,2144 3000,2143 2999,2143 2998,2144 2978,2144 2977,2143 2971,2143 2970,2144 2944,2144 2943,2145 2933,2145 2932,2144 2923,2144 2922,2145 2914,2145 2913,2146 2912,2145 2897,2145 2896,2146 2889,2146 2888,2145 2882,2145 2881,2144 2875,2144 2874,2145 2836,2145 2835,2144 2827,2144 2826,2145 2791,2145 2790,2144 2775,2144 2774,2145 2767,2145 2766,2144 2753,2144 2752,2145 2746,2145 2745,2144 2739,2144 2738,2143 2732,2143 2731,2144 2696,2144 2695,2143 2646,2143 2645,2142 2627,2142 2626,2143 2614,2143 2613,2142 2610,2142 2609,2141 2596,2141 2595,2142 2587,2142 2586,2143 2559,2143 2558,2144 2556,2144 2555,2145 2554,2145 2553,2146 2552,2146 2549,2149 2549,2150 2548,2151 2548,2153 2547,2154 2547,2156 2546,2157 2546,2160 2545,2161 2545,2175 2546,2176 2546,2185 2547,2186 2547,2203 2546,2204 2546,2211 2545,2212 2545,2216 2544,2217 2544,2222 2545,2223 2545,2225 2546,2226 2546,2228 2547,2229 2547,2231 2548,2232 2548,2259 2547,2260 2547,2270 2548,2271 2548,2274 2549,2275 2549,2280 2550,2281 2550,2283 2549,2284 2549,2296 2548,2297 2548,2304 2547,2305 2547,2309 2546,2310 2546,2327 2547,2328 2547,2345 2546,2346 2546,2354 2545,2355 2545,2360 2544,2361 2544,2367 2545,2368 2545,2374 2546,2375 2546,2393 2545,2394 2545,2404 2544,2405 2544,2415 2545,2416 2545,2418 2546,2419 2546,2424 2547,2425 2547,2448 2546,2449 2546,2454 2545,2455 2545,2461 2546,2462 2546,2463 2547,2464 2547,2465 2548,2466 2548,2467 2549,2468 2549,2469 2550,2470 2550,2476 2549,2477 2549,2494 2550,2495 2550,2497 2551,2498 2551,2499 2555,2503 2556,2503 2557,2504 2570,2504 2571,2503 2575,2503 2576,2502 2596,2502 2597,2501 2606,2501 2607,2500 2613,2500 2614,2499 2621,2499 2622,2500 2634,2500 2635,2501 2641,2501 2642,2502 2646,2502 2647,2503 2653,2503 2654,2504 2662,2504 2663,2505 2667,2505 2668,2504 2679,2504 2680,2505 2685,2505 2686,2506 2698,2506 2699,2507 2708,2507 2709,2508 2719,2508 2720,2507 2724,2507 2725,2508 2733,2508 2734,2509 2780,2509 2781,2510 2814,2510 2815,2509 2824,2509 2825,2510 2866,2510 2867,2509 2868,2509 2869,2510 2960,2510 2961,2509 2965,2509 2966,2510 3007,2510 3008,2509 3013,2509 3014,2510 3170,2510 3171,2509 3228,2509 3229,2508 3243,2508 3244,2507 3249,2507 3250,2506 3252,2506 3253,2505 3255,2505 3257,2503 3258,2503 3259,2502 3260,2502 3261,2503 3262,2503 3263,2504 3264,2504 3265,2505 3266,2505 3267,2506 3269,2506 3270,2507 3281,2507 3282,2508 3283,2507 3288,2507 3289,2506 3291,2506 3292,2505 3293,2505 3294,2504 3295,2504 3296,2503 3301,2503 3302,2504 3306,2504 3307,2505 3316,2505 3317,2506 3463,2506 3464,2505 3465,2505 3466,2506 3500,2506 3501,2505 3506,2505 3507,2504 3509,2504 3510,2503 3515,2503 3516,2504 3523,2504 3524,2505 3525,2504 3538,2504 3539,2505 3548,2505 3549,2504 3550,2504 3551,2503 3553,2503 3554,2502 3555,2502 3556,2501 3564,2501 3565,2502 3588,2502 3589,2503 3595,2503 3596,2502 3599,2502 3600,2501 3602,2501 3603,2500 3611,2500 3612,2501 3615,2501 3616,2502 3648,2502 3649,2501 3658,2501 3659,2502 3664,2502 3665,2503 3693,2503 3694,2502 3703,2502 3704,2503 3706,2503 3707,2504 3710,2504 3711,2505 3721,2505 3722,2506 3726,2506 3727,2505 3730,2505 3731,2504 3733,2504 3734,2503 3735,2503 3736,2502 3737,2502 3738,2501 3739,2501 3740,2500 3741,2500 3742,2499 3743,2499 3744,2498 3745,2498 3748,2495 3753,2495 3754,2496 3755,2496 3756,2497 3758,2497 3759,2498 3762,2498 3763,2499 3764,2498 3782,2498 3783,2499 3785,2499 3786,2498 3790,2498 3791,2497 3795,2497 3796,2496 3798,2496 3799,2497 3802,2497 3803,2498 3808,2498 3809,2499 3810,2499 3811,2498 3817,2498 3818,2497 3826,2497 3827,2498 3837,2498 3838,2497 3848,2497 3849,2498 3853,2498 3854,2499 3863,2499 3864,2498 3875,2498 3876,2499 3884,2499 3885,2498 3895,2498 3896,2499 3900,2499 3901,2500 3909,2500 3910,2499 3928,2499 3929,2500 3933,2500 3934,2501 3944,2501 3945,2500 3947,2500 3948,2499 3954,2499 3955,2500 3956,2500 3957,2501 3959,2501 3960,2502 3969,2502 3970,2501 3973,2501 3974,2500 3977,2500 3978,2499 3979,2499 3982,2496 3982,2495 3983,2494 3983,2487 3984,2486 3984,2470 3983,2469 3983,2464 3982,2463 3982,2456 3983,2455 3983,2448 3984,2447 3984,2444 3983,2443 3983,2414 3982,2413 3982,2352 3981,2351 3982,2350 3982,2263 3981,2262 3981,2253 3982,2252 3982,2195 3981,2194 3981,2180 3982,2179 3982,2176 3983,2175 3983,2160 3982,2159 3982,2152 3981,2151 3981,2149 3980,2148 3980,2147 3977,2144 3976,2144 3975,2143 3971,2143 3970,2142 3962,2142 3961,2143 3959,2143 3958,2144 3956,2144 3955,2145 3950,2145 3949,2144 3948,2144 3947,2143 3946,2143 3945,2142 3944,2142 3943,2141 3940,2141 3939,2140 3938,2140 3937,2141 3934,2141 3933,2142 3929,2142 3928,2143 3924,2143 3923,2142 3890,2142 3889,2141 3884,2141 3883,2140 3864,2140 3863,2141 3837,2141 3836,2140 3821,2140 3820,2141 3815,2141 3814,2142 3807,2142 3806,2143 3792,2143 3791,2142 3768,2142 3767,2143 3758,2143 3757,2144 3752,2144 3751,2145 3750,2145 3749,2144 3746,2144 3745,2143 3743,2143 3742,2142 3739,2142 3738,2141 3735,2141 3734,2140 3730,2140 3729,2139 3690,2139 3689,2138 3683,2138 3682,2137 3672,2137 3671,2138 3649,2138 3648,2139 3601,2139 3600,2140 3577,2140 3576,2139 3567,2139 3566,2140 3507,2140 3506,2139 3487,2139 3486,2138 3460,2138 3459,2137 3451,2137 3450,2136" fill="rgba(52,1,87,0.3)" stroke="rgb(52,1,87)" stroke-width="2" data-block-id="0006" data-name="b-0008" /><text x="3285" y="2338" text-anchor="middle" dominant-baseline="middle" class="block-label" fill="rgb(52,1,87)" stroke="white" stroke-width="3" paint-order="stroke">b-0008</text><polygon points="3853,1667 3852,1668 3743,1668 3742,1669 3718,1669 3717,1668 3710,1668 3709,1669 3693,1669 3692,1668 3688,1668 3687,1669 3646,1669 3645,1668 3625,1668 3624,1669 3615,1669 3614,1668 3599,1668 3598,1669 3565,1669 3564,1668 3479,1668 3478,1669 3469,1669 3468,1668 3454,1668 3453,1669 3431,1669 3430,1670 3415,1670 3414,1671 3403,1671 3402,1672 3382,1672 3381,1671 3357,1671 3356,1672 3337,1672 3336,1671 3308,1671 3307,1672 3293,1672 3292,1671 3287,1671 3286,1670 3277,1670 3276,1671 3260,1671 3259,1670 3245,1670 3244,1669 3239,1669 3238,1668 3232,1668 3231,1669 3203,1669 3202,1670 3197,1670 3196,1669 3180,1669 3179,1670 3175,1670 3174,1669 3160,1669 3159,1670 3149,1670 3148,1669 3114,1669 3113,1670 3108,1670 3107,1671 3055,1671 3054,1670 3046,1670 3045,1669 2972,1669 2971,1670 2927,1670 2926,1671 2911,1671 2910,1670 2867,1670 2866,1669 2843,1669 2842,1670 2834,1670 2833,1671 2819,1671 2818,1670 2788,1670 2787,1671 2767,1671 2766,1670 2715,1670 2714,1669 2709,1669 2708,1670 2695,1670 2694,1669 2678,1669 2677,1670 2673,1670 2672,1669 2660,1669 2659,1670 2645,1670 2644,1669 2613,1669 2612,1670 2557,1670 2556,1671 2552,1671 2551,1672 2549,1672 2548,1673 2546,1673 2546,1674 2544,1676 2544,1678 2543,1679 2543,1681 2542,1682 2542,1683 2541,1684 2541,1685 2540,1686 2540,1687 2539,1688 2539,1690 2540,1691 2540,1699 2539,1700 2539,1710 2540,1711 2540,1715 2541,1716 2541,1728 2542,1729 2542,1751 2543,1752 2543,1766 2542,1767 2542,1772 2543,1773 2543,1810 2542,1811 2542,1818 2541,1819 2541,1839 2542,1840 2542,1905 2541,1906 2541,1915 2540,1916 2540,1931 2541,1932 2541,1940 2542,1941 2542,2016 2543,2017 2543,2021 2547,2025 2548,2025 2549,2026 2551,2026 2552,2027 2557,2027 2558,2028 2575,2028 2576,2027 2597,2027 2598,2026 2608,2026 2609,2027 2615,2027 2616,2028 2622,2028 2623,2029 2635,2029 2636,2030 2655,2030 2656,2031 2661,2031 2662,2032 2702,2032 2703,2033 3007,2033 3008,2032 3016,2032 3017,2033 3029,2033 3030,2034 3034,2034 3035,2035 3047,2035 3048,2034 3071,2034 3072,2033 3098,2033 3099,2032 3129,2032 3130,2033 3140,2033 3141,2032 3160,2032 3161,2033 3195,2033 3196,2032 3204,2032 3205,2033 3239,2033 3240,2032 3315,2032 3316,2031 3495,2031 3496,2032 3498,2032 3499,2031 3530,2031 3531,2030 3542,2030 3543,2031 3612,2031 3613,2030 3621,2030 3622,2031 3648,2031 3649,2030 3672,2030 3673,2031 3685,2031 3686,2030 3720,2030 3721,2029 3781,2029 3782,2028 3790,2028 3791,2029 3856,2029 3857,2030 3866,2030 3867,2031 3924,2031 3925,2030 3933,2030 3934,2031 3943,2031 3944,2030 3966,2030 3967,2029 3972,2029 3973,2028 3975,2028 3976,2027 3977,2027 3980,2024 3980,2023 3981,2022 3981,2020 3982,2019 3982,2013 3981,2012 3981,2005 3982,2004 3982,1987 3981,1986 3981,1981 3982,1980 3982,1966 3981,1965 3981,1959 3982,1958 3982,1933 3981,1932 3981,1907 3982,1906 3982,1896 3981,1895 3981,1857 3980,1856 3980,1813 3981,1812 3981,1797 3980,1796 3980,1790 3981,1789 3981,1773 3980,1772 3980,1762 3979,1761 3979,1719 3980,1718 3980,1712 3981,1711 3981,1709 3980,1708 3980,1702 3979,1701 3979,1697 3980,1696 3980,1693 3981,1692 3981,1689 3982,1688 3982,1684 3981,1683 3981,1681 3980,1680 3980,1679 3979,1678 3979,1677 3978,1676 3977,1676 3975,1674 3974,1674 3973,1673 3971,1673 3970,1672 3967,1672 3966,1671 3961,1671 3960,1670 3937,1670 3936,1669 3900,1669 3899,1668 3871,1668 3870,1667" fill="rgba(235,157,37,0.3)" stroke="rgb(235,157,37)" stroke-width="2" data-block-id="0007" data-name="b-0009" /><text x="3284" y="1815" text-anchor="middle" dominant-baseline="middle" class="block-label" fill="rgb(235,157,37)" stroke="white" stroke-width="3" paint-order="stroke">b-0009</text><polygon points="3422,1192 3421,1193 3400,1193 3399,1194 3380,1194 3379,1193 3358,1193 3357,1194 3280,1194 3279,1193 3269,1193 3268,1194 3258,1194 3257,1195 3244,1195 3243,1194 3230,1194 3229,1193 3211,1193 3210,1194 3189,1194 3188,1195 3172,1195 3171,1194 3164,1194 3163,1195 3057,1195 3056,1196 3041,1196 3040,1195 2967,1195 2966,1196 2951,1196 2950,1195 2922,1195 2921,1196 2903,1196 2902,1195 2859,1195 2858,1196 2853,1196 2852,1195 2831,1195 2830,1196 2823,1196 2822,1197 2817,1197 2816,1196 2810,1196 2809,1195 2805,1195 2804,1196 2797,1196 2796,1197 2785,1197 2784,1198 2778,1198 2777,1199 2772,1199 2771,1200 2740,1200 2739,1199 2730,1199 2729,1200 2717,1200 2716,1201 2674,1201 2673,1202 2667,1202 2666,1203 2656,1203 2655,1204 2648,1204 2647,1205 2642,1205 2641,1206 2635,1206 2634,1207 2630,1207 2629,1208 2627,1208 2624,1211 2625,1212 2625,1214 2626,1215 2628,1215 2629,1216 2630,1216 2631,1217 2632,1217 2633,1218 2634,1218 2636,1220 2636,1222 2634,1224 2627,1224 2622,1219 2622,1218 2621,1217 2618,1217 2617,1216 2614,1216 2613,1215 2612,1215 2611,1214 2610,1214 2609,1213 2608,1213 2607,1212 2606,1212 2605,1211 2604,1211 2603,1210 2602,1210 2601,1209 2600,1209 2599,1208 2598,1208 2597,1207 2596,1207 2594,1205 2592,1205 2591,1204 2563,1204 2562,1205 2558,1205 2557,1206 2555,1206 2553,1208 2553,1209 2551,1211 2551,1212 2550,1213 2550,1215 2549,1216 2549,1218 2548,1219 2548,1262 2549,1263 2549,1274 2550,1275 2550,1305 2549,1306 2549,1311 2548,1312 2548,1320 2549,1321 2549,1324 2550,1325 2550,1328 2551,1329 2551,1334 2552,1335 2552,1347 2553,1348 2553,1366 2554,1367 2554,1369 2555,1370 2555,1372 2556,1373 2556,1374 2557,1375 2557,1377 2556,1378 2556,1379 2555,1380 2555,1381 2554,1382 2554,1385 2553,1386 2553,1392 2554,1393 2554,1398 2555,1399 2555,1403 2554,1404 2554,1428 2553,1429 2553,1433 2552,1434 2552,1439 2553,1440 2553,1455 2552,1456 2552,1464 2553,1465 2553,1474 2552,1475 2552,1478 2551,1479 2551,1484 2550,1485 2551,1486 2551,1518 2552,1519 2552,1522 2553,1523 2553,1524 2554,1525 2554,1526 2556,1528 2557,1528 2558,1529 2572,1529 2573,1528 2577,1528 2578,1527 2580,1527 2581,1528 2582,1528 2584,1530 2584,1535 2583,1536 2583,1538 2582,1539 2582,1541 2581,1542 2582,1543 2582,1544 2583,1545 2583,1546 2590,1553 2592,1553 2593,1552 2594,1552 2601,1545 2602,1545 2603,1544 2604,1544 2604,1543 2605,1542 2615,1542 2617,1544 2618,1544 2620,1546 2621,1546 2622,1547 2623,1547 2624,1548 2626,1548 2627,1549 2630,1549 2631,1550 2633,1550 2634,1551 2636,1551 2637,1552 2639,1552 2640,1553 2642,1553 2643,1552 2647,1552 2648,1551 2660,1551 2661,1552 2666,1552 2667,1551 2678,1551 2679,1552 2681,1552 2682,1553 2694,1553 2695,1552 2700,1552 2701,1551 2723,1551 2724,1552 2727,1552 2728,1553 2732,1553 2733,1554 2739,1554 2740,1553 2745,1553 2746,1552 2752,1552 2753,1553 2776,1553 2777,1554 2792,1554 2793,1553 2799,1553 2800,1554 2825,1554 2826,1555 2837,1555 2838,1554 2852,1554 2853,1555 2859,1555 2860,1554 2868,1554 2869,1555 2886,1555 2887,1554 2916,1554 2917,1555 2922,1555 2923,1556 2931,1556 2932,1555 2964,1555 2965,1556 2980,1556 2981,1555 3013,1555 3014,1556 3029,1556 3030,1555 3042,1555 3043,1556 3053,1556 3054,1555 3057,1555 3058,1556 3101,1556 3102,1555 3106,1555 3107,1556 3208,1556 3209,1557 3219,1557 3220,1556 3233,1556 3234,1557 3305,1557 3306,1558 3310,1558 3311,1557 3461,1557 3462,1556 3470,1556 3471,1557 3591,1557 3592,1558 3621,1558 3622,1557 3637,1557 3638,1558 3643,1558 3644,1557 3650,1557 3651,1556 3662,1556 3663,1557 3670,1557 3671,1556 3680,1556 3681,1555 3685,1555 3686,1554 3691,1554 3693,1556 3695,1556 3696,1557 3698,1557 3699,1558 3776,1558 3777,1557 3790,1557 3791,1558 3815,1558 3816,1557 3823,1557 3824,1558 3837,1558 3838,1559 3910,1559 3911,1558 3937,1558 3938,1559 3955,1559 3956,1558 3966,1558 3967,1557 3970,1557 3971,1556 3973,1556 3974,1555 3975,1555 3977,1553 3977,1552 3978,1551 3978,1549 3979,1548 3979,1545 3980,1544 3980,1531 3979,1530 3979,1523 3978,1522 3978,1511 3979,1510 3979,1490 3980,1489 3980,1479 3979,1478 3979,1473 3978,1472 3978,1464 3979,1463 3979,1461 3978,1460 3978,1455 3977,1454 3977,1450 3976,1449 3976,1445 3977,1444 3977,1436 3978,1435 3978,1394 3979,1393 3979,1379 3978,1378 3978,1366 3977,1365 3977,1364 3978,1363 3978,1335 3979,1334 3979,1326 3978,1325 3978,1305 3977,1304 3977,1263 3978,1262 3978,1239 3979,1238 3979,1230 3978,1229 3978,1226 3977,1225 3977,1208 3976,1207 3976,1203 3975,1202 3975,1200 3973,1198 3972,1198 3971,1197 3967,1197 3966,1196 3961,1196 3960,1195 3955,1195 3954,1194 3925,1194 3924,1195 3896,1195 3895,1196 3881,1196 3880,1197 3872,1197 3871,1198 3865,1198 3864,1197 3853,1197 3852,1196 3843,1196 3842,1195 3823,1195 3822,1196 3811,1196 3810,1195 3765,1195 3764,1194 3740,1194 3739,1195 3721,1195 3720,1194 3689,1194 3688,1195 3672,1195 3671,1194 3657,1194 3656,1193 3644,1193 3643,1194 3631,1194 3630,1195 3628,1195 3627,1194 3593,1194 3592,1195 3555,1195 3554,1194 3541,1194 3540,1195 3529,1195 3528,1194 3489,1194 3488,1195 3486,1195 3485,1194 3461,1194 3460,1193 3431,1193 3430,1192" fill="rgba(129,191,187,0.3)" stroke="rgb(129,191,187)" stroke-width="2" data-block-id="0008" data-name="b-0010" /><text x="3112" y="1375" text-anchor="middle" dominant-baseline="middle" class="block-label" fill="rgb(129,191,187)" stroke="white" stroke-width="3" paint-order="stroke">b-0010</text><polygon points="3226,718 3225,719 3213,719 3212,720 3200,720 3199,721 3181,721 3180,722 3146,722 3145,723 3117,723 3116,722 3079,722 3078,721 3072,721 3071,720 3067,720 3066,721 3059,721 3058,722 3056,722 3055,721 3038,721 3037,722 3027,722 3026,721 2997,721 2996,722 2932,722 2931,723 2894,723 2893,724 2865,724 2864,723 2863,723 2862,722 2861,722 2860,721 2858,721 2857,720 2850,720 2849,721 2845,721 2844,722 2840,722 2839,723 2836,723 2835,724 2832,724 2831,725 2817,725 2816,724 2799,724 2798,725 2794,725 2793,724 2786,724 2785,723 2784,723 2783,724 2779,724 2778,725 2776,725 2775,726 2774,726 2773,727 2769,727 2768,726 2765,726 2764,725 2754,725 2753,726 2747,726 2746,727 2745,726 2694,726 2693,725 2673,725 2672,726 2662,726 2661,727 2653,727 2652,728 2642,728 2641,729 2636,729 2635,730 2631,730 2630,731 2614,731 2613,732 2601,732 2600,731 2592,731 2591,730 2557,730 2556,731 2555,731 2555,732 2554,733 2554,734 2553,735 2553,737 2552,738 2552,740 2551,741 2551,957 2552,958 2552,963 2551,964 2551,1053 2552,1054 2552,1071 2553,1072 2553,1079 2554,1080 2554,1081 2557,1084 2558,1084 2559,1085 2563,1085 2564,1086 2569,1086 2570,1087 2578,1087 2579,1088 2589,1088 2590,1089 2602,1089 2603,1090 2608,1090 2609,1089 2671,1089 2672,1088 2693,1088 2694,1087 2708,1087 2709,1088 2713,1088 2714,1087 2720,1087 2721,1086 2740,1086 2741,1085 2747,1085 2748,1084 2749,1084 2750,1085 2765,1085 2766,1084 2777,1084 2778,1083 2796,1083 2797,1084 2802,1084 2803,1085 2816,1085 2817,1086 2818,1085 2825,1085 2826,1084 2846,1084 2847,1085 2859,1085 2860,1084 2892,1084 2893,1085 2908,1085 2909,1084 2918,1084 2919,1083 2940,1083 2941,1084 2966,1084 2967,1085 3003,1085 3004,1084 3028,1084 3029,1085 3066,1085 3067,1086 3074,1086 3075,1085 3085,1085 3086,1086 3097,1086 3098,1085 3103,1085 3104,1084 3110,1084 3111,1085 3137,1085 3138,1086 3142,1086 3143,1085 3149,1085 3150,1084 3157,1084 3158,1085 3170,1085 3171,1086 3184,1086 3185,1087 3189,1087 3190,1086 3193,1086 3194,1085 3197,1085 3198,1084 3216,1084 3217,1083 3225,1083 3226,1082 3227,1083 3252,1083 3253,1084 3277,1084 3278,1083 3290,1083 3291,1082 3299,1082 3300,1083 3338,1083 3339,1084 3348,1084 3349,1085 3371,1085 3372,1084 3380,1084 3381,1085 3396,1085 3397,1086 3424,1086 3425,1085 3434,1085 3435,1086 3477,1086 3478,1085 3481,1085 3482,1084 3486,1084 3487,1083 3513,1083 3514,1084 3527,1084 3528,1083 3553,1083 3554,1082 3561,1082 3562,1083 3568,1083 3569,1084 3574,1084 3575,1083 3603,1083 3604,1082 3609,1082 3610,1083 3624,1083 3625,1082 3650,1082 3651,1083 3674,1083 3675,1082 3771,1082 3772,1081 3791,1081 3792,1080 3815,1080 3816,1081 3833,1081 3834,1080 3842,1080 3843,1079 3848,1079 3849,1080 3869,1080 3870,1081 3951,1081 3952,1080 3959,1080 3960,1079 3963,1079 3967,1075 3967,1074 3968,1073 3968,1072 3969,1071 3969,1070 3970,1069 3970,1045 3969,1044 3969,1034 3970,1033 3970,1030 3969,1029 3969,1000 3968,999 3968,982 3969,981 3969,974 3970,973 3970,969 3971,968 3971,960 3972,959 3972,956 3971,955 3971,886 3972,885 3972,878 3973,877 3973,873 3972,872 3972,863 3971,862 3971,802 3970,801 3970,788 3971,787 3971,749 3970,748 3970,742 3971,741 3971,735 3972,734 3971,733 3971,730 3965,724 3963,724 3962,723 3907,723 3906,724 3886,724 3885,723 3877,723 3876,722 3858,722 3857,723 3827,723 3826,722 3816,722 3815,723 3765,723 3764,724 3740,724 3739,725 3737,725 3736,724 3704,724 3703,723 3702,724 3629,724 3628,723 3599,723 3598,724 3562,724 3561,723 3553,723 3552,724 3542,724 3541,723 3502,723 3501,724 3496,724 3495,723 3449,723 3448,724 3426,724 3425,723 3411,723 3410,724 3396,724 3395,723 3389,723 3388,724 3351,724 3350,723 3338,723 3337,724 3319,724 3318,723 3308,723 3307,722 3306,722 3305,723 3292,723 3291,722 3282,722 3281,721 3247,721 3246,720 3244,720 3243,719 3241,719 3240,718" fill="rgba(20,160,203,0.3)" stroke="rgb(20,160,203)" stroke-width="2" data-block-id="0009" data-name="b-0011" /><text x="3224" y="906" text-anchor="middle" dominant-baseline="middle" class="block-label" fill="rgb(20,160,203)" stroke="white" stroke-width="3" paint-order="stroke">b-0011</text><polygon points="3231,419 3230,420 3226,420 3225,421 3222,421 3221,422 3215,422 3214,423 3205,423 3204,424 3197,424 3196,425 3179,425 3178,426 3172,426 3171,427 3163,427 3162,428 3112,428 3111,427 3062,427 3061,428 3031,428 3030,429 3025,429 3024,430 3020,430 3019,429 3015,429 3014,428 2930,428 2929,429 2923,429 2922,430 2910,430 2909,429 2878,429 2877,430 2873,430 2872,431 2868,431 2867,432 2864,432 2863,431 2801,431 2800,432 2779,432 2778,433 2739,433 2738,432 2699,432 2698,433 2681,433 2680,434 2663,434 2662,435 2653,435 2652,436 2646,436 2645,437 2639,437 2638,438 2626,438 2625,439 2597,439 2596,440 2590,440 2589,439 2583,439 2582,438 2572,438 2571,437 2557,437 2554,440 2554,441 2553,442 2553,444 2552,445 2552,461 2551,462 2551,474 2552,475 2552,488 2551,489 2551,503 2552,504 2552,509 2551,510 2551,546 2552,547 2552,596 2553,597 2553,602 2554,603 2554,605 2555,606 2555,608 2558,611 2558,612 2560,612 2561,613 2563,613 2564,614 2566,614 2567,615 2574,615 2575,616 2585,616 2586,617 2597,617 2598,618 2637,618 2638,617 2656,617 2657,616 2687,616 2688,615 2715,615 2716,614 2739,614 2740,613 2745,613 2746,612 2751,612 2752,613 2766,613 2767,612 2779,612 2780,613 2784,613 2785,612 2792,612 2793,611 2798,611 2799,612 2838,612 2839,611 2847,611 2848,612 2858,612 2859,611 2863,611 2864,610 2879,610 2880,611 2915,611 2916,610 2921,610 2922,609 2929,609 2930,610 2935,610 2936,611 2970,611 2971,610 3007,610 3008,611 3011,611 3012,610 3017,610 3018,609 3023,609 3024,610 3025,610 3026,611 3028,611 3029,612 3030,612 3031,613 3034,613 3035,614 3045,614 3046,613 3051,613 3052,612 3058,612 3059,611 3075,611 3076,612 3108,612 3109,611 3111,611 3112,610 3114,610 3115,609 3122,609 3123,610 3131,610 3132,611 3142,611 3143,610 3150,610 3151,609 3159,609 3160,610 3241,610 3242,609 3255,609 3256,610 3264,610 3265,609 3280,609 3281,610 3301,610 3302,611 3317,611 3318,610 3329,610 3330,609 3335,609 3336,608 3363,608 3364,607 3378,607 3379,608 3390,608 3391,609 3400,609 3401,610 3405,610 3406,609 3412,609 3413,608 3423,608 3424,607 3430,607 3431,608 3443,608 3444,609 3455,609 3456,608 3467,608 3468,607 3478,607 3479,608 3492,608 3493,609 3506,609 3507,608 3513,608 3514,609 3520,609 3521,610 3522,610 3523,609 3530,609 3531,608 3537,608 3538,609 3552,609 3553,608 3556,608 3557,607 3569,607 3570,608 3573,608 3574,609 3575,609 3576,610 3577,610 3578,611 3580,611 3581,612 3592,612 3593,611 3594,611 3595,610 3596,610 3597,609 3598,609 3600,607 3601,607 3602,606 3603,606 3604,605 3605,605 3606,604 3607,604 3608,603 3609,603 3611,601 3611,598 3610,597 3610,596 3609,595 3609,592 3608,591 3608,581 3609,580 3609,578 3608,577 3608,574 3607,573 3607,571 3606,570 3606,568 3605,567 3605,565 3606,564 3606,562 3607,561 3607,559 3608,558 3608,556 3609,555 3609,541 3610,540 3610,539 3611,538 3611,537 3613,535 3613,534 3616,531 3616,528 3617,527 3617,514 3616,513 3616,511 3615,510 3615,509 3614,508 3614,506 3613,505 3613,502 3612,501 3612,497 3611,496 3611,493 3610,492 3610,490 3609,489 3609,484 3608,483 3608,466 3607,465 3607,456 3606,455 3606,452 3605,451 3605,450 3604,449 3604,448 3603,447 3603,446 3602,445 3602,444 3603,443 3603,436 3602,435 3602,434 3601,433 3600,433 3599,432 3597,432 3596,431 3565,431 3564,432 3556,432 3555,431 3547,431 3546,430 3543,430 3542,431 3528,431 3527,430 3506,430 3505,431 3489,431 3488,430 3487,431 3453,431 3452,432 3448,432 3447,431 3370,431 3369,430 3368,431 3357,431 3356,432 3353,432 3352,431 3328,431 3327,430 3306,430 3305,429 3294,429 3293,430 3290,430 3289,431 3286,431 3285,432 3283,432 3282,431 3280,431 3278,429 3277,429 3273,425 3272,425 3271,424 3269,426 3268,426 3262,432 3261,432 3260,433 3257,433 3256,432 3254,432 3253,431 3251,431 3241,421 3240,421 3239,420 3238,420 3237,419" fill="rgba(169,219,187,0.3)" stroke="rgb(169,219,187)" stroke-width="2" data-block-id="0010" data-name="b-0015" /><text x="3187" y="529" text-anchor="middle" dominant-baseline="middle" class="block-label" fill="rgb(169,219,187)" stroke="white" stroke-width="3" paint-order="stroke">b-0015</text><polygon points="2223,252 2222,253 2198,253 2197,254 2194,254 2193,255 2191,255 2190,256 2189,256 2189,257 2188,258 2188,259 2187,260 2187,263 2186,264 2186,272 2187,273 2187,279 2188,280 2188,283 2187,284 2187,292 2186,293 2186,296 2185,297 2185,357 2184,358 2184,368 2185,369 2185,402 2184,403 2184,410 2183,411 2183,414 2184,415 2184,448 2183,449 2183,465 2184,466 2184,474 2185,475 2185,499 2184,500 2184,513 2185,514 2185,519 2186,520 2185,521 2185,537 2186,538 2186,541 2185,542 2185,546 2184,547 2184,551 2183,552 2183,556 2184,557 2184,560 2185,561 2185,562 2186,563 2186,564 2187,565 2187,574 2186,575 2186,601 2187,602 2187,603 2188,603 2189,604 2190,604 2191,605 2192,605 2193,606 2195,606 2196,607 2198,607 2199,608 2211,608 2212,609 2255,609 2256,610 2262,610 2263,609 2335,609 2336,608 2348,608 2349,609 2358,609 2359,608 2364,608 2365,607 2366,607 2369,604 2369,603 2370,602 2370,598 2371,597 2371,589 2372,588 2372,583 2371,582 2371,569 2370,568 2370,556 2371,555 2371,541 2370,540 2370,471 2371,470 2371,419 2370,418 2370,356 2371,355 2371,343 2370,342 2370,336 2371,335 2371,313 2372,312 2372,307 2373,306 2373,300 2372,299 2372,296 2371,295 2371,293 2370,292 2370,285 2371,284 2371,269 2370,268 2370,265 2369,264 2369,262 2368,261 2368,259 2365,256 2364,256 2363,255 2361,255 2360,254 2339,254 2338,255 2333,255 2332,256 2327,256 2326,257 2297,257 2296,256 2295,256 2294,255 2293,255 2292,254 2290,254 2289,253 2283,253 2282,252 2280,252 2279,253 2267,253 2266,254 2263,254 2262,255 2259,255 2258,256 2248,256 2247,255 2245,255 2244,254 2241,254 2240,253 2235,253 2234,252" fill="rgba(134,20,72,0.3)" stroke="rgb(134,20,72)" stroke-width="2" data-block-id="0011" data-name="b-0021" /><text x="2266" y="407" text-anchor="middle" dominant-baseline="middle" class="block-label" fill="rgb(134,20,72)" stroke="white" stroke-width="3" paint-order="stroke">b-0021</text></g>
</svg>