<?xml version='1.0' encoding='utf-8'?>
<svg xmlns="http://www.w3.org/2000/svg" xmlns:atlas="http://example.com/atlas" width="4980" height="3313" viewBox="0 0 4980 3313">
  
  <metadata>
    <atlas:source>
      <atlas:jp2-path>../media/v1/p29.jp2</atlas:jp2-path>
      <atlas:volume>vol1</atlas:volume>
      <atlas:plate-id>p29</atlas:plate-id>
      <atlas:image-width>4980</atlas:image-width>
      <atlas:image-height>3313</atlas:image-height>
    <atlas:angle>21.137329517760364</atlas:angle><atlas:scale>1.3930087500000001</atlas:scale><atlas:pos-x>3142.439905321607</atlas:pos-x><atlas:pos-y>658.6401312526173</atlas:pos-y></atlas:source>
  </metadata>

  
  <image id="background" href="file://../media/v1/p29.jp2" width="4980" height="3313" opacity="0.5" />

  <style>
    .block-label { font-family: sans-serif; font-size: 14px; font-weight: bold; }
  </style>

  
  <g id="blocks">
    <polygon points="1192,2348 1191,2349 1185,2349 1184,2350 1177,2350 1176,2351 1157,2351 1156,2352 1124,2352 1123,2351 1116,2351 1115,2352 1109,2352 1108,2353 1097,2353 1096,2354 1049,2354 1048,2353 1037,2353 1036,2354 1029,2354 1028,2355 1017,2355 1016,2356 983,2356 982,2355 947,2355 946,2356 915,2356 914,2357 879,2357 878,2358 869,2358 868,2359 863,2359 862,2358 854,2358 853,2357 817,2357 816,2356 801,2356 800,2355 782,2355 781,2356 767,2356 766,2357 737,2357 736,2356 724,2356 723,2357 700,2357 699,2356 674,2356 673,2357 660,2357 659,2358 653,2358 652,2359 651,2359 647,2363 647,2364 646,2365 646,2366 645,2367 645,2369 644,2370 644,2372 643,2373 643,2377 642,2378 642,2399 643,2400 642,2401 642,2410 641,2411 641,2416 640,2417 640,2435 641,2436 641,2451 640,2452 640,2467 641,2468 641,2476 642,2477 642,2482 643,2483 643,2488 644,2489 644,2493 645,2494 645,2497 646,2498 646,2502 647,2503 647,2509 648,2510 648,2525 647,2526 647,2530 646,2531 646,2535 645,2536 645,2549 646,2550 646,2558 645,2559 645,2562 644,2563 644,2565 643,2566 643,2571 642,2572 642,2592 643,2593 643,2603 642,2604 642,2695 643,2696 643,2697 649,2703 652,2703 653,2704 661,2704 662,2705 688,2705 689,2706 701,2706 702,2707 723,2707 724,2708 729,2708 730,2707 738,2707 739,2706 776,2706 777,2707 797,2707 798,2708 816,2708 817,2707 875,2707 876,2708 917,2708 918,2709 953,2709 954,2710 967,2710 968,2709 1003,2709 1004,2710 1037,2710 1038,2711 1039,2710 1077,2710 1078,2711 1092,2711 1093,2712 1113,2712 1114,2711 1126,2711 1127,2710 1155,2710 1156,2711 1224,2711 1225,2710 1256,2710 1257,2711 1272,2711 1273,2710 1325,2710 1326,2711 1352,2711 1353,2710 1368,2710 1369,2709 1389,2709 1390,2710 1407,2710 1408,2711 1436,2711 1437,2710 1479,2710 1480,2711 1566,2711 1567,2712 1633,2712 1634,2711 1654,2711 1655,2710 1666,2710 1667,2711 1684,2711 1685,2712 1717,2712 1718,2711 1735,2711 1736,2710 1787,2710 1788,2709 1806,2709 1807,2708 1821,2708 1822,2709 1854,2709 1855,2708 1859,2708 1860,2707 1862,2707 1864,2705 1865,2705 1869,2701 1869,2700 1870,2699 1870,2698 1871,2697 1871,2693 1872,2692 1872,2676 1873,2675 1873,2661 1874,2660 1874,2650 1873,2649 1873,2629 1874,2628 1874,2588 1875,2587 1875,2570 1874,2569 1874,2561 1873,2560 1873,2554 1874,2553 1874,2492 1873,2491 1873,2479 1872,2478 1873,2477 1873,2409 1872,2408 1872,2399 1873,2398 1873,2388 1874,2387 1874,2383 1873,2382 1873,2376 1872,2375 1872,2372 1871,2371 1871,2368 1870,2367 1870,2366 1869,2365 1869,2364 1868,2363 1868,2362 1866,2360 1866,2359 1865,2358 1864,2358 1862,2356 1861,2356 1860,2355 1859,2355 1858,2354 1855,2354 1854,2353 1845,2353 1844,2352 1823,2352 1822,2353 1802,2353 1801,2352 1788,2352 1787,2351 1769,2351 1768,2352 1750,2352 1749,2353 1738,2353 1737,2352 1730,2352 1729,2351 1722,2351 1721,2350 1698,2350 1697,2351 1690,2351 1689,2352 1680,2352 1679,2353 1647,2353 1646,2354 1645,2353 1635,2353 1634,2352 1627,2352 1626,2351 1583,2351 1582,2352 1575,2352 1574,2353 1544,2353 1543,2352 1498,2352 1497,2353 1479,2353 1478,2352 1470,2352 1469,2351 1441,2351 1440,2350 1433,2350 1432,2349 1426,2349 1425,2350 1415,2350 1414,2351 1400,2351 1399,2350 1390,2350 1389,2351 1382,2351 1381,2352 1361,2352 1360,2351 1355,2351 1354,2350 1344,2350 1343,2351 1307,2351 1306,2352 1301,2352 1300,2353 1283,2353 1282,2352 1267,2352 1266,2351 1249,2351 1248,2350 1218,2350 1217,2349 1205,2349 1204,2348" fill="rgba(102,179,92,0.3)" stroke="rgb(102,179,92)" stroke-width="2" data-block-id="0001" data-name="b-0001" /><text x="1250" y="2492" text-anchor="middle" dominant-baseline="middle" class="block-label" fill="rgb(102,179,92)" stroke="white" stroke-width="3" paint-order="stroke">b-0001</text><polygon points="3417,401 3416,402 3393,402 3392,403 3380,403 3379,402 3371,402 3370,403 3359,403 3358,404 3354,404 3353,405 3352,405 3351,406 3350,406 3346,410 3346,411 3345,412 3345,414 3344,415 3344,421 3343,422 3343,425 3344,426 3344,432 3345,433 3345,456 3344,457 3344,463 3345,464 3345,485 3346,486 3346,492 3347,493 3347,499 3346,500 3346,552 3347,553 3346,554 3346,558 3345,559 3345,560 3344,561 3344,563 3343,564 3343,574 3344,575 3344,582 3345,583 3345,587 3346,588 3346,593 3345,594 3345,617 3346,618 3346,640 3345,641 3345,657 3344,658 3344,663 3345,664 3345,669 3346,670 3346,692 3347,693 3347,700 3346,701 3346,721 3347,722 3347,724 3346,725 3346,750 3345,751 3345,756 3346,757 3346,759 3348,761 3348,762 3349,763 3349,765 3350,766 3350,768 3351,769 3351,780 3352,781 3352,782 3354,784 3355,784 3356,785 3357,785 3358,786 3360,786 3361,787 3440,787 3441,788 3484,788 3485,789 3488,789 3489,790 3493,790 3494,791 3498,791 3499,790 3538,790 3539,791 3546,791 3547,790 3628,790 3629,791 3635,791 3636,792 3637,792 3638,791 3644,791 3645,790 3667,790 3668,791 3694,791 3695,790 3724,790 3725,791 3743,791 3744,790 3748,790 3749,791 3767,791 3768,792 3784,792 3785,791 3798,791 3799,790 3808,790 3809,791 3858,791 3859,792 3869,792 3870,793 3878,793 3879,792 3886,792 3887,791 3901,791 3902,792 3910,792 3911,793 3929,793 3930,792 3966,792 3967,793 3977,793 3978,792 3988,792 3989,793 3994,793 3995,794 4007,794 4008,795 4023,795 4024,794 4057,794 4058,795 4073,795 4074,794 4100,794 4101,793 4104,793 4105,794 4128,794 4129,795 4145,795 4146,796 4152,796 4153,795 4158,795 4159,794 4166,794 4167,795 4214,795 4215,796 4221,796 4222,797 4230,797 4231,798 4247,798 4248,797 4250,797 4251,796 4252,796 4253,795 4266,795 4267,796 4316,796 4317,797 4336,797 4337,796 4372,796 4373,797 4410,797 4411,798 4422,798 4423,799 4438,799 4439,798 4445,798 4446,797 4455,797 4456,796 4467,796 4468,797 4499,797 4500,798 4504,798 4505,799 4520,799 4521,800 4522,799 4541,799 4542,798 4551,798 4552,797 4569,797 4574,792 4574,790 4575,789 4575,787 4576,786 4576,781 4577,780 4577,766 4576,765 4576,737 4575,736 4575,734 4576,733 4576,720 4577,719 4577,673 4578,672 4578,636 4579,635 4579,630 4580,629 4580,624 4581,623 4581,617 4582,616 4582,608 4581,607 4581,597 4582,596 4582,585 4581,584 4581,574 4582,573 4582,549 4583,548 4583,521 4582,520 4582,514 4581,513 4581,502 4582,501 4582,497 4583,496 4583,491 4582,490 4582,436 4581,435 4581,425 4580,424 4580,421 4579,420 4579,419 4578,418 4578,417 4577,416 4577,415 4573,411 4572,411 4571,410 4570,410 4569,409 4504,409 4503,410 4487,410 4486,409 4449,409 4448,408 4443,408 4442,407 4428,407 4427,408 4420,408 4419,407 4411,407 4410,408 4408,408 4407,409 4404,409 4403,410 4398,410 4397,409 4391,409 4390,408 4382,408 4381,409 4356,409 4355,410 4353,410 4352,409 4349,409 4348,408 4346,408 4345,407 4344,407 4343,406 4333,406 4332,407 4315,407 4314,408 4310,408 4309,409 4300,409 4299,408 4258,408 4257,407 4253,407 4252,406 4246,406 4245,405 4232,405 4231,406 4220,406 4219,407 4153,407 4152,406 4148,406 4147,407 4117,407 4116,406 4115,406 4114,407 4096,407 4095,406 4071,406 4070,405 4060,405 4059,406 4052,406 4051,405 4036,405 4035,406 3996,406 3995,405 3983,405 3982,404 3975,404 3974,403 3964,403 3963,404 3938,404 3937,405 3933,405 3932,404 3912,404 3911,405 3890,405 3889,404 3880,404 3879,403 3864,403 3863,404 3793,404 3792,403 3781,403 3780,404 3731,404 3730,405 3715,405 3714,404 3707,404 3706,403 3684,403 3683,404 3619,404 3618,403 3608,403 3607,402 3601,402 3600,403 3586,403 3585,404 3580,404 3579,405 3575,405 3574,404 3568,404 3567,403 3563,403 3562,404 3547,404 3546,403 3519,403 3518,402 3514,402 3513,403 3504,403 3503,402 3453,402 3452,401 3442,401 3441,402 3426,402 3425,401" fill="rgba(121,210,214,0.3)" stroke="rgb(121,210,214)" stroke-width="2" data-block-id="0002" data-name="b-0005" /><text x="3951" y="591" text-anchor="middle" dominant-baseline="middle" class="block-label" fill="rgb(121,210,214)" stroke="white" stroke-width="3" paint-order="stroke">b-0005</text><polygon points="3420,1399 3419,1400 3392,1400 3391,1401 3382,1401 3381,1400 3361,1400 3360,1401 3355,1401 3354,1402 3351,1402 3350,1403 3349,1403 3348,1404 3347,1404 3343,1408 3343,1412 3342,1413 3342,1432 3343,1433 3343,1487 3344,1488 3344,1500 3343,1501 3343,1511 3344,1512 3344,1536 3345,1537 3345,1540 3344,1541 3344,1546 3343,1547 3343,1573 3344,1574 3344,1582 3345,1583 3345,1592 3344,1593 3344,1608 3345,1609 3345,1635 3344,1636 3344,1650 3343,1651 3343,1662 3344,1663 3344,1669 3345,1670 3345,1679 3346,1680 3346,1693 3345,1694 3345,1728 3344,1729 3344,1733 3345,1734 3345,1746 3344,1747 3344,1758 3345,1759 3345,1761 3346,1762 3346,1764 3347,1765 3347,1767 3348,1768 3348,1769 3349,1770 3349,1771 3351,1773 3351,1774 3356,1779 3357,1779 3358,1780 3359,1780 3360,1781 3363,1781 3364,1782 3380,1782 3381,1781 3390,1781 3391,1782 3396,1782 3397,1783 3429,1783 3430,1782 3438,1782 3439,1783 3451,1783 3452,1782 3455,1782 3456,1781 3460,1781 3461,1782 3465,1782 3466,1783 3475,1783 3476,1782 3490,1782 3491,1783 3496,1783 3497,1782 3519,1782 3520,1781 3528,1781 3529,1780 3531,1780 3532,1781 3560,1781 3561,1782 3586,1782 3587,1783 3593,1783 3594,1782 3608,1782 3609,1783 3615,1783 3616,1782 3622,1782 3623,1781 3629,1781 3630,1782 3657,1782 3658,1783 3666,1783 3667,1782 3678,1782 3679,1783 3688,1783 3689,1782 3745,1782 3746,1783 3847,1783 3848,1784 3856,1784 3857,1783 3871,1783 3872,1784 3879,1784 3880,1783 3930,1783 3931,1782 3944,1782 3945,1783 3960,1783 3961,1782 4021,1782 4022,1783 4028,1783 4029,1784 4045,1784 4046,1783 4061,1783 4062,1784 4071,1784 4072,1783 4083,1783 4084,1782 4123,1782 4124,1783 4144,1783 4145,1782 4155,1782 4156,1783 4169,1783 4170,1782 4191,1782 4192,1783 4227,1783 4228,1784 4236,1784 4237,1783 4290,1783 4291,1784 4312,1784 4313,1783 4321,1783 4322,1782 4326,1782 4327,1781 4331,1781 4332,1782 4338,1782 4339,1783 4352,1783 4353,1782 4380,1782 4381,1783 4396,1783 4397,1782 4405,1782 4406,1783 4422,1783 4423,1782 4424,1782 4425,1783 4435,1783 4436,1784 4445,1784 4446,1783 4451,1783 4452,1784 4462,1784 4463,1783 4529,1783 4530,1784 4539,1784 4540,1783 4567,1783 4568,1782 4570,1782 4571,1781 4572,1781 4574,1779 4574,1778 4575,1777 4575,1776 4576,1775 4576,1770 4577,1769 4577,1761 4576,1760 4576,1720 4577,1719 4577,1716 4576,1715 4576,1677 4577,1676 4577,1593 4578,1592 4578,1579 4577,1578 4577,1573 4578,1572 4578,1554 4577,1553 4577,1552 4578,1551 4578,1543 4579,1542 4579,1537 4578,1536 4578,1524 4577,1523 4577,1500 4578,1499 4578,1494 4579,1493 4579,1490 4578,1489 4578,1486 4577,1485 4577,1450 4578,1449 4578,1436 4577,1435 4577,1418 4576,1417 4576,1415 4575,1414 4575,1413 4574,1412 4574,1410 4572,1408 4572,1407 4571,1406 4570,1406 4569,1405 4568,1405 4567,1404 4551,1404 4550,1403 4526,1403 4525,1404 4513,1404 4512,1403 4498,1403 4497,1404 4495,1404 4494,1403 4460,1403 4459,1404 4441,1404 4440,1403 4416,1403 4415,1404 4408,1404 4407,1405 4403,1405 4402,1406 4365,1406 4364,1405 4359,1405 4358,1404 4331,1404 4330,1403 4326,1403 4325,1404 4289,1404 4288,1405 4285,1405 4284,1406 4267,1406 4266,1405 4258,1405 4257,1404 4255,1404 4254,1405 4243,1405 4242,1404 4234,1404 4233,1403 4231,1403 4230,1404 4142,1404 4141,1403 4136,1403 4135,1404 4119,1404 4118,1403 4113,1403 4112,1404 4110,1404 4109,1405 4105,1405 4104,1406 4101,1406 4100,1405 4097,1405 4096,1404 4094,1404 4093,1403 4081,1403 4080,1404 4079,1403 4071,1403 4070,1402 4059,1402 4058,1403 4053,1403 4052,1402 4047,1402 4046,1401 4033,1401 4032,1402 4022,1402 4021,1403 3980,1403 3979,1402 3957,1402 3956,1401 3940,1401 3939,1402 3864,1402 3863,1401 3855,1401 3854,1400 3851,1400 3850,1401 3846,1401 3845,1402 3835,1402 3834,1401 3819,1401 3818,1402 3809,1402 3808,1401 3802,1401 3801,1402 3784,1402 3783,1401 3771,1401 3770,1402 3769,1401 3751,1401 3750,1402 3735,1402 3734,1401 3730,1401 3729,1402 3714,1402 3713,1401 3704,1401 3703,1402 3692,1402 3691,1401 3642,1401 3641,1400 3617,1400 3616,1399 3611,1399 3610,1400 3593,1400 3592,1399 3588,1399 3587,1400 3581,1400 3580,1401 3574,1401 3573,1400 3567,1400 3566,1399 3560,1399 3559,1400 3536,1400 3535,1401 3524,1401 3523,1400 3464,1400 3463,1401 3454,1401 3453,1400 3448,1400 3447,1399 3441,1399 3440,1400 3426,1400 3425,1399" fill="rgba(74,202,87,0.3)" stroke="rgb(74,202,87)" stroke-width="2" data-block-id="0003" data-name="b-0006" /><text x="3935" y="1582" text-anchor="middle" dominant-baseline="middle" class="block-label" fill="rgb(74,202,87)" stroke="white" stroke-width="3" paint-order="stroke">b-0006</text><polygon points="1229,890 1228,891 1192,891 1191,892 1184,892 1183,891 1124,891 1123,892 999,892 998,893 952,893 951,894 879,894 878,893 859,893 858,894 798,894 797,895 775,895 774,894 767,894 766,895 717,895 716,894 706,894 705,895 664,895 663,896 659,896 658,897 657,897 656,898 655,898 653,900 653,904 652,905 652,928 653,929 653,965 652,966 652,977 653,978 653,987 652,988 652,996 651,997 652,998 652,1008 653,1009 652,1010 652,1054 651,1055 651,1064 650,1065 650,1067 651,1068 651,1073 652,1074 652,1076 653,1077 653,1085 652,1086 652,1117 653,1118 653,1136 652,1137 652,1143 651,1144 651,1182 650,1183 650,1208 651,1209 651,1214 650,1215 650,1243 649,1244 649,1263 650,1264 650,1269 651,1270 651,1271 652,1272 653,1272 654,1273 656,1273 657,1274 659,1274 660,1275 669,1275 670,1276 706,1276 707,1277 729,1277 730,1278 761,1278 762,1277 769,1277 770,1276 804,1276 805,1277 822,1277 823,1278 831,1278 832,1277 845,1277 846,1276 858,1276 859,1277 934,1277 935,1276 956,1276 957,1275 965,1275 966,1276 977,1276 978,1275 986,1275 987,1276 993,1276 994,1277 1014,1277 1015,1278 1024,1278 1025,1277 1036,1277 1037,1278 1072,1278 1073,1277 1079,1277 1080,1276 1090,1276 1091,1275 1099,1275 1100,1274 1120,1274 1121,1275 1129,1275 1130,1276 1134,1276 1135,1277 1142,1277 1143,1278 1184,1278 1185,1279 1188,1279 1189,1278 1258,1278 1259,1277 1266,1277 1267,1278 1333,1278 1334,1279 1347,1279 1348,1278 1352,1278 1353,1277 1357,1277 1358,1276 1364,1276 1365,1275 1385,1275 1386,1276 1408,1276 1409,1277 1422,1277 1423,1278 1425,1278 1426,1277 1429,1277 1430,1276 1433,1276 1434,1275 1462,1275 1463,1276 1472,1276 1473,1277 1478,1277 1479,1276 1486,1276 1487,1277 1497,1277 1498,1278 1516,1278 1517,1279 1530,1279 1531,1280 1550,1280 1551,1279 1608,1279 1609,1280 1622,1280 1623,1281 1638,1281 1639,1280 1689,1280 1690,1279 1700,1279 1701,1278 1702,1278 1703,1279 1768,1279 1769,1280 1801,1280 1802,1281 1810,1281 1811,1280 1836,1280 1837,1279 1857,1279 1858,1278 1860,1278 1861,1277 1862,1277 1865,1274 1865,1273 1866,1272 1866,1270 1867,1269 1867,1263 1868,1262 1868,1251 1869,1250 1869,1243 1868,1242 1868,1209 1869,1208 1869,1167 1868,1166 1868,1159 1869,1158 1869,1129 1870,1128 1870,1108 1871,1107 1871,1091 1870,1090 1870,1085 1869,1084 1869,1057 1870,1056 1870,980 1869,979 1869,957 1868,956 1868,951 1867,950 1867,933 1866,932 1866,927 1865,926 1865,920 1866,919 1866,901 1865,900 1865,899 1864,899 1863,898 1862,898 1861,897 1858,897 1857,896 1850,896 1849,895 1834,895 1833,896 1814,896 1813,895 1788,895 1787,896 1784,896 1783,895 1776,895 1775,894 1763,894 1762,893 1749,893 1748,894 1734,894 1733,895 1715,895 1714,896 1711,896 1710,895 1708,895 1707,894 1705,894 1704,893 1700,893 1699,892 1696,892 1695,893 1653,893 1652,894 1646,894 1645,895 1637,895 1636,894 1610,894 1609,893 1583,893 1582,894 1581,893 1574,893 1573,892 1556,892 1555,893 1514,893 1513,892 1507,892 1506,893 1501,893 1500,894 1455,894 1454,895 1446,895 1445,894 1441,894 1440,893 1398,893 1397,892 1392,892 1391,891 1365,891 1364,892 1344,892 1343,891 1326,891 1325,892 1311,892 1310,893 1299,893 1298,892 1287,892 1286,891 1265,891 1264,890" fill="rgba(116,99,103,0.3)" stroke="rgb(116,99,103)" stroke-width="2" data-block-id="0004" data-name="b-0007" /><text x="1285" y="1096" text-anchor="middle" dominant-baseline="middle" class="block-label" fill="rgb(116,99,103)" stroke="white" stroke-width="3" paint-order="stroke">b-0007</text><polygon points="1505,384 1504,385 1502,385 1501,386 1483,386 1482,387 1480,387 1479,388 1477,388 1476,389 1468,389 1467,388 1453,388 1452,389 1420,389 1419,388 1381,388 1380,389 1375,389 1374,388 1363,388 1362,389 1358,389 1357,390 1334,390 1333,391 1324,391 1323,390 1296,390 1295,389 1292,389 1291,390 1275,390 1274,389 1269,389 1268,390 1263,390 1262,391 1255,391 1254,390 1248,390 1247,389 1240,389 1239,388 1233,388 1232,389 1230,389 1229,390 1226,390 1225,391 1222,391 1221,392 1218,392 1217,393 1213,393 1212,394 1208,394 1207,393 1169,393 1168,392 1156,392 1155,391 1148,391 1147,392 1139,392 1138,393 1137,392 1128,392 1127,391 1122,391 1121,390 1109,390 1108,391 1102,391 1101,392 1087,392 1086,391 1079,391 1078,390 1071,390 1070,391 1069,391 1068,390 1064,390 1063,389 1062,389 1061,388 1059,388 1058,387 1055,387 1054,386 1052,386 1051,387 1031,387 1030,388 1022,388 1021,389 1020,388 1012,388 1011,387 1003,387 1002,388 995,388 994,389 988,389 987,390 983,390 982,391 980,391 979,392 977,392 976,393 972,393 971,394 969,394 968,393 926,393 925,392 915,392 914,391 911,391 910,392 901,392 900,393 895,393 894,394 880,394 879,393 871,393 870,394 863,394 862,393 857,393 856,392 846,392 845,391 826,391 825,392 821,392 820,393 815,393 814,392 812,392 811,391 809,391 808,390 791,390 790,389 775,389 774,388 768,388 767,389 760,389 759,390 750,390 749,391 725,391 724,392 720,392 719,391 702,391 701,390 675,390 674,391 670,391 669,392 664,392 663,393 651,393 650,394 649,394 647,396 647,397 646,398 646,400 645,401 645,417 644,418 644,434 645,435 645,457 646,458 646,464 647,465 647,467 648,468 648,478 647,479 647,487 648,488 648,497 649,498 649,507 650,508 649,509 649,520 650,521 650,523 651,524 651,527 652,528 652,530 653,531 653,536 654,537 654,547 655,548 655,562 654,563 654,570 655,571 655,588 654,589 654,597 653,598 653,611 654,612 654,621 655,622 655,635 656,636 656,671 657,672 657,675 656,676 656,701 655,702 655,723 654,724 654,731 653,732 653,735 654,736 654,743 655,744 655,746 654,747 654,758 655,759 655,760 656,761 657,761 660,764 662,764 663,765 665,765 666,766 669,766 670,767 672,767 673,768 688,768 689,769 708,769 709,768 721,768 722,769 749,769 750,768 756,768 757,769 760,769 761,770 764,770 765,771 858,771 859,770 871,770 872,771 880,771 881,770 887,770 888,769 901,769 902,770 903,770 904,771 906,771 907,772 909,772 910,773 929,773 930,774 933,774 934,775 940,775 941,774 955,774 956,773 967,773 968,772 977,772 978,773 992,773 993,772 1006,772 1007,773 1011,773 1012,774 1013,774 1014,775 1015,775 1016,776 1017,776 1019,778 1020,778 1021,779 1032,779 1033,778 1034,778 1036,776 1037,776 1038,775 1040,775 1041,774 1047,774 1048,773 1057,773 1058,774 1065,774 1066,775 1088,775 1089,774 1099,774 1100,775 1104,775 1105,776 1106,776 1107,777 1109,777 1110,778 1111,778 1112,779 1120,779 1121,778 1122,778 1123,777 1124,777 1125,776 1127,776 1128,775 1131,775 1132,774 1145,774 1146,775 1153,775 1154,776 1161,776 1162,777 1163,777 1164,776 1169,776 1170,775 1176,775 1177,774 1186,774 1187,773 1194,773 1195,774 1200,774 1201,773 1214,773 1215,772 1219,772 1220,771 1229,771 1230,772 1238,772 1239,771 1261,771 1262,772 1276,772 1277,773 1310,773 1311,774 1325,774 1326,775 1333,775 1334,776 1337,776 1338,777 1340,777 1341,778 1346,778 1347,777 1359,777 1360,776 1365,776 1366,777 1376,777 1377,778 1380,778 1381,779 1382,779 1383,780 1385,780 1386,781 1388,781 1389,782 1390,781 1392,781 1393,780 1394,780 1395,779 1396,779 1397,778 1398,778 1400,776 1402,776 1403,775 1406,775 1407,774 1411,774 1412,773 1433,773 1434,772 1451,772 1452,773 1476,773 1477,774 1491,774 1492,773 1503,773 1504,774 1512,774 1513,773 1525,773 1526,774 1529,774 1530,775 1541,775 1542,774 1549,774 1550,773 1558,773 1559,772 1561,772 1562,771 1564,771 1565,770 1566,770 1567,769 1570,769 1571,770 1572,770 1573,771 1575,771 1576,772 1581,772 1582,773 1653,773 1654,774 1666,774 1667,773 1698,773 1699,774 1717,774 1718,775 1724,775 1725,776 1733,776 1734,777 1744,777 1745,776 1756,776 1757,775 1764,775 1765,774 1772,774 1773,773 1774,774 1779,774 1780,775 1783,775 1784,776 1789,776 1790,777 1797,777 1798,776 1800,776 1801,775 1803,775 1804,774 1807,774 1808,773 1809,773 1810,774 1849,774 1850,775 1856,775 1857,774 1859,774 1860,773 1861,773 1862,772 1863,772 1864,771 1865,771 1866,770 1866,769 1867,768 1867,767 1868,766 1868,762 1869,761 1869,753 1868,752 1868,737 1869,736 1869,730 1868,729 1868,716 1869,715 1869,705 1868,704 1868,693 1869,692 1869,686 1870,685 1870,682 1869,681 1869,670 1868,669 1868,661 1867,660 1867,658 1868,657 1868,643 1869,642 1869,633 1868,632 1868,615 1867,614 1867,591 1868,590 1868,562 1867,561 1867,552 1868,551 1868,548 1869,547 1869,542 1870,541 1870,540 1869,539 1869,518 1868,517 1868,499 1869,498 1869,490 1868,489 1868,479 1869,478 1869,440 1868,439 1868,433 1869,432 1869,419 1868,418 1868,398 1863,393 1862,393 1861,392 1859,392 1858,391 1855,391 1854,390 1843,390 1842,389 1833,389 1832,388 1825,388 1824,387 1797,387 1796,388 1792,388 1791,389 1788,389 1787,390 1776,390 1775,389 1771,389 1770,390 1767,390 1766,391 1763,391 1762,392 1760,392 1759,393 1723,393 1722,392 1717,392 1716,391 1710,391 1709,390 1674,390 1673,389 1666,389 1665,388 1646,388 1645,389 1610,389 1609,390 1603,390 1602,391 1599,391 1598,392 1595,392 1594,393 1569,393 1568,392 1567,392 1564,389 1563,389 1562,388 1560,388 1559,387 1517,387 1516,386 1514,386 1513,385 1512,385 1511,384" fill="rgba(151,130,149,0.3)" stroke="rgb(151,130,149)" stroke-width="2" data-block-id="0005" data-name="b-0008" /><text x="1251" y="591" text-anchor="middle" dominant-baseline="middle" class="block-label" fill="rgb(151,130,149)" stroke="white" stroke-width="3" paint-order="stroke">b-0008</text><polygon points="3417,907 3416,908 3362,908 3361,909 3355,909 3354,910 3351,910 3350,911 3349,911 3346,914 3346,923 3345,924 3345,931 3344,932 3344,939 3343,940 3343,946 3342,947 3343,948 3343,952 3344,953 3344,956 3345,957 3345,979 3344,980 3344,1069 3343,1070 3343,1073 3342,1074 3342,1077 3341,1078 3341,1082 3342,1083 3342,1090 3343,1091 3343,1095 3344,1096 3344,1104 3345,1105 3345,1131 3344,1132 3344,1145 3345,1146 3345,1153 3346,1154 3346,1156 3347,1157 3347,1159 3348,1160 3348,1166 3347,1167 3347,1170 3346,1171 3346,1173 3345,1174 3345,1241 3346,1242 3346,1256 3347,1257 3347,1260 3346,1261 3346,1271 3347,1272 3347,1274 3348,1275 3348,1276 3349,1277 3349,1278 3350,1279 3350,1280 3354,1284 3355,1284 3356,1285 3358,1285 3359,1286 3363,1286 3364,1287 3377,1287 3378,1286 3395,1286 3396,1287 3408,1287 3409,1288 3425,1288 3426,1287 3430,1287 3431,1286 3482,1286 3483,1287 3515,1287 3516,1286 3544,1286 3545,1287 3560,1287 3561,1286 3568,1286 3569,1287 3574,1287 3575,1288 3621,1288 3622,1287 3646,1287 3647,1288 3673,1288 3674,1289 3699,1289 3700,1288 3743,1288 3744,1287 3748,1287 3749,1288 3766,1288 3767,1289 3772,1289 3773,1288 3789,1288 3790,1289 3794,1289 3795,1288 3832,1288 3833,1289 3842,1289 3843,1290 3865,1290 3866,1289 3872,1289 3873,1288 3886,1288 3887,1289 3911,1289 3912,1288 3922,1288 3923,1289 3935,1289 3936,1290 3943,1290 3944,1291 3954,1291 3955,1290 3965,1290 3966,1289 3973,1289 3974,1290 3978,1290 3979,1291 3994,1291 3995,1292 4008,1292 4009,1291 4019,1291 4020,1290 4021,1291 4037,1291 4038,1292 4053,1292 4054,1291 4059,1291 4060,1290 4064,1290 4065,1289 4068,1289 4069,1290 4074,1290 4075,1291 4093,1291 4094,1292 4100,1292 4101,1293 4104,1293 4105,1292 4112,1292 4113,1291 4116,1291 4117,1292 4135,1292 4136,1293 4137,1293 4138,1292 4144,1292 4145,1291 4157,1291 4158,1290 4162,1290 4163,1291 4171,1291 4172,1292 4194,1292 4195,1293 4201,1293 4202,1292 4211,1292 4212,1291 4246,1291 4247,1290 4259,1290 4260,1291 4267,1291 4268,1292 4294,1292 4295,1293 4307,1293 4308,1294 4326,1294 4327,1293 4371,1293 4372,1294 4380,1294 4381,1293 4404,1293 4405,1294 4410,1294 4411,1295 4441,1295 4442,1294 4475,1294 4476,1295 4494,1295 4495,1294 4499,1294 4500,1293 4504,1293 4505,1292 4529,1292 4530,1293 4531,1293 4532,1292 4539,1292 4540,1291 4546,1291 4547,1292 4552,1292 4553,1293 4560,1293 4561,1292 4566,1292 4567,1291 4568,1291 4572,1287 4572,1286 4574,1284 4574,1282 4575,1281 4575,1261 4576,1260 4576,1216 4577,1215 4577,1206 4576,1205 4576,1170 4577,1169 4577,1142 4576,1141 4576,1125 4577,1124 4577,1089 4576,1088 4576,1078 4577,1077 4577,1070 4578,1069 4578,1065 4577,1064 4577,1050 4576,1049 4576,1025 4577,1024 4577,1012 4576,1011 4576,1004 4577,1003 4577,991 4576,990 4576,956 4577,955 4577,933 4576,932 4576,926 4575,925 4575,923 4572,920 4571,920 4569,918 4556,918 4555,919 4543,919 4542,918 4533,918 4532,917 4530,917 4529,918 4492,918 4491,917 4477,917 4476,918 4469,918 4468,917 4460,917 4459,916 4458,917 4442,917 4441,916 4431,916 4430,917 4409,917 4408,916 4375,916 4374,915 4367,915 4366,914 4363,914 4362,915 4349,915 4348,914 4345,914 4344,913 4339,913 4338,914 4336,914 4335,915 4334,915 4333,916 4331,916 4330,917 4329,917 4328,916 4326,916 4325,915 4324,915 4323,914 4322,914 4321,913 4319,913 4318,912 4312,912 4311,913 4278,913 4277,912 4261,912 4260,913 4251,913 4250,912 4227,912 4226,911 4217,911 4216,912 4193,912 4192,913 4188,913 4187,914 4169,914 4168,915 4159,915 4158,914 4156,914 4155,913 4153,913 4152,912 4145,912 4144,913 4130,913 4129,912 4088,912 4087,911 4073,911 4072,912 4068,912 4067,913 4060,913 4059,912 4054,912 4053,913 4045,913 4044,914 4041,914 4040,913 4033,913 4032,912 4027,912 4026,913 4018,913 4017,912 4015,912 4014,911 4012,911 4011,910 4009,910 4008,909 4006,909 4005,910 4003,910 4002,911 4000,911 3999,912 3996,912 3995,913 3992,913 3991,912 3986,912 3985,911 3978,911 3977,912 3966,912 3965,911 3955,911 3954,912 3920,912 3919,911 3905,911 3904,912 3893,912 3892,911 3868,911 3867,910 3855,910 3854,911 3851,911 3850,910 3834,910 3833,911 3824,911 3823,910 3810,910 3809,911 3797,911 3796,910 3763,910 3762,911 3756,911 3755,912 3726,912 3725,911 3690,911 3689,910 3662,910 3661,909 3646,909 3645,908 3585,908 3584,909 3574,909 3573,908 3537,908 3536,909 3519,909 3518,908 3496,908 3495,909 3493,909 3492,908 3483,908 3482,907 3474,907 3473,908 3427,908 3426,907" fill="rgba(52,1,87,0.3)" stroke="rgb(52,1,87)" stroke-width="2" data-block-id="0006" data-name="b-0009" /><text x="3984" y="1094" text-anchor="middle" dominant-baseline="middle" class="block-label" fill="rgb(52,1,87)" stroke="white" stroke-width="3" paint-order="stroke">b-0009</text><polygon points="955,1391 954,1392 930,1392 929,1393 910,1393 909,1394 904,1394 903,1395 886,1395 885,1394 860,1394 859,1393 855,1393 854,1392 852,1392 851,1393 832,1393 831,1392 799,1392 798,1393 790,1393 789,1394 725,1394 724,1393 707,1393 706,1394 703,1394 702,1395 693,1395 692,1394 676,1394 675,1395 668,1395 667,1396 660,1396 659,1397 655,1397 654,1398 652,1398 649,1401 649,1402 648,1403 648,1405 647,1406 647,1415 648,1416 648,1433 649,1434 649,1494 650,1495 650,1502 651,1503 651,1511 652,1512 652,1517 653,1518 653,1520 654,1521 654,1523 655,1524 655,1542 656,1543 656,1545 657,1546 657,1548 658,1549 658,1554 657,1555 657,1558 656,1559 656,1561 655,1562 655,1565 654,1566 654,1613 653,1614 653,1638 652,1639 652,1652 651,1653 651,1667 652,1668 652,1709 653,1710 653,1726 654,1727 654,1741 653,1742 653,1748 652,1749 652,1755 653,1756 653,1757 655,1759 655,1760 658,1763 658,1764 659,1765 660,1765 662,1767 663,1767 664,1768 665,1768 666,1769 669,1769 670,1770 673,1770 674,1771 677,1771 678,1772 683,1772 684,1773 689,1773 690,1772 702,1772 703,1773 707,1773 708,1774 716,1774 717,1773 731,1773 732,1772 739,1772 740,1771 750,1771 751,1772 759,1772 760,1773 776,1773 777,1774 784,1774 785,1773 797,1773 798,1774 822,1774 823,1775 833,1775 834,1774 839,1774 840,1773 846,1773 847,1774 857,1774 858,1773 869,1773 870,1774 882,1774 883,1773 890,1773 891,1774 894,1774 895,1775 916,1775 917,1774 935,1774 936,1775 943,1775 944,1776 971,1776 972,1775 1014,1775 1015,1776 1024,1776 1025,1775 1063,1775 1064,1776 1070,1776 1071,1775 1101,1775 1102,1774 1108,1774 1109,1775 1139,1775 1140,1774 1171,1774 1172,1775 1195,1775 1196,1776 1198,1776 1199,1775 1239,1775 1240,1774 1247,1774 1248,1773 1249,1774 1255,1774 1256,1775 1278,1775 1279,1776 1284,1776 1285,1775 1302,1775 1303,1776 1309,1776 1310,1775 1328,1775 1329,1776 1358,1776 1359,1775 1428,1775 1429,1776 1443,1776 1444,1775 1451,1775 1452,1774 1523,1774 1524,1775 1530,1775 1531,1776 1537,1776 1538,1775 1577,1775 1578,1776 1590,1776 1591,1775 1594,1775 1595,1776 1626,1776 1627,1777 1628,1776 1635,1776 1636,1775 1655,1775 1656,1774 1669,1774 1670,1775 1691,1775 1692,1776 1696,1776 1697,1777 1727,1777 1728,1776 1768,1776 1769,1775 1779,1775 1780,1776 1801,1776 1802,1775 1817,1775 1818,1776 1855,1776 1856,1775 1861,1775 1862,1774 1865,1774 1866,1773 1867,1773 1869,1771 1870,1771 1870,1770 1872,1768 1872,1767 1873,1766 1873,1748 1872,1747 1872,1736 1871,1735 1871,1713 1870,1712 1870,1697 1869,1696 1870,1695 1870,1690 1871,1689 1871,1685 1872,1684 1872,1676 1873,1675 1873,1668 1872,1667 1872,1655 1871,1654 1871,1644 1872,1643 1872,1626 1873,1625 1873,1592 1872,1591 1872,1556 1873,1555 1873,1521 1874,1520 1874,1476 1875,1475 1875,1445 1876,1444 1876,1409 1875,1408 1875,1406 1869,1400 1867,1400 1866,1399 1861,1399 1860,1398 1823,1398 1822,1397 1813,1397 1812,1398 1783,1398 1782,1399 1775,1399 1774,1400 1772,1400 1771,1399 1767,1399 1766,1398 1762,1398 1761,1397 1753,1397 1752,1396 1747,1396 1746,1397 1741,1397 1740,1398 1719,1398 1718,1399 1710,1399 1709,1398 1704,1398 1703,1397 1697,1397 1696,1398 1692,1398 1691,1399 1687,1399 1686,1398 1685,1398 1684,1397 1682,1397 1681,1396 1679,1396 1678,1395 1674,1395 1673,1396 1669,1396 1668,1397 1665,1397 1664,1398 1660,1398 1659,1397 1649,1397 1648,1396 1633,1396 1632,1395 1620,1395 1619,1396 1618,1396 1617,1395 1612,1395 1611,1394 1608,1394 1607,1393 1602,1393 1601,1394 1598,1394 1597,1395 1595,1395 1594,1396 1573,1396 1572,1395 1559,1395 1558,1396 1550,1396 1549,1397 1543,1397 1542,1396 1540,1396 1539,1395 1537,1395 1536,1394 1528,1394 1527,1395 1524,1395 1523,1396 1515,1396 1514,1395 1478,1395 1477,1396 1447,1396 1446,1395 1441,1395 1440,1394 1428,1394 1427,1395 1384,1395 1383,1394 1379,1394 1378,1393 1372,1393 1371,1394 1356,1394 1355,1393 1331,1393 1330,1394 1296,1394 1295,1393 1286,1393 1285,1392 1283,1392 1282,1393 1277,1393 1276,1394 1254,1394 1253,1393 1245,1393 1244,1394 1239,1394 1238,1395 1227,1395 1226,1394 1218,1394 1217,1395 1207,1395 1206,1394 1198,1394 1197,1393 1188,1393 1187,1394 1164,1394 1163,1393 1148,1393 1147,1394 1142,1394 1141,1395 1135,1395 1134,1394 1121,1394 1120,1395 1113,1395 1112,1394 1106,1394 1105,1393 1102,1393 1101,1394 1095,1394 1094,1395 1071,1395 1070,1394 1059,1394 1058,1395 1042,1395 1041,1396 1031,1396 1030,1395 1024,1395 1023,1394 1017,1394 1016,1395 987,1395 986,1396 985,1396 984,1395 980,1395 979,1394 977,1394 976,1393 973,1393 972,1392 965,1392 964,1391" fill="rgba(235,157,37,0.3)" stroke="rgb(235,157,37)" stroke-width="2" data-block-id="0007" data-name="b-0010" /><text x="1234" y="1564" text-anchor="middle" dominant-baseline="middle" class="block-label" fill="rgb(235,157,37)" stroke="white" stroke-width="3" paint-order="stroke">b-0010</text><polygon points="2153,390 2152,391 2145,391 2144,392 2127,392 2126,391 2101,391 2100,392 2071,392 2070,393 2069,393 2068,394 2067,394 2066,395 2066,396 2064,398 2064,402 2063,403 2063,418 2062,419 2062,425 2063,426 2063,432 2064,433 2064,466 2063,467 2063,532 2062,533 2062,572 2061,573 2061,595 2062,596 2062,608 2061,609 2061,649 2060,650 2060,675 2061,676 2061,683 2062,684 2062,700 2061,701 2061,747 2060,748 2060,759 2061,760 2061,763 2062,764 2062,767 2063,768 2063,769 2064,770 2064,771 2065,772 2066,772 2068,774 2069,774 2070,775 2072,775 2073,776 2078,776 2079,777 2139,777 2140,776 2178,776 2179,777 2191,777 2192,778 2196,778 2197,779 2199,779 2200,780 2202,780 2203,781 2211,781 2212,780 2222,780 2223,781 2230,781 2231,780 2233,780 2234,779 2237,779 2238,778 2245,778 2246,779 2260,779 2261,778 2268,778 2269,779 2275,779 2276,780 2280,780 2281,779 2318,779 2319,780 2331,780 2332,779 2341,779 2342,780 2345,780 2346,781 2375,781 2376,780 2412,780 2413,781 2423,781 2424,782 2455,782 2456,781 2481,781 2482,782 2486,782 2487,783 2515,783 2516,784 2522,784 2523,785 2544,785 2545,786 2559,786 2560,785 2564,785 2565,786 2574,786 2575,787 2595,787 2596,788 2602,788 2603,789 2634,789 2635,788 2638,788 2639,789 2660,789 2661,788 2672,788 2673,787 2682,787 2683,786 2687,786 2688,785 2693,785 2694,784 2700,784 2701,785 2710,785 2711,784 2731,784 2732,785 2751,785 2752,784 2755,784 2756,785 2764,785 2765,786 2772,786 2773,787 2805,787 2806,786 2810,786 2811,785 2821,785 2822,786 2829,786 2830,785 2863,785 2864,786 2884,786 2885,787 2899,787 2900,786 2905,786 2906,785 2915,785 2916,786 2929,786 2930,785 2949,785 2950,786 2964,786 2965,787 2975,787 2976,786 2983,786 2984,787 3001,787 3002,786 3043,786 3044,787 3057,787 3058,786 3063,786 3064,785 3076,785 3077,786 3100,786 3101,787 3168,787 3169,788 3173,788 3174,787 3182,787 3183,786 3184,786 3189,781 3189,779 3190,778 3190,775 3191,774 3191,762 3192,761 3192,693 3193,692 3193,654 3192,653 3192,647 3193,646 3193,628 3192,627 3192,624 3193,623 3193,518 3194,517 3194,496 3195,495 3195,490 3194,489 3194,480 3195,479 3195,454 3196,453 3196,440 3195,439 3195,410 3194,409 3194,407 3193,406 3193,405 3192,404 3192,403 3191,402 3190,402 3189,401 3188,401 3187,400 3163,400 3162,399 3141,399 3140,400 3120,400 3119,399 3104,399 3103,398 3095,398 3094,399 3085,399 3084,398 3068,398 3067,399 3061,399 3060,398 3048,398 3047,399 3043,399 3042,400 3036,400 3035,399 3020,399 3019,400 2963,400 2962,399 2951,399 2950,400 2937,400 2936,399 2929,399 2928,400 2883,400 2882,399 2876,399 2875,398 2853,398 2852,399 2843,399 2842,398 2834,398 2833,399 2792,399 2791,398 2738,398 2737,399 2709,399 2708,400 2702,400 2701,399 2680,399 2679,400 2651,400 2650,401 2643,401 2642,402 2629,402 2628,403 2604,403 2603,404 2599,404 2598,405 2574,405 2573,404 2568,404 2567,403 2550,403 2549,402 2543,402 2542,401 2526,401 2525,400 2521,400 2520,399 2515,399 2514,398 2513,398 2512,399 2503,399 2502,398 2499,398 2498,397 2494,397 2493,396 2464,396 2463,395 2388,395 2387,396 2381,396 2380,395 2363,395 2362,396 2357,396 2356,395 2340,395 2339,396 2335,396 2334,395 2283,395 2282,394 2272,394 2271,395 2263,395 2262,394 2255,394 2254,393 2243,393 2242,392 2190,392 2189,391 2185,391 2184,390" fill="rgba(129,191,187,0.3)" stroke="rgb(129,191,187)" stroke-width="2" data-block-id="0008" data-name="b-0011" /><text x="2611" y="600" text-anchor="middle" dominant-baseline="middle" class="block-label" fill="rgb(129,191,187)" stroke="white" stroke-width="3" paint-order="stroke">b-0011</text><polygon points="1159,2355 1158,2356 1146,2356 1145,2357 1133,2357 1132,2356 1125,2356 1124,2357 1117,2357 1116,2358 1113,2358 1112,2357 1082,2357 1081,2358 1078,2358 1077,2357 1061,2357 1060,2356 1054,2356 1053,2357 1026,2357 1025,2358 1003,2358 1002,2357 990,2357 989,2358 976,2358 975,2357 954,2357 953,2356 945,2356 944,2357 915,2357 914,2358 910,2358 909,2357 896,2357 895,2358 870,2358 869,2359 836,2359 835,2358 754,2358 753,2359 748,2359 747,2360 744,2360 743,2359 736,2359 735,2358 670,2358 669,2357 656,2357 655,2358 651,2358 650,2359 649,2359 646,2362 646,2363 645,2364 645,2376 644,2377 644,2387 643,2388 643,2433 642,2434 642,2472 643,2473 643,2477 644,2478 644,2482 645,2483 645,2489 646,2490 646,2498 647,2499 647,2529 648,2530 648,2546 647,2547 647,2554 646,2555 646,2559 645,2560 645,2563 644,2564 644,2569 643,2570 643,2602 642,2603 642,2604 643,2605 643,2619 642,2620 642,2635 643,2636 643,2638 642,2639 642,2651 641,2652 641,2687 642,2688 642,2696 643,2697 643,2699 647,2703 648,2703 649,2704 652,2704 653,2705 659,2705 660,2706 668,2706 669,2707 684,2707 685,2708 687,2708 688,2707 701,2707 702,2708 707,2708 708,2709 711,2709 712,2708 717,2708 718,2707 727,2707 728,2708 731,2708 732,2709 782,2709 783,2708 795,2708 796,2709 798,2709 799,2710 800,2710 801,2711 802,2711 803,2712 822,2712 823,2713 830,2713 831,2712 832,2712 833,2711 834,2711 835,2710 836,2710 837,2709 838,2709 839,2708 845,2708 846,2709 849,2709 850,2710 870,2710 871,2711 881,2711 882,2710 885,2710 886,2709 890,2709 891,2710 893,2710 894,2711 895,2711 896,2712 897,2712 898,2713 899,2713 900,2714 906,2714 907,2713 924,2713 925,2712 927,2712 928,2711 929,2711 930,2710 932,2710 933,2709 941,2709 942,2710 969,2710 970,2711 976,2711 977,2712 979,2712 980,2713 981,2713 982,2714 983,2714 984,2715 985,2715 986,2716 989,2716 990,2717 999,2717 1000,2716 1003,2716 1004,2715 1008,2715 1009,2714 1012,2714 1013,2713 1017,2713 1018,2712 1023,2712 1024,2711 1029,2711 1030,2710 1034,2710 1035,2711 1062,2711 1063,2712 1073,2712 1074,2711 1086,2711 1087,2712 1106,2712 1107,2711 1119,2711 1120,2710 1134,2710 1135,2711 1147,2711 1148,2710 1155,2710 1156,2711 1170,2711 1171,2712 1195,2712 1196,2711 1203,2711 1204,2712 1213,2712 1214,2711 1215,2711 1216,2710 1219,2710 1220,2709 1228,2709 1229,2710 1239,2710 1240,2711 1245,2711 1246,2712 1248,2712 1249,2713 1250,2713 1252,2715 1253,2715 1257,2719 1258,2719 1259,2720 1270,2720 1271,2719 1281,2719 1283,2717 1284,2717 1288,2713 1289,2713 1290,2712 1291,2712 1292,2711 1301,2711 1302,2712 1310,2712 1311,2711 1314,2711 1315,2710 1322,2710 1323,2711 1324,2711 1325,2712 1328,2712 1329,2713 1346,2713 1347,2712 1353,2712 1354,2711 1358,2711 1359,2710 1364,2710 1365,2709 1368,2709 1369,2710 1378,2710 1379,2711 1392,2711 1393,2712 1397,2712 1398,2713 1399,2713 1400,2714 1402,2714 1403,2715 1404,2715 1405,2716 1407,2716 1408,2717 1410,2717 1411,2718 1413,2718 1414,2719 1426,2719 1428,2717 1429,2717 1433,2713 1434,2713 1436,2711 1437,2711 1438,2710 1440,2710 1441,2711 1452,2711 1453,2710 1458,2710 1459,2709 1466,2709 1467,2710 1474,2710 1475,2711 1484,2711 1485,2712 1493,2712 1494,2713 1498,2713 1499,2714 1502,2714 1503,2715 1506,2715 1507,2716 1510,2716 1511,2717 1521,2717 1523,2715 1524,2715 1527,2712 1528,2712 1529,2711 1530,2711 1531,2710 1538,2710 1539,2711 1548,2711 1549,2710 1569,2710 1570,2711 1571,2710 1587,2710 1588,2711 1606,2711 1607,2712 1611,2712 1612,2713 1618,2713 1619,2712 1622,2712 1623,2711 1634,2711 1635,2710 1657,2710 1658,2711 1672,2711 1673,2710 1691,2710 1692,2711 1696,2711 1697,2712 1720,2712 1721,2711 1731,2711 1732,2710 1744,2710 1745,2709 1762,2709 1763,2710 1766,2710 1767,2711 1772,2711 1773,2712 1774,2711 1787,2711 1788,2710 1812,2710 1813,2709 1817,2709 1818,2708 1824,2708 1825,2709 1850,2709 1851,2710 1854,2710 1855,2709 1858,2709 1859,2708 1861,2708 1862,2707 1863,2707 1864,2706 1865,2706 1868,2703 1868,2702 1870,2700 1870,2699 1871,2698 1871,2695 1872,2694 1872,2689 1873,2688 1873,2682 1872,2681 1872,2671 1871,2670 1871,2615 1872,2614 1872,2595 1871,2594 1871,2569 1872,2568 1872,2562 1871,2561 1871,2501 1870,2500 1870,2461 1869,2460 1869,2434 1868,2433 1869,2432 1869,2421 1868,2420 1868,2404 1869,2403 1869,2372 1868,2371 1868,2365 1867,2364 1867,2363 1866,2362 1866,2361 1865,2361 1863,2359 1862,2359 1861,2358 1859,2358 1858,2357 1816,2357 1815,2358 1803,2358 1802,2357 1799,2357 1798,2356 1788,2356 1787,2357 1756,2357 1755,2356 1739,2356 1738,2357 1737,2357 1736,2356 1729,2356 1728,2355 1675,2355 1674,2356 1649,2356 1648,2357 1638,2357 1637,2356 1631,2356 1630,2355 1623,2355 1622,2356 1600,2356 1599,2355 1590,2355 1589,2356 1546,2356 1545,2355 1530,2355 1529,2356 1446,2356 1445,2355 1433,2355 1432,2356 1425,2356 1424,2357 1423,2356 1407,2356 1406,2357 1358,2357 1357,2356 1347,2356 1346,2355 1336,2355 1335,2356 1312,2356 1311,2355 1294,2355 1293,2356 1262,2356 1261,2355 1241,2355 1240,2356 1213,2356 1212,2355 1194,2355 1193,2356 1185,2356 1184,2357 1172,2357 1171,2356 1165,2356 1164,2355" fill="rgba(20,160,203,0.3)" stroke="rgb(20,160,203)" stroke-width="2" data-block-id="0009" data-name="b-0012" /><text x="1237" y="2592" text-anchor="middle" dominant-baseline="middle" class="block-label" fill="rgb(20,160,203)" stroke="white" stroke-width="3" paint-order="stroke">b-0012</text><polygon points="2155,895 2154,896 2149,896 2148,897 2144,897 2143,898 2114,898 2113,897 2104,897 2103,898 2071,898 2070,899 2067,899 2066,900 2065,900 2064,901 2063,901 2062,902 2062,905 2061,906 2061,912 2060,913 2060,922 2059,923 2059,927 2060,928 2060,956 2061,957 2061,979 2062,980 2062,992 2061,993 2061,997 2062,998 2062,1005 2063,1006 2063,1011 2062,1012 2062,1035 2061,1036 2061,1041 2060,1042 2060,1045 2061,1046 2061,1053 2062,1054 2062,1059 2061,1060 2061,1084 2062,1085 2062,1107 2061,1108 2061,1155 2060,1156 2060,1190 2061,1191 2061,1261 2062,1262 2062,1265 2063,1266 2063,1269 2064,1270 2064,1272 2065,1273 2065,1274 2066,1275 2066,1276 2069,1279 2070,1279 2071,1280 2073,1280 2074,1281 2080,1281 2081,1282 2089,1282 2090,1281 2108,1281 2109,1282 2133,1282 2134,1283 2159,1283 2160,1284 2171,1284 2172,1283 2181,1283 2182,1282 2189,1282 2190,1281 2196,1281 2197,1282 2204,1282 2205,1283 2214,1283 2215,1282 2216,1283 2233,1283 2234,1282 2239,1282 2240,1281 2243,1281 2244,1282 2292,1282 2293,1283 2298,1283 2299,1284 2304,1284 2305,1283 2330,1283 2331,1282 2345,1282 2346,1283 2369,1283 2370,1284 2373,1284 2374,1283 2387,1283 2388,1284 2391,1284 2392,1285 2400,1285 2401,1284 2420,1284 2421,1283 2440,1283 2441,1284 2461,1284 2462,1283 2474,1283 2475,1284 2488,1284 2489,1285 2511,1285 2512,1284 2532,1284 2533,1285 2557,1285 2558,1286 2601,1286 2602,1287 2644,1287 2645,1288 2654,1288 2655,1289 2662,1289 2663,1288 2674,1288 2675,1287 2682,1287 2683,1286 2766,1286 2767,1285 2774,1285 2775,1284 2782,1284 2783,1285 2795,1285 2796,1286 2804,1286 2805,1285 2810,1285 2811,1284 2819,1284 2820,1285 2843,1285 2844,1286 2851,1286 2852,1285 2858,1285 2859,1284 2864,1284 2865,1285 2870,1285 2871,1286 2882,1286 2883,1285 2889,1285 2890,1286 2899,1286 2900,1285 2912,1285 2913,1286 2916,1286 2917,1287 2927,1287 2928,1286 2939,1286 2940,1285 2951,1285 2952,1284 2958,1284 2959,1285 2966,1285 2967,1286 2985,1286 2986,1287 2997,1287 2998,1286 3002,1286 3003,1285 3010,1285 3011,1286 3035,1286 3036,1287 3058,1287 3059,1286 3094,1286 3095,1287 3167,1287 3168,1286 3178,1286 3179,1285 3184,1285 3185,1284 3186,1284 3187,1283 3187,1282 3188,1281 3188,1274 3189,1273 3189,1224 3190,1223 3190,1222 3189,1221 3189,1148 3190,1147 3190,1139 3191,1138 3191,1137 3190,1136 3190,1123 3191,1122 3191,1099 3190,1098 3190,1027 3191,1026 3191,1011 3190,1010 3190,999 3189,998 3189,981 3190,980 3190,932 3191,931 3191,917 3190,916 3190,913 3189,912 3189,911 3187,909 3186,909 3185,908 3183,908 3182,907 3140,907 3139,906 3057,906 3056,907 3052,907 3051,906 3046,906 3045,905 3029,905 3028,906 3001,906 3000,905 2987,905 2986,906 2979,906 2978,905 2945,905 2944,904 2943,905 2930,905 2929,904 2874,904 2873,903 2852,903 2851,902 2845,902 2844,903 2834,903 2833,902 2820,902 2819,903 2801,903 2800,904 2781,904 2780,903 2733,903 2732,902 2710,902 2709,901 2687,901 2686,902 2664,902 2663,903 2640,903 2639,904 2618,904 2617,905 2604,905 2603,906 2592,906 2591,905 2583,905 2582,906 2573,906 2572,905 2569,905 2568,904 2565,904 2564,903 2549,903 2548,902 2543,902 2542,901 2529,901 2528,902 2524,902 2523,901 2507,901 2506,902 2504,902 2503,901 2498,901 2497,900 2474,900 2473,899 2460,899 2459,900 2453,900 2452,899 2426,899 2425,898 2413,898 2412,899 2404,899 2403,898 2387,898 2386,899 2380,899 2379,898 2364,898 2363,897 2354,897 2353,896 2346,896 2345,897 2341,897 2340,898 2337,898 2336,899 2334,899 2333,898 2328,898 2327,897 2315,897 2314,896 2298,896 2297,897 2290,897 2289,898 2261,898 2260,899 2252,899 2251,900 2247,900 2246,901 2243,901 2242,902 2238,902 2237,901 2231,901 2230,900 2227,900 2226,901 2220,901 2219,902 2218,902 2217,901 2214,901 2213,900 2211,900 2210,899 2207,899 2206,898 2197,898 2196,897 2171,897 2170,896 2161,896 2160,895" fill="rgba(57,21,252,0.3)" stroke="rgb(57,21,252)" stroke-width="2" data-block-id="0010" data-name="b-0013" /><text x="2549" y="1083" text-anchor="middle" dominant-baseline="middle" class="block-label" fill="rgb(57,21,252)" stroke="white" stroke-width="3" paint-order="stroke">b-0013</text><polygon points="1365,1891 1364,1892 1361,1892 1360,1893 1357,1893 1356,1894 1348,1894 1347,1895 1340,1895 1339,1894 1323,1894 1322,1895 1314,1895 1313,1894 1307,1894 1306,1893 1292,1893 1291,1892 1271,1892 1270,1893 1266,1893 1265,1894 1258,1894 1257,1895 1256,1894 1209,1894 1208,1893 1166,1893 1165,1894 1152,1894 1151,1893 1142,1893 1141,1892 1136,1892 1135,1893 1127,1893 1126,1894 1124,1894 1123,1893 1113,1893 1112,1894 1100,1894 1099,1893 1093,1893 1092,1892 1090,1892 1089,1893 1058,1893 1057,1892 1006,1892 1005,1893 995,1893 994,1894 924,1894 923,1893 905,1893 904,1894 901,1894 900,1895 897,1895 896,1896 893,1896 892,1897 891,1897 890,1898 888,1898 887,1899 886,1899 885,1900 884,1900 883,1901 882,1901 881,1902 879,1902 878,1903 866,1903 864,1901 863,1901 862,1900 862,1899 860,1897 859,1897 856,1894 855,1894 854,1893 850,1893 849,1894 847,1894 846,1895 840,1895 839,1896 838,1895 814,1895 813,1896 782,1896 781,1895 768,1895 767,1896 766,1896 765,1897 764,1897 759,1902 758,1902 757,1903 751,1903 750,1904 742,1904 741,1903 736,1903 735,1902 726,1902 725,1903 723,1903 722,1902 718,1902 717,1901 716,1901 715,1900 714,1900 713,1899 709,1899 708,1898 699,1898 698,1897 692,1897 691,1896 672,1896 671,1895 665,1895 664,1894 661,1894 660,1895 657,1895 656,1896 654,1896 651,1899 651,1916 650,1917 650,1925 651,1926 651,1929 652,1930 652,1931 653,1932 653,1934 654,1935 653,1936 653,1938 652,1939 652,1943 651,1944 651,1946 652,1947 652,1950 653,1951 653,1953 654,1954 654,1962 653,1963 653,1966 652,1967 652,1969 651,1970 651,1973 650,1974 650,1978 649,1979 649,1985 650,1986 650,2005 649,2006 649,2013 648,2014 648,2068 649,2069 649,2094 648,2095 648,2109 647,2110 647,2115 648,2116 648,2129 647,2130 647,2144 646,2145 646,2151 647,2152 647,2157 648,2158 648,2163 647,2164 647,2169 646,2170 646,2179 645,2180 645,2227 644,2228 644,2233 645,2234 645,2238 646,2239 646,2240 647,2241 647,2242 650,2245 652,2245 653,2246 656,2246 657,2247 714,2247 715,2246 716,2246 717,2245 718,2245 720,2243 722,2243 723,2242 725,2242 726,2243 738,2243 739,2242 743,2242 744,2241 747,2241 748,2242 755,2242 756,2243 758,2243 759,2244 760,2244 761,2245 763,2245 764,2246 768,2246 769,2247 803,2247 804,2248 812,2248 813,2247 823,2247 824,2248 829,2248 830,2247 836,2247 837,2246 859,2246 860,2245 866,2245 867,2246 869,2246 870,2247 873,2247 874,2248 882,2248 883,2247 886,2247 887,2246 890,2246 891,2247 897,2247 898,2248 903,2248 904,2247 920,2247 921,2246 939,2246 940,2247 955,2247 956,2246 959,2246 960,2245 970,2245 971,2246 981,2246 982,2247 1001,2247 1002,2248 1006,2248 1007,2249 1012,2249 1013,2248 1055,2248 1056,2249 1057,2249 1058,2248 1072,2248 1073,2249 1097,2249 1098,2250 1111,2250 1112,2249 1124,2249 1125,2248 1148,2248 1149,2249 1152,2249 1153,2248 1165,2248 1166,2249 1172,2249 1173,2250 1181,2250 1182,2249 1190,2249 1191,2250 1203,2250 1204,2249 1210,2249 1211,2248 1239,2248 1240,2247 1266,2247 1267,2248 1291,2248 1292,2247 1302,2247 1303,2248 1308,2248 1309,2247 1322,2247 1323,2248 1336,2248 1337,2247 1353,2247 1354,2248 1365,2248 1366,2249 1372,2249 1373,2248 1378,2248 1379,2249 1395,2249 1396,2248 1428,2248 1429,2249 1462,2249 1463,2248 1479,2248 1480,2249 1489,2249 1490,2248 1516,2248 1517,2247 1543,2247 1544,2248 1555,2248 1556,2249 1571,2249 1572,2248 1623,2248 1624,2247 1641,2247 1642,2248 1652,2248 1653,2249 1654,2249 1655,2248 1668,2248 1669,2249 1679,2249 1680,2248 1685,2248 1686,2247 1690,2247 1691,2248 1695,2248 1696,2249 1722,2249 1723,2248 1766,2248 1767,2247 1772,2247 1773,2246 1775,2246 1776,2247 1825,2247 1826,2248 1859,2248 1860,2247 1862,2247 1863,2246 1864,2246 1867,2243 1867,2242 1868,2241 1868,2239 1869,2238 1869,2235 1870,2234 1870,2169 1871,2168 1871,2155 1872,2154 1872,2121 1871,2120 1871,2112 1870,2111 1870,2091 1869,2090 1869,2083 1870,2082 1870,2074 1869,2073 1869,2058 1870,2057 1870,2044 1869,2043 1869,2028 1870,2027 1870,2017 1871,2016 1871,1978 1872,1977 1872,1966 1873,1965 1873,1956 1872,1955 1872,1916 1873,1915 1873,1909 1872,1908 1872,1905 1871,1904 1871,1901 1870,1900 1870,1899 1867,1896 1863,1896 1862,1895 1852,1895 1851,1894 1835,1894 1834,1895 1829,1895 1828,1894 1820,1894 1819,1893 1816,1893 1815,1894 1801,1894 1800,1893 1780,1893 1779,1894 1774,1894 1773,1895 1772,1894 1765,1894 1764,1893 1694,1893 1693,1894 1685,1894 1684,1893 1679,1893 1678,1892 1650,1892 1649,1893 1626,1893 1625,1892 1597,1892 1596,1893 1590,1893 1589,1892 1572,1892 1571,1891 1570,1891 1569,1892 1555,1892 1554,1893 1548,1893 1547,1894 1492,1894 1491,1893 1478,1893 1477,1892 1472,1892 1471,1893 1440,1893 1439,1894 1412,1894 1411,1893 1395,1893 1394,1892 1390,1892 1389,1891" fill="rgba(235,88,48,0.3)" stroke="rgb(235,88,48)" stroke-width="2" data-block-id="0011" data-name="b-0014" /><text x="1158" y="2061" text-anchor="middle" dominant-baseline="middle" class="block-label" fill="rgb(235,88,48)" stroke="white" stroke-width="3" paint-order="stroke">b-0014</text><polygon points="3451,1896 3450,1897 3442,1897 3441,1898 3408,1898 3407,1897 3373,1897 3372,1898 3351,1898 3350,1899 3348,1899 3346,1901 3346,1902 3345,1903 3345,1904 3344,1905 3344,1907 3343,1908 3343,1924 3344,1925 3344,1928 3345,1929 3345,1933 3346,1934 3346,1936 3345,1937 3345,1954 3344,1955 3344,1970 3343,1971 3343,2010 3344,2011 3344,2020 3343,2021 3343,2040 3344,2041 3344,2057 3343,2058 3343,2116 3342,2117 3342,2168 3343,2169 3343,2198 3342,2199 3342,2214 3343,2215 3343,2230 3344,2231 3344,2234 3345,2235 3345,2236 3346,2237 3346,2238 3348,2240 3349,2240 3350,2241 3369,2241 3370,2242 3407,2242 3408,2241 3412,2241 3413,2242 3438,2242 3439,2243 3442,2243 3443,2244 3452,2244 3453,2243 3476,2243 3477,2242 3486,2242 3487,2243 3500,2243 3501,2244 3522,2244 3523,2245 3537,2245 3538,2246 3554,2246 3555,2245 3566,2245 3567,2244 3587,2244 3588,2245 3629,2245 3630,2246 3687,2246 3688,2245 3692,2245 3693,2244 3720,2244 3721,2245 3739,2245 3740,2246 3746,2246 3747,2245 3751,2245 3752,2244 3815,2244 3816,2245 3873,2245 3874,2246 3878,2246 3879,2245 3897,2245 3898,2246 3942,2246 3943,2247 3980,2247 3981,2248 3990,2248 3991,2247 3994,2247 3995,2248 4005,2248 4006,2249 4007,2249 4008,2248 4015,2248 4016,2247 4022,2247 4023,2248 4035,2248 4036,2249 4058,2249 4059,2248 4068,2248 4069,2247 4073,2247 4074,2246 4076,2246 4077,2245 4093,2245 4094,2246 4107,2246 4108,2245 4111,2245 4112,2244 4118,2244 4119,2245 4126,2245 4127,2246 4160,2246 4161,2247 4190,2247 4191,2248 4205,2248 4206,2247 4212,2247 4213,2248 4218,2248 4219,2249 4252,2249 4253,2250 4264,2250 4265,2249 4299,2249 4300,2250 4311,2250 4312,2249 4327,2249 4328,2250 4345,2250 4346,2251 4363,2251 4364,2250 4368,2250 4369,2251 4380,2251 4381,2250 4387,2250 4388,2249 4390,2249 4391,2250 4435,2250 4436,2251 4444,2251 4445,2252 4452,2252 4453,2251 4473,2251 4474,2250 4480,2250 4481,2249 4491,2249 4492,2250 4499,2250 4500,2249 4508,2249 4509,2248 4524,2248 4525,2249 4539,2249 4540,2248 4547,2248 4548,2249 4561,2249 4562,2248 4568,2248 4569,2247 4570,2247 4571,2246 4572,2246 4575,2243 4575,2242 4576,2241 4576,2238 4577,2237 4577,2212 4578,2211 4578,2177 4577,2176 4577,2168 4578,2167 4578,2141 4577,2140 4577,2034 4576,2033 4576,2026 4577,2025 4577,1925 4576,1924 4576,1916 4577,1915 4577,1911 4576,1910 4576,1907 4575,1906 4575,1905 4574,1904 4574,1903 4573,1903 4571,1901 4570,1901 4569,1900 4553,1900 4552,1901 4528,1901 4527,1900 4501,1900 4500,1899 4439,1899 4438,1900 4360,1900 4359,1899 4303,1899 4302,1900 4292,1900 4291,1901 4254,1901 4253,1900 4241,1900 4240,1901 4235,1901 4234,1902 4227,1902 4226,1903 4221,1903 4220,1902 4217,1902 4216,1901 4212,1901 4211,1900 4206,1900 4205,1899 4168,1899 4167,1900 4153,1900 4152,1899 4148,1899 4147,1900 4136,1900 4135,1899 4102,1899 4101,1900 4081,1900 4080,1901 4079,1900 4033,1900 4032,1899 4007,1899 4006,1900 3997,1900 3996,1901 3993,1901 3992,1900 3978,1900 3977,1899 3926,1899 3925,1898 3897,1898 3896,1899 3861,1899 3860,1898 3735,1898 3734,1897 3731,1897 3730,1898 3630,1898 3629,1899 3617,1899 3616,1898 3611,1898 3610,1899 3573,1899 3572,1898 3564,1898 3563,1899 3551,1899 3550,1898 3543,1898 3542,1897 3520,1897 3519,1896" fill="rgba(218,58,254,0.3)" stroke="rgb(218,58,254)" stroke-width="2" data-block-id="0012" data-name="b-0015" /><text x="3971" y="2099" text-anchor="middle" dominant-baseline="middle" class="block-label" fill="rgb(218,58,254)" stroke="white" stroke-width="3" paint-order="stroke">b-0015</text><polygon points="2587,1392 2586,1393 2583,1393 2582,1394 2579,1394 2578,1395 2575,1395 2574,1396 2573,1396 2572,1395 2568,1395 2567,1394 2561,1394 2560,1395 2558,1395 2557,1396 2556,1396 2555,1397 2553,1397 2552,1398 2549,1398 2548,1399 2514,1399 2513,1400 2388,1400 2387,1401 2381,1401 2380,1400 2310,1400 2309,1399 2303,1399 2302,1398 2297,1398 2296,1399 2283,1399 2282,1398 2268,1398 2267,1399 2265,1399 2264,1398 2257,1398 2256,1397 2249,1397 2248,1398 2244,1398 2243,1399 2238,1399 2237,1398 2221,1398 2220,1399 2215,1399 2214,1398 2209,1398 2208,1397 2201,1397 2200,1398 2189,1398 2188,1397 2184,1397 2183,1396 2179,1396 2178,1397 2174,1397 2173,1398 2166,1398 2165,1397 2162,1397 2161,1396 2159,1396 2158,1395 2153,1395 2152,1396 2128,1396 2127,1397 2116,1397 2115,1396 2102,1396 2101,1397 2095,1397 2094,1396 2080,1396 2079,1397 2075,1397 2074,1398 2072,1398 2069,1401 2069,1402 2068,1403 2068,1404 2067,1405 2067,1407 2066,1408 2066,1473 2067,1474 2067,1536 2068,1537 2068,1538 2067,1539 2067,1593 2066,1594 2066,1632 2067,1633 2067,1635 2066,1636 2066,1692 2065,1693 2065,1765 2066,1766 2066,1768 2071,1773 2072,1773 2073,1774 2075,1774 2076,1775 2083,1775 2084,1776 2099,1776 2100,1777 2106,1777 2107,1778 2119,1778 2120,1777 2123,1777 2124,1778 2140,1778 2141,1777 2177,1777 2178,1778 2185,1778 2186,1777 2196,1777 2197,1778 2202,1778 2203,1779 2213,1779 2214,1778 2234,1778 2235,1777 2241,1777 2242,1776 2247,1776 2248,1777 2261,1777 2262,1776 2263,1776 2264,1777 2275,1777 2276,1778 2306,1778 2307,1777 2319,1777 2320,1778 2329,1778 2330,1777 2357,1777 2358,1778 2366,1778 2367,1779 2376,1779 2377,1778 2381,1778 2382,1777 2389,1777 2390,1778 2437,1778 2438,1777 2451,1777 2452,1776 2457,1776 2458,1777 2480,1777 2481,1776 2510,1776 2511,1777 2523,1777 2524,1778 2533,1778 2534,1777 2544,1777 2545,1778 2553,1778 2554,1777 2561,1777 2562,1776 2565,1776 2566,1775 2567,1775 2568,1774 2569,1774 2573,1770 2575,1770 2576,1771 2577,1771 2578,1772 2578,1773 2579,1773 2582,1776 2583,1776 2584,1777 2585,1777 2586,1778 2588,1778 2589,1779 2592,1779 2593,1780 2604,1780 2605,1781 2621,1781 2622,1780 2779,1780 2780,1781 2787,1781 2788,1782 2795,1782 2796,1781 2805,1781 2806,1782 2868,1782 2869,1781 2875,1781 2876,1780 2885,1780 2886,1779 2893,1779 2894,1778 2900,1778 2901,1779 2918,1779 2919,1778 2946,1778 2947,1779 2951,1779 2952,1780 2966,1780 2967,1779 2973,1779 2974,1780 2986,1780 2987,1779 2999,1779 3000,1780 3048,1780 3049,1781 3057,1781 3058,1780 3096,1780 3097,1781 3104,1781 3105,1780 3117,1780 3118,1781 3161,1781 3162,1780 3177,1780 3178,1779 3182,1779 3183,1778 3185,1778 3189,1774 3189,1773 3190,1772 3190,1770 3191,1769 3191,1766 3192,1765 3192,1761 3191,1760 3191,1737 3192,1736 3192,1713 3191,1712 3191,1666 3190,1665 3190,1648 3191,1647 3191,1638 3192,1637 3192,1628 3191,1627 3191,1606 3190,1605 3190,1600 3191,1599 3191,1548 3192,1547 3192,1522 3191,1521 3191,1495 3192,1494 3192,1445 3193,1444 3193,1429 3192,1428 3192,1409 3191,1408 3191,1407 3190,1406 3190,1405 3189,1404 3188,1404 3187,1403 3186,1403 3185,1402 3183,1402 3182,1401 3181,1401 3180,1402 3167,1402 3166,1401 3112,1401 3111,1402 3095,1402 3094,1401 3056,1401 3055,1400 3016,1400 3015,1401 3003,1401 3002,1402 2998,1402 2997,1403 2993,1403 2992,1404 2979,1404 2978,1403 2967,1403 2966,1402 2890,1402 2889,1401 2885,1401 2884,1400 2883,1400 2882,1399 2879,1399 2878,1398 2874,1398 2873,1397 2838,1397 2837,1396 2810,1396 2809,1397 2804,1397 2803,1398 2796,1398 2795,1397 2785,1397 2784,1396 2776,1396 2775,1395 2758,1395 2757,1396 2749,1396 2748,1395 2648,1395 2647,1394 2641,1394 2640,1393 2590,1393 2589,1392" fill="rgba(169,219,187,0.3)" stroke="rgb(169,219,187)" stroke-width="2" data-block-id="0013" data-name="b-0016" /><text x="2603" y="1589" text-anchor="middle" dominant-baseline="middle" class="block-label" fill="rgb(169,219,187)" stroke="white" stroke-width="3" paint-order="stroke">b-0016</text><polygon points="2881,2353 2880,2354 2829,2354 2828,2355 2809,2355 2808,2356 2804,2356 2803,2357 2798,2357 2797,2356 2782,2356 2781,2357 2754,2357 2753,2356 2726,2356 2725,2357 2710,2357 2709,2358 2705,2358 2704,2357 2701,2357 2700,2356 2695,2356 2694,2355 2693,2355 2692,2356 2676,2356 2675,2355 2663,2355 2662,2356 2653,2356 2652,2355 2641,2355 2640,2356 2617,2356 2616,2357 2611,2357 2610,2358 2609,2358 2608,2357 2592,2357 2591,2358 2587,2358 2586,2359 2582,2359 2581,2360 2579,2360 2578,2361 2577,2361 2576,2362 2574,2362 2573,2363 2563,2363 2562,2364 2552,2364 2551,2363 2549,2363 2547,2361 2546,2361 2544,2359 2542,2359 2541,2358 2534,2358 2533,2359 2524,2359 2523,2358 2520,2358 2519,2357 2508,2357 2507,2358 2502,2358 2501,2357 2495,2357 2494,2356 2490,2356 2489,2357 2485,2357 2484,2358 2480,2358 2479,2359 2461,2359 2460,2358 2454,2358 2453,2357 2450,2357 2449,2356 2447,2356 2446,2355 2443,2355 2442,2354 2425,2354 2424,2355 2407,2355 2406,2354 2387,2354 2386,2355 2312,2355 2311,2354 2299,2354 2298,2355 2140,2355 2139,2356 2119,2356 2118,2355 2087,2355 2086,2356 2072,2356 2071,2357 2068,2357 2067,2358 2066,2358 2062,2362 2062,2367 2061,2368 2061,2393 2062,2394 2062,2408 2063,2409 2063,2454 2062,2455 2062,2470 2063,2471 2063,2490 2064,2491 2064,2549 2063,2550 2063,2562 2064,2563 2064,2574 2065,2575 2065,2579 2066,2580 2066,2582 2067,2583 2067,2586 2068,2587 2068,2590 2069,2591 2069,2623 2068,2624 2068,2628 2067,2629 2067,2633 2066,2634 2066,2652 2067,2653 2067,2658 2068,2659 2068,2668 2069,2669 2069,2700 2070,2701 2070,2703 2071,2704 2071,2705 2073,2707 2074,2707 2075,2708 2079,2708 2080,2709 2104,2709 2105,2708 2118,2708 2119,2709 2128,2709 2129,2708 2147,2708 2148,2707 2159,2707 2160,2708 2165,2708 2166,2709 2186,2709 2187,2708 2203,2708 2204,2709 2212,2709 2213,2710 2222,2710 2223,2709 2232,2709 2233,2708 2295,2708 2296,2709 2330,2709 2331,2708 2341,2708 2342,2709 2348,2709 2349,2710 2401,2710 2402,2709 2426,2709 2427,2708 2447,2708 2448,2707 2471,2707 2472,2706 2516,2706 2517,2705 2520,2705 2521,2704 2525,2704 2526,2703 2539,2703 2540,2702 2569,2702 2570,2701 2584,2701 2585,2700 2588,2700 2589,2701 2612,2701 2613,2702 2624,2702 2625,2703 2637,2703 2638,2704 2642,2704 2643,2705 2647,2705 2648,2706 2672,2706 2673,2705 2700,2705 2701,2706 2716,2706 2717,2707 2737,2707 2738,2708 2747,2708 2748,2707 2761,2707 2762,2708 2787,2708 2788,2709 2792,2709 2793,2708 2805,2708 2806,2709 2809,2709 2810,2710 2879,2710 2880,2711 2896,2711 2897,2712 2940,2712 2941,2711 2970,2711 2971,2712 2997,2712 2998,2713 3017,2713 3018,2712 3097,2712 3098,2713 3115,2713 3116,2712 3140,2712 3141,2713 3165,2713 3166,2714 3178,2714 3179,2713 3183,2713 3184,2712 3185,2712 3186,2711 3187,2711 3188,2710 3189,2710 3192,2707 3192,2706 3193,2705 3193,2703 3194,2702 3194,2700 3195,2699 3195,2696 3194,2695 3194,2690 3193,2689 3193,2663 3194,2662 3194,2649 3193,2648 3193,2641 3192,2640 3192,2633 3193,2632 3193,2522 3192,2521 3192,2474 3191,2473 3191,2469 3192,2468 3192,2423 3191,2422 3191,2421 3192,2420 3192,2378 3191,2377 3191,2368 3192,2367 3192,2365 3191,2364 3191,2361 3188,2358 3187,2358 3186,2357 3184,2357 3183,2356 3120,2356 3119,2355 3103,2355 3102,2354 3087,2354 3086,2355 3042,2355 3041,2356 3023,2356 3022,2355 2995,2355 2994,2356 2990,2356 2989,2355 2974,2355 2973,2354 2906,2354 2905,2355 2895,2355 2894,2354 2889,2354 2888,2353" fill="rgba(207,14,189,0.3)" stroke="rgb(207,14,189)" stroke-width="2" data-block-id="0014" data-name="b-0017" /><text x="2609" y="2527" text-anchor="middle" dominant-baseline="middle" class="block-label" fill="rgb(207,14,189)" stroke="white" stroke-width="3" paint-order="stroke">b-0017</text><polygon points="2110,1891 2109,1892 2103,1892 2102,1893 2071,1893 2070,1894 2068,1894 2067,1895 2066,1895 2065,1896 2064,1896 2062,1898 2062,1905 2063,1906 2063,1926 2064,1927 2064,2006 2063,2007 2063,2035 2062,2036 2062,2081 2063,2082 2063,2105 2064,2106 2064,2127 2065,2128 2065,2153 2066,2154 2066,2157 2067,2158 2067,2164 2066,2165 2066,2219 2067,2220 2067,2221 2066,2222 2066,2232 2067,2233 2067,2235 2068,2236 2068,2238 2070,2240 2070,2241 2073,2244 2074,2244 2075,2245 2081,2245 2082,2246 2089,2246 2090,2247 2095,2247 2096,2248 2107,2248 2108,2247 2109,2248 2113,2248 2114,2249 2118,2249 2119,2250 2124,2250 2125,2249 2131,2249 2132,2248 2156,2248 2157,2249 2167,2249 2168,2250 2175,2250 2176,2251 2207,2251 2208,2252 2212,2252 2213,2253 2216,2253 2217,2254 2220,2254 2221,2253 2229,2253 2230,2252 2233,2252 2234,2251 2236,2251 2237,2250 2238,2250 2239,2249 2254,2249 2255,2250 2274,2250 2275,2249 2278,2249 2279,2248 2280,2248 2281,2247 2283,2247 2284,2246 2298,2246 2299,2247 2331,2247 2332,2248 2340,2248 2341,2249 2351,2249 2352,2250 2357,2250 2358,2251 2365,2251 2366,2250 2371,2250 2372,2249 2374,2249 2375,2248 2378,2248 2379,2247 2411,2247 2412,2246 2421,2246 2422,2247 2426,2247 2427,2248 2432,2248 2433,2249 2451,2249 2452,2250 2457,2250 2458,2249 2460,2249 2461,2248 2464,2248 2465,2247 2474,2247 2475,2246 2494,2246 2495,2245 2499,2245 2500,2244 2504,2244 2505,2243 2518,2243 2519,2244 2539,2244 2540,2243 2548,2243 2549,2242 2557,2242 2558,2241 2602,2241 2603,2242 2607,2242 2608,2243 2618,2243 2619,2244 2672,2244 2673,2245 2690,2245 2691,2244 2697,2244 2698,2245 2710,2245 2711,2246 2734,2246 2735,2245 2798,2245 2799,2246 2813,2246 2814,2245 2856,2245 2857,2246 2896,2246 2897,2247 2903,2247 2904,2248 2910,2248 2911,2247 2912,2247 2913,2246 2915,2246 2916,2245 2919,2245 2920,2244 2923,2244 2924,2245 2984,2245 2985,2246 3025,2246 3026,2245 3032,2245 3033,2246 3041,2246 3042,2247 3050,2247 3051,2248 3056,2248 3057,2247 3079,2247 3080,2246 3091,2246 3092,2247 3094,2247 3095,2248 3098,2248 3099,2249 3118,2249 3119,2248 3144,2248 3145,2249 3177,2249 3178,2248 3182,2248 3183,2247 3184,2247 3185,2246 3186,2246 3188,2244 3188,2243 3189,2242 3189,2241 3190,2240 3190,2235 3191,2234 3191,2211 3190,2210 3190,2169 3189,2168 3189,2156 3190,2155 3190,2121 3191,2120 3191,2115 3192,2114 3192,2098 3191,2097 3191,2083 3190,2082 3190,2077 3191,2076 3191,2044 3192,2043 3192,2022 3193,2021 3193,1985 3192,1984 3192,1980 3193,1979 3193,1940 3192,1939 3192,1926 3191,1925 3191,1918 3192,1917 3192,1910 3191,1909 3191,1905 3190,1904 3190,1903 3189,1902 3189,1901 3187,1899 3186,1899 3185,1898 3184,1898 3183,1897 3174,1897 3173,1896 3168,1896 3167,1897 3129,1897 3128,1898 3092,1898 3091,1899 3068,1899 3067,1900 3057,1900 3056,1899 3045,1899 3044,1900 3038,1900 3037,1899 3027,1899 3026,1898 3023,1898 3022,1897 3016,1897 3015,1896 3001,1896 3000,1897 2974,1897 2973,1898 2964,1898 2963,1897 2959,1897 2958,1896 2950,1896 2949,1897 2931,1897 2930,1896 2926,1896 2925,1895 2906,1895 2905,1896 2879,1896 2878,1895 2866,1895 2865,1894 2830,1894 2829,1895 2823,1895 2822,1894 2770,1894 2769,1893 2717,1893 2716,1892 2700,1892 2699,1893 2645,1893 2644,1894 2619,1894 2618,1893 2550,1893 2549,1894 2536,1894 2535,1893 2519,1893 2518,1894 2514,1894 2513,1893 2503,1893 2502,1892 2499,1892 2498,1893 2481,1893 2480,1894 2444,1894 2443,1895 2423,1895 2422,1894 2408,1894 2407,1893 2395,1893 2394,1894 2389,1894 2388,1895 2384,1895 2383,1896 2368,1896 2367,1895 2361,1895 2360,1894 2349,1894 2348,1893 2332,1893 2331,1892 2326,1892 2325,1891 2322,1891 2321,1892 2298,1892 2297,1893 2294,1893 2293,1894 2233,1894 2232,1893 2221,1893 2220,1892 2215,1892 2214,1893 2198,1893 2197,1894 2190,1894 2189,1895 2183,1895 2182,1896 2181,1895 2175,1895 2174,1894 2139,1894 2138,1893 2118,1893 2117,1892 2112,1892 2111,1891" fill="rgba(189,174,189,0.3)" stroke="rgb(189,174,189)" stroke-width="2" data-block-id="0015" data-name="b-0018" /><text x="2600" y="2089" text-anchor="middle" dominant-baseline="middle" class="block-label" fill="rgb(189,174,189)" stroke="white" stroke-width="3" paint-order="stroke">b-0018</text></g>
</svg>