<?xml version='1.0' encoding='utf-8'?>
<svg xmlns="http://www.w3.org/2000/svg" xmlns:atlas="http://example.com/atlas" width="4984" height="3288" viewBox="0 0 4984 3288">
  
  <metadata>
    <atlas:source>
      <atlas:jp2-path>/Users/pwright/workspace/atlas/media/v2/p14.jp2</atlas:jp2-path>
      <atlas:volume>unknown</atlas:volume>
      <atlas:plate-id>p14</atlas:plate-id>
      <atlas:image-width>4984</atlas:image-width>
      <atlas:image-height>3288</atlas:image-height>
    <atlas:angle>0</atlas:angle><atlas:scale>1.3333333333333333</atlas:scale><atlas:pos-x>1927.2740135394952</atlas:pos-x><atlas:pos-y>2203.1066646842105</atlas:pos-y></atlas:source>
  </metadata>

  
  <image id="background" href="file:///Users/pwright/workspace/atlas/media/v2/p14.jp2" width="4984" height="3288" opacity="0.5" />

  <style>
    .block-label { font-family: sans-serif; font-size: 14px; font-weight: bold; }
  </style>

  
  <g id="blocks">
    <polygon points="801,2622 800,2623 751,2623 750,2624 739,2624 738,2625 729,2625 728,2626 723,2626 722,2627 721,2627 720,2628 720,2630 719,2631 719,2633 718,2634 718,2637 717,2638 717,2659 718,2660 718,2663 717,2664 717,2683 718,2684 718,2689 717,2690 717,2716 716,2717 716,2726 717,2727 717,2741 716,2742 716,2820 715,2821 715,2826 714,2827 714,2848 715,2849 715,2854 714,2855 714,2858 713,2859 713,2890 714,2891 714,2905 713,2906 713,2919 714,2920 714,2955 713,2956 713,2963 714,2964 714,2975 715,2976 715,2979 716,2980 716,2982 719,2985 720,2985 721,2986 735,2986 736,2987 790,2987 791,2986 792,2987 811,2987 812,2986 849,2986 850,2987 861,2987 862,2988 871,2988 872,2989 876,2989 877,2988 881,2988 882,2987 885,2987 886,2986 892,2986 893,2985 915,2985 916,2986 928,2986 929,2985 933,2985 934,2984 938,2984 939,2985 949,2985 950,2986 965,2986 966,2987 974,2987 975,2986 978,2986 979,2985 981,2985 982,2984 985,2984 986,2985 990,2985 991,2986 1027,2986 1028,2985 1032,2985 1033,2986 1087,2986 1088,2987 1100,2987 1101,2986 1102,2986 1103,2987 1157,2987 1158,2988 1226,2988 1227,2989 1235,2989 1236,2988 1241,2988 1242,2987 1252,2987 1253,2988 1264,2988 1265,2987 1273,2987 1274,2988 1313,2988 1314,2987 1319,2987 1320,2988 1324,2988 1325,2989 1332,2989 1333,2988 1338,2988 1339,2987 1369,2987 1370,2988 1404,2988 1405,2987 1418,2987 1419,2988 1434,2988 1435,2987 1443,2987 1444,2988 1456,2988 1457,2987 1461,2987 1462,2988 1477,2988 1478,2987 1487,2987 1488,2986 1495,2986 1496,2985 1500,2985 1501,2986 1515,2986 1516,2987 1523,2987 1524,2986 1546,2986 1547,2985 1563,2985 1564,2986 1571,2986 1572,2985 1644,2985 1645,2984 1648,2984 1649,2983 1667,2983 1668,2984 1676,2984 1677,2985 1695,2985 1696,2984 1702,2984 1703,2985 1730,2985 1731,2986 1738,2986 1739,2987 1743,2987 1744,2988 1753,2988 1754,2989 1759,2989 1760,2988 1763,2988 1764,2987 1766,2987 1767,2986 1774,2986 1775,2987 1779,2987 1780,2988 1800,2988 1801,2989 1807,2989 1808,2988 1824,2988 1825,2989 1878,2989 1879,2990 1881,2990 1882,2989 1907,2989 1908,2990 1950,2990 1951,2989 1959,2989 1960,2990 1981,2990 1982,2989 1997,2989 1998,2988 2008,2988 2009,2989 2102,2989 2103,2990 2167,2990 2168,2989 2180,2989 2181,2988 2184,2988 2185,2987 2186,2987 2187,2986 2188,2986 2189,2985 2190,2985 2192,2983 2192,2982 2193,2981 2193,2979 2194,2978 2194,2957 2193,2956 2193,2953 2192,2952 2192,2948 2191,2947 2191,2876 2190,2875 2190,2851 2191,2850 2191,2829 2190,2828 2190,2784 2189,2783 2189,2781 2190,2780 2190,2777 2191,2776 2191,2773 2192,2772 2192,2767 2191,2766 2191,2764 2190,2763 2190,2761 2189,2760 2189,2758 2188,2757 2188,2755 2189,2754 2189,2751 2190,2750 2190,2741 2189,2740 2189,2736 2188,2735 2188,2732 2189,2731 2189,2729 2190,2728 2190,2725 2191,2724 2191,2714 2190,2713 2190,2702 2189,2701 2189,2692 2188,2691 2188,2676 2189,2675 2189,2674 2188,2673 2188,2664 2187,2663 2188,2662 2188,2657 2189,2656 2189,2652 2190,2651 2190,2647 2189,2646 2189,2640 2188,2639 2188,2637 2187,2636 2187,2635 2185,2633 2184,2633 2183,2632 2182,2632 2181,2631 2179,2631 2178,2630 2174,2630 2173,2629 2122,2629 2121,2628 2091,2628 2090,2627 2084,2627 2083,2626 2079,2626 2078,2627 2073,2627 2072,2628 2065,2628 2064,2627 2059,2627 2058,2626 2003,2626 2002,2625 1988,2625 1987,2626 1978,2626 1977,2625 1973,2625 1972,2626 1950,2626 1949,2625 1948,2625 1947,2626 1909,2626 1908,2625 1893,2625 1892,2626 1888,2626 1887,2625 1882,2625 1881,2624 1874,2624 1873,2625 1861,2625 1860,2624 1842,2624 1841,2625 1838,2625 1837,2624 1831,2624 1830,2625 1824,2625 1823,2626 1815,2626 1814,2625 1812,2625 1811,2624 1797,2624 1796,2625 1785,2625 1784,2624 1783,2624 1782,2625 1766,2625 1765,2624 1743,2624 1742,2625 1729,2625 1728,2624 1701,2624 1700,2625 1696,2625 1695,2624 1678,2624 1677,2625 1667,2625 1666,2624 1663,2624 1662,2625 1647,2625 1646,2624 1635,2624 1634,2625 1623,2625 1622,2624 1609,2624 1608,2625 1574,2625 1573,2624 1560,2624 1559,2625 1548,2625 1547,2624 1541,2624 1540,2625 1528,2625 1527,2624 1503,2624 1502,2625 1492,2625 1491,2626 1487,2626 1486,2627 1485,2627 1484,2626 1481,2626 1480,2625 1478,2625 1477,2624 1463,2624 1462,2625 1432,2625 1431,2624 1415,2624 1414,2625 1410,2625 1409,2624 1393,2624 1392,2625 1389,2625 1388,2624 1379,2624 1378,2623 1374,2623 1373,2624 1320,2624 1319,2625 1288,2625 1287,2624 1275,2624 1274,2625 1270,2625 1269,2626 1268,2626 1267,2625 1264,2625 1263,2624 1252,2624 1251,2625 1240,2625 1239,2624 1228,2624 1227,2625 1207,2625 1206,2626 1196,2626 1195,2625 1192,2625 1191,2624 1160,2624 1159,2625 1156,2625 1155,2626 1153,2626 1152,2627 1149,2627 1148,2626 1145,2626 1144,2625 1141,2625 1140,2624 1136,2624 1135,2625 1130,2625 1129,2626 1110,2626 1109,2627 1102,2627 1101,2626 1099,2626 1098,2625 1094,2625 1093,2624 1084,2624 1083,2625 1075,2625 1074,2626 1070,2626 1069,2627 1065,2627 1064,2626 1059,2626 1058,2625 1035,2625 1034,2626 1012,2626 1011,2627 1008,2627 1007,2626 1002,2626 1001,2625 988,2625 987,2626 957,2626 956,2625 954,2625 953,2624 918,2624 917,2625 907,2625 906,2624 894,2624 893,2623 883,2623 882,2624 867,2624 866,2623 856,2623 855,2622 850,2622 849,2623 844,2623 843,2624 838,2624 837,2623 833,2623 832,2622 819,2622 818,2623 813,2623 812,2622" fill="rgba(121,210,214,0.3)" stroke="rgb(121,210,214)" stroke-width="2" data-block-id="0001" data-name="b-0005" /><text x="1466" y="2780" text-anchor="middle" dominant-baseline="middle" class="block-label" fill="rgb(121,210,214)" stroke="white" stroke-width="3" paint-order="stroke">b-0005</text><polygon points="933,1677 932,1678 925,1678 924,1679 923,1679 922,1680 921,1680 920,1681 919,1681 917,1683 916,1683 915,1684 914,1684 913,1685 912,1684 910,1684 909,1683 908,1683 907,1682 905,1682 904,1681 902,1681 901,1680 876,1680 875,1681 863,1681 862,1680 851,1680 850,1681 841,1681 840,1682 823,1682 822,1681 794,1681 793,1682 765,1682 764,1681 744,1681 743,1682 739,1682 738,1683 735,1683 734,1684 732,1684 728,1688 728,1689 727,1690 727,1692 726,1693 726,1696 725,1697 725,1715 726,1716 726,1750 725,1751 725,1765 726,1766 726,1775 725,1776 725,1798 724,1799 724,1811 725,1812 725,1843 724,1844 724,1850 723,1851 723,1857 724,1858 724,1867 723,1868 723,1872 722,1873 722,1885 723,1886 723,1936 722,1937 722,1943 721,1944 721,1954 722,1955 722,1976 721,1977 721,1989 720,1990 720,2004 721,2005 721,2017 720,2018 720,2019 721,2020 721,2031 724,2034 725,2034 726,2035 727,2035 728,2036 729,2036 730,2037 733,2037 734,2038 736,2038 737,2037 749,2037 750,2038 776,2038 777,2039 784,2039 785,2038 802,2038 803,2039 806,2039 807,2038 814,2038 815,2037 818,2037 819,2038 826,2038 827,2039 831,2039 832,2038 845,2038 846,2039 861,2039 862,2038 866,2038 867,2039 875,2039 876,2040 877,2040 878,2039 892,2039 893,2038 915,2038 916,2039 918,2039 919,2040 921,2040 922,2041 926,2041 927,2040 930,2040 931,2039 933,2039 934,2038 938,2038 939,2039 944,2039 945,2040 951,2040 952,2039 968,2039 969,2040 976,2040 977,2039 986,2039 987,2040 994,2040 995,2041 1002,2041 1003,2040 1007,2040 1008,2041 1016,2041 1017,2042 1046,2042 1047,2041 1050,2041 1051,2040 1058,2040 1059,2041 1062,2041 1063,2042 1069,2042 1070,2041 1074,2041 1075,2040 1086,2040 1087,2041 1093,2041 1094,2040 1098,2040 1099,2039 1108,2039 1109,2040 1119,2040 1120,2039 1124,2039 1125,2038 1128,2038 1129,2039 1134,2039 1135,2040 1145,2040 1146,2039 1154,2039 1155,2040 1171,2040 1172,2039 1176,2039 1177,2040 1197,2040 1198,2039 1226,2039 1227,2040 1230,2040 1231,2041 1237,2041 1238,2040 1243,2040 1244,2039 1248,2039 1249,2040 1255,2040 1256,2041 1260,2041 1261,2040 1267,2040 1268,2039 1271,2039 1272,2040 1279,2040 1280,2041 1283,2041 1284,2040 1291,2040 1292,2039 1301,2039 1302,2040 1306,2040 1307,2039 1323,2039 1324,2040 1340,2040 1341,2039 1370,2039 1371,2040 1375,2040 1376,2041 1380,2041 1381,2040 1396,2040 1397,2041 1405,2041 1406,2040 1418,2040 1419,2041 1432,2041 1433,2040 1439,2040 1440,2041 1453,2041 1454,2040 1458,2040 1459,2039 1463,2039 1464,2040 1468,2040 1469,2041 1481,2041 1482,2040 1485,2040 1486,2041 1493,2041 1494,2042 1496,2042 1497,2041 1501,2041 1502,2040 1504,2040 1505,2039 1513,2039 1514,2040 1519,2040 1520,2041 1537,2041 1538,2042 1547,2042 1548,2041 1553,2041 1554,2040 1558,2040 1559,2041 1565,2041 1566,2042 1568,2042 1569,2041 1574,2041 1575,2040 1586,2040 1587,2041 1601,2041 1602,2042 1618,2042 1619,2041 1623,2041 1624,2040 1633,2040 1634,2039 1656,2039 1657,2040 1664,2040 1665,2041 1688,2041 1689,2040 1694,2040 1695,2039 1707,2039 1708,2040 1713,2040 1714,2039 1745,2039 1746,2040 1757,2040 1758,2041 1761,2041 1762,2040 1772,2040 1773,2041 1777,2041 1778,2042 1782,2042 1783,2043 1791,2043 1792,2044 1801,2044 1802,2045 1808,2045 1809,2044 1811,2044 1812,2043 1814,2043 1815,2042 1819,2042 1820,2041 1821,2042 1832,2042 1833,2043 1843,2043 1844,2044 1871,2044 1872,2045 1879,2045 1880,2044 1882,2044 1883,2043 1885,2043 1886,2042 1888,2042 1889,2041 1894,2041 1895,2042 1900,2042 1901,2043 1915,2043 1916,2042 1942,2042 1943,2043 1952,2043 1953,2042 1989,2042 1990,2041 2003,2041 2004,2040 2020,2040 2021,2041 2029,2041 2030,2042 2034,2042 2035,2041 2038,2041 2039,2040 2042,2040 2043,2039 2048,2039 2049,2040 2053,2040 2054,2041 2087,2041 2088,2040 2116,2040 2117,2041 2125,2041 2126,2040 2131,2040 2132,2041 2140,2041 2141,2040 2160,2040 2161,2041 2175,2041 2176,2040 2178,2040 2179,2039 2180,2039 2182,2037 2183,2037 2184,2036 2185,2036 2188,2033 2188,2031 2189,2030 2189,2019 2190,2018 2190,1981 2189,1980 2189,1965 2190,1964 2190,1943 2191,1942 2191,1927 2190,1926 2190,1919 2191,1918 2191,1899 2192,1898 2192,1887 2191,1886 2191,1877 2190,1876 2190,1874 2191,1873 2191,1862 2192,1861 2192,1855 2193,1854 2193,1848 2192,1847 2192,1836 2191,1835 2191,1799 2190,1798 2190,1791 2191,1790 2191,1787 2192,1786 2192,1783 2193,1782 2193,1779 2192,1778 2192,1764 2191,1763 2191,1754 2190,1753 2190,1739 2191,1738 2191,1728 2190,1727 2190,1697 2189,1696 2189,1695 2187,1693 2187,1692 2186,1691 2185,1691 2183,1689 2182,1689 2181,1688 2180,1688 2179,1687 2176,1687 2175,1686 2174,1686 2173,1687 2167,1687 2166,1688 2151,1688 2150,1687 2144,1687 2143,1686 2122,1686 2121,1687 2090,1687 2089,1688 2053,1688 2052,1687 2038,1687 2037,1686 2005,1686 2004,1685 1957,1685 1956,1684 1945,1684 1944,1685 1930,1685 1929,1684 1917,1684 1916,1685 1913,1685 1912,1684 1847,1684 1846,1685 1838,1685 1837,1684 1824,1684 1823,1683 1812,1683 1811,1682 1747,1682 1746,1683 1745,1683 1744,1682 1729,1682 1728,1683 1704,1683 1703,1684 1667,1684 1666,1683 1659,1683 1658,1684 1651,1684 1650,1685 1647,1685 1646,1686 1643,1686 1642,1687 1627,1687 1626,1686 1623,1686 1622,1685 1618,1685 1617,1684 1612,1684 1611,1685 1598,1685 1597,1684 1557,1684 1556,1685 1530,1685 1529,1684 1527,1684 1526,1683 1524,1683 1523,1682 1466,1682 1465,1683 1456,1683 1455,1682 1427,1682 1426,1681 1421,1681 1420,1682 1385,1682 1384,1681 1324,1681 1323,1682 1287,1682 1286,1681 1237,1681 1236,1680 1230,1680 1229,1681 1218,1681 1217,1680 1210,1680 1209,1679 1192,1679 1191,1680 1172,1680 1171,1679 1153,1679 1152,1678 1149,1678 1148,1679 1098,1679 1097,1680 1087,1680 1086,1681 1052,1681 1051,1680 1049,1680 1048,1679 1045,1679 1044,1678 1022,1678 1021,1677 1020,1678 1013,1678 1012,1679 956,1679 955,1678 950,1678 949,1677" fill="rgba(74,202,87,0.3)" stroke="rgb(74,202,87)" stroke-width="2" data-block-id="0002" data-name="b-0006" /><text x="1430" y="1900" text-anchor="middle" dominant-baseline="middle" class="block-label" fill="rgb(74,202,87)" stroke="white" stroke-width="3" paint-order="stroke">b-0006</text><polygon points="756,1204 755,1205 749,1205 748,1206 738,1206 737,1207 731,1207 730,1208 728,1208 725,1211 725,1214 726,1215 726,1224 725,1225 725,1228 724,1229 724,1237 725,1238 725,1240 726,1241 726,1242 727,1243 727,1247 726,1248 726,1249 724,1251 724,1252 723,1253 723,1254 722,1255 722,1282 723,1283 723,1284 731,1284 732,1285 734,1285 735,1286 736,1286 737,1287 738,1287 739,1288 740,1288 742,1290 743,1290 745,1292 746,1292 747,1293 748,1293 750,1295 750,1297 751,1298 751,1302 752,1303 751,1304 751,1306 744,1313 744,1314 739,1319 737,1319 736,1320 732,1320 731,1321 729,1321 728,1322 727,1322 726,1323 725,1323 724,1324 723,1324 723,1325 722,1326 722,1331 723,1332 723,1334 726,1337 726,1338 727,1339 727,1341 728,1342 725,1345 725,1346 723,1348 723,1349 722,1350 722,1366 721,1367 721,1372 720,1373 720,1378 721,1379 721,1380 722,1381 722,1383 723,1384 723,1385 724,1386 724,1388 725,1389 724,1390 724,1391 723,1392 723,1394 722,1395 722,1399 721,1400 721,1417 720,1418 720,1426 721,1427 721,1430 722,1431 722,1435 723,1436 723,1440 724,1441 724,1454 723,1455 723,1464 722,1465 722,1474 723,1475 723,1477 724,1478 724,1483 725,1484 725,1513 724,1514 724,1522 725,1523 725,1535 724,1536 724,1538 723,1539 723,1547 724,1548 724,1549 725,1550 725,1552 726,1553 726,1555 727,1556 727,1557 728,1558 728,1559 729,1560 729,1561 731,1563 731,1564 732,1565 745,1565 746,1566 751,1566 752,1567 769,1567 770,1568 771,1567 780,1567 781,1568 875,1568 876,1569 909,1569 910,1570 926,1570 927,1569 941,1569 942,1570 966,1570 967,1571 974,1571 975,1570 981,1570 982,1569 986,1569 987,1570 1071,1570 1072,1569 1085,1569 1086,1570 1093,1570 1094,1569 1101,1569 1102,1568 1105,1568 1106,1569 1240,1569 1241,1568 1275,1568 1276,1569 1299,1569 1300,1568 1317,1568 1318,1569 1349,1569 1350,1568 1369,1568 1370,1569 1433,1569 1434,1570 1443,1570 1444,1569 1463,1569 1464,1570 1498,1570 1499,1569 1522,1569 1523,1570 1577,1570 1578,1571 1588,1571 1589,1570 1600,1570 1601,1569 1604,1569 1605,1570 1608,1570 1609,1571 1613,1571 1614,1572 1620,1572 1621,1571 1668,1571 1669,1570 1679,1570 1680,1571 1693,1571 1694,1570 1706,1570 1707,1571 1744,1571 1745,1570 1749,1570 1750,1571 1876,1571 1877,1572 1910,1572 1911,1571 1921,1571 1922,1572 1945,1572 1946,1571 1972,1571 1973,1572 1994,1572 1995,1571 2000,1571 2001,1572 2077,1572 2078,1573 2087,1573 2088,1572 2098,1572 2099,1573 2106,1573 2107,1572 2114,1572 2115,1571 2118,1571 2119,1572 2155,1572 2156,1571 2177,1571 2178,1570 2181,1570 2182,1569 2183,1569 2184,1568 2185,1568 2188,1565 2188,1564 2189,1563 2189,1560 2190,1559 2190,1555 2191,1554 2191,1547 2192,1546 2192,1540 2191,1539 2191,1532 2190,1531 2190,1478 2191,1477 2191,1474 2192,1473 2192,1464 2191,1463 2191,1445 2190,1444 2190,1416 2189,1415 2189,1407 2190,1406 2190,1390 2189,1389 2189,1385 2190,1384 2190,1375 2189,1374 2189,1334 2190,1333 2190,1308 2191,1307 2191,1304 2190,1303 2190,1297 2189,1296 2189,1278 2188,1277 2188,1249 2187,1248 2187,1240 2188,1239 2188,1231 2187,1230 2187,1227 2186,1226 2186,1224 2182,1220 2181,1220 2180,1219 2178,1219 2177,1218 2175,1218 2174,1217 2170,1217 2169,1216 2165,1216 2164,1215 2135,1215 2134,1214 2102,1214 2101,1215 2096,1215 2095,1216 2090,1216 2089,1215 2086,1215 2085,1214 2072,1214 2071,1215 2026,1215 2025,1216 1995,1216 1994,1215 1991,1215 1990,1214 1980,1214 1979,1215 1951,1215 1950,1214 1923,1214 1922,1213 1906,1213 1905,1214 1883,1214 1882,1213 1868,1213 1867,1212 1855,1212 1854,1211 1845,1211 1844,1210 1841,1210 1840,1211 1834,1211 1833,1212 1800,1212 1799,1211 1791,1211 1790,1212 1758,1212 1757,1213 1747,1213 1746,1214 1745,1214 1744,1213 1730,1213 1729,1214 1719,1214 1718,1213 1701,1213 1700,1214 1682,1214 1681,1215 1673,1215 1672,1214 1665,1214 1664,1213 1661,1213 1660,1214 1643,1214 1642,1215 1631,1215 1630,1216 1625,1216 1624,1215 1618,1215 1617,1214 1603,1214 1602,1215 1594,1215 1593,1216 1560,1216 1559,1217 1557,1217 1556,1216 1553,1216 1552,1215 1550,1215 1549,1214 1546,1214 1545,1213 1537,1213 1536,1212 1474,1212 1473,1211 1471,1211 1470,1212 1448,1212 1447,1211 1428,1211 1427,1210 1419,1210 1418,1211 1400,1211 1399,1212 1396,1212 1395,1213 1394,1213 1393,1214 1392,1214 1391,1215 1385,1215 1384,1214 1383,1214 1382,1213 1381,1213 1380,1212 1379,1212 1378,1211 1368,1211 1367,1212 1345,1212 1344,1213 1339,1213 1338,1212 1326,1212 1325,1213 1320,1213 1319,1214 1313,1214 1312,1213 1287,1213 1286,1212 1279,1212 1278,1213 1274,1213 1273,1214 1266,1214 1265,1213 1261,1213 1260,1212 1228,1212 1227,1213 1224,1213 1223,1214 1222,1214 1221,1213 1218,1213 1217,1212 1215,1212 1214,1211 1211,1211 1210,1210 1194,1210 1193,1209 1181,1209 1180,1210 1176,1210 1175,1211 1173,1211 1172,1210 1167,1210 1166,1209 1142,1209 1141,1208 1138,1208 1137,1209 1132,1209 1131,1210 1126,1210 1125,1211 1112,1211 1111,1210 1103,1210 1102,1209 1099,1209 1098,1208 1094,1208 1093,1207 1088,1207 1087,1208 1079,1208 1078,1209 1077,1209 1076,1208 1053,1208 1052,1207 1046,1207 1045,1206 1041,1206 1040,1207 1034,1207 1033,1208 1027,1208 1026,1207 1010,1207 1009,1208 1006,1208 1005,1207 998,1207 997,1206 994,1206 993,1207 987,1207 986,1208 978,1208 977,1207 962,1207 961,1208 960,1207 955,1207 954,1206 951,1206 950,1205 940,1205 939,1206 932,1206 931,1207 925,1207 924,1208 920,1208 919,1207 906,1207 905,1206 896,1206 895,1207 859,1207 858,1206 855,1206 854,1205 847,1205 846,1206 833,1206 832,1205 798,1205 797,1206 766,1206 765,1205 759,1205 758,1204" fill="rgba(116,99,103,0.3)" stroke="rgb(116,99,103)" stroke-width="2" data-block-id="0003" data-name="b-0007" /><text x="1323" y="1343" text-anchor="middle" dominant-baseline="middle" class="block-label" fill="rgb(116,99,103)" stroke="white" stroke-width="3" paint-order="stroke">b-0007</text><polygon points="755,727 754,728 750,728 749,729 745,729 744,730 742,730 741,731 739,731 738,732 737,732 735,734 734,734 733,735 732,735 731,736 730,736 729,737 728,737 727,738 726,738 724,740 723,740 719,744 719,745 718,746 718,748 717,749 717,752 716,753 716,758 717,759 717,761 718,762 718,763 719,764 719,765 720,766 720,768 721,769 721,771 722,772 722,776 723,777 723,782 724,783 724,788 725,789 725,798 724,799 724,813 723,814 723,819 722,820 722,826 721,827 721,830 722,831 722,842 723,843 723,851 724,852 724,855 725,856 725,859 726,860 726,869 725,870 725,882 726,883 726,895 725,896 725,905 726,906 726,918 725,919 725,923 726,924 726,929 727,930 727,948 726,949 726,992 725,993 725,999 726,1000 726,1016 725,1017 726,1018 726,1028 727,1029 727,1033 726,1034 726,1051 727,1052 727,1054 726,1055 726,1058 725,1059 725,1060 724,1061 724,1062 723,1063 723,1064 722,1065 722,1069 723,1070 723,1072 724,1073 724,1075 725,1076 725,1079 726,1080 726,1081 727,1082 727,1084 728,1085 728,1086 729,1087 729,1088 730,1089 732,1089 733,1090 736,1090 737,1091 746,1091 747,1092 792,1092 793,1093 837,1093 838,1094 850,1094 851,1093 861,1093 862,1092 869,1092 870,1093 957,1093 958,1094 963,1094 964,1093 1003,1093 1004,1094 1053,1094 1054,1093 1079,1093 1080,1094 1168,1094 1169,1093 1179,1093 1180,1094 1192,1094 1193,1093 1208,1093 1209,1092 1230,1092 1231,1093 1245,1093 1246,1092 1262,1092 1263,1093 1338,1093 1339,1094 1347,1094 1348,1093 1357,1093 1358,1092 1361,1092 1362,1091 1366,1091 1367,1092 1368,1092 1370,1094 1371,1094 1372,1095 1373,1095 1374,1096 1377,1096 1378,1097 1379,1097 1380,1096 1405,1096 1406,1095 1471,1095 1472,1096 1475,1096 1476,1095 1514,1095 1515,1096 1548,1096 1549,1095 1581,1095 1582,1094 1673,1094 1674,1095 1680,1095 1681,1094 1689,1094 1690,1095 1708,1095 1709,1094 1715,1094 1716,1095 1730,1095 1731,1094 1737,1094 1738,1095 1768,1095 1769,1096 1776,1096 1777,1095 1784,1095 1785,1096 1842,1096 1843,1095 1846,1095 1847,1094 1850,1094 1851,1093 1854,1093 1855,1092 1859,1092 1860,1093 1867,1093 1868,1094 1873,1094 1874,1095 1880,1095 1881,1094 1885,1094 1886,1093 1911,1093 1912,1094 1946,1094 1947,1093 1949,1093 1950,1094 2027,1094 2028,1095 2040,1095 2041,1094 2052,1094 2053,1095 2058,1095 2059,1094 2071,1094 2072,1095 2077,1095 2078,1096 2083,1096 2084,1095 2087,1095 2088,1094 2095,1094 2096,1095 2099,1095 2100,1096 2116,1096 2117,1097 2144,1097 2145,1096 2174,1096 2175,1095 2181,1095 2182,1094 2185,1094 2186,1093 2187,1093 2190,1090 2190,1087 2191,1086 2191,1077 2192,1076 2192,1055 2191,1054 2191,954 2192,953 2192,945 2191,944 2191,856 2190,855 2190,846 2191,845 2191,834 2190,833 2190,798 2189,797 2189,784 2188,783 2188,764 2187,763 2187,756 2186,755 2186,753 2185,753 2184,752 2180,752 2179,751 2177,751 2176,750 2175,750 2170,745 2169,745 2168,744 2167,744 2166,743 2159,743 2158,744 2150,744 2149,743 2146,743 2145,742 2123,742 2122,741 2112,741 2111,742 2103,742 2102,741 2100,741 2099,740 2080,740 2079,741 2078,740 2029,740 2028,739 2013,739 2012,740 2007,740 2006,739 1976,739 1975,740 1971,740 1970,739 1952,739 1951,738 1950,739 1934,739 1933,738 1931,738 1930,737 1928,737 1927,736 1902,736 1901,737 1882,737 1881,736 1871,736 1870,737 1857,737 1856,736 1852,736 1851,737 1838,737 1837,736 1822,736 1821,737 1813,737 1812,736 1790,736 1789,737 1780,737 1779,736 1773,736 1772,735 1771,736 1767,736 1766,737 1762,737 1761,738 1738,738 1737,737 1678,737 1677,736 1648,736 1647,737 1633,737 1632,736 1625,736 1624,737 1619,737 1618,738 1602,738 1601,737 1594,737 1593,736 1574,736 1573,737 1549,737 1548,738 1538,738 1537,737 1512,737 1511,738 1479,738 1478,737 1465,737 1464,738 1444,738 1443,737 1393,737 1392,736 1383,736 1382,735 1375,735 1374,736 1372,736 1371,737 1370,737 1368,739 1367,739 1366,740 1362,740 1361,739 1359,739 1358,738 1356,738 1355,737 1345,737 1344,738 1339,738 1338,737 1320,737 1319,738 1318,738 1317,737 1313,737 1312,736 1308,736 1307,735 1299,735 1298,736 1291,736 1290,735 1284,735 1283,734 1282,734 1281,735 1278,735 1277,736 1275,736 1274,737 1272,737 1271,738 1268,738 1267,737 1265,737 1264,736 1260,736 1259,735 1250,735 1249,736 1244,736 1243,735 1227,735 1226,736 1217,736 1216,735 1201,735 1200,736 1199,736 1198,735 1191,735 1190,734 1184,734 1183,735 1181,735 1180,736 1178,736 1177,737 1170,737 1169,736 1164,736 1163,735 1159,735 1158,736 1145,736 1144,735 1133,735 1132,736 1119,736 1118,735 1112,735 1111,736 1103,736 1102,737 1101,737 1100,736 1074,736 1073,735 1062,735 1061,736 1019,736 1018,735 1017,736 1004,736 1003,735 997,735 996,734 993,734 992,735 978,735 977,734 972,734 971,733 970,733 969,734 963,734 962,735 957,735 956,734 951,734 950,733 945,733 944,734 918,734 917,735 910,735 909,734 907,734 906,733 904,733 903,732 892,732 891,733 882,733 881,732 872,732 871,733 862,733 861,732 859,732 857,730 856,730 855,729 854,729 853,728 852,728 851,727 841,727 840,728 838,728 837,729 836,729 835,730 833,730 832,731 825,731 824,732 817,732 816,731 809,731 808,730 802,730 801,731 795,731 794,732 791,732 790,731 786,731 785,730 783,730 782,729 766,729 765,728 761,728 760,727" fill="rgba(151,130,149,0.3)" stroke="rgb(151,130,149)" stroke-width="2" data-block-id="0004" data-name="b-0008" /><text x="1328" y="867" text-anchor="middle" dominant-baseline="middle" class="block-label" fill="rgb(151,130,149)" stroke="white" stroke-width="3" paint-order="stroke">b-0008</text><polygon points="762,2152 761,2153 755,2153 754,2154 750,2154 749,2155 746,2155 745,2156 743,2156 742,2157 741,2157 739,2159 738,2159 736,2161 736,2162 735,2163 735,2165 734,2166 734,2168 733,2169 733,2173 734,2174 734,2175 736,2177 736,2179 737,2180 737,2185 738,2186 738,2187 737,2188 737,2194 736,2195 736,2198 735,2199 735,2223 736,2224 736,2225 737,2226 737,2228 738,2229 738,2231 739,2232 739,2234 738,2235 738,2238 737,2239 737,2242 736,2243 736,2254 737,2255 736,2256 736,2263 735,2264 735,2286 734,2287 734,2291 733,2292 733,2298 732,2299 732,2304 731,2305 731,2306 730,2307 730,2308 729,2309 729,2310 727,2312 727,2313 726,2314 726,2315 725,2316 725,2318 726,2319 726,2320 727,2321 727,2322 729,2324 729,2325 730,2326 730,2327 729,2328 729,2329 728,2330 727,2330 726,2331 725,2331 724,2332 723,2332 722,2333 721,2333 720,2334 720,2335 719,2336 719,2337 718,2338 718,2345 717,2346 717,2371 718,2372 718,2393 717,2394 717,2411 718,2412 718,2455 717,2456 717,2501 718,2502 718,2505 719,2506 719,2507 720,2508 721,2508 722,2509 728,2509 729,2510 798,2510 799,2511 809,2511 810,2510 838,2510 839,2509 842,2509 843,2510 888,2510 889,2511 890,2511 891,2510 916,2510 917,2511 931,2511 932,2510 941,2510 942,2511 955,2511 956,2510 965,2510 966,2511 981,2511 982,2510 983,2511 1036,2511 1037,2512 1100,2512 1101,2511 1109,2511 1110,2512 1145,2512 1146,2513 1169,2513 1170,2512 1179,2512 1180,2513 1203,2513 1204,2514 1214,2514 1215,2513 1219,2513 1220,2512 1225,2512 1226,2513 1231,2513 1232,2514 1235,2514 1236,2513 1243,2513 1244,2512 1251,2512 1252,2513 1263,2513 1264,2512 1271,2512 1272,2513 1276,2513 1277,2514 1313,2514 1314,2513 1320,2513 1321,2514 1327,2514 1328,2515 1330,2515 1331,2514 1336,2514 1337,2513 1536,2513 1537,2512 1549,2512 1550,2513 1748,2513 1749,2514 1826,2514 1827,2515 1842,2515 1843,2514 1903,2514 1904,2515 1916,2515 1917,2514 1957,2514 1958,2513 1964,2513 1965,2514 2008,2514 2009,2513 2011,2513 2012,2514 2030,2514 2031,2515 2035,2515 2036,2514 2067,2514 2068,2515 2087,2515 2088,2514 2118,2514 2119,2515 2163,2515 2164,2514 2177,2514 2178,2513 2181,2513 2182,2512 2183,2512 2184,2511 2185,2511 2186,2510 2187,2510 2189,2508 2189,2507 2190,2506 2190,2505 2191,2504 2191,2502 2192,2501 2192,2498 2193,2497 2193,2493 2192,2492 2192,2488 2191,2487 2191,2475 2192,2474 2192,2469 2191,2468 2191,2461 2190,2460 2190,2441 2191,2440 2191,2433 2192,2432 2192,2410 2191,2409 2191,2406 2190,2405 2190,2400 2189,2399 2189,2398 2190,2397 2190,2378 2191,2377 2191,2370 2190,2369 2190,2357 2189,2356 2189,2347 2190,2346 2190,2335 2191,2334 2191,2327 2190,2326 2190,2318 2189,2317 2189,2311 2190,2310 2190,2299 2191,2298 2191,2282 2190,2281 2190,2235 2189,2234 2189,2231 2190,2230 2190,2168 2189,2167 2189,2163 2188,2162 2188,2161 2186,2159 2185,2159 2184,2158 2183,2158 2182,2157 2180,2157 2179,2156 2141,2156 2140,2155 2082,2155 2081,2156 2063,2156 2062,2155 2057,2155 2056,2156 2051,2156 2050,2157 2048,2157 2047,2158 2041,2158 2040,2157 2032,2157 2031,2156 2012,2156 2011,2157 1997,2157 1996,2156 1960,2156 1959,2155 1952,2155 1951,2154 1938,2154 1937,2155 1931,2155 1930,2156 1906,2156 1905,2155 1899,2155 1898,2156 1885,2156 1884,2155 1862,2155 1861,2156 1837,2156 1836,2155 1815,2155 1814,2154 1792,2154 1791,2155 1779,2155 1778,2154 1757,2154 1756,2155 1749,2155 1748,2156 1738,2156 1737,2155 1725,2155 1724,2154 1710,2154 1709,2155 1596,2155 1595,2154 1565,2154 1564,2155 1558,2155 1557,2156 1542,2156 1541,2155 1512,2155 1511,2156 1503,2156 1502,2155 1478,2155 1477,2154 1472,2154 1471,2155 1465,2155 1464,2156 1455,2156 1454,2155 1439,2155 1438,2156 1436,2156 1435,2155 1420,2155 1419,2156 1415,2156 1414,2157 1413,2157 1412,2156 1408,2156 1407,2155 1402,2155 1401,2154 1398,2154 1397,2155 1381,2155 1380,2154 1374,2154 1373,2155 1359,2155 1358,2154 1323,2154 1322,2155 1313,2155 1312,2154 1277,2154 1276,2155 1273,2155 1272,2156 1266,2156 1265,2155 1260,2155 1259,2154 1253,2154 1252,2155 1243,2155 1242,2154 1229,2154 1228,2155 1226,2155 1225,2156 1220,2156 1219,2155 1217,2155 1216,2154 1214,2154 1213,2153 1204,2153 1203,2154 1189,2154 1188,2153 1186,2153 1185,2154 1180,2154 1179,2155 1174,2155 1173,2156 1172,2155 1168,2155 1167,2154 1156,2154 1155,2155 1141,2155 1140,2154 1139,2154 1138,2155 1132,2155 1131,2156 1121,2156 1120,2155 1096,2155 1095,2154 1085,2154 1084,2155 1074,2155 1073,2154 1060,2154 1059,2155 1050,2155 1049,2154 1041,2154 1040,2155 1037,2155 1036,2156 1033,2156 1032,2157 1030,2157 1029,2156 1025,2156 1024,2155 999,2155 998,2156 988,2156 987,2155 976,2155 975,2154 969,2154 968,2155 965,2155 964,2156 958,2156 957,2155 955,2155 954,2154 951,2154 950,2153 944,2153 943,2154 938,2154 937,2155 933,2155 932,2154 915,2154 914,2155 909,2155 908,2154 895,2154 894,2155 890,2155 889,2156 887,2156 886,2155 882,2155 881,2154 870,2154 869,2155 859,2155 858,2154 855,2154 854,2153 850,2153 849,2154 845,2154 844,2155 831,2155 830,2154 819,2154 818,2153 812,2153 811,2152 799,2152 798,2153 786,2153 785,2152" fill="rgba(52,1,87,0.3)" stroke="rgb(52,1,87)" stroke-width="2" data-block-id="0005" data-name="b-0009" /><text x="1337" y="2288" text-anchor="middle" dominant-baseline="middle" class="block-label" fill="rgb(52,1,87)" stroke="white" stroke-width="3" paint-order="stroke">b-0009</text><polygon points="778,255 777,256 768,256 767,257 765,257 764,258 762,258 757,263 757,264 756,265 756,266 755,267 754,267 753,266 742,266 739,269 739,281 740,282 740,285 741,286 741,287 743,289 745,289 746,290 747,290 748,289 750,289 752,287 752,286 753,285 753,278 754,277 754,274 755,273 756,274 756,277 757,278 757,283 756,284 756,324 757,325 757,327 756,328 756,331 755,332 753,330 753,329 752,328 752,325 751,324 751,323 749,321 748,321 747,320 744,320 743,321 741,321 740,322 739,322 736,325 736,328 737,329 737,330 738,331 738,332 740,334 740,335 741,336 741,338 742,339 742,340 741,341 741,344 740,345 740,355 739,356 739,363 738,364 738,367 737,368 737,376 738,377 738,378 742,382 744,382 745,383 749,383 750,382 755,382 756,383 756,384 757,385 757,406 756,407 756,420 755,421 754,420 754,419 751,416 748,416 747,415 746,415 745,416 744,416 742,418 742,419 741,420 741,424 743,426 744,426 745,427 747,427 748,426 750,426 751,425 752,425 753,424 754,424 754,422 755,421 756,422 756,427 757,428 757,452 756,453 756,464 755,465 754,464 754,463 753,462 748,462 747,461 744,461 743,462 738,462 736,464 736,481 737,482 737,498 736,499 736,500 735,501 735,503 734,504 734,519 735,520 735,521 736,522 736,523 740,527 741,527 743,529 743,530 744,531 742,533 742,534 741,535 741,536 740,537 740,540 739,541 739,543 740,544 740,546 741,547 741,548 743,550 744,550 745,551 746,551 747,552 747,555 746,556 745,556 744,557 743,557 742,558 741,558 739,560 739,561 737,563 737,566 736,567 736,568 735,569 735,571 734,572 734,575 733,576 733,592 732,593 732,598 731,599 731,601 732,602 732,605 734,607 734,608 735,609 735,610 737,612 740,612 741,613 744,613 745,614 757,614 758,615 761,615 762,616 769,616 770,617 771,617 772,616 803,616 804,617 882,617 883,618 1001,618 1002,619 1075,619 1076,620 1157,620 1158,621 1215,621 1216,620 1219,620 1220,619 1223,619 1224,620 1228,620 1229,621 1242,621 1243,622 1261,622 1262,621 1268,621 1269,620 1274,620 1275,619 1279,619 1280,618 1284,618 1285,619 1290,619 1291,620 1304,620 1305,621 1396,621 1397,622 1404,622 1405,621 1418,621 1419,620 1425,620 1426,621 1428,621 1429,622 1434,622 1435,623 1454,623 1455,622 1471,622 1472,623 1494,623 1495,624 1567,624 1568,625 1585,625 1586,624 1595,624 1596,623 1647,623 1648,624 1667,624 1668,625 1732,625 1733,626 1833,626 1834,627 1860,627 1861,626 1879,626 1880,627 2027,627 2028,628 2041,628 2042,627 2046,627 2047,628 2054,628 2055,629 2060,629 2061,628 2084,628 2085,627 2118,627 2119,628 2180,628 2181,627 2185,627 2186,626 2187,626 2188,625 2189,625 2189,624 2190,623 2190,621 2191,620 2191,618 2192,617 2192,614 2193,613 2193,605 2194,604 2194,600 2193,599 2193,595 2192,594 2192,581 2193,580 2193,575 2192,574 2192,544 2191,543 2191,541 2192,540 2192,489 2193,488 2193,461 2194,460 2193,459 2193,452 2192,451 2192,444 2193,443 2193,439 2194,438 2194,427 2193,426 2193,382 2194,381 2194,369 2195,368 2195,342 2196,341 2196,337 2195,336 2195,303 2194,302 2194,286 2193,285 2193,277 2192,276 2192,274 2191,273 2191,272 2189,270 2188,270 2186,268 2183,268 2182,267 2180,267 2179,266 2063,266 2062,267 2025,267 2024,268 1937,268 1936,267 1934,267 1933,266 1931,266 1930,265 1928,265 1927,264 1922,264 1921,265 1913,265 1912,266 1904,266 1903,267 1883,267 1882,266 1874,266 1873,267 1820,267 1819,266 1813,266 1812,265 1782,265 1781,266 1768,266 1767,267 1763,267 1762,268 1747,268 1746,267 1729,267 1728,266 1702,266 1701,267 1700,267 1699,266 1697,266 1696,265 1695,265 1693,263 1692,263 1688,259 1687,259 1686,258 1673,258 1672,259 1668,259 1667,260 1664,260 1663,261 1661,261 1660,262 1655,262 1654,263 1648,263 1647,262 1629,262 1628,263 1618,263 1617,264 1610,264 1609,265 1600,265 1599,264 1595,264 1594,263 1587,263 1586,264 1573,264 1572,263 1564,263 1563,264 1512,264 1511,265 1489,265 1488,266 1481,266 1480,265 1473,265 1472,264 1465,264 1464,263 1457,263 1456,262 1443,262 1442,263 1422,263 1421,264 1400,264 1399,263 1368,263 1367,264 1363,264 1362,263 1338,263 1337,262 1333,262 1332,261 1323,261 1322,262 1312,262 1311,261 1296,261 1295,262 1292,262 1291,261 1278,261 1277,262 1275,262 1274,263 1265,263 1264,262 1260,262 1259,261 1253,261 1252,262 1237,262 1236,261 1233,261 1232,262 1166,262 1165,261 1156,261 1155,262 1134,262 1133,263 1123,263 1122,262 1117,262 1116,261 1096,261 1095,260 1085,260 1084,261 1066,261 1065,262 1043,262 1042,263 1038,263 1037,264 1035,264 1034,265 1031,265 1030,264 1029,264 1027,262 1025,262 1024,261 1023,261 1022,260 1010,260 1009,261 1004,261 1003,260 989,260 988,261 981,261 980,260 958,260 957,259 927,259 926,258 918,258 917,259 879,259 878,258 869,258 868,259 863,259 862,258 835,258 834,257 831,257 830,256 812,256 811,255 795,255 794,256 788,256 787,255" fill="rgba(235,157,37,0.3)" stroke="rgb(235,157,37)" stroke-width="2" data-block-id="0006" data-name="b-0010" /><text x="1255" y="406" text-anchor="middle" dominant-baseline="middle" class="block-label" fill="rgb(235,157,37)" stroke="white" stroke-width="3" paint-order="stroke">b-0010</text><polygon points="3820,262 3819,263 3818,263 3817,264 3816,264 3815,265 3813,265 3812,266 3809,266 3808,267 3795,267 3794,268 3791,268 3790,269 3779,269 3778,268 3771,268 3770,269 3768,269 3767,270 3764,270 3763,271 3745,271 3744,272 3731,272 3730,271 3680,271 3679,270 3652,270 3651,271 3636,271 3635,270 3626,270 3625,271 3588,271 3587,270 3574,270 3573,271 3567,271 3566,270 3556,270 3555,271 3550,271 3549,272 3539,272 3538,271 3526,271 3525,270 3493,270 3492,269 3485,269 3484,268 3460,268 3459,269 3456,269 3455,270 3444,270 3443,269 3435,269 3434,270 3430,270 3429,271 3426,271 3425,270 3422,270 3421,269 3415,269 3414,268 3355,268 3354,269 3342,269 3341,268 3330,268 3329,267 3281,267 3280,268 3266,268 3265,269 3254,269 3253,270 3245,270 3244,269 3239,269 3238,268 3223,268 3222,269 3215,269 3214,270 3198,270 3197,269 3173,269 3172,270 3167,270 3166,271 3160,271 3159,270 3145,270 3144,269 3127,269 3126,270 3003,270 3002,269 2993,269 2992,268 2960,268 2959,269 2951,269 2950,270 2929,270 2928,271 2895,271 2894,270 2887,270 2886,271 2827,271 2826,270 2817,270 2816,271 2770,271 2769,272 2746,272 2745,273 2740,273 2739,274 2720,274 2719,275 2701,275 2700,276 2697,276 2696,277 2695,277 2694,278 2692,278 2691,279 2690,279 2689,280 2688,280 2687,281 2686,281 2683,284 2683,285 2682,286 2682,287 2681,288 2681,289 2680,290 2680,293 2681,294 2681,298 2682,299 2682,302 2683,303 2683,305 2684,306 2684,307 2685,308 2685,309 2686,310 2686,311 2687,312 2687,313 2688,314 2688,315 2689,316 2689,317 2690,318 2690,320 2691,321 2691,325 2692,326 2692,328 2693,329 2693,331 2694,332 2694,333 2695,334 2695,336 2696,337 2696,339 2697,340 2697,344 2698,345 2698,349 2699,350 2699,352 2700,353 2700,354 2701,355 2701,356 2702,357 2702,358 2704,360 2704,361 2705,362 2705,364 2706,365 2706,367 2707,368 2707,371 2708,372 2708,374 2709,375 2709,376 2710,377 2710,378 2712,380 2712,381 2713,382 2713,383 2714,384 2714,385 2715,386 2715,388 2716,389 2716,393 2717,394 2717,399 2718,400 2718,403 2719,404 2719,407 2720,408 2720,410 2721,411 2721,413 2722,414 2722,416 2723,417 2723,418 2724,419 2724,421 2725,422 2725,423 2726,424 2726,426 2727,427 2727,428 2728,429 2728,430 2729,431 2729,432 2730,433 2730,434 2731,435 2731,436 2732,437 2732,438 2733,439 2733,441 2734,442 2734,443 2735,444 2735,445 2737,447 2737,448 2739,450 2739,452 2740,453 2740,457 2741,458 2741,462 2742,463 2742,468 2743,469 2743,472 2744,473 2744,475 2745,476 2745,477 2746,478 2746,480 2748,482 2748,483 2749,484 2749,487 2750,488 2750,489 2751,490 2751,492 2752,493 2752,495 2753,496 2753,498 2754,499 2754,501 2755,502 2755,504 2756,505 2756,506 2757,507 2757,508 2758,509 2758,510 2759,511 2759,512 2761,514 2761,515 2762,516 2762,517 2763,518 2763,520 2764,521 2764,522 2765,523 2765,525 2766,526 2766,528 2767,529 2767,532 2768,533 2768,535 2769,536 2769,538 2770,539 2770,541 2771,542 2771,543 2772,544 2772,546 2773,547 2773,548 2774,549 2774,550 2775,551 2775,552 2776,553 2776,555 2777,556 2777,559 2778,560 2778,562 2779,563 2779,565 2780,566 2780,567 2783,570 2783,571 2785,573 2785,574 2786,575 2786,576 2787,577 2787,580 2788,581 2788,584 2789,585 2789,588 2790,589 2790,591 2791,592 2791,595 2792,596 2792,598 2793,599 2793,602 2794,603 2794,604 2795,605 2795,606 2796,607 2796,609 2798,611 2798,612 2799,613 2799,614 2800,615 2800,616 2805,621 2806,621 2808,623 2809,623 2810,624 2811,624 2812,625 2813,625 2814,626 2815,626 2816,627 2818,627 2819,628 2993,628 2994,629 3000,629 3001,628 3029,628 3030,629 3094,629 3095,628 3111,628 3112,629 3128,629 3129,628 3159,628 3160,627 3169,627 3170,628 3302,628 3303,629 3306,629 3307,630 3309,630 3310,631 3321,631 3322,630 3324,630 3325,629 3330,629 3331,628 3371,628 3372,627 3386,627 3387,628 3408,628 3409,629 3433,629 3434,628 3475,628 3476,629 3502,629 3503,628 3575,628 3576,629 3604,629 3605,630 3627,630 3628,631 3629,631 3630,630 3641,630 3642,629 3675,629 3676,628 3703,628 3704,629 3717,629 3718,630 3726,630 3727,629 3731,629 3732,628 3740,628 3741,627 3766,627 3767,628 3826,628 3827,627 3863,627 3864,628 3877,628 3878,627 3954,627 3955,628 4010,628 4011,627 4013,627 4017,623 4017,622 4018,621 4018,619 4019,618 4019,615 4020,614 4020,605 4021,604 4021,600 4020,599 4020,584 4019,583 4019,556 4018,555 4019,554 4019,548 4020,547 4020,543 4021,542 4021,522 4020,521 4020,507 4019,506 4019,474 4018,473 4018,456 4019,455 4019,447 4020,446 4020,442 4021,441 4021,435 4022,434 4022,431 4021,430 4021,416 4020,415 4020,406 4021,405 4021,396 4022,395 4022,385 4021,384 4021,380 4020,379 4020,369 4019,368 4019,358 4020,357 4020,340 4019,339 4019,319 4018,318 4018,315 4019,314 4019,310 4020,309 4020,290 4019,289 4019,286 4018,285 4018,282 4017,281 4017,278 4016,277 4016,275 4015,274 4015,273 4013,271 4013,270 4012,270 4011,269 4009,269 4008,268 3985,268 3984,269 3979,269 3978,270 3973,270 3972,269 3968,269 3967,268 3958,268 3957,269 3932,269 3931,270 3929,270 3928,269 3921,269 3920,268 3907,268 3906,269 3878,269 3877,268 3874,268 3873,267 3863,267 3862,268 3851,268 3850,269 3833,269 3832,268 3829,268 3828,267 3826,267 3824,265 3824,264 3822,262" fill="rgba(129,191,187,0.3)" stroke="rgb(129,191,187)" stroke-width="2" data-block-id="0007" data-name="b-0011" /><text x="3219" y="419" text-anchor="middle" dominant-baseline="middle" class="block-label" fill="rgb(129,191,187)" stroke="white" stroke-width="3" paint-order="stroke">b-0011</text><polygon points="2640,2621 2639,2622 2617,2622 2616,2623 2610,2623 2609,2624 2599,2624 2598,2623 2590,2623 2589,2624 2587,2624 2586,2625 2584,2625 2583,2626 2564,2626 2563,2627 2553,2627 2552,2626 2547,2626 2546,2625 2544,2625 2543,2626 2541,2626 2540,2627 2539,2627 2538,2628 2536,2628 2535,2629 2530,2629 2529,2628 2527,2628 2526,2627 2525,2627 2524,2626 2523,2626 2522,2625 2517,2625 2516,2626 2511,2626 2510,2627 2509,2626 2504,2626 2503,2625 2494,2625 2493,2626 2491,2626 2490,2627 2488,2627 2487,2628 2481,2628 2480,2627 2476,2627 2475,2626 2471,2626 2470,2627 2466,2627 2465,2628 2458,2628 2457,2627 2452,2627 2451,2626 2448,2626 2447,2627 2444,2627 2443,2628 2439,2628 2438,2629 2436,2629 2435,2628 2431,2628 2430,2627 2418,2627 2417,2628 2411,2628 2410,2627 2405,2627 2404,2626 2399,2626 2398,2627 2395,2627 2394,2628 2390,2628 2389,2629 2387,2629 2386,2628 2377,2628 2376,2629 2375,2629 2374,2630 2373,2630 2372,2631 2372,2632 2370,2634 2370,2635 2369,2636 2369,2685 2368,2686 2368,2694 2367,2695 2367,2702 2368,2703 2368,2739 2367,2740 2367,2752 2368,2753 2368,2774 2367,2775 2367,2784 2366,2785 2366,2801 2367,2802 2367,2814 2368,2815 2368,2834 2367,2835 2367,2848 2368,2849 2368,2878 2367,2879 2367,2894 2368,2895 2368,2898 2369,2899 2369,2905 2368,2906 2368,2920 2367,2921 2367,2944 2368,2945 2368,2955 2367,2956 2367,2961 2368,2962 2368,2967 2369,2968 2369,2981 2368,2982 2369,2983 2369,2985 2371,2987 2372,2987 2374,2989 2375,2989 2376,2990 2380,2990 2381,2991 2411,2991 2412,2992 2502,2992 2503,2991 2510,2991 2511,2992 2519,2992 2520,2993 2522,2993 2523,2992 2533,2992 2534,2991 2547,2991 2548,2990 2581,2990 2582,2989 2598,2989 2599,2988 2614,2988 2615,2987 2624,2987 2625,2986 2633,2986 2634,2985 2657,2985 2658,2986 2662,2986 2663,2987 2675,2987 2676,2988 2683,2988 2684,2989 2711,2989 2712,2990 2724,2990 2725,2991 2743,2991 2744,2992 2851,2992 2852,2991 2872,2991 2873,2990 2881,2990 2882,2991 2887,2991 2888,2992 2921,2992 2922,2991 2932,2991 2933,2992 2972,2992 2973,2991 2980,2991 2981,2992 2986,2992 2987,2991 2994,2991 2995,2990 3001,2990 3002,2991 3027,2991 3028,2990 3041,2990 3042,2989 3067,2989 3068,2988 3081,2988 3082,2989 3113,2989 3114,2988 3118,2988 3119,2989 3149,2989 3150,2988 3169,2988 3170,2989 3182,2989 3183,2990 3194,2990 3195,2989 3215,2989 3216,2990 3220,2990 3221,2991 3230,2991 3231,2992 3249,2992 3250,2991 3275,2991 3276,2992 3287,2992 3288,2991 3300,2991 3301,2990 3358,2990 3359,2991 3377,2991 3378,2990 3391,2990 3392,2989 3520,2989 3521,2990 3523,2990 3524,2989 3540,2989 3541,2988 3547,2988 3548,2987 3549,2987 3550,2986 3551,2986 3554,2983 3554,2981 3553,2980 3553,2977 3552,2976 3552,2972 3551,2971 3551,2968 3550,2967 3550,2965 3549,2964 3549,2962 3548,2961 3548,2958 3547,2957 3547,2956 3546,2955 3546,2953 3545,2952 3545,2951 3544,2950 3544,2948 3543,2947 3543,2946 3542,2945 3542,2944 3541,2943 3541,2942 3540,2941 3540,2940 3539,2939 3539,2938 3538,2937 3538,2935 3537,2934 3537,2933 3536,2932 3536,2931 3535,2930 3535,2929 3534,2928 3534,2927 3533,2926 3533,2924 3532,2923 3532,2920 3531,2919 3531,2917 3530,2916 3530,2913 3529,2912 3529,2910 3528,2909 3528,2905 3527,2904 3527,2900 3526,2899 3526,2897 3525,2896 3525,2895 3524,2894 3524,2893 3520,2889 3520,2888 3519,2887 3519,2886 3518,2885 3518,2883 3517,2882 3517,2880 3516,2879 3516,2878 3515,2877 3515,2876 3514,2875 3514,2872 3513,2871 3513,2869 3512,2868 3512,2866 3511,2865 3511,2864 3508,2861 3508,2860 3507,2859 3507,2857 3506,2856 3506,2854 3505,2853 3505,2850 3504,2849 3504,2848 3503,2847 3503,2845 3502,2844 3502,2841 3501,2840 3501,2834 3500,2833 3500,2827 3499,2826 3499,2825 3498,2824 3498,2823 3495,2820 3495,2819 3494,2818 3494,2817 3493,2816 3493,2815 3492,2814 3492,2813 3491,2812 3491,2811 3487,2807 3487,2806 3485,2804 3485,2803 3484,2802 3484,2800 3483,2799 3483,2797 3482,2796 3482,2795 3481,2794 3481,2791 3480,2790 3480,2784 3479,2783 3479,2779 3478,2778 3478,2776 3477,2775 3477,2773 3476,2772 3476,2771 3475,2770 3475,2769 3474,2768 3474,2766 3473,2765 3473,2764 3472,2763 3472,2762 3471,2761 3471,2760 3470,2759 3470,2757 3469,2756 3469,2751 3468,2750 3468,2745 3467,2744 3467,2742 3465,2740 3465,2739 3462,2736 3462,2735 3460,2733 3460,2732 3459,2731 3459,2730 3457,2728 3457,2727 3456,2726 3456,2725 3455,2724 3455,2722 3454,2721 3454,2719 3453,2718 3453,2712 3452,2711 3452,2708 3451,2707 3451,2706 3450,2705 3450,2704 3449,2703 3449,2702 3448,2701 3448,2700 3446,2698 3446,2697 3445,2696 3445,2694 3444,2693 3444,2692 3443,2691 3443,2690 3441,2688 3441,2687 3440,2686 3440,2684 3439,2683 3439,2679 3438,2678 3438,2675 3437,2674 3437,2673 3436,2672 3436,2670 3435,2669 3435,2668 3434,2667 3434,2665 3433,2664 3433,2662 3432,2661 3432,2659 3431,2658 3431,2657 3430,2656 3430,2655 3429,2654 3429,2653 3428,2652 3428,2650 3427,2649 3427,2648 3426,2647 3426,2646 3425,2645 3425,2643 3424,2642 3424,2640 3423,2639 3423,2638 3422,2637 3422,2636 3417,2631 3416,2631 3415,2630 3414,2630 3413,2629 3411,2629 3410,2628 3408,2628 3407,2627 3403,2627 3402,2626 3400,2626 3399,2627 3389,2627 3388,2626 3362,2626 3361,2625 3294,2625 3293,2626 3281,2626 3280,2627 3253,2627 3252,2626 3237,2626 3236,2627 3222,2627 3221,2626 3208,2626 3207,2625 3172,2625 3171,2626 3145,2626 3144,2627 3136,2627 3135,2626 3115,2626 3114,2627 3079,2627 3078,2626 3056,2626 3055,2627 3050,2627 3049,2628 3041,2628 3040,2627 3034,2627 3033,2626 3032,2626 3031,2627 3021,2627 3020,2628 3006,2628 3005,2629 2993,2629 2992,2628 2989,2628 2988,2627 2907,2627 2906,2628 2882,2628 2881,2627 2873,2627 2872,2628 2857,2628 2856,2629 2790,2629 2789,2628 2764,2628 2763,2627 2722,2627 2721,2626 2714,2626 2713,2625 2707,2625 2706,2626 2700,2626 2699,2625 2695,2625 2694,2624 2691,2624 2690,2623 2673,2623 2672,2622 2668,2622 2667,2621" fill="rgba(20,160,203,0.3)" stroke="rgb(20,160,203)" stroke-width="2" data-block-id="0008" data-name="b-0012" /><text x="3058" y="2791" text-anchor="middle" dominant-baseline="middle" class="block-label" fill="rgb(20,160,203)" stroke="white" stroke-width="3" paint-order="stroke">b-0012</text><polygon points="3275,740 3274,741 3259,741 3258,742 3239,742 3238,741 3235,741 3234,742 3197,742 3196,741 3183,741 3182,742 3126,742 3125,743 3065,743 3064,744 3060,744 3059,745 3038,745 3037,746 3029,746 3028,747 3027,747 3026,748 3023,748 3022,749 3018,749 3017,750 3013,750 3012,751 3010,751 3009,750 3007,750 3006,749 3004,749 3003,748 3002,748 3001,747 2996,747 2995,748 2994,748 2993,749 2991,749 2990,750 2989,750 2988,751 2986,751 2985,752 2980,752 2979,753 2974,753 2973,754 2969,754 2968,755 2965,755 2964,756 2963,756 2962,755 2960,755 2957,752 2956,752 2953,749 2952,749 2951,748 2944,748 2943,749 2939,749 2938,750 2929,750 2928,751 2921,751 2920,752 2913,752 2912,751 2911,751 2910,750 2909,750 2908,749 2907,749 2906,748 2905,748 2904,747 2896,747 2895,748 2891,748 2890,749 2887,749 2886,750 2884,750 2883,751 2882,751 2881,752 2879,752 2878,753 2877,753 2874,756 2873,756 2872,757 2872,758 2871,759 2871,760 2870,761 2870,765 2869,766 2869,769 2870,770 2870,774 2871,775 2871,778 2872,779 2872,781 2873,782 2873,783 2876,786 2876,787 2879,790 2879,791 2881,793 2881,795 2882,796 2882,798 2883,799 2883,802 2884,803 2884,806 2885,807 2885,809 2886,810 2886,812 2887,813 2887,815 2888,816 2888,824 2889,825 2889,829 2890,830 2890,831 2891,832 2891,833 2892,834 2892,835 2893,836 2893,837 2895,839 2895,840 2896,841 2896,843 2897,844 2897,845 2898,846 2898,847 2899,848 2899,849 2900,850 2900,851 2901,852 2901,853 2903,855 2903,856 2904,857 2904,859 2905,860 2905,862 2906,863 2906,868 2907,869 2907,874 2908,875 2908,878 2909,879 2909,881 2910,882 2910,884 2911,885 2911,887 2912,888 2912,890 2913,891 2913,892 2914,893 2914,894 2915,895 2915,897 2916,898 2916,899 2917,900 2917,902 2918,903 2918,904 2919,905 2919,907 2921,909 2921,913 2920,914 2920,915 2919,916 2919,918 2918,919 2918,925 2920,927 2920,929 2921,930 2921,931 2922,932 2922,934 2923,935 2923,937 2924,938 2924,940 2925,941 2925,944 2926,945 2926,947 2927,948 2927,949 2928,950 2928,951 2929,952 2929,953 2930,954 2930,955 2931,956 2931,957 2932,958 2932,960 2933,961 2933,964 2934,965 2934,967 2935,968 2935,971 2936,972 2936,973 2937,974 2937,976 2939,978 2939,979 2940,980 2940,981 2941,982 2941,983 2943,985 2943,986 2944,987 2944,988 2945,989 2945,991 2946,992 2946,994 2947,995 2947,997 2948,998 2948,999 2949,1000 2949,1002 2950,1003 2950,1004 2951,1005 2951,1007 2952,1008 2952,1010 2953,1011 2953,1013 2954,1014 2954,1017 2955,1018 2955,1020 2956,1021 2956,1023 2957,1024 2957,1026 2958,1027 2958,1029 2959,1030 2959,1032 2960,1033 2960,1034 2961,1035 2961,1036 2962,1037 2962,1038 2963,1039 2963,1041 2964,1042 2964,1043 2965,1044 2965,1045 2966,1046 2966,1047 2967,1048 2967,1049 2968,1050 2968,1051 2969,1052 2969,1054 2970,1055 2970,1057 2971,1058 2971,1061 2972,1062 2972,1065 2973,1066 2973,1068 2974,1069 2974,1070 2975,1071 2975,1072 2976,1073 2976,1074 2977,1075 2977,1076 2978,1077 2978,1078 2979,1079 2979,1080 2980,1081 2980,1082 2981,1083 2981,1084 2982,1085 2982,1087 2983,1088 2983,1089 2984,1090 2984,1091 2985,1092 2985,1093 2987,1095 2988,1095 2989,1096 2990,1096 2991,1097 2993,1097 2994,1098 2996,1098 2997,1099 3002,1099 3003,1100 3093,1100 3094,1099 3111,1099 3112,1098 3115,1098 3116,1097 3118,1097 3119,1096 3125,1096 3126,1095 3146,1095 3147,1094 3197,1094 3198,1093 3211,1093 3212,1092 3279,1092 3280,1093 3312,1093 3313,1094 3318,1094 3319,1095 3352,1095 3353,1094 3358,1094 3359,1095 3375,1095 3376,1094 3383,1094 3384,1093 3387,1093 3388,1092 3462,1092 3463,1091 3483,1091 3484,1092 3504,1092 3505,1093 3520,1093 3521,1092 3526,1092 3527,1093 3540,1093 3541,1092 3566,1092 3567,1091 3574,1091 3575,1092 3591,1092 3592,1091 3594,1091 3595,1092 3599,1092 3600,1093 3612,1093 3613,1092 3626,1092 3627,1093 3634,1093 3635,1092 3697,1092 3698,1093 3705,1093 3706,1092 3723,1092 3724,1093 3727,1093 3728,1092 3741,1092 3742,1093 3769,1093 3770,1094 3793,1094 3794,1095 3804,1095 3805,1096 3835,1096 3836,1095 3860,1095 3861,1096 3872,1096 3873,1095 3983,1095 3984,1094 4003,1094 4004,1093 4011,1093 4012,1092 4015,1092 4016,1091 4017,1091 4020,1088 4020,1087 4019,1086 4019,1077 4020,1076 4020,1075 4021,1074 4021,1073 4022,1072 4022,1068 4023,1067 4023,1064 4022,1063 4022,1048 4023,1047 4023,1037 4022,1036 4022,1029 4023,1028 4023,1024 4024,1023 4024,1019 4025,1018 4025,1014 4024,1013 4024,994 4023,993 4023,977 4024,976 4024,963 4023,962 4023,938 4022,937 4022,934 4023,933 4023,916 4022,915 4022,899 4021,898 4021,881 4022,880 4022,863 4021,862 4021,857 4020,856 4020,835 4021,834 4021,810 4020,809 4020,802 4019,801 4019,797 4018,796 4018,789 4019,788 4019,785 4020,784 4020,771 4021,770 4020,769 4020,767 4019,766 4019,765 4017,763 4017,762 4015,760 4015,759 4014,758 4014,757 4011,754 4011,753 4010,752 4009,752 4007,750 4006,750 4002,746 4000,746 3999,745 3915,745 3914,744 3910,744 3909,743 3883,743 3882,742 3814,742 3813,741 3738,741 3737,740 3736,740 3735,741 3720,741 3719,740 3705,740 3704,741 3699,741 3698,740 3677,740 3676,741 3602,741 3601,740 3562,740 3561,741 3545,741 3544,742 3528,742 3527,743 3510,743 3509,742 3473,742 3472,743 3462,743 3461,742 3453,742 3452,741 3447,741 3446,742 3433,742 3432,741 3423,741 3422,742 3410,742 3409,741 3396,741 3395,742 3389,742 3388,741 3361,741 3360,740 3347,740 3346,741 3341,741 3340,740 3303,740 3302,741 3293,741 3292,740" fill="rgba(57,21,252,0.3)" stroke="rgb(57,21,252)" stroke-width="2" data-block-id="0009" data-name="b-0013" /><text x="3255" y="908" text-anchor="middle" dominant-baseline="middle" class="block-label" fill="rgb(57,21,252)" stroke="white" stroke-width="3" paint-order="stroke">b-0013</text><polygon points="3068,2151 3067,2152 3008,2152 3007,2153 3003,2153 3002,2154 2988,2154 2987,2155 2980,2155 2979,2156 2954,2156 2953,2157 2948,2157 2947,2156 2942,2156 2941,2155 2931,2155 2930,2154 2909,2154 2908,2155 2899,2155 2898,2154 2894,2154 2893,2153 2887,2153 2886,2154 2864,2154 2863,2155 2859,2155 2858,2156 2850,2156 2849,2155 2812,2155 2811,2156 2802,2156 2801,2155 2789,2155 2788,2154 2768,2154 2767,2155 2762,2155 2761,2156 2734,2156 2733,2157 2721,2157 2720,2156 2713,2156 2712,2155 2705,2155 2704,2154 2631,2154 2630,2155 2589,2155 2588,2156 2534,2156 2533,2155 2527,2155 2526,2154 2516,2154 2515,2155 2510,2155 2509,2156 2507,2156 2506,2155 2432,2155 2431,2154 2417,2154 2416,2155 2386,2155 2385,2156 2379,2156 2378,2157 2377,2157 2376,2158 2375,2158 2373,2160 2373,2161 2372,2162 2372,2164 2371,2165 2371,2169 2370,2170 2370,2175 2369,2176 2369,2181 2368,2182 2368,2200 2369,2201 2369,2218 2368,2219 2368,2242 2367,2243 2367,2253 2366,2254 2366,2262 2365,2263 2365,2278 2366,2279 2366,2281 2365,2282 2365,2298 2366,2299 2366,2309 2365,2310 2365,2314 2364,2315 2365,2316 2365,2319 2366,2320 2366,2322 2367,2323 2367,2324 2368,2325 2368,2326 2369,2327 2369,2334 2368,2335 2368,2384 2367,2385 2367,2388 2368,2389 2368,2394 2369,2395 2369,2408 2368,2409 2368,2420 2369,2421 2369,2453 2368,2454 2368,2475 2367,2476 2367,2507 2372,2512 2373,2512 2375,2514 2376,2514 2377,2515 2379,2515 2380,2516 2384,2516 2385,2517 2409,2517 2410,2518 2430,2518 2431,2517 2442,2517 2443,2518 2466,2518 2467,2519 2475,2519 2476,2518 2478,2518 2479,2517 2482,2517 2483,2516 2487,2516 2488,2517 2491,2517 2492,2518 2499,2518 2500,2517 2502,2517 2503,2516 2506,2516 2507,2515 2514,2515 2515,2516 2523,2516 2524,2515 2528,2515 2529,2514 2536,2514 2537,2513 2566,2513 2567,2512 2586,2512 2587,2511 2631,2511 2632,2510 2664,2510 2665,2511 2690,2511 2691,2512 2697,2512 2698,2513 2730,2513 2731,2514 2737,2514 2738,2513 2762,2513 2763,2514 2768,2514 2769,2515 2780,2515 2781,2514 2784,2514 2785,2515 2802,2515 2803,2514 2828,2514 2829,2513 2832,2513 2833,2514 2839,2514 2840,2515 2845,2515 2846,2514 2851,2514 2852,2513 2858,2513 2859,2514 2863,2514 2864,2515 2875,2515 2876,2514 2908,2514 2909,2515 2921,2515 2922,2514 2931,2514 2932,2515 2942,2515 2943,2514 2948,2514 2949,2513 2951,2513 2952,2514 2957,2514 2958,2515 2966,2515 2967,2514 2974,2514 2975,2513 3005,2513 3006,2514 3014,2514 3015,2513 3032,2513 3033,2514 3035,2514 3036,2513 3050,2513 3051,2514 3064,2514 3065,2513 3076,2513 3077,2514 3110,2514 3111,2513 3120,2513 3121,2512 3125,2512 3126,2511 3171,2511 3172,2510 3180,2510 3181,2511 3184,2511 3185,2512 3218,2512 3219,2513 3244,2513 3245,2514 3251,2514 3252,2513 3301,2513 3302,2512 3351,2512 3352,2511 3360,2511 3361,2510 3366,2510 3367,2509 3368,2509 3369,2508 3369,2506 3370,2505 3369,2504 3369,2501 3368,2500 3368,2499 3367,2498 3367,2497 3366,2496 3366,2494 3365,2493 3365,2492 3364,2491 3364,2490 3363,2489 3363,2487 3362,2486 3362,2484 3361,2483 3361,2479 3360,2478 3360,2472 3359,2471 3359,2468 3358,2467 3358,2466 3357,2465 3357,2464 3356,2463 3356,2462 3354,2460 3354,2459 3353,2458 3353,2457 3352,2456 3352,2454 3351,2453 3351,2452 3350,2451 3350,2450 3349,2449 3349,2446 3348,2445 3348,2441 3347,2440 3347,2436 3346,2435 3346,2433 3345,2432 3345,2431 3344,2430 3344,2429 3343,2428 3343,2427 3342,2426 3342,2425 3341,2424 3341,2422 3340,2421 3340,2420 3339,2419 3339,2418 3338,2417 3338,2416 3334,2412 3334,2411 3333,2410 3333,2408 3334,2407 3334,2399 3333,2398 3333,2397 3327,2391 3327,2390 3326,2389 3326,2388 3325,2387 3325,2385 3324,2384 3324,2383 3323,2382 3323,2380 3322,2379 3322,2378 3321,2377 3321,2376 3320,2375 3320,2374 3319,2373 3319,2372 3317,2370 3317,2368 3316,2367 3316,2366 3315,2365 3315,2362 3314,2361 3314,2356 3313,2355 3313,2351 3312,2350 3312,2347 3311,2346 3311,2344 3310,2343 3310,2340 3309,2339 3309,2335 3308,2334 3308,2332 3307,2331 3307,2329 3306,2328 3306,2327 3303,2324 3303,2323 3299,2319 3299,2318 3297,2316 3297,2315 3295,2313 3295,2312 3294,2311 3294,2309 3293,2308 3293,2305 3292,2304 3292,2301 3291,2300 3291,2298 3290,2297 3290,2294 3289,2293 3289,2290 3288,2289 3288,2284 3287,2283 3287,2280 3286,2279 3286,2278 3285,2277 3285,2276 3284,2275 3284,2274 3282,2272 3282,2271 3280,2269 3280,2268 3279,2267 3279,2265 3278,2264 3278,2262 3277,2261 3277,2260 3276,2259 3276,2257 3275,2256 3275,2255 3274,2254 3274,2253 3273,2252 3273,2251 3272,2250 3272,2249 3271,2248 3271,2247 3270,2246 3270,2245 3269,2244 3269,2243 3268,2242 3268,2241 3267,2240 3267,2237 3266,2236 3266,2233 3265,2232 3265,2230 3264,2229 3264,2228 3263,2227 3263,2226 3262,2225 3262,2223 3261,2222 3261,2219 3260,2218 3260,2210 3259,2209 3259,2207 3258,2206 3258,2205 3257,2204 3257,2203 3256,2202 3256,2201 3255,2200 3255,2199 3254,2198 3254,2197 3253,2196 3253,2194 3252,2193 3252,2192 3251,2191 3251,2190 3250,2189 3250,2188 3249,2187 3249,2186 3248,2185 3248,2184 3247,2183 3247,2182 3246,2181 3246,2180 3245,2179 3245,2178 3244,2177 3244,2175 3243,2174 3243,2173 3242,2172 3242,2170 3241,2169 3241,2167 3240,2166 3240,2164 3239,2163 3239,2162 3237,2160 3236,2160 3235,2159 3228,2159 3227,2158 3221,2158 3220,2157 3215,2157 3214,2156 3206,2156 3205,2157 3198,2157 3197,2156 3172,2156 3171,2155 3165,2155 3164,2154 3155,2154 3154,2153 3138,2153 3137,2154 3128,2154 3127,2153 3124,2153 3123,2152 3120,2152 3119,2151" fill="rgba(218,58,254,0.3)" stroke="rgb(218,58,254)" stroke-width="2" data-block-id="0010" data-name="b-0015" /><text x="2987" y="2341" text-anchor="middle" dominant-baseline="middle" class="block-label" fill="rgb(218,58,254)" stroke="white" stroke-width="3" paint-order="stroke">b-0015</text><polygon points="2698,1685 2697,1686 2692,1686 2691,1687 2689,1687 2688,1688 2682,1688 2681,1689 2673,1689 2672,1690 2669,1690 2668,1691 2660,1691 2659,1690 2655,1690 2654,1689 2645,1689 2644,1688 2633,1688 2632,1689 2629,1689 2628,1688 2621,1688 2620,1687 2611,1687 2610,1686 2536,1686 2535,1687 2524,1687 2523,1688 2518,1688 2517,1687 2499,1687 2498,1686 2494,1686 2493,1687 2480,1687 2479,1686 2464,1686 2463,1687 2431,1687 2430,1686 2419,1686 2418,1687 2380,1687 2379,1688 2377,1688 2376,1689 2375,1689 2373,1691 2373,1692 2372,1693 2372,1696 2371,1697 2371,1719 2370,1720 2370,1729 2371,1730 2371,1737 2370,1738 2370,1747 2371,1748 2371,1767 2370,1768 2370,1774 2371,1775 2371,1800 2370,1801 2370,1810 2371,1811 2371,1833 2370,1834 2370,1867 2369,1868 2369,1889 2370,1890 2370,1911 2369,1912 2369,1921 2368,1922 2368,1932 2369,1933 2369,1938 2368,1939 2368,1950 2369,1951 2369,1955 2370,1956 2370,1970 2369,1971 2369,2000 2370,2001 2370,2034 2371,2035 2371,2038 2372,2039 2372,2040 2375,2043 2377,2043 2378,2044 2386,2044 2387,2045 2419,2045 2420,2046 2425,2046 2426,2045 2434,2045 2435,2044 2443,2044 2444,2045 2469,2045 2470,2044 2492,2044 2493,2045 2529,2045 2530,2044 2539,2044 2540,2043 2571,2043 2572,2042 2581,2042 2582,2041 2615,2041 2616,2040 2625,2040 2626,2039 2652,2039 2653,2040 2667,2040 2668,2041 2673,2041 2674,2042 2682,2042 2683,2041 2703,2041 2704,2042 2717,2042 2718,2043 2735,2043 2736,2044 2752,2044 2753,2043 2762,2043 2763,2044 2767,2044 2768,2045 2839,2045 2840,2046 2845,2046 2846,2045 2862,2045 2863,2046 2873,2046 2874,2045 2951,2045 2952,2044 2994,2044 2995,2043 3052,2043 3053,2042 3066,2042 3067,2041 3068,2041 3069,2042 3074,2042 3075,2043 3091,2043 3092,2042 3113,2042 3114,2043 3134,2043 3135,2042 3151,2042 3152,2041 3180,2041 3181,2040 3182,2040 3183,2039 3184,2039 3185,2038 3186,2038 3187,2037 3187,2036 3189,2034 3189,2029 3188,2028 3188,2025 3187,2024 3187,2022 3186,2021 3186,2019 3185,2018 3185,2016 3184,2015 3184,2013 3183,2012 3183,2011 3182,2010 3182,2008 3181,2007 3181,2005 3180,2004 3180,2002 3179,2001 3179,1998 3178,1997 3178,1995 3177,1994 3177,1993 3176,1992 3176,1990 3175,1989 3175,1988 3174,1987 3174,1985 3173,1984 3173,1983 3172,1982 3172,1980 3171,1979 3171,1978 3170,1977 3170,1976 3169,1975 3169,1974 3168,1973 3168,1971 3167,1970 3167,1968 3166,1967 3166,1965 3165,1964 3165,1962 3164,1961 3164,1959 3163,1958 3163,1957 3162,1956 3162,1955 3161,1954 3161,1952 3160,1951 3160,1950 3159,1949 3159,1948 3158,1947 3158,1945 3157,1944 3157,1942 3156,1941 3156,1939 3155,1938 3155,1936 3154,1935 3154,1934 3153,1933 3153,1932 3152,1931 3152,1929 3151,1928 3151,1927 3150,1926 3150,1924 3149,1923 3149,1922 3148,1921 3148,1920 3147,1919 3147,1917 3146,1916 3146,1915 3145,1914 3145,1912 3144,1911 3144,1910 3143,1909 3143,1907 3142,1906 3142,1904 3141,1903 3141,1902 3140,1901 3140,1899 3139,1898 3139,1897 3138,1896 3138,1894 3137,1893 3137,1891 3136,1890 3136,1889 3135,1888 3135,1886 3134,1885 3134,1884 3133,1883 3133,1881 3132,1880 3132,1879 3131,1878 3131,1876 3130,1875 3130,1873 3129,1872 3129,1871 3128,1870 3128,1869 3127,1868 3127,1867 3126,1866 3126,1864 3125,1863 3125,1861 3124,1860 3124,1857 3123,1856 3123,1853 3122,1852 3122,1850 3121,1849 3121,1848 3120,1847 3120,1845 3119,1844 3119,1842 3118,1841 3118,1840 3117,1839 3117,1837 3116,1836 3116,1834 3115,1833 3115,1832 3114,1831 3114,1829 3113,1828 3113,1827 3112,1826 3112,1824 3111,1823 3111,1822 3110,1821 3110,1818 3109,1817 3109,1816 3108,1815 3108,1814 3107,1813 3107,1811 3106,1810 3106,1809 3105,1808 3105,1807 3104,1806 3104,1805 3103,1804 3103,1803 3102,1802 3102,1800 3101,1799 3101,1798 3100,1797 3100,1795 3099,1794 3099,1792 3098,1791 3098,1790 3097,1789 3097,1787 3096,1786 3096,1785 3095,1784 3095,1782 3094,1781 3094,1779 3093,1778 3093,1776 3092,1775 3092,1773 3091,1772 3091,1770 3090,1769 3090,1768 3089,1767 3089,1766 3088,1765 3088,1763 3087,1762 3087,1761 3086,1760 3086,1758 3085,1757 3085,1755 3084,1754 3084,1752 3083,1751 3083,1749 3082,1748 3082,1747 3081,1746 3081,1745 3080,1744 3080,1743 3079,1742 3079,1741 3078,1740 3078,1739 3077,1738 3077,1736 3076,1735 3076,1733 3075,1732 3075,1730 3074,1729 3074,1727 3073,1726 3073,1725 3072,1724 3072,1722 3071,1721 3071,1719 3070,1718 3070,1717 3069,1716 3069,1714 3068,1713 3068,1711 3067,1710 3067,1708 3066,1707 3066,1706 3065,1705 3065,1703 3064,1702 3064,1700 3063,1699 3063,1697 3061,1695 3061,1694 3059,1692 3058,1692 3057,1691 3056,1691 3055,1690 3049,1690 3048,1689 3023,1689 3022,1690 3006,1690 3005,1689 2977,1689 2976,1688 2929,1688 2928,1689 2927,1689 2926,1688 2919,1688 2918,1687 2910,1687 2909,1688 2888,1688 2887,1687 2880,1687 2879,1686 2866,1686 2865,1687 2854,1687 2853,1688 2852,1688 2851,1687 2842,1687 2841,1688 2813,1688 2812,1689 2804,1689 2803,1688 2800,1688 2799,1687 2796,1687 2795,1686 2788,1686 2787,1687 2773,1687 2772,1686 2708,1686 2707,1685" fill="rgba(207,14,189,0.3)" stroke="rgb(207,14,189)" stroke-width="2" data-block-id="0011" data-name="b-0017" /><text x="2911" y="1858" text-anchor="middle" dominant-baseline="middle" class="block-label" fill="rgb(207,14,189)" stroke="white" stroke-width="3" paint-order="stroke">b-0017</text><polygon points="3881,1684 3880,1685 3865,1685 3864,1686 3854,1686 3853,1687 3845,1687 3844,1688 3841,1688 3840,1689 3838,1689 3837,1690 3836,1690 3835,1691 3814,1691 3813,1690 3797,1690 3796,1689 3781,1689 3780,1688 3764,1688 3763,1687 3758,1687 3757,1688 3745,1688 3744,1687 3708,1687 3707,1688 3697,1688 3696,1687 3666,1687 3665,1688 3659,1688 3658,1689 3644,1689 3643,1690 3605,1690 3604,1689 3599,1689 3598,1688 3596,1688 3595,1687 3571,1687 3570,1688 3564,1688 3563,1689 3559,1689 3558,1690 3554,1690 3553,1691 3529,1691 3528,1692 3523,1692 3522,1693 3450,1693 3449,1694 3434,1694 3433,1693 3420,1693 3419,1694 3412,1694 3411,1693 3387,1693 3386,1692 3338,1692 3337,1691 3329,1691 3328,1690 3323,1690 3322,1689 3314,1689 3313,1688 3300,1688 3299,1689 3291,1689 3290,1688 3281,1688 3280,1689 3236,1689 3235,1690 3232,1690 3231,1691 3229,1691 3228,1692 3226,1692 3223,1695 3223,1696 3222,1697 3222,1703 3223,1704 3223,1710 3224,1711 3224,1713 3225,1714 3225,1716 3226,1717 3226,1719 3227,1720 3227,1722 3228,1723 3228,1725 3229,1726 3229,1728 3230,1729 3230,1731 3231,1732 3231,1734 3232,1735 3232,1737 3233,1738 3233,1739 3234,1740 3234,1742 3235,1743 3235,1745 3236,1746 3236,1747 3237,1748 3237,1749 3238,1750 3238,1752 3239,1753 3239,1755 3240,1756 3240,1758 3241,1759 3241,1761 3242,1762 3242,1763 3243,1764 3243,1766 3244,1767 3244,1768 3245,1769 3245,1771 3246,1772 3246,1774 3247,1775 3247,1777 3248,1778 3248,1779 3249,1780 3249,1781 3250,1782 3250,1783 3251,1784 3251,1785 3252,1786 3252,1788 3253,1789 3253,1790 3254,1791 3254,1793 3255,1794 3255,1796 3256,1797 3256,1799 3257,1800 3257,1801 3258,1802 3258,1804 3259,1805 3259,1807 3260,1808 3260,1809 3261,1810 3261,1812 3262,1813 3262,1814 3263,1815 3263,1817 3264,1818 3264,1820 3265,1821 3265,1823 3266,1824 3266,1827 3267,1828 3267,1830 3268,1831 3268,1832 3269,1833 3269,1835 3270,1836 3270,1838 3271,1839 3271,1840 3272,1841 3272,1843 3273,1844 3273,1846 3274,1847 3274,1849 3275,1850 3275,1852 3276,1853 3276,1854 3277,1855 3277,1856 3278,1857 3278,1858 3279,1859 3279,1860 3280,1861 3280,1862 3281,1863 3281,1864 3282,1865 3282,1867 3283,1868 3283,1870 3284,1871 3284,1874 3285,1875 3285,1878 3286,1879 3286,1880 3287,1881 3287,1882 3288,1883 3288,1884 3289,1885 3289,1887 3290,1888 3290,1890 3291,1891 3291,1893 3292,1894 3292,1896 3293,1897 3293,1899 3294,1900 3294,1902 3295,1903 3295,1904 3296,1905 3296,1906 3297,1907 3297,1908 3299,1910 3299,1911 3300,1912 3300,1913 3301,1914 3301,1916 3302,1917 3302,1919 3303,1920 3303,1922 3304,1923 3304,1925 3305,1926 3305,1928 3306,1929 3306,1930 3307,1931 3307,1933 3308,1934 3308,1936 3309,1937 3309,1938 3310,1939 3310,1941 3311,1942 3311,1944 3312,1945 3312,1947 3313,1948 3313,1949 3314,1950 3314,1952 3315,1953 3315,1955 3316,1956 3316,1958 3317,1959 3317,1961 3318,1962 3318,1963 3319,1964 3319,1965 3320,1966 3320,1967 3321,1968 3321,1969 3322,1970 3322,1971 3323,1972 3323,1974 3324,1975 3324,1977 3325,1978 3325,1981 3326,1982 3326,1984 3327,1985 3327,1988 3328,1989 3328,1991 3329,1992 3329,1993 3330,1994 3330,1996 3332,1998 3332,1999 3333,2000 3333,2001 3334,2002 3334,2003 3335,2004 3335,2006 3336,2007 3336,2009 3337,2010 3337,2013 3338,2014 3338,2016 3339,2017 3339,2020 3340,2021 3340,2022 3341,2023 3341,2024 3342,2025 3342,2026 3344,2028 3344,2029 3346,2031 3346,2032 3352,2038 3353,2038 3354,2039 3356,2039 3357,2040 3362,2040 3363,2041 3370,2041 3371,2042 3376,2042 3377,2043 3382,2043 3383,2042 3389,2042 3390,2041 3394,2041 3395,2042 3419,2042 3420,2043 3432,2043 3433,2042 3447,2042 3448,2043 3455,2043 3456,2042 3469,2042 3470,2043 3478,2043 3479,2042 3494,2042 3495,2043 3502,2043 3503,2042 3508,2042 3509,2041 3520,2041 3521,2042 3522,2042 3523,2041 3537,2041 3538,2042 3543,2042 3544,2043 3549,2043 3550,2042 3567,2042 3568,2043 3572,2043 3573,2042 3580,2042 3581,2041 3584,2041 3585,2042 3603,2042 3604,2041 3614,2041 3615,2040 3649,2040 3650,2039 3676,2039 3677,2040 3698,2040 3699,2039 3700,2039 3701,2040 3709,2040 3710,2041 3717,2041 3718,2040 3744,2040 3745,2039 3752,2039 3753,2040 3757,2040 3758,2041 3764,2041 3765,2040 3771,2040 3772,2039 3780,2039 3781,2040 3802,2040 3803,2041 3812,2041 3813,2040 3819,2040 3820,2039 3855,2039 3856,2040 3861,2040 3862,2039 3880,2039 3881,2040 3913,2040 3914,2039 3938,2039 3939,2040 4016,2040 4017,2039 4025,2039 4029,2035 4029,2034 4030,2033 4030,2021 4031,2020 4031,1981 4030,1980 4030,1961 4029,1960 4029,1944 4030,1943 4030,1940 4031,1939 4031,1932 4030,1931 4030,1922 4029,1921 4029,1903 4030,1902 4030,1889 4029,1888 4029,1876 4028,1875 4028,1857 4029,1856 4029,1846 4028,1845 4028,1834 4029,1833 4029,1802 4028,1801 4028,1785 4029,1784 4029,1780 4028,1779 4028,1775 4027,1774 4027,1770 4026,1769 4026,1768 4027,1767 4027,1761 4028,1760 4028,1751 4027,1750 4027,1698 4026,1697 4026,1695 4025,1694 4025,1692 4023,1690 4022,1690 4021,1689 4019,1689 4018,1688 4014,1688 4013,1687 4002,1687 4001,1686 3975,1686 3974,1685 3934,1685 3933,1684" fill="rgba(189,174,189,0.3)" stroke="rgb(189,174,189)" stroke-width="2" data-block-id="0012" data-name="b-0018" /><text x="3493" y="1865" text-anchor="middle" dominant-baseline="middle" class="block-label" fill="rgb(189,174,189)" stroke="white" stroke-width="3" paint-order="stroke">b-0018</text><polygon points="2380,1216 2379,1217 2375,1217 2374,1218 2373,1218 2372,1219 2370,1219 2366,1223 2366,1224 2365,1225 2365,1228 2364,1229 2364,1245 2365,1246 2365,1252 2366,1253 2366,1264 2365,1265 2365,1275 2364,1276 2364,1295 2363,1296 2363,1305 2362,1306 2362,1318 2363,1319 2363,1323 2364,1324 2364,1326 2365,1327 2365,1330 2366,1331 2366,1332 2367,1333 2367,1334 2368,1335 2368,1337 2369,1338 2369,1339 2370,1340 2370,1344 2369,1345 2369,1362 2370,1363 2370,1366 2369,1367 2369,1382 2370,1383 2370,1432 2371,1433 2371,1559 2372,1560 2372,1566 2375,1569 2376,1569 2377,1570 2378,1570 2379,1571 2386,1571 2387,1572 2399,1572 2400,1571 2404,1571 2405,1572 2434,1572 2435,1571 2451,1571 2452,1572 2471,1572 2472,1573 2476,1573 2477,1572 2504,1572 2505,1573 2514,1573 2515,1572 2539,1572 2540,1571 2555,1571 2556,1572 2563,1572 2564,1571 2573,1571 2574,1572 2623,1572 2624,1571 2657,1571 2658,1570 2665,1570 2666,1569 2671,1569 2672,1568 2690,1568 2691,1567 2710,1567 2711,1568 2752,1568 2753,1569 2757,1569 2758,1570 2763,1570 2764,1571 2832,1571 2833,1572 2875,1572 2876,1571 2947,1571 2948,1570 2953,1570 2954,1571 2986,1571 2987,1570 3001,1570 3002,1569 3004,1569 3005,1568 3007,1568 3009,1566 3009,1557 3008,1556 3008,1552 3007,1551 3007,1549 3006,1548 3006,1546 3005,1545 3005,1543 3004,1542 3004,1539 3003,1538 3003,1535 3002,1534 3002,1532 3001,1531 3001,1529 3000,1528 3000,1527 2999,1526 2999,1525 2998,1524 2998,1523 2997,1522 2997,1520 2996,1519 2996,1517 2995,1516 2995,1513 2994,1512 2994,1510 2993,1509 2993,1507 2992,1506 2992,1504 2991,1503 2991,1502 2989,1500 2989,1499 2986,1496 2986,1495 2985,1494 2985,1492 2984,1491 2984,1488 2983,1487 2983,1484 2982,1483 2982,1482 2981,1481 2981,1479 2980,1478 2980,1476 2979,1475 2979,1474 2978,1473 2978,1471 2977,1470 2977,1467 2976,1466 2976,1463 2975,1462 2975,1460 2974,1459 2974,1458 2972,1456 2972,1455 2971,1454 2971,1453 2970,1452 2970,1451 2969,1450 2969,1448 2968,1447 2968,1445 2967,1444 2967,1443 2966,1442 2966,1440 2965,1439 2965,1438 2964,1437 2964,1436 2963,1435 2963,1434 2962,1433 2962,1432 2961,1431 2961,1430 2960,1429 2960,1428 2959,1427 2959,1425 2958,1424 2958,1421 2957,1420 2957,1417 2956,1416 2956,1413 2955,1412 2955,1410 2954,1409 2954,1407 2953,1406 2953,1405 2952,1404 2952,1403 2951,1402 2951,1400 2950,1399 2950,1398 2949,1397 2949,1396 2948,1395 2948,1394 2946,1392 2946,1391 2944,1389 2944,1388 2943,1387 2943,1385 2942,1384 2942,1381 2941,1380 2941,1375 2940,1374 2940,1367 2939,1366 2939,1363 2938,1362 2938,1361 2937,1360 2937,1358 2936,1357 2936,1355 2935,1354 2935,1352 2934,1351 2934,1350 2933,1349 2933,1348 2932,1347 2932,1345 2931,1344 2931,1343 2930,1342 2930,1341 2929,1340 2929,1338 2928,1337 2928,1336 2927,1335 2927,1333 2926,1332 2926,1330 2925,1329 2925,1328 2924,1327 2924,1326 2923,1325 2923,1323 2922,1322 2922,1321 2921,1320 2921,1318 2920,1317 2920,1315 2919,1314 2919,1312 2918,1311 2918,1309 2917,1308 2917,1306 2916,1305 2916,1304 2915,1303 2915,1302 2914,1301 2914,1299 2913,1298 2913,1297 2912,1296 2912,1294 2911,1293 2911,1291 2910,1290 2910,1289 2909,1288 2909,1287 2908,1286 2908,1285 2907,1284 2907,1282 2906,1281 2906,1280 2905,1279 2905,1277 2904,1276 2904,1274 2903,1273 2903,1272 2902,1271 2902,1269 2901,1268 2901,1266 2900,1265 2900,1263 2899,1262 2899,1260 2898,1259 2898,1257 2897,1256 2897,1254 2896,1253 2896,1252 2895,1251 2895,1249 2894,1248 2894,1247 2893,1246 2893,1245 2892,1244 2892,1242 2891,1241 2891,1239 2890,1238 2890,1237 2889,1236 2889,1235 2888,1234 2888,1232 2887,1231 2887,1228 2886,1227 2886,1224 2885,1223 2885,1221 2881,1217 2879,1217 2878,1216 2706,1216 2705,1217 2672,1217 2671,1218 2620,1218 2619,1217 2613,1217 2612,1218 2600,1218 2599,1217 2555,1217 2554,1216" fill="rgba(50,107,54,0.3)" stroke="rgb(50,107,54)" stroke-width="2" data-block-id="0013" data-name="b-0019" /><text x="2799" y="1400" text-anchor="middle" dominant-baseline="middle" class="block-label" fill="rgb(50,107,54)" stroke="white" stroke-width="3" paint-order="stroke">b-0019</text><polygon points="3582,2150 3581,2151 3578,2151 3577,2152 3574,2152 3573,2153 3531,2153 3530,2154 3502,2154 3501,2155 3493,2155 3492,2154 3467,2154 3466,2153 3461,2153 3460,2154 3441,2154 3440,2155 3432,2155 3431,2154 3427,2154 3426,2155 3413,2155 3412,2156 3410,2156 3409,2157 3408,2157 3407,2158 3406,2158 3403,2161 3403,2162 3402,2163 3402,2169 3401,2170 3401,2174 3402,2175 3402,2178 3403,2179 3403,2181 3404,2182 3404,2185 3405,2186 3405,2188 3406,2189 3406,2191 3407,2192 3407,2194 3408,2195 3408,2197 3409,2198 3409,2200 3410,2201 3410,2202 3411,2203 3411,2204 3412,2205 3412,2207 3413,2208 3413,2210 3414,2211 3414,2214 3415,2215 3415,2218 3416,2219 3416,2221 3417,2222 3417,2224 3419,2226 3419,2227 3420,2228 3420,2230 3421,2231 3421,2232 3422,2233 3422,2235 3423,2236 3423,2237 3424,2238 3424,2240 3425,2241 3425,2242 3426,2243 3426,2245 3427,2246 3427,2247 3428,2248 3428,2249 3429,2250 3429,2251 3430,2252 3430,2253 3431,2254 3431,2256 3432,2257 3432,2259 3433,2260 3433,2261 3434,2262 3434,2265 3435,2266 3435,2268 3436,2269 3436,2270 3437,2271 3437,2272 3438,2273 3438,2274 3439,2275 3439,2276 3440,2277 3440,2279 3441,2280 3441,2281 3442,2282 3442,2283 3443,2284 3443,2286 3444,2287 3444,2289 3445,2290 3445,2293 3446,2294 3446,2296 3447,2297 3447,2298 3448,2299 3448,2301 3449,2302 3449,2304 3450,2305 3450,2306 3451,2307 3451,2308 3452,2309 3452,2311 3453,2312 3453,2313 3454,2314 3454,2315 3455,2316 3455,2318 3456,2319 3456,2320 3457,2321 3457,2323 3458,2324 3458,2326 3459,2327 3459,2329 3460,2330 3460,2331 3461,2332 3461,2333 3462,2334 3462,2335 3464,2337 3464,2338 3466,2340 3466,2341 3467,2342 3467,2343 3468,2344 3468,2345 3469,2346 3469,2349 3470,2350 3470,2352 3471,2353 3471,2356 3472,2357 3472,2359 3473,2360 3473,2362 3474,2363 3474,2364 3475,2365 3475,2367 3476,2368 3476,2371 3477,2372 3477,2374 3478,2375 3478,2377 3479,2378 3479,2381 3480,2382 3480,2384 3481,2385 3481,2387 3482,2388 3482,2391 3483,2392 3483,2394 3484,2395 3484,2397 3485,2398 3485,2399 3486,2400 3486,2402 3487,2403 3487,2404 3488,2405 3488,2407 3489,2408 3489,2410 3490,2411 3490,2413 3491,2414 3491,2416 3492,2417 3492,2419 3493,2420 3493,2422 3494,2423 3494,2425 3495,2426 3495,2429 3496,2430 3496,2434 3497,2435 3497,2437 3498,2438 3498,2440 3499,2441 3499,2442 3500,2443 3500,2444 3501,2445 3501,2446 3502,2447 3502,2448 3503,2449 3503,2450 3504,2451 3504,2452 3505,2453 3505,2455 3506,2456 3506,2458 3507,2459 3507,2460 3508,2461 3508,2463 3509,2464 3509,2466 3510,2467 3510,2468 3511,2469 3511,2471 3512,2472 3512,2473 3513,2474 3513,2475 3514,2476 3514,2477 3515,2478 3515,2479 3516,2480 3516,2482 3517,2483 3517,2485 3518,2486 3518,2488 3519,2489 3519,2491 3520,2492 3520,2494 3521,2495 3521,2497 3523,2499 3523,2500 3524,2501 3524,2502 3530,2508 3531,2508 3532,2509 3533,2509 3534,2510 3540,2510 3541,2511 3612,2511 3613,2512 3623,2512 3624,2511 3657,2511 3658,2510 3672,2510 3673,2511 3716,2511 3717,2512 3730,2512 3731,2511 3770,2511 3771,2512 3774,2512 3775,2511 3803,2511 3804,2512 3811,2512 3812,2511 3871,2511 3872,2510 3919,2510 3920,2509 3934,2509 3935,2510 3968,2510 3969,2509 3979,2509 3980,2510 4012,2510 4013,2509 4021,2509 4022,2508 4025,2508 4026,2507 4027,2507 4029,2505 4029,2504 4030,2503 4030,2500 4031,2499 4031,2457 4032,2456 4032,2440 4031,2439 4031,2390 4032,2389 4032,2384 4031,2383 4031,2368 4030,2367 4030,2331 4029,2330 4029,2326 4030,2325 4030,2311 4029,2310 4029,2299 4030,2298 4030,2281 4029,2280 4029,2279 4030,2278 4030,2263 4029,2262 4029,2250 4030,2249 4030,2235 4029,2234 4029,2233 4030,2232 4030,2213 4029,2212 4029,2160 4028,2159 4028,2158 4025,2155 4023,2155 4022,2154 4002,2154 4001,2153 3768,2153 3767,2154 3728,2154 3727,2153 3726,2154 3719,2154 3718,2155 3711,2155 3710,2154 3707,2154 3706,2153 3690,2153 3689,2154 3671,2154 3670,2155 3663,2155 3662,2154 3657,2154 3656,2153 3623,2153 3622,2154 3617,2154 3616,2153 3614,2153 3613,2152 3610,2152 3609,2151 3605,2151 3604,2150 3603,2151 3587,2151 3586,2150" fill="rgba(243,63,248,0.3)" stroke="rgb(243,63,248)" stroke-width="2" data-block-id="0014" data-name="b-0020" /><text x="3579" y="2323" text-anchor="middle" dominant-baseline="middle" class="block-label" fill="rgb(243,63,248)" stroke="white" stroke-width="3" paint-order="stroke">b-0020</text><polygon points="3958,2625 3957,2626 3872,2626 3871,2627 3816,2627 3815,2626 3800,2626 3799,2627 3654,2627 3653,2628 3605,2628 3604,2629 3597,2629 3596,2630 3595,2630 3595,2631 3594,2632 3594,2633 3593,2634 3593,2641 3594,2642 3594,2644 3595,2645 3595,2647 3596,2648 3596,2650 3597,2651 3597,2656 3598,2657 3598,2659 3599,2660 3599,2662 3600,2663 3600,2665 3601,2666 3601,2667 3602,2668 3602,2669 3604,2671 3604,2672 3605,2673 3605,2674 3606,2675 3606,2676 3607,2677 3607,2678 3608,2679 3608,2681 3609,2682 3609,2684 3610,2685 3610,2689 3611,2690 3611,2693 3612,2694 3612,2695 3613,2696 3613,2698 3614,2699 3614,2701 3615,2702 3615,2703 3616,2704 3616,2705 3617,2706 3617,2707 3618,2708 3618,2711 3619,2712 3619,2713 3620,2714 3620,2717 3621,2718 3621,2721 3622,2722 3622,2725 3623,2726 3623,2728 3624,2729 3624,2730 3625,2731 3625,2733 3626,2734 3626,2735 3627,2736 3627,2738 3628,2739 3628,2740 3629,2741 3629,2743 3630,2744 3630,2746 3631,2747 3631,2748 3632,2749 3632,2751 3633,2752 3633,2753 3634,2754 3634,2756 3635,2757 3635,2761 3636,2762 3636,2765 3637,2766 3637,2767 3638,2768 3638,2769 3641,2772 3641,2773 3642,2774 3642,2776 3643,2777 3643,2778 3644,2779 3644,2780 3645,2781 3645,2783 3646,2784 3646,2786 3647,2787 3647,2789 3648,2790 3648,2791 3649,2792 3649,2797 3648,2798 3648,2800 3647,2801 3647,2802 3646,2803 3646,2804 3645,2805 3645,2815 3646,2816 3646,2818 3647,2819 3647,2820 3648,2821 3648,2823 3649,2824 3649,2825 3650,2826 3650,2828 3651,2829 3651,2831 3652,2832 3652,2835 3653,2836 3653,2838 3654,2839 3654,2841 3655,2842 3655,2844 3656,2845 3656,2846 3657,2847 3657,2849 3658,2850 3658,2852 3659,2853 3659,2854 3660,2855 3660,2857 3661,2858 3661,2860 3662,2861 3662,2863 3663,2864 3663,2866 3664,2867 3664,2869 3665,2870 3665,2872 3666,2873 3666,2875 3667,2876 3667,2878 3668,2879 3668,2880 3669,2881 3669,2883 3670,2884 3670,2887 3671,2888 3671,2890 3672,2891 3672,2892 3673,2893 3673,2895 3674,2896 3674,2897 3675,2898 3675,2900 3676,2901 3676,2903 3677,2904 3677,2906 3678,2907 3678,2909 3679,2910 3679,2912 3680,2913 3680,2914 3681,2915 3681,2916 3682,2917 3682,2919 3683,2920 3683,2921 3684,2922 3684,2924 3685,2925 3685,2926 3686,2927 3686,2929 3687,2930 3687,2931 3688,2932 3688,2934 3689,2935 3689,2936 3690,2937 3690,2939 3691,2940 3691,2942 3692,2943 3692,2945 3693,2946 3693,2948 3694,2949 3694,2951 3695,2952 3695,2953 3696,2954 3696,2956 3697,2957 3697,2959 3698,2960 3698,2962 3699,2963 3699,2964 3700,2965 3700,2967 3701,2968 3701,2969 3702,2970 3702,2972 3703,2973 3703,2975 3704,2976 3704,2977 3705,2978 3705,2980 3706,2981 3706,2982 3707,2983 3707,2984 3708,2985 3708,2986 3710,2988 3711,2988 3712,2989 3713,2989 3714,2990 3721,2990 3722,2991 3729,2991 3730,2990 3763,2990 3764,2989 3779,2989 3780,2988 3794,2988 3795,2989 3796,2989 3797,2988 3806,2988 3807,2987 3877,2987 3878,2986 3884,2986 3885,2987 3910,2987 3911,2986 3945,2986 3946,2987 3971,2987 3972,2986 3978,2986 3979,2987 4027,2987 4028,2986 4030,2986 4031,2985 4033,2985 4034,2984 4034,2983 4035,2982 4035,2978 4036,2977 4036,2900 4035,2899 4035,2882 4034,2881 4034,2836 4033,2835 4033,2820 4034,2819 4034,2813 4033,2812 4033,2764 4032,2763 4032,2749 4031,2748 4031,2736 4030,2735 4031,2734 4031,2732 4032,2731 4032,2727 4033,2726 4033,2711 4032,2710 4032,2660 4031,2659 4031,2642 4032,2641 4032,2637 4031,2636 4031,2632 4030,2631 4030,2629 4028,2627 4027,2627 4026,2626 4021,2626 4020,2625 4003,2625 4002,2626 3994,2626 3993,2625" fill="rgba(134,20,72,0.3)" stroke="rgb(134,20,72)" stroke-width="2" data-block-id="0015" data-name="b-0022" /><text x="3726" y="2815" text-anchor="middle" dominant-baseline="middle" class="block-label" fill="rgb(134,20,72)" stroke="white" stroke-width="3" paint-order="stroke">b-0022</text><polygon points="2379,743 2378,744 2377,744 2374,747 2374,748 2373,749 2373,751 2372,752 2372,777 2373,778 2373,814 2372,815 2372,846 2373,847 2373,856 2372,857 2372,884 2373,885 2373,903 2372,904 2372,1028 2371,1029 2371,1045 2372,1046 2372,1073 2371,1074 2371,1084 2372,1085 2372,1093 2373,1094 2373,1095 2376,1098 2377,1098 2378,1099 2485,1099 2486,1100 2544,1100 2545,1101 2587,1101 2588,1102 2634,1102 2635,1103 2661,1103 2662,1102 2678,1102 2679,1101 2710,1101 2711,1100 2748,1100 2749,1099 2809,1099 2810,1098 2821,1098 2822,1097 2823,1097 2824,1096 2825,1096 2826,1095 2826,1094 2827,1093 2827,1087 2826,1086 2826,1085 2825,1084 2825,1082 2824,1081 2824,1079 2823,1078 2823,1076 2822,1075 2822,1073 2821,1072 2821,1070 2819,1068 2819,1067 2818,1066 2818,1065 2817,1064 2817,1063 2816,1062 2816,1061 2815,1060 2815,1059 2814,1058 2814,1056 2813,1055 2813,1053 2812,1052 2812,1051 2811,1050 2811,1048 2810,1047 2810,1046 2809,1045 2809,1043 2808,1042 2808,1040 2807,1039 2807,1037 2806,1036 2806,1034 2805,1033 2805,1031 2804,1030 2804,1028 2803,1027 2803,1025 2802,1024 2802,1020 2801,1019 2801,1016 2800,1015 2800,1014 2799,1013 2799,1011 2798,1010 2798,1009 2797,1008 2797,1006 2796,1005 2796,1003 2795,1002 2795,1001 2793,999 2793,998 2791,996 2791,995 2789,993 2789,991 2788,990 2788,988 2787,987 2787,985 2786,984 2786,982 2785,981 2785,980 2784,979 2784,978 2783,977 2783,976 2782,975 2782,974 2781,973 2781,972 2780,971 2780,970 2779,969 2779,967 2778,966 2778,963 2777,962 2777,959 2776,958 2776,955 2775,954 2775,952 2774,951 2774,949 2773,948 2773,946 2772,945 2772,943 2771,942 2771,940 2770,939 2770,936 2769,935 2769,934 2768,933 2768,932 2767,931 2767,930 2766,929 2766,928 2764,926 2764,925 2763,924 2763,923 2762,922 2762,920 2761,919 2761,917 2760,916 2760,912 2759,911 2759,909 2758,908 2758,906 2757,905 2757,904 2756,903 2756,901 2755,900 2755,899 2754,898 2754,896 2753,895 2753,893 2752,892 2752,890 2751,889 2751,887 2750,886 2750,885 2749,884 2749,883 2748,882 2748,881 2747,880 2747,879 2746,878 2746,877 2745,876 2745,874 2744,873 2744,872 2743,871 2743,869 2742,868 2742,867 2741,866 2741,864 2740,863 2740,862 2739,861 2739,859 2738,858 2738,857 2737,856 2737,855 2736,854 2736,853 2735,852 2735,851 2734,850 2734,849 2733,848 2733,847 2732,846 2732,845 2731,844 2731,841 2730,840 2730,838 2729,837 2729,835 2728,834 2728,832 2727,831 2727,829 2726,828 2726,826 2725,825 2725,824 2724,823 2724,821 2723,820 2723,819 2722,818 2722,816 2721,815 2721,814 2720,813 2720,812 2719,811 2719,809 2718,808 2718,807 2717,806 2717,803 2716,802 2716,800 2715,799 2715,796 2714,795 2714,793 2713,792 2713,791 2712,790 2712,788 2711,787 2711,786 2710,785 2710,784 2709,783 2709,781 2708,780 2708,778 2707,777 2707,774 2706,773 2706,771 2705,770 2705,768 2704,767 2704,766 2703,765 2703,764 2702,763 2702,761 2701,760 2701,759 2700,758 2700,757 2699,756 2699,755 2698,754 2698,753 2695,750 2693,750 2692,749 2688,749 2687,748 2686,749 2676,749 2675,750 2666,750 2665,751 2657,751 2656,752 2645,752 2644,753 2638,753 2637,752 2615,752 2614,751 2602,751 2601,750 2592,750 2591,749 2583,749 2582,748 2563,748 2562,747 2550,747 2549,746 2528,746 2527,745 2503,745 2502,744 2488,744 2487,743 2480,743 2479,744 2473,744 2472,743" fill="rgba(166,17,131,0.3)" stroke="rgb(166,17,131)" stroke-width="2" data-block-id="0016" data-name="b-0023" /><text x="2700" y="912" text-anchor="middle" dominant-baseline="middle" class="block-label" fill="rgb(166,17,131)" stroke="white" stroke-width="3" paint-order="stroke">b-0023</text><polygon points="2379,281 2379,287 2378,288 2378,300 2379,301 2379,312 2380,313 2380,326 2379,327 2379,330 2378,331 2378,332 2377,333 2377,335 2376,336 2376,338 2374,340 2374,341 2372,343 2372,345 2371,346 2371,348 2370,349 2370,358 2371,359 2371,366 2370,367 2370,372 2369,373 2369,377 2370,378 2370,383 2371,384 2371,390 2370,391 2370,408 2371,409 2371,416 2370,417 2370,444 2371,445 2371,477 2372,478 2372,483 2371,484 2371,486 2370,487 2370,521 2369,522 2369,559 2370,560 2370,623 2371,624 2371,625 2372,626 2372,627 2373,627 2374,628 2375,628 2376,629 2379,629 2380,630 2547,630 2548,631 2562,631 2563,632 2577,632 2578,633 2589,633 2590,634 2598,634 2599,635 2606,635 2607,636 2620,636 2621,637 2639,637 2640,636 2642,636 2646,632 2646,631 2647,630 2647,628 2648,627 2648,623 2647,622 2647,619 2646,618 2646,615 2645,614 2645,608 2644,607 2644,601 2643,600 2643,596 2642,595 2642,590 2641,589 2641,585 2640,584 2640,580 2639,579 2639,576 2638,575 2638,572 2637,571 2637,568 2636,567 2636,564 2635,563 2635,560 2634,559 2634,557 2633,556 2633,553 2632,552 2632,551 2631,550 2631,548 2630,547 2630,546 2629,545 2629,543 2628,542 2628,540 2627,539 2627,536 2626,535 2626,532 2625,531 2625,529 2624,528 2624,527 2623,526 2623,524 2622,523 2622,522 2621,521 2621,520 2620,519 2620,517 2619,516 2619,514 2618,513 2618,511 2617,510 2617,507 2616,506 2616,504 2615,503 2615,501 2614,500 2614,498 2613,497 2613,494 2612,493 2612,488 2611,487 2611,483 2610,482 2610,479 2609,478 2609,476 2608,475 2608,474 2607,473 2607,472 2606,471 2606,469 2605,468 2605,467 2604,466 2604,464 2603,463 2603,461 2602,460 2602,458 2601,457 2601,456 2600,455 2600,454 2599,453 2599,451 2598,450 2598,449 2597,448 2597,445 2596,444 2596,439 2595,438 2595,435 2594,434 2594,433 2593,432 2593,431 2592,430 2592,429 2591,428 2591,427 2590,426 2590,424 2589,423 2589,422 2588,421 2588,419 2587,418 2587,416 2586,415 2586,413 2585,412 2585,410 2584,409 2584,407 2583,406 2583,405 2582,404 2582,402 2581,401 2581,399 2580,398 2580,396 2579,395 2579,393 2578,392 2578,389 2577,388 2577,386 2576,385 2576,383 2575,382 2575,381 2574,380 2574,377 2573,376 2573,373 2572,372 2572,368 2571,367 2571,364 2570,363 2570,361 2569,360 2569,359 2568,358 2568,356 2567,355 2567,354 2566,353 2566,351 2565,350 2565,348 2564,347 2564,346 2563,345 2563,344 2562,343 2562,342 2560,340 2560,339 2557,336 2557,335 2553,331 2553,330 2552,329 2552,328 2551,327 2551,324 2550,323 2550,319 2549,318 2549,315 2548,314 2548,313 2547,312 2547,311 2546,310 2546,309 2545,308 2545,307 2544,306 2544,305 2543,304 2543,303 2542,302 2542,300 2541,299 2541,296 2540,295 2540,293 2539,292 2539,291 2538,290 2538,289 2536,287 2536,286 2535,285 2535,284 2533,282 2521,282 2520,281 2493,281 2492,282 2475,282 2474,283 2468,283 2467,284 2459,284 2458,283 2456,283 2455,282 2453,282 2452,281 2442,281 2441,282 2385,282 2384,281" fill="rgba(241,249,8,0.3)" stroke="rgb(241,249,8)" stroke-width="2" data-block-id="0017" data-name="b-0025" /><text x="2543" y="441" text-anchor="middle" dominant-baseline="middle" class="block-label" fill="rgb(241,249,8)" stroke="white" stroke-width="3" paint-order="stroke">b-0025</text><polygon points="3011,1207 3155,1585 4045,1585 4047,1207" fill="rgba(102,179,92,0.3)" stroke="rgb(102,179,92)" stroke-width="2" data-block-id="0018" data-name="b-0018" /><text x="3564" y="1396" text-anchor="middle" dominant-baseline="middle" class="block-label" fill="rgb(102,179,92)" stroke="white" stroke-width="3" paint-order="stroke">b-0018</text></g>
</svg>