<?xml version='1.0' encoding='utf-8'?>
<svg xmlns="http://www.w3.org/2000/svg" xmlns:atlas="http://example.com/atlas" width="4984" height="3264" viewBox="0 0 4984 3264">
  
  <metadata>
    <atlas:source>
      <atlas:jp2-path>/Users/pwright/workspace/atlas/media/v2/p29.jp2</atlas:jp2-path>
      <atlas:volume>unknown</atlas:volume>
      <atlas:plate-id>p29</atlas:plate-id>
      <atlas:image-width>4984</atlas:image-width>
      <atlas:image-height>3264</atlas:image-height>
    <atlas:angle>0</atlas:angle><atlas:scale>1.3938706965987497</atlas:scale><atlas:pos-x>1000.8552768344682</atlas:pos-x><atlas:pos-y>1160.6507370978688</atlas:pos-y></atlas:source>
  </metadata>

  
  <image id="background" href="file:///Users/pwright/workspace/atlas/media/v2/p29.jp2" width="4984" height="3264" opacity="0.5" />

  <style>
    .block-label { font-family: sans-serif; font-size: 14px; font-weight: bold; }
  </style>

  
  <g id="blocks">
    <polygon points="1129,2452 1128,2453 1121,2453 1120,2454 1113,2454 1112,2455 1075,2455 1074,2454 1070,2454 1069,2453 1060,2453 1059,2454 1040,2454 1039,2455 1027,2455 1026,2454 1022,2454 1021,2453 1006,2453 1005,2454 994,2454 993,2455 978,2455 977,2454 973,2454 972,2453 966,2453 965,2454 945,2454 944,2455 941,2455 940,2456 937,2456 936,2457 935,2457 931,2461 931,2462 930,2463 930,2466 929,2467 929,2492 930,2493 930,2498 929,2499 929,2500 928,2501 928,2503 927,2504 927,2536 928,2537 928,2541 929,2542 929,2585 930,2586 930,2595 929,2596 929,2599 928,2600 928,2617 927,2618 927,2635 928,2636 928,2647 927,2648 927,2701 928,2702 927,2703 927,2735 928,2736 928,2739 927,2740 927,2771 926,2772 926,2774 927,2775 927,2809 928,2810 928,2812 929,2813 929,2814 931,2816 931,2817 932,2818 933,2818 934,2819 936,2819 937,2820 943,2820 944,2821 952,2821 953,2822 967,2822 968,2823 994,2823 995,2824 1013,2824 1014,2825 1034,2825 1035,2826 1045,2826 1046,2825 1065,2825 1066,2824 1072,2824 1073,2823 1099,2823 1100,2822 1103,2822 1104,2823 1129,2823 1130,2824 1189,2824 1190,2823 1204,2823 1205,2824 1213,2824 1214,2823 1226,2823 1227,2824 1247,2824 1248,2825 1254,2825 1255,2826 1271,2826 1272,2825 1310,2825 1311,2824 1334,2824 1335,2823 1345,2823 1346,2824 1356,2824 1357,2823 1379,2823 1380,2824 1404,2824 1405,2823 1419,2823 1420,2824 1430,2824 1431,2823 1438,2823 1439,2824 1451,2824 1452,2823 1467,2823 1468,2824 1475,2824 1476,2823 1489,2823 1490,2824 1497,2824 1498,2823 1515,2823 1516,2824 1549,2824 1550,2823 1557,2823 1558,2824 1624,2824 1625,2825 1640,2825 1641,2824 1667,2824 1668,2825 1688,2825 1689,2826 1710,2826 1711,2827 1722,2827 1723,2828 1742,2828 1743,2827 1759,2827 1760,2828 1832,2828 1833,2827 1846,2827 1847,2826 1868,2826 1869,2827 1883,2827 1884,2828 1896,2828 1897,2827 1899,2827 1900,2828 1906,2828 1907,2829 1912,2829 1913,2830 1914,2829 1937,2829 1938,2828 1947,2828 1948,2827 1974,2827 1975,2828 1978,2828 1979,2829 1981,2829 1982,2830 1988,2830 1989,2831 1998,2831 1999,2830 2010,2830 2011,2829 2021,2829 2022,2828 2043,2828 2044,2829 2050,2829 2051,2830 2067,2830 2068,2831 2073,2831 2074,2832 2088,2832 2089,2831 2110,2831 2111,2830 2115,2830 2116,2831 2126,2831 2127,2832 2128,2831 2155,2831 2156,2832 2166,2832 2167,2833 2179,2833 2180,2834 2197,2834 2198,2833 2199,2833 2200,2832 2201,2832 2202,2831 2204,2831 2205,2830 2206,2830 2207,2829 2208,2829 2209,2828 2212,2828 2213,2827 2218,2827 2219,2826 2234,2826 2235,2827 2240,2827 2241,2828 2254,2828 2255,2827 2269,2827 2270,2826 2351,2826 2352,2825 2361,2825 2362,2824 2384,2824 2385,2823 2390,2823 2391,2822 2394,2822 2395,2821 2396,2821 2397,2820 2398,2820 2398,2819 2399,2818 2399,2816 2400,2815 2400,2812 2401,2811 2401,2808 2402,2807 2402,2791 2401,2790 2401,2767 2400,2766 2400,2751 2401,2750 2401,2727 2402,2726 2402,2722 2401,2721 2401,2680 2402,2679 2402,2676 2401,2675 2401,2655 2402,2654 2402,2650 2401,2649 2401,2637 2402,2636 2402,2621 2401,2620 2401,2613 2402,2612 2402,2604 2401,2603 2401,2596 2400,2595 2400,2554 2401,2553 2401,2544 2402,2543 2402,2522 2401,2521 2401,2478 2400,2477 2400,2462 2397,2459 2396,2459 2395,2458 2394,2458 2393,2457 2390,2457 2389,2456 2344,2456 2343,2455 2340,2455 2339,2456 2333,2456 2332,2457 2294,2457 2293,2456 2291,2456 2290,2457 2266,2457 2265,2458 2251,2458 2250,2457 2238,2457 2237,2458 2227,2458 2226,2459 2216,2459 2215,2460 2196,2460 2195,2461 2185,2461 2184,2462 2178,2462 2177,2463 2171,2463 2170,2462 2167,2462 2166,2461 2153,2461 2152,2462 2150,2462 2149,2461 2145,2461 2144,2460 2141,2460 2140,2459 2119,2459 2118,2458 2094,2458 2093,2459 2082,2459 2081,2460 2058,2460 2057,2459 2050,2459 2049,2458 2045,2458 2044,2457 2032,2457 2031,2458 2030,2457 1996,2457 1995,2458 1993,2458 1992,2457 1979,2457 1978,2458 1966,2458 1965,2457 1939,2457 1938,2456 1929,2456 1928,2457 1920,2457 1919,2456 1894,2456 1893,2455 1890,2455 1889,2454 1873,2454 1872,2455 1763,2455 1762,2456 1752,2456 1751,2455 1684,2455 1683,2454 1670,2454 1669,2455 1664,2455 1663,2456 1648,2456 1647,2455 1641,2455 1640,2454 1626,2454 1625,2455 1617,2455 1616,2456 1603,2456 1602,2455 1545,2455 1544,2454 1527,2454 1526,2455 1452,2455 1451,2454 1434,2454 1433,2455 1406,2455 1405,2454 1391,2454 1390,2455 1359,2455 1358,2454 1343,2454 1342,2455 1336,2455 1335,2454 1310,2454 1309,2453 1296,2453 1295,2454 1280,2454 1279,2455 1265,2455 1264,2454 1261,2454 1260,2453 1248,2453 1247,2454 1242,2454 1241,2453 1234,2453 1233,2452 1231,2452 1230,2453 1212,2453 1211,2452 1202,2452 1201,2453 1168,2453 1167,2452 1151,2452 1150,2453 1147,2453 1146,2452" fill="rgba(102,179,92,0.3)" stroke="rgb(102,179,92)" stroke-width="2" data-block-id="0001" data-name="b-0001" /><text x="1680" y="2645" text-anchor="middle" dominant-baseline="middle" class="block-label" fill="rgb(102,179,92)" stroke="white" stroke-width="3" paint-order="stroke">b-0001</text><polygon points="947,1973 946,1974 944,1974 943,1975 942,1975 938,1979 938,1980 937,1981 937,1982 936,1983 936,1986 935,1987 935,1994 934,1995 934,2013 933,2014 933,2031 932,2032 932,2047 931,2048 931,2065 930,2066 930,2119 929,2120 929,2191 928,2192 928,2201 927,2202 927,2243 928,2244 928,2274 929,2275 929,2288 928,2289 928,2332 929,2333 929,2335 931,2337 931,2338 934,2341 935,2341 936,2342 942,2342 943,2343 958,2343 959,2344 973,2344 974,2345 989,2345 990,2346 998,2346 999,2345 1013,2345 1014,2344 1035,2344 1036,2345 1045,2345 1046,2344 1074,2344 1075,2345 1099,2345 1100,2344 1126,2344 1127,2345 1143,2345 1144,2344 1177,2344 1178,2345 1189,2345 1190,2344 1226,2344 1227,2345 1239,2345 1240,2344 1248,2344 1249,2345 1308,2345 1309,2346 1336,2346 1337,2345 1343,2345 1344,2346 1354,2346 1355,2347 1392,2347 1393,2348 1405,2348 1406,2347 1416,2347 1417,2348 1450,2348 1451,2349 1476,2349 1477,2348 1480,2348 1481,2347 1485,2347 1486,2348 1490,2348 1491,2349 1506,2349 1507,2348 1508,2348 1509,2349 1521,2349 1522,2348 1545,2348 1546,2347 1569,2347 1570,2346 1582,2346 1583,2347 1588,2347 1589,2348 1600,2348 1601,2347 1609,2347 1610,2346 1639,2346 1640,2347 1719,2347 1720,2346 1761,2346 1762,2347 1814,2347 1815,2346 1831,2346 1832,2347 1863,2347 1864,2348 1876,2348 1877,2347 1895,2347 1896,2348 1977,2348 1978,2347 2005,2347 2006,2348 2020,2348 2021,2347 2033,2347 2034,2348 2054,2348 2055,2347 2081,2347 2082,2348 2101,2348 2102,2347 2119,2347 2120,2348 2149,2348 2150,2347 2317,2347 2318,2346 2320,2346 2321,2347 2340,2347 2341,2346 2379,2346 2380,2345 2391,2345 2392,2344 2394,2344 2395,2343 2396,2343 2398,2341 2398,2339 2399,2338 2399,2336 2400,2335 2400,2333 2401,2332 2401,2326 2402,2325 2402,2315 2401,2314 2401,2292 2400,2291 2400,2274 2401,2273 2401,2250 2402,2249 2402,2246 2401,2245 2401,2227 2402,2226 2402,2222 2401,2221 2401,2180 2402,2179 2402,2132 2403,2131 2403,2127 2402,2126 2402,2086 2403,2085 2403,2077 2402,2076 2402,2059 2403,2058 2403,2056 2402,2055 2402,2038 2403,2037 2403,2023 2402,2022 2402,2006 2401,2005 2401,1986 2400,1985 2400,1984 2399,1983 2399,1982 2398,1981 2397,1981 2396,1980 2393,1980 2392,1979 2388,1979 2387,1978 2355,1978 2354,1977 2351,1977 2350,1978 2318,1978 2317,1979 2285,1979 2284,1978 2273,1978 2272,1979 2246,1979 2245,1978 2224,1978 2223,1979 2205,1979 2204,1980 2196,1980 2195,1979 2152,1979 2151,1980 2148,1980 2147,1979 2044,1979 2043,1978 2012,1978 2011,1979 1952,1979 1951,1978 1926,1978 1925,1979 1911,1979 1910,1978 1868,1978 1867,1979 1808,1979 1807,1980 1801,1980 1800,1979 1759,1979 1758,1980 1754,1980 1753,1979 1692,1979 1691,1978 1670,1978 1669,1979 1596,1979 1595,1978 1549,1978 1548,1977 1533,1977 1532,1978 1518,1978 1517,1979 1500,1979 1499,1978 1494,1978 1493,1977 1492,1977 1491,1978 1450,1978 1449,1977 1444,1977 1443,1978 1435,1978 1434,1979 1406,1979 1405,1978 1401,1978 1400,1977 1391,1977 1390,1978 1356,1978 1355,1977 1315,1977 1314,1978 1313,1977 1278,1977 1277,1978 1248,1978 1247,1977 1230,1977 1229,1978 1213,1978 1212,1977 1202,1977 1201,1978 1162,1978 1161,1977 1159,1977 1158,1978 1146,1978 1145,1977 1073,1977 1072,1976 1050,1976 1049,1975 1042,1975 1041,1974 1039,1974 1038,1975 1027,1975 1026,1974 977,1974 976,1973" fill="rgba(14,106,71,0.3)" stroke="rgb(14,106,71)" stroke-width="2" data-block-id="0002" data-name="b-0002" /><text x="1653" y="2165" text-anchor="middle" dominant-baseline="middle" class="block-label" fill="rgb(14,106,71)" stroke="white" stroke-width="3" paint-order="stroke">b-0002</text><polygon points="990,1494 989,1495 986,1495 985,1496 973,1496 972,1495 968,1495 967,1496 958,1496 957,1497 946,1497 945,1498 944,1498 942,1500 941,1500 940,1501 940,1502 938,1504 938,1505 937,1506 937,1511 936,1512 936,1525 937,1526 937,1538 938,1539 938,1544 937,1545 937,1568 938,1569 938,1611 937,1612 937,1616 938,1617 938,1654 937,1655 937,1664 938,1665 938,1670 939,1671 939,1679 938,1680 938,1703 937,1704 937,1717 938,1718 938,1722 937,1723 937,1732 936,1733 936,1749 935,1750 935,1760 936,1761 936,1766 937,1767 937,1790 936,1791 936,1810 937,1811 937,1821 936,1822 936,1826 935,1827 935,1852 940,1857 941,1857 942,1858 943,1858 944,1859 946,1859 947,1860 952,1860 953,1861 975,1861 976,1862 992,1862 993,1861 995,1861 996,1862 1022,1862 1023,1863 1038,1863 1039,1862 1044,1862 1045,1863 1050,1863 1051,1864 1078,1864 1079,1865 1083,1865 1084,1866 1086,1866 1087,1867 1109,1867 1110,1866 1115,1866 1116,1865 1119,1865 1120,1864 1124,1864 1125,1863 1141,1863 1142,1864 1168,1864 1169,1865 1223,1865 1224,1864 1236,1864 1237,1865 1254,1865 1255,1864 1257,1864 1258,1865 1265,1865 1266,1866 1275,1866 1276,1865 1280,1865 1281,1866 1286,1866 1287,1867 1298,1867 1299,1866 1360,1866 1361,1865 1374,1865 1375,1866 1483,1866 1484,1867 1487,1867 1488,1866 1624,1866 1625,1867 1645,1867 1646,1866 1666,1866 1667,1867 1687,1867 1688,1866 1712,1866 1713,1867 1779,1867 1780,1866 1784,1866 1785,1865 1789,1865 1790,1864 1805,1864 1806,1865 1811,1865 1812,1866 1837,1866 1838,1865 1854,1865 1855,1866 1890,1866 1891,1865 1897,1865 1898,1864 1927,1864 1928,1865 1950,1865 1951,1866 1989,1866 1990,1865 2002,1865 2003,1866 2013,1866 2014,1865 2021,1865 2022,1866 2038,1866 2039,1865 2069,1865 2070,1866 2087,1866 2088,1865 2117,1865 2118,1866 2138,1866 2139,1865 2140,1866 2156,1866 2157,1865 2163,1865 2164,1866 2186,1866 2187,1865 2213,1865 2214,1866 2230,1866 2231,1865 2254,1865 2255,1864 2259,1864 2260,1865 2275,1865 2276,1864 2282,1864 2283,1865 2290,1865 2291,1866 2294,1866 2295,1865 2312,1865 2313,1866 2319,1866 2320,1865 2352,1865 2353,1864 2354,1865 2368,1865 2369,1864 2390,1864 2391,1863 2393,1863 2394,1862 2396,1862 2398,1860 2398,1859 2399,1858 2399,1857 2400,1856 2400,1854 2401,1853 2401,1834 2400,1833 2400,1820 2401,1819 2401,1813 2400,1812 2400,1798 2401,1797 2401,1788 2400,1787 2400,1774 2401,1773 2401,1751 2402,1750 2402,1688 2401,1687 2401,1682 2402,1681 2402,1586 2401,1585 2401,1578 2402,1577 2402,1569 2403,1568 2403,1545 2402,1544 2402,1536 2403,1535 2403,1518 2402,1517 2402,1514 2401,1513 2401,1510 2400,1509 2400,1508 2399,1507 2398,1507 2397,1506 2395,1506 2394,1505 2389,1505 2388,1504 2359,1504 2358,1503 2324,1503 2323,1504 2304,1504 2303,1503 2272,1503 2271,1504 2256,1504 2255,1503 2223,1503 2222,1504 2219,1504 2218,1503 2160,1503 2159,1502 2148,1502 2147,1503 2139,1503 2138,1504 2128,1504 2127,1503 2022,1503 2021,1502 2001,1502 2000,1503 1987,1503 1986,1502 1964,1502 1963,1503 1946,1503 1945,1502 1855,1502 1854,1503 1841,1503 1840,1502 1813,1502 1812,1501 1786,1501 1785,1500 1667,1500 1666,1499 1654,1499 1653,1500 1646,1500 1645,1499 1630,1499 1629,1500 1621,1500 1620,1499 1605,1499 1604,1500 1596,1500 1595,1499 1586,1499 1585,1500 1574,1500 1573,1499 1474,1499 1473,1498 1467,1498 1466,1499 1381,1499 1380,1498 1372,1498 1371,1499 1354,1499 1353,1498 1315,1498 1314,1499 1313,1498 1294,1498 1293,1499 1292,1498 1247,1498 1246,1499 1245,1499 1244,1498 1224,1498 1223,1499 1218,1499 1217,1498 1188,1498 1187,1497 1182,1497 1181,1498 1142,1498 1141,1497 1133,1497 1132,1498 1128,1498 1127,1499 1123,1499 1122,1498 1116,1498 1115,1497 1111,1497 1110,1498 1095,1498 1094,1497 1084,1497 1083,1498 1068,1498 1067,1497 1064,1497 1063,1498 1049,1498 1048,1497 1043,1497 1042,1496 1038,1496 1037,1497 1005,1497 1004,1496 1001,1496 1000,1495 998,1495 997,1494" fill="rgba(188,20,102,0.3)" stroke="rgb(188,20,102)" stroke-width="2" data-block-id="0003" data-name="b-0003" /><text x="1601" y="1687" text-anchor="middle" dominant-baseline="middle" class="block-label" fill="rgb(188,20,102)" stroke="white" stroke-width="3" paint-order="stroke">b-0003</text><polygon points="1628,540 1627,541 1605,541 1604,542 1596,542 1595,541 1567,541 1566,542 1556,542 1555,543 1549,543 1548,542 1541,542 1540,543 1534,543 1533,544 1526,544 1525,543 1514,543 1513,544 1504,544 1503,545 1496,545 1495,546 1480,546 1479,545 1463,545 1462,546 1403,546 1402,545 1394,545 1393,546 1383,546 1382,545 1351,545 1350,544 1349,544 1348,545 1332,545 1331,544 1328,544 1327,545 1321,545 1320,546 1318,546 1317,547 1312,547 1311,546 1303,546 1302,545 1234,545 1233,546 1215,546 1214,545 1197,545 1196,546 1170,546 1169,545 1150,545 1149,546 1145,546 1144,547 1143,547 1142,548 1140,548 1139,549 1138,549 1137,550 1126,550 1125,549 1123,549 1122,548 1121,548 1120,547 1118,547 1117,546 1104,546 1103,547 1100,547 1099,546 1093,546 1092,545 1083,545 1082,546 1074,546 1073,545 1038,545 1037,546 1025,546 1024,545 1006,545 1005,546 973,546 972,545 966,545 965,546 957,546 955,548 954,548 950,552 950,553 949,554 949,560 950,561 950,568 949,569 949,573 948,574 948,593 947,594 947,601 946,602 946,603 947,604 947,645 946,646 946,656 947,657 947,678 948,679 948,706 949,707 948,708 948,727 949,728 949,735 948,736 948,740 947,741 947,773 948,774 948,784 947,785 947,825 948,826 948,827 947,828 947,833 946,834 946,840 945,841 945,856 946,857 946,868 947,869 947,873 948,874 948,877 947,878 947,888 946,889 946,896 945,897 946,898 946,899 948,901 950,901 951,902 953,902 954,903 956,903 957,904 1062,904 1063,905 1097,905 1098,904 1101,904 1102,905 1117,905 1118,904 1124,904 1125,903 1149,903 1150,904 1160,904 1161,905 1173,905 1174,906 1240,906 1241,907 1276,907 1277,906 1291,906 1292,905 1306,905 1307,906 1308,906 1309,907 1311,907 1312,908 1313,908 1314,909 1315,909 1316,910 1320,910 1321,911 1328,911 1329,912 1335,912 1336,913 1367,913 1368,914 1378,914 1379,915 1392,915 1393,914 1396,914 1397,913 1418,913 1419,912 1432,912 1433,913 1443,913 1444,914 1453,914 1454,913 1459,913 1460,914 1466,914 1467,915 1503,915 1504,914 1506,914 1507,915 1513,915 1514,916 1520,916 1521,915 1523,915 1524,914 1526,914 1527,913 1529,913 1530,912 1532,912 1533,911 1535,911 1536,910 1540,910 1541,909 1545,909 1546,910 1563,910 1564,909 1610,909 1611,908 1626,908 1627,909 1752,909 1753,908 1757,908 1758,909 1800,909 1801,908 1806,908 1807,909 1895,909 1896,908 1903,908 1904,909 1982,909 1983,910 2001,910 2002,909 2047,909 2048,910 2129,910 2130,909 2189,909 2190,910 2200,910 2201,911 2224,911 2225,910 2238,910 2239,911 2318,911 2319,912 2358,912 2359,913 2382,913 2383,912 2391,912 2392,911 2396,911 2397,910 2399,910 2400,909 2401,909 2401,908 2403,906 2403,905 2404,904 2404,903 2405,902 2405,900 2406,899 2406,883 2405,882 2405,833 2404,832 2404,826 2405,825 2405,821 2406,820 2406,787 2405,786 2405,760 2404,759 2404,753 2405,752 2405,729 2406,728 2406,720 2407,719 2407,718 2406,717 2406,687 2405,686 2405,682 2406,681 2406,666 2405,665 2405,656 2406,655 2406,642 2407,641 2407,624 2408,623 2408,573 2407,572 2407,565 2406,564 2406,559 2405,558 2405,555 2403,553 2403,552 2401,550 2400,550 2399,549 2397,549 2396,548 2393,548 2392,547 2388,547 2387,546 2371,546 2370,545 2339,545 2338,544 2321,544 2320,543 2317,543 2316,544 2296,544 2295,543 2283,543 2282,544 2279,544 2278,543 2230,543 2229,542 2179,542 2178,543 2146,543 2145,542 2068,542 2067,541 2017,541 2016,542 1950,542 1949,541 1945,541 1944,542 1937,542 1936,543 1934,543 1933,542 1813,542 1812,541 1797,541 1796,542 1790,542 1789,541 1762,541 1761,540 1750,540 1749,541 1739,541 1738,540 1727,540 1726,541 1711,541 1710,540 1709,541 1666,541 1665,540 1658,540 1657,541 1641,541 1640,540" fill="rgba(121,210,214,0.3)" stroke="rgb(121,210,214)" stroke-width="2" data-block-id="0004" data-name="b-0004" /><text x="1591" y="715" text-anchor="middle" dominant-baseline="middle" class="block-label" fill="rgb(121,210,214)" stroke="white" stroke-width="3" paint-order="stroke">b-0004</text><polygon points="959,1021 958,1022 950,1022 949,1023 946,1023 945,1024 944,1024 942,1026 942,1027 941,1028 941,1031 940,1032 941,1033 941,1066 940,1067 940,1069 939,1070 939,1108 940,1109 940,1115 939,1116 939,1128 938,1129 938,1152 939,1153 939,1168 938,1169 938,1201 939,1202 939,1217 938,1218 938,1235 939,1236 939,1267 938,1268 938,1271 939,1272 939,1294 938,1295 938,1307 939,1308 939,1311 940,1312 940,1320 939,1321 939,1347 940,1348 940,1353 939,1354 939,1366 938,1367 938,1369 937,1370 937,1372 936,1373 936,1374 939,1377 940,1377 941,1378 943,1378 944,1379 946,1379 947,1380 948,1380 949,1381 950,1381 951,1382 954,1382 955,1383 967,1383 968,1384 971,1384 972,1383 1000,1383 1001,1384 1066,1384 1067,1385 1084,1385 1085,1386 1092,1386 1093,1385 1098,1385 1099,1384 1105,1384 1106,1385 1170,1385 1171,1384 1177,1384 1178,1385 1187,1385 1188,1384 1218,1384 1219,1383 1220,1383 1221,1384 1227,1384 1228,1385 1238,1385 1239,1384 1262,1384 1263,1383 1284,1383 1285,1384 1300,1384 1301,1383 1308,1383 1309,1384 1384,1384 1385,1385 1526,1385 1527,1384 1533,1384 1534,1385 1545,1385 1546,1386 1620,1386 1621,1385 1628,1385 1629,1386 1778,1386 1779,1387 1783,1387 1784,1386 1805,1386 1806,1387 2038,1387 2039,1386 2044,1386 2045,1387 2119,1387 2120,1388 2129,1388 2130,1387 2175,1387 2176,1388 2188,1388 2189,1387 2221,1387 2222,1386 2243,1386 2244,1385 2258,1385 2259,1386 2266,1386 2267,1387 2301,1387 2302,1386 2304,1386 2305,1387 2317,1387 2318,1388 2387,1388 2388,1387 2393,1387 2394,1386 2398,1386 2401,1383 2401,1382 2402,1381 2402,1380 2403,1379 2403,1356 2402,1355 2402,1299 2403,1298 2403,1262 2402,1261 2402,1253 2403,1252 2403,1235 2402,1234 2402,1228 2403,1227 2403,1214 2402,1213 2402,1208 2403,1207 2403,1202 2404,1201 2404,1170 2403,1169 2403,1163 2402,1162 2402,1158 2403,1157 2403,1109 2404,1108 2404,1071 2403,1070 2403,1059 2404,1058 2404,1045 2403,1044 2403,1037 2402,1036 2402,1034 2401,1033 2401,1031 2400,1031 2398,1029 2391,1029 2390,1028 2378,1028 2377,1027 2353,1027 2352,1026 2303,1026 2302,1025 2142,1025 2141,1024 2108,1024 2107,1023 2093,1023 2092,1024 2068,1024 2067,1025 2038,1025 2037,1024 1976,1024 1975,1023 1678,1023 1677,1024 1675,1024 1674,1025 1667,1025 1666,1024 1648,1024 1647,1025 1646,1024 1636,1024 1635,1025 1606,1025 1605,1026 1598,1026 1597,1025 1580,1025 1579,1026 1573,1026 1572,1025 1558,1025 1557,1026 1555,1026 1554,1025 1541,1025 1540,1024 1514,1024 1513,1025 1502,1025 1501,1024 1486,1024 1485,1025 1478,1025 1477,1024 1457,1024 1456,1025 1450,1025 1449,1026 1434,1026 1433,1025 1430,1025 1429,1024 1426,1024 1425,1023 1419,1023 1418,1022 1403,1022 1402,1021 1329,1021 1328,1022 1308,1022 1307,1023 1298,1023 1297,1022 1290,1022 1289,1023 1279,1023 1278,1024 1259,1024 1258,1023 1234,1023 1233,1022 1231,1022 1230,1023 1223,1023 1222,1024 1217,1024 1216,1023 1133,1023 1132,1024 1099,1024 1098,1023 1095,1023 1094,1022 1087,1022 1086,1021 1034,1021 1033,1022 969,1022 968,1021" fill="rgba(74,202,87,0.3)" stroke="rgb(74,202,87)" stroke-width="2" data-block-id="0005" data-name="b-0005" /><text x="1562" y="1200" text-anchor="middle" dominant-baseline="middle" class="block-label" fill="rgb(74,202,87)" stroke="white" stroke-width="3" paint-order="stroke">b-0005</text><polygon points="3962,2443 3961,2444 3941,2444 3940,2445 3932,2445 3931,2446 3928,2446 3927,2445 3913,2445 3912,2446 3905,2446 3904,2447 3893,2447 3892,2448 3888,2448 3887,2449 3840,2449 3839,2450 3826,2450 3825,2449 3819,2449 3818,2450 3784,2450 3783,2449 3768,2449 3767,2450 3753,2450 3752,2449 3742,2449 3741,2450 3731,2450 3730,2451 3725,2451 3724,2450 3719,2450 3718,2449 3710,2449 3709,2450 3635,2450 3634,2451 3630,2451 3629,2450 3624,2450 3623,2449 3615,2449 3614,2450 3517,2450 3516,2451 3506,2451 3505,2452 3483,2452 3482,2451 3463,2451 3462,2452 3417,2452 3416,2453 3397,2453 3396,2454 3391,2454 3390,2453 3370,2453 3369,2454 3357,2454 3356,2455 3338,2455 3337,2454 3289,2454 3288,2453 3285,2453 3284,2454 3271,2454 3270,2455 3222,2455 3221,2456 3200,2456 3199,2457 3194,2457 3193,2458 3184,2458 3183,2457 3172,2457 3171,2456 3163,2456 3162,2457 3149,2457 3148,2456 3126,2456 3125,2457 3118,2457 3117,2456 3079,2456 3078,2457 3060,2457 3059,2458 3042,2458 3041,2457 3034,2457 3033,2456 3027,2456 3026,2455 3023,2455 3022,2456 3000,2456 2999,2455 2998,2455 2997,2456 2985,2456 2984,2457 2979,2457 2978,2458 2921,2458 2920,2459 2889,2459 2888,2458 2872,2458 2871,2459 2862,2459 2861,2458 2854,2458 2853,2459 2833,2459 2832,2460 2822,2460 2821,2461 2803,2461 2802,2462 2797,2462 2796,2461 2791,2461 2790,2460 2782,2460 2781,2461 2769,2461 2768,2460 2764,2460 2763,2459 2760,2459 2759,2460 2750,2460 2749,2461 2745,2461 2744,2460 2721,2460 2720,2459 2682,2459 2681,2460 2677,2460 2676,2459 2668,2459 2667,2458 2651,2458 2650,2457 2636,2457 2635,2456 2599,2456 2598,2455 2593,2455 2592,2456 2580,2456 2579,2457 2572,2457 2571,2458 2569,2458 2568,2459 2566,2459 2565,2460 2564,2460 2561,2463 2561,2468 2560,2469 2560,2506 2561,2507 2561,2519 2560,2520 2560,2522 2561,2523 2561,2543 2560,2544 2560,2546 2561,2547 2561,2563 2560,2564 2560,2570 2559,2571 2559,2588 2558,2589 2558,2595 2559,2596 2559,2599 2560,2600 2560,2602 2561,2603 2561,2611 2560,2612 2560,2623 2559,2624 2559,2634 2560,2635 2560,2643 2559,2644 2559,2650 2558,2651 2558,2669 2559,2670 2559,2675 2560,2676 2560,2717 2559,2718 2559,2726 2558,2727 2558,2740 2559,2741 2559,2743 2560,2744 2560,2746 2561,2747 2561,2751 2560,2752 2560,2760 2559,2761 2559,2777 2560,2778 2560,2793 2559,2794 2559,2808 2560,2809 2560,2810 2561,2811 2561,2812 2564,2815 2565,2815 2566,2816 2567,2816 2568,2817 2569,2817 2570,2818 2572,2818 2573,2819 2576,2819 2577,2820 2579,2820 2580,2821 2586,2821 2587,2822 2615,2822 2616,2823 2639,2823 2640,2822 2645,2822 2646,2823 2680,2823 2681,2824 2706,2824 2707,2825 2719,2825 2720,2824 2727,2824 2728,2823 2729,2824 2740,2824 2741,2823 2744,2823 2745,2822 2751,2822 2752,2821 2753,2822 2764,2822 2765,2823 2778,2823 2779,2824 2782,2824 2783,2825 2798,2825 2799,2824 2811,2824 2812,2823 2820,2823 2821,2822 2824,2822 2825,2823 2852,2823 2853,2824 2863,2824 2864,2823 2899,2823 2900,2824 2909,2824 2910,2823 2923,2823 2924,2824 2939,2824 2940,2823 2947,2823 2948,2822 2981,2822 2982,2821 2999,2821 3000,2822 3019,2822 3020,2821 3050,2821 3051,2820 3067,2820 3068,2821 3077,2821 3078,2820 3089,2820 3090,2819 3098,2819 3099,2818 3127,2818 3128,2817 3153,2817 3154,2818 3170,2818 3171,2817 3174,2817 3175,2816 3178,2816 3179,2815 3183,2815 3184,2816 3191,2816 3192,2817 3195,2817 3196,2818 3201,2818 3202,2819 3219,2819 3220,2818 3246,2818 3247,2817 3257,2817 3258,2818 3264,2818 3265,2817 3305,2817 3306,2818 3336,2818 3337,2817 3375,2817 3376,2818 3466,2818 3467,2819 3472,2819 3473,2820 3477,2820 3478,2821 3486,2821 3487,2822 3491,2822 3492,2821 3499,2821 3500,2820 3502,2820 3503,2819 3505,2819 3506,2818 3511,2818 3512,2817 3557,2817 3558,2816 3606,2816 3607,2817 3616,2817 3617,2818 3622,2818 3623,2817 3629,2817 3630,2816 3638,2816 3639,2817 3644,2817 3645,2816 3653,2816 3654,2815 3672,2815 3673,2814 3688,2814 3689,2815 3718,2815 3719,2814 3721,2814 3722,2813 3724,2813 3725,2812 3730,2812 3731,2813 3736,2813 3737,2814 3741,2814 3742,2813 3802,2813 3803,2814 3880,2814 3881,2813 3904,2813 3905,2814 3922,2814 3923,2813 3987,2813 3988,2812 3992,2812 3993,2811 3995,2811 3996,2810 3997,2810 3998,2809 3999,2809 4000,2808 4000,2807 4001,2806 4001,2805 4002,2804 4002,2800 4003,2799 4003,2765 4002,2764 4002,2739 4003,2738 4003,2699 4002,2698 4002,2691 4001,2690 4001,2671 4002,2670 4002,2635 4001,2634 4001,2622 4002,2621 4002,2615 4001,2614 4001,2608 4000,2607 4000,2592 3999,2591 3999,2590 3998,2589 3998,2588 3997,2587 3997,2586 3996,2585 3996,2584 3995,2583 3995,2579 3996,2578 3996,2577 3997,2576 3997,2574 3998,2573 3998,2558 3997,2557 3997,2553 3996,2552 3996,2548 3995,2547 3995,2545 3996,2544 3996,2541 3997,2540 3997,2536 3998,2535 3998,2531 3999,2530 3999,2525 4000,2524 4000,2521 3999,2520 3999,2518 3998,2517 3998,2515 3997,2514 3997,2512 3996,2511 3996,2494 3997,2493 3997,2484 3996,2483 3996,2481 3995,2480 3995,2478 3994,2477 3994,2469 3995,2468 3995,2462 3996,2461 3996,2456 3995,2455 3995,2450 3990,2445 3980,2445 3979,2444 3970,2444 3969,2443" fill="rgba(116,99,103,0.3)" stroke="rgb(116,99,103)" stroke-width="2" data-block-id="0006" data-name="b-0006" /><text x="3261" y="2633" text-anchor="middle" dominant-baseline="middle" class="block-label" fill="rgb(116,99,103)" stroke="white" stroke-width="3" paint-order="stroke">b-0006</text><polygon points="3855,1969 3854,1970 3825,1970 3824,1971 3791,1971 3790,1972 3747,1972 3746,1971 3735,1971 3734,1972 3721,1972 3720,1971 3707,1971 3706,1972 3671,1972 3670,1971 3663,1971 3662,1972 3641,1972 3640,1973 3637,1973 3636,1974 3632,1974 3631,1975 3629,1975 3628,1974 3621,1974 3620,1973 3617,1973 3616,1974 3604,1974 3603,1975 3561,1975 3560,1976 3509,1976 3508,1975 3443,1975 3442,1976 3382,1976 3381,1977 3380,1977 3379,1976 3363,1976 3362,1977 3339,1977 3338,1976 3328,1976 3327,1977 3319,1977 3318,1976 3302,1976 3301,1977 3297,1977 3296,1976 3290,1976 3289,1975 3282,1975 3281,1976 3277,1976 3276,1977 3273,1977 3272,1976 3267,1976 3266,1975 3251,1975 3250,1976 3225,1976 3224,1975 3208,1975 3207,1976 3201,1976 3200,1975 3183,1975 3182,1976 3156,1976 3155,1977 3145,1977 3144,1978 3069,1978 3068,1979 3051,1979 3050,1978 3044,1978 3043,1979 3034,1979 3033,1978 2975,1978 2974,1979 2958,1979 2957,1978 2946,1978 2945,1979 2874,1979 2873,1980 2866,1980 2865,1979 2803,1979 2802,1980 2797,1980 2796,1981 2792,1981 2791,1982 2786,1982 2785,1983 2780,1983 2779,1984 2769,1984 2768,1983 2757,1983 2756,1984 2747,1984 2746,1983 2743,1983 2742,1982 2735,1982 2734,1983 2729,1983 2728,1984 2725,1984 2724,1983 2719,1983 2718,1982 2707,1982 2706,1983 2703,1983 2702,1982 2699,1982 2698,1981 2695,1981 2694,1980 2683,1980 2682,1981 2678,1981 2677,1980 2670,1980 2669,1979 2654,1979 2653,1978 2622,1978 2621,1977 2616,1977 2615,1978 2594,1978 2593,1979 2576,1979 2575,1980 2570,1980 2568,1982 2567,1982 2566,1983 2566,1984 2565,1985 2565,1986 2564,1987 2564,1989 2563,1990 2563,1993 2562,1994 2562,2043 2561,2044 2561,2045 2562,2046 2562,2050 2563,2051 2563,2054 2564,2055 2564,2061 2563,2062 2563,2069 2562,2070 2562,2071 2563,2072 2563,2104 2562,2105 2562,2113 2561,2114 2561,2119 2562,2120 2562,2125 2563,2126 2563,2133 2562,2134 2562,2140 2561,2141 2561,2181 2560,2182 2560,2206 2559,2207 2559,2219 2560,2220 2560,2230 2559,2231 2559,2240 2560,2241 2560,2254 2559,2255 2559,2269 2560,2270 2560,2274 2559,2275 2559,2291 2560,2292 2560,2301 2559,2302 2559,2310 2560,2311 2560,2317 2561,2318 2561,2332 2562,2333 2562,2334 2564,2336 2564,2337 2568,2341 2569,2341 2570,2342 2572,2342 2573,2343 2586,2343 2587,2344 2605,2344 2606,2343 2611,2343 2612,2344 2641,2344 2642,2345 2644,2345 2645,2344 2652,2344 2653,2343 2660,2343 2661,2344 2687,2344 2688,2345 2694,2345 2695,2344 2716,2344 2717,2343 2722,2343 2723,2342 2743,2342 2744,2341 2770,2341 2771,2340 2774,2340 2775,2341 2792,2341 2793,2340 2805,2340 2806,2341 2828,2341 2829,2342 2836,2342 2837,2341 2845,2341 2846,2340 2849,2340 2850,2341 2860,2341 2861,2340 2874,2340 2875,2341 2889,2341 2890,2340 2897,2340 2898,2341 2915,2341 2916,2340 2917,2341 2927,2341 2928,2342 2937,2342 2938,2341 2941,2341 2942,2342 2966,2342 2967,2343 2985,2343 2986,2342 3002,2342 3003,2341 3010,2341 3011,2340 3051,2340 3052,2339 3066,2339 3067,2340 3080,2340 3081,2339 3098,2339 3099,2338 3149,2338 3150,2337 3165,2337 3166,2338 3198,2338 3199,2337 3212,2337 3213,2338 3214,2338 3215,2337 3269,2337 3270,2336 3279,2336 3280,2337 3290,2337 3291,2336 3298,2336 3299,2335 3300,2335 3301,2336 3328,2336 3329,2337 3338,2337 3339,2336 3373,2336 3374,2337 3386,2337 3387,2336 3401,2336 3402,2337 3434,2337 3435,2336 3460,2336 3461,2335 3466,2335 3467,2336 3484,2336 3485,2335 3500,2335 3501,2336 3546,2336 3547,2335 3554,2335 3555,2336 3566,2336 3567,2335 3595,2335 3596,2336 3604,2336 3605,2337 3627,2337 3628,2336 3639,2336 3640,2337 3646,2337 3647,2336 3675,2336 3676,2335 3722,2335 3723,2334 3728,2334 3729,2335 3733,2335 3734,2336 3743,2336 3744,2335 3819,2335 3820,2334 3837,2334 3838,2335 3875,2335 3876,2334 3885,2334 3886,2333 3971,2333 3972,2332 3989,2332 3990,2331 3992,2331 3993,2330 3994,2330 3996,2328 3997,2328 3998,2327 3998,2326 4001,2323 4001,2322 4002,2321 4002,2309 4001,2308 4001,2290 4000,2289 4000,2274 3999,2273 3999,2262 3998,2261 3998,2247 3999,2246 3999,2241 4000,2240 4000,2236 4001,2235 4001,2234 4000,2233 4000,2196 3999,2195 3999,2192 3998,2191 3998,2185 3997,2184 3997,2173 3998,2172 3998,2150 3999,2149 3999,2146 4000,2145 4000,2142 4001,2141 4001,2136 4000,2135 4000,2087 3999,2086 3999,2074 4000,2073 4000,2061 3999,2060 3999,2057 4000,2056 4000,2050 4001,2049 4001,2039 4000,2038 4000,2028 4001,2027 4001,2016 4000,2015 4000,2004 4001,2003 4001,1996 4000,1995 4000,1990 3999,1989 3999,1984 3998,1983 3998,1980 3997,1979 3997,1976 3996,1975 3996,1974 3992,1970 3991,1970 3990,1969 3974,1969 3973,1970 3962,1970 3961,1969 3901,1969 3900,1970 3892,1970 3891,1969" fill="rgba(151,130,149,0.3)" stroke="rgb(151,130,149)" stroke-width="2" data-block-id="0007" data-name="b-0007" /><text x="3220" y="2154" text-anchor="middle" dominant-baseline="middle" class="block-label" fill="rgb(151,130,149)" stroke="white" stroke-width="3" paint-order="stroke">b-0007</text><polygon points="3797,544 3796,545 3792,545 3791,546 3749,546 3748,545 3736,545 3735,546 3722,546 3721,545 3685,545 3684,546 3674,546 3673,545 3638,545 3637,546 3634,546 3633,547 3625,547 3624,546 3614,546 3613,547 3604,547 3603,546 3593,546 3592,547 3587,547 3586,548 3579,548 3578,547 3546,547 3545,548 3526,548 3525,547 3505,547 3504,548 3495,548 3494,547 3468,547 3467,546 3439,546 3438,547 3411,547 3410,548 3405,548 3404,549 3385,549 3384,548 3339,548 3338,547 3319,547 3318,548 3304,548 3303,549 3297,549 3296,548 3290,548 3289,547 3272,547 3271,548 3241,548 3240,547 3226,547 3225,548 3196,548 3195,547 3177,547 3176,548 3164,548 3163,549 3154,549 3153,548 3121,548 3120,549 3105,549 3104,548 3057,548 3056,547 2927,547 2926,548 2896,548 2895,549 2891,549 2890,548 2876,548 2875,549 2862,549 2861,548 2850,548 2849,549 2827,549 2826,548 2787,548 2786,549 2784,549 2783,548 2749,548 2748,547 2743,547 2742,546 2723,546 2722,545 2691,545 2690,546 2681,546 2680,547 2679,546 2671,546 2670,545 2663,545 2662,546 2647,546 2646,545 2641,545 2640,546 2633,546 2632,547 2629,547 2628,546 2609,546 2608,547 2572,547 2571,548 2569,548 2565,552 2565,554 2564,555 2564,565 2563,566 2563,590 2562,591 2562,605 2561,606 2561,615 2562,616 2562,620 2563,621 2563,623 2564,624 2564,636 2563,637 2563,638 2562,639 2562,640 2561,641 2561,645 2560,646 2560,664 2561,665 2561,703 2560,704 2560,712 2561,713 2561,721 2562,722 2562,746 2561,747 2561,763 2562,764 2562,789 2561,790 2561,815 2562,816 2562,837 2561,838 2561,857 2562,858 2562,873 2561,874 2561,890 2560,891 2560,900 2561,901 2561,902 2562,903 2562,904 2567,909 2568,909 2569,910 2572,910 2573,911 2652,911 2653,912 2656,912 2657,911 2666,911 2667,910 2672,910 2673,911 2692,911 2693,910 2705,910 2706,909 2744,909 2745,910 2751,910 2752,911 2753,911 2754,910 2784,910 2785,911 2803,911 2804,910 2835,910 2836,911 2861,911 2862,910 2877,910 2878,911 2891,911 2892,912 2910,912 2911,911 2923,911 2924,912 2949,912 2950,913 2954,913 2955,912 3029,912 3030,911 3036,911 3037,910 3056,910 3057,911 3069,911 3070,912 3094,912 3095,911 3105,911 3106,912 3107,911 3134,911 3135,912 3148,912 3149,911 3172,911 3173,910 3176,910 3177,909 3190,909 3191,910 3193,910 3194,909 3212,909 3213,908 3221,908 3222,907 3250,907 3251,908 3261,908 3262,909 3284,909 3285,910 3291,910 3292,909 3326,909 3327,910 3339,910 3340,909 3364,909 3365,910 3407,910 3408,911 3416,911 3417,912 3418,912 3419,911 3430,911 3431,910 3448,910 3449,911 3459,911 3460,912 3473,912 3474,911 3482,911 3483,910 3496,910 3497,911 3509,911 3510,912 3517,912 3518,911 3576,911 3577,910 3584,910 3585,909 3603,909 3604,908 3625,908 3626,907 3635,907 3636,908 3642,908 3643,909 3647,909 3648,908 3664,908 3665,907 3703,907 3704,906 3739,906 3740,905 3769,905 3770,906 3784,906 3785,905 3786,906 3831,906 3832,905 3833,905 3834,906 3878,906 3879,905 3883,905 3884,906 3888,906 3889,907 3908,907 3909,908 3977,908 3978,907 3981,907 3982,906 3983,906 3984,905 3985,905 3990,900 3990,898 3991,897 3991,853 3992,852 3992,847 3993,846 3993,843 3994,842 3994,841 3995,840 3995,836 3996,835 3996,814 3995,813 3995,808 3994,807 3994,774 3995,773 3995,769 3996,768 3996,762 3997,761 3997,741 3996,740 3996,727 3995,726 3995,687 3996,686 3996,681 3997,680 3997,678 3998,677 3998,675 3999,674 3999,656 4000,655 4000,648 3999,647 3999,646 3998,645 3998,644 3997,643 3997,642 3996,641 3996,639 3995,638 3995,636 3994,635 3994,632 3993,631 3993,625 3992,624 3993,623 3993,612 3994,611 3994,594 3995,593 3995,588 3996,587 3996,582 3997,581 3997,570 3996,569 3996,556 3995,555 3995,551 3994,550 3994,549 3991,546 3990,546 3989,545 3985,545 3984,544 3967,544 3966,545 3964,545 3963,544 3886,544 3885,545 3865,545 3864,546 3856,546 3855,545 3803,545 3802,544" fill="rgba(52,1,87,0.3)" stroke="rgb(52,1,87)" stroke-width="2" data-block-id="0008" data-name="b-0008" /><text x="3305" y="726" text-anchor="middle" dominant-baseline="middle" class="block-label" fill="rgb(52,1,87)" stroke="white" stroke-width="3" paint-order="stroke">b-0008</text><polygon points="3921,1498 3920,1499 3887,1499 3886,1500 3862,1500 3861,1501 3856,1501 3855,1500 3838,1500 3837,1499 3833,1499 3832,1500 3817,1500 3816,1499 3787,1499 3786,1500 3744,1500 3743,1499 3679,1499 3678,1500 3626,1500 3625,1501 3595,1501 3594,1500 3570,1500 3569,1501 3560,1501 3559,1500 3507,1500 3506,1501 3468,1501 3467,1502 3465,1502 3464,1501 3458,1501 3457,1500 3445,1500 3444,1501 3415,1501 3414,1500 3375,1500 3374,1501 3347,1501 3346,1502 3334,1502 3333,1501 3328,1501 3327,1500 3304,1500 3303,1501 3282,1501 3281,1500 3244,1500 3243,1501 3221,1501 3220,1500 3215,1500 3214,1501 3205,1501 3204,1502 3186,1502 3185,1501 3180,1501 3179,1500 3177,1500 3176,1501 3145,1501 3144,1502 3132,1502 3131,1501 3110,1501 3109,1502 3103,1502 3102,1501 3020,1501 3019,1502 2978,1502 2977,1501 2974,1501 2973,1502 2932,1502 2931,1501 2927,1501 2926,1502 2842,1502 2841,1501 2827,1501 2826,1502 2781,1502 2780,1503 2723,1503 2722,1502 2695,1502 2694,1503 2661,1503 2660,1502 2639,1502 2638,1503 2596,1503 2595,1504 2571,1504 2570,1505 2568,1505 2567,1506 2566,1506 2564,1508 2564,1509 2563,1510 2563,1511 2562,1512 2562,1513 2561,1514 2561,1517 2560,1518 2560,1528 2561,1529 2560,1530 2560,1547 2559,1548 2559,1640 2560,1641 2560,1698 2559,1699 2559,1715 2560,1716 2560,1783 2561,1784 2561,1801 2560,1802 2560,1817 2559,1818 2559,1842 2560,1843 2560,1849 2561,1850 2561,1852 2565,1856 2566,1856 2568,1858 2570,1858 2571,1859 2573,1859 2574,1860 2579,1860 2580,1861 2587,1861 2588,1862 2604,1862 2605,1863 2744,1863 2745,1864 2774,1864 2775,1865 2783,1865 2784,1866 2817,1866 2818,1865 2829,1865 2830,1864 2907,1864 2908,1863 2913,1863 2914,1862 2939,1862 2940,1861 2949,1861 2950,1860 2959,1860 2960,1861 3007,1861 3008,1860 3099,1860 3100,1861 3162,1861 3163,1860 3174,1860 3175,1859 3222,1859 3223,1858 3272,1858 3273,1857 3287,1857 3288,1858 3292,1858 3293,1859 3299,1859 3300,1860 3408,1860 3409,1859 3413,1859 3414,1858 3449,1858 3450,1857 3492,1857 3493,1856 3501,1856 3502,1857 3510,1857 3511,1858 3539,1858 3540,1857 3553,1857 3554,1858 3591,1858 3592,1857 3599,1857 3600,1858 3606,1858 3607,1859 3610,1859 3611,1858 3635,1858 3636,1857 3650,1857 3651,1858 3689,1858 3690,1857 3728,1857 3729,1858 3743,1858 3744,1857 3812,1857 3813,1856 3841,1856 3842,1857 3848,1857 3849,1856 3857,1856 3858,1855 3865,1855 3866,1856 3872,1856 3873,1855 3908,1855 3909,1854 3972,1854 3973,1853 3988,1853 3989,1852 3992,1852 3993,1851 3994,1851 3998,1847 3998,1845 3999,1844 3999,1840 4000,1839 4000,1832 3999,1831 3999,1829 4000,1828 4000,1813 3999,1812 3999,1809 3998,1808 3998,1797 3999,1796 3999,1780 4000,1779 4000,1773 4001,1772 4001,1766 4000,1765 4000,1759 3999,1758 3999,1717 4000,1716 4000,1711 4001,1710 4001,1691 4000,1690 4000,1685 3999,1684 3999,1643 4000,1642 4000,1622 4001,1621 4001,1601 4000,1600 4000,1587 3999,1586 3999,1581 3998,1580 3998,1578 3997,1577 3997,1540 3998,1539 3998,1512 3997,1511 3997,1507 3996,1506 3996,1505 3994,1503 3993,1503 3992,1502 3991,1502 3990,1501 3987,1501 3986,1500 3982,1500 3981,1499 3967,1499 3966,1500 3963,1500 3962,1499 3934,1499 3933,1498" fill="rgba(235,157,37,0.3)" stroke="rgb(235,157,37)" stroke-width="2" data-block-id="0009" data-name="b-0009" /><text x="3365" y="1672" text-anchor="middle" dominant-baseline="middle" class="block-label" fill="rgb(235,157,37)" stroke="white" stroke-width="3" paint-order="stroke">b-0009</text><polygon points="3278,1024 3277,1025 3262,1025 3261,1026 3246,1026 3245,1025 3221,1025 3220,1026 3186,1026 3185,1025 3176,1025 3175,1026 3123,1026 3122,1027 3115,1027 3114,1026 3068,1026 3067,1027 3057,1027 3056,1026 2923,1026 2922,1027 2913,1027 2912,1026 2906,1026 2905,1025 2903,1025 2902,1026 2875,1026 2874,1027 2864,1027 2863,1026 2792,1026 2791,1027 2755,1027 2754,1026 2741,1026 2740,1027 2729,1027 2728,1026 2727,1027 2677,1027 2676,1026 2653,1026 2652,1025 2640,1025 2639,1026 2608,1026 2607,1027 2599,1027 2598,1028 2583,1028 2582,1029 2579,1029 2578,1030 2576,1030 2575,1031 2573,1031 2569,1035 2569,1036 2568,1037 2568,1038 2567,1039 2567,1040 2566,1041 2566,1067 2565,1068 2565,1072 2564,1073 2564,1080 2563,1081 2563,1093 2564,1094 2564,1101 2565,1102 2565,1107 2564,1108 2564,1126 2563,1127 2563,1133 2562,1134 2562,1146 2563,1147 2563,1217 2564,1218 2564,1238 2565,1239 2565,1253 2564,1254 2565,1255 2565,1261 2566,1262 2566,1272 2565,1273 2565,1275 2564,1276 2564,1280 2563,1281 2563,1283 2564,1284 2564,1294 2563,1295 2563,1301 2562,1302 2562,1305 2563,1306 2563,1311 2564,1312 2564,1323 2563,1324 2563,1332 2562,1333 2562,1350 2563,1351 2563,1377 2569,1383 2571,1383 2572,1384 2575,1384 2576,1385 2578,1385 2579,1386 2581,1386 2582,1387 2592,1387 2593,1386 2600,1386 2601,1387 2610,1387 2611,1386 2675,1386 2676,1387 2683,1387 2684,1386 2694,1386 2695,1387 2702,1387 2703,1388 2704,1388 2705,1387 2724,1387 2725,1388 2728,1388 2729,1387 2748,1387 2749,1388 2752,1388 2753,1387 2780,1387 2781,1386 2796,1386 2797,1387 2799,1387 2800,1386 2826,1386 2827,1385 2836,1385 2837,1386 2842,1386 2843,1387 2850,1387 2851,1386 2866,1386 2867,1385 2874,1385 2875,1386 2887,1386 2888,1387 2907,1387 2908,1386 2934,1386 2935,1387 2979,1387 2980,1388 3014,1388 3015,1387 3031,1387 3032,1388 3041,1388 3042,1387 3076,1387 3077,1388 3092,1388 3093,1387 3100,1387 3101,1388 3128,1388 3129,1389 3135,1389 3136,1388 3159,1388 3160,1387 3172,1387 3173,1388 3187,1388 3188,1387 3194,1387 3195,1388 3219,1388 3220,1389 3227,1389 3228,1390 3229,1389 3257,1389 3258,1388 3267,1388 3268,1389 3282,1389 3283,1390 3313,1390 3314,1389 3339,1389 3340,1390 3349,1390 3350,1389 3386,1389 3387,1390 3397,1390 3398,1389 3405,1389 3406,1388 3451,1388 3452,1387 3455,1387 3456,1388 3486,1388 3487,1387 3524,1387 3525,1386 3537,1386 3538,1385 3552,1385 3553,1386 3572,1386 3573,1385 3605,1385 3606,1386 3637,1386 3638,1385 3652,1385 3653,1386 3659,1386 3660,1385 3684,1385 3685,1384 3696,1384 3697,1385 3719,1385 3720,1384 3729,1384 3730,1383 3734,1383 3735,1382 3744,1382 3745,1383 3749,1383 3750,1384 3773,1384 3774,1385 3792,1385 3793,1386 3813,1386 3814,1387 3820,1387 3821,1388 3824,1388 3825,1387 3830,1387 3831,1386 3836,1386 3837,1387 3841,1387 3842,1388 3849,1388 3850,1387 3852,1387 3853,1386 3857,1386 3858,1385 3870,1385 3871,1384 3889,1384 3890,1385 3923,1385 3924,1384 3960,1384 3961,1383 3973,1383 3974,1382 3981,1382 3982,1381 3984,1381 3985,1380 3986,1380 3987,1379 3988,1379 3989,1378 3990,1378 3992,1376 3992,1375 3993,1374 3993,1367 3994,1366 3994,1358 3993,1357 3993,1352 3994,1351 3994,1349 3995,1348 3995,1346 3996,1345 3996,1344 3997,1343 3997,1337 3995,1335 3995,1334 3994,1333 3994,1332 3993,1331 3993,1330 3992,1329 3992,1323 3993,1322 3993,1319 3994,1318 3994,1316 3995,1315 3995,1298 3996,1297 3996,1289 3995,1288 3995,1285 3994,1284 3994,1277 3995,1276 3995,1274 3996,1273 3996,1266 3995,1265 3995,1263 3994,1262 3994,1261 3993,1260 3993,1250 3994,1249 3994,1235 3993,1234 3993,1221 3992,1220 3992,1217 3991,1216 3991,1212 3990,1211 3990,1209 3991,1208 3991,1205 3992,1204 3992,1203 3993,1202 3993,1200 3994,1199 3994,1196 3995,1195 3994,1194 3994,1187 3993,1186 3993,1156 3992,1155 3992,1148 3993,1147 3993,1140 3994,1139 3994,1134 3993,1133 3993,1113 3992,1112 3992,1110 3991,1109 3991,1108 3990,1107 3990,1106 3989,1105 3989,1104 3988,1103 3988,1098 3989,1097 3989,1094 3990,1093 3990,1087 3991,1086 3991,1074 3990,1073 3990,1071 3989,1070 3989,1068 3988,1067 3988,1064 3989,1063 3989,1061 3990,1060 3990,1058 3991,1057 3991,1055 3992,1054 3992,1050 3993,1049 3993,1045 3994,1044 3994,1041 3993,1040 3993,1037 3992,1036 3992,1033 3991,1032 3991,1031 3989,1029 3988,1029 3987,1028 3985,1028 3984,1027 3981,1027 3980,1026 3962,1026 3961,1025 3906,1025 3905,1026 3895,1026 3894,1025 3873,1025 3872,1026 3865,1026 3864,1027 3850,1027 3849,1026 3841,1026 3840,1027 3818,1027 3817,1026 3813,1026 3812,1025 3804,1025 3803,1026 3792,1026 3791,1025 3785,1025 3784,1026 3765,1026 3764,1025 3760,1025 3759,1026 3701,1026 3700,1027 3684,1027 3683,1026 3669,1026 3668,1027 3638,1027 3637,1026 3630,1026 3629,1027 3590,1027 3589,1028 3538,1028 3537,1027 3533,1027 3532,1026 3528,1026 3527,1025 3518,1025 3517,1024 3503,1024 3502,1025 3463,1025 3462,1026 3457,1026 3456,1027 3449,1027 3448,1026 3444,1026 3443,1025 3433,1025 3432,1024 3425,1024 3424,1025 3391,1025 3390,1024 3351,1024 3350,1025 3345,1025 3344,1024 3327,1024 3326,1025 3300,1025 3299,1024" fill="rgba(129,191,187,0.3)" stroke="rgb(129,191,187)" stroke-width="2" data-block-id="0010" data-name="b-0010" /><text x="3385" y="1220" text-anchor="middle" dominant-baseline="middle" class="block-label" fill="rgb(129,191,187)" stroke="white" stroke-width="3" paint-order="stroke">b-0010</text></g>
</svg>