<svg xmlns="http://www.w3.org/2000/svg" xmlns:xlink="http://www.w3.org/1999/xlink" width="4984" height="3264" viewBox="0 0 4984 3264">
  <!-- Plate-level city block segmentation -->
  <metadata>
    <atlas:source xmlns:atlas="http://example.com/atlas">
      <atlas:jp2-path>/Users/pwright/workspace/atlas/media/v2/p29.jp2</atlas:jp2-path>
      <atlas:volume>unknown</atlas:volume>
      <atlas:plate-id>p29</atlas:plate-id>
      <atlas:image-width>4984</atlas:image-width>
      <atlas:image-height>3264</atlas:image-height>
    </atlas:source>
  </metadata>

  <!-- Background: source JP2 for ground truth reference -->
  <image id="background" href="file:///Users/pwright/workspace/atlas/media/v2/p29.jp2" width="4984" height="3264" opacity="0.5"/>

  <style>
    .block-label { font-family: sans-serif; font-size: 14px; font-weight: bold; }
  </style>

  <!-- Block polygons (editable) -->
  <g id="blocks">
    <polygon points="1129,2452 1128,2453 1121,2453 1120,2454 1113,2454 1112,2455 1075,2455 1074,2454 1070,2454 1069,2453 1060,2453 1059,2454 1040,2454 1039,2455 1027,2455 1026,2454 1022,2454 1021,2453 1006,2453 1005,2454 994,2454 993,2455 978,2455 977,2454 973,2454 972,2453 966,2453 965,2454 945,2454 944,2455 941,2455 940,2456 937,2456 936,2457 935,2457 931,2461 931,2462 930,2463 930,2466 929,2467 929,2492 930,2493 930,2498 929,2499 929,2500 928,2501 928,2503 927,2504 927,2536 928,2537 928,2541 929,2542 929,2585 930,2586 930,2595 929,2596 929,2599 928,2600 928,2617 927,2618 927,2635 928,2636 928,2647 927,2648 927,2701 928,2702 927,2703 927,2735 928,2736 928,2739 927,2740 927,2771 926,2772 926,2774 927,2775 927,2809 928,2810 928,2812 929,2813 929,2814 931,2816 931,2817 932,2818 933,2818 934,2819 936,2819 937,2820 943,2820 944,2821 952,2821 953,2822 967,2822 968,2823 994,2823 995,2824 1013,2824 1014,2825 1034,2825 1035,2826 1045,2826 1046,2825 1065,2825 1066,2824 1072,2824 1073,2823 1099,2823 1100,2822 1103,2822 1104,2823 1129,2823 1130,2824 1189,2824 1190,2823 1204,2823 1205,2824 1213,2824 1214,2823 1226,2823 1227,2824 1247,2824 1248,2825 1254,2825 1255,2826 1271,2826 1272,2825 1310,2825 1311,2824 1334,2824 1335,2823 1345,2823 1346,2824 1356,2824 1357,2823 1379,2823 1380,2824 1404,2824 1405,2823 1419,2823 1420,2824 1430,2824 1431,2823 1438,2823 1439,2824 1451,2824 1452,2823 1467,2823 1468,2824 1475,2824 1476,2823 1489,2823 1490,2824 1497,2824 1498,2823 1515,2823 1516,2824 1549,2824 1550,2823 1557,2823 1558,2824 1624,2824 1625,2825 1640,2825 1641,2824 1667,2824 1668,2825 1688,2825 1689,2826 1710,2826 1711,2827 1722,2827 1723,2828 1742,2828 1743,2827 1759,2827 1760,2828 1832,2828 1833,2827 1846,2827 1847,2826 1868,2826 1869,2827 1883,2827 1884,2828 1896,2828 1897,2827 1899,2827 1900,2828 1906,2828 1907,2829 1912,2829 1913,2830 1914,2829 1937,2829 1938,2828 1947,2828 1948,2827 1974,2827 1975,2828 1978,2828 1979,2829 1981,2829 1982,2830 1988,2830 1989,2831 1998,2831 1999,2830 2010,2830 2011,2829 2021,2829 2022,2828 2043,2828 2044,2829 2050,2829 2051,2830 2067,2830 2068,2831 2073,2831 2074,2832 2088,2832 2089,2831 2110,2831 2111,2830 2115,2830 2116,2831 2126,2831 2127,2832 2128,2831 2155,2831 2156,2832 2166,2832 2167,2833 2179,2833 2180,2834 2197,2834 2198,2833 2199,2833 2200,2832 2201,2832 2202,2831 2204,2831 2205,2830 2206,2830 2207,2829 2208,2829 2209,2828 2212,2828 2213,2827 2218,2827 2219,2826 2234,2826 2235,2827 2240,2827 2241,2828 2254,2828 2255,2827 2269,2827 2270,2826 2351,2826 2352,2825 2361,2825 2362,2824 2384,2824 2385,2823 2390,2823 2391,2822 2394,2822 2395,2821 2396,2821 2397,2820 2398,2820 2398,2819 2399,2818 2399,2816 2400,2815 2400,2812 2401,2811 2401,2808 2402,2807 2402,2791 2401,2790 2401,2767 2400,2766 2400,2751 2401,2750 2401,2727 2402,2726 2402,2722 2401,2721 2401,2680 2402,2679 2402,2676 2401,2675 2401,2655 2402,2654 2402,2650 2401,2649 2401,2637 2402,2636 2402,2621 2401,2620 2401,2613 2402,2612 2402,2604 2401,2603 2401,2596 2400,2595 2400,2554 2401,2553 2401,2544 2402,2543 2402,2522 2401,2521 2401,2478 2400,2477 2400,2462 2397,2459 2396,2459 2395,2458 2394,2458 2393,2457 2390,2457 2389,2456 2344,2456 2343,2455 2340,2455 2339,2456 2333,2456 2332,2457 2294,2457 2293,2456 2291,2456 2290,2457 2266,2457 2265,2458 2251,2458 2250,2457 2238,2457 2237,2458 2227,2458 2226,2459 2216,2459 2215,2460 2196,2460 2195,2461 2185,2461 2184,2462 2178,2462 2177,2463 2171,2463 2170,2462 2167,2462 2166,2461 2153,2461 2152,2462 2150,2462 2149,2461 2145,2461 2144,2460 2141,2460 2140,2459 2119,2459 2118,2458 2094,2458 2093,2459 2082,2459 2081,2460 2058,2460 2057,2459 2050,2459 2049,2458 2045,2458 2044,2457 2032,2457 2031,2458 2030,2457 1996,2457 1995,2458 1993,2458 1992,2457 1979,2457 1978,2458 1966,2458 1965,2457 1939,2457 1938,2456 1929,2456 1928,2457 1920,2457 1919,2456 1894,2456 1893,2455 1890,2455 1889,2454 1873,2454 1872,2455 1763,2455 1762,2456 1752,2456 1751,2455 1684,2455 1683,2454 1670,2454 1669,2455 1664,2455 1663,2456 1648,2456 1647,2455 1641,2455 1640,2454 1626,2454 1625,2455 1617,2455 1616,2456 1603,2456 1602,2455 1545,2455 1544,2454 1527,2454 1526,2455 1452,2455 1451,2454 1434,2454 1433,2455 1406,2455 1405,2454 1391,2454 1390,2455 1359,2455 1358,2454 1343,2454 1342,2455 1336,2455 1335,2454 1310,2454 1309,2453 1296,2453 1295,2454 1280,2454 1279,2455 1265,2455 1264,2454 1261,2454 1260,2453 1248,2453 1247,2454 1242,2454 1241,2453 1234,2453 1233,2452 1231,2452 1230,2453 1212,2453 1211,2452 1202,2452 1201,2453 1168,2453 1167,2452 1151,2452 1150,2453 1147,2453 1146,2452" fill="rgba(102,179,92,0.3)" stroke="rgb(102,179,92)" stroke-width="2" data-block-id="0001"/>
    <text x="1664" y="2643" text-anchor="middle" dominant-baseline="middle" class="block-label" fill="rgb(102,179,92)" stroke="white" stroke-width="3" paint-order="stroke">b-0001.svg</text>
    <polygon points="947,1973 946,1974 944,1974 943,1975 942,1975 938,1979 938,1980 937,1981 937,1982 936,1983 936,1986 935,1987 935,1994 934,1995 934,2013 933,2014 933,2031 932,2032 932,2047 931,2048 931,2065 930,2066 930,2119 929,2120 929,2191 928,2192 928,2201 927,2202 927,2243 928,2244 928,2274 929,2275 929,2288 928,2289 928,2332 929,2333 929,2335 931,2337 931,2338 934,2341 935,2341 936,2342 942,2342 943,2343 958,2343 959,2344 973,2344 974,2345 989,2345 990,2346 998,2346 999,2345 1013,2345 1014,2344 1035,2344 1036,2345 1045,2345 1046,2344 1074,2344 1075,2345 1099,2345 1100,2344 1126,2344 1127,2345 1143,2345 1144,2344 1177,2344 1178,2345 1189,2345 1190,2344 1226,2344 1227,2345 1239,2345 1240,2344 1248,2344 1249,2345 1308,2345 1309,2346 1336,2346 1337,2345 1343,2345 1344,2346 1354,2346 1355,2347 1392,2347 1393,2348 1405,2348 1406,2347 1416,2347 1417,2348 1450,2348 1451,2349 1476,2349 1477,2348 1480,2348 1481,2347 1485,2347 1486,2348 1490,2348 1491,2349 1506,2349 1507,2348 1508,2348 1509,2349 1521,2349 1522,2348 1545,2348 1546,2347 1569,2347 1570,2346 1582,2346 1583,2347 1588,2347 1589,2348 1600,2348 1601,2347 1609,2347 1610,2346 1639,2346 1640,2347 1719,2347 1720,2346 1761,2346 1762,2347 1814,2347 1815,2346 1831,2346 1832,2347 1863,2347 1864,2348 1876,2348 1877,2347 1895,2347 1896,2348 1977,2348 1978,2347 2005,2347 2006,2348 2020,2348 2021,2347 2033,2347 2034,2348 2054,2348 2055,2347 2081,2347 2082,2348 2101,2348 2102,2347 2119,2347 2120,2348 2149,2348 2150,2347 2317,2347 2318,2346 2320,2346 2321,2347 2340,2347 2341,2346 2379,2346 2380,2345 2391,2345 2392,2344 2394,2344 2395,2343 2396,2343 2398,2341 2398,2339 2399,2338 2399,2336 2400,2335 2400,2333 2401,2332 2401,2326 2402,2325 2402,2315 2401,2314 2401,2292 2400,2291 2400,2274 2401,2273 2401,2250 2402,2249 2402,2246 2401,2245 2401,2227 2402,2226 2402,2222 2401,2221 2401,2180 2402,2179 2402,2132 2403,2131 2403,2127 2402,2126 2402,2086 2403,2085 2403,2077 2402,2076 2402,2059 2403,2058 2403,2056 2402,2055 2402,2038 2403,2037 2403,2023 2402,2022 2402,2006 2401,2005 2401,1986 2400,1985 2400,1984 2399,1983 2399,1982 2398,1981 2397,1981 2396,1980 2393,1980 2392,1979 2388,1979 2387,1978 2355,1978 2354,1977 2351,1977 2350,1978 2318,1978 2317,1979 2285,1979 2284,1978 2273,1978 2272,1979 2246,1979 2245,1978 2224,1978 2223,1979 2205,1979 2204,1980 2196,1980 2195,1979 2152,1979 2151,1980 2148,1980 2147,1979 2044,1979 2043,1978 2012,1978 2011,1979 1952,1979 1951,1978 1926,1978 1925,1979 1911,1979 1910,1978 1868,1978 1867,1979 1808,1979 1807,1980 1801,1980 1800,1979 1759,1979 1758,1980 1754,1980 1753,1979 1692,1979 1691,1978 1670,1978 1669,1979 1596,1979 1595,1978 1549,1978 1548,1977 1533,1977 1532,1978 1518,1978 1517,1979 1500,1979 1499,1978 1494,1978 1493,1977 1492,1977 1491,1978 1450,1978 1449,1977 1444,1977 1443,1978 1435,1978 1434,1979 1406,1979 1405,1978 1401,1978 1400,1977 1391,1977 1390,1978 1356,1978 1355,1977 1315,1977 1314,1978 1313,1977 1278,1977 1277,1978 1248,1978 1247,1977 1230,1977 1229,1978 1213,1978 1212,1977 1202,1977 1201,1978 1162,1978 1161,1977 1159,1977 1158,1978 1146,1978 1145,1977 1073,1977 1072,1976 1050,1976 1049,1975 1042,1975 1041,1974 1039,1974 1038,1975 1027,1975 1026,1974 977,1974 976,1973" fill="rgba(14,106,71,0.3)" stroke="rgb(14,106,71)" stroke-width="2" data-block-id="0002"/>
    <text x="1665" y="2161" text-anchor="middle" dominant-baseline="middle" class="block-label" fill="rgb(14,106,71)" stroke="white" stroke-width="3" paint-order="stroke">b-0002.svg</text>
    <polygon points="990,1494 989,1495 986,1495 985,1496 973,1496 972,1495 968,1495 967,1496 958,1496 957,1497 946,1497 945,1498 944,1498 942,1500 941,1500 940,1501 940,1502 938,1504 938,1505 937,1506 937,1511 936,1512 936,1525 937,1526 937,1538 938,1539 938,1544 937,1545 937,1568 938,1569 938,1611 937,1612 937,1616 938,1617 938,1654 937,1655 937,1664 938,1665 938,1670 939,1671 939,1679 938,1680 938,1703 937,1704 937,1717 938,1718 938,1722 937,1723 937,1732 936,1733 936,1749 935,1750 935,1760 936,1761 936,1766 937,1767 937,1790 936,1791 936,1810 937,1811 937,1821 936,1822 936,1826 935,1827 935,1852 940,1857 941,1857 942,1858 943,1858 944,1859 946,1859 947,1860 952,1860 953,1861 975,1861 976,1862 992,1862 993,1861 995,1861 996,1862 1022,1862 1023,1863 1038,1863 1039,1862 1044,1862 1045,1863 1050,1863 1051,1864 1078,1864 1079,1865 1083,1865 1084,1866 1086,1866 1087,1867 1109,1867 1110,1866 1115,1866 1116,1865 1119,1865 1120,1864 1124,1864 1125,1863 1141,1863 1142,1864 1168,1864 1169,1865 1223,1865 1224,1864 1236,1864 1237,1865 1254,1865 1255,1864 1257,1864 1258,1865 1265,1865 1266,1866 1275,1866 1276,1865 1280,1865 1281,1866 1286,1866 1287,1867 1298,1867 1299,1866 1360,1866 1361,1865 1374,1865 1375,1866 1483,1866 1484,1867 1487,1867 1488,1866 1624,1866 1625,1867 1645,1867 1646,1866 1666,1866 1667,1867 1687,1867 1688,1866 1712,1866 1713,1867 1779,1867 1780,1866 1784,1866 1785,1865 1789,1865 1790,1864 1805,1864 1806,1865 1811,1865 1812,1866 1837,1866 1838,1865 1854,1865 1855,1866 1890,1866 1891,1865 1897,1865 1898,1864 1927,1864 1928,1865 1950,1865 1951,1866 1989,1866 1990,1865 2002,1865 2003,1866 2013,1866 2014,1865 2021,1865 2022,1866 2038,1866 2039,1865 2069,1865 2070,1866 2087,1866 2088,1865 2117,1865 2118,1866 2138,1866 2139,1865 2140,1866 2156,1866 2157,1865 2163,1865 2164,1866 2186,1866 2187,1865 2213,1865 2214,1866 2230,1866 2231,1865 2254,1865 2255,1864 2259,1864 2260,1865 2275,1865 2276,1864 2282,1864 2283,1865 2290,1865 2291,1866 2294,1866 2295,1865 2312,1865 2313,1866 2319,1866 2320,1865 2352,1865 2353,1864 2354,1865 2368,1865 2369,1864 2390,1864 2391,1863 2393,1863 2394,1862 2396,1862 2398,1860 2398,1859 2399,1858 2399,1857 2400,1856 2400,1854 2401,1853 2401,1834 2400,1833 2400,1820 2401,1819 2401,1813 2400,1812 2400,1798 2401,1797 2401,1788 2400,1787 2400,1774 2401,1773 2401,1751 2402,1750 2402,1688 2401,1687 2401,1682 2402,1681 2402,1586 2401,1585 2401,1578 2402,1577 2402,1569 2403,1568 2403,1545 2402,1544 2402,1536 2403,1535 2403,1518 2402,1517 2402,1514 2401,1513 2401,1510 2400,1509 2400,1508 2399,1507 2398,1507 2397,1506 2395,1506 2394,1505 2389,1505 2388,1504 2359,1504 2358,1503 2324,1503 2323,1504 2304,1504 2303,1503 2272,1503 2271,1504 2256,1504 2255,1503 2223,1503 2222,1504 2219,1504 2218,1503 2160,1503 2159,1502 2148,1502 2147,1503 2139,1503 2138,1504 2128,1504 2127,1503 2022,1503 2021,1502 2001,1502 2000,1503 1987,1503 1986,1502 1964,1502 1963,1503 1946,1503 1945,1502 1855,1502 1854,1503 1841,1503 1840,1502 1813,1502 1812,1501 1786,1501 1785,1500 1667,1500 1666,1499 1654,1499 1653,1500 1646,1500 1645,1499 1630,1499 1629,1500 1621,1500 1620,1499 1605,1499 1604,1500 1596,1500 1595,1499 1586,1499 1585,1500 1574,1500 1573,1499 1474,1499 1473,1498 1467,1498 1466,1499 1381,1499 1380,1498 1372,1498 1371,1499 1354,1499 1353,1498 1315,1498 1314,1499 1313,1498 1294,1498 1293,1499 1292,1498 1247,1498 1246,1499 1245,1499 1244,1498 1224,1498 1223,1499 1218,1499 1217,1498 1188,1498 1187,1497 1182,1497 1181,1498 1142,1498 1141,1497 1133,1497 1132,1498 1128,1498 1127,1499 1123,1499 1122,1498 1116,1498 1115,1497 1111,1497 1110,1498 1095,1498 1094,1497 1084,1497 1083,1498 1068,1498 1067,1497 1064,1497 1063,1498 1049,1498 1048,1497 1043,1497 1042,1496 1038,1496 1037,1497 1005,1497 1004,1496 1001,1496 1000,1495 998,1495 997,1494" fill="rgba(188,20,102,0.3)" stroke="rgb(188,20,102)" stroke-width="2" data-block-id="0003"/>
    <text x="1669" y="1680" text-anchor="middle" dominant-baseline="middle" class="block-label" fill="rgb(188,20,102)" stroke="white" stroke-width="3" paint-order="stroke">b-0003.svg</text>
    <polygon points="1628,540 1627,541 1605,541 1604,542 1596,542 1595,541 1567,541 1566,542 1556,542 1555,543 1549,543 1548,542 1541,542 1540,543 1534,543 1533,544 1526,544 1525,543 1514,543 1513,544 1504,544 1503,545 1496,545 1495,546 1480,546 1479,545 1463,545 1462,546 1403,546 1402,545 1394,545 1393,546 1383,546 1382,545 1351,545 1350,544 1349,544 1348,545 1332,545 1331,544 1328,544 1327,545 1321,545 1320,546 1318,546 1317,547 1312,547 1311,546 1303,546 1302,545 1234,545 1233,546 1215,546 1214,545 1197,545 1196,546 1170,546 1169,545 1150,545 1149,546 1145,546 1144,547 1143,547 1142,548 1140,548 1139,549 1138,549 1137,550 1126,550 1125,549 1123,549 1122,548 1121,548 1120,547 1118,547 1117,546 1104,546 1103,547 1100,547 1099,546 1093,546 1092,545 1083,545 1082,546 1074,546 1073,545 1038,545 1037,546 1025,546 1024,545 1006,545 1005,546 973,546 972,545 966,545 965,546 957,546 955,548 954,548 950,552 950,553 949,554 949,560 950,561 950,568 949,569 949,573 948,574 948,593 947,594 947,601 946,602 946,603 947,604 947,645 946,646 946,656 947,657 947,678 948,679 948,706 949,707 948,708 948,727 949,728 949,735 948,736 948,740 947,741 947,773 948,774 948,784 947,785 947,825 948,826 948,827 947,828 947,833 946,834 946,840 945,841 945,856 946,857 946,868 947,869 947,873 948,874 948,877 947,878 947,888 946,889 946,896 945,897 946,898 946,899 948,901 950,901 951,902 953,902 954,903 956,903 957,904 1062,904 1063,905 1097,905 1098,904 1101,904 1102,905 1117,905 1118,904 1124,904 1125,903 1149,903 1150,904 1160,904 1161,905 1173,905 1174,906 1240,906 1241,907 1276,907 1277,906 1291,906 1292,905 1306,905 1307,906 1308,906 1309,907 1311,907 1312,908 1313,908 1314,909 1315,909 1316,910 1320,910 1321,911 1328,911 1329,912 1335,912 1336,913 1367,913 1368,914 1378,914 1379,915 1392,915 1393,914 1396,914 1397,913 1418,913 1419,912 1432,912 1433,913 1443,913 1444,914 1453,914 1454,913 1459,913 1460,914 1466,914 1467,915 1503,915 1504,914 1506,914 1507,915 1513,915 1514,916 1520,916 1521,915 1523,915 1524,914 1526,914 1527,913 1529,913 1530,912 1532,912 1533,911 1535,911 1536,910 1540,910 1541,909 1545,909 1546,910 1563,910 1564,909 1610,909 1611,908 1626,908 1627,909 1752,909 1753,908 1757,908 1758,909 1800,909 1801,908 1806,908 1807,909 1895,909 1896,908 1903,908 1904,909 1982,909 1983,910 2001,910 2002,909 2047,909 2048,910 2129,910 2130,909 2189,909 2190,910 2200,910 2201,911 2224,911 2225,910 2238,910 2239,911 2318,911 2319,912 2358,912 2359,913 2382,913 2383,912 2391,912 2392,911 2396,911 2397,910 2399,910 2400,909 2401,909 2401,908 2403,906 2403,905 2404,904 2404,903 2405,902 2405,900 2406,899 2406,883 2405,882 2405,833 2404,832 2404,826 2405,825 2405,821 2406,820 2406,787 2405,786 2405,760 2404,759 2404,753 2405,752 2405,729 2406,728 2406,720 2407,719 2407,718 2406,717 2406,687 2405,686 2405,682 2406,681 2406,666 2405,665 2405,656 2406,655 2406,642 2407,641 2407,624 2408,623 2408,573 2407,572 2407,565 2406,564 2406,559 2405,558 2405,555 2403,553 2403,552 2401,550 2400,550 2399,549 2397,549 2396,548 2393,548 2392,547 2388,547 2387,546 2371,546 2370,545 2339,545 2338,544 2321,544 2320,543 2317,543 2316,544 2296,544 2295,543 2283,543 2282,544 2279,544 2278,543 2230,543 2229,542 2179,542 2178,543 2146,543 2145,542 2068,542 2067,541 2017,541 2016,542 1950,542 1949,541 1945,541 1944,542 1937,542 1936,543 1934,543 1933,542 1813,542 1812,541 1797,541 1796,542 1790,542 1789,541 1762,541 1761,540 1750,540 1749,541 1739,541 1738,540 1727,540 1726,541 1711,541 1710,540 1709,541 1666,541 1665,540 1658,540 1657,541 1641,541 1640,540" fill="rgba(121,210,214,0.3)" stroke="rgb(121,210,214)" stroke-width="2" data-block-id="0004"/>
    <text x="1676" y="728" text-anchor="middle" dominant-baseline="middle" class="block-label" fill="rgb(121,210,214)" stroke="white" stroke-width="3" paint-order="stroke">b-0004.svg</text>
    <polygon points="959,1021 958,1022 950,1022 949,1023 946,1023 945,1024 944,1024 942,1026 942,1027 941,1028 941,1031 940,1032 941,1033 941,1066 940,1067 940,1069 939,1070 939,1108 940,1109 940,1115 939,1116 939,1128 938,1129 938,1152 939,1153 939,1168 938,1169 938,1201 939,1202 939,1217 938,1218 938,1235 939,1236 939,1267 938,1268 938,1271 939,1272 939,1294 938,1295 938,1307 939,1308 939,1311 940,1312 940,1320 939,1321 939,1347 940,1348 940,1353 939,1354 939,1366 938,1367 938,1369 937,1370 937,1372 936,1373 936,1374 939,1377 940,1377 941,1378 943,1378 944,1379 946,1379 947,1380 948,1380 949,1381 950,1381 951,1382 954,1382 955,1383 967,1383 968,1384 971,1384 972,1383 1000,1383 1001,1384 1066,1384 1067,1385 1084,1385 1085,1386 1092,1386 1093,1385 1098,1385 1099,1384 1105,1384 1106,1385 1170,1385 1171,1384 1177,1384 1178,1385 1187,1385 1188,1384 1218,1384 1219,1383 1220,1383 1221,1384 1227,1384 1228,1385 1238,1385 1239,1384 1262,1384 1263,1383 1284,1383 1285,1384 1300,1384 1301,1383 1308,1383 1309,1384 1384,1384 1385,1385 1526,1385 1527,1384 1533,1384 1534,1385 1545,1385 1546,1386 1620,1386 1621,1385 1628,1385 1629,1386 1778,1386 1779,1387 1783,1387 1784,1386 1805,1386 1806,1387 2038,1387 2039,1386 2044,1386 2045,1387 2119,1387 2120,1388 2129,1388 2130,1387 2175,1387 2176,1388 2188,1388 2189,1387 2221,1387 2222,1386 2243,1386 2244,1385 2258,1385 2259,1386 2266,1386 2267,1387 2301,1387 2302,1386 2304,1386 2305,1387 2317,1387 2318,1388 2387,1388 2388,1387 2393,1387 2394,1386 2398,1386 2401,1383 2401,1382 2402,1381 2402,1380 2403,1379 2403,1356 2402,1355 2402,1299 2403,1298 2403,1262 2402,1261 2402,1253 2403,1252 2403,1235 2402,1234 2402,1228 2403,1227 2403,1214 2402,1213 2402,1208 2403,1207 2403,1202 2404,1201 2404,1170 2403,1169 2403,1163 2402,1162 2402,1158 2403,1157 2403,1109 2404,1108 2404,1071 2403,1070 2403,1059 2404,1058 2404,1045 2403,1044 2403,1037 2402,1036 2402,1034 2401,1033 2401,1031 2400,1031 2398,1029 2391,1029 2390,1028 2378,1028 2377,1027 2353,1027 2352,1026 2303,1026 2302,1025 2142,1025 2141,1024 2108,1024 2107,1023 2093,1023 2092,1024 2068,1024 2067,1025 2038,1025 2037,1024 1976,1024 1975,1023 1678,1023 1677,1024 1675,1024 1674,1025 1667,1025 1666,1024 1648,1024 1647,1025 1646,1024 1636,1024 1635,1025 1606,1025 1605,1026 1598,1026 1597,1025 1580,1025 1579,1026 1573,1026 1572,1025 1558,1025 1557,1026 1555,1026 1554,1025 1541,1025 1540,1024 1514,1024 1513,1025 1502,1025 1501,1024 1486,1024 1485,1025 1478,1025 1477,1024 1457,1024 1456,1025 1450,1025 1449,1026 1434,1026 1433,1025 1430,1025 1429,1024 1426,1024 1425,1023 1419,1023 1418,1022 1403,1022 1402,1021 1329,1021 1328,1022 1308,1022 1307,1023 1298,1023 1297,1022 1290,1022 1289,1023 1279,1023 1278,1024 1259,1024 1258,1023 1234,1023 1233,1022 1231,1022 1230,1023 1223,1023 1222,1024 1217,1024 1216,1023 1133,1023 1132,1024 1099,1024 1098,1023 1095,1023 1094,1022 1087,1022 1086,1021 1034,1021 1033,1022 969,1022 968,1021" fill="rgba(74,202,87,0.3)" stroke="rgb(74,202,87)" stroke-width="2" data-block-id="0005"/>
    <text x="1670" y="1204" text-anchor="middle" dominant-baseline="middle" class="block-label" fill="rgb(74,202,87)" stroke="white" stroke-width="3" paint-order="stroke">b-0005.svg</text>
    <polygon points="3962,2443 3961,2444 3941,2444 3940,2445 3932,2445 3931,2446 3928,2446 3927,2445 3913,2445 3912,2446 3905,2446 3904,2447 3893,2447 3892,2448 3888,2448 3887,2449 3840,2449 3839,2450 3826,2450 3825,2449 3819,2449 3818,2450 3784,2450 3783,2449 3768,2449 3767,2450 3753,2450 3752,2449 3742,2449 3741,2450 3731,2450 3730,2451 3725,2451 3724,2450 3719,2450 3718,2449 3710,2449 3709,2450 3635,2450 3634,2451 3630,2451 3629,2450 3624,2450 3623,2449 3615,2449 3614,2450 3517,2450 3516,2451 3506,2451 3505,2452 3483,2452 3482,2451 3463,2451 3462,2452 3417,2452 3416,2453 3397,2453 3396,2454 3391,2454 3390,2453 3370,2453 3369,2454 3357,2454 3356,2455 3338,2455 3337,2454 3289,2454 3288,2453 3285,2453 3284,2454 3271,2454 3270,2455 3222,2455 3221,2456 3200,2456 3199,2457 3194,2457 3193,2458 3184,2458 3183,2457 3172,2457 3171,2456 3163,2456 3162,2457 3149,2457 3148,2456 3126,2456 3125,2457 3118,2457 3117,2456 3079,2456 3078,2457 3060,2457 3059,2458 3042,2458 3041,2457 3034,2457 3033,2456 3027,2456 3026,2455 3023,2455 3022,2456 3000,2456 2999,2455 2998,2455 2997,2456 2985,2456 2984,2457 2979,2457 2978,2458 2921,2458 2920,2459 2889,2459 2888,2458 2872,2458 2871,2459 2862,2459 2861,2458 2854,2458 2853,2459 2833,2459 2832,2460 2822,2460 2821,2461 2803,2461 2802,2462 2797,2462 2796,2461 2791,2461 2790,2460 2782,2460 2781,2461 2769,2461 2768,2460 2764,2460 2763,2459 2760,2459 2759,2460 2750,2460 2749,2461 2745,2461 2744,2460 2721,2460 2720,2459 2682,2459 2681,2460 2677,2460 2676,2459 2668,2459 2667,2458 2651,2458 2650,2457 2636,2457 2635,2456 2599,2456 2598,2455 2593,2455 2592,2456 2580,2456 2579,2457 2572,2457 2571,2458 2569,2458 2568,2459 2566,2459 2565,2460 2564,2460 2561,2463 2561,2468 2560,2469 2560,2506 2561,2507 2561,2519 2560,2520 2560,2522 2561,2523 2561,2543 2560,2544 2560,2546 2561,2547 2561,2563 2560,2564 2560,2570 2559,2571 2559,2588 2558,2589 2558,2595 2559,2596 2559,2599 2560,2600 2560,2602 2561,2603 2561,2611 2560,2612 2560,2623 2559,2624 2559,2634 2560,2635 2560,2643 2559,2644 2559,2650 2558,2651 2558,2669 2559,2670 2559,2675 2560,2676 2560,2717 2559,2718 2559,2726 2558,2727 2558,2740 2559,2741 2559,2743 2560,2744 2560,2746 2561,2747 2561,2751 2560,2752 2560,2760 2559,2761 2559,2777 2560,2778 2560,2793 2559,2794 2559,2808 2560,2809 2560,2810 2561,2811 2561,2812 2564,2815 2565,2815 2566,2816 2567,2816 2568,2817 2569,2817 2570,2818 2572,2818 2573,2819 2576,2819 2577,2820 2579,2820 2580,2821 2586,2821 2587,2822 2615,2822 2616,2823 2639,2823 2640,2822 2645,2822 2646,2823 2680,2823 2681,2824 2706,2824 2707,2825 2719,2825 2720,2824 2727,2824 2728,2823 2729,2824 2740,2824 2741,2823 2744,2823 2745,2822 2751,2822 2752,2821 2753,2822 2764,2822 2765,2823 2778,2823 2779,2824 2782,2824 2783,2825 2798,2825 2799,2824 2811,2824 2812,2823 2820,2823 2821,2822 2824,2822 2825,2823 2852,2823 2853,2824 2863,2824 2864,2823 2899,2823 2900,2824 2909,2824 2910,2823 2923,2823 2924,2824 2939,2824 2940,2823 2947,2823 2948,2822 2981,2822 2982,2821 2999,2821 3000,2822 3019,2822 3020,2821 3050,2821 3051,2820 3067,2820 3068,2821 3077,2821 3078,2820 3089,2820 3090,2819 3098,2819 3099,2818 3127,2818 3128,2817 3153,2817 3154,2818 3170,2818 3171,2817 3174,2817 3175,2816 3178,2816 3179,2815 3183,2815 3184,2816 3191,2816 3192,2817 3195,2817 3196,2818 3201,2818 3202,2819 3219,2819 3220,2818 3246,2818 3247,2817 3257,2817 3258,2818 3264,2818 3265,2817 3305,2817 3306,2818 3336,2818 3337,2817 3375,2817 3376,2818 3466,2818 3467,2819 3472,2819 3473,2820 3477,2820 3478,2821 3486,2821 3487,2822 3491,2822 3492,2821 3499,2821 3500,2820 3502,2820 3503,2819 3505,2819 3506,2818 3511,2818 3512,2817 3557,2817 3558,2816 3606,2816 3607,2817 3616,2817 3617,2818 3622,2818 3623,2817 3629,2817 3630,2816 3638,2816 3639,2817 3644,2817 3645,2816 3653,2816 3654,2815 3672,2815 3673,2814 3688,2814 3689,2815 3718,2815 3719,2814 3721,2814 3722,2813 3724,2813 3725,2812 3730,2812 3731,2813 3736,2813 3737,2814 3741,2814 3742,2813 3802,2813 3803,2814 3880,2814 3881,2813 3904,2813 3905,2814 3922,2814 3923,2813 3987,2813 3988,2812 3992,2812 3993,2811 3995,2811 3996,2810 3997,2810 3998,2809 3999,2809 4000,2808 4000,2807 4001,2806 4001,2805 4002,2804 4002,2800 4003,2799 4003,2765 4002,2764 4002,2739 4003,2738 4003,2699 4002,2698 4002,2691 4001,2690 4001,2671 4002,2670 4002,2635 4001,2634 4001,2622 4002,2621 4002,2615 4001,2614 4001,2608 4000,2607 4000,2592 3999,2591 3999,2590 3998,2589 3998,2588 3997,2587 3997,2586 3996,2585 3996,2584 3995,2583 3995,2579 3996,2578 3996,2577 3997,2576 3997,2574 3998,2573 3998,2558 3997,2557 3997,2553 3996,2552 3996,2548 3995,2547 3995,2545 3996,2544 3996,2541 3997,2540 3997,2536 3998,2535 3998,2531 3999,2530 3999,2525 4000,2524 4000,2521 3999,2520 3999,2518 3998,2517 3998,2515 3997,2514 3997,2512 3996,2511 3996,2494 3997,2493 3997,2484 3996,2483 3996,2481 3995,2480 3995,2478 3994,2477 3994,2469 3995,2468 3995,2462 3996,2461 3996,2456 3995,2455 3995,2450 3990,2445 3980,2445 3979,2444 3970,2444 3969,2443" fill="rgba(116,99,103,0.3)" stroke="rgb(116,99,103)" stroke-width="2" data-block-id="0006"/>
    <text x="3280" y="2634" text-anchor="middle" dominant-baseline="middle" class="block-label" fill="rgb(116,99,103)" stroke="white" stroke-width="3" paint-order="stroke">b-0006.svg</text>
    <polygon points="3855,1969 3854,1970 3825,1970 3824,1971 3791,1971 3790,1972 3747,1972 3746,1971 3735,1971 3734,1972 3721,1972 3720,1971 3707,1971 3706,1972 3671,1972 3670,1971 3663,1971 3662,1972 3641,1972 3640,1973 3637,1973 3636,1974 3632,1974 3631,1975 3629,1975 3628,1974 3621,1974 3620,1973 3617,1973 3616,1974 3604,1974 3603,1975 3561,1975 3560,1976 3509,1976 3508,1975 3443,1975 3442,1976 3382,1976 3381,1977 3380,1977 3379,1976 3363,1976 3362,1977 3339,1977 3338,1976 3328,1976 3327,1977 3319,1977 3318,1976 3302,1976 3301,1977 3297,1977 3296,1976 3290,1976 3289,1975 3282,1975 3281,1976 3277,1976 3276,1977 3273,1977 3272,1976 3267,1976 3266,1975 3251,1975 3250,1976 3225,1976 3224,1975 3208,1975 3207,1976 3201,1976 3200,1975 3183,1975 3182,1976 3156,1976 3155,1977 3145,1977 3144,1978 3069,1978 3068,1979 3051,1979 3050,1978 3044,1978 3043,1979 3034,1979 3033,1978 2975,1978 2974,1979 2958,1979 2957,1978 2946,1978 2945,1979 2874,1979 2873,1980 2866,1980 2865,1979 2803,1979 2802,1980 2797,1980 2796,1981 2792,1981 2791,1982 2786,1982 2785,1983 2780,1983 2779,1984 2769,1984 2768,1983 2757,1983 2756,1984 2747,1984 2746,1983 2743,1983 2742,1982 2735,1982 2734,1983 2729,1983 2728,1984 2725,1984 2724,1983 2719,1983 2718,1982 2707,1982 2706,1983 2703,1983 2702,1982 2699,1982 2698,1981 2695,1981 2694,1980 2683,1980 2682,1981 2678,1981 2677,1980 2670,1980 2669,1979 2654,1979 2653,1978 2622,1978 2621,1977 2616,1977 2615,1978 2594,1978 2593,1979 2576,1979 2575,1980 2570,1980 2568,1982 2567,1982 2566,1983 2566,1984 2565,1985 2565,1986 2564,1987 2564,1989 2563,1990 2563,1993 2562,1994 2562,2043 2561,2044 2561,2045 2562,2046 2562,2050 2563,2051 2563,2054 2564,2055 2564,2061 2563,2062 2563,2069 2562,2070 2562,2071 2563,2072 2563,2104 2562,2105 2562,2113 2561,2114 2561,2119 2562,2120 2562,2125 2563,2126 2563,2133 2562,2134 2562,2140 2561,2141 2561,2181 2560,2182 2560,2206 2559,2207 2559,2219 2560,2220 2560,2230 2559,2231 2559,2240 2560,2241 2560,2254 2559,2255 2559,2269 2560,2270 2560,2274 2559,2275 2559,2291 2560,2292 2560,2301 2559,2302 2559,2310 2560,2311 2560,2317 2561,2318 2561,2332 2562,2333 2562,2334 2564,2336 2564,2337 2568,2341 2569,2341 2570,2342 2572,2342 2573,2343 2586,2343 2587,2344 2605,2344 2606,2343 2611,2343 2612,2344 2641,2344 2642,2345 2644,2345 2645,2344 2652,2344 2653,2343 2660,2343 2661,2344 2687,2344 2688,2345 2694,2345 2695,2344 2716,2344 2717,2343 2722,2343 2723,2342 2743,2342 2744,2341 2770,2341 2771,2340 2774,2340 2775,2341 2792,2341 2793,2340 2805,2340 2806,2341 2828,2341 2829,2342 2836,2342 2837,2341 2845,2341 2846,2340 2849,2340 2850,2341 2860,2341 2861,2340 2874,2340 2875,2341 2889,2341 2890,2340 2897,2340 2898,2341 2915,2341 2916,2340 2917,2341 2927,2341 2928,2342 2937,2342 2938,2341 2941,2341 2942,2342 2966,2342 2967,2343 2985,2343 2986,2342 3002,2342 3003,2341 3010,2341 3011,2340 3051,2340 3052,2339 3066,2339 3067,2340 3080,2340 3081,2339 3098,2339 3099,2338 3149,2338 3150,2337 3165,2337 3166,2338 3198,2338 3199,2337 3212,2337 3213,2338 3214,2338 3215,2337 3269,2337 3270,2336 3279,2336 3280,2337 3290,2337 3291,2336 3298,2336 3299,2335 3300,2335 3301,2336 3328,2336 3329,2337 3338,2337 3339,2336 3373,2336 3374,2337 3386,2337 3387,2336 3401,2336 3402,2337 3434,2337 3435,2336 3460,2336 3461,2335 3466,2335 3467,2336 3484,2336 3485,2335 3500,2335 3501,2336 3546,2336 3547,2335 3554,2335 3555,2336 3566,2336 3567,2335 3595,2335 3596,2336 3604,2336 3605,2337 3627,2337 3628,2336 3639,2336 3640,2337 3646,2337 3647,2336 3675,2336 3676,2335 3722,2335 3723,2334 3728,2334 3729,2335 3733,2335 3734,2336 3743,2336 3744,2335 3819,2335 3820,2334 3837,2334 3838,2335 3875,2335 3876,2334 3885,2334 3886,2333 3971,2333 3972,2332 3989,2332 3990,2331 3992,2331 3993,2330 3994,2330 3996,2328 3997,2328 3998,2327 3998,2326 4001,2323 4001,2322 4002,2321 4002,2309 4001,2308 4001,2290 4000,2289 4000,2274 3999,2273 3999,2262 3998,2261 3998,2247 3999,2246 3999,2241 4000,2240 4000,2236 4001,2235 4001,2234 4000,2233 4000,2196 3999,2195 3999,2192 3998,2191 3998,2185 3997,2184 3997,2173 3998,2172 3998,2150 3999,2149 3999,2146 4000,2145 4000,2142 4001,2141 4001,2136 4000,2135 4000,2087 3999,2086 3999,2074 4000,2073 4000,2061 3999,2060 3999,2057 4000,2056 4000,2050 4001,2049 4001,2039 4000,2038 4000,2028 4001,2027 4001,2016 4000,2015 4000,2004 4001,2003 4001,1996 4000,1995 4000,1990 3999,1989 3999,1984 3998,1983 3998,1980 3997,1979 3997,1976 3996,1975 3996,1974 3992,1970 3991,1970 3990,1969 3974,1969 3973,1970 3962,1970 3961,1969 3901,1969 3900,1970 3892,1970 3891,1969" fill="rgba(151,130,149,0.3)" stroke="rgb(151,130,149)" stroke-width="2" data-block-id="0007"/>
    <text x="3280" y="2157" text-anchor="middle" dominant-baseline="middle" class="block-label" fill="rgb(151,130,149)" stroke="white" stroke-width="3" paint-order="stroke">b-0007.svg</text>
    <polygon points="3797,544 3796,545 3792,545 3791,546 3749,546 3748,545 3736,545 3735,546 3722,546 3721,545 3685,545 3684,546 3674,546 3673,545 3638,545 3637,546 3634,546 3633,547 3625,547 3624,546 3614,546 3613,547 3604,547 3603,546 3593,546 3592,547 3587,547 3586,548 3579,548 3578,547 3546,547 3545,548 3526,548 3525,547 3505,547 3504,548 3495,548 3494,547 3468,547 3467,546 3439,546 3438,547 3411,547 3410,548 3405,548 3404,549 3385,549 3384,548 3339,548 3338,547 3319,547 3318,548 3304,548 3303,549 3297,549 3296,548 3290,548 3289,547 3272,547 3271,548 3241,548 3240,547 3226,547 3225,548 3196,548 3195,547 3177,547 3176,548 3164,548 3163,549 3154,549 3153,548 3121,548 3120,549 3105,549 3104,548 3057,548 3056,547 2927,547 2926,548 2896,548 2895,549 2891,549 2890,548 2876,548 2875,549 2862,549 2861,548 2850,548 2849,549 2827,549 2826,548 2787,548 2786,549 2784,549 2783,548 2749,548 2748,547 2743,547 2742,546 2723,546 2722,545 2691,545 2690,546 2681,546 2680,547 2679,546 2671,546 2670,545 2663,545 2662,546 2647,546 2646,545 2641,545 2640,546 2633,546 2632,547 2629,547 2628,546 2609,546 2608,547 2572,547 2571,548 2569,548 2565,552 2565,554 2564,555 2564,565 2563,566 2563,590 2562,591 2562,605 2561,606 2561,615 2562,616 2562,620 2563,621 2563,623 2564,624 2564,636 2563,637 2563,638 2562,639 2562,640 2561,641 2561,645 2560,646 2560,664 2561,665 2561,703 2560,704 2560,712 2561,713 2561,721 2562,722 2562,746 2561,747 2561,763 2562,764 2562,789 2561,790 2561,815 2562,816 2562,837 2561,838 2561,857 2562,858 2562,873 2561,874 2561,890 2560,891 2560,900 2561,901 2561,902 2562,903 2562,904 2567,909 2568,909 2569,910 2572,910 2573,911 2652,911 2653,912 2656,912 2657,911 2666,911 2667,910 2672,910 2673,911 2692,911 2693,910 2705,910 2706,909 2744,909 2745,910 2751,910 2752,911 2753,911 2754,910 2784,910 2785,911 2803,911 2804,910 2835,910 2836,911 2861,911 2862,910 2877,910 2878,911 2891,911 2892,912 2910,912 2911,911 2923,911 2924,912 2949,912 2950,913 2954,913 2955,912 3029,912 3030,911 3036,911 3037,910 3056,910 3057,911 3069,911 3070,912 3094,912 3095,911 3105,911 3106,912 3107,911 3134,911 3135,912 3148,912 3149,911 3172,911 3173,910 3176,910 3177,909 3190,909 3191,910 3193,910 3194,909 3212,909 3213,908 3221,908 3222,907 3250,907 3251,908 3261,908 3262,909 3284,909 3285,910 3291,910 3292,909 3326,909 3327,910 3339,910 3340,909 3364,909 3365,910 3407,910 3408,911 3416,911 3417,912 3418,912 3419,911 3430,911 3431,910 3448,910 3449,911 3459,911 3460,912 3473,912 3474,911 3482,911 3483,910 3496,910 3497,911 3509,911 3510,912 3517,912 3518,911 3576,911 3577,910 3584,910 3585,909 3603,909 3604,908 3625,908 3626,907 3635,907 3636,908 3642,908 3643,909 3647,909 3648,908 3664,908 3665,907 3703,907 3704,906 3739,906 3740,905 3769,905 3770,906 3784,906 3785,905 3786,906 3831,906 3832,905 3833,905 3834,906 3878,906 3879,905 3883,905 3884,906 3888,906 3889,907 3908,907 3909,908 3977,908 3978,907 3981,907 3982,906 3983,906 3984,905 3985,905 3990,900 3990,898 3991,897 3991,853 3992,852 3992,847 3993,846 3993,843 3994,842 3994,841 3995,840 3995,836 3996,835 3996,814 3995,813 3995,808 3994,807 3994,774 3995,773 3995,769 3996,768 3996,762 3997,761 3997,741 3996,740 3996,727 3995,726 3995,687 3996,686 3996,681 3997,680 3997,678 3998,677 3998,675 3999,674 3999,656 4000,655 4000,648 3999,647 3999,646 3998,645 3998,644 3997,643 3997,642 3996,641 3996,639 3995,638 3995,636 3994,635 3994,632 3993,631 3993,625 3992,624 3993,623 3993,612 3994,611 3994,594 3995,593 3995,588 3996,587 3996,582 3997,581 3997,570 3996,569 3996,556 3995,555 3995,551 3994,550 3994,549 3991,546 3990,546 3989,545 3985,545 3984,544 3967,544 3966,545 3964,545 3963,544 3886,544 3885,545 3865,545 3864,546 3856,546 3855,545 3803,545 3802,544" fill="rgba(52,1,87,0.3)" stroke="rgb(52,1,87)" stroke-width="2" data-block-id="0008"/>
    <text x="3280" y="728" text-anchor="middle" dominant-baseline="middle" class="block-label" fill="rgb(52,1,87)" stroke="white" stroke-width="3" paint-order="stroke">b-0008.svg</text>
    <polygon points="3921,1498 3920,1499 3887,1499 3886,1500 3862,1500 3861,1501 3856,1501 3855,1500 3838,1500 3837,1499 3833,1499 3832,1500 3817,1500 3816,1499 3787,1499 3786,1500 3744,1500 3743,1499 3679,1499 3678,1500 3626,1500 3625,1501 3595,1501 3594,1500 3570,1500 3569,1501 3560,1501 3559,1500 3507,1500 3506,1501 3468,1501 3467,1502 3465,1502 3464,1501 3458,1501 3457,1500 3445,1500 3444,1501 3415,1501 3414,1500 3375,1500 3374,1501 3347,1501 3346,1502 3334,1502 3333,1501 3328,1501 3327,1500 3304,1500 3303,1501 3282,1501 3281,1500 3244,1500 3243,1501 3221,1501 3220,1500 3215,1500 3214,1501 3205,1501 3204,1502 3186,1502 3185,1501 3180,1501 3179,1500 3177,1500 3176,1501 3145,1501 3144,1502 3132,1502 3131,1501 3110,1501 3109,1502 3103,1502 3102,1501 3020,1501 3019,1502 2978,1502 2977,1501 2974,1501 2973,1502 2932,1502 2931,1501 2927,1501 2926,1502 2842,1502 2841,1501 2827,1501 2826,1502 2781,1502 2780,1503 2723,1503 2722,1502 2695,1502 2694,1503 2661,1503 2660,1502 2639,1502 2638,1503 2596,1503 2595,1504 2571,1504 2570,1505 2568,1505 2567,1506 2566,1506 2564,1508 2564,1509 2563,1510 2563,1511 2562,1512 2562,1513 2561,1514 2561,1517 2560,1518 2560,1528 2561,1529 2560,1530 2560,1547 2559,1548 2559,1640 2560,1641 2560,1698 2559,1699 2559,1715 2560,1716 2560,1783 2561,1784 2561,1801 2560,1802 2560,1817 2559,1818 2559,1842 2560,1843 2560,1849 2561,1850 2561,1852 2565,1856 2566,1856 2568,1858 2570,1858 2571,1859 2573,1859 2574,1860 2579,1860 2580,1861 2587,1861 2588,1862 2604,1862 2605,1863 2744,1863 2745,1864 2774,1864 2775,1865 2783,1865 2784,1866 2817,1866 2818,1865 2829,1865 2830,1864 2907,1864 2908,1863 2913,1863 2914,1862 2939,1862 2940,1861 2949,1861 2950,1860 2959,1860 2960,1861 3007,1861 3008,1860 3099,1860 3100,1861 3162,1861 3163,1860 3174,1860 3175,1859 3222,1859 3223,1858 3272,1858 3273,1857 3287,1857 3288,1858 3292,1858 3293,1859 3299,1859 3300,1860 3408,1860 3409,1859 3413,1859 3414,1858 3449,1858 3450,1857 3492,1857 3493,1856 3501,1856 3502,1857 3510,1857 3511,1858 3539,1858 3540,1857 3553,1857 3554,1858 3591,1858 3592,1857 3599,1857 3600,1858 3606,1858 3607,1859 3610,1859 3611,1858 3635,1858 3636,1857 3650,1857 3651,1858 3689,1858 3690,1857 3728,1857 3729,1858 3743,1858 3744,1857 3812,1857 3813,1856 3841,1856 3842,1857 3848,1857 3849,1856 3857,1856 3858,1855 3865,1855 3866,1856 3872,1856 3873,1855 3908,1855 3909,1854 3972,1854 3973,1853 3988,1853 3989,1852 3992,1852 3993,1851 3994,1851 3998,1847 3998,1845 3999,1844 3999,1840 4000,1839 4000,1832 3999,1831 3999,1829 4000,1828 4000,1813 3999,1812 3999,1809 3998,1808 3998,1797 3999,1796 3999,1780 4000,1779 4000,1773 4001,1772 4001,1766 4000,1765 4000,1759 3999,1758 3999,1717 4000,1716 4000,1711 4001,1710 4001,1691 4000,1690 4000,1685 3999,1684 3999,1643 4000,1642 4000,1622 4001,1621 4001,1601 4000,1600 4000,1587 3999,1586 3999,1581 3998,1580 3998,1578 3997,1577 3997,1540 3998,1539 3998,1512 3997,1511 3997,1507 3996,1506 3996,1505 3994,1503 3993,1503 3992,1502 3991,1502 3990,1501 3987,1501 3986,1500 3982,1500 3981,1499 3967,1499 3966,1500 3963,1500 3962,1499 3934,1499 3933,1498" fill="rgba(235,157,37,0.3)" stroke="rgb(235,157,37)" stroke-width="2" data-block-id="0009"/>
    <text x="3280" y="1682" text-anchor="middle" dominant-baseline="middle" class="block-label" fill="rgb(235,157,37)" stroke="white" stroke-width="3" paint-order="stroke">b-0009.svg</text>
    <polygon points="3278,1024 3277,1025 3262,1025 3261,1026 3246,1026 3245,1025 3221,1025 3220,1026 3186,1026 3185,1025 3176,1025 3175,1026 3123,1026 3122,1027 3115,1027 3114,1026 3068,1026 3067,1027 3057,1027 3056,1026 2923,1026 2922,1027 2913,1027 2912,1026 2906,1026 2905,1025 2903,1025 2902,1026 2875,1026 2874,1027 2864,1027 2863,1026 2792,1026 2791,1027 2755,1027 2754,1026 2741,1026 2740,1027 2729,1027 2728,1026 2727,1027 2677,1027 2676,1026 2653,1026 2652,1025 2640,1025 2639,1026 2608,1026 2607,1027 2599,1027 2598,1028 2583,1028 2582,1029 2579,1029 2578,1030 2576,1030 2575,1031 2573,1031 2569,1035 2569,1036 2568,1037 2568,1038 2567,1039 2567,1040 2566,1041 2566,1067 2565,1068 2565,1072 2564,1073 2564,1080 2563,1081 2563,1093 2564,1094 2564,1101 2565,1102 2565,1107 2564,1108 2564,1126 2563,1127 2563,1133 2562,1134 2562,1146 2563,1147 2563,1217 2564,1218 2564,1238 2565,1239 2565,1253 2564,1254 2565,1255 2565,1261 2566,1262 2566,1272 2565,1273 2565,1275 2564,1276 2564,1280 2563,1281 2563,1283 2564,1284 2564,1294 2563,1295 2563,1301 2562,1302 2562,1305 2563,1306 2563,1311 2564,1312 2564,1323 2563,1324 2563,1332 2562,1333 2562,1350 2563,1351 2563,1377 2569,1383 2571,1383 2572,1384 2575,1384 2576,1385 2578,1385 2579,1386 2581,1386 2582,1387 2592,1387 2593,1386 2600,1386 2601,1387 2610,1387 2611,1386 2675,1386 2676,1387 2683,1387 2684,1386 2694,1386 2695,1387 2702,1387 2703,1388 2704,1388 2705,1387 2724,1387 2725,1388 2728,1388 2729,1387 2748,1387 2749,1388 2752,1388 2753,1387 2780,1387 2781,1386 2796,1386 2797,1387 2799,1387 2800,1386 2826,1386 2827,1385 2836,1385 2837,1386 2842,1386 2843,1387 2850,1387 2851,1386 2866,1386 2867,1385 2874,1385 2875,1386 2887,1386 2888,1387 2907,1387 2908,1386 2934,1386 2935,1387 2979,1387 2980,1388 3014,1388 3015,1387 3031,1387 3032,1388 3041,1388 3042,1387 3076,1387 3077,1388 3092,1388 3093,1387 3100,1387 3101,1388 3128,1388 3129,1389 3135,1389 3136,1388 3159,1388 3160,1387 3172,1387 3173,1388 3187,1388 3188,1387 3194,1387 3195,1388 3219,1388 3220,1389 3227,1389 3228,1390 3229,1389 3257,1389 3258,1388 3267,1388 3268,1389 3282,1389 3283,1390 3313,1390 3314,1389 3339,1389 3340,1390 3349,1390 3350,1389 3386,1389 3387,1390 3397,1390 3398,1389 3405,1389 3406,1388 3451,1388 3452,1387 3455,1387 3456,1388 3486,1388 3487,1387 3524,1387 3525,1386 3537,1386 3538,1385 3552,1385 3553,1386 3572,1386 3573,1385 3605,1385 3606,1386 3637,1386 3638,1385 3652,1385 3653,1386 3659,1386 3660,1385 3684,1385 3685,1384 3696,1384 3697,1385 3719,1385 3720,1384 3729,1384 3730,1383 3734,1383 3735,1382 3744,1382 3745,1383 3749,1383 3750,1384 3773,1384 3774,1385 3792,1385 3793,1386 3813,1386 3814,1387 3820,1387 3821,1388 3824,1388 3825,1387 3830,1387 3831,1386 3836,1386 3837,1387 3841,1387 3842,1388 3849,1388 3850,1387 3852,1387 3853,1386 3857,1386 3858,1385 3870,1385 3871,1384 3889,1384 3890,1385 3923,1385 3924,1384 3960,1384 3961,1383 3973,1383 3974,1382 3981,1382 3982,1381 3984,1381 3985,1380 3986,1380 3987,1379 3988,1379 3989,1378 3990,1378 3992,1376 3992,1375 3993,1374 3993,1367 3994,1366 3994,1358 3993,1357 3993,1352 3994,1351 3994,1349 3995,1348 3995,1346 3996,1345 3996,1344 3997,1343 3997,1337 3995,1335 3995,1334 3994,1333 3994,1332 3993,1331 3993,1330 3992,1329 3992,1323 3993,1322 3993,1319 3994,1318 3994,1316 3995,1315 3995,1298 3996,1297 3996,1289 3995,1288 3995,1285 3994,1284 3994,1277 3995,1276 3995,1274 3996,1273 3996,1266 3995,1265 3995,1263 3994,1262 3994,1261 3993,1260 3993,1250 3994,1249 3994,1235 3993,1234 3993,1221 3992,1220 3992,1217 3991,1216 3991,1212 3990,1211 3990,1209 3991,1208 3991,1205 3992,1204 3992,1203 3993,1202 3993,1200 3994,1199 3994,1196 3995,1195 3994,1194 3994,1187 3993,1186 3993,1156 3992,1155 3992,1148 3993,1147 3993,1140 3994,1139 3994,1134 3993,1133 3993,1113 3992,1112 3992,1110 3991,1109 3991,1108 3990,1107 3990,1106 3989,1105 3989,1104 3988,1103 3988,1098 3989,1097 3989,1094 3990,1093 3990,1087 3991,1086 3991,1074 3990,1073 3990,1071 3989,1070 3989,1068 3988,1067 3988,1064 3989,1063 3989,1061 3990,1060 3990,1058 3991,1057 3991,1055 3992,1054 3992,1050 3993,1049 3993,1045 3994,1044 3994,1041 3993,1040 3993,1037 3992,1036 3992,1033 3991,1032 3991,1031 3989,1029 3988,1029 3987,1028 3985,1028 3984,1027 3981,1027 3980,1026 3962,1026 3961,1025 3906,1025 3905,1026 3895,1026 3894,1025 3873,1025 3872,1026 3865,1026 3864,1027 3850,1027 3849,1026 3841,1026 3840,1027 3818,1027 3817,1026 3813,1026 3812,1025 3804,1025 3803,1026 3792,1026 3791,1025 3785,1025 3784,1026 3765,1026 3764,1025 3760,1025 3759,1026 3701,1026 3700,1027 3684,1027 3683,1026 3669,1026 3668,1027 3638,1027 3637,1026 3630,1026 3629,1027 3590,1027 3589,1028 3538,1028 3537,1027 3533,1027 3532,1026 3528,1026 3527,1025 3518,1025 3517,1024 3503,1024 3502,1025 3463,1025 3462,1026 3457,1026 3456,1027 3449,1027 3448,1026 3444,1026 3443,1025 3433,1025 3432,1024 3425,1024 3424,1025 3391,1025 3390,1024 3351,1024 3350,1025 3345,1025 3344,1024 3327,1024 3326,1025 3300,1025 3299,1024" fill="rgba(129,191,187,0.3)" stroke="rgb(129,191,187)" stroke-width="2" data-block-id="0010"/>
    <text x="3279" y="1207" text-anchor="middle" dominant-baseline="middle" class="block-label" fill="rgb(129,191,187)" stroke="white" stroke-width="3" paint-order="stroke">b-0010.svg</text>
    <polygon points="2203,541 2202,542 2197,542 2196,543 2189,543 2188,544 2169,544 2168,545 2144,545 2143,544 2137,544 2136,543 2125,543 2124,544 2114,544 2113,545 2106,545 2105,544 2082,544 2081,545 2070,545 2069,544 2061,544 2060,543 2040,543 2039,544 2030,544 2029,543 2002,543 2001,544 1991,544 1990,543 1981,543 1980,542 1970,542 1969,543 1957,543 1956,544 1921,544 1920,545 1915,545 1914,544 1903,544 1902,543 1893,543 1892,544 1864,544 1863,543 1854,543 1853,544 1829,544 1828,543 1769,543 1768,544 1753,544 1752,543 1733,543 1732,544 1686,544 1685,545 1623,545 1622,546 1594,546 1593,545 1583,545 1582,546 1552,546 1551,545 1549,545 1548,546 1543,546 1542,547 1539,547 1538,548 1535,548 1534,549 1532,549 1531,550 1515,550 1514,549 1509,549 1508,550 1505,550 1504,551 1503,551 1498,556 1498,564 1499,565 1499,573 1500,574 1500,578 1501,579 1501,583 1502,584 1502,589 1503,590 1503,598 1502,599 1502,610 1501,611 1501,625 1500,626 1500,636 1499,637 1499,643 1498,644 1498,653 1497,654 1497,683 1496,684 1496,692 1497,693 1497,694 1498,695 1498,696 1499,697 1499,698 1500,699 1500,701 1501,702 1501,703 1502,704 1502,706 1503,707 1503,717 1502,718 1502,720 1501,721 1501,723 1500,724 1500,725 1499,726 1499,728 1500,728 1502,730 1503,730 1504,731 1525,731 1526,732 1527,732 1528,733 1529,733 1532,736 1532,738 1533,739 1533,740 1534,741 1534,744 1535,745 1535,757 1534,758 1534,773 1535,774 1535,779 1536,780 1536,786 1537,787 1537,793 1536,794 1536,807 1535,808 1535,811 1536,812 1536,833 1535,834 1535,862 1534,863 1534,872 1533,873 1533,879 1532,880 1532,887 1533,888 1533,891 1534,892 1534,894 1535,895 1535,897 1536,898 1536,900 1537,901 1537,902 1539,904 1540,904 1542,906 1543,906 1544,907 1547,907 1548,908 1551,908 1552,907 1568,907 1569,906 1571,906 1572,907 1594,907 1595,906 1611,906 1612,907 1688,907 1689,908 1711,908 1712,907 1737,907 1738,908 1749,908 1750,907 1768,907 1769,908 1794,908 1795,907 1951,907 1952,906 2002,906 2003,907 2025,907 2026,906 2046,906 2047,907 2139,907 2140,906 2231,906 2232,907 2238,907 2239,908 2321,908 2322,909 2328,909 2329,908 2343,908 2344,907 2349,907 2350,908 2374,908 2375,909 2383,909 2384,908 2389,908 2390,907 2392,907 2393,906 2394,906 2395,905 2396,905 2399,902 2399,901 2400,900 2400,898 2401,897 2401,894 2402,893 2402,889 2403,888 2403,858 2404,857 2404,834 2403,833 2403,824 2404,823 2404,814 2405,813 2405,798 2404,797 2404,777 2405,776 2405,745 2404,744 2404,713 2405,712 2405,703 2404,702 2404,661 2403,660 2403,625 2404,624 2404,613 2405,612 2405,610 2404,609 2404,583 2405,582 2405,572 2404,571 2404,568 2403,567 2403,565 2402,564 2402,562 2401,561 2401,559 2400,558 2400,557 2399,556 2398,556 2395,553 2394,553 2393,552 2392,552 2391,551 2390,551 2389,550 2386,550 2385,549 2381,549 2380,548 2375,548 2374,547 2369,547 2368,546 2344,546 2343,545 2337,545 2336,544 2330,544 2329,543 2319,543 2318,544 2299,544 2298,543 2292,543 2291,542 2281,542 2280,543 2271,543 2270,544 2269,543 2257,543 2256,542 2243,542 2242,543 2236,543 2235,544 2225,544 2224,543 2221,543 2220,542 2216,542 2215,541" fill="rgba(20,160,203,0.3)" stroke="rgb(20,160,203)" stroke-width="2" data-block-id="0011"/>
    <text x="1950" y="725" text-anchor="middle" dominant-baseline="middle" class="block-label" fill="rgb(20,160,203)" stroke="white" stroke-width="3" paint-order="stroke">b-0011.svg</text>
    <polygon points="956,544 955,545 953,545 952,546 950,546 948,548 948,549 947,550 947,553 946,554 946,585 945,586 945,768 944,769 944,837 943,838 943,844 944,845 944,880 943,881 943,900 944,901 944,902 945,903 945,904 946,904 947,905 950,905 951,906 1114,906 1115,905 1119,905 1120,904 1123,904 1124,903 1154,903 1155,904 1163,904 1164,905 1176,905 1177,906 1189,906 1190,907 1266,907 1267,908 1271,908 1272,907 1304,907 1307,904 1307,903 1308,902 1308,861 1309,860 1309,806 1310,805 1310,801 1309,800 1309,787 1308,786 1308,782 1307,781 1307,770 1308,769 1308,765 1309,764 1309,756 1310,755 1310,745 1309,744 1309,693 1308,692 1308,687 1307,686 1307,683 1308,682 1308,677 1309,676 1309,672 1310,671 1310,644 1311,643 1311,618 1310,617 1310,556 1311,555 1310,554 1310,551 1309,550 1309,549 1308,548 1307,548 1306,547 1305,547 1304,546 1220,546 1219,547 1176,547 1175,546 1124,546 1123,547 1105,547 1104,546 1100,546 1099,545 1098,546 1082,546 1081,545 1010,545 1009,544 1001,544 1000,545 990,545 989,544" fill="rgba(57,21,252,0.3)" stroke="rgb(57,21,252)" stroke-width="2" data-block-id="0012"/>
    <text x="1127" y="726" text-anchor="middle" dominant-baseline="middle" class="block-label" fill="rgb(57,21,252)" stroke="white" stroke-width="3" paint-order="stroke">b-0012.svg</text>
    <polygon points="3162,164 3161,165 3138,165 3137,166 3131,166 3130,167 3117,167 3116,166 3109,166 3108,165 3106,165 3105,166 3100,166 3099,167 3096,167 3095,168 3093,168 3092,169 3088,169 3087,170 3078,170 3077,169 3056,169 3055,170 3040,170 3039,169 3032,169 3031,168 3022,168 3021,169 3013,169 3012,170 2983,170 2982,171 2975,171 2974,172 2971,172 2970,173 2969,173 2967,175 2966,175 2966,176 2965,177 2965,178 2964,179 2964,180 2963,181 2963,197 2964,198 2964,203 2965,204 2965,210 2966,211 2966,221 2967,222 2967,224 2968,225 2968,226 2971,229 2972,229 2973,230 2975,230 2976,231 2978,231 2979,232 2981,232 2982,233 2983,233 2984,234 2985,234 2986,235 2989,235 2990,236 3007,236 3008,237 3010,237 3012,239 3013,239 3014,240 3013,241 3012,241 3011,242 3010,242 3009,243 3006,243 3005,244 2988,244 2987,245 2984,245 2983,246 2977,246 2976,247 2964,247 2963,246 2956,246 2955,245 2948,245 2947,246 2945,246 2944,247 2943,247 2938,252 2938,253 2937,254 2937,255 2936,256 2936,259 2935,260 2935,265 2934,266 2934,273 2933,274 2933,328 2934,329 2934,345 2933,346 2933,369 2934,370 2934,386 2935,387 2935,391 2936,392 2936,394 2937,395 2937,396 2940,399 2941,399 2942,400 2943,400 2944,401 2945,401 2946,402 2948,402 2949,403 2951,403 2952,404 2955,404 2956,405 2959,405 2960,406 2963,406 2964,407 2967,407 2968,408 2971,408 2972,409 2973,409 2974,410 2976,410 2977,411 2978,411 2979,412 2980,412 2981,413 2982,413 2983,414 2984,414 2985,415 2994,415 2995,414 2997,414 2998,413 3001,413 3002,412 3006,412 3007,411 3019,411 3020,410 3036,410 3037,409 3061,409 3062,410 3066,410 3067,409 3078,409 3079,408 3117,408 3118,409 3131,409 3132,410 3152,410 3153,409 3159,409 3160,408 3198,408 3199,407 3202,407 3203,408 3269,408 3270,407 3280,407 3281,406 3287,406 3288,407 3298,407 3299,406 3304,406 3305,405 3309,405 3310,404 3315,404 3316,403 3318,403 3319,402 3321,402 3322,401 3323,401 3325,399 3326,399 3329,396 3329,395 3333,391 3333,390 3334,389 3335,389 3338,386 3339,386 3340,385 3341,385 3342,384 3343,384 3344,383 3345,383 3346,382 3347,382 3348,381 3349,381 3350,380 3352,380 3353,379 3355,379 3356,378 3359,378 3360,377 3363,377 3364,376 3367,376 3368,375 3369,375 3370,374 3371,374 3372,373 3373,373 3376,370 3376,369 3378,367 3378,366 3380,364 3380,363 3382,361 3383,361 3384,360 3385,360 3387,358 3389,358 3390,357 3391,357 3392,356 3395,356 3396,355 3398,355 3399,354 3401,354 3402,353 3404,353 3405,352 3406,352 3407,351 3408,351 3409,350 3410,350 3414,346 3415,346 3419,342 3420,342 3422,340 3423,340 3425,338 3426,338 3428,336 3429,336 3430,335 3431,335 3444,322 3444,321 3447,318 3447,317 3450,314 3450,313 3455,308 3456,308 3458,306 3459,306 3461,304 3462,304 3464,302 3465,302 3467,300 3468,300 3469,299 3470,299 3471,298 3472,298 3474,296 3475,296 3476,295 3477,295 3483,289 3483,288 3484,287 3484,286 3485,285 3485,284 3481,280 3480,280 3479,279 3476,279 3475,278 3469,278 3468,277 3464,277 3463,276 3460,276 3459,275 3458,275 3453,270 3453,269 3450,266 3450,265 3447,262 3446,262 3444,260 3443,260 3442,259 3440,259 3439,258 3436,258 3435,257 3431,257 3430,256 3425,256 3424,255 3420,255 3419,254 3393,254 3392,253 3386,253 3385,252 3381,252 3380,251 3377,251 3376,250 3373,250 3372,249 3367,249 3366,248 3356,248 3355,247 3312,247 3311,246 3305,246 3304,245 3303,245 3301,243 3300,243 3298,241 3298,240 3299,239 3300,239 3302,237 3304,237 3305,236 3308,236 3309,235 3312,235 3313,234 3318,234 3319,233 3339,233 3340,232 3346,232 3347,231 3353,231 3354,230 3367,230 3368,229 3382,229 3383,228 3411,228 3412,229 3414,229 3415,228 3419,228 3420,227 3422,227 3423,226 3426,226 3427,225 3429,225 3430,224 3432,224 3433,223 3434,223 3437,220 3437,219 3438,218 3438,214 3439,213 3439,210 3440,209 3440,206 3441,205 3441,202 3442,201 3442,198 3443,197 3443,193 3444,192 3444,184 3443,183 3443,182 3442,181 3442,180 3440,178 3439,178 3437,176 3436,176 3435,175 3433,175 3432,174 3428,174 3427,173 3424,173 3423,172 3419,172 3418,171 3408,171 3407,172 3392,172 3391,171 3386,171 3385,170 3381,170 3380,169 3364,169 3363,170 3354,170 3353,169 3311,169 3310,168 3304,168 3303,167 3294,167 3293,168 3286,168 3285,169 3276,169 3275,168 3269,168 3268,167 3262,167 3261,166 3251,166 3250,167 3241,167 3240,166 3233,166 3232,165 3227,165 3226,164 3218,164 3217,165 3211,165 3210,166 3195,166 3194,165 3188,165 3187,164" fill="rgba(235,88,48,0.3)" stroke="rgb(235,88,48)" stroke-width="2" data-block-id="0013"/>
    <text x="3209" y="289" text-anchor="middle" dominant-baseline="middle" class="block-label" fill="rgb(235,88,48)" stroke="white" stroke-width="3" paint-order="stroke">b-0013.svg</text>
    <polygon points="1876,164 1875,165 1871,165 1870,166 1866,166 1865,167 1861,167 1860,168 1855,168 1854,169 1848,169 1847,170 1832,170 1831,169 1808,169 1807,170 1775,170 1774,171 1766,171 1765,172 1748,172 1747,171 1743,171 1742,172 1732,172 1731,173 1725,173 1723,175 1722,175 1720,177 1720,178 1719,179 1719,181 1718,182 1718,186 1717,187 1717,193 1718,194 1718,204 1717,205 1717,211 1716,212 1716,218 1715,219 1715,222 1713,224 1713,225 1710,228 1709,228 1707,230 1706,230 1704,232 1703,232 1702,233 1701,233 1699,235 1698,235 1695,238 1694,238 1686,246 1686,248 1685,249 1685,251 1684,252 1684,255 1683,256 1683,260 1682,261 1682,273 1683,274 1683,298 1684,299 1684,315 1685,316 1685,320 1686,321 1686,323 1687,324 1687,325 1694,332 1695,332 1697,334 1698,334 1699,335 1700,335 1701,336 1703,336 1704,337 1709,337 1710,338 1714,338 1715,339 1722,339 1723,340 1730,340 1731,341 1742,341 1743,342 1744,342 1745,341 1753,341 1754,340 1762,340 1763,339 1771,339 1772,338 1780,338 1781,337 1783,337 1784,338 1790,338 1791,339 1799,339 1800,340 1827,340 1828,339 1913,339 1914,338 1983,338 1984,337 2011,337 2012,338 2022,338 2023,339 2030,339 2031,340 2057,340 2058,339 2107,339 2108,340 2117,340 2118,339 2137,339 2138,338 2146,338 2147,337 2160,337 2161,336 2179,336 2180,337 2193,337 2194,336 2198,336 2199,335 2202,335 2203,334 2205,334 2206,333 2207,333 2209,331 2210,331 2212,329 2212,328 2214,326 2214,325 2215,324 2215,322 2216,321 2216,318 2217,317 2217,315 2218,314 2218,312 2219,311 2219,310 2220,309 2220,308 2221,307 2221,306 2222,305 2222,304 2223,303 2223,301 2224,300 2224,299 2225,298 2225,295 2226,294 2226,290 2227,289 2227,286 2228,285 2228,275 2227,274 2227,271 2226,270 2226,268 2223,265 2223,264 2222,263 2222,262 2220,260 2220,259 2221,258 2221,256 2222,255 2222,254 2223,253 2223,252 2225,250 2225,249 2226,248 2226,245 2225,245 2224,244 2223,244 2222,243 2221,243 2220,242 2219,242 2218,241 2217,241 2216,240 2214,240 2213,239 2212,239 2204,231 2204,230 2202,228 2202,227 2201,226 2201,225 2200,224 2200,222 2199,221 2199,219 2198,218 2198,216 2197,215 2197,213 2196,212 2196,211 2195,210 2195,209 2194,208 2194,207 2193,206 2194,205 2194,203 2195,202 2195,201 2201,195 2201,194 2202,193 2202,192 2203,191 2203,190 2204,189 2204,188 2205,187 2204,186 2204,183 2203,182 2203,181 2202,181 2200,179 2199,179 2198,178 2196,178 2195,177 2193,177 2192,176 2172,176 2171,177 2160,177 2159,178 2121,178 2120,177 2092,177 2091,176 2079,176 2078,175 2049,175 2048,174 2042,174 2041,173 2032,173 2031,172 2011,172 2010,171 2002,171 2001,170 1994,170 1993,169 1988,169 1987,168 1984,168 1983,167 1980,167 1979,166 1975,166 1974,165 1968,165 1967,164 1947,164 1946,165 1938,165 1937,166 1912,166 1911,165 1903,165 1902,164" fill="rgba(218,58,254,0.3)" stroke="rgb(218,58,254)" stroke-width="2" data-block-id="0014"/>
    <text x="1955" y="253" text-anchor="middle" dominant-baseline="middle" class="block-label" fill="rgb(218,58,254)" stroke="white" stroke-width="3" paint-order="stroke">b-0014.svg</text>
    <polygon points="444,970 442,972 441,972 437,976 437,977 432,982 432,983 431,984 431,986 430,987 430,989 429,990 429,991 428,992 428,994 427,995 427,997 426,998 426,1000 425,1001 425,1002 424,1003 424,1004 422,1006 422,1007 421,1008 418,1008 417,1009 411,1009 406,1004 405,1004 404,1003 403,1003 402,1002 401,1002 400,1001 399,1001 398,1000 397,1000 396,999 394,999 393,998 392,998 391,997 389,997 388,996 376,996 375,997 373,997 369,1001 369,1002 368,1003 368,1004 367,1005 367,1048 366,1049 366,1119 365,1120 365,1148 364,1149 364,1163 363,1164 363,1170 362,1171 362,1181 363,1182 363,1184 362,1185 362,1190 361,1191 361,1192 360,1193 360,1195 359,1196 359,1213 358,1214 358,1231 359,1232 359,1238 360,1239 360,1242 361,1243 361,1251 362,1252 362,1255 361,1256 361,1260 360,1261 360,1265 359,1266 359,1273 358,1274 358,1298 357,1299 357,1312 358,1313 358,1316 359,1317 359,1319 360,1320 360,1321 361,1322 361,1323 362,1324 362,1327 363,1328 363,1333 362,1334 362,1347 363,1348 363,1353 362,1354 362,1383 363,1384 363,1402 362,1403 362,1415 361,1416 361,1425 362,1426 362,1432 363,1433 363,1465 362,1466 362,1469 363,1470 363,1472 367,1476 368,1476 369,1477 370,1477 371,1478 374,1478 375,1479 376,1479 377,1478 380,1478 381,1477 382,1477 383,1476 384,1476 385,1475 387,1475 388,1474 391,1474 392,1473 395,1473 396,1472 398,1472 399,1471 400,1471 401,1470 402,1470 403,1469 405,1469 406,1468 408,1468 409,1467 410,1468 411,1468 412,1469 413,1469 414,1470 414,1471 416,1473 416,1474 417,1475 417,1479 418,1480 418,1487 419,1488 419,1493 420,1494 420,1496 421,1497 421,1498 422,1499 422,1500 424,1502 424,1503 425,1504 425,1505 429,1509 430,1509 431,1510 432,1510 433,1511 435,1511 436,1512 446,1512 447,1513 454,1513 455,1514 463,1514 464,1513 480,1513 481,1512 500,1512 501,1513 506,1513 507,1512 509,1512 511,1510 512,1510 513,1509 513,1508 514,1507 514,1506 515,1505 515,1501 516,1500 516,1491 517,1490 517,1432 518,1431 518,1394 519,1393 519,1380 520,1379 520,1367 519,1366 519,1340 520,1339 520,1305 521,1304 521,1286 522,1285 522,1264 523,1263 523,1236 524,1235 524,1227 523,1226 523,1193 524,1192 524,1143 525,1142 525,1101 526,1100 526,1093 527,1092 527,1087 526,1086 526,1073 525,1072 525,1047 526,1046 526,1004 525,1003 525,1000 524,999 524,996 520,992 517,992 516,991 509,991 508,992 506,992 505,993 504,993 504,994 503,995 503,997 502,998 502,1001 501,1002 501,1004 500,1005 500,1019 499,1020 499,1021 494,1026 481,1026 480,1025 479,1025 478,1024 477,1024 476,1023 475,1023 474,1022 473,1022 472,1021 471,1021 469,1019 468,1019 467,1018 466,1018 463,1015 462,1015 457,1010 457,1009 456,1008 456,988 455,987 455,981 454,980 454,978 453,977 453,976 452,975 452,974 451,973 451,972 450,971 449,971 448,970" fill="rgba(169,219,187,0.3)" stroke="rgb(169,219,187)" stroke-width="2" data-block-id="0015"/>
    <text x="442" y="1242" text-anchor="middle" dominant-baseline="middle" class="block-label" fill="rgb(169,219,187)" stroke="white" stroke-width="3" paint-order="stroke">b-0015.svg</text>
    <polygon points="3139,246 3138,247 3120,247 3119,248 3112,248 3111,249 3105,249 3104,248 3100,248 3099,247 3078,247 3077,248 3073,248 3072,249 3064,249 3063,250 3057,250 3056,249 3049,249 3048,248 3038,248 3037,249 3032,249 3031,250 3029,250 3028,251 3027,251 3026,252 3025,252 3023,254 3022,254 3020,256 3019,256 3017,258 3016,258 3014,260 3009,260 3008,259 3006,259 3005,258 3003,258 3002,257 2998,257 2997,256 2993,256 2992,255 2986,255 2985,254 2979,254 2978,253 2970,253 2969,252 2963,252 2962,251 2960,251 2959,250 2957,250 2956,249 2954,249 2953,248 2951,248 2950,249 2945,249 2944,250 2942,250 2938,254 2938,256 2937,257 2937,262 2936,263 2936,267 2935,268 2935,279 2934,280 2934,300 2935,301 2935,304 2934,305 2934,310 2933,311 2933,322 2934,323 2934,342 2935,343 2935,348 2936,349 2936,354 2935,355 2935,363 2934,364 2935,365 2935,373 2936,374 2936,387 2937,388 2937,391 2938,392 2938,393 2941,396 2942,396 2943,397 2945,397 2946,398 2949,398 2950,399 2958,399 2959,398 2967,398 2968,399 2971,399 2972,400 2974,400 2975,401 2980,401 2981,400 2986,400 2987,399 2989,399 2990,400 2992,400 2993,401 2995,401 2996,402 3009,402 3010,401 3016,401 3017,402 3027,402 3028,401 3031,401 3032,400 3044,400 3045,401 3049,401 3050,400 3053,400 3054,399 3059,399 3060,398 3062,398 3063,399 3080,399 3081,398 3086,398 3087,399 3091,399 3092,400 3100,400 3101,399 3117,399 3118,400 3122,400 3123,399 3138,399 3139,400 3147,400 3148,399 3161,399 3162,400 3188,400 3189,401 3193,401 3194,400 3212,400 3213,401 3232,401 3233,402 3245,402 3246,401 3257,401 3258,402 3292,402 3293,401 3321,401 3322,400 3325,400 3326,399 3327,399 3328,398 3329,398 3330,397 3330,396 3331,395 3331,393 3332,392 3332,390 3333,389 3333,388 3334,387 3334,386 3337,383 3338,383 3340,381 3342,381 3343,380 3344,380 3345,379 3350,379 3351,378 3357,378 3358,377 3361,377 3362,376 3364,376 3365,375 3366,375 3367,374 3368,374 3370,372 3371,372 3371,371 3373,369 3373,368 3374,367 3374,365 3375,364 3375,363 3376,362 3376,361 3378,359 3378,358 3380,356 3381,356 3382,355 3383,355 3384,354 3386,354 3387,353 3390,353 3391,352 3395,352 3396,351 3400,351 3401,350 3405,350 3406,349 3407,349 3417,339 3417,338 3421,334 3422,334 3424,332 3425,332 3426,331 3427,331 3428,330 3429,330 3430,329 3431,329 3432,328 3433,328 3434,327 3435,327 3436,326 3437,326 3438,325 3439,325 3444,320 3444,319 3446,317 3446,316 3447,315 3447,314 3448,313 3448,312 3458,302 3458,301 3463,296 3464,296 3465,295 3468,295 3469,296 3474,296 3475,297 3476,296 3478,296 3479,295 3480,295 3481,294 3482,294 3483,293 3483,292 3484,291 3484,290 3483,290 3482,289 3481,289 3480,288 3478,288 3477,287 3466,287 3465,286 3463,286 3461,284 3460,284 3453,277 3453,276 3452,275 3452,274 3451,273 3451,271 3450,270 3450,268 3449,267 3449,266 3447,264 3446,264 3445,263 3444,263 3443,262 3440,262 3439,261 3432,261 3431,260 3419,260 3418,259 3409,259 3408,258 3384,258 3383,257 3379,257 3378,256 3376,256 3375,255 3374,255 3373,254 3371,254 3370,253 3368,253 3367,252 3365,252 3364,251 3361,251 3360,250 3355,250 3354,251 3350,251 3349,252 3346,252 3345,253 3339,253 3338,254 3320,254 3319,253 3298,253 3297,252 3293,252 3292,251 3289,251 3288,250 3247,250 3246,249 3242,249 3241,248 3219,248 3218,249 3209,249 3208,250 3199,250 3198,249 3156,249 3155,248 3151,248 3150,247 3146,247 3145,246" fill="rgba(207,14,189,0.3)" stroke="rgb(207,14,189)" stroke-width="2" data-block-id="0016"/>
    <text x="3208" y="324" text-anchor="middle" dominant-baseline="middle" class="block-label" fill="rgb(207,14,189)" stroke="white" stroke-width="3" paint-order="stroke">b-0016.svg</text>
    <polygon points="1120,1979 1119,1980 1114,1980 1113,1981 1112,1981 1111,1982 1111,1983 1110,1984 1110,1991 1111,1992 1111,2044 1112,2045 1112,2047 1113,2048 1113,2049 1114,2050 1114,2051 1115,2052 1115,2053 1116,2054 1116,2055 1117,2056 1117,2059 1116,2060 1116,2062 1115,2063 1115,2065 1114,2066 1114,2070 1113,2071 1113,2075 1112,2076 1112,2083 1111,2084 1111,2101 1110,2102 1110,2123 1111,2124 1111,2133 1112,2134 1112,2140 1113,2141 1113,2143 1114,2144 1114,2145 1115,2146 1115,2147 1116,2148 1116,2151 1117,2152 1117,2165 1118,2166 1118,2175 1117,2176 1117,2215 1118,2216 1118,2244 1119,2245 1119,2248 1120,2249 1120,2251 1121,2252 1121,2254 1122,2255 1122,2257 1123,2258 1123,2262 1122,2263 1122,2265 1121,2266 1121,2268 1120,2269 1120,2275 1121,2276 1121,2278 1122,2279 1122,2280 1123,2281 1123,2282 1124,2283 1124,2285 1125,2286 1125,2294 1124,2295 1124,2297 1123,2298 1123,2299 1122,2300 1122,2301 1121,2302 1121,2303 1120,2304 1120,2305 1119,2306 1119,2307 1118,2308 1118,2310 1117,2311 1117,2314 1116,2315 1116,2327 1115,2328 1115,2333 1116,2334 1116,2340 1118,2342 1120,2342 1121,2343 1144,2343 1145,2344 1331,2344 1332,2343 1336,2343 1337,2342 1338,2342 1339,2341 1339,2340 1340,2339 1340,2338 1341,2337 1341,2333 1342,2332 1342,2241 1341,2240 1341,2236 1342,2235 1342,2225 1343,2224 1343,2198 1342,2197 1342,2174 1341,2173 1341,2171 1340,2170 1340,2169 1339,2168 1339,2167 1336,2164 1335,2164 1333,2162 1332,2162 1331,2161 1307,2161 1306,2162 1299,2162 1298,2161 1266,2161 1265,2160 1261,2160 1260,2159 1258,2159 1254,2155 1254,2141 1255,2140 1255,2136 1256,2135 1256,2108 1257,2107 1257,2102 1256,2101 1256,2093 1255,2092 1255,2078 1256,2077 1256,2075 1257,2074 1257,2073 1258,2072 1258,2070 1259,2069 1259,2067 1257,2065 1257,2064 1254,2061 1254,2060 1253,2059 1253,2057 1252,2056 1252,2054 1253,2053 1253,2045 1254,2044 1254,2043 1255,2042 1255,2041 1256,2040 1256,2039 1257,2038 1257,2037 1259,2035 1259,2032 1257,2030 1257,2028 1256,2027 1256,2003 1255,2002 1255,1992 1256,1991 1256,1987 1255,1986 1255,1984 1252,1981 1250,1981 1249,1980 1243,1980 1242,1979" fill="rgba(189,174,189,0.3)" stroke="rgb(189,174,189)" stroke-width="2" data-block-id="0017"/>
    <text x="1226" y="2161" text-anchor="middle" dominant-baseline="middle" class="block-label" fill="rgb(189,174,189)" stroke="white" stroke-width="3" paint-order="stroke">b-0017.svg</text>
    <polygon points="1350,2664 1349,2665 1346,2665 1345,2666 1344,2666 1343,2667 1342,2667 1342,2668 1341,2669 1341,2675 1340,2676 1340,2719 1341,2720 1341,2766 1342,2767 1342,2772 1341,2773 1341,2782 1340,2783 1340,2818 1341,2819 1341,2820 1342,2821 1344,2821 1345,2822 1355,2822 1356,2823 1389,2823 1390,2822 1601,2822 1602,2823 1653,2823 1654,2822 1657,2822 1658,2821 1659,2821 1660,2820 1660,2819 1661,2818 1661,2682 1660,2681 1660,2673 1659,2672 1659,2670 1655,2666 1654,2666 1653,2665 1640,2665 1639,2666 1632,2666 1631,2665 1623,2665 1622,2666 1615,2666 1614,2667 1613,2667 1612,2666 1604,2666 1603,2665 1600,2665 1599,2666 1582,2666 1581,2665 1562,2665 1561,2666 1440,2666 1439,2665 1429,2665 1428,2666 1412,2666 1411,2665 1397,2665 1396,2664 1379,2664 1378,2665 1356,2665 1355,2664" fill="rgba(50,107,54,0.3)" stroke="rgb(50,107,54)" stroke-width="2" data-block-id="0018"/>
    <text x="1500" y="2743" text-anchor="middle" dominant-baseline="middle" class="block-label" fill="rgb(50,107,54)" stroke="white" stroke-width="3" paint-order="stroke">b-0018.svg</text>
    <polygon points="1326,545 1325,546 1321,546 1320,547 1318,547 1317,548 1317,549 1316,550 1316,553 1315,554 1315,597 1316,598 1316,609 1315,610 1315,624 1314,625 1314,646 1315,647 1315,648 1314,649 1314,659 1313,660 1313,699 1312,700 1312,753 1311,754 1311,769 1312,770 1312,799 1311,800 1311,847 1310,848 1310,860 1311,861 1311,863 1310,864 1310,895 1309,896 1309,902 1310,903 1310,908 1314,912 1315,912 1316,913 1376,913 1377,914 1392,914 1393,913 1395,913 1396,912 1397,912 1400,909 1400,907 1401,906 1401,905 1402,904 1402,903 1403,902 1403,899 1404,898 1404,897 1403,896 1403,891 1402,890 1402,883 1401,882 1401,873 1402,872 1402,868 1403,867 1403,861 1402,860 1402,857 1401,856 1401,789 1402,788 1402,766 1403,765 1403,759 1404,758 1404,719 1405,718 1405,709 1406,708 1406,706 1405,705 1405,692 1406,691 1406,686 1409,683 1410,683 1411,682 1428,682 1429,681 1443,681 1444,682 1479,682 1480,681 1487,681 1488,680 1490,680 1492,678 1492,676 1493,675 1493,668 1494,667 1494,650 1495,649 1495,583 1496,582 1496,576 1495,575 1495,552 1494,551 1494,550 1492,548 1491,548 1490,547 1486,547 1485,546 1466,546 1465,547 1372,547 1371,546 1359,546 1358,547 1345,547 1344,546 1331,546 1330,545" fill="rgba(243,63,248,0.3)" stroke="rgb(243,63,248)" stroke-width="2" data-block-id="0019"/>
    <text x="1402" y="729" text-anchor="middle" dominant-baseline="middle" class="block-label" fill="rgb(243,63,248)" stroke="white" stroke-width="3" paint-order="stroke">b-0019.svg</text>
    <polygon points="1421,1205 1420,1206 1333,1206 1332,1207 1322,1207 1321,1208 1318,1208 1317,1209 1316,1209 1315,1210 1314,1210 1313,1211 1313,1213 1312,1214 1312,1216 1311,1217 1311,1222 1310,1223 1310,1281 1309,1282 1309,1287 1308,1288 1308,1317 1309,1318 1309,1320 1310,1321 1310,1323 1314,1327 1314,1328 1316,1330 1315,1331 1315,1333 1314,1334 1314,1343 1313,1344 1313,1352 1314,1353 1314,1357 1315,1358 1315,1359 1316,1360 1316,1369 1315,1370 1315,1376 1318,1379 1319,1379 1320,1380 1323,1380 1324,1381 1328,1381 1329,1382 1351,1382 1352,1383 1388,1383 1389,1384 1415,1384 1416,1383 1436,1383 1437,1384 1529,1384 1530,1383 1532,1383 1533,1382 1534,1382 1534,1381 1536,1379 1536,1376 1537,1375 1537,1371 1536,1370 1536,1250 1537,1249 1537,1240 1536,1239 1536,1215 1535,1214 1535,1211 1534,1210 1534,1209 1532,1207 1530,1207 1529,1206 1523,1206 1522,1205 1464,1205 1463,1206 1456,1206 1455,1205 1439,1205 1438,1206 1429,1206 1428,1205" fill="rgba(130,228,50,0.3)" stroke="rgb(130,228,50)" stroke-width="2" data-block-id="0020"/>
    <text x="1422" y="1294" text-anchor="middle" dominant-baseline="middle" class="block-label" fill="rgb(130,228,50)" stroke="white" stroke-width="3" paint-order="stroke">b-0020.svg</text>
    <polygon points="1444,2455 1443,2456 1440,2456 1439,2457 1438,2457 1437,2458 1436,2458 1435,2459 1435,2460 1434,2461 1434,2543 1433,2544 1433,2592 1432,2593 1432,2613 1431,2614 1431,2625 1432,2626 1432,2644 1433,2645 1433,2650 1434,2651 1434,2654 1436,2656 1436,2657 1437,2658 1438,2658 1439,2659 1440,2659 1441,2660 1444,2660 1445,2661 1466,2661 1467,2660 1468,2661 1477,2661 1478,2662 1484,2662 1485,2663 1571,2663 1572,2662 1582,2662 1583,2661 1594,2661 1595,2662 1605,2662 1606,2661 1610,2661 1611,2660 1612,2660 1613,2659 1614,2659 1615,2658 1616,2658 1616,2657 1617,2656 1617,2646 1616,2645 1616,2627 1615,2626 1615,2610 1616,2609 1616,2585 1615,2584 1615,2567 1616,2566 1616,2553 1615,2552 1615,2531 1616,2530 1616,2493 1615,2492 1615,2478 1616,2477 1616,2466 1617,2465 1617,2464 1616,2463 1616,2462 1613,2459 1612,2459 1611,2458 1609,2458 1608,2457 1601,2457 1600,2456 1580,2456 1579,2457 1535,2457 1534,2456 1467,2456 1466,2455" fill="rgba(134,20,72,0.3)" stroke="rgb(134,20,72)" stroke-width="2" data-block-id="0021"/>
    <text x="1524" y="2559" text-anchor="middle" dominant-baseline="middle" class="block-label" fill="rgb(134,20,72)" stroke="white" stroke-width="3" paint-order="stroke">b-0021.svg</text>
    <polygon points="1502,1025 1501,1026 1454,1026 1453,1027 1451,1027 1450,1028 1449,1028 1447,1030 1447,1045 1446,1046 1446,1099 1447,1100 1447,1115 1446,1116 1446,1126 1445,1127 1446,1128 1446,1167 1445,1168 1445,1175 1446,1176 1446,1182 1447,1183 1447,1185 1448,1186 1448,1187 1451,1187 1452,1188 1478,1188 1479,1189 1500,1189 1501,1190 1514,1190 1515,1189 1522,1189 1523,1190 1562,1190 1563,1189 1576,1189 1577,1190 1647,1190 1648,1191 1661,1191 1662,1190 1664,1190 1665,1189 1666,1189 1669,1186 1669,1184 1670,1183 1670,1145 1669,1144 1669,1138 1668,1137 1668,1127 1669,1126 1669,1122 1670,1121 1670,1115 1671,1114 1671,1082 1672,1081 1672,1076 1671,1075 1671,1069 1670,1068 1670,1065 1669,1064 1670,1063 1670,1044 1671,1043 1671,1030 1670,1029 1670,1028 1669,1028 1668,1027 1667,1027 1666,1026 1663,1026 1662,1025 1654,1025 1653,1026 1536,1026 1535,1025" fill="rgba(166,17,131,0.3)" stroke="rgb(166,17,131)" stroke-width="2" data-block-id="0022"/>
    <text x="1558" y="1108" text-anchor="middle" dominant-baseline="middle" class="block-label" fill="rgb(166,17,131)" stroke="white" stroke-width="3" paint-order="stroke">b-0022.svg</text>
    <polygon points="1941,1683 1940,1684 1919,1684 1918,1685 1916,1685 1915,1686 1913,1686 1912,1687 1910,1687 1909,1688 1906,1688 1905,1689 1881,1689 1880,1688 1869,1688 1868,1687 1863,1687 1862,1688 1859,1688 1858,1689 1855,1689 1854,1690 1839,1690 1838,1689 1834,1689 1833,1688 1825,1688 1824,1689 1823,1689 1819,1693 1819,1694 1818,1695 1818,1696 1817,1697 1817,1698 1815,1700 1814,1700 1813,1701 1809,1701 1808,1702 1804,1702 1803,1703 1799,1703 1798,1704 1796,1704 1795,1705 1779,1705 1778,1706 1777,1706 1775,1708 1775,1709 1774,1710 1774,1711 1776,1713 1776,1714 1781,1719 1781,1723 1780,1724 1780,1725 1779,1726 1779,1727 1777,1729 1777,1730 1776,1731 1779,1734 1780,1734 1784,1738 1784,1739 1785,1740 1785,1741 1786,1742 1786,1743 1787,1744 1787,1746 1788,1747 1788,1748 1789,1749 1789,1750 1792,1753 1793,1753 1794,1754 1802,1754 1803,1755 1804,1755 1809,1760 1809,1762 1810,1763 1810,1765 1811,1766 1811,1795 1810,1796 1810,1799 1809,1800 1809,1802 1805,1806 1803,1806 1802,1807 1796,1807 1795,1808 1792,1808 1791,1809 1790,1809 1787,1812 1787,1813 1786,1814 1786,1843 1787,1844 1787,1852 1788,1853 1788,1854 1789,1854 1790,1855 1791,1855 1792,1856 1805,1856 1806,1857 1807,1857 1808,1858 1809,1858 1810,1859 1811,1859 1813,1861 1814,1861 1815,1862 1818,1862 1819,1863 1859,1863 1860,1862 1882,1862 1883,1861 1888,1861 1889,1860 1894,1860 1895,1859 1898,1859 1899,1858 1901,1858 1902,1857 1907,1857 1908,1856 1921,1856 1922,1857 1929,1857 1930,1858 1947,1858 1948,1859 1949,1859 1950,1860 1952,1860 1953,1861 1958,1861 1959,1862 1975,1862 1976,1861 1983,1861 1984,1860 1985,1860 1985,1859 1986,1858 1986,1857 1987,1856 1987,1852 1988,1851 1988,1795 1989,1794 1988,1793 1988,1789 1987,1788 1987,1784 1986,1783 1986,1772 1985,1771 1985,1767 1986,1766 1986,1759 1987,1758 1987,1718 1986,1717 1986,1705 1985,1704 1985,1696 1984,1695 1984,1693 1983,1692 1983,1691 1979,1687 1978,1687 1976,1685 1975,1685 1974,1684 1972,1684 1971,1683" fill="rgba(88,59,13,0.3)" stroke="rgb(88,59,13)" stroke-width="2" data-block-id="0023"/>
    <text x="1881" y="1773" text-anchor="middle" dominant-baseline="middle" class="block-label" fill="rgb(88,59,13)" stroke="white" stroke-width="3" paint-order="stroke">b-0023.svg</text>
    <polygon points="1791,2456 1790,2457 1787,2457 1786,2458 1784,2458 1783,2459 1779,2459 1778,2460 1777,2460 1776,2459 1761,2459 1760,2458 1738,2458 1737,2457 1725,2457 1724,2458 1716,2458 1715,2457 1705,2457 1704,2458 1679,2458 1678,2457 1673,2457 1672,2458 1670,2458 1669,2459 1668,2459 1667,2460 1667,2461 1666,2462 1666,2489 1665,2490 1665,2504 1664,2505 1664,2534 1663,2535 1663,2546 1664,2547 1664,2550 1665,2551 1665,2552 1667,2554 1667,2555 1668,2555 1669,2556 1669,2557 1670,2558 1670,2560 1669,2561 1669,2563 1668,2564 1668,2566 1667,2567 1667,2572 1668,2573 1668,2574 1670,2576 1671,2576 1672,2577 1677,2577 1678,2576 1681,2576 1682,2575 1687,2575 1688,2576 1690,2576 1691,2577 1695,2577 1696,2578 1710,2578 1711,2577 1732,2577 1733,2578 1735,2578 1736,2579 1737,2579 1738,2580 1740,2580 1741,2581 1742,2581 1743,2582 1750,2582 1751,2581 1759,2581 1760,2582 1763,2582 1764,2583 1765,2583 1766,2584 1767,2584 1768,2585 1772,2585 1773,2584 1776,2584 1777,2583 1779,2583 1780,2582 1785,2582 1786,2581 1793,2581 1799,2587 1799,2588 1800,2589 1800,2592 1801,2593 1801,2596 1800,2597 1800,2606 1799,2607 1799,2624 1800,2625 1800,2630 1801,2631 1801,2633 1803,2635 1803,2636 1825,2636 1826,2635 1846,2635 1847,2636 1850,2636 1851,2635 1867,2635 1868,2636 1882,2636 1883,2635 1884,2635 1885,2634 1885,2633 1886,2632 1886,2628 1887,2627 1887,2612 1888,2611 1888,2584 1889,2583 1889,2580 1888,2579 1888,2562 1889,2561 1889,2552 1888,2551 1888,2515 1889,2514 1889,2464 1888,2463 1888,2461 1885,2458 1883,2458 1882,2457 1867,2457 1866,2458 1861,2458 1860,2457 1851,2457 1850,2456 1849,2457 1837,2457 1836,2456" fill="rgba(241,249,8,0.3)" stroke="rgb(241,249,8)" stroke-width="2" data-block-id="0024"/>
    <text x="1776" y="2546" text-anchor="middle" dominant-baseline="middle" class="block-label" fill="rgb(241,249,8)" stroke="white" stroke-width="3" paint-order="stroke">b-0024.svg</text>
    <polygon points="4308,620 4306,622 4306,627 4307,628 4307,629 4308,630 4308,631 4309,632 4309,635 4310,636 4310,637 4311,638 4311,639 4315,643 4315,644 4316,645 4316,648 4317,649 4317,650 4318,651 4318,652 4319,653 4319,654 4320,655 4320,656 4321,657 4321,658 4323,660 4323,661 4324,662 4324,663 4325,664 4325,665 4326,666 4326,667 4327,668 4327,670 4328,671 4328,672 4329,673 4329,674 4330,675 4330,676 4331,677 4331,678 4332,679 4332,681 4333,682 4333,685 4335,687 4335,688 4336,689 4336,690 4337,690 4339,692 4339,693 4340,694 4340,695 4341,696 4341,697 4342,698 4342,699 4343,700 4343,701 4344,702 4344,704 4345,705 4345,707 4346,708 4346,709 4348,711 4348,712 4349,712 4352,715 4352,718 4353,719 4353,721 4354,722 4354,724 4355,725 4355,727 4356,728 4356,733 4357,734 4357,736 4358,737 4358,738 4361,741 4361,742 4362,743 4362,746 4359,749 4358,749 4357,750 4356,750 4355,749 4353,749 4352,748 4346,748 4345,747 4340,747 4339,746 4337,746 4336,745 4335,746 4334,746 4333,747 4333,758 4334,759 4334,760 4336,762 4336,763 4338,765 4338,766 4339,767 4339,769 4334,774 4332,774 4331,775 4327,775 4326,776 4320,776 4319,777 4316,777 4315,778 4315,780 4318,783 4319,783 4322,786 4323,786 4324,787 4325,787 4326,788 4327,788 4328,789 4329,789 4331,791 4331,792 4332,793 4332,794 4331,795 4331,796 4330,797 4330,798 4325,803 4324,803 4323,804 4322,804 4319,807 4319,808 4318,809 4318,810 4317,811 4317,813 4316,814 4319,817 4320,817 4321,818 4322,818 4323,819 4325,819 4326,820 4327,820 4328,821 4329,821 4334,826 4334,829 4333,830 4333,831 4332,832 4332,833 4327,838 4326,838 4324,840 4324,842 4323,843 4323,846 4322,847 4322,848 4321,849 4321,850 4325,850 4327,848 4328,848 4329,847 4333,847 4334,846 4338,846 4339,845 4342,845 4343,844 4348,844 4349,845 4349,846 4350,847 4350,848 4351,849 4351,852 4350,853 4350,855 4348,857 4348,858 4347,859 4347,860 4346,861 4346,865 4345,866 4345,874 4346,874 4348,876 4349,875 4351,875 4352,874 4355,874 4356,873 4358,873 4359,872 4363,872 4364,871 4367,871 4368,870 4369,870 4370,871 4371,871 4373,873 4373,880 4374,881 4374,890 4375,891 4375,892 4377,894 4381,894 4381,893 4383,891 4383,890 4384,889 4384,887 4385,886 4385,884 4386,883 4386,881 4387,880 4387,879 4390,876 4390,875 4391,874 4391,873 4393,871 4394,871 4397,874 4397,875 4398,876 4398,877 4400,879 4400,880 4401,881 4401,882 4402,883 4402,884 4403,885 4403,887 4404,888 4404,890 4408,894 4409,893 4410,893 4411,892 4412,892 4413,891 4414,891 4415,890 4416,890 4416,889 4418,887 4418,885 4419,884 4419,881 4423,877 4427,877 4428,876 4429,877 4430,877 4431,878 4432,878 4433,879 4433,880 4436,883 4436,884 4437,885 4437,886 4439,888 4439,889 4443,893 4443,894 4444,894 4446,896 4446,897 4449,900 4449,901 4450,902 4450,903 4451,904 4451,905 4452,906 4452,910 4453,911 4453,912 4454,913 4454,914 4455,915 4455,917 4457,919 4457,920 4458,921 4458,922 4459,923 4459,924 4461,926 4461,927 4462,928 4462,930 4463,931 4463,933 4464,934 4464,936 4466,938 4466,939 4467,940 4467,941 4469,943 4469,944 4471,946 4471,947 4474,950 4474,951 4475,952 4475,953 4476,954 4476,956 4477,957 4477,958 4478,959 4478,960 4479,961 4479,962 4480,962 4483,965 4483,969 4484,970 4484,971 4485,972 4485,973 4486,974 4486,975 4487,976 4487,978 4488,979 4488,981 4489,982 4489,984 4490,985 4490,986 4491,987 4491,988 4492,989 4492,990 4493,991 4493,993 4495,995 4495,996 4497,998 4497,999 4498,1000 4498,1001 4499,1002 4499,1004 4500,1005 4500,1007 4502,1009 4502,1011 4503,1012 4503,1013 4504,1014 4504,1017 4505,1018 4505,1020 4506,1021 4506,1022 4507,1023 4507,1024 4508,1025 4508,1026 4509,1027 4509,1028 4510,1029 4510,1030 4511,1031 4511,1033 4512,1034 4512,1035 4513,1036 4513,1038 4514,1039 4514,1041 4515,1042 4515,1043 4516,1044 4516,1045 4517,1046 4517,1047 4518,1048 4518,1049 4519,1050 4519,1051 4520,1052 4520,1053 4521,1054 4521,1055 4522,1056 4522,1058 4523,1059 4523,1060 4524,1061 4524,1063 4526,1065 4526,1067 4527,1068 4527,1069 4528,1070 4528,1071 4530,1073 4530,1074 4532,1076 4532,1077 4534,1079 4534,1080 4535,1081 4536,1081 4537,1080 4538,1080 4541,1077 4542,1077 4543,1076 4544,1076 4545,1075 4546,1075 4547,1074 4548,1074 4552,1070 4552,1065 4551,1064 4551,1063 4548,1060 4548,1059 4546,1057 4546,1056 4544,1054 4544,1053 4542,1051 4542,1050 4539,1047 4539,1046 4537,1044 4537,1043 4535,1041 4535,1040 4534,1039 4534,1038 4532,1036 4532,1035 4531,1034 4531,1033 4529,1031 4529,1030 4526,1027 4526,1026 4524,1024 4524,1023 4522,1021 4522,1019 4521,1018 4521,1017 4519,1015 4519,1014 4518,1013 4518,1012 4516,1010 4516,1009 4515,1008 4515,1007 4512,1004 4512,1003 4511,1002 4511,1001 4509,999 4509,997 4508,996 4508,995 4507,994 4507,993 4505,991 4505,990 4504,989 4504,988 4503,987 4503,986 4502,985 4502,984 4500,982 4500,981 4499,980 4498,980 4496,978 4496,977 4495,976 4495,975 4494,974 4494,972 4493,971 4493,969 4492,968 4492,967 4491,966 4491,965 4490,964 4490,963 4488,961 4488,960 4487,959 4486,959 4485,958 4485,957 4483,955 4483,952 4482,951 4482,947 4481,946 4481,945 4480,944 4480,943 4479,942 4479,941 4478,940 4478,939 4477,938 4477,937 4476,936 4476,935 4475,934 4474,934 4471,931 4471,930 4470,929 4470,926 4469,925 4469,923 4468,922 4468,921 4467,920 4467,918 4464,915 4464,914 4462,912 4461,912 4460,911 4460,910 4458,908 4458,906 4457,905 4457,903 4456,902 4456,898 4455,897 4455,895 4454,894 4454,893 4453,892 4453,891 4452,890 4452,888 4449,885 4449,884 4448,883 4448,881 4447,880 4447,865 4449,863 4451,863 4452,862 4453,863 4455,863 4456,864 4457,864 4458,865 4460,865 4461,866 4467,866 4468,865 4469,865 4472,862 4472,860 4471,859 4471,857 4470,856 4470,853 4469,852 4469,845 4468,844 4468,842 4467,841 4469,839 4471,839 4472,838 4475,838 4476,837 4480,837 4481,836 4482,836 4484,834 4484,833 4485,832 4485,829 4481,825 4480,825 4476,821 4475,821 4471,817 4471,814 4472,813 4473,813 4474,812 4475,812 4477,810 4478,810 4480,808 4481,808 4482,807 4483,807 4484,806 4485,806 4486,805 4488,805 4491,802 4491,801 4490,800 4490,798 4489,797 4489,796 4486,793 4484,793 4483,792 4481,792 4480,791 4479,791 4478,790 4477,790 4473,786 4473,785 4472,784 4472,779 4476,775 4477,775 4482,770 4482,769 4483,768 4483,765 4481,763 4477,763 4476,762 4475,763 4470,763 4469,764 4463,764 4462,763 4461,763 4458,760 4458,759 4457,758 4457,757 4458,756 4458,753 4459,752 4459,750 4460,749 4460,747 4461,746 4461,741 4460,740 4460,739 4459,738 4459,737 4458,736 4457,736 4456,735 4452,735 4450,737 4449,737 4446,740 4445,740 4443,742 4441,742 4440,743 4439,742 4437,742 4433,738 4433,736 4432,735 4432,722 4431,721 4431,712 4429,712 4428,713 4428,714 4427,715 4427,716 4426,717 4426,718 4423,721 4423,722 4422,723 4422,724 4421,725 4421,726 4414,733 4413,733 4412,734 4411,734 4410,735 4409,735 4408,736 4407,736 4406,735 4406,734 4404,732 4404,731 4403,730 4403,729 4402,728 4402,727 4401,726 4401,724 4400,723 4400,722 4399,721 4399,720 4397,718 4397,717 4395,715 4392,715 4391,716 4390,716 4387,719 4387,720 4386,721 4386,724 4385,725 4385,731 4384,732 4384,734 4381,737 4380,736 4379,736 4374,731 4373,731 4371,729 4370,729 4369,728 4368,728 4367,727 4367,726 4365,724 4365,723 4364,722 4364,721 4363,720 4363,719 4361,717 4361,716 4360,715 4360,714 4357,711 4357,710 4353,706 4353,705 4352,704 4352,701 4351,700 4351,697 4350,696 4350,694 4349,693 4349,692 4348,691 4348,690 4347,689 4347,688 4346,687 4346,686 4345,685 4345,684 4342,681 4342,680 4341,679 4341,676 4340,675 4340,671 4339,670 4339,668 4338,667 4338,664 4337,663 4337,661 4336,660 4336,658 4334,656 4334,655 4332,653 4332,652 4331,651 4331,650 4329,648 4329,647 4327,645 4327,644 4325,642 4325,641 4324,640 4324,639 4321,636 4321,635 4320,635 4316,631 4316,629 4315,628 4315,626 4314,625 4314,624 4313,623 4313,622 4312,621 4311,621 4310,620" fill="rgba(89,52,129,0.3)" stroke="rgb(89,52,129)" stroke-width="2" data-block-id="0025"/>
    <text x="4429" y="850" text-anchor="middle" dominant-baseline="middle" class="block-label" fill="rgb(89,52,129)" stroke="white" stroke-width="3" paint-order="stroke">b-0025.svg</text>
    <polygon points="4391,717 4390,718 4389,718 4388,719 4387,719 4386,720 4386,721 4385,722 4384,722 4382,724 4381,724 4380,725 4378,725 4377,726 4374,726 4373,727 4369,727 4368,728 4367,728 4366,729 4365,729 4364,730 4363,730 4361,732 4361,734 4360,735 4360,736 4359,737 4359,738 4357,740 4357,741 4351,747 4350,747 4349,748 4346,748 4345,749 4334,749 4332,751 4332,752 4333,753 4333,757 4334,758 4334,760 4336,762 4336,763 4337,764 4337,770 4336,771 4336,772 4330,778 4329,778 4329,779 4328,780 4328,781 4327,782 4327,783 4326,784 4326,787 4325,788 4325,791 4324,792 4324,794 4323,795 4323,796 4322,797 4322,799 4321,800 4321,801 4319,803 4319,804 4318,805 4318,810 4321,813 4321,814 4324,817 4324,818 4326,820 4326,821 4328,823 4328,825 4329,826 4329,829 4328,830 4328,832 4327,833 4327,835 4326,836 4326,838 4325,839 4325,842 4324,843 4325,844 4325,845 4328,848 4330,848 4331,849 4335,849 4336,850 4338,850 4339,851 4340,851 4344,855 4344,857 4345,858 4345,862 4346,863 4346,866 4347,867 4347,869 4349,871 4350,871 4351,872 4352,872 4353,873 4361,873 4362,874 4365,874 4366,875 4367,875 4372,880 4372,881 4374,883 4377,883 4378,884 4388,884 4389,885 4392,885 4393,886 4395,886 4396,887 4398,887 4399,888 4401,888 4402,889 4403,889 4404,890 4405,890 4406,891 4412,891 4414,889 4415,889 4416,888 4417,888 4418,887 4419,887 4420,886 4421,886 4423,884 4424,884 4425,883 4427,883 4428,882 4440,882 4441,883 4444,883 4445,884 4445,883 4446,882 4446,878 4445,877 4445,868 4447,866 4449,866 4450,865 4451,866 4453,866 4454,867 4460,867 4461,868 4465,868 4466,867 4468,867 4469,866 4470,866 4473,863 4473,860 4474,859 4474,855 4475,854 4475,852 4476,851 4476,850 4477,849 4477,847 4478,846 4478,845 4479,844 4479,843 4480,842 4480,840 4481,839 4481,837 4482,836 4482,834 4483,833 4483,831 4484,830 4484,828 4485,827 4485,822 4486,821 4486,799 4485,798 4485,794 4484,793 4484,791 4483,790 4483,788 4482,787 4482,784 4483,783 4483,780 4484,779 4484,768 4482,766 4481,766 4480,765 4478,765 4477,764 4474,764 4473,763 4470,763 4469,762 4467,762 4466,761 4465,761 4463,759 4463,758 4461,756 4461,754 4460,753 4460,751 4459,750 4459,746 4458,745 4458,744 4457,743 4457,742 4456,741 4455,741 4454,740 4453,740 4452,739 4449,739 4448,738 4443,738 4442,737 4440,737 4439,736 4437,736 4433,732 4433,731 4432,730 4432,728 4431,727 4431,724 4428,721 4428,720 4427,719 4426,719 4423,722 4422,722 4420,724 4419,724 4418,725 4416,725 4415,726 4406,726 4405,725 4403,725 4402,724 4401,724 4399,722 4398,722 4396,720 4395,720 4392,717" fill="rgba(83,91,110,0.3)" stroke="rgb(83,91,110)" stroke-width="2" data-block-id="0026"/>
    <text x="4402" y="804" text-anchor="middle" dominant-baseline="middle" class="block-label" fill="rgb(83,91,110)" stroke="white" stroke-width="3" paint-order="stroke">b-0026.svg</text>
  </g>
</svg>