<?xml version='1.0' encoding='utf-8'?>
<svg xmlns="http://www.w3.org/2000/svg" xmlns:atlas="http://example.com/atlas" width="4984" height="3304" viewBox="0 0 4984 3304">
  
  <metadata>
    <atlas:source>
      <atlas:jp2-path>/Users/pwright/workspace/atlas/media/v2/p7.jp2</atlas:jp2-path>
      <atlas:volume>unknown</atlas:volume>
      <atlas:plate-id>p7</atlas:plate-id>
      <atlas:image-width>4984</atlas:image-width>
      <atlas:image-height>3304</atlas:image-height>
    </atlas:source>
  </metadata>

  
  <image id="background" href="file:///Users/pwright/workspace/atlas/media/v2/p7.jp2" width="4984" height="3304" opacity="0.5" />

  <style>
    .block-label { font-family: sans-serif; font-size: 14px; font-weight: bold; }
  </style>

  
  <g id="blocks">
    <polygon points="1686,1206 1685,1207 1679,1207 1678,1208 1672,1208 1671,1207 1662,1207 1661,1208 1646,1208 1645,1207 1635,1207 1634,1208 1614,1208 1613,1209 1590,1209 1589,1210 1588,1210 1587,1211 1585,1211 1584,1212 1583,1212 1583,1213 1581,1215 1581,1217 1580,1218 1580,1223 1579,1224 1579,1232 1578,1233 1578,1269 1577,1270 1577,1325 1578,1326 1578,1377 1577,1378 1577,1385 1578,1386 1578,1432 1577,1433 1577,1444 1578,1445 1578,1561 1579,1562 1579,1565 1580,1566 1580,1568 1581,1569 1581,1570 1583,1572 1585,1572 1586,1573 1590,1573 1591,1574 1615,1574 1616,1575 1627,1575 1628,1576 1651,1576 1652,1575 1655,1575 1656,1576 1678,1576 1679,1577 1699,1577 1700,1576 1717,1576 1718,1577 1742,1577 1743,1576 1768,1576 1769,1577 1781,1577 1782,1578 1786,1578 1787,1577 1796,1577 1797,1576 1799,1576 1800,1577 1815,1577 1816,1576 1820,1576 1821,1577 1841,1577 1842,1576 1846,1576 1847,1577 1872,1577 1873,1578 1886,1578 1887,1577 1896,1577 1897,1578 1922,1578 1923,1579 1930,1579 1931,1578 1940,1578 1941,1577 1955,1577 1956,1578 1982,1578 1983,1577 1996,1577 1997,1578 2043,1578 2044,1577 2051,1577 2052,1578 2130,1578 2131,1579 2144,1579 2145,1578 2175,1578 2176,1579 2179,1579 2180,1578 2184,1578 2185,1577 2188,1577 2189,1576 2192,1576 2193,1577 2199,1577 2200,1578 2246,1578 2247,1577 2254,1577 2255,1578 2327,1578 2328,1579 2340,1579 2341,1578 2351,1578 2352,1579 2386,1579 2387,1578 2402,1578 2403,1579 2411,1579 2412,1578 2418,1578 2419,1579 2434,1579 2435,1578 2471,1578 2472,1579 2485,1579 2486,1578 2490,1578 2491,1579 2513,1579 2514,1580 2526,1580 2527,1581 2540,1581 2541,1580 2551,1580 2552,1581 2557,1581 2558,1582 2583,1582 2584,1581 2591,1581 2592,1580 2600,1580 2601,1579 2641,1579 2642,1580 2660,1580 2661,1579 2667,1579 2668,1578 2687,1578 2688,1579 2697,1579 2698,1580 2718,1580 2719,1581 2721,1581 2722,1582 2723,1582 2724,1583 2725,1583 2726,1584 2731,1584 2732,1583 2736,1583 2737,1582 2740,1582 2741,1581 2751,1581 2752,1580 2754,1580 2755,1579 2757,1579 2758,1578 2759,1578 2760,1577 2761,1577 2762,1576 2764,1576 2765,1577 2766,1577 2767,1578 2768,1578 2769,1579 2771,1579 2772,1580 2792,1580 2793,1581 2815,1581 2816,1580 2839,1580 2840,1579 2844,1579 2845,1578 2849,1578 2850,1579 2852,1579 2853,1580 2857,1580 2858,1581 2860,1581 2861,1582 2863,1582 2864,1583 2866,1583 2867,1584 2874,1584 2875,1583 2877,1583 2878,1582 2880,1582 2881,1581 2908,1581 2909,1582 2917,1582 2918,1583 2958,1583 2959,1582 2967,1582 2968,1581 2969,1582 3007,1582 3008,1583 3019,1583 3020,1582 3025,1582 3026,1581 3027,1581 3030,1578 3030,1577 3031,1576 3031,1575 3032,1574 3032,1571 3033,1570 3033,1568 3032,1567 3032,1556 3033,1555 3033,1531 3034,1530 3034,1497 3033,1496 3033,1476 3032,1475 3032,1445 3033,1444 3033,1418 3032,1417 3032,1400 3033,1399 3033,1361 3032,1360 3032,1358 3033,1357 3033,1352 3034,1351 3034,1347 3035,1346 3035,1335 3034,1334 3034,1320 3033,1319 3033,1307 3034,1306 3034,1279 3033,1278 3033,1268 3032,1267 3032,1258 3033,1257 3033,1252 3034,1251 3034,1246 3033,1245 3033,1233 3032,1232 3032,1227 3031,1226 3031,1224 3028,1221 3026,1221 3025,1220 3022,1220 3021,1219 3016,1219 3015,1218 3008,1218 3007,1219 3001,1219 3000,1218 2995,1218 2994,1217 2981,1217 2980,1218 2974,1218 2973,1217 2961,1217 2960,1218 2951,1218 2950,1217 2946,1217 2945,1216 2939,1216 2938,1217 2933,1217 2932,1218 2928,1218 2927,1217 2903,1217 2902,1216 2889,1216 2888,1217 2876,1217 2875,1216 2868,1216 2867,1217 2863,1217 2862,1218 2857,1218 2856,1217 2853,1217 2852,1216 2851,1216 2850,1215 2844,1215 2843,1216 2841,1216 2840,1217 2837,1217 2836,1218 2830,1218 2829,1217 2819,1217 2818,1218 2804,1218 2803,1217 2792,1217 2791,1218 2781,1218 2780,1217 2773,1217 2772,1218 2770,1218 2769,1219 2768,1219 2767,1220 2766,1220 2765,1221 2761,1221 2760,1220 2759,1220 2758,1219 2757,1219 2756,1218 2755,1218 2754,1217 2753,1217 2752,1216 2748,1216 2747,1217 2742,1217 2741,1218 2732,1218 2731,1217 2726,1217 2725,1218 2718,1218 2717,1219 2715,1219 2714,1218 2709,1218 2708,1217 2698,1217 2697,1218 2684,1218 2683,1217 2674,1217 2673,1218 2664,1218 2663,1217 2651,1217 2650,1218 2646,1218 2645,1219 2639,1219 2638,1218 2630,1218 2629,1219 2627,1219 2626,1220 2623,1220 2622,1221 2614,1221 2613,1220 2595,1220 2594,1219 2583,1219 2582,1218 2575,1218 2574,1217 2566,1217 2565,1216 2558,1216 2557,1215 2540,1215 2539,1214 2531,1214 2530,1215 2524,1215 2523,1214 2518,1214 2517,1213 2514,1213 2513,1212 2506,1212 2505,1211 2493,1211 2492,1212 2486,1212 2485,1211 2456,1211 2455,1210 2436,1210 2435,1211 2425,1211 2424,1210 2407,1210 2406,1211 2389,1211 2388,1210 2348,1210 2347,1209 2346,1210 2342,1210 2341,1211 2339,1211 2338,1212 2337,1212 2334,1215 2332,1215 2328,1211 2327,1211 2326,1210 2325,1210 2324,1209 2314,1209 2313,1208 2311,1208 2310,1209 2300,1209 2299,1210 2295,1210 2294,1209 2267,1209 2266,1208 2255,1208 2254,1209 2237,1209 2236,1208 2208,1208 2207,1209 2199,1209 2198,1210 2194,1210 2193,1211 2190,1211 2189,1210 2186,1210 2185,1209 2183,1209 2182,1208 2166,1208 2165,1209 2150,1209 2149,1208 2109,1208 2108,1209 2104,1209 2103,1210 2101,1210 2100,1211 2098,1211 2097,1212 2092,1212 2091,1211 2089,1211 2088,1210 2084,1210 2083,1209 2077,1209 2076,1210 2040,1210 2039,1211 2032,1211 2031,1210 1949,1210 1948,1211 1938,1211 1937,1210 1933,1210 1932,1209 1906,1209 1905,1208 1904,1209 1897,1209 1896,1210 1887,1210 1886,1209 1880,1209 1879,1208 1877,1208 1876,1209 1838,1209 1837,1208 1827,1208 1826,1209 1821,1209 1820,1210 1810,1210 1809,1209 1807,1209 1806,1210 1795,1210 1794,1209 1789,1209 1788,1208 1776,1208 1775,1209 1742,1209 1741,1208 1727,1208 1726,1209 1722,1209 1721,1208 1698,1208 1697,1207 1692,1207 1691,1206" fill="rgba(74,202,87,0.3)" stroke="rgb(74,202,87)" stroke-width="2" data-block-id="0001" data-name="b-0005" /><text x="2410" y="1369" text-anchor="middle" dominant-baseline="middle" class="block-label" fill="rgb(74,202,87)" stroke="white" stroke-width="3" paint-order="stroke">b-0005</text><polygon points="2293,1757 2292,1758 2287,1758 2286,1759 2284,1759 2283,1760 2282,1760 2281,1761 2279,1761 2278,1762 2277,1762 2276,1763 2275,1763 2274,1764 2272,1764 2271,1765 2247,1765 2246,1766 2242,1766 2241,1767 2231,1767 2230,1766 2222,1766 2221,1767 2205,1767 2204,1766 2199,1766 2198,1767 2184,1767 2183,1766 2174,1766 2173,1767 2158,1767 2157,1766 2147,1766 2146,1767 2140,1767 2139,1766 2124,1766 2123,1767 2116,1767 2115,1766 2109,1766 2108,1765 2105,1765 2104,1766 2099,1766 2098,1767 2090,1767 2089,1766 2063,1766 2062,1765 2056,1765 2055,1766 2050,1766 2049,1767 2043,1767 2042,1766 2026,1766 2025,1767 2020,1767 2019,1766 1997,1766 1996,1765 1985,1765 1984,1764 1977,1764 1976,1763 1958,1763 1957,1764 1913,1764 1912,1765 1906,1765 1905,1766 1901,1766 1900,1765 1894,1765 1893,1764 1864,1764 1863,1765 1859,1765 1858,1766 1852,1766 1851,1765 1798,1765 1797,1764 1754,1764 1753,1763 1740,1763 1739,1764 1712,1764 1711,1763 1600,1763 1599,1764 1589,1764 1588,1765 1583,1765 1581,1767 1580,1767 1580,1768 1579,1769 1579,1770 1578,1771 1578,1772 1577,1773 1577,1781 1576,1782 1576,1841 1575,1842 1575,1910 1574,1911 1574,1979 1573,1980 1573,1996 1574,1997 1574,2011 1573,2012 1573,2035 1574,2036 1574,2039 1573,2040 1573,2095 1574,2096 1574,2099 1573,2100 1573,2112 1574,2113 1574,2119 1575,2120 1575,2123 1576,2124 1576,2125 1581,2130 1583,2130 1584,2131 1589,2131 1590,2132 1595,2132 1596,2131 1600,2131 1601,2130 1614,2130 1615,2131 1629,2131 1630,2132 1638,2132 1639,2133 1643,2133 1644,2132 1650,2132 1651,2131 1655,2131 1656,2132 1663,2132 1664,2133 1666,2133 1667,2132 1685,2132 1686,2133 1691,2133 1692,2132 1698,2132 1699,2131 1710,2131 1711,2132 1712,2131 1721,2131 1722,2130 1726,2130 1727,2131 1736,2131 1737,2132 1743,2132 1744,2131 1748,2131 1749,2132 1784,2132 1785,2131 1788,2131 1789,2130 1791,2130 1792,2129 1794,2129 1795,2128 1799,2128 1800,2129 1804,2129 1805,2130 1821,2130 1822,2131 1844,2131 1845,2130 1846,2131 1865,2131 1866,2130 1869,2130 1870,2131 1888,2131 1889,2130 1902,2130 1903,2129 1921,2129 1922,2130 1936,2130 1937,2129 1944,2129 1945,2130 1956,2130 1957,2129 1968,2129 1969,2130 1990,2130 1991,2131 2016,2131 2017,2132 2027,2132 2028,2131 2030,2131 2031,2130 2040,2130 2041,2131 2066,2131 2067,2132 2078,2132 2079,2131 2086,2131 2087,2132 2113,2132 2114,2133 2118,2133 2119,2132 2124,2132 2125,2131 2127,2131 2128,2130 2133,2130 2134,2131 2139,2131 2140,2132 2168,2132 2169,2133 2191,2133 2192,2134 2222,2134 2223,2133 2261,2133 2262,2132 2269,2132 2270,2131 2279,2131 2280,2132 2288,2132 2289,2133 2295,2133 2296,2134 2319,2134 2320,2135 2401,2135 2402,2134 2406,2134 2407,2133 2410,2133 2411,2132 2416,2132 2417,2131 2456,2131 2457,2130 2461,2130 2462,2129 2475,2129 2476,2130 2491,2130 2492,2131 2503,2131 2504,2130 2509,2130 2510,2129 2521,2129 2522,2130 2550,2130 2551,2129 2556,2129 2557,2128 2591,2128 2592,2127 2603,2127 2604,2126 2636,2126 2637,2127 2652,2127 2653,2126 2657,2126 2658,2127 2684,2127 2685,2128 2696,2128 2697,2127 2710,2127 2711,2128 2734,2128 2735,2129 2743,2129 2744,2128 2757,2128 2758,2129 2780,2129 2781,2130 2792,2130 2793,2129 2805,2129 2806,2130 2842,2130 2843,2131 2849,2131 2850,2132 2852,2132 2853,2133 2856,2133 2857,2134 2863,2134 2864,2133 2878,2133 2879,2134 2883,2134 2884,2133 2887,2133 2888,2132 2890,2132 2891,2131 2895,2131 2896,2130 2906,2130 2907,2131 2936,2131 2937,2130 2983,2130 2984,2129 2987,2129 2988,2128 2997,2128 2998,2129 3005,2129 3006,2128 3022,2128 3023,2127 3026,2127 3029,2124 3029,2123 3030,2122 3030,2120 3031,2119 3031,2110 3032,2109 3032,2089 3031,2088 3031,2084 3032,2083 3032,2065 3031,2064 3031,2057 3032,2056 3032,1796 3031,1795 3031,1785 3030,1784 3030,1781 3029,1780 3029,1778 3028,1777 3028,1776 3026,1774 3025,1774 3024,1773 3015,1773 3014,1772 3008,1772 3007,1771 3001,1771 3000,1770 2965,1770 2964,1769 2963,1770 2954,1770 2953,1769 2938,1769 2937,1770 2913,1770 2912,1769 2876,1769 2875,1768 2869,1768 2868,1769 2846,1769 2845,1770 2760,1770 2759,1769 2749,1769 2748,1770 2745,1770 2744,1771 2742,1771 2741,1772 2733,1772 2732,1771 2718,1771 2717,1770 2686,1770 2685,1769 2660,1769 2659,1768 2653,1768 2652,1769 2613,1769 2612,1768 2599,1768 2598,1769 2594,1769 2593,1768 2564,1768 2563,1767 2557,1767 2556,1768 2540,1768 2539,1767 2532,1767 2531,1768 2521,1768 2520,1767 2508,1767 2507,1768 2483,1768 2482,1767 2468,1767 2467,1766 2463,1766 2462,1767 2455,1767 2454,1768 2449,1768 2448,1767 2428,1767 2427,1766 2421,1766 2420,1765 2416,1765 2415,1764 2409,1764 2408,1763 2404,1763 2403,1762 2400,1762 2399,1761 2397,1761 2396,1760 2391,1760 2390,1759 2376,1759 2375,1758 2357,1758 2356,1759 2355,1758 2313,1758 2312,1757" fill="rgba(116,99,103,0.3)" stroke="rgb(116,99,103)" stroke-width="2" data-block-id="0002" data-name="b-0006" /><text x="2270" y="1960" text-anchor="middle" dominant-baseline="middle" class="block-label" fill="rgb(116,99,103)" stroke="white" stroke-width="3" paint-order="stroke">b-0006</text><polygon points="1818,721 1817,722 1814,722 1813,723 1811,723 1810,724 1805,724 1804,723 1801,723 1800,722 1793,722 1792,723 1789,723 1788,724 1758,724 1757,723 1751,723 1750,722 1742,722 1741,723 1735,723 1734,722 1717,722 1716,723 1705,723 1704,722 1699,722 1698,723 1680,723 1679,722 1625,722 1624,723 1619,723 1618,724 1612,724 1611,723 1604,723 1603,724 1600,724 1599,725 1595,725 1594,726 1592,726 1591,727 1590,727 1588,729 1587,729 1586,730 1586,731 1585,732 1585,733 1584,734 1584,740 1583,741 1583,750 1582,751 1582,775 1581,776 1581,787 1582,788 1582,797 1581,798 1581,810 1582,811 1582,824 1581,825 1581,830 1582,831 1582,836 1583,837 1583,844 1582,845 1582,850 1581,851 1581,854 1582,855 1582,874 1581,875 1581,878 1582,879 1582,893 1581,894 1581,899 1580,900 1580,903 1581,904 1581,929 1582,930 1582,941 1581,942 1581,946 1580,947 1580,956 1581,957 1581,961 1580,962 1580,982 1581,983 1581,985 1580,986 1580,1003 1581,1004 1581,1012 1580,1013 1580,1039 1579,1040 1579,1045 1580,1046 1580,1051 1581,1052 1581,1061 1580,1062 1580,1079 1581,1080 1581,1082 1582,1083 1582,1084 1583,1085 1583,1086 1585,1088 1586,1088 1587,1089 1588,1089 1589,1090 1590,1090 1591,1091 1605,1091 1606,1092 1614,1092 1615,1093 1637,1093 1638,1094 1669,1094 1670,1093 1673,1093 1674,1092 1702,1092 1703,1093 1935,1093 1936,1092 1943,1092 1944,1093 1961,1093 1962,1094 1978,1094 1979,1093 1989,1093 1990,1094 1992,1094 1993,1095 1996,1095 1997,1096 2032,1096 2033,1095 2037,1095 2038,1096 2111,1096 2112,1097 2121,1097 2122,1096 2136,1096 2137,1097 2144,1097 2145,1096 2150,1096 2151,1095 2175,1095 2176,1096 2186,1096 2187,1095 2232,1095 2233,1094 2242,1094 2243,1095 2404,1095 2405,1096 2420,1096 2421,1095 2437,1095 2438,1096 2463,1096 2464,1095 2478,1095 2479,1096 2525,1096 2526,1097 2547,1097 2548,1098 2572,1098 2573,1099 2583,1099 2584,1100 2594,1100 2595,1101 2638,1101 2639,1100 2702,1100 2703,1099 2720,1099 2721,1098 2745,1098 2746,1099 2757,1099 2758,1098 2779,1098 2780,1097 2794,1097 2795,1098 2799,1098 2800,1097 2814,1097 2815,1098 2869,1098 2870,1099 2901,1099 2902,1098 2910,1098 2911,1099 2955,1099 2956,1098 2981,1098 2982,1099 2993,1099 2994,1098 3026,1098 3027,1097 3028,1097 3029,1096 3030,1096 3034,1092 3034,1091 3035,1090 3035,1088 3034,1087 3034,1074 3035,1073 3035,1061 3034,1060 3034,1023 3035,1022 3035,1015 3034,1014 3034,964 3033,963 3033,927 3034,926 3034,920 3033,919 3033,898 3032,897 3032,886 3033,885 3033,882 3034,881 3034,870 3033,869 3033,850 3032,849 3032,834 3033,833 3033,821 3032,820 3032,785 3033,784 3033,754 3032,753 3032,747 3031,746 3031,745 3030,744 3030,743 3028,741 3027,741 3026,740 3024,740 3023,739 3009,739 3008,740 2999,740 2998,739 2997,739 2996,738 2994,738 2993,737 2992,737 2991,736 2988,736 2987,737 2985,737 2984,738 2981,738 2980,739 2969,739 2968,740 2967,740 2966,739 2963,739 2962,738 2956,738 2955,737 2953,737 2952,738 2910,738 2909,739 2903,739 2902,738 2897,738 2896,737 2889,737 2888,736 2882,736 2881,735 2876,735 2875,734 2868,734 2867,735 2864,735 2863,736 2860,736 2859,737 2848,737 2847,738 2835,738 2834,739 2815,739 2814,738 2803,738 2802,739 2770,739 2769,738 2760,738 2759,739 2696,739 2695,738 2688,738 2687,739 2672,739 2671,740 2642,740 2641,741 2626,741 2625,742 2604,742 2603,741 2597,741 2596,740 2585,740 2584,739 2578,739 2577,738 2571,738 2570,737 2553,737 2552,736 2537,736 2536,735 2530,735 2529,734 2523,734 2522,733 2482,733 2481,732 2436,732 2435,731 2431,731 2430,730 2411,730 2410,731 2388,731 2387,730 2360,730 2359,731 2348,731 2347,730 2346,731 2336,731 2335,732 2334,732 2333,731 2329,731 2328,730 2325,730 2324,729 2320,729 2319,730 2316,730 2315,731 2311,731 2310,732 2292,732 2291,731 2287,731 2286,730 2274,730 2273,731 2265,731 2264,732 2196,732 2195,731 2181,731 2180,732 2179,732 2178,731 2173,731 2172,730 2168,730 2167,729 2116,729 2115,728 2097,728 2096,729 2081,729 2080,728 2078,728 2077,727 2075,727 2074,726 2072,726 2071,725 2057,725 2056,726 2053,726 2052,727 2047,727 2046,728 2041,728 2040,727 2031,727 2030,726 2024,726 2023,725 2019,725 2018,724 2015,724 2014,723 2009,723 2008,724 2007,724 2006,725 2003,725 2002,726 1987,726 1986,725 1981,725 1980,724 1975,724 1974,723 1969,723 1968,722 1960,722 1959,723 1957,723 1956,724 1936,724 1935,723 1927,723 1926,722 1920,722 1919,721 1913,721 1912,722 1908,722 1907,723 1882,723 1881,722 1873,722 1872,721 1865,721 1864,722 1860,722 1859,723 1852,723 1851,722 1846,722 1845,721 1844,721 1843,722 1840,722 1839,723 1835,723 1834,724 1830,724 1829,723 1826,723 1825,722 1823,722 1822,721" fill="rgba(151,130,149,0.3)" stroke="rgb(151,130,149)" stroke-width="2" data-block-id="0003" data-name="b-0007" /><text x="2244" y="854" text-anchor="middle" dominant-baseline="middle" class="block-label" fill="rgb(151,130,149)" stroke="white" stroke-width="3" paint-order="stroke">b-0007</text><polygon points="1616,245 1615,246 1607,246 1606,247 1593,247 1592,248 1591,248 1590,249 1589,249 1585,253 1585,254 1584,255 1584,258 1583,259 1583,266 1582,267 1582,308 1583,309 1583,312 1584,313 1584,333 1585,334 1585,344 1584,345 1584,348 1583,349 1583,353 1584,354 1584,357 1585,358 1585,360 1586,361 1586,366 1585,367 1585,373 1584,374 1584,394 1583,395 1583,402 1584,403 1584,431 1585,432 1585,437 1584,438 1584,444 1583,445 1583,448 1584,449 1584,455 1585,456 1585,462 1584,463 1584,468 1583,469 1583,474 1584,475 1584,486 1583,487 1583,491 1582,492 1582,496 1583,497 1583,499 1584,500 1584,502 1585,503 1585,536 1584,537 1584,560 1583,561 1583,568 1584,569 1584,572 1585,573 1585,574 1586,575 1586,576 1587,577 1587,581 1586,582 1586,583 1585,584 1585,585 1584,586 1584,587 1583,588 1583,592 1584,593 1584,594 1585,595 1585,597 1586,598 1586,600 1587,601 1587,602 1590,605 1591,605 1592,606 1593,606 1594,607 1600,607 1601,608 1618,608 1619,609 1635,609 1636,610 1647,610 1648,609 1659,609 1660,610 1684,610 1685,611 1695,611 1696,610 1705,610 1706,611 1731,611 1732,612 1757,612 1758,613 1763,613 1764,612 1781,612 1782,613 1785,613 1786,612 1792,612 1793,611 1799,611 1800,612 1815,612 1816,611 1824,611 1825,612 1865,612 1866,613 1875,613 1876,614 1889,614 1890,613 1910,613 1911,612 1915,612 1916,613 1921,613 1922,614 1947,614 1948,615 1954,615 1955,614 1970,614 1971,615 1984,615 1985,614 1988,614 1989,615 2018,615 2019,616 2025,616 2026,615 2030,615 2031,614 2041,614 2042,615 2054,615 2055,614 2065,614 2066,615 2097,615 2098,616 2127,616 2128,617 2132,617 2133,616 2151,616 2152,617 2234,617 2235,618 2239,618 2240,617 2342,617 2343,618 2390,618 2391,617 2429,617 2430,618 2477,618 2478,619 2500,619 2501,620 2516,620 2517,621 2540,621 2541,622 2554,622 2555,623 2565,623 2566,624 2586,624 2587,625 2595,625 2596,626 2601,626 2602,627 2605,627 2606,628 2622,628 2623,629 2645,629 2646,628 2655,628 2656,627 2676,627 2677,626 2697,626 2698,625 2716,625 2717,624 2731,624 2732,623 2756,623 2757,622 2806,622 2807,621 2819,621 2820,622 2830,622 2831,621 2834,621 2835,622 2852,622 2853,621 2866,621 2867,622 2927,622 2928,621 2931,621 2932,622 2940,622 2941,623 3001,623 3002,622 3016,622 3017,621 3026,621 3027,620 3028,620 3029,619 3030,619 3033,616 3033,615 3034,614 3034,552 3033,551 3033,547 3032,546 3032,540 3033,539 3033,537 3034,536 3034,534 3035,533 3035,524 3034,523 3034,510 3035,509 3035,504 3034,503 3034,489 3035,488 3035,481 3034,480 3034,472 3033,471 3033,466 3034,465 3034,443 3035,442 3035,434 3034,433 3034,423 3033,422 3034,421 3034,380 3033,379 3033,367 3034,366 3034,353 3035,352 3035,347 3034,346 3034,328 3033,327 3033,326 3034,325 3034,306 3035,305 3035,293 3034,292 3034,282 3033,281 3033,268 3032,267 3032,266 3028,262 3026,262 3025,261 3011,261 3010,260 2984,260 2983,259 2950,259 2949,258 2947,258 2946,257 2944,257 2943,256 2939,256 2938,257 2932,257 2931,258 2915,258 2914,257 2909,257 2908,256 2906,256 2905,255 2902,255 2901,254 2898,254 2897,253 2881,253 2880,254 2877,254 2876,255 2872,255 2871,256 2869,256 2868,257 2867,257 2866,258 2865,258 2864,259 2861,259 2860,260 2855,260 2854,259 2840,259 2839,260 2803,260 2802,259 2798,259 2797,260 2778,260 2777,261 2774,261 2773,260 2763,260 2762,261 2755,261 2754,262 2730,262 2729,263 2721,263 2720,262 2699,262 2698,263 2689,263 2688,264 2675,264 2674,265 2657,265 2656,266 2652,266 2651,267 2648,267 2647,268 2643,268 2642,269 2634,269 2633,270 2617,270 2616,271 2598,271 2597,270 2592,270 2591,269 2588,269 2587,268 2584,268 2583,267 2581,267 2580,266 2578,266 2577,265 2574,265 2573,264 2560,264 2559,263 2557,263 2556,262 2552,262 2551,261 2542,261 2541,260 2527,260 2526,259 2506,259 2505,258 2458,258 2457,257 2413,257 2412,256 2342,256 2341,255 2334,255 2333,254 2331,254 2330,255 2315,255 2314,254 2301,254 2300,255 2297,255 2296,254 2243,254 2242,253 2231,253 2230,254 2223,254 2222,253 2192,253 2191,252 2187,252 2186,253 2150,253 2149,252 2143,252 2142,251 2135,251 2134,252 2131,252 2130,251 2124,251 2123,250 2112,250 2111,251 2088,251 2087,252 2079,252 2078,251 2052,251 2051,250 2026,250 2025,249 2019,249 2018,250 2008,250 2007,249 2003,249 2002,248 1981,248 1980,247 1946,247 1945,248 1923,248 1922,249 1912,249 1911,248 1907,248 1906,247 1897,247 1896,248 1890,248 1889,247 1883,247 1882,246 1877,246 1876,247 1841,247 1840,246 1826,246 1825,245 1819,245 1818,246 1811,246 1810,247 1787,247 1786,246 1781,246 1780,247 1771,247 1770,246 1764,246 1763,245 1755,245 1754,246 1740,246 1739,245 1734,245 1733,246 1721,246 1720,245 1657,245 1656,246 1645,246 1644,245 1640,245 1639,246 1633,246 1632,247 1627,247 1626,246 1619,246 1618,245" fill="rgba(52,1,87,0.3)" stroke="rgb(52,1,87)" stroke-width="2" data-block-id="0004" data-name="b-0008" /><text x="2261" y="416" text-anchor="middle" dominant-baseline="middle" class="block-label" fill="rgb(52,1,87)" stroke="white" stroke-width="3" paint-order="stroke">b-0008</text><polygon points="2581,2243 2580,2244 2574,2244 2573,2245 2567,2245 2566,2244 2561,2244 2560,2245 2556,2245 2555,2246 2551,2246 2550,2247 2544,2247 2543,2246 2509,2246 2508,2247 2500,2247 2499,2248 2498,2247 2459,2247 2458,2248 2447,2248 2446,2247 2413,2247 2412,2248 2396,2248 2395,2247 2362,2247 2361,2248 2356,2248 2355,2247 2353,2247 2352,2246 2351,2246 2350,2245 2348,2245 2347,2244 2342,2244 2341,2245 2337,2245 2336,2246 2327,2246 2326,2247 2314,2247 2313,2248 2303,2248 2302,2247 2267,2247 2266,2248 2252,2248 2251,2247 2238,2247 2237,2246 2196,2246 2195,2247 2147,2247 2146,2246 2139,2246 2138,2247 2112,2247 2111,2246 2066,2246 2065,2245 2039,2245 2038,2244 2033,2244 2032,2245 2005,2245 2004,2246 1996,2246 1995,2245 1989,2245 1988,2244 1986,2244 1985,2245 1980,2245 1979,2246 1965,2246 1964,2245 1948,2245 1947,2246 1941,2246 1940,2247 1936,2247 1935,2246 1918,2246 1917,2245 1914,2245 1913,2246 1899,2246 1898,2245 1884,2245 1883,2246 1849,2246 1848,2245 1838,2245 1837,2246 1824,2246 1823,2245 1817,2245 1816,2246 1799,2246 1798,2245 1794,2245 1793,2246 1737,2246 1736,2245 1704,2245 1703,2244 1697,2244 1696,2245 1670,2245 1669,2246 1660,2246 1659,2245 1624,2245 1623,2246 1598,2246 1597,2247 1587,2247 1586,2246 1582,2246 1581,2247 1579,2247 1578,2248 1577,2248 1574,2251 1573,2251 1573,2252 1571,2254 1571,2256 1570,2257 1570,2259 1569,2260 1569,2262 1568,2263 1568,2269 1569,2270 1569,2298 1570,2299 1570,2305 1569,2306 1569,2353 1568,2354 1568,2377 1569,2378 1569,2387 1570,2388 1570,2397 1571,2398 1571,2401 1572,2402 1572,2405 1573,2406 1573,2411 1574,2412 1574,2417 1575,2418 1575,2422 1576,2423 1576,2425 1577,2426 1577,2427 1578,2428 1578,2430 1579,2431 1579,2432 1580,2433 1580,2435 1581,2436 1581,2438 1582,2439 1582,2440 1583,2441 1583,2443 1584,2444 1584,2446 1585,2447 1585,2450 1586,2451 1586,2454 1587,2455 1587,2457 1588,2458 1588,2460 1589,2461 1589,2462 1590,2463 1590,2464 1591,2465 1591,2466 1592,2467 1592,2468 1594,2470 1594,2471 1595,2472 1595,2473 1596,2474 1596,2475 1597,2476 1597,2477 1598,2478 1598,2480 1599,2481 1599,2484 1600,2485 1600,2487 1601,2488 1601,2491 1602,2492 1602,2494 1603,2495 1603,2497 1604,2498 1604,2499 1605,2500 1605,2501 1606,2502 1606,2503 1607,2504 1607,2505 1608,2506 1608,2507 1609,2508 1609,2510 1610,2511 1610,2513 1611,2514 1611,2515 1612,2516 1612,2518 1613,2519 1613,2521 1614,2522 1614,2523 1615,2524 1615,2526 1616,2527 1616,2529 1617,2530 1617,2531 1618,2532 1618,2534 1619,2535 1619,2537 1620,2538 1620,2541 1621,2542 1621,2544 1622,2545 1622,2547 1623,2548 1623,2551 1624,2552 1624,2554 1625,2555 1625,2558 1626,2559 1626,2561 1627,2562 1627,2564 1628,2565 1628,2567 1629,2568 1629,2569 1630,2570 1630,2572 1631,2573 1631,2575 1632,2576 1632,2582 1633,2583 1633,2588 1634,2589 1634,2592 1635,2593 1635,2595 1636,2596 1636,2597 1637,2598 1637,2599 1642,2604 1642,2605 1644,2607 1644,2608 1649,2613 1651,2613 1652,2614 1665,2614 1666,2615 1686,2615 1687,2616 1688,2616 1689,2615 1735,2615 1736,2616 1770,2616 1771,2615 1772,2615 1773,2616 1826,2616 1827,2617 1835,2617 1836,2616 1842,2616 1843,2615 1854,2615 1855,2616 1865,2616 1866,2617 1871,2617 1872,2616 1919,2616 1920,2617 1929,2617 1930,2616 1936,2616 1937,2615 1942,2615 1943,2616 1956,2616 1957,2615 2008,2615 2009,2614 2013,2614 2014,2615 2043,2615 2044,2616 2050,2616 2051,2615 2064,2615 2065,2616 2074,2616 2075,2615 2091,2615 2092,2616 2113,2616 2114,2617 2121,2617 2122,2616 2126,2616 2127,2615 2136,2615 2137,2616 2145,2616 2146,2615 2151,2615 2152,2614 2176,2614 2177,2613 2181,2613 2182,2614 2197,2614 2198,2613 2209,2613 2210,2614 2217,2614 2218,2613 2251,2613 2252,2614 2362,2614 2363,2613 2434,2613 2435,2612 2440,2612 2441,2611 2454,2611 2455,2612 2503,2612 2504,2611 2523,2611 2524,2610 2527,2610 2528,2611 2536,2611 2537,2610 2541,2610 2542,2609 2544,2609 2545,2608 2548,2608 2549,2607 2563,2607 2564,2606 2572,2606 2573,2605 2583,2605 2584,2604 2592,2604 2593,2603 2599,2603 2600,2602 2604,2602 2605,2601 2625,2601 2626,2602 2642,2602 2643,2603 2662,2603 2663,2604 2680,2604 2681,2605 2711,2605 2712,2606 2733,2606 2734,2607 2749,2607 2750,2606 2751,2607 2759,2607 2760,2608 2792,2608 2793,2607 2802,2607 2803,2608 2816,2608 2817,2607 2829,2607 2830,2608 2844,2608 2845,2607 2846,2608 2850,2608 2851,2609 2853,2609 2854,2610 2856,2610 2857,2611 2862,2611 2863,2610 2885,2610 2886,2609 2891,2609 2892,2608 2899,2608 2900,2609 2935,2609 2936,2608 2941,2608 2942,2607 2947,2607 2948,2608 2957,2608 2958,2607 2974,2607 2975,2608 2978,2608 2979,2607 2983,2607 2984,2606 2987,2606 2988,2605 2997,2605 2998,2606 3013,2606 3014,2605 3019,2605 3020,2604 3024,2604 3027,2601 3027,2600 3028,2599 3028,2581 3029,2580 3029,2570 3028,2569 3028,2559 3029,2558 3029,2547 3028,2546 3028,2515 3029,2514 3029,2494 3028,2493 3028,2486 3029,2485 3029,2473 3028,2472 3028,2466 3029,2465 3029,2423 3030,2422 3030,2389 3029,2388 3029,2330 3030,2329 3030,2262 3029,2261 3029,2256 3028,2255 3028,2253 3027,2252 3027,2251 3026,2250 3025,2250 3024,2249 3020,2249 3019,2248 3013,2248 3012,2247 3004,2247 3003,2246 2995,2246 2994,2245 2980,2245 2979,2246 2978,2245 2961,2245 2960,2246 2945,2246 2944,2245 2943,2245 2942,2246 2939,2246 2938,2247 2936,2247 2935,2248 2934,2248 2933,2249 2923,2249 2922,2248 2903,2248 2902,2247 2899,2247 2898,2246 2893,2246 2892,2247 2890,2247 2889,2248 2888,2248 2886,2250 2885,2250 2884,2251 2879,2251 2878,2250 2875,2250 2874,2249 2868,2249 2867,2248 2855,2248 2854,2247 2841,2247 2840,2248 2830,2248 2829,2249 2814,2249 2813,2248 2801,2248 2800,2247 2799,2248 2794,2248 2793,2249 2788,2249 2787,2250 2782,2250 2781,2249 2748,2249 2747,2248 2733,2248 2732,2247 2715,2247 2714,2246 2705,2246 2704,2245 2687,2245 2686,2244 2665,2244 2664,2243 2651,2243 2650,2244 2634,2244 2633,2243 2630,2243 2629,2244 2615,2244 2614,2243" fill="rgba(235,157,37,0.3)" stroke="rgb(235,157,37)" stroke-width="2" data-block-id="0005" data-name="b-0009" /><text x="2218" y="2431" text-anchor="middle" dominant-baseline="middle" class="block-label" fill="rgb(235,157,37)" stroke="white" stroke-width="3" paint-order="stroke">b-0009</text><polygon points="4393,2238 4392,2239 4388,2239 4387,2240 4358,2240 4357,2241 4354,2241 4353,2240 4334,2240 4333,2241 4273,2241 4272,2240 4232,2240 4231,2241 4148,2241 4147,2242 4130,2242 4129,2241 4072,2241 4071,2242 3913,2242 3912,2243 3746,2243 3745,2242 3720,2242 3719,2243 3702,2243 3701,2242 3698,2242 3697,2243 3686,2243 3685,2242 3636,2242 3635,2243 3622,2243 3621,2242 3585,2242 3584,2243 3580,2243 3579,2242 3538,2242 3537,2243 3527,2243 3526,2242 3509,2242 3508,2243 3500,2243 3499,2244 3483,2244 3482,2243 3452,2243 3451,2244 3441,2244 3440,2245 3439,2245 3438,2244 3435,2244 3434,2243 3429,2243 3428,2242 3419,2242 3418,2243 3397,2243 3396,2244 3379,2244 3378,2243 3373,2243 3372,2244 3364,2244 3363,2243 3306,2243 3305,2244 3277,2244 3276,2243 3271,2243 3270,2244 3229,2244 3228,2245 3221,2245 3220,2246 3219,2246 3216,2249 3216,2251 3215,2252 3215,2257 3214,2258 3214,2270 3215,2271 3215,2286 3216,2287 3215,2288 3215,2335 3214,2336 3214,2414 3215,2415 3215,2446 3214,2447 3214,2463 3215,2464 3215,2469 3214,2470 3214,2571 3213,2572 3213,2588 3214,2589 3214,2596 3215,2597 3215,2600 3217,2602 3217,2603 3219,2605 3220,2605 3221,2606 3222,2606 3223,2607 3233,2607 3234,2608 3238,2608 3239,2607 3252,2607 3253,2608 3324,2608 3325,2609 3348,2609 3349,2608 3390,2608 3391,2607 3406,2607 3407,2608 3434,2608 3435,2607 3555,2607 3556,2608 3565,2608 3566,2607 3615,2607 3616,2606 3639,2606 3640,2605 3717,2605 3718,2604 3732,2604 3733,2605 3763,2605 3764,2604 3883,2604 3884,2603 3901,2603 3902,2604 3943,2604 3944,2603 3958,2603 3959,2602 3986,2602 3987,2601 4026,2601 4027,2600 4074,2600 4075,2599 4083,2599 4084,2598 4085,2598 4086,2599 4103,2599 4104,2600 4121,2600 4122,2599 4135,2599 4136,2600 4140,2600 4141,2601 4149,2601 4150,2602 4156,2602 4157,2601 4163,2601 4164,2600 4181,2600 4182,2599 4194,2599 4195,2600 4265,2600 4266,2599 4314,2599 4315,2598 4333,2598 4334,2597 4355,2597 4356,2596 4363,2596 4364,2595 4416,2595 4417,2594 4418,2594 4419,2595 4444,2595 4445,2596 4459,2596 4460,2595 4483,2595 4484,2596 4504,2596 4505,2597 4514,2597 4515,2598 4526,2598 4527,2599 4532,2599 4533,2600 4563,2600 4564,2599 4601,2599 4602,2600 4616,2600 4617,2599 4660,2599 4661,2598 4665,2598 4666,2597 4667,2597 4667,2596 4669,2594 4669,2592 4670,2591 4670,2589 4671,2588 4671,2579 4672,2578 4672,2574 4671,2573 4671,2567 4670,2566 4670,2532 4669,2531 4669,2510 4670,2509 4670,2498 4669,2497 4669,2472 4668,2471 4668,2451 4669,2450 4669,2444 4670,2443 4670,2426 4669,2425 4669,2376 4668,2375 4668,2366 4669,2365 4669,2343 4668,2342 4668,2292 4669,2291 4669,2262 4668,2261 4668,2251 4667,2250 4667,2248 4666,2247 4666,2246 4665,2246 4663,2244 4661,2244 4660,2243 4659,2243 4658,2242 4653,2242 4652,2241 4640,2241 4639,2240 4607,2240 4606,2239 4586,2239 4585,2238 4579,2238 4578,2239 4554,2239 4553,2238 4538,2238 4537,2239 4519,2239 4518,2238 4497,2238 4496,2239 4491,2239 4490,2240 4485,2240 4484,2239 4466,2239 4465,2240 4423,2240 4422,2241 4414,2241 4413,2240 4411,2240 4410,2239 4401,2239 4400,2238" fill="rgba(129,191,187,0.3)" stroke="rgb(129,191,187)" stroke-width="2" data-block-id="0006" data-name="b-0010" /><text x="4004" y="2419" text-anchor="middle" dominant-baseline="middle" class="block-label" fill="rgb(129,191,187)" stroke="white" stroke-width="3" paint-order="stroke">b-0010</text><polygon points="3279,259 3278,260 3274,260 3273,261 3267,261 3266,262 3222,262 3221,263 3219,263 3218,264 3217,264 3216,265 3215,265 3214,266 3214,267 3213,268 3213,270 3212,271 3212,276 3211,277 3211,284 3210,285 3210,300 3211,301 3211,307 3210,308 3210,339 3209,340 3209,347 3208,348 3208,360 3209,361 3209,377 3210,378 3210,384 3211,385 3211,392 3210,393 3210,418 3211,419 3211,430 3212,431 3212,454 3211,455 3211,466 3210,467 3210,475 3211,476 3211,488 3212,489 3212,514 3213,515 3213,525 3212,526 3212,534 3213,535 3213,546 3212,547 3212,615 3213,616 3213,617 3214,618 3214,619 3215,620 3215,621 3217,623 3218,623 3219,624 3220,624 3221,625 3224,625 3225,626 3256,626 3257,625 3277,625 3278,626 3284,626 3285,625 3291,625 3292,624 3302,624 3303,625 3309,625 3310,626 3330,626 3331,625 3346,625 3347,626 3384,626 3385,625 3401,625 3402,626 3580,626 3581,627 3645,627 3646,628 3686,628 3687,627 3690,627 3691,628 3705,628 3706,627 3725,627 3726,628 3793,628 3794,629 3802,629 3803,628 3814,628 3815,629 3883,629 3884,630 3901,630 3902,629 3920,629 3921,630 3935,630 3936,631 3954,631 3955,632 3957,632 3958,633 3960,633 3961,634 3963,634 3964,635 3966,635 3967,634 3976,634 3977,633 3986,633 3987,632 3990,632 3991,631 3993,631 3994,630 3996,630 3997,629 4002,629 4003,630 4008,630 4009,631 4029,631 4030,630 4037,630 4038,631 4077,631 4078,630 4083,630 4084,629 4085,629 4086,630 4102,630 4103,631 4126,631 4127,630 4146,630 4147,631 4174,631 4175,630 4191,630 4192,631 4221,631 4222,632 4234,632 4235,631 4240,631 4241,632 4253,632 4254,631 4259,631 4260,630 4264,630 4265,631 4267,631 4268,632 4271,632 4272,633 4300,633 4301,632 4305,632 4306,631 4309,631 4310,630 4311,630 4312,631 4321,631 4322,632 4359,632 4360,633 4364,633 4365,634 4378,634 4379,633 4393,633 4394,632 4452,632 4453,633 4460,633 4461,634 4479,634 4480,633 4486,633 4487,632 4504,632 4505,633 4525,633 4526,634 4552,634 4553,633 4595,633 4596,632 4598,632 4599,633 4624,633 4625,632 4651,632 4652,633 4654,633 4655,632 4658,632 4659,631 4660,631 4662,629 4663,629 4664,628 4664,627 4665,626 4665,625 4666,624 4666,620 4667,619 4667,613 4668,612 4668,575 4667,574 4667,559 4668,558 4668,553 4667,552 4667,547 4666,546 4666,530 4667,529 4666,528 4666,462 4665,461 4665,460 4666,459 4666,453 4667,452 4667,449 4668,448 4668,429 4667,428 4667,401 4666,400 4666,383 4667,382 4667,334 4666,333 4666,305 4667,304 4667,290 4666,289 4666,283 4665,282 4665,280 4664,279 4664,278 4662,276 4661,276 4659,274 4657,274 4656,273 4551,273 4550,274 4544,274 4543,273 4508,273 4507,272 4485,272 4484,271 4460,271 4459,272 4444,272 4443,271 4425,271 4424,272 4412,272 4411,271 4406,271 4405,270 4398,270 4397,269 4392,269 4391,270 4389,270 4388,271 4385,271 4384,272 4361,272 4360,271 4342,271 4341,272 4338,272 4337,273 4327,273 4326,272 4302,272 4301,271 4272,271 4271,272 4268,272 4267,273 4264,273 4263,274 4262,274 4261,273 4259,273 4258,272 4257,272 4256,271 4254,271 4253,270 4252,270 4251,269 4250,269 4249,268 4247,268 4246,269 4239,269 4238,270 4233,270 4232,271 4225,271 4224,272 4210,272 4209,271 4193,271 4192,272 4169,272 4168,273 4167,272 4161,272 4160,271 4146,271 4145,270 4139,270 4138,271 4111,271 4110,270 4085,270 4084,271 4068,271 4067,270 4025,270 4024,269 4013,269 4012,268 4011,269 4006,269 4005,270 4002,270 4001,271 3995,271 3994,270 3988,270 3987,269 3966,269 3965,268 3960,268 3959,269 3944,269 3943,270 3908,270 3907,269 3864,269 3863,268 3836,268 3835,269 3818,269 3817,268 3794,268 3793,267 3787,267 3786,266 3773,266 3772,267 3760,267 3759,268 3757,268 3756,267 3745,267 3744,268 3718,268 3717,269 3711,269 3710,268 3708,268 3707,267 3682,267 3681,268 3672,268 3671,267 3650,267 3649,268 3631,268 3630,269 3629,269 3628,268 3594,268 3593,269 3573,269 3572,268 3537,268 3536,269 3535,269 3534,268 3524,268 3523,267 3479,267 3478,266 3438,266 3437,265 3406,265 3405,266 3401,266 3400,267 3397,267 3396,268 3395,268 3394,269 3393,269 3392,270 3391,269 3389,269 3387,267 3386,267 3385,266 3384,266 3383,265 3378,265 3377,264 3359,264 3358,265 3350,265 3349,264 3328,264 3327,263 3314,263 3313,262 3292,262 3291,261 3289,261 3288,260 3286,260 3285,259" fill="rgba(20,160,203,0.3)" stroke="rgb(20,160,203)" stroke-width="2" data-block-id="0007" data-name="b-0011" /><text x="3940" y="432" text-anchor="middle" dominant-baseline="middle" class="block-label" fill="rgb(20,160,203)" stroke="white" stroke-width="3" paint-order="stroke">b-0011</text><polygon points="4533,1214 4532,1215 4527,1215 4526,1216 4511,1216 4510,1217 4506,1217 4505,1218 4459,1218 4458,1217 4431,1217 4430,1218 4339,1218 4338,1219 4273,1219 4272,1220 4264,1220 4263,1221 4231,1221 4230,1220 4215,1220 4214,1221 4183,1221 4182,1220 4144,1220 4143,1221 4112,1221 4111,1220 4075,1220 4074,1221 3995,1221 3994,1220 3935,1220 3934,1219 3921,1219 3920,1220 3912,1220 3911,1219 3875,1219 3874,1220 3852,1220 3851,1219 3795,1219 3794,1220 3787,1220 3786,1221 3734,1221 3733,1220 3707,1220 3706,1221 3692,1221 3691,1222 3683,1222 3682,1223 3650,1223 3649,1224 3633,1224 3632,1225 3627,1225 3626,1224 3610,1224 3609,1223 3592,1223 3591,1224 3572,1224 3571,1223 3471,1223 3470,1222 3411,1222 3410,1223 3382,1223 3381,1224 3357,1224 3356,1225 3341,1225 3340,1224 3335,1224 3334,1223 3323,1223 3322,1224 3316,1224 3315,1223 3270,1223 3269,1222 3252,1222 3251,1223 3232,1223 3231,1224 3224,1224 3223,1225 3222,1225 3222,1226 3221,1227 3221,1230 3220,1231 3220,1248 3219,1249 3219,1251 3218,1252 3218,1254 3217,1255 3217,1257 3216,1258 3216,1484 3217,1485 3217,1527 3218,1528 3218,1534 3219,1535 3219,1567 3220,1568 3220,1573 3221,1574 3221,1575 3222,1576 3222,1577 3223,1577 3224,1578 3225,1578 3226,1579 3232,1579 3233,1580 3237,1580 3238,1579 3244,1579 3245,1578 3264,1578 3265,1579 3271,1579 3272,1580 3274,1580 3275,1581 3278,1581 3279,1582 3284,1582 3285,1583 3296,1583 3297,1582 3310,1582 3311,1581 3324,1581 3325,1582 3338,1582 3339,1581 3347,1581 3348,1582 3364,1582 3365,1581 3366,1581 3367,1582 3384,1582 3385,1581 3398,1581 3399,1582 3550,1582 3551,1581 3621,1581 3622,1580 3652,1580 3653,1581 3751,1581 3752,1582 3785,1582 3786,1581 3806,1581 3807,1582 3812,1582 3813,1581 3865,1581 3866,1580 3916,1580 3917,1579 3918,1580 3935,1580 3936,1581 3955,1581 3956,1580 3961,1580 3962,1579 3968,1579 3969,1580 3977,1580 3978,1579 4015,1579 4016,1580 4042,1580 4043,1581 4048,1581 4049,1580 4054,1580 4055,1579 4113,1579 4114,1580 4131,1580 4132,1579 4142,1579 4143,1578 4144,1579 4194,1579 4195,1580 4226,1580 4227,1579 4280,1579 4281,1580 4290,1580 4291,1579 4321,1579 4322,1578 4323,1578 4324,1579 4342,1579 4343,1578 4344,1578 4345,1579 4354,1579 4355,1580 4377,1580 4378,1579 4421,1579 4422,1580 4441,1580 4442,1581 4461,1581 4462,1580 4480,1580 4481,1579 4492,1579 4493,1580 4541,1580 4542,1579 4545,1579 4546,1578 4549,1578 4550,1579 4552,1579 4553,1580 4556,1580 4557,1581 4579,1581 4580,1582 4590,1582 4591,1581 4594,1581 4595,1582 4600,1582 4601,1583 4604,1583 4605,1584 4617,1584 4618,1585 4622,1585 4623,1584 4645,1584 4646,1585 4658,1585 4659,1584 4661,1584 4662,1583 4663,1583 4664,1582 4666,1582 4668,1580 4669,1580 4671,1578 4671,1577 4673,1575 4673,1566 4672,1565 4672,1542 4671,1541 4671,1492 4670,1491 4670,1480 4671,1479 4671,1451 4672,1450 4672,1438 4673,1437 4673,1428 4672,1427 4672,1422 4671,1421 4671,1402 4670,1401 4670,1387 4671,1386 4671,1352 4670,1351 4670,1326 4669,1325 4669,1309 4670,1308 4670,1267 4669,1266 4669,1258 4670,1257 4670,1228 4669,1227 4669,1225 4665,1221 4664,1221 4663,1220 4662,1220 4661,1219 4659,1219 4658,1218 4587,1218 4586,1217 4582,1217 4581,1218 4557,1218 4556,1217 4551,1217 4550,1216 4545,1216 4544,1215 4539,1215 4538,1214" fill="rgba(57,21,252,0.3)" stroke="rgb(57,21,252)" stroke-width="2" data-block-id="0008" data-name="b-0012" /><text x="4003" y="1422" text-anchor="middle" dominant-baseline="middle" class="block-label" fill="rgb(57,21,252)" stroke="white" stroke-width="3" paint-order="stroke">b-0012</text><polygon points="3281,739 3280,740 3275,740 3274,741 3260,741 3259,740 3251,740 3250,741 3245,741 3244,740 3224,740 3223,741 3221,741 3220,742 3219,742 3217,744 3217,745 3216,746 3216,752 3215,753 3215,768 3214,769 3214,772 3215,773 3215,787 3214,788 3214,812 3215,813 3215,824 3214,825 3214,865 3215,866 3215,931 3216,932 3216,1061 3215,1062 3215,1073 3216,1074 3216,1092 3217,1093 3217,1094 3219,1096 3219,1097 3220,1097 3221,1098 3222,1098 3223,1099 3235,1099 3236,1100 3263,1100 3264,1101 3271,1101 3272,1102 3273,1102 3274,1101 3300,1101 3301,1100 3311,1100 3312,1101 3397,1101 3398,1100 3411,1100 3412,1099 3423,1099 3424,1100 3425,1100 3426,1099 3436,1099 3437,1098 3439,1098 3440,1099 3449,1099 3450,1100 3462,1100 3463,1099 3553,1099 3554,1098 3562,1098 3563,1099 3649,1099 3650,1100 3655,1100 3656,1099 3695,1099 3696,1100 3707,1100 3708,1099 3821,1099 3822,1100 3831,1100 3832,1101 3852,1101 3853,1100 3883,1100 3884,1101 3888,1101 3889,1102 3941,1102 3942,1101 4020,1101 4021,1100 4023,1100 4024,1101 4075,1101 4076,1100 4096,1100 4097,1101 4130,1101 4131,1102 4135,1102 4136,1101 4142,1101 4143,1102 4162,1102 4163,1101 4166,1101 4167,1102 4173,1102 4174,1103 4254,1103 4255,1102 4265,1102 4266,1103 4290,1103 4291,1104 4304,1104 4305,1103 4319,1103 4320,1104 4324,1104 4325,1103 4343,1103 4344,1104 4345,1103 4382,1103 4383,1102 4397,1102 4398,1101 4410,1101 4411,1102 4426,1102 4427,1101 4475,1101 4476,1100 4479,1100 4480,1101 4499,1101 4500,1100 4539,1100 4540,1099 4587,1099 4588,1098 4605,1098 4606,1099 4610,1099 4611,1098 4638,1098 4639,1097 4657,1097 4658,1096 4661,1096 4662,1095 4664,1095 4665,1094 4666,1094 4667,1093 4667,1092 4668,1091 4668,1090 4669,1089 4669,1071 4668,1070 4668,1065 4669,1064 4669,1049 4668,1048 4668,1038 4669,1037 4669,1025 4668,1024 4668,1018 4669,1017 4669,1010 4670,1009 4670,1007 4669,1006 4669,999 4668,998 4668,987 4669,986 4669,982 4668,981 4668,968 4669,967 4669,955 4668,954 4668,949 4667,948 4667,945 4668,944 4668,921 4669,920 4669,902 4668,901 4668,854 4667,853 4667,831 4668,830 4668,789 4667,788 4667,761 4666,760 4666,755 4665,754 4665,753 4664,752 4664,751 4661,748 4660,748 4659,747 4658,747 4657,746 4655,746 4654,745 4653,745 4652,746 4638,746 4637,747 4628,747 4627,746 4619,746 4618,745 4608,745 4607,746 4591,746 4590,747 4580,747 4579,746 4547,746 4546,747 4537,747 4536,746 4522,746 4521,745 4493,745 4492,746 4477,746 4476,745 4475,745 4474,746 4457,746 4456,745 4448,745 4447,746 4439,746 4438,745 4432,745 4431,744 4423,744 4422,745 4360,745 4359,746 4331,746 4330,745 4293,745 4292,744 4266,744 4265,745 4241,745 4240,744 4209,744 4208,743 4185,743 4184,744 4174,744 4173,743 4001,743 4000,744 3990,744 3989,743 3965,743 3964,744 3961,744 3960,743 3911,743 3910,744 3900,744 3899,743 3863,743 3862,742 3841,742 3840,743 3809,743 3808,742 3805,742 3804,743 3742,743 3741,742 3632,742 3631,743 3626,743 3625,742 3609,742 3608,743 3588,743 3587,742 3514,742 3513,741 3430,741 3429,740 3395,740 3394,741 3388,741 3387,740 3289,740 3288,739" fill="rgba(235,88,48,0.3)" stroke="rgb(235,88,48)" stroke-width="2" data-block-id="0009" data-name="b-0013" /><text x="4046" y="928" text-anchor="middle" dominant-baseline="middle" class="block-label" fill="rgb(235,88,48)" stroke="white" stroke-width="3" paint-order="stroke">b-0013</text><polygon points="3986,1767 3985,1768 3931,1768 3930,1769 3906,1769 3905,1770 3895,1770 3894,1771 3883,1771 3882,1772 3790,1772 3789,1773 3775,1773 3774,1772 3773,1773 3534,1773 3533,1774 3460,1774 3459,1773 3429,1773 3428,1772 3410,1772 3409,1773 3261,1773 3260,1772 3257,1772 3256,1773 3243,1773 3242,1774 3233,1774 3232,1775 3225,1775 3224,1776 3223,1776 3221,1778 3221,1779 3220,1780 3220,1781 3219,1782 3219,1784 3218,1785 3218,1788 3217,1789 3217,1814 3216,1815 3216,2011 3215,2012 3215,2019 3216,2020 3216,2028 3215,2029 3215,2050 3216,2051 3216,2056 3215,2057 3215,2069 3216,2070 3216,2074 3215,2075 3215,2089 3216,2090 3216,2099 3215,2100 3215,2113 3216,2114 3216,2116 3217,2117 3217,2118 3221,2122 3223,2122 3224,2123 3239,2123 3240,2124 3252,2124 3253,2125 3264,2125 3265,2124 3362,2124 3363,2123 3428,2123 3429,2122 3494,2122 3495,2123 3522,2123 3523,2122 3529,2122 3530,2121 3541,2121 3542,2120 3589,2120 3590,2121 3595,2121 3596,2120 3632,2120 3633,2121 3653,2121 3654,2120 3656,2120 3657,2121 3667,2121 3668,2120 3681,2120 3682,2121 3697,2121 3698,2120 3705,2120 3706,2121 3779,2121 3780,2122 3791,2122 3792,2121 3802,2121 3803,2122 3812,2122 3813,2121 3829,2121 3830,2122 3833,2122 3834,2121 3888,2121 3889,2120 3895,2120 3896,2121 3984,2121 3985,2120 3991,2120 3992,2121 4075,2121 4076,2120 4124,2120 4125,2119 4162,2119 4163,2120 4172,2120 4173,2119 4181,2119 4182,2120 4210,2120 4211,2121 4214,2121 4215,2120 4222,2120 4223,2119 4230,2119 4231,2120 4293,2120 4294,2121 4306,2121 4307,2122 4314,2122 4315,2121 4327,2121 4328,2122 4339,2122 4340,2121 4349,2121 4350,2122 4360,2122 4361,2121 4504,2121 4505,2120 4525,2120 4526,2119 4543,2119 4544,2120 4548,2120 4549,2119 4559,2119 4560,2118 4579,2118 4580,2117 4611,2117 4612,2116 4623,2116 4624,2115 4629,2115 4630,2114 4655,2114 4656,2113 4658,2113 4659,2112 4660,2112 4661,2111 4662,2111 4663,2110 4664,2110 4666,2108 4666,2107 4668,2105 4668,2103 4669,2102 4669,2100 4670,2099 4670,2066 4669,2065 4669,2053 4670,2052 4670,2047 4669,2046 4669,2001 4670,2000 4670,1987 4671,1986 4671,1975 4670,1974 4670,1923 4669,1922 4669,1915 4670,1914 4670,1862 4671,1861 4671,1857 4670,1856 4670,1825 4669,1824 4669,1821 4670,1820 4670,1801 4669,1800 4669,1798 4670,1797 4670,1784 4669,1783 4669,1779 4668,1778 4668,1776 4667,1775 4667,1774 4665,1772 4663,1772 4662,1771 4660,1771 4659,1770 4615,1770 4614,1769 4578,1769 4577,1770 4548,1770 4547,1771 4457,1771 4456,1770 4437,1770 4436,1771 4396,1771 4395,1770 4393,1770 4392,1771 4378,1771 4377,1772 4366,1772 4365,1771 4350,1771 4349,1770 4339,1770 4338,1771 4316,1771 4315,1770 4260,1770 4259,1769 4241,1769 4240,1770 4196,1770 4195,1771 4074,1771 4073,1770 4039,1770 4038,1769 4030,1769 4029,1768 3994,1768 3993,1767" fill="rgba(218,58,254,0.3)" stroke="rgb(218,58,254)" stroke-width="2" data-block-id="0010" data-name="b-0014" /><text x="4015" y="1973" text-anchor="middle" dominant-baseline="middle" class="block-label" fill="rgb(218,58,254)" stroke="white" stroke-width="3" paint-order="stroke">b-0014</text><polygon points="2615,2716 2614,2717 2609,2717 2608,2718 2602,2718 2601,2719 2595,2719 2594,2720 2591,2720 2590,2721 2589,2721 2587,2723 2586,2723 2585,2724 2584,2724 2583,2725 2582,2725 2581,2724 2576,2724 2575,2723 2565,2723 2564,2724 2552,2724 2551,2725 2503,2725 2502,2726 2494,2726 2493,2727 2486,2727 2485,2726 2477,2726 2476,2725 2472,2725 2471,2726 2409,2726 2408,2727 2389,2727 2388,2726 2364,2726 2363,2727 2349,2727 2348,2728 2346,2728 2345,2727 2317,2727 2316,2728 2313,2728 2312,2729 2310,2729 2309,2730 2308,2730 2307,2729 2302,2729 2301,2728 2292,2728 2291,2727 2277,2727 2276,2728 2270,2728 2269,2727 2255,2727 2254,2728 2249,2728 2248,2727 2241,2727 2240,2726 2234,2726 2233,2727 2220,2727 2219,2728 2182,2728 2181,2729 2175,2729 2174,2728 2158,2728 2157,2729 2153,2729 2152,2728 2144,2728 2143,2727 2139,2727 2138,2728 2091,2728 2090,2729 2075,2729 2074,2728 2067,2728 2066,2729 2061,2729 2060,2730 2059,2730 2058,2729 2050,2729 2049,2728 2045,2728 2044,2729 2026,2729 2025,2728 2020,2728 2019,2729 2005,2729 2004,2728 1993,2728 1992,2729 1944,2729 1943,2730 1936,2730 1935,2729 1902,2729 1901,2730 1897,2730 1896,2731 1887,2731 1886,2730 1884,2730 1883,2729 1864,2729 1863,2728 1856,2728 1855,2727 1789,2727 1788,2726 1763,2726 1762,2727 1738,2727 1737,2726 1726,2726 1725,2727 1721,2727 1720,2728 1718,2728 1717,2729 1715,2729 1713,2731 1712,2731 1711,2732 1708,2732 1707,2733 1706,2733 1705,2734 1704,2734 1703,2735 1702,2735 1702,2738 1701,2739 1701,2752 1702,2753 1702,2754 1710,2754 1711,2755 1712,2755 1713,2756 1714,2756 1717,2759 1717,2760 1719,2762 1719,2764 1720,2765 1720,2768 1721,2769 1721,2777 1722,2778 1722,2781 1723,2782 1723,2785 1724,2786 1724,2787 1725,2788 1725,2793 1726,2794 1726,2801 1727,2802 1727,2803 1728,2804 1728,2805 1731,2808 1731,2809 1733,2811 1733,2812 1734,2813 1734,2814 1735,2815 1735,2816 1736,2817 1736,2818 1737,2819 1737,2820 1738,2821 1738,2823 1739,2824 1739,2826 1740,2827 1740,2828 1741,2829 1741,2830 1742,2831 1742,2832 1743,2833 1743,2835 1744,2836 1744,2837 1745,2838 1745,2840 1746,2841 1746,2843 1747,2844 1747,2847 1748,2848 1748,2849 1749,2850 1749,2852 1750,2853 1750,2855 1753,2858 1753,2859 1755,2861 1755,2863 1756,2864 1756,2866 1757,2867 1757,2872 1758,2873 1758,2875 1759,2876 1759,2878 1760,2879 1760,2882 1761,2883 1761,2885 1762,2886 1762,2888 1763,2889 1763,2891 1764,2892 1764,2894 1765,2895 1765,2898 1766,2899 1766,2900 1767,2901 1767,2902 1768,2903 1768,2904 1769,2905 1769,2907 1770,2908 1770,2910 1771,2911 1771,2914 1772,2915 1772,2916 1773,2917 1773,2919 1774,2920 1774,2921 1776,2923 1776,2924 1777,2925 1777,2927 1778,2928 1778,2932 1779,2933 1779,2936 1780,2937 1780,2938 1781,2939 1781,2940 1782,2941 1782,2942 1783,2943 1783,2945 1785,2947 1785,2949 1786,2950 1786,2951 1787,2952 1787,2953 1788,2954 1788,2956 1789,2957 1789,2959 1790,2960 1790,2962 1791,2963 1791,2965 1792,2966 1792,2968 1793,2969 1793,2972 1794,2973 1794,2976 1795,2977 1795,2980 1796,2981 1796,2982 1797,2983 1797,2985 1798,2986 1798,2987 1799,2988 1799,2990 1800,2991 1800,2993 1801,2994 1801,2996 1802,2997 1802,2999 1803,3000 1803,3003 1804,3004 1804,3007 1805,3008 1805,3011 1806,3012 1806,3015 1807,3016 1807,3018 1809,3020 1809,3021 1810,3022 1810,3023 1811,3024 1811,3025 1812,3026 1812,3029 1813,3030 1813,3033 1814,3034 1814,3037 1815,3038 1815,3041 1816,3042 1816,3044 1817,3045 1817,3047 1818,3048 1818,3049 1819,3050 1819,3051 1821,3053 1821,3054 1825,3058 1826,3058 1829,3061 1830,3061 1831,3062 1832,3062 1833,3063 1835,3063 1836,3062 1847,3062 1848,3063 1853,3063 1854,3064 1858,3064 1859,3063 1865,3063 1866,3062 1869,3062 1870,3063 1875,3063 1876,3064 1884,3064 1885,3063 1889,3063 1890,3062 1894,3062 1895,3063 1900,3063 1901,3064 1909,3064 1910,3063 1917,3063 1918,3064 1922,3064 1923,3065 1937,3065 1938,3064 1941,3064 1942,3065 1950,3065 1951,3066 1958,3066 1959,3067 1969,3067 1970,3068 1978,3068 1979,3067 1985,3067 1986,3066 1988,3066 1989,3067 1993,3067 1994,3068 2025,3068 2026,3067 2029,3067 2030,3066 2032,3066 2033,3065 2041,3065 2042,3066 2053,3066 2054,3065 2062,3065 2063,3066 2071,3066 2072,3067 2073,3066 2080,3066 2081,3065 2084,3065 2085,3066 2091,3066 2092,3067 2106,3067 2107,3068 2114,3068 2115,3067 2134,3067 2135,3068 2140,3068 2141,3069 2166,3069 2167,3068 2171,3068 2172,3067 2176,3067 2177,3066 2180,3066 2181,3067 2199,3067 2200,3066 2209,3066 2210,3067 2213,3067 2214,3066 2220,3066 2221,3065 2224,3065 2225,3064 2228,3064 2229,3065 2245,3065 2246,3064 2255,3064 2256,3065 2264,3065 2265,3064 2268,3064 2269,3063 2274,3063 2275,3062 2276,3063 2282,3063 2283,3064 2288,3064 2289,3063 2293,3063 2294,3062 2311,3062 2312,3063 2321,3063 2322,3064 2327,3064 2328,3065 2360,3065 2361,3064 2387,3064 2388,3063 2403,3063 2404,3064 2406,3064 2407,3063 2436,3063 2437,3064 2449,3064 2450,3065 2454,3065 2455,3064 2459,3064 2460,3063 2472,3063 2473,3064 2478,3064 2479,3063 2483,3063 2484,3062 2488,3062 2489,3061 2491,3061 2492,3062 2506,3062 2507,3061 2551,3061 2552,3060 2558,3060 2559,3059 2570,3059 2571,3058 2579,3058 2580,3057 2586,3057 2587,3056 2591,3056 2592,3055 2596,3055 2597,3054 2600,3054 2601,3053 2603,3053 2604,3052 2608,3052 2609,3051 2612,3051 2613,3052 2626,3052 2627,3053 2634,3053 2635,3054 2643,3054 2644,3055 2653,3055 2654,3056 2668,3056 2669,3057 2675,3057 2676,3058 2685,3058 2686,3059 2697,3059 2698,3060 2704,3060 2705,3061 2711,3061 2712,3062 2720,3062 2721,3063 2738,3063 2739,3062 2756,3062 2757,3063 2788,3063 2789,3064 2796,3064 2797,3065 2806,3065 2807,3066 2834,3066 2835,3065 2840,3065 2841,3064 2845,3064 2846,3063 2850,3063 2851,3064 2867,3064 2868,3063 2874,3063 2875,3064 2914,3064 2915,3063 2920,3063 2921,3064 2937,3064 2938,3063 2944,3063 2945,3064 2950,3064 2951,3065 2963,3065 2964,3064 2969,3064 2970,3063 2973,3063 2974,3062 2978,3062 2979,3061 2990,3061 2991,3060 3010,3060 3011,3061 3013,3061 3014,3060 3017,3060 3018,3059 3020,3059 3021,3058 3023,3058 3024,3057 3025,3057 3028,3054 3028,3052 3029,3051 3029,2972 3028,2971 3028,2966 3029,2965 3029,2753 3030,2752 3030,2737 3029,2736 3029,2731 3028,2730 3028,2729 3027,2728 3026,2728 3025,2727 3024,2727 3023,2726 3017,2726 3016,2725 2983,2725 2982,2726 2962,2726 2961,2725 2935,2725 2934,2726 2914,2726 2913,2725 2908,2725 2907,2724 2890,2724 2889,2725 2839,2725 2838,2724 2830,2724 2829,2725 2809,2725 2808,2724 2794,2724 2793,2725 2773,2725 2772,2724 2758,2724 2757,2723 2720,2723 2719,2722 2703,2722 2702,2721 2690,2721 2689,2720 2668,2720 2667,2719 2660,2719 2659,2718 2653,2718 2652,2717 2637,2717 2636,2716" fill="rgba(169,219,187,0.3)" stroke="rgb(169,219,187)" stroke-width="2" data-block-id="0011" data-name="b-0015" /><text x="2194" y="2912" text-anchor="middle" dominant-baseline="middle" class="block-label" fill="rgb(169,219,187)" stroke="white" stroke-width="3" paint-order="stroke">b-0015</text><polygon points="3202,2719 4688,2700 4692,3066 3190,3081" fill="rgba(102,179,92,0.3)" stroke="rgb(102,179,92)" stroke-width="2" data-block-id="0012" data-name="b-0031" /><text x="3943" y="2891" text-anchor="middle" dominant-baseline="middle" class="block-label" fill="rgb(102,179,92)" stroke="white" stroke-width="3" paint-order="stroke">b-0031</text></g>
</svg>