<?xml version='1.0' encoding='utf-8'?>
<svg xmlns="http://www.w3.org/2000/svg" xmlns:atlas="http://example.com/atlas" width="4980" height="3313" viewBox="0 0 4980 3313">
  
  <metadata>
    <atlas:source>
      <atlas:jp2-path>../media/v1/p27.jp2</atlas:jp2-path>
      <atlas:volume>vol1</atlas:volume>
      <atlas:plate-id>p27</atlas:plate-id>
      <atlas:image-width>4980</atlas:image-width>
      <atlas:image-height>3313</atlas:image-height>
    <atlas:angle>21.310355991486333</atlas:angle><atlas:scale>1.3333333333333333</atlas:scale><atlas:pos-x>3678.572267729424</atlas:pos-x><atlas:pos-y>882.2538694893144</atlas:pos-y></atlas:source>
  </metadata>

  
  <image id="background" href="file://../media/v1/p27.jp2" width="4980" height="3313" opacity="0.5" />

  <style>
    .block-label { font-family: sans-serif; font-size: 14px; font-weight: bold; }
  </style>

  
  <g id="blocks">
    <polygon points="4650,1304 4649,1305 4648,1305 4646,1307 4645,1307 4644,1308 4642,1308 4641,1309 4601,1309 4600,1310 4595,1310 4594,1311 4498,1311 4497,1312 4489,1312 4488,1311 4416,1311 4415,1310 4399,1310 4398,1309 4393,1309 4392,1308 4385,1308 4384,1309 4378,1309 4377,1310 4375,1310 4374,1309 4362,1309 4361,1310 4356,1310 4355,1311 4312,1311 4311,1310 4296,1310 4295,1311 4262,1311 4261,1310 4253,1310 4252,1311 4240,1311 4239,1310 4207,1310 4206,1311 4180,1311 4179,1310 4170,1310 4169,1311 4120,1311 4119,1310 4111,1310 4110,1311 4105,1311 4104,1312 4102,1312 4100,1314 4099,1314 4098,1315 4097,1315 4093,1319 4092,1319 4089,1322 4088,1321 4087,1321 4086,1320 4085,1320 4084,1319 4080,1319 4079,1318 4075,1318 4074,1317 4068,1317 4067,1316 4061,1316 4060,1317 4056,1317 4055,1316 4049,1316 4048,1315 4021,1315 4020,1316 4005,1316 4004,1315 3997,1315 3996,1314 3992,1314 3991,1315 3976,1315 3975,1316 3955,1316 3954,1315 3884,1315 3883,1316 3860,1316 3859,1315 3821,1315 3820,1316 3815,1316 3814,1315 3806,1315 3805,1314 3804,1314 3803,1315 3798,1315 3797,1316 3792,1316 3791,1317 3775,1317 3774,1318 3767,1318 3766,1317 3765,1317 3764,1316 3762,1316 3761,1315 3759,1315 3758,1314 3746,1314 3745,1315 3697,1315 3696,1314 3652,1314 3651,1315 3622,1315 3621,1314 3616,1314 3615,1313 3608,1313 3607,1314 3592,1314 3591,1315 3588,1315 3587,1316 3585,1316 3584,1317 3582,1317 3581,1318 3580,1318 3579,1319 3571,1319 3570,1318 3562,1318 3561,1317 3551,1317 3550,1318 3549,1318 3548,1319 3546,1319 3544,1321 3541,1321 3540,1322 3539,1321 3537,1321 3536,1320 3534,1320 3533,1319 3530,1319 3529,1318 3526,1318 3525,1317 3522,1317 3521,1316 3479,1316 3478,1315 3453,1315 3452,1316 3448,1316 3447,1317 3419,1317 3418,1316 3407,1316 3406,1317 3403,1317 3402,1318 3399,1318 3398,1319 3395,1319 3394,1318 3373,1318 3372,1317 3358,1317 3357,1318 3355,1318 3354,1319 3342,1319 3341,1318 3336,1318 3335,1317 3331,1317 3330,1316 3311,1316 3310,1315 3305,1315 3304,1314 3295,1314 3294,1315 3290,1315 3289,1314 3240,1314 3239,1315 3220,1315 3219,1316 3218,1316 3217,1317 3217,1318 3216,1319 3216,1320 3215,1321 3215,1323 3214,1324 3214,1325 3213,1326 3213,1329 3212,1330 3212,1341 3213,1342 3213,1350 3214,1351 3214,1357 3213,1358 3213,1381 3214,1382 3214,1386 3215,1387 3215,1406 3216,1407 3216,1416 3215,1417 3215,1423 3214,1424 3214,1429 3215,1430 3215,1445 3216,1446 3216,1454 3217,1455 3217,1470 3216,1471 3216,1476 3217,1477 3217,1488 3216,1489 3216,1494 3215,1495 3215,1498 3216,1499 3216,1503 3217,1504 3217,1517 3216,1518 3216,1539 3215,1540 3215,1552 3216,1553 3216,1561 3215,1562 3215,1585 3216,1586 3216,1623 3215,1624 3215,1668 3216,1669 3216,1673 3217,1674 3217,1676 3218,1677 3218,1678 3221,1681 3223,1681 3224,1682 3227,1682 3228,1683 3232,1683 3233,1684 3276,1684 3277,1685 3296,1685 3297,1686 3305,1686 3306,1685 3310,1685 3311,1684 3328,1684 3329,1683 3331,1683 3332,1682 3334,1682 3335,1681 3336,1681 3337,1680 3347,1680 3348,1681 3358,1681 3359,1682 3364,1682 3365,1681 3369,1681 3370,1680 3372,1680 3373,1679 3379,1679 3380,1678 3389,1678 3390,1679 3395,1679 3396,1680 3401,1680 3402,1681 3411,1681 3412,1682 3417,1682 3418,1683 3420,1683 3421,1684 3423,1684 3424,1683 3425,1683 3426,1682 3427,1682 3428,1681 3429,1681 3430,1680 3435,1680 3436,1681 3437,1681 3442,1686 3443,1686 3444,1687 3451,1687 3452,1686 3454,1686 3455,1685 3456,1685 3457,1684 3461,1684 3462,1685 3467,1685 3468,1686 3482,1686 3483,1687 3500,1687 3501,1686 3508,1686 3509,1687 3514,1687 3515,1688 3535,1688 3536,1689 3560,1689 3561,1690 3569,1690 3570,1689 3579,1689 3580,1690 3583,1690 3584,1691 3588,1691 3589,1692 3596,1692 3597,1691 3605,1691 3606,1692 3616,1692 3617,1691 3646,1691 3647,1692 3679,1692 3680,1693 3686,1693 3687,1692 3692,1692 3693,1691 3700,1691 3701,1692 3716,1692 3717,1691 3731,1691 3732,1692 3742,1692 3743,1693 3758,1693 3759,1692 3764,1692 3765,1691 3774,1691 3775,1692 3788,1692 3789,1691 3792,1691 3793,1692 3798,1692 3799,1693 3849,1693 3850,1692 3857,1692 3858,1691 3866,1691 3867,1692 3871,1692 3872,1693 3878,1693 3879,1694 3892,1694 3893,1695 3905,1695 3906,1694 3918,1694 3919,1695 3924,1695 3925,1694 3929,1694 3930,1693 3933,1693 3934,1692 3964,1692 3965,1693 3992,1693 3993,1694 3997,1694 3998,1693 4018,1693 4019,1694 4036,1694 4037,1695 4045,1695 4046,1694 4051,1694 4052,1693 4063,1693 4064,1694 4065,1694 4066,1693 4069,1693 4070,1692 4071,1692 4072,1691 4074,1691 4075,1690 4076,1690 4077,1689 4079,1689 4080,1688 4084,1688 4085,1687 4086,1687 4087,1686 4088,1686 4088,1677 4089,1676 4090,1677 4090,1686 4094,1690 4094,1691 4097,1694 4097,1695 4098,1696 4098,1697 4100,1699 4100,1700 4101,1701 4101,1702 4104,1705 4105,1705 4106,1706 4108,1706 4109,1707 4111,1707 4112,1708 4120,1708 4121,1707 4163,1707 4164,1708 4206,1708 4207,1709 4243,1709 4244,1708 4257,1708 4258,1709 4270,1709 4271,1708 4452,1708 4453,1709 4469,1709 4470,1708 4477,1708 4478,1709 4502,1709 4503,1710 4554,1710 4555,1709 4588,1709 4589,1708 4591,1708 4592,1709 4596,1709 4597,1710 4601,1710 4602,1711 4610,1711 4611,1710 4617,1710 4618,1709 4619,1709 4623,1705 4623,1704 4624,1703 4624,1701 4625,1700 4625,1696 4626,1695 4626,1692 4627,1691 4627,1673 4626,1672 4626,1660 4625,1659 4625,1643 4626,1642 4626,1638 4625,1637 4625,1626 4624,1625 4624,1622 4623,1621 4623,1620 4622,1619 4622,1618 4621,1617 4621,1615 4620,1614 4620,1609 4619,1608 4619,1606 4618,1606 4617,1605 4615,1605 4614,1604 4588,1604 4587,1603 4581,1603 4580,1602 4575,1602 4574,1603 4561,1603 4560,1602 4552,1602 4551,1603 4542,1603 4541,1602 4522,1602 4521,1603 4519,1603 4518,1602 4503,1602 4502,1603 4498,1603 4497,1604 4494,1604 4493,1603 4485,1603 4484,1602 4482,1602 4481,1601 4480,1601 4479,1600 4478,1600 4476,1598 4475,1598 4474,1597 4473,1597 4471,1595 4470,1595 4469,1594 4468,1594 4464,1590 4464,1589 4454,1579 4454,1578 4456,1576 4456,1575 4457,1574 4457,1573 4458,1572 4458,1571 4459,1570 4459,1566 4458,1565 4458,1564 4457,1563 4457,1561 4456,1560 4456,1558 4455,1557 4455,1555 4454,1554 4454,1552 4452,1550 4452,1549 4449,1546 4449,1542 4450,1541 4450,1539 4451,1538 4451,1531 4450,1530 4450,1529 4449,1528 4449,1527 4448,1526 4448,1525 4446,1523 4446,1520 4445,1519 4445,1513 4444,1512 4444,1507 4443,1506 4443,1502 4442,1501 4442,1467 4441,1466 4441,1458 4442,1457 4442,1450 4443,1449 4443,1440 4444,1439 4444,1438 4445,1437 4445,1436 4447,1434 4449,1434 4450,1433 4465,1433 4466,1432 4472,1432 4473,1433 4494,1433 4495,1432 4526,1432 4527,1433 4542,1433 4543,1432 4572,1432 4573,1433 4584,1433 4585,1432 4628,1432 4629,1431 4637,1431 4638,1430 4643,1430 4644,1429 4647,1429 4648,1428 4650,1428 4651,1427 4652,1427 4653,1426 4653,1425 4654,1424 4654,1417 4655,1416 4655,1413 4656,1412 4656,1411 4659,1408 4659,1407 4660,1406 4660,1405 4661,1404 4661,1403 4662,1402 4662,1401 4663,1400 4663,1386 4662,1385 4662,1381 4661,1380 4661,1374 4662,1373 4662,1365 4663,1364 4663,1357 4664,1356 4664,1351 4663,1350 4663,1338 4662,1337 4662,1315 4661,1314 4661,1311 4660,1310 4660,1309 4656,1305 4655,1305 4654,1304" fill="rgba(14,106,71,0.3)" stroke="rgb(14,106,71)" stroke-width="2" data-block-id="0001" data-name="b-0002" /><text x="3973" y="1512" text-anchor="middle" dominant-baseline="middle" class="block-label" fill="rgb(14,106,71)" stroke="white" stroke-width="3" paint-order="stroke">b-0002</text><polygon points="661,795 660,796 654,796 653,797 644,797 643,796 606,796 605,797 557,797 556,796 529,796 528,797 493,797 492,798 481,798 480,799 479,799 474,804 474,821 475,822 475,841 474,842 474,863 473,864 473,879 474,880 474,892 473,893 473,922 474,923 474,958 475,959 475,982 474,983 474,995 473,996 473,1028 474,1029 474,1100 473,1101 473,1119 474,1120 474,1134 473,1135 473,1149 474,1150 474,1167 475,1168 475,1171 476,1172 476,1174 477,1175 477,1176 479,1178 480,1178 481,1179 484,1179 485,1180 493,1180 494,1181 498,1181 499,1180 512,1180 513,1181 525,1181 526,1182 533,1182 534,1183 553,1183 554,1182 562,1182 563,1183 565,1183 566,1182 594,1182 595,1183 630,1183 631,1182 663,1182 664,1183 686,1183 687,1182 716,1182 717,1181 723,1181 724,1180 729,1180 730,1179 763,1179 764,1180 796,1180 797,1181 811,1181 812,1182 825,1182 826,1181 848,1181 849,1182 874,1182 875,1183 886,1183 887,1184 902,1184 903,1183 909,1183 910,1182 918,1182 919,1183 927,1183 928,1182 947,1182 948,1183 973,1183 974,1184 979,1184 980,1185 989,1185 990,1186 998,1186 999,1185 1003,1185 1004,1184 1047,1184 1048,1185 1058,1185 1059,1186 1065,1186 1066,1187 1077,1187 1078,1186 1079,1187 1099,1187 1100,1186 1107,1186 1108,1187 1121,1187 1122,1186 1150,1186 1151,1187 1172,1187 1173,1186 1180,1186 1181,1187 1194,1187 1195,1186 1208,1186 1209,1187 1210,1186 1219,1186 1220,1185 1228,1185 1229,1186 1244,1186 1245,1187 1257,1187 1258,1188 1265,1188 1266,1187 1274,1187 1275,1188 1283,1188 1284,1187 1311,1187 1312,1186 1336,1186 1337,1187 1347,1187 1348,1188 1357,1188 1358,1187 1363,1187 1364,1186 1373,1186 1374,1187 1434,1187 1435,1188 1444,1188 1445,1187 1453,1187 1454,1188 1472,1188 1473,1189 1506,1189 1507,1188 1522,1188 1523,1189 1528,1189 1529,1190 1548,1190 1549,1189 1562,1189 1563,1188 1571,1188 1572,1189 1575,1189 1576,1190 1609,1190 1610,1189 1626,1189 1627,1190 1628,1190 1629,1189 1647,1189 1648,1190 1657,1190 1658,1189 1665,1189 1666,1190 1669,1190 1670,1191 1706,1191 1707,1190 1718,1190 1719,1189 1722,1189 1723,1188 1724,1188 1726,1186 1726,1183 1727,1182 1727,1177 1728,1176 1728,1171 1729,1170 1729,1165 1730,1164 1730,1160 1729,1159 1729,1150 1728,1149 1728,1130 1727,1129 1727,1124 1728,1123 1728,1073 1729,1072 1729,1066 1728,1065 1728,1001 1729,1000 1729,918 1728,917 1728,909 1729,908 1729,857 1730,856 1730,835 1731,834 1731,829 1730,828 1730,822 1729,821 1729,816 1728,815 1728,812 1727,811 1727,809 1726,808 1726,807 1725,806 1724,806 1723,805 1714,805 1713,806 1710,806 1709,805 1690,805 1689,806 1684,806 1683,805 1670,805 1669,806 1666,806 1665,805 1660,805 1659,804 1656,804 1655,803 1652,803 1651,802 1600,802 1599,801 1594,801 1593,800 1549,800 1548,801 1529,801 1528,802 1525,802 1524,803 1522,803 1521,804 1515,804 1514,803 1508,803 1507,804 1500,804 1499,805 1495,805 1494,804 1488,804 1487,803 1483,803 1482,802 1454,802 1453,803 1431,803 1430,804 1397,804 1396,803 1390,803 1389,802 1383,802 1382,801 1314,801 1313,800 1308,800 1307,799 1304,799 1303,800 1289,800 1288,801 1277,801 1276,802 1265,802 1264,801 1248,801 1247,800 1207,800 1206,799 1157,799 1156,798 1144,798 1143,799 1111,799 1110,798 1100,798 1099,799 1061,799 1060,798 1023,798 1022,799 1017,799 1016,798 962,798 961,797 935,797 934,798 929,798 928,799 922,799 921,798 916,798 915,797 904,797 903,796 899,796 898,797 890,797 889,798 823,798 822,797 794,797 793,798 773,798 772,797 763,797 762,796 753,796 752,797 748,797 747,798 736,798 735,799 731,799 730,798 694,798 693,797 689,797 688,796 664,796 663,795" fill="rgba(188,20,102,0.3)" stroke="rgb(188,20,102)" stroke-width="2" data-block-id="0002" data-name="b-0003" /><text x="1137" y="1007" text-anchor="middle" dominant-baseline="middle" class="block-label" fill="rgb(188,20,102)" stroke="white" stroke-width="3" paint-order="stroke">b-0003</text><polygon points="504,1294 503,1295 497,1295 496,1296 488,1296 487,1295 484,1295 483,1296 481,1296 476,1301 476,1303 475,1304 475,1308 474,1309 474,1329 475,1330 475,1341 476,1342 476,1352 475,1353 475,1367 474,1368 474,1394 473,1395 473,1396 474,1397 474,1445 473,1446 473,1457 472,1458 472,1474 473,1475 473,1484 472,1485 472,1510 471,1511 471,1517 472,1518 472,1522 473,1523 473,1542 474,1543 474,1577 475,1578 475,1621 474,1622 474,1628 475,1629 475,1636 474,1637 474,1661 475,1662 475,1663 476,1664 476,1665 477,1666 477,1667 481,1671 482,1671 483,1672 498,1672 499,1673 537,1673 538,1672 547,1672 548,1673 586,1673 587,1672 607,1672 608,1673 655,1673 656,1674 669,1674 670,1675 674,1675 675,1674 682,1674 683,1673 705,1673 706,1672 711,1672 712,1673 728,1673 729,1672 733,1672 734,1673 737,1673 738,1674 741,1674 742,1675 746,1675 747,1676 776,1676 777,1675 788,1675 789,1674 804,1674 805,1675 820,1675 821,1674 830,1674 831,1675 836,1675 837,1676 857,1676 858,1677 868,1677 869,1676 874,1676 875,1675 906,1675 907,1676 928,1676 929,1677 932,1677 933,1678 937,1678 938,1679 962,1679 963,1678 967,1678 968,1677 978,1677 979,1678 993,1678 994,1677 999,1677 1000,1678 1010,1678 1011,1677 1024,1677 1025,1678 1028,1678 1029,1679 1051,1679 1052,1678 1065,1678 1066,1677 1070,1677 1071,1678 1092,1678 1093,1679 1099,1679 1100,1680 1108,1680 1109,1679 1113,1679 1114,1678 1117,1678 1118,1679 1122,1679 1123,1680 1131,1680 1132,1679 1136,1679 1137,1678 1160,1678 1161,1677 1165,1677 1166,1678 1176,1678 1177,1679 1194,1679 1195,1678 1218,1678 1219,1679 1227,1679 1228,1680 1248,1680 1249,1681 1258,1681 1259,1680 1263,1680 1264,1679 1275,1679 1276,1680 1280,1680 1281,1681 1284,1681 1285,1680 1290,1680 1291,1679 1352,1679 1353,1680 1355,1680 1356,1679 1366,1679 1367,1678 1368,1678 1369,1679 1380,1679 1381,1678 1409,1678 1410,1677 1416,1677 1417,1678 1427,1678 1428,1679 1443,1679 1444,1680 1455,1680 1456,1679 1471,1679 1472,1680 1473,1679 1481,1679 1482,1678 1489,1678 1490,1679 1516,1679 1517,1680 1542,1680 1543,1681 1546,1681 1547,1680 1571,1680 1572,1681 1577,1681 1578,1682 1588,1682 1589,1683 1610,1683 1611,1684 1620,1684 1621,1683 1623,1683 1624,1682 1626,1682 1627,1681 1628,1681 1629,1680 1634,1680 1635,1679 1645,1679 1646,1680 1657,1680 1658,1679 1671,1679 1672,1680 1693,1680 1694,1679 1707,1679 1708,1680 1714,1680 1715,1679 1716,1679 1717,1678 1718,1678 1720,1676 1721,1676 1722,1675 1722,1674 1724,1672 1724,1670 1725,1669 1725,1660 1726,1659 1726,1657 1725,1656 1725,1640 1726,1639 1726,1604 1725,1603 1725,1507 1724,1506 1724,1486 1725,1485 1725,1458 1724,1457 1724,1433 1723,1432 1723,1430 1724,1429 1724,1418 1723,1417 1723,1388 1722,1387 1722,1383 1723,1382 1723,1363 1722,1362 1722,1348 1723,1347 1723,1334 1724,1333 1724,1328 1725,1327 1725,1313 1724,1312 1724,1311 1723,1310 1723,1309 1721,1307 1720,1307 1719,1306 1718,1306 1716,1304 1714,1304 1713,1303 1709,1303 1708,1302 1702,1302 1701,1301 1679,1301 1678,1300 1669,1300 1668,1299 1662,1299 1661,1300 1657,1300 1656,1301 1649,1301 1648,1300 1643,1300 1642,1299 1639,1299 1638,1300 1617,1300 1616,1299 1608,1299 1607,1298 1561,1298 1560,1297 1558,1297 1557,1298 1549,1298 1548,1299 1528,1299 1527,1298 1524,1298 1523,1297 1514,1297 1513,1298 1504,1298 1503,1297 1484,1297 1483,1298 1464,1298 1463,1299 1431,1299 1430,1298 1419,1298 1418,1299 1411,1299 1410,1298 1407,1298 1406,1297 1401,1297 1400,1296 1356,1296 1355,1297 1353,1297 1352,1296 1332,1296 1331,1297 1330,1296 1323,1296 1322,1295 1315,1295 1314,1296 1309,1296 1308,1297 1304,1297 1303,1296 1294,1296 1293,1295 1292,1296 1273,1296 1272,1295 1269,1295 1268,1296 1256,1296 1255,1295 1249,1295 1248,1294 1247,1295 1244,1295 1243,1296 1241,1296 1240,1297 1237,1297 1236,1298 1202,1298 1201,1297 1172,1297 1171,1298 1168,1298 1167,1299 1158,1299 1157,1298 1125,1298 1124,1299 1120,1299 1119,1300 1113,1300 1112,1299 1109,1299 1108,1298 1106,1298 1105,1297 1100,1297 1099,1298 1096,1298 1095,1299 1092,1299 1091,1300 1085,1300 1084,1299 1080,1299 1079,1300 1073,1300 1072,1301 1062,1301 1061,1300 1050,1300 1049,1301 1038,1301 1037,1300 1027,1300 1026,1299 1014,1299 1013,1298 1003,1298 1002,1297 973,1297 972,1298 971,1298 970,1297 930,1297 929,1298 909,1298 908,1297 886,1297 885,1298 861,1298 860,1297 839,1297 838,1298 826,1298 825,1297 724,1297 723,1296 645,1296 644,1297 642,1297 641,1298 634,1298 633,1297 631,1297 630,1296 628,1296 627,1295 600,1295 599,1296 592,1296 591,1297 584,1297 583,1298 571,1298 570,1297 554,1297 553,1296 540,1296 539,1295 534,1295 533,1294 524,1294 523,1295 515,1295 514,1294" fill="rgba(121,210,214,0.3)" stroke="rgb(121,210,214)" stroke-width="2" data-block-id="0003" data-name="b-0004" /><text x="1133" y="1488" text-anchor="middle" dominant-baseline="middle" class="block-label" fill="rgb(121,210,214)" stroke="white" stroke-width="3" paint-order="stroke">b-0004</text><polygon points="1915,802 1914,803 1907,803 1906,804 1899,804 1898,805 1892,805 1891,806 1886,806 1885,807 1881,807 1880,808 1878,808 1877,809 1876,809 1874,811 1874,812 1873,813 1873,814 1872,815 1872,816 1871,817 1871,819 1870,820 1870,823 1869,824 1869,860 1870,861 1870,910 1869,911 1869,920 1868,921 1868,927 1869,928 1869,939 1870,940 1870,945 1869,946 1869,952 1868,953 1868,957 1867,958 1867,963 1866,964 1866,966 1867,967 1867,974 1868,975 1868,995 1869,996 1869,1013 1870,1014 1870,1052 1869,1053 1869,1062 1868,1063 1868,1074 1867,1075 1867,1081 1868,1082 1868,1087 1869,1088 1869,1094 1870,1095 1870,1115 1869,1116 1870,1117 1870,1142 1869,1143 1869,1146 1868,1147 1868,1150 1867,1151 1867,1153 1866,1154 1866,1161 1867,1162 1867,1164 1868,1165 1868,1168 1869,1169 1869,1171 1870,1172 1870,1174 1871,1175 1871,1176 1872,1177 1872,1178 1873,1179 1873,1180 1875,1182 1876,1182 1878,1184 1879,1184 1880,1185 1882,1185 1883,1186 1885,1186 1886,1187 1888,1187 1889,1188 1891,1188 1892,1189 1896,1189 1897,1190 1901,1190 1902,1189 1928,1189 1929,1190 1938,1190 1939,1189 1947,1189 1948,1188 1959,1188 1960,1189 1966,1189 1967,1190 1983,1190 1984,1189 2002,1189 2003,1190 2008,1190 2009,1191 2016,1191 2017,1190 2021,1190 2022,1189 2027,1189 2028,1188 2035,1188 2036,1189 2039,1189 2040,1190 2043,1190 2044,1191 2047,1191 2048,1192 2058,1192 2059,1191 2063,1191 2064,1190 2067,1190 2068,1189 2076,1189 2077,1190 2082,1190 2083,1191 2098,1191 2099,1190 2107,1190 2108,1189 2111,1189 2112,1190 2119,1190 2120,1191 2126,1191 2127,1192 2135,1192 2136,1191 2155,1191 2156,1192 2161,1192 2162,1193 2169,1193 2170,1194 2178,1194 2179,1193 2197,1193 2198,1192 2209,1192 2210,1191 2211,1192 2234,1192 2235,1193 2252,1193 2253,1192 2261,1192 2262,1191 2337,1191 2338,1190 2345,1190 2346,1191 2355,1191 2356,1192 2374,1192 2375,1191 2399,1191 2400,1192 2424,1192 2425,1193 2433,1193 2434,1194 2441,1194 2442,1195 2485,1195 2486,1196 2503,1196 2504,1197 2512,1197 2513,1198 2520,1198 2521,1197 2524,1197 2525,1196 2526,1196 2527,1195 2529,1195 2530,1194 2532,1194 2533,1193 2534,1193 2535,1192 2537,1192 2538,1191 2543,1191 2544,1192 2550,1192 2551,1193 2565,1193 2566,1192 2571,1192 2572,1191 2580,1191 2581,1192 2585,1192 2586,1193 2593,1193 2594,1194 2600,1194 2601,1193 2608,1193 2609,1192 2612,1192 2613,1191 2616,1191 2617,1190 2622,1190 2623,1191 2632,1191 2633,1192 2639,1192 2640,1193 2646,1193 2647,1194 2656,1194 2657,1195 2658,1194 2668,1194 2669,1193 2676,1193 2677,1194 2682,1194 2683,1195 2689,1195 2690,1196 2696,1196 2697,1195 2701,1195 2702,1194 2706,1194 2707,1193 2709,1193 2710,1192 2717,1192 2718,1193 2721,1193 2722,1194 2727,1194 2728,1195 2743,1195 2744,1194 2756,1194 2757,1195 2760,1195 2761,1196 2766,1196 2767,1197 2775,1197 2776,1196 2779,1196 2780,1195 2783,1195 2784,1194 2786,1194 2789,1191 2792,1191 2793,1190 2795,1192 2796,1192 2797,1193 2799,1193 2800,1194 2809,1194 2810,1195 2820,1195 2821,1194 2845,1194 2846,1195 2847,1195 2848,1194 2865,1194 2866,1193 2872,1193 2873,1192 2877,1192 2878,1191 2882,1191 2883,1190 2896,1190 2897,1191 2905,1191 2906,1192 2949,1192 2950,1191 2963,1191 2964,1190 2978,1190 2979,1191 2986,1191 2987,1192 2989,1192 2990,1193 2991,1193 2992,1194 2997,1194 2998,1195 3005,1195 3006,1196 3032,1196 3033,1197 3051,1197 3052,1198 3079,1198 3080,1197 3085,1197 3086,1196 3088,1196 3089,1195 3090,1195 3093,1192 3093,1191 3094,1190 3094,1188 3095,1187 3095,1183 3096,1182 3096,1173 3097,1172 3097,1139 3096,1138 3096,1122 3095,1121 3095,1094 3094,1093 3094,1090 3093,1089 3093,1087 3092,1086 3092,1084 3091,1083 3091,1080 3090,1079 3090,1074 3091,1073 3091,1062 3092,1061 3092,1056 3091,1055 3091,1030 3092,1029 3092,996 3091,995 3091,938 3092,937 3092,930 3093,929 3093,911 3094,910 3094,880 3095,879 3095,852 3094,851 3094,828 3093,827 3093,825 3088,820 3087,820 3086,819 3083,819 3082,818 3039,818 3038,819 3026,819 3025,820 2981,820 2980,821 2973,821 2972,822 2913,822 2912,821 2882,821 2881,820 2876,820 2875,819 2871,819 2870,818 2859,818 2858,817 2842,817 2841,816 2811,816 2810,815 2803,815 2802,814 2796,814 2795,813 2778,813 2777,812 2764,812 2763,813 2750,813 2749,812 2747,812 2746,811 2741,811 2740,810 2720,810 2719,811 2711,811 2710,812 2699,812 2698,813 2686,813 2685,814 2680,814 2679,815 2669,815 2668,814 2658,814 2657,813 2652,813 2651,814 2623,814 2622,815 2595,815 2594,814 2586,814 2585,813 2563,813 2562,812 2558,812 2557,813 2552,813 2551,814 2548,814 2547,815 2543,815 2542,816 2537,816 2536,815 2533,815 2532,814 2530,814 2529,813 2527,813 2526,812 2524,812 2523,811 2518,811 2517,810 2454,810 2453,809 2447,809 2446,808 2426,808 2425,809 2418,809 2417,808 2394,808 2393,807 2377,807 2376,806 2370,806 2369,805 2357,805 2356,806 2349,806 2348,807 2340,807 2339,806 2331,806 2330,805 2320,805 2319,806 2314,806 2313,807 2309,807 2308,808 2292,808 2291,807 2284,807 2283,806 2275,806 2274,805 2261,805 2260,806 2254,806 2253,807 2246,807 2245,808 2184,808 2183,807 2177,807 2176,806 2163,806 2162,807 2157,807 2156,808 2137,808 2136,807 2111,807 2110,806 2107,806 2106,805 2102,805 2101,804 2095,804 2094,803 2088,803 2087,804 2082,804 2081,805 2078,805 2077,806 2074,806 2073,807 2040,807 2039,808 2030,808 2029,807 2026,807 2025,806 2022,806 2021,805 2018,805 2017,804 1948,804 1947,803 1939,803 1938,802" fill="rgba(74,202,87,0.3)" stroke="rgb(74,202,87)" stroke-width="2" data-block-id="0004" data-name="b-0005" /><text x="2430" y="1031" text-anchor="middle" dominant-baseline="middle" class="block-label" fill="rgb(74,202,87)" stroke="white" stroke-width="3" paint-order="stroke">b-0005</text><polygon points="780,307 779,308 775,308 774,309 770,309 769,310 761,310 760,311 748,311 747,312 746,311 740,311 739,310 735,310 734,309 732,309 731,310 727,310 726,311 717,311 716,310 714,310 713,309 709,309 708,308 707,309 682,309 681,310 679,310 678,311 670,311 669,310 640,310 639,309 623,309 622,310 600,310 599,311 596,311 595,312 591,312 590,313 585,313 584,314 574,314 573,313 569,313 568,312 562,312 561,313 552,313 551,312 549,312 548,311 546,311 545,310 540,310 539,311 538,311 537,312 535,312 534,313 528,313 527,312 524,312 523,311 490,311 489,312 484,312 483,313 482,313 480,315 480,316 479,317 479,325 478,326 478,330 479,331 479,354 478,355 478,375 477,376 477,391 476,392 476,396 475,397 475,420 476,421 476,428 477,429 477,435 478,436 478,480 477,481 477,496 478,497 478,515 479,516 479,557 478,558 478,561 477,562 477,580 478,581 478,583 479,584 479,586 480,587 480,588 481,589 481,592 480,593 480,596 479,597 479,643 478,644 478,655 477,656 477,663 478,664 478,667 479,668 479,672 481,674 481,675 482,675 483,676 510,676 511,677 522,677 523,678 531,678 532,679 547,679 548,678 562,678 563,679 567,679 568,678 570,678 571,677 573,677 574,676 576,676 577,675 580,675 581,674 584,674 585,673 587,673 588,672 593,672 594,673 597,673 598,674 599,674 600,675 608,675 609,674 614,674 615,675 617,675 618,676 620,676 621,677 626,677 627,678 639,678 640,679 651,679 652,680 664,680 665,679 668,679 669,678 678,678 679,679 682,679 683,680 686,680 687,681 688,681 689,680 702,680 703,681 710,681 711,680 712,680 714,678 715,678 718,675 719,675 720,674 721,674 722,673 728,673 729,674 734,674 735,675 737,675 738,676 740,676 741,677 743,677 744,678 761,678 762,679 817,679 818,680 834,680 835,679 845,679 846,680 871,680 872,681 879,681 880,680 897,680 898,681 921,681 922,682 925,682 926,681 931,681 932,680 942,680 943,681 980,681 981,680 988,680 989,681 1014,681 1015,682 1023,682 1024,681 1029,681 1030,680 1034,680 1035,681 1053,681 1054,680 1059,680 1060,681 1069,681 1070,680 1073,680 1074,679 1077,679 1078,678 1081,678 1082,679 1085,679 1086,680 1088,680 1089,681 1092,681 1093,682 1098,682 1099,683 1106,683 1107,684 1111,684 1112,685 1127,685 1128,684 1133,684 1134,683 1191,683 1192,684 1202,684 1203,685 1207,685 1208,686 1217,686 1218,685 1242,685 1243,684 1252,684 1253,685 1276,685 1277,686 1310,686 1311,687 1317,687 1318,688 1348,688 1349,687 1380,687 1381,688 1387,688 1388,689 1394,689 1395,688 1410,688 1411,689 1426,689 1427,690 1436,690 1437,689 1447,689 1448,688 1461,688 1462,687 1476,687 1477,688 1512,688 1513,689 1518,689 1519,690 1530,690 1531,689 1549,689 1550,688 1569,688 1570,689 1571,689 1572,688 1596,688 1597,687 1604,687 1605,686 1616,686 1617,687 1624,687 1625,688 1658,688 1659,687 1698,687 1699,688 1703,688 1704,687 1716,687 1717,688 1723,688 1724,687 1726,687 1726,686 1728,684 1728,683 1729,682 1729,680 1730,679 1730,676 1731,675 1731,667 1730,666 1730,596 1729,595 1729,560 1730,559 1730,550 1729,549 1729,465 1728,464 1728,444 1727,443 1727,404 1728,403 1728,380 1729,379 1729,362 1730,361 1730,340 1729,339 1729,333 1728,332 1728,328 1727,327 1727,325 1726,324 1726,323 1723,320 1710,320 1709,319 1707,319 1706,318 1705,318 1704,317 1703,317 1702,316 1700,316 1699,315 1698,316 1696,316 1695,317 1692,317 1691,318 1681,318 1680,317 1674,317 1673,318 1669,318 1668,319 1663,319 1661,317 1660,317 1659,316 1657,316 1656,315 1654,315 1653,314 1649,314 1648,315 1638,315 1637,316 1625,316 1624,317 1611,317 1610,316 1607,316 1606,315 1601,315 1600,316 1585,316 1584,315 1573,315 1572,316 1556,316 1555,315 1549,315 1548,314 1541,314 1540,313 1531,313 1530,314 1526,314 1525,315 1518,315 1517,316 1507,316 1506,315 1501,315 1500,314 1486,314 1485,315 1463,315 1462,314 1459,314 1458,315 1446,315 1445,314 1443,314 1442,313 1440,313 1439,312 1434,312 1433,313 1429,313 1428,314 1409,314 1408,315 1399,315 1398,314 1393,314 1392,313 1388,313 1387,314 1382,314 1381,315 1370,315 1369,314 1351,314 1350,313 1348,313 1347,312 1345,312 1344,311 1338,311 1337,312 1333,312 1332,313 1327,313 1326,312 1288,312 1287,313 1266,313 1265,312 1261,312 1260,311 1253,311 1252,310 1246,310 1245,309 1236,309 1235,308 1226,308 1225,309 1217,309 1216,310 1196,310 1195,311 1168,311 1167,310 1153,310 1152,309 1146,309 1145,308 1142,308 1141,307 1130,307 1129,308 1125,308 1124,307 1115,307 1114,308 1112,308 1111,309 1110,309 1109,310 1107,310 1106,311 1097,311 1096,310 1090,310 1089,309 1081,309 1080,308 1062,308 1061,309 1037,309 1036,308 1019,308 1018,309 1017,309 1016,310 1014,310 1013,311 1011,311 1010,312 951,312 950,313 944,313 943,312 888,312 887,311 882,311 881,310 862,310 861,311 850,311 849,310 847,310 846,309 843,309 842,308 832,308 831,307 830,308 827,308 826,309 824,309 823,310 820,310 819,311 814,311 813,310 809,310 808,309 801,309 800,308 789,308 788,307" fill="rgba(116,99,103,0.3)" stroke="rgb(116,99,103)" stroke-width="2" data-block-id="0005" data-name="b-0006" /><text x="1056" y="480" text-anchor="middle" dominant-baseline="middle" class="block-label" fill="rgb(116,99,103)" stroke="white" stroke-width="3" paint-order="stroke">b-0006</text><polygon points="1955,317 1954,318 1942,318 1941,319 1922,319 1921,318 1892,318 1891,319 1887,319 1886,320 1884,320 1883,321 1882,321 1881,322 1880,322 1878,324 1878,325 1877,326 1877,327 1876,328 1876,329 1875,330 1875,332 1874,333 1874,336 1873,337 1873,357 1874,358 1874,382 1873,383 1873,453 1872,454 1872,486 1873,487 1873,504 1872,505 1872,584 1873,585 1873,596 1872,597 1872,629 1873,630 1873,634 1872,635 1872,671 1873,672 1873,675 1874,676 1874,677 1875,678 1875,679 1876,680 1876,681 1880,685 1882,685 1883,686 1885,686 1886,687 1890,687 1891,688 1935,688 1936,689 1949,689 1950,690 1968,690 1969,691 1979,691 1980,690 2016,690 2017,691 2027,691 2028,692 2083,692 2084,691 2093,691 2094,692 2102,692 2103,693 2120,693 2121,692 2132,692 2133,691 2153,691 2154,692 2158,692 2159,693 2164,693 2165,694 2194,694 2195,693 2292,693 2293,692 2333,692 2334,693 2416,693 2417,694 2486,694 2487,695 2513,695 2514,696 2558,696 2559,695 2581,695 2582,696 2590,696 2591,697 2641,697 2642,696 2673,696 2674,697 2720,697 2721,698 2739,698 2740,697 2744,697 2745,696 2748,696 2749,695 2785,695 2786,694 2790,694 2791,695 2796,695 2797,696 2800,696 2801,697 2806,697 2807,698 2871,698 2872,699 2882,699 2883,700 2896,700 2897,701 2935,701 2936,700 2943,700 2944,699 2945,699 2946,700 2953,700 2954,701 2961,701 2962,702 3082,702 3083,701 3086,701 3087,700 3089,700 3090,699 3091,699 3092,698 3093,698 3098,693 3098,691 3099,690 3099,648 3100,647 3100,630 3101,629 3101,621 3102,620 3102,601 3101,600 3101,578 3100,577 3100,565 3101,564 3101,538 3102,537 3102,532 3101,531 3101,441 3100,440 3100,422 3101,421 3101,407 3102,406 3102,377 3101,376 3101,351 3100,350 3100,342 3099,341 3099,340 3098,339 3098,338 3095,335 3094,335 3093,334 3092,334 3091,333 3090,333 3089,332 3088,332 3087,331 3084,331 3083,330 3028,330 3027,329 2978,329 2977,328 2933,328 2932,327 2928,327 2927,328 2919,328 2918,329 2912,329 2911,330 2900,330 2899,331 2864,331 2863,332 2836,332 2835,333 2814,333 2813,334 2809,334 2808,333 2797,333 2796,332 2790,332 2789,331 2781,331 2780,330 2767,330 2766,331 2762,331 2761,332 2758,332 2757,333 2750,333 2749,332 2748,332 2747,331 2744,331 2743,330 2739,330 2738,329 2688,329 2687,330 2667,330 2666,331 2619,331 2618,330 2607,330 2606,331 2578,331 2577,330 2574,330 2573,329 2569,329 2568,328 2561,328 2560,327 2543,327 2542,326 2509,326 2508,325 2465,325 2464,324 2387,324 2386,323 2329,323 2328,324 2319,324 2318,323 2297,323 2296,322 2256,322 2255,321 2233,321 2232,320 2216,320 2215,321 2205,321 2204,320 2196,320 2195,319 2152,319 2151,320 2129,320 2128,319 2100,319 2099,320 2083,320 2082,319 2069,319 2068,318 2057,318 2056,317 2047,317 2046,318 2031,318 2030,319 2006,319 2005,318 1960,318 1959,317" fill="rgba(151,130,149,0.3)" stroke="rgb(151,130,149)" stroke-width="2" data-block-id="0006" data-name="b-0007" /><text x="2490" y="491" text-anchor="middle" dominant-baseline="middle" class="block-label" fill="rgb(151,130,149)" stroke="white" stroke-width="3" paint-order="stroke">b-0007</text><polygon points="532,2704 531,2705 528,2705 527,2706 523,2706 522,2707 492,2707 491,2706 482,2706 481,2707 478,2707 477,2708 476,2708 475,2709 474,2709 472,2711 472,2715 471,2716 471,2728 470,2729 470,2735 471,2736 471,2739 472,2740 472,2749 471,2750 471,2753 470,2754 470,2757 469,2758 469,2759 468,2760 468,2762 467,2763 467,2765 466,2766 466,2768 465,2769 465,2772 464,2773 464,2777 463,2778 463,2784 464,2785 464,2788 465,2789 465,2793 464,2794 464,2795 461,2798 461,2799 460,2800 460,2802 459,2803 459,2805 458,2806 458,2808 457,2809 457,2814 456,2815 456,2821 457,2822 457,2834 456,2835 456,2849 455,2850 455,2854 456,2855 456,2867 457,2868 457,2885 456,2886 456,2919 457,2920 457,2926 456,2927 456,2933 455,2934 455,2952 456,2953 456,2956 457,2957 457,2961 458,2962 458,2968 459,2969 459,2974 458,2975 458,2978 457,2979 457,3001 456,3002 456,3034 457,3035 457,3039 458,3040 458,3042 459,3043 459,3044 461,3046 462,3046 463,3047 464,3047 465,3048 466,3048 467,3049 468,3049 469,3050 473,3050 474,3051 488,3051 489,3052 509,3052 510,3053 513,3053 514,3054 516,3054 517,3055 519,3055 520,3056 536,3056 537,3057 542,3057 543,3056 557,3056 558,3055 570,3055 571,3056 574,3056 575,3057 577,3057 578,3058 584,3058 585,3059 597,3059 598,3058 604,3058 605,3057 609,3057 610,3056 613,3056 614,3055 616,3055 617,3054 618,3054 619,3053 622,3053 623,3052 650,3052 651,3053 654,3053 655,3054 656,3054 658,3056 659,3056 661,3058 662,3058 663,3059 664,3059 665,3060 667,3060 668,3061 670,3061 672,3063 675,3063 679,3059 680,3059 682,3057 683,3057 684,3056 686,3056 687,3057 688,3057 690,3059 691,3059 693,3061 694,3061 696,3063 699,3063 700,3062 701,3062 703,3060 704,3060 707,3057 711,3057 715,3061 715,3062 718,3065 718,3066 721,3069 722,3069 723,3070 727,3070 728,3071 734,3071 738,3067 739,3067 742,3064 743,3064 744,3063 748,3063 749,3064 753,3064 754,3065 760,3065 761,3066 782,3066 783,3065 784,3065 792,3057 793,3057 794,3056 801,3056 802,3057 808,3057 809,3058 811,3058 812,3059 814,3059 815,3060 817,3060 818,3061 821,3061 822,3062 826,3062 827,3063 829,3063 830,3062 831,3062 832,3061 833,3061 838,3056 840,3056 841,3055 843,3055 844,3056 848,3056 849,3057 855,3057 856,3056 857,3056 858,3055 860,3055 861,3054 863,3054 864,3053 869,3053 870,3054 883,3054 884,3053 891,3053 892,3054 896,3054 897,3055 902,3055 903,3056 916,3056 917,3057 925,3057 926,3056 928,3056 929,3055 931,3055 932,3054 934,3054 935,3053 944,3053 945,3054 952,3054 953,3055 957,3055 958,3056 961,3056 962,3057 967,3057 968,3058 973,3058 974,3059 977,3059 978,3060 979,3060 980,3061 981,3061 983,3063 984,3063 985,3064 993,3064 994,3065 996,3065 997,3064 1002,3064 1003,3063 1005,3063 1006,3062 1007,3062 1008,3061 1009,3061 1010,3060 1014,3060 1015,3059 1035,3059 1036,3058 1047,3058 1048,3057 1063,3057 1064,3058 1071,3058 1072,3059 1074,3059 1075,3060 1077,3060 1078,3061 1092,3061 1093,3062 1095,3062 1096,3063 1097,3063 1099,3065 1100,3065 1102,3067 1102,3068 1103,3068 1104,3069 1108,3069 1109,3068 1117,3068 1118,3069 1121,3069 1122,3070 1138,3070 1139,3069 1145,3069 1146,3068 1150,3068 1151,3067 1152,3067 1153,3066 1154,3066 1156,3064 1157,3064 1158,3063 1159,3063 1160,3062 1167,3062 1168,3063 1170,3063 1171,3064 1172,3064 1173,3065 1175,3065 1176,3066 1177,3066 1178,3065 1181,3065 1182,3064 1189,3064 1190,3065 1192,3065 1193,3066 1196,3066 1197,3067 1200,3067 1201,3066 1202,3066 1203,3065 1204,3065 1205,3064 1206,3064 1207,3063 1209,3063 1210,3062 1213,3062 1214,3063 1218,3063 1219,3064 1221,3064 1222,3065 1227,3065 1228,3064 1237,3064 1238,3065 1239,3065 1240,3066 1243,3066 1244,3067 1248,3067 1249,3066 1250,3066 1252,3064 1253,3064 1254,3063 1255,3063 1256,3062 1258,3062 1259,3061 1261,3061 1262,3060 1265,3060 1266,3059 1268,3059 1269,3058 1273,3058 1274,3057 1287,3057 1288,3058 1305,3058 1306,3059 1312,3059 1313,3060 1316,3060 1317,3061 1320,3061 1321,3062 1327,3062 1328,3063 1332,3063 1333,3064 1334,3064 1335,3065 1337,3065 1338,3066 1340,3066 1341,3067 1342,3066 1344,3066 1347,3063 1348,3063 1349,3062 1350,3062 1351,3061 1352,3061 1353,3060 1356,3060 1357,3059 1361,3059 1362,3058 1365,3058 1366,3057 1378,3057 1379,3056 1393,3056 1394,3057 1403,3057 1404,3056 1408,3056 1409,3055 1420,3055 1421,3056 1426,3056 1427,3057 1429,3057 1431,3059 1432,3059 1433,3060 1434,3060 1435,3061 1438,3061 1439,3060 1440,3060 1441,3059 1443,3059 1444,3058 1447,3058 1448,3057 1452,3057 1453,3056 1455,3056 1456,3055 1460,3055 1461,3054 1475,3054 1476,3055 1483,3055 1484,3056 1495,3056 1496,3057 1499,3057 1500,3058 1501,3058 1502,3059 1503,3059 1505,3061 1506,3061 1509,3064 1510,3064 1511,3065 1518,3065 1519,3064 1523,3064 1524,3063 1526,3063 1527,3062 1530,3062 1531,3061 1542,3061 1543,3062 1547,3062 1548,3063 1550,3063 1551,3064 1553,3064 1554,3065 1559,3065 1563,3061 1564,3061 1567,3058 1569,3058 1570,3057 1571,3057 1572,3058 1576,3058 1577,3059 1585,3059 1586,3060 1596,3060 1597,3061 1601,3061 1602,3062 1608,3062 1609,3061 1613,3061 1614,3060 1625,3060 1626,3059 1649,3059 1650,3060 1655,3060 1656,3059 1679,3059 1680,3058 1692,3058 1693,3059 1700,3059 1701,3058 1702,3058 1703,3057 1705,3057 1706,3056 1707,3056 1708,3055 1709,3055 1712,3052 1712,3051 1713,3050 1713,3049 1714,3048 1714,3047 1715,3046 1715,2979 1716,2978 1716,2962 1715,2961 1716,2960 1716,2925 1715,2924 1715,2914 1716,2913 1716,2905 1717,2904 1717,2884 1716,2883 1716,2862 1717,2861 1717,2847 1716,2846 1716,2836 1717,2835 1717,2820 1716,2819 1716,2796 1715,2795 1715,2791 1716,2790 1716,2783 1717,2782 1717,2778 1716,2777 1716,2763 1717,2762 1717,2753 1716,2752 1716,2740 1717,2739 1717,2725 1716,2724 1716,2720 1715,2719 1715,2717 1714,2716 1714,2715 1711,2712 1709,2712 1708,2711 1700,2711 1699,2710 1698,2710 1697,2711 1675,2711 1674,2710 1648,2710 1647,2711 1637,2711 1636,2710 1629,2710 1628,2709 1612,2709 1611,2708 1604,2708 1603,2707 1575,2707 1574,2706 1568,2706 1567,2707 1563,2707 1562,2708 1560,2708 1559,2709 1556,2709 1555,2708 1554,2708 1553,2707 1552,2707 1551,2706 1549,2706 1548,2705 1547,2705 1546,2704 1543,2704 1542,2705 1540,2705 1539,2706 1537,2706 1536,2707 1532,2707 1531,2708 1530,2707 1505,2707 1504,2708 1477,2708 1476,2707 1435,2707 1434,2708 1402,2708 1401,2709 1400,2709 1399,2708 1375,2708 1374,2707 1340,2707 1339,2708 1327,2708 1326,2707 1287,2707 1286,2708 1273,2708 1272,2707 1265,2707 1264,2706 1256,2706 1255,2707 1252,2707 1251,2708 1249,2708 1248,2709 1244,2709 1243,2708 1217,2708 1216,2709 1176,2709 1175,2708 1165,2708 1164,2709 1142,2709 1141,2710 1140,2709 1136,2709 1135,2708 1131,2708 1130,2707 1124,2707 1123,2708 1070,2708 1069,2709 1053,2709 1052,2710 1049,2710 1048,2711 1043,2711 1042,2712 1041,2711 1034,2711 1033,2710 1018,2710 1017,2711 981,2711 980,2710 975,2710 974,2709 970,2709 969,2710 963,2710 962,2711 957,2711 956,2710 929,2710 928,2711 906,2711 905,2712 882,2712 881,2711 868,2711 867,2712 865,2712 864,2711 862,2711 861,2710 859,2710 858,2709 857,2709 856,2708 854,2708 853,2707 843,2707 842,2706 828,2706 827,2707 802,2707 801,2706 790,2706 789,2705 766,2705 765,2706 762,2706 761,2707 758,2707 757,2708 745,2708 744,2707 740,2707 739,2706 730,2706 729,2707 728,2707 727,2708 726,2708 725,2709 724,2709 723,2710 698,2710 697,2709 690,2709 689,2708 679,2708 678,2709 674,2709 673,2708 671,2708 670,2707 665,2707 664,2706 657,2706 656,2705 602,2705 601,2706 597,2706 596,2707 587,2707 586,2706 583,2706 582,2705 579,2705 578,2704 574,2704 573,2705 564,2705 563,2704" fill="rgba(52,1,87,0.3)" stroke="rgb(52,1,87)" stroke-width="2" data-block-id="0007" data-name="b-0008" /><text x="1050" y="2933" text-anchor="middle" dominant-baseline="middle" class="block-label" fill="rgb(52,1,87)" stroke="white" stroke-width="3" paint-order="stroke">b-0008</text><polygon points="600,2246 599,2247 590,2247 589,2248 547,2248 546,2247 543,2247 542,2248 522,2248 521,2249 520,2249 519,2248 477,2248 476,2249 473,2249 471,2251 470,2251 466,2255 466,2256 465,2257 465,2281 464,2282 464,2296 463,2297 463,2321 464,2322 464,2330 465,2331 465,2333 466,2334 466,2335 467,2336 467,2339 468,2340 468,2345 467,2346 467,2353 468,2354 468,2358 469,2359 469,2383 470,2384 470,2390 469,2391 469,2402 468,2403 468,2419 467,2420 467,2426 468,2427 468,2450 469,2451 469,2453 470,2454 470,2456 471,2457 471,2465 472,2466 472,2469 471,2470 471,2479 470,2480 470,2495 469,2496 469,2501 468,2502 468,2513 467,2514 467,2527 466,2528 466,2534 465,2535 465,2539 464,2540 464,2545 465,2546 465,2551 466,2552 466,2561 465,2562 465,2581 464,2582 464,2586 463,2587 463,2590 464,2591 464,2592 468,2596 469,2596 470,2597 471,2597 472,2598 474,2598 475,2599 483,2599 484,2600 485,2599 515,2599 516,2600 524,2600 525,2599 538,2599 539,2600 570,2600 571,2599 575,2599 576,2598 589,2598 590,2599 595,2599 596,2600 614,2600 615,2599 631,2599 632,2600 647,2600 648,2599 653,2599 654,2600 672,2600 673,2599 708,2599 709,2598 755,2598 756,2597 778,2597 779,2598 784,2598 785,2597 798,2597 799,2598 822,2598 823,2599 831,2599 832,2598 844,2598 845,2599 849,2599 850,2600 857,2600 858,2601 878,2601 879,2600 907,2600 908,2599 954,2599 955,2600 979,2600 980,2601 1004,2601 1005,2600 1054,2600 1055,2601 1144,2601 1145,2602 1242,2602 1243,2603 1288,2603 1289,2602 1338,2602 1339,2603 1374,2603 1375,2602 1379,2602 1380,2603 1399,2603 1400,2602 1413,2602 1414,2603 1471,2603 1472,2602 1506,2602 1507,2603 1514,2603 1515,2602 1555,2602 1556,2601 1557,2602 1624,2602 1625,2601 1648,2601 1649,2600 1654,2600 1655,2601 1705,2601 1706,2600 1711,2600 1712,2599 1714,2599 1718,2595 1718,2594 1719,2593 1719,2592 1720,2591 1720,2538 1719,2537 1719,2487 1718,2486 1718,2481 1719,2480 1719,2440 1718,2439 1718,2433 1719,2432 1719,2423 1720,2422 1720,2421 1719,2420 1719,2380 1720,2379 1720,2345 1719,2344 1719,2337 1720,2336 1720,2332 1721,2331 1721,2306 1722,2305 1722,2289 1723,2288 1723,2282 1724,2281 1724,2267 1723,2266 1723,2265 1722,2264 1722,2263 1720,2261 1720,2260 1717,2257 1716,2257 1714,2255 1713,2255 1712,2254 1706,2254 1705,2253 1672,2253 1671,2254 1668,2254 1667,2255 1664,2255 1663,2256 1662,2256 1661,2255 1653,2255 1652,2254 1639,2254 1638,2253 1633,2253 1632,2252 1609,2252 1608,2251 1598,2251 1597,2252 1564,2252 1563,2251 1552,2251 1551,2252 1514,2252 1513,2251 1508,2251 1507,2250 1460,2250 1459,2251 1455,2251 1454,2252 1421,2252 1420,2251 1413,2251 1412,2250 1411,2250 1410,2251 1399,2251 1398,2250 1328,2250 1327,2249 1322,2249 1321,2248 1313,2248 1312,2249 1306,2249 1305,2250 1297,2250 1296,2249 1283,2249 1282,2248 1278,2248 1277,2247 1253,2247 1252,2246 1245,2246 1244,2247 1242,2247 1241,2248 1237,2248 1236,2249 1230,2249 1229,2248 1209,2248 1208,2247 1197,2247 1196,2248 1192,2248 1191,2249 1181,2249 1180,2248 1170,2248 1169,2249 1147,2249 1146,2250 1125,2250 1124,2249 1089,2249 1088,2248 1049,2248 1048,2249 1044,2249 1043,2248 1036,2248 1035,2247 1027,2247 1026,2248 1016,2248 1015,2247 1011,2247 1010,2246 988,2246 987,2247 978,2247 977,2248 969,2248 968,2247 955,2247 954,2248 928,2248 927,2249 919,2249 918,2248 884,2248 883,2249 871,2249 870,2248 858,2248 857,2249 748,2249 747,2250 728,2250 727,2249 712,2249 711,2250 675,2250 674,2249 636,2249 635,2248 624,2248 623,2247 619,2247 618,2246" fill="rgba(235,157,37,0.3)" stroke="rgb(235,157,37)" stroke-width="2" data-block-id="0008" data-name="b-0009" /><text x="1030" y="2402" text-anchor="middle" dominant-baseline="middle" class="block-label" fill="rgb(235,157,37)" stroke="white" stroke-width="3" paint-order="stroke">b-0009</text><polygon points="2200,2244 2199,2245 2169,2245 2168,2246 2157,2246 2156,2247 2105,2247 2104,2246 2098,2246 2097,2245 2088,2245 2087,2246 2084,2246 2083,2247 2081,2247 2080,2248 2079,2248 2078,2249 2076,2249 2075,2250 2074,2250 2073,2251 2041,2251 2040,2252 2033,2252 2032,2251 2030,2251 2029,2250 2027,2250 2026,2249 2025,2249 2024,2248 2022,2248 2021,2247 2018,2247 2017,2246 2007,2246 2006,2247 2002,2247 2001,2248 1998,2248 1997,2249 1986,2249 1985,2248 1976,2248 1975,2247 1968,2247 1967,2248 1949,2248 1948,2247 1930,2247 1929,2248 1925,2248 1924,2249 1920,2249 1919,2250 1912,2250 1911,2251 1886,2251 1885,2252 1877,2252 1876,2253 1874,2253 1867,2260 1867,2261 1865,2263 1865,2266 1864,2267 1864,2272 1865,2273 1865,2279 1866,2280 1866,2297 1865,2298 1865,2337 1866,2338 1866,2356 1865,2357 1865,2384 1864,2385 1864,2391 1863,2392 1863,2397 1862,2398 1862,2419 1863,2420 1863,2433 1864,2434 1864,2460 1863,2461 1863,2468 1862,2469 1862,2475 1861,2476 1861,2507 1862,2508 1862,2515 1863,2516 1863,2523 1862,2524 1862,2534 1861,2535 1861,2552 1860,2553 1860,2573 1859,2574 1859,2576 1860,2577 1860,2582 1861,2583 1861,2585 1862,2586 1862,2588 1863,2589 1863,2591 1864,2592 1864,2594 1866,2596 1866,2597 1870,2601 1871,2601 1873,2603 1874,2603 1875,2604 1877,2604 1878,2605 1890,2605 1891,2606 1897,2606 1898,2605 1907,2605 1908,2604 1919,2604 1920,2605 1924,2605 1925,2606 1928,2606 1929,2607 1934,2607 1935,2608 1955,2608 1956,2609 1958,2609 1959,2608 1996,2608 1997,2609 2007,2609 2008,2610 2017,2610 2018,2609 2025,2609 2026,2608 2037,2608 2038,2609 2042,2609 2043,2610 2047,2610 2048,2611 2059,2611 2060,2610 2064,2610 2065,2609 2071,2609 2072,2608 2076,2608 2077,2609 2121,2609 2122,2610 2137,2610 2138,2609 2153,2609 2154,2608 2180,2608 2181,2609 2202,2609 2203,2610 2209,2610 2210,2609 2219,2609 2220,2608 2278,2608 2279,2607 2293,2607 2294,2606 2301,2606 2302,2605 2308,2605 2309,2606 2315,2606 2316,2607 2324,2607 2325,2608 2352,2608 2353,2609 2372,2609 2373,2608 2399,2608 2400,2609 2401,2608 2417,2608 2418,2607 2426,2607 2427,2608 2449,2608 2450,2607 2458,2607 2459,2606 2464,2606 2465,2607 2495,2607 2496,2606 2509,2606 2510,2605 2555,2605 2556,2604 2561,2604 2562,2603 2565,2603 2566,2602 2570,2602 2571,2601 2577,2601 2578,2600 2584,2600 2585,2599 2589,2599 2590,2598 2594,2598 2595,2597 2605,2597 2606,2598 2617,2598 2618,2599 2623,2599 2624,2600 2629,2600 2630,2601 2643,2601 2644,2602 2662,2602 2663,2601 2677,2601 2678,2602 2686,2602 2687,2603 2697,2603 2698,2604 2704,2604 2705,2605 2710,2605 2711,2606 2723,2606 2724,2605 2743,2605 2744,2606 2753,2606 2754,2605 2759,2605 2760,2604 2768,2604 2769,2603 2778,2603 2779,2604 2796,2604 2797,2605 2848,2605 2849,2604 2862,2604 2863,2605 2889,2605 2890,2606 2903,2606 2904,2607 2911,2607 2912,2606 2921,2606 2922,2605 2960,2605 2961,2606 3082,2606 3083,2605 3087,2605 3088,2604 3090,2604 3091,2603 3092,2603 3093,2602 3094,2602 3095,2601 3096,2601 3099,2598 3099,2597 3100,2596 3100,2595 3101,2594 3101,2591 3102,2590 3102,2586 3103,2585 3103,2577 3104,2576 3104,2574 3103,2573 3103,2553 3104,2552 3104,2503 3105,2502 3105,2479 3104,2478 3104,2451 3103,2450 3103,2430 3104,2429 3104,2415 3103,2414 3103,2358 3104,2357 3104,2316 3103,2315 3103,2300 3104,2299 3104,2292 3105,2291 3105,2283 3104,2282 3104,2278 3103,2277 3103,2273 3102,2272 3102,2269 3100,2267 3100,2266 3098,2264 3097,2264 3096,2263 3094,2263 3093,2262 3091,2262 3090,2261 3087,2261 3086,2260 3063,2260 3062,2259 3039,2259 3038,2258 3028,2258 3027,2257 3011,2257 3010,2256 3002,2256 3001,2257 2989,2257 2988,2258 2987,2258 2986,2257 2976,2257 2975,2256 2968,2256 2967,2255 2961,2255 2960,2256 2919,2256 2918,2257 2896,2257 2895,2256 2885,2256 2884,2255 2877,2255 2876,2254 2845,2254 2844,2253 2839,2253 2838,2252 2818,2252 2817,2253 2798,2253 2797,2254 2778,2254 2777,2253 2763,2253 2762,2252 2726,2252 2725,2251 2717,2251 2716,2250 2710,2250 2709,2251 2704,2251 2703,2252 2698,2252 2697,2253 2689,2253 2688,2252 2681,2252 2680,2251 2672,2251 2671,2250 2660,2250 2659,2249 2651,2249 2650,2248 2643,2248 2642,2247 2631,2247 2630,2248 2626,2248 2625,2249 2622,2249 2621,2250 2619,2250 2618,2251 2616,2251 2615,2252 2611,2252 2610,2253 2605,2253 2604,2254 2600,2254 2599,2255 2594,2255 2593,2254 2588,2254 2587,2253 2580,2253 2579,2252 2557,2252 2556,2253 2553,2253 2552,2254 2548,2254 2547,2255 2544,2255 2543,2256 2523,2256 2522,2255 2475,2255 2474,2256 2468,2256 2467,2257 2453,2257 2452,2256 2446,2256 2445,2255 2418,2255 2417,2254 2414,2254 2413,2253 2410,2253 2409,2252 2405,2252 2404,2251 2399,2251 2398,2252 2394,2252 2393,2253 2390,2253 2389,2254 2378,2254 2377,2253 2375,2253 2374,2252 2372,2252 2371,2251 2369,2251 2368,2250 2366,2250 2365,2249 2351,2249 2350,2250 2343,2250 2342,2249 2337,2249 2336,2248 2331,2248 2330,2247 2322,2247 2321,2248 2318,2248 2317,2249 2316,2249 2315,2250 2313,2250 2312,2251 2311,2251 2310,2252 2309,2252 2308,2253 2300,2253 2299,2252 2297,2252 2296,2251 2294,2251 2293,2250 2290,2250 2289,2249 2273,2249 2272,2250 2263,2250 2262,2249 2258,2249 2257,2248 2252,2248 2251,2247 2243,2247 2242,2248 2237,2248 2236,2249 2232,2249 2231,2250 2226,2250 2225,2249 2223,2249 2222,2248 2220,2248 2219,2247 2217,2247 2216,2246 2214,2246 2213,2245 2210,2245 2209,2244" fill="rgba(129,191,187,0.3)" stroke="rgb(129,191,187)" stroke-width="2" data-block-id="0009" data-name="b-0010" /><text x="2424" y="2404" text-anchor="middle" dominant-baseline="middle" class="block-label" fill="rgb(129,191,187)" stroke="white" stroke-width="3" paint-order="stroke">b-0010</text><polygon points="4245,2244 4244,2245 4241,2245 4241,2247 4242,2248 4242,2249 4243,2250 4243,2251 4244,2252 4244,2254 4242,2256 4241,2256 4240,2257 4239,2257 4238,2258 4225,2258 4224,2257 4223,2257 4222,2258 4219,2258 4218,2259 4217,2259 4216,2260 4214,2260 4213,2261 4211,2261 4210,2262 4197,2262 4196,2261 4193,2261 4192,2260 4188,2260 4187,2259 4168,2259 4167,2260 4149,2260 4148,2261 4143,2261 4142,2262 4134,2262 4133,2261 4130,2261 4129,2260 4122,2260 4121,2259 4083,2259 4082,2258 4078,2258 4077,2259 4072,2259 4071,2260 4049,2260 4048,2261 4028,2261 4027,2260 4019,2260 4018,2259 4011,2259 4010,2258 3993,2258 3992,2257 3982,2257 3981,2258 3979,2258 3978,2259 3975,2259 3974,2260 3969,2260 3968,2261 3964,2261 3963,2262 3957,2262 3956,2261 3955,2261 3954,2260 3950,2260 3949,2259 3939,2259 3938,2260 3930,2260 3929,2259 3917,2259 3916,2260 3856,2260 3855,2259 3835,2259 3834,2260 3828,2260 3827,2261 3824,2261 3823,2262 3822,2262 3821,2263 3820,2263 3819,2264 3815,2264 3813,2262 3812,2262 3811,2261 3810,2261 3809,2260 3807,2260 3806,2259 3795,2259 3794,2260 3786,2260 3785,2259 3748,2259 3747,2260 3746,2260 3745,2259 3736,2259 3735,2258 3730,2258 3729,2259 3723,2259 3722,2260 3721,2260 3720,2259 3717,2259 3716,2258 3712,2258 3711,2257 3692,2257 3691,2258 3675,2258 3674,2259 3671,2259 3670,2258 3656,2258 3655,2259 3644,2259 3643,2260 3639,2260 3638,2261 3635,2261 3634,2262 3632,2262 3631,2263 3628,2263 3627,2264 3622,2264 3621,2263 3619,2263 3618,2262 3614,2262 3613,2261 3609,2261 3608,2260 3604,2260 3603,2259 3597,2259 3596,2260 3590,2260 3589,2261 3585,2261 3584,2262 3570,2262 3569,2261 3511,2261 3510,2260 3488,2260 3487,2259 3479,2259 3478,2260 3472,2260 3471,2261 3462,2261 3461,2262 3459,2262 3458,2261 3455,2261 3454,2260 3453,2260 3452,2259 3451,2259 3450,2258 3449,2258 3447,2256 3445,2256 3444,2255 3421,2255 3420,2256 3417,2256 3416,2257 3412,2257 3411,2258 3405,2258 3404,2257 3391,2257 3390,2258 3373,2258 3372,2259 3364,2259 3363,2260 3356,2260 3355,2261 3342,2261 3341,2260 3321,2260 3320,2261 3313,2261 3312,2260 3310,2260 3309,2259 3307,2259 3306,2258 3303,2258 3302,2257 3300,2257 3299,2258 3251,2258 3250,2259 3231,2259 3230,2260 3226,2260 3225,2261 3223,2261 3222,2262 3220,2262 3218,2264 3218,2265 3217,2266 3217,2267 3216,2268 3216,2273 3215,2274 3215,2285 3216,2286 3216,2305 3215,2306 3215,2311 3214,2312 3214,2324 3215,2325 3215,2328 3214,2329 3214,2350 3215,2351 3215,2353 3214,2354 3214,2368 3213,2369 3213,2434 3214,2435 3214,2452 3215,2453 3215,2459 3216,2460 3215,2461 3215,2471 3214,2472 3214,2473 3215,2474 3215,2500 3216,2501 3216,2513 3215,2514 3215,2550 3216,2551 3216,2562 3217,2563 3217,2592 3218,2593 3218,2595 3220,2597 3220,2598 3222,2600 3223,2600 3224,2601 3226,2601 3227,2602 3229,2602 3230,2603 3235,2603 3236,2604 3242,2604 3243,2605 3265,2605 3266,2606 3271,2606 3272,2605 3297,2605 3298,2606 3308,2606 3309,2605 3330,2605 3331,2606 3332,2606 3333,2607 3334,2607 3335,2608 3336,2608 3337,2609 3339,2609 3340,2610 3341,2609 3345,2609 3346,2608 3365,2608 3366,2607 3369,2607 3370,2606 3374,2606 3375,2605 3382,2605 3383,2604 3391,2604 3392,2605 3399,2605 3400,2606 3403,2606 3404,2607 3406,2607 3407,2608 3408,2608 3409,2609 3424,2609 3425,2608 3428,2608 3429,2607 3433,2607 3434,2606 3469,2606 3470,2607 3495,2607 3496,2606 3500,2606 3501,2605 3510,2605 3511,2604 3528,2604 3529,2605 3546,2605 3547,2606 3560,2606 3561,2605 3576,2605 3577,2606 3590,2606 3591,2607 3593,2607 3594,2608 3595,2608 3596,2609 3598,2609 3599,2610 3605,2610 3606,2609 3609,2609 3610,2608 3612,2608 3613,2607 3615,2607 3616,2606 3618,2606 3619,2605 3622,2605 3623,2604 3628,2604 3629,2605 3634,2605 3635,2606 3646,2606 3647,2605 3648,2605 3649,2606 3656,2606 3657,2607 3687,2607 3688,2606 3773,2606 3774,2605 3805,2605 3806,2606 3885,2606 3886,2607 3890,2607 3891,2606 3979,2606 3980,2607 3986,2607 3987,2606 4025,2606 4026,2607 4038,2607 4039,2606 4044,2606 4045,2607 4087,2607 4088,2606 4098,2606 4099,2605 4103,2605 4104,2604 4105,2605 4113,2605 4114,2606 4122,2606 4123,2607 4142,2607 4143,2606 4146,2606 4147,2605 4154,2605 4155,2606 4158,2606 4159,2607 4163,2607 4164,2608 4166,2608 4167,2609 4170,2609 4171,2610 4184,2610 4185,2609 4191,2609 4192,2608 4218,2608 4219,2609 4225,2609 4226,2608 4261,2608 4262,2609 4276,2609 4277,2608 4287,2608 4288,2609 4293,2609 4294,2610 4320,2610 4321,2609 4374,2609 4375,2608 4385,2608 4386,2607 4403,2607 4404,2606 4407,2606 4408,2605 4412,2605 4413,2604 4421,2604 4422,2603 4431,2603 4432,2602 4438,2602 4439,2601 4444,2601 4445,2600 4448,2600 4451,2597 4452,2597 4454,2595 4456,2595 4457,2594 4459,2594 4460,2593 4470,2593 4471,2592 4473,2592 4477,2588 4477,2583 4478,2582 4478,2577 4477,2576 4477,2571 4476,2570 4476,2567 4475,2566 4475,2564 4476,2563 4476,2547 4477,2546 4477,2534 4478,2533 4478,2531 4477,2530 4477,2524 4476,2523 4476,2517 4475,2516 4475,2503 4474,2502 4474,2497 4473,2496 4473,2482 4472,2481 4472,2479 4471,2478 4471,2477 4467,2473 4467,2472 4466,2471 4466,2470 4460,2464 4459,2464 4458,2463 4458,2462 4457,2461 4457,2460 4456,2459 4456,2455 4457,2454 4457,2445 4455,2443 4455,2442 4454,2441 4454,2439 4453,2438 4453,2436 4452,2435 4452,2433 4451,2432 4451,2430 4450,2429 4450,2428 4449,2427 4449,2425 4448,2424 4448,2418 4449,2417 4449,2411 4450,2410 4450,2402 4451,2401 4451,2398 4452,2397 4452,2394 4453,2393 4453,2386 4452,2385 4452,2384 4451,2383 4451,2382 4450,2381 4450,2380 4449,2379 4449,2378 4448,2377 4448,2372 4449,2371 4449,2369 4450,2368 4450,2362 4451,2361 4451,2350 4452,2349 4452,2346 4453,2345 4453,2335 4452,2334 4452,2330 4451,2329 4451,2325 4450,2324 4450,2320 4449,2319 4449,2318 4448,2317 4448,2310 4449,2309 4449,2298 4448,2297 4448,2292 4447,2291 4447,2290 4446,2289 4446,2288 4445,2287 4445,2286 4444,2285 4444,2284 4443,2283 4443,2281 4442,2280 4442,2277 4441,2276 4441,2274 4440,2273 4440,2272 4439,2271 4439,2270 4438,2269 4438,2267 4437,2266 4437,2264 4436,2263 4436,2262 4433,2259 4432,2259 4431,2258 4429,2258 4428,2257 4425,2257 4424,2256 4406,2256 4405,2257 4394,2257 4393,2258 4387,2258 4386,2257 4383,2257 4382,2256 4357,2256 4356,2257 4341,2257 4340,2256 4336,2256 4335,2255 4331,2255 4330,2254 4321,2254 4320,2255 4316,2255 4315,2256 4314,2256 4313,2257 4311,2257 4310,2258 4308,2258 4307,2259 4301,2259 4300,2260 4294,2260 4293,2261 4289,2261 4288,2262 4284,2262 4283,2263 4282,2262 4278,2262 4277,2261 4275,2261 4274,2260 4273,2260 4272,2259 4269,2259 4268,2258 4265,2258 4264,2257 4262,2257 4261,2256 4259,2256 4258,2255 4256,2255 4255,2254 4255,2246 4254,2246 4253,2245 4248,2245 4247,2244" fill="rgba(20,160,203,0.3)" stroke="rgb(20,160,203)" stroke-width="2" data-block-id="0010" data-name="b-0011" /><text x="3927" y="2401" text-anchor="middle" dominant-baseline="middle" class="block-label" fill="rgb(20,160,203)" stroke="white" stroke-width="3" paint-order="stroke">b-0011</text><polygon points="660,1784 659,1785 658,1785 657,1786 656,1786 655,1787 653,1787 652,1788 648,1788 647,1789 642,1789 641,1790 612,1790 611,1791 601,1791 600,1792 594,1792 593,1793 583,1793 582,1792 575,1792 574,1791 569,1791 568,1790 540,1790 539,1789 497,1789 496,1788 483,1788 482,1789 480,1789 479,1790 478,1790 476,1792 476,1793 475,1794 475,1795 474,1796 474,1798 473,1799 473,1801 472,1802 472,1805 473,1806 473,1827 472,1828 472,1829 471,1830 471,1832 470,1833 470,1835 469,1836 469,1844 470,1845 470,1862 471,1863 471,1906 472,1907 472,1923 471,1924 471,1928 470,1929 470,1939 471,1940 471,1947 472,1948 472,1952 473,1953 473,1956 474,1957 474,1970 475,1971 475,1983 474,1984 474,1992 473,1993 473,1995 472,1996 472,1997 471,1998 471,1999 470,2000 470,2002 469,2003 469,2012 470,2013 470,2020 469,2021 469,2041 470,2042 470,2090 469,2091 469,2094 468,2095 468,2112 469,2113 469,2114 470,2115 470,2116 471,2117 471,2118 472,2119 472,2120 473,2121 473,2123 477,2127 479,2127 480,2128 482,2128 483,2129 515,2129 516,2130 575,2130 576,2131 620,2131 621,2130 629,2130 630,2131 642,2131 643,2132 648,2132 649,2133 656,2133 657,2132 665,2132 666,2133 683,2133 684,2132 692,2132 693,2131 705,2131 706,2132 730,2132 731,2131 733,2131 734,2132 739,2132 740,2133 746,2133 747,2134 748,2133 832,2133 833,2134 838,2134 839,2135 851,2135 852,2134 861,2134 862,2133 949,2133 950,2134 1001,2134 1002,2133 1017,2133 1018,2134 1021,2134 1022,2133 1038,2133 1039,2134 1047,2134 1048,2135 1074,2135 1075,2134 1099,2134 1100,2135 1117,2135 1118,2136 1135,2136 1136,2135 1159,2135 1160,2136 1165,2136 1166,2135 1173,2135 1174,2134 1179,2134 1180,2135 1203,2135 1204,2136 1219,2136 1220,2135 1229,2135 1230,2136 1245,2136 1246,2137 1253,2137 1254,2138 1268,2138 1269,2137 1277,2137 1278,2136 1294,2136 1295,2137 1323,2137 1324,2138 1349,2138 1350,2139 1371,2139 1372,2138 1404,2138 1405,2137 1418,2137 1419,2138 1431,2138 1432,2139 1438,2139 1439,2140 1447,2140 1448,2141 1463,2141 1464,2140 1470,2140 1471,2139 1500,2139 1501,2138 1525,2138 1526,2139 1532,2139 1533,2140 1536,2140 1537,2141 1541,2141 1542,2142 1552,2142 1553,2141 1559,2141 1560,2140 1565,2140 1566,2139 1577,2139 1578,2140 1605,2140 1606,2139 1648,2139 1649,2140 1657,2140 1658,2141 1686,2141 1687,2140 1693,2140 1694,2139 1713,2139 1714,2138 1715,2138 1717,2136 1718,2136 1719,2135 1719,2134 1721,2132 1721,2131 1722,2130 1722,2129 1723,2128 1723,2126 1724,2125 1724,2121 1725,2120 1725,2106 1724,2105 1724,2098 1723,2097 1723,2070 1724,2069 1724,1986 1725,1985 1725,1959 1726,1958 1726,1936 1725,1935 1725,1931 1726,1930 1726,1850 1727,1849 1727,1831 1728,1830 1728,1814 1727,1813 1727,1809 1726,1808 1726,1803 1725,1802 1725,1801 1722,1798 1720,1798 1719,1797 1717,1797 1716,1796 1712,1796 1711,1795 1703,1795 1702,1796 1701,1795 1698,1795 1697,1794 1696,1794 1695,1793 1694,1793 1693,1792 1692,1792 1691,1791 1689,1791 1688,1790 1685,1790 1684,1791 1680,1791 1679,1792 1673,1792 1672,1791 1667,1791 1666,1790 1665,1790 1664,1791 1660,1791 1659,1792 1657,1792 1656,1793 1654,1793 1653,1794 1650,1794 1649,1795 1644,1795 1643,1796 1632,1796 1631,1795 1617,1795 1616,1794 1611,1794 1610,1793 1607,1793 1606,1792 1603,1792 1602,1791 1596,1791 1595,1790 1588,1790 1587,1791 1580,1791 1579,1792 1575,1792 1574,1793 1569,1793 1568,1794 1566,1794 1565,1793 1539,1793 1538,1794 1530,1794 1529,1793 1527,1793 1526,1792 1525,1792 1524,1791 1523,1791 1522,1790 1518,1790 1517,1791 1513,1791 1512,1792 1502,1792 1501,1791 1496,1791 1495,1792 1493,1792 1492,1793 1490,1793 1489,1794 1486,1794 1485,1795 1480,1795 1479,1794 1442,1794 1441,1795 1438,1795 1437,1794 1433,1794 1432,1793 1431,1793 1430,1792 1429,1792 1428,1791 1426,1791 1425,1790 1423,1790 1422,1791 1418,1791 1417,1792 1406,1792 1405,1791 1401,1791 1400,1792 1398,1792 1397,1793 1395,1793 1394,1794 1392,1794 1391,1795 1385,1795 1384,1794 1351,1794 1350,1793 1335,1793 1334,1792 1323,1792 1322,1791 1316,1791 1315,1790 1310,1790 1309,1789 1304,1789 1303,1790 1300,1790 1299,1791 1274,1791 1273,1792 1249,1792 1248,1793 1247,1792 1242,1792 1241,1791 1237,1791 1236,1790 1206,1790 1205,1791 1201,1791 1200,1792 1196,1792 1195,1793 1168,1793 1167,1792 1149,1792 1148,1791 1146,1791 1145,1790 1143,1790 1142,1789 1139,1789 1138,1788 1137,1788 1136,1789 1116,1789 1115,1790 1112,1790 1111,1791 1108,1791 1107,1792 1105,1792 1104,1793 1084,1793 1083,1792 1064,1792 1063,1791 1060,1791 1059,1790 1057,1790 1056,1789 1046,1789 1045,1788 1042,1788 1041,1789 1027,1789 1026,1790 1019,1790 1018,1791 1001,1791 1000,1792 994,1792 993,1791 975,1791 974,1792 972,1792 971,1791 969,1791 968,1790 966,1790 965,1789 964,1789 963,1788 962,1788 961,1787 959,1787 958,1786 957,1787 939,1787 938,1786 937,1787 933,1787 932,1788 930,1788 929,1789 928,1789 927,1790 921,1790 920,1789 919,1789 918,1788 916,1788 915,1787 914,1787 913,1786 904,1786 903,1787 888,1787 887,1788 885,1788 884,1789 882,1789 881,1790 879,1790 878,1791 874,1791 873,1790 871,1790 870,1789 868,1789 866,1787 864,1787 863,1786 860,1786 859,1785 849,1785 848,1786 844,1786 843,1787 839,1787 838,1788 836,1788 835,1789 832,1789 831,1790 802,1790 801,1789 786,1789 785,1788 780,1788 779,1787 775,1787 774,1786 771,1786 770,1785 755,1785 754,1786 744,1786 743,1787 740,1787 739,1788 733,1788 732,1789 731,1788 713,1788 712,1787 687,1787 686,1786 670,1786 669,1785 665,1785 664,1784" fill="rgba(57,21,252,0.3)" stroke="rgb(57,21,252)" stroke-width="2" data-block-id="0011" data-name="b-0012" /><text x="1105" y="1911" text-anchor="middle" dominant-baseline="middle" class="block-label" fill="rgb(57,21,252)" stroke="white" stroke-width="3" paint-order="stroke">b-0012</text><polygon points="2594,2702 2593,2703 2560,2703 2559,2704 2549,2704 2548,2705 2502,2705 2501,2706 2491,2706 2490,2707 2480,2707 2479,2708 2464,2708 2463,2709 2414,2709 2413,2710 2400,2710 2399,2711 2339,2711 2338,2710 2313,2710 2312,2711 2250,2711 2249,2710 2220,2710 2219,2711 2210,2711 2209,2712 2166,2712 2165,2713 2128,2713 2127,2712 2106,2712 2105,2713 2030,2713 2029,2712 2010,2712 2009,2711 1992,2711 1991,2710 1959,2710 1958,2711 1890,2711 1889,2710 1875,2710 1874,2711 1872,2711 1871,2712 1869,2712 1866,2715 1865,2715 1865,2716 1863,2718 1863,2720 1862,2721 1862,2724 1861,2725 1861,2730 1860,2731 1860,2744 1861,2745 1861,2788 1860,2789 1860,2805 1859,2806 1859,2820 1860,2821 1860,2887 1859,2888 1859,2892 1860,2893 1860,2919 1861,2920 1861,2931 1860,2932 1860,2941 1859,2942 1859,2986 1860,2987 1860,3010 1859,3011 1859,3021 1858,3022 1858,3026 1859,3027 1859,3032 1860,3033 1860,3037 1861,3038 1861,3042 1862,3043 1862,3045 1863,3046 1863,3047 1865,3049 1865,3050 1866,3050 1869,3053 1870,3053 1871,3054 1873,3054 1874,3055 1877,3055 1878,3056 1885,3056 1886,3057 1893,3057 1894,3058 1901,3058 1902,3057 1926,3057 1927,3058 1980,3058 1981,3059 2017,3059 2018,3058 2024,3058 2025,3057 2043,3057 2044,3058 2064,3058 2065,3057 2071,3057 2072,3058 2077,3058 2078,3059 2082,3059 2083,3060 2087,3060 2088,3061 2103,3061 2104,3060 2120,3060 2121,3061 2132,3061 2133,3060 2138,3060 2139,3059 2145,3059 2146,3058 2163,3058 2164,3059 2172,3059 2173,3060 2180,3060 2181,3061 2196,3061 2197,3060 2205,3060 2206,3059 2214,3059 2215,3058 2231,3058 2232,3057 2244,3057 2245,3058 2249,3058 2250,3059 2252,3059 2253,3060 2255,3060 2256,3061 2258,3061 2259,3062 2262,3062 2263,3063 2284,3063 2285,3062 2288,3062 2289,3061 2290,3061 2291,3060 2293,3060 2294,3059 2297,3059 2298,3058 2301,3058 2302,3057 2327,3057 2328,3058 2353,3058 2354,3059 2367,3059 2368,3058 2375,3058 2376,3057 2425,3057 2426,3058 2434,3058 2435,3059 2440,3059 2441,3060 2464,3060 2465,3059 2468,3059 2469,3058 2472,3058 2473,3057 2476,3057 2477,3056 2482,3056 2483,3055 2518,3055 2519,3054 2560,3054 2561,3053 2565,3053 2566,3052 2570,3052 2571,3051 2575,3051 2576,3050 2583,3050 2584,3049 2592,3049 2593,3048 2617,3048 2618,3049 2625,3049 2626,3050 2634,3050 2635,3051 2651,3051 2652,3052 2667,3052 2668,3053 2678,3053 2679,3054 2683,3054 2684,3055 2688,3055 2689,3056 2705,3056 2706,3055 2718,3055 2719,3056 2726,3056 2727,3057 2739,3057 2740,3056 2749,3056 2750,3055 2755,3055 2756,3056 2766,3056 2767,3057 2788,3057 2789,3056 2796,3056 2797,3055 2801,3055 2802,3054 2806,3054 2807,3053 2819,3053 2820,3054 2830,3054 2831,3055 2840,3055 2841,3056 2848,3056 2849,3057 2862,3057 2863,3058 2876,3058 2877,3057 2889,3057 2890,3056 2897,3056 2898,3055 2904,3055 2905,3054 2937,3054 2938,3055 2945,3055 2946,3056 2950,3056 2951,3057 2955,3057 2956,3058 2963,3058 2964,3059 2970,3059 2971,3058 3012,3058 3013,3057 3032,3057 3033,3058 3038,3058 3039,3059 3044,3059 3045,3060 3067,3060 3068,3059 3083,3059 3084,3058 3087,3058 3088,3057 3089,3057 3090,3056 3092,3056 3093,3055 3094,3055 3096,3053 3097,3053 3098,3052 3099,3052 3100,3051 3100,3050 3101,3049 3101,3048 3102,3047 3102,3045 3103,3044 3103,3040 3104,3039 3104,3032 3105,3031 3105,3011 3104,3010 3104,3000 3105,2999 3105,2983 3104,2982 3104,2973 3103,2972 3103,2950 3102,2949 3102,2942 3101,2941 3101,2935 3100,2934 3100,2918 3101,2917 3101,2908 3102,2907 3102,2889 3103,2888 3103,2861 3102,2860 3102,2843 3103,2842 3103,2835 3104,2834 3104,2822 3103,2821 3103,2786 3102,2785 3102,2760 3103,2759 3103,2733 3102,2732 3102,2730 3101,2729 3101,2727 3100,2726 3100,2725 3099,2724 3098,2724 3096,2722 3095,2722 3094,2721 3092,2721 3091,2720 3089,2720 3088,2719 3085,2719 3084,2718 3062,2718 3061,2717 3015,2717 3014,2716 2995,2716 2994,2715 2969,2715 2968,2716 2955,2716 2954,2717 2951,2717 2950,2718 2946,2718 2945,2719 2944,2719 2942,2717 2941,2717 2940,2716 2939,2716 2938,2715 2936,2715 2935,2714 2934,2714 2933,2713 2931,2713 2930,2712 2897,2712 2896,2711 2886,2711 2885,2712 2878,2712 2877,2713 2864,2713 2863,2712 2851,2712 2850,2711 2838,2711 2837,2710 2826,2710 2825,2709 2808,2709 2807,2710 2797,2710 2796,2711 2760,2711 2759,2712 2749,2712 2748,2711 2745,2711 2744,2710 2739,2710 2738,2709 2725,2709 2724,2710 2717,2710 2716,2711 2709,2711 2708,2710 2698,2710 2697,2709 2685,2709 2684,2708 2657,2708 2656,2707 2635,2707 2634,2706 2629,2706 2628,2705 2624,2705 2623,2704 2620,2704 2619,2703 2615,2703 2614,2702" fill="rgba(235,88,48,0.3)" stroke="rgb(235,88,48)" stroke-width="2" data-block-id="0012" data-name="b-0013" /><text x="2541" y="2918" text-anchor="middle" dominant-baseline="middle" class="block-label" fill="rgb(235,88,48)" stroke="white" stroke-width="3" paint-order="stroke">b-0013</text><polygon points="3350,2715 3349,2716 3343,2716 3342,2717 3309,2717 3308,2716 3246,2716 3245,2717 3233,2717 3232,2718 3227,2718 3226,2719 3224,2719 3223,2720 3222,2720 3221,2721 3221,2722 3220,2723 3220,2727 3219,2728 3219,2734 3218,2735 3218,2797 3219,2798 3219,2808 3218,2809 3218,2823 3219,2824 3219,2832 3220,2833 3220,2837 3221,2838 3221,2844 3222,2845 3222,2854 3221,2855 3221,2866 3220,2867 3220,2934 3219,2935 3219,2963 3220,2964 3220,2977 3219,2978 3219,2983 3218,2984 3218,2987 3219,2988 3219,3003 3220,3004 3220,3016 3221,3017 3221,3031 3222,3032 3222,3046 3223,3047 3223,3048 3227,3052 3228,3052 3229,3053 3231,3053 3232,3054 3236,3054 3237,3055 3240,3055 3241,3056 3248,3056 3249,3057 3260,3057 3261,3056 3298,3056 3299,3057 3308,3057 3309,3056 3333,3056 3334,3055 3347,3055 3348,3054 3349,3054 3350,3055 3353,3055 3354,3056 3356,3056 3357,3057 3358,3057 3359,3058 3362,3058 3363,3059 3371,3059 3372,3060 3381,3060 3382,3059 3397,3059 3398,3058 3401,3058 3402,3057 3404,3057 3405,3056 3407,3056 3408,3055 3410,3055 3411,3054 3416,3054 3417,3055 3432,3055 3433,3056 3454,3056 3455,3057 3476,3057 3477,3058 3491,3058 3492,3057 3499,3057 3500,3056 3517,3056 3518,3055 3544,3055 3545,3056 3608,3056 3609,3057 3619,3057 3620,3056 3639,3056 3640,3057 3645,3057 3646,3058 3745,3058 3746,3059 3783,3059 3784,3060 3789,3060 3790,3061 3799,3061 3800,3060 3807,3060 3808,3059 3811,3059 3812,3058 3817,3058 3818,3057 3819,3058 3848,3058 3849,3059 3880,3059 3881,3060 3894,3060 3895,3059 3901,3059 3902,3060 3907,3060 3908,3061 3921,3061 3922,3062 3926,3062 3927,3061 3950,3061 3951,3060 3971,3060 3972,3061 3975,3061 3976,3062 3978,3062 3979,3063 3980,3063 3981,3064 3983,3064 3984,3065 3994,3065 3995,3064 3997,3064 3999,3062 4001,3062 4002,3061 4003,3061 4004,3060 4007,3060 4008,3059 4009,3059 4010,3060 4016,3060 4017,3061 4044,3061 4045,3062 4049,3062 4050,3063 4079,3063 4080,3062 4097,3062 4098,3061 4120,3061 4121,3062 4171,3062 4172,3063 4183,3063 4184,3062 4214,3062 4215,3063 4218,3063 4219,3064 4224,3064 4225,3063 4227,3063 4228,3062 4230,3062 4231,3061 4239,3061 4240,3062 4246,3062 4247,3063 4278,3063 4279,3064 4283,3064 4284,3063 4295,3063 4296,3062 4303,3062 4304,3061 4305,3061 4306,3062 4310,3062 4311,3063 4316,3063 4317,3064 4349,3064 4350,3063 4365,3063 4366,3062 4371,3062 4372,3061 4377,3061 4378,3060 4381,3060 4382,3059 4384,3059 4385,3058 4387,3058 4388,3057 4389,3057 4390,3056 4391,3056 4392,3055 4393,3055 4395,3053 4395,3050 4396,3049 4396,3031 4395,3030 4395,3027 4394,3026 4394,3023 4393,3022 4393,3019 4392,3018 4392,3014 4391,3013 4391,3011 4390,3010 4390,3003 4389,3002 4389,2994 4388,2993 4388,2989 4387,2988 4387,2969 4386,2968 4386,2963 4385,2962 4385,2955 4384,2954 4384,2938 4383,2937 4383,2930 4382,2929 4382,2923 4381,2922 4381,2917 4380,2916 4380,2913 4379,2912 4379,2909 4378,2908 4378,2906 4377,2905 4377,2903 4376,2902 4376,2899 4375,2898 4375,2896 4374,2895 4374,2893 4373,2892 4373,2891 4372,2890 4372,2875 4371,2874 4371,2862 4370,2861 4370,2856 4369,2855 4369,2846 4368,2845 4368,2839 4367,2838 4367,2830 4366,2829 4366,2825 4365,2824 4365,2821 4364,2820 4364,2818 4363,2817 4363,2812 4362,2811 4362,2805 4361,2804 4361,2796 4360,2795 4360,2777 4359,2776 4359,2768 4358,2767 4358,2752 4357,2751 4357,2744 4356,2743 4356,2733 4355,2732 4355,2731 4351,2727 4349,2727 4348,2726 4347,2726 4346,2725 4344,2725 4343,2724 4341,2724 4340,2723 4336,2723 4335,2722 4315,2722 4314,2721 4311,2721 4310,2720 4306,2720 4305,2719 4301,2719 4300,2718 4263,2718 4262,2719 4203,2719 4202,2720 4181,2720 4180,2721 4166,2721 4165,2720 4150,2720 4149,2719 4130,2719 4129,2720 4126,2720 4125,2719 4092,2719 4091,2720 4087,2720 4086,2719 4030,2719 4029,2720 4001,2720 4000,2719 3988,2719 3987,2720 3978,2720 3977,2721 3967,2721 3966,2720 3956,2720 3955,2719 3938,2719 3937,2720 3934,2720 3933,2719 3915,2719 3914,2720 3909,2720 3908,2719 3847,2719 3846,2720 3843,2720 3842,2721 3839,2721 3838,2720 3835,2720 3834,2719 3829,2719 3828,2718 3825,2718 3824,2719 3810,2719 3809,2718 3800,2718 3799,2719 3750,2719 3749,2720 3740,2720 3739,2719 3735,2719 3734,2718 3725,2718 3724,2719 3718,2719 3717,2718 3701,2718 3700,2719 3695,2719 3694,2718 3691,2718 3690,2717 3672,2717 3671,2718 3598,2718 3597,2717 3583,2717 3582,2718 3573,2718 3572,2717 3565,2717 3564,2716 3562,2716 3561,2717 3535,2717 3534,2718 3526,2718 3525,2717 3500,2717 3499,2716 3493,2716 3492,2717 3485,2717 3484,2718 3456,2718 3455,2717 3450,2717 3449,2716 3425,2716 3424,2715 3404,2715 3403,2716 3373,2716 3372,2715" fill="rgba(218,58,254,0.3)" stroke="rgb(218,58,254)" stroke-width="2" data-block-id="0013" data-name="b-0014" /><text x="3874" y="2909" text-anchor="middle" dominant-baseline="middle" class="block-label" fill="rgb(218,58,254)" stroke="white" stroke-width="3" paint-order="stroke">b-0014</text><polygon points="3264,1802 3263,1803 3255,1803 3254,1804 3253,1804 3252,1803 3239,1803 3238,1804 3221,1804 3220,1805 3219,1805 3216,1808 3216,1809 3215,1810 3215,1811 3214,1812 3214,1840 3215,1841 3215,1871 3214,1872 3215,1873 3215,1931 3216,1932 3215,1933 3215,1962 3214,1963 3214,1994 3215,1995 3215,2007 3216,2008 3216,2038 3215,2039 3215,2072 3216,2073 3216,2079 3215,2080 3215,2129 3214,2130 3214,2139 3215,2140 3215,2142 3216,2143 3216,2144 3218,2146 3218,2147 3220,2147 3221,2148 3231,2148 3232,2149 3358,2149 3359,2150 3369,2150 3370,2151 3391,2151 3392,2150 3459,2150 3460,2151 3475,2151 3476,2150 3535,2150 3536,2151 3569,2151 3570,2152 3616,2152 3617,2151 3653,2151 3654,2150 3667,2150 3668,2151 3690,2151 3691,2152 3694,2152 3695,2153 3706,2153 3707,2152 3712,2152 3713,2153 3720,2153 3721,2152 3725,2152 3726,2151 3729,2151 3730,2150 3740,2150 3741,2149 3760,2149 3761,2150 3797,2150 3798,2149 3801,2149 3802,2148 3804,2148 3805,2149 3807,2149 3808,2150 3809,2150 3810,2151 3812,2151 3813,2152 3814,2152 3815,2153 3823,2153 3824,2154 3832,2154 3833,2155 3838,2155 3839,2156 3842,2156 3843,2155 3848,2155 3849,2154 3856,2154 3857,2155 3873,2155 3874,2154 3877,2154 3878,2155 3943,2155 3944,2154 3952,2154 3953,2155 3981,2155 3982,2156 3985,2156 3986,2155 4000,2155 4001,2156 4015,2156 4016,2157 4033,2157 4034,2156 4045,2156 4046,2157 4053,2157 4054,2158 4059,2158 4060,2157 4090,2157 4091,2156 4095,2156 4096,2155 4098,2155 4099,2154 4101,2154 4102,2153 4104,2153 4105,2152 4106,2152 4107,2151 4108,2151 4109,2150 4110,2150 4111,2149 4112,2149 4119,2142 4119,2141 4126,2134 4127,2134 4128,2133 4129,2133 4130,2132 4132,2132 4133,2131 4134,2131 4136,2129 4137,2129 4140,2126 4140,2125 4142,2123 4142,2122 4143,2121 4143,2120 4145,2118 4145,2117 4148,2114 4148,2113 4149,2112 4149,2110 4150,2109 4150,2106 4151,2105 4151,2102 4152,2101 4152,2099 4151,2098 4151,2094 4150,2093 4150,2090 4149,2089 4149,2087 4148,2086 4148,2085 4146,2083 4146,2082 4144,2080 4144,2079 4143,2078 4143,2077 4142,2076 4142,2075 4143,2074 4143,2073 4144,2072 4144,2070 4145,2069 4145,2068 4146,2067 4146,2064 4147,2063 4146,2062 4146,2059 4145,2058 4145,2055 4144,2054 4144,2051 4145,2050 4145,2047 4146,2046 4146,2043 4147,2042 4146,2041 4146,2037 4145,2036 4145,2034 4144,2033 4144,2032 4143,2031 4143,2025 4144,2024 4144,2022 4145,2021 4145,2020 4147,2018 4147,2017 4148,2016 4148,2006 4149,2005 4149,2001 4150,2000 4150,1996 4151,1995 4150,1994 4150,1992 4148,1990 4147,1990 4145,1988 4144,1988 4143,1987 4142,1987 4141,1986 4139,1986 4138,1985 4133,1985 4132,1986 4128,1986 4125,1983 4125,1981 4124,1980 4125,1979 4125,1978 4127,1976 4127,1975 4128,1974 4130,1974 4131,1973 4133,1973 4134,1972 4135,1972 4138,1969 4139,1969 4140,1968 4140,1967 4143,1964 4143,1963 4144,1962 4144,1961 4146,1959 4146,1958 4147,1957 4147,1956 4148,1955 4148,1954 4149,1953 4149,1952 4150,1951 4150,1949 4151,1948 4151,1944 4147,1940 4146,1940 4143,1937 4142,1937 4141,1936 4140,1936 4139,1935 4137,1935 4136,1936 4135,1936 4134,1937 4133,1937 4132,1938 4131,1938 4128,1941 4125,1938 4125,1937 4124,1936 4124,1935 4123,1934 4123,1931 4124,1930 4124,1928 4127,1925 4129,1925 4130,1926 4131,1926 4133,1928 4134,1928 4136,1930 4140,1930 4140,1929 4145,1924 4145,1923 4146,1922 4146,1918 4145,1917 4145,1915 4144,1914 4144,1908 4145,1907 4145,1906 4146,1905 4146,1904 4147,1903 4147,1901 4148,1900 4148,1896 4146,1894 4146,1893 4145,1892 4145,1890 4144,1889 4144,1888 4143,1887 4143,1884 4144,1883 4144,1882 4145,1881 4145,1880 4146,1879 4146,1877 4147,1876 4147,1875 4148,1874 4148,1871 4147,1870 4147,1867 4146,1866 4146,1859 4147,1858 4147,1855 4148,1854 4148,1852 4149,1851 4149,1848 4148,1847 4148,1843 4147,1842 4147,1837 4146,1836 4146,1830 4145,1829 4145,1825 4144,1824 4144,1821 4143,1820 4143,1816 4142,1815 4140,1815 4139,1814 4136,1814 4135,1815 4133,1815 4128,1820 4127,1820 4126,1819 4125,1819 4124,1818 4124,1817 4123,1816 4123,1815 4120,1812 4119,1812 4117,1810 4116,1810 4115,1809 4112,1809 4111,1808 4102,1808 4101,1807 4097,1807 4096,1806 4092,1806 4091,1805 4072,1805 4071,1806 4061,1806 4060,1807 4013,1807 4012,1808 3988,1808 3987,1807 3938,1807 3937,1806 3926,1806 3925,1807 3896,1807 3895,1808 3887,1808 3886,1807 3880,1807 3879,1806 3866,1806 3865,1807 3859,1807 3858,1806 3851,1806 3850,1807 3835,1807 3834,1806 3820,1806 3819,1807 3811,1807 3810,1808 3806,1808 3805,1809 3791,1809 3790,1808 3788,1808 3787,1807 3781,1807 3780,1806 3747,1806 3746,1805 3740,1805 3739,1806 3732,1806 3731,1805 3728,1805 3727,1804 3723,1804 3722,1803 3697,1803 3696,1804 3685,1804 3684,1803 3634,1803 3633,1804 3592,1804 3591,1805 3534,1805 3533,1806 3523,1806 3522,1805 3456,1805 3455,1804 3449,1804 3448,1803 3443,1803 3442,1804 3427,1804 3426,1803 3415,1803 3414,1804 3383,1804 3382,1803 3371,1803 3370,1804 3366,1804 3365,1805 3362,1805 3361,1806 3358,1806 3357,1807 3354,1807 3353,1808 3345,1808 3344,1807 3339,1807 3338,1806 3334,1806 3333,1805 3328,1805 3327,1804 3317,1804 3316,1803 3299,1803 3298,1802" fill="rgba(207,14,189,0.3)" stroke="rgb(207,14,189)" stroke-width="2" data-block-id="0014" data-name="b-0016" /><text x="3890" y="1973" text-anchor="middle" dominant-baseline="middle" class="block-label" fill="rgb(207,14,189)" stroke="white" stroke-width="3" paint-order="stroke">b-0016</text><polygon points="2045,1297 2044,1298 2043,1298 2042,1299 2041,1299 2040,1300 2037,1300 2036,1301 2031,1301 2030,1300 2027,1300 2026,1299 2023,1299 2022,1298 2017,1298 2016,1299 2009,1299 2008,1298 1996,1298 1995,1299 1993,1299 1992,1300 1989,1300 1988,1301 1970,1301 1969,1302 1959,1302 1958,1301 1955,1301 1954,1300 1944,1300 1943,1301 1936,1301 1935,1300 1932,1300 1931,1299 1930,1299 1929,1298 1926,1298 1925,1299 1924,1299 1923,1300 1922,1300 1921,1301 1919,1301 1918,1302 1915,1302 1914,1303 1913,1303 1912,1302 1906,1302 1905,1301 1902,1301 1901,1302 1895,1302 1894,1303 1886,1303 1885,1302 1878,1302 1877,1303 1875,1303 1873,1305 1872,1305 1870,1307 1870,1308 1869,1309 1869,1310 1868,1311 1868,1315 1867,1316 1867,1326 1868,1327 1868,1338 1869,1339 1869,1365 1868,1366 1868,1375 1869,1376 1869,1404 1868,1405 1868,1414 1867,1415 1867,1424 1868,1425 1868,1439 1869,1440 1869,1448 1868,1449 1868,1462 1867,1463 1867,1482 1868,1483 1868,1499 1869,1500 1869,1508 1868,1509 1868,1524 1869,1525 1869,1536 1868,1537 1868,1541 1869,1542 1869,1554 1868,1555 1868,1580 1869,1581 1869,1599 1868,1600 1868,1606 1867,1607 1867,1615 1868,1616 1868,1637 1867,1638 1867,1648 1866,1649 1866,1663 1867,1664 1867,1669 1868,1670 1868,1671 1869,1672 1869,1673 1871,1675 1872,1675 1874,1677 1875,1677 1876,1678 1878,1678 1879,1679 1884,1679 1885,1678 1894,1678 1895,1679 1903,1679 1904,1680 1917,1680 1918,1681 1925,1681 1926,1682 1928,1682 1929,1683 1931,1683 1932,1684 1933,1684 1934,1685 1936,1685 1937,1686 1949,1686 1950,1685 1952,1685 1953,1684 1954,1684 1956,1682 1957,1682 1959,1680 1960,1680 1961,1679 1967,1679 1968,1680 1982,1680 1983,1679 1991,1679 1992,1680 2004,1680 2005,1681 2014,1681 2015,1680 2022,1680 2023,1681 2025,1681 2026,1682 2028,1682 2029,1683 2031,1683 2032,1684 2037,1684 2038,1685 2042,1685 2043,1686 2052,1686 2053,1685 2074,1685 2075,1686 2086,1686 2087,1687 2095,1687 2096,1686 2098,1686 2099,1685 2101,1685 2102,1684 2105,1684 2106,1683 2114,1683 2115,1682 2122,1682 2123,1681 2144,1681 2145,1682 2152,1682 2153,1683 2164,1683 2165,1684 2169,1684 2170,1685 2173,1685 2174,1686 2184,1686 2185,1687 2191,1687 2192,1686 2199,1686 2200,1685 2203,1685 2204,1684 2206,1684 2207,1683 2208,1683 2209,1682 2211,1682 2212,1681 2213,1682 2215,1682 2216,1683 2217,1683 2219,1685 2220,1685 2221,1686 2223,1686 2224,1687 2228,1687 2229,1686 2233,1686 2234,1685 2236,1685 2237,1684 2239,1684 2240,1683 2242,1683 2243,1682 2246,1682 2247,1681 2260,1681 2261,1682 2268,1682 2269,1683 2277,1683 2278,1684 2287,1684 2288,1685 2293,1685 2294,1686 2300,1686 2301,1685 2304,1685 2305,1684 2311,1684 2312,1685 2313,1685 2314,1686 2316,1686 2317,1687 2326,1687 2327,1686 2330,1686 2331,1685 2355,1685 2356,1686 2374,1686 2375,1685 2399,1685 2400,1686 2406,1686 2407,1685 2415,1685 2416,1684 2456,1684 2457,1685 2468,1685 2469,1684 2473,1684 2474,1683 2477,1683 2478,1684 2485,1684 2486,1685 2499,1685 2500,1686 2505,1686 2506,1687 2512,1687 2513,1688 2527,1688 2528,1687 2534,1687 2535,1686 2536,1686 2537,1685 2537,1684 2538,1683 2538,1682 2539,1681 2539,1670 2540,1669 2540,1655 2539,1654 2539,1642 2540,1641 2540,1626 2539,1625 2539,1617 2540,1616 2540,1608 2539,1607 2539,1585 2540,1584 2540,1528 2541,1527 2541,1521 2542,1520 2542,1499 2543,1498 2543,1483 2542,1482 2542,1474 2543,1473 2543,1462 2542,1461 2542,1449 2543,1448 2543,1441 2542,1440 2542,1411 2541,1410 2541,1400 2542,1399 2542,1394 2541,1393 2541,1350 2542,1349 2542,1346 2541,1345 2541,1313 2540,1312 2540,1309 2539,1308 2539,1307 2538,1306 2538,1305 2537,1304 2537,1303 2536,1303 2535,1302 2535,1301 2534,1300 2507,1300 2506,1301 2491,1301 2490,1300 2487,1300 2486,1301 2482,1301 2481,1302 2478,1302 2477,1303 2470,1303 2469,1302 2462,1302 2461,1303 2457,1303 2456,1304 2429,1304 2428,1303 2424,1303 2423,1302 2421,1302 2420,1301 2412,1301 2411,1302 2409,1302 2408,1303 2378,1303 2377,1302 2366,1302 2365,1303 2363,1303 2362,1304 2359,1304 2358,1305 2353,1305 2352,1304 2350,1304 2349,1303 2344,1303 2343,1302 2342,1303 2326,1303 2325,1304 2315,1304 2314,1305 2307,1305 2306,1304 2304,1304 2303,1303 2301,1303 2299,1301 2297,1301 2296,1300 2293,1300 2292,1301 2274,1301 2273,1302 2268,1302 2267,1303 2255,1303 2254,1302 2251,1302 2250,1301 2246,1301 2245,1300 2237,1300 2236,1299 2235,1300 2224,1300 2223,1301 2221,1301 2220,1302 2218,1302 2217,1303 2215,1303 2214,1304 2212,1304 2211,1303 2209,1303 2208,1302 2206,1302 2205,1301 2202,1301 2201,1300 2136,1300 2135,1301 2115,1301 2114,1302 2102,1302 2101,1301 2078,1301 2077,1300 2074,1300 2073,1299 2070,1299 2069,1298 2054,1298 2053,1297" fill="rgba(130,228,50,0.3)" stroke="rgb(130,228,50)" stroke-width="2" data-block-id="0015" data-name="b-0020" /><text x="2176" y="1496" text-anchor="middle" dominant-baseline="middle" class="block-label" fill="rgb(130,228,50)" stroke="white" stroke-width="3" paint-order="stroke">b-0020</text><polygon points="2235,1789 2234,1790 2226,1790 2225,1791 2223,1791 2222,1792 2221,1792 2220,1793 2218,1793 2217,1794 2215,1794 2214,1795 2210,1795 2209,1794 2205,1794 2204,1793 2202,1793 2201,1792 2195,1792 2194,1791 2186,1791 2185,1792 2179,1792 2178,1793 2176,1793 2175,1794 2173,1794 2172,1795 2169,1795 2168,1796 2135,1796 2134,1795 2128,1795 2127,1796 2122,1796 2121,1797 2115,1797 2114,1796 2112,1796 2111,1795 2109,1795 2108,1794 2107,1794 2106,1793 2105,1793 2104,1792 2101,1792 2100,1791 2096,1791 2095,1790 2083,1790 2082,1791 2079,1791 2078,1792 2077,1792 2076,1793 2074,1793 2073,1794 2065,1794 2064,1793 2061,1793 2060,1792 2053,1792 2052,1791 2039,1791 2038,1792 2034,1792 2033,1793 2032,1793 2031,1794 2029,1794 2028,1795 2026,1795 2025,1796 2008,1796 2007,1797 2002,1797 2001,1798 1982,1798 1981,1797 1966,1797 1965,1798 1963,1798 1962,1797 1959,1797 1958,1796 1956,1796 1955,1795 1954,1795 1953,1794 1951,1794 1950,1793 1943,1793 1942,1794 1936,1794 1935,1793 1925,1793 1924,1794 1922,1794 1921,1795 1918,1795 1917,1796 1912,1796 1911,1795 1876,1795 1875,1796 1873,1796 1872,1797 1870,1797 1868,1799 1867,1799 1865,1801 1865,1802 1863,1804 1863,1822 1864,1823 1864,1828 1865,1829 1865,1835 1866,1836 1866,1917 1865,1918 1865,1953 1866,1954 1866,2010 1865,2011 1865,2102 1864,2103 1864,2111 1863,2112 1863,2124 1864,2125 1864,2131 1865,2132 1865,2135 1868,2138 1869,2138 1870,2139 1875,2139 1876,2140 1915,2140 1916,2141 1920,2141 1921,2142 1924,2142 1925,2143 1928,2143 1929,2142 1930,2142 1931,2141 1933,2141 1934,2140 1936,2140 1937,2139 1965,2139 1966,2140 1982,2140 1983,2139 1995,2139 1996,2140 2006,2140 2007,2141 2014,2141 2015,2140 2027,2140 2028,2141 2031,2141 2032,2142 2040,2142 2041,2143 2060,2143 2061,2142 2063,2142 2064,2141 2065,2141 2066,2140 2067,2140 2068,2139 2071,2139 2072,2140 2073,2140 2074,2141 2075,2141 2076,2142 2078,2142 2079,2143 2103,2143 2104,2142 2110,2142 2111,2141 2124,2141 2125,2142 2171,2142 2172,2143 2186,2143 2187,2142 2210,2142 2211,2141 2215,2141 2216,2142 2222,2142 2223,2143 2242,2143 2243,2142 2271,2142 2272,2143 2387,2143 2388,2144 2403,2144 2404,2145 2406,2145 2407,2144 2424,2144 2425,2143 2431,2143 2432,2144 2452,2144 2453,2145 2486,2145 2487,2144 2507,2144 2508,2145 2526,2145 2527,2144 2528,2144 2529,2143 2530,2143 2531,2142 2532,2142 2538,2136 2538,2130 2537,2129 2537,2071 2536,2070 2536,2063 2537,2062 2537,2044 2538,2043 2538,2038 2537,2037 2537,2005 2538,2004 2538,1986 2537,1985 2537,1970 2538,1969 2538,1964 2539,1963 2539,1944 2538,1943 2538,1933 2537,1932 2537,1912 2538,1911 2538,1910 2537,1909 2537,1862 2538,1861 2538,1849 2539,1848 2538,1847 2538,1808 2537,1807 2537,1804 2536,1803 2536,1802 2535,1801 2535,1800 2534,1799 2534,1798 2533,1797 2532,1797 2530,1795 2529,1795 2528,1794 2526,1794 2525,1793 2513,1793 2512,1794 2509,1794 2508,1795 2506,1795 2505,1796 2502,1796 2501,1797 2496,1797 2495,1796 2488,1796 2487,1795 2484,1795 2483,1794 2480,1794 2479,1793 2470,1793 2469,1794 2465,1794 2464,1795 2463,1795 2462,1796 2461,1796 2460,1797 2458,1797 2457,1798 2455,1798 2454,1799 2448,1799 2447,1798 2439,1798 2438,1797 2434,1797 2433,1796 2429,1796 2428,1795 2424,1795 2423,1794 2420,1794 2419,1793 2409,1793 2408,1794 2399,1794 2398,1795 2389,1795 2388,1796 2381,1796 2380,1795 2376,1795 2375,1794 2373,1794 2372,1793 2369,1793 2368,1792 2366,1792 2365,1793 2361,1793 2360,1794 2355,1794 2354,1795 2349,1795 2348,1796 2343,1796 2342,1797 2333,1797 2332,1798 2301,1798 2300,1797 2264,1797 2263,1796 2255,1796 2254,1797 2250,1797 2249,1796 2247,1796 2246,1795 2245,1795 2244,1794 2243,1794 2240,1791 2239,1791 2238,1790 2236,1790" fill="rgba(166,17,131,0.3)" stroke="rgb(166,17,131)" stroke-width="2" data-block-id="0016" data-name="b-0022" /><text x="2212" y="1913" text-anchor="middle" dominant-baseline="middle" class="block-label" fill="rgb(166,17,131)" stroke="white" stroke-width="3" paint-order="stroke">b-0022</text><polygon points="2740,1306 2739,1307 2727,1307 2726,1308 2717,1308 2716,1307 2694,1307 2693,1308 2682,1308 2681,1309 2666,1309 2665,1308 2639,1308 2638,1309 2624,1309 2623,1310 2622,1310 2620,1312 2620,1326 2619,1327 2619,1334 2618,1335 2618,1340 2619,1341 2619,1362 2620,1363 2620,1380 2619,1381 2619,1392 2620,1393 2620,1432 2619,1433 2619,1441 2620,1442 2620,1465 2621,1466 2621,1469 2620,1470 2620,1475 2619,1476 2619,1484 2620,1485 2620,1493 2619,1494 2619,1495 2618,1496 2618,1498 2617,1499 2617,1517 2618,1518 2618,1546 2617,1547 2617,1555 2618,1556 2618,1604 2617,1605 2617,1616 2618,1617 2618,1646 2617,1647 2617,1669 2618,1670 2618,1675 2619,1676 2619,1679 2620,1680 2620,1681 2623,1684 2626,1684 2627,1685 2638,1685 2639,1686 2652,1686 2653,1685 2670,1685 2671,1684 2727,1684 2728,1683 2735,1683 2736,1684 2797,1684 2798,1683 2804,1683 2805,1684 2810,1684 2811,1685 2854,1685 2855,1686 2872,1686 2873,1685 2901,1685 2902,1686 2945,1686 2946,1687 2970,1687 2971,1686 2989,1686 2990,1687 3012,1687 3013,1686 3019,1686 3020,1687 3036,1687 3037,1686 3048,1686 3049,1687 3091,1687 3092,1686 3094,1686 3095,1685 3096,1685 3097,1684 3098,1684 3100,1682 3100,1668 3101,1667 3101,1610 3100,1609 3100,1601 3101,1600 3101,1590 3102,1589 3102,1580 3101,1579 3101,1567 3100,1566 3100,1557 3099,1556 3099,1547 3100,1546 3100,1526 3099,1525 3099,1505 3100,1504 3100,1494 3101,1493 3101,1490 3100,1489 3100,1464 3099,1463 3099,1455 3100,1454 3100,1406 3101,1405 3101,1386 3100,1385 3100,1379 3101,1378 3101,1345 3100,1344 3100,1324 3099,1323 3099,1321 3098,1320 3098,1319 3097,1318 3097,1317 3096,1316 3096,1315 3095,1314 3094,1314 3092,1312 3091,1312 3090,1311 3081,1311 3080,1310 2962,1310 2961,1309 2955,1309 2954,1310 2949,1310 2948,1311 2940,1311 2939,1310 2929,1310 2928,1309 2922,1309 2921,1308 2859,1308 2858,1309 2852,1309 2851,1310 2848,1310 2847,1309 2843,1309 2842,1308 2817,1308 2816,1307 2814,1307 2813,1308 2805,1308 2804,1309 2795,1309 2794,1308 2787,1308 2786,1307 2756,1307 2755,1306" fill="rgba(89,52,129,0.3)" stroke="rgb(89,52,129)" stroke-width="2" data-block-id="0017" data-name="b-0025" /><text x="2853" y="1482" text-anchor="middle" dominant-baseline="middle" class="block-label" fill="rgb(89,52,129)" stroke="white" stroke-width="3" paint-order="stroke">b-0025</text><polygon points="2640,1794 2639,1795 2634,1795 2633,1796 2629,1796 2628,1797 2625,1797 2623,1799 2622,1799 2620,1801 2620,1802 2619,1803 2619,1804 2618,1805 2618,1807 2617,1808 2617,1868 2616,1869 2616,1936 2615,1937 2615,1957 2616,1958 2616,1973 2615,1974 2615,2022 2614,2023 2614,2045 2615,2046 2615,2072 2614,2073 2614,2093 2615,2094 2615,2119 2614,2120 2614,2136 2615,2137 2615,2139 2616,2140 2616,2141 2621,2146 2623,2146 2624,2147 2625,2146 2632,2146 2633,2145 2653,2145 2654,2144 2692,2144 2693,2145 2706,2145 2707,2146 2725,2146 2726,2145 2741,2145 2742,2146 2769,2146 2770,2147 2776,2147 2777,2148 2785,2148 2786,2147 2797,2147 2798,2146 2834,2146 2835,2147 2878,2147 2879,2148 2888,2148 2889,2147 2892,2147 2893,2146 2978,2146 2979,2147 2982,2147 2983,2146 2989,2146 2990,2145 2995,2145 2996,2146 3021,2146 3022,2147 3027,2147 3028,2148 3032,2148 3033,2147 3047,2147 3048,2148 3055,2148 3056,2147 3072,2147 3073,2148 3088,2148 3089,2147 3091,2147 3093,2145 3094,2145 3095,2144 3096,2144 3097,2143 3098,2143 3102,2139 3102,2138 3103,2137 3103,2128 3104,2127 3104,2095 3103,2094 3103,2071 3104,2070 3104,2059 3103,2058 3103,2033 3102,2032 3102,2028 3103,2027 3103,2024 3104,2023 3104,2020 3105,2019 3105,1999 3104,1998 3104,1978 3105,1977 3105,1972 3106,1971 3106,1964 3105,1963 3105,1944 3104,1943 3104,1928 3105,1927 3105,1909 3104,1908 3104,1877 3105,1876 3105,1870 3104,1869 3104,1840 3103,1839 3104,1838 3104,1820 3103,1819 3103,1812 3102,1811 3102,1808 3101,1807 3101,1806 3100,1805 3100,1804 3099,1803 3097,1803 3096,1802 3090,1802 3089,1801 3086,1801 3085,1802 3047,1802 3046,1803 3033,1803 3032,1802 2977,1802 2976,1801 2924,1801 2923,1800 2904,1800 2903,1801 2880,1801 2879,1800 2870,1800 2869,1799 2846,1799 2845,1800 2829,1800 2828,1801 2803,1801 2802,1800 2784,1800 2783,1799 2779,1799 2778,1798 2763,1798 2762,1797 2759,1797 2758,1796 2757,1796 2756,1795 2754,1795 2753,1796 2752,1796 2751,1797 2750,1797 2749,1798 2747,1798 2746,1799 2741,1799 2740,1800 2716,1800 2715,1799 2699,1799 2698,1800 2691,1800 2690,1799 2677,1799 2676,1798 2665,1798 2664,1797 2657,1797 2656,1796 2653,1796 2652,1795 2650,1795 2649,1794" fill="rgba(187,198,171,0.3)" stroke="rgb(187,198,171)" stroke-width="2" data-block-id="0018" data-name="b-0027" /><text x="2869" y="1961" text-anchor="middle" dominant-baseline="middle" class="block-label" fill="rgb(187,198,171)" stroke="white" stroke-width="3" paint-order="stroke">b-0027</text><polygon points="3203,1205 4248,1225 4088,866 3565,858 3511,811 3476,573 3195,566" fill="rgba(102,179,92,0.3)" stroke="rgb(102,179,92)" stroke-width="2" data-block-id="0019" data-name="b-0020" /><text x="3612" y="872" text-anchor="middle" dominant-baseline="middle" class="block-label" fill="rgb(102,179,92)" stroke="white" stroke-width="3" paint-order="stroke">b-0020</text><polygon points="3203,335 3203,558 3483,566 3522,531 4033,492 3998,320" fill="rgba(102,179,92,0.3)" stroke="rgb(102,179,92)" stroke-width="2" data-block-id="0020" data-name="b-0020" /><text x="3573" y="467" text-anchor="middle" dominant-baseline="middle" class="block-label" fill="rgb(102,179,92)" stroke="white" stroke-width="3" paint-order="stroke">b-0020</text></g>
</svg>