<?xml version='1.0' encoding='utf-8'?>
<svg xmlns="http://www.w3.org/2000/svg" xmlns:atlas="http://example.com/atlas" width="4984" height="3232" viewBox="0 0 4984 3232">
  
  <metadata>
    <atlas:source>
      <atlas:jp2-path>/Users/pwright/workspace/atlas/media/v2/p22.jp2</atlas:jp2-path>
      <atlas:volume>unknown</atlas:volume>
      <atlas:plate-id>p22</atlas:plate-id>
      <atlas:image-width>4984</atlas:image-width>
      <atlas:image-height>3232</atlas:image-height>
    </atlas:source>
  </metadata>

  
  <image id="background" href="file:///Users/pwright/workspace/atlas/media/v2/p22.jp2" width="4984" height="3232" opacity="0.5" />

  <style>
    .block-label { font-family: sans-serif; font-size: 14px; font-weight: bold; }
  </style>

  
  <g id="blocks">
    <polygon points="1198,2536 1197,2537 1144,2537 1143,2538 1112,2538 1111,2539 1106,2539 1105,2540 1103,2540 1102,2541 1099,2541 1098,2542 1097,2541 1072,2541 1071,2542 1064,2542 1063,2543 1062,2543 1061,2542 1037,2542 1036,2541 1011,2541 1010,2540 995,2540 994,2539 964,2539 963,2540 956,2540 955,2539 953,2539 952,2538 948,2538 947,2537 909,2537 908,2538 874,2538 873,2537 847,2537 846,2538 842,2538 841,2539 838,2539 837,2540 836,2540 835,2541 834,2541 833,2542 832,2542 831,2543 830,2543 828,2545 828,2546 827,2547 827,2553 826,2554 826,2557 825,2558 825,2560 824,2561 824,2563 823,2564 823,2567 822,2568 822,2572 823,2573 823,2606 822,2607 822,2632 823,2633 823,2638 824,2639 824,2659 823,2660 823,2712 824,2713 824,2715 825,2716 825,2718 826,2719 826,2720 827,2721 827,2726 826,2727 826,2728 825,2729 825,2731 824,2732 824,2739 823,2740 823,2758 822,2759 822,2773 823,2774 823,2780 824,2781 824,2787 825,2788 825,2792 826,2793 825,2794 825,2798 824,2799 824,2802 823,2803 823,2806 822,2807 822,2820 823,2821 823,2825 824,2826 824,2847 823,2848 823,2876 824,2877 824,2889 825,2890 825,2891 826,2892 826,2893 828,2895 829,2895 831,2897 832,2897 833,2898 834,2898 835,2899 836,2899 837,2900 859,2900 860,2901 864,2901 865,2900 877,2900 878,2901 883,2901 884,2902 893,2902 894,2901 903,2901 904,2902 914,2902 915,2901 927,2901 928,2902 937,2902 938,2901 952,2901 953,2900 962,2900 963,2899 970,2899 971,2900 976,2900 977,2901 996,2901 997,2900 1003,2900 1004,2899 1018,2899 1019,2900 1023,2900 1024,2901 1046,2901 1047,2900 1056,2900 1057,2899 1073,2899 1074,2900 1090,2900 1091,2899 1096,2899 1097,2898 1102,2898 1103,2899 1112,2899 1113,2900 1123,2900 1124,2901 1127,2901 1128,2900 1138,2900 1139,2899 1144,2899 1145,2898 1150,2898 1151,2899 1169,2899 1170,2898 1358,2898 1359,2899 1362,2899 1363,2898 1369,2898 1370,2897 1376,2897 1377,2898 1380,2898 1381,2899 1400,2899 1401,2900 1412,2900 1413,2899 1418,2899 1419,2898 1437,2898 1438,2897 1451,2897 1452,2898 1458,2898 1459,2897 1476,2897 1477,2898 1486,2898 1487,2897 1495,2897 1496,2898 1509,2898 1510,2897 1557,2897 1558,2896 1574,2896 1575,2895 1586,2895 1587,2894 1592,2894 1593,2893 1597,2893 1598,2892 1599,2892 1601,2890 1601,2889 1602,2888 1602,2870 1603,2869 1603,2839 1604,2838 1604,2821 1603,2820 1603,2807 1604,2806 1604,2771 1603,2770 1603,2765 1602,2764 1602,2753 1603,2752 1603,2748 1604,2747 1604,2745 1603,2744 1603,2738 1602,2737 1602,2730 1601,2729 1601,2721 1600,2720 1600,2700 1601,2699 1601,2680 1602,2679 1602,2608 1603,2607 1603,2587 1602,2586 1602,2576 1603,2575 1603,2565 1602,2564 1602,2551 1601,2550 1601,2545 1598,2542 1597,2542 1596,2541 1595,2541 1594,2540 1592,2540 1591,2539 1589,2539 1588,2538 1563,2538 1562,2537 1546,2537 1545,2538 1523,2538 1522,2539 1517,2539 1516,2540 1497,2540 1496,2541 1482,2541 1481,2540 1480,2541 1447,2541 1446,2542 1441,2542 1440,2541 1431,2541 1430,2542 1427,2542 1426,2543 1424,2543 1422,2545 1419,2545 1418,2544 1417,2544 1416,2543 1415,2543 1414,2542 1412,2542 1411,2541 1404,2541 1403,2542 1369,2542 1368,2541 1355,2541 1354,2542 1343,2542 1342,2541 1334,2541 1333,2540 1326,2540 1325,2539 1319,2539 1318,2538 1294,2538 1293,2537 1279,2537 1278,2536 1257,2536 1256,2537 1210,2537 1209,2536" fill="rgba(188,20,102,0.3)" stroke="rgb(188,20,102)" stroke-width="2" data-block-id="0001" data-name="b-0004" /><text x="1172" y="2718" text-anchor="middle" dominant-baseline="middle" class="block-label" fill="rgb(188,20,102)" stroke="white" stroke-width="3" paint-order="stroke">b-0004</text><polygon points="1250,2062 1249,2063 1214,2063 1213,2064 1173,2064 1172,2065 1171,2064 1130,2064 1129,2063 1086,2063 1085,2064 1071,2064 1070,2063 1007,2063 1006,2064 996,2064 995,2063 988,2063 987,2064 979,2064 978,2063 835,2063 834,2064 830,2064 829,2065 828,2065 825,2068 825,2087 824,2088 824,2120 825,2121 825,2135 824,2136 824,2147 825,2148 825,2161 824,2162 824,2164 825,2165 825,2175 826,2176 826,2178 825,2179 825,2232 824,2233 824,2241 825,2242 825,2251 824,2252 824,2300 823,2301 823,2310 824,2311 824,2351 823,2352 823,2358 824,2359 824,2406 825,2407 825,2412 826,2413 826,2416 828,2418 828,2419 829,2419 831,2421 832,2421 833,2422 836,2422 837,2423 871,2423 872,2422 874,2422 875,2423 892,2423 893,2424 933,2424 934,2425 974,2425 975,2426 1003,2426 1004,2425 1060,2425 1061,2424 1066,2424 1067,2425 1085,2425 1086,2426 1087,2425 1114,2425 1115,2424 1126,2424 1127,2425 1201,2425 1202,2424 1219,2424 1220,2425 1229,2425 1230,2424 1234,2424 1235,2423 1251,2423 1252,2422 1257,2422 1258,2423 1275,2423 1276,2422 1359,2422 1360,2423 1370,2423 1371,2424 1401,2424 1402,2425 1437,2425 1438,2424 1452,2424 1453,2425 1464,2425 1465,2424 1582,2424 1583,2423 1592,2423 1593,2422 1595,2422 1596,2421 1597,2421 1598,2420 1599,2420 1601,2418 1601,2417 1602,2416 1602,2410 1603,2409 1603,2395 1602,2394 1602,2389 1603,2388 1603,2349 1602,2348 1602,2305 1601,2304 1601,2300 1600,2299 1600,2291 1599,2290 1599,2281 1600,2280 1600,2245 1599,2244 1599,2227 1600,2226 1600,2218 1599,2217 1599,2131 1600,2130 1600,2127 1599,2126 1599,2110 1598,2109 1598,2078 1597,2077 1597,2069 1593,2065 1592,2065 1591,2064 1589,2064 1588,2063 1565,2063 1564,2062 1475,2062 1474,2063 1405,2063 1404,2064 1396,2064 1395,2065 1383,2065 1382,2064 1379,2064 1378,2063 1345,2063 1344,2064 1311,2064 1310,2063 1261,2063 1260,2062" fill="rgba(121,210,214,0.3)" stroke="rgb(121,210,214)" stroke-width="2" data-block-id="0002" data-name="b-0005" /><text x="1203" y="2262" text-anchor="middle" dominant-baseline="middle" class="block-label" fill="rgb(121,210,214)" stroke="white" stroke-width="3" paint-order="stroke">b-0005</text><polygon points="1089,1514 1088,1515 1061,1515 1060,1516 974,1516 973,1515 961,1515 960,1516 954,1516 953,1515 834,1515 833,1516 830,1516 829,1517 828,1517 827,1518 826,1518 825,1519 825,1520 824,1521 824,1522 823,1523 823,1537 824,1538 824,1555 825,1556 825,1560 824,1561 824,1584 823,1585 823,1599 824,1600 824,1611 823,1612 823,1622 824,1623 824,1681 823,1682 823,1750 822,1751 822,1758 821,1759 821,1802 822,1803 822,1816 821,1817 821,1849 820,1850 820,1866 821,1867 821,1869 825,1873 829,1873 830,1874 967,1874 968,1875 1097,1875 1098,1874 1190,1874 1191,1875 1211,1875 1212,1874 1231,1874 1232,1875 1237,1875 1238,1876 1250,1876 1251,1875 1289,1875 1290,1876 1321,1876 1322,1875 1340,1875 1341,1876 1382,1876 1383,1875 1388,1875 1389,1876 1443,1876 1444,1875 1473,1875 1474,1876 1535,1876 1536,1877 1575,1877 1576,1876 1589,1876 1590,1875 1591,1875 1592,1874 1593,1874 1594,1873 1594,1872 1595,1871 1595,1870 1596,1869 1596,1867 1597,1866 1597,1809 1598,1808 1598,1666 1599,1665 1599,1537 1598,1536 1598,1530 1597,1529 1597,1526 1596,1525 1596,1524 1593,1521 1592,1521 1591,1520 1590,1520 1589,1519 1579,1519 1578,1520 1475,1520 1474,1519 1468,1519 1467,1518 1455,1518 1454,1519 1451,1519 1450,1520 1448,1520 1447,1521 1444,1521 1443,1522 1442,1521 1439,1521 1438,1520 1426,1520 1425,1519 1408,1519 1407,1518 1404,1518 1403,1517 1390,1517 1389,1518 1384,1518 1383,1519 1305,1519 1304,1518 1297,1518 1296,1519 1284,1519 1283,1518 1269,1518 1268,1519 1266,1519 1265,1518 1213,1518 1212,1517 1187,1517 1186,1516 1175,1516 1174,1517 1169,1517 1168,1516 1145,1516 1144,1515 1138,1515 1137,1514 1131,1514 1130,1515 1114,1515 1113,1514 1109,1514 1108,1515 1090,1515" fill="rgba(74,202,87,0.3)" stroke="rgb(74,202,87)" stroke-width="2" data-block-id="0003" data-name="b-0006" /><text x="1214" y="1651" text-anchor="middle" dominant-baseline="middle" class="block-label" fill="rgb(74,202,87)" stroke="white" stroke-width="3" paint-order="stroke">b-0006</text><polygon points="1017,1049 1016,1050 996,1050 995,1051 971,1051 970,1050 966,1050 965,1051 926,1051 925,1050 912,1050 911,1051 878,1051 877,1050 840,1050 839,1051 836,1051 833,1054 833,1055 832,1056 832,1059 831,1060 831,1064 830,1065 830,1067 829,1068 829,1070 828,1071 828,1074 827,1075 827,1094 828,1095 828,1220 827,1221 827,1226 826,1227 826,1234 825,1235 825,1299 824,1300 824,1303 825,1304 825,1357 826,1358 826,1398 827,1399 827,1401 829,1403 829,1404 830,1404 832,1406 834,1406 835,1407 838,1407 839,1408 878,1408 879,1409 905,1409 906,1408 915,1408 916,1409 924,1409 925,1408 940,1408 941,1409 948,1409 949,1408 985,1408 986,1409 993,1409 994,1408 1004,1408 1005,1407 1019,1407 1020,1406 1037,1406 1038,1405 1049,1405 1050,1404 1054,1404 1055,1405 1074,1405 1075,1406 1095,1406 1096,1407 1101,1407 1102,1408 1106,1408 1107,1409 1236,1409 1237,1408 1272,1408 1273,1409 1286,1409 1287,1408 1291,1408 1292,1409 1331,1409 1332,1408 1368,1408 1369,1409 1393,1409 1394,1410 1411,1410 1412,1409 1416,1409 1417,1408 1426,1408 1427,1407 1460,1407 1461,1408 1496,1408 1497,1409 1541,1409 1542,1408 1589,1408 1590,1407 1592,1407 1593,1406 1594,1406 1596,1404 1597,1404 1599,1402 1599,1401 1600,1400 1600,1399 1601,1398 1601,1388 1600,1387 1600,1367 1599,1366 1599,1358 1600,1357 1600,1332 1599,1331 1599,1297 1598,1296 1598,1279 1597,1278 1597,1214 1598,1213 1598,1165 1599,1164 1599,1138 1598,1137 1598,1133 1599,1132 1599,1064 1598,1063 1598,1059 1597,1058 1597,1055 1593,1051 1591,1051 1590,1050 1572,1050 1571,1049 1542,1049 1541,1050 1537,1050 1536,1049 1487,1049 1486,1050 1471,1050 1470,1051 1451,1051 1450,1052 1444,1052 1443,1053 1425,1053 1424,1052 1392,1052 1391,1053 1375,1053 1374,1054 1365,1054 1364,1055 1358,1055 1357,1054 1335,1054 1334,1055 1324,1055 1323,1056 1303,1056 1302,1055 1282,1055 1281,1054 1271,1054 1270,1055 1264,1055 1263,1054 1221,1054 1220,1055 1219,1055 1218,1054 1210,1054 1209,1053 1160,1053 1159,1052 1153,1052 1152,1053 1148,1053 1147,1052 1141,1052 1140,1051 1072,1051 1071,1050 1061,1050 1060,1051 1046,1051 1045,1050 1035,1050 1034,1049" fill="rgba(116,99,103,0.3)" stroke="rgb(116,99,103)" stroke-width="2" data-block-id="0004" data-name="b-0007" /><text x="1204" y="1224" text-anchor="middle" dominant-baseline="middle" class="block-label" fill="rgb(116,99,103)" stroke="white" stroke-width="3" paint-order="stroke">b-0007</text><polygon points="2069,558 2068,559 2065,559 2063,561 2062,561 2062,562 2061,563 2060,563 2059,564 2057,564 2056,565 2052,565 2051,566 2049,566 2048,567 2045,567 2044,568 2042,568 2041,569 2039,569 2038,570 2037,570 2036,571 2034,571 2033,572 2030,572 2029,573 2026,573 2025,572 2022,572 2021,571 2018,571 2017,570 2008,570 2007,571 2002,571 2001,570 1998,570 1997,569 1987,569 1986,570 1984,570 1983,571 1982,571 1981,572 1976,572 1975,571 1970,571 1969,570 1965,570 1964,571 1957,571 1956,572 1950,572 1949,573 1945,573 1944,574 1939,574 1938,575 1929,575 1928,574 1925,574 1924,573 1922,573 1921,572 1912,572 1911,573 1908,573 1907,572 1870,572 1869,573 1868,573 1867,574 1865,574 1864,575 1863,575 1862,576 1858,576 1857,575 1852,575 1851,574 1846,574 1845,575 1841,575 1840,576 1832,576 1831,575 1821,575 1820,576 1817,576 1816,577 1811,577 1810,576 1808,576 1807,575 1806,575 1805,574 1804,574 1803,573 1798,573 1797,574 1794,574 1793,575 1787,575 1786,574 1784,574 1783,573 1782,573 1781,572 1779,572 1778,571 1775,571 1774,572 1772,572 1771,573 1769,573 1768,574 1762,574 1761,573 1758,573 1757,572 1748,572 1747,573 1743,573 1742,574 1738,574 1737,575 1735,575 1732,578 1732,582 1731,583 1731,590 1732,591 1732,594 1733,595 1733,598 1734,599 1734,600 1733,601 1733,603 1730,606 1730,607 1727,610 1727,612 1726,613 1726,624 1725,625 1725,628 1724,629 1724,632 1723,633 1723,637 1724,638 1724,640 1726,642 1726,643 1733,650 1733,651 1734,652 1734,653 1735,654 1735,655 1736,656 1736,657 1737,658 1736,659 1736,661 1735,662 1735,663 1733,665 1733,666 1732,667 1732,668 1730,670 1730,671 1729,672 1729,685 1728,686 1727,686 1726,687 1724,687 1723,688 1721,688 1720,689 1719,689 1716,692 1716,694 1715,695 1715,710 1716,711 1716,722 1717,723 1717,726 1718,727 1718,729 1719,730 1719,739 1720,740 1720,744 1719,745 1719,751 1718,752 1718,763 1717,764 1717,766 1718,767 1718,770 1719,771 1719,773 1723,777 1723,781 1724,782 1724,785 1725,786 1725,787 1727,789 1726,790 1726,791 1724,793 1722,793 1720,795 1720,796 1719,797 1719,803 1718,804 1718,811 1717,812 1717,814 1718,815 1718,817 1720,819 1721,818 1723,818 1724,817 1724,816 1726,814 1726,813 1727,812 1728,812 1729,813 1729,814 1730,815 1730,818 1729,819 1729,828 1730,829 1730,830 1731,831 1731,832 1732,833 1732,834 1733,835 1733,841 1732,842 1732,843 1731,844 1731,845 1728,848 1726,848 1725,849 1725,852 1728,855 1728,856 1729,857 1729,859 1730,860 1730,874 1729,875 1729,876 1727,878 1727,879 1726,880 1726,881 1725,882 1725,883 1724,884 1724,886 1725,887 1725,888 1726,889 1727,889 1729,891 1730,891 1733,894 1734,894 1736,896 1736,898 1737,899 1736,900 1736,902 1735,903 1735,905 1734,906 1734,910 1733,911 1733,932 1734,933 1734,934 1735,934 1736,935 1738,935 1739,936 1745,936 1746,937 1749,937 1750,938 1753,938 1754,939 1785,939 1786,938 1788,938 1789,939 1796,939 1797,940 1803,940 1804,939 1806,939 1807,938 1810,938 1811,937 1858,937 1859,936 1868,936 1869,937 1873,937 1874,936 1901,936 1902,937 1919,937 1920,936 1932,936 1933,935 1938,935 1939,934 1942,934 1943,933 1945,933 1946,934 1949,934 1950,935 1970,935 1971,936 1993,936 1994,935 2000,935 2001,934 2008,934 2009,935 2023,935 2024,934 2029,934 2030,935 2045,935 2046,934 2083,934 2084,935 2089,935 2090,934 2129,934 2130,935 2176,935 2177,936 2187,936 2188,935 2211,935 2212,936 2237,936 2238,935 2247,935 2248,934 2255,934 2256,935 2259,935 2260,936 2265,936 2266,937 2280,937 2281,936 2297,936 2298,937 2301,937 2302,938 2303,938 2304,939 2306,939 2307,940 2308,940 2309,941 2310,941 2311,942 2313,942 2314,943 2315,943 2318,946 2319,946 2321,948 2322,948 2323,949 2336,949 2337,948 2338,948 2340,946 2341,946 2342,945 2343,945 2344,944 2345,944 2346,943 2352,943 2353,944 2357,944 2358,945 2365,945 2366,944 2372,944 2373,943 2375,943 2376,942 2378,942 2379,941 2396,941 2397,942 2398,942 2399,943 2400,943 2404,947 2405,947 2406,948 2407,948 2408,949 2414,949 2415,950 2418,950 2419,949 2421,949 2422,948 2423,948 2426,945 2427,945 2430,942 2433,942 2434,941 2461,941 2462,940 2466,940 2467,939 2468,939 2470,937 2471,937 2471,936 2473,934 2473,932 2474,931 2474,929 2475,928 2475,925 2476,924 2476,921 2477,920 2477,917 2478,916 2478,914 2479,913 2479,908 2478,907 2478,905 2477,904 2477,902 2476,901 2476,884 2475,883 2475,867 2476,866 2476,843 2477,842 2477,826 2478,825 2478,821 2479,820 2479,805 2478,804 2478,801 2479,800 2479,783 2480,782 2480,779 2479,778 2479,773 2478,772 2478,757 2479,756 2479,741 2480,740 2480,736 2481,735 2481,733 2482,732 2482,731 2483,730 2483,729 2484,728 2484,727 2485,726 2485,724 2486,723 2486,716 2485,715 2485,714 2480,709 2480,708 2479,707 2479,702 2478,701 2478,681 2479,680 2479,677 2480,676 2480,675 2481,674 2481,672 2480,671 2480,670 2478,668 2478,667 2477,666 2477,665 2476,664 2476,662 2475,661 2475,654 2476,653 2476,637 2477,636 2477,630 2478,629 2478,619 2477,618 2477,615 2476,614 2476,608 2477,607 2477,598 2476,597 2476,592 2475,591 2475,588 2474,587 2474,584 2473,583 2473,580 2472,579 2472,578 2469,575 2469,574 2468,574 2467,573 2466,573 2465,572 2464,573 2459,573 2458,574 2444,574 2443,575 2432,575 2431,574 2428,574 2427,573 2425,573 2424,572 2422,572 2421,571 2414,571 2413,572 2405,572 2404,573 2395,573 2394,574 2389,574 2388,573 2380,573 2379,572 2376,572 2375,571 2369,571 2368,572 2359,572 2358,573 2317,573 2316,574 2307,574 2306,573 2279,573 2278,574 2275,574 2274,575 2271,575 2270,576 2257,576 2256,575 2245,575 2244,574 2211,574 2210,573 2195,573 2194,572 2191,572 2190,571 2188,571 2187,570 2186,570 2185,569 2178,569 2177,570 2175,570 2174,571 2170,571 2169,572 2167,572 2166,571 2152,571 2151,572 2144,572 2143,571 2142,571 2141,570 2140,570 2139,569 2138,569 2136,567 2134,567 2133,566 2132,567 2130,567 2129,568 2125,568 2124,569 2119,569 2118,568 2115,568 2114,567 2112,567 2111,566 2109,566 2108,567 2105,567 2104,568 2097,568 2096,567 2094,567 2092,565 2092,564 2090,562 2090,561 2088,559 2086,559 2085,558" fill="rgba(151,130,149,0.3)" stroke="rgb(151,130,149)" stroke-width="2" data-block-id="0005" data-name="b-0008" /><text x="2064" y="732" text-anchor="middle" dominant-baseline="middle" class="block-label" fill="rgb(151,130,149)" stroke="white" stroke-width="3" paint-order="stroke">b-0008</text><polygon points="1217,572 1216,573 1210,573 1209,574 1162,574 1161,575 1081,575 1080,576 1067,576 1066,575 1063,575 1062,576 1040,576 1039,575 1008,575 1007,576 1001,576 1000,575 976,575 975,574 959,574 958,575 929,575 928,576 902,576 901,577 882,577 881,576 875,576 874,575 858,575 857,576 840,576 839,577 838,577 837,578 836,578 836,581 835,582 835,586 834,587 834,592 833,593 833,600 832,601 832,623 831,624 831,628 832,629 832,642 831,643 831,647 832,648 832,654 833,655 833,682 832,683 832,693 831,694 831,696 832,697 832,705 833,706 833,715 832,716 832,781 831,782 831,789 830,790 830,793 831,794 831,813 830,814 830,819 829,820 829,825 828,826 828,828 827,829 827,835 826,836 826,843 827,844 827,879 826,880 826,920 827,921 827,923 828,924 828,926 829,927 829,928 833,932 835,932 836,933 838,933 839,934 847,934 848,935 856,935 857,936 872,936 873,935 915,935 916,936 973,936 974,935 1000,935 1001,936 1007,936 1008,935 1026,935 1027,934 1051,934 1052,933 1069,933 1070,934 1121,934 1122,933 1133,933 1134,932 1139,932 1140,931 1144,931 1145,930 1152,930 1153,931 1204,931 1205,932 1231,932 1232,933 1299,933 1300,934 1308,934 1309,933 1316,933 1317,934 1348,934 1349,935 1351,935 1352,934 1367,934 1368,935 1411,935 1412,934 1422,934 1423,933 1427,933 1428,932 1432,932 1433,931 1435,931 1436,932 1452,932 1453,931 1466,931 1467,932 1469,932 1470,931 1492,931 1493,932 1501,932 1502,933 1510,933 1511,934 1525,934 1526,935 1534,935 1535,934 1585,934 1586,933 1590,933 1591,932 1592,932 1593,931 1594,931 1599,926 1599,925 1600,924 1600,922 1601,921 1601,901 1600,900 1600,857 1599,856 1599,836 1598,835 1598,822 1599,821 1599,813 1598,812 1598,810 1597,809 1597,807 1596,806 1596,803 1595,802 1595,791 1596,790 1596,784 1597,783 1597,778 1598,777 1598,761 1599,760 1599,737 1600,736 1600,699 1599,698 1599,674 1598,673 1598,653 1599,652 1599,633 1600,632 1600,628 1601,627 1601,603 1600,602 1600,596 1599,595 1599,589 1598,588 1598,585 1597,584 1597,583 1596,582 1596,581 1592,577 1590,577 1589,576 1568,576 1567,575 1542,575 1541,574 1493,574 1492,573 1475,573 1474,574 1466,574 1465,575 1463,575 1462,576 1461,576 1460,577 1459,577 1458,578 1456,578 1455,579 1452,579 1451,580 1448,580 1447,581 1434,581 1433,580 1430,580 1429,581 1404,581 1403,582 1393,582 1392,581 1363,581 1362,582 1334,582 1333,583 1310,583 1309,584 1296,584 1295,583 1289,583 1288,582 1272,582 1271,581 1264,581 1263,582 1259,582 1258,583 1255,583 1254,582 1252,582 1249,579 1249,578 1248,578 1245,575 1244,575 1243,574 1241,574 1240,573 1235,573 1234,572" fill="rgba(52,1,87,0.3)" stroke="rgb(52,1,87)" stroke-width="2" data-block-id="0006" data-name="b-0009" /><text x="1227" y="742" text-anchor="middle" dominant-baseline="middle" class="block-label" fill="rgb(52,1,87)" stroke="white" stroke-width="3" paint-order="stroke">b-0009</text><polygon points="3417,2524 3416,2525 3405,2525 3404,2526 3388,2526 3387,2527 3383,2527 3382,2526 3310,2526 3309,2527 3273,2527 3272,2528 3261,2528 3260,2529 3247,2529 3246,2528 3202,2528 3201,2529 3185,2529 3184,2528 3178,2528 3177,2527 3166,2527 3165,2526 3129,2526 3128,2527 3085,2527 3084,2528 3039,2528 3038,2529 2972,2529 2971,2530 2905,2530 2904,2531 2844,2531 2843,2532 2809,2532 2808,2533 2799,2533 2798,2532 2795,2532 2794,2531 2787,2531 2786,2532 2783,2532 2782,2533 2776,2533 2775,2532 2774,2532 2773,2531 2771,2531 2770,2530 2769,2530 2768,2529 2753,2529 2752,2528 2750,2528 2749,2527 2745,2527 2744,2526 2724,2526 2723,2527 2717,2527 2716,2526 2710,2526 2709,2525 2708,2525 2707,2526 2704,2526 2703,2527 2701,2527 2700,2528 2699,2528 2698,2529 2697,2529 2695,2531 2694,2531 2692,2533 2692,2534 2691,2535 2692,2536 2692,2639 2693,2640 2693,2692 2694,2693 2694,2706 2693,2707 2693,2735 2694,2736 2694,2773 2695,2774 2695,2779 2696,2780 2696,2785 2697,2786 2697,2789 2698,2790 2698,2792 2699,2793 2699,2795 2700,2796 2699,2797 2699,2812 2700,2813 2700,2818 2699,2819 2699,2821 2698,2822 2698,2824 2697,2825 2697,2830 2696,2831 2696,2845 2697,2846 2697,2870 2698,2871 2698,2877 2699,2878 2699,2879 2700,2880 2700,2881 2701,2882 2702,2882 2703,2883 2704,2883 2705,2884 2707,2884 2708,2885 2726,2885 2727,2884 2738,2884 2739,2885 2744,2885 2745,2886 2747,2886 2748,2887 2751,2887 2752,2888 2759,2888 2760,2889 2784,2889 2785,2890 2795,2890 2796,2891 2901,2891 2902,2890 2924,2890 2925,2889 2937,2889 2938,2890 2947,2890 2948,2889 2966,2889 2967,2888 2998,2888 2999,2887 3011,2887 3012,2886 3042,2886 3043,2885 3053,2885 3054,2884 3062,2884 3063,2883 3071,2883 3072,2882 3078,2882 3079,2883 3086,2883 3087,2884 3145,2884 3146,2883 3187,2883 3188,2882 3233,2882 3234,2881 3251,2881 3252,2880 3324,2880 3325,2879 3373,2879 3374,2878 3389,2878 3390,2879 3447,2879 3448,2880 3459,2880 3460,2879 3462,2879 3463,2878 3464,2878 3465,2877 3465,2860 3466,2859 3466,2841 3465,2840 3465,2827 3464,2826 3464,2823 3463,2822 3463,2814 3464,2813 3464,2783 3465,2782 3465,2764 3464,2763 3464,2721 3463,2720 3463,2704 3462,2703 3462,2697 3463,2696 3463,2655 3462,2654 3462,2647 3463,2646 3463,2631 3462,2630 3462,2559 3461,2558 3461,2531 3460,2530 3460,2529 3459,2528 3459,2527 3458,2526 3457,2526 3456,2525 3451,2525 3450,2524 3437,2524 3436,2525 3427,2525 3426,2524" fill="rgba(235,157,37,0.3)" stroke="rgb(235,157,37)" stroke-width="2" data-block-id="0007" data-name="b-0010" /><text x="3016" y="2707" text-anchor="middle" dominant-baseline="middle" class="block-label" fill="rgb(235,157,37)" stroke="white" stroke-width="3" paint-order="stroke">b-0010</text><polygon points="4296,2503 4295,2504 4281,2504 4280,2505 4269,2505 4268,2506 4256,2506 4255,2505 4250,2505 4249,2506 4206,2506 4205,2507 4197,2507 4196,2508 4171,2508 4170,2507 4032,2507 4031,2508 3990,2508 3989,2509 3964,2509 3963,2510 3959,2510 3958,2511 3947,2511 3946,2510 3941,2510 3940,2511 3930,2511 3929,2512 3908,2512 3907,2513 3860,2513 3859,2512 3830,2512 3829,2513 3778,2513 3777,2514 3768,2514 3767,2515 3743,2515 3742,2516 3715,2516 3714,2517 3692,2517 3691,2518 3662,2518 3661,2519 3641,2519 3640,2520 3612,2520 3611,2521 3608,2521 3607,2522 3606,2522 3602,2526 3602,2527 3601,2528 3601,2530 3600,2531 3600,2542 3601,2543 3601,2548 3600,2549 3600,2587 3601,2588 3601,2597 3600,2598 3600,2612 3601,2613 3601,2618 3600,2619 3600,2623 3599,2624 3599,2633 3600,2634 3600,2646 3601,2647 3601,2667 3600,2668 3600,2681 3601,2682 3601,2718 3602,2719 3602,2729 3601,2730 3601,2736 3602,2737 3602,2745 3603,2746 3603,2749 3602,2750 3602,2772 3601,2773 3601,2787 3602,2788 3602,2848 3601,2849 3601,2866 3602,2867 3602,2869 3604,2871 3604,2872 3607,2875 3608,2875 3609,2876 3611,2876 3612,2877 3616,2877 3617,2876 3645,2876 3646,2875 3699,2875 3700,2874 3737,2874 3738,2873 3762,2873 3763,2872 3777,2872 3778,2871 3779,2872 3813,2872 3814,2871 3855,2871 3856,2870 3892,2870 3893,2869 3902,2869 3903,2868 3925,2868 3926,2867 3952,2867 3953,2866 3955,2866 3956,2867 3959,2867 3960,2868 3963,2868 3964,2869 4014,2869 4015,2868 4027,2868 4028,2867 4107,2867 4108,2866 4138,2866 4139,2867 4148,2867 4149,2866 4168,2866 4169,2865 4199,2865 4200,2864 4223,2864 4224,2865 4231,2865 4232,2866 4250,2866 4251,2865 4268,2865 4269,2864 4288,2864 4289,2865 4313,2865 4314,2864 4336,2864 4337,2863 4343,2863 4344,2862 4359,2862 4360,2861 4362,2861 4363,2860 4364,2860 4366,2858 4366,2857 4367,2856 4367,2821 4366,2820 4366,2819 4367,2818 4367,2800 4366,2799 4366,2771 4367,2770 4367,2749 4366,2748 4366,2726 4367,2725 4367,2719 4366,2718 4366,2702 4365,2701 4365,2691 4364,2690 4364,2680 4365,2679 4365,2671 4364,2670 4364,2648 4363,2647 4363,2636 4364,2635 4364,2603 4363,2602 4363,2596 4362,2595 4362,2562 4361,2561 4361,2552 4362,2551 4362,2542 4361,2541 4361,2520 4360,2519 4360,2511 4359,2510 4359,2508 4357,2506 4355,2506 4354,2505 4350,2505 4349,2504 4306,2504 4305,2503" fill="rgba(129,191,187,0.3)" stroke="rgb(129,191,187)" stroke-width="2" data-block-id="0008" data-name="b-0011" /><text x="3984" y="2691" text-anchor="middle" dominant-baseline="middle" class="block-label" fill="rgb(129,191,187)" stroke="white" stroke-width="3" paint-order="stroke">b-0011</text><polygon points="4252,1497 4251,1498 4240,1498 4239,1499 4234,1499 4233,1498 4227,1498 4226,1499 4216,1499 4215,1498 4203,1498 4202,1499 4200,1499 4199,1500 4197,1500 4196,1501 4193,1501 4192,1502 4189,1502 4188,1501 4182,1501 4181,1502 4179,1502 4178,1503 4177,1503 4176,1504 4173,1504 4172,1505 4165,1505 4164,1504 4160,1504 4159,1503 4149,1503 4148,1504 4144,1504 4143,1503 4137,1503 4136,1502 4129,1502 4128,1503 4120,1503 4119,1504 4117,1504 4116,1505 4115,1505 4114,1506 4113,1506 4111,1508 4110,1507 4108,1507 4106,1505 4105,1505 4104,1504 4103,1504 4102,1503 4100,1503 4099,1502 4095,1502 4094,1501 4090,1501 4089,1500 4080,1500 4079,1501 4075,1501 4074,1502 4072,1502 4071,1503 4068,1503 4067,1504 4065,1504 4064,1505 4060,1505 4059,1504 4057,1504 4056,1503 4052,1503 4051,1502 4034,1502 4033,1503 4027,1503 4026,1504 4019,1504 4018,1505 4009,1505 4008,1504 3986,1504 3985,1505 3972,1505 3971,1506 3962,1506 3961,1505 3942,1505 3941,1506 3878,1506 3877,1507 3869,1507 3868,1506 3862,1506 3861,1505 3851,1505 3850,1506 3830,1506 3829,1507 3823,1507 3822,1506 3803,1506 3802,1507 3798,1507 3797,1506 3720,1506 3719,1505 3718,1506 3691,1506 3690,1507 3678,1507 3677,1506 3661,1506 3660,1507 3640,1507 3639,1508 3614,1508 3613,1509 3592,1509 3591,1510 3588,1510 3587,1511 3585,1511 3582,1514 3582,1515 3580,1517 3580,1518 3579,1519 3579,1520 3578,1521 3578,1539 3577,1540 3577,1544 3576,1545 3576,1547 3575,1548 3575,1549 3574,1550 3574,1551 3573,1552 3573,1553 3572,1554 3572,1555 3571,1556 3571,1559 3572,1560 3572,1561 3574,1563 3574,1564 3575,1565 3575,1566 3576,1567 3576,1568 3577,1569 3577,1577 3576,1578 3576,1582 3577,1583 3577,1587 3578,1588 3578,1590 3579,1591 3579,1615 3578,1616 3578,1632 3579,1633 3579,1635 3580,1636 3580,1639 3581,1640 3581,1647 3582,1648 3582,1655 3581,1656 3581,1662 3580,1663 3580,1678 3581,1679 3581,1703 3580,1704 3580,1720 3581,1721 3581,1730 3582,1731 3582,1744 3581,1745 3581,1754 3580,1755 3580,1760 3579,1761 3579,1766 3578,1767 3578,1774 3579,1775 3579,1777 3580,1778 3580,1781 3581,1782 3581,1784 3582,1785 3582,1787 3583,1788 3583,1789 3584,1790 3584,1792 3585,1793 3585,1801 3584,1802 3584,1805 3583,1806 3583,1812 3582,1813 3582,1823 3583,1824 3583,1835 3582,1836 3582,1838 3580,1840 3580,1841 3579,1842 3579,1843 3578,1844 3578,1847 3579,1848 3579,1854 3581,1856 3581,1857 3582,1857 3585,1860 3586,1860 3587,1861 3588,1861 3589,1862 3593,1862 3594,1863 3597,1863 3598,1864 3599,1864 3600,1865 3602,1865 3603,1866 3609,1866 3610,1867 3619,1867 3620,1868 3623,1868 3624,1867 3629,1867 3630,1866 3639,1866 3640,1867 3664,1867 3665,1868 3673,1868 3674,1867 3679,1867 3680,1866 3684,1866 3685,1867 3691,1867 3692,1868 3695,1868 3696,1867 3700,1867 3701,1866 3737,1866 3738,1867 3744,1867 3745,1866 3770,1866 3771,1865 3780,1865 3781,1866 3787,1866 3788,1867 3796,1867 3797,1866 3810,1866 3811,1865 3821,1865 3822,1864 3843,1864 3844,1863 3863,1863 3864,1864 3881,1864 3882,1863 3888,1863 3889,1862 3912,1862 3913,1861 3917,1861 3918,1860 3924,1860 3925,1861 3936,1861 3937,1860 3962,1860 3963,1859 4065,1859 4066,1860 4068,1860 4069,1861 4071,1861 4072,1862 4075,1862 4076,1863 4079,1863 4080,1864 4082,1864 4083,1865 4085,1865 4086,1866 4089,1866 4090,1867 4092,1867 4093,1868 4097,1868 4098,1869 4110,1869 4111,1868 4112,1868 4118,1862 4119,1862 4120,1861 4122,1861 4123,1860 4127,1860 4128,1861 4134,1861 4135,1860 4170,1860 4171,1859 4237,1859 4238,1858 4243,1858 4244,1859 4260,1859 4261,1858 4271,1858 4272,1859 4293,1859 4294,1858 4306,1858 4307,1857 4334,1857 4335,1856 4338,1856 4340,1854 4341,1854 4343,1852 4343,1851 4347,1847 4347,1846 4348,1845 4348,1843 4349,1842 4349,1841 4348,1840 4348,1835 4347,1834 4347,1820 4346,1819 4346,1789 4345,1788 4345,1756 4346,1755 4346,1745 4345,1744 4345,1732 4344,1731 4344,1713 4343,1712 4343,1679 4342,1678 4342,1604 4341,1603 4341,1594 4340,1593 4340,1557 4339,1556 4339,1539 4340,1538 4340,1518 4339,1517 4339,1508 4338,1507 4338,1504 4337,1503 4337,1501 4334,1498 4331,1498 4330,1497 4317,1497 4316,1498 4285,1498 4284,1497 4272,1497 4271,1498 4256,1498 4255,1497" fill="rgba(20,160,203,0.3)" stroke="rgb(20,160,203)" stroke-width="2" data-block-id="0009" data-name="b-0012" /><text x="3911" y="1677" text-anchor="middle" dominant-baseline="middle" class="block-label" fill="rgb(20,160,203)" stroke="white" stroke-width="3" paint-order="stroke">b-0012</text><polygon points="3086,2052 3085,2053 3078,2053 3077,2054 3074,2054 3073,2055 3072,2055 3071,2056 3070,2056 3069,2057 3068,2057 3066,2059 3064,2059 3063,2060 3050,2060 3049,2061 3030,2061 3029,2062 2972,2062 2971,2063 2967,2063 2966,2062 2948,2062 2947,2063 2867,2063 2866,2062 2859,2062 2858,2063 2844,2063 2843,2064 2816,2064 2815,2063 2800,2063 2799,2062 2797,2062 2796,2061 2794,2061 2793,2060 2791,2060 2790,2059 2787,2059 2786,2058 2782,2058 2781,2057 2777,2057 2776,2058 2773,2058 2772,2059 2769,2059 2768,2060 2767,2060 2766,2061 2764,2061 2763,2062 2762,2062 2761,2063 2759,2063 2758,2064 2750,2064 2749,2063 2723,2063 2722,2062 2714,2062 2713,2061 2710,2061 2709,2060 2706,2060 2705,2059 2704,2059 2703,2058 2701,2058 2700,2057 2699,2057 2698,2056 2690,2056 2689,2057 2687,2057 2686,2058 2685,2058 2685,2060 2684,2061 2684,2071 2685,2072 2685,2075 2689,2079 2689,2080 2690,2081 2690,2107 2691,2108 2691,2116 2692,2117 2692,2122 2693,2123 2693,2126 2694,2127 2694,2142 2692,2144 2692,2145 2688,2149 2688,2150 2686,2152 2686,2155 2687,2156 2687,2158 2688,2159 2688,2160 2689,2161 2689,2164 2690,2165 2690,2168 2691,2169 2691,2172 2692,2173 2692,2192 2693,2193 2693,2199 2694,2200 2694,2213 2695,2214 2695,2231 2694,2232 2694,2253 2695,2254 2695,2260 2696,2261 2696,2264 2697,2265 2697,2268 2698,2269 2698,2276 2697,2277 2697,2281 2696,2282 2696,2289 2697,2290 2697,2297 2696,2298 2696,2321 2695,2322 2695,2325 2694,2326 2694,2327 2693,2328 2693,2331 2692,2332 2692,2334 2693,2335 2693,2344 2694,2345 2694,2347 2695,2348 2695,2351 2696,2352 2696,2374 2697,2375 2697,2392 2698,2393 2698,2402 2699,2403 2699,2409 2700,2410 2700,2413 2701,2414 2701,2415 2706,2420 2725,2420 2726,2419 2739,2419 2740,2420 2755,2420 2756,2419 2809,2419 2810,2418 2818,2418 2819,2417 2826,2417 2827,2416 2876,2416 2877,2415 2892,2415 2893,2416 2914,2416 2915,2415 2969,2415 2970,2414 2984,2414 2985,2415 3011,2415 3012,2414 3033,2414 3034,2415 3065,2415 3066,2416 3069,2416 3070,2417 3072,2417 3073,2418 3075,2418 3076,2419 3079,2419 3080,2420 3085,2420 3086,2421 3098,2421 3099,2420 3103,2420 3104,2419 3107,2419 3108,2418 3110,2418 3111,2417 3112,2417 3113,2416 3114,2416 3115,2415 3117,2415 3118,2414 3119,2414 3120,2413 3121,2413 3122,2412 3124,2412 3125,2413 3127,2413 3128,2414 3131,2414 3132,2415 3154,2415 3155,2416 3164,2416 3165,2415 3178,2415 3179,2416 3187,2416 3188,2415 3200,2415 3201,2416 3209,2416 3210,2415 3217,2415 3218,2414 3220,2414 3221,2415 3236,2415 3237,2414 3258,2414 3259,2413 3270,2413 3271,2414 3274,2414 3275,2415 3284,2415 3285,2414 3296,2414 3297,2415 3305,2415 3306,2414 3322,2414 3323,2415 3327,2415 3328,2414 3334,2414 3335,2413 3341,2413 3342,2414 3356,2414 3357,2413 3369,2413 3370,2414 3374,2414 3375,2413 3381,2413 3382,2412 3389,2412 3390,2413 3401,2413 3402,2412 3423,2412 3424,2411 3446,2411 3447,2410 3449,2410 3450,2409 3452,2409 3453,2408 3454,2408 3456,2406 3457,2406 3457,2405 3458,2404 3458,2403 3459,2402 3459,2381 3458,2380 3458,2334 3457,2333 3457,2315 3458,2314 3458,2298 3459,2297 3459,2294 3458,2293 3458,2284 3457,2283 3457,2274 3456,2273 3456,2262 3455,2261 3455,2258 3456,2257 3456,2216 3455,2215 3455,2208 3456,2207 3456,2198 3455,2197 3455,2191 3454,2190 3454,2180 3455,2179 3455,2175 3454,2174 3454,2146 3453,2145 3453,2133 3454,2132 3454,2125 3453,2124 3453,2100 3452,2099 3452,2072 3451,2071 3451,2066 3450,2065 3450,2062 3449,2061 3449,2059 3448,2058 3448,2057 3445,2054 3444,2054 3443,2053 3438,2053 3437,2052 3391,2052 3390,2053 3368,2053 3367,2054 3357,2054 3356,2053 3350,2053 3349,2052 3344,2052 3343,2053 3297,2053 3296,2054 3265,2054 3264,2055 3263,2054 3254,2054 3253,2055 3212,2055 3211,2054 3205,2054 3204,2055 3197,2055 3196,2056 3191,2056 3190,2055 3158,2055 3157,2056 3128,2056 3127,2057 3116,2057 3115,2058 3112,2058 3111,2057 3109,2057 3108,2056 3106,2056 3105,2055 3104,2055 3103,2054 3101,2054 3100,2053 3093,2053 3092,2052" fill="rgba(57,21,252,0.3)" stroke="rgb(57,21,252)" stroke-width="2" data-block-id="0010" data-name="b-0013" /><text x="3039" y="2232" text-anchor="middle" dominant-baseline="middle" class="block-label" fill="rgb(57,21,252)" stroke="white" stroke-width="3" paint-order="stroke">b-0013</text><polygon points="4227,2038 4226,2039 4208,2039 4207,2040 4168,2040 4167,2041 4122,2041 4121,2042 4113,2042 4112,2043 4103,2043 4102,2044 4091,2044 4090,2043 4050,2043 4049,2042 4018,2042 4017,2043 4015,2043 4014,2042 4007,2042 4006,2041 3998,2041 3997,2042 3983,2042 3982,2043 3949,2043 3948,2042 3928,2042 3927,2043 3896,2043 3895,2044 3894,2043 3843,2043 3842,2044 3831,2044 3830,2045 3828,2045 3827,2046 3824,2046 3823,2045 3822,2045 3821,2044 3819,2044 3818,2043 3815,2043 3814,2042 3808,2042 3807,2043 3798,2043 3797,2044 3782,2044 3781,2045 3774,2045 3773,2044 3758,2044 3757,2045 3746,2045 3745,2044 3741,2044 3740,2045 3732,2045 3731,2046 3700,2046 3699,2045 3688,2045 3687,2046 3672,2046 3671,2047 3656,2047 3655,2048 3610,2048 3609,2049 3605,2049 3604,2050 3599,2050 3598,2051 3595,2051 3594,2052 3592,2052 3591,2053 3589,2053 3587,2055 3586,2055 3585,2056 3585,2062 3586,2063 3586,2065 3587,2066 3587,2069 3588,2070 3588,2071 3587,2072 3587,2079 3586,2080 3586,2089 3585,2090 3585,2094 3586,2095 3586,2099 3587,2100 3587,2104 3588,2105 3588,2108 3589,2109 3589,2110 3590,2111 3590,2112 3591,2113 3591,2114 3592,2115 3592,2117 3593,2118 3592,2119 3592,2120 3591,2121 3591,2122 3590,2123 3590,2125 3589,2126 3589,2134 3590,2135 3590,2157 3591,2158 3591,2185 3590,2186 3590,2190 3589,2191 3589,2194 3588,2195 3588,2213 3589,2214 3589,2216 3590,2217 3590,2219 3591,2220 3591,2221 3592,2222 3592,2223 3591,2224 3591,2226 3590,2227 3590,2229 3589,2230 3589,2232 3588,2233 3588,2245 3587,2246 3588,2247 3588,2251 3589,2252 3589,2254 3590,2255 3590,2257 3591,2258 3591,2261 3590,2262 3590,2265 3589,2266 3589,2268 3588,2269 3588,2274 3589,2275 3589,2302 3590,2303 3590,2308 3589,2309 3589,2311 3588,2312 3588,2314 3587,2315 3587,2319 3586,2320 3586,2324 3587,2325 3587,2341 3588,2342 3588,2345 3589,2346 3589,2347 3590,2348 3590,2349 3591,2350 3591,2351 3592,2352 3592,2353 3593,2354 3593,2390 3594,2391 3594,2393 3595,2394 3595,2395 3596,2396 3596,2397 3597,2398 3597,2400 3600,2403 3601,2403 3602,2404 3605,2404 3606,2405 3609,2405 3610,2406 3625,2406 3626,2405 3654,2405 3655,2406 3672,2406 3673,2405 3679,2405 3680,2404 3686,2404 3687,2405 3710,2405 3711,2404 3728,2404 3729,2403 3773,2403 3774,2402 3783,2402 3784,2401 3791,2401 3792,2402 3798,2402 3799,2403 3803,2403 3804,2402 3820,2402 3821,2401 3843,2401 3844,2402 3851,2402 3852,2401 3868,2401 3869,2400 3879,2400 3880,2399 3894,2399 3895,2400 3904,2400 3905,2399 3938,2399 3939,2398 3960,2398 3961,2399 3984,2399 3985,2398 3997,2398 3998,2399 4007,2399 4008,2398 4016,2398 4017,2397 4027,2397 4028,2398 4056,2398 4057,2397 4069,2397 4070,2398 4080,2398 4081,2397 4093,2397 4094,2396 4127,2396 4128,2397 4135,2397 4136,2396 4139,2396 4140,2395 4141,2395 4142,2394 4143,2394 4144,2393 4147,2393 4148,2394 4150,2394 4151,2395 4154,2395 4155,2396 4166,2396 4167,2397 4169,2397 4170,2396 4177,2396 4178,2395 4194,2395 4195,2396 4207,2396 4208,2395 4213,2395 4214,2394 4227,2394 4228,2395 4259,2395 4260,2394 4300,2394 4301,2393 4346,2393 4347,2392 4350,2392 4353,2389 4354,2389 4354,2388 4355,2387 4355,2385 4356,2384 4356,2382 4357,2381 4357,2378 4358,2377 4358,2347 4357,2346 4357,2338 4356,2337 4356,2327 4357,2326 4357,2322 4358,2321 4358,2306 4357,2305 4357,2298 4356,2297 4356,2293 4355,2292 4355,2290 4354,2289 4354,2286 4353,2285 4353,2280 4354,2279 4354,2275 4355,2274 4355,2263 4354,2262 4354,2231 4355,2230 4355,2221 4354,2220 4354,2217 4353,2216 4353,2215 4352,2214 4352,2199 4353,2198 4353,2180 4354,2179 4354,2175 4353,2174 4353,2169 4352,2168 4352,2128 4351,2127 4351,2120 4350,2119 4350,2112 4351,2111 4351,2094 4352,2093 4352,2071 4351,2070 4351,2055 4350,2054 4350,2046 4349,2045 4349,2044 4347,2042 4346,2042 4345,2041 4344,2041 4343,2040 4340,2040 4339,2039 4335,2039 4334,2038 4249,2038 4248,2039 4231,2039 4230,2038" fill="rgba(235,88,48,0.3)" stroke="rgb(235,88,48)" stroke-width="2" data-block-id="0011" data-name="b-0014" /><text x="3907" y="2227" text-anchor="middle" dominant-baseline="middle" class="block-label" fill="rgb(235,88,48)" stroke="white" stroke-width="3" paint-order="stroke">b-0014</text><polygon points="4225,567 4224,568 4199,568 4198,569 4176,569 4175,570 4159,570 4158,569 4153,569 4152,570 4035,570 4034,571 4031,571 4030,572 4028,572 4027,573 4011,573 4010,572 3995,572 3994,573 3938,573 3937,572 3892,572 3891,573 3821,573 3820,574 3771,574 3770,575 3757,575 3756,574 3752,574 3751,575 3744,575 3743,576 3740,576 3739,575 3723,575 3722,576 3713,576 3712,577 3694,577 3693,576 3686,576 3685,575 3675,575 3674,576 3668,576 3667,575 3662,575 3661,574 3643,574 3642,575 3589,575 3588,576 3583,576 3582,577 3578,577 3577,578 3574,578 3573,579 3572,579 3571,580 3570,580 3568,582 3567,582 3566,583 3566,584 3564,586 3564,588 3563,589 3563,597 3562,598 3562,615 3563,616 3563,663 3564,664 3564,700 3563,701 3563,724 3562,725 3562,734 3563,735 3563,740 3564,741 3564,751 3565,752 3565,757 3566,758 3566,763 3567,764 3567,793 3566,794 3566,799 3565,800 3565,803 3566,804 3566,807 3567,808 3567,811 3568,812 3568,816 3567,817 3567,835 3566,836 3566,852 3567,853 3567,856 3568,857 3568,879 3569,880 3569,886 3568,887 3568,893 3567,894 3567,898 3568,899 3568,903 3569,904 3569,922 3570,923 3570,924 3574,928 3575,928 3576,929 3578,929 3579,930 3581,930 3582,931 3587,931 3588,932 3589,931 3601,931 3602,932 3605,932 3606,933 3624,933 3625,934 3631,934 3632,935 3639,935 3640,934 3648,934 3649,933 3679,933 3680,934 3685,934 3686,933 3700,933 3701,932 3746,932 3747,931 3760,931 3761,932 3770,932 3771,931 3781,931 3782,930 3793,930 3794,929 3816,929 3817,928 3828,928 3829,929 3834,929 3835,930 3842,930 3843,929 3852,929 3853,928 3860,928 3861,927 3877,927 3878,926 3885,926 3886,927 3916,927 3917,926 3926,926 3927,927 3946,927 3947,926 3976,926 3977,927 3985,927 3986,928 4029,928 4030,929 4072,929 4073,930 4080,930 4081,931 4094,931 4095,930 4099,930 4100,929 4103,929 4104,928 4106,928 4107,927 4226,927 4227,926 4250,926 4251,925 4304,925 4305,924 4324,924 4325,923 4326,923 4328,921 4328,920 4329,919 4329,916 4330,915 4330,912 4331,911 4331,904 4330,903 4330,896 4329,895 4329,880 4328,879 4328,867 4327,866 4327,838 4326,837 4326,822 4327,821 4327,778 4326,777 4326,748 4325,747 4325,736 4326,735 4326,723 4325,722 4325,657 4324,656 4324,654 4323,653 4323,652 4322,651 4322,650 4321,649 4321,643 4322,642 4322,639 4323,638 4323,615 4324,614 4324,611 4323,610 4323,608 4322,607 4322,604 4321,603 4321,599 4320,598 4321,597 4321,580 4320,579 4320,575 4319,574 4319,573 4317,571 4316,571 4315,570 4314,570 4313,569 4306,569 4305,568 4254,568 4253,567 4247,567 4246,568 4239,568 4238,567" fill="rgba(218,58,254,0.3)" stroke="rgb(218,58,254)" stroke-width="2" data-block-id="0012" data-name="b-0015" /><text x="3903" y="757" text-anchor="middle" dominant-baseline="middle" class="block-label" fill="rgb(218,58,254)" stroke="white" stroke-width="3" paint-order="stroke">b-0015</text><polygon points="4239,1030 4237,1032 4236,1032 4235,1033 4234,1033 4232,1035 4231,1035 4230,1036 4211,1036 4210,1037 4156,1037 4155,1038 4071,1038 4070,1039 4066,1039 4065,1040 4059,1040 4058,1039 4054,1039 4053,1038 4032,1038 4031,1039 4001,1039 4000,1040 3996,1040 3995,1041 3991,1041 3990,1040 3988,1040 3987,1039 3985,1039 3984,1038 3958,1038 3957,1039 3952,1039 3951,1040 3947,1040 3946,1041 3913,1041 3912,1040 3902,1040 3901,1041 3888,1041 3887,1042 3875,1042 3874,1043 3873,1043 3872,1042 3866,1042 3865,1041 3855,1041 3854,1042 3851,1042 3850,1043 3847,1043 3846,1042 3842,1042 3841,1041 3829,1041 3828,1042 3820,1042 3819,1041 3806,1041 3805,1042 3788,1042 3787,1043 3769,1043 3768,1042 3755,1042 3754,1043 3747,1043 3746,1044 3743,1044 3742,1045 3738,1045 3737,1046 3722,1046 3721,1045 3687,1045 3686,1046 3678,1046 3677,1045 3663,1045 3662,1046 3628,1046 3627,1045 3595,1045 3594,1046 3574,1046 3570,1050 3570,1052 3569,1053 3569,1079 3568,1080 3568,1113 3569,1114 3569,1119 3570,1120 3570,1131 3571,1132 3571,1166 3572,1167 3572,1171 3571,1172 3571,1186 3572,1187 3572,1190 3573,1191 3573,1194 3574,1195 3574,1214 3575,1215 3575,1218 3574,1219 3574,1237 3575,1238 3575,1244 3574,1245 3574,1250 3573,1251 3573,1253 3574,1254 3574,1257 3575,1258 3575,1260 3576,1261 3576,1262 3577,1263 3577,1265 3578,1266 3578,1268 3579,1269 3579,1271 3580,1272 3580,1275 3581,1276 3581,1285 3582,1286 3582,1303 3581,1304 3581,1310 3580,1311 3580,1314 3581,1315 3581,1321 3582,1322 3582,1340 3581,1341 3581,1358 3582,1359 3582,1364 3583,1365 3583,1368 3584,1369 3584,1378 3583,1379 3583,1383 3584,1384 3584,1387 3585,1388 3585,1389 3586,1390 3586,1391 3587,1392 3587,1393 3588,1394 3596,1394 3597,1395 3598,1394 3601,1394 3603,1392 3604,1392 3605,1391 3606,1391 3607,1390 3611,1390 3612,1389 3615,1389 3616,1390 3621,1390 3622,1389 3625,1389 3626,1388 3628,1388 3629,1387 3641,1387 3642,1388 3647,1388 3648,1389 3673,1389 3674,1388 3677,1388 3678,1387 3692,1387 3693,1388 3696,1388 3697,1389 3701,1389 3702,1390 3709,1390 3710,1391 3720,1391 3721,1390 3724,1390 3725,1389 3734,1389 3735,1390 3737,1390 3738,1391 3740,1391 3741,1392 3743,1392 3744,1391 3745,1391 3746,1390 3748,1390 3749,1389 3752,1389 3753,1388 3756,1388 3757,1387 3760,1387 3761,1386 3763,1386 3764,1385 3768,1385 3769,1384 3772,1384 3773,1383 3775,1383 3776,1382 3777,1382 3774,1379 3774,1377 3773,1376 3773,1371 3774,1370 3774,1369 3775,1368 3775,1367 3779,1363 3781,1363 3782,1362 3784,1362 3785,1361 3786,1361 3787,1360 3788,1361 3788,1369 3789,1370 3789,1383 3790,1384 3790,1385 3791,1386 3791,1387 3792,1388 3792,1389 3796,1393 3797,1393 3798,1394 3800,1394 3801,1395 3808,1395 3809,1396 3817,1396 3818,1395 3829,1395 3830,1396 3834,1396 3835,1397 3839,1397 3840,1396 3867,1396 3868,1395 3877,1395 3878,1396 3889,1396 3890,1395 3912,1395 3913,1394 3925,1394 3926,1395 3937,1395 3938,1394 3951,1394 3952,1395 3957,1395 3958,1394 3960,1394 3961,1393 3963,1393 3964,1392 3965,1392 3966,1391 3969,1391 3970,1392 3976,1392 3977,1393 3991,1393 3992,1394 4001,1394 4002,1393 4008,1393 4009,1392 4018,1392 4019,1393 4024,1393 4025,1394 4028,1394 4029,1393 4038,1393 4039,1392 4065,1392 4066,1393 4069,1393 4070,1394 4073,1394 4074,1395 4084,1395 4085,1394 4090,1394 4091,1393 4095,1393 4096,1392 4100,1392 4101,1391 4107,1391 4108,1390 4111,1390 4112,1391 4121,1391 4122,1392 4136,1392 4137,1391 4139,1391 4140,1390 4143,1390 4144,1389 4163,1389 4164,1390 4173,1390 4174,1391 4179,1391 4180,1392 4209,1392 4210,1391 4212,1391 4213,1390 4217,1390 4218,1389 4272,1389 4273,1388 4325,1388 4326,1387 4327,1387 4329,1385 4330,1385 4331,1384 4331,1383 4332,1382 4332,1364 4333,1363 4333,1358 4332,1357 4332,1330 4331,1329 4331,1307 4332,1306 4332,1281 4331,1280 4331,1273 4332,1272 4332,1251 4331,1250 4331,1237 4330,1236 4330,1188 4329,1187 4329,1175 4328,1174 4328,1159 4329,1158 4329,1147 4328,1146 4328,1136 4327,1135 4327,1114 4328,1113 4328,1092 4327,1091 4327,1078 4328,1077 4328,1075 4327,1074 4327,1044 4326,1043 4326,1038 4324,1036 4274,1036 4273,1037 4255,1037 4254,1036 4250,1036 4249,1035 4248,1035 4247,1034 4246,1034 4245,1033 4244,1033 4242,1031 4241,1031 4240,1030" fill="rgba(169,219,187,0.3)" stroke="rgb(169,219,187)" stroke-width="2" data-block-id="0013" data-name="b-0016" /><text x="3887" y="1259" text-anchor="middle" dominant-baseline="middle" class="block-label" fill="rgb(169,219,187)" stroke="white" stroke-width="3" paint-order="stroke">b-0016</text><polygon points="1800,2061 1799,2062 1796,2062 1795,2063 1792,2063 1791,2064 1781,2064 1780,2063 1774,2063 1773,2064 1755,2064 1754,2065 1751,2065 1750,2066 1749,2066 1746,2069 1746,2070 1745,2071 1745,2076 1744,2077 1744,2109 1745,2110 1745,2122 1744,2123 1744,2142 1745,2143 1745,2165 1744,2166 1744,2201 1743,2202 1743,2210 1742,2211 1742,2254 1743,2255 1743,2267 1742,2268 1742,2273 1743,2274 1743,2292 1742,2293 1742,2298 1743,2299 1743,2312 1742,2313 1742,2327 1743,2328 1743,2334 1744,2335 1744,2343 1745,2344 1745,2399 1746,2400 1746,2403 1745,2404 1745,2416 1749,2420 1750,2420 1751,2421 1753,2421 1754,2422 1756,2422 1757,2423 1761,2423 1762,2424 1771,2424 1772,2425 1777,2425 1778,2424 1789,2424 1790,2423 1791,2423 1792,2424 1814,2424 1815,2423 1822,2423 1823,2422 1903,2422 1904,2423 1941,2423 1942,2424 1964,2424 1965,2423 1969,2423 1970,2424 1999,2424 2000,2423 2185,2423 2186,2422 2192,2422 2193,2421 2200,2421 2201,2422 2213,2422 2214,2423 2221,2423 2222,2422 2232,2422 2233,2423 2328,2423 2329,2422 2468,2422 2469,2421 2471,2421 2475,2417 2475,2416 2476,2415 2476,2395 2477,2394 2477,2384 2476,2383 2476,2358 2477,2357 2477,2301 2478,2300 2478,2286 2477,2285 2477,2273 2478,2272 2478,2223 2477,2222 2477,2210 2478,2209 2478,2159 2479,2158 2479,2137 2478,2136 2478,2124 2477,2123 2477,2108 2478,2107 2478,2103 2477,2102 2477,2086 2476,2085 2476,2068 2474,2066 2474,2065 2473,2065 2471,2063 2469,2063 2468,2062 2459,2062 2458,2063 2450,2063 2449,2062 2428,2062 2427,2063 2394,2063 2393,2062 2379,2062 2378,2063 2354,2063 2353,2062 2340,2062 2339,2063 2236,2063 2235,2064 2221,2064 2220,2063 2168,2063 2167,2064 2150,2064 2149,2063 2143,2063 2142,2064 2132,2064 2131,2065 2117,2065 2116,2064 1934,2064 1933,2063 1930,2063 1929,2064 1903,2064 1902,2063 1817,2063 1816,2064 1813,2064 1812,2063 1807,2063 1806,2062 1803,2062 1802,2061" fill="rgba(207,14,189,0.3)" stroke="rgb(207,14,189)" stroke-width="2" data-block-id="0014" data-name="b-0017" /><text x="2053" y="2227" text-anchor="middle" dominant-baseline="middle" class="block-label" fill="rgb(207,14,189)" stroke="white" stroke-width="3" paint-order="stroke">b-0017</text><polygon points="1850,1045 1849,1046 1842,1046 1841,1047 1826,1047 1825,1046 1815,1046 1814,1047 1795,1047 1794,1048 1785,1048 1784,1047 1763,1047 1762,1048 1752,1048 1751,1049 1750,1049 1749,1050 1748,1050 1747,1051 1746,1051 1744,1053 1744,1056 1743,1057 1743,1061 1742,1062 1742,1070 1741,1071 1741,1137 1742,1138 1742,1169 1743,1170 1743,1174 1742,1175 1742,1202 1741,1203 1741,1225 1740,1226 1740,1235 1741,1236 1741,1252 1740,1253 1740,1256 1741,1257 1741,1273 1742,1274 1742,1293 1741,1294 1741,1321 1740,1322 1740,1327 1741,1328 1741,1334 1742,1335 1742,1341 1741,1342 1741,1346 1740,1347 1740,1351 1741,1352 1741,1355 1742,1356 1742,1359 1743,1360 1743,1366 1742,1367 1742,1376 1743,1377 1743,1379 1744,1380 1744,1381 1745,1382 1745,1383 1746,1384 1746,1386 1747,1387 1747,1392 1748,1393 1748,1395 1749,1396 1750,1396 1751,1397 1752,1397 1754,1399 1755,1399 1756,1400 1757,1400 1758,1401 1759,1401 1760,1402 1761,1402 1762,1403 1764,1403 1765,1404 1781,1404 1782,1403 1834,1403 1835,1402 1849,1402 1850,1403 1930,1403 1931,1402 1944,1402 1945,1403 1963,1403 1964,1404 1990,1404 1991,1405 2006,1405 2007,1406 2024,1406 2025,1407 2070,1407 2071,1406 2104,1406 2105,1407 2142,1407 2143,1406 2148,1406 2149,1407 2176,1407 2177,1406 2232,1406 2233,1407 2261,1407 2262,1408 2298,1408 2299,1407 2300,1408 2305,1408 2306,1409 2309,1409 2310,1410 2318,1410 2319,1409 2330,1409 2331,1410 2337,1410 2338,1409 2343,1409 2344,1408 2374,1408 2375,1409 2392,1409 2393,1408 2426,1408 2427,1409 2458,1409 2459,1408 2464,1408 2465,1407 2466,1407 2467,1406 2468,1406 2469,1405 2469,1404 2471,1402 2471,1401 2472,1400 2472,1398 2473,1397 2473,1369 2472,1368 2472,1351 2473,1350 2473,1329 2474,1328 2474,1321 2473,1320 2473,1236 2474,1235 2474,1228 2475,1227 2475,1186 2476,1185 2476,1184 2475,1183 2475,1165 2474,1164 2474,1147 2473,1146 2474,1145 2474,1128 2473,1127 2473,1115 2474,1114 2474,1109 2473,1108 2473,1099 2474,1098 2474,1091 2475,1090 2475,1086 2474,1085 2474,1078 2473,1077 2473,1064 2472,1063 2472,1060 2471,1059 2471,1057 2470,1056 2470,1055 2467,1052 2465,1052 2464,1051 2444,1051 2443,1050 2434,1050 2433,1049 2429,1049 2428,1050 2420,1050 2419,1051 2413,1051 2412,1050 2399,1050 2398,1051 2397,1051 2396,1050 2388,1050 2387,1049 2381,1049 2380,1050 2355,1050 2354,1051 2332,1051 2331,1052 2326,1052 2325,1053 2318,1053 2317,1052 2312,1052 2311,1053 2306,1053 2305,1054 2286,1054 2285,1055 2267,1055 2266,1056 2263,1056 2262,1055 2111,1055 2110,1054 2097,1054 2096,1055 2071,1055 2070,1054 2024,1054 2023,1053 2013,1053 2012,1052 2002,1052 2001,1051 1994,1051 1993,1050 1989,1050 1988,1051 1974,1051 1973,1050 1959,1050 1958,1051 1952,1051 1951,1050 1933,1050 1932,1049 1929,1049 1928,1048 1924,1048 1923,1047 1915,1047 1914,1046 1900,1046 1899,1047 1876,1047 1875,1046 1864,1046 1863,1045" fill="rgba(189,174,189,0.3)" stroke="rgb(189,174,189)" stroke-width="2" data-block-id="0015" data-name="b-0018" /><text x="2089" y="1219" text-anchor="middle" dominant-baseline="middle" class="block-label" fill="rgb(189,174,189)" stroke="white" stroke-width="3" paint-order="stroke">b-0018</text><polygon points="1772,1518 1771,1519 1768,1519 1767,1520 1755,1520 1754,1521 1752,1521 1751,1522 1750,1522 1748,1524 1748,1525 1747,1526 1747,1527 1745,1529 1745,1530 1744,1531 1744,1533 1743,1534 1743,1536 1744,1537 1744,1538 1745,1539 1745,1541 1746,1542 1746,1546 1747,1547 1747,1557 1746,1558 1746,1612 1745,1613 1745,1651 1744,1652 1744,1685 1745,1686 1745,1689 1744,1690 1744,1699 1743,1700 1743,1718 1742,1719 1742,1736 1741,1737 1741,1742 1740,1743 1740,1756 1739,1757 1739,1795 1738,1796 1738,1836 1737,1837 1737,1851 1736,1852 1736,1869 1737,1870 1737,1871 1738,1872 1738,1873 1740,1875 1741,1875 1742,1876 1745,1876 1746,1877 1765,1877 1766,1878 1913,1878 1914,1877 1937,1877 1938,1878 1949,1878 1950,1877 1966,1877 1967,1876 1998,1876 1999,1877 2012,1877 2013,1876 2019,1876 2020,1877 2050,1877 2051,1876 2146,1876 2147,1877 2179,1877 2180,1876 2190,1876 2191,1875 2196,1875 2197,1876 2244,1876 2245,1875 2278,1875 2279,1874 2294,1874 2295,1875 2307,1875 2308,1876 2315,1876 2316,1875 2330,1875 2331,1876 2358,1876 2359,1875 2366,1875 2367,1876 2374,1876 2375,1875 2450,1875 2451,1874 2458,1874 2459,1873 2463,1873 2464,1872 2466,1872 2467,1871 2468,1871 2469,1870 2469,1869 2470,1868 2470,1866 2471,1865 2471,1852 2470,1851 2470,1846 2469,1845 2469,1841 2468,1840 2468,1834 2467,1833 2467,1821 2466,1820 2466,1809 2465,1808 2465,1793 2464,1792 2464,1782 2465,1781 2465,1776 2466,1775 2466,1755 2467,1754 2467,1737 2468,1736 2468,1728 2469,1727 2469,1720 2468,1719 2468,1711 2469,1710 2469,1707 2470,1706 2470,1701 2471,1700 2471,1687 2472,1686 2472,1683 2473,1682 2473,1678 2474,1677 2474,1659 2473,1658 2473,1655 2472,1654 2472,1648 2473,1647 2473,1638 2474,1637 2474,1585 2473,1584 2473,1548 2474,1547 2474,1529 2473,1528 2473,1526 2472,1525 2472,1524 2470,1522 2469,1522 2468,1521 2367,1521 2366,1522 2364,1522 2363,1523 2356,1523 2355,1522 2352,1522 2351,1521 2337,1521 2336,1522 2307,1522 2306,1521 2292,1521 2291,1522 2280,1522 2279,1523 2258,1523 2257,1522 2246,1522 2245,1523 2223,1523 2222,1524 2214,1524 2213,1523 2209,1523 2208,1522 2193,1522 2192,1523 2191,1522 2178,1522 2177,1523 2166,1523 2165,1522 2111,1522 2110,1521 2105,1521 2104,1522 2096,1522 2095,1521 2084,1521 2083,1522 2078,1522 2077,1523 2072,1523 2071,1522 2066,1522 2065,1521 2052,1521 2051,1522 2033,1522 2032,1523 2022,1523 2021,1522 2007,1522 2006,1523 1998,1523 1997,1524 1987,1524 1986,1525 1974,1525 1973,1524 1960,1524 1959,1525 1938,1525 1937,1524 1931,1524 1929,1522 1928,1522 1927,1521 1926,1521 1925,1520 1922,1520 1921,1519 1902,1519 1901,1518 1892,1518 1891,1519 1881,1519 1880,1518 1863,1518 1862,1519 1858,1519 1857,1518 1839,1518 1838,1519 1835,1519 1834,1518 1798,1518 1797,1519 1785,1519 1784,1518" fill="rgba(50,107,54,0.3)" stroke="rgb(50,107,54)" stroke-width="2" data-block-id="0016" data-name="b-0019" /><text x="2115" y="1668" text-anchor="middle" dominant-baseline="middle" class="block-label" fill="rgb(50,107,54)" stroke="white" stroke-width="3" paint-order="stroke">b-0019</text><polygon points="3274,1047 3273,1048 3260,1048 3259,1049 3252,1049 3251,1050 3176,1050 3175,1051 3166,1051 3165,1050 3130,1050 3129,1051 3117,1051 3116,1050 3106,1050 3105,1051 3070,1051 3069,1050 3052,1050 3051,1051 3049,1051 3048,1050 3040,1050 3039,1051 3030,1051 3029,1052 3027,1052 3026,1051 2989,1051 2988,1052 2976,1052 2975,1051 2964,1051 2963,1052 2926,1052 2925,1051 2917,1051 2916,1052 2806,1052 2805,1053 2746,1053 2745,1054 2725,1054 2724,1055 2720,1055 2719,1056 2716,1056 2715,1057 2714,1057 2713,1058 2712,1058 2708,1062 2708,1071 2709,1072 2709,1119 2710,1120 2710,1125 2709,1126 2709,1135 2708,1136 2708,1185 2707,1186 2707,1195 2706,1196 2706,1199 2705,1200 2705,1202 2704,1203 2704,1209 2705,1210 2705,1213 2706,1214 2706,1220 2707,1221 2707,1228 2708,1229 2708,1232 2709,1233 2709,1235 2710,1236 2710,1237 2711,1238 2711,1274 2710,1275 2711,1276 2711,1281 2712,1282 2712,1296 2711,1297 2711,1317 2710,1318 2710,1323 2709,1324 2709,1335 2708,1336 2708,1339 2709,1340 2709,1350 2708,1351 2708,1377 2709,1378 2709,1402 2710,1403 2710,1408 2711,1409 2711,1410 2712,1411 2712,1412 2713,1413 2714,1413 2715,1414 2725,1414 2726,1413 2739,1413 2740,1412 2748,1412 2749,1411 2765,1411 2766,1410 2795,1410 2796,1409 2842,1409 2843,1408 2856,1408 2857,1407 2935,1407 2936,1406 2983,1406 2984,1405 3034,1405 3035,1404 3056,1404 3057,1405 3069,1405 3070,1404 3151,1404 3152,1405 3168,1405 3169,1404 3170,1404 3171,1405 3183,1405 3184,1406 3185,1405 3230,1405 3231,1404 3277,1404 3278,1403 3287,1403 3288,1402 3290,1402 3291,1403 3294,1403 3295,1404 3299,1404 3300,1405 3311,1405 3312,1404 3322,1404 3323,1403 3334,1403 3335,1402 3388,1402 3389,1401 3411,1401 3412,1402 3425,1402 3426,1401 3431,1401 3432,1400 3433,1400 3435,1398 3436,1398 3437,1397 3437,1396 3438,1395 3438,1394 3439,1393 3439,1387 3440,1386 3440,1368 3439,1367 3439,1328 3438,1327 3438,1314 3439,1313 3439,1279 3438,1278 3438,1274 3439,1273 3439,1258 3438,1257 3438,1229 3437,1228 3437,1209 3436,1208 3436,1179 3435,1178 3435,1151 3436,1150 3436,1144 3435,1143 3435,1066 3434,1065 3434,1059 3433,1058 3433,1056 3432,1055 3432,1054 3430,1052 3429,1052 3428,1051 3426,1051 3425,1050 3420,1050 3419,1049 3418,1050 3378,1050 3377,1049 3367,1049 3366,1050 3360,1050 3359,1049 3333,1049 3332,1048 3322,1048 3321,1049 3307,1049 3306,1048 3283,1048 3282,1047" fill="rgba(243,63,248,0.3)" stroke="rgb(243,63,248)" stroke-width="2" data-block-id="0017" data-name="b-0020" /><text x="3062" y="1230" text-anchor="middle" dominant-baseline="middle" class="block-label" fill="rgb(243,63,248)" stroke="white" stroke-width="3" paint-order="stroke">b-0020</text><polygon points="3389,576 3388,577 3267,577 3266,578 3220,578 3219,577 3212,577 3211,578 3188,578 3187,579 3172,579 3171,580 3154,580 3153,579 3119,579 3118,580 3081,580 3080,579 2959,579 2958,580 2936,580 2935,579 2931,579 2930,580 2906,580 2905,581 2897,581 2896,582 2895,582 2894,581 2883,581 2882,582 2876,582 2875,583 2874,582 2872,582 2871,581 2869,581 2868,580 2865,580 2864,579 2840,579 2839,580 2829,580 2828,579 2813,579 2812,580 2788,580 2787,581 2762,581 2761,582 2747,582 2746,583 2735,583 2734,584 2725,584 2724,585 2719,585 2718,586 2713,586 2712,587 2708,587 2707,588 2706,588 2705,589 2704,589 2703,590 2703,591 2702,592 2702,594 2701,595 2701,659 2702,660 2702,686 2703,687 2703,702 2702,703 2702,719 2703,720 2702,721 2702,729 2703,730 2703,747 2704,748 2704,753 2705,754 2705,759 2706,760 2706,776 2705,777 2705,782 2704,783 2704,788 2703,789 2703,800 2704,801 2704,805 2705,806 2705,809 2706,810 2706,819 2705,820 2705,825 2704,826 2704,831 2703,832 2703,852 2702,853 2702,894 2701,895 2701,903 2700,904 2700,911 2701,912 2701,914 2702,915 2702,917 2703,918 2703,921 2704,922 2704,931 2705,932 2705,934 2706,935 2706,936 2707,937 2708,937 2709,938 2727,938 2728,937 2783,937 2784,936 2807,936 2808,935 2813,935 2814,934 2818,934 2819,933 2821,933 2822,932 2824,932 2825,931 2832,931 2833,932 2839,932 2840,933 2849,933 2850,934 2855,934 2856,933 2904,933 2905,934 3039,934 3040,933 3051,933 3052,934 3078,934 3079,933 3110,933 3111,934 3131,934 3132,933 3143,933 3144,934 3179,934 3180,933 3192,933 3193,934 3228,934 3229,933 3234,933 3235,934 3246,934 3247,933 3257,933 3258,934 3273,934 3274,933 3286,933 3287,932 3319,932 3320,931 3326,931 3327,930 3356,930 3357,931 3367,931 3368,930 3389,930 3390,931 3412,931 3413,930 3420,930 3421,929 3424,929 3425,928 3427,928 3429,926 3430,926 3431,925 3431,924 3432,923 3432,921 3433,920 3433,845 3432,844 3432,808 3431,807 3431,787 3432,786 3432,780 3433,779 3433,776 3432,775 3432,768 3431,767 3431,761 3430,760 3430,734 3429,733 3429,727 3430,726 3430,717 3429,716 3429,671 3428,670 3428,664 3427,663 3427,654 3428,653 3428,599 3427,598 3427,584 3426,583 3426,582 3425,581 3425,580 3423,578 3422,578 3421,577 3419,577 3418,576" fill="rgba(130,228,50,0.3)" stroke="rgb(130,228,50)" stroke-width="2" data-block-id="0018" data-name="b-0021" /><text x="3012" y="765" text-anchor="middle" dominant-baseline="middle" class="block-label" fill="rgb(130,228,50)" stroke="white" stroke-width="3" paint-order="stroke">b-0021</text><polygon points="3398,1510 3397,1511 3391,1511 3390,1512 3386,1512 3385,1513 3348,1513 3347,1514 3334,1514 3333,1513 3310,1513 3309,1514 3270,1514 3269,1513 3266,1513 3265,1514 3254,1514 3253,1515 3233,1515 3232,1516 3176,1516 3175,1515 3170,1515 3169,1516 3168,1516 3164,1520 3164,1521 3163,1522 3163,1526 3164,1527 3164,1532 3165,1533 3165,1560 3166,1561 3166,1573 3165,1574 3165,1576 3164,1577 3164,1578 3161,1581 3154,1581 3153,1580 3151,1580 3150,1579 3147,1579 3146,1578 3144,1578 3143,1579 3137,1579 3136,1580 3131,1580 3130,1579 3120,1579 3119,1580 3111,1580 3106,1575 3106,1574 3104,1572 3104,1568 3107,1565 3107,1564 3110,1561 3111,1561 3113,1559 3117,1559 3118,1558 3120,1558 3121,1557 3122,1557 3123,1556 3139,1556 3140,1557 3144,1557 3145,1558 3146,1557 3146,1552 3147,1551 3147,1543 3148,1542 3148,1536 3149,1535 3149,1532 3150,1531 3150,1529 3151,1528 3151,1526 3152,1525 3152,1523 3151,1522 3151,1521 3149,1519 3147,1519 3146,1518 3139,1518 3138,1519 3126,1519 3125,1520 3117,1520 3116,1521 3105,1521 3104,1520 3098,1520 3097,1519 3091,1519 3090,1518 3073,1518 3072,1517 3065,1517 3064,1516 3046,1516 3045,1517 3041,1517 3040,1518 3033,1518 3032,1519 3019,1519 3018,1518 2985,1518 2984,1519 2963,1519 2962,1518 2951,1518 2950,1519 2925,1519 2924,1520 2920,1520 2919,1519 2895,1519 2894,1520 2884,1520 2883,1521 2879,1521 2878,1522 2876,1522 2875,1523 2872,1523 2871,1522 2869,1522 2868,1521 2863,1521 2862,1520 2855,1520 2854,1521 2829,1521 2828,1522 2827,1521 2821,1521 2820,1520 2769,1520 2768,1519 2767,1520 2734,1520 2733,1521 2721,1521 2720,1522 2719,1522 2716,1525 2716,1526 2715,1527 2715,1529 2714,1530 2714,1532 2713,1533 2713,1624 2714,1625 2714,1632 2713,1633 2713,1648 2714,1649 2714,1656 2713,1657 2713,1679 2714,1680 2714,1708 2713,1709 2713,1715 2714,1716 2714,1721 2715,1722 2715,1734 2714,1735 2714,1756 2715,1757 2715,1763 2714,1764 2714,1776 2715,1777 2715,1790 2716,1791 2716,1800 2715,1801 2715,1817 2716,1818 2716,1825 2715,1826 2715,1834 2716,1835 2716,1870 2717,1871 2717,1872 2719,1874 2720,1874 2721,1875 2724,1875 2725,1876 2731,1876 2732,1877 2733,1876 2751,1876 2752,1877 2788,1877 2789,1876 2792,1876 2793,1877 2856,1877 2857,1876 2866,1876 2867,1877 2877,1877 2878,1876 2885,1876 2886,1875 2892,1875 2893,1874 2904,1874 2905,1873 2911,1873 2912,1874 2923,1874 2924,1873 2938,1873 2939,1872 2997,1872 2998,1871 3139,1871 3140,1872 3149,1872 3150,1871 3153,1871 3154,1870 3162,1870 3163,1869 3230,1869 3231,1868 3238,1868 3239,1867 3244,1867 3245,1868 3251,1868 3252,1869 3277,1869 3278,1870 3286,1870 3287,1871 3299,1871 3300,1872 3301,1871 3310,1871 3311,1870 3318,1870 3319,1869 3354,1869 3355,1868 3404,1868 3405,1867 3412,1867 3413,1868 3435,1868 3436,1867 3440,1867 3441,1866 3443,1866 3444,1865 3445,1865 3445,1864 3447,1862 3447,1860 3448,1859 3448,1855 3449,1854 3449,1833 3448,1832 3448,1773 3447,1772 3447,1751 3448,1750 3448,1748 3447,1747 3447,1735 3446,1734 3446,1717 3445,1716 3445,1707 3446,1706 3446,1696 3445,1695 3445,1670 3444,1669 3444,1661 3445,1660 3445,1645 3444,1644 3444,1555 3445,1554 3445,1535 3444,1534 3444,1523 3443,1522 3443,1520 3442,1519 3442,1517 3441,1516 3441,1515 3438,1512 3437,1512 3436,1511 3434,1511 3433,1510" fill="rgba(134,20,72,0.3)" stroke="rgb(134,20,72)" stroke-width="2" data-block-id="0019" data-name="b-0022" /><text x="3083" y="1655" text-anchor="middle" dominant-baseline="middle" class="block-label" fill="rgb(134,20,72)" stroke="white" stroke-width="3" paint-order="stroke">b-0022</text><polygon points="1802,2531 1801,2532 1769,2532 1768,2533 1761,2533 1760,2534 1754,2534 1753,2535 1752,2535 1748,2539 1748,2540 1747,2541 1747,2542 1746,2543 1746,2550 1745,2551 1745,2560 1746,2561 1746,2583 1745,2584 1745,2608 1746,2609 1746,2614 1747,2615 1747,2619 1746,2620 1746,2696 1745,2697 1745,2702 1746,2703 1746,2716 1747,2717 1747,2777 1748,2778 1748,2871 1749,2872 1749,2877 1750,2878 1750,2888 1752,2890 1752,2891 1753,2891 1755,2893 1757,2893 1758,2894 1760,2894 1761,2895 1763,2895 1764,2896 1768,2896 1769,2895 1808,2895 1809,2896 1822,2896 1823,2895 1851,2895 1852,2896 1902,2896 1903,2897 1914,2897 1915,2896 1937,2896 1938,2895 1946,2895 1947,2896 1963,2896 1964,2895 1973,2895 1974,2896 1986,2896 1987,2895 1993,2895 1994,2896 2069,2896 2070,2895 2088,2895 2089,2894 2097,2894 2098,2893 2112,2893 2113,2892 2117,2892 2118,2891 2136,2891 2137,2890 2140,2890 2141,2889 2144,2889 2145,2888 2154,2888 2155,2889 2157,2889 2158,2888 2165,2888 2166,2887 2210,2887 2211,2886 2224,2886 2225,2885 2250,2885 2251,2886 2261,2886 2262,2885 2298,2885 2299,2886 2305,2886 2306,2885 2332,2885 2333,2884 2366,2884 2367,2883 2381,2883 2382,2882 2401,2882 2402,2883 2409,2883 2410,2882 2426,2882 2427,2883 2438,2883 2439,2884 2455,2884 2456,2883 2459,2883 2460,2882 2462,2882 2463,2881 2465,2881 2468,2878 2468,2877 2469,2876 2469,2874 2470,2873 2470,2870 2471,2869 2471,2827 2470,2826 2470,2819 2469,2818 2469,2758 2468,2757 2468,2745 2469,2744 2469,2742 2470,2741 2470,2739 2471,2738 2471,2707 2470,2706 2470,2668 2469,2667 2469,2662 2470,2661 2470,2628 2469,2627 2469,2613 2470,2612 2470,2566 2469,2565 2469,2561 2468,2560 2468,2549 2469,2548 2469,2546 2468,2545 2468,2544 2467,2544 2466,2543 2465,2543 2464,2542 2460,2542 2459,2541 2451,2541 2450,2540 2437,2540 2436,2541 2390,2541 2389,2542 2378,2542 2377,2541 2348,2541 2347,2542 2328,2542 2327,2541 2318,2541 2317,2542 2306,2542 2305,2541 2298,2541 2297,2542 2284,2542 2283,2541 2244,2541 2243,2542 2233,2542 2232,2541 2227,2541 2226,2542 2181,2542 2180,2541 2146,2541 2145,2540 2121,2540 2120,2539 2117,2539 2116,2538 2113,2538 2112,2537 2109,2537 2108,2536 2095,2536 2094,2535 2089,2535 2088,2534 2082,2534 2081,2535 2065,2535 2064,2534 2060,2534 2059,2535 2046,2535 2045,2534 1982,2534 1981,2535 1976,2535 1975,2534 1953,2534 1952,2533 1943,2533 1942,2532 1941,2533 1905,2533 1904,2532 1879,2532 1878,2531 1863,2531 1862,2532 1860,2532 1859,2531" fill="rgba(166,17,131,0.3)" stroke="rgb(166,17,131)" stroke-width="2" data-block-id="0020" data-name="b-0023" /><text x="2127" y="2711" text-anchor="middle" dominant-baseline="middle" class="block-label" fill="rgb(166,17,131)" stroke="white" stroke-width="3" paint-order="stroke">b-0023</text><polygon points="2028,2254 2027,2255 2018,2255 2017,2256 2010,2256 2009,2257 2007,2257 2005,2259 2004,2259 2002,2261 2000,2261 1999,2262 1990,2262 1989,2263 1982,2263 1981,2264 1979,2264 1978,2265 1977,2265 1974,2268 1974,2269 1973,2270 1973,2275 1972,2276 1972,2283 1971,2284 1971,2300 1972,2301 1972,2319 1971,2320 1971,2327 1972,2328 1972,2342 1971,2343 1971,2362 1972,2363 1972,2370 1971,2371 1971,2405 1970,2406 1970,2417 1971,2418 1971,2419 1973,2421 1974,2421 1975,2422 1980,2422 1981,2423 2002,2423 2003,2422 2039,2422 2040,2423 2048,2423 2049,2422 2175,2422 2176,2421 2180,2421 2181,2420 2182,2420 2182,2419 2183,2418 2183,2417 2184,2416 2184,2357 2183,2356 2183,2352 2184,2351 2184,2269 2183,2268 2183,2265 2181,2263 2180,2263 2179,2262 2175,2262 2174,2261 2166,2261 2165,2260 2159,2260 2158,2259 2154,2259 2153,2258 2152,2258 2151,2257 2149,2257 2148,2256 2147,2256 2146,2257 2141,2257 2140,2258 2136,2258 2135,2259 2108,2259 2107,2258 2104,2258 2103,2257 2086,2257 2085,2256 2083,2256 2082,2255 2073,2255 2072,2256 2070,2256 2069,2257 2061,2257 2060,2256 2057,2256 2056,2255 2051,2255 2050,2256 2048,2256 2046,2258 2045,2258 2044,2259 2039,2259 2037,2257 2036,2257 2035,2256 2034,2256 2033,2255 2029,2255" fill="rgba(199,205,214,0.3)" stroke="rgb(199,205,214)" stroke-width="2" data-block-id="0021" data-name="b-0039" /><text x="2061" y="2304" text-anchor="middle" dominant-baseline="middle" class="block-label" fill="rgb(199,205,214)" stroke="white" stroke-width="3" paint-order="stroke">b-0039</text></g>
</svg>