<?xml version='1.0' encoding='utf-8'?>
<svg xmlns="http://www.w3.org/2000/svg" xmlns:atlas="http://example.com/atlas" width="4980" height="3334" viewBox="0 0 4980 3334">
  
  <metadata>
    <atlas:source>
      <atlas:jp2-path>../media/v1/p20.jp2</atlas:jp2-path>
      <atlas:volume>vol1</atlas:volume>
      <atlas:plate-id>p20</atlas:plate-id>
      <atlas:image-width>4980</atlas:image-width>
      <atlas:image-height>3334</atlas:image-height>
    </atlas:source>
  </metadata>

  
  <image id="background" href="file://../media/v1/p20.jp2" width="4980" height="3334" opacity="0.5" />

  <style>
    .block-label { font-family: sans-serif; font-size: 14px; font-weight: bold; }
  </style>

  
  <g id="blocks">
    <polygon points="882,322 880,324 878,324 877,325 876,325 875,326 873,326 872,327 870,327 869,328 866,328 865,329 859,329 858,328 839,328 838,329 833,329 832,330 822,330 821,329 817,329 816,328 812,328 811,327 803,327 802,328 799,328 798,329 795,329 794,330 791,330 790,331 783,331 782,330 776,330 775,329 763,329 762,330 758,330 757,331 753,331 752,332 745,332 744,331 740,331 739,330 735,330 734,329 723,329 722,330 717,330 716,331 705,331 704,330 700,330 699,329 695,329 694,328 687,328 686,329 683,329 682,330 679,330 678,331 676,331 675,332 666,332 665,331 663,331 662,330 659,330 658,329 656,329 655,328 647,328 646,329 643,329 642,330 638,330 637,331 629,331 628,330 627,330 626,329 624,329 623,328 622,328 621,327 619,327 618,326 615,326 614,325 608,325 607,326 603,326 602,327 598,327 597,328 587,328 586,327 581,327 580,326 570,326 569,327 566,327 565,328 564,328 563,329 561,329 560,330 558,330 557,331 556,331 554,333 553,333 550,336 550,337 549,338 549,339 548,340 548,344 547,345 547,351 546,352 546,357 545,358 545,372 544,373 544,377 545,378 545,381 546,382 546,384 547,385 547,387 548,388 548,390 549,391 549,393 550,394 550,398 551,399 551,404 550,405 550,456 549,457 549,539 550,540 550,543 551,544 551,546 552,547 552,549 553,550 553,552 554,553 554,558 553,559 553,562 552,563 552,567 551,568 551,584 552,585 552,595 551,596 551,600 550,601 550,607 549,608 549,613 550,614 550,619 551,620 551,622 552,623 552,626 553,627 553,638 552,639 552,644 551,645 551,654 552,655 552,658 553,659 553,661 554,662 554,665 555,666 555,679 554,680 554,686 553,687 553,688 554,689 554,693 555,694 555,695 556,696 556,698 557,699 557,701 558,702 558,704 559,705 559,710 560,711 560,712 559,713 559,723 558,724 558,754 557,755 557,760 556,761 556,775 557,776 557,795 556,796 556,800 555,801 555,813 556,814 556,819 557,820 557,830 556,831 556,833 555,834 555,837 554,838 554,841 553,842 553,849 554,850 554,854 555,855 555,859 556,860 556,867 555,868 555,870 554,871 554,873 553,874 553,877 552,878 552,880 551,881 551,888 552,889 552,892 553,893 553,896 554,897 554,899 555,900 555,905 554,906 554,908 553,909 553,911 552,912 552,914 551,915 551,918 550,919 550,924 549,925 549,945 548,946 548,949 547,950 547,955 546,956 546,970 547,971 547,977 548,978 548,984 547,985 547,990 546,991 546,1006 547,1007 547,1010 548,1011 548,1013 549,1014 549,1015 550,1016 550,1017 551,1018 551,1024 550,1025 550,1027 549,1028 549,1031 548,1032 548,1036 547,1037 547,1038 548,1039 548,1044 549,1045 549,1047 550,1048 550,1050 551,1051 551,1053 552,1054 552,1056 553,1057 553,1062 552,1063 552,1066 551,1067 551,1068 550,1069 550,1070 549,1071 549,1072 548,1073 548,1074 546,1076 546,1080 545,1081 546,1082 546,1083 550,1087 551,1087 552,1088 552,1089 553,1090 553,1091 554,1092 554,1093 555,1094 555,1097 556,1098 556,1101 555,1102 555,1104 554,1105 554,1107 553,1108 553,1111 552,1112 552,1113 551,1114 551,1122 552,1123 552,1126 553,1127 553,1133 554,1134 554,1139 553,1140 553,1145 552,1146 552,1150 551,1151 551,1156 552,1157 552,1159 553,1160 553,1161 554,1162 554,1163 555,1164 555,1165 557,1167 557,1169 558,1170 558,1172 559,1173 559,1182 558,1183 558,1190 557,1191 557,1199 558,1200 558,1205 559,1206 559,1210 560,1211 560,1212 565,1217 566,1217 567,1218 569,1218 570,1219 573,1219 574,1220 600,1220 601,1221 613,1221 614,1222 615,1222 616,1221 663,1221 664,1220 673,1220 674,1221 683,1221 684,1222 727,1222 728,1223 764,1223 765,1224 787,1224 788,1225 802,1225 803,1224 816,1224 817,1223 829,1223 830,1222 868,1222 869,1223 875,1223 876,1224 881,1224 882,1225 887,1225 888,1224 894,1224 895,1223 903,1223 904,1222 910,1222 911,1221 916,1221 917,1220 920,1220 921,1219 923,1219 924,1218 925,1218 926,1217 927,1217 929,1215 930,1215 932,1213 933,1213 939,1207 939,1206 946,1199 947,1199 948,1198 948,1197 949,1196 949,1195 950,1194 950,1187 949,1186 949,1182 948,1181 948,1179 946,1177 946,1176 944,1174 944,1172 943,1171 943,1170 942,1169 942,1167 941,1166 941,1165 940,1164 940,1161 939,1160 939,1157 938,1156 938,1153 937,1152 937,1148 936,1147 936,1141 935,1140 935,1136 936,1135 936,1131 937,1130 937,1126 938,1125 938,1121 939,1120 939,1113 940,1112 940,1104 941,1103 941,1097 940,1096 940,1094 939,1093 939,1092 938,1091 938,1089 937,1088 937,1086 936,1085 936,1084 935,1083 935,1080 934,1079 934,1065 933,1064 933,1061 934,1060 934,1053 935,1052 935,1048 936,1047 936,1042 937,1041 937,1035 936,1034 936,1019 935,1018 935,1016 936,1015 936,1002 935,1001 935,994 934,993 934,988 933,987 933,979 934,978 934,975 935,974 935,972 936,971 936,969 937,968 937,966 938,965 938,961 939,960 939,957 938,956 938,941 937,940 937,919 936,918 936,914 935,913 935,909 934,908 934,899 935,898 935,894 936,893 936,890 937,889 937,884 938,883 938,877 937,876 937,862 936,861 936,852 935,851 935,844 934,843 934,839 933,838 933,832 932,831 932,823 933,822 933,818 934,817 934,814 935,813 935,810 936,809 936,806 937,805 937,784 938,783 938,775 939,774 939,756 938,755 938,742 937,741 937,725 936,724 936,718 935,717 935,687 934,686 934,684 933,683 933,680 932,679 932,676 931,675 931,666 932,665 932,661 933,660 933,658 934,657 934,656 935,655 935,654 936,653 936,651 937,650 937,646 938,645 938,628 937,627 937,622 936,621 936,613 935,612 935,607 934,606 934,601 933,600 933,588 934,587 934,585 935,584 935,583 936,582 936,580 938,578 938,577 940,575 940,574 941,573 941,572 942,571 942,569 943,568 943,564 944,563 944,559 945,558 945,555 943,553 943,552 939,548 939,547 937,545 937,543 936,542 936,541 935,540 935,538 934,537 934,533 933,532 933,523 932,522 932,506 933,505 933,500 934,499 934,496 935,495 935,486 936,485 936,476 935,475 935,473 934,472 934,470 933,469 933,467 932,466 932,464 931,463 931,459 930,458 930,435 929,434 929,429 928,428 928,426 927,425 927,423 926,422 926,420 925,419 925,413 926,412 926,410 927,409 927,407 928,406 928,405 929,404 929,403 930,402 930,400 931,399 931,398 932,397 932,395 933,394 933,385 934,384 934,360 933,359 933,356 932,355 932,353 931,352 931,350 930,349 930,348 929,347 929,346 928,345 928,343 926,341 926,340 922,336 921,336 920,335 918,335 917,334 915,334 914,333 911,333 910,332 906,332 905,331 903,331 902,330 901,330 900,329 899,329 898,328 897,328 896,327 895,327 893,325 892,325 891,324 890,324 889,323 888,323 887,322" fill="rgba(14,106,71,0.3)" stroke="rgb(14,106,71)" stroke-width="2" data-block-id="0001" data-name="b-0003" /><text x="748" y="750" text-anchor="middle" dominant-baseline="middle" class="block-label" fill="rgb(14,106,71)" stroke="white" stroke-width="3" paint-order="stroke">b-0003</text><polygon points="672,325 671,326 616,326 615,327 607,327 606,328 602,328 601,327 596,327 595,326 571,326 570,327 558,327 557,328 555,328 554,329 553,329 550,332 550,333 549,334 549,335 548,336 548,337 547,338 547,347 548,348 548,372 549,373 549,388 550,389 550,455 549,456 549,465 550,466 550,472 549,473 549,499 550,500 550,504 551,505 551,525 550,526 550,546 551,547 551,566 550,567 550,593 551,594 551,599 552,600 552,608 551,609 551,618 550,619 550,624 549,625 549,637 550,638 550,642 551,643 551,645 552,646 552,647 553,648 553,650 554,651 554,653 553,654 553,660 552,661 552,672 551,673 551,689 552,690 552,693 553,694 553,697 554,698 554,700 553,701 553,706 552,707 552,738 553,739 553,743 554,744 554,748 553,749 553,754 552,755 552,777 551,778 551,782 552,783 552,790 553,791 553,798 552,799 552,811 551,812 551,828 552,829 552,834 553,835 553,838 554,839 554,847 553,848 553,868 552,869 552,880 553,881 553,885 554,886 554,893 553,894 553,926 554,927 554,929 555,930 555,932 556,933 556,934 557,935 557,936 558,937 558,942 559,943 559,954 560,955 560,982 561,983 561,993 560,994 560,1013 559,1014 559,1018 558,1019 558,1021 557,1022 557,1027 556,1028 556,1036 555,1037 555,1045 554,1046 554,1047 555,1048 555,1076 556,1077 556,1100 557,1101 557,1212 558,1213 558,1215 562,1219 563,1219 564,1220 566,1220 567,1221 618,1221 619,1222 642,1222 643,1221 674,1221 675,1222 748,1222 749,1223 782,1223 783,1222 824,1222 825,1221 832,1221 833,1222 847,1222 848,1221 863,1221 864,1222 897,1222 898,1221 909,1221 910,1220 914,1220 915,1219 917,1219 918,1218 919,1218 920,1217 922,1217 923,1216 924,1216 927,1213 927,1211 928,1210 928,1208 927,1207 927,1196 926,1195 926,1192 925,1191 925,1190 924,1189 924,1173 925,1172 925,1167 926,1166 926,1129 927,1128 927,1119 928,1118 928,1107 927,1106 927,1078 928,1077 928,1071 929,1070 929,1059 930,1058 930,1056 929,1055 929,1045 928,1044 928,1034 927,1033 927,1027 926,1026 926,1023 925,1022 925,1018 926,1017 926,1002 927,1001 927,995 926,994 926,943 925,942 925,934 926,933 926,917 925,916 925,907 926,906 926,896 925,895 925,885 926,884 926,869 925,868 925,846 924,845 924,840 925,839 925,836 926,835 926,821 925,820 925,813 924,812 924,803 923,802 923,764 922,763 922,742 923,741 923,738 924,737 924,729 923,728 923,713 922,712 922,696 923,695 923,690 924,689 924,680 923,679 923,656 922,655 922,648 923,647 923,644 924,643 924,641 925,640 925,636 924,635 924,631 923,630 923,613 922,612 922,606 921,605 921,601 922,600 922,595 923,594 923,582 922,581 922,566 921,565 921,560 920,559 920,552 921,551 921,548 922,547 922,535 921,534 921,518 920,517 920,502 921,501 921,496 922,495 922,493 921,492 921,481 920,480 920,465 919,464 919,456 920,455 920,438 919,437 919,433 920,432 920,404 921,403 921,396 920,395 920,355 921,354 921,351 920,350 920,342 919,341 919,338 918,337 918,336 917,335 917,334 914,331 913,331 912,330 908,330 907,329 903,329 902,328 893,328 892,327 883,327 882,328 839,328 838,327 832,327 831,326 826,326 825,327 776,327 775,326 773,326 772,325 767,325 766,326 763,326 762,327 720,327 719,326 679,326 678,325" fill="rgba(116,99,103,0.3)" stroke="rgb(116,99,103)" stroke-width="2" data-block-id="0002" data-name="b-0009" /><text x="749" y="748" text-anchor="middle" dominant-baseline="middle" class="block-label" fill="rgb(116,99,103)" stroke="white" stroke-width="3" paint-order="stroke">b-0009</text><polygon points="1483,1323 1482,1324 1474,1324 1473,1325 1472,1325 1471,1326 1470,1326 1469,1327 1468,1327 1466,1329 1465,1329 1464,1330 1464,1331 1463,1332 1463,1333 1462,1334 1462,1364 1463,1365 1463,1368 1462,1369 1462,1382 1461,1383 1461,1443 1460,1444 1460,1453 1461,1454 1461,1525 1460,1526 1460,1543 1461,1544 1461,1546 1460,1547 1460,1555 1459,1556 1459,1575 1460,1576 1460,1659 1459,1660 1459,1666 1460,1667 1460,1719 1461,1720 1461,1733 1460,1734 1460,1739 1461,1740 1461,1754 1460,1755 1460,1785 1459,1786 1459,1826 1460,1827 1460,1866 1459,1867 1459,1984 1458,1985 1458,1989 1459,1990 1459,2011 1460,2012 1460,2028 1459,2029 1459,2039 1460,2040 1460,2057 1459,2058 1459,2076 1458,2077 1458,2147 1459,2148 1459,2162 1458,2163 1458,2172 1459,2173 1459,2184 1460,2185 1460,2190 1461,2191 1461,2192 1462,2193 1463,2193 1465,2195 1467,2195 1468,2196 1470,2196 1471,2197 1473,2197 1474,2198 1476,2198 1477,2199 1481,2199 1482,2200 1486,2200 1487,2201 1492,2201 1493,2202 1499,2202 1500,2203 1518,2203 1519,2202 1524,2202 1525,2201 1528,2201 1529,2200 1532,2200 1533,2199 1540,2199 1541,2200 1552,2200 1553,2201 1572,2201 1573,2200 1578,2200 1579,2199 1589,2199 1590,2200 1610,2200 1611,2199 1638,2199 1639,2200 1669,2200 1670,2199 1673,2199 1674,2198 1696,2198 1697,2197 1715,2197 1716,2196 1726,2196 1727,2195 1765,2195 1766,2196 1783,2196 1784,2197 1793,2197 1794,2198 1804,2198 1805,2197 1821,2197 1822,2196 1825,2196 1826,2195 1827,2195 1828,2194 1829,2194 1830,2193 1831,2193 1835,2189 1835,2187 1836,2186 1836,2183 1837,2182 1837,2126 1836,2125 1836,2112 1837,2111 1837,2102 1836,2101 1836,2088 1837,2087 1837,2076 1836,2075 1836,2068 1837,2067 1837,2058 1836,2057 1836,2042 1837,2041 1837,2028 1836,2027 1836,2020 1837,2019 1837,1959 1836,1958 1836,1915 1835,1914 1835,1896 1836,1895 1836,1887 1835,1886 1835,1813 1834,1812 1834,1807 1835,1806 1835,1765 1834,1764 1834,1720 1835,1719 1835,1673 1834,1672 1834,1666 1833,1665 1833,1661 1834,1660 1834,1609 1835,1608 1835,1602 1834,1601 1834,1582 1833,1581 1833,1575 1832,1574 1832,1558 1831,1557 1831,1539 1832,1538 1832,1529 1831,1528 1831,1511 1832,1510 1832,1482 1833,1481 1833,1478 1834,1477 1834,1469 1833,1468 1833,1454 1834,1453 1834,1445 1833,1444 1833,1434 1832,1433 1832,1422 1831,1421 1831,1412 1832,1411 1832,1404 1833,1403 1833,1391 1832,1390 1832,1383 1831,1382 1831,1363 1832,1362 1832,1337 1831,1336 1831,1332 1824,1325 1823,1325 1822,1324 1804,1324 1803,1323 1795,1323 1794,1324 1789,1324 1788,1325 1782,1325 1781,1324 1751,1324 1750,1325 1742,1325 1741,1326 1726,1326 1725,1325 1711,1325 1710,1324 1705,1324 1704,1323 1701,1323 1700,1324 1697,1324 1696,1325 1693,1325 1692,1326 1686,1326 1685,1325 1670,1325 1669,1326 1664,1326 1663,1325 1649,1325 1648,1326 1638,1326 1637,1325 1630,1325 1629,1324 1615,1324 1614,1325 1608,1325 1607,1326 1595,1326 1594,1325 1573,1325 1572,1326 1571,1325 1563,1325 1562,1324 1548,1324 1547,1325 1543,1325 1542,1326 1539,1326 1538,1327 1533,1327 1532,1326 1528,1326 1527,1325 1518,1325 1517,1324 1508,1324 1507,1325 1493,1325 1492,1324 1487,1324 1486,1323" fill="rgba(151,130,149,0.3)" stroke="rgb(151,130,149)" stroke-width="2" data-block-id="0003" data-name="b-0010" /><text x="1648" y="1735" text-anchor="middle" dominant-baseline="middle" class="block-label" fill="rgb(151,130,149)" stroke="white" stroke-width="3" paint-order="stroke">b-0010</text><polygon points="1478,332 1477,333 1471,333 1470,334 1467,334 1466,335 1465,335 1461,339 1461,343 1460,344 1460,406 1461,407 1461,420 1460,421 1460,425 1461,426 1461,465 1460,466 1460,474 1461,475 1461,567 1462,568 1462,571 1463,572 1463,573 1464,574 1464,575 1465,576 1465,578 1467,580 1467,583 1468,584 1468,587 1469,588 1469,602 1468,603 1468,606 1467,607 1467,609 1466,610 1466,611 1465,612 1465,615 1464,616 1464,625 1463,626 1463,632 1462,633 1462,640 1461,641 1461,650 1460,651 1460,661 1461,662 1461,696 1460,697 1460,767 1461,768 1461,775 1460,776 1460,787 1461,788 1461,815 1462,816 1462,825 1461,826 1461,862 1462,863 1462,896 1461,897 1461,905 1462,906 1462,943 1461,944 1461,976 1462,977 1462,990 1461,991 1461,1005 1462,1006 1462,1010 1461,1011 1461,1026 1462,1027 1462,1088 1461,1089 1461,1096 1462,1097 1462,1121 1461,1122 1461,1131 1462,1132 1462,1196 1463,1197 1463,1199 1462,1200 1462,1214 1463,1215 1463,1216 1464,1217 1464,1218 1465,1219 1466,1219 1467,1220 1468,1220 1469,1221 1472,1221 1473,1222 1478,1222 1479,1223 1592,1223 1593,1222 1675,1222 1676,1221 1687,1221 1688,1222 1689,1222 1690,1221 1744,1221 1745,1222 1780,1222 1781,1221 1789,1221 1790,1220 1799,1220 1800,1219 1814,1219 1815,1218 1820,1218 1821,1217 1823,1217 1824,1216 1825,1216 1827,1214 1828,1214 1830,1212 1830,1211 1831,1210 1831,1208 1832,1207 1832,1195 1831,1194 1831,1192 1830,1191 1830,1187 1829,1186 1830,1185 1830,1171 1829,1170 1829,1164 1828,1163 1828,1150 1829,1149 1829,1142 1830,1141 1830,1130 1831,1129 1831,1125 1832,1124 1832,1095 1831,1094 1831,1043 1830,1042 1830,989 1829,988 1829,979 1830,978 1830,956 1829,955 1829,837 1828,836 1828,692 1829,691 1829,675 1828,674 1828,600 1827,599 1827,541 1826,540 1826,521 1827,520 1827,518 1826,517 1826,455 1825,454 1825,433 1826,432 1826,422 1825,421 1825,403 1826,402 1826,371 1825,370 1825,358 1826,357 1826,349 1825,348 1825,344 1824,343 1824,341 1823,340 1823,339 1822,338 1821,338 1820,337 1818,337 1817,336 1813,336 1812,335 1801,335 1800,336 1795,336 1794,335 1781,335 1780,336 1766,336 1765,335 1738,335 1737,334 1717,334 1716,335 1710,335 1709,334 1649,334 1648,333 1635,333 1634,332 1628,332 1627,333 1553,333 1552,332 1521,332 1520,333 1502,333 1501,332" fill="rgba(52,1,87,0.3)" stroke="rgb(52,1,87)" stroke-width="2" data-block-id="0004" data-name="b-0011" /><text x="1632" y="772" text-anchor="middle" dominant-baseline="middle" class="block-label" fill="rgb(52,1,87)" stroke="white" stroke-width="3" paint-order="stroke">b-0011</text><polygon points="1939,337 1938,338 1929,338 1928,339 1927,339 1925,341 1925,342 1924,343 1924,344 1923,345 1923,347 1922,348 1922,351 1921,352 1921,379 1920,380 1920,409 1921,410 1921,425 1920,426 1920,447 1919,448 1919,450 1920,451 1920,491 1919,492 1919,497 1920,498 1920,505 1921,506 1921,547 1920,548 1920,561 1921,562 1921,609 1922,610 1922,619 1921,620 1921,679 1920,680 1920,689 1921,690 1921,728 1920,729 1920,750 1921,751 1921,762 1920,763 1920,789 1921,790 1921,814 1920,815 1920,828 1921,829 1921,845 1922,846 1922,861 1921,862 1921,898 1922,899 1922,906 1921,907 1921,945 1922,946 1922,952 1921,953 1921,974 1922,975 1922,1035 1923,1036 1923,1098 1924,1099 1924,1110 1923,1111 1923,1152 1924,1153 1924,1163 1923,1164 1923,1214 1924,1215 1924,1216 1925,1217 1925,1218 1928,1221 1931,1221 1932,1222 1939,1222 1940,1223 1954,1223 1955,1222 1990,1222 1991,1223 2127,1223 2128,1222 2132,1222 2133,1223 2149,1223 2150,1222 2177,1222 2178,1223 2237,1223 2238,1222 2240,1222 2241,1223 2278,1223 2279,1222 2285,1222 2286,1221 2287,1221 2290,1218 2290,1217 2291,1216 2291,1214 2292,1213 2292,1204 2291,1203 2291,1138 2292,1137 2292,1123 2291,1122 2291,1052 2292,1051 2292,1038 2291,1037 2291,1030 2290,1029 2290,1014 2291,1013 2291,1003 2290,1002 2290,994 2289,993 2289,989 2288,988 2288,982 2289,981 2289,978 2290,977 2290,964 2289,963 2289,952 2288,951 2288,927 2289,926 2289,923 2288,922 2288,881 2289,880 2289,875 2288,874 2288,834 2289,833 2289,826 2288,825 2288,803 2287,802 2287,786 2288,785 2288,776 2287,775 2287,753 2286,752 2286,741 2287,740 2287,717 2288,716 2288,694 2289,693 2289,686 2290,685 2290,684 2289,683 2289,673 2290,672 2290,665 2291,664 2291,629 2290,628 2290,624 2291,623 2291,586 2290,585 2290,569 2291,568 2291,560 2290,559 2290,533 2289,532 2289,524 2288,523 2288,520 2287,519 2287,510 2286,509 2286,505 2287,504 2287,480 2288,479 2288,477 2289,476 2289,463 2288,462 2288,454 2289,453 2289,445 2288,444 2288,439 2287,438 2287,435 2288,434 2288,432 2289,431 2289,428 2290,427 2290,416 2289,415 2289,408 2290,407 2290,393 2289,392 2289,366 2288,365 2288,351 2287,350 2287,349 2286,348 2286,347 2284,345 2283,345 2281,343 2280,343 2279,342 2278,342 2277,341 2258,341 2257,342 2253,342 2252,343 2250,343 2249,342 2240,342 2239,341 2238,341 2237,342 2223,342 2222,343 2212,343 2211,342 2207,342 2206,341 2198,341 2197,342 2186,342 2185,343 2180,343 2179,342 2177,342 2176,341 2175,341 2174,340 2171,340 2170,339 2158,339 2157,340 2138,340 2137,339 2114,339 2113,340 2070,340 2069,341 2065,341 2064,342 2059,342 2058,341 2056,341 2055,340 2052,340 2051,339 2040,339 2039,340 2019,340 2018,341 2013,341 2012,340 2009,340 2008,339 2005,339 2004,338 1998,338 1997,337 1985,337 1984,338 1944,338 1943,337" fill="rgba(235,157,37,0.3)" stroke="rgb(235,157,37)" stroke-width="2" data-block-id="0005" data-name="b-0012" /><text x="2136" y="676" text-anchor="middle" dominant-baseline="middle" class="block-label" fill="rgb(235,157,37)" stroke="white" stroke-width="3" paint-order="stroke">b-0012</text><polygon points="1973,1325 1972,1326 1969,1326 1968,1327 1948,1327 1947,1328 1943,1328 1942,1329 1939,1329 1938,1330 1936,1330 1935,1331 1933,1331 1932,1332 1930,1332 1929,1333 1928,1333 1926,1335 1926,1336 1925,1337 1925,1338 1924,1339 1924,1351 1925,1352 1925,1360 1924,1361 1924,1408 1925,1409 1925,1421 1924,1422 1924,1429 1923,1430 1923,1445 1924,1446 1924,1477 1923,1478 1923,1497 1924,1498 1924,1512 1923,1513 1923,1545 1924,1546 1924,1548 1923,1549 1923,1639 1924,1640 1924,1645 1923,1646 1923,1673 1922,1674 1922,1689 1923,1690 1923,1711 1924,1712 1924,1714 1923,1715 1923,1727 1924,1728 1924,1755 1925,1756 1925,1856 1924,1857 1924,1896 1925,1897 1925,1963 1924,1964 1924,1966 1923,1967 1923,1968 1922,1969 1922,1971 1921,1972 1921,1981 1922,1982 1922,1987 1923,1988 1923,1996 1922,1997 1922,1998 1923,1999 1923,2003 1924,2004 1924,2008 1925,2009 1925,2012 1924,2013 1924,2018 1923,2019 1923,2031 1924,2032 1924,2104 1925,2105 1925,2163 1924,2164 1924,2186 1925,2187 1925,2191 1926,2192 1926,2193 1928,2195 1929,2195 1930,2196 1932,2196 1933,2197 1938,2197 1939,2198 1950,2198 1951,2197 1975,2197 1976,2196 2003,2196 2004,2197 2027,2197 2028,2196 2088,2196 2089,2195 2121,2195 2122,2194 2125,2194 2126,2193 2127,2193 2128,2192 2129,2192 2130,2191 2132,2191 2133,2190 2147,2190 2148,2189 2166,2189 2167,2190 2168,2189 2171,2189 2172,2188 2175,2188 2176,2187 2237,2187 2238,2186 2242,2186 2243,2187 2258,2187 2259,2186 2270,2186 2271,2187 2275,2187 2276,2186 2278,2186 2280,2184 2280,2183 2283,2180 2283,2179 2284,2178 2284,2177 2285,2176 2285,2175 2286,2174 2286,2171 2287,2170 2287,2158 2286,2157 2286,2156 2287,2155 2287,2149 2288,2148 2288,2144 2289,2143 2289,2141 2290,2140 2290,2138 2291,2137 2291,2135 2292,2134 2292,2132 2293,2131 2293,2127 2294,2126 2294,2110 2295,2109 2295,2102 2294,2101 2294,2094 2295,2093 2295,2020 2294,2019 2294,1991 2295,1990 2295,1987 2294,1986 2294,1951 2295,1950 2295,1935 2294,1934 2294,1859 2295,1858 2295,1853 2294,1852 2294,1835 2293,1834 2293,1828 2292,1827 2292,1823 2291,1822 2291,1812 2290,1811 2290,1795 2291,1794 2291,1778 2290,1777 2290,1706 2289,1705 2289,1697 2290,1696 2290,1657 2289,1656 2289,1649 2290,1648 2290,1612 2289,1611 2289,1582 2290,1581 2290,1527 2291,1526 2291,1501 2292,1500 2292,1478 2293,1477 2293,1473 2292,1472 2292,1467 2291,1466 2291,1457 2290,1456 2290,1420 2289,1419 2289,1395 2290,1394 2290,1348 2289,1347 2289,1332 2288,1331 2288,1330 2287,1330 2286,1329 2284,1329 2283,1328 2278,1328 2277,1327 2273,1327 2272,1326 2267,1326 2266,1325 2261,1325 2260,1326 2196,1326 2195,1325 2185,1325 2184,1326 2177,1326 2176,1325 2144,1325 2143,1326 2138,1326 2137,1327 2135,1327 2134,1328 2129,1328 2128,1327 2123,1327 2122,1326 2118,1326 2117,1327 2112,1327 2111,1328 2106,1328 2105,1327 2102,1327 2101,1326 2093,1326 2092,1327 2090,1327 2089,1328 2087,1328 2086,1329 2082,1329 2081,1328 2063,1328 2062,1327 2057,1327 2056,1326 2053,1326 2052,1325 2046,1325 2045,1326 2043,1326 2042,1327 2041,1327 2040,1328 2029,1328 2028,1327 1993,1327 1992,1328 1987,1328 1986,1327 1984,1327 1983,1326 1981,1326 1980,1325" fill="rgba(129,191,187,0.3)" stroke="rgb(129,191,187)" stroke-width="2" data-block-id="0006" data-name="b-0013" /><text x="2108" y="1737" text-anchor="middle" dominant-baseline="middle" class="block-label" fill="rgb(129,191,187)" stroke="white" stroke-width="3" paint-order="stroke">b-0013</text><polygon points="911,1322 910,1323 907,1323 906,1324 901,1324 900,1325 899,1324 893,1324 892,1323 889,1323 888,1324 886,1324 885,1325 883,1325 882,1326 875,1326 874,1325 871,1325 870,1324 868,1324 867,1323 852,1323 851,1324 846,1324 845,1325 833,1325 832,1326 830,1326 829,1325 803,1325 802,1324 797,1324 796,1323 791,1323 790,1324 782,1324 781,1325 780,1324 767,1324 766,1325 760,1325 759,1326 752,1326 751,1325 730,1325 729,1324 684,1324 683,1323 671,1323 670,1324 665,1324 664,1325 660,1325 659,1324 651,1324 650,1323 643,1323 642,1324 640,1324 639,1323 619,1323 618,1324 585,1324 584,1323 566,1323 565,1324 563,1324 562,1325 561,1325 559,1327 558,1327 556,1329 555,1329 555,1330 554,1331 554,1335 555,1336 555,1339 556,1340 556,1353 557,1354 557,1364 558,1365 558,1370 557,1371 557,1381 558,1382 558,1387 559,1388 559,1397 558,1398 558,1433 557,1434 557,1446 556,1447 556,1450 557,1451 557,1455 558,1456 558,1457 559,1458 559,1459 560,1460 560,1466 559,1467 559,1469 558,1470 558,1474 557,1475 557,1478 556,1479 556,1482 555,1483 555,1493 556,1494 556,1502 555,1503 555,1517 556,1518 556,1523 555,1524 555,1525 554,1526 554,1529 553,1530 553,1534 552,1535 552,1559 553,1560 553,1562 554,1563 554,1566 555,1567 555,1608 556,1609 556,1615 557,1616 557,1619 556,1620 556,1624 555,1625 555,1690 556,1691 556,1711 557,1712 557,1740 556,1741 556,1747 555,1748 555,1752 556,1753 556,1766 555,1767 555,1811 556,1812 556,1825 557,1826 557,1834 556,1835 556,1838 555,1839 555,1842 554,1843 554,1858 555,1859 555,1863 556,1864 556,1870 557,1871 557,1885 556,1886 556,1889 555,1890 555,1900 556,1901 556,1916 557,1917 557,1931 556,1932 556,1938 555,1939 555,1949 556,1950 556,1956 557,1957 557,1962 558,1963 558,1986 557,1987 557,1990 558,1991 558,2019 557,2020 557,2027 556,2028 556,2030 555,2031 555,2036 554,2037 554,2044 555,2045 555,2046 554,2047 554,2051 553,2052 553,2054 552,2055 552,2057 551,2058 551,2062 550,2063 550,2066 549,2067 549,2069 548,2070 548,2076 547,2077 547,2086 548,2087 548,2092 549,2093 549,2095 550,2096 550,2097 551,2098 551,2099 552,2100 552,2101 553,2102 553,2104 554,2105 554,2108 555,2109 554,2110 554,2118 555,2119 555,2125 556,2126 556,2137 557,2138 557,2151 558,2152 558,2169 559,2170 559,2171 564,2176 565,2176 566,2177 567,2177 568,2178 574,2178 575,2179 582,2179 583,2180 588,2180 589,2181 592,2181 593,2182 596,2182 597,2183 599,2183 600,2184 614,2184 615,2183 617,2183 618,2182 620,2182 621,2181 623,2181 624,2180 626,2180 627,2179 642,2179 643,2180 647,2180 648,2181 658,2181 659,2180 683,2180 684,2179 708,2179 709,2180 713,2180 714,2179 755,2179 756,2180 761,2180 762,2179 785,2179 786,2178 811,2178 812,2179 822,2179 823,2178 837,2178 838,2179 846,2179 847,2178 858,2178 859,2177 886,2177 887,2178 912,2178 913,2177 916,2177 917,2176 919,2176 920,2175 921,2175 923,2173 924,2173 925,2172 925,2171 927,2169 927,2167 928,2166 928,2158 929,2157 929,2154 928,2153 928,2122 927,2121 927,2113 928,2112 928,2102 927,2101 927,2091 928,2090 928,2080 927,2079 927,2059 928,2058 928,2000 927,1999 927,1932 926,1931 926,1925 927,1924 927,1905 928,1904 928,1882 927,1881 927,1839 926,1838 926,1823 927,1822 927,1817 926,1816 926,1805 927,1804 927,1794 926,1793 926,1788 925,1787 925,1781 926,1780 926,1763 925,1762 925,1761 926,1760 926,1752 927,1751 927,1747 926,1746 926,1742 925,1741 925,1718 924,1717 924,1706 925,1705 925,1698 924,1697 924,1684 925,1683 925,1669 924,1668 924,1663 925,1662 925,1634 926,1633 926,1612 927,1611 927,1584 926,1583 926,1554 925,1553 925,1523 924,1522 924,1517 925,1516 925,1511 924,1510 924,1502 923,1501 923,1496 924,1495 924,1486 925,1485 924,1484 924,1464 925,1463 925,1461 924,1460 924,1446 925,1445 925,1400 926,1399 926,1390 925,1389 925,1383 924,1382 924,1363 925,1362 925,1335 924,1334 924,1331 915,1322" fill="rgba(20,160,203,0.3)" stroke="rgb(20,160,203)" stroke-width="2" data-block-id="0007" data-name="b-0014" /><text x="709" y="1752" text-anchor="middle" dominant-baseline="middle" class="block-label" fill="rgb(20,160,203)" stroke="white" stroke-width="3" paint-order="stroke">b-0014</text><polygon points="4120,1278 4119,1279 4115,1279 4114,1280 4081,1280 4080,1281 4074,1281 4073,1282 4068,1282 4067,1283 4059,1283 4058,1284 4041,1284 4040,1285 4032,1285 4031,1286 4012,1286 4011,1287 3990,1287 3989,1288 3980,1288 3979,1289 3971,1289 3970,1290 3954,1290 3953,1291 3935,1291 3934,1292 3926,1292 3925,1293 3917,1293 3916,1294 3905,1294 3904,1295 3894,1295 3893,1296 3872,1296 3871,1297 3863,1297 3862,1298 3857,1298 3856,1297 3850,1297 3849,1298 3843,1298 3842,1299 3825,1299 3824,1300 3820,1300 3819,1301 3816,1301 3815,1302 3813,1302 3812,1303 3806,1303 3805,1304 3796,1304 3795,1305 3792,1305 3791,1306 3790,1306 3788,1308 3788,1310 3787,1311 3787,1314 3786,1315 3786,1323 3785,1324 3785,1411 3786,1412 3786,1421 3785,1422 3785,1432 3786,1433 3786,1460 3787,1461 3787,1467 3786,1468 3786,1478 3787,1479 3787,1504 3788,1505 3788,1555 3789,1556 3789,1561 3788,1562 3788,1583 3789,1584 3789,1591 3790,1592 3790,1611 3789,1612 3789,1630 3790,1631 3790,1644 3789,1645 3789,1659 3788,1660 3788,1671 3789,1672 3789,1689 3790,1690 3790,1722 3789,1723 3789,1742 3790,1743 3790,1797 3789,1798 3789,1865 3790,1866 3790,1877 3789,1878 3789,1907 3790,1908 3790,1975 3789,1976 3789,1998 3790,1999 3790,2009 3791,2010 3791,2017 3790,2018 3790,2051 3791,2052 3791,2088 3792,2089 3792,2153 3793,2154 3793,2160 3794,2161 3794,2163 3798,2167 3799,2167 3801,2169 3812,2169 3813,2168 3816,2168 3817,2169 3829,2169 3830,2168 3831,2168 3832,2167 3834,2167 3835,2166 3848,2166 3849,2167 3850,2166 3855,2166 3856,2165 3861,2165 3862,2164 3878,2164 3879,2163 3885,2163 3886,2162 3890,2162 3891,2161 3898,2161 3899,2160 3911,2160 3912,2159 3937,2159 3938,2158 3951,2158 3952,2157 3959,2157 3960,2156 3970,2156 3971,2155 3976,2155 3977,2154 3984,2154 3985,2153 4015,2153 4016,2152 4021,2152 4022,2151 4025,2151 4026,2150 4029,2150 4030,2149 4041,2149 4042,2148 4049,2148 4050,2147 4066,2147 4067,2146 4092,2146 4093,2145 4101,2145 4102,2144 4105,2144 4106,2145 4115,2145 4116,2144 4138,2144 4139,2143 4141,2143 4142,2142 4144,2142 4145,2141 4146,2141 4147,2140 4148,2140 4149,2139 4150,2139 4152,2137 4152,2136 4153,2135 4153,2133 4154,2132 4154,1996 4153,1995 4153,1975 4152,1974 4152,1946 4151,1945 4151,1932 4152,1931 4152,1926 4151,1925 4151,1909 4152,1908 4152,1882 4151,1881 4151,1837 4150,1836 4150,1824 4149,1823 4149,1814 4150,1813 4150,1797 4149,1796 4149,1786 4148,1785 4148,1782 4149,1781 4149,1742 4148,1741 4148,1736 4147,1735 4147,1732 4146,1731 4146,1725 4145,1724 4145,1721 4146,1720 4146,1677 4145,1676 4145,1666 4146,1665 4146,1652 4147,1651 4147,1639 4146,1638 4146,1634 4145,1633 4145,1629 4144,1628 4144,1617 4145,1616 4145,1608 4146,1607 4146,1604 4145,1603 4145,1599 4144,1598 4144,1595 4143,1594 4143,1590 4144,1589 4144,1563 4145,1562 4145,1557 4144,1556 4144,1551 4143,1550 4143,1527 4142,1526 4142,1516 4143,1515 4143,1510 4142,1509 4142,1503 4141,1502 4141,1490 4142,1489 4142,1479 4143,1478 4143,1455 4142,1454 4142,1439 4143,1438 4143,1416 4142,1415 4142,1408 4141,1407 4141,1378 4142,1377 4142,1336 4141,1335 4141,1296 4140,1295 4140,1292 4139,1291 4139,1289 4138,1288 4138,1287 4137,1286 4137,1285 4132,1280 4131,1280 4130,1279 4129,1279 4128,1278" fill="rgba(57,21,252,0.3)" stroke="rgb(57,21,252)" stroke-width="2" data-block-id="0008" data-name="b-0015" /><text x="3983" y="1705" text-anchor="middle" dominant-baseline="middle" class="block-label" fill="rgb(57,21,252)" stroke="white" stroke-width="3" paint-order="stroke">b-0015</text><polygon points="3035,1326 3034,1327 3021,1327 3020,1328 2986,1328 2985,1327 2957,1327 2956,1328 2892,1328 2891,1327 2848,1327 2847,1328 2837,1328 2836,1329 2835,1329 2833,1331 2833,1332 2832,1333 2832,1345 2831,1346 2831,1359 2832,1360 2832,1386 2833,1387 2833,1393 2832,1394 2832,1412 2833,1413 2833,1417 2832,1418 2832,1431 2833,1432 2833,1445 2832,1446 2832,1455 2833,1456 2833,1516 2832,1517 2832,1552 2833,1553 2833,1563 2832,1564 2832,1599 2833,1600 2833,1612 2832,1613 2832,1621 2833,1622 2833,1675 2834,1676 2834,1698 2835,1699 2835,1730 2836,1731 2836,1755 2835,1756 2835,1769 2836,1770 2836,1799 2835,1800 2835,1823 2836,1824 2836,1847 2835,1848 2835,1862 2836,1863 2836,1877 2835,1878 2835,1934 2834,1935 2834,1961 2835,1962 2835,1980 2836,1981 2836,1995 2835,1996 2835,2002 2836,2003 2836,2023 2835,2024 2835,2029 2834,2030 2834,2036 2833,2037 2833,2049 2834,2050 2834,2070 2833,2071 2833,2093 2834,2094 2834,2104 2835,2105 2835,2109 2834,2110 2834,2151 2835,2152 2835,2186 2836,2187 2836,2191 2837,2192 2837,2193 2842,2198 2843,2198 2844,2199 2846,2199 2847,2200 2857,2200 2858,2199 2867,2199 2868,2198 2876,2198 2877,2197 2889,2197 2890,2198 2901,2198 2902,2199 2912,2199 2913,2198 2937,2198 2938,2199 2960,2199 2961,2198 2999,2198 3000,2199 3007,2199 3008,2198 3055,2198 3056,2197 3100,2197 3101,2198 3114,2198 3115,2197 3140,2197 3141,2196 3176,2196 3177,2195 3182,2195 3183,2194 3185,2194 3186,2193 3188,2193 3189,2192 3190,2192 3193,2189 3193,2187 3194,2186 3194,2183 3195,2182 3195,2160 3194,2159 3194,2133 3195,2132 3195,2106 3196,2105 3196,2101 3197,2100 3197,2095 3198,2094 3198,2061 3197,2060 3197,2033 3196,2032 3196,2029 3195,2028 3195,2024 3194,2023 3194,2010 3193,2009 3193,2007 3192,2006 3192,2004 3191,2003 3191,1981 3190,1980 3190,1967 3191,1966 3191,1964 3190,1963 3190,1955 3189,1954 3189,1948 3190,1947 3190,1934 3189,1933 3189,1896 3190,1895 3190,1890 3189,1889 3189,1869 3188,1868 3188,1854 3189,1853 3189,1838 3188,1837 3188,1771 3187,1770 3187,1754 3188,1753 3188,1704 3189,1703 3189,1695 3190,1694 3190,1687 3191,1686 3191,1656 3192,1655 3192,1637 3191,1636 3191,1541 3190,1540 3190,1528 3191,1527 3191,1523 3190,1522 3190,1517 3189,1516 3189,1513 3188,1512 3188,1510 3187,1509 3187,1503 3186,1502 3186,1486 3185,1485 3185,1479 3184,1478 3184,1451 3185,1450 3185,1439 3186,1438 3186,1433 3187,1432 3187,1429 3188,1428 3188,1409 3189,1408 3189,1348 3188,1347 3188,1338 3187,1337 3187,1335 3186,1334 3186,1332 3183,1329 3182,1329 3181,1328 3178,1328 3177,1327 3088,1327 3087,1326 3081,1326 3080,1327 3067,1327 3066,1328 3048,1328 3047,1327 3041,1327 3040,1326" fill="rgba(235,88,48,0.3)" stroke="rgb(235,88,48)" stroke-width="2" data-block-id="0009" data-name="b-0016" /><text x="3020" y="1788" text-anchor="middle" dominant-baseline="middle" class="block-label" fill="rgb(235,88,48)" stroke="white" stroke-width="3" paint-order="stroke">b-0016</text><polygon points="3667,1313 3666,1314 3659,1314 3658,1315 3653,1315 3652,1316 3644,1316 3643,1317 3635,1317 3634,1318 3623,1318 3622,1319 3611,1319 3610,1320 3604,1320 3603,1321 3588,1321 3587,1322 3580,1322 3579,1323 3565,1323 3564,1324 3557,1324 3556,1325 3549,1325 3548,1326 3535,1326 3534,1327 3526,1327 3525,1328 3514,1328 3513,1329 3505,1329 3504,1330 3500,1330 3499,1331 3497,1331 3496,1332 3492,1332 3491,1333 3490,1333 3489,1332 3466,1332 3465,1333 3441,1333 3440,1334 3435,1334 3434,1335 3418,1335 3417,1336 3411,1336 3410,1337 3398,1337 3397,1338 3389,1338 3388,1339 3376,1339 3375,1340 3357,1340 3356,1341 3353,1341 3352,1342 3349,1342 3348,1343 3346,1343 3345,1344 3344,1344 3343,1345 3342,1345 3341,1346 3341,1347 3340,1348 3340,1349 3339,1350 3339,1353 3338,1354 3338,1357 3339,1358 3339,1418 3340,1419 3340,1424 3341,1425 3341,1428 3340,1429 3340,1442 3339,1443 3339,1450 3340,1451 3340,1456 3341,1457 3341,1459 3342,1460 3342,1461 3343,1462 3343,1487 3342,1488 3342,1492 3341,1493 3341,1495 3340,1496 3340,1499 3342,1501 3342,1502 3348,1508 3348,1509 3349,1510 3349,1511 3348,1512 3348,1513 3345,1516 3345,1517 3344,1518 3344,1519 3343,1520 3343,1522 3342,1523 3342,1542 3341,1543 3341,1545 3342,1546 3342,1551 3343,1552 3343,1563 3342,1564 3342,1569 3341,1570 3341,1577 3340,1578 3340,1590 3339,1591 3339,1596 3340,1597 3340,1642 3341,1643 3340,1644 3340,1686 3339,1687 3339,1691 3340,1692 3340,1699 3341,1700 3341,1704 3340,1705 3340,1707 3339,1708 3339,1710 3338,1711 3338,1718 3339,1719 3339,1730 3340,1731 3340,1767 3341,1768 3341,1820 3342,1821 3342,1837 3341,1838 3341,1873 3342,1874 3342,1880 3341,1881 3341,1969 3340,1970 3340,1997 3341,1998 3341,2001 3340,2002 3340,2020 3339,2021 3339,2075 3340,2076 3340,2079 3341,2080 3341,2081 3342,2082 3342,2083 3343,2084 3343,2089 3342,2090 3342,2097 3343,2098 3343,2102 3344,2103 3344,2106 3345,2107 3345,2112 3346,2113 3346,2117 3347,2118 3347,2122 3346,2123 3346,2150 3345,2151 3345,2166 3344,2167 3344,2172 3343,2173 3343,2187 3344,2188 3344,2191 3348,2195 3349,2195 3350,2196 3354,2196 3355,2197 3378,2197 3379,2196 3395,2196 3396,2195 3405,2195 3406,2194 3422,2194 3423,2193 3428,2193 3429,2192 3449,2192 3450,2191 3470,2191 3471,2190 3477,2190 3478,2189 3503,2189 3504,2188 3517,2188 3518,2187 3534,2187 3535,2186 3556,2186 3557,2185 3566,2185 3567,2184 3574,2184 3575,2183 3592,2183 3593,2182 3607,2182 3608,2181 3612,2181 3613,2180 3616,2180 3617,2179 3623,2179 3624,2178 3648,2178 3649,2177 3668,2177 3669,2178 3671,2178 3672,2177 3682,2177 3683,2176 3687,2176 3688,2175 3691,2175 3692,2174 3695,2174 3696,2173 3697,2173 3701,2169 3701,2168 3702,2167 3702,2165 3703,2164 3703,2161 3704,2160 3704,2157 3705,2156 3705,2153 3704,2152 3704,2146 3703,2145 3703,2134 3704,2133 3704,2130 3703,2129 3703,2102 3702,2101 3702,2094 3701,2093 3701,2081 3702,2080 3702,2074 3703,2073 3703,2070 3702,2069 3702,2062 3701,2061 3701,2030 3700,2029 3700,2014 3701,2013 3701,2009 3700,2008 3700,1980 3699,1979 3699,1958 3700,1957 3700,1945 3701,1944 3701,1938 3700,1937 3700,1928 3699,1927 3699,1914 3700,1913 3700,1899 3699,1898 3699,1766 3698,1765 3698,1763 3697,1762 3697,1759 3698,1758 3698,1756 3699,1755 3699,1753 3700,1752 3700,1748 3701,1747 3701,1744 3702,1743 3702,1727 3701,1726 3701,1722 3700,1721 3700,1719 3699,1718 3699,1717 3698,1716 3698,1714 3697,1713 3697,1711 3698,1710 3698,1703 3699,1702 3699,1686 3698,1685 3698,1640 3697,1639 3697,1546 3698,1545 3697,1544 3697,1523 3698,1522 3698,1520 3697,1519 3697,1460 3696,1459 3696,1420 3695,1419 3695,1393 3696,1392 3695,1391 3695,1327 3694,1326 3694,1319 3693,1318 3693,1317 3691,1315 3690,1315 3689,1314 3688,1314 3687,1313" fill="rgba(218,58,254,0.3)" stroke="rgb(218,58,254)" stroke-width="2" data-block-id="0010" data-name="b-0017" /><text x="3507" y="1746" text-anchor="middle" dominant-baseline="middle" class="block-label" fill="rgb(218,58,254)" stroke="white" stroke-width="3" paint-order="stroke">b-0017</text><polygon points="3667,346 3666,347 3656,347 3655,348 3644,348 3643,349 3630,349 3629,350 3613,350 3612,351 3604,351 3603,352 3594,352 3593,353 3580,353 3579,354 3569,354 3568,355 3547,355 3546,356 3541,356 3540,357 3525,357 3524,358 3518,358 3517,359 3508,359 3507,360 3497,360 3496,359 3492,359 3491,360 3486,360 3485,361 3481,361 3480,362 3462,362 3461,363 3450,363 3449,364 3438,364 3437,365 3430,365 3429,366 3423,366 3422,367 3411,367 3410,368 3395,368 3394,369 3383,369 3382,370 3365,370 3364,371 3356,371 3355,370 3346,370 3345,371 3344,371 3343,372 3342,372 3341,373 3340,373 3339,374 3338,374 3337,375 3337,376 3336,377 3336,382 3335,383 3335,388 3334,389 3334,393 3333,394 3333,397 3332,398 3332,403 3333,404 3333,518 3332,519 3332,521 3333,522 3333,556 3332,557 3332,581 3333,582 3333,609 3332,610 3332,622 3333,623 3333,645 3334,646 3334,656 3335,657 3335,669 3336,670 3336,674 3337,675 3337,689 3338,690 3338,694 3339,695 3339,697 3340,698 3340,711 3341,712 3341,713 3342,714 3342,716 3343,717 3343,720 3344,721 3344,729 3343,730 3343,757 3344,758 3344,775 3343,776 3343,782 3342,783 3342,791 3341,792 3341,801 3342,802 3342,807 3343,808 3343,812 3344,813 3344,833 3345,834 3345,845 3344,846 3344,851 3343,852 3343,873 3342,874 3342,885 3343,886 3343,890 3342,891 3342,905 3343,906 3343,911 3344,912 3344,954 3343,955 3343,973 3342,974 3342,989 3341,990 3341,998 3340,999 3340,1000 3339,1001 3339,1002 3338,1003 3338,1004 3337,1005 3337,1007 3336,1008 3336,1011 3335,1012 3335,1099 3334,1100 3334,1167 3333,1168 3333,1183 3334,1184 3334,1226 3335,1227 3335,1229 3336,1230 3336,1232 3337,1233 3337,1234 3340,1237 3341,1237 3342,1238 3344,1238 3345,1239 3356,1239 3357,1238 3369,1238 3370,1237 3381,1237 3382,1236 3399,1236 3400,1235 3405,1235 3406,1234 3423,1234 3424,1233 3430,1233 3431,1232 3449,1232 3450,1231 3461,1231 3462,1230 3473,1230 3474,1229 3485,1229 3486,1228 3496,1228 3497,1227 3506,1227 3507,1226 3516,1226 3517,1225 3528,1225 3529,1224 3551,1224 3552,1223 3558,1223 3559,1222 3564,1222 3565,1221 3570,1221 3571,1220 3575,1220 3576,1219 3585,1219 3586,1218 3603,1218 3604,1217 3609,1217 3610,1216 3614,1216 3615,1217 3634,1217 3635,1216 3641,1216 3642,1215 3647,1215 3648,1214 3660,1214 3661,1213 3682,1213 3683,1212 3685,1212 3686,1211 3687,1211 3689,1209 3689,1208 3690,1207 3690,1205 3691,1204 3691,1202 3692,1201 3692,1188 3693,1187 3693,1173 3692,1172 3692,1155 3693,1154 3693,1150 3692,1149 3692,979 3691,978 3691,958 3692,957 3692,913 3693,912 3692,911 3692,796 3693,795 3693,790 3692,789 3692,776 3693,775 3693,767 3692,766 3692,742 3691,741 3691,665 3690,664 3690,660 3691,659 3691,647 3690,646 3690,631 3691,630 3691,623 3690,622 3690,597 3689,596 3689,561 3688,560 3688,538 3689,537 3689,522 3688,521 3688,501 3687,500 3687,488 3688,487 3688,456 3687,455 3687,443 3688,442 3688,428 3687,427 3687,353 3686,352 3686,351 3684,349 3683,349 3682,348 3680,348 3679,347 3674,347 3673,346" fill="rgba(169,219,187,0.3)" stroke="rgb(169,219,187)" stroke-width="2" data-block-id="0011" data-name="b-0018" /><text x="3486" y="779" text-anchor="middle" dominant-baseline="middle" class="block-label" fill="rgb(169,219,187)" stroke="white" stroke-width="3" paint-order="stroke">b-0018</text><polygon points="2859,350 2858,351 2843,351 2842,352 2836,352 2835,353 2833,353 2833,354 2831,356 2831,358 2830,359 2830,363 2829,364 2829,371 2830,372 2830,382 2829,383 2829,405 2830,406 2830,421 2829,422 2829,512 2828,513 2828,522 2829,523 2829,526 2830,527 2830,528 2831,529 2831,534 2830,535 2830,540 2829,541 2829,545 2830,546 2830,551 2831,552 2831,599 2830,600 2830,620 2831,621 2831,628 2830,629 2830,690 2831,691 2831,705 2830,706 2830,796 2831,797 2831,823 2830,824 2830,848 2831,849 2831,864 2830,865 2830,939 2831,940 2831,969 2832,970 2832,1007 2833,1008 2833,1092 2834,1093 2834,1143 2835,1144 2835,1159 2834,1160 2834,1168 2835,1169 2835,1199 2834,1200 2834,1213 2835,1214 2835,1216 2836,1217 2836,1218 2838,1220 2839,1220 2840,1221 2841,1221 2842,1222 2845,1222 2846,1223 2853,1223 2854,1224 2867,1224 2868,1223 2870,1223 2871,1224 2879,1224 2880,1225 2907,1225 2908,1224 2923,1224 2924,1225 2996,1225 2997,1226 3010,1226 3011,1225 3046,1225 3047,1224 3057,1224 3058,1225 3089,1225 3090,1224 3113,1224 3114,1225 3147,1225 3148,1224 3162,1224 3163,1225 3173,1225 3174,1224 3177,1224 3178,1223 3180,1223 3184,1219 3184,1218 3185,1217 3185,1215 3186,1214 3186,1209 3187,1208 3187,1137 3186,1136 3186,1107 3185,1106 3185,1094 3184,1093 3184,1072 3183,1071 3183,956 3184,955 3184,929 3185,928 3185,924 3184,923 3184,908 3183,907 3183,856 3184,855 3184,828 3183,827 3183,819 3182,818 3182,733 3181,732 3182,731 3182,638 3181,637 3181,596 3180,595 3180,577 3181,576 3181,571 3182,570 3182,549 3181,548 3181,540 3182,539 3182,532 3183,531 3183,460 3182,459 3182,455 3181,454 3181,453 3180,452 3180,450 3178,448 3178,447 3177,446 3177,444 3176,443 3176,440 3175,439 3175,432 3176,431 3176,428 3177,427 3177,420 3176,419 3176,417 3175,416 3175,414 3174,413 3174,407 3175,406 3175,393 3174,392 3174,376 3173,375 3173,374 3172,373 3172,372 3171,371 3171,370 3170,369 3170,367 3169,366 3169,365 3167,363 3167,362 3166,361 3165,361 3164,360 3163,360 3162,359 3160,359 3159,358 3151,358 3150,359 3125,359 3124,360 3117,360 3116,359 3105,359 3104,360 3089,360 3088,359 3040,359 3039,358 3037,358 3036,359 3026,359 3025,358 3023,358 3022,357 3021,357 3019,355 3018,355 3017,354 3016,354 3015,353 2986,353 2985,352 2971,352 2970,353 2927,353 2926,354 2904,354 2903,353 2900,353 2899,352 2893,352 2892,351 2885,351 2884,350" fill="rgba(207,14,189,0.3)" stroke="rgb(207,14,189)" stroke-width="2" data-block-id="0012" data-name="b-0019" /><text x="3016" y="704" text-anchor="middle" dominant-baseline="middle" class="block-label" fill="rgb(207,14,189)" stroke="white" stroke-width="3" paint-order="stroke">b-0019</text><polygon points="2394,343 2393,344 2392,344 2390,346 2389,346 2388,347 2388,348 2386,350 2386,352 2385,353 2385,355 2384,356 2384,357 2383,358 2383,360 2382,361 2382,368 2381,369 2381,378 2382,379 2382,384 2383,385 2383,392 2382,393 2382,409 2381,410 2381,414 2382,415 2382,434 2383,435 2383,446 2382,447 2382,481 2383,482 2383,488 2382,489 2382,571 2381,572 2381,596 2382,597 2382,602 2381,603 2381,614 2380,615 2380,617 2381,618 2381,630 2380,631 2380,683 2379,684 2379,688 2380,689 2380,746 2381,747 2381,753 2382,754 2382,766 2383,767 2383,796 2384,797 2384,807 2385,808 2385,837 2386,838 2386,872 2385,873 2385,881 2386,882 2386,937 2387,938 2387,955 2386,956 2386,970 2385,971 2385,975 2386,976 2386,1006 2385,1007 2385,1023 2386,1024 2386,1027 2387,1028 2387,1030 2388,1031 2388,1034 2387,1035 2387,1039 2386,1040 2386,1104 2387,1105 2387,1112 2386,1113 2386,1115 2387,1116 2387,1132 2386,1133 2386,1143 2387,1144 2387,1206 2386,1207 2386,1213 2387,1214 2387,1216 2388,1217 2388,1218 2390,1220 2391,1220 2392,1221 2394,1221 2395,1222 2426,1222 2427,1223 2434,1223 2435,1222 2463,1222 2464,1221 2469,1221 2470,1222 2518,1222 2519,1223 2573,1223 2574,1224 2584,1224 2585,1225 2588,1225 2589,1224 2605,1224 2606,1225 2675,1225 2676,1226 2688,1226 2689,1225 2700,1225 2701,1224 2707,1224 2708,1223 2713,1223 2714,1222 2728,1222 2729,1221 2730,1221 2733,1218 2733,1217 2734,1216 2734,1215 2735,1214 2735,1201 2734,1200 2734,1187 2733,1186 2733,1183 2732,1182 2732,1180 2731,1179 2731,1178 2730,1177 2731,1176 2731,1174 2732,1173 2732,1172 2733,1171 2733,1169 2734,1168 2734,1165 2735,1164 2735,1142 2734,1141 2734,1122 2735,1121 2735,1112 2734,1111 2734,1060 2733,1059 2733,1050 2734,1049 2734,1027 2735,1026 2735,1014 2734,1013 2734,1008 2733,1007 2733,1005 2732,1004 2732,1001 2731,1000 2731,998 2730,997 2730,993 2731,992 2731,958 2730,957 2730,947 2729,946 2729,935 2730,934 2730,929 2731,928 2731,882 2732,881 2732,864 2733,863 2733,856 2734,855 2734,845 2735,844 2735,831 2734,830 2734,802 2735,801 2735,792 2734,791 2734,769 2733,768 2733,754 2734,753 2734,739 2733,738 2733,718 2734,717 2734,666 2733,665 2733,657 2734,656 2734,648 2733,647 2733,615 2734,614 2734,597 2733,596 2733,559 2734,558 2734,554 2733,553 2733,548 2732,547 2732,528 2733,527 2733,505 2732,504 2732,499 2731,498 2731,484 2732,483 2732,459 2731,458 2731,454 2730,453 2730,443 2731,442 2731,435 2732,434 2732,424 2731,423 2731,365 2730,364 2730,362 2729,361 2729,360 2727,358 2726,358 2725,357 2723,357 2722,356 2708,356 2707,357 2678,357 2677,356 2663,356 2662,357 2656,357 2655,358 2601,358 2600,357 2585,357 2584,356 2581,356 2580,355 2576,355 2575,354 2558,354 2557,353 2551,353 2550,352 2549,352 2548,353 2537,353 2536,352 2534,352 2533,351 2531,351 2530,350 2525,350 2524,349 2517,349 2516,348 2510,348 2509,349 2500,349 2499,348 2491,348 2490,347 2487,347 2486,346 2484,346 2483,345 2481,345 2480,344 2478,344 2477,345 2474,345 2473,346 2471,346 2470,347 2463,347 2462,346 2461,346 2460,345 2458,345 2457,344 2456,344 2455,343 2447,343 2446,344 2402,344 2401,343" fill="rgba(189,174,189,0.3)" stroke="rgb(189,174,189)" stroke-width="2" data-block-id="0013" data-name="b-0020" /><text x="2562" y="747" text-anchor="middle" dominant-baseline="middle" class="block-label" fill="rgb(189,174,189)" stroke="white" stroke-width="3" paint-order="stroke">b-0020</text><polygon points="2395,1326 2394,1327 2393,1327 2392,1328 2391,1328 2390,1329 2389,1329 2388,1330 2388,1331 2387,1332 2387,1333 2386,1334 2386,1380 2385,1381 2385,1402 2386,1403 2386,1411 2387,1412 2387,1416 2386,1417 2386,1420 2385,1421 2385,1442 2386,1443 2386,1480 2385,1481 2385,1590 2386,1591 2386,1624 2387,1625 2387,1663 2388,1664 2388,1736 2389,1737 2389,1738 2388,1739 2388,1760 2389,1761 2389,1783 2388,1784 2388,1936 2389,1937 2389,2007 2390,2008 2390,2014 2389,2015 2389,2045 2388,2046 2388,2102 2389,2103 2389,2171 2390,2172 2390,2175 2391,2176 2391,2178 2392,2179 2392,2182 2393,2183 2393,2186 2394,2187 2394,2189 2397,2192 2400,2192 2401,2193 2403,2193 2404,2194 2413,2194 2414,2193 2418,2193 2419,2192 2421,2192 2422,2193 2457,2193 2458,2192 2460,2192 2461,2191 2462,2191 2463,2190 2464,2190 2465,2189 2472,2189 2473,2190 2476,2190 2477,2191 2479,2191 2480,2192 2485,2192 2486,2193 2495,2193 2496,2194 2505,2194 2506,2193 2509,2193 2510,2192 2512,2192 2513,2191 2524,2191 2525,2192 2529,2192 2530,2191 2542,2191 2543,2192 2555,2192 2556,2191 2559,2191 2560,2190 2570,2190 2571,2191 2576,2191 2577,2190 2601,2190 2602,2189 2605,2189 2606,2188 2608,2188 2609,2187 2613,2187 2614,2188 2621,2188 2622,2189 2630,2189 2631,2190 2643,2190 2644,2191 2645,2191 2646,2190 2649,2190 2650,2189 2652,2189 2653,2188 2654,2188 2655,2187 2658,2187 2659,2186 2660,2186 2661,2187 2669,2187 2670,2188 2674,2188 2675,2189 2680,2189 2681,2190 2698,2190 2699,2189 2703,2189 2704,2188 2710,2188 2711,2189 2717,2189 2718,2190 2719,2190 2720,2191 2721,2191 2722,2192 2723,2192 2724,2193 2726,2193 2727,2194 2731,2194 2734,2191 2734,2190 2735,2189 2735,2187 2736,2186 2736,2182 2737,2181 2737,2178 2738,2177 2738,2175 2739,2174 2739,2168 2740,2167 2740,2148 2739,2147 2739,2013 2738,2012 2738,1977 2737,1976 2737,1969 2738,1968 2738,1957 2739,1956 2739,1937 2738,1936 2738,1922 2737,1921 2737,1916 2736,1915 2736,1884 2737,1883 2737,1877 2736,1876 2736,1865 2737,1864 2737,1848 2738,1847 2738,1839 2737,1838 2737,1833 2738,1832 2738,1827 2739,1826 2739,1780 2740,1779 2740,1760 2741,1759 2741,1750 2740,1749 2740,1747 2739,1746 2739,1744 2738,1743 2738,1742 2737,1741 2737,1740 2736,1739 2736,1735 2737,1734 2737,1730 2738,1729 2738,1721 2737,1720 2737,1705 2736,1704 2736,1693 2737,1692 2737,1690 2736,1689 2736,1657 2735,1656 2735,1646 2736,1645 2736,1640 2735,1639 2735,1559 2736,1558 2736,1555 2737,1554 2737,1548 2738,1547 2738,1543 2737,1542 2737,1524 2736,1523 2736,1502 2737,1501 2737,1472 2736,1471 2736,1463 2735,1462 2735,1460 2736,1459 2736,1419 2735,1418 2735,1412 2736,1411 2736,1374 2735,1373 2735,1364 2736,1363 2736,1344 2735,1343 2735,1339 2734,1338 2734,1336 2733,1335 2733,1334 2729,1330 2728,1330 2727,1329 2726,1329 2725,1328 2722,1328 2721,1327 2704,1327 2703,1328 2696,1328 2695,1329 2692,1329 2691,1328 2678,1328 2677,1327 2625,1327 2624,1328 2615,1328 2614,1327 2609,1327 2608,1328 2579,1328 2578,1327 2570,1327 2569,1328 2557,1328 2556,1327 2528,1327 2527,1326" fill="rgba(50,107,54,0.3)" stroke="rgb(50,107,54)" stroke-width="2" data-block-id="0014" data-name="b-0021" /><text x="2603" y="1843" text-anchor="middle" dominant-baseline="middle" class="block-label" fill="rgb(50,107,54)" stroke="white" stroke-width="3" paint-order="stroke">b-0021</text><polygon points="1020,329 1019,330 1016,330 1015,331 1014,331 1011,334 1011,336 1010,337 1010,342 1009,343 1009,358 1010,359 1010,398 1009,399 1009,404 1010,405 1010,418 1009,419 1009,426 1010,427 1010,443 1009,444 1009,450 1010,451 1010,477 1011,478 1011,536 1010,537 1010,591 1011,592 1011,674 1010,675 1010,683 1009,684 1009,688 1010,689 1010,701 1011,702 1011,725 1010,726 1010,743 1011,744 1011,774 1010,775 1010,782 1011,783 1011,792 1012,793 1012,799 1011,800 1011,834 1012,835 1012,869 1011,870 1011,879 1012,880 1012,897 1011,898 1011,913 1012,914 1012,949 1011,950 1011,951 1012,952 1012,1035 1011,1036 1011,1038 1010,1039 1010,1041 1009,1042 1009,1079 1010,1080 1010,1092 1011,1093 1011,1099 1012,1100 1012,1109 1011,1110 1011,1121 1012,1122 1012,1185 1013,1186 1013,1191 1012,1192 1012,1210 1013,1211 1013,1215 1014,1216 1014,1217 1017,1220 1018,1220 1019,1221 1032,1221 1033,1222 1036,1222 1037,1221 1082,1221 1083,1222 1100,1222 1101,1221 1106,1221 1107,1222 1122,1222 1123,1221 1138,1221 1139,1222 1144,1222 1145,1221 1155,1221 1156,1222 1213,1222 1214,1223 1280,1223 1281,1222 1296,1222 1297,1223 1310,1223 1311,1222 1315,1222 1316,1221 1319,1221 1320,1220 1321,1220 1324,1217 1324,1216 1325,1215 1325,1213 1326,1212 1326,1192 1325,1191 1325,1116 1326,1115 1326,1103 1325,1102 1325,1059 1326,1058 1326,1057 1325,1056 1325,1015 1326,1014 1326,1009 1325,1008 1325,997 1324,996 1324,951 1323,950 1323,938 1322,937 1322,932 1321,931 1321,912 1320,911 1320,907 1319,906 1319,901 1318,900 1318,882 1317,881 1317,875 1318,874 1318,862 1319,861 1319,842 1320,841 1320,840 1319,839 1319,819 1320,818 1320,803 1321,802 1321,798 1322,797 1322,717 1321,716 1321,703 1322,702 1322,696 1321,695 1321,641 1320,640 1320,618 1321,617 1321,595 1320,594 1320,576 1321,575 1321,542 1320,541 1320,533 1319,532 1319,516 1320,515 1320,475 1321,474 1321,465 1320,464 1320,425 1319,424 1319,396 1320,395 1320,382 1319,381 1319,358 1320,357 1320,347 1319,346 1319,339 1318,338 1318,337 1314,333 1313,333 1312,332 1308,332 1307,331 1305,331 1304,332 1219,332 1218,331 1163,331 1162,330 1132,330 1131,329 1121,329 1120,330 1027,330 1026,329" fill="rgba(243,63,248,0.3)" stroke="rgb(243,63,248)" stroke-width="2" data-block-id="0015" data-name="b-0022" /><text x="1167" y="803" text-anchor="middle" dominant-baseline="middle" class="block-label" fill="rgb(243,63,248)" stroke="white" stroke-width="3" paint-order="stroke">b-0022</text><polygon points="1283,1321 1282,1322 1275,1322 1274,1323 1265,1323 1264,1324 1254,1324 1253,1323 1242,1323 1241,1322 1233,1322 1232,1323 1229,1323 1228,1324 1224,1324 1223,1325 1214,1325 1213,1326 1200,1326 1199,1325 1192,1325 1191,1324 1174,1324 1173,1323 1164,1323 1163,1322 1162,1323 1123,1323 1122,1322 1113,1322 1112,1323 1106,1323 1105,1324 1074,1324 1073,1323 1068,1323 1067,1324 1054,1324 1053,1323 1048,1323 1047,1322 1021,1322 1020,1323 1019,1323 1015,1327 1015,1328 1013,1330 1013,1333 1012,1334 1012,1357 1013,1358 1013,1375 1014,1376 1014,1383 1015,1384 1015,1388 1016,1389 1016,1393 1015,1394 1015,1397 1014,1398 1014,1400 1013,1401 1013,1403 1012,1404 1012,1407 1011,1408 1011,1413 1010,1414 1010,1420 1009,1421 1009,1428 1010,1429 1010,1432 1011,1433 1011,1435 1012,1436 1012,1441 1011,1442 1011,1446 1010,1447 1010,1451 1009,1452 1009,1453 1010,1454 1010,1467 1011,1468 1011,1476 1012,1477 1012,1522 1013,1523 1013,1535 1012,1536 1012,1543 1011,1544 1011,1548 1012,1549 1012,1577 1011,1578 1011,1630 1010,1631 1010,1651 1011,1652 1011,1656 1010,1657 1010,1669 1011,1670 1011,1738 1012,1739 1012,1753 1013,1754 1013,1759 1014,1760 1014,1765 1015,1766 1015,1789 1016,1790 1016,1815 1017,1816 1017,1824 1016,1825 1016,1843 1015,1844 1015,1936 1014,1937 1014,2008 1015,2009 1015,2095 1016,2096 1016,2119 1015,2120 1015,2124 1014,2125 1014,2128 1013,2129 1013,2161 1014,2162 1014,2166 1015,2167 1015,2169 1017,2171 1017,2172 1018,2173 1018,2174 1021,2177 1022,2177 1023,2178 1024,2178 1025,2179 1026,2179 1027,2180 1028,2180 1029,2181 1031,2181 1032,2182 1047,2182 1048,2181 1052,2181 1053,2180 1095,2180 1096,2179 1100,2179 1101,2178 1135,2178 1136,2179 1186,2179 1187,2180 1206,2180 1207,2179 1214,2179 1215,2180 1243,2180 1244,2181 1248,2181 1249,2180 1285,2180 1286,2181 1292,2181 1293,2182 1299,2182 1300,2183 1309,2183 1310,2182 1312,2182 1313,2181 1314,2181 1315,2180 1316,2180 1317,2179 1318,2179 1320,2177 1321,2177 1324,2174 1324,2173 1325,2172 1325,2171 1326,2170 1326,2166 1327,2165 1326,2164 1326,2080 1327,2079 1327,2074 1328,2073 1328,2063 1327,2062 1327,2050 1326,2049 1326,2026 1327,2025 1327,2021 1326,2020 1326,2003 1325,2002 1325,1984 1326,1983 1326,1979 1327,1978 1327,1973 1326,1972 1326,1966 1325,1965 1325,1959 1326,1958 1326,1949 1325,1948 1325,1932 1326,1931 1326,1926 1325,1925 1325,1875 1324,1874 1324,1861 1325,1860 1325,1854 1324,1853 1324,1838 1325,1837 1325,1825 1324,1824 1324,1817 1325,1816 1325,1793 1326,1792 1326,1788 1327,1787 1327,1782 1326,1781 1326,1775 1325,1774 1325,1742 1326,1741 1326,1730 1325,1729 1325,1717 1326,1716 1326,1708 1325,1707 1325,1700 1326,1699 1326,1693 1327,1692 1327,1685 1326,1684 1326,1667 1325,1666 1325,1648 1326,1647 1326,1633 1325,1632 1325,1616 1324,1615 1324,1602 1325,1601 1325,1596 1326,1595 1326,1589 1325,1588 1325,1569 1326,1568 1326,1558 1327,1557 1327,1551 1328,1550 1328,1493 1327,1492 1327,1456 1328,1455 1328,1446 1327,1445 1327,1440 1326,1439 1326,1409 1327,1408 1327,1404 1328,1403 1328,1399 1327,1398 1327,1384 1326,1383 1326,1369 1325,1368 1326,1367 1326,1358 1327,1357 1327,1350 1326,1349 1326,1333 1325,1332 1325,1329 1324,1328 1324,1327 1323,1326 1323,1325 1320,1322 1318,1322 1317,1321 1304,1321 1303,1322 1299,1322 1298,1323 1293,1323 1292,1322 1286,1322 1285,1321" fill="rgba(130,228,50,0.3)" stroke="rgb(130,228,50)" stroke-width="2" data-block-id="0016" data-name="b-0023" /><text x="1185" y="1703" text-anchor="middle" dominant-baseline="middle" class="block-label" fill="rgb(130,228,50)" stroke="white" stroke-width="3" paint-order="stroke">b-0023</text><polygon points="4147,2257 4146,2258 4134,2258 4133,2259 4127,2259 4126,2260 4121,2260 4120,2261 4114,2261 4113,2262 4097,2262 4096,2263 4092,2263 4091,2264 4083,2264 4082,2265 4070,2265 4069,2266 4058,2266 4057,2267 4048,2267 4047,2268 4040,2268 4039,2269 4033,2269 4032,2270 4012,2270 4011,2271 3994,2271 3993,2272 3987,2272 3986,2273 3981,2273 3980,2274 3969,2274 3968,2275 3957,2275 3956,2276 3947,2276 3946,2277 3939,2277 3938,2278 3934,2278 3933,2279 3922,2279 3921,2280 3916,2280 3915,2281 3906,2281 3905,2282 3895,2282 3894,2283 3889,2283 3888,2284 3867,2284 3866,2285 3859,2285 3858,2286 3848,2286 3847,2287 3824,2287 3823,2288 3815,2288 3814,2289 3801,2289 3800,2290 3799,2290 3797,2292 3797,2293 3796,2294 3796,2295 3795,2296 3795,2316 3794,2317 3794,2322 3795,2323 3795,2330 3796,2331 3796,2340 3795,2341 3795,2349 3796,2350 3796,2380 3797,2381 3797,2384 3796,2385 3796,2400 3797,2401 3797,2509 3798,2510 3798,2556 3797,2557 3797,2567 3798,2568 3798,2622 3799,2623 3799,2653 3798,2654 3798,2659 3799,2660 3799,2680 3800,2681 3800,2693 3799,2694 3799,2708 3800,2709 3800,2715 3801,2716 3801,2733 3802,2734 3802,2759 3803,2760 3803,2785 3804,2786 3804,2790 3803,2791 3803,2802 3804,2803 3804,2809 3805,2810 3805,2814 3804,2815 3804,2830 3805,2831 3805,2838 3804,2839 3804,2857 3805,2858 3805,2862 3804,2863 3804,2874 3805,2875 3805,2890 3804,2891 3804,2899 3805,2900 3805,2917 3806,2918 3806,2932 3807,2933 3807,2937 3808,2938 3808,2940 3809,2941 3809,2942 3811,2944 3812,2944 3813,2945 3815,2945 3816,2946 3817,2945 3862,2945 3863,2944 3907,2944 3908,2945 3914,2945 3915,2944 3938,2944 3939,2943 3946,2943 3947,2944 3994,2944 3995,2943 4050,2943 4051,2944 4084,2944 4085,2943 4095,2943 4096,2944 4132,2944 4133,2943 4156,2943 4157,2942 4161,2942 4162,2941 4163,2941 4165,2939 4165,2938 4166,2937 4166,2936 4167,2935 4167,2933 4168,2932 4168,2901 4167,2900 4167,2867 4166,2866 4166,2815 4165,2814 4165,2803 4164,2802 4164,2791 4163,2790 4163,2778 4164,2777 4163,2776 4163,2754 4164,2753 4164,2727 4163,2726 4163,2718 4162,2717 4162,2641 4161,2640 4161,2597 4160,2596 4160,2580 4161,2579 4161,2566 4160,2565 4160,2525 4159,2524 4159,2489 4158,2488 4158,2477 4157,2476 4157,2464 4158,2463 4158,2429 4157,2428 4157,2405 4158,2404 4157,2403 4157,2373 4156,2372 4156,2369 4157,2368 4157,2269 4156,2268 4156,2264 4155,2263 4155,2262 4152,2259 4151,2259 4150,2258 4148,2258" fill="rgba(134,20,72,0.3)" stroke="rgb(134,20,72)" stroke-width="2" data-block-id="0017" data-name="b-0024" /><text x="3967" y="2572" text-anchor="middle" dominant-baseline="middle" class="block-label" fill="rgb(134,20,72)" stroke="white" stroke-width="3" paint-order="stroke">b-0024</text><polygon points="1474,2315 1473,2316 1472,2316 1471,2317 1470,2317 1465,2322 1465,2324 1464,2325 1464,2329 1463,2330 1463,2343 1462,2344 1462,2366 1463,2367 1463,2371 1462,2372 1462,2398 1461,2399 1461,2412 1462,2413 1462,2423 1461,2424 1461,2431 1462,2432 1462,2470 1461,2471 1461,2509 1462,2510 1462,2515 1461,2516 1461,2534 1462,2535 1462,2541 1461,2542 1461,2553 1460,2554 1460,2558 1459,2559 1459,2574 1460,2575 1460,2602 1461,2603 1461,2627 1462,2628 1462,2634 1461,2635 1461,2640 1460,2641 1460,2646 1461,2647 1461,2652 1462,2653 1462,2683 1461,2684 1461,2690 1460,2691 1460,2693 1461,2694 1461,2703 1462,2704 1462,2705 1461,2706 1461,2732 1460,2733 1460,2745 1461,2746 1461,2773 1460,2774 1460,2781 1459,2782 1459,2792 1460,2793 1460,2844 1461,2845 1461,2852 1460,2853 1460,2860 1459,2861 1459,2892 1458,2893 1458,2951 1459,2952 1459,2954 1460,2955 1460,2956 1463,2959 1464,2959 1465,2960 1467,2960 1468,2961 1472,2961 1473,2962 1480,2962 1481,2961 1500,2961 1501,2960 1506,2960 1507,2959 1543,2959 1544,2960 1547,2960 1548,2959 1553,2959 1554,2958 1563,2958 1564,2959 1568,2959 1569,2960 1573,2960 1574,2959 1579,2959 1580,2958 1617,2958 1618,2959 1621,2959 1622,2958 1634,2958 1635,2959 1657,2959 1658,2960 1662,2960 1663,2961 1673,2961 1674,2960 1680,2960 1681,2959 1687,2959 1688,2958 1723,2958 1724,2957 1734,2957 1735,2958 1754,2958 1755,2959 1765,2959 1766,2958 1774,2958 1775,2957 1776,2957 1777,2958 1799,2958 1800,2959 1808,2959 1809,2960 1812,2960 1813,2959 1823,2959 1824,2958 1827,2958 1828,2957 1829,2957 1830,2956 1831,2956 1833,2954 1833,2953 1834,2952 1834,2948 1835,2947 1835,2906 1836,2905 1836,2851 1837,2850 1837,2848 1836,2847 1836,2839 1835,2838 1835,2832 1834,2831 1834,2823 1833,2822 1834,2821 1834,2796 1835,2795 1835,2778 1834,2777 1834,2771 1833,2770 1833,2767 1832,2766 1832,2727 1831,2726 1831,2721 1830,2720 1830,2703 1831,2702 1831,2699 1832,2698 1832,2693 1833,2692 1833,2686 1834,2685 1834,2680 1835,2679 1835,2669 1836,2668 1836,2618 1837,2617 1837,2605 1836,2604 1836,2576 1837,2575 1837,2554 1836,2553 1836,2526 1837,2525 1837,2509 1836,2508 1836,2500 1835,2499 1835,2486 1836,2485 1836,2480 1837,2479 1837,2468 1836,2467 1836,2460 1837,2459 1837,2411 1838,2410 1838,2333 1837,2332 1837,2328 1836,2327 1836,2324 1835,2323 1835,2322 1833,2320 1831,2320 1830,2319 1827,2319 1826,2318 1823,2318 1822,2317 1818,2317 1817,2318 1803,2318 1802,2317 1795,2317 1794,2318 1790,2318 1789,2319 1779,2319 1778,2320 1742,2320 1741,2319 1694,2319 1693,2320 1688,2320 1687,2319 1674,2319 1673,2318 1659,2318 1658,2319 1650,2319 1649,2318 1637,2318 1636,2319 1627,2319 1626,2318 1556,2318 1555,2317 1544,2317 1543,2318 1539,2318 1538,2319 1504,2319 1503,2318 1497,2318 1496,2317 1492,2317 1491,2316 1487,2316 1486,2315" fill="rgba(166,17,131,0.3)" stroke="rgb(166,17,131)" stroke-width="2" data-block-id="0018" data-name="b-0025" /><text x="1645" y="2655" text-anchor="middle" dominant-baseline="middle" class="block-label" fill="rgb(166,17,131)" stroke="white" stroke-width="3" paint-order="stroke">b-0025</text><polygon points="1939,2314 1938,2315 1936,2315 1935,2316 1934,2316 1933,2317 1931,2317 1927,2321 1927,2324 1926,2325 1926,2339 1925,2340 1925,2349 1926,2350 1926,2366 1925,2367 1925,2374 1926,2375 1926,2387 1925,2388 1925,2396 1926,2397 1926,2416 1927,2417 1927,2428 1928,2429 1928,2441 1927,2442 1927,2474 1928,2475 1928,2481 1927,2482 1927,2495 1928,2496 1928,2521 1927,2522 1927,2570 1928,2571 1928,2573 1927,2574 1927,2625 1926,2626 1926,2651 1925,2652 1925,2699 1926,2700 1926,2708 1925,2709 1925,2766 1926,2767 1926,2772 1927,2773 1927,2781 1928,2782 1928,2813 1927,2814 1927,2826 1928,2827 1928,2835 1929,2836 1928,2837 1928,2873 1929,2874 1929,2889 1928,2890 1928,2903 1929,2904 1929,2910 1928,2911 1928,2923 1929,2924 1929,2946 1930,2947 1930,2950 1931,2951 1931,2952 1933,2954 1934,2954 1935,2955 1936,2955 1937,2956 1939,2956 1940,2957 1946,2957 1947,2958 1984,2958 1985,2959 1996,2959 1997,2960 2003,2960 2004,2959 2007,2959 2008,2958 2009,2958 2010,2957 2020,2957 2021,2958 2052,2958 2053,2957 2058,2957 2059,2956 2064,2956 2065,2957 2074,2957 2075,2958 2089,2958 2090,2959 2098,2959 2099,2958 2101,2958 2102,2957 2105,2957 2106,2956 2115,2956 2116,2957 2129,2957 2130,2956 2133,2956 2134,2957 2172,2957 2173,2958 2181,2958 2182,2959 2186,2959 2187,2960 2196,2960 2197,2959 2202,2959 2203,2958 2272,2958 2273,2957 2279,2957 2280,2958 2288,2958 2289,2957 2290,2957 2291,2956 2292,2956 2293,2955 2293,2954 2294,2953 2294,2952 2295,2951 2295,2948 2296,2947 2296,2916 2295,2915 2295,2902 2296,2901 2296,2890 2295,2889 2295,2874 2296,2873 2296,2850 2295,2849 2295,2833 2296,2832 2296,2816 2295,2815 2295,2765 2296,2764 2296,2755 2297,2754 2297,2749 2296,2748 2296,2741 2295,2740 2295,2730 2296,2729 2296,2695 2295,2694 2295,2689 2296,2688 2296,2663 2297,2662 2297,2641 2298,2640 2298,2637 2299,2636 2299,2619 2300,2618 2300,2601 2299,2600 2299,2575 2298,2574 2298,2569 2299,2568 2299,2547 2298,2546 2298,2522 2297,2521 2297,2509 2296,2508 2296,2502 2295,2501 2295,2494 2294,2493 2294,2484 2293,2483 2293,2479 2292,2478 2292,2452 2291,2451 2291,2427 2292,2426 2292,2413 2293,2412 2293,2390 2292,2389 2292,2381 2291,2380 2292,2379 2292,2364 2293,2363 2293,2328 2292,2327 2292,2322 2291,2321 2291,2320 2288,2317 2286,2317 2285,2316 2258,2316 2257,2317 2230,2317 2229,2318 2195,2318 2194,2317 2160,2317 2159,2318 2128,2318 2127,2317 2118,2317 2117,2318 2080,2318 2079,2317 2069,2317 2068,2318 2016,2318 2015,2317 2001,2317 2000,2316 1975,2316 1974,2315 1962,2315 1961,2314" fill="rgba(88,59,13,0.3)" stroke="rgb(88,59,13)" stroke-width="2" data-block-id="0019" data-name="b-0026" /><text x="2112" y="2672" text-anchor="middle" dominant-baseline="middle" class="block-label" fill="rgb(88,59,13)" stroke="white" stroke-width="3" paint-order="stroke">b-0026</text><polygon points="3644,2300 3643,2301 3631,2301 3630,2302 3620,2302 3619,2303 3612,2303 3611,2304 3592,2304 3591,2305 3577,2305 3576,2306 3567,2306 3566,2307 3548,2307 3547,2308 3532,2308 3531,2309 3510,2309 3509,2310 3499,2310 3498,2311 3485,2311 3484,2312 3475,2312 3474,2313 3465,2313 3464,2314 3456,2314 3455,2315 3449,2315 3448,2316 3437,2316 3436,2317 3424,2317 3423,2318 3408,2318 3407,2319 3395,2319 3394,2320 3382,2320 3381,2321 3372,2321 3371,2322 3364,2322 3363,2323 3357,2323 3356,2324 3352,2324 3351,2325 3348,2325 3347,2326 3346,2326 3344,2328 3343,2328 3340,2331 3340,2332 3339,2333 3339,2346 3340,2347 3340,2361 3341,2362 3341,2369 3342,2370 3342,2401 3343,2402 3343,2407 3342,2408 3342,2423 3343,2424 3343,2440 3344,2441 3344,2497 3343,2498 3343,2526 3344,2527 3344,2534 3345,2535 3345,2550 3344,2551 3344,2571 3345,2572 3345,2586 3344,2587 3344,2623 3345,2624 3345,2641 3344,2642 3344,2657 3345,2658 3345,2670 3346,2671 3346,2690 3347,2691 3347,2705 3348,2706 3348,2710 3349,2711 3349,2715 3350,2716 3350,2720 3349,2721 3349,2796 3348,2797 3348,2800 3349,2801 3349,2808 3350,2809 3350,2839 3349,2840 3349,2859 3350,2860 3350,2888 3349,2889 3349,2901 3350,2902 3350,2912 3351,2913 3351,2939 3352,2940 3352,2944 3357,2949 3358,2949 3359,2950 3361,2950 3362,2951 3402,2951 3403,2950 3454,2950 3455,2949 3458,2949 3459,2950 3475,2950 3476,2949 3508,2949 3509,2948 3523,2948 3524,2947 3550,2947 3551,2948 3566,2948 3567,2947 3586,2947 3587,2948 3687,2948 3688,2947 3695,2947 3696,2946 3700,2946 3701,2945 3705,2945 3706,2944 3707,2944 3708,2943 3708,2942 3709,2941 3709,2931 3710,2930 3710,2886 3709,2885 3709,2878 3710,2877 3710,2768 3709,2767 3709,2763 3710,2762 3710,2746 3711,2745 3711,2716 3710,2715 3710,2626 3709,2625 3709,2567 3708,2566 3708,2512 3707,2511 3707,2495 3706,2494 3706,2443 3705,2442 3705,2424 3704,2423 3704,2384 3705,2383 3705,2382 3704,2381 3704,2344 3703,2343 3703,2339 3702,2338 3702,2336 3701,2335 3701,2333 3700,2332 3700,2323 3699,2322 3699,2317 3698,2316 3698,2312 3697,2311 3697,2309 3696,2308 3696,2307 3694,2305 3693,2305 3692,2304 3690,2304 3689,2303 3687,2303 3686,2302 3681,2302 3680,2301 3666,2301 3665,2302 3657,2302 3656,2301 3652,2301 3651,2300" fill="rgba(241,249,8,0.3)" stroke="rgb(241,249,8)" stroke-width="2" data-block-id="0020" data-name="b-0027" /><text x="3510" y="2556" text-anchor="middle" dominant-baseline="middle" class="block-label" fill="rgb(241,249,8)" stroke="white" stroke-width="3" paint-order="stroke">b-0027</text><polygon points="2866,2314 2865,2315 2850,2315 2849,2316 2845,2316 2844,2317 2843,2317 2841,2319 2841,2320 2840,2321 2840,2323 2839,2324 2839,2339 2838,2340 2838,2359 2839,2360 2839,2377 2838,2378 2838,2407 2839,2408 2839,2444 2838,2445 2838,2459 2839,2460 2839,2506 2840,2507 2840,2516 2839,2517 2839,2522 2838,2523 2838,2544 2839,2545 2839,2605 2840,2606 2840,2608 2839,2609 2839,2616 2838,2617 2838,2630 2839,2631 2839,2707 2840,2708 2840,2719 2839,2720 2839,2745 2840,2746 2840,2856 2841,2857 2841,2919 2842,2920 2842,2921 2841,2922 2841,2947 2842,2948 2842,2953 2844,2955 2844,2956 2845,2956 2846,2957 2848,2957 2849,2958 2859,2958 2860,2959 2861,2959 2862,2958 2876,2958 2877,2959 2884,2959 2885,2958 2933,2958 2934,2959 2974,2959 2975,2958 2979,2958 2980,2959 2985,2959 2986,2960 3000,2960 3001,2959 3003,2959 3004,2960 3016,2960 3017,2959 3020,2959 3021,2958 3023,2958 3024,2957 3027,2957 3028,2956 3033,2956 3034,2955 3051,2955 3052,2956 3069,2956 3070,2955 3076,2955 3077,2954 3090,2954 3091,2953 3097,2953 3098,2952 3128,2952 3129,2951 3138,2951 3139,2952 3145,2952 3146,2953 3173,2953 3174,2952 3179,2952 3180,2951 3181,2951 3182,2950 3183,2950 3189,2944 3189,2943 3190,2942 3190,2941 3191,2940 3191,2938 3192,2937 3192,2933 3193,2932 3192,2931 3192,2925 3191,2924 3191,2884 3190,2883 3190,2852 3191,2851 3191,2830 3190,2829 3190,2823 3191,2822 3191,2816 3192,2815 3192,2808 3193,2807 3193,2801 3194,2800 3194,2797 3195,2796 3195,2793 3196,2792 3196,2786 3197,2785 3197,2764 3196,2763 3196,2761 3195,2760 3195,2759 3194,2758 3194,2757 3193,2756 3193,2755 3192,2754 3192,2753 3191,2752 3191,2744 3192,2743 3192,2738 3191,2737 3191,2730 3190,2729 3190,2714 3189,2713 3189,2685 3188,2684 3188,2677 3189,2676 3189,2656 3190,2655 3190,2644 3191,2643 3191,2641 3190,2640 3190,2632 3191,2631 3191,2624 3192,2623 3192,2610 3193,2609 3193,2602 3194,2601 3194,2576 3193,2575 3193,2557 3194,2556 3194,2518 3193,2517 3193,2514 3192,2513 3192,2511 3191,2510 3191,2509 3190,2508 3190,2507 3189,2506 3189,2504 3188,2503 3188,2485 3189,2484 3189,2480 3190,2479 3190,2476 3191,2475 3191,2471 3192,2470 3192,2466 3193,2465 3193,2399 3192,2398 3192,2387 3193,2386 3193,2379 3192,2378 3192,2362 3191,2361 3191,2354 3190,2353 3190,2347 3189,2346 3189,2341 3188,2340 3188,2337 3187,2336 3187,2332 3186,2331 3186,2323 3184,2321 3184,2320 3183,2320 3182,2319 3181,2319 3180,2318 3178,2318 3177,2317 3174,2317 3173,2316 3166,2316 3165,2315 3148,2315 3147,2316 3144,2316 3143,2315 3077,2315 3076,2316 3072,2316 3071,2315 3056,2315 3055,2316 3022,2316 3021,2315 3003,2315 3002,2316 2976,2316 2975,2315 2874,2315 2873,2314" fill="rgba(89,52,129,0.3)" stroke="rgb(89,52,129)" stroke-width="2" data-block-id="0021" data-name="b-0028" /><text x="3065" y="2657" text-anchor="middle" dominant-baseline="middle" class="block-label" fill="rgb(89,52,129)" stroke="white" stroke-width="3" paint-order="stroke">b-0028</text><polygon points="2610,2311 2609,2312 2589,2312 2588,2313 2565,2313 2564,2314 2560,2314 2559,2313 2549,2313 2548,2314 2520,2314 2519,2315 2513,2315 2512,2314 2498,2314 2497,2315 2449,2315 2448,2316 2403,2316 2402,2317 2399,2317 2398,2318 2396,2318 2395,2319 2394,2319 2393,2320 2393,2321 2392,2322 2392,2330 2391,2331 2391,2341 2390,2342 2390,2351 2391,2352 2391,2375 2392,2376 2392,2385 2391,2386 2391,2412 2392,2413 2392,2448 2391,2449 2391,2455 2392,2456 2392,2491 2391,2492 2391,2504 2392,2505 2392,2520 2391,2521 2391,2556 2392,2557 2392,2640 2393,2641 2393,2645 2392,2646 2392,2669 2393,2670 2393,2673 2394,2674 2394,2677 2395,2678 2395,2685 2396,2686 2396,2702 2395,2703 2395,2723 2396,2724 2396,2732 2395,2733 2395,2756 2394,2757 2394,2782 2393,2783 2393,2853 2394,2854 2394,2929 2395,2930 2395,2938 2396,2939 2396,2943 2397,2944 2397,2946 2398,2947 2398,2948 2401,2951 2402,2951 2404,2953 2407,2953 2408,2954 2428,2954 2429,2955 2430,2955 2431,2954 2437,2954 2438,2953 2458,2953 2459,2952 2461,2952 2462,2951 2464,2951 2465,2950 2469,2950 2470,2951 2471,2951 2472,2952 2474,2952 2475,2953 2476,2953 2477,2954 2483,2954 2484,2953 2505,2953 2506,2952 2508,2952 2509,2951 2512,2951 2513,2950 2530,2950 2531,2949 2535,2949 2536,2948 2539,2948 2540,2947 2558,2947 2559,2948 2565,2948 2566,2947 2574,2947 2575,2946 2578,2946 2579,2945 2581,2945 2582,2944 2583,2944 2584,2943 2588,2943 2589,2942 2596,2942 2597,2941 2602,2941 2603,2942 2614,2942 2615,2941 2626,2941 2627,2942 2630,2942 2631,2943 2635,2943 2636,2944 2638,2944 2639,2943 2645,2943 2646,2944 2649,2944 2650,2945 2653,2945 2654,2946 2657,2946 2658,2947 2663,2947 2664,2948 2670,2948 2671,2949 2692,2949 2693,2950 2696,2950 2697,2951 2701,2951 2702,2952 2706,2952 2707,2953 2712,2953 2713,2954 2718,2954 2719,2955 2725,2955 2726,2956 2731,2956 2732,2955 2733,2955 2735,2953 2736,2953 2740,2949 2740,2947 2741,2946 2741,2943 2742,2942 2742,2926 2743,2925 2743,2912 2742,2911 2742,2900 2743,2899 2743,2891 2742,2890 2742,2853 2741,2852 2741,2845 2740,2844 2740,2816 2741,2815 2741,2802 2742,2801 2742,2787 2741,2786 2741,2725 2740,2724 2740,2709 2739,2708 2739,2630 2740,2629 2740,2622 2741,2621 2741,2591 2740,2590 2740,2579 2741,2578 2741,2549 2740,2548 2740,2542 2739,2541 2739,2538 2738,2537 2738,2513 2737,2512 2737,2491 2736,2490 2736,2483 2737,2482 2737,2466 2736,2465 2736,2436 2735,2435 2735,2384 2734,2383 2734,2365 2735,2364 2735,2345 2736,2344 2736,2320 2735,2319 2735,2318 2731,2314 2730,2314 2729,2313 2680,2313 2679,2312 2628,2312 2627,2311" fill="rgba(187,198,171,0.3)" stroke="rgb(187,198,171)" stroke-width="2" data-block-id="0022" data-name="b-0030" /><text x="2567" y="2715" text-anchor="middle" dominant-baseline="middle" class="block-label" fill="rgb(187,198,171)" stroke="white" stroke-width="3" paint-order="stroke">b-0030</text><polygon points="3928,324 3927,325 3918,325 3917,326 3898,326 3897,327 3889,327 3888,328 3882,328 3881,329 3877,329 3876,330 3865,330 3864,331 3848,331 3847,332 3829,332 3828,333 3818,333 3817,334 3798,334 3797,335 3792,335 3791,336 3789,336 3788,337 3787,337 3786,338 3785,338 3781,342 3781,344 3780,345 3780,349 3779,350 3779,396 3780,397 3780,520 3781,521 3781,562 3782,563 3782,573 3781,574 3781,581 3782,582 3782,600 3781,601 3781,605 3782,606 3782,622 3781,623 3781,628 3782,629 3782,635 3783,636 3783,638 3782,639 3782,643 3781,644 3781,659 3782,660 3782,673 3783,674 3783,713 3784,714 3784,824 3783,825 3783,838 3782,839 3782,844 3783,845 3783,995 3784,996 3784,999 3783,1000 3783,1016 3784,1017 3784,1045 3785,1046 3785,1161 3784,1162 3784,1166 3785,1167 3785,1183 3784,1184 3784,1187 3785,1188 3785,1192 3786,1193 3786,1194 3787,1195 3787,1196 3788,1197 3788,1198 3789,1199 3790,1199 3791,1200 3803,1200 3804,1201 3816,1201 3817,1200 3824,1200 3825,1199 3834,1199 3835,1198 3850,1198 3851,1197 3861,1197 3862,1196 3875,1196 3876,1195 3883,1195 3884,1194 3900,1194 3901,1193 3914,1193 3915,1192 3926,1192 3927,1191 3935,1191 3936,1190 3954,1190 3955,1189 3965,1189 3966,1188 3975,1188 3976,1187 3996,1187 3997,1186 3999,1186 4000,1185 4003,1185 4004,1184 4016,1184 4017,1183 4023,1183 4024,1182 4030,1182 4031,1181 4050,1181 4051,1180 4061,1180 4062,1179 4086,1179 4087,1178 4105,1178 4106,1177 4116,1177 4117,1176 4122,1176 4123,1175 4126,1175 4127,1174 4128,1174 4129,1173 4130,1173 4135,1168 4135,1167 4137,1165 4137,1151 4136,1150 4136,1149 4135,1148 4135,1147 4134,1146 4134,1145 4133,1144 4133,1142 4132,1141 4132,1138 4131,1137 4131,1134 4130,1133 4130,1129 4129,1128 4129,1124 4128,1123 4128,1120 4127,1119 4127,1116 4126,1115 4126,1113 4125,1112 4125,1110 4124,1109 4124,1107 4123,1106 4123,1104 4122,1103 4122,1101 4121,1100 4121,1099 4120,1098 4120,1096 4119,1095 4119,1093 4118,1092 4118,1086 4117,1085 4117,1080 4116,1079 4116,1076 4115,1075 4115,1073 4114,1072 4114,1071 4113,1070 4113,1068 4112,1067 4112,1065 4111,1064 4111,1063 4110,1062 4110,1061 4109,1060 4109,1059 4108,1058 4108,1057 4107,1056 4107,1055 4105,1053 4105,1052 4104,1051 4104,1050 4103,1049 4103,1048 4102,1047 4102,1046 4101,1045 4101,1044 4100,1043 4100,1041 4099,1040 4099,1038 4098,1037 4098,1033 4097,1032 4097,1022 4096,1021 4096,1017 4095,1016 4095,1013 4094,1012 4094,1010 4093,1009 4093,1006 4092,1005 4092,1001 4091,1000 4091,997 4090,996 4090,993 4089,992 4089,988 4088,987 4088,984 4086,982 4086,981 4085,980 4085,978 4084,977 4084,976 4083,975 4083,972 4082,971 4082,968 4081,967 4081,965 4080,964 4080,960 4079,959 4079,955 4078,954 4078,951 4077,950 4077,947 4076,946 4076,944 4075,943 4075,941 4074,940 4074,938 4073,937 4073,936 4072,935 4072,933 4071,932 4071,930 4070,929 4070,927 4069,926 4069,923 4068,922 4068,919 4067,918 4067,915 4066,914 4066,911 4065,910 4065,908 4064,907 4064,905 4063,904 4063,902 4062,901 4062,899 4061,898 4061,895 4060,894 4060,891 4059,890 4059,887 4058,886 4058,883 4057,882 4057,880 4056,879 4056,876 4055,875 4055,873 4054,872 4054,870 4053,869 4053,867 4052,866 4052,864 4051,863 4051,862 4050,861 4050,859 4049,858 4049,855 4048,854 4048,850 4047,849 4047,845 4046,844 4046,840 4045,839 4045,837 4044,836 4044,834 4043,833 4043,832 4042,831 4042,829 4041,828 4041,827 4040,826 4040,825 4039,824 4039,822 4038,821 4038,819 4037,818 4037,815 4036,814 4036,811 4035,810 4035,805 4034,804 4034,800 4033,799 4033,795 4032,794 4032,792 4031,791 4031,789 4030,788 4030,787 4029,786 4029,785 4028,784 4028,782 4027,781 4027,778 4026,777 4026,773 4025,772 4025,768 4024,767 4024,765 4023,764 4023,762 4022,761 4022,757 4021,756 4021,752 4020,751 4020,747 4019,746 4019,743 4018,742 4018,741 4017,740 4017,739 4016,738 4016,736 4015,735 4015,734 4014,733 4014,731 4013,730 4013,727 4012,726 4012,724 4011,723 4011,720 4010,719 4010,716 4009,715 4009,712 4008,711 4008,707 4007,706 4007,703 4006,702 4006,698 4005,697 4005,695 4004,694 4004,693 4003,692 4003,691 4002,690 4002,689 4001,688 4001,687 4000,686 4000,676 3999,675 3999,671 3998,670 3998,668 3997,667 3997,666 3996,665 3996,663 3995,662 3995,660 3994,659 3994,656 3993,655 3993,652 3992,651 3992,650 3991,649 3991,648 3990,647 3990,646 3989,645 3989,643 3988,642 3988,639 3987,638 3987,635 3986,634 3986,632 3985,631 3985,629 3984,628 3984,624 3983,623 3983,619 3982,618 3982,616 3981,615 3981,613 3980,612 3980,610 3979,609 3979,606 3978,605 3978,602 3977,601 3977,600 3976,599 3976,597 3975,596 3975,595 3974,594 3974,592 3973,591 3973,589 3972,588 3972,585 3971,584 3971,582 3970,581 3970,579 3969,578 3969,576 3968,575 3968,573 3967,572 3967,570 3966,569 3966,567 3965,566 3965,564 3964,563 3964,560 3963,559 3963,557 3962,556 3962,551 3961,550 3961,545 3960,544 3960,540 3959,539 3959,537 3958,536 3958,534 3957,533 3957,531 3956,530 3956,527 3955,526 3955,523 3954,522 3954,519 3953,518 3953,515 3952,514 3952,511 3951,510 3951,506 3950,505 3950,500 3949,499 3949,484 3948,483 3948,452 3947,451 3947,441 3946,440 3946,430 3945,429 3945,420 3944,419 3944,408 3945,407 3945,402 3946,401 3946,392 3947,391 3947,386 3946,385 3946,380 3945,379 3945,343 3944,342 3944,334 3943,333 3943,330 3942,329 3942,328 3940,326 3939,326 3938,325 3936,325 3935,324" fill="rgba(252,7,174,0.3)" stroke="rgb(252,7,174)" stroke-width="2" data-block-id="0023" data-name="b-0031" /><text x="3989" y="815" text-anchor="middle" dominant-baseline="middle" class="block-label" fill="rgb(252,7,174)" stroke="white" stroke-width="3" paint-order="stroke">b-0031</text><polygon points="1315,2346 1314,2347 1311,2347 1310,2348 1307,2348 1306,2349 1304,2349 1303,2350 1301,2350 1300,2351 1298,2351 1297,2352 1293,2352 1292,2353 1289,2353 1288,2354 1286,2354 1285,2355 1281,2355 1280,2356 1277,2356 1276,2357 1273,2357 1272,2358 1271,2358 1270,2359 1269,2359 1267,2361 1266,2361 1265,2362 1264,2362 1263,2363 1262,2363 1261,2364 1260,2364 1259,2365 1258,2365 1257,2366 1255,2366 1254,2367 1252,2367 1251,2368 1248,2368 1247,2369 1243,2369 1242,2370 1238,2370 1237,2371 1235,2371 1234,2372 1232,2372 1231,2373 1229,2373 1228,2374 1227,2374 1226,2375 1224,2375 1223,2376 1221,2376 1220,2377 1219,2377 1218,2378 1217,2378 1216,2379 1215,2379 1214,2380 1213,2380 1212,2381 1211,2381 1210,2382 1208,2382 1207,2383 1206,2383 1205,2384 1203,2384 1202,2385 1200,2385 1199,2386 1197,2386 1196,2387 1194,2387 1193,2388 1192,2388 1191,2389 1189,2389 1188,2390 1187,2390 1186,2391 1184,2391 1183,2392 1181,2392 1180,2393 1177,2393 1176,2394 1174,2394 1173,2395 1171,2395 1170,2396 1167,2396 1166,2397 1165,2397 1164,2398 1162,2398 1161,2399 1160,2399 1159,2400 1158,2400 1157,2401 1156,2401 1155,2402 1154,2402 1153,2403 1150,2403 1149,2404 1147,2404 1146,2405 1144,2405 1143,2406 1141,2406 1140,2407 1139,2407 1138,2408 1136,2408 1135,2409 1133,2409 1132,2410 1130,2410 1129,2411 1127,2411 1126,2412 1124,2412 1123,2413 1121,2413 1120,2414 1119,2414 1118,2415 1117,2415 1116,2416 1114,2416 1113,2417 1111,2417 1110,2418 1108,2418 1107,2419 1104,2419 1103,2420 1102,2420 1101,2421 1099,2421 1098,2422 1096,2422 1095,2423 1094,2423 1092,2425 1091,2425 1090,2426 1089,2426 1087,2428 1085,2428 1084,2429 1083,2429 1082,2430 1080,2430 1079,2431 1078,2431 1077,2432 1075,2432 1074,2433 1073,2433 1072,2434 1069,2434 1068,2435 1066,2435 1065,2436 1064,2436 1063,2437 1061,2437 1060,2438 1058,2438 1057,2439 1055,2439 1054,2440 1053,2440 1052,2441 1051,2441 1050,2442 1049,2442 1048,2443 1047,2443 1046,2444 1044,2444 1043,2445 1041,2445 1040,2446 1038,2446 1037,2447 1035,2447 1034,2448 1032,2448 1031,2449 1029,2449 1028,2450 1026,2450 1025,2451 1024,2451 1023,2452 1022,2452 1021,2453 1020,2453 1016,2457 1016,2458 1015,2459 1015,2461 1014,2462 1014,2473 1015,2474 1015,2485 1014,2486 1014,2491 1015,2492 1015,2525 1016,2526 1015,2527 1015,2539 1016,2540 1016,2553 1015,2554 1015,2634 1016,2635 1016,2661 1015,2662 1015,2668 1014,2669 1014,2691 1015,2692 1015,2711 1016,2712 1016,2724 1015,2725 1015,2729 1016,2730 1016,2838 1017,2839 1017,2869 1016,2870 1016,2899 1017,2900 1017,2948 1018,2949 1018,2953 1021,2956 1022,2956 1023,2957 1029,2957 1030,2958 1052,2958 1053,2957 1072,2957 1073,2958 1110,2958 1111,2957 1130,2957 1131,2958 1135,2958 1136,2959 1143,2959 1144,2958 1149,2958 1150,2957 1263,2957 1264,2958 1273,2958 1274,2959 1285,2959 1286,2958 1314,2958 1315,2957 1319,2957 1320,2956 1321,2956 1323,2954 1323,2953 1324,2952 1324,2949 1325,2948 1325,2940 1326,2939 1326,2910 1325,2909 1325,2887 1326,2886 1326,2878 1325,2877 1325,2807 1324,2806 1324,2797 1325,2796 1325,2743 1326,2742 1326,2732 1325,2731 1325,2697 1326,2696 1326,2686 1325,2685 1325,2648 1326,2647 1326,2637 1325,2636 1325,2601 1326,2600 1326,2577 1325,2576 1325,2563 1326,2562 1326,2411 1327,2410 1327,2373 1326,2372 1326,2354 1325,2353 1325,2351 1324,2350 1324,2349 1323,2348 1323,2347 1322,2346" fill="rgba(131,1,253,0.3)" stroke="rgb(131,1,253)" stroke-width="2" data-block-id="0024" data-name="b-0035" /><text x="1167" y="2520" text-anchor="middle" dominant-baseline="middle" class="block-label" fill="rgb(131,1,253)" stroke="white" stroke-width="3" paint-order="stroke">b-0035</text><polygon points="913,2491 911,2493 910,2493 908,2495 907,2495 906,2496 904,2496 903,2497 901,2497 900,2498 897,2498 896,2499 892,2499 891,2500 889,2500 888,2501 887,2501 886,2502 885,2502 884,2503 883,2503 882,2504 881,2504 880,2505 879,2505 878,2506 877,2506 876,2507 875,2507 874,2508 873,2508 872,2509 869,2509 868,2510 865,2510 864,2511 861,2511 860,2512 858,2512 857,2513 854,2513 853,2514 850,2514 849,2515 848,2515 847,2516 845,2516 844,2517 843,2517 842,2518 841,2518 840,2519 838,2519 837,2520 835,2520 834,2521 831,2521 830,2522 827,2522 826,2523 823,2523 822,2524 821,2524 820,2525 819,2525 818,2526 816,2526 815,2527 814,2527 813,2528 811,2528 810,2529 807,2529 806,2530 805,2530 804,2531 803,2531 802,2532 801,2532 800,2533 798,2533 797,2534 795,2534 794,2535 792,2535 791,2536 790,2536 789,2537 787,2537 786,2538 785,2538 784,2539 782,2539 781,2540 780,2540 779,2541 776,2541 775,2542 773,2542 772,2543 770,2543 769,2544 767,2544 766,2545 764,2545 763,2546 761,2546 760,2547 758,2547 757,2548 756,2548 755,2549 753,2549 752,2550 751,2550 750,2551 749,2551 748,2552 747,2552 746,2553 745,2553 744,2554 741,2554 740,2555 737,2555 736,2556 733,2556 732,2557 730,2557 729,2558 725,2558 724,2559 721,2559 719,2561 718,2561 717,2562 715,2562 713,2564 712,2564 711,2565 709,2565 708,2566 706,2566 705,2567 700,2567 699,2568 695,2568 694,2569 691,2569 690,2570 686,2570 685,2571 682,2571 681,2572 679,2572 678,2573 675,2573 674,2574 670,2574 669,2575 665,2575 664,2576 661,2576 660,2577 659,2577 658,2578 657,2578 656,2579 654,2579 653,2580 652,2580 651,2581 649,2581 648,2582 645,2582 644,2583 642,2583 641,2584 640,2584 639,2585 638,2585 637,2586 635,2586 634,2587 633,2587 632,2588 631,2588 630,2589 628,2589 627,2590 624,2590 623,2591 620,2591 619,2592 616,2592 615,2593 614,2593 613,2594 611,2594 610,2595 609,2595 607,2597 606,2597 605,2598 603,2598 602,2599 600,2599 599,2600 596,2600 595,2601 592,2601 591,2602 590,2602 589,2603 588,2603 587,2604 586,2604 585,2605 584,2605 583,2606 582,2606 581,2607 580,2607 577,2610 577,2611 575,2613 575,2614 573,2616 573,2617 572,2618 572,2619 571,2620 571,2622 572,2623 572,2627 573,2628 573,2734 572,2735 572,2746 573,2747 573,2765 572,2766 572,2796 573,2797 573,2802 572,2803 572,2831 573,2832 573,2859 572,2860 572,2871 573,2872 573,2945 574,2946 574,2953 575,2954 575,2956 577,2958 578,2958 579,2959 584,2959 585,2960 611,2960 612,2959 667,2959 668,2958 711,2958 712,2959 718,2959 719,2960 725,2960 726,2959 731,2959 732,2958 739,2958 740,2957 750,2957 751,2958 773,2958 774,2957 797,2957 798,2958 841,2958 842,2959 850,2959 851,2960 859,2960 860,2959 870,2959 871,2958 895,2958 896,2959 915,2959 916,2958 921,2958 922,2957 925,2957 926,2956 927,2956 927,2955 929,2953 929,2815 928,2814 928,2805 929,2804 929,2706 930,2705 929,2704 929,2696 928,2695 928,2684 929,2683 929,2650 928,2649 928,2637 929,2636 929,2559 928,2558 928,2553 927,2552 927,2550 926,2549 926,2524 925,2523 925,2505 926,2504 926,2501 925,2500 925,2496 924,2495 924,2494 923,2493 922,2493 921,2492 919,2492 918,2491" fill="rgba(190,145,217,0.3)" stroke="rgb(190,145,217)" stroke-width="2" data-block-id="0025" data-name="b-0038" /><text x="752" y="2628" text-anchor="middle" dominant-baseline="middle" class="block-label" fill="rgb(190,145,217)" stroke="white" stroke-width="3" paint-order="stroke">b-0038</text><polygon points="4468,2234 4467,2235 4459,2235 4458,2236 4440,2236 4439,2237 4420,2237 4419,2238 4398,2238 4397,2239 4375,2239 4374,2240 4367,2240 4366,2241 4351,2241 4350,2242 4345,2242 4344,2243 4336,2243 4335,2244 4326,2244 4325,2245 4319,2245 4318,2246 4313,2246 4312,2247 4309,2247 4308,2248 4306,2248 4306,2249 4305,2250 4305,2251 4304,2252 4304,2256 4303,2257 4303,2266 4302,2267 4302,2286 4303,2287 4302,2288 4302,2306 4303,2307 4303,2319 4302,2320 4303,2321 4303,2354 4304,2355 4304,2364 4303,2365 4303,2370 4304,2371 4304,2416 4305,2417 4305,2491 4306,2492 4306,2537 4307,2538 4307,2608 4308,2609 4308,2657 4309,2658 4309,2704 4310,2705 4310,2721 4311,2722 4311,2730 4312,2731 4312,2739 4313,2740 4313,2754 4312,2755 4312,2765 4313,2766 4313,2791 4314,2792 4314,2848 4315,2849 4315,2892 4316,2893 4316,2932 4317,2933 4317,2935 4318,2936 4318,2937 4319,2938 4320,2938 4321,2939 4323,2939 4324,2940 4378,2940 4379,2941 4466,2941 4467,2940 4490,2940 4491,2939 4495,2939 4496,2938 4497,2938 4499,2936 4499,2935 4500,2934 4500,2930 4501,2929 4501,2887 4500,2886 4500,2864 4499,2863 4499,2854 4500,2853 4500,2843 4499,2842 4499,2835 4498,2834 4498,2830 4499,2829 4499,2823 4498,2822 4498,2764 4497,2763 4497,2632 4496,2631 4496,2552 4495,2551 4495,2505 4494,2504 4494,2433 4493,2432 4493,2414 4492,2413 4492,2382 4491,2381 4491,2369 4490,2368 4490,2313 4489,2312 4489,2268 4488,2267 4488,2248 4487,2247 4487,2240 4486,2239 4486,2238 4485,2237 4485,2236 4484,2236 4483,2235 4482,2235 4481,2234" fill="rgba(43,161,201,0.3)" stroke="rgb(43,161,201)" stroke-width="2" data-block-id="0026" data-name="b-0039" /><text x="4392" y="2535" text-anchor="middle" dominant-baseline="middle" class="block-label" fill="rgb(43,161,201)" stroke="white" stroke-width="3" paint-order="stroke">b-0039</text><polygon points="861,2265 860,2266 791,2266 790,2267 721,2267 720,2268 713,2268 712,2269 694,2269 693,2270 662,2270 661,2269 627,2269 626,2270 584,2270 583,2271 577,2271 576,2272 575,2272 574,2273 574,2274 573,2275 573,2284 572,2285 572,2289 573,2290 573,2350 572,2351 572,2367 573,2368 573,2426 572,2427 572,2444 573,2445 573,2460 574,2461 574,2476 575,2477 575,2478 576,2478 577,2479 579,2479 580,2480 581,2480 582,2479 585,2479 586,2478 588,2478 589,2477 591,2477 592,2476 593,2476 594,2475 595,2475 596,2474 598,2474 599,2473 601,2473 602,2472 605,2472 606,2471 608,2471 609,2470 611,2470 612,2469 613,2469 614,2468 616,2468 617,2467 618,2467 619,2466 620,2466 621,2465 622,2465 623,2464 624,2464 625,2463 626,2463 627,2462 629,2462 630,2461 632,2461 633,2460 635,2460 636,2459 638,2459 639,2458 641,2458 642,2457 644,2457 645,2456 647,2456 648,2455 650,2455 651,2454 654,2454 655,2453 657,2453 658,2452 660,2452 661,2451 662,2451 663,2450 665,2450 666,2449 668,2449 669,2448 670,2448 671,2447 673,2447 674,2446 676,2446 677,2445 678,2445 679,2444 681,2444 682,2443 685,2443 686,2442 688,2442 689,2441 690,2441 691,2440 693,2440 694,2439 695,2439 696,2438 697,2438 698,2437 700,2437 701,2436 702,2436 703,2435 705,2435 706,2434 708,2434 709,2433 712,2433 713,2432 715,2432 716,2431 719,2431 720,2430 722,2430 723,2429 725,2429 726,2428 728,2428 729,2427 730,2427 731,2426 733,2426 734,2425 736,2425 737,2424 738,2424 739,2423 741,2423 742,2422 743,2422 744,2421 747,2421 748,2420 750,2420 751,2419 753,2419 754,2418 756,2418 757,2417 758,2417 759,2416 760,2416 761,2415 763,2415 764,2414 765,2414 766,2413 768,2413 769,2412 770,2412 771,2411 773,2411 774,2410 775,2410 776,2409 777,2409 778,2408 780,2408 781,2407 782,2407 783,2406 785,2406 786,2405 788,2405 789,2404 793,2404 794,2403 797,2403 798,2402 800,2402 801,2401 802,2401 803,2400 805,2400 806,2399 807,2399 808,2398 809,2398 810,2397 812,2397 813,2396 815,2396 816,2395 819,2395 820,2394 821,2394 822,2393 824,2393 825,2392 827,2392 828,2391 829,2391 830,2390 831,2390 833,2388 835,2388 836,2387 838,2387 839,2386 841,2386 842,2385 845,2385 846,2384 849,2384 850,2383 853,2383 854,2382 856,2382 857,2381 858,2381 859,2380 861,2380 862,2379 864,2379 865,2378 866,2378 867,2377 868,2377 869,2376 871,2376 872,2375 874,2375 875,2374 877,2374 878,2373 881,2373 882,2372 884,2372 885,2371 886,2371 887,2370 888,2370 890,2368 893,2368 894,2367 901,2367 902,2366 903,2366 904,2365 906,2365 907,2364 908,2364 909,2363 910,2363 911,2362 912,2362 913,2361 915,2361 916,2360 918,2360 919,2359 921,2359 922,2358 924,2358 927,2355 927,2353 928,2352 928,2303 929,2302 929,2285 930,2284 930,2275 929,2274 929,2272 927,2270 925,2270 924,2269 890,2269 889,2268 887,2268 886,2267 885,2267 884,2266 881,2266 880,2265" fill="rgba(62,138,242,0.3)" stroke="rgb(62,138,242)" stroke-width="2" data-block-id="0027" data-name="b-0053" /><text x="742" y="2398" text-anchor="middle" dominant-baseline="middle" class="block-label" fill="rgb(62,138,242)" stroke="white" stroke-width="3" paint-order="stroke">b-0053</text><polygon points="4339,1856 4338,1857 4304,1857 4303,1858 4300,1858 4297,1861 4297,1862 4296,1863 4296,1883 4295,1884 4295,1908 4296,1909 4296,1936 4297,1937 4297,1986 4298,1987 4298,2020 4299,2021 4299,2090 4300,2091 4300,2118 4301,2119 4301,2124 4302,2125 4302,2126 4304,2128 4305,2128 4306,2129 4326,2129 4327,2128 4337,2128 4338,2127 4348,2127 4349,2126 4362,2126 4363,2125 4383,2125 4384,2124 4400,2124 4401,2123 4408,2123 4409,2122 4417,2122 4418,2121 4444,2121 4445,2120 4461,2120 4462,2119 4467,2119 4468,2118 4470,2118 4470,2117 4471,2116 4471,2112 4472,2111 4472,2107 4471,2106 4471,2103 4470,2102 4470,2100 4469,2099 4469,2096 4468,2095 4468,2092 4467,2091 4467,2088 4466,2087 4466,2084 4465,2083 4465,2081 4464,2080 4464,2078 4463,2077 4463,2075 4462,2074 4462,2071 4461,2070 4461,2067 4460,2066 4460,2064 4459,2063 4459,2061 4458,2060 4458,2057 4457,2056 4457,2053 4456,2052 4456,2049 4455,2048 4455,2045 4454,2044 4454,2041 4453,2040 4453,2038 4452,2037 4452,2034 4451,2033 4451,2031 4450,2030 4450,2027 4449,2026 4449,2024 4448,2023 4448,2020 4447,2019 4447,2016 4446,2015 4446,2012 4445,2011 4445,2009 4444,2008 4444,2006 4443,2005 4443,2002 4442,2001 4442,1998 4441,1997 4441,1994 4440,1993 4440,1991 4439,1990 4439,1987 4438,1986 4438,1983 4437,1982 4437,1980 4436,1979 4436,1977 4435,1976 4435,1973 4434,1972 4434,1970 4433,1969 4433,1967 4432,1966 4432,1964 4431,1963 4431,1960 4430,1959 4430,1957 4429,1956 4429,1954 4428,1953 4428,1951 4427,1950 4427,1948 4426,1947 4426,1945 4425,1944 4425,1942 4424,1941 4424,1938 4423,1937 4423,1934 4422,1933 4422,1931 4421,1930 4421,1927 4420,1926 4420,1924 4419,1923 4419,1921 4418,1920 4418,1918 4417,1917 4417,1913 4416,1912 4416,1908 4415,1907 4415,1904 4414,1903 4414,1900 4413,1899 4413,1896 4412,1895 4412,1891 4411,1890 4411,1887 4410,1886 4410,1883 4409,1882 4409,1880 4408,1879 4408,1877 4407,1876 4407,1874 4406,1873 4406,1872 4405,1871 4405,1869 4404,1868 4404,1865 4403,1864 4403,1862 4399,1858 4396,1858 4395,1857 4391,1857 4390,1856 4360,1856 4359,1857 4345,1857 4344,1856" fill="rgba(80,135,162,0.3)" stroke="rgb(80,135,162)" stroke-width="2" data-block-id="0028" data-name="b-0054" /><text x="4412" y="1996" text-anchor="middle" dominant-baseline="middle" class="block-label" fill="rgb(80,135,162)" stroke="white" stroke-width="3" paint-order="stroke">b-0054</text></g>
</svg>