<?xml version='1.0' encoding='utf-8'?>
<svg xmlns="http://www.w3.org/2000/svg" xmlns:atlas="http://example.com/atlas" width="4980" height="3333" viewBox="0 0 4980 3333">
  
  <metadata>
    <atlas:source>
      <atlas:jp2-path>../media/v1/p15.jp2</atlas:jp2-path>
      <atlas:volume>vol1</atlas:volume>
      <atlas:plate-id>p15</atlas:plate-id>
      <atlas:image-width>4980</atlas:image-width>
      <atlas:image-height>3333</atlas:image-height>
    <atlas:angle>11.868627839436297</atlas:angle><atlas:scale>1.4114879629387536</atlas:scale><atlas:pos-x>3631.2847469597746</atlas:pos-x><atlas:pos-y>1827.2669720082301</atlas:pos-y></atlas:source>
  </metadata>

  
  <image id="background" href="file://../media/v1/p15.jp2" width="4980" height="3333" opacity="0.5" />

  <style>
    .block-label { font-family: sans-serif; font-size: 14px; font-weight: bold; }
  </style>

  
  <g id="blocks">
    <polygon points="588,167 587,168 583,168 582,169 572,169 571,170 566,170 565,169 536,169 535,170 510,170 509,171 508,171 507,170 501,170 500,169 494,169 489,174 489,176 488,177 488,182 487,183 487,222 486,223 486,295 487,296 487,311 486,312 486,364 487,365 487,388 486,389 487,390 487,406 486,407 486,443 487,444 487,505 486,506 486,527 487,528 487,607 486,608 486,631 487,632 487,816 488,817 488,883 489,884 489,907 490,908 490,910 492,912 493,912 494,913 498,913 499,914 514,914 515,915 518,915 519,914 529,914 530,913 536,913 537,914 571,914 572,913 576,913 577,912 585,912 586,913 608,913 609,914 632,914 633,915 654,915 655,914 765,914 766,913 783,913 784,914 820,914 821,913 833,913 834,914 850,914 851,913 855,913 856,912 857,912 860,909 860,908 861,907 861,905 862,904 862,881 861,880 861,861 862,860 862,826 861,825 861,817 862,816 862,778 861,777 861,768 862,767 862,765 863,764 863,762 864,761 864,759 865,758 865,756 866,755 866,752 867,751 867,745 866,744 866,741 865,740 865,720 866,719 866,713 867,712 867,711 866,710 866,705 865,704 865,701 864,700 864,695 863,694 863,650 864,649 864,644 865,643 865,626 864,625 864,607 863,606 863,552 864,551 864,545 865,544 865,538 864,537 864,518 863,517 863,467 864,466 864,428 863,427 863,360 864,359 864,355 865,354 865,344 864,343 864,338 863,337 863,328 862,327 863,326 863,267 862,266 862,260 861,259 861,255 862,254 862,249 863,248 863,242 862,241 862,232 861,231 861,228 862,227 862,219 861,218 861,195 862,194 862,185 861,184 861,178 860,177 860,175 856,171 855,171 854,170 850,170 849,169 829,169 828,170 821,170 820,171 783,171 782,170 729,170 728,171 720,171 719,170 715,170 714,169 713,169 712,168 702,168 701,169 695,169 694,168 685,168 684,169 680,169 679,170 644,170 643,169 637,169 636,170 623,170 622,169 615,169 614,168 611,168 610,169 602,169 601,168 595,168 594,167" fill="rgba(14,106,71,0.3)" stroke="rgb(14,106,71)" stroke-width="2" data-block-id="0001" data-name="b-0002" /><text x="717" y="503" text-anchor="middle" dominant-baseline="middle" class="block-label" fill="rgb(14,106,71)" stroke="white" stroke-width="3" paint-order="stroke">b-0002</text><polygon points="971,1007 966,1012 966,1014 965,1015 965,1018 964,1019 964,1042 963,1043 963,1059 962,1060 962,1072 963,1073 963,1078 964,1079 964,1088 963,1089 963,1095 964,1096 964,1111 963,1112 963,1115 962,1116 962,1142 963,1143 963,1151 964,1152 964,1154 963,1155 963,1161 962,1162 962,1194 963,1195 963,1207 962,1208 962,1218 963,1219 963,1295 962,1296 962,1303 961,1304 961,1310 962,1311 962,1314 963,1315 963,1321 964,1322 964,1360 965,1361 965,1370 964,1371 964,1379 963,1380 963,1388 962,1389 962,1400 961,1401 961,1403 962,1404 962,1409 963,1410 963,1415 964,1416 964,1459 965,1460 965,1470 964,1471 964,1484 963,1485 963,1501 964,1502 964,1505 965,1506 965,1509 966,1510 966,1516 965,1517 965,1579 964,1580 964,1597 965,1598 965,1608 966,1609 966,1641 965,1642 965,1672 966,1673 966,1689 965,1690 965,1735 964,1736 964,1737 965,1738 965,1742 966,1743 966,1744 969,1747 970,1747 971,1748 976,1748 977,1749 1027,1749 1028,1748 1073,1748 1074,1749 1089,1749 1090,1748 1095,1748 1096,1749 1103,1749 1104,1750 1110,1750 1111,1749 1169,1749 1170,1748 1334,1748 1335,1747 1337,1747 1340,1744 1340,1743 1341,1742 1341,1679 1342,1678 1342,1642 1341,1641 1341,1622 1342,1621 1342,1620 1341,1619 1341,1427 1340,1426 1340,1391 1341,1390 1341,1353 1340,1352 1340,1334 1341,1333 1341,1267 1340,1266 1340,1251 1341,1250 1341,1245 1340,1244 1340,1233 1341,1232 1341,1215 1342,1214 1342,1213 1341,1212 1341,1203 1340,1202 1340,1195 1341,1194 1341,1089 1340,1088 1340,1022 1339,1021 1339,1017 1338,1016 1338,1015 1334,1011 1333,1011 1332,1010 1325,1010 1324,1009 1298,1009 1297,1010 1241,1010 1240,1009 1201,1009 1200,1010 1199,1010 1198,1009 1142,1009 1141,1008 1111,1008 1110,1009 1095,1009 1094,1008 1035,1008 1034,1009 1017,1009 1016,1008 986,1008 985,1007" fill="rgba(188,20,102,0.3)" stroke="rgb(188,20,102)" stroke-width="2" data-block-id="0002" data-name="b-0003" /><text x="1094" y="1346" text-anchor="middle" dominant-baseline="middle" class="block-label" fill="rgb(188,20,102)" stroke="white" stroke-width="3" paint-order="stroke">b-0003</text><polygon points="979,170 978,171 974,171 970,175 970,176 969,177 969,180 968,181 968,183 967,184 967,186 966,187 966,188 965,189 965,193 964,194 964,201 965,202 965,220 964,221 964,261 963,262 963,273 964,274 964,311 963,312 963,319 962,320 962,325 961,326 961,331 962,332 962,338 963,339 963,346 964,347 964,404 963,405 963,410 962,411 962,414 961,415 961,418 960,419 960,428 961,429 961,432 962,433 962,437 963,438 963,442 964,443 964,464 965,465 965,488 964,489 964,495 963,496 963,501 962,502 962,507 961,508 961,510 962,511 962,523 963,524 963,533 964,534 964,539 965,540 965,582 964,583 964,586 963,587 963,589 962,590 962,593 961,594 961,604 960,605 961,606 961,615 960,616 960,652 961,653 961,655 962,656 962,659 963,660 963,665 964,666 964,675 965,676 965,683 966,684 966,737 965,738 965,742 964,743 964,750 965,751 965,755 966,756 966,767 965,768 965,771 966,772 966,790 965,791 965,800 966,801 966,811 965,812 965,823 966,824 966,837 965,838 965,867 966,868 966,886 965,887 965,895 966,896 966,904 967,905 967,907 968,908 968,909 969,910 970,910 971,911 972,911 973,912 977,912 978,913 984,913 985,914 989,914 990,913 1014,913 1015,914 1042,914 1043,913 1047,913 1048,914 1060,914 1061,915 1116,915 1117,916 1126,916 1127,915 1146,915 1147,916 1164,916 1165,917 1179,917 1180,916 1209,916 1210,917 1239,917 1240,916 1246,916 1247,915 1333,915 1334,914 1335,914 1336,913 1337,913 1338,912 1338,911 1339,910 1339,909 1340,908 1340,906 1341,905 1341,882 1340,881 1340,876 1341,875 1341,857 1342,856 1342,853 1341,852 1341,786 1340,785 1340,759 1341,758 1341,733 1340,732 1340,722 1339,721 1339,677 1340,676 1340,658 1339,657 1339,588 1340,587 1340,552 1339,551 1339,533 1340,532 1340,529 1339,528 1339,491 1340,490 1340,463 1341,462 1341,460 1340,459 1340,454 1339,453 1339,393 1340,392 1340,369 1339,368 1339,298 1340,297 1340,276 1339,275 1339,223 1340,222 1339,221 1339,206 1340,205 1340,193 1339,192 1339,188 1338,187 1338,184 1336,182 1336,181 1334,179 1333,179 1332,178 1299,178 1298,177 1276,177 1275,176 1269,176 1268,177 1256,177 1255,176 1252,176 1251,175 1249,175 1248,174 1244,174 1243,173 1222,173 1221,174 1205,174 1204,173 1196,173 1195,172 1191,172 1190,171 1162,171 1161,172 1112,172 1111,171 1093,171 1092,170 1067,170 1066,171 1041,171 1040,172 1029,172 1028,171 1003,171 1002,170" fill="rgba(121,210,214,0.3)" stroke="rgb(121,210,214)" stroke-width="2" data-block-id="0003" data-name="b-0004" /><text x="1106" y="540" text-anchor="middle" dominant-baseline="middle" class="block-label" fill="rgb(121,210,214)" stroke="white" stroke-width="3" paint-order="stroke">b-0004</text><polygon points="2071,174 2070,175 2067,175 2066,176 2064,176 2063,177 2055,177 2054,176 2047,176 2046,177 2042,177 2041,178 2001,178 2000,177 1988,177 1987,176 1980,176 1979,175 1972,175 1971,176 1961,176 1960,177 1932,177 1931,178 1929,178 1928,177 1913,177 1912,178 1909,178 1908,179 1907,179 1907,180 1905,182 1905,184 1904,185 1904,235 1903,236 1903,253 1904,254 1904,258 1903,259 1903,372 1904,373 1904,380 1903,381 1903,486 1904,487 1904,542 1903,543 1903,555 1902,556 1902,582 1903,583 1903,611 1904,612 1904,624 1903,625 1903,628 1904,629 1904,643 1903,644 1903,691 1902,692 1902,706 1903,707 1903,741 1902,742 1902,749 1903,750 1903,838 1902,839 1902,844 1903,845 1903,870 1904,871 1904,884 1903,885 1903,894 1904,895 1904,915 1905,916 1905,917 1908,920 1910,920 1911,921 1912,921 1913,922 1916,922 1917,923 1923,923 1924,922 1934,922 1935,921 1941,921 1942,920 1956,920 1957,921 1986,921 1987,920 1996,920 1997,919 2103,919 2104,920 2127,920 2128,921 2138,921 2139,920 2152,920 2153,919 2164,919 2165,920 2176,920 2177,919 2181,919 2182,920 2268,920 2269,919 2271,919 2272,918 2274,918 2278,914 2278,911 2279,910 2279,866 2278,865 2278,858 2277,857 2277,835 2276,834 2276,828 2277,827 2277,790 2276,789 2276,780 2277,779 2277,773 2278,772 2278,736 2279,735 2279,732 2278,731 2278,715 2279,714 2279,708 2278,707 2278,694 2279,693 2279,687 2280,686 2280,681 2281,680 2281,665 2280,664 2280,657 2279,656 2279,611 2278,610 2278,581 2279,580 2279,568 2278,567 2278,544 2279,543 2279,540 2278,539 2278,500 2279,499 2279,480 2278,479 2278,356 2279,355 2279,346 2278,345 2278,307 2279,306 2279,294 2278,293 2278,260 2279,259 2279,235 2278,234 2278,222 2279,221 2279,212 2280,211 2280,204 2279,203 2279,193 2278,192 2278,186 2277,185 2277,184 2275,182 2274,182 2273,181 2267,181 2266,180 2249,180 2248,181 2242,181 2241,182 2236,182 2235,181 2224,181 2223,180 2216,180 2215,179 2200,179 2199,178 2195,178 2194,177 2191,177 2190,178 2189,178 2188,179 2186,179 2185,180 2183,180 2182,181 2171,181 2170,180 2158,180 2157,179 2150,179 2149,178 2126,178 2125,179 2112,179 2111,180 2107,180 2106,179 2090,179 2089,178 2082,178 2081,177 2079,177 2078,176 2076,176 2075,175 2073,175 2072,174" fill="rgba(74,202,87,0.3)" stroke="rgb(74,202,87)" stroke-width="2" data-block-id="0004" data-name="b-0005" /><text x="2106" y="496" text-anchor="middle" dominant-baseline="middle" class="block-label" fill="rgb(74,202,87)" stroke="white" stroke-width="3" paint-order="stroke">b-0005</text><polygon points="529,1006 528,1007 496,1007 495,1008 494,1008 490,1012 490,1013 489,1014 489,1016 488,1017 488,1086 487,1087 487,1137 486,1138 486,1151 485,1152 485,1169 486,1170 486,1182 487,1183 487,1250 486,1251 486,1272 487,1273 487,1283 488,1284 488,1311 489,1312 489,1340 490,1341 490,1347 489,1348 489,1396 488,1397 488,1421 489,1422 489,1448 488,1449 488,1455 489,1456 489,1469 488,1470 488,1523 489,1524 489,1531 490,1532 490,1575 491,1576 491,1691 492,1692 492,1741 493,1742 493,1743 494,1744 494,1745 496,1747 498,1747 499,1748 502,1748 503,1749 508,1749 509,1750 512,1750 513,1749 532,1749 533,1748 584,1748 585,1747 593,1747 594,1748 598,1748 599,1749 623,1749 624,1750 628,1750 629,1749 643,1749 644,1748 712,1748 713,1749 719,1749 720,1750 725,1750 726,1749 731,1749 732,1748 752,1748 753,1747 761,1747 762,1748 818,1748 819,1747 844,1747 845,1748 855,1748 856,1747 858,1747 860,1745 861,1745 861,1744 863,1742 863,1741 864,1740 864,1730 865,1729 865,1723 864,1722 864,1705 865,1704 865,1683 864,1682 864,1642 865,1641 865,1625 864,1624 864,1599 865,1598 865,1590 864,1589 864,1582 865,1581 865,1550 864,1549 864,1531 865,1530 865,1501 864,1500 864,1494 865,1493 865,1487 864,1486 864,1459 863,1458 863,1449 864,1448 864,1434 863,1433 863,1425 864,1424 864,1418 865,1417 865,1413 864,1412 864,1375 865,1374 865,1363 864,1362 864,1347 865,1346 865,1338 864,1337 864,1320 865,1319 865,1308 866,1307 866,1303 865,1302 865,1291 864,1290 864,1285 863,1284 863,1264 862,1263 862,1259 863,1258 863,1251 864,1250 864,1228 863,1227 863,1215 864,1214 863,1213 863,1192 864,1191 864,1168 865,1167 865,1152 864,1151 864,1122 863,1121 863,1101 864,1100 864,1088 863,1087 863,1073 862,1072 862,1068 863,1067 863,1059 864,1058 864,1035 865,1034 865,1028 864,1027 864,1017 863,1016 863,1013 862,1012 862,1011 860,1009 859,1009 858,1008 857,1008 856,1007 826,1007 825,1008 801,1008 800,1007 767,1007 766,1008 747,1008 746,1007 730,1007 729,1008 714,1008 713,1007 708,1007 707,1008 691,1008 690,1007 675,1007 674,1006 661,1006 660,1007 655,1007 654,1008 641,1008 640,1007 634,1007 633,1008 615,1008 614,1007 574,1007 573,1008 554,1008 553,1007 534,1007 533,1006" fill="rgba(116,99,103,0.3)" stroke="rgb(116,99,103)" stroke-width="2" data-block-id="0005" data-name="b-0006" /><text x="714" y="1365" text-anchor="middle" dominant-baseline="middle" class="block-label" fill="rgb(116,99,103)" stroke="white" stroke-width="3" paint-order="stroke">b-0006</text><polygon points="2853,182 2852,183 2836,183 2835,184 2834,184 2833,185 2832,185 2829,188 2829,189 2828,190 2828,191 2827,192 2827,195 2826,196 2826,293 2825,294 2825,344 2824,345 2824,355 2825,356 2825,360 2826,361 2826,376 2825,377 2825,394 2826,395 2826,426 2825,427 2825,452 2826,453 2826,504 2827,505 2827,506 2826,507 2826,516 2825,517 2825,545 2826,546 2826,629 2825,630 2825,642 2826,643 2826,708 2825,709 2825,725 2826,726 2826,755 2825,756 2825,761 2826,762 2826,773 2827,774 2827,780 2828,781 2828,788 2827,789 2827,863 2826,864 2826,911 2827,912 2827,917 2828,918 2828,919 2829,920 2829,921 2833,925 2834,925 2835,926 2873,926 2874,927 2890,927 2891,926 2898,926 2899,925 2912,925 2913,926 2917,926 2918,927 2923,927 2924,928 2944,928 2945,927 2952,927 2953,926 3011,926 3012,927 3014,927 3015,926 3019,926 3020,925 3022,925 3023,924 3026,924 3027,923 3040,923 3041,924 3043,924 3044,925 3045,925 3046,926 3048,926 3049,927 3056,927 3057,928 3065,928 3066,927 3070,927 3071,926 3085,926 3086,927 3107,927 3108,928 3109,927 3114,927 3115,926 3118,926 3119,925 3135,925 3136,926 3141,926 3142,927 3154,927 3155,928 3157,928 3158,927 3166,927 3167,926 3185,926 3186,925 3190,925 3191,924 3194,924 3195,923 3196,923 3198,921 3198,920 3199,919 3199,918 3200,917 3200,914 3201,913 3201,853 3200,852 3200,836 3201,835 3201,805 3200,804 3200,799 3199,798 3199,774 3200,773 3200,722 3199,721 3199,663 3198,662 3198,649 3199,648 3199,644 3200,643 3200,631 3199,630 3199,595 3200,594 3200,576 3199,575 3199,569 3198,568 3198,559 3199,558 3199,550 3200,549 3200,535 3199,534 3199,455 3200,454 3200,418 3199,417 3199,408 3200,407 3200,396 3201,395 3201,370 3200,369 3200,311 3201,310 3201,289 3200,288 3200,283 3199,282 3199,269 3200,268 3200,259 3201,258 3201,252 3200,251 3200,195 3199,194 3199,192 3198,191 3198,190 3195,187 3194,187 3193,186 3188,186 3187,185 3165,185 3164,184 3145,184 3144,185 3104,185 3103,184 3095,184 3094,185 3091,185 3090,186 3080,186 3079,185 3055,185 3054,184 3048,184 3047,185 3033,185 3032,186 3005,186 3004,185 3001,185 3000,186 2978,186 2977,185 2946,185 2945,184 2898,184 2897,183 2860,183 2859,182" fill="rgba(151,130,149,0.3)" stroke="rgb(151,130,149)" stroke-width="2" data-block-id="0006" data-name="b-0007" /><text x="3028" y="598" text-anchor="middle" dominant-baseline="middle" class="block-label" fill="rgb(151,130,149)" stroke="white" stroke-width="3" paint-order="stroke">b-0007</text><polygon points="3572,178 3571,179 3568,179 3567,180 3558,180 3557,181 3552,181 3551,182 3550,182 3549,183 3545,183 3544,184 3533,184 3532,183 3500,183 3499,184 3495,184 3494,185 3483,185 3482,186 3479,186 3478,185 3456,185 3455,184 3439,184 3438,185 3426,185 3425,184 3417,184 3416,183 3395,183 3394,184 3310,184 3309,185 3304,185 3303,186 3300,186 3295,191 3295,192 3294,193 3294,194 3293,195 3293,196 3292,197 3292,201 3291,202 3291,206 3290,207 3291,208 3291,211 3292,212 3292,213 3293,214 3293,215 3296,218 3296,219 3297,220 3297,223 3296,224 3296,226 3295,227 3295,231 3294,232 3294,236 3293,237 3293,248 3292,249 3292,258 3293,259 3293,263 3294,264 3294,278 3293,279 3293,282 3294,283 3294,289 3295,290 3295,306 3296,307 3296,320 3295,321 3295,330 3294,331 3294,340 3293,341 3293,346 3292,347 3292,354 3293,355 3293,356 3295,358 3295,359 3299,363 3299,366 3298,367 3297,367 3297,368 3295,370 3295,371 3294,372 3294,373 3293,374 3293,377 3292,378 3292,392 3291,393 3291,402 3292,403 3292,411 3293,412 3293,413 3292,414 3292,458 3291,459 3291,490 3290,491 3290,499 3291,500 3291,513 3290,514 3290,524 3289,525 3289,536 3288,537 3288,546 3289,547 3289,549 3290,550 3290,552 3291,553 3291,558 3290,559 3290,563 3289,564 3289,567 3288,568 3288,580 3287,581 3287,588 3286,589 3286,590 3287,591 3287,594 3288,595 3288,596 3289,597 3289,598 3290,599 3290,600 3291,601 3291,606 3290,607 3290,611 3289,612 3289,617 3290,618 3290,622 3291,623 3291,643 3292,644 3292,654 3291,655 3291,662 3290,663 3290,677 3289,678 3289,689 3290,690 3290,694 3291,695 3291,724 3290,725 3290,778 3289,779 3289,837 3288,838 3288,860 3289,861 3289,873 3288,874 3288,910 3289,911 3289,914 3290,915 3290,916 3292,918 3293,918 3294,919 3297,919 3298,920 3309,920 3310,921 3320,921 3321,922 3329,922 3330,923 3348,923 3349,922 3351,922 3352,921 3354,921 3355,920 3359,920 3360,919 3382,919 3383,920 3393,920 3394,919 3396,919 3397,920 3490,920 3491,919 3492,919 3493,920 3520,920 3521,921 3526,921 3527,922 3530,922 3531,921 3540,921 3541,920 3571,920 3572,921 3603,921 3604,922 3617,922 3618,923 3624,923 3625,924 3626,924 3627,923 3647,923 3648,922 3651,922 3652,921 3655,921 3656,920 3658,920 3662,916 3662,914 3663,913 3663,849 3664,848 3664,837 3663,836 3663,825 3664,824 3664,764 3663,763 3663,754 3664,753 3664,739 3663,738 3663,733 3664,732 3664,715 3665,714 3665,706 3664,705 3664,695 3665,694 3665,661 3666,660 3666,647 3667,646 3667,638 3668,637 3668,618 3667,617 3667,589 3668,588 3668,576 3667,575 3667,570 3666,569 3666,563 3665,562 3665,558 3664,557 3664,555 3665,554 3665,550 3666,549 3666,544 3667,543 3667,522 3666,521 3666,514 3667,513 3667,476 3666,475 3666,469 3667,468 3667,447 3666,446 3667,445 3667,402 3668,401 3668,393 3669,392 3669,379 3670,378 3670,341 3669,340 3669,338 3668,337 3668,336 3666,334 3666,333 3663,330 3663,328 3662,327 3663,326 3663,324 3664,323 3664,321 3665,320 3665,298 3666,297 3666,285 3665,284 3665,274 3664,273 3664,263 3665,262 3665,257 3666,256 3666,248 3667,247 3667,246 3666,245 3666,242 3665,241 3665,238 3664,237 3664,229 3663,228 3663,220 3664,219 3664,214 3665,213 3665,198 3664,197 3664,194 3663,193 3663,192 3662,191 3662,190 3659,187 3656,187 3655,186 3626,186 3625,185 3593,185 3592,186 3585,186 3584,185 3581,185 3580,184 3579,184 3576,181 3576,180 3574,178" fill="rgba(52,1,87,0.3)" stroke="rgb(52,1,87)" stroke-width="2" data-block-id="0007" data-name="b-0008" /><text x="3462" y="494" text-anchor="middle" dominant-baseline="middle" class="block-label" fill="rgb(52,1,87)" stroke="white" stroke-width="3" paint-order="stroke">b-0008</text><polygon points="1919,1009 1918,1010 1914,1010 1913,1011 1911,1011 1910,1012 1908,1012 1906,1014 1906,1015 1904,1017 1904,1020 1903,1021 1903,1073 1904,1074 1904,1103 1903,1104 1903,1138 1904,1139 1904,1171 1903,1172 1903,1213 1902,1214 1902,1236 1903,1237 1903,1253 1902,1254 1902,1282 1903,1283 1903,1348 1902,1349 1902,1373 1903,1374 1903,1398 1904,1399 1904,1408 1903,1409 1903,1442 1902,1443 1902,1465 1903,1466 1903,1476 1904,1477 1904,1479 1903,1480 1903,1489 1904,1490 1904,1513 1903,1514 1903,1555 1904,1556 1904,1615 1905,1616 1905,1645 1904,1646 1904,1658 1905,1659 1905,1685 1906,1686 1906,1694 1905,1695 1905,1712 1906,1713 1906,1717 1905,1718 1905,1732 1906,1733 1906,1739 1907,1740 1907,1741 1910,1744 1911,1744 1912,1745 1913,1745 1914,1746 1916,1746 1917,1747 1934,1747 1935,1746 1947,1746 1948,1747 1971,1747 1972,1746 1986,1746 1987,1747 1991,1747 1992,1746 1998,1746 1999,1745 2022,1745 2023,1744 2027,1744 2028,1745 2087,1745 2088,1746 2096,1746 2097,1747 2104,1747 2105,1748 2117,1748 2118,1747 2123,1747 2124,1748 2138,1748 2139,1747 2192,1747 2193,1746 2226,1746 2227,1747 2261,1747 2262,1748 2263,1747 2267,1747 2268,1746 2270,1746 2271,1745 2272,1745 2273,1744 2274,1744 2278,1740 2278,1739 2279,1738 2279,1713 2278,1712 2278,1631 2279,1630 2279,1614 2278,1613 2278,1604 2279,1603 2279,1577 2278,1576 2278,1568 2279,1567 2279,1470 2280,1469 2280,1443 2279,1442 2279,1440 2280,1439 2280,1393 2279,1392 2279,1373 2278,1372 2278,1364 2279,1363 2279,1314 2280,1313 2280,1304 2279,1303 2279,1279 2278,1278 2278,1269 2279,1268 2279,1251 2278,1250 2278,1247 2279,1246 2279,1234 2280,1233 2280,1208 2279,1207 2279,1201 2278,1200 2278,1173 2279,1172 2279,1155 2278,1154 2278,1148 2279,1147 2279,1140 2278,1139 2278,1121 2279,1120 2279,1110 2278,1109 2278,1074 2279,1073 2279,1061 2278,1060 2278,1021 2277,1020 2277,1018 2276,1017 2276,1016 2273,1013 2271,1013 2270,1012 2266,1012 2265,1011 2261,1011 2260,1012 2244,1012 2243,1013 2218,1013 2217,1014 2206,1014 2205,1013 2171,1013 2170,1012 2166,1012 2165,1013 2152,1013 2151,1012 2112,1012 2111,1011 2098,1011 2097,1010 2093,1010 2092,1011 2081,1011 2080,1012 2042,1012 2041,1011 2034,1011 2033,1010 2016,1010 2015,1011 2007,1011 2006,1012 1994,1012 1993,1011 1985,1011 1984,1010 1979,1010 1978,1009 1974,1009 1973,1010 1962,1010 1961,1011 1945,1011 1944,1010 1933,1010 1932,1009" fill="rgba(235,157,37,0.3)" stroke="rgb(235,157,37)" stroke-width="2" data-block-id="0008" data-name="b-0009" /><text x="2087" y="1362" text-anchor="middle" dominant-baseline="middle" class="block-label" fill="rgb(235,157,37)" stroke="white" stroke-width="3" paint-order="stroke">b-0009</text><polygon points="1500,172 1499,173 1497,173 1496,174 1494,174 1493,175 1490,175 1489,176 1484,176 1483,175 1446,175 1445,176 1441,176 1440,177 1439,177 1436,180 1436,181 1435,182 1435,184 1434,185 1434,189 1435,190 1435,200 1436,201 1436,226 1435,227 1435,254 1436,255 1436,257 1435,258 1435,271 1434,272 1434,292 1435,293 1435,302 1436,303 1436,314 1435,315 1436,316 1436,335 1435,336 1435,346 1436,347 1436,357 1435,358 1435,393 1436,394 1436,424 1435,425 1435,443 1436,444 1436,450 1435,451 1435,482 1436,483 1436,503 1435,504 1435,547 1434,548 1434,580 1435,581 1435,589 1436,590 1436,617 1435,618 1435,644 1434,645 1434,670 1435,671 1435,687 1436,688 1436,732 1435,733 1435,775 1436,776 1436,835 1435,836 1435,875 1436,876 1436,906 1437,907 1437,910 1438,911 1438,913 1442,917 1446,917 1447,918 1481,918 1482,917 1540,917 1541,918 1545,918 1546,919 1557,919 1558,920 1572,920 1573,919 1575,919 1576,918 1582,918 1583,917 1585,917 1586,918 1602,918 1603,917 1611,917 1612,918 1644,918 1645,919 1649,919 1650,920 1672,920 1673,919 1679,919 1680,918 1684,918 1685,919 1689,919 1690,918 1698,918 1699,917 1723,917 1724,918 1746,918 1747,919 1760,919 1761,918 1770,918 1771,917 1779,917 1780,918 1790,918 1791,919 1795,919 1796,920 1797,920 1798,919 1799,919 1802,916 1802,914 1803,913 1803,909 1804,908 1804,893 1805,892 1805,868 1804,867 1804,845 1805,844 1805,841 1804,840 1804,821 1805,820 1805,796 1804,795 1804,782 1805,781 1805,779 1806,778 1806,777 1807,776 1807,775 1808,774 1808,772 1809,771 1809,766 1808,765 1808,760 1807,759 1807,755 1806,754 1806,734 1807,733 1807,729 1808,728 1808,719 1807,718 1807,716 1806,715 1806,711 1805,710 1805,708 1806,707 1806,691 1807,690 1807,683 1806,682 1806,656 1807,655 1807,649 1806,648 1806,626 1807,625 1807,618 1808,617 1808,613 1807,612 1807,608 1806,607 1806,602 1805,601 1805,592 1806,591 1806,588 1807,587 1807,585 1808,584 1808,583 1809,582 1809,567 1808,566 1808,563 1807,562 1807,559 1806,558 1806,513 1805,512 1805,498 1806,497 1806,490 1805,489 1805,474 1804,473 1804,458 1805,457 1805,456 1806,455 1806,454 1807,453 1807,451 1808,450 1808,444 1807,443 1807,441 1806,440 1806,438 1805,437 1805,434 1804,433 1804,427 1803,426 1803,396 1804,395 1804,368 1805,367 1805,337 1804,336 1804,311 1805,310 1805,301 1806,300 1806,293 1805,292 1805,283 1804,282 1804,264 1805,263 1805,238 1806,237 1806,230 1805,229 1805,213 1806,212 1806,193 1805,192 1805,189 1804,188 1804,186 1803,185 1803,184 1801,182 1801,181 1800,180 1799,180 1798,179 1797,179 1796,178 1791,178 1790,177 1737,177 1736,176 1729,176 1728,175 1694,175 1693,176 1679,176 1678,175 1672,175 1671,174 1669,174 1668,173 1651,173 1650,174 1640,174 1639,175 1625,175 1624,174 1612,174 1611,173 1606,173 1605,174 1590,174 1589,175 1554,175 1553,174 1530,174 1529,173 1524,173 1523,172" fill="rgba(129,191,187,0.3)" stroke="rgb(129,191,187)" stroke-width="2" data-block-id="0009" data-name="b-0010" /><text x="1663" y="540" text-anchor="middle" dominant-baseline="middle" class="block-label" fill="rgb(129,191,187)" stroke="white" stroke-width="3" paint-order="stroke">b-0010</text><polygon points="1471,1010 1470,1011 1465,1011 1464,1012 1461,1012 1460,1011 1447,1011 1446,1012 1441,1012 1440,1013 1439,1013 1437,1015 1437,1016 1436,1017 1436,1019 1435,1020 1435,1041 1436,1042 1436,1054 1435,1055 1435,1252 1434,1253 1434,1265 1435,1266 1435,1297 1434,1298 1434,1318 1435,1319 1435,1349 1434,1350 1434,1384 1435,1385 1435,1529 1436,1530 1436,1537 1435,1538 1435,1558 1436,1559 1436,1589 1435,1590 1435,1604 1436,1605 1436,1640 1435,1641 1435,1655 1436,1656 1436,1706 1435,1707 1435,1720 1436,1721 1436,1736 1435,1737 1436,1738 1436,1742 1437,1743 1437,1744 1440,1747 1441,1747 1442,1748 1447,1748 1448,1749 1458,1749 1459,1750 1466,1750 1467,1749 1478,1749 1479,1748 1579,1748 1580,1749 1609,1749 1610,1748 1660,1748 1661,1747 1669,1747 1670,1748 1723,1748 1724,1749 1732,1749 1733,1748 1743,1748 1744,1747 1754,1747 1755,1746 1759,1746 1760,1745 1761,1746 1763,1746 1764,1747 1765,1747 1766,1748 1769,1748 1770,1749 1796,1749 1797,1748 1801,1748 1802,1747 1803,1747 1808,1742 1808,1741 1809,1740 1809,1738 1810,1737 1810,1736 1809,1735 1809,1716 1808,1715 1808,1703 1809,1702 1809,1676 1808,1675 1808,1652 1809,1651 1809,1647 1810,1646 1810,1640 1811,1639 1811,1630 1810,1629 1810,1626 1809,1625 1809,1622 1808,1621 1808,1607 1807,1606 1807,1532 1806,1531 1806,1516 1807,1515 1807,1509 1806,1508 1806,1471 1807,1470 1807,1436 1806,1435 1806,1263 1807,1262 1807,1233 1806,1232 1806,1194 1807,1193 1807,1167 1806,1166 1806,1163 1807,1162 1807,1150 1806,1149 1806,1143 1805,1142 1805,1050 1804,1049 1804,1019 1803,1018 1803,1017 1800,1014 1797,1014 1796,1013 1714,1013 1713,1012 1693,1012 1692,1011 1689,1011 1688,1012 1673,1012 1672,1011 1665,1011 1664,1012 1659,1012 1658,1013 1648,1013 1647,1012 1634,1012 1633,1013 1625,1013 1624,1012 1575,1012 1574,1013 1556,1013 1555,1012 1550,1012 1549,1011 1543,1011 1542,1012 1529,1012 1528,1011 1506,1011 1505,1010" fill="rgba(20,160,203,0.3)" stroke="rgb(20,160,203)" stroke-width="2" data-block-id="0010" data-name="b-0011" /><text x="1632" y="1411" text-anchor="middle" dominant-baseline="middle" class="block-label" fill="rgb(20,160,203)" stroke="white" stroke-width="3" paint-order="stroke">b-0011</text><polygon points="2714,181 2713,182 2709,182 2708,183 2705,183 2704,184 2690,184 2689,185 2686,185 2685,186 2681,186 2680,187 2677,187 2676,186 2654,186 2653,187 2648,187 2647,188 2643,188 2642,189 2639,189 2638,190 2635,190 2634,191 2629,191 2628,190 2624,190 2623,189 2618,189 2617,190 2611,190 2610,191 2606,191 2605,192 2601,192 2600,193 2588,193 2587,194 2586,194 2585,193 2580,193 2579,192 2576,192 2575,191 2572,191 2571,190 2568,190 2567,189 2564,189 2563,188 2549,188 2548,187 2544,187 2543,186 2539,186 2538,185 2519,185 2518,186 2508,186 2507,185 2481,185 2480,184 2470,184 2469,183 2446,183 2445,184 2425,184 2424,183 2410,183 2409,182 2392,182 2391,183 2386,183 2385,184 2382,184 2381,185 2380,185 2378,187 2378,188 2377,189 2377,191 2376,192 2376,194 2375,195 2375,202 2374,203 2374,213 2375,214 2375,318 2376,319 2376,330 2375,331 2375,349 2376,350 2376,354 2375,355 2375,363 2374,364 2374,380 2375,381 2375,393 2376,394 2376,412 2375,413 2375,424 2374,425 2375,426 2375,439 2376,440 2376,451 2375,452 2375,454 2374,455 2374,460 2373,461 2373,462 2374,463 2374,492 2373,493 2373,499 2372,500 2372,505 2371,506 2371,507 2372,508 2372,513 2373,514 2373,528 2372,529 2372,550 2373,551 2373,568 2372,569 2372,585 2373,586 2373,588 2374,589 2374,595 2373,596 2373,599 2372,600 2372,618 2373,619 2373,622 2374,623 2374,627 2375,628 2375,632 2376,633 2376,641 2375,642 2375,644 2374,645 2374,647 2373,648 2373,651 2372,652 2372,674 2373,675 2373,681 2374,682 2374,690 2373,691 2373,698 2372,699 2372,713 2373,714 2373,719 2374,720 2374,725 2375,726 2375,731 2376,732 2376,737 2375,738 2375,743 2374,744 2374,752 2375,753 2375,761 2374,762 2374,768 2373,769 2373,770 2374,771 2374,775 2375,776 2375,779 2376,780 2376,785 2375,786 2375,789 2374,790 2374,820 2373,821 2373,833 2374,834 2374,849 2375,850 2375,896 2374,897 2374,903 2375,904 2375,908 2376,909 2376,911 2377,912 2377,914 2378,915 2378,916 2379,917 2379,918 2381,920 2382,920 2383,921 2384,921 2385,922 2386,922 2388,924 2389,924 2392,927 2397,927 2398,926 2402,926 2403,925 2409,925 2410,926 2419,926 2420,925 2423,925 2424,924 2427,924 2428,923 2429,923 2430,924 2433,924 2434,925 2435,925 2436,926 2438,926 2439,927 2445,927 2446,926 2449,926 2450,925 2455,925 2456,926 2458,926 2459,927 2460,927 2461,928 2468,928 2469,927 2470,927 2471,926 2472,926 2473,925 2474,925 2475,924 2479,924 2480,925 2481,925 2482,926 2484,926 2485,927 2486,927 2487,928 2494,928 2495,927 2501,927 2502,926 2503,927 2519,927 2520,926 2532,926 2533,927 2552,927 2553,928 2563,928 2564,929 2578,929 2579,930 2587,930 2588,929 2599,929 2600,928 2628,928 2629,929 2641,929 2642,930 2653,930 2654,931 2679,931 2680,930 2681,930 2683,928 2684,928 2685,927 2686,927 2687,926 2688,926 2689,925 2700,925 2701,926 2728,926 2731,923 2731,922 2732,921 2732,919 2733,918 2733,916 2734,915 2734,912 2735,911 2735,907 2736,906 2736,892 2735,891 2735,883 2734,882 2734,855 2735,854 2735,849 2734,848 2734,826 2735,825 2735,799 2734,798 2734,786 2735,785 2735,733 2736,732 2736,717 2735,716 2735,683 2734,682 2734,666 2735,665 2735,661 2734,660 2734,645 2735,644 2735,635 2736,634 2736,612 2735,611 2735,582 2736,581 2736,578 2735,577 2735,560 2734,559 2734,555 2735,554 2735,548 2736,547 2736,525 2735,524 2735,518 2736,517 2736,510 2737,509 2737,505 2736,504 2736,480 2735,479 2735,475 2734,474 2734,458 2735,457 2735,434 2734,433 2734,426 2733,425 2733,404 2734,403 2734,367 2733,366 2733,364 2734,363 2734,346 2733,345 2733,336 2734,335 2734,319 2733,318 2733,313 2734,312 2734,269 2733,268 2733,267 2734,266 2734,247 2733,246 2733,241 2734,240 2734,222 2733,221 2733,217 2734,216 2734,195 2733,194 2733,192 2732,191 2732,190 2730,188 2730,187 2729,186 2728,186 2727,185 2725,185 2724,184 2721,184 2720,183 2719,183 2718,182 2716,182 2715,181" fill="rgba(57,21,252,0.3)" stroke="rgb(57,21,252)" stroke-width="2" data-block-id="0011" data-name="b-0012" /><text x="2537" y="571" text-anchor="middle" dominant-baseline="middle" class="block-label" fill="rgb(57,21,252)" stroke="white" stroke-width="3" paint-order="stroke">b-0012</text><polygon points="2402,1012 2401,1013 2391,1013 2390,1014 2385,1014 2384,1015 2382,1015 2381,1016 2380,1016 2379,1017 2379,1018 2377,1020 2377,1021 2376,1022 2376,1027 2375,1028 2375,1037 2374,1038 2374,1066 2375,1067 2375,1107 2374,1108 2374,1115 2373,1116 2373,1119 2374,1120 2374,1152 2375,1153 2375,1167 2374,1168 2374,1187 2375,1188 2375,1198 2374,1199 2374,1207 2375,1208 2375,1211 2374,1212 2374,1222 2373,1223 2373,1227 2374,1228 2374,1266 2373,1267 2373,1296 2374,1297 2374,1311 2373,1312 2373,1317 2372,1318 2372,1324 2373,1325 2373,1339 2374,1340 2374,1350 2373,1351 2373,1371 2374,1372 2374,1377 2375,1378 2375,1392 2374,1393 2374,1422 2375,1423 2375,1431 2374,1432 2374,1437 2373,1438 2373,1442 2374,1443 2374,1455 2373,1456 2373,1460 2372,1461 2372,1473 2373,1474 2373,1484 2374,1485 2374,1496 2375,1497 2375,1500 2374,1501 2374,1505 2373,1506 2373,1540 2374,1541 2374,1565 2375,1566 2375,1570 2376,1571 2376,1572 2375,1573 2375,1579 2374,1580 2374,1590 2375,1591 2375,1596 2374,1597 2374,1602 2373,1603 2373,1616 2374,1617 2374,1634 2375,1635 2375,1649 2374,1650 2374,1701 2373,1702 2373,1717 2374,1718 2374,1735 2373,1736 2373,1737 2374,1738 2374,1742 2375,1743 2375,1744 2376,1745 2376,1746 2381,1751 2382,1751 2383,1752 2388,1752 2389,1753 2405,1753 2406,1752 2410,1752 2411,1751 2448,1751 2449,1752 2454,1752 2455,1751 2459,1751 2460,1750 2466,1750 2467,1749 2499,1749 2500,1748 2515,1748 2516,1749 2517,1749 2518,1750 2520,1750 2521,1751 2523,1751 2524,1752 2534,1752 2535,1751 2539,1751 2540,1750 2543,1750 2544,1749 2547,1749 2548,1748 2559,1748 2560,1749 2568,1749 2569,1750 2588,1750 2589,1749 2603,1749 2604,1748 2610,1748 2611,1749 2614,1749 2615,1750 2629,1750 2630,1749 2644,1749 2645,1748 2680,1748 2681,1749 2690,1749 2691,1750 2693,1750 2694,1749 2723,1749 2724,1748 2728,1748 2732,1744 2732,1743 2733,1742 2733,1741 2734,1740 2734,1731 2735,1730 2735,1719 2736,1718 2736,1687 2735,1686 2735,1624 2736,1623 2736,1511 2735,1510 2735,1470 2736,1469 2736,1459 2735,1458 2735,1433 2736,1432 2736,1409 2735,1408 2735,1377 2736,1376 2736,1370 2735,1369 2735,1302 2734,1301 2734,1295 2735,1294 2735,1290 2736,1289 2736,1281 2737,1280 2737,1269 2736,1268 2736,1206 2735,1205 2735,1199 2736,1198 2736,1194 2737,1193 2737,1178 2736,1177 2736,1148 2737,1147 2737,1138 2736,1137 2736,1132 2735,1131 2735,1127 2736,1126 2736,1120 2737,1119 2737,1113 2736,1112 2736,1099 2737,1098 2737,1092 2736,1091 2736,1085 2735,1084 2735,1076 2736,1075 2736,1033 2735,1032 2735,1023 2734,1022 2734,1021 2730,1017 2728,1017 2727,1016 2724,1016 2723,1015 2720,1015 2719,1014 2718,1014 2717,1013 2712,1013 2711,1014 2707,1014 2706,1015 2687,1015 2686,1016 2672,1016 2671,1015 2669,1015 2668,1016 2664,1016 2663,1017 2659,1017 2658,1018 2653,1018 2652,1017 2646,1017 2645,1016 2641,1016 2640,1017 2623,1017 2622,1018 2608,1018 2607,1019 2588,1019 2587,1018 2578,1018 2577,1017 2566,1017 2565,1018 2532,1018 2531,1017 2499,1017 2498,1016 2494,1016 2493,1015 2477,1015 2476,1016 2435,1016 2434,1015 2413,1015 2412,1014 2409,1014 2408,1013 2405,1013 2404,1012" fill="rgba(235,88,48,0.3)" stroke="rgb(235,88,48)" stroke-width="2" data-block-id="0012" data-name="b-0013" /><text x="2532" y="1367" text-anchor="middle" dominant-baseline="middle" class="block-label" fill="rgb(235,88,48)" stroke="white" stroke-width="3" paint-order="stroke">b-0013</text><polygon points="2894,1013 2893,1014 2890,1014 2889,1015 2885,1015 2884,1016 2879,1016 2878,1015 2848,1015 2847,1016 2835,1016 2834,1017 2833,1017 2832,1018 2831,1018 2829,1020 2829,1021 2828,1022 2828,1025 2827,1026 2827,1099 2826,1100 2826,1119 2827,1120 2827,1154 2826,1155 2826,1163 2825,1164 2825,1167 2826,1168 2826,1308 2825,1309 2825,1322 2826,1323 2826,1350 2825,1351 2825,1363 2826,1364 2826,1436 2825,1437 2825,1469 2826,1470 2826,1521 2827,1522 2827,1526 2826,1527 2826,1566 2827,1567 2827,1571 2828,1572 2828,1573 2827,1574 2827,1621 2828,1622 2828,1677 2827,1678 2827,1694 2828,1695 2828,1700 2829,1701 2829,1703 2833,1707 2835,1707 2836,1708 2854,1708 2855,1709 2865,1709 2866,1708 2924,1708 2925,1709 2961,1709 2962,1708 2973,1708 2974,1707 3008,1707 3009,1708 3019,1708 3020,1709 3050,1709 3051,1708 3060,1708 3061,1707 3064,1707 3065,1708 3104,1708 3105,1707 3141,1707 3142,1708 3165,1708 3166,1709 3179,1709 3180,1710 3181,1709 3184,1709 3185,1708 3188,1708 3189,1707 3192,1707 3193,1706 3195,1706 3196,1705 3197,1705 3198,1704 3199,1704 3199,1703 3201,1701 3201,1698 3202,1697 3202,1680 3201,1679 3201,1662 3200,1661 3200,1555 3199,1554 3199,1551 3198,1550 3198,1544 3199,1543 3199,1519 3200,1518 3200,1513 3201,1512 3201,1491 3200,1490 3200,1358 3201,1357 3201,1355 3200,1354 3200,1264 3201,1263 3201,1255 3200,1254 3200,1218 3201,1217 3201,1199 3200,1198 3200,1187 3201,1186 3201,1157 3200,1156 3200,1151 3201,1150 3201,1103 3202,1102 3202,1090 3201,1089 3201,1031 3200,1030 3200,1023 3199,1022 3199,1020 3198,1019 3198,1018 3195,1015 3193,1015 3192,1014 3187,1014 3186,1013 3177,1013 3176,1014 3155,1014 3154,1015 3137,1015 3136,1014 3131,1014 3130,1015 3118,1015 3117,1014 3108,1014 3107,1015 3102,1015 3101,1016 3063,1016 3062,1015 3039,1015 3038,1014 3037,1014 3036,1015 3013,1015 3012,1016 2970,1016 2969,1015 2941,1015 2940,1016 2920,1016 2919,1015 2907,1015 2906,1014 2898,1014 2897,1013" fill="rgba(218,58,254,0.3)" stroke="rgb(218,58,254)" stroke-width="2" data-block-id="0013" data-name="b-0014" /><text x="3024" y="1344" text-anchor="middle" dominant-baseline="middle" class="block-label" fill="rgb(218,58,254)" stroke="white" stroke-width="3" paint-order="stroke">b-0014</text><polygon points="3301,1012 3300,1013 3299,1013 3296,1016 3295,1016 3295,1017 3292,1020 3292,1048 3293,1049 3293,1066 3292,1067 3292,1071 3293,1072 3293,1079 3294,1080 3294,1083 3293,1084 3293,1110 3292,1111 3292,1127 3293,1128 3293,1131 3292,1132 3292,1147 3293,1148 3293,1157 3292,1158 3292,1168 3291,1169 3291,1174 3290,1175 3290,1195 3291,1196 3291,1208 3290,1209 3290,1215 3291,1216 3291,1232 3290,1233 3290,1241 3291,1242 3291,1253 3290,1254 3290,1269 3291,1270 3291,1294 3292,1295 3292,1299 3291,1300 3291,1398 3292,1399 3292,1411 3291,1412 3291,1421 3292,1422 3292,1428 3293,1429 3293,1431 3294,1432 3294,1434 3295,1435 3295,1437 3296,1438 3296,1440 3297,1441 3297,1448 3298,1449 3298,1451 3297,1452 3297,1453 3296,1454 3296,1455 3295,1456 3295,1457 3294,1458 3294,1460 3293,1461 3293,1463 3292,1464 3292,1467 3293,1468 3293,1487 3292,1488 3292,1492 3291,1493 3291,1500 3290,1501 3290,1503 3289,1504 3289,1507 3288,1508 3288,1516 3289,1517 3289,1521 3290,1522 3290,1534 3291,1535 3291,1579 3290,1580 3290,1586 3291,1587 3291,1602 3290,1603 3290,1612 3291,1613 3291,1624 3290,1625 3290,1639 3291,1640 3291,1644 3290,1645 3290,1651 3289,1652 3289,1656 3290,1657 3290,1663 3291,1664 3291,1666 3292,1667 3292,1668 3293,1669 3293,1670 3294,1671 3295,1671 3297,1673 3299,1673 3300,1674 3313,1674 3314,1673 3370,1673 3371,1672 3381,1672 3382,1673 3387,1673 3388,1672 3496,1672 3497,1671 3541,1671 3542,1672 3585,1672 3586,1671 3589,1671 3590,1672 3644,1672 3645,1671 3659,1671 3660,1670 3661,1670 3663,1668 3663,1667 3664,1666 3664,1660 3665,1659 3665,1652 3664,1651 3664,1564 3663,1563 3663,1556 3664,1555 3664,1505 3663,1504 3663,1491 3664,1490 3664,1486 3663,1485 3663,1466 3664,1465 3664,1423 3665,1422 3665,1401 3666,1400 3666,1396 3667,1395 3667,1342 3666,1341 3666,1245 3665,1244 3665,1181 3666,1180 3666,1175 3665,1174 3665,1168 3664,1167 3664,1142 3663,1141 3663,1035 3664,1034 3664,1022 3663,1021 3663,1019 3660,1016 3659,1016 3658,1015 3656,1015 3655,1014 3653,1014 3652,1013 3650,1013 3649,1012 3639,1012 3638,1013 3633,1013 3632,1012 3622,1012 3621,1013 3618,1013 3617,1014 3612,1014 3611,1015 3610,1014 3604,1014 3603,1013 3586,1013 3585,1012 3574,1012 3573,1013 3569,1013 3568,1014 3536,1014 3535,1013 3515,1013 3514,1014 3487,1014 3486,1013 3472,1013 3471,1014 3447,1014 3446,1015 3417,1015 3416,1014 3412,1014 3411,1013 3380,1013 3379,1014 3321,1014 3320,1013 3308,1013 3307,1012" fill="rgba(169,219,187,0.3)" stroke="rgb(169,219,187)" stroke-width="2" data-block-id="0014" data-name="b-0015" /><text x="3427" y="1333" text-anchor="middle" dominant-baseline="middle" class="block-label" fill="rgb(169,219,187)" stroke="white" stroke-width="3" paint-order="stroke">b-0015</text><polygon points="3795,1011 3794,1012 3789,1012 3788,1013 3786,1013 3785,1014 3784,1014 3783,1015 3782,1015 3779,1018 3779,1019 3778,1020 3778,1022 3777,1023 3777,1049 3776,1050 3776,1090 3777,1091 3777,1095 3776,1096 3776,1137 3777,1138 3777,1150 3776,1151 3776,1162 3775,1163 3775,1175 3776,1176 3776,1181 3777,1182 3777,1186 3778,1187 3778,1190 3777,1191 3777,1194 3776,1195 3776,1200 3775,1201 3775,1214 3776,1215 3776,1216 3777,1217 3777,1219 3780,1222 3780,1227 3778,1229 3778,1230 3777,1231 3777,1233 3776,1234 3776,1237 3775,1238 3775,1246 3774,1247 3774,1255 3775,1256 3775,1293 3774,1294 3774,1326 3775,1327 3775,1335 3774,1336 3774,1347 3773,1348 3773,1359 3774,1360 3774,1366 3775,1367 3775,1378 3776,1379 3776,1406 3775,1407 3775,1448 3776,1449 3776,1455 3775,1456 3775,1483 3776,1484 3776,1504 3775,1505 3775,1515 3776,1516 3776,1526 3777,1527 3777,1541 3776,1542 3776,1632 3777,1633 3776,1634 3776,1642 3777,1643 3777,1652 3778,1653 3778,1668 3779,1668 3781,1670 3791,1670 3792,1671 3813,1671 3814,1670 3831,1670 3832,1671 3852,1671 3853,1670 3912,1670 3913,1669 3942,1669 3943,1670 3950,1670 3951,1669 3968,1669 3969,1670 3972,1670 3973,1669 3985,1669 3986,1670 4120,1670 4121,1671 4134,1671 4135,1670 4139,1670 4140,1669 4141,1669 4144,1666 4144,1664 4145,1663 4145,1659 4146,1658 4146,1651 4145,1650 4145,1645 4144,1644 4144,1617 4145,1616 4145,1610 4146,1609 4146,1602 4145,1601 4145,1585 4144,1584 4144,1574 4143,1573 4143,1570 4144,1569 4144,1565 4145,1564 4145,1557 4144,1556 4144,1553 4143,1552 4143,1527 4142,1526 4142,1525 4143,1524 4143,1522 4144,1521 4144,1518 4145,1517 4145,1501 4144,1500 4144,1497 4145,1496 4145,1467 4146,1466 4146,1464 4145,1463 4145,1454 4144,1453 4144,1445 4145,1444 4145,1434 4146,1433 4146,1401 4145,1400 4145,1397 4144,1396 4144,1395 4143,1394 4143,1386 4144,1385 4144,1348 4143,1347 4143,1343 4144,1342 4144,1290 4145,1289 4145,1265 4146,1264 4146,1255 4145,1254 4145,1234 4144,1233 4144,1218 4145,1217 4145,1201 4144,1200 4144,1198 4145,1197 4145,1172 4146,1171 4146,1168 4147,1167 4147,1164 4146,1163 4146,1161 4145,1160 4145,1159 4144,1158 4144,1157 4143,1156 4143,1155 4142,1154 4142,1152 4141,1151 4141,1122 4142,1121 4142,1104 4141,1103 4141,1100 4140,1099 4140,1098 4139,1097 4139,1096 4138,1095 4138,1094 4137,1093 4137,1090 4138,1089 4138,1086 4139,1085 4139,1077 4138,1076 4138,1073 4137,1072 4137,1066 4138,1065 4138,1064 4139,1063 4139,1057 4140,1056 4140,1046 4139,1045 4139,1028 4138,1027 4138,1023 4137,1022 4137,1021 4135,1019 4130,1019 4129,1018 4124,1018 4123,1017 4121,1017 4120,1016 4119,1016 4118,1015 4116,1015 4115,1014 4109,1014 4108,1015 4096,1015 4095,1016 4083,1016 4082,1017 4077,1017 4076,1016 4072,1016 4071,1015 4068,1015 4067,1014 4062,1014 4061,1015 4025,1015 4024,1014 4003,1014 4002,1015 3998,1015 3997,1016 3996,1016 3995,1017 3992,1017 3990,1015 3988,1015 3987,1014 3986,1014 3985,1013 3975,1013 3974,1012 3970,1012 3969,1013 3949,1013 3948,1014 3929,1014 3928,1013 3925,1013 3924,1012 3911,1012 3910,1013 3904,1013 3903,1014 3893,1014 3892,1015 3886,1015 3885,1014 3869,1014 3868,1013 3861,1013 3860,1014 3824,1014 3823,1013 3811,1013 3810,1012 3806,1012 3805,1011" fill="rgba(207,14,189,0.3)" stroke="rgb(207,14,189)" stroke-width="2" data-block-id="0015" data-name="b-0016" /><text x="3983" y="1274" text-anchor="middle" dominant-baseline="middle" class="block-label" fill="rgb(207,14,189)" stroke="white" stroke-width="3" paint-order="stroke">b-0016</text><polygon points="839,2581 838,2582 836,2582 835,2583 833,2583 832,2584 831,2584 830,2585 828,2585 827,2586 826,2586 825,2587 824,2587 823,2588 821,2588 820,2589 811,2589 810,2588 803,2588 802,2587 796,2587 795,2586 792,2586 791,2587 780,2587 779,2588 766,2588 765,2587 759,2587 758,2586 749,2586 748,2585 746,2585 745,2586 737,2586 736,2587 730,2587 729,2588 725,2588 724,2589 719,2589 718,2588 709,2588 708,2587 704,2587 703,2586 696,2586 695,2587 693,2587 692,2588 689,2588 688,2589 673,2589 672,2590 661,2590 660,2589 654,2589 653,2588 647,2588 646,2589 641,2589 640,2590 625,2590 624,2589 619,2589 618,2588 611,2588 610,2587 600,2587 599,2588 597,2588 596,2589 592,2589 591,2590 579,2590 578,2591 577,2591 576,2590 513,2590 512,2589 506,2589 505,2590 503,2590 502,2591 500,2591 499,2592 497,2592 496,2593 495,2593 493,2595 493,2596 492,2597 492,2598 491,2599 491,2606 490,2607 490,2699 489,2700 489,2727 490,2728 490,2747 489,2748 489,2772 490,2773 490,2791 489,2792 489,2799 488,2800 488,2804 489,2805 489,2819 490,2820 490,2842 489,2843 489,2876 490,2877 490,2889 489,2890 489,2913 490,2914 490,2937 489,2938 489,2960 490,2961 490,2970 491,2971 491,2982 490,2983 490,2992 489,2993 489,2994 490,2995 490,3067 491,3068 491,3080 490,3081 490,3102 491,3103 491,3135 492,3136 492,3138 494,3140 494,3141 495,3141 496,3142 497,3142 498,3143 503,3143 504,3144 510,3144 511,3145 515,3145 516,3146 525,3146 526,3145 536,3145 537,3146 543,3146 544,3147 545,3147 546,3146 558,3146 559,3147 564,3147 565,3148 568,3148 569,3147 571,3147 572,3146 574,3146 575,3145 578,3145 579,3144 581,3144 582,3145 586,3145 587,3146 607,3146 608,3147 620,3147 621,3146 627,3146 628,3145 629,3145 630,3146 655,3146 656,3147 661,3147 662,3148 663,3147 667,3147 668,3146 671,3146 672,3145 678,3145 679,3146 683,3146 684,3147 688,3147 689,3146 692,3146 693,3145 705,3145 706,3146 711,3146 712,3147 726,3147 727,3148 731,3148 732,3149 737,3149 738,3148 744,3148 745,3147 747,3147 748,3148 752,3148 753,3149 762,3149 763,3148 766,3148 767,3147 770,3147 771,3146 773,3146 774,3147 783,3147 784,3146 787,3146 788,3145 791,3145 792,3144 798,3144 799,3145 831,3145 832,3146 834,3146 835,3147 836,3147 837,3148 839,3148 840,3149 841,3149 842,3150 851,3150 852,3149 856,3149 857,3148 859,3148 860,3147 861,3147 863,3145 864,3145 866,3143 866,3142 867,3141 867,3139 868,3138 868,3134 869,3133 869,3110 868,3109 868,3090 869,3089 869,3040 868,3039 868,3029 867,3028 867,3024 868,3023 868,3013 867,3012 867,2995 868,2994 868,2988 867,2987 867,2964 868,2963 868,2939 867,2938 867,2921 868,2920 868,2910 869,2909 869,2892 868,2891 868,2877 869,2876 869,2874 870,2873 870,2870 869,2869 869,2866 868,2865 868,2846 867,2845 867,2838 866,2837 866,2820 867,2819 867,2813 868,2812 868,2794 867,2793 867,2761 868,2760 868,2756 869,2755 869,2751 868,2750 868,2749 867,2748 867,2746 866,2745 866,2741 865,2740 865,2720 866,2719 865,2718 865,2710 864,2709 864,2703 865,2702 865,2700 866,2699 866,2697 868,2695 868,2693 869,2692 869,2680 868,2679 868,2676 867,2675 867,2665 866,2664 866,2649 867,2648 867,2630 868,2629 868,2627 869,2626 869,2623 870,2622 870,2615 871,2614 871,2604 870,2603 870,2599 869,2598 869,2597 861,2589 860,2589 859,2588 856,2588 855,2587 854,2587 853,2586 852,2586 851,2585 849,2585 846,2582 845,2582 844,2581" fill="rgba(50,107,54,0.3)" stroke="rgb(50,107,54)" stroke-width="2" data-block-id="0016" data-name="b-0018" /><text x="712" y="2864" text-anchor="middle" dominant-baseline="middle" class="block-label" fill="rgb(50,107,54)" stroke="white" stroke-width="3" paint-order="stroke">b-0018</text><polygon points="1487,2584 1486,2585 1456,2585 1455,2586 1447,2586 1446,2587 1441,2587 1440,2588 1439,2588 1436,2591 1436,2592 1435,2593 1435,2594 1434,2595 1434,2597 1433,2598 1433,2600 1434,2601 1434,2607 1435,2608 1435,2637 1434,2638 1434,2647 1435,2648 1435,2654 1436,2655 1436,2661 1435,2662 1435,2690 1436,2691 1436,2697 1435,2698 1435,2713 1434,2714 1434,2720 1435,2721 1435,2747 1434,2748 1434,2760 1435,2761 1435,2783 1434,2784 1434,2814 1435,2815 1435,2857 1434,2858 1434,2879 1433,2880 1433,2888 1434,2889 1434,2894 1435,2895 1435,2914 1436,2915 1436,2924 1435,2925 1435,2942 1436,2943 1436,2987 1435,2988 1435,2998 1436,2999 1436,3048 1435,3049 1435,3071 1436,3072 1436,3075 1435,3076 1435,3085 1434,3086 1434,3096 1435,3097 1435,3120 1434,3121 1434,3123 1435,3124 1435,3128 1436,3129 1436,3131 1437,3132 1437,3135 1438,3136 1438,3137 1439,3138 1440,3138 1441,3139 1444,3139 1445,3140 1451,3140 1452,3141 1475,3141 1476,3140 1515,3140 1516,3141 1522,3141 1523,3142 1549,3142 1550,3141 1610,3141 1611,3142 1625,3142 1626,3141 1635,3141 1636,3142 1651,3142 1652,3141 1657,3141 1658,3142 1686,3142 1687,3143 1695,3143 1696,3142 1772,3142 1773,3143 1799,3143 1800,3142 1801,3142 1802,3141 1803,3141 1805,3139 1806,3139 1808,3137 1808,3136 1809,3135 1809,3132 1810,3131 1810,3126 1811,3125 1811,3104 1810,3103 1810,3095 1811,3094 1811,2965 1810,2964 1810,2953 1811,2952 1811,2937 1810,2936 1810,2925 1811,2924 1811,2913 1810,2912 1810,2905 1811,2904 1811,2881 1810,2880 1810,2863 1809,2862 1809,2811 1810,2810 1810,2782 1809,2781 1809,2754 1810,2753 1810,2731 1809,2730 1809,2722 1810,2721 1810,2689 1809,2688 1809,2628 1808,2627 1808,2612 1807,2611 1807,2608 1808,2607 1808,2594 1807,2593 1807,2591 1804,2588 1803,2588 1802,2587 1801,2587 1800,2586 1797,2586 1796,2585 1793,2585 1792,2586 1783,2586 1782,2585 1772,2585 1771,2586 1755,2586 1754,2585 1742,2585 1741,2586 1705,2586 1704,2585 1700,2585 1699,2586 1683,2586 1682,2587 1657,2587 1656,2586 1651,2586 1650,2587 1610,2587 1609,2586 1601,2586 1600,2587 1553,2587 1552,2586 1529,2586 1528,2585 1520,2585 1519,2586 1507,2586 1506,2585 1501,2585 1500,2584" fill="rgba(243,63,248,0.3)" stroke="rgb(243,63,248)" stroke-width="2" data-block-id="0017" data-name="b-0019" /><text x="1601" y="2845" text-anchor="middle" dominant-baseline="middle" class="block-label" fill="rgb(243,63,248)" stroke="white" stroke-width="3" paint-order="stroke">b-0019</text><polygon points="987,2587 986,2588 981,2588 980,2589 975,2589 974,2590 972,2590 971,2591 969,2591 964,2596 964,2614 965,2615 965,2626 964,2627 964,2632 963,2633 963,2638 964,2639 964,2651 965,2652 965,2690 966,2691 965,2692 965,2705 964,2706 964,2713 965,2714 965,2718 964,2719 964,2745 965,2746 965,2766 964,2767 964,2779 965,2780 965,2878 964,2879 964,2913 965,2914 965,2930 964,2931 964,2953 965,2954 965,2988 964,2989 964,2995 965,2996 965,3032 964,3033 964,3050 965,3051 965,3061 966,3062 966,3073 965,3074 966,3075 966,3131 967,3132 967,3135 968,3136 968,3137 970,3139 971,3139 972,3140 973,3140 974,3141 976,3141 977,3142 980,3142 981,3143 983,3143 984,3144 990,3144 991,3145 1002,3145 1003,3146 1016,3146 1017,3147 1021,3147 1022,3146 1025,3146 1026,3145 1030,3145 1031,3144 1043,3144 1044,3145 1050,3145 1051,3144 1058,3144 1059,3145 1102,3145 1103,3144 1106,3144 1107,3145 1122,3145 1123,3144 1141,3144 1142,3145 1143,3145 1144,3144 1152,3144 1153,3145 1173,3145 1174,3144 1198,3144 1199,3143 1206,3143 1207,3144 1221,3144 1222,3143 1227,3143 1228,3144 1238,3144 1239,3143 1257,3143 1258,3144 1269,3144 1270,3145 1281,3145 1282,3144 1303,3144 1304,3145 1315,3145 1316,3144 1323,3144 1324,3143 1327,3143 1328,3142 1331,3142 1332,3141 1333,3141 1334,3140 1335,3140 1336,3139 1336,3138 1337,3137 1337,3136 1338,3135 1338,3108 1339,3107 1339,3099 1340,3098 1340,3081 1339,3080 1339,3038 1338,3037 1338,3006 1339,3005 1339,2985 1338,2984 1338,2959 1339,2958 1339,2925 1338,2924 1338,2919 1339,2918 1339,2891 1338,2890 1338,2863 1339,2862 1339,2829 1338,2828 1338,2823 1339,2822 1339,2771 1338,2770 1338,2748 1339,2747 1339,2733 1340,2732 1340,2720 1341,2719 1341,2715 1340,2714 1340,2683 1339,2682 1339,2678 1340,2677 1340,2664 1339,2663 1339,2654 1340,2653 1340,2639 1339,2638 1339,2627 1340,2626 1340,2618 1339,2617 1339,2596 1338,2595 1338,2594 1334,2590 1332,2590 1331,2589 1328,2589 1327,2588 1323,2588 1322,2587 1317,2587 1316,2588 1310,2588 1309,2589 1303,2589 1302,2588 1290,2588 1289,2589 1283,2589 1282,2588 1275,2588 1274,2587 1269,2587 1268,2588 1227,2588 1226,2587 1222,2587 1221,2588 1203,2588 1202,2587 1195,2587 1194,2588 1185,2588 1184,2587 1168,2587 1167,2588 1163,2588 1162,2587 1145,2587 1144,2588 1133,2588 1132,2587 1125,2587 1124,2588 1112,2588 1111,2587 1099,2587 1098,2588 1089,2588 1088,2587 1076,2587 1075,2588 1058,2588 1057,2587 1053,2587 1052,2588 1010,2588 1009,2589 995,2589 994,2588 988,2588" fill="rgba(130,228,50,0.3)" stroke="rgb(130,228,50)" stroke-width="2" data-block-id="0018" data-name="b-0020" /><text x="1155" y="2863" text-anchor="middle" dominant-baseline="middle" class="block-label" fill="rgb(130,228,50)" stroke="white" stroke-width="3" paint-order="stroke">b-0020</text><polygon points="2200,2583 2199,2584 2152,2584 2151,2585 2097,2585 2096,2584 2068,2584 2067,2585 2063,2585 2062,2586 2042,2586 2041,2585 2030,2585 2029,2586 2002,2586 2001,2585 1921,2585 1920,2584 1919,2584 1918,2585 1915,2585 1914,2586 1913,2586 1910,2589 1910,2590 1909,2591 1909,2595 1908,2596 1908,2658 1909,2659 1909,2683 1908,2684 1908,2707 1909,2708 1909,2718 1908,2719 1908,2724 1907,2725 1907,2740 1908,2741 1908,2806 1909,2807 1909,2828 1908,2829 1908,2844 1909,2845 1909,2868 1908,2869 1908,2904 1909,2905 1909,2914 1908,2915 1908,2944 1909,2945 1909,3044 1910,3045 1910,3082 1909,3083 1909,3090 1910,3091 1910,3108 1909,3109 1909,3128 1910,3129 1910,3134 1911,3135 1911,3136 1914,3139 1915,3139 1916,3140 1918,3140 1919,3141 1925,3141 1926,3142 1936,3142 1937,3141 1954,3141 1955,3140 1967,3140 1968,3141 1974,3141 1975,3142 1980,3142 1981,3141 1989,3141 1990,3140 2010,3140 2011,3139 2020,3139 2021,3140 2027,3140 2028,3139 2047,3139 2048,3140 2056,3140 2057,3141 2068,3141 2069,3140 2100,3140 2101,3139 2146,3139 2147,3140 2153,3140 2154,3141 2162,3141 2163,3140 2196,3140 2197,3139 2232,3139 2233,3140 2251,3140 2252,3141 2265,3141 2266,3140 2270,3140 2271,3139 2275,3139 2276,3138 2277,3138 2278,3137 2279,3137 2280,3136 2280,3135 2281,3134 2281,3133 2282,3132 2282,3127 2283,3126 2283,3111 2282,3110 2282,3080 2283,3079 2283,3069 2282,3068 2282,2983 2281,2982 2281,2981 2282,2980 2282,2938 2283,2937 2283,2905 2282,2904 2282,2894 2283,2893 2283,2860 2282,2859 2282,2841 2283,2840 2283,2834 2282,2833 2282,2823 2281,2822 2281,2796 2282,2795 2282,2768 2281,2767 2281,2763 2282,2762 2282,2728 2281,2727 2281,2696 2282,2695 2282,2667 2281,2666 2281,2651 2282,2650 2282,2637 2281,2636 2281,2628 2280,2627 2280,2593 2279,2592 2279,2588 2278,2587 2278,2586 2276,2584 2275,2584 2274,2583 2221,2583 2220,2584 2211,2584 2210,2583" fill="rgba(134,20,72,0.3)" stroke="rgb(134,20,72)" stroke-width="2" data-block-id="0019" data-name="b-0021" /><text x="2099" y="2896" text-anchor="middle" dominant-baseline="middle" class="block-label" fill="rgb(134,20,72)" stroke="white" stroke-width="3" paint-order="stroke">b-0021</text><polygon points="2601,2580 2600,2581 2572,2581 2571,2582 2553,2582 2552,2583 2545,2583 2544,2582 2521,2582 2520,2583 2497,2583 2496,2584 2492,2584 2491,2585 2484,2585 2483,2584 2475,2584 2474,2585 2468,2585 2467,2586 2432,2586 2431,2585 2428,2585 2427,2586 2407,2586 2406,2585 2404,2585 2403,2586 2391,2586 2390,2587 2381,2587 2378,2590 2378,2591 2377,2592 2377,2593 2376,2594 2376,2597 2375,2598 2375,2601 2376,2602 2376,2617 2377,2618 2377,2628 2376,2629 2376,2648 2377,2649 2377,2700 2378,2701 2378,2710 2379,2711 2379,2721 2378,2722 2378,2727 2377,2728 2377,2745 2378,2746 2378,2782 2377,2783 2377,2791 2378,2792 2378,2825 2377,2826 2377,2832 2376,2833 2376,2844 2377,2845 2377,2868 2378,2869 2378,2879 2377,2880 2377,2891 2378,2892 2378,2961 2379,2962 2379,2977 2378,2978 2378,2982 2379,2983 2379,3046 2378,3047 2378,3060 2379,3061 2379,3123 2380,3124 2380,3128 2381,3129 2381,3130 2382,3131 2382,3132 2383,3133 2383,3134 2385,3136 2386,3136 2387,3137 2389,3137 2390,3138 2392,3138 2393,3139 2436,3139 2437,3138 2444,3138 2445,3139 2482,3139 2483,3138 2498,3138 2499,3137 2520,3137 2521,3136 2559,3136 2560,3135 2564,3135 2565,3134 2571,3134 2572,3133 2580,3133 2581,3132 2611,3132 2612,3133 2621,3133 2622,3134 2634,3134 2635,3135 2669,3135 2670,3136 2703,3136 2704,3135 2706,3135 2707,3136 2733,3136 2734,3135 2739,3135 2741,3133 2742,3133 2742,3132 2744,3130 2744,3129 2745,3128 2745,3127 2746,3126 2746,3115 2745,3114 2745,3088 2744,3087 2744,3036 2745,3035 2745,3025 2744,3024 2744,3008 2745,3007 2745,2987 2744,2986 2744,2974 2745,2973 2745,2928 2744,2927 2744,2858 2743,2857 2743,2794 2744,2793 2744,2775 2743,2774 2743,2767 2742,2766 2742,2721 2741,2720 2741,2631 2740,2630 2740,2590 2739,2589 2739,2587 2736,2584 2735,2584 2734,2583 2732,2583 2731,2582 2728,2582 2727,2581 2721,2581 2720,2580 2709,2580 2708,2581 2700,2581 2699,2580 2684,2580 2683,2581 2677,2581 2676,2580 2664,2580 2663,2581 2658,2581 2657,2582 2639,2582 2638,2581 2619,2581 2618,2580" fill="rgba(88,59,13,0.3)" stroke="rgb(88,59,13)" stroke-width="2" data-block-id="0020" data-name="b-0024" /><text x="2543" y="2842" text-anchor="middle" dominant-baseline="middle" class="block-label" fill="rgb(88,59,13)" stroke="white" stroke-width="3" paint-order="stroke">b-0024</text><polygon points="3036,2579 3035,2580 3031,2580 3030,2581 3018,2581 3017,2582 3013,2582 3012,2581 2976,2581 2975,2582 2937,2582 2936,2583 2930,2583 2929,2582 2922,2582 2921,2581 2912,2581 2911,2582 2905,2582 2904,2581 2886,2581 2885,2582 2880,2582 2879,2581 2866,2581 2865,2582 2855,2582 2854,2581 2846,2581 2845,2582 2841,2582 2840,2583 2838,2583 2837,2584 2836,2584 2833,2587 2833,2592 2832,2593 2832,2652 2833,2653 2833,2659 2832,2660 2832,2674 2831,2675 2831,2688 2832,2689 2832,2719 2831,2720 2831,2731 2830,2732 2830,2744 2831,2745 2831,2749 2832,2750 2832,2758 2831,2759 2831,2774 2832,2775 2832,2783 2831,2784 2831,2790 2832,2791 2832,2807 2831,2808 2831,2846 2832,2847 2832,2882 2831,2883 2832,2884 2832,2891 2833,2892 2833,2919 2832,2920 2832,2935 2833,2936 2833,2939 2834,2940 2834,2958 2835,2959 2835,2964 2836,2965 2836,2968 2835,2969 2835,2971 2834,2972 2834,2974 2833,2975 2833,2979 2832,2980 2832,2982 2833,2983 2833,2990 2834,2991 2834,2995 2833,2996 2833,3010 2834,3011 2834,3021 2833,3022 2833,3056 2834,3057 2834,3072 2833,3073 2833,3094 2834,3095 2834,3101 2835,3102 2835,3103 2836,3104 2836,3105 2837,3106 2837,3107 2838,3108 2839,3108 2840,3109 2842,3109 2843,3110 2846,3110 2847,3111 2860,3111 2861,3112 2881,3112 2882,3113 2890,3113 2891,3114 2895,3114 2896,3115 2915,3115 2916,3114 2920,3114 2921,3113 2923,3113 2924,3112 2926,3112 2927,3111 2931,3111 2932,3110 2952,3110 2953,3109 2964,3109 2965,3110 2989,3110 2990,3111 3082,3111 3083,3112 3092,3112 3093,3111 3113,3111 3114,3110 3160,3110 3161,3111 3166,3111 3167,3112 3187,3112 3188,3113 3196,3113 3197,3112 3201,3112 3202,3111 3204,3111 3205,3110 3205,3109 3207,3107 3207,3104 3208,3103 3208,3045 3209,3044 3209,3039 3208,3038 3208,3006 3207,3005 3207,3001 3208,3000 3208,2979 3207,2978 3207,2973 3206,2972 3206,2970 3205,2969 3205,2950 3206,2949 3206,2942 3207,2941 3207,2937 3208,2936 3208,2913 3207,2912 3207,2840 3208,2839 3208,2833 3207,2832 3207,2819 3206,2818 3206,2794 3207,2793 3207,2784 3206,2783 3206,2767 3207,2766 3207,2764 3206,2763 3206,2746 3207,2745 3207,2738 3206,2737 3206,2724 3207,2723 3207,2708 3206,2707 3206,2705 3207,2704 3207,2650 3208,2649 3208,2641 3207,2640 3207,2617 3206,2616 3206,2590 3205,2589 3205,2586 3204,2585 3204,2584 3203,2584 3202,2583 3201,2583 3200,2582 3198,2582 3197,2581 3193,2581 3192,2580 3187,2580 3186,2579 3177,2579 3176,2580 3151,2580 3150,2579 3120,2579 3119,2580 3073,2580 3072,2581 3065,2581 3064,2582 3061,2582 3060,2581 3057,2581 3056,2580 3053,2580 3052,2579" fill="rgba(241,249,8,0.3)" stroke="rgb(241,249,8)" stroke-width="2" data-block-id="0021" data-name="b-0025" /><text x="3000" y="2844" text-anchor="middle" dominant-baseline="middle" class="block-label" fill="rgb(241,249,8)" stroke="white" stroke-width="3" paint-order="stroke">b-0025</text><polygon points="3526,2614 3525,2615 3520,2615 3519,2616 3442,2616 3441,2615 3428,2615 3427,2616 3415,2616 3414,2615 3404,2615 3403,2616 3397,2616 3396,2617 3378,2617 3377,2616 3361,2616 3360,2615 3359,2615 3358,2616 3343,2616 3342,2615 3328,2615 3327,2616 3310,2616 3309,2617 3302,2617 3301,2618 3300,2618 3299,2619 3298,2619 3297,2620 3297,2622 3296,2623 3296,2632 3297,2633 3297,2752 3298,2753 3298,2762 3297,2763 3297,2764 3298,2765 3298,2780 3297,2781 3297,2791 3298,2792 3298,2798 3299,2799 3299,2808 3298,2809 3298,2845 3299,2846 3299,2878 3298,2879 3298,2942 3299,2943 3299,2946 3298,2947 3298,2963 3299,2964 3299,3079 3300,3080 3300,3082 3301,3083 3301,3084 3303,3086 3306,3086 3307,3087 3326,3087 3327,3086 3340,3086 3341,3087 3355,3087 3356,3086 3397,3086 3398,3087 3399,3087 3400,3086 3411,3086 3412,3087 3428,3087 3429,3088 3434,3088 3435,3087 3440,3087 3441,3086 3491,3086 3492,3085 3503,3085 3504,3086 3539,3086 3540,3085 3611,3085 3612,3086 3632,3086 3633,3085 3636,3085 3637,3086 3642,3086 3643,3087 3658,3087 3659,3086 3663,3086 3664,3085 3666,3085 3667,3084 3669,3084 3671,3082 3672,3082 3673,3081 3673,3080 3675,3078 3675,3075 3676,3074 3676,3072 3675,3071 3675,3048 3674,3047 3674,3033 3675,3032 3675,3024 3674,3023 3674,2983 3675,2982 3675,2978 3674,2977 3674,2938 3675,2937 3675,2926 3674,2925 3674,2900 3673,2899 3673,2895 3674,2894 3674,2887 3675,2886 3675,2880 3674,2879 3674,2842 3675,2841 3675,2830 3674,2829 3674,2817 3675,2816 3675,2810 3674,2809 3674,2794 3675,2793 3675,2783 3674,2782 3674,2755 3673,2754 3673,2750 3674,2749 3674,2737 3673,2736 3673,2721 3674,2720 3674,2686 3673,2685 3673,2651 3672,2650 3672,2634 3671,2633 3671,2628 3670,2627 3670,2624 3669,2623 3669,2621 3668,2620 3668,2619 3666,2617 3665,2617 3664,2616 3662,2616 3661,2615 3653,2615 3652,2614 3642,2614 3641,2615 3593,2615 3592,2616 3584,2616 3583,2615 3568,2615 3567,2616 3562,2616 3561,2615 3543,2615 3542,2616 3541,2616 3540,2615 3532,2615 3531,2614" fill="rgba(83,91,110,0.3)" stroke="rgb(83,91,110)" stroke-width="2" data-block-id="0022" data-name="b-0027" /><text x="3513" y="2835" text-anchor="middle" dominant-baseline="middle" class="block-label" fill="rgb(83,91,110)" stroke="white" stroke-width="3" paint-order="stroke">b-0027</text><polygon points="4123,2613 4122,2614 4092,2614 4091,2615 4088,2615 4087,2614 4070,2614 4069,2615 3982,2615 3981,2616 3980,2616 3979,2615 3953,2615 3952,2616 3949,2616 3948,2617 3915,2617 3914,2616 3906,2616 3905,2617 3878,2617 3877,2618 3869,2618 3868,2617 3835,2617 3834,2618 3828,2618 3827,2619 3821,2619 3820,2618 3812,2618 3811,2619 3798,2619 3797,2618 3791,2618 3790,2619 3789,2619 3787,2621 3787,2622 3786,2623 3786,2624 3787,2625 3787,2637 3786,2638 3786,2645 3785,2646 3785,2647 3784,2648 3784,2650 3783,2651 3783,2655 3782,2656 3782,2670 3783,2671 3783,2712 3782,2713 3782,2719 3783,2720 3783,2729 3784,2730 3784,2771 3785,2772 3785,2842 3786,2843 3786,2853 3785,2854 3785,2871 3786,2872 3786,2922 3785,2923 3785,2936 3786,2937 3786,2941 3787,2942 3787,2949 3786,2950 3786,2961 3787,2962 3787,3077 3788,3078 3788,3079 3789,3080 3789,3081 3790,3082 3791,3082 3792,3083 3793,3083 3794,3084 3804,3084 3805,3085 3819,3085 3820,3084 3845,3084 3846,3083 3859,3083 3860,3084 3866,3084 3867,3083 3920,3083 3921,3082 3925,3082 3926,3083 3939,3083 3940,3082 3965,3082 3966,3083 3985,3083 3986,3082 3994,3082 3995,3081 4011,3081 4012,3080 4035,3080 4036,3081 4059,3081 4060,3080 4076,3080 4077,3081 4108,3081 4109,3080 4128,3080 4129,3081 4145,3081 4146,3082 4148,3082 4149,3081 4151,3081 4152,3080 4153,3080 4154,3079 4155,3079 4159,3075 4159,3068 4160,3067 4160,3058 4159,3057 4159,2996 4158,2995 4158,2972 4157,2971 4157,2967 4156,2966 4156,2947 4157,2946 4157,2929 4156,2928 4156,2905 4155,2904 4155,2892 4156,2891 4156,2862 4155,2861 4155,2848 4154,2847 4155,2846 4155,2827 4154,2826 4154,2821 4155,2820 4155,2811 4154,2810 4154,2773 4153,2772 4153,2754 4154,2753 4154,2719 4153,2718 4153,2676 4152,2675 4152,2639 4151,2638 4151,2629 4150,2628 4150,2622 4149,2621 4149,2619 4148,2618 4148,2617 4146,2615 4145,2615 4144,2614 4143,2614 4142,2613" fill="rgba(187,198,171,0.3)" stroke="rgb(187,198,171)" stroke-width="2" data-block-id="0023" data-name="b-0028" /><text x="3968" y="2840" text-anchor="middle" dominant-baseline="middle" class="block-label" fill="rgb(187,198,171)" stroke="white" stroke-width="3" paint-order="stroke">b-0028</text><polygon points="4135,1914 4134,1915 4125,1915 4124,1916 4095,1916 4094,1915 4085,1915 4084,1916 4059,1916 4058,1917 4049,1917 4048,1916 4039,1916 4038,1917 3999,1917 3998,1916 3991,1916 3990,1917 3986,1917 3985,1918 3979,1918 3978,1917 3976,1917 3975,1916 3972,1916 3971,1915 3945,1915 3944,1916 3918,1916 3917,1917 3907,1917 3906,1916 3890,1916 3889,1917 3884,1917 3883,1916 3854,1916 3853,1915 3849,1915 3848,1916 3795,1916 3794,1917 3787,1917 3786,1918 3782,1918 3781,1919 3780,1919 3778,1921 3778,1922 3777,1923 3777,1925 3776,1926 3776,1932 3777,1933 3777,1944 3778,1945 3778,1958 3777,1959 3777,1987 3778,1988 3778,2003 3779,2004 3779,2014 3778,2015 3778,2017 3777,2018 3777,2031 3778,2032 3778,2046 3779,2047 3779,2051 3778,2052 3778,2072 3779,2073 3779,2081 3780,2082 3780,2095 3779,2096 3779,2103 3778,2104 3778,2126 3779,2127 3779,2174 3780,2175 3780,2285 3781,2286 3781,2330 3780,2331 3780,2338 3781,2339 3781,2352 3780,2353 3780,2363 3781,2364 3781,2373 3782,2374 3782,2376 3785,2379 3788,2379 3789,2380 3799,2380 3800,2381 3806,2381 3807,2380 3841,2380 3842,2381 3854,2381 3855,2380 3859,2380 3860,2379 3894,2379 3895,2380 3901,2380 3902,2379 3937,2379 3938,2378 3963,2378 3964,2379 3980,2379 3981,2380 3983,2380 3984,2379 4070,2379 4071,2380 4093,2380 4094,2379 4108,2379 4109,2378 4140,2378 4141,2377 4144,2377 4145,2376 4147,2376 4150,2373 4150,2372 4151,2371 4151,2368 4152,2367 4152,2362 4153,2361 4153,2353 4152,2352 4152,2306 4151,2305 4151,2299 4150,2298 4150,2285 4151,2284 4151,2264 4150,2263 4150,2254 4149,2253 4149,2248 4150,2247 4150,2209 4149,2208 4149,2200 4150,2199 4150,2171 4151,2170 4151,2164 4150,2163 4150,2144 4151,2143 4151,2139 4150,2138 4150,2128 4151,2127 4151,2117 4150,2116 4150,2100 4151,2099 4151,2094 4150,2093 4150,2091 4149,2090 4149,2089 4148,2088 4148,2087 4146,2085 4146,2084 4145,2083 4145,2082 4146,2081 4146,2079 4147,2078 4147,2076 4148,2075 4148,2054 4147,2053 4147,2034 4148,2033 4148,2028 4149,2027 4149,2020 4148,2019 4148,2015 4147,2014 4147,2010 4148,2009 4148,2004 4149,2003 4149,1995 4148,1994 4148,1979 4149,1978 4149,1977 4148,1976 4148,1966 4147,1965 4147,1939 4148,1938 4148,1926 4147,1925 4147,1923 4146,1922 4146,1921 4145,1920 4145,1919 4142,1916 4141,1916 4140,1915 4138,1915 4137,1914" fill="rgba(252,7,174,0.3)" stroke="rgb(252,7,174)" stroke-width="2" data-block-id="0024" data-name="b-0029" /><text x="3994" y="2110" text-anchor="middle" dominant-baseline="middle" class="block-label" fill="rgb(252,7,174)" stroke="white" stroke-width="3" paint-order="stroke">b-0029</text><polygon points="2876,2105 2875,2106 2837,2106 2836,2107 2834,2107 2832,2109 2831,2109 2831,2110 2830,2111 2830,2112 2829,2113 2829,2114 2828,2115 2828,2117 2827,2118 2827,2125 2828,2126 2828,2149 2829,2150 2829,2159 2828,2160 2828,2171 2829,2172 2829,2179 2830,2180 2830,2181 2829,2182 2829,2207 2828,2208 2828,2219 2829,2220 2829,2227 2830,2228 2830,2231 2829,2232 2829,2257 2828,2258 2828,2266 2829,2267 2829,2295 2830,2296 2830,2297 2829,2298 2829,2337 2830,2338 2830,2343 2831,2344 2831,2350 2830,2351 2830,2433 2831,2434 2831,2448 2830,2449 2830,2459 2831,2460 2831,2472 2830,2473 2830,2480 2831,2481 2831,2484 2832,2485 2832,2486 2833,2487 2833,2488 2836,2491 2840,2491 2841,2492 2852,2492 2853,2493 2860,2493 2861,2492 2873,2492 2874,2491 2888,2491 2889,2492 2891,2492 2892,2493 2893,2493 2894,2494 2900,2494 2901,2493 2906,2493 2907,2492 2910,2492 2911,2491 2926,2491 2927,2492 2935,2492 2936,2493 2949,2493 2950,2492 2957,2492 2958,2491 2964,2491 2965,2490 2969,2490 2970,2491 2983,2491 2984,2492 3003,2492 3004,2491 3007,2491 3008,2490 3012,2490 3013,2489 3059,2489 3060,2488 3063,2488 3064,2489 3069,2489 3070,2490 3101,2490 3102,2489 3106,2489 3107,2488 3116,2488 3117,2489 3127,2489 3128,2488 3140,2488 3141,2489 3151,2489 3152,2488 3162,2488 3163,2489 3166,2489 3167,2490 3177,2490 3178,2489 3192,2489 3193,2488 3195,2488 3196,2487 3198,2487 3200,2485 3201,2485 3204,2482 3204,2481 3205,2480 3205,2478 3206,2477 3206,2458 3205,2457 3205,2427 3206,2426 3206,2414 3205,2413 3205,2320 3206,2319 3206,2302 3205,2301 3205,2292 3206,2291 3206,2284 3205,2283 3205,2270 3206,2269 3206,2263 3207,2262 3206,2261 3206,2256 3205,2255 3205,2230 3204,2229 3204,2226 3205,2225 3205,2219 3206,2218 3206,2211 3205,2210 3205,2203 3204,2202 3204,2200 3205,2199 3205,2186 3204,2185 3204,2173 3205,2172 3205,2167 3204,2166 3204,2163 3203,2162 3203,2160 3202,2159 3202,2158 3201,2157 3201,2155 3200,2154 3201,2153 3201,2150 3202,2149 3202,2147 3203,2146 3203,2136 3202,2135 3202,2120 3201,2119 3201,2117 3200,2116 3200,2115 3199,2114 3199,2113 3198,2112 3198,2111 3197,2110 3197,2109 3196,2109 3195,2108 3192,2108 3191,2107 3177,2107 3176,2106 3168,2106 3167,2107 3147,2107 3146,2108 3116,2108 3115,2109 3094,2109 3093,2108 3070,2108 3069,2109 3046,2109 3045,2108 3035,2108 3034,2107 3028,2107 3027,2106 3023,2106 3022,2107 3013,2107 3012,2106 3009,2106 3008,2105" fill="rgba(131,1,253,0.3)" stroke="rgb(131,1,253)" stroke-width="2" data-block-id="0025" data-name="b-0032" /><text x="3030" y="2305" text-anchor="middle" dominant-baseline="middle" class="block-label" fill="rgb(131,1,253)" stroke="white" stroke-width="3" paint-order="stroke">b-0032</text><polygon points="1593,2114 1592,2115 1589,2115 1588,2116 1582,2116 1581,2117 1580,2116 1570,2116 1569,2117 1561,2117 1560,2118 1483,2118 1482,2117 1457,2117 1456,2116 1448,2116 1447,2117 1440,2117 1439,2118 1438,2118 1435,2121 1435,2123 1434,2124 1434,2129 1433,2130 1433,2152 1434,2153 1434,2174 1435,2175 1435,2211 1436,2212 1436,2271 1435,2272 1435,2283 1436,2284 1436,2319 1435,2320 1435,2332 1434,2333 1434,2337 1435,2338 1435,2350 1436,2351 1436,2393 1435,2394 1435,2406 1436,2407 1436,2415 1437,2416 1437,2422 1436,2423 1436,2454 1435,2455 1435,2488 1436,2489 1436,2490 1437,2491 1437,2492 1438,2493 1439,2493 1440,2494 1444,2494 1445,2495 1460,2495 1461,2494 1471,2494 1472,2493 1483,2493 1484,2492 1492,2492 1493,2493 1504,2493 1505,2492 1509,2492 1510,2491 1530,2491 1531,2492 1630,2492 1631,2493 1640,2493 1641,2494 1645,2494 1646,2495 1648,2495 1649,2496 1651,2496 1652,2497 1654,2497 1655,2496 1656,2496 1657,2495 1658,2495 1659,2494 1661,2494 1662,2493 1666,2493 1667,2492 1668,2492 1669,2493 1682,2493 1683,2494 1698,2494 1699,2495 1705,2495 1706,2494 1742,2494 1743,2495 1754,2495 1755,2496 1759,2496 1760,2497 1786,2497 1787,2496 1790,2496 1791,2495 1794,2495 1795,2494 1798,2494 1799,2493 1802,2493 1803,2492 1806,2492 1807,2491 1808,2491 1808,2490 1809,2489 1809,2471 1808,2470 1808,2448 1809,2447 1809,2346 1810,2345 1810,2330 1809,2329 1809,2315 1810,2314 1810,2278 1809,2277 1809,2272 1810,2271 1810,2243 1811,2242 1811,2239 1810,2238 1810,2231 1809,2230 1809,2223 1810,2222 1810,2202 1811,2201 1811,2187 1810,2186 1810,2171 1811,2170 1811,2163 1810,2162 1810,2152 1811,2151 1811,2148 1812,2147 1812,2139 1811,2138 1811,2135 1810,2134 1810,2128 1809,2127 1809,2122 1808,2121 1808,2119 1806,2117 1805,2117 1804,2116 1803,2116 1802,2115 1798,2115 1797,2114 1779,2114 1778,2115 1771,2115 1770,2114 1686,2114 1685,2115 1637,2115 1636,2114 1627,2114 1626,2115 1622,2115 1621,2116 1607,2116 1606,2115 1600,2115 1599,2114" fill="rgba(133,53,105,0.3)" stroke="rgb(133,53,105)" stroke-width="2" data-block-id="0026" data-name="b-0033" /><text x="1636" y="2315" text-anchor="middle" dominant-baseline="middle" class="block-label" fill="rgb(133,53,105)" stroke="white" stroke-width="3" paint-order="stroke">b-0033</text><polygon points="2035,2112 2034,2113 2030,2113 2029,2114 1997,2114 1996,2113 1984,2113 1983,2114 1951,2114 1950,2113 1936,2113 1935,2114 1916,2114 1915,2115 1914,2115 1913,2116 1912,2116 1908,2120 1908,2122 1907,2123 1907,2125 1906,2126 1906,2128 1905,2129 1905,2143 1906,2144 1906,2149 1907,2150 1907,2157 1908,2158 1908,2192 1909,2193 1909,2198 1910,2199 1910,2208 1911,2209 1911,2216 1910,2217 1910,2221 1909,2222 1909,2232 1910,2233 1910,2239 1911,2240 1911,2241 1910,2242 1910,2258 1911,2259 1911,2284 1912,2285 1912,2290 1911,2291 1911,2302 1912,2303 1912,2308 1913,2309 1913,2311 1912,2312 1912,2314 1911,2315 1911,2317 1910,2318 1910,2319 1909,2320 1909,2327 1910,2328 1910,2331 1911,2332 1911,2340 1910,2341 1910,2354 1911,2355 1911,2360 1910,2361 1910,2366 1909,2367 1909,2375 1910,2376 1910,2408 1909,2409 1909,2414 1908,2415 1908,2426 1909,2427 1909,2466 1908,2467 1908,2470 1909,2471 1909,2485 1910,2486 1910,2489 1912,2491 1913,2491 1914,2492 1915,2492 1916,2493 1926,2493 1927,2494 1928,2494 1929,2493 1932,2493 1933,2492 1935,2492 1936,2491 1938,2491 1939,2490 1940,2490 1941,2489 1943,2489 1944,2490 1946,2490 1947,2491 1950,2491 1951,2492 1983,2492 1984,2491 1993,2491 1994,2492 2024,2492 2025,2491 2052,2491 2053,2490 2055,2490 2056,2489 2058,2489 2059,2488 2060,2488 2061,2489 2062,2489 2063,2490 2064,2490 2066,2492 2067,2492 2068,2493 2069,2493 2070,2494 2079,2494 2080,2493 2092,2493 2093,2492 2096,2492 2097,2493 2101,2493 2102,2494 2105,2494 2106,2495 2132,2495 2133,2494 2141,2494 2142,2493 2144,2493 2145,2494 2150,2494 2151,2495 2154,2495 2155,2496 2161,2496 2162,2495 2170,2495 2171,2494 2175,2494 2176,2493 2198,2493 2199,2494 2211,2494 2212,2493 2228,2493 2229,2492 2245,2492 2246,2493 2262,2493 2263,2492 2268,2492 2269,2491 2273,2491 2274,2490 2276,2490 2277,2489 2278,2489 2280,2487 2280,2485 2281,2484 2281,2478 2282,2477 2282,2473 2281,2472 2281,2420 2282,2419 2282,2381 2281,2380 2281,2373 2280,2372 2280,2368 2281,2367 2281,2341 2280,2340 2280,2337 2279,2336 2279,2330 2280,2329 2280,2314 2281,2313 2281,2297 2280,2296 2280,2292 2279,2291 2279,2286 2278,2285 2279,2284 2279,2256 2280,2255 2280,2250 2279,2249 2279,2233 2280,2232 2280,2182 2279,2181 2279,2180 2280,2179 2280,2139 2281,2138 2281,2123 2280,2122 2280,2119 2279,2118 2279,2117 2277,2115 2276,2115 2275,2114 2245,2114 2244,2113 2232,2113 2231,2112 2226,2112 2225,2113 2220,2113 2219,2114 2213,2114 2212,2113 2186,2113 2185,2112 2178,2112 2177,2113 2172,2113 2171,2114 2145,2114 2144,2113 2136,2113 2135,2112 2131,2112 2130,2113 2124,2113 2123,2114 2117,2114 2116,2113 2108,2113 2107,2112 2078,2112 2077,2113 2069,2113 2068,2114 2063,2114 2062,2115 2061,2115 2060,2114 2053,2114 2052,2113 2042,2113 2041,2112" fill="rgba(3,53,220,0.3)" stroke="rgb(3,53,220)" stroke-width="2" data-block-id="0027" data-name="b-0034" /><text x="2072" y="2318" text-anchor="middle" dominant-baseline="middle" class="block-label" fill="rgb(3,53,220)" stroke="white" stroke-width="3" paint-order="stroke">b-0034</text><polygon points="1154,2117 1153,2118 1149,2118 1148,2119 1144,2119 1143,2120 1135,2120 1134,2119 1114,2119 1113,2120 1098,2120 1097,2119 1090,2119 1089,2120 971,2120 970,2121 968,2121 965,2124 965,2126 964,2127 964,2146 963,2147 963,2150 962,2151 962,2160 963,2161 963,2168 964,2169 964,2196 965,2197 965,2206 966,2207 966,2242 965,2243 965,2261 966,2262 966,2445 965,2446 965,2460 964,2461 964,2478 965,2479 965,2485 966,2486 966,2488 967,2489 967,2490 969,2492 970,2492 971,2493 972,2493 973,2494 981,2494 982,2495 1022,2495 1023,2494 1088,2494 1089,2495 1102,2495 1103,2494 1149,2494 1150,2495 1157,2495 1158,2494 1197,2494 1198,2493 1209,2493 1210,2492 1231,2492 1232,2493 1243,2493 1244,2492 1332,2492 1333,2491 1334,2491 1335,2490 1336,2490 1337,2489 1337,2488 1338,2487 1338,2483 1339,2482 1339,2460 1338,2459 1338,2447 1339,2446 1339,2440 1338,2439 1338,2388 1339,2387 1339,2345 1340,2344 1340,2289 1339,2288 1339,2242 1338,2241 1338,2237 1339,2236 1339,2186 1340,2185 1340,2162 1341,2161 1341,2145 1340,2144 1340,2142 1341,2141 1341,2129 1340,2128 1340,2122 1337,2119 1336,2119 1335,2118 1225,2118 1224,2119 1220,2119 1219,2118 1208,2118 1207,2119 1192,2119 1191,2118 1156,2118 1155,2117" fill="rgba(190,145,217,0.3)" stroke="rgb(190,145,217)" stroke-width="2" data-block-id="0028" data-name="b-0035" /><text x="1153" y="2301" text-anchor="middle" dominant-baseline="middle" class="block-label" fill="rgb(190,145,217)" stroke="white" stroke-width="3" paint-order="stroke">b-0035</text><polygon points="2505,2111 2504,2112 2459,2112 2458,2113 2442,2113 2441,2114 2428,2114 2427,2113 2411,2113 2410,2114 2401,2114 2400,2113 2385,2113 2384,2114 2380,2114 2379,2115 2378,2115 2377,2116 2376,2116 2375,2117 2375,2118 2374,2119 2374,2129 2373,2130 2373,2149 2374,2150 2374,2312 2373,2313 2373,2343 2374,2344 2374,2442 2375,2443 2375,2446 2374,2447 2374,2474 2373,2475 2373,2480 2374,2481 2374,2486 2375,2487 2375,2488 2381,2494 2382,2494 2383,2495 2384,2495 2385,2494 2402,2494 2403,2495 2404,2495 2405,2494 2412,2494 2413,2493 2426,2493 2427,2494 2468,2494 2469,2493 2498,2493 2499,2492 2509,2492 2510,2491 2515,2491 2516,2490 2565,2490 2566,2489 2573,2489 2574,2488 2590,2488 2591,2487 2601,2487 2602,2488 2613,2488 2614,2489 2633,2489 2634,2490 2651,2490 2652,2491 2732,2491 2733,2490 2735,2490 2736,2489 2737,2489 2739,2487 2739,2485 2740,2484 2740,2481 2741,2480 2741,2462 2740,2461 2740,2445 2741,2444 2741,2427 2742,2426 2742,2414 2741,2413 2741,2406 2740,2405 2740,2385 2741,2384 2741,2367 2740,2366 2740,2361 2739,2360 2739,2344 2740,2343 2740,2316 2739,2315 2739,2297 2740,2296 2740,2267 2739,2266 2739,2249 2740,2248 2740,2154 2741,2153 2741,2136 2742,2135 2742,2131 2741,2130 2741,2125 2740,2124 2740,2120 2739,2119 2739,2118 2738,2117 2738,2116 2736,2114 2735,2114 2734,2113 2731,2113 2730,2112 2593,2112 2592,2111 2569,2111 2568,2112 2549,2112 2548,2111 2532,2111 2531,2112 2521,2112 2520,2111" fill="rgba(189,227,13,0.3)" stroke="rgb(189,227,13)" stroke-width="2" data-block-id="0029" data-name="b-0037" /><text x="2566" y="2317" text-anchor="middle" dominant-baseline="middle" class="block-label" fill="rgb(189,227,13)" stroke="white" stroke-width="3" paint-order="stroke">b-0037</text><polygon points="675,2123 674,2124 670,2124 669,2125 667,2125 666,2126 663,2126 662,2127 654,2127 653,2128 611,2128 610,2129 606,2129 605,2130 599,2130 598,2129 592,2129 591,2128 579,2128 578,2127 566,2127 565,2128 558,2128 557,2129 553,2129 552,2128 514,2128 513,2129 506,2129 505,2130 501,2130 500,2131 497,2131 494,2134 494,2135 493,2136 493,2138 492,2139 492,2141 491,2142 491,2149 490,2150 490,2164 489,2165 489,2222 490,2223 490,2253 489,2254 489,2266 490,2267 490,2273 491,2274 491,2329 490,2330 490,2337 489,2338 489,2380 490,2381 490,2436 489,2437 489,2489 490,2490 490,2492 492,2494 493,2494 494,2495 496,2495 497,2496 513,2496 514,2497 522,2497 523,2498 530,2498 531,2499 536,2499 537,2498 570,2498 571,2499 583,2499 584,2498 587,2498 588,2497 619,2497 620,2496 667,2496 668,2495 690,2495 691,2496 695,2496 696,2497 699,2497 700,2498 701,2498 702,2497 711,2497 712,2498 716,2498 717,2499 720,2499 721,2500 722,2500 723,2499 727,2499 728,2498 730,2498 731,2497 734,2497 735,2496 743,2496 744,2495 788,2495 789,2496 805,2496 806,2495 812,2495 813,2496 836,2496 837,2495 856,2495 857,2494 858,2494 859,2493 860,2493 862,2491 862,2490 863,2489 863,2486 864,2485 864,2355 865,2354 865,2337 864,2336 864,2329 863,2328 863,2309 864,2308 864,2268 865,2267 865,2256 864,2255 864,2251 865,2250 865,2243 866,2242 866,2220 865,2219 865,2213 866,2212 866,2199 865,2198 865,2190 864,2189 864,2166 865,2165 865,2139 864,2138 864,2133 863,2132 863,2131 861,2129 861,2128 860,2128 857,2125 855,2125 854,2124 849,2124 848,2125 834,2125 833,2126 804,2126 803,2127 776,2127 775,2128 753,2128 752,2127 749,2127 748,2126 746,2126 745,2125 743,2125 742,2124 727,2124 726,2125 706,2125 705,2124 702,2124 701,2123 692,2123 691,2124 679,2124 678,2123" fill="rgba(94,47,14,0.3)" stroke="rgb(94,47,14)" stroke-width="2" data-block-id="0030" data-name="b-0038" /><text x="684" y="2292" text-anchor="middle" dominant-baseline="middle" class="block-label" fill="rgb(94,47,14)" stroke="white" stroke-width="3" paint-order="stroke">b-0038</text><polygon points="3444,2145 3443,2146 3440,2146 3439,2147 3437,2147 3436,2148 3434,2148 3433,2149 3403,2149 3402,2148 3350,2148 3349,2149 3306,2149 3305,2148 3302,2148 3301,2149 3298,2149 3297,2150 3296,2150 3293,2153 3293,2155 3292,2156 3292,2162 3293,2163 3293,2189 3294,2190 3294,2209 3293,2210 3293,2218 3294,2219 3294,2295 3295,2296 3295,2328 3294,2329 3294,2338 3295,2339 3295,2348 3296,2349 3296,2365 3295,2366 3295,2376 3296,2377 3296,2419 3300,2423 3301,2423 3302,2424 3304,2424 3305,2425 3309,2425 3310,2426 3323,2426 3324,2425 3380,2425 3381,2424 3391,2424 3392,2425 3425,2425 3426,2424 3430,2424 3431,2423 3473,2423 3474,2422 3482,2422 3483,2421 3523,2421 3524,2420 3571,2420 3572,2419 3579,2419 3580,2420 3585,2420 3586,2421 3619,2421 3620,2420 3638,2420 3639,2419 3645,2419 3646,2418 3661,2418 3666,2413 3666,2412 3667,2411 3667,2410 3668,2409 3668,2407 3669,2406 3669,2353 3668,2352 3668,2344 3669,2343 3669,2243 3668,2242 3668,2168 3669,2167 3669,2157 3668,2156 3668,2153 3665,2150 3664,2150 3663,2149 3661,2149 3660,2148 3656,2148 3655,2149 3638,2149 3637,2148 3595,2148 3594,2147 3584,2147 3583,2148 3522,2148 3521,2147 3511,2147 3510,2146 3493,2146 3492,2147 3487,2147 3486,2146 3450,2146 3449,2145" fill="rgba(199,205,214,0.3)" stroke="rgb(199,205,214)" stroke-width="2" data-block-id="0031" data-name="b-0039" /><text x="3469" y="2279" text-anchor="middle" dominant-baseline="middle" class="block-label" fill="rgb(199,205,214)" stroke="white" stroke-width="3" paint-order="stroke">b-0039</text><polygon points="3624,1850 3623,1851 3620,1851 3619,1852 3617,1852 3616,1853 3614,1853 3613,1854 3610,1854 3609,1853 3608,1853 3607,1852 3603,1852 3602,1851 3598,1851 3597,1852 3592,1852 3591,1853 3583,1853 3582,1852 3567,1852 3566,1853 3490,1853 3489,1852 3470,1852 3469,1853 3464,1853 3463,1854 3461,1854 3460,1855 3459,1855 3458,1856 3455,1856 3454,1855 3453,1855 3452,1854 3450,1854 3449,1853 3438,1853 3437,1852 3429,1852 3428,1853 3391,1853 3390,1854 3382,1854 3381,1853 3366,1853 3365,1854 3321,1854 3320,1853 3303,1853 3302,1854 3298,1854 3297,1855 3296,1855 3295,1856 3294,1856 3293,1857 3293,1858 3292,1859 3292,1865 3291,1866 3291,1959 3290,1960 3290,2036 3291,2037 3291,2074 3292,2075 3292,2077 3293,2078 3293,2079 3296,2082 3297,2082 3298,2083 3299,2083 3300,2084 3322,2084 3323,2083 3325,2083 3326,2084 3347,2084 3348,2083 3361,2083 3362,2084 3366,2084 3367,2085 3382,2085 3383,2084 3573,2084 3574,2085 3575,2085 3576,2084 3583,2084 3584,2083 3595,2083 3596,2084 3603,2084 3604,2083 3616,2083 3617,2084 3620,2084 3621,2085 3641,2085 3642,2086 3652,2086 3653,2085 3658,2085 3659,2084 3661,2084 3662,2083 3663,2083 3666,2080 3666,2079 3667,2078 3667,2077 3668,2076 3668,2019 3667,2018 3667,1993 3668,1992 3668,1971 3667,1970 3667,1946 3668,1945 3668,1926 3667,1925 3667,1903 3668,1902 3668,1865 3667,1864 3667,1857 3664,1854 3663,1854 3662,1853 3661,1853 3660,1852 3655,1852 3654,1851 3631,1851 3630,1850" fill="rgba(52,23,153,0.3)" stroke="rgb(52,23,153)" stroke-width="2" data-block-id="0032" data-name="b-0043" /><text x="3504" y="1948" text-anchor="middle" dominant-baseline="middle" class="block-label" fill="rgb(52,23,153)" stroke="white" stroke-width="3" paint-order="stroke">b-0043</text><polygon points="2451,1843 2450,1844 2380,1844 2379,1845 2377,1845 2376,1846 2375,1846 2375,1847 2374,1848 2374,1909 2373,1910 2373,1942 2374,1943 2374,1944 2373,1945 2373,1956 2374,1957 2374,1982 2373,1983 2373,2008 2374,2009 2374,2030 2375,2031 2375,2042 2374,2043 2374,2070 2373,2071 2373,2072 2374,2073 2374,2076 2377,2079 2379,2079 2380,2080 2412,2080 2413,2079 2449,2079 2450,2080 2456,2080 2457,2079 2472,2079 2473,2078 2491,2078 2492,2079 2502,2079 2503,2078 2532,2078 2533,2077 2569,2077 2570,2076 2660,2076 2661,2077 2684,2077 2685,2076 2699,2076 2700,2077 2729,2077 2730,2076 2732,2076 2733,2075 2734,2075 2735,2074 2735,2073 2736,2072 2736,2031 2735,2030 2735,1987 2734,1986 2734,1935 2735,1934 2735,1889 2734,1888 2734,1847 2731,1844 2729,1844 2728,1843 2577,1843 2576,1844 2573,1844 2572,1845 2552,1845 2551,1844 2546,1844 2545,1845 2536,1845 2535,1844 2532,1844 2531,1843" fill="rgba(216,251,187,0.3)" stroke="rgb(216,251,187)" stroke-width="2" data-block-id="0033" data-name="b-0044" /><text x="2524" y="1980" text-anchor="middle" dominant-baseline="middle" class="block-label" fill="rgb(216,251,187)" stroke="white" stroke-width="3" paint-order="stroke">b-0044</text><polygon points="681,1840 680,1841 662,1841 661,1842 659,1842 658,1843 657,1843 656,1844 653,1844 652,1845 649,1845 648,1844 642,1844 641,1843 634,1843 633,1844 589,1844 588,1845 560,1845 559,1846 552,1846 551,1845 545,1845 544,1844 535,1844 534,1845 532,1845 531,1844 508,1844 507,1845 503,1845 502,1846 499,1846 498,1847 497,1847 494,1850 494,1852 493,1853 493,1855 492,1856 492,1897 491,1898 491,1948 490,1949 490,1958 491,1959 491,1998 490,1999 490,2004 491,2005 491,2029 492,2030 492,2034 493,2035 493,2036 494,2037 494,2038 495,2038 496,2039 497,2039 498,2040 505,2040 506,2041 522,2041 523,2042 549,2042 550,2041 620,2041 621,2040 671,2040 672,2039 713,2039 714,2038 735,2038 736,2037 785,2037 786,2036 839,2036 840,2035 844,2035 845,2036 856,2036 857,2035 859,2035 860,2034 861,2034 861,2033 862,2032 862,2031 863,2030 863,2027 864,2026 864,1991 863,1990 863,1859 862,1858 862,1850 861,1849 861,1848 858,1845 855,1845 854,1844 848,1844 847,1845 720,1845 719,1844 715,1844 714,1843 709,1843 708,1842 698,1842 697,1841 690,1841 689,1840" fill="rgba(64,88,70,0.3)" stroke="rgb(64,88,70)" stroke-width="2" data-block-id="0034" data-name="b-0047" /><text x="647" y="1928" text-anchor="middle" dominant-baseline="middle" class="block-label" fill="rgb(64,88,70)" stroke="white" stroke-width="3" paint-order="stroke">b-0047</text><polygon points="974,1841 973,1842 969,1842 968,1843 966,1843 965,1844 964,1844 962,1846 962,1850 961,1851 961,1937 962,1938 962,2022 963,2023 963,2027 966,2030 967,2030 968,2031 970,2031 971,2032 1007,2032 1008,2031 1011,2031 1012,2032 1043,2032 1044,2031 1054,2031 1055,2032 1077,2032 1078,2031 1101,2031 1102,2032 1107,2032 1108,2031 1230,2031 1231,2030 1244,2030 1245,2031 1250,2031 1251,2030 1330,2030 1331,2029 1334,2029 1335,2028 1336,2028 1339,2025 1339,1961 1338,1960 1338,1863 1339,1862 1339,1848 1338,1847 1338,1846 1335,1843 1333,1843 1332,1842 1281,1842 1280,1843 1248,1843 1247,1842 1052,1842 1051,1841 992,1841 991,1842 977,1842 976,1841" fill="rgba(8,87,128,0.3)" stroke="rgb(8,87,128)" stroke-width="2" data-block-id="0035" data-name="b-0048" /><text x="1121" y="1946" text-anchor="middle" dominant-baseline="middle" class="block-label" fill="rgb(8,87,128)" stroke="white" stroke-width="3" paint-order="stroke">b-0048</text><polygon points="4757,2548 4756,2549 4755,2549 4754,2550 4753,2550 4747,2556 4746,2556 4745,2557 4741,2557 4740,2558 4738,2558 4737,2559 4737,2561 4736,2562 4736,2571 4735,2572 4736,2573 4736,2574 4737,2575 4737,2576 4738,2577 4738,2578 4739,2579 4739,2581 4740,2582 4740,2585 4741,2586 4741,2593 4742,2594 4742,2603 4741,2604 4741,2612 4742,2613 4742,2625 4741,2626 4741,2630 4740,2631 4740,2640 4741,2641 4741,2645 4740,2646 4740,2649 4738,2651 4738,2652 4737,2653 4736,2653 4734,2655 4731,2655 4730,2656 4725,2656 4724,2657 4721,2657 4720,2656 4712,2656 4711,2655 4707,2655 4706,2656 4668,2656 4667,2655 4657,2655 4656,2656 4640,2656 4639,2657 4632,2657 4631,2658 4610,2658 4609,2659 4602,2659 4601,2660 4593,2660 4592,2661 4585,2661 4584,2662 4567,2662 4566,2663 4562,2663 4561,2664 4556,2664 4555,2665 4550,2665 4549,2666 4543,2666 4542,2667 4537,2667 4536,2668 4531,2668 4530,2669 4521,2669 4520,2670 4517,2670 4516,2671 4515,2671 4514,2672 4512,2672 4511,2673 4509,2673 4508,2674 4499,2674 4498,2675 4494,2675 4493,2676 4492,2676 4491,2677 4488,2677 4487,2678 4484,2678 4483,2679 4480,2679 4479,2680 4476,2680 4475,2681 4472,2681 4471,2682 4469,2682 4468,2683 4467,2683 4466,2684 4465,2684 4464,2685 4462,2685 4461,2686 4460,2686 4459,2687 4457,2687 4456,2688 4453,2688 4452,2689 4449,2689 4448,2690 4446,2690 4445,2691 4444,2691 4443,2692 4441,2692 4440,2693 4439,2693 4438,2694 4436,2694 4435,2695 4433,2695 4432,2696 4430,2696 4429,2697 4427,2697 4426,2698 4424,2698 4423,2699 4421,2699 4420,2700 4419,2700 4418,2701 4417,2701 4414,2704 4414,2705 4413,2706 4413,2708 4412,2709 4412,2711 4411,2712 4411,2779 4412,2780 4412,2781 4413,2782 4413,2783 4414,2784 4414,2785 4415,2786 4415,2787 4416,2788 4416,2789 4418,2791 4419,2791 4420,2792 4422,2792 4423,2793 4426,2793 4427,2794 4431,2794 4432,2795 4436,2795 4437,2796 4441,2796 4442,2797 4445,2797 4446,2798 4449,2798 4450,2799 4453,2799 4454,2800 4457,2800 4458,2801 4461,2801 4462,2802 4467,2802 4468,2803 4472,2803 4473,2804 4476,2804 4477,2805 4481,2805 4482,2806 4487,2806 4488,2807 4495,2807 4496,2808 4502,2808 4503,2809 4509,2809 4510,2810 4517,2810 4518,2811 4527,2811 4528,2812 4536,2812 4537,2813 4544,2813 4545,2814 4557,2814 4558,2815 4566,2815 4567,2816 4571,2816 4572,2817 4574,2817 4575,2818 4577,2818 4578,2819 4579,2819 4582,2822 4583,2822 4584,2823 4584,2824 4585,2825 4585,2826 4586,2827 4586,2832 4587,2833 4587,2838 4586,2839 4586,2840 4585,2841 4585,2843 4584,2844 4584,2846 4578,2852 4576,2852 4575,2853 4574,2853 4573,2854 4572,2854 4571,2855 4569,2855 4568,2856 4567,2856 4566,2857 4565,2857 4563,2859 4562,2859 4561,2860 4560,2860 4559,2861 4558,2861 4557,2862 4556,2862 4554,2864 4553,2864 4551,2866 4550,2866 4549,2867 4548,2867 4547,2868 4545,2868 4543,2870 4542,2870 4541,2871 4540,2871 4538,2873 4537,2873 4536,2874 4535,2874 4533,2876 4532,2876 4531,2877 4530,2877 4528,2879 4527,2879 4526,2880 4524,2880 4523,2881 4522,2881 4521,2882 4520,2882 4519,2883 4518,2883 4516,2885 4515,2885 4514,2886 4513,2886 4511,2888 4510,2888 4509,2889 4508,2889 4507,2890 4506,2890 4505,2891 4503,2891 4502,2892 4501,2892 4500,2893 4499,2893 4498,2894 4496,2894 4495,2895 4494,2895 4492,2897 4491,2897 4490,2898 4489,2898 4488,2899 4487,2899 4485,2901 4484,2901 4483,2902 4482,2902 4480,2904 4479,2904 4477,2906 4476,2906 4474,2908 4473,2908 4470,2911 4469,2911 4467,2913 4466,2913 4465,2914 4464,2914 4463,2915 4462,2915 4461,2916 4460,2916 4459,2917 4458,2917 4457,2918 4456,2918 4455,2919 4453,2919 4452,2920 4451,2920 4450,2921 4449,2921 4448,2922 4447,2922 4444,2925 4443,2925 4442,2926 4441,2926 4439,2928 4438,2928 4437,2929 4435,2929 4434,2930 4433,2930 4432,2931 4431,2931 4430,2932 4429,2932 4428,2933 4427,2933 4426,2934 4425,2934 4424,2935 4423,2935 4421,2937 4420,2937 4419,2938 4418,2938 4416,2940 4415,2940 4414,2941 4413,2941 4412,2942 4411,2942 4410,2943 4409,2943 4408,2944 4407,2944 4406,2945 4405,2945 4404,2946 4403,2946 4400,2949 4399,2949 4397,2951 4396,2951 4395,2952 4394,2952 4393,2953 4392,2953 4391,2954 4390,2954 4389,2955 4388,2955 4387,2956 4386,2956 4384,2958 4383,2958 4382,2959 4382,2960 4380,2962 4380,2963 4379,2964 4379,2968 4378,2969 4378,2970 4379,2971 4379,2981 4380,2982 4380,2984 4381,2985 4381,2987 4382,2988 4382,2990 4383,2991 4383,2992 4384,2993 4384,2995 4385,2996 4385,2998 4386,2999 4386,3002 4387,3003 4387,3006 4388,3007 4388,3009 4389,3010 4389,3011 4390,3012 4390,3013 4393,3016 4394,3016 4396,3018 4396,3019 4399,3022 4400,3022 4401,3023 4402,3023 4403,3024 4414,3024 4415,3025 4427,3025 4428,3024 4437,3024 4438,3023 4443,3023 4444,3022 4477,3022 4478,3021 4489,3021 4490,3020 4519,3020 4520,3019 4525,3019 4526,3020 4530,3020 4531,3019 4541,3019 4542,3018 4544,3018 4545,3019 4556,3019 4557,3020 4558,3019 4569,3019 4570,3018 4581,3018 4582,3019 4583,3019 4584,3020 4585,3020 4586,3021 4587,3021 4588,3022 4589,3022 4592,3025 4592,3026 4596,3030 4597,3030 4598,3031 4599,3031 4600,3032 4601,3032 4602,3033 4603,3033 4605,3035 4606,3035 4614,3043 4614,3044 4618,3048 4618,3049 4619,3050 4619,3053 4620,3054 4620,3067 4621,3068 4621,3077 4620,3078 4620,3080 4619,3081 4619,3082 4618,3083 4618,3084 4605,3097 4604,3097 4602,3099 4600,3099 4599,3100 4597,3100 4596,3101 4595,3101 4594,3102 4593,3102 4589,3106 4589,3107 4578,3118 4577,3118 4575,3120 4574,3120 4572,3122 4571,3122 4570,3123 4569,3123 4568,3124 4566,3124 4565,3125 4563,3125 4562,3126 4559,3126 4558,3127 4555,3127 4554,3128 4551,3128 4550,3129 4546,3129 4545,3130 4543,3130 4542,3131 4539,3131 4538,3132 4535,3132 4534,3133 4530,3133 4529,3134 4524,3134 4523,3135 4520,3135 4519,3136 4517,3136 4516,3137 4514,3137 4513,3138 4512,3138 4511,3139 4509,3139 4508,3140 4507,3140 4506,3141 4504,3141 4503,3142 4502,3142 4501,3143 4500,3143 4499,3144 4497,3144 4496,3145 4495,3145 4494,3146 4491,3146 4490,3147 4486,3147 4485,3148 4482,3148 4481,3149 4479,3149 4478,3150 4476,3150 4475,3151 4473,3151 4472,3152 4469,3152 4468,3153 4465,3153 4464,3154 4460,3154 4459,3155 4453,3155 4452,3156 4447,3156 4446,3157 4442,3157 4441,3158 4438,3158 4431,3165 4431,3166 4427,3170 4427,3171 4425,3173 4425,3174 4424,3175 4424,3176 4423,3177 4423,3179 4422,3180 4422,3186 4421,3187 4421,3209 4422,3210 4422,3215 4423,3216 4423,3218 4425,3220 4425,3221 4426,3221 4432,3227 4433,3227 4435,3229 4436,3229 4437,3230 4451,3230 4452,3231 4458,3231 4459,3232 4483,3232 4484,3233 4501,3233 4502,3234 4521,3234 4522,3235 4539,3235 4540,3236 4556,3236 4557,3237 4578,3237 4580,3235 4580,3234 4581,3233 4581,3232 4582,3231 4582,3227 4583,3226 4583,3222 4584,3221 4584,3215 4585,3214 4585,3207 4584,3206 4584,3205 4582,3203 4581,3203 4580,3202 4575,3202 4574,3201 4568,3201 4567,3200 4563,3200 4562,3199 4559,3199 4558,3198 4553,3198 4552,3197 4539,3197 4538,3196 4533,3196 4532,3195 4523,3195 4522,3194 4519,3194 4517,3192 4516,3192 4513,3189 4513,3188 4511,3186 4511,3185 4514,3182 4515,3182 4516,3181 4519,3181 4520,3180 4522,3180 4523,3179 4526,3179 4527,3178 4528,3178 4529,3177 4531,3177 4532,3176 4535,3176 4536,3175 4539,3175 4540,3174 4543,3174 4544,3173 4547,3173 4548,3172 4549,3172 4550,3171 4552,3171 4553,3170 4555,3170 4556,3169 4557,3169 4558,3168 4560,3168 4561,3167 4563,3167 4564,3166 4566,3166 4567,3165 4569,3165 4570,3164 4571,3164 4572,3163 4574,3163 4575,3162 4577,3162 4578,3161 4582,3161 4583,3160 4585,3160 4586,3159 4588,3159 4589,3158 4590,3158 4591,3157 4592,3157 4594,3155 4595,3155 4597,3153 4598,3153 4599,3152 4600,3152 4602,3150 4603,3150 4614,3139 4615,3139 4620,3134 4621,3134 4625,3130 4626,3130 4628,3128 4629,3128 4631,3126 4632,3126 4636,3122 4637,3122 4645,3114 4646,3114 4649,3111 4650,3111 4656,3105 4656,3104 4657,3103 4657,3102 4658,3101 4658,3047 4657,3046 4657,3040 4656,3039 4656,3038 4655,3037 4655,3036 4654,3035 4654,3034 4653,3033 4653,3032 4645,3024 4644,3024 4639,3019 4638,3019 4624,3005 4623,3005 4612,2994 4611,2994 4607,2990 4606,2990 4604,2988 4603,2988 4601,2986 4599,2986 4598,2985 4597,2985 4596,2984 4594,2984 4593,2983 4558,2983 4557,2982 4524,2982 4523,2983 4518,2983 4517,2982 4476,2982 4475,2983 4470,2983 4469,2982 4460,2982 4459,2981 4458,2981 4457,2980 4456,2980 4454,2978 4456,2976 4456,2975 4457,2974 4457,2973 4458,2972 4458,2970 4461,2967 4462,2967 4464,2965 4465,2965 4466,2964 4467,2964 4468,2963 4469,2963 4471,2961 4472,2961 4473,2960 4474,2960 4479,2955 4480,2955 4482,2953 4483,2953 4484,2952 4485,2952 4486,2951 4487,2951 4488,2950 4489,2950 4491,2948 4492,2948 4494,2946 4495,2946 4498,2943 4499,2943 4500,2942 4501,2942 4503,2940 4504,2940 4505,2939 4506,2939 4507,2938 4508,2938 4509,2937 4510,2937 4511,2936 4512,2936 4513,2935 4514,2935 4515,2934 4516,2934 4518,2932 4519,2932 4520,2931 4521,2931 4523,2929 4524,2929 4526,2927 4527,2927 4529,2925 4530,2925 4531,2924 4532,2924 4533,2923 4534,2923 4536,2921 4537,2921 4539,2919 4540,2919 4542,2917 4543,2917 4544,2916 4545,2916 4546,2915 4548,2915 4549,2914 4550,2914 4551,2913 4552,2913 4553,2912 4554,2912 4555,2911 4557,2911 4559,2909 4560,2909 4561,2908 4562,2908 4564,2906 4565,2906 4567,2904 4568,2904 4571,2901 4572,2901 4574,2899 4575,2899 4576,2898 4577,2898 4578,2897 4579,2897 4581,2895 4582,2895 4584,2893 4585,2893 4587,2891 4588,2891 4589,2890 4590,2890 4591,2889 4592,2889 4593,2888 4594,2888 4595,2887 4597,2887 4598,2886 4599,2886 4600,2885 4601,2885 4602,2884 4603,2884 4604,2883 4605,2883 4607,2881 4608,2881 4610,2879 4611,2879 4612,2878 4613,2878 4616,2875 4617,2875 4618,2874 4618,2873 4620,2871 4620,2870 4621,2869 4621,2868 4622,2867 4622,2866 4626,2862 4627,2862 4631,2858 4631,2849 4632,2848 4632,2842 4631,2841 4631,2838 4632,2837 4632,2835 4633,2834 4633,2831 4634,2830 4634,2824 4633,2823 4633,2821 4632,2820 4632,2817 4631,2816 4631,2813 4630,2812 4630,2811 4629,2810 4629,2808 4627,2806 4627,2805 4625,2803 4625,2802 4620,2797 4619,2797 4614,2792 4613,2792 4612,2791 4611,2791 4610,2790 4609,2790 4608,2789 4607,2789 4606,2788 4605,2788 4604,2787 4603,2787 4602,2786 4599,2786 4598,2785 4596,2785 4595,2784 4593,2784 4592,2783 4589,2783 4588,2782 4585,2782 4584,2781 4579,2781 4578,2780 4572,2780 4571,2779 4565,2779 4564,2778 4559,2778 4558,2777 4544,2777 4543,2776 4537,2776 4536,2775 4528,2775 4527,2774 4521,2774 4520,2773 4516,2773 4515,2772 4512,2772 4511,2771 4507,2771 4506,2770 4503,2770 4502,2769 4498,2769 4497,2768 4494,2768 4493,2767 4491,2767 4490,2766 4487,2766 4486,2765 4484,2765 4483,2764 4481,2764 4480,2763 4478,2763 4477,2762 4475,2762 4474,2761 4472,2761 4471,2760 4469,2760 4468,2759 4466,2759 4465,2758 4463,2758 4462,2757 4461,2757 4460,2756 4459,2756 4458,2755 4457,2755 4456,2754 4456,2753 4454,2751 4454,2740 4460,2734 4461,2734 4462,2733 4463,2733 4464,2732 4465,2732 4466,2731 4467,2731 4468,2730 4469,2730 4470,2729 4471,2729 4472,2728 4473,2728 4474,2727 4476,2727 4477,2726 4478,2726 4479,2725 4481,2725 4482,2724 4484,2724 4485,2723 4486,2723 4487,2722 4489,2722 4490,2721 4491,2721 4492,2720 4494,2720 4495,2719 4497,2719 4498,2718 4500,2718 4501,2717 4503,2717 4504,2716 4507,2716 4508,2715 4510,2715 4511,2714 4513,2714 4514,2713 4517,2713 4518,2712 4520,2712 4521,2711 4524,2711 4525,2710 4528,2710 4529,2709 4533,2709 4534,2708 4540,2708 4541,2707 4545,2707 4546,2706 4549,2706 4550,2705 4552,2705 4553,2704 4555,2704 4556,2703 4562,2703 4563,2702 4569,2702 4570,2701 4574,2701 4575,2700 4579,2700 4580,2699 4586,2699 4587,2698 4592,2698 4593,2697 4596,2697 4597,2696 4600,2696 4601,2695 4614,2695 4615,2694 4628,2694 4629,2693 4647,2693 4648,2692 4732,2692 4733,2691 4736,2691 4737,2692 4754,2692 4755,2691 4765,2691 4766,2692 4769,2692 4769,2683 4768,2682 4768,2678 4767,2677 4767,2675 4766,2674 4766,2672 4765,2671 4765,2668 4769,2664 4769,2661 4770,2660 4770,2652 4771,2651 4771,2628 4770,2627 4770,2624 4769,2623 4769,2616 4768,2615 4768,2611 4769,2610 4769,2604 4770,2603 4770,2579 4769,2578 4769,2551 4767,2549 4765,2549 4764,2548" fill="rgba(80,135,162,0.3)" stroke="rgb(80,135,162)" stroke-width="2" data-block-id="0036" data-name="b-0051" /><text x="4538" y="2901" text-anchor="middle" dominant-baseline="middle" class="block-label" fill="rgb(80,135,162)" stroke="white" stroke-width="3" paint-order="stroke">b-0051</text><polygon points="2107,1838 2106,1839 2102,1839 2101,1840 2089,1840 2088,1841 2068,1841 2067,1840 2004,1840 2003,1841 1998,1841 1997,1840 1983,1840 1982,1841 1961,1841 1960,1840 1945,1840 1944,1841 1938,1841 1937,1840 1920,1840 1919,1839 1918,1840 1915,1840 1914,1841 1913,1841 1912,1842 1911,1842 1908,1845 1908,1846 1907,1847 1907,1851 1908,1852 1908,1861 1909,1862 1909,1883 1910,1884 1910,1960 1909,1961 1909,1968 1910,1969 1910,1973 1911,1974 1911,1982 1910,1983 1910,2001 1909,2002 1909,2006 1908,2007 1908,2011 1907,2012 1907,2015 1908,2016 1908,2017 1911,2020 1912,2020 1913,2021 1918,2021 1919,2022 2008,2022 2009,2021 2042,2021 2043,2022 2050,2022 2051,2021 2268,2021 2269,2020 2272,2020 2275,2017 2275,2000 2274,1999 2274,1969 2273,1968 2273,1960 2274,1959 2274,1923 2273,1922 2273,1892 2274,1891 2274,1844 2273,1843 2273,1842 2272,1841 2271,1841 2270,1840 2267,1840 2266,1839 2244,1839 2243,1840 2148,1840 2147,1839 2138,1839 2137,1840 2128,1840 2127,1839 2117,1839 2116,1838" fill="rgba(4,233,230,0.3)" stroke="rgb(4,233,230)" stroke-width="2" data-block-id="0037" data-name="b-0053" /><text x="2047" y="1907" text-anchor="middle" dominant-baseline="middle" class="block-label" fill="rgb(4,233,230)" stroke="white" stroke-width="3" paint-order="stroke">b-0053</text><polygon points="3008,1886 3007,1887 3002,1887 3001,1888 2994,1888 2993,1889 2980,1889 2979,1888 2876,1888 2875,1889 2834,1889 2833,1890 2832,1890 2831,1891 2830,1891 2829,1892 2829,1894 2828,1895 2828,1900 2829,1901 2829,2049 2830,2050 2830,2051 2831,2052 2832,2052 2833,2053 2836,2053 2837,2054 2838,2053 2856,2053 2857,2054 2866,2054 2867,2053 2872,2053 2873,2054 2908,2054 2909,2053 2917,2053 2918,2054 2944,2054 2945,2053 2992,2053 2993,2052 3016,2052 3017,2053 3043,2053 3044,2052 3070,2052 3071,2053 3082,2053 3083,2052 3120,2052 3121,2053 3125,2053 3126,2052 3194,2052 3195,2051 3196,2051 3197,2050 3198,2050 3198,2049 3199,2048 3199,2046 3200,2045 3200,2010 3201,2009 3201,1960 3200,1959 3200,1926 3201,1925 3201,1893 3200,1892 3200,1890 3198,1888 3197,1888 3196,1887 3193,1887 3192,1886 3170,1886 3169,1887 3125,1887 3124,1888 3068,1888 3067,1887 3054,1887 3053,1888 3049,1888 3048,1887 3038,1887 3037,1886 3036,1887 3024,1887 3023,1886" fill="rgba(249,40,27,0.3)" stroke="rgb(249,40,27)" stroke-width="2" data-block-id="0038" data-name="b-0054" /><text x="3019" y="1971" text-anchor="middle" dominant-baseline="middle" class="block-label" fill="rgb(249,40,27)" stroke="white" stroke-width="3" paint-order="stroke">b-0054</text></g>
</svg>