<?xml version='1.0' encoding='utf-8'?>
<svg xmlns="http://www.w3.org/2000/svg" xmlns:atlas="http://example.com/atlas" width="4984" height="3304" viewBox="0 0 4984 3304">
  
  <metadata>
    <atlas:source>
      <atlas:jp2-path>/Users/pwright/workspace/atlas/media/v2/p5.jp2</atlas:jp2-path>
      <atlas:volume>unknown</atlas:volume>
      <atlas:plate-id>p5</atlas:plate-id>
      <atlas:image-width>4984</atlas:image-width>
      <atlas:image-height>3304</atlas:image-height>
    </atlas:source>
  </metadata>

  
  <image id="background" href="file:///Users/pwright/workspace/atlas/media/v2/p5.jp2" width="4984" height="3304" opacity="0.5" />

  <style>
    .block-label { font-family: sans-serif; font-size: 14px; font-weight: bold; }
  </style>

  
  <g id="blocks">
    <polygon points="849,313 848,314 845,314 844,315 843,315 841,317 841,318 840,319 840,320 839,321 839,322 838,323 838,326 837,327 837,330 836,331 836,333 835,334 835,337 834,338 834,353 835,354 835,372 836,373 836,432 837,433 837,464 836,465 836,471 835,472 835,477 834,478 834,487 833,488 833,501 834,502 834,512 835,513 835,525 834,526 834,536 835,537 835,555 836,556 836,614 835,615 835,625 834,626 834,642 835,643 835,650 836,651 836,652 837,653 837,654 840,657 841,657 843,659 844,659 845,660 847,660 848,661 869,661 870,662 885,662 886,663 909,663 910,662 938,662 939,663 951,663 952,664 958,664 959,665 981,665 982,664 1007,664 1008,663 1029,663 1030,664 1039,664 1040,665 1087,665 1088,664 1107,664 1108,665 1121,665 1122,666 1165,666 1166,667 1177,667 1178,668 1192,668 1193,669 1195,669 1196,668 1200,668 1201,667 1205,667 1206,666 1209,666 1210,665 1214,665 1215,664 1220,664 1221,665 1230,665 1231,666 1240,666 1241,665 1246,665 1247,664 1255,664 1256,663 1267,663 1268,664 1277,664 1278,663 1302,663 1303,664 1319,664 1320,663 1326,663 1327,662 1343,662 1344,663 1383,663 1384,664 1416,664 1417,665 1464,665 1465,666 1475,666 1476,665 1571,665 1572,666 1582,666 1583,667 1600,667 1601,666 1617,666 1618,665 1630,665 1631,664 1640,664 1641,663 1701,663 1702,664 1724,664 1725,665 1741,665 1742,666 1786,666 1787,665 1811,665 1812,666 1830,666 1831,667 1871,667 1872,666 1892,666 1893,667 1914,667 1915,666 1916,667 1939,667 1940,668 1944,668 1945,669 1947,669 1948,670 1950,670 1951,671 1952,671 1953,672 1961,672 1962,671 1965,671 1966,670 1969,670 1970,669 1985,669 1986,670 2025,670 2026,671 2038,671 2039,672 2052,672 2053,673 2073,673 2074,674 2079,674 2080,675 2084,675 2085,676 2089,676 2090,677 2091,676 2096,676 2097,675 2098,675 2099,674 2100,674 2101,673 2102,673 2103,672 2106,672 2107,671 2108,671 2109,670 2143,670 2144,669 2157,669 2158,670 2174,670 2175,669 2180,669 2181,668 2186,668 2187,667 2195,667 2196,668 2205,668 2206,669 2212,669 2213,670 2220,670 2221,671 2247,671 2248,670 2253,670 2254,669 2257,669 2258,668 2264,668 2265,667 2288,667 2289,666 2300,666 2301,665 2306,665 2307,664 2309,664 2314,659 2314,658 2315,657 2315,656 2316,655 2316,652 2317,651 2317,640 2316,639 2316,624 2315,623 2315,613 2314,612 2314,597 2313,596 2313,558 2312,557 2312,554 2313,553 2313,540 2314,539 2314,531 2313,530 2313,519 2312,518 2312,461 2311,460 2311,423 2312,422 2312,371 2313,370 2313,350 2312,349 2312,340 2311,339 2311,335 2310,334 2310,332 2309,331 2309,329 2306,326 2305,326 2304,325 2284,325 2283,324 2273,324 2272,323 2264,323 2263,324 2255,324 2254,325 2244,325 2243,324 2235,324 2234,323 2195,323 2194,322 2169,322 2168,321 2157,321 2156,320 2150,320 2149,321 2143,321 2142,322 2137,322 2136,323 2086,323 2085,322 2079,322 2078,321 2062,321 2061,322 2048,322 2047,321 2039,321 2038,320 2030,320 2029,321 2022,321 2021,322 2009,322 2008,321 2001,321 2000,320 1986,320 1985,321 1968,321 1967,320 1923,320 1922,319 1876,319 1875,318 1755,318 1754,317 1721,317 1720,318 1714,318 1713,319 1708,319 1707,320 1696,320 1695,319 1685,319 1684,318 1680,318 1679,319 1660,319 1659,318 1653,318 1652,317 1614,317 1613,318 1586,318 1585,317 1538,317 1537,318 1511,318 1510,319 1503,319 1502,320 1496,320 1495,321 1490,321 1489,322 1466,322 1465,323 1443,323 1442,322 1427,322 1426,323 1424,323 1423,324 1422,324 1420,326 1419,326 1418,327 1416,327 1415,328 1406,328 1405,327 1402,327 1401,326 1397,326 1396,325 1388,325 1387,324 1365,324 1364,323 1347,323 1346,322 1323,322 1322,323 1289,323 1288,324 1287,324 1286,325 1285,325 1283,327 1282,327 1281,328 1280,328 1278,330 1277,330 1276,331 1270,331 1269,330 1265,330 1264,329 1258,329 1257,328 1254,328 1253,327 1251,327 1250,326 1249,326 1248,325 1246,325 1245,324 1243,324 1242,323 1228,323 1227,324 1224,324 1223,325 1218,325 1217,326 1214,326 1213,325 1206,325 1205,324 1154,324 1153,325 1112,325 1111,326 1088,326 1087,325 1073,325 1072,326 1064,326 1063,327 1058,327 1057,326 1050,326 1049,325 1039,325 1038,324 1036,324 1035,325 1024,325 1023,324 1004,324 1003,323 998,323 997,322 995,322 994,321 991,321 990,320 988,320 987,319 985,319 984,318 981,318 980,317 978,317 977,316 974,316 973,315 969,315 968,314 928,314 927,313 919,313 918,314 896,314 895,313 882,313 881,314 853,314 852,313" fill="rgba(188,20,102,0.3)" stroke="rgb(188,20,102)" stroke-width="2" data-block-id="0001" data-name="b-0004" /><text x="1546" y="486" text-anchor="middle" dominant-baseline="middle" class="block-label" fill="rgb(188,20,102)" stroke="white" stroke-width="3" paint-order="stroke">b-0004</text><polygon points="3104,326 3103,327 3100,327 3099,328 3094,328 3093,329 3071,329 3070,328 3057,328 3056,329 3041,329 3040,328 3013,328 3012,329 2974,329 2973,330 2969,330 2968,329 2957,329 2956,328 2897,328 2896,329 2889,329 2888,328 2875,328 2874,327 2869,327 2868,328 2799,328 2798,327 2784,327 2783,328 2762,328 2761,327 2750,327 2749,328 2728,328 2727,327 2708,327 2707,328 2698,328 2697,329 2669,329 2668,330 2634,330 2633,331 2630,331 2629,332 2625,332 2624,333 2621,333 2620,334 2616,334 2615,335 2610,335 2609,336 2605,336 2604,337 2600,337 2599,338 2590,338 2589,339 2575,339 2574,338 2569,338 2568,337 2564,337 2563,336 2557,336 2556,335 2544,335 2543,334 2532,334 2531,333 2523,333 2522,332 2517,332 2516,333 2504,333 2503,334 2502,334 2500,336 2499,336 2499,337 2498,338 2498,340 2497,341 2497,363 2496,364 2496,371 2495,372 2495,378 2494,379 2494,385 2495,386 2495,414 2496,415 2496,464 2497,465 2497,486 2498,487 2498,505 2499,506 2499,519 2498,520 2498,525 2497,526 2497,533 2496,534 2496,568 2497,569 2497,627 2496,628 2496,646 2495,647 2495,651 2496,652 2496,656 2497,657 2497,659 2498,660 2498,661 2499,662 2499,663 2500,664 2501,664 2503,666 2504,666 2505,667 2508,667 2509,668 2512,668 2513,669 2516,669 2517,670 2521,670 2522,671 2532,671 2533,672 2545,672 2546,673 2556,673 2557,674 2579,674 2580,675 2590,675 2591,676 2615,676 2616,675 2617,676 2643,676 2644,675 2651,675 2652,674 2684,674 2685,673 2721,673 2722,672 2732,672 2733,671 2772,671 2773,670 2776,670 2777,671 2834,671 2835,672 2864,672 2865,673 2876,673 2877,672 2887,672 2888,671 2929,671 2930,672 2963,672 2964,671 3011,671 3012,672 3023,672 3024,673 3036,673 3037,672 3052,672 3053,673 3089,673 3090,674 3100,674 3101,675 3112,675 3113,674 3128,674 3129,673 3158,673 3159,674 3175,674 3176,675 3186,675 3187,674 3195,674 3196,673 3206,673 3207,672 3243,672 3244,673 3255,673 3256,674 3268,674 3269,673 3288,673 3289,672 3307,672 3308,673 3331,673 3332,674 3400,674 3401,675 3425,675 3426,674 3433,674 3434,673 3486,673 3487,674 3494,674 3495,673 3507,673 3508,672 3556,672 3557,673 3567,673 3568,674 3642,674 3643,675 3651,675 3652,674 3658,674 3659,673 3665,673 3666,672 3741,672 3742,671 3771,671 3772,672 3786,672 3787,673 3809,673 3810,672 3826,672 3827,671 3868,671 3869,672 3884,672 3885,673 3893,673 3894,674 3898,674 3899,675 3904,675 3905,676 3918,676 3919,677 3920,677 3921,676 3922,676 3923,675 3924,675 3929,670 3929,669 3933,665 3933,664 3934,663 3934,662 3935,661 3935,660 3936,659 3936,657 3937,656 3937,651 3938,650 3938,634 3937,633 3937,626 3936,625 3936,618 3935,617 3935,584 3934,583 3934,564 3935,563 3935,549 3934,548 3934,501 3933,500 3933,495 3934,494 3934,482 3935,481 3935,474 3934,473 3934,465 3933,464 3933,426 3932,425 3932,409 3933,408 3933,391 3932,390 3932,355 3931,354 3931,348 3930,347 3930,343 3929,342 3929,340 3928,339 3928,338 3925,335 3924,335 3923,334 3922,334 3921,333 3915,333 3914,332 3903,332 3902,331 3889,331 3888,330 3866,330 3865,331 3845,331 3844,332 3784,332 3783,333 3780,333 3779,334 3777,334 3776,335 3775,335 3774,336 3773,336 3772,337 3771,337 3769,339 3762,339 3761,338 3759,338 3758,337 3755,337 3754,336 3749,336 3748,335 3740,335 3739,334 3725,334 3724,333 3718,333 3717,332 3712,332 3711,331 3697,331 3696,332 3680,332 3679,331 3663,331 3662,330 3654,330 3653,329 3643,329 3642,330 3622,330 3621,331 3578,331 3577,330 3544,330 3543,331 3512,331 3511,330 3505,330 3504,329 3498,329 3497,328 3488,328 3487,329 3442,329 3441,330 3438,330 3437,329 3428,329 3427,328 3420,328 3419,327 3392,327 3391,328 3381,328 3380,329 3375,329 3374,328 3366,328 3365,327 3356,327 3355,326 3332,326 3331,327 3323,327 3322,328 3303,328 3302,327 3274,327 3273,326 3235,326 3234,327 3228,327 3227,328 3219,328 3218,329 3203,329 3202,328 3196,328 3195,327 3187,327 3186,326 3162,326 3161,327 3116,327 3115,326" fill="rgba(121,210,214,0.3)" stroke="rgb(121,210,214)" stroke-width="2" data-block-id="0002" data-name="b-0006" /><text x="3216" y="484" text-anchor="middle" dominant-baseline="middle" class="block-label" fill="rgb(121,210,214)" stroke="white" stroke-width="3" paint-order="stroke">b-0006</text><polygon points="2176,2619 2175,2620 2087,2620 2086,2621 2065,2621 2064,2620 2049,2620 2048,2621 2037,2621 2036,2622 2033,2622 2032,2621 1990,2621 1989,2622 1981,2622 1980,2621 1974,2621 1973,2622 1957,2622 1956,2621 1950,2621 1949,2622 1945,2622 1944,2623 1942,2623 1941,2624 1932,2624 1931,2623 1923,2623 1922,2624 1875,2624 1874,2623 1848,2623 1847,2622 1811,2622 1810,2621 1746,2621 1745,2622 1707,2622 1706,2621 1675,2621 1674,2622 1657,2622 1656,2621 1616,2621 1615,2622 1584,2622 1583,2623 1535,2623 1534,2624 1532,2624 1531,2623 1512,2623 1511,2624 1508,2624 1507,2623 1468,2623 1467,2624 1456,2624 1455,2623 1396,2623 1395,2622 1387,2622 1386,2623 1371,2623 1370,2624 1356,2624 1355,2623 1339,2623 1338,2624 1297,2624 1296,2625 1295,2625 1294,2624 1286,2624 1285,2623 1228,2623 1227,2624 1202,2624 1201,2623 1149,2623 1148,2624 1120,2624 1119,2623 1072,2623 1071,2622 1068,2622 1067,2623 1046,2623 1045,2622 1042,2622 1041,2623 1024,2623 1023,2622 1021,2622 1020,2623 1012,2623 1011,2624 950,2624 949,2625 840,2625 839,2626 837,2626 836,2627 835,2627 833,2629 832,2629 831,2630 831,2631 830,2632 830,2634 829,2635 829,2701 830,2702 830,2709 829,2710 829,2746 830,2747 830,2761 829,2762 829,2780 830,2781 830,2806 831,2807 831,2815 832,2816 832,2820 833,2821 833,2825 834,2826 834,2828 835,2829 835,2830 836,2831 836,2832 837,2833 837,2835 838,2836 838,2837 839,2838 839,2841 840,2842 840,2843 841,2844 841,2846 842,2847 842,2849 843,2850 843,2852 844,2853 844,2854 845,2855 845,2857 846,2858 846,2860 847,2861 847,2862 848,2863 848,2865 849,2866 849,2867 850,2868 850,2869 851,2870 851,2872 853,2874 853,2875 854,2876 854,2877 856,2879 856,2880 857,2881 857,2882 858,2883 858,2885 859,2886 859,2888 860,2889 860,2890 861,2891 861,2893 862,2894 862,2897 863,2898 863,2900 864,2901 864,2902 865,2903 865,2904 866,2905 866,2906 867,2907 867,2908 868,2909 868,2910 870,2912 870,2914 871,2915 871,2916 872,2917 872,2918 873,2919 873,2921 874,2922 874,2926 875,2927 875,2928 876,2929 876,2930 877,2931 877,2932 879,2934 879,2935 880,2936 880,2937 881,2938 881,2939 882,2940 882,2942 883,2943 883,2944 884,2945 884,2946 885,2947 885,2948 887,2950 887,2951 888,2952 888,2953 889,2954 889,2955 891,2957 891,2958 892,2959 892,2960 894,2962 894,2963 895,2964 895,2965 896,2966 896,2967 897,2968 897,2969 898,2970 898,2971 899,2972 899,2973 900,2974 900,2975 901,2976 901,2978 902,2979 902,2981 903,2982 903,2984 904,2985 904,2987 905,2988 905,2990 906,2991 906,2993 907,2994 907,2996 908,2997 908,2998 909,2999 909,3000 910,3001 910,3002 911,3003 911,3004 913,3006 914,3006 915,3007 918,3007 919,3008 942,3008 943,3009 955,3009 956,3008 976,3008 977,3009 992,3009 993,3010 997,3010 998,3009 1003,3009 1004,3008 1036,3008 1037,3009 1065,3009 1066,3010 1092,3010 1093,3011 1094,3011 1095,3010 1107,3010 1108,3011 1135,3011 1136,3012 1143,3012 1144,3011 1157,3011 1158,3010 1172,3010 1173,3009 1180,3009 1181,3010 1231,3010 1232,3011 1237,3011 1238,3010 1244,3010 1245,3009 1248,3009 1249,3010 1252,3010 1253,3011 1272,3011 1273,3012 1280,3012 1281,3013 1284,3013 1285,3012 1288,3012 1289,3011 1300,3011 1301,3012 1322,3012 1323,3013 1339,3013 1340,3012 1358,3012 1359,3011 1364,3011 1365,3010 1384,3010 1385,3011 1397,3011 1398,3012 1404,3012 1405,3011 1411,3011 1412,3010 1418,3010 1419,3009 1441,3009 1442,3010 1453,3010 1454,3009 1489,3009 1490,3010 1498,3010 1499,3011 1500,3011 1501,3010 1513,3010 1514,3009 1550,3009 1551,3008 1571,3008 1572,3007 1576,3007 1577,3006 1591,3006 1592,3007 1612,3007 1613,3006 1619,3006 1620,3007 1668,3007 1669,3008 1673,3008 1674,3009 1684,3009 1685,3010 1690,3010 1691,3009 1698,3009 1699,3008 1707,3008 1708,3007 1716,3007 1717,3008 1752,3008 1753,3007 1877,3007 1878,3008 1879,3007 1907,3007 1908,3008 1949,3008 1950,3009 1955,3009 1956,3008 1974,3008 1975,3007 2006,3007 2007,3006 2023,3006 2024,3007 2045,3007 2046,3008 2053,3008 2054,3009 2057,3009 2058,3010 2063,3010 2064,3009 2069,3009 2070,3008 2072,3008 2073,3007 2075,3007 2076,3006 2081,3006 2082,3005 2099,3005 2100,3004 2144,3004 2145,3003 2149,3003 2150,3002 2160,3002 2161,3003 2173,3003 2174,3002 2189,3002 2190,3003 2199,3003 2200,3004 2206,3004 2207,3003 2224,3003 2225,3002 2244,3002 2245,3001 2262,3001 2263,3002 2298,3002 2299,3001 2300,3001 2301,3000 2302,3000 2303,2999 2304,2999 2307,2996 2307,2995 2308,2994 2308,2993 2309,2992 2309,2985 2310,2984 2310,2946 2309,2945 2309,2941 2310,2940 2310,2926 2311,2925 2311,2912 2312,2911 2311,2910 2311,2900 2310,2899 2310,2896 2311,2895 2311,2875 2310,2874 2310,2870 2311,2869 2311,2787 2312,2786 2312,2763 2311,2762 2311,2756 2310,2755 2310,2723 2311,2722 2311,2667 2310,2666 2310,2658 2309,2657 2309,2653 2308,2652 2308,2647 2307,2646 2308,2645 2308,2641 2309,2640 2309,2637 2310,2636 2310,2634 2309,2633 2309,2630 2308,2629 2308,2627 2307,2626 2307,2625 2305,2623 2304,2623 2303,2622 2302,2622 2301,2621 2296,2621 2295,2620 2253,2620 2252,2619 2246,2619 2245,2620 2185,2620 2184,2619" fill="rgba(116,99,103,0.3)" stroke="rgb(116,99,103)" stroke-width="2" data-block-id="0003" data-name="b-0008" /><text x="1434" y="2858" text-anchor="middle" dominant-baseline="middle" class="block-label" fill="rgb(116,99,103)" stroke="white" stroke-width="3" paint-order="stroke">b-0008</text><polygon points="1119,2125 1118,2126 1115,2126 1114,2127 1113,2127 1112,2128 1110,2128 1109,2129 1108,2129 1107,2130 1096,2130 1095,2129 1071,2129 1070,2130 1063,2130 1062,2129 1052,2129 1051,2130 1021,2130 1020,2131 1001,2131 1000,2130 920,2130 919,2129 850,2129 849,2130 840,2130 839,2131 838,2131 833,2136 833,2137 832,2138 832,2140 831,2141 831,2142 830,2143 830,2157 829,2158 829,2165 828,2166 828,2201 829,2202 829,2213 828,2214 828,2230 829,2231 829,2260 828,2261 828,2276 829,2277 829,2280 830,2281 830,2283 831,2284 831,2285 832,2286 832,2294 831,2295 831,2302 830,2303 830,2315 831,2316 831,2322 832,2323 832,2326 831,2327 831,2333 830,2334 830,2362 831,2363 831,2383 832,2384 832,2404 831,2405 831,2411 832,2412 832,2437 833,2438 833,2449 832,2450 832,2466 833,2467 833,2483 834,2484 834,2499 835,2500 835,2503 839,2507 841,2507 842,2508 848,2508 849,2509 858,2509 859,2510 870,2510 871,2511 907,2511 908,2510 919,2510 920,2511 931,2511 932,2510 944,2510 945,2511 955,2511 956,2510 962,2510 963,2511 1003,2511 1004,2510 1017,2510 1018,2511 1020,2511 1021,2510 1027,2510 1028,2509 1041,2509 1042,2508 1095,2508 1096,2509 1387,2509 1388,2508 1414,2508 1415,2509 1432,2509 1433,2508 1497,2508 1498,2507 1511,2507 1512,2508 1531,2508 1532,2507 1633,2507 1634,2506 1650,2506 1651,2507 1700,2507 1701,2506 1718,2506 1719,2507 1752,2507 1753,2506 1763,2506 1764,2507 1799,2507 1800,2506 1812,2506 1813,2507 1861,2507 1862,2508 1882,2508 1883,2507 1946,2507 1947,2506 2007,2506 2008,2507 2015,2507 2016,2506 2026,2506 2027,2505 2058,2505 2059,2506 2149,2506 2150,2507 2167,2507 2168,2506 2206,2506 2207,2505 2220,2505 2221,2506 2232,2506 2233,2505 2239,2505 2240,2506 2272,2506 2273,2505 2289,2505 2290,2504 2292,2504 2293,2503 2294,2503 2295,2502 2295,2495 2294,2494 2294,2486 2295,2485 2295,2478 2296,2477 2296,2476 2297,2475 2297,2474 2298,2473 2298,2472 2299,2471 2299,2470 2300,2469 2300,2463 2299,2462 2299,2456 2298,2455 2298,2449 2297,2448 2297,2442 2298,2441 2298,2440 2299,2439 2299,2437 2300,2436 2300,2434 2301,2433 2301,2431 2302,2430 2302,2426 2303,2425 2303,2411 2302,2410 2302,2405 2303,2404 2303,2392 2302,2391 2302,2388 2301,2387 2301,2381 2302,2380 2302,2378 2303,2377 2303,2369 2302,2368 2302,2366 2301,2365 2301,2363 2300,2362 2300,2360 2299,2359 2299,2349 2300,2348 2300,2342 2301,2341 2301,2330 2302,2329 2302,2325 2301,2324 2301,2321 2300,2320 2300,2318 2299,2317 2299,2315 2298,2314 2298,2308 2299,2307 2299,2303 2300,2302 2300,2295 2299,2294 2299,2285 2298,2284 2298,2272 2299,2271 2299,2268 2300,2267 2300,2263 2299,2262 2299,2259 2298,2258 2298,2256 2297,2255 2297,2246 2298,2245 2298,2240 2299,2239 2299,2237 2300,2236 2300,2235 2301,2234 2301,2233 2302,2232 2302,2227 2299,2224 2299,2223 2295,2219 2295,2210 2296,2209 2296,2204 2297,2203 2297,2197 2298,2196 2298,2194 2299,2193 2299,2192 2307,2184 2307,2183 2308,2182 2308,2175 2309,2174 2309,2168 2308,2167 2308,2158 2307,2157 2307,2156 2308,2155 2308,2144 2307,2143 2307,2142 2306,2141 2306,2140 2305,2139 2305,2138 2303,2136 2303,2135 2302,2134 2301,2134 2299,2132 2291,2132 2290,2131 2254,2131 2253,2130 2248,2130 2247,2131 2229,2131 2228,2130 2222,2130 2221,2131 2207,2131 2206,2130 2198,2130 2197,2131 2186,2131 2185,2130 2172,2130 2171,2131 2160,2131 2159,2130 2123,2130 2122,2131 2056,2131 2055,2132 2048,2132 2047,2133 2045,2133 2044,2132 2037,2132 2036,2131 2007,2131 2006,2130 2001,2130 2000,2129 1997,2129 1996,2130 1985,2130 1984,2131 1967,2131 1966,2130 1906,2130 1905,2131 1904,2130 1886,2130 1885,2131 1847,2131 1846,2130 1843,2130 1842,2131 1817,2131 1816,2132 1805,2132 1804,2131 1756,2131 1755,2130 1745,2130 1744,2131 1709,2131 1708,2130 1695,2130 1694,2131 1662,2131 1661,2130 1646,2130 1645,2131 1619,2131 1618,2130 1599,2130 1598,2131 1579,2131 1578,2130 1562,2130 1561,2129 1556,2129 1555,2130 1549,2130 1548,2131 1531,2131 1530,2130 1501,2130 1500,2131 1487,2131 1486,2130 1469,2130 1468,2129 1460,2129 1459,2130 1455,2130 1454,2131 1445,2131 1444,2130 1438,2130 1437,2129 1432,2129 1431,2130 1422,2130 1421,2129 1414,2129 1413,2130 1405,2130 1404,2131 1393,2131 1392,2130 1359,2130 1358,2131 1352,2131 1351,2130 1309,2130 1308,2131 1304,2131 1303,2130 1276,2130 1275,2129 1267,2129 1266,2130 1252,2130 1251,2129 1248,2129 1247,2128 1242,2128 1241,2127 1224,2127 1223,2128 1151,2128 1150,2127 1147,2127 1146,2126 1142,2126 1141,2125" fill="rgba(151,130,149,0.3)" stroke="rgb(151,130,149)" stroke-width="2" data-block-id="0004" data-name="b-0009" /><text x="1688" y="2287" text-anchor="middle" dominant-baseline="middle" class="block-label" fill="rgb(151,130,149)" stroke="white" stroke-width="3" paint-order="stroke">b-0009</text><polygon points="2621,2613 2620,2614 2591,2614 2590,2615 2559,2615 2558,2616 2545,2616 2544,2617 2536,2617 2535,2618 2515,2618 2514,2619 2509,2619 2508,2620 2507,2620 2506,2621 2505,2621 2504,2622 2504,2623 2503,2624 2503,2625 2502,2626 2502,2628 2501,2629 2501,2632 2500,2633 2500,2640 2499,2641 2499,2740 2500,2741 2500,2773 2499,2774 2499,2966 2500,2967 2500,2995 2501,2996 2501,2997 2506,3002 2521,3002 2522,3001 2539,3001 2540,3000 2557,3000 2558,2999 2574,2999 2575,2998 2589,2998 2590,2997 2605,2997 2606,2998 2618,2998 2619,2999 2628,2999 2629,3000 2661,3000 2662,3001 2666,3001 2667,3000 2702,3000 2703,3001 2722,3001 2723,3000 2737,3000 2738,3001 2774,3001 2775,3000 2823,3000 2824,2999 2832,2999 2833,3000 2934,3000 2935,2999 2937,2999 2938,3000 2947,3000 2948,3001 2980,3001 2981,3000 2991,3000 2992,3001 2996,3001 2997,3000 3007,3000 3008,2999 3013,2999 3014,3000 3028,3000 3029,2999 3035,2999 3036,3000 3052,3000 3053,2999 3099,2999 3100,2998 3112,2998 3113,2999 3159,2999 3160,2998 3172,2998 3173,2997 3178,2997 3179,2998 3206,2998 3207,2997 3232,2997 3233,2998 3273,2998 3274,2999 3295,2999 3296,2998 3301,2998 3302,2997 3313,2997 3314,2998 3349,2998 3350,2997 3362,2997 3363,2998 3396,2998 3397,2997 3400,2997 3401,2996 3404,2996 3405,2997 3408,2997 3409,2998 3415,2998 3416,2999 3432,2999 3433,2998 3442,2998 3443,2997 3454,2997 3455,2998 3459,2998 3460,2999 3516,2999 3517,3000 3525,3000 3526,2999 3567,2999 3568,3000 3569,2999 3578,2999 3579,2998 3624,2998 3625,2997 3647,2997 3648,2998 3660,2998 3661,2997 3666,2997 3667,2998 3677,2998 3678,2999 3694,2999 3695,2998 3720,2998 3721,2997 3735,2997 3736,2998 3740,2998 3741,2999 3743,2999 3744,3000 3746,3000 3747,3001 3751,3001 3752,3000 3755,3000 3756,2999 3759,2999 3760,2998 3764,2998 3765,2997 3768,2997 3769,2996 3777,2996 3778,2997 3783,2997 3784,2998 3804,2998 3805,2999 3809,2999 3810,2998 3814,2998 3815,2997 3839,2997 3840,2996 3904,2996 3905,2995 3921,2995 3922,2994 3938,2994 3939,2993 3940,2993 3941,2992 3941,2991 3942,2990 3942,2989 3943,2988 3943,2986 3944,2985 3944,2983 3945,2982 3945,2980 3946,2979 3946,2972 3947,2971 3947,2951 3946,2950 3946,2941 3947,2940 3947,2905 3946,2904 3946,2889 3947,2888 3947,2881 3946,2880 3946,2848 3947,2847 3947,2823 3948,2822 3948,2816 3949,2815 3949,2813 3948,2812 3948,2805 3947,2804 3947,2793 3946,2792 3946,2761 3945,2760 3945,2713 3944,2712 3944,2706 3943,2705 3943,2688 3944,2687 3944,2677 3943,2676 3943,2665 3944,2664 3944,2633 3943,2632 3943,2624 3942,2623 3942,2621 3941,2620 3941,2619 3939,2617 3938,2617 3937,2616 3931,2616 3930,2615 3877,2615 3876,2614 3858,2614 3857,2615 3834,2615 3833,2616 3829,2616 3828,2615 3769,2615 3768,2616 3764,2616 3763,2617 3760,2617 3759,2618 3746,2618 3745,2619 3738,2619 3737,2620 3718,2620 3717,2621 3710,2621 3709,2622 3693,2622 3692,2621 3650,2621 3649,2620 3576,2620 3575,2621 3546,2621 3545,2620 3527,2620 3526,2621 3493,2621 3492,2620 3402,2620 3401,2619 3398,2619 3397,2618 3392,2618 3391,2617 3353,2617 3352,2618 3335,2618 3334,2619 3314,2619 3313,2620 3299,2620 3298,2619 3290,2619 3289,2620 3255,2620 3254,2619 3242,2619 3241,2620 3219,2620 3218,2621 3194,2621 3193,2622 3182,2622 3181,2621 3178,2621 3177,2620 3172,2620 3171,2619 3140,2619 3139,2618 3126,2618 3125,2619 3101,2619 3100,2618 3076,2618 3075,2617 3066,2617 3065,2618 3048,2618 3047,2617 3030,2617 3029,2618 3002,2618 3001,2617 2984,2617 2983,2618 2969,2618 2968,2619 2966,2619 2965,2620 2961,2620 2960,2621 2953,2621 2952,2620 2935,2620 2934,2621 2927,2621 2926,2622 2923,2622 2922,2621 2908,2621 2907,2620 2878,2620 2877,2621 2852,2621 2851,2620 2835,2620 2834,2621 2814,2621 2813,2620 2774,2620 2773,2621 2770,2621 2769,2620 2762,2620 2761,2619 2751,2619 2750,2620 2742,2620 2741,2619 2726,2619 2725,2620 2720,2620 2719,2619 2712,2619 2711,2618 2694,2618 2693,2619 2672,2619 2671,2618 2668,2618 2667,2617 2664,2617 2663,2616 2648,2616 2647,2615 2643,2615 2642,2614 2635,2614 2634,2613" fill="rgba(52,1,87,0.3)" stroke="rgb(52,1,87)" stroke-width="2" data-block-id="0005" data-name="b-0010" /><text x="3273" y="2807" text-anchor="middle" dominant-baseline="middle" class="block-label" fill="rgb(52,1,87)" stroke="white" stroke-width="3" paint-order="stroke">b-0010</text><polygon points="2765,2126 2764,2127 2745,2127 2744,2128 2741,2128 2740,2129 2738,2129 2737,2130 2734,2130 2733,2131 2720,2131 2719,2130 2706,2130 2705,2131 2672,2131 2671,2130 2666,2130 2665,2129 2661,2129 2660,2130 2656,2130 2655,2131 2653,2131 2652,2132 2651,2132 2650,2131 2646,2131 2645,2130 2641,2130 2640,2129 2611,2129 2610,2128 2601,2128 2600,2129 2597,2129 2596,2130 2593,2130 2592,2131 2590,2131 2589,2132 2585,2132 2584,2133 2582,2133 2581,2134 2576,2134 2575,2133 2570,2133 2569,2132 2561,2132 2560,2133 2545,2133 2544,2134 2537,2134 2536,2135 2514,2135 2513,2136 2509,2136 2506,2139 2506,2140 2505,2141 2505,2142 2504,2143 2504,2147 2503,2148 2503,2496 2504,2497 2504,2502 2505,2503 2505,2504 2507,2506 2508,2506 2509,2507 2517,2507 2518,2508 2521,2508 2522,2507 2538,2507 2539,2508 2545,2508 2546,2507 2553,2507 2554,2506 2572,2506 2573,2505 2579,2505 2580,2504 2581,2504 2582,2505 2597,2505 2598,2504 2609,2504 2610,2505 2623,2505 2624,2506 2636,2506 2637,2507 2641,2507 2642,2506 2655,2506 2656,2507 2683,2507 2684,2508 2690,2508 2691,2507 2706,2507 2707,2508 2712,2508 2713,2507 2742,2507 2743,2506 2749,2506 2750,2507 2755,2507 2756,2508 2762,2508 2763,2507 2775,2507 2776,2508 2810,2508 2811,2507 2833,2507 2834,2506 2837,2506 2838,2505 2860,2505 2861,2504 2872,2504 2873,2505 2912,2505 2913,2504 2916,2504 2917,2505 2931,2505 2932,2504 2937,2504 2938,2505 2943,2505 2944,2506 2968,2506 2969,2507 2975,2507 2976,2506 3001,2506 3002,2505 3013,2505 3014,2506 3021,2506 3022,2507 3050,2507 3051,2506 3063,2506 3064,2507 3071,2507 3072,2506 3079,2506 3080,2505 3084,2505 3085,2506 3095,2506 3096,2505 3109,2505 3110,2506 3138,2506 3139,2505 3145,2505 3146,2504 3148,2504 3149,2503 3158,2503 3159,2504 3198,2504 3199,2505 3216,2505 3217,2504 3221,2504 3222,2503 3230,2503 3231,2504 3242,2504 3243,2503 3248,2503 3249,2504 3256,2504 3257,2505 3262,2505 3263,2504 3284,2504 3285,2503 3299,2503 3300,2504 3306,2504 3307,2505 3308,2505 3309,2504 3328,2504 3329,2505 3333,2505 3334,2504 3346,2504 3347,2505 3358,2505 3359,2504 3361,2504 3362,2503 3364,2503 3365,2502 3370,2502 3371,2503 3395,2503 3396,2504 3406,2504 3407,2503 3412,2503 3413,2502 3416,2502 3417,2503 3423,2503 3424,2504 3430,2504 3431,2503 3442,2503 3443,2504 3450,2504 3451,2505 3482,2505 3483,2504 3490,2504 3491,2505 3507,2505 3508,2504 3514,2504 3515,2505 3523,2505 3524,2504 3529,2504 3530,2503 3538,2503 3539,2504 3590,2504 3591,2505 3595,2505 3596,2504 3603,2504 3604,2503 3625,2503 3626,2504 3648,2504 3649,2503 3669,2503 3670,2502 3695,2502 3696,2501 3706,2501 3707,2502 3719,2502 3720,2501 3729,2501 3730,2502 3739,2502 3740,2501 3759,2501 3760,2500 3769,2500 3770,2499 3792,2499 3793,2498 3800,2498 3801,2499 3812,2499 3813,2500 3821,2500 3822,2501 3837,2501 3838,2502 3861,2502 3862,2503 3866,2503 3867,2504 3875,2504 3876,2505 3880,2505 3881,2504 3884,2504 3885,2503 3889,2503 3890,2502 3928,2502 3929,2501 3931,2501 3932,2500 3933,2500 3934,2499 3935,2499 3936,2498 3938,2498 3941,2495 3941,2494 3942,2493 3942,2491 3943,2490 3943,2483 3944,2482 3944,2466 3943,2465 3943,2417 3942,2416 3942,2403 3943,2402 3943,2390 3944,2389 3944,2336 3943,2335 3943,2309 3944,2308 3944,2297 3945,2296 3945,2281 3944,2280 3944,2271 3943,2270 3943,2143 3942,2142 3942,2132 3941,2131 3941,2130 3938,2127 3937,2128 3930,2128 3929,2129 3925,2129 3924,2128 3895,2128 3894,2127 3876,2127 3875,2126 3861,2126 3860,2127 3848,2127 3847,2126 3843,2126 3842,2127 3824,2127 3823,2126 3817,2126 3816,2127 3779,2127 3778,2126 3770,2126 3769,2127 3768,2127 3766,2129 3765,2129 3764,2130 3763,2130 3762,2131 3759,2131 3758,2130 3757,2130 3756,2129 3755,2129 3754,2128 3752,2128 3751,2127 3743,2127 3742,2128 3731,2128 3730,2127 3721,2127 3720,2128 3715,2128 3714,2129 3710,2129 3709,2128 3679,2128 3678,2127 3676,2127 3675,2128 3667,2128 3666,2129 3663,2129 3662,2128 3636,2128 3635,2127 3627,2127 3626,2128 3624,2128 3623,2129 3621,2129 3620,2130 3613,2130 3612,2129 3610,2129 3609,2128 3597,2128 3596,2129 3591,2129 3590,2128 3584,2128 3583,2127 3579,2127 3578,2128 3569,2128 3568,2129 3567,2128 3554,2128 3553,2129 3549,2129 3548,2130 3542,2130 3541,2129 3535,2129 3534,2128 3513,2128 3512,2127 3508,2127 3507,2128 3495,2128 3494,2127 3487,2127 3486,2126 3481,2126 3480,2127 3455,2127 3454,2128 3429,2128 3428,2127 3419,2127 3418,2128 3411,2128 3410,2129 3394,2129 3393,2128 3388,2128 3387,2129 3370,2129 3369,2128 3362,2128 3361,2127 3353,2127 3352,2128 3349,2128 3348,2129 3343,2129 3342,2130 3337,2130 3336,2129 3309,2129 3308,2130 3304,2130 3303,2129 3279,2129 3278,2128 3275,2128 3274,2127 3270,2127 3269,2128 3267,2128 3266,2129 3263,2129 3262,2130 3235,2130 3234,2129 3227,2129 3226,2128 3221,2128 3220,2129 3211,2129 3210,2130 3209,2130 3208,2129 3196,2129 3195,2130 3183,2130 3182,2129 3169,2129 3168,2130 3146,2130 3145,2129 3132,2129 3131,2128 3126,2128 3125,2129 3119,2129 3118,2130 3106,2130 3105,2129 3104,2130 3088,2130 3087,2129 3050,2129 3049,2130 3043,2130 3042,2129 3039,2129 3038,2128 3028,2128 3027,2129 3024,2129 3023,2130 2996,2130 2995,2129 2976,2129 2975,2130 2957,2130 2956,2129 2942,2129 2941,2128 2932,2128 2931,2129 2903,2129 2902,2128 2886,2128 2885,2129 2883,2129 2882,2130 2867,2130 2866,2129 2851,2129 2850,2128 2823,2128 2822,2127 2797,2127 2796,2126 2792,2126 2791,2127 2774,2127 2773,2126" fill="rgba(235,157,37,0.3)" stroke="rgb(235,157,37)" stroke-width="2" data-block-id="0006" data-name="b-0011" /><text x="3256" y="2306" text-anchor="middle" dominant-baseline="middle" class="block-label" fill="rgb(235,157,37)" stroke="white" stroke-width="3" paint-order="stroke">b-0011</text><polygon points="1353,1224 1352,1225 1285,1225 1284,1226 1271,1226 1270,1225 1249,1225 1248,1226 1238,1226 1237,1225 1234,1225 1233,1226 1202,1226 1201,1227 1108,1227 1107,1226 1055,1226 1054,1225 1040,1225 1039,1226 1024,1226 1023,1227 950,1227 949,1226 924,1226 923,1225 861,1225 860,1226 851,1226 850,1227 847,1227 846,1228 843,1228 841,1230 840,1230 836,1234 836,1235 834,1237 834,1258 835,1259 835,1264 834,1265 834,1274 833,1275 834,1276 834,1291 833,1292 833,1336 832,1337 832,1348 833,1349 833,1354 834,1355 834,1371 833,1372 833,1401 834,1402 834,1406 833,1407 833,1420 832,1421 832,1431 831,1432 831,1452 832,1453 832,1474 831,1475 831,1480 832,1481 832,1498 833,1499 833,1531 834,1532 834,1554 835,1555 835,1559 836,1560 836,1561 839,1564 842,1564 843,1565 1017,1565 1018,1564 1022,1564 1023,1565 1145,1565 1146,1564 1161,1564 1162,1565 1163,1564 1207,1564 1208,1565 1213,1565 1214,1564 1272,1564 1273,1565 1293,1565 1294,1564 1298,1564 1299,1565 1335,1565 1336,1564 1346,1564 1347,1565 1363,1565 1364,1564 1369,1564 1370,1565 1383,1565 1384,1564 1395,1564 1396,1565 1429,1565 1430,1564 1443,1564 1444,1565 1458,1565 1459,1564 1488,1564 1489,1565 1515,1565 1516,1564 1558,1564 1559,1565 1560,1564 1625,1564 1626,1565 1696,1565 1697,1566 1700,1566 1701,1565 1712,1565 1713,1564 1714,1564 1715,1565 1804,1565 1805,1564 1811,1564 1812,1565 1900,1565 1901,1564 1910,1564 1911,1565 1941,1565 1942,1566 1955,1566 1956,1565 2091,1565 2092,1566 2098,1566 2099,1565 2113,1565 2114,1566 2121,1566 2122,1565 2128,1565 2129,1564 2142,1564 2143,1565 2242,1565 2243,1566 2277,1566 2278,1565 2297,1565 2298,1564 2302,1564 2303,1563 2304,1563 2305,1562 2306,1562 2307,1561 2308,1561 2308,1560 2309,1559 2309,1558 2310,1557 2310,1553 2311,1552 2311,1520 2310,1519 2310,1505 2311,1504 2311,1495 2310,1494 2310,1487 2311,1486 2311,1478 2312,1477 2312,1451 2311,1450 2311,1444 2310,1443 2310,1438 2311,1437 2311,1399 2312,1398 2312,1390 2313,1389 2313,1380 2312,1379 2312,1377 2311,1376 2311,1330 2312,1329 2312,1304 2311,1303 2311,1287 2312,1286 2312,1284 2311,1283 2311,1265 2310,1264 2310,1261 2311,1260 2311,1257 2312,1256 2312,1252 2313,1251 2313,1238 2312,1237 2312,1236 2309,1233 2309,1232 2307,1230 2306,1230 2304,1228 2302,1228 2301,1227 2299,1227 2298,1226 2265,1226 2264,1227 2259,1227 2258,1226 2221,1226 2220,1227 2215,1227 2214,1228 2210,1228 2209,1227 2169,1227 2168,1228 2137,1228 2136,1227 2128,1227 2127,1228 2077,1228 2076,1229 2043,1229 2042,1228 1997,1228 1996,1227 1991,1227 1990,1226 1970,1226 1969,1227 1961,1227 1960,1226 1930,1226 1929,1227 1912,1227 1911,1226 1880,1226 1879,1227 1865,1227 1864,1226 1837,1226 1836,1227 1804,1227 1803,1226 1789,1226 1788,1227 1772,1227 1771,1226 1693,1226 1692,1225 1683,1225 1682,1226 1667,1226 1666,1227 1620,1227 1619,1226 1471,1226 1470,1225 1439,1225 1438,1226 1387,1226 1386,1225 1358,1225 1357,1224" fill="rgba(129,191,187,0.3)" stroke="rgb(129,191,187)" stroke-width="2" data-block-id="0007" data-name="b-0012" /><text x="1641" y="1389" text-anchor="middle" dominant-baseline="middle" class="block-label" fill="rgb(129,191,187)" stroke="white" stroke-width="3" paint-order="stroke">b-0012</text><polygon points="1350,770 1349,771 1338,771 1337,772 1322,772 1321,771 1316,771 1315,772 1300,772 1299,771 1292,771 1291,772 1285,772 1284,773 1280,773 1279,772 1262,772 1261,773 1256,773 1255,772 1245,772 1244,773 1213,773 1212,774 1204,774 1203,775 1199,775 1198,776 1192,776 1191,777 1160,777 1159,778 1142,778 1141,777 1140,778 1132,778 1131,779 1121,779 1120,778 1082,778 1081,779 1079,779 1078,778 1027,778 1026,777 1018,777 1017,776 1012,776 1011,775 1003,775 1002,774 985,774 984,773 978,773 977,772 965,772 964,773 946,773 945,774 920,774 919,773 890,773 889,772 851,772 850,773 843,773 842,774 841,774 838,777 838,778 837,779 837,804 838,805 838,816 837,817 837,829 838,830 838,850 837,851 837,867 838,868 838,882 837,883 837,952 838,953 838,991 837,992 837,1000 838,1001 838,1028 837,1029 837,1056 838,1057 838,1058 837,1059 837,1074 836,1075 836,1081 835,1082 835,1103 836,1104 836,1105 840,1109 841,1109 842,1110 844,1110 845,1111 847,1111 848,1112 850,1112 851,1113 856,1113 857,1112 859,1112 860,1111 872,1111 873,1112 892,1112 893,1113 895,1113 896,1114 898,1114 899,1115 912,1115 913,1116 926,1116 927,1115 928,1115 930,1113 931,1113 932,1112 933,1112 934,1111 942,1111 943,1112 952,1112 953,1111 956,1111 957,1110 958,1110 959,1109 974,1109 975,1110 977,1110 978,1111 979,1111 980,1112 981,1112 983,1114 987,1114 988,1115 1001,1115 1002,1114 1010,1114 1011,1113 1017,1113 1018,1112 1022,1112 1023,1111 1028,1111 1029,1110 1035,1110 1036,1111 1051,1111 1052,1110 1060,1110 1061,1111 1075,1111 1076,1110 1083,1110 1084,1111 1091,1111 1092,1112 1093,1112 1094,1111 1109,1111 1110,1112 1120,1112 1121,1111 1125,1111 1126,1110 1131,1110 1132,1111 1155,1111 1156,1112 1184,1112 1185,1113 1189,1113 1190,1112 1195,1112 1196,1111 1203,1111 1204,1112 1210,1112 1211,1113 1227,1113 1228,1114 1231,1114 1232,1115 1239,1115 1240,1114 1243,1114 1244,1113 1265,1113 1266,1112 1292,1112 1293,1113 1337,1113 1338,1112 1363,1112 1364,1111 1385,1111 1386,1110 1393,1110 1394,1111 1399,1111 1400,1112 1421,1112 1422,1111 1472,1111 1473,1112 1481,1112 1482,1113 1498,1113 1499,1114 1511,1114 1512,1113 1516,1113 1517,1112 1529,1112 1530,1113 1561,1113 1562,1114 1670,1114 1671,1115 1705,1115 1706,1116 1715,1116 1716,1115 1759,1115 1760,1116 1785,1116 1786,1115 1802,1115 1803,1114 1813,1114 1814,1113 1826,1113 1827,1112 1863,1112 1864,1111 1870,1111 1871,1112 1891,1112 1892,1111 1908,1111 1909,1110 2008,1110 2009,1109 2012,1109 2013,1110 2025,1110 2026,1109 2033,1109 2034,1108 2039,1108 2040,1109 2053,1109 2054,1110 2065,1110 2066,1109 2071,1109 2072,1110 2074,1110 2075,1111 2076,1111 2077,1112 2079,1112 2080,1113 2127,1113 2128,1112 2132,1112 2133,1113 2144,1113 2145,1114 2163,1114 2164,1115 2211,1115 2212,1116 2215,1116 2216,1115 2244,1115 2245,1114 2256,1114 2257,1115 2264,1115 2265,1114 2283,1114 2284,1115 2286,1115 2287,1114 2291,1114 2292,1113 2294,1113 2295,1112 2297,1112 2298,1111 2300,1111 2301,1110 2302,1110 2303,1109 2304,1109 2305,1108 2306,1108 2309,1105 2309,1104 2310,1103 2310,1089 2311,1088 2311,1077 2310,1076 2310,1073 2309,1072 2309,1060 2310,1059 2310,1052 2309,1051 2309,1044 2308,1043 2308,1028 2309,1027 2309,1024 2310,1023 2310,1005 2311,1004 2311,951 2312,950 2312,897 2311,896 2311,867 2310,866 2310,835 2311,834 2311,821 2310,820 2310,801 2311,800 2311,791 2310,790 2310,787 2309,786 2309,784 2308,783 2308,782 2307,781 2306,781 2305,780 2304,780 2303,779 2299,779 2298,778 2278,778 2277,777 2241,777 2240,778 2233,778 2232,777 2228,777 2227,776 2225,776 2224,775 2223,775 2222,774 2221,774 2218,771 2216,771 2215,770 2212,770 2211,771 2210,771 2208,773 2207,773 2206,774 2205,774 2204,775 2203,775 2202,776 2187,776 2186,775 2133,775 2132,774 2131,774 2130,775 2126,775 2125,776 2122,776 2121,777 2109,777 2108,776 2091,776 2090,775 2076,775 2075,776 2053,776 2052,775 2018,775 2017,774 2007,774 2006,775 1983,775 1982,776 1955,776 1954,775 1896,775 1895,774 1887,774 1886,775 1851,775 1850,774 1837,774 1836,775 1827,775 1826,774 1806,774 1805,773 1789,773 1788,774 1782,774 1781,773 1776,773 1775,772 1770,772 1769,773 1764,773 1763,774 1755,774 1754,773 1744,773 1743,774 1729,774 1728,773 1707,773 1706,772 1697,772 1696,773 1661,773 1660,772 1649,772 1648,773 1640,773 1639,774 1638,773 1625,773 1624,774 1614,774 1613,773 1600,773 1599,774 1578,774 1577,773 1568,773 1567,772 1560,772 1559,771 1556,771 1555,772 1548,772 1547,773 1538,773 1537,772 1527,772 1526,773 1522,773 1521,772 1513,772 1512,771 1507,771 1506,772 1500,772 1499,773 1494,773 1493,772 1456,772 1455,773 1421,773 1420,772 1409,772 1408,771 1397,771 1396,770 1386,770 1385,771 1382,771 1381,772 1374,772 1373,771 1367,771 1366,770" fill="rgba(20,160,203,0.3)" stroke="rgb(20,160,203)" stroke-width="2" data-block-id="0008" data-name="b-0013" /><text x="1557" y="944" text-anchor="middle" dominant-baseline="middle" class="block-label" fill="rgb(20,160,203)" stroke="white" stroke-width="3" paint-order="stroke">b-0013</text><polygon points="875,1676 874,1677 842,1677 841,1678 839,1678 836,1681 836,1683 835,1684 835,1686 834,1687 834,1732 835,1733 835,1760 836,1761 836,1764 835,1765 835,1772 834,1773 834,1801 835,1802 835,1823 834,1824 834,1854 835,1855 835,1866 834,1867 834,1880 833,1881 833,1887 834,1888 834,1923 833,1924 833,1942 834,1943 834,1970 833,1971 833,1999 834,2000 834,2003 835,2004 835,2005 836,2006 836,2007 837,2008 837,2009 840,2012 841,2012 842,2013 858,2013 859,2014 906,2014 907,2015 944,2015 945,2014 957,2014 958,2013 968,2013 969,2012 975,2012 976,2013 980,2013 981,2014 986,2014 987,2015 1001,2015 1002,2014 1014,2014 1015,2013 1021,2013 1022,2014 1029,2014 1030,2015 1040,2015 1041,2014 1055,2014 1056,2013 1099,2013 1100,2014 1108,2014 1109,2013 1149,2013 1150,2014 1155,2014 1156,2013 1166,2013 1167,2014 1171,2014 1172,2015 1202,2015 1203,2014 1218,2014 1219,2015 1230,2015 1231,2014 1241,2014 1242,2015 1249,2015 1250,2014 1253,2014 1254,2013 1259,2013 1260,2012 1263,2012 1264,2013 1271,2013 1272,2012 1278,2012 1279,2011 1287,2011 1288,2012 1293,2012 1294,2013 1312,2013 1313,2014 1327,2014 1328,2013 1345,2013 1346,2014 1391,2014 1392,2015 1422,2015 1423,2014 1429,2014 1430,2015 1480,2015 1481,2014 1548,2014 1549,2015 1578,2015 1579,2014 1587,2014 1588,2015 1609,2015 1610,2014 1620,2014 1621,2015 1651,2015 1652,2014 1670,2014 1671,2015 1685,2015 1686,2014 1693,2014 1694,2015 1709,2015 1710,2014 1715,2014 1716,2015 1772,2015 1773,2016 1794,2016 1795,2015 1806,2015 1807,2014 1809,2014 1810,2015 1871,2015 1872,2014 1884,2014 1885,2015 1899,2015 1900,2014 1941,2014 1942,2015 1969,2015 1970,2014 1979,2014 1980,2015 1996,2015 1997,2014 2065,2014 2066,2013 2096,2013 2097,2014 2133,2014 2134,2015 2157,2015 2158,2014 2175,2014 2176,2013 2178,2013 2179,2014 2211,2014 2212,2013 2215,2013 2216,2014 2229,2014 2230,2015 2247,2015 2248,2014 2288,2014 2289,2013 2295,2013 2296,2012 2298,2012 2300,2010 2301,2010 2304,2007 2304,2006 2306,2004 2306,2002 2307,2001 2307,1995 2308,1994 2308,1970 2307,1969 2307,1964 2308,1963 2308,1948 2307,1947 2307,1944 2306,1943 2306,1935 2305,1934 2305,1908 2306,1907 2306,1905 2307,1904 2307,1903 2308,1902 2308,1891 2309,1890 2309,1879 2308,1878 2308,1854 2307,1853 2307,1848 2306,1847 2306,1838 2305,1837 2305,1825 2304,1824 2304,1812 2305,1811 2305,1810 2307,1808 2307,1807 2308,1806 2308,1803 2309,1802 2309,1762 2308,1761 2308,1729 2307,1728 2307,1726 2308,1725 2308,1717 2309,1716 2309,1706 2310,1705 2310,1702 2309,1701 2309,1692 2308,1691 2308,1690 2304,1686 2303,1686 2302,1685 2300,1685 2299,1684 2297,1684 2296,1683 2295,1683 2294,1682 2291,1682 2290,1681 2244,1681 2243,1680 2238,1680 2237,1681 2219,1681 2218,1680 2169,1680 2168,1679 2123,1679 2122,1680 2103,1680 2102,1679 2091,1679 2090,1680 2083,1680 2082,1681 2078,1681 2077,1680 2051,1680 2050,1679 2040,1679 2039,1680 2032,1680 2031,1679 2005,1679 2004,1678 1978,1678 1977,1677 1961,1677 1960,1678 1922,1678 1921,1679 1914,1679 1913,1678 1906,1678 1905,1677 1876,1677 1875,1678 1863,1678 1862,1677 1838,1677 1837,1678 1811,1678 1810,1677 1801,1677 1800,1678 1792,1678 1791,1677 1781,1677 1780,1678 1766,1678 1765,1677 1755,1677 1754,1678 1620,1678 1619,1677 1615,1677 1614,1678 1551,1678 1550,1677 1518,1677 1517,1678 1501,1678 1500,1677 1486,1677 1485,1678 1406,1678 1405,1677 1375,1677 1374,1678 1356,1678 1355,1677 1353,1677 1352,1678 1334,1678 1333,1677 1328,1677 1327,1678 1285,1678 1284,1677 1281,1677 1280,1678 1263,1678 1262,1677 1254,1677 1253,1678 1243,1678 1242,1677 1227,1677 1226,1678 1219,1678 1218,1677 1207,1677 1206,1678 1192,1678 1191,1677 1183,1677 1182,1678 1166,1678 1165,1679 1163,1679 1162,1678 1152,1678 1151,1677 1137,1677 1136,1678 1053,1678 1052,1677 1027,1677 1026,1676 1019,1676 1018,1677 1015,1677 1014,1678 1000,1678 999,1677 992,1677 991,1678 981,1678 980,1677 975,1677 974,1676 968,1676 967,1677 958,1677 957,1678 932,1678 931,1677 893,1677 892,1678 888,1678 887,1677 879,1677 878,1676" fill="rgba(57,21,252,0.3)" stroke="rgb(57,21,252)" stroke-width="2" data-block-id="0009" data-name="b-0014" /><text x="1574" y="1849" text-anchor="middle" dominant-baseline="middle" class="block-label" fill="rgb(57,21,252)" stroke="white" stroke-width="3" paint-order="stroke">b-0014</text><polygon points="2780,777 2779,778 2757,778 2756,779 2753,779 2752,780 2748,780 2747,781 2746,781 2745,780 2741,780 2740,779 2726,779 2725,780 2708,780 2707,781 2695,781 2694,780 2689,780 2688,779 2685,779 2684,780 2679,780 2678,781 2673,781 2672,782 2660,782 2659,783 2650,783 2649,784 2633,784 2632,785 2616,785 2615,786 2582,786 2581,787 2577,787 2576,786 2570,786 2569,785 2551,785 2550,784 2547,784 2546,783 2544,783 2543,782 2535,782 2534,783 2530,783 2529,782 2523,782 2522,781 2509,781 2508,782 2506,782 2505,783 2504,783 2502,785 2501,785 2501,786 2499,788 2499,789 2498,790 2498,793 2497,794 2497,807 2498,808 2498,823 2497,824 2497,834 2498,835 2498,861 2497,862 2497,897 2498,898 2498,942 2499,943 2499,951 2498,952 2498,964 2499,965 2499,1002 2498,1003 2498,1018 2499,1019 2499,1047 2498,1048 2498,1096 2499,1097 2499,1105 2500,1106 2500,1114 2501,1115 2501,1116 2502,1117 2502,1118 2506,1122 2521,1122 2522,1123 2541,1123 2542,1122 2554,1122 2555,1123 2585,1123 2586,1124 2617,1124 2618,1123 2624,1123 2625,1122 2672,1122 2673,1123 2677,1123 2678,1122 2691,1122 2692,1121 2697,1121 2698,1120 2722,1120 2723,1119 2737,1119 2738,1118 2747,1118 2748,1117 2758,1117 2759,1116 2760,1117 2798,1117 2799,1116 2803,1116 2804,1115 2807,1115 2808,1116 2811,1116 2812,1117 2859,1117 2860,1118 2931,1118 2932,1117 2953,1117 2954,1118 2968,1118 2969,1117 3004,1117 3005,1118 3015,1118 3016,1117 3045,1117 3046,1118 3073,1118 3074,1117 3097,1117 3098,1118 3109,1118 3110,1117 3148,1117 3149,1118 3153,1118 3154,1117 3173,1117 3174,1118 3208,1118 3209,1117 3238,1117 3239,1118 3253,1118 3254,1117 3300,1117 3301,1116 3311,1116 3312,1115 3319,1115 3320,1116 3323,1116 3324,1117 3328,1117 3329,1118 3330,1118 3331,1117 3335,1117 3336,1116 3338,1116 3340,1114 3342,1114 3343,1113 3345,1113 3346,1114 3350,1114 3351,1115 3363,1115 3364,1116 3431,1116 3432,1117 3489,1117 3490,1118 3506,1118 3507,1117 3520,1117 3521,1118 3552,1118 3553,1117 3573,1117 3574,1118 3599,1118 3600,1117 3624,1117 3625,1118 3644,1118 3645,1117 3655,1117 3656,1116 3674,1116 3675,1117 3691,1117 3692,1116 3707,1116 3708,1115 3729,1115 3730,1116 3742,1116 3743,1115 3754,1115 3755,1114 3763,1114 3764,1115 3774,1115 3775,1116 3788,1116 3789,1115 3792,1115 3793,1114 3803,1114 3804,1115 3822,1115 3823,1114 3835,1114 3836,1115 3851,1115 3852,1116 3857,1116 3858,1115 3861,1115 3862,1114 3865,1114 3866,1113 3870,1113 3871,1114 3876,1114 3877,1115 3881,1115 3882,1114 3884,1114 3885,1113 3887,1113 3888,1112 3897,1112 3898,1113 3906,1113 3907,1112 3908,1112 3909,1111 3911,1111 3912,1110 3923,1110 3924,1111 3926,1111 3927,1110 3928,1110 3929,1109 3929,1108 3930,1107 3930,1106 3931,1105 3931,1104 3932,1103 3932,1100 3933,1099 3933,1095 3934,1094 3934,1039 3933,1038 3933,1025 3934,1024 3934,1002 3935,1001 3935,992 3934,991 3934,987 3933,986 3933,959 3934,958 3934,944 3933,943 3933,895 3932,894 3932,874 3931,873 3931,857 3932,856 3932,851 3931,850 3931,845 3930,844 3930,835 3931,834 3931,825 3930,824 3930,818 3929,817 3929,802 3928,801 3928,799 3927,798 3927,797 3926,796 3926,795 3925,794 3924,794 3923,793 3922,793 3921,792 3919,792 3918,791 3916,791 3915,790 3914,790 3912,788 3911,788 3909,786 3908,786 3906,784 3905,784 3904,783 3903,783 3902,782 3898,782 3897,781 3892,781 3891,780 3849,780 3848,781 3844,781 3843,780 3841,780 3840,779 3836,779 3835,778 3829,778 3828,779 3819,779 3818,780 3789,780 3788,779 3778,779 3777,780 3768,780 3767,781 3756,781 3755,780 3751,780 3750,779 3731,779 3730,780 3698,780 3697,779 3669,779 3668,780 3653,780 3652,779 3644,779 3643,778 3625,778 3624,779 3621,779 3620,780 3603,780 3602,779 3576,779 3575,780 3560,780 3559,779 3546,779 3545,780 3520,780 3519,779 3500,779 3499,778 3496,778 3495,779 3477,779 3476,778 3472,778 3471,779 3457,779 3456,778 3444,778 3443,779 3388,779 3387,780 3378,780 3377,781 3367,781 3366,780 3360,780 3359,779 3345,779 3344,780 3336,780 3335,779 3324,779 3323,780 3314,780 3313,779 3307,779 3306,780 3268,780 3267,779 3253,779 3252,780 3243,780 3242,781 3235,781 3234,782 3233,782 3232,781 3207,781 3206,780 3202,780 3201,779 3190,779 3189,780 3179,780 3178,779 3177,779 3176,780 3143,780 3142,779 3133,779 3132,780 3127,780 3126,779 3106,779 3105,780 3077,780 3076,779 3054,779 3053,780 3049,780 3048,781 3036,781 3035,780 3027,780 3026,781 3006,781 3005,782 2984,782 2983,781 2978,781 2977,780 2974,780 2973,779 2967,779 2966,778 2955,778 2954,779 2928,779 2927,778 2916,778 2915,777 2914,777 2913,778 2908,778 2907,779 2903,779 2902,780 2894,780 2893,779 2876,779 2875,780 2860,780 2859,781 2846,781 2845,780 2836,780 2835,781 2828,781 2827,780 2825,780 2824,779 2822,779 2821,778 2818,778 2817,777 2813,777 2812,778 2784,778 2783,777" fill="rgba(207,14,189,0.3)" stroke="rgb(207,14,189)" stroke-width="2" data-block-id="0010" data-name="b-0018" /><text x="3258" y="924" text-anchor="middle" dominant-baseline="middle" class="block-label" fill="rgb(207,14,189)" stroke="white" stroke-width="3" paint-order="stroke">b-0018</text><polygon points="3363,1227 3362,1228 3358,1228 3357,1229 3346,1229 3345,1228 3336,1228 3335,1229 3330,1229 3329,1228 3311,1228 3310,1229 3296,1229 3295,1228 3272,1228 3271,1229 3238,1229 3237,1230 3230,1230 3229,1229 3222,1229 3221,1230 3196,1230 3195,1229 3169,1229 3168,1230 3158,1230 3157,1229 3083,1229 3082,1228 3079,1228 3078,1229 3071,1229 3070,1230 3061,1230 3060,1229 3050,1229 3049,1230 3039,1230 3038,1229 2987,1229 2986,1228 2985,1228 2984,1229 2978,1229 2977,1230 2964,1230 2963,1229 2908,1229 2907,1230 2897,1230 2896,1229 2893,1229 2892,1228 2881,1228 2880,1229 2871,1229 2870,1228 2863,1228 2862,1229 2810,1229 2809,1230 2803,1230 2802,1229 2787,1229 2786,1230 2667,1230 2666,1231 2656,1231 2655,1230 2647,1230 2646,1231 2610,1231 2609,1232 2595,1232 2594,1233 2577,1233 2576,1232 2570,1232 2569,1231 2563,1231 2562,1232 2549,1232 2548,1231 2526,1231 2525,1230 2509,1230 2508,1231 2505,1231 2504,1232 2503,1232 2500,1235 2500,1236 2499,1237 2499,1279 2498,1280 2498,1352 2499,1353 2499,1379 2498,1380 2498,1384 2499,1385 2499,1535 2500,1536 2500,1544 2501,1545 2501,1561 2505,1565 2507,1565 2508,1566 2552,1566 2553,1567 2569,1567 2570,1566 2587,1566 2588,1567 2597,1567 2598,1566 2639,1566 2640,1567 2656,1567 2657,1566 2669,1566 2670,1567 2715,1567 2716,1566 2791,1566 2792,1567 2799,1567 2800,1566 2810,1566 2811,1567 2821,1567 2822,1566 2836,1566 2837,1567 2849,1567 2850,1566 2882,1566 2883,1567 2894,1567 2895,1566 3061,1566 3062,1565 3071,1565 3072,1566 3098,1566 3099,1565 3154,1565 3155,1564 3169,1564 3170,1565 3205,1565 3206,1564 3213,1564 3214,1565 3252,1565 3253,1564 3260,1564 3261,1565 3292,1565 3293,1564 3315,1564 3316,1565 3324,1565 3325,1564 3409,1564 3410,1565 3479,1565 3480,1564 3500,1564 3501,1565 3530,1565 3531,1564 3540,1564 3541,1565 3556,1565 3557,1564 3613,1564 3614,1563 3625,1563 3626,1564 3663,1564 3664,1563 3717,1563 3718,1562 3728,1562 3729,1563 3734,1563 3735,1564 3739,1564 3740,1563 3751,1563 3752,1562 3838,1562 3839,1561 3841,1561 3842,1560 3868,1560 3869,1561 3876,1561 3877,1562 3883,1562 3884,1561 3908,1561 3909,1560 3925,1560 3926,1561 3927,1560 3929,1560 3930,1559 3931,1559 3932,1558 3932,1556 3933,1555 3933,1552 3934,1551 3934,1548 3935,1547 3935,1541 3936,1540 3936,1522 3937,1521 3937,1519 3938,1518 3938,1517 3939,1516 3939,1515 3940,1514 3940,1511 3939,1510 3939,1508 3938,1507 3938,1505 3937,1504 3937,1492 3938,1491 3938,1485 3937,1484 3937,1474 3938,1473 3938,1470 3939,1469 3939,1467 3940,1466 3940,1465 3939,1464 3939,1462 3938,1461 3938,1459 3937,1458 3937,1455 3936,1454 3936,1448 3937,1447 3937,1427 3936,1426 3936,1423 3935,1422 3935,1417 3934,1416 3934,1411 3933,1410 3933,1397 3934,1396 3934,1384 3933,1383 3934,1382 3934,1378 3935,1377 3935,1371 3936,1370 3936,1369 3935,1368 3935,1361 3934,1360 3934,1330 3935,1329 3935,1307 3934,1306 3934,1282 3935,1281 3935,1238 3934,1237 3934,1236 3930,1232 3928,1232 3927,1231 3920,1231 3919,1232 3914,1232 3913,1231 3908,1231 3907,1230 3884,1230 3883,1231 3841,1231 3840,1230 3815,1230 3814,1229 3789,1229 3788,1228 3775,1228 3774,1229 3771,1229 3770,1228 3742,1228 3741,1229 3713,1229 3712,1228 3687,1228 3686,1229 3681,1229 3680,1230 3666,1230 3665,1229 3644,1229 3643,1228 3619,1228 3618,1229 3615,1229 3614,1228 3602,1228 3601,1229 3570,1229 3569,1228 3422,1228 3421,1227 3409,1227 3408,1228 3375,1228 3374,1227" fill="rgba(189,174,189,0.3)" stroke="rgb(189,174,189)" stroke-width="2" data-block-id="0011" data-name="b-0019" /><text x="3351" y="1389" text-anchor="middle" dominant-baseline="middle" class="block-label" fill="rgb(189,174,189)" stroke="white" stroke-width="3" paint-order="stroke">b-0019</text><polygon points="3708,1674 3707,1675 3698,1675 3697,1676 3655,1676 3654,1677 3568,1677 3567,1678 3531,1678 3530,1677 3422,1677 3421,1678 3415,1678 3414,1677 3393,1677 3392,1678 3357,1678 3356,1677 3352,1677 3351,1678 3286,1678 3285,1679 3279,1679 3278,1678 3232,1678 3231,1679 3216,1679 3215,1678 3209,1678 3208,1679 3166,1679 3165,1678 3164,1678 3163,1679 3142,1679 3141,1680 3119,1680 3118,1679 3114,1679 3113,1680 3035,1680 3034,1681 3031,1681 3030,1680 3017,1680 3016,1681 2996,1681 2995,1682 2956,1682 2955,1681 2922,1681 2921,1682 2916,1682 2915,1683 2912,1683 2911,1682 2907,1682 2906,1681 2881,1681 2880,1680 2875,1680 2874,1681 2848,1681 2847,1680 2837,1680 2836,1681 2824,1681 2823,1682 2820,1682 2819,1683 2813,1683 2812,1682 2788,1682 2787,1681 2779,1681 2778,1682 2756,1682 2755,1681 2677,1681 2676,1682 2661,1682 2660,1681 2631,1681 2630,1682 2623,1682 2622,1681 2604,1681 2603,1682 2544,1682 2543,1683 2524,1683 2523,1682 2517,1682 2516,1683 2506,1683 2505,1684 2504,1684 2500,1688 2500,1689 2499,1690 2499,1707 2500,1708 2500,1725 2499,1726 2499,1732 2500,1733 2500,1771 2499,1772 2499,1778 2500,1779 2500,1797 2499,1798 2499,1799 2500,1800 2500,1825 2501,1826 2501,1863 2500,1864 2500,1873 2501,1874 2501,1938 2500,1939 2500,1945 2501,1946 2501,1986 2500,1987 2500,1991 2501,1992 2501,2003 2502,2004 2502,2006 2503,2007 2503,2008 2504,2009 2504,2010 2506,2012 2508,2012 2509,2013 2534,2013 2535,2012 2543,2012 2544,2013 2575,2013 2576,2012 2598,2012 2599,2013 2611,2013 2612,2014 2622,2014 2623,2013 2635,2013 2636,2014 2660,2014 2661,2013 2674,2013 2675,2014 2704,2014 2705,2013 2745,2013 2746,2012 2783,2012 2784,2013 2799,2013 2800,2014 2824,2014 2825,2013 2832,2013 2833,2014 2876,2014 2877,2015 2906,2015 2907,2014 3003,2014 3004,2013 3079,2013 3080,2014 3091,2014 3092,2013 3185,2013 3186,2012 3189,2012 3190,2013 3205,2013 3206,2012 3350,2012 3351,2011 3358,2011 3359,2012 3370,2012 3371,2011 3431,2011 3432,2012 3444,2012 3445,2011 3487,2011 3488,2010 3501,2010 3502,2011 3506,2011 3507,2012 3520,2012 3521,2013 3550,2013 3551,2012 3576,2012 3577,2013 3583,2013 3584,2012 3598,2012 3599,2013 3649,2013 3650,2012 3734,2012 3735,2011 3736,2012 3770,2012 3771,2013 3775,2013 3776,2012 3859,2012 3860,2011 3929,2011 3930,2010 3935,2010 3936,2009 3937,2009 3938,2008 3939,2008 3941,2006 3941,2005 3942,2004 3942,2003 3943,2002 3943,1985 3942,1984 3942,1959 3943,1958 3943,1955 3942,1954 3942,1937 3941,1936 3941,1927 3942,1926 3942,1915 3943,1914 3943,1908 3944,1907 3944,1903 3943,1902 3943,1869 3944,1868 3944,1854 3943,1853 3943,1841 3942,1840 3942,1830 3943,1829 3943,1780 3944,1779 3944,1757 3943,1756 3943,1744 3942,1743 3942,1736 3943,1735 3943,1689 3942,1688 3942,1686 3941,1685 3941,1683 3940,1682 3940,1681 3939,1680 3938,1680 3936,1678 3934,1678 3933,1677 3927,1677 3926,1676 3925,1677 3908,1677 3907,1676 3875,1676 3874,1675 3862,1675 3861,1676 3828,1676 3827,1675 3816,1675 3815,1676 3795,1676 3794,1675 3775,1675 3774,1676 3744,1676 3743,1677 3728,1677 3727,1676 3719,1676 3718,1675 3714,1675 3713,1674" fill="rgba(50,107,54,0.3)" stroke="rgb(50,107,54)" stroke-width="2" data-block-id="0012" data-name="b-0020" /><text x="3220" y="1829" text-anchor="middle" dominant-baseline="middle" class="block-label" fill="rgb(50,107,54)" stroke="white" stroke-width="3" paint-order="stroke">b-0020</text></g>
</svg>