<?xml version='1.0' encoding='utf-8'?>
<svg xmlns="http://www.w3.org/2000/svg" xmlns:atlas="http://example.com/atlas" width="4984" height="3232" viewBox="0 0 4984 3232">
  
  <metadata>
    <atlas:source>
      <atlas:jp2-path>/Users/pwright/workspace/atlas/media/v2/p24.jp2</atlas:jp2-path>
      <atlas:volume>unknown</atlas:volume>
      <atlas:plate-id>p24</atlas:plate-id>
      <atlas:image-width>4984</atlas:image-width>
      <atlas:image-height>3232</atlas:image-height>
    </atlas:source>
  </metadata>

  
  <image id="background" href="file:///Users/pwright/workspace/atlas/media/v2/p24.jp2" width="4984" height="3232" opacity="0.5" />

  <style>
    .block-label { font-family: sans-serif; font-size: 14px; font-weight: bold; }
  </style>

  
  <g id="blocks">
    <polygon points="2084,1577 2083,1578 2049,1578 2048,1579 2039,1579 2038,1580 2032,1580 2031,1581 2029,1581 2028,1582 2027,1582 2026,1583 2025,1583 2022,1586 2022,1587 2021,1588 2021,1596 2020,1597 2020,1610 2019,1611 2019,1620 2018,1621 2018,1634 2019,1635 2019,1680 2018,1681 2018,1697 2017,1698 2017,1706 2018,1707 2018,1718 2019,1719 2019,1769 2018,1770 2018,1796 2019,1797 2019,1836 2018,1837 2018,1870 2019,1871 2019,1890 2018,1891 2018,1900 2019,1901 2019,1909 2020,1910 2020,1916 2021,1917 2021,1919 2022,1920 2022,1921 2026,1925 2027,1925 2028,1926 2029,1926 2030,1927 2033,1927 2034,1928 2095,1928 2096,1929 2104,1929 2105,1930 2179,1930 2180,1931 2254,1931 2255,1932 2263,1932 2264,1933 2274,1933 2275,1932 2333,1932 2334,1933 2341,1933 2342,1934 2352,1934 2353,1933 2380,1933 2381,1934 2392,1934 2393,1933 2404,1933 2405,1934 2412,1934 2413,1935 2420,1935 2421,1936 2430,1936 2431,1935 2491,1935 2492,1936 2509,1936 2510,1935 2555,1935 2556,1934 2563,1934 2564,1935 2576,1935 2577,1936 2581,1936 2582,1935 2594,1935 2595,1934 2607,1934 2608,1935 2623,1935 2624,1934 2634,1934 2635,1933 2636,1933 2637,1934 2645,1934 2646,1935 2651,1935 2652,1936 2664,1936 2665,1935 2691,1935 2692,1936 2708,1936 2709,1935 2717,1935 2718,1936 2729,1936 2730,1937 2739,1937 2740,1936 2748,1936 2749,1935 2762,1935 2763,1936 2790,1936 2791,1935 2792,1936 2805,1936 2806,1937 2826,1937 2827,1936 2837,1936 2838,1937 2865,1937 2866,1936 2872,1936 2873,1937 2880,1937 2881,1938 2887,1938 2888,1939 2897,1939 2898,1938 2924,1938 2925,1939 2933,1939 2934,1938 2962,1938 2963,1939 2974,1939 2975,1938 2995,1938 2996,1939 3024,1939 3025,1938 3058,1938 3059,1937 3072,1937 3073,1938 3083,1938 3084,1939 3090,1939 3091,1938 3111,1938 3112,1939 3133,1939 3134,1938 3141,1938 3142,1937 3148,1937 3149,1936 3153,1936 3154,1935 3157,1935 3158,1934 3160,1934 3161,1933 3161,1931 3162,1930 3162,1929 3163,1928 3163,1926 3164,1925 3164,1923 3165,1922 3165,1918 3166,1917 3166,1867 3165,1866 3165,1849 3166,1848 3166,1829 3167,1828 3167,1804 3168,1803 3168,1802 3167,1801 3167,1791 3166,1790 3166,1760 3167,1759 3167,1735 3168,1734 3168,1717 3167,1716 3167,1709 3166,1708 3166,1689 3167,1688 3167,1666 3168,1665 3168,1618 3169,1617 3169,1604 3168,1603 3168,1602 3166,1600 3166,1599 3164,1597 3163,1597 3161,1595 3159,1595 3158,1594 3155,1594 3154,1593 3149,1593 3148,1592 3139,1592 3138,1591 3127,1591 3126,1590 3120,1590 3119,1591 3095,1591 3094,1590 3082,1590 3081,1591 3077,1591 3076,1592 3072,1592 3071,1593 3057,1593 3056,1592 3050,1592 3049,1591 3040,1591 3039,1590 3028,1590 3027,1589 3017,1589 3016,1588 2980,1588 2979,1587 2972,1587 2971,1586 2932,1586 2931,1587 2907,1587 2906,1586 2875,1586 2874,1585 2868,1585 2867,1586 2830,1586 2829,1585 2807,1585 2806,1584 2739,1584 2738,1585 2736,1585 2735,1584 2721,1584 2720,1583 2688,1583 2687,1584 2656,1584 2655,1583 2571,1583 2570,1582 2547,1582 2546,1583 2536,1583 2535,1582 2520,1582 2519,1581 2517,1581 2516,1582 2496,1582 2495,1581 2467,1581 2466,1582 2457,1582 2456,1581 2412,1581 2411,1580 2396,1580 2395,1581 2373,1581 2372,1580 2351,1580 2350,1581 2345,1581 2344,1580 2333,1580 2332,1579 2319,1579 2318,1580 2294,1580 2293,1579 2271,1579 2270,1580 2264,1580 2263,1579 2235,1579 2234,1580 2226,1580 2225,1579 2186,1579 2185,1578 2173,1578 2172,1577 2168,1577 2167,1578 2155,1578 2154,1579 2149,1579 2148,1578 2141,1578 2140,1577" fill="rgba(188,20,102,0.3)" stroke="rgb(188,20,102)" stroke-width="2" data-block-id="0001" data-name="b-0003" /><text x="2636" y="1766" text-anchor="middle" dominant-baseline="middle" class="block-label" fill="rgb(188,20,102)" stroke="white" stroke-width="3" paint-order="stroke">b-0003</text><polygon points="2027,2040 2026,2041 2024,2041 2023,2042 2022,2042 2020,2044 2020,2045 2019,2046 2019,2049 2018,2050 2018,2058 2017,2059 2017,2062 2018,2063 2018,2115 2019,2116 2019,2128 2018,2129 2018,2134 2017,2135 2017,2150 2018,2151 2018,2159 2017,2160 2017,2184 2016,2185 2016,2219 2017,2220 2017,2225 2016,2226 2016,2235 2015,2236 2015,2237 2016,2238 2016,2336 2015,2337 2015,2363 2014,2364 2014,2375 2015,2376 2015,2382 2014,2383 2014,2390 2015,2391 2015,2394 2016,2395 2016,2396 2020,2400 2022,2400 2023,2401 2027,2401 2028,2402 2034,2402 2035,2403 2078,2403 2079,2404 2102,2404 2103,2403 2139,2403 2140,2404 2182,2404 2183,2405 2208,2405 2209,2406 2248,2406 2249,2405 2277,2405 2278,2406 2383,2406 2384,2407 2396,2407 2397,2408 2413,2408 2414,2407 2440,2407 2441,2406 2532,2406 2533,2405 2552,2405 2553,2404 2580,2404 2581,2403 2586,2403 2587,2402 2595,2402 2596,2401 2610,2401 2611,2402 2627,2402 2628,2401 2674,2401 2675,2402 2682,2402 2683,2403 2692,2403 2693,2404 2701,2404 2702,2405 2712,2405 2713,2404 2716,2404 2717,2403 2721,2403 2722,2404 2723,2404 2724,2405 2726,2405 2727,2406 2728,2406 2729,2407 2731,2407 2732,2408 2733,2408 2734,2407 2739,2407 2740,2406 2745,2406 2746,2407 2757,2407 2758,2406 2762,2406 2763,2405 2770,2405 2771,2406 2777,2406 2778,2407 2800,2407 2801,2408 2820,2408 2821,2409 2844,2409 2845,2408 2858,2408 2859,2407 2863,2407 2864,2408 2880,2408 2881,2409 2890,2409 2891,2408 2900,2408 2901,2409 2906,2409 2907,2410 2927,2410 2928,2409 2990,2409 2991,2410 2995,2410 2996,2409 3009,2409 3010,2410 3045,2410 3046,2409 3049,2409 3050,2408 3057,2408 3058,2409 3076,2409 3077,2410 3089,2410 3090,2409 3146,2409 3147,2408 3152,2408 3153,2407 3155,2407 3156,2406 3157,2406 3160,2403 3160,2401 3161,2400 3161,2393 3162,2392 3162,2384 3161,2383 3161,2376 3162,2375 3162,2351 3161,2350 3161,2343 3160,2342 3160,2336 3161,2335 3161,2322 3162,2321 3162,2311 3161,2310 3161,2307 3162,2306 3162,2276 3163,2275 3163,2260 3162,2259 3162,2236 3163,2235 3163,2229 3164,2228 3164,2214 3163,2213 3163,2182 3164,2181 3164,2122 3163,2121 3163,2085 3164,2084 3164,2076 3163,2075 3163,2064 3162,2063 3162,2059 3161,2058 3161,2056 3158,2053 3156,2053 3155,2052 3150,2052 3149,2051 3131,2051 3130,2052 3093,2052 3092,2051 3046,2051 3045,2050 3008,2050 3007,2051 3002,2051 3001,2050 2985,2050 2984,2051 2976,2051 2975,2050 2949,2050 2948,2049 2936,2049 2935,2048 2931,2048 2930,2047 2898,2047 2897,2048 2894,2048 2893,2049 2868,2049 2867,2050 2857,2050 2856,2049 2848,2049 2847,2048 2820,2048 2819,2049 2810,2049 2809,2048 2788,2048 2787,2047 2758,2047 2757,2046 2753,2046 2752,2047 2737,2047 2736,2046 2702,2046 2701,2045 2681,2045 2680,2044 2610,2044 2609,2045 2576,2045 2575,2046 2515,2046 2514,2047 2491,2047 2490,2046 2467,2046 2466,2047 2449,2047 2448,2046 2417,2046 2416,2045 2399,2045 2398,2044 2364,2044 2363,2043 2358,2043 2357,2044 2346,2044 2345,2043 2332,2043 2331,2044 2299,2044 2298,2043 2241,2043 2240,2042 2171,2042 2170,2043 2159,2043 2158,2042 2155,2042 2154,2041 2149,2041 2148,2040 2132,2040 2131,2041 2108,2041 2107,2040 2100,2040 2099,2041 2058,2041 2057,2040" fill="rgba(121,210,214,0.3)" stroke="rgb(121,210,214)" stroke-width="2" data-block-id="0002" data-name="b-0005" /><text x="2632" y="2240" text-anchor="middle" dominant-baseline="middle" class="block-label" fill="rgb(121,210,214)" stroke="white" stroke-width="3" paint-order="stroke">b-0005</text><polygon points="2021,2516 2020,2517 2018,2517 2015,2520 2015,2522 2014,2523 2014,2551 2013,2552 2013,2558 2014,2559 2014,2564 2015,2565 2015,2570 2014,2571 2014,2575 2013,2576 2013,2615 2012,2616 2012,2623 2013,2624 2013,2630 2012,2631 2012,2678 2013,2679 2013,2692 2012,2693 2012,2755 2013,2756 2013,2762 2012,2763 2012,2792 2011,2793 2011,2801 2012,2802 2012,2806 2011,2807 2011,2866 2012,2867 2012,2868 2013,2869 2013,2870 2015,2872 2016,2872 2017,2873 2078,2873 2079,2874 2267,2874 2268,2873 2283,2873 2284,2874 2325,2874 2326,2875 2372,2875 2373,2876 2394,2876 2395,2877 2461,2877 2462,2876 2496,2876 2497,2877 2512,2877 2513,2878 2519,2878 2520,2877 2523,2877 2524,2876 2530,2876 2531,2875 2550,2875 2551,2874 2560,2874 2561,2875 2566,2875 2567,2874 2591,2874 2592,2873 2614,2873 2615,2872 2618,2872 2619,2871 2622,2871 2623,2870 2634,2870 2635,2869 2641,2869 2642,2868 2647,2868 2648,2867 2661,2867 2662,2868 2665,2868 2666,2869 2671,2869 2672,2870 2687,2870 2688,2869 2697,2869 2698,2870 2700,2870 2701,2871 2704,2871 2705,2872 2710,2872 2711,2873 2719,2873 2720,2874 2723,2874 2724,2875 2727,2875 2728,2876 2730,2876 2731,2877 2752,2877 2753,2878 2756,2878 2757,2877 2772,2877 2773,2878 2816,2878 2817,2879 2820,2879 2821,2880 2823,2880 2824,2881 2827,2881 2828,2880 2830,2880 2831,2879 2832,2879 2833,2878 2836,2878 2837,2877 2840,2877 2841,2878 2863,2878 2864,2879 2912,2879 2913,2880 2916,2880 2917,2881 2923,2881 2924,2880 2925,2880 2926,2879 2928,2879 2929,2878 2932,2878 2933,2877 2935,2877 2936,2878 2941,2878 2942,2879 2953,2879 2954,2878 2958,2878 2959,2879 2975,2879 2976,2878 2983,2878 2984,2879 2989,2879 2990,2880 3064,2880 3065,2879 3067,2879 3068,2878 3071,2878 3072,2877 3081,2877 3082,2878 3088,2878 3089,2879 3112,2879 3113,2880 3135,2880 3136,2879 3145,2879 3146,2878 3149,2878 3150,2877 3151,2877 3152,2876 3153,2876 3157,2872 3157,2871 3158,2870 3158,2869 3159,2868 3159,2852 3160,2851 3160,2779 3161,2778 3161,2627 3160,2626 3160,2608 3161,2607 3161,2575 3160,2574 3160,2567 3161,2566 3161,2559 3162,2558 3162,2554 3161,2553 3161,2540 3160,2539 3160,2533 3159,2532 3159,2530 3158,2529 3158,2528 3156,2526 3155,2526 3154,2525 3153,2525 3152,2524 3147,2524 3146,2523 3137,2523 3136,2524 3101,2524 3100,2523 3079,2523 3078,2522 3068,2522 3067,2523 3025,2523 3024,2522 2983,2522 2982,2523 2979,2523 2978,2522 2909,2522 2908,2521 2907,2521 2906,2522 2882,2522 2881,2521 2873,2521 2872,2522 2854,2522 2853,2523 2848,2523 2847,2522 2837,2522 2836,2521 2796,2521 2795,2520 2754,2520 2753,2519 2737,2519 2736,2518 2718,2518 2717,2517 2711,2517 2710,2516 2699,2516 2698,2517 2659,2517 2658,2516 2630,2516 2629,2517 2620,2517 2619,2518 2598,2518 2597,2519 2585,2519 2584,2518 2566,2518 2565,2519 2544,2519 2543,2520 2532,2520 2531,2519 2526,2519 2525,2520 2486,2520 2485,2521 2471,2521 2470,2522 2448,2522 2447,2523 2421,2523 2420,2522 2412,2522 2411,2521 2409,2521 2408,2522 2402,2522 2401,2523 2396,2523 2395,2522 2391,2522 2390,2521 2377,2521 2376,2522 2352,2522 2351,2521 2326,2521 2325,2520 2319,2520 2318,2519 2311,2519 2310,2520 2295,2520 2294,2519 2288,2519 2287,2518 2249,2518 2248,2517 2235,2517 2234,2518 2202,2518 2201,2517 2187,2517 2186,2518 2150,2518 2149,2517 2040,2517 2039,2516" fill="rgba(74,202,87,0.3)" stroke="rgb(74,202,87)" stroke-width="2" data-block-id="0003" data-name="b-0006" /><text x="2648" y="2708" text-anchor="middle" dominant-baseline="middle" class="block-label" fill="rgb(74,202,87)" stroke="white" stroke-width="3" paint-order="stroke">b-0006</text><polygon points="2154,642 2153,643 2080,643 2079,644 2059,644 2058,643 2035,643 2034,644 2030,644 2029,645 2028,645 2026,647 2026,649 2025,650 2025,656 2024,657 2024,724 2025,725 2025,734 2024,735 2024,750 2025,751 2025,754 2024,755 2024,766 2023,767 2023,777 2024,778 2024,810 2023,811 2023,817 2024,818 2024,830 2023,831 2023,858 2022,859 2022,880 2021,881 2021,893 2022,894 2022,900 2023,901 2023,916 2024,917 2024,923 2023,924 2023,961 2022,962 2022,987 2023,988 2023,991 2024,992 2024,993 2025,993 2027,995 2028,995 2029,996 2030,996 2031,997 2033,997 2034,998 2036,998 2037,999 2081,999 2082,1000 2145,1000 2146,999 2154,999 2155,1000 2191,1000 2192,999 2201,999 2202,998 2207,998 2208,997 2256,997 2257,996 2258,997 2292,997 2293,996 2331,996 2332,997 2341,997 2342,996 2422,996 2423,997 2424,997 2425,996 2491,996 2492,995 2520,995 2521,996 2555,996 2556,997 2578,997 2579,998 2592,998 2593,999 2637,999 2638,1000 2656,1000 2657,999 2666,999 2667,998 2682,998 2683,999 2698,999 2699,1000 2702,1000 2703,1001 2721,1001 2722,1002 2751,1002 2752,1003 2761,1003 2762,1004 2828,1004 2829,1005 2847,1005 2848,1004 2911,1004 2912,1005 2939,1005 2940,1006 2949,1006 2950,1005 3027,1005 3028,1006 3053,1006 3054,1005 3062,1005 3063,1004 3070,1004 3071,1003 3081,1003 3082,1004 3102,1004 3103,1005 3116,1005 3117,1006 3124,1006 3125,1005 3151,1005 3152,1004 3160,1004 3161,1003 3163,1003 3164,1002 3165,1002 3168,999 3168,998 3169,997 3169,995 3170,994 3170,991 3171,990 3171,981 3170,980 3170,964 3171,963 3171,914 3172,913 3172,875 3171,874 3172,873 3172,829 3173,828 3173,810 3172,809 3172,773 3173,772 3173,702 3172,701 3172,689 3173,688 3173,669 3172,668 3172,664 3171,663 3171,660 3170,659 3170,658 3169,657 3169,656 3168,655 3167,655 3166,654 3165,654 3164,653 3162,653 3161,652 3147,652 3146,651 3104,651 3103,652 3093,652 3092,651 3072,651 3071,650 3065,650 3064,649 3057,649 3056,650 3035,650 3034,651 2985,651 2984,650 2979,650 2978,651 2970,651 2969,652 2965,652 2964,651 2953,651 2952,652 2935,652 2934,651 2933,651 2932,652 2899,652 2898,653 2893,653 2892,652 2879,652 2878,653 2871,653 2870,652 2858,652 2857,653 2775,653 2774,654 2771,654 2770,655 2769,655 2768,656 2767,655 2765,655 2764,654 2762,654 2761,653 2759,653 2758,652 2749,652 2748,653 2743,653 2742,654 2724,654 2723,655 2689,655 2688,656 2679,656 2678,655 2661,655 2660,654 2653,654 2652,653 2646,653 2645,652 2637,652 2636,651 2632,651 2631,650 2627,650 2626,649 2591,649 2590,648 2533,648 2532,647 2521,647 2520,648 2511,648 2510,647 2501,647 2500,648 2490,648 2489,647 2476,647 2475,648 2442,648 2441,647 2427,647 2426,648 2419,648 2418,647 2401,647 2400,648 2397,648 2396,647 2378,647 2377,648 2371,648 2370,647 2342,647 2341,648 2337,648 2336,647 2331,647 2330,646 2319,646 2318,647 2308,647 2307,648 2301,648 2300,647 2297,647 2296,646 2274,646 2273,645 2265,645 2264,646 2260,646 2259,647 2254,647 2253,646 2251,646 2250,645 2247,645 2246,644 2237,644 2236,645 2205,645 2204,644 2199,644 2198,643 2188,643 2187,642 2182,642 2181,643 2167,643 2166,642" fill="rgba(116,99,103,0.3)" stroke="rgb(116,99,103)" stroke-width="2" data-block-id="0004" data-name="b-0007" /><text x="2590" y="792" text-anchor="middle" dominant-baseline="middle" class="block-label" fill="rgb(116,99,103)" stroke="white" stroke-width="3" paint-order="stroke">b-0007</text><polygon points="2229,1112 2228,1113 2206,1113 2205,1114 2183,1114 2182,1113 2165,1113 2164,1114 2155,1114 2154,1113 2121,1113 2120,1114 2109,1114 2108,1113 2072,1113 2071,1114 2044,1114 2043,1113 2042,1114 2034,1114 2033,1115 2029,1115 2025,1119 2025,1121 2024,1122 2024,1127 2023,1128 2023,1135 2024,1136 2024,1150 2023,1151 2023,1159 2022,1160 2022,1163 2021,1164 2021,1169 2022,1170 2022,1180 2023,1181 2023,1190 2024,1191 2024,1208 2023,1209 2023,1211 2022,1212 2022,1236 2023,1237 2023,1241 2024,1242 2024,1253 2023,1254 2023,1315 2022,1316 2022,1320 2023,1321 2023,1344 2022,1345 2022,1373 2023,1374 2023,1383 2022,1384 2022,1394 2021,1395 2021,1450 2022,1451 2022,1454 2023,1455 2023,1456 2024,1457 2024,1458 2025,1459 2025,1460 2026,1461 2026,1462 2028,1464 2030,1464 2031,1465 2032,1465 2033,1464 2046,1464 2047,1465 2062,1465 2063,1464 2065,1464 2066,1465 2071,1465 2072,1466 2089,1466 2090,1467 2097,1467 2098,1468 2103,1468 2104,1467 2107,1467 2108,1466 2111,1466 2112,1465 2114,1465 2115,1466 2120,1466 2121,1467 2140,1467 2141,1468 2197,1468 2198,1467 2212,1467 2213,1468 2236,1468 2237,1469 2246,1469 2247,1468 2265,1468 2266,1469 2269,1469 2270,1468 2278,1468 2279,1467 2308,1467 2309,1468 2347,1468 2348,1467 2349,1467 2350,1468 2360,1468 2361,1469 2372,1469 2373,1468 2374,1468 2375,1469 2406,1469 2407,1470 2529,1470 2530,1471 2558,1471 2559,1472 2568,1472 2569,1471 2614,1471 2615,1470 2676,1470 2677,1469 2687,1469 2688,1470 2700,1470 2701,1469 2718,1469 2719,1470 2734,1470 2735,1471 2749,1471 2750,1470 2764,1470 2765,1471 2768,1471 2769,1470 2807,1470 2808,1469 2812,1469 2813,1468 2815,1468 2816,1469 2820,1469 2821,1470 2877,1470 2878,1469 2881,1469 2882,1468 2885,1468 2886,1467 2898,1467 2899,1466 2902,1466 2903,1465 2905,1465 2906,1464 2908,1464 2909,1463 2914,1463 2915,1464 2925,1464 2926,1463 2929,1463 2930,1462 2932,1462 2933,1461 2944,1461 2945,1462 2949,1462 2950,1463 2952,1463 2953,1464 2957,1464 2958,1465 2960,1465 2961,1466 2964,1466 2965,1467 2974,1467 2975,1466 2979,1466 2980,1465 2982,1465 2983,1466 2990,1466 2991,1467 2998,1467 2999,1466 3006,1466 3007,1467 3012,1467 3013,1468 3023,1468 3024,1467 3044,1467 3045,1468 3069,1468 3070,1467 3088,1467 3089,1468 3123,1468 3124,1467 3125,1467 3126,1468 3143,1468 3144,1469 3148,1469 3149,1468 3157,1468 3158,1467 3159,1467 3162,1464 3162,1463 3163,1462 3163,1457 3162,1456 3162,1447 3163,1446 3163,1421 3164,1420 3164,1384 3163,1383 3163,1378 3164,1377 3164,1327 3165,1326 3165,1302 3164,1301 3164,1287 3163,1286 3164,1285 3164,1277 3165,1276 3165,1231 3166,1230 3166,1201 3165,1200 3165,1185 3166,1184 3166,1177 3167,1176 3166,1175 3166,1153 3165,1152 3165,1140 3164,1139 3164,1132 3163,1131 3163,1129 3162,1128 3162,1127 3159,1124 3141,1124 3140,1123 3130,1123 3129,1124 3119,1124 3118,1123 3114,1123 3113,1122 3110,1122 3109,1123 3105,1123 3104,1124 3092,1124 3091,1123 3085,1123 3084,1124 3080,1124 3079,1125 3075,1125 3074,1124 3071,1124 3070,1123 3068,1123 3067,1122 3060,1122 3059,1123 3055,1123 3054,1124 3050,1124 3049,1123 3047,1123 3046,1122 3045,1122 3044,1121 3043,1121 3042,1120 3024,1120 3023,1119 3013,1119 3006,1126 3002,1126 3001,1125 3000,1125 2999,1124 2998,1124 2997,1123 2996,1123 2994,1121 2991,1121 2990,1122 2989,1122 2988,1123 2987,1123 2986,1124 2985,1124 2984,1125 2983,1125 2982,1126 2979,1126 2978,1125 2977,1125 2976,1124 2975,1124 2973,1122 2972,1122 2970,1120 2968,1120 2966,1122 2966,1123 2965,1124 2965,1125 2963,1127 2963,1128 2962,1129 2962,1130 2961,1131 2961,1134 2960,1135 2960,1139 2959,1140 2959,1143 2960,1144 2960,1155 2957,1158 2955,1158 2954,1157 2953,1157 2949,1153 2949,1150 2950,1149 2950,1147 2951,1146 2951,1144 2952,1143 2952,1136 2951,1135 2951,1130 2950,1129 2950,1127 2949,1126 2949,1125 2948,1124 2948,1123 2947,1122 2947,1121 2946,1120 2944,1120 2943,1121 2943,1122 2942,1123 2942,1125 2941,1126 2941,1127 2940,1128 2940,1129 2939,1130 2939,1133 2938,1134 2938,1138 2937,1139 2937,1144 2938,1145 2938,1147 2939,1148 2939,1149 2940,1150 2940,1153 2939,1154 2939,1155 2937,1157 2937,1158 2936,1159 2936,1160 2933,1163 2933,1164 2932,1165 2930,1163 2930,1162 2929,1161 2929,1160 2928,1159 2928,1157 2927,1156 2927,1151 2928,1150 2928,1149 2929,1148 2929,1145 2930,1144 2930,1140 2929,1139 2929,1138 2928,1137 2928,1136 2927,1135 2927,1134 2925,1132 2925,1131 2923,1129 2920,1129 2917,1132 2916,1132 2913,1135 2912,1135 2911,1136 2909,1134 2909,1133 2908,1132 2908,1131 2907,1130 2907,1127 2906,1126 2906,1123 2905,1122 2905,1120 2902,1117 2901,1117 2900,1116 2889,1116 2888,1117 2879,1117 2878,1116 2872,1116 2871,1117 2866,1117 2865,1118 2857,1118 2856,1117 2820,1117 2819,1118 2815,1118 2814,1119 2812,1119 2811,1118 2804,1118 2803,1117 2781,1117 2780,1116 2779,1117 2772,1117 2771,1118 2735,1118 2734,1117 2728,1117 2727,1118 2722,1118 2721,1119 2716,1119 2715,1118 2707,1118 2706,1117 2690,1117 2689,1116 2646,1116 2645,1115 2627,1115 2626,1116 2624,1116 2623,1115 2562,1115 2561,1114 2537,1114 2536,1115 2523,1115 2522,1114 2376,1114 2375,1113 2369,1113 2368,1114 2287,1114 2286,1113 2274,1113 2273,1114 2246,1114 2245,1113 2236,1113 2235,1112" fill="rgba(151,130,149,0.3)" stroke="rgb(151,130,149)" stroke-width="2" data-block-id="0005" data-name="b-0008" /><text x="2715" y="1259" text-anchor="middle" dominant-baseline="middle" class="block-label" fill="rgb(151,130,149)" stroke="white" stroke-width="3" paint-order="stroke">b-0008</text><polygon points="827,2025 826,2026 804,2026 803,2027 774,2027 773,2028 757,2028 756,2027 752,2027 751,2028 741,2028 740,2029 739,2029 738,2030 737,2030 733,2034 733,2036 732,2037 732,2038 731,2039 731,2041 730,2042 730,2045 729,2046 729,2062 728,2063 728,2067 727,2068 727,2081 726,2082 726,2091 725,2092 725,2099 724,2100 724,2110 725,2111 725,2141 726,2142 726,2145 727,2146 727,2147 728,2148 728,2149 730,2151 730,2154 729,2155 729,2156 728,2157 728,2159 727,2160 727,2184 728,2185 728,2193 727,2194 727,2207 726,2208 726,2216 727,2217 727,2231 726,2232 726,2265 725,2266 725,2321 726,2322 726,2351 727,2352 727,2362 726,2363 726,2369 727,2370 727,2379 728,2380 728,2381 729,2382 729,2383 730,2384 731,2384 732,2385 734,2385 735,2386 738,2386 739,2387 744,2387 745,2388 754,2388 755,2389 768,2389 769,2390 793,2390 794,2391 799,2391 800,2392 845,2392 846,2393 851,2393 852,2392 856,2392 857,2391 861,2391 862,2390 864,2390 865,2391 897,2391 898,2392 934,2392 935,2393 942,2393 943,2394 946,2394 947,2393 953,2393 954,2392 993,2392 994,2393 1091,2393 1092,2394 1133,2394 1134,2395 1139,2395 1140,2394 1166,2394 1167,2395 1203,2395 1204,2394 1208,2394 1209,2395 1213,2395 1214,2396 1249,2396 1250,2395 1287,2395 1288,2396 1297,2396 1298,2395 1303,2395 1304,2396 1337,2396 1338,2397 1349,2397 1350,2396 1414,2396 1415,2397 1430,2397 1431,2396 1450,2396 1451,2397 1560,2397 1561,2396 1566,2396 1567,2397 1597,2397 1598,2398 1603,2398 1604,2397 1614,2397 1615,2398 1651,2398 1652,2397 1666,2397 1667,2398 1739,2398 1740,2399 1743,2399 1744,2398 1761,2398 1762,2399 1768,2399 1769,2398 1784,2398 1785,2399 1816,2399 1817,2398 1821,2398 1822,2397 1823,2397 1827,2393 1827,2390 1828,2389 1828,2384 1827,2383 1827,2361 1828,2360 1828,2348 1827,2347 1827,2335 1828,2334 1828,2330 1827,2329 1827,2290 1828,2289 1828,2253 1827,2252 1827,2242 1828,2241 1828,2215 1829,2214 1829,2212 1828,2211 1828,2186 1829,2185 1829,2180 1830,2179 1830,2163 1829,2162 1829,2126 1830,2125 1830,2088 1829,2087 1829,2078 1830,2077 1830,2053 1829,2052 1829,2048 1828,2047 1828,2045 1825,2042 1824,2042 1823,2041 1820,2041 1819,2040 1813,2040 1812,2039 1753,2039 1752,2038 1736,2038 1735,2039 1713,2039 1712,2038 1689,2038 1688,2039 1685,2039 1684,2040 1681,2040 1680,2039 1678,2039 1677,2038 1673,2038 1672,2037 1661,2037 1660,2038 1656,2038 1655,2037 1642,2037 1641,2038 1618,2038 1617,2039 1580,2039 1579,2040 1574,2040 1573,2039 1566,2039 1565,2038 1555,2038 1554,2037 1436,2037 1435,2036 1423,2036 1422,2035 1398,2035 1397,2034 1394,2034 1393,2035 1381,2035 1380,2034 1357,2034 1356,2033 1349,2033 1348,2032 1347,2033 1304,2033 1303,2032 1283,2032 1282,2031 1276,2031 1275,2032 1271,2032 1270,2033 1256,2033 1255,2032 1252,2032 1251,2033 1238,2033 1237,2032 1225,2032 1224,2033 1212,2033 1211,2032 1182,2032 1181,2033 1157,2033 1156,2034 1140,2034 1139,2033 1131,2033 1130,2034 1053,2034 1052,2033 1046,2033 1045,2032 997,2032 996,2031 974,2031 973,2030 964,2030 963,2031 951,2031 950,2030 941,2030 940,2031 926,2031 925,2030 904,2030 903,2029 880,2029 879,2028 859,2028 858,2027 856,2027 855,2026 853,2026 852,2025" fill="rgba(235,157,37,0.3)" stroke="rgb(235,157,37)" stroke-width="2" data-block-id="0006" data-name="b-0010" /><text x="1225" y="2197" text-anchor="middle" dominant-baseline="middle" class="block-label" fill="rgb(235,157,37)" stroke="white" stroke-width="3" paint-order="stroke">b-0010</text><polygon points="741,2501 740,2502 736,2502 735,2503 731,2503 730,2504 728,2504 727,2505 726,2505 723,2508 723,2510 722,2511 722,2525 721,2526 721,2535 720,2536 720,2547 719,2548 719,2564 720,2565 720,2572 719,2573 719,2621 718,2622 718,2650 717,2651 717,2691 716,2692 716,2808 715,2809 715,2826 716,2827 716,2833 715,2834 715,2856 716,2857 716,2858 717,2859 717,2860 718,2861 719,2861 721,2863 724,2863 725,2864 730,2864 731,2865 747,2865 748,2866 762,2866 763,2865 775,2865 776,2866 780,2866 781,2865 793,2865 794,2864 806,2864 807,2865 815,2865 816,2866 822,2866 823,2867 827,2867 828,2866 831,2866 832,2865 834,2865 835,2864 844,2864 845,2865 865,2865 866,2866 881,2866 882,2865 892,2865 893,2866 897,2866 898,2865 905,2865 906,2864 913,2864 914,2865 927,2865 928,2864 937,2864 938,2865 948,2865 949,2864 952,2864 953,2863 955,2863 956,2862 959,2862 960,2863 965,2863 966,2864 973,2864 974,2863 988,2863 989,2864 997,2864 998,2865 1009,2865 1010,2866 1023,2866 1024,2865 1048,2865 1049,2864 1070,2864 1071,2863 1081,2863 1082,2864 1092,2864 1093,2865 1108,2865 1109,2866 1112,2866 1113,2865 1128,2865 1129,2866 1135,2866 1136,2867 1138,2867 1139,2866 1195,2866 1196,2867 1262,2867 1263,2868 1309,2868 1310,2867 1326,2867 1327,2868 1353,2868 1354,2867 1361,2867 1362,2866 1363,2867 1374,2867 1375,2868 1404,2868 1405,2867 1414,2867 1415,2868 1446,2868 1447,2867 1472,2867 1473,2868 1483,2868 1484,2867 1511,2867 1512,2868 1660,2868 1661,2869 1666,2869 1667,2870 1675,2870 1676,2869 1688,2869 1689,2870 1726,2870 1727,2869 1728,2869 1729,2870 1788,2870 1789,2871 1793,2871 1794,2870 1814,2870 1815,2869 1819,2869 1820,2868 1822,2868 1824,2866 1824,2865 1825,2864 1825,2858 1826,2857 1826,2772 1827,2771 1827,2749 1826,2748 1826,2743 1827,2742 1827,2716 1826,2715 1826,2691 1825,2690 1825,2687 1824,2686 1824,2681 1823,2680 1823,2673 1822,2672 1822,2663 1821,2662 1821,2645 1820,2644 1820,2624 1819,2623 1819,2608 1820,2607 1820,2602 1819,2601 1819,2578 1818,2577 1818,2563 1819,2562 1819,2540 1820,2539 1820,2534 1821,2533 1821,2523 1820,2522 1820,2521 1818,2519 1817,2519 1816,2518 1814,2518 1813,2517 1805,2517 1804,2516 1755,2516 1754,2515 1692,2515 1691,2516 1685,2516 1684,2517 1661,2517 1660,2518 1642,2518 1641,2517 1633,2517 1632,2518 1602,2518 1601,2517 1579,2517 1578,2518 1571,2518 1570,2517 1523,2517 1522,2516 1502,2516 1501,2515 1498,2515 1497,2514 1491,2514 1490,2513 1471,2513 1470,2512 1396,2512 1395,2511 1376,2511 1375,2510 1368,2510 1367,2511 1360,2511 1359,2510 1357,2510 1356,2509 1353,2509 1352,2508 1318,2508 1317,2509 1298,2509 1297,2508 1281,2508 1280,2507 1272,2507 1271,2508 1233,2508 1232,2507 1229,2507 1228,2508 1204,2508 1203,2507 1115,2507 1114,2506 1108,2506 1107,2507 1091,2507 1090,2508 1069,2508 1068,2509 1051,2509 1050,2508 1029,2508 1028,2507 1006,2507 1005,2506 998,2506 997,2505 976,2505 975,2504 962,2504 961,2505 923,2505 922,2504 917,2504 916,2505 910,2505 909,2504 897,2504 896,2503 895,2503 894,2504 862,2504 861,2503 854,2503 853,2502 833,2502 832,2501 822,2501 821,2502 811,2502 810,2501" fill="rgba(129,191,187,0.3)" stroke="rgb(129,191,187)" stroke-width="2" data-block-id="0007" data-name="b-0011" /><text x="1226" y="2696" text-anchor="middle" dominant-baseline="middle" class="block-label" fill="rgb(129,191,187)" stroke="white" stroke-width="3" paint-order="stroke">b-0011</text><polygon points="759,633 758,634 753,634 752,635 751,635 748,638 748,639 747,640 747,641 746,642 746,645 745,646 745,692 746,693 746,700 745,701 745,707 746,708 746,712 747,713 747,715 748,716 748,718 749,719 749,729 748,730 748,734 747,735 747,737 746,738 746,739 745,740 745,742 744,743 744,747 743,748 743,756 744,757 744,761 745,762 745,818 744,819 744,844 745,845 745,856 746,857 746,876 747,877 747,881 748,882 748,888 747,889 747,890 746,891 746,893 745,894 745,897 744,898 744,900 745,901 745,909 746,910 746,913 747,914 747,916 748,917 748,919 749,920 749,924 748,925 748,928 747,929 747,934 746,935 746,965 745,966 745,974 746,975 746,983 747,984 747,986 748,987 748,988 749,989 749,990 753,994 755,994 756,995 759,995 760,994 774,994 775,995 788,995 789,996 810,996 811,995 827,995 828,994 833,994 834,993 848,993 849,994 858,994 859,995 866,995 867,996 927,996 928,995 982,995 983,994 989,994 990,993 1050,993 1051,994 1054,994 1055,993 1075,993 1076,992 1077,992 1078,993 1112,993 1113,994 1127,994 1128,995 1162,995 1163,996 1188,996 1189,997 1217,997 1218,998 1227,998 1228,997 1249,997 1250,998 1255,998 1256,997 1275,997 1276,996 1279,996 1280,997 1296,997 1297,998 1316,998 1317,997 1347,997 1348,996 1350,996 1351,997 1415,997 1416,996 1424,996 1425,997 1465,997 1466,996 1469,996 1470,997 1510,997 1511,996 1518,996 1519,997 1539,997 1540,996 1546,996 1547,997 1688,997 1689,996 1698,996 1699,995 1712,995 1713,994 1718,994 1719,995 1730,995 1731,996 1739,996 1740,997 1826,997 1827,996 1829,996 1830,995 1831,995 1832,994 1833,994 1836,991 1836,987 1837,986 1837,982 1838,981 1838,903 1837,902 1837,889 1836,888 1836,882 1837,881 1837,870 1836,869 1836,847 1837,846 1837,834 1838,833 1838,821 1839,820 1839,799 1840,798 1840,783 1841,782 1841,769 1840,768 1840,736 1841,735 1841,724 1840,723 1840,709 1839,708 1839,705 1840,704 1840,686 1841,685 1841,675 1840,674 1840,667 1839,666 1839,661 1838,660 1838,655 1837,654 1837,651 1836,650 1836,649 1834,647 1833,647 1832,646 1830,646 1829,645 1827,645 1826,644 1805,644 1804,643 1722,643 1721,642 1703,642 1702,641 1689,641 1688,642 1655,642 1654,641 1639,641 1638,642 1619,642 1618,641 1570,641 1569,640 1511,640 1510,641 1498,641 1497,640 1483,640 1482,641 1450,641 1449,640 1437,640 1436,641 1428,641 1427,640 1417,640 1416,641 1403,641 1402,640 1364,640 1363,641 1354,641 1353,640 1348,640 1347,641 1309,641 1308,640 1209,640 1208,639 1184,639 1183,640 1169,640 1168,639 1158,639 1157,638 1156,638 1155,639 1142,639 1141,638 1136,638 1135,639 1132,639 1131,640 1128,640 1127,641 1123,641 1122,642 1121,641 1116,641 1115,640 1101,640 1100,641 1070,641 1069,640 1039,640 1038,641 1026,641 1025,640 1018,640 1017,639 1014,639 1013,640 1000,640 999,639 995,639 994,638 970,638 969,637 951,637 950,636 926,636 925,635 918,635 917,636 904,636 903,635 889,635 888,636 882,636 881,635 856,635 855,634 841,634 840,635 836,635 835,634 817,634 816,635 790,635 789,634 777,634 776,633" fill="rgba(20,160,203,0.3)" stroke="rgb(20,160,203)" stroke-width="2" data-block-id="0008" data-name="b-0012" /><text x="1204" y="804" text-anchor="middle" dominant-baseline="middle" class="block-label" fill="rgb(20,160,203)" stroke="white" stroke-width="3" paint-order="stroke">b-0012</text><polygon points="755,1103 754,1104 751,1104 750,1105 748,1105 747,1106 746,1106 743,1109 743,1111 742,1112 742,1115 741,1116 741,1133 742,1134 742,1136 743,1137 743,1139 744,1140 744,1144 743,1145 743,1148 742,1149 742,1157 741,1158 741,1223 740,1224 740,1226 741,1227 741,1243 740,1244 740,1257 741,1258 741,1265 740,1266 740,1304 741,1305 741,1324 740,1325 740,1359 741,1360 741,1373 740,1374 740,1403 741,1404 741,1418 740,1419 740,1439 741,1440 741,1442 742,1443 742,1444 749,1451 750,1451 752,1453 754,1453 755,1454 761,1454 762,1455 811,1455 812,1456 814,1456 815,1455 896,1455 897,1456 926,1456 927,1457 945,1457 946,1458 952,1458 953,1459 960,1459 961,1458 967,1458 968,1457 975,1457 976,1456 1018,1456 1019,1457 1060,1457 1061,1456 1067,1456 1068,1457 1091,1457 1092,1458 1120,1458 1121,1459 1141,1459 1142,1458 1199,1458 1200,1459 1247,1459 1248,1458 1261,1458 1262,1459 1296,1459 1297,1460 1306,1460 1307,1459 1315,1459 1316,1460 1353,1460 1354,1459 1375,1459 1376,1460 1425,1460 1426,1461 1438,1461 1439,1460 1448,1460 1449,1461 1511,1461 1512,1460 1517,1460 1518,1461 1524,1461 1525,1462 1551,1462 1552,1461 1565,1461 1566,1462 1615,1462 1616,1463 1634,1463 1635,1462 1647,1462 1648,1463 1670,1463 1671,1462 1672,1462 1673,1463 1712,1463 1713,1464 1825,1464 1826,1463 1827,1463 1831,1459 1831,1458 1832,1457 1832,1455 1833,1454 1833,1424 1834,1423 1834,1408 1835,1407 1835,1372 1836,1371 1836,1313 1837,1312 1837,1275 1838,1274 1838,1270 1837,1269 1837,1250 1836,1249 1836,1234 1837,1233 1837,1227 1838,1226 1838,1220 1837,1219 1837,1209 1838,1208 1838,1159 1837,1158 1837,1144 1836,1143 1836,1137 1837,1136 1837,1130 1836,1129 1836,1121 1835,1120 1835,1116 1834,1115 1834,1114 1831,1111 1830,1111 1829,1110 1828,1110 1827,1109 1815,1109 1814,1110 1811,1110 1810,1109 1783,1109 1782,1108 1762,1108 1761,1109 1754,1109 1753,1110 1751,1110 1750,1109 1736,1109 1735,1108 1625,1108 1624,1107 1567,1107 1566,1108 1555,1108 1554,1107 1552,1107 1551,1108 1513,1108 1512,1107 1497,1107 1496,1108 1469,1108 1468,1107 1437,1107 1436,1108 1430,1108 1429,1107 1399,1107 1398,1108 1397,1108 1396,1107 1391,1107 1390,1106 1324,1106 1323,1107 1308,1107 1307,1106 1296,1106 1295,1107 1283,1107 1282,1106 1276,1106 1275,1107 1245,1107 1244,1108 1239,1108 1238,1107 1184,1107 1183,1106 1150,1106 1149,1107 1128,1107 1127,1106 1108,1106 1107,1107 1094,1107 1093,1106 1001,1106 1000,1105 961,1105 960,1104 941,1104 940,1105 922,1105 921,1104 919,1104 918,1105 905,1105 904,1104 896,1104 895,1105 879,1105 878,1104 855,1104 854,1105 833,1105 832,1104 805,1104 804,1103 800,1103 799,1104 785,1104 784,1103" fill="rgba(57,21,252,0.3)" stroke="rgb(57,21,252)" stroke-width="2" data-block-id="0009" data-name="b-0013" /><text x="1261" y="1264" text-anchor="middle" dominant-baseline="middle" class="block-label" fill="rgb(57,21,252)" stroke="white" stroke-width="3" paint-order="stroke">b-0013</text><polygon points="751,1568 750,1569 747,1569 746,1570 745,1570 743,1572 743,1573 742,1574 742,1576 741,1577 741,1583 740,1584 740,1588 739,1589 739,1613 738,1614 738,1623 739,1624 739,1630 738,1631 738,1636 737,1637 737,1652 738,1653 738,1661 739,1662 739,1668 738,1669 738,1693 739,1694 739,1708 738,1709 738,1739 739,1740 739,1743 740,1744 740,1752 739,1753 739,1756 738,1757 738,1772 737,1773 737,1785 738,1786 738,1791 739,1792 739,1798 738,1799 738,1802 737,1803 737,1807 736,1808 736,1827 737,1828 737,1846 736,1847 736,1855 735,1856 735,1907 736,1908 736,1910 737,1911 737,1912 741,1916 743,1916 744,1917 762,1917 763,1918 805,1918 806,1919 824,1919 825,1918 828,1918 829,1919 843,1919 844,1918 861,1918 862,1917 879,1917 880,1918 953,1918 954,1919 1143,1919 1144,1920 1151,1920 1152,1919 1163,1919 1164,1920 1177,1920 1178,1921 1236,1921 1237,1922 1246,1922 1247,1921 1339,1921 1340,1920 1349,1920 1350,1919 1381,1919 1382,1918 1423,1918 1424,1919 1459,1919 1460,1920 1470,1920 1471,1921 1475,1921 1476,1922 1519,1922 1520,1923 1571,1923 1572,1924 1580,1924 1581,1923 1592,1923 1593,1924 1618,1924 1619,1925 1629,1925 1630,1924 1638,1924 1639,1925 1662,1925 1663,1926 1676,1926 1677,1925 1687,1925 1688,1926 1711,1926 1712,1927 1741,1927 1742,1928 1763,1928 1764,1929 1768,1929 1769,1928 1802,1928 1803,1927 1824,1927 1825,1926 1826,1926 1827,1925 1828,1925 1828,1924 1830,1922 1830,1921 1831,1920 1831,1919 1832,1918 1832,1894 1831,1893 1831,1890 1832,1889 1832,1863 1831,1862 1831,1851 1832,1850 1832,1825 1833,1824 1833,1788 1834,1787 1834,1775 1833,1774 1833,1765 1834,1764 1834,1752 1833,1751 1833,1749 1834,1748 1834,1728 1833,1727 1833,1719 1834,1718 1834,1589 1833,1588 1833,1584 1830,1581 1829,1581 1828,1580 1825,1580 1824,1579 1810,1579 1809,1578 1755,1578 1754,1577 1735,1577 1734,1578 1725,1578 1724,1577 1709,1577 1708,1576 1688,1576 1687,1577 1674,1577 1673,1576 1569,1576 1568,1575 1550,1575 1549,1576 1543,1576 1542,1577 1538,1577 1537,1576 1530,1576 1529,1575 1376,1575 1375,1574 1362,1574 1361,1573 1339,1573 1338,1574 1329,1574 1328,1575 1311,1575 1310,1574 1292,1574 1291,1573 1201,1573 1200,1572 1171,1572 1170,1571 1118,1571 1117,1572 1098,1572 1097,1573 1091,1573 1090,1574 1024,1574 1023,1573 940,1573 939,1574 926,1574 925,1573 908,1573 907,1572 883,1572 882,1571 876,1571 875,1570 844,1570 843,1571 833,1571 832,1570 809,1570 808,1569 796,1569 795,1570 787,1570 786,1569 760,1569 759,1568" fill="rgba(218,58,254,0.3)" stroke="rgb(218,58,254)" stroke-width="2" data-block-id="0010" data-name="b-0015" /><text x="1246" y="1749" text-anchor="middle" dominant-baseline="middle" class="block-label" fill="rgb(218,58,254)" stroke="white" stroke-width="3" paint-order="stroke">b-0015</text><polygon points="3445,649 3444,650 3429,650 3428,651 3420,651 3419,652 3372,652 3371,653 3366,653 3365,654 3362,654 3361,655 3360,655 3360,656 3359,657 3359,659 3358,660 3358,662 3357,663 3357,667 3356,668 3356,706 3355,707 3355,739 3356,740 3356,764 3355,765 3355,778 3354,779 3354,798 3355,799 3355,803 3356,804 3356,807 3357,808 3357,812 3358,813 3358,861 3359,862 3359,864 3358,865 3358,869 3357,870 3357,873 3356,874 3356,878 3355,879 3355,898 3356,899 3356,914 3355,915 3355,975 3356,976 3356,991 3357,992 3357,999 3358,1000 3358,1001 3360,1003 3360,1004 3361,1004 3362,1005 3366,1005 3367,1006 3374,1006 3375,1007 3428,1007 3429,1008 3464,1008 3465,1007 3483,1007 3484,1008 3504,1008 3505,1007 3521,1007 3522,1008 3532,1008 3533,1009 3560,1009 3561,1010 3582,1010 3583,1009 3599,1009 3600,1010 3693,1010 3694,1011 3761,1011 3762,1012 3777,1012 3778,1011 3801,1011 3802,1012 3806,1012 3807,1011 3835,1011 3836,1010 3896,1010 3897,1011 3913,1011 3914,1010 3930,1010 3931,1009 3937,1009 3938,1008 3943,1008 3944,1007 3962,1007 3963,1006 3985,1006 3986,1007 4001,1007 4002,1008 4003,1008 4004,1007 4029,1007 4030,1008 4041,1008 4042,1007 4045,1007 4046,1006 4048,1006 4049,1005 4051,1005 4052,1004 4053,1004 4054,1003 4056,1003 4057,1002 4065,1002 4066,1003 4071,1003 4072,1004 4078,1004 4079,1005 4085,1005 4086,1006 4091,1006 4092,1007 4098,1007 4099,1008 4112,1008 4113,1009 4122,1009 4123,1010 4131,1010 4132,1011 4205,1011 4206,1010 4238,1010 4239,1009 4246,1009 4247,1008 4264,1008 4265,1009 4274,1009 4275,1008 4277,1008 4278,1007 4279,1007 4280,1006 4281,1006 4285,1002 4285,1001 4286,1000 4286,994 4287,993 4287,983 4288,982 4288,968 4289,967 4289,949 4290,948 4290,927 4291,926 4291,922 4290,921 4290,899 4291,898 4291,886 4292,885 4292,861 4291,860 4291,815 4292,814 4292,778 4291,777 4291,708 4290,707 4290,699 4289,698 4289,687 4288,686 4288,659 4287,658 4287,657 4283,657 4282,656 4273,656 4272,657 4263,657 4262,658 4257,658 4256,659 4248,659 4247,658 4212,658 4211,659 4210,659 4209,660 4207,660 4206,661 4203,661 4202,662 4200,662 4199,663 4189,663 4188,662 4184,662 4183,661 4181,661 4180,660 4177,660 4176,659 4145,659 4144,660 4134,660 4133,659 4130,659 4129,658 4126,658 4125,657 4120,657 4119,656 4103,656 4102,655 4089,655 4088,656 4038,656 4037,655 4010,655 4009,656 3998,656 3997,655 3992,655 3991,654 3987,654 3986,653 3964,653 3963,652 3957,652 3956,651 3949,651 3948,650 3937,650 3936,651 3929,651 3928,652 3917,652 3916,651 3908,651 3907,650 3900,650 3899,651 3895,651 3894,652 3890,652 3889,653 3885,653 3884,654 3879,654 3878,653 3866,653 3865,652 3852,652 3851,651 3830,651 3829,650 3827,650 3826,651 3814,651 3813,652 3757,652 3756,651 3703,651 3702,652 3697,652 3696,653 3693,653 3692,654 3688,654 3687,655 3686,655 3685,654 3678,654 3677,653 3637,653 3636,654 3623,654 3622,653 3611,653 3610,652 3606,652 3605,651 3600,651 3599,650 3591,650 3590,649 3544,649 3543,650 3537,650 3536,651 3525,651 3524,650 3511,650 3510,651 3504,651 3503,652 3492,652 3491,653 3478,653 3477,654 3476,653 3472,653 3471,652 3469,652 3468,651 3465,651 3464,650 3460,650 3459,649" fill="rgba(169,219,187,0.3)" stroke="rgb(169,219,187)" stroke-width="2" data-block-id="0011" data-name="b-0016" /><text x="3835" y="808" text-anchor="middle" dominant-baseline="middle" class="block-label" fill="rgb(169,219,187)" stroke="white" stroke-width="3" paint-order="stroke">b-0016</text><polygon points="3384,2051 3383,2052 3376,2052 3375,2053 3350,2053 3347,2056 3347,2074 3346,2075 3346,2104 3345,2105 3345,2111 3344,2112 3344,2131 3345,2132 3345,2135 3346,2136 3346,2140 3347,2141 3347,2142 3346,2143 3346,2187 3347,2188 3347,2190 3346,2191 3346,2203 3345,2204 3345,2206 3344,2207 3344,2209 3343,2210 3343,2221 3344,2222 3344,2228 3345,2229 3345,2233 3346,2234 3346,2235 3345,2236 3345,2239 3344,2240 3344,2242 3343,2243 3343,2245 3342,2246 3342,2253 3343,2254 3343,2262 3342,2263 3342,2268 3341,2269 3341,2273 3342,2274 3342,2278 3343,2279 3343,2297 3344,2298 3344,2301 3345,2302 3345,2306 3346,2307 3346,2311 3345,2312 3345,2351 3344,2352 3344,2362 3343,2363 3343,2374 3344,2375 3344,2380 3343,2381 3343,2393 3344,2394 3344,2396 3345,2397 3345,2400 3346,2401 3346,2402 3347,2403 3347,2404 3350,2407 3351,2407 3352,2408 3356,2408 3357,2409 3370,2409 3371,2410 3387,2410 3388,2409 3409,2409 3410,2410 3418,2410 3419,2411 3444,2411 3445,2410 3460,2410 3461,2411 3498,2411 3499,2410 3505,2410 3506,2411 3513,2411 3514,2412 3563,2412 3564,2413 3566,2413 3567,2412 3651,2412 3652,2413 3733,2413 3734,2412 3743,2412 3744,2413 3748,2413 3749,2414 3763,2414 3764,2413 3787,2413 3788,2414 3794,2414 3795,2415 3860,2415 3861,2414 3865,2414 3866,2415 3871,2415 3872,2414 3881,2414 3882,2413 3897,2413 3898,2412 3899,2412 3902,2409 3903,2409 3904,2408 3905,2408 3906,2407 3907,2407 3908,2408 3910,2408 3912,2410 3913,2410 3914,2411 3915,2411 3916,2412 3917,2412 3918,2413 3923,2413 3924,2412 3926,2412 3927,2411 3930,2411 3931,2410 3936,2410 3937,2411 3945,2411 3946,2410 3949,2410 3950,2409 3954,2409 3955,2408 3959,2408 3960,2407 3962,2407 3963,2406 3964,2406 3966,2404 3967,2404 3970,2401 3971,2401 3975,2397 3975,2396 3977,2394 3977,2393 3978,2392 3978,2388 3977,2387 3977,2383 3976,2382 3976,2376 3977,2375 3977,2374 3978,2373 3978,2372 3979,2371 3979,2370 3980,2369 3980,2368 3983,2365 3984,2365 3986,2363 3987,2363 3988,2362 3990,2362 3991,2361 3995,2361 3996,2360 4002,2360 4003,2359 4012,2359 4013,2358 4020,2358 4021,2357 4032,2357 4033,2358 4042,2358 4043,2357 4046,2357 4047,2356 4078,2356 4079,2357 4082,2357 4083,2358 4090,2358 4091,2357 4095,2357 4096,2356 4108,2356 4109,2355 4126,2355 4127,2354 4134,2354 4135,2353 4138,2353 4139,2352 4142,2352 4143,2351 4145,2351 4147,2349 4147,2348 4148,2347 4148,2346 4149,2345 4149,2344 4150,2343 4150,2322 4151,2321 4151,2306 4152,2305 4152,2298 4153,2297 4153,2274 4154,2273 4154,2264 4153,2263 4153,2261 4154,2260 4154,2255 4155,2254 4155,2253 4159,2249 4160,2249 4162,2247 4163,2247 4163,2246 4161,2244 4161,2243 4158,2240 4158,2238 4157,2237 4157,2234 4158,2233 4158,2232 4159,2231 4159,2230 4160,2229 4160,2227 4161,2226 4161,2219 4160,2218 4160,2217 4159,2216 4159,2215 4158,2214 4158,2212 4162,2208 4163,2208 4164,2207 4164,2206 4166,2204 4166,2203 4167,2202 4167,2201 4166,2200 4166,2198 4163,2195 4163,2194 4162,2193 4162,2192 4161,2191 4161,2186 4162,2185 4162,2184 4163,2183 4163,2182 4164,2181 4164,2179 4165,2178 4165,2168 4164,2167 4164,2164 4165,2163 4165,2160 4166,2159 4166,2156 4167,2155 4167,2151 4166,2150 4166,2148 4165,2147 4165,2145 4164,2144 4164,2135 4165,2134 4165,2118 4164,2117 4164,2095 4163,2094 4163,2092 4164,2091 4164,2082 4165,2081 4165,2070 4164,2069 4164,2068 4163,2067 4163,2066 4162,2065 4161,2065 4159,2063 4143,2063 4142,2062 4126,2062 4125,2063 4119,2063 4118,2062 4113,2062 4112,2061 4106,2061 4105,2062 4095,2062 4094,2061 4088,2061 4087,2060 4085,2060 4084,2061 4078,2061 4077,2062 4066,2062 4065,2061 4058,2061 4057,2062 4048,2062 4047,2061 4020,2061 4019,2060 3993,2060 3992,2059 3989,2059 3988,2058 3986,2058 3985,2057 3983,2057 3982,2056 3979,2056 3978,2055 3938,2055 3937,2056 3931,2056 3930,2055 3914,2055 3913,2056 3893,2056 3892,2057 3879,2057 3878,2056 3871,2056 3870,2057 3865,2057 3864,2058 3849,2058 3848,2059 3844,2059 3843,2060 3841,2060 3839,2062 3836,2062 3835,2063 3833,2061 3831,2061 3830,2060 3829,2060 3828,2059 3825,2059 3824,2058 3819,2058 3818,2057 3805,2057 3804,2056 3696,2056 3695,2055 3690,2055 3689,2056 3661,2056 3660,2055 3527,2055 3526,2054 3425,2054 3424,2053 3414,2053 3413,2052 3410,2052 3409,2051 3404,2051 3403,2052 3387,2052 3386,2051" fill="rgba(189,174,189,0.3)" stroke="rgb(189,174,189)" stroke-width="2" data-block-id="0012" data-name="b-0018" /><text x="3838" y="2246" text-anchor="middle" dominant-baseline="middle" class="block-label" fill="rgb(189,174,189)" stroke="white" stroke-width="3" paint-order="stroke">b-0018</text><polygon points="3361,2523 3360,2524 3353,2524 3352,2525 3350,2525 3349,2526 3348,2526 3346,2528 3346,2529 3345,2530 3345,2533 3344,2534 3344,2537 3345,2538 3345,2549 3346,2550 3346,2554 3347,2555 3347,2556 3346,2557 3346,2560 3345,2561 3345,2562 3344,2563 3344,2565 3343,2566 3343,2583 3344,2584 3344,2593 3345,2594 3344,2595 3344,2618 3343,2619 3343,2624 3342,2625 3342,2630 3343,2631 3343,2633 3344,2634 3344,2636 3345,2637 3345,2638 3346,2639 3346,2646 3347,2647 3347,2650 3346,2651 3346,2659 3345,2660 3345,2690 3344,2691 3344,2705 3345,2706 3345,2709 3346,2710 3346,2712 3345,2713 3345,2715 3344,2716 3344,2719 3343,2720 3343,2727 3344,2728 3344,2756 3345,2757 3345,2759 3344,2760 3344,2774 3345,2775 3345,2814 3344,2815 3344,2821 3345,2822 3345,2841 3344,2842 3344,2849 3343,2850 3343,2863 3344,2864 3344,2867 3345,2868 3345,2869 3349,2873 3350,2873 3351,2874 3355,2874 3356,2875 3367,2875 3368,2876 3387,2876 3388,2875 3419,2875 3420,2876 3517,2876 3518,2877 3556,2877 3557,2876 3559,2876 3560,2875 3567,2875 3568,2876 3570,2876 3571,2877 3582,2877 3583,2876 3598,2876 3599,2877 3600,2877 3601,2876 3614,2876 3615,2877 3627,2877 3628,2876 3660,2876 3661,2877 3667,2877 3668,2878 3698,2878 3699,2877 3713,2877 3714,2878 3723,2878 3724,2877 3750,2877 3751,2876 3755,2876 3756,2877 3795,2877 3796,2876 3805,2876 3806,2877 3824,2877 3825,2878 3879,2878 3880,2879 3914,2879 3915,2878 3922,2878 3923,2877 3927,2877 3928,2876 3929,2876 3930,2875 3931,2875 3932,2874 3932,2873 3933,2872 3933,2871 3934,2870 3934,2869 3935,2868 3935,2866 3936,2865 3936,2863 3937,2862 3937,2860 3938,2859 3938,2858 3939,2857 3939,2855 3940,2854 3940,2853 3941,2852 3941,2851 3942,2850 3942,2849 3945,2846 3945,2845 3949,2841 3949,2840 3951,2838 3951,2837 3954,2834 3954,2833 3956,2831 3956,2830 3958,2828 3958,2827 3960,2825 3960,2824 3961,2823 3961,2822 3962,2821 3962,2819 3963,2818 3963,2816 3964,2815 3964,2814 3965,2813 3965,2812 3966,2811 3966,2810 3967,2809 3967,2808 3973,2802 3973,2801 3976,2798 3976,2797 3978,2795 3978,2794 3979,2793 3979,2792 3981,2790 3981,2789 3982,2788 3982,2787 3983,2786 3983,2785 3984,2784 3984,2783 3985,2782 3985,2781 3987,2779 3987,2778 3988,2777 3988,2775 3989,2774 3989,2773 3990,2772 3990,2770 3991,2769 3991,2767 3992,2766 3992,2765 3993,2764 3993,2763 3994,2762 3994,2761 3996,2759 3996,2758 4005,2749 4005,2748 4006,2747 4006,2746 4007,2745 4007,2743 4008,2742 4008,2741 4009,2740 4009,2738 4010,2737 4010,2736 4011,2735 4011,2734 4012,2733 4012,2731 4014,2729 4014,2728 4017,2725 4017,2724 4018,2723 4018,2722 4019,2721 4019,2718 4020,2717 4020,2714 4021,2713 4021,2711 4022,2710 4022,2708 4023,2707 4023,2706 4024,2705 4024,2704 4025,2703 4025,2702 4027,2700 4027,2699 4028,2698 4028,2696 4029,2695 4029,2694 4030,2693 4030,2692 4031,2691 4031,2689 4033,2687 4033,2686 4035,2684 4035,2683 4044,2674 4044,2672 4045,2671 4045,2670 4046,2669 4046,2667 4047,2666 4047,2663 4048,2662 4048,2660 4049,2659 4049,2658 4050,2657 4050,2656 4055,2651 4055,2650 4056,2649 4056,2648 4057,2647 4057,2646 4058,2645 4058,2644 4059,2643 4059,2642 4061,2640 4061,2639 4066,2634 4067,2634 4069,2632 4070,2632 4072,2630 4073,2630 4073,2629 4074,2628 4074,2627 4075,2626 4075,2623 4076,2622 4076,2619 4077,2618 4077,2617 4078,2616 4078,2615 4080,2613 4080,2612 4088,2604 4088,2603 4089,2602 4089,2601 4090,2600 4090,2599 4092,2597 4092,2596 4094,2594 4094,2593 4097,2590 4097,2589 4099,2587 4099,2586 4101,2584 4101,2583 4102,2582 4102,2581 4103,2580 4103,2575 4104,2574 4104,2570 4105,2569 4105,2564 4106,2563 4106,2561 4108,2559 4108,2558 4109,2557 4109,2556 4110,2555 4110,2554 4109,2553 4109,2549 4108,2548 4108,2545 4107,2544 4107,2543 4106,2542 4105,2542 4104,2541 4103,2541 4102,2540 4099,2540 4098,2539 4093,2539 4092,2538 4089,2538 4088,2537 4087,2537 4080,2544 4079,2544 4078,2545 4073,2545 4064,2536 4064,2535 4063,2535 4061,2533 4055,2533 4054,2532 4045,2532 4044,2531 4001,2531 4000,2532 3987,2532 3986,2531 3982,2531 3981,2530 3928,2530 3927,2529 3911,2529 3910,2528 3890,2528 3889,2529 3883,2529 3882,2528 3879,2528 3878,2527 3864,2527 3863,2528 3858,2528 3857,2529 3852,2529 3851,2530 3850,2530 3849,2529 3847,2529 3846,2528 3845,2528 3844,2527 3841,2527 3840,2526 3830,2526 3829,2527 3787,2527 3786,2528 3774,2528 3773,2529 3771,2529 3770,2530 3769,2530 3768,2531 3767,2531 3766,2532 3765,2532 3764,2533 3763,2533 3762,2532 3761,2532 3760,2531 3758,2531 3757,2530 3755,2530 3754,2529 3751,2529 3750,2528 3747,2528 3746,2527 3742,2527 3741,2526 3736,2526 3735,2527 3729,2527 3728,2526 3721,2526 3720,2525 3716,2525 3715,2526 3712,2526 3711,2527 3709,2527 3708,2528 3705,2528 3704,2527 3703,2527 3702,2526 3699,2526 3698,2525 3686,2525 3685,2526 3679,2526 3678,2525 3661,2525 3660,2526 3655,2526 3654,2525 3639,2525 3638,2526 3633,2526 3632,2525 3620,2525 3619,2526 3617,2526 3616,2527 3614,2527 3613,2528 3609,2528 3608,2527 3607,2527 3606,2526 3602,2526 3601,2525 3595,2525 3594,2526 3582,2526 3581,2527 3570,2527 3569,2528 3566,2528 3565,2529 3563,2529 3562,2528 3561,2528 3560,2527 3559,2527 3558,2526 3555,2526 3554,2525 3483,2525 3482,2524 3475,2524 3474,2525 3467,2525 3466,2524 3435,2524 3434,2523 3429,2523 3428,2524 3417,2524 3416,2523 3400,2523 3399,2524 3394,2524 3393,2523 3374,2523 3373,2524 3370,2524 3369,2523" fill="rgba(50,107,54,0.3)" stroke="rgb(50,107,54)" stroke-width="2" data-block-id="0013" data-name="b-0019" /><text x="3788" y="2668" text-anchor="middle" dominant-baseline="middle" class="block-label" fill="rgb(50,107,54)" stroke="white" stroke-width="3" paint-order="stroke">b-0019</text><polygon points="3369,1118 3368,1119 3366,1119 3365,1120 3364,1120 3364,1121 3363,1122 3363,1126 3362,1127 3362,1142 3361,1143 3361,1144 3362,1145 3362,1163 3361,1164 3361,1165 3362,1166 3362,1294 3363,1295 3363,1330 3364,1331 3364,1334 3365,1335 3365,1336 3367,1338 3368,1338 3369,1339 3370,1339 3371,1340 3466,1340 3467,1341 3471,1341 3472,1340 3495,1340 3496,1341 3604,1341 3605,1342 3625,1342 3626,1343 3673,1343 3674,1344 3719,1344 3720,1343 3736,1343 3737,1344 3740,1344 3744,1348 3744,1350 3745,1351 3745,1354 3746,1355 3746,1358 3747,1359 3747,1360 3752,1365 3792,1365 3793,1366 3834,1366 3835,1365 3837,1365 3838,1366 3888,1366 3889,1365 3901,1365 3902,1364 3904,1364 3905,1363 3906,1363 3907,1362 3909,1362 3910,1363 3911,1363 3912,1364 3914,1364 3915,1365 3926,1365 3927,1366 3967,1366 3968,1367 3979,1367 3980,1368 3981,1368 3982,1369 3982,1370 3983,1371 3983,1372 3984,1373 3984,1375 3985,1376 3985,1396 3986,1397 3986,1405 3987,1406 3987,1407 3988,1408 3988,1409 3991,1412 4007,1412 4008,1413 4033,1413 4034,1414 4045,1414 4046,1413 4098,1413 4099,1412 4108,1412 4109,1411 4110,1411 4112,1409 4112,1408 4113,1407 4113,1406 4114,1405 4114,1274 4115,1273 4115,1270 4114,1269 4114,1139 4113,1138 4113,1130 4111,1128 4111,1127 4110,1127 4109,1126 4106,1126 4105,1125 4077,1125 4076,1124 4057,1124 4056,1125 4032,1125 4031,1124 4010,1124 4009,1125 3987,1125 3986,1124 3961,1124 3960,1125 3941,1125 3940,1124 3905,1124 3904,1123 3800,1123 3799,1122 3756,1122 3755,1121 3751,1121 3750,1122 3734,1122 3733,1121 3723,1121 3722,1122 3715,1122 3714,1121 3696,1121 3695,1122 3693,1122 3692,1121 3639,1121 3638,1120 3628,1120 3627,1121 3618,1121 3617,1120 3603,1120 3602,1121 3596,1121 3595,1120 3540,1120 3539,1119 3537,1119 3536,1120 3523,1120 3522,1119 3509,1119 3508,1120 3499,1120 3498,1119 3486,1119 3485,1120 3474,1120 3473,1119 3461,1119 3460,1120 3454,1120 3453,1119 3402,1119 3401,1118" fill="rgba(134,20,72,0.3)" stroke="rgb(134,20,72)" stroke-width="2" data-block-id="0014" data-name="b-0022" /><text x="3755" y="1251" text-anchor="middle" dominant-baseline="middle" class="block-label" fill="rgb(134,20,72)" stroke="white" stroke-width="3" paint-order="stroke">b-0022</text><polygon points="4194,1967 3330,1964 3330,1568 4205,1575" fill="rgba(102,179,92,0.3)" stroke="rgb(102,179,92)" stroke-width="2" data-block-id="0015" data-name="b-0020" /><text x="3764" y="1768" text-anchor="middle" dominant-baseline="middle" class="block-label" fill="rgb(102,179,92)" stroke="white" stroke-width="3" paint-order="stroke">b-0020</text><polygon points="3360,1355 3741,1355 3756,1416 3855,1416 3855,1492 3353,1492" fill="rgba(102,179,92,0.3)" stroke="rgb(102,179,92)" stroke-width="2" data-block-id="0016" data-name="b-0021" /><text x="3653" y="1421" text-anchor="middle" dominant-baseline="middle" class="block-label" fill="rgb(102,179,92)" stroke="white" stroke-width="3" paint-order="stroke">b-0021</text></g>
</svg>