<?xml version='1.0' encoding='utf-8'?>
<svg xmlns="http://www.w3.org/2000/svg" xmlns:atlas="http://example.com/atlas" width="4984" height="3304" viewBox="0 0 4984 3304">
  
  <metadata>
    <atlas:source>
      <atlas:jp2-path>/Users/pwright/workspace/atlas/media/v2/p11.jp2</atlas:jp2-path>
      <atlas:volume>unknown</atlas:volume>
      <atlas:plate-id>p11</atlas:plate-id>
      <atlas:image-width>4984</atlas:image-width>
      <atlas:image-height>3304</atlas:image-height>
    </atlas:source>
  </metadata>

  
  <image id="background" href="file:///Users/pwright/workspace/atlas/media/v2/p11.jp2" width="4984" height="3304" opacity="0.5" />

  <style>
    .block-label { font-family: sans-serif; font-size: 14px; font-weight: bold; }
  </style>

  
  <g id="blocks">
    <polygon points="1925,760 1924,761 1892,761 1891,762 1886,762 1885,763 1881,763 1879,765 1878,765 1876,767 1876,769 1875,770 1875,778 1874,779 1874,804 1875,805 1875,816 1874,817 1874,840 1873,841 1873,852 1874,853 1874,916 1873,917 1873,931 1874,932 1874,992 1873,993 1873,1039 1874,1040 1874,1066 1873,1067 1873,1092 1874,1093 1874,1110 1875,1111 1875,1117 1876,1118 1876,1119 1879,1122 1880,1122 1881,1123 1889,1123 1890,1124 1905,1124 1906,1125 1921,1125 1922,1126 1946,1126 1947,1127 1980,1127 1981,1126 1991,1126 1992,1125 2002,1125 2003,1126 2019,1126 2020,1127 2031,1127 2032,1128 2037,1128 2038,1127 2096,1127 2097,1128 2105,1128 2106,1129 2122,1129 2123,1128 2147,1128 2148,1129 2168,1129 2169,1130 2223,1130 2224,1129 2235,1129 2236,1130 2263,1130 2264,1131 2271,1131 2272,1130 2304,1130 2305,1129 2312,1129 2313,1130 2338,1130 2339,1131 2349,1131 2350,1130 2357,1130 2358,1129 2380,1129 2381,1130 2388,1130 2389,1129 2410,1129 2411,1130 2419,1130 2420,1131 2429,1131 2430,1130 2506,1130 2507,1131 2531,1131 2532,1130 2566,1130 2567,1129 2571,1129 2572,1128 2582,1128 2583,1129 2585,1129 2586,1130 2589,1130 2590,1131 2593,1131 2594,1132 2647,1132 2648,1131 2680,1131 2681,1130 2732,1130 2733,1131 2758,1131 2759,1130 2768,1130 2769,1129 2797,1129 2798,1128 2803,1128 2804,1127 2809,1127 2810,1126 2946,1126 2947,1125 2954,1125 2955,1124 2991,1124 2992,1123 3078,1123 3079,1122 3094,1122 3095,1123 3111,1123 3112,1124 3120,1124 3121,1125 3129,1125 3130,1124 3139,1124 3140,1123 3155,1123 3156,1122 3189,1122 3190,1123 3199,1123 3200,1124 3205,1124 3206,1123 3231,1123 3232,1124 3282,1124 3283,1123 3314,1123 3315,1122 3329,1122 3330,1121 3343,1121 3344,1120 3350,1120 3351,1119 3358,1119 3359,1118 3369,1118 3370,1117 3377,1117 3378,1118 3380,1118 3381,1119 3382,1119 3383,1120 3384,1120 3385,1121 3388,1121 3389,1122 3393,1122 3394,1123 3400,1123 3401,1122 3404,1122 3405,1121 3408,1121 3409,1120 3410,1120 3412,1118 3413,1118 3414,1117 3415,1117 3416,1116 3418,1116 3419,1115 3420,1116 3441,1116 3444,1113 3445,1113 3448,1110 3449,1110 3450,1109 3452,1109 3457,1104 3457,1103 3458,1102 3458,1088 3457,1087 3457,1082 3456,1081 3456,1079 3455,1078 3455,1077 3454,1076 3454,1075 3452,1073 3452,1071 3451,1070 3451,1069 3450,1068 3450,1066 3449,1065 3449,1064 3448,1063 3448,1061 3447,1060 3447,1059 3446,1058 3446,1056 3445,1055 3445,1054 3444,1053 3444,1051 3443,1050 3443,1048 3442,1047 3442,1045 3441,1044 3441,1040 3440,1039 3440,1036 3439,1035 3439,1033 3437,1031 3437,1030 3434,1027 3433,1027 3428,1022 3428,1021 3426,1019 3426,1016 3425,1015 3425,1010 3424,1009 3424,987 3423,986 3423,980 3422,979 3422,977 3421,976 3421,975 3420,974 3420,973 3405,958 3405,957 3403,955 3403,954 3402,953 3402,951 3401,950 3401,948 3400,947 3400,935 3401,934 3401,931 3402,930 3402,928 3403,927 3403,926 3402,925 3402,924 3400,922 3399,922 3397,920 3396,920 3393,917 3393,916 3392,915 3392,914 3390,912 3390,910 3389,909 3389,908 3388,907 3388,904 3387,903 3387,897 3386,896 3386,888 3385,887 3385,884 3384,883 3384,882 3383,881 3383,880 3382,879 3382,878 3379,875 3378,875 3376,873 3375,873 3370,868 3370,867 3369,866 3369,865 3368,864 3368,860 3367,859 3367,852 3366,851 3366,844 3365,843 3365,836 3364,835 3364,830 3363,829 3363,827 3362,826 3362,823 3361,822 3361,821 3360,820 3360,817 3359,816 3359,814 3358,813 3358,810 3357,809 3357,807 3356,806 3356,804 3355,803 3355,801 3354,800 3354,797 3353,796 3353,792 3352,791 3352,787 3351,786 3351,782 3350,781 3350,779 3349,778 3349,777 3348,776 3348,775 3347,774 3347,773 3345,771 3342,771 3341,770 3320,770 3319,769 3292,769 3291,770 3273,770 3272,769 3264,769 3263,768 3258,768 3257,769 3249,769 3248,770 3221,770 3220,771 3209,771 3208,772 3201,772 3200,771 3195,771 3194,770 3188,770 3187,769 3177,769 3176,770 3166,770 3165,771 3145,771 3144,770 3134,770 3133,769 3124,769 3123,768 3116,768 3115,767 3108,767 3107,766 3101,766 3100,767 3088,767 3087,768 3068,768 3067,767 3048,767 3047,766 3022,766 3021,765 2972,765 2971,764 2966,764 2965,765 2941,765 2940,764 2894,764 2893,765 2826,765 2825,766 2747,766 2746,767 2738,767 2737,768 2728,768 2727,767 2707,767 2706,768 2689,768 2688,769 2666,769 2665,770 2649,770 2648,771 2635,771 2634,772 2623,772 2622,773 2611,773 2610,774 2601,774 2600,775 2595,775 2594,776 2591,776 2590,777 2587,777 2586,778 2584,778 2583,779 2580,779 2579,780 2569,780 2568,781 2561,781 2560,780 2555,780 2554,779 2550,779 2549,778 2545,778 2544,777 2541,777 2540,776 2537,776 2536,775 2533,775 2532,774 2530,774 2529,773 2526,773 2525,772 2523,772 2522,771 2505,771 2504,770 2493,770 2492,769 2484,769 2483,768 2446,768 2445,767 2441,767 2440,768 2416,768 2415,767 2407,767 2406,766 2391,766 2390,767 2384,767 2383,766 2364,766 2363,765 2362,765 2361,766 2303,766 2302,765 2295,765 2294,764 2275,764 2274,765 2259,765 2258,764 2241,764 2240,763 2226,763 2225,762 2210,762 2209,761 2193,761 2192,760 2191,761 2175,761 2174,762 2141,762 2140,761 2118,761 2117,762 2068,762 2067,761 2060,761 2059,760 2046,760 2045,761 1985,761 1984,760 1962,760 1961,761 1949,761 1948,760" fill="rgba(102,179,92,0.3)" stroke="rgb(102,179,92)" stroke-width="2" data-block-id="0001" data-name="b-0001" /><text x="2854" y="938" text-anchor="middle" dominant-baseline="middle" class="block-label" fill="rgb(102,179,92)" stroke="white" stroke-width="3" paint-order="stroke">b-0001</text><polygon points="1945,290 1944,291 1898,291 1897,292 1891,292 1890,293 1886,293 1885,294 1882,294 1881,295 1880,295 1876,299 1876,301 1875,302 1875,307 1874,308 1874,317 1873,318 1873,326 1874,327 1874,406 1875,407 1875,425 1874,426 1874,441 1873,442 1873,474 1874,475 1874,524 1873,525 1873,543 1874,544 1874,568 1875,569 1875,604 1874,605 1874,614 1875,615 1875,622 1876,623 1876,629 1877,630 1877,631 1878,632 1878,633 1881,636 1884,636 1885,637 1887,637 1888,638 1891,638 1892,639 1894,639 1895,640 1910,640 1911,639 1920,639 1921,640 1926,640 1927,641 1932,641 1933,642 1943,642 1944,641 1963,641 1964,642 1968,642 1969,643 1982,643 1983,642 1988,642 1989,641 2001,641 2002,642 2006,642 2007,643 2012,643 2013,644 2020,644 2021,643 2039,643 2040,644 2044,644 2045,645 2048,645 2049,646 2061,646 2062,645 2068,645 2069,644 2075,644 2076,645 2079,645 2080,646 2083,646 2084,647 2087,647 2088,648 2097,648 2098,647 2100,647 2101,646 2103,646 2104,645 2106,645 2107,644 2109,644 2110,643 2115,643 2116,644 2118,644 2119,645 2121,645 2122,646 2124,646 2125,647 2127,647 2128,648 2134,648 2135,647 2137,647 2138,646 2140,646 2141,645 2144,645 2145,644 2150,644 2151,643 2154,643 2155,644 2160,644 2161,645 2166,645 2167,646 2173,646 2174,645 2178,645 2179,644 2182,644 2183,643 2185,643 2186,642 2193,642 2194,643 2196,643 2197,644 2199,644 2200,645 2202,645 2203,646 2205,646 2206,647 2210,647 2211,648 2212,648 2213,647 2217,647 2218,646 2221,646 2222,645 2225,645 2226,644 2235,644 2236,645 2241,645 2242,646 2251,646 2252,645 2255,645 2256,644 2260,644 2261,643 2268,643 2269,642 2277,642 2278,643 2290,643 2291,642 2318,642 2319,643 2327,643 2328,644 2339,644 2340,645 2349,645 2350,646 2354,646 2355,647 2357,647 2358,648 2361,648 2362,649 2392,649 2393,650 2408,650 2409,649 2418,649 2419,648 2422,648 2423,649 2427,649 2428,650 2431,650 2432,651 2434,651 2435,652 2437,652 2438,653 2440,653 2441,654 2445,654 2446,653 2449,653 2450,652 2452,652 2453,651 2456,651 2457,650 2459,650 2460,649 2461,650 2464,650 2465,651 2466,651 2468,653 2469,653 2470,654 2471,654 2472,655 2474,655 2475,656 2477,656 2478,657 2483,657 2484,658 2504,658 2505,659 2510,659 2511,660 2517,660 2518,661 2520,661 2521,660 2525,660 2526,659 2528,659 2529,658 2531,658 2532,657 2533,657 2534,656 2536,656 2537,655 2539,655 2540,654 2547,654 2548,655 2561,655 2562,654 2563,654 2568,649 2568,648 2569,647 2569,644 2570,643 2570,640 2571,639 2571,637 2572,636 2572,634 2573,633 2573,631 2574,630 2574,629 2576,627 2576,626 2577,625 2579,625 2580,624 2582,624 2585,627 2585,628 2587,630 2587,631 2589,633 2589,634 2591,636 2591,637 2595,641 2595,642 2600,647 2600,648 2601,649 2603,649 2604,650 2605,650 2606,651 2608,651 2609,652 2611,652 2612,653 2614,653 2615,654 2621,654 2622,655 2629,655 2630,656 2641,656 2642,655 2646,655 2647,654 2651,654 2652,653 2654,653 2655,652 2661,652 2662,653 2666,653 2667,654 2701,654 2702,653 2719,653 2720,652 2738,652 2739,651 2746,651 2747,650 2777,650 2778,649 2780,649 2781,648 2782,648 2784,646 2785,646 2786,645 2787,645 2788,644 2790,644 2791,643 2796,643 2797,644 2802,644 2803,645 2808,645 2809,646 2911,646 2912,647 2916,647 2917,648 2920,648 2921,649 2927,649 2928,650 2943,650 2944,649 2949,649 2950,650 2965,650 2966,651 2968,651 2969,650 2978,650 2979,649 2985,649 2986,648 2997,648 2998,647 3014,647 3015,646 3044,646 3045,645 3070,645 3071,646 3075,646 3076,647 3080,647 3081,648 3088,648 3089,647 3090,647 3091,646 3092,646 3093,645 3094,645 3095,644 3096,644 3097,643 3098,643 3100,641 3101,641 3103,639 3105,639 3106,638 3109,638 3110,639 3114,639 3115,640 3117,640 3118,641 3120,641 3121,642 3123,642 3124,641 3125,641 3128,638 3128,637 3129,636 3129,635 3130,634 3130,633 3131,632 3131,631 3132,630 3132,629 3134,627 3134,626 3140,620 3141,620 3142,619 3146,619 3152,625 3152,626 3154,628 3154,629 3155,630 3155,631 3156,632 3156,634 3158,636 3158,637 3160,639 3160,640 3161,641 3163,641 3164,642 3171,642 3172,641 3176,641 3177,640 3181,640 3182,639 3184,639 3185,638 3187,638 3188,637 3189,637 3191,635 3192,635 3195,632 3195,631 3198,628 3198,627 3200,625 3201,625 3202,624 3203,624 3204,623 3207,623 3208,624 3211,624 3212,625 3215,625 3216,626 3218,626 3219,627 3224,627 3225,626 3227,626 3228,625 3229,625 3230,624 3231,624 3232,623 3233,623 3235,621 3236,621 3238,619 3239,619 3240,618 3241,618 3242,617 3243,617 3244,616 3250,616 3251,615 3253,615 3248,610 3247,610 3246,609 3245,609 3244,608 3243,608 3242,607 3242,606 3239,603 3239,602 3238,601 3238,600 3237,599 3237,594 3238,593 3238,591 3239,590 3240,590 3244,586 3244,585 3245,584 3245,583 3246,582 3246,581 3247,580 3247,577 3248,576 3248,571 3247,570 3247,567 3246,566 3246,564 3245,563 3245,562 3244,561 3244,560 3242,558 3242,557 3241,556 3241,555 3240,554 3240,553 3239,552 3239,549 3238,548 3238,544 3237,543 3237,537 3236,536 3236,532 3235,531 3235,529 3234,528 3234,524 3233,523 3233,519 3232,518 3232,513 3233,512 3233,510 3234,509 3234,507 3236,505 3236,504 3241,499 3241,498 3242,497 3242,495 3243,494 3243,491 3242,490 3242,479 3241,478 3241,477 3240,476 3240,475 3238,473 3237,473 3234,470 3233,470 3232,469 3232,468 3230,466 3230,465 3229,464 3229,463 3228,462 3228,461 3227,460 3227,456 3226,455 3226,445 3225,444 3225,436 3224,435 3224,432 3223,431 3223,430 3222,429 3222,428 3221,427 3221,426 3220,425 3220,424 3219,423 3219,421 3216,421 3215,420 3213,420 3212,419 3210,419 3204,413 3204,412 3203,411 3203,408 3202,407 3202,402 3201,401 3201,398 3202,397 3202,390 3203,389 3203,377 3202,376 3202,374 3201,373 3201,371 3200,370 3200,368 3199,367 3199,366 3198,365 3198,364 3197,363 3197,361 3196,360 3196,359 3195,358 3195,356 3194,355 3194,354 3193,353 3193,351 3192,350 3192,348 3191,347 3191,344 3190,343 3190,340 3189,339 3189,336 3188,335 3188,331 3187,330 3187,327 3186,326 3186,323 3185,322 3185,320 3179,314 3177,314 3176,313 3175,313 3174,312 3173,312 3170,309 3169,309 3167,307 3167,306 3165,304 3152,304 3153,305 3153,316 3154,317 3154,318 3153,319 3153,323 3152,324 3152,325 3151,326 3151,327 3149,329 3149,330 3146,333 3144,333 3143,334 3142,334 3138,330 3138,329 3137,328 3137,327 3136,326 3136,325 3135,324 3135,322 3134,321 3134,306 3133,305 3133,304 3124,304 3123,303 3101,303 3100,302 3090,302 3089,301 3072,301 3071,300 3056,300 3055,301 3038,301 3037,300 2979,300 2978,299 2955,299 2954,298 2922,298 2921,299 2829,299 2828,300 2801,300 2800,301 2788,301 2787,300 2783,300 2782,299 2778,299 2777,298 2749,298 2748,299 2725,299 2724,300 2714,300 2713,301 2707,301 2706,302 2700,302 2699,303 2693,303 2692,304 2687,304 2686,305 2681,305 2680,306 2673,306 2672,307 2643,307 2642,308 2632,308 2631,309 2626,309 2625,310 2620,310 2619,311 2614,311 2613,312 2607,312 2606,313 2599,313 2598,314 2592,314 2591,315 2586,315 2585,316 2581,316 2580,317 2573,317 2572,318 2567,318 2566,319 2563,319 2562,320 2559,320 2558,319 2556,319 2555,318 2552,318 2551,317 2548,317 2547,316 2543,316 2542,315 2539,315 2538,314 2535,314 2534,313 2532,313 2531,312 2530,312 2529,311 2527,311 2526,310 2525,310 2524,309 2522,309 2521,308 2519,308 2518,307 2511,307 2510,306 2504,306 2503,305 2500,305 2499,304 2496,304 2495,303 2492,303 2491,302 2488,302 2487,301 2484,301 2483,300 2479,300 2478,301 2475,301 2474,302 2471,302 2470,303 2468,303 2467,304 2466,304 2465,305 2460,305 2459,304 2458,304 2457,303 2456,303 2455,302 2454,302 2453,301 2451,301 2450,300 2449,300 2448,299 2445,299 2444,298 2437,298 2436,299 2430,299 2429,300 2417,300 2416,299 2408,299 2407,298 2400,298 2399,299 2377,299 2376,298 2366,298 2365,297 2359,297 2358,298 2339,298 2338,297 2321,297 2320,298 2314,298 2313,299 2303,299 2302,298 2298,298 2297,297 2293,297 2292,296 2252,296 2251,295 2246,295 2245,296 2220,296 2219,295 2186,295 2185,294 2176,294 2175,293 2163,293 2162,294 2142,294 2141,293 2105,293 2104,292 2059,292 2058,291 1996,291 1995,290" fill="rgba(188,20,102,0.3)" stroke="rgb(188,20,102)" stroke-width="2" data-block-id="0002" data-name="b-0003" /><text x="2691" y="514" text-anchor="middle" dominant-baseline="middle" class="block-label" fill="rgb(188,20,102)" stroke="white" stroke-width="3" paint-order="stroke">b-0003</text><polygon points="506,1225 505,1226 503,1226 502,1227 500,1227 499,1228 498,1228 497,1229 496,1229 495,1230 494,1230 492,1232 492,1233 491,1234 491,1237 490,1238 490,1245 491,1246 491,1250 490,1251 490,1258 489,1259 489,1308 488,1309 488,1334 489,1335 489,1368 488,1369 488,1416 487,1417 487,1557 486,1558 486,1564 487,1565 487,1587 488,1588 488,1591 489,1592 489,1594 494,1599 501,1599 502,1600 555,1600 556,1601 561,1601 562,1602 587,1602 588,1601 607,1601 608,1600 633,1600 634,1601 648,1601 649,1602 650,1601 661,1601 662,1600 717,1600 718,1601 749,1601 750,1600 769,1600 770,1601 804,1601 805,1602 835,1602 836,1601 854,1601 855,1602 897,1602 898,1603 900,1603 901,1602 1017,1602 1018,1603 1089,1603 1090,1604 1097,1604 1098,1603 1106,1603 1107,1604 1122,1604 1123,1603 1133,1603 1134,1604 1170,1604 1171,1603 1254,1603 1255,1604 1265,1604 1266,1603 1275,1603 1276,1604 1290,1604 1291,1603 1298,1603 1299,1604 1315,1604 1316,1603 1320,1603 1321,1604 1362,1604 1363,1603 1371,1603 1372,1604 1483,1604 1484,1605 1487,1605 1488,1604 1530,1604 1531,1605 1533,1605 1534,1604 1541,1604 1542,1603 1549,1603 1550,1604 1554,1604 1555,1605 1616,1605 1617,1604 1622,1604 1623,1605 1645,1605 1646,1604 1670,1604 1671,1603 1674,1603 1676,1601 1677,1601 1677,1600 1679,1598 1679,1596 1680,1595 1680,1590 1681,1589 1681,1575 1680,1574 1680,1536 1681,1535 1681,1458 1680,1457 1680,1450 1681,1449 1681,1425 1682,1424 1682,1346 1683,1345 1683,1316 1682,1315 1682,1301 1683,1300 1683,1265 1682,1264 1682,1247 1681,1246 1681,1244 1680,1243 1680,1241 1679,1240 1679,1239 1677,1237 1675,1237 1674,1236 1658,1236 1657,1235 1643,1235 1642,1236 1641,1235 1566,1235 1565,1234 1539,1234 1538,1233 1524,1233 1523,1234 1519,1234 1518,1233 1503,1233 1502,1234 1494,1234 1493,1233 1479,1233 1478,1234 1426,1234 1425,1233 1334,1233 1333,1232 1324,1232 1323,1233 1312,1233 1311,1232 1302,1232 1301,1233 1293,1233 1292,1232 1257,1232 1256,1233 1237,1233 1236,1232 1123,1232 1122,1231 1095,1231 1094,1230 1083,1230 1082,1231 1027,1231 1026,1232 1014,1232 1013,1231 942,1231 941,1230 929,1230 928,1231 917,1231 916,1230 913,1230 912,1231 878,1231 877,1230 855,1230 854,1231 843,1231 842,1230 833,1230 832,1229 825,1229 824,1230 806,1230 805,1229 761,1229 760,1230 746,1230 745,1229 706,1229 705,1228 685,1228 684,1229 683,1228 676,1228 675,1229 645,1229 644,1228 584,1228 583,1227 553,1227 552,1226 528,1226 527,1225" fill="rgba(121,210,214,0.3)" stroke="rgb(121,210,214)" stroke-width="2" data-block-id="0003" data-name="b-0004" /><text x="1086" y="1406" text-anchor="middle" dominant-baseline="middle" class="block-label" fill="rgb(121,210,214)" stroke="white" stroke-width="3" paint-order="stroke">b-0004</text><polygon points="1124,2258 1123,2259 1113,2259 1112,2260 1102,2260 1101,2261 1096,2261 1095,2262 1047,2262 1046,2261 1013,2261 1012,2262 1006,2262 1005,2261 990,2261 989,2260 982,2260 981,2261 966,2261 965,2262 917,2262 916,2263 886,2263 885,2262 839,2262 838,2261 696,2261 695,2260 658,2260 657,2261 643,2261 642,2260 563,2260 562,2259 492,2259 491,2260 489,2260 488,2261 487,2261 484,2264 484,2265 483,2266 483,2269 482,2270 482,2276 481,2277 481,2365 480,2366 480,2380 481,2381 481,2401 482,2402 482,2405 483,2406 483,2411 482,2412 482,2415 481,2416 481,2421 480,2422 480,2428 479,2429 479,2478 480,2479 480,2508 479,2509 479,2557 478,2558 478,2571 479,2572 479,2578 478,2579 478,2594 479,2595 479,2602 478,2603 478,2613 479,2614 479,2615 483,2619 484,2619 485,2620 489,2620 490,2621 498,2621 499,2622 534,2622 535,2623 589,2623 590,2624 647,2624 648,2623 684,2623 685,2622 693,2622 694,2621 700,2621 701,2622 705,2622 706,2623 712,2623 713,2624 729,2624 730,2625 737,2625 738,2624 758,2624 759,2625 783,2625 784,2624 788,2624 789,2623 791,2623 792,2622 797,2622 798,2623 826,2623 827,2622 883,2622 884,2623 938,2623 939,2624 985,2624 986,2625 1053,2625 1054,2626 1076,2626 1077,2627 1116,2627 1117,2628 1122,2628 1123,2629 1126,2629 1127,2630 1133,2630 1134,2629 1147,2629 1148,2628 1171,2628 1172,2629 1205,2629 1206,2628 1214,2628 1215,2627 1231,2627 1232,2628 1244,2628 1245,2627 1253,2627 1254,2628 1266,2628 1267,2629 1278,2629 1279,2628 1294,2628 1295,2627 1359,2627 1360,2628 1391,2628 1392,2627 1400,2627 1401,2626 1404,2626 1405,2627 1437,2627 1438,2628 1440,2628 1441,2627 1452,2627 1453,2628 1485,2628 1486,2627 1540,2627 1541,2628 1550,2628 1551,2627 1596,2627 1597,2628 1643,2628 1644,2627 1659,2627 1660,2626 1666,2626 1667,2625 1668,2625 1671,2622 1671,2621 1672,2620 1672,2619 1673,2618 1673,2616 1674,2615 1674,2611 1675,2610 1675,2603 1674,2602 1674,2585 1675,2584 1675,2485 1676,2484 1676,2476 1677,2475 1677,2452 1676,2451 1676,2447 1675,2446 1675,2429 1676,2428 1676,2344 1677,2343 1677,2315 1676,2314 1676,2311 1677,2310 1677,2291 1678,2290 1678,2278 1677,2277 1677,2274 1676,2273 1676,2271 1675,2270 1675,2269 1673,2267 1672,2267 1671,2266 1670,2266 1669,2265 1666,2265 1665,2264 1658,2264 1657,2265 1650,2265 1649,2264 1519,2264 1518,2263 1506,2263 1505,2264 1491,2264 1490,2263 1395,2263 1394,2262 1386,2262 1385,2263 1357,2263 1356,2262 1146,2262 1145,2261 1138,2261 1137,2260 1133,2260 1132,2259 1128,2259 1127,2258" fill="rgba(74,202,87,0.3)" stroke="rgb(74,202,87)" stroke-width="2" data-block-id="0004" data-name="b-0005" /><text x="1082" y="2470" text-anchor="middle" dominant-baseline="middle" class="block-label" fill="rgb(74,202,87)" stroke="white" stroke-width="3" paint-order="stroke">b-0005</text><polygon points="529,750 528,751 523,751 522,752 506,752 505,753 504,753 501,756 501,757 500,758 500,761 499,762 499,767 498,768 498,772 499,773 499,786 498,787 498,794 497,795 497,823 498,824 498,831 497,832 497,838 496,839 496,866 497,867 497,882 496,883 496,920 497,921 497,926 496,927 496,933 495,934 495,946 494,947 494,953 495,954 495,963 496,964 496,968 497,969 497,974 496,975 496,977 495,978 495,981 494,982 494,1001 495,1002 495,1016 496,1017 496,1020 495,1021 495,1027 494,1028 494,1048 495,1049 495,1059 496,1060 496,1071 495,1072 495,1076 494,1077 494,1087 495,1088 495,1096 496,1097 496,1103 497,1104 497,1105 499,1107 499,1108 502,1111 503,1111 505,1113 506,1113 507,1114 510,1114 511,1115 514,1115 515,1116 528,1116 529,1115 530,1115 531,1116 537,1116 538,1117 549,1117 550,1116 558,1116 559,1117 583,1117 584,1118 658,1118 659,1119 663,1119 664,1118 672,1118 673,1117 703,1117 704,1118 755,1118 756,1119 758,1119 759,1118 770,1118 771,1117 782,1117 783,1118 846,1118 847,1119 856,1119 857,1118 876,1118 877,1119 958,1119 959,1120 1008,1120 1009,1119 1025,1119 1026,1120 1065,1120 1066,1119 1070,1119 1071,1120 1129,1120 1130,1121 1137,1121 1138,1122 1142,1122 1143,1121 1160,1121 1161,1122 1165,1122 1166,1121 1181,1121 1182,1122 1200,1122 1201,1121 1227,1121 1228,1122 1258,1122 1259,1121 1267,1121 1268,1120 1281,1120 1282,1121 1335,1121 1336,1122 1356,1122 1357,1121 1390,1121 1391,1120 1408,1120 1409,1121 1444,1121 1445,1120 1454,1120 1455,1121 1469,1121 1470,1120 1477,1120 1478,1121 1508,1121 1509,1122 1515,1122 1516,1121 1521,1121 1522,1122 1530,1122 1531,1123 1536,1123 1537,1122 1541,1122 1542,1121 1552,1121 1553,1122 1559,1122 1560,1121 1562,1121 1563,1120 1565,1120 1566,1119 1572,1119 1573,1120 1576,1120 1577,1121 1589,1121 1590,1120 1593,1120 1594,1121 1597,1121 1598,1122 1602,1122 1603,1123 1613,1123 1614,1122 1660,1122 1661,1121 1675,1121 1676,1120 1678,1120 1682,1116 1682,1115 1683,1114 1683,1112 1684,1111 1684,1109 1685,1108 1685,1106 1686,1105 1686,1100 1685,1099 1685,1097 1684,1096 1684,1094 1683,1093 1683,1046 1682,1045 1682,1040 1683,1039 1683,1017 1684,1016 1684,1003 1683,1002 1683,999 1682,998 1682,980 1683,979 1683,963 1684,962 1684,959 1683,958 1683,918 1684,917 1684,874 1685,873 1685,860 1684,859 1684,851 1683,850 1683,825 1684,824 1684,809 1683,808 1683,799 1684,798 1684,788 1683,787 1683,768 1682,767 1682,766 1678,762 1677,762 1676,761 1667,761 1666,762 1665,761 1634,761 1633,760 1623,760 1622,761 1615,761 1614,760 1612,760 1611,759 1608,759 1607,758 1603,758 1602,759 1598,759 1597,760 1587,760 1586,759 1578,759 1577,760 1572,760 1571,761 1568,761 1567,760 1561,760 1560,759 1549,759 1548,760 1546,760 1545,759 1540,759 1539,758 1516,758 1515,757 1507,757 1506,758 1469,758 1468,757 1459,757 1458,758 1430,758 1429,757 1409,757 1408,758 1392,758 1391,757 1379,757 1378,756 1359,756 1358,757 1352,757 1351,756 1275,756 1274,755 1268,755 1267,756 1247,756 1246,755 1112,755 1111,754 1099,754 1098,755 1084,755 1083,754 1047,754 1046,755 1040,755 1039,754 1016,754 1015,753 1001,753 1000,754 990,754 989,753 980,753 979,754 968,754 967,753 952,753 951,754 946,754 945,753 918,753 917,752 906,752 905,753 897,753 896,752 879,752 878,753 875,753 874,752 844,752 843,751 839,751 838,752 823,752 822,751 810,751 809,752 799,752 798,751 790,751 789,752 775,752 774,751 764,751 763,752 753,752 752,751 749,751 748,750 743,750 742,751 740,751 739,752 734,752 733,753 732,753 731,752 724,752 723,751 718,751 717,752 706,752 705,751 698,751 697,750 696,750 695,751 681,751 680,750 670,750 669,751 653,751 652,750 647,750 646,751 621,751 620,752 607,752 606,751 583,751 582,750 575,750 574,751 569,751 568,752 564,752 563,751 534,751 533,750" fill="rgba(116,99,103,0.3)" stroke="rgb(116,99,103)" stroke-width="2" data-block-id="0005" data-name="b-0006" /><text x="1069" y="927" text-anchor="middle" dominant-baseline="middle" class="block-label" fill="rgb(116,99,103)" stroke="white" stroke-width="3" paint-order="stroke">b-0006</text><polygon points="828,268 827,269 826,269 824,271 823,271 821,273 820,273 819,274 818,274 816,276 811,276 810,277 778,277 777,276 764,276 763,277 731,277 730,276 716,276 715,277 699,277 698,276 667,276 666,277 652,277 651,276 618,276 617,277 611,277 610,276 587,276 586,275 583,275 582,274 579,274 578,273 577,273 576,274 573,274 572,275 567,275 566,276 564,276 563,275 553,275 552,276 549,276 548,277 524,277 523,278 511,278 510,279 507,279 506,280 505,280 505,281 503,283 503,284 502,285 502,286 501,287 501,289 500,290 500,311 499,312 499,330 500,331 500,349 501,350 501,353 500,354 500,387 501,388 501,405 500,406 500,548 499,549 499,581 500,582 500,594 499,595 499,618 500,619 500,625 501,626 501,627 502,628 502,629 503,630 503,631 506,634 507,634 508,635 510,635 511,636 514,636 515,637 519,637 520,638 527,638 528,639 534,639 535,640 550,640 551,639 558,639 559,640 567,640 568,641 569,641 570,640 580,640 581,641 588,641 589,642 590,642 591,641 596,641 597,640 600,640 601,639 607,639 608,640 619,640 620,639 647,639 648,638 652,638 653,639 675,639 676,640 682,640 683,641 695,641 696,640 697,640 698,641 714,641 715,640 719,640 720,639 725,639 726,640 756,640 757,641 760,641 761,640 774,640 775,641 812,641 813,640 851,640 852,641 885,641 886,640 932,640 933,641 1054,641 1055,642 1059,642 1060,641 1071,641 1072,642 1219,642 1220,641 1226,641 1227,642 1238,642 1239,643 1255,643 1256,642 1272,642 1273,643 1290,643 1291,642 1313,642 1314,643 1376,643 1377,642 1378,642 1379,643 1409,643 1410,644 1422,644 1423,643 1503,643 1504,644 1510,644 1511,645 1526,645 1527,644 1542,644 1543,643 1547,643 1548,644 1597,644 1598,645 1605,645 1606,646 1607,645 1615,645 1616,644 1617,645 1626,645 1627,646 1634,646 1635,645 1644,645 1645,646 1666,646 1667,645 1670,645 1671,644 1674,644 1675,643 1677,643 1678,642 1679,642 1680,641 1681,641 1685,637 1685,636 1686,635 1686,633 1687,632 1687,630 1688,629 1688,623 1687,622 1687,621 1686,620 1686,619 1685,618 1685,616 1684,615 1684,604 1685,603 1685,573 1684,572 1684,558 1685,557 1685,551 1686,550 1686,539 1687,538 1687,525 1686,524 1686,494 1687,493 1687,477 1686,476 1686,473 1685,472 1685,462 1686,461 1686,457 1685,456 1685,445 1686,444 1686,440 1687,439 1687,431 1686,430 1686,426 1685,425 1685,420 1686,419 1686,412 1687,411 1687,408 1686,407 1686,397 1687,396 1687,391 1688,390 1688,385 1687,384 1687,380 1686,379 1686,345 1687,344 1687,338 1686,337 1686,331 1685,330 1685,292 1684,291 1684,290 1681,287 1680,287 1679,286 1678,286 1677,285 1658,285 1657,284 1633,284 1632,283 1626,283 1625,284 1609,284 1608,283 1597,283 1596,284 1594,284 1593,283 1586,283 1585,282 1578,282 1577,283 1572,283 1571,284 1567,284 1566,283 1562,283 1561,282 1550,282 1549,283 1519,283 1518,282 1512,282 1511,281 1508,281 1507,282 1501,282 1500,283 1495,283 1494,282 1488,282 1487,281 1484,281 1483,282 1466,282 1465,281 1460,281 1459,282 1455,282 1454,283 1441,283 1440,282 1437,282 1436,283 1419,283 1418,282 1412,282 1411,283 1407,283 1406,284 1396,284 1395,283 1381,283 1380,284 1379,284 1378,283 1371,283 1370,282 1360,282 1359,283 1350,283 1349,282 1336,282 1335,283 1328,283 1327,282 1321,282 1320,281 1315,281 1314,282 1301,282 1300,281 1291,281 1290,282 1276,282 1275,281 1227,281 1226,280 1190,280 1189,281 1187,281 1186,280 1176,280 1175,279 1142,279 1141,280 1138,280 1137,279 1109,279 1108,278 1098,278 1097,279 1090,279 1089,280 1083,280 1082,281 1078,281 1077,280 1071,280 1070,279 1065,279 1064,280 1050,280 1049,279 1039,279 1038,280 1028,280 1027,279 1024,279 1023,278 1014,278 1013,277 1002,277 1001,278 994,278 993,277 987,277 986,276 983,276 982,275 979,275 978,274 975,274 974,273 967,273 966,272 953,272 952,273 943,273 942,272 915,272 914,271 911,271 910,272 897,272 896,271 890,271 889,270 887,270 886,271 858,271 857,272 852,272 851,271 848,271 847,270 846,270 845,269 843,269 842,268" fill="rgba(151,130,149,0.3)" stroke="rgb(151,130,149)" stroke-width="2" data-block-id="0006" data-name="b-0007" /><text x="1126" y="428" text-anchor="middle" dominant-baseline="middle" class="block-label" fill="rgb(151,130,149)" stroke="white" stroke-width="3" paint-order="stroke">b-0007</text><polygon points="495,1783 494,1784 493,1784 491,1786 491,1787 490,1788 490,1790 489,1791 489,1794 488,1795 488,1802 487,1803 487,1827 486,1828 486,1845 485,1846 485,1848 486,1849 486,1878 485,1879 485,1933 484,1934 484,1948 485,1949 485,1971 484,1972 484,2034 483,2035 483,2042 484,2043 484,2069 483,2070 483,2103 484,2104 484,2113 483,2114 483,2133 484,2134 484,2135 486,2137 487,2137 489,2139 491,2139 492,2140 495,2140 496,2141 548,2141 549,2142 635,2142 636,2143 693,2143 694,2144 745,2144 746,2143 748,2143 749,2144 764,2144 765,2143 857,2143 858,2144 913,2144 914,2145 915,2144 926,2144 927,2145 977,2145 978,2146 1029,2146 1030,2147 1035,2147 1036,2146 1054,2146 1055,2147 1057,2147 1058,2146 1075,2146 1076,2147 1142,2147 1143,2148 1158,2148 1159,2149 1184,2149 1185,2148 1192,2148 1193,2149 1201,2149 1202,2148 1216,2148 1217,2149 1238,2149 1239,2150 1251,2150 1252,2149 1256,2149 1257,2148 1278,2148 1279,2147 1309,2147 1310,2148 1315,2148 1316,2149 1334,2149 1335,2150 1345,2150 1346,2149 1351,2149 1352,2148 1387,2148 1388,2149 1394,2149 1395,2148 1403,2148 1404,2149 1408,2149 1409,2150 1421,2150 1422,2149 1445,2149 1446,2148 1456,2148 1457,2149 1469,2149 1470,2148 1475,2148 1476,2149 1501,2149 1502,2150 1506,2150 1507,2151 1513,2151 1514,2150 1519,2150 1520,2149 1540,2149 1541,2148 1553,2148 1554,2149 1563,2149 1564,2148 1573,2148 1574,2149 1585,2149 1586,2148 1600,2148 1601,2149 1635,2149 1636,2148 1644,2148 1645,2149 1661,2149 1662,2148 1670,2148 1671,2147 1674,2147 1677,2144 1677,2142 1678,2141 1678,2138 1679,2137 1679,2066 1678,2065 1678,2062 1679,2061 1679,2026 1678,2025 1678,2024 1679,2023 1679,1967 1680,1966 1680,1959 1681,1958 1681,1935 1680,1934 1680,1849 1681,1848 1681,1847 1680,1846 1680,1821 1681,1820 1681,1800 1680,1799 1680,1796 1679,1795 1679,1793 1678,1792 1678,1791 1677,1791 1676,1790 1668,1790 1667,1791 1664,1791 1663,1790 1656,1790 1655,1789 1649,1789 1648,1790 1634,1790 1633,1789 1624,1789 1623,1790 1613,1790 1612,1789 1607,1789 1606,1788 1603,1788 1602,1789 1584,1789 1583,1788 1580,1788 1579,1789 1564,1789 1563,1788 1559,1788 1558,1787 1556,1787 1555,1788 1552,1788 1551,1789 1548,1789 1547,1790 1543,1790 1542,1789 1537,1789 1536,1788 1531,1788 1530,1789 1515,1789 1514,1788 1502,1788 1501,1789 1494,1789 1493,1788 1481,1788 1480,1789 1466,1789 1465,1788 1456,1788 1455,1789 1442,1789 1441,1788 1433,1788 1432,1789 1424,1789 1423,1788 1385,1788 1384,1789 1351,1789 1350,1788 1303,1788 1302,1787 1284,1787 1283,1788 1279,1788 1278,1787 1240,1787 1239,1788 1227,1788 1226,1787 1211,1787 1210,1786 1195,1786 1194,1787 1175,1787 1174,1786 1141,1786 1140,1787 1118,1787 1117,1786 1089,1786 1088,1787 1083,1787 1082,1788 1079,1788 1078,1787 1074,1787 1073,1786 1068,1786 1067,1785 1055,1785 1054,1786 1012,1786 1011,1785 994,1785 993,1786 979,1786 978,1785 950,1785 949,1786 928,1786 927,1785 902,1785 901,1786 884,1786 883,1785 860,1785 859,1786 823,1786 822,1785 801,1785 800,1786 791,1786 790,1785 784,1785 783,1784 773,1784 772,1785 691,1785 690,1784 653,1784 652,1783 582,1783 581,1784 575,1784 574,1783" fill="rgba(52,1,87,0.3)" stroke="rgb(52,1,87)" stroke-width="2" data-block-id="0007" data-name="b-0008" /><text x="1188" y="1952" text-anchor="middle" dominant-baseline="middle" class="block-label" fill="rgb(52,1,87)" stroke="white" stroke-width="3" paint-order="stroke">b-0008</text><polygon points="822,2739 821,2740 759,2740 758,2741 742,2741 741,2740 704,2740 703,2741 696,2741 695,2740 678,2740 677,2741 646,2741 645,2740 635,2740 634,2741 626,2741 625,2742 622,2742 621,2743 618,2743 617,2744 616,2744 615,2745 609,2745 608,2746 599,2746 598,2745 577,2745 576,2746 573,2746 572,2747 567,2747 566,2748 559,2748 558,2749 553,2749 552,2748 551,2748 550,2747 547,2747 546,2746 543,2746 542,2745 532,2745 531,2746 528,2746 527,2747 525,2747 524,2748 517,2748 516,2749 510,2749 509,2750 495,2750 494,2751 493,2751 492,2752 491,2752 490,2753 489,2753 488,2754 487,2754 486,2755 485,2755 485,2756 484,2757 484,2760 483,2761 483,2764 482,2765 482,2784 481,2785 481,2809 480,2810 480,2830 479,2831 479,2850 478,2851 478,2856 477,2857 477,2863 476,2864 476,2901 475,2902 475,2909 474,2910 474,2916 475,2917 475,2921 474,2922 474,2975 473,2976 473,2988 474,2989 474,3024 473,3025 473,3039 474,3040 474,3058 475,3059 475,3067 476,3068 476,3069 480,3073 481,3073 482,3074 508,3074 509,3075 535,3075 536,3076 562,3076 563,3077 607,3077 608,3078 669,3078 670,3079 759,3079 760,3080 847,3080 848,3079 856,3079 857,3078 876,3078 877,3077 957,3077 958,3078 1043,3078 1044,3079 1072,3079 1073,3078 1109,3078 1110,3079 1143,3079 1144,3080 1194,3080 1195,3079 1250,3079 1251,3080 1289,3080 1290,3081 1310,3081 1311,3080 1449,3080 1450,3081 1507,3081 1508,3080 1525,3080 1526,3081 1531,3081 1532,3082 1538,3082 1539,3081 1561,3081 1562,3080 1572,3080 1573,3079 1578,3079 1579,3078 1665,3078 1666,3077 1667,3077 1669,3075 1669,3074 1670,3073 1670,3071 1671,3070 1671,3057 1672,3056 1672,3028 1673,3027 1673,3017 1672,3016 1672,2989 1671,2988 1671,2976 1672,2975 1672,2948 1673,2947 1673,2943 1672,2942 1672,2929 1673,2928 1673,2924 1674,2923 1674,2894 1673,2893 1673,2888 1672,2887 1672,2878 1673,2877 1673,2873 1672,2872 1672,2850 1673,2849 1673,2848 1672,2847 1672,2808 1673,2807 1673,2752 1672,2751 1672,2749 1671,2748 1671,2747 1667,2743 1665,2743 1664,2742 1658,2742 1657,2741 1623,2741 1622,2742 1616,2742 1615,2741 1526,2741 1525,2742 1512,2742 1511,2741 1494,2741 1493,2742 1489,2742 1488,2743 1484,2743 1483,2744 1477,2744 1476,2745 1471,2745 1470,2744 1463,2744 1462,2743 1461,2743 1460,2744 1434,2744 1433,2745 1413,2745 1412,2744 1375,2744 1374,2743 1369,2743 1368,2742 1357,2742 1356,2741 1345,2741 1344,2742 1324,2742 1323,2741 1297,2741 1296,2742 1278,2742 1277,2741 1228,2741 1227,2742 1221,2742 1220,2741 1193,2741 1192,2742 1179,2742 1178,2741 1122,2741 1121,2740 1084,2740 1083,2741 1077,2741 1076,2740 1052,2740 1051,2741 1024,2741 1023,2740 1017,2740 1016,2741 980,2741 979,2740 930,2740 929,2739 856,2739 855,2740 845,2740 844,2739" fill="rgba(235,157,37,0.3)" stroke="rgb(235,157,37)" stroke-width="2" data-block-id="0008" data-name="b-0009" /><text x="1035" y="2863" text-anchor="middle" dominant-baseline="middle" class="block-label" fill="rgb(235,157,37)" stroke="white" stroke-width="3" paint-order="stroke">b-0009</text><polygon points="2663,2259 2662,2260 2645,2260 2644,2261 2567,2261 2566,2262 2534,2262 2533,2263 2525,2263 2524,2264 2518,2264 2517,2265 2505,2265 2504,2264 2498,2264 2497,2265 2487,2265 2486,2266 2470,2266 2469,2267 2460,2267 2459,2266 2450,2266 2449,2267 2447,2267 2445,2269 2444,2269 2439,2274 2435,2274 2434,2273 2395,2273 2394,2272 2393,2272 2389,2268 2388,2268 2387,2267 2386,2267 2385,2266 2364,2266 2363,2265 2345,2265 2344,2266 2314,2266 2313,2265 2299,2265 2298,2266 2296,2266 2295,2265 2282,2265 2281,2266 2269,2266 2268,2265 2235,2265 2234,2266 2220,2266 2219,2265 2205,2265 2204,2266 2199,2266 2198,2265 2185,2265 2184,2266 2174,2266 2173,2265 2157,2265 2156,2266 2152,2266 2151,2265 2137,2265 2136,2266 2126,2266 2125,2265 2111,2265 2110,2266 2074,2266 2073,2265 2068,2265 2067,2266 2039,2266 2038,2267 2032,2267 2031,2266 2003,2266 2002,2265 1992,2265 1991,2266 1986,2266 1985,2265 1981,2265 1980,2264 1932,2264 1931,2263 1918,2263 1917,2264 1897,2264 1896,2265 1889,2265 1888,2264 1875,2264 1874,2265 1872,2265 1871,2266 1870,2266 1867,2269 1867,2270 1866,2271 1866,2272 1865,2273 1865,2276 1864,2277 1864,2288 1863,2289 1863,2333 1864,2334 1864,2350 1863,2351 1863,2361 1862,2362 1862,2417 1861,2418 1861,2422 1862,2423 1862,2436 1861,2437 1861,2459 1860,2460 1860,2477 1861,2478 1861,2481 1860,2482 1860,2558 1859,2559 1859,2570 1860,2571 1860,2577 1859,2578 1859,2607 1858,2608 1858,2610 1859,2611 1859,2616 1860,2617 1860,2619 1861,2620 1861,2622 1862,2623 1862,2624 1865,2627 1866,2627 1867,2628 1869,2628 1870,2629 1875,2629 1876,2630 1884,2630 1885,2629 1900,2629 1901,2630 1906,2630 1907,2629 1923,2629 1924,2630 1929,2630 1930,2629 1934,2629 1935,2628 1947,2628 1948,2629 1957,2629 1958,2628 1965,2628 1966,2629 1981,2629 1982,2628 1997,2628 1998,2629 2000,2629 2001,2628 2031,2628 2032,2627 2040,2627 2041,2628 2053,2628 2054,2627 2062,2627 2063,2628 2075,2628 2076,2627 2114,2627 2115,2628 2120,2628 2121,2627 2128,2627 2129,2626 2135,2626 2136,2627 2147,2627 2148,2626 2162,2626 2163,2627 2168,2627 2169,2626 2238,2626 2239,2625 2244,2625 2245,2624 2247,2624 2248,2623 2252,2623 2253,2624 2258,2624 2259,2625 2294,2625 2295,2624 2313,2624 2314,2623 2317,2623 2318,2622 2330,2622 2331,2623 2336,2623 2337,2622 2342,2622 2343,2621 2359,2621 2364,2616 2364,2615 2367,2612 2371,2612 2380,2621 2387,2621 2388,2622 2413,2622 2414,2621 2422,2621 2423,2622 2434,2622 2435,2623 2459,2623 2460,2622 2483,2622 2484,2621 2499,2621 2500,2620 2504,2620 2505,2619 2508,2619 2509,2618 2515,2618 2516,2617 2525,2617 2526,2618 2552,2618 2553,2617 2565,2617 2566,2616 2574,2616 2575,2615 2577,2615 2578,2614 2579,2614 2580,2613 2581,2613 2583,2611 2584,2611 2585,2610 2595,2610 2596,2611 2600,2611 2601,2612 2607,2612 2608,2613 2620,2613 2621,2614 2625,2614 2626,2615 2630,2615 2631,2616 2668,2616 2669,2617 2680,2617 2681,2618 2717,2618 2718,2619 2728,2619 2729,2620 2788,2620 2789,2619 2848,2619 2849,2618 2883,2618 2884,2619 2887,2619 2888,2620 2903,2620 2904,2619 2909,2619 2910,2618 2912,2618 2913,2617 2914,2617 2915,2616 2916,2616 2917,2615 2920,2615 2921,2616 2922,2616 2923,2617 2924,2617 2926,2619 2927,2619 2928,2620 2936,2620 2937,2619 2944,2619 2945,2620 2948,2620 2949,2621 2955,2621 2957,2619 2957,2618 2959,2616 2959,2615 2961,2613 2961,2611 2962,2610 2962,2595 2961,2594 2961,2591 2960,2590 2960,2579 2959,2578 2959,2577 2960,2576 2960,2560 2961,2559 2961,2546 2960,2545 2960,2382 2959,2381 2959,2373 2958,2372 2958,2344 2957,2343 2957,2333 2958,2332 2958,2321 2957,2320 2957,2318 2956,2317 2956,2315 2955,2314 2955,2313 2953,2311 2953,2305 2952,2304 2952,2298 2953,2297 2953,2293 2954,2292 2954,2288 2955,2287 2955,2277 2956,2276 2956,2266 2955,2265 2955,2264 2954,2263 2950,2263 2949,2262 2937,2262 2936,2261 2889,2261 2888,2260 2880,2260 2879,2261 2840,2261 2839,2260 2820,2260 2819,2261 2782,2261 2781,2260 2672,2260 2671,2259" fill="rgba(129,191,187,0.3)" stroke="rgb(129,191,187)" stroke-width="2" data-block-id="0009" data-name="b-0010" /><text x="2390" y="2466" text-anchor="middle" dominant-baseline="middle" class="block-label" fill="rgb(129,191,187)" stroke="white" stroke-width="3" paint-order="stroke">b-0010</text><polygon points="2248,1239 2247,1240 2240,1240 2239,1241 2182,1241 2181,1240 2177,1240 2176,1241 2172,1241 2171,1242 2162,1242 2161,1243 2137,1243 2136,1242 2106,1242 2105,1243 2095,1243 2094,1242 2086,1242 2085,1241 2067,1241 2066,1242 2039,1242 2038,1241 2031,1241 2030,1242 1996,1242 1995,1241 1985,1241 1984,1242 1979,1242 1978,1243 1969,1243 1968,1242 1946,1242 1945,1241 1935,1241 1934,1242 1909,1242 1908,1243 1897,1243 1896,1242 1889,1242 1888,1243 1883,1243 1882,1244 1880,1244 1879,1245 1878,1245 1876,1247 1876,1248 1875,1249 1875,1250 1874,1251 1874,1255 1873,1256 1873,1282 1872,1283 1872,1338 1871,1339 1871,1366 1870,1367 1870,1373 1871,1374 1871,1408 1870,1409 1870,1505 1869,1506 1869,1581 1868,1582 1868,1585 1869,1586 1869,1595 1870,1596 1870,1598 1875,1603 1876,1603 1878,1605 1880,1605 1881,1606 1895,1606 1896,1607 1922,1607 1923,1608 1932,1608 1933,1607 1948,1607 1949,1608 1955,1608 1956,1607 1966,1607 1967,1608 1973,1608 1974,1609 1977,1609 1978,1608 1996,1608 1997,1609 2001,1609 2002,1608 2027,1608 2028,1607 2034,1607 2035,1606 2036,1606 2037,1607 2056,1607 2057,1606 2060,1606 2061,1607 2088,1607 2089,1608 2098,1608 2099,1607 2114,1607 2115,1608 2148,1608 2149,1607 2158,1607 2159,1608 2163,1608 2164,1609 2175,1609 2176,1608 2206,1608 2207,1609 2216,1609 2217,1610 2240,1610 2241,1609 2245,1609 2246,1608 2259,1608 2260,1609 2282,1609 2283,1608 2301,1608 2302,1609 2366,1609 2367,1608 2430,1608 2431,1609 2439,1609 2440,1610 2462,1610 2463,1611 2477,1611 2478,1610 2483,1610 2484,1609 2510,1609 2511,1608 2515,1608 2516,1609 2531,1609 2532,1610 2563,1610 2564,1609 2590,1609 2591,1608 2602,1608 2603,1609 2637,1609 2638,1608 2648,1608 2649,1609 2696,1609 2697,1610 2709,1610 2710,1609 2719,1609 2720,1610 2724,1610 2725,1611 2729,1611 2730,1612 2753,1612 2754,1611 2757,1611 2758,1610 2761,1610 2762,1609 2766,1609 2767,1610 2818,1610 2819,1611 2836,1611 2837,1610 2851,1610 2852,1609 2927,1609 2928,1610 2931,1610 2932,1609 2937,1609 2938,1608 2941,1608 2942,1607 2943,1607 2945,1605 2945,1604 2947,1602 2947,1601 2948,1600 2948,1599 2949,1598 2949,1595 2950,1594 2950,1572 2949,1571 2949,1551 2948,1550 2948,1549 2949,1548 2949,1538 2950,1537 2950,1522 2949,1521 2949,1463 2950,1462 2950,1432 2949,1431 2949,1384 2948,1383 2948,1365 2947,1364 2947,1353 2948,1352 2948,1347 2949,1346 2949,1343 2948,1342 2948,1330 2947,1329 2947,1312 2946,1311 2947,1310 2947,1305 2948,1304 2948,1301 2949,1300 2949,1290 2948,1289 2948,1262 2947,1261 2947,1253 2946,1252 2946,1250 2945,1249 2945,1248 2943,1246 2942,1246 2941,1245 2916,1245 2915,1244 2897,1244 2896,1243 2893,1243 2892,1244 2861,1244 2860,1243 2850,1243 2849,1242 2844,1242 2843,1243 2836,1243 2835,1244 2818,1244 2817,1243 2810,1243 2809,1242 2806,1242 2805,1241 2802,1241 2801,1240 2800,1240 2799,1241 2797,1241 2796,1242 2795,1242 2794,1243 2792,1243 2791,1244 2790,1244 2789,1245 2786,1245 2785,1246 2767,1246 2766,1245 2764,1245 2763,1244 2761,1244 2760,1243 2757,1243 2756,1242 2750,1242 2749,1243 2747,1243 2746,1244 2745,1244 2744,1245 2742,1245 2741,1246 2738,1246 2737,1247 2727,1247 2726,1248 2725,1247 2710,1247 2709,1246 2702,1246 2701,1247 2697,1247 2696,1248 2689,1248 2688,1249 2682,1249 2681,1250 2680,1250 2679,1249 2673,1249 2672,1248 2656,1248 2655,1249 2651,1249 2650,1250 2647,1250 2646,1251 2639,1251 2638,1250 2621,1250 2620,1251 2614,1251 2613,1252 2608,1252 2607,1253 2603,1253 2602,1254 2593,1254 2592,1253 2589,1253 2588,1252 2586,1252 2585,1251 2582,1251 2581,1250 2577,1250 2576,1249 2566,1249 2565,1248 2550,1248 2549,1247 2533,1247 2532,1246 2527,1246 2526,1245 2518,1245 2517,1244 2508,1244 2507,1245 2496,1245 2495,1246 2483,1246 2482,1245 2455,1245 2454,1246 2443,1246 2442,1247 2441,1246 2434,1246 2433,1245 2418,1245 2417,1246 2402,1246 2401,1247 2395,1247 2394,1248 2393,1247 2388,1247 2387,1246 2383,1246 2382,1245 2375,1245 2374,1244 2364,1244 2363,1243 2348,1243 2347,1244 2345,1244 2344,1243 2329,1243 2328,1242 2276,1242 2275,1241 2260,1241 2259,1240 2252,1240 2251,1239" fill="rgba(20,160,203,0.3)" stroke="rgb(20,160,203)" stroke-width="2" data-block-id="0010" data-name="b-0011" /><text x="2466" y="1390" text-anchor="middle" dominant-baseline="middle" class="block-label" fill="rgb(20,160,203)" stroke="white" stroke-width="3" paint-order="stroke">b-0011</text><polygon points="2554,1788 2553,1789 2507,1789 2506,1790 2479,1790 2478,1789 2477,1790 2457,1790 2456,1789 2439,1789 2438,1790 2324,1790 2323,1789 2299,1789 2298,1790 2159,1790 2158,1789 2151,1789 2150,1790 2135,1790 2134,1789 1996,1789 1995,1790 1932,1790 1931,1789 1878,1789 1877,1790 1875,1790 1874,1791 1873,1791 1870,1794 1870,1795 1869,1796 1869,1799 1868,1800 1868,1814 1867,1815 1867,1831 1868,1832 1868,1863 1867,1864 1867,1879 1868,1880 1868,1883 1867,1884 1867,1926 1868,1927 1868,1937 1867,1938 1867,1990 1866,1991 1866,2089 1865,2090 1865,2126 1864,2127 1864,2139 1865,2140 1865,2143 1866,2144 1866,2145 1868,2147 1871,2147 1872,2148 1907,2148 1908,2149 1936,2149 1937,2148 1943,2148 1944,2149 2033,2149 2034,2148 2037,2148 2038,2149 2079,2149 2080,2148 2086,2148 2087,2149 2131,2149 2132,2150 2140,2150 2141,2151 2155,2151 2156,2152 2162,2152 2163,2153 2170,2153 2171,2152 2176,2152 2177,2151 2196,2151 2197,2150 2205,2150 2206,2151 2210,2151 2211,2152 2216,2152 2217,2151 2221,2151 2222,2150 2226,2150 2227,2149 2228,2149 2229,2150 2241,2150 2242,2151 2245,2151 2246,2152 2249,2152 2250,2153 2257,2153 2258,2154 2265,2154 2266,2153 2272,2153 2273,2152 2278,2152 2279,2151 2296,2151 2297,2150 2336,2150 2337,2149 2348,2149 2349,2150 2489,2150 2490,2149 2504,2149 2505,2148 2508,2148 2509,2147 2515,2147 2516,2146 2543,2146 2544,2145 2572,2145 2573,2144 2591,2144 2592,2145 2657,2145 2658,2146 2688,2146 2689,2145 2717,2145 2718,2146 2759,2146 2760,2147 2768,2147 2769,2146 2935,2146 2936,2145 2947,2145 2948,2144 2951,2144 2952,2143 2953,2143 2953,2142 2954,2141 2954,2140 2955,2139 2955,2137 2956,2136 2956,2099 2955,2098 2955,1981 2956,1980 2956,1973 2955,1972 2955,1837 2954,1836 2954,1835 2955,1834 2955,1825 2956,1824 2956,1819 2955,1818 2955,1807 2954,1806 2954,1799 2953,1798 2953,1796 2952,1795 2952,1794 2948,1790 2947,1790 2946,1789 2943,1789 2942,1788 2862,1788 2861,1789 2854,1789 2853,1788 2845,1788 2844,1789 2840,1789 2839,1790 2838,1790 2837,1791 2833,1791 2832,1790 2830,1790 2829,1789 2824,1789 2823,1788 2796,1788 2795,1789 2792,1789 2791,1790 2790,1790 2789,1791 2783,1791 2782,1790 2778,1790 2777,1789 2764,1789 2763,1788 2752,1788 2751,1789 2743,1789 2742,1790 2736,1790 2735,1789 2712,1789 2711,1790 2688,1790 2687,1789 2629,1789 2628,1788 2611,1788 2610,1789 2605,1789 2604,1788 2577,1788 2576,1789 2566,1789 2565,1788" fill="rgba(235,88,48,0.3)" stroke="rgb(235,88,48)" stroke-width="2" data-block-id="0011" data-name="b-0013" /><text x="2430" y="1970" text-anchor="middle" dominant-baseline="middle" class="block-label" fill="rgb(235,88,48)" stroke="white" stroke-width="3" paint-order="stroke">b-0013</text><polygon points="4033,2246 4032,2247 4029,2247 4028,2248 4015,2248 4014,2247 4005,2247 4004,2248 3994,2248 3993,2247 3981,2247 3980,2248 3972,2248 3971,2247 3956,2247 3955,2248 3946,2248 3945,2247 3935,2247 3934,2248 3920,2248 3919,2247 3914,2247 3913,2248 3905,2248 3904,2249 3901,2249 3900,2248 3884,2248 3883,2249 3876,2249 3875,2248 3865,2248 3864,2249 3811,2249 3810,2250 3776,2250 3775,2249 3772,2249 3771,2250 3716,2250 3715,2251 3622,2251 3621,2252 3571,2252 3570,2253 3560,2253 3559,2252 3557,2252 3556,2253 3539,2253 3538,2252 3532,2252 3531,2253 3407,2253 3406,2254 3336,2254 3335,2255 3266,2255 3265,2256 3222,2256 3221,2257 3162,2257 3161,2258 3140,2258 3139,2259 3134,2259 3133,2260 3130,2260 3129,2261 3127,2261 3126,2262 3124,2262 3123,2263 3121,2263 3119,2265 3118,2265 3118,2266 3117,2267 3117,2272 3116,2273 3116,2290 3115,2291 3115,2298 3114,2299 3115,2300 3115,2304 3116,2305 3116,2307 3117,2308 3117,2310 3118,2311 3118,2317 3117,2318 3117,2326 3116,2327 3116,2342 3115,2343 3115,2350 3116,2351 3116,2354 3117,2355 3117,2359 3118,2360 3118,2363 3117,2364 3117,2378 3116,2379 3116,2392 3115,2393 3115,2397 3116,2398 3116,2401 3117,2402 3117,2405 3118,2406 3118,2416 3117,2417 3117,2429 3118,2430 3117,2431 3117,2438 3116,2439 3116,2446 3117,2447 3117,2449 3118,2450 3118,2452 3119,2453 3119,2460 3118,2461 3118,2464 3117,2465 3117,2486 3116,2487 3116,2498 3117,2499 3117,2519 3118,2520 3118,2523 3119,2524 3120,2524 3121,2525 3126,2525 3127,2526 3127,2529 3126,2530 3120,2530 3119,2531 3118,2531 3118,2532 3117,2533 3117,2536 3116,2537 3116,2544 3117,2545 3117,2560 3116,2561 3116,2564 3117,2565 3117,2573 3118,2574 3118,2576 3117,2577 3117,2584 3116,2585 3116,2609 3117,2610 3117,2611 3118,2612 3121,2612 3122,2613 3125,2613 3126,2614 3129,2614 3130,2615 3133,2615 3134,2616 3137,2616 3138,2617 3141,2617 3142,2616 3148,2616 3149,2615 3157,2615 3158,2616 3172,2616 3173,2617 3202,2617 3203,2616 3206,2616 3207,2615 3209,2615 3210,2614 3211,2614 3212,2615 3214,2615 3215,2616 3218,2616 3219,2617 3283,2617 3284,2616 3325,2616 3326,2615 3373,2615 3374,2614 3425,2614 3426,2613 3493,2613 3494,2612 3504,2612 3505,2613 3513,2613 3514,2612 3562,2612 3563,2611 3616,2611 3617,2610 3664,2610 3665,2609 3697,2609 3698,2610 3702,2610 3703,2609 3736,2609 3737,2608 3773,2608 3774,2607 3778,2607 3779,2608 3783,2608 3784,2607 3861,2607 3862,2606 3959,2606 3960,2605 4031,2605 4032,2604 4082,2604 4083,2603 4135,2603 4136,2602 4187,2602 4188,2601 4195,2601 4196,2602 4209,2602 4210,2601 4235,2601 4236,2600 4243,2600 4244,2601 4253,2601 4254,2600 4282,2600 4283,2599 4289,2599 4290,2598 4296,2598 4297,2597 4299,2597 4299,2596 4302,2593 4303,2593 4304,2592 4305,2592 4306,2591 4308,2591 4311,2588 4311,2580 4310,2579 4310,2575 4309,2574 4309,2566 4308,2565 4308,2563 4307,2563 4306,2562 4304,2562 4302,2560 4302,2557 4301,2556 4301,2546 4300,2545 4300,2543 4298,2541 4298,2538 4300,2536 4301,2536 4301,2535 4302,2534 4302,2533 4303,2532 4303,2528 4302,2527 4302,2526 4301,2525 4301,2524 4298,2521 4298,2520 4296,2518 4296,2517 4295,2516 4295,2510 4296,2509 4296,2503 4295,2502 4294,2502 4293,2501 4292,2501 4290,2499 4290,2498 4289,2497 4289,2494 4288,2493 4289,2492 4289,2487 4290,2486 4290,2484 4291,2483 4291,2481 4292,2480 4292,2477 4293,2476 4293,2474 4294,2473 4294,2471 4295,2470 4295,2469 4292,2466 4291,2466 4290,2465 4289,2465 4288,2464 4287,2464 4286,2463 4278,2463 4277,2464 4274,2464 4273,2463 4271,2463 4270,2462 4268,2462 4267,2461 4264,2461 4263,2460 4259,2460 4258,2461 4256,2461 4255,2462 4253,2462 4252,2463 4242,2463 4241,2462 4225,2462 4224,2461 4222,2461 4221,2460 4219,2460 4218,2459 4216,2459 4215,2458 4209,2458 4208,2459 4204,2459 4203,2460 4179,2460 4178,2459 4173,2459 4172,2458 4167,2458 4166,2457 4163,2457 4162,2458 4151,2458 4150,2457 4145,2457 4144,2456 4138,2456 4137,2457 4129,2457 4128,2456 4126,2456 4125,2455 4122,2455 4121,2454 4120,2454 4118,2452 4117,2452 4115,2450 4113,2450 4112,2449 4110,2449 4109,2448 4107,2448 4104,2445 4104,2444 4103,2443 4103,2437 4102,2436 4102,2431 4101,2430 4101,2429 4100,2428 4100,2427 4099,2426 4099,2425 4098,2424 4098,2423 4097,2422 4097,2421 4096,2420 4096,2419 4095,2418 4095,2414 4094,2413 4094,2412 4092,2410 4092,2409 4091,2408 4090,2408 4088,2406 4086,2406 4085,2405 4081,2405 4080,2404 4076,2404 4075,2403 4074,2403 4073,2402 4072,2402 4071,2401 4069,2401 4068,2400 4060,2400 4059,2399 4058,2399 4054,2395 4054,2388 4053,2387 4053,2381 4054,2380 4054,2371 4055,2370 4055,2368 4056,2367 4056,2365 4059,2362 4059,2358 4057,2356 4057,2355 4056,2354 4056,2353 4055,2352 4055,2351 4054,2350 4054,2348 4053,2347 4053,2343 4052,2342 4052,2340 4050,2338 4050,2334 4051,2333 4051,2329 4052,2328 4052,2317 4053,2316 4053,2309 4052,2308 4052,2305 4051,2304 4051,2299 4050,2298 4050,2296 4049,2295 4049,2294 4048,2293 4048,2292 4047,2291 4047,2282 4046,2281 4046,2273 4045,2272 4045,2266 4044,2265 4044,2254 4043,2253 4043,2252 4041,2250 4040,2250 4037,2247 4036,2247 4035,2246" fill="rgba(218,58,254,0.3)" stroke="rgb(218,58,254)" stroke-width="2" data-block-id="0012" data-name="b-0014" /><text x="3791" y="2440" text-anchor="middle" dominant-baseline="middle" class="block-label" fill="rgb(218,58,254)" stroke="white" stroke-width="3" paint-order="stroke">b-0014</text><polygon points="3612,1779 3611,1780 3606,1780 3605,1781 3589,1781 3588,1782 3577,1782 3576,1783 3566,1783 3565,1782 3560,1782 3559,1781 3513,1781 3512,1782 3476,1782 3475,1781 3472,1781 3471,1782 3446,1782 3445,1783 3432,1783 3431,1782 3423,1782 3422,1783 3382,1783 3381,1782 3376,1782 3375,1783 3352,1783 3351,1784 3348,1784 3347,1785 3338,1785 3337,1784 3333,1784 3332,1783 3328,1783 3327,1784 3286,1784 3285,1783 3282,1783 3281,1784 3273,1784 3272,1785 3271,1785 3270,1784 3264,1784 3263,1783 3254,1783 3253,1784 3219,1784 3218,1783 3202,1783 3201,1784 3195,1784 3194,1783 3182,1783 3181,1784 3170,1784 3169,1783 3161,1783 3160,1784 3134,1784 3133,1785 3123,1785 3122,1784 3115,1784 3114,1785 3112,1785 3111,1786 3110,1786 3107,1789 3107,1790 3106,1791 3106,1792 3105,1793 3105,1794 3104,1795 3104,1796 3103,1797 3103,1800 3102,1801 3102,1805 3101,1806 3101,1813 3100,1814 3100,1826 3101,1827 3101,1858 3102,1859 3102,1861 3101,1862 3101,1879 3102,1880 3102,1913 3103,1914 3103,1944 3104,1945 3104,2044 3105,2045 3105,2085 3104,2086 3104,2089 3105,2090 3105,2099 3104,2100 3104,2120 3105,2121 3105,2135 3106,2136 3106,2137 3107,2138 3107,2139 3109,2141 3109,2142 3110,2143 3111,2143 3112,2144 3113,2144 3114,2145 3116,2145 3117,2146 3170,2146 3171,2145 3185,2145 3186,2146 3187,2145 3200,2145 3201,2144 3267,2144 3268,2143 3294,2143 3295,2142 3338,2142 3339,2141 3345,2141 3346,2142 3350,2142 3351,2143 3354,2143 3355,2144 3360,2144 3361,2145 3380,2145 3381,2144 3396,2144 3397,2143 3436,2143 3437,2142 3487,2142 3488,2141 3539,2141 3540,2140 3551,2140 3552,2139 3558,2139 3559,2138 3563,2138 3564,2137 3567,2137 3568,2136 3569,2136 3570,2137 3572,2137 3573,2138 3576,2138 3577,2139 3582,2139 3583,2140 3591,2140 3592,2139 3593,2140 3631,2140 3632,2139 3647,2139 3648,2140 3660,2140 3661,2141 3668,2141 3669,2140 3691,2140 3692,2139 3723,2139 3724,2138 3782,2138 3783,2137 3784,2138 3806,2138 3807,2137 3814,2137 3815,2138 3822,2138 3823,2137 3837,2137 3838,2138 3852,2138 3853,2137 3872,2137 3873,2138 3883,2138 3884,2137 3902,2137 3903,2136 4002,2136 4003,2135 4044,2135 4045,2134 4049,2134 4050,2135 4069,2135 4070,2134 4087,2134 4088,2133 4112,2133 4113,2132 4117,2132 4119,2130 4119,2127 4120,2126 4120,2122 4119,2121 4119,2120 4116,2117 4116,2116 4114,2114 4114,2112 4113,2111 4113,2110 4112,2109 4112,2107 4111,2106 4111,2105 4109,2103 4109,2102 4108,2101 4108,2100 4107,2099 4107,2098 4105,2096 4105,2095 4103,2093 4103,2092 4102,2091 4102,2090 4101,2089 4101,2088 4100,2087 4100,2086 4099,2085 4099,2084 4097,2082 4097,2081 4096,2080 4096,2079 4094,2077 4094,2076 4093,2075 4093,2074 4090,2071 4090,2070 4088,2068 4088,2067 4087,2066 4087,2065 4086,2064 4086,2063 4085,2062 4085,2060 4084,2059 4084,2058 4082,2056 4082,2055 4081,2054 4081,2053 4080,2052 4080,2051 4079,2050 4079,2049 4078,2048 4078,2047 4076,2045 4076,2044 4075,2043 4075,2042 4074,2041 4074,2040 4073,2039 4073,2038 4071,2036 4071,2035 4069,2033 4069,2032 4067,2030 4067,2029 4066,2028 4066,2027 4065,2026 4065,2025 4064,2024 4064,2023 4063,2022 4063,2021 4062,2020 4062,2019 4061,2018 4061,2017 4060,2016 4060,2015 4058,2013 4058,2012 4055,2009 4055,2008 4053,2006 4053,2005 4052,2004 4052,2003 4051,2002 4051,2001 4049,1999 4049,1998 4047,1996 4047,1995 4044,1992 4044,1991 4042,1989 4042,1988 4040,1986 4040,1985 4039,1984 4039,1982 4038,1981 4038,1979 4037,1978 4037,1977 4035,1975 4035,1974 4031,1970 4031,1969 4029,1967 4029,1966 4028,1965 4028,1964 4027,1963 4027,1962 4026,1961 4026,1960 4025,1959 4025,1958 4022,1955 4022,1954 4018,1950 4018,1949 4017,1948 4017,1945 4016,1944 4016,1942 4015,1941 4015,1940 4014,1939 4014,1938 4012,1936 4012,1935 4010,1933 4010,1932 4009,1931 4009,1930 4007,1928 4007,1927 4006,1926 4006,1925 4005,1924 4005,1923 4003,1921 4003,1920 4002,1919 4002,1918 4001,1917 4001,1916 3998,1913 3998,1912 3996,1910 3996,1909 3995,1908 3995,1907 3994,1906 3994,1905 3993,1904 3993,1903 3992,1902 3992,1901 3990,1899 3990,1898 3989,1897 3989,1896 3987,1894 3987,1893 3985,1891 3985,1890 3983,1888 3983,1887 3982,1886 3982,1885 3981,1884 3981,1883 3979,1881 3979,1880 3977,1878 3977,1877 3975,1875 3975,1874 3973,1872 3973,1871 3972,1870 3972,1869 3971,1868 3971,1867 3970,1866 3970,1865 3969,1864 3969,1863 3968,1862 3968,1861 3967,1860 3967,1859 3966,1858 3966,1857 3965,1856 3965,1855 3964,1854 3964,1853 3961,1850 3961,1849 3959,1847 3959,1846 3957,1844 3957,1843 3954,1840 3954,1839 3952,1837 3952,1836 3947,1831 3947,1830 3945,1828 3945,1827 3944,1826 3944,1825 3943,1824 3943,1822 3942,1821 3942,1820 3941,1819 3941,1818 3939,1816 3939,1815 3938,1814 3938,1813 3936,1811 3936,1810 3934,1808 3934,1807 3933,1806 3933,1805 3932,1804 3932,1803 3930,1801 3930,1800 3929,1799 3929,1798 3926,1795 3925,1795 3921,1791 3921,1790 3920,1789 3920,1788 3915,1783 3914,1783 3913,1782 3911,1782 3910,1781 3908,1781 3907,1780 3904,1780 3903,1779 3846,1779 3845,1780 3841,1780 3840,1779 3828,1779 3827,1780 3797,1780 3796,1781 3785,1781 3784,1782 3767,1782 3766,1781 3736,1781 3735,1782 3699,1782 3698,1781 3694,1781 3693,1780 3683,1780 3682,1781 3680,1781 3679,1782 3678,1782 3677,1783 3675,1783 3674,1782 3672,1782 3671,1781 3667,1781 3666,1780 3663,1780 3662,1781 3645,1781 3644,1780 3629,1780 3628,1779" fill="rgba(207,14,189,0.3)" stroke="rgb(207,14,189)" stroke-width="2" data-block-id="0013" data-name="b-0016" /><text x="3745" y="1953" text-anchor="middle" dominant-baseline="middle" class="block-label" fill="rgb(207,14,189)" stroke="white" stroke-width="3" paint-order="stroke">b-0016</text><polygon points="3279,1274 3278,1275 3257,1275 3256,1276 3255,1276 3252,1279 3252,1281 3251,1282 3251,1287 3250,1288 3250,1291 3249,1292 3249,1293 3248,1294 3248,1295 3247,1296 3246,1296 3244,1298 3243,1298 3242,1299 3239,1299 3239,1308 3246,1315 3246,1316 3247,1317 3247,1320 3245,1322 3244,1322 3243,1323 3241,1323 3240,1324 3226,1324 3225,1323 3199,1323 3198,1324 3197,1324 3194,1327 3193,1327 3184,1336 3184,1338 3183,1339 3183,1347 3184,1348 3184,1349 3188,1353 3189,1353 3192,1356 3192,1357 3193,1358 3193,1372 3194,1373 3194,1383 3193,1384 3193,1386 3191,1388 3191,1389 3190,1390 3189,1390 3187,1392 3186,1392 3186,1393 3185,1394 3185,1398 3186,1399 3186,1403 3189,1406 3190,1406 3191,1407 3191,1408 3192,1409 3192,1410 3193,1411 3193,1414 3194,1415 3194,1417 3193,1418 3193,1420 3192,1421 3192,1422 3189,1425 3188,1425 3185,1428 3185,1435 3186,1436 3186,1437 3188,1439 3189,1439 3192,1442 3192,1443 3193,1444 3193,1449 3194,1450 3194,1455 3193,1456 3193,1482 3192,1483 3192,1485 3191,1486 3191,1487 3189,1489 3188,1489 3185,1492 3185,1493 3184,1494 3184,1496 3183,1497 3183,1501 3184,1502 3184,1503 3186,1505 3187,1505 3193,1511 3193,1512 3194,1513 3194,1515 3195,1516 3195,1517 3198,1520 3200,1520 3201,1521 3221,1521 3222,1520 3236,1520 3237,1521 3243,1521 3244,1522 3246,1522 3247,1523 3247,1524 3248,1525 3248,1531 3247,1532 3247,1542 3248,1543 3248,1548 3249,1549 3249,1555 3250,1556 3250,1567 3251,1568 3251,1570 3252,1571 3253,1571 3254,1572 3256,1572 3257,1573 3371,1573 3372,1572 3377,1572 3379,1570 3379,1568 3380,1567 3380,1535 3379,1534 3379,1524 3381,1522 3382,1522 3383,1521 3385,1521 3386,1520 3392,1520 3393,1519 3396,1519 3397,1518 3398,1518 3399,1517 3399,1516 3400,1515 3400,1513 3401,1512 3401,1492 3400,1491 3400,1487 3401,1486 3401,1480 3404,1477 3407,1477 3408,1476 3456,1476 3457,1475 3473,1475 3474,1474 3475,1474 3477,1472 3477,1470 3478,1469 3478,1456 3477,1455 3477,1381 3476,1380 3476,1369 3475,1368 3475,1367 3473,1365 3466,1365 3465,1364 3405,1364 3404,1363 3403,1363 3400,1360 3400,1357 3399,1356 3399,1350 3400,1349 3400,1346 3399,1345 3399,1331 3398,1330 3398,1328 3397,1327 3397,1326 3395,1324 3393,1324 3392,1323 3385,1323 3384,1322 3382,1322 3379,1319 3379,1316 3378,1315 3378,1301 3379,1300 3379,1296 3378,1295 3378,1287 3377,1286 3377,1279 3374,1276 3373,1276 3372,1275 3362,1275 3361,1274 3321,1274 3320,1275 3316,1275 3315,1274" fill="rgba(199,205,214,0.3)" stroke="rgb(199,205,214)" stroke-width="2" data-block-id="0014" data-name="b-0038" /><text x="3285" y="1415" text-anchor="middle" dominant-baseline="middle" class="block-label" fill="rgb(199,205,214)" stroke="white" stroke-width="3" paint-order="stroke">b-0038</text><polygon points="3104,2720 3103,3080 4882,3054 4588,2698" fill="rgba(102,179,92,0.3)" stroke="rgb(102,179,92)" stroke-width="2" data-block-id="0015" data-name="b-0025" /><text x="3919" y="2888" text-anchor="middle" dominant-baseline="middle" class="block-label" fill="rgb(102,179,92)" stroke="white" stroke-width="3" paint-order="stroke">b-0025</text><polygon points="1848,2727 2981,2725 2981,3086 1842,3096" fill="rgba(102,179,92,0.3)" stroke="rgb(102,179,92)" stroke-width="2" data-block-id="0016" data-name="b-0026" /><text x="2413" y="2908" text-anchor="middle" dominant-baseline="middle" class="block-label" fill="rgb(102,179,92)" stroke="white" stroke-width="3" paint-order="stroke">b-0026</text><polygon points="3542,144 3541,145 3539,145 3538,146 3537,146 3534,149 3534,151 3533,152 3533,154 3532,155 3532,160 3531,161 3531,164 3532,165 3532,184 3531,185 3531,186 3530,187 3530,188 3529,189 3529,190 3528,191 3528,193 3527,194 3527,213 3526,214 3526,220 3525,221 3525,224 3524,225 3524,226 3522,228 3521,228 3520,229 3515,229 3514,230 3505,230 3504,229 3470,229 3469,228 3432,228 3431,227 3416,227 3415,226 3363,226 3362,225 3337,225 3336,226 3331,226 3330,227 3329,227 3327,229 3326,229 3321,234 3321,238 3320,239 3320,250 3319,251 3319,275 3318,276 3318,293 3319,294 3319,295 3321,297 3322,297 3323,298 3324,298 3325,299 3326,299 3327,300 3329,300 3330,301 3334,301 3335,302 3343,302 3344,303 3361,303 3362,304 3373,304 3374,305 3384,305 3385,306 3427,306 3428,307 3434,307 3435,308 3443,308 3444,307 3481,307 3482,308 3494,308 3495,307 3498,307 3499,308 3506,308 3507,309 3516,309 3517,308 3524,308 3525,309 3544,309 3545,308 3552,308 3553,309 3558,309 3559,308 3574,308 3575,309 3590,309 3591,308 3596,308 3597,309 3615,309 3616,308 3617,308 3618,309 3638,309 3639,308 3643,308 3644,309 3650,309 3651,310 3657,310 3658,309 3663,309 3664,308 3668,308 3669,309 3680,309 3681,310 3691,310 3692,311 3704,311 3705,312 3709,312 3710,313 3719,313 3720,312 3729,312 3730,313 3737,313 3738,312 3740,312 3741,311 3743,311 3744,310 3749,310 3750,309 3751,310 3763,310 3764,311 3769,311 3770,312 3774,312 3775,311 3781,311 3782,310 3791,310 3792,309 3801,309 3802,310 3811,310 3812,311 3827,311 3828,310 3834,310 3835,309 3840,309 3841,308 3856,308 3857,309 3861,309 3862,310 3865,310 3866,311 3871,311 3872,310 3878,310 3879,309 3896,309 3897,310 3903,310 3904,311 3908,311 3909,312 3913,312 3914,313 3922,313 3923,312 3934,312 3935,311 3942,311 3943,312 3949,312 3950,313 3953,313 3954,314 3955,314 3957,316 3958,316 3959,317 3957,319 3956,319 3955,320 3954,320 3953,321 3951,321 3950,322 3949,322 3948,323 3947,323 3946,324 3945,324 3944,325 3942,325 3941,326 3936,326 3935,325 3933,325 3932,324 3930,324 3929,323 3917,323 3916,324 3913,324 3912,325 3910,325 3909,326 3905,326 3903,328 3902,328 3901,329 3901,331 3900,332 3900,333 3897,336 3894,336 3893,337 3892,336 3890,336 3889,335 3888,335 3887,334 3887,333 3885,331 3885,330 3881,326 3871,326 3870,327 3868,327 3867,328 3862,328 3861,329 3856,329 3856,330 3851,335 3848,335 3847,336 3845,336 3844,335 3842,335 3837,330 3837,329 3836,328 3835,328 3833,326 3831,326 3830,325 3829,326 3823,326 3822,327 3820,327 3819,328 3816,328 3815,329 3811,329 3810,330 3809,330 3808,331 3807,331 3806,332 3804,332 3803,333 3801,333 3800,334 3795,334 3794,333 3793,333 3786,326 3783,326 3782,325 3781,326 3775,326 3774,327 3771,327 3770,328 3768,328 3767,329 3765,329 3764,330 3762,330 3761,331 3758,331 3757,332 3752,332 3751,333 3750,333 3749,332 3747,332 3746,331 3746,330 3745,329 3745,328 3743,326 3743,325 3738,320 3734,320 3732,322 3732,323 3731,324 3731,330 3732,331 3732,332 3735,335 3735,336 3736,336 3738,338 3741,338 3742,339 3744,339 3745,340 3765,340 3766,341 3797,341 3798,340 3814,340 3815,341 3834,341 3835,340 3840,340 3841,339 3848,339 3849,338 3863,338 3864,339 3887,339 3888,338 3909,338 3910,339 3922,339 3923,340 3937,340 3938,341 3939,340 3948,340 3949,339 3953,339 3954,340 3961,340 3962,341 3967,341 3968,340 3981,340 3982,341 3995,341 3996,340 3999,340 4000,341 4053,341 4054,342 4103,342 4104,343 4113,343 4114,342 4122,342 4123,343 4140,343 4141,342 4142,343 4171,343 4172,344 4179,344 4180,343 4187,343 4188,342 4216,342 4217,341 4219,341 4220,340 4221,340 4222,339 4223,339 4225,337 4226,337 4227,336 4231,336 4232,335 4264,335 4265,336 4268,336 4269,337 4278,337 4279,336 4284,336 4285,335 4287,335 4288,334 4290,334 4291,333 4293,333 4294,332 4295,332 4296,331 4297,331 4299,329 4299,316 4300,315 4300,302 4299,301 4299,287 4300,286 4300,271 4299,270 4299,254 4298,253 4298,236 4299,235 4299,228 4298,227 4298,207 4297,206 4297,201 4296,200 4296,191 4295,190 4295,162 4294,161 4294,157 4293,156 4293,154 4292,153 4292,151 4291,150 4291,149 4289,147 4288,147 4287,146 4240,146 4239,147 4236,147 4235,146 4217,146 4216,147 4212,147 4211,146 4193,146 4192,147 4182,147 4181,146 4174,146 4173,147 4162,147 4161,146 4150,146 4149,147 4132,147 4131,146 4123,146 4122,147 4120,147 4119,146 4097,146 4096,147 4091,147 4090,146 4019,146 4018,145 4002,145 4001,146 3995,146 3994,145 3920,145 3919,144 3914,144 3913,145 3871,145 3870,144 3867,144 3866,145 3824,145 3823,144 3818,144 3817,145 3785,145 3784,144 3762,144 3761,145 3756,145 3755,144 3740,144 3739,145 3735,145 3734,144 3718,144 3717,145 3685,145 3684,144 3673,144 3672,145 3634,145 3633,144 3627,144 3626,145 3572,145 3571,146 3557,146 3556,145 3551,145 3550,144" fill="rgba(83,91,110,0.3)" stroke="rgb(83,91,110)" stroke-width="2" data-block-id="0017" data-name="b-0026" /><text x="3826" y="278" text-anchor="middle" dominant-baseline="middle" class="block-label" fill="rgb(83,91,110)" stroke="white" stroke-width="3" paint-order="stroke">b-0026</text></g>
</svg>