<?xml version='1.0' encoding='utf-8'?>
<svg xmlns="http://www.w3.org/2000/svg" xmlns:atlas="http://example.com/atlas" width="4984" height="3248" viewBox="0 0 4984 3248">
  
  <metadata>
    <atlas:source>
      <atlas:jp2-path>/Users/pwright/workspace/atlas/media/v2/p36.jp2</atlas:jp2-path>
      <atlas:volume>unknown</atlas:volume>
      <atlas:plate-id>p36</atlas:plate-id>
      <atlas:image-width>4984</atlas:image-width>
      <atlas:image-height>3248</atlas:image-height>
    <atlas:angle>0</atlas:angle><atlas:scale>1.3736903732174852</atlas:scale><atlas:pos-x>1923.012950479842</atlas:pos-x><atlas:pos-y>799.9168776909835</atlas:pos-y></atlas:source>
  </metadata>

  
  <image id="background" href="file:///Users/pwright/workspace/atlas/media/v2/p36.jp2" width="4984" height="3248" opacity="0.5" />

  <style>
    .block-label { font-family: sans-serif; font-size: 14px; font-weight: bold; }
  </style>

  
  <g id="blocks">
    <polygon points="4086,1665 4085,1666 4078,1666 4077,1667 3941,1667 3940,1668 3939,1668 3938,1669 3936,1669 3935,1670 3934,1670 3932,1672 3930,1672 3929,1673 3928,1672 3917,1672 3916,1673 3873,1673 3872,1672 3867,1672 3866,1673 3840,1673 3839,1674 3829,1674 3828,1673 3821,1673 3820,1674 3808,1674 3807,1675 3798,1675 3797,1674 3768,1674 3767,1675 3750,1675 3749,1674 3745,1674 3744,1673 3739,1673 3738,1672 3725,1672 3724,1673 3719,1673 3718,1674 3707,1674 3706,1673 3705,1674 3678,1674 3677,1675 3671,1675 3670,1676 3663,1676 3662,1675 3655,1675 3654,1676 3648,1676 3647,1677 3637,1677 3636,1676 3631,1676 3630,1677 3621,1677 3620,1678 3604,1678 3603,1677 3576,1677 3575,1676 3572,1676 3571,1677 3541,1677 3540,1676 3538,1676 3537,1677 3520,1677 3519,1678 3494,1678 3493,1677 3483,1677 3482,1678 3461,1678 3460,1679 3427,1679 3426,1680 3398,1680 3397,1679 3394,1679 3393,1680 3376,1680 3375,1679 3334,1679 3333,1680 3286,1680 3285,1681 3250,1681 3249,1682 3185,1682 3184,1683 3144,1683 3143,1684 3102,1684 3101,1685 3078,1685 3077,1684 3045,1684 3044,1685 3034,1685 3033,1684 3005,1684 3004,1685 2983,1685 2982,1684 2968,1684 2967,1685 2958,1685 2957,1686 2945,1686 2944,1685 2911,1685 2910,1686 2888,1686 2887,1685 2872,1685 2871,1686 2856,1686 2855,1687 2841,1687 2840,1686 2825,1686 2824,1687 2820,1687 2819,1688 2816,1688 2815,1689 2785,1689 2784,1690 2735,1690 2734,1691 2702,1691 2701,1692 2688,1692 2687,1693 2679,1693 2678,1692 2675,1692 2674,1691 2671,1691 2670,1690 2631,1690 2630,1689 2625,1689 2624,1688 2595,1688 2594,1687 2584,1687 2583,1686 2575,1686 2574,1685 2562,1685 2561,1684 2553,1684 2552,1683 2483,1683 2482,1682 2476,1682 2475,1683 2459,1683 2458,1684 2450,1684 2449,1685 2445,1685 2443,1687 2443,1688 2442,1689 2442,1691 2441,1692 2441,1695 2440,1696 2440,1746 2439,1747 2439,1753 2438,1754 2438,1758 2439,1759 2439,1770 2440,1771 2440,1783 2441,1784 2441,1807 2442,1808 2442,1818 2441,1819 2441,1867 2440,1868 2440,1899 2441,1900 2441,1975 2442,1976 2442,2000 2443,2001 2443,2011 2442,2012 2442,2027 2441,2028 2441,2042 2442,2043 2442,2045 2443,2046 2443,2047 2444,2048 2444,2049 2447,2052 2448,2052 2449,2053 2450,2053 2451,2054 2455,2054 2456,2055 2519,2055 2520,2056 2524,2056 2525,2057 2533,2057 2534,2056 2541,2056 2542,2055 2547,2055 2548,2054 2557,2054 2558,2053 2581,2053 2582,2052 2595,2052 2596,2051 2606,2051 2607,2050 2623,2050 2624,2049 2641,2049 2642,2050 2648,2050 2649,2049 2656,2049 2657,2048 2667,2048 2668,2047 2694,2047 2695,2048 2714,2048 2715,2047 2752,2047 2753,2048 2758,2048 2759,2049 2775,2049 2776,2048 2782,2048 2783,2047 2789,2047 2790,2046 2852,2046 2853,2045 2859,2045 2860,2044 2925,2044 2926,2043 2958,2043 2959,2044 2965,2044 2966,2045 2969,2045 2970,2046 2974,2046 2975,2047 2995,2047 2996,2046 3028,2046 3029,2045 3033,2045 3034,2044 3038,2044 3039,2043 3041,2043 3042,2044 3056,2044 3057,2043 3060,2043 3061,2042 3065,2042 3066,2041 3071,2041 3072,2040 3114,2040 3115,2039 3124,2039 3125,2040 3148,2040 3149,2039 3155,2039 3156,2038 3170,2038 3171,2039 3198,2039 3199,2038 3230,2038 3231,2037 3233,2037 3234,2036 3237,2036 3238,2035 3262,2035 3263,2034 3268,2034 3269,2035 3280,2035 3281,2036 3285,2036 3286,2037 3290,2037 3291,2036 3297,2036 3298,2035 3319,2035 3320,2036 3339,2036 3340,2035 3385,2035 3386,2034 3466,2034 3467,2033 3480,2033 3481,2034 3506,2034 3507,2033 3521,2033 3522,2034 3532,2034 3533,2033 3553,2033 3554,2032 3560,2032 3561,2031 3564,2031 3565,2032 3594,2032 3595,2033 3596,2033 3597,2032 3603,2032 3604,2031 3610,2031 3611,2030 3612,2031 3647,2031 3648,2030 3652,2030 3653,2029 3663,2029 3664,2030 3683,2030 3684,2031 3697,2031 3698,2030 3748,2030 3749,2029 3757,2029 3758,2030 3773,2030 3774,2031 3794,2031 3795,2030 3821,2030 3822,2029 3827,2029 3828,2030 3845,2030 3846,2029 3852,2029 3853,2028 3886,2028 3887,2027 3890,2027 3891,2026 3895,2026 3896,2025 3901,2025 3902,2026 3908,2026 3909,2025 3919,2025 3920,2024 3928,2024 3929,2023 3930,2024 3933,2024 3934,2025 3936,2025 3937,2026 3939,2026 3940,2027 3947,2027 3948,2028 3976,2028 3977,2029 3979,2029 3980,2028 4009,2028 4010,2027 4034,2027 4035,2028 4040,2028 4041,2027 4094,2027 4095,2026 4100,2026 4101,2025 4105,2025 4106,2024 4110,2024 4111,2023 4112,2023 4117,2018 4117,2017 4118,2016 4118,2013 4119,2012 4119,2007 4120,2006 4120,1998 4121,1997 4121,1925 4120,1924 4120,1915 4121,1914 4121,1907 4120,1906 4120,1842 4119,1841 4119,1836 4120,1835 4120,1817 4119,1816 4119,1794 4118,1793 4118,1788 4119,1787 4119,1762 4118,1761 4118,1755 4117,1754 4117,1745 4116,1744 4116,1741 4117,1740 4117,1718 4116,1717 4116,1709 4115,1708 4115,1699 4114,1698 4114,1688 4113,1687 4113,1673 4111,1671 4111,1670 4110,1670 4109,1669 4108,1669 4107,1668 4106,1668 4105,1667 4103,1667 4102,1666 4100,1666 4099,1665" fill="rgba(188,20,102,0.3)" stroke="rgb(188,20,102)" stroke-width="2" data-block-id="0001" data-name="b-0003" /><text x="3316" y="1867" text-anchor="middle" dominant-baseline="middle" class="block-label" fill="rgb(188,20,102)" stroke="white" stroke-width="3" paint-order="stroke">b-0003</text><polygon points="3833,2619 3832,2620 3821,2620 3820,2621 3816,2621 3815,2622 3814,2622 3813,2623 3797,2623 3796,2624 3792,2624 3791,2625 3760,2625 3759,2624 3749,2624 3748,2625 3747,2625 3746,2626 3744,2626 3743,2627 3741,2627 3740,2628 3735,2628 3734,2627 3716,2627 3715,2626 3712,2626 3711,2625 3708,2625 3707,2624 3704,2624 3703,2625 3702,2625 3701,2626 3700,2626 3699,2627 3697,2627 3696,2628 3694,2628 3693,2629 3686,2629 3685,2628 3672,2628 3671,2627 3664,2627 3663,2626 3659,2626 3658,2625 3657,2626 3654,2626 3653,2627 3652,2627 3651,2628 3649,2628 3648,2629 3644,2629 3643,2630 3635,2630 3634,2629 3623,2629 3622,2628 3616,2628 3615,2627 3607,2627 3606,2628 3603,2628 3602,2629 3572,2629 3571,2628 3565,2628 3564,2627 3562,2627 3561,2628 3558,2628 3557,2629 3555,2629 3554,2630 3533,2630 3532,2629 3522,2629 3521,2628 3511,2628 3510,2629 3506,2629 3505,2630 3488,2630 3487,2629 3483,2629 3482,2628 3472,2628 3471,2627 3467,2627 3466,2628 3463,2628 3462,2629 3459,2629 3458,2630 3449,2630 3448,2631 3443,2631 3442,2630 3436,2630 3435,2629 3424,2629 3423,2628 3418,2628 3417,2629 3414,2629 3413,2630 3409,2630 3408,2631 3394,2631 3393,2630 3385,2630 3384,2629 3370,2629 3369,2630 3363,2630 3362,2631 3343,2631 3342,2632 3328,2632 3327,2631 3321,2631 3320,2632 3310,2632 3309,2633 3302,2633 3301,2634 3300,2634 3299,2633 3294,2633 3293,2632 3286,2632 3285,2631 3270,2631 3269,2632 3251,2632 3250,2631 3245,2631 3244,2630 3238,2630 3237,2629 3225,2629 3224,2630 3222,2630 3221,2631 3219,2631 3218,2632 3198,2632 3197,2631 3180,2631 3179,2632 3177,2632 3176,2633 3173,2633 3172,2634 3169,2634 3168,2635 3154,2635 3153,2634 3150,2634 3149,2633 3140,2633 3139,2632 3134,2632 3133,2633 3130,2633 3129,2634 3127,2634 3126,2635 3123,2635 3122,2636 3108,2636 3107,2635 3099,2635 3098,2634 3084,2634 3083,2635 3079,2635 3078,2636 3074,2636 3073,2637 3066,2637 3065,2638 3061,2638 3060,2637 3058,2637 3057,2636 3054,2636 3053,2635 3049,2635 3048,2634 3047,2635 3037,2635 3036,2636 3034,2636 3033,2637 3030,2637 3029,2638 3011,2638 3010,2637 3005,2637 3004,2636 2994,2636 2993,2637 2987,2637 2986,2638 2981,2638 2980,2639 2962,2639 2961,2638 2956,2638 2955,2637 2945,2637 2944,2638 2926,2638 2925,2639 2918,2639 2917,2638 2914,2638 2913,2637 2911,2637 2910,2636 2892,2636 2891,2637 2882,2637 2881,2638 2864,2638 2863,2637 2854,2637 2853,2638 2845,2638 2844,2639 2836,2639 2835,2640 2823,2640 2822,2641 2804,2641 2803,2642 2802,2642 2801,2641 2786,2641 2785,2642 2780,2642 2779,2643 2775,2643 2774,2642 2772,2642 2771,2641 2768,2641 2767,2640 2758,2640 2757,2641 2696,2641 2695,2642 2678,2642 2677,2641 2643,2641 2642,2642 2636,2642 2635,2643 2632,2643 2631,2642 2625,2642 2624,2641 2617,2641 2616,2642 2550,2642 2549,2643 2536,2643 2535,2642 2529,2642 2528,2641 2494,2641 2493,2642 2487,2642 2486,2641 2473,2641 2472,2642 2464,2642 2463,2643 2460,2643 2459,2644 2456,2644 2455,2645 2454,2645 2453,2646 2453,2647 2452,2648 2452,2649 2451,2650 2451,2653 2450,2654 2450,2656 2449,2657 2449,2660 2448,2661 2448,2666 2447,2667 2447,2684 2448,2685 2448,2692 2449,2693 2449,2703 2448,2704 2448,2732 2447,2733 2447,2744 2446,2745 2446,2750 2445,2751 2445,2757 2446,2758 2446,2780 2447,2781 2447,2786 2448,2787 2448,2833 2449,2834 2449,2859 2448,2860 2448,2925 2449,2926 2449,2933 2450,2934 2450,2955 2449,2956 2449,2970 2450,2971 2450,2973 2451,2974 2451,2977 2452,2978 2452,2986 2453,2987 2453,2992 2454,2993 2454,2994 2457,2997 2458,2997 2462,3001 2463,3001 2465,3003 2467,3003 2468,3004 2479,3004 2480,3003 2491,3003 2492,3002 2493,3003 2558,3003 2559,3002 2563,3002 2564,3003 2579,3003 2580,3002 2586,3002 2587,3001 2598,3001 2599,3000 2603,3000 2604,2999 2608,2999 2609,2998 2612,2998 2613,2999 2625,2999 2626,2998 2628,2998 2629,2997 2630,2997 2632,2995 2633,2995 2634,2994 2641,2994 2642,2993 2646,2993 2647,2994 2654,2994 2655,2995 2671,2995 2672,2994 2676,2994 2677,2993 2688,2993 2689,2994 2694,2994 2695,2993 2698,2993 2699,2992 2701,2992 2702,2991 2704,2991 2705,2990 2715,2990 2716,2989 2719,2989 2720,2988 2721,2988 2722,2987 2724,2987 2725,2986 2726,2986 2727,2985 2747,2985 2748,2984 2769,2984 2770,2985 2777,2985 2778,2984 2784,2984 2785,2983 2789,2983 2790,2984 2792,2984 2793,2985 2796,2985 2797,2986 2803,2986 2804,2987 2808,2987 2809,2988 2815,2988 2816,2987 2821,2987 2822,2986 2826,2986 2827,2987 2831,2987 2832,2988 2850,2988 2851,2989 2855,2989 2856,2990 2862,2990 2863,2989 2865,2989 2866,2988 2867,2988 2868,2987 2869,2987 2870,2986 2873,2986 2874,2987 2876,2987 2877,2988 2879,2988 2880,2989 2887,2989 2888,2988 2890,2988 2891,2987 2893,2987 2894,2986 2905,2986 2906,2985 2923,2985 2924,2986 2928,2986 2929,2987 2934,2987 2935,2986 2947,2986 2948,2985 2954,2985 2955,2984 3005,2984 3006,2983 3029,2983 3030,2984 3056,2984 3057,2983 3090,2983 3091,2984 3101,2984 3102,2983 3112,2983 3113,2982 3125,2982 3126,2983 3144,2983 3145,2982 3163,2982 3164,2981 3169,2981 3170,2982 3199,2982 3200,2981 3210,2981 3211,2982 3245,2982 3246,2981 3268,2981 3269,2982 3280,2982 3281,2981 3288,2981 3289,2980 3296,2980 3297,2979 3303,2979 3304,2980 3310,2980 3311,2981 3318,2981 3319,2982 3330,2982 3331,2981 3339,2981 3340,2982 3364,2982 3365,2983 3374,2983 3375,2982 3384,2982 3385,2981 3392,2981 3393,2980 3413,2980 3414,2981 3437,2981 3438,2980 3460,2980 3461,2981 3480,2981 3481,2980 3510,2980 3511,2981 3519,2981 3520,2980 3531,2980 3532,2979 3576,2979 3577,2978 3583,2978 3584,2977 3590,2977 3591,2978 3609,2978 3610,2979 3612,2979 3613,2978 3630,2978 3631,2977 3665,2977 3666,2978 3673,2978 3674,2979 3677,2979 3678,2980 3681,2980 3682,2981 3744,2981 3745,2980 3797,2980 3798,2979 3807,2979 3808,2980 3816,2980 3817,2979 3884,2979 3885,2978 3901,2978 3902,2979 3908,2979 3909,2978 3915,2978 3916,2977 3932,2977 3933,2978 3939,2978 3940,2979 3944,2979 3945,2978 3948,2978 3949,2977 3952,2977 3953,2976 3973,2976 3974,2977 4023,2977 4024,2976 4042,2976 4043,2977 4066,2977 4067,2976 4090,2976 4091,2977 4115,2977 4116,2976 4125,2976 4126,2975 4131,2975 4132,2974 4134,2974 4135,2973 4136,2973 4137,2972 4138,2972 4141,2969 4141,2968 4142,2967 4142,2966 4143,2965 4143,2962 4144,2961 4144,2959 4145,2958 4145,2952 4144,2951 4144,2936 4145,2935 4145,2932 4144,2931 4144,2928 4143,2927 4143,2925 4142,2924 4142,2915 4143,2914 4143,2902 4142,2901 4142,2891 4143,2890 4143,2877 4142,2876 4142,2869 4143,2868 4143,2859 4142,2858 4142,2856 4141,2855 4141,2854 4140,2853 4140,2849 4139,2848 4139,2847 4140,2846 4140,2843 4141,2842 4141,2840 4142,2839 4142,2833 4141,2832 4141,2819 4142,2818 4142,2811 4141,2810 4141,2807 4140,2806 4140,2804 4139,2803 4139,2799 4140,2798 4140,2763 4139,2762 4139,2749 4138,2748 4138,2738 4137,2737 4137,2728 4136,2727 4136,2713 4137,2712 4137,2699 4136,2698 4136,2679 4135,2678 4135,2672 4134,2671 4134,2653 4133,2652 4133,2631 4132,2630 4132,2628 4131,2627 4131,2625 4129,2623 4129,2622 4128,2621 4127,2621 4126,2620 4124,2620 4123,2619 4047,2619 4046,2620 3996,2620 3995,2621 3963,2621 3962,2620 3923,2620 3922,2619" fill="rgba(121,210,214,0.3)" stroke="rgb(121,210,214)" stroke-width="2" data-block-id="0002" data-name="b-0004" /><text x="3264" y="2799" text-anchor="middle" dominant-baseline="middle" class="block-label" fill="rgb(121,210,214)" stroke="white" stroke-width="3" paint-order="stroke">b-0004</text><polygon points="3987,720 3986,721 3982,721 3981,722 3959,722 3958,723 3943,723 3942,724 3936,724 3935,725 3908,725 3907,726 3897,726 3896,727 3893,727 3892,728 3889,728 3888,729 3882,729 3881,730 3880,729 3865,729 3864,730 3846,730 3845,731 3841,731 3840,732 3834,732 3833,731 3832,731 3831,730 3830,730 3829,729 3828,729 3827,728 3825,728 3824,727 3811,727 3810,728 3718,728 3717,729 3699,729 3698,728 3597,728 3596,729 3567,729 3566,730 3553,730 3552,729 3551,729 3550,730 3514,730 3513,731 3464,731 3463,732 3457,732 3456,733 3453,733 3452,732 3448,732 3447,731 3436,731 3435,732 3421,732 3420,733 3408,733 3407,734 3375,734 3374,735 3371,735 3370,734 3360,734 3359,733 3358,733 3357,734 3316,734 3315,733 3309,733 3308,734 3272,734 3271,735 3258,735 3257,736 3226,736 3225,735 3179,735 3178,736 3164,736 3163,737 3131,737 3130,736 3114,736 3113,737 3106,737 3105,736 3080,736 3079,735 3069,735 3068,736 3055,736 3054,735 3041,735 3040,736 3022,736 3021,737 3009,737 3008,736 2972,736 2971,737 2934,737 2933,736 2931,736 2930,737 2874,737 2873,738 2872,737 2837,737 2836,738 2770,738 2769,737 2709,737 2708,738 2694,738 2693,739 2663,739 2662,740 2656,740 2655,739 2650,739 2649,738 2606,738 2605,737 2601,737 2600,736 2587,736 2586,735 2582,735 2581,734 2579,734 2578,733 2574,733 2573,732 2534,732 2533,731 2517,731 2516,732 2513,732 2512,731 2493,731 2492,732 2490,732 2489,731 2471,731 2470,732 2453,732 2452,733 2447,733 2446,734 2444,734 2443,735 2442,735 2439,738 2439,739 2437,741 2437,742 2436,743 2436,756 2435,757 2435,777 2436,778 2435,779 2435,826 2434,827 2434,856 2435,857 2435,881 2434,882 2434,905 2435,906 2435,917 2434,918 2434,950 2435,951 2435,968 2434,969 2434,1004 2435,1005 2435,1043 2436,1044 2436,1078 2437,1079 2437,1088 2438,1089 2438,1090 2440,1092 2441,1092 2442,1093 2443,1093 2444,1094 2449,1094 2450,1095 2457,1095 2458,1096 2464,1096 2465,1097 2495,1097 2496,1096 2508,1096 2509,1097 2546,1097 2547,1096 2557,1096 2558,1097 2564,1097 2565,1096 2571,1096 2572,1095 2591,1095 2592,1094 2601,1094 2602,1093 2608,1093 2609,1092 2613,1092 2614,1093 2627,1093 2628,1092 2664,1092 2665,1093 2670,1093 2671,1092 2700,1092 2701,1093 2708,1093 2709,1092 2765,1092 2766,1091 2798,1091 2799,1092 2804,1092 2805,1091 2820,1091 2821,1090 2841,1090 2842,1091 2857,1091 2858,1090 2885,1090 2886,1091 2893,1091 2894,1092 2901,1092 2902,1091 2954,1091 2955,1090 2985,1090 2986,1091 3003,1091 3004,1090 3016,1090 3017,1091 3031,1091 3032,1092 3045,1092 3046,1091 3056,1091 3057,1092 3073,1092 3074,1091 3107,1091 3108,1090 3125,1090 3126,1091 3131,1091 3132,1092 3173,1092 3174,1093 3192,1093 3193,1092 3199,1092 3200,1091 3203,1091 3204,1090 3223,1090 3224,1089 3233,1089 3234,1088 3242,1088 3243,1087 3249,1087 3250,1086 3274,1086 3275,1085 3293,1085 3294,1084 3330,1084 3331,1085 3334,1085 3335,1084 3343,1084 3344,1083 3375,1083 3376,1082 3412,1082 3413,1081 3427,1081 3428,1082 3458,1082 3459,1081 3487,1081 3488,1080 3507,1080 3508,1079 3512,1079 3513,1078 3518,1078 3519,1079 3534,1079 3535,1078 3540,1078 3541,1079 3569,1079 3570,1080 3576,1080 3577,1081 3580,1081 3581,1082 3591,1082 3592,1081 3598,1081 3599,1080 3605,1080 3606,1081 3619,1081 3620,1080 3678,1080 3679,1081 3683,1081 3684,1080 3698,1080 3699,1081 3740,1081 3741,1080 3750,1080 3751,1079 3756,1079 3757,1080 3767,1080 3768,1079 3845,1079 3846,1080 3852,1080 3853,1079 3864,1079 3865,1078 3869,1078 3870,1077 3885,1077 3886,1076 3890,1076 3891,1075 3914,1075 3915,1074 3922,1074 3923,1075 3934,1075 3935,1076 3944,1076 3945,1077 3990,1077 3991,1076 4007,1076 4008,1075 4028,1075 4029,1074 4039,1074 4040,1073 4043,1073 4044,1072 4047,1072 4048,1071 4050,1071 4051,1070 4054,1070 4055,1069 4058,1069 4059,1068 4067,1068 4068,1067 4073,1067 4074,1066 4075,1066 4078,1063 4078,1062 4079,1061 4079,1060 4080,1059 4080,1056 4081,1055 4081,1051 4082,1050 4082,1046 4083,1045 4083,1025 4084,1024 4084,1018 4085,1017 4085,1013 4086,1012 4086,1010 4087,1009 4087,1008 4088,1007 4088,1006 4089,1005 4089,1002 4088,1001 4088,998 4087,997 4087,993 4086,992 4086,991 4087,990 4087,980 4086,979 4086,976 4085,975 4085,971 4084,970 4084,965 4083,964 4083,943 4082,942 4082,932 4081,931 4081,926 4080,925 4080,922 4079,921 4079,920 4075,916 4074,916 4073,915 4070,915 4069,914 4064,914 4063,913 4062,913 4061,912 4060,912 4059,911 4059,910 4057,908 4057,906 4056,905 4056,904 4055,903 4055,902 4054,901 4054,900 4053,899 4053,888 4054,887 4054,883 4055,882 4055,879 4056,878 4056,876 4058,874 4058,873 4059,872 4060,872 4061,871 4063,871 4064,870 4066,870 4067,869 4069,869 4070,868 4071,868 4072,867 4073,867 4076,864 4076,863 4077,862 4077,861 4078,860 4078,859 4079,858 4079,857 4080,856 4080,855 4081,854 4081,853 4082,852 4082,841 4081,840 4081,822 4080,821 4080,813 4081,812 4081,805 4082,804 4082,794 4081,793 4081,774 4082,773 4082,760 4081,759 4081,751 4080,750 4080,745 4079,744 4079,742 4078,741 4078,740 4076,738 4076,737 4073,734 4072,734 4071,733 4068,733 4067,732 4063,732 4062,731 4060,731 4059,730 4058,730 4057,729 4056,729 4055,728 4054,728 4053,727 4052,727 4051,726 4050,726 4049,725 4048,725 4047,724 4041,724 4040,723 4034,723 4033,724 4018,724 4017,725 4015,725 4014,724 4010,724 4009,723 4007,723 4006,722 4004,722 4003,721 3995,721 3994,720" fill="rgba(74,202,87,0.3)" stroke="rgb(74,202,87)" stroke-width="2" data-block-id="0003" data-name="b-0005" /><text x="3448" y="907" text-anchor="middle" dominant-baseline="middle" class="block-label" fill="rgb(74,202,87)" stroke="white" stroke-width="3" paint-order="stroke">b-0005</text><polygon points="3893,1191 3892,1192 3890,1192 3889,1193 3888,1193 3887,1194 3886,1194 3884,1196 3883,1196 3882,1197 3879,1197 3878,1198 3876,1198 3875,1199 3873,1199 3872,1200 3871,1199 3868,1199 3867,1198 3865,1198 3864,1197 3855,1197 3854,1196 3848,1196 3847,1197 3842,1197 3841,1198 3839,1198 3838,1199 3832,1199 3831,1200 3800,1200 3799,1201 3784,1201 3783,1202 3767,1202 3766,1203 3752,1203 3751,1204 3740,1204 3739,1205 3738,1204 3690,1204 3689,1203 3663,1203 3662,1204 3655,1204 3654,1203 3648,1203 3647,1202 3639,1202 3638,1201 3626,1201 3625,1202 3569,1202 3568,1203 3552,1203 3551,1204 3529,1204 3528,1205 3501,1205 3500,1204 3478,1204 3477,1205 3447,1205 3446,1204 3440,1204 3439,1205 3425,1205 3424,1206 3399,1206 3398,1207 3328,1207 3327,1208 3316,1208 3315,1209 3307,1209 3306,1210 3263,1210 3262,1211 3252,1211 3251,1212 3234,1212 3233,1211 3217,1211 3216,1212 3196,1212 3195,1211 3163,1211 3162,1212 3155,1212 3154,1211 3126,1211 3125,1212 3112,1212 3111,1213 3103,1213 3102,1212 3066,1212 3065,1213 3056,1213 3055,1212 3036,1212 3035,1213 3021,1213 3020,1214 2999,1214 2998,1213 2984,1213 2983,1214 2953,1214 2952,1213 2925,1213 2924,1214 2918,1214 2917,1213 2910,1213 2909,1212 2895,1212 2894,1213 2852,1213 2851,1214 2833,1214 2832,1215 2820,1215 2819,1214 2804,1214 2803,1213 2793,1213 2792,1212 2782,1212 2781,1213 2769,1213 2768,1212 2763,1212 2762,1213 2740,1213 2739,1214 2713,1214 2712,1215 2699,1215 2698,1216 2689,1216 2688,1217 2671,1217 2670,1216 2653,1216 2652,1217 2631,1217 2630,1216 2530,1216 2529,1215 2480,1215 2479,1214 2465,1214 2464,1215 2459,1215 2458,1216 2452,1216 2451,1217 2444,1217 2443,1218 2442,1218 2440,1220 2440,1221 2439,1222 2439,1223 2438,1224 2438,1226 2437,1227 2437,1230 2436,1231 2436,1254 2435,1255 2435,1328 2436,1329 2436,1383 2437,1384 2437,1453 2438,1454 2438,1464 2437,1465 2437,1471 2438,1472 2438,1508 2437,1509 2437,1535 2438,1536 2438,1555 2439,1556 2439,1560 2440,1561 2440,1563 2443,1566 2462,1566 2463,1567 2495,1567 2496,1566 2509,1566 2510,1565 2518,1565 2519,1566 2532,1566 2533,1565 2557,1565 2558,1564 2582,1564 2583,1563 2592,1563 2593,1564 2599,1564 2600,1563 2609,1563 2610,1562 2612,1562 2613,1563 2623,1563 2624,1562 2628,1562 2629,1561 2631,1561 2632,1560 2635,1560 2636,1559 2639,1559 2640,1558 2642,1558 2643,1557 2648,1557 2649,1558 2654,1558 2655,1559 2661,1559 2662,1558 2678,1558 2679,1557 2683,1557 2684,1558 2696,1558 2697,1559 2705,1559 2706,1560 2713,1560 2714,1561 2743,1561 2744,1560 2779,1560 2780,1559 2792,1559 2793,1560 2806,1560 2807,1559 2819,1559 2820,1560 2867,1560 2868,1559 2876,1559 2877,1560 2917,1560 2918,1559 2924,1559 2925,1560 2948,1560 2949,1559 2965,1559 2966,1558 2974,1558 2975,1559 3004,1559 3005,1558 3054,1558 3055,1557 3059,1557 3060,1556 3091,1556 3092,1557 3103,1557 3104,1556 3127,1556 3128,1555 3141,1555 3142,1556 3156,1556 3157,1555 3167,1555 3168,1554 3174,1554 3175,1553 3196,1553 3197,1552 3226,1552 3227,1551 3236,1551 3237,1552 3269,1552 3270,1551 3285,1551 3286,1552 3300,1552 3301,1551 3319,1551 3320,1550 3352,1550 3353,1551 3362,1551 3363,1550 3448,1550 3449,1549 3489,1549 3490,1550 3507,1550 3508,1549 3533,1549 3534,1550 3574,1550 3575,1549 3652,1549 3653,1548 3718,1548 3719,1547 3722,1547 3723,1546 3726,1546 3727,1545 3736,1545 3737,1544 3767,1544 3768,1543 3773,1543 3774,1542 3791,1542 3792,1543 3819,1543 3820,1542 3828,1542 3829,1543 3839,1543 3840,1544 3848,1544 3849,1545 3853,1545 3854,1546 3859,1546 3860,1547 3865,1547 3866,1548 3885,1548 3886,1549 3998,1549 3999,1548 4005,1548 4006,1549 4020,1549 4021,1548 4047,1548 4048,1549 4054,1549 4055,1548 4066,1548 4067,1549 4095,1549 4096,1548 4101,1548 4102,1547 4104,1547 4105,1546 4107,1546 4108,1545 4109,1545 4113,1541 4113,1540 4114,1539 4114,1525 4113,1524 4113,1519 4112,1518 4112,1478 4111,1477 4111,1464 4110,1463 4110,1455 4111,1454 4111,1448 4112,1447 4112,1432 4111,1431 4111,1425 4110,1424 4110,1373 4111,1372 4111,1369 4112,1368 4112,1365 4113,1364 4113,1363 4112,1362 4112,1359 4111,1358 4111,1357 4110,1356 4110,1354 4109,1353 4109,1347 4110,1346 4110,1342 4111,1341 4111,1335 4112,1334 4112,1330 4113,1329 4113,1324 4112,1323 4112,1319 4111,1318 4111,1306 4112,1305 4112,1301 4111,1300 4111,1295 4110,1294 4110,1288 4109,1287 4109,1278 4108,1277 4108,1257 4107,1256 4107,1251 4106,1250 4106,1239 4105,1238 4105,1232 4104,1231 4104,1228 4105,1227 4105,1216 4104,1215 4104,1200 4103,1199 4103,1195 4101,1193 4100,1193 4099,1192 4098,1192 4097,1191 4031,1191 4030,1192 3907,1192 3906,1191" fill="rgba(116,99,103,0.3)" stroke="rgb(116,99,103)" stroke-width="2" data-block-id="0004" data-name="b-0006" /><text x="3333" y="1377" text-anchor="middle" dominant-baseline="middle" class="block-label" fill="rgb(116,99,103)" stroke="white" stroke-width="3" paint-order="stroke">b-0006</text><polygon points="3891,237 3890,238 3886,238 3885,239 3845,239 3844,240 3835,240 3834,241 3829,241 3828,242 3806,242 3805,243 3797,243 3796,244 3785,244 3784,245 3776,245 3775,246 3773,246 3772,245 3758,245 3757,246 3748,246 3747,247 3734,247 3733,246 3722,246 3721,247 3715,247 3714,248 3689,248 3688,249 3674,249 3673,250 3653,250 3652,249 3627,249 3626,248 3600,248 3599,249 3598,248 3591,248 3590,247 3571,247 3570,248 3555,248 3554,249 3546,249 3545,250 3501,250 3500,249 3494,249 3493,248 3472,248 3471,249 3463,249 3462,250 3455,250 3454,251 3436,251 3435,250 3428,250 3427,251 3400,251 3399,252 3390,252 3389,251 3377,251 3376,252 3330,252 3329,251 3303,251 3302,252 3297,252 3296,251 3268,251 3267,250 3263,250 3262,251 3256,251 3255,252 3248,252 3247,253 3229,253 3228,254 3208,254 3207,255 3191,255 3190,254 3173,254 3172,255 3145,255 3144,256 3096,256 3095,257 3065,257 3064,258 3062,258 3061,257 3014,257 3013,258 3009,258 3008,257 3003,257 3002,258 2970,258 2969,259 2962,259 2961,258 2952,258 2951,259 2930,259 2929,260 2880,260 2879,261 2862,261 2861,260 2860,261 2836,261 2835,262 2806,262 2805,263 2798,263 2797,262 2769,262 2768,261 2764,261 2763,262 2757,262 2756,263 2741,263 2740,264 2731,264 2730,265 2724,265 2723,264 2710,264 2709,265 2687,265 2686,266 2680,266 2679,265 2663,265 2662,264 2649,264 2648,263 2628,263 2627,262 2620,262 2619,261 2614,261 2613,260 2605,260 2604,259 2595,259 2594,258 2584,258 2583,257 2577,257 2576,256 2567,256 2566,255 2535,255 2534,254 2529,254 2528,253 2519,253 2518,254 2507,254 2506,253 2459,253 2458,254 2443,254 2442,255 2441,255 2440,256 2439,256 2438,257 2437,257 2436,258 2436,259 2434,261 2434,262 2433,263 2433,264 2432,265 2432,266 2431,267 2431,291 2432,292 2432,310 2431,311 2431,330 2432,331 2432,359 2431,360 2431,364 2432,365 2432,377 2433,378 2433,407 2432,408 2432,433 2433,434 2433,453 2432,454 2432,462 2433,463 2433,515 2434,516 2434,550 2433,551 2433,556 2434,557 2434,568 2435,569 2435,594 2436,595 2436,602 2437,603 2437,607 2438,608 2438,611 2441,614 2442,614 2443,615 2447,615 2448,616 2457,616 2458,617 2464,617 2465,618 2476,618 2477,617 2482,617 2483,618 2496,618 2497,617 2517,617 2518,618 2522,618 2523,619 2533,619 2534,618 2555,618 2556,619 2563,619 2564,620 2580,620 2581,619 2585,619 2586,618 2599,618 2600,617 2605,617 2606,616 2629,616 2630,615 2641,615 2642,616 2647,616 2648,615 2657,615 2658,614 2677,614 2678,615 2693,615 2694,616 2712,616 2713,615 2722,615 2723,614 2760,614 2761,615 2767,615 2768,614 2775,614 2776,613 2779,613 2780,614 2809,614 2810,615 2813,615 2814,614 2830,614 2831,615 2865,615 2866,614 2875,614 2876,615 2895,615 2896,616 2898,616 2899,617 2900,617 2901,618 2904,618 2905,619 2910,619 2911,618 2915,618 2916,617 2918,617 2919,616 2924,616 2925,617 2932,617 2933,616 2936,616 2937,615 2941,615 2942,614 2950,614 2951,615 2956,615 2957,614 2963,614 2964,613 2973,613 2974,614 2989,614 2990,613 3007,613 3008,612 3020,612 3021,613 3030,613 3031,614 3039,614 3040,615 3044,615 3045,616 3047,616 3048,617 3052,617 3053,616 3056,616 3057,615 3059,615 3060,614 3077,614 3078,613 3082,613 3083,612 3102,612 3103,611 3115,611 3116,612 3152,612 3153,611 3161,611 3162,612 3182,612 3183,613 3187,613 3188,614 3204,614 3205,613 3207,613 3208,612 3210,612 3211,611 3212,611 3213,610 3214,610 3215,609 3218,609 3219,608 3242,608 3243,607 3258,607 3259,608 3267,608 3268,607 3272,607 3273,606 3311,606 3312,607 3317,607 3318,608 3320,608 3321,609 3330,609 3331,608 3335,608 3336,607 3338,607 3339,606 3342,606 3343,605 3360,605 3361,604 3368,604 3369,603 3380,603 3381,604 3383,604 3384,603 3411,603 3412,602 3420,602 3421,601 3435,601 3436,600 3505,600 3506,599 3510,599 3511,598 3543,598 3544,599 3555,599 3556,598 3563,598 3564,597 3566,597 3567,596 3569,596 3570,595 3577,595 3578,596 3581,596 3582,597 3584,597 3585,598 3597,598 3598,597 3603,597 3604,596 3617,596 3618,595 3626,595 3627,596 3635,596 3636,595 3647,595 3648,594 3664,594 3665,595 3693,595 3694,594 3701,594 3702,593 3708,593 3709,594 3756,594 3757,595 3766,595 3767,594 3773,594 3774,593 3778,593 3779,592 3782,592 3783,591 3784,591 3785,590 3786,590 3787,589 3787,586 3786,585 3786,583 3785,582 3785,578 3784,577 3784,557 3783,556 3783,536 3782,535 3782,525 3783,524 3783,504 3782,503 3782,497 3781,496 3781,493 3780,492 3780,488 3779,487 3779,481 3778,480 3778,477 3777,476 3777,474 3776,473 3776,471 3775,470 3775,465 3776,464 3776,457 3775,456 3775,454 3774,453 3774,451 3773,450 3773,448 3772,447 3772,444 3773,443 3773,440 3774,439 3774,436 3775,435 3775,434 3776,433 3776,432 3780,428 3781,428 3782,427 3783,427 3784,426 3785,426 3786,425 3792,425 3793,424 3799,424 3800,423 3816,423 3817,422 3829,422 3830,423 3836,423 3837,424 3839,424 3840,425 3841,425 3849,433 3849,434 3850,433 3858,433 3859,434 3859,435 3861,437 3861,439 3862,440 3862,442 3863,443 3863,447 3862,448 3862,449 3857,454 3856,454 3854,456 3854,459 3855,460 3856,460 3858,462 3859,462 3860,463 3861,463 3862,464 3862,465 3866,469 3866,470 3867,471 3867,473 3868,474 3868,476 3869,477 3869,499 3870,500 3870,511 3869,512 3869,531 3868,532 3868,536 3867,537 3867,540 3866,541 3866,543 3865,544 3865,545 3864,546 3864,547 3863,548 3863,550 3862,551 3862,560 3863,561 3863,578 3865,580 3865,581 3867,583 3868,583 3870,585 3872,585 3873,586 3883,586 3884,587 3885,587 3890,592 3891,592 3892,593 3893,593 3894,594 3912,594 3913,593 3919,593 3920,592 3922,592 3923,591 3925,591 3926,590 3927,590 3928,589 3930,589 3931,588 3942,588 3943,587 3948,587 3949,586 3952,586 3953,585 3985,585 3986,586 3999,586 4000,585 4001,586 4005,586 4006,587 4009,587 4010,588 4012,588 4013,589 4014,589 4015,590 4017,590 4018,591 4020,591 4021,592 4024,592 4025,593 4041,593 4042,592 4046,592 4047,591 4051,591 4052,590 4054,590 4055,589 4057,589 4058,588 4059,588 4060,587 4062,587 4063,586 4065,586 4066,585 4068,585 4069,584 4071,584 4072,583 4073,583 4077,579 4077,578 4078,577 4078,565 4079,564 4079,558 4080,557 4080,542 4081,541 4081,540 4082,539 4082,538 4084,536 4084,535 4086,533 4086,532 4087,531 4087,526 4086,525 4086,524 4085,523 4085,522 4084,521 4084,520 4083,519 4083,514 4082,513 4082,499 4081,498 4081,485 4082,484 4082,480 4081,479 4081,473 4080,472 4080,467 4081,466 4081,456 4080,455 4080,454 4079,453 4079,451 4078,450 4078,449 4077,448 4077,446 4076,445 4076,441 4075,440 4075,438 4074,437 4074,436 4072,434 4071,434 4070,433 4067,433 4066,432 4064,432 4063,431 4062,431 4061,430 4060,430 4058,428 4057,428 4056,427 4055,427 4054,426 4052,426 4051,425 4049,425 4048,424 4048,423 4049,422 4053,422 4054,421 4059,421 4060,420 4074,420 4075,419 4079,419 4080,418 4085,418 4086,417 4087,417 4088,416 4089,416 4093,412 4093,410 4094,409 4094,405 4095,404 4095,400 4096,399 4096,392 4095,391 4095,352 4094,351 4094,345 4093,344 4093,335 4094,334 4094,332 4095,331 4095,329 4096,328 4096,320 4097,319 4097,304 4096,303 4096,297 4095,296 4095,293 4094,292 4094,278 4093,277 4093,274 4092,273 4092,268 4091,267 4091,265 4090,264 4090,262 4089,261 4089,260 4087,258 4087,257 4086,256 4086,255 4085,254 4085,250 4084,249 4084,245 4083,244 4083,243 4081,241 4080,241 4079,240 4078,240 4077,239 4076,239 4075,238 4045,238 4044,237 4030,237 4029,238 4013,238 4012,239 3994,239 3993,240 3989,240 3988,239 3985,239 3984,238 3979,238 3978,237 3972,237 3971,238 3965,238 3964,237 3924,237 3923,238 3919,238 3918,239 3911,239 3910,240 3905,240 3904,239 3902,239 3901,238 3899,238 3898,237" fill="rgba(151,130,149,0.3)" stroke="rgb(151,130,149)" stroke-width="2" data-block-id="0005" data-name="b-0007" /><text x="3461" y="451" text-anchor="middle" dominant-baseline="middle" class="block-label" fill="rgb(151,130,149)" stroke="white" stroke-width="3" paint-order="stroke">b-0007</text><polygon points="1944,1689 1943,1690 1935,1690 1934,1691 1931,1691 1930,1690 1896,1690 1895,1691 1878,1691 1877,1690 1867,1690 1866,1691 1712,1691 1711,1690 1671,1690 1670,1691 1630,1691 1629,1692 1573,1692 1572,1693 1559,1693 1558,1692 1526,1692 1525,1693 1439,1693 1438,1694 1427,1694 1426,1693 1385,1693 1384,1694 1374,1694 1373,1695 1372,1695 1371,1694 1336,1694 1335,1695 1318,1695 1317,1694 1312,1694 1311,1695 1306,1695 1305,1696 1285,1696 1284,1695 1273,1695 1272,1694 1262,1694 1261,1695 1249,1695 1248,1694 1240,1694 1239,1695 1236,1695 1235,1696 1224,1696 1223,1695 1216,1695 1215,1696 1211,1696 1210,1697 1194,1697 1193,1696 1183,1696 1182,1695 1176,1695 1175,1694 1170,1694 1169,1695 1168,1695 1167,1696 1166,1696 1165,1697 1164,1697 1161,1700 1158,1700 1157,1699 1156,1699 1154,1697 1152,1697 1151,1696 1144,1696 1143,1697 1141,1697 1140,1698 1138,1698 1137,1699 1133,1699 1132,1698 1129,1698 1128,1697 1120,1697 1119,1698 1115,1698 1114,1699 1097,1699 1096,1700 1086,1700 1085,1699 1081,1699 1080,1698 1065,1698 1064,1699 1055,1699 1054,1700 1036,1700 1035,1699 1031,1699 1030,1698 1027,1698 1026,1699 1023,1699 1022,1700 1011,1700 1010,1699 989,1699 988,1698 983,1698 982,1697 980,1697 979,1698 975,1698 974,1699 972,1699 971,1700 963,1700 962,1699 955,1699 954,1700 950,1700 949,1701 941,1701 940,1700 933,1700 932,1699 931,1700 909,1700 908,1701 891,1701 890,1700 872,1700 871,1699 867,1699 866,1698 861,1698 860,1699 858,1699 857,1700 853,1700 852,1701 846,1701 845,1700 832,1700 831,1701 823,1701 822,1700 817,1700 816,1699 812,1699 811,1700 803,1700 802,1701 792,1701 789,1704 789,1705 788,1706 788,1720 787,1721 787,1854 786,1855 786,1868 785,1869 785,1876 786,1877 786,1882 787,1883 787,1909 788,1910 788,1912 787,1913 787,1929 786,1930 786,1950 787,1951 787,2009 786,2010 786,2035 785,2036 785,2042 786,2043 786,2052 787,2053 787,2058 788,2059 788,2063 791,2066 792,2066 793,2067 795,2067 796,2068 800,2068 801,2069 805,2069 806,2068 812,2068 813,2067 828,2067 829,2066 865,2066 866,2065 879,2065 880,2066 890,2066 891,2065 939,2065 940,2064 951,2064 952,2065 982,2065 983,2064 998,2064 999,2065 1020,2065 1021,2066 1059,2066 1060,2065 1067,2065 1068,2066 1073,2066 1074,2067 1113,2067 1114,2068 1129,2068 1130,2067 1154,2067 1155,2066 1191,2066 1192,2065 1230,2065 1231,2066 1239,2066 1240,2067 1249,2067 1250,2066 1287,2066 1288,2065 1335,2065 1336,2064 1342,2064 1343,2065 1382,2065 1383,2064 1387,2064 1388,2065 1399,2065 1400,2064 1423,2064 1424,2063 1447,2063 1448,2062 1456,2062 1457,2061 1464,2061 1465,2060 1474,2060 1475,2061 1507,2061 1508,2060 1521,2060 1522,2061 1524,2061 1525,2062 1543,2062 1544,2063 1548,2063 1549,2064 1567,2064 1568,2063 1581,2063 1582,2062 1591,2062 1592,2063 1614,2063 1615,2062 1691,2062 1692,2063 1696,2063 1697,2062 1702,2062 1703,2061 1745,2061 1746,2060 1757,2060 1758,2059 1780,2059 1781,2060 1807,2060 1808,2059 1817,2059 1818,2058 1858,2058 1859,2059 1892,2059 1893,2058 1961,2058 1962,2059 1973,2059 1974,2058 2014,2058 2015,2059 2016,2058 2032,2058 2033,2057 2093,2057 2094,2058 2103,2058 2104,2057 2146,2057 2147,2058 2152,2058 2153,2057 2242,2057 2243,2056 2246,2056 2247,2055 2249,2055 2250,2054 2252,2054 2253,2053 2253,2052 2254,2051 2254,2039 2255,2038 2255,2033 2256,2032 2256,2024 2255,2023 2255,2003 2254,2002 2254,2000 2253,1999 2253,1997 2252,1996 2252,1995 2251,1994 2251,1991 2252,1990 2252,1986 2253,1985 2253,1978 2252,1977 2252,1974 2251,1973 2251,1966 2252,1965 2252,1963 2253,1962 2253,1958 2254,1957 2254,1955 2253,1954 2253,1942 2254,1941 2254,1936 2255,1935 2255,1934 2254,1933 2254,1929 2253,1928 2253,1926 2252,1925 2252,1924 2251,1923 2251,1920 2252,1919 2252,1914 2253,1913 2253,1907 2252,1906 2252,1901 2251,1900 2251,1895 2252,1894 2252,1890 2253,1889 2253,1883 2252,1882 2252,1879 2251,1878 2251,1876 2250,1875 2250,1872 2251,1871 2251,1866 2252,1865 2252,1860 2251,1859 2251,1853 2250,1852 2250,1845 2251,1844 2251,1836 2250,1835 2250,1831 2249,1830 2249,1822 2250,1821 2250,1808 2249,1807 2249,1757 2250,1756 2250,1736 2249,1735 2249,1727 2250,1726 2250,1715 2249,1714 2249,1709 2248,1708 2248,1703 2247,1702 2247,1697 2245,1695 2245,1694 2244,1694 2243,1693 2242,1693 2241,1692 2239,1692 2238,1691 2236,1691 2235,1690 2232,1690 2231,1689 2223,1689 2222,1690 2214,1690 2213,1689 2197,1689 2196,1690 2193,1690 2192,1689 2143,1689 2142,1690 2120,1690 2119,1689 2107,1689 2106,1690 2074,1690 2073,1691 2064,1691 2063,1692 2061,1692 2060,1691 2048,1691 2047,1690 2022,1690 2021,1689" fill="rgba(235,157,37,0.3)" stroke="rgb(235,157,37)" stroke-width="2" data-block-id="0006" data-name="b-0009" /><text x="1533" y="1860" text-anchor="middle" dominant-baseline="middle" class="block-label" fill="rgb(235,157,37)" stroke="white" stroke-width="3" paint-order="stroke">b-0009</text><polygon points="1535,732 1534,733 1525,733 1524,734 1514,734 1513,735 1509,735 1508,736 1505,736 1504,737 1503,737 1502,736 1497,736 1496,735 1489,735 1488,736 1482,736 1481,737 1470,737 1469,738 1461,738 1460,739 1454,739 1453,738 1432,738 1431,737 1391,737 1390,738 1334,738 1333,739 1312,739 1311,738 1298,738 1297,739 1286,739 1285,740 1276,740 1275,741 1230,741 1229,742 1185,742 1184,743 1172,743 1171,744 1167,744 1166,743 1147,743 1146,744 1139,744 1138,745 1126,745 1125,746 1113,746 1112,745 1098,745 1097,746 1092,746 1091,747 1061,747 1060,746 1050,746 1049,747 1043,747 1042,748 1004,748 1003,747 912,747 911,746 909,746 908,747 901,747 900,748 886,748 885,747 868,747 867,746 860,746 859,747 834,747 833,746 818,746 817,745 815,745 814,746 805,746 804,747 800,747 799,748 797,748 796,749 795,749 794,750 793,750 789,754 789,758 788,759 788,789 787,790 787,792 788,793 788,807 787,808 787,814 786,815 786,818 787,819 787,834 786,835 786,842 787,843 787,880 786,881 786,899 787,900 787,948 786,949 786,962 787,963 787,967 788,968 788,979 789,980 789,1003 788,1004 788,1006 789,1007 789,1014 790,1015 790,1019 789,1020 789,1025 788,1026 788,1032 789,1033 789,1036 790,1037 790,1045 789,1046 789,1073 788,1074 788,1079 789,1080 789,1087 790,1088 790,1093 791,1094 791,1099 792,1100 792,1101 795,1104 796,1104 798,1106 799,1106 800,1107 801,1107 802,1108 806,1108 807,1109 814,1109 815,1110 822,1110 823,1111 828,1111 829,1110 833,1110 834,1109 842,1109 843,1110 847,1110 848,1111 858,1111 859,1110 863,1110 864,1111 869,1111 870,1112 878,1112 879,1111 883,1111 884,1110 887,1110 888,1111 891,1111 892,1112 894,1112 895,1113 900,1113 901,1112 903,1112 904,1111 906,1111 907,1110 910,1110 911,1109 928,1109 929,1108 934,1108 935,1109 937,1109 938,1110 939,1110 940,1111 941,1111 943,1113 949,1113 950,1112 951,1112 952,1111 954,1111 955,1110 957,1110 958,1109 963,1109 964,1108 968,1108 969,1107 975,1107 976,1106 984,1106 985,1107 1005,1107 1006,1106 1022,1106 1023,1105 1030,1105 1031,1106 1073,1106 1074,1107 1083,1107 1084,1108 1089,1108 1090,1107 1092,1107 1093,1106 1095,1106 1096,1105 1134,1105 1135,1106 1145,1106 1146,1105 1147,1106 1157,1106 1158,1107 1188,1107 1189,1106 1210,1106 1211,1105 1227,1105 1228,1106 1230,1106 1231,1105 1235,1105 1236,1104 1237,1104 1238,1103 1239,1103 1240,1102 1241,1102 1242,1101 1243,1101 1244,1100 1246,1100 1247,1099 1250,1099 1251,1098 1257,1098 1260,1101 1261,1101 1265,1105 1268,1105 1269,1104 1271,1104 1272,1103 1274,1103 1275,1102 1279,1102 1280,1103 1281,1103 1282,1104 1283,1104 1284,1105 1287,1105 1288,1106 1357,1106 1358,1105 1380,1105 1381,1106 1395,1106 1396,1105 1400,1105 1401,1106 1462,1106 1463,1105 1473,1105 1474,1104 1487,1104 1488,1103 1499,1103 1500,1104 1513,1104 1514,1105 1519,1105 1520,1106 1526,1106 1527,1107 1532,1107 1533,1106 1540,1106 1541,1105 1542,1105 1543,1104 1545,1104 1546,1103 1548,1103 1549,1102 1561,1102 1562,1103 1566,1103 1567,1104 1570,1104 1571,1105 1591,1105 1592,1106 1597,1106 1598,1107 1608,1107 1609,1106 1630,1106 1631,1105 1666,1105 1667,1106 1678,1106 1679,1105 1693,1105 1694,1104 1696,1104 1697,1105 1717,1105 1718,1106 1719,1106 1720,1105 1741,1105 1742,1106 1751,1106 1752,1105 1753,1105 1754,1106 1778,1106 1779,1105 1813,1105 1814,1106 1817,1106 1818,1107 1820,1107 1821,1108 1822,1108 1823,1109 1824,1109 1825,1110 1828,1110 1829,1109 1831,1109 1832,1108 1834,1108 1835,1107 1838,1107 1839,1106 1842,1106 1843,1105 1855,1105 1856,1106 1895,1106 1896,1107 1901,1107 1902,1108 1905,1108 1906,1109 1911,1109 1912,1108 1915,1108 1916,1107 1919,1107 1920,1106 1924,1106 1925,1105 1928,1105 1929,1104 1938,1104 1939,1103 1953,1103 1954,1104 1956,1104 1957,1103 1980,1103 1981,1104 1982,1104 1983,1103 2002,1103 2003,1104 2004,1103 2037,1103 2038,1102 2043,1102 2044,1103 2058,1103 2059,1102 2092,1102 2093,1103 2127,1103 2128,1102 2174,1102 2175,1101 2204,1101 2205,1100 2208,1100 2209,1101 2221,1101 2222,1100 2232,1100 2233,1099 2235,1099 2236,1098 2237,1098 2238,1097 2239,1097 2240,1096 2241,1096 2242,1095 2242,1094 2244,1092 2244,1090 2245,1089 2245,1063 2244,1062 2244,1032 2243,1031 2243,1026 2244,1025 2244,1011 2243,1010 2243,999 2244,998 2244,987 2243,986 2243,972 2244,971 2244,968 2243,967 2243,949 2244,948 2244,944 2243,943 2243,905 2244,904 2244,891 2243,890 2243,883 2244,882 2244,843 2243,842 2243,834 2244,833 2244,771 2243,770 2243,762 2244,761 2244,755 2243,754 2243,747 2242,746 2242,742 2241,741 2241,740 2240,739 2240,738 2239,737 2238,737 2237,736 2236,736 2235,735 2232,735 2231,734 2215,734 2214,735 2093,735 2092,734 2041,734 2040,735 2027,735 2026,734 2020,734 2019,733 2009,733 2008,734 1948,734 1947,735 1937,735 1936,734 1929,734 1928,735 1916,735 1915,734 1893,734 1892,735 1879,735 1878,734 1861,734 1860,735 1844,735 1843,736 1812,736 1811,735 1801,735 1800,736 1783,736 1782,735 1764,735 1763,736 1732,736 1731,735 1729,735 1728,736 1663,736 1662,737 1644,737 1643,736 1614,736 1613,737 1589,737 1588,736 1569,736 1568,735 1562,735 1561,736 1555,736 1554,737 1553,737 1552,736 1549,736 1548,735 1547,735 1546,734 1544,734 1543,733 1542,733 1541,732" fill="rgba(129,191,187,0.3)" stroke="rgb(129,191,187)" stroke-width="2" data-block-id="0007" data-name="b-0010" /><text x="1442" y="962" text-anchor="middle" dominant-baseline="middle" class="block-label" fill="rgb(129,191,187)" stroke="white" stroke-width="3" paint-order="stroke">b-0010</text><polygon points="2141,2169 2140,2170 2115,2170 2114,2171 2108,2171 2107,2170 2044,2170 2043,2171 2034,2171 2033,2170 2025,2170 2024,2171 2003,2171 2002,2172 1996,2172 1995,2173 1989,2173 1988,2172 1969,2172 1968,2173 1967,2173 1966,2172 1943,2172 1942,2171 1930,2171 1929,2172 1926,2172 1925,2173 1914,2173 1913,2172 1881,2172 1880,2173 1862,2173 1861,2172 1848,2172 1847,2173 1806,2173 1805,2174 1795,2174 1794,2173 1789,2173 1788,2174 1754,2174 1753,2175 1706,2175 1705,2174 1699,2174 1698,2173 1679,2173 1678,2172 1672,2172 1671,2173 1642,2173 1641,2174 1601,2174 1600,2173 1571,2173 1570,2174 1489,2174 1488,2175 1418,2175 1417,2176 1388,2176 1387,2177 1384,2177 1383,2176 1380,2176 1379,2175 1373,2175 1372,2174 1357,2174 1356,2175 1343,2175 1342,2176 1294,2176 1293,2177 1285,2177 1284,2176 1158,2176 1157,2177 1119,2177 1118,2176 1107,2176 1106,2177 1055,2177 1054,2176 1034,2176 1033,2177 1030,2177 1029,2178 1027,2178 1026,2179 1025,2179 1023,2181 1022,2181 1021,2182 1020,2182 1019,2183 1018,2183 1017,2184 1015,2184 1014,2183 1012,2183 1011,2182 1008,2182 1005,2179 1004,2179 1002,2177 1000,2177 999,2176 964,2176 963,2175 950,2175 949,2176 915,2176 914,2177 906,2177 905,2176 871,2176 870,2177 842,2177 841,2178 834,2178 833,2177 821,2177 820,2178 807,2178 806,2179 802,2179 801,2180 800,2180 799,2181 798,2181 795,2184 795,2185 794,2186 794,2188 793,2189 793,2192 792,2193 792,2198 791,2199 791,2215 792,2216 792,2222 791,2223 791,2234 792,2235 792,2266 791,2267 791,2298 790,2299 790,2302 791,2303 791,2309 792,2310 792,2319 791,2320 791,2330 792,2331 792,2343 791,2344 791,2363 790,2364 790,2413 789,2414 789,2430 790,2431 790,2434 789,2435 789,2450 788,2451 788,2472 787,2473 787,2490 788,2491 788,2509 787,2510 787,2521 788,2522 788,2532 789,2533 789,2538 790,2539 791,2539 792,2540 793,2540 794,2541 801,2541 802,2542 835,2542 836,2543 903,2543 904,2542 911,2542 912,2541 969,2541 970,2540 977,2540 978,2539 984,2539 985,2540 997,2540 998,2541 1010,2541 1011,2540 1125,2540 1126,2541 1163,2541 1164,2540 1190,2540 1191,2541 1330,2541 1331,2540 1334,2540 1335,2539 1338,2539 1339,2538 1353,2538 1354,2539 1368,2539 1369,2540 1381,2540 1382,2539 1391,2539 1392,2540 1402,2540 1403,2539 1419,2539 1420,2540 1423,2540 1424,2539 1464,2539 1465,2540 1477,2540 1478,2539 1523,2539 1524,2538 1542,2538 1543,2537 1659,2537 1660,2536 1661,2536 1662,2537 1693,2537 1694,2536 1698,2536 1699,2537 1712,2537 1713,2536 1727,2536 1728,2537 1730,2537 1731,2536 1793,2536 1794,2535 1809,2535 1810,2534 1858,2534 1859,2535 1863,2535 1864,2534 1890,2534 1891,2535 1906,2535 1907,2536 1924,2536 1925,2535 1943,2535 1944,2534 1953,2534 1954,2533 2006,2533 2007,2532 2010,2532 2011,2531 2014,2531 2015,2530 2024,2530 2025,2531 2044,2531 2045,2530 2098,2530 2099,2529 2113,2529 2114,2530 2145,2530 2146,2531 2151,2531 2152,2530 2208,2530 2209,2529 2245,2529 2246,2528 2249,2528 2250,2527 2252,2527 2253,2526 2254,2526 2255,2525 2255,2524 2256,2523 2256,2521 2257,2520 2257,2518 2258,2517 2258,2499 2257,2498 2257,2470 2256,2469 2256,2465 2257,2464 2257,2431 2256,2430 2256,2406 2255,2405 2255,2389 2254,2388 2254,2384 2253,2383 2253,2382 2252,2381 2252,2380 2249,2377 2248,2377 2246,2375 2244,2375 2243,2374 2243,2373 2242,2372 2242,2371 2241,2370 2241,2369 2240,2368 2240,2366 2239,2365 2239,2363 2238,2362 2238,2361 2237,2360 2237,2358 2236,2357 2236,2356 2235,2355 2235,2354 2231,2350 2231,2349 2230,2348 2230,2346 2229,2345 2229,2339 2228,2338 2228,2336 2229,2335 2229,2330 2230,2329 2230,2321 2229,2320 2229,2314 2230,2313 2230,2312 2231,2311 2231,2310 2233,2308 2234,2308 2237,2305 2237,2304 2242,2299 2242,2298 2244,2296 2244,2295 2245,2294 2245,2292 2246,2291 2246,2290 2247,2289 2247,2287 2249,2285 2249,2283 2250,2282 2250,2281 2251,2280 2251,2278 2252,2277 2252,2266 2253,2265 2253,2264 2254,2263 2254,2262 2255,2261 2255,2260 2256,2259 2256,2258 2257,2257 2257,2256 2258,2255 2258,2233 2257,2232 2257,2222 2256,2221 2256,2216 2255,2215 2255,2210 2254,2209 2254,2179 2253,2178 2253,2176 2252,2175 2252,2174 2251,2173 2250,2173 2249,2172 2248,2172 2247,2171 2245,2171 2244,2170 2211,2170 2210,2169" fill="rgba(20,160,203,0.3)" stroke="rgb(20,160,203)" stroke-width="2" data-block-id="0008" data-name="b-0011" /><text x="1622" y="2337" text-anchor="middle" dominant-baseline="middle" class="block-label" fill="rgb(20,160,203)" stroke="white" stroke-width="3" paint-order="stroke">b-0011</text><polygon points="2176,1213 2175,1214 2057,1214 2056,1215 2051,1215 2050,1214 1969,1214 1968,1215 1948,1215 1947,1214 1930,1214 1929,1215 1867,1215 1866,1216 1856,1216 1855,1215 1846,1215 1845,1216 1750,1216 1749,1217 1649,1217 1648,1218 1646,1218 1645,1217 1630,1217 1629,1218 1620,1218 1619,1217 1579,1217 1578,1218 1575,1218 1574,1217 1542,1217 1541,1218 1497,1218 1496,1217 1491,1217 1490,1218 1386,1218 1385,1219 1353,1219 1352,1218 1348,1218 1347,1219 1306,1219 1305,1218 1300,1218 1299,1219 1222,1219 1221,1220 1217,1220 1216,1219 1179,1219 1178,1220 1153,1220 1152,1219 1146,1219 1145,1220 1097,1220 1096,1221 1046,1221 1045,1222 1036,1222 1035,1221 1022,1221 1021,1222 956,1222 955,1223 906,1223 905,1224 838,1224 837,1225 809,1225 808,1224 803,1224 802,1225 798,1225 797,1226 794,1226 793,1227 792,1227 789,1230 789,1232 788,1233 788,1274 787,1275 787,1338 788,1339 788,1342 787,1343 787,1353 788,1354 788,1398 787,1399 788,1400 788,1416 787,1417 787,1423 788,1424 788,1479 789,1480 789,1485 788,1486 788,1501 789,1502 789,1510 788,1511 788,1520 789,1521 789,1571 790,1572 790,1577 791,1578 791,1579 792,1580 792,1581 793,1582 794,1582 795,1583 796,1583 797,1584 800,1584 801,1585 814,1585 815,1586 871,1586 872,1587 875,1587 876,1586 883,1586 884,1585 919,1585 920,1586 923,1586 924,1585 954,1585 955,1584 959,1584 960,1585 976,1585 977,1584 1009,1584 1010,1585 1022,1585 1023,1584 1055,1584 1056,1585 1066,1585 1067,1584 1107,1584 1108,1585 1113,1585 1114,1584 1130,1584 1131,1583 1137,1583 1138,1584 1153,1584 1154,1583 1179,1583 1180,1584 1208,1584 1209,1583 1305,1583 1306,1582 1357,1582 1358,1583 1378,1583 1379,1582 1525,1582 1526,1581 1548,1581 1549,1582 1567,1582 1568,1581 1706,1581 1707,1580 1760,1580 1761,1579 1811,1579 1812,1578 1954,1578 1955,1577 2086,1577 2087,1576 2130,1576 2131,1575 2207,1575 2208,1574 2209,1574 2210,1575 2219,1575 2220,1574 2235,1574 2236,1573 2241,1573 2242,1572 2243,1572 2246,1569 2246,1568 2247,1567 2247,1566 2248,1565 2248,1553 2249,1552 2249,1469 2248,1468 2248,1452 2249,1451 2249,1435 2248,1434 2248,1343 2247,1342 2247,1318 2246,1317 2246,1311 2247,1310 2247,1297 2246,1296 2246,1230 2245,1229 2245,1222 2244,1221 2244,1219 2243,1218 2243,1217 2242,1217 2240,1215 2239,1215 2238,1214 2235,1214 2234,1213" fill="rgba(57,21,252,0.3)" stroke="rgb(57,21,252)" stroke-width="2" data-block-id="0009" data-name="b-0012" /><text x="1415" y="1399" text-anchor="middle" dominant-baseline="middle" class="block-label" fill="rgb(57,21,252)" stroke="white" stroke-width="3" paint-order="stroke">b-0012</text><polygon points="2170,252 2169,253 2168,253 2167,254 2165,254 2164,255 2160,255 2159,256 2154,256 2153,255 2131,255 2130,254 2127,254 2126,253 2120,253 2119,254 2104,254 2103,253 2097,253 2096,254 2094,254 2093,255 2091,255 2090,256 2088,256 2087,257 2086,257 2085,256 2079,256 2078,255 2076,255 2075,256 2073,256 2072,257 2071,257 2070,258 2068,258 2067,259 2066,259 2065,260 2064,259 2061,259 2060,258 2059,258 2058,257 2056,257 2055,256 2054,256 2053,255 2049,255 2048,256 2027,256 2026,257 2024,257 2023,258 2022,258 2021,259 2019,259 2018,260 2015,260 2014,259 2011,259 2010,258 2007,258 2006,257 2002,257 2001,258 1996,258 1995,259 1987,259 1986,258 1979,258 1978,259 1975,259 1974,260 1971,260 1970,261 1966,261 1965,260 1959,260 1958,259 1953,259 1952,260 1937,260 1936,259 1931,259 1930,260 1913,260 1912,259 1906,259 1905,260 1837,260 1836,261 1831,261 1830,262 1811,262 1810,261 1731,261 1730,260 1713,260 1712,259 1703,259 1702,260 1687,260 1686,259 1678,259 1677,260 1663,260 1662,259 1658,259 1657,260 1615,260 1614,261 1610,261 1609,262 1608,262 1607,263 1606,263 1605,264 1604,264 1603,265 1602,265 1601,266 1597,266 1596,265 1594,265 1593,264 1591,264 1590,263 1575,263 1574,264 1511,264 1510,265 1499,265 1498,264 1492,264 1491,263 1490,264 1480,264 1479,265 1406,265 1405,264 1400,264 1399,263 1395,263 1394,264 1378,264 1377,263 1370,263 1369,264 1353,264 1352,263 1350,263 1349,264 1324,264 1323,265 1289,265 1288,266 1275,266 1274,267 1266,267 1265,266 1240,266 1239,267 1231,267 1230,268 1229,267 1156,267 1155,266 1143,266 1142,265 1138,265 1137,264 1118,264 1117,263 1108,263 1107,264 1100,264 1099,265 1087,265 1086,266 1080,266 1079,267 1074,267 1073,266 1070,266 1069,265 1058,265 1057,266 1039,266 1038,267 1031,267 1030,268 1026,268 1025,267 1012,267 1011,268 992,268 991,269 985,269 984,270 958,270 957,271 939,271 938,272 900,272 899,271 897,271 896,272 857,272 856,273 847,273 846,274 833,274 832,275 812,275 811,276 808,276 807,277 802,277 801,278 793,278 789,282 789,285 788,286 788,288 787,289 787,311 786,312 786,321 787,322 787,336 786,337 786,341 787,342 787,358 786,359 786,369 787,370 787,389 788,390 788,395 789,396 789,401 788,402 788,408 787,409 787,414 788,415 788,426 787,427 787,440 788,441 788,450 787,451 787,464 788,465 788,566 789,567 789,615 790,616 790,623 793,626 796,626 797,627 801,627 802,628 813,628 814,629 845,629 846,630 852,630 853,629 859,629 860,628 870,628 871,629 875,629 876,628 909,628 910,629 925,629 926,628 952,628 953,629 975,629 976,628 993,628 994,629 995,629 996,628 1075,628 1076,627 1090,627 1091,628 1154,628 1155,629 1174,629 1175,630 1190,630 1191,629 1215,629 1216,628 1225,628 1226,629 1256,629 1257,628 1296,628 1297,629 1310,629 1311,628 1329,628 1330,629 1354,629 1355,628 1386,628 1387,629 1393,629 1394,630 1398,630 1399,631 1401,631 1402,632 1403,632 1405,634 1406,634 1407,635 1411,635 1412,634 1413,634 1415,632 1416,632 1417,631 1418,631 1419,630 1422,630 1423,629 1435,629 1436,628 1476,628 1477,629 1481,629 1482,630 1483,630 1484,631 1486,631 1488,633 1489,633 1490,634 1492,634 1493,635 1494,635 1495,634 1496,634 1497,633 1498,633 1499,632 1500,632 1501,631 1503,631 1504,630 1506,630 1507,629 1510,629 1511,628 1544,628 1545,627 1568,627 1569,628 1595,628 1596,627 1604,627 1605,626 1625,626 1626,627 1640,627 1641,626 1660,626 1661,627 1668,627 1669,628 1676,628 1677,627 1684,627 1685,626 1688,626 1689,625 1710,625 1711,626 1729,626 1730,625 1749,625 1750,626 1755,626 1756,627 1763,627 1764,628 1769,628 1770,627 1776,627 1777,626 1782,626 1783,625 1787,625 1788,624 1795,624 1796,625 1815,625 1816,624 1832,624 1833,625 1858,625 1859,626 1864,626 1865,625 1876,625 1877,624 1893,624 1894,625 1900,625 1901,624 1915,624 1916,623 1927,623 1928,622 1947,622 1948,623 1978,623 1979,624 1981,624 1982,623 1990,623 1991,622 2017,622 2018,621 2022,621 2023,620 2028,620 2029,619 2061,619 2062,618 2066,618 2067,619 2084,619 2085,620 2101,620 2102,619 2132,619 2133,618 2176,618 2177,617 2189,617 2190,618 2199,618 2200,617 2227,617 2228,616 2232,616 2233,615 2235,615 2236,614 2237,614 2238,613 2239,613 2241,611 2241,598 2242,597 2242,595 2243,594 2243,591 2244,590 2244,586 2243,585 2243,582 2242,581 2242,570 2243,569 2243,563 2242,562 2242,558 2241,557 2241,547 2242,546 2242,524 2243,523 2243,514 2242,513 2242,509 2241,508 2241,498 2242,497 2242,491 2241,490 2241,486 2240,485 2240,478 2241,477 2241,473 2242,472 2242,468 2241,467 2241,464 2240,463 2240,459 2239,458 2239,456 2240,455 2240,449 2241,448 2241,441 2240,440 2240,431 2241,430 2241,428 2242,427 2242,417 2241,416 2241,413 2240,412 2240,408 2241,407 2241,403 2242,402 2242,395 2241,394 2241,392 2240,391 2240,390 2239,389 2239,384 2240,383 2240,382 2241,381 2241,380 2242,379 2242,378 2243,377 2243,370 2242,369 2242,368 2241,367 2241,365 2240,364 2240,358 2241,357 2241,348 2240,347 2240,345 2239,344 2239,343 2237,341 2237,338 2239,336 2239,335 2241,333 2241,331 2242,330 2242,322 2241,321 2241,317 2240,316 2240,313 2241,312 2241,309 2242,308 2242,303 2243,302 2243,281 2242,280 2242,274 2241,273 2241,269 2240,268 2240,266 2238,264 2238,263 2236,261 2235,261 2233,259 2232,259 2231,258 2230,258 2229,257 2226,257 2225,256 2223,256 2222,255 2213,255 2212,256 2188,256 2187,257 2181,257 2180,256 2178,256 2177,255 2176,255 2175,254 2174,254 2173,253 2172,253 2171,252" fill="rgba(235,88,48,0.3)" stroke="rgb(235,88,48)" stroke-width="2" data-block-id="0010" data-name="b-0013" /><text x="1678" y="423" text-anchor="middle" dominant-baseline="middle" class="block-label" fill="rgb(235,88,48)" stroke="white" stroke-width="3" paint-order="stroke">b-0013</text><polygon points="2190,2643 2189,2644 2163,2644 2162,2645 2122,2645 2121,2646 2117,2646 2116,2647 2113,2647 2112,2648 2107,2648 2106,2647 2092,2647 2091,2646 2006,2646 2005,2647 2000,2647 1999,2648 1996,2648 1995,2649 1988,2649 1987,2648 1978,2648 1977,2649 1975,2649 1974,2650 1971,2650 1970,2651 1967,2651 1966,2650 1962,2650 1961,2649 1932,2649 1931,2650 1918,2650 1917,2651 1907,2651 1906,2650 1896,2650 1895,2649 1891,2649 1890,2648 1881,2648 1880,2649 1877,2649 1876,2650 1842,2650 1841,2649 1839,2649 1838,2650 1834,2650 1833,2651 1831,2651 1830,2652 1828,2652 1827,2653 1823,2653 1822,2652 1818,2652 1817,2651 1810,2651 1809,2652 1787,2652 1786,2653 1725,2653 1724,2652 1714,2652 1713,2651 1705,2651 1704,2650 1680,2650 1679,2649 1668,2649 1667,2650 1662,2650 1661,2651 1656,2651 1655,2650 1627,2650 1626,2649 1621,2649 1620,2650 1603,2650 1602,2649 1598,2649 1597,2650 1583,2650 1582,2649 1578,2649 1577,2648 1574,2648 1573,2649 1543,2649 1542,2650 1533,2650 1532,2649 1527,2649 1526,2650 1503,2650 1502,2651 1484,2651 1483,2650 1476,2650 1475,2651 1463,2651 1462,2650 1454,2650 1453,2651 1421,2651 1420,2652 1419,2651 1405,2651 1404,2652 1388,2652 1387,2651 1371,2651 1370,2652 1363,2652 1362,2653 1342,2653 1341,2652 1332,2652 1331,2651 1319,2651 1318,2650 1311,2650 1310,2651 1285,2651 1284,2652 1217,2652 1216,2653 1210,2653 1209,2654 1206,2654 1205,2653 1201,2653 1200,2652 1196,2652 1195,2651 1177,2651 1176,2650 1165,2650 1164,2651 1151,2651 1150,2650 1147,2650 1146,2651 1111,2651 1110,2650 1093,2650 1092,2651 1037,2651 1036,2650 1021,2650 1020,2651 1009,2651 1008,2652 975,2652 974,2653 952,2653 951,2652 930,2652 929,2651 890,2651 889,2652 866,2652 865,2651 863,2651 862,2652 854,2652 853,2653 831,2653 830,2654 802,2654 801,2655 798,2655 797,2656 795,2656 794,2657 793,2657 791,2659 791,2662 790,2663 790,2668 789,2669 789,2675 790,2676 790,2691 791,2692 791,2704 790,2705 790,2707 791,2708 791,2732 790,2733 790,2782 791,2783 791,2798 790,2799 790,2805 791,2806 791,2815 790,2816 790,2829 791,2830 791,2833 792,2834 792,2840 793,2841 793,2852 792,2853 792,2873 791,2874 791,2895 792,2896 792,2982 791,2983 791,2989 790,2990 791,2991 791,2995 792,2996 792,2997 793,2998 793,2999 794,3000 794,3001 798,3005 799,3005 800,3006 801,3006 802,3007 804,3007 805,3008 808,3008 809,3009 813,3009 814,3010 819,3010 820,3011 827,3011 828,3012 829,3011 835,3011 836,3010 840,3010 841,3011 847,3011 848,3012 853,3012 854,3011 872,3011 873,3012 875,3012 876,3011 883,3011 884,3010 888,3010 889,3011 895,3011 896,3012 901,3012 902,3011 916,3011 917,3012 926,3012 927,3011 940,3011 941,3012 949,3012 950,3011 965,3011 966,3012 973,3012 974,3011 986,3011 987,3012 1002,3012 1003,3011 1010,3011 1011,3012 1019,3012 1020,3011 1027,3011 1028,3010 1038,3010 1039,3011 1040,3010 1047,3010 1048,3009 1056,3009 1057,3010 1094,3010 1095,3009 1106,3009 1107,3010 1116,3010 1117,3009 1129,3009 1130,3010 1145,3010 1146,3009 1168,3009 1169,3008 1174,3008 1175,3009 1238,3009 1239,3008 1249,3008 1250,3009 1259,3009 1260,3008 1273,3008 1274,3009 1298,3009 1299,3010 1304,3010 1305,3009 1311,3009 1312,3008 1320,3008 1321,3009 1347,3009 1348,3010 1354,3010 1355,3009 1364,3009 1365,3010 1378,3010 1379,3009 1382,3009 1383,3008 1391,3008 1392,3009 1404,3009 1405,3008 1414,3008 1415,3009 1439,3009 1440,3010 1452,3010 1453,3009 1459,3009 1460,3010 1465,3010 1466,3011 1474,3011 1475,3010 1495,3010 1496,3009 1500,3009 1501,3008 1511,3008 1512,3009 1534,3009 1535,3010 1545,3010 1546,3009 1574,3009 1575,3008 1576,3009 1619,3009 1620,3008 1628,3008 1629,3009 1655,3009 1656,3010 1660,3010 1661,3009 1670,3009 1671,3008 1685,3008 1686,3007 1690,3007 1691,3006 1725,3006 1726,3007 1732,3007 1733,3006 1740,3006 1741,3005 1749,3005 1750,3006 1758,3006 1759,3005 1796,3005 1797,3006 1824,3006 1825,3005 1841,3005 1842,3006 1861,3006 1862,3005 1864,3005 1865,3006 1967,3006 1968,3005 1977,3005 1978,3004 1990,3004 1991,3005 1992,3005 1993,3004 2018,3004 2019,3005 2045,3005 2046,3004 2053,3004 2054,3003 2070,3003 2071,3004 2076,3004 2077,3005 2084,3005 2085,3004 2087,3004 2088,3005 2118,3005 2119,3004 2126,3004 2127,3003 2144,3003 2145,3004 2168,3004 2169,3003 2175,3003 2176,3004 2249,3004 2250,3003 2254,3003 2258,2999 2258,2998 2259,2997 2259,2996 2261,2994 2261,2991 2262,2990 2262,2969 2261,2968 2261,2949 2262,2948 2262,2907 2263,2906 2263,2901 2264,2900 2264,2896 2265,2895 2265,2894 2264,2893 2264,2879 2263,2878 2263,2870 2262,2869 2262,2840 2261,2839 2261,2837 2262,2836 2262,2829 2263,2828 2263,2811 2264,2810 2264,2805 2265,2804 2265,2798 2264,2797 2264,2793 2263,2792 2263,2784 2262,2783 2262,2758 2263,2757 2263,2749 2262,2748 2262,2724 2261,2723 2261,2711 2262,2710 2262,2703 2261,2702 2261,2664 2260,2663 2260,2657 2259,2656 2259,2653 2258,2652 2258,2650 2257,2649 2257,2648 2254,2645 2240,2645 2239,2644 2212,2644 2211,2643" fill="rgba(218,58,254,0.3)" stroke="rgb(218,58,254)" stroke-width="2" data-block-id="0011" data-name="b-0014" /><text x="1498" y="2834" text-anchor="middle" dominant-baseline="middle" class="block-label" fill="rgb(218,58,254)" stroke="white" stroke-width="3" paint-order="stroke">b-0014</text><polygon points="2436,2551 2417,2153 4149,2134 4153,2524" fill="rgba(102,179,92,0.3)" stroke="rgb(102,179,92)" stroke-width="2" data-block-id="0012" data-name="b-0012" /><text x="3288" y="2340" text-anchor="middle" dominant-baseline="middle" class="block-label" fill="rgb(102,179,92)" stroke="white" stroke-width="3" paint-order="stroke">b-0012</text></g>
</svg>