<?xml version='1.0' encoding='utf-8'?>
<svg xmlns="http://www.w3.org/2000/svg" xmlns:atlas="http://example.com/atlas" width="4984" height="3248" viewBox="0 0 4984 3248">
  
  <metadata>
    <atlas:source>
      <atlas:jp2-path>/Users/pwright/workspace/atlas/media/v2/p37.jp2</atlas:jp2-path>
      <atlas:volume>unknown</atlas:volume>
      <atlas:plate-id>p37</atlas:plate-id>
      <atlas:image-width>4984</atlas:image-width>
      <atlas:image-height>3248</atlas:image-height>
    <atlas:angle>0</atlas:angle><atlas:scale>1.4140474131016372</atlas:scale><atlas:pos-x>1460.52127340746</atlas:pos-x><atlas:pos-y>802.3383000840327</atlas:pos-y></atlas:source>
  </metadata>

  
  <image id="background" href="file:///Users/pwright/workspace/atlas/media/v2/p37.jp2" width="4984" height="3248" opacity="0.5" />

  <style>
    .block-label { font-family: sans-serif; font-size: 14px; font-weight: bold; }
  </style>

  
  <g id="blocks">
    <polygon points="2001,2663 2000,2664 1936,2664 1935,2665 1914,2665 1913,2664 1907,2664 1906,2665 1842,2665 1841,2666 1834,2666 1833,2665 1813,2665 1812,2666 1804,2666 1803,2667 1788,2667 1787,2666 1780,2666 1779,2665 1759,2665 1758,2664 1751,2664 1750,2665 1728,2665 1727,2664 1716,2664 1715,2665 1711,2665 1710,2666 1678,2666 1677,2665 1670,2665 1669,2666 1664,2666 1663,2667 1660,2667 1659,2668 1649,2668 1648,2667 1618,2667 1617,2668 1604,2668 1603,2669 1597,2669 1596,2668 1544,2668 1543,2667 1513,2667 1512,2668 1509,2668 1508,2669 1505,2669 1504,2670 1503,2669 1501,2669 1500,2668 1497,2668 1496,2667 1440,2667 1439,2666 1420,2666 1419,2667 1403,2667 1402,2666 1392,2666 1391,2667 1370,2667 1369,2668 1356,2668 1355,2667 1333,2667 1332,2668 1322,2668 1321,2669 1307,2669 1306,2668 1283,2668 1282,2669 1244,2669 1243,2670 1225,2670 1224,2671 1214,2671 1213,2670 1190,2670 1189,2671 1164,2671 1163,2670 1140,2670 1139,2669 1131,2669 1130,2670 1119,2670 1118,2669 1089,2669 1088,2670 1074,2670 1073,2669 1066,2669 1065,2668 1039,2668 1038,2669 1033,2669 1032,2670 1027,2670 1026,2669 1024,2669 1023,2668 1020,2668 1019,2667 1001,2667 1000,2666 986,2666 985,2667 978,2667 977,2666 956,2666 955,2667 924,2667 923,2666 894,2666 893,2667 860,2667 859,2668 857,2668 856,2669 855,2669 852,2672 852,2675 851,2676 851,2681 850,2682 850,2685 849,2686 849,2689 848,2690 848,2708 849,2709 849,2713 850,2714 850,2721 849,2722 849,2726 848,2727 848,2733 849,2734 849,2737 850,2738 850,2756 849,2757 849,2758 848,2759 848,2760 847,2761 847,2762 846,2763 846,2764 845,2765 845,2766 837,2774 837,2775 836,2776 836,2785 837,2786 837,2791 838,2792 838,2793 839,2794 839,2795 841,2797 841,2798 842,2799 842,2800 843,2801 843,2808 842,2809 842,2815 843,2816 843,2821 844,2822 844,2825 845,2826 845,2829 846,2830 846,2839 847,2840 847,2851 846,2852 846,2853 845,2854 845,2855 844,2856 844,2857 843,2858 843,2860 842,2861 842,2865 841,2866 841,2870 840,2871 840,2875 841,2876 841,2879 842,2880 842,2882 843,2883 843,2884 844,2885 844,2886 845,2887 845,2888 846,2889 846,2891 847,2892 847,2894 848,2895 848,2913 847,2914 847,2923 848,2924 848,2943 847,2944 847,2946 845,2948 845,2949 843,2951 842,2951 839,2954 839,2956 838,2957 839,2958 839,2959 840,2960 840,2961 841,2962 841,2963 843,2965 843,2966 844,2967 844,2968 846,2970 846,2971 847,2972 847,2973 848,2974 848,2975 849,2976 849,2977 850,2978 850,2989 849,2990 849,2992 844,2997 843,2997 842,2998 841,2998 839,3000 839,3001 837,3003 837,3005 836,3006 836,3009 835,3010 835,3018 836,3019 836,3020 840,3024 842,3024 843,3025 844,3025 850,3031 850,3033 851,3034 851,3035 853,3037 853,3038 855,3040 856,3040 857,3041 858,3041 859,3042 863,3042 864,3043 882,3043 883,3042 889,3042 890,3043 896,3043 897,3044 919,3044 920,3045 929,3045 930,3044 932,3044 933,3045 938,3045 939,3046 943,3046 944,3047 971,3047 972,3046 989,3046 990,3047 1001,3047 1002,3048 1018,3048 1019,3047 1022,3047 1023,3046 1025,3046 1026,3045 1028,3045 1029,3044 1032,3044 1033,3045 1048,3045 1049,3044 1055,3044 1056,3045 1068,3045 1069,3044 1073,3044 1074,3043 1085,3043 1086,3044 1091,3044 1092,3043 1104,3043 1105,3044 1116,3044 1117,3043 1121,3043 1122,3042 1126,3042 1127,3043 1131,3043 1132,3044 1138,3044 1139,3045 1149,3045 1150,3046 1162,3046 1163,3045 1166,3045 1167,3044 1171,3044 1172,3043 1173,3043 1174,3044 1182,3044 1183,3045 1195,3045 1196,3046 1210,3046 1211,3045 1213,3045 1214,3044 1216,3044 1217,3043 1224,3043 1225,3044 1234,3044 1235,3045 1243,3045 1244,3046 1249,3046 1250,3047 1259,3047 1260,3046 1264,3046 1265,3045 1274,3045 1275,3046 1280,3046 1281,3045 1305,3045 1306,3044 1310,3044 1311,3043 1326,3043 1327,3044 1346,3044 1347,3045 1352,3045 1353,3044 1369,3044 1370,3045 1395,3045 1396,3046 1397,3046 1398,3045 1404,3045 1405,3044 1447,3044 1448,3043 1451,3043 1452,3042 1464,3042 1465,3043 1474,3043 1475,3042 1488,3042 1489,3043 1494,3043 1495,3042 1500,3042 1501,3041 1511,3041 1512,3040 1524,3040 1525,3041 1531,3041 1532,3042 1536,3042 1537,3043 1543,3043 1544,3042 1546,3042 1547,3041 1549,3041 1550,3040 1552,3040 1553,3039 1554,3039 1555,3040 1557,3040 1558,3041 1561,3041 1562,3042 1568,3042 1569,3041 1580,3041 1581,3042 1583,3042 1584,3043 1590,3043 1591,3042 1592,3042 1593,3041 1595,3041 1596,3040 1597,3040 1598,3039 1603,3039 1604,3040 1607,3040 1608,3041 1618,3041 1619,3040 1626,3040 1627,3041 1630,3041 1631,3042 1639,3042 1640,3041 1642,3041 1643,3040 1645,3040 1646,3039 1650,3039 1651,3040 1655,3040 1656,3041 1678,3041 1679,3042 1685,3042 1686,3041 1689,3041 1690,3040 1692,3040 1693,3039 1699,3039 1700,3040 1708,3040 1709,3041 1722,3041 1723,3042 1726,3042 1727,3043 1748,3043 1749,3044 1763,3044 1764,3043 1769,3043 1770,3044 1781,3044 1782,3043 1786,3043 1787,3042 1796,3042 1797,3043 1816,3043 1817,3044 1822,3044 1823,3045 1828,3045 1829,3044 1834,3044 1835,3043 1857,3043 1858,3042 1865,3042 1866,3043 1878,3043 1879,3042 1892,3042 1893,3043 1900,3043 1901,3044 1917,3044 1918,3045 1922,3045 1923,3044 1927,3044 1928,3043 1934,3043 1935,3042 1948,3042 1949,3041 1953,3041 1954,3040 2000,3040 2001,3041 2007,3041 2008,3042 2013,3042 2014,3043 2022,3043 2023,3042 2031,3042 2032,3041 2037,3041 2038,3040 2092,3040 2093,3039 2109,3039 2110,3040 2124,3040 2125,3039 2130,3039 2131,3038 2191,3038 2192,3039 2197,3039 2198,3038 2211,3038 2212,3039 2217,3039 2218,3040 2221,3040 2222,3039 2239,3039 2240,3038 2260,3038 2261,3039 2287,3039 2288,3040 2292,3040 2293,3039 2307,3039 2308,3038 2313,3038 2314,3037 2315,3037 2315,3036 2316,3035 2316,3034 2317,3033 2317,3031 2318,3030 2318,3026 2319,3025 2319,3018 2320,3017 2320,3013 2321,3012 2321,3006 2322,3005 2322,3002 2321,3001 2321,2994 2320,2993 2320,2958 2321,2957 2321,2951 2322,2950 2322,2941 2321,2940 2321,2933 2320,2932 2320,2920 2319,2919 2319,2888 2320,2887 2320,2883 2319,2882 2319,2867 2318,2866 2318,2856 2319,2855 2319,2845 2320,2844 2320,2839 2321,2838 2321,2836 2320,2835 2320,2828 2319,2827 2319,2818 2318,2817 2318,2811 2319,2810 2319,2804 2320,2803 2320,2795 2319,2794 2319,2782 2318,2781 2318,2768 2317,2767 2318,2766 2318,2761 2319,2760 2319,2758 2320,2757 2320,2754 2321,2753 2321,2747 2320,2746 2320,2739 2319,2738 2319,2731 2318,2730 2318,2726 2317,2725 2317,2722 2316,2721 2316,2714 2317,2713 2317,2710 2318,2709 2318,2695 2317,2694 2317,2687 2316,2686 2316,2680 2315,2679 2315,2677 2314,2676 2314,2674 2313,2673 2313,2672 2311,2670 2310,2670 2309,2669 2308,2669 2307,2668 2305,2668 2304,2667 2297,2667 2296,2666 2285,2666 2284,2667 2258,2667 2257,2668 2212,2668 2211,2669 2200,2669 2199,2670 2176,2670 2175,2669 2170,2669 2169,2670 2162,2670 2161,2671 2155,2671 2154,2672 2150,2672 2149,2673 2143,2673 2142,2672 2136,2672 2135,2671 2133,2671 2132,2670 2129,2670 2128,2669 2125,2669 2124,2668 2110,2668 2109,2667 2090,2667 2089,2668 2074,2668 2073,2667 2070,2667 2069,2666 2060,2666 2059,2665 2022,2665 2021,2664 2007,2664 2006,2663" fill="rgba(116,99,103,0.3)" stroke="rgb(116,99,103)" stroke-width="2" data-block-id="0001" data-name="b-0006" /><text x="1503" y="2885" text-anchor="middle" dominant-baseline="middle" class="block-label" fill="rgb(116,99,103)" stroke="white" stroke-width="3" paint-order="stroke">b-0006</text><polygon points="1957,2184 1956,2185 1937,2185 1936,2186 1932,2186 1931,2185 1888,2185 1887,2186 1884,2186 1883,2185 1868,2185 1867,2186 1855,2186 1854,2185 1847,2185 1846,2186 1828,2186 1827,2185 1823,2185 1822,2186 1801,2186 1800,2187 1786,2187 1785,2186 1765,2186 1764,2187 1746,2187 1745,2188 1741,2188 1740,2187 1652,2187 1651,2188 1644,2188 1643,2187 1496,2187 1495,2186 1488,2186 1487,2187 1425,2187 1424,2186 1419,2186 1418,2187 1403,2187 1402,2186 1392,2186 1391,2187 1370,2187 1369,2188 1357,2188 1356,2187 1341,2187 1340,2188 1334,2188 1333,2187 1323,2187 1322,2188 1282,2188 1281,2187 1277,2187 1276,2188 1271,2188 1270,2189 1264,2189 1263,2188 1257,2188 1256,2187 1253,2187 1252,2188 1243,2188 1242,2189 1240,2189 1239,2188 1230,2188 1229,2189 1224,2189 1223,2190 1215,2190 1214,2189 1209,2189 1208,2188 1205,2188 1204,2189 1176,2189 1175,2190 1168,2190 1167,2189 1138,2189 1137,2188 1135,2188 1134,2189 1128,2189 1127,2190 1120,2190 1119,2189 1114,2189 1113,2188 1108,2188 1107,2189 1094,2189 1093,2188 1087,2188 1086,2189 1082,2189 1081,2190 1071,2190 1070,2189 1043,2189 1042,2188 1041,2189 1033,2189 1032,2190 1024,2190 1023,2189 1008,2189 1007,2190 998,2190 997,2189 992,2189 991,2190 984,2190 983,2191 980,2191 979,2190 974,2190 973,2189 961,2189 960,2190 952,2190 951,2189 944,2189 943,2190 938,2190 937,2191 929,2191 928,2190 893,2190 892,2191 877,2191 876,2190 867,2190 866,2191 859,2191 858,2192 856,2192 854,2194 853,2194 853,2195 851,2197 851,2198 850,2199 850,2200 849,2201 849,2202 846,2205 846,2206 844,2208 844,2210 843,2211 843,2214 842,2215 842,2229 843,2230 843,2231 844,2232 844,2233 846,2235 846,2236 847,2237 847,2238 848,2239 848,2269 849,2270 849,2283 848,2284 848,2296 849,2297 849,2320 850,2321 850,2328 849,2329 849,2334 848,2335 848,2344 849,2345 849,2351 848,2352 848,2370 849,2371 849,2374 848,2375 848,2382 847,2383 847,2388 848,2389 848,2399 849,2400 849,2405 850,2406 850,2414 851,2415 851,2425 850,2426 850,2450 849,2451 849,2460 850,2461 850,2472 849,2473 849,2495 850,2496 850,2500 851,2501 851,2517 850,2518 850,2523 849,2524 849,2526 848,2527 848,2529 847,2530 847,2531 846,2532 846,2533 841,2538 844,2541 846,2541 847,2542 848,2542 854,2548 854,2549 859,2554 860,2554 861,2555 872,2555 873,2556 875,2556 876,2555 888,2555 889,2556 898,2556 899,2557 916,2557 917,2558 931,2558 932,2557 934,2557 935,2558 939,2558 940,2559 943,2559 944,2560 945,2560 946,2559 949,2559 950,2558 952,2558 953,2557 964,2557 965,2558 976,2558 977,2559 985,2559 986,2560 988,2560 989,2561 990,2561 991,2562 993,2562 994,2563 996,2563 997,2564 1001,2564 1002,2565 1015,2565 1016,2564 1018,2564 1019,2563 1020,2563 1021,2562 1022,2562 1024,2560 1025,2560 1026,2559 1027,2559 1028,2558 1031,2558 1032,2559 1035,2559 1036,2560 1038,2560 1039,2561 1043,2561 1044,2560 1048,2560 1049,2559 1056,2559 1057,2560 1060,2560 1061,2561 1066,2561 1067,2560 1070,2560 1071,2559 1074,2559 1075,2558 1078,2558 1079,2559 1082,2559 1083,2560 1086,2560 1087,2561 1108,2561 1109,2560 1113,2560 1114,2559 1116,2559 1117,2558 1120,2558 1121,2557 1128,2557 1129,2558 1141,2558 1142,2557 1165,2557 1166,2556 1178,2556 1179,2557 1194,2557 1195,2558 1202,2558 1203,2559 1211,2559 1212,2558 1224,2558 1225,2559 1228,2559 1229,2560 1236,2560 1237,2559 1247,2559 1248,2560 1259,2560 1260,2559 1271,2559 1272,2560 1274,2560 1275,2561 1283,2561 1284,2560 1287,2560 1288,2559 1293,2559 1294,2560 1300,2560 1301,2561 1302,2561 1303,2560 1306,2560 1307,2559 1310,2559 1311,2558 1321,2558 1322,2559 1330,2559 1331,2560 1338,2560 1339,2561 1352,2561 1353,2560 1363,2560 1364,2561 1367,2561 1368,2562 1370,2562 1371,2563 1376,2563 1377,2562 1379,2562 1380,2561 1382,2561 1383,2560 1392,2560 1393,2561 1400,2561 1401,2560 1406,2560 1407,2559 1414,2559 1415,2560 1439,2560 1440,2559 1448,2559 1449,2558 1466,2558 1467,2559 1488,2559 1489,2560 1495,2560 1496,2559 1501,2559 1502,2558 1514,2558 1515,2559 1516,2558 1523,2558 1524,2557 1579,2557 1580,2558 1614,2558 1615,2559 1632,2559 1633,2560 1638,2560 1639,2559 1691,2559 1692,2558 1696,2558 1697,2559 1712,2559 1713,2558 1735,2558 1736,2557 1752,2557 1753,2558 1778,2558 1779,2557 1808,2557 1809,2558 1859,2558 1860,2557 1903,2557 1904,2558 1914,2558 1915,2557 1942,2557 1943,2558 1946,2558 1947,2557 1962,2557 1963,2556 1973,2556 1974,2557 1997,2557 1998,2558 2002,2558 2003,2559 2012,2559 2013,2560 2030,2560 2031,2559 2035,2559 2036,2558 2048,2558 2049,2559 2063,2559 2064,2560 2074,2560 2075,2561 2079,2561 2080,2562 2083,2562 2084,2563 2087,2563 2088,2564 2103,2564 2104,2563 2108,2563 2109,2562 2112,2562 2113,2561 2116,2561 2117,2560 2122,2560 2123,2559 2130,2559 2131,2558 2138,2558 2139,2559 2143,2559 2144,2560 2152,2560 2153,2561 2172,2561 2173,2560 2177,2560 2178,2559 2187,2559 2188,2558 2215,2558 2216,2559 2246,2559 2247,2558 2296,2558 2297,2557 2304,2557 2305,2558 2315,2558 2316,2557 2317,2557 2321,2553 2321,2552 2322,2551 2322,2546 2323,2545 2323,2532 2324,2531 2324,2528 2323,2527 2323,2524 2322,2523 2322,2520 2321,2519 2321,2506 2322,2505 2322,2504 2321,2503 2321,2497 2320,2496 2320,2471 2321,2470 2321,2465 2320,2464 2320,2445 2321,2444 2321,2432 2320,2431 2320,2424 2319,2423 2319,2419 2320,2418 2320,2416 2321,2415 2321,2413 2322,2412 2322,2404 2321,2403 2321,2393 2322,2392 2322,2390 2323,2389 2323,2388 2324,2387 2324,2385 2325,2384 2325,2383 2324,2382 2324,2380 2323,2379 2323,2375 2322,2374 2322,2367 2323,2366 2323,2362 2322,2361 2322,2359 2321,2358 2321,2355 2320,2354 2320,2350 2319,2349 2319,2322 2320,2321 2320,2309 2319,2308 2319,2254 2318,2253 2318,2252 2319,2251 2319,2238 2320,2237 2320,2214 2319,2213 2319,2205 2318,2204 2318,2194 2317,2193 2317,2190 2316,2189 2316,2188 2315,2187 2314,2187 2313,2186 2311,2186 2310,2185 2220,2185 2219,2186 2139,2186 2138,2185 2126,2185 2125,2186 2095,2186 2094,2185 2079,2185 2078,2186 2075,2186 2074,2185 2064,2185 2063,2184 2062,2184 2061,2185 2033,2185 2032,2186 2026,2186 2025,2185 1975,2185 1974,2184" fill="rgba(151,130,149,0.3)" stroke="rgb(151,130,149)" stroke-width="2" data-block-id="0002" data-name="b-0007" /><text x="1476" y="2404" text-anchor="middle" dominant-baseline="middle" class="block-label" fill="rgb(151,130,149)" stroke="white" stroke-width="3" paint-order="stroke">b-0007</text><polygon points="2181,1229 2180,1230 2108,1230 2107,1231 2051,1231 2050,1230 2031,1230 2030,1231 2021,1231 2020,1230 1998,1230 1997,1231 1947,1231 1946,1230 1942,1230 1941,1231 1911,1231 1910,1230 1891,1230 1890,1231 1808,1231 1807,1230 1788,1230 1787,1231 1765,1231 1764,1230 1748,1230 1747,1231 1730,1231 1729,1232 1728,1232 1727,1231 1684,1231 1683,1232 1669,1232 1668,1231 1652,1231 1651,1230 1646,1230 1645,1231 1634,1231 1633,1232 1620,1232 1619,1231 1614,1231 1613,1230 1605,1230 1604,1231 1583,1231 1582,1232 1571,1232 1570,1231 1553,1231 1552,1232 1521,1232 1520,1231 1493,1231 1492,1232 1476,1232 1475,1231 1469,1231 1468,1230 1467,1230 1466,1231 1436,1231 1435,1232 1405,1232 1404,1231 1378,1231 1377,1232 1340,1232 1339,1233 1322,1233 1321,1234 1305,1234 1304,1233 1297,1233 1296,1234 1287,1234 1286,1235 1281,1235 1280,1236 1262,1236 1261,1235 1238,1235 1237,1234 1228,1234 1227,1233 1211,1233 1210,1232 1195,1232 1194,1233 1172,1233 1171,1232 1153,1232 1152,1233 1140,1233 1139,1234 1120,1234 1119,1233 1091,1233 1090,1234 1068,1234 1067,1233 1050,1233 1049,1234 1042,1234 1041,1235 1023,1235 1022,1234 985,1234 984,1235 980,1235 979,1234 951,1234 950,1235 927,1235 926,1234 905,1234 904,1235 861,1235 860,1236 859,1236 857,1238 856,1238 856,1239 854,1241 854,1243 853,1244 853,1249 854,1250 854,1257 853,1258 853,1269 852,1270 852,1276 851,1277 851,1294 852,1295 852,1332 851,1333 851,1376 850,1377 850,1389 849,1390 849,1400 850,1401 850,1405 851,1406 851,1412 852,1413 852,1426 851,1427 851,1441 852,1442 852,1453 851,1454 851,1480 850,1481 850,1494 851,1495 851,1502 852,1503 852,1525 851,1526 851,1538 852,1539 852,1571 853,1572 853,1592 854,1593 854,1598 855,1599 855,1601 859,1605 860,1605 861,1606 866,1606 867,1607 903,1607 904,1608 915,1608 916,1609 919,1609 920,1610 928,1610 929,1609 938,1609 939,1608 947,1608 948,1607 954,1607 955,1606 962,1606 963,1607 977,1607 978,1606 985,1606 986,1607 1022,1607 1023,1606 1033,1606 1034,1605 1054,1605 1055,1606 1073,1606 1074,1605 1084,1605 1085,1606 1117,1606 1118,1605 1212,1605 1213,1604 1247,1604 1248,1605 1285,1605 1286,1604 1296,1604 1297,1605 1311,1605 1312,1604 1342,1604 1343,1605 1357,1605 1358,1604 1375,1604 1376,1605 1405,1605 1406,1604 1415,1604 1416,1605 1425,1605 1426,1604 1441,1604 1442,1605 1449,1605 1450,1604 1462,1604 1463,1605 1501,1605 1502,1604 1531,1604 1532,1605 1550,1605 1551,1604 1554,1604 1555,1605 1570,1605 1571,1604 1633,1604 1634,1605 1638,1605 1639,1604 1669,1604 1670,1603 1681,1603 1682,1604 1683,1603 1702,1603 1703,1604 1731,1604 1732,1605 1833,1605 1834,1604 1852,1604 1853,1605 1907,1605 1908,1604 2015,1604 2016,1603 2026,1603 2027,1602 2033,1602 2034,1603 2043,1603 2044,1602 2054,1602 2055,1601 2113,1601 2114,1602 2136,1602 2137,1603 2176,1603 2177,1602 2215,1602 2216,1603 2264,1603 2265,1602 2272,1602 2273,1603 2303,1603 2304,1602 2308,1602 2309,1601 2311,1601 2312,1600 2313,1600 2314,1599 2315,1599 2319,1595 2319,1594 2320,1593 2320,1591 2321,1590 2321,1583 2320,1582 2320,1571 2319,1570 2319,1514 2320,1513 2320,1477 2319,1476 2319,1472 2318,1471 2318,1461 2317,1460 2317,1455 2318,1454 2318,1435 2319,1434 2319,1415 2318,1414 2318,1407 2319,1406 2319,1390 2318,1389 2318,1376 2317,1375 2317,1360 2318,1359 2318,1356 2319,1355 2319,1351 2320,1350 2320,1337 2319,1336 2319,1328 2318,1327 2318,1314 2319,1313 2319,1308 2320,1307 2320,1297 2319,1296 2319,1269 2320,1268 2320,1256 2319,1255 2319,1250 2318,1249 2318,1244 2317,1243 2317,1241 2316,1240 2316,1239 2315,1238 2315,1237 2314,1236 2314,1235 2311,1232 2310,1232 2309,1231 2307,1231 2306,1230 2302,1230 2301,1229 2298,1229 2297,1230 2254,1230 2253,1229 2197,1229 2196,1230 2192,1230 2191,1229" fill="rgba(52,1,87,0.3)" stroke="rgb(52,1,87)" stroke-width="2" data-block-id="0003" data-name="b-0008" /><text x="1567" y="1404" text-anchor="middle" dominant-baseline="middle" class="block-label" fill="rgb(52,1,87)" stroke="white" stroke-width="3" paint-order="stroke">b-0008</text><polygon points="1658,266 1657,267 1651,267 1650,268 1625,268 1624,269 1623,269 1622,270 1620,270 1619,271 1616,271 1615,272 1575,272 1574,271 1563,271 1562,270 1559,270 1558,269 1556,269 1555,268 1549,268 1548,269 1547,269 1546,270 1542,270 1541,271 1525,271 1524,272 1508,272 1507,271 1501,271 1500,272 1485,272 1484,271 1481,271 1480,272 1474,272 1473,273 1439,273 1438,272 1431,272 1430,273 1402,273 1401,272 1383,272 1382,273 1375,273 1374,274 1369,274 1368,273 1333,273 1332,274 1316,274 1315,273 1281,273 1280,274 1275,274 1274,273 1247,273 1246,272 1242,272 1241,273 1234,273 1233,274 1207,274 1206,273 1177,273 1176,272 1171,272 1170,271 1164,271 1163,270 1153,270 1152,269 1148,269 1147,270 1145,270 1144,271 1143,271 1142,272 1140,272 1139,273 1135,273 1134,274 1091,274 1090,275 1087,275 1086,274 1050,274 1049,275 916,275 915,274 909,274 908,275 901,275 900,276 890,276 889,275 884,275 883,276 864,276 863,277 860,277 859,278 857,278 853,282 853,283 852,284 852,285 850,287 850,288 849,289 849,290 848,291 848,297 847,298 847,304 848,305 848,309 849,310 849,313 850,314 850,315 849,316 849,321 848,322 848,329 847,330 847,339 846,340 847,341 847,358 848,359 848,366 847,367 847,377 848,378 848,396 847,397 847,399 848,400 848,404 849,405 849,409 850,410 850,451 849,452 849,463 848,464 848,467 847,468 847,472 848,473 848,489 847,490 847,495 848,496 848,499 849,500 849,507 850,508 850,522 849,523 849,526 848,527 848,546 847,547 847,555 846,556 846,559 845,560 845,564 844,565 844,576 845,577 845,579 846,580 846,581 847,582 847,585 848,586 848,606 849,607 849,620 848,621 848,624 849,625 849,629 850,630 850,635 851,636 851,637 853,639 853,640 859,646 860,646 861,647 892,647 893,646 906,646 907,647 911,647 912,646 948,646 949,647 952,647 953,648 955,648 956,649 957,649 958,650 960,650 961,651 962,651 963,652 964,652 965,653 966,653 968,655 974,655 975,654 978,654 979,653 985,653 986,654 992,654 993,653 994,653 996,651 997,651 998,650 999,650 1000,649 1004,649 1005,648 1023,648 1024,647 1043,647 1044,648 1056,648 1057,649 1078,649 1079,648 1093,648 1094,647 1111,647 1112,646 1128,646 1129,647 1164,647 1165,646 1174,646 1175,645 1197,645 1198,646 1261,646 1262,647 1282,647 1283,646 1294,646 1295,645 1330,645 1331,644 1351,644 1352,643 1380,643 1381,644 1404,644 1405,643 1412,643 1413,644 1443,644 1444,643 1471,643 1472,644 1479,644 1480,645 1521,645 1522,646 1525,646 1526,647 1528,647 1529,648 1533,648 1534,649 1546,649 1547,648 1555,648 1556,647 1566,647 1567,646 1628,646 1629,647 1633,647 1634,648 1641,648 1642,649 1659,649 1660,648 1661,648 1662,647 1664,647 1665,646 1668,646 1669,645 1689,645 1690,644 1737,644 1738,643 1793,643 1794,642 1799,642 1800,641 1803,641 1804,640 1828,640 1829,641 1835,641 1836,642 1840,642 1841,641 1880,641 1881,642 1899,642 1900,641 1917,641 1918,642 1944,642 1945,641 1979,641 1980,642 1999,642 2000,643 2023,643 2024,642 2060,642 2061,641 2065,641 2066,642 2092,642 2093,643 2119,643 2120,644 2133,644 2134,643 2140,643 2141,644 2167,644 2168,643 2175,643 2176,642 2182,642 2183,641 2185,641 2186,642 2242,642 2243,641 2286,641 2287,642 2294,642 2295,641 2304,641 2305,640 2307,640 2308,639 2310,639 2311,638 2312,638 2313,637 2313,636 2315,634 2315,631 2316,630 2316,629 2317,628 2317,627 2318,626 2318,619 2317,618 2317,610 2316,609 2316,596 2315,595 2315,571 2316,570 2316,562 2317,561 2317,557 2318,556 2318,554 2319,553 2319,550 2320,549 2320,544 2321,543 2321,533 2322,532 2322,531 2321,530 2321,529 2320,528 2320,527 2318,525 2318,524 2317,523 2317,521 2316,520 2316,517 2315,516 2315,479 2316,478 2316,476 2317,475 2317,474 2318,473 2318,472 2319,471 2319,469 2320,468 2319,467 2319,464 2318,463 2318,460 2317,459 2317,457 2318,456 2318,453 2319,452 2319,450 2320,449 2320,443 2319,442 2319,441 2318,440 2318,439 2317,438 2317,436 2316,435 2316,432 2315,431 2315,403 2316,402 2316,395 2317,394 2317,388 2318,387 2318,386 2319,385 2319,384 2321,382 2321,381 2323,379 2323,378 2324,377 2324,372 2321,369 2321,368 2320,367 2320,366 2318,364 2318,363 2317,362 2317,361 2316,360 2316,357 2315,356 2315,352 2314,351 2314,337 2315,336 2315,334 2316,333 2316,331 2317,330 2317,308 2318,307 2318,303 2319,302 2319,294 2320,293 2319,292 2319,289 2318,288 2318,287 2317,286 2317,284 2316,283 2316,280 2315,279 2315,278 2311,274 2310,274 2309,273 2306,273 2305,272 2294,272 2293,271 2287,271 2286,272 2273,272 2272,271 2263,271 2262,272 2231,272 2230,271 2224,271 2223,270 2215,270 2214,271 2210,271 2209,272 2201,272 2200,271 2192,271 2191,272 2185,272 2184,273 2182,273 2181,272 2176,272 2175,271 2167,271 2166,272 2161,272 2160,273 2145,273 2144,274 2138,274 2137,275 2132,275 2131,274 2090,274 2089,275 2088,274 2080,274 2079,273 2068,273 2067,274 2021,274 2020,275 1995,275 1994,276 1993,276 1992,275 1984,275 1983,274 1937,274 1936,273 1925,273 1924,274 1918,274 1917,273 1907,273 1906,274 1843,274 1842,273 1779,273 1778,272 1758,272 1757,273 1749,273 1748,272 1721,272 1720,271 1719,272 1700,272 1699,271 1691,271 1690,272 1680,272 1679,271 1677,271 1676,270 1675,270 1674,269 1673,269 1672,268 1671,268 1670,267 1663,267 1662,266" fill="rgba(235,157,37,0.3)" stroke="rgb(235,157,37)" stroke-width="2" data-block-id="0004" data-name="b-0009" /><text x="1622" y="448" text-anchor="middle" dominant-baseline="middle" class="block-label" fill="rgb(235,157,37)" stroke="white" stroke-width="3" paint-order="stroke">b-0009</text><polygon points="2003,748 2002,749 1998,749 1997,750 1974,750 1973,749 1956,749 1955,750 1951,750 1950,751 1917,751 1916,750 1907,750 1906,751 1878,751 1877,750 1858,750 1857,751 1852,751 1851,752 1837,752 1836,751 1819,751 1818,750 1813,750 1812,751 1782,751 1781,750 1770,750 1769,751 1732,751 1731,750 1716,750 1715,751 1709,751 1708,752 1696,752 1695,751 1687,751 1686,750 1661,750 1660,751 1658,751 1657,750 1584,750 1583,749 1575,749 1574,750 1568,750 1567,751 1494,751 1493,750 1446,750 1445,749 1422,749 1421,750 1420,750 1419,749 1396,749 1395,750 1384,750 1383,751 1376,751 1375,752 1358,752 1357,751 1331,751 1330,752 1307,752 1306,751 1270,751 1269,752 1265,752 1264,751 1258,751 1257,750 1247,750 1246,751 1233,751 1232,752 1212,752 1211,751 1196,751 1195,752 1190,752 1189,753 1182,753 1181,754 1167,754 1166,753 1143,753 1142,752 1128,752 1127,753 1122,753 1121,752 1101,752 1100,753 1053,753 1052,754 1031,754 1030,755 1027,755 1026,754 993,754 992,755 985,755 984,756 979,756 978,755 975,755 974,754 938,754 937,755 932,755 931,754 923,754 922,753 919,753 918,754 905,754 904,755 899,755 898,756 890,756 889,757 878,757 877,756 875,756 874,757 869,757 868,758 863,758 862,759 860,759 856,763 856,764 855,765 855,767 854,768 854,771 853,772 853,776 852,777 852,781 853,782 853,785 854,786 854,802 853,803 853,823 854,824 854,851 855,852 854,853 854,864 855,865 855,894 856,895 856,901 855,902 855,937 856,938 856,947 855,948 855,962 856,963 856,977 855,978 855,987 856,988 856,994 855,995 855,1074 854,1075 854,1085 855,1086 855,1114 856,1115 856,1116 858,1118 858,1119 859,1119 861,1121 875,1121 876,1122 886,1122 887,1123 948,1123 949,1124 967,1124 968,1123 975,1123 976,1122 1002,1122 1003,1121 1019,1121 1020,1122 1081,1122 1082,1123 1102,1123 1103,1122 1109,1122 1110,1121 1176,1121 1177,1122 1212,1122 1213,1121 1240,1121 1241,1120 1303,1120 1304,1119 1316,1119 1317,1120 1335,1120 1336,1119 1340,1119 1341,1120 1369,1120 1370,1121 1393,1121 1394,1122 1399,1122 1400,1121 1415,1121 1416,1122 1425,1122 1426,1121 1432,1121 1433,1120 1508,1120 1509,1121 1520,1121 1521,1122 1538,1122 1539,1123 1542,1123 1543,1122 1570,1122 1571,1121 1592,1121 1593,1120 1606,1120 1607,1121 1630,1121 1631,1122 1638,1122 1639,1121 1774,1121 1775,1122 1782,1122 1783,1121 1792,1121 1793,1122 1799,1122 1800,1123 1808,1123 1809,1122 1948,1122 1949,1121 1956,1121 1957,1120 2124,1120 2125,1119 2168,1119 2169,1118 2173,1118 2174,1119 2210,1119 2211,1120 2245,1120 2246,1119 2258,1119 2259,1120 2303,1120 2304,1119 2309,1119 2310,1118 2312,1118 2313,1117 2314,1117 2317,1114 2317,1113 2318,1112 2318,1108 2319,1107 2319,1093 2318,1092 2318,1082 2317,1081 2317,1049 2318,1048 2318,1045 2319,1044 2319,1041 2320,1040 2320,1029 2319,1028 2319,1020 2318,1019 2318,1009 2319,1008 2319,1007 2318,1006 2318,997 2317,996 2317,986 2316,985 2316,979 2317,978 2317,973 2318,972 2318,941 2317,940 2317,935 2316,934 2316,920 2317,919 2317,912 2318,911 2318,906 2319,905 2319,892 2318,891 2318,884 2317,883 2317,866 2316,865 2316,830 2317,829 2317,824 2316,823 2316,801 2317,800 2317,785 2318,784 2318,776 2317,775 2317,769 2316,768 2316,759 2315,758 2315,755 2314,754 2314,753 2313,753 2312,752 2310,752 2309,751 2301,751 2300,750 2294,750 2293,749 2267,749 2266,750 2168,750 2167,749 2140,749 2139,750 2120,750 2119,749 2114,749 2113,748 2098,748 2097,749 2090,749 2089,750 2079,750 2078,749 2044,749 2043,750 2034,750 2033,749 2016,749 2015,748" fill="rgba(129,191,187,0.3)" stroke="rgb(129,191,187)" stroke-width="2" data-block-id="0005" data-name="b-0010" /><text x="1578" y="900" text-anchor="middle" dominant-baseline="middle" class="block-label" fill="rgb(129,191,187)" stroke="white" stroke-width="3" paint-order="stroke">b-0010</text><polygon points="2282,1708 2281,1709 2230,1709 2229,1710 2228,1709 2211,1709 2210,1710 2204,1710 2203,1709 2190,1709 2189,1710 2154,1710 2153,1709 2143,1709 2142,1710 2056,1710 2055,1709 2048,1709 2047,1710 2034,1710 2033,1709 1924,1709 1923,1710 1918,1710 1917,1709 1904,1709 1903,1710 1736,1710 1735,1711 1725,1711 1724,1710 1686,1710 1685,1711 1674,1711 1673,1710 1669,1710 1668,1711 1556,1711 1555,1710 1553,1710 1552,1711 1457,1711 1456,1712 1441,1712 1440,1711 1430,1711 1429,1710 1404,1710 1403,1711 1381,1711 1380,1710 1366,1710 1365,1711 1315,1711 1314,1712 1311,1712 1310,1711 1299,1711 1298,1712 1228,1712 1227,1713 1213,1713 1212,1712 1196,1712 1195,1713 1167,1713 1166,1712 1141,1712 1140,1713 1130,1713 1129,1712 1121,1712 1120,1713 1068,1713 1067,1712 1039,1712 1038,1711 1029,1711 1028,1710 1017,1710 1016,1711 1012,1711 1011,1712 1008,1712 1007,1713 944,1713 943,1712 939,1712 938,1711 933,1711 932,1710 926,1710 925,1709 919,1709 918,1710 915,1710 914,1711 910,1711 909,1712 903,1712 902,1713 895,1713 894,1714 879,1714 878,1713 870,1713 869,1714 861,1714 860,1715 859,1715 858,1716 857,1716 854,1719 854,1747 853,1748 853,1750 852,1751 852,1752 851,1753 851,1755 850,1756 851,1757 851,1759 852,1760 852,1764 853,1765 853,1769 852,1770 852,1784 853,1785 853,1788 854,1789 854,1794 853,1795 853,1799 852,1800 852,1821 851,1822 851,1828 852,1829 852,1836 853,1837 853,1838 852,1839 852,1844 851,1845 851,1849 850,1850 850,1875 849,1876 849,1907 850,1908 850,1920 851,1921 851,1927 852,1928 852,1944 851,1945 851,1952 850,1953 850,1976 851,1977 851,1989 852,1990 852,2024 851,2025 851,2040 850,2041 850,2068 851,2069 851,2073 852,2074 852,2076 854,2078 855,2078 856,2079 857,2079 858,2080 861,2080 862,2081 905,2081 906,2082 946,2082 947,2081 985,2081 986,2080 996,2080 997,2081 1002,2081 1003,2082 1034,2082 1035,2081 1081,2081 1082,2080 1107,2080 1108,2079 1136,2079 1137,2080 1193,2080 1194,2079 1228,2079 1229,2080 1260,2080 1261,2079 1303,2079 1304,2078 1324,2078 1325,2079 1334,2079 1335,2078 1354,2078 1355,2079 1358,2079 1359,2080 1361,2080 1362,2081 1380,2081 1381,2082 1395,2082 1396,2081 1400,2081 1401,2080 1404,2080 1405,2079 1409,2079 1410,2078 1412,2078 1413,2079 1446,2079 1447,2078 1455,2078 1456,2077 1460,2077 1461,2078 1480,2078 1481,2077 1578,2077 1579,2076 1626,2076 1627,2075 1640,2075 1641,2076 1665,2076 1666,2077 1698,2077 1699,2076 1716,2076 1717,2075 1739,2075 1740,2076 1745,2076 1746,2075 1761,2075 1762,2076 1771,2076 1772,2075 1817,2075 1818,2074 1873,2074 1874,2073 1875,2073 1876,2074 1892,2074 1893,2073 2011,2073 2012,2072 2023,2072 2024,2073 2031,2073 2032,2072 2248,2072 2249,2071 2260,2071 2261,2072 2271,2072 2272,2071 2285,2071 2286,2072 2293,2072 2294,2071 2304,2071 2305,2070 2308,2070 2309,2069 2311,2069 2312,2068 2313,2068 2314,2067 2315,2067 2316,2066 2316,2065 2317,2064 2317,2061 2318,2060 2318,2044 2317,2043 2317,2025 2318,2024 2318,1973 2319,1972 2319,1919 2318,1918 2318,1878 2319,1877 2319,1862 2318,1861 2318,1826 2319,1825 2318,1824 2318,1722 2317,1721 2317,1717 2316,1716 2316,1715 2312,1711 2311,1711 2310,1710 2306,1710 2305,1709 2300,1709 2299,1708" fill="rgba(20,160,203,0.3)" stroke="rgb(20,160,203)" stroke-width="2" data-block-id="0006" data-name="b-0011" /><text x="1447" y="1888" text-anchor="middle" dominant-baseline="middle" class="block-label" fill="rgb(20,160,203)" stroke="white" stroke-width="3" paint-order="stroke">b-0011</text><polygon points="3485,2647 3484,2648 3433,2648 3432,2649 3405,2649 3404,2648 3393,2648 3392,2649 3387,2649 3386,2650 3371,2650 3370,2649 3344,2649 3343,2650 3333,2650 3332,2651 3320,2651 3319,2650 3282,2650 3281,2651 3273,2651 3272,2650 3248,2650 3247,2651 3225,2651 3224,2650 3213,2650 3212,2651 3200,2651 3199,2652 3185,2652 3184,2653 3182,2653 3181,2652 3166,2652 3165,2653 3160,2653 3159,2654 3154,2654 3153,2653 3093,2653 3092,2654 3069,2654 3068,2655 3044,2655 3043,2656 3032,2656 3031,2655 3025,2655 3024,2656 3018,2656 3017,2657 2993,2657 2992,2658 2991,2657 2951,2657 2950,2658 2941,2658 2940,2657 2928,2657 2927,2658 2904,2658 2903,2659 2882,2659 2881,2660 2871,2660 2870,2661 2852,2661 2851,2662 2844,2662 2843,2661 2832,2661 2831,2662 2825,2662 2824,2663 2795,2663 2794,2662 2790,2662 2789,2661 2785,2661 2784,2662 2728,2662 2727,2663 2703,2663 2702,2662 2695,2662 2694,2661 2690,2661 2689,2662 2673,2662 2672,2661 2662,2661 2661,2660 2645,2660 2644,2659 2643,2660 2601,2660 2600,2659 2595,2659 2594,2660 2568,2660 2567,2661 2558,2661 2557,2662 2550,2662 2549,2663 2531,2663 2530,2662 2525,2662 2524,2663 2516,2663 2515,2664 2512,2664 2511,2665 2510,2665 2509,2666 2508,2666 2505,2669 2505,2670 2504,2671 2504,2702 2505,2703 2505,2735 2504,2736 2504,2753 2505,2754 2505,2769 2506,2770 2506,2781 2505,2782 2505,2841 2506,2842 2506,2890 2505,2891 2505,2904 2506,2905 2506,2958 2507,2959 2507,3012 2506,3013 2506,3015 2507,3016 2507,3020 2508,3021 2508,3024 2509,3025 2509,3026 2510,3027 2510,3028 2511,3029 2511,3030 2512,3031 2513,3031 2514,3032 2517,3032 2518,3033 2529,3033 2530,3032 2534,3032 2535,3031 2546,3031 2547,3032 2552,3032 2553,3031 2561,3031 2562,3030 2564,3030 2565,3031 2578,3031 2579,3030 2583,3030 2584,3029 2623,3029 2624,3030 2637,3030 2638,3031 2641,3031 2642,3032 2643,3032 2644,3033 2645,3033 2646,3034 2647,3034 2648,3035 2650,3035 2651,3036 2652,3036 2653,3037 2658,3037 2659,3038 2660,3037 2668,3037 2669,3036 2671,3036 2672,3035 2673,3035 2675,3033 2676,3033 2680,3029 2681,3029 2682,3028 2686,3028 2687,3029 2692,3029 2694,3031 2695,3031 2698,3034 2699,3034 2700,3035 2701,3035 2702,3036 2716,3036 2717,3035 2719,3035 2720,3034 2722,3034 2723,3033 2726,3033 2727,3032 2758,3032 2759,3033 2769,3033 2770,3032 2782,3032 2783,3033 2787,3033 2788,3034 2792,3034 2793,3035 2798,3035 2799,3036 2800,3035 2804,3035 2805,3034 2808,3034 2809,3033 2812,3033 2813,3032 2816,3032 2817,3031 2821,3031 2822,3030 2834,3030 2835,3031 2863,3031 2864,3030 2888,3030 2889,3031 2902,3031 2903,3030 2909,3030 2910,3029 2913,3029 2914,3028 2919,3028 2920,3027 2944,3027 2945,3026 2961,3026 2962,3027 2971,3027 2972,3026 2989,3026 2990,3025 3001,3025 3002,3024 3017,3024 3018,3023 3039,3023 3040,3022 3098,3022 3099,3021 3159,3021 3160,3020 3182,3020 3183,3019 3187,3019 3188,3018 3192,3018 3193,3017 3196,3017 3197,3018 3206,3018 3207,3019 3302,3019 3303,3018 3318,3018 3319,3019 3332,3019 3333,3018 3343,3018 3344,3019 3405,3019 3406,3018 3407,3019 3480,3019 3481,3020 3508,3020 3509,3021 3517,3021 3518,3020 3526,3020 3527,3019 3528,3019 3529,3020 3543,3020 3544,3019 3627,3019 3628,3018 3647,3018 3648,3019 3671,3019 3672,3018 3677,3018 3678,3017 3682,3017 3683,3016 3684,3016 3685,3015 3686,3015 3687,3014 3687,3012 3688,3011 3688,3007 3689,3006 3689,3003 3688,3002 3688,2999 3687,2998 3687,2996 3686,2995 3686,2993 3685,2992 3685,2989 3684,2988 3684,2986 3683,2985 3683,2983 3682,2982 3682,2980 3681,2979 3681,2977 3680,2976 3680,2974 3679,2973 3679,2971 3678,2970 3678,2966 3677,2965 3677,2961 3676,2960 3676,2957 3675,2956 3675,2952 3674,2951 3674,2947 3673,2946 3673,2940 3672,2939 3672,2933 3671,2932 3671,2929 3670,2928 3670,2926 3669,2925 3669,2923 3668,2922 3668,2920 3667,2919 3667,2914 3666,2913 3666,2910 3665,2909 3665,2906 3664,2905 3664,2903 3663,2902 3663,2899 3662,2898 3662,2896 3661,2895 3661,2892 3660,2891 3660,2889 3659,2888 3659,2884 3658,2883 3658,2877 3657,2876 3657,2871 3656,2870 3656,2866 3655,2865 3655,2861 3654,2860 3654,2858 3653,2857 3653,2855 3652,2854 3652,2851 3651,2850 3651,2846 3650,2845 3650,2840 3649,2839 3649,2835 3648,2834 3648,2831 3647,2830 3647,2827 3646,2826 3646,2822 3645,2821 3645,2817 3644,2816 3644,2811 3643,2810 3643,2807 3642,2806 3642,2803 3641,2802 3641,2800 3640,2799 3640,2797 3639,2796 3639,2793 3638,2792 3638,2790 3637,2789 3637,2786 3636,2785 3636,2783 3635,2782 3635,2779 3634,2778 3634,2775 3633,2774 3633,2771 3632,2770 3632,2767 3631,2766 3631,2763 3630,2762 3630,2757 3629,2756 3629,2752 3628,2751 3628,2748 3627,2747 3627,2744 3626,2743 3626,2741 3625,2740 3625,2738 3624,2737 3624,2736 3623,2735 3623,2733 3622,2732 3622,2730 3621,2729 3621,2727 3620,2726 3620,2722 3619,2721 3619,2716 3618,2715 3618,2712 3617,2711 3617,2709 3616,2708 3616,2705 3615,2704 3615,2701 3614,2700 3614,2697 3613,2696 3613,2693 3612,2692 3612,2689 3611,2688 3611,2684 3610,2683 3610,2680 3609,2679 3609,2677 3608,2676 3608,2673 3607,2672 3607,2670 3606,2669 3606,2668 3605,2667 3605,2666 3604,2665 3604,2664 3603,2663 3603,2661 3602,2660 3602,2658 3601,2657 3601,2655 3600,2654 3600,2653 3599,2652 3599,2651 3596,2648 3591,2648 3590,2647 3529,2647 3528,2648 3517,2648 3516,2647 3508,2647 3507,2648 3502,2648 3501,2647" fill="rgba(57,21,252,0.3)" stroke="rgb(57,21,252)" stroke-width="2" data-block-id="0007" data-name="b-0012" /><text x="3180" y="2853" text-anchor="middle" dominant-baseline="middle" class="block-label" fill="rgb(57,21,252)" stroke="white" stroke-width="3" paint-order="stroke">b-0012</text><polygon points="3211,2169 3210,2170 3201,2170 3200,2171 3185,2171 3184,2170 3181,2170 3180,2171 3177,2171 3176,2172 3173,2172 3172,2173 3156,2173 3155,2174 3148,2174 3147,2175 3127,2175 3126,2176 3088,2176 3087,2175 3084,2175 3083,2176 3069,2176 3068,2175 3058,2175 3057,2176 2997,2176 2996,2177 2952,2177 2951,2178 2923,2178 2922,2177 2917,2177 2916,2178 2905,2178 2904,2177 2889,2177 2888,2178 2860,2178 2859,2177 2835,2177 2834,2176 2820,2176 2819,2175 2813,2175 2812,2176 2795,2176 2794,2177 2779,2177 2778,2176 2773,2176 2772,2177 2737,2177 2736,2178 2652,2178 2651,2179 2639,2179 2638,2178 2631,2178 2630,2179 2577,2179 2576,2178 2575,2178 2574,2179 2554,2179 2553,2178 2516,2178 2515,2179 2512,2179 2511,2180 2508,2180 2507,2181 2505,2181 2503,2183 2503,2184 2502,2185 2502,2187 2501,2188 2501,2191 2500,2192 2500,2195 2499,2196 2499,2202 2498,2203 2498,2211 2499,2212 2499,2217 2500,2218 2500,2229 2501,2230 2501,2237 2502,2238 2502,2248 2503,2249 2503,2305 2502,2306 2502,2341 2503,2342 2503,2380 2502,2381 2502,2386 2503,2387 2503,2431 2504,2432 2504,2489 2505,2490 2505,2491 2504,2492 2504,2533 2505,2534 2505,2544 2506,2545 2506,2548 2507,2549 2507,2550 2509,2552 2510,2552 2511,2553 2512,2553 2513,2554 2532,2554 2533,2553 2565,2553 2566,2552 2579,2552 2580,2551 2594,2551 2595,2552 2609,2552 2610,2551 2611,2551 2612,2552 2643,2552 2644,2551 2649,2551 2650,2552 2670,2552 2671,2551 2677,2551 2678,2550 2727,2550 2728,2549 2745,2549 2746,2550 2763,2550 2764,2549 2778,2549 2779,2548 2785,2548 2786,2547 2818,2547 2819,2546 2840,2546 2841,2545 2863,2545 2864,2544 2886,2544 2887,2545 2894,2545 2895,2546 2902,2546 2903,2545 2924,2545 2925,2544 2933,2544 2934,2545 2940,2545 2941,2546 2966,2546 2967,2545 2979,2545 2980,2544 2981,2545 2996,2545 2997,2544 3023,2544 3024,2543 3029,2543 3030,2544 3046,2544 3047,2543 3071,2543 3072,2542 3106,2542 3107,2541 3148,2541 3149,2540 3249,2540 3250,2539 3271,2539 3272,2538 3296,2538 3297,2537 3299,2537 3300,2538 3309,2538 3310,2539 3314,2539 3315,2538 3337,2538 3338,2537 3380,2537 3381,2536 3384,2536 3385,2537 3389,2537 3390,2538 3408,2538 3409,2537 3459,2537 3460,2536 3480,2536 3481,2535 3486,2535 3487,2534 3509,2534 3510,2533 3558,2533 3559,2532 3567,2532 3568,2531 3572,2531 3573,2530 3574,2530 3576,2528 3576,2527 3577,2526 3577,2517 3576,2516 3576,2504 3575,2503 3575,2495 3574,2494 3574,2487 3573,2486 3573,2478 3572,2477 3572,2471 3571,2470 3571,2466 3570,2465 3570,2462 3569,2461 3569,2456 3568,2455 3568,2443 3567,2442 3567,2438 3566,2437 3566,2434 3565,2433 3565,2422 3564,2421 3564,2416 3563,2415 3563,2411 3562,2410 3562,2405 3561,2404 3561,2398 3560,2397 3560,2394 3559,2393 3559,2389 3558,2388 3558,2383 3557,2382 3557,2374 3556,2373 3556,2369 3555,2368 3555,2365 3554,2364 3554,2360 3553,2359 3553,2347 3552,2346 3552,2341 3551,2340 3551,2323 3550,2322 3550,2317 3549,2316 3549,2309 3548,2308 3548,2301 3547,2300 3547,2297 3546,2296 3546,2293 3545,2292 3545,2286 3544,2285 3544,2278 3543,2277 3543,2275 3542,2274 3542,2271 3541,2270 3541,2267 3540,2266 3540,2255 3539,2254 3539,2247 3538,2246 3538,2233 3537,2232 3537,2225 3536,2224 3536,2218 3535,2217 3535,2204 3534,2203 3534,2190 3533,2189 3533,2182 3532,2181 3532,2178 3531,2177 3531,2176 3530,2175 3530,2174 3528,2172 3527,2172 3526,2171 3518,2171 3517,2170 3482,2170 3481,2169 3447,2169 3446,2170 3434,2170 3433,2169 3414,2169 3413,2170 3374,2170 3373,2169 3371,2169 3370,2170 3362,2170 3361,2171 3355,2171 3354,2170 3340,2170 3339,2171 3333,2171 3332,2170 3319,2170 3318,2171 3300,2171 3299,2170 3298,2171 3281,2171 3280,2170 3274,2170 3273,2171 3267,2171 3266,2172 3257,2172 3256,2171 3248,2171 3247,2172 3229,2172 3228,2171 3223,2171 3222,2170 3219,2170 3218,2169" fill="rgba(235,88,48,0.3)" stroke="rgb(235,88,48)" stroke-width="2" data-block-id="0008" data-name="b-0013" /><text x="3114" y="2348" text-anchor="middle" dominant-baseline="middle" class="block-label" fill="rgb(235,88,48)" stroke="white" stroke-width="3" paint-order="stroke">b-0013</text><polygon points="3465,1695 3464,1696 3457,1696 3456,1697 3439,1697 3438,1698 3425,1698 3424,1697 3413,1697 3412,1698 3380,1698 3379,1697 3365,1697 3364,1698 3354,1698 3353,1697 3326,1697 3325,1698 3315,1698 3314,1697 3309,1697 3308,1698 3292,1698 3291,1697 3277,1697 3276,1698 3271,1698 3270,1699 3230,1699 3229,1698 3222,1698 3221,1699 3217,1699 3216,1698 3201,1698 3200,1699 3106,1699 3105,1700 3079,1700 3078,1699 3003,1699 3002,1700 2966,1700 2965,1701 2962,1701 2961,1702 2960,1702 2959,1703 2958,1703 2957,1704 2955,1704 2954,1705 2952,1705 2951,1704 2949,1704 2948,1703 2945,1703 2944,1702 2939,1702 2938,1701 2917,1701 2916,1702 2911,1702 2910,1703 2895,1703 2894,1702 2886,1702 2885,1701 2877,1701 2876,1700 2870,1700 2869,1701 2866,1701 2865,1702 2863,1702 2862,1703 2860,1703 2859,1702 2858,1702 2857,1701 2856,1701 2854,1699 2853,1699 2852,1698 2850,1698 2849,1697 2844,1697 2843,1698 2837,1698 2836,1699 2803,1699 2802,1700 2801,1700 2800,1699 2777,1699 2776,1700 2773,1700 2772,1701 2771,1701 2770,1702 2769,1702 2768,1703 2767,1703 2766,1704 2765,1704 2764,1705 2736,1705 2735,1706 2718,1706 2717,1705 2706,1705 2705,1704 2697,1704 2696,1703 2621,1703 2620,1704 2601,1704 2600,1703 2598,1703 2597,1704 2567,1704 2566,1705 2558,1705 2557,1704 2543,1704 2542,1705 2513,1705 2512,1706 2507,1706 2506,1707 2505,1707 2503,1709 2503,1713 2502,1714 2502,1804 2503,1805 2503,1862 2504,1863 2504,1883 2503,1884 2503,1888 2504,1889 2504,1903 2503,1904 2503,1942 2504,1943 2504,1947 2503,1948 2503,1959 2504,1960 2504,1969 2503,1970 2503,1973 2502,1974 2502,1975 2501,1976 2501,1977 2499,1979 2499,1980 2498,1981 2498,1982 2497,1983 2497,1998 2498,1999 2498,2010 2497,2011 2497,2017 2496,2018 2496,2026 2495,2027 2495,2045 2494,2046 2494,2055 2495,2056 2495,2062 2496,2063 2496,2064 2498,2066 2500,2066 2501,2067 2512,2067 2513,2068 2522,2068 2523,2067 2555,2067 2556,2068 2566,2068 2567,2067 2581,2067 2582,2066 2588,2066 2589,2067 2592,2067 2593,2068 2596,2068 2597,2069 2602,2069 2603,2070 2609,2070 2610,2071 2625,2071 2626,2070 2630,2070 2631,2069 2640,2069 2641,2070 2652,2070 2653,2069 2687,2069 2688,2070 2699,2070 2700,2069 2713,2069 2714,2068 2718,2068 2719,2067 2722,2067 2723,2066 2750,2066 2751,2065 2809,2065 2810,2064 2843,2064 2844,2065 2852,2065 2853,2064 2859,2064 2860,2065 2866,2065 2867,2066 2875,2066 2876,2067 2891,2067 2892,2066 2930,2066 2931,2065 2946,2065 2947,2064 2988,2064 2989,2063 2997,2063 2998,2062 3004,2062 3005,2063 3008,2063 3009,2064 3013,2064 3014,2065 3025,2065 3026,2064 3031,2064 3032,2063 3036,2063 3037,2062 3050,2062 3051,2061 3099,2061 3100,2060 3118,2060 3119,2059 3123,2059 3124,2060 3261,2060 3262,2059 3263,2059 3264,2060 3282,2060 3283,2059 3286,2059 3287,2058 3297,2058 3298,2059 3299,2059 3300,2058 3303,2058 3304,2057 3306,2057 3307,2056 3308,2056 3309,2055 3314,2055 3315,2056 3316,2056 3317,2057 3319,2057 3320,2058 3322,2058 3323,2059 3411,2059 3412,2058 3499,2058 3500,2057 3505,2057 3506,2056 3509,2056 3510,2055 3512,2055 3513,2054 3514,2054 3514,2053 3515,2052 3515,2045 3516,2044 3516,2040 3515,2039 3515,2033 3514,2032 3514,2025 3515,2024 3515,2014 3514,2013 3514,2011 3513,2010 3513,2008 3512,2007 3512,2003 3513,2002 3513,2000 3514,1999 3514,1997 3515,1996 3515,1989 3514,1988 3514,1982 3513,1981 3513,1977 3514,1976 3514,1968 3513,1967 3513,1960 3512,1959 3512,1955 3513,1954 3513,1941 3512,1940 3512,1923 3511,1922 3511,1914 3510,1913 3510,1887 3509,1886 3509,1861 3508,1860 3508,1846 3507,1845 3507,1843 3506,1842 3506,1839 3505,1838 3505,1818 3504,1817 3504,1794 3503,1793 3503,1790 3504,1789 3504,1785 3505,1784 3505,1758 3506,1757 3506,1752 3505,1751 3505,1709 3504,1708 3504,1704 3503,1703 3503,1701 3500,1698 3499,1698 3498,1697 3495,1697 3494,1696 3487,1696 3486,1695" fill="rgba(218,58,254,0.3)" stroke="rgb(218,58,254)" stroke-width="2" data-block-id="0009" data-name="b-0014" /><text x="3011" y="1888" text-anchor="middle" dominant-baseline="middle" class="block-label" fill="rgb(218,58,254)" stroke="white" stroke-width="3" paint-order="stroke">b-0014</text><polygon points="2615,1227 2614,1228 2595,1228 2594,1229 2576,1229 2575,1228 2573,1228 2572,1229 2563,1229 2562,1230 2559,1230 2558,1231 2556,1231 2555,1232 2553,1232 2552,1233 2544,1233 2543,1234 2535,1234 2534,1233 2523,1233 2522,1234 2519,1234 2518,1235 2511,1235 2510,1234 2508,1234 2507,1233 2506,1233 2505,1232 2503,1232 2502,1233 2502,1258 2501,1259 2501,1285 2502,1286 2502,1300 2503,1301 2503,1304 2502,1305 2502,1328 2503,1329 2503,1336 2504,1337 2504,1356 2503,1357 2503,1390 2504,1391 2504,1403 2503,1404 2503,1434 2504,1435 2504,1502 2503,1503 2503,1530 2504,1531 2504,1550 2503,1551 2503,1562 2504,1563 2504,1572 2505,1573 2505,1589 2509,1593 2510,1593 2511,1594 2512,1594 2513,1595 2515,1595 2516,1596 2553,1596 2554,1597 2580,1597 2581,1598 2616,1598 2617,1597 2623,1597 2624,1598 2631,1598 2632,1599 2646,1599 2647,1598 2653,1598 2654,1597 2674,1597 2675,1596 2692,1596 2693,1597 2719,1597 2720,1596 2726,1596 2727,1595 2732,1595 2733,1596 2744,1596 2745,1597 2796,1597 2797,1596 2836,1596 2837,1597 2838,1596 2864,1596 2865,1595 2915,1595 2916,1594 3012,1594 3013,1593 3053,1593 3054,1592 3057,1592 3058,1591 3067,1591 3068,1592 3083,1592 3084,1591 3092,1591 3093,1592 3115,1592 3116,1591 3144,1591 3145,1590 3190,1590 3191,1589 3259,1589 3260,1588 3268,1588 3269,1589 3280,1589 3281,1588 3284,1588 3285,1587 3295,1587 3296,1588 3302,1588 3303,1587 3307,1587 3309,1585 3314,1585 3315,1586 3316,1586 3317,1587 3321,1587 3322,1588 3326,1588 3327,1587 3351,1587 3352,1586 3357,1586 3358,1585 3361,1585 3362,1586 3367,1586 3368,1587 3375,1587 3376,1586 3414,1586 3415,1587 3424,1587 3425,1586 3478,1586 3479,1585 3484,1585 3485,1584 3487,1584 3488,1583 3489,1583 3490,1582 3491,1582 3492,1581 3492,1580 3494,1578 3494,1563 3493,1562 3493,1537 3492,1536 3492,1526 3491,1525 3491,1517 3490,1516 3490,1486 3489,1485 3489,1472 3488,1471 3488,1443 3487,1442 3487,1430 3486,1429 3486,1417 3485,1416 3485,1402 3486,1401 3486,1395 3485,1394 3485,1382 3484,1381 3484,1350 3483,1349 3483,1343 3482,1342 3482,1295 3481,1294 3481,1266 3480,1265 3480,1247 3479,1246 3479,1235 3478,1234 3478,1232 3476,1230 3475,1230 3474,1229 3472,1229 3471,1228 3467,1228 3466,1227 3451,1227 3450,1228 3416,1228 3415,1227 3406,1227 3405,1228 3292,1228 3291,1229 3023,1229 3022,1228 2998,1228 2997,1229 2994,1229 2993,1230 2965,1230 2964,1229 2915,1229 2914,1228 2885,1228 2884,1229 2866,1229 2865,1228 2853,1228 2852,1229 2838,1229 2837,1230 2829,1230 2828,1229 2802,1229 2801,1230 2771,1230 2770,1229 2733,1229 2732,1230 2729,1230 2728,1229 2722,1229 2721,1228 2697,1228 2696,1229 2662,1229 2661,1228 2640,1228 2639,1229 2631,1229 2630,1228 2626,1228 2625,1227" fill="rgba(169,219,187,0.3)" stroke="rgb(169,219,187)" stroke-width="2" data-block-id="0010" data-name="b-0015" /><text x="2971" y="1423" text-anchor="middle" dominant-baseline="middle" class="block-label" fill="rgb(169,219,187)" stroke="white" stroke-width="3" paint-order="stroke">b-0015</text><polygon points="3229,749 3228,750 3177,750 3176,751 3172,751 3171,752 3164,752 3163,751 3155,751 3154,752 3148,752 3147,753 3142,753 3141,752 3130,752 3129,753 3125,753 3124,754 3115,754 3114,753 3107,753 3106,754 3091,754 3090,753 3076,753 3075,754 3074,754 3073,753 3065,753 3064,752 3062,752 3061,753 3058,753 3057,754 3054,754 3053,755 3046,755 3045,754 3030,754 3029,755 3023,755 3022,754 3005,754 3004,755 2999,755 2998,754 2986,754 2985,755 2975,755 2974,754 2969,754 2968,753 2965,753 2964,754 2932,754 2931,753 2921,753 2920,752 2918,752 2917,753 2910,753 2909,754 2905,754 2904,753 2887,753 2886,754 2876,754 2875,753 2870,753 2869,754 2828,754 2827,753 2819,753 2818,754 2786,754 2785,753 2771,753 2770,752 2743,752 2742,753 2740,753 2739,752 2708,752 2707,751 2678,751 2677,750 2652,750 2651,751 2603,751 2602,752 2591,752 2590,751 2579,751 2578,752 2571,752 2570,751 2518,751 2517,750 2515,750 2514,751 2510,751 2509,752 2508,752 2507,753 2505,753 2503,755 2502,755 2501,756 2501,757 2500,758 2500,759 2498,761 2498,762 2497,763 2497,764 2496,765 2496,766 2495,767 2495,769 2494,770 2494,778 2495,779 2495,781 2496,782 2496,784 2497,785 2497,789 2498,790 2498,793 2499,794 2499,798 2500,799 2500,812 2499,813 2499,817 2500,818 2500,854 2501,855 2501,931 2502,932 2502,936 2501,937 2501,1090 2502,1091 2502,1097 2503,1098 2503,1105 2504,1106 2504,1111 2508,1115 2509,1115 2510,1116 2511,1116 2512,1117 2517,1117 2518,1118 2534,1118 2535,1117 2544,1117 2545,1118 2574,1118 2575,1119 2617,1119 2618,1118 2629,1118 2630,1117 2636,1117 2637,1118 2643,1118 2644,1119 2663,1119 2664,1118 2706,1118 2707,1117 2713,1117 2714,1116 2742,1116 2743,1117 2780,1117 2781,1116 2785,1116 2786,1115 2796,1115 2797,1114 2805,1114 2806,1115 2813,1115 2814,1116 2816,1116 2817,1117 2819,1117 2820,1118 2832,1118 2833,1117 2856,1117 2857,1116 2866,1116 2867,1115 2883,1115 2884,1116 2903,1116 2904,1115 2910,1115 2911,1116 2925,1116 2926,1115 2947,1115 2948,1114 2992,1114 2993,1113 3005,1113 3006,1114 3011,1114 3012,1115 3020,1115 3021,1114 3034,1114 3035,1113 3045,1113 3046,1112 3055,1112 3056,1113 3070,1113 3071,1112 3075,1112 3076,1113 3083,1113 3084,1114 3088,1114 3089,1113 3102,1113 3103,1114 3117,1114 3118,1113 3123,1113 3124,1114 3128,1114 3129,1115 3147,1115 3148,1116 3171,1116 3172,1115 3197,1115 3198,1116 3207,1116 3208,1115 3226,1115 3227,1114 3245,1114 3246,1115 3260,1115 3261,1114 3272,1114 3273,1113 3280,1113 3281,1114 3307,1114 3308,1113 3343,1113 3344,1112 3392,1112 3393,1113 3399,1113 3400,1112 3457,1112 3458,1111 3461,1111 3462,1110 3463,1110 3464,1109 3465,1109 3468,1106 3468,1105 3469,1104 3469,1103 3470,1102 3470,1095 3469,1094 3469,1091 3468,1090 3468,1088 3467,1087 3467,1081 3466,1080 3466,1054 3467,1053 3467,1046 3468,1045 3468,1037 3467,1036 3467,1031 3466,1030 3466,1026 3467,1025 3467,1013 3466,1012 3466,991 3465,990 3465,986 3464,985 3464,976 3463,975 3463,946 3462,945 3462,943 3463,942 3463,927 3462,926 3462,919 3461,918 3461,915 3460,914 3460,906 3461,905 3461,892 3460,891 3460,877 3459,876 3459,844 3458,843 3458,819 3457,818 3457,785 3458,784 3458,775 3457,774 3457,771 3456,770 3456,768 3455,767 3455,766 3454,765 3454,764 3453,763 3453,762 3452,761 3452,760 3450,758 3450,757 3446,753 3445,753 3444,752 3432,752 3431,751 3413,751 3412,752 3377,752 3376,751 3366,751 3365,752 3356,752 3355,751 3327,751 3326,750 3304,750 3303,749 3297,749 3296,750 3257,750 3256,749 3247,749 3246,750 3231,750 3230,749" fill="rgba(207,14,189,0.3)" stroke="rgb(207,14,189)" stroke-width="2" data-block-id="0011" data-name="b-0016" /><text x="3012" y="919" text-anchor="middle" dominant-baseline="middle" class="block-label" fill="rgb(207,14,189)" stroke="white" stroke-width="3" paint-order="stroke">b-0016</text><polygon points="2846,266 2845,267 2795,267 2794,268 2770,268 2769,269 2758,269 2757,268 2751,268 2750,269 2744,269 2743,270 2736,270 2735,269 2722,269 2721,270 2713,270 2712,269 2694,269 2693,270 2688,270 2687,271 2684,271 2683,272 2675,272 2674,271 2666,271 2665,272 2664,272 2663,273 2662,273 2661,274 2660,274 2659,275 2656,275 2654,273 2653,273 2651,271 2650,271 2649,270 2648,270 2647,269 2646,269 2645,270 2644,270 2643,271 2642,271 2640,273 2639,273 2638,274 2636,274 2635,275 2633,275 2632,274 2629,274 2628,273 2616,273 2615,274 2609,274 2608,275 2572,275 2571,276 2556,276 2555,275 2530,275 2529,274 2511,274 2510,275 2504,275 2503,276 2502,276 2499,279 2499,280 2498,281 2498,287 2497,288 2497,295 2498,296 2498,315 2497,316 2497,317 2498,318 2498,344 2499,345 2499,368 2500,369 2500,401 2499,402 2499,461 2498,462 2498,492 2499,493 2499,512 2500,513 2500,545 2499,546 2499,563 2500,564 2500,635 2501,636 2501,638 2505,642 2506,642 2507,643 2509,643 2510,644 2515,644 2516,645 2520,645 2521,644 2558,644 2559,645 2571,645 2572,644 2596,644 2597,643 2641,643 2642,642 2692,642 2693,641 2770,641 2771,642 2790,642 2791,643 2797,643 2798,644 2799,644 2800,643 2804,643 2805,642 2810,642 2811,641 2853,641 2854,640 2950,640 2951,639 2959,639 2960,640 3023,640 3024,641 3058,641 3059,642 3077,642 3078,641 3094,641 3095,640 3120,640 3121,641 3177,641 3178,640 3186,640 3187,639 3189,639 3190,638 3192,638 3193,637 3194,637 3196,635 3197,635 3197,634 3198,633 3198,631 3199,630 3199,627 3200,626 3200,621 3201,620 3201,616 3202,615 3202,609 3201,608 3201,603 3200,602 3200,601 3201,600 3201,597 3202,596 3202,594 3206,590 3207,590 3212,595 3212,596 3213,597 3213,599 3214,600 3214,603 3215,604 3215,605 3216,606 3216,613 3217,614 3217,626 3218,627 3218,630 3219,631 3219,635 3221,637 3221,638 3222,638 3223,639 3224,639 3225,640 3226,640 3227,641 3245,641 3246,642 3264,642 3265,641 3294,641 3295,642 3307,642 3308,641 3315,641 3316,642 3330,642 3331,641 3342,641 3343,642 3353,642 3354,641 3368,641 3369,642 3372,642 3373,641 3430,641 3431,640 3433,640 3434,639 3435,639 3436,638 3437,638 3438,637 3438,636 3439,635 3439,633 3440,632 3440,626 3441,625 3441,623 3440,622 3440,606 3439,605 3439,598 3438,597 3438,588 3437,587 3437,577 3436,576 3436,572 3435,571 3435,567 3434,566 3434,550 3433,549 3433,543 3432,542 3432,525 3431,524 3431,517 3430,516 3430,494 3429,493 3429,488 3428,487 3428,482 3427,481 3427,470 3426,469 3426,463 3425,462 3425,455 3426,454 3426,450 3427,449 3427,441 3426,440 3426,431 3425,430 3425,421 3424,420 3424,412 3423,411 3423,394 3422,393 3422,388 3421,387 3421,383 3420,382 3420,378 3419,377 3419,363 3418,362 3418,358 3417,357 3417,353 3416,352 3416,344 3417,343 3417,336 3416,335 3416,316 3415,315 3415,285 3414,284 3414,281 3413,280 3413,279 3410,276 3409,276 3408,275 3407,275 3406,274 3403,274 3402,273 3397,273 3396,272 3387,272 3386,273 3384,273 3383,272 3352,272 3351,271 3306,271 3305,270 3273,270 3272,271 3245,271 3244,272 3238,272 3237,271 3220,271 3219,272 3215,272 3214,271 3208,271 3207,270 3183,270 3182,269 3152,269 3151,270 3136,270 3135,269 3132,269 3131,270 3072,270 3071,269 3055,269 3054,270 3045,270 3044,269 3035,269 3034,270 3016,270 3015,269 2982,269 2981,268 2945,268 2944,267 2943,268 2919,268 2918,267 2916,267 2915,268 2905,268 2904,267 2886,267 2885,268 2882,268 2881,267 2853,267 2852,266" fill="rgba(189,174,189,0.3)" stroke="rgb(189,174,189)" stroke-width="2" data-block-id="0012" data-name="b-0017" /><text x="3035" y="450" text-anchor="middle" dominant-baseline="middle" class="block-label" fill="rgb(189,174,189)" stroke="white" stroke-width="3" paint-order="stroke">b-0017</text><polygon points="3908,268 3907,269 3858,269 3857,270 3805,270 3804,271 3781,271 3780,272 3752,272 3751,273 3712,273 3711,274 3699,274 3698,273 3688,273 3687,274 3665,274 3664,275 3647,275 3646,276 3602,276 3601,275 3595,275 3594,276 3589,276 3588,277 3587,277 3586,278 3586,280 3585,281 3586,282 3586,307 3587,308 3587,312 3588,313 3588,317 3589,318 3589,323 3590,324 3590,333 3591,334 3591,342 3592,343 3592,347 3593,348 3593,354 3594,355 3594,363 3595,364 3595,370 3596,371 3596,383 3597,384 3597,391 3598,392 3598,399 3599,400 3599,408 3600,409 3600,415 3601,416 3601,422 3602,423 3602,433 3603,434 3603,440 3604,441 3604,446 3605,447 3605,451 3606,452 3606,457 3607,458 3607,466 3608,467 3608,476 3609,477 3609,484 3610,485 3610,494 3611,495 3611,502 3612,503 3612,513 3613,514 3613,523 3614,524 3614,531 3615,532 3615,542 3616,543 3616,549 3617,550 3617,557 3618,558 3618,567 3619,568 3619,579 3620,580 3620,588 3621,589 3621,598 3622,599 3622,605 3623,606 3623,612 3624,613 3624,618 3625,619 3625,622 3626,623 3626,631 3627,632 3627,636 3628,637 3628,638 3630,640 3631,640 3632,641 3655,641 3656,642 3658,642 3659,641 3677,641 3678,640 3690,640 3691,639 3696,639 3697,640 3711,640 3712,639 3746,639 3747,638 3757,638 3758,639 3795,639 3796,638 3933,638 3934,637 3938,637 3939,636 3941,636 3942,635 3942,633 3943,632 3943,628 3944,627 3944,611 3943,610 3943,589 3942,588 3942,520 3941,519 3942,518 3942,472 3941,471 3941,461 3940,460 3940,432 3939,431 3939,407 3938,406 3938,377 3937,376 3937,336 3936,335 3936,304 3935,303 3935,291 3934,290 3934,275 3933,274 3933,272 3930,269 3925,269 3924,268" fill="rgba(130,228,50,0.3)" stroke="rgb(130,228,50)" stroke-width="2" data-block-id="0013" data-name="b-0020" /><text x="3706" y="455" text-anchor="middle" dominant-baseline="middle" class="block-label" fill="rgb(130,228,50)" stroke="white" stroke-width="3" paint-order="stroke">b-0020</text><polygon points="3929,746 3928,747 3825,747 3824,748 3820,748 3819,747 3809,747 3808,748 3710,748 3709,749 3643,749 3642,750 3640,750 3639,751 3638,751 3636,753 3636,754 3635,755 3635,762 3636,763 3636,772 3635,773 3635,783 3636,784 3636,803 3635,804 3636,805 3636,821 3637,822 3637,831 3636,832 3636,844 3637,845 3637,859 3638,860 3638,885 3639,886 3639,896 3640,897 3640,964 3639,965 3639,973 3640,974 3640,983 3641,984 3641,1000 3642,1001 3642,1023 3641,1024 3641,1032 3642,1033 3642,1050 3641,1051 3641,1066 3640,1067 3640,1074 3639,1075 3639,1101 3640,1102 3640,1103 3641,1104 3641,1105 3643,1107 3643,1108 3644,1108 3645,1109 3646,1109 3647,1110 3733,1110 3734,1109 3804,1109 3805,1108 3813,1108 3814,1109 3845,1109 3846,1108 3865,1108 3866,1109 3875,1109 3876,1108 3917,1108 3918,1107 3933,1107 3934,1106 3936,1106 3937,1105 3938,1105 3939,1104 3940,1104 3941,1103 3941,1102 3942,1101 3942,1018 3941,1017 3941,949 3942,948 3942,942 3941,941 3941,931 3942,930 3942,916 3943,915 3943,909 3942,908 3942,884 3941,883 3941,835 3940,834 3940,830 3939,829 3939,826 3938,825 3938,824 3939,823 3939,806 3940,805 3940,798 3939,797 3939,785 3940,784 3940,776 3939,775 3939,753 3938,752 3938,751 3935,748 3934,748 3933,747 3930,747" fill="rgba(166,17,131,0.3)" stroke="rgb(166,17,131)" stroke-width="2" data-block-id="0014" data-name="b-0022" /><text x="3783" y="923" text-anchor="middle" dominant-baseline="middle" class="block-label" fill="rgb(166,17,131)" stroke="white" stroke-width="3" paint-order="stroke">b-0022</text><polygon points="3667,1224 3666,1225 3662,1225 3661,1226 3660,1226 3658,1228 3658,1230 3657,1231 3657,1248 3656,1249 3656,1276 3655,1277 3655,1280 3656,1281 3656,1294 3657,1295 3657,1297 3658,1298 3658,1300 3659,1301 3659,1302 3660,1303 3660,1304 3661,1305 3661,1315 3662,1316 3662,1322 3663,1323 3663,1342 3664,1343 3664,1365 3665,1366 3665,1380 3666,1381 3666,1402 3667,1403 3667,1422 3668,1423 3668,1430 3669,1431 3669,1449 3670,1450 3670,1472 3671,1473 3671,1497 3672,1498 3672,1515 3673,1516 3673,1523 3674,1524 3674,1532 3675,1533 3675,1546 3676,1547 3676,1566 3677,1567 3677,1578 3678,1579 3678,1580 3679,1581 3679,1582 3680,1583 3681,1583 3682,1584 3705,1584 3706,1583 3707,1584 3717,1584 3718,1583 3806,1583 3807,1582 3905,1582 3906,1581 3909,1581 3910,1582 3929,1582 3930,1581 3940,1581 3941,1580 3943,1580 3946,1577 3946,1486 3945,1485 3945,1475 3946,1474 3946,1467 3945,1466 3945,1368 3944,1367 3944,1354 3945,1353 3945,1349 3944,1348 3944,1322 3945,1321 3945,1312 3946,1311 3946,1289 3945,1288 3945,1251 3946,1250 3946,1237 3947,1236 3947,1230 3946,1229 3946,1228 3944,1226 3944,1225 3943,1225 3942,1224 3838,1224 3837,1225 3834,1225 3833,1224 3695,1224 3694,1225 3679,1225 3678,1224" fill="rgba(88,59,13,0.3)" stroke="rgb(88,59,13)" stroke-width="2" data-block-id="0015" data-name="b-0023" /><text x="3767" y="1392" text-anchor="middle" dominant-baseline="middle" class="block-label" fill="rgb(88,59,13)" stroke="white" stroke-width="3" paint-order="stroke">b-0023</text><polygon points="3904,1693 3903,1694 3849,1694 3848,1695 3799,1695 3798,1696 3776,1696 3775,1695 3768,1695 3767,1694 3758,1694 3757,1695 3748,1695 3747,1694 3691,1694 3690,1695 3688,1695 3684,1699 3684,1700 3683,1701 3683,1705 3682,1706 3682,1709 3683,1710 3683,1716 3684,1717 3684,1732 3685,1733 3685,1739 3686,1740 3686,1751 3687,1752 3687,1782 3688,1783 3688,1800 3689,1801 3689,1812 3688,1813 3689,1814 3689,1822 3690,1823 3690,1843 3691,1844 3691,1853 3692,1854 3692,1879 3693,1880 3693,1897 3694,1898 3694,1952 3695,1953 3695,1962 3694,1963 3694,1972 3695,1973 3695,1995 3696,1996 3696,2007 3697,2008 3697,2014 3698,2015 3698,2026 3699,2027 3699,2039 3700,2040 3700,2044 3701,2045 3701,2048 3702,2049 3702,2050 3704,2052 3707,2052 3708,2053 3773,2053 3774,2052 3777,2052 3778,2053 3879,2053 3880,2054 3896,2054 3897,2053 3909,2053 3910,2054 3939,2054 3940,2053 3946,2053 3947,2052 3949,2052 3951,2050 3951,2049 3952,2048 3952,2029 3951,2028 3951,2017 3950,2016 3950,1967 3949,1966 3949,1821 3950,1820 3950,1808 3949,1807 3949,1785 3950,1784 3950,1775 3949,1774 3949,1769 3948,1768 3948,1760 3949,1759 3949,1733 3950,1732 3950,1708 3949,1707 3949,1703 3948,1702 3948,1699 3947,1698 3947,1697 3946,1696 3945,1696 3944,1695 3943,1695 3942,1694 3909,1694 3908,1693" fill="rgba(241,249,8,0.3)" stroke="rgb(241,249,8)" stroke-width="2" data-block-id="0016" data-name="b-0024" /><text x="3801" y="1854" text-anchor="middle" dominant-baseline="middle" class="block-label" fill="rgb(241,249,8)" stroke="white" stroke-width="3" paint-order="stroke">b-0024</text><polygon points="3935,2164 3934,2165 3899,2165 3898,2166 3891,2166 3890,2165 3828,2165 3827,2166 3819,2166 3818,2165 3801,2165 3800,2166 3779,2166 3778,2167 3771,2167 3770,2166 3759,2166 3758,2167 3747,2167 3746,2166 3731,2166 3730,2167 3715,2167 3713,2169 3713,2170 3712,2171 3712,2183 3713,2184 3713,2194 3714,2195 3714,2201 3715,2202 3715,2206 3716,2207 3716,2212 3717,2213 3717,2220 3718,2221 3718,2228 3719,2229 3719,2235 3720,2236 3720,2242 3721,2243 3721,2249 3722,2250 3722,2255 3723,2256 3723,2260 3724,2261 3724,2267 3725,2268 3725,2279 3726,2280 3726,2284 3727,2285 3727,2289 3728,2290 3728,2296 3729,2297 3729,2305 3730,2306 3730,2312 3731,2313 3731,2318 3732,2319 3732,2322 3733,2323 3733,2329 3734,2330 3734,2343 3735,2344 3735,2349 3736,2350 3736,2353 3737,2354 3737,2358 3738,2359 3738,2366 3739,2367 3739,2372 3740,2373 3740,2377 3741,2378 3741,2385 3742,2386 3742,2389 3743,2390 3743,2393 3744,2394 3744,2399 3745,2400 3745,2405 3746,2406 3746,2412 3747,2413 3747,2419 3748,2420 3748,2426 3749,2427 3749,2433 3750,2434 3750,2443 3751,2444 3751,2451 3752,2452 3752,2459 3753,2460 3753,2467 3754,2468 3754,2474 3755,2475 3755,2481 3756,2482 3756,2488 3757,2489 3757,2495 3758,2496 3758,2502 3759,2503 3759,2508 3760,2509 3760,2514 3761,2515 3761,2520 3762,2521 3762,2525 3763,2526 3763,2527 3766,2530 3769,2530 3770,2531 3781,2531 3782,2532 3797,2532 3798,2531 3802,2531 3803,2532 3816,2532 3817,2531 3920,2531 3921,2530 3945,2530 3946,2529 3951,2529 3952,2528 3953,2528 3955,2526 3955,2525 3956,2524 3956,2521 3957,2520 3957,2514 3958,2513 3958,2501 3957,2500 3957,2472 3956,2471 3956,2446 3955,2445 3955,2442 3956,2441 3956,2427 3955,2426 3955,2406 3954,2405 3954,2371 3953,2370 3953,2331 3952,2330 3952,2318 3953,2317 3953,2309 3952,2308 3952,2295 3951,2294 3951,2287 3952,2286 3952,2233 3953,2232 3953,2216 3952,2215 3952,2172 3951,2171 3951,2169 3950,2168 3950,2167 3949,2166 3948,2166 3947,2165 3946,2165 3945,2164" fill="rgba(187,198,171,0.3)" stroke="rgb(187,198,171)" stroke-width="2" data-block-id="0017" data-name="b-0027" /><text x="3806" y="2345" text-anchor="middle" dominant-baseline="middle" class="block-label" fill="rgb(187,198,171)" stroke="white" stroke-width="3" paint-order="stroke">b-0027</text><polygon points="3924,2644 3923,2645 3872,2645 3871,2646 3814,2646 3813,2647 3798,2647 3797,2648 3796,2648 3794,2650 3794,2652 3793,2653 3793,2661 3794,2662 3794,2665 3795,2666 3795,2668 3796,2669 3796,2673 3797,2674 3797,2678 3798,2679 3798,2684 3799,2685 3799,2687 3800,2688 3800,2690 3801,2691 3801,2695 3802,2696 3802,2700 3803,2701 3803,2706 3804,2707 3804,2710 3805,2711 3805,2714 3806,2715 3806,2718 3807,2719 3807,2722 3808,2723 3808,2725 3809,2726 3809,2729 3810,2730 3810,2734 3811,2735 3811,2737 3812,2738 3812,2741 3813,2742 3813,2746 3814,2747 3814,2752 3815,2753 3815,2755 3816,2756 3816,2758 3817,2759 3817,2762 3818,2763 3818,2765 3819,2766 3819,2770 3820,2771 3820,2774 3821,2775 3821,2778 3822,2779 3822,2782 3823,2783 3823,2785 3824,2786 3824,2789 3825,2790 3825,2794 3826,2795 3826,2799 3827,2800 3827,2803 3828,2804 3828,2806 3829,2807 3829,2810 3830,2811 3830,2813 3831,2814 3831,2816 3832,2817 3832,2820 3833,2821 3833,2824 3834,2825 3834,2831 3835,2832 3835,2837 3836,2838 3836,2841 3837,2842 3837,2845 3838,2846 3838,2849 3839,2850 3839,2852 3840,2853 3840,2855 3841,2856 3841,2858 3842,2859 3842,2862 3843,2863 3843,2867 3844,2868 3844,2870 3845,2871 3845,2873 3846,2874 3846,2876 3847,2877 3847,2884 3848,2885 3848,2888 3849,2889 3849,2892 3850,2893 3850,2897 3851,2898 3851,2902 3852,2903 3852,2907 3853,2908 3853,2911 3854,2912 3854,2915 3855,2916 3855,2919 3856,2920 3856,2922 3857,2923 3857,2927 3858,2928 3858,2932 3859,2933 3859,2936 3860,2937 3860,2941 3861,2942 3861,2945 3862,2946 3862,2949 3863,2950 3863,2954 3864,2955 3864,2958 3865,2959 3865,2962 3866,2963 3866,2965 3867,2966 3867,2968 3868,2969 3868,2973 3869,2974 3869,2977 3870,2978 3870,2982 3871,2983 3871,2988 3872,2989 3872,2994 3873,2995 3873,2998 3874,2999 3874,3001 3875,3002 3875,3003 3877,3005 3877,3006 3881,3010 3883,3010 3884,3011 3955,3011 3956,3010 3958,3010 3959,3009 3960,3009 3963,3006 3963,3005 3964,3004 3964,3001 3965,3000 3965,2984 3964,2983 3964,2975 3965,2974 3965,2962 3964,2961 3964,2903 3963,2902 3963,2877 3962,2876 3962,2872 3961,2871 3962,2870 3962,2854 3963,2853 3963,2838 3962,2837 3962,2813 3963,2812 3963,2789 3962,2788 3962,2750 3961,2749 3961,2737 3960,2736 3960,2663 3959,2662 3959,2656 3958,2655 3958,2653 3957,2652 3957,2651 3956,2650 3956,2649 3953,2646 3950,2646 3949,2645 3937,2645 3936,2644" fill="rgba(133,53,105,0.3)" stroke="rgb(133,53,105)" stroke-width="2" data-block-id="0018" data-name="b-0032" /><text x="3861" y="2825" text-anchor="middle" dominant-baseline="middle" class="block-label" fill="rgb(133,53,105)" stroke="white" stroke-width="3" paint-order="stroke">b-0032</text></g>
</svg>