<?xml version='1.0' encoding='utf-8'?>
<svg xmlns="http://www.w3.org/2000/svg" xmlns:atlas="http://example.com/atlas" width="4984" height="3232" viewBox="0 0 4984 3232">
  
  <metadata>
    <atlas:source>
      <atlas:jp2-path>/Users/pwright/workspace/atlas/media/v2/p21.jp2</atlas:jp2-path>
      <atlas:volume>unknown</atlas:volume>
      <atlas:plate-id>p21</atlas:plate-id>
      <atlas:image-width>4984</atlas:image-width>
      <atlas:image-height>3232</atlas:image-height>
    <atlas:angle>0</atlas:angle><atlas:scale>1.3881418749260725</atlas:scale><atlas:pos-x>1894.7312828609954</atlas:pos-x><atlas:pos-y>1830.0572037815632</atlas:pos-y></atlas:source>
  </metadata>

  
  <image id="background" href="file:///Users/pwright/workspace/atlas/media/v2/p21.jp2" width="4984" height="3232" opacity="0.5" />

  <style>
    .block-label { font-family: sans-serif; font-size: 14px; font-weight: bold; }
  </style>

  
  <g id="blocks">
    <polygon points="2780,558 2779,559 2774,559 2773,560 2767,560 2766,561 2753,561 2752,562 2749,562 2748,563 2745,563 2744,564 2742,564 2741,565 2740,565 2739,566 2738,566 2737,567 2736,567 2735,568 2734,568 2732,570 2702,570 2701,571 2661,571 2660,572 2653,572 2652,573 2648,573 2647,574 2646,574 2643,577 2643,583 2642,584 2642,592 2641,593 2641,600 2640,601 2640,617 2639,618 2639,636 2640,637 2640,651 2639,652 2639,663 2638,664 2638,678 2637,679 2637,688 2638,689 2638,697 2637,698 2637,709 2636,710 2636,734 2635,735 2635,760 2636,761 2636,776 2635,777 2635,779 2636,780 2636,816 2635,817 2635,827 2636,828 2636,840 2637,841 2637,901 2638,902 2638,903 2639,904 2639,905 2640,906 2640,907 2641,908 2641,919 2642,920 2642,921 2643,922 2644,922 2645,923 2646,923 2647,924 2648,924 2649,925 2651,925 2652,926 2653,926 2654,927 2657,927 2658,928 2679,928 2680,929 2717,929 2718,928 2727,928 2728,927 2734,927 2735,928 2751,928 2752,927 2776,927 2777,926 2786,926 2787,927 2789,927 2790,926 2800,926 2801,925 2802,926 2811,926 2812,927 2851,927 2852,926 2894,926 2895,925 2898,925 2899,926 2904,926 2905,927 2929,927 2930,926 2938,926 2939,927 2958,927 2959,926 2963,926 2964,925 2970,925 2971,924 2976,924 2977,923 2989,923 2990,924 3059,924 3060,925 3084,925 3085,924 3105,924 3106,925 3138,925 3139,924 3147,924 3148,925 3171,925 3172,926 3190,926 3191,925 3199,925 3200,926 3210,926 3211,925 3228,925 3229,926 3263,926 3264,925 3273,925 3274,926 3286,926 3287,925 3289,925 3290,926 3317,926 3318,927 3330,927 3331,926 3403,926 3404,925 3429,925 3430,924 3436,924 3437,925 3475,925 3476,924 3484,924 3485,925 3514,925 3515,926 3536,926 3537,925 3583,925 3584,926 3608,926 3609,925 3622,925 3623,926 3629,926 3630,927 3644,927 3645,926 3660,926 3661,925 3677,925 3678,926 3714,926 3715,927 3745,927 3746,926 3753,926 3754,925 3771,925 3772,926 3782,926 3783,925 3796,925 3797,924 3809,924 3810,925 3822,925 3823,926 3827,926 3828,925 3842,925 3843,926 3856,926 3857,925 3860,925 3861,926 3868,926 3869,927 3877,927 3878,926 3940,926 3941,925 3961,925 3962,926 3971,926 3972,927 3985,927 3986,926 3994,926 3995,925 4012,925 4013,926 4017,926 4018,927 4022,927 4023,928 4030,928 4031,927 4036,927 4037,926 4044,926 4045,925 4059,925 4060,926 4066,926 4067,927 4091,927 4092,926 4132,926 4133,925 4172,925 4173,926 4181,926 4182,925 4203,925 4204,926 4232,926 4233,925 4250,925 4251,926 4265,926 4266,925 4267,925 4268,924 4269,924 4270,923 4271,923 4272,922 4273,922 4273,921 4275,919 4275,917 4276,916 4276,910 4277,909 4277,906 4278,905 4278,903 4279,902 4279,900 4280,899 4280,896 4281,895 4281,894 4280,893 4280,880 4281,879 4281,876 4282,875 4282,872 4283,871 4283,867 4284,866 4284,859 4283,858 4283,857 4282,856 4282,855 4281,854 4281,853 4280,852 4280,850 4279,849 4279,847 4278,846 4278,844 4277,843 4277,841 4276,840 4276,835 4277,834 4277,833 4278,832 4278,831 4280,829 4280,828 4281,827 4281,821 4280,820 4280,817 4279,816 4279,814 4278,813 4278,811 4277,810 4277,805 4276,804 4276,801 4275,800 4275,798 4274,797 4274,795 4273,794 4273,792 4272,791 4272,790 4273,789 4273,787 4274,786 4274,785 4275,784 4275,783 4277,781 4277,780 4278,779 4278,773 4277,772 4277,769 4276,768 4276,764 4275,763 4275,758 4274,757 4274,736 4275,735 4275,729 4276,728 4276,727 4277,726 4277,725 4278,724 4279,724 4283,720 4284,720 4284,716 4283,716 4280,713 4279,713 4277,711 4277,710 4275,708 4275,706 4274,705 4274,696 4275,695 4275,686 4276,685 4276,680 4277,679 4277,674 4278,673 4278,669 4277,668 4277,664 4276,663 4276,659 4275,658 4275,653 4274,652 4274,643 4273,642 4273,620 4274,619 4274,606 4273,605 4273,595 4272,594 4272,585 4273,584 4273,575 4272,574 4272,573 4268,569 4267,569 4266,568 4255,568 4254,569 4232,569 4231,570 4227,570 4226,569 4184,569 4183,570 4135,570 4134,569 4118,569 4117,570 4102,570 4101,569 4079,569 4078,570 4054,570 4053,569 4045,569 4044,570 4032,570 4031,571 4023,571 4022,570 4016,570 4015,569 4010,569 4009,568 4005,568 4004,567 3998,567 3997,568 3988,568 3987,567 3979,567 3978,566 3977,566 3976,567 3958,567 3957,566 3914,566 3913,565 3863,565 3862,564 3861,564 3860,565 3830,565 3829,564 3823,564 3822,565 3781,565 3780,564 3775,564 3774,565 3768,565 3767,566 3764,566 3763,565 3756,565 3755,564 3746,564 3745,565 3732,565 3731,566 3724,566 3723,565 3716,565 3715,566 3589,566 3588,565 3580,565 3579,566 3574,566 3573,565 3518,565 3517,566 3515,566 3514,565 3499,565 3498,566 3486,566 3485,565 3471,565 3470,566 3469,566 3468,565 3464,565 3463,564 3460,564 3459,563 3446,563 3445,564 3424,564 3423,565 3422,565 3421,564 3414,564 3413,563 3388,563 3387,562 3381,562 3380,563 3368,563 3367,562 3339,562 3338,561 3336,561 3335,562 3319,562 3318,561 3297,561 3296,560 3286,560 3285,561 3251,561 3250,562 3234,562 3233,563 3222,563 3221,564 3215,564 3214,563 3196,563 3195,562 3188,562 3187,561 3181,561 3180,562 3178,562 3177,563 3175,563 3174,564 3170,564 3169,565 3154,565 3153,564 3146,564 3145,563 3121,563 3120,564 3108,564 3107,563 3103,563 3102,562 3097,562 3096,563 3092,563 3091,564 3084,564 3083,563 3078,563 3077,562 3075,562 3074,561 3066,561 3065,560 3057,560 3056,559 3053,559 3052,560 3051,560 3050,561 3049,561 3048,562 3044,562 3043,563 3036,563 3035,564 3028,564 3027,565 2987,565 2986,564 2979,564 2978,565 2966,565 2965,564 2960,564 2959,563 2954,563 2953,564 2948,564 2947,565 2944,565 2943,564 2941,564 2940,563 2937,563 2936,562 2930,562 2929,563 2926,563 2925,564 2918,564 2917,563 2915,563 2914,562 2912,562 2911,561 2905,561 2904,562 2899,562 2898,563 2878,563 2877,562 2870,562 2869,561 2845,561 2844,560 2834,560 2833,559 2810,559 2809,560 2805,560 2804,561 2802,561 2801,560 2798,560 2797,559 2793,559 2792,558" fill="rgba(14,106,71,0.3)" stroke="rgb(14,106,71)" stroke-width="2" data-block-id="0001" data-name="b-0002" /><text x="3513" y="734" text-anchor="middle" dominant-baseline="middle" class="block-label" fill="rgb(14,106,71)" stroke="white" stroke-width="3" paint-order="stroke">b-0002</text><polygon points="3466,1497 3465,1498 3441,1498 3440,1499 3438,1499 3437,1500 3432,1500 3431,1501 3430,1500 3426,1500 3425,1499 3384,1499 3383,1500 3367,1500 3366,1501 3357,1501 3356,1500 3345,1500 3344,1501 3340,1501 3339,1502 3325,1502 3324,1501 3309,1501 3308,1500 3292,1500 3291,1501 3290,1501 3289,1500 3266,1500 3265,1501 3264,1501 3263,1500 3253,1500 3252,1501 3248,1501 3247,1502 3236,1502 3235,1501 3229,1501 3228,1502 3226,1502 3225,1503 3224,1503 3223,1504 3221,1504 3220,1505 3217,1505 3216,1504 3214,1504 3213,1503 3212,1503 3211,1502 3209,1502 3208,1501 3205,1501 3204,1502 3202,1502 3201,1503 3198,1503 3197,1504 3188,1504 3187,1503 3177,1503 3176,1504 3167,1504 3166,1503 3152,1503 3151,1504 3142,1504 3141,1503 3127,1503 3126,1502 3119,1502 3118,1503 3096,1503 3095,1502 3093,1502 3092,1501 3089,1501 3088,1500 3079,1500 3078,1499 3071,1499 3070,1500 3061,1500 3060,1499 3054,1499 3053,1498 3047,1498 3046,1499 3032,1499 3031,1500 3002,1500 3001,1499 2990,1499 2989,1500 2983,1500 2982,1501 2979,1501 2978,1500 2962,1500 2961,1501 2953,1501 2952,1500 2947,1500 2946,1499 2942,1499 2941,1500 2927,1500 2926,1499 2903,1499 2902,1500 2888,1500 2887,1499 2843,1499 2842,1500 2751,1500 2750,1499 2745,1499 2744,1498 2741,1498 2740,1499 2734,1499 2733,1500 2728,1500 2727,1499 2708,1499 2707,1500 2683,1500 2682,1501 2666,1501 2665,1502 2658,1502 2657,1503 2655,1503 2654,1504 2653,1504 2652,1505 2651,1505 2649,1507 2648,1507 2646,1509 2644,1509 2642,1511 2641,1511 2640,1512 2640,1514 2639,1515 2639,1537 2640,1538 2640,1558 2641,1559 2641,1575 2640,1576 2640,1602 2639,1603 2639,1611 2640,1612 2640,1620 2639,1621 2639,1645 2638,1646 2638,1655 2637,1656 2637,1685 2638,1686 2638,1693 2637,1694 2637,1703 2638,1704 2638,1707 2639,1708 2639,1711 2640,1712 2640,1718 2639,1719 2639,1725 2640,1726 2640,1731 2641,1732 2641,1754 2640,1755 2640,1775 2641,1776 2641,1778 2642,1779 2642,1782 2643,1783 2643,1787 2642,1788 2642,1797 2641,1798 2641,1816 2640,1817 2640,1821 2641,1822 2641,1825 2642,1826 2642,1829 2643,1830 2643,1831 2642,1832 2642,1835 2641,1836 2641,1838 2640,1839 2640,1845 2641,1846 2642,1846 2644,1848 2645,1848 2646,1849 2647,1849 2648,1850 2650,1850 2651,1851 2653,1851 2654,1852 2656,1852 2657,1853 2659,1853 2660,1854 2699,1854 2700,1855 2713,1855 2714,1856 2737,1856 2738,1857 2751,1857 2752,1856 2759,1856 2760,1857 2800,1857 2801,1856 2837,1856 2838,1857 2878,1857 2879,1858 2889,1858 2890,1857 2901,1857 2902,1858 2907,1858 2908,1859 2929,1859 2930,1858 2932,1858 2933,1859 2937,1859 2938,1860 2940,1860 2941,1861 2942,1861 2943,1862 2948,1862 2949,1861 2952,1861 2953,1860 2958,1860 2959,1859 2962,1859 2963,1858 2983,1858 2984,1857 2989,1857 2990,1856 2995,1856 2996,1855 3006,1855 3007,1854 3010,1854 3011,1853 3014,1853 3015,1852 3022,1852 3023,1853 3059,1853 3060,1852 3068,1852 3069,1853 3104,1853 3105,1852 3116,1852 3117,1853 3130,1853 3131,1852 3171,1852 3172,1853 3192,1853 3193,1854 3211,1854 3212,1855 3240,1855 3241,1856 3259,1856 3260,1857 3273,1857 3274,1858 3294,1858 3295,1859 3307,1859 3308,1860 3329,1860 3330,1859 3338,1859 3339,1858 3354,1858 3355,1859 3363,1859 3364,1858 3374,1858 3375,1857 3392,1857 3393,1858 3439,1858 3440,1859 3469,1859 3470,1858 3476,1858 3477,1857 3483,1857 3484,1858 3497,1858 3498,1859 3517,1859 3518,1858 3533,1858 3534,1857 3555,1857 3556,1858 3566,1858 3567,1857 3602,1857 3603,1858 3656,1858 3657,1857 3662,1857 3663,1858 3696,1858 3697,1859 3702,1859 3703,1860 3713,1860 3714,1859 3731,1859 3732,1858 3748,1858 3749,1859 3788,1859 3789,1858 3941,1858 3942,1859 3952,1859 3953,1858 3956,1858 3957,1859 3976,1859 3977,1858 3998,1858 3999,1857 4004,1857 4005,1858 4060,1858 4061,1857 4102,1857 4103,1856 4108,1856 4109,1855 4114,1855 4115,1856 4123,1856 4124,1855 4127,1855 4128,1854 4130,1854 4131,1853 4143,1853 4144,1854 4150,1854 4151,1853 4160,1853 4161,1854 4174,1854 4175,1853 4190,1853 4191,1854 4198,1854 4199,1853 4206,1853 4207,1854 4214,1854 4215,1855 4218,1855 4219,1854 4221,1854 4222,1853 4225,1853 4226,1852 4261,1852 4262,1853 4263,1853 4264,1852 4266,1852 4268,1850 4269,1850 4270,1849 4272,1849 4273,1848 4274,1848 4275,1847 4276,1847 4277,1846 4278,1846 4280,1844 4280,1843 4281,1842 4281,1841 4280,1840 4280,1835 4279,1834 4279,1829 4280,1828 4280,1826 4281,1825 4281,1820 4282,1819 4282,1818 4281,1817 4281,1811 4280,1810 4280,1807 4281,1806 4281,1805 4282,1804 4282,1802 4283,1801 4283,1791 4284,1790 4284,1768 4285,1767 4285,1762 4286,1761 4286,1759 4287,1758 4287,1756 4288,1755 4288,1752 4289,1751 4289,1748 4290,1747 4290,1730 4289,1729 4289,1710 4290,1709 4290,1705 4291,1704 4291,1697 4290,1696 4290,1686 4289,1685 4289,1672 4290,1671 4290,1656 4291,1655 4291,1652 4290,1651 4290,1644 4289,1643 4289,1637 4290,1636 4290,1618 4289,1617 4289,1607 4288,1606 4288,1599 4287,1598 4287,1573 4288,1572 4288,1559 4287,1558 4287,1550 4286,1549 4286,1543 4285,1542 4285,1539 4284,1538 4284,1536 4283,1535 4283,1530 4282,1529 4282,1523 4281,1522 4281,1517 4280,1516 4280,1512 4279,1511 4279,1510 4278,1509 4277,1509 4276,1508 4272,1508 4271,1507 4242,1507 4241,1506 4209,1506 4208,1505 4186,1505 4185,1504 4173,1504 4172,1505 4169,1505 4168,1504 4164,1504 4163,1503 4152,1503 4151,1504 4145,1504 4144,1505 4143,1505 4142,1504 4112,1504 4111,1503 4108,1503 4107,1504 4090,1504 4089,1503 4078,1503 4077,1504 4075,1504 4074,1503 4066,1503 4065,1502 4058,1502 4057,1503 4047,1503 4046,1502 4030,1502 4029,1503 4018,1503 4017,1502 4003,1502 4002,1501 3987,1501 3986,1502 3983,1502 3982,1503 3973,1503 3972,1502 3946,1502 3945,1501 3942,1501 3941,1502 3935,1502 3934,1503 3929,1503 3928,1502 3921,1502 3920,1501 3919,1501 3918,1502 3911,1502 3910,1503 3905,1503 3904,1502 3888,1502 3887,1503 3882,1503 3881,1502 3866,1502 3865,1503 3851,1503 3850,1502 3849,1502 3848,1503 3839,1503 3838,1504 3835,1504 3834,1503 3828,1503 3827,1502 3818,1502 3817,1503 3810,1503 3809,1502 3793,1502 3792,1503 3786,1503 3785,1502 3780,1502 3779,1501 3775,1501 3774,1502 3769,1502 3768,1503 3757,1503 3756,1502 3740,1502 3739,1501 3733,1501 3732,1500 3726,1500 3725,1501 3711,1501 3710,1500 3696,1500 3695,1501 3694,1500 3668,1500 3667,1499 3635,1499 3634,1500 3631,1500 3630,1501 3628,1501 3627,1502 3616,1502 3615,1501 3609,1501 3608,1500 3596,1500 3595,1499 3565,1499 3564,1498 3562,1498 3561,1499 3536,1499 3535,1500 3530,1500 3529,1501 3526,1501 3525,1500 3519,1500 3518,1499 3506,1499 3505,1498 3494,1498 3493,1497 3492,1497 3491,1498 3483,1498 3482,1499 3478,1499 3477,1498 3470,1498 3469,1497" fill="rgba(188,20,102,0.3)" stroke="rgb(188,20,102)" stroke-width="2" data-block-id="0002" data-name="b-0003" /><text x="3489" y="1659" text-anchor="middle" dominant-baseline="middle" class="block-label" fill="rgb(188,20,102)" stroke="white" stroke-width="3" paint-order="stroke">b-0003</text><polygon points="2753,1031 2752,1032 2749,1032 2748,1033 2744,1033 2743,1034 2731,1034 2730,1033 2718,1033 2717,1032 2704,1032 2703,1033 2681,1033 2680,1034 2657,1034 2656,1035 2653,1035 2652,1036 2650,1036 2649,1037 2647,1037 2646,1038 2644,1038 2641,1041 2641,1042 2640,1043 2640,1045 2639,1046 2639,1049 2638,1050 2638,1055 2637,1056 2637,1067 2638,1068 2638,1071 2639,1072 2639,1076 2638,1077 2638,1079 2637,1080 2637,1092 2638,1093 2638,1096 2639,1097 2639,1102 2638,1103 2638,1114 2639,1115 2639,1117 2640,1118 2640,1120 2641,1121 2641,1123 2639,1125 2639,1126 2638,1127 2638,1128 2637,1129 2637,1132 2636,1133 2636,1140 2637,1141 2637,1151 2638,1152 2638,1160 2639,1161 2639,1175 2638,1176 2638,1189 2639,1190 2639,1198 2638,1199 2638,1207 2639,1208 2639,1210 2640,1211 2640,1213 2641,1214 2641,1219 2640,1220 2640,1221 2639,1222 2639,1223 2638,1224 2638,1226 2637,1227 2637,1235 2638,1236 2638,1245 2639,1246 2639,1255 2638,1256 2638,1259 2637,1260 2637,1264 2636,1265 2636,1282 2637,1283 2637,1288 2638,1289 2638,1328 2639,1329 2639,1341 2640,1342 2640,1353 2641,1354 2641,1366 2640,1367 2640,1370 2641,1371 2641,1373 2643,1375 2643,1376 2649,1382 2652,1382 2653,1383 2655,1383 2656,1384 2660,1384 2661,1385 2693,1385 2694,1386 2798,1386 2799,1385 2806,1385 2807,1386 2832,1386 2833,1387 2842,1387 2843,1386 2865,1386 2866,1385 2919,1385 2920,1384 2941,1384 2942,1383 2950,1383 2951,1384 2977,1384 2978,1383 3011,1383 3012,1384 3018,1384 3019,1383 3031,1383 3032,1384 3047,1384 3048,1385 3054,1385 3055,1384 3085,1384 3086,1383 3105,1383 3106,1384 3147,1384 3148,1385 3154,1385 3155,1386 3167,1386 3168,1387 3171,1387 3172,1386 3216,1386 3217,1385 3250,1385 3251,1386 3274,1386 3275,1387 3279,1387 3280,1386 3317,1386 3318,1385 3338,1385 3339,1386 3341,1386 3342,1387 3343,1387 3344,1388 3345,1388 3346,1389 3349,1389 3350,1390 3351,1389 3353,1389 3354,1388 3357,1388 3358,1387 3361,1387 3362,1386 3395,1386 3396,1387 3426,1387 3427,1386 3451,1386 3452,1387 3457,1387 3458,1388 3463,1388 3464,1389 3473,1389 3474,1388 3478,1388 3479,1387 3491,1387 3492,1386 3509,1386 3510,1387 3524,1387 3525,1388 3544,1388 3545,1387 3589,1387 3590,1386 3592,1386 3593,1385 3596,1385 3597,1384 3605,1384 3606,1385 3617,1385 3618,1384 3622,1384 3623,1385 3628,1385 3629,1386 3634,1386 3635,1387 3654,1387 3655,1386 3699,1386 3700,1385 3707,1385 3708,1384 3714,1384 3715,1383 3720,1383 3721,1384 3726,1384 3727,1385 3733,1385 3734,1384 3741,1384 3742,1383 3748,1383 3749,1382 3770,1382 3771,1383 3785,1383 3786,1382 3794,1382 3795,1383 3814,1383 3815,1384 3829,1384 3830,1383 3838,1383 3839,1382 3862,1382 3863,1383 3866,1383 3867,1384 3871,1384 3872,1385 3874,1385 3875,1384 3881,1384 3882,1383 3909,1383 3910,1384 3917,1384 3918,1385 3922,1385 3923,1384 3930,1384 3931,1383 3934,1383 3935,1384 3952,1384 3953,1383 3956,1383 3957,1384 3993,1384 3994,1383 4007,1383 4008,1384 4050,1384 4051,1383 4056,1383 4057,1382 4061,1382 4062,1381 4071,1381 4072,1380 4100,1380 4101,1379 4120,1379 4121,1378 4125,1378 4126,1377 4129,1377 4130,1376 4131,1376 4132,1375 4147,1375 4148,1374 4169,1374 4170,1375 4171,1375 4172,1376 4174,1376 4175,1377 4178,1377 4179,1378 4264,1378 4265,1377 4267,1377 4268,1376 4269,1376 4270,1375 4271,1375 4274,1372 4274,1371 4275,1370 4274,1369 4274,1365 4273,1364 4273,1357 4274,1356 4274,1354 4275,1353 4275,1352 4276,1351 4276,1349 4277,1348 4277,1327 4278,1326 4278,1325 4277,1324 4277,1321 4276,1320 4276,1318 4275,1317 4275,1316 4274,1315 4274,1310 4275,1309 4275,1308 4277,1306 4277,1305 4279,1303 4279,1301 4280,1300 4280,1298 4279,1297 4279,1295 4278,1294 4278,1293 4277,1292 4277,1288 4276,1287 4276,1284 4277,1283 4277,1277 4276,1276 4276,1270 4275,1269 4275,1261 4276,1260 4276,1255 4277,1254 4277,1250 4276,1249 4276,1220 4275,1219 4275,1218 4276,1217 4276,1207 4277,1206 4277,1204 4278,1203 4278,1202 4279,1201 4279,1200 4280,1199 4280,1197 4281,1196 4281,1193 4282,1192 4282,1179 4283,1178 4283,1173 4284,1172 4284,1169 4283,1168 4283,1165 4282,1164 4282,1159 4281,1158 4281,1157 4280,1156 4280,1155 4278,1153 4278,1152 4273,1147 4273,1144 4276,1141 4276,1140 4277,1139 4277,1138 4279,1136 4279,1134 4280,1133 4280,1130 4281,1129 4281,1120 4280,1119 4280,1118 4279,1117 4279,1115 4278,1114 4278,1113 4277,1112 4277,1107 4278,1106 4278,1086 4277,1085 4277,1069 4278,1068 4278,1049 4277,1048 4277,1046 4276,1045 4276,1044 4275,1043 4275,1042 4274,1042 4273,1041 4271,1041 4270,1040 4266,1040 4265,1039 4255,1039 4254,1038 4248,1038 4247,1039 4237,1039 4236,1038 4230,1038 4229,1037 4227,1037 4226,1036 4224,1036 4223,1035 4217,1035 4216,1034 4205,1034 4204,1035 4197,1035 4196,1036 4190,1036 4189,1035 4148,1035 4147,1036 4142,1036 4141,1035 4105,1035 4104,1036 4085,1036 4084,1035 4054,1035 4053,1036 4045,1036 4044,1035 4033,1035 4032,1034 4026,1034 4025,1033 4019,1033 4018,1032 4014,1032 4013,1033 4011,1033 4010,1034 4008,1034 4007,1035 4005,1035 4004,1036 4000,1036 3999,1035 3983,1035 3982,1036 3969,1036 3968,1035 3966,1035 3965,1036 3941,1036 3940,1035 3929,1035 3928,1034 3924,1034 3923,1033 3917,1033 3916,1034 3912,1034 3911,1035 3896,1035 3895,1036 3881,1036 3880,1035 3878,1035 3877,1034 3875,1034 3874,1033 3869,1033 3868,1034 3864,1034 3863,1035 3841,1035 3840,1036 3834,1036 3833,1035 3827,1035 3826,1034 3822,1034 3821,1035 3804,1035 3803,1036 3797,1036 3796,1035 3773,1035 3772,1036 3768,1036 3767,1037 3747,1037 3746,1036 3731,1036 3730,1035 3673,1035 3672,1036 3656,1036 3655,1035 3634,1035 3633,1036 3626,1036 3625,1037 3619,1037 3618,1036 3607,1036 3606,1035 3544,1035 3543,1034 3499,1034 3498,1033 3489,1033 3488,1034 3481,1034 3480,1035 3478,1035 3477,1034 3442,1034 3441,1035 3436,1035 3435,1036 3426,1036 3425,1037 3415,1037 3414,1036 3404,1036 3403,1035 3393,1035 3392,1036 3388,1036 3387,1037 3378,1037 3377,1036 3371,1036 3370,1035 3364,1035 3363,1034 3347,1034 3346,1035 3320,1035 3319,1034 3268,1034 3267,1033 3256,1033 3255,1032 3253,1032 3252,1033 3245,1033 3244,1034 3231,1034 3230,1033 3224,1033 3223,1032 3217,1032 3216,1031 3179,1031 3178,1032 3132,1032 3131,1033 3127,1033 3126,1034 3120,1034 3119,1033 3115,1033 3114,1032 3082,1032 3081,1033 3071,1033 3070,1032 3060,1032 3059,1033 3036,1033 3035,1034 3009,1034 3008,1033 2967,1033 2966,1032 2947,1032 2946,1031 2945,1031 2944,1032 2905,1032 2904,1031 2896,1031 2895,1032 2877,1032 2876,1031 2821,1031 2820,1032 2805,1032 2804,1031 2801,1031 2800,1032 2764,1032 2763,1031" fill="rgba(121,210,214,0.3)" stroke="rgb(121,210,214)" stroke-width="2" data-block-id="0003" data-name="b-0004" /><text x="3548" y="1202" text-anchor="middle" dominant-baseline="middle" class="block-label" fill="rgb(121,210,214)" stroke="white" stroke-width="3" paint-order="stroke">b-0004</text><polygon points="1013,2510 1012,2511 1005,2511 1004,2512 1002,2512 999,2515 999,2516 998,2517 998,2518 997,2519 997,2578 996,2579 996,2608 997,2609 997,2629 996,2630 996,2658 997,2659 997,2667 996,2668 996,2692 995,2693 995,2707 996,2708 996,2716 995,2717 995,2804 996,2805 996,2812 995,2813 995,2845 996,2846 996,2849 997,2850 997,2852 998,2853 998,2855 999,2856 999,2860 1000,2861 1000,2864 1001,2865 1001,2866 1003,2868 1005,2868 1006,2869 1044,2869 1045,2870 1080,2870 1081,2871 1088,2871 1089,2872 1101,2872 1102,2873 1129,2873 1130,2872 1142,2872 1143,2873 1151,2873 1152,2872 1166,2872 1167,2873 1213,2873 1214,2872 1228,2872 1229,2871 1231,2871 1232,2872 1258,2872 1259,2871 1271,2871 1272,2872 1304,2872 1305,2871 1342,2871 1343,2872 1352,2872 1353,2871 1403,2871 1404,2870 1418,2870 1419,2871 1439,2871 1440,2870 1448,2870 1449,2871 1486,2871 1487,2872 1498,2872 1499,2871 1533,2871 1534,2872 1566,2872 1567,2871 1585,2871 1586,2872 1617,2872 1618,2871 1627,2871 1628,2872 1643,2872 1644,2871 1676,2871 1677,2872 1687,2872 1688,2871 1716,2871 1717,2870 1730,2870 1731,2869 1732,2870 1746,2870 1747,2869 1807,2869 1808,2870 1905,2870 1906,2871 1925,2871 1926,2870 1952,2870 1953,2871 1958,2871 1959,2870 1992,2870 1993,2871 2036,2871 2037,2870 2038,2870 2039,2871 2080,2871 2081,2870 2089,2870 2090,2871 2159,2871 2160,2870 2184,2870 2185,2871 2210,2871 2211,2870 2291,2870 2292,2869 2368,2869 2369,2868 2372,2868 2373,2869 2398,2869 2399,2868 2433,2868 2434,2867 2437,2867 2438,2866 2440,2866 2441,2865 2442,2865 2445,2862 2445,2861 2446,2860 2446,2859 2447,2858 2447,2856 2448,2855 2448,2849 2447,2848 2447,2831 2446,2830 2446,2774 2447,2773 2447,2754 2446,2753 2446,2741 2447,2740 2447,2731 2446,2730 2446,2709 2445,2708 2445,2699 2444,2698 2444,2697 2445,2696 2445,2684 2446,2683 2446,2678 2447,2677 2447,2655 2446,2654 2446,2649 2447,2648 2447,2631 2446,2630 2446,2579 2445,2578 2445,2553 2444,2552 2444,2538 2445,2537 2445,2523 2444,2522 2444,2520 2443,2519 2442,2519 2441,2518 2440,2518 2439,2517 2435,2517 2434,2516 2431,2516 2430,2515 2427,2515 2426,2514 2422,2514 2421,2513 2361,2513 2360,2514 2333,2514 2332,2515 2300,2515 2299,2516 2204,2516 2203,2515 2181,2515 2180,2516 2159,2516 2158,2515 2089,2515 2088,2516 2005,2516 2004,2515 1976,2515 1975,2516 1895,2516 1894,2515 1733,2515 1732,2516 1728,2516 1727,2515 1724,2515 1723,2514 1720,2514 1719,2513 1631,2513 1630,2512 1512,2512 1511,2511 1500,2511 1499,2512 1481,2512 1480,2513 1471,2513 1470,2514 1448,2514 1447,2515 1440,2515 1439,2514 1404,2514 1403,2513 1389,2513 1388,2514 1383,2514 1382,2513 1252,2513 1251,2514 1191,2514 1190,2513 1159,2513 1158,2512 1154,2512 1153,2513 1148,2513 1147,2512 1065,2512 1064,2511 1060,2511 1059,2512 1025,2512 1024,2511 1018,2511 1017,2510" fill="rgba(116,99,103,0.3)" stroke="rgb(116,99,103)" stroke-width="2" data-block-id="0004" data-name="b-0006" /><text x="1709" y="2715" text-anchor="middle" dominant-baseline="middle" class="block-label" fill="rgb(116,99,103)" stroke="white" stroke-width="3" paint-order="stroke">b-0006</text><polygon points="1037,2035 1036,2036 1032,2036 1031,2037 1022,2037 1021,2036 1012,2036 1011,2037 994,2037 993,2038 991,2038 989,2040 988,2040 988,2041 985,2044 985,2047 984,2048 984,2068 985,2069 985,2081 984,2082 984,2084 983,2085 983,2087 982,2088 982,2091 981,2092 981,2102 980,2103 980,2136 979,2137 979,2167 980,2168 980,2177 979,2178 979,2183 978,2184 978,2204 979,2205 979,2215 978,2216 978,2233 979,2234 979,2239 978,2240 978,2249 979,2250 979,2254 980,2255 980,2257 981,2258 981,2265 980,2266 980,2278 981,2279 981,2287 980,2288 980,2304 979,2305 979,2348 980,2349 980,2353 981,2354 981,2359 980,2360 980,2378 981,2379 981,2380 991,2390 992,2390 993,2391 994,2391 995,2392 998,2392 999,2393 1004,2393 1005,2394 1029,2394 1030,2395 1037,2395 1038,2396 1041,2396 1042,2395 1048,2395 1049,2394 1057,2394 1058,2395 1068,2395 1069,2394 1085,2394 1086,2395 1089,2395 1090,2394 1130,2394 1131,2395 1137,2395 1138,2394 1177,2394 1178,2395 1204,2395 1205,2396 1206,2395 1212,2395 1213,2394 1226,2394 1227,2395 1232,2395 1233,2394 1236,2394 1237,2393 1241,2393 1242,2392 1244,2392 1245,2393 1250,2393 1251,2394 1257,2394 1258,2393 1278,2393 1279,2394 1281,2394 1282,2393 1291,2393 1292,2394 1315,2394 1316,2395 1329,2395 1330,2394 1367,2394 1368,2395 1378,2395 1379,2394 1416,2394 1417,2395 1419,2395 1420,2394 1426,2394 1427,2393 1446,2393 1447,2394 1464,2394 1465,2395 1472,2395 1473,2394 1485,2394 1486,2395 1521,2395 1522,2394 1535,2394 1536,2395 1569,2395 1570,2394 1586,2394 1587,2395 1608,2395 1609,2396 1610,2396 1611,2395 1617,2395 1618,2394 1730,2394 1731,2395 1755,2395 1756,2394 1760,2394 1761,2393 1775,2393 1776,2394 1779,2394 1780,2393 1800,2393 1801,2394 1906,2394 1907,2393 1909,2393 1910,2394 1951,2394 1952,2393 1987,2393 1988,2392 1995,2392 1996,2393 2014,2393 2015,2394 2017,2394 2018,2393 2047,2393 2048,2394 2076,2394 2077,2393 2082,2393 2083,2392 2089,2392 2090,2393 2093,2393 2094,2394 2131,2394 2132,2393 2135,2393 2136,2394 2153,2394 2154,2393 2159,2393 2160,2394 2172,2394 2173,2393 2176,2393 2177,2392 2179,2392 2180,2391 2183,2391 2184,2392 2186,2392 2187,2393 2190,2393 2191,2394 2200,2394 2201,2393 2213,2393 2214,2392 2282,2392 2283,2393 2319,2393 2320,2392 2326,2392 2327,2393 2412,2393 2413,2392 2434,2392 2435,2391 2437,2391 2438,2390 2439,2390 2440,2389 2441,2389 2445,2385 2445,2384 2446,2383 2446,2381 2447,2380 2447,2368 2448,2367 2448,2346 2447,2345 2447,2341 2448,2340 2448,2327 2447,2326 2447,2300 2448,2299 2448,2263 2449,2262 2449,2243 2448,2242 2448,2232 2449,2231 2449,2228 2450,2227 2450,2218 2449,2217 2449,2201 2448,2200 2448,2195 2447,2194 2447,2189 2446,2188 2446,2185 2445,2184 2445,2182 2444,2181 2444,2180 2443,2179 2443,2178 2442,2177 2442,2176 2441,2175 2441,2174 2440,2173 2440,2171 2439,2170 2439,2169 2438,2168 2438,2166 2437,2165 2437,2164 2436,2163 2436,2161 2435,2160 2435,2159 2434,2158 2434,2157 2432,2155 2432,2154 2431,2153 2431,2152 2430,2151 2430,2150 2429,2149 2429,2148 2428,2147 2428,2144 2427,2143 2427,2141 2426,2140 2426,2137 2425,2136 2425,2133 2424,2132 2424,2130 2423,2129 2423,2125 2422,2124 2422,2120 2421,2119 2421,2116 2420,2115 2420,2114 2419,2113 2419,2112 2418,2111 2418,2110 2417,2109 2417,2108 2416,2107 2416,2106 2415,2105 2415,2103 2414,2102 2414,2097 2413,2096 2413,2095 2408,2090 2408,2089 2407,2088 2407,2086 2406,2085 2406,2083 2405,2082 2405,2079 2404,2078 2404,2076 2403,2075 2403,2071 2402,2070 2402,2068 2401,2067 2401,2065 2400,2064 2400,2063 2399,2062 2399,2061 2398,2060 2398,2059 2397,2058 2397,2057 2396,2056 2396,2055 2395,2054 2395,2053 2394,2052 2394,2051 2392,2049 2392,2048 2387,2043 2386,2043 2385,2042 2384,2042 2383,2041 2357,2041 2356,2042 2344,2042 2343,2041 2330,2041 2329,2042 2323,2042 2322,2041 2318,2041 2317,2040 2305,2040 2304,2041 2283,2041 2282,2040 2244,2040 2243,2039 2223,2039 2222,2040 2210,2040 2209,2039 2188,2039 2187,2040 2173,2040 2172,2041 2166,2041 2165,2040 2126,2040 2125,2039 2120,2039 2119,2040 2109,2040 2108,2041 2107,2040 2096,2040 2095,2041 2082,2041 2081,2040 1999,2040 1998,2039 1951,2039 1950,2038 1939,2038 1938,2039 1925,2039 1924,2038 1904,2038 1903,2039 1881,2039 1880,2038 1866,2038 1865,2039 1855,2039 1854,2038 1816,2038 1815,2039 1810,2039 1809,2038 1791,2038 1790,2039 1788,2039 1787,2038 1773,2038 1772,2039 1768,2039 1767,2040 1763,2040 1762,2039 1757,2039 1756,2038 1750,2038 1749,2039 1712,2039 1711,2038 1706,2038 1705,2037 1704,2038 1697,2038 1696,2039 1689,2039 1688,2038 1682,2038 1681,2039 1677,2039 1676,2040 1673,2040 1672,2041 1668,2041 1667,2040 1665,2040 1664,2039 1661,2039 1660,2038 1651,2038 1650,2039 1625,2039 1624,2040 1623,2039 1616,2039 1615,2038 1605,2038 1604,2039 1591,2039 1590,2038 1584,2038 1583,2039 1568,2039 1567,2038 1559,2038 1558,2039 1533,2039 1532,2038 1519,2038 1518,2037 1514,2037 1513,2038 1508,2038 1507,2039 1498,2039 1497,2038 1489,2038 1488,2039 1476,2039 1475,2038 1472,2038 1471,2037 1461,2037 1460,2038 1449,2038 1448,2039 1430,2039 1429,2038 1381,2038 1380,2037 1375,2037 1374,2036 1371,2036 1370,2037 1365,2037 1364,2038 1358,2038 1357,2037 1331,2037 1330,2036 1283,2036 1282,2037 1274,2037 1273,2038 1250,2038 1249,2039 1245,2039 1244,2040 1243,2040 1242,2039 1238,2039 1237,2038 1235,2038 1234,2037 1233,2037 1232,2036 1227,2036 1226,2037 1221,2037 1220,2038 1211,2038 1210,2037 1205,2037 1204,2038 1199,2038 1198,2039 1190,2039 1189,2038 1178,2038 1177,2039 1173,2039 1172,2040 1168,2040 1167,2039 1152,2039 1151,2040 1145,2040 1144,2039 1142,2039 1141,2038 1138,2038 1137,2037 1131,2037 1130,2038 1125,2038 1124,2039 1122,2039 1121,2038 1114,2038 1113,2037 1110,2037 1109,2038 1102,2038 1101,2039 1100,2038 1096,2038 1095,2037 1092,2037 1091,2036 1081,2036 1080,2037 1069,2037 1068,2036 1061,2036 1060,2037 1055,2037 1054,2038 1050,2038 1049,2037 1047,2037 1046,2036 1043,2036 1042,2035" fill="rgba(151,130,149,0.3)" stroke="rgb(151,130,149)" stroke-width="2" data-block-id="0005" data-name="b-0007" /><text x="1720" y="2182" text-anchor="middle" dominant-baseline="middle" class="block-label" fill="rgb(151,130,149)" stroke="white" stroke-width="3" paint-order="stroke">b-0007</text><polygon points="4128,2506 4127,2507 4094,2507 4093,2508 4080,2508 4079,2507 4069,2507 4068,2508 4041,2508 4040,2509 4037,2509 4036,2508 4018,2508 4017,2509 4009,2509 4008,2508 3983,2508 3982,2507 3976,2507 3975,2508 3960,2508 3959,2507 3947,2507 3946,2508 3941,2508 3940,2507 3917,2507 3916,2508 3898,2508 3897,2507 3875,2507 3874,2508 3870,2508 3869,2507 3831,2507 3830,2508 3821,2508 3820,2507 3807,2507 3806,2508 3767,2508 3766,2507 3762,2507 3761,2508 3735,2508 3734,2509 3727,2509 3726,2508 3718,2508 3717,2507 3715,2507 3714,2508 3682,2508 3681,2509 3618,2509 3617,2510 3607,2510 3606,2509 3595,2509 3594,2510 3478,2510 3477,2509 3413,2509 3412,2508 3401,2508 3400,2509 3389,2509 3388,2508 3383,2508 3382,2509 3365,2509 3364,2508 3336,2508 3335,2509 3287,2509 3286,2508 3279,2508 3278,2507 3261,2507 3260,2508 3226,2508 3225,2507 3186,2507 3185,2508 3158,2508 3157,2509 3151,2509 3150,2510 3143,2510 3142,2509 3105,2509 3104,2510 3086,2510 3085,2511 3079,2511 3078,2512 3059,2512 3058,2511 3027,2511 3026,2512 2989,2512 2988,2511 2978,2511 2977,2512 2963,2512 2962,2511 2955,2511 2954,2512 2911,2512 2910,2511 2905,2511 2904,2512 2868,2512 2867,2511 2793,2511 2792,2510 2789,2510 2788,2511 2781,2511 2780,2512 2778,2512 2777,2513 2776,2513 2774,2515 2774,2516 2773,2517 2773,2518 2772,2519 2772,2524 2773,2525 2773,2528 2774,2529 2774,2532 2775,2533 2775,2536 2776,2537 2776,2540 2777,2541 2777,2544 2778,2545 2778,2546 2779,2547 2779,2548 2780,2549 2780,2550 2781,2551 2781,2552 2782,2553 2782,2555 2783,2556 2783,2557 2784,2558 2784,2559 2785,2560 2785,2561 2786,2562 2786,2563 2787,2564 2787,2565 2788,2566 2788,2567 2789,2568 2789,2570 2790,2571 2790,2572 2791,2573 2791,2575 2792,2576 2792,2578 2793,2579 2793,2581 2794,2582 2794,2584 2795,2585 2795,2587 2796,2588 2796,2590 2797,2591 2797,2593 2798,2594 2798,2596 2799,2597 2799,2599 2800,2600 2800,2601 2801,2602 2801,2603 2802,2604 2802,2605 2803,2606 2803,2607 2804,2608 2804,2609 2805,2610 2805,2611 2806,2612 2806,2613 2807,2614 2807,2616 2808,2617 2808,2618 2809,2619 2809,2622 2810,2623 2810,2625 2811,2626 2811,2629 2812,2630 2812,2631 2813,2632 2813,2634 2814,2635 2814,2636 2815,2637 2815,2639 2816,2640 2816,2641 2817,2642 2817,2643 2818,2644 2818,2646 2819,2647 2819,2649 2820,2650 2820,2651 2821,2652 2821,2654 2822,2655 2822,2656 2823,2657 2823,2658 2824,2659 2824,2661 2825,2662 2825,2663 2826,2664 2826,2665 2827,2666 2827,2667 2828,2668 2828,2669 2829,2670 2829,2671 2830,2672 2830,2674 2831,2675 2831,2676 2832,2677 2832,2679 2833,2680 2833,2682 2834,2683 2834,2685 2835,2686 2835,2688 2836,2689 2836,2691 2837,2692 2837,2694 2838,2695 2838,2697 2839,2698 2839,2700 2840,2701 2840,2702 2841,2703 2841,2704 2842,2705 2842,2706 2843,2707 2843,2708 2844,2709 2844,2710 2845,2711 2845,2712 2846,2713 2846,2714 2847,2715 2847,2717 2848,2718 2848,2719 2849,2720 2849,2721 2850,2722 2850,2724 2851,2725 2851,2726 2852,2727 2852,2728 2853,2729 2853,2730 2854,2731 2854,2732 2855,2733 2855,2736 2856,2737 2856,2739 2857,2740 2857,2742 2858,2743 2858,2745 2859,2746 2859,2748 2860,2749 2860,2751 2861,2752 2861,2753 2862,2754 2862,2756 2863,2757 2863,2758 2864,2759 2864,2760 2865,2761 2865,2763 2866,2764 2866,2766 2867,2767 2867,2769 2868,2770 2868,2772 2869,2773 2869,2776 2870,2777 2870,2779 2871,2780 2871,2781 2872,2782 2872,2785 2873,2786 2873,2787 2874,2788 2874,2790 2875,2791 2875,2793 2876,2794 2876,2795 2877,2796 2877,2797 2878,2798 2878,2799 2879,2800 2879,2801 2880,2802 2880,2803 2881,2804 2881,2805 2882,2806 2882,2807 2883,2808 2883,2809 2884,2810 2884,2812 2885,2813 2885,2814 2886,2815 2886,2816 2887,2817 2887,2819 2888,2820 2888,2822 2889,2823 2889,2825 2890,2826 2890,2828 2891,2829 2891,2830 2892,2831 2892,2833 2893,2834 2893,2836 2894,2837 2894,2839 2895,2840 2895,2842 2896,2843 2896,2844 2898,2846 2898,2847 2907,2856 2909,2856 2910,2857 2922,2857 2923,2858 3069,2858 3070,2859 3092,2859 3093,2858 3101,2858 3102,2859 3113,2859 3114,2858 3129,2858 3130,2859 3225,2859 3226,2860 3239,2860 3240,2859 3251,2859 3252,2858 3291,2858 3292,2859 3309,2859 3310,2858 3315,2858 3316,2859 3345,2859 3346,2858 3387,2858 3388,2857 3439,2857 3440,2856 3451,2856 3452,2857 3485,2857 3486,2856 3499,2856 3500,2857 3563,2857 3564,2856 3652,2856 3653,2857 3666,2857 3667,2858 3676,2858 3677,2857 3684,2857 3685,2858 3700,2858 3701,2857 3709,2857 3710,2858 3721,2858 3722,2857 3758,2857 3759,2858 3776,2858 3777,2857 3791,2857 3792,2856 3797,2856 3798,2855 3807,2855 3808,2856 3820,2856 3821,2855 3826,2855 3827,2856 3839,2856 3840,2857 3850,2857 3851,2858 3864,2858 3865,2857 3882,2857 3883,2858 3884,2857 3890,2857 3891,2856 3912,2856 3913,2855 3934,2855 3935,2854 3938,2854 3939,2853 3943,2853 3944,2852 3946,2852 3947,2853 3959,2853 3960,2852 3974,2852 3975,2853 3985,2853 3986,2854 4006,2854 4007,2853 4013,2853 4014,2852 4018,2852 4019,2853 4036,2853 4037,2854 4059,2854 4060,2853 4072,2853 4073,2854 4084,2854 4085,2855 4101,2855 4102,2854 4119,2854 4120,2855 4129,2855 4130,2854 4223,2854 4224,2855 4241,2855 4242,2854 4272,2854 4273,2853 4281,2853 4282,2852 4285,2852 4286,2851 4287,2851 4287,2850 4289,2848 4289,2847 4290,2846 4290,2843 4291,2842 4291,2797 4290,2796 4290,2793 4291,2792 4291,2758 4292,2757 4292,2740 4291,2739 4291,2634 4290,2633 4290,2522 4289,2521 4289,2519 4288,2518 4288,2517 4287,2516 4287,2515 4286,2514 4285,2514 4284,2513 4283,2513 4281,2511 4279,2511 4278,2510 4274,2510 4273,2509 4270,2509 4269,2508 4226,2508 4225,2507 4208,2507 4207,2508 4199,2508 4198,2507 4141,2507 4140,2506" fill="rgba(52,1,87,0.3)" stroke="rgb(52,1,87)" stroke-width="2" data-block-id="0006" data-name="b-0008" /><text x="3293" y="2678" text-anchor="middle" dominant-baseline="middle" class="block-label" fill="rgb(52,1,87)" stroke="white" stroke-width="3" paint-order="stroke">b-0008</text><polygon points="1109,1494 1108,1495 1078,1495 1077,1496 1074,1496 1073,1495 1054,1495 1053,1496 1050,1496 1049,1495 1032,1495 1031,1496 1024,1496 1023,1495 1009,1495 1008,1496 995,1496 994,1497 992,1497 990,1499 990,1501 989,1502 989,1507 988,1508 988,1514 989,1515 989,1532 988,1533 988,1542 987,1543 987,1585 988,1586 988,1649 989,1650 989,1654 988,1655 988,1695 987,1696 987,1701 988,1702 988,1705 989,1706 989,1708 990,1709 990,1721 989,1722 989,1730 990,1731 990,1743 989,1744 989,1758 988,1759 988,1774 989,1775 989,1781 990,1782 990,1786 989,1787 989,1796 988,1797 988,1820 989,1821 989,1823 990,1824 990,1826 991,1827 991,1829 992,1830 992,1832 993,1833 993,1843 994,1844 994,1845 995,1845 997,1847 998,1847 999,1848 1001,1848 1002,1849 1005,1849 1006,1850 1020,1850 1021,1849 1028,1849 1029,1850 1037,1850 1038,1851 1060,1851 1061,1852 1068,1852 1069,1851 1078,1851 1079,1852 1097,1852 1098,1851 1106,1851 1107,1852 1113,1852 1114,1851 1176,1851 1177,1852 1195,1852 1196,1853 1209,1853 1210,1852 1213,1852 1214,1851 1217,1851 1218,1850 1222,1850 1223,1851 1232,1851 1233,1852 1250,1852 1251,1853 1256,1853 1257,1852 1271,1852 1272,1853 1276,1853 1277,1854 1285,1854 1286,1853 1312,1853 1313,1854 1354,1854 1355,1853 1367,1853 1368,1854 1376,1854 1377,1853 1417,1853 1418,1854 1427,1854 1428,1853 1440,1853 1441,1854 1498,1854 1499,1853 1506,1853 1507,1854 1511,1854 1512,1855 1520,1855 1521,1854 1529,1854 1530,1853 1560,1853 1561,1854 1565,1854 1566,1853 1602,1853 1603,1854 1621,1854 1622,1855 1637,1855 1638,1854 1643,1854 1644,1853 1650,1853 1651,1854 1655,1854 1656,1855 1660,1855 1661,1854 1665,1854 1666,1853 1702,1853 1703,1854 1710,1854 1711,1853 1750,1853 1751,1854 1776,1854 1777,1855 1892,1855 1893,1856 1910,1856 1911,1855 1935,1855 1936,1856 1951,1856 1952,1855 1987,1855 1988,1856 2004,1856 2005,1855 2028,1855 2029,1856 2251,1856 2252,1857 2281,1857 2282,1856 2304,1856 2305,1855 2308,1855 2309,1854 2311,1854 2312,1853 2313,1853 2313,1852 2315,1850 2315,1848 2316,1847 2316,1841 2315,1840 2315,1839 2314,1838 2314,1836 2313,1835 2313,1834 2312,1833 2312,1831 2311,1830 2311,1829 2310,1828 2310,1827 2309,1826 2309,1825 2308,1824 2308,1822 2307,1821 2307,1819 2306,1818 2306,1813 2305,1812 2305,1808 2304,1807 2304,1805 2303,1804 2303,1803 2302,1802 2302,1800 2301,1799 2301,1798 2300,1797 2300,1796 2299,1795 2299,1794 2298,1793 2298,1792 2297,1791 2297,1790 2296,1789 2296,1787 2295,1786 2295,1785 2294,1784 2294,1782 2293,1781 2293,1779 2292,1778 2292,1776 2291,1775 2291,1774 2290,1773 2290,1771 2289,1770 2289,1768 2288,1767 2288,1764 2287,1763 2287,1761 2286,1760 2286,1759 2285,1758 2285,1756 2284,1755 2284,1754 2283,1753 2283,1751 2282,1750 2282,1749 2281,1748 2281,1746 2280,1745 2280,1742 2279,1741 2279,1739 2278,1738 2278,1736 2277,1735 2277,1734 2276,1733 2276,1732 2275,1731 2275,1730 2273,1728 2273,1727 2272,1726 2272,1724 2271,1723 2271,1721 2270,1720 2270,1718 2269,1717 2269,1714 2268,1713 2268,1711 2267,1710 2267,1708 2266,1707 2266,1706 2265,1705 2265,1703 2264,1702 2264,1701 2263,1700 2263,1699 2262,1698 2262,1697 2261,1696 2261,1695 2260,1694 2260,1692 2259,1691 2259,1689 2258,1688 2258,1686 2257,1685 2257,1683 2256,1682 2256,1680 2255,1679 2255,1677 2254,1676 2254,1674 2253,1673 2253,1672 2252,1671 2252,1670 2251,1669 2251,1667 2250,1666 2250,1665 2249,1664 2249,1663 2248,1662 2248,1661 2247,1660 2247,1659 2246,1658 2246,1657 2245,1656 2245,1654 2244,1653 2244,1651 2243,1650 2243,1648 2242,1647 2242,1645 2241,1644 2241,1642 2240,1641 2240,1638 2239,1637 2239,1635 2238,1634 2238,1632 2237,1631 2237,1629 2236,1628 2236,1626 2235,1625 2235,1624 2234,1623 2234,1621 2233,1620 2233,1618 2232,1617 2232,1616 2231,1615 2231,1613 2230,1612 2230,1611 2229,1610 2229,1609 2228,1608 2228,1606 2227,1605 2227,1604 2226,1603 2226,1602 2225,1601 2225,1599 2224,1598 2224,1597 2223,1596 2223,1594 2222,1593 2222,1591 2221,1590 2221,1588 2220,1587 2220,1585 2219,1584 2219,1582 2218,1581 2218,1579 2217,1578 2217,1577 2216,1576 2216,1574 2215,1573 2215,1572 2214,1571 2214,1569 2213,1568 2213,1566 2212,1565 2212,1564 2211,1563 2211,1562 2210,1561 2210,1559 2209,1558 2209,1557 2208,1556 2208,1554 2207,1553 2207,1551 2206,1550 2206,1549 2205,1548 2205,1547 2204,1546 2204,1544 2203,1543 2203,1542 2202,1541 2202,1539 2201,1538 2201,1537 2200,1536 2200,1534 2199,1533 2199,1530 2198,1529 2198,1527 2197,1526 2197,1524 2196,1523 2196,1520 2195,1519 2195,1518 2194,1517 2194,1515 2193,1514 2193,1513 2192,1512 2192,1510 2191,1509 2191,1508 2190,1507 2190,1506 2189,1505 2189,1504 2186,1501 2185,1501 2184,1500 2182,1500 2181,1499 2157,1499 2156,1498 2138,1498 2137,1499 2108,1499 2107,1498 2086,1498 2085,1497 2082,1497 2081,1498 2076,1498 2075,1497 1992,1497 1991,1498 1889,1498 1888,1497 1849,1497 1848,1498 1835,1498 1834,1497 1771,1497 1770,1498 1754,1498 1753,1497 1687,1497 1686,1496 1675,1496 1674,1497 1668,1497 1667,1496 1661,1496 1660,1495 1654,1495 1653,1496 1641,1496 1640,1495 1634,1495 1633,1494 1632,1494 1631,1495 1608,1495 1607,1496 1578,1496 1577,1497 1574,1497 1573,1496 1564,1496 1563,1495 1561,1495 1560,1496 1518,1496 1517,1495 1510,1495 1509,1496 1496,1496 1495,1497 1483,1497 1482,1498 1481,1498 1480,1497 1475,1497 1474,1496 1458,1496 1457,1497 1453,1497 1452,1496 1439,1496 1438,1497 1427,1497 1426,1496 1376,1496 1375,1495 1369,1495 1368,1496 1356,1496 1355,1495 1343,1495 1342,1496 1333,1496 1332,1495 1292,1495 1291,1496 1290,1495 1274,1495 1273,1496 1270,1496 1269,1497 1262,1497 1261,1496 1256,1496 1255,1495 1251,1495 1250,1496 1223,1496 1222,1497 1216,1497 1215,1496 1209,1496 1208,1495 1204,1495 1203,1496 1162,1496 1161,1495 1155,1495 1154,1496 1136,1496 1135,1495 1133,1495 1132,1496 1121,1496 1120,1495 1114,1495 1113,1494" fill="rgba(235,157,37,0.3)" stroke="rgb(235,157,37)" stroke-width="2" data-block-id="0007" data-name="b-0009" /><text x="1784" y="1674" text-anchor="middle" dominant-baseline="middle" class="block-label" fill="rgb(235,157,37)" stroke="white" stroke-width="3" paint-order="stroke">b-0009</text><polygon points="1628,1019 1627,1020 1621,1020 1620,1021 1617,1021 1616,1022 1608,1022 1607,1023 1593,1023 1592,1022 1583,1022 1582,1023 1570,1023 1569,1022 1548,1022 1547,1021 1537,1021 1536,1022 1459,1022 1458,1021 1435,1021 1434,1022 1431,1022 1430,1021 1404,1021 1403,1022 1393,1022 1392,1023 1361,1023 1360,1022 1357,1022 1356,1021 1353,1021 1352,1020 1344,1020 1343,1021 1329,1021 1328,1020 1310,1020 1309,1021 1296,1021 1295,1022 1282,1022 1281,1021 1265,1021 1264,1022 1260,1022 1259,1023 1257,1023 1256,1024 1253,1024 1252,1023 1250,1023 1249,1022 1248,1022 1247,1021 1245,1021 1244,1020 1240,1020 1239,1021 1237,1021 1236,1022 1231,1022 1230,1023 1213,1023 1212,1022 1185,1022 1184,1023 1169,1023 1168,1022 1110,1022 1109,1021 1090,1021 1089,1022 1073,1022 1072,1021 1055,1021 1054,1020 1050,1020 1049,1021 996,1021 995,1022 993,1022 993,1023 991,1025 991,1028 990,1029 990,1042 989,1043 989,1062 990,1063 990,1069 989,1070 989,1091 990,1092 990,1105 989,1106 989,1112 988,1113 988,1115 987,1116 987,1118 986,1119 986,1120 985,1121 985,1122 984,1123 984,1124 983,1125 983,1130 982,1131 982,1135 983,1136 983,1137 986,1140 986,1141 987,1142 987,1143 988,1144 988,1146 989,1147 989,1152 990,1153 990,1161 989,1162 989,1164 988,1165 988,1166 987,1167 987,1168 983,1172 983,1174 982,1175 982,1179 981,1180 981,1185 982,1186 982,1188 983,1189 983,1191 984,1192 984,1193 985,1194 985,1195 986,1196 986,1197 987,1198 987,1199 988,1200 988,1201 989,1202 989,1203 990,1204 990,1209 989,1210 989,1212 988,1213 988,1214 987,1215 987,1216 986,1217 986,1219 985,1220 985,1224 984,1225 984,1227 983,1228 983,1232 984,1233 984,1234 985,1235 985,1237 986,1238 986,1240 987,1241 987,1243 988,1244 988,1246 989,1247 989,1249 990,1250 990,1258 989,1259 989,1263 988,1264 988,1314 987,1315 987,1318 986,1319 986,1320 981,1325 981,1328 985,1332 985,1333 986,1334 986,1335 987,1336 987,1341 986,1342 986,1343 985,1344 985,1345 982,1348 982,1351 983,1352 984,1352 987,1355 987,1356 989,1358 989,1359 990,1360 990,1361 998,1369 999,1369 1000,1370 1001,1370 1002,1371 1003,1371 1004,1372 1042,1372 1043,1373 1059,1373 1060,1374 1078,1374 1079,1373 1089,1373 1090,1374 1145,1374 1146,1375 1237,1375 1238,1376 1305,1376 1306,1377 1318,1377 1319,1376 1331,1376 1332,1377 1350,1377 1351,1376 1356,1376 1357,1375 1362,1375 1363,1374 1369,1374 1370,1373 1373,1373 1374,1374 1375,1374 1376,1375 1379,1375 1380,1376 1382,1376 1383,1377 1412,1377 1413,1376 1430,1376 1431,1377 1434,1377 1435,1376 1465,1376 1466,1375 1467,1375 1468,1376 1473,1376 1474,1377 1478,1377 1479,1378 1481,1378 1482,1377 1488,1377 1489,1376 1496,1376 1497,1377 1511,1377 1512,1376 1517,1376 1518,1377 1521,1377 1522,1378 1525,1378 1526,1379 1560,1379 1561,1378 1565,1378 1566,1379 1591,1379 1592,1380 1604,1380 1605,1379 1615,1379 1616,1380 1628,1380 1629,1379 1635,1379 1636,1378 1641,1378 1642,1377 1649,1377 1650,1376 1663,1376 1664,1377 1675,1377 1676,1376 1687,1376 1688,1377 1701,1377 1702,1376 1709,1376 1710,1377 1716,1377 1717,1378 1719,1378 1720,1377 1727,1377 1728,1376 1731,1376 1732,1377 1738,1377 1739,1378 1745,1378 1746,1377 1760,1377 1761,1378 1768,1378 1769,1377 1772,1377 1773,1376 1776,1376 1777,1375 1778,1375 1779,1376 1782,1376 1783,1377 1787,1377 1788,1378 1791,1378 1792,1377 1798,1377 1799,1376 1801,1376 1802,1377 1807,1377 1808,1378 1822,1378 1823,1377 1828,1377 1829,1378 1841,1378 1842,1377 1854,1377 1855,1378 1889,1378 1890,1377 1899,1377 1900,1378 1905,1378 1906,1379 1915,1379 1916,1378 1940,1378 1941,1377 1946,1377 1947,1378 1953,1378 1954,1379 1987,1379 1988,1378 1992,1378 1993,1379 1998,1379 1999,1380 2013,1380 2014,1379 2016,1379 2017,1380 2034,1380 2035,1379 2042,1379 2043,1380 2051,1380 2052,1381 2053,1380 2080,1380 2081,1379 2108,1379 2109,1378 2114,1378 2115,1377 2118,1377 2119,1376 2122,1376 2123,1375 2124,1375 2124,1374 2125,1373 2125,1369 2124,1368 2124,1365 2123,1364 2123,1352 2124,1351 2123,1350 2123,1348 2122,1347 2122,1346 2121,1345 2121,1344 2120,1343 2120,1342 2119,1341 2119,1340 2118,1339 2118,1337 2117,1336 2117,1335 2116,1334 2116,1333 2115,1332 2115,1331 2114,1330 2114,1329 2113,1328 2113,1321 2112,1320 2112,1312 2110,1310 2110,1309 2108,1307 2108,1306 2106,1304 2106,1303 2105,1302 2105,1300 2104,1299 2104,1297 2103,1296 2103,1294 2102,1293 2102,1290 2101,1289 2101,1281 2100,1280 2100,1277 2099,1276 2099,1275 2097,1273 2097,1272 2093,1268 2093,1266 2092,1265 2092,1261 2091,1260 2091,1255 2090,1254 2090,1251 2089,1250 2089,1248 2088,1247 2088,1244 2087,1243 2087,1242 2086,1241 2086,1240 2085,1239 2085,1238 2083,1236 2083,1235 2081,1233 2081,1231 2080,1230 2080,1229 2079,1228 2079,1226 2078,1225 2078,1223 2077,1222 2077,1220 2076,1219 2076,1214 2075,1213 2075,1208 2074,1207 2074,1206 2073,1205 2073,1204 2072,1203 2072,1202 2071,1201 2071,1199 2070,1198 2070,1195 2069,1194 2069,1192 2068,1191 2068,1190 2067,1189 2067,1187 2066,1186 2066,1184 2065,1183 2065,1180 2064,1179 2064,1174 2063,1173 2063,1171 2061,1169 2061,1168 2059,1166 2059,1165 2058,1164 2058,1163 2057,1162 2057,1160 2056,1159 2056,1157 2055,1156 2055,1154 2054,1153 2054,1151 2053,1150 2053,1147 2052,1146 2052,1137 2051,1136 2051,1135 2050,1134 2050,1133 2049,1132 2049,1131 2048,1130 2048,1129 2047,1128 2047,1127 2046,1126 2046,1124 2045,1123 2045,1121 2044,1120 2044,1119 2043,1118 2043,1117 2042,1116 2042,1114 2041,1113 2041,1112 2040,1111 2040,1108 2039,1107 2039,1105 2038,1104 2038,1101 2037,1100 2037,1098 2035,1096 2035,1095 2033,1093 2033,1092 2032,1091 2032,1090 2031,1089 2031,1088 2030,1087 2030,1086 2029,1085 2029,1083 2028,1082 2028,1081 2027,1080 2027,1079 2026,1078 2026,1076 2025,1075 2025,1073 2024,1072 2024,1067 2023,1066 2023,1062 2022,1061 2022,1058 2021,1057 2021,1053 2020,1052 2020,1050 2019,1049 2019,1047 2018,1046 2018,1045 2017,1044 2017,1042 2016,1041 2016,1040 2014,1038 2014,1037 2011,1034 2010,1034 2005,1029 2003,1029 2002,1028 1998,1028 1997,1029 1987,1029 1986,1028 1978,1028 1977,1027 1965,1027 1964,1026 1954,1026 1953,1027 1948,1027 1947,1028 1935,1028 1934,1027 1904,1027 1903,1026 1890,1026 1889,1025 1880,1025 1879,1026 1875,1026 1874,1027 1872,1027 1871,1026 1869,1026 1868,1025 1867,1025 1866,1024 1865,1024 1864,1023 1862,1023 1861,1022 1855,1022 1854,1023 1842,1023 1841,1024 1834,1024 1833,1023 1827,1023 1826,1022 1822,1022 1821,1023 1767,1023 1766,1022 1723,1022 1722,1021 1710,1021 1709,1022 1689,1022 1688,1021 1668,1021 1667,1020 1642,1020 1641,1019" fill="rgba(129,191,187,0.3)" stroke="rgb(129,191,187)" stroke-width="2" data-block-id="0008" data-name="b-0010" /><text x="1622" y="1210" text-anchor="middle" dominant-baseline="middle" class="block-label" fill="rgb(129,191,187)" stroke="white" stroke-width="3" paint-order="stroke">b-0010</text><polygon points="1057,545 1056,546 1035,546 1034,547 1031,547 1030,548 1024,548 1023,547 1009,547 1008,548 1005,548 1004,549 1003,549 1000,552 1000,553 999,554 999,555 998,556 998,560 997,561 997,574 996,575 996,585 995,586 995,605 994,606 994,617 995,618 995,621 996,622 996,626 995,627 995,628 994,629 994,631 993,632 993,633 992,634 992,639 993,640 993,643 994,644 994,651 993,652 993,656 992,657 992,674 991,675 991,690 992,691 992,710 993,711 993,714 994,715 994,720 995,721 995,732 996,733 996,852 995,853 995,858 994,859 994,869 995,870 995,879 994,880 994,891 993,892 993,897 994,898 994,899 995,900 995,901 998,904 999,904 1001,906 1002,906 1003,907 1021,907 1022,908 1064,908 1065,909 1105,909 1106,910 1129,910 1130,909 1140,909 1141,910 1149,910 1150,911 1162,911 1163,910 1179,910 1180,911 1235,911 1236,912 1298,912 1299,911 1307,911 1308,912 1322,912 1323,913 1335,913 1336,914 1339,914 1340,913 1353,913 1354,914 1361,914 1362,915 1384,915 1385,914 1390,914 1391,915 1396,915 1397,914 1406,914 1407,913 1417,913 1418,912 1420,912 1421,913 1426,913 1427,914 1437,914 1438,915 1446,915 1447,914 1450,914 1451,913 1453,913 1454,912 1459,912 1460,913 1465,913 1466,914 1477,914 1478,915 1510,915 1511,916 1523,916 1524,915 1533,915 1534,916 1540,916 1541,915 1548,915 1549,914 1582,914 1583,915 1614,915 1615,916 1620,916 1621,917 1632,917 1633,916 1679,916 1680,915 1706,915 1707,916 1708,915 1809,915 1810,916 1824,916 1825,917 1826,917 1827,916 1848,916 1849,915 1850,915 1851,916 1865,916 1866,915 1878,915 1879,916 1896,916 1897,915 1945,915 1946,916 1958,916 1960,914 1961,914 1963,912 1963,911 1964,910 1964,907 1963,906 1963,903 1962,902 1962,898 1961,897 1961,895 1960,894 1960,891 1959,890 1959,888 1958,887 1958,885 1957,884 1957,882 1956,881 1956,880 1955,879 1955,878 1954,877 1954,875 1953,874 1953,873 1952,872 1952,870 1951,869 1951,867 1950,866 1950,864 1949,863 1949,861 1948,860 1948,859 1947,858 1947,856 1946,855 1946,854 1945,853 1945,851 1944,850 1944,849 1943,848 1943,847 1942,846 1942,845 1941,844 1941,843 1940,842 1940,841 1939,840 1939,838 1938,837 1938,836 1937,835 1937,833 1936,832 1936,829 1935,828 1935,826 1934,825 1934,822 1933,821 1933,819 1932,818 1932,816 1931,815 1931,814 1930,813 1930,811 1929,810 1929,809 1928,808 1928,806 1927,805 1927,803 1926,802 1926,801 1925,800 1925,798 1924,797 1924,795 1923,794 1923,792 1922,791 1922,789 1921,788 1921,786 1920,785 1920,784 1919,783 1919,782 1918,781 1918,780 1916,778 1916,777 1915,776 1915,774 1914,773 1914,772 1913,771 1913,768 1912,767 1912,764 1911,763 1911,759 1910,758 1910,755 1909,754 1909,752 1908,751 1908,750 1907,749 1907,747 1906,746 1906,745 1905,744 1905,742 1904,741 1904,739 1903,738 1903,736 1902,735 1902,733 1901,732 1901,730 1900,729 1900,728 1899,727 1899,725 1898,724 1898,723 1897,722 1897,721 1896,720 1896,718 1895,717 1895,716 1894,715 1894,714 1893,713 1893,712 1892,711 1892,710 1891,709 1891,707 1890,706 1890,704 1889,703 1889,700 1888,699 1888,697 1887,696 1887,693 1886,692 1886,689 1885,688 1885,686 1884,685 1884,683 1883,682 1883,681 1882,680 1882,679 1881,678 1881,677 1880,676 1880,674 1879,673 1879,671 1878,670 1878,668 1877,667 1877,665 1876,664 1876,662 1875,661 1875,659 1874,658 1874,656 1873,655 1873,654 1872,653 1872,652 1871,651 1871,650 1870,649 1870,648 1869,647 1869,645 1868,644 1868,643 1867,642 1867,640 1866,639 1866,638 1865,637 1865,635 1864,634 1864,632 1863,631 1863,630 1862,629 1862,627 1861,626 1861,625 1860,624 1860,622 1859,621 1859,618 1858,617 1858,614 1857,613 1857,611 1856,610 1856,609 1855,608 1855,607 1854,606 1854,605 1853,604 1853,603 1852,602 1852,600 1851,599 1851,597 1850,596 1850,594 1849,593 1849,591 1848,590 1848,589 1847,588 1847,586 1846,585 1846,584 1845,583 1845,582 1844,581 1844,579 1843,578 1843,576 1842,575 1842,574 1841,573 1841,572 1840,571 1840,569 1839,568 1839,566 1838,565 1838,563 1837,562 1837,561 1834,558 1833,558 1832,557 1830,557 1829,556 1826,556 1825,555 1808,555 1807,556 1735,556 1734,555 1704,555 1703,556 1701,556 1700,557 1699,557 1698,558 1697,558 1696,559 1692,559 1691,558 1690,558 1689,557 1687,557 1686,556 1685,556 1684,555 1679,555 1678,556 1674,556 1673,557 1666,557 1665,558 1644,558 1643,557 1640,557 1639,556 1636,556 1635,555 1632,555 1631,556 1622,556 1621,557 1615,557 1614,558 1604,558 1603,559 1596,559 1595,558 1558,558 1557,559 1552,559 1551,558 1549,558 1548,557 1546,557 1545,556 1544,556 1543,555 1541,555 1540,554 1534,554 1533,555 1510,555 1509,554 1497,554 1496,553 1492,553 1491,554 1484,554 1483,555 1478,555 1477,554 1475,554 1474,553 1472,553 1471,552 1450,552 1449,551 1442,551 1441,552 1436,552 1435,553 1427,553 1426,552 1403,552 1402,551 1391,551 1390,552 1381,552 1380,551 1376,551 1375,550 1368,550 1367,551 1357,551 1356,550 1341,550 1340,551 1336,551 1335,550 1331,550 1330,549 1320,549 1319,550 1316,550 1315,551 1311,551 1310,550 1305,550 1304,549 1300,549 1299,550 1293,550 1292,551 1283,551 1282,550 1276,550 1275,551 1269,551 1268,552 1263,552 1262,551 1256,551 1255,550 1242,550 1241,549 1235,549 1234,548 1225,548 1224,549 1213,549 1212,548 1199,548 1198,549 1190,549 1189,548 1177,548 1176,549 1169,549 1168,548 1165,548 1164,547 1161,547 1160,546 1148,546 1147,547 1142,547 1141,548 1140,548 1136,552 1136,553 1133,556 1131,556 1130,555 1126,555 1125,554 1122,554 1121,553 1120,553 1119,552 1118,552 1117,551 1115,551 1114,550 1107,550 1106,551 1104,551 1103,552 1098,552 1096,550 1095,550 1093,548 1092,548 1091,547 1088,547 1087,546 1086,546 1085,547 1082,547 1081,548 1073,548 1072,547 1070,547 1069,546 1067,546 1066,545" fill="rgba(20,160,203,0.3)" stroke="rgb(20,160,203)" stroke-width="2" data-block-id="0009" data-name="b-0011" /><text x="1568" y="703" text-anchor="middle" dominant-baseline="middle" class="block-label" fill="rgb(20,160,203)" stroke="white" stroke-width="3" paint-order="stroke">b-0011</text><polygon points="2041,557 2039,559 2039,560 2038,561 2038,567 2039,568 2039,570 2040,571 2040,573 2041,574 2041,575 2042,576 2042,580 2043,581 2043,584 2044,585 2044,588 2045,589 2045,590 2046,591 2046,593 2047,594 2047,596 2048,597 2048,599 2049,600 2049,602 2050,603 2050,604 2051,605 2051,607 2052,608 2052,610 2054,612 2054,613 2056,615 2056,616 2057,617 2057,619 2058,620 2058,622 2059,623 2059,627 2060,628 2060,631 2061,632 2061,634 2062,635 2062,637 2063,638 2063,639 2064,640 2064,642 2066,644 2066,645 2067,646 2067,647 2068,648 2068,650 2069,651 2069,653 2070,654 2070,657 2071,658 2071,660 2072,661 2072,662 2073,663 2073,665 2074,666 2074,668 2075,669 2075,670 2076,671 2076,673 2077,674 2077,675 2078,676 2078,677 2079,678 2079,679 2080,680 2080,681 2081,682 2081,683 2082,684 2082,685 2083,686 2083,688 2084,689 2084,691 2085,692 2085,695 2086,696 2086,699 2087,700 2087,703 2088,704 2088,706 2089,707 2089,709 2090,710 2090,711 2091,712 2091,713 2092,714 2092,715 2093,716 2093,719 2094,720 2094,722 2095,723 2095,725 2096,726 2096,728 2098,730 2098,731 2099,732 2099,733 2101,735 2101,736 2108,743 2108,744 2109,745 2109,747 2110,748 2110,752 2111,753 2111,756 2112,757 2112,758 2113,759 2113,761 2114,762 2114,763 2115,764 2115,766 2116,767 2116,769 2115,770 2115,777 2116,778 2116,780 2117,781 2117,782 2118,783 2118,786 2119,787 2119,790 2120,791 2120,793 2121,794 2121,797 2122,798 2122,800 2123,801 2123,804 2124,805 2124,806 2125,807 2125,809 2126,810 2126,812 2128,814 2128,815 2129,816 2129,818 2130,819 2130,821 2131,822 2131,825 2132,826 2132,827 2133,828 2133,830 2134,831 2134,832 2135,833 2135,835 2136,836 2136,837 2137,838 2137,839 2138,840 2138,842 2139,843 2139,844 2140,845 2140,846 2141,847 2141,849 2142,850 2142,852 2143,853 2143,854 2144,855 2144,857 2145,858 2145,861 2146,862 2146,864 2147,865 2147,868 2148,869 2148,870 2149,871 2149,874 2150,875 2150,879 2151,880 2151,883 2152,884 2152,885 2153,886 2153,888 2154,889 2154,891 2155,892 2155,894 2156,895 2156,897 2157,898 2157,899 2158,900 2158,902 2159,903 2159,904 2160,905 2160,906 2162,908 2162,909 2166,913 2167,913 2169,915 2169,916 2171,918 2172,918 2173,919 2180,919 2181,920 2201,920 2202,919 2272,919 2273,920 2314,920 2315,919 2341,919 2342,920 2417,920 2418,921 2433,921 2434,920 2444,920 2445,919 2447,919 2449,917 2449,915 2450,914 2450,913 2451,912 2451,910 2452,909 2452,898 2453,897 2453,894 2454,893 2454,892 2455,891 2455,889 2456,888 2456,882 2457,881 2457,864 2456,863 2456,852 2457,851 2457,850 2456,849 2456,769 2455,768 2455,761 2456,760 2456,755 2455,754 2455,750 2454,749 2454,747 2453,746 2453,745 2452,744 2452,743 2453,742 2453,740 2455,738 2455,737 2456,736 2456,733 2457,732 2457,700 2456,699 2456,691 2457,690 2457,686 2458,685 2458,676 2457,675 2457,661 2458,660 2457,659 2457,653 2456,652 2456,649 2455,648 2456,647 2456,642 2457,641 2457,638 2458,637 2458,627 2457,626 2457,622 2458,621 2458,615 2459,614 2459,608 2458,607 2458,595 2459,594 2459,590 2460,589 2460,583 2459,582 2459,575 2458,574 2458,572 2457,571 2457,570 2456,569 2456,568 2452,564 2451,564 2450,563 2448,563 2447,562 2440,562 2439,561 2395,561 2394,560 2373,560 2372,561 2356,561 2355,560 2348,560 2347,559 2329,559 2328,560 2295,560 2294,559 2190,559 2189,558 2180,558 2179,559 2165,559 2164,558 2097,558 2096,557 2081,557 2080,558 2074,558 2073,557" fill="rgba(189,174,189,0.3)" stroke="rgb(189,174,189)" stroke-width="2" data-block-id="0010" data-name="b-0017" /><text x="2208" y="730" text-anchor="middle" dominant-baseline="middle" class="block-label" fill="rgb(189,174,189)" stroke="white" stroke-width="3" paint-order="stroke">b-0017</text><polygon points="2230,1031 2229,1032 2221,1032 2220,1033 2219,1033 2217,1035 2217,1036 2216,1037 2216,1039 2217,1040 2217,1042 2218,1043 2218,1044 2219,1045 2219,1046 2220,1047 2220,1048 2221,1049 2221,1050 2222,1051 2222,1052 2223,1053 2223,1055 2224,1056 2224,1058 2225,1059 2225,1061 2226,1062 2226,1063 2227,1064 2227,1065 2228,1066 2228,1067 2229,1068 2229,1070 2230,1071 2230,1073 2231,1074 2231,1076 2232,1077 2232,1078 2233,1079 2233,1081 2234,1082 2234,1084 2235,1085 2235,1087 2236,1088 2236,1090 2237,1091 2237,1092 2238,1093 2238,1095 2239,1096 2239,1097 2240,1098 2240,1099 2241,1100 2241,1102 2242,1103 2242,1105 2243,1106 2243,1108 2244,1109 2244,1111 2245,1112 2245,1114 2246,1115 2246,1117 2247,1118 2247,1119 2248,1120 2248,1122 2249,1123 2249,1125 2250,1126 2250,1127 2251,1128 2251,1130 2252,1131 2252,1132 2253,1133 2253,1135 2254,1136 2254,1137 2255,1138 2255,1139 2256,1140 2256,1142 2257,1143 2257,1145 2258,1146 2258,1148 2259,1149 2259,1150 2260,1151 2260,1153 2261,1154 2261,1156 2262,1157 2262,1158 2263,1159 2263,1161 2264,1162 2264,1164 2265,1165 2265,1166 2266,1167 2266,1169 2267,1170 2267,1172 2268,1173 2268,1175 2269,1176 2269,1178 2270,1179 2270,1181 2271,1182 2271,1184 2272,1185 2272,1186 2273,1187 2273,1189 2274,1190 2274,1191 2275,1192 2275,1194 2276,1195 2276,1196 2277,1197 2277,1198 2278,1199 2278,1201 2279,1202 2279,1203 2280,1204 2280,1205 2281,1206 2281,1207 2282,1208 2282,1210 2283,1211 2283,1213 2284,1214 2284,1216 2285,1217 2285,1219 2286,1220 2286,1222 2287,1223 2287,1225 2288,1226 2288,1228 2289,1229 2289,1231 2290,1232 2290,1234 2291,1235 2291,1236 2292,1237 2292,1239 2293,1240 2293,1241 2294,1242 2294,1244 2295,1245 2295,1247 2296,1248 2296,1250 2297,1251 2297,1253 2298,1254 2298,1255 2299,1256 2299,1257 2300,1258 2300,1259 2301,1260 2301,1262 2302,1263 2302,1264 2303,1265 2303,1267 2304,1268 2304,1270 2305,1271 2305,1273 2306,1274 2306,1276 2307,1277 2307,1279 2308,1280 2308,1282 2309,1283 2309,1284 2310,1285 2310,1287 2311,1288 2311,1290 2312,1291 2312,1292 2313,1293 2313,1295 2314,1296 2314,1297 2315,1298 2315,1300 2316,1301 2316,1303 2317,1304 2317,1306 2318,1307 2318,1310 2319,1311 2319,1312 2320,1313 2320,1315 2321,1316 2321,1317 2322,1318 2322,1319 2323,1320 2323,1321 2324,1322 2324,1324 2325,1325 2325,1326 2326,1327 2326,1329 2327,1330 2327,1332 2328,1333 2328,1335 2329,1336 2329,1338 2330,1339 2330,1340 2331,1341 2331,1343 2332,1344 2332,1345 2333,1346 2333,1348 2334,1349 2334,1352 2335,1353 2335,1355 2336,1356 2336,1358 2337,1359 2337,1361 2338,1362 2338,1364 2339,1365 2339,1367 2340,1368 2340,1370 2341,1371 2341,1374 2342,1375 2342,1377 2344,1379 2344,1380 2345,1380 2347,1382 2451,1382 2452,1381 2454,1381 2455,1380 2456,1380 2456,1379 2457,1378 2457,1377 2458,1376 2458,1373 2459,1372 2459,1360 2458,1359 2458,1247 2457,1246 2457,1237 2458,1236 2458,1224 2457,1223 2457,1040 2456,1039 2456,1036 2454,1034 2453,1034 2452,1033 2449,1033 2448,1032 2300,1032 2299,1031" fill="rgba(3,53,220,0.3)" stroke="rgb(3,53,220)" stroke-width="2" data-block-id="0011" data-name="b-0033" /><text x="2294" y="1204" text-anchor="middle" dominant-baseline="middle" class="block-label" fill="rgb(3,53,220)" stroke="white" stroke-width="3" paint-order="stroke">b-0033</text><polygon points="2480,1844 2479,1845 2466,1845 2465,1846 2463,1846 2462,1847 2461,1847 2460,1848 2459,1848 2459,1849 2458,1850 2458,1853 2457,1854 2458,1855 2458,1859 2459,1860 2459,1862 2460,1863 2460,1864 2461,1865 2461,1867 2462,1868 2462,1870 2463,1871 2463,1873 2464,1874 2464,1875 2465,1876 2465,1878 2466,1879 2466,1880 2468,1882 2468,1883 2469,1884 2469,1885 2470,1886 2470,1887 2471,1888 2471,1890 2472,1891 2472,1892 2473,1893 2473,1895 2474,1896 2474,1897 2475,1898 2475,1900 2476,1901 2476,1903 2477,1904 2477,1905 2478,1906 2478,1907 2479,1908 2479,1910 2480,1911 2480,1913 2481,1914 2481,1915 2482,1916 2482,1917 2483,1918 2483,1920 2484,1921 2484,1922 2485,1923 2485,1925 2486,1926 2486,1927 2487,1928 2487,1930 2488,1931 2488,1932 2489,1933 2489,1935 2490,1936 2490,1938 2491,1939 2491,1941 2492,1942 2492,1944 2493,1945 2493,1946 2494,1947 2494,1949 2495,1950 2495,1952 2496,1953 2496,1954 2497,1955 2497,1957 2498,1958 2498,1961 2499,1962 2499,1963 2500,1964 2500,1965 2501,1966 2501,1968 2502,1969 2502,1970 2503,1971 2503,1972 2504,1973 2504,1975 2505,1976 2505,1978 2506,1979 2506,1982 2507,1983 2507,1985 2508,1986 2508,1988 2509,1989 2509,1990 2510,1991 2510,1993 2511,1994 2511,1996 2512,1997 2512,1999 2513,2000 2513,2002 2514,2003 2514,2005 2515,2006 2515,2007 2516,2008 2516,2010 2517,2011 2517,2012 2518,2013 2518,2015 2519,2016 2519,2017 2520,2018 2520,2020 2521,2021 2521,2022 2522,2023 2522,2025 2523,2026 2523,2027 2524,2028 2524,2030 2525,2031 2525,2033 2526,2034 2526,2036 2527,2037 2527,2040 2528,2041 2528,2043 2529,2044 2529,2046 2530,2047 2530,2050 2531,2051 2531,2053 2532,2054 2532,2056 2533,2057 2533,2058 2534,2059 2534,2060 2535,2061 2535,2063 2536,2064 2536,2065 2537,2066 2537,2068 2538,2069 2538,2071 2539,2072 2539,2073 2540,2074 2540,2075 2541,2076 2541,2077 2542,2078 2542,2079 2543,2080 2543,2082 2544,2083 2544,2084 2545,2085 2545,2086 2546,2087 2546,2089 2547,2090 2547,2091 2548,2092 2548,2093 2549,2094 2549,2096 2550,2097 2550,2098 2551,2099 2551,2100 2552,2101 2552,2102 2554,2104 2554,2105 2555,2106 2555,2108 2556,2109 2556,2112 2557,2113 2557,2116 2558,2117 2558,2119 2559,2120 2559,2121 2560,2122 2560,2124 2561,2125 2561,2127 2562,2128 2562,2130 2563,2131 2563,2133 2564,2134 2564,2136 2565,2137 2565,2138 2566,2139 2566,2140 2567,2141 2567,2142 2568,2143 2568,2144 2569,2145 2569,2146 2570,2147 2570,2149 2571,2150 2571,2152 2572,2153 2572,2155 2573,2156 2573,2157 2574,2158 2574,2159 2575,2160 2575,2161 2577,2163 2577,2164 2578,2165 2578,2166 2579,2167 2579,2168 2580,2169 2580,2170 2581,2171 2581,2172 2582,2173 2582,2175 2583,2176 2583,2178 2584,2179 2584,2180 2585,2181 2585,2183 2586,2184 2586,2186 2587,2187 2587,2188 2588,2189 2588,2190 2589,2191 2589,2192 2590,2193 2590,2195 2591,2196 2591,2197 2592,2198 2592,2199 2593,2200 2593,2202 2594,2203 2594,2204 2595,2205 2595,2207 2596,2208 2596,2210 2597,2211 2597,2212 2598,2213 2598,2215 2599,2216 2599,2218 2600,2219 2600,2220 2601,2221 2601,2223 2602,2224 2602,2226 2604,2228 2604,2229 2605,2230 2605,2232 2606,2233 2606,2234 2607,2235 2607,2236 2608,2237 2608,2238 2609,2239 2609,2241 2610,2242 2610,2243 2611,2244 2611,2246 2612,2247 2612,2249 2613,2250 2613,2253 2614,2254 2614,2256 2615,2257 2615,2259 2616,2260 2616,2262 2617,2263 2617,2265 2618,2266 2618,2268 2619,2269 2619,2271 2620,2272 2620,2274 2621,2275 2621,2276 2622,2277 2622,2279 2624,2281 2624,2282 2625,2283 2625,2285 2626,2286 2626,2288 2627,2289 2627,2291 2628,2292 2628,2294 2629,2295 2629,2297 2630,2298 2630,2299 2631,2300 2631,2302 2632,2303 2632,2305 2633,2306 2633,2308 2634,2309 2634,2311 2635,2312 2635,2313 2636,2314 2636,2315 2637,2316 2637,2318 2638,2319 2638,2320 2639,2321 2639,2322 2640,2323 2640,2325 2641,2326 2641,2328 2642,2329 2642,2331 2643,2332 2643,2334 2644,2335 2644,2336 2645,2337 2645,2339 2646,2340 2646,2342 2647,2343 2647,2345 2648,2346 2648,2348 2649,2349 2649,2352 2650,2353 2650,2354 2651,2355 2651,2356 2652,2357 2652,2358 2653,2359 2653,2361 2654,2362 2654,2363 2655,2364 2655,2367 2656,2368 2656,2371 2657,2372 2657,2375 2658,2376 2658,2378 2659,2379 2659,2381 2660,2382 2660,2383 2661,2384 2661,2386 2662,2387 2662,2389 2663,2390 2663,2392 2664,2393 2664,2396 2665,2397 2665,2399 2666,2400 2666,2402 2667,2403 2667,2405 2668,2406 2668,2409 2669,2410 2669,2412 2670,2413 2670,2416 2671,2417 2671,2420 2672,2421 2672,2423 2673,2424 2673,2427 2674,2428 2674,2429 2675,2430 2675,2431 2676,2432 2676,2434 2677,2435 2677,2437 2678,2438 2678,2439 2679,2440 2679,2442 2680,2443 2680,2446 2681,2447 2681,2449 2682,2450 2682,2453 2683,2454 2683,2455 2684,2456 2684,2458 2685,2459 2685,2461 2686,2462 2686,2465 2687,2466 2687,2469 2688,2470 2688,2473 2689,2474 2689,2475 2690,2476 2690,2477 2691,2478 2691,2480 2692,2481 2692,2482 2693,2483 2693,2485 2694,2486 2694,2488 2695,2489 2695,2491 2696,2492 2696,2494 2697,2495 2697,2496 2698,2497 2698,2499 2699,2500 2699,2503 2700,2504 2700,2506 2701,2507 2701,2510 2702,2511 2702,2513 2703,2514 2703,2515 2704,2516 2704,2518 2705,2519 2705,2520 2706,2521 2706,2522 2707,2523 2707,2524 2708,2525 2708,2526 2709,2527 2709,2528 2710,2529 2710,2530 2711,2531 2711,2533 2712,2534 2712,2536 2713,2537 2713,2539 2714,2540 2714,2542 2715,2543 2715,2544 2716,2545 2716,2546 2717,2547 2717,2549 2718,2550 2718,2553 2719,2554 2719,2556 2720,2557 2720,2558 2722,2560 2722,2561 2723,2562 2723,2563 2724,2564 2724,2566 2725,2567 2725,2569 2726,2570 2726,2572 2727,2573 2727,2575 2728,2576 2728,2578 2729,2579 2729,2581 2730,2582 2730,2584 2731,2585 2731,2588 2732,2589 2732,2592 2733,2593 2733,2594 2734,2595 2734,2596 2735,2597 2735,2598 2736,2599 2736,2601 2737,2602 2737,2603 2738,2604 2738,2605 2739,2606 2739,2607 2741,2609 2741,2610 2742,2611 2742,2612 2744,2614 2744,2615 2745,2616 2745,2617 2746,2618 2746,2620 2747,2621 2747,2623 2748,2624 2748,2627 2749,2628 2749,2631 2750,2632 2750,2635 2751,2636 2751,2639 2752,2640 2752,2641 2754,2643 2759,2643 2760,2642 2764,2642 2765,2641 2768,2641 2769,2640 2771,2640 2772,2639 2775,2639 2776,2638 2777,2638 2779,2636 2779,2635 2780,2634 2780,2632 2781,2631 2781,2627 2780,2626 2780,2624 2779,2623 2779,2622 2778,2621 2778,2620 2777,2619 2777,2617 2776,2616 2776,2615 2775,2614 2775,2613 2774,2612 2774,2610 2773,2609 2773,2607 2772,2606 2772,2604 2771,2603 2771,2601 2770,2600 2770,2599 2769,2598 2769,2596 2768,2595 2768,2593 2767,2592 2767,2590 2766,2589 2766,2586 2765,2585 2765,2582 2764,2581 2764,2579 2763,2578 2763,2577 2762,2576 2762,2575 2761,2574 2761,2572 2760,2571 2760,2569 2759,2568 2759,2567 2758,2566 2758,2565 2757,2564 2757,2563 2756,2562 2756,2561 2755,2560 2755,2558 2754,2557 2754,2556 2753,2555 2753,2553 2752,2552 2752,2551 2751,2550 2751,2548 2750,2547 2750,2545 2749,2544 2749,2542 2748,2541 2748,2538 2747,2537 2747,2535 2746,2534 2746,2531 2745,2530 2745,2528 2744,2527 2744,2526 2743,2525 2743,2523 2742,2522 2742,2521 2741,2520 2741,2518 2740,2517 2740,2516 2739,2515 2739,2513 2738,2512 2738,2510 2737,2509 2737,2507 2736,2506 2736,2505 2735,2504 2735,2503 2734,2502 2734,2500 2733,2499 2733,2497 2732,2496 2732,2494 2731,2493 2731,2491 2730,2490 2730,2488 2729,2487 2729,2485 2728,2484 2728,2483 2727,2482 2727,2481 2726,2480 2726,2479 2725,2478 2725,2477 2724,2476 2724,2474 2723,2473 2723,2472 2722,2471 2722,2469 2721,2468 2721,2466 2720,2465 2720,2463 2719,2462 2719,2461 2718,2460 2718,2458 2717,2457 2717,2456 2716,2455 2716,2453 2715,2452 2715,2449 2714,2448 2714,2445 2713,2444 2713,2442 2712,2441 2712,2439 2711,2438 2711,2436 2710,2435 2710,2434 2709,2433 2709,2431 2708,2430 2708,2427 2707,2426 2707,2425 2706,2424 2706,2422 2705,2421 2705,2420 2704,2419 2704,2418 2703,2417 2703,2416 2702,2415 2702,2413 2701,2412 2701,2410 2700,2409 2700,2407 2699,2406 2699,2405 2698,2404 2698,2402 2697,2401 2697,2400 2696,2399 2696,2398 2695,2397 2695,2396 2694,2395 2694,2394 2693,2393 2693,2391 2692,2390 2692,2387 2691,2386 2691,2384 2690,2383 2690,2380 2689,2379 2689,2377 2688,2376 2688,2374 2687,2373 2687,2371 2686,2370 2686,2368 2685,2367 2685,2365 2684,2364 2684,2363 2683,2362 2683,2360 2682,2359 2682,2358 2681,2357 2681,2356 2680,2355 2680,2353 2679,2352 2679,2351 2678,2350 2678,2348 2677,2347 2677,2346 2676,2345 2676,2344 2675,2343 2675,2340 2674,2339 2674,2336 2673,2335 2673,2331 2672,2330 2672,2328 2671,2327 2671,2325 2670,2324 2670,2321 2669,2320 2669,2319 2668,2318 2668,2316 2667,2315 2667,2314 2666,2313 2666,2312 2665,2311 2665,2309 2664,2308 2664,2306 2663,2305 2663,2301 2662,2300 2662,2297 2661,2296 2661,2292 2660,2291 2660,2289 2659,2288 2659,2286 2658,2285 2658,2283 2657,2282 2657,2280 2656,2279 2656,2277 2655,2276 2655,2274 2654,2273 2654,2271 2653,2270 2653,2269 2652,2268 2652,2267 2651,2266 2651,2265 2650,2264 2650,2263 2649,2262 2649,2260 2648,2259 2648,2258 2647,2257 2647,2255 2646,2254 2646,2252 2645,2251 2645,2248 2644,2247 2644,2245 2643,2244 2643,2243 2642,2242 2642,2240 2641,2239 2641,2236 2640,2235 2640,2233 2639,2232 2639,2230 2638,2229 2638,2227 2637,2226 2637,2224 2636,2223 2636,2221 2635,2220 2635,2219 2634,2218 2634,2216 2633,2215 2633,2213 2632,2212 2632,2209 2631,2208 2631,2205 2630,2204 2630,2201 2629,2200 2629,2198 2628,2197 2628,2195 2627,2194 2627,2193 2626,2192 2626,2191 2625,2190 2625,2189 2624,2188 2624,2187 2623,2186 2623,2185 2622,2184 2622,2183 2621,2182 2621,2179 2620,2178 2620,2176 2619,2175 2619,2174 2618,2173 2618,2172 2617,2171 2617,2169 2616,2168 2616,2167 2615,2166 2615,2164 2614,2163 2614,2161 2613,2160 2613,2157 2612,2156 2612,2154 2611,2153 2611,2152 2610,2151 2610,2150 2608,2148 2608,2147 2607,2146 2607,2145 2606,2144 2606,2142 2605,2141 2605,2139 2604,2138 2604,2136 2603,2135 2603,2133 2602,2132 2602,2130 2601,2129 2601,2127 2600,2126 2600,2124 2599,2123 2599,2121 2598,2120 2598,2118 2597,2117 2597,2115 2596,2114 2596,2112 2595,2111 2595,2109 2594,2108 2594,2107 2593,2106 2593,2105 2592,2104 2592,2103 2591,2102 2591,2101 2590,2100 2590,2099 2589,2098 2589,2097 2588,2096 2588,2095 2587,2094 2587,2093 2586,2092 2586,2091 2585,2090 2585,2089 2584,2088 2584,2086 2583,2085 2583,2084 2582,2083 2582,2082 2581,2081 2581,2079 2580,2078 2580,2076 2579,2075 2579,2072 2578,2071 2578,2068 2577,2067 2577,2065 2576,2064 2576,2063 2575,2062 2575,2060 2573,2058 2573,2057 2570,2054 2570,2053 2568,2051 2568,2050 2567,2049 2567,2048 2566,2047 2566,2046 2565,2045 2565,2043 2564,2042 2564,2040 2563,2039 2563,2036 2562,2035 2562,2032 2561,2031 2561,2029 2560,2028 2560,2027 2559,2026 2559,2024 2558,2023 2558,2021 2557,2020 2557,2018 2556,2017 2556,2015 2555,2014 2555,2012 2554,2011 2554,2010 2553,2009 2553,2008 2552,2007 2552,2005 2551,2004 2551,2003 2550,2002 2550,2000 2549,1999 2549,1997 2548,1996 2548,1994 2547,1993 2547,1991 2546,1990 2546,1988 2545,1987 2545,1986 2544,1985 2544,1983 2543,1982 2543,1980 2542,1979 2542,1978 2541,1977 2541,1976 2540,1975 2540,1974 2539,1973 2539,1971 2538,1970 2538,1968 2537,1967 2537,1965 2536,1964 2536,1963 2535,1962 2535,1960 2534,1959 2534,1958 2533,1957 2533,1956 2532,1955 2532,1954 2531,1953 2531,1950 2530,1949 2530,1947 2529,1946 2529,1944 2528,1943 2528,1941 2527,1940 2527,1938 2526,1937 2526,1934 2525,1933 2525,1931 2524,1930 2524,1929 2523,1928 2523,1926 2522,1925 2522,1924 2521,1923 2521,1921 2520,1920 2520,1919 2519,1918 2519,1916 2518,1915 2518,1914 2517,1913 2517,1911 2516,1910 2516,1909 2515,1908 2515,1906 2514,1905 2514,1903 2513,1902 2513,1901 2512,1900 2512,1899 2511,1898 2511,1896 2510,1895 2510,1894 2509,1893 2509,1891 2508,1890 2508,1888 2507,1887 2507,1886 2506,1885 2506,1884 2505,1883 2505,1882 2504,1881 2504,1880 2503,1879 2503,1878 2502,1877 2502,1875 2501,1874 2501,1873 2500,1872 2500,1870 2499,1869 2499,1867 2498,1866 2498,1865 2497,1864 2497,1863 2496,1862 2496,1861 2495,1860 2495,1859 2494,1858 2494,1856 2493,1855 2493,1854 2492,1853 2492,1851 2487,1846 2486,1846 2485,1845 2481,1845" fill="rgba(64,88,70,0.3)" stroke="rgb(64,88,70)" stroke-width="2" data-block-id="0012" data-name="b-0046" /><text x="2620" y="2237" text-anchor="middle" dominant-baseline="middle" class="block-label" fill="rgb(64,88,70)" stroke="white" stroke-width="3" paint-order="stroke">b-0046</text><polygon points="2638,2032 2650,2395 4308,2398 4306,2014" fill="rgba(102,179,92,0.3)" stroke="rgb(102,179,92)" stroke-width="2" data-block-id="0013" data-name="b-0022" /><text x="3475" y="2209" text-anchor="middle" dominant-baseline="middle" class="block-label" fill="rgb(102,179,92)" stroke="white" stroke-width="3" paint-order="stroke">b-0022</text></g>
</svg>