<?xml version='1.0' encoding='utf-8'?>
<svg xmlns="http://www.w3.org/2000/svg" xmlns:atlas="http://example.com/atlas" width="4980" height="3333" viewBox="0 0 4980 3333">
  
  <metadata>
    <atlas:source>
      <atlas:jp2-path>../media/v1/p17.jp2</atlas:jp2-path>
      <atlas:volume>vol1</atlas:volume>
      <atlas:plate-id>p17</atlas:plate-id>
      <atlas:image-width>4980</atlas:image-width>
      <atlas:image-height>3333</atlas:image-height>
    <atlas:angle>12.955348750603951</atlas:angle><atlas:scale>1.3333333333333333</atlas:scale><atlas:pos-x>3058.3843921875914</atlas:pos-x><atlas:pos-y>1634.7959870596262</atlas:pos-y></atlas:source>
  </metadata>

  
  <image id="background" href="file://../media/v1/p17.jp2" width="4980" height="3333" opacity="0.5" />

  <style>
    .block-label { font-family: sans-serif; font-size: 14px; font-weight: bold; }
  </style>

  
  <g id="blocks">
    <polygon points="1135,619 1134,620 1119,620 1118,621 1115,621 1114,620 1085,620 1084,621 1079,621 1078,622 1076,622 1072,626 1072,627 1071,628 1071,631 1070,632 1070,634 1069,635 1069,639 1068,640 1068,641 1069,642 1069,657 1070,658 1070,714 1069,715 1069,725 1068,726 1068,731 1067,732 1067,738 1068,739 1068,746 1069,747 1069,805 1068,806 1068,814 1067,815 1067,835 1068,836 1068,896 1067,897 1067,901 1066,902 1066,911 1065,912 1065,924 1066,925 1066,929 1067,930 1067,933 1068,934 1068,990 1067,991 1067,994 1066,995 1066,998 1065,999 1065,1022 1066,1023 1066,1025 1067,1026 1067,1029 1068,1030 1068,1041 1067,1042 1067,1083 1066,1084 1066,1089 1065,1090 1065,1094 1064,1095 1064,1117 1065,1118 1065,1124 1066,1125 1066,1131 1065,1132 1065,1135 1064,1136 1064,1138 1063,1139 1063,1147 1064,1148 1064,1163 1065,1164 1065,1168 1066,1169 1066,1173 1067,1174 1067,1184 1066,1185 1066,1228 1065,1229 1065,1232 1064,1233 1064,1235 1063,1236 1063,1241 1064,1242 1064,1264 1065,1265 1065,1276 1064,1277 1064,1281 1063,1282 1063,1312 1064,1313 1064,1322 1063,1323 1063,1325 1062,1326 1062,1328 1061,1329 1061,1330 1060,1331 1060,1336 1061,1337 1061,1339 1062,1340 1062,1342 1063,1343 1063,1352 1064,1353 1064,1360 1065,1361 1065,1363 1066,1364 1066,1365 1067,1366 1067,1367 1068,1367 1069,1368 1070,1368 1071,1369 1073,1369 1074,1370 1076,1370 1077,1371 1099,1371 1100,1372 1115,1372 1116,1373 1139,1373 1140,1372 1147,1372 1148,1371 1196,1371 1197,1372 1232,1372 1233,1371 1244,1371 1245,1372 1252,1372 1253,1371 1265,1371 1266,1372 1277,1372 1278,1371 1318,1371 1319,1372 1328,1372 1329,1371 1334,1371 1335,1372 1356,1372 1357,1371 1378,1371 1379,1370 1382,1370 1383,1369 1385,1369 1386,1368 1387,1368 1389,1366 1390,1366 1391,1365 1391,1364 1393,1362 1393,1361 1394,1360 1394,1357 1395,1356 1395,1348 1396,1347 1396,1341 1395,1340 1395,1324 1396,1323 1396,1317 1395,1316 1395,1304 1396,1303 1396,1291 1395,1290 1395,1287 1394,1286 1394,1275 1395,1274 1395,1257 1394,1256 1394,1253 1393,1252 1393,1248 1392,1247 1393,1246 1393,1242 1394,1241 1394,1226 1395,1225 1395,1223 1396,1222 1396,1221 1397,1220 1397,1219 1398,1218 1398,1217 1399,1216 1399,1215 1400,1214 1400,1196 1401,1195 1401,1191 1402,1190 1402,1179 1401,1178 1401,1162 1400,1161 1400,1148 1401,1147 1401,1136 1402,1135 1402,1127 1403,1126 1403,1124 1404,1123 1404,1120 1405,1119 1405,1113 1404,1112 1404,1097 1403,1096 1403,1034 1404,1033 1404,1030 1405,1029 1405,1026 1406,1025 1406,1013 1405,1012 1405,1004 1404,1003 1404,959 1405,958 1405,938 1406,937 1406,929 1407,928 1407,914 1406,913 1406,903 1405,902 1405,839 1406,838 1406,821 1407,820 1407,816 1406,815 1406,777 1407,776 1407,760 1408,759 1408,755 1407,754 1407,745 1408,744 1408,740 1409,739 1409,726 1408,725 1408,718 1407,717 1407,693 1408,692 1408,675 1409,674 1409,636 1408,635 1408,633 1407,632 1407,631 1404,628 1403,628 1401,626 1399,626 1398,625 1396,625 1395,624 1373,624 1372,625 1359,625 1358,626 1356,626 1355,625 1346,625 1345,624 1321,624 1320,625 1287,625 1286,626 1283,626 1282,625 1275,625 1274,624 1238,624 1237,623 1219,623 1218,622 1186,622 1185,621 1169,621 1168,620 1158,620 1157,619" fill="rgba(188,20,102,0.3)" stroke="rgb(188,20,102)" stroke-width="2" data-block-id="0001" data-name="b-0003" /><text x="1233" y="1042" text-anchor="middle" dominant-baseline="middle" class="block-label" fill="rgb(188,20,102)" stroke="white" stroke-width="3" paint-order="stroke">b-0003</text><polygon points="2239,629 2238,630 2237,630 2231,636 2230,636 2228,638 2225,638 2224,637 2222,637 2221,636 2217,636 2216,635 2209,635 2208,636 2196,636 2195,635 2169,635 2168,634 2158,634 2157,635 2116,635 2115,634 2103,634 2102,633 2098,633 2097,632 2081,632 2080,633 2077,633 2076,634 2042,634 2041,633 2036,633 2035,632 2029,632 2028,633 2022,633 2021,632 2016,632 2015,631 2006,631 2005,632 1996,632 1995,633 1984,633 1983,632 1968,632 1967,633 1964,633 1963,634 1962,634 1961,635 1961,636 1960,637 1960,638 1959,639 1959,641 1958,642 1958,645 1957,646 1957,649 1956,650 1956,654 1957,655 1957,663 1958,664 1958,666 1957,667 1957,676 1958,677 1958,725 1957,726 1957,731 1956,732 1956,736 1955,737 1955,742 1954,743 1954,750 1955,751 1955,756 1956,757 1956,773 1957,774 1957,790 1956,791 1956,796 1957,797 1957,819 1956,820 1956,824 1955,825 1955,835 1954,836 1954,844 1955,845 1955,927 1954,928 1954,941 1955,942 1955,1001 1954,1002 1954,1009 1953,1010 1953,1015 1952,1016 1952,1035 1953,1036 1953,1039 1954,1040 1954,1046 1955,1047 1955,1094 1954,1095 1954,1102 1953,1103 1953,1112 1952,1113 1952,1130 1953,1131 1953,1137 1954,1138 1954,1147 1953,1148 1953,1158 1954,1159 1954,1176 1953,1177 1953,1182 1952,1183 1952,1187 1951,1188 1951,1192 1950,1193 1950,1198 1949,1199 1949,1214 1950,1215 1950,1218 1951,1219 1951,1221 1952,1222 1952,1226 1953,1227 1953,1233 1954,1234 1954,1242 1953,1243 1953,1255 1954,1256 1954,1264 1953,1265 1953,1293 1952,1294 1952,1300 1953,1301 1953,1311 1952,1312 1952,1340 1951,1341 1951,1351 1950,1352 1950,1360 1951,1361 1951,1369 1952,1370 1952,1375 1953,1376 1953,1378 1958,1383 1958,1384 1962,1388 1963,1388 1964,1389 1965,1389 1966,1388 1967,1388 1968,1387 1969,1387 1970,1386 1973,1386 1974,1385 1977,1385 1978,1386 1983,1386 1984,1387 1990,1387 1991,1386 1994,1386 1995,1385 1999,1385 2000,1384 2009,1384 2010,1383 2027,1383 2028,1384 2033,1384 2034,1385 2044,1385 2045,1384 2091,1384 2092,1383 2094,1383 2095,1384 2097,1384 2098,1385 2099,1385 2100,1386 2101,1386 2103,1388 2104,1388 2105,1389 2106,1389 2107,1390 2111,1390 2112,1389 2118,1389 2119,1388 2121,1388 2122,1387 2123,1387 2124,1386 2126,1386 2127,1385 2129,1385 2130,1384 2136,1384 2137,1383 2147,1383 2148,1384 2183,1384 2184,1385 2194,1385 2195,1386 2201,1386 2202,1387 2209,1387 2210,1388 2216,1388 2217,1387 2221,1387 2222,1386 2258,1386 2259,1387 2280,1387 2281,1388 2312,1388 2313,1389 2320,1389 2321,1388 2323,1388 2325,1386 2325,1385 2327,1383 2327,1382 2328,1381 2328,1375 2329,1374 2329,1362 2328,1361 2328,1355 2329,1354 2329,1348 2330,1347 2330,1263 2329,1262 2329,1255 2330,1254 2330,1240 2329,1239 2329,1235 2330,1234 2330,1139 2331,1138 2331,1089 2332,1088 2332,1075 2331,1074 2331,1052 2332,1051 2332,906 2333,905 2333,859 2334,858 2334,788 2335,787 2335,739 2336,738 2336,726 2335,725 2335,690 2336,689 2336,681 2335,680 2335,661 2336,660 2336,644 2335,643 2335,640 2333,638 2328,638 2327,637 2291,637 2290,636 2280,636 2279,637 2266,637 2265,636 2256,636 2255,635 2254,635 2253,634 2252,634 2249,631 2249,630 2248,629" fill="rgba(121,210,214,0.3)" stroke="rgb(121,210,214)" stroke-width="2" data-block-id="0002" data-name="b-0005" /><text x="2090" y="1032" text-anchor="middle" dominant-baseline="middle" class="block-label" fill="rgb(121,210,214)" stroke="white" stroke-width="3" paint-order="stroke">b-0005</text><polygon points="1968,1470 1967,1471 1958,1471 1957,1472 1955,1472 1952,1475 1952,1476 1951,1477 1951,1480 1950,1481 1950,1507 1949,1508 1949,1517 1950,1518 1950,1525 1949,1526 1949,1534 1948,1535 1948,1560 1949,1561 1949,1577 1948,1578 1948,1597 1949,1598 1949,1608 1948,1609 1948,1612 1947,1613 1947,1616 1946,1617 1946,1620 1947,1621 1947,1638 1946,1639 1946,1641 1947,1642 1947,1647 1948,1648 1948,1663 1947,1664 1947,1710 1946,1711 1946,1731 1945,1732 1945,1737 1946,1738 1946,1743 1947,1744 1947,1751 1946,1752 1946,1758 1945,1759 1945,1782 1946,1783 1946,1793 1945,1794 1945,1806 1944,1807 1944,1884 1943,1885 1943,1891 1942,1892 1942,1898 1941,1899 1941,1911 1942,1912 1942,1933 1943,1934 1943,1973 1942,1974 1942,1983 1941,1984 1941,1990 1940,1991 1940,2008 1941,2009 1941,2034 1940,2035 1940,2061 1941,2062 1941,2069 1942,2070 1942,2073 1941,2074 1941,2100 1940,2101 1940,2113 1941,2114 1941,2122 1940,2123 1940,2129 1939,2130 1939,2141 1938,2142 1938,2205 1939,2206 1939,2211 1940,2212 1940,2213 1943,2216 1944,2216 1945,2217 1947,2217 1948,2218 1949,2218 1950,2219 1952,2219 1953,2220 1957,2220 1958,2221 1971,2221 1972,2220 1983,2220 1984,2219 1994,2219 1995,2220 2007,2220 2008,2219 2019,2219 2020,2218 2046,2218 2047,2219 2077,2219 2078,2218 2106,2218 2107,2219 2122,2219 2123,2218 2127,2218 2128,2217 2142,2217 2143,2218 2156,2218 2157,2219 2196,2219 2197,2218 2230,2218 2231,2219 2239,2219 2240,2220 2295,2220 2296,2219 2312,2219 2316,2215 2316,2214 2317,2213 2317,2205 2318,2204 2318,2158 2319,2157 2319,2143 2320,2142 2319,2141 2319,2061 2320,2060 2320,1994 2321,1993 2321,1945 2322,1944 2322,1937 2321,1936 2321,1899 2322,1898 2322,1878 2321,1877 2321,1862 2322,1861 2322,1855 2321,1854 2321,1842 2322,1841 2322,1787 2323,1786 2323,1733 2324,1732 2324,1707 2325,1706 2325,1683 2326,1682 2326,1674 2325,1673 2325,1659 2326,1658 2326,1484 2325,1483 2325,1481 2323,1479 2323,1478 2322,1478 2321,1477 2319,1477 2318,1476 2315,1476 2314,1475 2299,1475 2298,1476 2205,1476 2204,1475 2160,1475 2159,1474 2145,1474 2144,1473 2133,1473 2132,1472 2125,1472 2124,1471 2113,1471 2112,1472 2088,1472 2087,1473 2077,1473 2076,1472 2068,1472 2067,1473 2059,1473 2058,1472 2044,1472 2043,1471 2007,1471 2006,1472 1987,1472 1986,1471 1980,1471 1979,1470" fill="rgba(74,202,87,0.3)" stroke="rgb(74,202,87)" stroke-width="2" data-block-id="0003" data-name="b-0006" /><text x="2076" y="1842" text-anchor="middle" dominant-baseline="middle" class="block-label" fill="rgb(74,202,87)" stroke="white" stroke-width="3" paint-order="stroke">b-0006</text><polygon points="1648,1466 1647,1467 1642,1467 1641,1468 1638,1468 1637,1469 1633,1469 1632,1470 1630,1470 1629,1469 1623,1469 1622,1468 1613,1468 1612,1467 1595,1467 1594,1468 1589,1468 1588,1469 1561,1469 1560,1470 1559,1469 1541,1469 1540,1468 1497,1468 1496,1469 1494,1469 1492,1471 1491,1471 1488,1474 1488,1475 1487,1476 1487,1498 1488,1499 1488,1534 1487,1535 1487,1541 1486,1542 1486,1548 1487,1549 1487,1556 1488,1557 1488,1561 1487,1562 1487,1574 1488,1575 1488,1588 1487,1589 1487,1627 1488,1628 1488,1630 1487,1631 1487,1639 1486,1640 1486,1643 1487,1644 1487,1650 1488,1651 1488,1656 1487,1657 1487,1663 1486,1664 1486,1705 1485,1706 1485,1724 1484,1725 1484,1741 1485,1742 1485,1806 1484,1807 1484,1839 1485,1840 1485,1850 1484,1851 1484,1884 1483,1885 1483,1899 1482,1900 1482,1922 1483,1923 1483,1961 1482,1962 1482,1973 1481,1974 1481,2004 1482,2005 1482,2039 1481,2040 1481,2109 1480,2110 1480,2127 1479,2128 1479,2188 1478,2189 1478,2191 1479,2192 1479,2198 1480,2199 1480,2202 1481,2203 1481,2205 1482,2206 1482,2207 1483,2208 1483,2209 1485,2211 1486,2211 1487,2212 1489,2212 1490,2213 1495,2213 1496,2214 1513,2214 1514,2215 1518,2215 1519,2216 1544,2216 1545,2215 1573,2215 1574,2216 1584,2216 1585,2217 1617,2217 1618,2216 1625,2216 1626,2215 1636,2215 1637,2216 1656,2216 1657,2217 1658,2217 1659,2218 1662,2218 1663,2219 1670,2219 1671,2218 1688,2218 1689,2219 1694,2219 1695,2218 1702,2218 1703,2217 1728,2217 1729,2218 1756,2218 1757,2219 1769,2219 1770,2218 1779,2218 1780,2219 1828,2219 1829,2220 1835,2220 1836,2219 1839,2219 1840,2218 1843,2218 1844,2217 1845,2217 1848,2214 1848,2213 1849,2212 1849,2205 1850,2204 1850,2164 1851,2163 1851,2155 1852,2154 1852,2070 1851,2069 1851,2032 1852,2031 1852,1993 1853,1992 1853,1929 1854,1928 1854,1898 1853,1897 1853,1884 1854,1883 1854,1838 1855,1837 1855,1821 1856,1820 1856,1810 1855,1809 1855,1749 1856,1748 1856,1741 1857,1740 1857,1721 1856,1720 1856,1705 1855,1704 1855,1699 1856,1698 1856,1692 1857,1691 1857,1684 1856,1683 1856,1670 1857,1669 1857,1660 1856,1659 1856,1652 1857,1651 1857,1646 1858,1645 1858,1633 1857,1632 1857,1598 1858,1597 1858,1554 1859,1553 1859,1526 1860,1525 1860,1518 1859,1517 1859,1506 1860,1505 1860,1500 1861,1499 1861,1495 1860,1494 1860,1487 1859,1486 1859,1480 1858,1479 1858,1476 1857,1475 1857,1474 1856,1473 1855,1473 1853,1471 1852,1471 1851,1470 1849,1470 1848,1469 1840,1469 1839,1470 1817,1470 1816,1471 1810,1471 1809,1470 1800,1470 1799,1469 1786,1469 1785,1470 1782,1470 1781,1471 1778,1471 1777,1472 1772,1472 1771,1471 1769,1471 1768,1470 1764,1470 1763,1469 1755,1469 1754,1468 1745,1468 1744,1469 1708,1469 1707,1470 1696,1470 1695,1469 1688,1469 1687,1470 1672,1470 1671,1469 1670,1469 1669,1468 1668,1468 1667,1467 1666,1467 1665,1466" fill="rgba(116,99,103,0.3)" stroke="rgb(116,99,103)" stroke-width="2" data-block-id="0004" data-name="b-0007" /><text x="1672" y="1787" text-anchor="middle" dominant-baseline="middle" class="block-label" fill="rgb(116,99,103)" stroke="white" stroke-width="3" paint-order="stroke">b-0007</text><polygon points="1614,625 1613,626 1592,626 1591,627 1553,627 1552,626 1538,626 1537,627 1512,627 1511,628 1509,628 1508,629 1507,629 1503,633 1503,634 1502,635 1502,636 1501,637 1501,644 1500,645 1500,671 1499,672 1499,680 1498,681 1498,688 1497,689 1497,695 1496,696 1496,700 1497,701 1497,707 1498,708 1498,718 1497,719 1497,728 1498,729 1498,736 1497,737 1497,767 1498,768 1498,777 1499,778 1499,785 1498,786 1498,792 1497,793 1497,796 1498,797 1498,880 1497,881 1497,908 1498,909 1498,915 1497,916 1497,930 1496,931 1496,942 1497,943 1497,955 1496,956 1496,978 1495,979 1495,1002 1494,1003 1494,1039 1495,1040 1495,1045 1496,1046 1496,1049 1495,1050 1495,1086 1494,1087 1494,1138 1495,1139 1495,1141 1494,1142 1494,1169 1493,1170 1493,1175 1492,1176 1492,1191 1491,1192 1491,1200 1490,1201 1490,1202 1491,1203 1491,1223 1492,1224 1492,1233 1493,1234 1493,1236 1492,1237 1492,1241 1491,1242 1491,1245 1490,1246 1490,1347 1491,1348 1491,1368 1492,1369 1492,1371 1496,1375 1498,1375 1499,1376 1506,1376 1507,1375 1513,1375 1514,1376 1519,1376 1520,1377 1537,1377 1538,1378 1551,1378 1552,1377 1555,1377 1556,1376 1562,1376 1563,1375 1577,1375 1578,1376 1592,1376 1593,1377 1603,1377 1604,1378 1623,1378 1624,1379 1637,1379 1638,1380 1644,1380 1645,1379 1680,1379 1681,1380 1690,1380 1691,1381 1692,1381 1693,1380 1712,1380 1713,1379 1724,1379 1725,1378 1729,1378 1730,1379 1748,1379 1749,1378 1752,1378 1753,1379 1777,1379 1778,1380 1789,1380 1790,1379 1793,1379 1794,1378 1797,1378 1798,1377 1803,1377 1804,1378 1814,1378 1815,1379 1819,1379 1820,1380 1847,1380 1848,1379 1851,1379 1852,1378 1853,1378 1854,1377 1855,1377 1856,1376 1856,1375 1857,1374 1857,1373 1858,1372 1858,1368 1859,1367 1859,1349 1860,1348 1860,1327 1861,1326 1861,1314 1860,1313 1860,1303 1861,1302 1861,1281 1862,1280 1862,1264 1861,1263 1861,1257 1862,1256 1862,1238 1863,1237 1863,1223 1862,1222 1862,1203 1863,1202 1863,1193 1862,1192 1862,1186 1863,1185 1863,1176 1862,1175 1862,1156 1863,1155 1863,1120 1862,1119 1862,1115 1863,1114 1863,1084 1864,1083 1864,1080 1863,1079 1863,1043 1864,1042 1864,995 1865,994 1865,979 1864,978 1864,964 1865,963 1865,957 1864,956 1864,948 1865,947 1865,929 1864,928 1864,921 1865,920 1865,900 1866,899 1866,884 1865,883 1865,872 1866,871 1866,775 1867,774 1867,767 1866,766 1866,749 1867,748 1867,741 1866,740 1866,728 1867,727 1867,679 1868,678 1868,673 1867,672 1867,649 1866,648 1866,643 1865,642 1865,639 1864,638 1864,637 1860,633 1858,633 1857,632 1832,632 1831,631 1827,631 1826,630 1824,630 1823,629 1799,629 1798,630 1796,630 1795,631 1793,631 1792,632 1789,632 1788,633 1784,633 1783,632 1780,632 1779,631 1765,631 1764,632 1741,632 1740,631 1728,631 1727,630 1696,630 1695,631 1689,631 1688,630 1687,630 1686,629 1685,629 1683,627 1682,627 1681,626 1680,626 1679,625 1655,625 1654,626 1646,626 1645,627 1627,627 1626,626 1620,626 1619,625" fill="rgba(151,130,149,0.3)" stroke="rgb(151,130,149)" stroke-width="2" data-block-id="0005" data-name="b-0008" /><text x="1682" y="1005" text-anchor="middle" dominant-baseline="middle" class="block-label" fill="rgb(151,130,149)" stroke="white" stroke-width="3" paint-order="stroke">b-0008</text><polygon points="3467,649 3466,650 3446,650 3445,651 3439,651 3438,652 3427,652 3426,651 3418,651 3417,650 3399,650 3398,651 3359,651 3358,652 3356,652 3355,653 3353,653 3352,654 3350,654 3349,655 3348,655 3347,656 3346,656 3345,657 3344,657 3340,661 3340,662 3339,663 3339,669 3338,670 3338,693 3339,694 3339,706 3338,707 3338,717 3337,718 3337,723 3336,724 3336,726 3335,727 3335,729 3334,730 3334,743 3335,744 3335,761 3336,762 3336,774 3335,775 3335,780 3334,781 3334,785 3335,786 3335,791 3336,792 3336,801 3335,802 3335,810 3336,811 3336,829 3335,830 3335,836 3334,837 3334,841 3333,842 3333,851 3332,852 3332,854 3333,855 3333,865 3334,866 3334,872 3335,873 3335,881 3336,882 3336,897 3335,898 3335,901 3336,902 3336,922 3335,923 3335,929 3334,930 3334,944 3333,945 3333,963 3334,964 3334,977 3333,978 3333,983 3332,984 3332,1005 3333,1006 3333,1030 3332,1031 3332,1055 3333,1056 3333,1060 3332,1061 3332,1077 3331,1078 3331,1091 3332,1092 3332,1094 3333,1095 3333,1097 3334,1098 3334,1102 3335,1103 3335,1108 3334,1109 3334,1132 3333,1133 3333,1168 3332,1169 3332,1174 3331,1175 3331,1184 3332,1185 3332,1191 3333,1192 3333,1210 3332,1211 3332,1222 3331,1223 3331,1242 3332,1243 3332,1251 3333,1252 3333,1272 3332,1273 3332,1282 3331,1283 3331,1286 3332,1287 3332,1306 3331,1307 3331,1319 3330,1320 3330,1321 3331,1322 3331,1339 3332,1340 3332,1347 3331,1348 3331,1376 3330,1377 3330,1383 3331,1384 3331,1387 3332,1388 3332,1389 3334,1391 3335,1391 3336,1392 3342,1392 3343,1393 3350,1393 3351,1394 3352,1394 3353,1395 3354,1395 3355,1396 3357,1396 3358,1397 3368,1397 3369,1396 3376,1396 3377,1395 3422,1395 3423,1396 3435,1396 3436,1397 3448,1397 3449,1398 3470,1398 3471,1397 3474,1397 3475,1396 3507,1396 3508,1397 3535,1397 3536,1398 3544,1398 3545,1399 3549,1399 3550,1400 3555,1400 3556,1399 3562,1399 3563,1398 3567,1398 3568,1399 3576,1399 3577,1400 3584,1400 3585,1401 3589,1401 3590,1400 3596,1400 3597,1399 3602,1399 3603,1398 3605,1398 3606,1397 3609,1397 3610,1396 3616,1396 3617,1397 3631,1397 3632,1398 3636,1398 3637,1397 3648,1397 3649,1396 3650,1397 3667,1397 3668,1398 3688,1398 3689,1397 3694,1397 3695,1396 3696,1396 3699,1393 3699,1392 3700,1391 3700,1388 3701,1387 3701,1383 3702,1382 3702,1378 3701,1377 3701,1372 3700,1371 3700,1362 3701,1361 3701,1348 3700,1347 3700,1345 3701,1344 3701,1339 3702,1338 3702,1335 3703,1334 3703,1328 3702,1327 3702,1315 3701,1314 3701,1301 3700,1300 3700,1293 3701,1292 3701,1280 3700,1279 3700,1260 3701,1259 3701,1251 3702,1250 3702,1222 3701,1221 3701,1195 3702,1194 3702,1164 3701,1163 3701,1109 3702,1108 3702,1097 3703,1096 3703,1080 3702,1079 3702,1058 3703,1057 3703,1036 3704,1035 3704,1023 3705,1022 3705,1019 3704,1018 3704,991 3703,990 3703,976 3704,975 3704,972 3703,971 3703,953 3704,952 3704,879 3705,878 3705,861 3706,860 3706,855 3707,854 3707,843 3706,842 3706,837 3705,836 3705,811 3706,810 3706,805 3705,804 3705,797 3704,796 3704,793 3705,792 3705,785 3706,784 3706,778 3705,777 3705,749 3704,748 3705,747 3705,722 3704,721 3704,701 3705,700 3705,680 3704,679 3704,665 3703,664 3703,661 3702,660 3702,659 3699,656 3698,656 3697,655 3695,655 3694,654 3687,654 3686,653 3665,653 3664,654 3657,654 3656,653 3644,653 3643,652 3621,652 3620,653 3614,653 3613,654 3609,654 3608,653 3594,653 3593,654 3580,654 3579,653 3539,653 3538,652 3535,652 3534,651 3497,651 3496,650 3471,650 3470,649" fill="rgba(52,1,87,0.3)" stroke="rgb(52,1,87)" stroke-width="2" data-block-id="0006" data-name="b-0009" /><text x="3503" y="1042" text-anchor="middle" dominant-baseline="middle" class="block-label" fill="rgb(52,1,87)" stroke="white" stroke-width="3" paint-order="stroke">b-0009</text><polygon points="4278,656 4277,657 4269,657 4268,658 4264,658 4263,659 4261,659 4260,660 4259,660 4257,662 4257,663 4256,664 4256,666 4255,667 4255,684 4256,685 4256,691 4255,692 4255,703 4254,704 4254,759 4253,760 4253,764 4252,765 4252,769 4251,770 4251,787 4252,788 4252,804 4253,805 4253,808 4252,809 4252,854 4251,855 4251,934 4252,935 4252,946 4251,947 4251,955 4250,956 4250,981 4251,982 4251,989 4250,990 4250,1002 4251,1003 4251,1018 4252,1019 4252,1023 4251,1024 4251,1039 4250,1040 4250,1065 4251,1066 4251,1073 4250,1074 4250,1087 4251,1088 4251,1100 4250,1101 4250,1132 4249,1133 4249,1136 4248,1137 4248,1147 4249,1148 4249,1155 4250,1156 4250,1159 4251,1160 4251,1162 4252,1163 4252,1169 4251,1170 4251,1173 4250,1174 4250,1179 4251,1180 4251,1185 4252,1186 4252,1195 4251,1196 4251,1204 4252,1205 4252,1209 4253,1210 4253,1215 4252,1216 4252,1217 4250,1219 4250,1220 4247,1223 4247,1227 4249,1229 4249,1230 4250,1231 4250,1232 4251,1233 4251,1234 4252,1235 4252,1250 4253,1251 4253,1265 4252,1266 4252,1305 4251,1306 4251,1310 4252,1311 4252,1320 4253,1321 4253,1322 4252,1323 4252,1334 4251,1335 4251,1339 4250,1340 4250,1352 4251,1353 4251,1356 4250,1357 4250,1360 4249,1361 4249,1363 4248,1364 4248,1367 4247,1368 4247,1369 4248,1370 4248,1373 4249,1374 4249,1376 4250,1377 4250,1379 4251,1380 4251,1382 4252,1383 4252,1385 4253,1386 4253,1387 4254,1388 4254,1390 4255,1391 4255,1392 4256,1393 4256,1394 4258,1396 4259,1396 4260,1397 4261,1397 4262,1398 4264,1398 4265,1399 4280,1399 4281,1398 4299,1398 4300,1399 4308,1399 4309,1398 4317,1398 4318,1397 4319,1398 4325,1398 4326,1399 4332,1399 4333,1398 4356,1398 4357,1397 4362,1397 4363,1396 4366,1396 4367,1397 4373,1397 4374,1398 4379,1398 4380,1397 4400,1397 4401,1398 4414,1398 4415,1399 4427,1399 4428,1398 4431,1398 4432,1397 4436,1397 4437,1396 4438,1397 4457,1397 4458,1396 4464,1396 4465,1397 4488,1397 4489,1398 4494,1398 4495,1399 4516,1399 4517,1398 4523,1398 4524,1397 4528,1397 4529,1396 4534,1396 4535,1397 4541,1397 4542,1398 4543,1398 4544,1397 4552,1397 4553,1396 4559,1396 4560,1397 4592,1397 4593,1398 4603,1398 4604,1397 4608,1397 4609,1396 4611,1396 4612,1395 4614,1395 4615,1394 4616,1394 4619,1391 4619,1390 4620,1389 4620,1386 4621,1385 4621,1379 4622,1378 4621,1377 4621,1311 4620,1310 4620,1307 4621,1306 4621,1275 4622,1274 4622,1244 4621,1243 4621,1229 4622,1228 4622,1220 4621,1219 4621,1208 4622,1207 4622,1193 4623,1192 4623,1186 4622,1185 4622,1113 4623,1112 4623,1051 4622,1050 4622,1044 4623,1043 4623,1024 4622,1023 4622,908 4623,907 4623,891 4622,890 4622,861 4623,860 4623,813 4624,812 4624,795 4623,794 4623,755 4624,754 4624,746 4623,745 4623,738 4622,737 4622,704 4623,703 4623,694 4622,693 4622,667 4621,666 4621,663 4620,662 4620,661 4617,658 4615,658 4614,657 4613,658 4610,658 4609,659 4605,659 4604,660 4601,660 4600,659 4580,659 4579,660 4540,660 4539,661 4527,661 4526,660 4522,660 4521,659 4515,659 4514,660 4480,660 4479,659 4434,659 4433,658 4429,658 4428,657 4415,657 4414,658 4335,658 4334,657 4322,657 4321,658 4313,658 4312,657 4285,657 4284,656" fill="rgba(235,157,37,0.3)" stroke="rgb(235,157,37)" stroke-width="2" data-block-id="0007" data-name="b-0010" /><text x="4392" y="1108" text-anchor="middle" dominant-baseline="middle" class="block-label" fill="rgb(235,157,37)" stroke="white" stroke-width="3" paint-order="stroke">b-0010</text><polygon points="2883,1480 2882,1481 2881,1481 2877,1485 2877,1486 2876,1487 2876,1492 2875,1493 2875,1509 2874,1510 2874,1561 2873,1562 2873,1579 2872,1580 2872,1583 2873,1584 2873,1601 2872,1602 2872,1608 2873,1609 2873,1634 2872,1635 2872,1650 2873,1651 2873,1676 2872,1677 2872,1708 2873,1709 2873,1720 2872,1721 2872,1767 2871,1768 2871,1782 2872,1783 2872,1784 2871,1785 2871,1814 2870,1815 2870,1832 2869,1833 2869,1853 2870,1854 2870,1858 2869,1859 2869,1971 2870,1972 2870,1978 2869,1979 2869,2005 2868,2006 2868,2032 2867,2033 2867,2068 2868,2069 2868,2071 2867,2072 2867,2078 2866,2079 2866,2096 2867,2097 2867,2105 2868,2106 2868,2124 2867,2125 2867,2158 2868,2159 2868,2176 2867,2177 2867,2188 2868,2189 2868,2213 2869,2214 2869,2217 2870,2218 2870,2219 2872,2221 2872,2222 2873,2222 2874,2223 2875,2223 2876,2224 2877,2224 2878,2225 2880,2225 2881,2226 2883,2226 2884,2227 2898,2227 2899,2226 2940,2226 2941,2225 2996,2225 2997,2224 3053,2224 3054,2225 3076,2225 3077,2224 3093,2224 3094,2223 3104,2223 3105,2224 3143,2224 3144,2225 3158,2225 3159,2226 3163,2226 3164,2227 3167,2227 3168,2228 3173,2228 3174,2227 3177,2227 3178,2226 3181,2226 3182,2225 3190,2225 3191,2226 3198,2226 3199,2225 3204,2225 3205,2226 3211,2226 3212,2227 3224,2227 3225,2226 3228,2226 3229,2225 3231,2225 3235,2221 3235,2220 3237,2218 3237,2216 3238,2215 3238,2201 3237,2200 3237,2187 3238,2186 3238,2174 3237,2173 3237,2138 3238,2137 3238,2127 3237,2126 3237,2112 3238,2111 3238,2063 3239,2062 3239,2033 3238,2032 3238,1990 3237,1989 3237,1960 3236,1959 3236,1947 3237,1946 3237,1923 3238,1922 3238,1888 3239,1887 3239,1792 3238,1791 3238,1785 3237,1784 3238,1783 3238,1776 3239,1775 3239,1753 3240,1752 3240,1744 3239,1743 3239,1712 3240,1711 3240,1669 3239,1668 3239,1660 3240,1659 3240,1572 3241,1571 3241,1568 3240,1567 3240,1555 3241,1554 3241,1504 3240,1503 3240,1495 3239,1494 3239,1491 3238,1490 3238,1489 3237,1488 3237,1487 3236,1487 3234,1485 3232,1485 3231,1484 3224,1484 3223,1483 3213,1483 3212,1484 3202,1484 3201,1483 3198,1483 3197,1482 3189,1482 3188,1483 3182,1483 3181,1484 3177,1484 3176,1483 3168,1483 3167,1484 3150,1484 3149,1483 3104,1483 3103,1482 3093,1482 3092,1483 3083,1483 3082,1482 3076,1482 3075,1481 3050,1481 3049,1482 3044,1482 3043,1483 3030,1483 3029,1482 2998,1482 2997,1481 2984,1481 2983,1482 2971,1482 2970,1481 2904,1481 2903,1480" fill="rgba(129,191,187,0.3)" stroke="rgb(129,191,187)" stroke-width="2" data-block-id="0008" data-name="b-0011" /><text x="3060" y="1864" text-anchor="middle" dominant-baseline="middle" class="block-label" fill="rgb(129,191,187)" stroke="white" stroke-width="3" paint-order="stroke">b-0011</text><polygon points="4418,1488 4417,1489 4393,1489 4392,1490 4350,1490 4349,1489 4322,1489 4321,1490 4299,1490 4298,1489 4262,1489 4261,1490 4258,1490 4257,1491 4256,1491 4255,1492 4255,1493 4254,1494 4254,1496 4253,1497 4253,1504 4252,1505 4252,1518 4253,1519 4253,1570 4252,1571 4252,1574 4251,1575 4251,1579 4250,1580 4250,1585 4251,1586 4251,1601 4250,1602 4250,1656 4251,1657 4251,1669 4250,1670 4250,1699 4251,1700 4251,1721 4250,1722 4250,1728 4249,1729 4249,1744 4250,1745 4250,1748 4251,1749 4251,1764 4250,1765 4250,1781 4251,1782 4251,1789 4250,1790 4250,1804 4251,1805 4251,1820 4250,1821 4250,1831 4249,1832 4249,1838 4250,1839 4250,1847 4251,1848 4251,1851 4252,1852 4252,1854 4253,1855 4253,1856 4252,1857 4252,1859 4251,1860 4251,1861 4250,1862 4250,1864 4249,1865 4249,1868 4248,1869 4248,1884 4249,1885 4249,1888 4250,1889 4250,1892 4251,1893 4251,1896 4252,1897 4252,1900 4253,1901 4253,1912 4252,1913 4252,1917 4253,1918 4253,1923 4254,1924 4254,1950 4253,1951 4253,1957 4252,1958 4252,1968 4251,1969 4251,2010 4252,2011 4252,2028 4253,2029 4253,2053 4252,2054 4252,2068 4253,2069 4253,2074 4252,2075 4252,2080 4251,2081 4251,2112 4252,2113 4252,2142 4253,2143 4253,2148 4252,2149 4252,2177 4253,2178 4253,2183 4252,2184 4252,2197 4253,2198 4253,2208 4252,2209 4252,2215 4253,2216 4253,2219 4254,2220 4254,2221 4255,2222 4255,2223 4256,2223 4257,2224 4259,2224 4260,2225 4263,2225 4264,2226 4418,2226 4419,2227 4425,2227 4426,2226 4441,2226 4442,2225 4457,2225 4458,2226 4500,2226 4501,2227 4515,2227 4516,2226 4609,2226 4610,2225 4616,2225 4617,2224 4618,2224 4621,2221 4621,2219 4622,2218 4622,2175 4621,2174 4621,2107 4620,2106 4620,2098 4619,2097 4619,2089 4618,2088 4618,2077 4617,2076 4617,2012 4618,2011 4618,2002 4619,2001 4619,1991 4620,1990 4620,1985 4621,1984 4621,1969 4622,1968 4622,1830 4623,1829 4623,1794 4622,1793 4622,1768 4623,1767 4623,1559 4622,1558 4622,1509 4621,1508 4621,1499 4620,1498 4620,1496 4619,1495 4619,1494 4618,1493 4618,1492 4617,1491 4616,1491 4615,1490 4613,1490 4612,1489 4606,1489 4605,1488 4598,1488 4597,1489 4572,1489 4571,1490 4529,1490 4528,1489 4506,1489 4505,1488 4491,1488 4490,1489 4474,1489 4473,1490 4450,1490 4449,1489 4432,1489 4431,1488" fill="rgba(20,160,203,0.3)" stroke="rgb(20,160,203)" stroke-width="2" data-block-id="0009" data-name="b-0012" /><text x="4373" y="1843" text-anchor="middle" dominant-baseline="middle" class="block-label" fill="rgb(20,160,203)" stroke="white" stroke-width="3" paint-order="stroke">b-0012</text><polygon points="3369,1483 3368,1484 3353,1484 3352,1485 3341,1485 3340,1486 3337,1486 3336,1487 3335,1487 3334,1488 3334,1489 3333,1490 3333,1491 3332,1492 3332,1494 3331,1495 3331,1506 3332,1507 3332,1516 3331,1517 3331,1541 3330,1542 3330,1547 3331,1548 3331,1552 3332,1553 3332,1625 3333,1626 3333,1633 3332,1634 3332,1640 3331,1641 3331,1663 3332,1664 3332,1685 3331,1686 3331,1721 3332,1722 3332,1738 3331,1739 3331,1780 3330,1781 3330,1801 3331,1802 3331,1817 3332,1818 3332,1826 3331,1827 3331,1866 3332,1867 3331,1868 3331,1877 3330,1878 3330,1883 3331,1884 3331,1932 3332,1933 3332,1938 3333,1939 3333,1941 3332,1942 3332,1950 3331,1951 3331,1954 3332,1955 3332,1970 3331,1971 3331,2006 3332,2007 3332,2017 3333,2018 3333,2036 3332,2037 3332,2047 3331,2048 3331,2050 3332,2051 3332,2069 3331,2070 3331,2072 3332,2073 3332,2088 3331,2089 3331,2102 3332,2103 3332,2115 3331,2116 3331,2122 3332,2123 3332,2143 3331,2144 3331,2183 3330,2184 3330,2197 3331,2198 3331,2205 3330,2206 3330,2211 3329,2212 3329,2217 3330,2218 3330,2220 3331,2221 3331,2222 3334,2225 3335,2225 3336,2226 3358,2226 3359,2227 3394,2227 3395,2226 3444,2226 3445,2227 3471,2227 3472,2226 3594,2226 3595,2227 3619,2227 3620,2226 3638,2226 3639,2227 3687,2227 3688,2226 3690,2226 3691,2225 3692,2225 3695,2222 3695,2221 3696,2220 3696,2217 3697,2216 3697,2199 3696,2198 3696,2149 3697,2148 3697,2142 3696,2141 3696,2103 3697,2102 3697,2027 3698,2026 3698,1997 3697,1996 3697,1964 3698,1963 3698,1906 3697,1905 3697,1890 3698,1889 3698,1883 3699,1882 3699,1837 3698,1836 3698,1767 3699,1766 3699,1762 3700,1761 3700,1754 3699,1753 3699,1741 3698,1740 3698,1729 3699,1728 3699,1671 3700,1670 3700,1596 3701,1595 3701,1586 3700,1585 3700,1501 3699,1500 3699,1494 3698,1493 3698,1491 3697,1490 3697,1489 3696,1488 3695,1488 3694,1487 3693,1487 3692,1488 3678,1488 3677,1487 3671,1487 3670,1486 3669,1487 3661,1487 3660,1488 3629,1488 3628,1487 3619,1487 3618,1488 3609,1488 3608,1487 3594,1487 3593,1486 3560,1486 3559,1487 3532,1487 3531,1486 3526,1486 3525,1487 3482,1487 3481,1486 3465,1486 3464,1485 3452,1485 3451,1484 3438,1484 3437,1483 3433,1483 3432,1484 3428,1484 3427,1485 3420,1485 3419,1486 3392,1486 3391,1485 3382,1485 3381,1484 3376,1484 3375,1483" fill="rgba(57,21,252,0.3)" stroke="rgb(57,21,252)" stroke-width="2" data-block-id="0010" data-name="b-0013" /><text x="3476" y="1811" text-anchor="middle" dominant-baseline="middle" class="block-label" fill="rgb(57,21,252)" stroke="white" stroke-width="3" paint-order="stroke">b-0013</text><polygon points="2940,648 2939,649 2926,649 2925,650 2921,650 2920,651 2902,651 2901,652 2897,652 2896,653 2895,653 2892,656 2892,657 2890,659 2890,660 2887,663 2887,664 2885,666 2885,667 2884,668 2884,670 2883,671 2883,676 2882,677 2882,694 2883,695 2883,703 2882,704 2882,776 2881,777 2881,826 2880,827 2880,838 2879,839 2879,869 2880,870 2880,888 2879,889 2879,900 2878,901 2878,906 2879,907 2879,917 2878,918 2878,940 2877,941 2877,981 2876,982 2876,995 2877,996 2877,1021 2878,1022 2878,1035 2877,1036 2877,1040 2876,1041 2876,1054 2877,1055 2877,1107 2876,1108 2876,1124 2877,1125 2877,1135 2876,1136 2876,1144 2877,1145 2877,1149 2878,1150 2878,1154 2877,1155 2877,1156 2876,1157 2876,1160 2875,1161 2875,1177 2876,1178 2876,1255 2875,1256 2875,1281 2876,1282 2876,1288 2875,1289 2875,1371 2874,1372 2874,1382 2875,1383 2875,1385 2876,1386 2876,1387 2880,1391 2881,1391 2882,1392 2883,1392 2884,1393 2887,1393 2888,1394 2889,1394 2890,1395 2892,1395 2893,1396 2898,1396 2899,1395 2903,1395 2904,1394 2910,1394 2911,1393 2923,1393 2924,1394 2931,1394 2932,1395 2940,1395 2941,1396 2943,1396 2944,1395 2949,1395 2950,1394 2955,1394 2956,1393 3013,1393 3014,1394 3020,1394 3021,1395 3026,1395 3027,1396 3043,1396 3044,1395 3048,1395 3049,1394 3126,1394 3127,1395 3135,1395 3136,1394 3156,1394 3157,1395 3167,1395 3168,1396 3174,1396 3175,1397 3183,1397 3184,1396 3188,1396 3189,1395 3193,1395 3194,1394 3208,1394 3209,1395 3211,1395 3212,1396 3224,1396 3225,1395 3230,1395 3231,1394 3232,1394 3233,1393 3234,1393 3235,1392 3236,1392 3238,1390 3238,1389 3239,1388 3239,1386 3240,1385 3240,1337 3241,1336 3241,1263 3242,1262 3242,1258 3241,1257 3241,1232 3242,1231 3242,1220 3241,1219 3241,1210 3242,1209 3242,1182 3243,1181 3243,1168 3242,1167 3242,1133 3243,1132 3243,1023 3244,1022 3244,1019 3243,1018 3243,987 3244,986 3244,854 3243,853 3243,838 3244,837 3244,827 3245,826 3245,743 3246,742 3246,721 3245,720 3245,699 3246,698 3246,675 3245,674 3245,670 3244,669 3244,666 3243,665 3243,662 3242,661 3242,660 3241,659 3241,658 3239,656 3237,656 3236,655 3233,655 3232,654 3222,654 3221,655 3212,655 3211,654 3203,654 3202,655 3198,655 3197,656 3193,656 3192,655 3191,655 3190,654 3189,654 3188,653 3185,653 3184,652 3180,652 3179,653 3176,653 3175,654 3173,654 3172,655 3168,655 3167,654 3163,654 3162,653 3150,653 3149,654 3147,654 3146,653 3141,653 3140,652 3131,652 3130,651 3112,651 3111,650 3107,650 3106,651 3093,651 3092,650 3079,650 3078,651 3057,651 3056,650 3017,650 3016,651 3003,651 3002,650 2971,650 2970,649 2944,649 2943,648" fill="rgba(235,88,48,0.3)" stroke="rgb(235,88,48)" stroke-width="2" data-block-id="0011" data-name="b-0014" /><text x="3050" y="1008" text-anchor="middle" dominant-baseline="middle" class="block-label" fill="rgb(235,88,48)" stroke="white" stroke-width="3" paint-order="stroke">b-0014</text><polygon points="2427,1475 2426,1476 2425,1476 2420,1481 2420,1483 2419,1484 2419,1488 2418,1489 2418,1496 2417,1497 2417,1517 2418,1518 2418,1524 2417,1525 2417,1535 2416,1536 2416,1550 2415,1551 2415,1560 2416,1561 2416,1625 2415,1626 2415,1634 2414,1635 2414,1657 2415,1658 2415,1696 2414,1697 2414,1730 2413,1731 2413,1753 2414,1754 2414,1793 2413,1794 2413,1818 2412,1819 2412,1831 2411,1832 2411,1835 2412,1836 2412,1896 2411,1897 2411,1907 2412,1908 2412,1924 2411,1925 2411,1992 2410,1993 2410,2089 2409,2090 2409,2155 2408,2156 2408,2167 2409,2168 2409,2207 2410,2208 2410,2214 2411,2215 2411,2216 2415,2220 2416,2220 2417,2221 2423,2221 2424,2222 2433,2222 2434,2221 2443,2221 2444,2220 2492,2220 2493,2221 2521,2221 2522,2220 2532,2220 2533,2221 2538,2221 2539,2220 2555,2220 2556,2219 2562,2219 2563,2220 2590,2220 2591,2221 2618,2221 2619,2222 2622,2222 2623,2221 2632,2221 2633,2220 2638,2220 2639,2219 2664,2219 2665,2220 2700,2220 2701,2221 2711,2221 2712,2222 2729,2222 2730,2221 2746,2221 2747,2222 2757,2222 2758,2223 2765,2223 2766,2222 2768,2222 2769,2221 2770,2221 2771,2220 2772,2220 2778,2214 2779,2214 2779,2213 2780,2212 2780,2209 2781,2208 2781,2204 2782,2203 2782,2199 2781,2198 2781,2182 2780,2181 2780,2176 2779,2175 2779,2173 2778,2172 2778,2170 2777,2169 2777,2152 2776,2151 2776,2145 2775,2144 2775,2141 2776,2140 2776,2128 2777,2127 2777,2115 2776,2114 2776,2104 2775,2103 2775,2078 2774,2077 2774,2046 2773,2045 2773,2035 2774,2034 2774,2028 2775,2027 2775,1933 2776,1932 2776,1927 2777,1926 2777,1917 2776,1916 2776,1906 2775,1905 2775,1889 2776,1888 2776,1843 2777,1842 2777,1839 2778,1838 2778,1835 2779,1834 2779,1823 2778,1822 2778,1816 2777,1815 2777,1779 2778,1778 2778,1750 2779,1749 2779,1739 2780,1738 2780,1735 2779,1734 2779,1726 2778,1725 2778,1713 2779,1712 2779,1684 2778,1683 2778,1660 2777,1659 2777,1654 2778,1653 2778,1615 2777,1614 2777,1596 2778,1595 2778,1573 2777,1572 2777,1554 2778,1553 2778,1488 2777,1487 2777,1485 2772,1480 2771,1480 2770,1479 2768,1479 2767,1478 2763,1478 2762,1477 2761,1478 2726,1478 2725,1479 2715,1479 2714,1480 2686,1480 2685,1481 2678,1481 2677,1480 2675,1480 2674,1479 2672,1479 2671,1478 2668,1478 2667,1477 2666,1478 2661,1478 2660,1479 2655,1479 2654,1480 2640,1480 2639,1479 2612,1479 2611,1478 2579,1478 2578,1477 2570,1477 2569,1476 2559,1476 2558,1477 2554,1477 2553,1478 2543,1478 2542,1479 2528,1479 2527,1478 2515,1478 2514,1477 2492,1477 2491,1476 2490,1476 2489,1477 2486,1477 2485,1478 2482,1478 2481,1479 2472,1479 2471,1478 2467,1478 2466,1477 2446,1477 2445,1476 2437,1476 2436,1475" fill="rgba(218,58,254,0.3)" stroke="rgb(218,58,254)" stroke-width="2" data-block-id="0012" data-name="b-0015" /><text x="2619" y="1837" text-anchor="middle" dominant-baseline="middle" class="block-label" fill="rgb(218,58,254)" stroke="white" stroke-width="3" paint-order="stroke">b-0015</text><polygon points="3813,654 3812,655 3809,655 3808,656 3805,656 3804,657 3803,657 3801,659 3801,660 3800,661 3800,662 3799,663 3799,670 3798,671 3798,708 3799,709 3799,712 3798,713 3798,803 3799,804 3799,810 3798,811 3798,828 3797,829 3797,832 3796,833 3796,836 3795,837 3795,871 3794,872 3794,898 3793,899 3793,981 3792,982 3792,1006 3793,1007 3793,1030 3794,1031 3794,1192 3793,1193 3793,1205 3792,1206 3792,1239 3791,1240 3791,1340 3792,1341 3792,1382 3793,1383 3793,1386 3794,1387 3794,1389 3796,1391 3796,1392 3797,1393 3798,1393 3800,1395 3802,1395 3803,1396 3813,1396 3814,1397 3821,1397 3822,1396 3837,1396 3838,1397 3851,1397 3852,1398 3853,1397 4009,1397 4010,1396 4018,1396 4019,1395 4035,1395 4036,1396 4052,1396 4053,1395 4055,1395 4056,1396 4066,1396 4067,1397 4068,1397 4069,1396 4095,1396 4096,1395 4104,1395 4105,1396 4110,1396 4111,1397 4121,1397 4122,1398 4143,1398 4144,1397 4149,1397 4150,1396 4151,1396 4155,1392 4155,1391 4156,1390 4156,1389 4157,1388 4157,1385 4158,1384 4158,1372 4159,1371 4159,1367 4158,1366 4158,1349 4159,1348 4159,1267 4158,1266 4158,1256 4159,1255 4159,1243 4160,1242 4160,1228 4161,1227 4161,1225 4160,1224 4160,1215 4159,1214 4159,1207 4160,1206 4160,1190 4161,1189 4161,1176 4160,1175 4160,1168 4159,1167 4159,1160 4160,1159 4160,1122 4159,1121 4159,1110 4160,1109 4160,1091 4161,1090 4161,1078 4160,1077 4160,1072 4159,1071 4159,1066 4160,1065 4160,1016 4161,1015 4161,1006 4160,1005 4160,998 4159,997 4159,969 4160,968 4160,952 4159,951 4159,945 4158,944 4158,942 4157,941 4157,933 4158,932 4158,930 4159,929 4159,921 4158,920 4158,878 4159,877 4159,835 4160,834 4160,826 4161,825 4161,800 4160,799 4160,792 4161,791 4161,786 4162,785 4162,774 4161,773 4161,762 4162,761 4162,755 4161,754 4161,742 4162,741 4162,683 4161,682 4161,675 4160,674 4160,671 4158,669 4158,668 4154,664 4153,664 4152,663 4151,663 4150,662 4139,662 4138,661 4135,661 4134,660 4131,660 4130,659 4123,659 4122,658 4110,658 4109,659 4105,659 4104,660 4083,660 4082,659 4072,659 4071,658 4059,658 4058,657 4044,657 4043,656 4041,656 4040,657 4025,657 4024,658 4020,658 4019,659 4017,659 4016,658 4015,658 4014,657 4012,657 4011,656 4007,656 4006,655 4002,655 4001,656 3992,656 3991,657 3988,657 3987,658 3980,658 3979,657 3977,657 3976,656 3973,656 3972,655 3951,655 3950,656 3935,656 3934,655 3883,655 3882,654 3867,654 3866,655 3849,655 3848,654" fill="rgba(169,219,187,0.3)" stroke="rgb(169,219,187)" stroke-width="2" data-block-id="0013" data-name="b-0016" /><text x="4023" y="981" text-anchor="middle" dominant-baseline="middle" class="block-label" fill="rgb(169,219,187)" stroke="white" stroke-width="3" paint-order="stroke">b-0016</text><polygon points="3899,1489 3898,1490 3895,1490 3894,1491 3893,1491 3892,1492 3891,1492 3888,1495 3887,1495 3885,1497 3869,1497 3868,1496 3863,1496 3862,1495 3859,1495 3858,1496 3842,1496 3841,1495 3840,1495 3839,1496 3804,1496 3803,1497 3801,1497 3800,1498 3799,1498 3798,1499 3797,1499 3795,1501 3795,1502 3794,1503 3794,1508 3793,1509 3793,1598 3792,1599 3792,1670 3791,1671 3791,1677 3790,1678 3790,1708 3791,1709 3791,1748 3792,1749 3792,1754 3791,1755 3791,1891 3790,1892 3790,1915 3791,1916 3791,1950 3790,1951 3790,2194 3791,2195 3791,2212 3790,2213 3790,2214 3791,2215 3791,2218 3792,2219 3792,2220 3794,2222 3796,2222 3797,2223 3801,2223 3802,2224 3846,2224 3847,2225 3932,2225 3933,2226 3970,2226 3971,2225 3972,2225 3973,2226 3985,2226 3986,2225 4029,2225 4030,2226 4031,2226 4032,2225 4050,2225 4051,2226 4057,2226 4058,2225 4138,2225 4139,2224 4152,2224 4153,2223 4154,2223 4155,2222 4156,2222 4157,2221 4157,2220 4158,2219 4158,2218 4159,2217 4159,2212 4160,2211 4160,2200 4159,2199 4159,2172 4158,2171 4158,2153 4159,2152 4159,2060 4158,2059 4158,1860 4159,1859 4159,1824 4158,1823 4158,1673 4157,1672 4157,1657 4156,1656 4156,1655 4157,1654 4157,1650 4158,1649 4158,1646 4159,1645 4159,1615 4158,1614 4158,1576 4159,1575 4159,1565 4158,1564 4158,1550 4159,1549 4159,1533 4158,1532 4158,1509 4157,1508 4157,1505 4156,1504 4156,1503 4154,1501 4153,1501 4151,1499 4149,1499 4148,1498 4143,1498 4142,1497 4138,1497 4137,1496 4132,1496 4131,1495 4118,1495 4117,1496 4088,1496 4087,1495 4079,1495 4078,1494 4075,1494 4074,1493 4071,1493 4070,1492 4061,1492 4060,1491 4044,1491 4043,1490 4006,1490 4005,1491 3986,1491 3985,1490 3920,1490 3919,1489" fill="rgba(207,14,189,0.3)" stroke="rgb(207,14,189)" stroke-width="2" data-block-id="0014" data-name="b-0017" /><text x="3991" y="1783" text-anchor="middle" dominant-baseline="middle" class="block-label" fill="rgb(207,14,189)" stroke="white" stroke-width="3" paint-order="stroke">b-0017</text><polygon points="2450,642 2449,643 2439,643 2438,644 2430,644 2429,645 2428,645 2427,646 2427,647 2425,649 2425,651 2424,652 2424,657 2425,658 2425,668 2424,669 2424,711 2423,712 2423,719 2422,720 2422,776 2421,777 2421,789 2422,790 2422,826 2421,827 2421,875 2420,876 2420,907 2421,908 2421,917 2420,918 2420,966 2419,967 2419,971 2418,972 2418,989 2419,990 2419,1016 2418,1017 2418,1027 2419,1028 2419,1061 2418,1062 2418,1083 2419,1084 2419,1096 2420,1097 2420,1114 2419,1115 2419,1120 2420,1121 2420,1159 2419,1160 2419,1181 2420,1182 2420,1279 2419,1280 2419,1320 2420,1321 2420,1322 2419,1323 2419,1336 2420,1337 2420,1349 2419,1350 2419,1380 2420,1381 2420,1383 2425,1388 2426,1388 2427,1389 2439,1389 2440,1388 2445,1388 2446,1389 2466,1389 2467,1388 2509,1388 2510,1389 2529,1389 2530,1390 2545,1390 2546,1389 2590,1389 2591,1390 2686,1390 2687,1391 2701,1391 2702,1392 2724,1392 2725,1391 2733,1391 2734,1392 2748,1392 2749,1391 2767,1391 2768,1390 2773,1390 2774,1389 2776,1389 2780,1385 2780,1384 2781,1383 2781,1382 2782,1381 2782,1376 2781,1375 2781,1369 2780,1368 2780,1347 2781,1346 2781,1339 2780,1338 2780,1283 2781,1282 2781,1276 2782,1275 2782,1263 2781,1262 2781,1251 2780,1250 2780,1242 2781,1241 2781,1224 2782,1223 2782,1211 2781,1210 2781,1205 2780,1204 2780,1198 2781,1197 2781,1191 2782,1190 2782,1158 2781,1157 2781,1142 2782,1141 2782,1126 2781,1125 2781,1096 2782,1095 2782,1027 2781,1026 2781,1000 2782,999 2782,964 2783,963 2783,959 2782,958 2782,924 2783,923 2783,873 2784,872 2784,839 2783,838 2783,834 2782,833 2782,826 2783,825 2783,792 2784,791 2784,770 2783,769 2783,763 2782,762 2782,754 2783,753 2783,679 2784,678 2784,675 2783,674 2783,670 2782,669 2782,667 2781,666 2781,665 2780,664 2780,662 2779,661 2779,657 2778,656 2778,653 2776,651 2775,651 2774,650 2755,650 2754,651 2742,651 2741,650 2736,650 2735,649 2720,649 2719,650 2697,650 2696,651 2688,651 2687,652 2669,652 2668,653 2661,653 2660,654 2655,654 2654,655 2641,655 2640,654 2638,654 2637,653 2632,653 2631,652 2628,652 2627,653 2622,653 2621,652 2614,652 2613,651 2597,651 2596,650 2582,650 2581,649 2568,649 2567,648 2558,648 2557,647 2529,647 2528,648 2516,648 2515,647 2502,647 2501,646 2498,646 2497,645 2495,645 2494,644 2491,644 2490,643 2462,643 2461,642" fill="rgba(189,174,189,0.3)" stroke="rgb(189,174,189)" stroke-width="2" data-block-id="0015" data-name="b-0018" /><text x="2616" y="969" text-anchor="middle" dominant-baseline="middle" class="block-label" fill="rgb(189,174,189)" stroke="white" stroke-width="3" paint-order="stroke">b-0018</text><polygon points="1068,1462 1064,1466 1064,1468 1063,1469 1063,1475 1062,1476 1062,1541 1061,1542 1061,1567 1062,1568 1062,1577 1061,1578 1061,1605 1060,1606 1060,1612 1061,1613 1061,1654 1060,1655 1060,1688 1059,1689 1059,1698 1060,1699 1060,1706 1059,1707 1059,1760 1058,1761 1058,1917 1057,1918 1057,1934 1056,1935 1056,1999 1055,2000 1055,2008 1056,2009 1056,2013 1055,2014 1055,2051 1054,2052 1054,2066 1055,2067 1055,2086 1054,2087 1054,2093 1053,2094 1053,2105 1054,2106 1054,2117 1053,2118 1053,2120 1054,2121 1054,2188 1053,2189 1053,2194 1054,2195 1054,2201 1055,2202 1055,2204 1056,2205 1056,2206 1057,2207 1058,2207 1059,2208 1066,2208 1067,2209 1113,2209 1114,2210 1136,2210 1137,2211 1153,2211 1154,2212 1167,2212 1168,2211 1209,2211 1210,2210 1211,2210 1212,2211 1219,2211 1220,2212 1291,2212 1292,2211 1301,2211 1302,2212 1316,2212 1317,2213 1336,2213 1337,2212 1362,2212 1363,2213 1374,2213 1375,2212 1380,2212 1381,2211 1382,2211 1385,2208 1385,2207 1386,2206 1386,2204 1387,2203 1386,2202 1386,2174 1385,2173 1385,2140 1386,2139 1386,2115 1387,2114 1387,2106 1386,2105 1386,2096 1387,2095 1387,2083 1388,2082 1388,2049 1389,2048 1389,2018 1390,2017 1390,2010 1389,2009 1389,1970 1390,1969 1390,1937 1391,1936 1391,1830 1392,1829 1392,1813 1391,1812 1391,1796 1392,1795 1392,1790 1393,1789 1393,1746 1394,1745 1394,1653 1395,1652 1395,1650 1396,1649 1396,1646 1397,1645 1397,1639 1396,1638 1396,1632 1395,1631 1395,1578 1394,1577 1394,1564 1393,1563 1393,1558 1394,1557 1394,1555 1395,1554 1395,1552 1396,1551 1396,1549 1397,1548 1397,1545 1396,1544 1396,1540 1395,1539 1395,1531 1396,1530 1396,1502 1397,1501 1397,1486 1396,1485 1396,1474 1395,1473 1395,1472 1394,1471 1394,1470 1392,1468 1391,1468 1390,1467 1387,1467 1386,1466 1332,1466 1331,1465 1218,1465 1217,1464 1158,1464 1157,1465 1146,1465 1145,1464 1127,1464 1126,1463 1120,1463 1119,1462 1109,1462 1108,1463 1103,1463 1102,1462" fill="rgba(243,63,248,0.3)" stroke="rgb(243,63,248)" stroke-width="2" data-block-id="0016" data-name="b-0020" /><text x="1239" y="1855" text-anchor="middle" dominant-baseline="middle" class="block-label" fill="rgb(243,63,248)" stroke="white" stroke-width="3" paint-order="stroke">b-0020</text><polygon points="664,615 663,616 657,616 656,617 654,617 653,618 652,618 651,619 651,620 649,622 649,624 648,625 648,626 647,627 647,716 646,717 646,775 645,776 645,811 646,812 646,824 645,825 645,893 644,894 644,933 645,934 645,944 644,945 644,956 645,957 645,964 644,965 644,1009 645,1010 644,1011 644,1021 643,1022 643,1041 642,1042 642,1052 643,1053 643,1061 642,1062 642,1090 641,1091 641,1095 642,1096 642,1120 641,1121 641,1174 640,1175 640,1192 641,1193 641,1219 640,1220 640,1268 641,1269 641,1292 640,1293 640,1302 641,1303 641,1310 640,1311 640,1329 641,1330 641,1340 642,1341 642,1358 643,1359 643,1360 648,1365 650,1365 651,1366 680,1366 681,1365 749,1365 750,1366 760,1366 761,1367 780,1367 781,1368 782,1367 833,1367 834,1368 841,1368 842,1369 931,1369 932,1368 954,1368 955,1367 959,1367 960,1366 961,1366 962,1365 963,1365 965,1363 965,1362 966,1361 966,1360 967,1359 967,1343 966,1342 966,1337 965,1336 965,1322 964,1321 964,1315 963,1314 963,1311 962,1310 962,1309 963,1308 963,1305 964,1304 964,1303 965,1302 965,1300 966,1299 966,1297 967,1296 967,1293 968,1292 968,1289 969,1288 969,1283 970,1282 970,1275 971,1274 971,1271 970,1270 970,1249 971,1248 971,1247 970,1246 970,1210 971,1209 971,1203 972,1202 972,1195 973,1194 973,1078 974,1077 974,1058 975,1057 975,1039 974,1038 974,1017 975,1016 975,990 976,989 976,950 975,949 975,911 976,910 976,898 977,897 977,863 976,862 976,814 977,813 977,794 978,793 978,750 977,749 977,748 978,747 978,726 979,725 979,723 978,722 978,717 977,716 977,695 978,694 978,663 977,662 977,631 978,630 978,628 977,627 977,625 976,624 976,623 975,622 974,622 973,621 960,621 959,620 953,620 952,619 879,619 878,618 875,618 874,619 865,619 864,618 858,618 857,617 800,617 799,618 794,618 793,617 772,617 771,618 764,618 763,619 728,619 727,620 721,620 720,619 718,619 717,618 714,618 713,617 691,617 690,616 666,616 665,615" fill="rgba(130,228,50,0.3)" stroke="rgb(130,228,50)" stroke-width="2" data-block-id="0017" data-name="b-0021" /><text x="824" y="1001" text-anchor="middle" dominant-baseline="middle" class="block-label" fill="rgb(130,228,50)" stroke="white" stroke-width="3" paint-order="stroke">b-0021</text><polygon points="697,1456 696,1457 688,1457 687,1458 675,1458 674,1459 649,1459 648,1460 647,1460 646,1461 645,1461 642,1464 642,1466 641,1467 641,1472 640,1473 640,1525 639,1526 639,1590 638,1591 638,1643 637,1644 637,1649 636,1650 636,1665 635,1666 635,1669 636,1670 636,1693 635,1694 635,1765 634,1766 634,1791 633,1792 633,1840 632,1841 632,1931 631,1932 631,1947 632,1948 632,1967 631,1968 631,1986 630,1987 630,2027 629,2028 629,2122 628,2123 628,2183 629,2184 629,2194 630,2195 630,2197 631,2198 631,2199 633,2201 634,2201 635,2202 639,2202 640,2203 697,2203 698,2204 707,2204 708,2205 714,2205 715,2204 800,2204 801,2205 815,2205 816,2204 840,2204 841,2205 842,2205 843,2204 858,2204 859,2205 864,2205 865,2206 945,2206 946,2207 951,2207 952,2206 954,2206 956,2204 957,2204 958,2203 958,2202 959,2201 959,2200 960,2199 960,2197 961,2196 961,2151 962,2150 962,2106 963,2105 963,2099 964,2098 964,2094 965,2093 965,2090 966,2089 966,2085 967,2084 967,2083 966,2082 966,2072 965,2071 965,2065 964,2064 964,2051 963,2050 963,2014 964,2013 964,1986 963,1985 963,1973 964,1972 964,1967 965,1966 965,1942 964,1941 964,1907 965,1906 965,1897 966,1896 966,1848 965,1847 965,1841 964,1840 964,1823 965,1822 965,1775 966,1774 966,1756 965,1755 965,1746 966,1745 966,1717 965,1716 965,1712 966,1711 966,1695 967,1694 967,1657 966,1656 966,1646 967,1645 967,1601 966,1600 966,1590 967,1589 967,1553 968,1552 968,1478 967,1477 967,1474 963,1470 962,1470 961,1469 928,1469 927,1470 916,1470 915,1471 900,1471 899,1470 884,1470 883,1471 876,1471 875,1470 873,1470 872,1469 869,1469 868,1468 861,1468 860,1467 831,1467 830,1466 827,1466 826,1465 824,1465 823,1464 821,1464 820,1463 790,1463 789,1464 781,1464 780,1465 758,1465 757,1464 754,1464 753,1465 748,1465 747,1464 744,1464 743,1463 742,1463 741,1462 740,1462 739,1461 737,1461 736,1460 735,1460 734,1459 733,1459 732,1458 729,1458 728,1457 716,1457 715,1456" fill="rgba(134,20,72,0.3)" stroke="rgb(134,20,72)" stroke-width="2" data-block-id="0018" data-name="b-0022" /><text x="818" y="1795" text-anchor="middle" dominant-baseline="middle" class="block-label" fill="rgb(134,20,72)" stroke="white" stroke-width="3" paint-order="stroke">b-0022</text><polygon points="1510,2490 1509,2491 1508,2491 1507,2492 1505,2492 1504,2493 1501,2493 1500,2494 1484,2494 1483,2495 1479,2495 1478,2496 1476,2496 1474,2498 1474,2499 1473,2500 1473,2502 1472,2503 1472,2525 1473,2526 1473,2584 1472,2585 1472,2596 1471,2597 1471,2624 1472,2625 1472,2677 1471,2678 1471,2688 1470,2689 1470,2719 1471,2720 1471,2770 1470,2771 1470,2782 1469,2783 1469,2796 1470,2797 1470,2807 1469,2808 1469,2838 1468,2839 1468,2861 1469,2862 1469,2902 1468,2903 1468,2910 1469,2911 1469,2921 1470,2922 1469,2923 1469,2935 1470,2936 1470,2942 1471,2943 1471,2946 1472,2947 1472,2948 1475,2951 1476,2951 1477,2952 1484,2952 1485,2953 1491,2953 1492,2954 1496,2954 1497,2955 1501,2955 1502,2954 1507,2954 1508,2953 1536,2953 1537,2954 1539,2954 1540,2955 1541,2955 1542,2956 1543,2956 1545,2958 1547,2958 1548,2959 1569,2959 1570,2958 1573,2958 1574,2957 1576,2957 1577,2956 1580,2956 1581,2955 1588,2955 1589,2956 1600,2956 1601,2955 1612,2955 1613,2956 1618,2956 1619,2957 1635,2957 1636,2958 1646,2958 1647,2957 1652,2957 1653,2956 1658,2956 1659,2957 1673,2957 1674,2956 1690,2956 1691,2957 1693,2957 1694,2956 1702,2956 1703,2957 1712,2957 1713,2958 1726,2958 1727,2957 1733,2957 1734,2956 1744,2956 1745,2957 1770,2957 1771,2958 1778,2958 1779,2959 1793,2959 1794,2958 1824,2958 1825,2957 1828,2957 1829,2956 1832,2956 1834,2954 1835,2954 1835,2953 1836,2952 1836,2951 1837,2950 1837,2948 1838,2947 1838,2935 1839,2934 1839,2928 1838,2927 1838,2870 1839,2869 1839,2820 1840,2819 1840,2747 1841,2746 1841,2708 1842,2707 1842,2700 1841,2699 1841,2656 1842,2655 1842,2635 1841,2634 1841,2632 1842,2631 1842,2603 1843,2602 1843,2592 1842,2591 1842,2560 1843,2559 1843,2529 1844,2528 1844,2518 1843,2517 1843,2507 1842,2506 1842,2501 1841,2500 1841,2499 1838,2496 1837,2496 1836,2495 1835,2495 1834,2494 1825,2494 1824,2493 1821,2493 1820,2494 1814,2494 1813,2495 1780,2495 1779,2494 1756,2494 1755,2493 1750,2493 1749,2494 1745,2494 1744,2495 1740,2495 1739,2496 1733,2496 1732,2495 1713,2495 1712,2494 1708,2494 1707,2493 1705,2493 1704,2492 1678,2492 1677,2493 1640,2493 1639,2492 1636,2492 1635,2491 1632,2491 1631,2490 1627,2490 1626,2491 1619,2491 1618,2492 1614,2492 1613,2493 1595,2493 1594,2492 1586,2492 1585,2491 1582,2491 1581,2492 1577,2492 1576,2493 1565,2493 1564,2492 1557,2492 1556,2491 1540,2491 1539,2492 1529,2492 1528,2493 1522,2493 1521,2492 1518,2492 1517,2491 1514,2491 1513,2490" fill="rgba(83,91,110,0.3)" stroke="rgb(83,91,110)" stroke-width="2" data-block-id="0019" data-name="b-0027" /><text x="1640" y="2725" text-anchor="middle" dominant-baseline="middle" class="block-label" fill="rgb(83,91,110)" stroke="white" stroke-width="3" paint-order="stroke">b-0027</text><polygon points="630,2481 629,2482 626,2482 622,2486 622,2488 621,2489 621,2500 622,2501 622,2538 621,2539 621,2544 620,2545 620,2567 621,2568 621,2593 622,2594 622,2617 621,2618 621,2633 620,2634 620,2640 619,2641 619,2678 618,2679 618,2703 619,2704 618,2705 618,2713 617,2714 617,2728 616,2729 616,2733 617,2734 617,2767 618,2768 618,2798 619,2799 619,2802 618,2803 618,2839 619,2840 619,2858 618,2859 618,2860 619,2861 619,2869 620,2870 620,2893 621,2894 621,2902 620,2903 620,2937 621,2938 621,2940 622,2941 622,2942 625,2945 627,2945 628,2946 630,2946 631,2945 642,2945 643,2946 645,2946 646,2947 650,2947 651,2948 660,2948 661,2949 664,2949 665,2948 701,2948 702,2949 720,2949 721,2950 740,2950 741,2951 752,2951 753,2950 763,2950 764,2951 775,2951 776,2950 836,2950 837,2949 893,2949 894,2950 925,2950 926,2951 939,2951 940,2950 942,2950 943,2949 944,2949 945,2948 946,2948 950,2944 950,2928 951,2927 951,2853 952,2852 952,2843 951,2842 951,2830 952,2829 952,2817 953,2816 953,2797 952,2796 952,2778 953,2777 953,2720 952,2719 952,2713 953,2712 953,2700 952,2699 952,2692 953,2691 953,2682 954,2681 954,2659 955,2658 955,2635 956,2634 956,2633 955,2632 955,2611 956,2610 956,2588 957,2587 956,2586 956,2564 957,2563 957,2545 958,2544 958,2538 957,2537 957,2533 956,2532 956,2514 957,2513 957,2500 956,2499 956,2496 955,2495 955,2493 954,2492 954,2491 953,2490 953,2489 952,2488 951,2488 950,2487 930,2487 929,2486 920,2486 919,2487 912,2487 911,2486 881,2486 880,2485 862,2485 861,2486 849,2486 848,2485 842,2485 841,2484 796,2484 795,2483 787,2483 786,2482 773,2482 772,2483 771,2482 761,2482 760,2481 752,2481 751,2482 717,2482 716,2481 700,2481 699,2482 669,2482 668,2481 656,2481 655,2482 646,2482 645,2481" fill="rgba(187,198,171,0.3)" stroke="rgb(187,198,171)" stroke-width="2" data-block-id="0020" data-name="b-0028" /><text x="784" y="2701" text-anchor="middle" dominant-baseline="middle" class="block-label" fill="rgb(187,198,171)" stroke="white" stroke-width="3" paint-order="stroke">b-0028</text><polygon points="1059,2486 1058,2487 1055,2487 1052,2490 1052,2492 1051,2493 1051,2502 1050,2503 1050,2510 1049,2511 1049,2533 1050,2534 1050,2553 1049,2554 1049,2564 1048,2565 1048,2578 1049,2579 1049,2583 1050,2584 1050,2587 1049,2588 1049,2599 1048,2600 1048,2627 1047,2628 1047,2641 1046,2642 1046,2650 1047,2651 1047,2679 1046,2680 1046,2721 1045,2722 1045,2727 1044,2728 1044,2733 1043,2734 1043,2738 1042,2739 1042,2752 1043,2753 1043,2814 1042,2815 1042,2836 1043,2837 1043,2889 1044,2890 1044,2902 1045,2903 1045,2911 1044,2912 1044,2920 1043,2921 1043,2939 1044,2940 1044,2945 1046,2947 1047,2947 1048,2948 1049,2948 1050,2949 1052,2949 1053,2950 1057,2950 1058,2951 1074,2951 1075,2952 1124,2952 1125,2951 1131,2951 1132,2952 1138,2952 1139,2953 1148,2953 1149,2952 1158,2952 1159,2953 1169,2953 1170,2952 1188,2952 1189,2953 1208,2953 1209,2952 1236,2952 1237,2953 1288,2953 1289,2952 1293,2952 1294,2951 1301,2951 1302,2952 1334,2952 1335,2951 1367,2951 1368,2950 1369,2950 1372,2947 1372,2945 1373,2944 1373,2937 1374,2936 1374,2888 1375,2887 1375,2870 1374,2869 1374,2852 1375,2851 1375,2843 1376,2842 1376,2826 1375,2825 1375,2795 1376,2794 1376,2783 1377,2782 1377,2765 1376,2764 1376,2742 1377,2741 1377,2729 1378,2728 1378,2725 1377,2724 1377,2699 1378,2698 1378,2693 1379,2692 1379,2678 1378,2677 1378,2670 1377,2669 1377,2652 1378,2651 1378,2605 1379,2604 1379,2601 1380,2600 1380,2594 1379,2593 1379,2558 1380,2557 1380,2541 1379,2540 1379,2534 1380,2533 1380,2523 1379,2522 1379,2517 1378,2516 1378,2511 1379,2510 1379,2505 1380,2504 1380,2502 1379,2501 1379,2499 1378,2498 1378,2497 1377,2496 1377,2495 1375,2493 1374,2493 1373,2492 1372,2492 1371,2491 1365,2491 1364,2490 1322,2490 1321,2489 1267,2489 1266,2488 1217,2488 1216,2487 1210,2487 1209,2488 1198,2488 1197,2487 1098,2487 1097,2486" fill="rgba(252,7,174,0.3)" stroke="rgb(252,7,174)" stroke-width="2" data-block-id="0021" data-name="b-0029" /><text x="1217" y="2721" text-anchor="middle" dominant-baseline="middle" class="block-label" fill="rgb(252,7,174)" stroke="white" stroke-width="3" paint-order="stroke">b-0029</text><polygon points="2021,2581 2020,2582 2015,2582 2014,2583 1947,2583 1946,2582 1941,2582 1940,2583 1938,2583 1937,2584 1936,2584 1934,2586 1934,2588 1933,2589 1933,2593 1932,2594 1932,2605 1933,2606 1933,2632 1932,2633 1932,2655 1933,2656 1933,2663 1932,2664 1932,2672 1933,2673 1933,2685 1932,2686 1932,2692 1931,2693 1931,2696 1932,2697 1932,2721 1931,2722 1931,2781 1930,2782 1930,2830 1929,2831 1929,2845 1930,2846 1930,2856 1929,2857 1929,2929 1928,2930 1928,2946 1929,2947 1929,2950 1930,2951 1930,2952 1932,2954 1934,2954 1935,2955 1938,2955 1939,2956 1949,2956 1950,2957 1956,2957 1957,2956 1973,2956 1974,2957 1980,2957 1981,2956 1997,2956 1998,2957 2009,2957 2010,2956 2015,2956 2016,2957 2028,2957 2029,2956 2050,2956 2051,2957 2081,2957 2082,2958 2115,2958 2116,2957 2164,2957 2165,2958 2175,2958 2176,2959 2190,2959 2191,2960 2204,2960 2205,2959 2208,2959 2209,2958 2214,2958 2215,2957 2218,2957 2219,2958 2275,2958 2276,2959 2289,2959 2290,2960 2301,2960 2302,2959 2305,2959 2306,2958 2307,2958 2310,2955 2310,2953 2311,2952 2311,2947 2312,2946 2312,2907 2313,2906 2313,2885 2314,2884 2314,2869 2313,2868 2313,2851 2312,2850 2313,2849 2313,2840 2314,2839 2314,2832 2313,2831 2313,2793 2314,2792 2314,2783 2313,2782 2313,2721 2314,2720 2314,2715 2313,2714 2313,2689 2312,2688 2312,2659 2313,2658 2313,2627 2314,2626 2314,2598 2313,2597 2313,2589 2312,2588 2312,2587 2310,2585 2307,2585 2306,2584 2240,2584 2239,2583 2234,2583 2233,2582 2222,2582 2221,2583 2079,2583 2078,2582 2066,2582 2065,2583 2050,2583 2049,2582 2037,2582 2036,2581" fill="rgba(34,205,80,0.3)" stroke="rgb(34,205,80)" stroke-width="2" data-block-id="0022" data-name="b-0030" /><text x="2109" y="2792" text-anchor="middle" dominant-baseline="middle" class="block-label" fill="rgb(34,205,80)" stroke="white" stroke-width="3" paint-order="stroke">b-0030</text><polygon points="4578,2581 4577,2582 4558,2582 4557,2583 4553,2583 4552,2582 4542,2582 4541,2583 4530,2583 4529,2584 4511,2584 4510,2583 4503,2583 4502,2584 4493,2584 4492,2583 4453,2583 4452,2584 4415,2584 4414,2585 4405,2585 4404,2586 4384,2586 4383,2585 4362,2585 4361,2586 4350,2586 4349,2587 4335,2587 4334,2586 4324,2586 4323,2587 4311,2587 4310,2586 4291,2586 4290,2585 4273,2585 4272,2586 4263,2586 4262,2585 4258,2585 4256,2587 4256,2588 4255,2589 4255,2593 4254,2594 4254,2597 4253,2598 4253,2601 4252,2602 4252,2686 4251,2687 4251,2709 4252,2710 4252,2801 4251,2802 4251,2833 4252,2834 4252,2877 4253,2878 4253,2894 4252,2895 4252,2897 4253,2898 4253,2938 4252,2939 4252,2946 4253,2947 4253,2950 4254,2951 4254,2954 4256,2956 4257,2956 4258,2957 4263,2957 4264,2958 4288,2958 4289,2957 4308,2957 4309,2958 4343,2958 4344,2957 4358,2957 4359,2958 4396,2958 4397,2957 4406,2957 4407,2958 4419,2958 4420,2957 4478,2957 4479,2956 4488,2956 4489,2957 4502,2957 4503,2958 4524,2958 4525,2957 4549,2957 4550,2956 4576,2956 4577,2955 4614,2955 4615,2954 4616,2954 4619,2951 4619,2950 4620,2949 4620,2948 4621,2947 4621,2921 4622,2920 4622,2885 4621,2884 4621,2794 4622,2793 4622,2780 4623,2779 4623,2761 4622,2760 4622,2755 4621,2754 4621,2752 4622,2751 4622,2709 4621,2708 4621,2699 4622,2698 4622,2676 4621,2675 4621,2671 4620,2670 4620,2666 4621,2665 4621,2596 4620,2595 4620,2588 4619,2587 4619,2586 4618,2585 4618,2584 4617,2583 4616,2583 4615,2582 4596,2582 4595,2581" fill="rgba(163,49,103,0.3)" stroke="rgb(163,49,103)" stroke-width="2" data-block-id="0023" data-name="b-0031" /><text x="4441" y="2751" text-anchor="middle" dominant-baseline="middle" class="block-label" fill="rgb(163,49,103)" stroke="white" stroke-width="3" paint-order="stroke">b-0031</text><polygon points="4143,2582 4142,2583 4066,2583 4065,2584 4026,2584 4025,2585 4000,2585 3999,2586 3992,2586 3991,2585 3987,2585 3986,2584 3973,2584 3972,2585 3923,2585 3922,2584 3802,2584 3801,2585 3799,2585 3798,2586 3797,2586 3793,2590 3793,2592 3792,2593 3792,2598 3791,2599 3792,2600 3792,2635 3791,2636 3791,2688 3790,2689 3790,2697 3791,2698 3791,2720 3792,2721 3792,2732 3791,2733 3791,2749 3792,2750 3792,2780 3791,2781 3791,2794 3792,2795 3792,2830 3791,2831 3791,2882 3792,2883 3792,2884 3791,2885 3791,2936 3792,2937 3792,2943 3793,2944 3793,2947 3794,2948 3794,2950 3795,2951 3795,2952 3796,2953 3796,2954 3797,2955 3798,2955 3799,2956 3800,2956 3801,2957 3860,2957 3861,2956 3862,2956 3863,2957 3871,2957 3872,2958 3878,2958 3879,2957 3940,2957 3941,2958 3971,2958 3972,2957 4121,2957 4122,2958 4138,2958 4139,2957 4149,2957 4150,2956 4151,2956 4152,2955 4153,2955 4155,2953 4155,2952 4156,2951 4156,2950 4157,2949 4157,2945 4158,2944 4158,2886 4159,2885 4159,2880 4158,2879 4158,2861 4157,2860 4157,2844 4158,2843 4158,2838 4159,2837 4159,2835 4158,2834 4158,2808 4157,2807 4157,2798 4158,2797 4158,2791 4159,2790 4159,2787 4158,2786 4158,2777 4157,2776 4157,2767 4156,2766 4156,2750 4157,2749 4157,2743 4158,2742 4158,2738 4157,2737 4157,2718 4156,2717 4156,2702 4157,2701 4157,2695 4158,2694 4158,2691 4157,2690 4157,2668 4156,2667 4156,2654 4157,2653 4157,2638 4156,2637 4156,2609 4157,2608 4157,2596 4156,2595 4156,2591 4155,2590 4155,2587 4153,2585 4153,2584 4152,2583 4151,2583 4150,2582" fill="rgba(131,1,253,0.3)" stroke="rgb(131,1,253)" stroke-width="2" data-block-id="0024" data-name="b-0032" /><text x="4000" y="2774" text-anchor="middle" dominant-baseline="middle" class="block-label" fill="rgb(131,1,253)" stroke="white" stroke-width="3" paint-order="stroke">b-0032</text><polygon points="3546,2586 3545,2587 3436,2587 3435,2588 3431,2588 3430,2587 3401,2587 3400,2588 3387,2588 3386,2587 3382,2587 3381,2588 3365,2588 3364,2587 3336,2587 3335,2588 3334,2588 3332,2590 3332,2591 3331,2592 3331,2593 3330,2594 3330,2615 3331,2616 3331,2623 3330,2624 3330,2640 3329,2641 3329,2648 3330,2649 3330,2685 3329,2686 3329,2693 3328,2694 3328,2701 3329,2702 3329,2723 3330,2724 3330,2749 3329,2750 3329,2794 3328,2795 3328,2807 3329,2808 3329,2817 3328,2818 3328,2828 3329,2829 3329,2910 3330,2911 3330,2933 3329,2934 3329,2947 3330,2948 3330,2951 3331,2952 3331,2954 3332,2955 3332,2956 3334,2958 3335,2958 3336,2959 3367,2959 3368,2958 3380,2958 3381,2959 3404,2959 3405,2960 3411,2960 3412,2959 3426,2959 3427,2960 3430,2960 3431,2961 3448,2961 3449,2960 3456,2960 3457,2959 3464,2959 3465,2958 3486,2958 3487,2959 3499,2959 3500,2958 3515,2958 3516,2957 3521,2957 3522,2956 3546,2956 3547,2957 3566,2957 3567,2958 3588,2958 3589,2957 3610,2957 3611,2958 3613,2958 3614,2957 3639,2957 3640,2958 3664,2958 3665,2959 3671,2959 3672,2960 3680,2960 3681,2959 3689,2959 3690,2958 3693,2958 3694,2957 3695,2957 3695,2956 3697,2954 3697,2950 3698,2949 3698,2946 3699,2945 3699,2941 3698,2940 3698,2936 3697,2935 3697,2923 3698,2922 3698,2887 3697,2886 3697,2705 3696,2704 3696,2606 3695,2605 3695,2597 3694,2596 3694,2595 3693,2594 3693,2593 3692,2592 3691,2592 3689,2590 3688,2590 3687,2589 3685,2589 3684,2588 3649,2588 3648,2587 3639,2587 3638,2586" fill="rgba(133,53,105,0.3)" stroke="rgb(133,53,105)" stroke-width="2" data-block-id="0025" data-name="b-0033" /><text x="3492" y="2806" text-anchor="middle" dominant-baseline="middle" class="block-label" fill="rgb(133,53,105)" stroke="white" stroke-width="3" paint-order="stroke">b-0033</text><polygon points="2618,2580 2617,2581 2612,2581 2611,2582 2585,2582 2584,2583 2555,2583 2554,2584 2504,2584 2503,2585 2493,2585 2492,2584 2491,2584 2490,2585 2420,2585 2419,2586 2413,2586 2412,2587 2410,2587 2409,2588 2408,2588 2408,2589 2407,2590 2407,2591 2406,2592 2406,2595 2405,2596 2405,2605 2404,2606 2404,2623 2405,2624 2405,2642 2404,2643 2404,2650 2405,2651 2405,2666 2404,2667 2404,2676 2405,2677 2405,2679 2404,2680 2404,2685 2403,2686 2403,2690 2402,2691 2402,2699 2403,2700 2403,2716 2404,2717 2404,2734 2403,2735 2403,2742 2402,2743 2402,2757 2403,2758 2403,2774 2404,2775 2403,2776 2403,2781 2402,2782 2402,2787 2401,2788 2401,2791 2402,2792 2402,2808 2401,2809 2401,2817 2402,2818 2402,2862 2403,2863 2403,2882 2402,2883 2402,2902 2403,2903 2403,2931 2402,2932 2402,2948 2403,2949 2403,2953 2404,2954 2404,2955 2405,2956 2406,2956 2407,2957 2417,2957 2418,2958 2484,2958 2485,2957 2493,2957 2494,2958 2501,2958 2502,2959 2507,2959 2508,2960 2518,2960 2519,2959 2527,2959 2528,2958 2535,2958 2536,2957 2539,2957 2540,2956 2543,2956 2544,2955 2564,2955 2565,2954 2577,2954 2578,2953 2585,2953 2586,2952 2607,2952 2608,2953 2623,2953 2624,2952 2641,2952 2642,2951 2659,2951 2660,2952 2667,2952 2668,2953 2699,2953 2700,2954 2727,2954 2728,2955 2756,2955 2757,2954 2761,2954 2762,2953 2763,2953 2766,2950 2766,2949 2767,2948 2767,2947 2768,2946 2768,2860 2769,2859 2769,2836 2768,2835 2768,2772 2769,2771 2769,2743 2770,2742 2770,2739 2769,2738 2769,2723 2768,2722 2768,2704 2769,2703 2769,2688 2768,2687 2768,2657 2769,2656 2769,2655 2768,2654 2768,2643 2769,2642 2769,2624 2768,2623 2768,2618 2769,2617 2769,2606 2768,2605 2768,2587 2766,2585 2766,2584 2764,2584 2763,2583 2731,2583 2730,2582 2678,2582 2677,2581 2642,2581 2641,2580" fill="rgba(3,53,220,0.3)" stroke="rgb(3,53,220)" stroke-width="2" data-block-id="0026" data-name="b-0034" /><text x="2554" y="2774" text-anchor="middle" dominant-baseline="middle" class="block-label" fill="rgb(3,53,220)" stroke="white" stroke-width="3" paint-order="stroke">b-0034</text><polygon points="3069,2588 3068,2589 3048,2589 3047,2590 3043,2590 3042,2591 3006,2591 3005,2592 3001,2592 3000,2593 2996,2593 2995,2594 2988,2594 2987,2595 2971,2595 2970,2594 2954,2594 2953,2595 2933,2595 2932,2594 2923,2594 2922,2593 2899,2593 2898,2592 2886,2592 2885,2593 2884,2593 2883,2592 2872,2592 2872,2593 2870,2595 2870,2606 2871,2607 2871,2631 2870,2632 2870,2635 2871,2636 2871,2674 2870,2675 2870,2681 2869,2682 2869,2696 2868,2697 2868,2713 2867,2714 2867,2740 2866,2741 2866,2748 2865,2749 2865,2778 2866,2779 2865,2780 2865,2819 2866,2820 2866,2828 2867,2829 2867,2842 2866,2843 2866,2870 2867,2871 2867,2909 2866,2910 2866,2942 2865,2943 2866,2944 2866,2949 2867,2950 2867,2952 2868,2953 2868,2954 2871,2957 2872,2957 2873,2958 2876,2958 2877,2959 2882,2959 2883,2960 2896,2960 2897,2959 2902,2959 2903,2958 2912,2958 2913,2959 2951,2959 2952,2958 2957,2958 2958,2959 2981,2959 2982,2958 3013,2958 3014,2959 3036,2959 3037,2958 3041,2958 3042,2959 3059,2959 3060,2958 3064,2958 3065,2959 3079,2959 3080,2960 3101,2960 3102,2959 3122,2959 3123,2960 3151,2960 3152,2959 3208,2959 3209,2958 3226,2958 3227,2957 3229,2957 3230,2956 3231,2956 3231,2955 3232,2954 3232,2951 3233,2950 3233,2940 3234,2939 3234,2923 3233,2922 3234,2921 3234,2910 3235,2909 3235,2889 3234,2888 3234,2863 3235,2862 3235,2852 3234,2851 3234,2838 3233,2837 3233,2823 3234,2822 3234,2661 3233,2660 3233,2656 3234,2655 3234,2638 3233,2637 3233,2624 3234,2623 3234,2615 3233,2614 3233,2599 3232,2598 3232,2596 3231,2595 3231,2594 3230,2593 3229,2593 3228,2592 3226,2592 3225,2591 3218,2591 3217,2590 3202,2590 3201,2589 3197,2589 3196,2588 3187,2588 3186,2589 3173,2589 3172,2588 3169,2588 3168,2589 3153,2589 3152,2588 3140,2588 3139,2589 3128,2589 3127,2588 3118,2588 3117,2589 3102,2589 3101,2588 3093,2588 3092,2589 3081,2589 3080,2588" fill="rgba(190,145,217,0.3)" stroke="rgb(190,145,217)" stroke-width="2" data-block-id="0027" data-name="b-0035" /><text x="3045" y="2760" text-anchor="middle" dominant-baseline="middle" class="block-label" fill="rgb(190,145,217)" stroke="white" stroke-width="3" paint-order="stroke">b-0035</text></g>
</svg>