<?xml version='1.0' encoding='utf-8'?>
<svg xmlns="http://www.w3.org/2000/svg" xmlns:atlas="http://example.com/atlas" width="4980" height="3334" viewBox="0 0 4980 3334">
  
  <metadata>
    <atlas:source>
      <atlas:jp2-path>../media/v1/p22.jp2</atlas:jp2-path>
      <atlas:volume>vol1</atlas:volume>
      <atlas:plate-id>p22</atlas:plate-id>
      <atlas:image-width>4980</atlas:image-width>
      <atlas:image-height>3334</atlas:image-height>
    </atlas:source>
  </metadata>

  
  <image id="background" href="file://../media/v1/p22.jp2" width="4980" height="3334" opacity="0.5" />

  <style>
    .block-label { font-family: sans-serif; font-size: 14px; font-weight: bold; }
  </style>

  
  <g id="blocks">
    <polygon points="1271,2105 1270,2106 1267,2106 1266,2107 1264,2107 1263,2108 1260,2108 1259,2109 1253,2109 1252,2110 1250,2110 1249,2111 1248,2111 1247,2112 1247,2113 1246,2114 1246,2115 1245,2116 1245,2151 1244,2152 1244,2167 1245,2168 1245,2198 1244,2199 1244,2226 1245,2227 1245,2245 1244,2246 1244,2263 1245,2264 1245,2286 1246,2287 1246,2300 1247,2301 1247,2315 1248,2316 1248,2321 1249,2322 1249,2336 1248,2337 1248,2378 1247,2379 1247,2411 1246,2412 1246,2417 1245,2418 1245,2421 1244,2422 1244,2430 1243,2431 1243,2449 1242,2450 1242,2460 1243,2461 1243,2486 1242,2487 1242,2519 1241,2520 1241,2579 1240,2580 1240,2675 1239,2676 1239,2687 1240,2688 1240,2694 1239,2695 1239,2732 1240,2733 1240,2755 1239,2756 1239,2801 1238,2802 1238,2816 1239,2817 1239,2824 1240,2825 1240,2853 1239,2854 1239,2872 1240,2873 1240,2927 1239,2928 1239,2997 1240,2998 1240,3000 1244,3004 1245,3004 1246,3005 1247,3005 1248,3006 1251,3006 1252,3007 1264,3007 1265,3006 1270,3006 1271,3005 1276,3005 1277,3006 1288,3006 1289,3005 1301,3005 1302,3006 1336,3006 1337,3005 1352,3005 1353,3006 1358,3006 1359,3005 1365,3005 1366,3004 1370,3004 1371,3005 1379,3005 1380,3006 1381,3006 1382,3005 1388,3005 1389,3004 1393,3004 1394,3005 1400,3005 1401,3006 1406,3006 1407,3005 1413,3005 1414,3004 1419,3004 1420,3005 1429,3005 1430,3004 1435,3004 1436,3003 1447,3003 1448,3004 1456,3004 1457,3003 1467,3003 1468,3004 1493,3004 1494,3005 1503,3005 1504,3004 1509,3004 1510,3003 1513,3003 1514,3004 1558,3004 1559,3005 1597,3005 1598,3004 1599,3004 1600,3003 1601,3003 1603,3001 1603,3000 1604,2999 1604,2996 1605,2995 1605,2984 1606,2983 1606,2941 1607,2940 1607,2878 1608,2877 1608,2788 1609,2787 1609,2785 1608,2784 1608,2687 1609,2686 1609,2664 1608,2663 1608,2656 1609,2655 1609,2606 1610,2605 1610,2597 1611,2596 1611,2579 1610,2578 1610,2557 1611,2556 1611,2526 1610,2525 1610,2511 1611,2510 1611,2458 1612,2457 1612,2439 1611,2438 1611,2427 1610,2426 1610,2393 1609,2392 1609,2377 1610,2376 1610,2315 1611,2314 1611,2304 1610,2303 1610,2296 1611,2295 1611,2286 1612,2285 1612,2269 1613,2268 1613,2248 1612,2247 1612,2213 1613,2212 1613,2186 1612,2185 1612,2147 1611,2146 1611,2118 1610,2117 1610,2116 1609,2115 1609,2114 1607,2112 1606,2112 1605,2111 1601,2111 1600,2110 1596,2110 1595,2109 1593,2109 1592,2110 1549,2110 1548,2111 1533,2111 1532,2110 1511,2110 1510,2109 1504,2109 1503,2108 1488,2108 1487,2109 1456,2109 1455,2110 1440,2110 1439,2109 1433,2109 1432,2108 1428,2108 1427,2107 1421,2107 1420,2106 1415,2106 1414,2105 1400,2105 1399,2106 1396,2106 1395,2107 1391,2107 1390,2108 1329,2108 1328,2107 1301,2107 1300,2108 1292,2108 1291,2107 1283,2107 1282,2106 1276,2106 1275,2105" fill="rgba(74,202,87,0.3)" stroke="rgb(74,202,87)" stroke-width="2" data-block-id="0001" data-name="b-0005" /><text x="1410" y="2542" text-anchor="middle" dominant-baseline="middle" class="block-label" fill="rgb(74,202,87)" stroke="white" stroke-width="3" paint-order="stroke">b-0005</text><polygon points="1259,265 1258,266 1256,266 1255,267 1254,267 1252,269 1252,270 1251,271 1251,272 1250,273 1250,276 1249,277 1249,281 1248,282 1248,285 1249,286 1249,292 1248,293 1248,337 1247,338 1247,348 1246,349 1246,361 1247,362 1247,382 1246,383 1246,395 1247,396 1247,406 1246,407 1246,413 1247,414 1247,426 1248,427 1248,462 1249,463 1249,478 1248,479 1248,524 1247,525 1247,546 1248,547 1248,562 1247,563 1247,572 1246,573 1246,596 1247,597 1247,610 1246,611 1246,646 1247,647 1247,658 1246,659 1246,669 1245,670 1245,678 1246,679 1246,686 1247,687 1247,700 1246,701 1246,712 1245,713 1245,739 1246,740 1246,755 1245,756 1245,760 1246,761 1246,790 1247,791 1247,883 1246,884 1246,947 1247,948 1247,988 1246,989 1246,1014 1247,1015 1247,1100 1246,1101 1246,1119 1247,1120 1247,1127 1246,1128 1246,1152 1247,1153 1247,1155 1250,1158 1251,1158 1252,1159 1255,1159 1256,1160 1259,1160 1260,1161 1264,1161 1265,1162 1271,1162 1272,1163 1304,1163 1305,1164 1332,1164 1333,1163 1383,1163 1384,1164 1392,1164 1393,1165 1412,1165 1413,1164 1496,1164 1497,1165 1523,1165 1524,1164 1538,1164 1539,1165 1602,1165 1603,1164 1607,1164 1608,1163 1609,1163 1611,1161 1611,1160 1612,1159 1612,1156 1613,1155 1613,1073 1614,1072 1614,1064 1613,1063 1613,1049 1614,1048 1614,1040 1613,1039 1613,1024 1614,1023 1614,1019 1613,1018 1613,988 1612,987 1612,983 1613,982 1613,794 1614,793 1614,751 1613,750 1613,745 1614,744 1614,691 1615,690 1615,669 1614,668 1614,658 1615,657 1615,585 1614,584 1614,529 1613,528 1613,460 1612,459 1612,437 1613,436 1613,433 1612,432 1612,399 1611,398 1612,397 1612,387 1611,386 1611,378 1610,377 1610,335 1611,334 1611,321 1612,320 1612,289 1611,288 1611,279 1610,278 1610,274 1609,273 1609,270 1607,268 1606,268 1605,267 1597,267 1596,266 1589,266 1588,267 1568,267 1567,268 1556,268 1555,267 1550,267 1549,266 1544,266 1543,267 1531,267 1530,266 1504,266 1503,265 1497,265 1496,266 1442,266 1441,267 1436,267 1435,266 1405,266 1404,267 1394,267 1393,268 1392,267 1388,267 1387,266 1380,266 1379,265 1376,265 1375,266 1361,266 1360,265" fill="rgba(116,99,103,0.3)" stroke="rgb(116,99,103)" stroke-width="2" data-block-id="0002" data-name="b-0006" /><text x="1411" y="646" text-anchor="middle" dominant-baseline="middle" class="block-label" fill="rgb(116,99,103)" stroke="white" stroke-width="3" paint-order="stroke">b-0006</text><polygon points="912,2103 911,2104 905,2104 904,2105 894,2105 893,2106 880,2106 879,2105 858,2105 857,2104 851,2104 850,2105 821,2105 820,2104 815,2104 814,2105 805,2105 804,2106 800,2106 799,2107 796,2107 795,2108 794,2108 792,2110 792,2111 790,2113 790,2115 789,2116 789,2133 788,2134 788,2156 787,2157 787,2191 786,2192 786,2242 785,2243 785,2328 784,2329 784,2341 785,2342 785,2353 784,2354 784,2360 785,2361 785,2374 784,2375 784,2410 783,2411 783,2424 782,2425 782,2432 783,2433 783,2473 782,2474 782,2478 783,2479 783,2486 784,2487 784,2515 783,2516 783,2552 782,2553 782,2580 783,2581 783,2588 782,2589 782,2601 783,2602 783,2637 782,2638 782,2683 781,2684 781,2756 780,2757 780,2766 781,2767 781,2783 780,2784 780,2830 779,2831 779,2866 780,2867 780,2876 779,2877 779,2911 778,2912 778,2992 779,2993 779,2994 780,2995 780,2996 783,2999 784,2999 785,3000 787,3000 788,3001 790,3001 791,3002 794,3002 795,3003 800,3003 801,3004 815,3004 816,3003 826,3003 827,3004 857,3004 858,3003 864,3003 865,3002 870,3002 871,3003 882,3003 883,3002 896,3002 897,3003 1003,3003 1004,3004 1053,3004 1054,3003 1060,3003 1061,3004 1074,3004 1075,3003 1090,3003 1091,3004 1130,3004 1131,3003 1137,3003 1138,3002 1140,3002 1143,2999 1143,2997 1144,2996 1144,2993 1145,2992 1145,2909 1146,2908 1146,2886 1145,2885 1145,2858 1146,2857 1146,2770 1147,2769 1147,2738 1148,2737 1148,2719 1147,2718 1147,2713 1148,2712 1148,2694 1147,2693 1147,2692 1148,2691 1148,2666 1149,2665 1149,2635 1150,2634 1150,2626 1149,2625 1149,2616 1150,2615 1150,2516 1151,2515 1151,2511 1150,2510 1150,2493 1151,2492 1151,2467 1150,2466 1150,2451 1151,2450 1151,2427 1150,2426 1150,2252 1151,2251 1151,2237 1150,2236 1150,2209 1151,2208 1151,2199 1150,2198 1150,2158 1151,2157 1151,2153 1150,2152 1150,2128 1149,2127 1149,2117 1148,2116 1148,2114 1147,2113 1147,2112 1145,2110 1144,2110 1143,2109 1140,2109 1139,2108 1125,2108 1124,2109 1099,2109 1098,2108 1087,2108 1086,2107 1076,2107 1075,2108 1065,2108 1064,2107 997,2107 996,2106 931,2106 930,2105 922,2105 921,2104 916,2104 915,2103" fill="rgba(151,130,149,0.3)" stroke="rgb(151,130,149)" stroke-width="2" data-block-id="0003" data-name="b-0007" /><text x="949" y="2526" text-anchor="middle" dominant-baseline="middle" class="block-label" fill="rgb(151,130,149)" stroke="white" stroke-width="3" paint-order="stroke">b-0007</text><polygon points="4384,2075 4383,2076 4363,2076 4362,2077 4357,2077 4356,2078 4340,2078 4339,2079 4330,2079 4329,2080 4318,2080 4317,2081 4312,2081 4311,2082 4309,2082 4308,2083 4307,2083 4306,2084 4294,2084 4293,2085 4291,2085 4290,2086 4288,2086 4287,2087 4285,2087 4284,2088 4279,2088 4278,2089 4272,2089 4271,2090 4267,2090 4266,2091 4260,2091 4259,2092 4250,2092 4249,2093 4242,2093 4241,2094 4237,2094 4236,2095 4232,2095 4231,2096 4227,2096 4226,2097 4220,2097 4219,2098 4212,2098 4211,2099 4197,2099 4196,2100 4189,2100 4188,2101 4174,2101 4173,2102 4166,2102 4165,2103 4156,2103 4155,2104 4139,2104 4138,2105 4121,2105 4120,2106 4113,2106 4112,2107 4102,2107 4101,2108 4097,2108 4096,2109 4093,2109 4092,2110 4085,2110 4084,2111 4076,2111 4075,2112 4073,2112 4072,2113 4070,2113 4069,2114 4066,2114 4065,2115 4055,2115 4054,2116 4052,2116 4048,2120 4048,2121 4046,2123 4046,2124 4043,2127 4043,2128 4042,2129 4042,2131 4041,2132 4041,2140 4042,2141 4042,2167 4041,2168 4041,2176 4040,2177 4040,2189 4041,2190 4041,2194 4042,2195 4042,2197 4043,2198 4043,2200 4044,2201 4044,2211 4045,2212 4045,2230 4046,2231 4046,2249 4047,2250 4047,2268 4046,2269 4046,2288 4047,2289 4047,2298 4046,2299 4046,2300 4044,2302 4044,2303 4043,2304 4043,2305 4042,2306 4042,2309 4041,2310 4041,2329 4042,2330 4042,2336 4043,2337 4043,2341 4044,2342 4044,2347 4045,2348 4045,2353 4046,2354 4046,2358 4047,2359 4047,2361 4048,2362 4048,2364 4049,2365 4049,2366 4050,2367 4050,2369 4051,2370 4051,2373 4052,2374 4052,2378 4053,2379 4053,2383 4052,2384 4052,2390 4051,2391 4051,2401 4052,2402 4052,2432 4051,2433 4051,2441 4050,2442 4050,2450 4049,2451 4049,2460 4048,2461 4048,2499 4047,2500 4047,2502 4046,2503 4046,2505 4045,2506 4045,2507 4044,2508 4044,2510 4043,2511 4043,2526 4042,2527 4042,2532 4041,2533 4041,2544 4042,2545 4042,2550 4041,2551 4041,2560 4040,2561 4041,2562 4041,2589 4042,2590 4042,2611 4043,2612 4043,2639 4044,2640 4044,2647 4043,2648 4043,2652 4042,2653 4042,2660 4043,2661 4043,2673 4042,2674 4042,2684 4043,2685 4043,2695 4042,2696 4042,2700 4041,2701 4041,2709 4042,2710 4042,2725 4041,2726 4041,2727 4042,2728 4042,2735 4043,2736 4043,2743 4042,2744 4042,2761 4043,2762 4043,2765 4042,2766 4042,2779 4043,2780 4043,2784 4044,2785 4044,2790 4043,2791 4043,2794 4042,2795 4042,2806 4043,2807 4043,2829 4044,2830 4044,2840 4043,2841 4043,2873 4044,2874 4044,2888 4043,2889 4043,2895 4042,2896 4043,2897 4043,2904 4044,2905 4044,2912 4043,2913 4043,2919 4044,2920 4044,2940 4043,2941 4043,2945 4044,2946 4044,2957 4045,2958 4045,2973 4046,2974 4046,2986 4045,2987 4045,2990 4046,2991 4046,3000 4047,3001 4047,3003 4048,3004 4048,3005 4052,3009 4054,3009 4055,3010 4058,3010 4059,3009 4094,3009 4095,3008 4130,3008 4131,3007 4155,3007 4156,3006 4183,3006 4184,3005 4215,3005 4216,3004 4241,3004 4242,3003 4259,3003 4260,3002 4266,3002 4267,3001 4288,3001 4289,3000 4307,3000 4308,2999 4313,2999 4314,2998 4334,2998 4335,2997 4348,2997 4349,2996 4359,2996 4360,2995 4375,2995 4376,2994 4393,2994 4394,2993 4399,2993 4400,2992 4401,2992 4405,2988 4405,2987 4406,2986 4406,2984 4407,2983 4407,2979 4408,2978 4408,2955 4409,2954 4409,2935 4408,2934 4408,2929 4409,2928 4409,2923 4410,2922 4410,2890 4409,2889 4409,2839 4408,2838 4408,2829 4409,2828 4409,2820 4408,2819 4408,2791 4409,2790 4409,2757 4410,2756 4410,2748 4409,2747 4409,2720 4408,2719 4408,2711 4409,2710 4409,2696 4408,2695 4408,2672 4407,2671 4407,2645 4406,2644 4406,2629 4407,2628 4407,2614 4408,2613 4408,2609 4407,2608 4407,2599 4406,2598 4406,2553 4405,2552 4405,2523 4406,2522 4406,2511 4405,2510 4405,2502 4404,2501 4404,2478 4405,2477 4405,2458 4404,2457 4404,2412 4405,2411 4405,2399 4404,2398 4404,2383 4403,2382 4403,2379 4402,2378 4402,2375 4401,2374 4401,2372 4400,2371 4400,2366 4401,2365 4401,2361 4402,2360 4402,2338 4403,2337 4403,2332 4402,2331 4402,2328 4401,2327 4401,2324 4400,2323 4400,2320 4401,2319 4401,2318 4402,2317 4402,2315 4403,2314 4403,2310 4404,2309 4404,2306 4403,2305 4403,2284 4402,2283 4402,2244 4403,2243 4403,2235 4402,2234 4402,2232 4401,2231 4401,2229 4400,2228 4400,2223 4401,2222 4401,2220 4402,2219 4402,2187 4401,2186 4401,2168 4402,2167 4402,2165 4401,2164 4401,2134 4400,2133 4400,2129 4401,2128 4401,2101 4400,2100 4400,2087 4399,2086 4399,2082 4395,2078 4394,2078 4393,2077 4392,2077 4391,2076 4387,2076 4386,2075" fill="rgba(52,1,87,0.3)" stroke="rgb(52,1,87)" stroke-width="2" data-block-id="0004" data-name="b-0008" /><text x="4203" y="2479" text-anchor="middle" dominant-baseline="middle" class="block-label" fill="rgb(52,1,87)" stroke="white" stroke-width="3" paint-order="stroke">b-0008</text><polygon points="2677,274 2676,275 2670,275 2669,276 2666,276 2665,277 2661,277 2660,278 2654,278 2653,277 2633,277 2632,278 2629,278 2628,279 2627,279 2626,280 2625,280 2622,283 2622,284 2621,285 2621,286 2620,287 2620,289 2619,290 2619,295 2618,296 2618,313 2619,314 2619,318 2618,319 2618,327 2617,328 2617,337 2616,338 2616,347 2615,348 2615,353 2616,354 2616,355 2617,356 2617,357 2618,358 2618,360 2619,361 2619,362 2620,363 2620,369 2619,370 2619,381 2618,382 2618,401 2619,402 2619,409 2620,410 2619,411 2619,415 2618,416 2618,419 2617,420 2617,423 2616,424 2616,429 2617,430 2617,446 2618,447 2618,453 2619,454 2619,468 2618,469 2618,474 2617,475 2617,480 2616,481 2616,499 2617,500 2617,511 2616,512 2616,516 2615,517 2615,525 2616,526 2616,538 2617,539 2617,550 2618,551 2618,560 2617,561 2617,574 2616,575 2616,582 2615,583 2615,602 2616,603 2616,618 2615,619 2615,624 2614,625 2614,640 2615,641 2615,684 2616,685 2616,714 2615,715 2615,740 2616,741 2616,749 2615,750 2615,757 2614,758 2614,767 2613,768 2613,773 2614,774 2614,788 2615,789 2615,800 2614,801 2614,817 2613,818 2613,834 2614,835 2614,860 2615,861 2615,871 2614,872 2614,877 2615,878 2615,892 2614,893 2614,950 2613,951 2613,981 2614,982 2614,987 2613,988 2613,1009 2614,1010 2614,1011 2613,1012 2613,1023 2614,1024 2614,1046 2615,1047 2615,1166 2616,1167 2616,1168 2617,1169 2617,1170 2618,1171 2618,1172 2619,1173 2619,1174 2622,1177 2623,1177 2624,1178 2663,1178 2664,1179 2698,1179 2699,1178 2703,1178 2704,1177 2709,1177 2710,1178 2727,1178 2728,1177 2732,1177 2733,1178 2759,1178 2760,1179 2772,1179 2773,1178 2791,1178 2792,1179 2823,1179 2824,1178 2829,1178 2830,1179 2849,1179 2850,1178 2866,1178 2867,1179 2873,1179 2874,1180 2893,1180 2894,1179 2959,1179 2960,1178 2963,1178 2964,1177 2965,1177 2966,1176 2967,1176 2968,1175 2969,1175 2971,1173 2971,1172 2972,1171 2972,1170 2973,1169 2973,1167 2974,1166 2974,1159 2975,1158 2975,1145 2976,1144 2976,1138 2975,1137 2975,1119 2976,1118 2976,1101 2975,1100 2975,1075 2976,1074 2976,1064 2977,1063 2977,1056 2976,1055 2976,1041 2975,1040 2975,1019 2976,1018 2976,1012 2977,1011 2977,902 2976,901 2976,887 2977,886 2977,877 2978,876 2977,875 2977,834 2978,833 2978,797 2977,796 2977,792 2978,791 2978,771 2979,770 2979,754 2978,753 2978,741 2979,740 2979,734 2980,733 2980,732 2979,731 2979,686 2980,685 2980,684 2979,683 2979,672 2980,671 2980,659 2979,658 2979,654 2978,653 2978,647 2979,646 2979,642 2980,641 2980,630 2979,629 2979,608 2978,607 2978,577 2979,576 2979,564 2978,563 2978,557 2977,556 2977,552 2978,551 2978,521 2977,520 2977,515 2976,514 2976,510 2975,509 2975,506 2976,505 2976,503 2977,502 2977,499 2978,498 2978,490 2977,489 2977,468 2976,467 2976,462 2975,461 2975,457 2976,456 2976,427 2977,426 2977,425 2976,424 2976,418 2975,417 2975,408 2976,407 2976,404 2977,403 2977,378 2976,377 2976,371 2975,370 2975,360 2976,359 2976,357 2977,356 2977,353 2978,352 2978,349 2977,348 2977,322 2976,321 2976,298 2975,297 2975,291 2974,290 2974,286 2973,285 2973,282 2972,281 2972,279 2970,277 2970,276 2969,276 2968,275 2966,275 2965,276 2963,276 2962,277 2960,277 2959,278 2942,278 2941,277 2934,277 2933,276 2917,276 2916,277 2911,277 2910,278 2895,278 2894,277 2890,277 2889,276 2874,276 2873,277 2870,277 2869,278 2834,278 2833,277 2829,277 2828,276 2822,276 2821,277 2817,277 2816,278 2791,278 2790,277 2774,277 2773,278 2770,278 2769,279 2740,279 2739,278 2733,278 2732,277 2725,277 2724,276 2711,276 2710,277 2704,277 2703,276 2697,276 2696,275 2688,275 2687,274" fill="rgba(235,157,37,0.3)" stroke="rgb(235,157,37)" stroke-width="2" data-block-id="0005" data-name="b-0009" /><text x="2795" y="637" text-anchor="middle" dominant-baseline="middle" class="block-label" fill="rgb(235,157,37)" stroke="white" stroke-width="3" paint-order="stroke">b-0009</text><polygon points="3553,2116 3552,2117 3542,2117 3541,2118 3537,2118 3536,2119 3535,2119 3534,2120 3533,2120 3531,2122 3531,2123 3530,2124 3530,2126 3529,2127 3529,2163 3528,2164 3528,2166 3529,2167 3529,2177 3530,2178 3530,2226 3531,2227 3531,2243 3530,2244 3530,2296 3529,2297 3529,2318 3530,2319 3530,2341 3531,2342 3531,2355 3530,2356 3530,2362 3531,2363 3531,2399 3530,2400 3530,2420 3531,2421 3531,2434 3532,2435 3532,2485 3533,2486 3533,2491 3532,2492 3532,2504 3531,2505 3531,2533 3532,2534 3532,2552 3531,2553 3531,2558 3530,2559 3530,2566 3531,2567 3531,2681 3532,2682 3532,2687 3533,2688 3533,2694 3532,2695 3532,2698 3531,2699 3531,2712 3532,2713 3532,2722 3531,2723 3531,2731 3532,2732 3532,2744 3531,2745 3531,2761 3532,2762 3532,2796 3531,2797 3531,2802 3532,2803 3532,2827 3533,2828 3533,2840 3532,2841 3532,2847 3531,2848 3531,2849 3532,2850 3532,2877 3533,2878 3533,2889 3532,2890 3532,2902 3533,2903 3533,2926 3534,2927 3534,2933 3533,2934 3533,2962 3532,2963 3532,2969 3533,2970 3533,2990 3534,2991 3534,2994 3535,2995 3535,2997 3536,2998 3536,2999 3538,3001 3540,3001 3541,3002 3560,3002 3561,3003 3567,3003 3568,3002 3583,3002 3584,3003 3752,3003 3753,3004 3756,3004 3757,3003 3764,3003 3765,3002 3774,3002 3775,3003 3781,3003 3782,3002 3799,3002 3800,3003 3803,3003 3804,3002 3854,3002 3855,3001 3888,3001 3889,3000 3894,3000 3895,2999 3897,2999 3899,2997 3899,2996 3900,2995 3900,2993 3901,2992 3901,2967 3902,2966 3902,2965 3901,2964 3901,2896 3902,2895 3902,2893 3901,2892 3901,2850 3902,2849 3902,2845 3901,2844 3901,2830 3900,2829 3900,2816 3899,2815 3899,2803 3900,2802 3900,2799 3899,2798 3899,2787 3898,2786 3898,2784 3899,2783 3899,2771 3898,2770 3898,2759 3899,2758 3899,2745 3898,2744 3898,2722 3899,2721 3899,2706 3898,2705 3898,2701 3899,2700 3899,2690 3900,2689 3900,2682 3901,2681 3901,2661 3902,2660 3902,2606 3901,2605 3901,2588 3902,2587 3902,2578 3901,2577 3901,2566 3902,2565 3902,2561 3901,2560 3901,2554 3900,2553 3900,2548 3899,2547 3899,2534 3898,2533 3898,2511 3897,2510 3897,2503 3896,2502 3896,2497 3895,2496 3895,2492 3894,2491 3894,2488 3895,2487 3895,2485 3896,2484 3896,2481 3897,2480 3897,2463 3898,2462 3898,2444 3897,2443 3897,2441 3898,2440 3898,2435 3899,2434 3899,2421 3900,2420 3900,2401 3899,2400 3899,2392 3898,2391 3898,2384 3897,2383 3897,2349 3896,2348 3896,2346 3897,2345 3897,2337 3898,2336 3898,2286 3897,2285 3897,2277 3898,2276 3898,2208 3897,2207 3897,2204 3896,2203 3896,2200 3895,2199 3895,2196 3894,2195 3894,2171 3895,2170 3895,2161 3894,2160 3894,2129 3893,2128 3893,2125 3892,2124 3892,2123 3891,2122 3891,2121 3890,2120 3889,2120 3888,2119 3885,2119 3884,2118 3874,2118 3873,2117 3872,2118 3843,2118 3842,2119 3833,2119 3832,2118 3823,2118 3822,2119 3796,2119 3795,2120 3787,2120 3786,2119 3779,2119 3778,2118 3762,2118 3761,2119 3751,2119 3750,2118 3739,2118 3738,2119 3734,2119 3733,2120 3727,2120 3726,2119 3692,2119 3691,2118 3647,2118 3646,2117 3610,2117 3609,2116 3585,2116 3584,2117 3556,2117 3555,2116" fill="rgba(129,191,187,0.3)" stroke="rgb(129,191,187)" stroke-width="2" data-block-id="0006" data-name="b-0010" /><text x="3733" y="2544" text-anchor="middle" dominant-baseline="middle" class="block-label" fill="rgb(129,191,187)" stroke="white" stroke-width="3" paint-order="stroke">b-0010</text><polygon points="3731,275 3730,276 3729,276 3728,277 3727,277 3726,278 3722,278 3721,279 3701,279 3700,280 3688,280 3687,279 3633,279 3632,280 3615,280 3614,279 3586,279 3585,280 3562,280 3561,281 3557,281 3556,282 3550,282 3549,281 3547,281 3546,280 3544,280 3543,279 3538,279 3534,283 3534,284 3533,285 3533,288 3532,289 3532,316 3531,317 3531,378 3532,379 3532,418 3531,419 3531,428 3532,429 3532,438 3531,439 3531,489 3530,490 3530,502 3531,503 3531,514 3530,515 3530,551 3531,552 3531,558 3530,559 3530,596 3531,597 3531,633 3530,634 3530,648 3529,649 3529,671 3530,672 3530,679 3529,680 3529,706 3528,707 3528,730 3527,731 3527,739 3528,740 3528,789 3529,790 3529,798 3528,799 3528,826 3527,827 3527,835 3528,836 3528,859 3529,860 3529,866 3528,867 3528,888 3529,889 3529,892 3528,893 3528,905 3529,906 3529,921 3528,922 3528,929 3529,930 3529,944 3528,945 3528,958 3529,959 3528,960 3528,971 3527,972 3527,975 3528,976 3528,1023 3529,1024 3529,1030 3530,1031 3530,1035 3529,1036 3529,1064 3528,1065 3528,1076 3529,1077 3529,1086 3528,1087 3528,1093 3529,1094 3529,1103 3530,1104 3530,1107 3529,1108 3529,1125 3530,1126 3530,1156 3529,1157 3529,1169 3530,1170 3530,1174 3531,1175 3531,1176 3533,1178 3534,1178 3535,1179 3536,1179 3537,1180 3539,1180 3540,1181 3587,1181 3588,1182 3602,1182 3603,1181 3608,1181 3609,1180 3624,1180 3625,1181 3665,1181 3666,1182 3673,1182 3674,1181 3697,1181 3698,1182 3719,1182 3720,1183 3739,1183 3740,1182 3745,1182 3746,1181 3749,1181 3750,1180 3753,1180 3754,1179 3759,1179 3760,1180 3789,1180 3790,1179 3793,1179 3794,1180 3860,1180 3861,1181 3864,1181 3865,1180 3887,1180 3888,1179 3890,1179 3891,1178 3892,1178 3895,1175 3895,1173 3896,1172 3896,1168 3897,1167 3897,1147 3896,1146 3896,1141 3895,1140 3895,1134 3894,1133 3894,1130 3893,1129 3893,1127 3892,1126 3892,1124 3891,1123 3891,1121 3890,1120 3890,1118 3889,1117 3889,1103 3888,1102 3888,1100 3887,1099 3887,1097 3886,1096 3886,1093 3885,1092 3885,1080 3884,1079 3884,1053 3885,1052 3885,1043 3884,1042 3884,1038 3883,1037 3883,1034 3882,1033 3882,1018 3883,1017 3883,984 3882,983 3882,972 3883,971 3883,908 3882,907 3882,895 3881,894 3881,883 3882,882 3882,863 3883,862 3883,855 3884,854 3884,848 3885,847 3885,842 3886,841 3886,828 3887,827 3887,824 3888,823 3888,820 3889,819 3889,816 3888,815 3888,811 3887,810 3887,802 3888,801 3888,798 3889,797 3889,794 3890,793 3890,790 3891,789 3891,787 3892,786 3892,783 3893,782 3893,779 3894,778 3894,774 3895,773 3895,758 3896,757 3896,739 3897,738 3897,721 3896,720 3896,693 3897,692 3897,671 3896,670 3896,649 3895,648 3895,641 3894,640 3894,627 3893,626 3893,621 3892,620 3892,618 3891,617 3891,605 3892,604 3892,594 3891,593 3891,592 3892,591 3892,582 3893,581 3893,579 3892,578 3892,574 3891,573 3891,569 3890,568 3890,528 3889,527 3889,522 3888,521 3888,505 3887,504 3887,499 3886,498 3886,490 3887,489 3887,466 3888,465 3888,449 3889,448 3889,420 3890,419 3890,368 3891,367 3891,360 3892,359 3892,355 3893,354 3893,331 3894,330 3894,323 3895,322 3895,313 3896,312 3896,294 3895,293 3895,289 3894,288 3894,286 3893,285 3893,284 3892,283 3892,282 3890,280 3889,280 3888,279 3885,279 3884,278 3876,278 3875,277 3868,277 3867,278 3855,278 3854,277 3844,277 3843,276 3841,276 3840,275 3827,275 3826,276 3779,276 3778,277 3740,277 3739,276 3735,276 3734,275" fill="rgba(20,160,203,0.3)" stroke="rgb(20,160,203)" stroke-width="2" data-block-id="0007" data-name="b-0011" /><text x="3740" y="752" text-anchor="middle" dominant-baseline="middle" class="block-label" fill="rgb(20,160,203)" stroke="white" stroke-width="3" paint-order="stroke">b-0011</text><polygon points="2225,272 2224,273 2219,273 2218,274 2195,274 2194,275 2191,275 2190,274 2183,274 2182,273 2181,274 2176,274 2175,275 2172,275 2171,276 2170,276 2169,277 2168,277 2166,279 2166,383 2167,384 2167,393 2166,394 2166,452 2165,453 2165,489 2166,490 2166,500 2165,501 2165,515 2166,516 2166,536 2167,537 2167,546 2166,547 2166,569 2167,570 2167,584 2168,585 2168,592 2167,593 2167,597 2166,598 2166,612 2167,613 2167,633 2168,634 2168,640 2167,641 2167,647 2166,648 2166,691 2165,692 2165,696 2164,697 2164,719 2165,720 2165,727 2166,728 2166,741 2165,742 2165,793 2164,794 2164,812 2165,813 2165,819 2164,820 2164,826 2163,827 2163,858 2164,859 2164,898 2163,899 2163,904 2164,905 2164,920 2163,921 2163,996 2164,997 2164,1010 2163,1011 2163,1018 2162,1019 2162,1022 2163,1023 2163,1063 2162,1064 2162,1069 2161,1070 2161,1075 2162,1076 2162,1080 2161,1081 2161,1093 2162,1094 2162,1098 2163,1099 2163,1107 2162,1108 2162,1112 2161,1113 2161,1135 2160,1136 2160,1141 2161,1142 2161,1143 2162,1144 2162,1146 2163,1147 2163,1150 2164,1151 2164,1158 2163,1159 2163,1163 2164,1164 2164,1165 2165,1166 2165,1167 2166,1168 2167,1168 2171,1172 2172,1172 2173,1173 2174,1173 2175,1174 2177,1174 2178,1175 2201,1175 2202,1174 2211,1174 2212,1173 2224,1173 2225,1174 2247,1174 2248,1175 2255,1175 2256,1174 2269,1174 2270,1175 2291,1175 2292,1176 2295,1176 2296,1177 2317,1177 2318,1178 2329,1178 2330,1177 2336,1177 2337,1176 2338,1177 2375,1177 2376,1176 2413,1176 2414,1177 2421,1177 2422,1176 2428,1176 2429,1175 2440,1175 2441,1174 2446,1174 2447,1175 2461,1175 2462,1176 2472,1176 2473,1175 2480,1175 2481,1176 2485,1176 2486,1177 2489,1177 2490,1178 2505,1178 2506,1177 2507,1177 2508,1176 2510,1176 2511,1175 2513,1175 2514,1174 2515,1174 2516,1173 2517,1173 2522,1168 2522,1167 2523,1166 2523,1163 2524,1162 2524,1161 2523,1160 2523,1142 2522,1141 2522,1130 2521,1129 2522,1128 2522,1120 2523,1119 2523,1110 2522,1109 2522,1084 2521,1083 2521,1078 2522,1077 2522,1036 2521,1035 2521,1030 2522,1029 2522,1012 2521,1011 2521,981 2522,980 2522,976 2523,975 2523,955 2522,954 2522,935 2523,934 2523,929 2524,928 2524,909 2523,908 2523,895 2522,894 2522,887 2523,886 2523,879 2524,878 2524,851 2523,850 2523,833 2524,832 2524,787 2525,786 2525,769 2524,768 2524,753 2523,752 2523,742 2524,741 2524,722 2523,721 2523,714 2522,713 2522,695 2523,694 2523,689 2524,688 2524,680 2523,679 2523,659 2522,658 2522,646 2523,645 2523,627 2522,626 2522,598 2523,597 2523,548 2524,547 2524,521 2523,520 2523,502 2524,501 2524,495 2525,494 2525,479 2524,478 2524,462 2523,461 2523,460 2524,459 2524,452 2525,451 2525,433 2524,432 2524,419 2523,418 2523,407 2524,406 2524,381 2525,380 2525,370 2524,369 2524,362 2525,361 2525,356 2526,355 2526,327 2525,326 2525,319 2524,318 2524,314 2525,313 2525,307 2526,306 2526,298 2525,297 2525,291 2524,290 2524,288 2523,287 2523,285 2522,284 2522,282 2516,276 2515,276 2514,275 2478,275 2477,274 2473,274 2472,273 2463,273 2462,274 2458,274 2457,275 2450,275 2449,274 2435,274 2434,275 2429,275 2428,274 2417,274 2416,275 2412,275 2411,276 2401,276 2400,275 2378,275 2377,274 2369,274 2368,275 2366,275 2365,276 2361,276 2360,277 2358,277 2357,276 2352,276 2351,275 2344,275 2343,274 2329,274 2328,273 2316,273 2315,274 2286,274 2285,273 2281,273 2280,272 2269,272 2268,273 2249,273 2248,274 2237,274 2236,273 2232,273 2231,272" fill="rgba(57,21,252,0.3)" stroke="rgb(57,21,252)" stroke-width="2" data-block-id="0008" data-name="b-0012" /><text x="2353" y="741" text-anchor="middle" dominant-baseline="middle" class="block-label" fill="rgb(57,21,252)" stroke="white" stroke-width="3" paint-order="stroke">b-0012</text><polygon points="2261,2111 2260,2112 2195,2112 2194,2113 2174,2113 2173,2114 2169,2114 2168,2115 2167,2115 2166,2116 2165,2116 2164,2117 2164,2118 2162,2120 2162,2123 2161,2124 2161,2138 2162,2139 2162,2143 2161,2144 2161,2148 2160,2149 2160,2158 2161,2159 2161,2194 2162,2195 2162,2197 2163,2198 2163,2199 2168,2204 2168,2210 2167,2211 2167,2216 2168,2217 2168,2221 2169,2222 2169,2229 2168,2230 2168,2231 2167,2232 2167,2234 2166,2235 2166,2264 2167,2265 2167,2268 2169,2270 2170,2270 2170,2268 2171,2267 2171,2266 2172,2265 2172,2264 2173,2263 2173,2262 2174,2261 2174,2241 2175,2240 2175,2239 2174,2238 2174,2235 2173,2234 2173,2232 2172,2231 2172,2230 2171,2229 2171,2226 2173,2224 2174,2224 2175,2223 2182,2223 2183,2224 2184,2224 2185,2225 2186,2225 2189,2228 2189,2230 2191,2232 2191,2233 2193,2235 2193,2239 2192,2240 2192,2241 2188,2245 2188,2246 2187,2247 2187,2249 2186,2250 2186,2252 2187,2253 2187,2256 2188,2257 2188,2258 2194,2264 2194,2265 2195,2266 2195,2267 2197,2269 2197,2270 2198,2271 2198,2272 2202,2276 2203,2276 2204,2277 2206,2277 2207,2278 2209,2278 2210,2279 2212,2279 2213,2280 2214,2280 2215,2281 2215,2282 2216,2283 2216,2285 2215,2286 2214,2286 2213,2287 2210,2287 2209,2288 2197,2288 2196,2289 2186,2289 2185,2288 2177,2288 2176,2287 2174,2287 2173,2286 2172,2286 2171,2285 2167,2285 2162,2290 2162,2292 2161,2293 2161,2317 2162,2318 2162,2325 2161,2326 2161,2343 2160,2344 2160,2349 2161,2350 2161,2383 2160,2384 2160,2437 2159,2438 2159,2498 2158,2499 2158,2506 2159,2507 2159,2517 2158,2518 2158,2553 2159,2554 2159,2557 2160,2558 2160,2565 2159,2566 2159,2568 2158,2569 2158,2580 2159,2581 2159,2587 2158,2588 2158,2605 2159,2606 2159,2607 2158,2608 2158,2615 2157,2616 2157,2638 2158,2639 2158,2674 2157,2675 2157,2700 2156,2701 2156,2711 2157,2712 2157,2719 2156,2720 2156,2733 2157,2734 2157,2749 2156,2750 2156,2753 2157,2754 2157,2766 2156,2767 2156,2789 2155,2790 2155,2895 2154,2896 2154,2962 2153,2963 2153,2978 2154,2979 2154,2995 2155,2996 2155,3000 2156,3001 2156,3002 2158,3004 2160,3004 2161,3005 2163,3005 2164,3006 2169,3006 2170,3007 2178,3007 2179,3006 2211,3006 2212,3007 2215,3007 2216,3006 2223,3006 2224,3005 2245,3005 2246,3006 2264,3006 2265,3005 2299,3005 2300,3006 2320,3006 2321,3005 2344,3005 2345,3006 2375,3006 2376,3005 2438,3005 2439,3004 2452,3004 2453,3005 2457,3005 2458,3004 2474,3004 2475,3005 2483,3005 2484,3004 2493,3004 2494,3003 2505,3003 2506,3002 2508,3002 2509,3001 2510,3001 2511,3000 2512,3000 2513,2999 2514,2999 2514,2998 2516,2996 2516,2994 2517,2993 2517,2894 2518,2893 2518,2866 2517,2865 2517,2849 2518,2848 2518,2790 2519,2789 2519,2741 2520,2740 2520,2726 2519,2725 2519,2655 2520,2654 2520,2599 2521,2598 2521,2588 2520,2587 2520,2564 2519,2563 2519,2560 2518,2559 2518,2557 2517,2556 2517,2554 2516,2553 2516,2552 2514,2550 2514,2549 2513,2548 2513,2529 2514,2528 2514,2524 2515,2523 2515,2522 2516,2521 2516,2519 2517,2518 2517,2515 2518,2514 2518,2511 2519,2510 2519,2506 2520,2505 2520,2310 2521,2309 2521,2292 2520,2291 2520,2250 2521,2249 2521,2235 2520,2234 2520,2213 2521,2212 2521,2125 2520,2124 2520,2120 2519,2119 2519,2117 2516,2114 2514,2114 2513,2113 2509,2113 2508,2112 2492,2112 2491,2113 2458,2113 2457,2112 2412,2112 2411,2111 2404,2111 2403,2112 2351,2112 2350,2113 2323,2113 2322,2112 2315,2112 2314,2111 2310,2111 2309,2112 2303,2112 2302,2113 2286,2113 2285,2112 2269,2112 2268,2111" fill="rgba(235,88,48,0.3)" stroke="rgb(235,88,48)" stroke-width="2" data-block-id="0009" data-name="b-0013" /><text x="2279" y="2471" text-anchor="middle" dominant-baseline="middle" class="block-label" fill="rgb(235,88,48)" stroke="white" stroke-width="3" paint-order="stroke">b-0013</text><polygon points="2623,2112 2622,2113 2618,2113 2617,2114 2616,2114 2613,2117 2613,2120 2612,2121 2612,2126 2611,2127 2611,2134 2610,2135 2610,2171 2611,2172 2611,2187 2612,2188 2612,2197 2611,2198 2611,2217 2612,2218 2612,2257 2611,2258 2611,2265 2612,2266 2612,2321 2613,2322 2613,2324 2612,2325 2612,2365 2613,2366 2613,2447 2612,2448 2612,2460 2613,2461 2613,2473 2612,2474 2612,2635 2611,2636 2611,2672 2612,2673 2612,2747 2613,2748 2613,2772 2612,2773 2612,2782 2613,2783 2613,2791 2612,2792 2612,2805 2613,2806 2613,2833 2614,2834 2614,2846 2613,2847 2613,2926 2614,2927 2614,2932 2613,2933 2613,2955 2614,2956 2614,2971 2613,2972 2613,2981 2614,2982 2614,2991 2615,2992 2615,2994 2616,2995 2616,2996 2618,2998 2619,2998 2620,2999 2621,2999 2622,3000 2625,3000 2626,3001 2630,3001 2631,3002 2640,3002 2641,3003 2689,3003 2690,3004 2697,3004 2698,3003 2739,3003 2740,3004 2743,3004 2744,3003 2836,3003 2837,3004 2864,3004 2865,3003 2872,3003 2873,3002 2876,3002 2877,3003 2914,3003 2915,3002 2956,3002 2957,3001 2962,3001 2963,3000 2965,3000 2966,2999 2966,2998 2967,2997 2967,2996 2968,2995 2968,2992 2969,2991 2969,2987 2970,2986 2970,2952 2969,2951 2969,2939 2968,2938 2968,2933 2967,2932 2967,2911 2966,2910 2966,2904 2967,2903 2967,2888 2968,2887 2968,2852 2969,2851 2969,2845 2968,2844 2968,2839 2967,2838 2967,2833 2968,2832 2968,2830 2969,2829 2969,2824 2970,2823 2970,2816 2969,2815 2969,2780 2968,2779 2968,2774 2969,2773 2969,2754 2968,2753 2968,2747 2969,2746 2969,2734 2968,2733 2968,2727 2969,2726 2969,2722 2970,2721 2970,2698 2971,2697 2971,2671 2972,2670 2972,2655 2973,2654 2973,2652 2974,2651 2974,2648 2975,2647 2975,2607 2974,2606 2974,2568 2973,2567 2973,2563 2972,2562 2972,2532 2971,2531 2971,2523 2970,2522 2970,2516 2969,2515 2969,2509 2970,2508 2970,2495 2969,2494 2969,2482 2970,2481 2970,2469 2969,2468 2969,2464 2970,2463 2970,2457 2971,2456 2971,2446 2970,2445 2970,2439 2969,2438 2969,2436 2968,2435 2968,2433 2967,2432 2967,2431 2966,2430 2966,2424 2967,2423 2967,2417 2968,2416 2968,2410 2969,2409 2969,2400 2968,2399 2968,2386 2969,2385 2969,2382 2971,2380 2971,2379 2973,2377 2973,2376 2974,2375 2974,2372 2975,2371 2975,2362 2976,2361 2976,2352 2975,2351 2975,2277 2974,2276 2974,2272 2975,2271 2975,2262 2976,2261 2975,2260 2975,2230 2974,2229 2974,2223 2975,2222 2975,2128 2974,2127 2974,2120 2972,2118 2972,2117 2971,2117 2970,2116 2961,2116 2960,2115 2917,2115 2916,2114 2878,2114 2877,2115 2870,2115 2869,2114 2832,2114 2831,2115 2821,2115 2820,2114 2806,2114 2805,2115 2764,2115 2763,2114 2749,2114 2748,2115 2738,2115 2737,2114 2660,2114 2659,2113 2625,2113 2624,2112" fill="rgba(218,58,254,0.3)" stroke="rgb(218,58,254)" stroke-width="2" data-block-id="0010" data-name="b-0014" /><text x="2833" y="2582" text-anchor="middle" dominant-baseline="middle" class="block-label" fill="rgb(218,58,254)" stroke="white" stroke-width="3" paint-order="stroke">b-0014</text><polygon points="3323,273 3322,274 3318,274 3317,275 3313,275 3312,276 3303,276 3302,277 3295,277 3294,278 3290,278 3289,279 3286,279 3285,278 3270,278 3269,279 3257,279 3256,278 3202,278 3201,279 3197,279 3196,280 3172,280 3171,281 3170,280 3167,280 3166,279 3163,279 3162,278 3158,278 3157,277 3152,277 3151,278 3138,278 3137,277 3134,277 3133,278 3125,278 3124,279 3107,279 3106,278 3098,278 3097,279 3088,279 3087,280 3085,280 3081,284 3081,285 3080,286 3080,288 3079,289 3079,336 3078,337 3078,345 3079,346 3079,355 3078,356 3078,373 3079,374 3079,378 3078,379 3078,394 3079,395 3079,409 3078,410 3078,419 3077,420 3077,433 3078,434 3078,478 3077,479 3077,491 3078,492 3078,499 3077,500 3077,536 3078,537 3078,547 3077,548 3077,573 3076,574 3076,630 3077,631 3077,637 3078,638 3078,642 3079,643 3079,646 3080,647 3080,651 3081,652 3081,653 3080,654 3080,661 3081,662 3081,664 3082,665 3082,666 3083,667 3083,668 3085,670 3085,671 3086,672 3086,674 3087,675 3087,679 3086,680 3086,691 3087,692 3087,719 3086,720 3086,782 3085,783 3085,820 3084,821 3084,833 3083,834 3083,840 3082,841 3082,855 3081,856 3081,859 3080,860 3080,863 3079,864 3079,867 3078,868 3078,870 3077,871 3077,874 3076,875 3076,878 3075,879 3075,884 3074,885 3074,917 3075,918 3075,928 3074,929 3074,968 3075,969 3075,975 3074,976 3074,983 3073,984 3073,988 3074,989 3074,1006 3075,1007 3075,1075 3074,1076 3074,1132 3073,1133 3073,1151 3074,1152 3074,1162 3075,1163 3075,1165 3076,1166 3076,1167 3077,1168 3078,1168 3081,1171 3082,1171 3083,1172 3084,1172 3085,1173 3103,1173 3104,1174 3133,1174 3134,1175 3162,1175 3163,1176 3191,1176 3192,1175 3219,1175 3220,1174 3244,1174 3245,1173 3251,1173 3252,1174 3256,1174 3257,1175 3260,1175 3261,1176 3264,1176 3265,1177 3286,1177 3287,1178 3291,1178 3292,1177 3304,1177 3305,1176 3310,1176 3311,1175 3316,1175 3317,1174 3321,1174 3322,1173 3331,1173 3332,1174 3339,1174 3340,1173 3348,1173 3349,1172 3371,1172 3372,1173 3381,1173 3382,1174 3393,1174 3394,1173 3405,1173 3406,1174 3420,1174 3421,1173 3422,1173 3425,1170 3425,1169 3427,1167 3427,1165 3428,1164 3428,1162 3429,1161 3429,1155 3430,1154 3430,1137 3431,1136 3431,1121 3430,1120 3430,1112 3431,1111 3431,1097 3430,1096 3430,1086 3431,1085 3431,1077 3430,1076 3430,1059 3431,1058 3431,1054 3430,1053 3430,1037 3431,1036 3431,1028 3430,1027 3430,1014 3431,1013 3431,1003 3430,1002 3430,992 3431,991 3431,981 3430,980 3430,952 3429,951 3429,934 3428,933 3428,931 3427,930 3427,929 3425,927 3425,926 3424,925 3424,923 3425,922 3425,920 3426,919 3426,918 3427,917 3427,910 3426,909 3426,908 3424,906 3424,905 3422,903 3422,902 3421,901 3421,896 3422,895 3422,878 3423,877 3423,871 3424,870 3424,863 3425,862 3425,853 3426,852 3426,848 3427,847 3427,843 3428,842 3428,837 3429,836 3429,828 3430,827 3430,811 3431,810 3431,789 3430,788 3430,763 3431,762 3431,739 3430,738 3430,706 3431,705 3431,695 3430,694 3430,660 3431,659 3431,645 3430,644 3430,619 3429,618 3429,612 3430,611 3430,594 3429,593 3429,578 3430,577 3430,568 3431,567 3431,561 3430,560 3430,548 3429,547 3429,513 3430,512 3430,503 3429,502 3429,477 3430,476 3430,388 3429,387 3429,379 3428,378 3428,373 3429,372 3429,366 3430,365 3430,283 3429,282 3429,280 3427,278 3425,278 3424,277 3422,277 3421,276 3403,276 3402,275 3393,275 3392,276 3365,276 3364,275 3355,275 3354,276 3340,276 3339,275 3331,275 3330,274 3327,274 3326,273" fill="rgba(169,219,187,0.3)" stroke="rgb(169,219,187)" stroke-width="2" data-block-id="0011" data-name="b-0015" /><text x="3261" y="745" text-anchor="middle" dominant-baseline="middle" class="block-label" fill="rgb(169,219,187)" stroke="white" stroke-width="3" paint-order="stroke">b-0015</text><polygon points="3311,2112 3310,2113 3281,2113 3280,2114 3273,2114 3272,2113 3260,2113 3259,2114 3255,2114 3254,2115 3252,2115 3251,2116 3250,2116 3249,2117 3248,2117 3247,2118 3246,2118 3244,2120 3243,2120 3240,2123 3238,2123 3237,2124 3234,2124 3233,2125 3227,2125 3226,2126 3222,2126 3221,2127 3217,2127 3216,2128 3211,2128 3210,2129 3205,2129 3204,2130 3202,2130 3201,2129 3190,2129 3189,2130 3152,2130 3151,2131 3145,2131 3144,2132 3141,2132 3140,2133 3137,2133 3136,2134 3128,2134 3127,2133 3118,2133 3117,2134 3094,2134 3093,2133 3087,2133 3086,2134 3084,2134 3083,2135 3082,2135 3078,2139 3078,2140 3077,2141 3077,2143 3076,2144 3076,2146 3077,2147 3077,2172 3076,2173 3076,2194 3077,2195 3077,2220 3076,2221 3076,2242 3075,2243 3075,2292 3076,2293 3076,2295 3077,2296 3077,2298 3076,2299 3076,2301 3075,2302 3075,2305 3074,2306 3074,2346 3075,2347 3075,2360 3074,2361 3074,2386 3073,2387 3073,2418 3074,2419 3074,2423 3075,2424 3075,2427 3076,2428 3076,2431 3077,2432 3077,2443 3078,2444 3078,2454 3079,2455 3079,2477 3080,2478 3080,2484 3081,2485 3081,2499 3080,2500 3080,2531 3081,2532 3081,2552 3080,2553 3080,2568 3079,2569 3079,2572 3080,2573 3080,2579 3081,2580 3081,2588 3082,2589 3082,2598 3081,2599 3081,2607 3080,2608 3080,2617 3079,2618 3079,2625 3080,2626 3080,2645 3079,2646 3079,2649 3078,2650 3078,2653 3077,2654 3077,2659 3078,2660 3078,2666 3079,2667 3079,2709 3078,2710 3078,2723 3079,2724 3079,2733 3078,2734 3078,2747 3077,2748 3077,2771 3078,2772 3078,2778 3077,2779 3077,2789 3076,2790 3076,2796 3075,2797 3075,2807 3076,2808 3076,2891 3075,2892 3075,2902 3076,2903 3076,2925 3077,2926 3077,2932 3076,2933 3076,2941 3075,2942 3075,2956 3076,2957 3076,2998 3077,2999 3077,3001 3078,3002 3079,3002 3080,3003 3081,3003 3082,3004 3085,3004 3086,3005 3089,3005 3090,3004 3107,3004 3108,3005 3109,3005 3110,3004 3140,3004 3141,3003 3150,3003 3151,3004 3164,3004 3165,3005 3175,3005 3176,3006 3184,3006 3185,3005 3189,3005 3190,3004 3201,3004 3202,3005 3212,3005 3213,3004 3219,3004 3220,3005 3233,3005 3234,3004 3250,3004 3251,3005 3261,3005 3262,3004 3264,3004 3265,3005 3284,3005 3285,3004 3296,3004 3297,3005 3304,3005 3305,3004 3320,3004 3321,3005 3328,3005 3329,3004 3394,3004 3395,3005 3398,3005 3399,3004 3416,3004 3417,3005 3419,3005 3420,3004 3425,3004 3426,3003 3428,3003 3429,3002 3430,3002 3432,3000 3432,2999 3433,2998 3433,2995 3434,2994 3434,2985 3435,2984 3435,2976 3436,2975 3436,2962 3435,2961 3435,2956 3434,2955 3434,2885 3435,2884 3435,2876 3434,2875 3434,2826 3435,2825 3435,2766 3434,2765 3434,2741 3435,2740 3435,2718 3434,2717 3434,2712 3435,2711 3435,2694 3434,2693 3434,2677 3433,2676 3433,2671 3432,2670 3432,2662 3431,2661 3431,2652 3432,2651 3432,2607 3433,2606 3433,2600 3434,2599 3434,2541 3433,2540 3433,2474 3432,2473 3432,2467 3431,2466 3431,2443 3430,2442 3430,2440 3431,2439 3431,2431 3432,2430 3432,2424 3431,2423 3431,2414 3432,2413 3432,2400 3431,2399 3431,2361 3432,2360 3432,2352 3431,2351 3431,2336 3430,2335 3430,2320 3431,2319 3431,2305 3430,2304 3430,2302 3429,2301 3429,2294 3430,2293 3430,2292 3431,2291 3431,2288 3432,2287 3432,2264 3433,2263 3433,2260 3432,2259 3432,2234 3431,2233 3431,2219 3432,2218 3432,2170 3433,2169 3433,2164 3432,2163 3432,2139 3431,2138 3431,2128 3430,2127 3430,2125 3429,2124 3429,2122 3428,2121 3428,2120 3425,2117 3424,2117 3423,2116 3422,2116 3421,2115 3416,2115 3415,2114 3409,2114 3408,2113 3380,2113 3379,2114 3367,2114 3366,2113 3361,2113 3360,2112 3359,2112 3358,2113 3354,2113 3353,2114 3332,2114 3331,2113 3324,2113 3323,2112" fill="rgba(207,14,189,0.3)" stroke="rgb(207,14,189)" stroke-width="2" data-block-id="0012" data-name="b-0016" /><text x="3244" y="2523" text-anchor="middle" dominant-baseline="middle" class="block-label" fill="rgb(207,14,189)" stroke="white" stroke-width="3" paint-order="stroke">b-0016</text><polygon points="1820,270 1819,271 1812,271 1811,272 1784,272 1783,271 1753,271 1752,272 1724,272 1723,273 1722,273 1721,274 1720,274 1716,278 1716,281 1715,282 1715,301 1714,302 1714,315 1713,316 1713,334 1714,335 1714,366 1715,367 1715,378 1714,379 1714,382 1713,383 1713,411 1712,412 1712,465 1713,466 1713,478 1712,479 1712,547 1711,548 1711,578 1710,579 1710,586 1711,587 1711,593 1710,594 1710,604 1711,605 1711,647 1710,648 1710,702 1711,703 1711,716 1710,717 1710,837 1709,838 1709,842 1710,843 1710,872 1711,873 1711,880 1710,881 1710,946 1709,947 1709,953 1710,954 1710,1039 1711,1040 1711,1079 1710,1080 1710,1087 1711,1088 1711,1095 1710,1096 1710,1106 1711,1107 1711,1159 1712,1160 1712,1164 1713,1165 1713,1166 1716,1169 1718,1169 1719,1170 1721,1170 1722,1171 1753,1171 1754,1170 1777,1170 1778,1171 1791,1171 1792,1170 1802,1170 1803,1169 1814,1169 1815,1168 1839,1168 1840,1169 1864,1169 1865,1170 1871,1170 1872,1171 1879,1171 1880,1172 1888,1172 1889,1171 1909,1171 1910,1172 1917,1172 1918,1173 1944,1173 1945,1172 1965,1172 1966,1173 1993,1173 1994,1172 2020,1172 2021,1171 2024,1171 2025,1170 2026,1170 2028,1168 2029,1168 2029,1167 2031,1165 2031,1163 2032,1162 2032,1138 2031,1137 2031,1113 2030,1112 2030,1095 2031,1094 2030,1093 2030,1064 2029,1063 2029,1055 2030,1054 2030,1028 2029,1027 2029,991 2028,990 2028,972 2029,971 2029,948 2028,947 2028,900 2029,899 2029,860 2028,859 2028,815 2029,814 2029,778 2030,777 2030,767 2029,766 2029,655 2030,654 2030,649 2029,648 2029,563 2030,562 2030,452 2029,451 2029,443 2030,442 2030,402 2029,401 2029,397 2030,396 2030,384 2029,383 2029,358 2030,357 2030,335 2031,334 2031,318 2030,317 2030,308 2031,307 2031,305 2030,304 2030,289 2029,288 2029,282 2028,281 2028,279 2027,278 2027,277 2025,275 2024,275 2023,274 2014,274 2013,273 2010,273 2009,272 2005,272 2004,271 1995,271 1994,272 1945,272 1944,273 1925,273 1924,274 1916,274 1915,273 1914,273 1913,272 1911,272 1910,271 1908,271 1907,270 1897,270 1896,271 1892,271 1891,270 1850,270 1849,271 1843,271 1842,270" fill="rgba(189,174,189,0.3)" stroke="rgb(189,174,189)" stroke-width="2" data-block-id="0013" data-name="b-0017" /><text x="1876" y="703" text-anchor="middle" dominant-baseline="middle" class="block-label" fill="rgb(189,174,189)" stroke="white" stroke-width="3" paint-order="stroke">b-0017</text><polygon points="1722,2108 1721,2109 1716,2109 1715,2110 1714,2110 1712,2112 1712,2113 1711,2114 1711,2115 1710,2116 1710,2117 1709,2118 1709,2120 1708,2121 1708,2126 1707,2127 1707,2232 1708,2233 1708,2241 1707,2242 1707,2249 1706,2250 1706,2330 1707,2331 1707,2335 1706,2336 1706,2346 1705,2347 1705,2400 1704,2401 1704,2450 1703,2451 1703,2462 1704,2463 1704,2487 1703,2488 1703,2508 1704,2509 1704,2521 1703,2522 1703,2531 1704,2532 1704,2538 1703,2539 1703,2661 1702,2662 1702,2686 1701,2687 1701,2698 1702,2699 1702,2707 1701,2708 1701,2760 1700,2761 1700,2768 1701,2769 1701,2779 1700,2780 1700,2844 1701,2845 1701,2848 1700,2849 1700,2869 1701,2870 1701,2872 1700,2873 1700,2912 1701,2913 1701,2922 1700,2923 1700,2971 1699,2972 1699,2993 1700,2994 1700,2997 1701,2998 1701,3000 1703,3002 1704,3002 1705,3003 1707,3003 1708,3004 1710,3004 1711,3005 1715,3005 1716,3006 1717,3005 1762,3005 1763,3006 1775,3006 1776,3005 1802,3005 1803,3006 1828,3006 1829,3005 1853,3005 1854,3006 1862,3006 1863,3005 1875,3005 1876,3004 1892,3004 1893,3005 1929,3005 1930,3006 1945,3006 1946,3005 1990,3005 1991,3006 2002,3006 2003,3005 2007,3005 2008,3004 2011,3004 2012,3003 2013,3003 2016,3000 2016,2998 2017,2997 2017,2993 2018,2992 2018,2982 2019,2981 2019,2954 2018,2953 2018,2947 2017,2946 2017,2940 2018,2939 2018,2936 2019,2935 2019,2900 2018,2899 2018,2892 2019,2891 2019,2887 2020,2886 2020,2874 2019,2873 2019,2864 2020,2863 2020,2856 2019,2855 2019,2844 2020,2843 2020,2793 2021,2792 2021,2763 2022,2762 2022,2761 2021,2760 2021,2736 2022,2735 2022,2690 2023,2689 2023,2636 2024,2635 2024,2631 2023,2630 2023,2600 2024,2599 2024,2568 2023,2567 2023,2556 2024,2555 2024,2364 2025,2363 2025,2348 2024,2347 2024,2318 2025,2317 2025,2302 2024,2301 2024,2242 2025,2241 2025,2206 2024,2205 2024,2172 2025,2171 2025,2151 2024,2150 2024,2122 2025,2121 2025,2120 2024,2119 2024,2117 2023,2116 2023,2115 2022,2114 2021,2114 2020,2113 2019,2113 2018,2112 2017,2112 2016,2111 2012,2111 2011,2110 1973,2110 1972,2111 1963,2111 1962,2110 1932,2110 1931,2111 1930,2110 1917,2110 1916,2109 1898,2109 1897,2110 1864,2110 1863,2109 1851,2109 1850,2110 1839,2110 1838,2109 1830,2109 1829,2110 1818,2110 1817,2109 1790,2109 1789,2108 1772,2108 1771,2109 1742,2109 1741,2108" fill="rgba(50,107,54,0.3)" stroke="rgb(50,107,54)" stroke-width="2" data-block-id="0014" data-name="b-0018" /><text x="1863" y="2576" text-anchor="middle" dominant-baseline="middle" class="block-label" fill="rgb(50,107,54)" stroke="white" stroke-width="3" paint-order="stroke">b-0018</text><polygon points="3605,1286 3604,1287 3597,1287 3596,1288 3591,1288 3590,1289 3567,1289 3566,1288 3557,1288 3556,1289 3538,1289 3537,1290 3536,1290 3535,1291 3534,1291 3533,1292 3533,1293 3532,1294 3532,1295 3531,1296 3531,1299 3530,1300 3530,1304 3529,1305 3529,1311 3530,1312 3530,1336 3529,1337 3529,1347 3528,1348 3528,1360 3529,1361 3529,1386 3530,1387 3530,1392 3529,1393 3529,1410 3530,1411 3530,1431 3529,1432 3529,1442 3528,1443 3528,1526 3529,1527 3529,1538 3528,1539 3528,1553 3529,1554 3529,1560 3530,1561 3530,1565 3531,1566 3531,1572 3530,1573 3530,1574 3529,1575 3529,1578 3528,1579 3528,1588 3527,1589 3527,1604 3528,1605 3528,1649 3529,1650 3529,1661 3528,1662 3528,1667 3529,1668 3529,1730 3528,1731 3528,1756 3529,1757 3529,1771 3530,1772 3530,1821 3531,1822 3530,1823 3530,1922 3529,1923 3529,1934 3530,1935 3530,1944 3529,1945 3529,1959 3530,1960 3530,1966 3529,1967 3529,2003 3530,2004 3530,2006 3531,2007 3531,2008 3532,2009 3532,2010 3535,2013 3536,2013 3537,2014 3538,2014 3539,2015 3541,2015 3542,2016 3550,2016 3551,2017 3642,2017 3643,2016 3668,2016 3669,2017 3712,2017 3713,2016 3726,2016 3727,2017 3820,2017 3821,2018 3829,2018 3830,2017 3846,2017 3847,2016 3878,2016 3879,2015 3885,2015 3886,2014 3888,2014 3889,2013 3890,2013 3895,2008 3895,2006 3896,2005 3896,2003 3897,2002 3897,1998 3898,1997 3898,1979 3897,1978 3897,1970 3898,1969 3898,1959 3897,1958 3897,1948 3898,1947 3898,1909 3897,1908 3897,1900 3898,1899 3898,1833 3899,1832 3899,1815 3898,1814 3898,1802 3899,1801 3899,1786 3898,1785 3898,1776 3899,1775 3898,1774 3898,1764 3897,1763 3897,1754 3898,1753 3898,1734 3897,1733 3897,1716 3896,1715 3896,1693 3897,1692 3897,1682 3896,1681 3896,1654 3897,1653 3897,1647 3898,1646 3898,1620 3897,1619 3897,1606 3898,1605 3898,1583 3897,1582 3897,1577 3896,1576 3896,1572 3895,1571 3895,1567 3894,1566 3894,1564 3893,1563 3893,1560 3892,1559 3892,1549 3893,1548 3893,1545 3892,1544 3892,1537 3891,1536 3891,1532 3892,1531 3892,1525 3893,1524 3893,1518 3892,1517 3892,1456 3893,1455 3893,1411 3894,1410 3894,1404 3895,1403 3895,1386 3896,1385 3896,1378 3897,1377 3897,1364 3898,1363 3898,1324 3897,1323 3897,1313 3898,1312 3898,1307 3897,1306 3897,1302 3896,1301 3896,1298 3895,1297 3895,1296 3892,1293 3891,1293 3890,1292 3889,1292 3888,1291 3884,1291 3883,1290 3879,1290 3878,1289 3874,1289 3873,1288 3859,1288 3858,1289 3854,1289 3853,1290 3844,1290 3843,1289 3835,1289 3834,1290 3820,1290 3819,1289 3796,1289 3795,1290 3777,1290 3776,1289 3769,1289 3768,1288 3725,1288 3724,1287 3702,1287 3701,1288 3694,1288 3693,1289 3668,1289 3667,1288 3661,1288 3660,1287 3650,1287 3649,1288 3627,1288 3626,1289 3624,1289 3623,1288 3618,1288 3617,1287 3614,1287 3613,1286" fill="rgba(243,63,248,0.3)" stroke="rgb(243,63,248)" stroke-width="2" data-block-id="0015" data-name="b-0019" /><text x="3726" y="1593" text-anchor="middle" dominant-baseline="middle" class="block-label" fill="rgb(243,63,248)" stroke="white" stroke-width="3" paint-order="stroke">b-0019</text><polygon points="1278,1274 1277,1275 1267,1275 1266,1276 1257,1276 1256,1277 1254,1277 1253,1278 1251,1278 1249,1280 1249,1281 1248,1282 1248,1283 1247,1284 1247,1293 1246,1294 1246,1366 1247,1367 1247,1396 1246,1397 1246,1409 1247,1410 1247,1458 1248,1459 1248,1461 1247,1462 1247,1464 1246,1465 1246,1467 1245,1468 1245,1471 1244,1472 1244,1486 1245,1487 1245,1525 1246,1526 1246,1534 1247,1535 1247,1537 1246,1538 1246,1547 1247,1548 1247,1553 1248,1554 1248,1557 1249,1558 1249,1576 1248,1577 1248,1605 1249,1606 1249,1619 1248,1620 1248,1630 1247,1631 1247,1661 1246,1662 1246,1711 1245,1712 1245,1714 1246,1715 1246,1738 1245,1739 1246,1740 1246,1752 1245,1753 1245,1763 1246,1764 1246,1851 1245,1852 1245,1889 1244,1890 1244,1896 1245,1897 1245,1947 1244,1948 1244,1954 1245,1955 1245,1977 1246,1978 1246,1998 1247,1999 1247,2001 1248,2001 1250,2003 1253,2003 1254,2004 1257,2004 1258,2005 1265,2005 1266,2006 1279,2006 1280,2007 1283,2007 1284,2006 1289,2006 1290,2005 1309,2005 1310,2006 1335,2006 1336,2005 1350,2005 1351,2006 1364,2006 1365,2005 1377,2005 1378,2006 1379,2005 1389,2005 1390,2004 1433,2004 1434,2003 1443,2003 1444,2004 1487,2004 1488,2005 1519,2005 1520,2004 1530,2004 1531,2005 1541,2005 1542,2004 1549,2004 1550,2005 1565,2005 1566,2004 1571,2004 1572,2003 1598,2003 1599,2002 1602,2002 1603,2001 1605,2001 1607,1999 1608,1999 1608,1998 1609,1997 1609,1995 1610,1994 1610,1992 1611,1991 1611,1988 1612,1987 1612,1981 1613,1980 1613,1972 1612,1971 1612,1881 1613,1880 1613,1853 1612,1852 1612,1839 1613,1838 1613,1812 1612,1811 1612,1795 1613,1794 1613,1732 1614,1731 1614,1707 1613,1706 1613,1687 1614,1686 1614,1669 1613,1668 1613,1647 1614,1646 1614,1630 1613,1629 1613,1600 1614,1599 1614,1566 1613,1565 1613,1555 1614,1554 1614,1545 1615,1544 1615,1535 1614,1534 1614,1499 1615,1498 1615,1487 1614,1486 1614,1457 1613,1456 1613,1398 1614,1397 1614,1389 1613,1388 1613,1290 1612,1289 1612,1286 1611,1285 1611,1283 1610,1282 1610,1281 1607,1278 1606,1278 1605,1277 1594,1277 1593,1276 1592,1277 1582,1277 1581,1276 1563,1276 1562,1277 1509,1277 1508,1276 1453,1276 1452,1277 1436,1277 1435,1276 1420,1276 1419,1275 1417,1275 1416,1276 1397,1276 1396,1275 1386,1275 1385,1276 1354,1276 1353,1275 1289,1275 1288,1274" fill="rgba(130,228,50,0.3)" stroke="rgb(130,228,50)" stroke-width="2" data-block-id="0016" data-name="b-0020" /><text x="1416" y="1661" text-anchor="middle" dominant-baseline="middle" class="block-label" fill="rgb(130,228,50)" stroke="white" stroke-width="3" paint-order="stroke">b-0020</text><polygon points="2688,1282 2687,1283 2677,1283 2676,1284 2670,1284 2669,1285 2664,1285 2663,1286 2651,1286 2650,1285 2643,1285 2642,1286 2637,1286 2636,1287 2623,1287 2622,1288 2620,1288 2617,1291 2617,1292 2616,1293 2616,1294 2615,1295 2615,1301 2614,1302 2614,1320 2613,1321 2613,1326 2612,1327 2612,1349 2613,1350 2613,1359 2612,1360 2612,1365 2611,1366 2611,1378 2612,1379 2612,1383 2613,1384 2613,1388 2614,1389 2614,1400 2615,1401 2615,1419 2616,1420 2616,1433 2615,1434 2615,1447 2614,1448 2614,1453 2615,1454 2615,1476 2614,1477 2614,1483 2613,1484 2613,1503 2614,1504 2614,1553 2615,1554 2615,1564 2614,1565 2614,1607 2615,1608 2615,1644 2614,1645 2614,1658 2613,1659 2613,1682 2614,1683 2614,1696 2613,1697 2613,1723 2614,1724 2614,1731 2615,1732 2615,1742 2614,1743 2614,1751 2613,1752 2613,1772 2614,1773 2614,1780 2615,1781 2615,1791 2614,1792 2614,1802 2615,1803 2615,1818 2614,1819 2615,1820 2615,1829 2616,1830 2616,1834 2615,1835 2615,1839 2614,1840 2614,1867 2615,1868 2615,1910 2614,1911 2614,1919 2615,1920 2615,1934 2614,1935 2614,1959 2615,1960 2615,1981 2614,1982 2614,1992 2615,1993 2615,1999 2616,2000 2616,2001 2621,2006 2622,2006 2624,2008 2626,2008 2627,2009 2630,2009 2631,2010 2634,2010 2635,2011 2656,2011 2657,2010 2686,2010 2687,2011 2703,2011 2704,2012 2709,2012 2710,2011 2723,2011 2724,2012 2758,2012 2759,2013 2777,2013 2778,2012 2789,2012 2790,2013 2795,2013 2796,2014 2799,2014 2800,2015 2809,2015 2810,2014 2821,2014 2822,2013 2843,2013 2844,2014 2866,2014 2867,2015 2873,2015 2874,2016 2886,2016 2887,2015 2894,2015 2895,2014 2967,2014 2968,2013 2969,2013 2970,2012 2970,2011 2972,2009 2972,2008 2973,2007 2973,2005 2974,2004 2974,2003 2975,2002 2975,1860 2976,1859 2976,1841 2975,1840 2975,1812 2976,1811 2976,1794 2975,1793 2975,1778 2976,1777 2976,1765 2975,1764 2975,1760 2976,1759 2976,1738 2977,1737 2977,1671 2976,1670 2976,1663 2975,1662 2975,1656 2974,1655 2974,1651 2975,1650 2975,1646 2976,1645 2976,1629 2975,1628 2975,1625 2974,1624 2974,1622 2973,1621 2973,1620 2972,1619 2972,1611 2973,1610 2973,1600 2974,1599 2974,1584 2973,1583 2973,1575 2974,1574 2974,1561 2975,1560 2975,1554 2974,1553 2974,1509 2975,1508 2975,1504 2976,1503 2976,1492 2975,1491 2975,1484 2974,1483 2974,1480 2973,1479 2973,1473 2975,1471 2975,1470 2976,1469 2976,1468 2977,1467 2977,1464 2978,1463 2978,1459 2979,1458 2979,1453 2980,1452 2980,1440 2979,1439 2979,1431 2978,1430 2978,1421 2977,1420 2977,1373 2976,1372 2976,1327 2975,1326 2975,1296 2974,1295 2974,1293 2973,1292 2973,1291 2970,1288 2969,1288 2968,1287 2868,1287 2867,1286 2864,1286 2863,1285 2845,1285 2844,1286 2838,1286 2837,1287 2818,1287 2817,1286 2805,1286 2804,1287 2795,1287 2794,1286 2762,1286 2761,1287 2730,1287 2729,1288 2723,1288 2722,1289 2710,1289 2709,1288 2707,1288 2706,1287 2704,1287 2703,1286 2702,1286 2701,1285 2700,1285 2699,1284 2698,1284 2697,1283 2693,1283 2692,1282" fill="rgba(134,20,72,0.3)" stroke="rgb(134,20,72)" stroke-width="2" data-block-id="0017" data-name="b-0021" /><text x="2778" y="1619" text-anchor="middle" dominant-baseline="middle" class="block-label" fill="rgb(134,20,72)" stroke="white" stroke-width="3" paint-order="stroke">b-0021</text><polygon points="2178,1280 2177,1281 2174,1281 2173,1282 2169,1282 2168,1283 2167,1283 2166,1284 2165,1284 2164,1285 2164,1286 2162,1288 2162,1291 2161,1292 2161,1304 2162,1305 2162,1316 2161,1317 2161,1318 2162,1319 2162,1368 2163,1369 2163,1388 2162,1389 2162,1400 2163,1401 2162,1402 2162,1428 2161,1429 2161,1458 2162,1459 2162,1468 2163,1469 2163,1478 2164,1479 2164,1504 2165,1505 2165,1518 2164,1519 2164,1531 2163,1532 2163,1536 2164,1537 2164,1547 2163,1548 2163,1549 2162,1550 2162,1553 2161,1554 2161,1682 2162,1683 2162,1748 2161,1749 2161,1778 2162,1779 2162,1788 2161,1789 2161,1909 2162,1910 2162,1924 2161,1925 2161,1948 2162,1949 2162,1980 2161,1981 2161,2001 2162,2002 2162,2005 2163,2006 2163,2007 2165,2009 2166,2009 2167,2010 2168,2010 2169,2011 2177,2011 2178,2012 2196,2012 2197,2011 2259,2011 2260,2012 2266,2012 2267,2011 2296,2011 2297,2012 2301,2012 2302,2011 2320,2011 2321,2012 2340,2012 2341,2011 2358,2011 2359,2012 2371,2012 2372,2013 2375,2013 2376,2012 2405,2012 2406,2013 2425,2013 2426,2012 2491,2012 2492,2013 2496,2013 2497,2012 2507,2012 2508,2011 2512,2011 2513,2010 2515,2010 2516,2009 2517,2009 2520,2006 2520,2004 2521,2003 2521,1999 2522,1998 2521,1997 2521,1966 2520,1965 2520,1962 2521,1961 2521,1943 2520,1942 2520,1938 2521,1937 2521,1894 2520,1893 2520,1891 2521,1890 2521,1873 2522,1872 2522,1848 2521,1847 2521,1842 2522,1841 2522,1824 2521,1823 2521,1818 2522,1817 2522,1800 2521,1799 2521,1794 2522,1793 2522,1755 2521,1754 2521,1745 2522,1744 2522,1656 2521,1655 2521,1654 2522,1653 2522,1609 2521,1608 2521,1605 2522,1604 2522,1562 2521,1561 2521,1553 2522,1552 2522,1539 2521,1538 2521,1505 2522,1504 2522,1485 2521,1484 2521,1465 2520,1464 2521,1463 2521,1457 2522,1456 2522,1452 2523,1451 2523,1437 2522,1436 2522,1429 2521,1428 2521,1412 2522,1411 2522,1394 2521,1393 2521,1388 2522,1387 2522,1343 2523,1342 2523,1335 2524,1334 2524,1327 2523,1326 2523,1314 2522,1313 2522,1296 2521,1295 2521,1293 2516,1288 2514,1288 2513,1287 2484,1287 2483,1286 2372,1286 2371,1285 2350,1285 2349,1284 2346,1284 2345,1285 2330,1285 2329,1284 2224,1284 2223,1283 2198,1283 2197,1282 2194,1282 2193,1281 2192,1281 2191,1280" fill="rgba(166,17,131,0.3)" stroke="rgb(166,17,131)" stroke-width="2" data-block-id="0018" data-name="b-0022" /><text x="2352" y="1649" text-anchor="middle" dominant-baseline="middle" class="block-label" fill="rgb(166,17,131)" stroke="white" stroke-width="3" paint-order="stroke">b-0022</text><polygon points="3191,1288 3190,1289 3184,1289 3183,1290 3172,1290 3171,1289 3170,1290 3157,1290 3156,1291 3113,1291 3112,1292 3096,1292 3095,1291 3093,1291 3092,1290 3089,1290 3088,1289 3084,1289 3083,1290 3082,1290 3078,1294 3078,1295 3077,1296 3077,1299 3076,1300 3076,1303 3075,1304 3075,1324 3074,1325 3074,1335 3075,1336 3075,1349 3074,1350 3074,1362 3075,1363 3075,1374 3074,1375 3074,1382 3075,1383 3075,1542 3074,1543 3074,1549 3075,1550 3075,1584 3074,1585 3074,1598 3075,1599 3075,1603 3076,1604 3076,1629 3077,1630 3077,1681 3076,1682 3076,1696 3077,1697 3077,1717 3076,1718 3076,1768 3077,1769 3077,1772 3076,1773 3076,1776 3075,1777 3075,1779 3074,1780 3074,1860 3075,1861 3075,1871 3074,1872 3074,2002 3075,2003 3075,2011 3076,2012 3076,2013 3078,2015 3079,2015 3080,2016 3081,2016 3082,2017 3083,2017 3084,2018 3091,2018 3092,2017 3099,2017 3100,2016 3149,2016 3150,2017 3184,2017 3185,2016 3204,2016 3205,2017 3219,2017 3220,2018 3227,2018 3228,2019 3237,2019 3238,2018 3267,2018 3268,2019 3282,2019 3283,2018 3288,2018 3289,2017 3302,2017 3303,2018 3340,2018 3341,2019 3357,2019 3358,2018 3384,2018 3385,2017 3401,2017 3402,2018 3420,2018 3421,2017 3424,2017 3425,2016 3426,2016 3427,2015 3428,2015 3429,2014 3429,2013 3430,2012 3430,2008 3431,2007 3431,1973 3430,1972 3430,1961 3431,1960 3431,1940 3430,1939 3430,1898 3431,1897 3431,1835 3432,1834 3432,1833 3431,1832 3431,1807 3432,1806 3432,1781 3431,1780 3431,1763 3432,1762 3432,1758 3431,1757 3431,1745 3432,1744 3432,1732 3431,1731 3431,1703 3432,1702 3432,1682 3431,1681 3431,1667 3432,1666 3432,1662 3431,1661 3431,1653 3432,1652 3432,1620 3431,1619 3431,1618 3432,1617 3432,1562 3431,1561 3431,1520 3432,1519 3432,1503 3431,1502 3431,1424 3430,1423 3430,1356 3431,1355 3431,1327 3432,1326 3432,1315 3431,1314 3431,1307 3430,1306 3430,1302 3429,1301 3429,1297 3428,1296 3428,1295 3426,1293 3425,1293 3424,1292 3420,1292 3419,1291 3397,1291 3396,1292 3377,1292 3376,1293 3362,1293 3361,1292 3334,1292 3333,1291 3330,1291 3329,1290 3327,1290 3326,1289 3311,1289 3310,1290 3306,1290 3305,1291 3295,1291 3294,1290 3288,1290 3287,1289 3286,1290 3272,1290 3271,1291 3238,1291 3237,1290 3232,1290 3231,1289 3218,1289 3217,1290 3202,1290 3201,1289 3195,1289 3194,1288" fill="rgba(88,59,13,0.3)" stroke="rgb(88,59,13)" stroke-width="2" data-block-id="0019" data-name="b-0023" /><text x="3259" y="1622" text-anchor="middle" dominant-baseline="middle" class="block-label" fill="rgb(88,59,13)" stroke="white" stroke-width="3" paint-order="stroke">b-0023</text><polygon points="1832,1276 1831,1277 1804,1277 1803,1278 1727,1278 1726,1279 1722,1279 1721,1280 1718,1280 1717,1281 1715,1281 1715,1282 1713,1284 1713,1313 1712,1314 1712,1328 1713,1329 1713,1332 1712,1333 1712,1396 1713,1397 1713,1409 1712,1410 1712,1419 1713,1420 1713,1430 1712,1431 1712,1460 1711,1461 1711,1465 1712,1466 1712,1495 1713,1496 1713,1497 1712,1498 1712,1502 1711,1503 1711,1507 1710,1508 1710,1518 1711,1519 1711,1529 1710,1530 1710,1537 1711,1538 1711,1549 1710,1550 1710,1557 1709,1558 1709,1561 1710,1562 1710,1590 1711,1591 1711,1596 1710,1597 1710,1641 1711,1642 1711,1643 1710,1644 1710,1720 1709,1721 1709,1812 1708,1813 1708,1828 1707,1829 1707,1860 1708,1861 1708,1910 1707,1911 1707,1959 1708,1960 1708,1984 1709,1985 1709,1996 1710,1997 1710,2001 1711,2002 1711,2003 1712,2004 1712,2005 1715,2008 1723,2008 1724,2009 1733,2009 1734,2008 1741,2008 1742,2007 1746,2007 1747,2006 1757,2006 1758,2007 1777,2007 1778,2008 1782,2008 1783,2009 1810,2009 1811,2008 1824,2008 1825,2009 1863,2009 1864,2010 1877,2010 1878,2009 1889,2009 1890,2008 1924,2008 1925,2009 1934,2009 1935,2010 1946,2010 1947,2009 1962,2009 1963,2008 1973,2008 1974,2009 1997,2009 1998,2010 2015,2010 2016,2009 2017,2009 2018,2008 2019,2008 2023,2004 2023,2003 2024,2002 2024,1992 2025,1991 2025,1984 2024,1983 2024,1921 2025,1920 2025,1829 2026,1828 2026,1818 2025,1817 2025,1796 2026,1795 2026,1765 2025,1764 2025,1756 2026,1755 2026,1743 2025,1742 2025,1646 2026,1645 2026,1596 2025,1595 2025,1591 2026,1590 2026,1572 2025,1571 2025,1567 2026,1566 2026,1457 2027,1456 2027,1431 2028,1430 2028,1413 2027,1412 2027,1409 2026,1408 2026,1406 2025,1405 2025,1393 2026,1392 2026,1368 2027,1367 2027,1350 2026,1349 2026,1340 2027,1339 2027,1331 2028,1330 2028,1316 2029,1315 2029,1311 2030,1310 2030,1299 2029,1298 2029,1292 2028,1291 2028,1287 2027,1286 2027,1284 2025,1282 2023,1282 2022,1281 2019,1281 2018,1280 2015,1280 2014,1279 1984,1279 1983,1280 1977,1280 1976,1281 1975,1280 1955,1280 1954,1279 1950,1279 1949,1280 1935,1280 1934,1279 1842,1279 1841,1278 1838,1278 1837,1277 1833,1277" fill="rgba(241,249,8,0.3)" stroke="rgb(241,249,8)" stroke-width="2" data-block-id="0020" data-name="b-0024" /><text x="1865" y="1624" text-anchor="middle" dominant-baseline="middle" class="block-label" fill="rgb(241,249,8)" stroke="white" stroke-width="3" paint-order="stroke">b-0024</text></g>
</svg>