<?xml version='1.0' encoding='utf-8'?>
<svg xmlns="http://www.w3.org/2000/svg" xmlns:atlas="http://example.com/atlas" width="4984" height="3248" viewBox="0 0 4984 3248">
  
  <metadata>
    <atlas:source>
      <atlas:jp2-path>/Users/pwright/workspace/atlas/media/v2/p41.jp2</atlas:jp2-path>
      <atlas:volume>unknown</atlas:volume>
      <atlas:plate-id>p41</atlas:plate-id>
      <atlas:image-width>4984</atlas:image-width>
      <atlas:image-height>3248</atlas:image-height>
    <atlas:angle>0</atlas:angle><atlas:scale>1.3736903732174852</atlas:scale><atlas:pos-x>1004.8902931153845</atlas:pos-x><atlas:pos-y>406.03218073765134</atlas:pos-y></atlas:source>
  </metadata>

  
  <image id="background" href="file:///Users/pwright/workspace/atlas/media/v2/p41.jp2" width="4984" height="3248" opacity="0.5" />

  <style>
    .block-label { font-family: sans-serif; font-size: 14px; font-weight: bold; }
  </style>

  
  <g id="blocks">
    <polygon points="2264,2697 2263,2698 2163,2698 2162,2699 2130,2699 2129,2700 2117,2700 2116,2699 2105,2699 2104,2698 1966,2698 1965,2699 1930,2699 1929,2698 1876,2698 1875,2699 1722,2699 1721,2700 1718,2700 1717,2699 1680,2699 1679,2700 1623,2700 1622,2701 1621,2700 1610,2700 1609,2701 1554,2701 1553,2702 1552,2702 1551,2701 1512,2701 1511,2702 1477,2702 1476,2701 1462,2701 1461,2702 1449,2702 1448,2701 1442,2701 1441,2702 1431,2702 1430,2701 1423,2701 1422,2700 1417,2700 1416,2701 1371,2701 1370,2702 1365,2702 1364,2703 1361,2703 1360,2702 1357,2702 1356,2701 1286,2701 1285,2700 1273,2700 1272,2701 1269,2701 1268,2702 1264,2702 1263,2701 1200,2701 1199,2702 1191,2702 1190,2701 1151,2701 1150,2702 1146,2702 1145,2701 1139,2701 1138,2700 1134,2700 1133,2701 1127,2701 1126,2702 1117,2702 1116,2701 1110,2701 1109,2702 1048,2702 1047,2701 1036,2701 1035,2702 1033,2702 1032,2703 1029,2703 1028,2704 1027,2704 1026,2703 1023,2703 1022,2702 976,2702 975,2701 948,2701 947,2702 925,2702 924,2701 916,2701 915,2702 906,2702 905,2703 903,2703 900,2706 900,2716 899,2717 899,2736 898,2737 898,2751 897,2752 898,2753 898,2759 899,2760 899,2775 898,2776 898,2791 897,2792 897,2814 898,2815 898,2933 897,2934 897,2954 898,2955 898,2970 897,2971 897,3008 898,3009 898,3018 897,3019 897,3030 896,3031 896,3044 897,3045 897,3050 898,3051 898,3054 897,3055 897,3064 898,3065 898,3066 899,3067 899,3068 901,3070 902,3070 903,3071 904,3071 905,3072 910,3072 911,3073 950,3073 951,3072 961,3072 962,3073 1020,3073 1021,3072 1027,3072 1028,3071 1030,3071 1031,3072 1049,3072 1050,3071 1058,3071 1059,3072 1066,3072 1067,3071 1070,3071 1071,3070 1075,3070 1076,3069 1079,3069 1080,3070 1107,3070 1108,3071 1115,3071 1116,3070 1128,3070 1129,3071 1141,3071 1142,3070 1215,3070 1216,3071 1220,3071 1221,3070 1255,3070 1256,3071 1345,3071 1346,3072 1366,3072 1367,3071 1381,3071 1382,3072 1437,3072 1438,3071 1452,3071 1453,3070 1560,3070 1561,3069 1603,3069 1604,3068 1656,3068 1657,3067 1659,3067 1660,3068 1682,3068 1683,3067 1781,3067 1782,3068 1842,3068 1843,3067 1898,3067 1899,3066 1941,3066 1942,3065 1946,3065 1947,3066 1965,3066 1966,3065 2013,3065 2014,3064 2045,3064 2046,3065 2057,3065 2058,3064 2204,3064 2205,3063 2234,3063 2235,3064 2250,3064 2251,3063 2287,3063 2288,3064 2291,3064 2292,3063 2303,3063 2304,3062 2341,3062 2342,3061 2347,3061 2348,3060 2353,3060 2354,3059 2359,3059 2360,3058 2362,3058 2363,3057 2364,3057 2365,3056 2366,3056 2370,3052 2370,3051 2371,3050 2371,3036 2372,3035 2372,2983 2373,2982 2373,2977 2372,2976 2372,2885 2373,2884 2373,2883 2372,2882 2372,2772 2371,2771 2371,2762 2372,2761 2372,2739 2371,2738 2371,2713 2370,2712 2370,2705 2368,2703 2368,2702 2367,2701 2366,2701 2365,2700 2364,2700 2363,2699 2360,2699 2359,2698 2346,2698 2345,2697 2335,2697 2334,2698 2328,2698 2327,2699 2322,2699 2321,2700 2317,2700 2316,2701 2312,2701 2311,2700 2307,2700 2306,2699 2288,2699 2287,2698 2270,2698 2269,2697" fill="rgba(116,99,103,0.3)" stroke="rgb(116,99,103)" stroke-width="2" data-block-id="0001" data-name="b-0007" /><text x="1556" y="2872" text-anchor="middle" dominant-baseline="middle" class="block-label" fill="rgb(116,99,103)" stroke="white" stroke-width="3" paint-order="stroke">b-0007</text><polygon points="1348,2215 1347,2216 1339,2216 1338,2217 1334,2217 1333,2216 1325,2216 1324,2217 1321,2217 1320,2218 1318,2218 1317,2219 1315,2219 1314,2220 1313,2220 1312,2219 1309,2219 1308,2218 1305,2218 1304,2217 1289,2217 1288,2218 1283,2218 1282,2219 1276,2219 1275,2220 1272,2220 1271,2221 1269,2221 1268,2222 1266,2222 1265,2221 1263,2221 1262,2220 1260,2220 1259,2219 1249,2219 1248,2220 1245,2220 1244,2221 1238,2221 1237,2220 1227,2220 1226,2221 1222,2221 1221,2222 1218,2222 1217,2221 1214,2221 1213,2220 1210,2220 1209,2219 1206,2219 1205,2220 1201,2220 1200,2221 1197,2221 1196,2222 1193,2222 1192,2221 1179,2221 1178,2222 1176,2222 1175,2223 1170,2223 1169,2222 1168,2222 1167,2221 1166,2221 1165,2220 1163,2220 1162,2219 1156,2219 1155,2220 1151,2220 1150,2221 1140,2221 1139,2220 1134,2220 1133,2221 1130,2221 1129,2222 1121,2222 1120,2221 1118,2221 1117,2220 1115,2220 1114,2219 1109,2219 1108,2220 1103,2220 1102,2221 1101,2220 1097,2220 1096,2219 1095,2219 1094,2218 1093,2218 1092,2217 1085,2217 1084,2218 1082,2218 1081,2219 1079,2219 1078,2220 1074,2220 1073,2219 1069,2219 1068,2218 1059,2218 1058,2219 1049,2219 1048,2218 1044,2218 1043,2217 1036,2217 1035,2218 1013,2218 1012,2219 1008,2219 1007,2220 1003,2220 1002,2219 1000,2219 999,2218 996,2218 995,2217 988,2217 987,2218 963,2218 962,2219 941,2219 940,2220 926,2220 925,2219 920,2219 919,2220 914,2220 913,2221 910,2221 909,2222 908,2222 904,2226 904,2227 903,2228 903,2239 904,2240 904,2244 903,2245 903,2253 902,2254 902,2266 901,2267 901,2281 902,2282 902,2304 901,2305 901,2334 902,2335 902,2339 901,2340 901,2358 900,2359 900,2403 901,2404 901,2433 902,2434 902,2549 903,2550 903,2554 902,2555 902,2570 903,2571 903,2576 904,2577 904,2578 907,2581 908,2581 909,2582 911,2582 912,2583 942,2583 943,2584 966,2584 967,2585 972,2585 973,2584 986,2584 987,2585 1012,2585 1013,2586 1062,2586 1063,2587 1064,2586 1072,2586 1073,2585 1080,2585 1081,2586 1086,2586 1087,2587 1089,2587 1090,2586 1094,2586 1095,2585 1100,2585 1101,2584 1102,2584 1103,2585 1118,2585 1119,2584 1129,2584 1130,2585 1145,2585 1146,2584 1149,2584 1150,2585 1181,2585 1182,2586 1185,2586 1186,2585 1224,2585 1225,2586 1241,2586 1242,2587 1276,2587 1277,2588 1306,2588 1307,2587 1309,2587 1310,2586 1312,2586 1313,2585 1335,2585 1336,2584 1368,2584 1369,2585 1431,2585 1432,2584 1435,2584 1436,2585 1476,2585 1477,2586 1533,2586 1534,2585 1546,2585 1547,2586 1565,2586 1566,2587 1582,2587 1583,2586 1594,2586 1595,2585 1614,2585 1615,2586 1624,2586 1625,2585 1634,2585 1635,2584 1645,2584 1646,2583 1647,2583 1648,2584 1669,2584 1670,2583 1773,2583 1774,2582 1846,2582 1847,2583 1865,2583 1866,2582 1868,2582 1869,2581 1871,2581 1872,2580 1876,2580 1877,2581 1879,2581 1880,2582 1882,2582 1883,2583 1886,2583 1887,2584 1893,2584 1894,2583 1966,2583 1967,2582 1973,2582 1974,2583 1985,2583 1986,2582 1997,2582 1998,2583 2008,2583 2009,2582 2012,2582 2013,2581 2024,2581 2025,2582 2047,2582 2048,2583 2056,2583 2057,2582 2064,2582 2065,2581 2066,2581 2067,2582 2114,2582 2115,2581 2188,2581 2189,2582 2222,2582 2223,2581 2235,2581 2236,2582 2307,2582 2308,2581 2353,2581 2354,2580 2361,2580 2362,2579 2365,2579 2366,2578 2367,2578 2368,2577 2369,2577 2372,2574 2372,2570 2373,2569 2373,2488 2374,2487 2374,2447 2373,2446 2373,2401 2374,2400 2374,2392 2373,2391 2373,2381 2374,2380 2374,2340 2373,2339 2373,2293 2372,2292 2372,2287 2373,2286 2373,2263 2374,2262 2374,2256 2375,2255 2375,2252 2374,2251 2374,2231 2373,2230 2373,2226 2372,2225 2372,2223 2371,2222 2371,2220 2370,2220 2368,2218 2366,2218 2365,2217 2362,2217 2361,2216 2355,2216 2354,2215 2324,2215 2323,2216 2303,2216 2302,2215 2229,2215 2228,2216 2211,2216 2210,2215 2185,2215 2184,2216 2135,2216 2134,2217 2118,2217 2117,2216 2103,2216 2102,2217 2097,2217 2096,2216 1995,2216 1994,2217 1963,2217 1962,2216 1952,2216 1951,2217 1915,2217 1914,2216 1906,2216 1905,2217 1879,2217 1878,2218 1870,2218 1869,2217 1865,2217 1864,2216 1856,2216 1855,2217 1665,2217 1664,2216 1655,2216 1654,2217 1642,2217 1641,2216 1614,2216 1613,2217 1607,2217 1606,2216 1515,2216 1514,2217 1425,2217 1424,2216 1417,2216 1416,2217 1405,2217 1404,2216 1389,2216 1388,2217 1384,2217 1383,2216 1367,2216 1366,2217 1359,2217 1358,2216 1352,2216 1351,2215" fill="rgba(151,130,149,0.3)" stroke="rgb(151,130,149)" stroke-width="2" data-block-id="0002" data-name="b-0008" /><text x="1493" y="2366" text-anchor="middle" dominant-baseline="middle" class="block-label" fill="rgb(151,130,149)" stroke="white" stroke-width="3" paint-order="stroke">b-0008</text><polygon points="1549,700 1548,701 1519,701 1518,702 1515,702 1514,701 1501,701 1500,702 1485,702 1484,701 1478,701 1477,702 1453,702 1452,703 1446,703 1445,704 1443,704 1442,703 1402,703 1401,704 1389,704 1388,703 1350,703 1349,704 1348,703 1333,703 1332,704 1225,704 1224,705 1222,705 1221,706 1218,706 1217,705 1216,705 1215,704 1213,704 1212,703 1208,703 1207,702 1199,702 1198,701 1194,701 1193,702 1189,702 1188,703 1162,703 1161,702 1141,702 1140,703 1111,703 1110,702 1094,702 1093,703 1086,703 1085,704 1072,704 1071,703 1043,703 1042,704 1041,704 1040,703 1012,703 1011,702 1002,702 1001,703 996,703 995,704 987,704 986,703 953,703 952,704 931,704 930,705 909,705 908,706 907,706 907,707 905,709 905,711 904,712 904,716 903,717 903,762 904,763 904,773 903,774 903,788 904,789 904,790 903,791 903,868 902,869 902,915 901,916 901,972 900,973 900,995 901,996 901,1013 900,1014 900,1050 901,1051 901,1065 902,1066 902,1067 903,1068 903,1069 906,1072 907,1072 908,1073 909,1073 910,1074 915,1074 916,1075 928,1075 929,1076 940,1076 941,1077 962,1077 963,1076 971,1076 972,1075 976,1075 977,1074 994,1074 995,1073 1010,1073 1011,1072 1022,1072 1023,1073 1049,1073 1050,1072 1061,1072 1062,1073 1085,1073 1086,1074 1133,1074 1134,1075 1137,1075 1138,1074 1144,1074 1145,1073 1183,1073 1184,1074 1209,1074 1210,1073 1213,1073 1214,1072 1216,1072 1217,1071 1221,1071 1222,1072 1225,1072 1226,1073 1257,1073 1258,1072 1261,1072 1262,1071 1264,1071 1265,1070 1270,1070 1271,1071 1275,1071 1276,1072 1312,1072 1313,1073 1336,1073 1337,1074 1341,1074 1342,1073 1371,1073 1372,1074 1381,1074 1382,1073 1464,1073 1465,1074 1473,1074 1474,1073 1480,1073 1481,1072 1488,1072 1489,1073 1493,1073 1494,1072 1549,1072 1550,1071 1557,1071 1558,1072 1612,1072 1613,1071 1665,1071 1666,1072 1673,1072 1674,1071 1677,1071 1678,1070 1680,1070 1681,1069 1709,1069 1710,1070 1717,1070 1718,1071 1720,1071 1721,1070 1798,1070 1799,1069 1858,1069 1859,1070 1868,1070 1869,1069 1879,1069 1880,1070 1893,1070 1894,1069 1923,1069 1924,1070 1927,1070 1928,1071 1931,1071 1932,1072 1948,1072 1949,1071 1965,1071 1966,1070 2019,1070 2020,1071 2024,1071 2025,1072 2042,1072 2043,1071 2047,1071 2048,1070 2050,1070 2051,1069 2080,1069 2081,1068 2085,1068 2086,1067 2089,1067 2090,1068 2095,1068 2096,1069 2120,1069 2121,1070 2125,1070 2126,1069 2139,1069 2140,1070 2167,1070 2168,1071 2176,1071 2177,1070 2188,1070 2189,1071 2200,1071 2201,1070 2212,1070 2213,1071 2222,1071 2223,1070 2227,1070 2228,1069 2231,1069 2232,1070 2234,1070 2235,1071 2240,1071 2241,1072 2244,1072 2245,1071 2251,1071 2252,1070 2257,1070 2258,1071 2277,1071 2278,1070 2284,1070 2285,1071 2291,1071 2292,1070 2310,1070 2311,1071 2322,1071 2323,1070 2341,1070 2342,1069 2350,1069 2351,1068 2352,1068 2353,1067 2354,1067 2358,1063 2358,1060 2357,1059 2357,1034 2356,1033 2356,1030 2357,1029 2357,1024 2358,1023 2358,1021 2359,1020 2359,1017 2360,1016 2359,1015 2359,1009 2358,1008 2358,999 2357,998 2357,993 2356,992 2356,976 2357,975 2357,971 2358,970 2358,968 2357,967 2357,961 2356,960 2356,927 2357,926 2357,913 2356,912 2356,909 2357,908 2357,883 2358,882 2358,880 2359,879 2359,878 2360,877 2360,868 2359,867 2359,853 2360,852 2360,848 2359,847 2359,837 2360,836 2360,834 2361,833 2361,831 2362,830 2362,821 2361,820 2361,801 2360,800 2360,788 2361,787 2361,785 2362,784 2362,782 2363,781 2363,775 2362,774 2362,768 2361,767 2361,748 2360,747 2360,741 2361,740 2361,736 2362,735 2362,728 2361,727 2361,722 2360,721 2360,718 2359,717 2359,715 2358,714 2358,712 2357,711 2357,710 2355,708 2354,708 2353,707 2352,707 2351,706 2322,706 2321,705 2273,705 2272,704 2259,704 2258,705 2240,705 2239,706 2238,706 2237,707 2236,707 2231,712 2230,712 2229,713 2227,713 2226,712 2225,712 2224,711 2223,711 2222,710 2221,710 2220,709 2199,709 2198,708 2184,708 2183,707 2181,707 2180,706 2177,706 2176,705 2174,705 2173,704 2150,704 2149,703 2148,703 2147,704 2141,704 2140,705 2131,705 2130,704 2127,704 2126,703 2120,703 2119,704 2112,704 2111,705 2109,705 2108,704 2084,704 2083,703 2068,703 2067,704 2035,704 2034,703 2022,703 2021,704 2002,704 2001,703 1988,703 1987,702 1979,702 1978,703 1976,703 1975,704 1974,704 1973,705 1971,705 1970,706 1967,706 1966,705 1964,705 1963,704 1961,704 1960,703 1951,703 1950,704 1937,704 1936,703 1930,703 1929,704 1902,704 1901,705 1892,705 1891,704 1867,704 1866,703 1847,703 1846,702 1842,702 1841,701 1832,701 1831,702 1820,702 1819,701 1810,701 1809,702 1795,702 1794,701 1788,701 1787,702 1782,702 1781,703 1736,703 1735,704 1693,704 1692,705 1680,705 1679,704 1674,704 1673,703 1665,703 1664,702 1653,702 1652,701 1644,701 1643,702 1635,702 1634,703 1629,703 1628,702 1595,702 1594,703 1582,703 1581,702 1563,702 1562,701 1556,701 1555,700" fill="rgba(52,1,87,0.3)" stroke="rgb(52,1,87)" stroke-width="2" data-block-id="0003" data-name="b-0009" /><text x="1753" y="876" text-anchor="middle" dominant-baseline="middle" class="block-label" fill="rgb(52,1,87)" stroke="white" stroke-width="3" paint-order="stroke">b-0009</text><polygon points="1611,1735 1610,1736 1581,1736 1580,1737 1572,1737 1571,1736 1557,1736 1556,1737 1538,1737 1537,1738 1508,1738 1507,1739 1481,1739 1480,1738 1429,1738 1428,1737 1415,1737 1414,1738 1403,1738 1402,1737 1393,1737 1392,1738 1378,1738 1377,1737 1374,1737 1373,1738 1365,1738 1364,1739 1361,1739 1360,1738 1357,1738 1356,1737 1324,1737 1323,1738 1286,1738 1285,1737 1277,1737 1276,1738 1273,1738 1272,1739 1269,1739 1268,1740 1267,1740 1266,1739 1262,1739 1261,1738 1258,1738 1257,1737 1250,1737 1249,1738 1213,1738 1212,1737 1198,1737 1197,1738 1174,1738 1173,1739 1172,1738 1164,1738 1163,1737 1153,1737 1152,1738 1128,1738 1127,1739 1122,1739 1121,1738 1115,1738 1114,1737 1108,1737 1107,1738 1084,1738 1083,1739 1079,1739 1078,1740 1076,1740 1075,1739 1071,1739 1070,1738 1041,1738 1040,1739 1023,1739 1022,1738 1010,1738 1009,1739 989,1739 988,1740 979,1740 978,1739 942,1739 941,1740 911,1740 910,1741 909,1741 908,1742 907,1742 907,1743 906,1744 906,1745 905,1746 905,1750 904,1751 904,1767 905,1768 905,1769 904,1770 904,1795 905,1796 905,1815 906,1816 906,1825 905,1826 905,1956 906,1957 906,1958 905,1959 905,1997 906,1998 906,2091 907,2092 907,2095 908,2096 908,2098 909,2099 910,2099 911,2100 912,2100 913,2101 940,2101 941,2102 952,2102 953,2103 978,2103 979,2102 991,2102 992,2103 1004,2103 1005,2104 1023,2104 1024,2103 1042,2103 1043,2104 1069,2104 1070,2103 1077,2103 1078,2102 1085,2102 1086,2101 1090,2101 1091,2102 1096,2102 1097,2103 1144,2103 1145,2104 1164,2104 1165,2103 1190,2103 1191,2104 1211,2104 1212,2103 1239,2103 1240,2104 1250,2104 1251,2103 1259,2103 1260,2102 1281,2102 1282,2103 1298,2103 1299,2104 1303,2104 1304,2103 1311,2103 1312,2102 1329,2102 1330,2103 1353,2103 1354,2102 1359,2102 1360,2101 1380,2101 1381,2102 1399,2102 1400,2101 1406,2101 1407,2100 1443,2100 1444,2099 1445,2100 1452,2100 1453,2101 1461,2101 1462,2102 1476,2102 1477,2103 1513,2103 1514,2104 1525,2104 1526,2105 1545,2105 1546,2106 1552,2106 1553,2107 1568,2107 1569,2108 1576,2108 1577,2109 1580,2109 1581,2108 1588,2108 1589,2109 1596,2109 1597,2110 1606,2110 1607,2109 1614,2109 1615,2110 1618,2110 1619,2111 1625,2111 1635,2101 1641,2101 1642,2102 1668,2102 1669,2101 1687,2101 1688,2102 1707,2102 1708,2101 1718,2101 1719,2100 1724,2100 1725,2101 1738,2101 1739,2102 1751,2102 1752,2101 1783,2101 1784,2102 1802,2102 1803,2101 1829,2101 1830,2102 1867,2102 1868,2101 1875,2101 1876,2102 1905,2102 1906,2101 1924,2101 1925,2102 1966,2102 1967,2101 1968,2101 1969,2102 1978,2102 1979,2103 1982,2103 1983,2102 2007,2102 2008,2101 2012,2101 2013,2100 2018,2100 2019,2101 2022,2101 2023,2102 2027,2102 2028,2103 2035,2103 2036,2102 2061,2102 2062,2101 2063,2102 2071,2102 2072,2103 2080,2103 2081,2102 2105,2102 2106,2101 2112,2101 2113,2102 2224,2102 2225,2101 2230,2101 2231,2100 2233,2100 2234,2101 2261,2101 2262,2102 2268,2102 2269,2101 2359,2101 2360,2100 2362,2100 2363,2099 2364,2099 2366,2097 2367,2097 2369,2095 2369,2094 2371,2092 2371,2091 2372,2090 2372,2088 2373,2087 2373,2084 2372,2083 2372,2070 2371,2069 2371,2038 2370,2037 2370,2029 2371,2028 2371,2025 2372,2024 2372,2022 2373,2021 2373,2019 2374,2018 2374,2002 2373,2001 2373,1995 2372,1994 2372,1990 2371,1989 2371,1985 2370,1984 2370,1977 2371,1976 2371,1959 2372,1958 2372,1895 2371,1894 2371,1890 2370,1889 2370,1881 2371,1880 2371,1858 2370,1857 2370,1847 2369,1846 2369,1842 2368,1841 2368,1834 2369,1833 2369,1795 2368,1794 2368,1786 2369,1785 2369,1767 2368,1766 2368,1763 2367,1762 2367,1758 2366,1757 2366,1754 2365,1753 2365,1749 2364,1748 2364,1745 2360,1741 2358,1741 2357,1740 2354,1740 2353,1739 2306,1739 2305,1738 2242,1738 2241,1739 2187,1739 2186,1740 2181,1740 2180,1739 2168,1739 2167,1738 2101,1738 2100,1739 2061,1739 2060,1738 2055,1738 2054,1737 2048,1737 2047,1738 2039,1738 2038,1739 2003,1739 2002,1738 1978,1738 1977,1739 1960,1739 1959,1738 1953,1738 1952,1739 1777,1739 1776,1740 1657,1740 1656,1741 1640,1741 1639,1742 1635,1742 1634,1741 1633,1741 1631,1739 1630,1739 1629,1738 1628,1738 1627,1737 1625,1737 1624,1736 1615,1736 1614,1735" fill="rgba(235,157,37,0.3)" stroke="rgb(235,157,37)" stroke-width="2" data-block-id="0004" data-name="b-0010" /><text x="1635" y="1932" text-anchor="middle" dominant-baseline="middle" class="block-label" fill="rgb(235,157,37)" stroke="white" stroke-width="3" paint-order="stroke">b-0010</text><polygon points="1108,1258 1107,1259 931,1259 930,1260 907,1260 906,1261 905,1261 903,1263 902,1263 902,1264 900,1266 900,1270 899,1271 899,1518 900,1519 900,1530 901,1531 901,1546 900,1547 900,1554 901,1555 901,1562 902,1563 902,1566 901,1567 901,1571 900,1572 900,1580 901,1581 901,1585 902,1586 902,1590 901,1591 901,1595 900,1596 900,1611 901,1612 901,1615 902,1616 902,1617 907,1622 909,1622 910,1623 943,1623 944,1622 953,1622 954,1623 985,1623 986,1622 1104,1622 1105,1623 1115,1623 1116,1622 1218,1622 1219,1621 1272,1621 1273,1620 1286,1620 1287,1621 1303,1621 1304,1620 1325,1620 1326,1621 1351,1621 1352,1622 1379,1622 1380,1623 1400,1623 1401,1624 1418,1624 1419,1623 1447,1623 1448,1622 1452,1622 1453,1621 1455,1621 1456,1620 1471,1620 1472,1621 1478,1621 1479,1622 1487,1622 1488,1621 1495,1621 1496,1622 1511,1622 1512,1621 1571,1621 1572,1622 1600,1622 1601,1621 1655,1621 1656,1620 1664,1620 1665,1621 1681,1621 1682,1620 1683,1620 1684,1621 1703,1621 1704,1620 1711,1620 1712,1621 1741,1621 1742,1620 1905,1620 1906,1621 1915,1621 1916,1620 1926,1620 1927,1621 1938,1621 1939,1620 2038,1620 2039,1619 2042,1619 2043,1620 2081,1620 2082,1619 2091,1619 2092,1620 2096,1620 2097,1621 2105,1621 2106,1620 2128,1620 2129,1619 2160,1619 2161,1618 2189,1618 2190,1619 2197,1619 2198,1618 2224,1618 2225,1617 2232,1617 2233,1618 2234,1618 2235,1619 2237,1619 2238,1620 2272,1620 2273,1619 2285,1619 2286,1620 2294,1620 2295,1619 2316,1619 2317,1618 2347,1618 2348,1617 2351,1617 2352,1616 2354,1616 2355,1615 2356,1615 2357,1614 2359,1614 2362,1611 2362,1606 2361,1605 2361,1591 2362,1590 2362,1587 2361,1586 2361,1571 2362,1570 2362,1561 2361,1560 2361,1556 2360,1555 2360,1548 2361,1547 2361,1541 2362,1540 2362,1538 2361,1537 2361,1525 2360,1524 2360,1519 2359,1518 2359,1511 2358,1510 2358,1501 2359,1500 2359,1474 2360,1473 2360,1468 2359,1467 2359,1456 2360,1455 2360,1453 2361,1452 2361,1450 2362,1449 2362,1448 2363,1447 2363,1440 2364,1439 2364,1434 2363,1433 2363,1428 2362,1427 2362,1424 2361,1423 2361,1413 2360,1412 2360,1411 2361,1410 2361,1404 2362,1403 2362,1396 2361,1395 2361,1394 2360,1393 2360,1392 2358,1390 2358,1389 2357,1388 2357,1386 2356,1385 2357,1384 2357,1381 2358,1380 2358,1377 2359,1376 2359,1371 2358,1370 2358,1357 2359,1356 2359,1353 2360,1352 2360,1346 2359,1345 2359,1336 2358,1335 2358,1322 2357,1321 2357,1312 2358,1311 2358,1308 2359,1307 2359,1303 2360,1302 2360,1301 2359,1300 2359,1295 2358,1294 2358,1290 2357,1289 2357,1286 2356,1285 2356,1267 2355,1266 2355,1265 2354,1264 2353,1264 2351,1262 2347,1262 2346,1261 2312,1261 2311,1260 2293,1260 2292,1261 2271,1261 2270,1262 2237,1262 2236,1263 2226,1263 2225,1264 2212,1264 2211,1263 2205,1263 2204,1262 2187,1262 2186,1263 2179,1263 2178,1262 2161,1262 2160,1261 2149,1261 2148,1262 2143,1262 2142,1263 2139,1263 2138,1264 2121,1264 2120,1263 2115,1263 2114,1262 2102,1262 2101,1263 2095,1263 2094,1262 2084,1262 2083,1261 2075,1261 2074,1260 2073,1261 2060,1261 2059,1260 2020,1260 2019,1259 2002,1259 2001,1260 1993,1260 1992,1261 1979,1261 1978,1260 1969,1260 1968,1259 1952,1259 1951,1260 1919,1260 1918,1259 1902,1259 1901,1260 1884,1260 1883,1259 1866,1259 1865,1258 1860,1258 1859,1259 1844,1259 1843,1260 1817,1260 1816,1259 1811,1259 1810,1260 1775,1260 1774,1259 1759,1259 1758,1260 1701,1260 1700,1261 1546,1261 1545,1262 1535,1262 1534,1261 1452,1261 1451,1260 1385,1260 1384,1261 1360,1261 1359,1260 1356,1260 1355,1259 1288,1259 1287,1260 1283,1260 1282,1261 1274,1261 1273,1260 1269,1260 1268,1259 1238,1259 1237,1260 1205,1260 1204,1259 1184,1259 1183,1260 1182,1260 1181,1259 1116,1259 1115,1258" fill="rgba(129,191,187,0.3)" stroke="rgb(129,191,187)" stroke-width="2" data-block-id="0005" data-name="b-0011" /><text x="1848" y="1443" text-anchor="middle" dominant-baseline="middle" class="block-label" fill="rgb(129,191,187)" stroke="white" stroke-width="3" paint-order="stroke">b-0011</text><polygon points="3820,2672 3819,2673 3816,2673 3815,2674 3811,2674 3810,2675 3809,2674 3791,2674 3790,2675 3783,2675 3782,2674 3775,2674 3774,2675 3768,2675 3767,2676 3761,2676 3760,2675 3755,2675 3754,2674 3735,2674 3734,2675 3723,2675 3722,2676 3709,2676 3708,2675 3673,2675 3672,2676 3660,2676 3659,2675 3653,2675 3652,2676 3641,2676 3640,2677 3555,2677 3554,2678 3542,2678 3541,2679 3484,2679 3483,2678 3460,2678 3459,2679 3396,2679 3395,2680 3339,2680 3338,2679 3330,2679 3329,2680 3312,2680 3311,2681 3302,2681 3301,2682 3269,2682 3268,2683 3261,2683 3260,2684 3257,2684 3256,2685 3255,2685 3254,2686 3250,2686 3249,2685 3246,2685 3245,2684 3234,2684 3233,2685 3228,2685 3227,2686 3220,2686 3219,2687 3196,2687 3195,2686 3182,2686 3181,2687 3161,2687 3160,2686 3103,2686 3102,2685 3077,2685 3076,2686 3070,2686 3069,2685 3054,2685 3053,2686 3031,2686 3030,2687 3006,2687 3005,2686 3000,2686 2999,2687 2981,2687 2980,2686 2977,2686 2976,2687 2962,2687 2961,2686 2951,2686 2950,2687 2946,2687 2945,2688 2910,2688 2909,2687 2904,2687 2903,2688 2893,2688 2892,2687 2888,2687 2887,2686 2879,2686 2878,2687 2863,2687 2862,2686 2857,2686 2856,2687 2850,2687 2849,2688 2847,2688 2846,2687 2839,2687 2838,2686 2813,2686 2812,2685 2802,2685 2801,2686 2769,2686 2768,2685 2748,2685 2747,2684 2732,2684 2731,2685 2728,2685 2727,2684 2719,2684 2718,2683 2689,2683 2688,2682 2684,2682 2683,2681 2675,2681 2674,2682 2669,2682 2668,2683 2665,2683 2664,2684 2661,2684 2660,2685 2656,2685 2655,2684 2653,2684 2652,2683 2651,2683 2650,2682 2648,2682 2647,2681 2644,2681 2643,2680 2638,2680 2637,2679 2632,2679 2631,2678 2625,2678 2624,2677 2606,2677 2605,2678 2593,2678 2592,2679 2584,2679 2583,2680 2580,2680 2579,2681 2576,2681 2575,2682 2570,2682 2569,2683 2564,2683 2563,2684 2562,2684 2561,2685 2560,2685 2553,2692 2552,2692 2552,2693 2551,2694 2551,2695 2550,2696 2550,2702 2549,2703 2549,2708 2548,2709 2548,2712 2547,2713 2547,2714 2546,2715 2546,2718 2545,2719 2545,2722 2546,2723 2546,2743 2547,2744 2547,2751 2548,2752 2548,2755 2547,2756 2547,2775 2548,2776 2548,2779 2547,2780 2547,2797 2548,2798 2548,2852 2549,2853 2549,2856 2550,2857 2550,2860 2551,2861 2551,2877 2550,2878 2550,2883 2549,2884 2549,2886 2550,2887 2550,2917 2551,2918 2551,2922 2550,2923 2550,2944 2551,2945 2550,2946 2550,2964 2551,2965 2551,2968 2550,2969 2550,2974 2549,2975 2549,2988 2550,2989 2550,2999 2549,3000 2549,3006 2548,3007 2548,3009 2547,3010 2547,3012 2546,3013 2546,3014 2545,3015 2545,3035 2546,3036 2546,3038 2547,3039 2547,3040 2548,3041 2549,3041 2551,3043 2552,3043 2553,3044 2554,3044 2555,3045 2556,3045 2557,3046 2559,3046 2560,3047 2565,3047 2566,3046 2572,3046 2573,3045 2581,3045 2582,3044 2596,3044 2597,3043 2606,3043 2607,3042 2614,3042 2615,3043 2627,3043 2628,3042 2637,3042 2638,3043 2645,3043 2646,3044 2657,3044 2658,3045 2679,3045 2680,3046 2701,3046 2702,3047 2722,3047 2723,3046 2728,3046 2729,3045 2731,3045 2732,3046 2744,3046 2745,3047 2786,3047 2787,3048 2801,3048 2802,3049 2808,3049 2809,3050 2821,3050 2822,3049 2826,3049 2827,3050 2838,3050 2839,3049 2845,3049 2846,3048 2850,3048 2851,3049 2874,3049 2875,3050 2887,3050 2888,3049 2893,3049 2894,3048 2897,3048 2898,3049 2902,3049 2903,3050 2912,3050 2913,3051 2941,3051 2942,3050 2943,3051 2967,3051 2968,3050 2969,3051 2995,3051 2996,3052 3046,3052 3047,3053 3050,3053 3051,3052 3076,3052 3077,3051 3125,3051 3126,3050 3165,3050 3166,3049 3192,3049 3193,3048 3197,3048 3198,3049 3203,3049 3204,3048 3249,3048 3250,3047 3255,3047 3256,3048 3270,3048 3271,3047 3296,3047 3297,3046 3313,3046 3314,3045 3338,3045 3339,3044 3349,3044 3350,3045 3365,3045 3366,3044 3407,3044 3408,3045 3454,3045 3455,3044 3559,3044 3560,3043 3577,3043 3578,3044 3601,3044 3602,3043 3619,3043 3620,3042 3648,3042 3649,3041 3654,3041 3655,3040 3681,3040 3682,3041 3706,3041 3707,3040 3739,3040 3740,3039 3746,3039 3747,3038 3774,3038 3775,3039 3781,3039 3782,3038 3805,3038 3806,3037 3817,3037 3818,3038 3869,3038 3870,3037 3874,3037 3875,3038 3912,3038 3913,3037 3969,3037 3970,3036 3979,3036 3980,3035 3982,3035 3986,3031 3986,3030 3987,3029 3987,3020 3988,3019 3988,3013 3987,3012 3987,2997 3986,2996 3986,2966 3987,2965 3987,2950 3986,2949 3986,2941 3987,2940 3987,2926 3986,2925 3986,2906 3985,2905 3985,2900 3984,2899 3984,2894 3985,2893 3985,2888 3986,2887 3986,2846 3987,2845 3987,2818 3986,2817 3986,2809 3987,2808 3987,2769 3986,2768 3986,2764 3987,2763 3987,2736 3988,2735 3988,2724 3987,2723 3987,2683 3986,2682 3986,2680 3984,2678 3983,2678 3982,2677 3981,2677 3980,2676 3971,2676 3970,2675 3950,2675 3949,2674 3939,2674 3938,2675 3869,2675 3868,2674 3842,2674 3841,2673 3830,2673 3829,2672" fill="rgba(20,160,203,0.3)" stroke="rgb(20,160,203)" stroke-width="2" data-block-id="0006" data-name="b-0012" /><text x="3124" y="2847" text-anchor="middle" dominant-baseline="middle" class="block-label" fill="rgb(20,160,203)" stroke="white" stroke-width="3" paint-order="stroke">b-0012</text><polygon points="3941,2195 3940,2196 3930,2196 3929,2197 3928,2196 3891,2196 3890,2197 3889,2197 3888,2198 3886,2198 3885,2199 3875,2199 3874,2198 3849,2198 3848,2199 3839,2199 3838,2200 3820,2200 3819,2201 3714,2201 3713,2200 3706,2200 3705,2199 3699,2199 3698,2200 3676,2200 3675,2201 3611,2201 3610,2202 3600,2202 3599,2203 3555,2203 3554,2202 3541,2202 3540,2203 3526,2203 3525,2202 3517,2202 3516,2201 3500,2201 3499,2202 3493,2202 3492,2203 3487,2203 3486,2202 3472,2202 3471,2201 3462,2201 3461,2200 3445,2200 3444,2201 3438,2201 3437,2200 3428,2200 3427,2201 3414,2201 3413,2202 3388,2202 3387,2203 3378,2203 3377,2204 3356,2204 3355,2205 3339,2205 3338,2204 3332,2204 3331,2205 3324,2205 3323,2204 3320,2204 3319,2203 3276,2203 3275,2204 3274,2204 3273,2203 3263,2203 3262,2204 3231,2204 3230,2205 3229,2205 3228,2204 3187,2204 3186,2205 3143,2205 3142,2206 3097,2206 3096,2207 3091,2207 3090,2208 3077,2208 3076,2207 3073,2207 3072,2208 3066,2208 3065,2209 3060,2209 3059,2208 3056,2208 3055,2207 3051,2207 3050,2206 3045,2206 3044,2207 3029,2207 3028,2208 2999,2208 2998,2209 2993,2209 2992,2210 2961,2210 2960,2209 2948,2209 2947,2210 2937,2210 2936,2211 2923,2211 2922,2212 2918,2212 2917,2211 2912,2211 2911,2210 2901,2210 2900,2211 2892,2211 2891,2210 2866,2210 2865,2209 2842,2209 2841,2208 2814,2208 2813,2207 2799,2207 2798,2208 2790,2208 2789,2209 2780,2209 2779,2210 2778,2210 2777,2209 2774,2209 2773,2208 2770,2208 2769,2207 2737,2207 2736,2208 2714,2208 2713,2209 2711,2209 2710,2210 2708,2210 2706,2212 2705,2212 2702,2215 2701,2215 2699,2217 2698,2217 2698,2218 2692,2224 2689,2224 2688,2225 2685,2225 2684,2226 2681,2226 2680,2227 2672,2227 2671,2226 2670,2227 2667,2227 2666,2228 2663,2228 2662,2229 2658,2229 2657,2230 2653,2230 2652,2229 2644,2229 2643,2230 2637,2230 2636,2231 2625,2231 2624,2232 2612,2232 2611,2233 2605,2233 2604,2234 2600,2234 2599,2235 2564,2235 2563,2236 2559,2236 2558,2237 2555,2237 2554,2238 2553,2238 2552,2239 2551,2239 2550,2240 2550,2241 2549,2242 2549,2281 2548,2282 2548,2288 2547,2289 2547,2291 2548,2292 2548,2331 2547,2332 2547,2353 2548,2354 2548,2374 2547,2375 2547,2380 2546,2381 2546,2389 2547,2390 2547,2394 2548,2395 2548,2402 2549,2403 2549,2414 2550,2415 2550,2426 2549,2427 2549,2440 2550,2441 2550,2465 2551,2466 2551,2469 2550,2470 2550,2489 2551,2490 2551,2495 2550,2496 2550,2510 2551,2511 2551,2526 2552,2527 2552,2551 2553,2552 2553,2564 2554,2565 2554,2566 2557,2569 2558,2569 2559,2570 2560,2570 2561,2571 2567,2571 2568,2570 2580,2570 2581,2569 2597,2569 2598,2568 2607,2568 2608,2567 2613,2567 2614,2568 2632,2568 2633,2569 2644,2569 2645,2570 2658,2570 2659,2571 2679,2571 2680,2570 2698,2570 2699,2571 2727,2571 2728,2572 2778,2572 2779,2573 2786,2573 2787,2574 2792,2574 2793,2573 2803,2573 2804,2574 2841,2574 2842,2573 2868,2573 2869,2572 2876,2572 2877,2573 2891,2573 2892,2572 2895,2572 2896,2573 2901,2573 2902,2574 2933,2574 2934,2573 2937,2573 2938,2572 2941,2572 2942,2571 2945,2571 2946,2572 2978,2572 2979,2571 3005,2571 3006,2572 3026,2572 3027,2571 3063,2571 3064,2570 3076,2570 3077,2571 3084,2571 3085,2572 3108,2572 3109,2571 3127,2571 3128,2570 3164,2570 3165,2569 3173,2569 3174,2570 3178,2570 3179,2571 3192,2571 3193,2570 3199,2570 3200,2569 3205,2569 3206,2568 3218,2568 3219,2569 3232,2569 3233,2568 3261,2568 3262,2567 3268,2567 3269,2568 3284,2568 3285,2567 3293,2567 3294,2568 3303,2568 3304,2567 3322,2567 3323,2568 3329,2568 3330,2567 3344,2567 3345,2566 3367,2566 3368,2565 3443,2565 3444,2566 3460,2566 3461,2565 3473,2565 3474,2566 3479,2566 3480,2565 3484,2565 3485,2564 3488,2564 3489,2563 3498,2563 3499,2564 3510,2564 3511,2563 3540,2563 3541,2564 3545,2564 3546,2565 3556,2565 3557,2564 3578,2564 3579,2563 3584,2563 3585,2562 3589,2562 3590,2563 3643,2563 3644,2562 3659,2562 3660,2561 3671,2561 3672,2562 3675,2562 3676,2563 3695,2563 3696,2562 3720,2562 3721,2563 3726,2563 3727,2564 3735,2564 3736,2563 3773,2563 3774,2564 3778,2564 3779,2563 3804,2563 3805,2564 3842,2564 3843,2563 3860,2563 3861,2562 3891,2562 3892,2563 3910,2563 3911,2562 3915,2562 3916,2561 3927,2561 3928,2562 3932,2562 3933,2561 3939,2561 3940,2560 3947,2560 3948,2561 3958,2561 3959,2560 3965,2560 3966,2559 3970,2559 3971,2560 3977,2560 3978,2559 3979,2559 3980,2558 3981,2558 3982,2557 3982,2556 3984,2554 3984,2552 3985,2551 3985,2525 3984,2524 3984,2518 3983,2517 3983,2514 3984,2513 3984,2506 3985,2505 3985,2501 3984,2500 3984,2487 3985,2486 3985,2462 3986,2461 3986,2449 3985,2448 3985,2437 3984,2436 3984,2423 3985,2422 3985,2421 3984,2420 3984,2403 3983,2402 3983,2394 3982,2393 3982,2383 3983,2382 3983,2380 3984,2379 3984,2376 3985,2375 3985,2345 3984,2344 3984,2327 3985,2326 3985,2305 3984,2304 3984,2298 3985,2297 3985,2282 3986,2281 3986,2276 3985,2275 3985,2272 3984,2271 3984,2268 3983,2267 3983,2252 3984,2251 3984,2243 3985,2242 3985,2241 3984,2240 3984,2211 3983,2210 3983,2206 3982,2205 3982,2204 3979,2201 3978,2201 3977,2200 3975,2200 3974,2199 3969,2199 3968,2198 3964,2198 3963,2197 3959,2197 3958,2196 3948,2196 3947,2195" fill="rgba(235,88,48,0.3)" stroke="rgb(235,88,48)" stroke-width="2" data-block-id="0007" data-name="b-0014" /><text x="3260" y="2380" text-anchor="middle" dominant-baseline="middle" class="block-label" fill="rgb(235,88,48)" stroke="white" stroke-width="3" paint-order="stroke">b-0014</text><polygon points="3694,1725 3693,1726 3686,1726 3685,1727 3672,1727 3671,1728 3654,1728 3653,1727 3630,1727 3629,1728 3621,1728 3620,1729 3609,1729 3608,1728 3586,1728 3585,1729 3556,1729 3555,1728 3537,1728 3536,1729 3507,1729 3506,1728 3497,1728 3496,1729 3481,1729 3480,1730 3472,1730 3471,1729 3383,1729 3382,1730 3366,1730 3365,1729 3353,1729 3352,1730 3281,1730 3280,1731 3190,1731 3189,1732 3141,1732 3140,1733 3125,1733 3124,1732 3118,1732 3117,1733 3089,1733 3088,1734 3084,1734 3083,1733 3064,1733 3063,1734 2947,1734 2946,1735 2904,1735 2903,1734 2817,1734 2816,1733 2792,1733 2791,1734 2781,1734 2780,1735 2762,1735 2761,1736 2696,1736 2695,1737 2686,1737 2685,1736 2672,1736 2671,1735 2657,1735 2656,1736 2603,1736 2602,1737 2562,1737 2561,1738 2557,1738 2556,1739 2554,1739 2553,1740 2552,1740 2549,1743 2549,1780 2548,1781 2548,1801 2549,1802 2549,1831 2548,1832 2548,1849 2549,1850 2549,1901 2550,1902 2550,1917 2551,1918 2551,1925 2550,1926 2550,1942 2551,1943 2551,1950 2550,1951 2550,1961 2551,1962 2551,1972 2550,1973 2550,1977 2549,1978 2549,1984 2550,1985 2550,1989 2551,1990 2551,1998 2550,1999 2550,2011 2551,2012 2551,2020 2550,2021 2550,2025 2549,2026 2549,2032 2550,2033 2550,2041 2551,2042 2551,2060 2552,2061 2552,2077 2553,2078 2553,2080 2554,2081 2554,2082 2555,2083 2555,2084 2559,2088 2561,2088 2562,2089 2570,2089 2571,2088 2592,2088 2593,2087 2605,2087 2606,2088 2619,2088 2620,2089 2631,2089 2632,2090 2654,2090 2655,2091 2663,2091 2664,2090 2671,2090 2672,2091 2703,2091 2704,2092 2707,2092 2708,2091 2721,2091 2722,2092 2776,2092 2777,2093 2779,2093 2780,2092 2791,2092 2792,2093 2937,2093 2938,2094 2949,2094 2950,2093 2978,2093 2979,2094 2993,2094 2994,2093 3016,2093 3017,2092 3021,2092 3022,2091 3030,2091 3031,2092 3033,2092 3034,2093 3037,2093 3038,2094 3058,2094 3059,2093 3064,2093 3065,2092 3068,2092 3069,2091 3073,2091 3074,2090 3075,2090 3076,2091 3081,2091 3082,2092 3091,2092 3092,2091 3104,2091 3105,2092 3116,2092 3117,2091 3265,2091 3266,2090 3294,2090 3295,2089 3347,2089 3348,2088 3429,2088 3430,2087 3434,2087 3435,2088 3448,2088 3449,2089 3470,2089 3471,2088 3519,2088 3520,2087 3533,2087 3534,2088 3580,2088 3581,2087 3606,2087 3607,2086 3630,2086 3631,2087 3670,2087 3671,2086 3676,2086 3677,2085 3699,2085 3700,2084 3706,2084 3707,2083 3710,2083 3711,2082 3713,2082 3714,2081 3724,2081 3725,2082 3728,2082 3729,2083 3732,2083 3733,2084 3737,2084 3738,2085 3743,2085 3744,2084 3841,2084 3842,2083 3855,2083 3856,2084 3861,2084 3862,2083 3892,2083 3893,2082 3898,2082 3899,2083 3935,2083 3936,2082 3960,2082 3961,2081 3969,2081 3970,2080 3976,2080 3977,2079 3978,2079 3980,2077 3980,2076 3981,2075 3981,2071 3982,2070 3982,2055 3981,2054 3981,2047 3980,2046 3980,2032 3981,2031 3981,2021 3982,2020 3982,2009 3981,2008 3981,1989 3982,1988 3982,1963 3981,1962 3981,1944 3980,1943 3980,1939 3979,1938 3979,1936 3978,1935 3978,1930 3979,1929 3979,1924 3980,1923 3980,1880 3981,1879 3981,1872 3980,1871 3980,1840 3979,1839 3979,1767 3978,1766 3978,1765 3979,1764 3979,1755 3978,1754 3978,1748 3977,1747 3977,1733 3976,1732 3976,1731 3974,1729 3973,1729 3972,1728 3970,1728 3969,1727 3934,1727 3933,1726 3924,1726 3923,1727 3910,1727 3909,1726 3905,1726 3904,1727 3892,1727 3891,1726 3839,1726 3838,1725 3828,1725 3827,1726 3815,1726 3814,1727 3792,1727 3791,1726 3786,1726 3785,1727 3762,1727 3761,1728 3754,1728 3753,1729 3749,1729 3748,1728 3733,1728 3732,1729 3724,1729 3723,1728 3712,1728 3711,1727 3704,1727 3703,1726 3695,1726" fill="rgba(218,58,254,0.3)" stroke="rgb(218,58,254)" stroke-width="2" data-block-id="0008" data-name="b-0015" /><text x="3297" y="1925" text-anchor="middle" dominant-baseline="middle" class="block-label" fill="rgb(218,58,254)" stroke="white" stroke-width="3" paint-order="stroke">b-0015</text><polygon points="3833,1250 3832,1251 3805,1251 3804,1252 3785,1252 3784,1253 3768,1253 3767,1254 3738,1254 3737,1255 3732,1255 3731,1256 3699,1256 3698,1255 3689,1255 3688,1256 3679,1256 3678,1257 3656,1257 3655,1256 3637,1256 3636,1257 3615,1257 3614,1256 3592,1256 3591,1257 3578,1257 3577,1256 3563,1256 3562,1255 3544,1255 3543,1256 3531,1256 3530,1257 3525,1257 3524,1256 3521,1256 3520,1255 3516,1255 3515,1254 3480,1254 3479,1255 3469,1255 3468,1256 3457,1256 3456,1257 3446,1257 3445,1258 3398,1258 3397,1259 3300,1259 3299,1258 3294,1258 3293,1257 3265,1257 3264,1256 3250,1256 3249,1257 3235,1257 3234,1256 3222,1256 3221,1255 3207,1255 3206,1254 3125,1254 3124,1253 3120,1253 3119,1254 3090,1254 3089,1255 3063,1255 3062,1256 3060,1256 3059,1257 3058,1257 3057,1258 3056,1258 3055,1259 3054,1259 3053,1260 3051,1260 3050,1261 3039,1261 3038,1262 3023,1262 3022,1263 3019,1263 3018,1264 2963,1264 2962,1263 2942,1263 2941,1262 2938,1262 2937,1261 2935,1261 2934,1260 2927,1260 2926,1261 2922,1261 2921,1262 2916,1262 2915,1261 2910,1261 2909,1260 2906,1260 2905,1261 2900,1261 2899,1262 2849,1262 2848,1261 2842,1261 2841,1260 2799,1260 2798,1261 2789,1261 2788,1262 2773,1262 2772,1263 2747,1263 2746,1264 2736,1264 2735,1265 2712,1265 2711,1266 2704,1266 2703,1267 2695,1267 2694,1268 2685,1268 2684,1269 2677,1269 2676,1268 2633,1268 2632,1267 2628,1267 2627,1266 2618,1266 2617,1265 2609,1265 2608,1266 2604,1266 2603,1267 2599,1267 2598,1268 2586,1268 2585,1267 2584,1267 2583,1266 2581,1266 2580,1265 2577,1265 2576,1264 2557,1264 2556,1265 2551,1265 2550,1266 2549,1266 2547,1268 2547,1270 2546,1271 2546,1276 2545,1277 2545,1284 2544,1285 2544,1300 2543,1301 2543,1324 2544,1325 2544,1364 2545,1365 2545,1418 2546,1419 2546,1426 2547,1427 2547,1438 2546,1439 2546,1442 2545,1443 2545,1456 2546,1457 2546,1461 2547,1462 2547,1465 2548,1466 2548,1467 2549,1468 2549,1477 2548,1478 2548,1484 2549,1485 2549,1510 2550,1511 2550,1519 2549,1520 2549,1522 2548,1523 2548,1525 2547,1526 2547,1532 2546,1533 2546,1545 2547,1546 2547,1551 2548,1552 2548,1555 2547,1556 2547,1579 2548,1580 2548,1584 2549,1585 2549,1588 2550,1589 2550,1592 2549,1593 2549,1606 2550,1607 2550,1611 2551,1612 2551,1613 2556,1618 2557,1618 2558,1619 2560,1619 2561,1620 2595,1620 2596,1619 2632,1619 2633,1620 2636,1620 2637,1621 2640,1621 2641,1622 2643,1622 2644,1623 2658,1623 2659,1622 2684,1622 2685,1621 2696,1621 2697,1622 2702,1622 2703,1623 2718,1623 2719,1624 2739,1624 2740,1623 2748,1623 2749,1622 2779,1622 2780,1621 2793,1621 2794,1620 2809,1620 2810,1621 2817,1621 2818,1620 2856,1620 2857,1619 2902,1619 2903,1620 2922,1620 2923,1619 2928,1619 2929,1618 2938,1618 2939,1619 2947,1619 2948,1618 3016,1618 3017,1617 3025,1617 3026,1616 3030,1616 3031,1617 3041,1617 3042,1616 3059,1616 3060,1617 3068,1617 3069,1616 3114,1616 3115,1615 3229,1615 3230,1614 3245,1614 3246,1615 3288,1615 3289,1614 3298,1614 3299,1613 3306,1613 3307,1614 3361,1614 3362,1615 3377,1615 3378,1614 3388,1614 3389,1615 3429,1615 3430,1614 3434,1614 3435,1615 3475,1615 3476,1614 3488,1614 3489,1615 3491,1615 3492,1614 3509,1614 3510,1615 3521,1615 3522,1614 3535,1614 3536,1615 3546,1615 3547,1614 3626,1614 3627,1613 3696,1613 3697,1612 3724,1612 3725,1611 3746,1611 3747,1612 3845,1612 3846,1611 3849,1611 3850,1612 3876,1612 3877,1613 3888,1613 3889,1612 3911,1612 3912,1611 3938,1611 3939,1610 3954,1610 3955,1609 3960,1609 3961,1608 3965,1608 3966,1607 3969,1607 3970,1606 3971,1606 3976,1601 3976,1598 3977,1597 3977,1586 3978,1585 3978,1574 3977,1573 3977,1568 3976,1567 3976,1506 3977,1505 3977,1503 3976,1502 3976,1481 3975,1480 3975,1477 3974,1476 3974,1474 3973,1473 3973,1472 3972,1471 3972,1459 3973,1458 3973,1456 3974,1455 3974,1454 3975,1453 3975,1452 3976,1451 3976,1449 3977,1448 3977,1428 3976,1427 3976,1418 3975,1417 3975,1403 3976,1402 3976,1395 3975,1394 3975,1380 3974,1379 3974,1364 3973,1363 3974,1362 3974,1332 3973,1331 3973,1309 3974,1308 3974,1294 3973,1293 3973,1287 3972,1286 3972,1281 3971,1280 3971,1264 3970,1263 3970,1260 3969,1259 3969,1257 3968,1256 3968,1255 3967,1254 3966,1254 3965,1253 3964,1253 3963,1252 3961,1252 3960,1251 3955,1251 3954,1250 3951,1250 3950,1251 3939,1251 3938,1250 3916,1250 3915,1251 3909,1251 3908,1252 3890,1252 3889,1251 3842,1251 3841,1250" fill="rgba(169,219,187,0.3)" stroke="rgb(169,219,187)" stroke-width="2" data-block-id="0009" data-name="b-0016" /><text x="3223" y="1418" text-anchor="middle" dominant-baseline="middle" class="block-label" fill="rgb(169,219,187)" stroke="white" stroke-width="3" paint-order="stroke">b-0016</text><polygon points="3231,219 3230,220 3223,220 3222,221 3209,221 3208,222 3195,222 3194,223 3145,223 3144,224 3136,224 3135,225 3130,225 3129,226 3125,226 3124,227 3093,227 3092,228 3085,228 3084,227 3081,227 3080,226 3076,226 3075,225 3059,225 3058,226 3042,226 3041,227 3030,227 3029,226 3025,226 3024,227 3009,227 3008,228 3005,228 3004,229 2983,229 2982,228 2951,228 2950,229 2942,229 2941,230 2935,230 2934,231 2932,231 2931,232 2929,232 2928,233 2923,233 2922,234 2915,234 2914,233 2906,233 2905,234 2898,234 2897,235 2890,235 2889,236 2877,236 2876,237 2868,237 2867,238 2865,238 2864,239 2863,239 2862,240 2862,241 2860,243 2858,243 2857,244 2846,244 2845,243 2844,243 2842,241 2842,240 2841,239 2841,238 2838,235 2838,234 2837,233 2832,233 2831,232 2820,232 2819,233 2813,233 2812,234 2809,234 2808,235 2804,235 2803,236 2769,236 2768,235 2763,235 2762,236 2753,236 2752,237 2726,237 2725,238 2703,238 2702,239 2698,239 2697,240 2693,240 2692,241 2644,241 2643,242 2637,242 2636,243 2631,243 2630,244 2622,244 2621,245 2609,245 2608,246 2603,246 2602,247 2597,247 2596,248 2592,248 2591,249 2588,249 2587,250 2586,250 2585,251 2584,251 2582,253 2581,253 2580,254 2580,255 2578,257 2578,265 2577,266 2577,275 2576,276 2576,293 2575,294 2575,297 2574,298 2574,300 2573,301 2573,304 2572,305 2572,307 2571,308 2571,309 2568,312 2567,312 2566,313 2564,313 2564,316 2563,317 2563,322 2562,323 2562,326 2561,327 2561,328 2560,329 2560,330 2558,332 2558,333 2557,334 2557,335 2556,336 2556,337 2555,338 2555,340 2554,341 2554,347 2553,348 2553,352 2552,353 2552,355 2551,356 2551,359 2550,360 2550,362 2549,363 2549,364 2547,366 2547,368 2546,369 2546,370 2545,371 2545,377 2546,378 2546,379 2547,380 2547,382 2548,383 2548,384 2550,386 2550,388 2551,389 2551,392 2552,393 2552,398 2553,399 2553,404 2552,405 2552,426 2553,427 2553,432 2554,433 2554,436 2553,437 2553,442 2552,443 2552,447 2551,448 2551,451 2550,452 2550,456 2549,457 2549,467 2548,468 2548,479 2547,480 2547,489 2546,490 2546,494 2547,495 2547,497 2549,499 2549,500 2552,503 2553,503 2555,505 2556,505 2557,506 2558,506 2559,507 2560,507 2562,509 2563,509 2564,510 2565,510 2567,512 2567,513 2569,515 2569,516 2570,517 2570,520 2571,521 2571,523 2574,526 2575,526 2576,527 2577,527 2580,530 2580,533 2579,534 2579,535 2574,540 2573,540 2572,541 2571,541 2570,542 2567,542 2566,543 2561,543 2560,542 2559,542 2558,541 2557,541 2556,540 2556,536 2555,535 2555,530 2554,530 2552,528 2551,529 2550,529 2549,530 2549,540 2548,541 2548,542 2546,544 2546,545 2540,551 2540,555 2541,556 2541,557 2545,561 2545,562 2546,563 2547,563 2551,567 2554,567 2555,568 2561,568 2562,569 2564,569 2565,570 2566,570 2567,571 2568,571 2570,573 2571,573 2572,574 2573,574 2574,575 2576,575 2577,574 2578,574 2579,573 2580,573 2581,572 2583,572 2584,571 2588,571 2589,572 2593,572 2594,573 2596,573 2599,576 2599,577 2600,578 2599,579 2599,581 2598,582 2598,584 2597,585 2597,587 2598,588 2598,589 2599,590 2600,590 2601,591 2602,591 2603,592 2605,592 2606,593 2627,593 2628,592 2647,592 2648,591 2660,591 2661,592 2664,592 2665,593 2667,593 2668,594 2673,594 2674,593 2686,593 2687,592 2696,592 2697,591 2707,591 2708,590 2723,590 2724,589 2749,589 2750,588 2771,588 2772,587 2797,587 2798,586 2821,586 2822,585 2860,585 2861,584 2867,584 2868,585 2870,585 2871,584 2919,584 2920,583 2957,583 2958,582 2963,582 2964,581 2974,581 2975,582 2985,582 2986,583 3020,583 3021,582 3033,582 3034,583 3104,583 3105,582 3108,582 3109,581 3112,581 3113,582 3143,582 3144,581 3156,581 3157,580 3237,580 3238,581 3266,581 3267,582 3276,582 3277,583 3297,583 3298,584 3299,584 3300,583 3305,583 3306,582 3308,582 3309,581 3314,581 3315,582 3316,582 3317,583 3321,583 3322,584 3329,584 3330,583 3371,583 3372,582 3375,582 3376,581 3378,581 3379,580 3380,580 3381,579 3387,579 3388,580 3392,580 3393,581 3414,581 3415,580 3423,580 3424,581 3437,581 3438,580 3459,580 3460,581 3465,581 3466,582 3492,582 3493,583 3498,583 3499,584 3565,584 3566,583 3579,583 3580,584 3590,584 3591,583 3603,583 3604,584 3613,584 3614,583 3621,583 3622,582 3627,582 3628,581 3633,581 3634,580 3635,581 3642,581 3643,582 3672,582 3673,581 3710,581 3711,580 3826,580 3827,579 3895,579 3896,580 3898,580 3899,579 3936,579 3937,578 3953,578 3954,577 3956,577 3957,576 3958,576 3961,573 3961,572 3962,571 3962,570 3963,569 3963,475 3962,474 3962,436 3961,435 3961,425 3960,424 3960,411 3959,410 3959,392 3960,391 3960,377 3959,376 3960,375 3960,363 3961,362 3961,336 3960,335 3960,331 3959,330 3959,276 3960,275 3960,242 3959,241 3959,239 3958,238 3958,237 3957,236 3957,235 3956,234 3956,233 3955,232 3955,231 3953,229 3953,228 3944,228 3938,222 3937,222 3936,221 3935,221 3934,220 3931,220 3930,219 3908,219 3907,220 3863,220 3862,221 3842,221 3841,222 3820,222 3819,223 3798,223 3797,224 3792,224 3791,225 3772,225 3771,226 3751,226 3750,225 3746,225 3745,224 3700,224 3699,223 3631,223 3630,224 3624,224 3623,225 3619,225 3618,224 3612,224 3611,223 3608,223 3607,224 3604,224 3603,225 3601,225 3600,226 3596,226 3595,225 3594,225 3593,224 3592,224 3591,223 3573,223 3572,224 3571,223 3560,223 3559,224 3555,224 3554,225 3504,225 3503,226 3499,226 3498,225 3466,225 3465,224 3455,224 3454,223 3429,223 3428,224 3423,224 3422,225 3416,225 3415,224 3412,224 3411,223 3405,223 3404,222 3390,222 3389,223 3350,223 3349,222 3328,222 3327,223 3322,223 3321,222 3295,222 3294,221 3284,221 3283,222 3271,222 3270,221 3266,221 3265,220 3248,220 3247,219" fill="rgba(189,174,189,0.3)" stroke="rgb(189,174,189)" stroke-width="2" data-block-id="0010" data-name="b-0018" /><text x="3034" y="401" text-anchor="middle" dominant-baseline="middle" class="block-label" fill="rgb(189,174,189)" stroke="white" stroke-width="3" paint-order="stroke">b-0018</text><polygon points="2386,600 2386,207 876,214 876,608" fill="rgba(102,179,92,0.3)" stroke="rgb(102,179,92)" stroke-width="2" data-block-id="0011" data-name="b-0018" /><text x="1631" y="407" text-anchor="middle" dominant-baseline="middle" class="block-label" fill="rgb(102,179,92)" stroke="white" stroke-width="3" paint-order="stroke">b-0018</text><polygon points="3512,701 3511,702 3485,702 3484,703 3479,703 3478,704 3477,704 3476,703 3471,703 3470,702 3459,702 3458,703 3439,703 3438,704 3417,704 3416,705 3390,705 3389,706 3297,706 3296,705 3271,705 3270,706 3242,706 3241,705 3225,705 3224,706 3219,706 3218,707 3209,707 3208,706 3203,706 3202,705 3200,705 3199,704 3197,704 3196,703 3191,703 3190,704 3188,704 3187,705 3185,705 3184,706 3171,706 3170,705 3165,705 3164,706 3076,706 3075,707 3000,707 2999,706 2967,706 2966,705 2952,705 2951,704 2946,704 2945,703 2942,703 2941,704 2938,704 2937,705 2933,705 2932,706 2909,706 2908,705 2904,705 2903,706 2893,706 2892,705 2869,705 2868,704 2866,704 2865,703 2859,703 2858,702 2846,702 2845,703 2837,703 2836,704 2797,704 2796,705 2784,705 2783,706 2750,706 2749,707 2734,707 2733,708 2718,708 2717,709 2704,709 2703,710 2682,710 2681,711 2657,711 2656,712 2651,712 2650,713 2647,713 2646,714 2629,714 2628,713 2619,713 2618,714 2610,714 2609,715 2591,715 2590,716 2575,716 2574,715 2559,715 2558,716 2555,716 2554,717 2552,717 2551,718 2549,718 2548,719 2547,719 2544,722 2544,725 2543,726 2543,729 2542,730 2542,754 2541,755 2541,760 2540,761 2540,802 2539,803 2539,880 2540,881 2540,892 2539,893 2539,916 2538,917 2538,924 2539,925 2539,1042 2540,1043 2540,1050 2541,1051 2541,1066 2543,1068 2543,1069 2548,1074 2549,1074 2550,1075 2552,1075 2553,1076 2556,1076 2557,1077 2562,1077 2563,1078 2573,1078 2574,1079 2578,1079 2579,1078 2589,1078 2590,1079 2605,1079 2606,1078 2617,1078 2618,1077 2625,1077 2626,1076 2647,1076 2648,1075 2660,1075 2661,1076 2665,1076 2666,1077 2674,1077 2675,1076 2681,1076 2682,1075 2695,1075 2696,1074 2717,1074 2718,1073 2725,1073 2726,1072 2738,1072 2739,1073 2756,1073 2757,1072 2765,1072 2766,1071 2818,1071 2819,1070 2842,1070 2843,1071 2859,1071 2860,1070 2917,1070 2918,1069 2932,1069 2933,1070 2937,1070 2938,1071 2957,1071 2958,1070 3014,1070 3015,1069 3026,1069 3027,1070 3032,1070 3033,1071 3037,1071 3038,1072 3045,1072 3046,1073 3051,1073 3052,1072 3055,1072 3056,1071 3058,1071 3059,1070 3106,1070 3107,1069 3119,1069 3120,1070 3143,1070 3144,1069 3210,1069 3211,1070 3225,1070 3226,1071 3247,1071 3248,1070 3279,1070 3280,1069 3300,1069 3301,1070 3304,1070 3305,1071 3309,1071 3310,1072 3323,1072 3324,1071 3329,1071 3330,1070 3333,1070 3334,1069 3350,1069 3351,1068 3365,1068 3366,1069 3378,1069 3379,1070 3402,1070 3403,1069 3416,1069 3417,1068 3429,1068 3430,1069 3435,1069 3436,1070 3440,1070 3441,1071 3470,1071 3471,1070 3473,1070 3474,1069 3475,1069 3476,1068 3481,1068 3482,1069 3485,1069 3486,1070 3565,1070 3566,1069 3578,1069 3579,1070 3588,1070 3589,1071 3625,1071 3626,1070 3647,1070 3648,1069 3652,1069 3653,1068 3663,1068 3664,1067 3671,1067 3672,1068 3697,1068 3698,1069 3703,1069 3704,1070 3719,1070 3720,1069 3732,1069 3733,1068 3757,1068 3758,1067 3766,1067 3767,1068 3784,1068 3785,1069 3801,1069 3802,1068 3808,1068 3809,1067 3816,1067 3817,1068 3830,1068 3831,1067 3876,1067 3877,1066 3880,1066 3881,1065 3888,1065 3889,1066 3903,1066 3904,1065 3918,1065 3919,1064 3950,1064 3951,1063 3955,1063 3956,1062 3957,1062 3958,1061 3959,1061 3961,1059 3962,1059 3968,1053 3968,1052 3969,1051 3969,1023 3970,1022 3970,1003 3969,1002 3969,991 3968,990 3968,974 3969,973 3969,950 3968,949 3968,930 3969,929 3969,925 3970,924 3970,916 3969,915 3969,896 3968,895 3968,889 3967,888 3967,868 3968,867 3968,859 3967,858 3967,834 3968,833 3968,818 3967,817 3967,803 3966,802 3966,785 3967,784 3967,749 3966,748 3966,740 3967,739 3967,729 3966,728 3966,726 3965,725 3965,721 3964,720 3964,717 3963,716 3963,713 3962,712 3962,709 3961,708 3961,707 3957,703 3956,703 3955,702 3942,702 3941,703 3936,703 3935,704 3927,704 3926,705 3914,705 3913,704 3886,704 3885,705 3881,705 3880,704 3863,704 3862,703 3857,703 3856,704 3847,704 3846,705 3807,705 3806,706 3780,706 3779,705 3771,705 3770,706 3734,706 3733,707 3722,707 3721,706 3715,706 3714,707 3707,707 3706,708 3698,708 3697,707 3659,707 3658,708 3657,707 3653,707 3652,706 3648,706 3647,705 3617,705 3616,706 3606,706 3605,705 3602,705 3601,704 3597,704 3596,703 3589,703 3588,702 3571,702 3570,701" fill="rgba(57,21,252,0.3)" stroke="rgb(57,21,252)" stroke-width="2" data-block-id="0012" data-name="b-0013" /><text x="3287" y="887" text-anchor="middle" dominant-baseline="middle" class="block-label" fill="rgb(57,21,252)" stroke="white" stroke-width="3" paint-order="stroke">b-0013</text></g>
</svg>