<?xml version='1.0' encoding='utf-8'?>
<svg xmlns="http://www.w3.org/2000/svg" xmlns:atlas="http://example.com/atlas" width="4984" height="3232" viewBox="0 0 4984 3232">
  
  <metadata>
    <atlas:source>
      <atlas:jp2-path>/Users/pwright/workspace/atlas/media/v2/p32.jp2</atlas:jp2-path>
      <atlas:volume>unknown</atlas:volume>
      <atlas:plate-id>p32</atlas:plate-id>
      <atlas:image-width>4984</atlas:image-width>
      <atlas:image-height>3232</atlas:image-height>
    <atlas:angle>0</atlas:angle><atlas:scale>1.3731605092259018</atlas:scale><atlas:pos-x>2399.1594341625796</atlas:pos-x><atlas:pos-y>1156.2604329989656</atlas:pos-y></atlas:source>
  </metadata>

  
  <image id="background" href="file:///Users/pwright/workspace/atlas/media/v2/p32.jp2" width="4984" height="3232" opacity="0.5" />

  <style>
    .block-label { font-family: sans-serif; font-size: 14px; font-weight: bold; }
  </style>

  
  <g id="blocks">
    <polygon points="2658,1491 2657,1492 2655,1492 2654,1493 2652,1493 2651,1494 2650,1494 2649,1495 2645,1495 2644,1494 2640,1494 2639,1493 2633,1493 2632,1494 2629,1494 2628,1495 2627,1495 2626,1496 2622,1496 2621,1495 2620,1495 2619,1494 2617,1494 2616,1493 2606,1493 2605,1494 2597,1494 2596,1493 2582,1493 2581,1494 2579,1494 2578,1495 2574,1495 2573,1494 2570,1494 2569,1493 2558,1493 2557,1494 2551,1494 2550,1493 2544,1493 2543,1492 2540,1492 2539,1493 2536,1493 2535,1494 2534,1494 2533,1495 2532,1495 2531,1496 2529,1496 2528,1497 2526,1497 2525,1496 2513,1496 2512,1497 2508,1497 2507,1498 2504,1498 2503,1497 2500,1497 2499,1496 2497,1496 2496,1495 2491,1495 2490,1496 2488,1496 2487,1497 2485,1497 2484,1498 2478,1498 2477,1497 2474,1497 2473,1496 2464,1496 2463,1495 2453,1495 2452,1494 2428,1494 2427,1493 2420,1493 2419,1494 2415,1494 2414,1495 2383,1495 2382,1494 2357,1494 2356,1493 2342,1493 2341,1494 2338,1494 2337,1493 2330,1493 2329,1492 2326,1492 2325,1493 2319,1493 2318,1494 2310,1494 2309,1493 2284,1493 2283,1492 2276,1492 2275,1493 2270,1493 2269,1494 2265,1494 2264,1493 2246,1493 2245,1494 2243,1494 2242,1493 2236,1493 2235,1492 2230,1492 2229,1493 2227,1493 2226,1494 2224,1494 2223,1495 2220,1495 2219,1496 2210,1496 2209,1497 2208,1497 2207,1498 2207,1499 2206,1500 2206,1505 2207,1506 2207,1511 2206,1512 2206,1527 2207,1528 2207,1534 2208,1535 2208,1536 2207,1537 2207,1553 2208,1554 2208,1563 2207,1564 2207,1572 2208,1573 2208,1579 2209,1580 2209,1583 2208,1584 2208,1587 2207,1588 2207,1593 2206,1594 2206,1595 2207,1596 2207,1601 2208,1602 2208,1612 2207,1613 2207,1619 2208,1620 2208,1626 2209,1627 2209,1633 2208,1634 2208,1650 2209,1651 2209,1658 2208,1659 2208,1667 2209,1668 2209,1674 2210,1675 2210,1678 2209,1679 2209,1683 2208,1684 2208,1695 2209,1696 2209,1706 2208,1707 2208,1717 2209,1718 2209,1730 2208,1731 2208,1745 2209,1746 2209,1752 2208,1753 2208,1764 2209,1765 2209,1777 2208,1778 2208,1782 2207,1783 2207,1786 2208,1787 2208,1812 2209,1813 2209,1825 2208,1826 2208,1853 2207,1854 2208,1855 2208,1864 2209,1865 2209,1869 2208,1870 2208,1877 2207,1878 2207,1881 2208,1882 2208,1899 2207,1900 2207,1904 2208,1905 2208,1912 2209,1913 2209,1916 2208,1917 2208,1924 2207,1925 2207,1929 2208,1930 2208,1947 2207,1948 2207,1951 2208,1952 2208,1957 2209,1958 2209,1967 2208,1968 2208,1983 2209,1984 2209,1990 2208,1991 2208,2002 2209,2003 2209,2010 2210,2011 2210,2043 2209,2044 2210,2045 2210,2086 2209,2087 2209,2132 2208,2133 2208,2138 2207,2139 2207,2176 2206,2177 2206,2182 2205,2183 2205,2188 2204,2189 2204,2219 2203,2220 2203,2232 2202,2233 2202,2242 2203,2243 2203,2260 2204,2261 2204,2264 2205,2265 2205,2269 2206,2270 2206,2277 2205,2278 2205,2295 2206,2296 2206,2303 2207,2304 2207,2317 2206,2318 2206,2323 2205,2324 2205,2328 2204,2329 2204,2334 2205,2335 2205,2343 2206,2344 2206,2351 2207,2352 2207,2372 2206,2373 2206,2387 2205,2388 2205,2406 2204,2407 2204,2418 2203,2419 2203,2440 2204,2441 2204,2462 2203,2463 2203,2467 2202,2468 2202,2473 2201,2474 2201,2483 2200,2484 2200,2491 2201,2492 2201,2504 2202,2505 2202,2511 2201,2512 2201,2517 2200,2518 2200,2532 2201,2533 2201,2550 2202,2551 2202,2569 2203,2570 2203,2571 2204,2572 2204,2573 2205,2574 2205,2575 2206,2576 2206,2577 2207,2578 2207,2579 2208,2580 2208,2582 2209,2583 2209,2586 2210,2587 2210,2589 2211,2590 2211,2592 2212,2593 2212,2595 2213,2596 2213,2600 2214,2601 2214,2605 2215,2606 2215,2614 2216,2615 2216,2624 2217,2625 2217,2649 2216,2650 2216,2657 2215,2658 2215,2666 2214,2667 2214,2676 2215,2677 2215,2680 2216,2681 2216,2683 2217,2684 2217,2685 2218,2686 2218,2688 2219,2689 2219,2698 2222,2701 2224,2701 2225,2702 2226,2702 2227,2703 2228,2703 2229,2704 2236,2704 2237,2703 2240,2703 2241,2702 2246,2702 2247,2701 2253,2701 2254,2700 2257,2700 2258,2701 2261,2701 2262,2702 2272,2702 2273,2701 2276,2701 2277,2700 2297,2700 2298,2699 2335,2699 2336,2700 2340,2700 2341,2699 2346,2699 2347,2698 2383,2698 2384,2699 2388,2699 2389,2698 2411,2698 2412,2697 2443,2697 2444,2696 2459,2696 2460,2695 2464,2695 2465,2694 2470,2694 2471,2693 2478,2693 2479,2692 2486,2692 2487,2693 2537,2693 2538,2694 2563,2694 2564,2693 2600,2693 2601,2692 2613,2692 2614,2691 2632,2691 2633,2692 2641,2692 2642,2691 2651,2691 2652,2692 2666,2692 2667,2691 2677,2691 2678,2692 2694,2692 2695,2691 2698,2691 2699,2690 2700,2690 2701,2689 2702,2689 2703,2688 2704,2688 2705,2687 2706,2687 2710,2683 2710,2682 2711,2681 2711,2680 2712,2679 2712,2677 2713,2676 2713,2669 2712,2668 2712,2661 2711,2660 2711,2657 2710,2656 2710,2654 2709,2653 2709,2640 2710,2639 2710,2620 2709,2619 2709,2611 2708,2610 2708,2601 2709,2600 2709,2597 2710,2596 2710,2593 2711,2592 2711,2588 2710,2587 2710,2578 2711,2577 2711,2555 2712,2554 2712,2551 2713,2550 2713,2545 2714,2544 2713,2543 2713,2539 2712,2538 2712,2532 2711,2531 2712,2530 2712,2517 2711,2516 2711,2505 2712,2504 2712,2479 2713,2478 2713,2472 2712,2471 2712,2468 2711,2467 2711,2464 2710,2463 2710,2459 2711,2458 2711,2390 2710,2389 2710,2388 2711,2387 2711,2377 2710,2376 2710,2357 2711,2356 2711,2333 2712,2332 2712,2325 2711,2324 2711,2265 2712,2264 2712,2256 2711,2255 2711,2250 2710,2249 2710,2241 2711,2240 2711,2207 2710,2206 2710,2198 2709,2197 2709,2191 2708,2190 2708,2187 2707,2186 2707,2185 2706,2184 2706,2182 2705,2181 2705,2179 2704,2178 2704,2177 2703,2176 2703,2174 2702,2173 2702,2170 2701,2169 2701,2165 2700,2164 2700,2162 2701,2161 2701,2147 2700,2146 2700,2125 2699,2124 2699,2115 2700,2114 2700,2093 2699,2092 2699,2085 2700,2084 2700,2082 2699,2081 2699,2062 2700,2061 2700,2055 2699,2054 2699,2004 2698,2003 2698,1997 2699,1996 2699,1989 2700,1988 2700,1984 2699,1983 2699,1953 2698,1952 2698,1949 2699,1948 2699,1938 2700,1937 2699,1936 2699,1859 2698,1858 2698,1853 2699,1852 2699,1834 2698,1833 2698,1828 2699,1827 2699,1814 2698,1813 2698,1803 2699,1802 2699,1787 2698,1786 2698,1782 2699,1781 2699,1762 2698,1761 2699,1760 2699,1750 2700,1749 2700,1745 2699,1744 2699,1706 2700,1705 2700,1682 2699,1681 2699,1661 2700,1660 2700,1650 2699,1649 2699,1646 2698,1645 2698,1621 2697,1620 2697,1618 2698,1617 2698,1614 2699,1613 2699,1611 2700,1610 2700,1605 2701,1604 2701,1593 2700,1592 2700,1588 2699,1587 2699,1583 2698,1582 2698,1570 2699,1569 2699,1566 2700,1565 2700,1561 2701,1560 2701,1555 2700,1554 2700,1547 2699,1546 2699,1541 2698,1540 2698,1537 2697,1536 2697,1530 2696,1529 2696,1512 2695,1511 2695,1505 2694,1504 2694,1500 2690,1496 2689,1496 2688,1495 2687,1495 2686,1494 2683,1494 2682,1493 2677,1493 2676,1492 2669,1492 2668,1491" fill="rgba(102,179,92,0.3)" stroke="rgb(102,179,92)" stroke-width="2" data-block-id="0001" data-name="b-0001" /><text x="2447" y="2047" text-anchor="middle" dominant-baseline="middle" class="block-label" fill="rgb(102,179,92)" stroke="white" stroke-width="3" paint-order="stroke">b-0001</text><polygon points="0,0 0,3225 25,3225 26,3226 27,3225 50,3225 51,3224 85,3224 86,3223 116,3223 117,3222 129,3222 130,3221 132,3221 133,3220 135,3220 136,3219 137,3219 138,3218 139,3218 144,3213 144,3212 145,3211 145,3210 146,3209 146,3208 147,3207 147,3206 148,3205 148,3120 149,3119 149,3104 150,3103 150,3074 149,3073 149,3044 150,3043 150,2953 151,2952 151,2883 152,2882 152,2797 153,2796 153,2748 152,2747 152,2731 153,2730 153,2644 154,2643 154,2586 153,2585 153,2579 154,2578 154,2565 155,2564 155,2514 154,2513 154,2496 155,2495 155,2483 156,2482 156,2437 155,2436 155,2415 156,2414 156,2374 155,2373 155,2353 154,2352 154,2343 155,2342 155,2334 156,2333 156,2278 155,2277 155,2260 156,2259 156,2247 157,2246 157,2207 156,2206 156,2183 157,2182 157,2174 158,2173 158,2164 157,2163 157,2139 156,2138 156,2123 155,2122 155,2102 156,2101 156,2043 155,2042 155,2028 156,2027 156,2019 157,2018 157,1968 156,1967 156,1947 157,1946 157,1939 158,1938 158,1929 157,1928 157,1890 156,1889 156,1871 157,1870 157,1863 158,1862 158,1812 157,1811 157,1793 158,1792 158,1784 159,1783 159,1731 158,1730 158,1716 159,1715 159,1707 160,1706 160,1690 159,1689 159,1681 160,1680 160,1658 159,1657 159,1651 158,1650 158,1640 159,1639 159,1633 160,1632 160,1616 159,1615 159,1583 158,1582 158,1575 157,1574 157,1561 158,1560 158,1554 159,1553 159,1533 158,1532 158,1501 157,1500 157,1493 156,1492 156,1485 157,1484 157,1474 158,1473 158,1464 157,1463 157,1444 158,1443 158,1435 159,1434 159,1425 158,1424 158,1406 159,1405 159,1401 160,1400 160,1396 161,1395 161,1377 160,1376 160,1374 161,1373 161,1368 162,1367 162,1363 163,1362 163,1358 164,1357 164,1348 163,1347 163,1345 162,1344 162,1342 161,1341 161,1340 160,1339 160,1338 158,1336 158,1335 157,1335 153,1331 152,1331 151,1330 150,1330 149,1329 148,1329 147,1328 145,1328 144,1327 137,1327 136,1326 126,1326 125,1325 117,1325 116,1324 110,1324 109,1323 107,1323 106,1322 104,1322 103,1321 102,1321 99,1318 98,1318 96,1316 96,1315 95,1314 95,1313 94,1312 94,1305 95,1304 95,1295 96,1294 96,1286 97,1285 97,1277 98,1276 98,1244 99,1243 99,1235 100,1234 100,1231 101,1230 101,1227 102,1226 102,1224 103,1223 103,1222 107,1218 108,1218 109,1217 110,1218 115,1218 116,1219 121,1219 122,1220 131,1220 132,1219 137,1219 138,1218 143,1218 144,1217 147,1217 148,1216 150,1216 151,1215 152,1215 153,1214 154,1214 155,1213 156,1213 158,1211 158,1210 159,1209 159,1208 160,1207 160,1202 161,1201 161,1197 160,1196 160,1192 159,1191 159,1189 158,1188 158,1186 157,1185 157,1183 156,1182 156,1179 155,1178 155,1175 154,1174 154,1170 153,1169 153,1165 152,1164 152,1159 151,1158 151,1139 152,1138 152,1128 153,1127 153,1093 152,1092 152,1073 151,1072 151,1051 152,1050 152,1035 151,1034 151,1023 150,1022 150,1017 149,1016 149,1012 148,1011 148,1008 147,1007 147,1006 146,1005 146,1004 145,1003 145,996 146,995 146,991 147,990 147,985 148,984 148,970 149,969 149,948 148,947 148,927 149,926 149,918 150,917 150,910 151,909 151,874 150,873 150,834 149,833 149,821 150,820 150,802 149,801 149,778 148,777 148,740 149,739 149,725 148,724 148,518 147,517 147,511 148,510 148,496 147,495 147,429 148,428 148,420 147,419 147,401 146,400 146,328 145,327 145,308 146,307 146,288 145,287 145,254 144,253 144,178 143,177 143,102 142,101 142,95 141,94 141,86 140,85 140,59 139,58 139,46 140,45 140,40 141,39 141,33 142,32 142,30 141,29 141,25 140,24 140,22 139,21 139,20 138,19 138,18 137,17 137,15 135,13 135,11 134,10 134,8 133,7 133,0" fill="rgba(14,106,71,0.3)" stroke="rgb(14,106,71)" stroke-width="2" data-block-id="0002" data-name="b-0002" /><text x="143" y="1494" text-anchor="middle" dominant-baseline="middle" class="block-label" fill="rgb(14,106,71)" stroke="white" stroke-width="3" paint-order="stroke">b-0002</text><polygon points="2895,1479 2894,1480 2847,1480 2846,1481 2845,1481 2844,1482 2842,1482 2841,1483 2840,1483 2836,1487 2836,1488 2835,1489 2835,1490 2834,1491 2834,1494 2833,1495 2833,1530 2834,1531 2834,1540 2835,1541 2835,1545 2836,1546 2836,1581 2835,1582 2835,1585 2834,1586 2834,1589 2833,1590 2833,1603 2834,1604 2834,1608 2833,1609 2833,1627 2834,1628 2833,1629 2833,1636 2832,1637 2832,1657 2833,1658 2833,1661 2834,1662 2834,1669 2833,1670 2833,1677 2832,1678 2832,1701 2833,1702 2833,1830 2832,1831 2832,1837 2833,1838 2833,1860 2834,1861 2834,1886 2833,1887 2833,1890 2834,1891 2834,1895 2835,1896 2835,1897 2836,1898 2836,1899 2838,1901 2838,1904 2836,1906 2836,1908 2835,1909 2835,1911 2834,1912 2834,1939 2835,1940 2835,1958 2834,1959 2834,1964 2835,1965 2835,2018 2836,2019 2836,2051 2835,2052 2835,2060 2836,2061 2836,2076 2837,2077 2837,2094 2836,2095 2836,2113 2837,2114 2837,2136 2836,2137 2836,2191 2837,2192 2837,2206 2838,2207 2838,2230 2839,2231 2839,2243 2838,2244 2838,2249 2839,2250 2839,2272 2838,2273 2838,2305 2839,2306 2839,2310 2840,2311 2840,2313 2841,2314 2842,2314 2843,2315 2844,2315 2845,2316 2856,2316 2857,2317 2863,2317 2864,2316 2880,2316 2881,2317 2885,2317 2886,2316 2914,2316 2915,2315 2930,2315 2931,2316 2936,2316 2937,2315 3051,2315 3052,2314 3082,2314 3083,2313 3136,2313 3137,2312 3179,2312 3180,2311 3225,2311 3226,2310 3279,2310 3280,2309 3298,2309 3299,2310 3302,2310 3303,2309 3316,2309 3317,2308 3320,2308 3321,2307 3322,2307 3323,2306 3324,2306 3328,2302 3328,2301 3329,2300 3329,2299 3330,2298 3330,2296 3331,2295 3331,2287 3332,2286 3332,2275 3331,2274 3331,2240 3330,2239 3330,2233 3331,2232 3331,2199 3330,2198 3330,2156 3331,2155 3331,2137 3332,2136 3332,2132 3333,2131 3333,2127 3332,2126 3332,2124 3331,2123 3331,2122 3330,2121 3330,2120 3328,2118 3328,2116 3327,2115 3327,2111 3326,2110 3326,2105 3325,2104 3325,2097 3324,2096 3324,2092 3323,2091 3323,2089 3322,2088 3322,2086 3321,2085 3321,2077 3322,2076 3322,2071 3326,2067 3327,2067 3328,2066 3328,2065 3329,2064 3329,2062 3330,2061 3330,2040 3329,2039 3329,1968 3330,1967 3330,1948 3329,1947 3329,1886 3330,1885 3330,1782 3331,1781 3331,1732 3330,1731 3330,1726 3329,1725 3329,1718 3328,1717 3328,1709 3329,1708 3329,1700 3330,1699 3330,1632 3329,1631 3329,1611 3330,1610 3330,1585 3329,1584 3329,1577 3330,1576 3330,1528 3331,1527 3331,1499 3330,1498 3330,1494 3329,1493 3329,1487 3328,1486 3328,1484 3324,1480 3307,1480 3306,1481 3273,1481 3272,1480 3224,1480 3223,1481 3180,1481 3179,1482 3128,1482 3127,1483 3103,1483 3102,1482 3079,1482 3078,1483 3072,1483 3071,1482 3002,1482 3001,1481 2983,1481 2982,1482 2981,1481 2972,1481 2971,1480 2938,1480 2937,1479" fill="rgba(188,20,102,0.3)" stroke="rgb(188,20,102)" stroke-width="2" data-block-id="0003" data-name="b-0003" /><text x="3070" y="1921" text-anchor="middle" dominant-baseline="middle" class="block-label" fill="rgb(188,20,102)" stroke="white" stroke-width="3" paint-order="stroke">b-0003</text><polygon points="717,997 716,998 715,998 715,999 714,1000 714,1001 713,1002 713,1004 705,1012 704,1012 699,1017 699,1019 698,1020 698,1024 697,1025 697,1028 698,1029 698,1031 699,1032 699,1033 700,1034 700,1036 701,1037 701,1038 702,1039 702,1042 703,1043 703,1047 704,1048 704,1055 703,1056 703,1058 702,1059 702,1060 701,1061 701,1063 700,1064 700,1067 699,1068 699,1079 700,1080 700,1084 701,1085 701,1090 702,1091 702,1094 703,1095 703,1100 704,1101 704,1104 703,1105 703,1141 702,1142 702,1165 703,1166 703,1182 702,1183 702,1199 701,1200 701,1210 702,1211 702,1224 701,1225 701,1229 700,1230 700,1232 701,1233 701,1269 700,1270 700,1307 699,1308 699,1323 700,1324 700,1345 699,1346 699,1351 700,1352 700,1355 701,1356 701,1358 702,1359 702,1361 703,1362 703,1363 704,1364 704,1365 706,1367 707,1367 708,1368 710,1368 711,1369 715,1369 716,1370 723,1370 724,1371 745,1371 746,1372 764,1372 765,1371 768,1371 769,1372 787,1372 788,1371 791,1371 792,1372 799,1372 800,1373 805,1373 806,1372 821,1372 822,1373 831,1373 832,1372 841,1372 842,1373 886,1373 887,1374 902,1374 903,1373 906,1373 907,1372 914,1372 915,1373 941,1373 942,1374 948,1374 949,1373 974,1373 975,1372 983,1372 984,1373 987,1373 988,1374 1026,1374 1027,1373 1028,1374 1037,1374 1038,1375 1041,1375 1042,1374 1049,1374 1050,1373 1056,1373 1057,1372 1060,1372 1061,1371 1068,1371 1069,1372 1079,1372 1080,1373 1097,1373 1098,1372 1107,1372 1108,1371 1114,1371 1115,1372 1123,1372 1124,1373 1130,1373 1131,1374 1140,1374 1141,1373 1157,1373 1158,1374 1164,1374 1165,1373 1175,1373 1176,1374 1196,1374 1197,1375 1211,1375 1212,1374 1231,1374 1232,1375 1258,1375 1259,1376 1271,1376 1272,1375 1310,1375 1311,1376 1323,1376 1324,1375 1340,1375 1341,1376 1460,1376 1461,1375 1464,1375 1465,1374 1466,1374 1468,1372 1468,1371 1469,1370 1469,1366 1470,1365 1470,1351 1471,1350 1471,1301 1472,1300 1472,1159 1473,1158 1472,1157 1472,1092 1471,1091 1471,1078 1470,1077 1470,1076 1471,1075 1471,1048 1472,1047 1472,1042 1473,1041 1473,1038 1472,1037 1472,1017 1471,1016 1471,1013 1470,1012 1470,1010 1466,1006 1460,1006 1459,1005 1452,1005 1451,1006 1441,1006 1440,1005 1435,1005 1434,1004 1430,1004 1429,1005 1404,1005 1403,1006 1381,1006 1380,1007 1369,1007 1368,1006 1364,1006 1363,1005 1360,1005 1359,1006 1356,1006 1355,1007 1351,1007 1350,1008 1346,1008 1345,1007 1322,1007 1321,1006 1317,1006 1316,1005 1312,1005 1311,1006 1309,1006 1308,1007 1305,1007 1304,1008 1299,1008 1298,1007 1296,1007 1295,1006 1293,1006 1292,1005 1274,1005 1273,1004 1261,1004 1260,1005 1258,1005 1257,1006 1249,1006 1248,1005 1240,1005 1239,1006 1237,1006 1236,1007 1233,1007 1232,1008 1226,1008 1225,1007 1200,1007 1199,1006 1188,1006 1187,1007 1177,1007 1176,1006 1163,1006 1162,1007 1156,1007 1155,1006 1133,1006 1132,1007 1120,1007 1119,1006 1117,1006 1116,1005 1114,1005 1113,1004 1095,1004 1094,1005 1086,1005 1085,1006 1080,1006 1079,1007 1071,1007 1070,1006 1031,1006 1030,1005 1027,1005 1026,1006 1018,1006 1017,1007 1002,1007 1001,1006 997,1006 996,1005 991,1005 990,1004 977,1004 976,1003 963,1003 962,1004 955,1004 954,1003 950,1003 949,1002 941,1002 940,1003 937,1003 936,1004 927,1004 926,1003 876,1003 875,1002 870,1002 869,1003 846,1003 845,1002 829,1002 828,1003 816,1003 815,1004 814,1003 807,1003 806,1002 794,1002 793,1003 743,1003 742,1002 740,1002 739,1001 738,1001 737,1000 735,1000 734,999 733,999 732,998 730,998 729,997" fill="rgba(74,202,87,0.3)" stroke="rgb(74,202,87)" stroke-width="2" data-block-id="0004" data-name="b-0005" /><text x="1019" y="1155" text-anchor="middle" dominant-baseline="middle" class="block-label" fill="rgb(74,202,87)" stroke="white" stroke-width="3" paint-order="stroke">b-0005</text><polygon points="1405,531 1404,532 1376,532 1375,533 1370,533 1369,532 1357,532 1356,533 1326,533 1325,532 1307,532 1306,533 1269,533 1268,532 1267,532 1266,533 1257,533 1256,534 1247,534 1246,533 1168,533 1167,534 1026,534 1025,535 1006,535 1005,534 969,534 968,535 966,535 965,534 924,534 923,535 917,535 916,534 905,534 904,535 888,535 887,536 884,536 883,535 853,535 852,534 834,534 833,535 817,535 816,534 723,534 722,533 718,533 717,534 716,534 715,535 714,535 713,536 712,536 710,538 709,538 708,539 708,540 707,541 707,542 706,543 706,547 705,548 705,639 704,640 704,651 705,652 705,672 704,673 704,699 705,700 705,705 706,706 706,707 705,708 705,712 704,713 704,717 703,718 703,742 704,743 704,774 705,775 705,785 704,786 704,792 705,793 705,820 706,821 706,830 705,831 705,838 704,839 704,840 705,841 705,887 706,888 706,890 707,891 707,892 708,893 708,894 709,895 709,896 710,897 711,897 713,899 715,899 716,900 719,900 720,901 809,901 810,900 835,900 836,901 838,901 839,900 928,900 929,901 976,901 977,902 1008,902 1009,901 1031,901 1032,902 1048,902 1049,901 1074,901 1075,902 1202,902 1203,901 1234,901 1235,900 1306,900 1307,901 1319,901 1320,900 1447,900 1448,901 1461,901 1462,900 1468,900 1469,899 1470,899 1474,895 1474,894 1475,893 1475,890 1476,889 1476,874 1477,873 1477,830 1476,829 1476,808 1477,807 1477,715 1476,714 1476,699 1475,698 1475,694 1476,693 1476,646 1477,645 1477,638 1478,637 1478,634 1477,633 1477,625 1476,624 1476,621 1477,620 1477,539 1476,538 1476,537 1472,533 1471,533 1470,532 1466,532 1465,531 1451,531 1450,532 1416,532 1415,531" fill="rgba(116,99,103,0.3)" stroke="rgb(116,99,103)" stroke-width="2" data-block-id="0005" data-name="b-0006" /><text x="1044" y="698" text-anchor="middle" dominant-baseline="middle" class="block-label" fill="rgb(116,99,103)" stroke="white" stroke-width="3" paint-order="stroke">b-0006</text><polygon points="953,1953 952,1954 948,1954 947,1955 915,1955 914,1954 905,1954 904,1955 895,1955 894,1956 891,1956 890,1957 889,1957 888,1958 886,1958 885,1959 884,1959 883,1958 882,1958 881,1957 879,1957 878,1956 876,1956 875,1955 858,1955 857,1956 852,1956 851,1957 794,1957 793,1956 716,1956 715,1957 710,1957 709,1958 706,1958 704,1960 703,1960 702,1961 702,1962 701,1963 701,1978 700,1979 700,1986 699,1987 699,2004 698,2005 698,2012 699,2013 699,2027 698,2028 698,2039 699,2040 699,2051 698,2052 698,2060 699,2061 699,2063 700,2064 700,2066 701,2067 701,2068 700,2069 700,2071 697,2074 697,2076 696,2077 696,2080 695,2081 695,2085 696,2086 696,2100 695,2101 695,2110 694,2111 694,2124 695,2125 695,2131 694,2132 694,2138 693,2139 693,2158 692,2159 692,2167 693,2168 693,2171 694,2172 694,2174 695,2175 695,2184 696,2185 696,2191 695,2192 695,2202 696,2203 696,2206 697,2207 697,2209 698,2210 698,2213 697,2214 697,2216 696,2217 696,2220 695,2221 695,2228 696,2229 696,2232 697,2233 697,2239 696,2240 696,2245 695,2246 695,2254 696,2255 696,2259 695,2260 695,2266 694,2267 694,2274 695,2275 695,2277 696,2278 696,2279 699,2282 699,2284 698,2285 698,2286 697,2287 697,2288 696,2289 696,2291 695,2292 695,2306 696,2307 696,2309 698,2311 699,2311 701,2313 702,2313 703,2314 705,2314 706,2315 736,2315 737,2314 770,2314 771,2315 776,2315 777,2316 781,2316 782,2315 822,2315 823,2316 833,2316 834,2315 839,2315 840,2316 845,2316 846,2317 852,2317 853,2316 857,2316 858,2315 863,2315 864,2316 868,2316 869,2317 874,2317 875,2318 876,2317 883,2317 884,2316 886,2316 887,2317 892,2317 893,2318 916,2318 917,2319 925,2319 926,2318 946,2318 947,2319 951,2319 952,2320 985,2320 986,2321 1002,2321 1003,2320 1005,2320 1006,2321 1097,2321 1098,2322 1114,2322 1115,2321 1121,2321 1122,2320 1173,2320 1174,2319 1194,2319 1195,2320 1298,2320 1299,2321 1432,2321 1433,2322 1454,2322 1455,2321 1459,2321 1463,2317 1463,2313 1464,2312 1464,2302 1465,2301 1465,2290 1464,2289 1464,2276 1465,2275 1465,2271 1464,2270 1464,2261 1463,2260 1463,2234 1464,2233 1464,2229 1465,2228 1465,2225 1466,2224 1466,2202 1465,2201 1465,2184 1466,2183 1466,2168 1467,2167 1467,2162 1466,2161 1466,2136 1467,2135 1467,2131 1468,2130 1468,2108 1469,2107 1469,2103 1468,2102 1468,2096 1467,2095 1467,2091 1468,2090 1468,2072 1467,2071 1467,2067 1468,2066 1468,2049 1467,2048 1467,2044 1468,2043 1468,2039 1469,2038 1469,2024 1468,2023 1468,2021 1469,2020 1469,1988 1470,1987 1470,1985 1469,1984 1469,1975 1468,1974 1468,1964 1467,1963 1467,1961 1465,1959 1464,1959 1463,1958 1462,1958 1461,1957 1460,1957 1459,1956 1442,1956 1441,1955 1426,1955 1425,1956 1416,1956 1415,1955 1404,1955 1403,1956 1391,1956 1390,1955 1359,1955 1358,1954 1320,1954 1319,1953 1308,1953 1307,1954 1285,1954 1284,1955 1267,1955 1266,1954 1217,1954 1216,1955 1208,1955 1207,1956 1197,1956 1196,1957 1191,1957 1190,1956 1175,1956 1174,1955 1163,1955 1162,1954 1143,1954 1142,1955 1130,1955 1129,1954 1118,1954 1117,1955 1080,1955 1079,1954 1074,1954 1073,1955 1060,1955 1059,1954 1042,1954 1041,1955 1037,1955 1036,1954 967,1954 966,1953" fill="rgba(151,130,149,0.3)" stroke="rgb(151,130,149)" stroke-width="2" data-block-id="0006" data-name="b-0007" /><text x="1012" y="2129" text-anchor="middle" dominant-baseline="middle" class="block-label" fill="rgb(151,130,149)" stroke="white" stroke-width="3" paint-order="stroke">b-0007</text><polygon points="727,2427 726,2428 711,2428 710,2429 705,2429 704,2430 703,2430 702,2431 700,2431 698,2433 697,2433 696,2434 696,2435 695,2436 695,2438 694,2439 694,2471 693,2472 693,2478 694,2479 694,2489 693,2490 693,2510 692,2511 692,2526 693,2527 693,2554 692,2555 692,2603 691,2604 691,2610 690,2611 690,2615 689,2616 689,2621 688,2622 688,2629 687,2630 687,2631 688,2632 688,2641 687,2642 687,2661 686,2662 687,2663 687,2669 688,2670 688,2672 689,2673 689,2676 690,2677 689,2678 689,2681 688,2682 688,2753 687,2754 687,2770 688,2771 688,2778 689,2779 689,2784 690,2785 690,2787 691,2788 691,2789 692,2790 692,2791 695,2794 696,2794 697,2795 699,2795 700,2796 704,2796 705,2797 741,2797 742,2798 762,2798 763,2797 770,2797 771,2798 807,2798 808,2797 825,2797 826,2798 852,2798 853,2797 867,2797 868,2798 919,2798 920,2797 1089,2797 1090,2798 1100,2798 1101,2799 1114,2799 1115,2798 1146,2798 1147,2797 1163,2797 1164,2798 1171,2798 1172,2799 1177,2799 1178,2798 1210,2798 1211,2799 1230,2799 1231,2798 1237,2798 1238,2797 1252,2797 1253,2798 1280,2798 1281,2797 1293,2797 1294,2798 1340,2798 1341,2799 1366,2799 1367,2800 1387,2800 1388,2799 1445,2799 1446,2798 1447,2798 1449,2796 1450,2796 1451,2795 1451,2794 1452,2793 1452,2781 1453,2780 1453,2778 1454,2777 1454,2774 1455,2773 1455,2766 1454,2765 1454,2755 1455,2754 1455,2751 1456,2750 1456,2742 1455,2741 1455,2731 1456,2730 1456,2728 1457,2727 1457,2724 1458,2723 1458,2721 1457,2720 1457,2715 1456,2714 1456,2710 1457,2709 1457,2706 1458,2705 1458,2691 1457,2690 1457,2685 1458,2684 1458,2668 1457,2667 1457,2662 1458,2661 1458,2656 1459,2655 1459,2646 1458,2645 1458,2620 1457,2619 1457,2615 1458,2614 1458,2610 1459,2609 1459,2563 1460,2562 1460,2550 1459,2549 1459,2536 1460,2535 1460,2533 1459,2532 1459,2515 1460,2514 1460,2500 1459,2499 1459,2493 1460,2492 1460,2471 1459,2470 1459,2461 1458,2460 1458,2459 1457,2458 1457,2457 1455,2455 1455,2454 1453,2452 1453,2451 1451,2449 1451,2448 1447,2444 1446,2444 1445,2443 1444,2443 1443,2442 1442,2442 1441,2441 1440,2441 1439,2440 1438,2440 1437,2439 1436,2439 1435,2438 1428,2438 1427,2439 1424,2439 1423,2440 1417,2440 1416,2439 1412,2439 1411,2438 1405,2438 1404,2439 1389,2439 1388,2438 1382,2438 1381,2439 1376,2439 1375,2440 1371,2440 1370,2439 1365,2439 1364,2438 1357,2438 1356,2439 1330,2439 1329,2440 1320,2440 1319,2439 1306,2439 1305,2440 1290,2440 1289,2439 1281,2439 1280,2438 1271,2438 1270,2437 1265,2437 1264,2438 1261,2438 1260,2439 1253,2439 1251,2437 1250,2437 1249,2436 1248,2436 1247,2435 1246,2435 1244,2433 1235,2433 1234,2434 1225,2434 1224,2433 1211,2433 1210,2434 1194,2434 1193,2433 1186,2433 1185,2432 1168,2432 1167,2433 1165,2433 1164,2434 1162,2434 1161,2435 1155,2435 1154,2434 1152,2434 1151,2433 1148,2433 1147,2432 1144,2432 1143,2433 1130,2433 1129,2432 1125,2432 1124,2431 1120,2431 1119,2432 1106,2432 1105,2431 1096,2431 1095,2432 1013,2432 1012,2431 988,2431 987,2430 963,2430 962,2429 950,2429 949,2430 936,2430 935,2431 918,2431 917,2430 906,2430 905,2431 894,2431 893,2430 888,2430 887,2429 881,2429 880,2430 869,2430 868,2429 857,2429 856,2430 844,2430 843,2429 796,2429 795,2428 781,2428 780,2429 777,2429 776,2428 744,2428 743,2427" fill="rgba(52,1,87,0.3)" stroke="rgb(52,1,87)" stroke-width="2" data-block-id="0007" data-name="b-0008" /><text x="1124" y="2579" text-anchor="middle" dominant-baseline="middle" class="block-label" fill="rgb(52,1,87)" stroke="white" stroke-width="3" paint-order="stroke">b-0008</text><polygon points="716,1480 715,1481 713,1481 712,1482 711,1482 710,1483 709,1483 708,1484 707,1484 706,1485 706,1486 704,1488 704,1491 703,1492 703,1496 702,1497 702,1504 703,1505 703,1531 704,1532 704,1541 703,1542 703,1547 704,1548 704,1562 703,1563 703,1566 702,1567 702,1598 703,1599 703,1602 704,1603 704,1607 703,1608 703,1610 702,1611 702,1614 701,1615 701,1624 702,1625 702,1657 703,1658 703,1667 702,1668 702,1670 701,1671 701,1675 700,1676 700,1681 701,1682 701,1711 702,1712 702,1719 703,1720 703,1729 702,1730 702,1755 701,1756 701,1777 702,1778 702,1794 701,1795 701,1823 702,1824 702,1832 703,1833 703,1835 704,1836 704,1837 705,1838 705,1839 706,1840 707,1840 708,1841 710,1841 711,1842 731,1842 732,1843 738,1843 739,1842 741,1842 742,1843 759,1843 760,1842 799,1842 800,1843 952,1843 953,1842 959,1842 960,1843 963,1843 964,1844 986,1844 987,1843 1008,1843 1009,1844 1041,1844 1042,1843 1048,1843 1049,1842 1062,1842 1063,1843 1076,1843 1077,1842 1090,1842 1091,1843 1150,1843 1151,1842 1166,1842 1167,1843 1184,1843 1185,1844 1193,1844 1194,1845 1207,1845 1208,1846 1209,1846 1210,1847 1211,1847 1212,1848 1214,1848 1215,1849 1223,1849 1224,1850 1237,1850 1238,1849 1241,1849 1242,1850 1264,1850 1265,1851 1291,1851 1292,1852 1308,1852 1309,1853 1329,1853 1330,1854 1403,1854 1404,1855 1454,1855 1455,1854 1462,1854 1463,1853 1465,1853 1468,1850 1468,1848 1469,1847 1469,1845 1470,1844 1470,1825 1471,1824 1471,1740 1472,1739 1472,1696 1473,1695 1473,1686 1474,1685 1474,1615 1473,1614 1473,1590 1474,1589 1474,1569 1473,1568 1473,1562 1474,1561 1474,1529 1473,1528 1473,1493 1472,1492 1472,1490 1471,1489 1471,1488 1468,1485 1457,1485 1456,1484 1420,1484 1419,1485 1406,1485 1405,1486 1403,1486 1401,1488 1400,1488 1400,1489 1399,1490 1399,1491 1395,1495 1380,1495 1379,1496 1373,1496 1372,1497 1348,1497 1341,1490 1341,1489 1340,1488 1340,1487 1338,1485 1337,1485 1336,1484 1322,1484 1321,1485 1308,1485 1307,1486 1304,1486 1303,1487 1301,1487 1300,1488 1288,1488 1287,1489 1187,1489 1186,1488 1171,1488 1170,1489 1148,1489 1147,1488 1019,1488 1018,1489 1013,1489 1012,1488 986,1488 985,1487 974,1487 973,1486 968,1486 967,1485 936,1485 935,1486 934,1485 894,1485 893,1484 887,1484 886,1483 882,1483 881,1482 876,1482 875,1481 850,1481 849,1482 840,1482 839,1481 775,1481 774,1480" fill="rgba(129,191,187,0.3)" stroke="rgb(129,191,187)" stroke-width="2" data-block-id="0008" data-name="b-0010" /><text x="1043" y="1656" text-anchor="middle" dominant-baseline="middle" class="block-label" fill="rgb(129,191,187)" stroke="white" stroke-width="3" paint-order="stroke">b-0010</text><polygon points="4079,2410 4078,2411 4067,2411 4066,2412 4059,2412 4058,2413 4055,2413 4054,2414 4049,2414 4048,2413 4045,2413 4044,2412 4041,2412 4040,2411 4016,2411 4015,2412 3994,2412 3993,2413 3992,2412 3981,2412 3980,2411 3973,2411 3972,2412 3961,2412 3960,2413 3949,2413 3948,2412 3921,2412 3920,2413 3889,2413 3888,2414 3881,2414 3880,2413 3869,2413 3868,2414 3865,2414 3864,2415 3852,2415 3851,2414 3822,2414 3821,2415 3808,2415 3807,2416 3797,2416 3796,2415 3776,2415 3775,2416 3759,2416 3758,2417 3665,2417 3664,2418 3651,2418 3650,2417 3645,2417 3644,2418 3637,2418 3636,2419 3631,2419 3630,2418 3615,2418 3614,2419 3605,2419 3604,2420 3600,2420 3599,2421 3595,2421 3594,2422 3591,2422 3590,2423 3585,2423 3584,2422 3583,2422 3582,2421 3580,2421 3579,2420 3577,2420 3576,2419 3567,2419 3566,2420 3534,2420 3533,2419 3521,2419 3520,2420 3478,2420 3477,2421 3476,2421 3475,2422 3474,2422 3471,2425 3471,2426 3470,2427 3470,2432 3471,2433 3471,2440 3470,2441 3470,2447 3469,2448 3469,2459 3470,2460 3469,2461 3469,2541 3468,2542 3468,2546 3469,2547 3469,2563 3468,2564 3468,2645 3467,2646 3467,2655 3468,2656 3468,2696 3467,2697 3467,2702 3468,2703 3468,2732 3469,2733 3469,2766 3468,2767 3468,2770 3469,2771 3469,2772 3470,2773 3471,2773 3472,2774 3473,2774 3474,2775 3475,2775 3476,2776 3477,2776 3478,2777 3489,2777 3490,2778 3493,2778 3494,2777 3543,2777 3544,2776 3555,2776 3556,2777 3580,2777 3581,2776 3607,2776 3608,2775 3624,2775 3625,2776 3680,2776 3681,2775 3754,2775 3755,2774 3761,2774 3762,2773 3773,2773 3774,2774 3786,2774 3787,2773 3790,2773 3791,2774 3824,2774 3825,2773 3842,2773 3843,2774 3850,2774 3851,2773 3868,2773 3869,2774 3894,2774 3895,2773 3935,2773 3936,2774 3943,2774 3944,2775 3947,2775 3948,2774 3959,2774 3960,2775 4032,2775 4033,2776 4044,2776 4045,2775 4059,2775 4060,2776 4065,2776 4066,2775 4082,2775 4083,2776 4091,2776 4092,2775 4215,2775 4216,2774 4219,2774 4220,2773 4222,2773 4223,2772 4224,2772 4225,2771 4225,2770 4226,2769 4226,2760 4227,2759 4227,2752 4228,2751 4228,2741 4227,2740 4227,2692 4228,2691 4228,2677 4227,2676 4227,2659 4228,2658 4228,2646 4227,2645 4227,2636 4226,2635 4226,2626 4225,2625 4225,2607 4226,2606 4226,2601 4225,2600 4225,2591 4226,2590 4226,2588 4227,2587 4227,2586 4228,2585 4228,2583 4229,2582 4229,2578 4228,2577 4228,2575 4227,2574 4227,2571 4226,2570 4226,2566 4227,2565 4227,2562 4228,2561 4228,2551 4227,2550 4227,2547 4226,2546 4226,2544 4227,2543 4227,2540 4228,2539 4228,2536 4229,2535 4229,2531 4228,2530 4228,2529 4227,2528 4227,2526 4226,2525 4226,2523 4225,2522 4225,2518 4226,2517 4226,2504 4225,2503 4225,2500 4224,2499 4224,2498 4225,2497 4225,2494 4226,2493 4226,2491 4227,2490 4227,2489 4228,2488 4228,2481 4227,2480 4227,2476 4226,2475 4226,2471 4227,2470 4227,2466 4228,2465 4228,2444 4227,2443 4227,2435 4226,2434 4226,2429 4225,2428 4225,2423 4224,2422 4224,2418 4223,2417 4223,2415 4221,2413 4220,2413 4219,2412 4218,2412 4217,2411 4171,2411 4170,2410 4156,2410 4155,2411 4149,2411 4148,2412 4133,2412 4132,2411 4123,2411 4122,2410 4110,2410 4109,2411 4104,2411 4103,2412 4094,2412 4093,2411 4091,2411 4090,2410" fill="rgba(57,21,252,0.3)" stroke="rgb(57,21,252)" stroke-width="2" data-block-id="0009" data-name="b-0012" /><text x="3917" y="2560" text-anchor="middle" dominant-baseline="middle" class="block-label" fill="rgb(57,21,252)" stroke="white" stroke-width="3" paint-order="stroke">b-0012</text><polygon points="4082,1001 4081,1002 4075,1002 4074,1003 4060,1003 4059,1004 4055,1004 4054,1005 4050,1005 4049,1006 4048,1006 4047,1005 4035,1005 4034,1006 4021,1006 4020,1005 4010,1005 4009,1006 4005,1006 4004,1007 4000,1007 3999,1006 3971,1006 3970,1005 3957,1005 3956,1004 3935,1004 3934,1005 3928,1005 3927,1004 3910,1004 3909,1005 3908,1004 3901,1004 3900,1003 3887,1003 3886,1004 3852,1004 3851,1003 3847,1003 3846,1004 3836,1004 3835,1005 3834,1004 3822,1004 3821,1005 3803,1005 3802,1004 3771,1004 3770,1005 3752,1005 3751,1004 3730,1004 3729,1005 3723,1005 3722,1006 3720,1006 3719,1007 3718,1006 3716,1006 3715,1005 3712,1005 3711,1004 3708,1004 3707,1003 3704,1003 3703,1004 3699,1004 3698,1005 3684,1005 3683,1004 3681,1004 3680,1005 3672,1005 3671,1006 3669,1006 3668,1005 3649,1005 3648,1006 3645,1006 3644,1005 3637,1005 3636,1004 3632,1004 3631,1005 3611,1005 3610,1004 3609,1004 3608,1005 3594,1005 3593,1004 3581,1004 3580,1005 3570,1005 3569,1004 3560,1004 3559,1005 3556,1005 3555,1006 3545,1006 3544,1005 3536,1005 3535,1006 3530,1006 3529,1007 3523,1007 3522,1006 3507,1006 3506,1007 3504,1007 3503,1006 3497,1006 3496,1005 3488,1005 3487,1006 3481,1006 3480,1007 3470,1007 3469,1008 3467,1008 3466,1009 3465,1009 3459,1015 3459,1020 3460,1021 3460,1046 3459,1047 3459,1064 3460,1065 3460,1066 3461,1067 3461,1070 3462,1071 3462,1077 3461,1078 3461,1081 3460,1082 3460,1084 3459,1085 3459,1091 3460,1092 3460,1114 3461,1115 3461,1186 3462,1187 3462,1189 3463,1190 3463,1192 3464,1193 3464,1199 3463,1200 3463,1213 3462,1214 3462,1244 3461,1245 3461,1261 3460,1262 3460,1305 3459,1306 3459,1333 3458,1334 3458,1356 3457,1357 3457,1358 3458,1359 3458,1360 3460,1362 3461,1362 3463,1364 3464,1364 3465,1365 3466,1365 3467,1366 3469,1366 3470,1367 3476,1367 3477,1368 3484,1368 3485,1367 3501,1367 3502,1368 3514,1368 3515,1369 3521,1369 3522,1370 3536,1370 3537,1369 3547,1369 3548,1370 3569,1370 3570,1371 3578,1371 3579,1370 3603,1370 3604,1369 3624,1369 3625,1368 3628,1368 3629,1367 3631,1367 3632,1366 3656,1366 3657,1365 3669,1365 3670,1364 3699,1364 3700,1363 3716,1363 3717,1362 3735,1362 3736,1363 3740,1363 3741,1362 3747,1362 3748,1361 3751,1361 3752,1360 3783,1360 3784,1361 3793,1361 3794,1360 3806,1360 3807,1361 3822,1361 3823,1360 3829,1360 3830,1361 3977,1361 3978,1362 3990,1362 3991,1363 3993,1363 3994,1362 4006,1362 4007,1363 4011,1363 4012,1364 4030,1364 4031,1363 4059,1363 4060,1364 4063,1364 4064,1363 4069,1363 4070,1362 4078,1362 4079,1363 4082,1363 4083,1364 4087,1364 4088,1365 4171,1365 4172,1364 4204,1364 4205,1363 4208,1363 4209,1362 4211,1362 4212,1361 4213,1361 4216,1358 4216,1355 4217,1354 4217,1351 4218,1350 4218,1334 4217,1333 4217,1329 4216,1328 4216,1325 4215,1324 4215,1304 4216,1303 4216,1288 4215,1287 4215,1279 4214,1278 4214,1262 4215,1261 4215,1257 4216,1256 4216,1238 4215,1237 4215,1227 4214,1226 4214,1213 4215,1212 4215,1180 4214,1179 4214,1167 4215,1166 4215,1163 4216,1162 4216,1159 4217,1158 4217,1155 4216,1154 4216,1145 4215,1144 4215,1138 4214,1137 4214,1131 4213,1130 4213,1125 4212,1124 4212,1123 4213,1122 4213,1117 4214,1116 4214,1111 4215,1110 4215,1109 4214,1108 4214,1101 4213,1100 4213,1081 4212,1080 4212,1072 4213,1071 4213,1068 4214,1067 4214,1056 4213,1055 4213,1037 4212,1036 4212,1018 4213,1017 4213,1016 4212,1015 4212,1012 4211,1011 4211,1009 4210,1008 4210,1007 4209,1006 4209,1005 4208,1004 4207,1004 4206,1003 4205,1003 4204,1002 4198,1002 4197,1001 4152,1001 4151,1002 4143,1002 4142,1001 4101,1001 4100,1002 4099,1002 4098,1001" fill="rgba(235,88,48,0.3)" stroke="rgb(235,88,48)" stroke-width="2" data-block-id="0010" data-name="b-0013" /><text x="3840" y="1156" text-anchor="middle" dominant-baseline="middle" class="block-label" fill="rgb(235,88,48)" stroke="white" stroke-width="3" paint-order="stroke">b-0013</text><polygon points="2716,528 2715,529 2712,529 2711,530 2679,530 2678,529 2668,529 2667,530 2663,530 2662,531 2654,531 2653,530 2641,530 2640,531 2634,531 2633,530 2620,530 2619,531 2615,531 2614,532 2609,532 2608,533 2603,533 2602,534 2600,534 2599,535 2598,535 2594,539 2594,541 2593,542 2593,550 2592,551 2592,559 2591,560 2591,567 2592,568 2592,574 2593,575 2593,579 2592,580 2592,595 2593,596 2593,604 2592,605 2592,613 2593,614 2593,662 2594,663 2594,667 2595,668 2595,738 2596,739 2596,742 2595,743 2595,764 2596,765 2596,791 2595,792 2595,805 2596,806 2596,838 2595,839 2595,854 2596,855 2596,895 2597,896 2597,897 2599,899 2600,899 2601,900 2603,900 2604,901 2606,901 2607,902 2612,902 2613,903 2618,903 2619,902 2674,902 2675,901 2704,901 2705,902 2717,902 2718,901 2731,901 2732,900 2740,900 2741,899 2800,899 2801,898 2824,898 2825,897 2835,897 2836,896 2864,896 2865,895 2888,895 2889,896 2893,896 2894,897 2928,897 2929,898 2940,898 2941,897 2950,897 2951,898 2960,898 2961,897 2978,897 2979,898 2987,898 2988,897 2995,897 2996,898 3010,898 3011,897 3021,897 3022,898 3038,898 3039,897 3043,897 3044,898 3055,898 3056,897 3071,897 3072,898 3083,898 3084,897 3092,897 3093,898 3106,898 3107,897 3115,897 3116,898 3130,898 3131,897 3246,897 3247,896 3261,896 3262,897 3271,897 3272,896 3319,896 3320,895 3323,895 3324,894 3325,894 3326,893 3326,892 3327,891 3327,890 3328,889 3328,886 3329,885 3329,878 3330,877 3330,841 3329,840 3329,830 3330,829 3330,823 3329,822 3329,803 3328,802 3328,754 3327,753 3327,735 3328,734 3328,701 3327,700 3327,692 3328,691 3328,650 3327,649 3327,642 3328,641 3328,631 3327,630 3327,563 3326,562 3326,542 3325,541 3325,536 3324,535 3324,534 3322,532 3320,532 3319,531 3305,531 3304,530 3301,530 3300,531 3280,531 3279,530 3274,530 3273,531 3262,531 3261,530 3211,530 3210,529 3202,529 3201,530 3190,530 3189,529 3148,529 3147,530 3146,530 3145,529 3070,529 3069,528 3058,528 3057,529 3043,529 3042,528 3041,528 3040,529 2929,529 2928,528 2891,528 2890,529 2886,529 2885,530 2884,530 2883,531 2882,531 2881,532 2879,532 2878,533 2876,533 2875,534 2871,534 2870,533 2867,533 2866,532 2864,532 2863,531 2860,531 2859,532 2855,532 2854,533 2846,533 2845,532 2841,532 2840,531 2836,531 2835,530 2824,530 2823,529 2817,529 2816,528 2813,528 2812,529 2806,529 2805,530 2793,530 2792,529 2788,529 2787,530 2774,530 2773,529 2763,529 2762,530 2754,530 2753,531 2732,531 2731,530 2727,530 2726,529 2722,529 2721,528" fill="rgba(218,58,254,0.3)" stroke="rgb(218,58,254)" stroke-width="2" data-block-id="0011" data-name="b-0014" /><text x="2920" y="691" text-anchor="middle" dominant-baseline="middle" class="block-label" fill="rgb(218,58,254)" stroke="white" stroke-width="3" paint-order="stroke">b-0014</text><polygon points="4093,1473 4092,1474 4078,1474 4077,1475 4060,1475 4059,1474 4047,1474 4046,1475 4044,1475 4043,1476 4042,1476 4040,1478 4039,1478 4038,1479 4036,1479 4035,1478 4033,1478 4032,1477 4030,1477 4029,1476 4019,1476 4018,1475 4014,1475 4013,1476 4008,1476 4007,1477 4005,1477 4004,1478 3999,1478 3998,1479 3986,1479 3985,1480 3969,1480 3968,1479 3957,1479 3956,1478 3943,1478 3942,1479 3940,1479 3939,1480 3935,1480 3934,1481 3923,1481 3922,1480 3901,1480 3900,1481 3893,1481 3892,1480 3886,1480 3885,1479 3874,1479 3873,1478 3844,1478 3843,1479 3833,1479 3832,1480 3820,1480 3819,1479 3796,1479 3795,1480 3773,1480 3772,1479 3745,1479 3744,1478 3741,1478 3740,1479 3735,1479 3734,1480 3727,1480 3726,1479 3724,1479 3723,1478 3719,1478 3718,1477 3712,1477 3711,1478 3688,1478 3687,1479 3654,1479 3653,1480 3643,1480 3642,1481 3627,1481 3626,1480 3594,1480 3593,1481 3590,1481 3589,1482 3585,1482 3584,1481 3583,1481 3582,1480 3579,1480 3578,1479 3570,1479 3569,1480 3564,1480 3563,1481 3545,1481 3544,1482 3531,1482 3530,1481 3517,1481 3516,1480 3498,1480 3497,1481 3488,1481 3487,1480 3484,1480 3483,1479 3476,1479 3475,1480 3470,1480 3469,1481 3468,1481 3465,1484 3465,1487 3464,1488 3464,1489 3465,1490 3465,1498 3466,1499 3466,1505 3465,1506 3465,1511 3466,1512 3466,1552 3465,1553 3465,1561 3466,1562 3466,1567 3467,1568 3467,1571 3466,1572 3466,1577 3465,1578 3465,1586 3466,1587 3466,1600 3465,1601 3465,1606 3464,1607 3464,1623 3465,1624 3465,1648 3464,1649 3464,1654 3465,1655 3465,1660 3466,1661 3466,1672 3465,1673 3465,1680 3466,1681 3466,1685 3467,1686 3467,1705 3468,1706 3468,1717 3467,1718 3467,1721 3466,1722 3466,1733 3467,1734 3467,1735 3466,1736 3466,1742 3465,1743 3465,1752 3466,1753 3466,1755 3467,1756 3467,1758 3468,1759 3468,1764 3467,1765 3467,1781 3468,1782 3468,1793 3469,1794 3469,1803 3470,1804 3470,1810 3469,1811 3469,1827 3470,1828 3470,1831 3471,1832 3471,1833 3472,1833 3474,1835 3475,1835 3476,1836 3477,1836 3478,1837 3480,1837 3481,1838 3492,1838 3493,1839 3499,1839 3500,1840 3513,1840 3514,1839 3515,1840 3522,1840 3523,1841 3530,1841 3531,1840 3535,1840 3536,1839 3541,1839 3542,1840 3545,1840 3546,1841 3549,1841 3550,1842 3554,1842 3555,1841 3559,1841 3560,1840 3569,1840 3570,1841 3577,1841 3578,1840 3583,1840 3584,1839 3597,1839 3598,1838 3603,1838 3604,1837 3620,1837 3621,1838 3622,1838 3623,1837 3629,1837 3630,1836 3639,1836 3640,1837 3647,1837 3648,1838 3649,1838 3650,1837 3666,1837 3667,1836 3674,1836 3675,1837 3687,1837 3688,1836 3698,1836 3699,1837 3708,1837 3709,1838 3723,1838 3724,1837 3737,1837 3738,1838 3747,1838 3748,1837 3758,1837 3759,1838 3766,1838 3767,1837 3770,1837 3771,1836 3773,1836 3774,1835 3819,1835 3820,1834 3845,1834 3846,1835 3850,1835 3851,1834 3902,1834 3903,1833 3928,1833 3929,1832 3934,1832 3935,1833 3943,1833 3944,1834 3952,1834 3953,1833 3954,1833 3955,1834 3960,1834 3961,1835 3985,1835 3986,1836 3991,1836 3992,1835 4002,1835 4003,1834 4012,1834 4013,1833 4046,1833 4047,1834 4058,1834 4059,1833 4077,1833 4078,1834 4106,1834 4107,1833 4121,1833 4122,1834 4126,1834 4127,1835 4131,1835 4132,1836 4136,1836 4137,1835 4147,1835 4148,1834 4162,1834 4163,1833 4177,1833 4178,1832 4205,1832 4206,1831 4217,1831 4218,1830 4219,1830 4220,1829 4220,1828 4221,1827 4221,1826 4222,1825 4222,1824 4223,1823 4223,1822 4224,1821 4224,1813 4225,1812 4225,1801 4224,1800 4224,1790 4225,1789 4225,1782 4224,1781 4224,1758 4223,1757 4223,1693 4224,1692 4224,1687 4223,1686 4223,1676 4222,1675 4222,1624 4221,1623 4221,1609 4222,1608 4222,1600 4221,1599 4221,1583 4220,1582 4220,1533 4219,1532 4219,1525 4218,1524 4218,1517 4219,1516 4219,1507 4218,1506 4218,1495 4217,1494 4217,1486 4216,1485 4216,1484 4215,1483 4215,1482 4213,1480 4213,1479 4210,1476 4209,1476 4208,1475 4206,1475 4205,1474 4174,1474 4173,1475 4160,1475 4159,1474 4138,1474 4137,1475 4128,1475 4127,1474 4117,1474 4116,1475 4108,1475 4107,1474 4101,1474 4100,1473" fill="rgba(169,219,187,0.3)" stroke="rgb(169,219,187)" stroke-width="2" data-block-id="0012" data-name="b-0015" /><text x="3802" y="1657" text-anchor="middle" dominant-baseline="middle" class="block-label" fill="rgb(169,219,187)" stroke="white" stroke-width="3" paint-order="stroke">b-0015</text><polygon points="4210,1942 4209,1943 4150,1943 4149,1944 4142,1944 4141,1943 4112,1943 4111,1944 4080,1944 4079,1945 4061,1945 4060,1946 4052,1946 4051,1947 4031,1947 4030,1946 4020,1946 4019,1945 4013,1945 4012,1946 4002,1946 4001,1947 3988,1947 3987,1948 3982,1948 3981,1949 3976,1949 3975,1950 3946,1950 3945,1949 3942,1949 3941,1948 3939,1948 3938,1947 3935,1947 3934,1946 3929,1946 3928,1947 3923,1947 3922,1948 3877,1948 3876,1949 3871,1949 3870,1948 3867,1948 3866,1947 3851,1947 3850,1948 3845,1948 3844,1947 3835,1947 3834,1948 3830,1948 3829,1949 3827,1949 3826,1950 3823,1950 3822,1949 3819,1949 3818,1948 3813,1948 3812,1947 3811,1947 3810,1948 3802,1948 3801,1949 3766,1949 3765,1948 3726,1948 3725,1947 3714,1947 3713,1948 3700,1948 3699,1947 3660,1947 3659,1948 3595,1948 3594,1949 3591,1949 3590,1950 3584,1950 3583,1949 3580,1949 3579,1948 3571,1948 3570,1949 3567,1949 3566,1950 3560,1950 3559,1949 3554,1949 3553,1948 3549,1948 3548,1949 3535,1949 3534,1948 3526,1948 3525,1947 3508,1947 3507,1948 3478,1948 3477,1949 3475,1949 3474,1950 3473,1950 3470,1953 3470,1954 3467,1957 3467,1958 3463,1962 3463,1965 3464,1966 3464,1968 3465,1969 3465,1972 3466,1973 3466,1977 3465,1978 3465,1990 3466,1991 3466,1995 3467,1996 3467,2000 3466,2001 3466,2005 3465,2006 3465,2012 3466,2013 3466,2016 3467,2017 3467,2019 3468,2020 3468,2023 3467,2024 3467,2028 3466,2029 3466,2039 3467,2040 3467,2051 3466,2052 3466,2060 3467,2061 3467,2064 3468,2065 3468,2074 3467,2075 3467,2080 3466,2081 3466,2082 3467,2083 3467,2089 3468,2090 3468,2092 3467,2093 3467,2095 3466,2096 3466,2097 3465,2098 3465,2100 3464,2101 3464,2159 3465,2160 3465,2165 3464,2166 3464,2167 3463,2168 3463,2170 3462,2171 3462,2174 3461,2175 3461,2185 3462,2186 3462,2201 3463,2202 3463,2226 3464,2227 3464,2230 3465,2231 3465,2233 3466,2234 3466,2245 3465,2246 3466,2247 3466,2257 3467,2258 3467,2278 3466,2279 3466,2292 3465,2293 3465,2294 3466,2295 3466,2298 3467,2299 3467,2300 3471,2304 3473,2304 3474,2305 3478,2305 3479,2306 3491,2306 3492,2307 3549,2307 3550,2306 3560,2306 3561,2305 3564,2305 3565,2306 3570,2306 3571,2307 3585,2307 3586,2306 3616,2306 3617,2305 3645,2305 3646,2306 3665,2306 3666,2305 3677,2305 3678,2304 3688,2304 3689,2305 3697,2305 3698,2304 3725,2304 3726,2305 3737,2305 3738,2304 3766,2304 3767,2303 3787,2303 3788,2304 3790,2304 3791,2303 3809,2303 3810,2302 3857,2302 3858,2303 3877,2303 3878,2302 3889,2302 3890,2301 3920,2301 3921,2300 3955,2300 3956,2299 3964,2299 3965,2298 3979,2298 3980,2299 3998,2299 3999,2300 4023,2300 4024,2299 4043,2299 4044,2298 4057,2298 4058,2299 4092,2299 4093,2298 4106,2298 4107,2299 4114,2299 4115,2298 4154,2298 4155,2299 4162,2299 4163,2298 4209,2298 4210,2297 4218,2297 4219,2296 4220,2296 4223,2293 4223,2291 4224,2290 4224,2287 4225,2286 4225,2275 4224,2274 4224,2262 4223,2261 4224,2260 4224,2254 4225,2253 4225,2248 4226,2247 4226,2231 4225,2230 4225,2212 4224,2211 4225,2210 4225,2186 4226,2185 4226,2175 4225,2174 4225,2170 4224,2169 4224,2165 4223,2164 4223,2160 4224,2159 4224,2122 4225,2121 4225,2096 4224,2095 4224,2075 4225,2074 4225,2062 4226,2061 4226,2051 4225,2050 4225,2038 4226,2037 4226,2030 4225,2029 4225,1969 4226,1968 4226,1950 4225,1949 4225,1948 4224,1947 4224,1946 4223,1945 4222,1945 4220,1943 4218,1943 4217,1942" fill="rgba(207,14,189,0.3)" stroke="rgb(207,14,189)" stroke-width="2" data-block-id="0013" data-name="b-0016" /><text x="3792" y="2104" text-anchor="middle" dominant-baseline="middle" class="block-label" fill="rgb(207,14,189)" stroke="white" stroke-width="3" paint-order="stroke">b-0016</text><polygon points="4130,528 4129,529 4116,529 4115,530 4109,530 4108,531 4104,531 4103,532 4094,532 4093,533 4083,533 4082,534 4065,534 4064,533 4063,533 4062,534 4006,534 4005,535 3983,535 3982,536 3979,536 3978,535 3942,535 3941,534 3935,534 3934,533 3878,533 3877,532 3858,532 3857,533 3840,533 3839,534 3750,534 3749,533 3714,533 3713,534 3676,534 3675,533 3655,533 3654,534 3639,534 3638,533 3631,533 3630,534 3615,534 3614,535 3609,535 3608,534 3603,534 3602,533 3549,533 3548,532 3519,532 3518,533 3489,533 3488,534 3468,534 3467,535 3465,535 3463,537 3462,537 3461,538 3461,539 3460,540 3460,541 3459,542 3459,579 3460,580 3460,594 3461,595 3461,641 3460,642 3460,651 3461,652 3461,664 3460,665 3460,680 3459,681 3459,690 3460,691 3460,694 3459,695 3459,710 3458,711 3458,761 3457,762 3457,779 3458,780 3458,787 3459,788 3459,804 3458,805 3458,824 3459,825 3459,865 3458,866 3458,872 3459,873 3459,879 3460,880 3460,884 3461,885 3461,887 3466,892 3469,892 3470,893 3525,893 3526,892 3543,892 3544,891 3559,891 3560,890 3567,890 3568,891 3585,891 3586,890 3702,890 3703,889 3713,889 3714,890 3721,890 3722,889 3737,889 3738,890 3749,890 3750,889 3757,889 3758,890 3769,890 3770,889 3787,889 3788,890 3870,890 3871,889 3877,889 3878,890 3885,890 3886,889 4020,889 4021,888 4032,888 4033,889 4044,889 4045,890 4078,890 4079,889 4165,889 4166,888 4203,888 4204,887 4208,887 4209,886 4211,886 4212,885 4213,885 4214,884 4214,883 4215,882 4215,880 4216,879 4216,876 4217,875 4217,847 4216,846 4216,817 4215,816 4215,812 4216,811 4216,802 4217,801 4217,795 4216,794 4216,783 4217,782 4217,778 4216,777 4216,767 4215,766 4215,759 4216,758 4216,755 4215,754 4215,725 4214,724 4214,710 4215,709 4215,702 4214,701 4214,692 4215,691 4215,678 4214,677 4214,671 4213,670 4213,661 4212,660 4212,623 4211,622 4211,592 4212,591 4212,589 4211,588 4211,579 4210,578 4210,551 4209,550 4209,539 4208,538 4208,536 4207,535 4207,534 4206,533 4206,532 4205,532 4204,531 4203,531 4202,530 4199,530 4198,529 4188,529 4187,528 4180,528 4179,529 4164,529 4163,528 4150,528 4149,529 4142,529 4141,528" fill="rgba(189,174,189,0.3)" stroke="rgb(189,174,189)" stroke-width="2" data-block-id="0014" data-name="b-0017" /><text x="3879" y="693" text-anchor="middle" dominant-baseline="middle" class="block-label" fill="rgb(189,174,189)" stroke="white" stroke-width="3" paint-order="stroke">b-0017</text><polygon points="2121,530 2120,531 2120,532 2119,533 2119,535 2118,536 2118,544 2119,545 2119,547 2123,551 2123,552 2124,553 2124,554 2121,557 2121,558 2120,559 2120,561 2119,562 2119,579 2118,580 2118,583 2117,584 2117,593 2118,594 2118,597 2119,598 2119,603 2118,604 2118,607 2117,608 2117,626 2116,627 2116,642 2117,643 2117,646 2118,647 2118,650 2117,651 2117,657 2116,658 2116,663 2117,664 2117,673 2116,674 2116,680 2115,681 2115,691 2116,692 2116,701 2115,702 2115,710 2116,711 2116,736 2115,737 2115,746 2116,747 2116,760 2117,761 2117,787 2118,788 2118,794 2117,795 2117,809 2118,810 2118,822 2117,823 2117,829 2118,830 2118,844 2117,845 2117,854 2118,855 2118,858 2119,859 2119,866 2118,867 2118,882 2119,883 2119,897 2120,898 2120,899 2125,899 2126,898 2127,898 2129,896 2130,896 2131,895 2131,894 2132,893 2133,893 2134,894 2135,894 2138,897 2139,897 2140,898 2141,898 2142,899 2146,899 2147,900 2159,900 2160,899 2172,899 2173,898 2188,898 2189,899 2209,899 2210,898 2222,898 2223,897 2229,897 2230,898 2240,898 2241,899 2244,899 2245,898 2261,898 2262,897 2272,897 2273,896 2278,896 2279,897 2283,897 2284,898 2302,898 2303,897 2309,897 2310,896 2316,896 2317,895 2321,895 2322,894 2327,894 2328,895 2338,895 2339,894 2340,894 2341,893 2342,893 2343,892 2344,892 2346,890 2347,890 2350,887 2350,886 2351,885 2351,884 2352,883 2352,882 2353,881 2353,880 2354,879 2354,877 2355,876 2355,874 2356,873 2356,871 2355,870 2355,854 2356,853 2356,848 2355,847 2355,800 2354,799 2354,785 2355,784 2355,763 2356,762 2356,757 2357,756 2357,752 2356,751 2356,741 2357,740 2357,737 2358,736 2358,735 2359,734 2359,733 2360,732 2360,709 2359,708 2359,697 2358,696 2358,681 2357,680 2357,666 2358,665 2358,662 2359,661 2359,658 2358,657 2358,652 2357,651 2357,645 2358,644 2358,639 2359,638 2359,634 2358,633 2358,629 2357,628 2357,619 2358,618 2358,604 2357,603 2357,599 2358,598 2358,595 2359,594 2359,592 2360,591 2360,583 2359,582 2359,579 2358,578 2358,573 2359,572 2359,560 2358,559 2358,554 2357,553 2357,550 2356,549 2356,547 2355,546 2355,545 2354,544 2354,543 2353,542 2353,541 2351,539 2351,538 2349,536 2348,536 2347,535 2344,535 2343,534 2314,534 2313,533 2307,533 2306,532 2281,532 2280,533 2273,533 2272,532 2227,532 2226,531 2165,531 2164,530 2146,530 2145,531 2141,531 2140,532 2138,532 2134,536 2132,536 2127,531 2126,531 2125,530" fill="rgba(50,107,54,0.3)" stroke="rgb(50,107,54)" stroke-width="2" data-block-id="0015" data-name="b-0018" /><text x="2239" y="722" text-anchor="middle" dominant-baseline="middle" class="block-label" fill="rgb(50,107,54)" stroke="white" stroke-width="3" paint-order="stroke">b-0018</text><polygon points="1671,527 1670,528 1631,528 1630,529 1629,529 1628,530 1627,530 1624,533 1624,535 1623,536 1623,538 1622,539 1622,560 1621,561 1621,595 1622,596 1622,604 1621,605 1621,615 1622,616 1622,624 1623,625 1622,626 1622,632 1621,633 1621,639 1622,640 1622,664 1623,665 1623,705 1622,706 1622,728 1621,729 1621,733 1622,734 1622,782 1621,783 1621,799 1620,800 1620,806 1621,807 1621,855 1622,856 1622,860 1623,861 1623,867 1622,868 1622,879 1623,880 1623,886 1624,887 1624,889 1625,890 1626,890 1628,892 1629,892 1630,893 1632,893 1633,894 1651,894 1652,895 1662,895 1663,896 1690,896 1691,895 1699,895 1700,896 1715,896 1716,897 1736,897 1737,896 1787,896 1788,895 1791,895 1792,896 1811,896 1812,897 1830,897 1831,896 1843,896 1844,897 1909,897 1910,898 1923,898 1924,897 1944,897 1945,898 2006,898 2007,897 2009,897 2010,896 2011,896 2014,893 2014,892 2015,891 2015,890 2016,889 2016,887 2017,886 2017,863 2018,862 2018,838 2019,837 2019,815 2018,814 2018,763 2019,762 2019,739 2020,738 2020,734 2021,733 2021,728 2020,727 2020,723 2019,722 2019,715 2020,714 2020,710 2021,709 2021,706 2020,705 2020,703 2019,702 2019,698 2018,697 2018,693 2019,692 2019,678 2018,677 2018,645 2019,644 2019,630 2018,629 2018,606 2017,605 2017,596 2018,595 2018,584 2017,583 2017,560 2016,559 2016,540 2015,539 2015,538 2014,537 2014,536 2013,535 2012,535 2010,533 2009,533 2006,530 1998,530 1997,531 1983,531 1982,530 1976,530 1975,531 1960,531 1959,530 1953,530 1952,531 1946,531 1945,532 1941,532 1940,531 1931,531 1930,530 1929,531 1916,531 1915,530 1902,530 1901,531 1891,531 1890,530 1864,530 1863,529 1859,529 1858,530 1824,530 1823,529 1786,529 1785,528 1753,528 1752,527 1697,527 1696,528 1692,528 1691,527" fill="rgba(50,107,54,0.3)" stroke="rgb(50,107,54)" stroke-width="2" data-block-id="0016" data-name="b-0019" /><text x="1832" y="702" text-anchor="middle" dominant-baseline="middle" class="block-label" fill="rgb(50,107,54)" stroke="white" stroke-width="3" paint-order="stroke">b-0019</text><polygon points="2827,1000 2826,1001 2823,1001 2819,1005 2819,1013 2818,1014 2818,1091 2819,1092 2819,1105 2818,1106 2818,1110 2819,1111 2819,1164 2820,1165 2820,1175 2819,1176 2819,1208 2820,1209 2820,1227 2819,1228 2819,1239 2820,1240 2820,1307 2821,1308 2821,1319 2820,1320 2820,1347 2821,1348 2821,1370 2822,1371 2822,1372 2824,1374 2825,1374 2826,1375 2831,1375 2832,1376 2873,1376 2874,1377 2895,1377 2896,1376 2897,1376 2898,1377 2971,1377 2972,1376 3099,1376 3100,1375 3101,1375 3102,1376 3115,1376 3116,1375 3231,1375 3232,1374 3275,1374 3276,1375 3281,1375 3282,1374 3299,1374 3300,1375 3312,1375 3313,1374 3316,1374 3317,1373 3318,1373 3320,1371 3320,1362 3321,1361 3321,1357 3320,1356 3320,1343 3321,1342 3321,1286 3320,1285 3320,1231 3321,1230 3321,1224 3320,1223 3320,1161 3319,1160 3319,1012 3318,1011 3318,1008 3317,1007 3317,1005 3316,1005 3315,1004 3314,1004 3313,1003 3311,1003 3310,1002 3282,1002 3281,1001 3268,1001 3267,1002 3264,1002 3263,1001 2963,1001 2962,1000 2931,1000 2930,1001 2922,1001 2921,1002 2899,1002 2898,1001 2892,1001 2891,1000 2878,1000 2877,1001 2867,1001 2866,1000" fill="rgba(88,59,13,0.3)" stroke="rgb(88,59,13)" stroke-width="2" data-block-id="0017" data-name="b-0024" /><text x="3053" y="1202" text-anchor="middle" dominant-baseline="middle" class="block-label" fill="rgb(88,59,13)" stroke="white" stroke-width="3" paint-order="stroke">b-0024</text><polygon points="1632,1006 1631,1007 1628,1007 1627,1008 1625,1008 1624,1009 1623,1009 1621,1011 1621,1012 1620,1013 1620,1015 1619,1016 1619,1045 1618,1046 1618,1062 1617,1063 1618,1064 1618,1072 1619,1073 1619,1083 1618,1084 1618,1091 1619,1092 1619,1113 1620,1114 1620,1128 1619,1129 1619,1135 1618,1136 1618,1166 1619,1167 1619,1173 1618,1174 1618,1204 1617,1205 1617,1212 1618,1213 1618,1227 1619,1228 1619,1236 1618,1237 1618,1248 1619,1249 1619,1268 1618,1269 1618,1277 1617,1278 1617,1309 1618,1310 1618,1316 1617,1317 1617,1320 1616,1321 1616,1324 1615,1325 1615,1356 1616,1357 1616,1373 1619,1376 1620,1376 1621,1377 1623,1377 1624,1378 1630,1378 1631,1377 1633,1377 1634,1378 1666,1378 1667,1379 1676,1379 1677,1378 1691,1378 1692,1379 1700,1379 1701,1378 1749,1378 1750,1379 1757,1379 1758,1378 1767,1378 1768,1379 1783,1379 1784,1378 1794,1378 1795,1379 1994,1379 1995,1378 2003,1378 2006,1375 2006,1374 2007,1373 2007,1356 2008,1355 2008,1248 2009,1247 2009,1215 2010,1214 2010,1191 2011,1190 2011,1173 2010,1172 2010,1128 2009,1127 2009,1122 2010,1121 2010,1040 2011,1039 2011,1016 2010,1015 2010,1013 2009,1012 2009,1011 2008,1010 2008,1009 2007,1008 2006,1008 2005,1007 1982,1007 1981,1008 1976,1008 1975,1007 1946,1007 1945,1008 1944,1007 1853,1007 1852,1006 1831,1006 1830,1007 1816,1007 1815,1006 1806,1006 1805,1007 1799,1007 1798,1006" fill="rgba(34,205,80,0.3)" stroke="rgb(34,205,80)" stroke-width="2" data-block-id="0018" data-name="b-0030" /><text x="1760" y="1186" text-anchor="middle" dominant-baseline="middle" class="block-label" fill="rgb(34,205,80)" stroke="white" stroke-width="3" paint-order="stroke">b-0030</text><polygon points="1623,2431 1622,2432 1619,2432 1618,2433 1617,2433 1613,2437 1613,2440 1612,2441 1612,2492 1611,2493 1611,2508 1612,2509 1612,2532 1613,2533 1613,2555 1612,2556 1612,2561 1611,2562 1611,2609 1610,2610 1610,2620 1611,2621 1611,2634 1610,2635 1610,2649 1611,2650 1611,2654 1610,2655 1610,2683 1611,2684 1611,2702 1610,2703 1610,2718 1611,2719 1611,2727 1610,2728 1610,2777 1611,2778 1611,2793 1612,2794 1612,2795 1614,2797 1616,2797 1617,2798 1619,2798 1620,2799 1642,2799 1643,2800 1650,2800 1651,2799 1669,2799 1670,2800 1675,2800 1676,2801 1690,2801 1691,2800 1703,2800 1704,2799 1707,2799 1708,2800 1744,2800 1745,2799 1785,2799 1786,2798 1801,2798 1802,2797 1810,2797 1811,2796 1831,2796 1832,2797 1880,2797 1881,2796 1886,2796 1887,2797 1921,2797 1922,2798 1940,2798 1941,2799 1947,2799 1948,2798 1972,2798 1973,2799 1993,2799 1994,2798 1995,2798 1998,2795 1998,2794 1999,2793 1999,2787 2000,2786 2000,2741 2001,2740 2001,2685 2002,2684 2002,2657 2003,2656 2003,2631 2004,2630 2004,2609 2005,2608 2005,2595 2004,2594 2004,2570 2005,2569 2005,2552 2006,2551 2006,2473 2007,2472 2007,2462 2008,2461 2008,2446 2007,2445 2007,2444 2006,2443 2006,2442 2004,2440 2002,2440 2001,2439 1991,2439 1990,2440 1956,2440 1955,2439 1913,2439 1912,2440 1907,2440 1906,2439 1871,2439 1870,2438 1853,2438 1852,2437 1807,2437 1806,2436 1802,2436 1801,2435 1799,2435 1798,2434 1795,2434 1794,2433 1784,2433 1783,2432 1760,2432 1759,2433 1747,2433 1746,2432 1651,2432 1650,2431" fill="rgba(131,1,253,0.3)" stroke="rgb(131,1,253)" stroke-width="2" data-block-id="0019" data-name="b-0032" /><text x="1794" y="2626" text-anchor="middle" dominant-baseline="middle" class="block-label" fill="rgb(131,1,253)" stroke="white" stroke-width="3" paint-order="stroke">b-0032</text><polygon points="1966,1483 1965,1484 1912,1484 1911,1485 1906,1485 1905,1484 1866,1484 1865,1485 1829,1485 1828,1484 1822,1484 1821,1485 1658,1485 1657,1484 1656,1485 1624,1485 1623,1486 1621,1486 1619,1488 1619,1491 1618,1492 1618,1498 1617,1499 1617,1647 1616,1648 1616,1691 1615,1692 1615,1709 1616,1710 1616,1719 1615,1720 1615,1731 1616,1732 1616,1739 1615,1740 1615,1767 1614,1768 1614,1781 1613,1782 1613,1786 1614,1787 1614,1795 1615,1796 1615,1841 1616,1842 1616,1844 1618,1846 1619,1846 1620,1847 1622,1847 1623,1848 1627,1848 1628,1847 1638,1847 1639,1848 1715,1848 1716,1849 1720,1849 1721,1848 1736,1848 1737,1849 1764,1849 1765,1848 1772,1848 1773,1847 1777,1847 1778,1846 1799,1846 1800,1847 1802,1847 1803,1848 1806,1848 1807,1849 1832,1849 1833,1850 1841,1850 1842,1849 1854,1849 1855,1850 1881,1850 1882,1851 1922,1851 1923,1852 1945,1852 1946,1853 1971,1853 1972,1854 2003,1854 2004,1853 2005,1853 2007,1851 2007,1850 2008,1849 2008,1848 2009,1847 2009,1838 2010,1837 2010,1832 2009,1831 2009,1817 2008,1816 2008,1811 2007,1810 2007,1802 2008,1801 2008,1787 2007,1786 2007,1776 2008,1775 2008,1772 2007,1771 2007,1750 2008,1749 2007,1748 2007,1728 2006,1727 2006,1693 2005,1692 2005,1657 2006,1656 2006,1644 2005,1643 2005,1639 2006,1638 2006,1623 2005,1622 2005,1610 2006,1609 2006,1595 2005,1594 2005,1529 2004,1528 2004,1492 2003,1491 2003,1488 2002,1487 2002,1486 2001,1485 2000,1485 1999,1484 1996,1484 1995,1483 1981,1483 1980,1484 1975,1484 1974,1483" fill="rgba(133,53,105,0.3)" stroke="rgb(133,53,105)" stroke-width="2" data-block-id="0020" data-name="b-0033" /><text x="1841" y="1708" text-anchor="middle" dominant-baseline="middle" class="block-label" fill="rgb(133,53,105)" stroke="white" stroke-width="3" paint-order="stroke">b-0033</text><polygon points="1891,1957 1890,1958 1825,1958 1824,1959 1696,1959 1695,1960 1693,1960 1692,1959 1649,1959 1648,1960 1644,1960 1643,1959 1623,1959 1622,1960 1620,1960 1617,1963 1617,1964 1616,1965 1616,1990 1615,1991 1615,2053 1614,2054 1614,2111 1613,2112 1613,2136 1614,2137 1614,2148 1613,2149 1613,2154 1614,2155 1614,2166 1613,2167 1613,2174 1612,2175 1612,2178 1613,2179 1613,2204 1614,2205 1614,2261 1613,2262 1613,2277 1614,2278 1614,2310 1615,2311 1615,2313 1616,2314 1616,2315 1618,2317 1619,2317 1620,2318 1623,2318 1624,2319 1677,2319 1678,2320 1715,2320 1716,2321 1732,2321 1733,2320 1766,2320 1767,2321 1805,2321 1806,2320 1917,2320 1918,2321 1946,2321 1947,2320 1993,2320 1994,2319 1995,2319 1996,2318 1997,2318 1998,2317 1998,2316 1999,2315 1999,2314 2000,2313 2000,2310 2001,2309 2001,2208 2002,2207 2002,2113 2003,2112 2003,1990 2004,1989 2004,1964 2003,1963 2003,1961 2001,1959 2000,1959 1999,1958 1997,1958 1996,1957 1961,1957 1960,1958 1899,1958 1898,1957" fill="rgba(3,53,220,0.3)" stroke="rgb(3,53,220)" stroke-width="2" data-block-id="0021" data-name="b-0034" /><text x="1773" y="2151" text-anchor="middle" dominant-baseline="middle" class="block-label" fill="rgb(3,53,220)" stroke="white" stroke-width="3" paint-order="stroke">b-0034</text><polygon points="3564,2416 3563,2417 3481,2417 3480,2418 3475,2418 3474,2419 3473,2419 3472,2420 3471,2420 3470,2421 3470,2423 3469,2424 3469,2433 3468,2434 3468,2446 3469,2447 3469,2494 3468,2495 3468,2505 3469,2506 3469,2526 3468,2527 3468,2638 3467,2639 3467,2648 3468,2649 3468,2682 3467,2683 3467,2705 3468,2706 3468,2748 3467,2749 3467,2766 3468,2767 3468,2773 3469,2774 3469,2775 3470,2776 3470,2777 3471,2778 3472,2778 3473,2779 3475,2779 3476,2780 3506,2780 3507,2779 3588,2779 3589,2778 3603,2778 3604,2777 3607,2777 3608,2776 3610,2776 3611,2775 3613,2775 3616,2772 3616,2771 3617,2770 3617,2767 3616,2766 3616,2762 3615,2761 3615,2757 3614,2756 3614,2737 3615,2736 3615,2726 3616,2725 3616,2708 3617,2707 3617,2685 3616,2684 3616,2653 3615,2652 3615,2645 3614,2644 3614,2641 3613,2640 3613,2639 3612,2638 3611,2638 3610,2637 3594,2637 3593,2636 3588,2636 3585,2633 3585,2632 3584,2631 3584,2630 3583,2629 3583,2624 3582,2623 3582,2535 3581,2534 3581,2448 3580,2447 3580,2429 3581,2428 3581,2425 3580,2424 3580,2421 3579,2420 3579,2419 3577,2417 3575,2417 3574,2416" fill="rgba(162,32,122,0.3)" stroke="rgb(162,32,122)" stroke-width="2" data-block-id="0022" data-name="b-0052" /><text x="3546" y="2623" text-anchor="middle" dominant-baseline="middle" class="block-label" fill="rgb(162,32,122)" stroke="white" stroke-width="3" paint-order="stroke">b-0052</text><polygon points="3951,2121 3950,2122 3918,2122 3917,2123 3915,2123 3914,2124 3913,2124 3912,2125 3909,2125 3908,2126 3907,2126 3905,2128 3904,2128 3902,2130 3902,2131 3899,2134 3899,2135 3895,2139 3894,2139 3893,2140 3892,2140 3891,2141 3890,2141 3889,2142 3889,2144 3890,2145 3890,2149 3891,2150 3891,2151 3890,2152 3890,2154 3889,2155 3889,2156 3888,2157 3888,2158 3887,2159 3887,2160 3886,2161 3886,2163 3885,2164 3885,2165 3884,2166 3884,2168 3883,2169 3883,2170 3882,2171 3882,2173 3881,2174 3881,2176 3880,2177 3880,2179 3879,2180 3879,2182 3878,2183 3878,2185 3877,2186 3877,2189 3876,2190 3876,2193 3875,2194 3875,2197 3874,2198 3874,2203 3873,2204 3873,2212 3872,2213 3872,2223 3873,2224 3873,2242 3872,2243 3872,2251 3871,2252 3871,2255 3870,2256 3870,2257 3867,2260 3866,2260 3862,2264 3862,2265 3861,2266 3861,2267 3860,2268 3860,2271 3859,2272 3859,2277 3860,2278 3860,2282 3859,2283 3859,2287 3858,2288 3858,2293 3857,2294 3858,2295 3858,2296 3861,2299 3865,2299 3866,2300 3887,2300 3888,2299 3893,2299 3894,2298 3940,2298 3941,2297 3962,2297 3963,2296 3969,2296 3970,2295 3974,2295 3975,2294 3981,2294 3982,2293 3987,2293 3988,2292 3994,2292 3995,2293 3998,2293 3999,2294 4002,2294 4003,2295 4004,2295 4005,2296 4007,2296 4008,2297 4027,2297 4028,2296 4029,2296 4030,2295 4031,2295 4032,2294 4032,2277 4031,2276 4031,2269 4030,2268 4030,2265 4029,2264 4029,2262 4027,2260 4026,2260 4021,2255 4021,2254 4020,2253 4020,2249 4019,2248 4019,2235 4020,2234 4020,2229 4021,2228 4021,2213 4022,2212 4022,2209 4023,2208 4023,2206 4024,2205 4024,2202 4025,2201 4025,2200 4027,2198 4027,2197 4031,2193 4031,2192 4032,2191 4032,2190 4033,2189 4033,2185 4034,2184 4034,2176 4035,2175 4035,2142 4036,2141 4036,2131 4035,2130 4035,2128 4032,2125 4031,2125 4030,2124 4028,2124 4027,2123 3998,2123 3997,2124 3988,2124 3987,2123 3984,2123 3983,2122 3980,2122 3979,2121 3975,2121 3974,2122 3960,2122 3959,2121" fill="rgba(98,171,103,0.3)" stroke="rgb(98,171,103)" stroke-width="2" data-block-id="0023" data-name="b-0059" /><text x="3942" y="2208" text-anchor="middle" dominant-baseline="middle" class="block-label" fill="rgb(98,171,103)" stroke="white" stroke-width="3" paint-order="stroke">b-0059</text><polygon points="3360,2801 3356,2386 2812,2390 2816,2808" fill="rgba(102,179,92,0.3)" stroke="rgb(102,179,92)" stroke-width="2" data-block-id="0024" data-name="b-0027" /><text x="3086" y="2596" text-anchor="middle" dominant-baseline="middle" class="block-label" fill="rgb(102,179,92)" stroke="white" stroke-width="3" paint-order="stroke">b-0027</text></g>
</svg>