<?xml version='1.0' encoding='utf-8'?>
<svg xmlns="http://www.w3.org/2000/svg" xmlns:atlas="http://example.com/atlas" width="4984" height="3304" viewBox="0 0 4984 3304">
  
  <metadata>
    <atlas:source>
      <atlas:jp2-path>/Users/pwright/workspace/atlas/media/v2/p8.jp2</atlas:jp2-path>
      <atlas:volume>unknown</atlas:volume>
      <atlas:plate-id>p8</atlas:plate-id>
      <atlas:image-width>4984</atlas:image-width>
      <atlas:image-height>3304</atlas:image-height>
    </atlas:source>
  </metadata>

  
  <image id="background" href="file:///Users/pwright/workspace/atlas/media/v2/p8.jp2" width="4984" height="3304" opacity="0.5" />

  <style>
    .block-label { font-family: sans-serif; font-size: 14px; font-weight: bold; }
  </style>

  
  <g id="blocks">
    <polygon points="933,226 932,227 922,227 921,228 918,228 917,229 916,229 915,230 914,230 913,231 913,232 911,234 911,236 910,237 910,239 909,240 909,242 908,243 908,250 907,251 907,257 908,258 908,260 909,261 909,264 910,265 910,284 911,285 911,325 910,326 910,329 911,330 911,358 910,359 910,379 911,380 911,385 912,386 912,391 911,392 911,404 912,405 912,415 911,416 911,440 910,441 910,450 911,451 911,508 910,509 910,523 911,524 911,530 912,531 912,551 913,552 913,556 912,557 912,576 913,577 912,578 912,591 918,597 919,597 920,598 922,598 923,599 926,599 927,600 941,600 942,601 966,601 967,602 977,602 978,601 988,601 989,602 1017,602 1018,603 1036,603 1037,604 1050,604 1051,603 1093,603 1094,604 1103,604 1104,605 1106,605 1107,606 1109,606 1110,607 1113,607 1114,608 1119,608 1120,607 1130,607 1131,606 1137,606 1138,605 1141,605 1142,604 1146,604 1147,603 1179,603 1180,604 1189,604 1190,603 1197,603 1198,602 1201,602 1202,603 1230,603 1231,604 1237,604 1238,603 1270,603 1271,604 1360,604 1361,603 1372,603 1373,604 1384,604 1385,603 1399,603 1400,604 1408,604 1409,603 1415,603 1416,604 1421,604 1422,605 1430,605 1431,604 1436,604 1437,603 1443,603 1444,604 1453,604 1454,603 1485,603 1486,602 1502,602 1503,603 1638,603 1639,604 1706,604 1707,605 1760,605 1761,606 1798,606 1799,607 1848,607 1849,608 1857,608 1858,607 1868,607 1869,606 1870,606 1871,607 1944,607 1945,608 1957,608 1958,607 1972,607 1973,608 2073,608 2074,609 2166,609 2167,610 2168,609 2186,609 2187,610 2200,610 2201,611 2234,611 2235,612 2252,612 2253,613 2270,613 2271,614 2278,614 2279,613 2316,613 2317,612 2334,612 2335,613 2367,613 2368,612 2383,612 2384,611 2385,611 2386,610 2387,610 2388,609 2388,608 2389,607 2389,606 2390,605 2390,602 2391,601 2391,590 2392,589 2392,543 2393,542 2393,523 2394,522 2394,517 2393,516 2393,479 2394,478 2394,427 2393,426 2393,406 2394,405 2394,397 2395,396 2395,374 2394,373 2394,344 2395,343 2395,327 2394,326 2394,319 2393,318 2393,309 2394,308 2394,285 2395,284 2395,264 2394,263 2394,258 2393,257 2393,255 2392,254 2392,253 2391,252 2391,251 2389,249 2389,248 2385,244 2384,244 2383,243 2380,243 2379,242 2352,242 2351,241 2333,241 2332,242 2322,242 2321,241 2308,241 2307,240 2201,240 2200,239 2148,239 2147,238 2117,238 2116,237 2110,237 2109,236 2087,236 2086,237 2077,237 2076,238 2068,238 2067,237 2064,237 2063,236 2060,236 2059,235 2055,235 2054,236 2042,236 2041,237 2031,237 2030,238 2019,238 2018,237 1986,237 1985,236 1970,236 1969,235 1963,235 1962,234 1961,234 1960,235 1934,235 1933,236 1898,236 1897,237 1893,237 1892,236 1854,236 1853,235 1768,235 1767,234 1749,234 1748,233 1718,233 1717,232 1592,232 1591,231 1564,231 1563,232 1553,232 1552,231 1503,231 1502,230 1492,230 1491,231 1467,231 1466,232 1458,232 1457,231 1426,231 1425,232 1409,232 1408,231 1404,231 1403,230 1395,230 1394,231 1357,231 1356,230 1343,230 1342,231 1325,231 1324,232 1315,232 1314,231 1263,231 1262,230 1219,230 1218,229 1192,229 1191,228 1182,228 1181,227 1178,227 1177,226 1160,226 1159,227 1154,227 1153,228 1146,228 1145,229 1106,229 1105,228 1101,228 1100,229 1086,229 1085,228 1061,228 1060,227 974,227 973,226 951,226 950,227 944,227 943,226" fill="rgba(151,130,149,0.3)" stroke="rgb(151,130,149)" stroke-width="2" data-block-id="0001" data-name="b-0007" /><text x="1583" y="412" text-anchor="middle" dominant-baseline="middle" class="block-label" fill="rgb(151,130,149)" stroke="white" stroke-width="3" paint-order="stroke">b-0007</text><polygon points="922,713 921,714 919,714 918,715 917,715 916,716 915,716 915,717 913,719 913,722 912,723 912,740 911,741 911,767 912,768 912,770 911,771 911,807 912,808 912,814 913,815 913,823 912,824 912,833 913,834 913,844 912,845 912,874 911,875 911,880 912,881 912,894 911,895 911,907 912,908 912,914 911,915 911,943 910,944 910,968 909,969 909,990 910,991 910,1009 909,1010 909,1029 910,1030 910,1034 909,1035 909,1051 910,1052 910,1057 909,1058 909,1069 910,1070 910,1072 911,1073 911,1075 914,1078 916,1078 917,1079 920,1079 921,1080 928,1080 929,1081 942,1081 943,1082 956,1082 957,1083 976,1083 977,1084 982,1084 983,1085 986,1085 987,1084 995,1084 996,1083 1010,1083 1011,1082 1102,1082 1103,1083 1157,1083 1158,1084 1182,1084 1183,1083 1195,1083 1196,1084 1212,1084 1213,1083 1228,1083 1229,1084 1233,1084 1234,1085 1242,1085 1243,1084 1261,1084 1262,1083 1303,1083 1304,1084 1419,1084 1420,1085 1431,1085 1432,1084 1470,1084 1471,1085 1542,1085 1543,1086 1561,1086 1562,1087 1575,1087 1576,1086 1599,1086 1600,1085 1615,1085 1616,1086 1702,1086 1703,1087 1717,1087 1718,1086 1730,1086 1731,1087 1744,1087 1745,1086 1750,1086 1751,1087 1896,1087 1897,1088 1920,1088 1921,1087 1958,1087 1959,1088 1983,1088 1984,1087 1996,1087 1997,1088 2003,1088 2004,1087 2014,1087 2015,1088 2042,1088 2043,1087 2049,1087 2050,1088 2055,1088 2056,1089 2075,1089 2076,1088 2091,1088 2092,1089 2128,1089 2129,1090 2176,1090 2177,1089 2190,1089 2191,1090 2206,1090 2207,1089 2211,1089 2212,1088 2228,1088 2229,1089 2234,1089 2235,1090 2306,1090 2307,1091 2312,1091 2313,1090 2324,1090 2325,1091 2357,1091 2358,1090 2383,1090 2384,1089 2385,1089 2386,1088 2387,1088 2388,1087 2388,1086 2389,1085 2389,1084 2390,1083 2390,1080 2391,1079 2391,1034 2390,1033 2390,1031 2391,1030 2391,1015 2392,1014 2392,999 2393,998 2393,993 2392,992 2392,979 2393,978 2393,946 2392,945 2392,939 2391,938 2391,934 2392,933 2392,930 2393,929 2393,869 2394,868 2394,845 2393,844 2393,838 2394,837 2394,829 2395,828 2395,827 2394,826 2394,798 2393,797 2393,787 2394,786 2394,764 2395,763 2395,748 2394,747 2394,743 2393,742 2393,739 2392,738 2392,735 2391,734 2391,733 2387,729 2386,729 2385,728 2384,728 2383,727 2381,727 2380,726 2375,726 2374,727 2369,727 2368,726 2364,726 2363,725 2358,725 2357,724 2354,724 2353,725 2342,725 2341,724 2336,724 2335,723 2332,723 2331,724 2326,724 2325,725 2317,725 2316,724 2266,724 2265,725 2235,725 2234,724 2220,724 2219,725 2205,725 2204,724 2175,724 2174,723 2160,723 2159,722 2147,722 2146,723 2141,723 2140,722 2121,722 2120,723 2116,723 2115,722 2099,722 2098,723 2079,723 2078,722 2045,722 2044,721 2036,721 2035,720 2015,720 2014,719 2007,719 2006,720 1967,720 1966,719 1945,719 1944,720 1938,720 1937,719 1880,719 1879,718 1822,718 1821,717 1800,717 1799,718 1795,718 1794,717 1738,717 1737,716 1716,716 1715,715 1710,715 1709,716 1619,716 1618,715 1615,715 1614,716 1579,716 1578,715 1524,715 1523,714 1518,714 1517,715 1477,715 1476,714 1472,714 1471,715 1409,715 1408,714 1396,714 1395,715 1355,715 1354,714 1346,714 1345,715 1321,715 1320,714 1284,714 1283,715 1134,715 1133,716 1126,716 1125,715 1103,715 1102,716 1073,716 1072,715 1002,715 1001,716 981,716 980,715 956,715 955,714 930,714 929,713" fill="rgba(52,1,87,0.3)" stroke="rgb(52,1,87)" stroke-width="2" data-block-id="0002" data-name="b-0008" /><text x="1706" y="897" text-anchor="middle" dominant-baseline="middle" class="block-label" fill="rgb(52,1,87)" stroke="white" stroke-width="3" paint-order="stroke">b-0008</text><polygon points="968,1744 967,1745 960,1745 959,1746 955,1746 954,1745 926,1745 925,1746 922,1746 921,1747 919,1747 918,1748 917,1748 913,1752 913,1770 912,1771 912,1774 913,1775 913,1797 912,1798 912,1807 913,1808 913,1810 912,1811 912,1844 911,1845 911,1853 912,1854 912,1860 911,1861 911,1886 910,1887 910,1968 909,1969 909,1986 908,1987 908,1995 909,1996 909,2006 908,2007 908,2019 909,2020 909,2040 910,2041 910,2060 909,2061 909,2079 908,2080 908,2106 907,2107 907,2108 908,2109 908,2111 909,2112 909,2113 911,2115 912,2115 913,2116 917,2116 918,2117 931,2117 932,2118 989,2118 990,2119 998,2119 999,2120 1022,2120 1023,2119 1045,2119 1046,2118 1054,2118 1055,2117 1085,2117 1086,2116 1096,2116 1097,2115 1119,2115 1120,2114 1206,2114 1207,2115 1215,2115 1216,2114 1231,2114 1232,2115 1237,2115 1238,2114 1253,2114 1254,2115 1283,2115 1284,2116 1285,2115 1299,2115 1300,2116 1313,2116 1314,2115 1355,2115 1356,2114 1434,2114 1435,2115 1481,2115 1482,2114 1563,2114 1564,2115 1574,2115 1575,2114 1603,2114 1604,2115 1626,2115 1627,2114 1630,2114 1631,2115 1914,2115 1915,2116 1943,2116 1944,2115 1963,2115 1964,2116 2060,2116 2061,2117 2083,2117 2084,2118 2110,2118 2111,2117 2150,2117 2151,2116 2195,2116 2196,2117 2212,2117 2213,2118 2253,2118 2254,2117 2275,2117 2276,2118 2289,2118 2290,2117 2294,2117 2295,2116 2296,2116 2297,2115 2298,2115 2299,2114 2308,2114 2309,2113 2331,2113 2332,2114 2333,2114 2334,2115 2335,2115 2336,2116 2337,2116 2338,2117 2340,2117 2341,2118 2354,2118 2355,2117 2383,2117 2384,2116 2385,2116 2386,2115 2387,2115 2390,2112 2390,2110 2391,2109 2391,2101 2392,2100 2392,2088 2391,2087 2391,2086 2392,2085 2392,2071 2391,2070 2391,2031 2390,2030 2390,2009 2391,2008 2391,1970 2390,1969 2390,1964 2391,1963 2391,1953 2392,1952 2392,1936 2391,1935 2391,1923 2392,1922 2392,1906 2391,1905 2391,1868 2390,1867 2390,1843 2391,1842 2391,1832 2390,1831 2390,1825 2389,1824 2389,1820 2390,1819 2390,1795 2389,1794 2389,1790 2388,1789 2388,1785 2387,1784 2387,1777 2386,1776 2386,1771 2385,1770 2385,1767 2384,1766 2384,1763 2383,1762 2383,1760 2382,1759 2382,1758 2381,1757 2381,1756 2379,1754 2378,1754 2377,1753 2375,1753 2374,1752 2369,1752 2368,1751 2364,1751 2363,1750 2340,1750 2339,1749 2312,1749 2311,1750 2310,1749 2291,1749 2290,1748 2279,1748 2278,1749 2251,1749 2250,1748 2242,1748 2241,1747 2227,1747 2226,1748 2221,1748 2220,1749 2218,1749 2217,1750 2215,1750 2214,1751 2208,1751 2207,1750 2192,1750 2191,1751 2180,1751 2179,1752 2173,1752 2172,1751 2147,1751 2146,1750 2138,1750 2137,1751 2099,1751 2098,1750 2090,1750 2089,1751 2062,1751 2061,1752 2059,1752 2058,1751 2055,1751 2054,1750 2050,1750 2049,1749 2015,1749 2014,1750 1954,1750 1953,1749 1950,1749 1949,1750 1931,1750 1930,1749 1895,1749 1894,1750 1886,1750 1885,1749 1874,1749 1873,1750 1861,1750 1860,1749 1854,1749 1853,1750 1815,1750 1814,1749 1801,1749 1800,1750 1791,1750 1790,1749 1721,1749 1720,1748 1716,1748 1715,1747 1704,1747 1703,1748 1699,1748 1698,1747 1656,1747 1655,1748 1651,1748 1650,1747 1642,1747 1641,1746 1637,1746 1636,1747 1627,1747 1626,1746 1608,1746 1607,1747 1601,1747 1600,1746 1588,1746 1587,1747 1579,1747 1578,1746 1560,1746 1559,1747 1555,1747 1554,1746 1527,1746 1526,1745 1515,1745 1514,1746 1505,1746 1504,1745 1492,1745 1491,1746 1480,1746 1479,1745 1467,1745 1466,1746 1457,1746 1456,1745 1442,1745 1441,1746 1436,1746 1435,1745 1417,1745 1416,1746 1406,1746 1405,1745 1402,1745 1401,1746 1372,1746 1371,1747 1346,1747 1345,1748 1289,1748 1288,1747 1277,1747 1276,1748 1263,1748 1262,1747 1254,1747 1253,1748 1242,1748 1241,1747 1227,1747 1226,1748 1221,1748 1220,1747 1197,1747 1196,1746 1183,1746 1182,1747 1169,1747 1168,1746 1122,1746 1121,1745 1095,1745 1094,1746 1076,1746 1075,1745 1051,1745 1050,1746 1029,1746 1028,1745 979,1745 978,1744" fill="rgba(235,157,37,0.3)" stroke="rgb(235,157,37)" stroke-width="2" data-block-id="0003" data-name="b-0009" /><text x="1704" y="1892" text-anchor="middle" dominant-baseline="middle" class="block-label" fill="rgb(235,157,37)" stroke="white" stroke-width="3" paint-order="stroke">b-0009</text><polygon points="970,2228 969,2229 964,2229 963,2230 957,2230 956,2231 946,2231 945,2232 942,2232 941,2233 938,2233 937,2234 933,2234 932,2233 918,2233 917,2234 913,2234 912,2235 911,2235 907,2239 907,2240 906,2241 906,2254 905,2255 905,2276 904,2277 904,2280 903,2281 903,2285 902,2286 902,2294 903,2295 903,2304 902,2305 902,2311 901,2312 901,2339 902,2340 902,2356 901,2357 901,2397 902,2398 902,2405 903,2406 903,2413 904,2414 904,2419 905,2420 905,2424 904,2425 904,2436 905,2437 905,2450 904,2451 904,2511 903,2512 903,2533 904,2534 904,2538 903,2539 903,2587 904,2588 904,2589 905,2590 905,2591 907,2593 907,2594 912,2599 928,2599 929,2600 946,2600 947,2601 964,2601 965,2600 976,2600 977,2601 1020,2601 1021,2600 1022,2600 1023,2601 1033,2601 1034,2600 1052,2600 1053,2601 1059,2601 1060,2600 1110,2600 1111,2599 1121,2599 1122,2600 1141,2600 1142,2601 1197,2601 1198,2602 1290,2602 1291,2603 1314,2603 1315,2602 1346,2602 1347,2603 1356,2603 1357,2602 1361,2602 1362,2601 1379,2601 1380,2602 1394,2602 1395,2603 1403,2603 1404,2602 1409,2602 1410,2601 1435,2601 1436,2600 1446,2600 1447,2601 1498,2601 1499,2600 1505,2600 1506,2599 1591,2599 1592,2598 1593,2599 1597,2599 1598,2600 1602,2600 1603,2601 1612,2601 1613,2602 1633,2602 1634,2601 1641,2601 1642,2600 1647,2600 1648,2599 1714,2599 1715,2600 1742,2600 1743,2599 1792,2599 1793,2600 1828,2600 1829,2599 1836,2599 1837,2598 1848,2598 1849,2597 1859,2597 1860,2598 1885,2598 1886,2599 1912,2599 1913,2600 1956,2600 1957,2601 2011,2601 2012,2600 2024,2600 2025,2599 2030,2599 2031,2598 2055,2598 2056,2599 2064,2599 2065,2600 2077,2600 2078,2599 2143,2599 2144,2598 2168,2598 2169,2597 2204,2597 2205,2596 2209,2596 2210,2595 2212,2595 2213,2594 2216,2594 2217,2595 2220,2595 2221,2596 2223,2596 2224,2597 2233,2597 2234,2596 2264,2596 2265,2597 2283,2597 2284,2596 2302,2596 2303,2595 2312,2595 2313,2596 2331,2596 2332,2595 2336,2595 2337,2596 2351,2596 2352,2595 2374,2595 2375,2594 2381,2594 2382,2593 2383,2593 2388,2588 2388,2587 2389,2586 2389,2562 2388,2561 2388,2556 2387,2555 2387,2547 2388,2546 2388,2520 2387,2519 2387,2504 2388,2503 2388,2495 2389,2494 2389,2490 2388,2489 2388,2483 2387,2482 2387,2477 2388,2476 2388,2470 2389,2469 2389,2465 2388,2464 2388,2437 2387,2436 2387,2412 2386,2411 2386,2405 2387,2404 2387,2394 2386,2393 2386,2386 2385,2385 2385,2383 2386,2382 2386,2365 2385,2364 2385,2338 2386,2337 2386,2335 2387,2334 2387,2332 2388,2331 2388,2328 2389,2327 2389,2321 2388,2320 2388,2316 2387,2315 2387,2309 2388,2308 2388,2303 2389,2302 2389,2299 2388,2298 2388,2293 2387,2292 2387,2285 2388,2284 2388,2272 2387,2271 2387,2267 2386,2266 2386,2262 2387,2261 2387,2254 2388,2253 2388,2249 2387,2248 2387,2238 2386,2237 2386,2235 2385,2234 2385,2233 2383,2231 2382,2231 2381,2230 2374,2230 2373,2229 2367,2229 2366,2230 2362,2230 2361,2231 2352,2231 2351,2230 2318,2230 2317,2231 2314,2231 2313,2232 2302,2232 2301,2231 2289,2231 2288,2230 2270,2230 2269,2231 2267,2231 2266,2232 2265,2232 2264,2233 2256,2233 2255,2232 2253,2232 2252,2231 2248,2231 2247,2230 2230,2230 2229,2231 2227,2231 2218,2240 2218,2241 2217,2242 2219,2244 2219,2245 2220,2246 2220,2248 2221,2249 2221,2258 2220,2259 2220,2261 2219,2262 2219,2266 2223,2270 2223,2271 2225,2273 2225,2274 2226,2275 2226,2282 2223,2285 2216,2285 2213,2282 2213,2281 2212,2280 2212,2277 2211,2276 2211,2275 2212,2274 2212,2269 2213,2268 2213,2267 2214,2266 2214,2263 2213,2262 2213,2260 2212,2259 2212,2248 2213,2247 2213,2245 2214,2244 2214,2239 2211,2236 2211,2235 2207,2231 2206,2231 2205,2230 2192,2230 2191,2231 2188,2231 2187,2230 2174,2230 2173,2231 2168,2231 2167,2232 2158,2232 2157,2231 2156,2231 2155,2232 2147,2232 2146,2233 2134,2233 2133,2234 2126,2234 2125,2233 2104,2233 2103,2234 2062,2234 2061,2233 2060,2233 2059,2234 2053,2234 2052,2235 2036,2235 2035,2234 2014,2234 2013,2233 2012,2234 2004,2234 2003,2235 1993,2235 1992,2234 1959,2234 1958,2235 1951,2235 1950,2236 1949,2235 1934,2235 1933,2234 1912,2234 1911,2235 1889,2235 1888,2234 1865,2234 1864,2235 1860,2235 1859,2236 1848,2236 1847,2235 1834,2235 1833,2234 1815,2234 1814,2235 1794,2235 1793,2234 1762,2234 1761,2235 1747,2235 1746,2234 1719,2234 1718,2235 1696,2235 1695,2234 1668,2234 1667,2235 1654,2235 1653,2234 1644,2234 1643,2233 1626,2233 1625,2234 1616,2234 1615,2235 1599,2235 1598,2234 1575,2234 1574,2235 1557,2235 1556,2236 1530,2236 1529,2235 1516,2235 1515,2236 1505,2236 1504,2235 1478,2235 1477,2236 1449,2236 1448,2235 1437,2235 1436,2236 1432,2236 1431,2237 1410,2237 1409,2236 1360,2236 1359,2235 1289,2235 1288,2236 1280,2236 1279,2237 1243,2237 1242,2236 1226,2236 1225,2237 1220,2237 1219,2236 1169,2236 1168,2235 1151,2235 1150,2236 1145,2236 1144,2237 1122,2237 1121,2236 1101,2236 1100,2235 1073,2235 1072,2234 1042,2234 1041,2235 1039,2235 1038,2236 1036,2236 1035,2237 1034,2237 1033,2238 1024,2238 1023,2237 1010,2237 1009,2236 1007,2236 1006,2235 1003,2235 1002,2234 990,2234 989,2235 984,2235 983,2234 982,2234 981,2233 980,2233 979,2232 978,2232 976,2230 975,2230 974,2229 973,2229 972,2228" fill="rgba(129,191,187,0.3)" stroke="rgb(129,191,187)" stroke-width="2" data-block-id="0004" data-name="b-0010" /><text x="1749" y="2371" text-anchor="middle" dominant-baseline="middle" class="block-label" fill="rgb(129,191,187)" stroke="white" stroke-width="3" paint-order="stroke">b-0010</text><polygon points="968,1188 967,1189 964,1189 963,1190 961,1190 960,1191 959,1191 958,1192 956,1192 955,1193 942,1193 941,1192 930,1192 929,1193 914,1193 913,1194 912,1194 910,1196 910,1197 909,1198 909,1199 908,1200 908,1202 907,1203 907,1208 906,1209 906,1226 907,1227 907,1243 908,1244 908,1249 907,1250 907,1280 908,1281 908,1304 907,1305 907,1315 908,1316 908,1328 907,1329 907,1377 906,1378 906,1394 907,1395 907,1434 908,1435 908,1459 907,1460 907,1471 908,1472 908,1501 907,1502 907,1514 908,1515 908,1545 909,1546 909,1551 910,1552 910,1555 911,1556 911,1558 913,1560 914,1560 915,1561 920,1561 921,1562 937,1562 938,1563 957,1563 958,1564 971,1564 972,1563 980,1563 981,1562 986,1562 987,1563 993,1563 994,1564 1002,1564 1003,1563 1024,1563 1025,1562 1038,1562 1039,1563 1072,1563 1073,1562 1087,1562 1088,1563 1100,1563 1101,1564 1118,1564 1119,1563 1125,1563 1126,1562 1127,1562 1128,1563 1133,1563 1134,1564 1149,1564 1150,1563 1178,1563 1179,1562 1188,1562 1189,1563 1231,1563 1232,1562 1236,1562 1237,1563 1283,1563 1284,1564 1326,1564 1327,1563 1329,1563 1330,1564 1370,1564 1371,1563 1386,1563 1387,1564 1407,1564 1408,1563 1460,1563 1461,1562 1467,1562 1468,1561 1474,1561 1475,1560 1476,1561 1486,1561 1487,1562 1501,1562 1502,1561 1516,1561 1517,1560 1523,1560 1524,1561 1529,1561 1530,1562 1551,1562 1552,1561 1573,1561 1574,1562 1579,1562 1580,1563 1594,1563 1595,1562 1668,1562 1669,1563 1701,1563 1702,1564 1703,1563 1716,1563 1717,1564 1747,1564 1748,1563 1762,1563 1763,1564 1791,1564 1792,1563 1810,1563 1811,1564 1823,1564 1824,1565 1843,1565 1844,1564 1861,1564 1862,1565 1894,1565 1895,1566 1921,1566 1922,1565 1998,1565 1999,1566 2037,1566 2038,1565 2056,1565 2057,1566 2060,1566 2061,1565 2074,1565 2075,1566 2081,1566 2082,1567 2084,1567 2085,1566 2090,1566 2091,1565 2105,1565 2106,1564 2172,1564 2173,1563 2184,1563 2185,1562 2219,1562 2220,1561 2226,1561 2227,1560 2228,1560 2229,1561 2247,1561 2248,1560 2253,1560 2254,1561 2263,1561 2264,1560 2267,1560 2268,1559 2271,1559 2272,1558 2280,1558 2281,1559 2289,1559 2290,1558 2294,1558 2295,1557 2302,1557 2303,1558 2313,1558 2314,1557 2316,1557 2317,1556 2326,1556 2327,1557 2330,1557 2331,1558 2339,1558 2340,1557 2349,1557 2350,1558 2354,1558 2355,1559 2356,1559 2357,1558 2359,1558 2362,1555 2363,1555 2364,1554 2366,1554 2367,1553 2373,1553 2374,1552 2379,1552 2381,1550 2381,1549 2382,1548 2382,1542 2383,1541 2383,1515 2384,1514 2384,1509 2383,1508 2383,1494 2384,1493 2384,1456 2383,1455 2383,1444 2384,1443 2384,1433 2383,1432 2383,1429 2384,1428 2384,1414 2383,1413 2383,1390 2384,1389 2384,1372 2383,1371 2383,1365 2382,1364 2382,1362 2381,1361 2381,1357 2382,1356 2382,1355 2383,1354 2383,1353 2384,1352 2384,1351 2385,1350 2385,1348 2386,1347 2386,1338 2385,1337 2385,1312 2384,1311 2384,1283 2385,1282 2385,1264 2384,1263 2384,1247 2385,1246 2385,1215 2384,1214 2384,1213 2383,1212 2383,1211 2382,1210 2381,1210 2380,1209 2375,1209 2374,1210 2364,1210 2363,1209 2356,1209 2355,1208 2338,1208 2337,1207 2302,1207 2301,1206 2291,1206 2290,1205 2241,1205 2240,1204 2218,1204 2217,1205 2210,1205 2209,1204 2197,1204 2196,1203 2182,1203 2181,1204 2171,1204 2170,1203 2162,1203 2161,1202 2156,1202 2155,1201 2150,1201 2149,1200 2144,1200 2143,1199 2130,1199 2129,1200 2127,1200 2126,1201 2124,1201 2123,1202 2122,1202 2121,1203 2115,1203 2114,1202 2112,1202 2111,1201 2107,1201 2106,1200 2103,1200 2102,1201 2091,1201 2090,1202 2077,1202 2076,1201 2059,1201 2058,1200 2053,1200 2052,1199 2043,1199 2042,1198 2032,1198 2031,1199 2027,1199 2026,1200 2020,1200 2019,1199 1952,1199 1951,1198 1937,1198 1936,1199 1931,1199 1930,1200 1915,1200 1914,1199 1898,1199 1897,1198 1890,1198 1889,1199 1856,1199 1855,1198 1838,1198 1837,1199 1824,1199 1823,1198 1798,1198 1797,1197 1795,1197 1794,1198 1762,1198 1761,1197 1751,1197 1750,1196 1749,1197 1745,1197 1744,1198 1743,1198 1742,1199 1740,1199 1739,1200 1733,1200 1732,1199 1729,1199 1728,1198 1705,1198 1704,1197 1694,1197 1693,1198 1684,1198 1683,1197 1663,1197 1662,1196 1657,1196 1656,1195 1651,1195 1650,1196 1648,1196 1647,1197 1644,1197 1643,1198 1639,1198 1638,1197 1636,1197 1635,1196 1631,1196 1630,1195 1626,1195 1625,1196 1612,1196 1611,1195 1587,1195 1586,1194 1582,1194 1581,1193 1564,1193 1563,1192 1555,1192 1554,1193 1552,1193 1551,1194 1547,1194 1546,1195 1544,1195 1543,1194 1537,1194 1536,1193 1526,1193 1525,1194 1520,1194 1519,1193 1504,1193 1503,1194 1490,1194 1489,1193 1484,1193 1483,1194 1476,1194 1475,1195 1473,1195 1472,1194 1468,1194 1467,1193 1464,1193 1463,1192 1462,1193 1459,1193 1458,1194 1456,1194 1455,1195 1451,1195 1450,1196 1447,1196 1446,1195 1426,1195 1425,1194 1421,1194 1420,1193 1417,1193 1416,1192 1413,1192 1412,1193 1410,1193 1409,1194 1406,1194 1405,1195 1397,1195 1396,1194 1375,1194 1374,1193 1370,1193 1369,1192 1365,1192 1364,1193 1361,1193 1360,1194 1357,1194 1356,1195 1352,1195 1351,1194 1333,1194 1332,1195 1330,1195 1329,1194 1324,1194 1323,1193 1314,1193 1313,1194 1310,1194 1309,1195 1302,1195 1301,1194 1280,1194 1279,1193 1274,1193 1273,1192 1270,1192 1269,1193 1267,1193 1266,1194 1263,1194 1262,1195 1235,1195 1234,1194 1227,1194 1226,1193 1196,1193 1195,1194 1178,1194 1177,1193 1175,1193 1174,1194 1167,1194 1166,1195 1161,1195 1160,1194 1154,1194 1153,1193 1150,1193 1149,1194 1143,1194 1142,1195 1132,1195 1131,1196 1127,1196 1126,1195 1124,1195 1123,1194 1120,1194 1119,1193 1114,1193 1113,1192 1098,1192 1097,1193 1066,1193 1065,1192 1060,1192 1059,1191 1053,1191 1052,1192 1038,1192 1037,1191 1024,1191 1023,1192 1012,1192 1011,1193 1001,1193 1000,1192 985,1192 984,1191 982,1191 981,1190 980,1190 979,1189 977,1189 976,1188" fill="rgba(20,160,203,0.3)" stroke="rgb(20,160,203)" stroke-width="2" data-block-id="0005" data-name="b-0011" /><text x="1644" y="1341" text-anchor="middle" dominant-baseline="middle" class="block-label" fill="rgb(20,160,203)" stroke="white" stroke-width="3" paint-order="stroke">b-0011</text><polygon points="3114,238 3108,244 3108,245 3107,246 3107,247 3105,249 3104,249 3103,250 3100,250 3099,249 3084,249 3083,250 3069,250 3068,251 3016,251 3015,252 2985,252 2984,251 2980,251 2979,250 2974,250 2973,249 2970,249 2969,250 2961,250 2960,251 2955,251 2954,252 2948,252 2947,253 2919,253 2918,254 2909,254 2908,253 2901,253 2900,252 2885,252 2884,251 2879,251 2878,250 2871,250 2870,251 2864,251 2863,250 2857,250 2856,249 2825,249 2824,250 2803,250 2802,251 2751,251 2750,252 2726,252 2725,253 2677,253 2676,254 2666,254 2665,253 2664,253 2663,254 2657,254 2656,255 2652,255 2651,256 2638,256 2637,257 2632,257 2631,258 2627,258 2626,259 2618,259 2617,258 2596,258 2595,259 2591,259 2590,260 2589,260 2588,261 2587,261 2586,262 2585,262 2584,263 2583,263 2579,267 2579,274 2580,275 2580,283 2579,284 2579,288 2578,289 2578,315 2577,316 2577,347 2578,348 2578,354 2577,355 2577,359 2576,360 2576,372 2577,373 2577,405 2576,406 2576,428 2577,429 2577,435 2578,436 2578,437 2579,438 2579,439 2581,441 2584,441 2585,442 2586,442 2587,443 2588,443 2591,446 2591,448 2589,450 2588,450 2587,451 2586,451 2585,452 2583,452 2582,453 2580,453 2576,457 2576,458 2575,459 2575,462 2576,463 2576,466 2577,467 2577,471 2578,472 2578,475 2579,476 2579,479 2580,480 2580,482 2589,482 2591,484 2591,485 2594,488 2594,489 2598,493 2598,496 2597,497 2596,497 2593,500 2593,501 2592,502 2591,502 2589,504 2581,504 2580,505 2580,506 2579,507 2579,509 2580,510 2580,513 2581,514 2581,516 2582,517 2582,519 2581,520 2581,522 2580,523 2580,526 2579,527 2579,538 2580,539 2580,544 2579,545 2579,550 2578,551 2578,585 2579,586 2579,592 2578,593 2578,603 2579,604 2579,605 2580,606 2580,608 2582,610 2582,611 2584,613 2585,613 2586,614 2588,614 2589,615 2591,615 2592,616 2595,616 2596,617 2599,617 2600,618 2615,618 2616,619 2647,619 2648,618 2739,618 2740,617 2743,617 2744,616 2770,616 2771,615 2789,615 2790,614 2799,614 2800,615 2813,615 2814,614 2819,614 2820,615 2832,615 2833,616 2844,616 2845,617 2856,617 2857,616 2871,616 2872,617 2883,617 2884,616 2903,616 2904,615 2909,615 2910,614 2920,614 2921,615 2941,615 2942,616 2954,616 2955,615 2976,615 2977,614 3018,614 3019,615 3073,615 3074,616 3085,616 3086,617 3100,617 3101,616 3169,616 3170,617 3177,617 3178,616 3205,616 3206,617 3215,617 3216,616 3253,616 3254,617 3272,617 3273,618 3288,618 3289,617 3310,617 3311,618 3417,618 3418,619 3432,619 3433,618 3446,618 3447,617 3466,617 3467,618 3484,618 3485,617 3487,617 3488,618 3531,618 3532,619 3540,619 3541,618 3545,618 3546,619 3566,619 3567,620 3588,620 3589,619 3594,619 3595,620 3600,620 3601,621 3605,621 3606,622 3616,622 3617,623 3672,623 3673,624 3683,624 3684,623 3691,623 3692,624 3713,624 3714,625 3732,625 3733,624 3768,624 3769,625 3827,625 3828,624 3833,624 3834,625 3839,625 3840,626 3853,626 3854,627 3884,627 3885,628 3896,628 3897,627 3908,627 3909,626 3947,626 3948,627 3973,627 3974,626 3978,626 3979,627 3994,627 3995,626 4002,626 4003,625 4006,625 4007,624 4010,624 4014,620 4014,619 4015,618 4015,617 4016,616 4016,571 4015,570 4015,552 4016,551 4016,541 4017,540 4017,525 4016,524 4016,503 4017,502 4017,486 4018,485 4018,481 4017,480 4017,465 4018,464 4018,452 4017,451 4017,393 4018,392 4018,381 4017,380 4017,351 4018,350 4017,349 4017,311 4018,310 4018,307 4019,306 4019,276 4018,275 4018,268 4017,267 4017,265 4013,261 4011,261 4010,260 3943,260 3942,261 3904,261 3903,260 3875,260 3874,259 3829,259 3828,260 3814,260 3813,259 3778,259 3777,260 3769,260 3768,259 3755,259 3754,260 3745,260 3744,259 3602,259 3601,258 3587,258 3586,259 3579,259 3578,258 3550,258 3549,257 3540,257 3539,258 3529,258 3528,257 3512,257 3511,258 3510,257 3481,257 3480,256 3457,256 3456,255 3432,255 3431,254 3405,254 3404,253 3400,253 3399,254 3384,254 3383,253 3357,253 3356,252 3352,252 3351,253 3308,253 3307,254 3303,254 3302,255 3299,255 3298,256 3290,256 3289,255 3285,255 3284,254 3277,254 3276,253 3268,253 3267,252 3262,252 3261,251 3255,251 3254,250 3251,250 3250,249 3249,249 3248,248 3247,248 3245,246 3244,246 3243,245 3241,245 3240,244 3239,244 3238,243 3216,243 3215,242 3173,242 3172,241 3169,241 3168,240 3128,240 3127,239 3124,239 3123,238" fill="rgba(57,21,252,0.3)" stroke="rgb(57,21,252)" stroke-width="2" data-block-id="0006" data-name="b-0012" /><text x="3146" y="431" text-anchor="middle" dominant-baseline="middle" class="block-label" fill="rgb(57,21,252)" stroke="white" stroke-width="3" paint-order="stroke">b-0012</text><polygon points="2599,1750 2598,1751 2593,1751 2592,1752 2580,1752 2579,1753 2578,1753 2576,1755 2576,1756 2575,1757 2575,1758 2574,1759 2574,1761 2573,1762 2573,1773 2572,1774 2572,1810 2573,1811 2573,1826 2572,1827 2572,1877 2571,1878 2571,1897 2572,1898 2572,1922 2571,1923 2571,1970 2570,1971 2570,2033 2571,2034 2571,2053 2572,2054 2572,2102 2573,2103 2573,2108 2574,2109 2574,2110 2577,2113 2578,2113 2579,2114 2598,2114 2599,2115 2642,2115 2643,2116 2675,2116 2676,2117 2743,2117 2744,2116 2788,2116 2789,2117 2839,2117 2840,2118 2845,2118 2846,2117 2913,2117 2914,2118 2938,2118 2939,2117 2955,2117 2956,2118 2980,2118 2981,2117 3059,2117 3060,2116 3125,2116 3126,2115 3134,2115 3135,2116 3143,2116 3144,2115 3156,2115 3157,2116 3170,2116 3171,2115 3178,2115 3179,2114 3183,2114 3184,2113 3205,2113 3206,2112 3216,2112 3217,2113 3230,2113 3231,2114 3255,2114 3256,2115 3260,2115 3261,2114 3313,2114 3314,2113 3335,2113 3336,2114 3362,2114 3363,2113 3429,2113 3430,2112 3453,2112 3454,2111 3519,2111 3520,2110 3524,2110 3525,2111 3540,2111 3541,2110 3550,2110 3551,2111 3567,2111 3568,2110 3572,2110 3573,2111 3635,2111 3636,2110 3644,2110 3645,2111 3662,2111 3663,2110 3667,2110 3668,2111 3683,2111 3684,2110 3691,2110 3692,2111 3742,2111 3743,2112 3793,2112 3794,2113 3799,2113 3800,2112 3834,2112 3835,2113 3841,2113 3842,2114 3920,2114 3921,2115 3953,2115 3954,2114 3993,2114 3994,2113 4001,2113 4002,2112 4003,2112 4004,2111 4005,2111 4009,2107 4009,2106 4010,2105 4010,2104 4011,2103 4011,2102 4012,2101 4012,2099 4013,2098 4013,2096 4014,2095 4014,2092 4015,2091 4015,2086 4016,2085 4016,2079 4017,2078 4017,2070 4018,2069 4018,2018 4019,2017 4019,2009 4018,2008 4018,1998 4019,1997 4019,1969 4020,1968 4020,1961 4019,1960 4019,1947 4018,1946 4018,1926 4019,1925 4019,1910 4018,1909 4018,1892 4017,1891 4017,1886 4016,1885 4016,1866 4015,1865 4015,1858 4016,1857 4016,1840 4015,1839 4015,1818 4016,1817 4016,1804 4017,1803 4017,1796 4016,1795 4016,1791 4015,1790 4015,1787 4014,1786 4014,1784 4013,1783 4013,1781 4012,1780 4012,1779 4011,1778 4011,1768 4012,1767 4012,1764 4011,1763 4011,1762 4006,1757 4005,1757 4003,1755 4002,1755 4001,1754 3978,1754 3977,1755 3965,1755 3964,1754 3915,1754 3914,1753 3883,1753 3882,1754 3874,1754 3873,1753 3857,1753 3856,1752 3846,1752 3845,1751 3844,1752 3837,1752 3836,1753 3784,1753 3783,1754 3773,1754 3772,1753 3764,1753 3763,1752 3753,1752 3752,1753 3695,1753 3694,1754 3690,1754 3689,1755 3686,1755 3685,1754 3666,1754 3665,1753 3590,1753 3589,1752 3512,1752 3511,1751 3478,1751 3477,1752 3420,1752 3419,1751 3385,1751 3384,1752 3374,1752 3373,1751 3366,1751 3365,1752 3363,1752 3362,1753 3361,1753 3360,1754 3359,1754 3356,1757 3354,1757 3353,1758 3352,1757 3351,1757 3350,1756 3349,1756 3348,1755 3347,1755 3346,1754 3345,1754 3344,1753 3337,1753 3336,1754 3332,1754 3331,1755 3324,1755 3323,1756 3312,1756 3311,1755 3293,1755 3292,1754 3285,1754 3284,1753 3281,1753 3280,1754 3266,1754 3265,1755 3260,1755 3259,1754 3256,1754 3255,1753 3253,1753 3252,1752 3249,1752 3248,1751 3235,1751 3234,1752 3221,1752 3220,1753 3132,1753 3131,1752 3128,1752 3127,1753 3097,1753 3096,1752 3066,1752 3065,1753 3059,1753 3058,1754 3055,1754 3054,1753 3048,1753 3047,1752 3023,1752 3022,1753 3016,1753 3015,1752 2975,1752 2974,1753 2971,1753 2970,1752 2956,1752 2955,1751 2933,1751 2932,1752 2905,1752 2904,1751 2811,1751 2810,1750 2799,1750 2798,1751 2789,1751 2788,1752 2764,1752 2763,1751 2731,1751 2730,1752 2709,1752 2708,1751 2642,1751 2641,1750" fill="rgba(235,88,48,0.3)" stroke="rgb(235,88,48)" stroke-width="2" data-block-id="0007" data-name="b-0013" /><text x="3392" y="1909" text-anchor="middle" dominant-baseline="middle" class="block-label" fill="rgb(235,88,48)" stroke="white" stroke-width="3" paint-order="stroke">b-0013</text><polygon points="2647,2222 2646,2223 2642,2223 2641,2224 2636,2224 2635,2225 2630,2225 2629,2226 2601,2226 2600,2227 2596,2227 2595,2228 2589,2228 2588,2229 2582,2229 2581,2230 2579,2230 2578,2231 2577,2231 2576,2232 2576,2233 2574,2235 2574,2236 2573,2237 2573,2238 2572,2239 2572,2261 2571,2262 2571,2268 2572,2269 2572,2341 2573,2342 2573,2353 2572,2354 2572,2380 2573,2381 2573,2392 2574,2393 2574,2399 2573,2400 2573,2407 2572,2408 2572,2413 2573,2414 2573,2495 2572,2496 2572,2504 2571,2505 2571,2515 2572,2516 2572,2547 2571,2548 2571,2574 2572,2575 2572,2578 2573,2579 2573,2580 2574,2581 2574,2582 2575,2583 2575,2584 2576,2585 2576,2586 2577,2586 2578,2587 2579,2587 2580,2588 2584,2588 2585,2589 2596,2589 2597,2588 2607,2588 2608,2589 2627,2589 2628,2590 2631,2590 2632,2591 2636,2591 2637,2592 2660,2592 2661,2593 2664,2593 2665,2592 2680,2592 2681,2593 2695,2593 2696,2594 2706,2594 2707,2595 2746,2595 2747,2594 2748,2595 2773,2595 2774,2596 2787,2596 2788,2595 2831,2595 2832,2596 2860,2596 2861,2595 2905,2595 2906,2594 2921,2594 2922,2595 2928,2595 2929,2594 2967,2594 2968,2595 2975,2595 2976,2594 2983,2594 2984,2593 3015,2593 3016,2594 3023,2594 3024,2593 3040,2593 3041,2594 3048,2594 3049,2593 3141,2593 3142,2592 3145,2592 3146,2591 3148,2591 3149,2590 3151,2590 3152,2589 3165,2589 3166,2590 3173,2590 3174,2591 3177,2591 3178,2590 3195,2590 3196,2591 3214,2591 3215,2590 3241,2590 3242,2591 3300,2591 3301,2590 3307,2590 3308,2589 3309,2589 3310,2590 3322,2590 3323,2591 3340,2591 3341,2592 3342,2592 3343,2591 3374,2591 3375,2590 3381,2590 3382,2591 3395,2591 3396,2590 3407,2590 3408,2591 3431,2591 3432,2592 3436,2592 3437,2593 3445,2593 3446,2592 3456,2592 3457,2593 3463,2593 3464,2592 3472,2592 3473,2591 3493,2591 3494,2590 3514,2590 3515,2589 3524,2589 3525,2590 3642,2590 3643,2589 3653,2589 3654,2588 3656,2588 3657,2589 3694,2589 3695,2588 3701,2588 3702,2589 3704,2589 3705,2590 3707,2590 3708,2591 3718,2591 3719,2590 3722,2590 3723,2589 3732,2589 3733,2590 3757,2590 3758,2591 3786,2591 3787,2592 3795,2592 3796,2593 3814,2593 3815,2592 3865,2592 3866,2593 3876,2593 3877,2592 3889,2592 3890,2593 3909,2593 3910,2592 3981,2592 3982,2591 4002,2591 4003,2590 4006,2590 4007,2589 4010,2589 4013,2586 4013,2585 4014,2584 4014,2582 4015,2581 4015,2580 4016,2579 4016,2577 4017,2576 4017,2573 4016,2572 4016,2568 4015,2567 4015,2544 4016,2543 4016,2530 4015,2529 4015,2518 4014,2517 4014,2506 4015,2505 4015,2489 4016,2488 4016,2474 4015,2473 4015,2457 4016,2456 4016,2448 4017,2447 4017,2432 4016,2431 4016,2426 4015,2425 4015,2400 4016,2399 4016,2384 4015,2383 4015,2377 4014,2376 4014,2360 4015,2359 4015,2355 4016,2354 4016,2351 4017,2350 4017,2342 4016,2341 4016,2333 4015,2332 4015,2305 4016,2304 4016,2285 4015,2284 4015,2267 4016,2266 4016,2255 4017,2254 4017,2242 4016,2241 4016,2240 4014,2238 4014,2237 4007,2230 4006,2230 4005,2229 4004,2229 4003,2228 4000,2228 3999,2227 3932,2227 3931,2228 3909,2228 3908,2229 3897,2229 3896,2228 3862,2228 3861,2229 3838,2229 3837,2230 3815,2230 3814,2231 3811,2231 3810,2232 3805,2232 3804,2231 3799,2231 3798,2230 3797,2230 3796,2231 3792,2231 3791,2232 3788,2232 3787,2233 3784,2233 3783,2234 3782,2234 3781,2233 3764,2233 3763,2234 3759,2234 3758,2233 3751,2233 3750,2232 3746,2232 3745,2233 3723,2233 3722,2234 3707,2234 3706,2233 3700,2233 3699,2232 3687,2232 3686,2231 3645,2231 3644,2232 3633,2232 3632,2231 3630,2231 3629,2232 3624,2232 3623,2233 3619,2233 3618,2234 3616,2234 3615,2233 3609,2233 3608,2232 3597,2232 3596,2233 3587,2233 3586,2232 3581,2232 3580,2233 3575,2233 3574,2234 3562,2234 3561,2233 3543,2233 3542,2232 3532,2232 3531,2233 3527,2233 3526,2234 3516,2234 3515,2233 3482,2233 3481,2234 3478,2234 3477,2235 3471,2235 3470,2234 3468,2234 3467,2233 3457,2233 3456,2234 3453,2234 3452,2235 3408,2235 3407,2234 3394,2234 3393,2233 3391,2233 3390,2234 3386,2234 3385,2235 3382,2235 3381,2236 3377,2236 3376,2235 3374,2235 3373,2234 3370,2234 3369,2233 3357,2233 3356,2234 3353,2234 3352,2233 3338,2233 3337,2234 3324,2234 3323,2233 3299,2233 3298,2232 3292,2232 3291,2233 3279,2233 3278,2232 3273,2232 3272,2231 3267,2231 3266,2230 3260,2230 3259,2229 3254,2229 3253,2228 3154,2228 3153,2229 3150,2229 3149,2228 3136,2228 3135,2227 3127,2227 3126,2228 3118,2228 3117,2229 3113,2229 3112,2230 3109,2230 3108,2231 3106,2231 3105,2232 3101,2232 3100,2231 3098,2231 3097,2230 3092,2230 3091,2229 3081,2229 3080,2230 3067,2230 3066,2231 3061,2231 3060,2232 3054,2232 3053,2231 3052,2231 3051,2230 3048,2230 3047,2229 3026,2229 3025,2230 3005,2230 3004,2229 2999,2229 2998,2228 2991,2228 2990,2229 2951,2229 2950,2228 2945,2228 2944,2229 2931,2229 2930,2230 2915,2230 2914,2229 2908,2229 2907,2228 2887,2228 2886,2229 2875,2229 2874,2230 2864,2230 2863,2229 2857,2229 2856,2228 2845,2228 2844,2229 2836,2229 2835,2230 2815,2230 2814,2229 2810,2229 2809,2228 2793,2228 2792,2229 2789,2229 2788,2230 2784,2230 2783,2231 2768,2231 2767,2230 2764,2230 2763,2229 2757,2229 2756,2228 2743,2228 2742,2229 2729,2229 2728,2228 2719,2228 2718,2227 2706,2227 2705,2226 2693,2226 2692,2227 2679,2227 2678,2226 2673,2226 2672,2225 2667,2225 2666,2224 2660,2224 2659,2223 2654,2223 2653,2222" fill="rgba(218,58,254,0.3)" stroke="rgb(218,58,254)" stroke-width="2" data-block-id="0008" data-name="b-0014" /><text x="3287" y="2380" text-anchor="middle" dominant-baseline="middle" class="block-label" fill="rgb(218,58,254)" stroke="white" stroke-width="3" paint-order="stroke">b-0014</text><polygon points="2877,729 2876,730 2873,730 2872,731 2869,731 2868,732 2865,732 2864,733 2863,732 2858,732 2857,731 2845,731 2844,732 2840,732 2839,731 2824,731 2823,732 2809,732 2808,731 2802,731 2801,732 2787,732 2786,731 2779,731 2778,732 2748,732 2747,733 2746,732 2674,732 2673,733 2672,732 2660,732 2659,733 2642,733 2641,734 2631,734 2630,735 2601,735 2600,734 2587,734 2586,735 2582,735 2581,736 2580,736 2578,738 2578,739 2577,740 2577,741 2576,742 2576,787 2575,788 2575,800 2576,801 2576,810 2575,811 2575,869 2574,870 2574,886 2575,887 2575,890 2574,891 2574,909 2575,910 2575,914 2574,915 2574,987 2573,988 2573,998 2574,999 2574,1019 2575,1020 2575,1036 2574,1037 2574,1065 2575,1066 2575,1083 2576,1084 2576,1086 2577,1087 2577,1090 2578,1091 2579,1091 2580,1092 2581,1092 2582,1093 2587,1093 2588,1094 2593,1094 2594,1095 2599,1095 2600,1096 2618,1096 2619,1097 2659,1097 2660,1096 2738,1096 2739,1095 2744,1095 2745,1094 2813,1094 2814,1095 2823,1095 2824,1096 2835,1096 2836,1095 2924,1095 2925,1094 2945,1094 2946,1093 2952,1093 2953,1094 2998,1094 2999,1093 3022,1093 3023,1094 3032,1094 3033,1095 3034,1095 3035,1094 3093,1094 3094,1095 3111,1095 3112,1094 3119,1094 3120,1095 3156,1095 3157,1094 3173,1094 3174,1095 3191,1095 3192,1094 3212,1094 3213,1095 3215,1095 3216,1096 3218,1096 3219,1097 3224,1097 3225,1098 3226,1097 3240,1097 3241,1098 3269,1098 3270,1099 3276,1099 3277,1098 3289,1098 3290,1097 3335,1097 3336,1098 3342,1098 3343,1099 3358,1099 3359,1098 3438,1098 3439,1097 3446,1097 3447,1096 3457,1096 3458,1095 3466,1095 3467,1094 3476,1094 3477,1095 3479,1095 3480,1096 3486,1096 3487,1097 3488,1097 3489,1096 3550,1096 3551,1097 3569,1097 3570,1098 3571,1098 3573,1100 3574,1100 3575,1101 3577,1101 3578,1102 3582,1102 3583,1103 3585,1103 3586,1102 3623,1102 3624,1103 3684,1103 3685,1104 3696,1104 3697,1103 3714,1103 3715,1104 3757,1104 3758,1105 3766,1105 3767,1104 3772,1104 3773,1105 3825,1105 3826,1106 3869,1106 3870,1107 3875,1107 3876,1108 3884,1108 3885,1107 3923,1107 3924,1108 3931,1108 3932,1107 3948,1107 3949,1108 3953,1108 3954,1107 3981,1107 3982,1106 3989,1106 3990,1105 3999,1105 4000,1104 4001,1104 4002,1103 4002,1102 4003,1101 4003,1097 4004,1096 4004,1092 4005,1091 4005,1074 4004,1073 4004,1054 4005,1053 4005,1035 4006,1034 4006,1025 4005,1024 4005,1019 4006,1018 4006,1013 4007,1012 4007,1001 4006,1000 4006,989 4007,988 4007,981 4006,980 4006,967 4007,966 4007,956 4006,955 4006,952 4005,951 4005,950 4004,949 4004,944 4003,943 4003,922 4004,921 4004,918 4005,917 4005,915 4006,914 4006,911 4007,910 4007,872 4008,871 4008,823 4009,822 4009,811 4008,810 4008,799 4009,798 4009,789 4008,788 4008,775 4009,774 4009,767 4008,766 4008,762 4007,761 4007,756 4006,755 4006,750 4005,749 4005,747 4004,746 4004,745 4002,743 4001,743 4000,742 3981,742 3980,741 3966,741 3965,742 3964,742 3963,741 3955,741 3954,740 3943,740 3942,741 3907,741 3906,740 3895,740 3894,741 3893,741 3892,740 3884,740 3883,739 3873,739 3872,740 3813,740 3812,739 3699,739 3698,738 3648,738 3647,737 3605,737 3604,736 3575,736 3574,737 3563,737 3562,736 3550,736 3549,737 3534,737 3533,738 3511,738 3510,737 3505,737 3504,736 3480,736 3479,737 3471,737 3470,736 3465,736 3464,735 3446,735 3445,736 3433,736 3432,735 3414,735 3413,734 3362,734 3361,733 3347,733 3346,734 3341,734 3340,733 3336,733 3335,732 3310,732 3309,731 3299,731 3298,732 3293,732 3292,731 3285,731 3284,730 3280,730 3279,731 3254,731 3253,732 3243,732 3242,731 3226,731 3225,732 3205,732 3204,733 3191,733 3190,732 3186,732 3185,733 3178,733 3177,734 3174,734 3173,733 3168,733 3167,732 3156,732 3155,733 3150,733 3149,732 3131,732 3130,733 3123,733 3122,732 3110,732 3109,731 3087,731 3086,732 3075,732 3074,731 3059,731 3058,732 3054,732 3053,731 3039,731 3038,732 3029,732 3028,731 3010,731 3009,732 2976,732 2975,731 2953,731 2952,730 2944,730 2943,731 2931,731 2930,730 2920,730 2919,731 2909,731 2908,730 2892,730 2891,731 2888,731 2887,730 2880,730 2879,729" fill="rgba(169,219,187,0.3)" stroke="rgb(169,219,187)" stroke-width="2" data-block-id="0009" data-name="b-0015" /><text x="3322" y="901" text-anchor="middle" dominant-baseline="middle" class="block-label" fill="rgb(169,219,187)" stroke="white" stroke-width="3" paint-order="stroke">b-0015</text><polygon points="2635,1207 2634,1208 2614,1208 2613,1209 2588,1209 2587,1210 2581,1210 2580,1211 2579,1211 2578,1212 2577,1212 2577,1213 2576,1214 2576,1215 2575,1216 2575,1220 2574,1221 2574,1226 2573,1227 2573,1231 2572,1232 2572,1355 2571,1356 2571,1357 2572,1358 2572,1372 2573,1373 2573,1402 2572,1403 2572,1428 2573,1429 2573,1559 2574,1560 2574,1561 2575,1562 2575,1563 2576,1564 2577,1564 2578,1565 2579,1565 2580,1566 2592,1566 2593,1567 2603,1567 2604,1568 2620,1568 2621,1569 2644,1569 2645,1568 2674,1568 2675,1569 2678,1569 2679,1568 2693,1568 2694,1569 2731,1569 2732,1568 2741,1568 2742,1567 2751,1567 2752,1568 2761,1568 2762,1567 2881,1567 2882,1568 2886,1568 2887,1569 2894,1569 2895,1570 2922,1570 2923,1569 2930,1569 2931,1570 2954,1570 2955,1571 2990,1571 2991,1570 3002,1570 3003,1571 3048,1571 3049,1572 3053,1572 3054,1573 3057,1573 3058,1572 3061,1572 3062,1571 3065,1571 3066,1570 3073,1570 3074,1571 3094,1571 3095,1572 3100,1572 3101,1573 3131,1573 3132,1572 3153,1572 3154,1571 3191,1571 3192,1572 3196,1572 3197,1573 3202,1573 3203,1572 3221,1572 3222,1573 3247,1573 3248,1572 3267,1572 3268,1573 3280,1573 3281,1572 3302,1572 3303,1571 3309,1571 3310,1572 3323,1572 3324,1571 3337,1571 3338,1572 3348,1572 3349,1571 3386,1571 3387,1572 3392,1572 3393,1571 3403,1571 3404,1570 3421,1570 3422,1569 3429,1569 3430,1570 3435,1570 3436,1571 3444,1571 3445,1570 3451,1570 3452,1571 3455,1571 3456,1572 3458,1572 3459,1573 3470,1573 3471,1572 3476,1572 3477,1573 3482,1573 3483,1574 3490,1574 3491,1573 3522,1573 3523,1574 3540,1574 3541,1573 3550,1573 3551,1572 3559,1572 3560,1571 3575,1571 3576,1572 3586,1572 3587,1571 3596,1571 3597,1572 3598,1572 3599,1573 3602,1573 3603,1574 3626,1574 3627,1575 3655,1575 3656,1574 3661,1574 3662,1573 3671,1573 3672,1574 3687,1574 3688,1573 3692,1573 3693,1572 3695,1572 3696,1571 3698,1571 3699,1570 3734,1570 3735,1569 3736,1570 3740,1570 3741,1571 3743,1571 3744,1572 3746,1572 3747,1573 3781,1573 3782,1572 3788,1572 3789,1571 3792,1571 3793,1570 3796,1570 3797,1569 3799,1569 3800,1568 3803,1568 3804,1567 3806,1567 3807,1566 3814,1566 3815,1567 3834,1567 3835,1566 3855,1566 3856,1567 3865,1567 3866,1568 3879,1568 3880,1569 3881,1569 3884,1572 3885,1572 3887,1574 3889,1574 3890,1575 3917,1575 3918,1574 3935,1574 3936,1573 3944,1573 3945,1572 3964,1572 3965,1571 3969,1571 3970,1570 3992,1570 3993,1569 3998,1569 3999,1568 4001,1568 4002,1567 4004,1567 4005,1566 4007,1566 4008,1565 4009,1565 4010,1564 4011,1564 4012,1563 4013,1563 4014,1562 4015,1562 4016,1561 4017,1561 4017,1560 4018,1559 4018,1553 4017,1552 4017,1544 4018,1543 4018,1537 4019,1536 4019,1534 4020,1533 4020,1532 4021,1531 4021,1527 4022,1526 4022,1524 4021,1523 4021,1521 4015,1515 4015,1514 4014,1513 4014,1511 4013,1510 4013,1505 4012,1504 4012,1501 4011,1500 4011,1498 4010,1497 4010,1496 4009,1495 4009,1493 4008,1492 4008,1486 4009,1485 4009,1484 4012,1481 4012,1480 4014,1478 4014,1475 4011,1472 4011,1471 4010,1470 4010,1469 4009,1468 4009,1467 4008,1466 4008,1461 4007,1460 4007,1455 4006,1454 4006,1452 4007,1451 4007,1446 4008,1445 4008,1438 4007,1437 4007,1436 4006,1435 4006,1433 4005,1432 4005,1430 4004,1429 4004,1428 4005,1427 4005,1425 4006,1424 4006,1421 4007,1420 4007,1416 4008,1415 4008,1391 4009,1390 4009,1389 4010,1388 4010,1387 4011,1386 4011,1385 4014,1382 4015,1382 4016,1381 4017,1381 4018,1380 4019,1380 4020,1379 4021,1379 4021,1378 4022,1377 4022,1376 4023,1375 4023,1374 4024,1373 4024,1369 4025,1368 4025,1367 4024,1366 4024,1348 4025,1347 4025,1335 4024,1334 4024,1328 4023,1327 4023,1325 4022,1324 4022,1322 4021,1321 4021,1318 4020,1317 4020,1316 4019,1315 4019,1314 4018,1313 4018,1312 4017,1311 4017,1309 4018,1308 4018,1307 4021,1304 4021,1301 4022,1300 4022,1293 4021,1292 4021,1287 4020,1286 4020,1285 4018,1283 4018,1282 4017,1281 4017,1280 4016,1279 4016,1278 4015,1277 4015,1276 4014,1275 4014,1274 4013,1273 4013,1271 4012,1270 4012,1269 4011,1268 4011,1267 4010,1266 4010,1265 4008,1263 4008,1260 4010,1258 4010,1257 4011,1256 4011,1255 4012,1254 4012,1252 4013,1251 4013,1247 4012,1246 4012,1244 4011,1243 4011,1241 4010,1240 4010,1238 4009,1237 4009,1227 4008,1226 4008,1225 4005,1222 4004,1222 4003,1221 4002,1221 4001,1220 4000,1220 3999,1219 3985,1219 3984,1218 3981,1218 3980,1217 3978,1217 3977,1216 3972,1216 3971,1217 3964,1217 3963,1218 3962,1218 3961,1217 3948,1217 3947,1216 3935,1216 3934,1215 3909,1215 3908,1214 3888,1214 3887,1215 3884,1215 3883,1216 3866,1216 3865,1215 3862,1215 3861,1214 3840,1214 3839,1213 3836,1213 3835,1212 3826,1212 3825,1213 3819,1213 3818,1214 3805,1214 3804,1213 3801,1213 3800,1212 3788,1212 3787,1213 3781,1213 3780,1214 3777,1214 3776,1215 3763,1215 3762,1214 3744,1214 3743,1213 3738,1213 3737,1212 3733,1212 3732,1213 3723,1213 3722,1212 3718,1212 3717,1211 3712,1211 3711,1210 3710,1211 3702,1211 3701,1210 3696,1210 3695,1209 3673,1209 3672,1210 3667,1210 3666,1211 3663,1211 3662,1210 3657,1210 3656,1209 3648,1209 3647,1210 3639,1210 3638,1211 3625,1211 3624,1210 3597,1210 3596,1211 3588,1211 3587,1210 3550,1210 3549,1211 3521,1211 3520,1210 3519,1211 3499,1211 3498,1210 3470,1210 3469,1209 3432,1209 3431,1210 3408,1210 3407,1209 3395,1209 3394,1210 3361,1210 3360,1209 3350,1209 3349,1210 3336,1210 3335,1209 3322,1209 3321,1210 3317,1210 3316,1209 3299,1209 3298,1210 3293,1210 3292,1209 3288,1209 3287,1208 3277,1208 3276,1209 3268,1209 3267,1210 3259,1210 3258,1211 3256,1211 3255,1210 3245,1210 3244,1211 3235,1211 3234,1212 3222,1212 3221,1211 3215,1211 3214,1210 3191,1210 3190,1211 3185,1211 3184,1210 3171,1210 3170,1211 3114,1211 3113,1210 3099,1210 3098,1211 3077,1211 3076,1210 3071,1210 3070,1209 3047,1209 3046,1210 3043,1210 3042,1209 3035,1209 3034,1208 3031,1208 3030,1209 3024,1209 3023,1210 2996,1210 2995,1211 2986,1211 2985,1210 2977,1210 2976,1209 2948,1209 2947,1210 2931,1210 2930,1209 2921,1209 2920,1208 2910,1208 2909,1209 2903,1209 2902,1210 2869,1210 2868,1209 2866,1209 2865,1210 2849,1210 2848,1211 2836,1211 2835,1212 2830,1212 2829,1211 2827,1211 2825,1209 2823,1209 2822,1208 2820,1208 2819,1207 2813,1207 2812,1208 2763,1208 2762,1207 2752,1207 2751,1208 2740,1208 2739,1207 2717,1207 2716,1208 2693,1208 2692,1207 2681,1207 2680,1208 2671,1208 2670,1207 2654,1207 2653,1208 2644,1208 2643,1207" fill="rgba(207,14,189,0.3)" stroke="rgb(207,14,189)" stroke-width="2" data-block-id="0010" data-name="b-0016" /><text x="3512" y="1386" text-anchor="middle" dominant-baseline="middle" class="block-label" fill="rgb(207,14,189)" stroke="white" stroke-width="3" paint-order="stroke">b-0016</text><polygon points="2196,2710 2195,2711 2189,2711 2188,2712 2168,2712 2167,2711 2130,2711 2129,2712 2096,2712 2095,2713 2073,2713 2072,2712 2044,2712 2043,2713 2030,2713 2029,2712 1982,2712 1981,2713 1922,2713 1921,2712 1910,2712 1909,2713 1859,2713 1858,2714 1841,2714 1840,2715 1829,2715 1828,2714 1824,2714 1823,2713 1811,2713 1810,2714 1747,2714 1746,2713 1723,2713 1722,2712 1709,2712 1708,2713 1610,2713 1609,2714 1573,2714 1572,2713 1567,2713 1566,2714 1544,2714 1543,2713 1513,2713 1512,2714 1508,2714 1507,2713 1501,2713 1500,2712 1494,2712 1493,2713 1469,2713 1468,2714 1463,2714 1462,2715 1459,2715 1458,2714 1410,2714 1409,2713 1378,2713 1377,2714 1371,2714 1370,2715 1363,2715 1362,2714 1357,2714 1356,2713 1349,2713 1348,2714 1336,2714 1335,2713 1328,2713 1327,2714 1321,2714 1320,2715 1317,2715 1316,2714 1312,2714 1311,2713 1232,2713 1231,2714 1228,2714 1227,2715 1220,2715 1219,2714 1214,2714 1213,2713 1181,2713 1180,2714 1086,2714 1085,2715 1075,2715 1074,2714 1052,2714 1051,2715 1033,2715 1032,2714 988,2714 987,2715 980,2715 979,2714 968,2714 967,2715 948,2715 947,2716 929,2716 928,2715 921,2715 920,2716 910,2716 909,2717 906,2717 905,2718 904,2718 902,2720 902,2732 901,2733 901,2736 900,2737 900,2739 899,2740 899,2748 900,2749 900,2765 899,2766 899,2773 900,2774 900,2776 899,2777 899,2781 898,2782 898,2786 897,2787 897,2798 898,2799 898,2804 897,2805 897,2811 896,2812 896,2817 897,2818 897,2834 896,2835 896,2864 897,2865 897,2880 896,2881 896,2891 897,2892 897,2917 898,2918 898,2926 897,2927 897,2952 898,2953 898,2971 897,2972 897,2973 896,2974 896,2976 895,2977 895,2988 896,2989 896,3041 897,3042 897,3046 898,3047 898,3049 899,3050 899,3051 903,3055 904,3055 905,3056 907,3056 908,3057 911,3057 912,3058 929,3058 930,3057 954,3057 955,3056 968,3056 969,3057 974,3057 975,3056 1056,3056 1057,3057 1137,3057 1138,3058 1176,3058 1177,3057 1181,3057 1182,3058 1245,3058 1246,3059 1285,3059 1286,3060 1305,3060 1306,3059 1360,3059 1361,3058 1391,3058 1392,3059 1404,3059 1405,3058 1426,3058 1427,3059 1450,3059 1451,3058 1553,3058 1554,3057 1638,3057 1639,3056 1643,3056 1644,3057 1709,3057 1710,3058 1715,3058 1716,3057 1759,3057 1760,3058 1765,3058 1766,3057 1828,3057 1829,3056 1835,3056 1836,3057 1875,3057 1876,3056 1928,3056 1929,3057 1935,3057 1936,3058 1943,3058 1944,3057 1951,3057 1952,3056 1966,3056 1967,3055 2062,3055 2063,3054 2079,3054 2080,3055 2092,3055 2093,3054 2094,3055 2113,3055 2114,3054 2121,3054 2122,3055 2198,3055 2199,3056 2204,3056 2205,3055 2231,3055 2232,3054 2238,3054 2239,3053 2257,3053 2258,3052 2264,3052 2265,3053 2282,3053 2283,3052 2290,3052 2291,3053 2305,3053 2306,3052 2312,3052 2313,3053 2325,3053 2326,3052 2353,3052 2354,3051 2372,3051 2373,3050 2381,3050 2382,3049 2383,3049 2384,3048 2385,3048 2390,3043 2390,3041 2391,3040 2391,3036 2390,3035 2390,3019 2389,3018 2389,3016 2390,3015 2390,2985 2389,2984 2389,2979 2390,2978 2390,2929 2389,2928 2389,2909 2390,2908 2390,2900 2391,2899 2391,2889 2390,2888 2390,2841 2389,2840 2389,2812 2390,2811 2390,2806 2391,2805 2391,2793 2390,2792 2390,2761 2391,2760 2391,2754 2392,2753 2391,2752 2391,2746 2390,2745 2390,2732 2389,2731 2389,2719 2388,2718 2388,2717 2384,2713 2383,2713 2382,2712 2362,2712 2361,2711 2334,2711 2333,2712 2317,2712 2316,2711 2277,2711 2276,2712 2258,2712 2257,2711 2244,2711 2243,2710" fill="rgba(189,174,189,0.3)" stroke="rgb(189,174,189)" stroke-width="2" data-block-id="0011" data-name="b-0017" /><text x="1617" y="2869" text-anchor="middle" dominant-baseline="middle" class="block-label" fill="rgb(189,174,189)" stroke="white" stroke-width="3" paint-order="stroke">b-0017</text><polygon points="3935,2700 3934,2701 3928,2701 3927,2702 3917,2702 3916,2703 3912,2703 3911,2702 3899,2702 3898,2703 3884,2703 3883,2704 3872,2704 3871,2705 3867,2705 3866,2704 3839,2704 3838,2705 3743,2705 3742,2704 3727,2704 3726,2705 3695,2705 3694,2704 3679,2704 3678,2705 3651,2705 3650,2704 3595,2704 3594,2705 3555,2705 3554,2704 3529,2704 3528,2705 3508,2705 3507,2704 3485,2704 3484,2705 3475,2705 3474,2706 3470,2706 3469,2705 3428,2705 3427,2706 3386,2706 3385,2707 3379,2707 3378,2708 3376,2708 3375,2707 3349,2707 3348,2708 3318,2708 3317,2707 3311,2707 3310,2706 3297,2706 3296,2707 3295,2706 3284,2706 3283,2705 3251,2705 3250,2706 3230,2706 3229,2705 3204,2705 3203,2706 3172,2706 3171,2707 3044,2707 3043,2706 2991,2706 2990,2707 2963,2707 2962,2708 2951,2708 2950,2709 2943,2709 2942,2710 2909,2710 2908,2711 2895,2711 2894,2710 2878,2710 2877,2711 2868,2711 2867,2712 2820,2712 2819,2711 2787,2711 2786,2710 2768,2710 2767,2709 2763,2709 2762,2708 2757,2708 2756,2707 2743,2707 2742,2706 2714,2706 2713,2705 2642,2705 2641,2704 2604,2704 2603,2705 2589,2705 2588,2706 2585,2706 2584,2707 2581,2707 2580,2708 2579,2708 2578,2709 2577,2709 2576,2710 2576,2711 2575,2712 2575,2713 2574,2714 2574,2715 2573,2716 2573,2726 2572,2727 2572,2744 2573,2745 2573,2753 2574,2754 2574,2777 2575,2778 2575,2811 2574,2812 2574,2837 2573,2838 2573,2842 2572,2843 2572,2871 2571,2872 2571,2875 2572,2876 2572,2904 2573,2905 2573,2927 2572,2928 2572,2942 2573,2943 2573,2987 2572,2988 2572,2993 2573,2994 2573,3026 2574,3027 2574,3034 2575,3035 2575,3038 2576,3039 2576,3040 2577,3041 2577,3042 2579,3042 2580,3043 2582,3043 2583,3042 2594,3042 2595,3041 2626,3041 2627,3042 2632,3042 2633,3043 2639,3043 2640,3044 2647,3044 2648,3045 2662,3045 2663,3046 2673,3046 2674,3047 2698,3047 2699,3048 2709,3048 2710,3049 2745,3049 2746,3050 2821,3050 2822,3051 2843,3051 2844,3050 2883,3050 2884,3049 2900,3049 2901,3050 2918,3050 2919,3049 2969,3049 2970,3050 2986,3050 2987,3049 2994,3049 2995,3048 2999,3048 3000,3049 3030,3049 3031,3048 3039,3048 3040,3049 3048,3049 3049,3048 3084,3048 3085,3047 3124,3047 3125,3048 3154,3048 3155,3047 3161,3047 3162,3046 3171,3046 3172,3047 3179,3047 3180,3046 3192,3046 3193,3047 3206,3047 3207,3046 3214,3046 3215,3047 3245,3047 3246,3048 3249,3048 3250,3047 3278,3047 3279,3046 3284,3046 3285,3047 3301,3047 3302,3046 3340,3046 3341,3047 3444,3047 3445,3048 3484,3048 3485,3047 3489,3047 3490,3048 3500,3048 3501,3047 3583,3047 3584,3048 3599,3048 3600,3049 3610,3049 3611,3048 3623,3048 3624,3049 3629,3049 3630,3050 3634,3050 3635,3051 3644,3051 3645,3050 3650,3050 3651,3049 3657,3049 3658,3048 3664,3048 3665,3047 3681,3047 3682,3046 3692,3046 3693,3047 3705,3047 3706,3046 3712,3046 3713,3045 3738,3045 3739,3046 3795,3046 3796,3045 3814,3045 3815,3046 3830,3046 3831,3047 3867,3047 3868,3046 3888,3046 3889,3047 3890,3047 3891,3046 3902,3046 3903,3045 3906,3045 3907,3046 3922,3046 3923,3047 3949,3047 3950,3048 3958,3048 3959,3047 3975,3047 3976,3046 4001,3046 4002,3045 4005,3045 4006,3044 4007,3044 4008,3043 4009,3043 4010,3042 4011,3042 4013,3040 4013,3039 4014,3038 4014,3036 4015,3035 4015,3032 4016,3031 4016,3022 4017,3021 4017,3016 4016,3015 4016,3004 4015,3003 4015,2945 4016,2944 4016,2938 4017,2937 4017,2916 4016,2915 4016,2858 4017,2857 4017,2845 4016,2844 4016,2819 4015,2818 4015,2778 4016,2777 4015,2776 4015,2762 4016,2761 4016,2755 4017,2754 4017,2742 4018,2741 4018,2738 4019,2737 4019,2735 4020,2734 4020,2729 4019,2728 4019,2727 4018,2726 4018,2725 4017,2724 4017,2723 4016,2722 4016,2721 4015,2720 4015,2719 4014,2718 4014,2717 4012,2715 4012,2713 4011,2712 4011,2710 4010,2709 4010,2708 4006,2704 4004,2704 4003,2703 4001,2703 4000,2702 3974,2702 3973,2701 3958,2701 3957,2700" fill="rgba(50,107,54,0.3)" stroke="rgb(50,107,54)" stroke-width="2" data-block-id="0012" data-name="b-0018" /><text x="3342" y="2880" text-anchor="middle" dominant-baseline="middle" class="block-label" fill="rgb(50,107,54)" stroke="white" stroke-width="3" paint-order="stroke">b-0018</text></g>
</svg>