<?xml version='1.0' encoding='utf-8'?>
<svg xmlns="http://www.w3.org/2000/svg" xmlns:atlas="http://example.com/atlas" width="4984" height="3248" viewBox="0 0 4984 3248">
  
  <metadata>
    <atlas:source>
      <atlas:jp2-path>/Users/pwright/workspace/atlas/media/v2/p33.jp2</atlas:jp2-path>
      <atlas:volume>unknown</atlas:volume>
      <atlas:plate-id>p33</atlas:plate-id>
      <atlas:image-width>4984</atlas:image-width>
      <atlas:image-height>3248</atlas:image-height>
    <atlas:angle>0</atlas:angle><atlas:scale>1.3333333333333333</atlas:scale><atlas:pos-x>2879.106545273778</atlas:pos-x><atlas:pos-y>1155.8245104719572</atlas:pos-y></atlas:source>
  </metadata>

  
  <image id="background" href="file:///Users/pwright/workspace/atlas/media/v2/p33.jp2" width="4984" height="3248" opacity="0.5" />

  <style>
    .block-label { font-family: sans-serif; font-size: 14px; font-weight: bold; }
  </style>

  
  <g id="blocks">
    <polygon points="2899,1018 2898,1019 2854,1019 2853,1020 2822,1020 2821,1021 2778,1021 2777,1022 2742,1022 2741,1023 2704,1023 2703,1024 2692,1024 2691,1025 2681,1025 2680,1026 2675,1026 2674,1027 2670,1027 2669,1028 2665,1028 2664,1029 2660,1029 2659,1030 2652,1030 2651,1029 2645,1029 2644,1028 2639,1028 2638,1027 2632,1027 2631,1026 2626,1026 2625,1025 2603,1025 2602,1024 2575,1024 2574,1023 2572,1023 2571,1024 2560,1024 2559,1023 2514,1023 2513,1022 2461,1022 2460,1021 2394,1021 2393,1020 2378,1020 2377,1021 2368,1021 2367,1020 2351,1020 2350,1021 2346,1021 2345,1020 2328,1020 2327,1021 2323,1021 2322,1020 2315,1020 2314,1019 2310,1019 2309,1020 2280,1020 2279,1021 2275,1021 2274,1020 2267,1020 2266,1019 2264,1019 2263,1020 2257,1020 2256,1021 2249,1021 2248,1020 2243,1020 2242,1019 2240,1019 2239,1020 2233,1020 2232,1021 2223,1021 2222,1020 2214,1020 2213,1021 2208,1021 2207,1022 2206,1022 2205,1021 2202,1021 2201,1020 2198,1020 2197,1019 2185,1019 2184,1020 2138,1020 2137,1021 2123,1021 2122,1022 2120,1022 2117,1025 2117,1026 2116,1027 2116,1030 2115,1031 2115,1073 2114,1074 2114,1090 2115,1091 2115,1116 2114,1117 2114,1157 2115,1158 2115,1161 2114,1162 2114,1189 2115,1190 2115,1211 2114,1212 2114,1275 2113,1276 2113,1278 2114,1279 2114,1288 2115,1289 2115,1294 2116,1295 2116,1299 2117,1300 2117,1304 2118,1305 2117,1306 2117,1329 2118,1330 2118,1336 2119,1337 2119,1342 2118,1343 2118,1352 2119,1353 2119,1356 2120,1357 2120,1361 2121,1362 2121,1367 2120,1368 2120,1378 2121,1379 2121,1385 2124,1388 2125,1388 2126,1389 2128,1389 2129,1390 2131,1390 2132,1391 2140,1391 2141,1392 2151,1392 2152,1391 2165,1391 2166,1392 2175,1392 2176,1391 2185,1391 2186,1392 2201,1392 2202,1391 2207,1391 2208,1392 2233,1392 2234,1393 2245,1393 2246,1392 2249,1392 2250,1391 2256,1391 2257,1392 2295,1392 2296,1391 2305,1391 2306,1392 2319,1392 2320,1391 2329,1391 2330,1392 2341,1392 2342,1391 2354,1391 2355,1392 2370,1392 2371,1391 2373,1391 2374,1392 2388,1392 2389,1391 2405,1391 2406,1392 2409,1392 2410,1391 2492,1391 2493,1392 2499,1392 2500,1393 2506,1393 2507,1392 2513,1392 2514,1391 2520,1391 2521,1390 2527,1390 2528,1389 2550,1389 2551,1390 2556,1390 2557,1391 2563,1391 2564,1392 2571,1392 2572,1393 2583,1393 2584,1392 2585,1393 2607,1393 2608,1392 2611,1392 2612,1393 2618,1393 2619,1394 2626,1394 2627,1393 2688,1393 2689,1394 2703,1394 2704,1393 2737,1393 2738,1394 2742,1394 2743,1393 2818,1393 2819,1392 2840,1392 2841,1393 2852,1393 2853,1392 2867,1392 2868,1391 2877,1391 2878,1392 2885,1392 2886,1391 2908,1391 2909,1392 2940,1392 2941,1393 2942,1393 2943,1392 2951,1392 2952,1391 2971,1391 2972,1390 2986,1390 2987,1391 2990,1391 2991,1390 3001,1390 3002,1389 3024,1389 3025,1388 3028,1388 3029,1389 3042,1389 3043,1388 3078,1388 3079,1389 3156,1389 3157,1388 3176,1388 3177,1389 3204,1389 3205,1388 3252,1388 3253,1387 3255,1387 3256,1386 3257,1386 3259,1384 3259,1380 3260,1379 3260,1335 3259,1334 3259,1315 3260,1314 3260,1289 3259,1288 3259,1275 3258,1274 3258,1265 3259,1264 3259,1246 3260,1245 3260,1242 3259,1241 3259,1200 3258,1199 3258,1180 3257,1179 3257,1169 3258,1168 3258,1141 3257,1140 3257,1100 3256,1099 3256,1073 3257,1072 3257,1065 3258,1064 3258,1047 3257,1046 3257,1038 3256,1037 3256,1030 3255,1029 3255,1026 3254,1025 3254,1024 3252,1022 3251,1022 3250,1021 3246,1021 3245,1020 3137,1020 3136,1019 3023,1019 3022,1020 2993,1020 2992,1019 2951,1019 2950,1018" fill="rgba(188,20,102,0.3)" stroke="rgb(188,20,102)" stroke-width="2" data-block-id="0001" data-name="b-0004" /><text x="2585" y="1221" text-anchor="middle" dominant-baseline="middle" class="block-label" fill="rgb(188,20,102)" stroke="white" stroke-width="3" paint-order="stroke">b-0004</text><polygon points="3156,1496 3155,1497 3150,1497 3149,1498 3140,1498 3139,1497 3129,1497 3128,1498 3124,1498 3123,1499 3075,1499 3074,1500 3068,1500 3067,1499 3062,1499 3061,1500 3044,1500 3043,1499 3033,1499 3032,1500 3008,1500 3007,1501 2996,1501 2995,1500 2982,1500 2981,1501 2964,1501 2963,1502 2961,1502 2960,1503 2959,1503 2957,1505 2955,1505 2954,1506 2953,1506 2952,1505 2951,1505 2950,1504 2949,1504 2948,1503 2946,1503 2945,1502 2920,1502 2919,1501 2918,1501 2917,1502 2884,1502 2883,1503 2880,1503 2879,1502 2870,1502 2869,1503 2845,1503 2844,1502 2828,1502 2827,1503 2819,1503 2818,1502 2795,1502 2794,1503 2775,1503 2774,1504 2767,1504 2766,1505 2765,1505 2764,1504 2756,1504 2755,1503 2750,1503 2749,1504 2741,1504 2740,1505 2739,1504 2732,1504 2731,1503 2727,1503 2726,1504 2723,1504 2722,1505 2707,1505 2706,1504 2684,1504 2683,1505 2682,1505 2681,1504 2678,1504 2677,1503 2674,1503 2673,1502 2664,1502 2663,1503 2651,1503 2650,1504 2640,1504 2639,1503 2614,1503 2613,1504 2607,1504 2606,1503 2601,1503 2600,1502 2589,1502 2588,1501 2585,1501 2584,1502 2567,1502 2566,1503 2562,1503 2561,1502 2551,1502 2550,1501 2531,1501 2530,1502 2506,1502 2505,1501 2483,1501 2482,1502 2465,1502 2464,1501 2422,1501 2421,1502 2420,1501 2365,1501 2364,1500 2342,1500 2341,1501 2307,1501 2306,1500 2289,1500 2288,1501 2271,1501 2270,1500 2244,1500 2243,1501 2211,1501 2210,1502 2202,1502 2201,1501 2198,1501 2197,1500 2185,1500 2184,1501 2153,1501 2152,1502 2141,1502 2140,1503 2123,1503 2121,1505 2120,1505 2120,1506 2119,1507 2119,1508 2118,1509 2118,1511 2117,1512 2117,1514 2116,1515 2116,1520 2115,1521 2115,1528 2114,1529 2114,1597 2115,1598 2115,1618 2114,1619 2114,1662 2115,1663 2115,1677 2114,1678 2114,1694 2115,1695 2115,1721 2114,1722 2114,1735 2115,1736 2115,1785 2114,1786 2114,1794 2115,1795 2115,1820 2114,1821 2114,1829 2115,1830 2115,1855 2116,1856 2116,1860 2117,1861 2117,1862 2118,1863 2118,1864 2119,1865 2119,1866 2121,1868 2122,1868 2123,1869 2124,1869 2125,1870 2127,1870 2128,1871 2131,1871 2132,1872 2138,1872 2139,1873 2172,1873 2173,1874 2175,1874 2176,1875 2179,1875 2180,1876 2193,1876 2194,1875 2199,1875 2200,1874 2221,1874 2222,1875 2231,1875 2232,1874 2238,1874 2239,1873 2251,1873 2252,1874 2258,1874 2259,1873 2272,1873 2273,1872 2305,1872 2306,1873 2333,1873 2334,1872 2336,1872 2337,1873 2367,1873 2368,1872 2514,1872 2515,1871 2533,1871 2534,1872 2543,1872 2544,1871 2581,1871 2582,1872 2588,1872 2589,1871 2595,1871 2596,1870 2613,1870 2614,1869 2628,1869 2629,1870 2647,1870 2648,1869 2650,1869 2651,1868 2652,1868 2653,1867 2654,1867 2655,1866 2658,1866 2659,1865 2660,1865 2661,1866 2671,1866 2672,1865 2673,1865 2674,1864 2675,1864 2676,1863 2677,1863 2679,1861 2681,1861 2682,1860 2685,1860 2686,1861 2692,1861 2693,1862 2699,1862 2700,1863 2890,1863 2891,1864 2899,1864 2900,1863 2917,1863 2918,1864 2922,1864 2923,1863 2947,1863 2948,1862 2956,1862 2957,1863 2959,1863 2960,1864 2961,1864 2962,1865 2964,1865 2965,1866 2976,1866 2977,1865 3002,1865 3003,1864 3005,1864 3006,1865 3041,1865 3042,1864 3078,1864 3079,1865 3083,1865 3084,1866 3088,1866 3089,1865 3094,1865 3095,1864 3101,1864 3102,1865 3114,1865 3115,1864 3119,1864 3120,1863 3154,1863 3155,1864 3161,1864 3162,1863 3187,1863 3188,1862 3223,1862 3224,1861 3243,1861 3244,1860 3254,1860 3255,1859 3261,1859 3262,1858 3263,1858 3266,1855 3266,1854 3267,1853 3267,1852 3268,1851 3268,1848 3269,1847 3269,1819 3268,1818 3268,1801 3267,1800 3268,1799 3268,1783 3267,1782 3267,1771 3268,1770 3268,1764 3267,1763 3267,1748 3268,1747 3268,1720 3269,1719 3269,1714 3270,1713 3270,1711 3271,1710 3271,1708 3272,1707 3272,1704 3271,1703 3271,1697 3270,1696 3270,1690 3269,1689 3269,1685 3268,1684 3268,1679 3267,1678 3267,1670 3266,1669 3266,1650 3267,1649 3267,1638 3268,1637 3268,1626 3267,1625 3267,1616 3266,1615 3266,1596 3265,1595 3265,1590 3264,1589 3264,1568 3263,1567 3263,1560 3264,1559 3264,1549 3265,1548 3265,1539 3266,1538 3265,1537 3265,1505 3261,1501 3259,1501 3258,1500 3257,1500 3256,1499 3253,1499 3252,1498 3232,1498 3231,1497 3209,1497 3208,1496 3202,1496 3201,1497 3186,1497 3185,1496 3176,1496 3175,1497 3162,1497 3161,1496" fill="rgba(121,210,214,0.3)" stroke="rgb(121,210,214)" stroke-width="2" data-block-id="0002" data-name="b-0005" /><text x="2741" y="1674" text-anchor="middle" dominant-baseline="middle" class="block-label" fill="rgb(121,210,214)" stroke="white" stroke-width="3" paint-order="stroke">b-0005</text><polygon points="3249,1971 3248,1972 3217,1972 3216,1973 3215,1973 3214,1972 3202,1972 3201,1973 3188,1973 3187,1974 3162,1974 3161,1973 3157,1973 3156,1974 3146,1974 3145,1975 3143,1975 3142,1974 3130,1974 3129,1975 3123,1975 3122,1976 3117,1976 3116,1975 3108,1975 3107,1976 3103,1976 3102,1977 3096,1977 3095,1976 3093,1976 3092,1975 3091,1975 3090,1974 3088,1974 3087,1973 3079,1973 3078,1974 3005,1974 3004,1975 2976,1975 2975,1974 2960,1974 2959,1975 2927,1975 2926,1974 2908,1974 2907,1975 2894,1975 2893,1974 2719,1974 2718,1975 2687,1975 2686,1976 2665,1976 2664,1977 2626,1977 2625,1978 2602,1978 2601,1977 2596,1977 2595,1978 2577,1978 2576,1979 2523,1979 2522,1980 2488,1980 2487,1981 2471,1981 2470,1980 2465,1980 2464,1981 2437,1981 2436,1982 2427,1982 2426,1981 2383,1981 2382,1980 2365,1980 2364,1981 2352,1981 2351,1980 2346,1980 2345,1981 2326,1981 2325,1980 2299,1980 2298,1981 2270,1981 2269,1980 2261,1980 2260,1981 2243,1981 2242,1982 2226,1982 2225,1981 2154,1981 2153,1982 2134,1982 2133,1983 2123,1983 2122,1984 2120,1984 2117,1987 2117,1988 2115,1990 2115,1992 2114,1993 2114,1999 2113,2000 2113,2009 2112,2010 2112,2027 2111,2028 2111,2072 2112,2073 2112,2081 2111,2082 2111,2110 2112,2111 2112,2120 2113,2121 2113,2147 2112,2148 2112,2203 2111,2204 2111,2279 2110,2280 2110,2301 2111,2302 2111,2303 2110,2304 2110,2315 2109,2316 2109,2322 2108,2323 2108,2326 2109,2327 2109,2330 2110,2331 2110,2334 2111,2335 2111,2336 2114,2339 2115,2339 2116,2340 2117,2340 2118,2341 2119,2341 2120,2342 2122,2342 2123,2343 2127,2343 2128,2344 2133,2344 2134,2345 2141,2345 2142,2346 2151,2346 2152,2345 2160,2345 2161,2346 2164,2346 2165,2347 2173,2347 2174,2346 2176,2346 2177,2345 2180,2345 2181,2344 2185,2344 2186,2345 2215,2345 2216,2346 2220,2346 2221,2347 2226,2347 2227,2348 2239,2348 2240,2347 2261,2347 2262,2348 2272,2348 2273,2347 2290,2347 2291,2346 2295,2346 2296,2345 2320,2345 2321,2344 2340,2344 2341,2343 2346,2343 2347,2342 2352,2342 2353,2343 2391,2343 2392,2342 2405,2342 2406,2343 2478,2343 2479,2342 2532,2342 2533,2341 2601,2341 2602,2340 2617,2340 2618,2339 2626,2339 2627,2338 2630,2338 2631,2337 2644,2337 2645,2336 2649,2336 2650,2335 2653,2335 2654,2334 2680,2334 2681,2335 2685,2335 2686,2336 2689,2336 2690,2337 2731,2337 2732,2338 2740,2338 2741,2339 2750,2339 2751,2340 2765,2340 2766,2341 2779,2341 2780,2340 2840,2340 2841,2339 2917,2339 2918,2338 2921,2338 2922,2339 2957,2339 2958,2338 2967,2338 2968,2337 2969,2338 3004,2338 3005,2337 3021,2337 3022,2338 3055,2338 3056,2337 3091,2337 3092,2336 3103,2336 3104,2337 3126,2337 3127,2336 3134,2336 3135,2335 3141,2335 3142,2334 3163,2334 3164,2333 3202,2333 3203,2334 3204,2334 3205,2333 3213,2333 3214,2332 3224,2332 3225,2333 3231,2333 3232,2332 3261,2332 3262,2331 3266,2331 3267,2330 3269,2330 3271,2328 3272,2328 3275,2325 3275,2297 3274,2296 3274,2281 3275,2280 3275,2276 3274,2275 3274,2266 3273,2265 3273,2234 3274,2233 3274,2207 3273,2206 3273,2198 3272,2197 3272,2191 3273,2190 3273,2174 3272,2173 3272,2080 3271,2079 3271,1986 3270,1985 3270,1980 3269,1979 3269,1977 3265,1973 3264,1973 3263,1972 3256,1972 3255,1971" fill="rgba(74,202,87,0.3)" stroke="rgb(74,202,87)" stroke-width="2" data-block-id="0003" data-name="b-0006" /><text x="2663" y="2178" text-anchor="middle" dominant-baseline="middle" class="block-label" fill="rgb(74,202,87)" stroke="white" stroke-width="3" paint-order="stroke">b-0006</text><polygon points="2137,535 2136,536 2129,536 2128,537 2125,537 2124,538 2123,538 2120,541 2120,542 2119,543 2119,544 2118,545 2118,548 2117,549 2117,553 2116,554 2116,569 2115,570 2115,631 2114,632 2114,638 2115,639 2115,643 2116,644 2116,655 2115,656 2115,705 2114,706 2114,732 2115,733 2115,749 2114,750 2114,761 2115,762 2115,793 2114,794 2114,809 2115,810 2115,882 2116,883 2116,889 2115,890 2115,899 2117,901 2117,902 2120,905 2121,905 2122,906 2124,906 2125,907 2132,907 2133,908 2211,908 2212,909 2242,909 2243,908 2248,908 2249,907 2260,907 2261,908 2272,908 2273,907 2291,907 2292,908 2396,908 2397,909 2414,909 2415,908 2445,908 2446,909 2476,909 2477,908 2488,908 2489,907 2492,907 2493,908 2511,908 2512,907 2547,907 2548,908 2553,908 2554,907 2578,907 2579,908 2593,908 2594,909 2617,909 2618,910 2623,910 2624,909 2628,909 2629,908 2631,908 2632,907 2646,907 2647,908 2649,908 2650,909 2654,909 2655,910 2667,910 2668,911 2670,911 2672,913 2674,913 2675,914 2676,914 2677,915 2681,915 2682,916 2685,916 2686,915 2731,915 2732,914 2754,914 2755,913 2765,913 2766,912 2767,912 2768,913 2778,913 2779,912 2846,912 2847,911 2859,911 2860,910 2861,910 2862,911 2879,911 2880,910 2913,910 2914,911 2927,911 2928,910 2938,910 2939,911 2945,911 2946,910 3045,910 3046,909 3052,909 3053,910 3075,910 3076,909 3105,909 3106,910 3115,910 3116,909 3154,909 3155,910 3160,910 3161,909 3242,909 3243,908 3246,908 3247,907 3248,907 3253,902 3253,901 3254,900 3254,898 3255,897 3255,882 3254,881 3254,820 3255,819 3255,775 3254,774 3254,750 3253,749 3253,741 3254,740 3254,724 3255,723 3255,718 3254,717 3254,674 3253,673 3253,661 3252,660 3252,641 3253,640 3253,634 3252,633 3252,617 3251,616 3251,594 3252,593 3252,576 3251,575 3251,554 3250,553 3250,551 3249,550 3249,549 3245,545 3243,545 3242,544 3221,544 3220,545 3213,545 3212,544 3207,544 3206,543 3202,543 3201,544 3190,544 3189,543 3186,543 3185,542 3179,542 3178,543 3175,543 3174,544 3147,544 3146,545 3145,544 3069,544 3068,543 3063,543 3062,542 3061,542 3060,543 3053,543 3052,544 3047,544 3046,543 2891,543 2890,544 2856,544 2855,545 2827,545 2826,546 2758,546 2757,547 2732,547 2731,548 2715,548 2714,549 2705,549 2704,550 2693,550 2692,551 2686,551 2685,552 2680,552 2679,553 2675,553 2674,554 2672,554 2671,555 2670,555 2668,557 2665,557 2664,558 2660,558 2659,559 2649,559 2648,558 2639,558 2638,557 2635,557 2634,556 2633,556 2632,555 2631,555 2629,553 2628,553 2627,552 2626,552 2625,551 2623,551 2622,550 2613,550 2612,549 2607,549 2606,548 2604,548 2603,547 2599,547 2598,546 2586,546 2585,545 2579,545 2578,544 2535,544 2534,543 2530,543 2529,542 2521,542 2520,543 2512,543 2511,542 2508,542 2507,541 2494,541 2493,542 2490,542 2489,541 2486,541 2485,540 2482,540 2481,539 2462,539 2461,538 2448,538 2447,539 2440,539 2439,538 2433,538 2432,537 2430,537 2429,538 2422,538 2421,539 2417,539 2416,538 2400,538 2399,539 2392,539 2391,538 2378,538 2377,539 2367,539 2366,538 2352,538 2351,539 2346,539 2345,538 2341,538 2340,537 2330,537 2329,538 2319,538 2318,537 2303,537 2302,538 2301,537 2293,537 2292,536 2285,536 2284,537 2272,537 2271,536 2256,536 2255,537 2250,537 2249,536 2220,536 2219,535" fill="rgba(116,99,103,0.3)" stroke="rgb(116,99,103)" stroke-width="2" data-block-id="0004" data-name="b-0007" /><text x="2657" y="695" text-anchor="middle" dominant-baseline="middle" class="block-label" fill="rgb(116,99,103)" stroke="white" stroke-width="3" paint-order="stroke">b-0007</text><polygon points="847,2456 846,2457 832,2457 831,2458 824,2458 823,2459 820,2459 819,2460 817,2460 816,2461 815,2461 813,2463 813,2464 812,2465 812,2467 811,2468 811,2479 810,2480 810,2525 811,2526 811,2532 810,2533 810,2540 811,2541 811,2548 812,2549 812,2563 811,2564 811,2575 810,2576 810,2594 811,2595 811,2602 810,2603 810,2616 809,2617 809,2641 810,2642 810,2651 809,2652 809,2676 808,2677 808,2687 809,2688 809,2700 808,2701 808,2724 807,2725 807,2737 808,2738 808,2744 807,2745 807,2812 808,2813 808,2824 809,2825 809,2826 812,2829 813,2829 814,2830 835,2830 836,2831 841,2831 842,2830 856,2830 857,2831 871,2831 872,2830 874,2830 875,2831 909,2831 910,2832 918,2832 919,2831 920,2831 921,2832 941,2832 942,2831 953,2831 954,2830 960,2830 961,2831 966,2831 967,2832 976,2832 977,2831 1082,2831 1083,2830 1092,2830 1093,2831 1179,2831 1180,2830 1186,2830 1187,2831 1191,2831 1192,2832 1213,2832 1214,2831 1235,2831 1236,2832 1275,2832 1276,2831 1280,2831 1281,2832 1323,2832 1324,2831 1326,2831 1327,2832 1365,2832 1366,2831 1376,2831 1377,2832 1498,2832 1499,2833 1507,2833 1508,2832 1514,2832 1515,2831 1520,2831 1521,2832 1546,2832 1547,2833 1555,2833 1556,2832 1561,2832 1562,2831 1572,2831 1573,2832 1598,2832 1599,2831 1656,2831 1657,2830 1664,2830 1665,2831 1692,2831 1693,2830 1696,2830 1697,2831 1767,2831 1768,2832 1780,2832 1781,2831 1801,2831 1802,2832 1846,2832 1847,2831 1857,2831 1858,2832 1868,2832 1869,2831 1876,2831 1877,2832 1890,2832 1891,2831 1920,2831 1921,2830 1923,2830 1924,2829 1925,2829 1926,2828 1927,2828 1930,2825 1930,2823 1931,2822 1931,2812 1932,2811 1932,2792 1931,2791 1931,2788 1932,2787 1932,2767 1931,2766 1931,2760 1932,2759 1932,2723 1931,2722 1931,2713 1932,2712 1932,2699 1931,2698 1931,2685 1932,2684 1932,2683 1931,2682 1931,2664 1932,2663 1932,2627 1933,2626 1933,2619 1932,2618 1932,2604 1931,2603 1931,2571 1932,2570 1932,2534 1931,2533 1931,2524 1932,2523 1932,2518 1933,2517 1933,2511 1932,2510 1932,2478 1931,2477 1931,2472 1930,2471 1930,2468 1929,2467 1929,2466 1925,2462 1924,2462 1923,2461 1914,2461 1913,2460 1894,2460 1893,2459 1852,2459 1851,2460 1850,2460 1849,2459 1843,2459 1842,2458 1832,2458 1831,2459 1821,2459 1820,2458 1810,2458 1809,2459 1806,2459 1805,2460 1799,2460 1798,2459 1795,2459 1794,2458 1787,2458 1786,2459 1781,2459 1780,2460 1756,2460 1755,2461 1751,2461 1750,2460 1739,2460 1738,2461 1650,2461 1649,2460 1645,2460 1644,2461 1627,2461 1626,2460 1622,2460 1621,2461 1609,2461 1608,2460 1606,2460 1605,2459 1594,2459 1593,2460 1574,2460 1573,2459 1570,2459 1569,2458 1567,2458 1566,2457 1561,2457 1560,2456 1550,2456 1549,2457 1546,2457 1545,2458 1537,2458 1536,2457 1532,2457 1531,2456 1529,2456 1528,2457 1526,2457 1524,2459 1523,2459 1522,2460 1521,2460 1520,2461 1519,2461 1518,2462 1514,2462 1513,2461 1507,2461 1506,2460 1503,2460 1502,2461 1183,2461 1182,2460 1070,2460 1069,2459 1059,2459 1058,2460 1028,2460 1027,2459 1016,2459 1015,2460 1001,2460 1000,2459 963,2459 962,2460 955,2460 954,2459 952,2459 951,2458 948,2458 947,2457 927,2457 926,2458 913,2458 912,2459 910,2459 909,2458 905,2458 904,2457 896,2457 895,2456 864,2456 863,2457 859,2457 858,2456" fill="rgba(151,130,149,0.3)" stroke="rgb(151,130,149)" stroke-width="2" data-block-id="0005" data-name="b-0008" /><text x="1388" y="2629" text-anchor="middle" dominant-baseline="middle" class="block-label" fill="rgb(151,130,149)" stroke="white" stroke-width="3" paint-order="stroke">b-0008</text><polygon points="871,533 870,534 839,534 838,535 823,535 822,536 819,536 818,537 817,537 814,540 814,541 813,542 813,546 812,547 812,555 811,556 811,584 812,585 812,588 811,589 811,654 810,655 810,670 811,671 811,704 810,705 810,709 811,710 811,719 812,720 812,729 811,730 811,809 812,810 812,898 813,899 813,900 814,901 815,901 816,902 817,902 818,903 822,903 823,904 829,904 830,905 894,905 895,906 942,906 943,905 948,905 949,906 1006,906 1007,905 1024,905 1025,906 1058,906 1059,905 1146,905 1147,906 1153,906 1154,905 1167,905 1168,906 1214,906 1215,907 1224,907 1225,906 1235,906 1236,907 1284,907 1285,908 1297,908 1298,907 1307,907 1308,908 1357,908 1358,907 1377,907 1378,908 1398,908 1399,907 1400,908 1490,908 1491,907 1503,907 1504,908 1582,908 1583,907 1615,907 1616,908 1634,908 1635,907 1669,907 1670,908 1673,908 1674,907 1786,907 1787,908 1790,908 1791,907 1809,907 1810,908 1820,908 1821,907 1833,907 1834,908 1841,908 1842,907 1904,907 1905,906 1920,906 1921,905 1922,905 1923,904 1924,904 1926,902 1926,901 1927,900 1927,898 1928,897 1928,844 1929,843 1929,836 1928,835 1928,817 1929,816 1929,815 1928,814 1928,739 1927,738 1927,726 1928,725 1928,568 1929,567 1929,553 1928,552 1928,545 1927,544 1927,541 1926,540 1926,539 1924,537 1923,537 1922,536 1909,536 1908,535 1883,535 1882,536 1866,536 1865,537 1860,537 1859,536 1852,536 1851,535 1848,535 1847,536 1833,536 1832,537 1809,537 1808,536 1792,536 1791,535 1780,535 1779,536 1761,536 1760,535 1708,535 1707,534 1704,534 1703,535 1665,535 1664,534 1607,534 1606,535 1496,535 1495,534 1486,534 1485,535 1478,535 1477,534 1465,534 1464,535 1450,535 1449,534 1441,534 1440,535 1397,535 1396,534 1369,534 1368,535 1281,535 1280,534 1279,534 1278,535 1270,535 1269,536 1250,536 1249,537 1247,537 1246,538 1245,538 1244,539 1243,539 1242,540 1217,540 1216,539 1215,539 1214,538 1211,538 1210,537 1187,537 1186,536 1179,536 1178,537 1169,537 1168,536 1162,536 1161,535 1120,535 1119,534 1086,534 1085,535 1071,535 1070,534 1056,534 1055,535 1047,535 1046,534 1035,534 1034,535 1025,535 1024,534 1010,534 1009,535 1000,535 999,534 990,534 989,535 986,535 985,536 981,536 980,537 979,536 977,536 976,535 974,535 973,534 966,534 965,535 960,535 959,536 956,536 955,535 950,535 949,534 940,534 939,535 928,535 927,534 914,534 913,535 907,535 906,534 876,534 875,533" fill="rgba(52,1,87,0.3)" stroke="rgb(52,1,87)" stroke-width="2" data-block-id="0006" data-name="b-0009" /><text x="1323" y="679" text-anchor="middle" dominant-baseline="middle" class="block-label" fill="rgb(52,1,87)" stroke="white" stroke-width="3" paint-order="stroke">b-0009</text><polygon points="909,1016 908,1017 903,1017 902,1018 900,1018 899,1019 878,1019 877,1020 859,1020 858,1019 831,1019 830,1020 822,1020 821,1021 819,1021 818,1022 817,1022 814,1025 814,1026 813,1027 813,1029 812,1030 812,1065 813,1066 812,1067 812,1082 811,1083 811,1108 812,1109 812,1115 811,1116 811,1147 810,1148 810,1168 811,1169 811,1172 810,1173 810,1219 809,1220 809,1234 810,1235 810,1339 811,1340 810,1341 810,1351 811,1352 811,1378 812,1379 812,1383 813,1384 813,1385 816,1388 820,1388 821,1389 830,1389 831,1390 872,1390 873,1389 929,1389 930,1388 941,1388 942,1389 954,1389 955,1388 973,1388 974,1389 1017,1389 1018,1388 1085,1388 1086,1389 1106,1389 1107,1388 1118,1388 1119,1389 1128,1389 1129,1388 1140,1388 1141,1389 1173,1389 1174,1390 1214,1390 1215,1391 1239,1391 1240,1390 1256,1390 1257,1391 1285,1391 1286,1390 1297,1390 1298,1389 1390,1389 1391,1388 1408,1388 1409,1389 1466,1389 1467,1390 1478,1390 1479,1391 1489,1391 1490,1390 1494,1390 1495,1391 1573,1391 1574,1392 1585,1392 1586,1391 1587,1391 1588,1392 1609,1392 1610,1391 1614,1391 1615,1392 1651,1392 1652,1391 1667,1391 1668,1392 1676,1392 1677,1391 1689,1391 1690,1392 1700,1392 1701,1391 1855,1391 1856,1392 1869,1392 1870,1391 1904,1391 1905,1392 1910,1392 1911,1391 1920,1391 1921,1390 1922,1390 1923,1389 1924,1389 1924,1388 1926,1386 1926,1384 1927,1383 1927,1380 1928,1379 1928,1322 1927,1321 1927,1298 1928,1297 1928,1288 1927,1287 1927,1234 1926,1233 1926,1230 1927,1229 1927,1113 1926,1112 1926,1095 1927,1094 1927,1070 1926,1069 1926,1059 1927,1058 1927,1028 1926,1027 1926,1026 1925,1025 1925,1024 1923,1022 1922,1022 1921,1021 1913,1021 1912,1020 1841,1020 1840,1021 1811,1021 1810,1020 1698,1020 1697,1019 1691,1019 1690,1020 1669,1020 1668,1019 1618,1019 1617,1020 1566,1020 1565,1019 1450,1019 1449,1020 1404,1020 1403,1019 1395,1019 1394,1020 1278,1020 1277,1019 1270,1019 1269,1020 1268,1019 1223,1019 1222,1020 1216,1020 1215,1019 1182,1019 1181,1020 1167,1020 1166,1019 958,1019 957,1018 918,1018 917,1017 911,1017 910,1016" fill="rgba(235,157,37,0.3)" stroke="rgb(235,157,37)" stroke-width="2" data-block-id="0007" data-name="b-0010" /><text x="1336" y="1222" text-anchor="middle" dominant-baseline="middle" class="block-label" fill="rgb(235,157,37)" stroke="white" stroke-width="3" paint-order="stroke">b-0010</text><polygon points="896,1978 895,1979 876,1979 875,1980 854,1980 853,1979 844,1979 843,1980 832,1980 831,1981 824,1981 823,1982 820,1982 819,1983 816,1983 813,1986 813,1987 812,1988 812,1989 811,1990 811,2045 812,2046 812,2056 811,2057 811,2069 812,2070 812,2095 811,2096 811,2154 810,2155 810,2187 811,2188 811,2236 812,2237 812,2247 811,2248 811,2269 812,2270 812,2286 811,2287 811,2309 812,2310 812,2323 811,2324 811,2338 812,2339 812,2340 815,2343 817,2343 818,2344 823,2344 824,2345 831,2345 832,2346 846,2346 847,2347 856,2347 857,2346 864,2346 865,2347 895,2347 896,2348 915,2348 916,2347 929,2347 930,2348 943,2348 944,2349 946,2349 947,2348 952,2348 953,2347 963,2347 964,2348 974,2348 975,2347 985,2347 986,2348 988,2348 989,2349 992,2349 993,2350 994,2350 995,2349 1000,2349 1001,2348 1014,2348 1015,2349 1018,2349 1019,2348 1037,2348 1038,2349 1044,2349 1045,2348 1071,2348 1072,2347 1079,2347 1080,2348 1086,2348 1087,2349 1089,2349 1090,2348 1094,2348 1095,2347 1108,2347 1109,2348 1115,2348 1116,2347 1158,2347 1159,2348 1188,2348 1189,2347 1204,2347 1205,2348 1251,2348 1252,2349 1265,2349 1266,2348 1280,2348 1281,2347 1298,2347 1299,2348 1305,2348 1306,2347 1340,2347 1341,2348 1367,2348 1368,2349 1421,2349 1422,2350 1442,2350 1443,2349 1449,2349 1450,2348 1454,2348 1455,2347 1460,2347 1461,2348 1465,2348 1466,2349 1494,2349 1495,2350 1502,2350 1503,2351 1504,2351 1505,2350 1510,2350 1511,2349 1514,2349 1515,2348 1533,2348 1534,2349 1572,2349 1573,2350 1592,2350 1593,2349 1609,2349 1610,2348 1715,2348 1716,2349 1750,2349 1751,2348 1757,2348 1758,2349 1774,2349 1775,2348 1781,2348 1782,2349 1797,2349 1798,2350 1806,2350 1807,2349 1832,2349 1833,2350 1847,2350 1848,2349 1854,2349 1855,2350 1870,2350 1871,2349 1875,2349 1876,2350 1904,2350 1905,2351 1922,2351 1923,2350 1925,2350 1927,2348 1928,2348 1929,2347 1929,2346 1930,2345 1930,2344 1931,2343 1931,2340 1932,2339 1932,2309 1931,2308 1931,2257 1930,2256 1930,2215 1929,2214 1929,2120 1930,2119 1930,2055 1929,2054 1929,2050 1930,2049 1930,2001 1929,2000 1929,1991 1928,1990 1928,1989 1927,1988 1927,1987 1926,1986 1925,1986 1923,1984 1914,1984 1913,1983 1875,1983 1874,1984 1871,1984 1870,1983 1859,1983 1858,1982 1856,1982 1855,1981 1853,1981 1852,1980 1850,1980 1849,1979 1845,1979 1844,1980 1836,1980 1835,1981 1829,1981 1828,1982 1824,1982 1823,1981 1808,1981 1807,1982 1758,1982 1757,1983 1751,1983 1750,1982 1737,1982 1736,1983 1723,1983 1722,1982 1713,1982 1712,1983 1705,1983 1704,1982 1689,1982 1688,1983 1593,1983 1592,1982 1553,1982 1552,1981 1549,1981 1548,1982 1538,1982 1537,1981 1524,1981 1523,1982 1379,1982 1378,1981 1372,1981 1371,1980 1345,1980 1344,1981 1341,1981 1340,1982 1324,1982 1323,1981 1313,1981 1312,1982 1255,1982 1254,1983 1237,1983 1236,1982 1191,1982 1190,1981 1143,1981 1142,1980 1127,1980 1126,1981 1124,1981 1123,1980 1104,1980 1103,1981 1096,1981 1095,1980 1073,1980 1072,1981 1048,1981 1047,1980 985,1980 984,1981 975,1981 974,1980 968,1980 967,1981 963,1981 962,1982 960,1982 959,1983 956,1983 955,1982 954,1982 953,1981 952,1981 951,1980 950,1980 949,1979 937,1979 936,1980 904,1980 903,1979 898,1979 897,1978" fill="rgba(129,191,187,0.3)" stroke="rgb(129,191,187)" stroke-width="2" data-block-id="0008" data-name="b-0011" /><text x="1325" y="2177" text-anchor="middle" dominant-baseline="middle" class="block-label" fill="rgb(129,191,187)" stroke="white" stroke-width="3" paint-order="stroke">b-0011</text><polygon points="1113,1501 1112,1502 1103,1502 1102,1503 1092,1503 1091,1502 1087,1502 1086,1503 1047,1503 1046,1502 1033,1502 1032,1503 1022,1503 1021,1502 1011,1502 1010,1503 1003,1503 1002,1502 906,1502 905,1503 865,1503 864,1502 862,1502 861,1503 827,1503 826,1504 824,1504 821,1507 821,1508 820,1509 820,1510 819,1511 819,1513 818,1514 818,1515 817,1516 817,1519 816,1520 816,1525 815,1526 815,1550 814,1551 814,1571 815,1572 815,1583 816,1584 816,1591 815,1592 815,1621 816,1622 816,1663 815,1664 815,1689 814,1690 814,1705 813,1706 813,1760 814,1761 814,1772 813,1773 813,1833 814,1834 814,1843 813,1844 813,1852 814,1853 814,1856 815,1857 815,1860 816,1861 816,1862 817,1863 818,1863 820,1865 822,1865 823,1866 825,1866 826,1867 838,1867 839,1868 870,1868 871,1867 889,1867 890,1868 937,1868 938,1869 950,1869 951,1868 986,1868 987,1869 1006,1869 1007,1868 1008,1869 1058,1869 1059,1870 1067,1870 1068,1869 1082,1869 1083,1870 1122,1870 1123,1869 1127,1869 1128,1870 1158,1870 1159,1869 1170,1869 1171,1870 1233,1870 1234,1871 1337,1871 1338,1872 1366,1872 1367,1871 1374,1871 1375,1870 1376,1871 1389,1871 1390,1872 1400,1872 1401,1871 1410,1871 1411,1870 1418,1870 1419,1869 1421,1869 1422,1870 1427,1870 1428,1871 1442,1871 1443,1872 1446,1872 1447,1871 1490,1871 1491,1872 1493,1872 1494,1871 1511,1871 1512,1872 1535,1872 1536,1871 1546,1871 1547,1870 1589,1870 1590,1871 1615,1871 1616,1872 1647,1872 1648,1871 1663,1871 1664,1872 1745,1872 1746,1871 1750,1871 1751,1870 1754,1870 1755,1869 1758,1869 1759,1870 1779,1870 1780,1869 1811,1869 1812,1870 1850,1870 1851,1869 1906,1869 1907,1870 1913,1870 1914,1869 1921,1869 1922,1868 1923,1868 1925,1866 1925,1865 1927,1863 1927,1861 1928,1860 1928,1857 1929,1856 1929,1851 1930,1850 1930,1808 1929,1807 1929,1798 1930,1797 1930,1785 1929,1784 1929,1754 1930,1753 1930,1740 1929,1739 1929,1732 1928,1731 1928,1593 1927,1592 1927,1585 1928,1584 1928,1550 1929,1549 1929,1520 1930,1519 1930,1518 1929,1517 1929,1512 1928,1511 1928,1509 1927,1508 1927,1507 1924,1504 1922,1504 1921,1503 1887,1503 1886,1504 1872,1504 1871,1505 1857,1505 1856,1504 1840,1504 1839,1505 1836,1505 1835,1504 1807,1504 1806,1503 1799,1503 1798,1504 1785,1504 1784,1503 1751,1503 1750,1504 1745,1504 1744,1505 1743,1505 1742,1504 1739,1504 1738,1503 1735,1503 1734,1502 1721,1502 1720,1503 1692,1503 1691,1502 1657,1502 1656,1503 1640,1503 1639,1502 1629,1502 1628,1503 1591,1503 1590,1502 1586,1502 1585,1503 1522,1503 1521,1502 1510,1502 1509,1503 1487,1503 1486,1502 1481,1502 1480,1503 1465,1503 1464,1504 1451,1504 1450,1503 1438,1503 1437,1504 1427,1504 1426,1503 1417,1503 1416,1504 1408,1504 1407,1503 1332,1503 1331,1504 1310,1504 1309,1503 1265,1503 1264,1502 1250,1502 1249,1503 1218,1503 1217,1502 1197,1502 1196,1503 1165,1503 1164,1502 1114,1502" fill="rgba(20,160,203,0.3)" stroke="rgb(20,160,203)" stroke-width="2" data-block-id="0009" data-name="b-0012" /><text x="1375" y="1680" text-anchor="middle" dominant-baseline="middle" class="block-label" fill="rgb(20,160,203)" stroke="white" stroke-width="3" paint-order="stroke">b-0012</text><polygon points="4322,2425 4321,2426 4269,2426 4268,2427 4200,2427 4199,2428 4182,2428 4181,2427 4046,2427 4045,2428 4031,2428 4030,2429 4025,2429 4024,2430 4014,2430 4013,2429 4011,2429 4010,2428 4007,2428 4006,2427 3994,2427 3993,2428 3939,2428 3938,2429 3878,2429 3877,2430 3864,2430 3863,2429 3857,2429 3856,2430 3841,2430 3840,2429 3833,2429 3832,2430 3826,2430 3825,2431 3821,2431 3820,2430 3814,2430 3813,2429 3784,2429 3783,2430 3776,2430 3775,2431 3738,2431 3737,2432 3712,2432 3711,2433 3688,2433 3687,2434 3651,2434 3650,2435 3639,2435 3638,2436 3631,2436 3630,2435 3628,2435 3627,2434 3625,2434 3624,2433 3612,2433 3611,2434 3601,2434 3600,2435 3591,2435 3590,2434 3583,2434 3582,2435 3544,2435 3543,2436 3534,2436 3533,2435 3479,2435 3478,2436 3475,2436 3474,2435 3468,2435 3467,2436 3464,2436 3463,2437 3462,2437 3461,2438 3460,2438 3458,2440 3457,2440 3457,2441 3455,2443 3455,2444 3454,2445 3454,2446 3455,2447 3455,2453 3456,2454 3456,2471 3455,2472 3455,2488 3456,2489 3456,2498 3455,2499 3455,2517 3456,2518 3456,2546 3457,2547 3457,2557 3456,2558 3456,2570 3457,2571 3457,2581 3456,2582 3456,2589 3457,2590 3457,2597 3458,2598 3458,2605 3457,2606 3457,2615 3458,2616 3458,2627 3457,2628 3457,2640 3458,2641 3458,2663 3459,2664 3459,2704 3458,2705 3458,2708 3459,2709 3459,2764 3460,2765 3460,2783 3461,2784 3461,2794 3462,2795 3462,2800 3463,2801 3463,2802 3466,2805 3467,2805 3468,2806 3496,2806 3497,2805 3510,2805 3511,2806 3516,2806 3517,2805 3553,2805 3554,2806 3579,2806 3580,2805 3586,2805 3587,2804 3599,2804 3600,2805 3612,2805 3613,2806 3625,2806 3626,2805 3629,2805 3630,2804 3646,2804 3647,2803 3648,2803 3649,2802 3652,2802 3653,2801 3663,2801 3664,2802 3671,2802 3672,2801 3677,2801 3678,2800 3701,2800 3702,2799 3707,2799 3708,2800 3720,2800 3721,2799 3726,2799 3727,2798 3734,2798 3735,2799 3749,2799 3750,2798 3755,2798 3756,2799 3764,2799 3765,2798 3768,2798 3769,2797 3773,2797 3774,2796 3781,2796 3782,2795 3796,2795 3797,2796 3811,2796 3812,2795 3853,2795 3854,2794 3875,2794 3876,2795 3882,2795 3883,2796 3891,2796 3892,2797 3925,2797 3926,2798 3932,2798 3933,2797 3960,2797 3961,2796 3974,2796 3975,2797 3982,2797 3983,2796 3995,2796 3996,2795 4008,2795 4009,2794 4016,2794 4017,2795 4033,2795 4034,2794 4056,2794 4057,2793 4151,2793 4152,2792 4167,2792 4168,2793 4198,2793 4199,2792 4211,2792 4212,2793 4247,2793 4248,2792 4292,2792 4293,2791 4297,2791 4298,2790 4310,2790 4311,2791 4362,2791 4363,2790 4384,2790 4386,2788 4387,2788 4390,2785 4390,2784 4391,2783 4391,2782 4392,2781 4392,2780 4393,2779 4393,2736 4394,2735 4394,2724 4393,2723 4393,2675 4392,2674 4392,2664 4393,2663 4393,2655 4392,2654 4392,2622 4391,2621 4392,2620 4392,2604 4391,2603 4391,2596 4392,2595 4392,2541 4393,2540 4393,2536 4392,2535 4392,2521 4393,2520 4393,2512 4392,2511 4392,2495 4393,2494 4393,2490 4392,2489 4392,2460 4391,2459 4391,2437 4390,2436 4390,2431 4386,2427 4385,2427 4384,2426 4378,2426 4377,2425 4365,2425 4364,2426 4328,2426 4327,2425" fill="rgba(57,21,252,0.3)" stroke="rgb(57,21,252)" stroke-width="2" data-block-id="0010" data-name="b-0013" /><text x="3853" y="2621" text-anchor="middle" dominant-baseline="middle" class="block-label" fill="rgb(57,21,252)" stroke="white" stroke-width="3" paint-order="stroke">b-0013</text><polygon points="2659,2446 2658,2447 2653,2447 2652,2448 2646,2448 2645,2449 2635,2449 2634,2450 2625,2450 2624,2451 2618,2451 2617,2450 2609,2450 2608,2451 2602,2451 2601,2452 2587,2452 2586,2453 2570,2453 2569,2454 2554,2454 2553,2453 2549,2453 2548,2454 2493,2454 2492,2455 2484,2455 2483,2456 2476,2456 2475,2457 2470,2457 2469,2458 2463,2458 2462,2459 2453,2459 2452,2458 2439,2458 2438,2459 2436,2459 2435,2460 2430,2460 2429,2459 2426,2459 2425,2458 2415,2458 2414,2459 2410,2459 2409,2458 2407,2458 2406,2457 2404,2457 2403,2456 2400,2456 2399,2455 2395,2455 2394,2456 2388,2456 2387,2457 2380,2457 2379,2456 2347,2456 2346,2457 2339,2457 2338,2458 2292,2458 2291,2459 2287,2459 2286,2458 2272,2458 2271,2459 2185,2459 2184,2458 2123,2458 2122,2459 2119,2459 2118,2460 2117,2460 2116,2461 2115,2461 2112,2464 2112,2466 2111,2467 2111,2474 2110,2475 2110,2484 2111,2485 2111,2499 2110,2500 2110,2506 2111,2507 2111,2525 2112,2526 2112,2542 2111,2543 2111,2570 2112,2571 2112,2615 2111,2616 2111,2631 2112,2632 2112,2636 2111,2637 2111,2688 2112,2689 2112,2744 2113,2745 2113,2759 2112,2760 2112,2771 2113,2772 2113,2818 2114,2819 2114,2824 2116,2826 2117,2826 2118,2827 2120,2827 2121,2828 2124,2828 2125,2829 2137,2829 2138,2830 2205,2830 2206,2829 2216,2829 2217,2830 2229,2830 2230,2829 2271,2829 2272,2828 2285,2828 2286,2829 2300,2829 2301,2828 2331,2828 2332,2827 2335,2827 2336,2826 2384,2826 2385,2827 2390,2827 2391,2826 2445,2826 2446,2825 2477,2825 2478,2824 2487,2824 2488,2825 2491,2825 2492,2824 2525,2824 2526,2823 2536,2823 2537,2824 2540,2824 2541,2823 2557,2823 2558,2822 2566,2822 2567,2821 2590,2821 2591,2820 2603,2820 2604,2819 2611,2819 2612,2818 2615,2818 2616,2817 2620,2817 2621,2816 2625,2816 2626,2815 2630,2815 2631,2814 2636,2814 2637,2813 2642,2813 2643,2812 2647,2812 2648,2811 2665,2811 2666,2812 2672,2812 2673,2813 2680,2813 2681,2814 2687,2814 2688,2815 2703,2815 2704,2816 2724,2816 2725,2817 2732,2817 2733,2818 2736,2818 2737,2819 2739,2819 2740,2820 2743,2820 2744,2821 2754,2821 2755,2820 2762,2820 2763,2819 2787,2819 2788,2820 2827,2820 2828,2819 2843,2819 2844,2820 2852,2820 2853,2819 2885,2819 2886,2820 2892,2820 2893,2821 2909,2821 2910,2820 2914,2820 2915,2819 2918,2819 2919,2818 2942,2818 2943,2817 2955,2817 2956,2818 2999,2818 3000,2817 3007,2817 3008,2816 3015,2816 3016,2815 3018,2815 3019,2814 3020,2814 3021,2813 3021,2812 3022,2811 3022,2809 3023,2808 3023,2805 3024,2804 3024,2795 3023,2794 3023,2777 3022,2776 3023,2775 3023,2766 3022,2765 3022,2709 3021,2708 3021,2666 3020,2665 3020,2645 3019,2644 3019,2608 3018,2607 3018,2582 3019,2581 3019,2565 3018,2564 3018,2540 3017,2539 3017,2533 3018,2532 3018,2527 3017,2526 3017,2459 3016,2458 3016,2454 3015,2453 3015,2452 3014,2451 3012,2451 3011,2450 3003,2450 3002,2449 2970,2449 2969,2450 2947,2450 2946,2449 2909,2449 2908,2450 2894,2450 2893,2451 2880,2451 2879,2452 2834,2452 2833,2453 2760,2453 2759,2452 2749,2452 2748,2451 2733,2451 2732,2450 2723,2450 2722,2449 2706,2449 2705,2448 2692,2448 2691,2447 2669,2447 2668,2446" fill="rgba(235,88,48,0.3)" stroke="rgb(235,88,48)" stroke-width="2" data-block-id="0011" data-name="b-0014" /><text x="2582" y="2643" text-anchor="middle" dominant-baseline="middle" class="block-label" fill="rgb(235,88,48)" stroke="white" stroke-width="3" paint-order="stroke">b-0014</text><polygon points="4000,530 3998,532 3997,532 3996,533 3995,533 3994,534 3992,534 3991,535 3988,535 3987,536 3985,536 3984,537 3981,537 3980,538 3978,538 3977,539 3969,539 3968,540 3965,540 3964,541 3960,541 3959,542 3946,542 3945,543 3934,543 3933,544 3909,544 3908,543 3880,543 3879,544 3866,544 3865,543 3848,543 3847,544 3781,544 3780,545 3767,545 3766,546 3757,546 3756,545 3751,545 3750,546 3719,546 3718,545 3713,545 3712,546 3685,546 3684,547 3680,547 3679,546 3667,546 3666,545 3654,545 3653,546 3644,546 3643,547 3624,547 3623,546 3622,546 3621,547 3613,547 3612,548 3605,548 3604,547 3578,547 3577,546 3566,546 3565,547 3556,547 3555,546 3547,546 3546,547 3535,547 3534,546 3529,546 3528,545 3524,545 3523,546 3518,546 3517,547 3510,547 3509,546 3464,546 3463,547 3457,547 3456,548 3444,548 3443,549 3437,549 3436,550 3432,550 3430,552 3430,553 3429,554 3429,556 3430,557 3430,562 3431,563 3431,565 3430,566 3430,568 3429,569 3429,573 3428,574 3428,686 3429,687 3429,704 3430,705 3430,749 3431,750 3431,784 3432,785 3432,801 3433,802 3433,813 3434,814 3434,818 3433,819 3433,832 3434,833 3434,844 3433,845 3433,858 3432,859 3432,897 3433,898 3433,900 3435,902 3435,903 3436,904 3437,904 3439,906 3440,906 3441,907 3454,907 3455,908 3468,908 3469,909 3482,909 3483,908 3528,908 3529,907 3532,907 3533,906 3542,906 3543,907 3584,907 3585,906 3606,906 3607,907 3637,907 3638,906 3654,906 3655,907 3663,907 3664,906 3712,906 3713,907 3718,907 3719,906 3761,906 3762,907 3765,907 3766,906 3782,906 3783,905 3818,905 3819,904 3837,904 3838,905 3841,905 3842,906 3874,906 3875,905 3907,905 3908,904 3912,904 3913,903 3916,903 3917,902 3918,902 3919,903 3922,903 3923,904 3925,904 3926,905 3938,905 3939,904 3963,904 3964,903 3994,903 3995,904 4006,904 4007,903 4019,903 4020,904 4031,904 4032,903 4083,903 4084,902 4087,902 4088,903 4103,903 4104,902 4171,902 4172,901 4191,901 4192,900 4196,900 4199,897 4199,895 4200,894 4200,889 4201,888 4201,850 4200,849 4200,742 4199,741 4199,730 4198,729 4198,725 4197,724 4197,722 4196,721 4196,717 4195,716 4195,695 4194,694 4194,689 4193,688 4193,684 4192,683 4192,677 4191,676 4191,671 4190,670 4190,667 4189,666 4189,664 4188,663 4188,660 4187,659 4187,655 4186,654 4186,652 4185,651 4185,649 4184,648 4184,643 4185,642 4185,633 4184,632 4184,626 4183,625 4183,622 4182,621 4182,619 4181,618 4181,615 4180,614 4180,599 4179,598 4179,589 4178,588 4178,578 4177,577 4177,573 4176,572 4176,568 4175,567 4175,547 4174,546 4174,543 4173,542 4173,540 4172,539 4172,538 4170,536 4170,535 4169,534 4168,534 4167,533 4159,533 4158,532 4157,532 4156,533 4146,533 4145,534 4101,534 4100,535 4081,535 4080,534 4074,534 4073,533 4071,533 4070,534 4052,534 4051,533 4049,533 4048,534 4042,534 4041,535 4013,535 4012,534 4010,534 4009,533 4008,533 4007,532 4006,532 4004,530" fill="rgba(218,58,254,0.3)" stroke="rgb(218,58,254)" stroke-width="2" data-block-id="0012" data-name="b-0015" /><text x="3850" y="684" text-anchor="middle" dominant-baseline="middle" class="block-label" fill="rgb(218,58,254)" stroke="white" stroke-width="3" paint-order="stroke">b-0015</text><polygon points="3951,1961 3950,1962 3878,1962 3877,1963 3831,1963 3830,1964 3814,1964 3813,1963 3809,1963 3808,1964 3794,1964 3793,1963 3786,1963 3785,1964 3734,1964 3733,1965 3719,1965 3718,1964 3715,1964 3714,1965 3634,1965 3633,1966 3600,1966 3599,1967 3529,1967 3528,1966 3524,1966 3523,1967 3492,1967 3491,1968 3459,1968 3458,1969 3455,1969 3453,1971 3453,1972 3452,1973 3452,1976 3451,1977 3451,2038 3452,2039 3452,2046 3451,2047 3451,2050 3452,2051 3452,2072 3451,2073 3451,2080 3450,2081 3450,2134 3451,2135 3451,2142 3452,2143 3452,2144 3453,2145 3453,2147 3454,2148 3453,2149 3453,2151 3452,2152 3452,2156 3451,2157 3451,2176 3450,2177 3450,2189 3449,2190 3449,2196 3450,2197 3450,2203 3451,2204 3451,2216 3452,2217 3452,2225 3453,2226 3453,2231 3452,2232 3452,2234 3451,2235 3451,2236 3450,2237 3450,2240 3449,2241 3449,2243 3450,2244 3450,2247 3451,2248 3451,2249 3452,2250 3452,2251 3453,2252 3453,2258 3452,2259 3452,2271 3451,2272 3451,2304 3452,2305 3452,2317 3453,2318 3453,2322 3454,2323 3454,2324 3456,2326 3460,2326 3461,2327 3496,2327 3497,2326 3541,2326 3542,2325 3581,2325 3582,2324 3606,2324 3607,2325 3629,2325 3630,2324 3682,2324 3683,2323 3697,2323 3698,2324 3712,2324 3713,2323 3718,2323 3719,2322 3721,2322 3722,2321 3725,2321 3726,2320 3728,2320 3729,2321 3730,2321 3731,2322 3734,2322 3735,2323 3755,2323 3756,2322 3837,2322 3838,2321 3908,2321 3909,2320 3967,2320 3968,2319 4008,2319 4009,2318 4078,2318 4079,2317 4081,2317 4082,2316 4083,2316 4084,2315 4085,2315 4085,2314 4088,2311 4088,2305 4089,2304 4089,2298 4088,2297 4088,2257 4087,2256 4087,2189 4086,2188 4086,2174 4087,2173 4087,2172 4086,2171 4086,2166 4085,2165 4085,2162 4084,2161 4084,2159 4083,2158 4083,2154 4082,2153 4082,2148 4081,2147 4081,2146 4080,2145 4080,2144 4078,2142 4077,2142 4076,2141 4075,2141 4074,2140 4069,2140 4068,2141 4054,2141 4053,2140 4046,2140 4045,2141 4036,2141 4035,2140 4034,2140 4031,2137 4031,2136 4030,2135 4030,2132 4031,2131 4031,2127 4032,2126 4032,2124 4033,2123 4033,2122 4034,2121 4035,2121 4036,2120 4037,2120 4038,2119 4045,2119 4046,2118 4051,2118 4052,2119 4058,2119 4059,2120 4067,2120 4068,2119 4075,2119 4076,2118 4077,2118 4080,2115 4080,2114 4081,2113 4081,2111 4082,2110 4082,2105 4083,2104 4083,2020 4084,2019 4084,1978 4083,1977 4083,1968 4082,1967 4082,1965 4079,1962 4077,1962 4076,1961 4064,1961 4063,1962 4033,1962 4032,1961 4019,1961 4018,1962 4010,1962 4009,1963 4005,1963 4004,1964 3997,1964 3996,1965 3989,1965 3988,1966 3967,1966 3965,1964 3964,1964 3963,1963 3962,1963 3961,1962 3957,1962 3956,1961" fill="rgba(50,107,54,0.3)" stroke="rgb(50,107,54)" stroke-width="2" data-block-id="0013" data-name="b-0019" /><text x="3792" y="2143" text-anchor="middle" dominant-baseline="middle" class="block-label" fill="rgb(50,107,54)" stroke="white" stroke-width="3" paint-order="stroke">b-0019</text><polygon points="4208,1961 4207,1962 4198,1962 4197,1963 4174,1963 4173,1962 4163,1962 4162,1963 4152,1963 4151,1962 4128,1962 4127,1963 4120,1963 4119,1964 4115,1964 4114,1965 4111,1965 4110,1966 4109,1966 4108,1967 4106,1967 4105,1968 4104,1968 4102,1970 4101,1970 4097,1974 4096,1974 4090,1980 4089,1980 4088,1981 4088,1982 4086,1984 4086,1986 4085,1987 4085,1989 4084,1990 4084,1993 4085,1994 4085,1996 4086,1997 4086,1999 4087,2000 4087,2002 4088,2003 4088,2018 4087,2019 4087,2034 4086,2035 4086,2043 4085,2044 4085,2055 4084,2056 4084,2068 4085,2069 4085,2090 4086,2091 4086,2094 4087,2095 4087,2097 4088,2098 4088,2101 4087,2102 4087,2106 4086,2107 4086,2112 4085,2113 4085,2118 4082,2121 4062,2121 4061,2120 4038,2120 4037,2121 4036,2121 4036,2122 4035,2123 4035,2136 4038,2139 4053,2139 4054,2138 4059,2138 4060,2137 4071,2137 4072,2136 4080,2136 4081,2135 4084,2135 4086,2137 4087,2137 4090,2140 4091,2140 4092,2141 4095,2141 4096,2142 4099,2142 4100,2143 4102,2143 4105,2146 4105,2150 4104,2151 4104,2152 4102,2154 4102,2155 4101,2156 4101,2159 4100,2160 4101,2161 4101,2162 4102,2163 4102,2165 4103,2166 4103,2169 4104,2170 4104,2174 4103,2175 4103,2187 4104,2188 4104,2207 4103,2208 4103,2237 4104,2238 4104,2256 4103,2257 4103,2278 4104,2279 4104,2301 4105,2302 4105,2304 4106,2305 4106,2307 4107,2308 4107,2310 4108,2311 4108,2312 4109,2312 4110,2313 4112,2313 4113,2314 4117,2314 4118,2315 4124,2315 4125,2316 4131,2316 4132,2317 4137,2317 4138,2316 4175,2316 4176,2317 4199,2317 4200,2318 4208,2318 4209,2317 4254,2317 4255,2316 4271,2316 4272,2317 4281,2317 4282,2316 4331,2316 4332,2315 4386,2315 4387,2314 4389,2314 4390,2313 4391,2313 4392,2312 4393,2312 4395,2310 4395,2309 4396,2308 4396,2307 4397,2306 4397,2305 4398,2304 4398,2303 4399,2302 4399,2287 4400,2286 4400,2283 4401,2282 4401,2280 4402,2279 4402,2276 4403,2275 4403,2271 4404,2270 4404,2266 4405,2265 4405,2257 4406,2256 4406,2250 4407,2249 4407,2242 4408,2241 4408,2230 4409,2229 4409,2214 4410,2213 4410,2201 4411,2200 4411,2188 4412,2187 4412,2169 4413,2168 4413,2163 4414,2162 4414,2156 4415,2155 4415,2130 4416,2129 4416,2124 4415,2123 4415,2121 4413,2119 4413,2118 4411,2116 4411,2115 4408,2112 4408,2111 4405,2108 4405,2107 4402,2104 4402,2103 4391,2092 4391,2091 4389,2089 4389,2088 4387,2086 4387,2085 4386,2084 4386,2083 4384,2081 4384,2080 4381,2077 4381,2076 4374,2069 4373,2069 4366,2062 4366,2061 4364,2059 4364,2058 4362,2056 4362,2055 4359,2052 4359,2051 4344,2036 4344,2035 4342,2033 4342,2032 4340,2030 4340,2029 4338,2027 4338,2026 4331,2019 4330,2019 4328,2017 4328,2016 4323,2011 4323,2010 4320,2007 4320,2006 4319,2005 4319,2004 4318,2003 4318,2002 4307,1991 4307,1990 4304,1987 4304,1986 4302,1984 4301,1984 4297,1980 4297,1979 4295,1977 4295,1976 4290,1971 4290,1970 4285,1965 4284,1965 4283,1964 4282,1964 4281,1963 4280,1963 4279,1962 4276,1962 4275,1961 4260,1961 4259,1962 4243,1962 4242,1961" fill="rgba(131,1,253,0.3)" stroke="rgb(131,1,253)" stroke-width="2" data-block-id="0014" data-name="b-0032" /><text x="4226" y="2125" text-anchor="middle" dominant-baseline="middle" class="block-label" fill="rgb(131,1,253)" stroke="white" stroke-width="3" paint-order="stroke">b-0032</text><polygon points="3233,2441 3232,2442 3223,2442 3222,2443 3218,2443 3217,2444 3213,2444 3212,2443 3199,2443 3198,2444 3175,2444 3174,2443 3166,2443 3165,2444 3118,2444 3117,2443 3112,2443 3111,2442 3107,2442 3106,2443 3101,2443 3100,2444 3097,2444 3096,2445 3092,2445 3091,2446 3086,2446 3085,2447 3084,2447 3083,2448 3082,2448 3079,2451 3079,2452 3078,2453 3078,2456 3077,2457 3077,2464 3078,2465 3078,2474 3079,2475 3079,2488 3080,2489 3080,2528 3081,2529 3081,2591 3082,2592 3082,2677 3081,2678 3081,2682 3082,2683 3082,2694 3083,2695 3083,2708 3082,2709 3082,2734 3083,2735 3083,2757 3084,2758 3084,2801 3085,2802 3085,2803 3089,2807 3090,2807 3092,2809 3093,2809 3094,2810 3095,2810 3096,2811 3097,2811 3098,2812 3100,2812 3101,2813 3104,2813 3105,2814 3115,2814 3116,2815 3146,2815 3147,2814 3154,2814 3155,2813 3178,2813 3179,2812 3186,2812 3187,2811 3190,2811 3191,2810 3195,2810 3196,2811 3202,2811 3203,2812 3207,2812 3208,2811 3255,2811 3256,2810 3264,2810 3265,2809 3274,2809 3275,2808 3277,2808 3279,2806 3279,2805 3280,2804 3280,2803 3281,2802 3281,2772 3280,2771 3280,2760 3281,2759 3281,2751 3280,2750 3280,2721 3279,2720 3279,2713 3280,2712 3280,2703 3279,2702 3279,2682 3280,2681 3279,2680 3279,2665 3280,2664 3280,2655 3279,2654 3279,2627 3278,2626 3278,2605 3279,2604 3279,2579 3278,2578 3278,2506 3277,2505 3277,2446 3276,2445 3276,2444 3275,2443 3275,2442 3273,2442 3272,2441" fill="rgba(94,47,14,0.3)" stroke="rgb(94,47,14)" stroke-width="2" data-block-id="0015" data-name="b-0038" /><text x="3174" y="2638" text-anchor="middle" dominant-baseline="middle" class="block-label" fill="rgb(94,47,14)" stroke="white" stroke-width="3" paint-order="stroke">b-0038</text><polygon points="3430,1404 3415,1010 4234,991 4241,1407" fill="rgba(102,179,92,0.3)" stroke="rgb(102,179,92)" stroke-width="2" data-block-id="0016" data-name="b-0018" /><text x="3830" y="1203" text-anchor="middle" dominant-baseline="middle" class="block-label" fill="rgb(102,179,92)" stroke="white" stroke-width="3" paint-order="stroke">b-0018</text><polygon points="3430,1878 3419,1484 4234,1469 4279,1866" fill="rgba(102,179,92,0.3)" stroke="rgb(102,179,92)" stroke-width="2" data-block-id="0017" data-name="b-0017" /><text x="3840" y="1674" text-anchor="middle" dominant-baseline="middle" class="block-label" fill="rgb(102,179,92)" stroke="white" stroke-width="3" paint-order="stroke">b-0017</text></g>
</svg>