<?xml version='1.0' encoding='utf-8'?>
<svg xmlns="http://www.w3.org/2000/svg" xmlns:atlas="http://example.com/atlas" width="4980" height="3313" viewBox="0 0 4980 3313">
  
  <metadata>
    <atlas:source>
      <atlas:jp2-path>../media/v1/p24.jp2</atlas:jp2-path>
      <atlas:volume>vol1</atlas:volume>
      <atlas:plate-id>p24</atlas:plate-id>
      <atlas:image-width>4980</atlas:image-width>
      <atlas:image-height>3313</atlas:image-height>
    <atlas:angle>20.50465095890998</atlas:angle><atlas:scale>1.3131877729724803</atlas:scale><atlas:pos-x>2923.5069619511323</atlas:pos-x><atlas:pos-y>1279.6195874615246</atlas:pos-y></atlas:source>
  </metadata>

  
  <image id="background" href="file://../media/v1/p24.jp2" width="4980" height="3313" opacity="0.5" />

  <style>
    .block-label { font-family: sans-serif; font-size: 14px; font-weight: bold; }
  </style>

  
  <g id="blocks">
    <polygon points="2918,421 2917,422 2913,422 2912,423 2910,423 2909,424 2908,424 2905,427 2904,427 2903,428 2901,428 2900,429 2894,429 2893,430 2855,430 2854,429 2839,429 2838,428 2835,428 2834,427 2832,427 2831,426 2830,426 2829,425 2828,425 2827,424 2825,424 2824,423 2817,423 2816,424 2812,424 2811,425 2808,425 2807,426 2803,426 2802,427 2799,427 2798,428 2795,428 2794,429 2781,429 2780,428 2775,428 2774,429 2760,429 2759,428 2755,428 2754,427 2731,427 2730,428 2727,428 2726,429 2724,429 2723,430 2718,430 2717,431 2716,430 2709,430 2708,429 2701,429 2700,430 2691,430 2690,429 2685,429 2684,428 2683,428 2682,429 2679,429 2678,430 2676,430 2675,431 2672,431 2671,432 2667,432 2666,433 2659,433 2658,434 2625,434 2624,435 2618,435 2617,436 2614,436 2613,437 2611,437 2610,438 2606,438 2605,439 2599,439 2598,440 2595,440 2594,439 2586,439 2584,441 2583,441 2581,443 2580,443 2578,445 2574,445 2569,440 2569,439 2566,436 2543,436 2542,435 2535,435 2534,436 2519,436 2518,437 2516,437 2515,436 2496,436 2495,437 2477,437 2476,436 2470,436 2469,435 2464,435 2463,434 2431,434 2430,433 2424,433 2423,432 2414,432 2413,433 2406,433 2405,432 2401,432 2400,431 2399,431 2397,429 2395,429 2394,428 2392,428 2391,429 2383,429 2382,428 2379,428 2378,427 2375,427 2374,426 2364,426 2363,427 2332,427 2331,426 2313,426 2312,427 2301,427 2300,428 2297,428 2296,427 2287,427 2286,426 2283,426 2282,425 2280,425 2279,424 2277,424 2276,423 2265,423 2264,424 2262,424 2261,425 2259,425 2258,426 2254,426 2253,427 2244,427 2243,428 2241,428 2240,427 2237,427 2236,426 2235,426 2234,425 2233,425 2232,424 2231,424 2230,423 2228,423 2227,422 2226,423 2218,423 2217,424 2213,424 2212,425 2207,425 2206,426 2201,426 2200,427 2193,427 2192,428 2191,427 2185,427 2184,426 2167,426 2166,427 2143,427 2142,426 2128,426 2127,427 2095,427 2094,426 2091,426 2090,425 2087,425 2086,424 2081,424 2080,425 2066,425 2065,426 2058,426 2057,427 2024,427 2023,428 2020,428 2019,429 2018,429 2017,430 2016,430 2015,431 2014,431 2011,434 2011,435 2010,436 2010,438 2009,439 2009,440 2008,441 2008,442 2007,443 2007,444 2005,446 2005,450 2006,451 2006,452 2007,453 2007,456 2008,457 2008,481 2007,482 2007,485 2006,486 2006,487 2005,488 2005,489 2004,490 2004,491 2003,492 2003,497 2005,499 2005,500 2006,501 2006,502 2008,504 2008,506 2009,507 2009,512 2010,513 2010,521 2009,522 2009,525 2008,526 2008,528 2007,529 2007,530 2006,531 2006,532 2005,533 2005,534 2004,535 2004,536 2003,537 2003,538 2002,539 2002,540 2001,541 2002,542 2002,545 2004,547 2004,548 2006,550 2006,551 2007,552 2007,560 2006,561 2006,564 2005,565 2005,571 2006,572 2006,580 2005,581 2005,585 2004,586 2004,591 2005,592 2005,593 2006,594 2006,595 2007,596 2007,598 2008,599 2008,604 2007,605 2007,606 2006,607 2006,608 2004,610 2004,611 2002,613 2002,617 2003,618 2003,620 2004,621 2004,623 2005,624 2005,626 2006,627 2006,629 2007,630 2007,632 2008,633 2008,646 2007,647 2007,650 2006,651 2006,653 2005,654 2005,655 2004,656 2004,657 2003,658 2003,659 2002,660 2002,664 2003,665 2003,666 2004,667 2004,668 2005,669 2005,670 2006,671 2006,672 2007,673 2007,674 2008,675 2008,676 2009,677 2009,678 2010,679 2010,683 2011,684 2011,688 2010,689 2010,695 2009,696 2009,698 2008,699 2008,702 2007,703 2007,704 2006,705 2006,706 2005,707 2005,710 2007,712 2007,713 2009,715 2009,717 2010,718 2010,722 2011,723 2011,736 2010,737 2010,744 2009,745 2009,747 2008,748 2008,749 2006,751 2006,752 2003,755 2003,756 2004,757 2004,758 2005,758 2006,759 2007,759 2008,760 2009,760 2013,764 2013,765 2014,766 2014,767 2016,769 2016,770 2017,771 2018,771 2019,772 2020,772 2021,773 2023,773 2024,774 2030,774 2031,775 2076,775 2077,776 2087,776 2088,777 2096,777 2097,778 2099,778 2100,777 2111,777 2112,776 2134,776 2135,777 2141,777 2142,778 2150,778 2151,777 2162,777 2163,776 2176,776 2177,775 2185,775 2186,776 2224,776 2225,777 2232,777 2233,778 2241,778 2242,779 2243,779 2244,778 2262,778 2263,777 2275,777 2276,776 2280,776 2281,777 2305,777 2306,778 2313,778 2314,779 2326,779 2327,780 2330,780 2331,781 2343,781 2344,780 2349,780 2350,779 2354,779 2355,778 2358,778 2359,777 2372,777 2373,778 2389,778 2390,777 2401,777 2402,778 2417,778 2418,777 2419,777 2420,778 2428,778 2429,779 2438,779 2439,778 2448,778 2449,779 2457,779 2458,778 2459,778 2460,777 2462,777 2463,776 2465,776 2466,775 2470,775 2471,776 2473,776 2474,777 2475,777 2476,778 2477,778 2478,779 2484,779 2485,778 2487,778 2488,777 2492,777 2493,778 2494,778 2495,779 2496,779 2497,780 2500,780 2501,781 2508,781 2509,780 2514,780 2515,779 2527,779 2528,778 2529,778 2530,777 2532,777 2533,776 2541,776 2542,777 2543,777 2545,779 2548,779 2549,780 2570,780 2571,781 2575,781 2576,780 2582,780 2583,779 2586,779 2587,778 2589,778 2590,779 2595,779 2596,780 2600,780 2601,779 2603,779 2604,778 2605,778 2606,777 2610,777 2611,778 2612,778 2614,780 2615,780 2616,781 2618,781 2619,782 2641,782 2642,783 2651,783 2652,782 2663,782 2664,783 2669,783 2670,784 2691,784 2692,785 2705,785 2706,784 2738,784 2739,785 2744,785 2745,784 2763,784 2764,785 2775,785 2776,786 2806,786 2807,785 2930,785 2931,786 2938,786 2939,785 2948,785 2949,786 2963,786 2964,785 2976,785 2977,786 2988,786 2989,785 3002,785 3003,784 3015,784 3016,785 3027,785 3028,786 3030,786 3031,785 3105,785 3106,784 3117,784 3118,783 3123,783 3124,782 3126,782 3129,779 3129,778 3135,772 3135,771 3137,769 3137,758 3138,757 3138,684 3139,683 3139,671 3138,670 3138,654 3139,653 3139,640 3140,639 3140,635 3139,634 3139,619 3138,618 3138,609 3139,608 3139,581 3138,580 3138,567 3139,566 3139,531 3138,530 3138,523 3137,522 3137,511 3138,510 3138,502 3137,501 3137,488 3136,487 3136,475 3135,474 3135,468 3136,467 3136,454 3135,453 3135,451 3134,450 3134,449 3133,448 3132,448 3130,446 3128,446 3127,445 3126,445 3124,443 3123,443 3120,440 3119,440 3118,439 3117,439 3116,438 3114,438 3113,437 3108,437 3107,436 3101,436 3100,435 3083,435 3082,434 3072,434 3071,433 3060,433 3059,434 3047,434 3046,433 3034,433 3033,434 3022,434 3021,435 2988,435 2987,434 2974,434 2973,433 2964,433 2963,432 2954,432 2953,431 2950,431 2949,430 2947,430 2946,429 2937,429 2936,428 2932,428 2931,427 2930,427 2929,426 2928,426 2926,424 2925,424 2923,422 2922,422 2921,421" fill="rgba(121,210,214,0.3)" stroke="rgb(121,210,214)" stroke-width="2" data-block-id="0001" data-name="b-0006" /><text x="2455" y="584" text-anchor="middle" dominant-baseline="middle" class="block-label" fill="rgb(121,210,214)" stroke="white" stroke-width="3" paint-order="stroke">b-0006</text><polygon points="2031,889 2030,890 2025,890 2024,891 2020,891 2019,892 2017,892 2016,893 2015,893 2012,896 2012,897 2011,898 2011,899 2010,900 2010,901 2009,902 2009,929 2010,930 2010,961 2009,962 2009,1013 2008,1014 2008,1034 2009,1035 2009,1044 2008,1045 2008,1174 2009,1175 2009,1258 2010,1259 2010,1263 2011,1264 2011,1267 2012,1268 2012,1270 2013,1271 2013,1272 2017,1276 2018,1276 2019,1277 2020,1277 2021,1278 2023,1278 2024,1279 2026,1279 2027,1280 2032,1280 2033,1281 2042,1281 2043,1280 2076,1280 2077,1281 2099,1281 2100,1282 2116,1282 2117,1283 2138,1283 2139,1282 2158,1282 2159,1283 2238,1283 2239,1284 2272,1284 2273,1285 2299,1285 2300,1284 2376,1284 2377,1283 2412,1283 2413,1282 2440,1282 2441,1283 2465,1283 2466,1284 2476,1284 2477,1285 2539,1285 2540,1286 2553,1286 2554,1287 2686,1287 2687,1288 2833,1288 2834,1289 2909,1289 2910,1288 2930,1288 2931,1289 3042,1289 3043,1288 3071,1288 3072,1287 3105,1287 3106,1286 3110,1286 3111,1285 3115,1285 3116,1284 3119,1284 3120,1283 3122,1283 3123,1282 3125,1282 3126,1281 3127,1281 3128,1280 3129,1280 3133,1276 3133,1275 3134,1274 3134,1273 3135,1272 3135,1263 3136,1262 3136,1196 3135,1195 3135,1176 3136,1175 3136,1167 3137,1166 3137,1157 3138,1156 3138,1154 3137,1153 3137,1130 3138,1129 3138,1122 3139,1121 3139,1115 3138,1114 3138,1105 3137,1104 3137,1089 3136,1088 3136,1055 3137,1054 3137,1045 3138,1044 3138,995 3137,994 3137,976 3138,975 3138,971 3139,970 3139,967 3140,966 3140,951 3139,950 3139,940 3140,939 3140,933 3141,932 3141,921 3140,920 3140,919 3139,918 3139,917 3138,916 3138,914 3137,913 3137,912 3136,911 3136,910 3135,909 3135,907 3131,903 3130,903 3129,902 3127,902 3126,901 3123,901 3122,900 3113,900 3112,899 3073,899 3072,898 3035,898 3034,897 3014,897 3013,896 2990,896 2989,895 2986,895 2985,896 2924,896 2923,895 2914,895 2913,894 2884,894 2883,893 2866,893 2865,894 2801,894 2800,893 2785,893 2784,894 2768,894 2767,895 2737,895 2736,894 2717,894 2716,893 2697,893 2696,892 2688,892 2687,893 2579,893 2578,894 2573,894 2572,893 2537,893 2536,892 2507,892 2506,893 2452,893 2451,892 2437,892 2436,891 2415,891 2414,892 2382,892 2381,891 2354,891 2353,890 2345,890 2344,889 2318,889 2317,890 2309,890 2308,891 2295,891 2294,890 2254,890 2253,889 2226,889 2225,890 2174,890 2173,889 2105,889 2104,890 2077,890 2076,889" fill="rgba(116,99,103,0.3)" stroke="rgb(116,99,103)" stroke-width="2" data-block-id="0002" data-name="b-0010" /><text x="2637" y="1065" text-anchor="middle" dominant-baseline="middle" class="block-label" fill="rgb(116,99,103)" stroke="white" stroke-width="3" paint-order="stroke">b-0010</text><polygon points="3383,898 3382,899 3347,899 3346,900 3333,900 3332,901 3310,901 3309,900 3299,900 3298,901 3296,901 3295,902 3293,902 3291,904 3291,905 3290,906 3290,908 3289,909 3289,916 3288,917 3288,926 3289,927 3289,946 3290,947 3290,954 3291,955 3291,977 3290,978 3290,987 3289,988 3289,1025 3290,1026 3290,1055 3289,1056 3289,1191 3290,1192 3290,1205 3291,1206 3291,1214 3290,1215 3290,1245 3291,1246 3291,1272 3292,1273 3292,1277 3293,1278 3293,1279 3295,1281 3297,1281 3298,1282 3299,1282 3300,1283 3308,1283 3309,1284 3324,1284 3325,1285 3352,1285 3353,1284 3382,1284 3383,1283 3389,1283 3390,1284 3396,1284 3397,1285 3428,1285 3429,1284 3440,1284 3441,1285 3452,1285 3453,1286 3467,1286 3468,1287 3469,1287 3470,1286 3474,1286 3475,1285 3478,1285 3479,1284 3487,1284 3488,1285 3506,1285 3507,1286 3512,1286 3513,1287 3543,1287 3544,1286 3592,1286 3593,1287 3610,1287 3611,1288 3612,1288 3613,1287 3619,1287 3620,1286 3631,1286 3632,1287 3642,1287 3643,1288 3653,1288 3654,1287 3664,1287 3665,1286 3686,1286 3687,1287 3703,1287 3704,1288 3710,1288 3711,1287 3718,1287 3719,1286 3724,1286 3725,1287 3749,1287 3750,1288 3760,1288 3761,1287 3798,1287 3799,1288 3804,1288 3805,1287 3811,1287 3812,1286 3821,1286 3822,1287 3872,1287 3873,1288 3906,1288 3907,1287 3941,1287 3942,1286 3976,1286 3977,1287 3988,1287 3989,1288 4006,1288 4007,1287 4012,1287 4013,1286 4026,1286 4027,1287 4060,1287 4061,1288 4083,1288 4084,1287 4110,1287 4111,1286 4166,1286 4167,1285 4198,1285 4199,1286 4236,1286 4237,1287 4262,1287 4263,1286 4334,1286 4335,1287 4343,1287 4344,1286 4369,1286 4370,1287 4386,1287 4387,1286 4394,1286 4395,1285 4409,1285 4410,1286 4420,1286 4421,1285 4437,1285 4438,1286 4457,1286 4458,1285 4468,1285 4469,1284 4482,1284 4483,1283 4498,1283 4500,1281 4501,1281 4502,1280 4502,1279 4503,1278 4503,1276 4504,1275 4504,1272 4505,1271 4505,1224 4506,1223 4506,1221 4505,1220 4505,1189 4506,1188 4506,1170 4505,1169 4505,1094 4506,1093 4506,1090 4505,1089 4505,1076 4506,1075 4506,1048 4505,1047 4505,1011 4506,1010 4506,991 4505,990 4505,913 4504,912 4504,911 4503,910 4503,909 4498,904 4497,904 4496,903 4490,903 4489,902 4466,902 4465,901 4457,901 4456,900 4448,900 4447,899 4435,899 4434,900 4415,900 4414,901 4406,901 4405,902 4396,902 4395,901 4380,901 4379,902 4362,902 4361,901 4356,901 4355,900 4345,900 4344,899 4337,899 4336,900 4321,900 4320,899 4315,899 4314,900 4290,900 4289,901 4285,901 4284,902 4279,902 4278,901 4276,901 4275,900 4272,900 4271,899 4263,899 4262,900 4243,900 4242,901 4237,901 4236,902 4229,902 4228,901 4218,901 4217,900 4193,900 4192,901 4182,901 4181,900 4175,900 4174,899 4148,899 4147,900 4142,900 4141,901 4098,901 4097,902 4091,902 4090,901 4085,901 4084,900 4051,900 4050,901 4001,901 4000,900 3991,900 3990,901 3979,901 3978,902 3969,902 3968,901 3941,901 3940,902 3933,902 3932,901 3927,901 3926,900 3916,900 3915,901 3909,901 3908,900 3888,900 3887,901 3886,901 3885,900 3875,900 3874,901 3869,901 3868,902 3856,902 3855,901 3847,901 3846,902 3836,902 3835,901 3822,901 3821,902 3810,902 3809,901 3774,901 3773,902 3765,902 3764,901 3732,901 3731,900 3717,900 3716,901 3678,901 3677,902 3669,902 3668,901 3643,901 3642,900 3606,900 3605,901 3594,901 3593,900 3588,900 3587,901 3581,901 3580,902 3575,902 3574,901 3568,901 3567,900 3560,900 3559,901 3550,901 3549,900 3533,900 3532,901 3523,901 3522,900 3516,900 3515,901 3478,901 3477,900 3473,900 3472,899 3464,899 3463,900 3452,900 3451,899 3423,899 3422,900 3409,900 3408,899 3405,899 3404,898" fill="rgba(151,130,149,0.3)" stroke="rgb(151,130,149)" stroke-width="2" data-block-id="0003" data-name="b-0011" /><text x="3883" y="1072" text-anchor="middle" dominant-baseline="middle" class="block-label" fill="rgb(151,130,149)" stroke="white" stroke-width="3" paint-order="stroke">b-0011</text><polygon points="1749,1386 1748,1387 1744,1387 1743,1388 1740,1388 1739,1389 1709,1389 1708,1388 1704,1388 1703,1387 1696,1387 1695,1388 1692,1388 1691,1389 1681,1389 1680,1388 1671,1388 1670,1389 1663,1389 1662,1388 1658,1388 1657,1387 1650,1387 1649,1388 1648,1388 1647,1389 1645,1389 1644,1390 1643,1390 1642,1391 1634,1391 1633,1390 1613,1390 1612,1389 1601,1389 1600,1390 1595,1390 1594,1391 1590,1391 1589,1390 1583,1390 1582,1389 1568,1389 1567,1388 1555,1388 1554,1389 1552,1389 1551,1390 1549,1390 1548,1391 1540,1391 1539,1390 1520,1390 1519,1389 1504,1389 1503,1390 1493,1390 1492,1389 1489,1389 1488,1388 1459,1388 1458,1389 1454,1389 1453,1390 1428,1390 1427,1389 1417,1389 1416,1388 1412,1388 1411,1389 1407,1389 1406,1390 1399,1390 1398,1389 1395,1389 1394,1388 1392,1388 1391,1387 1383,1387 1382,1388 1374,1388 1373,1389 1302,1389 1301,1388 1274,1388 1273,1387 1244,1387 1243,1388 1195,1388 1194,1389 1187,1389 1186,1390 1179,1390 1178,1391 1146,1391 1145,1392 1123,1392 1122,1393 1115,1393 1114,1394 1113,1394 1112,1393 1095,1393 1094,1392 1083,1392 1082,1393 1069,1393 1068,1392 1040,1392 1039,1391 1018,1391 1017,1390 964,1390 963,1391 957,1391 956,1390 929,1390 928,1391 913,1391 912,1390 906,1390 905,1389 896,1389 895,1388 888,1388 887,1389 883,1389 882,1390 877,1390 876,1391 873,1391 872,1390 839,1390 838,1389 836,1389 835,1388 831,1388 830,1387 819,1387 818,1388 813,1388 812,1389 809,1389 808,1390 787,1390 786,1389 764,1389 763,1390 743,1390 742,1391 734,1391 733,1392 731,1392 730,1391 694,1391 693,1390 679,1390 678,1391 661,1391 660,1390 650,1390 649,1391 645,1391 644,1392 639,1392 638,1393 631,1393 630,1394 627,1394 624,1397 624,1404 623,1405 623,1416 624,1417 624,1427 625,1428 625,1454 624,1455 624,1464 623,1465 623,1469 624,1470 624,1473 625,1474 625,1476 627,1478 627,1482 626,1483 626,1484 625,1485 625,1487 624,1488 624,1522 625,1523 625,1581 626,1582 626,1585 627,1586 627,1589 626,1590 626,1596 625,1597 625,1605 626,1606 626,1628 627,1629 627,1632 628,1633 628,1643 627,1644 627,1648 628,1649 628,1653 629,1654 629,1657 630,1658 630,1665 631,1666 631,1680 630,1681 631,1682 631,1694 632,1695 632,1696 631,1697 631,1710 632,1711 632,1715 633,1716 633,1729 634,1730 634,1736 635,1737 635,1745 634,1746 634,1750 633,1751 633,1755 634,1756 634,1757 636,1759 636,1760 642,1766 643,1766 644,1767 645,1767 646,1768 647,1768 648,1769 653,1769 654,1770 663,1770 664,1771 671,1771 672,1772 682,1772 683,1773 686,1773 687,1772 689,1772 690,1771 693,1771 694,1770 706,1770 707,1771 711,1771 712,1772 719,1772 720,1773 725,1773 726,1774 728,1774 729,1775 731,1775 732,1776 749,1776 750,1777 754,1777 755,1778 765,1778 766,1777 775,1777 776,1776 785,1776 786,1777 793,1777 794,1778 796,1778 797,1779 799,1779 800,1780 803,1780 804,1781 808,1781 809,1780 813,1780 814,1779 826,1779 827,1780 830,1780 831,1779 835,1779 836,1778 843,1778 844,1779 846,1779 847,1780 849,1780 850,1781 856,1781 857,1780 859,1780 860,1779 862,1779 863,1778 868,1778 869,1779 873,1779 874,1780 879,1780 880,1779 885,1779 886,1778 890,1778 891,1779 893,1779 894,1780 898,1780 899,1781 902,1781 903,1780 905,1780 906,1779 909,1779 910,1778 917,1778 918,1779 932,1779 933,1778 942,1778 943,1779 951,1779 952,1778 956,1778 957,1777 981,1777 982,1778 989,1778 990,1779 1012,1779 1013,1780 1028,1780 1029,1779 1035,1779 1036,1780 1048,1780 1049,1779 1060,1779 1061,1780 1065,1780 1066,1781 1071,1781 1072,1780 1085,1780 1086,1781 1106,1781 1107,1782 1111,1782 1112,1783 1119,1783 1120,1782 1125,1782 1126,1781 1130,1781 1131,1782 1148,1782 1149,1781 1152,1781 1153,1782 1161,1782 1162,1783 1167,1783 1168,1782 1191,1782 1192,1781 1242,1781 1243,1780 1245,1780 1246,1781 1252,1781 1253,1782 1257,1782 1258,1783 1263,1783 1264,1782 1279,1782 1280,1781 1285,1781 1286,1780 1289,1780 1290,1779 1303,1779 1304,1780 1308,1780 1309,1779 1327,1779 1328,1780 1343,1780 1344,1781 1360,1781 1361,1780 1381,1780 1382,1781 1399,1781 1400,1782 1405,1782 1406,1781 1420,1781 1421,1782 1431,1782 1432,1781 1471,1781 1472,1782 1475,1782 1476,1781 1503,1781 1504,1782 1516,1782 1517,1783 1523,1783 1524,1782 1535,1782 1536,1781 1556,1781 1557,1782 1573,1782 1574,1781 1595,1781 1596,1782 1601,1782 1602,1783 1636,1783 1637,1782 1642,1782 1643,1783 1650,1783 1651,1784 1658,1784 1659,1783 1688,1783 1689,1784 1708,1784 1709,1783 1717,1783 1718,1784 1741,1784 1742,1785 1752,1785 1753,1784 1789,1784 1790,1785 1810,1785 1811,1784 1815,1784 1816,1783 1819,1783 1820,1782 1821,1782 1822,1781 1823,1781 1825,1779 1825,1778 1826,1777 1826,1776 1827,1775 1827,1774 1828,1773 1828,1771 1829,1770 1829,1769 1830,1768 1830,1763 1829,1762 1829,1760 1828,1759 1828,1757 1827,1756 1827,1746 1828,1745 1828,1727 1829,1726 1829,1714 1828,1713 1828,1711 1827,1710 1827,1702 1828,1701 1828,1698 1829,1697 1829,1691 1828,1690 1828,1686 1827,1685 1827,1681 1828,1680 1828,1676 1829,1675 1829,1668 1828,1667 1828,1664 1827,1663 1827,1660 1826,1659 1826,1655 1827,1654 1827,1632 1828,1631 1828,1616 1827,1615 1827,1607 1828,1606 1828,1597 1827,1596 1827,1592 1826,1591 1826,1584 1827,1583 1827,1580 1828,1579 1828,1575 1829,1574 1828,1573 1828,1566 1827,1565 1827,1559 1828,1558 1828,1533 1827,1532 1827,1507 1828,1506 1828,1500 1827,1499 1827,1489 1826,1488 1826,1483 1825,1482 1825,1466 1826,1465 1826,1453 1827,1452 1827,1448 1828,1447 1828,1440 1827,1439 1827,1422 1828,1421 1828,1405 1827,1404 1827,1398 1826,1397 1826,1396 1825,1395 1825,1394 1823,1392 1822,1392 1821,1391 1820,1391 1819,1390 1815,1390 1814,1389 1808,1389 1807,1388 1798,1388 1797,1387 1789,1387 1788,1388 1782,1388 1781,1387 1773,1387 1772,1386 1769,1386 1768,1387 1751,1387 1750,1386" fill="rgba(52,1,87,0.3)" stroke="rgb(52,1,87)" stroke-width="2" data-block-id="0004" data-name="b-0012" /><text x="1226" y="1603" text-anchor="middle" dominant-baseline="middle" class="block-label" fill="rgb(52,1,87)" stroke="white" stroke-width="3" paint-order="stroke">b-0012</text><polygon points="4304,1394 4303,1395 4264,1395 4263,1396 4257,1396 4256,1397 4240,1397 4239,1396 4200,1396 4199,1397 4165,1397 4164,1398 4146,1398 4145,1399 4127,1399 4126,1398 4123,1398 4122,1397 4118,1397 4117,1396 4097,1396 4096,1397 4091,1397 4090,1398 4088,1398 4087,1397 4077,1397 4076,1396 4045,1396 4044,1397 4038,1397 4037,1396 4027,1396 4026,1397 4013,1397 4012,1396 4002,1396 4001,1397 3979,1397 3978,1396 3950,1396 3949,1395 3943,1395 3942,1396 3905,1396 3904,1397 3861,1397 3860,1398 3830,1398 3829,1397 3824,1397 3823,1396 3779,1396 3778,1395 3761,1395 3760,1396 3729,1396 3728,1395 3719,1395 3718,1396 3667,1396 3666,1397 3662,1397 3661,1398 3652,1398 3651,1397 3616,1397 3615,1398 3609,1398 3608,1397 3590,1397 3589,1396 3572,1396 3571,1397 3561,1397 3560,1396 3362,1396 3361,1397 3300,1397 3299,1398 3296,1398 3294,1400 3293,1400 3293,1401 3292,1402 3292,1404 3291,1405 3291,1410 3290,1411 3290,1424 3291,1425 3291,1498 3292,1499 3292,1536 3291,1537 3291,1541 3292,1542 3292,1583 3291,1584 3291,1613 3292,1614 3292,1650 3291,1651 3291,1668 3292,1669 3292,1673 3291,1674 3291,1695 3290,1696 3290,1708 3291,1709 3291,1730 3290,1731 3290,1769 3291,1770 3291,1776 3292,1777 3292,1778 3295,1781 3296,1781 3297,1782 3299,1782 3300,1783 3303,1783 3304,1784 3305,1784 3306,1783 3343,1783 3344,1782 3356,1782 3357,1783 3394,1783 3395,1782 3402,1782 3403,1783 3444,1783 3445,1782 3478,1782 3479,1783 3491,1783 3492,1782 3518,1782 3519,1783 3534,1783 3535,1782 3550,1782 3551,1783 3561,1783 3562,1784 3570,1784 3571,1783 3589,1783 3590,1782 3595,1782 3596,1781 3605,1781 3606,1782 3663,1782 3664,1783 3677,1783 3678,1782 3696,1782 3697,1781 3709,1781 3710,1782 3728,1782 3729,1781 3735,1781 3736,1782 3797,1782 3798,1781 3806,1781 3807,1782 3822,1782 3823,1781 3862,1781 3863,1780 3868,1780 3869,1779 3873,1779 3874,1778 3928,1778 3929,1779 3932,1779 3933,1780 3949,1780 3950,1781 3957,1781 3958,1782 3964,1782 3965,1781 3976,1781 3977,1782 4009,1782 4010,1781 4040,1781 4041,1780 4042,1781 4071,1781 4072,1782 4081,1782 4082,1781 4132,1781 4133,1782 4143,1782 4144,1781 4172,1781 4173,1780 4193,1780 4194,1781 4229,1781 4230,1780 4292,1780 4293,1781 4308,1781 4309,1780 4372,1780 4373,1779 4428,1779 4429,1780 4446,1780 4447,1779 4471,1779 4472,1778 4498,1778 4499,1777 4500,1777 4501,1776 4502,1776 4504,1774 4504,1773 4505,1772 4505,1771 4506,1770 4506,1767 4507,1766 4507,1754 4508,1753 4507,1752 4507,1667 4506,1666 4506,1661 4505,1660 4505,1650 4506,1649 4506,1647 4505,1646 4505,1618 4506,1617 4506,1609 4505,1608 4505,1569 4506,1568 4506,1549 4505,1548 4505,1526 4506,1525 4506,1493 4505,1492 4505,1485 4506,1484 4506,1448 4505,1447 4505,1405 4504,1404 4504,1402 4503,1401 4503,1400 4500,1397 4499,1397 4498,1396 4497,1396 4496,1395 4477,1395 4476,1394 4413,1394 4412,1395 4365,1395 4364,1394 4335,1394 4334,1395 4305,1395" fill="rgba(235,157,37,0.3)" stroke="rgb(235,157,37)" stroke-width="2" data-block-id="0005" data-name="b-0013" /><text x="3904" y="1601" text-anchor="middle" dominant-baseline="middle" class="block-label" fill="rgb(235,157,37)" stroke="white" stroke-width="3" paint-order="stroke">b-0013</text><polygon points="2323,1391 2322,1392 2315,1392 2314,1393 2309,1393 2308,1392 2293,1392 2292,1393 2280,1393 2279,1392 2278,1392 2277,1393 2256,1393 2255,1392 2243,1392 2242,1393 2241,1392 2187,1392 2186,1393 2177,1393 2176,1392 2151,1392 2150,1393 2092,1393 2091,1392 2082,1392 2081,1393 2045,1393 2044,1392 2026,1392 2025,1393 2016,1393 2015,1394 2014,1394 2013,1395 2012,1395 2012,1396 2011,1397 2011,1398 2010,1399 2010,1402 2009,1403 2009,1405 2008,1406 2008,1423 2009,1424 2009,1428 2010,1429 2010,1437 2011,1438 2011,1447 2010,1448 2010,1452 2009,1453 2009,1458 2008,1459 2008,1470 2009,1471 2009,1477 2010,1478 2010,1481 2009,1482 2009,1487 2008,1488 2008,1497 2009,1498 2009,1518 2010,1519 2010,1530 2009,1531 2009,1542 2010,1543 2010,1548 2011,1549 2011,1571 2010,1572 2010,1580 2011,1581 2011,1627 2012,1628 2012,1656 2011,1657 2011,1699 2010,1700 2010,1749 2009,1750 2009,1758 2010,1759 2010,1762 2011,1763 2011,1766 2012,1767 2012,1770 2013,1771 2013,1774 2014,1775 2014,1776 2015,1777 2015,1778 2016,1779 2017,1779 2018,1780 2020,1780 2021,1781 2094,1781 2095,1780 2099,1780 2100,1781 2104,1781 2105,1782 2130,1782 2131,1781 2146,1781 2147,1782 2166,1782 2167,1783 2183,1783 2184,1782 2190,1782 2191,1781 2203,1781 2204,1782 2220,1782 2221,1783 2234,1783 2235,1782 2250,1782 2251,1783 2261,1783 2262,1782 2272,1782 2273,1781 2296,1781 2297,1782 2305,1782 2306,1781 2365,1781 2366,1782 2377,1782 2378,1783 2404,1783 2405,1782 2438,1782 2439,1781 2445,1781 2446,1782 2450,1782 2451,1783 2511,1783 2512,1782 2581,1782 2582,1781 2606,1781 2607,1782 2616,1782 2617,1781 2624,1781 2625,1782 2642,1782 2643,1783 2661,1783 2662,1782 2674,1782 2675,1783 2751,1783 2752,1784 2768,1784 2769,1783 2833,1783 2834,1784 2845,1784 2846,1783 2851,1783 2852,1784 2930,1784 2931,1785 2935,1785 2936,1784 2951,1784 2952,1785 2984,1785 2985,1784 3002,1784 3003,1785 3007,1785 3008,1784 3095,1784 3096,1785 3124,1785 3125,1784 3127,1784 3128,1783 3129,1783 3130,1782 3131,1782 3134,1779 3134,1778 3135,1777 3135,1773 3136,1772 3136,1768 3137,1767 3137,1762 3136,1761 3136,1746 3137,1745 3137,1739 3136,1738 3136,1727 3137,1726 3137,1677 3138,1676 3138,1667 3137,1666 3137,1654 3138,1653 3138,1608 3139,1607 3139,1594 3138,1593 3138,1581 3139,1580 3139,1526 3138,1525 3138,1407 3137,1406 3137,1405 3134,1402 3133,1402 3132,1401 3131,1401 3130,1400 3128,1400 3127,1399 3121,1399 3120,1398 3084,1398 3083,1399 3055,1399 3054,1398 3049,1398 3048,1399 3036,1399 3035,1398 2998,1398 2997,1399 2985,1399 2984,1400 2976,1400 2975,1401 2962,1401 2961,1402 2953,1402 2952,1403 2948,1403 2947,1404 2921,1404 2920,1403 2907,1403 2906,1402 2899,1402 2898,1401 2893,1401 2892,1400 2886,1400 2885,1399 2869,1399 2868,1398 2853,1398 2852,1399 2834,1399 2833,1400 2829,1400 2828,1401 2823,1401 2822,1402 2795,1402 2794,1403 2756,1403 2755,1402 2743,1402 2742,1403 2730,1403 2729,1404 2717,1404 2716,1403 2706,1403 2705,1402 2689,1402 2688,1401 2682,1401 2681,1400 2675,1400 2674,1399 2670,1399 2669,1398 2665,1398 2664,1397 2658,1397 2657,1396 2653,1396 2652,1397 2648,1397 2647,1396 2629,1396 2628,1395 2608,1395 2607,1396 2599,1396 2598,1397 2579,1397 2578,1398 2572,1398 2571,1397 2546,1397 2545,1396 2533,1396 2532,1395 2526,1395 2525,1394 2524,1395 2513,1395 2512,1394 2469,1394 2468,1393 2428,1393 2427,1392 2418,1392 2417,1393 2391,1393 2390,1394 2381,1394 2380,1393 2374,1393 2373,1392 2351,1392 2350,1391" fill="rgba(57,21,252,0.3)" stroke="rgb(57,21,252)" stroke-width="2" data-block-id="0006" data-name="b-0016" /><text x="2528" y="1562" text-anchor="middle" dominant-baseline="middle" class="block-label" fill="rgb(57,21,252)" stroke="white" stroke-width="3" paint-order="stroke">b-0016</text><polygon points="873,410 872,411 869,411 868,412 867,412 866,413 864,413 863,414 861,414 860,415 858,415 857,416 843,416 842,415 823,415 822,414 801,414 800,413 791,413 790,414 786,414 785,415 759,415 758,416 745,416 744,415 741,415 740,414 737,414 736,413 734,413 733,412 719,412 718,413 690,413 689,414 682,414 681,413 669,413 668,414 629,414 628,415 626,415 625,416 624,416 623,417 623,418 621,420 621,423 620,424 620,429 621,430 621,478 622,479 622,485 623,486 623,489 624,490 624,493 625,494 625,521 626,522 626,542 625,543 625,565 624,566 624,570 623,571 623,576 622,577 622,582 621,583 621,598 622,599 622,605 621,606 621,629 622,630 622,633 623,634 623,637 624,638 624,645 625,646 625,653 624,654 624,669 625,670 625,675 624,676 624,679 623,680 623,704 622,705 622,713 623,714 623,729 622,730 622,736 623,737 623,749 624,750 624,756 625,757 625,758 627,760 629,760 630,761 632,761 633,762 636,762 637,763 641,763 642,764 648,764 649,765 689,765 690,766 708,766 709,767 803,767 804,768 826,768 827,767 838,767 839,766 854,766 855,767 890,767 891,766 923,766 924,767 934,767 935,768 944,768 945,767 952,767 953,766 958,766 959,765 964,765 965,766 988,766 989,767 1006,767 1007,766 1031,766 1032,767 1061,767 1062,766 1080,766 1081,767 1128,767 1129,768 1145,768 1146,769 1153,769 1154,768 1196,768 1197,769 1219,769 1220,768 1270,768 1271,769 1290,769 1291,770 1308,770 1309,769 1326,769 1327,770 1364,770 1365,771 1393,771 1394,770 1421,770 1422,771 1435,771 1436,772 1437,771 1443,771 1444,770 1459,770 1460,771 1482,771 1483,770 1497,770 1498,771 1505,771 1506,772 1509,772 1510,773 1511,773 1512,772 1517,772 1518,771 1521,771 1522,772 1525,772 1526,773 1529,773 1530,774 1535,774 1536,773 1537,773 1538,772 1540,772 1541,771 1597,771 1598,772 1616,772 1617,773 1624,773 1625,774 1630,774 1631,773 1634,773 1635,772 1698,772 1699,773 1718,773 1719,774 1728,774 1729,773 1742,773 1743,772 1809,772 1810,773 1812,773 1813,774 1817,774 1818,775 1819,774 1821,774 1824,771 1825,771 1827,769 1827,768 1828,767 1828,764 1829,763 1829,682 1830,681 1830,599 1831,598 1831,584 1832,583 1832,576 1831,575 1831,568 1830,567 1830,550 1831,549 1831,542 1832,541 1832,528 1831,527 1831,519 1830,518 1830,505 1831,504 1831,497 1832,496 1832,479 1831,478 1831,457 1832,456 1832,452 1833,451 1833,442 1832,441 1832,436 1831,435 1831,433 1829,431 1829,430 1826,427 1826,426 1824,424 1823,424 1822,423 1821,423 1820,422 1735,422 1734,421 1729,421 1728,420 1726,420 1725,419 1708,419 1707,418 1698,418 1697,419 1695,419 1694,420 1691,420 1690,421 1681,421 1680,420 1646,420 1645,421 1639,421 1638,420 1635,420 1634,419 1633,419 1632,418 1631,418 1630,417 1628,417 1627,416 1604,416 1603,417 1601,417 1600,418 1597,418 1596,419 1592,419 1591,420 1561,420 1560,419 1555,419 1554,420 1550,420 1549,421 1543,421 1542,420 1541,420 1540,419 1539,419 1534,414 1533,414 1532,413 1519,413 1518,414 1516,414 1515,415 1512,415 1511,416 1509,416 1508,417 1507,417 1506,418 1504,418 1503,419 1498,419 1497,420 1492,420 1491,419 1482,419 1481,420 1448,420 1447,419 1444,419 1443,418 1441,418 1440,417 1437,417 1436,416 1435,416 1434,417 1427,417 1426,418 1420,418 1419,419 1364,419 1363,418 1355,418 1354,417 1350,417 1349,416 1343,416 1342,415 1340,415 1339,416 1279,416 1278,417 1269,417 1268,416 1266,416 1265,415 1264,415 1263,414 1262,414 1261,413 1260,413 1259,412 1253,412 1252,413 1247,413 1246,414 1243,414 1242,415 1238,415 1237,416 1217,416 1216,415 1211,415 1210,414 1193,414 1192,415 1184,415 1183,416 1177,416 1176,417 1175,416 1171,416 1170,415 1169,415 1168,414 1166,414 1165,413 1154,413 1153,414 1139,414 1138,413 1135,413 1134,412 1131,412 1130,411 1123,411 1122,410 1117,410 1116,411 1114,411 1113,412 1112,412 1111,413 1110,413 1109,414 1108,414 1107,415 1106,415 1105,416 1068,416 1067,415 1046,415 1045,416 1035,416 1034,417 1022,417 1021,416 989,416 988,415 983,415 982,414 979,414 978,413 977,413 976,412 975,412 974,411 973,411 972,410 970,410 969,411 965,411 964,412 962,412 961,413 960,413 959,414 958,414 957,415 955,415 954,416 903,416 902,417 899,417 898,416 890,416 889,415 887,415 886,414 884,414 883,413 882,413 880,411 879,411 878,410" fill="rgba(235,88,48,0.3)" stroke="rgb(235,88,48)" stroke-width="2" data-block-id="0007" data-name="b-0017" /><text x="1208" y="545" text-anchor="middle" dominant-baseline="middle" class="block-label" fill="rgb(235,88,48)" stroke="white" stroke-width="3" paint-order="stroke">b-0017</text><polygon points="3624,436 3623,437 3621,437 3620,438 3616,438 3615,439 3610,439 3609,438 3599,438 3598,439 3596,439 3595,440 3591,440 3590,441 3585,441 3584,440 3576,440 3575,441 3571,441 3570,442 3559,442 3558,441 3548,441 3547,442 3525,442 3524,441 3468,441 3467,440 3448,440 3447,441 3445,441 3444,440 3434,440 3433,439 3414,439 3413,440 3407,440 3406,439 3394,439 3393,438 3380,438 3379,439 3372,439 3371,438 3366,438 3365,437 3358,437 3357,438 3336,438 3335,439 3330,439 3329,440 3322,440 3321,439 3302,439 3301,440 3299,440 3298,441 3297,441 3296,442 3295,442 3292,445 3292,446 3291,447 3291,449 3290,450 3290,454 3289,455 3289,485 3288,486 3288,495 3287,496 3287,501 3288,502 3288,647 3289,648 3289,656 3288,657 3288,738 3287,739 3287,763 3288,764 3288,766 3289,767 3289,769 3290,770 3290,773 3291,774 3291,776 3292,777 3292,779 3293,780 3296,780 3297,781 3299,781 3300,782 3309,782 3310,783 3325,783 3326,784 3338,784 3339,785 3355,785 3356,784 3369,784 3370,783 3384,783 3385,784 3417,784 3418,785 3431,785 3432,784 3436,784 3437,785 3447,785 3448,784 3451,784 3452,783 3457,783 3458,782 3465,782 3466,783 3516,783 3517,784 3542,784 3543,783 3546,783 3547,782 3549,782 3551,780 3552,780 3553,779 3554,779 3555,778 3558,778 3559,777 3567,777 3568,778 3570,778 3571,779 3573,779 3574,780 3603,780 3604,779 3609,779 3610,778 3651,778 3652,777 3658,777 3659,776 3662,776 3663,777 3671,777 3672,778 3693,778 3694,779 3699,779 3700,778 3713,778 3714,779 3720,779 3721,780 3739,780 3740,779 3759,779 3760,780 3767,780 3768,781 3783,781 3784,782 3788,782 3789,783 3807,783 3808,784 3821,784 3822,783 3836,783 3837,784 3849,784 3850,785 3852,785 3853,784 3861,784 3862,783 3872,783 3873,784 3919,784 3920,783 3926,783 3927,784 3966,784 3967,785 4004,785 4005,784 4008,784 4009,785 4015,785 4016,786 4022,786 4023,785 4044,785 4045,784 4081,784 4082,783 4094,783 4095,784 4100,784 4101,785 4133,785 4134,784 4142,784 4143,785 4189,785 4190,786 4213,786 4214,785 4218,785 4219,784 4239,784 4240,785 4247,785 4248,786 4355,786 4356,785 4380,785 4381,786 4409,786 4410,785 4481,785 4482,784 4494,784 4495,783 4497,783 4499,781 4499,780 4500,779 4500,776 4501,775 4501,770 4502,769 4502,754 4501,753 4501,694 4502,693 4502,686 4503,685 4503,684 4502,683 4502,661 4501,660 4501,616 4502,615 4502,566 4503,565 4502,564 4502,550 4503,549 4503,545 4504,544 4504,541 4503,540 4503,538 4502,537 4502,534 4501,533 4501,526 4502,525 4502,499 4501,498 4501,467 4500,466 4500,455 4499,454 4499,450 4498,449 4498,448 4497,447 4497,446 4496,446 4495,445 4493,445 4492,444 4487,444 4486,443 4478,443 4477,442 4447,442 4446,441 4440,441 4439,440 4437,440 4436,439 4432,439 4431,438 4426,438 4425,437 4423,437 4422,438 4413,438 4412,439 4409,439 4408,440 4403,440 4402,441 4399,441 4398,440 4386,440 4385,441 4380,441 4379,442 4374,442 4373,441 4358,441 4357,442 4346,442 4345,441 4339,441 4338,442 4333,442 4332,443 4327,443 4326,442 4323,442 4322,441 4308,441 4307,442 4302,442 4301,441 4247,441 4246,442 4239,442 4238,443 4226,443 4225,442 4220,442 4219,443 4201,443 4200,442 4176,442 4175,443 4168,443 4167,444 4158,444 4157,443 4141,443 4140,444 4137,444 4136,443 4129,443 4128,442 4113,442 4112,443 4110,443 4109,444 4107,444 4106,445 4105,445 4104,446 4101,446 4100,445 4097,445 4096,444 4091,444 4090,443 4058,443 4057,442 4054,442 4053,443 4034,443 4033,442 4026,442 4025,443 4017,443 4016,442 4012,442 4011,441 4009,441 4008,440 4006,440 4005,439 4002,439 4001,438 3998,438 3997,437 3990,437 3989,438 3985,438 3984,439 3975,439 3974,440 3969,440 3968,439 3916,439 3915,438 3911,438 3910,439 3906,439 3905,440 3892,440 3891,439 3874,439 3873,438 3869,438 3868,437 3860,437 3859,438 3856,438 3855,439 3821,439 3820,438 3815,438 3814,439 3811,439 3810,440 3805,440 3804,441 3782,441 3781,440 3773,440 3772,439 3762,439 3761,440 3752,440 3751,439 3741,439 3740,440 3726,440 3725,439 3712,439 3711,440 3701,440 3700,439 3697,439 3696,440 3688,440 3687,441 3682,441 3681,440 3650,440 3649,439 3643,439 3642,438 3636,438 3635,437 3628,437 3627,436" fill="rgba(218,58,254,0.3)" stroke="rgb(218,58,254)" stroke-width="2" data-block-id="0008" data-name="b-0018" /><text x="3889" y="577" text-anchor="middle" dominant-baseline="middle" class="block-label" fill="rgb(218,58,254)" stroke="white" stroke-width="3" paint-order="stroke">b-0018</text><polygon points="1410,1891 1409,1892 1405,1892 1404,1893 1381,1893 1380,1894 1372,1894 1371,1893 1365,1893 1364,1894 1346,1894 1345,1893 1318,1893 1317,1894 1297,1894 1296,1893 1292,1893 1291,1894 1269,1894 1268,1895 1254,1895 1253,1894 1243,1894 1242,1893 1199,1893 1198,1894 1163,1894 1162,1893 1145,1893 1144,1894 1137,1894 1136,1893 1126,1893 1125,1894 1122,1894 1121,1895 1119,1895 1118,1896 1112,1896 1111,1895 1104,1895 1103,1894 1083,1894 1082,1895 1064,1895 1063,1894 1040,1894 1039,1895 1016,1895 1015,1894 1003,1894 1002,1895 989,1895 988,1896 979,1896 978,1895 967,1895 966,1894 956,1894 955,1895 942,1895 941,1896 932,1896 931,1895 904,1895 903,1896 891,1896 890,1897 887,1897 886,1896 875,1896 874,1895 859,1895 858,1896 848,1896 847,1897 836,1897 835,1896 824,1896 823,1895 780,1895 779,1894 765,1894 764,1895 748,1895 747,1896 734,1896 733,1895 725,1895 724,1894 719,1894 718,1895 713,1895 712,1896 684,1896 683,1895 639,1895 638,1896 631,1896 630,1897 628,1897 626,1899 626,1903 625,1904 625,1925 624,1926 624,1941 623,1942 623,1947 624,1948 624,2004 625,2005 625,2015 626,2016 626,2032 627,2033 627,2044 628,2045 628,2051 629,2052 629,2066 630,2067 630,2077 631,2078 631,2084 632,2085 632,2090 633,2091 633,2101 634,2102 634,2111 635,2112 635,2126 636,2127 636,2131 637,2132 637,2134 638,2135 638,2138 639,2139 639,2141 640,2142 640,2146 641,2147 641,2155 642,2156 642,2174 643,2175 643,2187 644,2188 644,2193 645,2194 645,2220 646,2221 646,2250 647,2251 647,2258 648,2259 648,2261 649,2262 649,2264 651,2266 651,2267 653,2267 654,2268 658,2268 659,2269 664,2269 665,2270 681,2270 682,2269 689,2269 690,2268 699,2268 700,2267 709,2267 710,2266 713,2266 714,2265 716,2265 717,2264 718,2264 720,2262 727,2262 728,2263 736,2263 737,2262 740,2262 741,2261 743,2261 744,2260 760,2260 761,2259 764,2259 765,2258 769,2258 770,2257 783,2257 784,2256 785,2256 787,2254 788,2254 789,2253 792,2253 793,2252 795,2252 796,2253 799,2253 800,2254 803,2254 804,2255 806,2255 807,2254 809,2254 810,2253 813,2253 814,2252 819,2252 820,2251 828,2251 829,2250 830,2250 831,2249 833,2249 834,2248 836,2248 837,2247 851,2247 852,2246 857,2246 858,2245 862,2245 863,2244 868,2244 869,2243 873,2243 874,2242 877,2242 878,2241 882,2241 883,2240 899,2240 900,2239 908,2239 909,2238 916,2238 917,2237 921,2237 922,2236 926,2236 927,2235 932,2235 933,2234 940,2234 941,2233 950,2233 951,2232 954,2232 955,2231 957,2231 958,2230 969,2230 970,2229 975,2229 976,2228 980,2228 981,2227 987,2227 988,2228 993,2228 994,2229 996,2229 997,2228 1000,2228 1001,2227 1004,2227 1005,2226 1013,2226 1014,2225 1021,2225 1022,2224 1025,2224 1026,2223 1031,2223 1032,2222 1042,2222 1043,2221 1049,2221 1050,2220 1055,2220 1056,2219 1067,2219 1068,2218 1072,2218 1073,2217 1077,2217 1078,2216 1093,2216 1094,2215 1099,2215 1100,2214 1116,2214 1117,2213 1120,2213 1121,2212 1124,2212 1125,2211 1144,2211 1145,2210 1150,2210 1151,2209 1156,2209 1157,2210 1162,2210 1163,2209 1165,2209 1166,2208 1168,2208 1170,2206 1171,2206 1172,2205 1175,2205 1176,2204 1191,2204 1192,2203 1195,2203 1196,2202 1204,2202 1205,2201 1213,2201 1214,2200 1219,2200 1220,2199 1231,2199 1232,2198 1238,2198 1239,2197 1241,2197 1242,2196 1244,2196 1245,2195 1260,2195 1261,2194 1265,2194 1266,2193 1273,2193 1274,2192 1285,2192 1286,2191 1289,2191 1290,2190 1308,2190 1309,2189 1313,2189 1314,2188 1324,2188 1325,2187 1337,2187 1338,2188 1350,2188 1351,2189 1355,2189 1356,2188 1359,2188 1360,2187 1363,2187 1364,2186 1368,2186 1369,2185 1376,2185 1377,2184 1379,2184 1380,2183 1381,2183 1382,2182 1384,2182 1385,2181 1388,2181 1389,2180 1393,2180 1394,2181 1405,2181 1406,2180 1409,2180 1410,2179 1412,2179 1413,2178 1421,2178 1422,2177 1434,2177 1435,2176 1449,2176 1450,2175 1452,2175 1453,2174 1455,2174 1456,2173 1457,2173 1458,2172 1462,2172 1463,2171 1464,2172 1474,2172 1475,2171 1476,2171 1477,2170 1478,2170 1479,2169 1482,2169 1483,2168 1497,2168 1498,2167 1524,2167 1525,2166 1528,2166 1529,2165 1532,2165 1533,2164 1537,2164 1538,2163 1541,2163 1542,2162 1544,2162 1545,2161 1548,2161 1549,2160 1552,2160 1553,2159 1570,2159 1571,2158 1573,2158 1574,2157 1577,2157 1578,2156 1582,2156 1583,2155 1588,2155 1589,2154 1599,2154 1600,2153 1611,2153 1612,2152 1628,2152 1629,2151 1633,2151 1634,2150 1637,2150 1638,2149 1643,2149 1644,2148 1650,2148 1651,2147 1655,2147 1656,2146 1662,2146 1663,2145 1669,2145 1670,2144 1677,2144 1678,2143 1685,2143 1686,2142 1704,2142 1705,2141 1709,2141 1710,2140 1729,2140 1730,2139 1740,2139 1741,2138 1745,2138 1746,2137 1751,2137 1752,2136 1758,2136 1759,2135 1763,2135 1764,2134 1766,2134 1767,2133 1771,2133 1772,2132 1788,2132 1789,2131 1803,2131 1804,2130 1810,2130 1811,2129 1813,2129 1814,2128 1816,2128 1817,2127 1819,2127 1820,2126 1821,2126 1822,2125 1823,2125 1826,2122 1826,2121 1827,2120 1827,2118 1828,2117 1828,2051 1827,2050 1827,2045 1826,2044 1826,2031 1827,2030 1827,2025 1828,2024 1828,2019 1829,2018 1829,2008 1830,2007 1830,2003 1829,2002 1829,1976 1830,1975 1830,1943 1829,1942 1829,1939 1828,1938 1828,1936 1827,1935 1827,1931 1828,1930 1828,1927 1829,1926 1829,1922 1830,1921 1830,1920 1829,1919 1829,1910 1828,1909 1828,1906 1827,1905 1827,1904 1826,1903 1826,1901 1825,1900 1825,1899 1823,1897 1823,1896 1822,1896 1820,1894 1818,1894 1817,1893 1802,1893 1801,1892 1791,1892 1790,1893 1776,1893 1775,1892 1751,1892 1750,1891 1748,1891 1747,1892 1743,1892 1742,1893 1736,1893 1735,1894 1731,1894 1730,1893 1721,1893 1720,1894 1710,1894 1709,1893 1704,1893 1703,1892 1698,1892 1697,1893 1696,1893 1695,1894 1693,1894 1692,1895 1690,1895 1689,1896 1686,1896 1685,1895 1681,1895 1680,1894 1656,1894 1655,1893 1654,1893 1653,1894 1646,1894 1645,1895 1637,1895 1636,1894 1629,1894 1628,1893 1621,1893 1620,1894 1618,1894 1617,1893 1600,1893 1599,1894 1579,1894 1578,1893 1529,1893 1528,1894 1506,1894 1505,1893 1465,1893 1464,1892 1460,1892 1459,1893 1452,1893 1451,1894 1450,1894 1449,1893 1443,1893 1442,1892 1437,1892 1436,1891" fill="rgba(207,14,189,0.3)" stroke="rgb(207,14,189)" stroke-width="2" data-block-id="0009" data-name="b-0020" /><text x="1225" y="2088" text-anchor="middle" dominant-baseline="middle" class="block-label" fill="rgb(207,14,189)" stroke="white" stroke-width="3" paint-order="stroke">b-0020</text><polygon points="4049,1938 4048,1939 4041,1939 4040,1940 4036,1940 4035,1941 4030,1941 4029,1942 4022,1942 4021,1943 4006,1943 4005,1944 3993,1944 3992,1945 3989,1945 3988,1946 3982,1946 3981,1947 3969,1947 3968,1948 3962,1948 3961,1949 3952,1949 3951,1950 3945,1950 3944,1951 3938,1951 3937,1952 3926,1952 3925,1953 3919,1953 3918,1954 3916,1954 3915,1955 3913,1955 3912,1956 3905,1956 3904,1957 3896,1957 3895,1958 3891,1958 3890,1959 3884,1959 3883,1960 3877,1960 3876,1961 3870,1961 3869,1962 3864,1962 3863,1963 3856,1963 3855,1964 3848,1964 3847,1965 3840,1965 3839,1966 3828,1966 3827,1967 3823,1967 3822,1968 3816,1968 3815,1969 3809,1969 3808,1970 3799,1970 3798,1971 3792,1971 3791,1972 3786,1972 3785,1973 3778,1973 3777,1974 3771,1974 3770,1975 3763,1975 3762,1976 3755,1976 3754,1977 3750,1977 3749,1978 3744,1978 3743,1979 3738,1979 3737,1980 3734,1980 3733,1981 3730,1981 3729,1982 3726,1982 3725,1983 3724,1983 3723,1984 3722,1984 3721,1985 3709,1985 3708,1986 3707,1986 3706,1987 3705,1987 3703,1989 3702,1989 3701,1990 3701,1991 3699,1993 3699,1994 3698,1995 3698,2001 3697,2002 3697,2008 3698,2009 3698,2018 3699,2019 3699,2023 3700,2024 3700,2030 3701,2031 3701,2035 3702,2036 3702,2041 3703,2042 3703,2049 3704,2050 3704,2055 3705,2056 3705,2063 3706,2064 3706,2069 3707,2070 3707,2076 3708,2077 3708,2083 3709,2084 3709,2095 3710,2096 3710,2107 3711,2108 3711,2114 3712,2115 3712,2128 3713,2129 3713,2135 3714,2136 3714,2143 3715,2144 3715,2149 3716,2150 3716,2154 3717,2155 3717,2158 3718,2159 3718,2167 3719,2168 3719,2176 3720,2177 3720,2182 3721,2183 3721,2187 3722,2188 3722,2192 3723,2193 3723,2198 3724,2199 3724,2203 3725,2204 3725,2209 3726,2210 3726,2224 3727,2225 3727,2231 3728,2232 3728,2237 3729,2238 3729,2243 3730,2244 3730,2249 3731,2250 3731,2257 3732,2258 3732,2264 3733,2265 3733,2270 3734,2271 3734,2275 3735,2276 3735,2288 3736,2289 3736,2296 3737,2297 3737,2301 3738,2302 3738,2310 3739,2311 3739,2319 3740,2320 3740,2325 3741,2326 3741,2333 3742,2334 3742,2339 3743,2340 3743,2344 3744,2345 3744,2349 3745,2350 3745,2353 3746,2354 3746,2355 3747,2356 3747,2359 3748,2360 3748,2362 3749,2363 3749,2366 3750,2367 3750,2370 3751,2371 3751,2373 3752,2374 3752,2378 3753,2379 3753,2383 3754,2384 3754,2389 3755,2390 3755,2395 3756,2396 3756,2403 3757,2404 3757,2414 3758,2415 3758,2426 3759,2427 3759,2452 3760,2453 3760,2468 3761,2469 3761,2474 3762,2475 3762,2479 3763,2480 3763,2483 3764,2484 3764,2499 3765,2500 3765,2505 3766,2506 3766,2512 3767,2513 3767,2520 3768,2521 3768,2526 3769,2527 3769,2531 3770,2532 3770,2539 3771,2540 3771,2546 3772,2547 3772,2553 3773,2554 3773,2559 3774,2560 3774,2565 3775,2566 3775,2570 3776,2571 3776,2576 3777,2577 3777,2583 3778,2584 3778,2590 3779,2591 3779,2602 3780,2603 3780,2608 3781,2609 3781,2616 3782,2617 3782,2624 3783,2625 3783,2632 3784,2633 3784,2640 3785,2641 3785,2644 3786,2645 3786,2648 3787,2649 3787,2653 3788,2654 3788,2659 3789,2660 3789,2664 3790,2665 3790,2667 3791,2668 3791,2670 3793,2672 3793,2680 3792,2681 3792,2688 3793,2689 3793,2696 3794,2697 3794,2699 3795,2700 3795,2701 3797,2703 3798,2703 3799,2704 3800,2704 3801,2705 3811,2705 3812,2704 3816,2704 3817,2703 3829,2703 3830,2702 3834,2702 3835,2701 3838,2701 3839,2700 3844,2700 3845,2699 3852,2699 3853,2698 3858,2698 3859,2697 3864,2697 3865,2696 3877,2696 3878,2695 3882,2695 3883,2694 3887,2694 3888,2693 3891,2693 3892,2692 3896,2692 3897,2691 3901,2691 3902,2690 3912,2690 3913,2689 3919,2689 3920,2688 3925,2688 3926,2687 3930,2687 3931,2686 3933,2686 3934,2685 3947,2685 3948,2684 3958,2684 3959,2683 3976,2683 3977,2682 3980,2682 3981,2681 3982,2681 3983,2680 3984,2680 3985,2679 3986,2679 3987,2678 3988,2678 3989,2677 3991,2677 3992,2676 3995,2676 3996,2675 4010,2675 4011,2674 4020,2674 4021,2673 4026,2673 4027,2672 4043,2672 4044,2671 4051,2671 4052,2670 4062,2670 4063,2669 4070,2669 4071,2668 4074,2668 4075,2667 4079,2667 4080,2666 4081,2667 4094,2667 4095,2666 4098,2666 4099,2665 4102,2665 4103,2664 4110,2664 4111,2663 4115,2663 4116,2662 4118,2662 4119,2661 4123,2661 4124,2660 4139,2660 4140,2659 4144,2659 4145,2658 4149,2658 4150,2657 4153,2657 4154,2656 4156,2656 4160,2652 4160,2650 4161,2649 4161,2645 4160,2644 4160,2634 4159,2633 4159,2624 4158,2623 4158,2619 4157,2618 4157,2614 4156,2613 4156,2603 4155,2602 4155,2597 4154,2596 4154,2592 4153,2591 4153,2584 4152,2583 4152,2577 4151,2576 4151,2573 4150,2572 4150,2568 4149,2567 4149,2554 4148,2553 4148,2550 4147,2549 4147,2545 4146,2544 4146,2539 4145,2538 4145,2531 4144,2530 4144,2519 4143,2518 4143,2511 4142,2510 4142,2502 4141,2501 4141,2495 4140,2494 4140,2489 4139,2488 4139,2482 4138,2481 4138,2476 4137,2475 4137,2465 4136,2464 4136,2456 4135,2455 4135,2451 4134,2450 4134,2447 4133,2446 4133,2442 4132,2441 4132,2434 4131,2433 4131,2425 4130,2424 4130,2415 4129,2414 4129,2409 4128,2408 4128,2404 4127,2403 4127,2400 4126,2399 4126,2387 4125,2386 4125,2382 4124,2381 4124,2377 4123,2376 4123,2366 4122,2365 4122,2360 4121,2359 4121,2355 4120,2354 4120,2347 4119,2346 4119,2335 4118,2334 4118,2330 4117,2329 4117,2317 4116,2316 4116,2311 4115,2310 4115,2307 4114,2306 4114,2304 4113,2303 4113,2297 4112,2296 4112,2287 4111,2286 4111,2280 4110,2279 4110,2272 4109,2271 4109,2267 4108,2266 4108,2263 4107,2262 4107,2260 4106,2259 4106,2257 4105,2256 4105,2239 4104,2238 4104,2230 4103,2229 4103,2221 4102,2220 4102,2218 4101,2217 4101,2214 4100,2213 4100,2209 4099,2208 4099,2203 4098,2202 4098,2197 4097,2196 4097,2189 4096,2188 4096,2181 4095,2180 4095,2175 4094,2174 4094,2169 4093,2168 4093,2164 4092,2163 4092,2159 4091,2158 4091,2148 4090,2147 4090,2142 4089,2141 4089,2137 4088,2136 4088,2132 4087,2131 4087,2126 4086,2125 4086,2119 4085,2118 4085,2110 4084,2109 4084,2104 4083,2103 4083,2094 4082,2093 4082,2085 4081,2084 4081,2081 4080,2080 4080,2077 4079,2076 4079,2057 4078,2056 4078,2048 4077,2047 4077,2040 4076,2039 4076,2026 4075,2025 4075,2016 4074,2015 4074,2003 4073,2002 4073,1999 4072,1998 4072,1995 4071,1994 4071,1989 4070,1988 4070,1982 4069,1981 4069,1975 4068,1974 4068,1968 4067,1967 4067,1963 4066,1962 4066,1958 4065,1957 4065,1953 4064,1952 4064,1949 4063,1948 4063,1946 4062,1945 4062,1944 4061,1943 4061,1942 4058,1939 4057,1939 4056,1938" fill="rgba(50,107,54,0.3)" stroke="rgb(50,107,54)" stroke-width="2" data-block-id="0010" data-name="b-0022" /><text x="3925" y="2322" text-anchor="middle" dominant-baseline="middle" class="block-label" fill="rgb(50,107,54)" stroke="white" stroke-width="3" paint-order="stroke">b-0022</text><polygon points="4504,1878 4503,1879 4494,1879 4493,1880 4488,1880 4487,1881 4480,1881 4479,1882 4470,1882 4469,1883 4462,1883 4461,1884 4457,1884 4456,1885 4454,1885 4453,1886 4451,1886 4450,1887 4445,1887 4444,1888 4437,1888 4436,1889 4432,1889 4431,1890 4426,1890 4425,1891 4416,1891 4415,1892 4403,1892 4402,1893 4397,1893 4396,1894 4393,1894 4392,1895 4385,1895 4384,1896 4373,1896 4372,1897 4367,1897 4366,1898 4353,1898 4352,1899 4349,1899 4348,1900 4345,1900 4344,1901 4338,1901 4337,1902 4327,1902 4326,1903 4321,1903 4320,1904 4313,1904 4312,1905 4303,1905 4302,1906 4297,1906 4296,1907 4285,1907 4284,1908 4277,1908 4276,1909 4273,1909 4272,1910 4268,1910 4267,1911 4262,1911 4261,1912 4252,1912 4251,1913 4238,1913 4237,1914 4232,1914 4231,1915 4229,1915 4228,1916 4225,1916 4224,1917 4220,1917 4219,1918 4207,1918 4206,1919 4202,1919 4201,1920 4196,1920 4195,1921 4190,1921 4189,1922 4185,1922 4184,1923 4181,1923 4180,1924 4177,1924 4176,1925 4174,1925 4173,1926 4172,1926 4171,1927 4170,1927 4168,1929 4168,1930 4167,1931 4167,1932 4166,1933 4166,1938 4167,1939 4167,1945 4168,1946 4168,1953 4169,1954 4169,1970 4170,1971 4170,1977 4171,1978 4171,1985 4172,1986 4172,1992 4173,1993 4173,1999 4174,2000 4174,2007 4175,2008 4175,2013 4176,2014 4176,2018 4177,2019 4177,2023 4178,2024 4178,2029 4179,2030 4179,2036 4180,2037 4180,2043 4181,2044 4181,2050 4182,2051 4182,2057 4183,2058 4183,2064 4184,2065 4184,2078 4185,2079 4185,2083 4186,2084 4186,2088 4187,2089 4187,2094 4188,2095 4188,2101 4189,2102 4189,2115 4190,2116 4190,2122 4191,2123 4191,2129 4192,2130 4192,2135 4193,2136 4193,2140 4194,2141 4194,2146 4195,2147 4195,2154 4196,2155 4196,2163 4197,2164 4197,2168 4198,2169 4198,2174 4199,2175 4199,2179 4200,2180 4200,2185 4201,2186 4201,2191 4202,2192 4202,2199 4203,2200 4203,2205 4204,2206 4204,2217 4205,2218 4205,2225 4206,2226 4206,2242 4207,2243 4207,2251 4208,2252 4208,2264 4209,2265 4209,2271 4210,2272 4210,2276 4211,2277 4211,2282 4212,2283 4212,2287 4213,2288 4213,2293 4214,2294 4214,2303 4215,2304 4215,2308 4216,2309 4216,2313 4217,2314 4217,2322 4218,2323 4218,2329 4219,2330 4219,2337 4220,2338 4220,2345 4221,2346 4221,2351 4222,2352 4222,2358 4223,2359 4223,2365 4224,2366 4224,2370 4225,2371 4225,2375 4226,2376 4226,2384 4227,2385 4227,2395 4228,2396 4228,2408 4229,2409 4229,2417 4230,2418 4230,2425 4231,2426 4231,2435 4232,2436 4232,2443 4233,2444 4233,2460 4234,2461 4234,2463 4235,2464 4235,2466 4236,2467 4236,2470 4237,2471 4237,2474 4238,2475 4238,2479 4239,2480 4239,2482 4240,2483 4240,2488 4241,2489 4241,2496 4242,2497 4242,2501 4243,2502 4243,2504 4244,2505 4244,2527 4245,2528 4245,2532 4246,2533 4246,2536 4247,2537 4247,2539 4248,2540 4248,2553 4249,2554 4249,2558 4250,2559 4250,2563 4251,2564 4251,2573 4252,2574 4252,2577 4253,2578 4253,2579 4254,2580 4254,2589 4257,2592 4257,2596 4258,2597 4258,2602 4259,2603 4259,2605 4258,2606 4258,2615 4259,2616 4259,2624 4260,2625 4260,2631 4261,2632 4261,2635 4262,2636 4262,2637 4265,2640 4267,2640 4268,2641 4274,2641 4275,2640 4280,2640 4281,2639 4285,2639 4286,2638 4289,2638 4290,2637 4298,2637 4299,2636 4307,2636 4308,2635 4310,2635 4311,2634 4314,2634 4315,2633 4329,2633 4330,2632 4333,2632 4334,2631 4338,2631 4339,2630 4346,2630 4347,2629 4365,2629 4366,2628 4373,2628 4374,2627 4378,2627 4379,2626 4381,2626 4382,2625 4384,2625 4385,2624 4387,2624 4388,2623 4401,2623 4402,2622 4407,2622 4408,2621 4414,2621 4415,2620 4423,2620 4424,2619 4431,2619 4432,2618 4452,2618 4453,2617 4456,2617 4457,2616 4462,2616 4463,2615 4471,2615 4472,2614 4474,2614 4475,2613 4477,2613 4478,2612 4479,2612 4480,2611 4485,2611 4486,2610 4495,2610 4496,2609 4501,2609 4502,2608 4507,2608 4508,2607 4518,2607 4519,2606 4526,2606 4527,2605 4536,2605 4537,2604 4543,2604 4544,2603 4552,2603 4553,2602 4559,2602 4560,2601 4563,2601 4564,2600 4568,2600 4569,2599 4583,2599 4584,2598 4594,2598 4595,2597 4601,2597 4602,2596 4607,2596 4608,2595 4611,2595 4612,2594 4614,2594 4615,2593 4616,2593 4618,2591 4618,2590 4619,2589 4619,2575 4618,2574 4618,2568 4617,2567 4617,2562 4616,2561 4616,2556 4615,2555 4615,2547 4614,2546 4614,2541 4613,2540 4613,2535 4612,2534 4612,2527 4611,2526 4611,2515 4610,2514 4610,2503 4609,2502 4609,2491 4608,2490 4608,2484 4607,2483 4607,2474 4606,2473 4606,2468 4605,2467 4605,2462 4604,2461 4604,2456 4603,2455 4603,2451 4602,2450 4602,2442 4601,2441 4601,2431 4600,2430 4600,2426 4599,2425 4599,2408 4598,2407 4598,2401 4597,2400 4597,2396 4596,2395 4596,2390 4595,2389 4595,2380 4594,2379 4594,2372 4593,2371 4593,2367 4592,2366 4592,2360 4591,2359 4591,2353 4590,2352 4590,2350 4589,2349 4589,2347 4588,2346 4588,2343 4587,2342 4587,2336 4586,2335 4586,2326 4585,2325 4585,2319 4584,2318 4584,2302 4583,2301 4583,2297 4582,2296 4582,2291 4581,2290 4581,2285 4580,2284 4580,2279 4579,2278 4579,2270 4578,2269 4578,2265 4577,2264 4577,2260 4576,2259 4576,2254 4575,2253 4575,2249 4574,2248 4574,2242 4573,2241 4573,2231 4572,2230 4572,2219 4571,2218 4571,2212 4570,2211 4570,2206 4569,2205 4569,2202 4568,2201 4568,2200 4567,2199 4567,2196 4566,2195 4566,2189 4565,2188 4565,2182 4564,2181 4564,2177 4563,2176 4563,2170 4562,2169 4562,2162 4561,2161 4561,2155 4560,2154 4560,2149 4559,2148 4559,2129 4558,2128 4558,2119 4557,2118 4557,2110 4556,2109 4556,2106 4555,2105 4555,2103 4554,2102 4554,2100 4553,2099 4553,2096 4552,2095 4552,2091 4551,2090 4551,2076 4550,2075 4550,2071 4549,2070 4549,2065 4548,2064 4548,2058 4547,2057 4547,2039 4546,2038 4546,2032 4545,2031 4545,2023 4544,2022 4544,2016 4543,2015 4543,2012 4542,2011 4542,2007 4541,2006 4541,1996 4540,1995 4540,1990 4539,1989 4539,1983 4538,1982 4538,1966 4537,1965 4537,1958 4536,1957 4536,1948 4535,1947 4535,1942 4534,1941 4534,1935 4533,1934 4533,1928 4532,1927 4532,1921 4531,1920 4531,1915 4530,1914 4530,1909 4529,1908 4529,1905 4528,1904 4528,1901 4527,1900 4527,1897 4526,1896 4527,1895 4527,1887 4526,1886 4526,1884 4525,1883 4525,1882 4522,1879 4521,1879 4520,1878" fill="rgba(243,63,248,0.3)" stroke="rgb(243,63,248)" stroke-width="2" data-block-id="0011" data-name="b-0023" /><text x="4389" y="2256" text-anchor="middle" dominant-baseline="middle" class="block-label" fill="rgb(243,63,248)" stroke="white" stroke-width="3" paint-order="stroke">b-0023</text><polygon points="3582,2009 3581,2010 3570,2010 3569,2011 3563,2011 3562,2012 3560,2012 3559,2013 3556,2013 3555,2014 3550,2014 3549,2013 3539,2013 3538,2014 3534,2014 3533,2015 3527,2015 3526,2016 3520,2016 3519,2017 3512,2017 3511,2018 3504,2018 3503,2019 3498,2019 3497,2020 3490,2020 3489,2021 3483,2021 3482,2022 3474,2022 3473,2023 3466,2023 3465,2024 3460,2024 3459,2025 3452,2025 3451,2026 3443,2026 3442,2027 3437,2027 3436,2028 3429,2028 3428,2029 3420,2029 3419,2030 3415,2030 3414,2031 3411,2031 3410,2032 3399,2032 3398,2033 3378,2033 3377,2032 3362,2032 3361,2033 3357,2033 3356,2034 3354,2034 3352,2036 3351,2036 3350,2037 3345,2037 3344,2038 3331,2038 3330,2039 3325,2039 3324,2040 3318,2040 3317,2041 3316,2041 3315,2040 3311,2040 3310,2039 3305,2039 3304,2038 3303,2039 3298,2039 3297,2040 3293,2040 3292,2041 3287,2041 3286,2042 3279,2042 3278,2043 3273,2043 3272,2044 3267,2044 3266,2045 3257,2045 3256,2046 3252,2046 3251,2047 3250,2047 3249,2048 3248,2048 3247,2049 3247,2050 3246,2051 3246,2052 3245,2053 3245,2066 3246,2067 3246,2070 3247,2071 3247,2076 3248,2077 3248,2081 3249,2082 3249,2086 3250,2087 3250,2099 3251,2100 3251,2105 3252,2106 3252,2110 3253,2111 3253,2120 3254,2121 3254,2129 3255,2130 3255,2136 3256,2137 3256,2148 3257,2149 3257,2161 3258,2162 3258,2166 3259,2167 3259,2173 3260,2174 3260,2186 3261,2187 3261,2194 3262,2195 3262,2204 3263,2205 3263,2210 3264,2211 3264,2215 3265,2216 3265,2220 3266,2221 3266,2223 3265,2224 3265,2233 3266,2234 3266,2239 3267,2240 3267,2247 3268,2248 3268,2257 3269,2258 3269,2264 3270,2265 3270,2270 3271,2271 3271,2277 3272,2278 3272,2286 3273,2287 3273,2292 3274,2293 3274,2299 3275,2300 3275,2310 3276,2311 3276,2319 3277,2320 3277,2328 3278,2329 3278,2334 3279,2335 3279,2340 3280,2341 3280,2350 3281,2351 3281,2357 3282,2358 3282,2367 3283,2368 3283,2377 3284,2378 3284,2382 3285,2383 3285,2388 3286,2389 3286,2399 3287,2400 3287,2406 3288,2407 3288,2413 3289,2414 3289,2420 3290,2421 3290,2428 3291,2429 3291,2438 3292,2439 3292,2449 3293,2450 3293,2458 3294,2459 3294,2469 3295,2470 3295,2483 3296,2484 3296,2488 3297,2489 3297,2491 3298,2492 3298,2495 3299,2496 3299,2504 3300,2505 3300,2510 3301,2511 3301,2516 3302,2517 3302,2523 3303,2524 3303,2534 3304,2535 3304,2546 3305,2547 3305,2557 3306,2558 3306,2565 3307,2566 3307,2579 3308,2580 3308,2582 3309,2583 3309,2585 3310,2586 3310,2587 3311,2588 3311,2589 3312,2590 3312,2601 3313,2602 3313,2609 3314,2610 3314,2615 3315,2616 3315,2623 3316,2624 3316,2631 3317,2632 3317,2637 3318,2638 3318,2645 3319,2646 3319,2653 3320,2654 3320,2659 3321,2660 3321,2665 3322,2666 3322,2670 3323,2671 3323,2675 3324,2676 3324,2683 3325,2684 3325,2694 3326,2695 3326,2711 3327,2712 3327,2717 3328,2718 3328,2724 3329,2725 3329,2735 3330,2736 3330,2742 3331,2743 3331,2757 3332,2758 3332,2760 3333,2761 3333,2762 3337,2766 3339,2766 3340,2767 3342,2767 3343,2766 3355,2766 3356,2765 3365,2765 3366,2764 3374,2764 3375,2763 3379,2763 3380,2762 3386,2762 3387,2761 3394,2761 3395,2760 3403,2760 3404,2759 3412,2759 3413,2758 3421,2758 3422,2757 3426,2757 3427,2756 3429,2756 3430,2755 3433,2755 3434,2754 3447,2754 3448,2753 3457,2753 3458,2752 3463,2752 3464,2751 3466,2751 3467,2750 3468,2750 3469,2749 3470,2749 3471,2748 3472,2748 3473,2747 3474,2747 3475,2746 3476,2746 3477,2745 3480,2745 3481,2744 3486,2744 3487,2743 3492,2743 3493,2742 3497,2742 3498,2741 3501,2741 3502,2740 3507,2740 3508,2739 3515,2739 3516,2738 3520,2738 3521,2737 3525,2737 3526,2736 3536,2736 3537,2735 3546,2735 3547,2734 3553,2734 3554,2733 3570,2733 3571,2732 3575,2732 3576,2731 3593,2731 3594,2730 3604,2730 3605,2731 3621,2731 3622,2730 3629,2730 3630,2729 3634,2729 3635,2728 3638,2728 3639,2727 3645,2727 3646,2726 3653,2726 3654,2725 3661,2725 3662,2724 3674,2724 3675,2723 3679,2723 3680,2722 3684,2722 3685,2721 3688,2721 3690,2719 3691,2719 3692,2718 3692,2717 3693,2716 3693,2715 3694,2714 3694,2697 3693,2696 3693,2692 3692,2691 3692,2688 3691,2687 3691,2682 3690,2681 3690,2674 3689,2673 3689,2663 3688,2662 3688,2654 3687,2653 3687,2647 3686,2646 3686,2641 3685,2640 3685,2634 3684,2633 3684,2626 3683,2625 3683,2620 3682,2619 3682,2614 3681,2613 3681,2608 3680,2607 3680,2601 3679,2600 3679,2594 3678,2593 3678,2583 3677,2582 3677,2571 3676,2570 3676,2562 3675,2561 3675,2556 3674,2555 3674,2549 3673,2548 3673,2544 3672,2543 3672,2537 3671,2536 3671,2530 3670,2529 3670,2524 3669,2523 3669,2519 3668,2518 3668,2511 3667,2510 3667,2505 3666,2504 3666,2501 3665,2500 3665,2496 3664,2495 3664,2489 3663,2488 3663,2480 3662,2479 3662,2475 3661,2474 3661,2469 3660,2468 3660,2458 3659,2457 3659,2452 3658,2451 3658,2444 3657,2443 3657,2430 3656,2429 3656,2422 3655,2421 3655,2416 3654,2415 3654,2411 3653,2410 3653,2406 3652,2405 3652,2400 3651,2399 3651,2393 3650,2392 3650,2385 3649,2384 3649,2374 3648,2373 3648,2363 3647,2362 3647,2356 3646,2355 3646,2349 3645,2348 3645,2341 3644,2340 3644,2333 3643,2332 3643,2326 3642,2325 3642,2320 3641,2319 3641,2315 3640,2314 3640,2309 3639,2308 3639,2303 3638,2302 3638,2297 3637,2296 3637,2291 3636,2290 3636,2285 3635,2284 3635,2279 3634,2278 3634,2272 3633,2271 3633,2265 3632,2264 3632,2256 3631,2255 3631,2246 3630,2245 3630,2237 3629,2236 3629,2231 3628,2230 3628,2226 3627,2225 3627,2222 3626,2221 3626,2214 3625,2213 3625,2205 3624,2204 3624,2198 3623,2197 3623,2191 3622,2190 3622,2182 3621,2181 3621,2174 3620,2173 3620,2169 3619,2168 3619,2164 3618,2163 3618,2157 3617,2156 3617,2148 3616,2147 3616,2140 3615,2139 3615,2134 3614,2133 3614,2128 3613,2127 3613,2123 3612,2122 3612,2109 3611,2108 3611,2105 3610,2104 3610,2102 3609,2101 3609,2099 3608,2098 3608,2096 3607,2095 3607,2092 3606,2091 3606,2087 3605,2086 3605,2080 3604,2079 3604,2073 3605,2072 3605,2061 3604,2060 3604,2052 3603,2051 3603,2045 3602,2044 3602,2039 3601,2038 3601,2031 3600,2030 3600,2026 3599,2025 3599,2023 3598,2022 3598,2020 3597,2019 3597,2017 3596,2016 3596,2015 3594,2013 3594,2012 3593,2011 3592,2011 3591,2010 3590,2010 3589,2009" fill="rgba(130,228,50,0.3)" stroke="rgb(130,228,50)" stroke-width="2" data-block-id="0012" data-name="b-0024" /><text x="3471" y="2379" text-anchor="middle" dominant-baseline="middle" class="block-label" fill="rgb(130,228,50)" stroke="white" stroke-width="3" paint-order="stroke">b-0024</text><polygon points="3133,2058 3132,2059 3128,2059 3127,2060 3124,2060 3123,2061 3117,2061 3116,2062 3111,2062 3110,2063 3106,2063 3105,2064 3099,2064 3098,2065 3093,2065 3092,2066 3087,2066 3086,2067 3077,2067 3076,2068 3068,2068 3067,2069 3060,2069 3059,2070 3051,2070 3050,2071 3039,2071 3038,2072 3028,2072 3027,2073 3020,2073 3019,2074 3014,2074 3013,2075 3007,2075 3006,2076 3002,2076 3001,2077 2999,2077 2998,2078 2996,2078 2995,2079 2989,2079 2988,2080 2977,2080 2976,2081 2970,2081 2969,2082 2963,2082 2962,2083 2957,2083 2956,2084 2941,2084 2940,2085 2935,2085 2934,2086 2928,2086 2927,2087 2923,2087 2922,2088 2918,2088 2917,2089 2913,2089 2912,2090 2907,2090 2906,2091 2893,2091 2892,2092 2870,2092 2869,2093 2864,2093 2863,2094 2855,2094 2854,2095 2846,2095 2845,2096 2839,2096 2838,2097 2836,2097 2833,2100 2833,2101 2832,2102 2832,2123 2833,2124 2833,2134 2834,2135 2834,2144 2835,2145 2835,2155 2836,2156 2836,2162 2837,2163 2837,2166 2838,2167 2838,2170 2839,2171 2839,2176 2840,2177 2840,2185 2841,2186 2841,2198 2842,2199 2842,2204 2843,2205 2843,2213 2844,2214 2844,2222 2845,2223 2845,2229 2846,2230 2846,2242 2847,2243 2847,2256 2848,2257 2848,2265 2849,2266 2849,2270 2850,2271 2850,2277 2851,2278 2851,2282 2852,2283 2852,2288 2853,2289 2853,2295 2854,2296 2854,2303 2855,2304 2855,2309 2856,2310 2856,2315 2857,2316 2857,2324 2858,2325 2858,2333 2859,2334 2859,2343 2860,2344 2860,2353 2861,2354 2861,2357 2862,2358 2862,2360 2863,2361 2863,2364 2864,2365 2864,2375 2865,2376 2865,2384 2866,2385 2866,2392 2867,2393 2867,2401 2868,2402 2868,2408 2869,2409 2869,2417 2870,2418 2870,2431 2871,2432 2871,2441 2872,2442 2872,2449 2873,2450 2873,2457 2874,2458 2874,2469 2875,2470 2875,2477 2876,2478 2876,2486 2877,2487 2877,2496 2878,2497 2878,2500 2879,2501 2879,2505 2880,2506 2880,2513 2881,2514 2881,2523 2882,2524 2882,2530 2883,2531 2883,2540 2884,2541 2884,2552 2885,2553 2885,2560 2886,2561 2886,2565 2887,2566 2887,2571 2888,2572 2888,2578 2889,2579 2889,2584 2890,2585 2890,2590 2891,2591 2891,2599 2892,2600 2892,2606 2893,2607 2893,2612 2894,2613 2894,2624 2895,2625 2895,2631 2896,2632 2896,2636 2897,2637 2897,2647 2898,2648 2898,2654 2899,2655 2899,2659 2900,2660 2900,2668 2901,2669 2901,2676 2902,2677 2902,2683 2903,2684 2903,2701 2904,2702 2904,2709 2905,2710 2905,2714 2906,2715 2906,2718 2907,2719 2907,2724 2908,2725 2908,2730 2909,2731 2909,2738 2910,2739 2910,2745 2911,2746 2911,2751 2912,2752 2912,2760 2913,2761 2913,2771 2914,2772 2914,2777 2915,2778 2915,2790 2914,2791 2914,2794 2915,2795 2915,2801 2916,2802 2916,2808 2917,2809 2917,2812 2918,2813 2918,2815 2919,2816 2919,2817 2920,2818 2920,2819 2921,2820 2921,2821 2923,2823 2924,2823 2925,2824 2927,2824 2928,2825 2937,2825 2938,2824 2942,2824 2943,2823 2947,2823 2948,2822 2953,2822 2954,2821 2965,2821 2966,2820 2972,2820 2973,2819 2977,2819 2978,2818 2982,2818 2983,2817 2987,2817 2988,2816 2991,2816 2992,2815 2997,2815 2998,2814 3003,2814 3004,2813 3010,2813 3011,2812 3017,2812 3018,2811 3041,2811 3042,2810 3045,2810 3046,2809 3049,2809 3050,2808 3053,2808 3054,2807 3060,2807 3061,2806 3065,2806 3066,2805 3069,2805 3070,2804 3072,2804 3073,2803 3075,2803 3076,2802 3089,2802 3090,2801 3095,2801 3096,2800 3103,2800 3104,2799 3112,2799 3113,2798 3118,2798 3119,2797 3126,2797 3127,2796 3138,2796 3139,2795 3145,2795 3146,2794 3150,2794 3151,2793 3154,2793 3155,2792 3160,2792 3161,2791 3172,2791 3173,2790 3178,2790 3179,2789 3184,2789 3185,2788 3189,2788 3190,2789 3195,2789 3196,2788 3206,2788 3207,2787 3216,2787 3217,2786 3224,2786 3225,2785 3230,2785 3231,2784 3232,2784 3234,2782 3234,2781 3235,2780 3235,2779 3236,2778 3236,2775 3237,2774 3237,2763 3236,2762 3236,2752 3235,2751 3235,2743 3234,2742 3234,2738 3233,2737 3233,2730 3232,2729 3232,2720 3231,2719 3231,2712 3230,2711 3230,2705 3229,2704 3229,2699 3228,2698 3228,2691 3227,2690 3227,2683 3226,2682 3226,2677 3225,2676 3225,2667 3224,2666 3224,2657 3223,2656 3223,2650 3222,2649 3222,2644 3221,2643 3221,2639 3220,2638 3220,2634 3219,2633 3219,2628 3218,2627 3218,2623 3217,2622 3217,2618 3216,2617 3216,2612 3215,2611 3215,2603 3214,2602 3214,2596 3213,2595 3213,2586 3212,2585 3212,2576 3211,2575 3211,2569 3210,2568 3210,2556 3209,2555 3209,2543 3208,2542 3208,2538 3207,2537 3207,2532 3206,2531 3206,2526 3205,2525 3205,2520 3204,2519 3204,2515 3203,2514 3203,2507 3202,2506 3202,2493 3201,2492 3201,2486 3200,2485 3200,2473 3199,2472 3199,2465 3198,2464 3198,2460 3197,2459 3197,2452 3196,2451 3196,2447 3195,2446 3195,2442 3194,2441 3194,2436 3193,2435 3193,2429 3192,2428 3192,2421 3191,2420 3191,2413 3190,2412 3190,2406 3189,2405 3189,2396 3188,2395 3188,2384 3187,2383 3187,2375 3186,2374 3186,2369 3185,2368 3185,2364 3184,2363 3184,2352 3183,2351 3183,2348 3182,2347 3182,2343 3181,2342 3181,2337 3180,2336 3180,2331 3179,2330 3179,2325 3178,2324 3178,2316 3177,2315 3177,2306 3176,2305 3176,2298 3175,2297 3175,2288 3174,2287 3174,2278 3173,2277 3173,2273 3172,2272 3172,2269 3171,2268 3171,2252 3170,2251 3170,2244 3169,2243 3169,2238 3168,2237 3168,2232 3167,2231 3167,2217 3166,2216 3166,2212 3165,2211 3165,2203 3164,2202 3164,2192 3163,2191 3163,2182 3162,2181 3162,2175 3161,2174 3161,2171 3160,2170 3160,2164 3159,2163 3159,2159 3158,2158 3158,2155 3157,2154 3157,2150 3156,2149 3156,2142 3155,2141 3155,2134 3154,2133 3154,2124 3153,2123 3153,2107 3152,2106 3152,2098 3151,2097 3151,2090 3150,2089 3150,2085 3149,2084 3149,2078 3148,2077 3148,2069 3147,2068 3147,2065 3146,2064 3146,2063 3144,2061 3143,2061 3142,2060 3141,2060 3140,2059 3139,2059 3138,2058" fill="rgba(134,20,72,0.3)" stroke="rgb(134,20,72)" stroke-width="2" data-block-id="0013" data-name="b-0025" /><text x="3037" y="2453" text-anchor="middle" dominant-baseline="middle" class="block-label" fill="rgb(134,20,72)" stroke="white" stroke-width="3" paint-order="stroke">b-0025</text><polygon points="2724,2111 2723,2112 2721,2112 2720,2113 2717,2113 2716,2114 2708,2114 2707,2115 2684,2115 2683,2116 2674,2116 2673,2117 2663,2117 2662,2118 2657,2118 2656,2119 2651,2119 2650,2120 2645,2120 2644,2121 2638,2121 2637,2120 2629,2120 2628,2121 2626,2121 2625,2122 2621,2122 2620,2123 2609,2123 2608,2124 2602,2124 2601,2125 2595,2125 2594,2126 2585,2126 2584,2127 2573,2127 2572,2128 2568,2128 2567,2129 2565,2129 2564,2130 2563,2130 2562,2131 2540,2131 2539,2132 2533,2132 2532,2133 2527,2133 2526,2134 2520,2134 2519,2135 2512,2135 2511,2136 2498,2136 2497,2137 2495,2137 2494,2138 2491,2138 2490,2139 2485,2139 2484,2140 2472,2140 2471,2141 2466,2141 2465,2142 2454,2142 2453,2143 2446,2143 2445,2144 2440,2144 2439,2145 2437,2145 2436,2146 2434,2146 2430,2150 2430,2157 2431,2158 2431,2168 2432,2169 2432,2179 2433,2180 2433,2190 2434,2191 2434,2200 2435,2201 2435,2207 2436,2208 2436,2214 2437,2215 2437,2222 2438,2223 2438,2228 2439,2229 2439,2233 2440,2234 2440,2238 2441,2239 2441,2245 2442,2246 2442,2251 2443,2252 2443,2258 2444,2259 2444,2268 2445,2269 2445,2275 2446,2276 2446,2283 2447,2284 2447,2292 2448,2293 2448,2299 2449,2300 2449,2315 2450,2316 2450,2320 2451,2321 2451,2326 2452,2327 2452,2334 2453,2335 2453,2341 2454,2342 2454,2350 2455,2351 2455,2359 2456,2360 2456,2364 2457,2365 2457,2378 2458,2379 2458,2389 2459,2390 2459,2399 2460,2400 2460,2406 2461,2407 2461,2414 2462,2415 2462,2427 2463,2428 2463,2434 2464,2435 2464,2439 2465,2440 2465,2444 2466,2445 2466,2452 2467,2453 2467,2458 2468,2459 2468,2473 2469,2474 2469,2487 2470,2488 2470,2493 2471,2494 2471,2496 2472,2497 2472,2502 2473,2503 2473,2510 2474,2511 2474,2519 2475,2520 2475,2526 2476,2527 2476,2531 2477,2532 2477,2536 2478,2537 2478,2543 2479,2544 2479,2551 2480,2552 2480,2571 2481,2572 2481,2579 2482,2580 2482,2582 2483,2583 2483,2585 2484,2586 2484,2587 2485,2588 2485,2594 2484,2595 2484,2606 2485,2607 2485,2610 2486,2611 2486,2613 2487,2614 2487,2618 2488,2619 2488,2626 2489,2627 2489,2633 2490,2634 2490,2654 2491,2655 2491,2663 2492,2664 2492,2669 2493,2670 2493,2674 2494,2675 2494,2681 2495,2682 2495,2688 2496,2689 2496,2698 2497,2699 2497,2708 2498,2709 2498,2714 2499,2715 2499,2720 2500,2721 2500,2724 2501,2725 2501,2727 2502,2728 2502,2731 2503,2732 2503,2737 2502,2738 2502,2749 2503,2750 2503,2755 2504,2756 2504,2760 2505,2761 2505,2764 2506,2765 2506,2767 2507,2768 2507,2773 2508,2774 2508,2786 2509,2787 2509,2796 2510,2797 2510,2801 2511,2802 2511,2806 2512,2807 2512,2813 2513,2814 2513,2818 2514,2819 2514,2823 2515,2824 2515,2844 2516,2845 2516,2852 2517,2853 2517,2855 2518,2856 2518,2858 2519,2859 2519,2860 2521,2862 2521,2863 2525,2867 2527,2867 2528,2868 2544,2868 2545,2867 2549,2867 2550,2866 2553,2866 2554,2865 2561,2865 2562,2864 2572,2864 2573,2863 2588,2863 2589,2862 2599,2862 2600,2861 2614,2861 2615,2860 2638,2860 2639,2859 2649,2859 2650,2858 2659,2858 2660,2857 2671,2857 2672,2856 2682,2856 2683,2855 2691,2855 2692,2854 2696,2854 2697,2853 2701,2853 2702,2852 2718,2852 2719,2851 2722,2851 2723,2850 2726,2850 2727,2849 2732,2849 2733,2848 2740,2848 2741,2847 2753,2847 2754,2846 2763,2846 2764,2845 2774,2845 2775,2844 2782,2844 2783,2843 2788,2843 2789,2842 2795,2842 2796,2841 2801,2841 2802,2840 2806,2840 2807,2839 2811,2839 2812,2838 2815,2838 2816,2837 2818,2837 2819,2836 2820,2836 2821,2835 2822,2835 2825,2832 2825,2831 2826,2830 2826,2804 2825,2803 2825,2799 2824,2798 2824,2794 2823,2793 2823,2788 2822,2787 2822,2782 2821,2781 2821,2769 2820,2768 2820,2763 2819,2762 2819,2752 2818,2751 2818,2744 2817,2743 2817,2738 2816,2737 2816,2724 2815,2723 2815,2714 2814,2713 2814,2705 2813,2704 2813,2696 2812,2695 2812,2690 2811,2689 2811,2685 2810,2684 2810,2675 2809,2674 2809,2670 2808,2669 2808,2666 2807,2665 2807,2659 2806,2658 2806,2652 2805,2651 2805,2645 2804,2644 2804,2635 2803,2634 2803,2623 2802,2622 2802,2616 2801,2615 2801,2609 2800,2608 2800,2603 2799,2602 2799,2598 2798,2597 2798,2593 2797,2592 2797,2585 2796,2584 2796,2575 2795,2574 2795,2566 2794,2565 2794,2558 2793,2557 2793,2551 2792,2550 2792,2543 2791,2542 2791,2533 2790,2532 2790,2523 2789,2522 2789,2515 2788,2514 2788,2505 2787,2504 2787,2498 2786,2497 2786,2488 2785,2487 2785,2481 2784,2480 2784,2477 2783,2476 2783,2472 2782,2471 2782,2459 2781,2458 2781,2453 2780,2452 2780,2446 2779,2445 2779,2437 2778,2436 2778,2425 2777,2424 2777,2417 2776,2416 2776,2412 2775,2411 2775,2405 2774,2404 2774,2398 2773,2397 2773,2391 2772,2390 2772,2385 2771,2384 2771,2379 2770,2378 2770,2369 2769,2368 2769,2361 2768,2360 2768,2354 2767,2353 2767,2347 2766,2346 2766,2338 2765,2337 2765,2316 2764,2315 2764,2309 2763,2308 2763,2305 2762,2304 2762,2300 2761,2299 2761,2296 2760,2295 2760,2291 2759,2290 2759,2280 2758,2279 2758,2270 2757,2269 2757,2263 2756,2262 2756,2251 2755,2250 2755,2239 2754,2238 2754,2228 2753,2227 2753,2221 2752,2220 2752,2209 2751,2208 2751,2203 2750,2202 2750,2198 2749,2197 2749,2192 2748,2191 2748,2186 2747,2185 2747,2178 2746,2177 2746,2170 2745,2169 2745,2159 2744,2158 2744,2152 2743,2151 2743,2146 2742,2145 2742,2139 2741,2138 2741,2129 2740,2128 2740,2121 2739,2120 2739,2118 2737,2116 2737,2115 2736,2115 2735,2114 2734,2114 2733,2113 2732,2113 2731,2112 2729,2112 2728,2111" fill="rgba(166,17,131,0.3)" stroke="rgb(166,17,131)" stroke-width="2" data-block-id="0014" data-name="b-0026" /><text x="2628" y="2485" text-anchor="middle" dominant-baseline="middle" class="block-label" fill="rgb(166,17,131)" stroke="white" stroke-width="3" paint-order="stroke">b-0026</text><polygon points="2032,1893 2031,1894 2019,1894 2018,1895 2015,1895 2014,1896 2013,1896 2013,1897 2012,1898 2012,1901 2011,1902 2011,1914 2010,1915 2010,1925 2011,1926 2011,1943 2012,1944 2011,1945 2011,1954 2010,1955 2010,2001 2009,2002 2009,2008 2010,2009 2010,2031 2009,2032 2009,2047 2010,2048 2010,2068 2009,2069 2009,2091 2010,2092 2010,2095 2011,2096 2011,2097 2012,2098 2012,2099 2013,2099 2014,2100 2021,2100 2022,2099 2031,2099 2032,2098 2041,2098 2042,2097 2049,2097 2050,2096 2056,2096 2057,2095 2064,2095 2065,2094 2074,2094 2075,2093 2083,2093 2084,2092 2090,2092 2091,2091 2097,2091 2098,2090 2108,2090 2109,2089 2115,2089 2116,2088 2125,2088 2126,2087 2135,2087 2136,2086 2142,2086 2143,2085 2155,2085 2156,2084 2164,2084 2165,2083 2170,2083 2171,2082 2174,2082 2175,2081 2179,2081 2180,2080 2189,2080 2190,2079 2199,2079 2200,2078 2210,2078 2211,2077 2219,2077 2220,2076 2228,2076 2229,2075 2238,2075 2239,2074 2250,2074 2251,2073 2263,2073 2264,2072 2267,2072 2268,2071 2271,2071 2272,2070 2274,2070 2275,2069 2287,2069 2288,2068 2295,2068 2296,2067 2301,2067 2302,2066 2305,2066 2306,2065 2310,2065 2311,2064 2319,2064 2320,2063 2329,2063 2330,2062 2340,2062 2341,2061 2349,2061 2350,2060 2353,2060 2354,2059 2357,2059 2358,2058 2361,2058 2362,2057 2366,2057 2367,2058 2371,2058 2372,2057 2378,2057 2379,2056 2383,2056 2384,2055 2392,2055 2393,2054 2399,2054 2400,2053 2406,2053 2407,2052 2415,2052 2416,2051 2422,2051 2423,2050 2428,2050 2429,2049 2440,2049 2441,2048 2451,2048 2452,2047 2458,2047 2459,2046 2462,2046 2463,2045 2465,2045 2466,2044 2482,2044 2483,2043 2489,2043 2490,2042 2496,2042 2497,2041 2502,2041 2503,2040 2507,2040 2508,2039 2514,2039 2515,2038 2521,2038 2522,2037 2527,2037 2528,2036 2535,2036 2536,2035 2543,2035 2544,2034 2548,2034 2549,2033 2554,2033 2555,2032 2563,2032 2564,2031 2571,2031 2572,2030 2578,2030 2579,2029 2585,2029 2586,2028 2593,2028 2594,2027 2602,2027 2603,2026 2612,2026 2613,2025 2623,2025 2624,2024 2629,2024 2630,2023 2634,2023 2635,2022 2641,2022 2642,2021 2650,2021 2651,2020 2659,2020 2660,2019 2670,2019 2671,2018 2674,2018 2675,2017 2678,2017 2679,2016 2683,2016 2684,2015 2701,2015 2702,2014 2711,2014 2712,2013 2722,2013 2723,2012 2731,2012 2732,2011 2737,2011 2738,2010 2741,2010 2742,2009 2751,2009 2752,2008 2759,2008 2760,2007 2765,2007 2766,2006 2785,2006 2786,2005 2798,2005 2799,2004 2804,2004 2805,2003 2812,2003 2813,2002 2823,2002 2824,2001 2831,2001 2832,2000 2841,2000 2842,1999 2854,1999 2855,1998 2859,1998 2860,1997 2864,1997 2865,1996 2872,1996 2873,1995 2882,1995 2883,1994 2891,1994 2892,1993 2901,1993 2902,1992 2909,1992 2910,1991 2922,1991 2923,1990 2927,1990 2928,1989 2932,1989 2933,1988 2938,1988 2939,1987 2944,1987 2945,1986 2953,1986 2954,1985 2966,1985 2967,1984 2973,1984 2974,1983 2979,1983 2980,1982 2988,1982 2989,1981 3002,1981 3003,1980 3007,1980 3008,1979 3012,1979 3013,1978 3018,1978 3019,1977 3025,1977 3026,1976 3031,1976 3032,1975 3037,1975 3038,1974 3044,1974 3045,1973 3049,1973 3050,1972 3067,1972 3068,1971 3072,1971 3073,1970 3080,1970 3081,1969 3091,1969 3092,1968 3096,1968 3097,1967 3107,1967 3108,1966 3118,1966 3119,1965 3124,1965 3125,1964 3128,1964 3129,1963 3130,1963 3131,1962 3132,1962 3133,1961 3134,1961 3135,1960 3135,1959 3136,1958 3136,1957 3137,1956 3137,1907 3136,1906 3136,1904 3135,1903 3135,1901 3134,1900 3134,1899 3133,1899 3132,1898 3130,1898 3129,1897 3124,1897 3123,1896 3121,1896 3120,1897 3095,1897 3094,1898 3085,1898 3084,1897 3035,1897 3034,1896 3001,1896 3000,1897 2989,1897 2988,1896 2957,1896 2956,1897 2915,1897 2914,1896 2906,1896 2905,1897 2899,1897 2898,1898 2894,1898 2893,1897 2880,1897 2879,1896 2865,1896 2864,1897 2831,1897 2830,1898 2784,1898 2783,1897 2739,1897 2738,1896 2721,1896 2720,1895 2718,1895 2717,1896 2633,1896 2632,1895 2606,1895 2605,1894 2581,1894 2580,1893 2564,1893 2563,1894 2520,1894 2519,1895 2511,1895 2510,1896 2504,1896 2503,1895 2498,1895 2497,1894 2480,1894 2479,1895 2476,1895 2475,1894 2447,1894 2446,1893 2440,1893 2439,1894 2412,1894 2411,1895 2408,1895 2407,1894 2364,1894 2363,1895 2356,1895 2355,1894 2319,1894 2318,1895 2258,1895 2257,1894 2173,1894 2172,1895 2147,1895 2146,1894 2135,1894 2134,1893 2125,1893 2124,1894 2112,1894 2111,1895 2105,1895 2104,1894 2066,1894 2065,1893 2052,1893 2051,1894 2048,1894 2047,1893" fill="rgba(241,249,8,0.3)" stroke="rgb(241,249,8)" stroke-width="2" data-block-id="0015" data-name="b-0028" /><text x="2552" y="1993" text-anchor="middle" dominant-baseline="middle" class="block-label" fill="rgb(241,249,8)" stroke="white" stroke-width="3" paint-order="stroke">b-0028</text><polygon points="609,870 597,1291 956,1291 964,1081 1634,1084 1627,1225 1397,1229 1393,1295 1849,1295 1853,874" fill="rgba(102,179,92,0.3)" stroke="rgb(102,179,92)" stroke-width="2" data-block-id="0016" data-name="b-0017" /><text x="1287" y="1153" text-anchor="middle" dominant-baseline="middle" class="block-label" fill="rgb(102,179,92)" stroke="white" stroke-width="3" paint-order="stroke">b-0017</text></g>
</svg>