<?xml version='1.0' encoding='utf-8'?>
<svg xmlns="http://www.w3.org/2000/svg" xmlns:atlas="http://example.com/atlas" width="4984" height="3296" viewBox="0 0 4984 3296">
  
  <metadata>
    <atlas:source>
      <atlas:jp2-path>/Users/pwright/workspace/atlas/media/v2/p45.jp2</atlas:jp2-path>
      <atlas:volume>unknown</atlas:volume>
      <atlas:plate-id>p45</atlas:plate-id>
      <atlas:image-width>4984</atlas:image-width>
      <atlas:image-height>3296</atlas:image-height>
    <atlas:angle>0.0</atlas:angle><atlas:scale>1.3333333333333333</atlas:scale><atlas:pos-x>2929.7172207776753</atlas:pos-x><atlas:pos-y>395.7038719583895</atlas:pos-y></atlas:source>
  </metadata>

  
  <image id="background" href="file:///Users/pwright/workspace/atlas/media/v2/p45.jp2" width="4984" height="3296" opacity="0.5" />

  <style>
    .block-label { font-family: sans-serif; font-size: 14px; font-weight: bold; }
  </style>

  
  <g id="blocks">
    <polygon points="4075,2692 4074,2693 4064,2693 4063,2694 4008,2694 4007,2693 3995,2693 3994,2694 3988,2694 3987,2695 3983,2695 3982,2696 3975,2696 3974,2695 3955,2695 3954,2696 3949,2696 3948,2697 3945,2697 3944,2698 3914,2698 3913,2699 3900,2699 3899,2698 3893,2698 3892,2697 3866,2697 3865,2696 3856,2696 3855,2695 3848,2695 3847,2694 3846,2695 3835,2695 3834,2696 3823,2696 3822,2697 3798,2697 3797,2698 3780,2698 3779,2697 3772,2697 3771,2696 3763,2696 3762,2697 3756,2697 3755,2698 3750,2698 3749,2699 3745,2699 3744,2700 3739,2700 3738,2701 3734,2701 3733,2702 3716,2702 3715,2701 3693,2701 3692,2700 3691,2700 3690,2701 3674,2701 3673,2702 3652,2702 3651,2703 3623,2703 3622,2702 3606,2702 3605,2703 3597,2703 3596,2704 3567,2704 3566,2705 3545,2705 3544,2704 3535,2704 3534,2703 3527,2703 3526,2704 3507,2704 3506,2703 3496,2703 3495,2702 3487,2702 3486,2701 3472,2701 3471,2700 3450,2700 3449,2701 3441,2701 3440,2702 3409,2702 3408,2703 3367,2703 3366,2704 3356,2704 3355,2705 3334,2705 3333,2706 3325,2706 3324,2707 3315,2707 3314,2706 3310,2706 3309,2705 3301,2705 3300,2704 3294,2704 3293,2705 3275,2705 3274,2706 3249,2706 3248,2707 3209,2707 3208,2708 3192,2708 3191,2709 3179,2709 3178,2710 3170,2710 3169,2711 3165,2711 3164,2712 3162,2712 3161,2713 3160,2713 3158,2715 3158,2716 3157,2717 3157,2718 3156,2719 3156,2735 3155,2736 3155,2744 3154,2745 3154,2752 3153,2753 3153,2758 3152,2759 3152,2766 3151,2767 3151,2788 3152,2789 3152,2836 3153,2837 3153,2883 3154,2884 3154,2942 3153,2943 3153,2955 3154,2956 3154,3021 3153,3022 3153,3034 3154,3035 3154,3067 3155,3068 3155,3070 3159,3074 3159,3075 3160,3076 3161,3076 3162,3077 3163,3077 3164,3078 3166,3078 3167,3079 3186,3079 3187,3080 3195,3080 3196,3081 3204,3081 3205,3082 3227,3082 3228,3081 3232,3081 3233,3080 3237,3080 3238,3079 3245,3079 3246,3078 3259,3078 3260,3079 3293,3079 3294,3080 3298,3080 3299,3079 3306,3079 3307,3078 3311,3078 3312,3077 3316,3077 3317,3076 3336,3076 3337,3075 3365,3075 3366,3076 3380,3076 3381,3075 3383,3075 3384,3074 3386,3074 3387,3073 3389,3073 3390,3072 3391,3072 3392,3071 3394,3071 3395,3070 3403,3070 3404,3071 3433,3071 3434,3070 3435,3071 3446,3071 3447,3072 3462,3072 3463,3071 3471,3071 3472,3070 3503,3070 3504,3069 3521,3069 3522,3070 3541,3070 3542,3069 3547,3069 3548,3068 3554,3068 3555,3067 3556,3068 3566,3068 3567,3069 3574,3069 3575,3068 3579,3068 3580,3067 3584,3067 3585,3066 3600,3066 3601,3067 3607,3067 3608,3068 3613,3068 3614,3067 3617,3067 3618,3066 3622,3066 3623,3065 3626,3065 3627,3064 3636,3064 3637,3065 3644,3065 3645,3066 3652,3066 3653,3065 3657,3065 3658,3064 3661,3064 3662,3063 3666,3063 3667,3062 3673,3062 3674,3063 3683,3063 3684,3064 3691,3064 3692,3063 3698,3063 3699,3062 3705,3062 3706,3061 3714,3061 3715,3062 3734,3062 3735,3063 3759,3063 3760,3064 3770,3064 3771,3063 3775,3063 3776,3062 3780,3062 3781,3061 3786,3061 3787,3060 3796,3060 3797,3059 3802,3059 3803,3058 3806,3058 3807,3057 3812,3057 3813,3056 3820,3056 3821,3055 3829,3055 3830,3056 3838,3056 3839,3057 3847,3057 3848,3056 3850,3056 3851,3055 3854,3055 3855,3054 3858,3054 3859,3053 3865,3053 3866,3052 3882,3052 3883,3053 3886,3053 3887,3054 3888,3054 3889,3055 3891,3055 3892,3056 3893,3056 3894,3057 3896,3057 3897,3058 3900,3058 3901,3059 3907,3059 3908,3060 3926,3060 3927,3059 3931,3059 3932,3058 3936,3058 3937,3057 3944,3057 3945,3058 3949,3058 3950,3059 3956,3059 3957,3060 3990,3060 3991,3061 4030,3061 4031,3060 4054,3060 4055,3059 4061,3059 4062,3060 4083,3060 4084,3059 4088,3059 4089,3058 4094,3058 4095,3057 4123,3057 4124,3058 4137,3058 4138,3059 4145,3059 4146,3060 4161,3060 4162,3059 4166,3059 4167,3058 4174,3058 4175,3057 4190,3057 4191,3058 4206,3058 4207,3059 4235,3059 4236,3058 4239,3058 4240,3057 4242,3057 4243,3056 4245,3056 4246,3055 4247,3055 4248,3054 4249,3054 4250,3053 4257,3053 4258,3054 4261,3054 4262,3055 4265,3055 4266,3056 4292,3056 4293,3055 4306,3055 4307,3054 4313,3054 4314,3055 4318,3055 4319,3056 4323,3056 4324,3057 4328,3057 4329,3058 4366,3058 4367,3057 4375,3057 4376,3058 4399,3058 4400,3059 4416,3059 4417,3058 4426,3058 4427,3057 4433,3057 4434,3056 4436,3056 4437,3055 4439,3055 4443,3051 4443,3050 4444,3049 4444,3047 4445,3046 4445,3043 4446,3042 4446,3038 4447,3037 4447,3033 4448,3032 4448,3015 4447,3014 4447,3007 4448,3006 4448,3002 4449,3001 4449,2997 4450,2996 4450,2991 4451,2990 4451,2970 4452,2969 4452,2965 4451,2964 4451,2944 4452,2943 4452,2926 4451,2925 4451,2919 4450,2918 4450,2906 4451,2905 4451,2900 4452,2899 4452,2892 4453,2891 4453,2888 4452,2887 4452,2875 4451,2874 4451,2869 4452,2868 4452,2859 4453,2858 4453,2852 4454,2851 4454,2847 4455,2846 4455,2843 4456,2842 4456,2838 4457,2837 4457,2826 4458,2825 4458,2810 4459,2809 4459,2804 4460,2803 4460,2799 4461,2798 4461,2792 4462,2791 4462,2783 4463,2782 4463,2775 4464,2774 4464,2770 4465,2769 4465,2760 4466,2759 4466,2749 4465,2748 4465,2740 4464,2739 4464,2737 4465,2736 4465,2734 4466,2733 4466,2732 4473,2725 4473,2724 4478,2719 4478,2713 4472,2707 4471,2707 4469,2705 4467,2705 4466,2704 4461,2704 4460,2703 4450,2703 4449,2702 4445,2702 4444,2701 4443,2701 4442,2700 4439,2700 4438,2699 4433,2699 4432,2698 4426,2698 4425,2697 4411,2697 4410,2696 4401,2696 4400,2697 4364,2697 4363,2698 4309,2698 4308,2699 4301,2699 4300,2700 4297,2700 4296,2701 4290,2701 4289,2700 4287,2700 4286,2699 4281,2699 4280,2698 4267,2698 4266,2699 4263,2699 4262,2700 4261,2700 4260,2701 4259,2701 4257,2703 4252,2703 4248,2699 4246,2699 4245,2698 4242,2698 4241,2697 4238,2697 4237,2696 4210,2696 4209,2695 4202,2695 4201,2694 4190,2694 4189,2695 4186,2695 4185,2696 4182,2696 4181,2697 4180,2697 4179,2698 4173,2698 4171,2696 4170,2696 4169,2695 4168,2695 4167,2694 4165,2694 4164,2693 4160,2693 4159,2692 4146,2692 4145,2693 4106,2693 4105,2694 4096,2694 4095,2693 4083,2693 4082,2692" fill="rgba(121,210,214,0.3)" stroke="rgb(121,210,214)" stroke-width="2" data-block-id="0001" data-name="b-0006" /><text x="3881" y="2894" text-anchor="middle" dominant-baseline="middle" class="block-label" fill="rgb(121,210,214)" stroke="white" stroke-width="3" paint-order="stroke">b-0006</text><polygon points="2646,1761 2645,1762 2611,1762 2610,1763 2597,1763 2596,1764 2591,1764 2590,1763 2573,1763 2572,1764 2550,1764 2549,1765 2501,1765 2500,1766 2483,1766 2482,1765 2466,1765 2465,1766 2411,1766 2410,1767 2395,1767 2394,1768 2390,1768 2389,1767 2350,1767 2349,1768 2342,1768 2341,1767 2321,1767 2320,1768 2287,1768 2286,1767 2281,1767 2280,1768 2256,1768 2255,1769 2243,1769 2242,1768 2229,1768 2228,1769 2222,1769 2221,1768 2207,1768 2206,1769 2193,1769 2192,1768 2188,1768 2187,1769 2115,1769 2114,1770 2100,1770 2099,1769 2092,1769 2091,1770 2083,1770 2082,1771 2077,1771 2076,1772 2070,1772 2069,1773 2048,1773 2047,1772 2046,1773 2025,1773 2024,1772 1866,1772 1865,1773 1851,1773 1850,1774 1832,1774 1831,1775 1809,1775 1808,1776 1804,1776 1803,1777 1801,1777 1799,1779 1798,1779 1797,1780 1797,1781 1796,1782 1796,1784 1795,1785 1795,1813 1794,1814 1794,1821 1795,1822 1795,1827 1796,1828 1796,1852 1797,1853 1797,1858 1796,1859 1796,1870 1797,1871 1797,1895 1798,1896 1798,1901 1799,1902 1799,1905 1798,1906 1798,1918 1799,1919 1799,1924 1800,1925 1800,1935 1799,1936 1799,1944 1800,1945 1800,1992 1801,1993 1801,2051 1800,2052 1800,2062 1801,2063 1801,2124 1800,2125 1800,2130 1801,2131 1801,2133 1802,2134 1802,2136 1803,2137 1803,2138 1804,2139 1804,2140 1806,2142 1808,2142 1809,2143 1815,2143 1816,2144 1905,2144 1906,2143 1983,2143 1984,2142 2068,2142 2069,2141 2159,2141 2160,2140 2186,2140 2187,2139 2192,2139 2193,2140 2227,2140 2228,2139 2244,2139 2245,2140 2251,2140 2252,2139 2261,2139 2262,2138 2263,2138 2264,2139 2279,2139 2280,2138 2300,2138 2301,2137 2327,2137 2328,2136 2337,2136 2338,2137 2362,2137 2363,2136 2491,2136 2492,2135 2512,2135 2513,2134 2545,2134 2546,2133 2562,2133 2563,2132 2579,2132 2580,2131 2591,2131 2592,2130 2598,2130 2599,2129 2603,2129 2604,2128 2622,2128 2623,2127 2626,2127 2627,2126 2632,2126 2633,2125 2665,2125 2666,2126 2674,2126 2675,2127 2721,2127 2722,2128 2731,2128 2732,2127 2744,2127 2745,2128 2769,2128 2770,2127 2788,2127 2789,2128 2816,2128 2817,2129 2822,2129 2823,2128 2826,2128 2828,2126 2829,2126 2832,2123 2834,2123 2835,2122 2843,2122 2844,2121 2859,2121 2860,2122 2866,2122 2867,2123 2896,2123 2897,2124 2899,2124 2900,2125 2902,2125 2903,2126 2905,2126 2906,2127 2908,2127 2909,2128 2914,2128 2915,2129 2939,2129 2940,2128 2948,2128 2949,2127 2951,2127 2952,2126 2953,2126 2955,2124 2955,2122 2956,2121 2956,2119 2957,2118 2957,2024 2956,2023 2956,2020 2957,2019 2957,2001 2956,2000 2956,1996 2957,1995 2957,1979 2956,1978 2956,1966 2957,1965 2957,1961 2956,1960 2956,1942 2957,1941 2957,1936 2956,1935 2956,1920 2957,1919 2957,1907 2956,1906 2956,1903 2957,1902 2957,1890 2958,1889 2958,1886 2957,1885 2957,1880 2958,1879 2958,1860 2957,1859 2957,1853 2958,1852 2958,1845 2959,1844 2959,1841 2958,1840 2958,1791 2957,1790 2957,1772 2956,1771 2956,1769 2952,1765 2951,1765 2950,1764 2946,1764 2945,1763 2922,1763 2921,1762 2912,1762 2911,1763 2904,1763 2903,1762 2863,1762 2862,1763 2852,1763 2851,1762 2839,1762 2838,1763 2827,1763 2826,1762 2821,1762 2820,1763 2785,1763 2784,1764 2783,1763 2706,1763 2705,1762 2698,1762 2697,1763 2686,1763 2685,1762 2661,1762 2660,1761" fill="rgba(74,202,87,0.3)" stroke="rgb(74,202,87)" stroke-width="2" data-block-id="0002" data-name="b-0007" /><text x="2445" y="1945" text-anchor="middle" dominant-baseline="middle" class="block-label" fill="rgb(74,202,87)" stroke="white" stroke-width="3" paint-order="stroke">b-0007</text><polygon points="2865,1284 2864,1285 2838,1285 2837,1286 2792,1286 2791,1287 2756,1287 2755,1286 2749,1286 2748,1287 2743,1287 2742,1288 2707,1288 2706,1287 2698,1287 2697,1288 2665,1288 2664,1287 2653,1287 2652,1288 2646,1288 2645,1289 2639,1289 2638,1288 2622,1288 2621,1289 2550,1289 2549,1288 2518,1288 2517,1287 2414,1287 2413,1288 2331,1288 2330,1287 2325,1287 2324,1286 2316,1286 2315,1287 2304,1287 2303,1288 2298,1288 2297,1287 2282,1287 2281,1286 2264,1286 2263,1285 2227,1285 2226,1286 2219,1286 2218,1287 2213,1287 2212,1288 2210,1288 2209,1287 2091,1287 2090,1288 2075,1288 2074,1289 2067,1289 2066,1288 2049,1288 2048,1289 2015,1289 2014,1290 2007,1290 2006,1289 1975,1289 1974,1290 1955,1290 1954,1289 1945,1289 1944,1290 1935,1290 1934,1289 1920,1289 1919,1290 1911,1290 1910,1289 1896,1289 1895,1290 1888,1290 1887,1289 1870,1289 1869,1288 1851,1288 1850,1289 1841,1289 1840,1290 1810,1290 1809,1291 1803,1291 1802,1292 1797,1292 1797,1293 1796,1294 1796,1324 1797,1325 1797,1332 1796,1333 1796,1351 1797,1352 1797,1382 1796,1383 1796,1392 1797,1393 1797,1421 1796,1422 1796,1434 1795,1435 1795,1445 1796,1446 1796,1472 1795,1473 1795,1483 1794,1484 1794,1517 1795,1518 1795,1522 1794,1523 1794,1542 1795,1543 1795,1625 1794,1626 1794,1633 1795,1634 1795,1652 1796,1653 1796,1654 1797,1655 1798,1655 1799,1656 1800,1656 1801,1657 1802,1657 1803,1658 1805,1658 1806,1659 1811,1659 1812,1660 1873,1660 1874,1659 1923,1659 1924,1658 1961,1658 1962,1657 1998,1657 1999,1656 2039,1656 2040,1657 2058,1657 2059,1656 2074,1656 2075,1657 2122,1657 2123,1656 2162,1656 2163,1655 2173,1655 2174,1654 2182,1654 2183,1655 2209,1655 2210,1654 2214,1654 2215,1655 2219,1655 2220,1656 2234,1656 2235,1655 2255,1655 2256,1654 2292,1654 2293,1655 2302,1655 2303,1654 2455,1654 2456,1653 2471,1653 2472,1654 2479,1654 2480,1653 2512,1653 2513,1652 2514,1653 2549,1653 2550,1652 2600,1652 2601,1651 2621,1651 2622,1650 2653,1650 2654,1651 2710,1651 2711,1650 2717,1650 2718,1651 2736,1651 2737,1650 2747,1650 2748,1649 2755,1649 2756,1650 2767,1650 2768,1649 2795,1649 2796,1650 2830,1650 2831,1651 2848,1651 2849,1652 2865,1652 2866,1651 2876,1651 2877,1652 2883,1652 2884,1651 2890,1651 2891,1650 2901,1650 2902,1651 2906,1651 2907,1650 2914,1650 2915,1649 2935,1649 2936,1648 2946,1648 2947,1647 2951,1647 2952,1646 2953,1646 2954,1645 2955,1645 2956,1644 2956,1643 2957,1642 2957,1640 2958,1639 2958,1636 2957,1635 2957,1610 2958,1609 2958,1544 2959,1543 2959,1531 2958,1530 2958,1466 2959,1465 2959,1444 2958,1443 2958,1423 2959,1422 2959,1393 2958,1392 2958,1340 2959,1339 2959,1313 2958,1312 2958,1300 2957,1299 2957,1294 2956,1293 2956,1291 2954,1289 2954,1288 2953,1287 2952,1287 2951,1286 2949,1286 2948,1285 2944,1285 2943,1284 2910,1284 2909,1285 2902,1285 2901,1284" fill="rgba(116,99,103,0.3)" stroke="rgb(116,99,103)" stroke-width="2" data-block-id="0003" data-name="b-0008" /><text x="2382" y="1469" text-anchor="middle" dominant-baseline="middle" class="block-label" fill="rgb(116,99,103)" stroke="white" stroke-width="3" paint-order="stroke">b-0008</text><polygon points="2633,2702 2632,2703 2628,2703 2627,2704 2625,2704 2624,2705 2622,2705 2621,2706 2618,2706 2617,2707 2608,2707 2607,2708 2603,2708 2602,2709 2599,2709 2598,2710 2593,2710 2592,2711 2585,2711 2584,2712 2579,2712 2578,2713 2574,2713 2573,2714 2563,2714 2562,2715 2556,2715 2555,2716 2550,2716 2549,2717 2523,2717 2522,2718 2508,2718 2507,2719 2499,2719 2498,2720 2472,2720 2471,2721 2442,2721 2441,2722 2418,2722 2417,2723 2383,2723 2382,2722 2371,2722 2370,2723 2359,2723 2358,2724 2315,2724 2314,2725 2265,2725 2264,2726 2242,2726 2241,2725 2232,2725 2231,2726 2200,2726 2199,2725 2192,2725 2191,2724 2173,2724 2172,2723 2159,2723 2158,2724 2143,2724 2142,2725 2098,2725 2097,2726 2051,2726 2050,2727 2018,2727 2017,2728 2001,2728 2000,2729 1989,2729 1988,2730 1955,2730 1954,2731 1943,2731 1942,2730 1923,2730 1922,2731 1906,2731 1905,2732 1819,2732 1818,2733 1812,2733 1811,2734 1808,2734 1807,2735 1806,2735 1805,2736 1805,2737 1804,2738 1804,2758 1805,2759 1805,2763 1804,2764 1804,2767 1803,2768 1803,2769 1802,2770 1802,2771 1801,2772 1801,2776 1802,2777 1802,2778 1803,2779 1803,2782 1804,2783 1804,2798 1803,2799 1803,2862 1804,2863 1804,2876 1803,2877 1803,2888 1804,2889 1804,2905 1805,2906 1805,2919 1804,2920 1804,2923 1803,2924 1803,2931 1804,2932 1804,2936 1805,2937 1805,2945 1804,2946 1804,2958 1805,2959 1805,2973 1804,2974 1804,2979 1805,2980 1805,3056 1806,3057 1806,3062 1805,3063 1805,3085 1806,3086 1806,3092 1807,3093 1807,3094 1808,3095 1808,3096 1809,3097 1810,3097 1811,3098 1812,3098 1813,3099 1815,3099 1816,3100 1820,3100 1821,3101 1840,3101 1841,3100 1846,3100 1847,3101 1865,3101 1866,3102 1887,3102 1888,3101 1907,3101 1908,3100 1919,3100 1920,3101 1932,3101 1933,3100 1966,3100 1967,3099 1973,3099 1974,3098 1981,3098 1982,3097 1993,3097 1994,3098 2001,3098 2002,3099 2023,3099 2024,3098 2029,3098 2030,3097 2046,3097 2047,3096 2075,3096 2076,3095 2085,3095 2086,3094 2096,3094 2097,3093 2123,3093 2124,3092 2142,3092 2143,3091 2148,3091 2149,3090 2154,3090 2155,3089 2169,3089 2170,3088 2175,3088 2176,3087 2182,3087 2183,3088 2204,3088 2205,3089 2211,3089 2212,3090 2215,3090 2216,3091 2218,3091 2219,3092 2224,3092 2225,3093 2234,3093 2235,3092 2323,3092 2324,3091 2336,3091 2337,3092 2349,3092 2350,3091 2355,3091 2356,3090 2358,3090 2359,3091 2365,3091 2366,3092 2372,3092 2373,3091 2395,3091 2396,3090 2400,3090 2401,3089 2410,3089 2411,3090 2424,3090 2425,3089 2446,3089 2447,3088 2484,3088 2485,3087 2494,3087 2495,3086 2505,3086 2506,3085 2517,3085 2518,3084 2527,3084 2528,3083 2534,3083 2535,3082 2543,3082 2544,3081 2550,3081 2551,3080 2555,3080 2556,3079 2564,3079 2565,3078 2573,3078 2574,3077 2577,3077 2578,3076 2582,3076 2583,3075 2587,3075 2588,3074 2593,3074 2594,3073 2598,3073 2599,3072 2602,3072 2603,3071 2606,3071 2607,3070 2611,3070 2612,3069 2617,3069 2618,3068 2620,3068 2621,3067 2624,3067 2625,3066 2628,3066 2629,3065 2635,3065 2636,3064 2653,3064 2654,3065 2667,3065 2668,3066 2678,3066 2679,3067 2692,3067 2693,3068 2702,3068 2703,3069 2719,3069 2720,3070 2731,3070 2732,3071 2743,3071 2744,3072 2751,3072 2752,3073 2771,3073 2772,3074 2773,3074 2774,3073 2777,3073 2778,3072 2779,3072 2780,3071 2782,3071 2783,3070 2786,3070 2787,3071 2788,3071 2790,3073 2791,3073 2792,3074 2794,3074 2795,3075 2802,3075 2803,3076 2837,3076 2838,3077 2854,3077 2855,3078 2864,3078 2865,3079 2893,3079 2894,3078 2895,3078 2896,3079 2914,3079 2915,3078 2918,3078 2919,3079 2956,3079 2957,3078 2962,3078 2963,3077 2964,3077 2966,3075 2966,3074 2967,3073 2967,3072 2968,3071 2968,3068 2969,3067 2969,3048 2968,3047 2968,3034 2967,3033 2967,3012 2966,3011 2966,2998 2967,2997 2967,2991 2968,2990 2968,2963 2967,2962 2967,2935 2966,2934 2966,2895 2967,2894 2967,2888 2966,2887 2966,2879 2967,2878 2967,2866 2966,2865 2966,2861 2965,2860 2965,2852 2966,2851 2966,2840 2965,2839 2965,2800 2966,2799 2966,2793 2965,2792 2965,2778 2966,2777 2966,2768 2965,2767 2965,2759 2966,2758 2966,2736 2965,2735 2965,2732 2964,2731 2964,2728 2963,2727 2963,2725 2962,2724 2962,2723 2960,2721 2960,2720 2959,2720 2957,2718 2955,2718 2954,2717 2948,2717 2947,2716 2933,2716 2932,2715 2899,2715 2898,2714 2877,2714 2876,2713 2840,2713 2839,2712 2817,2712 2816,2711 2797,2711 2796,2710 2779,2710 2778,2709 2754,2709 2753,2708 2747,2708 2746,2709 2736,2709 2735,2708 2730,2708 2729,2707 2697,2707 2696,2706 2682,2706 2681,2705 2669,2705 2668,2704 2659,2704 2658,2703 2649,2703 2648,2702" fill="rgba(151,130,149,0.3)" stroke="rgb(151,130,149)" stroke-width="2" data-block-id="0004" data-name="b-0009" /><text x="2420" y="2927" text-anchor="middle" dominant-baseline="middle" class="block-label" fill="rgb(151,130,149)" stroke="white" stroke-width="3" paint-order="stroke">b-0009</text><polygon points="2318,251 2317,252 2315,252 2314,253 2301,253 2300,252 2295,252 2294,253 2289,253 2288,254 2269,254 2268,255 2264,255 2263,256 2258,256 2257,255 2242,255 2241,256 2222,256 2221,257 2219,257 2218,258 2216,258 2215,259 2211,259 2210,258 2208,258 2207,257 2202,257 2201,256 2172,256 2171,257 2160,257 2159,256 2138,256 2137,255 2103,255 2102,254 2081,254 2080,255 2075,255 2074,256 2071,256 2070,257 2056,257 2055,256 2050,256 2049,255 2044,255 2043,256 2038,256 2037,257 2027,257 2026,258 2019,258 2018,259 2008,259 2007,258 2004,258 2003,257 1998,257 1997,256 1995,256 1994,257 1977,257 1976,258 1970,258 1969,259 1959,259 1958,258 1954,258 1953,257 1943,257 1942,258 1933,258 1932,257 1924,257 1923,258 1913,258 1912,257 1910,257 1909,256 1907,256 1906,255 1895,255 1894,256 1887,256 1886,255 1873,255 1872,256 1864,256 1863,255 1846,255 1845,256 1819,256 1818,257 1805,257 1804,258 1801,258 1800,259 1797,259 1795,261 1794,261 1794,262 1793,263 1793,264 1792,265 1792,266 1791,267 1791,277 1792,278 1792,284 1791,285 1791,293 1792,294 1792,299 1793,300 1793,308 1792,309 1792,316 1791,317 1792,318 1792,331 1793,332 1793,349 1794,350 1793,351 1793,360 1792,361 1792,366 1793,367 1793,406 1792,407 1792,419 1793,420 1793,449 1792,450 1792,476 1793,477 1793,483 1792,484 1792,493 1791,494 1791,503 1790,504 1790,509 1791,510 1791,516 1792,517 1792,605 1793,606 1793,610 1794,611 1794,613 1797,616 1798,616 1799,617 1801,617 1802,618 1805,618 1806,619 1861,619 1862,620 1911,620 1912,621 1924,621 1925,620 1946,620 1947,621 1960,621 1961,622 1963,622 1964,621 1973,621 1974,620 2001,620 2002,619 2027,619 2028,618 2040,618 2041,619 2078,619 2079,620 2149,620 2150,619 2156,619 2157,620 2167,620 2168,621 2221,621 2222,620 2234,620 2235,619 2237,619 2238,620 2241,620 2242,621 2246,621 2247,622 2265,622 2266,621 2273,621 2274,620 2275,621 2311,621 2312,620 2317,620 2318,619 2385,619 2386,620 2399,620 2400,619 2408,619 2409,620 2432,620 2433,621 2439,621 2440,622 2456,622 2457,623 2468,623 2469,622 2472,622 2473,621 2487,621 2488,622 2510,622 2511,623 2528,623 2529,624 2535,624 2536,625 2537,625 2538,624 2550,624 2551,625 2555,625 2556,626 2562,626 2563,627 2585,627 2586,626 2605,626 2606,627 2620,627 2621,628 2623,628 2624,629 2627,629 2628,630 2662,630 2663,629 2684,629 2685,628 2712,628 2713,627 2719,627 2720,626 2726,626 2727,625 2734,625 2735,624 2741,624 2742,625 2746,625 2747,626 2753,626 2754,625 2760,625 2761,624 2763,624 2764,625 2769,625 2770,626 2786,626 2787,627 2807,627 2808,626 2812,626 2813,627 2854,627 2855,626 2879,626 2880,625 2926,625 2927,624 2934,624 2935,625 2942,625 2943,624 2947,624 2948,623 2951,623 2952,622 2953,622 2957,618 2957,617 2958,616 2958,615 2959,614 2959,608 2958,607 2958,524 2959,523 2959,491 2958,490 2958,485 2957,484 2957,455 2958,454 2958,437 2957,436 2957,429 2958,428 2958,397 2957,396 2957,325 2958,324 2958,279 2957,278 2957,272 2956,271 2956,269 2955,268 2955,267 2953,265 2951,265 2950,264 2945,264 2944,263 2935,263 2934,262 2901,262 2900,263 2890,263 2889,262 2838,262 2837,261 2821,261 2820,262 2816,262 2815,263 2812,263 2811,264 2798,264 2797,265 2794,265 2793,266 2791,266 2790,267 2788,267 2787,268 2785,268 2784,269 2772,269 2771,268 2750,268 2749,269 2733,269 2732,268 2703,268 2702,269 2694,269 2693,270 2687,270 2686,269 2669,269 2668,270 2665,270 2664,269 2654,269 2653,270 2650,270 2649,271 2646,271 2645,272 2639,272 2638,271 2632,271 2631,270 2627,270 2626,269 2622,269 2621,268 2613,268 2612,267 2606,267 2605,266 2598,266 2597,265 2584,265 2583,264 2565,264 2564,263 2552,263 2551,262 2535,262 2534,261 2533,261 2532,262 2524,262 2523,261 2506,261 2505,260 2492,260 2491,259 2484,259 2483,258 2478,258 2477,257 2473,257 2472,256 2468,256 2467,255 2458,255 2457,256 2449,256 2448,255 2441,255 2440,254 2439,254 2438,255 2430,255 2429,256 2423,256 2422,255 2415,255 2414,256 2400,256 2399,255 2393,255 2392,254 2366,254 2365,255 2360,255 2359,256 2355,256 2354,255 2352,255 2351,254 2347,254 2346,253 2339,253 2338,252 2332,252 2331,251" fill="rgba(52,1,87,0.3)" stroke="rgb(52,1,87)" stroke-width="2" data-block-id="0005" data-name="b-0010" /><text x="2355" y="402" text-anchor="middle" dominant-baseline="middle" class="block-label" fill="rgb(52,1,87)" stroke="white" stroke-width="3" paint-order="stroke">b-0010</text><polygon points="2819,2237 2818,2238 2816,2238 2815,2239 2812,2239 2811,2240 2804,2240 2803,2239 2791,2239 2790,2240 2756,2240 2755,2239 2743,2239 2742,2240 2736,2240 2735,2239 2728,2239 2727,2238 2723,2238 2722,2239 2711,2239 2710,2238 2639,2238 2638,2239 2604,2239 2603,2240 2591,2240 2590,2241 2580,2241 2579,2242 2573,2242 2572,2243 2563,2243 2562,2244 2545,2244 2544,2245 2508,2245 2507,2246 2477,2246 2476,2245 2458,2245 2457,2246 2444,2246 2443,2247 2434,2247 2433,2246 2415,2246 2414,2247 2372,2247 2371,2248 2350,2248 2349,2249 2228,2249 2227,2250 2215,2250 2214,2251 2186,2251 2185,2252 2112,2252 2111,2253 2101,2253 2100,2252 2090,2252 2089,2253 2040,2253 2039,2254 2005,2254 2004,2253 1996,2253 1995,2254 1990,2254 1989,2255 1982,2255 1981,2254 1883,2254 1882,2253 1876,2253 1875,2254 1850,2254 1849,2255 1839,2255 1838,2254 1823,2254 1822,2255 1816,2255 1815,2256 1812,2256 1811,2257 1809,2257 1808,2258 1807,2258 1806,2259 1805,2259 1805,2260 1804,2261 1804,2290 1805,2291 1805,2299 1804,2300 1804,2306 1803,2307 1803,2310 1804,2311 1804,2371 1803,2372 1803,2400 1802,2401 1802,2411 1803,2412 1803,2436 1804,2437 1804,2451 1805,2452 1805,2475 1806,2476 1806,2492 1805,2493 1805,2609 1806,2610 1806,2612 1807,2613 1807,2614 1808,2615 1808,2616 1810,2618 1811,2618 1813,2620 1815,2620 1816,2621 1839,2621 1840,2622 1886,2622 1887,2621 1930,2621 1931,2620 2000,2620 2001,2619 2072,2619 2073,2618 2130,2618 2131,2617 2132,2617 2133,2618 2163,2618 2164,2617 2234,2617 2235,2616 2240,2616 2241,2617 2259,2617 2260,2616 2321,2616 2322,2615 2339,2615 2340,2616 2352,2616 2353,2615 2398,2615 2399,2614 2427,2614 2428,2613 2454,2613 2455,2612 2473,2612 2474,2611 2493,2611 2494,2610 2509,2610 2510,2609 2529,2609 2530,2608 2542,2608 2543,2607 2553,2607 2554,2606 2565,2606 2566,2605 2573,2605 2574,2604 2578,2604 2579,2603 2584,2603 2585,2602 2593,2602 2594,2601 2599,2601 2600,2600 2604,2600 2605,2599 2619,2599 2620,2598 2624,2598 2625,2597 2629,2597 2630,2596 2637,2596 2638,2595 2663,2595 2664,2596 2673,2596 2674,2597 2682,2597 2683,2598 2740,2598 2741,2599 2751,2599 2752,2600 2771,2600 2772,2601 2807,2601 2808,2600 2812,2600 2813,2601 2832,2601 2833,2602 2837,2602 2838,2603 2842,2603 2843,2604 2866,2604 2867,2603 2873,2603 2874,2604 2955,2604 2956,2603 2958,2603 2962,2599 2962,2598 2963,2597 2963,2595 2964,2594 2964,2545 2963,2544 2963,2538 2962,2537 2962,2533 2963,2532 2963,2527 2964,2526 2964,2497 2963,2496 2963,2468 2964,2467 2964,2455 2963,2454 2963,2435 2962,2434 2962,2420 2963,2419 2963,2408 2962,2407 2962,2371 2963,2370 2963,2367 2962,2366 2962,2347 2961,2346 2961,2278 2962,2277 2962,2265 2961,2264 2961,2261 2962,2260 2962,2252 2963,2251 2963,2250 2962,2249 2962,2247 2959,2244 2958,2244 2956,2242 2954,2242 2953,2241 2944,2241 2943,2240 2916,2240 2915,2239 2901,2239 2900,2238 2873,2238 2872,2237 2865,2237 2864,2238 2852,2238 2851,2237" fill="rgba(235,157,37,0.3)" stroke="rgb(235,157,37)" stroke-width="2" data-block-id="0006" data-name="b-0011" /><text x="2451" y="2421" text-anchor="middle" dominant-baseline="middle" class="block-label" fill="rgb(235,157,37)" stroke="white" stroke-width="3" paint-order="stroke">b-0011</text><polygon points="1590,2736 1589,2737 1558,2737 1557,2738 1530,2738 1529,2739 1525,2739 1524,2740 1517,2740 1516,2739 1512,2739 1511,2738 1487,2738 1486,2739 1441,2739 1440,2740 1435,2740 1434,2739 1391,2739 1390,2740 1381,2740 1380,2741 1359,2741 1358,2740 1349,2740 1348,2741 1330,2741 1329,2742 1315,2742 1314,2741 1285,2741 1284,2742 1280,2742 1279,2741 1237,2741 1236,2742 1227,2742 1226,2741 1220,2741 1219,2742 1186,2742 1185,2743 1184,2742 1158,2742 1157,2743 1144,2743 1143,2742 1132,2742 1131,2741 1120,2741 1119,2742 1097,2742 1096,2743 1063,2743 1062,2744 1058,2744 1057,2745 1052,2745 1051,2744 1024,2744 1023,2743 1006,2743 1005,2744 953,2744 952,2745 927,2745 926,2744 911,2744 910,2745 856,2745 855,2746 831,2746 830,2745 812,2745 811,2746 781,2746 780,2745 702,2745 701,2746 679,2746 678,2747 652,2747 651,2748 562,2748 561,2749 543,2749 542,2750 504,2750 503,2751 492,2751 491,2752 487,2752 486,2753 485,2753 484,2754 484,2755 482,2757 482,2758 481,2759 481,2761 480,2762 480,2771 479,2772 479,2778 480,2779 480,2807 481,2808 481,2811 480,2812 480,3029 479,3030 479,3067 480,3068 480,3079 479,3080 479,3089 480,3090 480,3111 481,3112 481,3114 482,3115 482,3116 485,3119 487,3119 488,3120 559,3120 560,3121 569,3121 570,3120 581,3120 582,3119 621,3119 622,3118 630,3118 631,3117 694,3117 695,3116 703,3116 704,3117 715,3117 716,3116 729,3116 730,3117 751,3117 752,3116 772,3116 773,3115 798,3115 799,3116 825,3116 826,3115 836,3115 837,3114 855,3114 856,3115 878,3115 879,3114 891,3114 892,3115 919,3115 920,3114 940,3114 941,3115 966,3115 967,3114 982,3114 983,3113 1000,3113 1001,3114 1020,3114 1021,3113 1059,3113 1060,3114 1073,3114 1074,3113 1100,3113 1101,3114 1117,3114 1118,3113 1129,3113 1130,3112 1144,3112 1145,3113 1173,3113 1174,3112 1191,3112 1192,3113 1201,3113 1202,3112 1211,3112 1212,3111 1215,3111 1216,3112 1227,3112 1228,3111 1236,3111 1237,3112 1256,3112 1257,3111 1261,3111 1262,3112 1301,3112 1302,3111 1316,3111 1317,3110 1332,3110 1333,3111 1365,3111 1366,3110 1385,3110 1386,3109 1400,3109 1401,3110 1419,3110 1420,3109 1446,3109 1447,3110 1465,3110 1466,3109 1475,3109 1476,3110 1500,3110 1501,3109 1507,3109 1508,3108 1530,3108 1531,3107 1566,3107 1567,3106 1575,3106 1576,3107 1583,3107 1584,3106 1606,3106 1607,3105 1613,3105 1614,3104 1616,3104 1617,3103 1618,3103 1620,3101 1620,3100 1621,3099 1621,3097 1622,3096 1622,3086 1623,3085 1623,3065 1622,3064 1622,3038 1623,3037 1623,3026 1622,3025 1622,3017 1621,3016 1621,2966 1620,2965 1620,2948 1621,2947 1621,2929 1620,2928 1620,2888 1619,2887 1619,2850 1620,2849 1620,2843 1619,2842 1619,2748 1618,2747 1618,2744 1617,2743 1617,2742 1616,2741 1616,2740 1615,2739 1614,2739 1613,2738 1611,2738 1610,2737 1607,2737 1606,2736" fill="rgba(129,191,187,0.3)" stroke="rgb(129,191,187)" stroke-width="2" data-block-id="0007" data-name="b-0012" /><text x="1116" y="2939" text-anchor="middle" dominant-baseline="middle" class="block-label" fill="rgb(129,191,187)" stroke="white" stroke-width="3" paint-order="stroke">b-0012</text><polygon points="1813,737 1812,738 1804,738 1803,739 1800,739 1799,740 1798,740 1794,744 1794,751 1793,752 1793,780 1792,781 1792,789 1793,790 1793,810 1792,811 1792,909 1793,910 1793,917 1792,918 1792,932 1793,933 1793,943 1792,944 1792,951 1793,952 1793,1029 1794,1030 1794,1096 1795,1097 1795,1098 1796,1099 1796,1100 1797,1101 1798,1101 1799,1102 1802,1102 1803,1103 1807,1103 1808,1104 1819,1104 1820,1105 1865,1105 1866,1104 1928,1104 1929,1103 1995,1103 1996,1104 2003,1104 2004,1103 2016,1103 2017,1104 2047,1104 2048,1103 2057,1103 2058,1102 2062,1102 2063,1103 2074,1103 2075,1102 2100,1102 2101,1103 2119,1103 2120,1102 2126,1102 2127,1101 2131,1101 2132,1102 2137,1102 2138,1103 2148,1103 2149,1102 2160,1102 2161,1103 2169,1103 2170,1102 2181,1102 2182,1101 2223,1101 2224,1102 2243,1102 2244,1101 2254,1101 2255,1102 2283,1102 2284,1101 2296,1101 2297,1100 2300,1100 2301,1101 2359,1101 2360,1102 2370,1102 2371,1103 2388,1103 2389,1102 2398,1102 2399,1101 2436,1101 2437,1100 2442,1100 2443,1101 2449,1101 2450,1102 2465,1102 2466,1101 2472,1101 2473,1100 2483,1100 2484,1101 2507,1101 2508,1102 2521,1102 2522,1103 2525,1103 2526,1102 2570,1102 2571,1103 2579,1103 2580,1104 2604,1104 2605,1103 2610,1103 2611,1104 2622,1104 2623,1105 2625,1105 2626,1106 2629,1106 2630,1107 2636,1107 2637,1106 2709,1106 2710,1105 2748,1105 2749,1106 2775,1106 2776,1105 2785,1105 2786,1104 2812,1104 2813,1103 2851,1103 2852,1102 2862,1102 2863,1103 2913,1103 2914,1104 2919,1104 2920,1103 2930,1103 2931,1102 2938,1102 2939,1101 2945,1101 2946,1100 2949,1100 2950,1099 2951,1099 2952,1098 2953,1098 2953,1097 2955,1095 2955,1093 2956,1092 2956,1046 2955,1045 2955,1042 2956,1041 2956,1026 2955,1025 2955,988 2956,987 2956,982 2955,981 2955,967 2956,966 2956,945 2955,944 2955,871 2956,870 2956,837 2955,836 2955,820 2956,819 2956,815 2955,814 2955,786 2956,785 2956,767 2955,766 2955,757 2954,756 2954,750 2953,749 2953,746 2952,745 2952,744 2951,743 2950,743 2949,742 2947,742 2946,741 2938,741 2937,740 2884,740 2883,739 2881,739 2880,740 2846,740 2845,741 2828,741 2827,742 2810,742 2809,743 2798,743 2797,744 2779,744 2778,745 2748,745 2747,746 2728,746 2727,747 2693,747 2692,748 2685,748 2684,749 2679,749 2678,750 2673,750 2672,751 2668,751 2667,752 2658,752 2657,753 2647,753 2646,754 2634,754 2633,755 2629,755 2628,754 2616,754 2615,753 2607,753 2606,752 2599,752 2598,751 2580,751 2579,750 2569,750 2568,749 2561,749 2560,748 2554,748 2553,747 2536,747 2535,746 2526,746 2525,745 2519,745 2518,744 2507,744 2506,743 2483,743 2482,742 2480,742 2479,741 2478,741 2477,740 2476,740 2475,739 2473,739 2472,738 2468,738 2467,737 2408,737 2407,738 2397,738 2396,739 2389,739 2388,740 2373,740 2372,741 2294,741 2293,742 2290,742 2289,743 2285,743 2284,744 2277,744 2276,743 2270,743 2269,742 2265,742 2264,741 2257,741 2256,740 2233,740 2232,739 2223,739 2222,740 2195,740 2194,741 2183,741 2182,742 2158,742 2157,741 2123,741 2122,740 2100,740 2099,741 2077,741 2076,740 2062,740 2061,741 2006,741 2005,740 1981,740 1980,739 1959,739 1958,738 1907,738 1906,737" fill="rgba(20,160,203,0.3)" stroke="rgb(20,160,203)" stroke-width="2" data-block-id="0008" data-name="b-0013" /><text x="2432" y="918" text-anchor="middle" dominant-baseline="middle" class="block-label" fill="rgb(20,160,203)" stroke="white" stroke-width="3" paint-order="stroke">b-0013</text><polygon points="1509,1294 1508,1295 1468,1295 1467,1296 1429,1296 1428,1297 1419,1297 1418,1296 1411,1296 1410,1297 1396,1297 1395,1298 1389,1298 1388,1297 1334,1297 1333,1298 1287,1298 1286,1299 1280,1299 1279,1298 1266,1298 1265,1299 1252,1299 1251,1298 1227,1298 1226,1297 1222,1297 1221,1298 1213,1298 1212,1299 1208,1299 1207,1298 1185,1298 1184,1297 1168,1297 1167,1298 1161,1298 1160,1297 1145,1297 1144,1298 1097,1298 1096,1299 1029,1299 1028,1300 1011,1300 1010,1299 1002,1299 1001,1300 979,1300 978,1301 970,1301 969,1300 964,1300 963,1299 955,1299 954,1300 933,1300 932,1301 915,1301 914,1300 907,1300 906,1301 895,1301 894,1300 888,1300 887,1301 882,1301 881,1302 870,1302 869,1301 828,1301 827,1300 813,1300 812,1301 797,1301 796,1302 791,1302 790,1301 783,1301 782,1300 774,1300 773,1301 655,1301 654,1302 643,1302 642,1301 621,1301 620,1302 605,1302 604,1303 603,1302 591,1302 590,1301 589,1301 588,1302 523,1302 522,1303 504,1303 503,1304 494,1304 493,1305 492,1305 488,1309 488,1310 487,1311 487,1313 486,1314 486,1316 485,1317 485,1326 484,1327 484,1421 485,1422 485,1435 484,1436 484,1466 485,1467 485,1488 486,1489 486,1503 485,1504 485,1513 486,1514 486,1553 485,1554 485,1560 486,1561 486,1587 487,1588 487,1598 486,1599 486,1607 487,1608 487,1617 488,1618 488,1636 489,1637 489,1644 488,1645 488,1655 489,1656 489,1660 490,1661 490,1664 491,1665 491,1666 492,1667 492,1668 494,1670 495,1670 496,1671 505,1671 506,1672 512,1672 513,1673 519,1673 520,1674 521,1674 522,1673 532,1673 533,1674 539,1674 540,1675 546,1675 547,1674 560,1674 561,1675 575,1675 576,1674 584,1674 585,1675 592,1675 593,1674 608,1674 609,1675 619,1675 620,1674 625,1674 626,1673 644,1673 645,1672 653,1672 654,1673 660,1673 661,1674 663,1674 664,1673 671,1673 672,1672 680,1672 681,1673 687,1673 688,1672 694,1672 695,1671 704,1671 705,1672 712,1672 713,1671 740,1671 741,1672 753,1672 754,1673 764,1673 765,1672 773,1672 774,1671 778,1671 779,1670 799,1670 800,1671 819,1671 820,1670 825,1670 826,1669 831,1669 832,1670 836,1670 837,1671 867,1671 868,1670 871,1670 872,1669 875,1669 876,1668 879,1668 880,1669 888,1669 889,1670 918,1670 919,1669 931,1669 932,1670 949,1670 950,1669 962,1669 963,1668 968,1668 969,1667 973,1667 974,1668 976,1668 977,1669 978,1669 979,1670 981,1670 982,1671 987,1671 988,1670 990,1670 991,1669 993,1669 994,1668 1000,1668 1001,1669 1029,1669 1030,1670 1055,1670 1056,1669 1059,1669 1060,1668 1064,1668 1065,1667 1074,1667 1075,1668 1100,1668 1101,1669 1106,1669 1107,1668 1154,1668 1155,1667 1168,1667 1169,1668 1190,1668 1191,1667 1249,1667 1250,1666 1264,1666 1265,1667 1278,1667 1279,1666 1348,1666 1349,1665 1359,1665 1360,1666 1369,1666 1370,1665 1395,1665 1396,1664 1404,1664 1405,1665 1421,1665 1422,1664 1429,1664 1430,1665 1435,1665 1436,1666 1443,1666 1444,1665 1452,1665 1453,1666 1465,1666 1466,1665 1472,1665 1473,1664 1505,1664 1506,1665 1515,1665 1516,1664 1526,1664 1527,1665 1535,1665 1536,1664 1541,1664 1542,1663 1553,1663 1554,1664 1557,1664 1558,1663 1564,1663 1565,1662 1574,1662 1575,1663 1588,1663 1589,1662 1595,1662 1596,1661 1600,1661 1601,1660 1604,1660 1605,1659 1606,1659 1608,1657 1609,1657 1610,1656 1610,1655 1611,1654 1611,1653 1612,1652 1612,1629 1613,1628 1613,1612 1612,1611 1612,1593 1611,1592 1611,1587 1612,1586 1612,1559 1611,1558 1611,1553 1612,1552 1612,1539 1611,1538 1611,1531 1612,1530 1612,1516 1611,1515 1611,1482 1612,1481 1612,1476 1613,1475 1613,1470 1612,1469 1612,1463 1611,1462 1611,1459 1612,1458 1612,1420 1611,1419 1611,1380 1612,1379 1611,1378 1611,1372 1610,1371 1610,1340 1611,1339 1611,1333 1612,1332 1612,1328 1611,1327 1611,1323 1610,1322 1610,1309 1611,1308 1610,1307 1610,1305 1609,1304 1609,1303 1607,1301 1607,1300 1606,1299 1605,1299 1603,1297 1602,1297 1601,1296 1599,1296 1598,1295 1595,1295 1594,1294 1563,1294 1562,1295 1527,1295 1526,1294" fill="rgba(57,21,252,0.3)" stroke="rgb(57,21,252)" stroke-width="2" data-block-id="0009" data-name="b-0014" /><text x="1052" y="1518" text-anchor="middle" dominant-baseline="middle" class="block-label" fill="rgb(57,21,252)" stroke="white" stroke-width="3" paint-order="stroke">b-0014</text><polygon points="1536,1778 1535,1779 1471,1779 1470,1780 1450,1780 1449,1779 1435,1779 1434,1780 1429,1780 1428,1781 1418,1781 1417,1780 1385,1780 1384,1781 1361,1781 1360,1780 1338,1780 1337,1781 1295,1781 1294,1782 1264,1782 1263,1781 1253,1781 1252,1782 1237,1782 1236,1783 1158,1783 1157,1784 1149,1784 1148,1783 1128,1783 1127,1784 1102,1784 1101,1785 1079,1785 1078,1786 1038,1786 1037,1785 1030,1785 1029,1786 1025,1786 1024,1787 1012,1787 1011,1786 989,1786 988,1785 983,1785 982,1786 978,1786 977,1787 956,1787 955,1788 948,1788 947,1789 929,1789 928,1790 914,1790 913,1789 884,1789 883,1790 874,1790 873,1789 872,1789 871,1788 869,1788 868,1787 855,1787 854,1788 846,1788 845,1787 812,1787 811,1788 798,1788 797,1789 789,1789 788,1788 751,1788 750,1787 740,1787 739,1788 725,1788 724,1787 720,1787 719,1788 706,1788 705,1789 677,1789 676,1788 673,1788 672,1789 666,1789 665,1790 635,1790 634,1789 622,1789 621,1790 574,1790 573,1791 522,1791 521,1792 513,1792 512,1791 502,1791 501,1792 493,1792 492,1793 490,1793 489,1794 488,1794 485,1797 485,1798 484,1799 484,1803 483,1804 483,1819 484,1820 484,1839 483,1840 483,1846 484,1847 484,1873 483,1874 483,1918 484,1919 484,1924 485,1925 485,1929 484,1930 484,1936 483,1937 483,1943 484,1944 484,1960 483,1961 483,1982 482,1983 482,1991 483,1992 483,2020 482,2021 482,2039 483,2040 483,2087 484,2088 484,2114 485,2115 485,2119 484,2120 484,2133 485,2134 485,2139 486,2140 486,2153 489,2156 490,2156 491,2157 493,2157 494,2158 501,2158 502,2159 524,2159 525,2160 546,2160 547,2159 569,2159 570,2160 579,2160 580,2161 584,2161 585,2160 598,2160 599,2161 601,2161 602,2160 628,2160 629,2159 684,2159 685,2158 691,2158 692,2157 727,2157 728,2158 738,2158 739,2157 755,2157 756,2156 789,2156 790,2155 867,2155 868,2154 871,2154 872,2153 874,2153 875,2152 877,2152 878,2153 880,2153 881,2154 882,2154 883,2155 889,2155 890,2156 891,2156 892,2155 946,2155 947,2154 952,2154 953,2155 979,2155 980,2154 1015,2154 1016,2153 1022,2153 1023,2154 1048,2154 1049,2153 1074,2153 1075,2154 1092,2154 1093,2153 1112,2153 1113,2152 1118,2152 1119,2153 1152,2153 1153,2152 1156,2152 1157,2151 1158,2151 1159,2150 1160,2150 1161,2149 1165,2149 1166,2150 1168,2150 1169,2151 1172,2151 1173,2152 1180,2152 1181,2151 1192,2151 1193,2150 1216,2150 1217,2151 1249,2151 1250,2150 1255,2150 1256,2149 1263,2149 1264,2150 1278,2150 1279,2149 1288,2149 1289,2150 1330,2150 1331,2149 1338,2149 1339,2148 1362,2148 1363,2147 1370,2147 1371,2148 1416,2148 1417,2147 1421,2147 1422,2146 1459,2146 1460,2147 1491,2147 1492,2146 1501,2146 1502,2147 1512,2147 1513,2146 1526,2146 1527,2147 1565,2147 1566,2146 1574,2146 1575,2145 1604,2145 1605,2144 1607,2144 1608,2143 1610,2143 1611,2142 1611,2141 1612,2140 1612,2139 1613,2138 1613,2131 1614,2130 1614,2124 1613,2123 1613,2098 1614,2097 1614,2069 1615,2068 1615,2035 1614,2034 1614,2004 1615,2003 1615,1975 1614,1974 1614,1973 1615,1972 1615,1955 1614,1954 1614,1932 1613,1931 1613,1925 1614,1924 1614,1917 1615,1916 1615,1882 1614,1881 1614,1852 1613,1851 1613,1835 1612,1834 1612,1831 1613,1830 1613,1825 1614,1824 1614,1818 1615,1817 1615,1812 1614,1811 1614,1801 1613,1800 1613,1796 1612,1795 1612,1792 1611,1791 1611,1788 1610,1787 1610,1785 1606,1781 1604,1781 1603,1780 1600,1780 1599,1779 1595,1779 1594,1778 1584,1778 1583,1779 1579,1779 1578,1778" fill="rgba(235,88,48,0.3)" stroke="rgb(235,88,48)" stroke-width="2" data-block-id="0010" data-name="b-0015" /><text x="1049" y="1970" text-anchor="middle" dominant-baseline="middle" class="block-label" fill="rgb(235,88,48)" stroke="white" stroke-width="3" paint-order="stroke">b-0015</text><polygon points="1487,2258 1486,2259 1439,2259 1438,2260 1379,2260 1378,2261 1357,2261 1356,2260 1352,2260 1351,2261 1332,2261 1331,2262 1309,2262 1308,2261 1304,2261 1303,2262 1286,2262 1285,2263 1264,2263 1263,2262 1242,2262 1241,2263 1216,2263 1215,2262 1197,2262 1196,2263 1149,2263 1148,2264 1143,2264 1142,2265 1132,2265 1131,2264 1101,2264 1100,2265 1091,2265 1090,2266 1089,2266 1088,2265 1072,2265 1071,2266 1064,2266 1063,2265 1053,2265 1052,2266 997,2266 996,2267 979,2267 978,2266 971,2266 970,2267 964,2267 963,2268 956,2268 955,2267 915,2267 914,2266 913,2266 912,2267 891,2267 890,2268 889,2268 888,2267 863,2267 862,2268 811,2268 810,2269 764,2269 763,2268 758,2268 757,2269 727,2269 726,2268 715,2268 714,2269 662,2269 661,2268 658,2268 657,2269 648,2269 647,2268 628,2268 627,2269 626,2268 596,2268 595,2269 583,2269 582,2268 575,2268 574,2269 562,2269 561,2270 538,2270 537,2271 526,2271 525,2270 504,2270 503,2271 491,2271 490,2272 489,2272 488,2273 487,2273 486,2274 485,2274 485,2276 484,2277 484,2281 483,2282 483,2310 482,2311 482,2334 481,2335 481,2348 482,2349 482,2358 481,2359 481,2364 480,2365 480,2377 481,2378 481,2385 480,2386 480,2393 481,2394 481,2401 482,2402 482,2407 481,2408 481,2461 480,2462 480,2463 481,2464 481,2506 480,2507 480,2604 479,2605 479,2610 480,2611 480,2629 481,2630 481,2632 485,2636 487,2636 488,2637 492,2637 493,2638 534,2638 535,2637 609,2637 610,2636 650,2636 651,2635 693,2635 694,2634 726,2634 727,2633 740,2633 741,2634 763,2634 764,2633 792,2633 793,2632 811,2632 812,2633 823,2633 824,2632 861,2632 862,2631 903,2631 904,2630 921,2630 922,2631 927,2631 928,2630 1003,2630 1004,2629 1010,2629 1011,2630 1027,2630 1028,2629 1065,2629 1066,2630 1069,2630 1070,2629 1111,2629 1112,2630 1121,2630 1122,2629 1152,2629 1153,2630 1236,2630 1237,2629 1242,2629 1243,2628 1252,2628 1253,2629 1258,2629 1259,2630 1262,2630 1263,2629 1274,2629 1275,2628 1300,2628 1301,2629 1308,2629 1309,2628 1383,2628 1384,2627 1429,2627 1430,2626 1442,2626 1443,2627 1470,2627 1471,2626 1503,2626 1504,2625 1554,2625 1555,2626 1557,2626 1558,2625 1576,2625 1577,2624 1605,2624 1606,2623 1609,2623 1610,2622 1612,2622 1613,2621 1614,2621 1616,2619 1616,2618 1617,2617 1617,2614 1618,2613 1618,2606 1619,2605 1619,2593 1618,2592 1618,2490 1617,2489 1617,2481 1618,2480 1618,2464 1617,2463 1617,2364 1616,2363 1616,2326 1617,2325 1617,2318 1616,2317 1616,2300 1617,2299 1617,2294 1616,2293 1616,2273 1615,2272 1615,2269 1614,2268 1614,2266 1613,2265 1613,2264 1612,2263 1612,2262 1611,2261 1610,2261 1608,2259 1605,2259 1604,2258 1566,2258 1565,2259 1550,2259 1549,2258 1544,2258 1543,2259 1502,2259 1501,2258" fill="rgba(218,58,254,0.3)" stroke="rgb(218,58,254)" stroke-width="2" data-block-id="0011" data-name="b-0016" /><text x="1039" y="2420" text-anchor="middle" dominant-baseline="middle" class="block-label" fill="rgb(218,58,254)" stroke="white" stroke-width="3" paint-order="stroke">b-0016</text><polygon points="1199,256 1198,257 1194,257 1193,258 1191,258 1190,259 1187,259 1186,260 1182,260 1181,261 1170,261 1169,260 1128,260 1127,261 1126,261 1125,260 1104,260 1103,261 1091,261 1090,262 1062,262 1061,261 1056,261 1055,262 1045,262 1044,263 1029,263 1028,262 902,262 901,263 880,263 879,262 871,262 870,263 859,263 858,262 851,262 850,263 844,263 843,264 838,264 837,263 821,263 820,264 810,264 809,263 802,263 801,264 756,264 755,265 746,265 745,266 744,266 743,265 716,265 715,264 704,264 703,265 679,265 678,266 655,266 654,267 635,267 634,266 626,266 625,267 607,267 606,268 599,268 598,267 582,267 581,268 556,268 555,269 553,269 552,268 528,268 527,269 505,269 504,270 495,270 494,271 491,271 490,272 489,272 488,273 487,273 486,274 485,274 484,275 484,276 483,277 483,278 482,279 482,282 481,283 481,288 480,289 480,301 479,302 479,305 480,306 480,324 479,325 479,454 480,455 480,468 479,469 479,473 480,474 480,499 481,500 481,513 480,514 480,526 481,527 481,562 480,563 480,584 481,585 481,606 480,607 480,618 481,619 481,624 482,625 482,626 483,627 483,628 487,632 488,632 489,633 490,633 491,634 505,634 506,633 509,633 510,634 532,634 533,635 551,635 552,634 558,634 559,635 596,635 597,634 606,634 607,635 635,635 636,636 639,636 640,635 646,635 647,634 687,634 688,633 694,633 695,632 704,632 705,633 715,633 716,632 725,632 726,633 740,633 741,632 752,632 753,633 761,633 762,632 803,632 804,633 805,633 806,632 811,632 812,631 814,631 815,630 817,630 818,629 819,629 820,630 825,630 826,631 834,631 835,630 854,630 855,631 868,631 869,632 883,632 884,631 901,631 902,632 903,631 915,631 916,632 935,632 936,631 950,631 951,632 957,632 958,633 974,633 975,632 978,632 979,631 981,631 982,630 984,630 985,629 989,629 990,630 1007,630 1008,631 1011,631 1012,630 1131,630 1132,629 1145,629 1146,630 1181,630 1182,629 1219,629 1220,630 1229,630 1230,629 1242,629 1243,628 1256,628 1257,627 1261,627 1262,628 1311,628 1312,627 1320,627 1321,626 1339,626 1340,625 1363,625 1364,624 1369,624 1370,623 1375,623 1376,622 1429,622 1430,621 1451,621 1452,622 1476,622 1477,623 1482,623 1483,624 1492,624 1493,623 1503,623 1504,624 1522,624 1523,625 1537,625 1538,624 1557,624 1558,623 1594,623 1595,622 1598,622 1599,621 1601,621 1602,620 1603,620 1605,618 1606,618 1607,617 1607,616 1608,615 1608,586 1607,585 1607,520 1606,519 1606,498 1607,497 1607,490 1606,489 1606,455 1607,454 1607,437 1606,436 1606,405 1607,404 1607,395 1606,394 1606,371 1605,370 1605,363 1606,362 1606,355 1607,354 1607,347 1606,346 1606,314 1607,313 1607,292 1606,291 1606,268 1605,267 1605,265 1604,264 1604,263 1602,261 1601,261 1600,260 1599,260 1598,259 1597,259 1596,258 1588,258 1587,257 1547,257 1546,258 1538,258 1537,257 1462,257 1461,258 1418,258 1417,257 1409,257 1408,258 1389,258 1388,259 1364,259 1363,258 1344,258 1343,259 1321,259 1320,258 1304,258 1303,259 1272,259 1271,258 1255,258 1254,257 1218,257 1217,256" fill="rgba(169,219,187,0.3)" stroke="rgb(169,219,187)" stroke-width="2" data-block-id="0012" data-name="b-0017" /><text x="1006" y="453" text-anchor="middle" dominant-baseline="middle" class="block-label" fill="rgb(169,219,187)" stroke="white" stroke-width="3" paint-order="stroke">b-0017</text><polygon points="1257,739 1256,740 1231,740 1230,741 1218,741 1217,742 1209,742 1208,743 1204,743 1203,744 1198,744 1197,745 1181,745 1180,744 1173,744 1172,745 1169,745 1168,746 1164,746 1163,747 1158,747 1157,746 1149,746 1148,747 1143,747 1142,748 1113,748 1112,747 1102,747 1101,748 1099,748 1098,749 1097,749 1096,750 1094,750 1093,751 1079,751 1078,750 1040,750 1039,749 1033,749 1032,748 1030,748 1029,749 1012,749 1011,748 1005,748 1004,749 966,749 965,748 958,748 957,749 954,749 953,750 916,750 915,749 912,749 911,750 908,750 907,751 903,751 902,752 895,752 894,751 855,751 854,752 850,752 849,751 835,751 834,752 827,752 826,751 810,751 809,752 777,752 776,751 766,751 765,752 761,752 760,753 746,753 745,752 689,752 688,753 684,753 683,752 667,752 666,753 653,753 652,752 628,752 627,751 623,751 622,752 611,752 610,751 604,751 603,750 576,750 575,751 569,751 568,752 559,752 558,751 553,751 552,752 526,752 525,753 502,753 501,754 493,754 492,755 490,755 489,756 488,756 484,760 484,763 483,764 483,767 482,768 482,772 483,773 483,786 482,787 482,822 483,823 483,834 482,835 482,862 483,863 483,874 484,875 484,879 483,880 483,916 484,917 484,945 483,946 483,956 482,957 482,1002 483,1003 483,1008 484,1009 484,1012 483,1013 483,1023 484,1024 484,1037 483,1038 483,1050 484,1051 484,1089 483,1090 483,1092 484,1093 484,1099 485,1100 485,1102 487,1104 487,1105 488,1105 491,1108 492,1108 493,1109 494,1109 495,1110 499,1110 500,1111 507,1111 508,1112 511,1112 512,1113 515,1113 516,1114 521,1114 522,1113 525,1113 526,1112 537,1112 538,1113 548,1113 549,1112 559,1112 560,1113 564,1113 565,1114 568,1114 569,1113 575,1113 576,1112 581,1112 582,1113 587,1113 588,1114 594,1114 595,1113 609,1113 610,1114 617,1114 618,1113 631,1113 632,1114 640,1114 641,1113 643,1113 644,1112 645,1112 646,1111 648,1111 649,1110 653,1110 654,1111 659,1111 660,1112 663,1112 664,1111 668,1111 669,1110 683,1110 684,1111 700,1111 701,1112 730,1112 731,1113 734,1113 735,1112 739,1112 740,1111 751,1111 752,1112 762,1112 763,1111 767,1111 768,1110 771,1110 772,1111 778,1111 779,1112 782,1112 783,1111 787,1111 788,1110 874,1110 875,1111 883,1111 884,1110 890,1110 891,1111 906,1111 907,1110 936,1110 937,1109 938,1109 939,1110 974,1110 975,1109 1042,1109 1043,1110 1045,1110 1046,1109 1085,1109 1086,1108 1126,1108 1127,1107 1130,1107 1131,1108 1197,1108 1198,1109 1213,1109 1214,1108 1227,1108 1228,1107 1234,1107 1235,1108 1246,1108 1247,1109 1262,1109 1263,1108 1270,1108 1271,1107 1275,1107 1276,1108 1317,1108 1318,1107 1322,1107 1323,1108 1360,1108 1361,1107 1372,1107 1373,1108 1391,1108 1392,1107 1423,1107 1424,1106 1425,1107 1445,1107 1446,1106 1453,1106 1454,1107 1468,1107 1469,1106 1477,1106 1478,1107 1491,1107 1492,1106 1500,1106 1501,1107 1504,1107 1505,1108 1507,1108 1508,1109 1513,1109 1514,1108 1518,1108 1519,1107 1538,1107 1539,1106 1596,1106 1597,1105 1604,1105 1605,1104 1607,1104 1609,1102 1609,1101 1610,1100 1610,1098 1611,1097 1611,1075 1612,1074 1612,1055 1611,1054 1611,1046 1610,1045 1610,1032 1611,1031 1611,1026 1612,1025 1612,1004 1611,1003 1611,997 1610,996 1610,979 1611,978 1611,975 1612,974 1612,957 1611,956 1611,929 1612,928 1612,912 1611,911 1611,905 1610,904 1610,887 1611,886 1611,879 1612,878 1612,872 1611,871 1611,858 1610,857 1610,848 1609,847 1609,838 1610,837 1610,831 1611,830 1611,826 1610,825 1610,812 1609,811 1609,791 1610,790 1610,783 1611,782 1611,772 1610,771 1610,766 1609,765 1609,761 1608,760 1608,755 1607,754 1607,748 1606,747 1606,745 1604,743 1603,743 1602,742 1600,742 1599,741 1596,741 1595,740 1544,740 1543,741 1505,741 1504,742 1500,742 1499,743 1492,743 1491,742 1483,742 1482,743 1478,743 1477,744 1457,744 1456,745 1407,745 1406,744 1389,744 1388,745 1360,745 1359,744 1334,744 1333,743 1316,743 1315,742 1309,742 1308,741 1292,741 1291,740 1285,740 1284,739 1277,739 1276,740 1262,740 1261,739" fill="rgba(207,14,189,0.3)" stroke="rgb(207,14,189)" stroke-width="2" data-block-id="0013" data-name="b-0018" /><text x="1028" y="929" text-anchor="middle" dominant-baseline="middle" class="block-label" fill="rgb(207,14,189)" stroke="white" stroke-width="3" paint-order="stroke">b-0018</text><polygon points="4033,1278 4032,1279 4030,1279 4029,1280 4026,1280 4025,1281 4001,1281 4000,1280 3973,1280 3972,1281 3964,1281 3963,1282 3938,1282 3937,1283 3930,1283 3929,1284 3915,1284 3914,1285 3911,1285 3910,1286 3865,1286 3864,1285 3862,1285 3861,1284 3859,1284 3858,1283 3854,1283 3853,1282 3841,1282 3840,1283 3832,1283 3831,1284 3830,1283 3816,1283 3815,1282 3791,1282 3790,1283 3784,1283 3783,1284 3768,1284 3767,1285 3749,1285 3748,1284 3730,1284 3729,1283 3720,1283 3719,1284 3699,1284 3698,1285 3694,1285 3693,1286 3632,1286 3631,1285 3612,1285 3611,1284 3602,1284 3601,1285 3590,1285 3589,1284 3574,1284 3573,1285 3555,1285 3554,1286 3497,1286 3496,1285 3478,1285 3477,1286 3465,1286 3464,1285 3463,1286 3443,1286 3442,1285 3436,1285 3435,1286 3429,1286 3428,1287 3423,1287 3422,1286 3407,1286 3406,1287 3379,1287 3378,1286 3347,1286 3346,1287 3321,1287 3320,1286 3298,1286 3297,1287 3296,1286 3282,1286 3281,1285 3265,1285 3264,1286 3255,1286 3254,1285 3228,1285 3227,1284 3219,1284 3218,1285 3209,1285 3208,1284 3192,1284 3191,1285 3184,1285 3183,1284 3171,1284 3170,1285 3159,1285 3158,1284 3151,1284 3150,1285 3149,1285 3148,1286 3147,1286 3145,1288 3145,1289 3144,1290 3144,1291 3143,1292 3143,1295 3142,1296 3142,1300 3141,1301 3141,1306 3140,1307 3140,1308 3141,1309 3141,1327 3140,1328 3140,1333 3141,1334 3141,1347 3140,1348 3140,1358 3141,1359 3141,1398 3140,1399 3140,1402 3141,1403 3141,1411 3142,1412 3142,1416 3141,1417 3141,1430 3142,1431 3142,1444 3141,1445 3141,1453 3142,1454 3142,1480 3143,1481 3143,1488 3142,1489 3142,1506 3143,1507 3143,1512 3142,1513 3142,1528 3143,1529 3143,1535 3142,1536 3142,1575 3143,1576 3143,1586 3142,1587 3142,1615 3141,1616 3141,1640 3142,1641 3142,1642 3144,1644 3144,1645 3145,1645 3148,1648 3149,1648 3151,1650 3155,1650 3156,1651 3165,1651 3166,1652 3207,1652 3208,1653 3217,1653 3218,1652 3228,1652 3229,1651 3236,1651 3237,1650 3244,1650 3245,1649 3274,1649 3275,1650 3288,1650 3289,1649 3301,1649 3302,1650 3385,1650 3386,1649 3419,1649 3420,1650 3429,1650 3430,1649 3442,1649 3443,1648 3447,1648 3448,1647 3452,1647 3453,1648 3454,1648 3455,1649 3456,1649 3457,1650 3458,1650 3459,1651 3460,1651 3461,1652 3463,1652 3464,1653 3465,1653 3466,1652 3475,1652 3476,1651 3479,1651 3480,1650 3484,1650 3485,1649 3503,1649 3504,1650 3514,1650 3515,1649 3532,1649 3533,1650 3537,1650 3538,1649 3576,1649 3577,1648 3589,1648 3590,1647 3595,1647 3596,1648 3598,1648 3599,1649 3601,1649 3602,1650 3606,1650 3607,1651 3609,1651 3610,1650 3620,1650 3621,1649 3625,1649 3626,1648 3675,1648 3676,1649 3679,1649 3680,1648 3717,1648 3718,1647 3726,1647 3727,1646 3728,1647 3740,1647 3741,1646 3758,1646 3759,1647 3760,1646 3813,1646 3814,1645 3896,1645 3897,1644 3919,1644 3920,1645 4003,1645 4004,1644 4038,1644 4039,1645 4050,1645 4051,1644 4065,1644 4066,1645 4100,1645 4101,1644 4112,1644 4113,1645 4122,1645 4123,1644 4222,1644 4223,1643 4239,1643 4240,1642 4242,1642 4245,1639 4245,1638 4246,1637 4246,1635 4247,1634 4247,1632 4248,1631 4248,1595 4247,1594 4247,1584 4248,1583 4248,1540 4249,1539 4249,1528 4250,1527 4250,1518 4249,1517 4249,1509 4248,1508 4248,1446 4249,1445 4249,1441 4250,1440 4250,1428 4249,1427 4249,1424 4248,1423 4248,1419 4247,1418 4247,1389 4248,1388 4247,1387 4247,1345 4248,1344 4248,1340 4247,1339 4247,1329 4246,1328 4247,1327 4247,1316 4246,1315 4246,1299 4245,1298 4245,1292 4244,1291 4244,1289 4243,1288 4243,1287 4242,1286 4242,1285 4240,1283 4238,1283 4237,1282 4214,1282 4213,1281 4212,1282 4199,1282 4198,1281 4171,1281 4170,1282 4145,1282 4144,1281 4127,1281 4126,1282 4119,1282 4118,1283 4107,1283 4106,1282 4093,1282 4092,1281 4079,1281 4078,1282 4063,1282 4062,1281 4057,1281 4056,1282 4052,1282 4051,1283 4044,1283 4043,1282 4042,1282 4041,1281 4040,1281 4039,1280 4038,1280 4037,1279 4036,1279 4035,1278" fill="rgba(189,174,189,0.3)" stroke="rgb(189,174,189)" stroke-width="2" data-block-id="0014" data-name="b-0019" /><text x="3659" y="1442" text-anchor="middle" dominant-baseline="middle" class="block-label" fill="rgb(189,174,189)" stroke="white" stroke-width="3" paint-order="stroke">b-0019</text><polygon points="4104,2224 4103,2225 4052,2225 4051,2226 4032,2226 4031,2225 4011,2225 4010,2226 4007,2226 4006,2227 4004,2227 4003,2228 4000,2228 3999,2229 3998,2229 3997,2228 3995,2228 3994,2227 3991,2227 3990,2226 3961,2226 3960,2227 3956,2227 3955,2228 3948,2228 3947,2227 3943,2227 3942,2226 3933,2226 3932,2227 3863,2227 3862,2226 3854,2226 3853,2227 3827,2227 3826,2228 3725,2228 3724,2229 3697,2229 3696,2228 3682,2228 3681,2229 3605,2229 3604,2230 3589,2230 3588,2231 3577,2231 3576,2230 3572,2230 3571,2229 3566,2229 3565,2230 3503,2230 3502,2229 3498,2229 3497,2230 3493,2230 3492,2231 3489,2231 3488,2232 3478,2232 3477,2231 3472,2231 3471,2232 3456,2232 3455,2231 3446,2231 3445,2232 3441,2232 3440,2233 3436,2233 3435,2232 3427,2232 3426,2231 3425,2231 3424,2232 3398,2232 3397,2233 3387,2233 3386,2232 3362,2232 3361,2233 3309,2233 3308,2232 3289,2232 3288,2233 3277,2233 3276,2234 3267,2234 3266,2233 3234,2233 3233,2234 3208,2234 3207,2235 3182,2235 3181,2236 3175,2236 3174,2235 3170,2235 3169,2234 3154,2234 3153,2235 3152,2235 3150,2237 3150,2238 3149,2239 3149,2243 3148,2244 3148,2249 3147,2250 3147,2260 3146,2261 3146,2272 3147,2273 3147,2288 3146,2289 3146,2301 3145,2302 3145,2322 3146,2323 3146,2331 3147,2332 3147,2349 3146,2350 3146,2362 3147,2363 3147,2413 3148,2414 3148,2421 3147,2422 3147,2433 3148,2434 3148,2442 3147,2443 3147,2461 3148,2462 3148,2465 3147,2466 3147,2538 3148,2539 3148,2551 3149,2552 3149,2583 3150,2584 3150,2590 3151,2591 3151,2594 3152,2595 3152,2596 3153,2597 3154,2597 3155,2598 3156,2598 3157,2599 3159,2599 3160,2600 3162,2600 3163,2601 3244,2601 3245,2602 3255,2602 3256,2603 3262,2603 3263,2602 3268,2602 3269,2601 3276,2601 3277,2600 3327,2600 3328,2601 3333,2601 3334,2600 3347,2600 3348,2601 3352,2601 3353,2602 3358,2602 3359,2601 3365,2601 3366,2600 3376,2600 3377,2601 3380,2601 3381,2600 3399,2600 3400,2599 3406,2599 3407,2600 3427,2600 3428,2599 3457,2599 3458,2600 3503,2600 3504,2599 3528,2599 3529,2598 3553,2598 3554,2599 3564,2599 3565,2598 3572,2598 3573,2597 3575,2597 3576,2596 3578,2596 3579,2595 3580,2595 3581,2594 3595,2594 3596,2593 3598,2593 3599,2592 3606,2592 3607,2591 3623,2591 3624,2590 3637,2590 3638,2591 3644,2591 3645,2590 3702,2590 3703,2589 3710,2589 3711,2588 3730,2588 3731,2589 3781,2589 3782,2590 3786,2590 3787,2589 3877,2589 3878,2590 3879,2590 3880,2589 3884,2589 3885,2588 3889,2588 3890,2587 3896,2587 3897,2588 3908,2588 3909,2587 3915,2587 3916,2586 3944,2586 3945,2585 3948,2585 3949,2584 3953,2584 3954,2585 3956,2585 3957,2586 3960,2586 3961,2587 4023,2587 4024,2586 4053,2586 4054,2587 4063,2587 4064,2586 4070,2586 4071,2585 4124,2585 4125,2584 4240,2584 4241,2583 4242,2583 4243,2582 4244,2582 4245,2581 4246,2581 4246,2580 4247,2579 4247,2578 4248,2577 4248,2575 4249,2574 4249,2570 4250,2569 4250,2566 4251,2565 4251,2559 4252,2558 4252,2557 4251,2556 4251,2542 4252,2541 4252,2536 4253,2535 4253,2533 4252,2532 4252,2525 4251,2524 4251,2502 4250,2501 4250,2499 4251,2498 4251,2493 4252,2492 4252,2478 4251,2477 4251,2459 4250,2458 4250,2447 4251,2446 4251,2432 4250,2431 4250,2422 4251,2421 4251,2409 4250,2408 4250,2402 4251,2401 4251,2397 4252,2396 4252,2386 4251,2385 4251,2361 4250,2360 4250,2355 4251,2354 4251,2350 4252,2349 4252,2344 4253,2343 4252,2342 4252,2335 4251,2334 4251,2329 4252,2328 4252,2316 4251,2315 4251,2303 4252,2302 4252,2290 4251,2289 4251,2284 4250,2283 4250,2267 4249,2266 4249,2256 4250,2255 4250,2251 4251,2250 4251,2248 4250,2247 4250,2245 4249,2244 4249,2242 4248,2241 4248,2239 4247,2238 4247,2234 4246,2233 4246,2231 4245,2230 4245,2229 4244,2228 4244,2227 4243,2226 4242,2226 4241,2225 4239,2225 4238,2224 4144,2224 4143,2225 4138,2225 4137,2224" fill="rgba(50,107,54,0.3)" stroke="rgb(50,107,54)" stroke-width="2" data-block-id="0015" data-name="b-0020" /><text x="3730" y="2410" text-anchor="middle" dominant-baseline="middle" class="block-label" fill="rgb(50,107,54)" stroke="white" stroke-width="3" paint-order="stroke">b-0020</text><polygon points="3234,261 3233,262 3224,262 3223,263 3212,263 3211,264 3202,264 3201,265 3200,265 3199,264 3191,264 3190,263 3185,263 3184,264 3172,264 3171,265 3162,265 3161,266 3142,266 3140,268 3139,268 3139,271 3138,272 3138,280 3137,281 3137,287 3136,288 3136,324 3135,325 3135,330 3136,331 3136,368 3135,369 3135,377 3136,378 3136,442 3137,443 3137,448 3136,449 3136,456 3135,457 3135,471 3136,472 3136,511 3135,512 3135,523 3136,524 3136,539 3135,540 3135,546 3136,547 3136,582 3135,583 3135,594 3134,595 3134,603 3133,604 3133,610 3132,611 3132,613 3133,614 3133,615 3137,619 3138,619 3140,621 3141,621 3142,622 3144,622 3145,623 3147,623 3148,624 3149,624 3150,625 3170,625 3171,626 3210,626 3211,625 3213,625 3214,626 3224,626 3225,627 3226,627 3227,626 3242,626 3243,627 3249,627 3250,626 3255,626 3256,625 3270,625 3271,626 3297,626 3298,627 3305,627 3306,628 3307,627 3311,627 3312,626 3314,626 3315,625 3316,625 3317,624 3322,624 3323,623 3335,623 3336,624 3359,624 3360,625 3363,625 3364,626 3428,626 3429,627 3437,627 3438,628 3444,628 3445,627 3452,627 3453,626 3454,626 3455,625 3457,625 3458,624 3459,624 3460,623 3471,623 3472,624 3477,624 3478,623 3492,623 3493,624 3501,624 3502,625 3505,625 3506,626 3516,626 3517,625 3524,625 3525,626 3527,626 3528,627 3529,627 3530,628 3534,628 3535,629 3560,629 3561,628 3568,628 3569,627 3589,627 3590,626 3595,626 3596,627 3598,627 3599,628 3602,628 3603,629 3615,629 3616,630 3652,630 3653,629 3745,629 3746,628 3752,628 3753,629 3790,629 3791,630 3799,630 3800,629 3809,629 3810,628 3816,628 3817,627 3832,627 3833,626 3841,626 3842,625 3855,625 3856,626 3862,626 3863,627 3867,627 3868,628 3879,628 3880,627 3886,627 3887,626 3913,626 3914,627 3919,627 3920,626 3946,626 3947,627 3979,627 3980,626 4026,626 4027,627 4042,627 4043,628 4050,628 4051,629 4055,629 4056,630 4063,630 4064,629 4085,629 4086,628 4098,628 4099,629 4125,629 4126,630 4131,630 4132,631 4133,630 4138,630 4139,629 4143,629 4144,630 4145,630 4146,631 4147,631 4150,634 4151,634 4153,636 4154,635 4155,635 4157,633 4157,632 4159,630 4160,630 4162,628 4163,628 4164,627 4172,627 4173,628 4186,628 4187,627 4192,627 4193,628 4208,628 4209,627 4230,627 4231,626 4234,626 4235,625 4237,625 4238,624 4239,624 4240,623 4240,622 4241,621 4241,620 4242,619 4242,617 4243,616 4243,572 4242,571 4242,552 4243,551 4243,547 4244,546 4244,525 4243,524 4243,516 4244,515 4244,503 4243,502 4243,478 4244,477 4244,467 4243,466 4243,462 4242,461 4242,433 4243,432 4243,410 4244,409 4244,403 4245,402 4245,392 4244,391 4244,381 4243,380 4243,352 4244,351 4244,340 4243,339 4243,307 4242,306 4242,303 4243,302 4243,295 4244,294 4244,284 4245,283 4245,281 4244,280 4244,277 4243,276 4243,275 4242,274 4242,273 4241,272 4241,271 4240,270 4240,269 4238,267 4237,267 4236,266 4182,266 4181,267 4176,267 4175,266 4136,266 4135,267 4129,267 4128,266 4099,266 4098,267 4065,267 4064,266 4026,266 4025,265 3979,265 3978,266 3962,266 3961,265 3941,265 3940,264 3890,264 3889,263 3883,263 3882,262 3876,262 3875,263 3865,263 3864,262 3836,262 3835,263 3826,263 3825,264 3819,264 3818,265 3811,265 3810,266 3806,266 3805,265 3781,265 3780,266 3767,266 3766,265 3749,265 3748,266 3742,266 3741,265 3738,265 3737,266 3720,266 3719,265 3705,265 3704,266 3695,266 3694,267 3686,267 3685,268 3681,268 3680,269 3674,269 3673,268 3668,268 3667,267 3663,267 3662,268 3657,268 3656,269 3648,269 3647,268 3633,268 3632,267 3615,267 3614,266 3599,266 3598,267 3568,267 3567,266 3531,266 3530,265 3502,265 3501,264 3497,264 3496,265 3493,265 3492,266 3490,266 3489,267 3484,267 3483,266 3481,266 3480,265 3478,265 3477,264 3471,264 3470,265 3467,265 3466,266 3456,266 3455,265 3429,265 3428,264 3425,264 3424,265 3418,265 3417,266 3414,266 3413,265 3410,265 3409,264 3405,264 3404,263 3401,263 3400,264 3325,264 3324,263 3312,263 3311,262 3302,262 3301,263 3292,263 3291,262 3263,262 3262,261 3256,261 3255,262 3240,262 3239,261" fill="rgba(243,63,248,0.3)" stroke="rgb(243,63,248)" stroke-width="2" data-block-id="0016" data-name="b-0021" /><text x="3681" y="458" text-anchor="middle" dominant-baseline="middle" class="block-label" fill="rgb(243,63,248)" stroke="white" stroke-width="3" paint-order="stroke">b-0021</text><polygon points="3684,1757 3683,1758 3582,1758 3581,1759 3552,1759 3551,1758 3544,1758 3543,1759 3537,1759 3536,1760 3527,1760 3526,1761 3518,1761 3517,1760 3506,1760 3505,1761 3494,1761 3493,1762 3469,1762 3468,1763 3465,1763 3464,1764 3463,1764 3462,1763 3459,1763 3458,1762 3455,1762 3454,1761 3436,1761 3435,1762 3394,1762 3393,1763 3370,1763 3369,1762 3366,1762 3365,1763 3304,1763 3303,1762 3289,1762 3288,1763 3267,1763 3266,1764 3255,1764 3254,1763 3230,1763 3229,1762 3222,1762 3221,1761 3214,1761 3213,1760 3207,1760 3206,1761 3197,1761 3196,1762 3192,1762 3191,1763 3182,1763 3181,1762 3168,1762 3167,1763 3161,1763 3160,1762 3153,1762 3152,1763 3151,1763 3147,1767 3147,1768 3146,1769 3146,1770 3145,1771 3145,1776 3144,1777 3144,1801 3145,1802 3145,1818 3144,1819 3144,1853 3145,1854 3145,1873 3144,1874 3144,1893 3145,1894 3145,1918 3144,1919 3144,1933 3145,1934 3145,1950 3146,1951 3146,1966 3145,1967 3145,1986 3146,1987 3146,2017 3145,2018 3145,2026 3146,2027 3146,2088 3147,2089 3147,2118 3148,2119 3148,2120 3152,2124 3153,2124 3154,2125 3157,2125 3158,2126 3161,2126 3162,2127 3180,2127 3181,2128 3185,2128 3186,2129 3191,2129 3192,2128 3198,2128 3199,2127 3200,2128 3205,2128 3206,2129 3210,2129 3211,2130 3213,2130 3214,2129 3218,2129 3219,2128 3239,2128 3240,2127 3242,2127 3243,2126 3252,2126 3253,2127 3256,2127 3257,2128 3263,2128 3264,2127 3267,2127 3268,2126 3280,2126 3281,2127 3293,2127 3294,2128 3295,2128 3296,2127 3301,2127 3302,2126 3305,2126 3306,2125 3311,2125 3312,2124 3330,2124 3331,2125 3341,2125 3342,2126 3355,2126 3356,2125 3363,2125 3364,2124 3372,2124 3373,2125 3382,2125 3383,2124 3425,2124 3426,2123 3448,2123 3449,2124 3453,2124 3454,2123 3469,2123 3470,2124 3475,2124 3476,2123 3481,2123 3482,2122 3496,2122 3497,2123 3498,2122 3508,2122 3509,2121 3515,2121 3516,2122 3529,2122 3530,2121 3540,2121 3541,2122 3551,2122 3552,2121 3563,2121 3564,2122 3597,2122 3598,2121 3714,2121 3715,2120 3768,2120 3769,2119 3787,2119 3788,2120 3804,2120 3805,2119 3826,2119 3827,2120 3831,2120 3832,2119 3841,2119 3842,2118 3847,2118 3848,2119 3938,2119 3939,2118 3946,2118 3947,2117 3958,2117 3959,2118 4047,2118 4048,2117 4117,2117 4118,2116 4165,2116 4166,2115 4206,2115 4207,2114 4232,2114 4233,2115 4237,2115 4238,2114 4240,2114 4241,2113 4243,2113 4244,2112 4245,2112 4247,2110 4248,2110 4251,2107 4251,2105 4252,2104 4251,2103 4251,2065 4252,2064 4252,2035 4251,2034 4251,2019 4252,2018 4252,2002 4251,2001 4251,1969 4252,1968 4252,1953 4251,1952 4251,1945 4252,1944 4252,1936 4251,1935 4251,1931 4250,1930 4250,1928 4249,1927 4249,1922 4250,1921 4250,1913 4249,1912 4249,1908 4248,1907 4248,1900 4249,1899 4249,1896 4250,1895 4250,1891 4251,1890 4251,1888 4250,1887 4250,1871 4251,1870 4251,1865 4250,1864 4250,1860 4249,1859 4249,1851 4250,1850 4250,1825 4251,1824 4251,1815 4250,1814 4250,1809 4249,1808 4249,1804 4248,1803 4248,1801 4247,1800 4247,1797 4246,1796 4246,1770 4245,1769 4245,1767 4244,1766 4244,1764 4243,1763 4243,1762 4239,1758 4225,1758 4224,1757 4079,1757 4078,1758 4073,1758 4072,1759 4068,1759 4067,1758 4051,1758 4050,1759 4032,1759 4031,1760 4019,1760 4018,1759 4008,1759 4007,1760 4003,1760 4002,1761 3994,1761 3993,1760 3961,1760 3960,1759 3918,1759 3917,1758 3912,1758 3911,1759 3872,1759 3871,1758 3865,1758 3864,1759 3848,1759 3847,1758 3836,1758 3835,1757 3817,1757 3816,1758 3788,1758 3787,1757 3765,1757 3764,1758 3755,1758 3754,1757" fill="rgba(130,228,50,0.3)" stroke="rgb(130,228,50)" stroke-width="2" data-block-id="0017" data-name="b-0022" /><text x="3656" y="1942" text-anchor="middle" dominant-baseline="middle" class="block-label" fill="rgb(130,228,50)" stroke="white" stroke-width="3" paint-order="stroke">b-0022</text><polygon points="3173,740 3172,741 3149,741 3148,742 3144,742 3143,743 3142,743 3141,744 3140,744 3140,745 3139,746 3139,752 3138,753 3138,765 3137,766 3137,775 3138,776 3138,814 3137,815 3137,823 3138,824 3138,835 3137,836 3137,841 3138,842 3138,923 3139,924 3139,1066 3140,1067 3140,1082 3141,1083 3141,1087 3142,1088 3142,1091 3143,1092 3143,1093 3148,1098 3149,1098 3150,1099 3152,1099 3153,1100 3160,1100 3161,1099 3176,1099 3177,1100 3188,1100 3189,1101 3192,1101 3193,1100 3199,1100 3200,1101 3207,1101 3208,1102 3234,1102 3235,1101 3260,1101 3261,1102 3265,1102 3266,1103 3269,1103 3270,1104 3289,1104 3290,1103 3307,1103 3308,1102 3314,1102 3315,1101 3327,1101 3328,1102 3335,1102 3336,1103 3341,1103 3342,1104 3357,1104 3358,1103 3361,1103 3362,1102 3388,1102 3389,1101 3390,1101 3391,1102 3398,1102 3399,1103 3452,1103 3453,1104 3460,1104 3461,1105 3476,1105 3477,1104 3481,1104 3482,1103 3506,1103 3507,1102 3522,1102 3523,1103 3616,1103 3617,1104 3656,1104 3657,1103 3682,1103 3683,1104 3698,1104 3699,1105 3703,1105 3704,1106 3712,1106 3713,1107 3717,1107 3718,1108 3722,1108 3723,1109 3725,1109 3726,1108 3727,1108 3728,1107 3729,1107 3730,1106 3731,1106 3732,1105 3734,1105 3735,1104 3803,1104 3804,1103 3824,1103 3825,1104 3842,1104 3843,1103 3845,1103 3846,1104 3857,1104 3858,1105 3860,1105 3861,1106 3865,1106 3866,1107 3867,1107 3868,1106 3871,1106 3872,1105 3875,1105 3876,1104 3921,1104 3922,1105 3930,1105 3931,1104 3944,1104 3945,1103 3953,1103 3954,1104 3962,1104 3963,1105 3968,1105 3969,1104 3980,1104 3981,1105 3988,1105 3989,1106 3990,1105 3997,1105 3998,1104 4015,1104 4016,1103 4053,1103 4054,1104 4067,1104 4068,1103 4227,1103 4228,1102 4238,1102 4239,1101 4240,1101 4244,1097 4244,1095 4245,1094 4245,1011 4246,1010 4246,998 4245,997 4245,994 4246,993 4246,949 4247,948 4247,939 4248,938 4248,930 4247,929 4247,923 4248,922 4248,918 4249,917 4249,912 4250,911 4250,895 4249,894 4249,890 4248,889 4248,886 4247,885 4247,879 4246,878 4246,766 4245,765 4245,760 4244,759 4244,752 4243,751 4243,748 4242,747 4242,746 4241,745 4241,744 4240,744 4239,743 4238,743 4237,742 4233,742 4232,743 4220,743 4219,742 4208,742 4207,743 4197,743 4196,742 4171,742 4170,743 4167,743 4166,744 4145,744 4144,743 4135,743 4134,744 4130,744 4129,743 4099,743 4098,744 4084,744 4083,743 4064,743 4063,744 4054,744 4053,743 4025,743 4024,744 4014,744 4013,745 4012,745 4011,744 4005,744 4004,743 3993,743 3992,744 3945,744 3944,743 3911,743 3910,742 3893,742 3892,743 3888,743 3887,742 3877,742 3876,743 3863,743 3862,742 3844,742 3843,743 3835,743 3834,744 3815,744 3814,745 3804,745 3803,746 3778,746 3777,747 3771,747 3770,746 3767,746 3766,745 3763,745 3762,744 3756,744 3755,745 3724,745 3723,744 3705,744 3704,745 3700,745 3699,744 3694,744 3693,743 3658,743 3657,744 3651,744 3650,743 3623,743 3622,744 3599,744 3598,743 3575,743 3574,742 3564,742 3563,743 3551,743 3550,744 3514,744 3513,745 3508,745 3507,744 3502,744 3501,743 3480,743 3479,742 3469,742 3468,743 3464,743 3463,744 3460,744 3459,743 3443,743 3442,744 3399,744 3398,745 3387,745 3386,744 3315,744 3314,743 3304,743 3303,744 3290,744 3289,743 3254,743 3253,742 3242,742 3241,741 3230,741 3229,742 3223,742 3222,741 3216,741 3215,740" fill="rgba(134,20,72,0.3)" stroke="rgb(134,20,72)" stroke-width="2" data-block-id="0018" data-name="b-0023" /><text x="3698" y="917" text-anchor="middle" dominant-baseline="middle" class="block-label" fill="rgb(134,20,72)" stroke="white" stroke-width="3" paint-order="stroke">b-0023</text><polygon points="4853,622 4852,623 4847,623 4846,624 4845,624 4842,627 4842,639 4843,640 4843,642 4844,643 4844,645 4849,650 4850,650 4851,651 4851,652 4852,653 4852,655 4853,656 4853,662 4852,663 4852,664 4851,665 4850,665 4847,668 4846,668 4843,671 4843,672 4842,673 4842,678 4843,679 4843,683 4844,684 4844,688 4845,689 4845,693 4846,694 4846,697 4845,698 4845,700 4844,701 4844,702 4843,703 4843,706 4842,707 4842,713 4841,714 4841,725 4842,726 4842,729 4843,730 4843,733 4842,734 4842,735 4836,741 4834,741 4831,738 4830,738 4829,737 4828,737 4827,736 4823,736 4822,735 4813,735 4812,736 4811,735 4793,735 4792,736 4783,736 4782,737 4779,737 4778,738 4775,738 4774,739 4773,739 4772,738 4765,738 4764,737 4753,737 4752,736 4751,737 4745,737 4744,738 4702,738 4701,739 4692,739 4691,740 4678,740 4677,739 4628,739 4627,738 4613,738 4612,739 4589,739 4588,738 4574,738 4573,737 4517,737 4516,738 4477,738 4476,737 4461,737 4460,738 4455,738 4454,739 4440,739 4439,740 4438,740 4436,742 4436,743 4434,745 4434,748 4433,749 4433,755 4432,756 4432,799 4431,800 4431,848 4430,849 4430,855 4431,856 4431,894 4430,895 4430,903 4431,904 4431,908 4432,909 4432,942 4433,943 4433,963 4432,964 4432,969 4431,970 4431,976 4432,977 4432,995 4433,996 4433,1001 4434,1002 4434,1014 4433,1015 4433,1034 4432,1035 4432,1041 4431,1042 4431,1045 4432,1046 4432,1051 4433,1052 4433,1058 4432,1059 4432,1062 4431,1063 4431,1065 4430,1066 4430,1074 4431,1075 4431,1086 4430,1087 4430,1090 4431,1091 4431,1092 4432,1093 4433,1093 4434,1094 4435,1094 4436,1095 4438,1095 4439,1096 4442,1096 4443,1097 4457,1097 4458,1098 4494,1098 4495,1097 4502,1097 4503,1098 4535,1098 4536,1097 4555,1097 4556,1096 4561,1096 4562,1097 4566,1097 4567,1098 4577,1098 4578,1097 4583,1097 4584,1096 4609,1096 4610,1097 4612,1097 4613,1098 4615,1098 4616,1099 4630,1099 4631,1098 4637,1098 4638,1099 4660,1099 4661,1100 4671,1100 4672,1099 4679,1099 4680,1098 4689,1098 4690,1099 4709,1099 4710,1098 4731,1098 4732,1099 4740,1099 4741,1098 4742,1098 4743,1097 4744,1097 4748,1093 4748,1092 4749,1091 4749,1089 4750,1088 4750,1085 4751,1084 4751,1080 4752,1079 4752,1076 4753,1075 4753,1073 4754,1072 4754,1071 4755,1070 4755,1067 4756,1066 4756,1062 4757,1061 4757,1057 4758,1056 4758,1054 4760,1052 4760,1051 4761,1050 4761,1049 4763,1047 4763,1046 4764,1045 4764,1043 4765,1042 4765,1038 4766,1037 4766,1033 4767,1032 4767,1030 4768,1029 4768,1027 4769,1026 4769,1024 4770,1023 4770,1019 4771,1018 4771,1013 4772,1012 4772,1009 4773,1008 4773,1006 4774,1005 4774,1004 4775,1003 4775,1002 4776,1001 4776,1000 4777,999 4777,998 4778,997 4778,996 4779,995 4779,994 4780,993 4780,991 4781,990 4781,988 4782,987 4782,985 4783,984 4783,982 4784,981 4784,980 4785,979 4785,978 4786,977 4786,976 4787,975 4787,974 4788,973 4788,971 4789,970 4789,968 4790,967 4790,965 4791,964 4791,962 4792,961 4792,959 4793,958 4793,956 4794,955 4794,953 4795,952 4795,950 4796,949 4796,945 4797,944 4797,941 4798,940 4798,938 4799,937 4799,936 4800,935 4800,934 4803,931 4803,930 4807,926 4807,925 4808,924 4808,923 4809,922 4809,920 4810,919 4810,918 4811,917 4811,916 4812,915 4812,913 4813,912 4813,908 4814,907 4814,905 4815,904 4815,903 4819,899 4820,899 4821,898 4821,897 4822,896 4822,895 4823,894 4823,892 4824,891 4824,888 4825,887 4825,885 4826,884 4826,883 4827,882 4827,881 4828,880 4828,878 4829,877 4829,866 4830,865 4830,862 4831,861 4831,854 4832,853 4832,846 4833,845 4833,815 4832,814 4832,794 4833,793 4833,765 4834,764 4834,757 4836,755 4837,756 4837,757 4839,759 4839,760 4842,763 4843,763 4844,764 4845,764 4847,766 4848,766 4849,767 4849,768 4850,769 4850,770 4851,771 4851,779 4852,780 4852,782 4853,783 4853,784 4856,787 4857,787 4857,785 4858,784 4858,783 4859,782 4859,779 4860,778 4860,772 4861,771 4861,768 4862,767 4862,765 4863,764 4863,763 4864,762 4864,761 4865,760 4865,759 4866,758 4866,757 4867,756 4867,753 4868,752 4868,748 4869,747 4869,744 4868,743 4868,741 4867,740 4867,739 4864,736 4862,736 4861,735 4861,734 4859,732 4861,730 4862,730 4862,729 4864,727 4864,726 4865,725 4865,723 4866,722 4866,719 4867,718 4867,716 4868,715 4868,714 4869,713 4869,706 4868,705 4868,704 4864,700 4863,700 4862,699 4862,697 4861,696 4863,694 4863,692 4864,691 4864,690 4865,689 4865,686 4866,685 4866,684 4865,683 4865,675 4864,674 4864,666 4863,665 4863,662 4862,661 4862,659 4861,658 4861,655 4860,654 4860,649 4861,648 4861,645 4862,644 4862,627 4861,626 4861,625 4860,624 4860,623 4859,623 4858,622" fill="rgba(89,52,129,0.3)" stroke="rgb(89,52,129)" stroke-width="2" data-block-id="0019" data-name="b-0027" /><text x="4737" y="866" text-anchor="middle" dominant-baseline="middle" class="block-label" fill="rgb(89,52,129)" stroke="white" stroke-width="3" paint-order="stroke">b-0027</text><polygon points="4533,2217 4532,2218 4523,2218 4522,2219 4496,2219 4495,2220 4479,2220 4478,2219 4454,2219 4453,2220 4439,2220 4438,2221 4437,2221 4434,2224 4434,2225 4433,2226 4433,2244 4432,2245 4432,2269 4433,2270 4433,2332 4434,2333 4434,2570 4435,2571 4435,2574 4436,2575 4436,2577 4437,2578 4437,2579 4440,2582 4450,2582 4451,2583 4454,2583 4455,2582 4496,2582 4497,2581 4504,2581 4505,2582 4542,2582 4543,2581 4547,2581 4548,2580 4550,2580 4551,2581 4557,2581 4558,2582 4567,2582 4568,2581 4575,2581 4576,2582 4590,2582 4591,2581 4626,2581 4627,2582 4635,2582 4636,2581 4643,2581 4644,2580 4649,2580 4650,2579 4653,2579 4654,2578 4655,2578 4658,2575 4658,2574 4659,2573 4659,2572 4660,2571 4660,2570 4661,2569 4661,2568 4662,2567 4662,2566 4663,2565 4663,2564 4667,2560 4667,2559 4669,2557 4669,2555 4670,2554 4670,2553 4671,2552 4671,2551 4672,2550 4672,2548 4673,2547 4673,2546 4674,2545 4674,2544 4681,2537 4681,2536 4683,2534 4683,2532 4684,2531 4684,2530 4685,2529 4685,2528 4686,2527 4686,2526 4687,2525 4687,2524 4688,2523 4688,2522 4690,2520 4690,2519 4692,2517 4692,2516 4694,2514 4694,2513 4695,2512 4695,2510 4696,2509 4696,2508 4697,2507 4697,2506 4698,2505 4698,2504 4699,2503 4699,2502 4701,2500 4701,2499 4705,2495 4705,2494 4708,2491 4708,2490 4709,2489 4709,2488 4711,2486 4711,2484 4713,2482 4713,2481 4715,2479 4715,2478 4716,2477 4716,2476 4717,2475 4717,2474 4718,2473 4718,2472 4719,2471 4719,2470 4720,2469 4720,2468 4722,2466 4722,2465 4724,2463 4724,2462 4726,2460 4726,2459 4728,2457 4728,2456 4729,2455 4729,2454 4730,2453 4730,2452 4731,2451 4731,2450 4732,2449 4732,2448 4733,2447 4733,2446 4735,2444 4735,2443 4737,2441 4737,2440 4739,2438 4739,2437 4741,2435 4741,2434 4742,2433 4742,2432 4743,2431 4743,2430 4744,2429 4744,2428 4746,2426 4746,2425 4747,2424 4747,2423 4749,2421 4749,2420 4751,2418 4751,2417 4752,2416 4752,2413 4753,2412 4753,2404 4752,2403 4752,2402 4750,2402 4748,2404 4747,2404 4746,2405 4744,2405 4743,2406 4733,2406 4732,2405 4724,2405 4723,2406 4719,2406 4718,2407 4713,2407 4712,2406 4709,2406 4707,2404 4706,2404 4704,2402 4704,2400 4705,2399 4705,2382 4706,2381 4706,2379 4708,2377 4708,2376 4710,2374 4710,2373 4711,2372 4711,2370 4712,2369 4712,2366 4711,2365 4711,2363 4710,2362 4710,2361 4708,2359 4708,2358 4707,2357 4707,2356 4708,2355 4708,2354 4710,2352 4710,2351 4711,2350 4711,2349 4712,2348 4712,2347 4713,2346 4713,2340 4712,2339 4712,2334 4711,2333 4712,2332 4712,2328 4713,2327 4713,2323 4714,2322 4714,2313 4713,2312 4713,2290 4712,2289 4712,2248 4711,2247 4711,2223 4707,2219 4706,2219 4705,2218 4673,2218 4672,2219 4664,2219 4663,2218 4626,2218 4625,2219 4618,2219 4617,2218 4602,2218 4601,2219 4575,2219 4574,2220 4573,2220 4572,2219 4544,2219 4543,2218 4538,2218 4537,2217" fill="rgba(189,227,13,0.3)" stroke="rgb(189,227,13)" stroke-width="2" data-block-id="0020" data-name="b-0038" /><text x="4657" y="2432" text-anchor="middle" dominant-baseline="middle" class="block-label" fill="rgb(189,227,13)" stroke="white" stroke-width="3" paint-order="stroke">b-0038</text><polygon points="4585,258 4584,259 4571,259 4570,260 4495,260 4494,259 4443,259 4442,260 4438,260 4437,261 4433,261 4432,262 4430,262 4427,265 4427,266 4426,267 4426,278 4425,279 4425,282 4426,283 4426,289 4427,290 4427,296 4426,297 4426,314 4427,315 4427,332 4426,333 4426,358 4425,359 4425,373 4426,374 4426,402 4425,403 4425,441 4426,442 4426,445 4427,446 4427,451 4428,452 4428,455 4429,456 4429,471 4430,472 4430,487 4429,488 4429,523 4430,524 4430,539 4429,540 4429,552 4428,553 4428,569 4429,570 4429,574 4430,575 4430,608 4429,609 4429,613 4430,614 4430,616 4431,616 4432,617 4435,617 4436,618 4440,618 4441,619 4445,619 4446,620 4451,620 4452,621 4460,621 4461,620 4471,620 4472,621 4477,621 4478,620 4496,620 4497,619 4502,619 4503,620 4561,620 4562,619 4589,619 4590,620 4600,620 4601,619 4611,619 4612,620 4625,620 4626,619 4644,619 4645,620 4678,620 4679,619 4688,619 4689,618 4692,618 4693,617 4694,617 4695,616 4696,616 4696,615 4698,613 4698,594 4697,593 4697,585 4698,584 4698,543 4697,542 4697,530 4698,529 4698,470 4699,469 4699,450 4698,449 4698,429 4699,428 4699,291 4698,290 4698,276 4699,275 4699,265 4698,264 4698,263 4697,262 4697,261 4696,260 4695,260 4694,259 4690,259 4689,258 4671,258 4670,259 4638,259 4637,260 4632,260 4631,261 4625,261 4624,260 4617,260 4616,259 4599,259 4598,258" fill="rgba(94,47,14,0.3)" stroke="rgb(94,47,14)" stroke-width="2" data-block-id="0021" data-name="b-0039" /><text x="4541" y="449" text-anchor="middle" dominant-baseline="middle" class="block-label" fill="rgb(94,47,14)" stroke="white" stroke-width="3" paint-order="stroke">b-0039</text><polygon points="4773,1661 4739,1463 4676,1389 4676,1250 4401,1261 4416,1665" fill="rgba(102,179,92,0.3)" stroke="rgb(102,179,92)" stroke-width="2" data-block-id="0022" data-name="b-0024" /><text x="4613" y="1448" text-anchor="middle" dominant-baseline="middle" class="block-label" fill="rgb(102,179,92)" stroke="white" stroke-width="3" paint-order="stroke">b-0024</text><polygon points="4424,2127 4905,2138 4909,1995 4820,1929 4777,1742 4420,1735" fill="rgba(102,179,92,0.3)" stroke="rgb(102,179,92)" stroke-width="2" data-block-id="0023" data-name="b-0024" /><text x="4709" y="1944" text-anchor="middle" dominant-baseline="middle" class="block-label" fill="rgb(102,179,92)" stroke="white" stroke-width="3" paint-order="stroke">b-0024</text></g>
</svg>