<?xml version='1.0' encoding='utf-8'?>
<svg xmlns="http://www.w3.org/2000/svg" xmlns:atlas="http://example.com/atlas" width="4984" height="3264" viewBox="0 0 4984 3264">
  
  <metadata>
    <atlas:source>
      <atlas:jp2-path>/Users/pwright/workspace/atlas/media/v2/p31.jp2</atlas:jp2-path>
      <atlas:volume>unknown</atlas:volume>
      <atlas:plate-id>p31</atlas:plate-id>
      <atlas:image-width>4984</atlas:image-width>
      <atlas:image-height>3264</atlas:image-height>
    <atlas:angle>0.0</atlas:angle><atlas:scale>1.3938706965987497</atlas:scale><atlas:pos-x>1902.6893274320398</atlas:pos-x><atlas:pos-y>1164.7993918102488</atlas:pos-y></atlas:source>
  </metadata>

  
  <image id="background" href="file:///Users/pwright/workspace/atlas/media/v2/p31.jp2" width="4984" height="3264" opacity="0.5" />

  <style>
    .block-label { font-family: sans-serif; font-size: 14px; font-weight: bold; }
  </style>

  
  <g id="blocks">
    <polygon points="3347,2416 3346,2417 3340,2417 3339,2418 3328,2418 3327,2417 3319,2417 3318,2418 3302,2418 3301,2417 3295,2417 3294,2418 3277,2418 3276,2417 3274,2417 3273,2418 3268,2418 3267,2419 3256,2419 3255,2418 3247,2418 3246,2419 3241,2419 3240,2420 3236,2420 3235,2419 3207,2419 3206,2418 3199,2418 3198,2419 3185,2419 3184,2418 3174,2418 3173,2419 3162,2419 3161,2418 3152,2418 3151,2419 3146,2419 3145,2420 3140,2420 3139,2419 3122,2419 3121,2420 3118,2420 3117,2419 3111,2419 3110,2418 3106,2418 3105,2419 3103,2419 3102,2420 3099,2420 3098,2421 3065,2421 3064,2420 3055,2420 3054,2421 3041,2421 3040,2420 3033,2420 3032,2421 3020,2421 3019,2420 3008,2420 3007,2421 2973,2421 2972,2420 2961,2420 2960,2421 2954,2421 2953,2422 2946,2422 2945,2421 2942,2421 2941,2422 2936,2422 2935,2423 2925,2423 2924,2422 2920,2422 2919,2421 2915,2421 2914,2422 2902,2422 2901,2423 2854,2423 2853,2424 2819,2424 2818,2423 2802,2423 2801,2424 2798,2424 2797,2423 2741,2423 2740,2424 2736,2424 2735,2423 2722,2423 2721,2424 2706,2424 2705,2425 2700,2425 2699,2424 2684,2424 2683,2425 2649,2425 2648,2426 2636,2426 2635,2427 2628,2427 2627,2426 2604,2426 2603,2425 2595,2425 2594,2424 2593,2424 2592,2425 2582,2425 2581,2424 2563,2424 2562,2425 2556,2425 2555,2426 2554,2426 2553,2427 2552,2427 2550,2429 2550,2432 2549,2433 2549,2440 2548,2441 2548,2447 2547,2448 2547,2454 2548,2455 2548,2481 2549,2482 2549,2494 2548,2495 2548,2537 2547,2538 2547,2576 2546,2577 2546,2590 2545,2591 2545,2598 2546,2599 2546,2624 2545,2625 2545,2634 2546,2635 2546,2665 2545,2666 2545,2708 2546,2709 2546,2714 2545,2715 2545,2739 2544,2740 2544,2755 2543,2756 2543,2763 2544,2764 2544,2768 2545,2769 2545,2772 2546,2773 2546,2775 2547,2776 2547,2777 2549,2779 2550,2779 2551,2780 2553,2780 2554,2781 2560,2781 2561,2782 2593,2782 2594,2783 2621,2783 2622,2782 2651,2782 2652,2783 2662,2783 2663,2784 2667,2784 2668,2783 2674,2783 2675,2782 2696,2782 2697,2783 2725,2783 2726,2782 2790,2782 2791,2783 2795,2783 2796,2784 2799,2784 2800,2785 2804,2785 2805,2786 2807,2786 2808,2787 2813,2787 2814,2786 2816,2786 2817,2785 2820,2785 2821,2784 2829,2784 2830,2785 2833,2785 2834,2784 2838,2784 2839,2783 2843,2783 2844,2782 2884,2782 2885,2783 2886,2783 2887,2784 2888,2784 2890,2786 2891,2786 2892,2787 2893,2787 2894,2788 2897,2788 2898,2789 2905,2789 2906,2788 2907,2788 2908,2787 2909,2787 2910,2786 2911,2786 2912,2785 2914,2785 2915,2784 2918,2784 2919,2783 2924,2783 2925,2782 2934,2782 2935,2783 2959,2783 2960,2782 2977,2782 2978,2783 3007,2783 3008,2782 3050,2782 3051,2781 3056,2781 3057,2780 3105,2780 3106,2779 3136,2779 3137,2780 3145,2780 3146,2779 3153,2779 3154,2778 3161,2778 3162,2779 3200,2779 3201,2780 3207,2780 3208,2781 3212,2781 3213,2782 3222,2782 3223,2781 3229,2781 3230,2780 3234,2780 3235,2779 3243,2779 3244,2778 3270,2778 3271,2777 3283,2777 3284,2778 3286,2778 3287,2777 3327,2777 3328,2778 3357,2778 3358,2779 3366,2779 3367,2780 3375,2780 3376,2779 3407,2779 3408,2778 3413,2778 3414,2777 3424,2777 3425,2778 3433,2778 3434,2779 3439,2779 3440,2780 3445,2780 3446,2781 3449,2781 3450,2782 3453,2782 3454,2783 3466,2783 3467,2782 3469,2782 3470,2781 3472,2781 3473,2780 3475,2780 3476,2779 3480,2779 3481,2778 3486,2778 3487,2777 3494,2777 3495,2778 3506,2778 3507,2777 3517,2777 3518,2778 3527,2778 3528,2777 3534,2777 3535,2776 3540,2776 3541,2777 3552,2777 3553,2776 3561,2776 3562,2775 3584,2775 3585,2776 3602,2776 3603,2777 3612,2777 3613,2778 3623,2778 3624,2777 3626,2777 3627,2776 3673,2776 3674,2775 3683,2775 3684,2776 3716,2776 3717,2777 3726,2777 3727,2778 3734,2778 3735,2779 3739,2779 3740,2778 3743,2778 3744,2777 3748,2777 3749,2776 3786,2776 3787,2775 3814,2775 3815,2774 3820,2774 3821,2773 3825,2773 3826,2774 3839,2774 3840,2773 3864,2773 3865,2772 3897,2772 3898,2773 3907,2773 3908,2774 3979,2774 3980,2773 3994,2773 3995,2774 4003,2774 4004,2773 4006,2773 4007,2772 4009,2772 4010,2771 4011,2771 4012,2770 4017,2770 4018,2771 4025,2771 4026,2772 4045,2772 4046,2773 4048,2773 4049,2772 4060,2772 4061,2771 4100,2771 4101,2770 4134,2770 4135,2771 4148,2771 4149,2770 4156,2770 4157,2769 4167,2769 4168,2770 4190,2770 4191,2769 4192,2769 4195,2766 4195,2765 4197,2763 4197,2762 4198,2761 4198,2741 4199,2740 4199,2731 4198,2730 4198,2720 4199,2719 4199,2682 4198,2681 4198,2673 4199,2672 4199,2648 4200,2647 4200,2629 4201,2628 4201,2622 4202,2621 4202,2612 4201,2611 4201,2588 4200,2587 4200,2578 4201,2577 4201,2573 4202,2572 4202,2566 4201,2565 4201,2550 4202,2549 4202,2541 4201,2540 4201,2529 4202,2528 4202,2525 4203,2524 4203,2521 4202,2520 4202,2517 4201,2516 4201,2501 4202,2500 4202,2496 4201,2495 4201,2479 4202,2478 4202,2471 4201,2470 4201,2448 4200,2447 4200,2437 4199,2436 4199,2428 4198,2427 4198,2426 4193,2421 4191,2421 4190,2420 4141,2420 4140,2419 4127,2419 4126,2420 4121,2420 4120,2421 4117,2421 4116,2420 4105,2420 4104,2421 4100,2421 4099,2422 4092,2422 4091,2421 4079,2421 4078,2422 4072,2422 4071,2423 4070,2423 4069,2422 4056,2422 4055,2423 4046,2423 4045,2422 4039,2422 4038,2421 4036,2421 4035,2422 4030,2422 4029,2423 3998,2423 3997,2422 3994,2422 3993,2421 3982,2421 3981,2422 3975,2422 3974,2421 3957,2421 3956,2422 3948,2422 3947,2421 3860,2421 3859,2422 3856,2422 3855,2421 3800,2421 3799,2420 3784,2420 3783,2419 3777,2419 3776,2418 3773,2418 3772,2419 3769,2419 3768,2420 3766,2420 3765,2421 3758,2421 3757,2420 3747,2420 3746,2421 3743,2421 3742,2422 3723,2422 3722,2423 3702,2423 3701,2422 3695,2422 3694,2421 3634,2421 3633,2420 3626,2420 3625,2421 3614,2421 3613,2420 3606,2420 3605,2421 3593,2421 3592,2420 3581,2420 3580,2421 3576,2421 3575,2422 3569,2422 3568,2421 3564,2421 3563,2420 3557,2420 3556,2419 3528,2419 3527,2420 3522,2420 3521,2419 3511,2419 3510,2418 3505,2418 3504,2417 3495,2417 3494,2416 3485,2416 3484,2417 3473,2417 3472,2416 3458,2416 3457,2417 3444,2417 3443,2416 3438,2416 3437,2417 3425,2417 3424,2416 3412,2416 3411,2417 3400,2417 3399,2416 3388,2416 3387,2417 3378,2417 3377,2416 3365,2416 3364,2417 3358,2417 3357,2418 3356,2418 3355,2417 3348,2417" fill="rgba(102,179,92,0.3)" stroke="rgb(102,179,92)" stroke-width="2" data-block-id="0001" data-name="b-0001" /><text x="3376" y="2595" text-anchor="middle" dominant-baseline="middle" class="block-label" fill="rgb(102,179,92)" stroke="white" stroke-width="3" paint-order="stroke">b-0001</text><polygon points="2617,543 2616,544 2588,544 2587,545 2572,545 2571,546 2567,546 2566,547 2563,547 2562,548 2561,548 2560,549 2559,549 2557,551 2557,552 2556,553 2556,558 2555,559 2555,585 2554,586 2554,621 2555,622 2555,632 2554,633 2554,667 2555,668 2555,681 2554,682 2554,686 2555,687 2555,728 2554,729 2554,735 2555,736 2555,788 2554,789 2554,797 2555,798 2555,811 2556,812 2556,846 2555,847 2555,858 2556,859 2556,865 2555,866 2555,871 2554,872 2554,880 2555,881 2555,888 2556,889 2556,897 2557,898 2557,899 2558,900 2558,901 2559,901 2560,902 2562,902 2563,903 2570,903 2571,904 2580,904 2581,905 2627,905 2628,906 2634,906 2635,905 2650,905 2651,904 2657,904 2658,905 2664,905 2665,906 2670,906 2671,905 2698,905 2699,904 2722,904 2723,905 2740,905 2741,904 2745,904 2746,903 2762,903 2763,902 2831,902 2832,903 2865,903 2866,904 2888,904 2889,903 2896,903 2897,904 2905,904 2906,905 2926,905 2927,906 2953,906 2954,905 2978,905 2979,906 3005,906 3006,905 3013,905 3014,904 3017,904 3018,903 3020,903 3021,902 3028,902 3029,903 3032,903 3033,904 3074,904 3075,903 3096,903 3097,904 3148,904 3149,905 3175,905 3176,906 3196,906 3197,907 3232,907 3233,908 3248,908 3249,909 3250,908 3257,908 3258,907 3266,907 3267,908 3269,908 3270,909 3275,909 3276,910 3277,909 3289,909 3290,910 3318,910 3319,909 3327,909 3328,908 3339,908 3340,909 3356,909 3357,908 3400,908 3401,907 3434,907 3435,908 3486,908 3487,909 3493,909 3494,908 3502,908 3503,909 3510,909 3511,910 3518,910 3519,909 3526,909 3527,910 3532,910 3533,911 3541,911 3542,910 3577,910 3578,911 3591,911 3592,910 3603,910 3604,911 3610,911 3611,910 3627,910 3628,911 3638,911 3639,910 3651,910 3652,911 3657,911 3658,910 3674,910 3675,911 3686,911 3687,910 3703,910 3704,909 3719,909 3720,910 3724,910 3725,911 3728,911 3729,910 3731,910 3732,909 3734,909 3735,908 3736,908 3737,907 3746,907 3747,908 3758,908 3759,907 3765,907 3766,908 3781,908 3782,907 3788,907 3789,908 3792,908 3793,909 3812,909 3813,910 3817,910 3818,911 3829,911 3830,910 3847,910 3848,909 3886,909 3887,910 3891,910 3892,911 3896,911 3897,910 3902,910 3903,909 3908,909 3909,910 3913,910 3914,911 3926,911 3927,910 3939,910 3940,909 3942,909 3943,910 3949,910 3950,911 3966,911 3967,910 3969,910 3970,909 3972,909 3974,907 3975,907 3976,906 3980,906 3981,907 3983,907 3984,908 3986,908 3987,909 3991,909 3992,908 3994,908 3995,907 3997,907 3998,906 4001,906 4002,905 4003,905 4004,906 4013,906 4014,907 4019,907 4020,908 4024,908 4025,909 4026,909 4027,910 4029,910 4030,911 4031,911 4032,912 4036,912 4037,913 4046,913 4047,912 4048,913 4078,913 4079,914 4094,914 4095,913 4098,913 4099,914 4141,914 4142,913 4171,913 4172,912 4178,912 4179,911 4190,911 4191,910 4193,910 4201,902 4201,901 4203,899 4203,893 4202,892 4202,886 4203,885 4203,884 4205,882 4205,881 4206,880 4206,879 4207,878 4207,876 4208,875 4208,872 4207,871 4207,866 4206,865 4206,862 4205,861 4205,859 4204,858 4204,855 4203,854 4203,850 4202,849 4202,847 4201,846 4201,843 4200,842 4200,837 4201,836 4201,835 4202,834 4202,832 4203,831 4203,830 4204,829 4204,818 4203,817 4203,814 4204,813 4204,790 4206,788 4206,786 4207,785 4207,783 4208,782 4208,776 4207,775 4207,772 4206,771 4206,769 4205,768 4205,766 4204,765 4204,758 4203,757 4203,752 4202,751 4202,748 4201,747 4201,742 4202,741 4202,738 4203,737 4203,734 4204,733 4204,728 4203,727 4203,719 4202,718 4202,694 4203,693 4203,691 4204,690 4204,689 4205,688 4205,687 4206,686 4206,682 4207,681 4207,673 4206,672 4206,670 4205,669 4205,667 4204,666 4204,662 4203,661 4203,657 4202,656 4202,645 4203,644 4203,641 4204,640 4204,633 4203,632 4203,630 4202,629 4202,625 4201,624 4201,617 4202,616 4202,614 4201,613 4201,604 4200,603 4200,596 4201,595 4201,587 4200,586 4200,577 4199,576 4199,567 4198,566 4198,565 4197,564 4197,563 4196,563 4193,560 4179,560 4178,559 4174,559 4173,558 4170,558 4169,557 4120,557 4119,556 4071,556 4070,555 4058,555 4057,554 4049,554 4048,553 4043,553 4042,552 4035,552 4034,553 4032,553 4031,554 4030,554 4029,555 4028,555 4027,556 4026,556 4025,557 4024,557 4023,558 4019,558 4018,559 4011,559 4010,558 4008,558 4007,557 4004,557 4003,556 3986,556 3985,555 3979,555 3978,554 3974,554 3973,555 3962,555 3961,554 3958,554 3957,553 3940,553 3939,552 3933,552 3932,551 3915,551 3914,552 3910,552 3909,553 3907,553 3906,554 3894,554 3893,553 3876,553 3875,554 3872,554 3871,555 3867,555 3866,554 3834,554 3833,553 3822,553 3821,552 3818,552 3817,551 3815,551 3814,550 3803,550 3802,551 3773,551 3772,552 3767,552 3766,553 3760,553 3759,552 3755,552 3754,551 3747,551 3746,552 3743,552 3742,553 3737,553 3736,554 3725,554 3724,555 3702,555 3701,556 3685,556 3684,555 3672,555 3671,556 3665,556 3664,555 3612,555 3611,554 3599,554 3598,553 3585,553 3584,554 3580,554 3579,555 3577,555 3576,556 3574,556 3573,557 3560,557 3559,556 3544,556 3543,555 3533,555 3532,554 3518,554 3517,555 3511,555 3510,556 3506,556 3505,557 3495,557 3494,556 3473,556 3472,555 3469,555 3468,554 3449,554 3448,553 3418,553 3417,554 3416,554 3415,555 3414,555 3412,557 3411,557 3410,558 3409,558 3407,560 3406,559 3404,559 3396,551 3394,551 3393,550 3388,550 3387,549 3319,549 3318,548 3296,548 3295,547 3273,547 3272,548 3269,548 3268,549 3265,549 3264,550 3259,550 3258,549 3240,549 3239,550 3233,550 3232,551 3223,551 3222,550 3220,550 3219,549 3217,549 3216,548 3186,548 3185,549 3178,549 3177,548 3171,548 3170,547 3157,547 3156,548 3093,548 3092,547 3084,547 3083,546 3082,546 3081,547 3068,547 3067,548 3062,548 3061,549 3060,548 3054,548 3053,547 3035,547 3034,548 3028,548 3027,549 3021,549 3020,548 3015,548 3014,547 3011,547 3010,548 3001,548 3000,549 2979,549 2978,548 2970,548 2969,549 2966,549 2965,548 2956,548 2955,547 2950,547 2949,548 2923,548 2922,549 2902,549 2901,548 2894,548 2893,547 2887,547 2886,546 2878,546 2877,547 2873,547 2872,548 2866,548 2865,547 2861,547 2860,546 2843,546 2842,547 2828,547 2827,548 2820,548 2819,547 2813,547 2812,546 2807,546 2806,547 2800,547 2799,548 2797,548 2796,547 2777,547 2776,548 2760,548 2759,547 2754,547 2753,546 2738,546 2737,547 2733,547 2732,548 2723,548 2722,547 2717,547 2716,546 2709,546 2708,547 2701,547 2700,546 2695,546 2694,545 2689,545 2688,544 2662,544 2661,545 2653,545 2652,544 2645,544 2644,543 2643,544 2637,544 2636,545 2634,545 2633,546 2630,546 2629,545 2626,545 2625,544 2621,544 2620,543" fill="rgba(188,20,102,0.3)" stroke="rgb(188,20,102)" stroke-width="2" data-block-id="0002" data-name="b-0003" /><text x="3496" y="720" text-anchor="middle" dominant-baseline="middle" class="block-label" fill="rgb(188,20,102)" stroke="white" stroke-width="3" paint-order="stroke">b-0003</text><polygon points="3259,1951 3258,1952 3255,1952 3254,1953 3250,1953 3249,1954 3248,1953 3239,1953 3238,1954 3236,1954 3235,1955 3234,1955 3233,1956 3232,1956 3231,1957 3230,1957 3229,1958 3227,1958 3226,1959 3220,1959 3219,1960 3207,1960 3206,1959 3201,1959 3200,1960 3183,1960 3182,1961 3173,1961 3172,1962 3167,1962 3166,1963 3159,1963 3158,1964 3154,1964 3153,1963 3150,1963 3149,1962 3143,1962 3142,1961 3141,1962 3136,1962 3135,1963 3129,1963 3128,1962 3122,1962 3121,1961 3117,1961 3116,1962 3105,1962 3104,1961 3101,1961 3100,1960 3079,1960 3078,1959 3066,1959 3065,1958 3056,1958 3055,1957 3049,1957 3048,1956 3047,1956 3046,1957 3039,1957 3038,1958 3034,1958 3033,1957 3019,1957 3018,1958 3009,1958 3008,1957 3005,1957 3004,1956 2994,1956 2993,1957 2984,1957 2983,1956 2977,1956 2976,1955 2940,1955 2939,1956 2936,1956 2935,1957 2933,1957 2932,1958 2929,1958 2928,1959 2923,1959 2922,1960 2906,1960 2905,1961 2897,1961 2896,1962 2895,1962 2894,1961 2893,1961 2892,1960 2891,1960 2888,1957 2887,1957 2885,1955 2884,1955 2883,1954 2882,1954 2881,1953 2879,1953 2878,1954 2876,1954 2875,1955 2872,1955 2871,1956 2867,1956 2866,1955 2841,1955 2840,1954 2838,1954 2837,1953 2830,1953 2829,1954 2825,1954 2824,1955 2819,1955 2818,1954 2783,1954 2782,1955 2778,1955 2777,1956 2770,1956 2769,1955 2765,1955 2764,1954 2758,1954 2757,1955 2736,1955 2735,1956 2703,1956 2702,1955 2697,1955 2696,1954 2685,1954 2684,1955 2671,1955 2670,1954 2662,1954 2661,1955 2646,1955 2645,1954 2644,1954 2643,1955 2636,1955 2635,1956 2628,1956 2627,1955 2591,1955 2590,1956 2566,1956 2565,1957 2560,1957 2559,1958 2558,1958 2555,1961 2555,1962 2554,1963 2554,2064 2553,2065 2553,2075 2554,2076 2554,2088 2553,2089 2553,2123 2554,2124 2554,2157 2553,2158 2553,2204 2552,2205 2552,2217 2553,2218 2553,2255 2552,2256 2552,2262 2553,2263 2553,2287 2552,2288 2552,2298 2553,2299 2553,2303 2554,2304 2554,2306 2556,2308 2557,2308 2558,2309 2567,2309 2568,2310 2570,2310 2571,2309 2594,2309 2595,2310 2600,2310 2601,2309 2617,2309 2618,2310 2619,2309 2641,2309 2642,2310 2718,2310 2719,2309 2736,2309 2737,2310 2740,2310 2741,2309 2770,2309 2771,2308 2776,2308 2777,2309 2819,2309 2820,2308 2823,2308 2824,2309 2865,2309 2866,2308 2871,2308 2872,2309 2935,2309 2936,2310 2954,2310 2955,2309 2970,2309 2971,2308 2979,2308 2980,2309 2985,2309 2986,2310 3007,2310 3008,2309 3018,2309 3019,2310 3030,2310 3031,2311 3056,2311 3057,2310 3068,2310 3069,2309 3075,2309 3076,2310 3101,2310 3102,2309 3121,2309 3122,2310 3137,2310 3138,2311 3142,2311 3143,2310 3149,2310 3150,2309 3163,2309 3164,2310 3180,2310 3181,2309 3222,2309 3223,2310 3267,2310 3268,2309 3277,2309 3278,2310 3282,2310 3283,2311 3289,2311 3290,2312 3304,2312 3305,2313 3311,2313 3312,2312 3322,2312 3323,2311 3326,2311 3327,2312 3336,2312 3337,2311 3362,2311 3363,2310 3368,2310 3369,2309 3372,2309 3373,2310 3390,2310 3391,2309 3398,2309 3399,2310 3432,2310 3433,2309 3448,2309 3449,2310 3485,2310 3486,2309 3492,2309 3493,2310 3508,2310 3509,2309 3549,2309 3550,2310 3610,2310 3611,2309 3639,2309 3640,2310 3645,2310 3646,2309 3655,2309 3656,2308 3659,2308 3660,2309 3672,2309 3673,2308 3684,2308 3685,2309 3721,2309 3722,2310 3746,2310 3747,2309 3751,2309 3752,2310 3759,2310 3760,2311 3766,2311 3767,2310 3790,2310 3791,2309 3802,2309 3803,2310 3823,2310 3824,2309 3825,2310 3838,2310 3839,2309 3855,2309 3856,2310 3857,2310 3858,2309 3915,2309 3916,2308 3932,2308 3933,2309 3947,2309 3948,2308 3955,2308 3956,2309 3969,2309 3970,2308 3972,2308 3973,2307 3975,2307 3976,2306 3979,2306 3980,2307 3982,2307 3983,2308 3985,2308 3986,2309 4070,2309 4071,2308 4077,2308 4078,2309 4089,2309 4090,2308 4101,2308 4102,2309 4112,2309 4113,2308 4130,2308 4131,2309 4135,2309 4136,2308 4188,2308 4189,2307 4194,2307 4195,2306 4196,2306 4197,2305 4197,2304 4198,2303 4198,2302 4199,2301 4199,2297 4200,2296 4200,2292 4201,2291 4201,2288 4202,2287 4202,2283 4203,2282 4202,2281 4202,2277 4201,2276 4201,2255 4200,2254 4200,2241 4201,2240 4201,2233 4200,2232 4200,2205 4199,2204 4199,2200 4200,2199 4200,2194 4201,2193 4201,2181 4200,2180 4200,2160 4199,2159 4199,2150 4200,2149 4200,2146 4201,2145 4201,2136 4200,2135 4200,2099 4201,2098 4201,2085 4200,2084 4200,2079 4201,2078 4201,2071 4202,2070 4202,2067 4201,2066 4201,2052 4202,2051 4202,2041 4201,2040 4201,2016 4200,2015 4200,2008 4201,2007 4201,1988 4200,1987 4200,1967 4199,1966 4199,1962 4198,1961 4198,1960 4195,1957 4194,1957 4193,1956 4096,1956 4095,1957 3983,1957 3982,1958 3890,1958 3889,1957 3823,1957 3822,1956 3790,1956 3789,1957 3778,1957 3777,1956 3761,1956 3760,1957 3748,1957 3747,1956 3744,1956 3743,1955 3740,1955 3739,1954 3735,1954 3734,1955 3694,1955 3693,1954 3690,1954 3689,1955 3664,1955 3663,1956 3658,1956 3657,1957 3656,1957 3655,1956 3652,1956 3651,1955 3647,1955 3646,1954 3637,1954 3636,1955 3620,1955 3619,1954 3618,1955 3601,1955 3600,1954 3594,1954 3593,1955 3574,1955 3573,1954 3542,1954 3541,1955 3527,1955 3526,1954 3522,1954 3521,1955 3511,1955 3510,1954 3493,1954 3492,1955 3483,1955 3482,1954 3468,1954 3467,1955 3466,1955 3465,1954 3457,1954 3456,1953 3449,1953 3448,1954 3408,1954 3407,1953 3404,1953 3403,1954 3399,1954 3398,1955 3389,1955 3388,1954 3385,1954 3384,1953 3376,1953 3375,1954 3360,1954 3359,1953 3358,1953 3357,1954 3349,1954 3348,1955 3343,1955 3342,1954 3314,1954 3313,1953 3307,1953 3306,1954 3296,1954 3295,1953 3291,1953 3290,1952 3282,1952 3281,1953 3271,1953 3270,1952 3267,1952 3266,1951" fill="rgba(121,210,214,0.3)" stroke="rgb(121,210,214)" stroke-width="2" data-block-id="0003" data-name="b-0004" /><text x="3352" y="2112" text-anchor="middle" dominant-baseline="middle" class="block-label" fill="rgb(121,210,214)" stroke="white" stroke-width="3" paint-order="stroke">b-0004</text><polygon points="3273,1490 3272,1491 3260,1491 3259,1492 3157,1492 3156,1493 3142,1493 3141,1494 3136,1494 3135,1495 3127,1495 3126,1494 3120,1494 3119,1493 3118,1493 3117,1494 3107,1494 3106,1495 3085,1495 3084,1494 3075,1494 3074,1493 3072,1493 3071,1494 3067,1494 3066,1495 3065,1495 3064,1496 3062,1496 3061,1497 3060,1497 3059,1496 3058,1496 3057,1495 3056,1495 3055,1494 3054,1494 3053,1493 3051,1493 3050,1492 3020,1492 3019,1493 3008,1493 3007,1492 2994,1492 2993,1493 2982,1493 2981,1492 2970,1492 2969,1493 2939,1493 2938,1492 2920,1492 2919,1493 2914,1493 2913,1492 2899,1492 2898,1491 2892,1491 2891,1492 2878,1492 2877,1493 2860,1493 2859,1492 2804,1492 2803,1491 2779,1491 2778,1492 2765,1492 2764,1493 2748,1493 2747,1492 2730,1492 2729,1493 2716,1493 2715,1492 2697,1492 2696,1491 2679,1491 2678,1492 2675,1492 2674,1491 2631,1491 2630,1492 2629,1491 2582,1491 2581,1492 2571,1492 2570,1493 2559,1493 2556,1496 2556,1497 2555,1498 2555,1501 2554,1502 2554,1527 2555,1528 2555,1541 2554,1542 2554,1575 2555,1576 2555,1581 2554,1582 2554,1606 2553,1607 2553,1619 2554,1620 2554,1665 2555,1666 2555,1669 2556,1670 2556,1678 2555,1679 2555,1683 2554,1684 2554,1721 2553,1722 2553,1742 2554,1743 2554,1748 2553,1749 2553,1763 2554,1764 2554,1775 2553,1776 2553,1784 2554,1785 2554,1795 2553,1796 2553,1811 2554,1812 2554,1833 2555,1834 2555,1838 2556,1839 2556,1840 2559,1843 2560,1843 2561,1844 2568,1844 2569,1845 2596,1845 2597,1846 2612,1846 2613,1847 2624,1847 2625,1846 2636,1846 2637,1847 2639,1847 2640,1848 2644,1848 2645,1849 2646,1848 2652,1848 2653,1847 2670,1847 2671,1846 2722,1846 2723,1845 2738,1845 2739,1846 2755,1846 2756,1847 2765,1847 2766,1846 2770,1846 2771,1845 2777,1845 2778,1846 2781,1846 2782,1847 2786,1847 2787,1848 2802,1848 2803,1847 2807,1847 2808,1846 2813,1846 2814,1845 2847,1845 2848,1846 2877,1846 2878,1847 2884,1847 2885,1846 2892,1846 2893,1845 2895,1845 2896,1846 2909,1846 2910,1847 2917,1847 2918,1848 2923,1848 2924,1849 2954,1849 2955,1848 2958,1848 2959,1847 2962,1847 2963,1846 2973,1846 2974,1847 3002,1847 3003,1846 3015,1846 3016,1845 3024,1845 3025,1846 3038,1846 3039,1847 3052,1847 3053,1846 3074,1846 3075,1847 3082,1847 3083,1848 3087,1848 3088,1849 3092,1849 3093,1850 3098,1850 3099,1849 3102,1849 3103,1848 3119,1848 3120,1847 3125,1847 3126,1846 3132,1846 3133,1845 3138,1845 3139,1844 3171,1844 3172,1845 3177,1845 3178,1846 3181,1846 3182,1845 3186,1845 3187,1844 3193,1844 3194,1845 3195,1845 3196,1846 3197,1846 3198,1847 3199,1847 3200,1848 3203,1848 3204,1849 3205,1848 3208,1848 3209,1847 3211,1847 3212,1846 3266,1846 3267,1847 3282,1847 3283,1848 3288,1848 3289,1847 3302,1847 3303,1846 3316,1846 3317,1845 3329,1845 3330,1846 3343,1846 3344,1847 3345,1847 3346,1846 3352,1846 3353,1845 3362,1845 3363,1846 3366,1846 3367,1847 3397,1847 3398,1846 3413,1846 3414,1845 3417,1845 3418,1846 3458,1846 3459,1845 3467,1845 3468,1846 3487,1846 3488,1847 3504,1847 3505,1846 3510,1846 3511,1845 3517,1845 3518,1846 3530,1846 3531,1845 3579,1845 3580,1846 3590,1846 3591,1847 3600,1847 3601,1846 3629,1846 3630,1845 3635,1845 3636,1846 3665,1846 3666,1847 3667,1846 3744,1846 3745,1847 3760,1847 3761,1848 3766,1848 3767,1847 3779,1847 3780,1848 3790,1848 3791,1847 3808,1847 3809,1848 3810,1848 3811,1847 3819,1847 3820,1846 3827,1846 3828,1847 3838,1847 3839,1848 3844,1848 3845,1849 3852,1849 3853,1850 3862,1850 3863,1849 3897,1849 3898,1850 3910,1850 3911,1849 3918,1849 3919,1848 3920,1849 3934,1849 3935,1850 3944,1850 3945,1851 3957,1851 3958,1850 3966,1850 3967,1849 3973,1849 3974,1848 3979,1848 3980,1849 3983,1849 3984,1850 3989,1850 3990,1851 4004,1851 4005,1850 4013,1850 4014,1849 4017,1849 4018,1848 4019,1848 4020,1847 4022,1847 4023,1846 4027,1846 4028,1847 4030,1847 4031,1848 4034,1848 4035,1849 4043,1849 4044,1850 4050,1850 4051,1849 4076,1849 4077,1848 4103,1848 4104,1847 4117,1847 4118,1848 4119,1848 4120,1847 4126,1847 4127,1846 4151,1846 4152,1845 4161,1845 4162,1846 4170,1846 4171,1845 4180,1845 4181,1844 4193,1844 4195,1842 4196,1842 4197,1841 4197,1840 4199,1838 4199,1836 4200,1835 4200,1833 4201,1832 4201,1830 4202,1829 4202,1826 4201,1825 4201,1822 4200,1821 4200,1812 4201,1811 4201,1808 4202,1807 4202,1801 4201,1800 4201,1796 4200,1795 4200,1790 4201,1789 4201,1785 4202,1784 4202,1776 4201,1775 4201,1770 4200,1769 4200,1765 4201,1764 4201,1740 4202,1739 4202,1736 4203,1735 4203,1730 4202,1729 4202,1725 4201,1724 4201,1718 4202,1717 4202,1715 4203,1714 4203,1711 4204,1710 4204,1707 4203,1706 4203,1700 4202,1699 4202,1696 4203,1695 4203,1691 4204,1690 4204,1680 4203,1679 4203,1671 4204,1670 4204,1668 4205,1667 4205,1665 4206,1664 4206,1646 4207,1645 4207,1641 4208,1640 4208,1637 4207,1636 4207,1634 4206,1633 4206,1631 4205,1630 4205,1627 4204,1626 4204,1623 4205,1622 4205,1598 4206,1597 4206,1594 4207,1593 4207,1588 4206,1587 4206,1586 4205,1585 4205,1584 4203,1582 4203,1581 4201,1579 4201,1575 4202,1574 4202,1572 4203,1571 4203,1568 4204,1567 4204,1565 4203,1564 4203,1560 4202,1559 4202,1556 4201,1555 4201,1550 4202,1549 4202,1541 4201,1540 4201,1538 4200,1537 4200,1535 4199,1534 4199,1530 4198,1529 4198,1524 4197,1523 4197,1518 4196,1517 4196,1510 4195,1509 4195,1507 4194,1506 4194,1505 4193,1504 4191,1504 4190,1503 4187,1503 4186,1504 4172,1504 4171,1503 4132,1503 4131,1504 4107,1504 4106,1503 4100,1503 4099,1502 4089,1502 4088,1501 4080,1501 4079,1502 4059,1502 4058,1501 4050,1501 4049,1500 4029,1500 4028,1501 4026,1501 4025,1500 4023,1500 4022,1499 4020,1499 4019,1498 4018,1498 4017,1497 4014,1497 4013,1496 4011,1496 4010,1497 4004,1497 4003,1498 3984,1498 3983,1499 3974,1499 3973,1500 3963,1500 3962,1499 3955,1499 3954,1498 3930,1498 3929,1499 3927,1499 3926,1498 3914,1498 3913,1497 3905,1497 3904,1496 3886,1496 3885,1497 3868,1497 3867,1496 3861,1496 3860,1495 3821,1495 3820,1496 3813,1496 3812,1497 3798,1497 3797,1496 3790,1496 3789,1495 3773,1495 3772,1496 3767,1496 3766,1497 3758,1497 3757,1496 3747,1496 3746,1495 3735,1495 3734,1496 3698,1496 3697,1495 3686,1495 3685,1496 3666,1496 3665,1495 3650,1495 3649,1494 3638,1494 3637,1493 3630,1493 3629,1494 3626,1494 3625,1495 3623,1495 3622,1496 3618,1496 3617,1495 3615,1495 3614,1494 3611,1494 3610,1493 3600,1493 3599,1494 3577,1494 3576,1495 3572,1495 3571,1494 3566,1494 3565,1493 3549,1493 3548,1494 3543,1494 3542,1493 3535,1493 3534,1494 3516,1494 3515,1493 3490,1493 3489,1494 3467,1494 3466,1493 3453,1493 3452,1492 3433,1492 3432,1493 3426,1493 3425,1492 3414,1492 3413,1493 3408,1493 3407,1494 3398,1494 3397,1493 3391,1493 3390,1494 3379,1494 3378,1493 3373,1493 3372,1492 3325,1492 3324,1491 3319,1491 3318,1492 3291,1492 3290,1493 3285,1493 3284,1492 3280,1492 3279,1491 3274,1491" fill="rgba(74,202,87,0.3)" stroke="rgb(74,202,87)" stroke-width="2" data-block-id="0004" data-name="b-0005" /><text x="3492" y="1678" text-anchor="middle" dominant-baseline="middle" class="block-label" fill="rgb(74,202,87)" stroke="white" stroke-width="3" paint-order="stroke">b-0005</text><polygon points="957,1004 956,1005 932,1005 931,1006 926,1006 925,1007 923,1007 922,1008 921,1008 917,1012 917,1013 916,1014 916,1015 915,1016 915,1018 914,1019 914,1047 915,1048 915,1087 914,1088 914,1108 913,1109 913,1121 914,1122 914,1135 913,1136 913,1148 914,1149 914,1162 913,1163 913,1178 912,1179 912,1190 913,1191 913,1207 912,1208 912,1212 913,1213 913,1223 912,1224 912,1239 913,1240 913,1252 912,1253 912,1264 913,1265 913,1269 912,1270 912,1286 913,1287 913,1301 912,1302 912,1348 911,1349 911,1353 912,1354 912,1357 913,1358 913,1360 914,1361 914,1362 915,1363 915,1364 916,1365 917,1365 918,1366 919,1366 920,1367 926,1367 927,1368 950,1368 951,1369 956,1369 957,1370 962,1370 963,1369 998,1369 999,1370 1022,1370 1023,1369 1042,1369 1043,1370 1069,1370 1070,1371 1106,1371 1107,1370 1139,1370 1140,1371 1192,1371 1193,1372 1205,1372 1206,1371 1208,1371 1209,1372 1214,1372 1215,1373 1217,1373 1218,1374 1222,1374 1223,1373 1225,1373 1226,1372 1227,1372 1228,1371 1230,1371 1231,1370 1236,1370 1237,1371 1241,1371 1242,1372 1246,1372 1247,1371 1251,1371 1252,1370 1259,1370 1260,1371 1264,1371 1265,1372 1273,1372 1274,1371 1295,1371 1296,1370 1335,1370 1336,1371 1344,1371 1345,1370 1357,1370 1358,1369 1380,1369 1381,1370 1408,1370 1409,1371 1427,1371 1428,1372 1454,1372 1455,1371 1515,1371 1516,1370 1517,1371 1523,1371 1524,1372 1528,1372 1529,1373 1533,1373 1534,1372 1544,1372 1545,1371 1551,1371 1552,1370 1575,1370 1576,1371 1577,1371 1578,1370 1597,1370 1598,1371 1619,1371 1620,1372 1634,1372 1635,1371 1658,1371 1659,1370 1660,1370 1661,1371 1666,1371 1667,1372 1670,1372 1671,1373 1691,1373 1692,1372 1699,1372 1700,1371 1706,1371 1707,1370 1710,1370 1711,1371 1715,1371 1716,1372 1734,1372 1735,1371 1760,1371 1761,1372 1763,1372 1764,1373 1766,1373 1767,1374 1769,1374 1770,1373 1772,1373 1773,1372 1776,1372 1777,1371 1795,1371 1796,1370 1808,1370 1809,1371 1815,1371 1816,1372 1860,1372 1861,1373 1880,1373 1881,1372 1885,1372 1886,1371 1962,1371 1963,1370 1983,1370 1984,1369 1997,1369 1998,1370 2015,1370 2016,1371 2025,1371 2026,1372 2038,1372 2039,1371 2044,1371 2045,1372 2049,1372 2050,1373 2074,1373 2075,1372 2082,1372 2083,1373 2097,1373 2098,1372 2123,1372 2124,1371 2132,1371 2133,1372 2140,1372 2141,1371 2152,1371 2153,1372 2169,1372 2170,1371 2178,1371 2179,1370 2188,1370 2189,1371 2193,1371 2194,1372 2221,1372 2222,1373 2264,1373 2265,1374 2300,1374 2301,1375 2306,1375 2307,1374 2313,1374 2314,1373 2318,1373 2319,1374 2328,1374 2329,1375 2336,1375 2337,1376 2350,1376 2351,1375 2355,1375 2356,1374 2358,1374 2359,1373 2360,1373 2362,1371 2363,1371 2366,1368 2366,1367 2368,1365 2368,1364 2369,1363 2369,1360 2370,1359 2370,1354 2371,1353 2371,1347 2370,1346 2370,1335 2369,1334 2369,1321 2368,1320 2368,1314 2369,1313 2369,1284 2368,1283 2368,1277 2369,1276 2369,1268 2370,1267 2370,1255 2369,1254 2369,1241 2368,1240 2368,1234 2367,1233 2367,1229 2368,1228 2368,1214 2369,1213 2369,1205 2370,1204 2370,1199 2371,1198 2371,1194 2370,1193 2370,1187 2369,1186 2369,1175 2370,1174 2370,1162 2371,1161 2371,1150 2370,1149 2370,1142 2369,1141 2369,1127 2370,1126 2370,1120 2371,1119 2371,1096 2372,1095 2372,1088 2371,1087 2371,1070 2372,1069 2372,1062 2373,1061 2373,1050 2372,1049 2372,1046 2371,1045 2371,1041 2370,1040 2370,1031 2369,1030 2369,1028 2367,1026 2367,1025 2366,1024 2366,1023 2364,1021 2364,1020 2362,1018 2361,1018 2360,1017 2359,1017 2358,1016 2357,1016 2356,1015 2353,1015 2352,1014 2331,1014 2330,1015 2329,1015 2328,1014 2296,1014 2295,1013 2290,1013 2289,1014 2249,1014 2248,1013 2243,1013 2242,1014 2232,1014 2231,1015 2211,1015 2210,1016 2207,1016 2206,1015 2150,1015 2149,1014 2142,1014 2141,1013 2121,1013 2120,1014 2114,1014 2113,1015 2112,1015 2111,1014 2107,1014 2106,1013 2096,1013 2095,1014 2085,1014 2084,1015 2076,1015 2075,1014 2067,1014 2066,1013 2053,1013 2052,1012 2029,1012 2028,1011 2024,1011 2023,1010 2013,1010 2012,1011 2005,1011 2004,1012 1997,1012 1996,1013 1992,1013 1991,1012 1974,1012 1973,1013 1937,1013 1936,1012 1931,1012 1930,1013 1922,1013 1921,1012 1890,1012 1889,1011 1885,1011 1884,1012 1849,1012 1848,1011 1819,1011 1818,1010 1813,1010 1812,1011 1795,1011 1794,1010 1788,1010 1787,1011 1773,1011 1772,1010 1766,1010 1765,1011 1749,1011 1748,1010 1743,1010 1742,1011 1739,1011 1738,1012 1735,1012 1734,1013 1730,1013 1729,1012 1710,1012 1709,1011 1699,1011 1698,1010 1689,1010 1688,1011 1684,1011 1683,1010 1664,1010 1663,1011 1660,1011 1659,1010 1649,1010 1648,1009 1631,1009 1630,1008 1625,1008 1624,1009 1621,1009 1620,1010 1616,1010 1615,1011 1611,1011 1610,1010 1603,1010 1602,1009 1595,1009 1594,1010 1588,1010 1587,1009 1561,1009 1560,1008 1547,1008 1546,1009 1524,1009 1523,1010 1515,1010 1514,1009 1500,1009 1499,1010 1489,1010 1488,1009 1475,1009 1474,1010 1466,1010 1465,1009 1455,1009 1454,1010 1446,1010 1445,1011 1444,1010 1437,1010 1436,1009 1415,1009 1414,1008 1407,1008 1406,1009 1393,1009 1392,1008 1369,1008 1368,1007 1361,1007 1360,1008 1356,1008 1355,1009 1349,1009 1348,1008 1346,1008 1345,1007 1337,1007 1336,1008 1334,1008 1333,1009 1331,1009 1330,1010 1324,1010 1323,1009 1320,1009 1319,1008 1312,1008 1311,1009 1307,1009 1306,1010 1301,1010 1300,1009 1295,1009 1294,1008 1290,1008 1289,1009 1286,1009 1285,1010 1272,1010 1271,1009 1266,1009 1265,1010 1247,1010 1246,1009 1242,1009 1241,1010 1225,1010 1224,1009 1216,1009 1215,1010 1202,1010 1201,1009 1193,1009 1192,1010 1179,1010 1178,1009 1166,1009 1165,1010 1157,1010 1156,1009 1142,1009 1141,1010 1133,1010 1132,1009 1127,1009 1126,1008 1123,1008 1122,1009 1104,1009 1103,1008 1099,1008 1098,1009 1084,1009 1083,1008 1080,1008 1079,1007 1074,1007 1073,1008 1059,1008 1058,1007 1050,1007 1049,1008 1033,1008 1032,1007 1024,1007 1023,1008 1016,1008 1015,1007 1006,1007 1005,1006 1003,1006 1002,1007 983,1007 982,1006 978,1006 977,1005 973,1005 972,1004" fill="rgba(116,99,103,0.3)" stroke="rgb(116,99,103)" stroke-width="2" data-block-id="0005" data-name="b-0006" /><text x="1650" y="1175" text-anchor="middle" dominant-baseline="middle" class="block-label" fill="rgb(116,99,103)" stroke="white" stroke-width="3" paint-order="stroke">b-0006</text><polygon points="1694,536 1693,537 1686,537 1685,538 1665,538 1664,537 1646,537 1645,538 1640,538 1639,539 1626,539 1625,538 1597,538 1596,539 1523,539 1522,538 1514,538 1513,539 1500,539 1499,540 1487,540 1486,541 1481,541 1480,540 1473,540 1472,539 1463,539 1462,540 1418,540 1417,541 1406,541 1405,540 1395,540 1394,541 1380,541 1379,540 1370,540 1369,541 1360,541 1359,540 1340,540 1339,541 1337,541 1336,540 1324,540 1323,541 1316,541 1315,542 1309,542 1308,543 1305,543 1304,544 1291,544 1290,543 1289,543 1288,542 1287,542 1286,541 1285,541 1284,540 1282,540 1281,539 1277,539 1276,540 1271,540 1270,541 1265,541 1264,540 1227,540 1226,541 1214,541 1213,540 1200,540 1199,541 1191,541 1190,540 1184,540 1183,541 1180,541 1179,542 1177,542 1176,543 1175,543 1174,544 1172,544 1171,543 1169,543 1168,542 1165,542 1164,541 1152,541 1151,542 1147,542 1146,541 1132,541 1131,542 1120,542 1119,541 1105,541 1104,542 1095,542 1094,541 1085,541 1084,542 1059,542 1058,541 1051,541 1050,540 1047,540 1046,539 1044,539 1043,538 1033,538 1032,539 1026,539 1025,538 995,538 994,539 973,539 972,538 958,538 957,539 952,539 951,540 942,540 941,541 935,541 934,542 932,542 931,543 929,543 928,544 927,544 926,545 924,545 921,548 921,549 920,550 920,551 919,552 919,556 918,557 918,581 917,582 917,596 918,597 918,608 919,609 919,617 918,618 918,664 919,665 919,679 920,680 920,686 919,687 919,692 918,693 918,740 919,741 919,751 920,752 920,761 919,762 919,792 918,793 918,808 919,809 919,843 918,844 918,854 919,855 919,861 920,862 920,867 919,868 919,872 918,873 918,876 919,877 919,878 920,879 920,880 921,881 921,882 922,883 922,885 927,890 928,890 930,892 931,892 932,893 933,893 934,894 937,894 938,895 942,895 943,896 968,896 969,897 986,897 987,898 1001,898 1002,897 1015,897 1016,898 1019,898 1020,897 1036,897 1037,898 1044,898 1045,897 1050,897 1051,896 1058,896 1059,895 1075,895 1076,896 1082,896 1083,897 1088,897 1089,898 1221,898 1222,899 1238,899 1239,898 1248,898 1249,899 1313,899 1314,900 1315,899 1327,899 1328,898 1329,898 1330,899 1373,899 1374,900 1413,900 1414,899 1426,899 1427,900 1442,900 1443,899 1452,899 1453,900 1463,900 1464,899 1479,899 1480,900 1495,900 1496,899 1504,899 1505,898 1508,898 1509,897 1510,897 1511,896 1511,895 1516,890 1517,890 1518,889 1521,889 1523,891 1524,891 1530,897 1540,897 1541,898 1555,898 1556,897 1574,897 1575,898 1605,898 1606,897 1611,897 1612,896 1613,897 1616,897 1617,898 1619,898 1620,899 1623,899 1624,900 1652,900 1653,899 1656,899 1657,898 1659,898 1660,897 1662,897 1663,898 1665,898 1666,899 1668,899 1669,900 1701,900 1702,899 1712,899 1713,900 1724,900 1725,899 1730,899 1731,898 1734,898 1735,899 1738,899 1739,900 1782,900 1783,901 1859,901 1860,902 1865,902 1866,901 1904,901 1905,900 1925,900 1926,901 1932,901 1933,902 1938,902 1939,901 2012,901 2013,902 2034,902 2035,901 2048,901 2049,900 2093,900 2094,901 2145,901 2146,902 2180,902 2181,901 2187,901 2188,902 2192,902 2193,903 2221,903 2222,902 2235,902 2236,903 2239,903 2240,904 2250,904 2251,905 2258,905 2259,904 2310,904 2311,905 2321,905 2322,904 2329,904 2330,903 2355,903 2356,902 2360,902 2361,901 2363,901 2364,900 2365,900 2367,898 2367,896 2368,895 2368,892 2369,891 2369,889 2370,888 2370,882 2371,881 2371,865 2370,864 2370,832 2371,831 2371,825 2370,824 2370,808 2369,807 2369,788 2370,787 2370,760 2369,759 2369,739 2370,738 2370,729 2371,728 2371,712 2370,711 2370,693 2371,692 2371,684 2372,683 2371,682 2371,666 2370,665 2370,644 2371,643 2371,639 2372,638 2372,616 2373,615 2373,612 2372,611 2372,593 2373,592 2373,573 2372,572 2372,566 2371,565 2371,558 2370,557 2370,553 2369,552 2369,551 2367,549 2367,548 2365,546 2364,546 2362,544 2360,544 2359,543 2357,543 2356,542 2352,542 2351,541 2348,541 2347,542 2334,542 2333,543 2317,543 2316,542 2304,542 2303,541 2279,541 2278,540 2274,540 2273,539 2265,539 2264,540 2260,540 2259,541 2181,541 2180,540 2148,540 2147,539 2138,539 2137,538 2129,538 2128,537 2124,537 2123,538 2118,538 2117,539 2109,539 2108,538 2096,538 2095,539 2054,539 2053,540 2047,540 2046,541 2022,541 2021,542 2019,542 2018,541 2013,541 2012,540 1988,540 1987,539 1980,539 1979,540 1946,540 1945,539 1934,539 1933,538 1932,538 1931,539 1923,539 1922,538 1916,538 1915,537 1905,537 1904,538 1873,538 1872,539 1860,539 1859,538 1850,538 1849,537 1846,537 1845,536 1834,536 1833,537 1827,537 1826,538 1812,538 1811,537 1805,537 1804,536 1787,536 1786,537 1783,537 1782,538 1777,538 1776,537 1770,537 1769,536 1766,536 1765,537 1741,537 1740,538 1732,538 1731,539 1716,539 1715,538 1711,538 1710,537 1704,537 1703,536" fill="rgba(151,130,149,0.3)" stroke="rgb(151,130,149)" stroke-width="2" data-block-id="0006" data-name="b-0007" /><text x="1609" y="697" text-anchor="middle" dominant-baseline="middle" class="block-label" fill="rgb(151,130,149)" stroke="white" stroke-width="3" paint-order="stroke">b-0007</text><polygon points="1946,1479 1945,1480 1940,1480 1939,1481 1927,1481 1926,1482 1921,1482 1920,1483 1918,1483 1917,1484 1915,1484 1913,1486 1912,1486 1911,1487 1908,1487 1907,1488 1877,1488 1876,1489 1853,1489 1852,1488 1823,1488 1822,1487 1815,1487 1814,1486 1813,1487 1795,1487 1794,1486 1776,1486 1775,1487 1762,1487 1761,1486 1747,1486 1746,1485 1742,1485 1741,1486 1724,1486 1723,1485 1715,1485 1714,1484 1618,1484 1617,1483 1595,1483 1594,1484 1524,1484 1523,1485 1504,1485 1503,1484 1501,1484 1500,1483 1497,1483 1496,1482 1491,1482 1490,1483 1483,1483 1482,1484 1452,1484 1451,1485 1429,1485 1428,1484 1398,1484 1397,1485 1383,1485 1382,1484 1377,1484 1376,1483 1374,1483 1373,1484 1367,1484 1366,1485 1362,1485 1361,1484 1358,1484 1357,1483 1351,1483 1350,1482 1349,1483 1337,1483 1336,1484 1322,1484 1321,1485 1296,1485 1295,1486 1287,1486 1286,1485 1278,1485 1277,1486 1271,1486 1270,1487 1242,1487 1241,1486 1237,1486 1236,1485 1207,1485 1206,1484 1143,1484 1142,1483 1130,1483 1129,1484 1122,1484 1121,1483 1081,1483 1080,1484 1074,1484 1073,1483 1059,1483 1058,1484 1051,1484 1050,1483 1044,1483 1043,1482 1040,1482 1039,1483 1010,1483 1009,1484 1004,1484 1003,1483 997,1483 996,1482 992,1482 991,1483 986,1483 985,1484 978,1484 977,1483 963,1483 962,1484 952,1484 951,1485 947,1485 943,1489 943,1490 942,1491 942,1492 941,1493 941,1516 942,1517 942,1521 943,1522 943,1525 944,1526 944,1529 945,1530 945,1534 946,1535 946,1538 947,1539 947,1542 948,1543 948,1546 949,1547 949,1550 950,1551 950,1556 951,1557 951,1561 952,1562 952,1567 953,1568 953,1572 954,1573 954,1577 955,1578 955,1583 956,1584 956,1590 957,1591 957,1597 958,1598 958,1603 959,1604 959,1609 960,1610 960,1615 961,1616 961,1620 962,1621 962,1626 963,1627 963,1635 964,1636 964,1640 965,1641 965,1643 966,1644 966,1648 967,1649 967,1655 968,1656 968,1661 969,1662 969,1665 970,1666 970,1667 971,1668 971,1670 972,1671 972,1673 973,1674 973,1676 974,1677 974,1680 975,1681 975,1701 976,1702 976,1710 977,1711 977,1715 978,1716 978,1720 979,1721 979,1726 980,1727 980,1732 981,1733 981,1740 982,1741 982,1745 983,1746 983,1750 984,1751 984,1754 985,1755 985,1759 986,1760 986,1764 987,1765 987,1770 988,1771 988,1778 989,1779 989,1784 990,1785 990,1789 991,1790 991,1797 992,1798 992,1803 993,1804 993,1806 994,1807 994,1808 995,1809 995,1810 996,1811 996,1812 997,1813 997,1814 998,1815 998,1817 999,1818 999,1829 1000,1830 1000,1831 1001,1832 1001,1833 1003,1835 1003,1836 1005,1838 1006,1838 1007,1839 1020,1839 1021,1840 1032,1840 1033,1841 1065,1841 1066,1842 1096,1842 1097,1841 1106,1841 1107,1842 1136,1842 1137,1843 1139,1843 1140,1842 1152,1842 1153,1843 1165,1843 1166,1842 1199,1842 1200,1843 1216,1843 1217,1842 1222,1842 1223,1843 1253,1843 1254,1844 1274,1844 1275,1845 1286,1845 1287,1844 1301,1844 1302,1845 1312,1845 1313,1846 1341,1846 1342,1847 1349,1847 1350,1848 1351,1847 1355,1847 1356,1846 1359,1846 1360,1845 1371,1845 1372,1846 1386,1846 1387,1847 1396,1847 1397,1848 1402,1848 1403,1849 1416,1849 1417,1848 1422,1848 1423,1847 1425,1847 1426,1846 1429,1846 1430,1845 1435,1845 1436,1844 1467,1844 1468,1845 1487,1845 1488,1844 1495,1844 1496,1843 1497,1844 1513,1844 1514,1845 1527,1845 1528,1846 1539,1846 1540,1847 1543,1847 1544,1846 1550,1846 1551,1845 1560,1845 1561,1846 1568,1846 1569,1845 1587,1845 1588,1846 1615,1846 1616,1845 1622,1845 1623,1844 1629,1844 1630,1845 1655,1845 1656,1846 1668,1846 1669,1845 1675,1845 1676,1846 1685,1846 1686,1847 1689,1847 1690,1846 1696,1846 1697,1847 1715,1847 1716,1846 1742,1846 1743,1845 1746,1845 1747,1846 1778,1846 1779,1847 1783,1847 1784,1846 1797,1846 1798,1847 1812,1847 1813,1846 1818,1846 1819,1847 1828,1847 1829,1848 1830,1848 1831,1847 1843,1847 1844,1848 1861,1848 1862,1847 1863,1848 1871,1848 1872,1849 1895,1849 1896,1850 1900,1850 1901,1849 1904,1849 1905,1848 1907,1848 1908,1847 1910,1847 1911,1846 1941,1846 1942,1847 1950,1847 1951,1846 1970,1846 1971,1847 1974,1847 1975,1846 1985,1846 1986,1847 2000,1847 2001,1846 2013,1846 2014,1847 2026,1847 2027,1846 2033,1846 2034,1847 2062,1847 2063,1848 2099,1848 2100,1847 2126,1847 2127,1846 2160,1846 2161,1847 2178,1847 2179,1846 2193,1846 2194,1845 2207,1845 2208,1846 2219,1846 2220,1847 2244,1847 2245,1846 2335,1846 2336,1845 2348,1845 2349,1846 2350,1846 2351,1845 2357,1845 2358,1844 2361,1844 2365,1840 2365,1838 2366,1837 2366,1834 2367,1833 2367,1781 2368,1780 2368,1764 2367,1763 2367,1750 2368,1749 2368,1704 2367,1703 2367,1697 2368,1696 2368,1641 2369,1640 2369,1632 2368,1631 2368,1610 2367,1609 2367,1597 2368,1596 2368,1582 2369,1581 2369,1576 2368,1575 2368,1568 2367,1567 2367,1561 2368,1560 2368,1543 2369,1542 2369,1514 2368,1513 2368,1501 2367,1500 2367,1496 2366,1495 2366,1493 2365,1492 2364,1492 2363,1491 2361,1491 2360,1490 2343,1490 2342,1491 2340,1491 2339,1490 2331,1490 2330,1489 2316,1489 2315,1490 2285,1490 2284,1489 2270,1489 2269,1490 2188,1490 2187,1489 2178,1489 2177,1490 2147,1490 2146,1489 2139,1489 2138,1488 2133,1488 2132,1487 2127,1487 2126,1486 2123,1486 2122,1485 2120,1485 2119,1484 2116,1484 2115,1483 2085,1483 2084,1482 2044,1482 2043,1481 2033,1481 2032,1480 2028,1480 2027,1481 2011,1481 2010,1482 2004,1482 2003,1481 1993,1481 1992,1482 1991,1482 1989,1484 1988,1484 1986,1486 1985,1486 1984,1487 1981,1487 1978,1484 1977,1484 1976,1483 1975,1483 1974,1482 1973,1482 1972,1481 1956,1481 1955,1480 1949,1480 1948,1479" fill="rgba(52,1,87,0.3)" stroke="rgb(52,1,87)" stroke-width="2" data-block-id="0007" data-name="b-0008" /><text x="1551" y="1661" text-anchor="middle" dominant-baseline="middle" class="block-label" fill="rgb(52,1,87)" stroke="white" stroke-width="3" paint-order="stroke">b-0008</text><polygon points="1231,1947 1230,1948 1226,1948 1225,1949 1211,1949 1210,1948 1207,1948 1206,1949 1201,1949 1200,1950 1194,1950 1193,1949 1189,1949 1188,1948 1181,1948 1180,1949 1175,1949 1174,1950 1171,1950 1170,1949 1165,1949 1164,1948 1157,1948 1156,1949 1142,1949 1141,1948 1134,1948 1133,1949 1130,1949 1129,1950 1125,1950 1124,1951 1123,1950 1118,1950 1117,1949 1110,1949 1109,1950 1095,1950 1094,1949 1086,1949 1085,1950 1082,1950 1081,1951 1070,1951 1069,1950 1062,1950 1061,1951 1056,1951 1055,1952 1042,1952 1041,1953 1038,1953 1037,1954 1034,1954 1033,1955 1031,1955 1030,1956 1029,1956 1028,1957 1028,1958 1026,1960 1026,1971 1027,1972 1027,1984 1028,1985 1028,1991 1029,1992 1029,1996 1030,1997 1030,2000 1031,2001 1031,2005 1032,2006 1032,2010 1033,2011 1033,2019 1034,2020 1034,2026 1035,2027 1035,2033 1036,2034 1036,2042 1037,2043 1037,2048 1038,2049 1038,2052 1039,2053 1039,2058 1040,2059 1040,2068 1041,2069 1041,2072 1042,2073 1042,2075 1043,2076 1043,2078 1044,2079 1044,2082 1045,2083 1045,2091 1046,2092 1046,2100 1047,2101 1047,2114 1048,2115 1048,2120 1049,2121 1049,2123 1050,2124 1050,2126 1051,2127 1051,2137 1050,2138 1050,2142 1051,2143 1051,2148 1052,2149 1052,2155 1053,2156 1053,2160 1054,2161 1054,2165 1055,2166 1055,2171 1056,2172 1056,2178 1057,2179 1057,2187 1058,2188 1058,2193 1059,2194 1059,2199 1060,2200 1060,2206 1061,2207 1061,2212 1062,2213 1062,2217 1063,2218 1063,2222 1064,2223 1064,2226 1065,2227 1065,2230 1066,2231 1066,2233 1067,2234 1067,2246 1068,2247 1068,2251 1069,2252 1069,2256 1070,2257 1070,2262 1071,2263 1071,2267 1072,2268 1072,2271 1073,2272 1073,2277 1074,2278 1074,2283 1075,2284 1075,2288 1076,2289 1076,2293 1077,2294 1077,2296 1078,2297 1078,2298 1079,2299 1079,2300 1080,2301 1080,2302 1081,2303 1081,2305 1085,2309 1087,2309 1088,2310 1092,2310 1093,2311 1121,2311 1122,2310 1127,2310 1128,2311 1135,2311 1136,2312 1216,2312 1217,2311 1224,2311 1225,2312 1238,2312 1239,2311 1287,2311 1288,2312 1296,2312 1297,2311 1331,2311 1332,2312 1358,2312 1359,2311 1370,2311 1371,2312 1378,2312 1379,2311 1403,2311 1404,2310 1408,2310 1409,2309 1416,2309 1417,2310 1431,2310 1432,2309 1439,2309 1440,2310 1450,2310 1451,2309 1472,2309 1473,2310 1502,2310 1503,2309 1534,2309 1535,2310 1568,2310 1569,2311 1577,2311 1578,2312 1587,2312 1588,2311 1611,2311 1612,2312 1637,2312 1638,2311 1646,2311 1647,2310 1664,2310 1665,2311 1681,2311 1682,2312 1687,2312 1688,2311 1696,2311 1697,2310 1699,2310 1700,2311 1749,2311 1750,2312 1773,2312 1774,2311 1782,2311 1783,2312 1788,2312 1789,2313 1809,2313 1810,2312 1819,2312 1820,2313 1834,2313 1835,2312 1883,2312 1884,2311 1895,2311 1896,2312 1927,2312 1928,2311 1946,2311 1947,2312 1977,2312 1978,2311 1987,2311 1988,2312 2017,2312 2018,2313 2112,2313 2113,2314 2221,2314 2222,2313 2226,2313 2227,2312 2230,2312 2231,2311 2235,2311 2236,2312 2242,2312 2243,2313 2280,2313 2281,2312 2340,2312 2341,2311 2353,2311 2354,2310 2355,2310 2356,2309 2357,2309 2358,2308 2358,2307 2359,2306 2359,2304 2360,2303 2360,2296 2361,2295 2361,2289 2362,2288 2362,2278 2361,2277 2361,2263 2362,2262 2362,2257 2361,2256 2361,2244 2362,2243 2362,2236 2363,2235 2362,2234 2362,2228 2361,2227 2361,2221 2362,2220 2362,2197 2363,2196 2363,2191 2364,2190 2364,2187 2363,2186 2363,2182 2362,2181 2362,2170 2363,2169 2363,2157 2362,2156 2362,2151 2363,2150 2363,2145 2364,2144 2364,2135 2363,2134 2363,2124 2364,2123 2364,2100 2365,2099 2365,2089 2364,2088 2364,2085 2363,2084 2363,2074 2364,2073 2364,2051 2365,2050 2365,2041 2364,2040 2364,2008 2365,2007 2365,2002 2366,2001 2366,1991 2365,1990 2365,1973 2364,1972 2364,1968 2363,1967 2363,1963 2362,1962 2362,1961 2360,1959 2359,1959 2357,1957 2356,1957 2355,1956 2354,1956 2353,1955 2340,1955 2339,1954 2338,1954 2337,1955 2313,1955 2312,1954 2285,1954 2284,1955 2259,1955 2258,1954 2243,1954 2242,1955 2238,1955 2237,1956 2235,1956 2234,1957 2231,1957 2230,1956 2229,1956 2228,1955 2225,1955 2224,1954 2197,1954 2196,1955 2188,1955 2187,1956 2184,1956 2183,1955 2178,1955 2177,1954 2167,1954 2166,1955 2099,1955 2098,1956 2092,1956 2091,1957 2090,1957 2089,1956 2085,1956 2084,1955 2071,1955 2070,1956 2062,1956 2061,1955 2057,1955 2056,1954 2011,1954 2010,1955 2001,1955 2000,1954 1987,1954 1986,1955 1978,1955 1977,1954 1967,1954 1966,1955 1913,1955 1912,1954 1907,1954 1906,1953 1843,1953 1842,1954 1838,1954 1837,1953 1807,1953 1806,1952 1801,1952 1800,1953 1782,1953 1781,1954 1765,1954 1764,1953 1747,1953 1746,1954 1741,1954 1740,1953 1725,1953 1724,1954 1716,1954 1715,1953 1706,1953 1705,1954 1686,1954 1685,1953 1683,1953 1682,1954 1670,1954 1669,1953 1655,1953 1654,1954 1642,1954 1641,1953 1632,1953 1631,1954 1622,1954 1621,1953 1613,1953 1612,1952 1611,1953 1578,1953 1577,1952 1570,1952 1569,1951 1562,1951 1561,1952 1557,1952 1556,1953 1551,1953 1550,1952 1514,1952 1513,1953 1510,1953 1509,1954 1504,1954 1503,1953 1501,1953 1500,1952 1498,1952 1497,1951 1487,1951 1486,1952 1480,1952 1479,1951 1475,1951 1474,1950 1464,1950 1463,1951 1443,1951 1442,1952 1429,1952 1428,1951 1420,1951 1419,1952 1415,1952 1414,1953 1409,1953 1408,1952 1406,1952 1405,1951 1403,1951 1402,1950 1390,1950 1389,1951 1385,1951 1384,1950 1366,1950 1365,1951 1361,1951 1360,1950 1346,1950 1345,1951 1334,1951 1333,1950 1322,1950 1321,1951 1306,1951 1305,1950 1303,1950 1302,1951 1286,1951 1285,1950 1273,1950 1272,1951 1264,1951 1263,1950 1259,1950 1258,1949 1240,1949 1239,1948 1234,1948 1233,1947" fill="rgba(235,157,37,0.3)" stroke="rgb(235,157,37)" stroke-width="2" data-block-id="0008" data-name="b-0009" /><text x="1596" y="2098" text-anchor="middle" dominant-baseline="middle" class="block-label" fill="rgb(235,157,37)" stroke="white" stroke-width="3" paint-order="stroke">b-0009</text><polygon points="1200,2422 1199,2423 1184,2423 1183,2424 1154,2424 1153,2425 1137,2425 1136,2426 1132,2426 1131,2427 1129,2427 1128,2428 1127,2428 1126,2429 1126,2430 1125,2431 1125,2432 1124,2433 1124,2435 1123,2436 1123,2437 1122,2438 1122,2442 1121,2443 1121,2453 1122,2454 1122,2457 1123,2458 1123,2462 1124,2463 1124,2467 1125,2468 1125,2471 1126,2472 1126,2475 1127,2476 1127,2477 1129,2479 1129,2480 1130,2481 1130,2482 1131,2483 1131,2484 1132,2485 1132,2487 1133,2488 1133,2494 1134,2495 1134,2498 1135,2499 1135,2501 1136,2502 1136,2505 1137,2506 1137,2510 1138,2511 1138,2513 1139,2514 1139,2518 1140,2519 1140,2523 1141,2524 1141,2526 1142,2527 1142,2528 1143,2529 1143,2531 1144,2532 1144,2535 1145,2536 1145,2544 1146,2545 1146,2548 1147,2549 1147,2551 1148,2552 1148,2553 1149,2554 1149,2555 1150,2556 1150,2557 1151,2558 1151,2570 1152,2571 1152,2572 1153,2573 1153,2576 1154,2577 1154,2581 1155,2582 1155,2595 1156,2596 1156,2597 1157,2598 1157,2599 1158,2600 1158,2601 1160,2603 1160,2604 1161,2605 1161,2610 1162,2611 1162,2631 1163,2632 1163,2635 1164,2636 1164,2639 1165,2640 1165,2643 1166,2644 1166,2648 1167,2649 1167,2653 1168,2654 1168,2658 1169,2659 1169,2663 1170,2664 1170,2669 1171,2670 1171,2672 1172,2673 1172,2674 1173,2675 1173,2687 1174,2688 1174,2690 1176,2692 1177,2692 1179,2694 1180,2694 1181,2695 1182,2695 1184,2697 1184,2698 1185,2699 1185,2701 1186,2702 1186,2706 1187,2707 1187,2712 1188,2713 1188,2715 1189,2716 1189,2717 1190,2718 1190,2720 1191,2721 1191,2724 1192,2725 1192,2727 1193,2728 1193,2730 1194,2731 1194,2733 1195,2734 1195,2736 1196,2737 1196,2740 1197,2741 1197,2744 1198,2745 1198,2748 1199,2749 1199,2752 1200,2753 1200,2756 1201,2757 1201,2761 1202,2762 1202,2765 1203,2766 1203,2769 1204,2770 1204,2772 1205,2773 1205,2774 1209,2778 1210,2778 1212,2780 1213,2780 1215,2782 1216,2782 1217,2783 1218,2783 1219,2784 1221,2784 1222,2785 1225,2785 1226,2786 1237,2786 1238,2785 1241,2785 1242,2784 1249,2784 1250,2785 1264,2785 1265,2784 1267,2784 1268,2785 1273,2785 1274,2786 1288,2786 1289,2785 1295,2785 1296,2786 1311,2786 1312,2785 1318,2785 1319,2786 1334,2786 1335,2785 1349,2785 1350,2786 1354,2786 1355,2785 1366,2785 1367,2786 1402,2786 1403,2785 1406,2785 1407,2784 1408,2784 1409,2783 1413,2783 1414,2784 1415,2784 1416,2785 1419,2785 1420,2786 1434,2786 1435,2785 1448,2785 1449,2784 1452,2784 1453,2783 1455,2783 1456,2782 1461,2782 1462,2783 1465,2783 1466,2784 1469,2784 1470,2785 1473,2785 1474,2784 1483,2784 1484,2783 1493,2783 1494,2782 1506,2782 1507,2783 1510,2783 1511,2784 1513,2784 1514,2785 1517,2785 1518,2786 1542,2786 1543,2785 1558,2785 1559,2786 1566,2786 1567,2787 1568,2786 1574,2786 1575,2785 1596,2785 1597,2784 1605,2784 1606,2785 1632,2785 1633,2786 1640,2786 1641,2785 1647,2785 1648,2784 1653,2784 1654,2785 1662,2785 1663,2786 1665,2786 1666,2787 1669,2787 1670,2788 1673,2788 1674,2789 1686,2789 1687,2788 1691,2788 1692,2787 1753,2787 1754,2788 1757,2788 1758,2787 1764,2787 1765,2786 1772,2786 1773,2787 1818,2787 1819,2788 1834,2788 1835,2787 1884,2787 1885,2788 1902,2788 1903,2787 1908,2787 1909,2786 1914,2786 1915,2787 1918,2787 1919,2788 1921,2788 1922,2789 1934,2789 1935,2788 1941,2788 1942,2787 1946,2787 1947,2786 1950,2786 1951,2785 1953,2785 1954,2784 1957,2784 1958,2783 1962,2783 1963,2784 1987,2784 1988,2783 2015,2783 2016,2784 2034,2784 2035,2783 2046,2783 2047,2784 2050,2784 2051,2785 2054,2785 2055,2786 2058,2786 2059,2787 2062,2787 2063,2788 2070,2788 2071,2787 2076,2787 2077,2786 2109,2786 2110,2785 2115,2785 2116,2786 2135,2786 2136,2785 2138,2785 2139,2786 2146,2786 2147,2787 2178,2787 2179,2786 2183,2786 2184,2785 2189,2785 2190,2786 2223,2786 2224,2787 2248,2787 2249,2786 2260,2786 2261,2787 2306,2787 2307,2788 2312,2788 2313,2789 2322,2789 2323,2788 2332,2788 2333,2787 2347,2787 2348,2788 2351,2788 2352,2787 2355,2787 2356,2786 2358,2786 2359,2785 2360,2785 2363,2782 2363,2778 2364,2777 2364,2772 2365,2771 2365,2766 2366,2765 2366,2754 2365,2753 2365,2734 2364,2733 2364,2719 2365,2718 2365,2713 2366,2712 2366,2699 2365,2698 2365,2693 2364,2692 2364,2686 2363,2685 2363,2680 2362,2679 2362,2676 2363,2675 2363,2671 2364,2670 2364,2657 2363,2656 2363,2634 2362,2633 2362,2628 2363,2627 2363,2622 2364,2621 2364,2610 2363,2609 2363,2598 2364,2597 2364,2592 2363,2591 2363,2564 2362,2563 2362,2539 2361,2538 2361,2532 2362,2531 2362,2528 2363,2527 2363,2516 2362,2515 2362,2505 2363,2504 2363,2501 2364,2500 2364,2495 2363,2494 2363,2490 2362,2489 2362,2484 2363,2483 2363,2480 2364,2479 2364,2468 2363,2467 2363,2455 2364,2454 2364,2447 2363,2446 2363,2441 2362,2440 2362,2438 2361,2437 2361,2436 2359,2434 2359,2433 2357,2431 2357,2430 2354,2427 2353,2427 2352,2426 2346,2426 2345,2427 2336,2427 2335,2426 2331,2426 2330,2425 2303,2425 2302,2426 2287,2426 2286,2425 2267,2425 2266,2426 2264,2426 2263,2427 2260,2427 2259,2428 2233,2428 2232,2429 2220,2429 2219,2428 2216,2428 2215,2427 2192,2427 2191,2426 2187,2426 2186,2425 2179,2425 2178,2424 2170,2424 2169,2425 2163,2425 2162,2426 2156,2426 2155,2427 2146,2427 2145,2426 2142,2426 2141,2425 2110,2425 2109,2426 2098,2426 2097,2425 2060,2425 2059,2426 2050,2426 2049,2425 2011,2425 2010,2426 2004,2426 2003,2425 1988,2425 1987,2426 1976,2426 1975,2425 1967,2425 1966,2426 1957,2426 1956,2425 1952,2425 1951,2424 1948,2424 1947,2423 1943,2423 1942,2424 1929,2424 1928,2423 1915,2423 1914,2424 1909,2424 1908,2423 1883,2423 1882,2424 1858,2424 1857,2423 1847,2423 1846,2424 1841,2424 1840,2425 1838,2425 1837,2424 1833,2424 1832,2423 1820,2423 1819,2424 1814,2424 1813,2423 1806,2423 1805,2422 1799,2422 1798,2423 1787,2423 1786,2422 1775,2422 1774,2423 1761,2423 1760,2422 1752,2422 1751,2423 1735,2423 1734,2422 1732,2422 1731,2423 1696,2423 1695,2424 1684,2424 1683,2425 1674,2425 1673,2424 1669,2424 1668,2423 1665,2423 1664,2422 1629,2422 1628,2423 1623,2423 1622,2422 1603,2422 1602,2423 1598,2423 1597,2422 1588,2422 1587,2423 1522,2423 1521,2422 1514,2422 1513,2423 1465,2423 1464,2424 1460,2424 1459,2425 1456,2425 1455,2426 1453,2426 1452,2427 1451,2427 1450,2428 1449,2428 1448,2429 1447,2429 1446,2430 1444,2430 1443,2431 1441,2431 1440,2432 1438,2432 1437,2433 1436,2433 1435,2432 1434,2432 1428,2426 1427,2426 1426,2425 1425,2425 1424,2424 1414,2424 1413,2425 1390,2425 1389,2426 1386,2426 1385,2425 1378,2425 1377,2424 1373,2424 1372,2425 1365,2425 1364,2426 1361,2426 1360,2425 1345,2425 1344,2426 1336,2426 1335,2425 1320,2425 1319,2426 1288,2426 1287,2425 1282,2425 1281,2424 1274,2424 1273,2425 1260,2425 1259,2424 1256,2424 1255,2425 1250,2425 1249,2426 1247,2426 1246,2427 1236,2427 1235,2426 1231,2426 1230,2427 1226,2427 1225,2428 1220,2428 1219,2427 1218,2427 1216,2425 1215,2425 1214,2424 1213,2424 1212,2423 1211,2423 1210,2422" fill="rgba(129,191,187,0.3)" stroke="rgb(129,191,187)" stroke-width="2" data-block-id="0009" data-name="b-0010" /><text x="1650" y="2600" text-anchor="middle" dominant-baseline="middle" class="block-label" fill="rgb(129,191,187)" stroke="white" stroke-width="3" paint-order="stroke">b-0010</text><polygon points="2582,1011 2581,1012 2575,1012 2574,1013 2572,1013 2571,1014 2570,1014 2569,1015 2567,1015 2566,1016 2565,1016 2564,1017 2562,1017 2561,1018 2560,1018 2555,1023 2555,1024 2554,1025 2554,1026 2552,1028 2552,1030 2551,1031 2551,1043 2552,1044 2552,1047 2553,1048 2553,1051 2554,1052 2554,1063 2553,1064 2553,1068 2554,1069 2554,1083 2553,1084 2553,1093 2554,1094 2554,1107 2553,1108 2553,1130 2552,1131 2552,1159 2553,1160 2553,1192 2554,1193 2554,1241 2555,1242 2555,1247 2554,1248 2554,1260 2553,1261 2553,1273 2552,1274 2552,1285 2553,1286 2553,1295 2554,1296 2554,1348 2553,1349 2553,1354 2554,1355 2554,1362 2555,1363 2555,1365 2556,1366 2556,1367 2558,1369 2558,1370 2559,1370 2561,1372 2563,1372 2564,1373 2566,1373 2567,1374 2571,1374 2572,1375 2574,1375 2575,1374 2587,1374 2588,1375 2591,1375 2592,1376 2624,1376 2625,1375 2638,1375 2639,1376 2645,1376 2646,1375 2649,1375 2650,1374 2653,1374 2654,1373 2660,1373 2661,1374 2667,1374 2668,1373 2669,1373 2670,1372 2671,1372 2672,1371 2674,1371 2675,1370 2678,1370 2679,1369 2682,1369 2683,1370 2723,1370 2724,1369 2729,1369 2730,1370 2740,1370 2741,1371 2751,1371 2752,1372 2757,1372 2758,1373 2764,1373 2765,1372 2766,1372 2767,1371 2769,1371 2770,1370 2771,1370 2772,1369 2774,1369 2775,1368 2776,1369 2779,1369 2780,1370 2782,1370 2783,1371 2787,1371 2788,1372 2798,1372 2799,1373 2803,1373 2804,1374 2810,1374 2811,1375 2812,1374 2818,1374 2819,1373 2826,1373 2827,1374 2835,1374 2836,1375 2847,1375 2848,1376 2854,1376 2855,1377 2863,1377 2864,1376 2871,1376 2872,1377 2877,1377 2878,1378 2887,1378 2888,1377 2916,1377 2917,1378 2946,1378 2947,1379 2961,1379 2962,1378 3019,1378 3020,1379 3030,1379 3031,1378 3038,1378 3039,1379 3099,1379 3100,1378 3104,1378 3105,1377 3112,1377 3113,1378 3206,1378 3207,1377 3213,1377 3214,1376 3216,1376 3217,1377 3224,1377 3225,1378 3272,1378 3273,1379 3315,1379 3316,1380 3338,1380 3339,1381 3356,1381 3357,1380 3411,1380 3412,1379 3423,1379 3424,1380 3440,1380 3441,1379 3447,1379 3448,1378 3457,1378 3458,1379 3465,1379 3466,1380 3492,1380 3493,1379 3508,1379 3509,1380 3535,1380 3536,1379 3557,1379 3558,1380 3697,1380 3698,1381 3724,1381 3725,1382 3727,1382 3728,1381 3734,1381 3735,1380 3767,1380 3768,1381 3781,1381 3782,1380 3790,1380 3791,1381 3796,1381 3797,1382 3831,1382 3832,1381 3852,1381 3853,1382 3867,1382 3868,1381 3893,1381 3894,1382 3909,1382 3910,1383 3923,1383 3924,1382 3936,1382 3937,1383 3950,1383 3951,1382 3985,1382 3986,1383 3996,1383 3997,1384 4003,1384 4004,1383 4008,1383 4009,1382 4013,1382 4014,1381 4094,1381 4095,1380 4096,1381 4112,1381 4113,1380 4149,1380 4150,1381 4159,1381 4160,1380 4193,1380 4194,1379 4196,1379 4197,1378 4198,1378 4199,1377 4200,1377 4203,1374 4203,1362 4204,1361 4204,1359 4205,1358 4205,1356 4206,1355 4206,1349 4205,1348 4205,1346 4204,1345 4204,1343 4203,1342 4203,1325 4202,1324 4202,1322 4201,1321 4201,1318 4200,1317 4200,1315 4201,1314 4201,1311 4202,1310 4202,1308 4203,1307 4203,1299 4202,1298 4202,1296 4201,1295 4201,1286 4202,1285 4202,1278 4201,1277 4201,1274 4200,1273 4200,1270 4199,1269 4199,1267 4200,1266 4200,1262 4201,1261 4201,1259 4202,1258 4202,1255 4201,1254 4201,1252 4200,1251 4200,1248 4199,1247 4199,1242 4200,1241 4200,1238 4201,1237 4201,1233 4202,1232 4202,1231 4201,1230 4201,1224 4200,1223 4200,1219 4201,1218 4201,1214 4202,1213 4202,1211 4203,1210 4203,1205 4202,1204 4202,1200 4201,1199 4201,1180 4200,1179 4200,1168 4201,1167 4201,1158 4200,1157 4200,1154 4199,1153 4199,1145 4200,1144 4200,1141 4201,1140 4201,1135 4200,1134 4200,1130 4199,1129 4199,1122 4200,1121 4200,1118 4201,1117 4201,1113 4202,1112 4201,1111 4201,1108 4200,1107 4200,1101 4199,1100 4200,1099 4200,1081 4199,1080 4199,1077 4200,1076 4200,1072 4201,1071 4201,1069 4202,1068 4202,1067 4203,1066 4203,1063 4202,1062 4202,1058 4201,1057 4201,1051 4200,1050 4200,1045 4199,1044 4199,1041 4198,1040 4198,1036 4197,1035 4197,1031 4196,1030 4196,1029 4193,1026 4192,1026 4191,1025 4150,1025 4149,1024 4143,1024 4142,1023 4134,1023 4133,1024 4111,1024 4110,1023 4106,1023 4105,1024 4055,1024 4054,1023 4033,1023 4032,1024 4018,1024 4017,1025 3999,1025 3998,1026 3991,1026 3990,1027 3961,1027 3960,1026 3956,1026 3955,1025 3947,1025 3946,1026 3912,1026 3911,1025 3893,1025 3892,1026 3866,1026 3865,1025 3844,1025 3843,1026 3828,1026 3827,1027 3814,1027 3813,1026 3795,1026 3794,1025 3770,1025 3769,1024 3765,1024 3764,1023 3742,1023 3741,1024 3734,1024 3733,1023 3661,1023 3660,1022 3639,1022 3638,1023 3624,1023 3623,1024 3614,1024 3613,1023 3602,1023 3601,1022 3593,1022 3592,1023 3580,1023 3579,1022 3572,1022 3571,1021 3568,1021 3567,1022 3553,1022 3552,1023 3541,1023 3540,1022 3533,1022 3532,1023 3517,1023 3516,1022 3503,1022 3502,1021 3497,1021 3496,1022 3484,1022 3483,1021 3469,1021 3468,1022 3460,1022 3459,1023 3452,1023 3451,1022 3450,1022 3448,1020 3447,1020 3444,1017 3443,1017 3442,1016 3432,1016 3431,1017 3417,1017 3416,1018 3409,1018 3408,1019 3392,1019 3391,1020 3383,1020 3382,1021 3344,1021 3343,1020 3340,1020 3339,1019 3338,1019 3337,1018 3336,1018 3334,1016 3333,1016 3332,1015 3322,1015 3321,1016 3318,1016 3317,1017 3308,1017 3307,1018 3297,1018 3296,1017 3291,1017 3290,1016 3285,1016 3284,1017 3281,1017 3280,1018 3275,1018 3274,1019 3272,1019 3271,1018 3241,1018 3240,1019 3219,1019 3218,1020 3216,1020 3215,1019 3201,1019 3200,1020 3195,1020 3194,1021 3187,1021 3186,1020 3181,1020 3180,1019 3178,1019 3177,1020 3170,1020 3169,1021 3146,1021 3145,1022 3144,1021 3134,1021 3133,1020 3116,1020 3115,1021 3101,1021 3100,1020 3078,1020 3077,1021 3073,1021 3072,1022 3068,1022 3067,1023 3058,1023 3057,1022 3055,1022 3054,1021 3051,1021 3050,1020 3046,1020 3045,1021 3043,1021 3042,1022 3041,1022 3040,1023 3038,1023 3037,1024 3036,1024 3035,1023 3033,1023 3032,1022 3031,1022 3030,1021 3027,1021 3026,1020 3000,1020 2999,1019 2980,1019 2979,1018 2978,1018 2977,1019 2972,1019 2971,1020 2968,1020 2967,1021 2957,1021 2956,1020 2944,1020 2943,1019 2936,1019 2935,1020 2925,1020 2924,1021 2916,1021 2915,1020 2912,1020 2911,1019 2908,1019 2907,1018 2903,1018 2902,1019 2899,1019 2898,1020 2896,1020 2895,1021 2891,1021 2890,1020 2873,1020 2872,1021 2868,1021 2867,1020 2860,1020 2859,1019 2843,1019 2842,1018 2827,1018 2826,1019 2819,1019 2818,1018 2814,1018 2813,1017 2781,1017 2780,1018 2777,1018 2776,1019 2772,1019 2771,1018 2767,1018 2766,1017 2732,1017 2731,1018 2712,1018 2711,1017 2695,1017 2694,1016 2674,1016 2673,1015 2670,1015 2669,1014 2664,1014 2663,1015 2640,1015 2639,1016 2629,1016 2628,1015 2622,1015 2621,1014 2601,1014 2600,1013 2591,1013 2590,1012 2583,1012" fill="rgba(14,106,71,0.3)" stroke="rgb(14,106,71)" stroke-width="2" data-block-id="0010" data-name="b-0002" /><text x="3363" y="1176" text-anchor="middle" dominant-baseline="middle" class="block-label" fill="rgb(14,106,71)" stroke="white" stroke-width="3" paint-order="stroke">b-0002</text></g>
</svg>