<?xml version='1.0' encoding='utf-8'?>
<svg xmlns="http://www.w3.org/2000/svg" xmlns:atlas="http://example.com/atlas" width="4980" height="3334" viewBox="0 0 4980 3334">
  
  <metadata>
    <atlas:source>
      <atlas:jp2-path>../media/v1/p14.jp2</atlas:jp2-path>
      <atlas:volume>vol1</atlas:volume>
      <atlas:plate-id>p14</atlas:plate-id>
      <atlas:image-width>4980</atlas:image-width>
      <atlas:image-height>3334</atlas:image-height>
    <atlas:angle>-15.308882878305418</atlas:angle><atlas:scale>1.284786632143079</atlas:scale><atlas:pos-x>3497.0451712734866</atlas:pos-x><atlas:pos-y>2161.1687750157726</atlas:pos-y></atlas:source>
  </metadata>

  
  <image id="background" href="file://../media/v1/p14.jp2" width="4980" height="3334" opacity="0.5" />

  <style>
    .block-label { font-family: sans-serif; font-size: 14px; font-weight: bold; }
  </style>

  
  <g id="blocks">
    <polygon points="2439,574 2438,575 2432,575 2431,576 2417,576 2416,577 2404,577 2403,576 2400,576 2399,575 2388,575 2387,576 2377,576 2376,575 2369,575 2368,576 2361,576 2360,577 2344,577 2343,578 2320,578 2319,579 2306,579 2305,580 2298,580 2297,579 2289,579 2288,578 2284,578 2283,579 2262,579 2261,578 2257,578 2256,577 2248,577 2247,578 2243,578 2242,579 2223,579 2222,580 2207,580 2206,579 2201,579 2200,580 2164,580 2163,579 2153,579 2152,580 2147,580 2146,581 2138,581 2137,580 2131,580 2130,581 2125,581 2124,582 2118,582 2117,581 2113,581 2112,580 2103,580 2102,581 2077,581 2076,582 2071,582 2070,581 2067,581 2066,580 2060,580 2059,579 2058,579 2057,580 2034,580 2033,581 2031,581 2030,582 2027,582 2026,583 2015,583 2014,582 2009,582 2008,581 2001,581 2000,580 1994,580 1993,579 1987,579 1986,580 1983,580 1982,581 1967,581 1966,580 1961,580 1960,579 1956,579 1955,578 1952,578 1951,577 1948,577 1947,576 1937,576 1936,577 1933,577 1932,578 1926,578 1925,577 1920,577 1919,576 1917,576 1916,577 1913,577 1912,578 1910,578 1909,579 1906,579 1905,580 1895,580 1894,581 1888,581 1887,582 1860,582 1859,583 1857,583 1856,582 1849,582 1848,581 1842,581 1841,580 1827,580 1826,579 1822,579 1821,580 1816,580 1815,581 1811,581 1810,582 1807,582 1806,583 1803,583 1802,584 1788,584 1787,583 1765,583 1764,584 1758,584 1757,583 1743,583 1742,582 1723,582 1722,583 1719,583 1718,584 1700,584 1699,583 1687,583 1686,584 1666,584 1665,583 1660,583 1659,582 1656,582 1655,581 1652,581 1651,580 1647,580 1646,579 1641,579 1640,580 1639,580 1638,581 1637,581 1636,582 1634,582 1633,583 1632,583 1631,584 1626,584 1625,585 1611,585 1610,584 1601,584 1600,585 1584,585 1583,584 1576,584 1575,583 1569,583 1568,582 1562,582 1561,581 1548,581 1547,582 1545,582 1544,583 1542,583 1541,584 1539,584 1538,585 1506,585 1505,586 1498,586 1497,587 1490,587 1489,588 1483,588 1482,587 1464,587 1463,588 1461,588 1460,589 1458,589 1457,590 1454,590 1453,591 1440,591 1439,590 1423,590 1422,591 1420,591 1419,592 1415,592 1414,593 1411,593 1410,594 1407,594 1406,595 1396,595 1395,594 1390,594 1389,595 1387,595 1386,596 1383,596 1382,597 1380,597 1379,598 1377,598 1376,599 1374,599 1373,600 1371,600 1370,601 1369,601 1368,600 1366,600 1365,599 1364,599 1363,598 1362,598 1361,597 1360,597 1359,596 1358,596 1357,595 1349,595 1348,596 1343,596 1342,597 1341,597 1339,599 1338,599 1335,602 1335,603 1333,605 1333,606 1331,608 1329,608 1327,606 1327,604 1326,604 1325,603 1324,603 1323,602 1321,602 1321,608 1322,609 1322,611 1323,611 1325,613 1325,616 1324,617 1324,619 1323,620 1323,623 1322,624 1322,632 1323,633 1323,641 1322,642 1322,654 1323,655 1323,659 1324,660 1324,661 1323,662 1323,664 1322,665 1322,667 1321,668 1321,670 1320,671 1320,686 1319,687 1319,690 1318,691 1318,697 1317,698 1317,707 1316,708 1316,713 1317,714 1317,732 1316,733 1316,736 1317,737 1317,754 1316,755 1316,761 1315,762 1315,776 1314,777 1314,813 1315,814 1315,830 1314,831 1314,833 1313,834 1313,838 1312,839 1312,866 1313,867 1313,879 1312,880 1312,887 1311,888 1311,900 1312,901 1312,950 1313,951 1313,952 1318,957 1319,957 1320,958 1332,958 1333,959 1358,959 1359,958 1364,958 1365,957 1377,957 1378,958 1382,958 1383,957 1405,957 1406,956 1415,956 1416,955 1417,955 1418,956 1431,956 1432,957 1439,957 1440,958 1454,958 1455,957 1493,957 1494,958 1519,958 1520,957 1557,957 1558,956 1575,956 1576,957 1593,957 1594,956 1628,956 1629,957 1636,957 1637,956 1685,956 1686,955 1708,955 1709,956 1739,956 1740,955 1744,955 1745,954 1749,954 1750,953 1752,953 1753,954 1759,954 1760,955 1786,955 1787,954 1789,954 1790,953 1792,953 1793,952 1795,952 1796,951 1801,951 1802,952 1805,952 1806,953 1819,953 1820,952 1861,952 1862,953 1874,953 1875,952 1917,952 1918,951 1923,951 1924,950 1928,950 1929,949 1931,949 1932,950 1937,950 1938,951 1953,951 1954,950 1963,950 1964,949 1978,949 1979,948 1982,948 1983,947 1988,947 1989,946 1997,946 1998,945 2043,945 2044,944 2063,944 2064,943 2083,943 2084,942 2101,942 2102,943 2105,943 2106,944 2111,944 2112,943 2114,943 2115,942 2117,942 2118,941 2123,941 2124,942 2125,942 2126,943 2128,943 2129,944 2132,944 2133,945 2137,945 2138,944 2157,944 2158,943 2170,943 2171,944 2183,944 2184,943 2187,943 2188,942 2191,942 2192,941 2197,941 2198,940 2219,940 2220,941 2248,941 2249,940 2285,940 2286,941 2315,941 2316,942 2330,942 2331,941 2363,941 2364,940 2395,940 2396,939 2502,939 2503,938 2504,938 2505,937 2506,937 2508,935 2508,934 2511,931 2511,930 2512,929 2512,928 2513,927 2513,926 2514,925 2514,919 2513,918 2513,911 2514,910 2514,907 2515,906 2515,901 2516,900 2516,899 2515,898 2515,886 2516,885 2516,877 2517,876 2517,872 2516,871 2516,837 2517,836 2517,795 2518,794 2518,789 2519,788 2519,784 2520,783 2520,767 2519,766 2519,762 2518,761 2518,752 2519,751 2519,743 2520,742 2520,726 2521,725 2521,720 2520,719 2520,715 2519,714 2519,705 2520,704 2520,688 2521,687 2521,672 2520,671 2520,669 2519,668 2519,665 2518,664 2518,657 2519,656 2519,651 2520,650 2520,645 2521,644 2521,632 2522,631 2522,625 2521,624 2521,619 2520,618 2520,601 2519,600 2519,599 2518,598 2518,596 2517,595 2517,594 2516,593 2516,592 2515,591 2515,590 2506,581 2505,581 2504,580 2498,580 2497,579 2487,579 2486,578 2482,578 2481,577 2472,577 2471,578 2467,578 2466,577 2461,577 2460,576 2457,576 2456,575 2450,575 2449,574" fill="rgba(74,202,87,0.3)" stroke="rgb(74,202,87)" stroke-width="2" data-block-id="0001" data-name="b-0005" /><text x="1885" y="717" text-anchor="middle" dominant-baseline="middle" class="block-label" fill="rgb(74,202,87)" stroke="white" stroke-width="3" paint-order="stroke">b-0005</text><polygon points="2497,1048 2496,1049 2468,1049 2467,1050 2450,1050 2449,1049 2434,1049 2433,1050 2426,1050 2425,1049 2391,1049 2390,1050 2385,1050 2384,1051 2362,1051 2361,1050 2357,1050 2356,1051 2339,1051 2338,1052 2326,1052 2325,1051 2296,1051 2295,1052 2289,1052 2288,1053 2266,1053 2265,1052 2264,1053 2251,1053 2250,1054 2235,1054 2234,1053 2205,1053 2204,1054 2189,1054 2188,1055 2186,1055 2185,1056 2184,1056 2183,1057 2182,1057 2181,1058 2179,1058 2177,1056 2176,1056 2175,1055 2173,1055 2172,1054 2169,1054 2168,1053 2164,1053 2163,1054 2144,1054 2143,1055 2127,1055 2126,1054 2109,1054 2108,1055 2101,1055 2100,1056 2092,1056 2091,1057 2083,1057 2082,1056 2076,1056 2075,1055 2070,1055 2069,1056 2063,1056 2062,1057 2044,1057 2043,1056 2029,1056 2028,1055 2023,1055 2022,1056 2014,1056 2013,1057 1999,1057 1998,1058 1961,1058 1960,1059 1955,1059 1954,1060 1941,1060 1940,1059 1934,1059 1933,1058 1926,1058 1925,1059 1922,1059 1921,1060 1911,1060 1910,1059 1887,1059 1886,1060 1850,1060 1849,1061 1836,1061 1835,1060 1834,1060 1833,1061 1807,1061 1806,1062 1803,1062 1802,1063 1790,1063 1789,1062 1779,1062 1778,1063 1747,1063 1746,1062 1730,1062 1729,1063 1711,1063 1710,1064 1703,1064 1702,1065 1659,1065 1658,1066 1636,1066 1635,1067 1629,1067 1628,1066 1619,1066 1618,1065 1614,1065 1613,1066 1567,1066 1566,1067 1560,1067 1559,1068 1535,1068 1534,1067 1528,1067 1527,1066 1520,1066 1519,1067 1482,1067 1481,1066 1466,1066 1465,1067 1451,1067 1450,1068 1435,1068 1434,1067 1421,1067 1420,1068 1410,1068 1409,1069 1384,1069 1383,1070 1375,1070 1374,1071 1361,1071 1360,1070 1335,1070 1334,1069 1332,1069 1331,1070 1323,1070 1322,1071 1318,1071 1317,1072 1315,1072 1314,1073 1313,1073 1310,1076 1310,1077 1308,1079 1308,1096 1307,1097 1307,1101 1306,1102 1306,1120 1305,1121 1305,1129 1304,1130 1304,1139 1305,1140 1305,1150 1306,1151 1306,1153 1305,1154 1305,1161 1304,1162 1304,1179 1303,1180 1303,1191 1304,1192 1304,1215 1303,1216 1303,1225 1302,1226 1302,1230 1301,1231 1301,1239 1302,1240 1302,1243 1303,1244 1303,1265 1302,1266 1302,1287 1303,1288 1303,1344 1302,1345 1302,1357 1301,1358 1301,1366 1300,1367 1300,1376 1299,1377 1299,1383 1300,1384 1300,1417 1299,1418 1299,1424 1298,1425 1299,1426 1299,1428 1300,1429 1300,1430 1303,1433 1304,1433 1306,1435 1308,1435 1309,1436 1313,1436 1314,1437 1318,1437 1319,1438 1327,1438 1328,1439 1335,1439 1336,1438 1341,1438 1342,1437 1347,1437 1348,1438 1358,1438 1359,1437 1361,1437 1362,1436 1368,1436 1369,1435 1370,1435 1371,1436 1394,1436 1395,1435 1410,1435 1411,1434 1420,1434 1421,1435 1428,1435 1429,1436 1434,1436 1435,1437 1437,1437 1438,1438 1460,1438 1461,1437 1468,1437 1469,1436 1494,1436 1495,1437 1512,1437 1513,1436 1517,1436 1518,1435 1522,1435 1523,1434 1525,1434 1526,1435 1547,1435 1548,1434 1582,1434 1583,1435 1590,1435 1591,1434 1610,1434 1611,1433 1617,1433 1618,1432 1622,1432 1623,1433 1645,1433 1646,1432 1652,1432 1653,1431 1657,1431 1658,1432 1675,1432 1676,1431 1685,1431 1686,1432 1689,1432 1690,1431 1694,1431 1695,1430 1696,1430 1697,1429 1699,1429 1700,1428 1708,1428 1709,1429 1744,1429 1745,1428 1755,1428 1756,1429 1760,1429 1761,1430 1774,1430 1775,1429 1778,1429 1779,1428 1782,1428 1783,1427 1786,1427 1787,1426 1790,1426 1791,1425 1804,1425 1805,1426 1814,1426 1815,1425 1820,1425 1821,1424 1825,1424 1826,1425 1851,1425 1852,1426 1858,1426 1859,1427 1860,1427 1861,1426 1876,1426 1877,1425 1881,1425 1882,1424 1884,1424 1885,1423 1888,1423 1889,1422 1928,1422 1929,1421 1949,1421 1950,1422 1957,1422 1958,1421 1965,1421 1966,1420 1979,1420 1980,1419 1982,1419 1983,1418 1987,1418 1988,1417 1994,1417 1995,1418 2027,1418 2028,1417 2032,1417 2033,1416 2043,1416 2044,1417 2050,1417 2051,1418 2074,1418 2075,1417 2080,1417 2081,1416 2098,1416 2099,1415 2104,1415 2105,1414 2124,1414 2125,1413 2149,1413 2150,1412 2170,1412 2171,1411 2187,1411 2188,1412 2196,1412 2197,1411 2204,1411 2205,1410 2220,1410 2221,1409 2225,1409 2226,1408 2230,1408 2231,1409 2238,1409 2239,1410 2241,1410 2242,1409 2263,1409 2264,1408 2276,1408 2277,1409 2331,1409 2332,1410 2338,1410 2339,1409 2345,1409 2346,1408 2355,1408 2356,1407 2409,1407 2410,1406 2433,1406 2434,1407 2452,1407 2453,1408 2480,1408 2481,1407 2490,1407 2491,1406 2495,1406 2496,1405 2498,1405 2499,1404 2501,1404 2505,1400 2505,1399 2506,1398 2506,1396 2507,1395 2507,1376 2508,1375 2508,1358 2507,1357 2507,1353 2508,1352 2508,1326 2509,1325 2509,1281 2510,1280 2510,1236 2511,1235 2511,1208 2512,1207 2512,1167 2513,1166 2513,1160 2512,1159 2512,1145 2513,1144 2513,1132 2512,1131 2512,1128 2513,1127 2513,1118 2514,1117 2514,1113 2513,1112 2513,1091 2512,1090 2512,1075 2513,1074 2513,1058 2512,1057 2512,1054 2511,1053 2511,1052 2509,1050 2508,1050 2507,1049 2504,1049 2503,1048" fill="rgba(116,99,103,0.3)" stroke="rgb(116,99,103)" stroke-width="2" data-block-id="0002" data-name="b-0006" /><text x="1868" y="1250" text-anchor="middle" dominant-baseline="middle" class="block-label" fill="rgb(116,99,103)" stroke="white" stroke-width="3" paint-order="stroke">b-0006</text><polygon points="2322,1520 2321,1521 2316,1521 2315,1522 2297,1522 2296,1523 2285,1523 2284,1524 2272,1524 2271,1523 2261,1523 2260,1522 2253,1522 2252,1523 2249,1523 2248,1524 2245,1524 2244,1525 2240,1525 2239,1526 2176,1526 2175,1527 2161,1527 2160,1528 2157,1528 2156,1527 2125,1527 2124,1526 2112,1526 2111,1527 2103,1527 2102,1528 2098,1528 2097,1529 2088,1529 2087,1530 2056,1530 2055,1529 2034,1529 2033,1528 2028,1528 2027,1527 2018,1527 2017,1528 2009,1528 2008,1529 2003,1529 2002,1530 1959,1530 1958,1531 1946,1531 1945,1532 1930,1532 1929,1533 1912,1533 1911,1532 1902,1532 1901,1533 1876,1533 1875,1534 1864,1534 1863,1535 1845,1535 1844,1536 1818,1536 1817,1537 1814,1537 1813,1538 1807,1538 1806,1537 1804,1537 1803,1536 1800,1536 1799,1535 1779,1535 1778,1536 1771,1536 1770,1537 1765,1537 1764,1538 1747,1538 1746,1539 1742,1539 1741,1540 1731,1540 1730,1539 1711,1539 1710,1538 1703,1538 1702,1539 1700,1539 1699,1540 1698,1540 1697,1541 1696,1541 1695,1542 1694,1542 1693,1543 1688,1543 1687,1542 1685,1542 1684,1541 1681,1541 1680,1540 1675,1540 1674,1541 1652,1541 1651,1542 1635,1542 1634,1541 1627,1541 1626,1542 1623,1542 1622,1543 1615,1543 1614,1544 1603,1544 1602,1545 1599,1545 1598,1546 1592,1546 1591,1545 1589,1545 1588,1544 1578,1544 1577,1545 1574,1545 1573,1546 1557,1546 1556,1547 1550,1547 1549,1548 1546,1548 1545,1547 1539,1547 1538,1546 1530,1546 1529,1547 1510,1547 1509,1548 1501,1548 1500,1549 1497,1549 1496,1548 1486,1548 1485,1549 1482,1549 1481,1550 1475,1550 1474,1551 1468,1551 1467,1550 1459,1550 1458,1549 1422,1549 1421,1550 1371,1550 1370,1551 1359,1551 1358,1552 1355,1552 1354,1551 1331,1551 1330,1552 1316,1552 1315,1553 1309,1553 1308,1554 1306,1554 1305,1555 1304,1555 1303,1556 1302,1556 1299,1559 1299,1590 1298,1591 1298,1601 1299,1602 1299,1614 1298,1615 1298,1639 1297,1640 1297,1642 1298,1643 1298,1671 1299,1672 1299,1685 1298,1686 1298,1700 1297,1701 1297,1711 1296,1712 1296,1715 1297,1716 1297,1730 1296,1731 1296,1743 1297,1744 1297,1763 1298,1764 1298,1768 1299,1769 1299,1776 1298,1777 1298,1783 1297,1784 1297,1791 1298,1792 1298,1796 1297,1797 1297,1803 1296,1804 1296,1818 1297,1819 1297,1822 1296,1823 1296,1830 1295,1831 1295,1835 1296,1836 1296,1846 1295,1847 1295,1851 1294,1852 1294,1860 1295,1861 1295,1864 1296,1865 1296,1873 1295,1874 1295,1879 1294,1880 1294,1882 1295,1883 1295,1901 1294,1902 1294,1903 1295,1904 1295,1906 1298,1909 1299,1909 1300,1910 1302,1910 1303,1911 1304,1911 1305,1912 1337,1912 1338,1911 1360,1911 1361,1910 1369,1910 1370,1909 1384,1909 1385,1908 1418,1908 1419,1907 1423,1907 1424,1906 1427,1906 1428,1905 1429,1905 1430,1906 1467,1906 1468,1905 1471,1905 1472,1904 1477,1904 1478,1905 1479,1905 1480,1906 1483,1906 1484,1907 1506,1907 1507,1906 1515,1906 1516,1905 1537,1905 1538,1904 1548,1904 1549,1903 1556,1903 1557,1902 1562,1902 1563,1901 1567,1901 1568,1900 1573,1900 1574,1901 1575,1901 1576,1902 1578,1902 1579,1903 1583,1903 1584,1904 1585,1904 1586,1903 1598,1903 1599,1902 1603,1902 1604,1901 1639,1901 1640,1902 1644,1902 1645,1901 1673,1901 1674,1900 1681,1900 1682,1899 1702,1899 1703,1900 1742,1900 1743,1899 1756,1899 1757,1900 1788,1900 1789,1899 1791,1899 1792,1898 1796,1898 1797,1897 1803,1897 1804,1896 1812,1896 1813,1897 1817,1897 1818,1898 1826,1898 1827,1899 1835,1899 1836,1898 1841,1898 1842,1897 1851,1897 1852,1896 1883,1896 1884,1895 1894,1895 1895,1894 1896,1895 1909,1895 1910,1896 1914,1896 1915,1897 1918,1897 1919,1898 1920,1898 1921,1897 1932,1897 1933,1896 1936,1896 1937,1895 1949,1895 1950,1896 1954,1896 1955,1895 1958,1895 1959,1894 1967,1894 1968,1893 2029,1893 2030,1892 2035,1892 2036,1891 2039,1891 2040,1892 2052,1892 2053,1893 2067,1893 2068,1892 2075,1892 2076,1891 2078,1891 2079,1890 2083,1890 2084,1889 2090,1889 2091,1890 2097,1890 2098,1889 2103,1889 2104,1888 2121,1888 2122,1889 2123,1888 2138,1888 2139,1889 2196,1889 2197,1888 2202,1888 2203,1887 2219,1887 2220,1888 2227,1888 2228,1889 2234,1889 2235,1890 2240,1890 2241,1889 2243,1889 2244,1888 2245,1888 2246,1887 2248,1887 2249,1886 2283,1886 2284,1887 2289,1887 2290,1886 2297,1886 2298,1885 2316,1885 2317,1884 2344,1884 2345,1883 2366,1883 2367,1882 2384,1882 2385,1881 2386,1881 2387,1880 2389,1880 2390,1879 2391,1879 2392,1878 2394,1878 2395,1877 2414,1877 2415,1876 2426,1876 2427,1877 2430,1877 2431,1876 2434,1876 2435,1875 2438,1875 2439,1874 2441,1874 2442,1873 2452,1873 2453,1872 2469,1872 2470,1873 2480,1873 2481,1872 2482,1872 2484,1870 2485,1870 2488,1867 2488,1859 2489,1858 2488,1857 2488,1853 2487,1852 2487,1850 2486,1849 2486,1848 2485,1847 2485,1841 2486,1840 2486,1839 2487,1838 2487,1835 2488,1834 2488,1831 2489,1830 2489,1826 2490,1825 2490,1801 2489,1800 2489,1794 2488,1793 2488,1790 2487,1789 2487,1786 2488,1785 2488,1784 2494,1778 2494,1777 2495,1776 2495,1775 2496,1774 2496,1771 2495,1770 2495,1769 2494,1768 2494,1767 2491,1764 2491,1763 2488,1760 2488,1758 2487,1757 2487,1755 2486,1754 2486,1752 2485,1751 2485,1742 2486,1741 2486,1737 2487,1736 2487,1735 2493,1729 2493,1728 2494,1727 2494,1723 2493,1722 2493,1721 2492,1720 2492,1719 2489,1716 2489,1715 2488,1714 2488,1713 2487,1712 2487,1711 2486,1710 2486,1709 2485,1708 2485,1707 2484,1706 2484,1705 2483,1704 2483,1703 2482,1702 2482,1699 2483,1698 2483,1696 2484,1695 2484,1693 2485,1692 2485,1669 2486,1668 2486,1666 2485,1665 2485,1661 2484,1660 2484,1658 2483,1657 2483,1651 2484,1650 2484,1647 2485,1646 2485,1640 2484,1639 2484,1638 2483,1637 2483,1636 2480,1633 2476,1633 2475,1634 2474,1634 2473,1635 2471,1635 2470,1636 2454,1636 2452,1638 2452,1642 2454,1644 2455,1644 2457,1646 2458,1646 2460,1648 2461,1648 2464,1651 2464,1652 2465,1653 2465,1662 2464,1663 2464,1666 2463,1667 2463,1669 2462,1670 2462,1671 2461,1672 2461,1673 2460,1674 2460,1675 2458,1677 2457,1677 2456,1678 2451,1678 2450,1679 2445,1679 2442,1676 2442,1675 2441,1674 2441,1671 2440,1670 2440,1667 2439,1666 2439,1650 2440,1649 2440,1643 2441,1642 2441,1627 2440,1626 2440,1622 2439,1621 2439,1613 2438,1612 2438,1597 2439,1596 2439,1592 2438,1591 2438,1586 2437,1585 2437,1580 2438,1579 2438,1577 2439,1576 2439,1574 2440,1573 2440,1570 2441,1569 2441,1554 2442,1553 2442,1547 2443,1546 2443,1535 2442,1534 2442,1533 2433,1524 2429,1524 2428,1525 2427,1525 2426,1526 2425,1526 2424,1527 2423,1527 2422,1528 2407,1528 2406,1527 2395,1527 2394,1526 2392,1526 2391,1525 2390,1525 2389,1524 2388,1524 2387,1523 2385,1523 2384,1522 2382,1522 2381,1523 2379,1523 2378,1524 2376,1524 2375,1525 2374,1525 2373,1526 2368,1526 2367,1525 2366,1525 2365,1524 2363,1524 2362,1523 2354,1523 2353,1522 2347,1522 2346,1521 2342,1521 2341,1520" fill="rgba(151,130,149,0.3)" stroke="rgb(151,130,149)" stroke-width="2" data-block-id="0003" data-name="b-0007" /><text x="1990" y="1713" text-anchor="middle" dominant-baseline="middle" class="block-label" fill="rgb(151,130,149)" stroke="white" stroke-width="3" paint-order="stroke">b-0007</text><polygon points="2416,1968 2415,1969 2409,1969 2408,1970 2394,1970 2393,1971 2375,1971 2374,1972 2368,1972 2367,1973 2364,1973 2363,1974 2361,1974 2360,1975 2345,1975 2344,1976 2343,1976 2342,1977 2340,1977 2339,1978 2337,1978 2336,1979 2310,1979 2309,1978 2307,1978 2306,1977 2300,1977 2299,1976 2293,1976 2292,1975 2257,1975 2256,1974 2249,1974 2248,1975 2243,1975 2242,1976 2235,1976 2234,1975 2225,1975 2224,1976 2221,1976 2220,1977 2207,1977 2206,1976 2203,1976 2202,1977 2194,1977 2193,1978 2167,1978 2166,1977 2164,1977 2163,1976 2161,1976 2160,1975 2153,1975 2152,1976 2150,1976 2149,1977 2145,1977 2144,1978 2130,1978 2129,1979 2121,1979 2120,1980 2089,1980 2088,1981 2072,1981 2071,1980 2068,1980 2067,1979 2066,1979 2065,1978 2064,1978 2063,1977 2057,1977 2056,1978 2053,1978 2052,1979 2046,1979 2045,1980 2018,1980 2017,1981 2010,1981 2009,1982 1999,1982 1998,1983 1993,1983 1992,1984 1971,1984 1970,1983 1964,1983 1963,1982 1957,1982 1956,1981 1946,1981 1945,1982 1913,1982 1912,1983 1898,1983 1897,1984 1889,1984 1888,1985 1882,1985 1881,1986 1879,1986 1878,1985 1869,1985 1868,1986 1866,1986 1865,1987 1863,1987 1862,1988 1861,1988 1860,1989 1858,1989 1857,1990 1855,1990 1854,1989 1844,1989 1843,1990 1842,1990 1841,1991 1839,1991 1838,1992 1828,1992 1827,1991 1821,1991 1820,1990 1802,1990 1801,1989 1794,1989 1793,1990 1783,1990 1782,1989 1781,1989 1780,1988 1779,1988 1778,1987 1777,1987 1776,1986 1771,1986 1770,1987 1769,1987 1768,1988 1766,1988 1765,1989 1764,1989 1763,1990 1759,1990 1758,1991 1755,1991 1754,1992 1753,1992 1752,1993 1748,1993 1747,1992 1745,1992 1744,1991 1741,1991 1740,1990 1736,1990 1735,1989 1734,1989 1733,1988 1731,1988 1730,1987 1729,1987 1728,1986 1724,1986 1722,1988 1721,1988 1720,1989 1719,1989 1718,1990 1717,1990 1716,1991 1714,1991 1713,1992 1696,1992 1695,1993 1688,1993 1687,1992 1684,1992 1683,1991 1681,1991 1680,1990 1675,1990 1674,1991 1671,1991 1670,1992 1660,1992 1659,1991 1654,1991 1653,1992 1652,1992 1650,1994 1649,1994 1648,1995 1647,1995 1646,1996 1645,1996 1644,1997 1624,1997 1623,1998 1613,1998 1612,1999 1604,1999 1603,1998 1599,1998 1598,1997 1574,1997 1573,1996 1572,1996 1571,1997 1568,1997 1567,1998 1566,1998 1565,1999 1564,1999 1561,2002 1559,2002 1558,2003 1557,2002 1556,2002 1555,2001 1554,2001 1553,2000 1551,2000 1550,1999 1540,1999 1539,2000 1533,2000 1532,1999 1528,1999 1527,1998 1519,1998 1518,1999 1514,1999 1513,2000 1511,2000 1510,1999 1508,1999 1507,1998 1506,1998 1505,1997 1504,1997 1503,1996 1501,1996 1500,1995 1492,1995 1491,1996 1486,1996 1485,1997 1483,1997 1482,1998 1480,1998 1479,1999 1474,1999 1473,2000 1470,2000 1469,2001 1460,2001 1459,2000 1457,2000 1456,1999 1453,1999 1452,1998 1434,1998 1433,1999 1429,1999 1428,2000 1425,2000 1424,2001 1420,2001 1419,2002 1409,2002 1408,2001 1400,2001 1399,2000 1391,2000 1390,2001 1388,2001 1387,2002 1385,2002 1384,2003 1382,2003 1381,2004 1376,2004 1375,2005 1360,2005 1359,2004 1353,2004 1352,2005 1318,2005 1317,2006 1308,2006 1307,2007 1304,2007 1303,2008 1300,2008 1299,2009 1297,2009 1294,2012 1294,2013 1293,2014 1293,2016 1292,2017 1292,2020 1291,2021 1291,2137 1290,2138 1290,2146 1291,2147 1291,2187 1290,2188 1290,2192 1291,2193 1291,2213 1290,2214 1290,2233 1289,2234 1289,2242 1290,2243 1290,2265 1289,2266 1289,2281 1288,2282 1288,2286 1289,2287 1289,2289 1290,2290 1290,2291 1291,2292 1291,2293 1294,2296 1294,2297 1295,2297 1296,2298 1313,2298 1314,2299 1328,2299 1329,2298 1332,2298 1333,2299 1340,2299 1341,2300 1382,2300 1383,2301 1396,2301 1397,2300 1401,2300 1402,2299 1405,2299 1406,2298 1412,2298 1413,2297 1419,2297 1420,2298 1428,2298 1429,2299 1431,2299 1432,2300 1434,2300 1435,2301 1459,2301 1460,2300 1466,2300 1467,2301 1471,2301 1472,2302 1491,2302 1492,2303 1501,2303 1502,2302 1515,2302 1516,2301 1523,2301 1524,2302 1526,2302 1527,2303 1528,2303 1529,2304 1531,2304 1532,2305 1538,2305 1539,2304 1541,2304 1542,2303 1545,2303 1546,2302 1574,2302 1575,2303 1587,2303 1588,2302 1599,2302 1600,2303 1602,2303 1603,2304 1626,2304 1627,2305 1631,2305 1632,2304 1635,2304 1636,2303 1639,2303 1640,2302 1646,2302 1647,2303 1651,2303 1652,2304 1657,2304 1658,2305 1660,2305 1661,2306 1663,2306 1664,2307 1665,2307 1666,2308 1667,2308 1668,2309 1691,2309 1692,2308 1696,2308 1697,2307 1705,2307 1706,2308 1708,2308 1709,2309 1711,2309 1712,2310 1717,2310 1718,2309 1721,2309 1722,2308 1734,2308 1735,2309 1755,2309 1756,2310 1761,2310 1762,2311 1774,2311 1775,2310 1780,2310 1781,2309 1792,2309 1793,2310 1798,2310 1799,2311 1803,2311 1804,2312 1808,2312 1809,2313 1826,2313 1827,2312 1838,2312 1839,2313 1846,2313 1847,2314 1855,2314 1856,2315 1930,2315 1931,2316 1939,2316 1940,2317 1961,2317 1962,2316 1973,2316 1974,2315 1981,2315 1982,2316 2004,2316 2005,2317 2010,2317 2011,2318 2026,2318 2027,2319 2035,2319 2036,2320 2070,2320 2071,2319 2099,2319 2100,2320 2107,2320 2108,2321 2122,2321 2123,2322 2129,2322 2130,2323 2137,2323 2138,2324 2168,2324 2169,2323 2183,2323 2184,2324 2220,2324 2221,2325 2228,2325 2229,2326 2247,2326 2248,2325 2293,2325 2294,2326 2313,2326 2314,2327 2320,2327 2321,2328 2331,2328 2332,2329 2335,2329 2336,2328 2340,2328 2341,2327 2344,2327 2345,2326 2359,2326 2360,2327 2382,2327 2383,2328 2391,2328 2392,2327 2425,2327 2426,2328 2436,2328 2437,2327 2446,2327 2447,2328 2451,2328 2452,2329 2460,2329 2461,2328 2470,2328 2471,2327 2479,2327 2480,2326 2481,2326 2482,2325 2483,2325 2485,2323 2485,2322 2486,2321 2486,2320 2487,2319 2487,2317 2488,2316 2488,2315 2489,2314 2489,2312 2490,2311 2490,2294 2491,2293 2491,2290 2492,2289 2492,2282 2491,2281 2491,2278 2490,2277 2490,2270 2491,2269 2491,2265 2492,2264 2492,2257 2491,2256 2491,2243 2492,2242 2492,2236 2491,2235 2491,2231 2490,2230 2490,2222 2491,2221 2491,2216 2492,2215 2492,2205 2493,2204 2493,2200 2492,2199 2492,2192 2491,2191 2491,2185 2490,2184 2490,2172 2491,2171 2491,2163 2492,2162 2492,2156 2493,2155 2493,2146 2494,2145 2494,2138 2493,2137 2493,2115 2494,2114 2494,2111 2495,2110 2495,2108 2496,2107 2496,2091 2497,2090 2497,2079 2496,2078 2496,2074 2495,2073 2495,2068 2496,2067 2496,2063 2497,2062 2497,2060 2498,2059 2498,2044 2499,2043 2499,2040 2500,2039 2500,2037 2501,2036 2501,2032 2500,2031 2500,2026 2499,2025 2499,2020 2500,2019 2500,2008 2499,2007 2499,2005 2498,2004 2498,1992 2499,1991 2499,1986 2498,1985 2498,1984 2497,1983 2497,1981 2496,1980 2496,1977 2495,1976 2495,1975 2494,1974 2494,1973 2492,1971 2491,1971 2490,1970 2471,1970 2470,1969 2433,1969 2432,1968" fill="rgba(52,1,87,0.3)" stroke="rgb(52,1,87)" stroke-width="2" data-block-id="0004" data-name="b-0008" /><text x="1900" y="2124" text-anchor="middle" dominant-baseline="middle" class="block-label" fill="rgb(52,1,87)" stroke="white" stroke-width="3" paint-order="stroke">b-0008</text><polygon points="3586,1504 3585,1505 3538,1505 3537,1506 3466,1506 3465,1507 3413,1507 3412,1508 3406,1508 3405,1507 3390,1507 3389,1508 3380,1508 3379,1507 3375,1507 3374,1506 3360,1506 3359,1507 3323,1507 3322,1508 3315,1508 3314,1509 3309,1509 3308,1508 3289,1508 3288,1507 3281,1507 3280,1506 3273,1506 3272,1507 3255,1507 3254,1506 3253,1507 3235,1507 3234,1506 3227,1506 3226,1507 3222,1507 3221,1508 3218,1508 3217,1509 3215,1509 3214,1508 3209,1508 3208,1507 3177,1507 3176,1508 3149,1508 3148,1509 3144,1509 3143,1508 3137,1508 3136,1507 3117,1507 3116,1508 3068,1508 3067,1509 3049,1509 3048,1508 3047,1509 3035,1509 3034,1510 3030,1510 3029,1511 3023,1511 3022,1510 3017,1510 3016,1509 2964,1509 2963,1510 2958,1510 2957,1511 2949,1511 2948,1510 2914,1510 2913,1511 2896,1511 2895,1510 2889,1510 2888,1509 2868,1509 2867,1510 2863,1510 2862,1511 2840,1511 2839,1510 2819,1510 2818,1511 2814,1511 2813,1512 2799,1512 2798,1511 2780,1511 2779,1512 2769,1512 2768,1513 2755,1513 2754,1512 2746,1512 2745,1511 2741,1511 2740,1510 2737,1510 2736,1511 2711,1511 2710,1512 2705,1512 2704,1513 2700,1513 2699,1512 2684,1512 2683,1513 2674,1513 2673,1514 2663,1514 2662,1513 2659,1513 2658,1512 2647,1512 2646,1513 2626,1513 2625,1514 2620,1514 2619,1515 2596,1515 2595,1516 2594,1516 2589,1521 2589,1522 2588,1523 2588,1530 2587,1531 2587,1605 2586,1606 2586,1611 2585,1612 2585,1628 2586,1629 2586,1661 2585,1662 2585,1670 2586,1671 2586,1714 2585,1715 2585,1733 2584,1734 2584,1737 2585,1738 2585,1742 2586,1743 2586,1748 2587,1749 2587,1752 2586,1753 2586,1784 2587,1785 2587,1801 2586,1802 2586,1813 2585,1814 2585,1828 2584,1829 2584,1845 2583,1846 2583,1858 2584,1859 2584,1861 2589,1866 2590,1866 2591,1867 2593,1867 2594,1868 2610,1868 2611,1869 2620,1869 2621,1870 2637,1870 2638,1871 2660,1871 2661,1870 2672,1870 2673,1871 2678,1871 2679,1872 2699,1872 2700,1873 2703,1873 2704,1872 2710,1872 2711,1871 2722,1871 2723,1872 2731,1872 2732,1873 2744,1873 2745,1872 2750,1872 2751,1871 2757,1871 2758,1870 2772,1870 2773,1871 2812,1871 2813,1872 2841,1872 2842,1871 2853,1871 2854,1870 2874,1870 2875,1871 2886,1871 2887,1870 2899,1870 2900,1871 2905,1871 2906,1872 2915,1872 2916,1873 2923,1873 2924,1874 2934,1874 2935,1873 2938,1873 2939,1872 3016,1872 3017,1871 3022,1871 3023,1870 3032,1870 3033,1871 3053,1871 3054,1872 3113,1872 3114,1873 3122,1873 3123,1874 3124,1873 3141,1873 3142,1872 3163,1872 3164,1871 3173,1871 3174,1872 3192,1872 3193,1871 3211,1871 3212,1872 3231,1872 3232,1871 3259,1871 3260,1870 3282,1870 3283,1869 3390,1869 3391,1868 3397,1868 3398,1869 3408,1869 3409,1870 3433,1870 3434,1869 3439,1869 3440,1868 3454,1868 3455,1867 3472,1867 3473,1868 3506,1868 3507,1869 3523,1869 3524,1870 3532,1870 3533,1869 3549,1869 3550,1868 3591,1868 3592,1869 3598,1869 3599,1870 3624,1870 3626,1868 3627,1868 3628,1867 3628,1866 3629,1865 3629,1864 3630,1863 3630,1860 3631,1859 3631,1838 3632,1837 3632,1813 3631,1812 3631,1803 3632,1802 3632,1765 3631,1764 3631,1758 3632,1757 3632,1730 3633,1729 3633,1718 3632,1717 3632,1698 3633,1697 3633,1647 3634,1646 3634,1620 3633,1619 3633,1606 3634,1605 3634,1571 3633,1570 3633,1555 3634,1554 3634,1516 3633,1515 3633,1511 3631,1509 3631,1508 3630,1508 3628,1506 3627,1506 3626,1505 3624,1505 3623,1504" fill="rgba(235,157,37,0.3)" stroke="rgb(235,157,37)" stroke-width="2" data-block-id="0005" data-name="b-0009" /><text x="3059" y="1684" text-anchor="middle" dominant-baseline="middle" class="block-label" fill="rgb(235,157,37)" stroke="white" stroke-width="3" paint-order="stroke">b-0009</text><polygon points="3189,1026 3188,1027 3184,1027 3183,1028 3172,1028 3171,1029 3152,1029 3151,1030 3144,1030 3142,1032 3141,1032 3138,1035 3137,1035 3135,1037 3126,1037 3125,1036 3120,1036 3119,1037 3113,1037 3112,1038 3107,1038 3106,1037 3100,1037 3099,1036 3093,1036 3092,1037 3082,1037 3081,1036 3077,1036 3076,1035 3073,1035 3072,1034 3069,1034 3068,1033 3064,1033 3063,1032 3062,1032 3061,1033 3058,1033 3057,1034 3055,1034 3054,1035 3053,1035 3052,1036 3050,1036 3049,1037 3046,1037 3045,1038 3033,1038 3032,1037 3028,1037 3027,1036 3025,1036 3024,1037 3021,1037 3020,1038 3013,1038 3012,1039 2996,1039 2995,1038 2987,1038 2986,1037 2983,1037 2982,1036 2980,1036 2979,1035 2976,1035 2975,1036 2972,1036 2971,1037 2967,1037 2966,1038 2961,1038 2960,1039 2956,1039 2955,1040 2952,1040 2951,1039 2947,1039 2946,1038 2941,1038 2940,1037 2938,1037 2937,1036 2936,1036 2935,1035 2934,1035 2932,1033 2929,1033 2928,1032 2922,1032 2921,1031 2919,1031 2918,1032 2917,1032 2916,1033 2915,1033 2914,1034 2914,1035 2909,1040 2908,1040 2907,1041 2902,1041 2901,1040 2882,1040 2881,1041 2870,1041 2869,1042 2860,1042 2859,1041 2854,1041 2853,1040 2849,1040 2848,1039 2832,1039 2831,1040 2829,1040 2828,1041 2827,1041 2826,1042 2825,1042 2824,1043 2823,1043 2822,1044 2814,1044 2813,1045 2812,1045 2811,1044 2808,1044 2807,1043 2806,1043 2805,1042 2804,1042 2802,1040 2801,1040 2800,1039 2799,1039 2798,1038 2794,1038 2793,1039 2789,1039 2788,1040 2787,1040 2786,1041 2782,1041 2781,1042 2773,1042 2772,1043 2770,1043 2769,1044 2766,1044 2765,1045 2748,1045 2747,1046 2741,1046 2740,1047 2731,1047 2730,1046 2727,1046 2726,1047 2711,1047 2710,1046 2705,1046 2704,1045 2699,1045 2698,1046 2682,1046 2681,1047 2676,1047 2675,1048 2672,1048 2671,1049 2667,1049 2666,1050 2664,1050 2663,1049 2645,1049 2644,1050 2640,1050 2639,1049 2633,1049 2632,1050 2626,1050 2625,1051 2622,1051 2621,1052 2609,1052 2608,1053 2606,1053 2605,1054 2604,1054 2603,1055 2602,1055 2598,1059 2598,1060 2597,1061 2597,1063 2596,1064 2596,1066 2595,1067 2595,1070 2594,1071 2594,1076 2593,1077 2593,1088 2594,1089 2594,1115 2593,1116 2593,1175 2592,1176 2592,1185 2591,1186 2591,1193 2592,1194 2592,1202 2591,1203 2591,1267 2592,1268 2592,1275 2591,1276 2591,1286 2592,1287 2592,1305 2591,1306 2591,1323 2592,1324 2592,1336 2591,1337 2591,1351 2592,1352 2592,1365 2591,1366 2591,1386 2592,1387 2592,1393 2593,1394 2593,1396 2594,1397 2594,1399 2595,1400 2595,1401 2597,1403 2598,1403 2599,1404 2602,1404 2603,1405 2607,1405 2608,1406 2639,1406 2640,1405 2645,1405 2646,1406 2661,1406 2662,1405 2665,1405 2666,1404 2670,1404 2671,1405 2677,1405 2678,1406 2683,1406 2684,1405 2695,1405 2696,1406 2700,1406 2701,1407 2702,1407 2703,1406 2706,1406 2707,1405 2709,1405 2710,1404 2711,1404 2712,1403 2713,1403 2714,1402 2717,1402 2718,1403 2720,1403 2721,1404 2724,1404 2725,1405 2730,1405 2731,1404 2735,1404 2736,1403 2744,1403 2745,1404 2757,1404 2758,1403 2766,1403 2767,1404 2768,1404 2769,1405 2770,1405 2771,1406 2773,1406 2774,1407 2777,1407 2778,1406 2782,1406 2783,1405 2800,1405 2801,1404 2803,1404 2804,1403 2805,1403 2806,1402 2808,1402 2809,1401 2812,1401 2813,1402 2814,1402 2815,1403 2817,1403 2818,1404 2820,1404 2821,1405 2825,1405 2826,1404 2829,1404 2830,1403 2832,1403 2833,1402 2837,1402 2838,1403 2842,1403 2843,1404 2848,1404 2849,1403 2850,1403 2851,1402 2852,1402 2853,1401 2855,1401 2856,1400 2862,1400 2863,1401 2866,1401 2867,1402 2873,1402 2874,1401 2876,1401 2877,1400 2878,1400 2879,1399 2880,1399 2881,1398 2885,1398 2886,1399 2889,1399 2890,1400 2895,1400 2896,1401 2897,1401 2898,1400 2907,1400 2908,1401 2910,1401 2911,1402 2912,1402 2913,1403 2915,1403 2916,1404 2929,1404 2930,1403 2941,1403 2942,1402 2946,1402 2947,1401 2957,1401 2958,1402 2960,1402 2961,1403 2962,1403 2963,1404 2970,1404 2971,1403 2974,1403 2975,1402 2994,1402 2995,1401 3005,1401 3006,1402 3007,1402 3008,1403 3010,1403 3011,1404 3021,1404 3022,1403 3036,1403 3037,1404 3049,1404 3050,1405 3054,1405 3055,1406 3065,1406 3066,1405 3068,1405 3069,1404 3070,1404 3071,1403 3074,1403 3075,1402 3087,1402 3088,1403 3093,1403 3094,1404 3113,1404 3114,1403 3140,1403 3141,1402 3153,1402 3154,1401 3164,1401 3165,1400 3170,1400 3171,1401 3173,1401 3174,1402 3176,1402 3177,1403 3179,1403 3180,1404 3182,1404 3183,1405 3186,1405 3187,1406 3190,1406 3191,1407 3202,1407 3203,1406 3207,1406 3208,1405 3210,1405 3211,1404 3213,1404 3214,1403 3234,1403 3235,1404 3259,1404 3260,1403 3286,1403 3287,1402 3292,1402 3293,1403 3302,1403 3303,1402 3309,1402 3310,1401 3326,1401 3327,1402 3338,1402 3339,1401 3342,1401 3343,1400 3347,1400 3348,1399 3350,1399 3351,1400 3356,1400 3357,1401 3363,1401 3364,1400 3368,1400 3369,1399 3374,1399 3375,1400 3378,1400 3379,1401 3380,1401 3381,1402 3386,1402 3387,1401 3388,1401 3389,1400 3391,1400 3392,1399 3394,1399 3395,1398 3423,1398 3424,1399 3426,1399 3427,1400 3428,1400 3429,1401 3433,1401 3436,1398 3437,1398 3438,1397 3439,1397 3440,1396 3441,1396 3442,1395 3453,1395 3454,1396 3464,1396 3465,1395 3470,1395 3471,1396 3509,1396 3510,1395 3522,1395 3523,1396 3534,1396 3535,1395 3585,1395 3586,1396 3601,1396 3602,1395 3624,1395 3625,1394 3627,1394 3628,1393 3630,1393 3631,1392 3632,1392 3633,1391 3634,1391 3634,1390 3635,1389 3635,1388 3636,1387 3636,1385 3637,1384 3637,1381 3638,1380 3638,1342 3639,1341 3639,1330 3640,1329 3640,1314 3639,1313 3639,1302 3640,1301 3640,1267 3641,1266 3641,1201 3640,1200 3640,1195 3639,1194 3639,1191 3638,1190 3638,1189 3637,1188 3637,1186 3635,1184 3635,1183 3630,1178 3629,1178 3625,1174 3624,1174 3623,1173 3622,1173 3621,1172 3617,1172 3616,1171 3611,1171 3610,1170 3608,1170 3607,1169 3606,1169 3605,1168 3604,1168 3602,1166 3601,1166 3599,1164 3598,1164 3596,1162 3595,1162 3592,1159 3591,1159 3585,1153 3584,1153 3583,1152 3582,1152 3581,1151 3580,1151 3579,1150 3578,1150 3577,1149 3574,1149 3573,1148 3568,1148 3567,1147 3564,1147 3563,1146 3561,1146 3560,1145 3559,1145 3557,1143 3556,1143 3554,1141 3553,1141 3546,1134 3545,1134 3541,1130 3540,1130 3538,1128 3537,1128 3536,1127 3535,1127 3534,1126 3532,1126 3531,1125 3528,1125 3527,1124 3525,1124 3524,1123 3520,1123 3519,1122 3516,1122 3515,1121 3514,1121 3513,1120 3512,1120 3511,1119 3510,1119 3509,1118 3508,1118 3506,1116 3505,1116 3504,1115 3503,1115 3502,1114 3501,1114 3499,1112 3498,1112 3491,1105 3490,1105 3489,1104 3488,1104 3487,1103 3484,1103 3483,1102 3480,1102 3479,1101 3476,1101 3475,1100 3472,1100 3471,1099 3469,1099 3468,1098 3467,1098 3466,1097 3465,1097 3459,1091 3458,1091 3456,1089 3455,1089 3454,1088 3453,1088 3452,1087 3451,1087 3450,1086 3449,1086 3446,1083 3445,1083 3440,1078 3439,1078 3437,1076 3436,1076 3434,1074 3431,1074 3430,1073 3429,1074 3421,1074 3420,1073 3419,1073 3416,1070 3416,1069 3408,1061 3407,1061 3404,1058 3403,1058 3401,1056 3400,1056 3399,1055 3398,1055 3397,1054 3395,1054 3394,1053 3393,1053 3392,1052 3391,1052 3390,1051 3389,1051 3388,1050 3387,1050 3386,1049 3384,1049 3383,1048 3381,1048 3380,1047 3378,1047 3377,1046 3375,1046 3374,1045 3373,1045 3372,1044 3371,1044 3369,1042 3368,1042 3364,1038 3363,1038 3361,1036 3360,1036 3359,1035 3358,1035 3357,1034 3355,1034 3354,1033 3352,1033 3351,1032 3349,1032 3348,1031 3347,1031 3346,1030 3344,1030 3343,1029 3341,1029 3340,1028 3325,1028 3324,1029 3322,1029 3321,1030 3318,1030 3317,1031 3303,1031 3302,1030 3285,1030 3284,1029 3279,1029 3278,1028 3276,1028 3275,1029 3270,1029 3269,1030 3260,1030 3259,1029 3257,1029 3256,1028 3252,1028 3251,1027 3236,1027 3235,1028 3223,1028 3222,1027 3207,1027 3206,1026" fill="rgba(20,160,203,0.3)" stroke="rgb(20,160,203)" stroke-width="2" data-block-id="0006" data-name="b-0011" /><text x="3111" y="1209" text-anchor="middle" dominant-baseline="middle" class="block-label" fill="rgb(20,160,203)" stroke="white" stroke-width="3" paint-order="stroke">b-0011</text><polygon points="1199,2390 1198,2391 1195,2391 1194,2392 1192,2392 1191,2393 1190,2393 1188,2395 1188,2397 1187,2398 1187,2402 1186,2403 1186,2408 1185,2409 1185,2414 1184,2415 1184,2422 1183,2423 1183,2436 1184,2437 1184,2455 1183,2456 1183,2479 1182,2480 1182,2504 1183,2505 1183,2507 1184,2508 1184,2510 1185,2511 1185,2513 1186,2514 1185,2515 1185,2522 1184,2523 1184,2527 1185,2528 1185,2552 1184,2553 1184,2569 1183,2570 1183,2572 1184,2573 1184,2580 1185,2581 1185,2623 1186,2624 1186,2627 1187,2628 1187,2631 1188,2632 1188,2635 1189,2636 1189,2638 1190,2639 1190,2641 1192,2643 1192,2644 1193,2645 1194,2645 1195,2646 1196,2646 1197,2647 1198,2647 1199,2648 1201,2648 1202,2649 1207,2649 1208,2650 1215,2650 1216,2649 1219,2649 1220,2648 1222,2648 1223,2647 1227,2647 1228,2648 1231,2648 1232,2649 1243,2649 1244,2648 1250,2648 1251,2649 1255,2649 1256,2650 1265,2650 1266,2649 1269,2649 1270,2648 1275,2648 1276,2649 1279,2649 1280,2650 1298,2650 1299,2651 1303,2651 1304,2652 1312,2652 1313,2651 1317,2651 1318,2650 1323,2650 1324,2651 1333,2651 1334,2652 1349,2652 1350,2653 1355,2653 1356,2654 1372,2654 1373,2655 1382,2655 1383,2656 1399,2656 1400,2657 1409,2657 1410,2656 1420,2656 1421,2657 1451,2657 1452,2658 1459,2658 1460,2659 1464,2659 1465,2660 1469,2660 1470,2661 1475,2661 1476,2662 1482,2662 1483,2663 1493,2663 1494,2662 1503,2662 1504,2663 1511,2663 1512,2664 1529,2664 1530,2663 1537,2663 1538,2664 1541,2664 1542,2665 1549,2665 1551,2663 1553,2663 1554,2662 1555,2662 1556,2661 1559,2661 1560,2660 1576,2660 1577,2661 1587,2661 1588,2662 1599,2662 1600,2661 1616,2661 1617,2662 1628,2662 1629,2663 1676,2663 1677,2664 1688,2664 1689,2665 1693,2665 1694,2666 1696,2666 1697,2667 1699,2667 1700,2668 1706,2668 1707,2667 1711,2667 1712,2666 1722,2666 1723,2667 1741,2667 1742,2668 1745,2668 1746,2669 1749,2669 1750,2670 1753,2670 1754,2669 1788,2669 1789,2670 1823,2670 1824,2671 1835,2671 1836,2670 1842,2670 1843,2669 1855,2669 1856,2670 1885,2670 1886,2671 1896,2671 1897,2672 1920,2672 1921,2671 1926,2671 1927,2670 1932,2670 1933,2671 1939,2671 1940,2672 1958,2672 1959,2673 1969,2673 1970,2674 1993,2674 1994,2673 2009,2673 2010,2674 2028,2674 2029,2675 2031,2675 2032,2676 2035,2676 2036,2677 2045,2677 2046,2678 2049,2678 2050,2677 2057,2677 2058,2676 2064,2676 2065,2677 2069,2677 2070,2678 2076,2678 2077,2679 2091,2679 2092,2678 2099,2678 2100,2679 2102,2679 2103,2680 2105,2680 2106,2681 2113,2681 2114,2680 2127,2680 2128,2681 2139,2681 2140,2680 2150,2680 2151,2681 2161,2681 2162,2682 2182,2682 2183,2681 2187,2681 2188,2680 2196,2680 2197,2681 2201,2681 2202,2682 2208,2682 2209,2681 2219,2681 2220,2682 2222,2682 2223,2683 2225,2683 2226,2684 2230,2684 2231,2683 2232,2683 2233,2682 2235,2682 2236,2681 2243,2681 2244,2682 2247,2682 2248,2683 2291,2683 2292,2682 2300,2682 2301,2681 2314,2681 2315,2682 2317,2682 2318,2683 2320,2683 2321,2684 2323,2684 2324,2685 2325,2685 2326,2684 2330,2684 2331,2683 2341,2683 2342,2684 2349,2684 2350,2683 2352,2683 2353,2682 2356,2682 2357,2681 2362,2681 2363,2682 2368,2682 2369,2683 2390,2683 2391,2684 2415,2684 2416,2685 2431,2685 2432,2684 2435,2684 2436,2683 2438,2683 2439,2682 2442,2682 2443,2681 2450,2681 2451,2682 2471,2682 2472,2681 2476,2681 2477,2680 2478,2680 2482,2676 2482,2675 2483,2674 2483,2673 2484,2672 2484,2671 2485,2670 2485,2668 2486,2667 2486,2664 2485,2663 2485,2629 2486,2628 2486,2625 2487,2624 2487,2575 2488,2574 2488,2571 2487,2570 2487,2534 2488,2533 2488,2530 2489,2529 2489,2525 2490,2524 2490,2523 2489,2522 2489,2519 2488,2518 2488,2513 2487,2512 2487,2511 2488,2510 2488,2505 2489,2504 2489,2496 2488,2495 2488,2486 2489,2485 2489,2482 2490,2481 2490,2477 2491,2476 2491,2475 2490,2474 2490,2470 2489,2469 2489,2460 2490,2459 2490,2455 2491,2454 2491,2452 2490,2451 2490,2448 2489,2447 2489,2443 2488,2442 2488,2436 2487,2435 2487,2432 2486,2431 2486,2430 2484,2428 2483,2428 2482,2427 2481,2427 2480,2426 2477,2426 2476,2425 2471,2425 2470,2424 2459,2424 2458,2425 2449,2425 2448,2424 2427,2424 2426,2423 2423,2423 2422,2422 2415,2422 2414,2423 2411,2423 2410,2424 2404,2424 2403,2423 2401,2423 2400,2422 2398,2422 2397,2421 2392,2421 2391,2422 2387,2422 2386,2423 2354,2423 2353,2422 2349,2422 2348,2421 2346,2421 2345,2420 2341,2420 2340,2419 2323,2419 2322,2420 2319,2420 2318,2421 2315,2421 2314,2422 2309,2422 2308,2421 2304,2421 2303,2420 2290,2420 2289,2419 2281,2419 2280,2418 2272,2418 2271,2419 2236,2419 2235,2420 2231,2420 2230,2421 2222,2421 2221,2420 2208,2420 2207,2419 2196,2419 2195,2418 2181,2418 2180,2417 2176,2417 2175,2416 2171,2416 2170,2415 2157,2415 2156,2416 2142,2416 2141,2415 2121,2415 2120,2416 2084,2416 2083,2415 2080,2415 2079,2414 2076,2414 2075,2413 2066,2413 2065,2412 2033,2412 2032,2411 2027,2411 2026,2410 2017,2410 2016,2409 2010,2409 2009,2410 2000,2410 1999,2411 1992,2411 1991,2412 1987,2412 1986,2411 1979,2411 1978,2410 1952,2410 1951,2409 1925,2409 1924,2408 1903,2408 1902,2409 1891,2409 1890,2408 1868,2408 1867,2409 1851,2409 1850,2408 1843,2408 1842,2407 1837,2407 1836,2406 1807,2406 1806,2405 1802,2405 1801,2404 1800,2404 1799,2403 1792,2403 1791,2404 1778,2404 1777,2405 1753,2405 1752,2404 1721,2404 1720,2403 1709,2403 1708,2404 1699,2404 1698,2403 1691,2403 1690,2402 1674,2402 1673,2403 1669,2403 1668,2404 1663,2404 1662,2403 1642,2403 1641,2402 1599,2402 1598,2401 1586,2401 1585,2400 1566,2400 1565,2401 1561,2401 1560,2402 1559,2401 1555,2401 1554,2400 1552,2400 1551,2399 1550,2399 1549,2398 1547,2398 1546,2397 1541,2397 1540,2396 1533,2396 1532,2397 1527,2397 1526,2398 1510,2398 1509,2397 1507,2397 1506,2396 1503,2396 1502,2395 1494,2395 1493,2394 1486,2394 1485,2395 1480,2395 1479,2396 1474,2396 1473,2397 1468,2397 1467,2398 1461,2398 1460,2397 1458,2397 1457,2396 1453,2396 1452,2395 1448,2395 1447,2394 1443,2394 1442,2393 1435,2393 1434,2394 1424,2394 1423,2395 1394,2395 1393,2394 1388,2394 1387,2395 1378,2395 1377,2394 1368,2394 1367,2393 1339,2393 1338,2392 1266,2392 1265,2391 1237,2391 1236,2390" fill="rgba(57,21,252,0.3)" stroke="rgb(57,21,252)" stroke-width="2" data-block-id="0007" data-name="b-0012" /><text x="1861" y="2546" text-anchor="middle" dominant-baseline="middle" class="block-label" fill="rgb(57,21,252)" stroke="white" stroke-width="3" paint-order="stroke">b-0012</text><polygon points="4541,1946 4540,1947 4535,1947 4534,1948 4529,1948 4528,1949 4516,1949 4515,1950 4505,1950 4504,1949 4501,1949 4500,1948 4491,1948 4490,1949 4471,1949 4470,1950 4456,1950 4455,1949 4427,1949 4426,1950 4342,1950 4341,1951 4338,1951 4337,1950 4306,1950 4305,1951 4249,1951 4248,1952 4170,1952 4169,1953 4143,1953 4142,1954 4118,1954 4117,1953 4112,1953 4111,1954 4097,1954 4096,1953 4076,1953 4075,1954 4065,1954 4064,1955 4051,1955 4050,1954 3972,1954 3971,1955 3956,1955 3955,1954 3938,1954 3937,1955 3930,1955 3929,1954 3916,1954 3915,1955 3907,1955 3906,1954 3882,1954 3881,1955 3821,1955 3820,1956 3815,1956 3814,1955 3805,1955 3804,1954 3798,1954 3797,1955 3751,1955 3750,1956 3747,1956 3746,1957 3745,1957 3742,1960 3742,1961 3741,1962 3741,1964 3740,1965 3740,1972 3739,1973 3739,1980 3740,1981 3740,1994 3739,1995 3739,2022 3738,2023 3738,2025 3739,2026 3739,2040 3738,2041 3738,2092 3737,2093 3737,2104 3736,2105 3736,2123 3737,2124 3737,2127 3738,2128 3738,2130 3739,2131 3739,2133 3740,2134 3740,2136 3741,2137 3741,2139 3742,2140 3742,2142 3743,2143 3743,2161 3742,2162 3742,2198 3743,2199 3743,2204 3742,2205 3742,2220 3743,2221 3743,2234 3742,2235 3742,2241 3743,2242 3743,2254 3742,2255 3742,2275 3741,2276 3741,2290 3742,2291 3742,2314 3743,2315 3743,2320 3745,2322 3745,2323 3746,2323 3748,2325 3749,2325 3750,2326 3752,2326 3753,2327 3764,2327 3765,2326 3771,2326 3772,2327 3814,2327 3815,2326 3846,2326 3847,2327 3852,2327 3853,2326 3928,2326 3929,2327 3951,2327 3952,2326 3964,2326 3965,2327 3969,2327 3970,2328 3974,2328 3975,2329 3979,2329 3980,2330 3988,2330 3989,2329 3993,2329 3994,2328 3996,2328 3997,2327 3998,2327 3999,2326 4002,2326 4003,2325 4010,2325 4011,2326 4021,2326 4022,2327 4049,2327 4050,2326 4070,2326 4071,2325 4088,2325 4089,2326 4100,2326 4101,2327 4112,2327 4113,2328 4123,2328 4124,2329 4141,2329 4142,2328 4149,2328 4150,2327 4156,2327 4157,2326 4173,2326 4174,2327 4190,2327 4191,2328 4201,2328 4202,2327 4217,2327 4218,2328 4223,2328 4224,2329 4228,2329 4229,2330 4244,2330 4245,2329 4247,2329 4248,2328 4250,2328 4251,2327 4254,2327 4255,2326 4260,2326 4261,2325 4274,2325 4275,2326 4300,2326 4301,2325 4309,2325 4310,2324 4386,2324 4387,2325 4398,2325 4399,2326 4410,2326 4411,2327 4412,2326 4418,2326 4419,2325 4423,2325 4424,2324 4426,2324 4427,2323 4429,2323 4430,2322 4445,2322 4446,2321 4457,2321 4458,2322 4459,2321 4515,2321 4516,2320 4524,2320 4525,2321 4536,2321 4537,2320 4556,2320 4557,2321 4558,2320 4570,2320 4571,2321 4584,2321 4585,2320 4593,2320 4594,2319 4598,2319 4599,2318 4602,2318 4603,2317 4604,2317 4605,2316 4606,2316 4606,2315 4607,2314 4607,2313 4608,2312 4608,2309 4609,2308 4609,2186 4608,2185 4608,2151 4609,2150 4609,2140 4608,2139 4608,2090 4607,2089 4607,2052 4608,2051 4608,2045 4607,2044 4607,2025 4608,2024 4608,2019 4607,2018 4607,1990 4606,1989 4606,1986 4607,1985 4607,1957 4606,1956 4606,1952 4605,1951 4605,1950 4604,1949 4603,1949 4602,1948 4593,1948 4592,1947 4547,1947 4546,1946" fill="rgba(235,88,48,0.3)" stroke="rgb(235,88,48)" stroke-width="2" data-block-id="0008" data-name="b-0013" /><text x="4148" y="2166" text-anchor="middle" dominant-baseline="middle" class="block-label" fill="rgb(235,88,48)" stroke="white" stroke-width="3" paint-order="stroke">b-0013</text><polygon points="1188,2740 1187,2741 1186,2741 1185,2742 1184,2742 1182,2744 1181,2744 1181,2745 1179,2747 1179,2748 1178,2749 1178,2751 1177,2752 1177,2763 1176,2764 1176,2781 1175,2782 1175,2808 1174,2809 1174,2839 1173,2840 1173,2851 1172,2852 1172,2879 1173,2880 1173,2882 1172,2883 1172,2903 1171,2904 1171,2940 1170,2941 1170,2964 1171,2965 1171,2968 1170,2969 1170,2988 1171,2989 1171,2991 1173,2993 1173,2994 1175,2996 1176,2996 1177,2997 1182,2997 1183,2998 1190,2998 1191,2999 1211,2999 1212,2998 1220,2998 1221,2997 1231,2997 1232,2998 1240,2998 1241,2999 1246,2999 1247,3000 1289,3000 1290,3001 1300,3001 1301,3000 1314,3000 1315,3001 1322,3001 1323,3002 1344,3002 1345,3003 1365,3003 1366,3002 1372,3002 1373,3003 1389,3003 1390,3004 1431,3004 1432,3005 1441,3005 1442,3004 1444,3004 1445,3003 1447,3003 1449,3001 1453,3001 1454,3002 1455,3002 1456,3003 1457,3003 1458,3004 1462,3004 1463,3005 1489,3005 1490,3006 1501,3006 1502,3007 1518,3007 1519,3006 1541,3006 1542,3007 1550,3007 1551,3008 1557,3008 1558,3009 1574,3009 1575,3008 1594,3008 1595,3009 1602,3009 1603,3010 1637,3010 1638,3009 1647,3009 1648,3010 1652,3010 1653,3011 1671,3011 1672,3012 1680,3012 1681,3013 1689,3013 1690,3014 1693,3014 1694,3015 1697,3015 1698,3016 1699,3016 1700,3017 1705,3017 1706,3016 1710,3016 1711,3015 1739,3015 1740,3016 1747,3016 1748,3017 1753,3017 1754,3016 1785,3016 1786,3017 1811,3017 1812,3018 1816,3018 1817,3019 1819,3019 1820,3020 1848,3020 1849,3019 1852,3019 1853,3018 1911,3018 1912,3019 1919,3019 1920,3020 1932,3020 1933,3021 1944,3021 1945,3020 1948,3020 1949,3019 2026,3019 2027,3020 2051,3020 2052,3021 2084,3021 2085,3022 2100,3022 2101,3023 2103,3023 2104,3024 2106,3024 2107,3025 2133,3025 2134,3024 2146,3024 2147,3025 2152,3025 2153,3026 2170,3026 2171,3027 2186,3027 2187,3028 2194,3028 2195,3029 2200,3029 2201,3030 2207,3030 2208,3029 2226,3029 2227,3030 2243,3030 2244,3031 2251,3031 2252,3032 2260,3032 2261,3033 2266,3033 2267,3032 2277,3032 2278,3031 2279,3032 2299,3032 2300,3033 2308,3033 2309,3034 2313,3034 2314,3033 2316,3033 2317,3032 2320,3032 2321,3031 2325,3031 2326,3030 2329,3030 2330,3029 2333,3029 2334,3028 2335,3028 2336,3027 2336,3026 2337,3025 2337,3022 2338,3021 2338,3010 2339,3009 2339,2962 2340,2961 2340,2912 2341,2911 2341,2902 2340,2901 2340,2883 2341,2882 2341,2880 2340,2879 2340,2867 2341,2866 2341,2858 2340,2857 2340,2844 2341,2843 2341,2838 2342,2837 2342,2827 2341,2826 2341,2822 2342,2821 2342,2814 2343,2813 2343,2807 2342,2806 2342,2784 2341,2783 2341,2779 2340,2778 2340,2776 2339,2775 2339,2774 2338,2774 2336,2772 2323,2772 2322,2771 2318,2771 2317,2770 2296,2770 2295,2769 2257,2769 2256,2768 2232,2768 2231,2767 2213,2767 2212,2766 2209,2766 2208,2765 2199,2765 2198,2766 2190,2766 2189,2767 2172,2767 2171,2766 2163,2766 2162,2767 2151,2767 2150,2766 2131,2766 2130,2765 2126,2765 2125,2764 2115,2764 2114,2763 2109,2763 2108,2764 2101,2764 2100,2765 2091,2765 2090,2764 2071,2764 2070,2763 2058,2763 2057,2762 2017,2762 2016,2761 2000,2761 1999,2760 1980,2760 1979,2761 1977,2761 1976,2760 1971,2760 1970,2759 1961,2759 1960,2758 1954,2758 1953,2757 1944,2757 1943,2756 1921,2756 1920,2757 1917,2757 1916,2756 1912,2756 1911,2755 1894,2755 1893,2756 1888,2756 1887,2757 1881,2757 1880,2758 1879,2757 1868,2757 1867,2758 1832,2758 1831,2757 1820,2757 1819,2758 1807,2758 1806,2757 1805,2757 1804,2756 1803,2756 1801,2754 1800,2754 1799,2753 1798,2753 1797,2752 1785,2752 1784,2753 1770,2753 1769,2754 1760,2754 1759,2753 1757,2753 1756,2752 1754,2752 1753,2751 1750,2751 1749,2750 1748,2751 1744,2751 1743,2752 1737,2752 1736,2753 1724,2753 1723,2754 1719,2754 1718,2755 1711,2755 1710,2754 1706,2754 1705,2753 1679,2753 1678,2752 1668,2752 1667,2751 1658,2751 1657,2750 1651,2750 1650,2751 1641,2751 1640,2750 1636,2750 1635,2749 1619,2749 1618,2748 1575,2748 1574,2747 1557,2747 1556,2746 1550,2746 1549,2745 1534,2745 1533,2746 1448,2746 1447,2745 1439,2745 1438,2744 1430,2744 1429,2743 1418,2743 1417,2744 1386,2744 1385,2743 1359,2743 1358,2742 1326,2742 1325,2743 1312,2743 1311,2742 1264,2742 1263,2741 1253,2741 1252,2742 1247,2742 1246,2741 1227,2741 1226,2742 1225,2742 1224,2741 1216,2741 1215,2740 1207,2740 1206,2741 1195,2741 1194,2740" fill="rgba(218,58,254,0.3)" stroke="rgb(218,58,254)" stroke-width="2" data-block-id="0009" data-name="b-0014" /><text x="1778" y="2883" text-anchor="middle" dominant-baseline="middle" class="block-label" fill="rgb(218,58,254)" stroke="white" stroke-width="3" paint-order="stroke">b-0014</text><polygon points="4051,1499 4050,1500 4032,1500 4031,1501 3981,1501 3980,1502 3912,1502 3911,1503 3865,1503 3864,1504 3853,1504 3852,1503 3836,1503 3835,1502 3831,1502 3830,1501 3821,1501 3820,1502 3815,1502 3814,1503 3768,1503 3767,1502 3759,1502 3758,1501 3753,1501 3752,1502 3749,1502 3748,1503 3747,1503 3744,1506 3744,1509 3743,1510 3743,1512 3744,1513 3744,1518 3745,1519 3745,1588 3744,1589 3744,1618 3745,1619 3745,1635 3744,1636 3744,1651 3745,1652 3745,1667 3744,1668 3744,1676 3743,1677 3743,1697 3744,1698 3744,1720 3743,1721 3743,1776 3742,1777 3742,1817 3743,1818 3743,1823 3742,1824 3742,1857 3743,1858 3743,1860 3744,1861 3744,1862 3746,1864 3747,1864 3748,1865 3750,1865 3751,1866 3776,1866 3777,1865 3812,1865 3813,1864 3834,1864 3835,1865 3852,1865 3853,1864 3927,1864 3928,1863 3953,1863 3954,1862 3970,1862 3971,1863 4004,1863 4005,1862 4007,1862 4008,1863 4023,1863 4024,1864 4064,1864 4065,1863 4079,1863 4080,1864 4096,1864 4097,1863 4104,1863 4105,1862 4108,1862 4109,1861 4112,1861 4113,1860 4116,1860 4117,1861 4144,1861 4145,1862 4150,1862 4151,1861 4178,1861 4179,1862 4214,1862 4215,1861 4229,1861 4230,1862 4270,1862 4271,1861 4292,1861 4293,1860 4308,1860 4309,1861 4331,1861 4332,1860 4358,1860 4359,1861 4370,1861 4371,1860 4423,1860 4424,1859 4517,1859 4518,1858 4521,1858 4522,1859 4538,1859 4539,1858 4591,1858 4592,1857 4597,1857 4598,1856 4600,1856 4601,1855 4602,1855 4603,1854 4603,1853 4605,1851 4605,1849 4606,1848 4606,1845 4607,1844 4607,1814 4606,1813 4606,1789 4607,1788 4607,1768 4606,1767 4606,1725 4605,1724 4605,1721 4604,1720 4604,1718 4603,1717 4603,1714 4602,1713 4602,1712 4601,1711 4601,1710 4600,1709 4600,1708 4595,1703 4594,1703 4592,1701 4591,1701 4590,1700 4589,1700 4588,1699 4587,1699 4586,1698 4585,1698 4584,1697 4583,1697 4582,1696 4580,1696 4579,1695 4578,1695 4577,1694 4576,1694 4575,1693 4573,1693 4572,1692 4571,1692 4569,1690 4568,1690 4566,1688 4565,1688 4564,1687 4563,1687 4562,1686 4560,1686 4559,1685 4557,1685 4556,1684 4555,1684 4554,1683 4552,1683 4551,1682 4550,1682 4549,1681 4548,1681 4547,1680 4546,1680 4545,1679 4544,1679 4543,1678 4542,1678 4541,1677 4539,1677 4538,1676 4536,1676 4535,1675 4534,1675 4533,1674 4532,1674 4531,1673 4530,1673 4529,1672 4527,1672 4526,1671 4525,1671 4524,1670 4523,1670 4522,1669 4520,1669 4519,1668 4517,1668 4516,1667 4514,1667 4513,1666 4509,1666 4508,1665 4507,1665 4497,1655 4496,1655 4495,1654 4494,1654 4493,1653 4492,1653 4491,1652 4490,1652 4489,1651 4488,1651 4487,1650 4485,1650 4484,1649 4483,1649 4482,1648 4480,1648 4479,1647 4477,1647 4476,1646 4475,1646 4473,1644 4472,1644 4470,1642 4469,1642 4467,1640 4466,1640 4465,1639 4464,1639 4463,1638 4462,1638 4461,1637 4460,1637 4459,1636 4458,1636 4457,1635 4456,1635 4455,1634 4454,1634 4452,1632 4451,1632 4449,1630 4448,1630 4447,1629 4446,1629 4445,1628 4444,1628 4443,1627 4442,1627 4441,1626 4440,1626 4439,1625 4438,1625 4436,1623 4435,1623 4434,1622 4433,1622 4432,1621 4431,1621 4430,1620 4428,1620 4427,1619 4426,1619 4425,1618 4424,1618 4423,1617 4422,1617 4421,1616 4420,1616 4419,1615 4417,1615 4416,1614 4415,1614 4414,1613 4413,1613 4412,1612 4411,1612 4409,1610 4408,1610 4404,1606 4403,1606 4401,1604 4400,1604 4399,1603 4397,1603 4396,1602 4393,1602 4392,1601 4389,1601 4388,1600 4386,1600 4384,1598 4383,1598 4381,1596 4380,1596 4376,1592 4375,1592 4374,1591 4373,1591 4372,1590 4370,1590 4369,1589 4367,1589 4366,1588 4364,1588 4363,1587 4362,1587 4361,1586 4360,1586 4359,1585 4358,1585 4356,1583 4355,1583 4354,1582 4353,1582 4352,1581 4351,1581 4350,1580 4348,1580 4347,1579 4345,1579 4344,1578 4343,1578 4342,1577 4341,1577 4340,1576 4339,1576 4338,1575 4337,1575 4336,1574 4335,1574 4332,1571 4331,1571 4330,1570 4329,1570 4327,1568 4326,1568 4325,1567 4324,1567 4323,1566 4322,1566 4321,1565 4320,1565 4319,1564 4317,1564 4316,1563 4315,1563 4314,1562 4313,1562 4312,1561 4311,1561 4310,1560 4309,1560 4308,1559 4307,1559 4305,1557 4304,1557 4303,1556 4301,1556 4300,1555 4299,1555 4298,1554 4297,1554 4296,1553 4294,1553 4292,1551 4291,1551 4290,1550 4289,1550 4288,1549 4287,1549 4286,1548 4285,1548 4283,1546 4282,1546 4281,1545 4280,1545 4279,1544 4277,1544 4276,1543 4274,1543 4273,1542 4272,1542 4271,1541 4270,1541 4269,1540 4268,1540 4266,1538 4265,1538 4262,1535 4261,1535 4259,1533 4258,1533 4257,1532 4255,1532 4254,1531 4252,1531 4251,1530 4249,1530 4248,1529 4246,1529 4245,1528 4244,1528 4243,1527 4241,1527 4240,1526 4239,1526 4238,1525 4237,1525 4236,1524 4235,1524 4233,1522 4232,1522 4231,1521 4230,1521 4229,1520 4228,1520 4227,1519 4226,1519 4225,1518 4224,1518 4222,1516 4221,1516 4219,1514 4218,1514 4216,1512 4215,1512 4214,1511 4213,1511 4212,1510 4210,1510 4209,1509 4208,1509 4207,1508 4205,1508 4204,1507 4202,1507 4201,1506 4199,1506 4198,1505 4196,1505 4195,1504 4190,1504 4189,1503 4185,1503 4184,1502 4178,1502 4177,1501 4158,1501 4157,1500 4145,1500 4144,1501 4110,1501 4109,1500 4103,1500 4102,1499 4101,1500 4095,1500 4094,1501 4067,1501 4066,1500 4058,1500 4057,1499" fill="rgba(169,219,187,0.3)" stroke="rgb(169,219,187)" stroke-width="2" data-block-id="0010" data-name="b-0015" /><text x="4283" y="1646" text-anchor="middle" dominant-baseline="middle" class="block-label" fill="rgb(169,219,187)" stroke="white" stroke-width="3" paint-order="stroke">b-0015</text><polygon points="1378,171 1377,172 1376,172 1375,173 1374,173 1372,175 1371,175 1370,176 1369,176 1368,177 1362,177 1361,176 1354,176 1353,175 1351,175 1350,174 1348,174 1347,173 1346,173 1345,172 1342,172 1341,173 1339,173 1338,174 1335,174 1334,175 1332,175 1331,176 1330,176 1325,181 1325,182 1324,183 1324,184 1323,185 1323,190 1322,191 1322,290 1321,291 1321,321 1320,322 1320,329 1321,330 1321,347 1320,348 1320,364 1319,365 1319,374 1320,375 1320,391 1319,392 1319,423 1318,424 1318,425 1319,426 1319,441 1318,442 1318,473 1319,474 1319,476 1321,478 1321,479 1322,479 1323,480 1324,480 1325,481 1327,481 1328,482 1329,482 1330,483 1339,483 1340,482 1346,482 1347,481 1353,481 1354,480 1358,480 1359,481 1365,481 1366,482 1370,482 1371,481 1380,481 1381,480 1387,480 1388,481 1390,481 1391,480 1401,480 1402,479 1405,479 1406,480 1409,480 1410,481 1425,481 1426,480 1467,480 1468,479 1480,479 1481,478 1495,478 1496,479 1503,479 1504,480 1524,480 1525,479 1530,479 1531,478 1537,478 1538,479 1553,479 1554,478 1574,478 1575,477 1580,477 1581,476 1582,477 1586,477 1587,478 1588,478 1589,479 1592,479 1593,480 1598,480 1599,479 1604,479 1605,478 1623,478 1624,477 1662,477 1663,476 1667,476 1668,477 1675,477 1676,478 1681,478 1682,479 1690,479 1691,480 1702,480 1703,479 1707,479 1708,478 1710,478 1711,477 1714,477 1715,476 1720,476 1721,477 1754,477 1755,476 1760,476 1761,475 1764,475 1765,476 1777,476 1778,477 1788,477 1789,476 1797,476 1798,475 1803,475 1804,474 1810,474 1811,473 1812,474 1826,474 1827,473 1865,473 1866,474 1893,474 1894,473 1951,473 1952,474 1976,474 1977,473 2017,473 2018,474 2053,474 2054,475 2067,475 2068,474 2081,474 2082,475 2089,475 2090,476 2101,476 2102,475 2109,475 2110,474 2118,474 2119,473 2132,473 2133,474 2138,474 2139,475 2145,475 2146,476 2152,476 2153,477 2161,477 2162,476 2168,476 2169,475 2197,475 2198,476 2210,476 2211,475 2221,475 2222,474 2231,474 2232,473 2235,473 2236,472 2237,472 2238,471 2239,471 2239,470 2240,469 2240,468 2241,467 2241,464 2242,463 2242,452 2241,451 2241,445 2242,444 2242,428 2241,427 2241,422 2240,421 2240,420 2239,419 2239,418 2238,417 2238,416 2237,415 2236,415 2233,412 2232,412 2230,410 2229,410 2228,409 2227,409 2226,408 2225,408 2224,407 2223,407 2222,406 2221,406 2219,404 2218,404 2217,403 2216,403 2213,400 2212,400 2210,398 2208,398 2207,397 2206,397 2205,396 2203,396 2201,394 2200,394 2195,389 2195,388 2194,387 2193,387 2192,386 2191,386 2190,385 2182,385 2181,384 2178,384 2177,383 2176,383 2175,382 2173,382 2172,381 2171,381 2170,380 2168,380 2167,379 2166,379 2165,378 2164,378 2163,377 2162,377 2160,375 2159,375 2158,374 2157,374 2156,373 2154,373 2153,372 2152,372 2151,371 2149,371 2148,370 2147,370 2145,368 2144,368 2141,365 2140,365 2138,363 2137,363 2136,362 2135,362 2133,360 2132,360 2129,357 2128,357 2124,353 2123,353 2122,352 2121,352 2120,351 2118,351 2117,350 2111,350 2110,349 2108,349 2106,347 2105,347 2101,343 2101,342 2099,340 2098,340 2097,339 2096,339 2095,338 2093,338 2092,337 2090,337 2089,336 2087,336 2086,335 2085,335 2084,334 2083,334 2082,333 2081,333 2080,332 2079,332 2072,325 2071,325 2070,324 2069,324 2068,323 2066,323 2065,322 2064,322 2063,321 2061,321 2060,320 2059,320 2058,319 2057,319 2055,317 2054,317 2051,314 2049,314 2048,313 2046,313 2045,312 2043,312 2042,311 2040,311 2039,310 2037,310 2036,309 2035,309 2034,308 2033,308 2026,301 2025,301 2023,299 2022,299 2020,297 2019,297 2018,296 2017,296 2016,295 2015,295 2014,294 2013,294 2012,293 2011,293 2008,290 2007,290 2006,289 2005,289 2003,287 2002,287 2001,286 2000,286 1999,285 1997,285 1995,283 1994,283 1992,281 1991,281 1989,279 1988,279 1987,278 1986,278 1985,277 1984,277 1981,274 1980,274 1978,272 1977,272 1975,270 1974,270 1973,269 1972,269 1971,268 1969,268 1968,267 1967,267 1966,266 1964,266 1963,265 1962,265 1960,263 1959,263 1952,256 1951,256 1949,254 1948,254 1947,253 1946,253 1945,252 1944,252 1943,251 1942,251 1941,250 1939,250 1938,249 1937,249 1936,248 1935,248 1933,246 1932,246 1931,245 1930,245 1929,244 1928,244 1927,243 1925,243 1924,242 1923,242 1922,241 1921,241 1920,240 1918,240 1917,239 1916,239 1915,238 1913,238 1912,237 1911,237 1910,236 1909,236 1906,233 1905,233 1902,230 1901,230 1897,226 1896,226 1893,223 1892,223 1890,221 1889,221 1887,219 1886,219 1885,218 1884,218 1883,217 1882,217 1881,216 1878,216 1877,215 1874,215 1873,214 1870,214 1869,213 1868,213 1867,212 1866,212 1864,210 1863,210 1861,208 1860,208 1859,207 1858,207 1857,206 1856,206 1854,204 1853,204 1850,201 1849,201 1844,196 1842,196 1841,195 1839,195 1838,194 1837,194 1836,193 1835,193 1834,192 1833,192 1832,191 1830,191 1829,190 1827,190 1826,189 1824,189 1823,188 1819,188 1818,187 1813,187 1812,186 1807,186 1806,185 1801,185 1800,184 1795,184 1794,183 1791,183 1790,182 1788,182 1787,181 1784,181 1783,182 1777,182 1776,183 1770,183 1769,184 1759,184 1758,183 1755,183 1754,182 1751,182 1750,181 1744,181 1743,180 1737,180 1736,181 1733,181 1732,182 1717,182 1716,181 1713,181 1712,180 1711,180 1710,179 1709,179 1708,178 1706,178 1705,177 1703,177 1702,176 1694,176 1693,175 1692,175 1691,176 1689,176 1688,177 1686,177 1685,178 1684,178 1683,179 1680,179 1679,180 1677,180 1676,179 1673,179 1672,178 1670,178 1669,177 1668,177 1667,176 1666,176 1665,175 1662,175 1661,174 1657,174 1656,173 1651,173 1650,174 1643,174 1639,178 1638,178 1637,179 1636,179 1635,180 1634,180 1633,181 1625,181 1624,180 1615,180 1614,179 1604,179 1603,178 1580,178 1579,177 1578,177 1577,176 1575,176 1574,175 1572,175 1571,174 1554,174 1553,175 1550,175 1549,176 1544,176 1543,175 1538,175 1537,174 1533,174 1532,173 1528,173 1527,172 1512,172 1511,173 1508,173 1507,174 1506,174 1505,175 1503,175 1502,176 1495,176 1494,175 1491,175 1490,174 1488,174 1487,173 1484,173 1483,172 1480,172 1479,171 1471,171 1470,172 1466,172 1465,173 1461,173 1460,174 1458,174 1457,175 1454,175 1453,176 1449,176 1448,175 1443,175 1442,174 1435,174 1434,173 1426,173 1425,174 1421,174 1420,175 1413,175 1412,176 1402,176 1401,175 1398,175 1397,174 1395,174 1394,173 1392,173 1391,172 1388,172 1387,171" fill="rgba(50,107,54,0.3)" stroke="rgb(50,107,54)" stroke-width="2" data-block-id="0011" data-name="b-0018" /><text x="1806" y="313" text-anchor="middle" dominant-baseline="middle" class="block-label" fill="rgb(50,107,54)" stroke="white" stroke-width="3" paint-order="stroke">b-0018</text><polygon points="860,593 859,594 838,594 837,595 834,595 833,596 815,596 814,597 796,597 795,598 790,598 789,599 785,599 784,600 763,600 762,599 755,599 754,600 740,600 739,601 716,601 715,600 711,600 710,599 709,599 708,598 707,598 706,597 704,597 703,596 699,596 698,595 696,595 695,596 684,596 683,597 668,597 667,596 645,596 644,597 635,597 634,596 630,596 629,595 620,595 619,596 601,596 600,597 593,597 592,598 571,598 570,597 561,597 560,598 554,598 553,597 536,597 535,598 525,598 524,599 516,599 515,600 496,600 495,599 482,599 481,598 475,598 474,597 455,597 454,598 449,598 448,599 445,599 444,600 437,600 436,601 409,601 408,600 379,600 378,599 377,600 374,600 370,604 370,605 369,606 369,607 368,608 368,610 367,611 367,679 366,680 366,765 367,766 367,775 366,776 366,810 367,811 367,916 366,917 366,938 367,939 367,954 368,955 368,958 369,959 369,963 370,964 370,971 371,972 371,974 374,977 375,977 376,978 453,978 454,977 562,977 563,976 634,976 635,977 673,977 674,976 690,976 691,977 702,977 703,976 718,976 719,977 732,977 733,978 734,977 738,977 739,976 741,976 742,975 744,975 745,974 750,974 751,975 776,975 777,974 791,974 792,973 806,973 807,972 832,972 833,971 858,971 859,970 910,970 911,969 915,969 916,968 917,968 918,967 919,967 921,965 922,965 922,964 924,962 924,960 925,959 925,952 926,951 926,941 927,940 927,935 926,934 926,919 927,918 927,882 926,881 926,874 927,873 927,856 926,855 926,849 927,848 927,839 926,838 926,822 927,821 927,813 926,812 926,785 925,784 925,780 926,779 926,772 927,771 927,724 928,723 928,719 927,718 927,658 928,657 928,647 927,646 927,602 926,601 926,600 923,597 921,597 920,596 918,596 917,595 913,595 912,594 887,594 886,595 875,595 874,594 871,594 870,593" fill="rgba(243,63,248,0.3)" stroke="rgb(243,63,248)" stroke-width="2" data-block-id="0012" data-name="b-0019" /><text x="693" y="752" text-anchor="middle" dominant-baseline="middle" class="block-label" fill="rgb(243,63,248)" stroke="white" stroke-width="3" paint-order="stroke">b-0019</text><polygon points="839,1079 838,1080 811,1080 810,1081 762,1081 761,1082 756,1082 755,1081 750,1081 749,1080 743,1080 742,1081 736,1081 735,1082 721,1082 720,1083 702,1083 701,1082 698,1082 697,1083 691,1083 690,1084 679,1084 678,1083 643,1083 642,1084 632,1084 631,1083 628,1083 627,1084 622,1084 621,1085 618,1085 617,1086 610,1086 609,1085 605,1085 604,1084 597,1084 596,1085 582,1085 581,1086 573,1086 572,1085 550,1085 549,1086 536,1086 535,1085 512,1085 511,1086 504,1086 503,1087 482,1087 481,1088 475,1088 474,1089 466,1089 465,1088 443,1088 442,1089 439,1089 438,1090 434,1090 433,1089 428,1089 427,1088 376,1088 375,1089 374,1089 370,1093 370,1094 369,1095 369,1102 368,1103 368,1119 369,1120 369,1138 368,1139 368,1172 369,1173 369,1186 368,1187 368,1194 367,1195 367,1217 368,1218 368,1232 369,1233 369,1239 368,1240 368,1286 367,1287 367,1317 368,1318 368,1336 369,1337 369,1340 370,1341 370,1345 371,1346 371,1360 370,1361 370,1394 369,1395 369,1450 370,1451 370,1453 371,1454 371,1455 374,1458 375,1458 376,1459 382,1459 383,1458 400,1458 401,1457 450,1457 451,1456 456,1456 457,1455 463,1455 464,1456 480,1456 481,1455 527,1455 528,1454 533,1454 534,1455 555,1455 556,1454 558,1454 559,1455 569,1455 570,1454 584,1454 585,1455 594,1455 595,1454 599,1454 600,1453 607,1453 608,1454 612,1454 613,1455 616,1455 617,1454 621,1454 622,1453 625,1453 626,1452 631,1452 632,1453 714,1453 715,1452 722,1452 723,1451 724,1451 725,1452 758,1452 759,1453 779,1453 780,1454 790,1454 791,1455 800,1455 801,1456 811,1456 812,1455 823,1455 824,1456 836,1456 837,1457 847,1457 848,1456 857,1456 858,1455 862,1455 863,1454 885,1454 886,1455 893,1455 894,1456 903,1456 904,1455 906,1455 907,1454 909,1454 910,1453 911,1453 912,1452 913,1452 914,1451 915,1451 916,1450 916,1449 917,1448 917,1447 918,1446 918,1444 919,1443 919,1438 920,1437 920,1420 919,1419 919,1403 920,1402 920,1382 921,1381 921,1374 920,1373 920,1366 921,1365 921,1360 922,1359 922,1352 923,1351 923,1334 922,1333 922,1261 923,1260 923,1142 924,1141 924,1116 925,1115 925,1099 924,1098 924,1089 923,1088 923,1086 922,1085 922,1083 920,1081 919,1081 918,1080 917,1080 916,1079 872,1079 871,1080 847,1080 846,1079" fill="rgba(130,228,50,0.3)" stroke="rgb(130,228,50)" stroke-width="2" data-block-id="0013" data-name="b-0020" /><text x="652" y="1278" text-anchor="middle" dominant-baseline="middle" class="block-label" fill="rgb(130,228,50)" stroke="white" stroke-width="3" paint-order="stroke">b-0020</text><polygon points="903,1566 902,1567 874,1567 873,1568 838,1568 837,1569 801,1569 800,1570 788,1570 787,1571 755,1571 754,1572 741,1572 740,1573 696,1573 695,1574 669,1574 668,1573 650,1573 649,1574 637,1574 636,1575 630,1575 629,1576 621,1576 620,1575 597,1575 596,1576 588,1576 587,1577 556,1577 555,1578 548,1578 547,1579 507,1579 506,1580 502,1580 501,1581 498,1581 497,1582 480,1582 479,1581 470,1581 469,1582 447,1582 446,1583 421,1583 420,1584 389,1584 388,1585 377,1585 376,1586 374,1586 371,1589 371,1590 370,1591 370,1592 369,1593 369,1684 368,1685 368,1699 369,1700 369,1710 368,1711 368,1724 367,1725 367,1741 368,1742 368,1753 367,1754 367,1762 368,1763 368,1765 369,1766 369,1769 370,1770 370,1777 371,1778 371,1791 370,1792 370,1811 371,1812 371,1837 370,1838 370,1846 371,1847 371,1857 372,1858 372,1861 371,1862 371,1902 372,1903 372,1906 371,1907 371,1930 372,1931 372,1934 373,1935 373,1936 375,1938 375,1939 376,1939 377,1940 396,1940 397,1941 400,1941 401,1940 427,1940 428,1939 472,1939 473,1938 530,1938 531,1937 570,1937 571,1936 576,1936 577,1935 660,1935 661,1934 675,1934 676,1933 677,1934 701,1934 702,1933 752,1933 753,1932 760,1932 761,1931 777,1931 778,1930 795,1930 796,1931 813,1931 814,1930 835,1930 836,1929 852,1929 853,1928 906,1928 907,1927 912,1927 913,1926 913,1925 914,1924 914,1922 915,1921 915,1918 916,1917 916,1913 917,1912 917,1907 918,1906 918,1899 917,1898 917,1847 916,1846 917,1845 917,1810 916,1809 916,1790 917,1789 917,1776 918,1775 918,1757 917,1756 917,1722 918,1721 918,1685 919,1684 919,1655 918,1654 918,1651 919,1650 919,1609 918,1608 918,1577 917,1576 917,1571 916,1570 916,1569 915,1568 914,1568 913,1567 904,1567" fill="rgba(134,20,72,0.3)" stroke="rgb(134,20,72)" stroke-width="2" data-block-id="0014" data-name="b-0021" /><text x="628" y="1751" text-anchor="middle" dominant-baseline="middle" class="block-label" fill="rgb(134,20,72)" stroke="white" stroke-width="3" paint-order="stroke">b-0021</text><polygon points="388,159 387,160 376,160 375,161 374,161 372,163 372,164 371,165 371,167 370,168 370,171 369,172 369,221 370,222 370,233 369,234 369,256 370,257 370,284 369,285 369,318 368,319 368,327 367,328 367,367 366,368 366,403 367,404 367,413 366,414 366,476 367,477 367,481 368,482 368,483 372,487 373,487 374,488 380,488 381,489 395,489 396,488 402,488 403,487 409,487 410,486 416,486 417,487 453,487 454,488 461,488 462,489 477,489 478,488 491,488 492,487 498,487 499,486 503,486 504,485 545,485 546,486 551,486 552,487 574,487 575,488 581,488 582,487 631,487 632,486 663,486 664,487 672,487 673,488 674,488 675,487 678,487 679,486 682,486 683,485 718,485 719,484 733,484 734,485 741,485 742,486 746,486 747,487 749,487 750,486 765,486 766,487 770,487 771,486 773,486 774,485 776,485 777,484 828,484 829,483 854,483 855,482 857,482 858,483 865,483 866,482 872,482 873,481 882,481 883,482 896,482 897,481 903,481 904,482 906,482 907,483 912,483 913,484 915,484 916,483 924,483 926,481 926,479 927,478 927,475 928,474 928,468 929,467 929,457 928,456 928,409 927,408 927,342 926,341 927,340 927,323 928,322 928,309 927,308 927,281 928,280 928,261 927,260 927,248 928,247 928,198 929,197 929,178 928,177 928,172 927,171 927,170 926,170 924,168 917,168 916,167 872,167 871,166 851,166 850,167 838,167 837,166 834,166 833,165 829,165 828,164 803,164 802,165 761,165 760,164 709,164 708,163 638,163 637,162 626,162 625,161 606,161 605,162 575,162 574,161 557,161 556,160 528,160 527,159 513,159 512,160 452,160 451,161 432,161 431,160 415,160 414,159" fill="rgba(166,17,131,0.3)" stroke="rgb(166,17,131)" stroke-width="2" data-block-id="0015" data-name="b-0022" /><text x="657" y="356" text-anchor="middle" dominant-baseline="middle" class="block-label" fill="rgb(166,17,131)" stroke="white" stroke-width="3" paint-order="stroke">b-0022</text><polygon points="4137,2423 4136,2424 4123,2424 4122,2425 4096,2425 4095,2424 4086,2424 4085,2425 4035,2425 4034,2426 3957,2426 3956,2427 3915,2427 3914,2428 3865,2428 3864,2429 3797,2429 3796,2430 3781,2430 3780,2429 3777,2429 3776,2430 3743,2430 3742,2431 3740,2431 3738,2433 3737,2433 3737,2434 3735,2436 3735,2438 3734,2439 3734,2448 3735,2449 3735,2456 3734,2457 3734,2475 3733,2476 3733,2508 3732,2509 3732,2517 3733,2518 3733,2528 3732,2529 3732,2589 3733,2590 3733,2604 3732,2605 3732,2650 3731,2651 3731,2724 3732,2725 3732,2735 3731,2736 3731,2743 3732,2744 3732,2763 3731,2764 3731,2778 3732,2779 3732,2781 3733,2782 3735,2782 3736,2783 3739,2783 3740,2784 3757,2784 3758,2783 3764,2783 3765,2782 3786,2782 3787,2781 3808,2781 3809,2780 3822,2780 3823,2779 3842,2779 3843,2778 3857,2778 3858,2777 3877,2777 3878,2776 3891,2776 3892,2775 3907,2775 3908,2774 3925,2774 3926,2773 3938,2773 3939,2772 3956,2772 3957,2771 3977,2771 3978,2770 3986,2770 3987,2769 4006,2769 4007,2768 4015,2768 4016,2767 4037,2767 4038,2766 4056,2766 4057,2765 4078,2765 4079,2764 4098,2764 4099,2763 4115,2763 4116,2762 4139,2762 4140,2761 4143,2761 4145,2759 4146,2759 4146,2758 4147,2757 4147,2756 4148,2755 4148,2744 4149,2743 4149,2677 4150,2676 4150,2617 4151,2616 4151,2600 4152,2599 4152,2595 4151,2594 4151,2568 4150,2567 4150,2548 4151,2547 4151,2540 4152,2539 4152,2514 4153,2513 4153,2457 4154,2456 4154,2437 4153,2436 4153,2429 4152,2428 4152,2427 4150,2425 4149,2425 4148,2424 4140,2424 4139,2423" fill="rgba(241,249,8,0.3)" stroke="rgb(241,249,8)" stroke-width="2" data-block-id="0016" data-name="b-0024" /><text x="3935" y="2620" text-anchor="middle" dominant-baseline="middle" class="block-label" fill="rgb(241,249,8)" stroke="white" stroke-width="3" paint-order="stroke">b-0024</text><polygon points="893,2018 892,2019 886,2019 885,2020 877,2020 876,2021 829,2021 828,2022 813,2022 812,2023 802,2023 801,2024 768,2024 767,2025 736,2025 735,2026 726,2026 725,2027 719,2027 718,2026 685,2026 684,2027 645,2027 644,2028 639,2028 638,2029 597,2029 596,2030 586,2030 585,2029 569,2029 568,2030 562,2030 561,2031 558,2031 557,2032 521,2032 520,2033 515,2033 514,2034 510,2034 509,2035 490,2035 489,2034 484,2034 483,2035 479,2035 478,2036 476,2036 475,2037 473,2037 472,2038 462,2038 461,2037 460,2038 433,2038 432,2039 426,2039 425,2040 403,2040 402,2041 399,2041 398,2040 385,2040 384,2041 382,2041 381,2042 380,2042 379,2043 377,2043 374,2046 374,2050 373,2051 373,2124 372,2125 372,2146 373,2147 373,2174 372,2175 372,2190 373,2191 373,2206 374,2207 374,2216 373,2217 373,2245 374,2246 374,2255 373,2256 373,2263 374,2264 374,2266 375,2267 375,2268 379,2272 381,2272 382,2273 384,2273 385,2274 394,2274 395,2275 427,2275 428,2276 467,2276 468,2277 478,2277 479,2278 502,2278 503,2277 515,2277 516,2278 546,2278 547,2279 551,2279 552,2280 560,2280 561,2281 588,2281 589,2282 595,2282 596,2281 610,2281 611,2282 617,2282 618,2281 631,2281 632,2282 635,2282 636,2283 659,2283 660,2284 667,2284 668,2283 677,2283 678,2284 680,2284 681,2285 684,2285 685,2286 689,2286 690,2285 694,2285 695,2284 701,2284 702,2285 705,2285 706,2286 716,2286 717,2285 727,2285 728,2286 730,2286 731,2287 735,2287 736,2288 737,2287 750,2287 751,2288 761,2288 762,2287 765,2287 766,2286 776,2286 777,2287 797,2287 798,2288 811,2288 812,2287 828,2287 829,2288 857,2288 858,2289 867,2289 868,2290 873,2290 874,2291 888,2291 889,2292 896,2292 897,2291 904,2291 905,2290 907,2290 908,2289 910,2289 911,2288 912,2288 913,2287 914,2287 914,2286 915,2285 915,2280 916,2279 916,2242 917,2241 917,2233 916,2232 916,2214 917,2213 917,2182 916,2181 916,2098 917,2097 917,2088 916,2087 916,2082 917,2081 917,2072 918,2071 918,2068 917,2067 917,2034 916,2033 916,2024 915,2023 915,2022 914,2021 913,2021 912,2020 910,2020 909,2019 906,2019 905,2018" fill="rgba(89,52,129,0.3)" stroke="rgb(89,52,129)" stroke-width="2" data-block-id="0017" data-name="b-0025" /><text x="654" y="2169" text-anchor="middle" dominant-baseline="middle" class="block-label" fill="rgb(89,52,129)" stroke="white" stroke-width="3" paint-order="stroke">b-0025</text><polygon points="393,2371 392,2372 384,2372 383,2373 381,2373 377,2377 377,2378 376,2379 376,2419 375,2420 375,2457 374,2458 374,2497 373,2498 373,2528 372,2529 372,2542 373,2543 373,2559 374,2560 374,2584 373,2585 373,2600 372,2601 372,2614 373,2615 373,2617 374,2618 374,2619 375,2620 375,2621 378,2624 379,2624 380,2625 381,2625 382,2626 386,2626 387,2627 395,2627 396,2628 429,2628 430,2629 458,2629 459,2630 470,2630 471,2631 488,2631 489,2632 521,2632 522,2633 544,2633 545,2634 593,2634 594,2633 606,2633 607,2632 615,2632 616,2633 620,2633 621,2634 625,2634 626,2635 654,2635 655,2636 663,2636 664,2637 701,2637 702,2636 739,2636 740,2637 770,2637 771,2636 774,2636 775,2635 776,2635 779,2632 780,2632 780,2630 781,2629 781,2567 782,2566 782,2556 783,2555 783,2548 782,2547 782,2457 783,2456 783,2446 784,2445 784,2433 783,2432 783,2426 782,2425 782,2418 783,2417 783,2413 784,2412 784,2396 783,2395 783,2392 782,2391 782,2390 781,2389 781,2388 780,2387 780,2386 779,2385 778,2385 776,2383 774,2383 773,2382 771,2382 770,2381 763,2381 762,2380 731,2380 730,2379 713,2379 712,2378 694,2378 693,2377 680,2377 679,2376 669,2376 668,2375 667,2376 618,2376 617,2377 614,2377 613,2376 605,2376 604,2375 536,2375 535,2374 519,2374 518,2373 470,2373 469,2372 440,2372 439,2371" fill="rgba(34,205,80,0.3)" stroke="rgb(34,205,80)" stroke-width="2" data-block-id="0018" data-name="b-0030" /><text x="591" y="2506" text-anchor="middle" dominant-baseline="middle" class="block-label" fill="rgb(34,205,80)" stroke="white" stroke-width="3" paint-order="stroke">b-0030</text><polygon points="386,2718 385,2719 383,2719 382,2720 381,2720 380,2721 379,2721 376,2724 376,2725 375,2726 375,2727 374,2728 374,2738 373,2739 373,2760 372,2761 372,2766 373,2767 373,2776 372,2777 372,2797 371,2798 371,2810 372,2811 372,2834 371,2835 371,2864 372,2865 372,2883 371,2884 371,2910 372,2911 372,2951 371,2952 371,2954 372,2955 372,2957 373,2958 373,2959 374,2960 374,2961 375,2962 375,2964 376,2965 376,2966 377,2967 377,2969 378,2970 378,2971 383,2976 384,2976 386,2978 387,2978 388,2979 391,2979 392,2980 395,2980 396,2981 406,2981 407,2980 414,2980 415,2981 419,2981 420,2982 439,2982 440,2983 455,2983 456,2982 463,2982 464,2983 471,2983 472,2984 479,2984 480,2985 495,2985 496,2984 498,2984 499,2983 500,2983 501,2982 502,2982 503,2981 504,2981 505,2980 511,2980 512,2981 540,2981 541,2982 542,2982 543,2981 553,2981 554,2980 562,2980 563,2981 571,2981 572,2982 576,2982 577,2983 584,2983 585,2984 592,2984 593,2983 596,2983 597,2982 599,2982 600,2981 605,2981 606,2982 607,2982 608,2983 609,2983 610,2984 611,2984 612,2985 613,2985 614,2986 615,2986 616,2987 658,2987 659,2988 703,2988 704,2989 718,2989 719,2990 752,2990 753,2991 757,2991 758,2990 762,2990 763,2989 764,2989 765,2988 767,2988 768,2987 769,2987 770,2986 770,2985 771,2984 771,2983 772,2982 772,2978 773,2977 773,2941 774,2940 774,2907 775,2906 775,2901 776,2900 776,2896 777,2895 777,2876 776,2875 776,2865 775,2864 775,2830 776,2829 776,2815 775,2814 775,2806 776,2805 776,2779 777,2778 777,2771 776,2770 776,2756 777,2755 777,2743 776,2742 776,2738 775,2737 775,2736 772,2733 771,2733 770,2732 757,2732 756,2731 729,2731 728,2730 722,2730 721,2729 713,2729 712,2728 702,2728 701,2729 654,2729 653,2728 644,2728 643,2727 633,2727 632,2728 620,2728 619,2729 614,2729 613,2728 610,2728 609,2727 606,2727 605,2726 588,2726 587,2727 586,2727 585,2728 584,2728 583,2729 582,2729 580,2731 577,2731 575,2729 573,2729 572,2728 570,2728 569,2727 548,2727 547,2726 537,2726 536,2727 532,2727 531,2726 527,2726 526,2725 523,2725 522,2724 515,2724 514,2725 511,2725 510,2726 505,2726 504,2725 502,2725 501,2724 499,2724 498,2723 479,2723 478,2722 466,2722 465,2721 450,2721 449,2722 443,2722 442,2723 432,2723 431,2722 429,2722 428,2721 424,2721 423,2720 418,2720 417,2721 411,2721 410,2720 407,2720 406,2719 403,2719 402,2718" fill="rgba(163,49,103,0.3)" stroke="rgb(163,49,103)" stroke-width="2" data-block-id="0019" data-name="b-0031" /><text x="553" y="2854" text-anchor="middle" dominant-baseline="middle" class="block-label" fill="rgb(163,49,103)" stroke="white" stroke-width="3" paint-order="stroke">b-0031</text><polygon points="1225,586 1224,587 1220,587 1219,588 1215,588 1214,589 1209,589 1208,588 1202,588 1201,587 1171,587 1170,588 1130,588 1129,587 1099,587 1098,588 1092,588 1091,589 1086,589 1085,590 1034,590 1033,591 1024,591 1023,592 1020,592 1019,593 1018,593 1017,594 1017,595 1016,596 1016,598 1015,599 1015,608 1016,609 1016,621 1015,622 1015,654 1014,655 1014,658 1013,659 1013,673 1014,674 1014,753 1013,754 1013,830 1014,831 1014,850 1013,851 1013,878 1014,879 1014,892 1013,893 1013,920 1014,921 1014,961 1015,962 1015,963 1017,965 1018,965 1019,966 1021,966 1022,967 1027,967 1028,968 1041,968 1042,967 1052,967 1053,966 1080,966 1081,967 1086,967 1087,968 1107,968 1108,967 1115,967 1116,966 1123,966 1124,965 1158,965 1159,964 1170,964 1171,965 1184,965 1185,964 1206,964 1207,963 1215,963 1216,964 1234,964 1235,963 1240,963 1241,962 1243,962 1244,961 1246,961 1248,959 1249,959 1251,957 1251,956 1252,955 1252,951 1253,950 1253,942 1252,941 1252,934 1253,933 1253,811 1254,810 1254,798 1255,797 1255,772 1254,771 1254,730 1255,729 1255,700 1256,699 1256,609 1257,608 1257,601 1256,600 1256,597 1255,596 1255,595 1254,594 1254,593 1250,589 1250,588 1249,587 1248,587 1247,586 1243,586 1242,587 1229,587 1228,586" fill="rgba(133,53,105,0.3)" stroke="rgb(133,53,105)" stroke-width="2" data-block-id="0020" data-name="b-0033" /><text x="1138" y="775" text-anchor="middle" dominant-baseline="middle" class="block-label" fill="rgb(133,53,105)" stroke="white" stroke-width="3" paint-order="stroke">b-0033</text><polygon points="1207,1072 1206,1073 1166,1073 1165,1074 1112,1074 1111,1075 1103,1075 1102,1074 1065,1074 1064,1075 1037,1075 1036,1076 1032,1076 1031,1075 1020,1075 1019,1076 1018,1076 1015,1079 1015,1080 1014,1081 1014,1085 1013,1086 1013,1117 1012,1118 1012,1154 1011,1155 1011,1195 1010,1196 1010,1208 1011,1209 1011,1231 1010,1232 1010,1367 1009,1368 1009,1389 1010,1390 1010,1400 1009,1401 1009,1425 1010,1426 1010,1440 1011,1441 1011,1444 1012,1445 1012,1446 1013,1447 1014,1447 1015,1448 1019,1448 1020,1449 1025,1449 1026,1448 1042,1448 1043,1449 1051,1449 1052,1448 1072,1448 1073,1447 1105,1447 1106,1446 1144,1446 1145,1447 1158,1447 1159,1446 1166,1446 1167,1445 1172,1445 1173,1444 1185,1444 1186,1443 1189,1443 1190,1444 1198,1444 1199,1445 1229,1445 1230,1444 1236,1444 1237,1443 1238,1443 1241,1440 1241,1439 1242,1438 1242,1432 1243,1431 1243,1399 1244,1398 1244,1352 1245,1351 1245,1342 1246,1341 1246,1272 1247,1271 1247,1244 1246,1243 1246,1230 1247,1229 1247,1211 1248,1210 1248,1186 1247,1185 1247,1181 1246,1180 1246,1170 1247,1169 1247,1144 1248,1143 1248,1119 1249,1118 1249,1081 1248,1080 1248,1078 1246,1076 1246,1075 1244,1073 1242,1073 1241,1072" fill="rgba(190,145,217,0.3)" stroke="rgb(190,145,217)" stroke-width="2" data-block-id="0021" data-name="b-0035" /><text x="1130" y="1280" text-anchor="middle" dominant-baseline="middle" class="block-label" fill="rgb(190,145,217)" stroke="white" stroke-width="3" paint-order="stroke">b-0035</text><polygon points="2608,638 2607,639 2606,639 2603,642 2603,643 2602,644 2602,647 2601,648 2601,654 2602,655 2602,668 2601,669 2601,715 2600,716 2600,735 2599,736 2599,771 2598,772 2598,803 2597,804 2597,811 2598,812 2598,819 2597,820 2597,834 2598,835 2598,868 2597,869 2597,930 2598,931 2598,935 2599,936 2599,937 2601,939 2603,939 2604,940 2618,940 2619,939 2640,939 2641,938 2659,938 2660,937 2667,937 2668,936 2695,936 2696,937 2704,937 2705,936 2711,936 2712,935 2720,935 2721,934 2740,934 2741,933 2762,933 2763,932 2772,932 2773,931 2777,931 2778,932 2785,932 2786,933 2796,933 2797,932 2812,932 2813,931 2843,931 2844,930 2852,930 2853,931 2860,931 2861,930 2869,930 2870,929 2907,929 2908,928 2914,928 2915,927 2923,927 2924,926 2971,926 2972,925 2995,925 2996,926 3008,926 3009,925 3015,925 3016,924 3065,924 3066,923 3073,923 3074,922 3079,922 3080,921 3091,921 3092,922 3100,922 3101,921 3103,921 3104,920 3106,920 3107,919 3108,919 3110,917 3111,917 3112,916 3112,915 3113,914 3113,913 3112,912 3112,911 3110,909 3110,908 3108,906 3108,905 3104,901 3103,901 3101,899 3100,899 3099,898 3098,898 3097,897 3096,897 3095,896 3094,896 3093,895 3092,895 3091,894 3090,894 3086,890 3085,890 3084,889 3080,889 3079,888 3076,888 3075,887 3073,887 3072,886 3071,886 3069,884 3068,884 3059,875 3058,875 3056,873 3055,873 3054,872 3053,872 3052,871 3050,871 3049,870 3048,870 3046,868 3045,868 3044,867 3043,867 3042,866 3040,866 3039,865 3037,865 3036,864 3035,864 3034,863 3032,863 3031,862 3029,862 3028,861 3026,861 3025,860 3016,860 3013,857 3013,856 3012,855 3012,854 3001,843 2999,843 2998,842 2997,842 2996,841 2994,841 2993,840 2991,840 2990,839 2987,839 2986,838 2984,838 2983,837 2981,837 2980,836 2979,836 2978,835 2977,835 2976,834 2975,834 2967,826 2966,826 2964,824 2962,824 2960,822 2959,822 2956,819 2954,819 2953,818 2952,818 2950,816 2948,816 2947,815 2945,815 2944,814 2942,814 2941,813 2933,813 2932,812 2930,812 2929,811 2928,811 2919,802 2919,801 2918,800 2918,798 2917,797 2917,796 2913,792 2912,792 2911,791 2910,791 2909,790 2908,790 2907,789 2906,789 2905,788 2904,788 2903,787 2902,787 2901,786 2899,786 2898,785 2897,785 2896,784 2894,784 2893,783 2892,783 2890,781 2889,781 2888,780 2887,780 2886,779 2885,779 2884,778 2882,778 2881,777 2879,777 2878,776 2877,776 2876,775 2875,775 2868,768 2867,768 2865,766 2864,766 2863,765 2862,765 2861,764 2860,764 2859,763 2858,763 2856,761 2855,761 2854,760 2853,760 2851,758 2850,758 2849,757 2848,757 2847,756 2846,756 2845,755 2844,755 2843,754 2842,754 2841,753 2840,753 2839,752 2837,752 2836,751 2834,751 2833,750 2832,750 2831,749 2830,749 2829,748 2828,748 2827,747 2826,747 2825,746 2824,746 2823,745 2822,745 2821,744 2820,744 2819,743 2818,743 2817,742 2816,742 2815,741 2814,741 2813,740 2812,740 2811,739 2810,739 2809,738 2807,738 2806,737 2805,737 2804,736 2803,736 2800,733 2799,733 2798,732 2797,732 2796,731 2795,731 2794,730 2793,730 2791,728 2790,728 2789,727 2788,727 2787,726 2785,726 2784,725 2783,725 2782,724 2781,724 2780,723 2779,723 2777,721 2776,721 2773,718 2772,718 2771,717 2770,717 2769,716 2768,716 2767,715 2765,715 2764,714 2762,714 2761,713 2759,713 2758,712 2757,712 2756,711 2755,711 2753,709 2751,709 2750,708 2748,708 2747,707 2746,707 2745,706 2744,706 2743,705 2742,705 2741,704 2740,704 2739,703 2737,703 2736,702 2734,702 2733,701 2732,701 2731,700 2730,700 2729,699 2728,699 2727,698 2726,698 2725,697 2724,697 2723,696 2721,696 2720,695 2719,695 2718,694 2717,694 2716,693 2715,693 2714,692 2713,692 2712,691 2711,691 2709,689 2708,689 2705,686 2704,686 2702,684 2700,684 2699,683 2698,683 2697,682 2696,682 2695,681 2694,681 2693,680 2692,680 2689,677 2689,676 2688,675 2687,675 2685,673 2684,673 2683,672 2682,672 2681,671 2679,671 2678,670 2676,670 2675,669 2674,669 2673,668 2672,668 2671,667 2670,667 2669,666 2668,666 2667,665 2666,665 2665,664 2664,664 2659,659 2658,659 2656,657 2655,657 2654,656 2652,656 2651,655 2649,655 2648,654 2647,654 2646,653 2645,653 2643,651 2642,651 2638,647 2637,647 2636,646 2635,646 2634,645 2632,645 2631,644 2629,644 2628,643 2626,643 2625,642 2621,642 2620,641 2616,641 2615,640 2613,640 2612,639 2610,639 2609,638" fill="rgba(43,161,201,0.3)" stroke="rgb(43,161,201)" stroke-width="2" data-block-id="0022" data-name="b-0036" /><text x="2835" y="788" text-anchor="middle" dominant-baseline="middle" class="block-label" fill="rgb(43,161,201)" stroke="white" stroke-width="3" paint-order="stroke">b-0036</text><polygon points="1211,1555 1210,1556 1198,1556 1197,1557 1184,1557 1183,1558 1160,1558 1159,1559 1126,1559 1125,1560 1116,1560 1115,1561 1098,1561 1097,1560 1082,1560 1081,1561 1070,1561 1069,1562 1056,1562 1055,1561 1041,1561 1040,1562 1020,1562 1019,1563 1016,1563 1015,1564 1014,1564 1013,1565 1012,1565 1008,1569 1008,1635 1007,1636 1007,1657 1008,1658 1008,1683 1009,1684 1009,1693 1008,1694 1008,1765 1009,1766 1009,1826 1008,1827 1008,1877 1009,1878 1009,1882 1008,1883 1008,1916 1009,1917 1009,1919 1011,1921 1011,1922 1012,1922 1013,1923 1015,1923 1016,1924 1036,1924 1037,1923 1043,1923 1044,1922 1051,1922 1052,1921 1066,1921 1067,1920 1091,1920 1092,1919 1131,1919 1132,1918 1159,1918 1160,1917 1173,1917 1174,1918 1178,1918 1179,1917 1198,1917 1199,1918 1206,1918 1207,1917 1225,1917 1226,1916 1228,1916 1229,1915 1230,1915 1231,1914 1232,1914 1234,1912 1234,1911 1235,1910 1235,1909 1236,1908 1236,1866 1237,1865 1237,1838 1238,1837 1238,1830 1237,1829 1237,1815 1238,1814 1238,1779 1239,1778 1239,1701 1240,1700 1240,1675 1239,1674 1239,1646 1240,1645 1240,1580 1241,1579 1241,1562 1240,1561 1240,1559 1239,1558 1239,1557 1238,1557 1237,1556 1236,1556 1235,1555" fill="rgba(189,227,13,0.3)" stroke="rgb(189,227,13)" stroke-width="2" data-block-id="0023" data-name="b-0037" /><text x="1128" y="1748" text-anchor="middle" dominant-baseline="middle" class="block-label" fill="rgb(189,227,13)" stroke="white" stroke-width="3" paint-order="stroke">b-0037</text><polygon points="1086,173 1085,174 1080,174 1079,175 1077,175 1076,176 1074,176 1073,177 1053,177 1052,178 1047,178 1046,179 1041,179 1040,178 1030,178 1029,179 1025,179 1024,180 1022,180 1021,181 1020,181 1019,182 1018,182 1017,183 1017,184 1015,186 1015,190 1014,191 1014,195 1013,196 1013,199 1012,200 1012,203 1011,204 1011,214 1012,215 1012,218 1013,219 1013,224 1014,225 1014,237 1015,238 1015,259 1016,260 1016,300 1015,301 1015,311 1016,312 1016,321 1015,322 1015,332 1016,333 1016,360 1015,361 1015,383 1016,384 1016,396 1015,397 1015,413 1014,414 1014,423 1013,424 1013,427 1012,428 1012,431 1011,432 1011,444 1012,445 1012,449 1013,450 1013,453 1014,454 1014,456 1015,457 1015,460 1016,461 1016,466 1017,467 1017,470 1020,473 1021,473 1022,474 1024,474 1025,475 1029,475 1030,476 1036,476 1037,477 1055,477 1056,478 1073,478 1074,479 1089,479 1090,480 1121,480 1122,481 1126,481 1127,482 1139,482 1140,481 1145,481 1146,480 1155,480 1156,481 1158,481 1159,482 1161,482 1162,483 1167,483 1168,482 1171,482 1172,481 1178,481 1179,480 1194,480 1195,479 1198,479 1199,478 1208,478 1209,479 1213,479 1214,478 1221,478 1222,477 1235,477 1236,478 1251,478 1252,477 1253,477 1256,474 1256,473 1257,472 1257,471 1258,470 1258,468 1259,467 1259,464 1260,463 1260,454 1259,453 1259,448 1258,447 1258,444 1259,443 1259,431 1258,430 1258,420 1259,419 1259,405 1258,404 1258,396 1259,395 1259,384 1258,383 1258,378 1257,377 1257,373 1258,372 1258,367 1259,366 1259,360 1258,359 1258,337 1257,336 1257,334 1256,333 1256,331 1255,330 1255,326 1256,325 1256,322 1257,321 1257,319 1258,318 1258,316 1259,315 1259,311 1260,310 1260,305 1261,304 1261,300 1262,299 1262,289 1261,288 1261,287 1260,286 1260,284 1259,283 1259,282 1258,281 1258,278 1259,277 1259,274 1260,273 1260,267 1261,266 1261,255 1262,254 1262,225 1263,224 1263,218 1262,217 1262,197 1263,196 1263,195 1262,194 1262,184 1259,181 1257,181 1256,180 1254,180 1253,179 1251,179 1250,178 1246,178 1245,179 1240,179 1239,180 1230,180 1229,179 1218,179 1217,180 1211,180 1210,179 1206,179 1205,178 1201,178 1200,177 1187,177 1186,176 1179,176 1178,175 1171,175 1170,174 1145,174 1144,175 1142,175 1141,174 1103,174 1102,173" fill="rgba(236,81,110,0.3)" stroke="rgb(236,81,110)" stroke-width="2" data-block-id="0024" data-name="b-0042" /><text x="1149" y="329" text-anchor="middle" dominant-baseline="middle" class="block-label" fill="rgb(236,81,110)" stroke="white" stroke-width="3" paint-order="stroke">b-0042</text><polygon points="1202,2009 1201,2010 1196,2010 1195,2011 1192,2011 1191,2012 1179,2012 1178,2011 1177,2012 1167,2012 1166,2013 1112,2013 1111,2014 1096,2014 1095,2015 1066,2015 1065,2016 1034,2016 1033,2017 1018,2017 1017,2018 1012,2018 1011,2019 1010,2019 1008,2021 1008,2023 1007,2024 1007,2031 1006,2032 1006,2046 1007,2047 1007,2086 1008,2087 1008,2100 1007,2101 1007,2105 1006,2106 1006,2113 1005,2114 1005,2121 1006,2122 1006,2128 1007,2129 1007,2136 1006,2137 1006,2176 1007,2177 1007,2268 1006,2269 1006,2285 1007,2286 1007,2287 1008,2288 1008,2289 1009,2290 1010,2290 1011,2291 1012,2291 1013,2292 1015,2292 1016,2293 1019,2293 1020,2294 1025,2294 1026,2293 1055,2293 1056,2294 1067,2294 1068,2295 1073,2295 1074,2294 1094,2294 1095,2293 1105,2293 1106,2292 1107,2293 1119,2293 1120,2294 1137,2294 1138,2293 1142,2293 1143,2294 1147,2294 1148,2295 1166,2295 1167,2296 1174,2296 1175,2297 1180,2297 1181,2296 1191,2296 1192,2297 1196,2297 1197,2298 1205,2298 1206,2299 1224,2299 1225,2298 1226,2298 1230,2294 1230,2292 1231,2291 1231,2288 1232,2287 1232,2262 1233,2261 1233,2221 1234,2220 1234,2158 1235,2157 1235,2050 1236,2049 1236,2043 1235,2042 1235,2027 1236,2026 1236,2024 1235,2023 1235,2018 1234,2017 1234,2015 1231,2012 1230,2012 1229,2011 1228,2011 1227,2010 1204,2010 1203,2009" fill="rgba(123,236,40,0.3)" stroke="rgb(123,236,40)" stroke-width="2" data-block-id="0025" data-name="b-0045" /><text x="1114" y="2162" text-anchor="middle" dominant-baseline="middle" class="block-label" fill="rgb(123,236,40)" stroke="white" stroke-width="3" paint-order="stroke">b-0045</text><polygon points="874,2384 873,2385 872,2385 870,2387 870,2388 869,2389 869,2438 868,2439 868,2505 867,2506 867,2514 868,2515 868,2532 867,2533 867,2565 866,2566 866,2626 867,2627 867,2632 870,2635 871,2635 872,2636 874,2636 875,2637 877,2637 878,2638 881,2638 882,2639 886,2639 887,2640 916,2640 917,2641 925,2641 926,2642 936,2642 937,2643 940,2643 941,2642 955,2642 956,2643 1030,2643 1031,2642 1041,2642 1042,2643 1073,2643 1074,2642 1081,2642 1082,2641 1083,2641 1084,2640 1085,2640 1089,2636 1089,2635 1090,2634 1090,2633 1091,2632 1091,2630 1092,2629 1092,2624 1093,2623 1093,2613 1094,2612 1094,2588 1095,2587 1095,2561 1096,2560 1096,2501 1097,2500 1097,2475 1098,2474 1098,2445 1099,2444 1099,2408 1100,2407 1100,2394 1099,2393 1099,2392 1098,2391 1097,2391 1096,2390 1094,2390 1093,2389 1048,2389 1047,2388 1027,2388 1026,2387 1017,2387 1016,2388 999,2388 998,2387 995,2387 994,2386 990,2386 989,2385 978,2385 977,2384 969,2384 968,2385 963,2385 962,2386 943,2386 942,2385 909,2385 908,2384" fill="rgba(62,138,242,0.3)" stroke="rgb(62,138,242)" stroke-width="2" data-block-id="0026" data-name="b-0050" /><text x="988" y="2521" text-anchor="middle" dominant-baseline="middle" class="block-label" fill="rgb(62,138,242)" stroke="white" stroke-width="3" paint-order="stroke">b-0050</text><polygon points="872,2735 871,2736 868,2736 867,2737 866,2737 865,2738 865,2739 864,2740 864,2773 863,2774 863,2804 862,2805 862,2832 861,2833 861,2836 862,2837 862,2870 863,2871 863,2881 862,2882 862,2884 861,2885 861,2887 860,2888 860,2894 859,2895 859,2909 860,2910 860,2924 859,2925 859,2971 858,2972 858,2982 859,2983 859,2986 862,2989 865,2989 866,2990 907,2990 908,2991 932,2991 933,2992 946,2992 947,2991 952,2991 953,2992 971,2992 972,2993 985,2993 986,2994 988,2994 989,2993 1015,2993 1016,2994 1052,2994 1053,2995 1080,2995 1081,2994 1082,2994 1084,2992 1084,2990 1085,2989 1085,2953 1086,2952 1086,2901 1087,2900 1087,2874 1088,2873 1088,2853 1089,2852 1089,2781 1090,2780 1090,2747 1089,2746 1089,2743 1088,2742 1088,2741 1087,2741 1086,2740 1085,2740 1084,2739 1080,2739 1079,2738 1078,2739 1056,2739 1055,2738 1009,2738 1008,2737 998,2737 997,2736 905,2736 904,2735 893,2735 892,2736 890,2736 889,2735" fill="rgba(80,135,162,0.3)" stroke="rgb(80,135,162)" stroke-width="2" data-block-id="0027" data-name="b-0051" /><text x="960" y="2864" text-anchor="middle" dominant-baseline="middle" class="block-label" fill="rgb(80,135,162)" stroke="white" stroke-width="3" paint-order="stroke">b-0051</text></g>
</svg>