<?xml version='1.0' encoding='utf-8'?>
<svg xmlns="http://www.w3.org/2000/svg" xmlns:atlas="http://example.com/atlas" width="4984" height="3248" viewBox="0 0 4984 3248">
  
  <metadata>
    <atlas:source>
      <atlas:jp2-path>/Users/pwright/workspace/atlas/media/v2/p34.jp2</atlas:jp2-path>
      <atlas:volume>unknown</atlas:volume>
      <atlas:plate-id>p34</atlas:plate-id>
      <atlas:image-width>4984</atlas:image-width>
      <atlas:image-height>3248</atlas:image-height>
    <atlas:angle>0.0</atlas:angle><atlas:scale>1.3333333333333333</atlas:scale><atlas:pos-x>2902.8818788670524</atlas:pos-x><atlas:pos-y>795.8811737025684</atlas:pos-y></atlas:source>
  </metadata>

  
  <image id="background" href="file:///Users/pwright/workspace/atlas/media/v2/p34.jp2" width="4984" height="3248" opacity="0.5" />

  <style>
    .block-label { font-family: sans-serif; font-size: 14px; font-weight: bold; }
  </style>

  
  <g id="blocks">
    <polygon points="2580,2164 2579,2165 2556,2165 2555,2166 2530,2166 2529,2167 2491,2167 2490,2168 2434,2168 2433,2169 2349,2169 2348,2168 2335,2168 2334,2167 2309,2167 2308,2166 2285,2166 2284,2167 2280,2167 2279,2168 2274,2168 2273,2169 2232,2169 2231,2170 2193,2170 2192,2171 2182,2171 2181,2172 2170,2172 2169,2173 2135,2173 2134,2172 2127,2172 2126,2173 2109,2173 2108,2172 2078,2172 2077,2173 2071,2173 2070,2172 2062,2172 2061,2171 2054,2171 2053,2170 1977,2170 1976,2171 1969,2171 1968,2172 1964,2172 1963,2173 1960,2173 1959,2174 1958,2174 1958,2175 1957,2176 1957,2177 1956,2178 1956,2179 1955,2180 1955,2182 1954,2183 1954,2186 1953,2187 1953,2219 1954,2220 1954,2233 1953,2234 1953,2261 1954,2262 1954,2308 1953,2309 1953,2317 1952,2318 1952,2355 1953,2356 1953,2390 1952,2391 1952,2400 1951,2401 1951,2410 1952,2411 1952,2427 1953,2428 1953,2466 1952,2467 1952,2490 1953,2491 1953,2507 1952,2508 1952,2516 1951,2517 1951,2524 1952,2525 1952,2528 1953,2529 1953,2531 1955,2533 1955,2534 1958,2537 1960,2537 1961,2538 1964,2538 1965,2539 1970,2539 1971,2540 1981,2540 1982,2541 2002,2541 2003,2542 2020,2542 2021,2541 2028,2541 2029,2540 2049,2540 2050,2541 2088,2541 2089,2542 2095,2542 2096,2541 2177,2541 2178,2542 2194,2542 2195,2543 2218,2543 2219,2542 2273,2542 2274,2543 2280,2543 2281,2544 2333,2544 2334,2543 2343,2543 2344,2542 2362,2542 2363,2541 2367,2541 2368,2542 2398,2542 2399,2541 2432,2541 2433,2540 2450,2540 2451,2539 2462,2539 2463,2538 2495,2538 2496,2537 2505,2537 2506,2536 2512,2536 2513,2535 2520,2535 2521,2534 2528,2534 2529,2533 2536,2533 2537,2532 2555,2532 2556,2531 2566,2531 2567,2530 2573,2530 2574,2529 2580,2529 2581,2528 2587,2528 2588,2527 2594,2527 2595,2526 2618,2526 2619,2527 2624,2527 2625,2528 2630,2528 2631,2529 2639,2529 2640,2530 2642,2530 2643,2529 2661,2529 2662,2530 2678,2530 2679,2531 2704,2531 2705,2532 2741,2532 2742,2533 2760,2533 2761,2534 2893,2534 2894,2535 2904,2535 2905,2536 2919,2536 2920,2535 2947,2535 2948,2534 3000,2534 3001,2535 3020,2535 3021,2534 3040,2534 3041,2533 3056,2533 3057,2534 3103,2534 3104,2533 3108,2533 3109,2532 3110,2532 3111,2531 3112,2531 3118,2525 3118,2523 3119,2522 3119,2430 3120,2429 3120,2402 3119,2401 3119,2344 3120,2343 3120,2312 3119,2311 3119,2257 3118,2256 3118,2231 3119,2230 3119,2180 3118,2179 3118,2173 3117,2172 3117,2171 3115,2169 3114,2169 3113,2168 3111,2168 3110,2167 3105,2167 3104,2166 3098,2166 3097,2167 3038,2167 3037,2166 3019,2166 3018,2167 2982,2167 2981,2166 2974,2166 2973,2165 2950,2165 2949,2166 2934,2166 2933,2167 2921,2167 2920,2166 2875,2166 2874,2165 2872,2165 2871,2166 2857,2166 2856,2167 2844,2167 2843,2168 2835,2168 2834,2169 2816,2169 2815,2168 2814,2168 2813,2169 2776,2169 2775,2170 2732,2170 2731,2169 2684,2169 2683,2168 2664,2168 2663,2167 2651,2167 2650,2166 2613,2166 2612,2165 2605,2165 2604,2164" fill="rgba(151,130,149,0.3)" stroke="rgb(151,130,149)" stroke-width="2" data-block-id="0001" data-name="b-0008" /><text x="2477" y="2357" text-anchor="middle" dominant-baseline="middle" class="block-label" fill="rgb(151,130,149)" stroke="white" stroke-width="3" paint-order="stroke">b-0008</text><polygon points="2592,2638 2591,2639 2578,2639 2577,2640 2569,2640 2568,2641 2561,2641 2560,2642 2554,2642 2553,2643 2548,2643 2547,2644 2543,2644 2542,2645 2537,2645 2536,2646 2525,2646 2524,2647 2512,2647 2511,2646 2475,2646 2474,2647 2464,2647 2463,2648 2369,2648 2368,2649 2367,2649 2366,2648 2353,2648 2352,2647 2342,2647 2341,2648 2332,2648 2331,2649 2294,2649 2293,2648 2248,2648 2247,2649 2233,2649 2232,2648 2180,2648 2179,2649 2150,2649 2149,2650 2135,2650 2134,2651 2102,2651 2101,2652 2083,2652 2082,2653 2070,2653 2069,2652 2060,2652 2059,2651 2046,2651 2045,2652 2023,2652 2022,2653 1989,2653 1988,2652 1973,2652 1972,2653 1967,2653 1966,2654 1962,2654 1961,2655 1959,2655 1958,2656 1957,2656 1956,2657 1956,2658 1954,2660 1954,2661 1953,2662 1953,2668 1952,2669 1952,2695 1953,2696 1953,2737 1952,2738 1952,2766 1953,2767 1953,2943 1952,2944 1952,3008 1953,3009 1953,3012 1954,3013 1954,3014 1959,3019 1961,3019 1962,3020 1966,3020 1967,3021 1971,3021 1972,3022 1984,3022 1985,3023 2003,3023 2004,3022 2066,3022 2067,3021 2098,3021 2099,3020 2144,3020 2145,3019 2207,3019 2208,3018 2257,3018 2258,3019 2269,3019 2270,3020 2271,3020 2272,3019 2291,3019 2292,3020 2318,3020 2319,3019 2338,3019 2339,3020 2348,3020 2349,3019 2358,3019 2359,3018 2375,3018 2376,3017 2396,3017 2397,3016 2409,3016 2410,3015 2417,3015 2418,3014 2433,3014 2434,3013 2463,3013 2464,3012 2491,3012 2492,3013 2520,3013 2521,3012 2527,3012 2528,3011 2533,3011 2534,3010 2540,3010 2541,3009 2564,3009 2565,3008 2574,3008 2575,3007 2582,3007 2583,3006 2590,3006 2591,3005 2599,3005 2600,3004 2607,3004 2608,3003 2618,3003 2619,3002 2620,3002 2621,3003 2630,3003 2631,3004 2641,3004 2642,3005 2649,3005 2650,3006 2655,3006 2656,3007 2662,3007 2663,3008 2680,3008 2681,3009 2690,3009 2691,3010 2721,3010 2722,3011 2729,3011 2730,3012 2755,3012 2756,3013 2802,3013 2803,3014 2915,3014 2916,3013 2919,3013 2920,3012 2922,3012 2923,3011 2924,3011 2927,3008 2928,3008 2929,3007 2931,3007 2932,3006 2935,3006 2936,3007 2947,3007 2948,3008 2951,3008 2952,3009 2954,3009 2955,3010 2959,3010 2960,3011 2969,3011 2970,3012 2978,3012 2979,3013 2984,3013 2985,3014 3086,3014 3087,3013 3090,3013 3091,3014 3103,3014 3104,3013 3109,3013 3110,3012 3112,3012 3113,3011 3114,3011 3118,3007 3118,3006 3119,3005 3119,3004 3120,3003 3120,3001 3121,3000 3121,2998 3122,2997 3122,2995 3123,2994 3123,2978 3122,2977 3122,2955 3123,2954 3123,2945 3122,2944 3122,2924 3121,2923 3121,2890 3122,2889 3122,2880 3123,2879 3123,2858 3122,2857 3122,2836 3121,2835 3121,2809 3122,2808 3122,2790 3121,2789 3121,2783 3120,2782 3120,2743 3119,2742 3119,2732 3120,2731 3120,2720 3121,2719 3121,2712 3120,2711 3120,2673 3119,2672 3119,2665 3118,2664 3118,2660 3117,2659 3117,2658 3116,2657 3116,2656 3112,2652 3111,2652 3110,2651 3109,2651 3108,2650 3105,2650 3104,2649 3080,2649 3079,2648 3042,2648 3041,2647 3020,2647 3019,2648 2983,2648 2982,2647 2973,2647 2972,2646 2943,2646 2942,2647 2917,2647 2916,2646 2888,2646 2887,2645 2852,2645 2851,2644 2798,2644 2797,2645 2788,2645 2787,2644 2765,2644 2764,2645 2746,2645 2745,2644 2723,2644 2722,2645 2706,2645 2705,2644 2676,2644 2675,2643 2670,2643 2669,2642 2665,2642 2664,2641 2659,2641 2658,2640 2649,2640 2648,2639 2635,2639 2634,2638" fill="rgba(52,1,87,0.3)" stroke="rgb(52,1,87)" stroke-width="2" data-block-id="0002" data-name="b-0009" /><text x="2607" y="2838" text-anchor="middle" dominant-baseline="middle" class="block-label" fill="rgb(52,1,87)" stroke="white" stroke-width="3" paint-order="stroke">b-0009</text><polygon points="2278,1681 2277,1682 2253,1682 2252,1683 2244,1683 2243,1684 2238,1684 2237,1685 2234,1685 2233,1686 2228,1686 2227,1687 2218,1687 2217,1686 2210,1686 2209,1687 2197,1687 2196,1688 2190,1688 2189,1689 2182,1689 2181,1690 2170,1690 2169,1691 2152,1691 2151,1690 2058,1690 2057,1689 2030,1689 2029,1690 1996,1690 1995,1689 1990,1689 1989,1688 1985,1688 1984,1687 1981,1687 1980,1686 1972,1686 1971,1687 1968,1687 1967,1688 1965,1688 1964,1689 1963,1689 1962,1690 1961,1690 1960,1691 1959,1691 1956,1694 1956,1695 1954,1697 1954,1698 1953,1699 1953,1700 1952,1701 1952,1704 1951,1705 1951,1714 1950,1715 1950,1733 1951,1734 1951,1759 1952,1760 1952,1787 1951,1788 1951,1796 1950,1797 1950,1820 1951,1821 1951,1828 1952,1829 1952,1833 1953,1834 1953,1838 1954,1839 1954,1864 1953,1865 1953,1880 1952,1881 1952,1991 1953,1992 1953,2001 1952,2002 1952,2040 1953,2041 1953,2046 1954,2047 1954,2050 1955,2051 1955,2052 1957,2054 1958,2054 1959,2055 1961,2055 1962,2056 1967,2056 1968,2057 1999,2057 2000,2058 2169,2058 2170,2057 2177,2057 2178,2056 2181,2056 2182,2055 2186,2055 2187,2054 2197,2054 2198,2053 2237,2053 2238,2052 2391,2052 2392,2053 2410,2053 2411,2052 2485,2052 2486,2053 2496,2053 2497,2054 2509,2054 2510,2055 2523,2055 2524,2056 2545,2056 2546,2055 2553,2055 2554,2054 2657,2054 2658,2055 2673,2055 2674,2056 2680,2056 2681,2055 2690,2055 2691,2054 2697,2054 2698,2053 2719,2053 2720,2052 2745,2052 2746,2053 2759,2053 2760,2054 2768,2054 2769,2055 2776,2055 2777,2056 2784,2056 2785,2057 2819,2057 2820,2056 2829,2056 2830,2055 2835,2055 2836,2054 2840,2054 2841,2053 2845,2053 2846,2052 2856,2052 2857,2051 2903,2051 2904,2050 2940,2050 2941,2049 2960,2049 2961,2050 2999,2050 3000,2051 3009,2051 3010,2052 3026,2052 3027,2053 3103,2053 3104,2052 3107,2052 3108,2051 3109,2051 3110,2050 3111,2050 3115,2046 3115,2045 3116,2044 3116,2042 3117,2041 3117,2038 3118,2037 3118,2026 3119,2025 3119,1967 3120,1966 3120,1928 3119,1927 3119,1875 3120,1874 3120,1835 3119,1834 3119,1828 3118,1827 3118,1824 3117,1823 3117,1812 3118,1811 3118,1792 3117,1791 3117,1776 3118,1775 3118,1719 3117,1718 3117,1711 3116,1710 3116,1707 3115,1706 3115,1704 3114,1703 3114,1701 3112,1699 3112,1698 3109,1695 3108,1695 3107,1694 3106,1694 3105,1693 3078,1693 3077,1692 3054,1692 3053,1693 3034,1693 3033,1694 3011,1694 3010,1695 3009,1695 3008,1694 2926,1694 2925,1693 2869,1693 2868,1694 2842,1694 2841,1693 2817,1693 2816,1694 2809,1694 2808,1693 2733,1693 2732,1692 2654,1692 2653,1693 2632,1693 2631,1694 2621,1694 2620,1695 2613,1695 2612,1694 2532,1694 2531,1693 2523,1693 2522,1692 2512,1692 2511,1691 2501,1691 2500,1690 2495,1690 2494,1689 2490,1689 2489,1688 2484,1688 2483,1687 2473,1687 2472,1688 2464,1688 2463,1687 2460,1687 2459,1686 2458,1686 2457,1685 2455,1685 2454,1684 2452,1684 2451,1683 2448,1683 2447,1682 2428,1682 2427,1683 2393,1683 2392,1684 2338,1684 2337,1683 2332,1683 2331,1682 2327,1682 2326,1681" fill="rgba(235,157,37,0.3)" stroke="rgb(235,157,37)" stroke-width="2" data-block-id="0003" data-name="b-0010" /><text x="2510" y="1844" text-anchor="middle" dominant-baseline="middle" class="block-label" fill="rgb(235,157,37)" stroke="white" stroke-width="3" paint-order="stroke">b-0010</text><polygon points="2037,1205 2036,1206 1980,1206 1979,1207 1973,1207 1972,1208 1969,1208 1968,1209 1965,1209 1964,1210 1961,1210 1960,1211 1959,1211 1955,1215 1955,1216 1954,1217 1954,1223 1953,1224 1953,1249 1954,1250 1954,1303 1953,1304 1953,1324 1954,1325 1954,1407 1955,1408 1955,1440 1956,1441 1956,1452 1955,1453 1955,1456 1954,1457 1954,1462 1953,1463 1953,1470 1952,1471 1952,1499 1951,1500 1951,1531 1950,1532 1950,1555 1951,1556 1951,1561 1952,1562 1952,1565 1953,1566 1953,1568 1954,1569 1954,1570 1955,1571 1956,1571 1959,1574 1961,1574 1962,1575 1964,1575 1965,1576 1967,1576 1968,1577 1972,1577 1973,1578 1983,1578 1984,1577 2006,1577 2007,1578 2057,1578 2058,1577 2076,1577 2077,1578 2080,1578 2081,1579 2085,1579 2086,1580 2101,1580 2102,1579 2107,1579 2108,1578 2113,1578 2114,1577 2132,1577 2133,1576 2143,1576 2144,1575 2169,1575 2170,1574 2185,1574 2186,1573 2217,1573 2218,1572 2253,1572 2254,1571 2259,1571 2260,1570 2262,1570 2263,1569 2264,1569 2265,1568 2271,1568 2273,1570 2275,1570 2276,1571 2279,1571 2280,1572 2294,1572 2295,1571 2299,1571 2300,1570 2303,1570 2304,1569 2332,1569 2333,1568 2340,1568 2341,1567 2354,1567 2355,1568 2411,1568 2412,1569 2458,1569 2459,1568 2474,1568 2475,1569 2526,1569 2527,1568 2532,1568 2533,1567 2550,1567 2551,1568 2600,1568 2601,1569 2643,1569 2644,1570 2668,1570 2669,1569 2678,1569 2679,1568 2685,1568 2686,1567 2690,1567 2691,1566 2698,1566 2699,1567 2701,1567 2702,1568 2705,1568 2706,1569 2710,1569 2711,1570 2721,1570 2722,1569 2729,1569 2730,1568 2760,1568 2761,1569 2776,1569 2777,1570 2874,1570 2875,1571 2882,1571 2883,1572 2889,1572 2890,1573 2899,1573 2900,1574 2924,1574 2925,1573 2946,1573 2947,1574 2958,1574 2959,1575 2998,1575 2999,1576 3014,1576 3015,1575 3021,1575 3022,1574 3029,1574 3030,1575 3032,1575 3033,1576 3036,1576 3037,1577 3041,1577 3042,1578 3093,1578 3094,1577 3103,1577 3104,1576 3106,1576 3107,1575 3108,1575 3114,1569 3114,1567 3115,1566 3115,1560 3116,1559 3116,1549 3117,1548 3117,1545 3116,1544 3116,1472 3115,1471 3115,1461 3116,1460 3116,1448 3115,1447 3115,1423 3116,1422 3116,1401 3115,1400 3115,1347 3116,1346 3116,1327 3115,1326 3115,1231 3114,1230 3114,1225 3113,1224 3113,1221 3112,1220 3112,1219 3111,1218 3111,1217 3107,1213 3106,1213 3105,1212 3103,1212 3102,1211 3099,1211 3098,1210 3093,1210 3092,1209 3084,1209 3083,1208 3066,1208 3065,1209 3039,1209 3038,1208 2986,1208 2985,1209 2960,1209 2959,1210 2953,1210 2952,1211 2947,1211 2946,1212 2939,1212 2938,1213 2895,1213 2894,1214 2840,1214 2839,1213 2819,1213 2818,1214 2770,1214 2769,1213 2760,1213 2759,1212 2741,1212 2740,1213 2736,1213 2735,1212 2728,1212 2727,1211 2722,1211 2721,1210 2695,1210 2694,1209 2691,1209 2690,1208 2686,1208 2685,1207 2668,1207 2667,1208 2660,1208 2659,1209 2650,1209 2649,1208 2629,1208 2628,1209 2593,1209 2592,1210 2561,1210 2560,1211 2554,1211 2553,1212 2547,1212 2546,1213 2526,1213 2525,1212 2506,1212 2505,1213 2502,1213 2501,1212 2460,1212 2459,1211 2455,1211 2454,1210 2448,1210 2447,1209 2429,1209 2428,1210 2409,1210 2408,1209 2393,1209 2392,1210 2386,1210 2385,1209 2372,1209 2371,1208 2307,1208 2306,1209 2292,1209 2291,1210 2249,1210 2248,1211 2222,1211 2221,1210 2169,1210 2168,1209 2167,1210 2147,1210 2146,1209 2141,1209 2140,1208 2102,1208 2101,1207 2069,1207 2068,1206 2061,1206 2060,1205" fill="rgba(20,160,203,0.3)" stroke="rgb(20,160,203)" stroke-width="2" data-block-id="0004" data-name="b-0012" /><text x="2520" y="1406" text-anchor="middle" dominant-baseline="middle" class="block-label" fill="rgb(20,160,203)" stroke="white" stroke-width="3" paint-order="stroke">b-0012</text><polygon points="837,2649 836,2650 828,2650 827,2651 817,2651 816,2650 781,2650 780,2651 773,2651 772,2652 762,2652 761,2651 757,2651 756,2650 753,2650 752,2651 743,2651 742,2652 712,2652 711,2653 698,2653 697,2652 696,2653 688,2653 687,2654 678,2654 677,2655 670,2655 669,2654 665,2654 664,2653 646,2653 645,2654 643,2654 642,2655 639,2655 638,2656 636,2656 635,2657 634,2657 631,2660 631,2662 630,2663 630,2665 629,2666 629,2692 630,2693 630,2722 629,2723 629,2731 630,2732 630,2738 631,2739 631,2750 630,2751 630,2760 629,2761 629,2774 628,2775 628,2777 629,2778 629,2784 630,2785 630,2817 629,2818 629,2830 630,2831 630,2852 629,2853 629,2862 628,2863 628,2874 629,2875 629,2878 630,2879 630,2884 631,2885 631,2887 630,2888 630,2898 629,2899 629,2912 628,2913 628,2923 629,2924 629,2929 630,2930 630,2939 629,2940 629,2953 628,2954 628,2967 629,2968 629,2990 628,2991 628,3002 629,3003 629,3011 630,3012 630,3015 631,3016 631,3017 635,3021 636,3021 637,3022 670,3022 671,3021 683,3021 684,3022 704,3022 705,3023 730,3023 731,3024 754,3024 755,3023 811,3023 812,3022 866,3022 867,3021 894,3021 895,3022 917,3022 918,3023 923,3023 924,3022 955,3022 956,3021 984,3021 985,3022 1013,3022 1014,3021 1031,3021 1032,3022 1053,3022 1054,3021 1085,3021 1086,3022 1091,3022 1092,3021 1161,3021 1162,3022 1176,3022 1177,3023 1189,3023 1190,3022 1199,3022 1200,3021 1212,3021 1213,3022 1224,3022 1225,3023 1248,3023 1249,3022 1272,3022 1273,3023 1331,3023 1332,3022 1344,3022 1345,3023 1357,3023 1358,3022 1478,3022 1479,3023 1485,3023 1486,3022 1495,3022 1496,3023 1528,3023 1529,3022 1595,3022 1596,3023 1624,3023 1625,3022 1628,3022 1629,3021 1631,3021 1632,3020 1633,3020 1634,3019 1638,3019 1639,3020 1643,3020 1644,3021 1653,3021 1654,3020 1665,3020 1666,3021 1693,3021 1694,3022 1695,3021 1737,3021 1738,3022 1750,3022 1751,3021 1756,3021 1757,3020 1759,3020 1760,3019 1761,3019 1762,3018 1764,3018 1767,3015 1767,3011 1768,3010 1768,3003 1769,3002 1769,2997 1770,2996 1770,2987 1769,2986 1769,2965 1768,2964 1768,2925 1769,2924 1769,2904 1770,2903 1770,2890 1769,2889 1769,2819 1770,2818 1770,2812 1769,2811 1769,2803 1768,2802 1768,2770 1767,2769 1767,2756 1768,2755 1768,2727 1767,2726 1767,2722 1766,2721 1766,2714 1767,2713 1767,2691 1768,2690 1768,2668 1767,2667 1767,2664 1766,2663 1766,2660 1765,2659 1765,2658 1762,2655 1761,2655 1760,2654 1759,2654 1758,2653 1755,2653 1754,2652 1745,2652 1744,2651 1741,2651 1740,2652 1713,2652 1712,2651 1701,2651 1700,2650 1691,2650 1690,2651 1687,2651 1686,2652 1678,2652 1677,2651 1654,2651 1653,2650 1645,2650 1644,2651 1643,2651 1642,2652 1641,2652 1640,2653 1639,2653 1638,2654 1630,2654 1629,2653 1616,2653 1615,2654 1601,2654 1600,2655 1591,2655 1590,2656 1555,2656 1554,2655 1553,2655 1552,2656 1451,2656 1450,2657 1428,2657 1427,2656 1261,2656 1260,2657 1242,2657 1241,2656 1221,2656 1220,2657 1154,2657 1153,2658 1146,2658 1145,2657 1105,2657 1104,2656 1084,2656 1083,2655 1064,2655 1063,2654 1062,2654 1061,2653 1059,2653 1058,2652 1057,2652 1056,2651 1054,2651 1053,2650 1043,2650 1042,2649 1022,2649 1021,2650 1011,2650 1010,2651 1003,2651 1002,2650 975,2650 974,2651 954,2651 953,2650 877,2650 876,2651 864,2651 863,2650 850,2650 849,2649" fill="rgba(57,21,252,0.3)" stroke="rgb(57,21,252)" stroke-width="2" data-block-id="0005" data-name="b-0013" /><text x="1172" y="2821" text-anchor="middle" dominant-baseline="middle" class="block-label" fill="rgb(57,21,252)" stroke="white" stroke-width="3" paint-order="stroke">b-0013</text><polygon points="1135,717 1134,718 1131,718 1130,719 1128,719 1127,720 1124,720 1123,721 1122,721 1121,720 1089,720 1088,721 1083,721 1082,722 1080,722 1079,723 1072,723 1071,722 1063,722 1062,721 1022,721 1021,720 1017,720 1016,721 989,721 988,722 983,722 982,723 951,723 950,724 926,724 925,723 915,723 914,722 902,722 901,721 886,721 885,720 843,720 842,721 836,721 835,720 808,720 807,721 764,721 763,722 745,722 744,721 737,721 736,720 727,720 726,719 704,719 703,720 689,720 688,719 679,719 678,720 668,720 667,721 659,721 658,722 652,722 651,723 649,723 646,726 646,728 645,729 645,731 644,732 644,740 643,741 643,759 642,760 642,772 643,773 643,796 642,797 642,806 643,807 643,871 644,872 644,874 643,875 643,886 642,887 642,896 643,897 643,933 642,934 642,944 643,945 643,978 642,979 642,1001 643,1002 643,1012 644,1013 644,1019 643,1020 643,1024 642,1025 642,1045 643,1046 643,1063 642,1064 642,1072 641,1073 641,1079 642,1080 642,1084 643,1085 643,1088 646,1091 647,1091 648,1092 656,1092 657,1093 677,1093 678,1094 692,1094 693,1093 697,1093 698,1094 708,1094 709,1095 720,1095 721,1094 741,1094 742,1095 774,1095 775,1094 808,1094 809,1093 825,1093 826,1092 835,1092 836,1091 845,1091 846,1092 898,1092 899,1093 907,1093 908,1094 927,1094 928,1093 938,1093 939,1094 963,1094 964,1093 996,1093 997,1094 1059,1094 1060,1095 1066,1095 1067,1094 1166,1094 1167,1095 1186,1095 1187,1094 1205,1094 1206,1095 1224,1095 1225,1094 1235,1094 1236,1095 1252,1095 1253,1096 1275,1096 1276,1097 1277,1097 1278,1096 1285,1096 1286,1095 1304,1095 1305,1096 1313,1096 1314,1097 1320,1097 1321,1096 1332,1096 1333,1095 1372,1095 1373,1096 1387,1096 1388,1095 1395,1095 1396,1094 1448,1094 1449,1095 1457,1095 1458,1096 1459,1096 1460,1095 1473,1095 1474,1096 1489,1096 1490,1095 1496,1095 1497,1096 1521,1096 1522,1095 1529,1095 1530,1094 1534,1094 1535,1093 1540,1093 1541,1092 1595,1092 1596,1093 1618,1093 1619,1094 1633,1094 1634,1093 1639,1093 1640,1094 1666,1094 1667,1095 1675,1095 1676,1094 1687,1094 1688,1095 1745,1095 1746,1094 1756,1094 1757,1093 1760,1093 1761,1092 1762,1092 1763,1091 1764,1091 1765,1090 1766,1090 1766,1089 1767,1088 1767,1087 1768,1086 1768,1078 1769,1077 1769,1055 1768,1054 1768,1051 1769,1050 1769,1036 1768,1035 1768,1023 1769,1022 1769,1009 1768,1008 1768,987 1767,986 1767,980 1768,979 1768,976 1769,975 1769,973 1770,972 1770,964 1769,963 1769,956 1768,955 1768,903 1769,902 1769,891 1768,890 1768,880 1769,879 1769,856 1770,855 1770,847 1769,846 1769,805 1770,804 1770,762 1769,761 1769,739 1768,738 1768,732 1767,731 1767,729 1765,727 1765,726 1764,725 1763,725 1761,723 1760,723 1759,722 1758,722 1757,721 1754,721 1753,720 1748,720 1747,719 1739,719 1738,720 1733,720 1732,721 1729,721 1728,720 1724,720 1723,719 1712,719 1711,720 1701,720 1700,719 1691,719 1690,720 1646,720 1645,721 1643,721 1642,722 1641,722 1640,723 1639,723 1638,724 1637,724 1636,725 1634,725 1633,726 1616,726 1615,725 1609,725 1608,724 1599,724 1598,725 1597,725 1596,726 1595,726 1594,727 1593,727 1592,728 1591,728 1590,729 1586,729 1585,728 1583,728 1582,727 1580,727 1579,726 1560,726 1559,725 1541,725 1540,726 1518,726 1517,725 1501,725 1500,726 1496,726 1495,727 1491,727 1490,726 1487,726 1486,725 1477,725 1476,726 1461,726 1460,727 1456,727 1455,726 1447,726 1446,725 1444,725 1443,724 1441,724 1440,723 1438,723 1437,722 1436,722 1435,721 1429,721 1428,722 1415,722 1414,721 1408,721 1407,722 1404,722 1403,723 1401,723 1400,724 1398,724 1397,725 1393,725 1392,724 1383,724 1382,723 1373,723 1372,722 1355,722 1354,721 1339,721 1338,722 1335,722 1334,723 1330,723 1329,724 1322,724 1321,723 1315,723 1314,722 1310,722 1309,723 1301,723 1300,722 1296,722 1295,721 1285,721 1284,722 1272,722 1271,721 1261,721 1260,722 1251,722 1250,721 1243,721 1242,720 1241,720 1240,721 1227,721 1226,720 1221,720 1220,719 1175,719 1174,718 1147,718 1146,717" fill="rgba(235,88,48,0.3)" stroke="rgb(235,88,48)" stroke-width="2" data-block-id="0006" data-name="b-0014" /><text x="1266" y="873" text-anchor="middle" dominant-baseline="middle" class="block-label" fill="rgb(235,88,48)" stroke="white" stroke-width="3" paint-order="stroke">b-0014</text><polygon points="2048,718 2047,719 2015,719 2014,720 1992,720 1991,721 1974,721 1973,722 1969,722 1968,723 1966,723 1965,724 1963,724 1962,725 1961,725 1959,727 1958,727 1958,728 1957,729 1957,731 1956,732 1956,746 1955,747 1955,757 1954,758 1954,770 1953,771 1953,809 1954,810 1954,814 1955,815 1955,818 1956,819 1956,822 1957,823 1957,856 1958,857 1958,889 1959,890 1959,917 1958,918 1958,932 1959,933 1959,959 1958,960 1958,998 1957,999 1957,1004 1958,1005 1958,1019 1959,1020 1959,1071 1960,1072 1960,1081 1961,1082 1961,1084 1967,1090 1968,1090 1969,1091 1970,1091 1971,1092 1973,1092 1974,1093 1979,1093 1980,1094 1992,1094 1993,1095 2039,1095 2040,1094 2053,1094 2054,1093 2059,1093 2060,1092 2063,1092 2064,1091 2067,1091 2068,1090 2070,1090 2071,1089 2074,1089 2075,1088 2088,1088 2089,1087 2156,1087 2157,1088 2175,1088 2176,1087 2179,1087 2180,1086 2184,1086 2185,1085 2191,1085 2192,1084 2199,1084 2200,1085 2208,1085 2209,1084 2223,1084 2224,1083 2233,1083 2234,1084 2244,1084 2245,1085 2292,1085 2293,1084 2315,1084 2316,1085 2366,1085 2367,1084 2374,1084 2375,1083 2381,1083 2382,1082 2389,1082 2390,1083 2401,1083 2402,1084 2421,1084 2422,1085 2437,1085 2438,1086 2449,1086 2450,1085 2488,1085 2489,1086 2502,1086 2503,1087 2532,1087 2533,1086 2556,1086 2557,1087 2564,1087 2565,1086 2585,1086 2586,1087 2599,1087 2600,1088 2612,1088 2613,1089 2643,1089 2644,1088 2650,1088 2651,1087 2667,1087 2668,1088 2689,1088 2690,1089 2695,1089 2696,1090 2697,1090 2699,1092 2700,1092 2702,1094 2703,1094 2705,1096 2707,1096 2708,1097 2709,1097 2710,1098 2712,1098 2713,1099 2740,1099 2741,1098 2797,1098 2798,1099 2843,1099 2844,1098 2877,1098 2878,1097 2892,1097 2893,1096 2895,1096 2896,1097 2924,1097 2925,1096 2965,1096 2966,1097 2967,1096 2975,1096 2976,1095 2979,1095 2980,1094 2984,1094 2985,1093 2988,1093 2989,1092 2995,1092 2996,1091 3004,1091 3005,1090 3052,1090 3053,1091 3063,1091 3064,1092 3071,1092 3072,1093 3078,1093 3079,1094 3086,1094 3087,1095 3101,1095 3102,1096 3103,1095 3106,1095 3107,1094 3108,1094 3110,1092 3110,1091 3112,1089 3112,1088 3113,1087 3113,1086 3114,1085 3114,1082 3115,1081 3115,987 3116,986 3116,981 3115,980 3115,967 3114,966 3114,946 3115,945 3115,941 3114,940 3114,925 3115,924 3115,866 3114,865 3114,834 3115,833 3115,773 3114,772 3114,767 3115,766 3115,754 3116,753 3116,747 3115,746 3115,741 3114,740 3114,736 3113,735 3113,733 3112,732 3112,731 3107,726 3105,726 3104,725 3081,725 3080,724 3055,724 3054,725 3003,725 3002,724 2982,724 2981,725 2953,725 2952,726 2944,726 2943,727 2938,727 2937,728 2933,728 2932,729 2931,729 2930,730 2929,730 2928,731 2927,731 2926,732 2925,732 2923,734 2922,734 2921,735 2920,735 2919,736 2917,736 2916,737 2913,737 2912,738 2907,738 2906,739 2902,739 2901,740 2897,740 2896,741 2880,741 2879,740 2857,740 2856,741 2825,741 2824,742 2788,742 2787,743 2758,743 2757,744 2743,744 2742,745 2705,745 2704,746 2687,746 2686,747 2668,747 2667,748 2611,748 2610,747 2593,747 2592,746 2581,746 2580,745 2576,745 2575,744 2574,744 2573,743 2571,743 2570,742 2568,742 2567,741 2565,741 2564,740 2563,740 2562,739 2560,739 2559,738 2558,738 2557,737 2556,737 2554,735 2553,735 2551,733 2550,733 2549,732 2548,732 2547,731 2546,731 2545,730 2544,730 2543,729 2542,729 2541,728 2539,728 2538,727 2534,727 2533,726 2528,726 2527,725 2520,725 2519,724 2507,724 2506,723 2484,723 2483,722 2457,722 2456,721 2434,721 2433,720 2335,720 2334,721 2327,721 2326,722 2322,722 2321,723 2318,723 2317,724 2315,724 2314,725 2311,725 2310,726 2294,726 2293,725 2203,725 2202,724 2149,724 2148,723 2144,723 2143,722 2138,722 2137,721 2133,721 2132,720 2124,720 2123,719 2104,719 2103,718 2078,718 2077,719 2069,719 2068,718" fill="rgba(218,58,254,0.3)" stroke="rgb(218,58,254)" stroke-width="2" data-block-id="0007" data-name="b-0015" /><text x="2542" y="901" text-anchor="middle" dominant-baseline="middle" class="block-label" fill="rgb(218,58,254)" stroke="white" stroke-width="3" paint-order="stroke">b-0015</text><polygon points="4377,719 4376,720 4373,720 4368,725 4367,725 4366,726 4365,726 4364,727 4320,727 4319,728 4317,728 4316,729 4315,729 4314,730 4313,730 4311,732 4308,732 4307,731 4306,731 4305,730 4300,730 4299,729 4297,729 4296,730 4282,730 4281,729 4271,729 4270,728 4258,728 4257,727 4243,727 4242,728 4239,728 4238,727 4232,727 4231,726 4224,726 4223,727 4215,727 4214,726 4212,726 4211,725 4209,725 4208,724 4206,724 4205,723 4196,723 4195,724 4192,724 4191,723 4153,723 4152,724 4095,724 4094,723 4042,723 4041,722 4011,722 4010,723 4005,723 4004,724 3995,724 3994,723 3984,723 3983,724 3975,724 3974,723 3960,723 3959,724 3948,724 3947,723 3913,723 3912,724 3862,724 3861,725 3845,725 3844,724 3842,724 3841,723 3836,723 3835,722 3833,722 3832,723 3822,723 3821,724 3816,724 3815,725 3783,725 3782,724 3765,724 3764,723 3748,723 3747,724 3740,724 3739,725 3738,725 3737,724 3719,724 3718,725 3712,725 3711,726 3708,726 3707,727 3703,727 3702,728 3690,728 3689,729 3684,729 3683,730 3679,730 3678,731 3669,731 3668,732 3652,732 3651,733 3644,733 3643,734 3623,734 3622,733 3620,733 3619,734 3611,734 3610,735 3601,735 3600,736 3592,736 3591,735 3578,735 3577,736 3575,736 3574,735 3570,735 3569,734 3565,734 3564,733 3556,733 3555,732 3547,732 3546,733 3543,733 3542,734 3534,734 3533,733 3529,733 3528,732 3519,732 3518,733 3510,733 3509,732 3499,732 3498,731 3487,731 3486,732 3471,732 3470,731 3467,731 3466,730 3465,730 3464,729 3462,729 3461,728 3460,728 3459,727 3455,727 3454,726 3431,726 3430,725 3425,725 3424,724 3415,724 3414,723 3400,723 3399,722 3365,722 3364,723 3350,723 3349,722 3348,722 3347,723 3320,723 3319,724 3315,724 3314,725 3312,725 3311,726 3309,726 3308,727 3307,727 3306,728 3305,728 3304,729 3303,729 3301,731 3301,732 3300,733 3300,736 3299,737 3299,741 3298,742 3298,753 3297,754 3297,755 3298,756 3298,762 3299,763 3299,771 3298,772 3298,775 3297,776 3297,787 3298,788 3298,792 3297,793 3297,799 3296,800 3296,807 3297,808 3297,812 3298,813 3298,815 3297,816 3297,818 3296,819 3296,820 3295,821 3295,822 3294,823 3294,824 3293,825 3293,828 3294,829 3294,831 3295,832 3295,834 3296,835 3296,845 3295,846 3295,855 3296,856 3296,860 3297,861 3296,862 3296,864 3293,867 3293,868 3291,870 3291,871 3290,872 3290,875 3291,876 3291,877 3293,879 3293,880 3294,881 3294,882 3295,883 3295,884 3296,885 3296,889 3295,890 3295,895 3294,896 3294,899 3295,900 3295,902 3296,903 3296,905 3298,907 3298,908 3299,909 3299,911 3297,913 3297,914 3294,917 3294,918 3293,919 3293,920 3292,921 3292,923 3293,924 3293,925 3294,926 3294,927 3295,928 3295,930 3296,931 3296,939 3295,940 3295,943 3294,944 3294,947 3295,948 3295,951 3296,952 3296,953 3297,954 3297,961 3296,962 3296,963 3295,964 3295,965 3294,966 3294,968 3293,969 3293,972 3294,973 3294,979 3295,980 3295,982 3294,983 3294,989 3293,990 3293,996 3294,997 3294,1000 3295,1001 3295,1005 3296,1006 3295,1007 3295,1012 3294,1013 3294,1021 3295,1022 3295,1036 3294,1037 3294,1042 3295,1043 3295,1046 3296,1047 3296,1049 3297,1050 3297,1060 3296,1061 3296,1068 3297,1069 3297,1076 3298,1077 3298,1088 3299,1089 3299,1090 3300,1090 3301,1091 3302,1091 3303,1092 3305,1092 3306,1093 3308,1093 3309,1094 3312,1094 3313,1095 3315,1095 3316,1096 3319,1096 3320,1097 3331,1097 3332,1098 3366,1098 3367,1097 3392,1097 3393,1098 3399,1098 3400,1097 3426,1097 3427,1096 3439,1096 3440,1097 3457,1097 3458,1096 3467,1096 3468,1095 3469,1096 3497,1096 3498,1095 3503,1095 3504,1096 3530,1096 3531,1095 3548,1095 3549,1096 3566,1096 3567,1095 3577,1095 3578,1094 3618,1094 3619,1095 3625,1095 3626,1094 3642,1094 3643,1095 3658,1095 3659,1094 3703,1094 3704,1095 3723,1095 3724,1094 3731,1094 3732,1095 3736,1095 3737,1096 3747,1096 3748,1097 3761,1097 3762,1098 3763,1098 3764,1097 3769,1097 3770,1096 3774,1096 3775,1095 3784,1095 3785,1094 3787,1094 3788,1095 3790,1095 3791,1096 3793,1096 3794,1097 3796,1097 3797,1098 3810,1098 3811,1099 3817,1099 3818,1100 3839,1100 3840,1099 3854,1099 3855,1098 3876,1098 3877,1097 3890,1097 3891,1098 3898,1098 3899,1097 3912,1097 3913,1098 3954,1098 3955,1097 3960,1097 3961,1096 3973,1096 3974,1097 4005,1097 4006,1098 4031,1098 4032,1099 4047,1099 4048,1100 4049,1099 4052,1099 4053,1098 4056,1098 4057,1097 4058,1097 4059,1096 4063,1096 4064,1097 4066,1097 4067,1098 4069,1098 4070,1099 4077,1099 4078,1098 4092,1098 4093,1097 4133,1097 4134,1096 4139,1096 4140,1095 4143,1095 4144,1094 4148,1094 4149,1095 4159,1095 4160,1096 4173,1096 4174,1095 4191,1095 4192,1096 4202,1096 4203,1097 4229,1097 4230,1096 4241,1096 4242,1097 4244,1097 4245,1098 4248,1098 4249,1099 4260,1099 4261,1098 4266,1098 4267,1099 4278,1099 4279,1100 4295,1100 4296,1099 4337,1099 4338,1100 4350,1100 4351,1099 4358,1099 4359,1098 4376,1098 4377,1097 4388,1097 4389,1096 4395,1096 4396,1095 4398,1095 4399,1094 4400,1094 4402,1092 4403,1092 4405,1090 4405,1089 4406,1088 4406,1082 4407,1081 4407,1075 4408,1074 4408,1071 4409,1070 4409,1067 4410,1066 4410,1050 4411,1049 4411,1037 4410,1036 4410,1026 4411,1025 4411,1023 4412,1022 4412,1021 4413,1020 4413,1019 4414,1018 4414,1016 4415,1015 4415,1007 4416,1006 4416,1005 4417,1004 4418,1004 4422,1000 4422,997 4423,996 4423,989 4424,988 4424,984 4425,983 4425,978 4426,977 4426,954 4425,953 4425,946 4424,945 4424,943 4425,942 4425,931 4426,930 4426,924 4427,923 4427,921 4429,919 4429,918 4433,914 4433,912 4434,911 4434,906 4435,905 4435,884 4436,883 4436,879 4437,878 4437,852 4438,851 4438,839 4437,838 4437,813 4436,812 4436,809 4435,808 4435,804 4434,803 4434,795 4433,794 4433,790 4432,789 4432,788 4430,786 4429,786 4428,785 4419,785 4418,784 4417,784 4413,780 4413,779 4412,778 4412,775 4411,774 4411,770 4410,769 4410,765 4409,764 4409,761 4408,760 4408,757 4407,756 4407,744 4406,743 4406,740 4405,739 4405,738 4404,737 4404,736 4403,735 4403,733 4402,732 4402,730 4401,729 4401,727 4400,726 4400,724 4398,722 4398,721 4395,721 4394,720 4390,720 4389,719" fill="rgba(169,219,187,0.3)" stroke="rgb(169,219,187)" stroke-width="2" data-block-id="0008" data-name="b-0016" /><text x="3816" y="899" text-anchor="middle" dominant-baseline="middle" class="block-label" fill="rgb(169,219,187)" stroke="white" stroke-width="3" paint-order="stroke">b-0016</text><polygon points="775,235 774,236 761,236 760,237 731,237 730,236 729,236 728,237 713,237 712,238 702,238 701,239 690,239 689,238 677,238 676,239 672,239 671,238 667,238 666,237 662,237 661,236 658,236 657,237 653,237 652,238 650,238 649,239 648,239 646,241 646,243 645,244 645,253 644,254 644,257 645,258 645,335 646,336 646,348 647,349 647,352 646,353 646,373 645,374 645,381 644,382 644,391 643,392 643,470 642,471 642,578 641,579 641,592 642,593 642,596 643,597 643,599 647,603 648,603 649,604 652,604 653,605 657,605 658,606 662,606 663,607 668,607 669,608 677,608 678,609 695,609 696,608 698,608 699,609 734,609 735,608 740,608 741,607 746,607 747,608 753,608 754,609 756,609 757,608 773,608 774,609 782,609 783,608 788,608 789,607 794,607 795,608 818,608 819,609 824,609 825,610 828,610 829,609 835,609 836,608 840,608 841,609 846,609 847,610 873,610 874,609 876,609 877,608 878,608 879,607 881,607 882,606 900,606 901,605 952,605 953,604 963,604 964,603 971,603 972,604 974,604 975,605 981,605 982,606 984,606 985,605 1034,605 1035,606 1106,606 1107,607 1118,607 1119,606 1128,606 1129,607 1146,607 1147,606 1149,606 1150,607 1189,607 1190,606 1246,606 1247,607 1274,607 1275,608 1307,608 1308,607 1323,607 1324,608 1342,608 1343,607 1352,607 1353,606 1380,606 1381,605 1399,605 1400,606 1428,606 1429,605 1434,605 1435,606 1458,606 1459,607 1470,607 1471,606 1497,606 1498,607 1504,607 1505,608 1514,608 1515,607 1516,608 1549,608 1550,607 1563,607 1564,608 1588,608 1589,609 1665,609 1666,610 1683,610 1684,611 1694,611 1695,612 1697,612 1698,611 1720,611 1721,612 1722,611 1735,611 1736,610 1740,610 1741,609 1767,609 1770,606 1770,605 1771,604 1771,603 1772,602 1772,600 1773,599 1773,593 1774,592 1774,574 1773,573 1773,536 1772,535 1772,528 1773,527 1773,517 1774,516 1774,509 1775,508 1775,483 1774,482 1774,474 1773,473 1773,447 1774,446 1774,422 1773,421 1773,417 1774,416 1774,394 1773,393 1773,383 1772,382 1772,330 1771,329 1771,323 1772,322 1772,293 1773,292 1773,264 1774,263 1774,253 1773,252 1773,248 1772,247 1772,244 1771,243 1771,242 1768,239 1766,239 1765,238 1758,238 1757,237 1737,237 1736,236 1667,236 1666,237 1606,237 1605,236 1594,236 1593,237 1583,237 1582,236 1574,236 1573,237 1528,237 1527,238 1522,238 1521,239 1516,239 1515,240 1464,240 1463,241 1450,241 1449,240 1440,240 1439,241 1429,241 1428,240 1391,240 1390,241 1366,241 1365,242 1354,242 1353,241 1349,241 1348,242 1333,242 1332,241 1319,241 1318,242 1313,242 1312,243 1301,243 1300,244 1274,244 1273,243 1266,243 1265,242 1257,242 1256,241 1243,241 1242,240 1241,240 1240,239 1239,239 1238,238 1236,238 1235,237 1213,237 1212,236 1201,236 1200,237 1191,237 1190,236 1174,236 1173,237 1167,237 1166,238 1163,238 1162,239 1159,239 1158,240 1153,240 1152,239 1147,239 1146,240 1127,240 1126,241 1024,241 1023,240 944,240 943,239 929,239 928,238 917,238 916,237 908,237 907,236 862,236 861,237 812,237 811,236 795,236 794,237 789,237 788,236 782,236 781,235" fill="rgba(207,14,189,0.3)" stroke="rgb(207,14,189)" stroke-width="2" data-block-id="0009" data-name="b-0017" /><text x="1180" y="426" text-anchor="middle" dominant-baseline="middle" class="block-label" fill="rgb(207,14,189)" stroke="white" stroke-width="3" paint-order="stroke">b-0017</text><polygon points="653,1682 652,1683 649,1683 648,1684 647,1684 644,1687 644,1688 643,1689 643,1690 642,1691 642,1692 641,1693 641,1695 640,1696 640,1703 639,1704 639,1747 638,1748 638,1802 637,1803 637,1812 636,1813 636,1832 635,1833 635,1839 634,1840 634,1860 635,1861 635,1863 636,1864 636,1865 637,1866 637,1868 638,1869 638,1870 639,1871 639,1872 640,1873 640,1875 639,1876 639,1877 638,1878 638,1879 637,1880 637,1882 636,1883 636,1885 635,1886 635,1902 634,1903 634,1918 633,1919 633,1935 632,1936 632,1941 631,1942 631,1949 632,1950 632,1954 633,1955 633,1974 632,1975 632,1999 633,2000 633,2042 634,2043 634,2044 639,2049 640,2049 642,2051 644,2051 645,2052 647,2052 648,2053 685,2053 686,2054 759,2054 760,2055 794,2055 795,2056 806,2056 807,2057 813,2057 814,2058 817,2058 818,2057 828,2057 829,2056 834,2056 835,2055 877,2055 878,2056 892,2056 893,2057 915,2057 916,2056 922,2056 923,2055 925,2055 926,2054 929,2054 930,2053 931,2053 932,2052 949,2052 950,2053 965,2053 966,2052 971,2052 972,2051 976,2051 977,2050 979,2050 980,2049 983,2049 984,2048 987,2048 988,2047 992,2047 993,2046 1001,2046 1002,2047 1007,2047 1008,2048 1009,2048 1010,2049 1012,2049 1013,2050 1014,2050 1015,2051 1019,2051 1020,2052 1026,2052 1027,2053 1049,2053 1050,2054 1054,2054 1055,2053 1078,2053 1079,2054 1142,2054 1143,2053 1151,2053 1152,2054 1208,2054 1209,2053 1215,2053 1216,2052 1221,2052 1222,2053 1228,2053 1229,2054 1234,2054 1235,2053 1304,2053 1305,2054 1330,2054 1331,2053 1335,2053 1336,2052 1353,2052 1354,2053 1361,2053 1362,2054 1377,2054 1378,2053 1402,2053 1403,2054 1425,2054 1426,2053 1456,2053 1457,2054 1460,2054 1461,2053 1494,2053 1495,2054 1529,2054 1530,2055 1531,2054 1542,2054 1543,2055 1570,2055 1571,2056 1580,2056 1581,2055 1597,2055 1598,2056 1602,2056 1603,2055 1620,2055 1621,2056 1639,2056 1640,2057 1644,2057 1645,2058 1652,2058 1653,2057 1672,2057 1673,2058 1674,2057 1738,2057 1739,2056 1757,2056 1758,2055 1760,2055 1761,2054 1762,2054 1765,2051 1765,2050 1766,2049 1766,2047 1767,2046 1767,2043 1768,2042 1768,2029 1767,2028 1767,2022 1766,2021 1766,1997 1767,1996 1767,1985 1766,1984 1766,1971 1767,1970 1767,1962 1768,1961 1768,1957 1769,1956 1769,1935 1768,1934 1768,1930 1767,1929 1767,1925 1766,1924 1766,1902 1767,1901 1767,1896 1766,1895 1766,1889 1765,1888 1765,1883 1766,1882 1766,1842 1765,1841 1765,1834 1766,1833 1766,1813 1767,1812 1767,1809 1768,1808 1768,1793 1767,1792 1767,1787 1768,1786 1768,1772 1767,1771 1767,1764 1768,1763 1768,1751 1767,1750 1767,1706 1766,1705 1766,1697 1765,1696 1765,1695 1764,1694 1764,1693 1759,1688 1758,1688 1757,1687 1755,1687 1754,1686 1725,1686 1724,1687 1701,1687 1700,1686 1662,1686 1661,1687 1654,1687 1653,1686 1644,1686 1643,1687 1627,1687 1626,1688 1598,1688 1597,1689 1594,1689 1593,1690 1584,1690 1583,1689 1581,1689 1580,1688 1578,1688 1577,1687 1520,1687 1519,1686 1501,1686 1500,1687 1487,1687 1486,1686 1483,1686 1482,1685 1478,1685 1477,1686 1454,1686 1453,1687 1427,1687 1426,1688 1406,1688 1405,1689 1399,1689 1398,1690 1378,1690 1377,1689 1354,1689 1353,1690 1348,1690 1347,1689 1343,1689 1342,1688 1334,1688 1333,1689 1328,1689 1327,1690 1319,1690 1318,1689 1315,1689 1314,1690 1235,1690 1234,1689 1229,1689 1228,1690 1225,1690 1224,1691 1221,1691 1220,1692 1207,1692 1206,1691 1203,1691 1202,1690 1198,1690 1197,1689 1192,1689 1191,1690 1117,1690 1116,1691 1110,1691 1109,1690 1104,1690 1103,1689 1097,1689 1096,1690 1089,1690 1088,1691 1062,1691 1061,1690 1046,1690 1045,1691 1018,1691 1017,1690 998,1690 997,1691 988,1691 987,1690 961,1690 960,1689 956,1689 955,1690 951,1690 950,1691 919,1691 918,1690 909,1690 908,1689 901,1689 900,1688 893,1688 892,1689 884,1689 883,1688 878,1688 877,1687 859,1687 858,1686 854,1686 853,1685 829,1685 828,1684 822,1684 821,1685 807,1685 806,1686 764,1686 763,1685 758,1685 757,1684 748,1684 747,1685 742,1685 741,1684 732,1684 731,1683 728,1683 727,1684 717,1684 716,1683 698,1683 697,1684 695,1684 694,1683 688,1683 687,1682 677,1682 676,1683 669,1683 668,1682" fill="rgba(189,174,189,0.3)" stroke="rgb(189,174,189)" stroke-width="2" data-block-id="0010" data-name="b-0018" /><text x="1173" y="1864" text-anchor="middle" dominant-baseline="middle" class="block-label" fill="rgb(189,174,189)" stroke="white" stroke-width="3" paint-order="stroke">b-0018</text><polygon points="718,1203 717,1204 711,1204 710,1205 691,1205 690,1204 679,1204 678,1205 650,1205 649,1206 645,1206 642,1209 642,1210 641,1211 641,1214 640,1215 640,1260 639,1261 639,1276 640,1277 640,1285 639,1286 639,1297 640,1298 640,1307 639,1308 639,1327 640,1328 640,1357 639,1358 639,1384 640,1385 640,1393 641,1394 641,1398 640,1399 640,1401 639,1402 639,1404 638,1405 638,1408 637,1409 637,1413 638,1414 638,1455 637,1456 638,1457 638,1467 639,1468 639,1470 638,1471 638,1479 637,1480 637,1482 638,1483 638,1526 637,1527 637,1531 638,1532 638,1548 637,1549 637,1556 638,1557 638,1563 639,1564 639,1566 643,1570 644,1570 645,1571 646,1571 647,1572 655,1572 656,1571 664,1571 665,1572 712,1572 713,1571 723,1571 724,1572 730,1572 731,1573 748,1573 749,1572 752,1572 753,1571 756,1571 757,1572 760,1572 761,1573 765,1573 766,1574 805,1574 806,1575 820,1575 821,1574 910,1574 911,1575 912,1575 913,1574 923,1574 924,1575 954,1575 955,1574 1010,1574 1011,1573 1073,1573 1074,1574 1079,1574 1080,1573 1093,1573 1094,1574 1119,1574 1120,1575 1149,1575 1150,1574 1161,1574 1162,1575 1169,1575 1170,1576 1224,1576 1225,1575 1230,1575 1231,1574 1238,1574 1239,1573 1248,1573 1249,1572 1278,1572 1279,1571 1290,1571 1291,1572 1311,1572 1312,1573 1314,1573 1315,1572 1322,1572 1323,1571 1354,1571 1355,1572 1400,1572 1401,1571 1407,1571 1408,1570 1417,1570 1418,1569 1422,1569 1423,1570 1426,1570 1427,1571 1431,1571 1432,1572 1439,1572 1440,1571 1448,1571 1449,1572 1480,1572 1481,1573 1513,1573 1514,1572 1518,1572 1519,1573 1527,1573 1528,1574 1541,1574 1542,1575 1563,1575 1564,1574 1566,1574 1567,1575 1585,1575 1586,1574 1614,1574 1615,1575 1634,1575 1635,1576 1643,1576 1644,1577 1654,1577 1655,1576 1668,1576 1669,1577 1673,1577 1674,1576 1747,1576 1748,1575 1756,1575 1757,1574 1759,1574 1760,1573 1761,1573 1768,1566 1768,1564 1769,1563 1769,1548 1768,1547 1768,1502 1767,1501 1767,1480 1768,1479 1768,1456 1767,1455 1767,1446 1766,1445 1766,1433 1767,1432 1767,1425 1768,1424 1768,1409 1767,1408 1767,1371 1768,1370 1768,1354 1767,1353 1767,1309 1768,1308 1768,1290 1767,1289 1767,1266 1768,1265 1768,1235 1769,1234 1769,1221 1768,1220 1768,1218 1767,1217 1767,1216 1766,1215 1766,1214 1762,1210 1761,1210 1760,1209 1757,1209 1756,1208 1739,1208 1738,1207 1710,1207 1709,1208 1694,1208 1693,1207 1683,1207 1682,1206 1663,1206 1662,1207 1643,1207 1642,1208 1635,1208 1634,1209 1630,1209 1629,1210 1624,1210 1623,1211 1621,1211 1620,1210 1586,1210 1585,1209 1581,1209 1580,1208 1561,1208 1560,1209 1556,1209 1555,1210 1551,1210 1550,1211 1547,1211 1546,1212 1543,1212 1542,1213 1536,1213 1535,1214 1527,1214 1526,1215 1509,1215 1508,1216 1505,1216 1504,1215 1496,1215 1495,1214 1490,1214 1489,1215 1451,1215 1450,1214 1439,1214 1438,1215 1432,1215 1431,1214 1424,1214 1423,1213 1416,1213 1415,1214 1378,1214 1377,1213 1373,1213 1372,1214 1358,1214 1357,1213 1329,1213 1328,1212 1321,1212 1320,1213 1313,1213 1312,1212 1214,1212 1213,1211 1196,1211 1195,1210 1189,1210 1188,1209 1183,1209 1182,1208 1167,1208 1166,1207 1161,1207 1160,1206 1154,1206 1153,1207 1143,1207 1142,1206 1078,1206 1077,1207 1008,1207 1007,1208 983,1208 982,1209 979,1209 978,1208 948,1208 947,1207 944,1207 943,1208 926,1208 925,1207 899,1207 898,1208 887,1208 886,1207 867,1207 866,1208 856,1208 855,1207 847,1207 846,1208 794,1208 793,1209 789,1209 788,1208 770,1208 769,1207 760,1207 759,1206 740,1206 739,1205 734,1205 733,1204 726,1204 725,1203" fill="rgba(50,107,54,0.3)" stroke="rgb(50,107,54)" stroke-width="2" data-block-id="0011" data-name="b-0019" /><text x="1198" y="1383" text-anchor="middle" dominant-baseline="middle" class="block-label" fill="rgb(50,107,54)" stroke="white" stroke-width="3" paint-order="stroke">b-0019</text><polygon points="651,2164 650,2165 644,2165 643,2166 641,2166 640,2167 639,2167 637,2169 637,2171 636,2172 636,2287 635,2288 635,2292 636,2293 636,2302 635,2303 635,2323 634,2324 634,2345 635,2346 635,2376 634,2377 634,2394 635,2395 635,2400 634,2401 634,2426 633,2427 633,2468 632,2469 632,2489 633,2490 633,2501 632,2502 632,2526 633,2527 633,2530 637,2534 638,2534 639,2535 641,2535 642,2536 646,2536 647,2537 656,2537 657,2538 669,2538 670,2539 711,2539 712,2538 766,2538 767,2539 801,2539 802,2538 809,2538 810,2537 857,2537 858,2538 879,2538 880,2537 884,2537 885,2536 892,2536 893,2535 898,2535 899,2534 902,2534 903,2533 904,2533 905,2532 906,2532 907,2531 909,2531 910,2530 915,2530 916,2531 930,2531 931,2530 948,2530 949,2529 951,2529 952,2528 954,2528 955,2527 957,2527 958,2526 980,2526 981,2527 986,2527 987,2528 991,2528 992,2529 1013,2529 1014,2530 1025,2530 1026,2529 1029,2529 1030,2530 1053,2530 1054,2529 1055,2530 1068,2530 1069,2529 1075,2529 1076,2528 1098,2528 1099,2527 1101,2527 1102,2528 1123,2528 1124,2529 1145,2529 1146,2528 1171,2528 1172,2529 1188,2529 1189,2528 1194,2528 1195,2527 1198,2527 1199,2528 1218,2528 1219,2529 1253,2529 1254,2530 1267,2530 1268,2531 1281,2531 1282,2530 1288,2530 1289,2529 1295,2529 1296,2530 1314,2530 1315,2531 1325,2531 1326,2532 1356,2532 1357,2531 1370,2531 1371,2532 1374,2532 1375,2531 1398,2531 1399,2532 1411,2532 1412,2533 1429,2533 1430,2532 1477,2532 1478,2533 1496,2533 1497,2532 1514,2532 1515,2531 1522,2531 1523,2532 1538,2532 1539,2533 1549,2533 1550,2534 1572,2534 1573,2533 1617,2533 1618,2532 1628,2532 1629,2533 1661,2533 1662,2534 1672,2534 1673,2535 1685,2535 1686,2536 1688,2536 1689,2537 1691,2537 1692,2538 1696,2538 1697,2539 1739,2539 1740,2540 1755,2540 1756,2539 1758,2539 1759,2538 1760,2538 1763,2535 1763,2534 1764,2533 1764,2531 1765,2530 1765,2523 1766,2522 1766,2498 1767,2497 1767,2438 1766,2437 1766,2426 1767,2425 1767,2411 1766,2410 1766,2394 1767,2393 1767,2381 1766,2380 1766,2327 1767,2326 1767,2278 1768,2277 1768,2276 1767,2275 1767,2263 1768,2262 1768,2253 1769,2252 1769,2241 1770,2240 1770,2234 1771,2233 1771,2227 1770,2226 1770,2220 1769,2219 1769,2212 1768,2211 1768,2187 1767,2186 1767,2181 1766,2180 1766,2179 1765,2178 1765,2177 1764,2177 1763,2176 1762,2176 1761,2175 1760,2175 1759,2174 1756,2174 1755,2173 1748,2173 1747,2172 1723,2172 1722,2171 1689,2171 1688,2172 1669,2172 1668,2173 1639,2173 1638,2174 1597,2174 1596,2175 1572,2175 1571,2174 1555,2174 1554,2173 1548,2173 1547,2174 1530,2174 1529,2173 1465,2173 1464,2172 1452,2172 1451,2173 1416,2173 1415,2172 1402,2172 1401,2173 1393,2173 1392,2172 1318,2172 1317,2171 1311,2171 1310,2172 1198,2172 1197,2171 1188,2171 1187,2172 1180,2172 1179,2171 1131,2171 1130,2172 1072,2172 1071,2173 1044,2173 1043,2172 1037,2172 1036,2173 1005,2173 1004,2172 1003,2172 1002,2173 991,2173 990,2172 920,2172 919,2173 901,2173 900,2172 899,2172 898,2173 890,2173 889,2174 882,2174 881,2173 867,2173 866,2172 833,2172 832,2171 827,2171 826,2170 824,2170 823,2169 822,2169 821,2168 819,2168 818,2167 810,2167 809,2166 794,2166 793,2167 792,2167 791,2166 737,2166 736,2165 681,2165 680,2164" fill="rgba(243,63,248,0.3)" stroke="rgb(243,63,248)" stroke-width="2" data-block-id="0012" data-name="b-0020" /><text x="1212" y="2377" text-anchor="middle" dominant-baseline="middle" class="block-label" fill="rgb(243,63,248)" stroke="white" stroke-width="3" paint-order="stroke">b-0020</text><polygon points="4094,2155 4093,2156 4090,2156 4089,2157 4087,2157 4086,2158 4084,2158 4083,2159 4082,2159 4081,2160 4077,2160 4076,2161 4075,2160 4072,2160 4071,2159 4063,2159 4062,2158 4060,2158 4059,2159 4052,2159 4051,2160 4046,2160 4045,2161 4037,2161 4036,2162 4023,2162 4022,2163 4015,2163 4014,2162 3993,2162 3992,2163 3960,2163 3959,2164 3955,2164 3954,2165 3952,2165 3951,2166 3948,2166 3947,2167 3946,2167 3945,2168 3941,2168 3940,2167 3938,2167 3937,2166 3936,2166 3935,2165 3934,2165 3933,2164 3930,2164 3929,2163 3926,2163 3925,2162 3901,2162 3900,2163 3898,2163 3897,2164 3894,2164 3893,2165 3892,2165 3891,2166 3889,2166 3888,2167 3887,2167 3886,2168 3882,2168 3881,2169 3880,2169 3879,2168 3869,2168 3868,2167 3860,2167 3859,2166 3850,2166 3849,2165 3835,2165 3834,2164 3814,2164 3813,2165 3790,2165 3789,2166 3786,2166 3785,2165 3746,2165 3745,2164 3737,2164 3736,2163 3731,2163 3730,2162 3729,2163 3723,2163 3722,2164 3720,2164 3719,2165 3718,2165 3717,2166 3716,2166 3714,2168 3713,2168 3710,2171 3708,2171 3707,2172 3706,2172 3705,2171 3704,2171 3702,2169 3701,2169 3700,2168 3699,2168 3698,2167 3697,2167 3696,2166 3694,2166 3693,2165 3691,2165 3690,2164 3673,2164 3672,2165 3661,2165 3660,2166 3625,2166 3624,2167 3621,2167 3620,2168 3618,2168 3617,2169 3616,2169 3613,2172 3607,2172 3606,2171 3605,2171 3604,2170 3602,2170 3601,2169 3598,2169 3597,2168 3591,2168 3590,2167 3576,2167 3575,2166 3573,2166 3572,2167 3560,2167 3559,2168 3549,2168 3548,2167 3545,2167 3544,2166 3540,2166 3539,2165 3501,2165 3500,2166 3490,2166 3489,2167 3484,2167 3483,2168 3480,2168 3479,2169 3472,2169 3471,2168 3470,2168 3469,2167 3467,2167 3466,2166 3465,2166 3464,2165 3461,2165 3460,2164 3457,2164 3456,2163 3443,2163 3442,2164 3416,2164 3415,2165 3410,2165 3409,2166 3406,2166 3405,2167 3403,2167 3402,2168 3400,2168 3399,2169 3394,2169 3393,2168 3392,2168 3391,2167 3390,2167 3389,2166 3388,2166 3387,2165 3386,2165 3385,2164 3384,2164 3383,2163 3381,2163 3380,2162 3370,2162 3369,2163 3363,2163 3362,2164 3358,2164 3357,2165 3353,2165 3352,2166 3343,2166 3342,2167 3323,2167 3322,2168 3316,2168 3315,2169 3314,2169 3313,2170 3312,2170 3308,2174 3308,2175 3307,2176 3307,2179 3306,2180 3306,2182 3305,2183 3305,2186 3304,2187 3304,2201 3305,2202 3305,2221 3304,2222 3304,2257 3305,2258 3305,2291 3304,2292 3304,2333 3305,2334 3305,2338 3306,2339 3306,2342 3307,2343 3307,2348 3308,2349 3307,2350 3307,2357 3306,2358 3306,2379 3307,2380 3307,2411 3306,2412 3306,2430 3307,2431 3307,2434 3308,2435 3308,2438 3309,2439 3309,2449 3308,2450 3308,2452 3307,2453 3307,2456 3306,2457 3306,2463 3305,2464 3305,2466 3306,2467 3306,2475 3307,2476 3307,2521 3308,2522 3308,2524 3309,2525 3309,2526 3313,2530 3314,2530 3316,2532 3318,2532 3319,2533 3328,2533 3329,2532 3345,2532 3346,2533 3352,2533 3353,2534 3377,2534 3378,2533 3400,2533 3401,2532 3416,2532 3417,2533 3421,2533 3422,2534 3425,2534 3426,2535 3430,2535 3431,2536 3435,2536 3436,2537 3458,2537 3459,2536 3471,2536 3472,2535 3479,2535 3480,2536 3498,2536 3499,2535 3507,2535 3508,2534 3523,2534 3524,2533 3538,2533 3539,2532 3548,2532 3549,2531 3600,2531 3601,2530 3606,2530 3607,2529 3623,2529 3624,2530 3635,2530 3636,2531 3648,2531 3649,2532 3682,2532 3683,2533 3687,2533 3688,2532 3695,2532 3696,2531 3701,2531 3702,2530 3711,2530 3712,2531 3714,2531 3715,2532 3717,2532 3718,2533 3721,2533 3722,2534 3728,2534 3729,2535 3730,2535 3731,2534 3740,2534 3741,2533 3755,2533 3756,2534 3771,2534 3772,2533 3778,2533 3779,2532 3786,2532 3787,2531 3795,2531 3796,2530 3812,2530 3813,2531 3821,2531 3822,2532 3840,2532 3841,2531 3861,2531 3862,2530 3873,2530 3874,2529 3888,2529 3889,2530 3894,2530 3895,2531 3900,2531 3901,2532 3911,2532 3912,2533 3925,2533 3926,2532 3928,2532 3929,2531 3931,2531 3932,2530 3933,2530 3934,2529 3935,2529 3936,2528 3937,2528 3938,2527 3939,2527 3940,2526 3945,2526 3946,2527 3948,2527 3949,2528 3951,2528 3952,2529 3957,2529 3958,2530 3979,2530 3980,2529 3988,2529 3989,2528 3994,2528 3995,2527 4005,2527 4006,2528 4011,2528 4012,2529 4020,2529 4021,2530 4042,2530 4043,2529 4053,2529 4054,2528 4063,2528 4064,2529 4073,2529 4074,2530 4137,2530 4138,2531 4179,2531 4180,2530 4188,2530 4189,2529 4195,2529 4196,2528 4206,2528 4207,2527 4224,2527 4225,2528 4245,2528 4246,2527 4265,2527 4266,2526 4310,2526 4311,2527 4315,2527 4316,2528 4318,2528 4319,2529 4322,2529 4323,2530 4327,2530 4328,2531 4335,2531 4336,2530 4339,2530 4340,2529 4342,2529 4343,2528 4346,2528 4347,2527 4348,2527 4349,2526 4350,2526 4352,2524 4353,2524 4353,2523 4355,2521 4355,2519 4356,2518 4356,2512 4357,2511 4357,2503 4358,2502 4358,2491 4359,2490 4359,2451 4360,2450 4360,2428 4359,2427 4359,2424 4360,2423 4360,2404 4361,2403 4361,2398 4362,2397 4362,2392 4363,2391 4363,2383 4364,2382 4364,2373 4365,2372 4365,2362 4366,2361 4366,2352 4367,2351 4367,2348 4368,2347 4368,2346 4370,2344 4370,2343 4376,2337 4376,2336 4377,2335 4377,2334 4378,2333 4378,2332 4379,2331 4379,2330 4380,2329 4380,2319 4381,2318 4381,2306 4382,2305 4382,2303 4383,2302 4383,2299 4384,2298 4384,2296 4385,2295 4385,2292 4386,2291 4386,2288 4387,2287 4387,2280 4388,2279 4388,2264 4387,2263 4387,2260 4386,2259 4386,2257 4385,2256 4385,2253 4384,2252 4384,2241 4385,2240 4385,2233 4386,2232 4386,2224 4387,2223 4387,2216 4388,2215 4388,2210 4389,2209 4389,2207 4390,2206 4390,2203 4391,2202 4391,2200 4392,2199 4392,2196 4393,2195 4393,2174 4392,2173 4391,2173 4389,2171 4388,2171 4387,2170 4386,2170 4385,2169 4382,2169 4381,2168 4378,2168 4377,2167 4373,2167 4372,2166 4369,2166 4368,2165 4366,2165 4365,2164 4363,2164 4362,2163 4360,2163 4359,2162 4357,2162 4356,2161 4353,2161 4352,2160 4348,2160 4347,2159 4342,2159 4341,2158 4336,2158 4335,2157 4329,2157 4328,2158 4326,2158 4325,2159 4323,2159 4322,2160 4321,2160 4320,2161 4319,2161 4318,2162 4317,2162 4316,2163 4315,2163 4314,2164 4309,2164 4308,2163 4307,2163 4306,2162 4304,2162 4303,2161 4301,2161 4300,2160 4297,2160 4296,2159 4288,2159 4287,2160 4282,2160 4281,2161 4276,2161 4275,2162 4250,2162 4249,2161 4243,2161 4242,2160 4237,2160 4236,2159 4228,2159 4227,2160 4211,2160 4210,2161 4176,2161 4175,2160 4164,2160 4163,2159 4150,2159 4149,2160 4140,2160 4139,2161 4134,2161 4133,2160 4123,2160 4122,2159 4117,2159 4116,2158 4112,2158 4111,2157 4108,2157 4107,2156 4103,2156 4102,2155" fill="rgba(130,228,50,0.3)" stroke="rgb(130,228,50)" stroke-width="2" data-block-id="0013" data-name="b-0021" /><text x="3884" y="2310" text-anchor="middle" dominant-baseline="middle" class="block-label" fill="rgb(130,228,50)" stroke="white" stroke-width="3" paint-order="stroke">b-0021</text><polygon points="3463,1205 3462,1206 3455,1206 3454,1207 3442,1207 3441,1208 3409,1208 3408,1209 3390,1209 3389,1208 3363,1208 3362,1207 3357,1207 3356,1208 3342,1208 3341,1207 3326,1207 3325,1208 3320,1208 3319,1209 3314,1209 3313,1210 3308,1210 3307,1211 3305,1211 3302,1214 3302,1215 3301,1216 3301,1219 3300,1220 3300,1242 3299,1243 3299,1304 3300,1305 3300,1345 3299,1346 3299,1405 3300,1406 3300,1428 3301,1429 3301,1528 3302,1529 3302,1531 3301,1532 3301,1547 3302,1548 3302,1569 3303,1570 3303,1572 3304,1573 3304,1574 3305,1575 3306,1575 3308,1577 3310,1577 3311,1578 3313,1578 3314,1579 3317,1579 3318,1580 3322,1580 3323,1581 3328,1581 3329,1580 3338,1580 3339,1579 3343,1579 3344,1578 3365,1578 3366,1577 3378,1577 3379,1578 3385,1578 3386,1577 3392,1577 3393,1576 3405,1576 3406,1575 3445,1575 3446,1576 3473,1576 3474,1575 3519,1575 3520,1576 3540,1576 3541,1575 3559,1575 3560,1574 3567,1574 3568,1575 3577,1575 3578,1574 3587,1574 3588,1575 3594,1575 3595,1576 3600,1576 3601,1575 3623,1575 3624,1574 3634,1574 3635,1573 3651,1573 3652,1574 3668,1574 3669,1575 3691,1575 3692,1574 3714,1574 3715,1573 3756,1573 3757,1574 3765,1574 3766,1575 3770,1575 3771,1576 3775,1576 3776,1577 3799,1577 3800,1576 3803,1576 3804,1575 3806,1575 3807,1574 3808,1574 3809,1573 3810,1573 3811,1572 3814,1572 3815,1573 3816,1573 3817,1574 3819,1574 3820,1575 3841,1575 3842,1576 3853,1576 3854,1577 3869,1577 3870,1578 3879,1578 3880,1579 3888,1579 3889,1578 3898,1578 3899,1577 3904,1577 3905,1576 3913,1576 3914,1577 3925,1577 3926,1576 3932,1576 3933,1575 3934,1575 3935,1574 3936,1574 3941,1569 3942,1569 3942,1568 3946,1564 3946,1548 3945,1547 3945,1529 3944,1528 3944,1500 3945,1499 3945,1496 3946,1495 3946,1494 3947,1493 3947,1492 3948,1491 3948,1489 3949,1488 3949,1485 3950,1484 3950,1481 3949,1480 3949,1479 3948,1478 3948,1477 3947,1476 3947,1475 3946,1474 3946,1473 3945,1472 3945,1470 3944,1469 3944,1467 3943,1466 3943,1461 3942,1460 3942,1447 3943,1446 3943,1443 3944,1442 3944,1440 3945,1439 3945,1436 3946,1435 3946,1434 3945,1433 3945,1430 3944,1429 3944,1427 3943,1426 3943,1424 3942,1423 3942,1412 3943,1411 3943,1408 3942,1407 3942,1396 3943,1395 3943,1390 3944,1389 3944,1380 3943,1379 3943,1363 3944,1362 3944,1346 3945,1345 3945,1336 3944,1335 3944,1332 3943,1331 3943,1329 3942,1328 3942,1319 3943,1318 3943,1295 3944,1294 3944,1262 3943,1261 3943,1256 3944,1255 3944,1250 3945,1249 3945,1242 3943,1240 3943,1239 3941,1237 3941,1236 3940,1235 3940,1234 3939,1233 3939,1231 3938,1230 3938,1227 3937,1226 3937,1223 3936,1222 3936,1221 3932,1217 3931,1217 3930,1216 3929,1216 3928,1215 3926,1215 3925,1214 3922,1214 3921,1213 3897,1213 3896,1212 3895,1213 3884,1213 3883,1214 3863,1214 3862,1213 3843,1213 3842,1212 3836,1212 3835,1211 3834,1211 3833,1210 3832,1210 3831,1209 3830,1209 3829,1208 3828,1208 3827,1207 3826,1207 3825,1206 3814,1206 3813,1207 3793,1207 3792,1206 3781,1206 3780,1205 3775,1205 3774,1206 3766,1206 3765,1207 3754,1207 3753,1206 3737,1206 3736,1207 3726,1207 3725,1206 3685,1206 3684,1205 3654,1205 3653,1206 3633,1206 3632,1205 3612,1205 3611,1206 3557,1206 3556,1207 3528,1207 3527,1206 3522,1206 3521,1207 3510,1207 3509,1206 3501,1206 3500,1207 3493,1207 3492,1208 3489,1208 3488,1207 3484,1207 3483,1206 3478,1206 3477,1205" fill="rgba(88,59,13,0.3)" stroke="rgb(88,59,13)" stroke-width="2" data-block-id="0014" data-name="b-0024" /><text x="3703" y="1399" text-anchor="middle" dominant-baseline="middle" class="block-label" fill="rgb(88,59,13)" stroke="white" stroke-width="3" paint-order="stroke">b-0024</text><polygon points="494,2850 493,2851 491,2851 488,2854 488,2855 487,2856 487,2860 486,2861 486,2908 485,2909 485,2911 486,2912 486,2922 485,2923 485,2993 484,2994 484,3040 481,3043 472,3043 471,3044 464,3044 463,3045 448,3045 447,3044 446,3045 444,3045 442,3047 442,3048 441,3049 441,3096 440,3097 441,3098 441,3104 442,3105 442,3106 443,3107 444,3107 445,3108 453,3108 454,3109 464,3109 465,3110 480,3110 482,3112 482,3115 483,3116 483,3128 482,3129 482,3149 481,3150 481,3155 480,3156 480,3163 481,3164 481,3172 480,3173 480,3174 476,3178 476,3179 475,3180 475,3181 476,3181 478,3183 480,3183 481,3184 483,3184 484,3185 487,3185 488,3186 516,3186 517,3185 528,3185 529,3184 558,3184 559,3185 580,3185 581,3184 585,3184 586,3183 587,3183 589,3181 590,3181 591,3180 591,3168 592,3167 592,3165 593,3164 593,3162 594,3161 594,3149 593,3148 593,3146 594,3145 594,3142 595,3141 595,3139 596,3138 596,3135 595,3134 595,3133 590,3128 590,3127 589,3126 589,3118 590,3117 590,3116 591,3115 591,3114 594,3111 598,3111 599,3110 605,3110 606,3111 614,3111 615,3110 619,3110 620,3109 622,3109 623,3108 624,3108 625,3107 625,3106 626,3105 626,3101 627,3100 627,3094 626,3093 626,3047 625,3046 625,3044 623,3042 619,3042 618,3043 607,3043 606,3044 596,3044 595,3043 592,3043 591,3042 590,3042 588,3040 588,3039 587,3038 587,2901 588,2900 588,2859 587,2858 587,2856 586,2855 586,2854 585,2853 584,2853 583,2852 580,2852 579,2851 564,2851 563,2852 562,2852 559,2855 559,2856 558,2857 558,2894 557,2895 557,2922 558,2923 558,2973 557,2974 557,2991 556,2992 556,3009 555,3010 555,3024 556,3025 556,3028 555,3029 555,3036 554,3037 554,3045 555,3046 555,3052 554,3053 554,3055 553,3056 553,3057 551,3059 532,3059 531,3060 528,3060 527,3059 522,3059 521,3058 520,3058 517,3055 517,3054 516,3053 516,3043 517,3042 517,3020 518,3019 518,3015 517,3014 517,3011 516,3010 516,3007 515,3006 515,2955 516,2954 516,2934 515,2933 515,2899 516,2898 516,2896 515,2895 515,2857 514,2856 514,2855 513,2854 513,2853 512,2852 511,2852 510,2851 509,2851 508,2850" fill="rgba(216,251,187,0.3)" stroke="rgb(216,251,187)" stroke-width="2" data-block-id="0015" data-name="b-0044" /><text x="538" y="3043" text-anchor="middle" dominant-baseline="middle" class="block-label" fill="rgb(216,251,187)" stroke="white" stroke-width="3" paint-order="stroke">b-0044</text><polygon points="3285,3037 4337,3025 4402,2631 3285,2643" fill="rgba(102,179,92,0.3)" stroke="rgb(102,179,92)" stroke-width="2" data-block-id="0016" data-name="b-0044" /><text x="3827" y="2834" text-anchor="middle" dominant-baseline="middle" class="block-label" fill="rgb(102,179,92)" stroke="white" stroke-width="3" paint-order="stroke">b-0044</text><polygon points="3289,2069 3973,2069 3962,1671 3277,1675" fill="rgba(102,179,92,0.3)" stroke="rgb(102,179,92)" stroke-width="2" data-block-id="0017" data-name="b-0041" /><text x="3625" y="1871" text-anchor="middle" dominant-baseline="middle" class="block-label" fill="rgb(102,179,92)" stroke="white" stroke-width="3" paint-order="stroke">b-0041</text><polygon points="4019,2069 4398,2073 4371,1966 4379,1690 4379,1430 4364,1274 4360,1178 4023,1205 4016,1641" fill="rgba(102,179,92,0.3)" stroke="rgb(102,179,92)" stroke-width="2" data-block-id="0018" data-name="b-0039" /><text x="4256" y="1614" text-anchor="middle" dominant-baseline="middle" class="block-label" fill="rgb(102,179,92)" stroke="white" stroke-width="3" paint-order="stroke">b-0039</text><polygon points="3285,642 3285,229 4459,233 4455,635" fill="rgba(102,179,92,0.3)" stroke="rgb(102,179,92)" stroke-width="2" data-block-id="0019" data-name="b-0032" /><text x="3871" y="434" text-anchor="middle" dominant-baseline="middle" class="block-label" fill="rgb(102,179,92)" stroke="white" stroke-width="3" paint-order="stroke">b-0032</text><polygon points="2016,233 2015,234 2009,234 2008,235 2004,235 2003,236 1998,236 1997,237 1986,237 1985,236 1976,236 1975,237 1970,237 1969,238 1967,238 1966,239 1965,239 1964,240 1963,240 1960,243 1960,244 1959,245 1959,247 1958,248 1958,251 1957,252 1957,257 1956,258 1956,303 1957,304 1957,330 1958,331 1958,365 1957,366 1957,380 1958,381 1958,526 1959,527 1959,558 1958,559 1958,569 1957,570 1957,583 1958,584 1958,593 1959,594 1959,596 1960,597 1960,598 1965,603 1966,603 1967,604 1968,604 1969,605 1970,605 1971,606 1974,606 1975,607 1992,607 1993,608 2029,608 2030,609 2041,609 2042,608 2095,608 2096,607 2102,607 2103,606 2113,606 2114,605 2249,605 2250,606 2281,606 2282,605 2286,605 2287,606 2380,606 2381,607 2394,607 2395,606 2403,606 2404,607 2414,607 2415,608 2445,608 2446,609 2462,609 2463,610 2474,610 2475,611 2492,611 2493,612 2513,612 2514,613 2528,613 2529,614 2544,614 2545,615 2558,615 2559,616 2566,616 2567,615 2639,615 2640,614 2648,614 2649,613 2669,613 2670,612 2731,612 2732,613 2769,613 2770,614 2776,614 2777,613 2787,613 2788,612 2798,612 2799,611 2808,611 2809,610 2881,610 2882,609 2954,609 2955,610 2962,610 2963,611 2981,611 2982,612 2993,612 2994,613 2999,613 3000,614 3007,614 3008,615 3022,615 3023,616 3035,616 3036,615 3098,615 3099,614 3104,614 3105,613 3107,613 3111,609 3111,608 3112,607 3112,605 3113,604 3113,602 3114,601 3114,597 3115,596 3115,578 3114,577 3114,571 3115,570 3115,522 3116,521 3116,514 3115,513 3115,460 3116,459 3116,399 3115,398 3115,383 3114,382 3114,369 3115,368 3115,309 3114,308 3114,299 3115,298 3115,262 3114,261 3114,258 3113,257 3113,255 3112,254 3112,253 3111,252 3111,251 3107,247 3106,247 3105,246 3103,246 3102,245 3093,245 3092,244 3054,244 3053,245 3033,245 3032,244 2985,244 2984,243 2958,243 2957,244 2932,244 2931,245 2926,245 2925,246 2920,246 2919,247 2912,247 2911,248 2894,248 2893,249 2848,249 2847,250 2821,250 2820,251 2798,251 2797,252 2769,252 2768,253 2758,253 2757,254 2729,254 2728,255 2699,255 2698,256 2639,256 2638,257 2628,257 2627,258 2618,258 2617,259 2610,259 2609,260 2603,260 2602,261 2581,261 2580,260 2574,260 2573,259 2568,259 2567,258 2562,258 2561,257 2557,257 2556,256 2552,256 2551,255 2545,255 2544,254 2539,254 2538,253 2535,253 2534,252 2530,252 2529,251 2525,251 2524,250 2519,250 2518,249 2513,249 2512,248 2508,248 2507,247 2503,247 2502,246 2496,246 2495,245 2485,245 2484,244 2462,244 2461,243 2448,243 2447,242 2433,242 2432,243 2407,243 2406,242 2376,242 2375,241 2364,241 2363,240 2351,240 2350,239 2334,239 2333,240 2323,240 2322,239 2313,239 2312,238 2300,238 2299,239 2282,239 2281,240 2259,240 2258,239 2207,239 2206,238 2200,238 2199,237 2176,237 2175,238 2164,238 2163,237 2118,237 2117,236 2104,236 2103,237 2079,237 2078,236 2063,236 2062,235 2040,235 2039,234 2019,234 2018,233" fill="rgba(129,191,187,0.3)" stroke="rgb(129,191,187)" stroke-width="2" data-block-id="0020" data-name="b-0011" /><text x="2527" y="395" text-anchor="middle" dominant-baseline="middle" class="block-label" fill="rgb(129,191,187)" stroke="white" stroke-width="3" paint-order="stroke">b-0011</text></g>
</svg>