<?xml version='1.0' encoding='utf-8'?>
<svg xmlns="http://www.w3.org/2000/svg" xmlns:atlas="http://example.com/atlas" width="5000" height="3248" viewBox="0 0 5000 3248">
  
  <metadata>
    <atlas:source>
      <atlas:jp2-path>/Users/pwright/workspace/atlas/media/v2/p19.jp2</atlas:jp2-path>
      <atlas:volume>unknown</atlas:volume>
      <atlas:plate-id>p19</atlas:plate-id>
      <atlas:image-width>5000</atlas:image-width>
      <atlas:image-height>3248</atlas:image-height>
    <atlas:angle>0.0</atlas:angle><atlas:scale>1.3881418749260725</atlas:scale><atlas:pos-x>973.9477841029762</atlas:pos-x><atlas:pos-y>1831.153374613418</atlas:pos-y></atlas:source>
  </metadata>

  
  <image id="background" href="file:///Users/pwright/workspace/atlas/media/v2/p19.jp2" width="5000" height="3248" opacity="0.5" />

  <style>
    .block-label { font-family: sans-serif; font-size: 14px; font-weight: bold; }
  </style>

  
  <g id="blocks">
    <polygon points="1541,1049 1540,1050 1531,1050 1530,1051 1523,1051 1522,1052 1480,1052 1479,1051 1437,1051 1436,1052 1434,1052 1433,1051 1425,1051 1424,1052 1399,1052 1398,1053 1388,1053 1387,1052 1381,1052 1380,1051 1304,1051 1303,1050 1292,1050 1291,1051 1288,1051 1287,1052 1286,1052 1285,1053 1283,1053 1282,1054 1270,1054 1269,1055 1258,1055 1257,1056 1249,1056 1248,1057 1247,1056 1242,1056 1241,1055 1237,1055 1236,1054 1234,1054 1233,1055 1230,1055 1229,1056 1228,1056 1227,1057 1226,1057 1224,1059 1223,1058 1222,1058 1219,1055 1218,1055 1217,1054 1216,1054 1215,1053 1214,1053 1213,1052 1206,1052 1205,1053 1201,1053 1200,1054 1198,1054 1197,1053 1194,1053 1193,1052 1189,1052 1188,1051 1182,1051 1181,1052 1147,1052 1146,1051 1104,1051 1103,1052 1101,1052 1098,1055 1098,1056 1097,1057 1097,1065 1096,1066 1096,1088 1095,1089 1095,1092 1096,1093 1096,1098 1097,1099 1097,1102 1098,1103 1098,1132 1097,1133 1097,1160 1096,1161 1096,1164 1097,1165 1097,1179 1096,1180 1096,1239 1095,1240 1095,1254 1096,1255 1096,1311 1095,1312 1095,1333 1096,1334 1096,1358 1097,1359 1097,1369 1096,1370 1096,1382 1097,1383 1097,1398 1096,1399 1096,1401 1097,1402 1097,1405 1098,1406 1098,1407 1102,1411 1103,1411 1104,1412 1112,1412 1113,1413 1127,1413 1128,1414 1171,1414 1172,1413 1174,1413 1175,1414 1182,1414 1183,1415 1190,1415 1191,1414 1196,1414 1197,1413 1201,1413 1202,1414 1217,1414 1218,1413 1226,1413 1227,1414 1254,1414 1255,1415 1290,1415 1291,1414 1323,1414 1324,1415 1385,1415 1386,1414 1398,1414 1399,1415 1405,1415 1406,1414 1415,1414 1416,1415 1432,1415 1433,1414 1445,1414 1446,1415 1450,1415 1451,1414 1456,1414 1457,1413 1465,1413 1466,1414 1470,1414 1471,1415 1478,1415 1479,1414 1495,1414 1496,1415 1514,1415 1515,1416 1528,1416 1529,1415 1536,1415 1537,1416 1553,1416 1554,1415 1560,1415 1561,1416 1572,1416 1573,1415 1611,1415 1612,1416 1620,1416 1621,1415 1627,1415 1628,1414 1630,1414 1631,1415 1654,1415 1655,1416 1662,1416 1663,1417 1664,1416 1674,1416 1675,1415 1678,1415 1679,1416 1692,1416 1693,1415 1707,1415 1708,1416 1721,1416 1722,1415 1725,1415 1726,1416 1740,1416 1741,1415 1754,1415 1755,1416 1765,1416 1766,1415 1779,1415 1780,1416 1785,1416 1786,1415 1800,1415 1801,1416 1812,1416 1813,1415 1825,1415 1826,1416 1861,1416 1862,1415 1884,1415 1885,1414 1895,1414 1896,1415 1957,1415 1958,1414 1967,1414 1968,1415 1982,1415 1983,1414 1988,1414 1989,1415 2004,1415 2005,1414 2019,1414 2020,1415 2022,1415 2023,1414 2059,1414 2060,1415 2100,1415 2101,1414 2111,1414 2112,1415 2147,1415 2148,1414 2158,1414 2159,1415 2174,1415 2175,1414 2178,1414 2179,1415 2196,1415 2197,1414 2205,1414 2206,1415 2257,1415 2258,1416 2265,1416 2266,1415 2294,1415 2295,1414 2297,1414 2298,1415 2330,1415 2331,1416 2333,1416 2334,1415 2359,1415 2360,1414 2364,1414 2365,1413 2370,1413 2371,1414 2375,1414 2376,1415 2382,1415 2383,1414 2387,1414 2388,1413 2450,1413 2451,1414 2472,1414 2473,1415 2476,1415 2477,1414 2484,1414 2485,1413 2492,1413 2493,1414 2502,1414 2503,1413 2517,1413 2518,1414 2527,1414 2528,1413 2546,1413 2547,1412 2548,1412 2549,1411 2549,1410 2551,1408 2551,1407 2552,1406 2552,1405 2553,1404 2553,1402 2554,1401 2554,1344 2553,1343 2553,1289 2552,1288 2552,1249 2553,1248 2553,1245 2552,1244 2552,1193 2553,1192 2553,1185 2552,1184 2552,1171 2553,1170 2553,1151 2552,1150 2552,1100 2553,1099 2553,1080 2552,1079 2552,1073 2551,1072 2551,1068 2550,1067 2550,1065 2549,1064 2549,1063 2546,1060 2544,1060 2543,1059 2540,1059 2539,1058 2537,1058 2536,1057 2516,1057 2515,1056 2492,1056 2491,1055 2461,1055 2460,1054 2406,1054 2405,1053 2395,1053 2394,1054 2384,1054 2383,1055 2374,1055 2373,1054 2332,1054 2331,1053 2291,1053 2290,1054 2275,1054 2274,1053 2245,1053 2244,1054 2226,1054 2225,1053 2215,1053 2214,1052 2205,1052 2204,1053 2159,1053 2158,1054 2148,1054 2147,1053 2112,1053 2111,1054 2061,1054 2060,1055 2056,1055 2055,1054 2024,1054 2023,1053 2022,1054 2002,1054 2001,1053 1979,1053 1978,1052 1967,1052 1966,1053 1960,1053 1959,1052 1922,1052 1921,1053 1912,1053 1911,1052 1875,1052 1874,1053 1862,1053 1861,1052 1708,1052 1707,1053 1696,1053 1695,1052 1678,1052 1677,1053 1675,1053 1674,1052 1667,1052 1666,1051 1659,1051 1658,1052 1632,1052 1631,1053 1629,1053 1628,1052 1624,1052 1623,1051 1619,1051 1618,1050 1609,1050 1608,1051 1602,1051 1601,1050 1573,1050 1572,1049" fill="rgba(116,99,103,0.3)" stroke="rgb(116,99,103)" stroke-width="2" data-block-id="0001" data-name="b-0007" /><text x="1762" y="1242" text-anchor="middle" dominant-baseline="middle" class="block-label" fill="rgb(116,99,103)" stroke="white" stroke-width="3" paint-order="stroke">b-0007</text><polygon points="4073,2054 4072,2055 4071,2055 4070,2056 4069,2056 4068,2057 4066,2057 4065,2058 4060,2058 4059,2057 4057,2057 4056,2056 4053,2056 4052,2055 4049,2055 4048,2056 4042,2056 4041,2057 4037,2057 4036,2056 4032,2056 4031,2055 4025,2055 4024,2056 4022,2056 4021,2057 4016,2057 4015,2058 4014,2058 4013,2057 4007,2057 4006,2056 4002,2056 4001,2057 3997,2057 3996,2058 3988,2058 3987,2057 3984,2057 3983,2056 3981,2056 3980,2055 3978,2055 3977,2056 3974,2056 3973,2057 3953,2057 3952,2058 3949,2058 3948,2059 3944,2059 3943,2060 3942,2060 3941,2059 3935,2059 3934,2058 3913,2058 3912,2057 3903,2057 3902,2058 3894,2058 3893,2057 3889,2057 3888,2056 3882,2056 3881,2057 3879,2057 3878,2058 3877,2058 3876,2059 3875,2059 3874,2060 3868,2060 3867,2059 3855,2059 3854,2060 3816,2060 3815,2059 3811,2059 3810,2060 3791,2060 3790,2059 3768,2059 3767,2058 3764,2058 3763,2059 3758,2059 3757,2060 3747,2060 3746,2059 3738,2059 3737,2060 3734,2060 3733,2061 3729,2061 3728,2062 3727,2062 3726,2061 3709,2061 3708,2062 3702,2062 3701,2061 3681,2061 3680,2062 3679,2061 3665,2061 3664,2062 3654,2062 3653,2061 3650,2061 3649,2060 3636,2060 3635,2061 3633,2061 3632,2060 3625,2060 3624,2059 3616,2059 3615,2060 3608,2060 3607,2059 3601,2059 3600,2058 3595,2058 3594,2059 3591,2059 3590,2060 3570,2060 3569,2061 3556,2061 3555,2060 3546,2060 3545,2061 3543,2061 3542,2062 3540,2062 3539,2063 3537,2063 3536,2062 3532,2062 3531,2061 3510,2061 3509,2060 3497,2060 3496,2061 3490,2061 3489,2062 3488,2061 3484,2061 3483,2060 3478,2060 3477,2059 3476,2060 3469,2060 3468,2061 3465,2061 3464,2060 3447,2060 3446,2061 3429,2061 3428,2062 3423,2062 3422,2063 3415,2063 3414,2062 3402,2062 3401,2063 3394,2063 3393,2064 3376,2064 3375,2063 3366,2063 3365,2062 3353,2062 3352,2063 3310,2063 3309,2064 3304,2064 3303,2065 3292,2065 3291,2064 3260,2064 3259,2065 3234,2065 3233,2066 3230,2066 3229,2067 3227,2067 3226,2066 3223,2066 3222,2065 3216,2065 3215,2064 3211,2064 3210,2065 3181,2065 3180,2066 3097,2066 3096,2067 3049,2067 3048,2068 3045,2068 3044,2067 3038,2067 3037,2068 3028,2068 3027,2069 2986,2069 2985,2070 2976,2070 2975,2069 2918,2069 2917,2068 2910,2068 2909,2069 2885,2069 2884,2068 2849,2068 2848,2069 2844,2069 2843,2068 2802,2068 2801,2067 2791,2067 2790,2068 2787,2068 2786,2067 2783,2067 2782,2066 2780,2066 2779,2065 2776,2065 2775,2064 2773,2064 2772,2065 2766,2065 2765,2066 2756,2066 2755,2065 2747,2065 2746,2066 2727,2066 2726,2067 2722,2067 2721,2068 2719,2068 2718,2069 2717,2069 2716,2070 2716,2071 2715,2072 2715,2074 2714,2075 2714,2079 2713,2080 2713,2206 2712,2207 2712,2213 2713,2214 2713,2320 2712,2321 2712,2332 2713,2333 2713,2341 2714,2342 2714,2356 2713,2357 2713,2411 2714,2412 2714,2415 2715,2416 2715,2417 2717,2419 2717,2420 2718,2420 2720,2422 2721,2422 2722,2423 2723,2423 2724,2424 2726,2424 2727,2425 2735,2425 2736,2426 2743,2426 2744,2427 2751,2427 2752,2428 2780,2428 2781,2427 2786,2427 2787,2426 2789,2426 2790,2427 2803,2427 2804,2428 2818,2428 2819,2429 2832,2429 2833,2428 2837,2428 2838,2429 2847,2429 2848,2428 2867,2428 2868,2429 2874,2429 2875,2428 2900,2428 2901,2429 2906,2429 2907,2430 2910,2430 2911,2431 2914,2431 2915,2432 2920,2432 2921,2431 2925,2431 2926,2430 2937,2430 2938,2429 2971,2429 2972,2428 2984,2428 2985,2429 2994,2429 2995,2430 3006,2430 3007,2431 3015,2431 3016,2430 3019,2430 3020,2429 3069,2429 3070,2428 3103,2428 3104,2429 3112,2429 3113,2428 3149,2428 3150,2427 3173,2427 3174,2428 3178,2428 3179,2429 3183,2429 3184,2428 3198,2428 3199,2429 3211,2429 3212,2428 3222,2428 3223,2429 3232,2429 3233,2428 3244,2428 3245,2429 3261,2429 3262,2428 3285,2428 3286,2429 3296,2429 3297,2430 3309,2430 3310,2429 3313,2429 3314,2430 3340,2430 3341,2431 3345,2431 3346,2432 3349,2432 3350,2431 3354,2431 3355,2430 3368,2430 3369,2431 3374,2431 3375,2430 3391,2430 3392,2429 3400,2429 3401,2428 3424,2428 3425,2427 3438,2427 3439,2428 3445,2428 3446,2429 3451,2429 3452,2430 3458,2430 3459,2431 3469,2431 3470,2430 3472,2430 3473,2429 3474,2429 3475,2428 3476,2428 3477,2427 3484,2427 3485,2426 3490,2426 3491,2427 3495,2427 3496,2428 3502,2428 3503,2429 3507,2429 3508,2428 3519,2428 3520,2427 3537,2427 3538,2426 3543,2426 3544,2425 3549,2425 3550,2424 3554,2424 3555,2425 3562,2425 3563,2424 3568,2424 3569,2423 3583,2423 3584,2424 3587,2424 3588,2423 3598,2423 3599,2422 3600,2422 3601,2423 3611,2423 3612,2422 3616,2422 3617,2421 3632,2421 3633,2422 3653,2422 3654,2421 3663,2421 3664,2422 3677,2422 3678,2423 3682,2423 3683,2422 3687,2422 3688,2421 3707,2421 3708,2420 3720,2420 3721,2419 3731,2419 3732,2420 3742,2420 3743,2421 3758,2421 3759,2420 3771,2420 3772,2421 3781,2421 3782,2420 3811,2420 3812,2419 3814,2419 3815,2420 3837,2420 3838,2419 3839,2419 3840,2420 3854,2420 3855,2421 3867,2421 3868,2422 3880,2422 3881,2421 3901,2421 3902,2422 3911,2422 3912,2423 3916,2423 3917,2424 3921,2424 3922,2423 3925,2423 3926,2422 3932,2422 3933,2421 3971,2421 3972,2422 3977,2422 3978,2423 3983,2423 3984,2422 4002,2422 4003,2423 4016,2423 4017,2422 4019,2422 4020,2421 4023,2421 4024,2420 4029,2420 4030,2419 4035,2419 4036,2418 4040,2418 4041,2419 4043,2419 4044,2420 4048,2420 4049,2421 4061,2421 4062,2422 4067,2422 4068,2421 4077,2421 4078,2422 4091,2422 4092,2421 4096,2421 4097,2420 4105,2420 4106,2421 4112,2421 4113,2420 4118,2420 4119,2419 4138,2419 4139,2418 4143,2418 4144,2417 4149,2417 4150,2416 4156,2416 4157,2415 4158,2415 4159,2414 4160,2414 4162,2412 4162,2411 4163,2410 4163,2407 4164,2406 4164,2404 4165,2403 4165,2385 4164,2384 4164,2380 4163,2379 4163,2373 4164,2372 4164,2353 4163,2352 4163,2344 4162,2343 4162,2339 4163,2338 4163,2336 4164,2335 4164,2332 4165,2331 4165,2320 4164,2319 4164,2314 4163,2313 4163,2308 4162,2307 4162,2300 4163,2299 4163,2279 4162,2278 4162,2239 4161,2238 4161,2230 4162,2229 4162,2210 4161,2209 4161,2206 4160,2205 4160,2203 4159,2202 4159,2201 4157,2199 4157,2197 4158,2196 4158,2195 4161,2192 4161,2191 4165,2187 4165,2182 4164,2181 4164,2178 4163,2177 4163,2173 4162,2172 4162,2159 4163,2158 4163,2147 4164,2146 4164,2142 4165,2141 4165,2135 4164,2134 4164,2131 4163,2130 4163,2127 4162,2126 4162,2124 4163,2123 4163,2119 4164,2118 4164,2108 4163,2107 4163,2093 4162,2092 4162,2074 4161,2073 4161,2069 4160,2068 4160,2066 4158,2064 4157,2064 4156,2063 4155,2063 4154,2062 4151,2062 4150,2061 4148,2061 4147,2060 4141,2060 4140,2059 4132,2059 4131,2058 4119,2058 4118,2057 4105,2057 4104,2056 4090,2056 4089,2057 4088,2057 4087,2056 4082,2056 4081,2055 4079,2055 4078,2054" fill="rgba(151,130,149,0.3)" stroke="rgb(151,130,149)" stroke-width="2" data-block-id="0002" data-name="b-0008" /><text x="3578" y="2241" text-anchor="middle" dominant-baseline="middle" class="block-label" fill="rgb(151,130,149)" stroke="white" stroke-width="3" paint-order="stroke">b-0008</text><polygon points="2032,1525 2031,1526 2015,1526 2014,1527 2007,1527 2006,1526 1963,1526 1962,1527 1847,1527 1846,1526 1841,1526 1840,1527 1768,1527 1767,1526 1744,1526 1743,1527 1714,1527 1713,1528 1695,1528 1694,1527 1656,1527 1655,1528 1649,1528 1648,1527 1631,1527 1630,1528 1575,1528 1574,1527 1564,1527 1563,1528 1512,1528 1511,1529 1506,1529 1505,1528 1369,1528 1368,1527 1359,1527 1358,1528 1351,1528 1350,1527 1337,1527 1336,1528 1326,1528 1325,1527 1290,1527 1289,1528 1285,1528 1284,1529 1279,1529 1278,1528 1269,1528 1268,1527 1244,1527 1243,1528 1158,1528 1157,1527 1150,1527 1149,1528 1103,1528 1102,1529 1101,1529 1098,1532 1098,1533 1097,1534 1097,1538 1096,1539 1096,1555 1095,1556 1095,1560 1096,1561 1096,1576 1097,1577 1097,1613 1096,1614 1096,1621 1097,1622 1097,1634 1096,1635 1096,1644 1097,1645 1097,1659 1096,1660 1096,1671 1097,1672 1097,1679 1096,1680 1096,1706 1095,1707 1095,1720 1096,1721 1096,1786 1095,1787 1095,1838 1094,1839 1094,1862 1095,1863 1095,1870 1096,1871 1096,1874 1097,1875 1097,1878 1099,1880 1099,1881 1100,1881 1102,1883 1104,1883 1105,1884 1123,1884 1124,1883 1129,1883 1130,1884 1183,1884 1184,1885 1189,1885 1190,1884 1227,1884 1228,1885 1243,1885 1244,1884 1250,1884 1251,1885 1269,1885 1270,1884 1292,1884 1293,1883 1296,1883 1297,1884 1309,1884 1310,1883 1314,1883 1315,1882 1323,1882 1324,1883 1337,1883 1338,1882 1345,1882 1346,1883 1372,1883 1373,1884 1381,1884 1382,1883 1387,1883 1388,1882 1392,1882 1393,1883 1415,1883 1416,1884 1423,1884 1424,1885 1425,1885 1426,1884 1434,1884 1435,1883 1440,1883 1441,1884 1460,1884 1461,1885 1472,1885 1473,1886 1486,1886 1487,1887 1499,1887 1500,1886 1502,1886 1503,1885 1505,1885 1506,1884 1509,1884 1510,1883 1511,1884 1539,1884 1540,1885 1547,1885 1548,1884 1552,1884 1553,1883 1564,1883 1565,1884 1591,1884 1592,1885 1598,1885 1599,1884 1604,1884 1605,1885 1617,1885 1618,1886 1637,1886 1638,1885 1647,1885 1648,1884 1657,1884 1658,1885 1672,1885 1673,1886 1757,1886 1758,1887 1759,1887 1760,1886 1786,1886 1787,1885 1806,1885 1807,1886 1884,1886 1885,1885 1899,1885 1900,1886 1956,1886 1957,1885 1984,1885 1985,1886 2002,1886 2003,1887 2041,1887 2042,1888 2048,1888 2049,1887 2064,1887 2065,1888 2074,1888 2075,1887 2101,1887 2102,1886 2111,1886 2112,1887 2123,1887 2124,1886 2135,1886 2136,1887 2147,1887 2148,1886 2158,1886 2159,1887 2169,1887 2170,1886 2185,1886 2186,1887 2192,1887 2193,1886 2207,1886 2208,1887 2259,1887 2260,1888 2279,1888 2280,1889 2282,1889 2283,1890 2285,1890 2286,1891 2288,1891 2289,1892 2291,1892 2292,1893 2295,1893 2296,1894 2311,1894 2312,1893 2330,1893 2331,1892 2335,1892 2336,1891 2339,1891 2340,1890 2353,1890 2354,1891 2355,1891 2356,1890 2360,1890 2361,1889 2364,1889 2365,1888 2372,1888 2373,1889 2379,1889 2380,1888 2381,1888 2382,1887 2383,1887 2384,1886 2385,1886 2386,1885 2389,1885 2390,1884 2400,1884 2401,1885 2406,1885 2407,1884 2539,1884 2540,1883 2546,1883 2547,1882 2548,1882 2549,1881 2550,1881 2550,1880 2552,1878 2552,1874 2553,1873 2553,1846 2552,1845 2552,1843 2553,1842 2553,1786 2554,1785 2554,1781 2553,1780 2553,1750 2552,1749 2553,1748 2553,1694 2554,1693 2554,1675 2553,1674 2553,1596 2554,1595 2554,1588 2553,1587 2553,1549 2554,1548 2554,1545 2553,1544 2553,1540 2552,1539 2552,1535 2551,1534 2551,1533 2550,1532 2550,1531 2549,1530 2548,1530 2547,1529 2546,1529 2545,1528 2535,1528 2534,1527 2473,1527 2472,1526 2441,1526 2440,1527 2418,1527 2417,1526 2414,1526 2413,1527 2374,1527 2373,1526 2362,1526 2361,1527 2325,1527 2324,1526 2289,1526 2288,1527 2279,1527 2278,1526 2266,1526 2265,1525 2257,1525 2256,1526 2093,1526 2092,1525 2062,1525 2061,1526 2053,1526 2052,1527 2045,1527 2044,1526 2035,1526 2034,1525" fill="rgba(52,1,87,0.3)" stroke="rgb(52,1,87)" stroke-width="2" data-block-id="0003" data-name="b-0009" /><text x="1812" y="1746" text-anchor="middle" dominant-baseline="middle" class="block-label" fill="rgb(52,1,87)" stroke="white" stroke-width="3" paint-order="stroke">b-0009</text><polygon points="3596,1512 3595,1513 3594,1513 3593,1514 3592,1514 3591,1515 3589,1515 3588,1516 3565,1516 3564,1517 3544,1517 3543,1518 3520,1518 3519,1517 3503,1517 3502,1518 3497,1518 3496,1519 3484,1519 3483,1518 3452,1518 3451,1519 3446,1519 3445,1520 3439,1520 3438,1519 3405,1519 3404,1520 3398,1520 3397,1521 3392,1521 3391,1520 3320,1520 3319,1521 3305,1521 3304,1520 3301,1520 3300,1521 3284,1521 3283,1522 3257,1522 3256,1521 3177,1521 3176,1522 3120,1522 3119,1523 3082,1523 3081,1524 3067,1524 3066,1523 3057,1523 3056,1524 3040,1524 3039,1523 3036,1523 3035,1524 3028,1524 3027,1525 3024,1525 3023,1524 3016,1524 3015,1523 3010,1523 3009,1524 2985,1524 2984,1525 2982,1525 2981,1526 2972,1526 2971,1525 2968,1525 2967,1524 2961,1524 2960,1525 2949,1525 2948,1524 2938,1524 2937,1525 2934,1525 2933,1526 2928,1526 2927,1525 2925,1525 2924,1524 2920,1524 2919,1523 2915,1523 2914,1524 2888,1524 2887,1525 2881,1525 2880,1526 2879,1525 2856,1525 2855,1526 2805,1526 2804,1527 2793,1527 2792,1528 2784,1528 2783,1527 2722,1527 2721,1528 2717,1528 2716,1529 2715,1529 2713,1531 2713,1532 2712,1533 2712,1541 2711,1542 2711,1600 2712,1601 2712,1614 2711,1615 2711,1655 2712,1656 2712,1693 2711,1694 2711,1733 2710,1734 2711,1735 2711,1744 2712,1745 2712,1785 2713,1786 2713,1805 2712,1806 2712,1809 2713,1810 2713,1869 2714,1870 2714,1877 2715,1878 2715,1879 2717,1881 2718,1881 2719,1882 2721,1882 2722,1883 2723,1883 2724,1884 2739,1884 2740,1883 2741,1883 2742,1884 2780,1884 2781,1883 2784,1883 2785,1882 2790,1882 2791,1883 2803,1883 2804,1884 2814,1884 2815,1885 2825,1885 2826,1884 2829,1884 2830,1883 2861,1883 2862,1884 2879,1884 2880,1883 2908,1883 2909,1884 2923,1884 2924,1883 2942,1883 2943,1884 2963,1884 2964,1885 2965,1884 2969,1884 2970,1883 2973,1883 2974,1882 2986,1882 2987,1883 3023,1883 3024,1882 3025,1883 3070,1883 3071,1882 3082,1882 3083,1883 3104,1883 3105,1884 3111,1884 3112,1883 3117,1883 3118,1882 3160,1882 3161,1881 3174,1881 3175,1882 3230,1882 3231,1881 3250,1881 3251,1880 3261,1880 3262,1879 3265,1879 3266,1880 3288,1880 3289,1879 3294,1879 3295,1878 3310,1878 3311,1879 3319,1879 3320,1880 3327,1880 3328,1879 3337,1879 3338,1878 3342,1878 3343,1877 3348,1877 3349,1876 3379,1876 3380,1875 3388,1875 3389,1874 3400,1874 3401,1875 3406,1875 3407,1876 3422,1876 3423,1877 3427,1877 3428,1878 3435,1878 3436,1877 3447,1877 3448,1878 3454,1878 3455,1879 3458,1879 3459,1878 3468,1878 3469,1879 3474,1879 3475,1880 3482,1880 3483,1879 3487,1879 3488,1878 3492,1878 3493,1879 3497,1879 3498,1880 3507,1880 3508,1879 3513,1879 3514,1878 3521,1878 3522,1877 3546,1877 3547,1878 3559,1878 3560,1877 3563,1877 3564,1878 3575,1878 3576,1877 3578,1877 3579,1876 3581,1876 3582,1875 3584,1875 3585,1874 3590,1874 3591,1875 3606,1875 3607,1876 3611,1876 3612,1875 3641,1875 3642,1874 3650,1874 3651,1875 3671,1875 3672,1874 3699,1874 3700,1875 3712,1875 3713,1874 3722,1874 3723,1875 3731,1875 3732,1874 3750,1874 3751,1875 3759,1875 3760,1876 3773,1876 3774,1875 3784,1875 3785,1874 3831,1874 3832,1873 3856,1873 3857,1874 3879,1874 3880,1873 3893,1873 3894,1874 3898,1874 3899,1873 3930,1873 3931,1872 3936,1872 3937,1873 3955,1873 3956,1874 3972,1874 3973,1873 3992,1873 3993,1874 4021,1874 4022,1875 4046,1875 4047,1876 4059,1876 4060,1877 4078,1877 4079,1876 4091,1876 4092,1875 4107,1875 4108,1874 4137,1874 4138,1873 4145,1873 4146,1872 4150,1872 4151,1871 4154,1871 4155,1870 4157,1870 4158,1869 4159,1869 4161,1867 4161,1864 4162,1863 4162,1856 4163,1855 4163,1814 4162,1813 4162,1777 4163,1776 4163,1766 4162,1765 4162,1752 4163,1751 4163,1746 4162,1745 4162,1719 4161,1718 4161,1713 4160,1712 4160,1710 4161,1709 4161,1697 4162,1696 4162,1684 4163,1683 4163,1648 4162,1647 4162,1626 4161,1625 4161,1618 4160,1617 4160,1604 4161,1603 4161,1600 4162,1599 4162,1596 4163,1595 4163,1577 4162,1576 4162,1563 4161,1562 4161,1553 4162,1552 4162,1540 4161,1539 4161,1533 4160,1532 4160,1529 4159,1528 4159,1525 4158,1524 4158,1522 4157,1521 4157,1520 4155,1518 4155,1517 4154,1517 4152,1515 4151,1515 4150,1514 4149,1514 4148,1513 4143,1513 4142,1514 4113,1514 4112,1513 4096,1513 4095,1514 4090,1514 4089,1515 4083,1515 4082,1514 4068,1514 4067,1515 4051,1515 4050,1514 4033,1514 4032,1513 4026,1513 4025,1514 4022,1514 4021,1515 4019,1515 4018,1516 4010,1516 4009,1515 3982,1515 3981,1514 3980,1515 3973,1515 3972,1516 3963,1516 3962,1515 3952,1515 3951,1516 3943,1516 3942,1517 3941,1516 3925,1516 3924,1517 3915,1517 3914,1516 3810,1516 3809,1517 3798,1517 3797,1516 3792,1516 3791,1515 3785,1515 3784,1516 3767,1516 3766,1517 3751,1517 3750,1516 3746,1516 3745,1515 3733,1515 3732,1516 3711,1516 3710,1517 3704,1517 3703,1516 3688,1516 3687,1517 3676,1517 3675,1518 3666,1518 3665,1517 3659,1517 3658,1516 3648,1516 3647,1515 3646,1516 3638,1516 3637,1517 3630,1517 3629,1518 3620,1518 3619,1517 3615,1517 3614,1516 3609,1516 3608,1515 3606,1515 3605,1514 3603,1514 3602,1513 3601,1513 3600,1512" fill="rgba(235,157,37,0.3)" stroke="rgb(235,157,37)" stroke-width="2" data-block-id="0004" data-name="b-0010" /><text x="3492" y="1697" text-anchor="middle" dominant-baseline="middle" class="block-label" fill="rgb(235,157,37)" stroke="white" stroke-width="3" paint-order="stroke">b-0010</text><polygon points="1103,573 1102,574 1101,574 1098,577 1098,579 1097,580 1097,634 1098,635 1098,638 1097,639 1097,671 1096,672 1096,679 1097,680 1097,695 1096,696 1096,729 1097,730 1097,903 1096,904 1096,925 1097,926 1097,927 1098,928 1098,929 1102,933 1103,933 1104,934 1115,934 1116,935 1124,935 1125,936 1169,936 1170,937 1201,937 1202,938 1216,938 1217,937 1228,937 1229,938 1238,938 1239,937 1243,937 1244,936 1258,936 1259,937 1277,937 1278,938 1285,938 1286,937 1301,937 1302,936 1306,936 1307,937 1318,937 1319,938 1359,938 1360,937 1373,937 1374,938 1383,938 1384,937 1399,937 1400,936 1416,936 1417,937 1423,937 1424,938 1427,938 1428,937 1461,937 1462,938 1526,938 1527,937 1561,937 1562,938 1572,938 1573,937 1593,937 1594,938 1666,938 1667,939 1705,939 1706,938 1788,938 1789,939 1921,939 1922,940 1928,940 1929,939 1976,939 1977,940 2009,940 2010,939 2030,939 2031,938 2040,938 2041,939 2047,939 2048,938 2058,938 2059,937 2092,937 2093,938 2103,938 2104,939 2169,939 2170,938 2192,938 2193,939 2230,939 2231,938 2238,938 2239,939 2241,939 2242,940 2246,940 2247,941 2263,941 2264,940 2385,940 2386,939 2528,939 2529,938 2536,938 2537,937 2540,937 2541,936 2542,936 2543,935 2544,935 2545,934 2545,928 2546,927 2546,923 2545,922 2545,920 2543,918 2542,918 2541,917 2541,916 2539,914 2540,913 2540,912 2542,910 2543,910 2544,909 2545,909 2545,908 2546,907 2546,906 2547,905 2547,904 2548,903 2548,896 2547,895 2547,891 2546,890 2546,876 2545,875 2545,870 2544,869 2544,867 2543,866 2544,865 2544,863 2545,862 2545,859 2546,858 2546,856 2547,855 2547,851 2546,850 2546,848 2545,847 2545,845 2542,842 2542,841 2541,840 2541,838 2542,837 2542,835 2543,834 2543,832 2544,831 2544,827 2543,826 2543,823 2542,822 2542,816 2543,815 2543,814 2545,812 2545,810 2546,809 2546,801 2545,800 2545,796 2543,794 2543,790 2544,789 2544,787 2545,786 2545,778 2544,777 2544,775 2543,774 2543,765 2544,764 2544,763 2545,762 2545,751 2544,750 2544,747 2543,746 2543,741 2542,740 2542,738 2540,736 2539,736 2538,735 2537,735 2535,733 2535,731 2536,730 2536,729 2537,728 2537,724 2538,723 2538,721 2539,720 2539,719 2545,713 2545,710 2546,709 2546,708 2545,707 2545,704 2543,702 2543,701 2541,699 2541,698 2540,697 2540,695 2538,693 2538,692 2537,691 2536,691 2535,690 2534,690 2533,689 2532,689 2530,687 2530,686 2529,685 2529,684 2528,683 2527,683 2526,682 2522,682 2521,683 2520,683 2519,684 2519,688 2521,690 2522,690 2523,691 2525,691 2528,694 2528,701 2527,702 2527,704 2526,705 2526,706 2525,707 2525,709 2523,711 2523,712 2522,713 2521,713 2520,714 2519,714 2518,715 2515,715 2514,716 2508,716 2507,715 2505,715 2502,712 2502,711 2501,710 2501,708 2500,707 2499,707 2498,706 2496,708 2496,709 2495,710 2495,711 2492,714 2491,714 2490,715 2486,715 2482,711 2482,706 2483,705 2483,704 2488,699 2488,696 2484,692 2484,691 2483,690 2483,685 2482,684 2482,679 2481,678 2481,677 2480,676 2480,674 2484,670 2484,669 2489,664 2490,665 2492,665 2493,666 2511,666 2512,667 2520,667 2521,668 2528,668 2529,669 2531,669 2532,670 2534,670 2535,669 2536,669 2536,668 2537,667 2537,666 2540,663 2540,659 2539,658 2539,655 2538,654 2538,651 2537,650 2537,648 2536,647 2535,647 2533,645 2532,645 2529,642 2529,640 2528,639 2528,637 2529,636 2529,635 2533,631 2534,631 2537,628 2537,624 2536,624 2534,622 2533,622 2529,618 2529,616 2528,615 2528,603 2529,602 2529,601 2530,600 2530,599 2532,597 2532,595 2533,594 2533,593 2534,592 2533,591 2532,591 2530,589 2528,589 2527,588 2524,588 2523,587 2494,587 2493,586 2485,586 2484,585 2446,585 2445,584 2429,584 2428,583 2418,583 2417,582 2414,582 2413,583 2407,583 2406,584 2402,584 2401,583 2395,583 2394,582 2370,582 2369,581 2366,581 2365,582 2358,582 2357,583 2354,583 2353,582 2348,582 2347,581 2336,581 2335,582 2330,582 2329,581 2323,581 2322,580 2317,580 2316,581 2310,581 2309,582 2307,582 2306,581 2301,581 2300,580 2292,580 2291,581 2288,581 2287,582 2280,582 2279,581 2263,581 2262,582 2258,582 2257,581 2252,581 2251,580 2246,580 2245,581 2241,581 2240,582 2238,582 2237,583 2230,583 2229,582 2219,582 2218,583 2208,583 2207,582 2199,582 2198,583 2195,583 2194,584 2192,584 2191,585 2169,585 2168,584 2149,584 2148,583 2142,583 2141,582 2109,582 2108,583 2104,583 2103,582 2100,582 2099,581 2092,581 2091,580 2080,580 2079,581 2066,581 2065,580 2054,580 2053,579 2040,579 2039,578 2020,578 2019,577 2001,577 2000,578 1996,578 1995,577 1980,577 1979,578 1968,578 1967,577 1956,577 1955,578 1943,578 1942,577 1933,577 1932,578 1924,578 1923,577 1875,577 1874,576 1847,576 1846,575 1840,575 1839,576 1835,576 1834,577 1827,577 1826,576 1810,576 1809,577 1793,577 1792,576 1778,576 1777,575 1767,575 1766,576 1749,576 1748,575 1743,575 1742,576 1734,576 1733,575 1717,575 1716,574 1702,574 1701,575 1696,575 1695,574 1668,574 1667,573 1624,573 1623,574 1612,574 1611,575 1596,575 1595,574 1571,574 1570,575 1553,575 1552,574 1512,574 1511,575 1506,575 1505,574 1479,574 1478,575 1464,575 1463,576 1462,576 1461,575 1456,575 1455,574 1420,574 1419,575 1408,575 1407,574 1323,574 1322,573 1286,573 1285,574 1274,574 1273,573 1216,573 1215,574 1206,574 1205,573" fill="rgba(129,191,187,0.3)" stroke="rgb(129,191,187)" stroke-width="2" data-block-id="0005" data-name="b-0011" /><text x="2140" y="722" text-anchor="middle" dominant-baseline="middle" class="block-label" fill="rgb(129,191,187)" stroke="white" stroke-width="3" paint-order="stroke">b-0011</text><polygon points="3996,568 3995,569 3978,569 3977,570 3950,570 3949,571 3939,571 3938,570 3924,570 3923,571 3918,571 3917,570 3910,570 3909,569 3907,569 3906,570 3899,570 3898,571 3868,571 3867,570 3860,570 3859,571 3854,571 3853,572 3838,572 3837,573 3802,573 3801,572 3756,572 3755,573 3746,573 3745,572 3738,572 3737,573 3716,573 3715,572 3675,572 3674,571 3666,571 3665,572 3565,572 3564,573 3561,573 3560,572 3542,572 3541,573 3536,573 3535,572 3522,572 3521,573 3516,573 3515,574 3512,574 3511,573 3506,573 3505,572 3499,572 3498,573 3470,573 3469,574 3459,574 3458,573 3453,573 3452,574 3422,574 3421,575 3417,575 3416,574 3373,574 3372,575 3365,575 3364,574 3358,574 3357,575 3344,575 3343,574 3339,574 3338,573 3328,573 3327,574 3303,574 3302,575 3260,575 3259,576 3254,576 3253,577 3251,577 3250,576 3246,576 3245,575 3232,575 3231,576 3185,576 3184,577 3176,577 3175,576 3089,576 3088,577 3077,577 3076,576 3019,576 3018,577 3013,577 3012,576 2938,576 2937,577 2913,577 2912,576 2901,576 2900,577 2888,577 2887,578 2882,578 2881,579 2868,579 2867,578 2827,578 2826,579 2806,579 2805,580 2800,580 2799,581 2792,581 2791,580 2785,580 2784,581 2761,581 2760,582 2755,582 2754,583 2736,583 2735,584 2717,584 2716,585 2713,585 2712,586 2711,586 2709,588 2709,589 2708,590 2708,591 2707,592 2707,597 2706,598 2706,765 2707,766 2707,837 2706,838 2706,846 2707,847 2707,882 2706,883 2706,929 2707,930 2707,934 2708,935 2708,936 2712,940 2714,940 2715,941 2791,941 2792,940 2829,940 2830,939 2836,939 2837,940 2872,940 2873,939 2877,939 2878,938 2898,938 2899,939 2905,939 2906,938 2926,938 2927,937 2932,937 2933,938 3020,938 3021,937 3027,937 3028,938 3065,938 3066,937 3135,937 3136,936 3143,936 3144,935 3146,935 3147,936 3164,936 3165,935 3174,935 3175,936 3193,936 3194,935 3213,935 3214,936 3301,936 3302,935 3324,935 3325,936 3335,936 3336,935 3353,935 3354,934 3409,934 3410,935 3423,935 3424,934 3448,934 3449,933 3463,933 3464,932 3468,932 3469,933 3556,933 3557,932 3563,932 3564,933 3569,933 3570,934 3610,934 3611,933 3630,933 3631,932 3638,932 3639,933 3666,933 3667,932 3698,932 3699,931 3712,931 3713,932 3722,932 3723,931 3732,931 3733,932 3741,932 3742,933 3748,933 3749,934 3775,934 3776,933 3786,933 3787,932 3790,932 3791,933 3808,933 3809,932 3834,932 3835,933 3844,933 3845,934 3868,934 3869,933 3879,933 3880,932 3889,932 3890,933 3898,933 3899,932 3907,932 3908,931 3922,931 3923,932 3958,932 3959,931 3964,931 3965,930 3973,930 3974,931 3995,931 3996,930 4107,930 4108,929 4136,929 4137,928 4139,928 4140,927 4141,927 4142,926 4143,926 4144,925 4144,924 4145,923 4145,922 4146,921 4146,917 4147,916 4147,909 4148,908 4148,903 4149,902 4148,901 4148,898 4147,897 4147,893 4146,892 4146,869 4145,868 4145,859 4144,858 4144,849 4143,848 4143,838 4144,837 4144,834 4145,833 4145,831 4146,830 4146,815 4147,814 4147,809 4148,808 4148,805 4147,804 4147,802 4146,801 4146,800 4145,799 4145,797 4144,796 4144,788 4145,787 4145,774 4144,773 4144,765 4145,764 4145,754 4144,753 4144,750 4143,749 4143,742 4144,741 4144,738 4145,737 4145,727 4144,726 4144,720 4145,719 4145,717 4146,716 4146,714 4147,713 4147,712 4148,711 4147,710 4147,708 4146,707 4146,706 4145,705 4145,704 4144,703 4144,702 4143,701 4143,691 4144,690 4144,682 4143,681 4143,669 4144,668 4144,665 4145,664 4145,659 4144,658 4144,654 4143,653 4143,647 4144,646 4144,644 4145,643 4145,642 4146,641 4146,640 4147,639 4147,638 4146,637 4146,636 4145,635 4145,634 4144,633 4144,632 4143,631 4143,628 4142,627 4142,625 4143,624 4143,622 4144,621 4144,619 4145,618 4145,617 4146,616 4146,611 4145,610 4145,607 4144,606 4144,596 4145,595 4145,581 4144,580 4144,577 4143,576 4143,575 4140,572 4139,572 4138,571 4136,571 4135,570 4132,570 4131,571 4125,571 4124,572 4122,572 4121,571 4114,571 4113,570 4107,570 4106,571 4071,571 4070,570 4047,570 4046,571 4028,571 4027,570 4012,570 4011,569 4006,569 4005,568" fill="rgba(20,160,203,0.3)" stroke="rgb(20,160,203)" stroke-width="2" data-block-id="0006" data-name="b-0012" /><text x="3635" y="734" text-anchor="middle" dominant-baseline="middle" class="block-label" fill="rgb(20,160,203)" stroke="white" stroke-width="3" paint-order="stroke">b-0012</text><polygon points="4023,1038 4022,1039 4019,1039 4018,1040 3981,1040 3980,1041 3974,1041 3973,1042 3962,1042 3961,1041 3952,1041 3951,1042 3943,1042 3942,1043 3941,1042 3931,1042 3930,1043 3925,1043 3924,1044 3920,1044 3919,1045 3883,1045 3882,1046 3875,1046 3874,1047 3857,1047 3856,1046 3840,1046 3839,1045 3817,1045 3816,1044 3813,1044 3812,1045 3786,1045 3785,1046 3782,1046 3781,1047 3779,1047 3778,1048 3770,1048 3769,1047 3762,1047 3761,1048 3744,1048 3743,1047 3739,1047 3738,1048 3713,1048 3712,1049 3708,1049 3707,1050 3702,1050 3701,1049 3685,1049 3684,1050 3678,1050 3677,1049 3654,1049 3653,1048 3649,1048 3648,1047 3640,1047 3639,1048 3631,1048 3630,1047 3626,1047 3625,1046 3617,1046 3616,1047 3603,1047 3602,1048 3564,1048 3563,1049 3561,1049 3560,1048 3555,1048 3554,1047 3501,1047 3500,1046 3461,1046 3460,1047 3451,1047 3450,1046 3439,1046 3438,1047 3434,1047 3433,1048 3427,1048 3426,1047 3379,1047 3378,1046 3374,1046 3373,1045 3360,1045 3359,1046 3355,1046 3354,1047 3350,1047 3349,1048 3345,1048 3344,1049 3341,1049 3340,1050 3330,1050 3329,1049 3305,1049 3304,1050 3282,1050 3281,1051 3269,1051 3268,1050 3259,1050 3258,1051 3250,1051 3249,1050 3244,1050 3243,1049 3233,1049 3232,1050 3223,1050 3222,1049 3186,1049 3185,1050 3154,1050 3153,1049 3150,1049 3149,1048 3138,1048 3137,1049 3118,1049 3117,1048 3092,1048 3091,1049 3074,1049 3073,1050 2984,1050 2983,1051 2975,1051 2974,1052 2965,1052 2964,1053 2941,1053 2940,1054 2934,1054 2933,1055 2927,1055 2926,1054 2923,1054 2922,1053 2903,1053 2902,1052 2898,1052 2897,1051 2889,1051 2888,1052 2874,1052 2873,1051 2864,1051 2863,1052 2854,1052 2853,1051 2806,1051 2805,1052 2758,1052 2757,1053 2736,1053 2735,1054 2732,1054 2731,1055 2728,1055 2727,1056 2721,1056 2720,1057 2716,1057 2713,1060 2713,1061 2712,1062 2712,1064 2711,1065 2711,1068 2710,1069 2710,1150 2709,1151 2709,1153 2710,1154 2710,1169 2709,1170 2709,1182 2710,1183 2710,1243 2709,1244 2709,1251 2710,1252 2710,1367 2711,1368 2711,1394 2710,1395 2710,1403 2711,1404 2711,1406 2712,1407 2712,1408 2714,1410 2714,1411 2715,1411 2716,1412 2724,1412 2725,1413 2733,1413 2734,1414 2742,1414 2743,1415 2752,1415 2753,1414 2758,1414 2759,1413 2787,1413 2788,1414 2803,1414 2804,1413 2808,1413 2809,1412 2817,1412 2818,1413 2855,1413 2856,1412 2874,1412 2875,1411 2880,1411 2881,1410 2885,1410 2886,1411 2900,1411 2901,1410 2927,1410 2928,1409 2931,1409 2932,1410 2938,1410 2939,1411 2985,1411 2986,1412 2995,1412 2996,1411 3021,1411 3022,1410 3025,1410 3026,1411 3044,1411 3045,1410 3065,1410 3066,1411 3072,1411 3073,1412 3080,1412 3081,1411 3091,1411 3092,1410 3117,1410 3118,1409 3164,1409 3165,1408 3221,1408 3222,1409 3233,1409 3234,1408 3257,1408 3258,1407 3267,1407 3268,1408 3299,1408 3300,1407 3306,1407 3307,1406 3317,1406 3318,1407 3341,1407 3342,1406 3350,1406 3351,1407 3354,1407 3355,1408 3359,1408 3360,1409 3375,1409 3376,1408 3380,1408 3381,1407 3386,1407 3387,1408 3394,1408 3395,1409 3420,1409 3421,1408 3428,1408 3429,1407 3433,1407 3434,1408 3445,1408 3446,1409 3469,1409 3470,1408 3474,1408 3475,1407 3511,1407 3512,1408 3514,1408 3515,1407 3523,1407 3524,1406 3533,1406 3534,1407 3542,1407 3543,1406 3563,1406 3564,1405 3581,1405 3582,1404 3588,1404 3589,1405 3605,1405 3606,1404 3611,1404 3612,1405 3617,1405 3618,1406 3631,1406 3632,1405 3636,1405 3637,1406 3649,1406 3650,1405 3672,1405 3673,1404 3686,1404 3687,1405 3699,1405 3700,1404 3712,1404 3713,1405 3747,1405 3748,1404 3762,1404 3763,1405 3771,1405 3772,1404 3780,1404 3781,1405 3792,1405 3793,1404 3807,1404 3808,1405 3837,1405 3838,1404 3843,1404 3844,1403 3858,1403 3859,1404 3888,1404 3889,1403 3892,1403 3893,1402 3898,1402 3899,1403 3904,1403 3905,1404 3915,1404 3916,1403 3925,1403 3926,1404 3953,1404 3954,1403 3959,1403 3960,1404 3971,1404 3972,1403 3994,1403 3995,1402 3996,1402 3997,1401 3998,1401 3999,1400 4000,1400 4002,1398 4006,1398 4007,1399 4008,1399 4009,1400 4011,1400 4012,1401 4016,1401 4017,1402 4021,1402 4022,1403 4067,1403 4068,1402 4074,1402 4075,1401 4082,1401 4083,1400 4088,1400 4089,1399 4093,1399 4094,1398 4098,1398 4099,1397 4115,1397 4116,1396 4127,1396 4128,1395 4136,1395 4137,1394 4143,1394 4144,1393 4147,1393 4148,1392 4149,1392 4150,1391 4151,1391 4152,1390 4152,1389 4153,1388 4152,1387 4152,1384 4151,1383 4151,1381 4150,1380 4150,1367 4151,1366 4151,1363 4152,1362 4152,1357 4153,1356 4153,1353 4154,1352 4154,1350 4155,1349 4155,1346 4156,1345 4156,1341 4155,1340 4155,1338 4154,1337 4154,1334 4153,1333 4153,1309 4152,1308 4153,1307 4153,1304 4154,1303 4154,1302 4155,1301 4155,1300 4156,1299 4156,1298 4157,1297 4157,1294 4158,1293 4158,1289 4157,1288 4157,1278 4156,1277 4156,1274 4155,1273 4155,1270 4154,1269 4154,1268 4153,1267 4153,1264 4152,1263 4152,1261 4151,1260 4151,1257 4152,1256 4152,1249 4153,1248 4153,1232 4152,1231 4152,1228 4151,1227 4151,1225 4150,1224 4150,1221 4151,1220 4151,1218 4152,1217 4152,1214 4153,1213 4153,1204 4152,1203 4152,1185 4153,1184 4153,1182 4154,1181 4154,1179 4155,1178 4155,1162 4154,1161 4154,1157 4153,1156 4153,1148 4154,1147 4154,1145 4155,1144 4155,1142 4156,1141 4156,1137 4157,1136 4157,1129 4156,1128 4156,1126 4153,1123 4153,1122 4149,1118 4149,1117 4148,1116 4148,1113 4149,1112 4149,1110 4150,1109 4150,1106 4151,1105 4151,1101 4150,1100 4150,1096 4149,1095 4149,1087 4148,1086 4148,1077 4147,1076 4147,1071 4146,1070 4146,1061 4147,1060 4147,1055 4146,1054 4146,1051 4145,1050 4145,1048 4144,1047 4144,1046 4143,1045 4142,1045 4141,1044 4138,1044 4137,1043 4122,1043 4121,1042 4104,1042 4103,1041 4097,1041 4096,1042 4065,1042 4064,1041 4047,1041 4046,1042 4036,1042 4035,1041 4034,1041 4033,1040 4032,1040 4031,1039 4029,1039 4028,1038" fill="rgba(57,21,252,0.3)" stroke="rgb(57,21,252)" stroke-width="2" data-block-id="0007" data-name="b-0013" /><text x="3597" y="1231" text-anchor="middle" dominant-baseline="middle" class="block-label" fill="rgb(57,21,252)" stroke="white" stroke-width="3" paint-order="stroke">b-0013</text><polygon points="2543,2540 2542,2541 2512,2541 2511,2542 2504,2542 2503,2541 2498,2541 2497,2542 2469,2542 2468,2543 2463,2543 2462,2544 2461,2543 2458,2543 2457,2542 2440,2542 2439,2543 2428,2543 2427,2544 2415,2544 2414,2545 2407,2545 2406,2546 2402,2546 2401,2545 2397,2545 2396,2544 2391,2544 2390,2543 2383,2543 2382,2542 2375,2542 2374,2543 2336,2543 2335,2542 2325,2542 2324,2543 2151,2543 2150,2542 2115,2542 2114,2543 2104,2543 2103,2542 2085,2542 2084,2543 2029,2543 2028,2544 2016,2544 2015,2543 1940,2543 1939,2544 1915,2544 1914,2543 1888,2543 1887,2544 1867,2544 1866,2543 1820,2543 1819,2542 1791,2542 1790,2543 1764,2543 1763,2542 1756,2542 1755,2543 1723,2543 1722,2542 1702,2542 1701,2543 1697,2543 1696,2542 1537,2542 1536,2543 1530,2543 1529,2542 1513,2542 1512,2543 1433,2543 1432,2542 1357,2542 1356,2541 1350,2541 1349,2542 1333,2542 1332,2541 1328,2541 1327,2542 1261,2542 1260,2543 1236,2543 1235,2544 1231,2544 1230,2545 1228,2545 1226,2547 1226,2548 1225,2549 1225,2550 1224,2551 1224,2555 1223,2556 1223,2573 1224,2574 1224,2592 1225,2593 1226,2593 1228,2595 1229,2595 1231,2597 1232,2597 1234,2599 1235,2599 1243,2607 1244,2607 1245,2608 1247,2608 1248,2609 1250,2609 1251,2610 1253,2610 1262,2619 1263,2619 1265,2621 1266,2621 1267,2622 1269,2622 1270,2623 1273,2623 1274,2624 1278,2624 1279,2625 1282,2625 1283,2626 1285,2626 1286,2627 1287,2627 1288,2628 1289,2628 1291,2630 1292,2630 1293,2631 1294,2631 1295,2632 1297,2632 1298,2633 1302,2633 1303,2634 1307,2634 1308,2635 1309,2635 1310,2636 1311,2636 1312,2637 1313,2637 1314,2638 1315,2638 1317,2640 1317,2641 1318,2642 1318,2645 1319,2646 1319,2699 1320,2700 1320,2703 1319,2704 1319,2710 1320,2711 1320,2744 1319,2745 1319,2774 1320,2775 1320,2790 1319,2791 1319,2808 1320,2809 1320,2836 1319,2837 1319,2857 1320,2858 1320,2870 1321,2871 1321,2880 1322,2881 1322,2883 1323,2884 1323,2885 1324,2886 1325,2886 1326,2887 1327,2887 1328,2888 1329,2888 1330,2889 1332,2889 1333,2890 1335,2890 1337,2892 1338,2892 1339,2893 1340,2893 1341,2894 1343,2894 1344,2895 1345,2895 1346,2896 1349,2896 1350,2897 1352,2897 1353,2898 1357,2898 1358,2899 1362,2899 1363,2900 1367,2900 1368,2901 1370,2901 1371,2902 1373,2902 1374,2903 1378,2903 1379,2904 1387,2904 1388,2905 1481,2905 1482,2906 1500,2906 1501,2905 1601,2905 1602,2904 1611,2904 1612,2905 1618,2905 1619,2904 1636,2904 1637,2905 1642,2905 1643,2904 1674,2904 1675,2905 1730,2905 1731,2906 1744,2906 1745,2905 1746,2905 1747,2906 1799,2906 1800,2907 1814,2907 1815,2906 1824,2906 1825,2907 1864,2907 1865,2906 1884,2906 1885,2907 1914,2907 1915,2906 1920,2906 1921,2907 1955,2907 1956,2906 2010,2906 2011,2905 2012,2906 2052,2906 2053,2905 2101,2905 2102,2904 2112,2904 2113,2905 2125,2905 2126,2904 2129,2904 2130,2905 2151,2905 2152,2904 2155,2904 2156,2905 2183,2905 2184,2906 2193,2906 2194,2905 2224,2905 2225,2906 2328,2906 2329,2907 2333,2907 2334,2906 2385,2906 2386,2907 2459,2907 2460,2906 2496,2906 2497,2905 2535,2905 2536,2904 2544,2904 2545,2903 2548,2903 2549,2902 2550,2902 2552,2900 2553,2900 2553,2899 2554,2898 2554,2896 2555,2895 2555,2892 2556,2891 2556,2876 2555,2875 2555,2858 2556,2857 2556,2832 2557,2831 2557,2829 2556,2828 2556,2725 2557,2724 2557,2709 2556,2708 2556,2637 2557,2636 2557,2614 2556,2613 2556,2583 2557,2582 2557,2554 2556,2553 2556,2550 2555,2549 2555,2546 2554,2545 2554,2544 2552,2542 2551,2542 2550,2541 2547,2541 2546,2540" fill="rgba(235,88,48,0.3)" stroke="rgb(235,88,48)" stroke-width="2" data-block-id="0008" data-name="b-0014" /><text x="1793" y="2716" text-anchor="middle" dominant-baseline="middle" class="block-label" fill="rgb(235,88,48)" stroke="white" stroke-width="3" paint-order="stroke">b-0014</text><polygon points="4071,2529 4070,2530 4065,2530 4064,2531 4055,2531 4054,2530 4037,2530 4036,2531 4031,2531 4030,2532 4023,2532 4022,2531 3987,2531 3986,2530 3971,2530 3970,2531 3954,2531 3953,2532 3901,2532 3900,2533 3877,2533 3876,2532 3820,2532 3819,2533 3808,2533 3807,2532 3796,2532 3795,2533 3707,2533 3706,2532 3703,2532 3702,2533 3687,2533 3686,2534 3684,2534 3683,2535 3679,2535 3678,2534 3673,2534 3672,2533 3665,2533 3664,2534 3637,2534 3636,2535 3632,2535 3631,2534 3615,2534 3614,2535 3553,2535 3552,2536 3459,2536 3458,2537 3439,2537 3438,2536 3432,2536 3431,2535 3403,2535 3402,2536 3381,2536 3380,2535 3366,2535 3365,2536 3352,2536 3351,2535 3333,2535 3332,2536 3318,2536 3317,2537 3311,2537 3310,2538 3309,2537 3277,2537 3276,2538 3258,2538 3257,2539 3248,2539 3247,2538 3239,2538 3238,2537 3214,2537 3213,2538 3202,2538 3201,2537 3151,2537 3150,2538 3140,2538 3139,2537 3091,2537 3090,2536 3076,2536 3075,2537 3071,2537 3070,2536 3049,2536 3048,2537 3041,2537 3040,2538 3030,2538 3029,2537 3019,2537 3018,2538 2922,2538 2921,2539 2912,2539 2911,2538 2900,2538 2899,2537 2888,2537 2887,2536 2875,2536 2874,2537 2864,2537 2863,2538 2860,2538 2859,2539 2855,2539 2854,2538 2835,2538 2834,2537 2810,2537 2809,2536 2808,2537 2773,2537 2772,2536 2724,2536 2723,2537 2721,2537 2720,2538 2719,2538 2717,2540 2717,2541 2716,2542 2716,2550 2715,2551 2715,2576 2716,2577 2716,2601 2715,2602 2715,2613 2716,2614 2716,2642 2715,2643 2715,2661 2716,2662 2716,2672 2717,2673 2717,2676 2716,2677 2716,2702 2717,2703 2717,2710 2718,2711 2718,2712 2721,2715 2722,2715 2723,2716 2724,2716 2725,2717 2747,2717 2748,2718 2754,2718 2755,2717 2766,2717 2767,2718 2807,2718 2808,2719 2855,2719 2856,2718 2857,2718 2858,2719 2861,2719 2862,2720 2866,2720 2867,2721 2890,2721 2891,2720 2895,2720 2896,2721 2902,2721 2903,2722 2940,2722 2941,2721 2949,2721 2950,2720 2960,2720 2961,2721 2972,2721 2973,2720 3050,2720 3051,2721 3057,2721 3058,2722 3118,2722 3119,2721 3124,2721 3125,2722 3136,2722 3137,2721 3141,2721 3142,2720 3150,2720 3151,2721 3162,2721 3163,2720 3227,2720 3228,2719 3245,2719 3246,2718 3251,2718 3252,2717 3264,2717 3265,2716 3266,2717 3302,2717 3303,2716 3306,2716 3307,2715 3309,2715 3310,2714 3314,2714 3315,2715 3318,2715 3319,2716 3337,2716 3338,2715 3352,2715 3353,2714 3361,2714 3362,2715 3369,2715 3370,2716 3373,2716 3374,2715 3384,2715 3385,2714 3393,2714 3394,2713 3396,2713 3397,2714 3404,2714 3405,2715 3424,2715 3425,2716 3434,2716 3435,2715 3439,2715 3440,2714 3444,2714 3445,2715 3447,2715 3448,2716 3449,2716 3450,2717 3451,2717 3453,2719 3459,2719 3460,2718 3462,2718 3463,2717 3465,2717 3466,2716 3471,2716 3472,2715 3481,2715 3482,2716 3492,2716 3493,2715 3495,2715 3496,2714 3512,2714 3513,2713 3570,2713 3571,2712 3673,2712 3674,2711 3679,2711 3680,2710 3688,2710 3689,2711 3709,2711 3710,2710 3726,2710 3727,2709 3758,2709 3759,2710 3769,2710 3770,2709 3781,2709 3782,2710 3791,2710 3792,2711 3809,2711 3810,2710 3828,2710 3829,2711 3846,2711 3847,2710 3860,2710 3861,2709 3862,2709 3863,2710 3876,2710 3877,2709 3936,2709 3937,2708 3971,2708 3972,2709 3979,2709 3980,2710 3981,2710 3982,2709 3996,2709 3997,2710 4080,2710 4081,2711 4088,2711 4089,2710 4094,2710 4095,2709 4113,2709 4114,2708 4128,2708 4129,2709 4141,2709 4142,2708 4162,2708 4163,2707 4165,2707 4169,2703 4169,2702 4171,2700 4171,2687 4170,2686 4170,2675 4169,2674 4169,2672 4170,2671 4170,2648 4169,2647 4169,2613 4168,2612 4168,2608 4167,2607 4167,2594 4168,2593 4168,2551 4167,2550 4167,2542 4166,2541 4166,2538 4165,2537 4165,2534 4161,2530 4158,2530 4157,2529 4155,2529 4154,2530 4142,2530 4141,2529 4125,2529 4124,2530 4120,2530 4119,2529 4105,2529 4104,2530 4096,2530 4095,2529" fill="rgba(218,58,254,0.3)" stroke="rgb(218,58,254)" stroke-width="2" data-block-id="0009" data-name="b-0015" /><text x="3437" y="2632" text-anchor="middle" dominant-baseline="middle" class="block-label" fill="rgb(218,58,254)" stroke="white" stroke-width="3" paint-order="stroke">b-0015</text><polygon points="1111,2064 1110,2065 1103,2065 1102,2066 1101,2066 1100,2067 1099,2067 1099,2068 1098,2069 1098,2070 1097,2071 1097,2073 1096,2074 1096,2077 1095,2078 1095,2089 1094,2090 1094,2100 1093,2101 1093,2119 1094,2120 1094,2146 1093,2147 1093,2168 1094,2169 1094,2180 1093,2181 1093,2197 1092,2198 1092,2216 1093,2217 1093,2222 1092,2223 1092,2230 1091,2231 1091,2240 1090,2241 1090,2262 1091,2263 1091,2281 1090,2282 1090,2288 1089,2289 1089,2298 1090,2299 1090,2308 1091,2309 1091,2314 1092,2315 1092,2333 1091,2334 1091,2342 1090,2343 1090,2354 1091,2355 1091,2379 1090,2380 1090,2383 1089,2384 1089,2386 1088,2387 1088,2392 1087,2393 1087,2402 1088,2403 1088,2404 1089,2405 1089,2406 1090,2407 1090,2409 1091,2410 1091,2413 1092,2414 1092,2422 1093,2423 1093,2424 1097,2428 1098,2428 1101,2431 1103,2431 1104,2432 1108,2432 1109,2433 1116,2433 1117,2432 1119,2432 1120,2431 1122,2431 1123,2430 1125,2430 1126,2429 1132,2429 1133,2430 1147,2430 1148,2431 1197,2431 1198,2430 1218,2430 1219,2431 1225,2431 1226,2432 1232,2432 1233,2433 1238,2433 1239,2432 1261,2432 1262,2431 1266,2431 1267,2430 1288,2430 1289,2431 1305,2431 1306,2432 1329,2432 1330,2431 1363,2431 1364,2432 1385,2432 1386,2431 1403,2431 1404,2430 1411,2430 1412,2429 1441,2429 1442,2430 1455,2430 1456,2429 1476,2429 1477,2430 1501,2430 1502,2429 1506,2429 1507,2428 1511,2428 1512,2429 1516,2429 1517,2430 1534,2430 1535,2429 1646,2429 1647,2428 1657,2428 1658,2429 1670,2429 1671,2428 1712,2428 1713,2429 1780,2429 1781,2430 1791,2430 1792,2431 1796,2431 1797,2432 1804,2432 1805,2433 1806,2432 1809,2432 1810,2431 1812,2431 1813,2430 1816,2430 1817,2429 1828,2429 1829,2428 1880,2428 1881,2429 1887,2429 1888,2430 1911,2430 1912,2429 1922,2429 1923,2428 1931,2428 1932,2429 1958,2429 1959,2428 1976,2428 1977,2429 1997,2429 1998,2428 2021,2428 2022,2429 2031,2429 2032,2430 2041,2430 2042,2429 2051,2429 2052,2428 2117,2428 2118,2429 2145,2429 2146,2430 2162,2430 2163,2431 2164,2431 2165,2430 2175,2430 2176,2429 2186,2429 2187,2428 2200,2428 2201,2427 2213,2427 2214,2428 2233,2428 2234,2427 2239,2427 2240,2428 2293,2428 2294,2427 2298,2427 2299,2428 2328,2428 2329,2427 2331,2427 2332,2428 2336,2428 2337,2429 2357,2429 2358,2430 2425,2430 2426,2429 2449,2429 2450,2430 2479,2430 2480,2429 2520,2429 2521,2428 2531,2428 2532,2427 2542,2427 2543,2426 2547,2426 2548,2425 2549,2425 2550,2424 2551,2424 2552,2423 2552,2422 2553,2421 2553,2419 2554,2418 2554,2415 2555,2414 2555,2393 2554,2392 2554,2386 2555,2385 2555,2381 2556,2380 2556,2371 2555,2370 2555,2337 2556,2336 2556,2333 2557,2332 2557,2322 2556,2321 2556,2311 2555,2310 2555,2301 2554,2300 2554,2289 2555,2288 2555,2283 2556,2282 2556,2279 2555,2278 2555,2268 2554,2267 2554,2255 2553,2254 2553,2240 2554,2239 2554,2221 2553,2220 2553,2207 2552,2206 2552,2194 2553,2193 2553,2186 2554,2185 2554,2184 2553,2183 2553,2152 2552,2151 2553,2150 2553,2142 2554,2141 2554,2131 2553,2130 2553,2123 2554,2122 2554,2116 2555,2115 2555,2111 2554,2110 2554,2089 2553,2088 2553,2081 2552,2080 2552,2077 2550,2075 2550,2074 2549,2073 2548,2073 2547,2072 2546,2072 2545,2071 2540,2071 2539,2070 2408,2070 2407,2071 2395,2071 2394,2070 2392,2070 2391,2071 2383,2071 2382,2072 2374,2072 2373,2071 2347,2071 2346,2070 2341,2070 2340,2071 2296,2071 2295,2070 2269,2070 2268,2071 2252,2071 2251,2070 2243,2070 2242,2071 2233,2071 2232,2070 2193,2070 2192,2071 2187,2071 2186,2070 2155,2070 2154,2069 2151,2069 2150,2070 2109,2070 2108,2069 2074,2069 2073,2070 2066,2070 2065,2069 2051,2069 2050,2070 2036,2070 2035,2069 2032,2069 2031,2070 2016,2070 2015,2069 2007,2069 2006,2070 1978,2070 1977,2071 1971,2071 1970,2070 1958,2070 1957,2071 1939,2071 1938,2070 1929,2070 1928,2069 1920,2069 1919,2068 1909,2068 1908,2069 1897,2069 1896,2068 1885,2068 1884,2069 1873,2069 1872,2068 1860,2068 1859,2069 1848,2069 1847,2068 1839,2068 1838,2069 1803,2069 1802,2068 1758,2068 1757,2067 1748,2067 1747,2068 1672,2068 1671,2069 1593,2069 1592,2068 1578,2068 1577,2069 1567,2069 1566,2070 1564,2070 1563,2071 1561,2071 1560,2072 1559,2072 1558,2073 1553,2073 1552,2072 1550,2072 1549,2071 1546,2071 1545,2070 1539,2070 1538,2071 1528,2071 1527,2072 1520,2072 1519,2073 1508,2073 1507,2072 1506,2072 1505,2071 1503,2071 1502,2070 1500,2070 1499,2069 1490,2069 1489,2070 1487,2070 1486,2071 1483,2071 1482,2070 1478,2070 1477,2069 1461,2069 1460,2068 1456,2068 1455,2067 1452,2067 1451,2066 1446,2066 1445,2067 1442,2067 1441,2068 1437,2068 1436,2069 1435,2069 1434,2068 1407,2068 1406,2067 1394,2067 1393,2068 1356,2068 1355,2067 1350,2067 1349,2068 1312,2068 1311,2067 1264,2067 1263,2066 1250,2066 1249,2067 1243,2067 1242,2066 1213,2066 1212,2065 1205,2065 1204,2066 1196,2066 1195,2065 1178,2065 1177,2066 1173,2066 1172,2065 1120,2065 1119,2064" fill="rgba(74,202,87,0.3)" stroke="rgb(74,202,87)" stroke-width="2" data-block-id="0010" data-name="b-0006" /><text x="1779" y="2245" text-anchor="middle" dominant-baseline="middle" class="block-label" fill="rgb(74,202,87)" stroke="white" stroke-width="3" paint-order="stroke">b-0006</text></g>
</svg>