<?xml version='1.0' encoding='utf-8'?>
<svg xmlns="http://www.w3.org/2000/svg" xmlns:atlas="http://example.com/atlas" width="4984" height="3232" viewBox="0 0 4984 3232">
  
  <metadata>
    <atlas:source>
      <atlas:jp2-path>/Users/pwright/workspace/atlas/media/v2/p25.jp2</atlas:jp2-path>
      <atlas:volume>unknown</atlas:volume>
      <atlas:plate-id>p25</atlas:plate-id>
      <atlas:image-width>4984</atlas:image-width>
      <atlas:image-height>3232</atlas:image-height>
    <atlas:angle>-0.8534475615175463</atlas:angle><atlas:scale>1.3670086304514824</atlas:scale><atlas:pos-x>2386.892307937228</atlas:pos-x><atlas:pos-y>1485.7596835335376</atlas:pos-y></atlas:source>
  </metadata>

  
  <image id="background" href="file:///Users/pwright/workspace/atlas/media/v2/p25.jp2" width="4984" height="3232" opacity="0.5" />

  <style>
    .block-label { font-family: sans-serif; font-size: 14px; font-weight: bold; }
  </style>

  
  <g id="blocks">
    <polygon points="780,2483 779,2484 775,2484 771,2488 771,2497 770,2498 770,2500 771,2501 771,2511 770,2512 770,2529 769,2530 769,2601 768,2602 768,2623 767,2624 767,2655 766,2656 766,2669 765,2670 765,2690 764,2691 764,2697 763,2698 763,2701 764,2702 764,2717 763,2718 763,2779 762,2780 762,2789 763,2790 763,2797 762,2798 762,2818 761,2819 761,2833 762,2834 762,2835 765,2838 767,2838 768,2839 771,2839 772,2840 775,2840 776,2841 785,2841 786,2840 792,2840 793,2841 797,2841 798,2842 810,2842 811,2841 815,2841 816,2842 820,2842 821,2843 835,2843 836,2842 839,2842 840,2843 848,2843 849,2844 851,2844 852,2843 868,2843 869,2844 896,2844 897,2845 915,2845 916,2846 934,2846 935,2847 940,2847 941,2848 952,2848 953,2847 969,2847 970,2846 980,2846 981,2847 994,2847 995,2848 1009,2848 1010,2847 1021,2847 1022,2848 1034,2848 1035,2847 1042,2847 1043,2848 1069,2848 1070,2849 1098,2849 1099,2850 1128,2850 1129,2849 1139,2849 1140,2850 1192,2850 1193,2849 1201,2849 1202,2850 1206,2850 1207,2849 1268,2849 1269,2850 1290,2850 1291,2851 1321,2851 1322,2852 1335,2852 1336,2851 1341,2851 1342,2850 1345,2850 1346,2849 1349,2849 1350,2848 1353,2848 1354,2847 1365,2847 1366,2848 1368,2848 1369,2849 1371,2849 1372,2850 1394,2850 1395,2851 1401,2851 1402,2852 1426,2852 1427,2853 1474,2853 1475,2854 1519,2854 1520,2853 1522,2853 1526,2849 1526,2848 1527,2847 1527,2846 1528,2845 1528,2843 1529,2842 1529,2826 1528,2825 1528,2803 1529,2802 1529,2738 1528,2737 1528,2733 1529,2732 1529,2714 1528,2713 1529,2712 1529,2707 1530,2706 1530,2701 1531,2700 1531,2680 1532,2679 1532,2665 1533,2664 1533,2641 1534,2640 1534,2622 1535,2621 1535,2609 1536,2608 1536,2590 1535,2589 1535,2561 1536,2560 1536,2541 1537,2540 1537,2527 1536,2526 1536,2508 1535,2507 1535,2505 1534,2504 1534,2503 1530,2499 1527,2499 1526,2498 1486,2498 1485,2497 1476,2497 1475,2498 1439,2498 1438,2497 1393,2497 1392,2496 1382,2496 1381,2497 1377,2497 1376,2498 1371,2498 1370,2497 1368,2497 1367,2496 1365,2496 1364,2495 1363,2495 1362,2494 1335,2494 1334,2495 1330,2495 1329,2496 1325,2496 1324,2497 1323,2497 1322,2496 1314,2496 1313,2495 1311,2495 1310,2494 1308,2494 1307,2493 1303,2493 1302,2492 1298,2492 1297,2493 1284,2493 1283,2494 1278,2494 1277,2495 1276,2495 1275,2494 1252,2494 1251,2493 1250,2493 1249,2492 1246,2492 1245,2491 1230,2491 1229,2492 1226,2492 1225,2493 1223,2493 1222,2494 1221,2494 1220,2495 1213,2495 1212,2494 1204,2494 1203,2493 1181,2493 1180,2492 1141,2492 1140,2491 1133,2491 1132,2492 1125,2492 1124,2493 1116,2493 1115,2492 1094,2492 1093,2491 1083,2491 1082,2492 1061,2492 1060,2491 997,2491 996,2490 972,2490 971,2489 933,2489 932,2488 919,2488 918,2487 881,2487 880,2486 858,2486 857,2485 835,2485 834,2484 806,2484 805,2483" fill="rgba(74,202,87,0.3)" stroke="rgb(74,202,87)" stroke-width="2" data-block-id="0001" data-name="b-0006" /><text x="1158" y="2671" text-anchor="middle" dominant-baseline="middle" class="block-label" fill="rgb(74,202,87)" stroke="white" stroke-width="3" paint-order="stroke">b-0006</text><polygon points="786,2019 785,2020 782,2020 781,2021 780,2021 778,2023 778,2026 777,2027 777,2031 776,2032 776,2070 775,2071 775,2076 774,2077 774,2082 773,2083 773,2101 774,2102 774,2106 775,2107 775,2113 776,2114 776,2138 775,2139 775,2144 776,2145 776,2170 775,2171 775,2229 774,2230 774,2273 773,2274 773,2283 772,2284 772,2286 773,2287 773,2298 772,2299 772,2352 771,2353 772,2354 772,2365 773,2366 773,2368 774,2369 774,2370 776,2372 777,2372 778,2373 780,2373 781,2374 788,2374 789,2375 796,2375 797,2374 805,2374 806,2375 836,2375 837,2376 873,2376 874,2377 900,2377 901,2378 927,2378 928,2379 944,2379 945,2380 1001,2380 1002,2379 1009,2379 1010,2380 1060,2380 1061,2381 1093,2381 1094,2382 1107,2382 1108,2381 1113,2381 1114,2382 1148,2382 1149,2383 1177,2383 1178,2382 1315,2382 1316,2383 1368,2383 1369,2384 1380,2384 1381,2383 1387,2383 1388,2384 1429,2384 1430,2383 1435,2383 1436,2384 1452,2384 1453,2385 1487,2385 1488,2386 1519,2386 1520,2385 1524,2385 1525,2384 1526,2384 1527,2383 1528,2383 1529,2382 1529,2381 1530,2380 1530,2378 1531,2377 1531,2370 1532,2369 1532,2347 1531,2346 1531,2340 1532,2339 1532,2333 1533,2332 1533,2298 1532,2297 1532,2290 1533,2289 1533,2265 1534,2264 1534,2259 1535,2258 1535,2254 1536,2253 1536,2248 1537,2247 1537,2244 1538,2243 1538,2240 1539,2239 1539,2227 1540,2226 1540,2208 1539,2207 1539,2180 1538,2179 1538,2160 1537,2159 1537,2102 1538,2101 1538,2063 1539,2062 1539,2041 1538,2040 1538,2038 1537,2037 1537,2035 1535,2033 1534,2033 1533,2032 1531,2032 1530,2031 1523,2031 1522,2030 1499,2030 1498,2029 1494,2029 1493,2028 1479,2028 1478,2029 1466,2029 1465,2030 1437,2030 1436,2031 1431,2031 1430,2030 1421,2030 1420,2029 1417,2029 1416,2030 1404,2030 1403,2029 1388,2029 1387,2030 1368,2030 1367,2029 1346,2029 1345,2030 1331,2030 1330,2029 1270,2029 1269,2028 1263,2028 1262,2029 1238,2029 1237,2028 1231,2028 1230,2027 1212,2027 1211,2026 1189,2026 1188,2027 1181,2027 1180,2026 1141,2026 1140,2025 1121,2025 1120,2024 1084,2024 1083,2023 1057,2023 1056,2024 1038,2024 1037,2023 1008,2023 1007,2024 1003,2024 1002,2023 998,2023 997,2022 983,2022 982,2021 978,2021 977,2022 951,2022 950,2021 904,2021 903,2020 867,2020 866,2021 860,2021 859,2020 849,2020 848,2019 847,2020 829,2020 828,2019" fill="rgba(116,99,103,0.3)" stroke="rgb(116,99,103)" stroke-width="2" data-block-id="0002" data-name="b-0007" /><text x="1170" y="2188" text-anchor="middle" dominant-baseline="middle" class="block-label" fill="rgb(116,99,103)" stroke="white" stroke-width="3" paint-order="stroke">b-0007</text><polygon points="823,1556 822,1557 797,1557 796,1558 794,1558 793,1559 792,1559 791,1560 791,1561 790,1562 790,1567 789,1568 789,1594 788,1595 788,1614 789,1615 789,1620 788,1621 788,1673 787,1674 787,1681 788,1682 788,1693 787,1694 787,1704 786,1705 786,1709 785,1710 785,1713 784,1714 784,1752 785,1753 785,1763 784,1764 784,1780 783,1781 783,1823 782,1824 782,1862 781,1863 781,1897 782,1898 782,1902 783,1903 783,1904 785,1906 786,1906 787,1907 789,1907 790,1908 795,1908 796,1909 817,1909 818,1910 833,1910 834,1909 840,1909 841,1910 848,1910 849,1911 853,1911 854,1910 865,1910 866,1911 919,1911 920,1912 929,1912 930,1911 932,1911 933,1912 954,1912 955,1913 977,1913 978,1912 1042,1912 1043,1913 1059,1913 1060,1914 1068,1914 1069,1913 1082,1913 1083,1914 1124,1914 1125,1915 1151,1915 1152,1916 1191,1916 1192,1917 1216,1917 1217,1916 1218,1917 1248,1917 1249,1918 1261,1918 1262,1919 1293,1919 1294,1920 1307,1920 1308,1921 1350,1921 1351,1922 1449,1922 1450,1923 1499,1923 1500,1924 1528,1924 1529,1923 1533,1923 1534,1922 1536,1922 1537,1921 1538,1921 1542,1917 1542,1915 1543,1914 1543,1858 1544,1857 1544,1847 1543,1846 1543,1844 1544,1843 1544,1827 1545,1826 1545,1789 1546,1788 1546,1746 1547,1745 1547,1718 1548,1717 1548,1695 1547,1694 1547,1676 1548,1675 1548,1668 1549,1667 1549,1647 1550,1646 1550,1639 1549,1638 1549,1579 1548,1578 1548,1573 1547,1572 1547,1570 1543,1566 1542,1566 1541,1565 1529,1565 1528,1566 1496,1566 1495,1565 1490,1565 1489,1566 1447,1566 1446,1565 1443,1565 1442,1566 1422,1566 1421,1565 1388,1565 1387,1566 1384,1566 1383,1565 1340,1565 1339,1566 1338,1566 1337,1565 1332,1565 1331,1564 1278,1564 1277,1563 1215,1563 1214,1562 1165,1562 1164,1561 1154,1561 1153,1562 1120,1562 1119,1561 1108,1561 1107,1560 1096,1560 1095,1561 1067,1561 1066,1560 1051,1560 1050,1561 1033,1561 1032,1560 1016,1560 1015,1559 1013,1559 1012,1560 976,1560 975,1559 926,1559 925,1558 879,1558 878,1557 829,1557 828,1556" fill="rgba(151,130,149,0.3)" stroke="rgb(151,130,149)" stroke-width="2" data-block-id="0003" data-name="b-0008" /><text x="1136" y="1736" text-anchor="middle" dominant-baseline="middle" class="block-label" fill="rgb(151,130,149)" stroke="white" stroke-width="3" paint-order="stroke">b-0008</text><polygon points="813,1091 812,1092 808,1092 807,1093 805,1093 804,1094 803,1094 801,1096 801,1097 800,1098 800,1100 799,1101 799,1106 798,1107 798,1122 799,1123 799,1126 800,1127 800,1131 799,1132 799,1133 798,1134 798,1136 797,1137 797,1191 796,1192 796,1198 795,1199 795,1247 794,1248 794,1277 793,1278 793,1291 792,1292 792,1348 793,1349 793,1363 792,1364 792,1411 791,1412 791,1419 792,1420 792,1436 793,1437 793,1440 794,1441 794,1442 797,1445 798,1445 799,1446 802,1446 803,1447 809,1447 810,1448 829,1448 830,1449 855,1449 856,1450 899,1450 900,1451 913,1451 914,1452 974,1452 975,1453 998,1453 999,1452 1008,1452 1009,1451 1013,1451 1014,1450 1071,1450 1072,1451 1114,1451 1115,1452 1123,1452 1124,1453 1187,1453 1188,1454 1264,1454 1265,1455 1297,1455 1298,1454 1303,1454 1304,1455 1311,1455 1312,1456 1370,1456 1371,1457 1375,1457 1376,1456 1462,1456 1463,1457 1539,1457 1540,1456 1544,1456 1545,1455 1546,1455 1550,1451 1550,1450 1551,1449 1551,1447 1552,1446 1552,1442 1553,1441 1553,1365 1552,1364 1552,1351 1551,1350 1551,1342 1552,1341 1552,1308 1551,1307 1551,1294 1552,1293 1552,1285 1553,1284 1553,1279 1554,1278 1554,1275 1555,1274 1555,1232 1556,1231 1556,1182 1557,1181 1557,1170 1556,1169 1556,1134 1557,1133 1557,1127 1556,1126 1556,1113 1555,1112 1555,1107 1554,1106 1554,1104 1550,1100 1548,1100 1547,1099 1541,1099 1540,1098 1534,1098 1533,1099 1496,1099 1495,1098 1489,1098 1488,1099 1412,1099 1411,1100 1391,1100 1390,1101 1365,1101 1364,1102 1331,1102 1330,1103 1309,1103 1308,1102 1287,1102 1286,1101 1257,1101 1256,1102 1244,1102 1243,1101 1241,1101 1240,1102 1188,1102 1187,1101 1177,1101 1176,1102 1166,1102 1165,1101 1141,1101 1140,1100 1133,1100 1132,1101 1127,1101 1126,1102 1120,1102 1119,1101 1096,1101 1095,1100 1085,1100 1084,1099 1077,1099 1076,1098 1033,1098 1032,1097 1015,1097 1014,1096 1009,1096 1008,1095 976,1095 975,1094 969,1094 968,1093 958,1093 957,1092 954,1092 953,1093 929,1093 928,1092 889,1092 888,1093 884,1093 883,1092 833,1092 832,1091" fill="rgba(52,1,87,0.3)" stroke="rgb(52,1,87)" stroke-width="2" data-block-id="0004" data-name="b-0009" /><text x="1148" y="1244" text-anchor="middle" dominant-baseline="middle" class="block-label" fill="rgb(52,1,87)" stroke="white" stroke-width="3" paint-order="stroke">b-0009</text><polygon points="3608,2511 3607,2512 3548,2512 3547,2513 3545,2513 3544,2514 3543,2514 3542,2515 3541,2515 3539,2517 3539,2518 3538,2519 3538,2521 3537,2522 3537,2546 3538,2547 3538,2558 3537,2559 3537,2612 3536,2613 3536,2636 3537,2637 3537,2639 3536,2640 3536,2691 3537,2692 3537,2783 3538,2784 3537,2785 3537,2813 3538,2814 3538,2821 3537,2822 3537,2837 3536,2838 3536,2852 3537,2853 3537,2857 3538,2858 3538,2860 3541,2863 3543,2863 3544,2864 3547,2864 3548,2865 3596,2865 3597,2864 3598,2865 3602,2865 3603,2866 3606,2866 3607,2867 3614,2867 3615,2866 3617,2866 3618,2865 3620,2865 3621,2864 3667,2864 3668,2863 3673,2863 3674,2864 3736,2864 3737,2863 3745,2863 3746,2864 3784,2864 3785,2863 3792,2863 3793,2864 3813,2864 3814,2863 3816,2863 3817,2864 3823,2864 3824,2863 3942,2863 3943,2864 3945,2864 3946,2863 3986,2863 3987,2864 4020,2864 4021,2863 4029,2863 4030,2864 4081,2864 4082,2865 4092,2865 4093,2864 4127,2864 4128,2865 4143,2865 4144,2866 4148,2866 4149,2867 4153,2867 4154,2868 4167,2868 4168,2867 4170,2867 4171,2868 4276,2868 4277,2867 4280,2867 4284,2863 4284,2861 4285,2860 4285,2858 4286,2857 4286,2855 4287,2854 4287,2845 4288,2844 4288,2825 4287,2824 4287,2773 4288,2772 4288,2760 4289,2759 4289,2756 4288,2755 4288,2730 4287,2729 4287,2718 4288,2717 4288,2702 4287,2701 4287,2700 4288,2699 4288,2682 4289,2681 4289,2644 4290,2643 4290,2637 4289,2636 4289,2586 4288,2585 4288,2551 4289,2550 4289,2529 4288,2528 4288,2523 4287,2522 4287,2521 4286,2520 4285,2520 4284,2519 4282,2519 4281,2518 4277,2518 4276,2517 4264,2517 4263,2516 4262,2517 4249,2517 4248,2516 4244,2516 4243,2515 4223,2515 4222,2516 4203,2516 4202,2515 4153,2515 4152,2516 4150,2516 4149,2517 4148,2517 4147,2518 4141,2518 4140,2517 4136,2517 4135,2516 4131,2516 4130,2515 4048,2515 4047,2514 4000,2514 3999,2513 3972,2513 3971,2514 3963,2514 3962,2513 3949,2513 3948,2514 3939,2514 3938,2515 3934,2515 3933,2516 3930,2516 3929,2515 3925,2515 3924,2514 3912,2514 3911,2515 3903,2515 3902,2514 3850,2514 3849,2513 3712,2513 3711,2512 3707,2512 3706,2511" fill="rgba(235,157,37,0.3)" stroke="rgb(235,157,37)" stroke-width="2" data-block-id="0005" data-name="b-0010" /><text x="3941" y="2693" text-anchor="middle" dominant-baseline="middle" class="block-label" fill="rgb(235,157,37)" stroke="white" stroke-width="3" paint-order="stroke">b-0010</text><polygon points="3551,1586 3550,1587 3548,1587 3543,1592 3543,1595 3542,1596 3542,1617 3543,1618 3543,1632 3544,1633 3544,1663 3543,1664 3543,1701 3542,1702 3543,1703 3543,1774 3542,1775 3542,1793 3543,1794 3543,1806 3542,1807 3542,1821 3543,1822 3543,1835 3542,1836 3542,1875 3541,1876 3541,1912 3540,1913 3540,1921 3541,1922 3541,1929 3542,1930 3542,1932 3543,1933 3543,1934 3545,1936 3546,1936 3547,1937 3548,1937 3549,1938 3558,1938 3559,1939 3581,1939 3582,1940 3644,1940 3645,1939 3648,1939 3649,1940 3755,1940 3756,1939 3767,1939 3768,1940 3798,1940 3799,1941 3859,1941 3860,1942 3882,1942 3883,1941 3885,1941 3886,1942 3964,1942 3965,1943 3966,1943 3967,1942 4031,1942 4032,1943 4042,1943 4043,1942 4048,1942 4049,1941 4055,1941 4056,1942 4099,1942 4100,1943 4108,1943 4109,1944 4129,1944 4130,1945 4137,1945 4138,1944 4146,1944 4147,1943 4168,1943 4169,1944 4184,1944 4185,1945 4212,1945 4213,1944 4278,1944 4279,1943 4282,1943 4283,1942 4284,1942 4285,1941 4286,1941 4288,1939 4288,1938 4289,1937 4289,1935 4290,1934 4290,1929 4291,1928 4291,1919 4290,1918 4290,1907 4291,1906 4291,1903 4290,1902 4290,1880 4291,1879 4291,1870 4292,1869 4292,1850 4291,1849 4291,1836 4292,1835 4292,1824 4291,1823 4291,1816 4292,1815 4292,1804 4291,1803 4291,1792 4292,1791 4292,1706 4291,1705 4291,1697 4292,1696 4292,1631 4293,1630 4293,1607 4292,1606 4292,1603 4291,1602 4291,1601 4288,1598 4286,1598 4285,1597 4279,1597 4278,1596 4272,1596 4271,1595 4267,1595 4266,1594 4237,1594 4236,1593 4232,1593 4231,1592 4225,1592 4224,1593 4215,1593 4214,1594 4196,1594 4195,1593 4167,1593 4166,1592 4153,1592 4152,1593 4148,1593 4147,1594 4144,1594 4143,1593 4139,1593 4138,1592 4023,1592 4022,1591 4011,1591 4010,1592 3990,1592 3989,1591 3969,1591 3968,1592 3966,1592 3965,1591 3889,1591 3888,1590 3849,1590 3848,1589 3813,1589 3812,1588 3811,1588 3810,1589 3791,1589 3790,1588 3773,1588 3772,1589 3757,1589 3756,1588 3721,1588 3720,1587 3714,1587 3713,1588 3695,1588 3694,1587 3557,1587 3556,1586" fill="rgba(129,191,187,0.3)" stroke="rgb(129,191,187)" stroke-width="2" data-block-id="0006" data-name="b-0011" /><text x="3964" y="1774" text-anchor="middle" dominant-baseline="middle" class="block-label" fill="rgb(129,191,187)" stroke="white" stroke-width="3" paint-order="stroke">b-0011</text><polygon points="3561,663 3560,664 3559,664 3555,668 3555,669 3554,670 3554,674 3553,675 3553,731 3552,732 3552,741 3551,742 3551,745 3552,746 3552,760 3551,761 3551,775 3550,776 3550,781 3551,782 3551,903 3552,904 3552,914 3551,915 3551,935 3550,936 3550,940 3549,941 3549,947 3550,948 3550,957 3551,958 3551,1005 3552,1006 3552,1009 3554,1011 3554,1012 3555,1012 3556,1013 3557,1013 3558,1014 3561,1014 3562,1015 3576,1015 3577,1014 3607,1014 3608,1015 3633,1015 3634,1014 3653,1014 3654,1015 3683,1015 3684,1014 3700,1014 3701,1015 3758,1015 3759,1016 3799,1016 3800,1017 3965,1017 3966,1018 3970,1018 3971,1017 3981,1017 3982,1018 3988,1018 3989,1019 3993,1019 3994,1020 4005,1020 4006,1019 4009,1019 4010,1018 4013,1018 4014,1017 4016,1017 4017,1018 4023,1018 4024,1019 4048,1019 4049,1020 4064,1020 4065,1019 4075,1019 4076,1020 4110,1020 4111,1019 4118,1019 4119,1018 4124,1018 4125,1019 4129,1019 4130,1020 4134,1020 4135,1021 4149,1021 4150,1020 4158,1020 4159,1021 4165,1021 4166,1022 4173,1022 4174,1021 4213,1021 4214,1022 4221,1022 4222,1021 4252,1021 4253,1022 4258,1022 4259,1021 4268,1021 4269,1022 4277,1022 4278,1021 4288,1021 4289,1020 4290,1020 4291,1019 4292,1019 4294,1017 4294,1016 4295,1015 4295,1012 4296,1011 4296,999 4297,998 4297,982 4296,981 4296,980 4297,979 4297,951 4298,950 4298,854 4297,853 4297,841 4298,840 4298,751 4299,750 4299,736 4298,735 4298,699 4299,698 4299,694 4298,693 4298,682 4297,681 4297,678 4296,677 4296,676 4294,674 4292,674 4291,673 4286,673 4285,672 4235,672 4234,671 4219,671 4218,672 4216,672 4215,671 4138,671 4137,670 4130,670 4129,671 4114,671 4113,670 4098,670 4097,669 4073,669 4072,668 4057,668 4056,669 4035,669 4034,668 4001,668 4000,667 3974,667 3973,668 3962,668 3961,667 3912,667 3911,666 3828,666 3827,665 3767,665 3766,664 3752,664 3751,665 3747,665 3746,666 3744,666 3743,667 3741,667 3740,668 3735,668 3734,669 3731,669 3730,668 3729,668 3727,666 3726,666 3725,665 3724,665 3723,664 3720,664 3719,663 3714,663 3713,664 3663,664 3662,663 3654,663 3653,664 3632,664 3631,663 3604,663 3603,664 3588,664 3587,663" fill="rgba(20,160,203,0.3)" stroke="rgb(20,160,203)" stroke-width="2" data-block-id="0007" data-name="b-0012" /><text x="3932" y="852" text-anchor="middle" dominant-baseline="middle" class="block-label" fill="rgb(20,160,203)" stroke="white" stroke-width="3" paint-order="stroke">b-0012</text><polygon points="2685,2036 2684,2037 2675,2037 2674,2038 2673,2038 2670,2041 2670,2042 2669,2043 2669,2046 2668,2047 2668,2051 2667,2052 2667,2054 2666,2055 2666,2057 2665,2058 2665,2073 2666,2074 2666,2079 2667,2080 2667,2086 2666,2087 2666,2094 2667,2095 2667,2102 2668,2103 2668,2108 2667,2109 2667,2126 2668,2127 2668,2161 2667,2162 2667,2167 2668,2168 2668,2175 2669,2176 2669,2188 2670,2189 2670,2196 2671,2197 2671,2204 2670,2205 2670,2210 2669,2211 2669,2216 2670,2217 2670,2244 2671,2245 2671,2274 2670,2275 2670,2283 2669,2284 2669,2292 2668,2293 2668,2296 2667,2297 2667,2300 2666,2301 2666,2305 2665,2306 2665,2317 2664,2318 2664,2323 2665,2324 2665,2340 2664,2341 2664,2391 2665,2392 2665,2393 2666,2394 2666,2395 2667,2396 2668,2396 2669,2397 2670,2397 2671,2398 2679,2398 2680,2399 2796,2399 2797,2400 2863,2400 2864,2399 2877,2399 2878,2400 2955,2400 2956,2401 2989,2401 2990,2400 2997,2400 2998,2401 3027,2401 3028,2400 3036,2400 3037,2399 3043,2399 3044,2398 3078,2398 3079,2397 3095,2397 3096,2398 3117,2398 3118,2399 3130,2399 3131,2398 3165,2398 3166,2399 3173,2399 3174,2398 3189,2398 3190,2399 3219,2399 3220,2400 3238,2400 3239,2401 3251,2401 3252,2402 3261,2402 3262,2401 3271,2401 3272,2402 3292,2402 3293,2403 3302,2403 3303,2404 3328,2404 3329,2403 3334,2403 3335,2402 3372,2402 3373,2401 3387,2401 3388,2400 3390,2400 3392,2398 3393,2398 3396,2395 3396,2394 3397,2393 3397,2392 3398,2391 3398,2372 3399,2371 3399,2351 3398,2350 3398,2329 3399,2328 3399,2282 3400,2281 3400,2270 3401,2269 3401,2247 3400,2246 3401,2245 3401,2206 3400,2205 3400,2187 3401,2186 3401,2179 3402,2178 3402,2165 3401,2164 3401,2132 3402,2131 3402,2113 3401,2112 3401,2092 3402,2091 3402,2057 3401,2056 3401,2054 3399,2052 3399,2051 3398,2050 3397,2050 3396,2049 3395,2049 3394,2048 3391,2048 3390,2047 3367,2047 3366,2046 3332,2046 3331,2047 3323,2047 3322,2046 3317,2046 3316,2045 3312,2045 3311,2044 3309,2044 3308,2043 3306,2043 3305,2042 3297,2042 3296,2043 3294,2043 3293,2044 3291,2044 3290,2045 3286,2045 3285,2046 3279,2046 3278,2047 3262,2047 3261,2046 3234,2046 3233,2047 3190,2047 3189,2046 3168,2046 3167,2047 3151,2047 3150,2046 3145,2046 3144,2047 3102,2047 3101,2046 3098,2046 3097,2047 3081,2047 3080,2046 3070,2046 3069,2047 3060,2047 3059,2046 3010,2046 3009,2045 2987,2045 2986,2044 2980,2044 2979,2043 2978,2044 2969,2044 2968,2043 2963,2043 2962,2042 2957,2042 2956,2041 2917,2041 2916,2040 2876,2040 2875,2039 2833,2039 2832,2038 2773,2038 2772,2037 2747,2037 2746,2038 2725,2038 2724,2037 2694,2037 2693,2036" fill="rgba(57,21,252,0.3)" stroke="rgb(57,21,252)" stroke-width="2" data-block-id="0008" data-name="b-0013" /><text x="3031" y="2200" text-anchor="middle" dominant-baseline="middle" class="block-label" fill="rgb(57,21,252)" stroke="white" stroke-width="3" paint-order="stroke">b-0013</text><polygon points="3549,2049 3548,2050 3546,2050 3542,2054 3542,2055 3541,2056 3541,2065 3540,2066 3540,2077 3539,2078 3539,2083 3540,2084 3540,2090 3541,2091 3541,2129 3540,2130 3540,2173 3539,2174 3539,2183 3540,2184 3540,2216 3539,2217 3539,2238 3540,2239 3540,2299 3539,2300 3539,2361 3538,2362 3538,2392 3539,2393 3539,2395 3540,2396 3540,2397 3543,2400 3545,2400 3546,2401 3550,2401 3551,2402 3572,2402 3573,2403 3582,2403 3583,2404 3596,2404 3597,2403 3601,2403 3602,2402 3605,2402 3606,2401 3607,2401 3608,2400 3610,2400 3611,2399 3620,2399 3621,2398 3622,2398 3623,2399 3686,2399 3687,2398 3716,2398 3717,2399 3734,2399 3735,2398 3774,2398 3775,2399 3778,2399 3779,2398 3789,2398 3790,2397 3793,2397 3794,2398 3802,2398 3803,2397 3821,2397 3822,2398 3827,2398 3828,2397 3841,2397 3842,2398 3866,2398 3867,2399 3877,2399 3878,2398 3887,2398 3888,2399 3895,2399 3896,2400 3928,2400 3929,2399 3933,2399 3934,2400 3940,2400 3941,2401 3971,2401 3972,2400 3982,2400 3983,2401 3987,2401 3988,2402 4035,2402 4036,2403 4075,2403 4076,2404 4126,2404 4127,2405 4140,2405 4141,2404 4154,2404 4155,2403 4167,2403 4168,2404 4182,2404 4183,2405 4279,2405 4280,2404 4282,2404 4283,2403 4284,2403 4285,2402 4286,2402 4287,2401 4287,2399 4288,2398 4288,2394 4289,2393 4289,2351 4288,2350 4288,2315 4289,2314 4289,2308 4290,2307 4290,2295 4289,2294 4289,2289 4290,2288 4290,2285 4289,2284 4289,2254 4288,2253 4288,2221 4287,2220 4287,2208 4288,2207 4288,2175 4287,2174 4287,2137 4288,2136 4288,2080 4289,2079 4289,2064 4288,2063 4288,2059 4286,2057 4284,2057 4283,2056 4280,2056 4279,2055 4195,2055 4194,2054 4148,2054 4147,2055 4144,2055 4143,2054 4128,2054 4127,2053 4117,2053 4116,2054 4100,2054 4099,2053 4092,2053 4091,2054 4086,2054 4085,2053 4036,2053 4035,2052 4022,2052 4021,2053 3959,2053 3958,2052 3932,2052 3931,2053 3882,2053 3881,2052 3792,2052 3791,2053 3787,2053 3786,2052 3720,2052 3719,2051 3713,2051 3712,2052 3704,2052 3703,2051 3687,2051 3686,2052 3669,2052 3668,2051 3664,2051 3663,2050 3590,2050 3589,2049" fill="rgba(235,88,48,0.3)" stroke="rgb(235,88,48)" stroke-width="2" data-block-id="0009" data-name="b-0014" /><text x="3898" y="2255" text-anchor="middle" dominant-baseline="middle" class="block-label" fill="rgb(235,88,48)" stroke="white" stroke-width="3" paint-order="stroke">b-0014</text><polygon points="1701,2032 1700,2033 1692,2033 1691,2034 1688,2034 1687,2035 1686,2035 1684,2037 1684,2038 1683,2039 1683,2040 1682,2041 1682,2042 1681,2043 1681,2053 1682,2054 1682,2065 1683,2066 1683,2072 1682,2073 1682,2087 1681,2088 1681,2096 1682,2097 1682,2177 1681,2178 1681,2202 1682,2203 1682,2213 1681,2214 1681,2229 1680,2230 1680,2269 1679,2270 1679,2285 1678,2286 1678,2316 1677,2317 1677,2341 1676,2342 1676,2350 1677,2351 1677,2353 1676,2354 1676,2371 1675,2372 1675,2380 1676,2381 1676,2383 1678,2385 1678,2386 1679,2387 1680,2387 1681,2388 1683,2388 1684,2389 1693,2389 1694,2390 1699,2390 1700,2391 1724,2391 1725,2392 1748,2392 1749,2393 1768,2393 1769,2392 1808,2392 1809,2393 1815,2393 1816,2392 1827,2392 1828,2391 1837,2391 1838,2390 1839,2391 1858,2391 1859,2390 1860,2391 1870,2391 1871,2392 1873,2392 1874,2391 1881,2391 1882,2390 1887,2390 1888,2391 1903,2391 1904,2392 1948,2392 1949,2393 1975,2393 1976,2392 1986,2392 1987,2393 1993,2393 1994,2392 2035,2392 2036,2393 2042,2393 2043,2392 2056,2392 2057,2393 2129,2393 2130,2394 2138,2394 2139,2393 2152,2393 2153,2394 2167,2394 2168,2395 2203,2395 2204,2396 2218,2396 2219,2395 2222,2395 2223,2394 2227,2394 2228,2393 2233,2393 2234,2394 2242,2394 2243,2395 2250,2395 2251,2396 2257,2396 2258,2397 2262,2397 2263,2398 2264,2398 2265,2399 2266,2399 2268,2401 2269,2401 2270,2402 2271,2402 2272,2403 2273,2403 2274,2404 2275,2404 2276,2405 2279,2405 2280,2406 2291,2406 2292,2405 2294,2405 2295,2404 2297,2404 2298,2403 2299,2403 2300,2402 2301,2402 2302,2401 2304,2401 2305,2400 2309,2400 2310,2399 2333,2399 2334,2400 2339,2400 2340,2401 2342,2401 2343,2402 2345,2402 2346,2403 2347,2403 2348,2404 2350,2404 2351,2405 2352,2405 2353,2406 2356,2406 2357,2407 2363,2407 2364,2406 2368,2406 2369,2405 2371,2405 2372,2404 2373,2404 2374,2403 2375,2403 2376,2402 2378,2402 2379,2401 2381,2401 2382,2400 2388,2400 2389,2399 2396,2399 2397,2398 2400,2398 2401,2397 2403,2397 2404,2396 2405,2396 2406,2395 2407,2395 2409,2393 2409,2392 2410,2391 2410,2386 2411,2385 2411,2315 2412,2314 2412,2235 2413,2234 2413,2217 2414,2216 2414,2180 2413,2179 2413,2157 2412,2156 2412,2128 2413,2127 2413,2113 2412,2112 2412,2095 2413,2094 2413,2065 2412,2064 2412,2058 2411,2057 2411,2051 2410,2050 2410,2047 2407,2044 2404,2044 2403,2043 2399,2043 2398,2042 2339,2042 2338,2043 2335,2043 2334,2042 2282,2042 2281,2041 2256,2041 2255,2042 2250,2042 2249,2041 2241,2041 2240,2040 2238,2040 2237,2039 2235,2039 2234,2038 2228,2038 2227,2037 2217,2037 2216,2038 2188,2038 2187,2037 2163,2037 2162,2038 2094,2038 2093,2037 2066,2037 2065,2038 2052,2038 2051,2037 2031,2037 2030,2038 2019,2038 2018,2037 2007,2037 2006,2038 2004,2038 2003,2037 1985,2037 1984,2038 1982,2038 1981,2039 1962,2039 1961,2040 1926,2040 1925,2039 1913,2039 1912,2040 1906,2040 1905,2039 1900,2039 1899,2038 1893,2038 1892,2039 1889,2039 1888,2040 1887,2040 1886,2041 1883,2041 1881,2039 1880,2039 1879,2038 1876,2038 1875,2037 1860,2037 1859,2038 1852,2038 1851,2039 1846,2039 1845,2040 1842,2040 1841,2041 1837,2041 1836,2042 1834,2042 1833,2041 1819,2041 1818,2042 1813,2042 1812,2041 1811,2041 1810,2040 1809,2040 1804,2035 1803,2035 1802,2034 1796,2034 1795,2033 1780,2033 1779,2032 1773,2032 1772,2033 1759,2033 1758,2032 1747,2032 1746,2033 1739,2033 1738,2032 1721,2032 1720,2033 1714,2033 1713,2032" fill="rgba(218,58,254,0.3)" stroke="rgb(218,58,254)" stroke-width="2" data-block-id="0010" data-name="b-0015" /><text x="2045" y="2230" text-anchor="middle" dominant-baseline="middle" class="block-label" fill="rgb(218,58,254)" stroke="white" stroke-width="3" paint-order="stroke">b-0015</text><polygon points="3561,1125 3560,1126 3557,1126 3556,1127 3555,1127 3553,1129 3553,1130 3552,1131 3552,1134 3551,1135 3551,1139 3550,1140 3550,1202 3549,1203 3549,1326 3548,1327 3548,1364 3549,1365 3549,1367 3548,1368 3548,1399 3547,1400 3547,1407 3548,1408 3548,1423 3547,1424 3547,1433 3548,1434 3548,1468 3549,1469 3549,1471 3550,1472 3550,1473 3551,1474 3552,1474 3553,1475 3556,1475 3557,1476 3568,1476 3569,1477 3656,1477 3657,1476 3677,1476 3678,1477 3689,1477 3690,1478 3703,1478 3704,1479 3841,1479 3842,1480 3851,1480 3852,1481 3876,1481 3877,1480 3937,1480 3938,1481 3990,1481 3991,1482 3992,1482 3993,1481 4006,1481 4007,1482 4070,1482 4071,1483 4203,1483 4204,1484 4215,1484 4216,1485 4262,1485 4263,1484 4281,1484 4282,1483 4285,1483 4286,1482 4287,1482 4288,1481 4289,1481 4291,1479 4291,1478 4292,1477 4292,1441 4291,1440 4291,1437 4292,1436 4292,1421 4291,1420 4291,1403 4292,1402 4292,1315 4293,1314 4293,1264 4294,1263 4294,1254 4293,1253 4293,1235 4294,1234 4294,1209 4293,1208 4293,1175 4294,1174 4294,1141 4293,1140 4293,1139 4292,1138 4291,1138 4290,1137 4289,1137 4288,1136 4283,1136 4282,1135 4265,1135 4264,1134 4261,1134 4260,1135 4245,1135 4244,1134 4238,1134 4237,1135 4223,1135 4222,1134 4175,1134 4174,1133 4119,1133 4118,1132 4035,1132 4034,1131 4020,1131 4019,1132 4013,1132 4012,1131 3982,1131 3981,1130 3891,1130 3890,1129 3813,1129 3812,1128 3748,1128 3747,1127 3700,1127 3699,1126 3680,1126 3679,1127 3661,1127 3660,1128 3659,1127 3650,1127 3649,1126 3641,1126 3640,1127 3630,1127 3629,1126 3601,1126 3600,1125" fill="rgba(169,219,187,0.3)" stroke="rgb(169,219,187)" stroke-width="2" data-block-id="0011" data-name="b-0016" /><text x="3924" y="1298" text-anchor="middle" dominant-baseline="middle" class="block-label" fill="rgb(169,219,187)" stroke="white" stroke-width="3" paint-order="stroke">b-0016</text><polygon points="1724,1103 1723,1104 1699,1104 1698,1105 1695,1105 1694,1106 1693,1106 1692,1107 1692,1109 1691,1110 1691,1118 1690,1119 1690,1137 1691,1138 1691,1171 1690,1172 1690,1179 1691,1180 1691,1200 1690,1201 1690,1278 1689,1279 1689,1302 1690,1303 1690,1323 1691,1324 1691,1365 1690,1366 1690,1371 1691,1372 1691,1385 1690,1386 1690,1395 1691,1396 1691,1450 1692,1451 1692,1452 1694,1454 1695,1454 1696,1455 1698,1455 1699,1456 1703,1456 1704,1457 1724,1457 1725,1458 1733,1458 1734,1457 1768,1457 1769,1458 1781,1458 1782,1457 1802,1457 1803,1458 1845,1458 1846,1459 1869,1459 1870,1460 1886,1460 1887,1461 1917,1461 1918,1462 1924,1462 1925,1461 1934,1461 1935,1462 1953,1462 1954,1461 1956,1461 1957,1462 1997,1462 1998,1461 2007,1461 2008,1462 2018,1462 2019,1461 2033,1461 2034,1462 2039,1462 2040,1463 2043,1463 2044,1464 2048,1464 2049,1465 2053,1465 2054,1464 2061,1464 2062,1463 2065,1463 2066,1462 2071,1462 2072,1461 2214,1461 2215,1462 2254,1462 2255,1463 2286,1463 2287,1464 2316,1464 2317,1465 2324,1465 2325,1466 2331,1466 2332,1467 2339,1467 2340,1466 2345,1466 2346,1465 2410,1465 2411,1464 2414,1464 2415,1463 2417,1463 2420,1460 2420,1459 2421,1458 2421,1456 2422,1455 2422,1437 2423,1436 2423,1423 2422,1422 2422,1403 2423,1402 2423,1387 2422,1386 2422,1375 2421,1374 2421,1347 2420,1346 2420,1275 2421,1274 2421,1243 2422,1242 2422,1217 2423,1216 2423,1203 2424,1202 2424,1194 2425,1193 2425,1175 2426,1174 2426,1118 2425,1117 2425,1115 2421,1111 2419,1111 2418,1110 2401,1110 2400,1109 2359,1109 2358,1108 2356,1108 2355,1107 2354,1107 2352,1105 2351,1105 2350,1104 2349,1104 2348,1103 2345,1103 2344,1104 2341,1104 2340,1105 2338,1105 2337,1106 2332,1106 2331,1107 2324,1107 2323,1108 2318,1108 2317,1109 2306,1109 2305,1110 2280,1110 2279,1109 2245,1109 2244,1108 2230,1108 2229,1107 2225,1107 2224,1108 2217,1108 2216,1107 2169,1107 2168,1106 2088,1106 2087,1105 2082,1105 2081,1106 2073,1106 2072,1105 2031,1105 2030,1106 2025,1106 2024,1105 2018,1105 2017,1104 2010,1104 2009,1105 1994,1105 1993,1104 1985,1104 1984,1105 1980,1105 1979,1104 1922,1104 1921,1103 1918,1103 1917,1104 1878,1104 1877,1103 1865,1103 1864,1104 1849,1104 1848,1105 1832,1105 1831,1104 1818,1104 1817,1105 1810,1105 1809,1104 1794,1104 1793,1105 1786,1105 1785,1104 1733,1104 1732,1103" fill="rgba(207,14,189,0.3)" stroke="rgb(207,14,189)" stroke-width="2" data-block-id="0012" data-name="b-0017" /><text x="2060" y="1275" text-anchor="middle" dominant-baseline="middle" class="block-label" fill="rgb(207,14,189)" stroke="white" stroke-width="3" paint-order="stroke">b-0017</text><polygon points="1918,1567 1917,1568 1907,1568 1906,1569 1876,1569 1875,1570 1868,1570 1867,1569 1855,1569 1854,1568 1843,1568 1842,1569 1820,1569 1819,1570 1806,1570 1805,1569 1768,1569 1767,1570 1740,1570 1739,1569 1723,1569 1722,1570 1716,1570 1715,1571 1710,1571 1709,1572 1705,1572 1704,1573 1699,1573 1698,1574 1696,1574 1695,1575 1694,1575 1693,1576 1692,1576 1689,1579 1689,1580 1688,1581 1688,1587 1687,1588 1687,1609 1686,1610 1686,1655 1685,1656 1685,1662 1684,1663 1684,1683 1683,1684 1683,1710 1682,1711 1682,1717 1683,1718 1683,1727 1682,1728 1682,1802 1681,1803 1681,1809 1682,1810 1682,1819 1683,1820 1683,1825 1684,1826 1684,1829 1685,1830 1685,1841 1684,1842 1684,1865 1685,1866 1685,1880 1684,1881 1684,1917 1685,1918 1685,1919 1688,1922 1689,1922 1690,1923 1694,1923 1695,1924 1708,1924 1709,1923 1718,1923 1719,1924 1736,1924 1737,1925 1760,1925 1761,1924 1814,1924 1815,1925 1820,1925 1821,1926 1823,1926 1824,1927 1825,1927 1826,1928 1827,1928 1828,1929 1829,1929 1830,1930 1832,1930 1833,1931 1837,1931 1838,1932 1842,1932 1843,1931 1852,1931 1853,1930 1855,1930 1856,1929 1857,1929 1858,1928 1859,1928 1861,1926 1862,1926 1863,1925 1864,1925 1866,1923 1867,1923 1868,1922 1869,1922 1871,1920 1873,1920 1874,1919 1875,1919 1876,1920 1881,1920 1882,1921 1886,1921 1887,1920 1891,1920 1892,1919 1905,1919 1906,1920 2020,1920 2021,1921 2028,1921 2029,1922 2035,1922 2036,1923 2039,1923 2040,1924 2042,1924 2043,1925 2048,1925 2049,1926 2061,1926 2062,1927 2081,1927 2082,1926 2089,1926 2090,1927 2124,1927 2125,1928 2211,1928 2212,1927 2222,1927 2223,1926 2235,1926 2236,1925 2255,1925 2256,1926 2263,1926 2264,1927 2268,1927 2269,1928 2277,1928 2278,1929 2341,1929 2342,1930 2353,1930 2354,1931 2358,1931 2359,1932 2368,1932 2369,1931 2377,1931 2378,1930 2384,1930 2385,1929 2391,1929 2392,1928 2397,1928 2398,1927 2402,1927 2403,1926 2406,1926 2407,1925 2409,1925 2409,1924 2410,1923 2410,1921 2411,1920 2411,1918 2412,1917 2412,1915 2413,1914 2413,1910 2414,1909 2414,1902 2415,1901 2415,1891 2416,1890 2416,1886 2417,1885 2417,1881 2418,1880 2418,1875 2419,1874 2419,1867 2420,1866 2420,1859 2421,1858 2421,1851 2420,1850 2420,1813 2419,1812 2419,1801 2420,1800 2420,1792 2419,1791 2419,1763 2418,1762 2418,1760 2419,1759 2419,1750 2420,1749 2420,1745 2419,1744 2419,1728 2418,1727 2418,1704 2419,1703 2419,1695 2418,1694 2418,1684 2419,1683 2419,1673 2418,1672 2418,1637 2419,1636 2419,1622 2418,1621 2418,1610 2417,1609 2417,1595 2416,1594 2416,1590 2415,1589 2415,1588 2414,1587 2414,1585 2412,1583 2411,1583 2409,1581 2408,1581 2407,1580 2406,1580 2405,1579 2403,1579 2402,1578 2400,1578 2399,1577 2380,1577 2379,1576 2362,1576 2361,1575 2358,1575 2357,1576 2271,1576 2270,1575 2254,1575 2253,1574 2201,1574 2200,1573 2189,1573 2188,1574 2179,1574 2178,1573 2170,1573 2169,1572 2131,1572 2130,1571 2126,1571 2125,1570 2067,1570 2066,1569 2039,1569 2038,1568 1997,1568 1996,1567" fill="rgba(189,174,189,0.3)" stroke="rgb(189,174,189)" stroke-width="2" data-block-id="0013" data-name="b-0018" /><text x="2064" y="1779" text-anchor="middle" dominant-baseline="middle" class="block-label" fill="rgb(189,174,189)" stroke="white" stroke-width="3" paint-order="stroke">b-0018</text><polygon points="1686,2501 1685,2502 1678,2502 1677,2503 1675,2503 1673,2505 1673,2506 1672,2507 1672,2509 1671,2510 1671,2554 1670,2555 1671,2556 1671,2575 1672,2576 1672,2599 1671,2600 1671,2662 1672,2663 1672,2682 1671,2683 1671,2728 1672,2729 1672,2775 1673,2776 1673,2809 1672,2810 1672,2824 1671,2825 1671,2835 1670,2836 1670,2845 1671,2846 1671,2848 1672,2849 1672,2850 1673,2851 1674,2851 1675,2852 1676,2852 1677,2853 1680,2853 1681,2854 1709,2854 1710,2855 1720,2855 1721,2854 1725,2854 1726,2853 1734,2853 1735,2852 1740,2852 1741,2853 1744,2853 1745,2854 1747,2854 1748,2855 1750,2855 1751,2856 1777,2856 1778,2857 1804,2857 1805,2858 1817,2858 1818,2859 1828,2859 1829,2858 1845,2858 1846,2857 1893,2857 1894,2856 1898,2856 1899,2857 1913,2857 1914,2856 1930,2856 1931,2857 2014,2857 2015,2858 2053,2858 2054,2859 2104,2859 2105,2860 2133,2860 2134,2861 2135,2861 2136,2860 2211,2860 2212,2861 2247,2861 2248,2862 2263,2862 2264,2863 2266,2863 2267,2864 2270,2864 2271,2865 2277,2865 2278,2866 2288,2866 2289,2867 2293,2867 2294,2868 2296,2868 2297,2869 2299,2869 2300,2870 2317,2870 2318,2869 2337,2869 2338,2868 2342,2868 2343,2867 2357,2867 2358,2868 2365,2868 2366,2867 2398,2867 2399,2866 2401,2866 2402,2865 2403,2865 2405,2863 2405,2861 2406,2860 2406,2841 2407,2840 2407,2742 2408,2741 2408,2731 2407,2730 2407,2721 2408,2720 2408,2702 2407,2701 2407,2673 2408,2672 2408,2656 2407,2655 2407,2647 2408,2646 2408,2590 2409,2589 2409,2546 2410,2545 2410,2518 2409,2517 2409,2514 2406,2511 2405,2511 2404,2510 2400,2510 2399,2509 2344,2509 2343,2508 2323,2508 2322,2509 2297,2509 2296,2508 2286,2508 2285,2509 2274,2509 2273,2510 2266,2510 2265,2511 2259,2511 2258,2512 2242,2512 2241,2513 2235,2513 2234,2514 2178,2514 2177,2513 2134,2513 2133,2512 2091,2512 2090,2511 2077,2511 2076,2510 2034,2510 2033,2509 2007,2509 2006,2508 1974,2508 1973,2507 1925,2507 1924,2508 1915,2508 1914,2509 1908,2509 1907,2508 1906,2508 1904,2506 1903,2506 1902,2505 1901,2505 1900,2504 1898,2504 1897,2503 1891,2503 1890,2502 1740,2502 1739,2501 1717,2501 1716,2502 1702,2502 1701,2501" fill="rgba(50,107,54,0.3)" stroke="rgb(50,107,54)" stroke-width="2" data-block-id="0014" data-name="b-0019" /><text x="2030" y="2703" text-anchor="middle" dominant-baseline="middle" class="block-label" fill="rgb(50,107,54)" stroke="white" stroke-width="3" paint-order="stroke">b-0019</text><polygon points="2685,1113 2684,1114 2682,1114 2679,1117 2679,1118 2678,1119 2678,1121 2677,1122 2677,1126 2676,1127 2676,1151 2675,1152 2675,1155 2676,1156 2676,1197 2675,1198 2675,1207 2676,1208 2676,1233 2675,1234 2675,1288 2676,1289 2676,1339 2675,1340 2675,1380 2674,1381 2674,1397 2675,1398 2675,1429 2674,1430 2674,1444 2675,1445 2675,1457 2676,1458 2676,1462 2677,1463 2677,1464 2680,1467 2681,1467 2682,1468 2694,1468 2695,1467 2697,1467 2698,1468 2715,1468 2716,1467 2723,1467 2724,1468 2752,1468 2753,1469 2759,1469 2760,1468 2776,1468 2777,1469 2780,1469 2781,1468 2793,1468 2794,1469 2811,1469 2812,1468 2816,1468 2817,1469 2892,1469 2893,1470 2933,1470 2934,1469 2941,1469 2942,1468 2949,1468 2950,1469 3005,1469 3006,1470 3034,1470 3035,1471 3061,1471 3062,1472 3095,1472 3096,1471 3102,1471 3103,1472 3197,1472 3198,1473 3204,1473 3205,1474 3213,1474 3214,1473 3220,1473 3221,1474 3243,1474 3244,1473 3287,1473 3288,1472 3291,1472 3292,1473 3317,1473 3318,1474 3326,1474 3327,1475 3328,1474 3343,1474 3344,1475 3364,1475 3365,1476 3368,1476 3369,1477 3372,1477 3373,1478 3375,1478 3376,1477 3381,1477 3382,1476 3386,1476 3387,1475 3391,1475 3392,1474 3396,1474 3397,1473 3401,1473 3402,1472 3403,1472 3405,1470 3405,1469 3406,1468 3406,1465 3407,1464 3407,1444 3406,1443 3406,1382 3407,1381 3407,1368 3408,1367 3408,1359 3409,1358 3409,1353 3408,1352 3408,1339 3407,1338 3407,1328 3408,1327 3408,1264 3409,1263 3409,1180 3410,1179 3410,1157 3411,1156 3411,1137 3410,1136 3410,1129 3409,1128 3409,1127 3406,1124 3405,1124 3404,1123 3403,1123 3402,1122 3397,1122 3396,1121 3329,1121 3328,1120 3320,1120 3319,1121 3312,1121 3311,1120 3304,1120 3303,1119 3300,1119 3299,1120 3295,1120 3294,1121 3283,1121 3282,1120 3270,1120 3269,1121 3263,1121 3262,1120 3244,1120 3243,1121 3239,1121 3238,1120 3224,1120 3223,1121 3217,1121 3216,1120 3211,1120 3210,1119 3203,1119 3202,1120 3169,1120 3168,1119 3149,1119 3148,1120 3146,1120 3145,1119 3135,1119 3134,1118 3104,1118 3103,1119 3094,1119 3093,1118 3085,1118 3084,1117 3057,1117 3056,1118 3044,1118 3043,1117 3012,1117 3011,1118 2998,1118 2997,1117 2988,1117 2987,1116 2961,1116 2960,1115 2948,1115 2947,1116 2946,1116 2945,1115 2900,1115 2899,1114 2882,1114 2881,1115 2798,1115 2797,1114 2771,1114 2770,1113 2762,1113 2761,1114 2749,1114 2748,1113 2735,1113 2734,1114 2728,1114 2727,1113" fill="rgba(243,63,248,0.3)" stroke="rgb(243,63,248)" stroke-width="2" data-block-id="0015" data-name="b-0020" /><text x="3068" y="1292" text-anchor="middle" dominant-baseline="middle" class="block-label" fill="rgb(243,63,248)" stroke="white" stroke-width="3" paint-order="stroke">b-0020</text><polygon points="820,634 819,635 813,635 811,637 810,637 809,638 809,639 808,640 808,642 807,643 807,647 806,648 806,662 807,663 807,709 806,710 806,729 805,730 805,733 806,734 806,750 805,751 805,755 806,756 806,764 807,765 807,779 808,780 808,795 807,796 807,840 806,841 806,871 805,872 805,917 804,918 804,940 803,941 803,971 804,972 804,974 806,976 806,977 807,977 809,979 811,979 812,980 840,980 841,981 894,981 895,982 906,982 907,981 911,981 912,982 925,982 926,981 971,981 972,980 998,980 999,979 1074,979 1075,980 1094,980 1095,979 1099,979 1100,980 1105,980 1106,981 1164,981 1165,982 1186,982 1187,981 1231,981 1232,982 1243,982 1244,983 1265,983 1266,984 1286,984 1287,983 1292,983 1293,984 1307,984 1308,985 1331,985 1332,986 1376,986 1377,987 1383,987 1384,988 1412,988 1413,987 1421,987 1422,986 1495,986 1496,985 1508,985 1509,986 1524,986 1525,985 1529,985 1530,986 1548,986 1549,985 1552,985 1556,981 1556,977 1557,976 1557,951 1556,950 1556,925 1557,924 1557,897 1558,896 1558,867 1557,866 1557,845 1558,844 1558,835 1559,834 1559,815 1558,814 1558,766 1559,765 1559,762 1558,761 1558,756 1559,755 1559,730 1560,729 1560,713 1559,712 1559,682 1560,681 1560,651 1559,650 1559,647 1558,646 1558,645 1557,644 1556,644 1554,642 1536,642 1535,641 1522,641 1521,642 1517,642 1516,641 1506,641 1505,640 1503,640 1502,641 1498,641 1497,642 1486,642 1485,643 1477,643 1476,642 1420,642 1419,641 1418,642 1379,642 1378,641 1370,641 1369,642 1354,642 1353,641 1304,641 1303,642 1300,642 1299,641 1292,641 1291,640 1249,640 1248,639 1232,639 1231,638 1206,638 1205,637 1164,637 1163,636 1154,636 1153,637 1133,637 1132,638 1114,638 1113,637 1066,637 1065,636 1059,636 1058,637 1050,637 1049,636 1020,636 1019,635 1009,635 1008,636 999,636 998,637 996,637 995,638 992,638 991,639 985,639 984,638 980,638 979,637 977,637 976,636 972,636 971,635 947,635 946,634 944,634 943,635 876,635 875,634 870,634 869,635 857,635 856,634 840,634 839,635 836,635 835,634" fill="rgba(130,228,50,0.3)" stroke="rgb(130,228,50)" stroke-width="2" data-block-id="0016" data-name="b-0021" /><text x="1173" y="783" text-anchor="middle" dominant-baseline="middle" class="block-label" fill="rgb(130,228,50)" stroke="white" stroke-width="3" paint-order="stroke">b-0021</text><polygon points="2680,2508 2679,2509 2676,2509 2675,2510 2674,2510 2673,2511 2672,2511 2672,2513 2671,2514 2671,2516 2670,2517 2670,2528 2671,2529 2671,2538 2670,2539 2670,2551 2671,2552 2671,2583 2670,2584 2670,2594 2669,2595 2669,2613 2668,2614 2668,2623 2669,2624 2669,2630 2668,2631 2668,2664 2667,2665 2668,2666 2668,2681 2667,2682 2667,2708 2666,2709 2666,2720 2665,2721 2665,2732 2664,2733 2664,2734 2663,2735 2663,2736 2661,2738 2661,2740 2660,2741 2660,2744 2659,2745 2659,2756 2660,2757 2660,2763 2661,2764 2661,2768 2662,2769 2662,2772 2663,2773 2663,2776 2664,2777 2664,2780 2665,2781 2665,2784 2666,2785 2666,2787 2667,2788 2667,2790 2668,2791 2668,2794 2669,2795 2669,2809 2668,2810 2668,2815 2667,2816 2667,2818 2666,2819 2666,2821 2665,2822 2665,2827 2664,2828 2664,2835 2665,2836 2665,2843 2664,2844 2664,2847 2663,2848 2663,2851 2662,2852 2662,2853 2663,2854 2663,2855 2667,2859 2668,2859 2669,2860 2671,2860 2672,2861 2677,2861 2678,2862 2684,2862 2685,2863 2688,2863 2689,2864 2692,2864 2693,2865 2694,2865 2695,2866 2696,2866 2697,2867 2698,2867 2700,2869 2701,2869 2702,2870 2703,2870 2704,2871 2707,2871 2708,2872 2714,2872 2715,2871 2720,2871 2722,2869 2723,2869 2724,2868 2725,2868 2726,2867 2728,2867 2729,2866 2738,2866 2739,2867 2744,2867 2745,2868 2751,2868 2752,2869 2757,2869 2758,2868 2766,2868 2767,2867 2772,2867 2773,2866 2776,2866 2777,2865 2797,2865 2798,2864 2806,2864 2807,2863 2823,2863 2824,2862 2830,2862 2831,2863 2840,2863 2841,2862 2866,2862 2867,2861 2881,2861 2882,2862 2918,2862 2919,2861 2930,2861 2931,2862 3005,2862 3006,2861 3044,2861 3045,2862 3114,2862 3115,2863 3144,2863 3145,2864 3149,2864 3150,2863 3210,2863 3211,2864 3217,2864 3218,2865 3228,2865 3229,2866 3245,2866 3246,2865 3252,2865 3253,2864 3261,2864 3262,2865 3290,2865 3291,2866 3302,2866 3303,2867 3314,2867 3315,2868 3326,2868 3327,2869 3337,2869 3338,2868 3355,2868 3356,2867 3383,2867 3384,2866 3387,2866 3388,2865 3390,2865 3393,2862 3393,2860 3394,2859 3394,2857 3395,2856 3395,2735 3396,2734 3396,2651 3397,2650 3397,2602 3398,2601 3398,2529 3397,2528 3397,2520 3396,2519 3396,2518 3393,2515 3391,2515 3390,2514 3387,2514 3386,2513 3357,2513 3356,2514 3322,2514 3321,2513 3256,2513 3255,2512 3095,2512 3094,2513 3080,2513 3079,2512 2938,2512 2937,2513 2906,2513 2905,2512 2861,2512 2860,2511 2837,2511 2836,2510 2803,2510 2802,2509 2798,2509 2797,2510 2788,2510 2787,2509 2743,2509 2742,2508" fill="rgba(134,20,72,0.3)" stroke="rgb(134,20,72)" stroke-width="2" data-block-id="0017" data-name="b-0022" /><text x="2882" y="2750" text-anchor="middle" dominant-baseline="middle" class="block-label" fill="rgb(134,20,72)" stroke="white" stroke-width="3" paint-order="stroke">b-0022</text><polygon points="1703,640 1702,641 1701,641 1697,645 1697,648 1696,649 1696,654 1697,655 1697,676 1696,677 1696,695 1695,696 1695,710 1696,711 1696,742 1695,743 1695,800 1694,801 1695,802 1695,826 1694,827 1694,868 1693,869 1693,895 1692,896 1692,915 1691,916 1691,946 1692,947 1692,974 1693,975 1693,981 1694,982 1694,983 1698,987 1699,987 1700,988 1701,988 1702,989 1703,989 1704,990 1725,990 1726,991 1735,991 1736,990 1747,990 1748,991 1770,991 1771,992 1779,992 1780,991 1787,991 1788,990 1789,991 1794,991 1795,992 1807,992 1808,991 1822,991 1823,992 1826,992 1827,991 1846,991 1847,992 1880,992 1881,991 1883,991 1884,992 1892,992 1893,993 1908,993 1909,992 1927,992 1928,991 1937,991 1938,992 1957,992 1958,991 1984,991 1985,992 2054,992 2055,993 2072,993 2073,992 2076,992 2077,993 2105,993 2106,994 2114,994 2115,993 2127,993 2128,994 2266,994 2267,995 2278,995 2279,994 2303,994 2304,995 2379,995 2380,996 2419,996 2420,995 2422,995 2423,994 2424,994 2424,993 2426,991 2426,989 2427,988 2427,982 2428,981 2428,977 2427,976 2427,964 2428,963 2428,830 2427,829 2427,824 2428,823 2428,732 2427,731 2427,729 2428,728 2428,669 2427,668 2427,661 2426,660 2426,657 2425,656 2425,654 2424,653 2424,652 2421,649 2418,649 2417,648 2403,648 2402,647 2395,647 2394,646 2393,646 2392,647 2373,647 2372,646 2353,646 2352,647 2345,647 2344,648 2300,648 2299,647 2277,647 2276,646 2246,646 2245,645 2234,645 2233,644 2224,644 2223,643 2150,643 2149,644 2132,644 2131,643 2062,643 2061,642 2015,642 2014,641 2012,641 2011,642 1996,642 1995,641 1976,641 1975,642 1972,642 1971,643 1967,643 1966,644 1965,643 1931,643 1930,642 1925,642 1924,641 1887,641 1886,642 1882,642 1881,641 1832,641 1831,640 1768,640 1767,641 1764,641 1763,640 1745,640 1744,641 1739,641 1738,640" fill="rgba(166,17,131,0.3)" stroke="rgb(166,17,131)" stroke-width="2" data-block-id="0018" data-name="b-0023" /><text x="2022" y="821" text-anchor="middle" dominant-baseline="middle" class="block-label" fill="rgb(166,17,131)" stroke="white" stroke-width="3" paint-order="stroke">b-0023</text><polygon points="2682,1580 2681,1581 2680,1581 2679,1582 2679,1583 2678,1584 2678,1587 2677,1588 2677,1618 2676,1619 2676,1669 2675,1670 2675,1717 2674,1718 2674,1733 2675,1734 2675,1781 2676,1782 2676,1792 2675,1793 2675,1826 2676,1827 2676,1834 2675,1835 2675,1862 2674,1863 2674,1868 2675,1869 2675,1882 2674,1883 2674,1909 2673,1910 2673,1918 2674,1919 2674,1923 2675,1924 2675,1926 2677,1928 2678,1928 2679,1929 2680,1929 2681,1930 2684,1930 2685,1931 2697,1931 2698,1932 2765,1932 2766,1931 2776,1931 2777,1930 2787,1930 2788,1931 2823,1931 2824,1932 2845,1932 2846,1931 2852,1931 2853,1932 2906,1932 2907,1933 2912,1933 2913,1932 2931,1932 2932,1933 3079,1933 3080,1934 3250,1934 3251,1933 3263,1933 3264,1934 3269,1934 3270,1935 3272,1935 3273,1936 3275,1936 3276,1937 3284,1937 3285,1938 3291,1938 3292,1937 3354,1937 3355,1938 3374,1938 3375,1937 3386,1937 3387,1936 3392,1936 3393,1935 3396,1935 3397,1934 3398,1934 3399,1933 3400,1933 3402,1931 3402,1930 3404,1928 3404,1916 3403,1915 3403,1850 3404,1849 3404,1835 3403,1834 3403,1801 3404,1800 3404,1784 3405,1783 3405,1766 3404,1765 3404,1757 3405,1756 3405,1703 3406,1702 3406,1700 3405,1699 3405,1683 3406,1682 3406,1660 3407,1659 3407,1639 3408,1638 3408,1614 3409,1613 3409,1596 3408,1595 3408,1592 3406,1590 3406,1589 3405,1589 3403,1587 3400,1587 3399,1586 3366,1586 3365,1585 3341,1585 3340,1586 3330,1586 3329,1585 3288,1585 3287,1584 3275,1584 3274,1585 3267,1585 3266,1586 3252,1586 3251,1585 3246,1585 3245,1584 3231,1584 3230,1585 3196,1585 3195,1586 3180,1586 3179,1585 3148,1585 3147,1584 3142,1584 3141,1583 3135,1583 3134,1582 3068,1582 3067,1583 3031,1583 3030,1582 2921,1582 2920,1581 2856,1581 2855,1580" fill="rgba(88,59,13,0.3)" stroke="rgb(88,59,13)" stroke-width="2" data-block-id="0019" data-name="b-0024" /><text x="3079" y="1772" text-anchor="middle" dominant-baseline="middle" class="block-label" fill="rgb(88,59,13)" stroke="white" stroke-width="3" paint-order="stroke">b-0024</text><polygon points="2704,650 2703,651 2700,651 2699,652 2698,652 2695,655 2695,656 2694,657 2694,661 2693,662 2693,671 2692,672 2692,711 2691,712 2691,738 2690,739 2690,744 2691,745 2691,760 2690,761 2690,781 2689,782 2689,828 2690,829 2690,852 2689,853 2689,990 2690,991 2690,994 2691,995 2691,996 2692,997 2692,998 2693,999 2694,999 2695,1000 2698,1000 2699,1001 2707,1001 2708,1002 2726,1002 2727,1001 2734,1001 2735,1002 2873,1002 2874,1003 2900,1003 2901,1002 2912,1002 2913,1003 2922,1003 2923,1004 2943,1004 2944,1003 2947,1003 2948,1004 2970,1004 2971,1005 3006,1005 3007,1006 3019,1006 3020,1007 3036,1007 3037,1008 3058,1008 3059,1009 3084,1009 3085,1010 3086,1010 3087,1009 3091,1009 3092,1008 3095,1008 3096,1007 3110,1007 3111,1008 3122,1008 3123,1007 3161,1007 3162,1008 3192,1008 3193,1007 3196,1007 3197,1008 3254,1008 3255,1009 3282,1009 3283,1010 3379,1010 3380,1011 3398,1011 3399,1010 3402,1010 3403,1009 3405,1009 3406,1008 3407,1008 3409,1006 3409,1005 3410,1004 3410,999 3411,998 3411,986 3412,985 3412,924 3411,923 3411,918 3412,917 3412,806 3413,805 3413,800 3412,799 3412,750 3413,749 3413,726 3414,725 3414,705 3413,704 3413,668 3412,667 3412,665 3410,663 3410,662 3409,662 3408,661 3407,661 3406,660 3399,660 3398,659 3363,659 3362,660 3358,660 3357,659 3327,659 3326,658 3319,658 3318,659 3314,659 3313,658 3227,658 3226,657 3216,657 3215,656 3203,656 3202,657 3197,657 3196,658 3194,658 3193,657 3190,657 3189,656 3187,656 3186,655 3185,655 3184,654 3172,654 3171,655 3143,655 3142,656 3133,656 3132,655 3106,655 3105,656 3096,656 3095,655 3091,655 3090,654 3077,654 3076,653 3037,653 3036,654 2990,654 2989,653 2951,653 2950,652 2929,652 2928,651 2919,651 2918,652 2913,652 2912,653 2908,653 2907,652 2904,652 2903,651 2899,651 2898,650 2896,650 2895,651 2818,651 2817,652 2788,652 2787,651 2773,651 2772,650" fill="rgba(241,249,8,0.3)" stroke="rgb(241,249,8)" stroke-width="2" data-block-id="0020" data-name="b-0025" /><text x="3059" y="814" text-anchor="middle" dominant-baseline="middle" class="block-label" fill="rgb(241,249,8)" stroke="white" stroke-width="3" paint-order="stroke">b-0025</text></g>
</svg>