<?xml version='1.0' encoding='utf-8'?>
<svg xmlns="http://www.w3.org/2000/svg" xmlns:atlas="http://example.com/atlas" width="4984" height="3264" viewBox="0 0 4984 3264">
  
  <metadata>
    <atlas:source>
      <atlas:jp2-path>/Users/pwright/workspace/atlas/media/v2/p28.jp2</atlas:jp2-path>
      <atlas:volume>unknown</atlas:volume>
      <atlas:plate-id>p28</atlas:plate-id>
      <atlas:image-width>4984</atlas:image-width>
      <atlas:image-height>3264</atlas:image-height>
    <atlas:angle>0</atlas:angle><atlas:scale>1.3847958570922765</atlas:scale><atlas:pos-x>1000.4314618738545</atlas:pos-x><atlas:pos-y>1491.383938534172</atlas:pos-y></atlas:source>
  </metadata>

  
  <image id="background" href="file:///Users/pwright/workspace/atlas/media/v2/p28.jp2" width="4984" height="3264" opacity="0.5" />

  <style>
    .block-label { font-family: sans-serif; font-size: 14px; font-weight: bold; }
  </style>

  
  <g id="blocks">
    <polygon points="4812,0 4812,7 4811,8 4811,9 4810,10 4810,11 4807,14 4807,15 4805,17 4805,18 4804,19 4804,20 4803,21 4803,22 4802,23 4802,24 4801,25 4801,33 4802,34 4802,36 4803,37 4803,39 4804,40 4804,42 4805,43 4805,45 4806,46 4806,57 4805,58 4805,66 4804,67 4804,74 4805,75 4805,92 4804,93 4804,103 4803,104 4803,109 4804,110 4804,122 4805,123 4805,125 4804,126 4804,135 4803,136 4803,142 4802,143 4802,168 4801,169 4801,176 4800,177 4800,211 4799,212 4799,218 4798,219 4798,228 4799,229 4799,235 4800,236 4800,248 4799,249 4799,255 4798,256 4798,276 4799,277 4799,283 4798,284 4798,290 4797,291 4797,296 4796,297 4796,307 4797,308 4797,317 4798,318 4798,321 4797,322 4797,329 4796,330 4796,337 4795,338 4795,352 4796,353 4796,359 4795,360 4795,372 4794,373 4794,384 4795,385 4795,394 4796,395 4796,402 4795,403 4795,413 4794,414 4794,451 4793,452 4793,461 4794,462 4794,487 4793,488 4793,559 4792,560 4792,569 4791,570 4791,595 4790,596 4790,608 4789,609 4789,639 4788,640 4788,653 4787,654 4787,671 4786,672 4786,687 4785,688 4785,700 4784,701 4784,713 4783,714 4783,724 4782,725 4782,735 4783,736 4783,773 4784,774 4784,779 4785,780 4785,784 4786,785 4786,794 4787,795 4787,805 4788,806 4788,808 4789,809 4789,810 4791,812 4791,813 4792,813 4794,815 4795,815 4796,816 4809,816 4810,815 4821,815 4822,816 4824,816 4825,817 4827,817 4828,818 4830,818 4831,819 4833,819 4834,820 4838,820 4839,821 4847,821 4848,822 4854,822 4855,823 4856,823 4860,827 4860,828 4861,829 4861,833 4862,834 4862,838 4863,839 4863,843 4864,844 4864,849 4865,850 4865,853 4866,854 4866,856 4867,857 4867,859 4868,860 4868,861 4869,862 4869,864 4870,865 4870,867 4871,868 4871,884 4872,885 4872,888 4873,889 4873,890 4874,891 4874,892 4875,893 4875,894 4877,896 4877,897 4878,898 4878,899 4880,901 4880,904 4881,905 4881,907 4880,908 4880,909 4874,915 4872,915 4871,916 4869,916 4868,917 4865,917 4864,918 4859,918 4858,919 4844,919 4843,920 4836,920 4835,921 4833,921 4832,922 4831,922 4830,923 4828,923 4827,924 4826,924 4825,925 4823,925 4822,926 4821,926 4820,927 4817,927 4816,928 4807,928 4806,929 4801,929 4800,930 4799,930 4795,934 4795,935 4794,936 4794,938 4793,939 4793,948 4794,949 4794,950 4795,951 4795,953 4796,954 4796,955 4798,957 4799,957 4801,959 4802,958 4847,958 4848,957 4879,957 4880,956 4885,956 4886,955 4889,955 4890,954 4892,954 4893,953 4899,953 4900,954 4902,954 4903,955 4906,955 4907,956 4910,956 4911,957 4915,957 4916,958 4919,958 4920,959 4923,959 4924,960 4927,960 4928,961 4931,961 4932,962 4952,962 4953,963 4955,963 4956,964 4957,964 4958,965 4958,966 4959,967 4959,972 4960,973 4960,981 4961,982 4961,988 4962,989 4962,993 4963,994 4963,997 4964,998 4964,1004 4963,1005 4963,1008 4962,1009 4962,1010 4961,1011 4961,1013 4960,1014 4960,1015 4959,1016 4959,1017 4957,1019 4957,1026 4958,1027 4958,1028 4959,1029 4959,1031 4960,1032 4960,1034 4961,1035 4961,1037 4962,1038 4962,1041 4961,1042 4961,1044 4953,1052 4952,1052 4951,1053 4950,1053 4949,1054 4946,1054 4945,1055 4940,1055 4939,1056 4933,1056 4932,1057 4928,1057 4927,1058 4924,1058 4923,1059 4922,1059 4921,1060 4920,1060 4919,1061 4917,1061 4916,1062 4914,1062 4913,1063 4911,1063 4910,1064 4909,1064 4907,1066 4906,1066 4906,1067 4903,1070 4903,1071 4902,1072 4902,1073 4901,1074 4901,1076 4900,1077 4900,1079 4898,1081 4897,1080 4897,1079 4895,1077 4895,1076 4894,1075 4894,1074 4893,1073 4893,1071 4892,1070 4892,1067 4891,1066 4891,1065 4890,1064 4890,1063 4888,1061 4887,1061 4886,1060 4884,1060 4883,1059 4881,1059 4880,1058 4869,1058 4868,1057 4858,1057 4857,1058 4850,1058 4849,1059 4844,1059 4843,1060 4838,1060 4837,1061 4830,1061 4829,1062 4821,1062 4820,1063 4817,1063 4816,1064 4814,1064 4813,1065 4811,1065 4810,1066 4809,1066 4808,1067 4807,1067 4806,1068 4805,1068 4804,1069 4803,1069 4798,1074 4798,1075 4797,1076 4797,1077 4796,1078 4796,1081 4795,1082 4795,1093 4794,1094 4794,1107 4793,1108 4793,1119 4792,1120 4793,1121 4793,1134 4794,1135 4794,1146 4793,1147 4793,1159 4794,1160 4794,1166 4795,1167 4795,1175 4796,1176 4796,1182 4795,1183 4795,1209 4796,1210 4796,1220 4795,1221 4795,1241 4796,1242 4796,1251 4797,1252 4797,1258 4796,1259 4796,1316 4797,1317 4797,1321 4798,1322 4798,1327 4799,1328 4799,1343 4798,1344 4798,1376 4797,1377 4797,1399 4798,1400 4798,1419 4797,1420 4797,1453 4796,1454 4796,1472 4797,1473 4797,1478 4798,1479 4798,1483 4799,1484 4799,1497 4798,1498 4798,1551 4799,1552 4799,1557 4800,1558 4800,1576 4799,1577 4799,1587 4798,1588 4798,1614 4797,1615 4797,1629 4798,1630 4798,1637 4799,1638 4799,1648 4798,1649 4798,1655 4797,1656 4797,1664 4796,1665 4796,1707 4797,1708 4797,1711 4798,1712 4798,1714 4799,1715 4799,1718 4800,1719 4800,1728 4799,1729 4799,1738 4798,1739 4798,1750 4799,1751 4799,1784 4800,1785 4800,1789 4801,1790 4801,1794 4802,1795 4802,1796 4803,1797 4803,1804 4802,1805 4802,1807 4801,1808 4801,1819 4800,1820 4800,1861 4801,1862 4801,1866 4802,1867 4803,1867 4806,1870 4806,1871 4809,1874 4809,1880 4808,1881 4808,1882 4806,1884 4806,1885 4804,1887 4804,1888 4801,1891 4801,1921 4800,1922 4800,1943 4801,1944 4801,1964 4800,1965 4800,1971 4799,1972 4799,2016 4800,2017 4800,2021 4801,2022 4801,2026 4803,2028 4803,2029 4804,2030 4804,2031 4805,2032 4805,2035 4804,2036 4804,2038 4803,2039 4803,2040 4802,2041 4802,2043 4801,2044 4801,2088 4800,2089 4801,2090 4801,2105 4802,2106 4802,2113 4801,2114 4801,2123 4800,2124 4800,2140 4799,2141 4799,2156 4798,2157 4798,2164 4797,2165 4797,2171 4798,2172 4798,2177 4799,2178 4799,2183 4800,2184 4800,2194 4799,2195 4799,2203 4798,2204 4798,2229 4797,2230 4797,2243 4796,2244 4796,2247 4797,2248 4797,2255 4798,2256 4798,2262 4799,2263 4799,2269 4798,2270 4798,2275 4797,2276 4797,2282 4796,2283 4796,2328 4797,2329 4797,2334 4798,2335 4798,2339 4799,2340 4799,2351 4798,2352 4798,2359 4797,2360 4797,2374 4798,2375 4798,2390 4797,2391 4797,2405 4798,2406 4798,2410 4799,2411 4799,2415 4800,2416 4800,2431 4799,2432 4799,2438 4798,2439 4798,2449 4799,2450 4799,2472 4798,2473 4798,2481 4799,2482 4799,2487 4800,2488 4800,2494 4801,2495 4801,2506 4800,2507 4800,2515 4799,2516 4799,2527 4800,2528 4800,2552 4799,2553 4799,2559 4800,2560 4800,2567 4801,2568 4801,2574 4802,2575 4802,2580 4801,2581 4801,2589 4800,2590 4800,2643 4801,2644 4801,2650 4802,2651 4802,2652 4803,2653 4803,2659 4802,2660 4802,2663 4801,2664 4801,2716 4803,2718 4803,2719 4804,2720 4804,2721 4805,2722 4805,2723 4806,2724 4806,2725 4807,2726 4807,2728 4808,2729 4808,2730 4809,2731 4809,2737 4808,2738 4808,2741 4807,2742 4807,2746 4806,2747 4806,2750 4805,2751 4805,2763 4806,2764 4806,2780 4805,2781 4805,2796 4806,2797 4806,2804 4807,2805 4807,2815 4806,2816 4806,2819 4805,2820 4805,2824 4804,2825 4804,2841 4805,2842 4805,2867 4806,2868 4806,2872 4807,2873 4807,2875 4808,2876 4808,2878 4809,2879 4809,2881 4810,2882 4810,2885 4811,2886 4811,2895 4810,2896 4810,2901 4809,2902 4809,2910 4808,2911 4809,2912 4809,2941 4810,2942 4810,2954 4811,2955 4811,2974 4810,2975 4810,2982 4809,2983 4809,3001 4810,3002 4810,3030 4811,3031 4811,3037 4812,3038 4812,3051 4811,3052 4811,3059 4810,3060 4810,3105 4811,3106 4811,3116 4812,3117 4812,3127 4811,3128 4811,3137 4810,3138 4810,3190 4811,3191 4811,3207 4810,3208 4810,3221 4809,3222 4809,3230 4808,3231 4808,3239 4809,3240 4809,3241 4811,3243 4812,3243 4814,3245 4815,3245 4816,3246 4817,3246 4818,3247 4820,3247 4821,3248 4826,3248 4827,3249 4832,3249 4833,3250 4850,3250 4851,3251 4859,3251 4860,3250 4882,3250 4883,3249 4891,3249 4892,3248 4898,3248 4899,3249 4904,3249 4905,3250 4911,3250 4912,3251 4931,3251 4932,3250 4939,3250 4940,3249 4945,3249 4946,3248 4950,3248 4951,3247 4955,3247 4956,3246 4961,3246 4962,3245 4966,3245 4967,3244 4970,3244 4971,3243 4976,3243 4977,3242 4983,3242 4983,0" fill="rgba(14,106,71,0.3)" stroke="rgb(14,106,71)" stroke-width="2" data-block-id="0001" data-name="b-0002" /><text x="4832" y="1512" text-anchor="middle" dominant-baseline="middle" class="block-label" fill="rgb(14,106,71)" stroke="white" stroke-width="3" paint-order="stroke">b-0002</text><polygon points="1456,619 1455,620 1454,620 1453,621 1452,621 1449,624 1448,624 1447,625 1444,625 1443,624 1439,624 1438,623 1429,623 1428,624 1420,624 1419,623 1418,623 1417,622 1415,622 1414,621 1409,621 1408,622 1407,622 1406,623 1405,623 1404,624 1403,624 1402,625 1395,625 1394,624 1392,624 1391,623 1389,623 1388,622 1387,622 1386,623 1384,623 1383,624 1382,624 1381,625 1379,625 1378,626 1377,626 1376,627 1373,627 1372,626 1371,626 1370,625 1368,625 1367,624 1365,624 1364,623 1362,623 1361,624 1359,624 1358,625 1355,625 1354,626 1349,626 1348,625 1346,625 1345,624 1343,624 1342,623 1340,623 1339,624 1338,624 1337,625 1336,625 1334,627 1333,627 1332,628 1329,628 1328,629 1326,629 1325,628 1318,628 1317,627 1313,627 1312,628 1295,628 1294,627 1274,627 1273,626 1262,626 1261,627 1241,627 1240,628 1224,628 1223,627 1215,627 1214,628 1205,628 1204,627 1190,627 1189,628 1180,628 1179,627 1164,627 1163,628 1158,628 1157,627 1143,627 1142,628 1132,628 1131,627 1093,627 1092,628 1088,628 1087,627 1080,627 1079,626 1076,626 1075,627 1070,627 1069,628 1060,628 1059,627 1042,627 1041,626 1027,626 1026,627 1018,627 1017,628 1016,628 1015,627 999,627 998,628 990,628 989,627 979,627 978,628 955,628 954,629 946,629 945,630 944,629 930,629 929,630 926,630 925,631 922,631 921,632 920,632 919,633 917,633 915,635 914,635 913,636 913,637 912,638 912,639 911,640 911,643 910,644 910,655 911,656 911,662 912,663 912,668 913,669 913,700 912,701 912,704 911,705 911,715 912,716 912,746 911,747 911,752 910,753 910,762 909,763 909,775 910,776 910,796 909,797 909,812 910,813 910,817 909,818 909,837 910,838 909,839 909,872 908,873 908,877 909,878 909,889 908,890 908,906 907,907 907,913 908,914 908,938 907,939 907,971 908,972 908,982 909,983 909,985 910,986 910,987 912,989 914,989 915,990 917,990 918,991 921,991 922,992 932,992 933,993 958,993 959,994 974,994 975,993 978,993 979,992 988,992 989,993 998,993 999,994 1040,994 1041,993 1055,993 1056,994 1069,994 1070,993 1074,993 1075,992 1079,992 1080,991 1084,991 1085,990 1093,990 1094,991 1098,991 1099,992 1107,992 1108,993 1122,993 1123,992 1129,992 1130,993 1154,993 1155,994 1167,994 1168,993 1210,993 1211,992 1214,992 1215,991 1217,991 1218,990 1220,990 1221,989 1222,989 1223,990 1234,990 1235,991 1262,991 1263,990 1278,990 1279,991 1281,991 1282,990 1411,990 1412,989 1423,989 1424,990 1431,990 1432,991 1441,991 1442,990 1462,990 1463,989 1473,989 1474,990 1475,990 1476,991 1477,991 1478,992 1479,992 1480,993 1481,993 1482,994 1498,994 1499,993 1502,993 1503,992 1519,992 1520,993 1523,993 1524,994 1527,994 1528,995 1533,995 1534,994 1564,994 1565,993 1593,993 1594,992 1599,992 1600,991 1605,991 1606,992 1632,992 1633,991 1642,991 1643,992 1658,992 1659,993 1662,993 1663,992 1679,992 1680,993 1685,993 1686,992 1689,992 1690,991 1694,991 1695,990 1703,990 1704,991 1755,991 1756,992 1765,992 1766,993 1768,993 1769,992 1774,992 1775,991 1777,991 1778,990 1783,990 1784,991 1789,991 1790,992 1806,992 1807,991 1830,991 1831,990 1841,990 1842,989 1846,989 1847,988 1849,988 1850,987 1853,987 1854,988 1856,988 1857,989 1858,989 1859,990 1861,990 1862,991 1868,991 1869,992 1876,992 1877,991 1879,991 1880,990 1883,990 1884,989 1890,989 1891,990 1894,990 1895,991 1915,991 1916,992 1926,992 1927,991 1932,991 1933,990 1940,990 1941,991 1960,991 1961,992 1975,992 1976,991 1980,991 1981,990 1993,990 1994,991 2000,991 2001,992 2015,992 2016,991 2026,991 2027,992 2033,992 2034,991 2043,991 2044,992 2048,992 2049,993 2070,993 2071,992 2075,992 2076,991 2085,991 2086,992 2091,992 2092,991 2097,991 2098,990 2109,990 2110,991 2115,991 2116,990 2121,990 2122,989 2133,989 2134,990 2139,990 2140,989 2162,989 2163,990 2168,990 2169,991 2177,991 2178,990 2181,990 2182,989 2189,989 2190,990 2192,990 2193,991 2195,991 2196,992 2199,992 2200,993 2205,993 2206,994 2210,994 2211,993 2214,993 2215,992 2218,992 2219,991 2228,991 2229,992 2240,992 2241,991 2273,991 2274,992 2285,992 2286,991 2289,991 2290,990 2301,990 2302,991 2303,991 2304,990 2308,990 2309,989 2312,989 2313,988 2325,988 2326,989 2331,989 2332,990 2337,990 2338,991 2351,991 2352,990 2353,990 2354,989 2355,989 2356,988 2357,988 2358,987 2359,987 2361,985 2362,985 2366,981 2366,978 2367,977 2367,970 2368,969 2368,964 2369,963 2369,956 2368,955 2368,952 2367,951 2367,949 2366,948 2366,946 2367,945 2367,942 2368,941 2368,937 2369,936 2369,932 2368,931 2368,917 2369,916 2369,913 2370,912 2369,911 2369,906 2368,905 2368,903 2367,902 2367,868 2368,867 2368,862 2367,861 2367,854 2366,853 2366,849 2367,848 2367,840 2368,839 2368,812 2367,811 2367,786 2366,785 2366,772 2367,771 2367,767 2366,766 2366,761 2365,760 2365,746 2366,745 2366,742 2365,741 2365,726 2366,725 2366,689 2367,688 2367,668 2366,667 2366,663 2365,662 2365,658 2366,657 2366,647 2365,646 2365,645 2362,642 2362,641 2361,641 2360,640 2359,640 2357,638 2356,638 2354,636 2352,636 2351,635 2336,635 2335,634 2295,634 2294,633 2287,633 2286,632 2277,632 2276,631 2263,631 2262,632 2252,632 2251,631 2247,631 2246,630 2245,630 2244,631 2241,631 2240,632 2239,632 2238,633 2237,633 2235,635 2233,635 2232,636 2231,636 2230,635 2229,635 2228,634 2227,634 2226,633 2225,633 2224,632 2214,632 2213,633 2193,633 2192,632 2154,632 2153,631 2143,631 2142,632 2135,632 2134,631 2118,631 2117,632 2111,632 2110,631 2101,631 2100,630 2085,630 2084,629 2080,629 2079,628 2076,628 2075,629 2071,629 2070,630 2062,630 2061,629 2057,629 2056,628 2052,628 2051,629 2049,629 2048,630 2046,630 2045,631 2040,631 2039,630 2037,630 2036,629 2034,629 2033,628 2024,628 2023,629 2014,629 2013,628 1993,628 1992,627 1976,627 1975,628 1962,628 1961,627 1957,627 1956,628 1938,628 1937,627 1933,627 1932,628 1914,628 1913,627 1910,627 1909,628 1901,628 1900,629 1898,629 1897,628 1890,628 1889,627 1884,627 1883,628 1868,628 1867,627 1798,627 1797,626 1773,626 1772,625 1767,625 1766,626 1763,626 1762,627 1759,627 1758,628 1754,628 1753,627 1748,627 1747,626 1740,626 1739,627 1727,627 1726,626 1723,626 1722,625 1715,625 1714,626 1706,626 1705,625 1702,625 1701,624 1694,624 1693,625 1691,625 1690,626 1688,626 1687,627 1685,627 1684,628 1675,628 1674,629 1670,629 1669,630 1667,630 1666,631 1663,631 1662,632 1659,632 1658,631 1653,631 1652,630 1639,630 1638,631 1637,631 1636,630 1622,630 1621,629 1610,629 1609,628 1594,628 1593,629 1583,629 1582,628 1559,628 1558,627 1549,627 1548,628 1535,628 1534,627 1514,627 1513,626 1510,626 1509,625 1504,625 1503,626 1500,626 1499,627 1490,627 1489,626 1487,626 1486,625 1484,625 1483,624 1471,624 1470,623 1468,623 1467,622 1465,622 1464,621 1463,621 1462,620 1461,620 1460,619" fill="rgba(188,20,102,0.3)" stroke="rgb(188,20,102)" stroke-width="2" data-block-id="0002" data-name="b-0003" /><text x="1676" y="792" text-anchor="middle" dominant-baseline="middle" class="block-label" fill="rgb(188,20,102)" stroke="white" stroke-width="3" paint-order="stroke">b-0003</text><polygon points="2213,2039 2212,2040 2205,2040 2204,2041 2197,2041 2196,2042 2184,2042 2183,2041 2167,2041 2166,2042 2156,2042 2155,2043 2145,2043 2144,2042 2114,2042 2113,2043 2095,2043 2094,2042 2063,2042 2062,2043 2049,2043 2048,2042 2032,2042 2031,2043 1964,2043 1963,2044 1956,2044 1955,2043 1938,2043 1937,2044 1933,2044 1932,2043 1895,2043 1894,2044 1884,2044 1883,2043 1867,2043 1866,2044 1857,2044 1856,2043 1850,2043 1849,2044 1832,2044 1831,2043 1822,2043 1821,2044 1811,2044 1810,2043 1799,2043 1798,2044 1788,2044 1787,2043 1770,2043 1769,2044 1748,2044 1747,2045 1740,2045 1739,2044 1726,2044 1725,2045 1715,2045 1714,2044 1702,2044 1701,2045 1693,2045 1692,2044 1681,2044 1680,2045 1654,2045 1653,2046 1642,2046 1641,2045 1633,2045 1632,2046 1621,2046 1620,2045 1607,2045 1606,2046 1595,2046 1594,2045 1583,2045 1582,2046 1576,2046 1575,2045 1558,2045 1557,2046 1549,2046 1548,2045 1514,2045 1513,2046 1495,2046 1494,2045 1490,2045 1489,2046 1481,2046 1480,2045 1463,2045 1462,2046 1456,2046 1455,2047 1452,2047 1451,2048 1449,2048 1448,2049 1446,2049 1445,2050 1444,2049 1434,2049 1433,2048 1430,2048 1429,2047 1416,2047 1415,2048 1413,2048 1412,2049 1409,2049 1408,2048 1406,2048 1405,2047 1402,2047 1401,2046 1394,2046 1393,2047 1378,2047 1377,2046 1374,2046 1373,2047 1358,2047 1357,2046 1332,2046 1331,2045 1324,2045 1323,2046 1306,2046 1305,2047 1301,2047 1300,2046 1287,2046 1286,2045 1276,2045 1275,2046 1272,2046 1271,2047 1263,2047 1262,2046 1259,2046 1258,2045 1250,2045 1249,2046 1239,2046 1238,2045 1229,2045 1228,2046 1223,2046 1222,2047 1219,2047 1218,2046 1215,2046 1214,2045 1211,2045 1210,2044 1205,2044 1204,2045 1188,2045 1187,2044 1183,2044 1182,2045 1177,2045 1176,2046 1169,2046 1168,2045 1134,2045 1133,2046 1129,2046 1128,2047 1118,2047 1117,2046 1099,2046 1098,2045 1096,2045 1095,2044 1092,2044 1091,2043 1087,2043 1086,2044 1048,2044 1047,2043 1038,2043 1037,2044 991,2044 990,2045 986,2045 985,2046 979,2046 978,2045 973,2045 972,2044 968,2044 967,2045 958,2045 957,2046 940,2046 939,2047 926,2047 925,2046 921,2046 920,2047 915,2047 914,2048 912,2048 910,2050 910,2051 909,2052 909,2054 908,2055 908,2083 907,2084 907,2103 908,2104 908,2106 907,2107 907,2131 906,2132 906,2137 905,2138 905,2142 906,2143 906,2150 907,2151 907,2156 906,2157 906,2180 905,2181 905,2195 906,2196 906,2209 905,2210 905,2219 906,2220 906,2225 905,2226 905,2337 904,2338 904,2372 905,2373 905,2399 906,2400 906,2402 907,2403 907,2404 908,2405 909,2405 910,2406 918,2406 919,2407 1073,2407 1074,2406 1091,2406 1092,2407 1167,2407 1168,2406 1220,2406 1221,2405 1223,2405 1224,2406 1258,2406 1259,2405 1271,2405 1272,2406 1275,2406 1276,2407 1311,2407 1312,2406 1337,2406 1338,2405 1349,2405 1350,2404 1354,2404 1355,2405 1365,2405 1366,2406 1405,2406 1406,2405 1432,2405 1433,2406 1449,2406 1450,2405 1539,2405 1540,2404 1599,2404 1600,2403 1606,2403 1607,2404 1647,2404 1648,2403 1662,2403 1663,2404 1673,2404 1674,2405 1716,2405 1717,2404 1723,2404 1724,2405 1738,2405 1739,2404 1806,2404 1807,2405 1858,2405 1859,2404 1870,2404 1871,2405 1881,2405 1882,2404 1919,2404 1920,2405 1925,2405 1926,2404 1961,2404 1962,2405 1977,2405 1978,2404 1988,2404 1989,2405 2030,2405 2031,2404 2032,2404 2033,2405 2096,2405 2097,2406 2147,2406 2148,2407 2165,2407 2166,2406 2178,2406 2179,2405 2183,2405 2184,2404 2186,2404 2187,2405 2193,2405 2194,2406 2204,2406 2205,2405 2271,2405 2272,2404 2286,2404 2287,2405 2303,2405 2304,2404 2350,2404 2351,2403 2355,2403 2356,2402 2358,2402 2359,2401 2361,2401 2362,2400 2363,2400 2367,2396 2367,2395 2368,2394 2368,2390 2369,2389 2369,2366 2368,2365 2368,2347 2369,2346 2369,2340 2368,2339 2368,2319 2367,2318 2367,2292 2366,2291 2366,2266 2367,2265 2367,2220 2368,2219 2368,2156 2367,2155 2367,2150 2368,2149 2368,2100 2369,2099 2369,2096 2370,2095 2370,2086 2369,2085 2369,2077 2368,2076 2368,2055 2367,2054 2367,2050 2366,2049 2366,2046 2365,2045 2365,2044 2362,2041 2358,2041 2357,2040 2327,2040 2326,2041 2299,2041 2298,2042 2273,2042 2272,2041 2266,2041 2265,2042 2253,2042 2252,2043 2236,2043 2235,2042 2230,2042 2229,2041 2227,2041 2226,2040 2223,2040 2222,2039" fill="rgba(121,210,214,0.3)" stroke="rgb(121,210,214)" stroke-width="2" data-block-id="0003" data-name="b-0004" /><text x="1619" y="2167" text-anchor="middle" dominant-baseline="middle" class="block-label" fill="rgb(121,210,214)" stroke="white" stroke-width="3" paint-order="stroke">b-0004</text><polygon points="1421,1573 1420,1574 1414,1574 1413,1575 1372,1575 1371,1576 1368,1576 1367,1577 1361,1577 1360,1576 1359,1576 1358,1575 1356,1575 1355,1574 1344,1574 1343,1575 1336,1575 1335,1574 1320,1574 1319,1575 1308,1575 1307,1574 1296,1574 1295,1575 1286,1575 1285,1576 1277,1576 1276,1577 1247,1577 1246,1578 1245,1578 1244,1577 1240,1577 1239,1576 1234,1576 1233,1575 1231,1575 1230,1576 1224,1576 1223,1577 1215,1577 1214,1576 1191,1576 1190,1575 1175,1575 1174,1576 1142,1576 1141,1575 1133,1575 1132,1576 1120,1576 1119,1575 1075,1575 1074,1574 1057,1574 1056,1575 1008,1575 1007,1576 997,1576 996,1577 990,1577 989,1578 987,1578 986,1579 978,1579 977,1578 974,1578 973,1577 966,1577 965,1578 957,1578 956,1577 952,1577 951,1576 925,1576 924,1577 921,1577 920,1578 919,1578 918,1579 917,1579 913,1583 913,1584 912,1585 912,1587 911,1588 911,1590 910,1591 910,1595 909,1596 909,1647 908,1648 908,1700 909,1701 909,1714 908,1715 908,1812 907,1813 907,1846 908,1847 908,1858 907,1859 907,1882 908,1883 908,1891 909,1892 909,1923 910,1924 910,1925 912,1927 912,1928 914,1928 915,1929 917,1929 918,1930 920,1930 921,1931 927,1931 928,1932 941,1932 942,1933 948,1933 949,1932 959,1932 960,1931 961,1931 962,1932 1000,1932 1001,1931 1013,1931 1014,1932 1039,1932 1040,1933 1042,1933 1043,1932 1064,1932 1065,1933 1080,1933 1081,1934 1090,1934 1091,1935 1121,1935 1122,1934 1132,1934 1133,1935 1141,1935 1142,1934 1150,1934 1151,1935 1168,1935 1169,1934 1189,1934 1190,1933 1227,1933 1228,1934 1235,1934 1236,1935 1242,1935 1243,1936 1252,1936 1253,1937 1256,1937 1257,1936 1259,1936 1260,1935 1262,1935 1263,1934 1265,1934 1266,1933 1272,1933 1273,1934 1283,1934 1284,1933 1308,1933 1309,1932 1359,1932 1360,1931 1367,1931 1368,1932 1394,1932 1395,1933 1403,1933 1404,1932 1416,1932 1417,1933 1428,1933 1429,1932 1444,1932 1445,1933 1458,1933 1459,1934 1462,1934 1463,1935 1466,1935 1467,1936 1470,1936 1471,1937 1476,1937 1477,1938 1489,1938 1490,1937 1495,1937 1496,1936 1503,1936 1504,1935 1510,1935 1511,1936 1533,1936 1534,1937 1545,1937 1546,1936 1557,1936 1558,1937 1562,1937 1563,1938 1567,1938 1568,1937 1570,1937 1571,1936 1574,1936 1575,1935 1585,1935 1586,1934 1598,1934 1599,1933 1605,1933 1606,1934 1625,1934 1626,1935 1651,1935 1652,1936 1659,1936 1660,1937 1661,1936 1668,1936 1669,1935 1681,1935 1682,1936 1684,1936 1685,1935 1688,1935 1689,1934 1692,1934 1693,1933 1717,1933 1718,1932 1725,1932 1726,1933 1763,1933 1764,1932 1786,1932 1787,1931 1807,1931 1808,1932 1836,1932 1837,1933 1855,1933 1856,1932 1905,1932 1906,1931 1953,1931 1954,1930 1979,1930 1980,1931 2004,1931 2005,1930 2018,1930 2019,1931 2036,1931 2037,1930 2043,1930 2044,1929 2049,1929 2050,1928 2059,1928 2060,1929 2085,1929 2086,1930 2090,1930 2091,1929 2095,1929 2096,1928 2101,1928 2102,1927 2109,1927 2110,1928 2127,1928 2128,1929 2135,1929 2136,1930 2139,1930 2140,1929 2158,1929 2159,1930 2163,1930 2164,1929 2200,1929 2201,1928 2216,1928 2217,1929 2229,1929 2230,1930 2234,1930 2235,1929 2250,1929 2251,1930 2256,1930 2257,1931 2261,1931 2262,1932 2291,1932 2292,1933 2293,1933 2294,1932 2309,1932 2310,1931 2352,1931 2353,1930 2357,1930 2358,1929 2362,1929 2363,1928 2364,1928 2368,1924 2368,1921 2369,1920 2369,1915 2370,1914 2370,1909 2369,1908 2369,1903 2368,1902 2368,1882 2369,1881 2369,1869 2368,1868 2368,1860 2367,1859 2367,1846 2368,1845 2368,1841 2369,1840 2369,1825 2368,1824 2368,1812 2367,1811 2367,1788 2368,1787 2368,1739 2369,1738 2369,1710 2368,1709 2368,1690 2369,1689 2369,1676 2368,1675 2368,1661 2367,1660 2367,1646 2368,1645 2368,1639 2369,1638 2369,1635 2368,1634 2368,1621 2367,1620 2367,1587 2366,1586 2366,1584 2365,1583 2365,1582 2362,1579 2361,1579 2360,1578 2359,1578 2358,1577 2356,1577 2355,1576 2237,1576 2236,1575 2226,1575 2225,1576 2217,1576 2216,1577 2213,1577 2212,1578 2206,1578 2205,1577 2203,1577 2202,1576 2198,1576 2197,1575 2171,1575 2170,1576 2164,1576 2163,1577 2160,1577 2159,1576 2154,1576 2153,1575 2140,1575 2139,1576 2098,1576 2097,1575 2049,1575 2048,1576 2033,1576 2032,1575 2029,1575 2028,1576 1997,1576 1996,1575 1979,1575 1978,1576 1958,1576 1957,1575 1949,1575 1948,1574 1938,1574 1937,1575 1929,1575 1928,1576 1918,1576 1917,1575 1914,1575 1913,1574 1883,1574 1882,1575 1870,1575 1869,1576 1864,1576 1863,1575 1853,1575 1852,1574 1848,1574 1847,1575 1837,1575 1836,1576 1832,1576 1831,1577 1822,1577 1821,1576 1799,1576 1798,1575 1774,1575 1773,1576 1764,1576 1763,1575 1718,1575 1717,1574 1708,1574 1707,1573 1694,1573 1693,1574 1651,1574 1650,1575 1637,1575 1636,1574 1594,1574 1593,1575 1581,1575 1580,1574 1534,1574 1533,1575 1511,1575 1510,1576 1488,1576 1487,1575 1478,1575 1477,1574 1463,1574 1462,1575 1430,1575 1429,1574 1423,1574 1422,1573" fill="rgba(74,202,87,0.3)" stroke="rgb(74,202,87)" stroke-width="2" data-block-id="0004" data-name="b-0005" /><text x="1636" y="1764" text-anchor="middle" dominant-baseline="middle" class="block-label" fill="rgb(74,202,87)" stroke="white" stroke-width="3" paint-order="stroke">b-0005</text><polygon points="3487,629 3486,630 3484,630 3483,631 3481,631 3480,632 3468,632 3467,631 3461,631 3460,632 3448,632 3447,631 3436,631 3435,632 3422,632 3421,631 3397,631 3396,630 3392,630 3391,631 3387,631 3386,632 3361,632 3360,631 3342,631 3341,632 3314,632 3313,631 3309,631 3308,632 3297,632 3296,633 3292,633 3291,634 3282,634 3281,635 3270,635 3269,636 3265,636 3264,637 3257,637 3256,638 3244,638 3243,639 3233,639 3232,638 3220,638 3219,637 3197,637 3196,638 3181,638 3180,637 3175,637 3174,636 3170,636 3169,635 3164,635 3163,636 3158,636 3157,637 3156,636 3154,636 3153,635 3152,635 3151,634 3149,634 3148,633 3145,633 3144,632 3076,632 3075,633 3067,633 3066,632 3052,632 3051,631 3028,631 3027,632 2992,632 2991,631 2987,631 2986,632 2980,632 2979,633 2963,633 2962,632 2923,632 2922,631 2907,631 2906,630 2902,630 2901,631 2861,631 2860,632 2854,632 2853,631 2734,631 2733,630 2718,630 2717,631 2713,631 2712,632 2708,632 2707,633 2699,633 2698,632 2687,632 2686,631 2676,631 2675,632 2664,632 2663,631 2634,631 2633,630 2629,630 2628,631 2575,631 2574,632 2554,632 2553,633 2546,633 2545,634 2539,634 2538,635 2536,635 2535,636 2535,637 2534,638 2534,640 2533,641 2533,647 2532,648 2532,678 2531,679 2531,711 2532,712 2532,719 2533,720 2533,722 2532,723 2532,735 2531,736 2531,742 2530,743 2530,759 2531,760 2531,770 2532,771 2532,776 2533,777 2533,781 2532,782 2532,785 2531,786 2531,790 2530,791 2530,807 2531,808 2531,813 2532,814 2532,817 2531,818 2531,824 2530,825 2530,847 2531,848 2531,861 2532,862 2531,863 2531,878 2530,879 2530,887 2529,888 2529,891 2528,892 2528,898 2527,899 2527,900 2528,901 2528,912 2529,913 2529,918 2530,919 2530,928 2529,929 2529,935 2528,936 2528,950 2529,951 2529,955 2530,956 2530,966 2529,967 2529,972 2528,973 2528,984 2535,991 2536,991 2537,992 2540,992 2541,993 2547,993 2548,994 2560,994 2561,995 2577,995 2578,994 2589,994 2590,995 2599,995 2600,994 2602,994 2603,993 2605,993 2606,992 2612,992 2613,993 2625,993 2626,992 2635,992 2636,993 2639,993 2640,994 2647,994 2648,993 2652,993 2653,992 2669,992 2670,991 2674,991 2675,990 2681,990 2682,991 2686,991 2687,992 2699,992 2700,991 2704,991 2705,992 2709,992 2710,993 2720,993 2721,992 2732,992 2733,993 2744,993 2745,992 2749,992 2750,991 2752,991 2753,992 2757,992 2758,993 2769,993 2770,992 2784,992 2785,991 2800,991 2801,992 2805,992 2806,993 2833,993 2834,994 2839,994 2840,995 2849,995 2850,996 2874,996 2875,995 2884,995 2885,994 2891,994 2892,993 2895,993 2896,994 2920,994 2921,995 2934,995 2935,994 2946,994 2947,995 2968,995 2969,994 2975,994 2976,993 2996,993 2997,994 3006,994 3007,995 3021,995 3022,996 3023,996 3024,995 3028,995 3029,994 3031,994 3032,993 3033,993 3034,992 3040,992 3041,993 3044,993 3045,994 3057,994 3058,993 3069,993 3070,992 3071,992 3072,993 3076,993 3077,994 3081,994 3082,995 3126,995 3127,996 3146,996 3147,995 3149,995 3150,994 3151,994 3152,993 3153,993 3154,992 3158,992 3159,993 3164,993 3165,994 3188,994 3189,993 3194,993 3195,994 3213,994 3214,993 3216,993 3217,994 3265,994 3266,995 3293,995 3294,994 3311,994 3312,995 3317,995 3318,996 3340,996 3341,995 3362,995 3363,996 3384,996 3385,995 3409,995 3410,996 3430,996 3431,995 3436,995 3437,994 3446,994 3447,993 3455,993 3456,994 3462,994 3463,995 3469,995 3470,994 3509,994 3510,995 3514,995 3515,994 3520,994 3521,993 3528,993 3529,994 3559,994 3560,993 3570,993 3571,992 3574,992 3575,993 3610,993 3611,992 3612,992 3613,991 3614,991 3616,989 3617,989 3618,988 3620,988 3621,987 3627,987 3628,986 3639,986 3640,985 3646,985 3647,986 3651,986 3652,987 3667,987 3668,986 3674,986 3675,985 3695,985 3696,986 3719,986 3720,985 3733,985 3734,986 3741,986 3742,987 3748,987 3749,988 3754,988 3755,987 3767,987 3768,988 3775,988 3776,989 3788,989 3789,990 3792,990 3793,991 3795,991 3796,992 3802,992 3803,993 3814,993 3815,992 3819,992 3820,991 3826,991 3827,992 3845,992 3846,993 3848,993 3849,992 3858,992 3859,993 3872,993 3873,994 3881,994 3882,995 3908,995 3909,994 3914,994 3915,993 3927,993 3928,994 3952,994 3953,993 3956,993 3957,992 3958,992 3959,991 3960,991 3961,990 3962,990 3964,988 3965,988 3970,983 3970,982 3971,981 3971,922 3972,921 3972,917 3973,916 3973,913 3974,912 3974,879 3973,878 3973,836 3974,835 3974,829 3975,828 3975,811 3976,810 3976,802 3975,801 3975,798 3974,797 3974,794 3973,793 3973,792 3974,791 3974,787 3975,786 3975,783 3976,782 3976,765 3975,764 3975,754 3974,753 3974,748 3973,747 3973,735 3974,734 3974,732 3973,731 3973,719 3972,718 3972,706 3971,705 3971,693 3972,692 3972,688 3973,687 3973,679 3974,678 3974,663 3975,662 3975,661 3974,660 3974,651 3973,650 3973,647 3972,646 3972,644 3971,643 3971,642 3970,641 3970,640 3969,639 3969,638 3965,634 3963,634 3962,633 3960,633 3959,632 3954,632 3953,631 3939,631 3938,632 3920,632 3919,631 3918,632 3914,632 3913,633 3910,633 3909,634 3900,634 3899,633 3850,633 3849,632 3844,632 3843,633 3774,633 3773,634 3771,634 3770,633 3762,633 3761,634 3724,634 3723,633 3695,633 3694,632 3680,632 3679,633 3655,633 3654,632 3653,632 3652,633 3642,633 3641,632 3629,632 3628,633 3625,633 3624,634 3615,634 3614,633 3611,633 3610,632 3593,632 3592,631 3587,631 3586,630 3583,630 3582,631 3578,631 3577,632 3568,632 3567,631 3564,631 3563,630 3558,630 3557,631 3554,631 3553,632 3544,632 3543,631 3539,631 3538,630 3535,630 3534,631 3532,631 3531,632 3528,632 3527,633 3520,633 3519,632 3512,632 3511,631 3497,631 3496,630 3492,630 3491,629" fill="rgba(116,99,103,0.3)" stroke="rgb(116,99,103)" stroke-width="2" data-block-id="0005" data-name="b-0006" /><text x="3259" y="824" text-anchor="middle" dominant-baseline="middle" class="block-label" fill="rgb(116,99,103)" stroke="white" stroke-width="3" paint-order="stroke">b-0006</text><polygon points="2219,2511 2218,2512 2215,2512 2214,2513 2211,2513 2210,2514 2205,2514 2204,2515 2196,2515 2195,2516 2190,2516 2189,2517 2184,2517 2183,2516 2181,2516 2180,2515 2178,2515 2177,2514 2170,2514 2169,2515 2167,2515 2166,2516 2164,2516 2163,2517 2157,2517 2156,2518 2136,2518 2135,2517 2132,2517 2131,2516 2121,2516 2120,2517 2116,2517 2115,2518 2111,2518 2110,2519 2106,2519 2105,2520 2099,2520 2098,2519 2095,2519 2094,2518 2093,2518 2092,2517 2090,2517 2089,2516 2085,2516 2084,2515 2073,2515 2072,2516 2065,2516 2064,2517 2043,2517 2042,2516 2029,2516 2028,2517 2012,2517 2011,2518 2003,2518 2002,2517 1990,2517 1989,2516 1969,2516 1968,2517 1957,2517 1956,2516 1949,2516 1948,2515 1933,2515 1932,2514 1909,2514 1908,2515 1900,2515 1899,2516 1809,2516 1808,2515 1785,2515 1784,2514 1761,2514 1760,2515 1655,2515 1654,2514 1646,2514 1645,2515 1637,2515 1636,2516 1630,2516 1629,2517 1621,2517 1620,2516 1614,2516 1613,2515 1611,2515 1610,2516 1594,2516 1593,2517 1586,2517 1585,2518 1572,2518 1571,2517 1558,2517 1557,2518 1550,2518 1549,2517 1525,2517 1524,2518 1512,2518 1511,2519 1501,2519 1500,2518 1476,2518 1475,2517 1464,2517 1463,2518 1452,2518 1451,2519 1432,2519 1431,2518 1425,2518 1424,2517 1418,2517 1417,2518 1378,2518 1377,2517 1374,2517 1373,2518 1366,2518 1365,2519 1358,2519 1357,2518 1347,2518 1346,2519 1337,2519 1336,2518 1307,2518 1306,2519 1282,2519 1281,2518 1278,2518 1277,2519 1271,2519 1270,2520 1261,2520 1260,2519 1250,2519 1249,2520 1244,2520 1243,2519 1235,2519 1234,2518 1231,2518 1230,2519 1224,2519 1223,2520 1217,2520 1216,2519 1211,2519 1210,2518 1207,2518 1206,2519 1199,2519 1198,2520 1191,2520 1190,2519 1182,2519 1181,2520 1174,2520 1173,2521 1171,2521 1170,2520 1162,2520 1161,2519 1159,2519 1158,2520 1146,2520 1145,2519 1140,2519 1139,2518 1134,2518 1133,2519 1128,2519 1127,2520 1122,2520 1121,2519 1084,2519 1083,2520 1079,2520 1078,2521 1076,2521 1075,2520 1069,2520 1068,2519 1064,2519 1063,2520 1061,2520 1060,2521 1057,2521 1056,2522 1051,2522 1050,2521 1049,2521 1048,2520 1046,2520 1045,2519 1035,2519 1034,2520 1011,2520 1010,2521 1003,2521 1002,2520 990,2520 989,2521 985,2521 984,2522 978,2522 977,2521 949,2521 948,2520 947,2520 946,2521 940,2521 939,2522 928,2522 927,2521 913,2521 912,2522 911,2522 908,2525 908,2527 907,2528 907,2530 906,2531 906,2536 905,2537 905,2552 906,2553 906,2573 905,2574 905,2599 906,2600 906,2635 905,2636 905,2643 906,2644 906,2648 907,2649 907,2650 908,2651 908,2655 907,2656 907,2657 906,2658 906,2660 905,2661 905,2756 904,2757 904,2779 905,2780 905,2786 904,2787 904,2816 905,2817 905,2826 904,2827 904,2835 905,2836 905,2866 906,2867 906,2869 910,2873 911,2873 912,2874 947,2874 948,2873 971,2873 972,2874 976,2874 977,2875 996,2875 997,2874 1004,2874 1005,2873 1007,2873 1008,2874 1016,2874 1017,2875 1020,2875 1021,2874 1033,2874 1034,2875 1038,2875 1039,2876 1045,2876 1046,2875 1060,2875 1061,2876 1068,2876 1069,2875 1071,2875 1072,2874 1075,2874 1076,2873 1080,2873 1081,2874 1085,2874 1086,2875 1093,2875 1094,2874 1101,2874 1102,2873 1103,2874 1119,2874 1120,2873 1133,2873 1134,2874 1142,2874 1143,2873 1151,2873 1152,2874 1168,2874 1169,2873 1178,2873 1179,2874 1201,2874 1202,2875 1216,2875 1217,2874 1224,2874 1225,2875 1238,2875 1239,2874 1252,2874 1253,2875 1258,2875 1259,2874 1264,2874 1265,2873 1271,2873 1272,2874 1275,2874 1276,2875 1289,2875 1290,2874 1293,2874 1294,2875 1308,2875 1309,2874 1321,2874 1322,2875 1326,2875 1327,2876 1354,2876 1355,2875 1358,2875 1359,2874 1371,2874 1372,2875 1405,2875 1406,2874 1415,2874 1416,2875 1436,2875 1437,2874 1463,2874 1464,2875 1468,2875 1469,2876 1474,2876 1475,2875 1483,2875 1484,2874 1498,2874 1499,2873 1544,2873 1545,2874 1552,2874 1553,2875 1569,2875 1570,2874 1574,2874 1575,2873 1599,2873 1600,2874 1639,2874 1640,2873 1681,2873 1682,2874 1686,2874 1687,2873 1694,2873 1695,2872 1700,2872 1701,2873 1724,2873 1725,2874 1773,2874 1774,2875 1777,2875 1778,2876 1783,2876 1784,2877 1794,2877 1795,2876 1797,2876 1798,2875 1801,2875 1802,2874 1804,2874 1805,2873 1808,2873 1809,2872 1812,2872 1813,2871 1823,2871 1824,2872 1829,2872 1830,2871 1839,2871 1840,2870 1844,2870 1845,2871 1909,2871 1910,2872 1925,2872 1926,2871 1952,2871 1953,2872 1974,2872 1975,2871 2013,2871 2014,2870 2020,2870 2021,2871 2033,2871 2034,2870 2046,2870 2047,2871 2048,2871 2049,2872 2050,2872 2053,2875 2054,2875 2056,2877 2069,2877 2070,2878 2075,2878 2076,2879 2077,2878 2078,2878 2082,2874 2083,2874 2085,2872 2086,2872 2087,2871 2089,2871 2090,2870 2095,2870 2096,2869 2114,2869 2115,2870 2132,2870 2133,2869 2139,2869 2140,2870 2142,2870 2143,2871 2146,2871 2147,2872 2159,2872 2160,2873 2167,2873 2168,2872 2175,2872 2176,2871 2179,2871 2180,2870 2191,2870 2192,2871 2221,2871 2222,2872 2223,2871 2277,2871 2278,2870 2287,2870 2288,2871 2330,2871 2331,2870 2352,2870 2353,2869 2356,2869 2358,2867 2359,2867 2364,2862 2364,2861 2365,2860 2365,2859 2366,2858 2366,2855 2367,2854 2367,2853 2366,2852 2366,2829 2365,2828 2365,2813 2366,2812 2366,2803 2365,2802 2365,2785 2366,2784 2366,2781 2365,2780 2365,2771 2366,2770 2366,2765 2367,2764 2367,2753 2366,2752 2366,2733 2365,2732 2365,2719 2366,2718 2366,2700 2365,2699 2366,2698 2366,2674 2367,2673 2367,2663 2366,2662 2366,2660 2365,2659 2365,2655 2364,2654 2364,2651 2365,2650 2365,2644 2366,2643 2366,2639 2365,2638 2365,2626 2366,2625 2366,2621 2367,2620 2367,2617 2368,2616 2368,2608 2367,2607 2367,2591 2366,2590 2366,2586 2365,2585 2365,2579 2366,2578 2366,2574 2367,2573 2367,2564 2366,2563 2366,2538 2367,2537 2367,2532 2366,2531 2366,2520 2361,2515 2359,2515 2358,2514 2357,2514 2356,2513 2353,2513 2352,2512 2348,2512 2347,2513 2304,2513 2303,2514 2302,2513 2292,2513 2291,2514 2288,2514 2287,2515 2284,2515 2283,2516 2279,2516 2278,2515 2276,2515 2275,2514 2272,2514 2271,2513 2266,2513 2265,2514 2263,2514 2262,2515 2260,2515 2259,2516 2252,2516 2251,2517 2241,2517 2240,2518 2238,2518 2237,2519 2235,2519 2234,2520 2233,2520 2226,2513 2225,2513 2224,2512 2222,2512 2221,2511" fill="rgba(151,130,149,0.3)" stroke="rgb(151,130,149)" stroke-width="2" data-block-id="0006" data-name="b-0007" /><text x="1668" y="2679" text-anchor="middle" dominant-baseline="middle" class="block-label" fill="rgb(151,130,149)" stroke="white" stroke-width="3" paint-order="stroke">b-0007</text><polygon points="3866,2033 3865,2034 3857,2034 3856,2035 3855,2034 3814,2034 3813,2035 3808,2035 3807,2034 3796,2034 3795,2035 3791,2035 3790,2036 3767,2036 3766,2037 3758,2037 3757,2036 3744,2036 3743,2035 3723,2035 3722,2036 3710,2036 3709,2037 3703,2037 3702,2038 3701,2038 3700,2037 3677,2037 3676,2038 3671,2038 3670,2039 3666,2039 3665,2038 3663,2038 3662,2037 3660,2037 3659,2036 3655,2036 3654,2035 3652,2035 3651,2036 3643,2036 3642,2035 3634,2035 3633,2034 3632,2035 3627,2035 3626,2036 3624,2036 3623,2037 3616,2037 3615,2036 3614,2036 3613,2035 3609,2035 3608,2034 3605,2034 3604,2035 3590,2035 3589,2034 3581,2034 3580,2035 3577,2035 3576,2036 3568,2036 3567,2035 3564,2035 3563,2034 3559,2034 3558,2035 3557,2035 3556,2036 3555,2036 3554,2037 3552,2037 3551,2038 3528,2038 3527,2039 3522,2039 3521,2038 3499,2038 3498,2039 3473,2039 3472,2038 3455,2038 3454,2037 3442,2037 3441,2036 3433,2036 3432,2035 3396,2035 3395,2034 3394,2035 3387,2035 3386,2036 3376,2036 3375,2035 3364,2035 3363,2036 3350,2036 3349,2035 3341,2035 3340,2036 3332,2036 3331,2035 3325,2035 3324,2034 3323,2034 3322,2035 3317,2035 3316,2036 3313,2036 3312,2037 3303,2037 3302,2036 3296,2036 3295,2037 3282,2037 3281,2036 3272,2036 3271,2037 3268,2037 3267,2038 3253,2038 3252,2037 3250,2037 3249,2038 3243,2038 3242,2039 3230,2039 3229,2038 3210,2038 3209,2037 3205,2037 3204,2036 3203,2037 3199,2037 3198,2038 3194,2038 3193,2039 3185,2039 3184,2038 3177,2038 3176,2039 3170,2039 3169,2040 3160,2040 3159,2039 3151,2039 3150,2040 3140,2040 3139,2039 3126,2039 3125,2040 3101,2040 3100,2041 3088,2041 3087,2040 3073,2040 3072,2039 3032,2039 3031,2040 3005,2040 3004,2041 2995,2041 2994,2040 2959,2040 2958,2041 2936,2041 2935,2040 2898,2040 2897,2041 2889,2041 2888,2040 2872,2040 2871,2041 2839,2041 2838,2040 2825,2040 2824,2041 2768,2041 2767,2042 2746,2042 2745,2041 2719,2041 2718,2042 2708,2042 2707,2041 2695,2041 2694,2040 2681,2040 2680,2041 2658,2041 2657,2042 2656,2041 2651,2041 2650,2040 2643,2040 2642,2039 2630,2039 2629,2040 2593,2040 2592,2039 2576,2039 2575,2040 2569,2040 2568,2039 2554,2039 2553,2040 2535,2040 2530,2045 2530,2047 2529,2048 2529,2052 2528,2053 2528,2057 2527,2058 2527,2061 2528,2062 2528,2070 2529,2071 2529,2073 2530,2074 2530,2077 2531,2078 2531,2084 2530,2085 2530,2089 2529,2090 2529,2116 2530,2117 2530,2123 2531,2124 2531,2132 2530,2133 2530,2136 2529,2137 2529,2153 2530,2154 2530,2155 2529,2156 2529,2171 2528,2172 2528,2180 2527,2181 2527,2216 2528,2217 2528,2232 2529,2233 2529,2238 2528,2239 2528,2265 2527,2266 2527,2282 2526,2283 2526,2293 2525,2294 2525,2297 2526,2298 2526,2306 2527,2307 2527,2313 2528,2314 2528,2326 2529,2327 2529,2334 2528,2335 2528,2362 2527,2363 2527,2385 2528,2386 2528,2390 2529,2391 2529,2392 2532,2395 2533,2395 2534,2396 2535,2396 2536,2397 2540,2397 2541,2398 2545,2398 2546,2399 2551,2399 2552,2400 2561,2400 2562,2401 2566,2401 2567,2402 2576,2402 2577,2401 2581,2401 2582,2400 2585,2400 2586,2401 2590,2401 2591,2402 2594,2402 2595,2403 2602,2403 2603,2402 2623,2402 2624,2401 2635,2401 2636,2402 2649,2402 2650,2401 2659,2401 2660,2402 2664,2402 2665,2403 2672,2403 2673,2402 2680,2402 2681,2403 2683,2403 2684,2404 2686,2404 2687,2405 2694,2405 2695,2404 2698,2404 2699,2403 2701,2403 2702,2402 2707,2402 2708,2403 2716,2403 2717,2402 2719,2402 2720,2401 2723,2401 2724,2400 2732,2400 2733,2401 2742,2401 2743,2400 2747,2400 2748,2399 2766,2399 2767,2400 2775,2400 2776,2401 2779,2401 2780,2402 2782,2402 2783,2403 2791,2403 2792,2402 2807,2402 2808,2403 2809,2403 2810,2402 2813,2402 2814,2401 2818,2401 2819,2400 2824,2400 2825,2401 2829,2401 2830,2402 2840,2402 2841,2401 2872,2401 2873,2402 2877,2402 2878,2403 2884,2403 2885,2402 2889,2402 2890,2401 2897,2401 2898,2400 2908,2400 2909,2399 2919,2399 2920,2400 2927,2400 2928,2401 2936,2401 2937,2400 2942,2400 2943,2401 2950,2401 2951,2402 2954,2402 2955,2401 2961,2401 2962,2400 2979,2400 2980,2399 2998,2399 2999,2400 3003,2400 3004,2399 3021,2399 3022,2398 3043,2398 3044,2399 3087,2399 3088,2398 3096,2398 3097,2397 3126,2397 3127,2396 3141,2396 3142,2395 3175,2395 3176,2396 3181,2396 3182,2395 3197,2395 3198,2396 3244,2396 3245,2397 3250,2397 3251,2398 3270,2398 3271,2397 3291,2397 3292,2396 3304,2396 3305,2397 3324,2397 3325,2396 3329,2396 3330,2395 3341,2395 3342,2396 3352,2396 3353,2397 3361,2397 3362,2396 3371,2396 3372,2395 3381,2395 3382,2394 3403,2394 3404,2395 3411,2395 3412,2394 3418,2394 3419,2395 3434,2395 3435,2396 3442,2396 3443,2397 3456,2397 3457,2396 3460,2396 3461,2395 3467,2395 3468,2394 3493,2394 3494,2393 3501,2393 3502,2394 3534,2394 3535,2393 3543,2393 3544,2394 3568,2394 3569,2393 3615,2393 3616,2392 3697,2392 3698,2393 3717,2393 3718,2394 3741,2394 3742,2393 3750,2393 3751,2392 3772,2392 3773,2391 3787,2391 3788,2392 3794,2392 3795,2393 3830,2393 3831,2392 3865,2392 3866,2393 3890,2393 3891,2394 3897,2394 3898,2393 3912,2393 3913,2392 3955,2392 3956,2391 3959,2391 3960,2390 3964,2390 3965,2389 3967,2389 3969,2387 3970,2387 3973,2384 3973,2383 3974,2382 3974,2381 3975,2380 3975,2375 3976,2374 3976,2357 3975,2356 3975,2334 3974,2333 3974,2327 3975,2326 3975,2307 3974,2306 3974,2293 3975,2292 3975,2287 3976,2286 3976,2281 3977,2280 3977,2265 3976,2264 3976,2259 3975,2258 3975,2253 3974,2252 3974,2243 3975,2242 3975,2222 3976,2221 3976,2208 3975,2207 3975,2197 3976,2196 3976,2195 3977,2194 3977,2192 3978,2191 3978,2189 3979,2188 3979,2185 3978,2184 3978,2176 3977,2175 3977,2171 3976,2170 3976,2167 3975,2166 3975,2161 3974,2160 3974,2155 3973,2154 3973,2151 3974,2150 3974,2100 3975,2099 3975,2087 3976,2086 3976,2079 3975,2078 3975,2044 3973,2042 3973,2041 3969,2037 3968,2037 3967,2036 3966,2036 3965,2035 3960,2035 3959,2034 3951,2034 3950,2033 3934,2033 3933,2034 3926,2034 3925,2033 3913,2033 3912,2034 3897,2034 3896,2033" fill="rgba(52,1,87,0.3)" stroke="rgb(52,1,87)" stroke-width="2" data-block-id="0007" data-name="b-0008" /><text x="3228" y="2215" text-anchor="middle" dominant-baseline="middle" class="block-label" fill="rgb(52,1,87)" stroke="white" stroke-width="3" paint-order="stroke">b-0008</text><polygon points="957,1104 956,1105 953,1105 952,1106 931,1106 930,1107 923,1107 922,1108 917,1108 916,1109 914,1109 913,1110 912,1110 910,1112 910,1113 909,1114 909,1119 908,1120 908,1137 907,1138 907,1166 908,1167 908,1176 907,1177 907,1181 906,1182 906,1189 905,1190 905,1199 906,1200 906,1206 907,1207 907,1252 908,1253 908,1255 907,1256 907,1275 908,1276 908,1312 909,1313 909,1323 908,1324 908,1353 909,1354 909,1378 908,1379 908,1420 907,1421 907,1449 908,1450 908,1453 909,1454 909,1457 911,1459 911,1460 912,1460 913,1461 915,1461 916,1462 920,1462 921,1463 940,1463 941,1464 955,1464 956,1465 966,1465 967,1466 973,1466 974,1465 980,1465 981,1464 999,1464 1000,1465 1047,1465 1048,1464 1057,1464 1058,1465 1078,1465 1079,1464 1100,1464 1101,1465 1135,1465 1136,1464 1155,1464 1156,1465 1179,1465 1180,1464 1186,1464 1187,1465 1210,1465 1211,1464 1216,1464 1217,1463 1223,1463 1224,1464 1228,1464 1229,1465 1237,1465 1238,1466 1262,1466 1263,1465 1284,1465 1285,1466 1297,1466 1298,1465 1307,1465 1308,1464 1336,1464 1337,1465 1353,1465 1354,1464 1377,1464 1378,1465 1384,1465 1385,1466 1393,1466 1394,1465 1401,1465 1402,1464 1405,1464 1406,1463 1411,1463 1412,1462 1413,1462 1414,1463 1456,1463 1457,1462 1458,1463 1502,1463 1503,1464 1521,1464 1522,1463 1576,1463 1577,1462 1582,1462 1583,1463 1600,1463 1601,1462 1615,1462 1616,1463 1655,1463 1656,1464 1662,1464 1663,1463 1671,1463 1672,1462 1685,1462 1686,1461 1715,1461 1716,1462 1745,1462 1746,1461 1747,1461 1748,1462 1782,1462 1783,1461 1854,1461 1855,1462 1948,1462 1949,1463 1957,1463 1958,1464 1962,1464 1963,1463 1978,1463 1979,1464 1990,1464 1991,1463 2009,1463 2010,1464 2022,1464 2023,1463 2070,1463 2071,1464 2084,1464 2085,1463 2099,1463 2100,1464 2119,1464 2120,1465 2138,1465 2139,1464 2145,1464 2146,1463 2177,1463 2178,1462 2183,1462 2184,1461 2186,1461 2187,1462 2191,1462 2192,1463 2196,1463 2197,1464 2227,1464 2228,1465 2234,1465 2235,1464 2259,1464 2260,1463 2340,1463 2341,1462 2343,1462 2344,1463 2350,1463 2351,1462 2356,1462 2357,1461 2360,1461 2361,1460 2362,1460 2363,1459 2364,1459 2366,1457 2366,1454 2367,1453 2367,1450 2368,1449 2368,1438 2367,1437 2367,1427 2366,1426 2366,1421 2367,1420 2367,1411 2368,1410 2368,1389 2367,1388 2367,1379 2366,1378 2366,1371 2367,1370 2367,1356 2368,1355 2368,1348 2367,1347 2367,1334 2366,1333 2366,1320 2367,1319 2367,1303 2368,1302 2368,1291 2367,1290 2367,1267 2368,1266 2368,1240 2367,1239 2367,1199 2366,1198 2366,1193 2365,1192 2365,1188 2364,1187 2364,1166 2365,1165 2365,1155 2366,1154 2366,1138 2367,1137 2367,1122 2366,1121 2366,1117 2365,1116 2365,1114 2362,1111 2359,1111 2358,1110 2321,1110 2320,1109 2306,1109 2305,1108 2293,1108 2292,1107 2272,1107 2271,1106 2268,1106 2267,1107 2263,1107 2262,1108 2256,1108 2255,1109 2254,1108 2245,1108 2244,1109 2242,1109 2241,1110 2239,1110 2238,1111 2237,1111 2236,1112 2235,1112 2233,1114 2204,1114 2203,1113 2196,1113 2195,1114 2194,1114 2193,1115 2192,1115 2191,1116 2190,1116 2189,1117 2188,1117 2187,1118 2179,1118 2178,1117 2162,1117 2161,1118 2155,1118 2154,1119 2150,1119 2149,1120 2147,1120 2146,1121 2145,1121 2144,1122 2142,1122 2141,1123 2139,1123 2138,1124 2126,1124 2125,1125 2122,1125 2121,1126 2120,1126 2119,1127 2117,1127 2115,1129 2114,1129 2113,1130 2111,1130 2110,1131 2108,1131 2107,1132 2106,1132 2105,1133 2104,1133 2103,1134 2102,1133 2100,1133 2098,1131 2097,1131 2096,1130 2095,1130 2094,1129 2093,1129 2092,1128 2074,1128 2073,1129 2069,1129 2068,1130 2061,1130 2060,1129 2056,1129 2051,1124 2051,1123 2049,1121 2048,1121 2046,1119 2045,1119 2044,1118 2043,1118 2042,1117 2041,1117 2039,1115 2038,1115 2037,1114 2036,1114 2034,1112 2033,1112 2032,1111 2027,1111 2026,1112 2023,1112 2022,1113 2018,1113 2017,1114 2016,1113 2007,1113 2006,1112 2004,1112 2003,1113 1973,1113 1972,1112 1963,1112 1962,1111 1957,1111 1956,1110 1951,1110 1950,1109 1904,1109 1903,1108 1891,1108 1890,1107 1880,1107 1879,1108 1873,1108 1872,1107 1849,1107 1848,1106 1845,1106 1844,1105 1833,1105 1832,1106 1816,1106 1815,1105 1799,1105 1798,1104 1791,1104 1790,1105 1787,1105 1786,1106 1783,1106 1782,1107 1778,1107 1777,1106 1775,1106 1774,1105 1773,1105 1772,1104 1765,1104 1764,1105 1760,1105 1759,1106 1737,1106 1736,1107 1717,1107 1716,1106 1643,1106 1642,1107 1559,1107 1558,1106 1550,1106 1549,1107 1522,1107 1521,1108 1487,1108 1486,1107 1456,1107 1455,1108 1429,1108 1428,1107 1419,1107 1418,1108 1403,1108 1402,1107 1323,1107 1322,1108 1306,1108 1305,1107 1280,1107 1279,1106 1264,1106 1263,1107 1229,1107 1228,1108 1223,1108 1222,1109 1218,1109 1217,1108 1212,1108 1211,1107 1177,1107 1176,1108 1154,1108 1153,1107 1093,1107 1092,1108 1086,1108 1085,1107 1048,1107 1047,1106 1040,1106 1039,1105 1024,1105 1023,1106 1018,1106 1017,1107 1016,1107 1015,1106 985,1106 984,1107 983,1107 982,1106 978,1106 977,1105 973,1105 972,1104" fill="rgba(235,157,37,0.3)" stroke="rgb(235,157,37)" stroke-width="2" data-block-id="0008" data-name="b-0009" /><text x="1718" y="1259" text-anchor="middle" dominant-baseline="middle" class="block-label" fill="rgb(235,157,37)" stroke="white" stroke-width="3" paint-order="stroke">b-0009</text><polygon points="3819,1100 3818,1101 3815,1101 3814,1102 3805,1102 3804,1101 3794,1101 3793,1102 3791,1102 3790,1103 3774,1103 3773,1102 3759,1102 3758,1101 3745,1101 3744,1102 3724,1102 3723,1103 3720,1103 3719,1104 3718,1104 3717,1105 3710,1105 3709,1104 3672,1104 3671,1105 3664,1105 3663,1104 3657,1104 3656,1103 3649,1103 3648,1104 3643,1104 3642,1103 3635,1103 3634,1102 3629,1102 3628,1103 3620,1103 3619,1104 3618,1104 3617,1103 3593,1103 3592,1102 3587,1102 3586,1101 3582,1101 3581,1102 3577,1102 3576,1103 3557,1103 3556,1104 3552,1104 3551,1105 3543,1105 3542,1104 3531,1104 3530,1105 3527,1105 3526,1106 3522,1106 3521,1105 3516,1105 3515,1104 3511,1104 3510,1105 3507,1105 3506,1106 3502,1106 3501,1107 3496,1107 3495,1106 3473,1106 3472,1105 3462,1105 3461,1106 3431,1106 3430,1105 3418,1105 3417,1104 3396,1104 3395,1103 3394,1103 3393,1104 3387,1104 3386,1105 3370,1105 3369,1104 3343,1104 3342,1105 3304,1105 3303,1104 3295,1104 3294,1105 3277,1105 3276,1104 3275,1104 3274,1105 3269,1105 3268,1106 3257,1106 3256,1105 3226,1105 3225,1106 3203,1106 3202,1105 3201,1105 3200,1106 3186,1106 3185,1105 3141,1105 3140,1104 3124,1104 3123,1105 3116,1105 3115,1104 3065,1104 3064,1105 3057,1105 3056,1104 3038,1104 3037,1105 3027,1105 3026,1106 3021,1106 3020,1105 2991,1105 2990,1104 2989,1104 2988,1105 2983,1105 2982,1106 2967,1106 2966,1105 2960,1105 2959,1106 2946,1106 2945,1105 2939,1105 2938,1106 2883,1106 2882,1105 2862,1105 2861,1106 2854,1106 2853,1105 2839,1105 2838,1106 2825,1106 2824,1105 2822,1105 2821,1106 2803,1106 2802,1107 2796,1107 2795,1106 2782,1106 2781,1105 2742,1105 2741,1106 2737,1106 2736,1105 2696,1105 2695,1106 2684,1106 2683,1105 2676,1105 2675,1106 2643,1106 2642,1105 2636,1105 2635,1104 2604,1104 2603,1105 2595,1105 2594,1106 2593,1105 2580,1105 2579,1106 2559,1106 2558,1107 2552,1107 2551,1108 2538,1108 2537,1109 2536,1109 2535,1110 2534,1110 2534,1111 2533,1112 2533,1113 2532,1114 2532,1117 2531,1118 2531,1215 2530,1216 2530,1235 2531,1236 2531,1240 2532,1241 2532,1248 2531,1249 2531,1252 2530,1253 2530,1257 2529,1258 2529,1265 2528,1266 2528,1272 2529,1273 2529,1296 2530,1297 2530,1354 2529,1355 2529,1371 2530,1372 2530,1394 2529,1395 2529,1446 2530,1447 2530,1452 2531,1453 2531,1457 2533,1459 2533,1460 2534,1460 2535,1461 2538,1461 2539,1462 2549,1462 2550,1463 2565,1463 2566,1464 2629,1464 2630,1463 2633,1463 2634,1464 2669,1464 2670,1465 2681,1465 2682,1466 2693,1466 2694,1465 2700,1465 2701,1464 2708,1464 2709,1465 2716,1465 2717,1464 2722,1464 2723,1463 2731,1463 2732,1464 2756,1464 2757,1465 2767,1465 2768,1464 2796,1464 2797,1463 2801,1463 2802,1464 2832,1464 2833,1465 2838,1465 2839,1464 2861,1464 2862,1463 2866,1463 2867,1462 2873,1462 2874,1461 2889,1461 2890,1462 2895,1462 2896,1463 2902,1463 2903,1464 2909,1464 2910,1463 2930,1463 2931,1464 2962,1464 2963,1463 2993,1463 2994,1464 3002,1464 3003,1463 3011,1463 3012,1462 3033,1462 3034,1463 3054,1463 3055,1462 3067,1462 3068,1463 3100,1463 3101,1462 3147,1462 3148,1461 3152,1461 3153,1460 3158,1460 3159,1461 3165,1461 3166,1462 3174,1462 3175,1463 3193,1463 3194,1462 3220,1462 3221,1461 3243,1461 3244,1462 3287,1462 3288,1463 3302,1463 3303,1462 3367,1462 3368,1461 3375,1461 3376,1462 3430,1462 3431,1461 3437,1461 3438,1460 3460,1460 3461,1459 3500,1459 3501,1458 3529,1458 3530,1459 3583,1459 3584,1460 3622,1460 3623,1461 3627,1461 3628,1462 3641,1462 3642,1463 3657,1463 3658,1462 3662,1462 3663,1461 3709,1461 3710,1460 3721,1460 3722,1461 3792,1461 3793,1462 3838,1462 3839,1461 3855,1461 3856,1460 3857,1460 3858,1461 3864,1461 3865,1462 3889,1462 3890,1461 3957,1461 3958,1460 3962,1460 3963,1459 3965,1459 3966,1458 3967,1458 3968,1457 3969,1457 3971,1455 3971,1454 3972,1453 3972,1452 3973,1451 3973,1449 3974,1448 3974,1442 3975,1441 3975,1419 3974,1418 3974,1408 3975,1407 3975,1398 3976,1397 3976,1394 3977,1393 3977,1390 3978,1389 3978,1371 3977,1370 3977,1363 3976,1362 3976,1356 3975,1355 3975,1339 3974,1338 3974,1307 3975,1306 3975,1294 3976,1293 3975,1292 3975,1282 3974,1281 3974,1237 3975,1236 3975,1215 3976,1214 3976,1204 3975,1203 3975,1198 3974,1197 3974,1189 3973,1188 3973,1179 3972,1178 3972,1165 3973,1164 3973,1145 3972,1144 3972,1126 3971,1125 3971,1120 3970,1119 3970,1114 3969,1113 3969,1111 3968,1110 3968,1109 3964,1105 3957,1105 3956,1104 3950,1104 3949,1103 3946,1103 3945,1102 3937,1102 3936,1103 3932,1103 3931,1104 3927,1104 3926,1103 3922,1103 3921,1102 3911,1102 3910,1103 3904,1103 3903,1102 3899,1102 3898,1101 3890,1101 3889,1102 3886,1102 3885,1103 3877,1103 3876,1102 3871,1102 3870,1101 3868,1101 3867,1102 3854,1102 3853,1101 3850,1101 3849,1100 3843,1100 3842,1101 3838,1101 3837,1102 3831,1102 3830,1101 3826,1101 3825,1100" fill="rgba(129,191,187,0.3)" stroke="rgb(129,191,187)" stroke-width="2" data-block-id="0009" data-name="b-0010" /><text x="3317" y="1250" text-anchor="middle" dominant-baseline="middle" class="block-label" fill="rgb(129,191,187)" stroke="white" stroke-width="3" paint-order="stroke">b-0010</text><polygon points="3771,2502 3770,2503 3706,2503 3705,2504 3702,2504 3701,2503 3661,2503 3660,2504 3638,2504 3637,2503 3629,2503 3628,2504 3554,2504 3553,2505 3509,2505 3508,2504 3501,2504 3500,2503 3489,2503 3488,2504 3484,2504 3483,2505 3480,2505 3479,2506 3451,2506 3450,2507 3421,2507 3420,2506 3342,2506 3341,2507 3301,2507 3300,2508 3214,2508 3213,2509 3194,2509 3193,2508 3187,2508 3186,2509 3170,2509 3169,2508 3168,2509 3163,2509 3162,2510 3160,2510 3159,2511 3158,2511 3157,2512 3153,2512 3152,2511 3149,2511 3148,2510 3145,2510 3144,2509 3135,2509 3134,2510 3126,2510 3125,2509 3085,2509 3084,2510 3063,2510 3062,2511 3058,2511 3057,2510 3042,2510 3041,2511 3036,2511 3035,2510 3031,2510 3030,2509 3021,2509 3020,2510 3017,2510 3016,2511 3015,2511 3014,2512 3010,2512 3009,2511 3006,2511 3005,2510 2973,2510 2972,2511 2969,2511 2968,2512 2967,2512 2966,2513 2962,2513 2961,2512 2956,2512 2955,2511 2952,2511 2951,2512 2947,2512 2946,2513 2935,2513 2934,2512 2927,2512 2926,2513 2925,2513 2924,2514 2923,2514 2922,2515 2921,2515 2920,2516 2919,2516 2918,2517 2915,2517 2914,2516 2912,2516 2911,2515 2908,2515 2907,2514 2901,2514 2900,2515 2887,2515 2886,2514 2879,2514 2878,2515 2875,2515 2874,2516 2862,2516 2861,2515 2851,2515 2850,2516 2842,2516 2841,2515 2828,2515 2827,2516 2822,2516 2821,2517 2820,2517 2819,2516 2803,2516 2802,2517 2782,2517 2781,2518 2774,2518 2773,2519 2751,2519 2750,2518 2749,2518 2748,2517 2747,2517 2746,2516 2745,2516 2744,2515 2743,2515 2742,2514 2722,2514 2721,2515 2717,2515 2716,2516 2702,2516 2701,2515 2681,2515 2680,2516 2647,2516 2646,2515 2635,2515 2634,2516 2625,2516 2624,2517 2616,2517 2615,2516 2610,2516 2609,2515 2603,2515 2602,2514 2550,2514 2549,2513 2537,2513 2536,2514 2535,2514 2529,2520 2529,2522 2528,2523 2528,2530 2527,2531 2527,2538 2526,2539 2526,2543 2525,2544 2526,2545 2526,2547 2527,2548 2527,2549 2528,2550 2528,2552 2529,2553 2529,2555 2530,2556 2530,2563 2529,2564 2529,2588 2530,2589 2530,2595 2529,2596 2529,2600 2528,2601 2528,2625 2527,2626 2527,2632 2528,2633 2528,2638 2529,2639 2529,2642 2528,2643 2528,2646 2527,2647 2527,2651 2526,2652 2526,2664 2527,2665 2527,2679 2528,2680 2528,2684 2529,2685 2529,2694 2528,2695 2528,2719 2527,2720 2527,2728 2528,2729 2528,2733 2529,2734 2529,2738 2528,2739 2528,2743 2527,2744 2527,2772 2528,2773 2528,2778 2529,2779 2529,2788 2528,2789 2528,2794 2527,2795 2527,2815 2526,2816 2526,2827 2527,2828 2527,2854 2528,2855 2528,2857 2534,2863 2535,2863 2536,2864 2550,2864 2551,2865 2575,2865 2576,2866 2579,2866 2580,2867 2584,2867 2585,2868 2598,2868 2599,2867 2602,2867 2603,2866 2605,2866 2606,2865 2612,2865 2613,2864 2623,2864 2624,2865 2628,2865 2629,2866 2643,2866 2644,2865 2647,2865 2648,2864 2649,2864 2650,2863 2651,2863 2652,2862 2653,2862 2654,2861 2656,2861 2657,2860 2658,2861 2663,2861 2664,2862 2669,2862 2670,2863 2672,2863 2673,2864 2675,2864 2676,2865 2679,2865 2680,2866 2684,2866 2685,2865 2693,2865 2694,2864 2696,2864 2697,2863 2700,2863 2701,2862 2704,2862 2705,2863 2709,2863 2710,2864 2717,2864 2718,2865 2725,2865 2726,2866 2739,2866 2740,2865 2743,2865 2744,2864 2745,2864 2746,2863 2747,2863 2749,2861 2751,2861 2752,2860 2753,2861 2755,2861 2756,2862 2759,2862 2760,2863 2763,2863 2764,2864 2765,2864 2766,2865 2767,2865 2768,2866 2769,2866 2770,2867 2771,2867 2773,2869 2785,2869 2786,2868 2788,2868 2789,2867 2791,2867 2792,2866 2793,2866 2794,2865 2795,2865 2796,2864 2805,2864 2806,2865 2817,2865 2818,2866 2838,2866 2839,2865 2854,2865 2855,2866 2860,2866 2861,2867 2865,2867 2866,2868 2881,2868 2882,2867 2884,2867 2885,2866 2887,2866 2888,2865 2889,2865 2890,2864 2892,2864 2893,2863 2901,2863 2902,2864 2920,2864 2921,2865 2933,2865 2934,2864 2951,2864 2952,2865 2957,2865 2958,2866 2962,2866 2963,2867 2967,2867 2968,2866 2973,2866 2974,2865 2979,2865 2980,2864 2985,2864 2986,2863 3021,2863 3022,2862 3028,2862 3029,2863 3036,2863 3037,2864 3043,2864 3044,2865 3056,2865 3057,2866 3059,2866 3060,2865 3066,2865 3067,2864 3071,2864 3072,2863 3076,2863 3077,2862 3091,2862 3092,2861 3122,2861 3123,2862 3131,2862 3132,2863 3146,2863 3147,2862 3154,2862 3155,2861 3188,2861 3189,2862 3192,2862 3193,2861 3202,2861 3203,2860 3205,2860 3206,2861 3217,2861 3218,2862 3241,2862 3242,2861 3244,2861 3245,2860 3248,2860 3249,2859 3257,2859 3258,2860 3282,2860 3283,2861 3288,2861 3289,2860 3293,2860 3294,2859 3304,2859 3305,2860 3313,2860 3314,2861 3329,2861 3330,2862 3333,2862 3334,2861 3338,2861 3339,2860 3342,2860 3343,2859 3353,2859 3354,2860 3361,2860 3362,2859 3397,2859 3398,2860 3400,2860 3401,2861 3405,2861 3406,2862 3445,2862 3446,2863 3450,2863 3451,2864 3454,2864 3455,2863 3459,2863 3460,2862 3490,2862 3491,2863 3506,2863 3507,2862 3523,2862 3524,2863 3531,2863 3532,2864 3540,2864 3541,2865 3551,2865 3552,2864 3556,2864 3557,2863 3563,2863 3564,2862 3567,2862 3568,2861 3572,2861 3573,2860 3616,2860 3617,2861 3623,2861 3624,2860 3639,2860 3640,2861 3645,2861 3646,2860 3649,2860 3650,2859 3653,2859 3654,2858 3662,2858 3663,2859 3675,2859 3676,2858 3694,2858 3695,2857 3700,2857 3701,2856 3708,2856 3709,2857 3738,2857 3739,2856 3755,2856 3756,2855 3764,2855 3765,2856 3769,2856 3770,2857 3794,2857 3795,2856 3819,2856 3820,2857 3824,2857 3825,2856 3829,2856 3830,2855 3840,2855 3841,2856 3859,2856 3860,2857 3871,2857 3872,2858 3883,2858 3884,2857 3888,2857 3889,2856 3901,2856 3902,2855 3907,2855 3908,2856 3932,2856 3933,2855 3946,2855 3947,2854 3952,2854 3953,2855 3964,2855 3965,2854 3967,2854 3969,2852 3970,2852 3974,2848 3974,2847 3976,2845 3976,2844 3977,2843 3977,2800 3978,2799 3978,2794 3977,2793 3977,2785 3976,2784 3976,2781 3977,2780 3977,2758 3978,2757 3978,2746 3977,2745 3977,2744 3976,2743 3976,2742 3975,2741 3975,2739 3974,2738 3974,2722 3975,2721 3975,2719 3976,2718 3976,2716 3977,2715 3977,2710 3978,2709 3978,2697 3977,2696 3977,2692 3976,2691 3976,2686 3975,2685 3975,2679 3974,2678 3974,2675 3975,2674 3975,2667 3976,2666 3976,2651 3975,2650 3975,2644 3974,2643 3974,2636 3973,2635 3973,2628 3974,2627 3974,2625 3975,2624 3975,2623 3976,2622 3976,2621 3978,2619 3978,2616 3979,2615 3979,2605 3978,2604 3978,2600 3977,2599 3977,2596 3976,2595 3976,2593 3975,2592 3975,2591 3974,2590 3974,2588 3973,2587 3973,2585 3972,2584 3972,2579 3973,2578 3973,2576 3974,2575 3974,2573 3975,2572 3975,2560 3974,2559 3974,2552 3973,2551 3973,2526 3974,2525 3974,2511 3973,2510 3973,2509 3972,2508 3971,2508 3970,2507 3969,2507 3968,2506 3967,2506 3966,2505 3964,2505 3963,2504 3959,2504 3958,2503 3949,2503 3948,2502 3908,2502 3907,2503 3903,2503 3902,2502 3889,2502 3888,2503 3877,2503 3876,2502 3864,2502 3863,2503 3849,2503 3848,2502 3837,2502 3836,2503 3835,2503 3834,2502 3815,2502 3814,2503 3805,2503 3804,2502" fill="rgba(20,160,203,0.3)" stroke="rgb(20,160,203)" stroke-width="2" data-block-id="0010" data-name="b-0011" /><text x="3197" y="2706" text-anchor="middle" dominant-baseline="middle" class="block-label" fill="rgb(20,160,203)" stroke="white" stroke-width="3" paint-order="stroke">b-0011</text><polygon points="3356,1572 3355,1573 3349,1573 3348,1574 3309,1574 3308,1575 3302,1575 3301,1576 3295,1576 3294,1575 3269,1575 3268,1576 3170,1576 3169,1577 3159,1577 3158,1576 3151,1576 3150,1577 3062,1577 3061,1576 3054,1576 3053,1577 3032,1577 3031,1576 3019,1576 3018,1575 2980,1575 2979,1576 2971,1576 2970,1575 2943,1575 2942,1576 2914,1576 2913,1575 2900,1575 2899,1576 2890,1576 2889,1575 2862,1575 2861,1574 2855,1574 2854,1575 2846,1575 2845,1576 2835,1576 2834,1577 2827,1577 2826,1576 2803,1576 2802,1577 2797,1577 2796,1576 2741,1576 2740,1575 2732,1575 2731,1576 2722,1576 2721,1575 2712,1575 2711,1576 2673,1576 2672,1577 2663,1577 2662,1576 2646,1576 2645,1577 2624,1577 2623,1576 2551,1576 2550,1577 2536,1577 2535,1578 2534,1578 2532,1580 2532,1582 2531,1583 2531,1590 2530,1591 2531,1592 2531,1607 2530,1608 2530,1655 2531,1656 2531,1663 2530,1664 2530,1668 2529,1669 2529,1685 2530,1686 2530,1687 2529,1688 2529,1719 2528,1720 2528,1726 2529,1727 2529,1737 2528,1738 2528,1746 2529,1747 2529,1765 2530,1766 2530,1769 2529,1770 2529,1787 2530,1788 2530,1817 2529,1818 2529,1834 2530,1835 2530,1845 2529,1846 2529,1872 2528,1873 2528,1877 2529,1878 2529,1886 2530,1887 2530,1891 2529,1892 2529,1911 2530,1912 2530,1919 2531,1920 2531,1922 2532,1923 2532,1924 2533,1925 2534,1925 2535,1926 2538,1926 2539,1927 2557,1927 2558,1928 2559,1928 2560,1927 2625,1927 2626,1928 2637,1928 2638,1927 2647,1927 2648,1928 2662,1928 2663,1927 2670,1927 2671,1928 2675,1928 2676,1929 2697,1929 2698,1928 2714,1928 2715,1929 2742,1929 2743,1928 2750,1928 2751,1927 2752,1927 2753,1928 2770,1928 2771,1927 2781,1927 2782,1928 2788,1928 2789,1927 2801,1927 2802,1928 2822,1928 2823,1927 2825,1927 2826,1928 2835,1928 2836,1927 2843,1927 2844,1926 2849,1926 2850,1927 2866,1927 2867,1926 2890,1926 2891,1925 2895,1925 2896,1926 2901,1926 2902,1927 2920,1927 2921,1926 2932,1926 2933,1925 2953,1925 2954,1926 2955,1926 2956,1925 2984,1925 2985,1926 3014,1926 3015,1925 3069,1925 3070,1924 3073,1924 3074,1925 3141,1925 3142,1924 3145,1924 3146,1925 3165,1925 3166,1924 3167,1925 3178,1925 3179,1926 3186,1926 3187,1927 3192,1927 3193,1926 3195,1926 3196,1925 3197,1925 3198,1924 3199,1924 3201,1922 3207,1922 3208,1923 3212,1923 3213,1924 3254,1924 3255,1925 3261,1925 3262,1926 3266,1926 3267,1925 3280,1925 3281,1926 3287,1926 3288,1925 3291,1925 3292,1924 3295,1924 3296,1923 3305,1923 3306,1924 3318,1924 3319,1923 3327,1923 3328,1924 3336,1924 3337,1923 3349,1923 3350,1924 3352,1924 3353,1925 3368,1925 3369,1924 3379,1924 3380,1925 3381,1924 3386,1924 3387,1923 3400,1923 3401,1924 3410,1924 3411,1923 3416,1923 3417,1922 3428,1922 3429,1921 3437,1921 3438,1922 3445,1922 3446,1923 3452,1923 3453,1924 3460,1924 3461,1925 3469,1925 3470,1924 3478,1924 3479,1923 3532,1923 3533,1924 3559,1924 3560,1923 3568,1923 3569,1922 3580,1922 3581,1923 3633,1923 3634,1924 3645,1924 3646,1923 3652,1923 3653,1922 3697,1922 3698,1921 3701,1921 3702,1920 3710,1920 3711,1921 3732,1921 3733,1922 3757,1922 3758,1923 3766,1923 3767,1922 3816,1922 3817,1923 3822,1923 3823,1922 3830,1922 3831,1921 3882,1921 3883,1922 3907,1922 3908,1921 3939,1921 3940,1920 3968,1920 3969,1919 3971,1919 3974,1916 3974,1915 3975,1914 3975,1913 3976,1912 3976,1905 3975,1904 3975,1872 3976,1871 3976,1858 3975,1857 3975,1835 3976,1834 3976,1802 3975,1801 3975,1785 3976,1784 3976,1772 3975,1771 3975,1766 3976,1765 3976,1751 3975,1750 3975,1742 3976,1741 3976,1736 3977,1735 3977,1719 3976,1718 3976,1711 3975,1710 3975,1695 3976,1694 3976,1679 3975,1678 3975,1661 3976,1660 3975,1659 3975,1629 3976,1628 3976,1611 3975,1610 3975,1603 3974,1602 3974,1593 3975,1592 3975,1591 3974,1590 3974,1580 3973,1579 3973,1578 3972,1577 3971,1577 3970,1576 3969,1576 3968,1575 3965,1575 3964,1574 3956,1574 3955,1573 3928,1573 3927,1574 3914,1574 3913,1573 3866,1573 3865,1574 3853,1574 3852,1573 3839,1573 3838,1574 3825,1574 3824,1575 3819,1575 3818,1574 3796,1574 3795,1575 3756,1575 3755,1576 3665,1576 3664,1575 3655,1575 3654,1574 3613,1574 3612,1573 3605,1573 3604,1574 3600,1574 3599,1575 3576,1575 3575,1576 3569,1576 3568,1575 3559,1575 3558,1574 3553,1574 3552,1573 3529,1573 3528,1574 3520,1574 3519,1573 3511,1573 3510,1574 3506,1574 3505,1575 3483,1575 3482,1576 3459,1576 3458,1575 3448,1575 3447,1576 3440,1576 3439,1575 3433,1575 3432,1574 3418,1574 3417,1573 3399,1573 3398,1574 3388,1574 3387,1573 3361,1573 3360,1572" fill="rgba(57,21,252,0.3)" stroke="rgb(57,21,252)" stroke-width="2" data-block-id="0011" data-name="b-0012" /><text x="3238" y="1768" text-anchor="middle" dominant-baseline="middle" class="block-label" fill="rgb(57,21,252)" stroke="white" stroke-width="3" paint-order="stroke">b-0012</text></g>
</svg>