<?xml version='1.0' encoding='utf-8'?>
<svg xmlns="http://www.w3.org/2000/svg" xmlns:atlas="http://example.com/atlas" width="4984" height="3304" viewBox="0 0 4984 3304">
  
  <metadata>
    <atlas:source>
      <atlas:jp2-path>/Users/pwright/workspace/atlas/media/v2/p2.jp2</atlas:jp2-path>
      <atlas:volume>unknown</atlas:volume>
      <atlas:plate-id>p2</atlas:plate-id>
      <atlas:image-width>4984</atlas:image-width>
      <atlas:image-height>3304</atlas:image-height>
    </atlas:source>
  </metadata>

  
  <image id="background" href="file:///Users/pwright/workspace/atlas/media/v2/p2.jp2" width="4984" height="3304" opacity="0.5" />

  <style>
    .block-label { font-family: sans-serif; font-size: 14px; font-weight: bold; }
  </style>

  
  <g id="blocks">
    <polygon points="1311,2639 1310,2640 1304,2640 1303,2641 1293,2641 1292,2642 1291,2641 1280,2641 1279,2640 1269,2640 1268,2641 1254,2641 1253,2642 1240,2642 1239,2643 1236,2643 1235,2644 1233,2644 1232,2645 1231,2645 1230,2646 1229,2646 1228,2647 1227,2647 1226,2648 1225,2648 1224,2649 1223,2649 1222,2650 1221,2650 1220,2651 1219,2651 1218,2652 1213,2652 1212,2651 1210,2651 1209,2650 1207,2650 1206,2649 1204,2649 1203,2648 1200,2648 1199,2647 1191,2647 1190,2648 1184,2648 1183,2649 1177,2649 1176,2650 1169,2650 1168,2651 1161,2651 1160,2652 1153,2652 1152,2653 1145,2653 1144,2654 1101,2654 1100,2653 1092,2653 1091,2652 1085,2652 1084,2651 1065,2651 1064,2652 1062,2652 1061,2651 1052,2651 1051,2650 1045,2650 1044,2649 1033,2649 1032,2650 1009,2650 1008,2649 998,2649 997,2650 968,2650 967,2649 954,2649 953,2650 944,2650 943,2649 936,2649 935,2648 929,2648 928,2647 916,2647 915,2648 892,2648 891,2647 854,2647 853,2646 841,2646 840,2647 812,2647 811,2646 802,2646 801,2647 782,2647 781,2648 765,2648 764,2649 757,2649 756,2650 749,2650 748,2651 746,2651 745,2652 744,2652 743,2653 742,2653 739,2656 739,2657 738,2658 738,2659 737,2660 737,2667 736,2668 736,2686 737,2687 737,2706 736,2707 736,2794 735,2795 735,2844 736,2845 736,2852 737,2853 737,2857 738,2858 738,2862 739,2863 739,2866 740,2867 740,2870 741,2871 741,2874 742,2875 742,2880 743,2881 743,2886 744,2887 744,2899 743,2900 743,2916 744,2917 744,2937 743,2938 743,2949 742,2950 742,2971 741,2972 741,2982 740,2983 740,2991 741,2992 741,3002 742,3003 742,3008 743,3009 743,3011 744,3012 744,3013 746,3015 746,3016 747,3017 748,3017 749,3018 750,3018 751,3019 752,3019 753,3020 755,3020 756,3021 759,3021 760,3022 762,3022 763,3023 766,3023 767,3024 799,3024 800,3025 822,3025 823,3024 829,3024 830,3025 899,3025 900,3024 967,3024 968,3023 1057,3023 1058,3022 1063,3022 1064,3023 1149,3023 1150,3024 1200,3024 1201,3023 1229,3023 1230,3024 1242,3024 1243,3025 1256,3025 1257,3026 1265,3026 1266,3025 1289,3025 1290,3024 1298,3024 1299,3025 1312,3025 1313,3026 1323,3026 1324,3027 1333,3027 1334,3028 1375,3028 1376,3029 1418,3029 1419,3028 1540,3028 1541,3027 1610,3027 1611,3028 1632,3028 1633,3027 1649,3027 1650,3026 1705,3026 1706,3025 1819,3025 1820,3026 1851,3026 1852,3027 1876,3027 1877,3026 1892,3026 1893,3025 1915,3025 1916,3024 1922,3024 1923,3023 1926,3023 1927,3022 1928,3022 1929,3021 1930,3021 1934,3017 1934,3016 1935,3015 1935,3013 1936,3012 1936,3010 1937,3009 1937,3003 1938,3002 1938,2963 1939,2962 1939,2937 1940,2936 1940,2929 1939,2928 1939,2914 1938,2913 1938,2893 1939,2892 1939,2844 1938,2843 1938,2800 1939,2799 1939,2752 1938,2751 1938,2699 1937,2698 1938,2697 1938,2686 1939,2685 1939,2668 1938,2667 1938,2661 1937,2660 1937,2656 1936,2655 1936,2653 1935,2652 1935,2651 1931,2647 1930,2647 1929,2646 1928,2646 1927,2645 1924,2645 1923,2644 1917,2644 1916,2643 1905,2643 1904,2642 1863,2642 1862,2641 1857,2641 1856,2642 1840,2642 1839,2643 1836,2643 1835,2642 1790,2642 1789,2641 1774,2641 1773,2642 1732,2642 1731,2643 1715,2643 1714,2642 1697,2642 1696,2643 1689,2643 1688,2644 1673,2644 1672,2643 1649,2643 1648,2644 1646,2644 1645,2643 1630,2643 1629,2642 1622,2642 1621,2643 1612,2643 1611,2644 1600,2644 1599,2643 1536,2643 1535,2644 1501,2644 1500,2645 1493,2645 1492,2646 1487,2646 1486,2645 1481,2645 1480,2644 1475,2644 1474,2643 1463,2643 1462,2644 1455,2644 1454,2645 1440,2645 1439,2644 1418,2644 1417,2645 1411,2645 1410,2644 1401,2644 1400,2643 1392,2643 1391,2642 1363,2642 1362,2641 1327,2641 1326,2640 1318,2640 1317,2639" fill="rgba(188,20,102,0.3)" stroke="rgb(188,20,102)" stroke-width="2" data-block-id="0001" data-name="b-0005" /><text x="1283" y="2784" text-anchor="middle" dominant-baseline="middle" class="block-label" fill="rgb(188,20,102)" stroke="white" stroke-width="3" paint-order="stroke">b-0005</text><polygon points="3702,2145 3701,2146 3552,2146 3551,2147 3539,2147 3538,2146 3505,2146 3504,2147 3495,2147 3494,2146 3461,2146 3460,2147 3453,2147 3452,2148 3448,2148 3447,2147 3413,2147 3412,2148 3403,2148 3402,2149 3399,2149 3398,2150 3397,2150 3395,2152 3395,2153 3394,2154 3394,2155 3393,2156 3393,2165 3394,2166 3394,2201 3393,2202 3393,2220 3394,2221 3394,2238 3395,2239 3394,2240 3394,2244 3393,2245 3393,2249 3392,2250 3392,2258 3393,2259 3393,2331 3394,2332 3394,2340 3393,2341 3393,2404 3394,2405 3394,2412 3393,2413 3393,2424 3394,2425 3394,2476 3395,2477 3395,2481 3394,2482 3394,2489 3393,2490 3393,2493 3394,2494 3394,2501 3395,2502 3395,2507 3394,2508 3394,2515 3395,2516 3395,2517 3398,2520 3399,2520 3400,2521 3402,2521 3403,2522 3468,2522 3469,2523 3480,2523 3481,2522 3491,2522 3492,2523 3504,2523 3505,2522 3512,2522 3513,2523 3562,2523 3563,2522 3627,2522 3628,2521 3677,2521 3678,2522 3693,2522 3694,2521 3697,2521 3698,2520 3702,2520 3703,2521 3705,2521 3706,2522 3709,2522 3710,2523 3719,2523 3720,2522 3737,2522 3738,2521 3739,2522 3793,2522 3794,2521 3799,2521 3800,2522 3845,2522 3846,2521 3864,2521 3865,2522 3872,2522 3873,2521 3923,2521 3924,2520 3931,2520 3932,2521 3970,2521 3971,2520 3981,2520 3982,2521 4012,2521 4013,2520 4019,2520 4020,2519 4026,2519 4027,2520 4031,2520 4032,2521 4080,2521 4081,2522 4084,2522 4085,2521 4112,2521 4113,2522 4124,2522 4125,2521 4172,2521 4173,2522 4195,2522 4196,2521 4200,2521 4201,2520 4204,2520 4205,2521 4235,2521 4236,2522 4240,2522 4241,2521 4249,2521 4250,2520 4253,2520 4254,2521 4271,2521 4272,2522 4276,2522 4277,2521 4361,2521 4362,2520 4408,2520 4409,2521 4425,2521 4426,2520 4438,2520 4439,2521 4440,2520 4517,2520 4518,2519 4556,2519 4557,2518 4585,2518 4586,2517 4592,2517 4593,2516 4595,2516 4596,2515 4597,2515 4599,2513 4599,2512 4600,2511 4600,2509 4601,2508 4601,2506 4602,2505 4602,2488 4601,2487 4601,2475 4600,2474 4600,2446 4599,2445 4600,2444 4600,2411 4601,2410 4601,2406 4600,2405 4600,2398 4599,2397 4600,2396 4600,2387 4601,2386 4601,2381 4600,2380 4600,2340 4601,2339 4601,2334 4600,2333 4600,2294 4601,2293 4601,2285 4600,2284 4600,2265 4601,2264 4601,2244 4602,2243 4602,2241 4601,2240 4601,2235 4600,2234 4600,2203 4601,2202 4601,2184 4600,2183 4600,2155 4598,2153 4598,2152 4596,2150 4595,2150 4594,2149 4592,2149 4591,2148 4587,2148 4586,2147 4561,2147 4560,2146 4549,2146 4548,2145 4535,2145 4534,2146 4531,2146 4530,2147 4526,2147 4525,2148 4492,2148 4491,2147 4435,2147 4434,2148 4421,2148 4420,2147 4231,2147 4230,2146 4223,2146 4222,2147 4100,2147 4099,2148 4087,2148 4086,2147 4034,2147 4033,2148 4018,2148 4017,2147 3983,2147 3982,2148 3971,2148 3970,2147 3954,2147 3953,2148 3951,2148 3950,2147 3904,2147 3903,2148 3893,2148 3892,2147 3878,2147 3877,2146 3835,2146 3834,2147 3829,2147 3828,2146 3794,2146 3793,2147 3774,2147 3773,2146 3756,2146 3755,2147 3744,2147 3743,2146 3716,2146 3715,2145" fill="rgba(52,1,87,0.3)" stroke="rgb(52,1,87)" stroke-width="2" data-block-id="0002" data-name="b-0011" /><text x="3993" y="2353" text-anchor="middle" dominant-baseline="middle" class="block-label" fill="rgb(52,1,87)" stroke="white" stroke-width="3" paint-order="stroke">b-0011</text><polygon points="3198,2639 3197,2640 3179,2640 3178,2641 3173,2641 3172,2640 3150,2640 3149,2641 3121,2641 3120,2640 3111,2640 3110,2641 3092,2641 3091,2642 3084,2642 3083,2643 3016,2643 3015,2644 2987,2644 2986,2645 2926,2645 2925,2644 2921,2644 2920,2645 2912,2645 2911,2644 2891,2644 2890,2645 2887,2645 2886,2644 2845,2644 2844,2645 2797,2645 2796,2646 2667,2646 2666,2645 2655,2645 2654,2646 2646,2646 2645,2645 2634,2645 2633,2646 2583,2646 2582,2647 2548,2647 2547,2648 2475,2648 2474,2647 2464,2647 2463,2648 2403,2648 2402,2647 2400,2647 2399,2648 2382,2648 2381,2647 2368,2647 2367,2648 2361,2648 2360,2647 2346,2647 2345,2648 2336,2648 2335,2647 2311,2647 2310,2646 2294,2646 2293,2645 2290,2645 2289,2644 2285,2644 2284,2643 2272,2643 2271,2644 2221,2644 2220,2645 2211,2645 2210,2644 2202,2644 2201,2643 2187,2643 2186,2644 2133,2644 2132,2645 2126,2645 2125,2646 2124,2646 2123,2647 2122,2647 2121,2648 2121,2649 2120,2650 2120,2653 2119,2654 2119,2681 2118,2682 2118,2695 2119,2696 2119,2732 2118,2733 2118,2748 2119,2749 2119,2768 2118,2769 2118,2788 2119,2789 2119,2818 2118,2819 2118,2845 2119,2846 2119,2855 2118,2856 2118,2884 2119,2885 2119,2919 2120,2920 2120,2923 2119,2924 2119,2940 2120,2941 2120,2950 2119,2951 2119,3016 2120,3017 2120,3019 2124,3023 2126,3023 2127,3024 2187,3024 2188,3023 2226,3023 2227,3022 2240,3022 2241,3023 2262,3023 2263,3024 2280,3024 2281,3023 2285,3023 2286,3022 2293,3022 2294,3021 2295,3022 2332,3022 2333,3021 2346,3021 2347,3022 2364,3022 2365,3023 2378,3023 2379,3022 2443,3022 2444,3023 2472,3023 2473,3022 2516,3022 2517,3021 2527,3021 2528,3022 2555,3022 2556,3021 2563,3021 2564,3020 2582,3020 2583,3019 2623,3019 2624,3020 2628,3020 2629,3021 2632,3021 2633,3022 2643,3022 2644,3021 2671,3021 2672,3022 2702,3022 2703,3023 2742,3023 2743,3022 2755,3022 2756,3023 2760,3023 2761,3022 2795,3022 2796,3023 2802,3023 2803,3024 2814,3024 2815,3025 2819,3025 2820,3024 2828,3024 2829,3023 2834,3023 2835,3022 2889,3022 2890,3021 2891,3022 2909,3022 2910,3023 2929,3023 2930,3022 2934,3022 2935,3021 2980,3021 2981,3022 3017,3022 3018,3021 3027,3021 3028,3020 3047,3020 3048,3019 3052,3019 3053,3018 3054,3018 3055,3017 3057,3017 3058,3016 3069,3016 3070,3017 3073,3017 3074,3018 3087,3018 3088,3019 3119,3019 3120,3018 3231,3018 3232,3017 3237,3017 3238,3016 3239,3016 3241,3014 3241,3013 3242,3012 3242,3011 3243,3010 3243,3006 3244,3005 3244,3001 3243,3000 3243,2984 3244,2983 3244,2975 3243,2974 3243,2969 3244,2968 3244,2927 3243,2926 3243,2916 3244,2915 3244,2904 3243,2903 3243,2875 3244,2874 3244,2854 3243,2853 3243,2842 3244,2841 3244,2834 3243,2833 3243,2783 3242,2782 3242,2752 3243,2751 3243,2742 3244,2741 3244,2740 3243,2739 3243,2647 3242,2646 3242,2644 3239,2641 3238,2641 3237,2640 3235,2640 3234,2639 3231,2639 3230,2640 3219,2640 3218,2639" fill="rgba(129,191,187,0.3)" stroke="rgb(129,191,187)" stroke-width="2" data-block-id="0003" data-name="b-0013" /><text x="2691" y="2842" text-anchor="middle" dominant-baseline="middle" class="block-label" fill="rgb(129,191,187)" stroke="white" stroke-width="3" paint-order="stroke">b-0013</text><polygon points="3579,1692 3578,1693 3569,1693 3568,1694 3551,1694 3550,1695 3537,1695 3536,1694 3515,1694 3514,1695 3479,1695 3478,1696 3470,1696 3469,1695 3463,1695 3462,1694 3437,1694 3436,1695 3408,1695 3407,1696 3403,1696 3402,1697 3401,1697 3400,1698 3399,1698 3395,1702 3395,1704 3394,1705 3394,1762 3395,1763 3395,1772 3396,1773 3396,1777 3395,1778 3395,1782 3394,1783 3394,1808 3395,1809 3395,1838 3396,1839 3396,1844 3397,1845 3397,1848 3396,1849 3396,1854 3395,1855 3395,1867 3396,1868 3396,1870 3395,1871 3395,1876 3394,1877 3394,1880 3393,1881 3393,1898 3394,1899 3394,1904 3395,1905 3395,1909 3394,1910 3394,1917 3393,1918 3393,1927 3392,1928 3392,1933 3393,1934 3393,1946 3394,1947 3394,1962 3393,1963 3393,1969 3394,1970 3394,1984 3395,1985 3395,2015 3396,2016 3396,2025 3397,2026 3397,2028 3401,2032 3402,2032 3403,2033 3405,2033 3406,2034 3413,2034 3414,2035 3422,2035 3423,2036 3446,2036 3447,2037 3495,2037 3496,2038 3499,2038 3500,2037 3505,2037 3506,2036 3517,2036 3518,2037 3524,2037 3525,2036 3542,2036 3543,2037 3552,2037 3553,2036 3569,2036 3570,2037 3583,2037 3584,2038 3596,2038 3597,2037 3600,2037 3601,2036 3611,2036 3612,2037 3625,2037 3626,2036 3631,2036 3632,2037 3638,2037 3639,2038 3644,2038 3645,2037 3661,2037 3662,2038 3668,2038 3669,2037 3733,2037 3734,2038 3740,2038 3741,2037 3753,2037 3754,2038 3767,2038 3768,2037 3778,2037 3779,2038 3793,2038 3794,2037 3797,2037 3798,2038 3815,2038 3816,2037 3823,2037 3824,2038 3830,2038 3831,2039 3842,2039 3843,2040 3860,2040 3861,2039 3873,2039 3874,2040 3884,2040 3885,2039 3925,2039 3926,2040 3930,2040 3931,2039 3970,2039 3971,2040 3986,2040 3987,2039 3989,2039 3990,2040 4120,2040 4121,2041 4139,2041 4140,2040 4162,2040 4163,2041 4169,2041 4170,2040 4205,2040 4206,2041 4247,2041 4248,2040 4250,2040 4251,2041 4259,2041 4260,2042 4271,2042 4272,2043 4273,2042 4278,2042 4279,2041 4282,2041 4283,2040 4312,2040 4313,2041 4404,2041 4405,2042 4422,2042 4423,2041 4458,2041 4459,2042 4469,2042 4470,2041 4497,2041 4498,2042 4502,2042 4503,2041 4533,2041 4534,2040 4539,2040 4540,2041 4550,2041 4551,2040 4590,2040 4591,2039 4597,2039 4601,2035 4601,2033 4602,2032 4602,2030 4603,2029 4603,2022 4604,2021 4604,2011 4603,2010 4603,1994 4602,1993 4602,1984 4603,1983 4603,1975 4602,1974 4602,1960 4603,1959 4603,1951 4602,1950 4602,1903 4603,1902 4603,1818 4604,1817 4604,1807 4605,1806 4605,1785 4604,1784 4604,1775 4603,1774 4603,1773 4604,1772 4604,1740 4605,1739 4605,1725 4606,1724 4606,1705 4605,1704 4605,1703 4604,1702 4603,1702 4602,1701 4601,1701 4600,1700 4596,1700 4595,1699 4582,1699 4581,1698 4538,1698 4537,1697 4533,1697 4532,1698 4522,1698 4521,1697 4505,1697 4504,1698 4493,1698 4492,1697 4482,1697 4481,1698 4474,1698 4473,1697 4447,1697 4446,1698 4418,1698 4417,1697 4408,1697 4407,1698 4404,1698 4403,1697 4387,1697 4386,1698 4377,1698 4376,1697 4339,1697 4338,1698 4330,1698 4329,1697 4301,1697 4300,1696 4295,1696 4294,1697 4280,1697 4279,1696 4256,1696 4255,1695 4247,1695 4246,1696 4231,1696 4230,1695 4222,1695 4221,1696 4206,1696 4205,1695 4196,1695 4195,1696 4185,1696 4184,1695 4174,1695 4173,1696 4160,1696 4159,1695 4125,1695 4124,1696 4112,1696 4111,1695 4102,1695 4101,1696 4050,1696 4049,1697 4039,1697 4038,1696 4024,1696 4023,1695 4002,1695 4001,1696 3994,1696 3993,1695 3967,1695 3966,1694 3962,1694 3961,1695 3955,1695 3954,1696 3949,1696 3948,1695 3942,1695 3941,1694 3938,1694 3937,1695 3908,1695 3907,1696 3900,1696 3899,1695 3886,1695 3885,1696 3874,1696 3873,1695 3799,1695 3798,1694 3794,1694 3793,1695 3753,1695 3752,1694 3745,1694 3744,1695 3725,1695 3724,1694 3706,1694 3705,1693 3692,1693 3691,1694 3688,1694 3687,1693 3595,1693 3594,1692" fill="rgba(20,160,203,0.3)" stroke="rgb(20,160,203)" stroke-width="2" data-block-id="0004" data-name="b-0014" /><text x="3958" y="1865" text-anchor="middle" dominant-baseline="middle" class="block-label" fill="rgb(20,160,203)" stroke="white" stroke-width="3" paint-order="stroke">b-0014</text><polygon points="3783,332 3782,333 3777,333 3776,334 3772,334 3771,335 3770,334 3762,334 3761,333 3741,333 3740,334 3720,334 3719,333 3696,333 3695,334 3669,334 3668,333 3649,333 3648,334 3614,334 3613,333 3604,333 3603,334 3596,334 3595,335 3580,335 3579,334 3565,334 3564,335 3554,335 3553,334 3500,334 3499,335 3483,335 3482,334 3409,334 3408,335 3396,335 3395,336 3391,336 3390,337 3389,337 3388,338 3388,339 3387,340 3387,352 3386,353 3386,360 3385,361 3385,368 3386,369 3386,425 3387,426 3387,466 3386,467 3386,475 3387,476 3387,512 3386,513 3386,520 3387,521 3387,538 3386,539 3386,561 3385,562 3385,568 3386,569 3386,580 3387,581 3387,586 3388,587 3388,594 3387,595 3387,619 3388,620 3388,625 3389,626 3389,644 3388,645 3388,662 3389,663 3389,664 3391,666 3391,667 3392,668 3393,668 3394,669 3395,669 3396,670 3397,670 3398,671 3401,671 3402,672 3407,672 3408,673 3419,673 3420,674 3428,674 3429,673 3552,673 3553,672 3562,672 3563,673 3568,673 3569,674 3574,674 3575,673 3585,673 3586,674 3615,674 3616,675 3619,675 3620,674 3633,674 3634,675 3680,675 3681,674 3687,674 3688,673 3692,673 3693,672 3696,672 3697,671 3721,671 3722,670 3736,670 3737,671 3743,671 3744,672 3746,672 3747,673 3768,673 3769,672 3774,672 3775,673 3781,673 3782,674 3792,674 3793,675 3801,675 3802,674 3828,674 3829,673 3832,673 3833,674 3842,674 3843,675 3850,675 3851,674 3885,674 3886,673 3889,673 3890,672 3893,672 3894,673 3898,673 3899,674 3920,674 3921,673 3934,673 3935,674 3975,674 3976,675 3983,675 3984,674 3985,674 3986,675 3993,675 3994,676 4037,676 4038,675 4053,675 4054,676 4087,676 4088,677 4142,677 4143,678 4160,678 4161,677 4164,677 4165,676 4168,676 4169,677 4175,677 4176,678 4225,678 4226,679 4228,679 4229,678 4239,678 4240,679 4289,679 4290,680 4299,680 4300,681 4307,681 4308,682 4357,682 4358,681 4363,681 4364,680 4366,680 4367,679 4368,679 4369,678 4384,678 4385,679 4397,679 4398,678 4401,678 4402,677 4406,677 4407,678 4408,678 4409,679 4410,679 4411,680 4413,680 4414,681 4461,681 4462,682 4580,682 4581,683 4583,683 4584,682 4589,682 4590,681 4593,681 4594,680 4596,680 4598,678 4599,678 4602,675 4602,673 4603,672 4603,666 4602,665 4602,647 4601,646 4601,638 4600,637 4600,636 4601,635 4601,618 4600,617 4600,599 4601,598 4601,582 4602,581 4602,580 4601,579 4601,569 4600,568 4600,561 4601,560 4601,514 4602,513 4602,490 4603,489 4603,416 4604,415 4604,353 4603,352 4603,350 4602,349 4602,348 4601,347 4600,347 4598,345 4596,345 4595,344 4586,344 4585,343 4562,343 4561,342 4554,342 4553,343 4547,343 4546,342 4526,342 4525,343 4521,343 4520,342 4504,342 4503,343 4490,343 4489,342 4486,342 4485,343 4475,343 4474,342 4430,342 4429,343 4411,343 4410,342 4399,342 4398,341 4384,341 4383,342 4381,342 4380,341 4344,341 4343,340 4342,341 4333,341 4332,340 4314,340 4313,341 4306,341 4305,340 4302,340 4301,339 4298,339 4297,338 4276,338 4275,339 4272,339 4271,338 4186,338 4185,337 4171,337 4170,336 4150,336 4149,337 4146,337 4145,338 4140,338 4139,337 4137,337 4136,336 4133,336 4132,335 4126,335 4125,336 4097,336 4096,337 4095,337 4094,336 4087,336 4086,335 4077,335 4076,336 4040,336 4039,335 4017,335 4016,334 4009,334 4008,335 4004,335 4003,336 3996,336 3995,335 3993,335 3992,334 3979,334 3978,335 3946,335 3945,334 3931,334 3930,335 3926,335 3925,334 3908,334 3907,335 3895,335 3894,334 3861,334 3860,333 3844,333 3843,334 3813,334 3812,333 3789,333 3788,332" fill="rgba(57,21,252,0.3)" stroke="rgb(57,21,252)" stroke-width="2" data-block-id="0005" data-name="b-0015" /><text x="3995" y="511" text-anchor="middle" dominant-baseline="middle" class="block-label" fill="rgb(57,21,252)" stroke="white" stroke-width="3" paint-order="stroke">b-0015</text><polygon points="3413,1240 3412,1241 3402,1241 3401,1242 3399,1242 3398,1243 3397,1243 3395,1245 3394,1245 3393,1246 3393,1247 3392,1248 3392,1249 3391,1250 3391,1254 3392,1255 3392,1266 3391,1267 3391,1280 3392,1281 3392,1290 3391,1291 3391,1304 3392,1305 3392,1325 3393,1326 3393,1342 3392,1343 3392,1346 3393,1347 3393,1351 3394,1352 3394,1363 3393,1364 3393,1378 3394,1379 3394,1382 3393,1383 3393,1389 3392,1390 3392,1395 3393,1396 3393,1400 3394,1401 3394,1409 3393,1410 3393,1416 3392,1417 3392,1471 3393,1472 3393,1479 3392,1480 3392,1495 3393,1496 3393,1506 3392,1507 3392,1552 3391,1553 3391,1566 3392,1567 3392,1572 3393,1573 3393,1575 3397,1579 3398,1579 3399,1580 3401,1580 3402,1581 3521,1581 3522,1582 3564,1582 3565,1581 3576,1581 3577,1582 3590,1582 3591,1581 3596,1581 3597,1582 3631,1582 3632,1581 3733,1581 3734,1580 3739,1580 3740,1581 3752,1581 3753,1582 3779,1582 3780,1581 3814,1581 3815,1582 3932,1582 3933,1583 3948,1583 3949,1582 3954,1582 3955,1583 3966,1583 3967,1582 3983,1582 3984,1583 4009,1583 4010,1584 4042,1584 4043,1583 4076,1583 4077,1584 4086,1584 4087,1583 4092,1583 4093,1582 4097,1582 4098,1583 4173,1583 4174,1584 4179,1584 4180,1583 4196,1583 4197,1584 4227,1584 4228,1583 4255,1583 4256,1584 4269,1584 4270,1585 4275,1585 4276,1584 4288,1584 4289,1583 4319,1583 4320,1584 4322,1584 4323,1583 4338,1583 4339,1584 4361,1584 4362,1583 4391,1583 4392,1584 4405,1584 4406,1585 4419,1585 4420,1584 4424,1584 4425,1583 4433,1583 4434,1584 4450,1584 4451,1583 4457,1583 4458,1584 4469,1584 4470,1583 4483,1583 4484,1584 4491,1584 4492,1583 4508,1583 4509,1584 4517,1584 4518,1583 4531,1583 4532,1584 4540,1584 4541,1583 4555,1583 4556,1584 4564,1584 4565,1583 4592,1583 4593,1582 4596,1582 4597,1581 4598,1581 4603,1576 4603,1574 4604,1573 4604,1550 4603,1549 4603,1541 4602,1540 4602,1504 4603,1503 4603,1498 4602,1497 4602,1422 4603,1421 4603,1412 4604,1411 4604,1386 4603,1385 4603,1362 4602,1361 4602,1279 4603,1278 4603,1259 4602,1258 4602,1255 4601,1254 4601,1252 4600,1251 4600,1250 4596,1246 4585,1246 4584,1245 4564,1245 4563,1246 4557,1246 4556,1245 4515,1245 4514,1246 4511,1246 4510,1245 4478,1245 4477,1244 4475,1244 4474,1245 4458,1245 4457,1244 4440,1244 4439,1245 4431,1245 4430,1246 4426,1246 4425,1245 4394,1245 4393,1244 4364,1244 4363,1243 4351,1243 4350,1244 4324,1244 4323,1245 4319,1245 4318,1244 4309,1244 4308,1243 4217,1243 4216,1242 4200,1242 4199,1243 4194,1243 4193,1244 4186,1244 4185,1243 4150,1243 4149,1242 4091,1242 4090,1243 4075,1243 4074,1242 4055,1242 4054,1243 4028,1243 4027,1244 4024,1244 4023,1243 4020,1243 4019,1242 4016,1242 4015,1241 4007,1241 4006,1242 3969,1242 3968,1241 3959,1241 3958,1242 3922,1242 3921,1241 3909,1241 3908,1242 3876,1242 3875,1241 3864,1241 3863,1242 3776,1242 3775,1243 3721,1243 3720,1242 3707,1242 3706,1243 3674,1243 3673,1242 3619,1242 3618,1241 3599,1241 3598,1242 3594,1242 3593,1241 3516,1241 3515,1240 3477,1240 3476,1241 3475,1241 3474,1240" fill="rgba(235,88,48,0.3)" stroke="rgb(235,88,48)" stroke-width="2" data-block-id="0006" data-name="b-0016" /><text x="4009" y="1412" text-anchor="middle" dominant-baseline="middle" class="block-label" fill="rgb(235,88,48)" stroke="white" stroke-width="3" paint-order="stroke">b-0016</text><polygon points="893,316 892,317 888,317 887,318 884,318 883,319 878,319 877,320 867,320 866,321 860,321 859,322 846,322 845,323 838,323 837,322 821,322 820,323 797,323 796,324 792,324 791,323 764,323 763,324 759,324 758,325 755,325 754,326 751,326 750,327 748,327 747,328 746,328 744,330 744,331 743,332 743,333 742,334 742,335 741,336 741,337 740,338 740,340 739,341 739,360 740,361 740,377 741,378 741,405 742,406 742,470 741,471 741,489 740,490 740,496 739,497 739,500 738,501 738,504 737,505 737,517 738,518 738,523 739,524 739,528 740,529 740,538 739,539 739,544 740,545 740,573 741,574 741,660 742,661 742,662 743,663 743,664 744,665 745,665 746,666 748,666 749,667 757,667 758,668 802,668 803,669 806,669 807,668 826,668 827,669 835,669 836,668 842,668 843,669 853,669 854,670 881,670 882,669 922,669 923,668 941,668 942,667 990,667 991,668 1002,668 1003,667 1014,667 1015,666 1024,666 1025,665 1090,665 1091,666 1102,666 1103,667 1109,667 1110,668 1124,668 1125,667 1133,667 1134,666 1180,666 1181,667 1228,667 1229,666 1232,666 1233,665 1483,665 1484,666 1487,666 1488,665 1505,665 1506,666 1530,666 1531,667 1548,667 1549,666 1566,666 1567,665 1572,665 1573,666 1589,666 1590,665 1597,665 1598,666 1635,666 1636,665 1648,665 1649,666 1657,666 1658,665 1666,665 1667,666 1675,666 1676,667 1680,667 1681,666 1692,666 1693,667 1742,667 1743,668 1749,668 1750,669 1767,669 1768,670 1786,670 1787,669 1861,669 1862,670 1877,670 1878,669 1882,669 1883,670 1895,670 1896,669 1916,669 1917,668 1929,668 1930,667 1931,667 1935,663 1935,662 1936,661 1936,628 1937,627 1937,622 1936,621 1936,584 1937,583 1937,570 1936,569 1936,559 1937,558 1937,553 1936,552 1936,537 1937,536 1937,527 1936,526 1936,465 1937,464 1937,453 1936,452 1936,444 1937,443 1937,418 1936,417 1936,390 1937,389 1937,357 1936,356 1936,348 1937,347 1937,340 1936,339 1936,336 1934,334 1934,333 1931,330 1930,330 1929,329 1926,329 1925,328 1909,328 1908,327 1863,327 1862,326 1808,326 1807,325 1750,325 1749,326 1677,326 1676,325 1643,325 1642,326 1636,326 1635,325 1629,325 1628,326 1527,326 1526,325 1461,325 1460,324 1421,324 1420,323 1415,323 1414,324 1404,324 1403,325 1395,325 1394,324 1391,324 1390,325 1386,325 1385,326 1382,326 1380,328 1376,328 1375,327 1373,327 1372,326 1364,326 1363,325 1353,325 1352,326 1346,326 1345,327 1341,327 1340,328 1335,328 1334,329 1326,329 1325,330 1307,330 1306,331 1251,331 1250,332 1248,332 1247,331 1236,331 1235,330 1232,330 1231,331 1216,331 1215,330 1194,330 1193,329 1181,329 1180,328 1176,328 1175,329 1169,329 1168,330 1164,330 1163,331 1156,331 1155,332 1145,332 1144,331 1136,331 1135,332 1118,332 1117,331 1114,331 1113,332 1102,332 1101,331 1096,331 1095,330 1079,330 1078,329 1073,329 1072,328 1069,328 1068,327 1051,327 1050,326 1028,326 1027,325 1023,325 1022,324 1002,324 1001,323 993,323 992,324 978,324 977,323 935,323 934,322 927,322 926,321 913,321 912,320 909,320 908,319 906,319 905,318 904,318 903,317 902,317 901,316" fill="rgba(218,58,254,0.3)" stroke="rgb(218,58,254)" stroke-width="2" data-block-id="0007" data-name="b-0017" /><text x="1260" y="464" text-anchor="middle" dominant-baseline="middle" class="block-label" fill="rgb(218,58,254)" stroke="white" stroke-width="3" paint-order="stroke">b-0017</text><polygon points="1771,1236 1770,1237 1762,1237 1761,1238 1758,1238 1757,1237 1742,1237 1741,1238 1730,1238 1729,1237 1721,1237 1720,1238 1708,1238 1707,1237 1668,1237 1667,1238 1662,1238 1661,1237 1647,1237 1646,1238 1634,1238 1633,1237 1625,1237 1624,1238 1613,1238 1612,1237 1576,1237 1575,1238 1566,1238 1565,1237 1547,1237 1546,1238 1543,1238 1542,1237 1526,1237 1525,1238 1519,1238 1518,1237 1501,1237 1500,1238 1495,1238 1494,1237 1462,1237 1461,1238 1458,1238 1457,1239 1456,1239 1455,1240 1453,1240 1452,1241 1449,1241 1448,1242 1447,1242 1446,1241 1435,1241 1434,1242 1426,1242 1425,1243 1420,1243 1419,1244 1417,1244 1416,1245 1409,1245 1408,1244 1405,1244 1404,1243 1387,1243 1386,1242 1383,1242 1382,1241 1378,1241 1377,1240 1370,1240 1369,1239 1366,1239 1365,1240 1360,1240 1359,1241 1349,1241 1348,1240 1334,1240 1333,1241 1331,1241 1330,1240 1325,1240 1324,1239 1322,1239 1321,1238 1316,1238 1315,1239 1312,1239 1311,1240 1300,1240 1299,1239 1290,1239 1289,1240 1278,1240 1277,1239 1275,1239 1274,1238 1268,1238 1267,1239 1264,1239 1263,1240 1253,1240 1252,1239 1240,1239 1239,1240 1231,1240 1230,1239 1223,1239 1222,1238 1221,1239 1216,1239 1215,1240 1208,1240 1207,1239 1202,1239 1201,1238 1195,1238 1194,1239 1184,1239 1183,1238 1171,1238 1170,1239 1167,1239 1166,1240 1160,1240 1159,1239 1155,1239 1154,1238 1149,1238 1148,1239 1142,1239 1141,1240 1138,1240 1137,1239 1133,1239 1132,1238 1124,1238 1123,1239 1119,1239 1118,1240 1112,1240 1111,1239 1106,1239 1105,1238 1102,1238 1101,1239 1096,1239 1095,1240 1089,1240 1088,1239 1084,1239 1083,1238 1077,1238 1076,1239 1072,1239 1071,1240 1063,1240 1062,1239 1052,1239 1051,1240 1038,1240 1037,1239 1034,1239 1033,1238 1031,1238 1030,1239 1026,1239 1025,1240 1013,1240 1012,1239 1006,1239 1005,1240 999,1240 998,1241 993,1241 992,1240 982,1240 981,1239 969,1239 968,1238 955,1238 954,1239 944,1239 943,1238 927,1238 926,1239 923,1239 922,1238 915,1238 914,1237 912,1237 911,1238 905,1238 904,1239 893,1239 892,1238 886,1238 885,1239 877,1239 876,1240 866,1240 865,1239 848,1239 847,1238 838,1238 837,1239 813,1239 812,1240 799,1240 798,1239 788,1239 787,1240 773,1240 772,1239 768,1239 767,1240 763,1240 762,1241 759,1241 758,1242 754,1242 753,1243 747,1243 743,1247 743,1249 742,1250 742,1258 741,1259 741,1272 740,1273 740,1275 741,1276 741,1304 742,1305 742,1309 741,1310 741,1364 740,1365 740,1397 739,1398 739,1436 738,1437 738,1462 739,1463 739,1470 738,1471 738,1479 739,1480 739,1527 740,1528 740,1547 739,1548 739,1550 740,1551 740,1565 741,1566 741,1571 742,1572 742,1573 745,1576 747,1576 748,1577 754,1577 755,1578 779,1578 780,1577 794,1577 795,1578 808,1578 809,1577 811,1577 812,1576 814,1576 815,1575 824,1575 825,1576 830,1576 831,1577 862,1577 863,1578 879,1578 880,1577 892,1577 893,1578 931,1578 932,1577 938,1577 939,1578 954,1578 955,1577 977,1577 978,1576 988,1576 989,1577 992,1577 993,1578 996,1578 997,1579 1001,1579 1002,1578 1039,1578 1040,1579 1051,1579 1052,1578 1082,1578 1083,1579 1101,1579 1102,1578 1139,1578 1140,1579 1146,1579 1147,1578 1151,1578 1152,1579 1180,1579 1181,1580 1195,1580 1196,1579 1281,1579 1282,1580 1312,1580 1313,1579 1322,1579 1323,1580 1342,1580 1343,1579 1351,1579 1352,1578 1382,1578 1383,1579 1395,1579 1396,1580 1405,1580 1406,1579 1441,1579 1442,1580 1465,1580 1466,1579 1469,1579 1470,1578 1472,1578 1473,1577 1477,1577 1478,1576 1482,1576 1483,1575 1489,1575 1490,1576 1492,1576 1493,1577 1495,1577 1496,1578 1502,1578 1503,1577 1512,1577 1513,1578 1516,1578 1517,1579 1519,1579 1520,1580 1523,1580 1524,1579 1526,1579 1527,1578 1530,1578 1531,1577 1537,1577 1538,1578 1541,1578 1542,1579 1550,1579 1551,1578 1561,1578 1562,1579 1565,1579 1566,1580 1573,1580 1574,1579 1588,1579 1589,1580 1668,1580 1669,1581 1674,1581 1675,1582 1681,1582 1682,1583 1694,1583 1695,1582 1707,1582 1708,1583 1721,1583 1722,1582 1728,1582 1729,1583 1753,1583 1754,1582 1763,1582 1764,1583 1775,1583 1776,1582 1780,1582 1781,1581 1789,1581 1790,1582 1804,1582 1805,1581 1810,1581 1811,1582 1826,1582 1827,1581 1836,1581 1837,1582 1842,1582 1843,1583 1846,1583 1847,1582 1861,1582 1862,1583 1875,1583 1876,1582 1884,1582 1885,1583 1895,1583 1896,1582 1901,1582 1902,1581 1905,1581 1906,1582 1910,1582 1911,1583 1917,1583 1918,1582 1920,1582 1921,1581 1922,1581 1923,1580 1925,1580 1926,1579 1928,1579 1929,1578 1930,1578 1932,1576 1932,1575 1933,1574 1933,1573 1934,1572 1934,1564 1935,1563 1935,1551 1934,1550 1934,1520 1935,1519 1935,1502 1936,1501 1936,1467 1935,1466 1935,1447 1936,1446 1936,1426 1935,1425 1935,1404 1936,1403 1936,1323 1935,1322 1935,1320 1936,1319 1936,1281 1935,1280 1935,1267 1936,1266 1936,1251 1935,1250 1935,1247 1934,1246 1934,1245 1933,1244 1933,1243 1931,1241 1930,1241 1929,1240 1926,1240 1925,1239 1920,1239 1919,1238 1912,1238 1911,1239 1907,1239 1906,1240 1901,1240 1900,1239 1895,1239 1894,1238 1890,1238 1889,1239 1883,1239 1882,1240 1877,1240 1876,1239 1871,1239 1870,1238 1866,1238 1865,1239 1859,1239 1858,1240 1853,1240 1852,1239 1838,1239 1837,1240 1826,1240 1825,1239 1800,1239 1799,1238 1785,1238 1784,1237 1775,1237 1774,1236" fill="rgba(169,219,187,0.3)" stroke="rgb(169,219,187)" stroke-width="2" data-block-id="0008" data-name="b-0018" /><text x="1359" y="1382" text-anchor="middle" dominant-baseline="middle" class="block-label" fill="rgb(169,219,187)" stroke="white" stroke-width="3" paint-order="stroke">b-0018</text><polygon points="3423,788 3422,789 3411,789 3410,790 3406,790 3405,791 3403,791 3402,792 3401,792 3400,793 3400,794 3399,795 3399,798 3398,799 3398,802 3397,803 3397,813 3396,814 3396,820 3397,821 3397,829 3396,830 3396,835 3395,836 3395,860 3396,861 3396,866 3395,867 3395,1001 3396,1002 3396,1029 3395,1030 3395,1044 3396,1045 3396,1052 3397,1053 3397,1077 3396,1078 3396,1090 3397,1091 3397,1116 3398,1117 3398,1118 3399,1119 3399,1120 3402,1123 3403,1123 3404,1124 3405,1124 3406,1125 3407,1125 3408,1126 3410,1126 3411,1127 3413,1127 3414,1128 3424,1128 3425,1129 3428,1129 3429,1128 3505,1128 3506,1127 3519,1127 3520,1128 3528,1128 3529,1127 3535,1127 3536,1128 3554,1128 3555,1127 3556,1127 3557,1128 3561,1128 3562,1129 3566,1129 3567,1130 3574,1130 3575,1129 3586,1129 3587,1130 3639,1130 3640,1129 3684,1129 3685,1130 3746,1130 3747,1129 3752,1129 3753,1130 3829,1130 3830,1131 3864,1131 3865,1130 3871,1130 3872,1131 3885,1131 3886,1130 3933,1130 3934,1131 3978,1131 3979,1132 3986,1132 3987,1133 4012,1133 4013,1134 4025,1134 4026,1133 4085,1133 4086,1132 4109,1132 4110,1133 4125,1133 4126,1134 4138,1134 4139,1135 4147,1135 4148,1134 4187,1134 4188,1135 4192,1135 4193,1134 4246,1134 4247,1133 4253,1133 4254,1134 4280,1134 4281,1133 4287,1133 4288,1134 4290,1134 4291,1135 4294,1135 4295,1136 4317,1136 4318,1135 4328,1135 4329,1136 4339,1136 4340,1137 4351,1137 4352,1136 4382,1136 4383,1137 4402,1137 4403,1136 4404,1137 4411,1137 4412,1138 4436,1138 4437,1137 4445,1137 4446,1138 4460,1138 4461,1137 4467,1137 4468,1138 4494,1138 4495,1139 4504,1139 4505,1140 4529,1140 4530,1141 4550,1141 4551,1140 4578,1140 4579,1139 4587,1139 4588,1138 4591,1138 4592,1137 4593,1137 4595,1135 4595,1134 4597,1132 4597,1130 4598,1129 4598,1124 4599,1123 4599,1118 4600,1117 4600,1111 4599,1110 4599,1094 4600,1093 4600,1090 4599,1089 4599,1070 4600,1069 4600,1063 4599,1062 4599,1051 4600,1050 4600,1038 4599,1037 4599,1020 4600,1019 4600,998 4601,997 4601,995 4600,994 4600,964 4599,963 4599,958 4600,957 4600,951 4601,950 4601,944 4600,943 4600,937 4599,936 4599,933 4600,932 4600,921 4599,920 4599,907 4600,906 4600,903 4601,902 4601,899 4600,898 4600,895 4599,894 4599,891 4598,890 4598,885 4599,884 4599,880 4600,879 4600,874 4599,873 4599,868 4598,867 4598,863 4599,862 4599,860 4600,859 4600,857 4601,856 4601,853 4602,852 4602,851 4601,850 4601,848 4600,847 4600,843 4599,842 4599,839 4600,838 4600,834 4601,833 4601,824 4600,823 4600,818 4599,817 4599,815 4598,814 4598,812 4597,811 4597,810 4596,809 4596,808 4594,806 4593,806 4592,805 4591,805 4590,804 4587,804 4586,803 4579,803 4578,802 4541,802 4540,801 4531,801 4530,802 4520,802 4519,801 4467,801 4466,800 4463,800 4462,801 4445,801 4444,800 4434,800 4433,801 4423,801 4422,800 4388,800 4387,801 4384,801 4383,802 4378,802 4377,801 4373,801 4372,800 4353,800 4352,799 4347,799 4346,798 4344,798 4343,799 4340,799 4339,800 4336,800 4335,801 4331,801 4330,800 4327,800 4326,799 4305,799 4304,798 4300,798 4299,797 4295,797 4294,798 4291,798 4290,799 4279,799 4278,798 4272,798 4271,799 4268,799 4267,800 4264,800 4263,801 4260,801 4259,800 4257,800 4256,799 4255,799 4254,798 4253,798 4252,797 4251,797 4250,796 4246,796 4245,797 4231,797 4230,796 4218,796 4217,797 4212,797 4211,796 4205,796 4204,795 4197,795 4196,796 4186,796 4185,795 4172,795 4171,796 4162,796 4161,795 4156,795 4155,794 4144,794 4143,793 4135,793 4134,792 4129,792 4128,793 4125,793 4124,794 4121,794 4120,795 4110,795 4109,794 4108,794 4107,795 4105,795 4104,796 4102,796 4101,797 4097,797 4096,798 4092,798 4091,797 4062,797 4061,796 4051,796 4050,797 4043,797 4042,796 4031,796 4030,797 4016,797 4015,796 4005,796 4004,797 3984,797 3983,798 3980,798 3979,799 3972,799 3971,798 3968,798 3967,797 3965,797 3964,796 3958,796 3957,797 3943,797 3942,796 3937,796 3936,797 3927,797 3926,798 3924,798 3923,797 3913,797 3912,796 3909,796 3908,795 3901,795 3900,794 3883,794 3882,795 3879,795 3878,794 3848,794 3847,793 3836,793 3835,792 3825,792 3824,791 3815,791 3814,790 3800,790 3799,791 3786,791 3785,792 3768,792 3767,791 3738,791 3737,792 3733,792 3732,791 3720,791 3719,790 3691,790 3690,789 3686,789 3685,790 3674,790 3673,789 3660,789 3659,790 3655,790 3654,791 3624,791 3623,790 3609,790 3608,791 3576,791 3575,790 3565,790 3564,791 3561,791 3560,792 3556,792 3555,791 3552,791 3551,790 3508,790 3507,789 3489,789 3488,790 3479,790 3478,789 3472,789 3471,790 3459,790 3458,789 3452,789 3451,788 3447,788 3446,789 3428,789 3427,788" fill="rgba(207,14,189,0.3)" stroke="rgb(207,14,189)" stroke-width="2" data-block-id="0009" data-name="b-0019" /><text x="4081" y="922" text-anchor="middle" dominant-baseline="middle" class="block-label" fill="rgb(207,14,189)" stroke="white" stroke-width="3" paint-order="stroke">b-0019</text><polygon points="902,785 901,786 824,786 823,787 812,787 811,786 801,786 800,787 787,787 786,786 765,786 764,787 755,787 754,788 751,788 750,789 748,789 747,790 746,790 744,792 744,794 743,795 743,804 742,805 742,814 741,815 741,818 742,819 742,826 743,827 743,830 742,831 742,834 741,835 741,854 742,855 742,858 743,859 743,861 744,862 744,879 743,880 743,886 742,887 742,904 741,905 741,933 740,934 740,960 741,961 741,993 740,994 740,996 741,997 741,1014 742,1015 742,1022 741,1023 741,1029 740,1030 740,1041 741,1042 741,1053 742,1054 742,1077 743,1078 743,1080 742,1081 742,1097 743,1098 743,1115 744,1116 744,1117 745,1117 747,1119 749,1119 750,1120 753,1120 754,1121 756,1121 757,1122 759,1122 760,1123 762,1123 763,1124 766,1124 767,1125 808,1125 809,1126 827,1126 828,1125 831,1125 832,1126 843,1126 844,1127 851,1127 852,1128 855,1128 856,1127 861,1127 862,1126 869,1126 870,1125 885,1125 886,1124 905,1124 906,1125 929,1125 930,1126 952,1126 953,1125 958,1125 959,1124 971,1124 972,1125 984,1125 985,1126 1001,1126 1002,1125 1013,1125 1014,1124 1028,1124 1029,1125 1042,1125 1043,1124 1134,1124 1135,1125 1183,1125 1184,1126 1188,1126 1189,1125 1194,1125 1195,1124 1216,1124 1217,1123 1277,1123 1278,1124 1287,1124 1288,1123 1327,1123 1328,1124 1330,1124 1331,1123 1411,1123 1412,1122 1415,1122 1416,1123 1473,1123 1474,1124 1494,1124 1495,1123 1537,1123 1538,1124 1565,1124 1566,1125 1570,1125 1571,1124 1577,1124 1578,1123 1609,1123 1610,1124 1652,1124 1653,1125 1669,1125 1670,1124 1702,1124 1703,1125 1753,1125 1754,1126 1760,1126 1761,1127 1787,1127 1788,1126 1811,1126 1812,1125 1854,1125 1855,1124 1923,1124 1924,1123 1928,1123 1929,1122 1930,1122 1935,1117 1935,1115 1936,1114 1936,1095 1935,1094 1935,1069 1936,1068 1936,1067 1935,1066 1935,1025 1936,1024 1936,1012 1935,1011 1935,975 1936,974 1936,970 1935,969 1935,938 1936,937 1936,915 1935,914 1935,879 1936,878 1936,872 1935,871 1935,854 1936,853 1936,821 1935,820 1935,800 1934,799 1934,796 1933,795 1933,793 1931,791 1931,790 1930,789 1929,789 1928,788 1913,788 1912,787 1872,787 1871,786 1837,786 1836,787 1792,787 1791,788 1787,788 1786,789 1779,789 1778,788 1618,788 1617,789 1478,789 1477,790 1468,790 1467,789 1453,789 1452,790 1450,790 1449,789 1437,789 1436,788 1426,788 1425,787 1412,787 1411,786 1405,786 1404,785 1398,785 1397,786 1383,786 1382,785 1373,785 1372,786 1365,786 1364,785 1276,785 1275,786 1263,786 1262,785 1228,785 1227,786 1192,786 1191,787 1154,787 1153,788 1073,788 1072,789 1061,789 1060,788 1034,788 1033,789 1032,789 1031,788 1009,788 1008,787 1000,787 999,786 967,786 966,787 958,787 957,786 951,786 950,785 945,785 944,786 903,786" fill="rgba(189,174,189,0.3)" stroke="rgb(189,174,189)" stroke-width="2" data-block-id="0010" data-name="b-0020" /><text x="1226" y="961" text-anchor="middle" dominant-baseline="middle" class="block-label" fill="rgb(189,174,189)" stroke="white" stroke-width="3" paint-order="stroke">b-0020</text><polygon points="2909,1690 2908,1691 2901,1691 2900,1692 2892,1692 2891,1693 2845,1693 2844,1694 2833,1694 2832,1693 2826,1693 2825,1694 2787,1694 2786,1693 2750,1693 2749,1694 2710,1694 2709,1693 2708,1693 2707,1694 2696,1694 2695,1693 2666,1693 2665,1692 2659,1692 2658,1693 2643,1693 2642,1694 2426,1694 2425,1693 2390,1693 2389,1694 2383,1694 2382,1693 2345,1693 2344,1694 2334,1694 2333,1693 2311,1693 2310,1694 2293,1694 2292,1693 2285,1693 2284,1692 2278,1692 2277,1693 2252,1693 2251,1694 2242,1694 2241,1693 2226,1693 2225,1694 2215,1694 2214,1695 2164,1695 2163,1696 2125,1696 2124,1697 2123,1697 2120,1700 2120,1701 2119,1702 2119,1705 2118,1706 2118,1793 2119,1794 2119,1803 2118,1804 2118,1814 2119,1815 2119,1873 2120,1874 2120,1887 2119,1888 2119,1900 2120,1901 2120,2030 2121,2031 2121,2033 2122,2034 2122,2035 2124,2037 2125,2037 2126,2038 2156,2038 2157,2039 2183,2039 2184,2038 2206,2038 2207,2039 2242,2039 2243,2038 2246,2038 2247,2039 2280,2039 2281,2038 2299,2038 2300,2039 2329,2039 2330,2038 2349,2038 2350,2039 2374,2039 2375,2038 2402,2038 2403,2039 2421,2039 2422,2038 2450,2038 2451,2039 2466,2039 2467,2038 2476,2038 2477,2037 2489,2037 2490,2038 2525,2038 2526,2037 2538,2037 2539,2038 2570,2038 2571,2037 2634,2037 2635,2038 2657,2038 2658,2037 2667,2037 2668,2038 2719,2038 2720,2037 2726,2037 2727,2038 2820,2038 2821,2039 2837,2039 2838,2038 2878,2038 2879,2039 2931,2039 2932,2038 3170,2038 3171,2039 3183,2039 3184,2038 3220,2038 3221,2039 3234,2039 3235,2038 3238,2038 3239,2037 3240,2037 3243,2034 3243,2033 3244,2032 3244,2029 3245,2028 3245,1959 3246,1958 3246,1952 3245,1951 3245,1911 3246,1910 3246,1905 3245,1904 3245,1897 3244,1896 3244,1892 3245,1891 3245,1841 3246,1840 3246,1813 3247,1812 3246,1811 3246,1802 3245,1801 3245,1782 3246,1781 3246,1760 3245,1759 3245,1701 3244,1700 3244,1699 3243,1698 3243,1697 3242,1696 3241,1696 3240,1695 3239,1695 3238,1694 3188,1694 3187,1693 3184,1693 3183,1694 3166,1694 3165,1695 3164,1694 3157,1694 3156,1693 3131,1693 3130,1694 3116,1694 3115,1693 3057,1693 3056,1692 3054,1692 3053,1693 2924,1693 2923,1692 2921,1692 2920,1691 2916,1691 2915,1690" fill="rgba(50,107,54,0.3)" stroke="rgb(50,107,54)" stroke-width="2" data-block-id="0011" data-name="b-0021" /><text x="2690" y="1850" text-anchor="middle" dominant-baseline="middle" class="block-label" fill="rgb(50,107,54)" stroke="white" stroke-width="3" paint-order="stroke">b-0021</text><polygon points="2439,1238 2438,1239 2294,1239 2293,1240 2264,1240 2263,1239 2249,1239 2248,1240 2237,1240 2236,1239 2175,1239 2174,1240 2137,1240 2136,1241 2129,1241 2128,1242 2125,1242 2121,1246 2121,1247 2120,1248 2120,1267 2119,1268 2119,1315 2118,1316 2118,1458 2119,1459 2119,1485 2118,1486 2118,1490 2119,1491 2119,1543 2120,1544 2120,1573 2121,1574 2121,1575 2124,1578 2126,1578 2127,1579 2131,1579 2132,1580 2153,1580 2154,1581 2196,1581 2197,1580 2254,1580 2255,1581 2263,1581 2264,1580 2268,1580 2269,1581 2286,1581 2287,1580 2299,1580 2300,1581 2307,1581 2308,1580 2407,1580 2408,1579 2415,1579 2416,1580 2574,1580 2575,1579 2600,1579 2601,1580 2705,1580 2706,1581 2740,1581 2741,1580 2751,1580 2752,1581 2770,1581 2771,1580 2793,1580 2794,1581 2884,1581 2885,1580 2897,1580 2898,1581 2904,1581 2905,1580 2932,1580 2933,1581 3109,1581 3110,1580 3114,1580 3115,1579 3119,1579 3120,1580 3150,1580 3151,1581 3155,1581 3156,1580 3184,1580 3185,1581 3209,1581 3210,1580 3225,1580 3226,1581 3234,1581 3235,1580 3238,1580 3239,1579 3240,1579 3243,1576 3243,1575 3244,1574 3244,1547 3245,1546 3245,1504 3244,1503 3244,1499 3245,1498 3245,1352 3246,1351 3246,1331 3245,1330 3245,1248 3244,1247 3244,1245 3240,1241 3237,1241 3236,1240 3188,1240 3187,1241 3185,1241 3184,1240 3141,1240 3140,1241 3137,1241 3136,1240 3066,1240 3065,1239 3038,1239 3037,1240 3031,1240 3030,1239 3001,1239 3000,1240 2922,1240 2921,1239 2881,1239 2880,1240 2868,1240 2867,1239 2850,1239 2849,1240 2833,1240 2832,1239 2759,1239 2758,1240 2748,1240 2747,1241 2746,1241 2745,1240 2739,1240 2738,1239 2728,1239 2727,1240 2689,1240 2688,1239 2669,1239 2668,1240 2652,1240 2651,1239 2605,1239 2604,1240 2602,1240 2601,1239 2577,1239 2576,1238 2549,1238 2548,1239 2458,1239 2457,1238" fill="rgba(243,63,248,0.3)" stroke="rgb(243,63,248)" stroke-width="2" data-block-id="0012" data-name="b-0022" /><text x="2696" y="1409" text-anchor="middle" dominant-baseline="middle" class="block-label" fill="rgb(243,63,248)" stroke="white" stroke-width="3" paint-order="stroke">b-0022</text><polygon points="2630,780 2629,781 2610,781 2609,782 2600,782 2599,783 2584,783 2583,784 2572,784 2571,783 2564,783 2563,784 2551,784 2550,783 2543,783 2542,782 2541,783 2534,783 2533,784 2521,784 2520,785 2517,785 2516,786 2513,786 2512,787 2510,787 2509,788 2501,788 2500,787 2431,787 2430,788 2416,788 2415,787 2390,787 2389,788 2387,788 2386,787 2354,787 2353,788 2327,788 2326,787 2299,787 2298,788 2290,788 2289,787 2284,787 2283,786 2273,786 2272,787 2266,787 2265,786 2254,786 2253,787 2249,787 2248,788 2243,788 2242,787 2239,787 2238,786 2235,786 2234,785 2227,785 2226,786 2216,786 2215,785 2203,785 2202,786 2189,786 2188,785 2182,785 2181,786 2138,786 2137,787 2130,787 2129,788 2126,788 2125,789 2124,789 2123,790 2123,791 2122,792 2122,793 2121,794 2121,831 2120,832 2120,861 2121,862 2121,867 2120,868 2120,885 2121,886 2121,891 2120,892 2120,955 2121,956 2121,965 2120,966 2120,979 2121,980 2121,1060 2122,1061 2122,1075 2121,1076 2121,1111 2120,1112 2120,1114 2121,1115 2121,1117 2122,1118 2122,1119 2124,1121 2124,1122 2125,1122 2126,1123 2127,1123 2128,1124 2136,1124 2137,1125 2143,1125 2144,1126 2149,1126 2150,1127 2166,1127 2167,1126 2246,1126 2247,1127 2260,1127 2261,1126 2290,1126 2291,1125 2292,1125 2293,1126 2300,1126 2301,1127 2307,1127 2308,1126 2314,1126 2315,1125 2333,1125 2334,1124 2348,1124 2349,1125 2392,1125 2393,1126 2408,1126 2409,1125 2447,1125 2448,1126 2478,1126 2479,1125 2488,1125 2489,1126 2533,1126 2534,1127 2551,1127 2552,1126 2589,1126 2590,1127 2694,1127 2695,1126 2730,1126 2731,1127 2736,1127 2737,1126 2751,1126 2752,1127 2765,1127 2766,1126 2773,1126 2774,1127 2790,1127 2791,1126 2797,1126 2798,1127 2835,1127 2836,1126 2842,1126 2843,1125 2844,1126 2862,1126 2863,1125 2870,1125 2871,1126 2906,1126 2907,1125 2918,1125 2919,1126 2928,1126 2929,1125 2954,1125 2955,1124 2965,1124 2966,1125 3025,1125 3026,1126 3055,1126 3056,1125 3058,1125 3059,1126 3143,1126 3144,1127 3168,1127 3169,1128 3237,1128 3238,1127 3239,1127 3245,1121 3245,1120 3247,1118 3247,1117 3248,1116 3248,1107 3247,1106 3247,1085 3246,1084 3246,1075 3247,1074 3247,1060 3246,1059 3246,1045 3245,1044 3245,983 3246,982 3246,978 3247,977 3247,972 3248,971 3248,959 3249,958 3249,956 3250,955 3250,953 3251,952 3251,950 3252,949 3252,945 3251,944 3251,938 3250,937 3250,936 3251,935 3251,932 3252,931 3252,928 3253,927 3253,920 3252,919 3252,915 3251,914 3251,911 3252,910 3252,908 3253,907 3253,905 3254,904 3254,902 3255,901 3255,888 3254,887 3254,886 3253,885 3253,883 3252,882 3252,877 3251,876 3251,873 3250,872 3250,869 3249,868 3249,858 3250,857 3250,845 3249,844 3249,840 3250,839 3250,834 3251,833 3251,821 3250,820 3250,806 3249,805 3249,801 3248,800 3248,798 3247,797 3247,794 3245,792 3245,791 3244,791 3242,789 3241,789 3240,788 3238,788 3237,787 3174,787 3173,788 3167,788 3166,789 3161,789 3160,788 3144,788 3143,789 3121,789 3120,788 3093,788 3092,789 3078,789 3077,788 3071,788 3070,787 3061,787 3060,788 2995,788 2994,789 2979,789 2978,788 2948,788 2947,787 2929,787 2928,786 2921,786 2920,787 2901,787 2900,786 2869,786 2868,787 2863,787 2862,786 2747,786 2746,785 2738,785 2737,784 2718,784 2717,783 2714,783 2713,782 2710,782 2709,781 2705,781 2704,782 2648,782 2647,781 2644,781 2643,780" fill="rgba(130,228,50,0.3)" stroke="rgb(130,228,50)" stroke-width="2" data-block-id="0013" data-name="b-0023" /><text x="2719" y="930" text-anchor="middle" dominant-baseline="middle" class="block-label" fill="rgb(130,228,50)" stroke="white" stroke-width="3" paint-order="stroke">b-0023</text><polygon points="2164,328 2163,329 2128,329 2127,330 2126,330 2125,331 2124,331 2124,332 2123,333 2123,334 2122,335 2122,336 2121,337 2121,371 2120,372 2120,384 2121,385 2121,453 2122,454 2122,465 2121,466 2121,472 2122,473 2122,504 2123,505 2123,523 2122,524 2122,543 2123,544 2123,559 2122,560 2122,583 2123,584 2123,612 2122,613 2122,617 2123,618 2123,647 2124,648 2124,663 2127,666 2129,666 2130,667 2134,667 2135,668 2172,668 2173,669 2212,669 2213,670 2250,670 2251,669 2265,669 2266,670 2272,670 2273,669 2288,669 2289,670 2311,670 2312,669 2360,669 2361,670 2378,670 2379,669 2415,669 2416,670 2427,670 2428,669 2433,669 2434,668 2438,668 2439,669 2443,669 2444,670 2480,670 2481,669 2483,669 2484,670 2504,670 2505,669 2512,669 2513,670 2525,670 2526,671 2553,671 2554,670 2556,670 2557,671 2672,671 2673,670 2676,670 2677,671 2740,671 2741,670 2751,670 2752,671 2767,671 2768,670 2772,670 2773,671 2792,671 2793,670 2802,670 2803,669 2807,669 2808,670 2873,670 2874,669 2881,669 2882,670 2958,670 2959,669 2960,670 2965,670 2966,671 2973,671 2974,672 2975,672 2976,671 3000,671 3001,672 3135,672 3136,671 3169,671 3170,670 3190,670 3191,671 3198,671 3199,672 3201,672 3202,671 3239,671 3240,670 3241,670 3242,669 3243,669 3247,665 3247,664 3248,663 3248,653 3249,652 3249,647 3248,646 3248,632 3249,631 3249,622 3248,621 3248,547 3247,546 3247,535 3248,534 3248,511 3247,510 3247,505 3248,504 3248,457 3249,456 3249,378 3248,377 3248,371 3249,370 3249,341 3248,340 3248,337 3247,336 3247,335 3244,332 3242,332 3241,331 3239,331 3238,330 3198,330 3196,332 3195,332 3194,333 3193,333 3192,334 3191,334 3189,336 3186,336 3185,335 3184,335 3182,333 3180,333 3179,332 3178,332 3177,331 3160,331 3159,332 3125,332 3124,333 3082,333 3081,334 3054,334 3053,333 3045,333 3044,332 2963,332 2962,331 2937,331 2936,330 2918,330 2917,331 2905,331 2904,330 2861,330 2860,331 2798,331 2797,330 2791,330 2790,331 2771,331 2770,330 2748,330 2747,331 2682,331 2681,332 2672,332 2671,333 2658,333 2657,334 2648,334 2647,335 2637,335 2636,336 2631,336 2630,337 2626,337 2625,338 2615,338 2614,339 2600,339 2599,338 2587,338 2586,337 2579,337 2578,336 2575,336 2574,335 2572,335 2571,334 2569,334 2568,333 2566,333 2565,332 2562,332 2561,331 2556,331 2555,330 2552,330 2551,331 2538,331 2537,332 2530,332 2529,331 2525,331 2524,330 2494,330 2493,331 2462,331 2461,332 2452,332 2451,333 2432,333 2431,332 2402,332 2401,333 2397,333 2396,332 2375,332 2374,331 2341,331 2340,330 2279,330 2278,329 2262,329 2261,330 2248,330 2247,329 2228,329 2227,328" fill="rgba(134,20,72,0.3)" stroke="rgb(134,20,72)" stroke-width="2" data-block-id="0014" data-name="b-0024" /><text x="2680" y="484" text-anchor="middle" dominant-baseline="middle" class="block-label" fill="rgb(134,20,72)" stroke="white" stroke-width="3" paint-order="stroke">b-0024</text><polygon points="1806,2150 1805,2151 1748,2151 1747,2152 1742,2152 1741,2151 1738,2151 1737,2152 1704,2152 1703,2153 1698,2153 1697,2154 1694,2154 1693,2155 1690,2155 1689,2156 1680,2156 1679,2157 1633,2157 1632,2158 1569,2158 1568,2157 1567,2158 1493,2158 1492,2157 1486,2157 1485,2156 1484,2156 1483,2155 1482,2155 1481,2154 1479,2154 1478,2153 1453,2153 1452,2152 1447,2152 1446,2153 1434,2153 1433,2152 1411,2152 1410,2153 1405,2153 1404,2154 1401,2154 1400,2155 1397,2155 1396,2156 1385,2156 1384,2155 1382,2155 1381,2154 1375,2154 1374,2153 1363,2153 1362,2152 1357,2152 1356,2151 1347,2151 1346,2152 1339,2152 1338,2151 1300,2151 1299,2152 1287,2152 1286,2151 1245,2151 1244,2152 1219,2152 1218,2151 1210,2151 1209,2152 1166,2152 1165,2153 1156,2153 1155,2154 1151,2154 1150,2155 1149,2155 1146,2158 1146,2159 1145,2160 1145,2163 1144,2164 1144,2192 1145,2193 1145,2200 1144,2201 1144,2203 1145,2204 1145,2213 1146,2214 1146,2232 1147,2233 1147,2284 1148,2285 1148,2297 1147,2298 1147,2308 1148,2309 1148,2313 1147,2314 1147,2336 1148,2337 1148,2338 1147,2339 1147,2367 1146,2368 1146,2416 1145,2417 1145,2425 1146,2426 1146,2437 1145,2438 1145,2450 1146,2451 1146,2462 1145,2463 1145,2475 1146,2476 1146,2494 1147,2495 1147,2519 1148,2520 1148,2526 1149,2527 1149,2528 1152,2531 1153,2531 1154,2532 1156,2532 1157,2533 1188,2533 1189,2534 1190,2533 1202,2533 1203,2534 1218,2534 1219,2533 1231,2533 1232,2534 1243,2534 1244,2533 1247,2533 1248,2534 1299,2534 1300,2535 1311,2535 1312,2534 1316,2534 1317,2533 1321,2533 1322,2534 1341,2534 1342,2535 1360,2535 1361,2534 1383,2534 1384,2533 1388,2533 1389,2532 1394,2532 1395,2531 1399,2531 1400,2530 1402,2530 1403,2529 1407,2529 1408,2528 1412,2528 1413,2527 1420,2527 1421,2526 1428,2526 1429,2525 1432,2525 1433,2524 1437,2524 1438,2523 1447,2523 1448,2524 1450,2524 1451,2523 1478,2523 1479,2522 1531,2522 1532,2521 1533,2521 1534,2522 1545,2522 1546,2523 1555,2523 1556,2524 1566,2524 1567,2525 1577,2525 1578,2526 1601,2526 1602,2527 1630,2527 1631,2526 1633,2526 1634,2525 1636,2525 1637,2524 1639,2524 1640,2523 1650,2523 1651,2522 1659,2522 1660,2523 1666,2523 1667,2522 1761,2522 1762,2523 1769,2523 1770,2524 1784,2524 1785,2525 1786,2525 1787,2526 1788,2526 1789,2527 1790,2527 1791,2528 1793,2528 1794,2529 1807,2529 1808,2530 1903,2530 1904,2529 1926,2529 1927,2528 1929,2528 1931,2526 1932,2526 1932,2524 1933,2523 1933,2520 1934,2519 1934,2393 1935,2392 1935,2318 1934,2317 1934,2311 1935,2310 1935,2222 1934,2221 1934,2212 1935,2211 1935,2167 1934,2166 1934,2159 1933,2158 1933,2156 1932,2155 1932,2154 1930,2152 1929,2152 1928,2151 1858,2151 1857,2150 1834,2150 1833,2151 1810,2151 1809,2150" fill="rgba(166,17,131,0.3)" stroke="rgb(166,17,131)" stroke-width="2" data-block-id="0015" data-name="b-0025" /><text x="1471" y="2352" text-anchor="middle" dominant-baseline="middle" class="block-label" fill="rgb(166,17,131)" stroke="white" stroke-width="3" paint-order="stroke">b-0025</text><polygon points="1134,1686 1129,2056 1955,2055 1949,1682" fill="rgba(102,179,92,0.3)" stroke="rgb(102,179,92)" stroke-width="2" data-block-id="0016" data-name="b-0042" /><text x="1541" y="1869" text-anchor="middle" dominant-baseline="middle" class="block-label" fill="rgb(102,179,92)" stroke="white" stroke-width="3" paint-order="stroke">b-0042</text><polygon points="1133,2143 1139,2552 1956,2545 1954,2137" fill="rgba(102,179,92,0.3)" stroke="rgb(102,179,92)" stroke-width="2" data-block-id="0017" data-name="b-0043" /><text x="1545" y="2344" text-anchor="middle" dominant-baseline="middle" class="block-label" fill="rgb(102,179,92)" stroke="white" stroke-width="3" paint-order="stroke">b-0043</text><polygon points="2103,2137 2098,2544 3258,2538 3261,2131" fill="rgba(102,179,92,0.3)" stroke="rgb(102,179,92)" stroke-width="2" data-block-id="0018" data-name="b-0039" /><text x="2680" y="2337" text-anchor="middle" dominant-baseline="middle" class="block-label" fill="rgb(102,179,92)" stroke="white" stroke-width="3" paint-order="stroke">b-0039</text><polygon points="3380,3035 3378,2626 4612,2627 4617,3026" fill="rgba(102,179,92,0.3)" stroke="rgb(102,179,92)" stroke-width="2" data-block-id="0019" data-name="b-0022" /><text x="3996" y="2828" text-anchor="middle" dominant-baseline="middle" class="block-label" fill="rgb(102,179,92)" stroke="white" stroke-width="3" paint-order="stroke">b-0022</text></g>
</svg>