<?xml version='1.0' encoding='utf-8'?>
<svg xmlns="http://www.w3.org/2000/svg" xmlns:atlas="http://example.com/atlas" width="4984" height="3288" viewBox="0 0 4984 3288">
  
  <metadata>
    <atlas:source>
      <atlas:jp2-path>/Users/pwright/workspace/atlas/media/v2/p18.jp2</atlas:jp2-path>
      <atlas:volume>unknown</atlas:volume>
      <atlas:plate-id>p18</atlas:plate-id>
      <atlas:image-width>4984</atlas:image-width>
      <atlas:image-height>3288</atlas:image-height>
    <atlas:angle>-90</atlas:angle><atlas:scale>1.3333333333333333</atlas:scale><atlas:pos-x>581.6414323093172</atlas:pos-x><atlas:pos-y>1793.791712347382</atlas:pos-y></atlas:source>
  </metadata>

  
  <image id="background" href="file:///Users/pwright/workspace/atlas/media/v2/p18.jp2" width="4984" height="3288" opacity="0.5" />

  <style>
    .block-label { font-family: sans-serif; font-size: 14px; font-weight: bold; }
  </style>

  
  <g id="blocks">
    <polygon points="2615,2535 2614,2536 2614,2537 2611,2540 2611,2541 2610,2542 2610,2543 2609,2544 2609,2547 2608,2548 2608,2549 2606,2551 2605,2551 2603,2553 2602,2553 2600,2555 2599,2555 2598,2556 2596,2556 2595,2557 2590,2557 2589,2558 2587,2558 2586,2559 2584,2559 2583,2560 2582,2560 2581,2559 2580,2559 2579,2558 2578,2558 2572,2552 2572,2551 2571,2550 2571,2549 2570,2548 2568,2548 2562,2554 2561,2554 2559,2556 2559,2558 2558,2559 2558,2563 2557,2564 2557,2572 2556,2573 2556,2580 2555,2581 2555,2583 2554,2584 2554,2587 2553,2588 2553,2595 2552,2596 2552,2605 2553,2606 2553,2612 2554,2613 2553,2614 2553,2622 2552,2623 2552,2641 2551,2642 2551,2658 2552,2659 2552,2666 2551,2667 2551,2682 2552,2683 2552,2689 2551,2690 2551,2710 2552,2711 2552,2718 2553,2719 2553,2723 2552,2724 2552,2731 2551,2732 2551,2734 2552,2735 2552,2753 2551,2754 2551,2768 2552,2769 2552,2771 2551,2772 2551,2787 2552,2788 2552,2797 2551,2798 2551,2807 2552,2808 2552,2824 2551,2825 2551,2843 2550,2844 2550,2850 2549,2851 2549,2855 2550,2856 2550,2882 2551,2883 2551,2950 2552,2951 2552,2952 2553,2953 2553,2954 2554,2955 2554,2956 2556,2958 2557,2958 2558,2959 2559,2959 2560,2960 2562,2960 2563,2961 2565,2961 2566,2962 2572,2962 2573,2961 2574,2961 2575,2960 2576,2960 2577,2959 2578,2959 2579,2958 2581,2958 2582,2957 2598,2957 2599,2956 2619,2956 2620,2955 2625,2955 2626,2954 2639,2954 2640,2953 2648,2953 2649,2952 2656,2952 2657,2951 2663,2951 2664,2950 2686,2950 2687,2951 2695,2951 2696,2952 2704,2952 2705,2953 2712,2953 2713,2954 2715,2954 2716,2955 2718,2955 2723,2960 2725,2960 2728,2957 2728,2956 2731,2953 2732,2953 2733,2952 2734,2952 2735,2951 2742,2951 2743,2952 2760,2952 2761,2953 2764,2953 2765,2954 2767,2954 2768,2955 2771,2955 2772,2956 2797,2956 2798,2957 2834,2957 2835,2958 2851,2958 2852,2959 2873,2959 2874,2958 2879,2958 2880,2957 2882,2957 2886,2953 2886,2952 2887,2951 2887,2906 2888,2905 2888,2897 2887,2896 2887,2877 2888,2876 2888,2870 2887,2869 2887,2866 2888,2865 2888,2846 2887,2845 2887,2834 2888,2833 2888,2827 2887,2826 2887,2823 2886,2822 2886,2820 2885,2819 2885,2811 2886,2810 2886,2802 2887,2801 2887,2780 2886,2779 2886,2761 2887,2760 2887,2755 2886,2754 2886,2746 2885,2745 2885,2732 2886,2731 2886,2716 2887,2715 2887,2710 2886,2709 2886,2703 2885,2702 2885,2698 2884,2697 2884,2677 2885,2676 2885,2658 2884,2657 2884,2633 2885,2632 2885,2617 2886,2616 2886,2614 2885,2613 2885,2594 2886,2593 2886,2590 2885,2589 2885,2587 2884,2586 2884,2584 2883,2583 2883,2582 2882,2581 2882,2580 2881,2579 2881,2578 2878,2575 2878,2574 2876,2574 2875,2573 2871,2573 2870,2572 2861,2572 2860,2573 2837,2573 2836,2572 2813,2572 2812,2573 2807,2573 2806,2572 2805,2572 2804,2571 2803,2571 2802,2570 2800,2570 2799,2569 2797,2569 2796,2568 2794,2568 2793,2567 2791,2567 2790,2566 2787,2566 2786,2565 2785,2565 2784,2564 2782,2564 2781,2563 2778,2563 2777,2562 2772,2562 2771,2561 2748,2561 2747,2562 2746,2562 2745,2563 2744,2563 2739,2568 2738,2568 2737,2569 2734,2569 2733,2568 2732,2568 2731,2567 2730,2567 2729,2566 2728,2566 2727,2565 2725,2565 2724,2564 2722,2564 2721,2563 2718,2563 2717,2562 2714,2562 2713,2561 2703,2561 2702,2560 2701,2561 2699,2561 2698,2562 2697,2562 2696,2563 2695,2563 2694,2564 2693,2564 2692,2565 2691,2565 2690,2566 2685,2566 2684,2565 2680,2565 2679,2564 2676,2564 2674,2562 2673,2562 2671,2560 2670,2560 2667,2557 2666,2557 2664,2555 2663,2555 2662,2556 2661,2556 2660,2557 2656,2557 2655,2558 2649,2558 2648,2557 2645,2557 2644,2556 2643,2556 2642,2555 2640,2555 2638,2557 2637,2557 2636,2558 2635,2558 2634,2559 2633,2559 2631,2561 2628,2561 2626,2559 2625,2559 2623,2557 2622,2557 2620,2555 2620,2554 2619,2553 2620,2552 2620,2551 2621,2550 2621,2547 2622,2546 2622,2541 2621,2540 2621,2538 2620,2537 2620,2536 2619,2535" fill="rgba(207,14,189,0.3)" stroke="rgb(207,14,189)" stroke-width="2" data-block-id="0001" data-name="b-0016" /><text x="2697" y="2701" text-anchor="middle" dominant-baseline="middle" class="block-label" fill="rgb(207,14,189)" stroke="white" stroke-width="3" paint-order="stroke">b-0016</text><polygon points="2580,1489 2579,1490 2572,1490 2571,1491 2567,1491 2566,1492 2565,1492 2562,1495 2562,1497 2561,1498 2561,1500 2560,1501 2560,1503 2559,1504 2559,1511 2558,1512 2558,1527 2557,1528 2557,1533 2558,1534 2558,1547 2557,1548 2557,1610 2556,1611 2556,1636 2557,1637 2557,1638 2556,1639 2556,1683 2557,1684 2557,1688 2556,1689 2556,1991 2555,1992 2555,2022 2556,2023 2556,2031 2555,2032 2555,2181 2554,2182 2554,2216 2555,2217 2555,2221 2554,2222 2554,2324 2553,2325 2553,2498 2554,2499 2554,2510 2555,2511 2555,2513 2556,2514 2556,2515 2559,2518 2560,2518 2561,2519 2564,2519 2566,2521 2566,2525 2565,2526 2565,2527 2564,2528 2563,2528 2562,2529 2559,2529 2559,2532 2567,2532 2568,2531 2568,2528 2569,2527 2569,2526 2570,2525 2570,2524 2571,2523 2571,2521 2573,2519 2576,2519 2577,2518 2598,2518 2599,2517 2614,2517 2615,2518 2618,2518 2619,2517 2623,2517 2624,2516 2642,2516 2643,2515 2643,2514 2644,2513 2644,2512 2645,2511 2645,2509 2646,2508 2646,2505 2647,2504 2647,2496 2648,2495 2648,2476 2647,2475 2647,2399 2648,2398 2648,2362 2647,2361 2647,2349 2648,2348 2648,2314 2647,2313 2647,2302 2648,2301 2648,2226 2647,2225 2647,2130 2646,2129 2646,2107 2647,2106 2647,2082 2646,2081 2646,2068 2647,2067 2647,2034 2646,2033 2646,2017 2647,2016 2647,1987 2646,1986 2646,1964 2647,1963 2647,1939 2646,1938 2646,1923 2647,1922 2647,1893 2646,1892 2646,1861 2647,1860 2647,1847 2646,1846 2646,1815 2647,1814 2647,1800 2646,1799 2646,1700 2645,1699 2645,1686 2646,1685 2646,1618 2647,1617 2647,1610 2646,1609 2646,1534 2645,1533 2645,1524 2646,1523 2646,1511 2645,1510 2645,1500 2644,1499 2644,1495 2642,1493 2642,1492 2641,1492 2640,1491 2636,1491 2635,1490 2598,1490 2597,1489" fill="rgba(207,14,189,0.3)" stroke="rgb(207,14,189)" stroke-width="2" data-block-id="0002" data-name="b-0017" /><text x="2604" y="2042" text-anchor="middle" dominant-baseline="middle" class="block-label" fill="rgb(207,14,189)" stroke="white" stroke-width="3" paint-order="stroke">b-0017</text><polygon points="2237,2632 2236,2633 2232,2633 2231,2634 2229,2634 2228,2635 2227,2635 2223,2639 2223,2640 2222,2641 2222,2642 2221,2643 2221,2644 2220,2645 2220,2648 2219,2649 2219,2653 2218,2654 2218,2656 2217,2657 2217,2659 2216,2660 2216,2662 2215,2663 2215,2668 2214,2669 2214,2672 2213,2673 2213,2675 2212,2676 2212,2677 2211,2678 2211,2680 2210,2681 2210,2683 2209,2684 2209,2688 2208,2689 2208,2691 2207,2692 2207,2695 2206,2696 2206,2700 2205,2701 2205,2704 2204,2705 2204,2710 2203,2711 2203,2714 2202,2715 2202,2717 2201,2718 2201,2722 2200,2723 2200,2728 2199,2729 2199,2734 2198,2735 2198,2739 2197,2740 2197,2743 2196,2744 2196,2746 2195,2747 2195,2749 2194,2750 2194,2751 2193,2752 2193,2753 2192,2754 2192,2755 2191,2756 2191,2757 2190,2758 2190,2759 2189,2760 2189,2761 2188,2762 2188,2763 2185,2766 2184,2766 2182,2768 2181,2768 2180,2769 2179,2769 2178,2770 2176,2770 2175,2771 2174,2771 2173,2772 2172,2772 2170,2774 2169,2774 2167,2776 2167,2777 2165,2779 2165,2780 2159,2786 2159,2787 2158,2788 2158,2789 2157,2790 2157,2791 2156,2792 2156,2794 2155,2795 2155,2796 2154,2797 2154,2798 2153,2799 2153,2802 2152,2803 2152,2804 2151,2805 2151,2807 2150,2808 2150,2809 2149,2810 2149,2811 2148,2812 2148,2813 2147,2814 2147,2815 2145,2817 2145,2818 2140,2823 2139,2823 2133,2829 2133,2830 2132,2831 2132,2832 2131,2833 2131,2835 2130,2836 2130,2837 2129,2838 2129,2839 2128,2840 2128,2841 2127,2842 2127,2843 2126,2844 2126,2845 2125,2846 2125,2847 2124,2848 2124,2850 2123,2851 2123,2852 2122,2853 2122,2855 2121,2856 2121,2858 2120,2859 2120,2860 2119,2861 2119,2863 2117,2865 2117,2866 2113,2870 2112,2870 2110,2872 2109,2872 2107,2874 2106,2874 2105,2875 2105,2876 2102,2879 2102,2880 2100,2882 2100,2883 2098,2885 2098,2886 2089,2895 2089,2896 2085,2900 2085,2901 2084,2902 2084,2904 2083,2905 2083,2906 2082,2907 2082,2910 2081,2911 2081,2913 2080,2914 2080,2915 2079,2916 2079,2918 2078,2919 2078,2921 2077,2922 2077,2947 2078,2948 2078,2950 2079,2951 2079,2952 2080,2952 2082,2954 2083,2954 2084,2955 2086,2955 2087,2956 2089,2956 2090,2957 2094,2957 2095,2958 2112,2958 2113,2957 2135,2957 2136,2958 2146,2958 2147,2957 2156,2957 2157,2958 2183,2958 2184,2959 2191,2959 2192,2958 2218,2958 2219,2957 2229,2957 2230,2958 2244,2958 2245,2957 2249,2957 2250,2958 2265,2958 2266,2957 2279,2957 2280,2958 2287,2958 2288,2957 2305,2957 2306,2958 2309,2958 2310,2957 2324,2957 2325,2958 2358,2958 2359,2957 2374,2957 2375,2958 2383,2958 2384,2957 2398,2957 2399,2958 2406,2958 2407,2957 2429,2957 2430,2956 2431,2956 2434,2953 2434,2952 2435,2951 2435,2948 2436,2947 2436,2944 2435,2943 2435,2930 2436,2929 2436,2904 2437,2903 2437,2897 2436,2896 2436,2885 2437,2884 2437,2879 2438,2878 2438,2874 2437,2873 2437,2868 2436,2867 2436,2859 2437,2858 2437,2812 2438,2811 2438,2799 2437,2798 2437,2788 2438,2787 2438,2748 2437,2747 2437,2729 2436,2728 2436,2726 2435,2725 2435,2724 2433,2722 2433,2721 2432,2720 2433,2719 2433,2714 2434,2713 2434,2708 2433,2707 2433,2705 2432,2704 2432,2703 2431,2702 2431,2701 2429,2699 2429,2692 2430,2691 2430,2680 2429,2679 2429,2677 2428,2676 2428,2672 2429,2671 2429,2670 2430,2669 2430,2667 2431,2666 2431,2664 2432,2663 2432,2661 2431,2660 2431,2659 2429,2657 2429,2656 2428,2655 2425,2655 2423,2657 2423,2658 2421,2660 2421,2662 2420,2663 2421,2664 2421,2666 2422,2667 2422,2668 2423,2669 2423,2670 2424,2671 2424,2676 2423,2677 2423,2678 2422,2679 2422,2680 2421,2681 2421,2683 2420,2684 2420,2687 2421,2688 2421,2690 2422,2691 2422,2693 2423,2694 2423,2698 2422,2699 2422,2700 2419,2703 2419,2704 2418,2705 2418,2706 2417,2707 2417,2708 2415,2710 2415,2711 2414,2712 2414,2713 2413,2714 2409,2714 2408,2713 2407,2713 2406,2712 2405,2712 2404,2711 2402,2713 2401,2713 2401,2714 2400,2715 2399,2715 2397,2717 2394,2717 2393,2718 2390,2718 2389,2719 2387,2719 2386,2720 2385,2720 2384,2721 2372,2721 2371,2720 2369,2720 2368,2719 2366,2719 2361,2714 2361,2712 2360,2711 2360,2710 2359,2709 2359,2708 2358,2708 2356,2706 2351,2706 2350,2707 2349,2707 2348,2708 2347,2708 2346,2709 2344,2709 2343,2710 2339,2710 2338,2711 2333,2711 2332,2712 2331,2712 2327,2716 2326,2716 2325,2717 2324,2717 2323,2718 2319,2718 2318,2719 2315,2719 2314,2718 2307,2718 2306,2717 2304,2717 2303,2716 2301,2716 2300,2715 2294,2715 2293,2714 2290,2714 2289,2713 2288,2713 2287,2712 2287,2711 2286,2711 2285,2710 2283,2710 2282,2709 2270,2709 2269,2708 2266,2708 2265,2707 2263,2707 2260,2704 2260,2702 2259,2701 2259,2697 2258,2696 2258,2693 2259,2692 2259,2683 2260,2682 2260,2679 2261,2678 2261,2677 2262,2676 2262,2675 2263,2674 2263,2671 2264,2670 2264,2667 2265,2666 2265,2657 2264,2656 2264,2649 2263,2648 2263,2642 2262,2641 2262,2639 2259,2636 2258,2636 2257,2635 2256,2635 2255,2634 2254,2634 2253,2633 2252,2633 2251,2632" fill="rgba(243,63,248,0.3)" stroke="rgb(243,63,248)" stroke-width="2" data-block-id="0003" data-name="b-0020" /><text x="2269" y="2773" text-anchor="middle" dominant-baseline="middle" class="block-label" fill="rgb(243,63,248)" stroke="white" stroke-width="3" paint-order="stroke">b-0020</text><polygon points="2354,1488 2353,1489 2350,1489 2349,1490 2348,1490 2347,1491 2346,1491 2343,1494 2343,1495 2342,1496 2342,1497 2341,1498 2341,1501 2340,1502 2340,1510 2339,1511 2339,1527 2338,1528 2338,1535 2339,1536 2339,1547 2338,1548 2338,1573 2337,1574 2337,1609 2336,1610 2336,1786 2335,1787 2335,1899 2334,1900 2334,1919 2335,1920 2335,1931 2334,1932 2334,2004 2333,2005 2334,2006 2334,2193 2333,2194 2333,2199 2334,2200 2334,2225 2333,2226 2333,2276 2332,2277 2332,2309 2333,2310 2333,2319 2332,2320 2332,2374 2331,2375 2331,2392 2332,2393 2332,2408 2333,2409 2333,2414 2332,2415 2332,2444 2333,2445 2333,2467 2332,2468 2332,2491 2333,2492 2333,2514 2332,2515 2332,2527 2331,2528 2331,2535 2332,2536 2332,2547 2333,2548 2333,2553 2336,2556 2337,2556 2338,2557 2340,2557 2341,2558 2348,2558 2349,2559 2389,2559 2390,2560 2421,2560 2422,2561 2428,2561 2429,2560 2433,2560 2434,2559 2436,2559 2437,2558 2437,2557 2438,2556 2438,2555 2439,2554 2439,2548 2440,2547 2440,2487 2441,2486 2441,2459 2440,2458 2440,2444 2441,2443 2441,2341 2442,2340 2442,2237 2443,2236 2443,2231 2442,2230 2442,2190 2443,2189 2443,2180 2442,2179 2442,2109 2443,2108 2443,1998 2444,1997 2444,1992 2443,1991 2443,1955 2444,1954 2444,1941 2443,1940 2443,1906 2444,1905 2444,1896 2443,1895 2443,1860 2444,1859 2444,1844 2443,1843 2443,1826 2444,1825 2444,1716 2445,1715 2445,1698 2444,1697 2444,1673 2445,1672 2445,1534 2446,1533 2446,1509 2445,1508 2445,1498 2444,1497 2444,1494 2443,1493 2443,1492 2442,1491 2441,1491 2440,1490 2439,1490 2438,1489 2432,1489 2431,1488" fill="rgba(243,63,248,0.3)" stroke="rgb(243,63,248)" stroke-width="2" data-block-id="0004" data-name="b-0021" /><text x="2386" y="2047" text-anchor="middle" dominant-baseline="middle" class="block-label" fill="rgb(243,63,248)" stroke="white" stroke-width="3" paint-order="stroke">b-0021</text><polygon points="2649,2570 2648,2571 2644,2571 2643,2572 2635,2572 2634,2573 2622,2573 2621,2574 2609,2574 2608,2575 2596,2575 2595,2576 2589,2576 2588,2577 2584,2577 2583,2578 2571,2578 2570,2579 2563,2579 2562,2580 2559,2580 2557,2582 2557,2583 2556,2584 2556,2585 2555,2586 2555,2587 2554,2588 2554,2595 2553,2596 2553,2609 2554,2610 2554,2620 2553,2621 2553,2629 2554,2630 2554,2642 2553,2643 2553,2666 2552,2667 2552,2679 2553,2680 2553,2686 2554,2687 2553,2688 2553,2713 2554,2714 2554,2724 2553,2725 2553,2732 2552,2733 2552,2735 2553,2736 2553,2775 2552,2776 2552,2805 2553,2806 2553,2844 2552,2845 2552,2860 2553,2861 2553,2867 2552,2868 2552,2882 2553,2883 2553,2897 2552,2898 2552,2947 2553,2948 2553,2950 2554,2951 2554,2952 2555,2953 2555,2954 2556,2955 2557,2955 2558,2956 2559,2956 2560,2957 2563,2957 2564,2958 2566,2958 2567,2959 2572,2959 2574,2957 2576,2957 2577,2956 2579,2956 2580,2955 2597,2955 2598,2954 2605,2954 2606,2953 2611,2953 2612,2954 2616,2954 2617,2953 2624,2953 2625,2952 2638,2952 2639,2951 2646,2951 2647,2950 2654,2950 2655,2949 2659,2949 2660,2948 2672,2948 2673,2949 2682,2949 2683,2950 2692,2950 2693,2951 2700,2951 2701,2952 2712,2952 2713,2953 2716,2953 2717,2954 2718,2954 2719,2955 2720,2955 2723,2958 2723,2959 2727,2959 2729,2957 2730,2957 2732,2955 2733,2955 2734,2954 2737,2954 2738,2953 2748,2953 2749,2954 2768,2954 2769,2955 2784,2955 2785,2956 2805,2956 2806,2957 2829,2957 2830,2958 2854,2958 2855,2959 2865,2959 2866,2958 2878,2958 2879,2957 2881,2957 2884,2954 2884,2953 2885,2952 2885,2950 2886,2949 2886,2840 2885,2839 2885,2819 2886,2818 2886,2809 2887,2808 2887,2793 2886,2792 2886,2782 2885,2781 2885,2766 2886,2765 2886,2751 2885,2750 2885,2689 2884,2688 2884,2682 2885,2681 2885,2657 2884,2656 2884,2635 2885,2634 2885,2609 2884,2608 2884,2595 2885,2594 2885,2588 2884,2587 2884,2582 2883,2581 2883,2580 2882,2579 2882,2578 2881,2577 2879,2577 2878,2576 2817,2576 2816,2575 2744,2575 2743,2574 2731,2574 2730,2575 2727,2575 2726,2576 2723,2576 2722,2577 2719,2577 2718,2578 2717,2578 2714,2581 2712,2581 2710,2579 2709,2579 2707,2577 2706,2577 2705,2576 2704,2576 2703,2575 2701,2575 2700,2574 2698,2574 2697,2573 2695,2573 2694,2572 2691,2572 2690,2571 2670,2571 2669,2570" fill="rgba(83,91,110,0.3)" stroke="rgb(83,91,110)" stroke-width="2" data-block-id="0005" data-name="b-0028" /><text x="2688" y="2769" text-anchor="middle" dominant-baseline="middle" class="block-label" fill="rgb(83,91,110)" stroke="white" stroke-width="3" paint-order="stroke">b-0028</text><polygon points="2236,2635 2235,2636 2232,2636 2229,2639 2228,2639 2228,2640 2227,2641 2227,2642 2225,2644 2225,2645 2224,2646 2224,2647 2223,2648 2223,2650 2222,2651 2222,2653 2221,2654 2221,2655 2220,2656 2220,2658 2219,2659 2219,2662 2218,2663 2218,2666 2217,2667 2217,2670 2216,2671 2216,2674 2215,2675 2215,2678 2214,2679 2214,2681 2213,2682 2213,2684 2212,2685 2212,2688 2211,2689 2211,2692 2210,2693 2210,2697 2209,2698 2209,2700 2208,2701 2208,2703 2207,2704 2207,2706 2206,2707 2206,2709 2205,2710 2205,2714 2204,2715 2204,2718 2203,2719 2203,2722 2202,2723 2202,2725 2201,2726 2201,2730 2200,2731 2200,2735 2199,2736 2199,2738 2198,2739 2198,2743 2197,2744 2197,2747 2196,2748 2196,2751 2195,2752 2195,2755 2194,2756 2194,2758 2193,2759 2193,2761 2192,2762 2192,2764 2190,2766 2190,2767 2188,2769 2187,2769 2186,2770 2185,2770 2184,2771 2181,2771 2180,2772 2177,2772 2176,2773 2175,2773 2174,2774 2173,2774 2172,2775 2172,2776 2170,2778 2170,2779 2169,2780 2169,2782 2168,2783 2168,2785 2167,2786 2167,2787 2166,2788 2166,2789 2164,2791 2164,2792 2163,2793 2163,2794 2161,2796 2161,2797 2160,2798 2160,2799 2152,2807 2152,2808 2151,2809 2151,2810 2149,2812 2149,2813 2148,2814 2148,2815 2147,2816 2147,2817 2146,2818 2146,2819 2136,2829 2136,2830 2135,2831 2135,2832 2133,2834 2133,2835 2132,2836 2132,2837 2130,2839 2130,2840 2129,2841 2129,2842 2127,2844 2127,2845 2126,2846 2126,2848 2125,2849 2125,2850 2124,2851 2124,2853 2123,2854 2123,2857 2122,2858 2122,2861 2121,2862 2121,2874 2120,2875 2120,2878 2116,2882 2109,2882 2108,2883 2105,2883 2093,2895 2092,2895 2088,2899 2088,2900 2086,2902 2086,2903 2085,2904 2085,2905 2084,2906 2084,2907 2083,2908 2083,2909 2082,2910 2082,2912 2081,2913 2081,2915 2080,2916 2080,2918 2079,2919 2079,2922 2078,2923 2078,2948 2079,2949 2079,2950 2081,2952 2082,2952 2083,2953 2085,2953 2086,2954 2089,2954 2090,2955 2093,2955 2094,2956 2100,2956 2101,2957 2108,2957 2109,2956 2118,2956 2119,2955 2133,2955 2134,2956 2139,2956 2140,2957 2143,2957 2144,2956 2181,2956 2182,2957 2193,2957 2194,2956 2206,2956 2207,2957 2217,2957 2218,2956 2228,2956 2229,2957 2242,2957 2243,2956 2252,2956 2253,2957 2265,2957 2266,2956 2276,2956 2277,2957 2289,2957 2290,2956 2428,2956 2429,2955 2430,2955 2433,2952 2433,2951 2434,2950 2434,2895 2435,2894 2435,2875 2434,2874 2434,2864 2435,2863 2435,2861 2436,2860 2436,2825 2437,2824 2437,2737 2436,2736 2436,2732 2432,2728 2429,2728 2428,2727 2382,2727 2381,2726 2369,2726 2368,2727 2351,2727 2350,2726 2333,2726 2332,2727 2327,2727 2326,2726 2268,2726 2267,2725 2259,2725 2258,2724 2257,2724 2255,2722 2255,2721 2254,2720 2254,2719 2253,2718 2253,2715 2252,2714 2252,2680 2251,2679 2251,2645 2250,2644 2250,2639 2248,2637 2247,2637 2246,2636 2240,2636 2239,2635" fill="rgba(190,145,217,0.3)" stroke="rgb(190,145,217)" stroke-width="2" data-block-id="0006" data-name="b-0036" /><text x="2202" y="2800" text-anchor="middle" dominant-baseline="middle" class="block-label" fill="rgb(190,145,217)" stroke="white" stroke-width="3" paint-order="stroke">b-0036</text><polygon points="3089,2773 3088,2774 3086,2774 3085,2775 3073,2775 3072,2774 3066,2774 3065,2775 3053,2775 3052,2774 3035,2774 3034,2775 3017,2775 3016,2776 3010,2776 3009,2777 3008,2777 3005,2780 3005,2781 3004,2782 3004,2798 3003,2799 3003,2836 3002,2837 3002,2841 3003,2842 3003,2896 3004,2897 3004,2907 3003,2908 3003,2917 3004,2918 3004,2928 3003,2929 3003,2940 3004,2941 3004,2947 3005,2948 3005,2949 3006,2950 3006,2951 3008,2953 3009,2953 3010,2954 3013,2954 3014,2955 3019,2955 3020,2956 3027,2956 3028,2955 3054,2955 3055,2954 3067,2954 3068,2955 3069,2954 3084,2954 3085,2955 3088,2955 3089,2956 3092,2956 3093,2957 3098,2957 3099,2956 3109,2956 3110,2957 3120,2957 3121,2956 3126,2956 3127,2955 3132,2955 3133,2956 3148,2956 3149,2955 3173,2955 3174,2956 3178,2956 3179,2955 3181,2955 3182,2954 3185,2954 3186,2953 3190,2953 3191,2954 3193,2954 3194,2955 3196,2955 3198,2957 3199,2957 3200,2958 3209,2958 3210,2957 3220,2957 3221,2956 3226,2956 3227,2955 3267,2955 3268,2956 3270,2956 3271,2957 3272,2957 3273,2958 3275,2958 3276,2957 3283,2957 3284,2956 3288,2956 3289,2955 3294,2955 3295,2954 3311,2954 3312,2955 3314,2955 3315,2956 3317,2956 3318,2957 3319,2957 3320,2958 3324,2958 3325,2957 3342,2957 3343,2956 3345,2956 3348,2953 3349,2953 3354,2948 3354,2933 3353,2932 3353,2927 3352,2926 3352,2919 3353,2918 3353,2887 3352,2886 3352,2881 3351,2880 3351,2873 3352,2872 3352,2866 3353,2865 3353,2862 3352,2861 3352,2837 3351,2836 3351,2823 3352,2822 3352,2806 3351,2805 3351,2798 3350,2797 3350,2784 3349,2783 3349,2781 3348,2780 3348,2779 3345,2776 3344,2776 3343,2775 3282,2775 3281,2776 3276,2776 3275,2777 3268,2777 3267,2776 3241,2776 3240,2777 3232,2777 3231,2778 3227,2778 3226,2779 3223,2779 3222,2778 3219,2778 3218,2777 3206,2777 3205,2778 3200,2778 3199,2779 3196,2779 3195,2780 3192,2780 3191,2781 3189,2781 3188,2780 3187,2780 3186,2779 3185,2779 3183,2777 3182,2777 3181,2776 3180,2776 3179,2775 3178,2775 3177,2774 3158,2774 3157,2775 3150,2775 3149,2774 3120,2774 3119,2773 3116,2773 3115,2774 3100,2774 3099,2773" fill="rgba(94,47,14,0.3)" stroke="rgb(94,47,14)" stroke-width="2" data-block-id="0007" data-name="b-0039" /><text x="3182" y="2874" text-anchor="middle" dominant-baseline="middle" class="block-label" fill="rgb(94,47,14)" stroke="white" stroke-width="3" paint-order="stroke">b-0039</text><polygon points="2730,2575 2729,2576 2727,2576 2726,2577 2726,2578 2725,2579 2725,2645 2726,2646 2726,2678 2725,2679 2725,2689 2726,2690 2726,2730 2725,2731 2725,2735 2726,2736 2726,2761 2727,2762 2727,2764 2728,2765 2728,2766 2729,2767 2730,2767 2731,2768 2733,2768 2734,2769 2762,2769 2763,2770 2770,2770 2771,2771 2780,2771 2781,2770 2783,2770 2784,2771 2792,2771 2793,2772 2817,2772 2818,2773 2821,2773 2822,2772 2844,2772 2845,2773 2870,2773 2871,2774 2879,2774 2880,2773 2881,2773 2881,2772 2883,2770 2883,2767 2884,2766 2884,2754 2885,2753 2885,2742 2884,2741 2884,2691 2883,2690 2883,2681 2884,2680 2884,2584 2883,2583 2883,2580 2881,2578 2860,2578 2859,2577 2797,2577 2796,2576 2746,2576 2745,2575" fill="rgba(8,87,128,0.3)" stroke="rgb(8,87,128)" stroke-width="2" data-block-id="0008" data-name="b-0049" /><text x="2796" y="2708" text-anchor="middle" dominant-baseline="middle" class="block-label" fill="rgb(8,87,128)" stroke="white" stroke-width="3" paint-order="stroke">b-0049</text><polygon points="3008,1025 3007,1026 3006,1026 3003,1029 3003,1030 3002,1031 3002,1033 3001,1034 3001,1037 3000,1038 3000,1108 2999,1109 2999,1124 3000,1125 3000,1151 2999,1152 2999,1169 2998,1170 2998,1193 2999,1194 2999,1195 3001,1197 3001,1198 3002,1198 3004,1200 3007,1200 3008,1201 3106,1201 3107,1200 3138,1200 3139,1199 3146,1199 3147,1198 3148,1198 3149,1197 3150,1197 3153,1194 3153,1193 3154,1192 3154,1188 3155,1187 3155,1176 3156,1175 3156,1173 3155,1172 3155,1131 3154,1130 3154,1110 3153,1109 3153,1082 3152,1081 3152,1047 3151,1046 3151,1039 3150,1038 3150,1036 3148,1034 3148,1033 3145,1030 3144,1030 3143,1029 3142,1029 3141,1028 3131,1028 3130,1027 3112,1027 3111,1026 3051,1026 3050,1025" fill="rgba(11,161,32,0.3)" stroke="rgb(11,161,32)" stroke-width="2" data-block-id="0009" data-name="b-0057" /><text x="3086" y="1113" text-anchor="middle" dominant-baseline="middle" class="block-label" fill="rgb(11,161,32)" stroke="white" stroke-width="3" paint-order="stroke">b-0057</text><polygon points="2391,2570 2390,2571 2387,2571 2386,2572 2383,2572 2382,2573 2379,2573 2378,2574 2376,2574 2375,2575 2374,2575 2373,2576 2372,2576 2371,2577 2370,2577 2369,2578 2366,2578 2365,2579 2361,2579 2360,2580 2357,2580 2356,2581 2352,2581 2351,2582 2347,2582 2346,2583 2342,2583 2341,2584 2333,2584 2332,2585 2330,2585 2329,2586 2328,2586 2327,2587 2325,2587 2324,2588 2323,2588 2322,2589 2321,2589 2320,2590 2317,2590 2316,2591 2312,2591 2311,2592 2308,2592 2307,2593 2304,2593 2303,2594 2299,2594 2298,2595 2295,2595 2294,2596 2292,2596 2291,2597 2288,2597 2287,2598 2285,2598 2284,2599 2283,2599 2282,2600 2280,2600 2279,2601 2278,2601 2277,2602 2276,2602 2275,2603 2273,2603 2272,2604 2270,2604 2269,2605 2265,2605 2264,2606 2261,2606 2260,2607 2259,2607 2258,2608 2257,2608 2255,2610 2254,2610 2253,2611 2252,2611 2250,2613 2249,2613 2247,2615 2247,2620 2248,2621 2248,2624 2250,2626 2250,2627 2252,2629 2252,2630 2253,2631 2253,2633 2254,2634 2254,2638 2255,2639 2255,2682 2256,2683 2256,2689 2255,2690 2255,2700 2256,2701 2256,2713 2257,2714 2257,2719 2258,2720 2258,2721 2260,2723 2262,2723 2263,2724 2292,2724 2293,2725 2299,2725 2300,2724 2309,2724 2310,2725 2323,2725 2324,2724 2338,2724 2339,2725 2388,2725 2389,2724 2392,2724 2393,2725 2422,2725 2423,2726 2428,2726 2429,2725 2432,2725 2433,2724 2434,2724 2436,2722 2436,2720 2437,2719 2437,2666 2438,2665 2438,2659 2437,2658 2437,2636 2438,2635 2438,2578 2437,2577 2437,2574 2436,2573 2435,2573 2434,2572 2433,2572 2432,2571 2430,2571 2429,2570 2423,2570 2422,2571 2417,2571 2416,2572 2408,2572 2407,2571 2396,2571 2395,2570" fill="rgba(98,171,103,0.3)" stroke="rgb(98,171,103)" stroke-width="2" data-block-id="0010" data-name="b-0060" /><text x="2331" y="2624" text-anchor="middle" dominant-baseline="middle" class="block-label" fill="rgb(98,171,103)" stroke="white" stroke-width="3" paint-order="stroke">b-0060</text><polygon points="1457,2976 1037,2981 1045,1461 1446,1466" fill="rgba(102,179,92,0.3)" stroke="rgb(102,179,92)" stroke-width="2" data-block-id="0011" data-name="b-0039" /><text x="1246" y="2221" text-anchor="middle" dominant-baseline="middle" class="block-label" fill="rgb(102,179,92)" stroke="white" stroke-width="3" paint-order="stroke">b-0039</text><polygon points="3462,2976 3841,2976 3833,1474 3544,1455 3601,1602 3629,2093 3566,2126 3566,2289 3612,2289 3610,2344 3528,2289 3468,2289" fill="rgba(102,179,92,0.3)" stroke="rgb(102,179,92)" stroke-width="2" data-block-id="0012" data-name="b-0038" /><text x="3605" y="2183" text-anchor="middle" dominant-baseline="middle" class="block-label" fill="rgb(102,179,92)" stroke="white" stroke-width="3" paint-order="stroke">b-0038</text><polygon points="3912,1464 4311,1458 4321,2974 3927,2974 3908,2319" fill="rgba(102,179,92,0.3)" stroke="rgb(102,179,92)" stroke-width="2" data-block-id="0013" data-name="b-0015" /><text x="4075" y="2237" text-anchor="middle" dominant-baseline="middle" class="block-label" fill="rgb(102,179,92)" stroke="white" stroke-width="3" paint-order="stroke">b-0015</text><polygon points="4386,1480 4770,1469 4791,2968 4399,2976" fill="rgba(102,179,92,0.3)" stroke="rgb(102,179,92)" stroke-width="2" data-block-id="0014" data-name="b-0016" /><text x="4586" y="2223" text-anchor="middle" dominant-baseline="middle" class="block-label" fill="rgb(102,179,92)" stroke="white" stroke-width="3" paint-order="stroke">b-0016</text></g>
</svg>