<?xml version='1.0' encoding='utf-8'?>
<svg xmlns="http://www.w3.org/2000/svg" xmlns:atlas="http://example.com/atlas" width="4984" height="3296" viewBox="0 0 4984 3296">
  
  <metadata>
    <atlas:source>
      <atlas:jp2-path>/Users/pwright/workspace/atlas/media/v2/p44.jp2</atlas:jp2-path>
      <atlas:volume>unknown</atlas:volume>
      <atlas:plate-id>p44</atlas:plate-id>
      <atlas:image-width>4984</atlas:image-width>
      <atlas:image-height>3296</atlas:image-height>
    </atlas:source>
  </metadata>

  
  <image id="background" href="file:///Users/pwright/workspace/atlas/media/v2/p44.jp2" width="4984" height="3296" opacity="0.5" />

  <style>
    .block-label { font-family: sans-serif; font-size: 14px; font-weight: bold; }
  </style>

  
  <g id="blocks">
    <polygon points="1050,1777 1049,1778 1013,1778 1012,1779 1007,1779 1006,1780 1005,1780 1003,1782 1003,1783 1002,1784 1002,1791 1001,1792 1001,1872 1000,1873 1000,1890 1001,1891 1001,1893 1000,1894 1000,1926 1001,1927 1001,1930 1000,1931 1000,1941 1001,1942 1001,2042 1000,2043 1000,2049 1001,2050 1001,2066 1000,2067 1000,2073 1001,2074 1001,2113 1000,2114 1000,2142 1001,2143 1001,2144 1002,2145 1002,2146 1003,2147 1003,2148 1004,2149 1005,2149 1007,2151 1010,2151 1011,2152 1063,2152 1064,2153 1077,2153 1078,2152 1158,2152 1159,2153 1165,2153 1166,2152 1204,2152 1205,2153 1218,2153 1219,2152 1264,2152 1265,2151 1272,2151 1273,2152 1291,2152 1292,2151 1352,2151 1353,2150 1354,2151 1395,2151 1396,2150 1404,2150 1405,2151 1439,2151 1440,2150 1456,2150 1457,2151 1492,2151 1493,2150 1506,2150 1507,2151 1510,2151 1511,2150 1554,2150 1555,2151 1575,2151 1576,2152 1586,2152 1587,2151 1599,2151 1600,2152 1611,2152 1612,2151 1624,2151 1625,2152 1631,2152 1632,2151 1694,2151 1695,2152 1704,2152 1705,2151 1759,2151 1760,2150 1763,2150 1767,2146 1767,2145 1768,2144 1768,2142 1769,2141 1769,2136 1770,2135 1770,2130 1771,2129 1771,2120 1770,2119 1770,2116 1771,2115 1771,2085 1772,2084 1772,2050 1771,2049 1771,2038 1772,2037 1772,2033 1771,2032 1771,2007 1772,2006 1772,1980 1771,1979 1771,1973 1772,1972 1772,1966 1773,1965 1773,1945 1774,1944 1774,1932 1773,1931 1773,1923 1774,1922 1774,1910 1773,1909 1773,1899 1774,1898 1774,1864 1775,1863 1775,1854 1776,1853 1776,1840 1775,1839 1775,1837 1774,1836 1774,1833 1773,1832 1773,1827 1774,1826 1774,1797 1773,1796 1773,1792 1772,1791 1772,1790 1769,1787 1768,1787 1767,1786 1764,1786 1763,1785 1715,1785 1714,1786 1711,1786 1710,1785 1706,1785 1705,1784 1702,1784 1701,1783 1647,1783 1646,1782 1634,1782 1633,1781 1629,1781 1628,1780 1626,1780 1625,1779 1622,1779 1621,1778 1600,1778 1599,1779 1579,1779 1578,1778 1562,1778 1561,1779 1544,1779 1543,1780 1521,1780 1520,1779 1502,1779 1501,1780 1459,1780 1458,1781 1456,1781 1455,1782 1453,1782 1452,1783 1447,1783 1446,1782 1445,1782 1444,1781 1443,1781 1442,1780 1441,1780 1440,1779 1439,1779 1438,1778 1410,1778 1409,1779 1405,1779 1404,1780 1400,1780 1399,1779 1396,1779 1395,1778 1390,1778 1389,1777 1380,1777 1379,1778 1357,1778 1356,1777 1353,1777 1352,1778 1340,1778 1339,1779 1322,1779 1321,1778 1306,1778 1305,1779 1288,1779 1287,1778 1280,1778 1279,1779 1273,1779 1272,1780 1271,1780 1270,1779 1263,1779 1262,1778 1251,1778 1250,1779 1224,1779 1223,1778 1167,1778 1166,1777 1149,1777 1148,1778 1121,1778 1120,1777 1100,1777 1099,1778 1076,1778 1075,1777" fill="rgba(188,20,102,0.3)" stroke="rgb(188,20,102)" stroke-width="2" data-block-id="0001" data-name="b-0004" /><text x="1432" y="1937" text-anchor="middle" dominant-baseline="middle" class="block-label" fill="rgb(188,20,102)" stroke="white" stroke-width="3" paint-order="stroke">b-0004</text><polygon points="1508,1294 1507,1295 1504,1295 1503,1296 1499,1296 1498,1297 1478,1297 1477,1296 1458,1296 1457,1297 1452,1297 1451,1298 1376,1298 1375,1297 1342,1297 1341,1298 1316,1298 1315,1299 1311,1299 1310,1300 1305,1300 1304,1301 1301,1301 1300,1302 1298,1302 1297,1303 1296,1303 1295,1304 1291,1304 1290,1303 1288,1303 1287,1302 1284,1302 1283,1301 1278,1301 1277,1302 1244,1302 1243,1301 1228,1301 1227,1302 1220,1302 1219,1301 1213,1301 1212,1300 1209,1300 1208,1301 1171,1301 1170,1300 1158,1300 1157,1301 1122,1301 1121,1300 1117,1300 1116,1299 1111,1299 1110,1298 1064,1298 1063,1299 1050,1299 1049,1300 1021,1300 1020,1301 1012,1301 1011,1302 1008,1302 1004,1306 1004,1311 1003,1312 1003,1331 1004,1332 1003,1333 1003,1358 1004,1359 1004,1369 1003,1370 1003,1383 1002,1384 1002,1395 1003,1396 1003,1421 1002,1422 1002,1469 1001,1470 1001,1564 1000,1565 1000,1576 1001,1577 1001,1583 1000,1584 1000,1623 999,1624 999,1653 1000,1654 1000,1656 1001,1657 1001,1659 1002,1660 1002,1661 1007,1666 1015,1666 1016,1667 1142,1667 1143,1666 1154,1666 1155,1667 1169,1667 1170,1666 1184,1666 1185,1667 1269,1667 1270,1666 1289,1666 1290,1665 1378,1665 1379,1666 1402,1666 1403,1667 1458,1667 1459,1666 1565,1666 1566,1667 1575,1667 1576,1666 1602,1666 1603,1667 1623,1667 1624,1668 1629,1668 1630,1669 1640,1669 1641,1670 1662,1670 1663,1671 1664,1670 1753,1670 1754,1671 1763,1671 1764,1670 1766,1670 1767,1669 1768,1669 1770,1667 1771,1667 1772,1666 1772,1665 1774,1663 1774,1662 1776,1660 1776,1659 1779,1656 1779,1655 1781,1653 1781,1649 1780,1648 1780,1645 1779,1644 1779,1641 1778,1640 1778,1638 1779,1637 1779,1632 1780,1631 1780,1627 1779,1626 1779,1621 1778,1620 1778,1614 1779,1613 1779,1610 1780,1609 1780,1600 1779,1599 1779,1596 1778,1595 1778,1591 1779,1590 1779,1588 1780,1587 1780,1585 1781,1584 1781,1580 1782,1579 1781,1578 1781,1573 1780,1572 1780,1562 1781,1561 1781,1552 1780,1551 1780,1542 1779,1541 1779,1538 1778,1537 1778,1534 1777,1533 1777,1529 1776,1528 1776,1505 1775,1504 1775,1498 1774,1497 1774,1473 1773,1472 1773,1455 1772,1454 1772,1439 1773,1438 1773,1428 1774,1427 1774,1421 1775,1420 1775,1394 1776,1393 1776,1375 1777,1374 1777,1370 1778,1369 1778,1353 1777,1352 1777,1347 1776,1346 1776,1339 1775,1338 1775,1316 1774,1315 1774,1305 1773,1304 1773,1303 1771,1301 1770,1301 1768,1299 1767,1299 1766,1298 1764,1298 1763,1297 1752,1297 1751,1296 1744,1296 1743,1297 1734,1297 1733,1296 1718,1296 1717,1295 1695,1295 1694,1296 1691,1296 1690,1297 1684,1297 1683,1296 1675,1296 1674,1295 1659,1295 1658,1294 1601,1294 1600,1295 1597,1295 1596,1296 1585,1296 1584,1295 1576,1295 1575,1296 1528,1296 1527,1297 1519,1297 1518,1296 1515,1296 1514,1295 1511,1295 1510,1294" fill="rgba(121,210,214,0.3)" stroke="rgb(121,210,214)" stroke-width="2" data-block-id="0002" data-name="b-0005" /><text x="1487" y="1455" text-anchor="middle" dominant-baseline="middle" class="block-label" fill="rgb(121,210,214)" stroke="white" stroke-width="3" paint-order="stroke">b-0005</text><polygon points="1052,2743 1051,2744 1047,2744 1046,2745 1033,2745 1032,2746 1014,2746 1013,2745 1007,2745 1006,2746 1005,2746 1004,2747 1003,2747 1002,2748 1001,2748 1000,2749 1000,2750 999,2751 999,2762 1000,2763 1000,2772 999,2773 999,2779 998,2780 998,2791 999,2792 999,2795 1000,2796 999,2797 999,2800 998,2801 998,2805 997,2806 997,2817 998,2818 998,2849 999,2850 999,2880 998,2881 998,2893 997,2894 997,2898 996,2899 996,2911 997,2912 997,2923 996,2924 996,2928 995,2929 995,2932 994,2933 994,2941 993,2942 993,2973 992,2974 992,3015 993,3016 993,3029 992,3030 992,3033 991,3034 991,3049 990,3050 990,3062 991,3063 991,3065 992,3066 992,3068 993,3069 993,3072 994,3073 994,3091 995,3092 995,3096 996,3097 996,3102 997,3103 997,3106 998,3107 998,3108 1000,3110 1001,3110 1002,3111 1004,3111 1005,3112 1008,3112 1009,3113 1010,3113 1011,3112 1024,3112 1025,3113 1078,3113 1079,3114 1121,3114 1122,3115 1137,3115 1138,3114 1175,3114 1176,3115 1202,3115 1203,3114 1217,3114 1218,3115 1228,3115 1229,3114 1237,3114 1238,3115 1251,3115 1252,3116 1341,3116 1342,3117 1356,3117 1357,3116 1363,3116 1364,3115 1369,3115 1370,3116 1382,3116 1383,3115 1392,3115 1393,3114 1455,3114 1456,3115 1483,3115 1484,3116 1487,3116 1488,3115 1501,3115 1502,3116 1541,3116 1542,3115 1556,3115 1557,3116 1568,3116 1569,3115 1584,3115 1585,3114 1588,3114 1589,3113 1592,3113 1593,3112 1596,3112 1597,3113 1620,3113 1621,3114 1673,3114 1674,3113 1732,3113 1733,3112 1759,3112 1760,3111 1763,3111 1764,3110 1765,3110 1766,3109 1767,3109 1767,3108 1769,3106 1769,3102 1770,3101 1770,3094 1771,3093 1771,3084 1770,3083 1770,3077 1769,3076 1769,3001 1770,3000 1770,2995 1771,2994 1771,2986 1772,2985 1772,2944 1773,2943 1773,2939 1772,2938 1772,2930 1771,2929 1771,2919 1770,2918 1770,2905 1771,2904 1771,2844 1770,2843 1770,2751 1769,2750 1769,2748 1765,2744 1763,2744 1762,2743 1707,2743 1706,2744 1698,2744 1697,2745 1693,2745 1692,2746 1688,2746 1687,2747 1667,2747 1666,2748 1654,2748 1653,2747 1647,2747 1646,2748 1585,2748 1584,2749 1578,2749 1577,2748 1568,2748 1567,2747 1562,2747 1561,2746 1552,2746 1551,2747 1522,2747 1521,2746 1505,2746 1504,2747 1502,2747 1501,2748 1498,2748 1497,2749 1476,2749 1475,2750 1463,2750 1462,2751 1451,2751 1450,2752 1415,2752 1414,2751 1410,2751 1409,2752 1396,2752 1395,2751 1382,2751 1381,2750 1365,2750 1364,2749 1357,2749 1356,2748 1322,2748 1321,2749 1240,2749 1239,2748 1230,2748 1229,2749 1204,2749 1203,2748 1172,2748 1171,2747 1165,2747 1164,2746 1136,2746 1135,2745 1131,2745 1130,2744 1125,2744 1124,2745 1121,2745 1120,2746 1069,2746 1068,2745 1064,2745 1063,2744 1060,2744 1059,2743" fill="rgba(74,202,87,0.3)" stroke="rgb(74,202,87)" stroke-width="2" data-block-id="0003" data-name="b-0006" /><text x="1323" y="2923" text-anchor="middle" dominant-baseline="middle" class="block-label" fill="rgb(74,202,87)" stroke="white" stroke-width="3" paint-order="stroke">b-0006</text><polygon points="1703,740 1702,741 1684,741 1683,742 1657,742 1656,743 1641,743 1640,744 1629,744 1628,745 1610,745 1609,746 1564,746 1563,747 1549,747 1548,746 1520,746 1519,747 1502,747 1501,746 1486,746 1485,747 1457,747 1456,746 1436,746 1435,745 1412,745 1411,744 1393,744 1392,743 1375,743 1374,744 1368,744 1367,745 1366,744 1363,744 1362,743 1359,743 1358,742 1347,742 1346,743 1331,743 1330,744 1290,744 1289,745 1276,745 1275,746 1267,746 1266,745 1251,745 1250,746 1240,746 1239,747 1228,747 1227,748 1220,748 1219,747 1213,747 1212,746 1207,746 1206,747 1195,747 1194,748 1191,748 1190,749 1189,749 1188,750 1186,750 1185,751 1182,751 1181,752 1173,752 1172,751 1169,751 1168,750 1163,750 1162,749 1161,749 1160,750 1138,750 1137,749 1131,749 1130,748 1122,748 1121,747 1114,747 1113,748 1109,748 1108,749 1096,749 1095,750 1085,750 1084,749 1060,749 1059,750 1019,750 1018,751 1014,751 1013,752 1011,752 1010,753 1009,753 1007,755 1007,757 1006,758 1006,769 1005,770 1005,773 1004,774 1004,778 1003,779 1003,788 1004,789 1004,798 1005,799 1005,863 1004,864 1004,881 1005,882 1005,887 1006,888 1006,891 1005,892 1005,903 1004,904 1004,933 1005,934 1005,974 1004,975 1004,999 1005,1000 1005,1012 1004,1013 1004,1017 1003,1018 1003,1033 1004,1034 1004,1039 1005,1040 1005,1081 1004,1082 1004,1096 1005,1097 1005,1105 1006,1106 1006,1107 1009,1110 1010,1110 1011,1111 1014,1111 1015,1112 1028,1112 1029,1111 1035,1111 1036,1112 1042,1112 1043,1113 1045,1113 1046,1112 1053,1112 1054,1111 1057,1111 1058,1112 1063,1112 1064,1113 1071,1113 1072,1112 1085,1112 1086,1113 1111,1113 1112,1114 1121,1114 1122,1113 1133,1113 1134,1114 1142,1114 1143,1113 1160,1113 1161,1114 1166,1114 1167,1113 1188,1113 1189,1112 1195,1112 1196,1111 1198,1111 1199,1112 1201,1112 1202,1113 1203,1113 1204,1114 1207,1114 1208,1115 1229,1115 1230,1116 1240,1116 1241,1115 1268,1115 1269,1114 1270,1114 1271,1115 1277,1115 1278,1116 1282,1116 1283,1117 1306,1117 1307,1116 1311,1116 1312,1115 1314,1115 1315,1114 1327,1114 1328,1115 1333,1115 1334,1114 1345,1114 1346,1115 1352,1115 1353,1116 1356,1116 1357,1115 1362,1115 1363,1114 1369,1114 1370,1115 1373,1115 1374,1116 1396,1116 1397,1117 1403,1117 1404,1116 1407,1116 1408,1115 1411,1115 1412,1114 1421,1114 1422,1115 1433,1115 1434,1114 1442,1114 1443,1115 1449,1115 1450,1114 1458,1114 1459,1113 1464,1113 1465,1114 1494,1114 1495,1115 1499,1115 1500,1114 1535,1114 1536,1115 1551,1115 1552,1114 1567,1114 1568,1113 1583,1113 1584,1114 1595,1114 1596,1113 1628,1113 1629,1112 1645,1112 1646,1113 1677,1113 1678,1112 1692,1112 1693,1113 1699,1113 1700,1114 1714,1114 1715,1113 1743,1113 1744,1114 1762,1114 1763,1113 1765,1113 1767,1111 1768,1111 1768,1110 1770,1108 1770,1106 1771,1105 1771,1100 1772,1099 1772,1076 1773,1075 1773,1024 1774,1023 1774,1000 1775,999 1775,979 1776,978 1776,967 1775,966 1775,954 1774,953 1774,935 1775,934 1775,930 1776,929 1776,927 1777,926 1777,923 1778,922 1778,907 1777,906 1777,899 1776,898 1776,893 1775,892 1775,816 1776,815 1776,800 1775,799 1775,791 1776,790 1776,771 1775,770 1775,751 1774,750 1774,746 1773,745 1773,744 1772,744 1770,742 1767,742 1766,741 1731,741 1730,740" fill="rgba(116,99,103,0.3)" stroke="rgb(116,99,103)" stroke-width="2" data-block-id="0004" data-name="b-0007" /><text x="1348" y="942" text-anchor="middle" dominant-baseline="middle" class="block-label" fill="rgb(116,99,103)" stroke="white" stroke-width="3" paint-order="stroke">b-0007</text><polygon points="1703,2267 1702,2268 1631,2268 1630,2269 1598,2269 1597,2268 1591,2268 1590,2269 1573,2269 1572,2270 1551,2270 1550,2269 1540,2269 1539,2270 1529,2270 1528,2269 1327,2269 1326,2270 1291,2270 1290,2269 1276,2269 1275,2270 1197,2270 1196,2271 1168,2271 1167,2270 1160,2270 1159,2271 1132,2271 1131,2272 1122,2272 1121,2271 1109,2271 1108,2272 1101,2272 1100,2271 1091,2271 1090,2270 1088,2270 1087,2271 1075,2271 1074,2270 1009,2270 1008,2271 1004,2271 1003,2272 1002,2272 999,2275 999,2278 998,2279 998,2284 997,2285 997,2288 998,2289 998,2300 997,2301 997,2386 998,2387 998,2400 999,2401 999,2413 998,2414 999,2415 999,2432 1000,2433 1000,2516 999,2517 999,2544 1000,2545 1000,2562 999,2563 999,2577 1000,2578 1000,2589 999,2590 999,2615 998,2616 998,2621 999,2622 999,2629 1000,2630 1000,2631 1004,2635 1005,2635 1006,2636 1008,2636 1009,2637 1013,2637 1014,2636 1024,2636 1025,2635 1056,2635 1057,2636 1061,2636 1062,2637 1068,2637 1069,2638 1070,2637 1081,2637 1082,2636 1099,2636 1100,2635 1107,2635 1108,2636 1123,2636 1124,2635 1140,2635 1141,2634 1161,2634 1162,2633 1218,2633 1219,2632 1225,2632 1226,2633 1232,2633 1233,2634 1242,2634 1243,2633 1275,2633 1276,2634 1328,2634 1329,2635 1358,2635 1359,2636 1398,2636 1399,2635 1404,2635 1405,2636 1446,2636 1447,2637 1458,2637 1459,2636 1515,2636 1516,2635 1530,2635 1531,2636 1546,2636 1547,2635 1559,2635 1560,2636 1564,2636 1565,2637 1573,2637 1574,2636 1579,2636 1580,2635 1631,2635 1632,2634 1638,2634 1639,2633 1663,2633 1664,2634 1673,2634 1674,2635 1717,2635 1718,2634 1732,2634 1733,2633 1739,2633 1740,2634 1758,2634 1759,2633 1762,2633 1763,2632 1765,2632 1767,2630 1767,2629 1768,2628 1768,2624 1769,2623 1769,2583 1770,2582 1770,2568 1769,2567 1769,2535 1770,2534 1770,2510 1769,2509 1769,2495 1770,2494 1770,2484 1769,2483 1769,2450 1770,2449 1770,2444 1771,2443 1771,2414 1770,2413 1770,2273 1769,2272 1769,2271 1768,2270 1767,2270 1766,2269 1764,2269 1763,2268 1726,2268 1725,2267" fill="rgba(151,130,149,0.3)" stroke="rgb(151,130,149)" stroke-width="2" data-block-id="0005" data-name="b-0008" /><text x="1349" y="2486" text-anchor="middle" dominant-baseline="middle" class="block-label" fill="rgb(151,130,149)" stroke="white" stroke-width="3" paint-order="stroke">b-0008</text><polygon points="4481,2716 4480,2717 4436,2717 4435,2718 4428,2718 4427,2719 4417,2719 4416,2720 4414,2720 4413,2719 4400,2719 4399,2720 4375,2720 4374,2721 4362,2721 4361,2720 4343,2720 4342,2721 4337,2721 4336,2722 4298,2722 4297,2723 4284,2723 4283,2722 4171,2722 4170,2721 4164,2721 4163,2722 4156,2722 4155,2723 4006,2723 4005,2724 3946,2724 3945,2723 3926,2723 3925,2722 3857,2722 3856,2723 3835,2723 3834,2722 3828,2722 3827,2723 3796,2723 3795,2724 3792,2724 3791,2725 3789,2725 3788,2726 3787,2726 3785,2728 3785,2730 3784,2731 3784,2735 3783,2736 3783,2759 3782,2760 3782,2764 3783,2765 3783,2779 3782,2780 3782,2791 3783,2792 3783,2819 3784,2820 3783,2821 3783,2823 3782,2824 3782,2825 3781,2826 3781,2827 3779,2829 3779,2830 3778,2831 3778,2832 3777,2833 3777,2845 3778,2846 3778,2900 3777,2901 3777,2910 3776,2911 3776,2927 3777,2928 3777,2932 3778,2933 3778,2938 3779,2939 3779,2948 3780,2949 3780,2958 3781,2959 3781,2969 3782,2970 3782,2988 3783,2989 3783,3000 3784,3001 3784,3008 3785,3009 3785,3015 3784,3016 3784,3022 3783,3023 3783,3031 3784,3032 3784,3067 3783,3068 3783,3077 3784,3078 3784,3082 3785,3083 3785,3084 3786,3085 3788,3085 3789,3086 3791,3086 3792,3087 3795,3087 3796,3088 3812,3088 3813,3087 3846,3087 3847,3088 3861,3088 3862,3087 3873,3087 3874,3088 3891,3088 3892,3087 3894,3087 3895,3088 3910,3088 3911,3087 3935,3087 3936,3088 3957,3088 3958,3087 3968,3087 3969,3088 3976,3088 3977,3089 3978,3089 3979,3088 3993,3088 3994,3089 4029,3089 4030,3088 4065,3088 4066,3089 4074,3089 4075,3088 4100,3088 4101,3087 4147,3087 4148,3086 4160,3086 4161,3087 4196,3087 4197,3086 4209,3086 4210,3087 4253,3087 4254,3086 4282,3086 4283,3087 4291,3087 4292,3086 4303,3086 4304,3087 4311,3087 4312,3086 4320,3086 4321,3085 4364,3085 4365,3086 4410,3086 4411,3085 4421,3085 4422,3086 4463,3086 4464,3087 4498,3087 4499,3086 4500,3086 4501,3087 4536,3087 4537,3086 4540,3086 4541,3085 4543,3085 4545,3083 4546,3083 4547,3082 4547,3081 4548,3080 4548,3078 4549,3077 4549,3074 4550,3073 4550,3066 4549,3065 4549,3048 4550,3047 4550,3019 4549,3018 4549,2935 4548,2934 4548,2877 4549,2876 4549,2872 4550,2871 4550,2864 4549,2863 4549,2823 4550,2822 4550,2819 4549,2818 4549,2804 4550,2803 4550,2794 4549,2793 4549,2776 4550,2775 4550,2772 4549,2771 4549,2739 4548,2738 4548,2727 4547,2726 4547,2724 4546,2723 4546,2722 4545,2721 4545,2720 4544,2719 4543,2719 4542,2718 4541,2718 4540,2717 4539,2717 4538,2716 4527,2716 4526,2717 4499,2717 4498,2716" fill="rgba(52,1,87,0.3)" stroke="rgb(52,1,87)" stroke-width="2" data-block-id="0006" data-name="b-0009" /><text x="4136" y="2914" text-anchor="middle" dominant-baseline="middle" class="block-label" fill="rgb(52,1,87)" stroke="white" stroke-width="3" paint-order="stroke">b-0009</text><polygon points="1448,262 1447,263 1397,263 1396,264 1335,264 1334,263 1326,263 1325,264 1318,264 1317,265 1315,265 1314,266 1313,266 1312,267 1311,267 1310,268 1309,268 1308,269 1307,269 1306,270 1304,270 1303,271 1301,271 1300,272 1298,272 1297,273 1295,273 1294,274 1293,274 1292,275 1291,275 1290,276 1289,276 1287,278 1286,278 1284,280 1282,280 1279,277 1279,276 1277,274 1277,273 1275,271 1275,270 1274,269 1273,269 1272,268 1271,268 1270,267 1264,267 1263,266 1247,266 1246,267 1238,267 1237,268 1223,268 1222,267 1212,267 1211,266 1207,266 1206,267 1192,267 1191,268 1166,268 1165,267 1160,267 1159,268 1143,268 1142,267 1125,267 1124,266 1121,266 1120,265 1117,265 1116,264 1109,264 1108,265 1099,265 1098,266 1094,266 1093,267 1087,267 1086,268 1072,268 1071,267 1053,267 1052,268 1031,268 1030,267 1025,267 1024,266 1020,266 1019,265 1009,265 1008,266 1007,266 1006,267 1005,267 1005,268 1004,269 1004,281 1005,282 1005,291 1006,292 1006,335 1005,336 1005,432 1006,433 1006,437 1005,438 1005,468 1004,469 1004,485 1005,486 1005,492 1006,493 1006,497 1005,498 1005,507 1004,508 1004,522 1005,523 1005,548 1006,549 1006,617 1007,618 1007,621 1008,622 1008,624 1011,627 1012,627 1013,628 1015,628 1016,629 1044,629 1045,630 1221,630 1222,631 1260,631 1261,630 1272,630 1273,629 1276,629 1277,628 1280,628 1281,627 1290,627 1291,628 1326,628 1327,627 1338,627 1339,626 1354,626 1355,627 1380,627 1381,626 1455,626 1456,627 1468,627 1469,626 1483,626 1484,627 1487,627 1488,626 1545,626 1546,627 1601,627 1602,628 1608,628 1609,627 1650,627 1651,628 1652,627 1697,627 1698,628 1701,628 1702,627 1723,627 1724,628 1725,628 1726,627 1743,627 1744,628 1752,628 1753,627 1762,627 1763,626 1765,626 1766,625 1768,625 1771,622 1771,621 1773,619 1773,618 1774,617 1774,615 1775,614 1775,611 1774,610 1774,605 1773,604 1773,600 1774,599 1774,593 1775,592 1775,588 1774,587 1774,571 1775,570 1775,564 1774,563 1774,557 1773,556 1774,555 1774,550 1775,549 1775,546 1776,545 1776,535 1775,534 1775,520 1774,519 1774,511 1773,510 1773,504 1774,503 1774,496 1775,495 1775,478 1774,477 1774,469 1773,468 1773,452 1772,451 1772,449 1773,448 1773,444 1774,443 1774,441 1775,440 1775,436 1776,435 1776,432 1777,431 1777,429 1778,428 1778,425 1779,424 1779,420 1778,419 1778,414 1777,413 1777,378 1778,377 1778,372 1777,371 1777,359 1778,358 1778,349 1777,348 1777,342 1776,341 1777,340 1777,332 1778,331 1778,324 1777,323 1777,311 1778,310 1778,305 1779,304 1779,302 1778,301 1778,295 1777,294 1777,279 1776,278 1776,276 1775,275 1775,274 1774,273 1774,272 1773,271 1773,270 1770,267 1769,267 1768,266 1767,266 1766,265 1764,265 1763,264 1718,264 1717,265 1673,265 1672,266 1667,266 1666,267 1658,267 1657,266 1645,266 1644,265 1605,265 1604,264 1551,264 1550,263 1532,263 1531,264 1507,264 1506,263 1503,263 1502,262 1461,262 1460,263 1459,262" fill="rgba(235,157,37,0.3)" stroke="rgb(235,157,37)" stroke-width="2" data-block-id="0007" data-name="b-0010" /><text x="1449" y="411" text-anchor="middle" dominant-baseline="middle" class="block-label" fill="rgb(235,157,37)" stroke="white" stroke-width="3" paint-order="stroke">b-0010</text><polygon points="4089,1765 4088,1766 4034,1766 4033,1767 4023,1767 4022,1766 3983,1766 3982,1767 3966,1767 3965,1766 3961,1766 3960,1767 3932,1767 3931,1766 3918,1766 3917,1767 3909,1767 3908,1768 3884,1768 3883,1767 3873,1767 3872,1768 3863,1768 3862,1767 3811,1767 3810,1768 3796,1768 3795,1769 3790,1769 3789,1770 3786,1770 3783,1773 3783,1776 3782,1777 3782,1843 3783,1844 3783,1845 3782,1846 3782,1882 3783,1883 3783,1894 3782,1895 3782,1910 3783,1911 3783,1918 3782,1919 3782,1931 3783,1932 3783,1944 3782,1945 3782,1956 3781,1957 3781,1980 3782,1981 3782,2030 3781,2031 3781,2038 3782,2039 3782,2061 3783,2062 3783,2127 3784,2128 3784,2130 3787,2133 3789,2133 3790,2134 3793,2134 3794,2135 3848,2135 3849,2136 3853,2136 3854,2137 3859,2137 3860,2136 3865,2136 3866,2135 3872,2135 3873,2134 3906,2134 3907,2133 3913,2133 3914,2132 3918,2132 3919,2133 3940,2133 3941,2132 3959,2132 3960,2133 3984,2133 3985,2132 3990,2132 3991,2133 4003,2133 4004,2132 4032,2132 4033,2133 4057,2133 4058,2132 4060,2132 4061,2133 4107,2133 4108,2132 4120,2132 4121,2133 4142,2133 4143,2132 4172,2132 4173,2133 4206,2133 4207,2132 4223,2132 4224,2133 4237,2133 4238,2132 4250,2132 4251,2131 4273,2131 4274,2132 4294,2132 4295,2131 4325,2131 4326,2130 4333,2130 4334,2129 4364,2129 4365,2130 4378,2130 4379,2131 4382,2131 4383,2130 4390,2130 4391,2129 4407,2129 4408,2130 4425,2130 4426,2129 4436,2129 4437,2130 4465,2130 4466,2129 4467,2130 4475,2130 4476,2129 4527,2129 4528,2128 4535,2128 4536,2127 4539,2127 4543,2123 4543,2122 4544,2121 4544,2117 4545,2116 4545,2115 4544,2114 4544,2085 4543,2084 4543,2079 4544,2078 4544,2027 4545,2026 4545,1996 4544,1995 4544,1940 4545,1939 4545,1916 4544,1915 4544,1896 4543,1895 4543,1847 4542,1846 4542,1840 4543,1839 4543,1804 4542,1803 4542,1781 4541,1780 4541,1778 4540,1777 4540,1776 4539,1775 4539,1774 4538,1773 4538,1772 4537,1771 4537,1770 4534,1767 4532,1767 4531,1766 4528,1766 4527,1765 4465,1765 4464,1766 4447,1766 4446,1765 4430,1765 4429,1766 4393,1766 4392,1767 4336,1767 4335,1768 4306,1768 4305,1767 4289,1767 4288,1768 4270,1768 4269,1767 4254,1767 4253,1768 4244,1768 4243,1767 4216,1767 4215,1768 4150,1768 4149,1769 4126,1769 4125,1770 4121,1770 4120,1771 4115,1771 4114,1770 4108,1770 4107,1769 4106,1769 4105,1768 4104,1768 4103,1767 4101,1767 4100,1766 4097,1766 4096,1765" fill="rgba(129,191,187,0.3)" stroke="rgb(129,191,187)" stroke-width="2" data-block-id="0008" data-name="b-0011" /><text x="4156" y="1952" text-anchor="middle" dominant-baseline="middle" class="block-label" fill="rgb(129,191,187)" stroke="white" stroke-width="3" paint-order="stroke">b-0011</text><polygon points="4391,1290 4390,1291 4386,1291 4385,1292 4380,1292 4379,1293 4361,1293 4360,1292 4342,1292 4341,1293 4336,1293 4335,1294 4326,1294 4325,1295 4320,1295 4319,1294 4312,1294 4311,1293 4293,1293 4292,1294 4281,1294 4280,1295 4272,1295 4271,1294 4266,1294 4265,1293 4237,1293 4236,1294 4219,1294 4218,1293 4189,1293 4188,1294 4172,1294 4171,1293 4162,1293 4161,1292 4150,1292 4149,1293 4100,1293 4099,1294 4092,1294 4091,1295 4089,1295 4088,1296 4086,1296 4085,1297 4080,1297 4079,1296 4074,1296 4073,1295 4030,1295 4029,1294 4023,1294 4022,1293 4021,1294 4017,1294 4016,1295 4006,1295 4005,1294 3991,1294 3990,1295 3986,1295 3985,1294 3978,1294 3977,1293 3973,1293 3972,1294 3960,1294 3959,1295 3954,1295 3953,1296 3947,1296 3946,1297 3938,1297 3937,1296 3933,1296 3932,1295 3921,1295 3920,1296 3912,1296 3911,1295 3906,1295 3905,1294 3904,1294 3903,1295 3898,1295 3897,1296 3875,1296 3874,1297 3862,1297 3861,1296 3850,1296 3849,1297 3842,1297 3841,1296 3839,1296 3838,1295 3835,1295 3834,1294 3831,1294 3830,1295 3825,1295 3824,1296 3816,1296 3815,1295 3804,1295 3803,1296 3799,1296 3798,1297 3794,1297 3793,1298 3792,1298 3791,1299 3789,1299 3788,1300 3787,1300 3783,1304 3783,1315 3784,1316 3784,1338 3785,1339 3785,1341 3784,1342 3784,1346 3783,1347 3783,1349 3782,1350 3782,1379 3783,1380 3783,1390 3782,1391 3782,1395 3781,1396 3781,1418 3782,1419 3782,1446 3781,1447 3781,1451 3782,1452 3782,1475 3783,1476 3783,1478 3784,1479 3784,1481 3785,1482 3785,1483 3786,1484 3786,1487 3785,1488 3785,1489 3784,1490 3784,1491 3783,1492 3783,1493 3782,1494 3782,1508 3783,1509 3783,1511 3784,1512 3784,1514 3785,1515 3785,1517 3786,1518 3786,1521 3787,1522 3787,1532 3786,1533 3786,1586 3785,1587 3785,1605 3786,1606 3786,1638 3785,1639 3785,1641 3786,1642 3786,1651 3789,1654 3790,1654 3791,1655 3793,1655 3794,1656 3863,1656 3864,1657 3873,1657 3874,1656 3901,1656 3902,1655 3932,1655 3933,1654 3936,1654 3937,1653 3972,1653 3973,1654 3988,1654 3989,1655 4001,1655 4002,1654 4111,1654 4112,1655 4116,1655 4117,1656 4133,1656 4134,1655 4137,1655 4138,1654 4140,1654 4141,1653 4145,1653 4146,1654 4176,1654 4177,1655 4180,1655 4181,1654 4207,1654 4208,1653 4237,1653 4238,1654 4242,1654 4243,1655 4245,1655 4246,1656 4248,1656 4249,1657 4255,1657 4256,1658 4261,1658 4262,1657 4265,1657 4266,1656 4268,1656 4269,1655 4274,1655 4275,1654 4328,1654 4329,1655 4350,1655 4351,1654 4359,1654 4360,1655 4363,1655 4364,1656 4367,1656 4368,1657 4388,1657 4389,1656 4411,1656 4412,1657 4441,1657 4442,1656 4488,1656 4489,1655 4530,1655 4531,1654 4535,1654 4536,1653 4537,1653 4539,1651 4539,1649 4540,1648 4540,1646 4541,1645 4541,1643 4542,1642 4542,1637 4543,1636 4543,1616 4542,1615 4542,1596 4541,1595 4541,1590 4542,1589 4542,1549 4541,1548 4541,1542 4542,1541 4542,1505 4541,1504 4541,1491 4542,1490 4542,1459 4541,1458 4541,1453 4540,1452 4540,1446 4541,1445 4541,1440 4542,1439 4542,1434 4541,1433 4541,1412 4540,1411 4540,1398 4541,1397 4541,1394 4542,1393 4542,1386 4541,1385 4541,1382 4540,1381 4540,1373 4541,1372 4541,1348 4542,1347 4542,1337 4541,1336 4541,1332 4540,1331 4540,1316 4539,1315 4539,1307 4538,1306 4538,1303 4537,1302 4537,1301 4536,1300 4536,1299 4534,1297 4532,1297 4531,1296 4526,1296 4525,1295 4521,1295 4520,1294 4518,1294 4517,1293 4514,1293 4513,1292 4465,1292 4464,1291 4428,1291 4427,1292 4404,1292 4403,1291 4398,1291 4397,1290" fill="rgba(20,160,203,0.3)" stroke="rgb(20,160,203)" stroke-width="2" data-block-id="0009" data-name="b-0012" /><text x="4145" y="1441" text-anchor="middle" dominant-baseline="middle" class="block-label" fill="rgb(20,160,203)" stroke="white" stroke-width="3" paint-order="stroke">b-0012</text><polygon points="2626,1772 2625,1773 2618,1773 2617,1774 2557,1774 2556,1775 2552,1775 2551,1776 2548,1776 2547,1777 2542,1777 2541,1776 2526,1776 2525,1777 2491,1777 2490,1778 2455,1778 2454,1777 2446,1777 2445,1778 2406,1778 2405,1777 2374,1777 2373,1778 2348,1778 2347,1777 2314,1777 2313,1776 2306,1776 2305,1777 2299,1777 2298,1778 2290,1778 2289,1779 2263,1779 2262,1778 2260,1778 2259,1779 2221,1779 2220,1778 2215,1778 2214,1777 2211,1777 2210,1778 2187,1778 2186,1779 2183,1779 2182,1780 2180,1780 2179,1781 2176,1781 2175,1780 2173,1780 2172,1779 2169,1779 2168,1778 2156,1778 2155,1779 2120,1779 2119,1778 2113,1778 2112,1779 2077,1779 2076,1778 2050,1778 2049,1777 2043,1777 2042,1778 2030,1778 2029,1777 1980,1777 1979,1776 1968,1776 1967,1777 1946,1777 1945,1778 1932,1778 1931,1779 1927,1779 1926,1780 1925,1780 1924,1781 1924,1782 1923,1783 1923,1787 1922,1788 1922,1828 1921,1829 1922,1830 1922,1876 1923,1877 1923,1880 1922,1881 1922,1933 1921,1934 1921,1959 1922,1960 1922,1991 1923,1992 1923,2013 1922,2014 1922,2052 1923,2053 1923,2131 1924,2132 1924,2137 1925,2138 1925,2141 1926,2142 1926,2143 1928,2145 1929,2145 1930,2146 1931,2146 1932,2147 1935,2147 1936,2148 1942,2148 1943,2149 1971,2149 1972,2150 1976,2150 1977,2149 1983,2149 1984,2148 1990,2148 1991,2149 2007,2149 2008,2148 2013,2148 2014,2149 2028,2149 2029,2148 2042,2148 2043,2149 2051,2149 2052,2148 2062,2148 2063,2149 2076,2149 2077,2148 2090,2148 2091,2149 2102,2149 2103,2148 2107,2148 2108,2149 2121,2149 2122,2148 2138,2148 2139,2149 2145,2149 2146,2148 2159,2148 2160,2149 2174,2149 2175,2148 2177,2148 2178,2149 2183,2149 2184,2150 2193,2150 2194,2149 2197,2149 2198,2148 2211,2148 2212,2149 2214,2149 2215,2148 2231,2148 2232,2149 2289,2149 2290,2150 2296,2150 2297,2151 2304,2151 2305,2152 2310,2152 2311,2151 2314,2151 2315,2150 2317,2150 2318,2149 2325,2149 2326,2150 2337,2150 2338,2149 2366,2149 2367,2148 2389,2148 2390,2147 2460,2147 2461,2146 2468,2146 2469,2147 2483,2147 2484,2148 2490,2148 2491,2147 2530,2147 2531,2148 2542,2148 2543,2147 2548,2147 2549,2148 2551,2148 2552,2149 2556,2149 2557,2150 2570,2150 2571,2149 2580,2149 2581,2148 2587,2148 2588,2149 2613,2149 2614,2148 2625,2148 2626,2149 2635,2149 2636,2148 2642,2148 2643,2147 2646,2147 2647,2146 2649,2146 2651,2144 2652,2144 2652,2143 2653,2142 2653,2141 2654,2140 2654,2138 2655,2137 2655,2134 2656,2133 2656,2124 2657,2123 2657,2114 2656,2113 2656,2098 2655,2097 2655,2091 2656,2090 2656,2081 2657,2080 2657,2065 2656,2064 2656,2048 2655,2047 2656,2046 2656,2039 2657,2038 2657,2029 2658,2028 2658,2022 2657,2021 2657,2014 2656,2013 2656,1995 2657,1994 2657,1935 2656,1934 2656,1923 2657,1922 2657,1894 2658,1893 2658,1888 2657,1887 2657,1858 2656,1857 2656,1852 2657,1851 2657,1839 2658,1838 2658,1834 2659,1833 2659,1825 2658,1824 2658,1815 2657,1814 2657,1803 2658,1802 2658,1793 2657,1792 2657,1789 2656,1788 2656,1786 2655,1785 2655,1783 2654,1782 2654,1781 2653,1780 2653,1779 2649,1775 2648,1775 2647,1774 2646,1774 2645,1773 2643,1773 2642,1772" fill="rgba(57,21,252,0.3)" stroke="rgb(57,21,252)" stroke-width="2" data-block-id="0010" data-name="b-0013" /><text x="2326" y="1979" text-anchor="middle" dominant-baseline="middle" class="block-label" fill="rgb(57,21,252)" stroke="white" stroke-width="3" paint-order="stroke">b-0013</text><polygon points="3568,2719 3567,2720 3564,2720 3563,2721 3549,2721 3548,2720 3544,2720 3543,2721 3534,2721 3533,2722 3529,2722 3528,2723 3526,2723 3525,2724 3524,2724 3523,2725 3521,2725 3520,2726 3517,2726 3516,2727 3509,2727 3508,2728 3494,2728 3493,2727 3490,2727 3489,2726 3487,2726 3486,2725 3484,2725 3483,2724 3482,2724 3481,2723 3477,2723 3476,2722 3471,2722 3470,2723 3457,2723 3456,2722 3425,2722 3424,2723 3417,2723 3416,2724 3411,2724 3410,2723 3371,2723 3370,2722 3354,2722 3353,2723 3336,2723 3335,2724 3316,2724 3315,2723 3310,2723 3309,2722 3305,2722 3304,2723 3299,2723 3298,2724 3278,2724 3277,2725 3217,2725 3216,2724 3192,2724 3191,2725 3172,2725 3171,2726 3165,2726 3164,2727 3161,2727 3160,2728 3155,2728 3154,2729 3142,2729 3141,2730 3123,2730 3122,2729 3119,2729 3118,2728 3117,2729 3113,2729 3112,2730 3109,2730 3108,2731 3087,2731 3086,2732 3066,2732 3065,2733 3020,2733 3019,2734 2961,2734 2960,2735 2957,2735 2956,2734 2950,2734 2949,2735 2924,2735 2923,2736 2921,2736 2920,2737 2919,2737 2917,2739 2917,2740 2916,2741 2916,2743 2915,2744 2915,2747 2914,2748 2914,2753 2915,2754 2915,2794 2914,2795 2914,2837 2913,2838 2913,2847 2914,2848 2914,2852 2915,2853 2915,2896 2916,2897 2916,2901 2917,2902 2917,2916 2916,2917 2916,2920 2915,2921 2915,2929 2914,2930 2914,2948 2913,2949 2913,2960 2912,2961 2912,2979 2911,2980 2911,2985 2910,2986 2910,2990 2911,2991 2911,2993 2912,2994 2912,2996 2913,2997 2913,3012 2914,3013 2914,3060 2913,3061 2913,3070 2912,3071 2912,3086 2913,3087 2913,3096 2914,3097 2914,3100 2915,3101 2915,3104 2916,3105 2916,3106 2917,3107 2918,3107 2919,3108 2920,3108 2921,3109 2923,3109 2924,3110 2931,3110 2932,3111 2941,3111 2942,3110 2963,3110 2964,3109 2983,3109 2984,3110 2987,3110 2988,3109 3053,3109 3054,3108 3065,3108 3066,3107 3072,3107 3073,3106 3078,3106 3079,3105 3082,3105 3083,3106 3090,3106 3091,3107 3092,3107 3093,3106 3096,3106 3097,3105 3102,3105 3103,3104 3123,3104 3124,3103 3138,3103 3139,3104 3140,3103 3151,3103 3152,3102 3154,3102 3155,3103 3173,3103 3174,3102 3192,3102 3193,3101 3200,3101 3201,3100 3209,3100 3210,3101 3232,3101 3233,3100 3275,3100 3276,3101 3288,3101 3289,3100 3303,3100 3304,3101 3313,3101 3314,3102 3323,3102 3324,3101 3331,3101 3332,3100 3334,3100 3335,3099 3337,3099 3338,3098 3339,3098 3340,3097 3342,3097 3343,3096 3345,3096 3346,3097 3351,3097 3352,3098 3384,3098 3385,3099 3398,3099 3399,3100 3405,3100 3406,3099 3470,3099 3471,3100 3474,3100 3475,3099 3508,3099 3509,3098 3517,3098 3518,3097 3521,3097 3522,3096 3523,3096 3524,3095 3525,3095 3527,3093 3528,3093 3529,3092 3531,3092 3532,3091 3544,3091 3545,3090 3555,3090 3556,3089 3594,3089 3595,3088 3609,3088 3610,3087 3624,3087 3625,3086 3630,3086 3631,3085 3633,3085 3634,3084 3635,3084 3637,3082 3637,3081 3638,3080 3638,3078 3639,3077 3639,3074 3640,3073 3640,3054 3639,3053 3639,3037 3638,3036 3638,3025 3639,3024 3639,3012 3640,3011 3640,3008 3641,3007 3641,3002 3642,3001 3642,2994 3641,2993 3641,2982 3640,2981 3640,2971 3641,2970 3641,2946 3642,2945 3642,2936 3641,2935 3641,2925 3642,2924 3642,2919 3643,2918 3643,2914 3642,2913 3642,2897 3641,2896 3641,2888 3640,2887 3640,2871 3641,2870 3641,2837 3640,2836 3640,2834 3641,2833 3641,2812 3642,2811 3642,2793 3641,2792 3641,2781 3642,2780 3642,2760 3643,2759 3643,2736 3642,2735 3642,2732 3641,2731 3641,2729 3640,2728 3640,2727 3639,2726 3639,2725 3638,2725 3637,2724 3636,2724 3635,2723 3633,2723 3632,2722 3629,2722 3628,2721 3596,2721 3595,2720 3574,2720 3573,2719" fill="rgba(235,88,48,0.3)" stroke="rgb(235,88,48)" stroke-width="2" data-block-id="0011" data-name="b-0014" /><text x="3301" y="2918" text-anchor="middle" dominant-baseline="middle" class="block-label" fill="rgb(235,88,48)" stroke="white" stroke-width="3" paint-order="stroke">b-0014</text><polygon points="3828,273 3827,274 3824,274 3823,275 3805,275 3804,276 3797,276 3796,277 3789,277 3788,278 3785,278 3784,279 3783,279 3781,281 3781,283 3780,284 3780,287 3779,288 3779,299 3778,300 3778,351 3777,352 3777,491 3778,492 3778,495 3777,496 3777,516 3776,517 3776,552 3775,553 3775,556 3776,557 3776,621 3777,622 3777,630 3778,631 3778,633 3782,637 3784,637 3785,638 3886,638 3887,637 3899,637 3900,636 3969,636 3970,635 3977,635 3978,636 3982,636 3983,637 4064,637 4065,636 4076,636 4077,635 4099,635 4100,634 4126,634 4127,635 4139,635 4140,634 4162,634 4163,633 4169,633 4170,634 4174,634 4175,635 4177,635 4178,636 4180,636 4181,637 4187,637 4188,638 4268,638 4269,637 4278,637 4279,638 4288,638 4289,637 4302,637 4303,638 4314,638 4315,637 4342,637 4343,636 4398,636 4399,635 4410,635 4411,634 4429,634 4430,635 4431,634 4514,634 4515,633 4520,633 4521,632 4524,632 4525,631 4527,631 4528,630 4529,630 4530,629 4531,629 4532,628 4533,628 4534,627 4534,626 4535,625 4535,623 4534,622 4534,619 4533,618 4533,606 4534,605 4534,601 4533,600 4533,595 4532,594 4532,588 4533,587 4533,584 4534,583 4534,574 4533,573 4533,570 4532,569 4532,557 4533,556 4533,555 4532,554 4532,546 4531,545 4531,542 4532,541 4532,537 4533,536 4533,525 4532,524 4532,506 4533,505 4533,483 4534,482 4534,456 4535,455 4535,453 4536,452 4536,450 4537,449 4537,447 4538,446 4538,433 4537,432 4537,429 4536,428 4536,426 4535,425 4535,399 4536,398 4536,382 4535,381 4535,297 4536,296 4536,294 4535,293 4535,288 4534,287 4534,283 4533,282 4533,281 4532,280 4532,279 4531,278 4530,278 4529,277 4527,277 4526,276 4444,276 4443,277 4423,277 4422,278 4404,278 4403,279 4382,279 4381,280 4364,280 4363,279 4351,279 4350,280 4346,280 4345,281 4312,281 4311,280 4287,280 4286,279 4280,279 4279,280 4274,280 4273,279 4243,279 4242,278 4229,278 4228,279 4226,279 4225,278 4183,278 4182,279 4175,279 4174,278 4152,278 4151,277 4098,277 4097,276 4096,276 4095,277 4038,277 4037,278 4032,278 4031,277 3976,277 3975,276 3973,276 3972,277 3961,277 3960,276 3947,276 3946,277 3942,277 3941,278 3912,278 3911,277 3885,277 3884,276 3866,276 3865,275 3861,275 3860,274 3855,274 3854,273" fill="rgba(218,58,254,0.3)" stroke="rgb(218,58,254)" stroke-width="2" data-block-id="0012" data-name="b-0015" /><text x="4228" y="454" text-anchor="middle" dominant-baseline="middle" class="block-label" fill="rgb(218,58,254)" stroke="white" stroke-width="3" paint-order="stroke">b-0015</text><polygon points="4508,747 4507,748 4455,748 4454,749 4408,749 4407,748 4402,748 4401,749 4361,749 4360,750 4312,750 4311,751 4290,751 4289,750 4274,750 4273,751 4166,751 4165,752 4142,752 4141,751 4140,752 4112,752 4111,753 4103,753 4102,752 4084,752 4083,753 4008,753 4007,752 3955,752 3954,751 3937,751 3936,752 3930,752 3929,753 3925,753 3924,752 3905,752 3904,751 3890,751 3889,752 3863,752 3862,751 3837,751 3836,752 3820,752 3819,751 3793,751 3792,752 3786,752 3785,753 3784,753 3781,756 3781,757 3780,758 3780,763 3779,764 3779,787 3778,788 3778,801 3779,802 3779,837 3778,838 3778,843 3779,844 3779,916 3780,917 3780,961 3781,962 3781,968 3782,969 3782,1002 3783,1003 3783,1021 3782,1022 3782,1044 3783,1045 3783,1079 3782,1080 3782,1091 3783,1092 3783,1102 3784,1103 3784,1104 3786,1106 3787,1106 3788,1107 3789,1107 3790,1108 3793,1108 3794,1109 3802,1109 3803,1110 3814,1110 3815,1109 3828,1109 3829,1110 3856,1110 3857,1109 3865,1109 3866,1108 3871,1108 3872,1109 3896,1109 3897,1110 3909,1110 3910,1109 3947,1109 3948,1108 3952,1108 3953,1107 3972,1107 3973,1108 3982,1108 3983,1107 3990,1107 3991,1108 4004,1108 4005,1107 4020,1107 4021,1108 4040,1108 4041,1109 4047,1109 4048,1110 4049,1110 4050,1109 4089,1109 4090,1110 4125,1110 4126,1109 4153,1109 4154,1110 4187,1110 4188,1111 4195,1111 4196,1110 4208,1110 4209,1111 4244,1111 4245,1110 4285,1110 4286,1109 4292,1109 4293,1108 4297,1108 4298,1107 4304,1107 4305,1108 4327,1108 4328,1109 4343,1109 4344,1108 4390,1108 4391,1109 4409,1109 4410,1108 4514,1108 4515,1107 4529,1107 4530,1106 4533,1106 4534,1105 4535,1105 4538,1102 4538,1097 4539,1096 4539,1037 4540,1036 4540,1008 4539,1007 4539,938 4538,937 4538,759 4537,758 4537,754 4536,753 4536,751 4535,750 4535,749 4534,749 4533,748 4529,748 4528,747" fill="rgba(169,219,187,0.3)" stroke="rgb(169,219,187)" stroke-width="2" data-block-id="0013" data-name="b-0016" /><text x="4085" y="951" text-anchor="middle" dominant-baseline="middle" class="block-label" fill="rgb(169,219,187)" stroke="white" stroke-width="3" paint-order="stroke">b-0016</text><polygon points="2636,2738 2635,2739 2588,2739 2587,2740 2568,2740 2567,2741 2542,2741 2541,2742 2516,2742 2515,2743 2509,2743 2508,2742 2494,2742 2493,2743 2482,2743 2481,2742 2446,2742 2445,2743 2419,2743 2418,2744 2394,2744 2393,2745 2389,2745 2388,2744 2377,2744 2376,2745 2366,2745 2365,2744 2361,2744 2360,2743 2340,2743 2339,2744 2281,2744 2280,2745 2250,2745 2249,2746 2230,2746 2229,2747 2174,2747 2173,2746 2160,2746 2159,2747 2151,2747 2150,2746 2145,2746 2144,2745 2135,2745 2134,2744 2128,2744 2127,2745 2122,2745 2121,2746 2107,2746 2106,2747 2090,2747 2089,2748 2075,2748 2074,2749 2057,2749 2056,2748 2018,2748 2017,2749 1998,2749 1997,2750 1949,2750 1948,2751 1932,2751 1931,2752 1925,2752 1924,2753 1923,2753 1922,2754 1921,2754 1921,2755 1920,2756 1920,2757 1919,2758 1919,2762 1918,2763 1918,2764 1919,2765 1919,2869 1918,2870 1918,2886 1917,2887 1917,2897 1918,2898 1918,2921 1917,2922 1917,2932 1918,2933 1918,2938 1919,2939 1919,2944 1918,2945 1918,2968 1919,2969 1919,2972 1920,2973 1920,2975 1921,2976 1921,2983 1922,2984 1922,2996 1921,2997 1921,3000 1922,3001 1922,3018 1921,3019 1921,3024 1920,3025 1920,3029 1919,3030 1919,3034 1918,3035 1918,3042 1917,3043 1917,3051 1916,3052 1916,3081 1915,3082 1915,3109 1916,3110 1916,3112 1920,3116 1922,3116 1923,3117 2019,3117 2020,3116 2054,3116 2055,3115 2063,3115 2064,3114 2092,3114 2093,3113 2097,3113 2098,3112 2109,3112 2110,3111 2142,3111 2143,3112 2146,3112 2147,3113 2152,3113 2153,3114 2169,3114 2170,3113 2186,3113 2187,3114 2206,3114 2207,3113 2213,3113 2214,3114 2219,3114 2220,3115 2224,3115 2225,3116 2246,3116 2247,3115 2276,3115 2277,3114 2287,3114 2288,3115 2317,3115 2318,3114 2323,3114 2324,3113 2329,3113 2330,3112 2365,3112 2366,3111 2373,3111 2374,3112 2383,3112 2384,3111 2397,3111 2398,3110 2405,3110 2406,3111 2436,3111 2437,3110 2440,3110 2441,3111 2445,3111 2446,3112 2461,3112 2462,3111 2473,3111 2474,3110 2522,3110 2523,3109 2528,3109 2529,3108 2532,3108 2533,3107 2567,3107 2568,3106 2584,3106 2585,3105 2601,3105 2602,3104 2619,3104 2620,3105 2641,3105 2642,3104 2644,3104 2647,3101 2647,3100 2648,3099 2648,3097 2649,3096 2649,3087 2650,3086 2650,3068 2651,3067 2651,2980 2652,2979 2652,2972 2651,2971 2651,2941 2652,2940 2652,2801 2651,2800 2651,2791 2652,2790 2652,2751 2651,2750 2651,2746 2650,2745 2650,2743 2647,2740 2646,2740 2645,2739 2643,2739 2642,2738" fill="rgba(207,14,189,0.3)" stroke="rgb(207,14,189)" stroke-width="2" data-block-id="0014" data-name="b-0017" /><text x="2250" y="2937" text-anchor="middle" dominant-baseline="middle" class="block-label" fill="rgb(207,14,189)" stroke="white" stroke-width="3" paint-order="stroke">b-0017</text><polygon points="4438,2246 4437,2247 4432,2247 4431,2248 4421,2248 4420,2247 4390,2247 4389,2248 4386,2248 4385,2249 4374,2249 4373,2248 4360,2248 4359,2249 4356,2249 4355,2248 4342,2248 4341,2249 4335,2249 4334,2250 4329,2250 4328,2249 4316,2249 4315,2248 4306,2248 4305,2247 4297,2247 4296,2248 4294,2248 4293,2249 4292,2249 4291,2250 4290,2250 4287,2253 4284,2253 4282,2251 4281,2251 4280,2250 4278,2250 4277,2249 4273,2249 4272,2248 4259,2248 4258,2249 4246,2249 4245,2250 4221,2250 4220,2251 4205,2251 4204,2252 4200,2252 4199,2253 4197,2253 4196,2254 4194,2254 4193,2255 4188,2255 4187,2254 4186,2254 4185,2253 4184,2253 4183,2252 4182,2252 4181,2251 4178,2251 4177,2250 4176,2251 4172,2251 4171,2252 4162,2252 4161,2253 4132,2253 4131,2254 4128,2254 4127,2253 4117,2253 4116,2254 4087,2254 4086,2255 4080,2255 4079,2254 4040,2254 4039,2255 4036,2255 4035,2254 4032,2254 4031,2253 4029,2253 4028,2252 4025,2252 4024,2251 4022,2251 4021,2252 4018,2252 4017,2253 4015,2253 4014,2254 4007,2254 4006,2253 3992,2253 3991,2254 3984,2254 3983,2253 3978,2253 3977,2252 3966,2252 3965,2253 3944,2253 3943,2254 3939,2254 3938,2253 3934,2253 3933,2252 3928,2252 3927,2251 3926,2251 3925,2252 3921,2252 3920,2253 3911,2253 3910,2252 3899,2252 3898,2253 3895,2253 3894,2254 3891,2254 3890,2253 3887,2253 3886,2252 3884,2252 3883,2251 3880,2251 3879,2250 3878,2250 3877,2251 3872,2251 3871,2252 3863,2252 3862,2251 3854,2251 3853,2252 3848,2252 3847,2253 3841,2253 3840,2252 3835,2252 3834,2251 3829,2251 3828,2252 3814,2252 3813,2251 3807,2251 3806,2252 3801,2252 3800,2253 3794,2253 3793,2254 3788,2254 3787,2255 3785,2255 3784,2256 3783,2256 3779,2260 3779,2274 3780,2275 3780,2278 3781,2279 3781,2282 3782,2283 3782,2337 3783,2338 3783,2346 3782,2347 3782,2354 3781,2355 3781,2359 3782,2360 3782,2382 3783,2383 3783,2394 3782,2395 3782,2419 3783,2420 3783,2435 3784,2436 3784,2440 3783,2441 3783,2468 3784,2469 3784,2478 3785,2479 3785,2490 3784,2491 3784,2505 3785,2506 3785,2511 3786,2512 3786,2541 3785,2542 3785,2555 3786,2556 3786,2565 3785,2566 3785,2595 3786,2596 3786,2598 3791,2603 3792,2603 3793,2604 3794,2604 3795,2605 3798,2605 3799,2606 3802,2606 3803,2607 3813,2607 3814,2606 3817,2606 3818,2605 3824,2605 3825,2606 3830,2606 3831,2607 3832,2607 3833,2606 3836,2606 3837,2605 3839,2605 3840,2604 3842,2604 3843,2603 3846,2603 3847,2604 3848,2604 3849,2605 3851,2605 3852,2606 3853,2606 3854,2607 3858,2607 3859,2606 3861,2606 3862,2605 3864,2605 3865,2604 3872,2604 3873,2605 3877,2605 3878,2606 3884,2606 3885,2605 3895,2605 3896,2606 3899,2606 3900,2607 3922,2607 3923,2608 3931,2608 3932,2607 3936,2607 3937,2606 3944,2606 3945,2607 3953,2607 3954,2606 3956,2606 3957,2605 3959,2605 3960,2604 3968,2604 3969,2605 3971,2605 3972,2606 3978,2606 3979,2605 3982,2605 3983,2604 3985,2604 3986,2603 3989,2603 3990,2604 3993,2604 3994,2605 3998,2605 3999,2606 4001,2606 4002,2605 4006,2605 4007,2604 4014,2604 4015,2605 4017,2605 4018,2606 4027,2606 4028,2605 4029,2605 4030,2604 4032,2604 4033,2603 4039,2603 4040,2604 4043,2604 4044,2605 4056,2605 4057,2604 4074,2604 4075,2603 4086,2603 4087,2604 4090,2604 4091,2605 4099,2605 4100,2604 4104,2604 4105,2603 4112,2603 4113,2604 4123,2604 4124,2603 4135,2603 4136,2604 4151,2604 4152,2603 4160,2603 4161,2604 4169,2604 4170,2603 4179,2603 4180,2602 4201,2602 4202,2603 4255,2603 4256,2604 4269,2604 4270,2603 4289,2603 4290,2604 4299,2604 4300,2605 4311,2605 4312,2604 4316,2604 4317,2603 4335,2603 4336,2602 4349,2602 4350,2603 4358,2603 4359,2604 4398,2604 4399,2603 4423,2603 4424,2604 4433,2604 4434,2603 4457,2603 4458,2602 4463,2602 4464,2601 4468,2601 4469,2602 4482,2602 4483,2601 4498,2601 4499,2602 4500,2602 4501,2601 4510,2601 4511,2600 4515,2600 4516,2601 4536,2601 4537,2600 4539,2600 4540,2599 4542,2599 4543,2598 4544,2598 4547,2595 4547,2566 4546,2565 4546,2555 4547,2554 4547,2550 4548,2549 4548,2546 4547,2545 4547,2542 4546,2541 4546,2538 4545,2537 4545,2529 4546,2528 4546,2517 4545,2516 4545,2508 4546,2507 4546,2491 4545,2490 4545,2466 4544,2465 4544,2462 4545,2461 4545,2379 4544,2378 4544,2363 4543,2362 4543,2351 4544,2350 4544,2336 4543,2335 4543,2308 4544,2307 4544,2282 4543,2281 4543,2278 4542,2277 4542,2258 4541,2257 4541,2255 4540,2254 4540,2253 4539,2252 4539,2251 4538,2250 4538,2249 4537,2249 4535,2247 4509,2247 4508,2246 4481,2246 4480,2247 4459,2247 4458,2246" fill="rgba(189,174,189,0.3)" stroke="rgb(189,174,189)" stroke-width="2" data-block-id="0015" data-name="b-0018" /><text x="4113" y="2427" text-anchor="middle" dominant-baseline="middle" class="block-label" fill="rgb(189,174,189)" stroke="white" stroke-width="3" paint-order="stroke">b-0018</text><polygon points="1939,741 1938,742 1932,742 1931,743 1928,743 1925,746 1925,770 1924,771 1924,843 1923,844 1923,849 1922,850 1922,857 1923,858 1923,904 1924,905 1924,967 1925,968 1925,979 1926,980 1926,999 1927,1000 1927,1006 1928,1007 1928,1025 1929,1026 1929,1037 1928,1038 1928,1105 1929,1106 1929,1107 1931,1109 1932,1109 1933,1110 1934,1110 1935,1111 1957,1111 1958,1110 1976,1110 1977,1109 1986,1109 1987,1108 1990,1108 1991,1109 2001,1109 2002,1108 2037,1108 2038,1109 2099,1109 2100,1108 2191,1108 2192,1109 2199,1109 2200,1110 2211,1110 2212,1109 2215,1109 2216,1108 2219,1108 2220,1107 2231,1107 2232,1108 2264,1108 2265,1109 2271,1109 2272,1110 2288,1110 2289,1109 2301,1109 2302,1110 2315,1110 2316,1109 2334,1109 2335,1110 2338,1110 2339,1111 2359,1111 2360,1110 2365,1110 2366,1109 2370,1109 2371,1110 2410,1110 2411,1111 2430,1111 2431,1110 2438,1110 2439,1109 2443,1109 2444,1110 2484,1110 2485,1111 2503,1111 2504,1110 2532,1110 2533,1111 2554,1111 2555,1112 2576,1112 2577,1111 2593,1111 2594,1112 2616,1112 2617,1113 2637,1113 2638,1112 2644,1112 2645,1111 2647,1111 2648,1110 2649,1110 2650,1109 2651,1109 2651,1108 2653,1106 2653,1104 2654,1103 2654,1068 2653,1067 2653,1052 2654,1051 2654,963 2655,962 2655,939 2654,938 2654,934 2655,933 2655,807 2654,806 2654,800 2655,799 2655,791 2654,790 2654,756 2653,755 2653,751 2652,750 2652,748 2651,747 2651,746 2650,746 2648,744 2645,744 2644,743 2638,743 2637,744 2565,744 2564,743 2504,743 2503,742 2498,742 2497,743 2481,743 2480,744 2461,744 2460,743 2375,743 2374,744 2349,744 2348,743 2281,743 2280,744 2263,744 2262,743 2260,743 2259,744 2241,744 2240,743 2235,743 2234,744 2198,744 2197,745 2192,745 2191,746 2126,746 2125,745 2106,745 2105,744 2100,744 2099,743 2086,743 2085,744 2079,744 2078,743 2068,743 2067,742 2028,742 2027,741 2014,741 2013,742 1981,742 1980,741" fill="rgba(50,107,54,0.3)" stroke="rgb(50,107,54)" stroke-width="2" data-block-id="0016" data-name="b-0019" /><text x="2291" y="949" text-anchor="middle" dominant-baseline="middle" class="block-label" fill="rgb(50,107,54)" stroke="white" stroke-width="3" paint-order="stroke">b-0019</text><polygon points="1936,1295 1935,1296 1930,1296 1929,1297 1928,1297 1927,1298 1926,1298 1925,1299 1925,1300 1924,1301 1924,1303 1923,1304 1923,1315 1924,1316 1924,1322 1923,1323 1923,1454 1922,1455 1922,1473 1923,1474 1923,1610 1922,1611 1922,1653 1923,1654 1923,1655 1924,1656 1924,1657 1925,1658 1925,1659 1926,1660 1927,1660 1928,1661 1931,1661 1932,1662 1953,1662 1954,1663 1993,1663 1994,1662 2028,1662 2029,1663 2046,1663 2047,1662 2055,1662 2056,1661 2076,1661 2077,1660 2127,1660 2128,1659 2137,1659 2138,1660 2144,1660 2145,1659 2159,1659 2160,1660 2171,1660 2172,1659 2183,1659 2184,1658 2190,1658 2191,1659 2218,1659 2219,1660 2244,1660 2245,1659 2248,1659 2249,1660 2287,1660 2288,1661 2342,1661 2343,1660 2358,1660 2359,1661 2375,1661 2376,1660 2393,1660 2394,1661 2424,1661 2425,1660 2439,1660 2440,1661 2454,1661 2455,1660 2460,1660 2461,1659 2465,1659 2466,1660 2470,1660 2471,1661 2601,1661 2602,1660 2618,1660 2619,1659 2636,1659 2637,1660 2642,1660 2643,1659 2646,1659 2647,1658 2648,1658 2649,1657 2650,1657 2651,1656 2651,1655 2653,1653 2653,1643 2654,1642 2653,1641 2653,1574 2654,1573 2654,1470 2653,1469 2653,1344 2654,1343 2654,1339 2653,1338 2653,1303 2652,1302 2652,1301 2649,1298 2647,1298 2646,1297 2613,1297 2612,1298 2575,1298 2574,1297 2568,1297 2567,1298 2554,1298 2553,1297 2536,1297 2535,1298 2517,1298 2516,1299 2505,1299 2504,1298 2370,1298 2369,1297 2308,1297 2307,1296 2277,1296 2276,1297 2258,1297 2257,1296 2248,1296 2247,1297 2191,1297 2190,1296 2182,1296 2181,1297 2178,1297 2177,1296 2106,1296 2105,1297 2104,1297 2103,1296 2073,1296 2072,1297 2054,1297 2053,1296 2028,1296 2027,1295 2015,1295 2014,1296 2008,1296 2007,1295" fill="rgba(243,63,248,0.3)" stroke="rgb(243,63,248)" stroke-width="2" data-block-id="0017" data-name="b-0020" /><text x="2267" y="1498" text-anchor="middle" dominant-baseline="middle" class="block-label" fill="rgb(243,63,248)" stroke="white" stroke-width="3" paint-order="stroke">b-0020</text><polygon points="3527,1769 3526,1770 3467,1770 3466,1771 3436,1771 3435,1772 3382,1772 3381,1773 3266,1773 3265,1774 3227,1774 3226,1775 3155,1775 3154,1776 3151,1776 3150,1775 3133,1775 3132,1776 3126,1776 3125,1775 2988,1775 2987,1774 2986,1775 2942,1775 2941,1774 2933,1774 2932,1775 2922,1775 2921,1776 2919,1776 2916,1779 2916,1781 2915,1782 2915,1786 2914,1787 2914,1897 2915,1898 2915,1906 2914,1907 2914,1944 2915,1945 2915,1958 2914,1959 2914,1965 2915,1966 2915,2110 2914,2111 2914,2130 2915,2131 2915,2136 2916,2137 2916,2141 2917,2142 2917,2143 2920,2146 2922,2146 2923,2147 2933,2147 2934,2148 2941,2148 2942,2147 3004,2147 3005,2146 3061,2146 3062,2145 3067,2145 3068,2144 3076,2144 3077,2143 3125,2143 3126,2142 3150,2142 3151,2143 3156,2143 3157,2142 3174,2142 3175,2143 3176,2142 3198,2142 3199,2143 3231,2143 3232,2142 3237,2142 3238,2143 3250,2143 3251,2142 3262,2142 3263,2141 3270,2141 3271,2140 3277,2140 3278,2139 3282,2139 3283,2138 3302,2138 3303,2137 3342,2137 3343,2136 3360,2136 3361,2137 3422,2137 3423,2136 3434,2136 3435,2137 3442,2137 3443,2136 3452,2136 3453,2137 3471,2137 3472,2136 3477,2136 3478,2137 3491,2137 3492,2136 3512,2136 3513,2135 3548,2135 3549,2136 3555,2136 3556,2137 3564,2137 3565,2136 3571,2136 3572,2137 3576,2137 3577,2138 3585,2138 3586,2137 3590,2137 3591,2136 3623,2136 3624,2135 3628,2135 3629,2134 3631,2134 3632,2133 3633,2133 3636,2130 3636,2129 3637,2128 3637,2108 3636,2107 3636,2088 3635,2087 3635,2065 3636,2064 3636,2055 3637,2054 3637,2017 3638,2016 3638,1965 3639,1964 3639,1961 3638,1960 3638,1930 3637,1929 3637,1928 3638,1927 3638,1898 3639,1897 3639,1836 3638,1835 3638,1803 3639,1802 3639,1795 3640,1794 3639,1793 3639,1782 3638,1781 3638,1779 3637,1778 3637,1777 3636,1776 3636,1775 3632,1771 3631,1771 3630,1770 3626,1770 3625,1769 3588,1769 3587,1770 3580,1770 3579,1769" fill="rgba(130,228,50,0.3)" stroke="rgb(130,228,50)" stroke-width="2" data-block-id="0018" data-name="b-0021" /><text x="3324" y="1998" text-anchor="middle" dominant-baseline="middle" class="block-label" fill="rgb(130,228,50)" stroke="white" stroke-width="3" paint-order="stroke">b-0021</text><polygon points="2928,741 2927,742 2923,742 2922,743 2920,743 2916,747 2916,751 2915,752 2915,764 2914,765 2914,807 2913,808 2913,843 2912,844 2912,855 2913,856 2913,859 2914,860 2914,862 2915,863 2915,870 2914,871 2914,918 2913,919 2913,934 2914,935 2914,936 2913,937 2913,954 2914,955 2914,970 2913,971 2913,1029 2914,1030 2914,1035 2913,1036 2913,1049 2914,1050 2914,1067 2913,1068 2913,1069 2914,1070 2914,1081 2913,1082 2913,1099 2914,1100 2914,1104 2915,1105 2915,1107 2917,1109 2918,1109 2919,1110 2920,1110 2921,1111 2923,1111 2924,1112 2928,1112 2929,1111 2935,1111 2936,1110 2971,1110 2972,1111 2999,1111 3000,1110 3005,1110 3006,1109 3023,1109 3024,1110 3035,1110 3036,1111 3040,1111 3041,1112 3046,1112 3047,1113 3051,1113 3052,1114 3057,1114 3058,1113 3059,1113 3060,1112 3061,1112 3063,1110 3065,1110 3066,1109 3078,1109 3079,1110 3110,1110 3111,1111 3126,1111 3127,1112 3128,1111 3138,1111 3139,1110 3175,1110 3176,1111 3181,1111 3182,1112 3190,1112 3191,1113 3201,1113 3202,1112 3204,1112 3205,1111 3206,1111 3207,1110 3209,1110 3210,1109 3215,1109 3216,1110 3247,1110 3248,1111 3254,1111 3255,1112 3272,1112 3273,1111 3305,1111 3306,1110 3307,1111 3318,1111 3319,1112 3321,1112 3322,1113 3324,1113 3325,1114 3327,1114 3328,1115 3331,1115 3332,1116 3346,1116 3347,1115 3350,1115 3351,1114 3352,1114 3353,1113 3356,1113 3357,1112 3404,1112 3405,1113 3409,1113 3410,1114 3411,1114 3412,1115 3427,1115 3428,1114 3431,1114 3432,1113 3437,1113 3438,1112 3443,1112 3444,1111 3448,1111 3449,1110 3479,1110 3480,1111 3495,1111 3496,1112 3511,1112 3512,1111 3528,1111 3529,1112 3534,1112 3535,1113 3541,1113 3542,1112 3545,1112 3546,1113 3556,1113 3557,1114 3574,1114 3575,1113 3584,1113 3585,1112 3598,1112 3599,1113 3602,1113 3603,1114 3617,1114 3618,1113 3622,1113 3623,1112 3627,1112 3628,1111 3630,1111 3631,1110 3632,1110 3633,1109 3633,1108 3635,1106 3635,1104 3636,1103 3636,1098 3637,1097 3637,1072 3638,1071 3638,1067 3637,1066 3637,1058 3636,1057 3636,1026 3637,1025 3637,1014 3636,1013 3636,1001 3635,1000 3635,979 3636,978 3636,969 3635,968 3635,948 3634,947 3634,935 3635,934 3635,909 3634,908 3634,896 3633,895 3633,881 3634,880 3634,872 3633,871 3633,834 3634,833 3634,828 3633,827 3633,819 3632,818 3632,769 3631,768 3631,761 3630,760 3630,757 3629,756 3629,755 3628,754 3628,753 3627,753 3625,751 3623,751 3622,750 3619,750 3618,749 3591,749 3590,748 3586,748 3585,747 3583,747 3582,746 3579,746 3578,745 3561,745 3560,746 3554,746 3553,747 3538,747 3537,748 3532,748 3531,747 3518,747 3517,748 3508,748 3507,747 3505,747 3504,746 3502,746 3501,745 3500,745 3499,744 3498,744 3497,743 3479,743 3478,744 3458,744 3457,745 3446,745 3445,746 3437,746 3436,747 3423,747 3422,748 3407,748 3406,747 3382,747 3381,748 3360,748 3359,747 3341,747 3340,746 3333,746 3332,745 3328,745 3327,746 3311,746 3310,747 3290,747 3289,746 3269,746 3268,745 3266,745 3265,744 3258,744 3257,743 3241,743 3240,742 3219,742 3218,743 3182,743 3181,744 3165,744 3164,743 3132,743 3131,744 3100,744 3099,743 3084,743 3083,744 3058,744 3057,743 3050,743 3049,742 3036,742 3035,743 3025,743 3024,742 3016,742 3015,743 3006,743 3005,742 2993,742 2992,743 2983,743 2982,742 2955,742 2954,741" fill="rgba(134,20,72,0.3)" stroke="rgb(134,20,72)" stroke-width="2" data-block-id="0019" data-name="b-0022" /><text x="3296" y="949" text-anchor="middle" dominant-baseline="middle" class="block-label" fill="rgb(134,20,72)" stroke="white" stroke-width="3" paint-order="stroke">b-0022</text><polygon points="2056,263 2055,264 1981,264 1980,265 1966,265 1965,264 1959,264 1958,265 1945,265 1944,264 1940,264 1939,265 1936,265 1935,266 1934,266 1932,268 1932,269 1931,270 1931,295 1930,296 1930,303 1929,304 1929,306 1930,307 1930,322 1929,323 1929,331 1930,332 1930,340 1931,341 1930,342 1930,393 1931,394 1931,403 1930,404 1930,486 1929,487 1929,511 1930,512 1930,533 1931,534 1931,557 1930,558 1930,572 1931,573 1931,588 1930,589 1930,591 1931,592 1931,598 1932,599 1932,606 1931,607 1931,617 1932,618 1932,620 1933,621 1933,622 1934,623 1934,624 1937,627 1939,627 1940,628 1959,628 1960,627 1962,627 1963,628 2008,628 2009,629 2028,629 2029,628 2052,628 2053,629 2074,629 2075,628 2093,628 2094,629 2172,629 2173,628 2198,628 2199,627 2214,627 2215,628 2222,628 2223,629 2230,629 2231,628 2243,628 2244,629 2255,629 2256,628 2266,628 2267,629 2276,629 2277,628 2292,628 2293,629 2299,629 2300,630 2306,630 2307,631 2313,631 2314,632 2323,632 2324,631 2328,631 2329,630 2361,630 2362,631 2371,631 2372,630 2376,630 2377,629 2383,629 2384,628 2392,628 2393,627 2394,628 2428,628 2429,627 2430,628 2452,628 2453,629 2459,629 2460,630 2465,630 2466,629 2468,629 2469,628 2472,628 2473,627 2480,627 2481,628 2488,628 2489,629 2506,629 2507,630 2576,630 2577,631 2627,631 2628,630 2645,630 2646,629 2647,629 2648,628 2649,628 2650,627 2650,626 2651,625 2651,623 2652,622 2652,619 2653,618 2653,600 2654,599 2654,594 2655,593 2655,570 2656,569 2656,560 2655,559 2655,549 2656,548 2656,526 2657,525 2657,513 2656,512 2656,504 2657,503 2657,501 2658,500 2658,497 2659,496 2659,492 2658,491 2658,482 2657,481 2657,473 2656,472 2656,467 2655,466 2655,462 2654,461 2654,457 2655,456 2655,452 2656,451 2656,415 2655,414 2655,410 2656,409 2656,404 2657,403 2657,394 2656,393 2656,357 2657,356 2657,347 2656,346 2656,308 2657,307 2657,301 2656,300 2656,292 2655,291 2655,282 2654,281 2654,278 2653,277 2653,276 2649,272 2648,272 2646,270 2644,270 2643,269 2631,269 2630,270 2625,270 2624,271 2596,271 2595,270 2585,270 2584,269 2572,269 2571,268 2561,268 2560,267 2552,267 2551,266 2507,266 2506,265 2472,265 2471,264 2459,264 2458,265 2444,265 2443,266 2440,266 2439,265 2436,265 2435,264 2432,264 2431,263 2402,263 2401,264 2340,264 2339,263 2310,263 2309,264 2293,264 2292,263 2266,263 2265,264 2253,264 2252,265 2247,265 2246,264 2235,264 2234,263 2191,263 2190,264 2184,264 2183,263 2098,263 2097,264 2066,264 2065,263" fill="rgba(166,17,131,0.3)" stroke="rgb(166,17,131)" stroke-width="2" data-block-id="0020" data-name="b-0023" /><text x="2332" y="463" text-anchor="middle" dominant-baseline="middle" class="block-label" fill="rgb(166,17,131)" stroke="white" stroke-width="3" paint-order="stroke">b-0023</text><polygon points="2584,2260 2583,2261 2577,2261 2576,2262 2564,2262 2563,2261 2532,2261 2531,2262 2526,2262 2525,2263 2522,2263 2521,2262 2515,2262 2514,2261 2489,2261 2488,2262 2486,2262 2485,2263 2484,2263 2483,2264 2482,2264 2481,2265 2479,2265 2478,2266 2473,2266 2472,2265 2469,2265 2468,2264 2458,2264 2457,2265 2437,2265 2436,2266 2411,2266 2410,2267 2374,2267 2373,2266 2359,2266 2358,2267 2331,2267 2330,2266 2313,2266 2312,2267 2304,2267 2303,2266 2291,2266 2290,2267 2279,2267 2278,2266 2268,2266 2267,2267 2230,2267 2229,2266 2220,2266 2219,2267 2211,2267 2210,2266 2208,2266 2207,2265 2204,2265 2203,2264 2197,2264 2196,2265 2183,2265 2182,2266 2149,2266 2148,2267 2133,2267 2132,2268 2118,2268 2117,2269 2102,2269 2101,2270 2079,2270 2078,2269 2055,2269 2054,2268 2038,2268 2037,2267 1960,2267 1959,2268 1952,2268 1951,2269 1948,2269 1947,2268 1937,2268 1936,2269 1932,2269 1931,2270 1927,2270 1926,2271 1925,2271 1923,2273 1923,2274 1922,2275 1922,2276 1921,2277 1921,2280 1920,2281 1920,2306 1919,2307 1919,2320 1920,2321 1920,2335 1919,2336 1919,2344 1920,2345 1920,2349 1921,2350 1921,2353 1922,2354 1922,2362 1921,2363 1921,2386 1920,2387 1920,2391 1921,2392 1921,2397 1922,2398 1922,2401 1923,2402 1923,2405 1922,2406 1922,2408 1921,2409 1921,2413 1920,2414 1920,2432 1921,2433 1921,2445 1920,2446 1920,2486 1921,2487 1921,2517 1920,2518 1920,2555 1919,2556 1919,2561 1920,2562 1920,2570 1921,2571 1921,2578 1920,2579 1920,2584 1921,2585 1921,2599 1920,2600 1920,2609 1921,2610 1921,2613 1922,2614 1922,2619 1923,2620 1923,2624 1924,2625 1924,2628 1925,2629 1925,2630 1926,2630 1928,2632 1934,2632 1935,2633 1947,2633 1948,2634 1971,2634 1972,2633 2040,2633 2041,2632 2051,2632 2052,2631 2055,2631 2056,2630 2061,2630 2062,2631 2079,2631 2080,2630 2091,2630 2092,2629 2094,2629 2095,2630 2105,2630 2106,2631 2121,2631 2122,2630 2127,2630 2128,2629 2190,2629 2191,2630 2194,2630 2195,2631 2199,2631 2200,2632 2202,2632 2203,2631 2206,2631 2207,2630 2210,2630 2211,2629 2214,2629 2215,2628 2220,2628 2221,2627 2231,2627 2232,2628 2239,2628 2240,2629 2244,2629 2245,2630 2253,2630 2254,2629 2258,2629 2259,2628 2262,2628 2263,2629 2265,2629 2266,2630 2269,2630 2270,2631 2291,2631 2292,2630 2339,2630 2340,2629 2366,2629 2367,2628 2379,2628 2380,2627 2412,2627 2413,2626 2419,2626 2420,2625 2423,2625 2424,2624 2426,2624 2427,2623 2436,2623 2437,2624 2483,2624 2484,2623 2530,2623 2531,2622 2555,2622 2556,2623 2573,2623 2574,2622 2581,2622 2582,2621 2625,2621 2626,2620 2635,2620 2636,2619 2641,2619 2642,2618 2643,2618 2645,2616 2645,2613 2646,2612 2646,2609 2647,2608 2647,2587 2646,2586 2646,2581 2647,2580 2647,2570 2648,2569 2648,2557 2649,2556 2649,2539 2650,2538 2650,2509 2649,2508 2649,2455 2648,2454 2648,2450 2649,2449 2649,2445 2650,2444 2650,2431 2649,2430 2649,2350 2648,2349 2648,2327 2649,2326 2649,2301 2648,2300 2648,2290 2649,2289 2649,2281 2648,2280 2648,2271 2647,2270 2647,2269 2646,2268 2646,2267 2645,2266 2645,2265 2644,2264 2643,2264 2642,2263 2639,2263 2638,2262 2620,2262 2619,2261 2596,2261 2595,2260" fill="rgba(88,59,13,0.3)" stroke="rgb(88,59,13)" stroke-width="2" data-block-id="0021" data-name="b-0024" /><text x="2259" y="2443" text-anchor="middle" dominant-baseline="middle" class="block-label" fill="rgb(88,59,13)" stroke="white" stroke-width="3" paint-order="stroke">b-0024</text><polygon points="2949,1295 2948,1296 2925,1296 2924,1297 2920,1297 2919,1298 2918,1298 2915,1301 2915,1302 2914,1303 2914,1306 2913,1307 2913,1459 2914,1460 2914,1467 2915,1468 2915,1475 2914,1476 2914,1479 2913,1480 2913,1482 2912,1483 2912,1517 2913,1518 2913,1529 2912,1530 2912,1535 2913,1536 2913,1587 2912,1588 2912,1653 2913,1654 2913,1655 2914,1656 2914,1657 2915,1658 2915,1659 2916,1659 2917,1660 2918,1660 2919,1661 2921,1661 2922,1662 2948,1662 2949,1663 2951,1663 2952,1662 3009,1662 3010,1661 3046,1661 3047,1660 3053,1660 3054,1659 3082,1659 3083,1658 3089,1658 3090,1657 3095,1657 3096,1656 3153,1656 3154,1657 3160,1657 3161,1658 3167,1658 3168,1657 3173,1657 3174,1656 3183,1656 3184,1655 3193,1655 3194,1654 3242,1654 3243,1653 3251,1653 3252,1654 3300,1654 3301,1655 3314,1655 3315,1654 3350,1654 3351,1655 3394,1655 3395,1656 3450,1656 3451,1657 3473,1657 3474,1658 3518,1658 3519,1659 3524,1659 3525,1658 3575,1658 3576,1659 3583,1659 3584,1658 3619,1658 3620,1657 3629,1657 3630,1656 3632,1656 3633,1655 3634,1655 3637,1652 3637,1647 3638,1646 3638,1611 3637,1610 3637,1597 3638,1596 3638,1571 3637,1570 3637,1543 3638,1542 3638,1537 3639,1536 3639,1479 3640,1478 3640,1457 3639,1456 3639,1410 3638,1409 3638,1314 3637,1313 3637,1304 3636,1303 3636,1301 3635,1300 3635,1299 3634,1298 3633,1298 3632,1297 3629,1297 3628,1296 3573,1296 3572,1297 3539,1297 3538,1296 3533,1296 3532,1297 3482,1297 3481,1298 3470,1298 3469,1297 3401,1297 3400,1296 3374,1296 3373,1297 3354,1297 3353,1296 3341,1296 3340,1297 3322,1297 3321,1296 3314,1296 3313,1297 3140,1297 3139,1296 3110,1296 3109,1297 3097,1297 3096,1296 3050,1296 3049,1295 3006,1295 3005,1296 2997,1296 2996,1297 2994,1297 2993,1296 2978,1296 2977,1295" fill="rgba(241,249,8,0.3)" stroke="rgb(241,249,8)" stroke-width="2" data-block-id="0022" data-name="b-0025" /><text x="3252" y="1498" text-anchor="middle" dominant-baseline="middle" class="block-label" fill="rgb(241,249,8)" stroke="white" stroke-width="3" paint-order="stroke">b-0025</text><polygon points="3580,2252 3579,2253 3575,2253 3574,2254 3567,2254 3566,2255 3523,2255 3522,2256 3501,2256 3500,2255 3478,2255 3477,2256 3451,2256 3450,2255 3439,2255 3438,2256 3431,2256 3430,2257 3425,2257 3424,2256 3421,2256 3420,2255 3399,2255 3398,2256 3387,2256 3386,2255 3381,2255 3380,2254 3367,2254 3366,2255 3270,2255 3269,2256 3263,2256 3262,2257 3251,2257 3250,2258 3245,2258 3244,2257 3207,2257 3206,2258 3177,2258 3176,2259 3167,2259 3166,2260 3142,2260 3141,2261 3100,2261 3099,2260 3094,2260 3093,2259 3077,2259 3076,2258 3053,2258 3052,2257 3037,2257 3036,2258 3000,2258 2999,2257 2998,2257 2997,2258 2989,2258 2988,2259 2970,2259 2969,2260 2958,2260 2957,2261 2942,2261 2941,2262 2932,2262 2931,2263 2926,2263 2925,2264 2924,2264 2923,2265 2922,2265 2917,2270 2917,2272 2916,2273 2916,2305 2917,2306 2917,2309 2916,2310 2916,2337 2915,2338 2915,2352 2916,2353 2916,2368 2915,2369 2915,2378 2914,2379 2914,2401 2913,2402 2913,2410 2912,2411 2912,2421 2913,2422 2913,2427 2914,2428 2914,2434 2915,2435 2915,2446 2914,2447 2914,2462 2915,2463 2915,2467 2916,2468 2916,2470 2917,2471 2917,2473 2918,2474 2918,2486 2917,2487 2917,2495 2916,2496 2916,2526 2917,2527 2917,2545 2916,2546 2916,2549 2917,2550 2917,2572 2918,2573 2918,2612 2919,2613 2919,2618 2920,2619 2920,2620 2921,2620 2923,2622 2924,2622 2925,2623 2956,2623 2957,2622 2972,2622 2973,2623 3004,2623 3005,2622 3029,2622 3030,2623 3049,2623 3050,2622 3056,2622 3057,2621 3074,2621 3075,2622 3095,2622 3096,2621 3109,2621 3110,2620 3155,2620 3156,2619 3161,2619 3162,2618 3174,2618 3175,2619 3176,2618 3204,2618 3205,2617 3257,2617 3258,2616 3290,2616 3291,2617 3300,2617 3301,2616 3324,2616 3325,2615 3337,2615 3338,2616 3344,2616 3345,2615 3366,2615 3367,2614 3373,2614 3374,2613 3378,2613 3379,2612 3395,2612 3396,2611 3407,2611 3408,2612 3441,2612 3442,2611 3475,2611 3476,2612 3495,2612 3496,2611 3500,2611 3501,2612 3542,2612 3543,2611 3550,2611 3551,2612 3566,2612 3567,2611 3571,2611 3572,2612 3596,2612 3597,2611 3602,2611 3603,2610 3614,2610 3615,2609 3625,2609 3626,2608 3630,2608 3634,2604 3634,2602 3635,2601 3635,2600 3636,2599 3636,2596 3637,2595 3637,2588 3638,2587 3638,2567 3637,2566 3637,2561 3636,2560 3636,2547 3637,2546 3637,2538 3638,2537 3638,2519 3637,2518 3637,2512 3636,2511 3636,2497 3637,2496 3637,2473 3636,2472 3636,2467 3635,2466 3635,2460 3636,2459 3636,2452 3637,2451 3637,2432 3636,2431 3636,2423 3635,2422 3635,2400 3636,2399 3636,2395 3637,2394 3637,2377 3636,2376 3636,2371 3635,2370 3635,2360 3634,2359 3634,2357 3635,2356 3635,2351 3636,2350 3636,2346 3637,2345 3637,2334 3636,2333 3636,2326 3635,2325 3635,2303 3636,2302 3636,2283 3635,2282 3635,2278 3634,2277 3634,2272 3633,2271 3633,2267 3634,2266 3634,2262 3633,2261 3633,2259 3632,2258 3632,2257 3629,2254 3628,2254 3627,2253 3622,2253 3621,2252" fill="rgba(89,52,129,0.3)" stroke="rgb(89,52,129)" stroke-width="2" data-block-id="0023" data-name="b-0026" /><text x="3299" y="2433" text-anchor="middle" dominant-baseline="middle" class="block-label" fill="rgb(89,52,129)" stroke="white" stroke-width="3" paint-order="stroke">b-0026</text><polygon points="2923,263 2922,264 2921,264 2920,265 2919,265 2918,266 2917,266 2916,267 2916,268 2915,269 2915,283 2914,284 2914,297 2915,298 2915,300 2916,301 2916,307 2915,308 2915,310 2914,311 2914,313 2913,314 2913,321 2914,322 2914,331 2915,332 2915,344 2916,345 2916,356 2915,357 2915,382 2916,383 2916,473 2915,474 2915,490 2916,491 2916,499 2915,500 2915,525 2916,526 2916,545 2915,546 2915,552 2914,553 2914,570 2915,571 2915,576 2916,577 2916,580 2915,581 2915,585 2914,586 2914,609 2915,610 2915,616 2916,617 2916,618 2917,619 2917,620 2918,621 2918,622 2921,625 2922,625 2923,626 2926,626 2927,627 2931,627 2932,628 2940,628 2941,629 2951,629 2952,628 2970,628 2971,629 3004,629 3005,628 3013,628 3014,629 3031,629 3032,630 3051,630 3052,629 3098,629 3099,628 3121,628 3122,629 3167,629 3168,630 3195,630 3196,629 3213,629 3214,630 3221,630 3222,631 3245,631 3246,630 3255,630 3256,631 3266,631 3267,632 3298,632 3299,633 3301,633 3302,634 3303,634 3304,635 3306,635 3307,636 3311,636 3312,637 3319,637 3320,636 3321,636 3322,635 3323,635 3324,634 3326,634 3327,633 3329,633 3330,632 3335,632 3336,631 3343,631 3344,630 3359,630 3360,631 3373,631 3374,632 3397,632 3398,631 3416,631 3417,632 3421,632 3422,633 3434,633 3435,632 3440,632 3441,633 3445,633 3446,634 3451,634 3452,635 3460,635 3461,636 3464,636 3465,637 3467,637 3468,638 3471,638 3472,639 3477,639 3478,638 3481,638 3482,637 3485,637 3486,636 3489,636 3490,635 3496,635 3497,634 3552,634 3553,635 3557,635 3558,636 3577,636 3578,635 3585,635 3586,634 3601,634 3602,635 3613,635 3614,634 3621,634 3622,633 3625,633 3626,632 3627,632 3631,628 3631,627 3632,626 3632,509 3631,508 3631,507 3632,506 3632,423 3631,422 3631,410 3632,409 3632,404 3633,403 3633,391 3632,390 3632,362 3633,361 3633,288 3632,287 3632,283 3631,282 3631,280 3630,279 3629,279 3628,278 3624,278 3623,277 3598,277 3597,276 3538,276 3537,277 3534,277 3533,276 3522,276 3521,275 3519,275 3518,276 3505,276 3504,275 3483,275 3482,274 3478,274 3477,273 3463,273 3462,274 3405,274 3404,275 3399,275 3398,274 3387,274 3386,275 3373,275 3372,274 3365,274 3364,275 3356,275 3355,276 3353,276 3352,275 3340,275 3339,274 3325,274 3324,273 3317,273 3316,274 3311,274 3310,275 3300,275 3299,274 3282,274 3281,273 3274,273 3273,272 3248,272 3247,271 3243,271 3242,270 3239,270 3238,269 3229,269 3228,268 3204,268 3203,269 3201,269 3200,268 3195,268 3194,267 3169,267 3168,268 3154,268 3153,267 3130,267 3129,268 3112,268 3111,267 3094,267 3093,268 3089,268 3088,269 3085,269 3084,270 3079,270 3078,269 3077,269 3076,268 3075,268 3074,267 3073,267 3072,266 3070,266 3069,265 3052,265 3051,264 3003,264 3002,263" fill="rgba(83,91,110,0.3)" stroke="rgb(83,91,110)" stroke-width="2" data-block-id="0024" data-name="b-0027" /><text x="3250" y="459" text-anchor="middle" dominant-baseline="middle" class="block-label" fill="rgb(83,91,110)" stroke="white" stroke-width="3" paint-order="stroke">b-0027</text><polygon points="637,278 636,279 623,279 622,280 620,280 619,281 618,281 617,282 617,293 618,294 618,305 619,306 619,318 620,319 620,335 619,336 619,343 620,344 620,360 621,361 621,368 620,369 620,379 619,380 619,396 620,397 620,400 619,401 619,409 618,410 618,417 619,418 619,432 618,433 618,434 619,435 619,471 620,472 620,494 619,495 619,498 618,499 618,500 616,502 616,503 615,504 615,509 617,511 618,511 623,516 623,517 624,518 624,520 625,521 625,525 626,526 626,531 627,532 627,535 628,536 628,540 629,541 629,545 630,546 630,548 631,549 631,551 632,552 632,553 633,554 633,556 635,558 635,559 636,560 636,561 637,562 637,563 639,565 639,566 640,567 640,568 643,571 643,572 659,588 660,588 663,591 664,591 666,593 667,593 668,594 669,594 670,595 671,595 672,596 673,596 674,597 675,597 676,598 678,598 679,599 681,599 682,600 683,600 684,601 687,601 688,602 693,602 694,603 698,603 699,604 704,604 705,605 721,605 722,604 728,604 729,603 733,603 734,602 737,602 738,601 740,601 741,600 744,600 745,599 747,599 748,598 749,598 750,597 751,597 753,595 754,595 756,593 757,593 759,591 760,591 763,588 764,588 768,584 769,584 778,575 778,574 783,569 783,568 785,566 785,565 787,563 787,562 788,561 788,560 789,559 789,558 790,557 790,556 791,555 791,553 792,552 792,550 793,549 793,547 794,546 794,544 795,543 795,539 796,538 796,535 797,534 797,533 798,532 798,530 799,529 799,527 800,526 800,522 801,521 801,518 802,517 802,516 808,510 808,509 809,508 809,501 808,500 808,494 807,493 807,492 808,491 808,481 807,480 807,427 806,426 806,417 807,416 807,379 806,378 806,376 807,375 807,294 808,293 808,283 809,282 808,281 808,280 807,279 806,279 805,278 779,278 778,279 765,279 764,280 760,280 759,281 758,281 756,283 756,284 754,286 752,286 751,287 747,287 746,288 700,288 699,289 696,289 695,288 674,288 673,287 670,287 669,286 668,286 666,284 665,284 664,283 664,282 663,281 662,281 661,280 657,280 656,279 638,279" fill="rgba(199,205,214,0.3)" stroke="rgb(199,205,214)" stroke-width="2" data-block-id="0025" data-name="b-0039" /><text x="704" y="472" text-anchor="middle" dominant-baseline="middle" class="block-label" fill="rgb(199,205,214)" stroke="white" stroke-width="3" paint-order="stroke">b-0039</text></g>
</svg>