<?xml version='1.0' encoding='utf-8'?>
<svg xmlns="http://www.w3.org/2000/svg" xmlns:atlas="http://example.com/atlas" width="4984" height="3304" viewBox="0 0 4984 3304">
  
  <metadata>
    <atlas:source>
      <atlas:jp2-path>/Users/pwright/workspace/atlas/media/v2/p1.jp2</atlas:jp2-path>
      <atlas:volume>unknown</atlas:volume>
      <atlas:plate-id>p1</atlas:plate-id>
      <atlas:image-width>4984</atlas:image-width>
      <atlas:image-height>3304</atlas:image-height>
    </atlas:source>
  </metadata>

  
  <image id="background" href="file:///Users/pwright/workspace/atlas/media/v2/p1.jp2" width="4984" height="3304" opacity="0.5" />

  <style>
    .block-label { font-family: sans-serif; font-size: 14px; font-weight: bold; }
  </style>

  
  <g id="blocks">
    <polygon points="1769,2019 1768,2020 1765,2020 1764,2021 1750,2021 1749,2022 1639,2022 1638,2023 1568,2023 1567,2024 1503,2024 1502,2023 1499,2023 1498,2024 1482,2024 1481,2025 1476,2025 1475,2026 1472,2026 1471,2025 1462,2025 1461,2024 1430,2024 1429,2023 1422,2023 1421,2024 1410,2024 1409,2023 1376,2023 1375,2024 1361,2024 1360,2023 1340,2023 1339,2024 1276,2024 1275,2025 1269,2025 1268,2024 1262,2024 1261,2023 1240,2023 1239,2024 1213,2024 1212,2023 1197,2023 1196,2024 1181,2024 1180,2025 1161,2025 1160,2024 1121,2024 1120,2023 1104,2023 1103,2024 1071,2024 1070,2023 1054,2023 1053,2024 1029,2024 1028,2023 907,2023 906,2024 889,2024 888,2023 877,2023 876,2022 863,2022 862,2023 854,2023 853,2024 844,2024 843,2025 842,2025 841,2024 836,2024 835,2023 830,2023 829,2022 823,2022 822,2023 809,2023 808,2024 799,2024 798,2023 780,2023 779,2022 765,2022 764,2023 725,2023 724,2022 658,2022 657,2023 650,2023 649,2024 648,2024 647,2025 647,2026 646,2027 646,2028 645,2029 645,2031 644,2032 644,2035 643,2036 643,2049 644,2050 644,2068 643,2069 643,2108 642,2109 642,2128 641,2129 641,2135 642,2136 642,2143 643,2144 643,2157 642,2158 642,2188 643,2189 643,2204 642,2205 642,2241 643,2242 643,2259 642,2260 642,2273 643,2274 643,2288 642,2289 642,2329 643,2330 643,2355 642,2356 642,2375 641,2376 641,2381 640,2382 640,2390 641,2391 641,2396 642,2397 642,2398 644,2400 645,2400 647,2402 649,2402 650,2403 670,2403 671,2404 690,2404 691,2403 707,2403 708,2404 741,2404 742,2403 751,2403 752,2404 814,2404 815,2405 861,2405 862,2404 915,2404 916,2405 949,2405 950,2404 951,2405 1070,2405 1071,2404 1095,2404 1096,2405 1102,2405 1103,2406 1125,2406 1126,2405 1127,2406 1168,2406 1169,2405 1180,2405 1181,2406 1193,2406 1194,2407 1214,2407 1215,2406 1220,2406 1221,2405 1230,2405 1231,2406 1263,2406 1264,2405 1281,2405 1282,2406 1311,2406 1312,2405 1323,2405 1324,2406 1361,2406 1362,2405 1372,2405 1373,2406 1382,2406 1383,2405 1521,2405 1522,2406 1526,2406 1527,2407 1530,2407 1531,2408 1539,2408 1540,2407 1548,2407 1549,2406 1558,2406 1559,2405 1600,2405 1601,2406 1609,2406 1610,2405 1615,2405 1616,2404 1619,2404 1620,2405 1625,2405 1626,2406 1647,2406 1648,2407 1666,2407 1667,2406 1695,2406 1696,2407 1704,2407 1705,2406 1711,2406 1712,2405 1741,2405 1742,2406 1777,2406 1778,2405 1835,2405 1836,2406 1851,2406 1852,2405 1882,2405 1883,2404 1890,2404 1891,2403 1900,2403 1901,2402 1903,2402 1904,2401 1905,2401 1908,2398 1908,2397 1909,2396 1909,2380 1910,2379 1910,2360 1909,2359 1910,2358 1910,2329 1909,2328 1909,2310 1910,2309 1910,2306 1911,2305 1911,2301 1912,2300 1912,2299 1911,2298 1911,2292 1910,2291 1910,2274 1909,2273 1909,2259 1910,2258 1910,2243 1909,2242 1909,2239 1910,2238 1910,2221 1909,2220 1909,2216 1910,2215 1910,2198 1909,2197 1909,2184 1910,2183 1910,2176 1909,2175 1909,2149 1908,2148 1908,2145 1909,2144 1909,2139 1910,2138 1910,2128 1909,2127 1909,2120 1908,2119 1908,2111 1907,2110 1907,2105 1908,2104 1908,2078 1907,2077 1907,2071 1908,2070 1908,2065 1909,2064 1909,2043 1908,2042 1908,2039 1907,2038 1907,2036 1905,2034 1905,2033 1904,2032 1904,2031 1903,2030 1903,2029 1902,2028 1902,2027 1901,2027 1899,2025 1897,2025 1896,2024 1894,2024 1893,2023 1884,2023 1883,2022 1874,2022 1873,2023 1861,2023 1860,2022 1804,2022 1803,2021 1786,2021 1785,2020 1779,2020 1778,2019" fill="rgba(121,210,214,0.3)" stroke="rgb(121,210,214)" stroke-width="2" data-block-id="0001" data-name="b-0004" /><text x="1334" y="2203" text-anchor="middle" dominant-baseline="middle" class="block-label" fill="rgb(121,210,214)" stroke="white" stroke-width="3" paint-order="stroke">b-0004</text><polygon points="789,2515 788,2516 779,2516 778,2517 773,2517 772,2518 711,2518 710,2517 708,2517 707,2518 667,2518 666,2517 658,2517 657,2518 650,2518 649,2519 648,2519 646,2521 645,2521 645,2522 643,2524 643,2526 642,2527 642,2534 641,2535 641,2678 640,2679 640,2685 641,2686 641,2700 640,2701 640,2762 641,2763 641,2771 640,2772 640,2858 641,2859 641,2861 640,2862 640,2879 641,2880 641,2896 642,2897 642,2898 643,2899 643,2900 644,2900 646,2902 648,2902 649,2903 669,2903 670,2904 718,2904 719,2905 727,2905 728,2904 800,2904 801,2903 815,2903 816,2904 818,2904 819,2903 845,2903 846,2902 857,2902 858,2903 884,2903 885,2902 894,2902 895,2903 907,2903 908,2902 986,2902 987,2901 1042,2901 1043,2900 1045,2900 1046,2901 1076,2901 1077,2900 1086,2900 1087,2899 1102,2899 1103,2900 1219,2900 1220,2899 1228,2899 1229,2900 1262,2900 1263,2899 1280,2899 1281,2900 1309,2900 1310,2899 1328,2899 1329,2900 1332,2900 1333,2899 1458,2899 1459,2898 1464,2898 1465,2899 1502,2899 1503,2898 1514,2898 1515,2899 1554,2899 1555,2898 1559,2898 1560,2899 1582,2899 1583,2898 1686,2898 1687,2897 1707,2897 1708,2898 1728,2898 1729,2897 1764,2897 1765,2898 1774,2898 1775,2897 1781,2897 1782,2896 1786,2896 1787,2897 1792,2897 1793,2898 1892,2898 1893,2897 1900,2897 1901,2896 1903,2896 1904,2895 1904,2894 1905,2893 1905,2891 1906,2890 1906,2882 1907,2881 1907,2541 1906,2540 1906,2526 1905,2525 1905,2524 1903,2522 1902,2522 1901,2521 1892,2521 1891,2520 1872,2520 1871,2519 1837,2519 1836,2518 1813,2518 1812,2519 1788,2519 1787,2520 1779,2520 1778,2519 1766,2519 1765,2518 1741,2518 1740,2519 1734,2519 1733,2518 1712,2518 1711,2519 1706,2519 1705,2518 1702,2518 1701,2519 1549,2519 1548,2520 1543,2520 1542,2519 1519,2519 1518,2520 1478,2520 1477,2521 1441,2521 1440,2520 1364,2520 1363,2521 1220,2521 1219,2520 1098,2520 1097,2519 1075,2519 1074,2518 1060,2518 1059,2519 1048,2519 1047,2518 1038,2518 1037,2519 1030,2519 1029,2518 1001,2518 1000,2517 994,2517 993,2518 988,2518 987,2519 975,2519 974,2518 970,2518 969,2519 957,2519 956,2518 932,2518 931,2517 905,2517 904,2516 899,2516 898,2517 876,2517 875,2518 861,2518 860,2517 811,2517 810,2516 798,2516 797,2515" fill="rgba(74,202,87,0.3)" stroke="rgb(74,202,87)" stroke-width="2" data-block-id="0002" data-name="b-0005" /><text x="1199" y="2705" text-anchor="middle" dominant-baseline="middle" class="block-label" fill="rgb(74,202,87)" stroke="white" stroke-width="3" paint-order="stroke">b-0005</text><polygon points="1806,1564 1805,1565 1771,1565 1770,1566 1743,1566 1742,1567 1734,1567 1733,1566 1714,1566 1713,1567 1690,1567 1689,1566 1624,1566 1623,1567 1614,1567 1613,1566 1549,1566 1548,1567 1527,1567 1526,1566 1372,1566 1371,1565 1360,1565 1359,1566 1351,1566 1350,1565 1310,1565 1309,1566 1301,1566 1300,1565 1293,1565 1292,1566 1273,1566 1272,1565 1269,1565 1268,1566 1246,1566 1245,1565 1216,1565 1215,1566 1182,1566 1181,1565 1172,1565 1171,1566 1146,1566 1145,1565 1122,1565 1121,1566 1087,1566 1086,1565 1075,1565 1074,1566 1039,1566 1038,1565 1029,1565 1028,1566 995,1566 994,1565 976,1565 975,1566 945,1566 944,1565 932,1565 931,1566 906,1566 905,1567 894,1567 893,1566 843,1566 842,1565 835,1565 834,1566 828,1566 827,1565 813,1565 812,1566 774,1566 773,1565 769,1565 768,1566 760,1566 759,1567 754,1567 753,1566 672,1566 671,1567 661,1567 660,1568 655,1568 654,1569 652,1569 651,1570 650,1570 649,1571 649,1572 648,1573 648,1579 647,1580 647,1587 646,1588 646,1676 647,1677 647,1681 646,1682 646,1690 645,1691 645,1704 646,1705 646,1815 647,1816 647,1832 646,1833 646,1861 647,1862 647,1875 646,1876 646,1889 645,1890 645,1894 646,1895 646,1900 647,1901 647,1904 648,1905 648,1906 649,1907 650,1907 651,1908 660,1908 661,1909 666,1909 667,1910 671,1910 672,1911 683,1911 684,1910 687,1910 688,1911 705,1911 706,1910 712,1910 713,1911 715,1911 716,1912 718,1912 719,1913 720,1913 721,1914 729,1914 730,1915 732,1915 733,1914 736,1914 737,1913 740,1913 741,1912 749,1912 750,1913 753,1913 754,1914 761,1914 762,1913 766,1913 767,1912 828,1912 829,1911 833,1911 834,1912 843,1912 844,1911 885,1911 886,1912 891,1912 892,1911 905,1911 906,1912 952,1912 953,1913 1002,1913 1003,1912 1126,1912 1127,1913 1145,1913 1146,1912 1310,1912 1311,1913 1356,1913 1357,1912 1510,1912 1511,1911 1512,1912 1552,1912 1553,1911 1566,1911 1567,1912 1572,1912 1573,1911 1623,1911 1624,1910 1644,1910 1645,1911 1651,1911 1652,1912 1672,1912 1673,1911 1692,1911 1693,1912 1750,1912 1751,1911 1763,1911 1764,1912 1770,1912 1771,1913 1774,1913 1775,1912 1781,1912 1782,1911 1788,1911 1789,1912 1800,1912 1801,1913 1814,1913 1815,1912 1826,1912 1827,1913 1845,1913 1846,1912 1857,1912 1858,1911 1864,1911 1865,1910 1893,1910 1894,1909 1897,1909 1898,1908 1901,1908 1905,1904 1905,1901 1906,1900 1906,1897 1907,1896 1907,1862 1908,1861 1908,1857 1907,1856 1907,1797 1906,1796 1906,1788 1907,1787 1907,1780 1908,1779 1908,1767 1909,1766 1909,1749 1908,1748 1908,1745 1907,1744 1907,1732 1908,1731 1908,1701 1907,1700 1907,1696 1906,1695 1906,1687 1907,1686 1907,1682 1908,1681 1908,1676 1907,1675 1907,1660 1906,1659 1906,1632 1907,1631 1907,1614 1906,1613 1906,1589 1907,1588 1907,1581 1906,1580 1906,1576 1905,1575 1905,1573 1904,1572 1904,1571 1903,1571 1901,1569 1899,1569 1898,1568 1895,1568 1894,1567 1886,1567 1885,1566 1822,1566 1821,1565 1811,1565 1810,1564" fill="rgba(151,130,149,0.3)" stroke="rgb(151,130,149)" stroke-width="2" data-block-id="0003" data-name="b-0007" /><text x="1273" y="1741" text-anchor="middle" dominant-baseline="middle" class="block-label" fill="rgb(151,130,149)" stroke="white" stroke-width="3" paint-order="stroke">b-0007</text><polygon points="825,1110 824,1111 820,1111 819,1112 788,1112 787,1111 777,1111 776,1112 761,1112 760,1111 753,1111 752,1112 741,1112 740,1111 725,1111 724,1112 718,1112 717,1111 706,1111 705,1112 690,1112 689,1111 682,1111 681,1112 670,1112 669,1113 664,1113 663,1114 660,1114 659,1115 656,1115 655,1116 652,1116 648,1120 648,1124 647,1125 647,1129 646,1130 646,1133 645,1134 645,1137 644,1138 644,1142 643,1143 643,1156 644,1157 644,1165 645,1166 645,1186 644,1187 644,1208 645,1209 645,1218 644,1219 644,1276 643,1277 643,1290 644,1291 644,1298 645,1299 645,1325 644,1326 644,1343 643,1344 643,1367 644,1368 644,1377 645,1378 645,1402 646,1403 646,1404 645,1405 645,1441 646,1442 646,1443 647,1444 647,1445 649,1447 650,1447 651,1448 654,1448 655,1449 662,1449 663,1450 666,1450 667,1451 670,1451 671,1452 688,1452 689,1453 698,1453 699,1454 714,1454 715,1453 722,1453 723,1452 724,1453 746,1453 747,1454 763,1454 764,1453 789,1453 790,1454 802,1454 803,1455 808,1455 809,1454 823,1454 824,1455 835,1455 836,1454 872,1454 873,1455 905,1455 906,1454 933,1454 934,1453 940,1453 941,1454 956,1454 957,1453 988,1453 989,1454 1000,1454 1001,1453 1038,1453 1039,1454 1050,1454 1051,1453 1068,1453 1069,1452 1073,1452 1074,1451 1077,1451 1078,1450 1086,1450 1087,1451 1175,1451 1176,1452 1177,1452 1178,1451 1216,1451 1217,1452 1285,1452 1286,1453 1311,1453 1312,1454 1336,1454 1337,1453 1439,1453 1440,1454 1441,1453 1458,1453 1459,1454 1471,1454 1472,1453 1473,1454 1572,1454 1573,1455 1621,1455 1622,1454 1640,1454 1641,1453 1644,1453 1645,1454 1658,1454 1659,1453 1666,1453 1667,1454 1693,1454 1694,1453 1718,1453 1719,1454 1729,1454 1730,1453 1740,1453 1741,1454 1745,1454 1746,1455 1757,1455 1758,1454 1765,1454 1766,1453 1770,1453 1771,1452 1773,1452 1774,1451 1775,1451 1776,1450 1777,1450 1778,1449 1779,1449 1780,1448 1781,1448 1782,1447 1786,1447 1788,1449 1789,1449 1794,1454 1801,1454 1802,1453 1804,1453 1805,1452 1810,1452 1811,1453 1814,1453 1815,1454 1832,1454 1833,1453 1834,1453 1835,1454 1845,1454 1846,1453 1883,1453 1884,1452 1891,1452 1892,1451 1894,1451 1895,1450 1897,1450 1898,1449 1899,1449 1900,1448 1901,1448 1903,1446 1903,1445 1905,1443 1905,1440 1906,1439 1906,1437 1905,1436 1905,1427 1906,1426 1906,1408 1905,1407 1905,1402 1906,1401 1906,1316 1905,1315 1905,1306 1906,1305 1906,1270 1905,1269 1905,1253 1906,1252 1906,1243 1905,1242 1905,1235 1906,1234 1906,1216 1905,1215 1905,1212 1906,1211 1906,1197 1905,1196 1905,1141 1904,1140 1904,1137 1903,1136 1903,1133 1902,1132 1902,1128 1901,1127 1901,1126 1900,1125 1900,1123 1899,1122 1899,1120 1898,1120 1895,1117 1893,1117 1892,1116 1890,1116 1889,1115 1886,1115 1885,1114 1882,1114 1881,1113 1874,1113 1873,1114 1842,1114 1841,1113 1818,1113 1817,1114 1814,1114 1813,1115 1812,1115 1811,1116 1810,1116 1809,1117 1803,1117 1802,1116 1797,1116 1796,1115 1790,1115 1789,1114 1764,1114 1763,1113 1743,1113 1742,1114 1704,1114 1703,1115 1698,1115 1697,1114 1692,1114 1691,1113 1672,1113 1671,1114 1615,1114 1614,1115 1597,1115 1596,1114 1586,1114 1585,1115 1572,1115 1571,1114 1570,1115 1560,1115 1559,1116 1530,1116 1529,1115 1500,1115 1499,1114 1496,1114 1495,1115 1480,1115 1479,1114 1469,1114 1468,1115 1459,1115 1458,1114 1457,1114 1456,1113 1454,1113 1453,1112 1452,1112 1451,1111 1447,1111 1446,1112 1432,1112 1431,1111 1429,1111 1428,1110 1422,1110 1421,1111 1418,1111 1417,1112 1413,1112 1412,1113 1407,1113 1406,1114 1400,1114 1399,1113 1396,1113 1395,1112 1384,1112 1383,1113 1364,1113 1363,1114 1360,1114 1359,1115 1352,1115 1351,1114 1350,1114 1349,1113 1348,1113 1347,1112 1345,1112 1344,1111 1339,1111 1338,1112 1332,1112 1331,1113 1323,1113 1322,1114 1317,1114 1316,1113 1311,1113 1310,1112 1303,1112 1302,1113 1281,1113 1280,1114 1267,1114 1266,1113 1251,1113 1250,1114 1242,1114 1241,1113 1228,1113 1227,1114 1222,1114 1221,1113 1216,1113 1215,1112 1208,1112 1207,1113 1200,1113 1199,1114 1190,1114 1189,1115 1187,1115 1186,1114 1181,1114 1180,1113 1170,1113 1169,1112 1161,1112 1160,1113 1146,1113 1145,1112 1130,1112 1129,1113 1107,1113 1106,1114 1102,1114 1101,1113 1093,1113 1092,1112 1081,1112 1080,1113 1075,1113 1074,1114 1071,1114 1070,1115 1064,1115 1063,1114 1052,1114 1051,1113 1042,1113 1041,1114 975,1114 974,1113 951,1113 950,1112 946,1112 945,1113 915,1113 914,1114 913,1113 907,1113 906,1112 885,1112 884,1111 881,1111 880,1110 871,1110 870,1111 850,1111 849,1112 845,1112 844,1113 840,1113 839,1112 837,1112 836,1111 833,1111 832,1110" fill="rgba(52,1,87,0.3)" stroke="rgb(52,1,87)" stroke-width="2" data-block-id="0004" data-name="b-0008" /><text x="1289" y="1251" text-anchor="middle" dominant-baseline="middle" class="block-label" fill="rgb(52,1,87)" stroke="white" stroke-width="3" paint-order="stroke">b-0008</text><polygon points="1353,654 1352,655 1332,655 1331,656 1330,656 1329,655 1267,655 1266,656 1227,656 1226,657 1183,657 1182,658 1155,658 1154,659 1143,659 1142,660 1140,660 1139,659 1136,659 1135,658 1132,658 1131,657 1124,657 1123,656 1115,656 1114,657 1102,657 1101,658 1068,658 1067,659 1048,659 1047,658 1028,658 1027,657 1009,657 1008,656 1000,656 999,657 997,657 996,658 993,658 992,659 990,659 989,660 987,660 986,661 981,661 980,660 978,660 977,659 975,659 974,658 972,658 971,657 968,657 967,656 962,656 961,655 958,655 957,656 936,656 935,657 897,657 896,656 862,656 861,657 854,657 853,658 849,658 848,659 836,659 835,658 823,658 822,657 812,657 811,656 803,656 802,657 787,657 786,658 756,658 755,659 746,659 745,658 734,658 733,657 721,657 720,658 705,658 704,657 681,657 680,658 671,658 670,659 665,659 664,660 662,660 661,661 659,661 658,662 657,662 656,663 655,663 650,668 650,670 649,671 649,678 650,679 650,699 649,700 649,707 648,708 648,712 649,713 649,720 650,721 650,750 651,751 651,765 652,766 652,853 653,854 653,901 652,902 652,932 653,933 653,970 654,971 654,977 655,978 655,983 656,984 656,985 657,986 657,987 658,988 658,989 661,992 662,992 664,994 665,994 666,995 668,995 669,996 673,996 674,997 682,997 683,998 698,998 699,997 706,997 707,996 713,996 714,997 722,997 723,998 740,998 741,997 794,997 795,998 803,998 804,999 812,999 813,998 823,998 824,997 867,997 868,998 889,998 890,997 897,997 898,996 908,996 909,997 913,997 914,998 941,998 942,997 946,997 947,998 976,998 977,997 1049,997 1050,996 1114,996 1115,997 1118,997 1119,996 1131,996 1132,995 1139,995 1140,994 1141,994 1142,995 1150,995 1151,996 1167,996 1168,997 1184,997 1185,998 1204,998 1205,997 1282,997 1283,998 1293,998 1294,999 1304,999 1305,998 1328,998 1329,997 1341,997 1342,998 1380,998 1381,999 1395,999 1396,998 1435,998 1436,997 1457,997 1458,996 1476,996 1477,997 1491,997 1492,996 1500,996 1501,995 1504,995 1505,994 1514,994 1515,995 1519,995 1520,996 1533,996 1534,995 1537,995 1538,994 1541,994 1542,993 1544,993 1545,992 1552,992 1553,993 1562,993 1563,994 1600,994 1601,995 1636,995 1637,994 1716,994 1717,993 1729,993 1730,994 1745,994 1746,993 1787,993 1788,992 1794,992 1795,991 1801,991 1802,990 1814,990 1815,989 1820,989 1821,988 1822,988 1823,987 1824,987 1826,985 1826,979 1824,977 1824,976 1823,975 1823,974 1822,973 1822,972 1821,971 1821,970 1819,968 1819,967 1818,966 1818,965 1803,950 1803,949 1798,944 1798,943 1794,939 1794,938 1792,936 1792,935 1791,934 1791,933 1790,932 1790,931 1789,930 1789,929 1788,928 1788,927 1786,925 1786,924 1785,923 1785,922 1774,911 1774,910 1773,909 1773,908 1771,906 1771,905 1770,904 1770,903 1762,895 1761,895 1758,892 1757,892 1751,886 1751,885 1747,881 1747,880 1744,877 1744,876 1740,872 1740,871 1737,868 1737,867 1734,864 1734,863 1728,857 1728,856 1723,851 1723,850 1719,846 1719,845 1715,841 1715,840 1710,835 1710,834 1706,830 1706,829 1701,824 1701,823 1696,818 1696,817 1694,815 1694,814 1693,813 1693,812 1692,811 1692,810 1689,807 1689,806 1684,801 1683,801 1678,796 1677,796 1676,795 1676,794 1671,789 1671,788 1665,782 1664,782 1660,778 1659,778 1658,777 1658,776 1655,773 1655,772 1654,771 1654,770 1652,768 1652,767 1651,766 1651,765 1648,762 1648,761 1643,756 1643,755 1639,751 1639,750 1637,748 1637,747 1634,744 1634,743 1632,741 1632,740 1631,739 1631,738 1629,736 1629,735 1628,734 1628,733 1627,732 1627,731 1625,729 1625,728 1622,725 1622,724 1614,716 1614,715 1604,705 1603,705 1593,695 1593,694 1590,691 1590,690 1585,685 1585,684 1583,682 1582,682 1579,679 1579,678 1577,676 1577,675 1575,673 1575,672 1569,666 1568,666 1566,664 1565,664 1564,663 1562,663 1561,662 1560,662 1559,661 1557,661 1556,660 1555,660 1554,659 1553,659 1552,658 1551,658 1550,657 1548,657 1547,656 1483,656 1482,657 1465,657 1464,656 1459,656 1458,655 1407,655 1406,656 1369,656 1368,655 1356,655 1355,654" fill="rgba(235,157,37,0.3)" stroke="rgb(235,157,37)" stroke-width="2" data-block-id="0005" data-name="b-0009" /><text x="1296" y="825" text-anchor="middle" dominant-baseline="middle" class="block-label" fill="rgb(235,157,37)" stroke="white" stroke-width="3" paint-order="stroke">b-0009</text><polygon points="1031,199 1030,200 1025,200 1024,201 1013,201 1012,200 1002,200 1001,201 986,201 985,202 977,202 976,203 971,203 970,202 960,202 959,201 831,201 830,202 824,202 823,201 815,201 814,202 774,202 773,203 768,203 767,202 712,202 711,201 710,201 709,202 678,202 677,203 669,203 668,204 666,204 665,205 664,205 663,206 663,207 662,208 662,209 661,210 661,214 660,215 660,268 659,269 660,270 660,284 659,285 659,287 658,288 658,289 657,290 657,292 656,293 656,312 657,313 657,320 658,321 658,326 659,327 659,330 660,331 660,339 661,340 661,358 660,359 660,371 661,372 661,409 660,410 660,413 661,414 661,440 662,441 662,449 661,450 661,453 660,454 660,455 658,457 658,458 656,460 656,461 657,462 657,466 658,467 658,479 659,480 659,483 658,484 658,488 657,489 657,491 656,492 656,494 658,496 658,497 660,499 660,502 661,503 661,510 662,511 662,532 663,533 663,535 664,536 664,537 665,538 665,539 667,541 668,541 669,542 671,542 672,543 711,543 712,544 887,544 888,545 890,545 891,544 975,544 976,543 980,543 981,542 984,542 985,541 987,541 988,540 989,540 990,539 993,539 994,538 1000,538 1001,539 1005,539 1006,540 1011,540 1012,539 1018,539 1019,538 1022,538 1023,539 1040,539 1041,538 1047,538 1048,539 1061,539 1062,538 1073,538 1074,539 1086,539 1087,538 1097,538 1098,539 1107,539 1108,538 1123,538 1124,539 1133,539 1134,538 1144,538 1145,539 1149,539 1150,540 1155,540 1156,539 1170,539 1171,540 1178,540 1179,539 1185,539 1186,538 1189,538 1190,539 1195,539 1196,540 1203,540 1204,539 1219,539 1220,540 1227,540 1228,539 1239,539 1240,540 1254,540 1255,539 1265,539 1266,540 1275,540 1276,539 1279,539 1280,538 1298,538 1299,537 1302,537 1303,536 1314,536 1315,537 1320,537 1321,536 1326,536 1327,535 1332,535 1333,536 1335,536 1336,537 1337,537 1338,538 1340,538 1341,539 1345,539 1346,538 1348,538 1349,537 1350,537 1351,536 1358,536 1359,537 1361,537 1362,538 1364,538 1365,539 1367,539 1368,538 1371,538 1372,537 1374,537 1375,536 1378,536 1379,535 1380,535 1381,536 1385,536 1386,537 1393,537 1394,536 1396,536 1397,535 1399,535 1400,534 1406,534 1407,535 1411,535 1412,536 1415,536 1416,535 1418,535 1419,534 1422,534 1423,533 1425,533 1426,532 1427,532 1427,531 1428,530 1428,529 1427,528 1427,527 1425,525 1425,523 1424,522 1424,521 1421,518 1420,518 1419,517 1418,517 1417,516 1416,516 1415,515 1412,515 1411,514 1408,514 1404,510 1404,507 1403,506 1403,500 1402,499 1402,494 1401,493 1401,492 1400,491 1400,490 1398,488 1398,487 1397,486 1397,485 1396,484 1395,484 1393,482 1392,482 1391,481 1389,481 1388,480 1386,480 1385,479 1384,479 1383,478 1382,478 1376,472 1376,471 1373,468 1373,467 1372,466 1372,465 1371,464 1371,463 1370,462 1370,461 1369,460 1369,459 1367,457 1366,457 1363,454 1363,453 1362,452 1362,451 1361,450 1361,448 1360,447 1360,446 1359,445 1359,444 1358,443 1358,442 1357,441 1357,440 1356,439 1356,438 1355,437 1355,436 1352,433 1351,433 1342,424 1342,423 1336,417 1336,416 1334,414 1334,413 1332,411 1332,410 1329,407 1328,407 1326,405 1325,405 1317,397 1316,397 1314,395 1314,394 1312,392 1312,391 1310,389 1310,388 1308,386 1308,385 1307,385 1304,382 1303,382 1292,371 1292,370 1289,367 1289,366 1288,365 1288,364 1270,346 1269,346 1267,344 1267,343 1264,340 1264,339 1255,330 1255,329 1252,326 1252,325 1238,311 1238,310 1232,304 1232,303 1212,283 1212,282 1204,274 1204,273 1189,258 1189,257 1187,255 1187,254 1182,249 1182,248 1177,243 1176,243 1174,241 1173,241 1167,235 1167,234 1165,232 1165,231 1161,227 1160,227 1158,225 1158,224 1152,218 1151,218 1150,217 1149,217 1147,215 1146,215 1142,211 1142,210 1138,206 1137,206 1136,205 1135,205 1134,204 1133,204 1132,203 1130,203 1129,202 1112,202 1111,201 1105,201 1104,200 1101,200 1100,201 1086,201 1085,200 1076,200 1075,201 1060,201 1059,200 1049,200 1048,201 1043,201 1042,200 1035,200 1034,199" fill="rgba(218,58,254,0.3)" stroke="rgb(218,58,254)" stroke-width="2" data-block-id="0006" data-name="b-0014" /><text x="1112" y="416" text-anchor="middle" dominant-baseline="middle" class="block-label" fill="rgb(218,58,254)" stroke="white" stroke-width="3" paint-order="stroke">b-0014</text><polygon points="2045,1450 2044,1922 3772,1926 3593,1519 2634,1505 2584,1434" fill="rgba(102,179,92,0.3)" stroke="rgb(102,179,92)" stroke-width="2" data-block-id="0007" data-name="b-0012" /><text x="2778" y="1626" text-anchor="middle" dominant-baseline="middle" class="block-label" fill="rgb(102,179,92)" stroke="white" stroke-width="3" paint-order="stroke">b-0012</text><polygon points="2040,2013 2042,2415 3872,2418 3697,2017 2836,2009" fill="rgba(102,179,92,0.3)" stroke="rgb(102,179,92)" stroke-width="2" data-block-id="0008" data-name="b-0009" /><text x="2897" y="2174" text-anchor="middle" dominant-baseline="middle" class="block-label" fill="rgb(102,179,92)" stroke="white" stroke-width="3" paint-order="stroke">b-0009</text></g>
</svg>