<?xml version='1.0' encoding='utf-8'?>
<svg xmlns="http://www.w3.org/2000/svg" xmlns:atlas="http://example.com/atlas" width="4984" height="3304" viewBox="0 0 4984 3304">
  
  <metadata>
    <atlas:source>
      <atlas:jp2-path>/Users/pwright/workspace/atlas/media/v2/p4.jp2</atlas:jp2-path>
      <atlas:volume>unknown</atlas:volume>
      <atlas:plate-id>p4</atlas:plate-id>
      <atlas:image-width>4984</atlas:image-width>
      <atlas:image-height>3304</atlas:image-height>
    </atlas:source>
  </metadata>

  
  <image id="background" href="file:///Users/pwright/workspace/atlas/media/v2/p4.jp2" width="4984" height="3304" opacity="0.5" />

  <style>
    .block-label { font-family: sans-serif; font-size: 14px; font-weight: bold; }
  </style>

  
  <g id="blocks">
    <polygon points="2512,2572 2511,2573 2508,2573 2507,2574 2505,2574 2502,2577 2501,2577 2495,2583 2492,2583 2491,2584 2484,2584 2483,2583 2482,2583 2475,2576 2474,2576 2473,2575 2466,2575 2465,2576 2458,2576 2457,2575 2456,2575 2455,2574 2453,2574 2452,2573 2446,2573 2445,2574 2444,2574 2443,2575 2442,2575 2440,2577 2439,2577 2437,2579 2436,2578 2434,2578 2432,2576 2431,2576 2430,2575 2428,2575 2427,2574 2419,2574 2418,2575 2415,2575 2414,2576 2366,2576 2365,2577 2361,2577 2360,2576 2338,2576 2337,2575 2334,2575 2333,2574 2321,2574 2320,2575 2314,2575 2313,2576 2291,2576 2290,2577 2286,2577 2285,2578 2283,2578 2282,2579 2274,2579 2273,2578 2267,2578 2266,2579 2259,2579 2258,2580 2238,2580 2237,2581 2230,2581 2229,2582 2218,2582 2217,2583 2207,2583 2206,2584 2203,2584 2202,2585 2199,2585 2198,2586 2195,2586 2194,2587 2190,2587 2189,2588 2186,2588 2185,2589 2167,2589 2166,2588 2156,2588 2155,2589 2149,2589 2148,2590 2142,2590 2141,2591 2125,2591 2124,2592 2115,2592 2114,2593 2104,2593 2103,2594 2102,2594 2094,2602 2094,2603 2093,2604 2093,2605 2092,2606 2092,2608 2091,2609 2091,2610 2090,2611 2090,2613 2089,2614 2089,2616 2088,2617 2088,2618 2085,2621 2085,2622 2084,2623 2084,2624 2083,2625 2083,2628 2082,2629 2082,2631 2081,2632 2081,2637 2082,2638 2082,2641 2083,2642 2083,2650 2082,2651 2082,2654 2081,2655 2081,2664 2082,2665 2082,2670 2081,2671 2081,2672 2079,2674 2079,2676 2078,2677 2078,2679 2077,2680 2077,2698 2076,2699 2076,2714 2077,2715 2077,2725 2076,2726 2076,2739 2077,2740 2077,2744 2076,2745 2076,2787 2077,2788 2077,2792 2076,2793 2076,2845 2075,2846 2075,2852 2076,2853 2076,2886 2075,2887 2075,2949 2076,2950 2076,2954 2077,2955 2077,2957 2080,2960 2081,2960 2082,2961 2084,2961 2085,2962 2087,2962 2088,2963 2107,2963 2108,2964 2122,2964 2123,2963 2126,2963 2127,2964 2133,2964 2134,2965 2143,2965 2144,2964 2220,2964 2221,2963 2258,2963 2259,2962 2270,2962 2271,2961 2318,2961 2319,2962 2322,2962 2323,2963 2328,2963 2329,2964 2333,2964 2334,2963 2342,2963 2343,2964 2401,2964 2402,2965 2409,2965 2410,2966 2416,2966 2417,2965 2425,2965 2426,2964 2429,2964 2430,2963 2433,2963 2434,2962 2438,2962 2439,2963 2443,2963 2444,2964 2464,2964 2465,2965 2474,2965 2475,2964 2476,2964 2477,2963 2478,2963 2479,2962 2480,2962 2481,2961 2484,2961 2485,2960 2486,2961 2487,2961 2488,2962 2490,2962 2491,2963 2493,2963 2494,2964 2503,2964 2504,2965 2507,2965 2508,2964 2512,2964 2513,2963 2517,2963 2518,2962 2520,2962 2521,2961 2523,2961 2524,2960 2527,2960 2528,2959 2539,2959 2540,2960 2552,2960 2553,2959 2567,2959 2568,2958 2569,2958 2570,2957 2571,2957 2573,2955 2574,2955 2575,2954 2576,2954 2577,2953 2587,2953 2588,2954 2601,2954 2602,2955 2615,2955 2616,2956 2620,2956 2621,2957 2627,2957 2628,2958 2629,2957 2640,2957 2641,2958 2645,2958 2646,2959 2650,2959 2651,2960 2657,2960 2658,2961 2669,2961 2670,2960 2685,2960 2686,2961 2689,2961 2690,2962 2693,2962 2694,2963 2708,2963 2709,2962 2715,2962 2716,2963 2736,2963 2737,2964 2742,2964 2743,2965 2751,2965 2752,2964 2762,2964 2763,2965 2766,2965 2767,2966 2775,2966 2776,2965 2779,2965 2780,2964 2794,2964 2795,2965 2796,2965 2797,2964 2836,2964 2837,2965 2863,2965 2864,2966 2868,2966 2869,2965 2906,2965 2907,2964 2938,2964 2939,2965 2943,2965 2944,2966 2946,2966 2947,2967 2950,2967 2951,2966 2953,2966 2954,2965 2956,2965 2957,2964 2960,2964 2961,2963 2973,2963 2974,2962 2977,2962 2978,2961 2981,2961 2982,2960 2986,2960 2987,2961 2991,2961 2992,2962 3003,2962 3004,2961 3027,2961 3028,2962 3047,2962 3048,2961 3110,2961 3111,2960 3128,2960 3129,2961 3142,2961 3143,2960 3216,2960 3217,2959 3253,2959 3254,2958 3263,2958 3264,2957 3268,2957 3269,2956 3274,2956 3275,2957 3278,2957 3279,2958 3300,2958 3301,2959 3312,2959 3313,2958 3325,2958 3326,2959 3335,2959 3336,2958 3347,2958 3348,2959 3359,2959 3360,2958 3363,2958 3364,2957 3365,2957 3366,2956 3372,2956 3373,2957 3383,2957 3384,2958 3394,2958 3395,2957 3399,2957 3400,2956 3409,2956 3410,2957 3432,2957 3433,2958 3453,2958 3454,2957 3473,2957 3474,2958 3481,2958 3482,2959 3495,2959 3496,2958 3525,2958 3526,2959 3541,2959 3542,2958 3549,2958 3550,2959 3567,2959 3568,2958 3588,2958 3589,2957 3606,2957 3607,2958 3622,2958 3623,2957 3632,2957 3633,2958 3653,2958 3654,2957 3673,2957 3674,2958 3678,2958 3679,2957 3730,2957 3731,2956 3753,2956 3754,2955 3759,2955 3760,2954 3761,2954 3765,2950 3765,2949 3766,2948 3766,2947 3767,2946 3767,2940 3766,2939 3766,2932 3767,2931 3767,2927 3768,2926 3768,2893 3767,2892 3767,2881 3768,2880 3768,2841 3767,2840 3767,2838 3768,2837 3768,2830 3769,2829 3769,2798 3768,2797 3768,2787 3769,2786 3769,2782 3770,2781 3770,2770 3769,2769 3769,2754 3768,2753 3768,2746 3767,2745 3767,2739 3768,2738 3768,2715 3767,2714 3767,2704 3766,2703 3766,2682 3767,2681 3767,2670 3766,2669 3766,2664 3765,2663 3765,2637 3764,2636 3764,2596 3763,2595 3763,2593 3762,2592 3762,2590 3761,2589 3761,2588 3758,2585 3754,2585 3753,2584 3745,2584 3744,2585 3742,2585 3741,2586 3738,2586 3737,2587 3733,2587 3732,2586 3721,2586 3720,2585 3715,2585 3714,2584 3710,2584 3709,2585 3698,2585 3697,2586 3692,2586 3691,2587 3673,2587 3672,2586 3668,2586 3667,2585 3663,2585 3662,2586 3656,2586 3655,2587 3653,2587 3652,2586 3648,2586 3647,2585 3644,2585 3643,2584 3635,2584 3634,2585 3627,2585 3626,2584 3624,2584 3623,2583 3620,2583 3619,2582 3604,2582 3603,2583 3601,2583 3600,2584 3599,2584 3598,2585 3597,2585 3595,2587 3594,2587 3593,2586 3592,2586 3588,2582 3587,2582 3586,2581 3585,2581 3584,2580 3583,2580 3582,2579 3579,2579 3578,2578 3574,2578 3573,2577 3566,2577 3565,2578 3562,2578 3561,2579 3554,2579 3553,2578 3548,2578 3547,2577 3544,2577 3543,2578 3536,2578 3535,2579 3534,2579 3533,2578 3529,2578 3528,2577 3507,2577 3505,2579 3504,2579 3502,2581 3502,2582 3501,2583 3501,2584 3499,2586 3498,2585 3497,2585 3495,2583 3495,2582 3494,2581 3494,2580 3493,2579 3492,2579 3491,2578 3490,2578 3489,2577 3420,2577 3419,2576 3412,2576 3411,2577 3369,2577 3368,2576 3364,2576 3363,2577 3261,2577 3260,2578 3257,2578 3256,2577 3238,2577 3237,2578 3219,2578 3218,2579 3216,2579 3215,2580 3214,2580 3213,2581 3209,2581 3207,2579 3205,2579 3204,2578 3202,2578 3201,2577 3196,2577 3195,2576 3189,2576 3188,2575 3175,2575 3174,2576 3160,2576 3159,2575 3147,2575 3146,2574 3136,2574 3135,2575 3100,2575 3099,2574 3070,2574 3069,2575 3053,2575 3052,2574 3038,2574 3037,2575 3024,2575 3023,2574 3015,2574 3014,2575 2978,2575 2977,2574 2964,2574 2963,2575 2956,2575 2955,2574 2949,2574 2948,2575 2917,2575 2916,2576 2914,2576 2913,2575 2906,2575 2905,2574 2898,2574 2897,2575 2889,2575 2888,2576 2887,2575 2877,2575 2876,2574 2875,2574 2874,2575 2829,2575 2828,2574 2827,2575 2813,2575 2812,2574 2799,2574 2798,2575 2777,2575 2776,2576 2740,2576 2739,2575 2704,2575 2703,2576 2696,2576 2695,2575 2688,2575 2687,2574 2684,2574 2683,2575 2661,2575 2660,2576 2623,2576 2622,2575 2576,2575 2575,2574 2569,2574 2568,2573 2566,2573 2565,2574 2556,2574 2555,2575 2546,2575 2545,2576 2539,2576 2538,2577 2535,2577 2534,2578 2529,2578 2527,2576 2526,2576 2523,2573 2522,2573 2521,2572" fill="rgba(14,106,71,0.3)" stroke="rgb(14,106,71)" stroke-width="2" data-block-id="0001" data-name="b-0002" /><text x="2897" y="2750" text-anchor="middle" dominant-baseline="middle" class="block-label" fill="rgb(14,106,71)" stroke="white" stroke-width="3" paint-order="stroke">b-0002</text><polygon points="3435,2083 3434,2084 3432,2084 3431,2085 3430,2085 3429,2086 3426,2086 3425,2087 3384,2087 3383,2088 3361,2088 3360,2089 3357,2089 3356,2090 3331,2090 3330,2089 3320,2089 3319,2088 3310,2088 3309,2087 3293,2087 3292,2086 3267,2086 3266,2085 3250,2085 3249,2084 3246,2084 3245,2085 3147,2085 3146,2086 3120,2086 3119,2085 3111,2085 3110,2086 3074,2086 3073,2085 3058,2085 3057,2086 2971,2086 2970,2087 2952,2087 2951,2086 2944,2086 2943,2087 2934,2087 2933,2086 2920,2086 2919,2087 2895,2087 2894,2088 2885,2088 2884,2087 2850,2087 2849,2088 2845,2088 2844,2089 2841,2089 2840,2090 2838,2090 2837,2091 2835,2091 2834,2092 2833,2092 2832,2093 2829,2093 2828,2094 2827,2094 2826,2093 2813,2093 2812,2092 2808,2092 2807,2091 2805,2091 2804,2092 2800,2092 2799,2093 2785,2093 2784,2092 2778,2092 2777,2093 2762,2093 2761,2092 2757,2092 2756,2093 2743,2093 2742,2092 2740,2092 2739,2091 2737,2091 2736,2090 2730,2090 2729,2091 2726,2091 2725,2092 2722,2092 2721,2091 2720,2091 2719,2090 2718,2090 2716,2088 2715,2088 2714,2087 2712,2087 2711,2086 2700,2086 2699,2087 2667,2087 2666,2086 2657,2086 2656,2087 2648,2087 2647,2086 2633,2086 2632,2087 2628,2087 2627,2088 2602,2088 2601,2089 2599,2089 2598,2090 2596,2090 2595,2091 2594,2091 2593,2092 2592,2092 2591,2093 2584,2093 2583,2092 2561,2092 2560,2093 2553,2093 2552,2094 2543,2094 2542,2095 2537,2095 2536,2096 2511,2096 2510,2097 2504,2097 2503,2098 2500,2098 2499,2099 2491,2099 2490,2098 2486,2098 2485,2097 2479,2097 2478,2096 2436,2096 2435,2095 2429,2095 2428,2094 2407,2094 2406,2093 2401,2093 2400,2092 2395,2092 2394,2093 2383,2093 2382,2092 2374,2092 2373,2093 2361,2093 2360,2094 2330,2094 2329,2095 2310,2095 2309,2096 2300,2096 2299,2095 2259,2095 2258,2096 2254,2096 2253,2095 2215,2095 2214,2096 2205,2096 2204,2095 2150,2095 2149,2094 2143,2094 2142,2095 2117,2095 2116,2096 2111,2096 2110,2095 2100,2095 2099,2096 2098,2096 2097,2097 2096,2097 2094,2099 2093,2099 2093,2101 2092,2102 2092,2104 2091,2105 2091,2108 2090,2109 2090,2113 2089,2114 2089,2118 2088,2119 2088,2125 2089,2126 2089,2133 2090,2134 2090,2137 2091,2138 2091,2140 2092,2141 2092,2153 2091,2154 2091,2158 2090,2159 2090,2162 2089,2163 2089,2165 2088,2166 2088,2167 2087,2168 2087,2169 2086,2170 2086,2171 2084,2173 2084,2174 2083,2175 2083,2177 2082,2178 2082,2180 2081,2181 2081,2189 2080,2190 2080,2296 2079,2297 2079,2365 2078,2366 2078,2415 2077,2416 2077,2422 2078,2423 2078,2454 2079,2455 2079,2457 2082,2460 2083,2460 2084,2461 2085,2461 2086,2462 2087,2462 2088,2463 2109,2463 2110,2464 2134,2464 2135,2465 2139,2465 2140,2464 2182,2464 2183,2465 2197,2465 2198,2464 2208,2464 2209,2463 2213,2463 2214,2462 2219,2462 2220,2461 2224,2461 2225,2462 2277,2462 2278,2463 2285,2463 2286,2462 2321,2462 2322,2463 2335,2463 2336,2462 2344,2462 2345,2463 2452,2463 2453,2464 2463,2464 2464,2463 2475,2463 2476,2462 2525,2462 2526,2461 2548,2461 2549,2460 2565,2460 2566,2459 2571,2459 2572,2458 2577,2458 2578,2457 2607,2457 2608,2458 2619,2458 2620,2459 2625,2459 2626,2460 2632,2460 2633,2461 2662,2461 2663,2460 2683,2460 2684,2459 2707,2459 2708,2458 2735,2458 2736,2457 2765,2457 2766,2458 2801,2458 2802,2459 2813,2459 2814,2460 2823,2460 2824,2459 2837,2459 2838,2460 2844,2460 2845,2459 2862,2459 2863,2460 2870,2460 2871,2459 2947,2459 2948,2460 2983,2460 2984,2461 2994,2461 2995,2462 3038,2462 3039,2461 3082,2461 3083,2462 3089,2462 3090,2463 3094,2463 3095,2462 3104,2462 3105,2461 3127,2461 3128,2460 3142,2460 3143,2459 3151,2459 3152,2458 3174,2458 3175,2457 3270,2457 3271,2458 3286,2458 3287,2459 3290,2459 3291,2460 3294,2460 3295,2461 3301,2461 3302,2462 3313,2462 3314,2461 3347,2461 3348,2460 3351,2460 3352,2459 3383,2459 3384,2458 3408,2458 3409,2457 3476,2457 3477,2458 3482,2458 3483,2459 3491,2459 3492,2458 3502,2458 3503,2459 3510,2459 3511,2460 3524,2460 3525,2461 3528,2461 3529,2462 3534,2462 3535,2463 3544,2463 3545,2462 3552,2462 3553,2461 3576,2461 3577,2460 3587,2460 3588,2461 3597,2461 3598,2460 3686,2460 3687,2461 3690,2461 3691,2460 3744,2460 3745,2459 3760,2459 3761,2458 3762,2458 3763,2457 3764,2457 3764,2456 3766,2454 3766,2452 3767,2451 3767,2448 3768,2447 3768,2425 3769,2424 3769,2417 3768,2416 3768,2401 3769,2400 3769,2329 3768,2328 3768,2259 3769,2258 3769,2234 3768,2233 3768,2171 3767,2170 3767,2153 3766,2152 3766,2096 3765,2095 3765,2093 3764,2092 3764,2090 3763,2089 3763,2088 3761,2086 3760,2086 3759,2085 3757,2085 3756,2084 3751,2084 3750,2083 3713,2083 3712,2084 3695,2084 3694,2083 3682,2083 3681,2084 3649,2084 3648,2083 3626,2083 3625,2084 3622,2084 3621,2085 3620,2085 3619,2086 3617,2086 3616,2087 3615,2087 3614,2086 3583,2086 3582,2087 3558,2087 3557,2086 3555,2086 3554,2085 3551,2085 3550,2084 3508,2084 3507,2085 3477,2085 3476,2086 3457,2086 3456,2085 3452,2085 3451,2084 3446,2084 3445,2083" fill="rgba(188,20,102,0.3)" stroke="rgb(188,20,102)" stroke-width="2" data-block-id="0002" data-name="b-0003" /><text x="2863" y="2239" text-anchor="middle" dominant-baseline="middle" class="block-label" fill="rgb(188,20,102)" stroke="white" stroke-width="3" paint-order="stroke">b-0003</text><polygon points="413,2569 412,2570 408,2570 407,2571 406,2571 405,2572 404,2572 403,2573 402,2573 401,2574 401,2576 400,2577 400,2587 399,2588 399,2608 400,2609 400,2639 399,2640 399,2662 400,2663 400,2677 399,2678 399,2691 398,2692 398,2697 399,2698 399,2713 400,2714 400,2723 399,2724 399,2730 398,2731 398,2734 397,2735 397,2739 396,2740 396,2761 395,2762 395,2767 394,2768 394,2770 393,2771 393,2774 392,2775 392,2795 393,2796 393,2824 394,2825 394,2830 395,2831 395,2835 396,2836 396,2844 397,2845 397,2860 396,2861 396,2908 395,2909 395,2919 394,2920 394,2928 393,2929 393,2944 394,2945 394,2947 396,2949 397,2949 398,2950 399,2950 400,2951 402,2951 403,2952 409,2952 410,2953 440,2953 441,2954 497,2954 498,2955 530,2955 531,2956 538,2956 539,2957 552,2957 553,2956 567,2956 568,2955 581,2955 582,2956 615,2956 616,2957 634,2957 635,2958 644,2958 645,2957 655,2957 656,2958 668,2958 669,2957 675,2957 676,2958 682,2958 683,2959 692,2959 693,2960 723,2960 724,2961 735,2961 736,2960 738,2960 739,2959 740,2959 741,2958 745,2958 746,2957 763,2957 764,2956 790,2956 791,2957 849,2957 850,2956 904,2956 905,2957 910,2957 911,2958 931,2958 932,2957 943,2957 944,2956 948,2956 949,2957 952,2957 953,2958 956,2958 957,2959 960,2959 961,2960 966,2960 967,2961 1011,2961 1012,2962 1017,2962 1018,2963 1021,2963 1022,2962 1024,2962 1025,2961 1028,2961 1029,2960 1033,2960 1034,2959 1045,2959 1046,2960 1063,2960 1064,2961 1076,2961 1077,2962 1097,2962 1098,2963 1106,2963 1107,2964 1133,2964 1134,2963 1139,2963 1140,2962 1142,2962 1143,2961 1145,2961 1146,2960 1148,2960 1149,2959 1158,2959 1159,2960 1173,2960 1174,2961 1193,2961 1194,2960 1202,2960 1203,2961 1225,2961 1226,2960 1239,2960 1240,2959 1245,2959 1246,2958 1251,2958 1252,2959 1261,2959 1262,2960 1267,2960 1268,2961 1291,2961 1292,2960 1299,2960 1300,2961 1308,2961 1309,2962 1311,2962 1312,2963 1314,2963 1315,2964 1322,2964 1323,2963 1324,2963 1325,2962 1327,2962 1328,2961 1329,2961 1330,2960 1335,2960 1336,2961 1339,2961 1340,2962 1377,2962 1378,2961 1386,2961 1387,2960 1391,2960 1392,2961 1395,2961 1396,2962 1399,2962 1400,2963 1407,2963 1408,2964 1418,2964 1419,2963 1422,2963 1423,2962 1429,2962 1430,2963 1434,2963 1435,2964 1442,2964 1443,2963 1468,2963 1469,2962 1479,2962 1480,2963 1489,2963 1490,2962 1515,2962 1516,2961 1523,2961 1524,2962 1529,2962 1530,2963 1551,2963 1552,2964 1561,2964 1562,2963 1564,2963 1565,2962 1568,2962 1569,2961 1571,2961 1572,2962 1576,2962 1577,2963 1580,2963 1581,2964 1585,2964 1586,2963 1610,2963 1611,2962 1623,2962 1624,2963 1660,2963 1661,2962 1667,2962 1668,2963 1674,2963 1675,2964 1683,2964 1684,2963 1688,2963 1689,2964 1693,2964 1694,2965 1697,2965 1698,2966 1706,2966 1707,2965 1715,2965 1716,2966 1717,2966 1718,2967 1719,2967 1720,2968 1722,2968 1723,2969 1730,2969 1731,2968 1742,2968 1743,2969 1753,2969 1754,2968 1768,2968 1769,2969 1790,2969 1791,2970 1806,2970 1807,2971 1822,2971 1823,2970 1876,2970 1877,2969 1881,2969 1882,2968 1884,2968 1886,2966 1887,2966 1887,2965 1889,2963 1889,2962 1890,2961 1890,2959 1891,2958 1891,2952 1892,2951 1892,2923 1893,2922 1893,2920 1892,2919 1892,2891 1893,2890 1893,2870 1892,2869 1892,2816 1891,2815 1891,2810 1892,2809 1892,2796 1891,2795 1891,2787 1892,2786 1892,2775 1891,2774 1891,2760 1892,2759 1892,2736 1893,2735 1893,2728 1892,2727 1892,2701 1891,2700 1891,2692 1892,2691 1892,2685 1893,2684 1893,2680 1892,2679 1892,2654 1891,2653 1891,2642 1892,2641 1892,2627 1891,2626 1891,2612 1890,2611 1890,2607 1891,2606 1891,2600 1890,2599 1890,2596 1889,2595 1889,2593 1888,2592 1888,2590 1887,2589 1887,2588 1883,2584 1882,2584 1881,2583 1820,2583 1819,2582 1708,2582 1707,2581 1695,2581 1694,2582 1683,2582 1682,2581 1656,2581 1655,2580 1654,2580 1653,2581 1649,2581 1648,2582 1646,2582 1645,2583 1644,2583 1643,2584 1603,2584 1602,2583 1601,2583 1600,2582 1598,2582 1597,2581 1595,2581 1594,2580 1587,2580 1586,2579 1578,2579 1577,2580 1560,2580 1559,2581 1534,2581 1533,2582 1532,2582 1531,2581 1418,2581 1417,2580 1415,2580 1414,2581 1356,2581 1355,2582 1337,2582 1336,2581 1324,2581 1323,2580 1282,2580 1281,2579 1229,2579 1228,2578 1215,2578 1214,2579 1209,2579 1208,2578 1179,2578 1178,2577 1173,2577 1172,2578 1168,2578 1167,2579 1157,2579 1156,2578 1150,2578 1149,2577 1138,2577 1137,2576 1132,2576 1131,2575 1122,2575 1121,2576 1103,2576 1102,2577 1093,2577 1092,2578 1087,2578 1086,2577 1068,2577 1067,2576 1060,2576 1059,2577 1058,2577 1057,2576 1048,2576 1047,2575 1032,2575 1031,2574 999,2574 998,2573 930,2573 929,2572 919,2572 918,2573 909,2573 908,2572 871,2572 870,2573 861,2573 860,2572 822,2572 821,2573 808,2573 807,2572 804,2572 803,2573 783,2573 782,2574 719,2574 718,2573 665,2573 664,2572 659,2572 658,2573 649,2573 648,2572 641,2572 640,2571 634,2571 633,2572 619,2572 618,2573 603,2573 602,2572 596,2572 595,2571 576,2571 575,2570 566,2570 565,2569 564,2570 552,2570 551,2569 527,2569 526,2570 515,2570 514,2569 475,2569 474,2570 454,2570 453,2569" fill="rgba(121,210,214,0.3)" stroke="rgb(121,210,214)" stroke-width="2" data-block-id="0003" data-name="b-0004" /><text x="1163" y="2801" text-anchor="middle" dominant-baseline="middle" class="block-label" fill="rgb(121,210,214)" stroke="white" stroke-width="3" paint-order="stroke">b-0004</text><polygon points="2794,279 2793,280 2790,280 2789,281 2787,281 2786,282 2784,282 2783,283 2763,283 2762,284 2752,284 2751,285 2738,285 2737,284 2730,284 2729,285 2715,285 2714,286 2670,286 2669,287 2645,287 2644,288 2637,288 2636,289 2632,289 2631,290 2628,290 2627,291 2623,291 2622,292 2614,292 2613,293 2601,293 2600,294 2598,294 2597,295 2595,295 2594,296 2581,296 2580,295 2575,295 2574,294 2570,294 2569,293 2562,293 2561,292 2555,292 2554,291 2549,291 2548,290 2539,290 2538,289 2518,289 2517,288 2500,288 2499,287 2474,287 2473,286 2455,286 2454,287 2418,287 2417,288 2413,288 2412,287 2406,287 2405,286 2382,286 2381,285 2358,285 2357,286 2346,286 2345,287 2333,287 2332,286 2318,286 2317,287 2252,287 2251,288 2240,288 2239,287 2209,287 2208,286 2206,286 2205,287 2196,287 2195,286 2143,286 2142,285 2125,285 2124,286 2119,286 2118,287 2114,287 2113,288 2103,288 2102,289 2101,289 2098,292 2098,306 2097,307 2097,309 2096,310 2096,312 2095,313 2095,328 2094,329 2094,337 2093,338 2093,340 2094,341 2094,358 2093,359 2093,369 2094,370 2094,380 2093,381 2093,395 2094,396 2094,401 2093,402 2093,408 2092,409 2092,418 2093,419 2093,424 2092,425 2092,431 2091,432 2091,441 2092,442 2092,450 2091,451 2091,456 2090,457 2090,473 2091,474 2091,486 2092,487 2092,489 2093,490 2093,492 2094,493 2094,496 2095,497 2095,508 2096,509 2096,533 2097,534 2097,551 2096,552 2096,567 2097,568 2097,571 2098,572 2098,575 2099,576 2099,578 2100,579 2100,590 2101,591 2101,596 2102,597 2102,601 2103,602 2103,609 2104,610 2104,612 2105,613 2107,613 2108,614 2110,614 2111,615 2115,615 2116,616 2120,616 2121,617 2127,617 2128,618 2181,618 2182,619 2189,619 2190,618 2200,618 2201,619 2215,619 2216,618 2253,618 2254,619 2261,619 2262,618 2278,618 2279,619 2280,619 2281,618 2289,618 2290,617 2296,617 2297,618 2320,618 2321,619 2336,619 2337,618 2342,618 2343,619 2359,619 2360,618 2368,618 2369,619 2390,619 2391,620 2424,620 2425,621 2432,621 2433,622 2443,622 2444,621 2452,621 2453,622 2501,622 2502,621 2516,621 2517,622 2539,622 2540,623 2545,623 2546,624 2547,624 2548,625 2549,625 2550,626 2552,626 2553,627 2567,627 2568,628 2571,628 2572,629 2575,629 2576,630 2591,630 2592,631 2596,631 2597,632 2605,632 2606,633 2618,633 2619,632 2622,632 2623,631 2628,631 2629,630 2690,630 2691,629 2701,629 2702,628 2742,628 2743,627 2752,627 2753,626 2761,626 2762,627 2765,627 2766,628 2778,628 2779,627 2784,627 2785,628 2788,628 2789,629 2801,629 2802,628 2815,628 2816,629 2828,629 2829,628 2835,628 2836,629 2878,629 2879,628 2882,628 2883,627 2884,627 2885,626 2887,626 2888,625 2894,625 2895,626 2899,626 2900,627 2910,627 2911,628 2913,628 2914,627 2919,627 2920,626 2928,626 2929,627 2931,627 2932,628 2952,628 2953,627 2964,627 2965,628 2976,628 2977,629 2983,629 2984,630 3014,630 3015,631 3028,631 3029,630 3031,630 3032,631 3038,631 3039,632 3053,632 3054,631 3062,631 3063,632 3071,632 3072,631 3094,631 3095,632 3111,632 3112,631 3223,631 3224,632 3251,632 3252,631 3269,631 3270,630 3286,630 3287,631 3318,631 3319,632 3330,632 3331,631 3370,631 3371,630 3381,630 3382,631 3398,631 3399,630 3406,630 3407,631 3433,631 3434,632 3441,632 3442,631 3447,631 3448,630 3454,630 3455,631 3477,631 3478,632 3512,632 3513,631 3519,631 3520,630 3525,630 3526,631 3577,631 3578,632 3597,632 3598,633 3608,633 3609,632 3614,632 3615,631 3674,631 3675,632 3707,632 3708,633 3718,633 3719,634 3728,634 3729,633 3735,633 3736,632 3748,632 3749,631 3751,631 3752,630 3753,630 3755,628 3756,628 3758,626 3758,625 3759,624 3759,621 3760,620 3760,614 3761,613 3761,605 3762,604 3762,599 3761,598 3761,584 3762,583 3762,576 3761,575 3761,570 3760,569 3760,561 3761,560 3761,549 3760,548 3760,536 3761,535 3761,512 3762,511 3762,506 3761,505 3761,501 3760,500 3760,496 3759,495 3759,493 3760,492 3760,485 3761,484 3761,480 3760,479 3760,465 3761,464 3761,455 3760,454 3760,438 3761,437 3761,430 3760,429 3760,408 3761,407 3761,405 3762,404 3762,401 3763,400 3763,386 3762,385 3762,381 3761,380 3761,334 3760,333 3760,307 3759,306 3759,300 3758,299 3758,296 3757,295 3757,293 3754,290 3753,290 3752,289 3751,289 3750,288 3748,288 3747,287 3744,287 3743,288 3732,288 3731,287 3693,287 3692,288 3683,288 3682,287 3671,287 3670,288 3630,288 3629,287 3626,287 3625,288 3613,288 3612,287 3601,287 3600,288 3589,288 3588,287 3574,287 3573,288 3494,288 3493,287 3408,287 3407,288 3398,288 3397,287 3385,287 3384,286 3366,286 3365,287 3357,287 3356,288 3340,288 3339,287 3335,287 3334,286 3318,286 3317,285 3301,285 3300,286 3297,286 3296,287 3293,287 3292,286 3287,286 3286,285 3267,285 3266,286 3250,286 3249,285 3232,285 3231,286 3215,286 3214,287 3203,287 3202,286 3121,286 3120,287 3114,287 3113,286 3091,286 3090,287 3074,287 3073,288 3046,288 3045,287 3010,287 3009,286 2999,286 2998,285 2994,285 2993,286 2975,286 2974,287 2971,287 2970,286 2929,286 2928,287 2915,287 2914,286 2905,286 2904,285 2896,285 2895,286 2854,286 2853,285 2838,285 2837,284 2830,284 2829,283 2814,283 2813,282 2809,282 2808,281 2805,281 2804,280 2798,280 2797,279" fill="rgba(74,202,87,0.3)" stroke="rgb(74,202,87)" stroke-width="2" data-block-id="0004" data-name="b-0005" /><text x="2887" y="464" text-anchor="middle" dominant-baseline="middle" class="block-label" fill="rgb(74,202,87)" stroke="white" stroke-width="3" paint-order="stroke">b-0005</text><polygon points="3196,1633 3195,1634 3190,1634 3189,1635 3177,1635 3176,1636 3123,1636 3122,1637 3114,1637 3113,1636 3098,1636 3097,1637 3059,1637 3058,1636 3057,1636 3056,1637 3042,1637 3041,1638 3033,1638 3032,1637 3023,1637 3022,1636 3017,1636 3016,1637 2963,1637 2962,1638 2943,1638 2942,1637 2882,1637 2881,1636 2876,1636 2875,1637 2861,1637 2860,1636 2843,1636 2842,1635 2830,1635 2829,1636 2808,1636 2807,1637 2804,1637 2803,1636 2773,1636 2772,1637 2764,1637 2763,1638 2751,1638 2750,1637 2628,1637 2627,1638 2605,1638 2604,1639 2599,1639 2598,1640 2596,1640 2595,1641 2594,1641 2593,1642 2579,1642 2578,1641 2557,1641 2556,1640 2548,1640 2547,1639 2536,1639 2535,1640 2529,1640 2528,1639 2523,1639 2522,1638 2509,1638 2508,1639 2447,1639 2446,1640 2426,1640 2425,1639 2424,1640 2415,1640 2414,1641 2367,1641 2366,1640 2363,1640 2362,1641 2355,1641 2354,1642 2342,1642 2341,1641 2300,1641 2299,1642 2291,1642 2290,1641 2284,1641 2283,1640 2264,1640 2263,1639 2259,1639 2258,1638 2245,1638 2244,1637 2221,1637 2220,1638 2219,1637 2156,1637 2155,1638 2147,1638 2146,1637 2116,1637 2115,1638 2097,1638 2096,1639 2092,1639 2091,1640 2089,1640 2088,1641 2087,1641 2086,1642 2086,1643 2085,1644 2085,1647 2084,1648 2084,1656 2083,1657 2083,1664 2082,1665 2082,1673 2083,1674 2083,1687 2082,1688 2082,1707 2083,1708 2083,1721 2082,1722 2082,1735 2083,1736 2083,1742 2082,1743 2082,1763 2083,1764 2083,1774 2082,1775 2082,1810 2083,1811 2083,1813 2082,1814 2082,1846 2081,1847 2081,1848 2082,1849 2082,1866 2081,1867 2081,1946 2082,1947 2082,1952 2083,1953 2083,1959 2082,1960 2082,1966 2083,1967 2083,1969 2088,1974 2090,1974 2091,1975 2096,1975 2097,1976 2109,1976 2110,1977 2117,1977 2118,1976 2160,1976 2161,1977 2172,1977 2173,1978 2177,1978 2178,1977 2193,1977 2194,1976 2200,1976 2201,1977 2208,1977 2209,1978 2234,1978 2235,1977 2238,1977 2239,1976 2242,1976 2243,1975 2256,1975 2257,1974 2263,1974 2264,1973 2284,1973 2285,1972 2303,1972 2304,1973 2344,1973 2345,1974 2373,1974 2374,1975 2381,1975 2382,1976 2387,1976 2388,1977 2397,1977 2398,1978 2401,1978 2402,1977 2416,1977 2417,1976 2433,1976 2434,1975 2441,1975 2442,1976 2473,1976 2474,1975 2493,1975 2494,1974 2500,1974 2501,1973 2528,1973 2529,1972 2534,1972 2535,1973 2572,1973 2573,1972 2597,1972 2598,1973 2616,1973 2617,1972 2635,1972 2636,1973 2654,1973 2655,1974 2678,1974 2679,1975 2723,1975 2724,1976 2772,1976 2773,1977 2782,1977 2783,1978 2784,1977 2794,1977 2795,1976 2808,1976 2809,1975 2828,1975 2829,1974 2845,1974 2846,1973 2897,1973 2898,1972 2905,1972 2906,1973 2913,1973 2914,1974 2927,1974 2928,1973 2933,1973 2934,1972 2961,1972 2962,1973 2999,1973 3000,1974 3064,1974 3065,1975 3070,1975 3071,1974 3078,1974 3079,1973 3097,1973 3098,1974 3145,1974 3146,1973 3159,1973 3160,1974 3167,1974 3168,1973 3179,1973 3180,1974 3195,1974 3196,1973 3206,1973 3207,1974 3216,1974 3217,1973 3238,1973 3239,1974 3280,1974 3281,1975 3301,1975 3302,1976 3310,1976 3311,1975 3319,1975 3320,1974 3328,1974 3329,1973 3339,1973 3340,1974 3347,1974 3348,1973 3353,1973 3354,1974 3358,1974 3359,1975 3367,1975 3368,1976 3369,1975 3382,1975 3383,1974 3427,1974 3428,1973 3482,1973 3483,1974 3543,1974 3544,1975 3556,1975 3557,1976 3570,1976 3571,1975 3746,1975 3747,1974 3757,1974 3758,1973 3760,1973 3761,1972 3762,1972 3762,1971 3764,1969 3764,1968 3765,1967 3765,1964 3766,1963 3766,1801 3767,1800 3767,1794 3766,1793 3766,1773 3767,1772 3767,1761 3766,1760 3766,1714 3765,1713 3765,1660 3764,1659 3764,1652 3763,1651 3763,1647 3762,1646 3762,1645 3761,1644 3761,1643 3760,1643 3759,1642 3758,1642 3757,1641 3754,1641 3753,1640 3749,1640 3748,1639 3745,1639 3744,1640 3720,1640 3719,1639 3602,1639 3601,1640 3551,1640 3550,1639 3513,1639 3512,1640 3510,1640 3509,1639 3458,1639 3457,1640 3454,1640 3453,1641 3451,1641 3450,1642 3440,1642 3439,1641 3413,1641 3412,1640 3408,1640 3407,1639 3403,1639 3402,1638 3379,1638 3378,1637 3363,1637 3362,1636 3283,1636 3282,1637 3270,1637 3269,1636 3213,1636 3212,1635 3207,1635 3206,1634 3203,1634 3202,1633" fill="rgba(116,99,103,0.3)" stroke="rgb(116,99,103)" stroke-width="2" data-block-id="0005" data-name="b-0006" /><text x="2818" y="1803" text-anchor="middle" dominant-baseline="middle" class="block-label" fill="rgb(116,99,103)" stroke="white" stroke-width="3" paint-order="stroke">b-0006</text><polygon points="3305,725 3304,726 3303,726 3302,727 3301,727 3300,728 3299,728 3298,729 3297,729 3296,730 3296,731 3292,735 3291,735 3290,736 3289,736 3288,737 3287,737 3286,738 3265,738 3264,737 3256,737 3255,738 3226,738 3225,739 3222,739 3221,738 3214,738 3213,737 3208,737 3207,738 3190,738 3189,737 3188,737 3187,738 3179,738 3178,739 3166,739 3165,738 3164,739 3147,739 3146,738 3134,738 3133,739 3118,739 3117,738 3116,738 3115,739 3107,739 3106,740 3101,740 3100,739 3083,739 3082,740 3074,740 3073,739 3067,739 3066,740 3050,740 3049,739 3025,739 3024,738 3011,738 3010,739 3009,738 3002,738 3001,737 2991,737 2990,738 2971,738 2970,739 2965,739 2964,740 2958,740 2957,739 2952,739 2951,738 2945,738 2944,739 2936,739 2935,740 2923,740 2922,741 2918,741 2917,742 2909,742 2908,741 2905,741 2904,740 2893,740 2892,741 2886,741 2885,740 2868,740 2867,741 2862,741 2861,740 2835,740 2834,739 2823,739 2822,740 2815,740 2814,739 2810,739 2809,738 2801,738 2800,739 2793,739 2792,740 2779,740 2778,741 2776,741 2775,742 2774,742 2773,743 2768,743 2767,742 2766,742 2764,740 2762,740 2761,739 2760,739 2759,738 2756,738 2755,739 2753,739 2752,740 2749,740 2748,741 2742,741 2741,740 2726,740 2725,741 2683,741 2682,742 2644,742 2643,743 2633,743 2632,744 2626,744 2625,745 2615,745 2614,746 2610,746 2609,747 2606,747 2605,748 2604,748 2603,749 2602,749 2601,750 2598,750 2597,751 2596,751 2595,752 2594,752 2590,756 2589,756 2587,758 2586,758 2584,760 2583,760 2582,761 2577,761 2576,760 2575,760 2569,754 2569,753 2568,752 2568,751 2567,751 2566,750 2565,751 2565,752 2564,753 2564,754 2563,755 2563,756 2558,761 2557,761 2556,762 2555,762 2554,761 2553,761 2551,759 2551,758 2550,757 2550,756 2549,755 2549,753 2548,752 2548,750 2547,749 2547,748 2546,747 2545,747 2544,746 2541,746 2540,747 2538,747 2532,753 2526,753 2525,752 2517,752 2516,753 2515,753 2512,756 2511,756 2509,758 2508,758 2505,755 2505,753 2504,752 2504,748 2500,744 2498,744 2497,743 2491,743 2490,744 2476,744 2475,743 2466,743 2465,744 2454,744 2453,743 2444,743 2443,744 2429,744 2428,743 2416,743 2415,744 2410,744 2409,743 2404,743 2403,742 2396,742 2395,743 2382,743 2381,742 2366,742 2365,743 2363,743 2362,742 2347,742 2346,743 2332,743 2331,744 2314,744 2313,743 2296,743 2295,744 2289,744 2288,743 2253,743 2252,744 2250,744 2249,745 2248,745 2247,746 2241,746 2240,745 2237,745 2236,744 2225,744 2224,743 2215,743 2214,742 2201,742 2200,743 2195,743 2194,742 2169,742 2168,743 2161,743 2160,744 2134,744 2133,743 2128,743 2127,742 2111,742 2110,743 2102,743 2101,744 2099,744 2097,746 2097,751 2098,752 2098,754 2099,755 2099,756 2098,757 2098,758 2092,764 2092,765 2091,766 2091,767 2090,768 2090,774 2091,775 2091,783 2090,784 2090,789 2089,790 2089,825 2090,826 2090,828 2089,829 2089,837 2088,838 2088,866 2089,867 2089,886 2088,887 2088,903 2089,904 2089,907 2090,908 2090,911 2091,912 2091,920 2092,921 2092,925 2091,926 2091,931 2090,932 2090,944 2089,945 2089,962 2090,963 2090,976 2089,977 2089,987 2088,988 2088,1006 2089,1007 2089,1024 2088,1025 2088,1049 2089,1050 2089,1066 2091,1068 2091,1069 2093,1069 2094,1070 2096,1070 2097,1071 2099,1071 2100,1072 2102,1072 2103,1073 2109,1073 2110,1074 2120,1074 2121,1075 2137,1075 2138,1074 2146,1074 2147,1073 2152,1073 2153,1074 2170,1074 2171,1073 2188,1073 2189,1072 2195,1072 2196,1071 2197,1072 2200,1072 2201,1073 2203,1073 2204,1074 2208,1074 2209,1075 2239,1075 2240,1074 2249,1074 2250,1075 2285,1075 2286,1074 2294,1074 2295,1075 2302,1075 2303,1076 2308,1076 2309,1075 2330,1075 2331,1074 2338,1074 2339,1073 2342,1073 2343,1074 2378,1074 2379,1073 2392,1073 2393,1074 2437,1074 2438,1075 2459,1075 2460,1074 2463,1074 2464,1075 2488,1075 2489,1076 2526,1076 2527,1077 2535,1077 2536,1078 2549,1078 2550,1077 2566,1077 2567,1078 2576,1078 2577,1079 2583,1079 2584,1078 2591,1078 2592,1079 2596,1079 2597,1080 2624,1080 2625,1081 2640,1081 2641,1080 2669,1080 2670,1079 2718,1079 2719,1078 2730,1078 2731,1079 2735,1079 2736,1078 2885,1078 2886,1077 2905,1077 2906,1076 2917,1076 2918,1077 2922,1077 2923,1078 2932,1078 2933,1079 2953,1079 2954,1078 2966,1078 2967,1079 2994,1079 2995,1080 2996,1079 3003,1079 3004,1078 3084,1078 3085,1079 3120,1079 3121,1080 3141,1080 3142,1079 3148,1079 3149,1078 3153,1078 3154,1079 3158,1079 3159,1080 3164,1080 3165,1081 3216,1081 3217,1082 3230,1082 3231,1081 3237,1081 3238,1080 3257,1080 3258,1081 3275,1081 3276,1080 3291,1080 3292,1081 3310,1081 3311,1080 3317,1080 3318,1079 3329,1079 3330,1078 3360,1078 3361,1077 3389,1077 3390,1078 3428,1078 3429,1079 3431,1079 3432,1080 3434,1080 3435,1081 3439,1081 3440,1082 3441,1081 3503,1081 3504,1080 3516,1080 3517,1079 3527,1079 3528,1080 3549,1080 3550,1081 3573,1081 3574,1082 3584,1082 3585,1081 3626,1081 3627,1080 3650,1080 3651,1081 3660,1081 3661,1080 3700,1080 3701,1081 3714,1081 3715,1080 3742,1080 3743,1079 3751,1079 3752,1078 3757,1078 3758,1077 3759,1077 3763,1073 3763,1072 3764,1071 3764,1070 3765,1069 3765,1067 3766,1066 3766,1046 3765,1045 3765,1022 3766,1021 3766,1016 3765,1015 3765,999 3764,998 3764,968 3765,967 3765,958 3764,957 3764,935 3765,934 3765,908 3764,907 3764,883 3765,882 3765,863 3764,862 3764,843 3763,842 3764,841 3764,834 3765,833 3765,821 3764,820 3764,796 3763,795 3763,794 3764,793 3764,768 3763,767 3763,763 3762,762 3762,757 3761,756 3761,747 3760,746 3760,745 3758,743 3754,743 3753,742 3750,742 3749,741 3746,741 3745,740 3741,740 3740,739 3687,739 3686,740 3673,740 3672,739 3659,739 3658,740 3621,740 3620,739 3612,739 3611,740 3593,740 3592,741 3579,741 3578,740 3563,740 3562,741 3541,741 3540,740 3536,740 3535,739 3515,739 3514,740 3492,740 3491,739 3483,739 3482,740 3471,740 3470,739 3463,739 3462,738 3448,738 3447,739 3434,739 3433,738 3419,738 3418,739 3377,739 3376,738 3374,738 3373,737 3371,737 3370,736 3368,736 3367,735 3365,735 3364,734 3362,734 3361,733 3360,733 3359,732 3358,732 3356,730 3350,730 3349,731 3347,731 3346,732 3341,732 3338,729 3337,729 3335,727 3334,727 3333,726 3327,726 3326,727 3324,727 3323,728 3315,728 3314,727 3312,727 3311,726 3310,726 3309,725" fill="rgba(151,130,149,0.3)" stroke="rgb(151,130,149)" stroke-width="2" data-block-id="0006" data-name="b-0007" /><text x="2866" y="859" text-anchor="middle" dominant-baseline="middle" class="block-label" fill="rgb(151,130,149)" stroke="white" stroke-width="3" paint-order="stroke">b-0007</text><polygon points="3088,1184 3087,1185 3044,1185 3043,1186 2978,1186 2977,1185 2970,1185 2969,1186 2966,1186 2965,1187 2954,1187 2953,1186 2931,1186 2930,1185 2924,1185 2923,1186 2918,1186 2917,1187 2858,1187 2857,1186 2824,1186 2823,1185 2807,1185 2806,1186 2661,1186 2660,1187 2644,1187 2643,1188 2626,1188 2625,1189 2616,1189 2615,1190 2607,1190 2606,1191 2574,1191 2573,1190 2564,1190 2563,1189 2546,1189 2545,1188 2503,1188 2502,1189 2469,1189 2468,1190 2458,1190 2457,1189 2453,1189 2452,1188 2431,1188 2430,1189 2413,1189 2412,1188 2400,1188 2399,1187 2392,1187 2391,1188 2385,1188 2384,1187 2376,1187 2375,1188 2357,1188 2356,1187 2348,1187 2347,1188 2261,1188 2260,1187 2164,1187 2163,1188 2154,1188 2153,1187 2099,1187 2098,1188 2093,1188 2092,1189 2090,1189 2087,1192 2087,1203 2086,1204 2086,1208 2085,1209 2085,1214 2084,1215 2084,1216 2085,1217 2085,1304 2084,1305 2084,1337 2083,1338 2083,1349 2084,1350 2084,1352 2085,1353 2085,1355 2086,1356 2086,1365 2085,1366 2085,1375 2084,1376 2084,1446 2085,1447 2085,1466 2084,1467 2084,1491 2085,1492 2085,1502 2084,1503 2084,1512 2085,1513 2085,1514 2088,1517 2090,1517 2091,1518 2094,1518 2095,1519 2098,1519 2099,1520 2122,1520 2123,1521 2144,1521 2145,1522 2152,1522 2153,1521 2165,1521 2166,1522 2172,1522 2173,1523 2194,1523 2195,1524 2204,1524 2205,1523 2209,1523 2210,1524 2218,1524 2219,1525 2224,1525 2225,1524 2261,1524 2262,1523 2302,1523 2303,1522 2313,1522 2314,1523 2348,1523 2349,1522 2352,1522 2353,1523 2361,1523 2362,1524 2382,1524 2383,1523 2404,1523 2405,1524 2417,1524 2418,1523 2427,1523 2428,1524 2454,1524 2455,1523 2484,1523 2485,1522 2499,1522 2500,1523 2546,1523 2547,1524 2556,1524 2557,1525 2568,1525 2569,1524 2575,1524 2576,1523 2595,1523 2596,1524 2601,1524 2602,1525 2614,1525 2615,1526 2737,1526 2738,1525 2749,1525 2750,1526 2772,1526 2773,1525 2802,1525 2803,1526 2809,1526 2810,1525 2861,1525 2862,1524 2881,1524 2882,1523 2887,1523 2888,1522 2893,1522 2894,1523 2905,1523 2906,1522 2920,1522 2921,1523 2926,1523 2927,1524 2931,1524 2932,1525 2951,1525 2952,1524 2956,1524 2957,1523 2967,1523 2968,1524 2999,1524 3000,1523 3078,1523 3079,1524 3083,1524 3084,1523 3097,1523 3098,1524 3120,1524 3121,1523 3147,1523 3148,1524 3162,1524 3163,1523 3197,1523 3198,1524 3203,1524 3204,1523 3243,1523 3244,1524 3250,1524 3251,1523 3280,1523 3281,1522 3282,1523 3303,1523 3304,1522 3310,1522 3311,1523 3328,1523 3329,1522 3333,1522 3334,1523 3347,1523 3348,1522 3355,1522 3356,1521 3357,1522 3364,1522 3365,1523 3367,1523 3368,1522 3376,1522 3377,1521 3380,1521 3381,1522 3395,1522 3396,1521 3401,1521 3402,1520 3413,1520 3414,1519 3431,1519 3432,1520 3447,1520 3448,1519 3451,1519 3452,1520 3456,1520 3457,1521 3460,1521 3461,1522 3465,1522 3466,1521 3478,1521 3479,1522 3527,1522 3528,1523 3566,1523 3567,1522 3571,1522 3572,1523 3578,1523 3579,1524 3585,1524 3586,1523 3626,1523 3627,1524 3631,1524 3632,1523 3673,1523 3674,1524 3679,1524 3680,1523 3686,1523 3687,1522 3720,1522 3721,1523 3727,1523 3728,1522 3735,1522 3736,1521 3744,1521 3745,1520 3749,1520 3750,1519 3753,1519 3754,1518 3757,1518 3758,1517 3759,1517 3760,1516 3760,1515 3761,1514 3761,1513 3762,1512 3762,1486 3763,1485 3763,1472 3762,1471 3762,1461 3763,1460 3763,1446 3762,1445 3762,1433 3761,1432 3761,1427 3762,1426 3762,1417 3763,1416 3763,1415 3762,1414 3762,1396 3761,1395 3761,1389 3762,1388 3762,1351 3761,1350 3761,1342 3762,1341 3762,1286 3763,1285 3763,1275 3762,1274 3762,1208 3761,1207 3761,1202 3760,1201 3760,1199 3759,1198 3759,1196 3756,1193 3756,1192 3755,1192 3754,1191 3752,1191 3751,1190 3750,1190 3749,1189 3746,1189 3745,1188 3741,1188 3740,1187 3723,1187 3722,1186 3670,1186 3669,1187 3661,1187 3660,1186 3620,1186 3619,1185 3584,1185 3583,1184 3579,1184 3578,1185 3565,1185 3564,1184 3553,1184 3552,1185 3545,1185 3544,1186 3543,1185 3525,1185 3524,1186 3453,1186 3452,1187 3442,1187 3441,1186 3432,1186 3431,1187 3425,1187 3424,1186 3410,1186 3409,1187 3395,1187 3394,1186 3385,1186 3384,1187 3360,1187 3359,1186 3336,1186 3335,1187 3326,1187 3325,1186 3244,1186 3243,1185 3214,1185 3213,1186 3212,1186 3211,1185 3188,1185 3187,1186 3185,1186 3184,1185 3145,1185 3144,1184 3124,1184 3123,1185 3108,1185 3107,1186 3103,1186 3102,1185 3094,1185 3093,1184" fill="rgba(52,1,87,0.3)" stroke="rgb(52,1,87)" stroke-width="2" data-block-id="0007" data-name="b-0008" /><text x="2989" y="1377" text-anchor="middle" dominant-baseline="middle" class="block-label" fill="rgb(52,1,87)" stroke="white" stroke-width="3" paint-order="stroke">b-0008</text><polygon points="431,2076 430,2077 418,2077 417,2078 413,2078 409,2082 409,2084 408,2085 408,2094 407,2095 407,2124 406,2125 406,2145 407,2146 407,2151 406,2152 406,2195 405,2196 405,2255 404,2256 404,2262 403,2263 403,2299 402,2300 402,2394 401,2395 401,2439 402,2440 402,2444 406,2448 407,2448 408,2449 409,2449 410,2450 432,2450 433,2451 444,2451 445,2450 450,2450 451,2451 520,2451 521,2452 561,2452 562,2453 611,2453 612,2454 685,2454 686,2455 731,2455 732,2456 756,2456 757,2457 761,2457 762,2456 772,2456 773,2457 797,2457 798,2458 810,2458 811,2457 825,2457 826,2458 832,2458 833,2457 847,2457 848,2458 917,2458 918,2459 949,2459 950,2460 955,2460 956,2461 979,2461 980,2460 993,2460 994,2461 1000,2461 1001,2460 1015,2460 1016,2459 1026,2459 1027,2458 1066,2458 1067,2459 1071,2459 1072,2458 1094,2458 1095,2459 1118,2459 1119,2458 1131,2458 1132,2459 1188,2459 1189,2460 1219,2460 1220,2459 1230,2459 1231,2460 1241,2460 1242,2461 1411,2461 1412,2462 1433,2462 1434,2463 1447,2463 1448,2464 1463,2464 1464,2463 1483,2463 1484,2462 1493,2462 1494,2463 1504,2463 1505,2462 1524,2462 1525,2463 1529,2463 1530,2464 1623,2464 1624,2465 1635,2465 1636,2464 1656,2464 1657,2463 1670,2463 1671,2464 1677,2464 1678,2465 1746,2465 1747,2464 1750,2464 1751,2465 1881,2465 1882,2464 1884,2464 1885,2463 1886,2463 1890,2459 1890,2458 1891,2457 1891,2454 1892,2453 1892,2437 1893,2436 1893,2424 1894,2423 1894,2408 1895,2407 1895,2382 1894,2381 1894,2369 1893,2368 1893,2328 1892,2327 1892,2307 1893,2306 1893,2287 1892,2286 1892,2215 1893,2214 1893,2182 1894,2181 1894,2171 1895,2170 1895,2105 1894,2104 1894,2097 1893,2096 1893,2095 1892,2094 1892,2093 1890,2091 1889,2091 1888,2090 1887,2090 1886,2089 1882,2089 1881,2088 1831,2088 1830,2087 1714,2087 1713,2086 1709,2086 1708,2085 1704,2085 1703,2084 1697,2084 1696,2085 1690,2085 1689,2086 1686,2086 1685,2085 1567,2085 1566,2084 1556,2084 1555,2085 1531,2085 1530,2084 1523,2084 1522,2083 1507,2083 1506,2084 1502,2084 1501,2085 1492,2085 1491,2084 1453,2084 1452,2085 1442,2085 1441,2084 1434,2084 1433,2085 1406,2085 1405,2084 1365,2084 1364,2085 1341,2085 1340,2086 1301,2086 1300,2085 1287,2085 1286,2084 1259,2084 1258,2085 1246,2085 1245,2084 1215,2084 1214,2085 1208,2085 1207,2084 1200,2084 1199,2083 1188,2083 1187,2082 1180,2082 1179,2083 1175,2083 1174,2082 1102,2082 1101,2081 1076,2081 1075,2082 1070,2082 1069,2083 1064,2083 1063,2082 1047,2082 1046,2081 1041,2081 1040,2082 1014,2082 1013,2081 1001,2081 1000,2082 982,2082 981,2081 974,2081 973,2080 957,2080 956,2081 934,2081 933,2082 927,2082 926,2083 841,2083 840,2082 829,2082 828,2081 809,2081 808,2082 803,2082 802,2081 797,2081 796,2080 784,2080 783,2079 716,2079 715,2080 685,2080 684,2079 581,2079 580,2078 577,2078 576,2079 570,2079 569,2080 557,2080 556,2079 540,2079 539,2078 525,2078 524,2079 512,2079 511,2078 485,2078 484,2077 480,2077 479,2078 468,2078 467,2077 438,2077 437,2076" fill="rgba(235,157,37,0.3)" stroke="rgb(235,157,37)" stroke-width="2" data-block-id="0008" data-name="b-0009" /><text x="1146" y="2252" text-anchor="middle" dominant-baseline="middle" class="block-label" fill="rgb(235,157,37)" stroke="white" stroke-width="3" paint-order="stroke">b-0009</text><polygon points="424,1366 424,1368 423,1369 423,1371 422,1372 422,1390 423,1391 422,1392 422,1404 423,1405 423,1415 422,1416 422,1423 421,1424 421,1427 422,1428 422,1465 421,1466 421,1470 420,1471 420,1473 421,1474 421,1477 422,1478 422,1479 423,1480 423,1481 424,1482 424,1483 425,1484 425,1488 424,1489 424,1491 423,1492 423,1497 424,1498 424,1499 425,1500 426,1500 427,1501 427,1502 429,1504 429,1506 430,1507 430,1508 432,1510 433,1510 434,1511 444,1511 445,1512 448,1512 449,1511 539,1511 540,1512 641,1512 642,1513 669,1513 670,1512 686,1512 687,1513 712,1513 713,1512 715,1512 716,1511 718,1511 719,1510 721,1510 722,1509 723,1509 724,1508 726,1508 727,1507 728,1507 728,1506 727,1505 727,1502 726,1501 726,1500 725,1499 725,1498 723,1496 723,1495 722,1494 722,1490 721,1489 721,1486 720,1485 720,1484 719,1483 719,1481 718,1480 718,1479 717,1478 717,1477 716,1476 716,1475 715,1474 715,1472 714,1471 714,1466 713,1465 713,1454 714,1453 714,1447 713,1446 713,1435 715,1433 715,1432 718,1429 719,1429 720,1428 721,1428 722,1427 736,1427 737,1426 740,1426 741,1425 750,1425 751,1426 755,1426 756,1427 760,1427 761,1426 767,1426 768,1425 774,1425 775,1426 784,1426 785,1427 792,1427 793,1428 797,1428 798,1427 808,1427 809,1426 810,1426 810,1425 811,1424 808,1421 808,1420 807,1419 807,1418 806,1417 806,1416 805,1415 805,1413 804,1412 805,1411 805,1410 806,1409 806,1407 807,1406 807,1405 808,1404 808,1399 807,1398 807,1396 806,1395 806,1393 805,1392 805,1391 804,1390 804,1389 802,1389 801,1388 797,1388 796,1387 793,1387 792,1386 783,1386 782,1387 780,1387 775,1392 774,1392 771,1395 770,1395 769,1394 768,1394 767,1393 767,1392 766,1391 766,1390 765,1389 765,1388 762,1385 761,1385 760,1384 753,1384 752,1385 749,1385 748,1386 738,1386 737,1385 731,1385 730,1386 720,1386 718,1384 717,1384 716,1383 715,1383 714,1382 713,1382 712,1381 709,1381 708,1380 707,1380 706,1381 696,1381 695,1380 694,1380 693,1379 692,1379 691,1378 690,1378 689,1377 687,1377 683,1373 682,1373 681,1372 680,1372 679,1371 678,1371 677,1370 675,1370 674,1371 673,1371 671,1373 671,1374 669,1376 669,1377 663,1383 662,1383 661,1384 657,1384 656,1385 651,1385 650,1386 648,1386 646,1388 645,1388 644,1389 643,1389 641,1391 640,1391 639,1392 637,1392 636,1391 635,1391 634,1390 633,1390 631,1388 629,1388 628,1387 626,1387 625,1386 622,1386 621,1385 618,1385 617,1384 604,1384 603,1385 601,1385 600,1386 599,1386 598,1387 597,1387 596,1388 594,1388 592,1390 591,1390 590,1391 589,1391 589,1392 587,1394 587,1395 586,1396 586,1397 585,1398 585,1399 584,1400 584,1401 583,1402 583,1403 581,1405 581,1407 580,1408 579,1408 577,1410 576,1409 576,1407 575,1406 575,1404 574,1403 574,1400 573,1399 573,1397 572,1396 572,1394 571,1393 571,1391 569,1389 569,1388 568,1387 567,1387 566,1386 564,1386 563,1387 560,1387 559,1388 556,1388 555,1389 551,1389 550,1390 542,1390 540,1388 539,1388 537,1386 536,1386 535,1385 534,1385 533,1384 532,1384 531,1385 530,1385 529,1386 529,1387 528,1388 528,1390 527,1391 527,1408 528,1409 528,1414 527,1415 527,1417 526,1418 526,1419 525,1420 525,1422 524,1423 524,1427 526,1429 527,1429 528,1430 529,1430 530,1431 533,1431 534,1432 538,1432 539,1433 547,1433 548,1432 552,1432 553,1431 554,1431 555,1432 557,1432 558,1433 559,1433 560,1434 561,1434 565,1438 564,1439 564,1440 556,1448 555,1448 554,1449 540,1449 539,1450 534,1450 533,1451 527,1451 526,1452 523,1452 520,1455 520,1456 519,1457 519,1459 516,1462 515,1462 514,1463 513,1463 511,1465 511,1466 510,1467 510,1468 509,1469 509,1470 507,1472 500,1472 499,1471 496,1471 495,1472 493,1472 492,1473 491,1473 489,1475 488,1475 487,1476 482,1476 480,1474 480,1459 479,1458 479,1454 478,1453 478,1449 477,1448 477,1445 476,1444 476,1440 475,1439 475,1422 474,1421 474,1417 473,1416 473,1399 472,1398 472,1394 471,1393 471,1391 468,1391 468,1402 467,1403 467,1406 466,1407 466,1411 465,1412 465,1414 464,1415 464,1417 463,1418 463,1420 462,1421 462,1422 461,1423 461,1424 459,1426 459,1427 458,1428 435,1428 433,1426 433,1425 432,1424 432,1422 431,1421 431,1418 430,1417 430,1414 429,1413 429,1405 430,1404 430,1391 429,1390 429,1388 428,1387 428,1386 427,1385 427,1384 426,1383 426,1378 425,1377 425,1366" fill="rgba(129,191,187,0.3)" stroke="rgb(129,191,187)" stroke-width="2" data-block-id="0009" data-name="b-0010" /><text x="601" y="1424" text-anchor="middle" dominant-baseline="middle" class="block-label" fill="rgb(129,191,187)" stroke="white" stroke-width="3" paint-order="stroke">b-0010</text><polygon points="516,270 515,271 508,271 507,272 491,272 490,271 479,271 478,272 474,272 473,273 467,273 466,272 454,272 453,273 445,273 444,274 440,274 439,275 437,275 435,277 435,278 434,279 434,283 433,284 433,291 432,292 432,355 431,356 431,411 430,412 430,424 431,425 431,450 430,451 430,500 429,501 429,510 428,511 428,523 429,524 429,547 428,548 428,594 429,595 429,598 430,599 430,601 431,602 431,604 433,606 433,607 435,609 436,609 437,610 449,610 450,611 461,611 462,612 467,612 468,613 490,613 491,614 517,614 518,615 521,615 522,614 535,614 536,615 565,615 566,614 573,614 574,613 584,613 585,614 630,614 631,615 682,615 683,616 690,616 691,615 701,615 702,616 729,616 730,615 735,615 736,616 765,616 766,617 785,617 786,616 800,616 801,617 851,617 852,618 865,618 866,617 993,617 994,618 995,618 996,617 1007,617 1008,616 1020,616 1021,617 1028,617 1029,618 1099,618 1100,619 1114,619 1115,618 1120,618 1121,619 1140,619 1141,620 1142,620 1143,619 1219,619 1220,620 1261,620 1262,619 1293,619 1294,620 1309,620 1310,619 1345,619 1346,620 1358,620 1359,619 1382,619 1383,620 1441,620 1442,619 1463,619 1464,620 1537,620 1538,621 1613,621 1614,620 1662,620 1663,619 1666,619 1667,620 1673,620 1674,621 1704,621 1705,620 1717,620 1718,621 1723,621 1724,622 1733,622 1734,621 1738,621 1739,622 1752,622 1753,621 1788,621 1789,622 1802,622 1803,621 1812,621 1813,622 1839,622 1840,623 1847,623 1848,622 1881,622 1882,621 1889,621 1890,620 1893,620 1894,619 1895,619 1896,618 1897,618 1899,616 1900,616 1900,615 1901,614 1901,612 1902,611 1902,583 1903,582 1903,534 1904,533 1904,527 1903,526 1903,504 1904,503 1904,499 1905,498 1905,462 1904,461 1904,456 1905,455 1905,378 1906,377 1906,375 1905,374 1905,357 1906,356 1906,333 1907,332 1907,327 1906,326 1906,319 1905,318 1905,310 1906,309 1906,299 1905,298 1905,292 1904,291 1904,290 1902,288 1901,288 1900,287 1899,287 1898,286 1896,286 1895,285 1892,285 1891,284 1884,284 1883,283 1849,283 1848,282 1839,282 1838,283 1799,283 1798,282 1788,282 1787,283 1784,283 1783,282 1755,282 1754,281 1727,281 1726,280 1725,280 1724,281 1720,281 1719,282 1716,282 1715,283 1710,283 1709,282 1708,282 1707,281 1706,281 1705,280 1703,280 1702,279 1696,279 1695,280 1673,280 1672,281 1660,281 1659,280 1646,280 1645,281 1633,281 1632,280 1617,280 1616,279 1611,279 1610,278 1597,278 1596,279 1568,279 1567,278 1519,278 1518,277 1500,277 1499,278 1484,278 1483,277 1465,277 1464,276 1462,276 1461,277 1454,277 1453,278 1444,278 1443,277 1429,277 1428,276 1387,276 1386,277 1280,277 1279,276 1270,276 1269,275 1251,275 1250,274 1244,274 1243,275 1220,275 1219,276 1213,276 1212,277 1209,277 1208,276 1127,276 1126,275 1109,275 1108,274 1102,274 1101,275 1061,275 1060,274 1051,274 1050,275 1034,275 1033,274 1001,274 1000,275 984,275 983,274 953,274 952,275 941,275 940,274 897,274 896,273 891,273 890,272 889,272 888,273 884,273 883,274 881,274 880,275 871,275 870,274 834,274 833,273 812,273 811,274 788,274 787,275 775,275 774,274 763,274 762,275 752,275 751,276 737,276 736,275 725,275 724,276 716,276 715,277 684,277 683,276 665,276 664,277 658,277 657,276 647,276 646,275 637,275 636,274 611,274 610,273 607,273 606,272 605,272 604,271 601,271 600,272 599,272 598,273 596,273 595,274 580,274 579,273 576,273 575,272 570,272 569,271 537,271 536,270" fill="rgba(57,21,252,0.3)" stroke="rgb(57,21,252)" stroke-width="2" data-block-id="0010" data-name="b-0013" /><text x="1172" y="419" text-anchor="middle" dominant-baseline="middle" class="block-label" fill="rgb(57,21,252)" stroke="white" stroke-width="3" paint-order="stroke">b-0013</text><polygon points="436,1627 435,1628 430,1628 429,1629 424,1629 423,1630 421,1630 420,1631 419,1631 416,1634 416,1637 415,1638 415,1659 414,1660 414,1677 413,1678 413,1734 412,1735 412,1747 413,1748 413,1758 412,1759 412,1765 413,1766 413,1780 412,1781 412,1831 411,1832 411,1845 412,1846 412,1865 413,1866 413,1871 412,1872 412,1946 413,1947 413,1953 414,1954 414,1956 418,1960 419,1960 420,1961 421,1961 422,1962 426,1962 427,1963 436,1963 437,1964 445,1964 446,1965 450,1965 451,1964 463,1964 464,1965 471,1965 472,1966 485,1966 486,1967 503,1967 504,1966 509,1966 510,1967 537,1967 538,1968 550,1968 551,1967 559,1967 560,1968 576,1968 577,1969 596,1969 597,1968 606,1968 607,1969 613,1969 614,1970 618,1970 619,1969 694,1969 695,1968 698,1968 699,1969 701,1969 702,1970 704,1970 705,1971 709,1971 710,1972 735,1972 736,1971 741,1971 742,1970 754,1970 755,1971 860,1971 861,1970 867,1970 868,1971 942,1971 943,1972 1014,1972 1015,1971 1050,1971 1051,1970 1066,1970 1067,1971 1094,1971 1095,1972 1099,1972 1100,1973 1169,1973 1170,1974 1229,1974 1230,1973 1233,1973 1234,1972 1265,1972 1266,1973 1277,1973 1278,1974 1290,1974 1291,1975 1299,1975 1300,1974 1324,1974 1325,1975 1349,1975 1350,1974 1362,1974 1363,1975 1417,1975 1418,1974 1435,1974 1436,1973 1454,1973 1455,1974 1461,1974 1462,1975 1466,1975 1467,1976 1586,1976 1587,1975 1597,1975 1598,1976 1661,1976 1662,1977 1665,1977 1666,1976 1701,1976 1702,1977 1703,1976 1718,1976 1719,1977 1731,1977 1732,1976 1780,1976 1781,1975 1788,1975 1789,1976 1830,1976 1831,1975 1835,1975 1836,1976 1879,1976 1880,1975 1884,1975 1885,1974 1888,1974 1889,1973 1890,1973 1892,1971 1893,1971 1893,1970 1895,1968 1895,1966 1896,1965 1896,1919 1897,1918 1897,1917 1896,1916 1896,1883 1897,1882 1897,1826 1898,1825 1898,1803 1897,1802 1897,1776 1898,1775 1898,1770 1899,1769 1899,1766 1900,1765 1900,1720 1899,1719 1899,1709 1898,1708 1898,1698 1897,1697 1897,1682 1898,1681 1898,1675 1897,1674 1897,1664 1896,1663 1896,1657 1895,1656 1895,1647 1894,1646 1894,1644 1893,1643 1893,1642 1892,1642 1891,1641 1890,1641 1889,1640 1886,1640 1885,1639 1867,1639 1866,1638 1770,1638 1769,1637 1716,1637 1715,1638 1708,1638 1707,1637 1691,1637 1690,1636 1676,1636 1675,1637 1657,1637 1656,1636 1573,1636 1572,1637 1551,1637 1550,1636 1512,1636 1511,1637 1506,1637 1505,1636 1393,1636 1392,1635 1240,1635 1239,1634 1193,1634 1192,1633 1159,1633 1158,1632 1145,1632 1144,1633 1124,1633 1123,1634 1088,1634 1087,1635 1061,1635 1060,1634 1047,1634 1046,1633 999,1633 998,1632 994,1632 993,1633 978,1633 977,1632 945,1632 944,1633 932,1633 931,1632 916,1632 915,1633 906,1633 905,1634 902,1634 901,1635 894,1635 893,1636 889,1636 888,1635 879,1635 878,1634 869,1634 868,1635 862,1635 861,1634 849,1634 848,1635 817,1635 816,1636 809,1636 808,1637 796,1637 795,1636 785,1636 784,1635 758,1635 757,1636 719,1636 718,1635 716,1635 715,1634 702,1634 701,1635 693,1635 692,1634 675,1634 674,1633 665,1633 664,1632 658,1632 657,1633 646,1633 645,1632 624,1632 623,1631 593,1631 592,1630 571,1630 570,1629 501,1629 500,1628 475,1628 474,1627 468,1627 467,1628 462,1628 461,1629 459,1629 458,1628 453,1628 452,1627" fill="rgba(235,88,48,0.3)" stroke="rgb(235,88,48)" stroke-width="2" data-block-id="0011" data-name="b-0014" /><text x="1083" y="1800" text-anchor="middle" dominant-baseline="middle" class="block-label" fill="rgb(235,88,48)" stroke="white" stroke-width="3" paint-order="stroke">b-0014</text><polygon points="436,723 435,724 433,724 432,725 431,725 429,727 428,727 428,728 426,730 426,731 425,732 425,736 424,737 424,746 423,747 423,810 422,811 422,827 423,828 423,888 424,889 424,898 423,899 423,950 422,951 422,1003 421,1004 421,1011 422,1012 422,1026 421,1027 421,1042 422,1043 422,1047 423,1048 423,1050 424,1051 424,1053 425,1054 425,1055 426,1056 426,1058 427,1059 427,1061 428,1062 428,1063 430,1065 430,1066 432,1068 433,1068 434,1069 435,1069 436,1070 455,1070 456,1071 464,1071 465,1072 474,1072 475,1071 516,1071 517,1070 519,1070 520,1071 571,1071 572,1072 576,1072 577,1073 585,1073 586,1074 592,1074 593,1073 597,1073 598,1072 602,1072 603,1071 604,1071 605,1072 661,1072 662,1071 683,1071 684,1072 706,1072 707,1073 725,1073 726,1072 741,1072 742,1073 763,1073 764,1072 837,1072 838,1073 843,1073 844,1072 879,1072 880,1073 961,1073 962,1072 963,1073 985,1073 986,1074 1011,1074 1012,1073 1017,1073 1018,1072 1122,1072 1123,1073 1200,1073 1201,1074 1261,1074 1262,1075 1341,1075 1342,1074 1348,1074 1349,1073 1352,1073 1353,1072 1357,1072 1358,1071 1376,1071 1377,1070 1383,1070 1384,1069 1387,1069 1388,1068 1390,1068 1391,1067 1401,1067 1402,1068 1406,1068 1407,1069 1412,1069 1413,1070 1417,1070 1418,1069 1449,1069 1450,1070 1476,1070 1477,1069 1604,1069 1605,1070 1618,1070 1619,1071 1621,1071 1622,1072 1625,1072 1626,1073 1629,1073 1630,1074 1648,1074 1649,1075 1676,1075 1677,1074 1692,1074 1693,1075 1698,1075 1699,1076 1703,1076 1704,1075 1709,1075 1710,1074 1714,1074 1715,1075 1720,1075 1721,1076 1790,1076 1791,1077 1817,1077 1818,1078 1823,1078 1824,1077 1834,1077 1835,1078 1853,1078 1854,1079 1871,1079 1872,1078 1884,1078 1885,1077 1890,1077 1891,1076 1893,1076 1894,1075 1895,1075 1898,1072 1898,1071 1899,1070 1899,1069 1900,1068 1900,1035 1899,1034 1899,1026 1900,1025 1900,995 1899,994 1899,977 1900,976 1900,961 1901,960 1901,941 1900,940 1900,916 1901,915 1901,897 1900,896 1900,888 1899,887 1899,884 1898,883 1898,879 1897,878 1897,866 1898,865 1898,859 1899,858 1899,844 1898,843 1898,816 1899,815 1899,807 1900,806 1900,803 1899,802 1899,793 1898,792 1898,774 1899,773 1899,769 1898,768 1898,766 1897,765 1897,764 1896,763 1896,762 1895,761 1895,760 1894,759 1894,757 1893,756 1893,750 1892,749 1892,747 1888,743 1886,743 1885,742 1883,742 1882,741 1864,741 1863,740 1847,740 1846,741 1833,741 1832,740 1803,740 1802,741 1760,741 1759,740 1758,740 1757,741 1720,741 1719,740 1706,740 1705,741 1673,741 1672,740 1644,740 1643,741 1633,741 1632,742 1625,742 1624,741 1610,741 1609,742 1590,742 1589,743 1576,743 1575,742 1563,742 1562,743 1547,743 1546,744 1540,744 1539,745 1536,745 1535,746 1533,746 1532,745 1530,745 1529,744 1528,744 1527,743 1524,743 1523,742 1517,742 1516,743 1498,743 1497,744 1493,744 1492,745 1489,745 1488,746 1485,746 1484,745 1482,745 1481,744 1480,744 1479,743 1476,743 1475,742 1466,742 1465,743 1442,743 1441,744 1439,744 1438,743 1436,743 1435,742 1433,742 1432,741 1431,741 1430,740 1428,740 1427,739 1417,739 1416,740 1388,740 1387,739 1386,739 1385,738 1383,738 1382,737 1354,737 1353,736 1351,736 1350,735 1348,735 1347,734 1344,734 1343,733 1340,733 1339,732 1309,732 1308,731 1305,731 1304,732 1286,732 1285,731 1281,731 1280,732 1257,732 1256,731 1223,731 1222,732 1221,732 1220,731 1205,731 1204,732 1194,732 1193,731 1185,731 1184,732 1142,732 1141,731 1137,731 1136,732 1117,732 1116,731 1111,731 1110,732 1104,732 1103,731 1092,731 1091,730 1090,730 1089,731 1049,731 1048,730 1038,730 1037,731 1025,731 1024,732 1014,732 1013,731 1002,731 1001,730 944,730 943,731 908,731 907,730 884,730 883,731 880,731 879,732 876,732 875,731 873,731 872,730 871,730 870,729 868,729 867,728 865,728 864,727 862,727 861,728 856,728 855,729 789,729 788,728 733,728 732,729 633,729 632,728 618,728 617,727 606,727 605,728 603,728 602,727 595,727 594,726 557,726 556,725 546,725 545,726 543,726 542,725 522,725 521,724 503,724 502,723" fill="rgba(218,58,254,0.3)" stroke="rgb(218,58,254)" stroke-width="2" data-block-id="0012" data-name="b-0015" /><text x="1236" y="879" text-anchor="middle" dominant-baseline="middle" class="block-label" fill="rgb(218,58,254)" stroke="white" stroke-width="3" paint-order="stroke">b-0015</text><polygon points="980,1176 979,1177 976,1177 975,1178 967,1178 966,1179 952,1179 951,1180 925,1180 924,1179 913,1179 912,1180 903,1180 902,1181 868,1181 867,1180 860,1180 859,1181 843,1181 842,1182 839,1182 838,1181 787,1181 786,1180 760,1180 759,1181 750,1181 749,1182 738,1182 737,1181 728,1181 727,1180 715,1180 714,1181 678,1181 677,1180 667,1180 666,1181 646,1181 645,1180 638,1180 637,1179 624,1179 623,1180 615,1180 614,1181 595,1181 594,1180 583,1180 582,1181 576,1181 575,1180 560,1180 559,1181 549,1181 548,1180 534,1180 533,1181 527,1181 526,1180 515,1180 514,1181 498,1181 497,1180 466,1180 465,1181 455,1181 454,1180 450,1180 449,1179 444,1179 443,1180 437,1180 436,1181 434,1181 433,1182 431,1182 430,1183 429,1183 428,1184 427,1184 426,1185 425,1185 423,1187 422,1187 419,1190 419,1196 420,1197 420,1218 419,1219 419,1227 418,1228 418,1249 419,1250 419,1265 418,1266 418,1278 417,1279 417,1305 418,1306 418,1326 417,1327 417,1338 418,1339 418,1348 417,1349 417,1439 418,1440 417,1441 417,1497 418,1498 418,1503 419,1504 419,1506 420,1507 420,1508 421,1509 421,1510 423,1512 424,1512 425,1513 428,1513 429,1514 434,1514 435,1515 477,1515 478,1516 494,1516 495,1515 497,1515 498,1516 625,1516 626,1517 631,1517 632,1516 640,1516 641,1517 704,1517 705,1516 715,1516 716,1517 723,1517 724,1516 743,1516 744,1517 865,1517 866,1518 867,1518 868,1517 891,1517 892,1518 942,1518 943,1519 977,1519 978,1520 988,1520 989,1519 996,1519 997,1518 1019,1518 1020,1519 1140,1519 1141,1520 1187,1520 1188,1519 1234,1519 1235,1520 1286,1520 1287,1521 1299,1521 1300,1520 1305,1520 1306,1519 1308,1519 1309,1520 1315,1520 1316,1521 1383,1521 1384,1522 1387,1522 1388,1523 1395,1523 1396,1522 1407,1522 1408,1523 1417,1523 1418,1522 1420,1522 1421,1521 1423,1521 1424,1520 1428,1520 1429,1521 1433,1521 1434,1522 1444,1522 1445,1521 1458,1521 1459,1522 1467,1522 1468,1521 1486,1521 1487,1522 1488,1521 1504,1521 1505,1522 1513,1522 1514,1521 1529,1521 1530,1522 1538,1522 1539,1521 1548,1521 1549,1522 1553,1522 1554,1523 1561,1523 1562,1522 1587,1522 1588,1521 1598,1521 1599,1522 1604,1522 1605,1523 1607,1523 1608,1522 1649,1522 1650,1523 1653,1523 1654,1522 1658,1522 1659,1521 1672,1521 1673,1522 1708,1522 1709,1521 1715,1521 1716,1522 1720,1522 1721,1523 1734,1523 1735,1522 1738,1522 1739,1523 1756,1523 1757,1522 1768,1522 1769,1523 1775,1523 1776,1522 1789,1522 1790,1523 1800,1523 1801,1522 1816,1522 1817,1523 1828,1523 1829,1522 1834,1522 1835,1523 1850,1523 1851,1522 1871,1522 1872,1521 1880,1521 1881,1520 1884,1520 1885,1519 1888,1519 1889,1518 1890,1518 1891,1517 1892,1517 1893,1516 1894,1516 1896,1514 1896,1513 1897,1512 1897,1506 1898,1505 1898,1488 1899,1487 1899,1469 1898,1468 1898,1453 1899,1452 1899,1419 1898,1418 1898,1391 1899,1390 1899,1377 1898,1376 1898,1372 1897,1371 1897,1368 1896,1367 1896,1363 1895,1362 1895,1360 1894,1359 1894,1349 1895,1348 1895,1310 1894,1309 1894,1298 1893,1297 1893,1284 1894,1283 1894,1259 1893,1258 1893,1232 1894,1231 1894,1222 1895,1221 1895,1212 1894,1211 1894,1209 1893,1208 1893,1206 1891,1204 1891,1203 1881,1193 1880,1193 1879,1192 1878,1192 1877,1193 1876,1193 1875,1194 1874,1194 1873,1195 1872,1195 1871,1196 1870,1196 1869,1197 1867,1197 1866,1196 1865,1196 1864,1195 1863,1195 1861,1193 1860,1193 1859,1192 1850,1192 1849,1193 1847,1193 1846,1194 1843,1194 1842,1193 1840,1193 1839,1192 1835,1192 1834,1191 1818,1191 1817,1190 1809,1190 1808,1189 1806,1189 1805,1190 1792,1190 1791,1189 1747,1189 1746,1188 1723,1188 1722,1187 1717,1187 1716,1186 1705,1186 1704,1185 1686,1185 1685,1184 1675,1184 1674,1185 1651,1185 1650,1184 1573,1184 1572,1185 1567,1185 1566,1184 1536,1184 1535,1183 1533,1183 1532,1184 1525,1184 1524,1185 1519,1185 1518,1184 1511,1184 1510,1183 1481,1183 1480,1184 1470,1184 1469,1183 1467,1183 1466,1182 1464,1182 1463,1181 1448,1181 1447,1182 1434,1182 1433,1183 1379,1183 1378,1184 1375,1184 1374,1183 1348,1183 1347,1182 1341,1182 1340,1183 1333,1183 1332,1184 1327,1184 1326,1183 1286,1183 1285,1184 1274,1184 1273,1183 1178,1183 1177,1182 1176,1182 1175,1183 1145,1183 1144,1182 1048,1182 1047,1181 1022,1181 1021,1180 1006,1180 1005,1179 999,1179 998,1178 994,1178 993,1177 990,1177 989,1176" fill="rgba(169,219,187,0.3)" stroke="rgb(169,219,187)" stroke-width="2" data-block-id="0013" data-name="b-0016" /><text x="1251" y="1335" text-anchor="middle" dominant-baseline="middle" class="block-label" fill="rgb(169,219,187)" stroke="white" stroke-width="3" paint-order="stroke">b-0016</text><polygon points="4569,2563 4568,2564 4548,2564 4547,2565 4539,2565 4538,2566 4533,2566 4532,2565 4519,2565 4518,2566 4497,2566 4496,2567 4483,2567 4482,2566 4469,2566 4468,2567 4448,2567 4447,2568 4432,2568 4431,2567 4426,2567 4425,2568 4412,2568 4411,2569 4404,2569 4403,2570 4386,2570 4385,2569 4378,2569 4377,2570 4362,2570 4361,2571 4337,2571 4336,2570 4330,2570 4329,2571 4294,2571 4293,2570 4241,2570 4240,2569 4235,2569 4234,2570 4217,2570 4216,2569 4212,2569 4211,2570 4183,2570 4182,2571 4170,2571 4169,2570 4165,2570 4164,2571 4131,2571 4130,2572 4128,2572 4127,2571 4114,2571 4113,2572 4099,2572 4098,2571 4090,2571 4089,2572 4080,2572 4079,2571 4058,2571 4057,2572 3993,2572 3992,2573 3985,2573 3984,2572 3964,2572 3963,2573 3960,2573 3959,2574 3958,2574 3957,2575 3956,2575 3955,2576 3955,2577 3954,2578 3954,2582 3953,2583 3953,2598 3952,2599 3952,2655 3953,2656 3953,2661 3952,2662 3952,2716 3953,2717 3953,2806 3954,2807 3954,2858 3955,2859 3955,2946 3956,2947 3956,2948 3957,2949 3957,2950 3961,2954 3962,2954 3963,2955 3985,2955 3986,2956 4004,2956 4005,2955 4016,2955 4017,2954 4076,2954 4077,2955 4090,2955 4091,2954 4105,2954 4106,2953 4122,2953 4123,2952 4128,2952 4129,2951 4135,2951 4136,2952 4151,2952 4152,2951 4197,2951 4198,2950 4212,2950 4213,2951 4230,2951 4231,2952 4260,2952 4261,2951 4266,2951 4267,2950 4271,2950 4272,2949 4286,2949 4287,2948 4291,2948 4292,2947 4296,2947 4297,2946 4300,2946 4301,2947 4317,2947 4318,2946 4325,2946 4326,2947 4340,2947 4341,2946 4361,2946 4362,2945 4375,2945 4376,2946 4382,2946 4383,2947 4407,2947 4408,2946 4412,2946 4413,2945 4421,2945 4422,2946 4429,2946 4430,2947 4431,2946 4472,2946 4473,2947 4478,2947 4479,2946 4484,2946 4485,2945 4499,2945 4500,2946 4510,2946 4511,2947 4552,2947 4553,2946 4557,2946 4558,2945 4563,2945 4564,2946 4568,2946 4569,2947 4573,2947 4574,2946 4575,2946 4576,2945 4578,2945 4579,2944 4581,2944 4582,2943 4594,2943 4595,2942 4614,2942 4615,2941 4622,2941 4623,2942 4634,2942 4635,2941 4650,2941 4651,2942 4662,2942 4663,2941 4671,2941 4672,2942 4683,2942 4684,2941 4693,2941 4694,2940 4726,2940 4727,2939 4796,2939 4797,2938 4799,2938 4800,2939 4829,2939 4830,2938 4846,2938 4847,2937 4849,2937 4850,2938 4865,2938 4866,2937 4882,2937 4883,2936 4885,2936 4886,2935 4887,2935 4888,2934 4888,2933 4890,2931 4890,2930 4891,2929 4891,2928 4892,2927 4892,2926 4893,2925 4893,2921 4894,2920 4893,2919 4893,2903 4894,2902 4894,2877 4893,2876 4893,2869 4894,2868 4894,2858 4895,2857 4895,2833 4896,2832 4896,2808 4895,2807 4895,2768 4894,2767 4894,2753 4893,2752 4893,2742 4892,2741 4892,2721 4891,2720 4891,2712 4892,2711 4892,2707 4891,2706 4891,2701 4890,2700 4890,2671 4889,2670 4889,2614 4888,2613 4888,2582 4887,2581 4887,2575 4886,2574 4886,2573 4885,2572 4885,2571 4883,2569 4882,2569 4881,2568 4875,2568 4874,2567 4859,2567 4858,2568 4826,2568 4825,2569 4790,2569 4789,2568 4756,2568 4755,2569 4705,2569 4704,2570 4680,2570 4679,2569 4654,2569 4653,2568 4648,2568 4647,2567 4626,2567 4625,2566 4599,2566 4598,2565 4589,2565 4588,2564 4575,2564 4574,2563" fill="rgba(189,174,189,0.3)" stroke="rgb(189,174,189)" stroke-width="2" data-block-id="0014" data-name="b-0018" /><text x="4462" y="2772" text-anchor="middle" dominant-baseline="middle" class="block-label" fill="rgb(189,174,189)" stroke="white" stroke-width="3" paint-order="stroke">b-0018</text><polygon points="4702,2077 4701,2078 4694,2078 4693,2079 4688,2079 4687,2078 4642,2078 4641,2079 4632,2079 4631,2080 4629,2080 4628,2079 4604,2079 4603,2080 4598,2080 4597,2081 4592,2081 4591,2080 4577,2080 4576,2081 4559,2081 4558,2082 4544,2082 4543,2081 4540,2081 4539,2080 4536,2080 4535,2079 4534,2079 4533,2080 4481,2080 4480,2081 4447,2081 4446,2080 4439,2080 4438,2081 4437,2081 4435,2083 4434,2083 4430,2087 4427,2087 4426,2086 4426,2085 4425,2084 4424,2084 4422,2082 4421,2082 4420,2081 4418,2081 4417,2080 4414,2080 4413,2081 4409,2081 4408,2082 4382,2082 4381,2083 4372,2083 4371,2084 4368,2084 4367,2083 4360,2083 4359,2082 4348,2082 4347,2083 4343,2083 4342,2084 4341,2084 4339,2086 4338,2086 4335,2089 4333,2089 4328,2084 4327,2084 4326,2083 4325,2083 4323,2081 4318,2081 4317,2082 4315,2082 4314,2083 4309,2083 4308,2084 4278,2084 4277,2085 4271,2085 4270,2084 4266,2084 4265,2083 4250,2083 4249,2084 4235,2084 4234,2083 4232,2083 4231,2082 4228,2082 4227,2081 4217,2081 4216,2082 4195,2082 4194,2083 4177,2083 4176,2084 4124,2084 4123,2083 3961,2083 3960,2084 3957,2084 3953,2088 3953,2090 3952,2091 3952,2094 3951,2095 3951,2115 3952,2116 3952,2145 3951,2146 3951,2168 3952,2169 3952,2224 3953,2225 3953,2229 3952,2230 3952,2258 3951,2259 3951,2269 3952,2270 3952,2274 3953,2275 3953,2303 3952,2304 3952,2309 3951,2310 3951,2318 3952,2319 3952,2337 3953,2338 3953,2347 3952,2348 3952,2356 3951,2357 3951,2364 3952,2365 3952,2387 3953,2388 3953,2390 3954,2391 3954,2394 3955,2395 3955,2398 3954,2399 3954,2402 3953,2403 3953,2406 3952,2407 3952,2411 3953,2412 3953,2420 3954,2421 3954,2434 3955,2435 3955,2445 3956,2446 3956,2448 3958,2450 3958,2451 3959,2452 3960,2452 3961,2453 3962,2453 3963,2454 3987,2454 3988,2453 3989,2454 4002,2454 4003,2453 4046,2453 4047,2452 4160,2452 4161,2451 4178,2451 4179,2450 4183,2450 4184,2451 4190,2451 4191,2450 4250,2450 4251,2449 4262,2449 4263,2448 4273,2448 4274,2447 4288,2447 4289,2448 4313,2448 4314,2449 4321,2449 4322,2450 4349,2450 4350,2449 4360,2449 4361,2450 4390,2450 4391,2451 4392,2451 4393,2450 4446,2450 4447,2449 4464,2449 4465,2450 4491,2450 4492,2449 4508,2449 4509,2450 4515,2450 4516,2449 4529,2449 4530,2450 4542,2450 4543,2449 4547,2449 4548,2448 4555,2448 4556,2447 4569,2447 4570,2446 4573,2446 4574,2447 4581,2447 4582,2448 4588,2448 4589,2447 4606,2447 4607,2448 4618,2448 4619,2447 4639,2447 4640,2446 4645,2446 4646,2447 4684,2447 4685,2446 4702,2446 4703,2445 4737,2445 4738,2444 4782,2444 4783,2443 4831,2443 4832,2442 4856,2442 4857,2441 4872,2441 4873,2440 4875,2440 4876,2439 4878,2439 4879,2438 4880,2438 4884,2434 4884,2426 4885,2425 4885,2400 4884,2399 4884,2392 4885,2391 4885,2382 4884,2381 4884,2363 4885,2362 4885,2359 4884,2358 4884,2331 4883,2330 4883,2327 4882,2326 4882,2291 4883,2290 4882,2289 4882,2283 4881,2282 4881,2269 4882,2268 4882,2235 4881,2234 4881,2229 4880,2228 4880,2221 4881,2220 4881,2194 4880,2193 4880,2189 4879,2188 4879,2186 4878,2185 4878,2183 4877,2182 4877,2177 4878,2176 4878,2170 4879,2169 4879,2162 4880,2161 4880,2115 4881,2114 4881,2106 4880,2105 4880,2097 4879,2096 4879,2094 4878,2093 4878,2092 4877,2091 4877,2090 4876,2089 4876,2088 4875,2087 4875,2086 4874,2085 4874,2084 4872,2082 4872,2081 4871,2081 4869,2079 4866,2079 4865,2078 4861,2078 4860,2077 4835,2077 4834,2078 4833,2078 4832,2077 4817,2077 4816,2078 4808,2078 4807,2077 4795,2077 4794,2078 4757,2078 4756,2077 4748,2077 4747,2078 4741,2078 4740,2079 4736,2079 4735,2078 4707,2078 4706,2077" fill="rgba(50,107,54,0.3)" stroke="rgb(50,107,54)" stroke-width="2" data-block-id="0015" data-name="b-0019" /><text x="4455" y="2243" text-anchor="middle" dominant-baseline="middle" class="block-label" fill="rgb(50,107,54)" stroke="white" stroke-width="3" paint-order="stroke">b-0019</text><polygon points="4636,1628 4635,1629 4583,1629 4582,1630 4575,1630 4574,1631 4565,1631 4564,1630 4556,1630 4555,1631 4544,1631 4543,1630 4532,1630 4531,1631 4526,1631 4525,1632 4522,1632 4521,1631 4504,1631 4503,1632 4461,1632 4460,1631 4419,1631 4418,1632 4373,1632 4372,1633 4354,1633 4353,1634 4345,1634 4344,1635 4340,1635 4339,1636 4336,1636 4335,1637 4313,1637 4312,1638 4298,1638 4297,1639 4291,1639 4290,1640 4285,1640 4284,1641 4283,1641 4282,1640 4262,1640 4261,1641 4253,1641 4252,1642 4249,1642 4248,1641 4244,1641 4243,1640 4209,1640 4208,1641 4197,1641 4196,1640 4190,1640 4189,1639 4187,1639 4186,1640 4177,1640 4176,1639 4171,1639 4170,1638 4162,1638 4161,1639 4158,1639 4157,1640 4155,1640 4154,1639 4153,1639 4152,1638 4151,1638 4150,1637 4149,1637 4148,1636 4145,1636 4144,1635 4132,1635 4131,1636 4103,1636 4102,1635 4019,1635 4018,1636 3978,1636 3977,1637 3959,1637 3958,1638 3955,1638 3954,1639 3953,1639 3950,1642 3950,1644 3949,1645 3949,1660 3948,1661 3948,1677 3949,1678 3949,1681 3948,1682 3948,1724 3949,1725 3949,1730 3948,1731 3948,1745 3949,1746 3949,1757 3948,1758 3948,1819 3949,1820 3949,1826 3948,1827 3948,1842 3949,1843 3949,1855 3948,1856 3948,1860 3949,1861 3949,1897 3948,1898 3948,1915 3949,1916 3949,1926 3948,1927 3948,1933 3949,1934 3949,1958 3950,1959 3950,1967 3951,1968 3951,1970 3952,1971 3952,1972 3953,1973 3954,1973 3955,1974 3956,1974 3957,1975 3959,1975 3960,1976 4055,1976 4056,1975 4115,1975 4116,1974 4117,1974 4118,1975 4143,1975 4144,1974 4175,1974 4176,1975 4181,1975 4182,1974 4195,1974 4196,1973 4206,1973 4207,1974 4211,1974 4212,1975 4227,1975 4228,1974 4280,1974 4281,1973 4300,1973 4301,1974 4316,1974 4317,1973 4341,1973 4342,1972 4361,1972 4362,1973 4379,1973 4380,1972 4426,1972 4427,1971 4428,1971 4429,1972 4453,1972 4454,1971 4518,1971 4519,1970 4522,1970 4523,1969 4529,1969 4530,1970 4565,1970 4566,1969 4575,1969 4576,1970 4584,1970 4585,1971 4588,1971 4589,1970 4603,1970 4604,1969 4651,1969 4652,1968 4664,1968 4665,1969 4734,1969 4735,1968 4798,1968 4799,1967 4862,1967 4863,1966 4871,1966 4872,1965 4873,1965 4874,1964 4874,1963 4875,1962 4875,1960 4876,1959 4876,1956 4877,1955 4877,1947 4878,1946 4878,1938 4877,1937 4877,1908 4876,1907 4876,1903 4877,1902 4877,1876 4878,1875 4878,1865 4877,1864 4877,1813 4876,1812 4876,1807 4877,1806 4877,1797 4876,1796 4876,1782 4877,1781 4877,1767 4876,1766 4876,1754 4875,1753 4875,1738 4876,1737 4876,1731 4877,1730 4877,1723 4876,1722 4876,1707 4875,1706 4875,1690 4876,1689 4876,1684 4877,1683 4877,1672 4876,1671 4876,1664 4875,1663 4875,1659 4874,1658 4874,1652 4873,1651 4873,1642 4872,1641 4872,1638 4871,1637 4871,1635 4870,1634 4870,1633 4869,1632 4868,1632 4867,1631 4866,1631 4865,1630 4862,1630 4861,1629 4855,1629 4854,1630 4842,1630 4841,1629 4838,1629 4837,1628 4825,1628 4824,1629 4756,1629 4755,1630 4745,1630 4744,1629 4728,1629 4727,1630 4675,1630 4674,1631 4671,1631 4670,1632 4665,1632 4664,1631 4663,1631 4662,1630 4659,1630 4658,1629 4656,1629 4655,1628" fill="rgba(243,63,248,0.3)" stroke="rgb(243,63,248)" stroke-width="2" data-block-id="0016" data-name="b-0020" /><text x="4430" y="1772" text-anchor="middle" dominant-baseline="middle" class="block-label" fill="rgb(243,63,248)" stroke="white" stroke-width="3" paint-order="stroke">b-0020</text><polygon points="4711,1181 4710,1182 4605,1182 4604,1183 4595,1183 4594,1184 4580,1184 4579,1185 4550,1185 4549,1186 4544,1186 4543,1185 4534,1185 4533,1186 4467,1186 4466,1187 4465,1187 4464,1186 4449,1186 4448,1185 4441,1185 4440,1184 4368,1184 4367,1185 4359,1185 4358,1186 4354,1186 4353,1185 4318,1185 4317,1186 4303,1186 4302,1185 4284,1185 4283,1186 4252,1186 4251,1185 4218,1185 4217,1186 4208,1186 4207,1185 4169,1185 4168,1186 4142,1186 4141,1185 4040,1185 4039,1186 4025,1186 4024,1187 3963,1187 3962,1188 3953,1188 3952,1189 3951,1189 3950,1190 3949,1190 3949,1191 3948,1192 3948,1195 3947,1196 3947,1201 3946,1202 3946,1206 3945,1207 3945,1214 3944,1215 3944,1216 3945,1217 3945,1230 3944,1231 3944,1275 3945,1276 3945,1305 3946,1306 3946,1322 3945,1323 3945,1363 3946,1364 3946,1378 3945,1379 3945,1381 3946,1382 3946,1418 3947,1419 3947,1473 3946,1474 3946,1507 3947,1508 3947,1514 3948,1515 3948,1517 3950,1519 3950,1520 3951,1520 3952,1521 3954,1521 3955,1522 3960,1522 3961,1523 3970,1523 3971,1522 3996,1522 3997,1523 4014,1523 4015,1522 4062,1522 4063,1521 4149,1521 4150,1522 4231,1522 4232,1521 4241,1521 4242,1522 4255,1522 4256,1521 4355,1521 4356,1520 4359,1520 4360,1521 4393,1521 4394,1520 4402,1520 4403,1519 4409,1519 4410,1520 4445,1520 4446,1519 4460,1519 4461,1520 4470,1520 4471,1519 4493,1519 4494,1518 4518,1518 4519,1519 4532,1519 4533,1518 4569,1518 4570,1519 4574,1519 4575,1518 4616,1518 4617,1519 4628,1519 4629,1518 4631,1518 4632,1519 4662,1519 4663,1518 4701,1518 4702,1517 4713,1517 4714,1518 4742,1518 4743,1517 4814,1517 4815,1516 4847,1516 4848,1515 4854,1515 4855,1514 4858,1514 4862,1510 4862,1490 4861,1489 4861,1485 4860,1484 4860,1479 4859,1478 4859,1474 4858,1473 4858,1467 4857,1466 4857,1460 4856,1459 4856,1455 4855,1454 4855,1452 4854,1451 4854,1450 4853,1449 4853,1448 4852,1447 4852,1446 4851,1445 4851,1444 4850,1443 4850,1442 4849,1441 4849,1439 4848,1438 4848,1435 4847,1434 4847,1432 4846,1431 4846,1428 4845,1427 4845,1426 4844,1425 4844,1422 4843,1421 4843,1418 4842,1417 4842,1414 4841,1413 4841,1412 4840,1411 4840,1410 4839,1409 4839,1407 4838,1406 4838,1405 4837,1404 4837,1402 4836,1401 4836,1398 4835,1397 4835,1395 4834,1394 4834,1392 4833,1391 4833,1389 4832,1388 4832,1386 4831,1385 4831,1384 4830,1383 4830,1382 4829,1381 4829,1379 4828,1378 4828,1377 4827,1376 4827,1374 4826,1373 4826,1372 4825,1371 4825,1370 4824,1369 4824,1367 4823,1366 4823,1363 4822,1362 4822,1360 4821,1359 4821,1356 4820,1355 4820,1353 4819,1352 4819,1349 4818,1348 4818,1347 4817,1346 4817,1344 4816,1343 4816,1342 4815,1341 4815,1340 4814,1339 4814,1337 4813,1336 4813,1334 4812,1333 4812,1331 4811,1330 4811,1328 4810,1327 4810,1326 4809,1325 4809,1323 4808,1322 4808,1320 4807,1319 4807,1318 4806,1317 4806,1315 4805,1314 4805,1313 4804,1312 4804,1309 4803,1308 4803,1306 4802,1305 4802,1301 4801,1300 4801,1297 4800,1296 4800,1293 4799,1292 4799,1289 4798,1288 4798,1285 4797,1284 4797,1282 4796,1281 4796,1278 4795,1277 4795,1274 4794,1273 4794,1272 4793,1271 4793,1270 4792,1269 4792,1268 4791,1267 4791,1266 4790,1265 4790,1264 4789,1263 4789,1261 4788,1260 4788,1256 4787,1255 4787,1253 4786,1252 4786,1249 4785,1248 4785,1246 4784,1245 4784,1243 4783,1242 4783,1240 4782,1239 4782,1237 4781,1236 4781,1234 4780,1233 4780,1230 4779,1229 4779,1227 4778,1226 4778,1224 4777,1223 4777,1221 4776,1220 4776,1218 4775,1217 4775,1215 4774,1214 4774,1213 4773,1212 4773,1210 4772,1209 4772,1207 4771,1206 4771,1203 4770,1202 4770,1200 4769,1199 4769,1198 4768,1197 4768,1195 4767,1194 4767,1193 4766,1192 4766,1191 4765,1190 4765,1189 4763,1187 4763,1186 4762,1185 4761,1185 4760,1184 4759,1184 4758,1183 4757,1183 4756,1182 4753,1182 4752,1181" fill="rgba(130,228,50,0.3)" stroke="rgb(130,228,50)" stroke-width="2" data-block-id="0017" data-name="b-0021" /><text x="4576" y="1342" text-anchor="middle" dominant-baseline="middle" class="block-label" fill="rgb(130,228,50)" stroke="white" stroke-width="3" paint-order="stroke">b-0021</text><polygon points="3974,742 3973,743 3967,743 3966,744 3961,744 3960,745 3958,745 3957,746 3954,746 3953,747 3952,747 3951,748 3951,749 3950,750 3950,752 3949,753 3949,755 3948,756 3948,834 3947,835 3947,844 3948,845 3948,859 3947,860 3947,884 3946,885 3946,889 3947,890 3947,896 3948,897 3948,899 3949,900 3949,901 3950,902 3950,903 3951,904 3951,906 3952,907 3952,909 3953,910 3953,920 3952,921 3952,953 3953,954 3953,966 3952,967 3952,987 3953,988 3953,1028 3952,1029 3952,1040 3953,1041 3953,1045 3952,1046 3952,1061 3953,1062 3953,1067 3954,1068 3954,1069 3956,1071 3956,1072 3957,1072 3960,1075 3961,1075 3962,1076 4008,1076 4009,1075 4041,1075 4042,1076 4051,1076 4052,1075 4073,1075 4074,1074 4078,1074 4079,1073 4095,1073 4096,1074 4113,1074 4114,1075 4126,1075 4127,1074 4130,1074 4131,1075 4161,1075 4162,1074 4184,1074 4185,1075 4193,1075 4194,1074 4232,1074 4233,1075 4242,1075 4243,1074 4256,1074 4257,1073 4263,1073 4264,1074 4269,1074 4270,1075 4301,1075 4302,1076 4306,1076 4307,1077 4313,1077 4314,1078 4356,1078 4357,1077 4378,1077 4379,1076 4418,1076 4419,1075 4433,1075 4434,1074 4467,1074 4468,1073 4474,1073 4475,1072 4478,1072 4479,1073 4484,1073 4485,1074 4497,1074 4498,1073 4509,1073 4510,1072 4520,1072 4521,1071 4525,1071 4526,1072 4531,1072 4532,1073 4595,1073 4596,1072 4628,1072 4629,1073 4634,1073 4635,1072 4697,1072 4698,1071 4707,1071 4708,1070 4713,1070 4714,1069 4716,1069 4718,1067 4718,1065 4719,1064 4719,1054 4718,1053 4718,1051 4717,1050 4717,1049 4716,1048 4716,1047 4714,1045 4714,1044 4713,1043 4713,1041 4712,1040 4712,1039 4711,1038 4711,1036 4710,1035 4710,1033 4709,1032 4709,1030 4707,1028 4707,1027 4706,1026 4706,1025 4705,1024 4705,1023 4704,1022 4704,1021 4703,1020 4703,1018 4702,1017 4702,1016 4701,1015 4701,1013 4700,1012 4700,1010 4699,1009 4699,1008 4698,1007 4698,1005 4697,1004 4697,1001 4696,1000 4696,997 4695,996 4695,992 4694,991 4694,985 4693,984 4693,981 4692,980 4692,979 4691,978 4691,977 4690,976 4690,974 4689,973 4689,972 4688,971 4688,970 4687,969 4687,968 4686,967 4686,965 4685,964 4685,962 4684,961 4684,960 4683,959 4683,958 4682,957 4682,956 4681,955 4681,954 4680,953 4680,952 4679,951 4679,950 4678,949 4678,948 4677,947 4677,945 4676,944 4676,941 4675,940 4675,936 4674,935 4674,931 4673,930 4673,925 4672,924 4672,921 4671,920 4671,916 4670,915 4670,912 4669,911 4669,909 4668,908 4668,907 4667,906 4667,905 4666,904 4666,903 4660,897 4660,896 4658,894 4658,893 4657,892 4657,891 4656,890 4656,888 4655,887 4655,884 4654,883 4654,878 4653,877 4653,876 4652,875 4652,874 4651,873 4651,872 4650,871 4650,870 4649,869 4649,867 4648,866 4648,860 4647,859 4647,851 4646,850 4646,847 4645,846 4645,842 4644,841 4644,840 4643,839 4643,838 4642,837 4642,836 4641,835 4641,834 4639,832 4639,831 4637,829 4637,828 4636,827 4636,825 4635,824 4635,823 4634,822 4634,820 4633,819 4633,816 4632,815 4632,813 4631,812 4631,809 4630,808 4630,806 4629,805 4629,804 4628,803 4628,802 4627,801 4627,797 4626,796 4626,792 4625,791 4625,788 4624,787 4624,784 4623,783 4623,780 4622,779 4622,777 4621,776 4621,773 4620,772 4620,770 4619,769 4619,767 4618,766 4618,762 4617,761 4617,759 4616,758 4616,756 4613,753 4613,752 4610,749 4609,749 4607,747 4605,747 4604,746 4600,746 4599,745 4593,745 4592,744 4585,744 4584,743 4349,743 4348,744 4341,744 4340,745 4332,745 4331,744 4290,744 4289,743 4278,743 4277,744 4271,744 4270,743 4248,743 4247,744 4242,744 4241,745 4238,745 4237,746 4233,746 4232,747 4230,747 4230,749 4229,750 4229,751 4228,752 4226,750 4226,747 4225,747 4223,745 4222,745 4221,744 4216,744 4215,743 4211,743 4210,744 4133,744 4132,745 4121,745 4120,744 4119,744 4118,745 4083,745 4082,746 4070,746 4069,747 4058,747 4057,746 4053,746 4052,745 4028,745 4027,744 4020,744 4019,745 4005,745 4004,744 4000,744 3999,743 3994,743 3993,744 3984,744 3983,743 3978,743 3977,742" fill="rgba(88,59,13,0.3)" stroke="rgb(88,59,13)" stroke-width="2" data-block-id="0018" data-name="b-0024" /><text x="4413" y="911" text-anchor="middle" dominant-baseline="middle" class="block-label" fill="rgb(88,59,13)" stroke="white" stroke-width="3" paint-order="stroke">b-0024</text><polygon points="4130,293 4129,294 4124,294 4123,295 4121,295 4119,297 4119,298 4116,301 4115,301 4114,302 4112,302 4111,303 4109,303 4108,304 4105,304 4104,303 4101,303 4100,302 4097,302 4096,301 4084,301 4083,302 4074,302 4073,303 4069,303 4068,302 4065,302 4064,301 4058,301 4057,300 4053,300 4052,299 4036,299 4035,300 4029,300 4028,301 4014,301 4013,300 3996,300 3995,301 3983,301 3982,300 3961,300 3960,301 3957,301 3956,302 3953,302 3952,303 3951,303 3950,304 3949,304 3947,306 3946,306 3945,307 3945,308 3943,310 3943,312 3942,313 3942,317 3941,318 3941,355 3940,356 3940,372 3941,373 3941,407 3940,408 3940,414 3941,415 3941,423 3942,424 3942,431 3941,432 3941,449 3942,450 3942,455 3943,456 3943,468 3942,469 3942,475 3943,476 3943,485 3942,486 3942,499 3943,500 3943,510 3942,511 3942,519 3941,520 3941,522 3942,523 3942,551 3941,552 3941,567 3942,568 3942,626 3943,627 3943,628 3947,632 3948,632 3949,633 3952,633 3953,634 3959,634 3960,633 3962,633 3963,634 3995,634 3996,635 4003,635 4004,634 4048,634 4049,635 4064,635 4065,634 4087,634 4088,635 4100,635 4101,634 4161,634 4162,633 4168,633 4169,634 4176,634 4177,635 4206,635 4207,634 4216,634 4217,635 4241,635 4242,634 4252,634 4253,633 4263,633 4264,634 4267,634 4268,635 4336,635 4337,634 4346,634 4347,635 4387,635 4388,634 4398,634 4399,635 4421,635 4422,634 4467,634 4468,635 4505,635 4506,634 4565,634 4566,633 4569,633 4570,632 4571,632 4571,631 4573,629 4573,621 4572,620 4572,617 4571,616 4571,613 4570,612 4570,609 4569,608 4569,606 4568,605 4568,603 4567,602 4567,601 4566,600 4566,599 4565,598 4565,596 4564,595 4564,592 4563,591 4563,589 4562,588 4562,585 4561,584 4561,582 4560,581 4560,579 4559,578 4559,575 4558,574 4558,572 4557,571 4557,568 4556,567 4556,564 4555,563 4555,561 4554,560 4554,558 4553,557 4553,555 4552,554 4552,553 4551,552 4551,550 4550,549 4550,547 4549,546 4549,544 4548,543 4548,542 4547,541 4547,539 4546,538 4546,535 4545,534 4545,532 4544,531 4544,529 4543,528 4543,525 4542,524 4542,522 4541,521 4541,518 4540,517 4540,514 4539,513 4539,510 4538,509 4538,507 4537,506 4537,503 4536,502 4536,501 4535,500 4535,498 4534,497 4534,496 4533,495 4533,492 4532,491 4532,489 4531,488 4531,486 4529,484 4529,483 4527,481 4527,480 4526,479 4526,477 4525,476 4525,473 4524,472 4524,470 4523,469 4523,466 4522,465 4522,463 4521,462 4521,460 4520,459 4520,458 4518,456 4518,455 4517,454 4517,453 4516,452 4516,450 4515,449 4515,448 4514,447 4514,444 4513,443 4513,441 4512,440 4512,439 4511,438 4511,435 4510,434 4510,433 4509,432 4509,430 4508,429 4508,428 4507,427 4507,426 4506,425 4506,423 4505,422 4505,420 4504,419 4504,416 4503,415 4503,412 4502,411 4502,408 4501,407 4501,406 4500,405 4500,402 4499,401 4499,398 4498,397 4498,395 4497,394 4497,393 4496,392 4496,389 4495,388 4495,387 4494,386 4494,385 4493,384 4493,383 4492,382 4492,380 4491,379 4491,377 4490,376 4490,372 4489,371 4489,366 4488,365 4488,362 4487,361 4487,359 4486,358 4486,357 4485,356 4485,355 4484,354 4484,353 4483,352 4483,350 4482,349 4482,347 4481,346 4481,343 4480,342 4480,340 4479,339 4479,335 4478,334 4478,330 4477,329 4477,326 4476,325 4476,322 4475,321 4475,317 4474,316 4474,315 4472,313 4472,312 4471,311 4471,310 4470,309 4470,308 4469,307 4469,305 4468,304 4468,303 4467,302 4467,301 4464,298 4463,298 4462,297 4458,297 4457,296 4430,296 4429,297 4375,297 4374,298 4368,298 4367,297 4209,297 4208,296 4164,296 4163,295 4160,295 4159,294 4141,294 4140,293" fill="rgba(241,249,8,0.3)" stroke="rgb(241,249,8)" stroke-width="2" data-block-id="0019" data-name="b-0025" /><text x="4332" y="456" text-anchor="middle" dominant-baseline="middle" class="block-label" fill="rgb(241,249,8)" stroke="white" stroke-width="3" paint-order="stroke">b-0025</text></g>
</svg>