<?xml version='1.0' encoding='utf-8'?>
<svg xmlns="http://www.w3.org/2000/svg" xmlns:atlas="http://example.com/atlas" width="4980" height="3364" viewBox="0 0 4980 3364">
  
  <metadata>
    <atlas:source>
      <atlas:jp2-path>../media/v1/p13.jp2</atlas:jp2-path>
      <atlas:volume>vol1</atlas:volume>
      <atlas:plate-id>p13</atlas:plate-id>
      <atlas:image-width>4980</atlas:image-width>
      <atlas:image-height>3364</atlas:image-height>
    <atlas:angle>-13.354390257700487</atlas:angle><atlas:scale>1.3333333333333333</atlas:scale><atlas:pos-x>2984.0348588758047</atlas:pos-x><atlas:pos-y>2277.98219550039</atlas:pos-y></atlas:source>
  </metadata>

  
  <image id="background" href="file://../media/v1/p13.jp2" width="4980" height="3364" opacity="0.5" />

  <style>
    .block-label { font-family: sans-serif; font-size: 14px; font-weight: bold; }
  </style>

  
  <g id="blocks">
    <polygon points="3118,681 3117,682 3110,682 3109,683 3102,683 3101,684 3088,684 3087,685 3076,685 3075,684 2967,684 2966,685 2959,685 2958,684 2943,684 2942,685 2917,685 2916,686 2743,686 2742,687 2728,687 2727,688 2718,688 2717,689 2665,689 2664,690 2644,690 2643,691 2629,691 2628,692 2612,692 2611,693 2560,693 2559,692 2534,692 2533,691 2524,691 2523,690 2515,690 2514,689 2497,689 2496,690 2494,690 2493,691 2492,691 2490,693 2489,693 2488,694 2488,695 2487,696 2487,697 2486,698 2486,699 2485,700 2485,703 2484,704 2484,717 2483,718 2483,731 2484,732 2484,760 2483,761 2483,776 2484,777 2484,797 2483,798 2483,813 2484,814 2484,838 2483,839 2483,851 2484,852 2484,893 2485,894 2485,927 2486,928 2486,997 2485,998 2485,1000 2486,1001 2486,1011 2487,1012 2487,1027 2486,1028 2486,1036 2485,1037 2485,1042 2486,1043 2486,1049 2487,1050 2487,1054 2488,1055 2488,1057 2489,1058 2489,1059 2490,1060 2490,1061 2494,1065 2495,1065 2496,1066 2497,1066 2498,1067 2501,1067 2502,1068 2514,1068 2515,1069 2530,1069 2531,1070 2541,1070 2542,1069 2548,1069 2549,1068 2565,1068 2566,1069 2575,1069 2576,1070 2592,1070 2593,1069 2609,1069 2610,1068 2628,1068 2629,1067 2640,1067 2641,1068 2652,1068 2653,1069 2667,1069 2668,1068 2686,1068 2687,1067 2704,1067 2705,1066 2719,1066 2720,1067 2736,1067 2737,1068 2762,1068 2763,1067 2833,1067 2834,1066 2846,1066 2847,1065 2876,1065 2877,1066 2933,1066 2934,1065 2988,1065 2989,1066 3028,1066 3029,1065 3130,1065 3131,1066 3143,1066 3144,1065 3145,1065 3146,1064 3147,1064 3151,1060 3152,1060 3154,1058 3154,1057 3157,1054 3157,1053 3159,1051 3159,1050 3160,1049 3160,1048 3161,1047 3161,1046 3162,1045 3162,1041 3163,1040 3163,1036 3162,1035 3162,1026 3161,1025 3161,1007 3160,1006 3160,987 3159,986 3159,971 3160,970 3160,959 3159,958 3159,942 3158,941 3158,928 3157,927 3157,826 3156,825 3156,785 3155,784 3155,766 3154,765 3154,696 3153,695 3153,691 3152,690 3152,688 3148,684 3147,684 3146,683 3144,683 3143,682 3137,682 3136,681" fill="rgba(188,20,102,0.3)" stroke="rgb(188,20,102)" stroke-width="2" data-block-id="0001" data-name="b-0003" /><text x="2779" y="898" text-anchor="middle" dominant-baseline="middle" class="block-label" fill="rgb(188,20,102)" stroke="white" stroke-width="3" paint-order="stroke">b-0003</text><polygon points="2322,230 2321,231 2319,231 2318,232 2315,232 2314,233 2312,233 2311,234 2307,234 2306,235 2271,235 2270,236 2263,236 2262,235 2255,235 2254,234 2250,234 2249,233 2235,233 2234,232 2230,232 2229,233 2222,233 2221,234 2214,234 2213,235 2186,235 2185,234 2153,234 2152,233 2119,233 2118,234 2091,234 2090,235 2079,235 2078,236 2064,236 2063,235 2056,235 2055,234 2022,234 2021,233 1951,233 1950,232 1945,232 1944,231 1930,231 1929,232 1926,232 1925,233 1922,233 1921,234 1918,234 1917,235 1909,235 1908,234 1882,234 1881,235 1828,235 1827,236 1812,236 1811,235 1773,235 1772,234 1754,234 1753,233 1744,233 1743,232 1734,232 1733,233 1718,233 1717,232 1709,232 1708,231 1697,231 1696,232 1693,232 1692,233 1689,233 1688,234 1686,234 1682,238 1682,239 1681,240 1681,241 1680,242 1680,247 1679,248 1679,259 1678,260 1678,268 1679,269 1679,295 1680,296 1680,466 1681,467 1681,473 1682,474 1682,483 1681,484 1681,516 1680,517 1680,531 1679,532 1679,539 1680,540 1680,554 1681,555 1681,557 1682,558 1682,559 1683,560 1683,561 1686,564 1688,564 1689,565 1690,565 1691,566 1694,566 1695,567 1699,567 1700,568 1794,568 1795,569 1807,569 1808,568 1843,568 1844,567 1868,567 1869,568 1885,568 1886,569 1905,569 1906,568 1943,568 1944,569 1964,569 1965,570 2079,570 2080,571 2119,571 2120,570 2134,570 2135,571 2164,571 2165,572 2183,572 2184,573 2189,573 2190,572 2200,572 2201,571 2240,571 2241,570 2249,570 2250,571 2257,571 2258,572 2277,572 2278,571 2345,571 2346,570 2349,570 2350,569 2352,569 2353,568 2354,568 2355,567 2356,567 2357,566 2358,566 2359,565 2360,565 2362,563 2362,562 2363,561 2363,560 2364,559 2364,558 2365,557 2365,553 2366,552 2366,545 2365,544 2365,501 2366,500 2366,493 2365,492 2365,486 2364,485 2364,478 2363,477 2363,430 2364,429 2364,416 2365,415 2365,402 2366,401 2366,398 2365,397 2365,386 2364,385 2364,359 2365,358 2365,356 2364,355 2364,336 2363,335 2363,331 2362,330 2362,326 2361,325 2361,320 2360,319 2360,297 2359,296 2359,266 2360,265 2360,263 2359,262 2359,254 2358,253 2358,249 2357,248 2357,246 2356,245 2356,244 2355,243 2355,242 2349,236 2348,236 2346,234 2344,234 2343,233 2340,233 2339,232 2334,232 2333,231 2329,231 2328,230" fill="rgba(74,202,87,0.3)" stroke="rgb(74,202,87)" stroke-width="2" data-block-id="0002" data-name="b-0007" /><text x="2079" y="378" text-anchor="middle" dominant-baseline="middle" class="block-label" fill="rgb(74,202,87)" stroke="white" stroke-width="3" paint-order="stroke">b-0007</text><polygon points="0,0 0,3302 7,3302 9,3304 10,3304 14,3308 14,3309 15,3310 16,3310 19,3313 19,3314 23,3318 23,3321 24,3322 24,3323 25,3324 25,3325 28,3328 29,3328 30,3329 32,3329 33,3330 36,3330 37,3331 44,3331 45,3332 47,3332 49,3334 50,3334 53,3337 53,3338 62,3347 63,3347 66,3350 67,3350 68,3351 69,3351 70,3352 71,3352 72,3353 73,3353 74,3354 75,3354 76,3355 78,3355 79,3356 83,3356 84,3357 127,3357 128,3356 142,3356 143,3355 146,3355 147,3354 148,3354 149,3353 150,3353 151,3352 152,3352 153,3351 153,3349 154,3348 154,3346 155,3345 155,3342 156,3341 156,3336 157,3335 157,3289 156,3288 156,3274 157,3273 157,3256 158,3255 158,3253 157,3252 157,3225 156,3224 156,3191 157,3190 157,3157 156,3156 156,3132 155,3131 155,3114 156,3113 156,3072 155,3071 155,3032 156,3031 156,2997 155,2996 155,2911 154,2910 154,2881 155,2880 155,2870 156,2869 156,2863 155,2862 155,2805 156,2804 156,2720 157,2719 157,2699 158,2698 158,2683 159,2682 159,2668 158,2667 158,2662 157,2661 157,2656 156,2655 156,2625 155,2624 155,2601 154,2600 154,2560 155,2559 155,2553 154,2552 154,2484 155,2483 155,2470 154,2469 154,2426 153,2425 153,2416 154,2415 154,2389 153,2388 153,2337 154,2336 154,2329 155,2328 155,2306 154,2305 154,2268 153,2267 153,2262 152,2261 152,2260 151,2259 151,2258 147,2254 146,2254 145,2253 136,2253 135,2254 123,2254 122,2253 115,2253 114,2252 102,2252 101,2251 88,2251 87,2250 85,2250 83,2248 83,2247 82,2246 82,2244 81,2243 81,2241 82,2240 82,2229 83,2228 83,2221 82,2220 82,2187 83,2186 83,2178 84,2177 84,2167 85,2166 85,2165 84,2164 84,2152 83,2151 83,2150 84,2149 84,2144 85,2143 85,2142 86,2141 86,2140 87,2139 87,2138 88,2137 88,2136 90,2134 91,2135 107,2135 108,2134 112,2134 113,2133 116,2133 117,2132 119,2132 120,2131 122,2131 124,2129 125,2129 126,2128 127,2128 128,2127 129,2127 130,2126 131,2126 131,2125 132,2124 132,2123 133,2122 133,2121 134,2120 134,2119 136,2117 136,2116 137,2115 137,2114 139,2112 139,2111 138,2110 138,2109 137,2108 137,2107 133,2103 133,2102 132,2101 132,2100 131,2099 131,2098 130,2097 130,2094 129,2093 129,2091 128,2090 128,2089 127,2088 127,2087 123,2083 122,2083 120,2081 118,2081 117,2080 115,2080 114,2079 109,2079 108,2078 94,2078 93,2079 84,2079 83,2078 70,2078 69,2077 66,2077 65,2076 63,2076 62,2075 61,2075 60,2074 59,2074 58,2073 58,2072 57,2071 57,2070 56,2069 56,2066 57,2065 57,2062 58,2061 58,2057 59,2056 59,2046 60,2045 60,2030 61,2029 61,2023 62,2022 62,2012 63,2011 63,2009 62,2008 62,1985 63,1984 63,1978 64,1977 64,1976 66,1974 67,1974 68,1973 70,1973 71,1972 74,1972 75,1971 77,1971 78,1970 83,1970 84,1969 90,1969 91,1970 95,1970 96,1971 99,1971 100,1972 102,1972 103,1973 111,1973 112,1972 114,1972 115,1971 116,1971 117,1970 118,1970 123,1965 123,1964 124,1963 124,1962 125,1961 125,1960 126,1959 126,1958 127,1957 127,1956 129,1954 130,1954 132,1952 133,1952 134,1951 135,1951 135,1950 137,1948 137,1947 138,1946 138,1943 139,1942 139,1936 140,1935 140,1931 141,1930 141,1928 142,1927 142,1925 143,1924 143,1920 144,1919 144,1905 143,1904 143,1895 142,1895 142,1896 140,1898 139,1898 138,1899 128,1899 127,1900 114,1900 113,1901 107,1901 106,1902 96,1902 95,1903 45,1903 44,1902 43,1902 42,1901 41,1901 40,1900 39,1900 36,1897 36,1894 35,1893 36,1892 36,1889 37,1888 37,1886 38,1885 38,1882 39,1881 39,1872 38,1871 38,1869 37,1868 37,1866 36,1865 36,1862 35,1861 35,1850 36,1849 36,1845 37,1844 37,1838 38,1837 38,1813 37,1812 37,1804 36,1803 36,1800 38,1798 38,1797 40,1795 41,1795 43,1793 44,1793 45,1792 46,1792 47,1791 48,1791 49,1790 52,1790 53,1789 57,1789 58,1788 63,1788 64,1787 70,1787 71,1788 74,1788 75,1789 77,1789 78,1790 81,1790 82,1791 84,1791 85,1792 97,1792 98,1793 104,1793 107,1796 107,1798 108,1799 108,1808 109,1809 109,1818 110,1819 110,1821 111,1822 111,1823 112,1824 112,1825 116,1829 117,1829 118,1830 119,1830 120,1831 122,1831 123,1832 128,1832 129,1831 131,1831 132,1830 133,1830 134,1829 135,1829 136,1828 137,1828 138,1827 139,1827 140,1826 141,1826 143,1824 143,1822 144,1821 144,1817 145,1816 145,1801 144,1800 144,1796 143,1795 143,1794 141,1792 141,1791 139,1789 139,1788 138,1787 138,1786 137,1785 137,1784 136,1783 136,1779 135,1778 135,1751 134,1750 134,1739 135,1738 135,1737 136,1736 136,1735 137,1734 137,1732 138,1731 138,1729 139,1728 139,1724 140,1723 140,1722 139,1721 139,1716 138,1715 138,1713 137,1712 137,1710 136,1709 136,1707 135,1706 135,1704 134,1703 134,1697 135,1696 135,1691 136,1690 136,1682 137,1681 137,1679 136,1678 136,1669 135,1668 135,1659 136,1658 136,1653 137,1652 137,1646 138,1645 138,1636 137,1635 137,1614 138,1613 138,1573 137,1572 137,1517 138,1516 138,1502 137,1501 137,1492 136,1491 136,1482 137,1481 137,1474 138,1473 138,1432 139,1431 138,1430 138,1421 137,1420 137,1413 136,1412 136,1406 137,1405 137,1399 138,1398 138,1389 139,1388 139,1387 138,1386 138,1345 137,1344 137,1338 136,1337 136,1327 137,1326 137,1321 138,1320 138,1316 139,1315 139,1301 138,1300 138,1283 139,1282 139,1270 138,1269 138,1262 137,1261 137,1246 138,1245 138,1240 139,1239 139,1222 138,1221 138,1206 139,1205 139,1193 138,1192 138,1186 137,1185 137,1179 136,1178 136,1172 137,1171 137,1162 138,1161 138,1146 137,1145 137,1111 136,1110 136,1085 137,1084 137,1075 136,1074 136,1064 135,1063 135,1055 136,1054 136,1031 135,1030 135,1005 136,1004 136,998 135,997 135,987 134,986 134,978 135,977 135,965 136,964 135,963 135,951 134,950 134,929 135,928 135,918 134,917 134,890 135,889 135,881 134,880 134,872 133,871 133,851 134,850 134,843 133,842 133,833 132,832 132,819 133,818 133,797 132,796 132,786 131,785 131,784 132,783 132,759 131,758 131,740 132,739 132,719 131,718 131,680 130,679 130,665 131,664 131,658 132,657 132,645 131,644 131,637 130,636 130,620 131,619 131,609 130,608 130,601 129,600 129,587 130,586 130,580 131,579 131,566 130,565 130,557 129,556 129,550 130,549 130,538 131,537 131,532 130,531 130,524 129,523 129,510 130,509 130,504 131,503 131,484 130,483 130,467 131,466 131,448 130,447 130,440 129,439 129,435 130,434 130,428 131,427 131,408 130,407 130,387 131,386 131,372 130,371 130,363 129,362 129,357 130,356 130,350 131,349 131,328 130,327 130,309 131,308 131,297 130,296 130,288 129,287 129,277 130,276 130,269 131,268 131,255 130,254 130,242 129,241 130,240 130,230 131,229 131,219 130,218 130,210 129,209 129,199 130,198 130,191 131,190 131,177 130,176 130,138 129,137 129,130 128,129 128,124 129,123 129,117 130,116 130,106 131,105 131,104 130,103 130,93 129,92 129,78 128,77 128,63 127,62 127,59 126,58 126,54 125,53 125,46 126,45 126,44 127,43 127,42 128,41 128,38 129,37 129,34 130,33 130,26 129,25 129,23 127,21 127,20 124,17 123,17 122,16 121,16 120,15 119,15 118,14 117,14 116,13 114,13 113,12 112,12 110,10 109,10 108,9 106,9 105,8 101,8 100,9 85,9 84,8 82,8 81,7 81,0" fill="rgba(116,99,103,0.3)" stroke="rgb(116,99,103)" stroke-width="2" data-block-id="0003" data-name="b-0008" /><text x="114" y="1701" text-anchor="middle" dominant-baseline="middle" class="block-label" fill="rgb(116,99,103)" stroke="white" stroke-width="3" paint-order="stroke">b-0008</text><polygon points="1277,1180 1276,1181 1257,1181 1256,1182 1246,1182 1245,1181 1234,1181 1233,1182 1229,1182 1228,1183 1223,1183 1222,1182 1191,1182 1190,1181 1168,1181 1167,1182 1160,1182 1159,1183 1156,1183 1155,1184 1091,1184 1090,1183 1075,1183 1074,1182 1067,1182 1066,1183 1042,1183 1041,1182 970,1182 969,1183 909,1183 908,1182 903,1182 902,1181 901,1182 877,1182 876,1183 870,1183 869,1184 861,1184 860,1183 847,1183 846,1184 837,1184 836,1183 831,1183 830,1184 815,1184 814,1183 797,1183 796,1184 786,1184 785,1185 779,1185 778,1184 767,1184 766,1185 730,1185 729,1184 723,1184 722,1183 704,1183 703,1184 699,1184 698,1185 694,1185 693,1186 683,1186 682,1185 654,1185 653,1186 652,1185 646,1185 645,1184 628,1184 627,1185 614,1185 613,1186 610,1186 609,1187 599,1187 598,1186 593,1186 592,1185 589,1185 588,1186 553,1186 552,1185 548,1185 547,1184 538,1184 537,1185 531,1185 530,1186 524,1186 523,1187 521,1187 518,1190 518,1193 517,1194 517,1223 516,1224 516,1227 517,1228 517,1260 518,1261 518,1265 517,1266 517,1294 516,1295 516,1304 517,1305 517,1339 516,1340 516,1413 517,1414 517,1462 518,1463 518,1478 517,1479 517,1492 518,1493 518,1542 519,1543 519,1551 520,1552 520,1556 521,1557 521,1560 522,1561 522,1562 523,1563 524,1563 525,1564 526,1564 527,1565 530,1565 531,1566 559,1566 560,1567 566,1567 567,1568 570,1568 571,1567 584,1567 585,1566 600,1566 601,1565 616,1565 617,1566 625,1566 626,1567 634,1567 635,1566 668,1566 669,1567 681,1567 682,1566 723,1566 724,1565 736,1565 737,1564 789,1564 790,1565 814,1565 815,1564 828,1564 829,1563 851,1563 852,1564 859,1564 860,1563 871,1563 872,1564 880,1564 881,1565 905,1565 906,1564 911,1564 912,1563 965,1563 966,1564 972,1564 973,1565 983,1565 984,1564 989,1564 990,1565 1002,1565 1003,1564 1027,1564 1028,1563 1042,1563 1043,1564 1048,1564 1049,1563 1057,1563 1058,1562 1061,1562 1062,1563 1101,1563 1102,1562 1125,1562 1126,1561 1137,1561 1138,1562 1146,1562 1147,1561 1161,1561 1162,1562 1194,1562 1195,1561 1203,1561 1204,1560 1231,1560 1232,1561 1244,1561 1245,1560 1270,1560 1271,1561 1305,1561 1306,1560 1334,1560 1335,1559 1425,1559 1426,1558 1433,1558 1434,1559 1480,1559 1481,1558 1550,1558 1551,1557 1552,1558 1572,1558 1573,1557 1576,1557 1581,1552 1581,1549 1582,1548 1582,1521 1581,1520 1581,1512 1582,1511 1582,1477 1581,1476 1581,1388 1582,1387 1582,1371 1581,1370 1581,1328 1580,1327 1580,1279 1579,1278 1579,1223 1578,1222 1578,1192 1577,1191 1577,1189 1576,1188 1576,1187 1575,1186 1575,1185 1572,1182 1567,1182 1566,1181 1556,1181 1555,1182 1546,1182 1545,1181 1532,1181 1531,1182 1480,1182 1479,1181 1467,1181 1466,1182 1434,1182 1433,1183 1415,1183 1414,1184 1400,1184 1399,1183 1391,1183 1390,1182 1366,1182 1365,1183 1353,1183 1352,1182 1317,1182 1316,1183 1305,1183 1304,1182 1297,1182 1296,1181 1289,1181 1288,1180" fill="rgba(151,130,149,0.3)" stroke="rgb(151,130,149)" stroke-width="2" data-block-id="0004" data-name="b-0009" /><text x="981" y="1356" text-anchor="middle" dominant-baseline="middle" class="block-label" fill="rgb(151,130,149)" stroke="white" stroke-width="3" paint-order="stroke">b-0009</text><polygon points="1165,686 1164,687 1133,687 1132,688 1131,687 1113,687 1112,688 1098,688 1097,687 1063,687 1062,688 1054,688 1053,689 1049,689 1048,690 1019,690 1018,691 1005,691 1004,692 990,692 989,693 982,693 981,692 973,692 972,693 961,693 960,692 957,692 956,691 945,691 944,690 940,690 939,691 931,691 930,692 912,692 911,691 888,691 887,692 869,692 868,691 848,691 847,692 839,692 838,691 789,691 788,690 767,690 766,691 760,691 759,692 751,692 750,693 746,693 745,692 739,692 738,691 730,691 729,692 724,692 723,691 722,691 721,690 720,690 719,689 717,689 716,688 706,688 705,689 703,689 702,690 694,690 693,689 684,689 683,690 668,690 667,689 655,689 654,690 632,690 631,691 616,691 615,692 610,692 609,693 600,693 599,692 574,692 573,691 559,691 558,692 550,692 549,691 541,691 540,692 525,692 524,691 521,691 520,692 518,692 515,695 515,696 514,697 514,698 513,699 513,704 512,705 512,729 513,730 513,765 514,766 514,816 515,817 515,826 514,827 514,835 515,836 515,845 514,846 514,853 513,854 513,858 514,859 514,888 513,889 513,908 514,909 514,932 515,933 515,995 514,996 514,998 515,999 515,1010 516,1011 516,1036 515,1037 515,1051 516,1052 516,1056 517,1057 517,1060 518,1061 518,1062 519,1063 519,1064 522,1067 525,1067 526,1068 531,1068 532,1069 537,1069 538,1070 542,1070 543,1071 547,1071 548,1070 562,1070 563,1071 567,1071 568,1072 573,1072 574,1073 578,1073 579,1074 582,1074 583,1075 593,1075 594,1074 595,1074 596,1073 597,1073 599,1071 600,1071 601,1070 602,1070 603,1069 606,1069 607,1070 610,1070 611,1071 622,1071 623,1070 631,1070 632,1071 636,1071 637,1072 643,1072 644,1071 649,1071 650,1070 653,1070 654,1071 657,1071 658,1072 661,1072 662,1073 664,1073 665,1072 667,1072 668,1071 669,1071 670,1070 671,1070 672,1069 673,1069 674,1068 677,1068 678,1067 690,1067 691,1068 695,1068 696,1069 699,1069 700,1070 702,1070 703,1071 704,1071 705,1072 706,1072 707,1073 709,1073 710,1074 722,1074 723,1073 727,1073 728,1072 732,1072 733,1071 735,1071 736,1070 738,1070 739,1069 742,1069 743,1068 751,1068 752,1069 756,1069 757,1070 765,1070 766,1069 776,1069 777,1070 783,1070 784,1071 790,1071 791,1070 796,1070 797,1071 804,1071 805,1072 806,1072 807,1071 811,1071 812,1070 814,1070 815,1069 818,1069 819,1068 822,1068 823,1069 838,1069 839,1068 849,1068 850,1069 862,1069 863,1068 879,1068 880,1069 885,1069 886,1070 890,1070 891,1071 900,1071 901,1072 902,1072 903,1071 907,1071 908,1070 911,1070 912,1069 915,1069 916,1068 957,1068 958,1069 977,1069 978,1070 979,1070 980,1071 981,1071 982,1072 983,1072 984,1073 987,1073 988,1074 998,1074 999,1073 1004,1073 1005,1072 1007,1072 1008,1071 1010,1071 1011,1070 1016,1070 1017,1069 1027,1069 1028,1070 1035,1070 1036,1071 1037,1070 1047,1070 1048,1069 1059,1069 1060,1068 1061,1068 1062,1069 1097,1069 1098,1068 1101,1068 1102,1067 1105,1067 1106,1066 1111,1066 1112,1067 1123,1067 1124,1066 1155,1066 1156,1067 1161,1067 1162,1068 1174,1068 1175,1069 1177,1069 1178,1068 1185,1068 1186,1067 1192,1067 1193,1066 1226,1066 1227,1065 1240,1065 1241,1066 1245,1066 1246,1067 1249,1067 1250,1068 1259,1068 1260,1067 1273,1067 1274,1066 1277,1066 1278,1065 1281,1065 1282,1064 1295,1064 1296,1065 1318,1065 1319,1066 1329,1066 1330,1067 1352,1067 1353,1066 1363,1066 1364,1065 1385,1065 1386,1064 1414,1064 1415,1065 1422,1065 1423,1066 1455,1066 1456,1065 1461,1065 1462,1064 1496,1064 1497,1063 1505,1063 1506,1064 1537,1064 1538,1063 1545,1063 1546,1064 1550,1064 1551,1063 1563,1063 1564,1062 1566,1062 1567,1061 1569,1061 1570,1060 1571,1060 1571,1059 1572,1058 1572,1057 1573,1056 1573,1050 1574,1049 1574,1026 1573,1025 1573,1023 1574,1022 1574,1016 1575,1015 1575,980 1574,979 1574,972 1575,971 1575,963 1576,962 1576,961 1575,960 1575,948 1574,947 1574,935 1573,934 1573,931 1572,930 1572,921 1573,920 1573,912 1572,911 1572,906 1571,905 1571,877 1572,876 1572,871 1573,870 1573,863 1572,862 1572,845 1571,844 1571,822 1572,821 1572,817 1571,816 1571,800 1570,799 1570,793 1571,792 1571,766 1570,765 1570,759 1569,758 1569,740 1570,739 1570,730 1569,729 1569,712 1568,711 1568,698 1567,697 1567,696 1566,695 1566,694 1565,693 1565,692 1564,691 1564,690 1562,688 1561,688 1560,687 1532,687 1531,686 1500,686 1499,687 1491,687 1490,686 1459,686 1458,687 1441,687 1440,688 1436,688 1435,689 1431,689 1430,690 1427,690 1426,689 1415,689 1414,690 1411,690 1410,691 1408,691 1407,692 1403,692 1402,691 1398,691 1397,690 1394,690 1393,689 1391,689 1390,688 1388,688 1387,687 1350,687 1349,686 1342,686 1341,687 1313,687 1312,688 1305,688 1304,687 1298,687 1297,688 1292,688 1291,689 1287,689 1286,690 1285,690 1284,689 1281,689 1280,688 1277,688 1276,687 1270,687 1269,688 1266,688 1265,689 1247,689 1246,688 1242,688 1241,687 1237,687 1236,688 1231,688 1230,689 1223,689 1222,688 1200,688 1199,687 1172,687 1171,686" fill="rgba(52,1,87,0.3)" stroke="rgb(52,1,87)" stroke-width="2" data-block-id="0005" data-name="b-0010" /><text x="1013" y="904" text-anchor="middle" dominant-baseline="middle" class="block-label" fill="rgb(52,1,87)" stroke="white" stroke-width="3" paint-order="stroke">b-0010</text><polygon points="1419,225 1418,226 1417,226 1411,232 1410,232 1409,233 1408,233 1407,234 1402,234 1401,233 1386,233 1385,234 1379,234 1378,233 1375,233 1374,232 1365,232 1364,233 1344,233 1343,234 1341,234 1340,235 1325,235 1324,234 1298,234 1297,235 1242,235 1241,234 1239,234 1238,235 1223,235 1222,234 1219,234 1218,233 1205,233 1204,234 1194,234 1193,233 1192,233 1191,234 1186,234 1185,235 1173,235 1172,234 1169,234 1168,233 1152,233 1151,234 1134,234 1133,233 1127,233 1126,232 1123,232 1122,231 1099,231 1098,232 1093,232 1092,233 1089,233 1088,234 1085,234 1084,235 1081,235 1080,234 1078,234 1077,233 1075,233 1074,232 1056,232 1055,233 1047,233 1046,234 1036,234 1035,233 1032,233 1031,232 1029,232 1028,231 1026,231 1025,230 1023,230 1022,229 1016,229 1015,228 1010,228 1009,229 1008,229 1007,230 1005,230 1004,231 1003,231 1002,232 998,232 997,233 994,233 993,234 990,234 989,235 986,235 985,234 982,234 981,233 979,233 978,232 965,232 964,233 945,233 944,234 937,234 936,233 934,233 933,232 931,232 930,231 914,231 913,232 910,232 909,233 905,233 904,234 900,234 899,235 896,235 895,236 888,236 887,235 884,235 883,234 879,234 878,233 865,233 864,234 851,234 850,235 841,235 840,234 839,234 838,233 837,233 836,232 835,232 834,231 833,231 832,230 828,230 827,231 823,231 822,232 817,232 816,233 810,233 809,234 791,234 790,233 744,233 743,232 739,232 738,231 733,231 732,232 727,232 726,233 710,233 709,234 695,234 694,233 687,233 686,232 685,233 657,233 656,234 648,234 647,233 640,233 639,232 615,232 614,233 606,233 605,232 596,232 595,231 562,231 561,232 524,232 523,233 520,233 519,234 518,234 514,238 514,239 513,240 513,242 512,243 512,249 511,250 511,286 510,287 510,313 511,314 511,355 512,356 512,417 513,418 513,426 512,427 512,434 511,435 511,523 512,524 512,538 511,539 511,552 512,553 512,558 513,559 513,561 514,562 514,563 516,565 516,566 517,566 519,568 532,568 533,569 566,569 567,570 584,570 585,571 598,571 599,570 612,570 613,571 620,571 621,570 631,570 632,571 658,571 659,572 687,572 688,573 712,573 713,572 721,572 722,571 725,571 726,572 730,572 731,573 749,573 750,572 761,572 762,571 791,571 792,570 814,570 815,571 822,571 823,572 829,572 830,573 834,573 835,572 847,572 848,571 886,571 887,570 922,570 923,571 930,571 931,570 959,570 960,571 987,571 988,570 1012,570 1013,571 1029,571 1030,570 1074,570 1075,569 1101,569 1102,570 1116,570 1117,571 1118,571 1119,570 1125,570 1126,569 1139,569 1140,570 1145,570 1146,569 1178,569 1179,568 1193,568 1194,569 1221,569 1222,568 1232,568 1233,567 1258,567 1259,566 1264,566 1265,567 1279,567 1280,566 1283,566 1284,565 1291,565 1292,566 1296,566 1297,567 1305,567 1306,566 1312,566 1313,567 1325,567 1326,566 1328,566 1329,565 1331,565 1332,564 1335,564 1336,563 1342,563 1343,562 1349,562 1350,561 1366,561 1367,562 1371,562 1372,561 1374,561 1375,560 1377,560 1378,559 1382,559 1383,558 1384,558 1385,559 1392,559 1393,560 1424,560 1425,559 1436,559 1437,560 1445,560 1446,559 1471,559 1472,558 1481,558 1482,559 1490,559 1491,560 1492,559 1522,559 1523,558 1530,558 1531,557 1537,557 1538,556 1541,556 1542,557 1549,557 1550,556 1551,556 1552,555 1553,555 1559,549 1560,549 1560,547 1561,546 1561,541 1560,540 1560,538 1556,534 1556,531 1560,527 1560,526 1561,525 1561,523 1562,522 1562,502 1563,501 1563,490 1562,489 1562,482 1563,481 1563,477 1564,476 1564,459 1565,458 1565,452 1566,451 1566,444 1565,443 1565,429 1564,428 1564,408 1565,407 1565,391 1564,390 1564,385 1565,384 1565,368 1564,367 1564,365 1565,364 1565,355 1566,354 1566,351 1565,350 1565,343 1564,342 1564,311 1565,310 1565,294 1564,293 1564,265 1565,264 1565,251 1564,250 1564,243 1563,242 1563,239 1562,238 1562,237 1561,236 1561,235 1560,234 1558,234 1557,233 1552,233 1551,232 1529,232 1528,231 1519,231 1518,230 1511,230 1510,231 1507,231 1506,232 1498,232 1496,230 1495,230 1491,226 1490,226 1489,225 1487,225 1486,226 1485,226 1484,227 1483,227 1480,230 1478,230 1477,231 1476,231 1475,230 1474,230 1473,229 1468,229 1467,228 1466,229 1464,229 1463,230 1462,230 1461,231 1460,231 1459,232 1457,232 1456,233 1450,233 1449,232 1446,232 1445,231 1442,231 1441,230 1438,230 1437,229 1435,229 1434,228 1433,228 1432,227 1431,227 1430,226 1429,226 1428,225" fill="rgba(235,157,37,0.3)" stroke="rgb(235,157,37)" stroke-width="2" data-block-id="0006" data-name="b-0011" /><text x="1125" y="367" text-anchor="middle" dominant-baseline="middle" class="block-label" fill="rgb(235,157,37)" stroke="white" stroke-width="3" paint-order="stroke">b-0011</text><polygon points="3858,680 3857,681 3854,681 3853,682 3832,682 3831,683 3766,683 3765,684 3746,684 3745,683 3732,683 3731,682 3726,682 3725,683 3697,683 3696,684 3688,684 3687,683 3670,683 3669,684 3650,684 3649,685 3641,685 3640,684 3616,684 3615,683 3604,683 3603,684 3578,684 3577,685 3570,685 3569,684 3541,684 3540,683 3528,683 3527,684 3516,684 3515,683 3514,684 3508,684 3507,685 3502,685 3501,686 3500,686 3499,685 3492,685 3491,684 3483,684 3482,685 3451,685 3450,684 3446,684 3445,683 3434,683 3433,684 3427,684 3426,685 3392,685 3391,686 3382,686 3381,687 3379,687 3378,686 3352,686 3351,685 3342,685 3341,686 3337,686 3336,687 3326,687 3325,686 3317,686 3316,687 3308,687 3307,686 3266,686 3265,687 3261,687 3260,688 3259,688 3258,689 3256,689 3253,692 3252,692 3252,693 3251,694 3251,696 3250,697 3250,706 3251,707 3251,721 3250,722 3251,723 3251,733 3252,734 3252,773 3253,774 3253,919 3254,920 3254,925 3255,926 3255,971 3256,972 3256,977 3255,978 3255,996 3256,997 3256,1032 3257,1033 3257,1035 3256,1036 3256,1048 3257,1049 3257,1051 3258,1052 3258,1053 3259,1054 3259,1055 3262,1058 3264,1058 3265,1059 3278,1059 3279,1058 3306,1058 3307,1059 3326,1059 3327,1058 3342,1058 3343,1059 3373,1059 3374,1058 3379,1058 3380,1057 3398,1057 3399,1058 3435,1058 3436,1059 3446,1059 3447,1060 3465,1060 3466,1059 3472,1059 3473,1058 3494,1058 3495,1059 3513,1059 3514,1058 3529,1058 3530,1057 3540,1057 3541,1056 3545,1056 3546,1055 3553,1055 3554,1056 3558,1056 3559,1057 3563,1057 3564,1058 3590,1058 3591,1059 3624,1059 3625,1058 3635,1058 3636,1059 3655,1059 3656,1058 3665,1058 3666,1057 3671,1057 3672,1058 3680,1058 3681,1059 3695,1059 3696,1058 3706,1058 3707,1057 3713,1057 3714,1056 3718,1056 3719,1057 3724,1057 3725,1058 3739,1058 3740,1057 3749,1057 3750,1058 3751,1058 3752,1057 3760,1057 3761,1056 3792,1056 3793,1057 3809,1057 3810,1056 3815,1056 3816,1057 3841,1057 3842,1056 3882,1056 3883,1055 3928,1055 3929,1056 3933,1056 3934,1055 3938,1055 3939,1054 3943,1054 3944,1053 3947,1053 3948,1054 3955,1054 3956,1055 3968,1055 3969,1054 3979,1054 3980,1053 3988,1053 3989,1052 3995,1052 3996,1053 4023,1053 4024,1054 4037,1054 4038,1053 4043,1053 4044,1054 4093,1054 4094,1053 4100,1053 4101,1052 4103,1052 4104,1051 4106,1051 4107,1050 4108,1050 4109,1049 4110,1049 4111,1048 4111,1047 4112,1046 4112,1029 4111,1028 4111,1011 4112,1010 4112,998 4113,997 4113,984 4112,983 4112,977 4111,976 4111,973 4112,972 4112,960 4111,959 4111,956 4110,955 4110,951 4109,950 4109,937 4110,936 4110,931 4111,930 4111,919 4110,918 4110,906 4111,905 4110,904 4110,898 4109,897 4109,886 4110,885 4110,880 4111,879 4111,868 4110,867 4110,864 4109,863 4109,859 4108,858 4108,851 4107,850 4107,841 4108,840 4108,836 4109,835 4109,830 4110,829 4110,819 4109,818 4109,809 4108,808 4108,804 4107,803 4107,799 4106,798 4106,793 4107,792 4107,789 4108,788 4108,786 4109,785 4109,769 4108,768 4108,762 4107,761 4107,744 4108,743 4108,739 4109,738 4109,731 4108,730 4108,725 4107,724 4107,720 4106,719 4106,712 4105,711 4105,693 4104,692 4104,688 4103,687 4103,686 4101,684 4100,684 4099,683 4074,683 4073,682 4066,682 4065,681 4051,681 4050,682 4047,682 4046,683 4041,683 4040,684 4024,684 4023,685 4016,685 4015,686 4014,685 4007,685 4006,684 3995,684 3994,685 3993,684 3989,684 3988,683 3984,683 3983,682 3952,682 3951,683 3937,683 3936,682 3906,682 3905,683 3902,683 3901,684 3899,684 3898,685 3895,685 3894,684 3891,684 3890,683 3888,683 3887,682 3885,682 3884,681 3877,681 3876,680" fill="rgba(129,191,187,0.3)" stroke="rgb(129,191,187)" stroke-width="2" data-block-id="0007" data-name="b-0012" /><text x="3750" y="863" text-anchor="middle" dominant-baseline="middle" class="block-label" fill="rgb(129,191,187)" stroke="white" stroke-width="3" paint-order="stroke">b-0012</text><polygon points="3836,1648 3835,1649 3833,1649 3832,1650 3829,1650 3828,1651 3825,1651 3824,1652 3785,1652 3784,1653 3770,1653 3769,1652 3730,1652 3729,1653 3695,1653 3694,1654 3691,1654 3690,1653 3674,1653 3673,1654 3665,1654 3664,1653 3638,1653 3637,1654 3591,1654 3590,1653 3570,1653 3569,1654 3567,1654 3566,1655 3561,1655 3560,1656 3546,1656 3545,1655 3529,1655 3528,1656 3512,1656 3511,1655 3492,1655 3491,1656 3482,1656 3481,1657 3474,1657 3473,1656 3439,1656 3438,1657 3434,1657 3433,1658 3428,1658 3427,1657 3425,1657 3424,1656 3421,1656 3420,1655 3410,1655 3409,1656 3368,1656 3367,1657 3342,1657 3341,1658 3338,1658 3337,1659 3331,1659 3330,1658 3328,1658 3327,1657 3323,1657 3322,1656 3319,1656 3318,1657 3307,1657 3306,1658 3300,1658 3299,1659 3285,1659 3284,1660 3282,1660 3281,1661 3280,1661 3279,1662 3278,1662 3273,1667 3273,1668 3272,1669 3272,1673 3271,1674 3271,1679 3270,1680 3270,1684 3271,1685 3271,1710 3272,1711 3272,1731 3273,1732 3273,1786 3274,1787 3274,1824 3275,1825 3275,1845 3276,1846 3276,1882 3277,1883 3277,1886 3276,1887 3276,1902 3277,1903 3277,1959 3278,1960 3278,1980 3279,1981 3279,2010 3280,2011 3280,2024 3281,2025 3281,2030 3283,2032 3283,2033 3284,2034 3285,2034 3286,2035 3287,2035 3288,2036 3326,2036 3327,2035 3352,2035 3353,2036 3377,2036 3378,2035 3387,2035 3388,2036 3421,2036 3422,2035 3427,2035 3428,2034 3451,2034 3452,2035 3453,2034 3485,2034 3486,2033 3509,2033 3510,2032 3522,2032 3523,2031 3531,2031 3532,2032 3555,2032 3556,2031 3571,2031 3572,2030 3643,2030 3644,2029 3665,2029 3666,2028 3680,2028 3681,2027 3717,2027 3718,2026 3727,2026 3728,2025 3732,2025 3733,2026 3752,2026 3753,2025 3774,2025 3775,2024 3782,2024 3783,2025 3815,2025 3816,2024 3821,2024 3822,2023 3828,2023 3829,2024 3834,2024 3835,2025 3846,2025 3847,2024 3876,2024 3877,2023 3910,2023 3911,2022 3916,2022 3917,2021 3929,2021 3930,2022 3967,2022 3968,2021 4017,2021 4018,2020 4030,2020 4031,2019 4037,2019 4038,2018 4043,2018 4044,2019 4085,2019 4086,2018 4111,2018 4112,2017 4116,2017 4117,2016 4118,2016 4119,2015 4120,2015 4121,2014 4122,2014 4125,2011 4125,2010 4126,2009 4126,2008 4127,2007 4127,2005 4128,2004 4128,1999 4127,1998 4127,1984 4128,1983 4128,1958 4127,1957 4127,1934 4128,1933 4128,1911 4127,1910 4127,1896 4126,1895 4127,1894 4127,1870 4126,1869 4126,1855 4125,1854 4125,1846 4126,1845 4126,1831 4127,1830 4127,1805 4126,1804 4126,1793 4127,1792 4127,1761 4126,1760 4126,1749 4125,1748 4125,1727 4126,1726 4126,1715 4125,1714 4125,1709 4124,1708 4124,1669 4123,1668 4123,1664 4122,1663 4122,1658 4121,1657 4121,1655 4117,1651 4116,1651 4115,1650 4111,1650 4110,1649 4109,1650 4068,1650 4067,1649 4047,1649 4046,1650 4003,1650 4002,1649 3995,1649 3994,1648 3981,1648 3980,1649 3969,1649 3968,1650 3940,1650 3939,1649 3935,1649 3934,1648 3928,1648 3927,1649 3894,1649 3893,1650 3859,1650 3858,1649 3848,1649 3847,1648" fill="rgba(20,160,203,0.3)" stroke="rgb(20,160,203)" stroke-width="2" data-block-id="0008" data-name="b-0013" /><text x="3704" y="1826" text-anchor="middle" dominant-baseline="middle" class="block-label" fill="rgb(20,160,203)" stroke="white" stroke-width="3" paint-order="stroke">b-0013</text><polygon points="4002,1167 4001,1168 3997,1168 3996,1169 3953,1169 3952,1170 3949,1170 3948,1171 3940,1171 3939,1170 3934,1170 3933,1169 3931,1169 3930,1170 3921,1170 3920,1171 3900,1171 3899,1172 3895,1172 3894,1171 3890,1171 3889,1170 3848,1170 3847,1171 3825,1171 3824,1172 3797,1172 3796,1171 3792,1171 3791,1170 3785,1170 3784,1171 3778,1171 3777,1172 3770,1172 3769,1173 3752,1173 3751,1172 3734,1172 3733,1171 3719,1171 3718,1172 3714,1172 3713,1171 3662,1171 3661,1170 3632,1170 3631,1171 3616,1171 3615,1170 3601,1170 3600,1171 3595,1171 3594,1172 3593,1172 3592,1173 3590,1173 3589,1174 3588,1174 3586,1176 3573,1176 3572,1175 3568,1175 3567,1174 3541,1174 3540,1175 3522,1175 3521,1174 3481,1174 3480,1175 3404,1175 3403,1174 3399,1174 3398,1173 3393,1173 3392,1172 3390,1172 3389,1173 3377,1173 3376,1172 3368,1172 3367,1173 3347,1173 3346,1174 3340,1174 3339,1175 3329,1175 3328,1174 3298,1174 3297,1175 3289,1175 3288,1176 3269,1176 3268,1177 3265,1177 3263,1179 3263,1180 3262,1181 3262,1192 3261,1193 3261,1200 3260,1201 3260,1205 3261,1206 3261,1219 3260,1220 3260,1233 3259,1234 3259,1240 3260,1241 3260,1251 3261,1252 3261,1255 3262,1256 3262,1258 3263,1259 3263,1269 3262,1270 3262,1301 3263,1302 3263,1306 3264,1307 3264,1312 3263,1313 3263,1316 3262,1317 3262,1320 3261,1321 3261,1336 3262,1337 3262,1347 3263,1348 3263,1354 3264,1355 3264,1366 3263,1367 3263,1374 3264,1375 3264,1389 3265,1390 3265,1396 3266,1397 3266,1401 3267,1402 3267,1410 3266,1411 3266,1415 3265,1416 3265,1424 3264,1425 3264,1433 3265,1434 3265,1440 3266,1441 3266,1448 3267,1449 3267,1464 3266,1465 3266,1483 3267,1484 3267,1493 3268,1494 3268,1505 3267,1506 3267,1515 3266,1516 3266,1526 3267,1527 3267,1528 3268,1529 3268,1530 3269,1531 3269,1532 3270,1533 3270,1534 3271,1535 3271,1536 3273,1538 3274,1538 3275,1539 3292,1539 3293,1540 3306,1540 3307,1541 3332,1541 3333,1540 3336,1540 3337,1541 3346,1541 3347,1542 3355,1542 3356,1543 3368,1543 3369,1542 3375,1542 3376,1541 3388,1541 3389,1542 3399,1542 3400,1543 3409,1543 3410,1542 3418,1542 3419,1541 3424,1541 3425,1540 3433,1540 3434,1541 3437,1541 3438,1542 3447,1542 3448,1543 3455,1543 3456,1542 3483,1542 3484,1543 3491,1543 3492,1542 3500,1542 3501,1541 3508,1541 3509,1540 3520,1540 3521,1541 3564,1541 3565,1540 3596,1540 3597,1541 3658,1541 3659,1540 3688,1540 3689,1541 3706,1541 3707,1540 3714,1540 3715,1539 3771,1539 3772,1538 3810,1538 3811,1539 3829,1539 3830,1540 3833,1540 3834,1541 3839,1541 3840,1540 3844,1540 3845,1539 3853,1539 3854,1538 3863,1538 3864,1537 3870,1537 3871,1536 3906,1536 3907,1537 3909,1537 3910,1536 3928,1536 3929,1537 3933,1537 3934,1536 3938,1536 3939,1535 3942,1535 3943,1534 3989,1534 3990,1533 3998,1533 3999,1534 4006,1534 4007,1533 4064,1533 4065,1532 4066,1533 4088,1533 4089,1532 4107,1532 4108,1531 4112,1531 4113,1530 4114,1530 4116,1528 4117,1528 4118,1527 4118,1526 4119,1525 4119,1521 4118,1520 4118,1512 4117,1511 4117,1480 4118,1479 4118,1475 4117,1474 4117,1460 4116,1459 4116,1401 4117,1400 4117,1380 4116,1379 4116,1319 4115,1318 4115,1305 4116,1304 4116,1298 4117,1297 4117,1284 4116,1283 4116,1277 4115,1276 4115,1239 4114,1238 4114,1194 4113,1193 4113,1178 4112,1177 4112,1176 4109,1173 4107,1173 4106,1172 4103,1172 4102,1171 4096,1171 4095,1170 4082,1170 4081,1171 4074,1171 4073,1170 4036,1170 4035,1171 4026,1171 4025,1172 4021,1172 4020,1173 4014,1173 4013,1172 4012,1172 4011,1171 4010,1171 4008,1169 4007,1169 4006,1168 4004,1168 4003,1167" fill="rgba(57,21,252,0.3)" stroke="rgb(57,21,252)" stroke-width="2" data-block-id="0009" data-name="b-0014" /><text x="3641" y="1351" text-anchor="middle" dominant-baseline="middle" class="block-label" fill="rgb(57,21,252)" stroke="white" stroke-width="3" paint-order="stroke">b-0014</text><polygon points="3939,226 3938,227 3936,227 3935,228 3931,228 3930,229 3917,229 3916,230 3862,230 3861,231 3846,231 3845,232 3836,232 3835,231 3832,231 3831,230 3804,230 3803,231 3800,231 3799,230 3795,230 3794,229 3791,229 3790,228 3764,228 3763,229 3757,229 3756,230 3743,230 3742,229 3706,229 3705,228 3698,228 3697,227 3689,227 3688,228 3680,228 3679,229 3670,229 3669,230 3657,230 3656,231 3628,231 3627,230 3620,230 3619,229 3604,229 3603,230 3597,230 3596,231 3588,231 3587,232 3556,232 3555,233 3541,233 3540,232 3530,232 3529,231 3504,231 3503,232 3449,232 3448,231 3419,231 3418,232 3410,232 3409,233 3404,233 3403,232 3331,232 3330,233 3325,233 3324,234 3287,234 3286,233 3280,233 3279,232 3273,232 3272,231 3271,231 3270,232 3250,232 3249,233 3248,233 3247,234 3246,234 3243,237 3243,239 3242,240 3242,243 3241,244 3241,264 3242,265 3242,313 3243,314 3243,368 3244,369 3244,458 3245,459 3245,463 3244,464 3244,487 3245,488 3245,517 3246,518 3246,550 3247,551 3247,558 3248,559 3248,560 3249,561 3249,562 3251,564 3253,564 3254,565 3259,565 3260,566 3269,566 3270,567 3275,567 3276,566 3279,566 3280,565 3283,565 3284,564 3295,564 3296,565 3318,565 3319,564 3365,564 3366,563 3418,563 3419,564 3425,564 3426,565 3439,565 3440,564 3472,564 3473,563 3504,563 3505,564 3525,564 3526,563 3544,563 3545,564 3566,564 3567,563 3579,563 3580,562 3592,562 3593,563 3624,563 3625,562 3638,562 3639,561 3647,561 3648,562 3670,562 3671,561 3690,561 3691,562 3786,562 3787,561 3798,561 3799,562 3802,562 3803,561 3829,561 3830,562 3842,562 3843,561 3878,561 3879,560 3884,560 3885,561 4091,561 4092,560 4095,560 4096,559 4099,559 4100,558 4101,558 4104,555 4104,552 4105,551 4105,528 4104,527 4104,512 4105,511 4105,504 4104,503 4104,487 4103,486 4103,415 4104,414 4104,390 4103,389 4103,378 4102,377 4102,360 4103,359 4103,343 4102,342 4102,333 4101,332 4101,311 4102,310 4102,291 4101,290 4101,270 4100,269 4100,266 4101,265 4101,254 4100,253 4100,242 4099,241 4099,239 4098,238 4098,236 4097,235 4097,234 4096,233 4096,232 4094,230 4093,230 4091,228 4090,228 4089,227 4074,227 4073,228 4067,228 4066,229 4061,229 4060,230 4055,230 4054,231 4048,231 4047,230 4032,230 4031,229 4027,229 4026,230 4020,230 4019,231 4013,231 4012,232 4007,232 4006,233 4001,233 4000,232 3995,232 3994,231 3990,231 3989,230 3987,230 3986,229 3983,229 3982,228 3975,228 3974,229 3963,229 3962,228 3956,228 3955,227 3951,227 3950,226" fill="rgba(235,88,48,0.3)" stroke="rgb(235,88,48)" stroke-width="2" data-block-id="0010" data-name="b-0015" /><text x="3713" y="356" text-anchor="middle" dominant-baseline="middle" class="block-label" fill="rgb(235,88,48)" stroke="white" stroke-width="3" paint-order="stroke">b-0015</text><polygon points="1502,2525 1501,2526 1490,2526 1489,2527 1484,2527 1483,2528 1463,2528 1462,2529 1459,2529 1458,2530 1454,2530 1453,2531 1441,2531 1440,2532 1416,2532 1415,2533 1411,2533 1410,2534 1400,2534 1399,2533 1387,2533 1386,2534 1378,2534 1377,2535 1370,2535 1369,2536 1364,2536 1363,2537 1359,2537 1358,2538 1351,2538 1350,2539 1341,2539 1340,2540 1330,2540 1329,2541 1321,2541 1320,2542 1314,2542 1313,2543 1302,2543 1301,2544 1290,2544 1289,2545 1260,2545 1259,2546 1253,2546 1252,2547 1235,2547 1234,2548 1232,2548 1231,2549 1229,2549 1228,2550 1219,2550 1218,2549 1211,2549 1210,2550 1199,2550 1198,2551 1187,2551 1186,2552 1176,2552 1175,2551 1159,2551 1158,2552 1153,2552 1152,2553 1151,2553 1150,2554 1148,2554 1147,2555 1144,2555 1143,2556 1129,2556 1128,2557 1111,2557 1110,2558 1078,2558 1077,2559 1070,2559 1069,2560 1065,2560 1064,2561 1061,2561 1060,2562 1058,2562 1057,2563 1054,2563 1053,2564 1051,2564 1050,2565 1047,2565 1046,2566 1031,2566 1030,2567 1016,2567 1015,2568 996,2568 995,2569 970,2569 969,2570 946,2570 945,2571 939,2571 938,2572 933,2572 932,2573 927,2573 926,2574 913,2574 912,2575 910,2575 909,2576 908,2576 907,2577 906,2577 905,2578 893,2578 892,2579 882,2579 881,2580 866,2580 865,2581 859,2581 858,2582 848,2582 847,2583 841,2583 840,2582 818,2582 817,2583 813,2583 812,2584 804,2584 803,2585 797,2585 796,2586 784,2586 783,2587 777,2587 776,2588 774,2588 773,2589 765,2589 764,2588 756,2588 755,2589 742,2589 741,2590 727,2590 726,2591 720,2591 719,2590 708,2590 707,2591 701,2591 700,2592 698,2592 697,2593 695,2593 694,2594 692,2594 691,2595 687,2595 686,2596 669,2596 668,2595 661,2595 660,2596 654,2596 653,2597 647,2597 646,2596 638,2596 637,2597 633,2597 632,2598 629,2598 628,2599 623,2599 622,2600 616,2600 615,2601 603,2601 602,2602 599,2602 598,2603 596,2603 595,2604 594,2604 593,2605 592,2605 591,2606 590,2606 588,2608 588,2609 587,2610 587,2615 586,2616 586,2650 585,2651 585,2663 586,2664 586,2677 585,2678 585,2687 586,2688 586,2696 585,2697 585,2709 586,2710 586,2713 587,2714 587,2723 586,2724 586,2729 585,2730 585,2752 586,2753 586,2769 585,2770 585,2781 586,2782 586,2785 587,2786 587,2818 586,2819 586,2823 585,2824 585,2828 586,2829 586,2836 587,2837 587,2850 588,2851 588,2877 589,2878 589,2883 590,2884 590,2888 591,2889 591,2891 593,2893 593,2894 603,2894 604,2895 606,2895 607,2896 608,2896 609,2897 611,2897 612,2898 623,2898 624,2897 636,2897 637,2898 639,2898 640,2897 642,2897 643,2896 644,2896 646,2894 647,2894 648,2893 650,2893 651,2892 654,2892 655,2893 659,2893 660,2894 663,2894 664,2895 677,2895 678,2894 682,2894 683,2893 686,2893 687,2892 689,2892 690,2891 691,2891 692,2890 695,2890 696,2889 705,2889 706,2890 708,2890 709,2891 712,2891 713,2892 714,2891 715,2891 716,2890 717,2890 722,2885 723,2885 724,2884 729,2884 730,2885 737,2885 738,2884 740,2884 741,2883 744,2883 745,2882 764,2882 765,2881 777,2881 778,2882 793,2882 794,2881 823,2881 824,2880 833,2880 834,2879 839,2879 840,2878 847,2878 848,2879 853,2879 854,2880 873,2880 874,2881 881,2881 882,2880 883,2880 884,2879 886,2879 887,2878 889,2878 890,2877 897,2877 898,2878 911,2878 912,2877 919,2877 920,2876 925,2876 926,2875 928,2875 929,2874 930,2874 931,2873 933,2873 934,2872 937,2872 938,2871 942,2871 943,2872 947,2872 948,2873 967,2873 968,2874 976,2874 977,2873 979,2873 980,2872 983,2872 984,2871 987,2871 988,2870 990,2870 991,2869 993,2869 994,2868 999,2868 1000,2867 1003,2867 1004,2868 1015,2868 1016,2869 1022,2869 1023,2870 1036,2870 1038,2868 1039,2868 1040,2867 1041,2867 1042,2866 1044,2866 1045,2865 1047,2865 1048,2864 1051,2864 1052,2863 1054,2863 1055,2862 1073,2862 1074,2861 1077,2861 1078,2860 1081,2860 1082,2859 1090,2859 1091,2858 1138,2858 1139,2857 1143,2857 1144,2856 1145,2856 1146,2855 1150,2855 1151,2854 1158,2854 1159,2853 1169,2853 1170,2852 1176,2852 1177,2851 1185,2851 1186,2852 1194,2852 1195,2851 1209,2851 1210,2852 1214,2852 1215,2851 1217,2851 1219,2849 1220,2849 1224,2845 1225,2845 1226,2844 1228,2844 1229,2845 1232,2845 1233,2846 1269,2846 1270,2845 1275,2845 1276,2844 1278,2844 1279,2843 1281,2843 1282,2842 1286,2842 1287,2841 1300,2841 1301,2840 1311,2840 1312,2839 1324,2839 1325,2838 1336,2838 1337,2837 1342,2837 1343,2836 1350,2836 1351,2835 1363,2835 1364,2834 1393,2834 1394,2833 1398,2833 1399,2832 1401,2832 1402,2831 1405,2831 1406,2830 1412,2830 1413,2829 1435,2829 1436,2828 1446,2828 1447,2827 1470,2827 1471,2826 1485,2826 1486,2827 1492,2827 1493,2826 1496,2826 1497,2825 1501,2825 1502,2824 1513,2824 1514,2823 1516,2823 1517,2822 1518,2822 1519,2821 1521,2821 1522,2820 1524,2820 1527,2817 1527,2816 1528,2815 1528,2813 1529,2812 1529,2804 1530,2803 1530,2768 1529,2767 1529,2754 1528,2753 1528,2687 1529,2686 1529,2680 1528,2679 1528,2673 1527,2672 1527,2667 1528,2666 1528,2641 1529,2640 1529,2630 1528,2629 1528,2625 1527,2624 1527,2618 1528,2617 1528,2611 1529,2610 1529,2602 1528,2601 1528,2592 1529,2591 1529,2587 1528,2586 1528,2582 1527,2581 1527,2576 1526,2575 1526,2570 1527,2569 1527,2553 1526,2552 1526,2547 1525,2546 1525,2544 1524,2543 1524,2541 1523,2540 1523,2539 1522,2538 1522,2536 1521,2535 1521,2534 1520,2533 1520,2531 1519,2530 1519,2529 1518,2528 1518,2527 1517,2527 1516,2526 1515,2526 1514,2525" fill="rgba(218,58,254,0.3)" stroke="rgb(218,58,254)" stroke-width="2" data-block-id="0011" data-name="b-0016" /><text x="1035" y="2721" text-anchor="middle" dominant-baseline="middle" class="block-label" fill="rgb(218,58,254)" stroke="white" stroke-width="3" paint-order="stroke">b-0016</text><polygon points="2231,1668 2230,1669 2223,1669 2222,1670 2214,1670 2213,1669 2182,1669 2181,1670 2166,1670 2165,1669 2156,1669 2155,1670 2107,1670 2106,1671 2091,1671 2090,1670 2085,1670 2084,1671 2071,1671 2070,1670 2060,1670 2059,1671 1947,1671 1946,1670 1927,1670 1926,1671 1912,1671 1911,1672 1906,1672 1905,1671 1894,1671 1893,1670 1878,1670 1877,1671 1857,1671 1856,1672 1820,1672 1819,1671 1807,1671 1806,1672 1782,1672 1781,1671 1766,1671 1765,1672 1725,1672 1724,1671 1712,1671 1711,1672 1706,1672 1705,1673 1703,1673 1699,1677 1699,1678 1698,1679 1698,1696 1699,1697 1699,1713 1698,1714 1698,1721 1699,1722 1699,1737 1700,1738 1700,1746 1699,1747 1699,1764 1700,1765 1700,1779 1701,1780 1701,1831 1702,1832 1702,1838 1701,1839 1701,1879 1702,1880 1702,1893 1703,1894 1703,1994 1702,1995 1702,2014 1703,2015 1703,2037 1704,2038 1704,2049 1703,2050 1703,2062 1704,2063 1704,2068 1705,2069 1705,2070 1708,2073 1709,2073 1710,2074 1711,2074 1712,2075 1716,2075 1717,2076 1720,2076 1721,2075 1733,2075 1734,2076 1744,2076 1745,2075 1748,2075 1749,2074 1752,2074 1753,2073 1756,2073 1757,2074 1768,2074 1769,2073 1777,2073 1778,2072 1779,2072 1780,2073 1793,2073 1794,2072 1799,2072 1800,2071 1801,2071 1802,2072 1807,2072 1808,2073 1841,2073 1842,2072 1849,2072 1850,2071 1859,2071 1860,2070 1862,2070 1863,2071 1891,2071 1892,2070 1904,2070 1905,2069 1917,2069 1918,2070 1940,2070 1941,2069 1947,2069 1948,2070 1960,2070 1961,2069 1988,2069 1989,2068 2016,2068 2017,2069 2057,2069 2058,2068 2106,2068 2107,2067 2133,2067 2134,2066 2145,2066 2146,2067 2147,2066 2155,2066 2156,2065 2203,2065 2204,2064 2231,2064 2232,2065 2245,2065 2246,2064 2253,2064 2254,2063 2301,2063 2302,2062 2368,2062 2369,2061 2389,2061 2390,2060 2392,2060 2393,2059 2394,2059 2396,2057 2396,2056 2397,2055 2397,2052 2398,2051 2398,2047 2397,2046 2397,2015 2396,2014 2396,1983 2395,1982 2395,1972 2396,1971 2396,1966 2395,1965 2395,1950 2396,1949 2396,1941 2395,1940 2395,1887 2394,1886 2394,1854 2393,1853 2393,1849 2392,1848 2392,1793 2391,1792 2391,1780 2392,1779 2392,1778 2391,1777 2391,1765 2390,1764 2390,1727 2391,1726 2391,1705 2390,1704 2390,1678 2389,1677 2389,1674 2388,1673 2388,1672 2387,1671 2386,1671 2385,1670 2381,1670 2380,1669 2371,1669 2370,1668 2349,1668 2348,1669 2344,1669 2343,1670 2335,1670 2334,1669 2331,1669 2330,1668 2324,1668 2323,1669 2315,1669 2314,1670 2302,1670 2301,1669 2293,1669 2292,1668 2280,1668 2279,1669 2268,1669 2267,1670 2266,1670 2265,1669 2246,1669 2245,1668" fill="rgba(169,219,187,0.3)" stroke="rgb(169,219,187)" stroke-width="2" data-block-id="0012" data-name="b-0017" /><text x="2039" y="1871" text-anchor="middle" dominant-baseline="middle" class="block-label" fill="rgb(169,219,187)" stroke="white" stroke-width="3" paint-order="stroke">b-0017</text><polygon points="3045,1661 3044,1662 3030,1662 3029,1663 3023,1663 3022,1664 3020,1664 3019,1663 3003,1663 3002,1662 2995,1662 2994,1663 2979,1663 2978,1662 2971,1662 2970,1663 2955,1663 2954,1662 2947,1662 2946,1663 2928,1663 2927,1664 2919,1664 2918,1663 2907,1663 2906,1662 2896,1662 2895,1663 2884,1663 2883,1664 2875,1664 2874,1663 2831,1663 2830,1664 2811,1664 2810,1663 2803,1663 2802,1664 2734,1664 2733,1665 2726,1665 2725,1666 2720,1666 2719,1665 2666,1665 2665,1664 2655,1664 2654,1665 2608,1665 2607,1666 2600,1666 2599,1665 2583,1665 2582,1666 2581,1666 2580,1665 2551,1665 2550,1666 2535,1666 2534,1667 2514,1667 2513,1668 2507,1668 2506,1669 2504,1669 2503,1670 2502,1670 2501,1671 2500,1671 2500,1672 2499,1673 2499,1676 2498,1677 2498,1687 2499,1688 2499,1746 2500,1747 2500,1783 2499,1784 2499,1796 2500,1797 2500,1819 2501,1820 2501,1842 2500,1843 2500,1850 2499,1851 2499,1857 2498,1858 2498,1865 2499,1866 2499,1886 2500,1887 2500,1911 2501,1912 2501,1916 2502,1917 2502,1971 2501,1972 2501,1983 2502,1984 2502,1989 2503,1990 2503,2054 2504,2055 2504,2057 2506,2059 2506,2060 2507,2060 2508,2061 2513,2061 2514,2062 2525,2062 2526,2061 2543,2061 2544,2060 2554,2060 2555,2059 2562,2059 2563,2058 2573,2058 2574,2057 2595,2057 2596,2058 2602,2058 2603,2059 2641,2059 2642,2058 2645,2058 2646,2057 2649,2057 2650,2056 2659,2056 2660,2055 2667,2055 2668,2056 2709,2056 2710,2057 2739,2057 2740,2056 2743,2056 2744,2055 2751,2055 2752,2054 2766,2054 2767,2055 2776,2055 2777,2054 2792,2054 2793,2055 2797,2055 2798,2054 2803,2054 2804,2053 2813,2053 2814,2054 2837,2054 2838,2053 2848,2053 2849,2052 2864,2052 2865,2053 2867,2053 2868,2052 2875,2052 2876,2051 2909,2051 2910,2050 2918,2050 2919,2051 2932,2051 2933,2050 2939,2050 2940,2049 2944,2049 2945,2048 2959,2048 2960,2047 2965,2047 2966,2048 2994,2048 2995,2049 3012,2049 3013,2048 3062,2048 3063,2047 3075,2047 3076,2046 3086,2046 3087,2047 3108,2047 3109,2048 3119,2048 3120,2047 3121,2047 3122,2046 3124,2046 3125,2045 3128,2045 3129,2044 3141,2044 3142,2043 3160,2043 3161,2042 3167,2042 3168,2041 3170,2041 3171,2040 3172,2040 3173,2039 3174,2039 3175,2038 3175,2037 3176,2036 3176,2035 3177,2034 3177,2033 3178,2032 3178,2031 3179,2030 3179,2022 3178,2021 3178,2008 3177,2007 3177,1991 3176,1990 3176,1949 3175,1948 3175,1942 3176,1941 3176,1934 3177,1933 3177,1926 3176,1925 3176,1902 3175,1901 3175,1876 3174,1875 3174,1837 3175,1836 3175,1828 3176,1827 3176,1799 3175,1798 3175,1796 3174,1795 3174,1793 3173,1792 3173,1790 3172,1789 3172,1719 3171,1718 3171,1685 3170,1684 3170,1675 3171,1674 3171,1670 3170,1669 3170,1666 3169,1665 3169,1664 3166,1661 3114,1661 3113,1662 3101,1662 3100,1661 3068,1661 3067,1662 3049,1662 3048,1661" fill="rgba(207,14,189,0.3)" stroke="rgb(207,14,189)" stroke-width="2" data-block-id="0013" data-name="b-0018" /><text x="2852" y="1879" text-anchor="middle" dominant-baseline="middle" class="block-label" fill="rgb(207,14,189)" stroke="white" stroke-width="3" paint-order="stroke">b-0018</text><polygon points="2027,686 2026,687 1996,687 1995,688 1983,688 1982,689 1949,689 1948,690 1940,690 1939,689 1916,689 1915,688 1911,688 1910,687 1907,687 1906,688 1898,688 1897,689 1892,689 1891,688 1882,688 1881,689 1859,689 1858,690 1851,690 1850,691 1843,691 1842,690 1830,690 1829,691 1823,691 1822,690 1811,690 1810,691 1807,691 1806,692 1803,692 1802,693 1797,693 1796,692 1783,692 1782,693 1776,693 1775,692 1773,692 1772,691 1771,691 1770,690 1768,690 1767,689 1756,689 1755,690 1751,690 1750,689 1726,689 1725,688 1720,688 1719,687 1714,687 1713,688 1705,688 1704,689 1700,689 1699,690 1695,690 1694,691 1693,691 1692,692 1691,692 1690,693 1690,694 1688,696 1688,697 1687,698 1687,699 1686,700 1686,706 1687,707 1687,724 1688,725 1688,756 1687,757 1687,762 1688,763 1688,805 1687,806 1687,807 1688,808 1688,836 1689,837 1689,846 1688,847 1688,849 1687,850 1687,853 1686,854 1686,866 1687,867 1687,884 1688,885 1688,895 1687,896 1687,899 1686,900 1686,915 1687,916 1687,926 1688,927 1688,935 1689,936 1689,945 1688,946 1688,974 1689,975 1689,995 1688,996 1688,1001 1689,1002 1689,1012 1690,1013 1690,1042 1689,1043 1689,1048 1690,1049 1690,1050 1691,1051 1691,1053 1692,1054 1692,1056 1696,1060 1697,1060 1698,1061 1700,1061 1701,1062 1703,1062 1704,1063 1711,1063 1712,1064 1724,1064 1725,1065 1735,1065 1736,1066 1750,1066 1751,1065 1757,1065 1758,1066 1767,1066 1768,1065 1773,1065 1774,1064 1789,1064 1790,1065 1803,1065 1804,1066 1809,1066 1810,1067 1819,1067 1820,1066 1831,1066 1832,1067 1841,1067 1842,1066 1852,1066 1853,1067 1858,1067 1859,1068 1860,1067 1865,1067 1866,1066 1871,1066 1872,1065 1882,1065 1883,1064 1886,1064 1887,1065 1899,1065 1900,1066 1903,1066 1904,1067 1906,1067 1907,1068 1909,1068 1910,1069 1915,1069 1916,1070 1925,1070 1926,1069 1932,1069 1933,1068 1936,1068 1937,1067 1941,1067 1942,1066 1946,1066 1947,1067 1951,1067 1952,1068 1962,1068 1963,1067 1986,1067 1987,1066 2021,1066 2022,1067 2033,1067 2034,1066 2046,1066 2047,1067 2052,1067 2053,1068 2069,1068 2070,1067 2076,1067 2077,1066 2079,1066 2080,1065 2083,1065 2084,1064 2092,1064 2093,1065 2108,1065 2109,1064 2118,1064 2119,1065 2130,1065 2131,1064 2136,1064 2137,1065 2140,1065 2141,1066 2144,1066 2145,1067 2155,1067 2156,1068 2159,1068 2160,1067 2171,1067 2172,1066 2175,1066 2176,1065 2178,1065 2179,1064 2181,1064 2182,1063 2189,1063 2190,1064 2215,1064 2216,1063 2221,1063 2222,1064 2231,1064 2232,1065 2271,1065 2272,1064 2290,1064 2291,1063 2314,1063 2315,1064 2323,1064 2324,1065 2352,1065 2353,1066 2362,1066 2363,1065 2366,1065 2367,1064 2368,1064 2369,1063 2371,1063 2372,1062 2373,1062 2376,1059 2376,1058 2377,1057 2377,1050 2378,1049 2378,1044 2377,1043 2377,1003 2378,1002 2378,996 2377,995 2377,971 2376,970 2376,944 2375,943 2375,934 2376,933 2376,920 2375,919 2375,907 2374,906 2374,898 2373,897 2373,882 2374,881 2374,879 2373,878 2373,874 2372,873 2372,869 2371,868 2371,830 2370,829 2370,815 2371,814 2371,800 2370,799 2370,790 2371,789 2371,778 2370,777 2370,765 2369,764 2369,738 2370,737 2370,722 2369,721 2369,708 2370,707 2370,701 2369,700 2369,697 2367,695 2367,694 2365,692 2364,692 2363,691 2359,691 2358,690 2343,690 2342,691 2338,691 2337,690 2328,690 2327,689 2320,689 2319,688 2282,688 2281,689 2275,689 2274,690 2270,690 2269,691 2232,691 2231,690 2225,690 2224,689 2206,689 2205,688 2162,688 2161,687 2140,687 2139,688 2116,688 2115,689 2083,689 2082,690 2078,690 2077,691 2070,691 2069,692 2064,692 2063,691 2061,691 2059,689 2058,689 2057,688 2056,688 2054,686 2047,686 2046,687 2030,687 2029,686" fill="rgba(189,174,189,0.3)" stroke="rgb(189,174,189)" stroke-width="2" data-block-id="0014" data-name="b-0019" /><text x="2000" y="887" text-anchor="middle" dominant-baseline="middle" class="block-label" fill="rgb(189,174,189)" stroke="white" stroke-width="3" paint-order="stroke">b-0019</text><polygon points="2357,1179 2356,1180 2344,1180 2343,1181 2305,1181 2304,1182 2301,1182 2300,1181 2251,1181 2250,1180 2233,1180 2232,1181 2227,1181 2226,1182 2163,1182 2162,1181 2134,1181 2133,1182 2125,1182 2124,1183 2122,1183 2121,1182 2075,1182 2074,1181 2067,1181 2066,1180 2040,1180 2039,1181 2035,1181 2034,1182 2031,1182 2030,1183 2023,1183 2022,1182 1965,1182 1964,1181 1951,1181 1950,1182 1946,1182 1945,1183 1942,1183 1941,1182 1934,1182 1933,1181 1928,1181 1927,1182 1919,1182 1918,1181 1912,1181 1911,1180 1907,1180 1906,1181 1903,1181 1902,1182 1899,1182 1898,1183 1890,1183 1889,1182 1828,1182 1827,1183 1808,1183 1807,1182 1778,1182 1777,1183 1719,1183 1718,1182 1707,1182 1706,1183 1700,1183 1699,1184 1698,1184 1697,1185 1696,1185 1695,1186 1695,1187 1694,1188 1694,1189 1693,1190 1693,1203 1692,1204 1692,1215 1693,1216 1693,1224 1694,1225 1694,1233 1693,1234 1693,1238 1694,1239 1694,1270 1695,1271 1695,1303 1694,1304 1694,1320 1695,1321 1695,1327 1694,1328 1694,1337 1695,1338 1695,1354 1696,1355 1696,1454 1697,1455 1696,1456 1696,1469 1697,1470 1697,1529 1698,1530 1698,1546 1697,1547 1697,1548 1698,1549 1698,1552 1703,1557 1723,1557 1724,1558 1777,1558 1778,1557 1806,1557 1807,1558 1823,1558 1824,1557 1888,1557 1889,1556 1900,1556 1901,1557 1972,1557 1973,1556 1988,1556 1989,1557 2010,1557 2011,1556 2059,1556 2060,1557 2070,1557 2071,1556 2083,1556 2084,1555 2091,1555 2092,1556 2108,1556 2109,1555 2133,1555 2134,1556 2174,1556 2175,1555 2183,1555 2184,1554 2200,1554 2201,1555 2241,1555 2242,1554 2246,1554 2247,1555 2264,1555 2265,1554 2273,1554 2274,1555 2286,1555 2287,1554 2358,1554 2359,1553 2379,1553 2380,1552 2382,1552 2383,1551 2384,1551 2386,1549 2386,1544 2387,1543 2387,1494 2388,1493 2388,1488 2387,1487 2387,1476 2386,1475 2386,1456 2385,1455 2385,1436 2384,1435 2384,1423 2385,1422 2385,1411 2384,1410 2384,1374 2383,1373 2383,1369 2384,1368 2384,1363 2385,1362 2385,1352 2384,1351 2384,1344 2383,1343 2383,1338 2382,1337 2382,1324 2381,1323 2382,1322 2382,1268 2381,1267 2381,1237 2380,1236 2380,1195 2379,1194 2379,1189 2378,1188 2378,1186 2377,1185 2377,1184 2375,1182 2374,1182 2373,1181 2370,1181 2369,1180 2366,1180 2365,1179" fill="rgba(50,107,54,0.3)" stroke="rgb(50,107,54)" stroke-width="2" data-block-id="0015" data-name="b-0020" /><text x="2056" y="1338" text-anchor="middle" dominant-baseline="middle" class="block-label" fill="rgb(50,107,54)" stroke="white" stroke-width="3" paint-order="stroke">b-0020</text><polygon points="3043,682 3042,683 3040,683 3039,684 3035,684 3034,685 2990,685 2989,686 2966,686 2965,687 2961,687 2960,686 2915,686 2914,687 2832,687 2831,688 2821,688 2820,689 2810,689 2809,690 2805,690 2804,689 2776,689 2775,688 2751,688 2750,687 2746,687 2745,688 2740,688 2739,689 2730,689 2729,688 2720,688 2719,689 2706,689 2705,690 2678,690 2677,691 2661,691 2660,690 2648,690 2647,691 2642,691 2641,692 2625,692 2624,693 2619,693 2618,694 2575,694 2574,695 2565,695 2564,694 2554,694 2553,693 2542,693 2541,692 2534,692 2533,691 2514,691 2513,690 2494,690 2493,691 2489,691 2488,692 2486,692 2485,693 2484,693 2483,694 2483,695 2482,696 2482,700 2481,701 2482,702 2482,709 2483,710 2483,757 2482,758 2482,761 2483,762 2483,821 2484,822 2484,836 2483,837 2483,842 2482,843 2482,846 2483,847 2483,863 2484,864 2484,918 2485,919 2485,962 2486,963 2486,992 2487,993 2487,1012 2488,1013 2488,1054 2489,1055 2489,1058 2490,1059 2490,1060 2492,1062 2492,1063 2493,1064 2494,1064 2495,1065 2496,1065 2497,1066 2509,1066 2510,1067 2533,1067 2534,1066 2550,1066 2551,1067 2560,1067 2561,1066 2571,1066 2572,1067 2575,1067 2576,1068 2596,1068 2597,1067 2603,1067 2604,1066 2630,1066 2631,1065 2646,1065 2647,1066 2654,1066 2655,1067 2673,1067 2674,1066 2684,1066 2685,1065 2705,1065 2706,1064 2728,1064 2729,1063 2737,1063 2738,1064 2742,1064 2743,1065 2745,1065 2746,1066 2764,1066 2765,1065 2774,1065 2775,1064 2780,1064 2781,1063 2785,1063 2786,1064 2791,1064 2792,1065 2800,1065 2801,1064 2850,1064 2851,1063 2864,1063 2865,1062 2875,1062 2876,1063 2884,1063 2885,1064 2899,1064 2900,1063 2907,1063 2908,1064 2920,1064 2921,1065 2937,1065 2938,1064 2942,1064 2943,1063 2947,1063 2948,1062 2985,1062 2986,1063 2996,1063 2997,1064 3005,1064 3006,1063 3015,1063 3016,1064 3024,1064 3025,1063 3031,1063 3032,1062 3079,1062 3080,1063 3088,1063 3089,1064 3096,1064 3097,1063 3099,1063 3100,1062 3103,1062 3104,1061 3146,1061 3147,1060 3150,1060 3151,1059 3152,1059 3153,1058 3154,1058 3154,1057 3155,1056 3155,1055 3156,1054 3156,1052 3157,1051 3157,1049 3158,1048 3158,1041 3157,1040 3157,1025 3156,1024 3156,1020 3157,1019 3157,997 3156,996 3156,947 3155,946 3155,921 3154,920 3154,902 3153,901 3153,896 3152,895 3152,888 3153,887 3153,882 3154,881 3154,877 3153,876 3153,870 3152,869 3152,862 3153,861 3153,853 3152,852 3152,836 3153,835 3153,823 3152,822 3152,805 3151,804 3151,788 3152,787 3152,779 3151,778 3151,752 3150,751 3150,743 3151,742 3151,727 3150,726 3150,716 3151,715 3151,710 3150,709 3150,698 3149,697 3149,694 3148,693 3148,691 3147,690 3147,688 3145,686 3145,685 3144,684 3143,684 3142,683 3128,683 3127,684 3121,684 3120,685 3112,685 3111,684 3104,684 3103,685 3091,685 3090,686 3080,686 3079,687 3057,687 3056,686 3054,686 3053,685 3051,685 3049,683 3048,683 3047,682" fill="rgba(243,63,248,0.3)" stroke="rgb(243,63,248)" stroke-width="2" data-block-id="0016" data-name="b-0021" /><text x="2851" y="879" text-anchor="middle" dominant-baseline="middle" class="block-label" fill="rgb(243,63,248)" stroke="white" stroke-width="3" paint-order="stroke">b-0021</text><polygon points="1171,1673 1170,1674 1154,1674 1153,1675 1136,1675 1135,1676 1126,1676 1125,1675 1109,1675 1108,1676 1107,1675 1098,1675 1097,1674 1084,1674 1083,1675 1034,1675 1033,1676 1029,1676 1028,1677 1026,1677 1025,1678 1024,1678 1023,1679 1022,1679 1020,1681 1020,1687 1019,1688 1019,1701 1018,1702 1018,1734 1019,1735 1019,1742 1018,1743 1018,1779 1019,1780 1019,1827 1020,1828 1020,1844 1021,1845 1021,1852 1020,1853 1020,1871 1021,1872 1021,1891 1020,1892 1020,1926 1021,1927 1021,1935 1020,1936 1020,1954 1021,1955 1021,1974 1022,1975 1022,1982 1021,1983 1021,1987 1020,1988 1020,1998 1021,1999 1021,2005 1022,2006 1022,2007 1021,2008 1021,2016 1022,2017 1022,2036 1021,2037 1021,2047 1022,2048 1022,2058 1021,2059 1021,2065 1022,2066 1022,2073 1023,2074 1023,2078 1022,2079 1022,2085 1021,2086 1021,2090 1022,2091 1022,2095 1023,2096 1023,2109 1022,2110 1022,2113 1023,2114 1023,2121 1024,2122 1024,2124 1025,2125 1025,2126 1030,2131 1031,2131 1032,2132 1033,2132 1034,2133 1043,2133 1044,2132 1061,2132 1062,2131 1066,2131 1067,2130 1070,2130 1071,2129 1076,2129 1077,2128 1088,2128 1089,2127 1101,2127 1102,2128 1108,2128 1109,2127 1119,2127 1120,2126 1136,2126 1137,2127 1145,2127 1146,2126 1160,2126 1161,2125 1165,2125 1166,2124 1168,2124 1170,2122 1171,2122 1172,2121 1174,2121 1175,2120 1178,2120 1179,2119 1190,2119 1191,2118 1203,2118 1204,2117 1212,2117 1213,2116 1217,2116 1218,2117 1230,2117 1231,2116 1241,2116 1242,2115 1252,2115 1253,2114 1258,2114 1259,2113 1277,2113 1278,2112 1287,2112 1288,2111 1294,2111 1295,2110 1302,2110 1303,2109 1311,2109 1312,2108 1325,2108 1326,2107 1343,2107 1344,2106 1349,2106 1350,2105 1353,2105 1354,2104 1356,2104 1357,2103 1374,2103 1375,2102 1393,2102 1394,2101 1399,2101 1400,2100 1402,2100 1403,2099 1413,2099 1414,2100 1430,2100 1431,2099 1436,2099 1437,2098 1442,2098 1443,2097 1447,2097 1448,2096 1452,2096 1453,2095 1457,2095 1458,2094 1464,2094 1465,2093 1495,2093 1496,2094 1518,2094 1519,2093 1523,2093 1524,2092 1527,2092 1528,2091 1537,2091 1538,2090 1544,2090 1545,2089 1552,2089 1553,2088 1558,2088 1559,2087 1568,2087 1569,2086 1576,2086 1577,2085 1582,2085 1583,2084 1585,2084 1586,2083 1587,2083 1589,2081 1589,2080 1590,2079 1590,2076 1591,2075 1591,2063 1590,2062 1590,2038 1591,2037 1591,2013 1590,2012 1590,2004 1589,2003 1589,1985 1590,1984 1590,1955 1589,1954 1589,1933 1590,1932 1590,1913 1589,1912 1589,1854 1588,1853 1588,1843 1589,1842 1589,1803 1588,1802 1588,1798 1589,1797 1589,1756 1588,1755 1588,1748 1589,1747 1589,1681 1588,1680 1588,1679 1586,1677 1585,1677 1584,1676 1581,1676 1580,1675 1572,1675 1571,1674 1542,1674 1541,1673 1536,1673 1535,1674 1507,1674 1506,1675 1500,1675 1499,1674 1482,1674 1481,1675 1450,1675 1449,1674 1433,1674 1432,1675 1411,1675 1410,1676 1405,1676 1404,1675 1402,1675 1401,1674 1399,1674 1398,1673 1367,1673 1366,1674 1353,1674 1352,1673 1338,1673 1337,1674 1326,1674 1325,1673 1321,1673 1320,1674 1313,1674 1312,1675 1309,1675 1308,1674 1304,1674 1303,1673 1290,1673 1289,1674 1279,1674 1278,1673 1272,1673 1271,1674 1257,1674 1256,1673" fill="rgba(130,228,50,0.3)" stroke="rgb(130,228,50)" stroke-width="2" data-block-id="0017" data-name="b-0022" /><text x="1277" y="1943" text-anchor="middle" dominant-baseline="middle" class="block-label" fill="rgb(130,228,50)" stroke="white" stroke-width="3" paint-order="stroke">b-0022</text><polygon points="3046,1175 3045,1176 3035,1176 3034,1177 3008,1177 3007,1178 2992,1178 2991,1177 2978,1177 2977,1178 2975,1178 2974,1177 2968,1177 2967,1176 2960,1176 2959,1177 2954,1177 2953,1178 2943,1178 2942,1177 2937,1177 2936,1178 2918,1178 2917,1177 2907,1177 2906,1178 2903,1178 2902,1177 2897,1177 2896,1176 2879,1176 2878,1177 2866,1177 2865,1178 2818,1178 2817,1177 2803,1177 2802,1178 2764,1178 2763,1179 2749,1179 2748,1180 2741,1180 2740,1181 2732,1181 2731,1180 2727,1180 2726,1179 2710,1179 2709,1180 2700,1180 2699,1181 2654,1181 2653,1180 2652,1181 2644,1181 2643,1182 2638,1182 2637,1183 2633,1183 2632,1184 2593,1184 2592,1183 2576,1183 2575,1184 2556,1184 2555,1183 2537,1183 2536,1184 2525,1184 2524,1183 2503,1183 2502,1184 2496,1184 2493,1187 2493,1188 2492,1189 2492,1195 2491,1196 2491,1204 2492,1205 2492,1223 2493,1224 2493,1271 2494,1272 2494,1273 2493,1274 2493,1292 2494,1293 2494,1332 2495,1333 2495,1360 2496,1361 2496,1388 2497,1389 2497,1442 2498,1443 2498,1468 2497,1469 2497,1483 2498,1484 2498,1532 2499,1533 2499,1542 2500,1543 2500,1548 2501,1549 2501,1550 2502,1551 2503,1551 2504,1552 2505,1552 2506,1553 2523,1553 2524,1552 2534,1552 2535,1553 2542,1553 2543,1554 2557,1554 2558,1553 2566,1553 2567,1552 2582,1552 2583,1553 2592,1553 2593,1554 2602,1554 2603,1553 2611,1553 2612,1552 2633,1552 2634,1553 2641,1553 2642,1554 2654,1554 2655,1553 2662,1553 2663,1552 2671,1552 2672,1551 2682,1551 2683,1550 2710,1550 2711,1549 2723,1549 2724,1550 2727,1550 2728,1551 2768,1551 2769,1550 2775,1550 2776,1551 2803,1551 2804,1552 2810,1552 2811,1551 2843,1551 2844,1550 2861,1550 2862,1549 2875,1549 2876,1550 2883,1550 2884,1549 2909,1549 2910,1548 2921,1548 2922,1549 2933,1549 2934,1548 2959,1548 2960,1547 2968,1547 2969,1548 3000,1548 3001,1547 3060,1547 3061,1546 3071,1546 3072,1545 3081,1545 3082,1546 3104,1546 3105,1545 3108,1545 3109,1546 3128,1546 3129,1547 3152,1547 3153,1546 3157,1546 3158,1545 3160,1545 3161,1544 3162,1544 3164,1542 3164,1541 3166,1539 3166,1533 3167,1532 3167,1519 3166,1518 3166,1495 3165,1494 3165,1472 3166,1471 3166,1464 3165,1463 3165,1457 3164,1456 3164,1387 3163,1386 3163,1365 3162,1364 3162,1320 3161,1319 3161,1204 3160,1203 3160,1200 3161,1199 3161,1189 3160,1188 3160,1184 3159,1183 3159,1181 3158,1180 3158,1179 3156,1177 3155,1177 3154,1176 3152,1176 3151,1175 3133,1175 3132,1176 3113,1176 3112,1177 3059,1177 3058,1176 3049,1176 3048,1175" fill="rgba(134,20,72,0.3)" stroke="rgb(134,20,72)" stroke-width="2" data-block-id="0018" data-name="b-0023" /><text x="2821" y="1364" text-anchor="middle" dominant-baseline="middle" class="block-label" fill="rgb(134,20,72)" stroke="white" stroke-width="3" paint-order="stroke">b-0023</text><polygon points="4120,2435 4119,2436 4057,2436 4056,2437 3986,2437 3985,2438 3956,2438 3955,2439 3919,2439 3918,2440 3891,2440 3890,2441 3880,2441 3879,2440 3869,2440 3868,2441 3839,2441 3838,2442 3813,2442 3812,2443 3797,2443 3796,2444 3794,2444 3793,2445 3792,2445 3791,2446 3790,2446 3789,2447 3784,2447 3783,2446 3764,2446 3763,2445 3743,2445 3742,2446 3737,2446 3736,2445 3725,2445 3724,2446 3713,2446 3712,2445 3708,2445 3707,2444 3692,2444 3691,2445 3687,2445 3686,2446 3680,2446 3679,2447 3631,2447 3630,2448 3626,2448 3625,2449 3621,2449 3620,2450 3593,2450 3592,2451 3551,2451 3550,2452 3541,2452 3540,2453 3512,2453 3511,2454 3506,2454 3505,2455 3491,2455 3490,2456 3483,2456 3482,2457 3475,2457 3474,2458 3463,2458 3462,2459 3460,2459 3459,2460 3457,2460 3456,2461 3449,2461 3448,2460 3443,2460 3442,2459 3432,2459 3431,2458 3421,2458 3420,2457 3416,2457 3415,2458 3410,2458 3409,2459 3378,2459 3377,2460 3363,2460 3362,2461 3338,2461 3337,2462 3318,2462 3317,2463 3311,2463 3310,2464 3296,2464 3292,2468 3292,2469 3291,2470 3291,2471 3290,2472 3290,2474 3289,2475 3289,2491 3290,2492 3290,2499 3291,2500 3291,2508 3290,2509 3290,2528 3291,2529 3291,2587 3292,2588 3292,2681 3293,2682 3293,2690 3294,2691 3294,2716 3295,2717 3295,2728 3298,2731 3300,2731 3301,2732 3304,2732 3305,2733 3308,2733 3309,2734 3328,2734 3329,2733 3335,2733 3336,2732 3349,2732 3350,2731 3374,2731 3375,2730 3379,2730 3380,2729 3385,2729 3386,2730 3400,2730 3401,2729 3409,2729 3410,2730 3413,2730 3414,2731 3423,2731 3424,2730 3428,2730 3429,2729 3435,2729 3436,2728 3441,2728 3442,2727 3444,2727 3446,2725 3447,2725 3449,2723 3450,2723 3452,2721 3457,2721 3458,2722 3461,2722 3462,2723 3470,2723 3471,2722 3514,2722 3515,2721 3564,2721 3565,2720 3588,2720 3589,2721 3602,2721 3603,2720 3609,2720 3610,2719 3613,2719 3614,2718 3616,2718 3617,2717 3619,2717 3620,2716 3624,2716 3625,2717 3629,2717 3630,2718 3644,2718 3645,2717 3665,2717 3666,2716 3682,2716 3683,2715 3689,2715 3690,2714 3705,2714 3706,2713 3719,2713 3720,2712 3737,2712 3738,2713 3750,2713 3751,2712 3763,2712 3764,2711 3776,2711 3777,2710 3789,2710 3790,2709 3805,2709 3806,2708 3816,2708 3817,2709 3830,2709 3831,2708 3849,2708 3850,2707 3852,2707 3853,2706 3854,2706 3855,2705 3856,2705 3857,2704 3858,2704 3859,2703 3864,2703 3865,2704 3898,2704 3899,2703 3902,2703 3903,2702 3907,2702 3908,2701 3940,2701 3941,2700 3952,2700 3953,2699 3969,2699 3970,2698 4003,2698 4004,2697 4021,2697 4022,2696 4057,2696 4058,2695 4079,2695 4080,2694 4088,2694 4089,2693 4101,2693 4102,2692 4112,2692 4113,2691 4118,2691 4119,2690 4124,2690 4125,2689 4128,2689 4129,2688 4132,2688 4133,2687 4134,2687 4137,2684 4137,2682 4138,2681 4138,2638 4137,2637 4137,2579 4136,2578 4136,2555 4137,2554 4137,2545 4136,2544 4136,2514 4135,2513 4135,2503 4134,2502 4134,2465 4133,2464 4133,2442 4132,2441 4132,2440 4129,2437 4128,2437 4127,2436 4125,2436 4124,2435" fill="rgba(88,59,13,0.3)" stroke="rgb(88,59,13)" stroke-width="2" data-block-id="0019" data-name="b-0025" /><text x="3678" y="2593" text-anchor="middle" dominant-baseline="middle" class="block-label" fill="rgb(88,59,13)" stroke="white" stroke-width="3" paint-order="stroke">b-0025</text><polygon points="892,1673 891,1674 841,1674 840,1675 837,1675 836,1676 833,1676 832,1677 826,1677 825,1676 796,1676 795,1677 787,1677 786,1678 781,1678 780,1677 772,1677 771,1676 738,1676 737,1675 714,1675 713,1674 712,1675 707,1675 706,1676 702,1676 701,1677 696,1677 695,1676 685,1676 684,1675 664,1675 663,1676 657,1676 656,1677 650,1677 649,1678 644,1678 643,1679 635,1679 634,1678 622,1678 621,1677 601,1677 600,1676 586,1676 585,1677 577,1677 576,1678 559,1678 558,1677 554,1677 553,1678 530,1678 529,1679 526,1679 525,1680 524,1680 523,1681 522,1681 521,1682 521,1685 520,1686 520,1697 519,1698 519,1723 520,1724 520,1746 521,1747 521,1777 522,1778 522,1820 523,1821 523,1840 522,1841 522,1870 523,1871 523,1882 522,1883 522,1901 521,1902 521,1913 522,1914 522,1918 523,1919 523,1926 524,1927 524,1937 523,1938 523,1952 522,1953 522,1957 523,1958 523,1972 524,1973 524,1983 523,1984 523,1989 522,1990 522,1996 521,1997 521,2007 522,2008 522,2012 523,2013 523,2032 522,2033 522,2037 521,2038 521,2065 522,2066 522,2086 521,2087 521,2089 522,2090 522,2130 521,2131 521,2156 522,2157 522,2167 523,2168 523,2170 524,2171 524,2172 525,2173 526,2173 527,2174 528,2174 530,2176 544,2176 545,2175 551,2175 552,2174 572,2174 573,2173 584,2173 585,2174 593,2174 594,2173 596,2173 597,2172 599,2172 600,2171 602,2171 603,2170 616,2170 617,2169 619,2169 620,2168 622,2168 623,2167 624,2167 625,2166 628,2166 629,2165 633,2165 634,2164 637,2164 638,2163 641,2163 642,2164 646,2164 647,2165 658,2165 659,2166 675,2166 676,2165 680,2165 681,2164 685,2164 686,2163 693,2163 694,2162 714,2162 715,2161 716,2161 717,2160 719,2160 720,2159 722,2159 723,2158 729,2158 730,2157 738,2157 739,2156 743,2156 744,2155 751,2155 752,2154 762,2154 763,2153 788,2153 789,2152 808,2152 809,2151 818,2151 819,2150 824,2150 825,2149 829,2149 830,2148 832,2148 833,2147 845,2147 846,2146 852,2146 853,2145 862,2145 863,2144 878,2144 879,2143 893,2143 894,2142 899,2142 900,2141 910,2141 911,2140 920,2140 921,2139 929,2139 930,2138 964,2138 965,2137 967,2137 968,2136 971,2136 972,2135 974,2135 977,2132 977,2131 978,2130 978,2129 979,2128 979,2127 980,2126 980,2110 979,2109 979,2092 980,2091 980,2083 979,2082 979,2071 980,2070 980,2060 979,2059 979,1992 980,1991 980,1969 979,1968 979,1912 978,1911 978,1900 979,1899 979,1839 980,1838 980,1825 979,1824 979,1814 978,1813 978,1806 979,1805 979,1779 978,1778 978,1775 979,1774 979,1758 978,1757 978,1750 979,1749 979,1728 978,1727 978,1720 977,1719 977,1687 976,1686 976,1681 973,1678 972,1678 971,1677 970,1677 969,1676 967,1676 966,1675 952,1675 951,1674 927,1674 926,1675 913,1675 912,1674 894,1674 893,1673" fill="rgba(89,52,129,0.3)" stroke="rgb(89,52,129)" stroke-width="2" data-block-id="0020" data-name="b-0027" /><text x="726" y="1947" text-anchor="middle" dominant-baseline="middle" class="block-label" fill="rgb(89,52,129)" stroke="white" stroke-width="3" paint-order="stroke">b-0027</text><polygon points="1472,2210 1471,2211 1451,2211 1450,2212 1419,2212 1418,2213 1412,2213 1411,2214 1409,2214 1408,2215 1400,2215 1399,2214 1382,2214 1381,2215 1372,2215 1371,2216 1364,2216 1363,2217 1349,2217 1348,2218 1328,2218 1327,2219 1321,2219 1320,2220 1319,2220 1318,2221 1317,2221 1316,2222 1315,2222 1314,2223 1313,2223 1312,2224 1310,2224 1309,2225 1308,2224 1290,2224 1289,2225 1271,2225 1270,2226 1267,2226 1266,2227 1228,2227 1227,2228 1224,2228 1223,2229 1220,2229 1219,2230 1216,2230 1215,2231 1212,2231 1211,2230 1194,2230 1193,2231 1177,2231 1176,2232 1174,2232 1173,2233 1171,2233 1170,2234 1167,2234 1166,2235 1127,2235 1126,2236 1123,2236 1122,2237 1105,2237 1104,2238 1102,2238 1101,2239 1099,2239 1098,2240 1095,2240 1094,2241 1086,2241 1085,2242 1083,2242 1082,2243 1081,2243 1080,2244 1078,2244 1077,2245 1074,2245 1073,2246 1051,2246 1050,2245 1028,2245 1027,2246 1021,2246 1020,2247 992,2247 991,2248 975,2248 974,2249 972,2249 971,2250 970,2250 969,2251 967,2251 966,2252 954,2252 953,2251 949,2251 948,2252 941,2252 940,2253 931,2253 930,2254 927,2254 926,2255 924,2255 923,2256 921,2256 920,2257 918,2257 917,2258 911,2258 910,2257 899,2257 898,2258 894,2258 893,2259 888,2259 887,2258 869,2258 868,2259 850,2259 849,2260 841,2260 840,2261 831,2261 830,2262 826,2262 825,2263 812,2263 811,2262 795,2262 794,2263 782,2263 781,2264 775,2264 774,2265 769,2265 768,2266 761,2266 760,2267 757,2267 756,2268 754,2268 753,2269 752,2269 751,2270 750,2270 749,2271 744,2271 743,2270 740,2270 739,2269 733,2269 732,2270 731,2270 730,2271 728,2271 727,2272 726,2272 725,2273 707,2273 706,2274 703,2274 702,2275 687,2275 686,2276 684,2276 683,2277 681,2277 680,2278 677,2278 676,2279 673,2279 672,2278 657,2278 656,2279 646,2279 645,2280 631,2280 630,2281 610,2281 609,2282 605,2282 604,2283 598,2283 597,2284 593,2284 592,2285 591,2285 588,2288 588,2291 587,2292 587,2296 586,2297 586,2304 585,2305 585,2314 586,2315 586,2327 587,2328 587,2336 586,2337 586,2342 585,2343 585,2349 586,2350 586,2354 587,2355 587,2392 586,2393 587,2394 587,2400 588,2401 588,2410 589,2411 589,2421 588,2422 588,2436 587,2437 587,2460 586,2461 586,2469 587,2470 587,2476 588,2477 588,2493 589,2494 589,2496 590,2497 590,2498 591,2499 591,2500 594,2503 595,2503 596,2504 597,2504 598,2505 599,2505 600,2506 602,2506 603,2507 608,2507 609,2508 618,2508 619,2507 622,2507 623,2506 630,2506 631,2505 653,2505 654,2504 663,2504 664,2503 667,2503 668,2502 671,2502 672,2501 692,2501 693,2500 696,2500 697,2499 705,2499 706,2498 713,2498 714,2497 718,2497 719,2496 724,2496 725,2495 748,2495 749,2494 750,2495 762,2495 763,2494 785,2494 786,2493 806,2493 807,2492 812,2492 813,2491 817,2491 818,2490 820,2490 821,2489 824,2489 825,2488 826,2488 828,2486 829,2486 830,2485 832,2485 833,2484 834,2485 835,2485 836,2486 839,2486 840,2487 848,2487 849,2488 857,2488 858,2487 860,2487 861,2486 864,2486 865,2485 874,2485 875,2484 904,2484 905,2483 906,2483 907,2482 908,2482 909,2481 911,2481 912,2480 913,2480 914,2479 922,2479 923,2480 948,2480 949,2481 951,2481 952,2480 958,2480 959,2479 976,2479 977,2478 978,2478 979,2477 981,2477 982,2476 983,2476 984,2475 998,2475 999,2474 1000,2474 1001,2473 1002,2473 1003,2472 1007,2472 1008,2471 1019,2471 1020,2470 1048,2470 1049,2469 1062,2469 1063,2468 1071,2468 1072,2467 1077,2467 1078,2466 1081,2466 1082,2465 1093,2465 1094,2466 1114,2466 1115,2465 1126,2465 1127,2464 1133,2464 1134,2463 1136,2463 1137,2462 1140,2462 1141,2461 1152,2461 1153,2460 1157,2460 1158,2459 1161,2459 1162,2458 1173,2458 1174,2459 1185,2459 1186,2458 1192,2458 1193,2457 1197,2457 1198,2456 1203,2456 1204,2455 1210,2455 1211,2454 1239,2454 1240,2453 1242,2453 1243,2452 1246,2452 1247,2451 1250,2451 1251,2450 1253,2450 1254,2451 1263,2451 1264,2450 1267,2450 1268,2449 1273,2449 1274,2448 1288,2448 1289,2447 1293,2447 1294,2446 1301,2446 1302,2445 1313,2445 1314,2446 1343,2446 1344,2445 1354,2445 1355,2444 1371,2444 1372,2443 1384,2443 1385,2442 1390,2442 1391,2441 1396,2441 1397,2440 1399,2440 1400,2439 1403,2439 1404,2438 1410,2438 1411,2439 1435,2439 1436,2438 1447,2438 1448,2437 1456,2437 1457,2436 1460,2436 1461,2435 1473,2435 1474,2434 1482,2434 1483,2433 1505,2433 1506,2432 1510,2432 1511,2431 1514,2431 1515,2430 1517,2430 1518,2429 1520,2429 1522,2427 1522,2426 1523,2425 1523,2423 1524,2422 1524,2418 1525,2417 1525,2412 1526,2411 1526,2396 1525,2395 1525,2389 1524,2388 1524,2372 1525,2371 1525,2362 1526,2361 1526,2353 1527,2352 1527,2341 1526,2340 1526,2330 1527,2329 1527,2324 1528,2323 1528,2312 1527,2311 1527,2298 1526,2297 1526,2294 1525,2293 1525,2289 1524,2288 1524,2278 1523,2277 1523,2263 1522,2262 1522,2254 1521,2253 1521,2235 1522,2234 1522,2221 1521,2220 1521,2216 1518,2213 1517,2213 1516,2212 1514,2212 1513,2211 1509,2211 1508,2210" fill="rgba(83,91,110,0.3)" stroke="rgb(83,91,110)" stroke-width="2" data-block-id="0021" data-name="b-0028" /><text x="1031" y="2362" text-anchor="middle" dominant-baseline="middle" class="block-label" fill="rgb(83,91,110)" stroke="white" stroke-width="3" paint-order="stroke">b-0028</text><polygon points="3158,2467 3157,2468 3136,2468 3135,2469 3126,2469 3125,2470 3110,2470 3109,2469 3101,2469 3100,2470 3086,2470 3085,2471 3042,2471 3041,2472 2995,2472 2994,2473 2976,2473 2975,2474 2951,2474 2950,2473 2902,2473 2901,2474 2851,2474 2850,2475 2827,2475 2826,2476 2801,2476 2800,2477 2778,2477 2777,2478 2765,2478 2764,2477 2757,2477 2756,2478 2750,2478 2749,2479 2742,2479 2741,2478 2733,2478 2732,2479 2716,2479 2715,2478 2710,2478 2709,2479 2704,2479 2703,2480 2670,2480 2669,2479 2654,2479 2653,2480 2645,2480 2644,2479 2639,2479 2638,2480 2590,2480 2589,2481 2585,2481 2584,2482 2568,2482 2567,2483 2563,2483 2562,2484 2555,2484 2554,2485 2539,2485 2538,2486 2526,2486 2525,2487 2520,2487 2519,2488 2518,2488 2515,2491 2515,2496 2514,2497 2514,2514 2515,2515 2515,2544 2516,2545 2516,2610 2517,2611 2517,2634 2518,2635 2518,2725 2519,2726 2519,2733 2518,2734 2518,2754 2519,2755 2519,2759 2520,2760 2520,2762 2521,2763 2521,2764 2522,2765 2524,2765 2525,2766 2527,2766 2528,2767 2530,2767 2531,2768 2535,2768 2536,2767 2543,2767 2544,2766 2558,2766 2559,2765 2563,2765 2564,2764 2570,2764 2571,2763 2582,2763 2583,2762 2608,2762 2609,2761 2620,2761 2621,2762 2632,2762 2633,2761 2657,2761 2658,2762 2684,2762 2685,2761 2692,2761 2693,2760 2697,2760 2698,2759 2703,2759 2704,2760 2734,2760 2735,2759 2741,2759 2742,2758 2774,2758 2775,2759 2803,2759 2804,2758 2814,2758 2815,2757 2827,2757 2828,2756 2868,2756 2869,2755 2883,2755 2884,2754 2894,2754 2895,2753 2929,2753 2930,2752 2938,2752 2939,2751 2944,2751 2945,2750 2950,2750 2951,2749 2954,2749 2955,2748 2957,2748 2958,2747 2959,2747 2960,2746 2961,2746 2962,2745 2963,2745 2964,2744 2967,2744 2968,2745 2984,2745 2985,2744 3009,2744 3010,2743 3073,2743 3074,2742 3079,2742 3080,2741 3084,2741 3085,2742 3089,2742 3090,2743 3123,2743 3124,2742 3139,2742 3140,2743 3144,2743 3145,2742 3161,2742 3162,2743 3169,2743 3170,2742 3174,2742 3175,2741 3178,2741 3179,2740 3180,2740 3180,2739 3181,2738 3181,2737 3182,2736 3182,2735 3183,2734 3183,2733 3184,2732 3184,2729 3185,2728 3184,2727 3184,2722 3183,2721 3183,2686 3182,2685 3182,2678 3183,2677 3183,2640 3184,2639 3184,2610 3185,2609 3185,2603 3186,2602 3186,2591 3187,2590 3187,2582 3186,2581 3186,2552 3185,2551 3186,2550 3186,2516 3187,2515 3187,2511 3186,2510 3186,2477 3185,2476 3185,2475 3184,2474 3184,2473 3179,2468 3177,2468 3176,2467" fill="rgba(187,198,171,0.3)" stroke="rgb(187,198,171)" stroke-width="2" data-block-id="0022" data-name="b-0029" /><text x="2858" y="2635" text-anchor="middle" dominant-baseline="middle" class="block-label" fill="rgb(187,198,171)" stroke="white" stroke-width="3" paint-order="stroke">b-0029</text><polygon points="4026,2133 4025,2134 4001,2134 4000,2135 3987,2135 3986,2136 3961,2136 3960,2137 3953,2137 3952,2136 3927,2136 3926,2137 3912,2137 3911,2138 3889,2138 3888,2139 3859,2139 3858,2138 3849,2138 3848,2139 3844,2139 3843,2140 3839,2140 3838,2141 3837,2140 3829,2140 3828,2139 3818,2139 3817,2140 3797,2140 3796,2141 3791,2141 3790,2142 3778,2142 3777,2143 3739,2143 3738,2144 3733,2144 3732,2145 3716,2145 3715,2144 3706,2144 3705,2145 3659,2145 3658,2144 3625,2144 3624,2145 3613,2145 3612,2146 3601,2146 3600,2147 3598,2147 3597,2146 3589,2146 3588,2145 3580,2145 3579,2146 3571,2146 3570,2147 3563,2147 3562,2148 3558,2148 3557,2149 3554,2149 3553,2150 3550,2150 3549,2151 3546,2151 3545,2150 3534,2150 3533,2149 3520,2149 3519,2150 3498,2150 3497,2151 3491,2151 3490,2152 3422,2152 3421,2151 3414,2151 3413,2152 3382,2152 3381,2153 3358,2153 3357,2154 3351,2154 3350,2155 3339,2155 3338,2156 3333,2156 3332,2155 3308,2155 3307,2154 3302,2154 3301,2153 3296,2153 3295,2154 3290,2154 3289,2155 3286,2155 3285,2156 3284,2156 3284,2157 3283,2158 3283,2160 3282,2161 3282,2162 3281,2163 3281,2165 3280,2166 3280,2172 3281,2173 3281,2185 3282,2186 3282,2192 3281,2193 3281,2199 3280,2200 3280,2201 3281,2202 3281,2206 3282,2207 3282,2210 3283,2211 3283,2222 3284,2223 3284,2237 3283,2238 3283,2271 3284,2272 3284,2286 3285,2287 3285,2299 3284,2300 3284,2325 3285,2326 3285,2351 3286,2352 3286,2358 3287,2359 3287,2360 3289,2362 3290,2362 3291,2363 3292,2363 3293,2364 3294,2364 3295,2365 3298,2365 3299,2366 3300,2365 3347,2365 3348,2364 3378,2364 3379,2363 3384,2363 3385,2364 3391,2364 3392,2365 3394,2365 3395,2364 3400,2364 3401,2363 3411,2363 3412,2364 3420,2364 3421,2363 3423,2363 3424,2362 3426,2362 3427,2361 3448,2361 3449,2360 3516,2360 3517,2359 3523,2359 3524,2358 3539,2358 3540,2359 3565,2359 3566,2358 3571,2358 3572,2357 3593,2357 3594,2356 3600,2356 3601,2355 3605,2355 3606,2354 3609,2354 3610,2355 3611,2355 3612,2356 3616,2356 3617,2357 3648,2357 3649,2356 3665,2356 3666,2355 3687,2355 3688,2354 3697,2354 3698,2355 3712,2355 3713,2354 3736,2354 3737,2353 3761,2353 3762,2352 3781,2352 3782,2351 3825,2351 3826,2350 3839,2350 3840,2349 3850,2349 3851,2348 3885,2348 3886,2347 3888,2347 3889,2348 3895,2348 3896,2347 3911,2347 3912,2346 3919,2346 3920,2345 3930,2345 3931,2344 3953,2344 3954,2343 3959,2343 3960,2344 3978,2344 3979,2343 3985,2343 3986,2344 3991,2344 3992,2343 3997,2343 3998,2342 4001,2342 4002,2341 4036,2341 4037,2340 4073,2340 4074,2339 4096,2339 4097,2340 4112,2340 4113,2339 4123,2339 4124,2338 4126,2338 4128,2336 4129,2336 4130,2335 4130,2334 4131,2333 4131,2329 4132,2328 4132,2307 4131,2306 4131,2212 4130,2211 4130,2161 4129,2160 4129,2147 4130,2146 4130,2144 4129,2143 4129,2139 4128,2138 4128,2137 4127,2136 4127,2135 4126,2134 4125,2134 4124,2133 4115,2133 4114,2134 4083,2134 4082,2133 4077,2133 4076,2134 4030,2134 4029,2133" fill="rgba(34,205,80,0.3)" stroke="rgb(34,205,80)" stroke-width="2" data-block-id="0023" data-name="b-0031" /><text x="3661" y="2245" text-anchor="middle" dominant-baseline="middle" class="block-label" fill="rgb(34,205,80)" stroke="white" stroke-width="3" paint-order="stroke">b-0031</text><polygon points="2374,2491 2373,2492 2368,2492 2367,2493 2363,2493 2362,2494 2347,2494 2346,2495 2335,2495 2334,2496 2297,2496 2296,2497 2269,2497 2268,2496 2243,2496 2242,2497 2219,2497 2218,2498 2162,2498 2161,2499 2136,2499 2135,2500 2109,2500 2108,2501 2064,2501 2063,2502 2017,2502 2016,2503 2012,2503 2011,2504 2008,2504 2007,2505 2004,2505 2003,2506 2001,2506 2000,2507 1997,2507 1996,2508 1987,2508 1986,2507 1956,2507 1955,2506 1937,2506 1936,2507 1924,2507 1923,2508 1892,2508 1891,2509 1876,2509 1875,2510 1871,2510 1870,2511 1868,2511 1867,2512 1866,2512 1865,2513 1864,2513 1863,2514 1862,2514 1861,2515 1861,2517 1860,2518 1860,2520 1859,2521 1859,2547 1860,2548 1860,2606 1861,2607 1861,2611 1860,2612 1860,2647 1861,2648 1861,2701 1862,2702 1862,2708 1861,2709 1861,2727 1862,2728 1862,2767 1863,2768 1863,2783 1864,2784 1864,2790 1865,2791 1865,2794 1866,2795 1866,2797 1867,2798 1867,2799 1868,2800 1869,2800 1871,2802 1872,2802 1873,2803 1879,2803 1880,2804 1887,2804 1888,2803 1898,2803 1899,2802 1904,2802 1905,2801 1910,2801 1911,2800 1917,2800 1918,2799 1925,2799 1926,2800 1934,2800 1935,2799 1938,2799 1939,2798 1943,2798 1944,2797 1983,2797 1984,2796 1986,2796 1987,2795 1991,2795 1992,2794 2030,2794 2031,2793 2037,2793 2038,2792 2054,2792 2055,2793 2057,2793 2058,2794 2059,2794 2060,2795 2062,2795 2063,2796 2067,2796 2068,2797 2078,2797 2079,2796 2086,2796 2087,2795 2091,2795 2092,2794 2096,2794 2097,2793 2102,2793 2103,2792 2116,2792 2117,2791 2132,2791 2133,2790 2159,2790 2160,2789 2176,2789 2177,2788 2184,2788 2185,2787 2208,2787 2209,2786 2229,2786 2230,2785 2233,2785 2234,2786 2269,2786 2270,2785 2274,2785 2275,2784 2278,2784 2279,2783 2283,2783 2284,2784 2300,2784 2301,2783 2305,2783 2306,2784 2313,2784 2314,2785 2315,2785 2316,2784 2321,2784 2322,2783 2329,2783 2330,2782 2336,2782 2337,2781 2358,2781 2359,2780 2389,2780 2390,2779 2398,2779 2399,2778 2403,2778 2404,2777 2405,2777 2406,2776 2407,2776 2407,2775 2408,2774 2408,2773 2409,2772 2409,2769 2410,2768 2410,2742 2409,2741 2409,2698 2408,2697 2408,2690 2409,2689 2409,2661 2408,2660 2408,2614 2409,2613 2409,2608 2408,2607 2408,2568 2407,2567 2407,2554 2406,2553 2406,2536 2405,2535 2405,2503 2404,2502 2404,2499 2403,2498 2403,2497 2401,2495 2401,2494 2400,2494 2399,2493 2398,2493 2397,2492 2389,2492 2388,2491" fill="rgba(163,49,103,0.3)" stroke="rgb(163,49,103)" stroke-width="2" data-block-id="0024" data-name="b-0032" /><text x="2123" y="2672" text-anchor="middle" dominant-baseline="middle" class="block-label" fill="rgb(163,49,103)" stroke="white" stroke-width="3" paint-order="stroke">b-0032</text><polygon points="3151,2157 3150,2158 3134,2158 3133,2159 3127,2159 3126,2158 3110,2158 3109,2159 3088,2159 3087,2160 3064,2160 3063,2161 3037,2161 3036,2160 3024,2160 3023,2161 3013,2161 3012,2162 2957,2162 2956,2163 2945,2163 2944,2162 2932,2162 2931,2161 2924,2161 2923,2162 2917,2162 2916,2163 2900,2163 2899,2164 2893,2164 2892,2165 2890,2165 2889,2164 2879,2164 2878,2163 2877,2163 2876,2164 2849,2164 2848,2165 2837,2165 2836,2164 2829,2164 2828,2165 2824,2165 2823,2166 2820,2166 2819,2167 2816,2167 2815,2166 2802,2166 2801,2167 2764,2167 2763,2168 2690,2168 2689,2167 2686,2167 2685,2168 2678,2168 2677,2169 2674,2169 2673,2168 2664,2168 2663,2167 2658,2167 2657,2168 2644,2168 2643,2169 2635,2169 2634,2168 2620,2168 2619,2167 2613,2167 2612,2168 2589,2168 2588,2169 2584,2169 2583,2170 2561,2170 2560,2171 2537,2171 2536,2172 2514,2172 2513,2173 2510,2173 2507,2176 2507,2177 2506,2178 2506,2200 2507,2201 2507,2247 2508,2248 2508,2254 2507,2255 2507,2270 2508,2271 2508,2293 2509,2294 2509,2332 2510,2333 2510,2378 2511,2379 2511,2385 2512,2386 2512,2388 2516,2392 2517,2392 2518,2393 2536,2393 2537,2392 2544,2392 2545,2391 2559,2391 2560,2390 2565,2390 2566,2389 2583,2389 2584,2388 2596,2388 2597,2389 2631,2389 2632,2388 2655,2388 2656,2389 2673,2389 2674,2388 2681,2388 2682,2389 2688,2389 2689,2388 2698,2388 2699,2387 2719,2387 2720,2386 2771,2386 2772,2387 2775,2387 2776,2386 2809,2386 2810,2385 2817,2385 2818,2384 2907,2384 2908,2383 2913,2383 2914,2382 2918,2382 2919,2381 2940,2381 2941,2380 2955,2380 2956,2379 2994,2379 2995,2378 3008,2378 3009,2377 3020,2377 3021,2378 3036,2378 3037,2377 3046,2377 3047,2376 3065,2376 3066,2375 3127,2375 3128,2374 3139,2374 3140,2375 3154,2375 3155,2374 3164,2374 3165,2373 3174,2373 3175,2372 3178,2372 3179,2371 3180,2371 3181,2370 3181,2369 3182,2368 3182,2367 3183,2366 3183,2362 3184,2361 3184,2354 3183,2353 3183,2316 3184,2315 3184,2299 3183,2298 3183,2281 3182,2280 3182,2271 3183,2270 3183,2258 3182,2257 3182,2238 3181,2237 3181,2204 3180,2203 3180,2171 3181,2170 3181,2168 3180,2167 3180,2164 3179,2163 3179,2162 3177,2160 3176,2160 3175,2159 3173,2159 3172,2158 3169,2158 3168,2157" fill="rgba(131,1,253,0.3)" stroke="rgb(131,1,253)" stroke-width="2" data-block-id="0025" data-name="b-0033" /><text x="2862" y="2264" text-anchor="middle" dominant-baseline="middle" class="block-label" fill="rgb(131,1,253)" stroke="white" stroke-width="3" paint-order="stroke">b-0033</text><polygon points="2371,2174 2370,2175 2361,2175 2360,2176 2345,2176 2344,2177 2335,2177 2334,2176 2323,2176 2322,2177 2308,2177 2307,2176 2297,2176 2296,2177 2277,2177 2276,2178 2272,2178 2271,2179 2261,2179 2260,2178 2243,2178 2242,2179 2175,2179 2174,2178 2171,2178 2170,2179 2163,2179 2162,2180 2158,2180 2157,2179 2150,2179 2149,2178 2139,2178 2138,2179 2127,2179 2126,2180 2084,2180 2083,2181 2076,2181 2075,2182 2067,2182 2066,2183 2064,2183 2063,2182 2057,2182 2056,2181 2047,2181 2046,2182 2012,2182 2011,2181 2001,2181 2000,2182 1997,2182 1996,2183 1991,2183 1990,2184 1976,2184 1975,2185 1969,2185 1968,2184 1924,2184 1923,2185 1904,2185 1903,2186 1888,2186 1887,2185 1882,2185 1881,2186 1867,2186 1866,2187 1860,2187 1859,2188 1858,2188 1856,2190 1856,2200 1857,2201 1857,2202 1856,2203 1856,2206 1855,2207 1855,2210 1854,2211 1854,2226 1855,2227 1855,2228 1854,2229 1854,2243 1853,2244 1853,2255 1854,2256 1854,2262 1855,2263 1855,2281 1854,2282 1854,2292 1853,2293 1853,2303 1854,2304 1854,2315 1855,2316 1855,2330 1854,2331 1854,2343 1853,2344 1853,2346 1854,2347 1854,2352 1855,2353 1855,2359 1856,2360 1856,2377 1855,2378 1855,2389 1854,2390 1854,2396 1855,2397 1855,2402 1856,2403 1856,2407 1857,2408 1857,2409 1858,2410 1858,2411 1860,2413 1861,2413 1862,2414 1874,2414 1875,2415 1881,2415 1882,2416 1887,2416 1888,2415 1892,2415 1893,2414 1914,2414 1915,2413 1925,2413 1926,2414 1930,2414 1931,2415 1951,2415 1952,2414 1958,2414 1959,2413 1965,2413 1966,2412 1987,2412 1988,2413 2000,2413 2001,2414 2018,2414 2019,2413 2031,2413 2032,2412 2068,2412 2069,2411 2115,2411 2116,2410 2140,2410 2141,2409 2198,2409 2199,2408 2205,2408 2206,2407 2223,2407 2224,2406 2255,2406 2256,2405 2262,2405 2263,2404 2268,2404 2269,2403 2301,2403 2302,2402 2333,2402 2334,2403 2343,2403 2344,2402 2353,2402 2354,2401 2360,2401 2361,2400 2370,2400 2371,2399 2382,2399 2383,2400 2388,2400 2389,2399 2394,2399 2395,2398 2398,2398 2399,2397 2400,2397 2402,2395 2402,2394 2403,2393 2403,2380 2404,2379 2404,2359 2403,2358 2403,2345 2402,2344 2402,2259 2401,2258 2401,2189 2400,2188 2400,2180 2399,2179 2399,2178 2398,2177 2397,2177 2396,2176 2393,2176 2392,2175 2387,2175 2386,2174" fill="rgba(3,53,220,0.3)" stroke="rgb(3,53,220)" stroke-width="2" data-block-id="0026" data-name="b-0035" /><text x="2088" y="2291" text-anchor="middle" dominant-baseline="middle" class="block-label" fill="rgb(3,53,220)" stroke="white" stroke-width="3" paint-order="stroke">b-0035</text><polygon points="3233,2980 3232,2981 3211,2981 3210,2982 3183,2982 3182,2983 3174,2983 3173,2984 3168,2984 3167,2985 3161,2985 3160,2986 3154,2986 3153,2985 3120,2985 3119,2986 3107,2986 3106,2987 3076,2987 3075,2988 3066,2988 3065,2989 3053,2989 3052,2990 3021,2990 3020,2991 3018,2991 3017,2992 3016,2992 3015,2993 3014,2993 3013,2994 3012,2994 3008,2998 3008,2999 3007,3000 3007,3001 3006,3002 3006,3004 3005,3005 3005,3037 3006,3038 3006,3064 3007,3065 3007,3067 3008,3068 3008,3069 3009,3070 3009,3071 3013,3075 3014,3075 3015,3076 3016,3076 3017,3077 3018,3077 3019,3078 3021,3078 3022,3079 3030,3079 3031,3078 3038,3078 3039,3077 3056,3077 3057,3078 3086,3078 3087,3077 3092,3077 3093,3076 3098,3076 3099,3075 3106,3075 3107,3076 3112,3076 3113,3077 3128,3077 3129,3076 3134,3076 3135,3075 3139,3075 3140,3074 3143,3074 3144,3073 3146,3073 3147,3072 3149,3072 3150,3071 3151,3071 3152,3070 3153,3070 3154,3069 3155,3069 3156,3068 3157,3068 3158,3067 3159,3067 3162,3070 3163,3070 3164,3071 3164,3072 3165,3073 3165,3074 3166,3075 3166,3076 3167,3077 3167,3078 3168,3079 3168,3081 3169,3082 3169,3083 3170,3084 3170,3088 3171,3089 3171,3094 3172,3095 3172,3112 3173,3113 3173,3148 3172,3149 3172,3168 3173,3169 3173,3178 3174,3179 3174,3190 3175,3191 3175,3232 3174,3233 3174,3240 3175,3241 3175,3246 3176,3247 3176,3250 3177,3251 3177,3254 3179,3254 3180,3255 3184,3255 3185,3256 3193,3256 3194,3257 3262,3257 3263,3256 3298,3256 3299,3255 3301,3255 3302,3254 3303,3254 3304,3253 3304,3252 3305,3251 3305,3250 3306,3249 3306,3246 3307,3245 3307,3241 3308,3240 3308,3218 3307,3217 3307,3169 3308,3168 3308,3155 3307,3154 3307,3143 3306,3142 3306,3133 3307,3132 3307,3106 3306,3105 3306,3091 3307,3090 3307,3074 3308,3073 3308,3068 3309,3067 3309,3063 3310,3062 3310,3056 3311,3055 3311,3029 3310,3028 3310,3001 3309,3000 3309,2987 3307,2985 3307,2984 3306,2983 3305,2983 3304,2982 3303,2982 3302,2981 3300,2981 3299,2980" fill="rgba(162,32,122,0.3)" stroke="rgb(162,32,122)" stroke-width="2" data-block-id="0027" data-name="b-0054" /><text x="3165" y="3088" text-anchor="middle" dominant-baseline="middle" class="block-label" fill="rgb(162,32,122)" stroke="white" stroke-width="3" paint-order="stroke">b-0054</text><polygon points="1319,3087 1318,3088 1312,3088 1311,3089 1299,3089 1298,3090 1289,3090 1288,3091 1286,3091 1285,3092 1283,3092 1282,3091 1274,3091 1273,3092 1271,3092 1270,3093 1263,3093 1262,3094 1258,3094 1257,3095 1253,3095 1252,3096 1225,3096 1224,3097 1213,3097 1212,3098 1203,3098 1202,3099 1199,3099 1198,3100 1197,3100 1195,3102 1195,3126 1196,3127 1196,3144 1197,3145 1197,3160 1198,3161 1198,3176 1199,3177 1199,3186 1200,3187 1200,3198 1201,3199 1201,3206 1202,3207 1202,3219 1203,3220 1203,3229 1204,3230 1204,3248 1205,3249 1205,3260 1206,3261 1206,3267 1208,3269 1209,3269 1210,3270 1212,3270 1213,3271 1219,3271 1220,3270 1239,3270 1240,3269 1253,3269 1254,3268 1266,3268 1267,3267 1281,3267 1282,3266 1294,3266 1295,3265 1304,3265 1305,3264 1315,3264 1316,3263 1333,3263 1334,3262 1339,3262 1340,3261 1342,3261 1346,3257 1346,3245 1345,3244 1345,3239 1344,3238 1344,3234 1343,3233 1343,3227 1342,3226 1342,3217 1341,3216 1341,3206 1340,3205 1340,3197 1339,3196 1339,3186 1338,3185 1338,3163 1337,3162 1337,3145 1336,3144 1336,3119 1335,3118 1335,3108 1334,3107 1334,3104 1333,3103 1333,3095 1334,3094 1334,3089 1333,3088 1332,3088 1331,3087" fill="rgba(221,228,150,0.3)" stroke="rgb(221,228,150)" stroke-width="2" data-block-id="0028" data-name="b-0073" /><text x="1273" y="3176" text-anchor="middle" dominant-baseline="middle" class="block-label" fill="rgb(221,228,150)" stroke="white" stroke-width="3" paint-order="stroke">b-0073</text><polygon points="823,3127 822,3128 815,3128 814,3129 804,3129 803,3130 793,3130 792,3131 782,3131 781,3132 771,3132 770,3133 756,3133 755,3134 742,3134 741,3135 728,3135 727,3136 713,3136 712,3137 705,3137 704,3138 701,3138 700,3139 699,3139 698,3140 697,3140 695,3142 695,3160 696,3161 696,3170 697,3171 697,3179 698,3180 698,3203 699,3204 699,3210 700,3211 700,3217 701,3218 701,3233 702,3234 702,3241 703,3242 703,3248 704,3249 704,3257 705,3258 705,3270 706,3271 706,3274 707,3275 707,3276 710,3279 711,3279 712,3280 722,3280 723,3281 735,3281 736,3280 765,3280 766,3279 779,3279 780,3278 789,3278 790,3277 797,3277 798,3276 804,3276 805,3275 813,3275 814,3274 821,3274 822,3273 835,3273 836,3272 841,3272 842,3271 843,3271 845,3269 845,3267 846,3266 846,3263 847,3262 847,3251 846,3250 846,3245 845,3244 845,3240 844,3239 844,3215 843,3214 843,3204 842,3203 842,3192 841,3191 841,3179 840,3178 840,3168 839,3167 839,3155 838,3154 838,3139 837,3138 837,3135 836,3134 836,3133 835,3132 835,3131 834,3130 833,3130 831,3128 828,3128 827,3127" fill="rgba(170,28,35,0.3)" stroke="rgb(170,28,35)" stroke-width="2" data-block-id="0029" data-name="b-0075" /><text x="775" y="3203" text-anchor="middle" dominant-baseline="middle" class="block-label" fill="rgb(170,28,35)" stroke="white" stroke-width="3" paint-order="stroke">b-0075</text><polygon points="3127,232 3126,233 3113,233 3112,234 3076,234 3075,235 3063,235 3062,234 3042,234 3041,233 3013,233 3012,234 2984,234 2983,235 2941,235 2940,234 2936,234 2935,235 2925,235 2924,234 2910,234 2909,235 2813,235 2812,236 2776,236 2775,235 2730,235 2729,236 2686,236 2685,237 2680,237 2679,238 2658,238 2657,239 2647,239 2646,240 2641,240 2640,241 2638,241 2637,242 2635,242 2634,243 2627,243 2626,244 2612,244 2611,245 2606,245 2605,246 2599,246 2598,247 2590,247 2589,248 2573,248 2572,247 2563,247 2562,246 2554,246 2553,245 2545,245 2544,244 2536,244 2535,243 2523,243 2522,242 2512,242 2511,241 2493,241 2492,240 2483,240 2479,244 2479,245 2478,246 2478,371 2479,372 2479,380 2478,381 2478,395 2479,396 2479,409 2478,410 2478,416 2479,417 2479,437 2480,438 2480,487 2481,488 2481,542 2482,543 2482,561 2483,562 2483,564 2484,565 2484,566 2486,568 2487,568 2488,569 2491,569 2492,570 2498,570 2499,571 2510,571 2511,572 2530,572 2531,573 2544,573 2545,574 2553,574 2554,575 2569,575 2570,576 2577,576 2578,577 2600,577 2601,576 2612,576 2613,575 2629,575 2630,574 2654,574 2655,573 2661,573 2662,572 2676,572 2677,571 2686,571 2687,570 2806,570 2807,569 2858,569 2859,568 2907,568 2908,567 2923,567 2924,568 2951,568 2952,567 3015,567 3016,566 3025,566 3026,567 3052,567 3053,566 3092,566 3093,565 3119,565 3120,566 3134,566 3135,565 3141,565 3142,564 3143,564 3146,561 3146,560 3147,559 3147,556 3148,555 3148,548 3147,547 3147,490 3146,489 3146,466 3147,465 3147,452 3146,451 3146,427 3145,426 3145,385 3144,384 3144,340 3143,339 3143,284 3142,283 3142,248 3141,247 3141,241 3140,240 3140,239 3139,238 3139,237 3138,236 3137,236 3135,234 3134,234 3133,233 3130,233 3129,232" fill="rgba(241,249,8,0.3)" stroke="rgb(241,249,8)" stroke-width="2" data-block-id="0030" data-name="b-0026" /><text x="2789" y="392" text-anchor="middle" dominant-baseline="middle" class="block-label" fill="rgb(241,249,8)" stroke="white" stroke-width="3" paint-order="stroke">b-0026</text></g>
</svg>