<?xml version='1.0' encoding='utf-8'?>
<svg xmlns="http://www.w3.org/2000/svg" xmlns:atlas="http://example.com/atlas" width="4984" height="3248" viewBox="0 0 4984 3248">
  
  <metadata>
    <atlas:source>
      <atlas:jp2-path>/Users/pwright/workspace/atlas/media/v2/p42.jp2</atlas:jp2-path>
      <atlas:volume>unknown</atlas:volume>
      <atlas:plate-id>p42</atlas:plate-id>
      <atlas:image-width>4984</atlas:image-width>
      <atlas:image-height>3248</atlas:image-height>
    <atlas:angle>0.0</atlas:angle><atlas:scale>1.3333333333333333</atlas:scale><atlas:pos-x>1457.2657394268122</atlas:pos-x><atlas:pos-y>394.5489073436511</atlas:pos-y></atlas:source>
  </metadata>

  
  <image id="background" href="file:///Users/pwright/workspace/atlas/media/v2/p42.jp2" width="4984" height="3248" opacity="0.5" />

  <style>
    .block-label { font-family: sans-serif; font-size: 14px; font-weight: bold; }
  </style>

  
  <g id="blocks">
    <polygon points="864,2728 863,2729 851,2729 850,2730 848,2730 846,2732 846,2733 845,2734 845,2735 844,2736 844,2742 843,2743 843,2772 844,2773 844,2779 843,2780 843,2845 842,2846 842,2851 843,2852 843,2877 842,2878 842,2932 841,2933 841,2946 842,2947 842,2974 841,2975 841,2984 842,2985 842,2998 841,2999 841,3010 840,3011 840,3023 841,3024 841,3029 840,3030 840,3048 841,3049 841,3052 840,3053 840,3062 839,3063 839,3091 840,3092 840,3094 841,3095 841,3098 842,3099 842,3101 843,3102 843,3104 845,3106 845,3107 847,3109 848,3109 849,3110 856,3110 857,3111 890,3111 891,3112 907,3112 908,3113 931,3113 932,3114 957,3114 958,3113 976,3113 977,3112 982,3112 983,3113 986,3113 987,3114 990,3114 991,3115 996,3115 997,3114 1003,3114 1004,3113 1023,3113 1024,3112 1034,3112 1035,3113 1067,3113 1068,3112 1074,3112 1075,3111 1127,3111 1128,3112 1148,3112 1149,3111 1171,3111 1172,3110 1205,3110 1206,3111 1226,3111 1227,3112 1241,3112 1242,3113 1259,3113 1260,3112 1287,3112 1288,3111 1289,3111 1290,3112 1297,3112 1298,3113 1310,3113 1311,3112 1321,3112 1322,3111 1344,3111 1345,3112 1386,3112 1387,3113 1392,3113 1393,3114 1402,3114 1403,3113 1406,3113 1407,3112 1416,3112 1417,3113 1423,3113 1424,3112 1427,3112 1428,3111 1431,3111 1432,3110 1433,3110 1434,3111 1437,3111 1438,3112 1454,3112 1455,3111 1467,3111 1468,3112 1481,3112 1482,3113 1500,3113 1501,3112 1541,3112 1542,3111 1549,3111 1550,3110 1555,3110 1556,3111 1562,3111 1563,3112 1566,3112 1567,3111 1575,3111 1576,3110 1608,3110 1609,3111 1613,3111 1614,3110 1618,3110 1619,3109 1622,3109 1623,3108 1624,3108 1628,3104 1628,3103 1632,3099 1632,3095 1633,3094 1633,3086 1632,3085 1632,3082 1631,3081 1631,3071 1632,3070 1632,3069 1637,3064 1638,3064 1640,3062 1640,3060 1639,3059 1639,3057 1638,3056 1638,3055 1637,3054 1637,3053 1635,3051 1635,3050 1632,3047 1631,3047 1623,3039 1623,3035 1622,3034 1622,3031 1621,3030 1621,3028 1623,3026 1625,3026 1626,3025 1634,3025 1634,3017 1635,3016 1637,3016 1638,3015 1639,3015 1640,3014 1641,3014 1642,3013 1648,3013 1649,3012 1650,3013 1663,3013 1664,3014 1674,3014 1675,3015 1682,3015 1683,3014 1688,3014 1689,3013 1702,3013 1703,3014 1707,3014 1708,3015 1716,3015 1717,3016 1727,3016 1728,3017 1727,3018 1713,3018 1712,3019 1703,3019 1702,3020 1699,3020 1698,3021 1689,3021 1688,3020 1683,3020 1682,3019 1681,3019 1680,3020 1671,3020 1670,3021 1668,3021 1667,3022 1665,3022 1664,3023 1663,3023 1662,3024 1661,3024 1660,3025 1659,3025 1658,3026 1636,3026 1639,3026 1641,3028 1642,3028 1643,3029 1660,3029 1661,3030 1662,3030 1672,3040 1675,3040 1676,3039 1683,3039 1685,3041 1685,3051 1686,3052 1686,3056 1687,3057 1687,3061 1688,3062 1688,3065 1689,3066 1689,3068 1690,3069 1690,3070 1691,3071 1691,3072 1693,3074 1693,3075 1694,3076 1694,3084 1693,3085 1694,3086 1695,3086 1696,3087 1697,3087 1698,3086 1699,3086 1700,3085 1701,3085 1702,3084 1703,3084 1705,3082 1706,3083 1706,3084 1707,3085 1707,3086 1708,3086 1714,3092 1715,3092 1716,3093 1718,3093 1719,3094 1729,3094 1732,3097 1733,3097 1736,3100 1737,3100 1738,3101 1739,3101 1740,3102 1741,3102 1742,3103 1745,3103 1746,3104 1750,3104 1751,3105 1753,3105 1754,3106 1755,3106 1756,3107 1757,3107 1759,3109 1761,3109 1762,3110 1764,3110 1765,3111 1793,3111 1794,3110 1805,3110 1806,3111 1876,3111 1877,3110 1895,3110 1896,3111 1900,3111 1901,3112 1905,3112 1906,3113 1913,3113 1914,3114 1924,3114 1925,3113 1931,3113 1932,3112 1968,3112 1969,3111 1977,3111 1978,3110 2000,3110 2001,3111 2015,3111 2016,3110 2022,3110 2023,3109 2029,3109 2030,3108 2092,3108 2093,3107 2140,3107 2141,3108 2144,3108 2145,3109 2180,3109 2181,3108 2201,3108 2202,3107 2237,3107 2238,3108 2251,3108 2252,3107 2272,3107 2273,3106 2284,3106 2285,3107 2296,3107 2297,3106 2303,3106 2304,3105 2305,3105 2309,3101 2309,3100 2310,3099 2310,3096 2311,3095 2311,3091 2312,3090 2312,3068 2313,3067 2313,3010 2312,3009 2312,2973 2313,2972 2313,2961 2312,2960 2312,2916 2311,2915 2311,2892 2312,2891 2312,2819 2311,2818 2311,2807 2312,2806 2312,2793 2311,2792 2311,2788 2312,2787 2312,2757 2313,2756 2313,2754 2312,2753 2312,2748 2311,2747 2311,2743 2310,2742 2310,2740 2308,2738 2307,2738 2306,2737 2305,2737 2304,2736 2251,2736 2250,2735 2234,2735 2233,2736 2227,2736 2226,2735 2211,2735 2210,2736 2201,2736 2200,2735 2192,2735 2191,2736 2140,2736 2139,2737 2128,2737 2127,2736 2122,2736 2121,2737 2114,2737 2113,2738 2106,2738 2105,2737 2096,2737 2095,2738 2079,2738 2078,2737 2046,2737 2045,2738 2019,2738 2018,2739 2006,2739 2005,2738 1979,2738 1978,2737 1950,2737 1949,2738 1943,2738 1942,2737 1939,2737 1938,2736 1887,2736 1886,2735 1884,2735 1883,2736 1846,2736 1845,2735 1800,2735 1799,2734 1791,2734 1790,2733 1622,2733 1621,2734 1355,2734 1354,2733 1340,2733 1339,2734 1312,2734 1311,2733 1297,2733 1296,2732 1288,2732 1287,2733 1262,2733 1261,2732 1232,2732 1231,2733 1227,2733 1226,2732 1170,2732 1169,2731 1121,2731 1120,2730 1047,2730 1046,2729 948,2729 947,2728 942,2728 941,2729 931,2729 930,2728" fill="rgba(116,99,103,0.3)" stroke="rgb(116,99,103)" stroke-width="2" data-block-id="0001" data-name="b-0007" /><text x="1601" y="2994" text-anchor="middle" dominant-baseline="middle" class="block-label" fill="rgb(116,99,103)" stroke="white" stroke-width="3" paint-order="stroke">b-0007</text><polygon points="864,2243 863,2244 859,2244 858,2245 856,2245 855,2246 854,2246 853,2247 852,2247 849,2250 849,2251 848,2252 848,2271 849,2272 849,2280 848,2281 848,2284 847,2285 847,2303 848,2304 848,2309 849,2310 849,2350 848,2351 848,2377 849,2378 849,2389 848,2390 848,2396 847,2397 847,2399 848,2400 848,2413 847,2414 847,2422 848,2423 848,2426 849,2427 849,2428 850,2429 850,2436 849,2437 849,2439 848,2440 848,2442 847,2443 847,2464 848,2465 848,2478 847,2479 847,2487 846,2488 846,2500 847,2501 847,2504 846,2505 846,2514 845,2515 845,2519 846,2520 846,2531 845,2532 845,2582 844,2583 844,2587 845,2588 845,2590 846,2591 846,2592 847,2593 847,2594 848,2595 848,2597 849,2598 849,2602 850,2603 850,2609 852,2611 852,2612 853,2612 855,2614 856,2614 858,2616 859,2616 860,2617 886,2617 887,2618 915,2618 916,2619 935,2619 936,2620 938,2620 939,2621 942,2621 943,2622 946,2622 947,2623 951,2623 952,2624 963,2624 964,2623 968,2623 969,2622 972,2622 973,2621 977,2621 978,2620 991,2620 992,2619 998,2619 999,2620 1008,2620 1009,2619 1018,2619 1019,2620 1024,2620 1025,2621 1029,2621 1030,2622 1050,2622 1051,2623 1052,2622 1058,2622 1059,2621 1064,2621 1065,2620 1101,2620 1102,2619 1109,2619 1110,2618 1113,2618 1114,2619 1117,2619 1118,2620 1120,2620 1121,2621 1123,2621 1124,2622 1139,2622 1140,2623 1153,2623 1154,2622 1160,2622 1161,2621 1181,2621 1182,2620 1185,2620 1186,2621 1200,2621 1201,2620 1210,2620 1211,2621 1213,2621 1214,2622 1216,2622 1217,2623 1242,2623 1243,2622 1250,2622 1251,2621 1304,2621 1305,2622 1312,2622 1313,2623 1330,2623 1331,2622 1338,2622 1339,2621 1353,2621 1354,2620 1370,2620 1371,2621 1372,2621 1373,2620 1382,2620 1383,2619 1390,2619 1391,2620 1399,2620 1400,2621 1403,2621 1404,2622 1407,2622 1408,2623 1415,2623 1416,2622 1428,2622 1429,2621 1436,2621 1437,2622 1451,2622 1452,2621 1471,2621 1472,2620 1475,2620 1476,2619 1478,2619 1479,2618 1488,2618 1489,2619 1494,2619 1495,2620 1497,2620 1498,2621 1502,2621 1503,2622 1520,2622 1521,2621 1527,2621 1528,2620 1544,2620 1545,2619 1572,2619 1573,2620 1586,2620 1587,2619 1613,2619 1614,2620 1619,2620 1620,2621 1624,2621 1625,2622 1660,2622 1661,2621 1664,2621 1665,2620 1671,2620 1672,2619 1701,2619 1702,2620 1763,2620 1764,2619 1772,2619 1773,2620 1782,2620 1783,2619 1794,2619 1795,2620 1810,2620 1811,2619 1818,2619 1819,2620 1832,2620 1833,2619 1850,2619 1851,2620 1852,2619 1880,2619 1881,2618 1892,2618 1893,2619 1926,2619 1927,2620 1941,2620 1942,2621 1948,2621 1949,2620 1989,2620 1990,2621 2002,2621 2003,2622 2022,2622 2023,2621 2030,2621 2031,2622 2034,2622 2035,2623 2038,2623 2039,2624 2044,2624 2045,2625 2048,2625 2049,2626 2065,2626 2066,2625 2069,2625 2070,2624 2073,2624 2074,2623 2080,2623 2081,2624 2090,2624 2091,2623 2095,2623 2096,2622 2129,2622 2130,2623 2146,2623 2147,2622 2173,2622 2174,2623 2194,2623 2195,2624 2225,2624 2226,2623 2233,2623 2234,2622 2239,2622 2240,2621 2275,2621 2276,2620 2278,2620 2279,2621 2299,2621 2300,2620 2304,2620 2305,2619 2306,2619 2307,2618 2308,2618 2314,2612 2314,2594 2313,2593 2313,2579 2312,2578 2312,2573 2313,2572 2313,2530 2314,2529 2314,2521 2315,2520 2315,2472 2316,2471 2316,2465 2315,2464 2315,2456 2314,2455 2314,2442 2313,2441 2313,2436 2312,2435 2312,2430 2313,2429 2313,2426 2314,2425 2314,2422 2315,2421 2315,2416 2314,2415 2314,2402 2315,2401 2315,2390 2314,2389 2314,2382 2315,2381 2315,2377 2316,2376 2316,2342 2315,2341 2315,2335 2316,2334 2316,2330 2317,2329 2317,2309 2316,2308 2316,2285 2317,2284 2317,2269 2316,2268 2316,2264 2315,2263 2315,2260 2314,2259 2314,2256 2313,2255 2313,2254 2312,2253 2312,2252 2311,2252 2310,2251 2307,2251 2306,2250 2236,2250 2235,2249 2200,2249 2199,2250 2185,2250 2184,2249 2155,2249 2154,2248 2146,2248 2145,2249 2132,2249 2131,2250 2125,2250 2124,2251 2122,2251 2121,2250 2116,2250 2115,2249 2095,2249 2094,2250 2064,2250 2063,2249 2049,2249 2048,2250 1997,2250 1996,2251 1927,2251 1926,2250 1874,2250 1873,2249 1866,2249 1865,2248 1820,2248 1819,2247 1813,2247 1812,2248 1806,2248 1805,2249 1796,2249 1795,2248 1774,2248 1773,2247 1764,2247 1763,2248 1756,2248 1755,2249 1752,2249 1751,2248 1740,2248 1739,2247 1724,2247 1723,2246 1712,2246 1711,2247 1705,2247 1704,2246 1666,2246 1665,2247 1652,2247 1651,2246 1628,2246 1627,2245 1622,2245 1621,2246 1616,2246 1615,2247 1608,2247 1607,2246 1582,2246 1581,2245 1574,2245 1573,2246 1568,2246 1567,2247 1561,2247 1560,2246 1531,2246 1530,2245 1529,2246 1522,2246 1521,2247 1511,2247 1510,2246 1498,2246 1497,2247 1489,2247 1488,2246 1471,2246 1470,2247 1467,2247 1466,2246 1453,2246 1452,2245 1426,2245 1425,2246 1417,2246 1416,2245 1407,2245 1406,2244 1390,2244 1389,2243 1387,2243 1386,2244 1383,2244 1382,2245 1379,2245 1378,2246 1369,2246 1368,2245 1358,2245 1357,2246 1355,2246 1354,2247 1353,2247 1352,2248 1346,2248 1345,2247 1341,2247 1340,2246 1336,2246 1335,2247 1326,2247 1325,2248 1310,2248 1309,2247 1278,2247 1277,2248 1275,2248 1274,2249 1273,2249 1272,2250 1271,2250 1268,2253 1267,2253 1266,2254 1264,2254 1262,2252 1260,2252 1259,2251 1258,2251 1257,2250 1245,2250 1244,2249 1240,2249 1239,2248 1236,2248 1235,2247 1210,2247 1209,2248 1206,2248 1205,2247 1169,2247 1168,2248 1164,2248 1163,2249 1151,2249 1150,2248 1138,2248 1137,2247 1107,2247 1106,2248 1021,2248 1020,2247 996,2247 995,2246 951,2246 950,2245 942,2245 941,2246 930,2246 929,2245 923,2245 922,2244 917,2244 916,2245 908,2245 907,2244 900,2244 899,2243 896,2243 895,2244 876,2244 875,2243" fill="rgba(151,130,149,0.3)" stroke="rgb(151,130,149)" stroke-width="2" data-block-id="0002" data-name="b-0008" /><text x="1508" y="2444" text-anchor="middle" dominant-baseline="middle" class="block-label" fill="rgb(151,130,149)" stroke="white" stroke-width="3" paint-order="stroke">b-0008</text><polygon points="860,1756 859,1757 858,1757 857,1758 856,1758 852,1762 852,1763 850,1765 850,1768 849,1769 849,1776 850,1777 849,1778 849,1792 848,1793 848,1796 847,1797 847,1800 846,1801 846,1804 847,1805 847,1815 848,1816 848,1858 847,1859 847,1887 848,1888 848,1907 847,1908 847,1910 848,1911 848,1919 849,1920 849,1943 850,1944 850,1969 851,1970 851,1991 852,1992 851,1993 851,2011 850,2012 850,2024 851,2025 851,2049 850,2050 850,2059 851,2060 851,2114 852,2115 852,2119 853,2120 853,2125 854,2126 854,2127 855,2128 855,2129 856,2130 857,2130 858,2131 859,2131 860,2132 866,2132 867,2133 886,2133 887,2134 916,2134 917,2133 927,2133 928,2134 961,2134 962,2135 988,2135 989,2136 995,2136 996,2137 999,2137 1000,2138 1004,2138 1005,2139 1022,2139 1023,2138 1026,2138 1027,2137 1042,2137 1043,2136 1064,2136 1065,2137 1091,2137 1092,2136 1097,2136 1098,2135 1107,2135 1108,2136 1116,2136 1117,2135 1141,2135 1142,2136 1196,2136 1197,2135 1201,2135 1202,2134 1209,2134 1211,2136 1212,2136 1213,2137 1214,2137 1215,2138 1217,2138 1218,2139 1250,2139 1251,2138 1260,2138 1261,2139 1270,2139 1271,2138 1313,2138 1314,2137 1315,2137 1316,2138 1332,2138 1333,2139 1358,2139 1359,2140 1371,2140 1372,2139 1376,2139 1377,2140 1394,2140 1395,2139 1491,2139 1492,2140 1505,2140 1506,2141 1522,2141 1523,2140 1539,2140 1540,2141 1570,2141 1571,2140 1585,2140 1586,2141 1590,2141 1591,2140 1624,2140 1625,2141 1657,2141 1658,2140 1690,2140 1691,2141 1735,2141 1736,2142 1747,2142 1748,2141 1766,2141 1767,2142 1798,2142 1799,2141 1805,2141 1806,2142 1826,2142 1827,2143 1839,2143 1840,2142 1843,2142 1844,2141 1847,2141 1848,2140 1855,2140 1856,2139 1866,2139 1867,2140 1871,2140 1872,2141 1879,2141 1880,2142 1901,2142 1902,2143 1950,2143 1951,2142 1977,2142 1978,2143 1980,2143 1981,2142 1986,2142 1987,2141 1990,2141 1991,2140 1999,2140 2000,2141 2033,2141 2034,2140 2072,2140 2073,2141 2082,2141 2083,2140 2089,2140 2090,2141 2099,2141 2100,2142 2102,2142 2103,2141 2119,2141 2120,2142 2125,2142 2126,2141 2141,2141 2142,2142 2151,2142 2152,2141 2179,2141 2180,2140 2185,2140 2186,2141 2303,2141 2304,2140 2307,2140 2308,2139 2311,2139 2312,2138 2313,2138 2316,2135 2316,2131 2317,2130 2317,2117 2318,2116 2318,2113 2317,2112 2317,2100 2316,2099 2316,2070 2317,2069 2317,2047 2318,2046 2318,2022 2319,2021 2319,2016 2320,2015 2319,2014 2319,2007 2318,2006 2318,2001 2317,2000 2317,1990 2316,1989 2316,1976 2317,1975 2317,1962 2316,1961 2316,1956 2317,1955 2317,1927 2318,1926 2318,1915 2317,1914 2317,1882 2318,1881 2318,1877 2319,1876 2319,1861 2318,1860 2318,1835 2319,1834 2319,1831 2320,1830 2320,1829 2321,1828 2321,1822 2320,1821 2320,1818 2319,1817 2319,1814 2318,1813 2318,1780 2317,1779 2317,1776 2316,1775 2316,1774 2313,1771 2312,1771 2311,1770 2308,1770 2307,1769 2302,1769 2301,1768 2284,1768 2283,1769 2270,1769 2269,1768 2251,1768 2250,1767 2231,1767 2230,1766 2216,1766 2215,1767 2208,1767 2207,1768 2197,1768 2196,1767 2190,1767 2189,1766 2155,1766 2154,1765 2146,1765 2145,1766 2143,1766 2142,1767 2140,1767 2139,1768 2138,1768 2136,1770 2135,1770 2133,1772 2131,1772 2130,1773 2127,1773 2126,1774 2121,1774 2120,1775 2116,1775 2115,1776 2112,1776 2111,1777 2070,1777 2069,1776 2041,1776 2040,1775 1979,1775 1978,1776 1948,1776 1947,1775 1927,1775 1926,1776 1893,1776 1892,1775 1881,1775 1880,1776 1854,1776 1853,1775 1822,1775 1821,1774 1804,1774 1803,1773 1790,1773 1789,1774 1745,1774 1744,1773 1727,1773 1726,1774 1717,1774 1716,1773 1670,1773 1669,1772 1624,1772 1623,1771 1579,1771 1578,1772 1567,1772 1566,1771 1520,1771 1519,1770 1501,1770 1500,1769 1467,1769 1466,1768 1450,1768 1449,1767 1443,1767 1442,1766 1437,1766 1436,1765 1411,1765 1410,1764 1357,1764 1356,1763 1350,1763 1349,1762 1346,1762 1345,1761 1340,1761 1339,1760 1295,1760 1294,1761 1275,1761 1274,1762 1270,1762 1269,1763 1266,1763 1265,1764 1261,1764 1260,1765 1256,1765 1255,1766 1253,1766 1252,1765 1234,1765 1233,1766 1220,1766 1219,1767 1202,1767 1201,1768 1191,1768 1190,1767 1183,1767 1182,1766 1169,1766 1168,1767 1142,1767 1141,1766 1121,1766 1120,1765 1051,1765 1050,1764 1045,1764 1044,1763 1030,1763 1029,1762 1026,1762 1025,1761 1023,1761 1022,1760 1020,1760 1019,1759 984,1759 983,1760 982,1759 975,1759 974,1758 954,1758 953,1757 937,1757 936,1758 933,1758 932,1757 879,1757 878,1756" fill="rgba(52,1,87,0.3)" stroke="rgb(52,1,87)" stroke-width="2" data-block-id="0003" data-name="b-0009" /><text x="1588" y="1949" text-anchor="middle" dominant-baseline="middle" class="block-label" fill="rgb(52,1,87)" stroke="white" stroke-width="3" paint-order="stroke">b-0009</text><polygon points="895,710 894,711 878,711 877,712 871,712 870,713 868,713 865,716 865,717 864,718 864,727 863,728 863,735 864,736 864,753 863,754 863,758 864,759 864,770 863,771 863,787 864,788 864,794 863,795 863,810 864,811 864,817 863,818 863,832 864,833 864,854 863,855 863,872 862,873 862,876 863,877 863,893 862,894 862,905 863,906 863,912 862,913 862,937 861,938 861,985 860,986 860,1045 859,1046 859,1066 860,1067 860,1073 861,1074 861,1089 862,1090 862,1091 863,1092 864,1092 865,1093 867,1093 868,1094 871,1094 872,1095 878,1095 879,1094 884,1094 885,1093 887,1093 888,1092 889,1092 890,1091 891,1091 896,1086 897,1086 898,1085 904,1085 905,1086 919,1086 920,1087 921,1087 922,1086 932,1086 933,1085 935,1085 936,1086 946,1086 947,1087 962,1087 963,1086 972,1086 973,1085 990,1085 991,1086 997,1086 998,1087 1001,1087 1002,1088 1005,1088 1006,1089 1057,1089 1058,1090 1070,1090 1071,1089 1082,1089 1083,1090 1090,1090 1091,1091 1102,1091 1103,1092 1115,1092 1116,1091 1119,1091 1120,1090 1124,1090 1125,1089 1126,1090 1154,1090 1155,1091 1162,1091 1163,1090 1168,1090 1169,1089 1174,1089 1175,1090 1180,1090 1181,1091 1196,1091 1197,1090 1198,1091 1207,1091 1208,1090 1212,1090 1213,1089 1216,1089 1217,1088 1225,1088 1226,1089 1248,1089 1249,1090 1265,1090 1266,1091 1283,1091 1284,1090 1307,1090 1308,1089 1327,1089 1328,1090 1353,1090 1354,1089 1359,1089 1360,1088 1369,1088 1370,1089 1411,1089 1412,1090 1440,1090 1441,1091 1446,1091 1447,1092 1511,1092 1512,1093 1522,1093 1523,1094 1530,1094 1531,1093 1540,1093 1541,1092 1544,1092 1545,1091 1548,1091 1549,1090 1595,1090 1596,1091 1612,1091 1613,1092 1620,1092 1621,1093 1626,1093 1627,1092 1633,1092 1634,1091 1637,1091 1638,1092 1640,1092 1641,1093 1643,1093 1644,1094 1647,1094 1648,1095 1668,1095 1669,1094 1674,1094 1675,1093 1679,1093 1680,1092 1689,1092 1690,1093 1701,1093 1702,1092 1727,1092 1728,1091 1757,1091 1758,1092 1774,1092 1775,1091 1806,1091 1807,1092 1854,1092 1855,1093 1864,1093 1865,1094 1870,1094 1871,1095 1958,1095 1959,1096 1988,1096 1989,1095 2001,1095 2002,1094 2009,1094 2010,1093 2097,1093 2098,1094 2114,1094 2115,1093 2129,1093 2130,1092 2137,1092 2138,1093 2141,1093 2142,1094 2147,1094 2148,1095 2151,1095 2152,1094 2166,1094 2167,1095 2175,1095 2176,1094 2185,1094 2186,1095 2195,1095 2196,1096 2197,1095 2213,1095 2214,1096 2221,1096 2222,1095 2236,1095 2237,1096 2309,1096 2310,1095 2315,1095 2316,1094 2317,1094 2318,1093 2319,1093 2322,1090 2322,1089 2323,1088 2323,1058 2322,1057 2322,1046 2323,1045 2323,1038 2322,1037 2322,1021 2323,1020 2323,999 2324,998 2324,986 2325,985 2325,982 2324,981 2324,927 2323,926 2323,922 2324,921 2324,917 2325,916 2325,910 2326,909 2326,893 2325,892 2325,881 2326,880 2326,857 2327,856 2327,851 2328,850 2328,834 2327,833 2327,828 2326,827 2326,824 2327,823 2327,812 2326,811 2326,777 2327,776 2327,759 2326,758 2326,743 2325,742 2325,738 2324,737 2324,733 2323,733 2321,731 2319,731 2318,730 2313,730 2312,729 2307,729 2306,728 2302,728 2301,727 2295,727 2294,728 2290,728 2289,727 2228,727 2227,726 2152,726 2151,725 2130,725 2129,726 2116,726 2115,727 2108,727 2107,726 2095,726 2094,725 2082,725 2081,724 2073,724 2072,725 2068,725 2067,726 2053,726 2052,725 2042,725 2041,724 2023,724 2022,723 2003,723 2002,724 1973,724 1972,725 1951,725 1950,724 1940,724 1939,723 1927,723 1926,724 1915,724 1914,723 1904,723 1903,724 1874,724 1873,725 1847,725 1846,724 1807,724 1806,723 1795,723 1794,722 1788,722 1787,723 1763,723 1762,724 1723,724 1722,723 1665,723 1664,722 1634,722 1633,723 1593,723 1592,722 1554,722 1553,721 1544,721 1543,720 1530,720 1529,721 1517,721 1516,722 1508,722 1507,723 1503,723 1502,722 1497,722 1496,721 1462,721 1461,722 1457,722 1456,721 1449,721 1448,720 1405,720 1404,719 1400,719 1399,718 1394,718 1393,719 1378,719 1377,718 1363,718 1362,717 1361,717 1360,716 1359,716 1358,715 1357,715 1356,714 1354,714 1353,713 1346,713 1345,714 1340,714 1339,715 1334,715 1333,714 1310,714 1309,713 1271,713 1270,714 1260,714 1259,713 1252,713 1251,714 1214,714 1213,713 1189,713 1188,712 1183,712 1182,713 1174,713 1173,714 1170,714 1169,713 1117,713 1116,712 1108,712 1107,711 1086,711 1085,712 1071,712 1070,711 1037,711 1036,712 1025,712 1024,711 1007,711 1006,712 973,712 972,711 949,711 948,710 944,710 943,711 937,711 936,712 930,712 929,711 900,711 899,710" fill="rgba(235,157,37,0.3)" stroke="rgb(235,157,37)" stroke-width="2" data-block-id="0004" data-name="b-0010" /><text x="1539" y="915" text-anchor="middle" dominant-baseline="middle" class="block-label" fill="rgb(235,157,37)" stroke="white" stroke-width="3" paint-order="stroke">b-0010</text><polygon points="870,1277 869,1278 863,1278 861,1280 861,1281 860,1282 860,1285 859,1286 859,1291 858,1292 858,1301 857,1302 857,1347 856,1348 856,1355 857,1356 857,1365 856,1366 856,1381 857,1382 857,1392 856,1393 856,1427 857,1428 857,1439 856,1440 856,1466 855,1467 855,1509 854,1510 854,1520 855,1521 855,1533 854,1534 854,1546 853,1547 853,1553 854,1554 854,1563 855,1564 855,1585 854,1586 854,1603 855,1604 855,1626 856,1627 856,1634 857,1635 857,1638 858,1639 858,1640 859,1641 859,1642 862,1645 863,1645 864,1646 872,1646 873,1647 879,1647 880,1646 888,1646 889,1647 903,1647 904,1646 912,1646 913,1647 919,1647 920,1648 937,1648 938,1649 947,1649 948,1648 949,1648 950,1647 952,1647 953,1646 955,1646 956,1645 974,1645 975,1646 980,1646 981,1647 984,1647 985,1648 989,1648 990,1649 1003,1649 1004,1648 1053,1648 1054,1647 1079,1647 1080,1648 1092,1648 1093,1647 1097,1647 1098,1646 1102,1646 1103,1647 1104,1647 1105,1648 1106,1648 1107,1649 1108,1649 1109,1650 1110,1650 1111,1651 1116,1651 1117,1650 1138,1650 1139,1649 1144,1649 1145,1648 1155,1648 1156,1647 1162,1647 1163,1648 1171,1648 1172,1649 1188,1649 1189,1648 1248,1648 1249,1647 1257,1647 1258,1648 1264,1648 1265,1649 1289,1649 1290,1648 1305,1648 1306,1649 1317,1649 1318,1650 1353,1650 1354,1651 1358,1651 1359,1652 1361,1652 1362,1653 1367,1653 1368,1654 1375,1654 1376,1653 1380,1653 1381,1652 1383,1652 1384,1651 1390,1651 1391,1652 1396,1652 1397,1653 1400,1653 1401,1654 1405,1654 1406,1655 1415,1655 1416,1654 1428,1654 1429,1653 1436,1653 1437,1652 1478,1652 1479,1651 1575,1651 1576,1650 1611,1650 1612,1651 1618,1651 1619,1652 1629,1652 1630,1651 1639,1651 1640,1652 1641,1652 1642,1653 1644,1653 1646,1655 1664,1655 1665,1656 1668,1656 1669,1657 1688,1657 1689,1658 1698,1658 1699,1657 1700,1657 1701,1656 1702,1656 1703,1655 1704,1655 1705,1654 1710,1654 1711,1655 1713,1655 1714,1656 1715,1656 1716,1657 1719,1657 1720,1658 1722,1658 1723,1657 1736,1657 1737,1658 1747,1658 1748,1657 1763,1657 1764,1658 1768,1658 1769,1657 1778,1657 1779,1656 1806,1656 1807,1657 1809,1657 1810,1658 1817,1658 1818,1657 1820,1657 1821,1656 1824,1656 1825,1655 1827,1655 1828,1656 1831,1656 1832,1657 1834,1657 1835,1658 1845,1658 1846,1657 1856,1657 1857,1658 1880,1658 1881,1659 1893,1659 1894,1658 1906,1658 1907,1659 1940,1659 1941,1658 1946,1658 1947,1659 1951,1659 1952,1660 1957,1660 1958,1661 1959,1661 1960,1660 1972,1660 1973,1661 1988,1661 1989,1660 2013,1660 2014,1659 2036,1659 2037,1658 2047,1658 2048,1659 2055,1659 2056,1658 2081,1658 2082,1657 2092,1657 2093,1658 2100,1658 2101,1659 2102,1658 2126,1658 2127,1657 2133,1657 2134,1656 2135,1657 2141,1657 2142,1658 2158,1658 2159,1657 2161,1657 2162,1658 2174,1658 2175,1657 2188,1657 2189,1658 2218,1658 2219,1657 2227,1657 2228,1656 2232,1656 2233,1657 2238,1657 2239,1658 2249,1658 2250,1657 2272,1657 2273,1656 2279,1656 2280,1657 2284,1657 2285,1658 2301,1658 2302,1657 2304,1657 2305,1656 2307,1656 2308,1655 2309,1655 2311,1653 2312,1653 2315,1650 2315,1649 2316,1648 2316,1647 2317,1646 2317,1644 2318,1643 2318,1638 2319,1637 2319,1631 2318,1630 2318,1607 2317,1606 2317,1599 2318,1598 2318,1592 2319,1591 2319,1577 2318,1576 2318,1562 2317,1561 2317,1549 2318,1548 2318,1503 2319,1502 2319,1498 2320,1497 2320,1488 2319,1487 2319,1482 2318,1481 2318,1446 2317,1445 2317,1428 2316,1427 2316,1407 2317,1406 2317,1401 2318,1400 2318,1394 2319,1393 2319,1387 2320,1386 2320,1384 2321,1383 2321,1382 2323,1380 2323,1379 2324,1378 2324,1377 2325,1376 2325,1375 2326,1374 2326,1372 2325,1371 2325,1367 2324,1366 2324,1355 2323,1354 2323,1346 2322,1345 2322,1341 2321,1340 2321,1325 2320,1324 2320,1320 2319,1319 2319,1300 2318,1299 2318,1295 2317,1294 2317,1292 2316,1291 2316,1290 2314,1288 2313,1288 2311,1286 2310,1286 2309,1285 2308,1285 2307,1284 2305,1284 2304,1283 2301,1283 2300,1282 2286,1282 2285,1283 2246,1283 2245,1282 2242,1282 2241,1283 2217,1283 2216,1284 2144,1284 2143,1285 2091,1285 2090,1286 2082,1286 2081,1285 2030,1285 2029,1284 1997,1284 1996,1285 1988,1285 1987,1284 1946,1284 1945,1283 1914,1283 1913,1282 1902,1282 1901,1283 1896,1283 1895,1282 1892,1282 1891,1281 1890,1281 1889,1280 1886,1280 1885,1279 1883,1279 1882,1280 1878,1280 1877,1281 1857,1281 1856,1282 1850,1282 1849,1283 1848,1283 1847,1282 1835,1282 1834,1283 1831,1283 1830,1284 1822,1284 1821,1283 1818,1283 1817,1282 1810,1282 1809,1283 1806,1283 1805,1284 1795,1284 1794,1283 1789,1283 1788,1282 1785,1282 1784,1281 1782,1281 1781,1280 1775,1280 1774,1281 1771,1281 1770,1282 1766,1282 1765,1283 1748,1283 1747,1282 1744,1282 1743,1283 1739,1283 1738,1284 1735,1284 1734,1285 1728,1285 1727,1284 1723,1284 1722,1283 1711,1283 1710,1284 1702,1284 1701,1283 1669,1283 1668,1284 1653,1284 1652,1283 1646,1283 1645,1284 1641,1284 1640,1285 1637,1285 1636,1286 1633,1286 1632,1285 1598,1285 1597,1284 1595,1284 1594,1283 1593,1283 1592,1282 1591,1282 1590,1281 1588,1281 1587,1280 1582,1280 1581,1279 1559,1279 1558,1280 1550,1280 1549,1279 1497,1279 1496,1278 1485,1278 1484,1279 1475,1279 1474,1278 1465,1278 1464,1279 1430,1279 1429,1278 1404,1278 1403,1277 1394,1277 1393,1278 1382,1278 1381,1277 1365,1277 1364,1278 1359,1278 1358,1279 1357,1279 1356,1280 1355,1280 1350,1285 1349,1285 1348,1286 1345,1286 1344,1285 1334,1285 1333,1284 1327,1284 1326,1283 1262,1283 1261,1282 1256,1282 1255,1281 1210,1281 1209,1280 1205,1280 1204,1281 1131,1281 1130,1282 1119,1282 1118,1281 1112,1281 1111,1280 1109,1280 1108,1281 1097,1281 1096,1280 1069,1280 1068,1279 1045,1279 1044,1278 1040,1278 1039,1279 1034,1279 1033,1280 1023,1280 1022,1279 997,1279 996,1280 978,1280 977,1279 971,1279 970,1278 959,1278 958,1279 931,1279 930,1278 918,1278 917,1277" fill="rgba(129,191,187,0.3)" stroke="rgb(129,191,187)" stroke-width="2" data-block-id="0005" data-name="b-0011" /><text x="1631" y="1482" text-anchor="middle" dominant-baseline="middle" class="block-label" fill="rgb(129,191,187)" stroke="white" stroke-width="3" paint-order="stroke">b-0011</text><polygon points="941,216 940,217 918,217 917,218 904,218 903,219 879,219 878,218 875,218 874,219 872,219 867,224 867,225 866,226 866,227 865,228 865,231 864,232 864,234 863,235 863,237 862,238 862,240 861,241 861,242 860,243 860,248 859,249 859,257 860,258 860,260 861,261 861,262 862,263 862,265 863,266 863,287 864,288 864,293 863,294 863,300 862,301 862,302 863,303 863,307 864,308 864,311 865,312 865,336 866,337 866,342 865,343 865,364 864,365 864,367 863,368 863,370 862,371 862,372 861,373 861,382 862,383 862,390 861,391 861,399 862,400 862,402 863,403 863,404 864,405 864,406 865,407 865,408 866,409 866,416 865,417 865,431 864,432 864,443 863,444 863,446 864,447 864,454 865,455 865,476 866,477 866,498 865,499 865,520 866,521 866,573 867,574 867,577 868,578 868,581 869,582 869,584 870,585 870,587 872,589 872,590 874,590 875,591 879,591 880,592 885,592 886,593 910,593 911,594 924,594 925,593 969,593 970,594 974,594 975,595 978,595 979,596 993,596 994,595 1001,595 1002,594 1010,594 1011,595 1062,595 1063,596 1064,595 1099,595 1100,596 1119,596 1120,597 1125,597 1126,596 1131,596 1132,595 1138,595 1139,594 1167,594 1168,595 1196,595 1197,594 1245,594 1246,595 1319,595 1320,594 1359,594 1360,595 1369,595 1370,596 1392,596 1393,595 1428,595 1429,594 1448,594 1449,595 1476,595 1477,596 1487,596 1488,595 1496,595 1497,596 1571,596 1572,597 1591,597 1592,598 1599,598 1600,599 1606,599 1607,600 1613,600 1614,601 1620,601 1621,602 1626,602 1627,601 1632,601 1633,600 1640,600 1641,599 1685,599 1686,600 1693,600 1694,601 1709,601 1710,602 1723,602 1724,601 1738,601 1739,602 1762,602 1763,603 1765,603 1766,602 1799,602 1800,601 1848,601 1849,602 1902,602 1903,603 1917,603 1918,602 1921,602 1922,603 1934,603 1935,604 1949,604 1950,605 1964,605 1965,604 1973,604 1974,605 2001,605 2002,606 2024,606 2025,605 2032,605 2033,606 2086,606 2087,607 2094,607 2095,606 2099,606 2100,607 2139,607 2140,608 2154,608 2155,609 2177,609 2178,610 2212,610 2213,609 2229,609 2230,610 2297,610 2298,611 2304,611 2305,610 2313,610 2314,609 2321,609 2322,608 2325,608 2327,606 2328,606 2329,605 2329,604 2331,602 2331,573 2330,572 2330,569 2329,568 2329,564 2328,563 2329,562 2329,554 2328,553 2328,551 2324,547 2323,547 2322,546 2321,546 2320,545 2319,545 2318,544 2316,544 2315,543 2314,543 2313,542 2312,542 2310,540 2309,540 2306,537 2305,537 2303,535 2302,535 2300,533 2299,533 2297,531 2296,531 2295,530 2294,530 2293,529 2292,529 2291,528 2290,528 2289,527 2288,527 2287,526 2286,526 2285,525 2284,525 2283,524 2282,524 2281,523 2279,523 2278,522 2276,522 2275,521 2273,521 2272,520 2270,520 2269,519 2268,519 2267,518 2266,518 2265,517 2264,517 2263,516 2262,516 2260,514 2259,514 2256,511 2255,511 2253,509 2251,509 2249,507 2248,507 2247,506 2246,506 2245,505 2244,505 2243,504 2242,504 2238,500 2237,500 2230,493 2230,492 2227,489 2226,489 2225,488 2224,488 2223,487 2221,487 2220,486 2219,486 2218,485 2217,485 2215,483 2214,483 2209,478 2208,478 2206,476 2205,476 2204,475 2202,475 2201,474 2198,474 2197,473 2195,473 2194,472 2192,472 2189,469 2188,469 2187,468 2187,467 2185,465 2185,464 2181,460 2181,459 2179,457 2178,457 2176,455 2174,455 2173,454 2172,454 2171,453 2170,453 2167,450 2166,450 2158,442 2158,441 2157,441 2153,437 2152,437 2150,435 2149,435 2147,433 2146,433 2143,430 2142,430 2140,428 2139,428 2138,427 2137,427 2136,426 2135,426 2134,425 2133,425 2131,423 2130,423 2121,414 2121,413 2120,412 2120,411 2119,410 2119,409 2117,407 2117,406 2114,403 2114,402 2112,400 2112,399 2109,396 2109,395 2100,386 2100,385 2097,382 2097,381 2096,380 2096,379 2095,378 2095,377 2093,375 2093,374 2092,373 2092,371 2091,370 2091,369 2090,368 2090,366 2089,365 2089,364 2088,363 2088,362 2086,360 2086,359 2084,357 2084,356 2082,354 2082,353 2081,352 2081,351 2079,349 2079,348 2078,347 2078,346 2076,344 2076,343 2074,341 2074,340 2073,339 2073,337 2072,336 2072,335 2071,334 2071,332 2070,331 2070,330 2069,329 2069,328 2068,327 2068,325 2067,324 2067,321 2066,320 2066,316 2065,315 2065,313 2064,312 2064,311 2062,309 2062,308 2059,305 2059,304 2058,303 2058,301 2057,300 2057,297 2056,296 2056,294 2055,293 2055,292 2053,290 2053,289 2052,288 2052,287 2051,286 2051,284 2050,283 2050,280 2049,279 2049,276 2048,275 2048,272 2047,271 2047,268 2046,267 2046,264 2045,263 2045,261 2044,260 2044,258 2043,257 2043,254 2042,253 2042,251 2041,250 2041,248 2040,247 2040,245 2038,243 2038,242 2037,241 2036,241 2034,239 2033,239 2032,238 2031,238 2030,237 2026,237 2025,236 2000,236 1999,237 1987,237 1986,236 1963,236 1962,235 1951,235 1950,236 1938,236 1937,235 1876,235 1875,234 1841,234 1840,233 1820,233 1819,232 1812,232 1811,233 1808,233 1807,234 1794,234 1793,233 1781,233 1780,234 1779,234 1778,233 1746,233 1745,232 1738,232 1737,233 1723,233 1722,232 1715,232 1714,233 1704,233 1703,232 1689,232 1688,233 1677,233 1676,232 1666,232 1665,233 1655,233 1654,232 1651,232 1650,231 1648,231 1647,230 1646,230 1643,227 1642,227 1637,222 1630,222 1629,223 1625,223 1624,224 1621,224 1620,225 1618,225 1617,226 1615,226 1614,227 1611,227 1610,228 1609,227 1595,227 1594,228 1586,228 1585,227 1584,227 1583,226 1582,226 1581,225 1579,225 1578,224 1574,224 1573,225 1572,225 1571,226 1570,226 1569,227 1568,227 1567,228 1566,228 1565,229 1563,229 1562,228 1560,228 1559,227 1557,227 1556,226 1545,226 1544,227 1538,227 1537,226 1530,226 1529,225 1500,225 1499,224 1496,224 1495,223 1488,223 1487,224 1477,224 1476,225 1469,225 1468,226 1465,226 1464,227 1458,227 1457,228 1448,228 1447,229 1428,229 1427,228 1410,228 1409,227 1406,227 1405,226 1401,226 1400,225 1393,225 1392,226 1387,226 1386,227 1382,227 1381,228 1377,228 1376,229 1327,229 1326,228 1307,228 1306,227 1300,227 1299,228 1287,228 1286,229 1234,229 1233,228 1222,228 1221,227 1192,227 1191,228 1186,228 1185,229 1177,229 1176,228 1168,228 1167,229 1155,229 1154,228 1142,228 1141,227 1120,227 1119,226 1095,226 1094,227 1089,227 1088,228 1085,228 1084,227 1076,227 1075,226 1072,226 1071,225 1068,225 1067,224 1061,224 1060,225 1058,225 1057,226 1056,226 1055,227 1054,227 1053,228 1051,228 1049,226 1048,226 1044,222 1043,222 1041,220 1040,220 1039,219 1036,219 1035,218 1023,218 1022,217 999,217 998,216 991,216 990,217 987,217 986,218 966,218 965,217 960,217 959,216" fill="rgba(20,160,203,0.3)" stroke="rgb(20,160,203)" stroke-width="2" data-block-id="0006" data-name="b-0012" /><text x="1665" y="392" text-anchor="middle" dominant-baseline="middle" class="block-label" fill="rgb(20,160,203)" stroke="white" stroke-width="3" paint-order="stroke">b-0012</text><polygon points="3111,258 3110,259 3070,259 3069,260 3029,260 3028,259 3024,259 3023,260 2922,260 2921,261 2917,261 2916,260 2823,260 2822,259 2799,259 2798,260 2796,260 2795,261 2794,261 2793,262 2792,262 2791,263 2790,263 2788,265 2788,266 2787,267 2787,268 2786,269 2786,272 2785,273 2785,276 2784,277 2784,278 2783,279 2783,281 2782,282 2782,284 2781,285 2781,286 2780,287 2780,289 2779,290 2779,292 2778,293 2778,295 2777,296 2777,299 2776,300 2776,302 2775,303 2775,305 2774,306 2774,307 2773,308 2773,309 2772,310 2772,311 2771,312 2771,313 2770,314 2770,315 2769,316 2769,319 2768,320 2768,322 2767,323 2767,324 2766,325 2766,326 2762,330 2762,331 2759,334 2759,335 2758,336 2758,337 2757,338 2757,349 2758,350 2758,353 2759,354 2759,355 2760,356 2760,358 2761,359 2761,361 2762,362 2762,363 2764,365 2764,366 2765,367 2765,368 2766,369 2766,370 2767,371 2767,373 2768,374 2768,375 2769,376 2769,378 2770,379 2770,381 2771,382 2771,383 2772,384 2772,386 2773,387 2773,389 2774,390 2774,392 2775,393 2775,395 2776,396 2776,397 2777,398 2777,400 2778,401 2778,402 2779,403 2779,404 2780,405 2780,406 2781,407 2781,408 2782,409 2782,411 2783,412 2783,414 2784,415 2784,417 2785,418 2785,419 2786,420 2786,421 2787,422 2787,423 2788,424 2788,425 2790,427 2790,428 2791,429 2791,431 2792,432 2792,434 2793,435 2793,437 2794,438 2794,441 2795,442 2795,444 2796,445 2796,448 2797,449 2797,451 2798,452 2798,454 2799,455 2799,457 2800,458 2800,462 2801,463 2801,467 2802,468 2802,470 2803,471 2803,472 2804,473 2804,474 2806,476 2806,477 2808,479 2808,480 2809,481 2809,482 2810,483 2810,484 2811,485 2811,486 2813,488 2813,489 2814,490 2814,491 2815,492 2815,494 2816,495 2816,497 2817,498 2817,501 2818,502 2818,505 2819,506 2819,508 2820,509 2820,511 2821,512 2821,513 2822,514 2822,516 2823,517 2823,518 2824,519 2824,520 2825,521 2825,522 2826,523 2826,524 2827,525 2827,527 2828,528 2828,529 2829,530 2829,532 2830,533 2830,535 2831,536 2831,538 2832,539 2832,541 2833,542 2833,543 2834,544 2834,545 2836,547 2836,548 2837,549 2837,550 2838,551 2838,552 2839,553 2839,555 2840,556 2840,558 2841,559 2841,562 2842,563 2842,566 2843,567 2843,569 2844,570 2844,571 2845,572 2845,574 2846,575 2846,577 2847,578 2847,579 2848,580 2848,582 2849,583 2849,585 2850,586 2850,588 2851,589 2851,590 2852,591 2852,593 2853,594 2853,596 2854,597 2854,599 2855,600 2855,602 2856,603 2856,604 2857,605 2857,607 2859,609 2859,610 2860,611 2860,612 2862,614 2862,615 2865,618 2866,618 2868,620 2869,620 2870,621 2877,621 2878,622 2903,622 2904,623 2912,623 2913,622 2938,622 2939,623 2962,623 2963,624 2969,624 2970,623 3004,623 3005,624 3014,624 3015,625 3018,625 3019,624 3031,624 3032,623 3035,623 3036,622 3049,622 3050,623 3056,623 3057,624 3071,624 3072,623 3073,623 3074,624 3082,624 3083,625 3106,625 3107,626 3110,626 3111,625 3124,625 3125,624 3134,624 3135,623 3136,624 3178,624 3179,623 3184,623 3185,624 3205,624 3206,623 3216,623 3217,624 3221,624 3222,625 3246,625 3247,626 3261,626 3262,625 3263,625 3264,626 3294,626 3295,625 3318,625 3319,624 3345,624 3346,623 3350,623 3351,624 3365,624 3366,625 3389,625 3390,624 3413,624 3414,625 3440,625 3441,624 3447,624 3448,625 3457,625 3458,626 3466,626 3467,627 3482,627 3483,626 3536,626 3537,627 3571,627 3572,626 3585,626 3586,625 3604,625 3605,626 3615,626 3616,625 3623,625 3624,626 3631,626 3632,627 3636,627 3637,626 3661,626 3662,625 3702,625 3703,626 3707,626 3708,625 3725,625 3726,624 3749,624 3750,623 3775,623 3776,624 3836,624 3837,623 3849,623 3850,622 3873,622 3874,623 3886,623 3887,622 3908,622 3909,623 3930,623 3931,622 3934,622 3935,621 3936,621 3938,619 3939,619 3940,618 3940,617 3941,616 3941,615 3942,614 3942,593 3943,592 3943,582 3942,581 3942,569 3943,568 3943,562 3942,561 3942,548 3943,547 3943,508 3942,507 3942,504 3943,503 3943,486 3942,485 3942,477 3943,476 3943,464 3942,463 3942,455 3943,454 3943,446 3944,445 3944,443 3943,442 3943,432 3944,431 3944,415 3943,414 3943,405 3944,404 3944,393 3943,392 3943,380 3944,379 3944,370 3943,369 3943,359 3944,358 3944,350 3945,349 3945,348 3944,347 3944,338 3945,337 3945,324 3944,323 3944,305 3945,304 3945,294 3944,293 3944,291 3945,290 3945,278 3944,277 3944,274 3943,273 3943,270 3942,269 3942,268 3941,267 3941,266 3939,264 3938,264 3937,263 3936,263 3935,262 3934,262 3933,261 3930,261 3929,260 3823,260 3822,259 3821,260 3783,260 3782,259 3770,259 3769,260 3760,260 3759,259 3694,259 3693,260 3691,260 3690,259 3679,259 3678,260 3672,260 3671,261 3627,261 3626,262 3616,262 3615,261 3606,261 3605,262 3594,262 3593,263 3582,263 3581,262 3579,262 3578,261 3574,261 3573,260 3570,260 3569,261 3554,261 3553,262 3544,262 3543,263 3535,263 3534,262 3531,262 3530,261 3498,261 3497,262 3494,262 3493,263 3486,263 3485,262 3481,262 3480,261 3469,261 3468,260 3467,260 3466,261 3458,261 3457,262 3452,262 3451,263 3447,263 3446,264 3439,264 3438,263 3433,263 3432,262 3413,262 3412,263 3406,263 3405,262 3398,262 3397,261 3380,261 3379,260 3345,260 3344,259 3339,259 3338,258 3315,258 3314,259 3253,259 3252,258 3236,258 3235,259 3223,259 3222,258 3210,258 3209,259 3199,259 3198,258 3161,258 3160,259 3156,259 3155,258 3135,258 3134,259 3132,259 3131,258" fill="rgba(235,88,48,0.3)" stroke="rgb(235,88,48)" stroke-width="2" data-block-id="0007" data-name="b-0014" /><text x="3197" y="441" text-anchor="middle" dominant-baseline="middle" class="block-label" fill="rgb(235,88,48)" stroke="white" stroke-width="3" paint-order="stroke">b-0014</text><polygon points="3847,737 3846,738 3841,738 3840,739 3835,739 3834,740 3795,740 3794,739 3790,739 3789,738 3786,738 3785,739 3783,739 3782,740 3779,740 3778,741 3773,741 3772,740 3768,740 3767,739 3759,739 3758,740 3748,740 3747,739 3742,739 3741,738 3737,738 3736,739 3725,739 3724,738 3707,738 3706,739 3694,739 3693,740 3673,740 3672,739 3664,739 3663,740 3653,740 3652,739 3637,739 3636,740 3628,740 3627,741 3621,741 3620,742 3618,742 3617,741 3597,741 3596,742 3582,742 3581,741 3578,741 3577,740 3566,740 3565,741 3542,741 3541,742 3536,742 3535,741 3530,741 3529,740 3521,740 3520,741 3512,741 3511,740 3505,740 3504,739 3500,739 3499,740 3493,740 3492,741 3484,741 3483,740 3475,740 3474,741 3462,741 3461,740 3455,740 3454,739 3453,739 3452,740 3439,740 3438,739 3435,739 3434,738 3427,738 3426,739 3405,739 3404,740 3401,740 3400,741 3398,741 3397,742 3389,742 3388,741 3376,741 3375,742 3344,742 3343,741 3330,741 3329,742 3315,742 3314,741 3311,741 3310,742 3303,742 3302,743 3293,743 3292,742 3270,742 3269,741 3261,741 3260,742 3255,742 3254,743 3252,743 3251,742 3249,742 3248,741 3245,741 3244,740 3240,740 3239,739 3238,739 3237,740 3209,740 3208,741 3204,741 3203,740 3199,740 3198,739 3195,739 3194,738 3189,738 3188,739 3167,739 3166,740 3153,740 3152,739 3147,739 3146,738 3144,738 3143,739 3139,739 3138,740 3129,740 3128,739 3124,739 3123,738 3118,738 3117,739 3103,739 3102,738 3093,738 3092,739 3075,739 3074,740 3067,740 3066,741 3059,741 3058,740 3053,740 3052,739 3047,739 3046,740 3020,740 3019,741 3010,741 3009,740 2971,740 2970,741 2963,741 2962,740 2957,740 2956,739 2950,739 2949,740 2929,740 2928,741 2924,741 2923,742 2921,742 2918,745 2918,746 2919,747 2919,755 2920,756 2920,760 2921,761 2921,765 2922,766 2922,769 2923,770 2923,773 2924,774 2924,776 2925,777 2925,779 2926,780 2926,781 2927,782 2927,783 2928,784 2928,785 2929,786 2929,787 2930,788 2930,789 2932,791 2932,792 2933,793 2933,794 2934,795 2934,797 2935,798 2935,800 2936,801 2936,803 2937,804 2937,806 2938,807 2938,809 2939,810 2939,812 2940,813 2940,815 2941,816 2941,819 2942,820 2942,822 2943,823 2943,824 2944,825 2944,827 2945,828 2945,830 2946,831 2946,832 2947,833 2947,836 2948,837 2948,840 2949,841 2949,844 2950,845 2950,847 2951,848 2951,850 2952,851 2952,852 2953,853 2953,854 2956,857 2956,858 2958,860 2958,862 2959,863 2959,865 2960,866 2960,868 2961,869 2961,872 2962,873 2962,875 2963,876 2963,878 2964,879 2964,881 2965,882 2965,883 2966,884 2966,885 2967,886 2967,887 2968,888 2968,890 2969,891 2969,892 2970,893 2970,896 2971,897 2971,898 2972,899 2972,900 2973,901 2973,902 2974,903 2974,904 2975,905 2975,906 2977,908 2977,910 2979,912 2979,914 2980,915 2980,916 2981,917 2981,918 2982,919 2982,920 2983,921 2983,922 2984,923 2984,924 2985,925 2985,927 2986,928 2986,930 2987,931 2987,934 2988,935 2988,937 2989,938 2989,941 2990,942 2990,943 2991,944 2991,946 2992,947 2992,949 2993,950 2993,951 2994,952 2994,954 2995,955 2995,957 2996,958 2996,961 2997,962 2997,964 2998,965 2998,967 2999,968 2999,969 3000,970 3000,971 3001,972 3001,973 3002,974 3002,975 3003,976 3003,978 3004,979 3004,980 3005,981 3005,982 3006,983 3006,985 3007,986 3007,989 3008,990 3008,992 3009,993 3009,996 3010,997 3010,999 3011,1000 3011,1002 3012,1003 3012,1006 3013,1007 3013,1009 3014,1010 3014,1011 3015,1012 3015,1013 3016,1014 3016,1015 3018,1017 3018,1018 3019,1019 3019,1021 3020,1022 3020,1024 3021,1025 3021,1027 3022,1028 3022,1030 3023,1031 3023,1032 3025,1034 3025,1035 3028,1038 3028,1039 3030,1041 3030,1042 3031,1043 3031,1044 3032,1045 3032,1047 3033,1048 3033,1050 3034,1051 3034,1055 3035,1056 3035,1059 3036,1060 3036,1063 3037,1064 3037,1066 3038,1067 3038,1068 3039,1069 3039,1070 3040,1071 3040,1072 3041,1073 3041,1074 3042,1075 3042,1078 3043,1079 3043,1081 3044,1082 3044,1084 3045,1085 3045,1087 3046,1088 3046,1089 3048,1091 3048,1092 3053,1097 3053,1098 3059,1104 3060,1104 3061,1105 3063,1105 3064,1106 3069,1106 3070,1107 3076,1107 3077,1106 3081,1106 3082,1105 3115,1105 3116,1106 3128,1106 3129,1105 3140,1105 3141,1106 3162,1106 3163,1107 3166,1107 3167,1108 3172,1108 3173,1107 3179,1107 3180,1106 3182,1106 3183,1107 3224,1107 3225,1108 3243,1108 3244,1107 3247,1107 3248,1106 3259,1106 3260,1107 3266,1107 3267,1108 3279,1108 3280,1109 3285,1109 3286,1110 3289,1110 3290,1109 3293,1109 3294,1108 3298,1108 3299,1107 3302,1107 3303,1108 3308,1108 3309,1109 3314,1109 3315,1108 3318,1108 3319,1107 3324,1107 3325,1106 3326,1106 3327,1107 3339,1107 3340,1106 3353,1106 3354,1107 3358,1107 3359,1108 3373,1108 3374,1109 3380,1109 3381,1110 3385,1110 3386,1109 3390,1109 3391,1108 3403,1108 3404,1109 3410,1109 3411,1108 3434,1108 3435,1107 3438,1107 3439,1106 3462,1106 3463,1105 3494,1105 3495,1106 3510,1106 3511,1107 3516,1107 3517,1106 3575,1106 3576,1105 3600,1105 3601,1106 3613,1106 3614,1105 3617,1105 3618,1104 3623,1104 3624,1105 3627,1105 3628,1106 3631,1106 3632,1107 3643,1107 3644,1106 3664,1106 3665,1105 3696,1105 3697,1106 3793,1106 3794,1107 3820,1107 3821,1108 3824,1108 3825,1107 3854,1107 3855,1106 3865,1106 3866,1107 3874,1107 3875,1106 3888,1106 3889,1107 3906,1107 3907,1106 3920,1106 3921,1105 3923,1105 3924,1104 3926,1104 3927,1103 3929,1103 3930,1102 3931,1102 3932,1101 3932,1083 3933,1082 3933,1074 3932,1073 3932,1069 3931,1068 3931,1056 3932,1055 3932,1054 3931,1053 3931,1049 3930,1048 3930,1046 3929,1045 3929,1044 3928,1043 3928,1037 3929,1036 3929,1024 3928,1023 3928,1020 3927,1019 3927,1014 3928,1013 3928,1009 3929,1008 3929,997 3930,996 3930,990 3931,989 3931,986 3932,985 3932,979 3931,978 3931,975 3930,974 3930,972 3929,971 3929,967 3930,966 3930,963 3931,962 3931,955 3930,954 3930,952 3929,951 3929,949 3927,947 3927,944 3929,942 3929,941 3930,940 3930,939 3932,937 3932,935 3933,934 3933,933 3934,932 3934,931 3936,929 3936,928 3937,927 3937,926 3938,925 3938,924 3939,923 3939,917 3940,916 3940,902 3939,901 3939,761 3938,760 3938,752 3937,751 3937,745 3935,743 3935,742 3934,742 3933,741 3932,741 3931,740 3890,740 3889,739 3886,739 3885,738 3875,738 3874,737 3869,737 3868,738 3850,738 3849,737" fill="rgba(218,58,254,0.3)" stroke="rgb(218,58,254)" stroke-width="2" data-block-id="0008" data-name="b-0015" /><text x="3326" y="910" text-anchor="middle" dominant-baseline="middle" class="block-label" fill="rgb(218,58,254)" stroke="white" stroke-width="3" paint-order="stroke">b-0015</text><polygon points="3330,2727 3329,2728 3220,2728 3219,2729 3204,2729 3203,2730 3202,2729 3176,2729 3175,2730 3155,2730 3154,2729 3123,2729 3122,2730 3116,2730 3115,2729 3072,2729 3071,2730 3019,2730 3018,2731 2994,2731 2993,2732 2985,2732 2984,2733 2973,2733 2972,2734 2958,2734 2957,2733 2954,2733 2953,2734 2936,2734 2935,2733 2881,2733 2880,2734 2870,2734 2869,2733 2862,2733 2861,2732 2842,2732 2841,2733 2814,2733 2813,2732 2804,2732 2803,2733 2773,2733 2772,2732 2750,2732 2749,2731 2652,2731 2651,2730 2642,2730 2641,2731 2637,2731 2636,2732 2628,2732 2627,2731 2609,2731 2608,2730 2569,2730 2568,2729 2558,2729 2557,2730 2545,2730 2544,2731 2522,2731 2521,2732 2512,2732 2511,2733 2505,2733 2504,2734 2502,2734 2500,2736 2500,2737 2499,2738 2499,2739 2498,2740 2498,2757 2497,2758 2497,2786 2496,2787 2496,2803 2497,2804 2497,2819 2496,2820 2496,2874 2495,2875 2495,2909 2494,2910 2494,3001 2495,3002 2495,3010 2496,3011 2496,3046 2495,3047 2495,3058 2494,3059 2494,3068 2493,3069 2493,3086 2494,3087 2494,3089 2496,3091 2496,3092 2497,3093 2497,3094 2502,3099 2503,3099 2504,3100 2509,3100 2510,3101 2528,3101 2529,3100 2578,3100 2579,3099 2592,3099 2593,3098 2615,3098 2616,3097 2626,3097 2627,3096 2633,3096 2634,3095 2635,3095 2636,3096 2643,3096 2644,3097 2645,3097 2646,3096 2653,3096 2654,3095 2662,3095 2663,3096 2682,3096 2683,3097 2685,3097 2686,3098 2687,3098 2688,3099 2691,3099 2692,3100 2695,3100 2696,3099 2700,3099 2701,3098 2730,3098 2731,3097 2748,3097 2749,3098 2792,3098 2793,3099 2803,3099 2804,3098 2811,3098 2812,3097 2818,3097 2819,3096 2830,3096 2831,3097 2879,3097 2880,3098 2898,3098 2899,3099 2918,3099 2919,3100 2935,3100 2936,3099 2940,3099 2941,3098 2942,3098 2943,3099 2947,3099 2948,3100 2983,3100 2984,3101 3007,3101 3008,3100 3032,3100 3033,3101 3036,3101 3037,3102 3070,3102 3071,3101 3080,3101 3081,3100 3122,3100 3123,3099 3130,3099 3131,3098 3161,3098 3162,3099 3176,3099 3177,3098 3183,3098 3184,3099 3239,3099 3240,3098 3253,3098 3254,3097 3255,3098 3293,3098 3294,3097 3302,3097 3303,3098 3305,3098 3306,3099 3309,3099 3310,3100 3321,3100 3322,3099 3386,3099 3387,3098 3389,3098 3390,3097 3391,3097 3392,3096 3393,3096 3394,3095 3394,3094 3396,3092 3396,3090 3397,3089 3397,3083 3396,3082 3396,3079 3395,3078 3395,3075 3394,3074 3394,3069 3393,3068 3393,3062 3392,3061 3392,3052 3391,3051 3391,3040 3390,3039 3390,3032 3389,3031 3389,3022 3388,3021 3388,3014 3387,3013 3387,3007 3386,3006 3386,3000 3385,2999 3385,2993 3384,2992 3384,2986 3383,2985 3383,2978 3382,2977 3382,2970 3381,2969 3381,2964 3380,2963 3380,2957 3379,2956 3379,2950 3378,2949 3378,2941 3377,2940 3377,2933 3376,2932 3376,2920 3375,2919 3375,2910 3374,2909 3374,2893 3373,2892 3373,2884 3372,2883 3372,2880 3373,2879 3373,2873 3372,2872 3372,2866 3371,2865 3371,2861 3370,2860 3370,2853 3371,2852 3371,2850 3370,2849 3370,2842 3369,2841 3369,2831 3368,2830 3368,2824 3367,2823 3367,2821 3366,2820 3366,2818 3365,2817 3365,2815 3364,2814 3364,2798 3363,2797 3363,2789 3362,2788 3362,2779 3361,2778 3361,2773 3360,2772 3360,2769 3359,2768 3359,2759 3358,2758 3358,2751 3357,2750 3357,2746 3356,2745 3356,2740 3355,2739 3355,2736 3354,2735 3354,2734 3353,2733 3353,2732 3350,2729 3349,2729 3348,2728 3339,2728 3338,2727" fill="rgba(169,219,187,0.3)" stroke="rgb(169,219,187)" stroke-width="2" data-block-id="0009" data-name="b-0016" /><text x="3010" y="2935" text-anchor="middle" dominant-baseline="middle" class="block-label" fill="rgb(169,219,187)" stroke="white" stroke-width="3" paint-order="stroke">b-0016</text><polygon points="3107,2243 3106,2244 3104,2244 3103,2245 3098,2245 3097,2246 3078,2246 3077,2247 3072,2247 3071,2246 3056,2246 3055,2247 3046,2247 3045,2246 2988,2246 2987,2247 2983,2247 2982,2248 2945,2248 2944,2247 2916,2247 2915,2248 2807,2248 2806,2247 2799,2247 2798,2248 2781,2248 2780,2247 2773,2247 2772,2248 2709,2248 2708,2247 2665,2247 2664,2246 2649,2246 2648,2247 2638,2247 2637,2246 2630,2246 2629,2247 2617,2247 2616,2246 2606,2246 2605,2247 2570,2247 2569,2246 2512,2246 2511,2247 2507,2247 2506,2248 2503,2248 2500,2251 2500,2253 2499,2254 2499,2267 2500,2268 2500,2311 2499,2312 2499,2345 2498,2346 2498,2370 2499,2371 2499,2410 2500,2411 2500,2430 2499,2431 2499,2434 2500,2435 2500,2477 2499,2478 2499,2483 2500,2484 2500,2568 2499,2569 2499,2585 2500,2586 2500,2602 2501,2603 2501,2609 2502,2610 2502,2612 2504,2614 2505,2614 2506,2615 2508,2615 2509,2616 2535,2616 2536,2615 2605,2615 2606,2614 2624,2614 2625,2615 2642,2615 2643,2614 2647,2614 2648,2615 2699,2615 2700,2616 2706,2616 2707,2615 2726,2615 2727,2616 2731,2616 2732,2615 2865,2615 2866,2616 2876,2616 2877,2615 2913,2615 2914,2616 2936,2616 2937,2615 3017,2615 3018,2616 3030,2616 3031,2615 3056,2615 3057,2616 3067,2616 3068,2615 3079,2615 3080,2616 3101,2616 3102,2615 3127,2615 3128,2616 3150,2616 3151,2615 3191,2615 3192,2616 3201,2616 3202,2617 3214,2617 3215,2616 3231,2616 3232,2615 3262,2615 3263,2614 3294,2614 3295,2615 3302,2615 3303,2614 3318,2614 3319,2613 3325,2613 3326,2612 3329,2612 3330,2611 3331,2611 3333,2609 3333,2606 3334,2605 3334,2599 3333,2598 3333,2597 3332,2596 3332,2595 3331,2594 3331,2593 3330,2592 3330,2591 3329,2590 3329,2588 3328,2587 3328,2583 3327,2582 3327,2577 3326,2576 3326,2574 3325,2573 3325,2572 3324,2571 3324,2567 3323,2566 3323,2561 3322,2560 3322,2553 3321,2552 3321,2545 3320,2544 3320,2539 3319,2538 3319,2536 3318,2535 3318,2534 3317,2533 3317,2531 3316,2530 3316,2529 3315,2528 3315,2522 3314,2521 3314,2515 3313,2514 3313,2511 3312,2510 3312,2506 3311,2505 3311,2501 3310,2500 3310,2497 3309,2496 3309,2494 3308,2493 3308,2491 3307,2490 3307,2489 3306,2488 3306,2487 3305,2486 3305,2484 3304,2483 3304,2482 3303,2481 3303,2480 3302,2479 3302,2478 3301,2477 3301,2475 3300,2474 3300,2471 3299,2470 3299,2468 3298,2467 3298,2466 3297,2465 3297,2463 3296,2462 3296,2459 3295,2458 3295,2455 3294,2454 3294,2451 3293,2450 3293,2447 3292,2446 3292,2443 3291,2442 3291,2439 3290,2438 3290,2436 3289,2435 3289,2433 3288,2432 3288,2428 3287,2427 3287,2422 3286,2421 3286,2419 3285,2418 3285,2416 3284,2415 3284,2413 3283,2412 3283,2410 3282,2409 3282,2406 3281,2405 3281,2400 3280,2399 3280,2395 3279,2394 3279,2392 3278,2391 3278,2389 3277,2388 3277,2386 3276,2385 3276,2382 3275,2381 3275,2378 3274,2377 3274,2374 3273,2373 3273,2369 3272,2368 3272,2363 3271,2362 3271,2358 3270,2357 3270,2353 3269,2352 3269,2349 3268,2348 3268,2346 3267,2345 3267,2343 3266,2342 3266,2340 3265,2339 3265,2337 3264,2336 3264,2330 3263,2329 3263,2325 3262,2324 3262,2322 3261,2321 3261,2320 3260,2319 3260,2317 3259,2316 3259,2315 3258,2314 3258,2311 3257,2310 3257,2308 3256,2307 3256,2305 3255,2304 3255,2302 3254,2301 3254,2299 3253,2298 3253,2297 3252,2296 3252,2294 3251,2293 3251,2290 3250,2289 3250,2286 3249,2285 3249,2281 3248,2280 3248,2276 3247,2275 3247,2272 3246,2271 3246,2268 3245,2267 3245,2263 3244,2262 3244,2259 3243,2258 3243,2255 3242,2254 3242,2253 3240,2251 3239,2251 3238,2250 3235,2250 3234,2249 3232,2249 3231,2248 3185,2248 3184,2247 3175,2247 3174,2248 3163,2248 3162,2247 3128,2247 3127,2246 3119,2246 3118,2245 3115,2245 3114,2244 3113,2244 3112,2243" fill="rgba(207,14,189,0.3)" stroke="rgb(207,14,189)" stroke-width="2" data-block-id="0010" data-name="b-0017" /><text x="3086" y="2428" text-anchor="middle" dominant-baseline="middle" class="block-label" fill="rgb(207,14,189)" stroke="white" stroke-width="3" paint-order="stroke">b-0017</text><polygon points="3247,1291 3246,1292 3240,1292 3239,1293 3179,1293 3178,1294 3160,1294 3159,1293 3158,1293 3157,1294 3151,1294 3150,1295 3142,1295 3141,1296 3135,1296 3132,1299 3132,1300 3131,1301 3131,1308 3132,1309 3132,1314 3133,1315 3133,1318 3134,1319 3134,1322 3135,1323 3135,1326 3136,1327 3136,1329 3137,1330 3137,1331 3138,1332 3138,1334 3139,1335 3139,1336 3140,1337 3140,1338 3141,1339 3141,1341 3142,1342 3142,1343 3143,1344 3143,1345 3144,1346 3144,1347 3145,1348 3145,1350 3146,1351 3146,1352 3147,1353 3147,1354 3148,1355 3148,1357 3149,1358 3149,1360 3150,1361 3150,1364 3151,1365 3151,1367 3152,1368 3152,1370 3153,1371 3153,1373 3154,1374 3154,1375 3155,1376 3155,1377 3156,1378 3156,1379 3159,1382 3159,1383 3161,1385 3161,1386 3162,1387 3162,1389 3163,1390 3163,1392 3164,1393 3164,1396 3165,1397 3165,1398 3166,1399 3166,1401 3168,1403 3168,1404 3170,1406 3170,1407 3171,1408 3171,1410 3172,1411 3172,1413 3173,1414 3173,1416 3174,1417 3174,1420 3175,1421 3175,1424 3176,1425 3176,1426 3177,1427 3177,1429 3178,1430 3178,1433 3179,1434 3179,1437 3180,1438 3180,1440 3181,1441 3181,1443 3182,1444 3182,1446 3183,1447 3183,1448 3184,1449 3184,1451 3185,1452 3185,1453 3186,1454 3186,1456 3187,1457 3187,1459 3188,1460 3188,1462 3189,1463 3189,1464 3190,1465 3190,1467 3191,1468 3191,1469 3192,1470 3192,1471 3195,1474 3195,1475 3196,1476 3196,1478 3197,1479 3197,1481 3198,1482 3198,1485 3199,1486 3199,1489 3200,1490 3200,1493 3201,1494 3201,1495 3202,1496 3202,1498 3203,1499 3203,1500 3204,1501 3204,1502 3205,1503 3205,1504 3207,1506 3207,1507 3208,1508 3208,1509 3209,1510 3209,1511 3210,1512 3210,1514 3211,1515 3211,1516 3213,1518 3213,1519 3214,1520 3214,1521 3215,1522 3215,1523 3216,1524 3216,1525 3217,1526 3217,1528 3218,1529 3218,1530 3219,1531 3219,1533 3220,1534 3220,1536 3221,1537 3221,1539 3222,1540 3222,1541 3224,1543 3224,1544 3229,1549 3230,1549 3231,1550 3232,1550 3238,1556 3238,1557 3240,1559 3240,1560 3241,1561 3241,1562 3242,1563 3242,1572 3243,1573 3243,1583 3244,1584 3244,1590 3245,1591 3245,1595 3246,1596 3246,1599 3247,1600 3247,1602 3248,1603 3248,1604 3249,1605 3249,1607 3250,1608 3250,1609 3251,1610 3251,1612 3252,1613 3252,1614 3253,1615 3253,1616 3254,1617 3254,1618 3255,1619 3255,1620 3256,1621 3256,1623 3257,1624 3257,1625 3258,1626 3258,1628 3259,1629 3259,1630 3260,1631 3260,1633 3261,1634 3261,1635 3262,1636 3262,1638 3263,1639 3263,1641 3264,1642 3264,1643 3266,1645 3266,1646 3270,1650 3270,1651 3272,1653 3272,1654 3274,1656 3274,1657 3275,1658 3276,1658 3277,1659 3279,1659 3280,1660 3284,1660 3285,1661 3293,1661 3294,1660 3300,1660 3301,1659 3362,1659 3363,1660 3367,1660 3368,1661 3509,1661 3510,1662 3518,1662 3519,1661 3524,1661 3525,1660 3530,1660 3531,1659 3548,1659 3549,1658 3563,1658 3564,1657 3566,1657 3567,1656 3569,1656 3570,1655 3577,1655 3578,1656 3582,1656 3583,1657 3606,1657 3607,1658 3623,1658 3624,1657 3626,1657 3627,1656 3629,1656 3630,1655 3633,1655 3634,1654 3641,1654 3642,1653 3644,1653 3645,1654 3648,1654 3649,1655 3650,1655 3651,1656 3653,1656 3654,1657 3657,1657 3658,1658 3659,1657 3661,1657 3662,1656 3663,1656 3664,1655 3665,1655 3666,1654 3667,1654 3668,1653 3680,1653 3681,1652 3684,1652 3685,1651 3687,1651 3688,1650 3692,1650 3693,1649 3694,1649 3695,1650 3703,1650 3704,1651 3719,1651 3720,1650 3725,1650 3726,1649 3739,1649 3740,1650 3742,1650 3743,1651 3744,1651 3746,1653 3747,1653 3750,1656 3754,1656 3755,1655 3756,1655 3758,1653 3759,1653 3760,1652 3761,1652 3762,1651 3766,1651 3767,1652 3768,1652 3769,1653 3770,1653 3771,1654 3772,1654 3774,1656 3780,1656 3781,1655 3785,1655 3786,1654 3787,1655 3788,1655 3792,1659 3793,1659 3794,1660 3795,1660 3796,1661 3799,1661 3800,1662 3868,1662 3869,1663 3870,1663 3871,1662 3889,1662 3890,1663 3919,1663 3920,1662 3925,1662 3926,1661 3929,1661 3930,1660 3931,1660 3932,1659 3933,1659 3934,1658 3934,1657 3935,1656 3935,1654 3936,1653 3936,1651 3937,1650 3937,1641 3936,1640 3936,1634 3937,1633 3937,1628 3938,1627 3938,1620 3937,1619 3937,1597 3936,1596 3936,1592 3935,1591 3935,1584 3936,1583 3936,1570 3935,1569 3935,1556 3936,1555 3936,1535 3937,1534 3937,1508 3938,1507 3938,1497 3937,1496 3937,1479 3936,1478 3936,1472 3935,1471 3935,1464 3934,1463 3934,1454 3935,1453 3935,1431 3936,1430 3936,1380 3937,1379 3937,1358 3936,1357 3936,1336 3937,1335 3937,1314 3936,1313 3936,1304 3935,1303 3935,1302 3931,1298 3930,1298 3929,1297 3926,1297 3925,1296 3918,1296 3917,1295 3901,1295 3900,1294 3856,1294 3855,1293 3842,1293 3841,1294 3823,1294 3822,1293 3821,1294 3808,1294 3807,1293 3800,1293 3799,1292 3798,1293 3790,1293 3789,1294 3786,1294 3785,1293 3758,1293 3757,1292 3750,1292 3749,1293 3746,1293 3745,1294 3743,1294 3742,1295 3737,1295 3736,1294 3732,1294 3731,1293 3708,1293 3707,1292 3703,1292 3702,1293 3661,1293 3660,1292 3651,1292 3650,1293 3641,1293 3640,1292 3613,1292 3612,1291 3608,1291 3607,1292 3600,1292 3599,1293 3593,1293 3592,1292 3580,1292 3579,1293 3571,1293 3570,1292 3565,1292 3564,1291 3559,1291 3558,1292 3530,1292 3529,1293 3515,1293 3514,1294 3512,1294 3511,1295 3509,1295 3508,1296 3503,1296 3502,1297 3500,1297 3499,1296 3483,1296 3482,1297 3457,1297 3456,1298 3454,1298 3453,1297 3445,1297 3444,1296 3439,1296 3438,1297 3427,1297 3426,1296 3416,1296 3415,1297 3409,1297 3408,1298 3404,1298 3403,1297 3383,1297 3382,1296 3380,1296 3379,1295 3377,1295 3376,1294 3373,1294 3372,1293 3354,1293 3353,1292 3280,1292 3279,1293 3274,1293 3273,1292 3269,1292 3268,1291" fill="rgba(189,174,189,0.3)" stroke="rgb(189,174,189)" stroke-width="2" data-block-id="0011" data-name="b-0018" /><text x="3463" y="1483" text-anchor="middle" dominant-baseline="middle" class="block-label" fill="rgb(189,174,189)" stroke="white" stroke-width="3" paint-order="stroke">b-0018</text><polygon points="2808,1763 2807,1764 2798,1764 2797,1765 2715,1765 2714,1766 2712,1766 2711,1767 2709,1767 2708,1768 2699,1768 2698,1767 2643,1767 2642,1768 2611,1768 2610,1767 2604,1767 2603,1766 2571,1766 2570,1767 2566,1767 2565,1768 2549,1768 2548,1769 2546,1769 2545,1770 2543,1770 2542,1771 2536,1771 2535,1770 2533,1770 2532,1769 2530,1769 2529,1768 2524,1768 2523,1769 2521,1769 2520,1770 2517,1770 2516,1771 2512,1771 2511,1772 2509,1772 2508,1773 2507,1773 2506,1774 2505,1774 2505,1775 2504,1776 2504,1779 2503,1780 2503,1783 2502,1784 2502,1787 2501,1788 2501,1793 2500,1794 2500,1800 2499,1801 2499,1805 2500,1806 2500,1814 2501,1815 2501,1826 2500,1827 2500,1844 2499,1845 2499,1853 2500,1854 2500,1861 2501,1862 2501,1881 2500,1882 2500,1893 2501,1894 2501,1924 2500,1925 2500,1933 2499,1934 2499,1935 2500,1936 2500,1978 2499,1979 2499,1989 2500,1990 2500,2051 2501,2052 2501,2115 2502,2116 2502,2123 2503,2124 2503,2128 2504,2129 2504,2132 2505,2133 2505,2134 2506,2134 2507,2135 2508,2135 2509,2136 2510,2136 2511,2137 2546,2137 2547,2138 2563,2138 2564,2139 2569,2139 2570,2140 2579,2140 2580,2139 2584,2139 2585,2138 2601,2138 2602,2137 2631,2137 2632,2136 2633,2137 2641,2137 2642,2138 2652,2138 2653,2137 2747,2137 2748,2138 2760,2138 2761,2139 2770,2139 2771,2140 2786,2140 2787,2139 2889,2139 2890,2138 2929,2138 2930,2139 2933,2139 2934,2138 2954,2138 2955,2137 2971,2137 2972,2138 3030,2138 3031,2137 3059,2137 3060,2138 3066,2138 3067,2137 3203,2137 3204,2136 3206,2136 3207,2135 3208,2135 3208,2134 3209,2133 3209,2127 3210,2126 3210,2122 3209,2121 3209,2114 3208,2113 3208,2110 3207,2109 3207,2107 3206,2106 3206,2104 3205,2103 3205,2102 3204,2101 3204,2099 3203,2098 3203,2097 3202,2096 3202,2094 3201,2093 3201,2091 3200,2090 3200,2087 3199,2086 3199,2080 3198,2079 3198,2074 3197,2073 3197,2070 3196,2069 3196,2066 3195,2065 3195,2063 3194,2062 3194,2059 3193,2058 3193,2056 3192,2055 3192,2053 3191,2052 3191,2050 3190,2049 3190,2048 3189,2047 3189,2046 3188,2045 3188,2043 3187,2042 3187,2039 3186,2038 3186,2034 3185,2033 3185,2030 3184,2029 3184,2025 3183,2024 3183,2019 3182,2018 3182,2015 3181,2014 3181,2011 3180,2010 3180,2008 3179,2007 3179,2005 3178,2004 3178,2001 3177,2000 3177,1996 3176,1995 3176,1992 3175,1991 3175,1989 3174,1988 3174,1985 3173,1984 3173,1980 3172,1979 3172,1975 3171,1974 3171,1970 3170,1969 3170,1966 3169,1965 3169,1963 3168,1962 3168,1960 3167,1959 3167,1957 3166,1956 3166,1955 3165,1954 3165,1952 3164,1951 3164,1948 3163,1947 3163,1943 3162,1942 3162,1939 3161,1938 3161,1934 3160,1933 3160,1928 3159,1927 3159,1921 3158,1920 3158,1918 3157,1917 3157,1916 3156,1915 3156,1914 3155,1913 3155,1912 3154,1911 3154,1909 3153,1908 3153,1906 3152,1905 3152,1903 3151,1902 3151,1899 3150,1898 3150,1894 3149,1893 3149,1887 3148,1886 3148,1883 3147,1882 3147,1880 3146,1879 3146,1877 3145,1876 3145,1875 3144,1874 3144,1871 3143,1870 3143,1868 3142,1867 3142,1865 3141,1864 3141,1861 3140,1860 3140,1856 3139,1855 3139,1851 3138,1850 3138,1845 3137,1844 3137,1841 3136,1840 3136,1836 3135,1835 3135,1831 3134,1830 3134,1828 3133,1827 3133,1826 3132,1825 3132,1824 3131,1823 3131,1822 3130,1821 3130,1820 3129,1819 3129,1818 3128,1817 3128,1815 3127,1814 3127,1811 3126,1810 3126,1808 3125,1807 3125,1804 3124,1803 3124,1801 3123,1800 3123,1798 3122,1797 3122,1795 3121,1794 3121,1792 3120,1791 3120,1790 3119,1789 3119,1788 3118,1787 3118,1786 3117,1785 3117,1784 3116,1783 3116,1782 3115,1781 3115,1779 3114,1778 3114,1776 3113,1775 3113,1773 3111,1771 3111,1770 3110,1769 3109,1769 3108,1768 3104,1768 3103,1767 3093,1767 3092,1766 3083,1766 3082,1767 3059,1767 3058,1768 3050,1768 3049,1769 3048,1769 3047,1768 3037,1768 3036,1769 3032,1769 3031,1770 3021,1770 3020,1769 3009,1769 3008,1770 2994,1770 2993,1769 2987,1769 2986,1770 2975,1770 2974,1769 2944,1769 2943,1768 2902,1768 2901,1767 2873,1767 2872,1768 2869,1768 2868,1769 2867,1769 2866,1770 2865,1770 2864,1771 2863,1771 2861,1773 2853,1773 2852,1772 2848,1772 2847,1771 2843,1771 2842,1770 2834,1770 2833,1769 2825,1769 2824,1768 2823,1768 2822,1767 2821,1767 2819,1765 2817,1765 2816,1764 2814,1764 2813,1763" fill="rgba(243,63,248,0.3)" stroke="rgb(243,63,248)" stroke-width="2" data-block-id="0012" data-name="b-0020" /><text x="2936" y="1918" text-anchor="middle" dominant-baseline="middle" class="block-label" fill="rgb(243,63,248)" stroke="white" stroke-width="3" paint-order="stroke">b-0020</text><polygon points="3342,1768 3341,1769 3334,1769 3333,1770 3328,1770 3327,1771 3324,1771 3323,1772 3322,1772 3321,1773 3321,1774 3319,1776 3319,1777 3318,1778 3318,1782 3319,1783 3319,1789 3320,1790 3320,1794 3321,1795 3321,1800 3322,1801 3322,1807 3323,1808 3323,1812 3324,1813 3324,1819 3325,1820 3325,1825 3326,1826 3326,1828 3327,1829 3327,1831 3328,1832 3328,1833 3329,1834 3329,1837 3330,1838 3330,1841 3331,1842 3331,1845 3332,1846 3332,1849 3333,1850 3333,1852 3334,1853 3334,1854 3335,1855 3335,1857 3336,1858 3336,1859 3337,1860 3337,1861 3338,1862 3338,1866 3339,1867 3339,1873 3340,1874 3340,1877 3341,1878 3341,1881 3342,1882 3342,1885 3343,1886 3343,1890 3344,1891 3344,1895 3345,1896 3345,1900 3346,1901 3346,1903 3347,1904 3347,1906 3348,1907 3348,1908 3349,1909 3349,1912 3350,1913 3350,1918 3351,1919 3351,1922 3352,1923 3352,1924 3353,1925 3353,1927 3354,1928 3354,1931 3355,1932 3355,1935 3356,1936 3356,1940 3357,1941 3357,1944 3358,1945 3358,1948 3359,1949 3359,1951 3360,1952 3360,1955 3361,1956 3361,1958 3362,1959 3362,1961 3363,1962 3363,1966 3364,1967 3364,1970 3365,1971 3365,1973 3366,1974 3366,1977 3367,1978 3367,1981 3368,1982 3368,1994 3369,1995 3369,1998 3370,1999 3370,2002 3371,2003 3371,2004 3372,2005 3372,2017 3373,2018 3373,2020 3374,2021 3374,2022 3375,2023 3375,2025 3376,2026 3376,2028 3377,2029 3377,2032 3378,2033 3378,2036 3379,2037 3379,2040 3380,2041 3380,2042 3381,2043 3381,2045 3382,2046 3382,2047 3383,2048 3383,2049 3384,2050 3384,2052 3385,2053 3385,2056 3386,2057 3386,2061 3387,2062 3387,2065 3388,2066 3388,2068 3389,2069 3389,2072 3390,2073 3390,2075 3391,2076 3391,2079 3392,2080 3392,2085 3393,2086 3393,2089 3394,2090 3394,2092 3395,2093 3395,2095 3396,2096 3396,2098 3397,2099 3397,2102 3398,2103 3398,2106 3399,2107 3399,2110 3400,2111 3400,2113 3401,2114 3401,2115 3403,2117 3403,2118 3404,2119 3404,2120 3405,2121 3405,2122 3407,2124 3407,2125 3408,2126 3408,2127 3413,2132 3414,2132 3415,2133 3416,2133 3417,2134 3420,2134 3421,2135 3428,2135 3429,2136 3498,2136 3499,2137 3603,2137 3604,2136 3618,2136 3619,2135 3630,2135 3631,2136 3676,2136 3677,2135 3684,2135 3685,2136 3699,2136 3700,2135 3761,2135 3762,2136 3765,2136 3766,2135 3785,2135 3786,2136 3790,2136 3791,2135 3806,2135 3807,2136 3814,2136 3815,2135 3880,2135 3881,2136 3918,2136 3919,2135 3932,2135 3933,2134 3935,2134 3936,2133 3937,2133 3937,2132 3938,2131 3938,2064 3937,2063 3937,2061 3938,2060 3938,2009 3937,2008 3937,1945 3936,1944 3936,1913 3937,1912 3937,1815 3936,1814 3936,1780 3935,1779 3935,1777 3934,1776 3934,1775 3933,1774 3932,1774 3931,1773 3930,1773 3929,1772 3920,1772 3919,1771 3917,1771 3916,1772 3893,1772 3892,1771 3767,1771 3766,1772 3747,1772 3746,1771 3720,1771 3719,1772 3711,1772 3710,1771 3636,1771 3635,1770 3634,1770 3633,1771 3625,1771 3624,1772 3612,1772 3611,1771 3607,1771 3606,1770 3601,1770 3600,1769 3589,1769 3588,1768 3470,1768 3469,1769 3462,1769 3461,1768 3449,1768 3448,1769 3414,1769 3413,1768 3373,1768 3372,1769 3370,1769 3369,1768" fill="rgba(130,228,50,0.3)" stroke="rgb(130,228,50)" stroke-width="2" data-block-id="0013" data-name="b-0021" /><text x="3489" y="1949" text-anchor="middle" dominant-baseline="middle" class="block-label" fill="rgb(130,228,50)" stroke="white" stroke-width="3" paint-order="stroke">b-0021</text><polygon points="3679,2246 3678,2247 3671,2247 3670,2248 3640,2248 3639,2249 3616,2249 3615,2248 3520,2248 3519,2247 3511,2247 3510,2248 3491,2248 3490,2247 3456,2247 3455,2248 3450,2248 3449,2249 3446,2249 3445,2250 3444,2250 3441,2253 3441,2267 3442,2268 3442,2271 3443,2272 3443,2275 3444,2276 3444,2279 3445,2280 3445,2282 3446,2283 3446,2285 3447,2286 3447,2288 3448,2289 3448,2291 3449,2292 3449,2295 3450,2296 3450,2298 3451,2299 3451,2301 3452,2302 3452,2307 3453,2308 3453,2315 3454,2316 3454,2318 3455,2319 3455,2323 3456,2324 3456,2327 3457,2328 3457,2330 3458,2331 3458,2334 3459,2335 3459,2338 3460,2339 3460,2341 3461,2342 3461,2344 3462,2345 3462,2347 3463,2348 3463,2352 3464,2353 3464,2357 3465,2358 3465,2362 3466,2363 3466,2365 3467,2366 3467,2369 3468,2370 3468,2372 3469,2373 3469,2375 3470,2376 3470,2378 3471,2379 3471,2383 3472,2384 3472,2388 3473,2389 3473,2393 3474,2394 3474,2397 3475,2398 3475,2401 3476,2402 3476,2405 3477,2406 3477,2409 3478,2410 3478,2413 3479,2414 3479,2417 3480,2418 3480,2421 3481,2422 3481,2424 3482,2425 3482,2428 3483,2429 3483,2432 3484,2433 3484,2436 3485,2437 3485,2441 3486,2442 3486,2445 3487,2446 3487,2449 3488,2450 3488,2453 3489,2454 3489,2457 3490,2458 3490,2459 3491,2460 3491,2463 3492,2464 3492,2466 3493,2467 3493,2469 3494,2470 3494,2473 3495,2474 3495,2477 3496,2478 3496,2481 3497,2482 3497,2485 3498,2486 3498,2490 3499,2491 3499,2494 3500,2495 3500,2499 3501,2500 3501,2504 3502,2505 3502,2508 3503,2509 3503,2512 3504,2513 3504,2516 3505,2517 3505,2519 3506,2520 3506,2523 3507,2524 3507,2527 3508,2528 3508,2531 3509,2532 3509,2535 3510,2536 3510,2540 3511,2541 3511,2546 3512,2547 3512,2551 3513,2552 3513,2556 3514,2557 3514,2559 3515,2560 3515,2564 3516,2565 3516,2567 3517,2568 3517,2572 3518,2573 3518,2578 3519,2579 3519,2582 3520,2583 3520,2586 3521,2587 3521,2590 3522,2591 3522,2595 3523,2596 3523,2600 3524,2601 3524,2604 3525,2605 3525,2606 3526,2607 3526,2608 3527,2609 3527,2610 3528,2610 3530,2612 3532,2612 3533,2613 3536,2613 3537,2614 3542,2614 3543,2613 3617,2613 3618,2612 3627,2612 3628,2613 3652,2613 3653,2612 3744,2612 3745,2611 3757,2611 3758,2610 3763,2610 3764,2609 3765,2609 3766,2610 3770,2610 3771,2611 3865,2611 3866,2612 3884,2612 3885,2611 3898,2611 3899,2610 3923,2610 3924,2609 3929,2609 3930,2608 3931,2608 3932,2607 3932,2606 3933,2605 3933,2604 3934,2603 3934,2600 3935,2599 3935,2558 3936,2557 3936,2514 3937,2513 3937,2505 3938,2504 3938,2438 3937,2437 3937,2426 3936,2425 3936,2404 3937,2403 3937,2362 3938,2361 3938,2353 3939,2352 3939,2346 3938,2345 3938,2339 3937,2338 3937,2336 3938,2335 3938,2332 3939,2331 3939,2327 3940,2326 3940,2320 3939,2319 3939,2312 3940,2311 3940,2308 3941,2307 3941,2304 3942,2303 3942,2300 3941,2299 3941,2298 3940,2297 3940,2295 3939,2294 3939,2291 3938,2290 3938,2287 3939,2286 3939,2281 3940,2280 3940,2274 3939,2273 3939,2264 3938,2263 3938,2255 3937,2254 3937,2253 3936,2252 3936,2251 3935,2251 3933,2249 3932,2249 3931,2248 3926,2248 3925,2247 3902,2247 3901,2248 3874,2248 3873,2247 3870,2247 3869,2248 3774,2248 3773,2249 3770,2249 3769,2250 3761,2250 3760,2249 3758,2249 3757,2248 3728,2248 3727,2247 3723,2247 3722,2248 3716,2248 3715,2247 3684,2247 3683,2246" fill="rgba(88,59,13,0.3)" stroke="rgb(88,59,13)" stroke-width="2" data-block-id="0014" data-name="b-0024" /><text x="3631" y="2413" text-anchor="middle" dominant-baseline="middle" class="block-label" fill="rgb(88,59,13)" stroke="white" stroke-width="3" paint-order="stroke">b-0024</text><polygon points="3784,2723 3783,2724 3778,2724 3777,2725 3776,2725 3775,2726 3773,2726 3772,2727 3771,2727 3770,2728 3768,2728 3767,2729 3762,2729 3761,2728 3760,2728 3759,2727 3757,2727 3756,2726 3754,2726 3753,2725 3745,2725 3744,2724 3736,2724 3735,2725 3719,2725 3718,2726 3713,2726 3712,2725 3696,2725 3695,2726 3679,2726 3678,2727 3638,2727 3637,2728 3601,2728 3600,2727 3594,2727 3593,2728 3576,2728 3575,2727 3570,2727 3569,2728 3547,2728 3546,2729 3545,2729 3542,2732 3542,2733 3541,2734 3541,2755 3542,2756 3542,2764 3543,2765 3543,2770 3544,2771 3544,2776 3545,2777 3545,2797 3546,2798 3546,2810 3547,2811 3547,2817 3548,2818 3548,2824 3549,2825 3549,2838 3550,2839 3550,2843 3551,2844 3551,2851 3552,2852 3552,2861 3553,2862 3553,2869 3554,2870 3554,2876 3555,2877 3555,2883 3556,2884 3556,2892 3557,2893 3557,2900 3558,2901 3558,2904 3559,2905 3559,2909 3560,2910 3560,2918 3561,2919 3561,2926 3562,2927 3562,2935 3563,2936 3563,2947 3564,2948 3564,2956 3565,2957 3565,2964 3566,2965 3566,2974 3567,2975 3567,2992 3568,2993 3568,2998 3569,2999 3569,3016 3570,3017 3570,3022 3571,3023 3571,3034 3572,3035 3572,3050 3573,3051 3573,3058 3574,3059 3574,3066 3575,3067 3575,3072 3576,3073 3576,3080 3577,3081 3577,3088 3578,3089 3578,3090 3579,3091 3579,3092 3580,3093 3581,3093 3582,3094 3583,3094 3584,3095 3615,3095 3616,3094 3646,3094 3647,3093 3734,3093 3735,3092 3746,3092 3747,3091 3773,3091 3774,3092 3779,3092 3780,3091 3800,3091 3801,3090 3811,3090 3812,3091 3833,3091 3834,3090 3839,3090 3840,3091 3928,3091 3929,3090 3931,3090 3932,3089 3933,3089 3935,3087 3935,3086 3936,3085 3936,3083 3937,3082 3937,3079 3938,3078 3938,3069 3939,3068 3939,3052 3938,3051 3938,3043 3937,3042 3937,3035 3938,3034 3938,3010 3937,3009 3937,3002 3938,3001 3938,2998 3939,2997 3939,2993 3940,2992 3940,2974 3939,2973 3939,2949 3938,2948 3938,2929 3939,2928 3939,2914 3938,2913 3938,2908 3937,2907 3938,2906 3938,2879 3939,2878 3939,2872 3938,2871 3938,2867 3937,2866 3937,2812 3936,2811 3936,2790 3937,2789 3937,2786 3936,2785 3936,2776 3937,2775 3937,2761 3938,2760 3938,2742 3937,2741 3937,2736 3936,2735 3936,2732 3935,2731 3935,2730 3934,2729 3934,2728 3933,2728 3932,2727 3931,2727 3930,2726 3919,2726 3918,2725 3848,2725 3847,2724 3814,2724 3813,2723 3812,2723 3811,2724 3793,2724 3792,2723" fill="rgba(241,249,8,0.3)" stroke="rgb(241,249,8)" stroke-width="2" data-block-id="0015" data-name="b-0025" /><text x="3729" y="2890" text-anchor="middle" dominant-baseline="middle" class="block-label" fill="rgb(241,249,8)" stroke="white" stroke-width="3" paint-order="stroke">b-0025</text><polygon points="2514,738 2513,739 2507,739 2506,740 2505,740 2504,741 2503,741 2502,742 2502,743 2501,744 2501,745 2500,746 2500,747 2499,748 2499,750 2498,751 2498,762 2499,763 2499,768 2500,769 2500,786 2501,787 2501,796 2500,797 2500,806 2501,807 2501,848 2500,849 2500,852 2501,853 2501,998 2502,999 2502,1014 2501,1015 2501,1022 2502,1023 2502,1033 2501,1034 2501,1071 2500,1072 2500,1085 2499,1086 2499,1089 2500,1090 2500,1093 2501,1094 2501,1096 2502,1097 2502,1098 2506,1102 2507,1102 2508,1103 2510,1103 2511,1104 2514,1104 2515,1105 2538,1105 2539,1106 2563,1106 2564,1105 2584,1105 2585,1104 2624,1104 2625,1103 2762,1103 2763,1102 2833,1102 2834,1103 2838,1103 2839,1102 2842,1102 2843,1101 2844,1101 2845,1100 2846,1100 2847,1099 2848,1099 2848,1098 2849,1097 2849,1096 2850,1095 2850,1094 2851,1093 2851,1092 2852,1091 2852,1086 2850,1084 2850,1083 2847,1080 2847,1079 2840,1072 2840,1071 2839,1070 2839,1069 2838,1068 2838,1066 2837,1065 2837,1063 2836,1062 2836,1061 2835,1060 2835,1059 2834,1058 2834,1057 2833,1056 2833,1055 2832,1054 2832,1052 2831,1051 2831,1050 2830,1049 2830,1047 2829,1046 2829,1044 2828,1043 2828,1042 2827,1041 2827,1039 2826,1038 2826,1037 2825,1036 2825,1035 2824,1034 2824,1033 2823,1032 2823,1030 2822,1029 2822,1028 2821,1027 2821,1026 2820,1025 2820,1024 2819,1023 2819,1022 2818,1021 2818,1019 2817,1018 2817,1017 2816,1016 2816,1015 2815,1014 2815,1012 2814,1011 2814,1010 2813,1009 2813,1007 2812,1006 2812,1004 2811,1003 2811,1001 2810,1000 2810,998 2809,997 2809,995 2808,994 2808,993 2807,992 2807,991 2806,990 2806,988 2805,987 2805,986 2804,985 2804,984 2803,983 2803,981 2802,980 2802,979 2801,978 2801,976 2800,975 2800,973 2799,972 2799,970 2798,969 2798,967 2797,966 2797,965 2796,964 2796,963 2795,962 2795,960 2794,959 2794,958 2793,957 2793,956 2792,955 2792,953 2791,952 2791,950 2790,949 2790,948 2789,947 2789,945 2788,944 2788,942 2787,941 2787,940 2786,939 2786,937 2785,936 2785,934 2784,933 2784,932 2783,931 2783,930 2782,929 2782,928 2781,927 2781,925 2780,924 2780,923 2779,922 2779,920 2778,919 2778,918 2777,917 2777,916 2776,915 2776,913 2775,912 2775,911 2774,910 2774,908 2773,907 2773,905 2772,904 2772,903 2771,902 2771,900 2770,899 2770,897 2769,896 2769,895 2768,894 2768,892 2767,891 2767,890 2766,889 2766,887 2765,886 2765,884 2764,883 2764,882 2763,881 2763,879 2762,878 2762,877 2761,876 2761,874 2760,873 2760,872 2759,871 2759,870 2758,869 2758,867 2757,866 2757,865 2756,864 2756,863 2755,862 2755,860 2754,859 2754,857 2753,856 2753,854 2752,853 2752,851 2751,850 2751,849 2750,848 2750,846 2749,845 2749,843 2748,842 2748,841 2747,840 2747,839 2746,838 2746,836 2745,835 2745,834 2744,833 2744,831 2743,830 2743,829 2742,828 2742,826 2741,825 2741,824 2740,823 2740,821 2739,820 2739,818 2738,817 2738,816 2737,815 2737,813 2736,812 2736,811 2735,810 2735,808 2734,807 2734,805 2733,804 2733,802 2732,801 2732,800 2731,799 2731,797 2730,796 2730,794 2729,793 2729,791 2728,790 2728,787 2727,786 2727,784 2726,783 2726,781 2725,780 2725,777 2724,776 2724,773 2723,772 2723,769 2722,768 2722,761 2721,760 2721,757 2720,756 2720,754 2719,753 2719,751 2718,750 2718,748 2717,747 2717,746 2716,745 2716,744 2714,742 2713,742 2712,741 2711,741 2710,740 2708,740 2707,739 2702,739 2701,740 2669,740 2668,741 2582,741 2581,742 2549,742 2548,741 2539,741 2538,740 2529,740 2528,739 2519,739 2518,738" fill="rgba(187,198,171,0.3)" stroke="rgb(187,198,171)" stroke-width="2" data-block-id="0016" data-name="b-0028" /><text x="2726" y="922" text-anchor="middle" dominant-baseline="middle" class="block-label" fill="rgb(187,198,171)" stroke="white" stroke-width="3" paint-order="stroke">b-0028</text><polygon points="2598,427 2595,430 2594,430 2592,432 2591,432 2588,435 2587,435 2586,436 2586,437 2583,440 2582,440 2581,441 2578,441 2577,442 2576,442 2573,445 2572,445 2570,447 2569,447 2568,448 2567,448 2566,449 2565,449 2564,450 2563,450 2562,451 2561,451 2558,454 2557,454 2555,456 2554,456 2548,462 2547,462 2546,463 2544,463 2543,464 2541,464 2540,465 2538,465 2537,466 2536,466 2535,467 2533,467 2532,468 2530,468 2529,469 2527,469 2526,470 2523,470 2522,471 2519,471 2518,472 2515,472 2514,473 2511,473 2510,474 2505,474 2504,475 2500,475 2499,476 2496,476 2495,477 2492,477 2491,478 2489,478 2488,479 2486,479 2485,480 2484,480 2483,481 2482,481 2480,483 2479,483 2479,484 2478,485 2478,486 2477,487 2477,488 2476,489 2476,493 2475,494 2475,548 2476,549 2476,553 2475,554 2475,574 2476,575 2476,594 2477,595 2477,612 2476,613 2476,617 2475,618 2475,630 2476,631 2476,635 2477,636 2477,637 2478,638 2478,639 2480,641 2481,641 2482,642 2484,642 2485,643 2488,643 2489,644 2508,644 2509,645 2520,645 2521,644 2523,644 2524,643 2526,643 2527,642 2531,642 2532,643 2534,643 2535,644 2536,644 2537,645 2538,645 2539,646 2542,646 2543,645 2544,645 2545,644 2546,644 2550,640 2552,640 2553,639 2560,646 2562,646 2563,647 2569,647 2570,648 2578,648 2579,649 2594,649 2595,648 2626,648 2627,649 2638,649 2639,648 2646,648 2647,647 2651,647 2652,648 2699,648 2700,647 2703,647 2704,646 2705,646 2706,645 2706,644 2708,642 2708,640 2709,639 2709,633 2708,632 2708,630 2707,629 2707,628 2706,627 2706,626 2705,625 2705,623 2704,622 2704,621 2703,620 2703,618 2702,617 2702,615 2701,614 2701,613 2700,612 2700,611 2699,610 2699,609 2698,608 2698,606 2697,605 2697,604 2696,603 2696,602 2695,601 2695,600 2694,599 2694,597 2693,596 2693,594 2692,593 2692,591 2691,590 2691,588 2690,587 2690,581 2689,580 2689,577 2688,576 2688,575 2686,573 2686,572 2684,570 2684,569 2678,563 2678,561 2677,560 2677,556 2676,555 2676,553 2674,551 2674,550 2669,545 2668,545 2665,542 2665,541 2664,540 2664,539 2663,538 2663,536 2662,535 2662,534 2661,533 2661,531 2660,530 2660,523 2659,522 2659,515 2658,514 2658,511 2657,510 2657,507 2654,504 2654,503 2649,498 2649,497 2647,495 2647,494 2646,493 2646,491 2645,490 2645,489 2644,488 2644,486 2643,485 2643,483 2641,481 2641,480 2637,476 2637,475 2635,473 2635,472 2634,471 2634,470 2632,468 2632,467 2631,466 2631,465 2629,463 2629,462 2626,459 2626,458 2625,457 2625,456 2624,455 2624,452 2623,451 2623,450 2619,446 2618,446 2617,445 2616,445 2614,443 2613,443 2610,440 2610,439 2608,437 2608,435 2607,434 2607,432 2602,427" fill="rgba(156,14,44,0.3)" stroke="rgb(156,14,44)" stroke-width="2" data-block-id="0017" data-name="b-0046" /><text x="2596" y="541" text-anchor="middle" dominant-baseline="middle" class="block-label" fill="rgb(156,14,44)" stroke="white" stroke-width="3" paint-order="stroke">b-0046</text><polygon points="2385,3083 2384,3084 2379,3084 2378,3085 2376,3085 2374,3087 2374,3088 2373,3089 2373,3092 2372,3093 2372,3098 2371,3099 2371,3124 2370,3125 2370,3126 2369,3127 2369,3128 2367,3130 2366,3130 2365,3131 2364,3131 2363,3132 2358,3132 2357,3131 2354,3131 2353,3130 2349,3130 2348,3129 2347,3130 2339,3130 2338,3131 2328,3131 2327,3132 2187,3132 2186,3131 2184,3131 2183,3132 2182,3132 2181,3133 2180,3133 2180,3134 2179,3135 2179,3152 2180,3153 2180,3155 2181,3156 2181,3158 2182,3159 2182,3160 2184,3162 2186,3162 2187,3161 2192,3161 2193,3160 2197,3160 2198,3161 2203,3161 2204,3162 2212,3162 2213,3163 2225,3163 2226,3162 2231,3162 2232,3163 2234,3163 2235,3164 2237,3164 2238,3165 2239,3165 2240,3166 2241,3166 2242,3167 2243,3167 2244,3168 2247,3168 2248,3169 2247,3170 2242,3170 2241,3171 2240,3171 2239,3172 2238,3172 2237,3173 2235,3173 2234,3174 2232,3174 2231,3175 2192,3175 2191,3174 2182,3174 2181,3175 2181,3176 2179,3178 2179,3180 2178,3181 2178,3194 2179,3195 2179,3196 2181,3198 2182,3198 2183,3199 2203,3199 2204,3200 2211,3200 2212,3199 2230,3199 2231,3200 2273,3200 2274,3199 2280,3199 2281,3200 2309,3200 2310,3199 2322,3199 2323,3198 2326,3198 2327,3199 2333,3199 2334,3200 2342,3200 2343,3201 2352,3201 2353,3200 2356,3200 2357,3199 2364,3199 2365,3200 2366,3200 2371,3205 2371,3241 2373,3243 2374,3243 2375,3244 2380,3244 2381,3245 2399,3245 2400,3244 2432,3244 2433,3243 2435,3243 2438,3240 2438,3238 2437,3237 2437,3212 2438,3211 2438,3204 2439,3203 2439,3201 2443,3197 2448,3197 2449,3198 2452,3198 2453,3199 2460,3199 2461,3198 2466,3198 2467,3197 2473,3197 2474,3196 2477,3196 2478,3195 2508,3195 2509,3194 2525,3194 2526,3195 2531,3195 2532,3194 2550,3194 2551,3193 2553,3193 2554,3192 2558,3192 2559,3191 2566,3191 2567,3190 2583,3190 2584,3191 2623,3191 2624,3190 2625,3190 2627,3188 2627,3187 2628,3186 2628,3175 2627,3174 2627,3171 2626,3170 2626,3165 2627,3164 2627,3141 2628,3140 2628,3132 2627,3131 2627,3127 2626,3126 2626,3125 2624,3123 2623,3123 2622,3122 2615,3122 2614,3123 2609,3123 2608,3122 2595,3122 2594,3121 2578,3121 2577,3120 2563,3120 2562,3119 2546,3119 2545,3120 2538,3120 2537,3121 2530,3121 2529,3122 2523,3122 2522,3123 2499,3123 2498,3124 2488,3124 2487,3125 2471,3125 2470,3124 2469,3125 2459,3125 2458,3126 2454,3126 2453,3127 2451,3127 2450,3128 2449,3128 2448,3129 2447,3129 2446,3130 2443,3130 2442,3129 2442,3128 2441,3127 2441,3126 2440,3125 2440,3124 2439,3123 2439,3088 2438,3087 2438,3086 2436,3084 2435,3084 2434,3083" fill="rgba(235,135,215,0.3)" stroke="rgb(235,135,215)" stroke-width="2" data-block-id="0018" data-name="b-0049" /><text x="2383" y="3161" text-anchor="middle" dominant-baseline="middle" class="block-label" fill="rgb(235,135,215)" stroke="white" stroke-width="3" paint-order="stroke">b-0049</text><polygon points="3105,1683 2941,1270 2490,1262 2493,1683" fill="rgba(102,179,92,0.3)" stroke="rgb(102,179,92)" stroke-width="2" data-block-id="0019" data-name="b-0020" /><text x="2757" y="1474" text-anchor="middle" dominant-baseline="middle" class="block-label" fill="rgb(102,179,92)" stroke="white" stroke-width="3" paint-order="stroke">b-0020</text></g>
</svg>