<?xml version='1.0' encoding='utf-8'?>
<svg xmlns="http://www.w3.org/2000/svg" xmlns:atlas="http://example.com/atlas" width="4980" height="3313" viewBox="0 0 4980 3313">
  
  <metadata>
    <atlas:source>
      <atlas:jp2-path>../media/v1/p28.jp2</atlas:jp2-path>
      <atlas:volume>vol1</atlas:volume>
      <atlas:plate-id>p28</atlas:plate-id>
      <atlas:image-width>4980</atlas:image-width>
      <atlas:image-height>3313</atlas:image-height>
    </atlas:source>
  </metadata>

  
  <image id="background" href="file://../media/v1/p28.jp2" width="4980" height="3313" opacity="0.5" />

  <style>
    .block-label { font-family: sans-serif; font-size: 14px; font-weight: bold; }
  </style>

  
  <g id="blocks">
    <polygon points="2517,2528 2516,2529 2509,2529 2508,2530 2486,2530 2485,2529 2478,2529 2477,2530 2472,2530 2471,2531 2467,2531 2466,2532 2459,2532 2458,2533 2456,2533 2455,2532 2441,2532 2440,2533 2436,2533 2435,2534 2431,2534 2430,2535 2426,2535 2425,2536 2418,2536 2417,2537 2382,2537 2381,2536 2375,2536 2374,2535 2367,2535 2366,2534 2364,2534 2363,2535 2356,2535 2355,2536 2350,2536 2349,2537 2305,2537 2304,2536 2299,2536 2298,2535 2294,2535 2293,2534 2289,2534 2288,2533 2278,2533 2277,2534 2265,2534 2264,2535 2246,2535 2245,2536 2238,2536 2237,2537 2230,2537 2229,2538 2224,2538 2223,2537 2213,2537 2212,2536 2183,2536 2182,2535 2177,2535 2176,2534 2161,2534 2160,2535 2156,2535 2155,2536 2151,2536 2150,2537 2142,2537 2141,2538 2122,2538 2121,2539 2109,2539 2108,2540 2105,2540 2104,2541 2103,2541 2102,2542 2100,2542 2099,2543 2097,2543 2096,2544 2094,2544 2092,2546 2091,2546 2089,2548 2088,2548 2086,2550 2086,2551 2083,2554 2083,2555 2082,2556 2082,2557 2081,2558 2081,2559 2080,2560 2080,2562 2079,2563 2079,2565 2078,2566 2078,2570 2077,2571 2077,2596 2078,2597 2078,2602 2077,2603 2077,2631 2078,2632 2078,2663 2079,2664 2079,2691 2078,2692 2078,2728 2077,2729 2077,2767 2076,2768 2076,2808 2075,2809 2075,2815 2076,2816 2076,2847 2077,2848 2077,2876 2078,2877 2078,2881 2079,2882 2079,2884 2080,2885 2080,2887 2083,2890 2083,2891 2084,2891 2086,2893 2087,2893 2088,2894 2089,2894 2090,2895 2092,2895 2093,2896 2098,2896 2099,2897 2105,2897 2106,2898 2119,2898 2120,2899 2171,2899 2172,2900 2182,2900 2183,2901 2200,2901 2201,2902 2230,2902 2231,2901 2254,2901 2255,2902 2294,2902 2295,2901 2339,2901 2340,2902 2383,2902 2384,2901 2421,2901 2422,2902 2465,2902 2466,2901 2477,2901 2478,2900 2487,2900 2488,2899 2497,2899 2498,2898 2504,2898 2505,2897 2510,2897 2511,2896 2516,2896 2517,2895 2522,2895 2523,2894 2529,2894 2530,2893 2534,2893 2535,2892 2541,2892 2542,2891 2549,2891 2550,2890 2558,2890 2559,2889 2586,2889 2587,2890 2598,2890 2599,2891 2603,2891 2604,2892 2608,2892 2609,2893 2614,2893 2615,2894 2620,2894 2621,2895 2628,2895 2629,2896 2636,2896 2637,2897 2648,2897 2649,2898 2678,2898 2679,2899 2686,2899 2687,2900 2705,2900 2706,2901 2738,2901 2739,2900 2768,2900 2769,2901 2800,2901 2801,2902 2821,2902 2822,2901 2835,2901 2836,2902 2875,2902 2876,2903 2958,2903 2959,2904 3015,2904 3016,2903 3034,2903 3035,2904 3077,2904 3078,2905 3086,2905 3087,2904 3136,2904 3137,2903 3148,2903 3149,2902 3158,2902 3159,2901 3174,2901 3175,2900 3180,2900 3181,2899 3183,2899 3189,2893 3189,2891 3190,2890 3190,2887 3191,2886 3191,2843 3190,2842 3190,2820 3191,2819 3191,2781 3192,2780 3192,2770 3191,2769 3191,2737 3192,2736 3192,2730 3191,2729 3191,2683 3190,2682 3190,2669 3191,2668 3191,2659 3192,2658 3192,2653 3191,2652 3191,2640 3190,2639 3190,2633 3191,2632 3191,2608 3190,2607 3190,2587 3191,2586 3191,2568 3190,2567 3190,2561 3189,2560 3189,2556 3188,2555 3188,2552 3187,2551 3187,2550 3186,2549 3186,2548 3184,2546 3184,2545 3183,2544 3182,2544 3181,2543 3180,2543 3179,2542 3163,2542 3162,2541 3157,2541 3156,2540 3153,2540 3152,2539 3149,2539 3148,2538 3145,2538 3144,2537 3126,2537 3125,2536 3124,2537 3116,2537 3115,2538 3110,2538 3109,2539 3101,2539 3100,2540 3093,2540 3092,2539 3060,2539 3059,2538 3056,2538 3055,2537 3051,2537 3050,2536 3047,2536 3046,2535 3041,2535 3040,2534 3031,2534 3030,2533 2998,2533 2997,2532 2973,2532 2972,2533 2958,2533 2957,2532 2938,2532 2937,2533 2923,2533 2922,2532 2918,2532 2917,2531 2912,2531 2911,2530 2903,2530 2902,2531 2896,2531 2895,2532 2877,2532 2876,2531 2866,2531 2865,2532 2861,2532 2860,2533 2854,2533 2853,2534 2842,2534 2841,2533 2816,2533 2815,2534 2806,2534 2805,2533 2785,2533 2784,2534 2778,2534 2777,2535 2761,2535 2760,2534 2746,2534 2745,2533 2734,2533 2733,2532 2728,2532 2727,2531 2722,2531 2721,2530 2717,2530 2716,2529 2683,2529 2682,2528 2670,2528 2669,2529 2662,2529 2661,2530 2638,2530 2637,2529 2619,2529 2618,2528 2588,2528 2587,2529 2567,2529 2566,2528 2547,2528 2546,2529 2532,2529 2531,2528" fill="rgba(121,210,214,0.3)" stroke="rgb(121,210,214)" stroke-width="2" data-block-id="0001" data-name="b-0005" /><text x="2616" y="2674" text-anchor="middle" dominant-baseline="middle" class="block-label" fill="rgb(121,210,214)" stroke="white" stroke-width="3" paint-order="stroke">b-0005</text><polygon points="3526,2542 3525,2543 3478,2543 3477,2544 3443,2544 3442,2545 3439,2545 3438,2546 3430,2546 3429,2545 3386,2545 3385,2544 3370,2544 3369,2543 3361,2543 3360,2544 3357,2544 3356,2545 3354,2545 3353,2546 3352,2546 3351,2547 3350,2547 3349,2548 3348,2548 3347,2549 3346,2549 3342,2553 3342,2554 3341,2555 3341,2556 3340,2557 3340,2560 3339,2561 3339,2564 3338,2565 3338,2567 3339,2568 3339,2572 3340,2573 3340,2576 3341,2577 3341,2580 3340,2581 3340,2585 3339,2586 3339,2596 3338,2597 3338,2603 3337,2604 3337,2616 3338,2617 3338,2626 3339,2627 3339,2629 3338,2630 3338,2639 3339,2640 3339,2667 3340,2668 3340,2690 3339,2691 3339,2739 3340,2740 3340,2802 3341,2803 3341,2810 3340,2811 3340,2836 3341,2837 3341,2872 3340,2873 3340,2882 3341,2883 3341,2891 3342,2892 3342,2894 3343,2895 3343,2897 3344,2898 3344,2899 3345,2900 3346,2900 3347,2901 3348,2901 3349,2902 3359,2902 3360,2903 3374,2903 3375,2902 3402,2902 3403,2903 3428,2903 3429,2902 3437,2902 3438,2903 3472,2903 3473,2902 3495,2902 3496,2903 3521,2903 3522,2902 3537,2902 3538,2903 3550,2903 3551,2902 3556,2902 3557,2903 3568,2903 3569,2902 3637,2902 3638,2903 3665,2903 3666,2902 3685,2902 3686,2903 3713,2903 3714,2902 3722,2902 3723,2903 3730,2903 3731,2904 3754,2904 3755,2903 3767,2903 3768,2902 3776,2902 3777,2903 3856,2903 3857,2902 3861,2902 3862,2901 3869,2901 3870,2902 3892,2902 3893,2903 3912,2903 3913,2904 3939,2904 3940,2903 3980,2903 3981,2904 3983,2904 3984,2905 3985,2905 3986,2906 3988,2906 3989,2907 3991,2907 3992,2908 4003,2908 4004,2907 4009,2907 4010,2906 4013,2906 4014,2905 4017,2905 4018,2904 4028,2904 4029,2905 4040,2905 4041,2906 4045,2906 4046,2905 4119,2905 4120,2906 4124,2906 4125,2907 4131,2907 4132,2908 4141,2908 4142,2907 4144,2907 4145,2906 4146,2906 4147,2905 4148,2905 4149,2904 4183,2904 4184,2905 4191,2905 4192,2904 4208,2904 4209,2903 4211,2903 4212,2904 4221,2904 4222,2905 4230,2905 4231,2906 4242,2906 4243,2905 4250,2905 4251,2906 4257,2906 4258,2905 4264,2905 4265,2904 4272,2904 4273,2905 4278,2905 4279,2906 4294,2906 4295,2905 4311,2905 4312,2904 4327,2904 4328,2905 4335,2905 4336,2904 4342,2904 4343,2905 4368,2905 4369,2906 4382,2906 4383,2905 4400,2905 4401,2906 4416,2906 4417,2907 4432,2907 4433,2906 4470,2906 4471,2907 4498,2907 4499,2906 4530,2906 4531,2905 4548,2905 4549,2906 4563,2906 4564,2905 4568,2905 4569,2904 4570,2904 4575,2899 4575,2896 4576,2895 4576,2869 4575,2868 4575,2856 4576,2855 4576,2843 4575,2842 4575,2813 4574,2812 4574,2769 4573,2768 4573,2766 4574,2765 4574,2754 4573,2753 4573,2729 4572,2728 4572,2724 4571,2723 4571,2716 4572,2715 4572,2683 4573,2682 4573,2672 4572,2671 4572,2666 4571,2665 4571,2642 4570,2641 4570,2633 4571,2632 4571,2617 4570,2616 4570,2612 4571,2611 4571,2592 4570,2591 4570,2586 4571,2585 4571,2574 4570,2573 4570,2552 4569,2551 4569,2550 4566,2547 4563,2547 4562,2546 4501,2546 4500,2545 4491,2545 4490,2546 4428,2546 4427,2547 4423,2547 4422,2546 4357,2546 4356,2545 4338,2545 4337,2546 4301,2546 4300,2545 4296,2545 4295,2544 4292,2544 4291,2545 4284,2545 4283,2546 4260,2546 4259,2545 4229,2545 4228,2544 4193,2544 4192,2545 4160,2545 4159,2546 4155,2546 4154,2547 4152,2547 4151,2548 4150,2548 4149,2549 4148,2549 4147,2550 4146,2550 4145,2551 4143,2551 4142,2552 4140,2552 4139,2553 4105,2553 4104,2554 4085,2554 4084,2555 4059,2555 4058,2554 4051,2554 4050,2553 4042,2553 4041,2552 4040,2553 4004,2553 4003,2552 3996,2552 3995,2551 3991,2551 3990,2550 3987,2550 3986,2549 3985,2549 3984,2548 3983,2548 3982,2547 3981,2547 3980,2546 3978,2546 3977,2545 3968,2545 3967,2544 3950,2544 3949,2543 3944,2543 3943,2544 3929,2544 3928,2543 3891,2543 3890,2542 3886,2542 3885,2543 3869,2543 3868,2542 3858,2542 3857,2543 3804,2543 3803,2542 3762,2542 3761,2543 3748,2543 3747,2542 3740,2542 3739,2543 3728,2543 3727,2542 3690,2542 3689,2543 3681,2543 3680,2542 3667,2542 3666,2543 3639,2543 3638,2544 3630,2544 3629,2543 3622,2543 3621,2544 3585,2544 3584,2543 3534,2543 3533,2542" fill="rgba(151,130,149,0.3)" stroke="rgb(151,130,149)" stroke-width="2" data-block-id="0002" data-name="b-0010" /><text x="3943" y="2723" text-anchor="middle" dominant-baseline="middle" class="block-label" fill="rgb(151,130,149)" stroke="white" stroke-width="3" paint-order="stroke">b-0010</text><polygon points="4016,2076 4015,2077 4007,2077 4006,2078 4000,2078 3999,2079 3964,2079 3963,2080 3947,2080 3946,2079 3910,2079 3909,2078 3894,2078 3893,2079 3857,2079 3856,2078 3834,2078 3833,2077 3824,2077 3823,2078 3804,2078 3803,2079 3792,2079 3791,2080 3786,2080 3785,2081 3781,2081 3780,2082 3761,2082 3760,2081 3731,2081 3730,2080 3713,2080 3712,2079 3701,2079 3700,2080 3698,2080 3697,2079 3690,2079 3689,2078 3677,2078 3676,2079 3670,2079 3669,2078 3653,2078 3652,2079 3608,2079 3607,2080 3575,2080 3574,2079 3550,2079 3549,2078 3517,2078 3516,2079 3510,2079 3509,2080 3499,2080 3498,2079 3485,2079 3484,2080 3477,2080 3476,2081 3406,2081 3405,2082 3385,2082 3384,2081 3369,2081 3368,2080 3351,2080 3350,2081 3347,2081 3346,2082 3344,2082 3343,2083 3342,2083 3341,2084 3340,2084 3337,2087 3337,2089 3336,2090 3336,2098 3335,2099 3335,2104 3336,2105 3336,2117 3335,2118 3335,2128 3336,2129 3336,2193 3335,2194 3335,2209 3336,2210 3336,2215 3337,2216 3337,2233 3336,2234 3336,2251 3337,2252 3337,2261 3336,2262 3336,2279 3337,2280 3337,2301 3336,2302 3336,2306 3337,2307 3337,2358 3338,2359 3338,2370 3337,2371 3337,2386 3338,2387 3338,2405 3337,2406 3337,2421 3338,2422 3338,2424 3339,2425 3339,2426 3341,2428 3342,2428 3343,2429 3344,2429 3345,2430 3347,2430 3348,2431 3351,2431 3352,2432 3369,2432 3370,2433 3397,2433 3398,2432 3407,2432 3408,2431 3417,2431 3418,2432 3426,2432 3427,2431 3434,2431 3435,2430 3455,2430 3456,2429 3467,2429 3468,2430 3472,2430 3473,2431 3509,2431 3510,2432 3515,2432 3516,2433 3524,2433 3525,2434 3549,2434 3550,2433 3627,2433 3628,2434 3644,2434 3645,2433 3656,2433 3657,2434 3661,2434 3662,2433 3688,2433 3689,2432 3710,2432 3711,2433 3738,2433 3739,2432 3748,2432 3749,2433 3752,2433 3753,2434 3762,2434 3763,2433 3803,2433 3804,2434 3859,2434 3860,2433 3889,2433 3890,2434 3897,2434 3898,2435 3942,2435 3943,2436 3948,2436 3949,2435 3956,2435 3957,2434 3977,2434 3978,2433 3991,2433 3992,2434 4015,2434 4016,2435 4021,2435 4022,2434 4072,2434 4073,2433 4084,2433 4085,2434 4109,2434 4110,2435 4116,2435 4117,2434 4124,2434 4125,2433 4129,2433 4130,2434 4165,2434 4166,2433 4178,2433 4179,2434 4218,2434 4219,2433 4223,2433 4224,2434 4231,2434 4232,2435 4241,2435 4242,2434 4273,2434 4274,2435 4295,2435 4296,2434 4338,2434 4339,2435 4379,2435 4380,2434 4385,2434 4386,2433 4410,2433 4411,2434 4459,2434 4460,2433 4484,2433 4485,2434 4498,2434 4499,2433 4516,2433 4517,2434 4524,2434 4525,2433 4557,2433 4558,2432 4562,2432 4563,2431 4564,2431 4565,2430 4566,2430 4567,2429 4567,2428 4568,2427 4568,2426 4569,2425 4569,2410 4570,2409 4570,2395 4569,2394 4569,2324 4570,2323 4570,2262 4571,2261 4571,2249 4570,2248 4570,2236 4569,2235 4569,2142 4568,2141 4568,2119 4569,2118 4569,2101 4568,2100 4568,2088 4567,2087 4567,2085 4566,2084 4566,2083 4565,2082 4564,2082 4562,2080 4560,2080 4559,2079 4555,2079 4554,2078 4487,2078 4486,2077 4464,2077 4463,2078 4451,2078 4450,2079 4430,2079 4429,2080 4421,2080 4420,2081 4416,2081 4415,2082 4410,2082 4409,2081 4404,2081 4403,2080 4398,2080 4397,2079 4392,2079 4391,2078 4330,2078 4329,2079 4293,2079 4292,2078 4199,2078 4198,2077 4166,2077 4165,2078 4143,2078 4142,2077 4122,2077 4121,2078 4111,2078 4110,2077 4069,2077 4068,2076 4065,2076 4064,2077 4048,2077 4047,2076 4034,2076 4033,2077 4027,2077 4026,2076" fill="rgba(52,1,87,0.3)" stroke="rgb(52,1,87)" stroke-width="2" data-block-id="0003" data-name="b-0011" /><text x="3900" y="2256" text-anchor="middle" dominant-baseline="middle" class="block-label" fill="rgb(52,1,87)" stroke="white" stroke-width="3" paint-order="stroke">b-0011</text><polygon points="1286,2542 1285,2543 1261,2543 1260,2544 1230,2544 1229,2543 1208,2543 1207,2544 1199,2544 1198,2545 1166,2545 1165,2544 1160,2544 1159,2545 1155,2545 1154,2546 1151,2546 1150,2547 1131,2547 1130,2546 1126,2546 1125,2547 1123,2547 1122,2548 1121,2548 1117,2552 1116,2552 1115,2553 1114,2553 1113,2552 1111,2552 1110,2551 1103,2551 1102,2550 1089,2550 1088,2551 1084,2551 1083,2552 1076,2552 1075,2551 1073,2551 1072,2550 1068,2550 1067,2549 1057,2549 1056,2548 1054,2548 1052,2546 1051,2546 1050,2545 1049,2545 1048,2544 1047,2544 1046,2543 1042,2543 1041,2544 1040,2544 1039,2545 1037,2545 1036,2546 1035,2546 1034,2547 1027,2547 1026,2546 1011,2546 1010,2545 978,2545 977,2546 967,2546 966,2545 951,2545 950,2544 914,2544 913,2545 906,2545 905,2546 888,2546 887,2545 871,2545 870,2546 823,2546 822,2545 814,2545 813,2546 792,2546 791,2545 789,2545 788,2546 715,2546 714,2545 683,2545 682,2546 681,2546 677,2550 677,2551 676,2552 676,2554 675,2555 675,2559 674,2560 674,2565 673,2566 673,2569 674,2570 674,2592 675,2593 675,2630 674,2631 674,2645 673,2646 673,2654 672,2655 672,2667 673,2668 673,2674 674,2675 674,2715 675,2716 675,2720 676,2721 676,2724 677,2725 677,2729 678,2730 678,2738 677,2739 677,2742 676,2743 676,2748 675,2749 675,2759 676,2760 676,2764 677,2765 677,2768 678,2769 678,2780 677,2781 677,2794 676,2795 676,2800 675,2801 675,2809 676,2810 676,2820 675,2821 675,2823 674,2824 674,2826 673,2827 673,2830 672,2831 672,2873 671,2874 671,2881 672,2882 672,2889 673,2890 673,2892 677,2896 678,2896 679,2897 680,2897 681,2898 683,2898 684,2899 692,2899 693,2898 700,2898 701,2899 710,2899 711,2900 739,2900 740,2899 755,2899 756,2900 760,2900 761,2899 774,2899 775,2900 783,2900 784,2899 790,2899 791,2898 796,2898 797,2899 804,2899 805,2900 835,2900 836,2899 847,2899 848,2900 859,2900 860,2901 871,2901 872,2902 879,2902 880,2903 889,2903 890,2904 900,2904 901,2903 904,2903 905,2902 907,2902 908,2901 941,2901 942,2902 945,2902 946,2903 953,2903 954,2902 979,2902 980,2901 987,2901 988,2902 1018,2902 1019,2903 1028,2903 1029,2904 1041,2904 1042,2905 1043,2904 1049,2904 1050,2903 1060,2903 1061,2902 1072,2902 1073,2901 1091,2901 1092,2902 1096,2902 1097,2903 1101,2903 1102,2904 1124,2904 1125,2905 1138,2905 1139,2904 1143,2904 1144,2903 1147,2903 1148,2902 1153,2902 1154,2901 1166,2901 1167,2900 1172,2900 1173,2899 1182,2899 1183,2900 1198,2900 1199,2901 1207,2901 1208,2902 1214,2902 1215,2901 1244,2901 1245,2900 1249,2900 1250,2901 1261,2901 1262,2900 1290,2900 1291,2901 1324,2901 1325,2900 1338,2900 1339,2899 1404,2899 1405,2898 1422,2898 1423,2897 1472,2897 1473,2898 1517,2898 1518,2897 1543,2897 1544,2898 1568,2898 1569,2899 1573,2899 1574,2900 1578,2900 1579,2901 1599,2901 1600,2900 1668,2900 1669,2901 1707,2901 1708,2900 1745,2900 1746,2899 1752,2899 1753,2900 1770,2900 1771,2901 1805,2901 1806,2902 1833,2902 1834,2901 1866,2901 1867,2900 1880,2900 1881,2899 1883,2899 1884,2898 1886,2898 1887,2897 1888,2897 1889,2896 1890,2896 1891,2895 1892,2895 1893,2894 1894,2894 1896,2892 1896,2891 1897,2890 1897,2889 1898,2888 1898,2840 1897,2839 1897,2822 1896,2821 1896,2775 1897,2774 1897,2761 1898,2760 1898,2754 1899,2753 1899,2736 1898,2735 1898,2724 1897,2723 1897,2666 1896,2665 1896,2651 1897,2650 1897,2627 1896,2626 1896,2605 1897,2604 1897,2593 1898,2592 1898,2588 1897,2587 1897,2578 1896,2577 1896,2569 1895,2568 1895,2553 1894,2552 1894,2551 1891,2548 1890,2548 1889,2547 1888,2547 1887,2546 1883,2546 1882,2545 1814,2545 1813,2544 1736,2544 1735,2545 1734,2545 1733,2544 1698,2544 1697,2545 1670,2545 1669,2544 1660,2544 1659,2543 1650,2543 1649,2544 1643,2544 1642,2545 1627,2545 1626,2544 1621,2544 1620,2543 1608,2543 1607,2542 1606,2542 1605,2543 1597,2543 1596,2544 1580,2544 1579,2545 1568,2545 1567,2544 1560,2544 1559,2543 1555,2543 1554,2544 1552,2544 1551,2545 1545,2545 1544,2546 1531,2546 1530,2545 1526,2545 1525,2544 1465,2544 1464,2545 1445,2545 1444,2544 1417,2544 1416,2543 1412,2543 1411,2544 1322,2544 1321,2545 1304,2545 1303,2544 1300,2544 1299,2543 1297,2543 1296,2542" fill="rgba(235,157,37,0.3)" stroke="rgb(235,157,37)" stroke-width="2" data-block-id="0004" data-name="b-0012" /><text x="1203" y="2720" text-anchor="middle" dominant-baseline="middle" class="block-label" fill="rgb(235,157,37)" stroke="white" stroke-width="3" paint-order="stroke">b-0012</text><polygon points="797,2076 796,2077 791,2077 790,2078 787,2078 786,2079 784,2079 783,2080 776,2080 775,2079 752,2079 751,2080 741,2080 740,2079 713,2079 712,2078 691,2078 690,2079 685,2079 684,2080 682,2080 681,2081 680,2081 678,2083 677,2083 673,2087 673,2089 672,2090 672,2112 673,2113 673,2118 674,2119 674,2164 673,2165 673,2179 672,2180 672,2195 673,2196 673,2204 674,2205 674,2219 675,2220 675,2232 676,2233 676,2250 675,2251 675,2258 674,2259 674,2298 675,2299 675,2308 674,2309 674,2341 675,2342 675,2360 674,2361 674,2364 675,2365 675,2407 674,2408 674,2413 675,2414 675,2419 676,2420 676,2424 678,2426 678,2427 679,2428 680,2428 682,2430 684,2430 685,2431 695,2431 696,2432 705,2432 706,2431 734,2431 735,2432 741,2432 742,2433 783,2433 784,2432 796,2432 797,2431 814,2431 815,2432 829,2432 830,2433 835,2433 836,2434 865,2434 866,2435 870,2435 871,2436 874,2436 875,2437 883,2437 884,2436 899,2436 900,2435 904,2435 905,2434 909,2434 910,2433 926,2433 927,2434 930,2434 931,2435 937,2435 938,2436 939,2435 948,2435 949,2434 952,2434 953,2433 955,2433 956,2432 961,2432 962,2431 963,2432 975,2432 976,2433 1003,2433 1004,2434 1011,2434 1012,2433 1028,2433 1029,2434 1033,2434 1034,2433 1041,2433 1042,2432 1058,2432 1059,2433 1070,2433 1071,2434 1075,2434 1076,2435 1095,2435 1096,2434 1103,2434 1104,2433 1134,2433 1135,2432 1144,2432 1145,2433 1152,2433 1153,2434 1156,2434 1157,2435 1161,2435 1162,2436 1170,2436 1171,2437 1176,2437 1177,2436 1182,2436 1183,2435 1188,2435 1189,2434 1197,2434 1198,2433 1223,2433 1224,2432 1227,2432 1228,2431 1232,2431 1233,2430 1253,2430 1254,2431 1263,2431 1264,2432 1270,2432 1271,2433 1273,2433 1274,2432 1288,2432 1289,2433 1297,2433 1298,2432 1333,2432 1334,2431 1343,2431 1344,2432 1358,2432 1359,2433 1375,2433 1376,2432 1434,2432 1435,2433 1450,2433 1451,2434 1456,2434 1457,2435 1464,2435 1465,2434 1467,2434 1468,2433 1471,2433 1472,2432 1506,2432 1507,2433 1511,2433 1512,2432 1539,2432 1540,2433 1558,2433 1559,2432 1562,2432 1563,2431 1566,2431 1567,2430 1570,2430 1571,2431 1575,2431 1576,2432 1579,2432 1580,2433 1585,2433 1586,2432 1598,2432 1599,2433 1610,2433 1611,2432 1655,2432 1656,2431 1662,2431 1663,2430 1667,2430 1668,2431 1718,2431 1719,2432 1737,2432 1738,2433 1751,2433 1752,2432 1757,2432 1758,2431 1768,2431 1769,2432 1780,2432 1781,2431 1783,2431 1784,2432 1834,2432 1835,2431 1881,2431 1882,2430 1884,2430 1885,2429 1888,2429 1889,2428 1890,2428 1894,2424 1894,2421 1895,2420 1895,2379 1894,2378 1894,2371 1895,2370 1895,2327 1894,2326 1894,2314 1895,2313 1895,2301 1896,2300 1896,2287 1895,2286 1895,2235 1894,2234 1894,2210 1895,2209 1895,2194 1896,2193 1896,2177 1895,2176 1895,2170 1896,2169 1896,2131 1895,2130 1895,2121 1896,2120 1896,2094 1895,2093 1895,2088 1894,2087 1894,2086 1890,2082 1888,2082 1887,2081 1884,2081 1883,2080 1878,2080 1877,2079 1840,2079 1839,2078 1817,2078 1816,2077 1805,2077 1804,2078 1792,2078 1791,2079 1756,2079 1755,2078 1749,2078 1748,2077 1721,2077 1720,2078 1715,2078 1714,2079 1702,2079 1701,2078 1693,2078 1692,2077 1676,2077 1675,2078 1671,2078 1670,2079 1666,2079 1665,2080 1663,2080 1662,2079 1656,2079 1655,2078 1616,2078 1615,2077 1614,2078 1579,2078 1578,2079 1575,2079 1574,2080 1572,2080 1571,2081 1566,2081 1565,2080 1562,2080 1561,2079 1559,2079 1558,2078 1552,2078 1551,2079 1471,2079 1470,2078 1465,2078 1464,2077 1456,2077 1455,2078 1434,2078 1433,2079 1414,2079 1413,2078 1387,2078 1386,2077 1370,2077 1369,2076 1362,2076 1361,2077 1347,2077 1346,2078 1336,2078 1335,2079 1322,2079 1321,2078 1293,2078 1292,2077 1287,2077 1286,2076 1261,2076 1260,2077 1252,2077 1251,2078 1243,2078 1242,2077 1215,2077 1214,2076 1199,2076 1198,2077 1160,2077 1159,2078 1148,2078 1147,2079 1115,2079 1114,2078 1089,2078 1088,2077 1074,2077 1073,2078 1048,2078 1047,2079 1041,2079 1040,2078 1013,2078 1012,2077 1005,2077 1004,2076 986,2076 985,2077 978,2077 977,2078 972,2078 971,2079 876,2079 875,2080 870,2080 869,2081 857,2081 856,2080 850,2080 849,2079 831,2079 830,2078 821,2078 820,2077 814,2077 813,2076" fill="rgba(129,191,187,0.3)" stroke="rgb(129,191,187)" stroke-width="2" data-block-id="0005" data-name="b-0013" /><text x="1251" y="2269" text-anchor="middle" dominant-baseline="middle" class="block-label" fill="rgb(129,191,187)" stroke="white" stroke-width="3" paint-order="stroke">b-0013</text><polygon points="826,1168 825,1169 822,1169 821,1170 818,1170 817,1171 813,1171 812,1172 777,1172 776,1173 767,1173 766,1172 759,1172 758,1171 753,1171 752,1170 744,1170 742,1172 741,1172 740,1173 738,1173 737,1174 736,1174 735,1175 731,1175 730,1174 726,1174 725,1173 719,1173 718,1174 714,1174 713,1175 696,1175 695,1176 693,1176 692,1177 691,1177 690,1178 689,1178 688,1179 688,1180 683,1185 682,1185 680,1187 680,1188 679,1189 679,1190 678,1191 678,1197 679,1198 679,1208 680,1209 680,1216 679,1217 679,1221 678,1222 678,1224 677,1225 677,1226 676,1227 676,1229 675,1230 675,1233 674,1234 674,1269 673,1270 673,1294 672,1295 672,1301 673,1302 673,1310 674,1311 674,1316 673,1317 673,1344 674,1345 674,1374 673,1375 673,1384 672,1385 672,1400 673,1401 673,1405 674,1406 674,1414 675,1415 675,1426 674,1427 674,1462 675,1463 675,1472 674,1473 674,1498 675,1499 675,1505 676,1506 676,1508 677,1509 677,1510 678,1511 678,1512 680,1514 681,1514 682,1515 683,1515 684,1516 690,1516 691,1517 716,1517 717,1518 731,1518 732,1517 743,1517 744,1516 748,1516 749,1517 759,1517 760,1518 778,1518 779,1517 804,1517 805,1518 856,1518 857,1519 863,1519 864,1520 881,1520 882,1519 895,1519 896,1518 903,1518 904,1517 912,1517 913,1516 955,1516 956,1517 1004,1517 1005,1518 1012,1518 1013,1519 1018,1519 1019,1520 1055,1520 1056,1519 1058,1519 1059,1520 1071,1520 1072,1519 1094,1519 1095,1518 1099,1518 1100,1517 1103,1517 1104,1516 1109,1516 1110,1515 1115,1515 1116,1514 1137,1514 1138,1515 1141,1515 1142,1516 1145,1516 1146,1517 1151,1517 1152,1518 1158,1518 1159,1519 1170,1519 1171,1518 1228,1518 1229,1517 1245,1517 1246,1518 1274,1518 1275,1517 1283,1517 1284,1516 1287,1516 1288,1515 1290,1515 1291,1514 1293,1514 1294,1513 1298,1513 1299,1514 1316,1514 1317,1513 1329,1513 1330,1512 1336,1512 1337,1511 1351,1511 1352,1512 1384,1512 1385,1511 1390,1511 1391,1512 1394,1512 1395,1513 1397,1513 1398,1514 1399,1514 1400,1515 1416,1515 1417,1514 1421,1514 1422,1513 1426,1513 1427,1512 1433,1512 1434,1511 1439,1511 1440,1512 1445,1512 1446,1513 1452,1513 1453,1514 1461,1514 1462,1515 1473,1515 1474,1516 1479,1516 1480,1517 1485,1517 1486,1518 1492,1518 1493,1519 1514,1519 1515,1518 1528,1518 1529,1519 1603,1519 1604,1518 1608,1518 1609,1517 1612,1517 1613,1516 1615,1516 1616,1515 1626,1515 1627,1514 1629,1514 1630,1515 1667,1515 1668,1516 1687,1516 1688,1515 1693,1515 1694,1514 1705,1514 1706,1515 1718,1515 1719,1514 1727,1514 1728,1515 1733,1515 1734,1516 1740,1516 1741,1517 1747,1517 1748,1518 1751,1518 1752,1519 1755,1519 1756,1520 1764,1520 1765,1521 1783,1521 1784,1520 1797,1520 1798,1521 1851,1521 1852,1520 1880,1520 1881,1519 1883,1519 1884,1518 1886,1518 1887,1517 1888,1517 1891,1514 1891,1512 1892,1511 1892,1509 1893,1508 1893,1505 1894,1504 1894,1439 1895,1438 1895,1429 1894,1428 1894,1423 1893,1422 1893,1407 1894,1406 1894,1401 1895,1400 1895,1383 1894,1382 1894,1377 1893,1376 1893,1373 1892,1372 1892,1365 1893,1364 1893,1357 1894,1356 1894,1352 1895,1351 1895,1338 1894,1337 1894,1308 1895,1307 1895,1287 1894,1286 1894,1270 1893,1269 1893,1265 1894,1264 1894,1259 1895,1258 1895,1238 1894,1237 1894,1214 1895,1213 1895,1207 1896,1206 1896,1192 1895,1191 1895,1190 1894,1189 1894,1188 1893,1187 1893,1186 1888,1181 1888,1180 1886,1178 1885,1178 1883,1176 1882,1176 1881,1175 1860,1175 1859,1176 1852,1176 1851,1175 1802,1175 1801,1176 1792,1176 1791,1175 1787,1175 1786,1174 1781,1174 1780,1173 1769,1173 1768,1174 1759,1174 1758,1175 1716,1175 1715,1176 1700,1176 1699,1175 1696,1175 1695,1174 1691,1174 1690,1173 1667,1173 1666,1174 1575,1174 1574,1175 1567,1175 1566,1174 1563,1174 1562,1173 1559,1173 1558,1172 1555,1172 1554,1171 1552,1171 1551,1170 1549,1170 1548,1169 1540,1169 1539,1170 1534,1170 1533,1171 1529,1171 1528,1172 1525,1172 1524,1173 1516,1173 1515,1172 1493,1172 1492,1173 1482,1173 1481,1174 1430,1174 1429,1173 1425,1173 1424,1172 1418,1172 1417,1171 1412,1171 1411,1170 1405,1170 1404,1169 1397,1169 1396,1170 1390,1170 1389,1171 1388,1171 1387,1172 1385,1172 1384,1173 1382,1173 1381,1174 1372,1174 1371,1173 1339,1173 1338,1174 1322,1174 1321,1173 1304,1173 1303,1174 1291,1174 1290,1173 1288,1173 1287,1172 1285,1172 1284,1171 1282,1171 1281,1170 1279,1170 1278,1169 1274,1169 1273,1168 1269,1168 1268,1169 1265,1169 1264,1170 1262,1170 1261,1171 1254,1171 1253,1170 1248,1170 1247,1169 1241,1169 1240,1168 1234,1168 1232,1170 1231,1170 1229,1172 1228,1172 1227,1173 1226,1173 1225,1174 1222,1174 1221,1175 1209,1175 1208,1174 1196,1174 1195,1175 1189,1175 1188,1176 1173,1176 1172,1175 1154,1175 1153,1174 1138,1174 1137,1173 1134,1173 1133,1172 1131,1172 1130,1171 1124,1171 1123,1172 1121,1172 1120,1173 1117,1173 1116,1174 1085,1174 1084,1175 1065,1175 1064,1174 1047,1174 1046,1175 1033,1175 1032,1174 1010,1174 1009,1173 1000,1173 999,1172 993,1172 992,1173 959,1173 958,1174 948,1174 947,1175 946,1174 932,1174 931,1175 921,1175 920,1174 916,1174 915,1173 907,1173 906,1174 881,1174 880,1175 877,1175 876,1174 870,1174 869,1173 862,1173 861,1172 842,1172 841,1171 838,1171 837,1170 836,1170 835,1169 832,1169 831,1168" fill="rgba(20,160,203,0.3)" stroke="rgb(20,160,203)" stroke-width="2" data-block-id="0006" data-name="b-0014" /><text x="1258" y="1326" text-anchor="middle" dominant-baseline="middle" class="block-label" fill="rgb(20,160,203)" stroke="white" stroke-width="3" paint-order="stroke">b-0014</text><polygon points="1399,703 1398,704 1394,704 1393,705 1388,705 1387,706 1381,706 1380,707 1376,707 1375,706 1370,706 1369,705 1359,705 1358,706 1352,706 1351,707 1341,707 1340,708 1290,708 1289,707 1264,707 1263,706 1260,706 1259,705 1257,705 1256,706 1251,706 1250,707 1243,707 1242,706 1239,706 1238,705 1227,705 1226,706 1220,706 1219,705 1213,705 1212,704 1209,704 1208,705 1205,705 1204,706 1196,706 1195,707 1172,707 1171,706 1168,706 1167,705 1165,705 1164,704 1161,704 1160,705 1157,705 1156,706 1150,706 1149,707 1148,706 1130,706 1129,707 1128,707 1127,706 1115,706 1114,707 1113,707 1112,708 1109,708 1108,709 1050,709 1049,708 1045,708 1044,707 1029,707 1028,706 1022,706 1021,705 1020,705 1019,706 1014,706 1013,707 1001,707 1000,706 996,706 995,705 981,705 980,706 977,706 976,707 973,707 972,708 956,708 955,707 951,707 950,706 934,706 933,707 928,707 927,708 923,708 922,709 915,709 914,710 911,710 910,709 853,709 852,708 715,708 714,707 689,707 688,708 684,708 683,709 682,709 681,710 680,710 677,713 677,714 676,715 676,716 675,717 675,719 674,720 674,736 675,737 675,743 676,744 676,749 677,750 677,753 678,754 678,756 679,757 679,759 680,760 680,762 681,763 681,764 683,766 683,767 684,768 684,769 685,770 685,772 686,773 686,776 687,777 687,781 688,782 688,796 689,797 689,800 690,801 690,808 689,809 689,812 688,813 688,814 687,815 687,821 688,822 688,829 689,830 688,831 688,854 686,856 686,857 682,861 682,862 680,864 680,865 679,866 679,868 678,869 678,870 677,871 677,873 676,874 676,879 677,880 677,885 678,886 678,890 679,891 679,892 680,893 680,894 682,896 682,897 685,900 685,901 686,902 686,903 687,904 687,907 688,908 688,944 689,945 689,959 688,960 688,961 686,963 685,963 682,966 682,967 681,968 681,969 680,970 680,971 679,972 679,976 678,977 678,984 677,985 677,994 676,995 676,1008 677,1009 677,1020 678,1021 678,1032 679,1033 679,1036 678,1037 678,1041 679,1042 679,1043 680,1044 680,1045 681,1046 682,1046 683,1047 685,1047 686,1048 692,1048 693,1049 714,1049 715,1050 752,1050 753,1049 761,1049 762,1050 793,1050 794,1051 811,1051 812,1050 839,1050 840,1049 846,1049 847,1048 852,1048 853,1047 860,1047 861,1046 872,1046 873,1045 887,1045 888,1044 899,1044 900,1043 903,1043 904,1042 906,1042 907,1041 909,1041 910,1040 918,1040 919,1039 936,1039 937,1038 961,1038 962,1039 966,1039 967,1040 1009,1040 1010,1039 1023,1039 1024,1038 1029,1038 1030,1037 1043,1037 1044,1038 1054,1038 1055,1039 1064,1039 1065,1040 1069,1040 1070,1039 1088,1039 1089,1038 1090,1038 1091,1039 1101,1039 1102,1040 1120,1040 1121,1039 1139,1039 1140,1038 1150,1038 1151,1037 1156,1037 1157,1038 1165,1038 1166,1037 1195,1037 1196,1038 1228,1038 1229,1039 1237,1039 1238,1038 1288,1038 1289,1039 1338,1039 1339,1038 1358,1038 1359,1039 1367,1039 1368,1038 1382,1038 1383,1039 1405,1039 1406,1038 1414,1038 1415,1037 1416,1038 1429,1038 1430,1039 1450,1039 1451,1040 1462,1040 1463,1041 1467,1041 1468,1042 1470,1042 1471,1043 1489,1043 1490,1042 1499,1042 1500,1043 1507,1043 1508,1044 1511,1044 1512,1045 1516,1045 1517,1046 1523,1046 1524,1047 1533,1047 1534,1048 1535,1048 1536,1047 1550,1047 1551,1046 1560,1046 1561,1045 1567,1045 1568,1044 1573,1044 1574,1043 1578,1043 1579,1042 1589,1042 1590,1041 1600,1041 1601,1040 1657,1040 1658,1041 1691,1041 1692,1040 1748,1040 1749,1041 1788,1041 1789,1040 1846,1040 1847,1039 1881,1039 1882,1038 1884,1038 1885,1037 1886,1037 1890,1033 1890,1031 1891,1030 1891,1028 1892,1027 1892,1023 1893,1022 1893,1013 1892,1012 1892,996 1891,995 1891,976 1892,975 1892,929 1893,928 1893,917 1892,916 1892,909 1893,908 1893,854 1892,853 1892,841 1893,840 1893,831 1894,830 1894,819 1893,818 1893,760 1892,759 1892,754 1893,753 1893,736 1894,735 1894,731 1893,730 1893,721 1892,720 1892,719 1891,718 1891,717 1890,716 1890,715 1889,714 1889,713 1887,711 1886,711 1885,710 1884,710 1883,709 1881,709 1880,708 1855,708 1854,707 1849,707 1848,706 1845,706 1844,705 1837,705 1836,706 1820,706 1819,707 1813,707 1812,708 1796,708 1795,709 1793,709 1792,708 1780,708 1779,709 1767,709 1766,708 1757,708 1756,707 1750,707 1749,706 1745,706 1744,707 1739,707 1738,708 1721,708 1720,709 1694,709 1693,710 1688,710 1687,711 1686,710 1680,710 1679,709 1669,709 1668,708 1659,708 1658,707 1655,707 1654,706 1652,706 1651,705 1638,705 1637,706 1632,706 1631,707 1622,707 1621,706 1605,706 1604,707 1596,707 1595,708 1587,708 1586,707 1577,707 1576,708 1565,708 1564,707 1561,707 1560,706 1557,706 1556,705 1531,705 1530,706 1522,706 1521,707 1519,707 1518,706 1504,706 1503,705 1494,705 1493,706 1490,706 1489,707 1479,707 1478,708 1474,708 1473,707 1467,707 1466,706 1445,706 1444,707 1433,707 1432,706 1423,706 1422,705 1417,705 1416,704 1408,704 1407,703" fill="rgba(57,21,252,0.3)" stroke="rgb(57,21,252)" stroke-width="2" data-block-id="0007" data-name="b-0015" /><text x="1221" y="851" text-anchor="middle" dominant-baseline="middle" class="block-label" fill="rgb(57,21,252)" stroke="white" stroke-width="3" paint-order="stroke">b-0015</text><polygon points="3563,1631 3562,1632 3552,1632 3551,1633 3524,1633 3523,1634 3510,1634 3509,1633 3503,1633 3502,1634 3484,1634 3483,1633 3404,1633 3403,1634 3396,1634 3395,1633 3346,1633 3345,1634 3341,1634 3340,1635 3339,1635 3337,1637 3337,1639 3336,1640 3336,1642 3335,1643 3335,1690 3336,1691 3336,1697 3335,1698 3335,1734 3334,1735 3334,1748 3335,1749 3335,1765 3334,1766 3334,1781 3335,1782 3335,1829 3336,1830 3336,1899 3337,1900 3337,1919 3336,1920 3336,1925 3337,1926 3337,1945 3338,1946 3338,1950 3339,1951 3339,1954 3340,1955 3340,1956 3343,1959 3345,1959 3346,1960 3349,1960 3350,1961 3475,1961 3476,1962 3491,1962 3492,1961 3570,1961 3571,1962 3589,1962 3590,1961 3688,1961 3689,1960 3744,1960 3745,1959 3746,1959 3747,1960 3761,1960 3762,1961 3786,1961 3787,1960 3823,1960 3824,1961 3829,1961 3830,1960 3840,1960 3841,1959 3842,1960 3850,1960 3851,1961 3881,1961 3882,1960 3896,1960 3897,1961 3935,1961 3936,1960 3937,1960 3938,1961 3982,1961 3983,1960 3989,1960 3990,1961 4057,1961 4058,1962 4071,1962 4072,1961 4087,1961 4088,1962 4107,1962 4108,1961 4144,1961 4145,1962 4152,1962 4153,1961 4157,1961 4158,1960 4166,1960 4167,1961 4178,1961 4179,1962 4215,1962 4216,1961 4237,1961 4238,1962 4250,1962 4251,1961 4264,1961 4265,1962 4308,1962 4309,1961 4314,1961 4315,1960 4332,1960 4333,1961 4349,1961 4350,1960 4384,1960 4385,1961 4399,1961 4400,1962 4405,1962 4406,1961 4417,1961 4418,1962 4427,1962 4428,1961 4478,1961 4479,1962 4495,1962 4496,1961 4528,1961 4529,1960 4550,1960 4551,1961 4556,1961 4557,1960 4560,1960 4561,1959 4562,1959 4563,1958 4564,1958 4566,1956 4566,1950 4567,1949 4567,1919 4568,1918 4568,1904 4567,1903 4567,1885 4568,1884 4568,1840 4569,1839 4569,1833 4568,1832 4568,1823 4569,1822 4569,1710 4568,1709 4568,1694 4569,1693 4568,1692 4568,1676 4569,1675 4569,1669 4568,1668 4568,1661 4567,1660 4567,1645 4566,1644 4566,1643 4565,1642 4565,1641 4562,1638 4561,1638 4560,1637 4559,1637 4558,1636 4556,1636 4555,1635 4530,1635 4529,1636 4519,1636 4518,1637 4507,1637 4506,1636 4501,1636 4500,1635 4470,1635 4469,1636 4454,1636 4453,1637 4440,1637 4439,1636 4380,1636 4379,1637 4368,1637 4367,1636 4362,1636 4361,1635 4357,1635 4356,1634 4331,1634 4330,1635 4325,1635 4324,1634 4296,1634 4295,1633 4291,1633 4290,1634 4284,1634 4283,1635 4279,1635 4278,1634 4266,1634 4265,1635 4261,1635 4260,1636 4254,1636 4253,1635 4218,1635 4217,1634 4210,1634 4209,1633 4207,1633 4206,1634 4168,1634 4167,1635 4130,1635 4129,1634 4118,1634 4117,1633 4106,1633 4105,1634 4083,1634 4082,1633 4067,1633 4066,1632 4028,1632 4027,1633 3978,1633 3977,1632 3884,1632 3883,1633 3866,1633 3865,1632 3857,1632 3856,1631 3846,1631 3845,1632 3783,1632 3782,1631 3753,1631 3752,1632 3594,1632 3593,1633 3586,1633 3585,1632 3573,1632 3572,1631" fill="rgba(235,88,48,0.3)" stroke="rgb(235,88,48)" stroke-width="2" data-block-id="0008" data-name="b-0016" /><text x="4032" y="1792" text-anchor="middle" dominant-baseline="middle" class="block-label" fill="rgb(235,88,48)" stroke="white" stroke-width="3" paint-order="stroke">b-0016</text><polygon points="1487,1628 1486,1629 1477,1629 1476,1630 1411,1630 1410,1629 1390,1629 1389,1630 1384,1630 1383,1631 1377,1631 1376,1632 1370,1632 1369,1633 1347,1633 1346,1632 1337,1632 1336,1631 1327,1631 1326,1630 1310,1630 1309,1629 1307,1629 1306,1630 1297,1630 1296,1631 1285,1631 1284,1632 1263,1632 1262,1631 1217,1631 1216,1630 1209,1630 1208,1631 1198,1631 1197,1632 1192,1632 1191,1633 1187,1633 1186,1634 1178,1634 1177,1635 1169,1635 1168,1636 1139,1636 1138,1637 1123,1637 1122,1636 1117,1636 1116,1635 1112,1635 1111,1634 1108,1634 1107,1633 1103,1633 1102,1632 1098,1632 1097,1631 1085,1631 1084,1632 1075,1632 1074,1631 1049,1631 1048,1630 1029,1630 1028,1631 975,1631 974,1630 964,1630 963,1631 961,1631 960,1630 939,1630 938,1629 937,1630 929,1630 928,1631 859,1631 858,1632 847,1632 846,1631 796,1631 795,1632 791,1632 790,1631 760,1631 759,1630 756,1630 755,1631 748,1631 747,1632 720,1632 719,1631 688,1631 687,1632 683,1632 682,1633 681,1633 678,1636 678,1637 677,1638 677,1641 676,1642 676,1647 675,1648 675,1651 674,1652 674,1655 673,1656 673,1660 674,1661 674,1663 675,1664 675,1666 676,1667 676,1670 677,1671 677,1688 678,1689 678,1749 677,1750 677,1757 678,1758 678,1764 679,1765 679,1769 678,1770 678,1780 677,1781 677,1788 676,1789 676,1808 677,1809 677,1818 676,1819 676,1830 675,1831 675,1857 676,1858 676,1878 675,1879 675,1884 674,1885 674,1913 675,1914 675,1921 674,1922 674,1947 675,1948 675,1950 676,1951 676,1952 677,1953 677,1954 680,1957 681,1957 682,1958 683,1958 684,1959 689,1959 690,1960 704,1960 705,1961 717,1961 718,1960 732,1960 733,1959 750,1959 751,1958 758,1958 759,1959 762,1959 763,1960 768,1960 769,1961 778,1961 779,1962 797,1962 798,1963 799,1963 800,1964 802,1964 803,1965 805,1965 806,1966 807,1966 808,1965 816,1965 817,1964 827,1964 828,1963 832,1963 833,1962 836,1962 837,1961 850,1961 851,1960 878,1960 879,1961 884,1961 885,1962 890,1962 891,1963 904,1963 905,1962 911,1962 912,1961 917,1961 918,1960 924,1960 925,1959 952,1959 953,1958 955,1958 956,1957 958,1957 959,1956 980,1956 981,1955 986,1955 987,1956 996,1956 997,1957 1000,1957 1001,1958 1002,1958 1003,1959 1005,1959 1006,1960 1014,1960 1015,1959 1058,1959 1059,1960 1071,1960 1072,1961 1083,1961 1084,1960 1093,1960 1094,1959 1112,1959 1113,1960 1117,1960 1118,1959 1124,1959 1125,1958 1135,1958 1136,1959 1145,1959 1146,1958 1155,1958 1156,1957 1195,1957 1196,1958 1204,1958 1205,1959 1210,1959 1211,1960 1234,1960 1235,1959 1242,1959 1243,1958 1283,1958 1284,1957 1294,1957 1295,1956 1304,1956 1305,1957 1332,1957 1333,1958 1339,1958 1340,1959 1378,1959 1379,1960 1383,1960 1384,1961 1386,1961 1387,1962 1389,1962 1390,1963 1392,1963 1393,1964 1398,1964 1399,1965 1405,1965 1406,1964 1412,1964 1413,1963 1417,1963 1418,1962 1421,1962 1422,1961 1431,1961 1432,1962 1465,1962 1466,1961 1477,1961 1478,1962 1512,1962 1513,1961 1518,1961 1519,1960 1562,1960 1563,1961 1572,1961 1573,1962 1579,1962 1580,1963 1599,1963 1600,1962 1611,1962 1612,1961 1631,1961 1632,1962 1644,1962 1645,1961 1660,1961 1661,1962 1680,1962 1681,1963 1688,1963 1689,1962 1691,1962 1692,1961 1695,1961 1696,1960 1712,1960 1713,1961 1748,1961 1749,1962 1756,1962 1757,1963 1768,1963 1769,1964 1774,1964 1775,1963 1783,1963 1784,1962 1788,1962 1789,1961 1813,1961 1814,1962 1831,1962 1832,1963 1843,1963 1844,1962 1849,1962 1850,1961 1879,1961 1880,1960 1885,1960 1886,1959 1888,1959 1889,1958 1890,1958 1892,1956 1892,1955 1893,1954 1893,1948 1894,1947 1894,1887 1893,1886 1893,1852 1892,1851 1892,1833 1893,1832 1893,1825 1894,1824 1894,1793 1895,1792 1895,1750 1894,1749 1894,1741 1895,1740 1895,1686 1896,1685 1896,1642 1895,1641 1895,1636 1894,1635 1894,1634 1893,1633 1892,1633 1891,1632 1883,1632 1882,1631 1873,1631 1872,1632 1866,1632 1865,1631 1812,1631 1811,1632 1804,1632 1803,1631 1799,1631 1798,1630 1791,1630 1790,1629 1772,1629 1771,1630 1704,1630 1703,1629 1675,1629 1674,1630 1661,1630 1660,1631 1649,1631 1648,1630 1644,1630 1643,1629 1625,1629 1624,1628 1616,1628 1615,1629 1610,1629 1609,1630 1571,1630 1570,1629 1553,1629 1552,1630 1523,1630 1522,1631 1521,1630 1513,1630 1512,1629 1504,1629 1503,1628" fill="rgba(218,58,254,0.3)" stroke="rgb(218,58,254)" stroke-width="2" data-block-id="0009" data-name="b-0017" /><text x="1221" y="1814" text-anchor="middle" dominant-baseline="middle" class="block-label" fill="rgb(218,58,254)" stroke="white" stroke-width="3" paint-order="stroke">b-0017</text><polygon points="2131,1159 2130,1160 2127,1160 2126,1161 2123,1161 2122,1162 2120,1162 2119,1161 2096,1161 2095,1162 2085,1162 2084,1163 2080,1163 2079,1164 2077,1164 2076,1165 2075,1165 2073,1167 2072,1167 2072,1168 2071,1169 2071,1174 2070,1175 2070,1196 2071,1197 2071,1210 2070,1211 2070,1229 2071,1230 2071,1237 2072,1238 2072,1259 2071,1260 2071,1277 2072,1278 2072,1298 2073,1299 2073,1302 2072,1303 2072,1327 2073,1328 2073,1331 2074,1332 2074,1334 2075,1335 2075,1337 2074,1338 2074,1340 2073,1341 2073,1344 2072,1345 2072,1353 2073,1354 2073,1364 2072,1365 2072,1380 2073,1381 2073,1388 2072,1389 2072,1450 2071,1451 2071,1478 2072,1479 2072,1505 2073,1506 2073,1509 2074,1510 2074,1512 2075,1513 2075,1514 2076,1515 2077,1515 2079,1517 2082,1517 2083,1518 2089,1518 2090,1519 2110,1519 2111,1520 2159,1520 2160,1521 2179,1521 2180,1520 2190,1520 2191,1519 2194,1519 2195,1520 2200,1520 2201,1521 2214,1521 2215,1520 2217,1520 2218,1521 2226,1521 2227,1522 2233,1522 2234,1521 2282,1521 2283,1520 2294,1520 2295,1521 2329,1521 2330,1520 2338,1520 2339,1521 2353,1521 2354,1520 2358,1520 2359,1519 2364,1519 2365,1518 2370,1518 2371,1517 2374,1517 2376,1515 2377,1515 2378,1514 2379,1514 2382,1511 2388,1511 2389,1512 2390,1512 2391,1513 2392,1513 2393,1514 2403,1514 2404,1513 2412,1513 2413,1514 2434,1514 2435,1515 2446,1515 2447,1516 2450,1516 2451,1517 2455,1517 2456,1518 2460,1518 2461,1519 2465,1519 2466,1520 2472,1520 2473,1519 2505,1519 2506,1520 2533,1520 2534,1521 2541,1521 2542,1520 2547,1520 2548,1519 2556,1519 2557,1518 2593,1518 2594,1519 2604,1519 2605,1520 2615,1520 2616,1521 2651,1521 2652,1522 2684,1522 2685,1521 2715,1521 2716,1520 2745,1520 2746,1521 2760,1521 2761,1520 2775,1520 2776,1521 2780,1521 2781,1520 2808,1520 2809,1519 2817,1519 2818,1518 2831,1518 2832,1519 2852,1519 2853,1520 2867,1520 2868,1519 2881,1519 2882,1520 2907,1520 2908,1521 2910,1521 2911,1520 2919,1520 2920,1519 2923,1519 2924,1520 2943,1520 2944,1519 2956,1519 2957,1520 3022,1520 3023,1521 3030,1521 3031,1520 3047,1520 3048,1521 3061,1521 3062,1520 3097,1520 3098,1521 3106,1521 3107,1520 3120,1520 3121,1521 3123,1521 3124,1520 3135,1520 3136,1519 3137,1519 3138,1520 3170,1520 3171,1519 3176,1519 3177,1518 3180,1518 3181,1517 3182,1517 3184,1515 3184,1514 3185,1513 3185,1507 3186,1506 3186,1471 3187,1470 3187,1373 3188,1372 3188,1344 3187,1343 3187,1306 3188,1305 3188,1272 3187,1271 3187,1257 3188,1256 3188,1248 3187,1247 3187,1227 3188,1226 3188,1204 3189,1203 3189,1196 3190,1195 3190,1190 3189,1189 3189,1181 3188,1180 3188,1177 3187,1176 3187,1175 3186,1174 3186,1172 3182,1168 3176,1168 3175,1167 3150,1167 3149,1166 3148,1167 3108,1167 3107,1166 3098,1166 3097,1167 3092,1167 3091,1168 3079,1168 3078,1167 3058,1167 3057,1166 3050,1166 3049,1165 3042,1165 3041,1164 3032,1164 3031,1165 3019,1165 3018,1166 2975,1166 2974,1167 2964,1167 2963,1166 2944,1166 2943,1165 2928,1165 2927,1166 2923,1166 2922,1167 2918,1167 2917,1166 2892,1166 2891,1165 2881,1165 2880,1166 2862,1166 2861,1165 2843,1165 2842,1166 2828,1166 2827,1167 2773,1167 2772,1168 2761,1168 2760,1167 2758,1167 2757,1166 2754,1166 2753,1165 2738,1165 2737,1166 2734,1166 2733,1167 2730,1167 2729,1168 2707,1168 2706,1167 2679,1167 2678,1166 2674,1166 2673,1165 2666,1165 2665,1164 2656,1164 2655,1165 2653,1165 2652,1166 2650,1166 2649,1167 2643,1167 2642,1166 2616,1166 2615,1167 2606,1167 2605,1166 2594,1166 2593,1167 2586,1167 2585,1168 2578,1168 2577,1169 2574,1169 2573,1168 2567,1168 2566,1167 2555,1167 2554,1166 2541,1166 2540,1165 2531,1165 2530,1164 2519,1164 2518,1163 2514,1163 2513,1164 2507,1164 2506,1165 2499,1165 2498,1164 2453,1164 2452,1165 2445,1165 2444,1166 2439,1166 2438,1165 2404,1165 2403,1164 2397,1164 2396,1163 2385,1163 2384,1162 2376,1162 2375,1161 2372,1161 2371,1162 2368,1162 2367,1163 2364,1163 2363,1164 2354,1164 2353,1163 2343,1163 2342,1164 2330,1164 2329,1163 2317,1163 2316,1164 2311,1164 2310,1163 2294,1163 2293,1162 2276,1162 2275,1163 2247,1163 2246,1164 2236,1164 2235,1163 2212,1163 2211,1162 2163,1162 2162,1161 2141,1161 2140,1160 2137,1160 2136,1159" fill="rgba(207,14,189,0.3)" stroke="rgb(207,14,189)" stroke-width="2" data-block-id="0010" data-name="b-0019" /><text x="2579" y="1330" text-anchor="middle" dominant-baseline="middle" class="block-label" fill="rgb(207,14,189)" stroke="white" stroke-width="3" paint-order="stroke">b-0019</text><polygon points="2584,2070 2583,2071 2562,2071 2561,2072 2544,2072 2543,2073 2462,2073 2461,2074 2436,2074 2435,2075 2423,2075 2422,2074 2419,2074 2418,2075 2368,2075 2367,2076 2362,2076 2361,2077 2359,2077 2358,2076 2336,2076 2335,2077 2318,2077 2317,2076 2281,2076 2280,2077 2218,2077 2217,2078 2202,2078 2201,2077 2190,2077 2189,2078 2178,2078 2177,2079 2160,2079 2159,2080 2142,2080 2141,2079 2124,2079 2123,2080 2122,2079 2119,2079 2118,2078 2115,2078 2114,2077 2109,2077 2108,2076 2107,2076 2106,2077 2095,2077 2094,2078 2091,2078 2090,2079 2085,2079 2084,2080 2082,2080 2081,2081 2080,2081 2079,2082 2078,2082 2074,2086 2074,2088 2073,2089 2073,2096 2074,2097 2074,2111 2075,2112 2075,2131 2074,2132 2074,2142 2075,2143 2075,2149 2076,2150 2076,2163 2077,2164 2077,2214 2076,2215 2076,2243 2077,2244 2077,2307 2076,2308 2076,2334 2077,2335 2077,2363 2076,2364 2076,2379 2077,2380 2077,2396 2076,2397 2076,2403 2077,2404 2077,2419 2078,2420 2078,2424 2079,2425 2079,2426 2080,2427 2080,2428 2081,2429 2082,2429 2084,2431 2086,2431 2087,2432 2092,2432 2093,2433 2116,2433 2117,2434 2136,2434 2137,2433 2159,2433 2160,2434 2182,2434 2183,2433 2194,2433 2195,2432 2228,2432 2229,2433 2282,2433 2283,2432 2300,2432 2301,2431 2315,2431 2316,2432 2367,2432 2368,2431 2391,2431 2392,2430 2411,2430 2412,2431 2432,2431 2433,2430 2461,2430 2462,2429 2510,2429 2511,2430 2519,2430 2520,2429 2529,2429 2530,2428 2543,2428 2544,2427 2556,2427 2557,2426 2564,2426 2565,2425 2582,2425 2583,2426 2590,2426 2591,2427 2606,2427 2607,2428 2614,2428 2615,2427 2628,2427 2629,2428 2643,2428 2644,2429 2653,2429 2654,2430 2674,2430 2675,2431 2678,2431 2679,2432 2735,2432 2736,2431 2758,2431 2759,2430 2791,2430 2792,2431 2804,2431 2805,2432 2818,2432 2819,2433 2833,2433 2834,2434 2842,2434 2843,2435 2847,2435 2848,2436 2854,2436 2855,2435 2867,2435 2868,2434 2895,2434 2896,2435 2913,2435 2914,2434 2924,2434 2925,2433 2951,2433 2952,2432 2971,2432 2972,2431 2989,2431 2990,2432 3000,2432 3001,2433 3010,2433 3011,2434 3046,2434 3047,2433 3085,2433 3086,2434 3132,2434 3133,2433 3141,2433 3142,2434 3178,2434 3179,2433 3182,2433 3183,2432 3184,2432 3185,2431 3185,2430 3186,2429 3186,2427 3187,2426 3187,2402 3186,2401 3186,2398 3187,2397 3187,2380 3186,2379 3186,2347 3187,2346 3187,2284 3186,2283 3186,2275 3187,2274 3187,2241 3188,2240 3188,2227 3187,2226 3187,2187 3188,2186 3188,2181 3187,2180 3187,2165 3188,2164 3188,2129 3189,2128 3189,2116 3188,2115 3188,2110 3189,2109 3189,2096 3188,2095 3188,2089 3187,2088 3187,2086 3186,2085 3186,2084 3184,2082 3183,2082 3182,2081 3179,2081 3178,2080 3154,2080 3153,2079 3142,2079 3141,2078 3118,2078 3117,2079 3092,2079 3091,2080 3084,2080 3083,2079 3043,2079 3042,2080 3037,2080 3036,2079 2998,2079 2997,2078 2968,2078 2967,2079 2954,2079 2953,2078 2930,2078 2929,2079 2916,2079 2915,2078 2909,2078 2908,2077 2885,2077 2884,2078 2828,2078 2827,2079 2824,2079 2823,2078 2806,2078 2805,2077 2782,2077 2781,2078 2777,2078 2776,2077 2763,2077 2762,2076 2713,2076 2712,2075 2697,2075 2696,2076 2669,2076 2668,2075 2658,2075 2657,2074 2645,2074 2644,2073 2642,2073 2641,2072 2637,2072 2636,2071 2591,2071 2590,2070" fill="rgba(189,174,189,0.3)" stroke="rgb(189,174,189)" stroke-width="2" data-block-id="0011" data-name="b-0020" /><text x="2615" y="2250" text-anchor="middle" dominant-baseline="middle" class="block-label" fill="rgb(189,174,189)" stroke="white" stroke-width="3" paint-order="stroke">b-0020</text><polygon points="2273,706 2272,707 2267,707 2266,708 2257,708 2256,709 2248,709 2247,710 2244,710 2243,711 2238,711 2237,710 2233,710 2232,709 2226,709 2225,710 2214,710 2213,709 2209,709 2208,708 2201,708 2200,709 2182,709 2181,708 2157,708 2156,709 2151,709 2150,710 2142,710 2141,709 2138,709 2137,708 2130,708 2129,709 2125,709 2124,710 2118,710 2117,709 2104,709 2103,710 2082,710 2081,711 2079,711 2078,712 2077,712 2076,713 2075,713 2073,715 2073,716 2072,717 2072,718 2071,719 2071,727 2072,728 2072,768 2073,769 2073,775 2074,776 2074,846 2075,847 2075,855 2076,856 2076,873 2077,874 2077,876 2076,877 2076,887 2075,888 2075,916 2076,917 2076,946 2075,947 2075,956 2074,957 2074,963 2075,964 2075,978 2076,979 2076,985 2075,986 2075,997 2076,998 2076,1001 2077,1002 2077,1005 2078,1006 2078,1025 2079,1026 2079,1030 2080,1031 2080,1043 2084,1047 2086,1047 2087,1048 2095,1048 2096,1049 2099,1049 2100,1048 2106,1048 2107,1047 2111,1047 2112,1046 2113,1046 2114,1045 2116,1045 2118,1043 2119,1043 2120,1042 2125,1042 2126,1043 2129,1043 2130,1044 2137,1044 2138,1043 2141,1043 2142,1042 2151,1042 2152,1043 2173,1043 2174,1044 2188,1044 2189,1043 2195,1043 2196,1044 2200,1044 2201,1045 2209,1045 2210,1044 2213,1044 2214,1043 2220,1043 2221,1044 2225,1044 2226,1045 2234,1045 2235,1044 2243,1044 2244,1045 2247,1045 2248,1046 2257,1046 2258,1045 2261,1045 2262,1044 2265,1044 2266,1043 2267,1044 2277,1044 2278,1043 2281,1043 2282,1042 2286,1042 2287,1041 2290,1041 2291,1042 2295,1042 2296,1043 2316,1043 2317,1044 2320,1044 2321,1045 2339,1045 2340,1046 2344,1046 2345,1047 2360,1047 2361,1048 2369,1048 2370,1049 2381,1049 2382,1050 2390,1050 2391,1051 2400,1051 2401,1052 2414,1052 2415,1053 2422,1053 2423,1054 2426,1054 2427,1055 2475,1055 2476,1056 2483,1056 2484,1055 2500,1055 2501,1054 2517,1054 2518,1055 2522,1055 2523,1056 2526,1056 2527,1057 2534,1057 2535,1056 2539,1056 2540,1057 2548,1057 2549,1058 2577,1058 2578,1059 2631,1059 2632,1058 2646,1058 2647,1057 2700,1057 2701,1056 2711,1056 2712,1055 2726,1055 2727,1054 2732,1054 2733,1053 2736,1053 2737,1052 2739,1052 2740,1051 2747,1051 2748,1050 2797,1050 2798,1049 2807,1049 2808,1050 2823,1050 2824,1049 2825,1050 2831,1050 2832,1051 2836,1051 2837,1052 2855,1052 2856,1053 2883,1053 2884,1054 2903,1054 2904,1055 2950,1055 2951,1056 2962,1056 2963,1055 2967,1055 2968,1054 2987,1054 2988,1053 3020,1053 3021,1052 3046,1052 3047,1053 3055,1053 3056,1052 3059,1052 3060,1051 3067,1051 3068,1052 3070,1052 3071,1053 3073,1053 3074,1054 3076,1054 3077,1055 3078,1055 3079,1054 3084,1054 3085,1053 3090,1053 3091,1054 3093,1054 3094,1055 3096,1055 3097,1056 3117,1056 3118,1057 3142,1057 3143,1058 3151,1058 3152,1057 3162,1057 3163,1056 3167,1056 3168,1055 3170,1055 3171,1054 3173,1054 3174,1053 3176,1053 3177,1052 3179,1052 3180,1051 3181,1051 3186,1046 3186,1035 3185,1034 3185,1021 3186,1020 3186,998 3187,997 3186,996 3186,978 3185,977 3185,963 3186,962 3186,955 3187,954 3187,936 3186,935 3186,917 3187,916 3187,897 3186,896 3186,862 3187,861 3187,852 3188,851 3188,822 3187,821 3187,815 3188,814 3188,808 3189,807 3189,766 3190,765 3190,754 3189,753 3189,750 3188,749 3188,740 3189,739 3189,727 3188,726 3188,722 3187,721 3187,719 3183,715 3181,715 3180,714 3176,714 3175,713 3170,713 3169,712 3161,712 3160,711 3147,711 3146,710 3125,710 3124,711 3121,711 3120,712 3116,712 3115,713 3104,713 3103,712 3095,712 3094,713 3084,713 3083,712 3073,712 3072,713 3069,713 3068,714 3044,714 3043,713 3026,713 3025,712 3021,712 3020,711 3011,711 3010,710 3004,710 3003,711 2995,711 2994,712 2990,712 2989,711 2973,711 2972,712 2966,712 2965,711 2962,711 2961,710 2951,710 2950,711 2935,711 2934,710 2914,710 2913,709 2907,709 2906,710 2903,710 2902,711 2893,711 2892,710 2890,710 2889,709 2887,709 2886,708 2881,708 2880,707 2870,707 2869,706 2859,706 2858,707 2857,707 2856,708 2854,708 2853,709 2843,709 2842,708 2836,708 2835,709 2833,709 2832,710 2831,710 2830,711 2826,711 2825,712 2822,712 2821,711 2810,711 2809,712 2798,712 2797,711 2793,711 2792,710 2786,710 2785,711 2752,711 2751,712 2746,712 2745,713 2739,713 2738,712 2732,712 2731,711 2724,711 2723,712 2712,712 2711,711 2688,711 2687,712 2666,712 2665,713 2654,713 2653,714 2630,714 2629,715 2618,715 2617,716 2602,716 2601,715 2588,715 2587,716 2581,716 2580,717 2572,717 2571,716 2568,716 2567,715 2554,715 2553,716 2552,716 2551,715 2547,715 2546,714 2544,714 2543,713 2541,713 2540,712 2506,712 2505,713 2504,712 2496,712 2495,711 2483,711 2482,710 2473,710 2472,709 2464,709 2463,710 2429,710 2428,709 2424,709 2423,708 2412,708 2411,709 2390,709 2389,710 2380,710 2379,709 2374,709 2373,708 2346,708 2345,709 2340,709 2339,710 2334,710 2333,709 2331,709 2330,708 2328,708 2327,707 2318,707 2317,708 2298,708 2297,709 2291,709 2290,710 2289,709 2284,709 2283,708 2282,708 2281,707 2279,707 2278,706" fill="rgba(50,107,54,0.3)" stroke="rgb(50,107,54)" stroke-width="2" data-block-id="0012" data-name="b-0021" /><text x="2610" y="871" text-anchor="middle" dominant-baseline="middle" class="block-label" fill="rgb(50,107,54)" stroke="white" stroke-width="3" paint-order="stroke">b-0021</text><polygon points="2361,1627 2360,1628 2355,1628 2354,1629 2348,1629 2347,1630 2324,1630 2323,1629 2282,1629 2281,1628 2269,1628 2268,1629 2259,1629 2258,1630 2252,1630 2251,1631 2248,1631 2247,1632 2244,1632 2243,1633 2241,1633 2240,1634 2232,1634 2231,1635 2209,1635 2208,1634 2196,1634 2195,1635 2194,1635 2193,1634 2185,1634 2184,1633 2171,1633 2170,1632 2154,1632 2153,1633 2144,1633 2143,1632 2118,1632 2117,1631 2099,1631 2098,1632 2086,1632 2085,1633 2082,1633 2081,1634 2080,1634 2078,1636 2078,1638 2077,1639 2077,1642 2076,1643 2076,1652 2075,1653 2075,1660 2076,1661 2076,1665 2077,1666 2077,1694 2078,1695 2078,1708 2077,1709 2077,1715 2076,1716 2076,1736 2077,1737 2077,1743 2078,1744 2077,1745 2077,1775 2078,1776 2078,1783 2079,1784 2079,1791 2080,1792 2080,1796 2081,1797 2081,1800 2082,1801 2082,1813 2083,1814 2083,1816 2084,1817 2084,1819 2085,1820 2085,1822 2086,1823 2086,1830 2085,1831 2085,1835 2084,1836 2084,1843 2085,1844 2085,1857 2086,1858 2086,1870 2087,1871 2087,1874 2086,1875 2086,1879 2085,1880 2085,1894 2086,1895 2086,1947 2087,1948 2087,1950 2088,1951 2088,1953 2089,1954 2089,1955 2090,1955 2092,1957 2093,1957 2094,1958 2096,1958 2097,1959 2109,1959 2110,1960 2112,1960 2113,1961 2114,1961 2115,1962 2116,1962 2117,1963 2118,1963 2119,1964 2123,1964 2124,1963 2126,1963 2127,1962 2129,1962 2130,1961 2134,1961 2135,1960 2144,1960 2145,1959 2161,1959 2162,1960 2165,1960 2166,1961 2198,1961 2199,1960 2211,1960 2212,1959 2233,1959 2234,1960 2252,1960 2253,1961 2269,1961 2270,1960 2277,1960 2278,1959 2284,1959 2285,1958 2294,1958 2295,1959 2303,1959 2304,1960 2308,1960 2309,1961 2324,1961 2325,1962 2335,1962 2336,1961 2344,1961 2345,1960 2357,1960 2358,1959 2378,1959 2379,1960 2382,1960 2383,1961 2389,1961 2390,1960 2419,1960 2420,1961 2424,1961 2425,1962 2429,1962 2430,1963 2435,1963 2436,1962 2441,1962 2442,1961 2483,1961 2484,1960 2496,1960 2497,1961 2501,1961 2502,1962 2509,1962 2510,1963 2514,1963 2515,1962 2518,1962 2519,1961 2522,1961 2523,1960 2526,1960 2527,1959 2540,1959 2541,1960 2548,1960 2549,1961 2552,1961 2553,1960 2563,1960 2564,1959 2594,1959 2595,1958 2602,1958 2603,1959 2621,1959 2622,1960 2630,1960 2631,1959 2643,1959 2644,1958 2652,1958 2653,1959 2657,1959 2658,1960 2661,1960 2662,1961 2663,1961 2664,1962 2665,1962 2666,1963 2668,1963 2669,1964 2671,1964 2672,1963 2673,1963 2674,1962 2675,1962 2676,1961 2678,1961 2679,1960 2730,1960 2731,1961 2739,1961 2740,1962 2758,1962 2759,1961 2766,1961 2767,1960 2831,1960 2832,1961 2838,1961 2839,1962 2841,1962 2842,1961 2868,1961 2869,1960 2902,1960 2903,1961 2923,1961 2924,1962 2926,1962 2927,1963 2929,1963 2930,1964 2931,1964 2932,1965 2934,1965 2935,1964 2937,1964 2938,1963 2940,1963 2941,1962 2942,1962 2943,1961 2958,1961 2959,1960 2964,1960 2965,1959 2973,1959 2974,1960 2997,1960 2998,1961 3001,1961 3002,1962 3018,1962 3019,1963 3025,1963 3026,1964 3028,1964 3029,1963 3031,1963 3032,1962 3035,1962 3036,1961 3048,1961 3049,1962 3057,1962 3058,1961 3067,1961 3068,1962 3071,1962 3072,1963 3074,1963 3075,1964 3082,1964 3083,1963 3092,1963 3093,1962 3114,1962 3115,1961 3142,1961 3143,1962 3152,1962 3153,1961 3169,1961 3170,1960 3175,1960 3176,1959 3180,1959 3181,1958 3183,1958 3185,1956 3185,1954 3186,1953 3186,1951 3187,1950 3187,1948 3188,1947 3188,1933 3187,1932 3187,1927 3186,1926 3186,1913 3187,1912 3187,1908 3186,1907 3186,1901 3185,1900 3185,1866 3186,1865 3186,1805 3187,1804 3187,1783 3188,1782 3188,1766 3187,1765 3187,1760 3186,1759 3186,1715 3187,1714 3187,1706 3188,1705 3188,1704 3187,1703 3187,1687 3186,1686 3186,1643 3185,1642 3185,1638 3184,1637 3184,1636 3182,1634 3181,1634 3180,1633 3172,1633 3171,1632 3163,1632 3162,1631 3155,1631 3154,1632 3115,1632 3114,1631 3106,1631 3105,1632 3094,1632 3093,1633 3079,1633 3078,1632 3068,1632 3067,1631 3060,1631 3059,1630 3046,1630 3045,1629 3041,1629 3040,1630 3033,1630 3032,1631 3009,1631 3008,1632 2973,1632 2972,1633 2966,1633 2965,1632 2956,1632 2955,1631 2918,1631 2917,1630 2913,1630 2912,1629 2906,1629 2905,1630 2897,1630 2896,1631 2869,1631 2868,1630 2855,1630 2854,1631 2819,1631 2818,1630 2813,1630 2812,1629 2790,1629 2789,1630 2782,1630 2781,1631 2759,1631 2758,1630 2728,1630 2727,1629 2717,1629 2716,1628 2711,1628 2710,1627 2703,1627 2702,1628 2697,1628 2696,1629 2691,1629 2690,1630 2682,1630 2681,1631 2665,1631 2664,1630 2629,1630 2628,1629 2619,1629 2618,1628 2605,1628 2604,1629 2596,1629 2595,1630 2579,1630 2578,1631 2571,1631 2570,1630 2561,1630 2560,1629 2555,1629 2554,1628 2550,1628 2549,1627 2546,1627 2545,1628 2524,1628 2523,1629 2518,1629 2517,1630 2476,1630 2475,1629 2463,1629 2462,1628 2442,1628 2441,1629 2436,1629 2435,1630 2378,1630 2377,1629 2373,1629 2372,1628 2363,1628 2362,1627" fill="rgba(243,63,248,0.3)" stroke="rgb(243,63,248)" stroke-width="2" data-block-id="0013" data-name="b-0022" /><text x="2595" y="1814" text-anchor="middle" dominant-baseline="middle" class="block-label" fill="rgb(243,63,248)" stroke="white" stroke-width="3" paint-order="stroke">b-0022</text></g>
</svg>