<?xml version='1.0' encoding='utf-8'?>
<svg xmlns="http://www.w3.org/2000/svg" xmlns:atlas="http://example.com/atlas" width="4984" height="3304" viewBox="0 0 4984 3304">
  
  <metadata>
    <atlas:source>
      <atlas:jp2-path>/Users/pwright/workspace/atlas/media/v2/p3.jp2</atlas:jp2-path>
      <atlas:volume>unknown</atlas:volume>
      <atlas:plate-id>p3</atlas:plate-id>
      <atlas:image-width>4984</atlas:image-width>
      <atlas:image-height>3304</atlas:image-height>
    <atlas:angle>0</atlas:angle><atlas:scale>1.3333333333333333</atlas:scale><atlas:pos-x>2509.7500563325366</atlas:pos-x><atlas:pos-y>2973.4865453061725</atlas:pos-y></atlas:source>
  </metadata>

  
  <image id="background" href="file:///Users/pwright/workspace/atlas/media/v2/p3.jp2" width="4984" height="3304" opacity="0.5" />

  <style>
    .block-label { font-family: sans-serif; font-size: 14px; font-weight: bold; }
  </style>

  
  <g id="blocks">
    <polygon points="3913,2626 3912,2627 3837,2627 3836,2628 3831,2628 3830,2629 3807,2629 3806,2630 3799,2630 3798,2631 3784,2631 3783,2630 3769,2630 3768,2631 3760,2631 3759,2632 3746,2632 3745,2631 3733,2631 3732,2632 3726,2632 3725,2633 3723,2633 3722,2632 3655,2632 3654,2631 3651,2631 3650,2630 3648,2630 3647,2629 3642,2629 3641,2628 3620,2628 3619,2627 3614,2627 3613,2628 3585,2628 3584,2627 3572,2627 3571,2628 3550,2628 3549,2629 3547,2629 3546,2630 3545,2630 3544,2631 3544,2632 3542,2634 3542,2637 3541,2638 3541,2661 3542,2662 3542,2740 3541,2741 3541,2743 3542,2744 3542,2785 3541,2786 3541,2796 3542,2797 3542,2818 3543,2819 3543,2831 3542,2832 3542,2855 3543,2856 3543,2871 3544,2872 3544,2873 3543,2874 3543,2919 3544,2920 3544,2922 3543,2923 3543,2939 3544,2940 3544,2974 3543,2975 3543,2990 3544,2991 3544,2995 3545,2996 3545,2998 3547,3000 3547,3001 3548,3002 3549,3002 3550,3003 3551,3003 3552,3004 3557,3004 3558,3005 3618,3005 3619,3006 3709,3006 3710,3005 3714,3005 3715,3006 3722,3006 3723,3007 3751,3007 3752,3006 3758,3006 3759,3005 3828,3005 3829,3006 3843,3006 3844,3005 3853,3005 3854,3004 3864,3004 3865,3003 3872,3003 3873,3004 3882,3004 3883,3003 3893,3003 3894,3002 3925,3002 3926,3003 3937,3003 3938,3004 3941,3004 3942,3003 3964,3003 3965,3002 3983,3002 3984,3003 4016,3003 4017,3002 4033,3002 4034,3003 4092,3003 4093,3004 4116,3004 4117,3003 4135,3003 4136,3002 4185,3002 4186,3001 4195,3001 4196,3002 4212,3002 4213,3001 4216,3001 4217,3002 4227,3002 4228,3001 4233,3001 4234,3000 4247,3000 4248,3001 4249,3000 4279,3000 4280,3001 4292,3001 4293,3002 4302,3002 4303,3001 4321,3001 4322,3000 4347,3000 4348,3001 4358,3001 4359,3000 4364,3000 4365,2999 4369,2999 4370,2998 4371,2998 4372,2999 4384,2999 4385,3000 4409,3000 4410,2999 4467,2999 4468,3000 4474,3000 4475,3001 4542,3001 4543,3000 4580,3000 4581,3001 4585,3001 4586,3000 4615,3000 4616,2999 4634,2999 4635,2998 4638,2998 4639,2997 4641,2997 4642,2996 4644,2996 4645,2995 4646,2995 4649,2992 4649,2990 4650,2989 4650,2970 4649,2969 4649,2958 4650,2957 4650,2929 4649,2928 4649,2915 4650,2914 4650,2905 4649,2904 4649,2889 4648,2888 4648,2883 4649,2882 4649,2854 4648,2853 4648,2842 4649,2841 4649,2825 4648,2824 4648,2817 4647,2816 4647,2806 4646,2805 4646,2796 4645,2795 4645,2768 4646,2767 4646,2754 4645,2753 4645,2700 4644,2699 4644,2685 4643,2684 4643,2669 4642,2668 4642,2665 4641,2664 4641,2660 4640,2659 4640,2644 4639,2643 4639,2641 4635,2637 4634,2637 4633,2636 4630,2636 4629,2635 4625,2635 4624,2634 4620,2634 4619,2633 4609,2633 4608,2632 4598,2632 4597,2631 4587,2631 4586,2630 4580,2630 4579,2631 4566,2631 4565,2632 4558,2632 4557,2631 4528,2631 4527,2632 4458,2632 4457,2631 4436,2631 4435,2632 4423,2632 4422,2633 4416,2633 4415,2632 4409,2632 4408,2631 4369,2631 4368,2632 4286,2632 4285,2633 4263,2633 4262,2632 4258,2632 4257,2631 4243,2631 4242,2632 4237,2632 4236,2633 4221,2633 4220,2632 4211,2632 4210,2631 4194,2631 4193,2632 4167,2632 4166,2631 4161,2631 4160,2630 4133,2630 4132,2631 4131,2631 4130,2630 4116,2630 4115,2629 4104,2629 4103,2630 4100,2630 4099,2631 4089,2631 4088,2630 4039,2630 4038,2631 4032,2631 4031,2630 4019,2630 4018,2629 4002,2629 4001,2630 3985,2630 3984,2629 3981,2629 3980,2628 3975,2628 3974,2627 3968,2627 3967,2626 3956,2626 3955,2627 3922,2627 3921,2626" fill="rgba(116,99,103,0.3)" stroke="rgb(116,99,103)" stroke-width="2" data-block-id="0001" data-name="b-0008" /><text x="4113" y="2807" text-anchor="middle" dominant-baseline="middle" class="block-label" fill="rgb(116,99,103)" stroke="white" stroke-width="3" paint-order="stroke">b-0008</text><polygon points="3777,336 3776,337 3631,337 3630,338 3553,338 3552,339 3550,339 3549,340 3547,340 3546,341 3546,342 3545,343 3545,346 3544,347 3544,350 3543,351 3543,355 3542,356 3542,359 3541,360 3541,368 3542,369 3542,373 3543,374 3543,389 3544,390 3544,405 3543,406 3543,429 3542,430 3542,436 3543,437 3543,441 3544,442 3544,456 3543,457 3543,461 3544,462 3544,478 3543,479 3543,486 3542,487 3542,509 3543,510 3543,520 3544,521 3544,537 3545,538 3545,545 3544,546 3544,550 3543,551 3543,554 3542,555 3542,569 3543,570 3543,575 3544,576 3544,587 3545,588 3545,590 3544,591 3544,646 3543,647 3543,657 3542,658 3542,663 3543,664 3543,667 3544,668 3544,672 3545,673 3545,674 3548,677 3549,677 3550,678 3553,678 3554,679 3596,679 3597,680 3613,680 3614,679 3627,679 3628,680 3641,680 3642,681 3668,681 3669,680 3680,680 3681,679 3739,679 3740,680 3745,680 3746,681 3767,681 3768,680 3782,680 3783,679 3801,679 3802,680 3810,680 3811,679 3841,679 3842,680 3861,680 3862,679 3910,679 3911,678 3923,678 3924,679 3933,679 3934,678 3948,678 3949,677 3978,677 3979,678 3984,678 3985,679 4007,679 4008,678 4016,678 4017,677 4028,677 4029,678 4063,678 4064,679 4091,679 4092,678 4191,678 4192,679 4283,679 4284,680 4304,680 4305,681 4318,681 4319,680 4359,680 4360,681 4397,681 4398,680 4429,680 4430,679 4454,679 4455,680 4461,680 4462,681 4465,681 4466,682 4477,682 4478,683 4481,683 4482,684 4486,684 4487,685 4614,685 4615,684 4623,684 4624,685 4633,685 4634,684 4636,684 4637,683 4638,683 4642,679 4642,678 4643,677 4643,676 4644,675 4644,671 4645,670 4645,663 4646,662 4646,660 4645,659 4645,649 4644,648 4644,634 4645,633 4645,628 4646,627 4646,621 4645,620 4645,603 4646,602 4646,594 4647,593 4647,573 4646,572 4646,530 4647,529 4647,523 4648,522 4648,501 4649,500 4649,473 4648,472 4648,466 4649,465 4649,447 4650,446 4650,422 4649,421 4649,414 4648,413 4648,409 4649,408 4649,403 4650,402 4650,357 4651,356 4651,353 4650,352 4650,350 4648,348 4647,348 4646,347 4645,347 4644,346 4625,346 4624,345 4586,345 4585,344 4579,344 4578,345 4545,345 4544,344 4519,344 4518,345 4509,345 4508,344 4491,344 4490,343 4489,344 4482,344 4481,345 4466,345 4465,344 4458,344 4457,343 4437,343 4436,344 4398,344 4397,343 4390,343 4389,344 4360,344 4359,343 4354,343 4353,344 4344,344 4343,345 4280,345 4279,346 4272,346 4271,345 4249,345 4248,346 4241,346 4240,347 4234,347 4233,346 4227,346 4226,345 4222,345 4221,344 4162,344 4161,343 4113,343 4112,342 4060,342 4059,341 4039,341 4038,340 3962,340 3961,339 3928,339 3927,338 3865,338 3864,337 3833,337 3832,336" fill="rgba(151,130,149,0.3)" stroke="rgb(151,130,149)" stroke-width="2" data-block-id="0002" data-name="b-0009" /><text x="4098" y="520" text-anchor="middle" dominant-baseline="middle" class="block-label" fill="rgb(151,130,149)" stroke="white" stroke-width="3" paint-order="stroke">b-0009</text><polygon points="3592,790 3591,791 3588,791 3587,792 3583,792 3582,793 3564,793 3563,792 3556,792 3555,793 3552,793 3551,794 3548,794 3547,795 3546,795 3545,796 3544,796 3540,800 3540,801 3538,803 3538,809 3539,810 3539,815 3540,816 3540,819 3541,820 3541,822 3542,823 3542,825 3543,826 3543,849 3544,850 3544,857 3543,858 3543,894 3544,895 3544,931 3543,932 3543,942 3544,943 3544,977 3543,978 3543,992 3544,993 3544,1110 3543,1111 3543,1116 3544,1117 3544,1124 3545,1125 3545,1126 3546,1127 3546,1128 3547,1128 3548,1129 3550,1129 3551,1130 3600,1130 3601,1131 3630,1131 3631,1130 3642,1130 3643,1131 3740,1131 3741,1132 3793,1132 3794,1133 3795,1133 3796,1132 3803,1132 3804,1131 3808,1131 3809,1130 3812,1130 3813,1131 3851,1131 3852,1130 3869,1130 3870,1131 3887,1131 3888,1130 3899,1130 3900,1131 3960,1131 3961,1132 3964,1132 3965,1131 4015,1131 4016,1132 4028,1132 4029,1131 4124,1131 4125,1132 4135,1132 4136,1131 4148,1131 4149,1132 4184,1132 4185,1131 4191,1131 4192,1132 4270,1132 4271,1133 4353,1133 4354,1134 4373,1134 4374,1133 4480,1133 4481,1134 4484,1134 4485,1135 4487,1135 4488,1136 4490,1136 4491,1137 4552,1137 4553,1138 4572,1138 4573,1137 4616,1137 4617,1136 4635,1136 4636,1135 4638,1135 4639,1134 4641,1134 4642,1133 4643,1133 4646,1130 4646,1129 4647,1128 4647,1126 4648,1125 4648,1119 4649,1118 4649,1110 4648,1109 4648,1037 4649,1036 4649,1023 4648,1022 4648,1009 4649,1008 4649,992 4648,991 4648,988 4647,987 4647,984 4646,983 4646,967 4647,966 4647,945 4648,944 4648,935 4649,934 4649,927 4650,926 4650,922 4649,921 4649,917 4648,916 4648,913 4647,912 4647,908 4646,907 4646,893 4647,892 4647,851 4646,850 4646,838 4647,837 4647,829 4648,828 4648,827 4647,826 4647,819 4646,818 4646,815 4645,814 4645,812 4644,811 4644,809 4643,808 4643,806 4642,805 4641,805 4640,804 4639,804 4638,803 4634,803 4633,802 4628,802 4627,801 4620,801 4619,800 4617,800 4616,801 4606,801 4605,800 4598,800 4597,799 4592,799 4591,800 4572,800 4571,801 4569,801 4568,800 4557,800 4556,801 4488,801 4487,800 4469,800 4468,801 4459,801 4458,800 4451,800 4450,801 4436,801 4435,802 4408,802 4407,803 4312,803 4311,802 4227,802 4226,801 4193,801 4192,800 4187,800 4186,801 4161,801 4160,800 4070,800 4069,799 4050,799 4049,798 4018,798 4017,799 3993,799 3992,800 3982,800 3981,799 3937,799 3936,798 3917,798 3916,797 3912,797 3911,796 3907,796 3906,795 3882,795 3881,796 3875,796 3874,795 3787,795 3786,796 3783,796 3782,795 3706,795 3705,794 3699,794 3698,795 3679,795 3678,794 3670,794 3669,793 3658,793 3657,792 3652,792 3651,793 3640,793 3639,794 3622,794 3621,793 3614,793 3613,792 3606,792 3605,791 3597,791 3596,790" fill="rgba(52,1,87,0.3)" stroke="rgb(52,1,87)" stroke-width="2" data-block-id="0003" data-name="b-0010" /><text x="4119" y="934" text-anchor="middle" dominant-baseline="middle" class="block-label" fill="rgb(52,1,87)" stroke="white" stroke-width="3" paint-order="stroke">b-0010</text><polygon points="3574,1239 3573,1240 3552,1240 3551,1241 3549,1241 3546,1244 3546,1245 3545,1246 3545,1250 3544,1251 3544,1265 3543,1266 3543,1289 3544,1290 3544,1328 3543,1329 3543,1339 3542,1340 3542,1354 3543,1355 3543,1365 3544,1366 3544,1371 3543,1372 3543,1381 3542,1382 3542,1384 3543,1385 3543,1395 3542,1396 3542,1402 3541,1403 3541,1405 3542,1406 3542,1412 3543,1413 3543,1440 3544,1441 3544,1443 3543,1444 3543,1471 3542,1472 3542,1481 3543,1482 3543,1495 3542,1496 3542,1502 3543,1503 3543,1539 3542,1540 3542,1544 3541,1545 3541,1560 3542,1561 3542,1564 3543,1565 3543,1568 3544,1569 3544,1570 3547,1573 3548,1573 3549,1574 3553,1574 3554,1575 3562,1575 3563,1576 3578,1576 3579,1577 3594,1577 3595,1576 3610,1576 3611,1575 3687,1575 3688,1576 3716,1576 3717,1575 3744,1575 3745,1574 3782,1574 3783,1575 3802,1575 3803,1574 3842,1574 3843,1575 3848,1575 3849,1576 3852,1576 3853,1577 3870,1577 3871,1576 3877,1576 3878,1575 3882,1575 3883,1576 3917,1576 3918,1575 4019,1575 4020,1576 4022,1576 4023,1575 4030,1575 4031,1574 4034,1574 4035,1573 4037,1573 4038,1574 4042,1574 4043,1575 4083,1575 4084,1574 4085,1574 4086,1575 4127,1575 4128,1576 4132,1576 4133,1575 4138,1575 4139,1574 4147,1574 4148,1575 4169,1575 4170,1574 4173,1574 4174,1573 4175,1573 4176,1572 4185,1572 4186,1573 4192,1573 4193,1572 4198,1572 4199,1571 4227,1571 4228,1570 4232,1570 4233,1569 4238,1569 4239,1568 4261,1568 4262,1567 4268,1567 4269,1566 4275,1566 4277,1568 4279,1568 4280,1569 4283,1569 4284,1570 4291,1570 4292,1571 4331,1571 4332,1572 4342,1572 4343,1573 4351,1573 4352,1572 4410,1572 4411,1573 4426,1573 4427,1572 4428,1573 4438,1573 4439,1574 4451,1574 4452,1575 4494,1575 4495,1574 4504,1574 4505,1575 4576,1575 4577,1576 4638,1576 4639,1575 4643,1575 4644,1574 4645,1574 4646,1573 4646,1572 4647,1571 4647,1566 4648,1565 4648,1495 4647,1494 4647,1485 4648,1484 4648,1412 4647,1411 4647,1348 4646,1347 4646,1343 4647,1342 4647,1278 4646,1277 4646,1259 4645,1258 4645,1254 4644,1253 4644,1251 4642,1249 4640,1249 4639,1248 4631,1248 4630,1247 4625,1247 4624,1246 4532,1246 4531,1245 4457,1245 4456,1244 4350,1244 4349,1245 4344,1245 4343,1246 4336,1246 4335,1247 4328,1247 4327,1248 4311,1248 4310,1247 4307,1247 4306,1248 4290,1248 4289,1249 4277,1249 4276,1250 4269,1250 4268,1249 4235,1249 4234,1250 4220,1250 4219,1249 4168,1249 4167,1248 4161,1248 4160,1247 4087,1247 4086,1248 4069,1248 4068,1247 4042,1247 4041,1248 4013,1248 4012,1249 4007,1249 4006,1248 3972,1248 3971,1249 3957,1249 3956,1248 3931,1248 3930,1247 3925,1247 3924,1248 3890,1248 3889,1247 3885,1247 3884,1246 3862,1246 3861,1245 3840,1245 3839,1246 3790,1246 3789,1245 3766,1245 3765,1244 3744,1244 3743,1243 3736,1243 3735,1242 3731,1242 3730,1241 3727,1241 3726,1240 3723,1240 3722,1239 3699,1239 3698,1240 3590,1240 3589,1239" fill="rgba(235,157,37,0.3)" stroke="rgb(235,157,37)" stroke-width="2" data-block-id="0004" data-name="b-0011" /><text x="4021" y="1428" text-anchor="middle" dominant-baseline="middle" class="block-label" fill="rgb(235,157,37)" stroke="white" stroke-width="3" paint-order="stroke">b-0011</text><polygon points="912,307 911,308 903,308 902,309 886,309 885,310 879,310 878,311 864,311 863,312 859,312 858,313 855,313 854,314 850,314 849,313 732,313 731,314 725,314 724,315 719,315 718,314 693,314 692,313 675,313 674,314 635,314 634,315 614,315 613,314 612,315 593,315 592,314 587,314 586,315 569,315 568,314 567,314 566,315 549,315 548,314 537,314 536,315 516,315 515,316 509,316 508,317 505,317 504,318 503,318 501,320 501,321 500,322 500,324 499,325 499,330 500,331 500,335 501,336 501,340 502,341 502,344 503,345 503,349 504,350 504,353 505,354 505,357 506,358 506,360 507,361 507,364 508,365 508,368 509,369 509,372 510,373 510,376 511,377 511,380 512,381 512,383 513,384 513,387 514,388 514,391 515,392 515,394 516,395 516,398 517,399 517,402 518,403 518,405 519,406 519,407 520,408 520,410 521,411 521,412 522,413 522,415 523,416 523,419 524,420 524,424 525,425 525,429 526,430 526,433 527,434 527,437 528,438 528,441 529,442 529,446 530,447 530,449 531,450 531,452 532,453 532,455 533,456 533,459 534,460 534,464 535,465 535,469 536,470 536,473 537,474 537,476 538,477 538,479 539,480 539,481 540,482 540,483 541,484 541,485 542,486 542,487 543,488 543,489 544,490 544,491 546,493 546,494 547,495 547,503 548,504 548,508 549,509 549,512 550,513 550,516 551,517 551,519 552,520 552,523 553,524 553,526 554,527 554,528 555,529 555,531 556,532 556,534 557,535 557,538 558,539 558,542 559,543 559,545 560,546 560,548 561,549 561,552 562,553 562,555 563,556 563,559 564,560 564,562 565,563 565,565 566,566 566,568 567,569 567,572 568,573 568,576 569,577 569,578 570,579 570,581 571,582 571,584 572,585 572,588 573,589 573,591 574,592 574,594 575,595 575,597 576,598 576,600 577,601 577,604 578,605 578,608 579,609 579,612 580,613 580,616 581,617 581,620 582,621 582,624 583,625 583,628 584,629 584,632 585,633 585,636 586,637 586,639 587,640 587,643 588,644 588,646 589,647 589,649 590,650 590,651 591,652 591,653 593,655 593,656 594,657 595,657 597,659 599,659 600,660 601,660 602,661 609,661 610,662 648,662 649,661 651,661 652,662 710,662 711,663 729,663 730,662 753,662 754,663 760,663 761,662 797,662 798,663 829,663 830,662 841,662 842,663 876,663 877,662 897,662 898,661 909,661 910,662 932,662 933,661 940,661 941,662 993,662 994,663 1010,663 1011,664 1092,664 1093,665 1098,665 1099,666 1104,666 1105,667 1114,667 1115,666 1119,666 1120,665 1122,665 1123,664 1126,664 1127,663 1135,663 1136,662 1157,662 1158,663 1182,663 1183,664 1194,664 1195,663 1246,663 1247,664 1266,664 1267,665 1273,665 1274,666 1279,666 1280,667 1288,667 1289,666 1303,666 1304,665 1382,665 1383,666 1473,666 1474,665 1487,665 1488,664 1492,664 1493,663 1495,663 1498,660 1498,655 1499,654 1499,620 1498,619 1498,606 1499,605 1499,593 1498,592 1499,591 1499,583 1500,582 1500,574 1499,573 1499,523 1500,522 1500,509 1499,508 1499,505 1500,504 1500,477 1499,476 1499,461 1500,460 1500,437 1501,436 1501,432 1500,431 1500,386 1501,385 1501,375 1502,374 1502,346 1501,345 1501,329 1500,328 1500,326 1499,325 1498,325 1496,323 1492,323 1491,322 1472,322 1471,321 1432,321 1431,320 1425,320 1424,321 1410,321 1409,320 1391,320 1390,321 1386,321 1385,320 1319,320 1318,319 1286,319 1285,318 1276,318 1275,317 1266,317 1265,318 1255,318 1254,319 1234,319 1233,318 1172,318 1171,317 1161,317 1160,318 1146,318 1145,317 1096,317 1095,318 1091,318 1090,317 1050,317 1049,316 1017,316 1016,315 980,315 979,314 957,314 956,313 950,313 949,312 945,312 944,311 935,311 934,310 932,310 931,309 929,309 928,308 926,308 925,307" fill="rgba(129,191,187,0.3)" stroke="rgb(129,191,187)" stroke-width="2" data-block-id="0005" data-name="b-0012" /><text x="831" y="481" text-anchor="middle" dominant-baseline="middle" class="block-label" fill="rgb(129,191,187)" stroke="white" stroke-width="3" paint-order="stroke">b-0012</text><polygon points="3137,2623 3136,2624 3134,2624 3133,2625 3131,2625 3130,2626 3125,2626 3124,2627 3089,2627 3088,2626 3078,2626 3077,2627 3027,2627 3026,2628 2941,2628 2940,2629 2864,2629 2863,2630 2844,2630 2843,2631 2839,2631 2838,2630 2721,2630 2720,2631 2714,2631 2713,2632 2694,2632 2693,2631 2648,2631 2647,2630 2629,2630 2628,2629 2589,2629 2588,2630 2587,2630 2586,2631 2585,2631 2583,2633 2583,2634 2582,2635 2582,2656 2581,2657 2581,2661 2582,2662 2582,2677 2581,2678 2581,2685 2582,2686 2582,2690 2583,2691 2583,2698 2582,2699 2582,2703 2581,2704 2581,2711 2582,2712 2582,2726 2581,2727 2581,2733 2582,2734 2582,2751 2581,2752 2581,2765 2582,2766 2582,2776 2583,2777 2583,2790 2582,2791 2582,2794 2581,2795 2581,2798 2580,2799 2580,2871 2579,2872 2579,2875 2580,2876 2580,2928 2581,2929 2581,2941 2580,2942 2580,2985 2581,2986 2581,2992 2582,2993 2582,2994 2585,2997 2586,2997 2587,2998 2588,2998 2589,2999 2593,2999 2594,3000 2605,3000 2606,3001 2617,3001 2618,3002 2625,3002 2626,3003 2641,3003 2642,3004 2656,3004 2657,3005 2700,3005 2701,3006 2744,3006 2745,3005 2782,3005 2783,3004 2784,3004 2785,3005 2810,3005 2811,3004 2952,3004 2953,3005 3006,3005 3007,3004 3118,3004 3119,3005 3260,3005 3261,3004 3342,3004 3343,3003 3350,3003 3351,3002 3353,3002 3354,3001 3355,3001 3356,3000 3356,2999 3357,2998 3357,2997 3358,2996 3358,2993 3359,2992 3359,2921 3358,2920 3358,2912 3357,2911 3357,2907 3358,2906 3358,2889 3359,2888 3359,2879 3358,2878 3358,2828 3359,2827 3359,2799 3360,2798 3360,2782 3359,2781 3359,2769 3360,2768 3360,2734 3361,2733 3361,2727 3360,2726 3360,2717 3359,2716 3359,2703 3358,2702 3358,2693 3359,2692 3359,2674 3358,2673 3358,2668 3359,2667 3359,2640 3358,2639 3358,2634 3356,2632 3356,2631 3355,2630 3354,2630 3353,2629 3352,2629 3351,2628 3347,2628 3346,2627 3337,2627 3336,2628 3311,2628 3310,2627 3288,2627 3287,2628 3276,2628 3275,2627 3236,2627 3235,2628 3209,2628 3208,2627 3196,2627 3195,2628 3174,2628 3173,2627 3163,2627 3162,2626 3156,2626 3155,2625 3150,2625 3149,2624 3145,2624 3144,2623" fill="rgba(20,160,203,0.3)" stroke="rgb(20,160,203)" stroke-width="2" data-block-id="0006" data-name="b-0013" /><text x="2964" y="2779" text-anchor="middle" dominant-baseline="middle" class="block-label" fill="rgb(20,160,203)" stroke="white" stroke-width="3" paint-order="stroke">b-0013</text><polygon points="2283,2135 2282,2136 2276,2136 2275,2137 2268,2137 2267,2136 2254,2136 2253,2137 2242,2137 2241,2138 2207,2138 2206,2139 2172,2139 2171,2138 2154,2138 2153,2137 2122,2137 2121,2136 2115,2136 2114,2137 2098,2137 2097,2136 2086,2136 2085,2137 2082,2137 2081,2136 2065,2136 2064,2137 2053,2137 2052,2138 2043,2138 2042,2139 1992,2139 1991,2140 1979,2140 1978,2139 1969,2139 1968,2140 1957,2140 1956,2139 1934,2139 1933,2138 1920,2138 1919,2137 1914,2137 1913,2138 1907,2138 1906,2139 1885,2139 1884,2138 1873,2138 1872,2139 1840,2139 1839,2138 1832,2138 1831,2137 1830,2138 1799,2138 1798,2139 1796,2139 1795,2138 1789,2138 1788,2137 1759,2137 1758,2138 1745,2138 1744,2137 1740,2137 1739,2136 1701,2136 1700,2137 1690,2137 1689,2138 1687,2138 1686,2139 1685,2139 1684,2140 1683,2140 1682,2141 1681,2141 1680,2142 1679,2142 1678,2143 1678,2144 1677,2145 1677,2155 1678,2156 1678,2172 1677,2173 1677,2218 1676,2219 1676,2222 1675,2223 1675,2235 1676,2236 1676,2320 1675,2321 1675,2326 1676,2327 1676,2334 1677,2335 1677,2360 1676,2361 1676,2366 1675,2367 1675,2375 1676,2376 1676,2379 1677,2380 1677,2383 1678,2384 1678,2387 1677,2388 1677,2398 1678,2399 1678,2401 1679,2402 1679,2404 1680,2405 1680,2406 1681,2407 1681,2409 1682,2410 1682,2412 1683,2413 1683,2416 1684,2417 1684,2425 1683,2426 1683,2450 1684,2451 1684,2458 1683,2459 1683,2463 1682,2464 1682,2474 1683,2475 1683,2484 1682,2485 1682,2493 1686,2497 1687,2497 1688,2498 1689,2498 1690,2499 1691,2499 1692,2500 1693,2500 1694,2501 1695,2501 1696,2502 1701,2502 1702,2503 1718,2503 1719,2504 1738,2504 1739,2505 1786,2505 1787,2506 1882,2506 1883,2507 1907,2507 1908,2508 1914,2508 1915,2509 1926,2509 1927,2510 1931,2510 1932,2509 1945,2509 1946,2510 1957,2510 1958,2511 1988,2511 1989,2510 1990,2511 2000,2511 2001,2510 2019,2510 2020,2511 2029,2511 2030,2510 2080,2510 2081,2509 2087,2509 2088,2510 2107,2510 2108,2511 2126,2511 2127,2510 2134,2510 2135,2511 2153,2511 2154,2512 2164,2512 2165,2513 2172,2513 2173,2512 2183,2512 2184,2513 2203,2513 2204,2512 2212,2512 2213,2511 2218,2511 2219,2510 2223,2510 2224,2509 2229,2509 2230,2510 2303,2510 2304,2509 2315,2509 2316,2510 2426,2510 2427,2511 2443,2511 2444,2510 2445,2510 2446,2509 2447,2509 2448,2508 2449,2508 2451,2506 2451,2505 2452,2504 2452,2503 2453,2502 2453,2494 2454,2493 2454,2489 2453,2488 2453,2390 2454,2389 2454,2380 2453,2379 2453,2265 2454,2264 2454,2256 2453,2255 2453,2254 2454,2253 2454,2234 2453,2233 2453,2227 2454,2226 2454,2175 2453,2174 2453,2167 2454,2166 2454,2164 2455,2163 2455,2161 2456,2160 2456,2157 2457,2156 2456,2155 2456,2153 2455,2152 2455,2148 2454,2147 2454,2144 2453,2143 2453,2142 2452,2141 2452,2140 2451,2139 2451,2138 2450,2138 2449,2137 2447,2137 2446,2136 2442,2136 2441,2135 2438,2135 2437,2136 2315,2136 2314,2135" fill="rgba(57,21,252,0.3)" stroke="rgb(57,21,252)" stroke-width="2" data-block-id="0007" data-name="b-0014" /><text x="2019" y="2314" text-anchor="middle" dominant-baseline="middle" class="block-label" fill="rgb(57,21,252)" stroke="white" stroke-width="3" paint-order="stroke">b-0014</text><polygon points="3242,2134 3241,2135 3169,2135 3168,2136 3131,2136 3130,2135 3120,2135 3119,2136 3102,2136 3101,2137 3096,2137 3095,2138 3085,2138 3084,2139 3053,2139 3052,2140 3026,2140 3025,2141 3000,2141 2999,2142 2970,2142 2969,2141 2862,2141 2861,2140 2821,2140 2820,2141 2792,2141 2791,2140 2767,2140 2766,2139 2760,2139 2759,2138 2753,2138 2752,2139 2744,2139 2743,2138 2730,2138 2729,2137 2622,2137 2621,2136 2609,2136 2608,2137 2598,2137 2597,2138 2592,2138 2591,2139 2590,2139 2589,2140 2589,2141 2588,2142 2588,2144 2587,2145 2587,2211 2588,2212 2588,2230 2587,2231 2587,2278 2586,2279 2586,2286 2585,2287 2585,2297 2584,2298 2584,2302 2585,2303 2585,2310 2586,2311 2586,2315 2585,2316 2585,2333 2586,2334 2586,2344 2585,2345 2585,2348 2586,2349 2586,2403 2585,2404 2585,2456 2584,2457 2584,2469 2585,2470 2585,2486 2584,2487 2584,2495 2585,2496 2585,2500 2586,2501 2586,2503 2588,2505 2589,2505 2590,2506 2592,2506 2593,2507 2603,2507 2604,2508 2620,2508 2621,2509 2647,2509 2648,2510 2688,2510 2689,2511 2742,2511 2743,2512 2765,2512 2766,2511 2800,2511 2801,2510 2812,2510 2813,2509 2884,2509 2885,2510 2895,2510 2896,2509 2975,2509 2976,2508 2992,2508 2993,2507 3054,2507 3055,2508 3056,2507 3074,2507 3075,2506 3097,2506 3098,2507 3113,2507 3114,2506 3116,2506 3117,2507 3125,2507 3126,2508 3131,2508 3132,2507 3165,2507 3166,2508 3171,2508 3172,2509 3175,2509 3176,2510 3181,2510 3182,2509 3189,2509 3190,2510 3196,2510 3197,2511 3201,2511 3202,2510 3347,2510 3348,2509 3351,2509 3352,2508 3354,2508 3358,2504 3358,2489 3359,2488 3359,2474 3358,2473 3358,2454 3359,2453 3359,2439 3360,2438 3360,2416 3359,2415 3359,2353 3360,2352 3360,2330 3359,2329 3359,2314 3358,2313 3358,2294 3359,2293 3359,2270 3358,2269 3358,2240 3359,2239 3359,2222 3358,2221 3358,2185 3359,2184 3359,2172 3360,2171 3360,2168 3359,2167 3359,2146 3358,2145 3358,2142 3357,2141 3357,2139 3354,2136 3351,2136 3350,2135 3340,2135 3339,2134" fill="rgba(235,88,48,0.3)" stroke="rgb(235,88,48)" stroke-width="2" data-block-id="0008" data-name="b-0015" /><text x="2955" y="2331" text-anchor="middle" dominant-baseline="middle" class="block-label" fill="rgb(235,88,48)" stroke="white" stroke-width="3" paint-order="stroke">b-0015</text><polygon points="1732,782 1731,783 1699,783 1698,784 1694,784 1693,785 1690,785 1689,786 1688,786 1686,788 1686,789 1685,790 1685,814 1684,815 1684,821 1685,822 1685,844 1684,845 1684,885 1683,886 1683,895 1682,896 1682,902 1683,903 1683,910 1684,911 1684,940 1683,941 1683,954 1684,955 1684,964 1683,965 1683,997 1682,998 1682,1026 1681,1027 1681,1112 1680,1113 1681,1114 1681,1116 1683,1118 1684,1118 1685,1119 1686,1119 1687,1120 1689,1120 1690,1121 1698,1121 1699,1122 1703,1122 1704,1121 1715,1121 1716,1122 1722,1122 1723,1123 1729,1123 1730,1122 1766,1122 1767,1123 1861,1123 1862,1124 1938,1124 1939,1125 1943,1125 1944,1124 1980,1124 1981,1125 2032,1125 2033,1126 2044,1126 2045,1125 2048,1125 2049,1126 2076,1126 2077,1125 2127,1125 2128,1126 2145,1126 2146,1125 2180,1125 2181,1126 2204,1126 2205,1125 2212,1125 2213,1126 2227,1126 2228,1127 2246,1127 2247,1126 2264,1126 2265,1127 2313,1127 2314,1128 2354,1128 2355,1127 2360,1127 2361,1128 2395,1128 2396,1127 2419,1127 2420,1128 2441,1128 2442,1129 2455,1129 2456,1128 2460,1128 2461,1127 2462,1127 2464,1125 2464,1123 2465,1122 2465,1119 2466,1118 2466,1114 2467,1113 2467,1084 2466,1083 2466,1078 2467,1077 2467,1051 2466,1050 2466,1047 2465,1046 2465,1039 2466,1038 2466,1036 2467,1035 2467,1032 2468,1031 2468,1025 2467,1024 2467,1015 2466,1014 2466,1002 2467,1001 2467,957 2468,956 2468,945 2469,944 2469,940 2470,939 2470,923 2469,922 2469,918 2468,917 2468,900 2469,899 2469,879 2470,878 2469,877 2469,867 2468,866 2468,856 2469,855 2469,849 2468,848 2468,810 2467,809 2467,803 2466,802 2466,797 2465,796 2465,794 2462,791 2458,791 2457,790 2443,790 2442,791 2436,791 2435,790 2411,790 2410,791 2387,791 2386,790 2359,790 2358,791 2341,791 2340,790 2332,790 2331,789 2321,789 2320,790 2306,790 2305,791 2292,791 2291,790 2286,790 2285,789 2284,789 2283,788 2280,788 2279,787 2176,787 2175,786 2171,786 2170,785 2151,785 2150,786 2129,786 2128,785 2121,785 2120,784 2105,784 2104,785 2074,785 2073,784 2064,784 2063,785 2031,785 2030,784 2014,784 2013,785 1992,785 1991,784 1966,784 1965,785 1940,785 1939,784 1810,784 1809,783 1805,783 1804,784 1794,784 1793,783 1762,783 1761,782 1757,782 1756,783 1743,783 1742,782" fill="rgba(207,14,189,0.3)" stroke="rgb(207,14,189)" stroke-width="2" data-block-id="0009" data-name="b-0018" /><text x="2117" y="948" text-anchor="middle" dominant-baseline="middle" class="block-label" fill="rgb(207,14,189)" stroke="white" stroke-width="3" paint-order="stroke">b-0018</text><polygon points="2224,328 2223,329 2217,329 2216,330 2213,330 2212,331 2208,331 2207,332 2197,332 2196,331 2182,331 2181,330 2175,330 2174,331 2163,331 2162,330 2157,330 2156,329 2155,329 2154,330 2150,330 2149,331 2145,331 2144,332 2139,332 2138,331 2129,331 2128,330 2112,330 2111,329 2104,329 2103,330 2098,330 2097,331 2090,331 2089,330 2054,330 2053,331 2048,331 2047,332 2045,332 2044,331 2037,331 2036,330 2008,330 2007,331 2002,331 2001,332 1994,332 1993,331 1968,331 1967,330 1962,330 1961,331 1955,331 1954,332 1946,332 1945,331 1929,331 1928,330 1911,330 1910,331 1896,331 1895,330 1875,330 1874,329 1866,329 1865,330 1861,330 1860,331 1846,331 1845,330 1817,330 1816,331 1812,331 1811,332 1808,332 1807,333 1804,333 1803,334 1801,334 1800,335 1799,335 1798,336 1782,336 1781,335 1770,335 1769,336 1767,336 1766,337 1764,337 1763,338 1761,338 1760,339 1758,339 1757,340 1756,340 1755,341 1754,341 1747,348 1740,348 1739,347 1738,347 1737,348 1734,348 1733,349 1732,349 1731,350 1730,350 1729,351 1726,351 1725,352 1723,352 1721,354 1719,354 1718,355 1717,355 1715,357 1713,357 1712,358 1710,358 1709,359 1705,359 1704,360 1702,360 1700,362 1699,362 1696,365 1696,366 1695,367 1695,368 1694,369 1694,371 1693,372 1693,376 1692,377 1692,382 1691,383 1691,388 1690,389 1690,391 1691,392 1691,399 1690,400 1690,404 1689,405 1689,408 1688,409 1688,423 1689,424 1689,427 1690,428 1690,432 1691,433 1691,447 1692,448 1692,472 1691,473 1691,478 1690,479 1690,485 1691,486 1691,488 1692,489 1692,491 1693,492 1693,493 1692,494 1692,495 1687,500 1687,501 1686,502 1686,503 1685,504 1685,515 1684,516 1684,520 1685,521 1685,542 1686,543 1686,544 1685,545 1685,559 1684,560 1684,586 1685,587 1685,589 1684,590 1684,597 1683,598 1683,610 1682,611 1682,613 1683,614 1683,622 1684,623 1684,661 1685,662 1685,663 1686,663 1688,665 1689,665 1690,666 1694,666 1695,667 1717,667 1718,668 1765,668 1766,669 1792,669 1793,668 1799,668 1800,669 1814,669 1815,670 1827,670 1828,669 1842,669 1843,668 1859,668 1860,669 1890,669 1891,670 1910,670 1911,669 1917,669 1918,670 1920,670 1921,671 1923,671 1924,672 1926,672 1927,673 1945,673 1946,672 1953,672 1954,671 1956,671 1957,670 1963,670 1964,669 1973,669 1974,670 2013,670 2014,671 2020,671 2021,672 2029,672 2030,671 2079,671 2080,670 2082,670 2083,671 2087,671 2088,672 2091,672 2092,673 2099,673 2100,672 2105,672 2106,671 2130,671 2131,672 2155,672 2156,673 2170,673 2171,674 2175,674 2176,675 2189,675 2190,674 2201,674 2202,673 2204,673 2205,674 2222,674 2223,673 2240,673 2241,674 2246,674 2247,675 2252,675 2253,674 2258,674 2259,673 2280,673 2281,672 2289,672 2290,673 2295,673 2296,674 2334,674 2335,675 2377,675 2378,674 2401,674 2402,673 2406,673 2407,674 2412,674 2413,675 2421,675 2422,674 2428,674 2429,673 2432,673 2433,674 2452,674 2453,673 2457,673 2458,672 2460,672 2462,670 2463,670 2467,666 2467,665 2468,664 2468,662 2469,661 2469,657 2470,656 2470,652 2471,651 2471,648 2470,647 2470,641 2469,640 2469,621 2468,620 2468,617 2467,616 2467,611 2468,610 2468,608 2469,607 2469,605 2470,604 2470,597 2469,596 2469,584 2470,583 2470,573 2469,572 2469,561 2468,560 2468,551 2467,550 2467,545 2466,544 2466,542 2467,541 2467,537 2468,536 2468,533 2469,532 2469,497 2468,496 2469,495 2469,488 2470,487 2470,479 2469,478 2469,464 2468,463 2468,460 2469,459 2469,455 2470,454 2470,450 2471,449 2471,440 2470,439 2470,353 2469,352 2469,340 2468,339 2468,338 2467,337 2467,336 2466,335 2465,335 2463,333 2420,333 2419,332 2418,332 2417,333 2411,333 2410,334 2401,334 2400,333 2396,333 2395,332 2391,332 2390,333 2386,333 2385,334 2372,334 2371,333 2366,333 2365,334 2348,334 2347,333 2331,333 2330,332 2325,332 2324,331 2318,331 2317,332 2294,332 2293,331 2282,331 2281,330 2266,330 2265,331 2257,331 2256,330 2248,330 2247,329 2231,329 2230,328" fill="rgba(189,174,189,0.3)" stroke="rgb(189,174,189)" stroke-width="2" data-block-id="0010" data-name="b-0019" /><text x="2056" y="484" text-anchor="middle" dominant-baseline="middle" class="block-label" fill="rgb(189,174,189)" stroke="white" stroke-width="3" paint-order="stroke">b-0019</text><polygon points="1689,1227 1688,1228 1685,1228 1684,1229 1683,1229 1680,1232 1680,1234 1679,1235 1679,1283 1678,1284 1678,1291 1679,1292 1679,1329 1678,1330 1678,1342 1677,1343 1677,1347 1678,1348 1678,1431 1677,1432 1677,1505 1676,1506 1676,1530 1675,1531 1675,1556 1676,1557 1676,1559 1677,1560 1677,1561 1679,1563 1680,1563 1681,1564 1683,1564 1684,1565 1696,1565 1697,1566 1770,1566 1771,1567 1874,1567 1875,1568 1883,1568 1884,1567 1889,1567 1890,1566 1922,1566 1923,1567 1939,1567 1940,1566 1985,1566 1986,1567 1992,1567 1993,1566 2005,1566 2006,1567 2051,1567 2052,1568 2079,1568 2080,1569 2084,1569 2085,1568 2098,1568 2099,1569 2153,1569 2154,1570 2157,1570 2158,1569 2168,1569 2169,1570 2185,1570 2186,1569 2195,1569 2196,1570 2242,1570 2243,1571 2287,1571 2288,1572 2294,1572 2295,1573 2301,1573 2302,1572 2310,1572 2311,1571 2352,1571 2353,1570 2359,1570 2360,1571 2364,1571 2365,1572 2392,1572 2393,1573 2395,1573 2396,1572 2446,1572 2447,1571 2453,1571 2454,1570 2455,1570 2459,1566 2459,1565 2460,1564 2460,1563 2461,1562 2461,1540 2460,1539 2460,1474 2461,1473 2461,1469 2462,1468 2462,1464 2463,1463 2463,1450 2462,1449 2462,1445 2461,1444 2461,1429 2462,1428 2462,1413 2461,1412 2461,1386 2462,1385 2462,1374 2463,1373 2463,1368 2464,1367 2464,1351 2463,1350 2463,1299 2464,1298 2464,1289 2465,1288 2465,1270 2464,1269 2464,1264 2463,1263 2463,1262 2464,1261 2464,1254 2465,1253 2465,1249 2464,1248 2464,1246 2463,1245 2463,1244 2462,1243 2462,1242 2459,1239 2458,1239 2457,1238 2454,1238 2453,1237 2434,1237 2433,1236 2403,1236 2402,1235 2384,1235 2383,1236 2377,1236 2376,1235 2338,1235 2337,1236 2310,1236 2309,1235 2293,1235 2292,1236 2287,1236 2286,1237 2271,1237 2270,1238 2266,1238 2265,1239 2250,1239 2249,1240 2239,1240 2238,1239 2235,1239 2234,1238 2233,1238 2232,1237 2230,1237 2229,1236 2214,1236 2213,1235 2167,1235 2166,1236 2165,1236 2164,1235 2147,1235 2146,1236 2139,1236 2138,1235 2115,1235 2114,1234 2088,1234 2087,1233 2077,1233 2076,1234 2061,1234 2060,1233 2053,1233 2052,1232 1984,1232 1983,1231 1955,1231 1954,1232 1937,1232 1936,1231 1914,1231 1913,1232 1790,1232 1789,1231 1749,1231 1748,1230 1739,1230 1738,1229 1727,1229 1726,1230 1709,1230 1708,1229 1696,1229 1695,1228 1691,1228 1690,1227" fill="rgba(50,107,54,0.3)" stroke="rgb(50,107,54)" stroke-width="2" data-block-id="0011" data-name="b-0020" /><text x="2135" y="1385" text-anchor="middle" dominant-baseline="middle" class="block-label" fill="rgb(50,107,54)" stroke="white" stroke-width="3" paint-order="stroke">b-0020</text><polygon points="1696,1681 1695,1682 1692,1682 1690,1684 1689,1684 1687,1686 1686,1686 1685,1687 1684,1687 1683,1688 1682,1688 1679,1691 1679,1720 1680,1721 1680,1731 1681,1732 1681,1737 1682,1738 1682,1740 1681,1741 1681,1745 1680,1746 1680,1749 1679,1750 1679,1769 1678,1770 1678,1849 1677,1850 1677,1857 1676,1858 1676,1906 1675,1907 1675,1915 1674,1916 1674,1927 1673,1928 1673,1947 1672,1948 1672,2008 1673,2009 1673,2013 1675,2015 1675,2016 1677,2016 1678,2017 1695,2017 1696,2018 1703,2018 1704,2017 1718,2017 1719,2018 1786,2018 1787,2017 1815,2017 1816,2018 1832,2018 1833,2017 1853,2017 1854,2016 1855,2016 1856,2017 1863,2017 1864,2018 1884,2018 1885,2017 1898,2017 1899,2016 1908,2016 1909,2017 1922,2017 1923,2018 1931,2018 1932,2017 1945,2017 1946,2016 1950,2016 1951,2017 1954,2017 1955,2018 1959,2018 1960,2019 2025,2019 2026,2020 2046,2020 2047,2019 2077,2019 2078,2020 2099,2020 2100,2019 2122,2019 2123,2020 2144,2020 2145,2019 2168,2019 2169,2020 2311,2020 2312,2021 2442,2021 2443,2020 2446,2020 2447,2019 2449,2019 2450,2018 2451,2018 2454,2015 2454,2013 2455,2012 2455,2008 2456,2007 2456,1980 2457,1979 2457,1974 2456,1973 2456,1958 2457,1957 2457,1925 2458,1924 2458,1912 2457,1911 2457,1905 2458,1904 2458,1901 2459,1900 2459,1897 2460,1896 2460,1885 2461,1884 2460,1883 2460,1879 2459,1878 2459,1877 2458,1876 2458,1874 2457,1873 2457,1869 2458,1868 2458,1866 2459,1865 2459,1864 2460,1863 2460,1854 2459,1853 2459,1821 2460,1820 2460,1808 2461,1807 2461,1802 2462,1801 2462,1768 2461,1767 2461,1744 2462,1743 2462,1693 2461,1692 2461,1690 2458,1687 2457,1687 2456,1686 2455,1686 2454,1685 2447,1685 2446,1686 2383,1686 2382,1685 2371,1685 2370,1686 2354,1686 2353,1685 2344,1685 2343,1684 2331,1684 2330,1685 2251,1685 2250,1684 2240,1684 2239,1683 2218,1683 2217,1684 2146,1684 2145,1685 2053,1685 2052,1684 1968,1684 1967,1683 1958,1683 1957,1684 1947,1684 1946,1683 1925,1683 1924,1682 1784,1682 1783,1681" fill="rgba(243,63,248,0.3)" stroke="rgb(243,63,248)" stroke-width="2" data-block-id="0012" data-name="b-0021" /><text x="2087" y="1867" text-anchor="middle" dominant-baseline="middle" class="block-label" fill="rgb(243,63,248)" stroke="white" stroke-width="3" paint-order="stroke">b-0021</text><polygon points="3555,2129 3554,2130 3549,2130 3548,2131 3546,2131 3545,2132 3544,2132 3543,2133 3543,2134 3540,2137 3540,2138 3538,2140 3538,2141 3535,2144 3535,2146 3534,2147 3535,2148 3535,2156 3536,2157 3536,2170 3537,2171 3537,2173 3538,2174 3538,2175 3539,2176 3539,2178 3540,2179 3540,2197 3541,2198 3541,2225 3542,2226 3542,2231 3541,2232 3541,2261 3540,2262 3540,2270 3541,2271 3541,2282 3540,2283 3540,2291 3541,2292 3541,2297 3542,2298 3542,2303 3541,2304 3541,2312 3540,2313 3540,2316 3541,2317 3541,2352 3540,2353 3540,2358 3539,2359 3539,2360 3540,2361 3540,2366 3541,2367 3541,2393 3542,2394 3542,2395 3541,2396 3541,2403 3540,2404 3540,2414 3541,2415 3541,2439 3542,2440 3542,2445 3541,2446 3541,2453 3540,2454 3540,2459 3541,2460 3541,2473 3540,2474 3540,2484 3541,2485 3541,2496 3542,2497 3542,2505 3546,2509 3548,2509 3549,2510 3552,2510 3553,2511 3560,2511 3561,2512 3592,2512 3593,2513 3601,2513 3602,2514 3609,2514 3610,2515 3624,2515 3625,2514 3634,2514 3635,2515 3645,2515 3646,2514 3670,2514 3671,2513 3707,2513 3708,2514 3712,2514 3713,2513 3721,2513 3722,2512 3771,2512 3772,2511 3795,2511 3796,2512 3804,2512 3805,2513 3811,2513 3812,2512 3824,2512 3825,2511 3854,2511 3855,2510 3861,2510 3862,2511 3873,2511 3874,2510 3903,2510 3904,2509 3909,2509 3910,2508 3922,2508 3923,2507 3938,2507 3939,2506 3947,2506 3948,2505 3953,2505 3954,2506 3956,2506 3957,2507 3960,2507 3961,2508 3970,2508 3971,2509 3976,2509 3977,2508 3986,2508 3987,2507 3989,2507 3990,2508 4005,2508 4006,2507 4031,2507 4032,2506 4037,2506 4038,2507 4052,2507 4053,2506 4074,2506 4075,2507 4088,2507 4089,2508 4099,2508 4100,2507 4114,2507 4115,2506 4118,2506 4119,2507 4124,2507 4125,2508 4169,2508 4170,2507 4181,2507 4182,2508 4193,2508 4194,2507 4218,2507 4219,2506 4222,2506 4223,2505 4225,2505 4227,2503 4228,2503 4231,2500 4231,2499 4232,2498 4232,2495 4233,2494 4233,2475 4234,2474 4234,2460 4235,2459 4235,2455 4234,2454 4234,2448 4233,2447 4233,2434 4234,2433 4234,2427 4235,2426 4235,2418 4236,2417 4236,2404 4235,2403 4235,2382 4236,2381 4236,2377 4237,2376 4237,2367 4236,2366 4236,2346 4237,2345 4237,2341 4238,2340 4238,2311 4237,2310 4237,2307 4236,2306 4236,2303 4235,2302 4235,2297 4234,2296 4234,2280 4233,2279 4233,2267 4232,2266 4232,2261 4231,2260 4231,2252 4230,2251 4230,2241 4231,2240 4231,2237 4232,2236 4232,2232 4233,2231 4233,2223 4232,2222 4232,2183 4233,2182 4233,2179 4232,2178 4232,2165 4233,2164 4233,2154 4234,2153 4234,2146 4233,2145 4233,2142 4232,2141 4232,2140 4227,2135 4226,2135 4225,2134 4218,2134 4217,2133 4199,2133 4198,2134 4194,2134 4193,2135 4176,2135 4175,2136 4172,2136 4171,2137 4162,2137 4161,2136 4157,2136 4156,2135 4149,2135 4148,2136 4136,2136 4135,2135 4098,2135 4097,2136 4093,2136 4092,2135 4088,2135 4087,2134 4063,2134 4062,2133 4055,2133 4054,2134 4028,2134 4027,2135 4020,2135 4019,2134 4017,2134 4016,2133 4014,2133 4013,2132 4006,2132 4005,2133 3989,2133 3988,2134 3970,2134 3969,2133 3957,2133 3956,2134 3933,2134 3932,2135 3921,2135 3920,2134 3910,2134 3909,2135 3894,2135 3893,2134 3892,2134 3891,2135 3884,2135 3883,2136 3877,2136 3876,2135 3874,2135 3873,2134 3870,2134 3869,2133 3862,2133 3861,2134 3855,2134 3854,2135 3845,2135 3844,2136 3833,2136 3832,2137 3829,2137 3828,2136 3818,2136 3817,2137 3720,2137 3719,2136 3708,2136 3707,2137 3690,2137 3689,2136 3678,2136 3677,2135 3673,2135 3672,2134 3668,2134 3667,2133 3647,2133 3646,2132 3636,2132 3635,2133 3626,2133 3625,2132 3612,2132 3611,2133 3594,2133 3593,2132 3578,2132 3577,2131 3573,2131 3572,2130 3566,2130 3565,2129" fill="rgba(134,20,72,0.3)" stroke="rgb(134,20,72)" stroke-width="2" data-block-id="0013" data-name="b-0023" /><text x="3886" y="2310" text-anchor="middle" dominant-baseline="middle" class="block-label" fill="rgb(134,20,72)" stroke="white" stroke-width="3" paint-order="stroke">b-0023</text><polygon points="3329,1684 3328,1685 3266,1685 3265,1686 3252,1686 3251,1685 3234,1685 3233,1686 3199,1686 3198,1685 3181,1685 3180,1686 3100,1686 3099,1687 3088,1687 3087,1686 3046,1686 3045,1685 2934,1685 2933,1686 2909,1686 2908,1685 2894,1685 2893,1686 2881,1686 2880,1685 2874,1685 2873,1686 2862,1686 2861,1685 2832,1685 2831,1686 2816,1686 2815,1685 2783,1685 2782,1686 2766,1686 2765,1685 2742,1685 2741,1686 2690,1686 2689,1687 2666,1687 2665,1686 2657,1686 2656,1687 2606,1687 2605,1688 2602,1688 2601,1689 2600,1689 2599,1690 2598,1690 2596,1692 2596,1693 2595,1694 2595,1699 2594,1700 2594,1707 2593,1708 2593,1724 2594,1725 2594,1731 2593,1732 2593,1749 2594,1750 2594,1753 2593,1754 2593,1768 2594,1769 2594,1782 2593,1783 2593,1793 2594,1794 2594,1820 2595,1821 2595,1824 2594,1825 2594,1833 2593,1834 2593,1838 2594,1839 2594,1852 2593,1853 2593,1861 2594,1862 2594,1867 2595,1868 2595,1874 2594,1875 2594,1879 2593,1880 2593,1885 2594,1886 2594,1900 2593,1901 2593,1904 2592,1905 2592,1909 2593,1910 2593,1915 2594,1916 2594,1921 2593,1922 2593,1928 2592,1929 2592,1933 2593,1934 2593,1947 2592,1948 2592,1963 2593,1964 2593,1968 2592,1969 2592,1975 2591,1976 2591,1984 2592,1985 2592,2009 2593,2010 2593,2013 2594,2014 2594,2015 2595,2015 2596,2016 2597,2016 2598,2017 2600,2017 2601,2018 2606,2018 2607,2019 2617,2019 2618,2020 2627,2020 2628,2021 2669,2021 2670,2022 2724,2022 2725,2023 2749,2023 2750,2022 2760,2022 2761,2023 2869,2023 2870,2024 2910,2024 2911,2023 2914,2023 2915,2024 2923,2024 2924,2025 2925,2024 2935,2024 2936,2023 2957,2023 2958,2024 2979,2024 2980,2023 3000,2023 3001,2024 3035,2024 3036,2023 3042,2023 3043,2022 3049,2022 3050,2023 3063,2023 3064,2022 3101,2022 3102,2023 3145,2023 3146,2022 3156,2022 3157,2023 3170,2023 3171,2024 3189,2024 3190,2025 3212,2025 3213,2024 3223,2024 3224,2023 3239,2023 3240,2024 3260,2024 3261,2025 3297,2025 3298,2024 3342,2024 3343,2023 3349,2023 3350,2022 3353,2022 3354,2021 3355,2021 3359,2017 3359,2016 3360,2015 3360,2012 3361,2011 3361,2003 3362,2002 3362,1973 3361,1972 3361,1956 3362,1955 3362,1934 3363,1933 3363,1931 3362,1930 3362,1924 3361,1923 3361,1902 3362,1901 3362,1872 3361,1871 3361,1854 3362,1853 3362,1812 3363,1811 3363,1794 3362,1793 3362,1759 3363,1758 3363,1744 3364,1743 3364,1738 3363,1737 3363,1703 3362,1702 3362,1698 3361,1697 3361,1694 3360,1693 3360,1692 3355,1687 3353,1687 3352,1686 3348,1686 3347,1685 3335,1685 3334,1684" fill="rgba(166,17,131,0.3)" stroke="rgb(166,17,131)" stroke-width="2" data-block-id="0014" data-name="b-0024" /><text x="2927" y="1864" text-anchor="middle" dominant-baseline="middle" class="block-label" fill="rgb(166,17,131)" stroke="white" stroke-width="3" paint-order="stroke">b-0024</text><polygon points="2792,330 2791,331 2789,331 2788,332 2787,332 2786,333 2785,333 2783,335 2782,335 2781,336 2776,336 2775,337 2767,337 2766,336 2764,336 2763,335 2752,335 2751,336 2747,336 2746,337 2730,337 2729,338 2726,338 2725,339 2720,339 2719,338 2716,338 2715,337 2698,337 2697,338 2694,338 2693,339 2691,339 2690,340 2688,340 2687,341 2685,341 2684,342 2681,342 2680,343 2671,343 2670,342 2668,342 2667,341 2665,341 2664,340 2661,340 2660,341 2657,341 2656,342 2654,342 2653,343 2640,343 2639,344 2636,344 2635,345 2632,345 2631,346 2628,346 2627,347 2619,347 2618,348 2614,348 2613,349 2611,349 2610,350 2608,350 2607,351 2604,351 2603,352 2602,352 2599,355 2599,356 2598,357 2598,358 2597,359 2597,363 2596,364 2596,366 2597,367 2597,383 2598,384 2598,410 2597,411 2597,425 2596,426 2596,434 2595,435 2595,527 2596,528 2596,529 2595,530 2595,543 2594,544 2594,566 2595,567 2595,618 2596,619 2596,627 2597,628 2597,633 2598,634 2598,661 2599,662 2599,665 2600,666 2600,668 2601,669 2601,671 2604,674 2606,674 2607,675 2610,675 2611,676 2621,676 2622,675 2654,675 2655,674 2670,674 2671,673 2698,673 2699,672 2702,672 2703,673 2713,673 2714,672 2728,672 2729,673 2749,673 2750,674 2791,674 2792,675 2801,675 2802,676 2816,676 2817,675 2824,675 2825,674 2863,674 2864,675 2870,675 2871,674 2881,674 2882,675 2899,675 2900,676 2906,676 2907,677 2910,677 2911,678 2914,678 2915,677 2917,677 2918,676 2922,676 2923,675 2932,675 2933,674 2940,674 2941,675 2989,675 2990,676 3063,676 3064,677 3085,677 3086,676 3147,676 3148,677 3168,677 3169,676 3201,676 3202,677 3227,677 3228,678 3245,678 3246,677 3349,677 3350,676 3353,676 3354,675 3355,675 3356,674 3356,673 3357,672 3357,671 3358,670 3358,668 3359,667 3359,664 3360,663 3360,643 3359,642 3359,587 3360,586 3360,582 3361,581 3361,558 3360,557 3360,546 3359,545 3359,540 3360,539 3360,516 3359,515 3359,502 3360,501 3360,475 3361,474 3361,472 3360,471 3360,467 3359,466 3359,461 3358,460 3358,455 3359,454 3359,356 3360,355 3360,352 3359,351 3359,342 3358,341 3358,340 3357,339 3357,338 3356,337 3355,337 3354,336 3352,336 3351,335 3330,335 3329,334 3328,335 3318,335 3317,334 3170,334 3169,335 3161,335 3160,336 3154,336 3153,337 3149,337 3148,336 3136,336 3135,337 3132,337 3131,338 3129,338 3128,339 3120,339 3119,340 3102,340 3101,339 3100,339 3099,338 3094,338 3093,337 3087,337 3086,338 3065,338 3064,339 3051,339 3050,338 3013,338 3012,339 3009,339 3008,338 3003,338 3002,337 2998,337 2997,336 2971,336 2970,337 2942,337 2941,338 2938,338 2937,337 2935,337 2934,336 2933,336 2932,335 2928,335 2927,334 2917,334 2916,333 2907,333 2906,332 2895,332 2894,331 2884,331 2883,332 2844,332 2843,331 2842,331 2841,332 2832,332 2831,333 2817,333 2816,332 2813,332 2812,331 2809,331 2808,330" fill="rgba(88,59,13,0.3)" stroke="rgb(88,59,13)" stroke-width="2" data-block-id="0015" data-name="b-0025" /><text x="2918" y="465" text-anchor="middle" dominant-baseline="middle" class="block-label" fill="rgb(88,59,13)" stroke="white" stroke-width="3" paint-order="stroke">b-0025</text><polygon points="2151,2624 2150,2625 2148,2625 2147,2626 2144,2626 2143,2627 2137,2627 2136,2628 2131,2628 2130,2629 2093,2629 2092,2628 2081,2628 2080,2629 2061,2629 2060,2628 2048,2628 2047,2629 1996,2629 1995,2628 1962,2628 1961,2629 1912,2629 1911,2628 1888,2628 1887,2629 1872,2629 1871,2628 1795,2628 1794,2629 1775,2629 1774,2628 1707,2628 1706,2627 1692,2627 1691,2628 1687,2628 1686,2629 1685,2629 1684,2630 1682,2630 1681,2631 1680,2631 1678,2633 1677,2633 1676,2634 1676,2635 1675,2636 1675,2655 1676,2656 1676,2663 1677,2664 1677,2670 1678,2671 1678,2683 1680,2685 1680,2686 1682,2688 1682,2689 1683,2690 1683,2691 1684,2692 1684,2694 1685,2695 1685,2696 1686,2697 1686,2698 1687,2699 1687,2700 1688,2701 1688,2702 1689,2703 1689,2704 1691,2706 1691,2707 1695,2711 1695,2712 1697,2714 1697,2715 1699,2717 1699,2718 1700,2719 1700,2720 1702,2722 1702,2723 1704,2725 1704,2726 1705,2727 1705,2728 1706,2729 1706,2730 1708,2732 1708,2733 1711,2736 1711,2737 1715,2741 1715,2742 1716,2743 1716,2744 1718,2746 1718,2747 1719,2748 1719,2750 1720,2751 1720,2752 1721,2753 1721,2754 1722,2755 1722,2756 1723,2757 1723,2758 1734,2769 1734,2770 1735,2771 1735,2773 1736,2774 1736,2775 1737,2776 1737,2778 1739,2780 1739,2781 1741,2783 1741,2784 1743,2786 1743,2787 1744,2788 1744,2789 1745,2790 1745,2791 1747,2793 1747,2794 1754,2801 1754,2802 1755,2803 1755,2804 1757,2806 1757,2807 1760,2810 1760,2811 1763,2814 1763,2815 1764,2816 1764,2817 1765,2818 1765,2819 1766,2820 1766,2821 1767,2822 1767,2823 1768,2824 1768,2825 1769,2826 1769,2827 1777,2835 1777,2836 1779,2838 1779,2839 1780,2840 1780,2841 1782,2843 1782,2844 1783,2845 1783,2846 1784,2847 1784,2848 1786,2850 1786,2851 1788,2853 1788,2854 1789,2855 1789,2856 1790,2857 1790,2858 1791,2859 1791,2861 1792,2862 1792,2863 1793,2864 1793,2865 1795,2867 1795,2868 1798,2871 1798,2872 1800,2874 1800,2875 1801,2876 1801,2877 1804,2880 1804,2881 1810,2887 1810,2888 1813,2891 1813,2892 1814,2893 1814,2894 1815,2895 1815,2896 1816,2897 1816,2898 1817,2899 1817,2900 1818,2901 1818,2902 1820,2904 1820,2905 1826,2911 1826,2912 1829,2915 1829,2916 1831,2918 1831,2919 1833,2921 1833,2922 1843,2932 1844,2932 1846,2934 1847,2934 1848,2935 1849,2935 1854,2940 1854,2941 1855,2942 1855,2943 1856,2944 1856,2946 1857,2947 1857,2950 1858,2951 1858,2955 1859,2956 1859,2958 1860,2959 1860,2960 1861,2961 1861,2962 1862,2963 1862,2964 1863,2965 1863,2968 1864,2969 1864,2970 1866,2972 1866,2973 1873,2980 1873,2981 1874,2982 1874,2983 1876,2985 1876,2986 1877,2987 1877,2988 1878,2989 1878,2990 1880,2992 1880,2993 1882,2995 1883,2995 1884,2996 1885,2996 1886,2997 1887,2997 1888,2998 1892,2998 1893,2999 1898,2999 1899,3000 1917,3000 1918,3001 1940,3001 1941,3000 1943,3000 1944,3001 1952,3001 1953,3000 1970,3000 1971,3001 1983,3001 1984,3000 1988,3000 1989,3001 2008,3001 2009,3000 2016,3000 2017,3001 2081,3001 2082,3002 2101,3002 2102,3003 2108,3003 2109,3002 2117,3002 2118,3001 2122,3001 2123,3000 2126,3000 2127,2999 2129,2999 2130,2998 2134,2998 2135,2999 2191,2999 2192,2998 2204,2998 2205,2997 2287,2997 2288,2998 2293,2998 2294,2999 2306,2999 2307,2998 2308,2998 2309,2999 2314,2999 2315,3000 2319,3000 2320,3001 2354,3001 2355,3000 2410,3000 2411,3001 2424,3001 2425,3000 2438,3000 2439,2999 2443,2999 2444,2998 2445,2998 2448,2995 2448,2994 2449,2993 2449,2991 2450,2990 2450,2984 2451,2983 2451,2977 2450,2976 2450,2931 2451,2930 2451,2913 2452,2912 2452,2907 2451,2906 2451,2862 2452,2861 2452,2856 2451,2855 2451,2851 2452,2850 2452,2832 2453,2831 2453,2823 2452,2822 2452,2805 2453,2804 2453,2777 2452,2776 2452,2756 2453,2755 2453,2643 2452,2642 2452,2639 2451,2638 2451,2636 2450,2635 2450,2634 2448,2632 2447,2632 2446,2631 2444,2631 2443,2630 2439,2630 2438,2629 2378,2629 2377,2628 2365,2628 2364,2629 2331,2629 2330,2628 2316,2628 2315,2629 2297,2629 2296,2628 2277,2628 2276,2627 2271,2627 2270,2628 2252,2628 2251,2627 2247,2627 2246,2628 2220,2628 2219,2629 2210,2629 2209,2628 2205,2628 2204,2627 2195,2627 2194,2626 2184,2626 2183,2625 2161,2625 2160,2624" fill="rgba(89,52,129,0.3)" stroke="rgb(89,52,129)" stroke-width="2" data-block-id="0016" data-name="b-0027" /><text x="1963" y="2818" text-anchor="middle" dominant-baseline="middle" class="block-label" fill="rgb(89,52,129)" stroke="white" stroke-width="3" paint-order="stroke">b-0027</text><polygon points="845,1223 844,1224 789,1224 788,1225 786,1225 785,1226 784,1226 783,1227 783,1230 784,1231 784,1235 785,1236 785,1239 786,1240 786,1243 787,1244 787,1246 788,1247 788,1250 789,1251 789,1253 790,1254 790,1257 791,1258 791,1261 792,1262 792,1266 793,1267 793,1271 794,1272 794,1275 795,1276 795,1277 796,1278 796,1280 797,1281 797,1284 798,1285 798,1288 799,1289 799,1291 800,1292 800,1294 801,1295 801,1298 802,1299 802,1301 803,1302 803,1305 804,1306 804,1309 805,1310 805,1311 806,1312 806,1314 807,1315 807,1316 808,1317 808,1319 809,1320 809,1323 810,1324 810,1326 811,1327 811,1330 812,1331 812,1334 813,1335 813,1337 814,1338 814,1340 815,1341 815,1343 816,1344 816,1346 817,1347 817,1349 818,1350 818,1353 819,1354 819,1356 820,1357 820,1360 821,1361 821,1363 822,1364 822,1367 823,1368 823,1370 824,1371 824,1372 825,1373 825,1375 826,1376 826,1378 827,1379 827,1382 828,1383 828,1385 829,1386 829,1387 830,1388 830,1390 831,1391 831,1392 832,1393 832,1395 833,1396 833,1398 834,1399 834,1401 835,1402 835,1403 836,1404 836,1407 837,1408 837,1410 838,1411 838,1413 839,1414 839,1416 840,1417 840,1419 841,1420 841,1422 842,1423 842,1424 843,1425 843,1427 844,1428 844,1430 845,1431 845,1433 846,1434 846,1436 847,1437 847,1438 848,1439 848,1441 849,1442 849,1444 850,1445 850,1446 851,1447 851,1448 852,1449 852,1450 853,1451 853,1452 854,1453 854,1454 856,1456 856,1457 857,1458 857,1459 858,1460 858,1461 859,1462 859,1464 860,1465 860,1466 861,1467 861,1468 862,1469 862,1470 863,1471 863,1472 866,1475 866,1476 868,1478 868,1479 870,1481 870,1482 873,1485 873,1486 880,1493 880,1494 883,1497 883,1498 885,1500 885,1501 886,1502 886,1503 887,1504 887,1505 888,1506 888,1507 890,1509 890,1510 891,1511 891,1512 892,1513 892,1514 894,1516 894,1517 903,1526 903,1527 905,1529 905,1530 906,1531 906,1532 907,1533 907,1534 908,1535 908,1536 909,1537 909,1538 915,1544 915,1545 916,1546 916,1547 918,1549 918,1550 924,1556 925,1556 926,1557 928,1557 929,1558 932,1558 933,1559 940,1559 941,1560 958,1560 959,1559 960,1560 1035,1560 1036,1561 1087,1561 1088,1562 1120,1562 1121,1561 1130,1561 1131,1562 1175,1562 1176,1563 1191,1563 1192,1562 1218,1562 1219,1563 1232,1563 1233,1562 1234,1563 1254,1563 1255,1562 1262,1562 1263,1563 1280,1563 1281,1562 1309,1562 1310,1563 1364,1563 1365,1564 1369,1564 1370,1563 1404,1563 1405,1564 1424,1564 1425,1563 1431,1563 1432,1564 1487,1564 1488,1563 1489,1563 1490,1562 1490,1561 1491,1560 1491,1558 1492,1557 1492,1553 1493,1552 1493,1500 1494,1499 1493,1498 1493,1482 1494,1481 1494,1338 1495,1337 1495,1231 1494,1230 1494,1229 1491,1226 1489,1226 1488,1225 1479,1225 1478,1226 1454,1226 1453,1227 1377,1227 1376,1226 1363,1226 1362,1227 1315,1227 1314,1226 1268,1226 1267,1225 1253,1225 1252,1226 1245,1226 1244,1227 1222,1227 1221,1226 1208,1226 1207,1225 1196,1225 1195,1226 1150,1226 1149,1225 1135,1225 1134,1226 1104,1226 1103,1225 1071,1225 1070,1226 1069,1225 1021,1225 1020,1224 988,1224 987,1225 980,1225 979,1224 960,1224 959,1225 942,1225 941,1226 933,1226 932,1225 918,1225 917,1224 879,1224 878,1223" fill="rgba(83,91,110,0.3)" stroke="rgb(83,91,110)" stroke-width="2" data-block-id="0017" data-name="b-0028" /><text x="974" y="1394" text-anchor="middle" dominant-baseline="middle" class="block-label" fill="rgb(83,91,110)" stroke="white" stroke-width="3" paint-order="stroke">b-0028</text><polygon points="1517,1136 1517,766 615,762 716,1132" fill="rgba(102,179,92,0.3)" stroke="rgb(102,179,92)" stroke-width="2" data-block-id="0018" data-name="b-0036" /><text x="1091" y="949" text-anchor="middle" dominant-baseline="middle" class="block-label" fill="rgb(102,179,92)" stroke="white" stroke-width="3" paint-order="stroke">b-0036</text><polygon points="2828,1237 2827,1238 2777,1238 2776,1239 2767,1239 2766,1238 2750,1238 2749,1239 2742,1239 2741,1238 2723,1238 2722,1239 2666,1239 2665,1240 2622,1240 2621,1241 2604,1241 2603,1242 2601,1242 2600,1243 2599,1243 2596,1246 2596,1247 2595,1248 2595,1260 2594,1261 2594,1314 2593,1315 2593,1333 2592,1334 2592,1352 2591,1353 2591,1360 2592,1361 2592,1421 2593,1422 2593,1450 2594,1451 2594,1455 2593,1456 2593,1514 2592,1515 2592,1521 2591,1522 2591,1526 2590,1527 2590,1532 2589,1533 2589,1563 2590,1564 2590,1566 2591,1567 2591,1568 2594,1571 2596,1571 2597,1572 2601,1572 2602,1573 2631,1573 2632,1572 2640,1572 2641,1573 2647,1573 2648,1574 2748,1574 2749,1575 2768,1575 2769,1574 2778,1574 2779,1573 2790,1573 2791,1572 2799,1572 2800,1573 2861,1573 2862,1574 2867,1574 2868,1573 2882,1573 2883,1574 2893,1574 2894,1575 2909,1575 2910,1574 2917,1574 2918,1575 2950,1575 2951,1574 2955,1574 2956,1573 2967,1573 2968,1574 3182,1574 3183,1575 3193,1575 3194,1576 3222,1576 3223,1575 3229,1575 3230,1574 3269,1574 3270,1573 3283,1573 3284,1574 3310,1574 3311,1573 3353,1573 3354,1572 3355,1572 3357,1570 3357,1569 3358,1568 3358,1566 3359,1565 3359,1559 3360,1558 3360,1545 3359,1544 3359,1539 3358,1538 3358,1534 3359,1533 3359,1529 3360,1528 3360,1519 3359,1518 3359,1486 3360,1485 3360,1477 3361,1476 3361,1475 3360,1474 3360,1457 3359,1456 3359,1426 3360,1425 3360,1411 3359,1410 3359,1401 3360,1400 3360,1382 3359,1381 3359,1360 3360,1359 3360,1332 3359,1331 3359,1289 3358,1288 3358,1284 3359,1283 3359,1252 3358,1251 3358,1247 3357,1246 3357,1244 3354,1241 3353,1241 3352,1240 3345,1240 3344,1239 3341,1239 3340,1240 3184,1240 3183,1241 3171,1241 3170,1240 3156,1240 3155,1239 3090,1239 3089,1240 3071,1240 3070,1241 3066,1241 3065,1240 3011,1240 3010,1239 3007,1239 3006,1240 2987,1240 2986,1239 2981,1239 2980,1240 2956,1240 2955,1239 2880,1239 2879,1238 2829,1238" fill="rgba(241,249,8,0.3)" stroke="rgb(241,249,8)" stroke-width="2" data-block-id="0019" data-name="b-0026" /><text x="2984" y="1420" text-anchor="middle" dominant-baseline="middle" class="block-label" fill="rgb(241,249,8)" stroke="white" stroke-width="3" paint-order="stroke">b-0026</text><polygon points="2813,786 2812,787 2802,787 2801,788 2789,788 2788,789 2778,789 2777,788 2760,788 2759,789 2740,789 2739,788 2704,788 2703,789 2667,789 2666,790 2647,790 2646,791 2636,791 2635,792 2615,792 2614,793 2608,793 2607,794 2604,794 2603,795 2601,795 2600,796 2599,796 2598,797 2597,797 2592,802 2592,804 2591,805 2591,828 2592,829 2592,859 2591,860 2591,888 2590,889 2590,890 2588,892 2588,893 2587,894 2587,895 2586,896 2586,898 2585,899 2585,927 2586,928 2586,930 2587,931 2587,933 2588,934 2588,935 2589,936 2589,938 2590,939 2590,947 2591,948 2591,953 2592,954 2592,960 2593,961 2593,963 2592,964 2592,984 2591,985 2591,991 2590,992 2590,1011 2591,1012 2591,1024 2590,1025 2590,1049 2591,1050 2591,1107 2592,1108 2592,1118 2593,1119 2593,1123 2594,1124 2594,1125 2596,1127 2597,1127 2598,1128 2600,1128 2601,1129 2613,1129 2614,1130 2659,1130 2660,1129 2782,1129 2783,1128 2878,1128 2879,1127 2901,1127 2902,1128 2930,1128 2931,1127 2941,1127 2942,1128 2966,1128 2967,1129 2976,1129 2977,1128 3054,1128 3055,1129 3092,1129 3093,1130 3104,1130 3105,1131 3110,1131 3111,1130 3130,1130 3131,1131 3349,1131 3350,1130 3353,1130 3354,1129 3355,1129 3357,1127 3357,1126 3358,1125 3358,1122 3359,1121 3359,1114 3360,1113 3360,1072 3359,1071 3359,1065 3360,1064 3360,1023 3359,1022 3359,987 3360,986 3360,968 3359,967 3359,958 3360,957 3360,812 3359,811 3359,805 3358,804 3358,799 3357,798 3357,795 3356,794 3356,793 3355,792 3354,792 3353,791 3346,791 3345,790 3289,790 3288,789 3256,789 3255,790 3220,790 3219,791 3130,791 3129,790 3125,790 3124,789 3106,789 3105,790 3096,790 3095,791 3088,791 3087,790 3078,790 3077,789 3053,789 3052,790 3046,790 3045,791 3040,791 3039,790 3031,790 3030,791 3025,791 3024,792 3014,792 3013,791 3008,791 3007,792 3005,792 3004,793 3002,793 3001,794 2999,794 2998,795 2994,795 2993,794 2985,794 2984,793 2975,793 2974,792 2969,792 2968,793 2960,793 2959,792 2954,792 2953,791 2932,791 2931,790 2897,790 2896,789 2882,789 2881,790 2847,790 2846,789 2831,789 2830,788 2826,788 2825,787 2821,787 2820,786" fill="rgba(130,228,50,0.3)" stroke="rgb(130,228,50)" stroke-width="2" data-block-id="0020" data-name="b-0022" /><text x="2907" y="912" text-anchor="middle" dominant-baseline="middle" class="block-label" fill="rgb(130,228,50)" stroke="white" stroke-width="3" paint-order="stroke">b-0022</text><polygon points="3525,2038 4256,2042 4260,1677 3528,1677" fill="rgba(102,179,92,0.3)" stroke="rgb(102,179,92)" stroke-width="2" data-block-id="0021" data-name="b-0021" /><text x="3892" y="1858" text-anchor="middle" dominant-baseline="middle" class="block-label" fill="rgb(102,179,92)" stroke="white" stroke-width="3" paint-order="stroke">b-0021</text></g>
</svg>