<?xml version='1.0' encoding='utf-8'?>
<svg xmlns="http://www.w3.org/2000/svg" xmlns:atlas="http://example.com/atlas" width="4984" height="3304" viewBox="0 0 4984 3304">
  
  <metadata>
    <atlas:source>
      <atlas:jp2-path>/Users/pwright/workspace/atlas/media/v2/p9.jp2</atlas:jp2-path>
      <atlas:volume>unknown</atlas:volume>
      <atlas:plate-id>p9</atlas:plate-id>
      <atlas:image-width>4984</atlas:image-width>
      <atlas:image-height>3304</atlas:image-height>
    <atlas:angle>0.0</atlas:angle><atlas:scale>1.3333333333333333</atlas:scale><atlas:pos-x>1962.819458274639</atlas:pos-x><atlas:pos-y>2594.106556770792</atlas:pos-y></atlas:source>
  </metadata>

  
  <image id="background" href="file:///Users/pwright/workspace/atlas/media/v2/p9.jp2" width="4984" height="3304" opacity="0.5" />

  <style>
    .block-label { font-family: sans-serif; font-size: 14px; font-weight: bold; }
  </style>

  
  <g id="blocks">
    <polygon points="3555,2236 3554,2237 3511,2237 3510,2238 3480,2238 3479,2239 3388,2239 3387,2240 3369,2240 3368,2239 3348,2239 3347,2240 3287,2240 3286,2241 3277,2241 3276,2240 3268,2240 3267,2241 3243,2241 3242,2242 3222,2242 3221,2243 3204,2243 3203,2242 3199,2242 3198,2243 3193,2243 3192,2244 3156,2244 3155,2243 3148,2243 3147,2244 3135,2244 3134,2243 3122,2243 3121,2244 3108,2244 3107,2243 3102,2243 3101,2244 3084,2244 3083,2243 3078,2243 3077,2244 3049,2244 3048,2245 3040,2245 3039,2244 3025,2244 3024,2245 2993,2245 2992,2244 2987,2244 2986,2243 2983,2243 2982,2244 2952,2244 2951,2245 2945,2245 2944,2244 2931,2244 2930,2245 2893,2245 2892,2244 2886,2244 2885,2245 2806,2245 2805,2246 2789,2246 2788,2245 2754,2245 2753,2244 2739,2244 2738,2245 2701,2245 2700,2244 2692,2244 2691,2245 2683,2245 2682,2244 2634,2244 2633,2243 2627,2243 2626,2242 2624,2242 2623,2243 2615,2243 2614,2244 2612,2244 2611,2245 2610,2245 2609,2246 2608,2246 2606,2248 2605,2248 2604,2249 2601,2249 2600,2248 2599,2248 2598,2247 2595,2247 2594,2246 2557,2246 2556,2247 2547,2247 2546,2248 2530,2248 2529,2249 2527,2249 2526,2250 2523,2250 2522,2251 2520,2251 2519,2252 2511,2252 2510,2253 2504,2253 2503,2254 2499,2254 2498,2255 2496,2255 2495,2256 2487,2256 2486,2257 2485,2257 2484,2256 2481,2256 2480,2255 2479,2255 2478,2254 2476,2254 2475,2253 2472,2253 2471,2252 2468,2252 2467,2253 2437,2253 2436,2252 2433,2252 2432,2251 2429,2251 2428,2250 2418,2250 2417,2251 2408,2251 2407,2250 2390,2250 2389,2251 2386,2251 2385,2250 2370,2250 2369,2251 2343,2251 2342,2252 2338,2252 2337,2251 2319,2251 2318,2252 2315,2252 2314,2251 2307,2251 2306,2250 2303,2250 2302,2251 2295,2251 2294,2252 2290,2252 2289,2251 2274,2251 2273,2252 2266,2252 2265,2251 2250,2251 2249,2252 2241,2252 2240,2251 2204,2251 2203,2252 2199,2252 2198,2253 2195,2253 2194,2252 2188,2252 2187,2251 2183,2251 2182,2252 2176,2252 2175,2253 2168,2253 2167,2252 2155,2252 2154,2253 2146,2253 2145,2254 2142,2254 2141,2255 2139,2255 2138,2256 2137,2256 2135,2258 2134,2258 2134,2259 2130,2263 2130,2265 2129,2266 2129,2281 2130,2282 2130,2289 2131,2290 2131,2305 2130,2306 2130,2330 2129,2331 2129,2342 2130,2343 2130,2353 2131,2354 2131,2383 2130,2384 2130,2389 2129,2390 2129,2395 2128,2396 2128,2401 2129,2402 2129,2413 2130,2414 2130,2419 2131,2420 2131,2425 2132,2426 2132,2453 2131,2454 2131,2497 2130,2498 2130,2517 2131,2518 2131,2519 2132,2520 2132,2522 2133,2523 2133,2579 2132,2580 2132,2599 2133,2600 2133,2603 2134,2604 2134,2607 2135,2608 2135,2610 2137,2612 2138,2612 2139,2613 2143,2613 2144,2614 2163,2614 2164,2615 2170,2615 2171,2616 2182,2616 2183,2615 2225,2615 2226,2614 2313,2614 2314,2613 2360,2613 2361,2612 2366,2612 2367,2613 2400,2613 2401,2612 2418,2612 2419,2613 2430,2613 2431,2612 2472,2612 2473,2611 2477,2611 2478,2610 2481,2610 2482,2609 2487,2609 2488,2610 2503,2610 2504,2609 2523,2609 2524,2608 2527,2608 2528,2607 2547,2607 2548,2606 2555,2606 2556,2605 2568,2605 2569,2604 2574,2604 2575,2603 2591,2603 2592,2602 2599,2602 2600,2601 2615,2601 2616,2602 2628,2602 2629,2603 2632,2603 2633,2604 2636,2604 2637,2605 2640,2605 2641,2606 2654,2606 2655,2605 2659,2605 2660,2604 2666,2604 2667,2603 2702,2603 2703,2604 2726,2604 2727,2605 2743,2605 2744,2606 2760,2606 2761,2605 2776,2605 2777,2606 2819,2606 2820,2607 2884,2607 2885,2606 2925,2606 2926,2607 2929,2607 2930,2606 2938,2606 2939,2607 2955,2607 2956,2606 2965,2606 2966,2607 3055,2607 3056,2606 3078,2606 3079,2605 3083,2605 3084,2606 3094,2606 3095,2605 3147,2605 3148,2604 3159,2604 3160,2605 3235,2605 3236,2604 3263,2604 3264,2603 3287,2603 3288,2604 3298,2604 3299,2603 3304,2603 3305,2602 3370,2602 3371,2601 3503,2601 3504,2600 3579,2600 3580,2599 3648,2599 3649,2598 3674,2598 3675,2597 3756,2597 3757,2596 3787,2596 3788,2595 3796,2595 3797,2594 3799,2594 3800,2593 3801,2593 3805,2589 3805,2588 3806,2587 3806,2585 3807,2584 3807,2579 3808,2578 3808,2558 3809,2557 3809,2545 3808,2544 3808,2523 3807,2522 3807,2515 3806,2514 3807,2513 3807,2506 3808,2505 3808,2502 3807,2501 3807,2486 3808,2485 3808,2480 3809,2479 3809,2472 3810,2471 3810,2431 3809,2430 3809,2425 3808,2424 3808,2405 3807,2404 3807,2401 3806,2400 3806,2398 3805,2397 3805,2391 3806,2390 3806,2375 3805,2374 3805,2373 3806,2372 3806,2364 3807,2363 3807,2358 3806,2357 3806,2351 3805,2350 3805,2346 3806,2345 3806,2320 3807,2319 3807,2310 3806,2309 3806,2304 3805,2303 3805,2298 3806,2297 3806,2293 3807,2292 3807,2288 3808,2287 3808,2259 3807,2258 3807,2249 3806,2248 3806,2242 3803,2239 3801,2239 3800,2238 3798,2238 3797,2237 3763,2237 3762,2236 3744,2236 3743,2237 3606,2237 3605,2238 3597,2238 3596,2239 3590,2239 3589,2238 3581,2238 3580,2237 3569,2237 3568,2236" fill="rgba(188,20,102,0.3)" stroke="rgb(188,20,102)" stroke-width="2" data-block-id="0001" data-name="b-0003" /><text x="2861" y="2391" text-anchor="middle" dominant-baseline="middle" class="block-label" fill="rgb(188,20,102)" stroke="white" stroke-width="3" paint-order="stroke">b-0003</text><polygon points="2888,1217 2887,1218 2878,1218 2877,1219 2876,1219 2875,1218 2860,1218 2859,1219 2846,1219 2845,1218 2839,1218 2838,1219 2835,1219 2834,1220 2830,1220 2829,1221 2826,1221 2825,1220 2818,1220 2817,1219 2806,1219 2805,1218 2788,1218 2787,1219 2725,1219 2724,1220 2723,1219 2712,1219 2711,1218 2696,1218 2695,1219 2692,1219 2691,1220 2686,1220 2685,1221 2658,1221 2657,1220 2649,1220 2648,1221 2644,1221 2643,1222 2621,1222 2620,1223 2609,1223 2608,1224 2605,1224 2604,1225 2601,1225 2600,1226 2592,1226 2591,1227 2582,1227 2581,1228 2578,1228 2577,1227 2574,1227 2573,1226 2569,1226 2568,1225 2539,1225 2538,1226 2537,1226 2536,1227 2534,1227 2532,1229 2531,1228 2529,1228 2527,1226 2526,1226 2525,1225 2524,1225 2523,1224 2510,1224 2509,1223 2504,1223 2503,1222 2486,1222 2485,1223 2481,1223 2480,1222 2471,1222 2470,1221 2456,1221 2455,1222 2451,1222 2450,1223 2444,1223 2443,1224 2432,1224 2431,1223 2425,1223 2424,1222 2410,1222 2409,1223 2401,1223 2400,1224 2393,1224 2392,1225 2387,1225 2386,1224 2384,1224 2383,1223 2381,1223 2380,1222 2376,1222 2375,1221 2374,1221 2373,1222 2331,1222 2330,1221 2329,1222 2320,1222 2319,1223 2315,1223 2314,1222 2309,1222 2308,1221 2296,1221 2295,1220 2277,1220 2276,1219 2263,1219 2262,1220 2243,1220 2242,1221 2236,1221 2235,1222 2234,1222 2233,1221 2229,1221 2228,1220 2226,1220 2225,1219 2216,1219 2215,1220 2203,1220 2202,1221 2177,1221 2176,1220 2152,1220 2151,1221 2148,1221 2147,1222 2146,1222 2144,1224 2143,1224 2142,1225 2141,1225 2139,1227 2138,1227 2137,1228 2136,1228 2134,1230 2133,1230 2131,1232 2131,1233 2128,1236 2128,1238 2127,1239 2127,1240 2128,1241 2128,1248 2129,1249 2129,1256 2130,1257 2130,1274 2129,1275 2130,1276 2130,1320 2131,1321 2131,1328 2132,1329 2132,1339 2131,1340 2131,1349 2132,1350 2132,1388 2131,1389 2131,1395 2132,1396 2132,1402 2133,1403 2133,1411 2132,1412 2132,1513 2131,1514 2131,1551 2130,1552 2130,1563 2131,1564 2131,1567 2132,1568 2132,1571 2133,1572 2133,1575 2134,1576 2134,1579 2135,1580 2135,1582 2136,1583 2137,1583 2138,1584 2140,1584 2141,1585 2146,1585 2147,1586 2163,1586 2164,1587 2246,1587 2247,1588 2279,1588 2280,1587 2289,1587 2290,1586 2295,1586 2296,1587 2312,1587 2313,1586 2323,1586 2324,1587 2332,1587 2333,1586 2346,1586 2347,1587 2357,1587 2358,1586 2374,1586 2375,1587 2377,1587 2378,1586 2392,1586 2393,1587 2405,1587 2406,1586 2432,1586 2433,1585 2439,1585 2440,1586 2454,1586 2455,1585 2457,1585 2458,1584 2460,1584 2461,1583 2464,1583 2465,1582 2466,1582 2467,1581 2467,1578 2468,1577 2468,1573 2470,1571 2471,1571 2472,1570 2476,1570 2477,1571 2497,1571 2498,1570 2503,1570 2504,1569 2542,1569 2543,1570 2570,1570 2571,1571 2576,1571 2577,1572 2583,1572 2584,1573 2588,1573 2589,1574 2590,1574 2592,1576 2593,1576 2594,1577 2597,1577 2598,1578 2601,1578 2607,1584 2608,1584 2609,1585 2611,1585 2612,1586 2615,1586 2616,1587 2625,1587 2626,1588 2633,1588 2634,1589 2653,1589 2654,1588 2671,1588 2672,1589 2727,1589 2728,1590 2739,1590 2740,1589 2781,1589 2782,1590 2791,1590 2792,1591 2796,1591 2797,1592 2808,1592 2809,1591 2811,1591 2812,1590 2814,1590 2815,1589 2818,1589 2819,1588 2820,1588 2821,1589 2828,1589 2829,1590 2842,1590 2843,1591 2844,1590 2866,1590 2867,1589 2868,1590 2929,1590 2930,1589 2932,1589 2933,1588 2934,1588 2936,1586 2946,1586 2947,1587 2958,1587 2959,1586 2960,1586 2961,1587 2975,1587 2976,1588 3010,1588 3011,1589 3018,1589 3019,1590 3022,1590 3023,1589 3031,1589 3032,1588 3063,1588 3064,1589 3072,1589 3073,1588 3185,1588 3186,1587 3206,1587 3207,1588 3215,1588 3216,1587 3229,1587 3230,1588 3266,1588 3267,1587 3281,1587 3282,1586 3340,1586 3341,1585 3357,1585 3358,1584 3361,1584 3362,1583 3366,1583 3367,1582 3372,1582 3373,1583 3392,1583 3393,1582 3441,1582 3442,1581 3457,1581 3458,1582 3466,1582 3467,1581 3518,1581 3519,1580 3525,1580 3526,1581 3539,1581 3540,1580 3578,1580 3579,1581 3584,1581 3585,1580 3613,1580 3614,1579 3620,1579 3621,1580 3658,1580 3659,1579 3669,1579 3670,1580 3684,1580 3685,1579 3695,1579 3696,1580 3704,1580 3705,1579 3718,1579 3719,1580 3732,1580 3733,1579 3741,1579 3742,1580 3753,1580 3754,1579 3764,1579 3765,1580 3772,1580 3773,1581 3774,1580 3780,1580 3781,1579 3795,1579 3796,1578 3796,1577 3798,1575 3798,1573 3799,1572 3799,1526 3798,1525 3798,1498 3797,1497 3797,1482 3796,1481 3796,1451 3795,1450 3795,1442 3794,1441 3794,1424 3795,1423 3795,1391 3794,1390 3794,1369 3793,1368 3793,1354 3792,1353 3792,1345 3791,1344 3791,1340 3790,1339 3790,1335 3789,1334 3789,1331 3788,1330 3788,1327 3787,1326 3787,1324 3786,1323 3786,1321 3785,1320 3785,1317 3784,1316 3784,1313 3783,1312 3783,1310 3782,1309 3782,1308 3781,1307 3781,1306 3780,1305 3780,1304 3779,1303 3779,1302 3778,1301 3778,1300 3777,1299 3777,1298 3776,1297 3776,1296 3775,1295 3775,1293 3774,1292 3774,1291 3773,1290 3773,1288 3772,1287 3772,1286 3771,1285 3771,1284 3770,1283 3770,1282 3769,1281 3769,1279 3768,1278 3768,1277 3767,1276 3767,1274 3766,1273 3766,1269 3765,1268 3765,1263 3764,1262 3764,1259 3763,1258 3763,1257 3762,1256 3762,1254 3761,1253 3761,1252 3760,1251 3760,1250 3759,1249 3759,1248 3758,1247 3758,1246 3757,1245 3757,1244 3756,1243 3756,1241 3755,1240 3755,1239 3754,1238 3754,1237 3752,1235 3752,1234 3750,1232 3750,1231 3749,1230 3749,1229 3746,1226 3742,1226 3741,1225 3732,1225 3731,1224 3699,1224 3698,1225 3622,1225 3621,1226 3555,1226 3554,1227 3405,1227 3404,1228 3401,1228 3400,1227 3371,1227 3370,1226 3314,1226 3313,1225 3297,1225 3296,1224 3284,1224 3283,1223 3277,1223 3276,1222 3272,1222 3271,1221 3261,1221 3260,1220 3251,1220 3250,1219 3239,1219 3238,1220 3234,1220 3233,1219 3223,1219 3222,1218 3221,1219 3207,1219 3206,1218 3192,1218 3191,1219 3184,1219 3183,1218 3171,1218 3170,1219 3156,1219 3155,1218 3146,1218 3145,1219 3137,1219 3136,1218 3121,1218 3120,1219 3094,1219 3093,1218 3086,1218 3085,1217 3076,1217 3075,1218 3072,1218 3071,1219 3063,1219 3062,1218 3047,1218 3046,1219 3041,1219 3040,1218 3029,1218 3028,1219 3004,1219 3003,1218 2992,1218 2991,1217 2978,1217 2977,1218 2964,1218 2963,1217 2956,1217 2955,1218 2945,1218 2944,1217 2933,1217 2932,1218 2917,1218 2916,1217 2908,1217 2907,1218 2894,1218 2893,1217" fill="rgba(74,202,87,0.3)" stroke="rgb(74,202,87)" stroke-width="2" data-block-id="0002" data-name="b-0005" /><text x="2937" y="1380" text-anchor="middle" dominant-baseline="middle" class="block-label" fill="rgb(74,202,87)" stroke="white" stroke-width="3" paint-order="stroke">b-0005</text><polygon points="3700,2713 3699,2714 3666,2714 3665,2715 3662,2715 3661,2714 3647,2714 3646,2715 3580,2715 3579,2716 3568,2716 3567,2717 3539,2717 3538,2716 3530,2716 3529,2717 3481,2717 3480,2718 3458,2718 3457,2719 3432,2719 3431,2720 3414,2720 3413,2721 3401,2721 3400,2720 3389,2720 3388,2721 3382,2721 3381,2722 3369,2722 3368,2721 3363,2721 3362,2720 3350,2720 3349,2719 3338,2719 3337,2720 3250,2720 3249,2719 3248,2720 3238,2720 3237,2721 3226,2721 3225,2720 3216,2720 3215,2719 3190,2719 3189,2720 3185,2720 3184,2719 3172,2719 3171,2720 3166,2720 3165,2721 3160,2721 3159,2720 3149,2720 3148,2721 3142,2721 3141,2722 3138,2722 3137,2721 3131,2721 3130,2720 3125,2720 3124,2721 3099,2721 3098,2722 3082,2722 3081,2721 3057,2721 3056,2720 3051,2720 3050,2719 3046,2719 3045,2718 3044,2719 3040,2719 3039,2720 3036,2720 3035,2721 3032,2721 3031,2722 3028,2722 3027,2723 3003,2723 3002,2724 2953,2724 2952,2725 2946,2725 2945,2724 2869,2724 2868,2725 2857,2725 2856,2726 2849,2726 2848,2725 2834,2725 2833,2724 2800,2724 2799,2723 2788,2723 2787,2722 2775,2722 2774,2723 2706,2723 2705,2722 2696,2722 2695,2721 2691,2721 2690,2720 2673,2720 2672,2719 2670,2719 2669,2718 2667,2718 2666,2717 2665,2717 2664,2716 2659,2716 2658,2717 2654,2717 2653,2718 2635,2718 2634,2717 2612,2717 2611,2718 2609,2718 2608,2719 2605,2719 2604,2720 2603,2720 2602,2721 2601,2721 2600,2722 2598,2722 2597,2723 2594,2723 2593,2724 2578,2724 2577,2725 2557,2725 2556,2726 2519,2726 2518,2727 2485,2727 2484,2728 2478,2728 2477,2727 2471,2727 2470,2728 2444,2728 2443,2729 2420,2729 2419,2730 2407,2730 2406,2729 2396,2729 2395,2730 2388,2730 2387,2731 2386,2731 2385,2730 2371,2730 2370,2731 2345,2731 2344,2732 2334,2732 2333,2731 2326,2731 2325,2732 2320,2732 2319,2733 2312,2733 2311,2732 2297,2732 2296,2733 2290,2733 2289,2732 2274,2732 2273,2733 2264,2733 2263,2732 2251,2732 2250,2733 2229,2733 2228,2734 2215,2734 2214,2733 2205,2733 2204,2734 2191,2734 2190,2733 2179,2733 2178,2734 2164,2734 2163,2733 2160,2733 2159,2734 2147,2734 2146,2735 2141,2735 2140,2736 2138,2736 2137,2737 2135,2737 2134,2738 2133,2738 2132,2739 2131,2739 2130,2740 2129,2740 2126,2743 2126,2745 2125,2746 2125,2750 2124,2751 2124,2755 2125,2756 2125,2757 2126,2758 2126,2759 2127,2760 2127,2762 2129,2764 2129,2766 2130,2767 2130,2787 2131,2788 2131,2820 2132,2821 2132,2826 2131,2827 2131,2835 2130,2836 2130,2839 2129,2840 2129,2841 2128,2842 2128,2843 2127,2844 2127,2845 2126,2846 2126,2847 2125,2848 2125,2855 2126,2856 2126,2860 2127,2861 2127,2868 2128,2869 2128,2874 2129,2875 2129,2878 2130,2879 2130,2882 2131,2883 2131,2915 2132,2916 2132,2920 2131,2921 2131,2923 2130,2924 2130,2926 2129,2927 2129,2928 2128,2929 2128,2930 2127,2931 2127,2933 2126,2934 2126,2941 2125,2942 2125,2944 2126,2945 2126,2947 2127,2948 2127,2949 2131,2953 2131,2954 2132,2955 2132,2956 2133,2957 2133,2984 2132,2985 2132,2994 2133,2995 2133,3000 2134,3001 2134,3007 2135,3008 2135,3014 2136,3015 2136,3021 2135,3022 2135,3043 2136,3044 2136,3045 2137,3046 2137,3047 2138,3048 2138,3050 2139,3051 2139,3052 2142,3055 2142,3056 2143,3057 2143,3058 2145,3060 2145,3061 2146,3062 2146,3063 2148,3063 2149,3064 2151,3064 2152,3065 2155,3065 2156,3066 2169,3066 2170,3065 2178,3065 2179,3066 2188,3066 2189,3065 2191,3065 2192,3064 2194,3064 2195,3063 2197,3063 2198,3062 2203,3062 2204,3063 2208,3063 2209,3062 2211,3062 2212,3061 2213,3061 2214,3060 2216,3060 2217,3059 2220,3059 2221,3058 2222,3058 2223,3059 2227,3059 2228,3060 2230,3060 2231,3061 2232,3061 2233,3060 2235,3060 2237,3058 2238,3058 2239,3057 2240,3057 2241,3056 2242,3056 2243,3055 2245,3055 2246,3054 2247,3054 2248,3055 2254,3055 2255,3056 2256,3055 2259,3055 2260,3054 2261,3054 2262,3053 2264,3053 2265,3052 2266,3052 2267,3051 2287,3051 2288,3050 2299,3050 2300,3051 2306,3051 2307,3052 2310,3052 2311,3053 2314,3053 2315,3054 2319,3054 2320,3055 2330,3055 2331,3054 2333,3054 2334,3053 2335,3053 2337,3051 2337,3043 2338,3042 2338,3040 2341,3037 2343,3037 2347,3041 2347,3050 2346,3051 2347,3052 2348,3052 2350,3054 2352,3054 2353,3053 2354,3053 2355,3052 2356,3052 2357,3051 2358,3051 2359,3050 2360,3050 2361,3049 2373,3049 2374,3050 2377,3050 2378,3049 2382,3049 2383,3048 2385,3048 2386,3047 2390,3047 2391,3048 2396,3048 2397,3049 2401,3049 2402,3050 2404,3050 2405,3051 2406,3051 2407,3052 2408,3052 2410,3054 2411,3054 2413,3056 2414,3056 2416,3058 2418,3058 2419,3059 2421,3059 2422,3060 2424,3060 2425,3061 2427,3061 2428,3062 2429,3062 2430,3063 2432,3063 2433,3064 2435,3064 2436,3065 2440,3065 2441,3066 2450,3066 2451,3067 2457,3067 2458,3068 2465,3068 2466,3069 2474,3069 2475,3068 2480,3068 2481,3067 2510,3067 2511,3068 2516,3068 2517,3069 2519,3069 2520,3068 2521,3068 2522,3067 2523,3067 2525,3065 2526,3065 2527,3064 2528,3064 2529,3063 2531,3063 2532,3062 2540,3062 2541,3063 2542,3062 2544,3062 2545,3061 2546,3061 2547,3060 2549,3060 2550,3059 2551,3059 2552,3058 2556,3058 2557,3057 2568,3057 2569,3056 2572,3056 2573,3055 2576,3055 2577,3054 2580,3054 2581,3053 2586,3053 2587,3052 2592,3052 2593,3051 2596,3051 2597,3050 2619,3050 2620,3051 2628,3051 2629,3052 2635,3052 2636,3053 2641,3053 2642,3054 2645,3054 2646,3055 2647,3055 2648,3056 2650,3056 2651,3057 2656,3057 2657,3058 2661,3058 2662,3057 2664,3057 2665,3056 2666,3056 2668,3054 2669,3054 2670,3053 2671,3053 2672,3052 2679,3052 2680,3053 2684,3053 2685,3054 2691,3054 2692,3055 2702,3055 2703,3056 2724,3056 2725,3057 2729,3057 2730,3058 2740,3058 2741,3059 2755,3059 2756,3060 2760,3060 2761,3059 2777,3059 2778,3060 2792,3060 2793,3061 2798,3061 2799,3062 2802,3062 2803,3063 2807,3063 2808,3062 2811,3062 2812,3061 2814,3061 2815,3060 2819,3060 2820,3059 2834,3059 2835,3060 2859,3060 2860,3059 2879,3059 2880,3060 2885,3060 2886,3061 2893,3061 2894,3060 2899,3060 2900,3059 2907,3059 2908,3058 2941,3058 2942,3057 2956,3057 2957,3056 3023,3056 3024,3057 3027,3057 3028,3058 3030,3058 3031,3059 3064,3059 3065,3058 3070,3058 3071,3059 3088,3059 3089,3058 3127,3058 3128,3057 3131,3057 3132,3058 3140,3058 3141,3057 3150,3057 3151,3056 3152,3057 3161,3057 3162,3058 3181,3058 3182,3057 3193,3057 3194,3058 3203,3058 3204,3057 3213,3057 3214,3058 3221,3058 3222,3059 3228,3059 3229,3058 3240,3058 3241,3057 3250,3057 3251,3056 3259,3056 3260,3055 3312,3055 3313,3056 3317,3056 3318,3057 3334,3057 3335,3056 3338,3056 3339,3055 3350,3055 3351,3054 3362,3054 3363,3053 3396,3053 3397,3052 3403,3052 3404,3053 3410,3053 3411,3054 3414,3054 3415,3055 3421,3055 3422,3056 3437,3056 3438,3055 3445,3055 3446,3054 3454,3054 3455,3053 3460,3053 3461,3052 3469,3052 3470,3051 3494,3051 3495,3050 3503,3050 3504,3049 3539,3049 3540,3048 3552,3048 3553,3047 3566,3047 3567,3048 3585,3048 3586,3047 3637,3047 3638,3046 3677,3046 3678,3045 3708,3045 3709,3046 3724,3046 3725,3045 3753,3045 3754,3046 3769,3046 3770,3045 3791,3045 3792,3044 3798,3044 3799,3043 3801,3043 3802,3042 3803,3042 3804,3041 3805,3041 3806,3040 3806,3039 3807,3038 3807,3037 3808,3036 3808,3034 3809,3033 3809,3020 3808,3019 3808,2989 3809,2988 3809,2978 3808,2977 3808,2972 3807,2971 3807,2966 3808,2965 3808,2954 3809,2953 3809,2937 3810,2936 3810,2932 3809,2931 3809,2924 3808,2923 3808,2920 3809,2919 3809,2913 3810,2912 3810,2864 3811,2863 3811,2833 3812,2832 3812,2819 3813,2818 3813,2806 3814,2805 3814,2799 3813,2798 3813,2786 3812,2785 3812,2770 3811,2769 3811,2757 3810,2756 3810,2736 3809,2735 3809,2728 3808,2727 3808,2724 3807,2723 3807,2720 3806,2719 3806,2718 3805,2717 3804,2717 3803,2716 3802,2716 3801,2715 3800,2715 3799,2714 3796,2714 3795,2713" fill="rgba(116,99,103,0.3)" stroke="rgb(116,99,103)" stroke-width="2" data-block-id="0003" data-name="b-0006" /><text x="2764" y="2926" text-anchor="middle" dominant-baseline="middle" class="block-label" fill="rgb(116,99,103)" stroke="white" stroke-width="3" paint-order="stroke">b-0006</text><polygon points="592,1207 591,1208 584,1208 583,1209 573,1209 572,1208 537,1208 536,1209 523,1209 522,1210 498,1210 497,1209 491,1209 490,1210 474,1210 473,1211 471,1211 469,1213 468,1213 468,1214 466,1216 466,1218 465,1219 465,1220 464,1221 464,1223 463,1224 463,1240 464,1241 464,1247 465,1248 465,1253 464,1254 464,1289 463,1290 463,1292 462,1293 462,1296 461,1297 461,1302 462,1303 462,1314 463,1315 463,1324 464,1325 464,1338 463,1339 463,1352 464,1353 464,1365 463,1366 463,1372 464,1373 464,1396 463,1397 463,1407 462,1408 462,1413 461,1414 461,1418 462,1419 462,1421 463,1422 463,1425 464,1426 464,1481 463,1482 463,1493 464,1494 464,1509 463,1510 463,1518 464,1519 464,1543 463,1544 463,1560 464,1561 464,1562 465,1563 465,1564 466,1565 466,1566 469,1569 469,1570 476,1577 477,1577 478,1578 479,1578 480,1579 481,1579 482,1580 486,1580 487,1581 494,1581 495,1582 500,1582 501,1581 507,1581 508,1582 515,1582 516,1583 520,1583 521,1582 526,1582 527,1581 534,1581 535,1582 539,1582 540,1583 546,1583 547,1582 551,1582 552,1581 557,1581 558,1582 564,1582 565,1583 569,1583 570,1582 584,1582 585,1583 601,1583 602,1582 629,1582 630,1583 643,1583 644,1582 648,1582 649,1581 653,1581 654,1582 660,1582 661,1583 668,1583 669,1582 674,1582 675,1583 680,1583 681,1584 688,1584 689,1583 690,1583 691,1582 692,1582 694,1580 695,1580 697,1578 700,1578 701,1579 703,1579 704,1580 706,1580 707,1581 724,1581 725,1582 737,1582 738,1581 739,1581 740,1580 741,1580 742,1579 743,1579 744,1578 747,1578 748,1579 749,1579 750,1580 751,1580 752,1581 753,1581 754,1582 757,1582 758,1583 784,1583 785,1582 787,1582 788,1581 790,1581 791,1580 793,1580 794,1579 795,1579 796,1580 802,1580 803,1581 808,1581 809,1580 814,1580 815,1579 826,1579 827,1580 835,1580 836,1581 840,1581 841,1582 843,1582 844,1583 846,1583 847,1584 850,1584 851,1585 889,1585 890,1586 902,1586 903,1585 929,1585 930,1586 965,1586 966,1587 982,1587 983,1588 984,1588 985,1587 991,1587 992,1586 994,1586 995,1585 999,1585 1000,1586 1007,1586 1008,1587 1046,1587 1047,1586 1090,1586 1091,1587 1093,1587 1094,1586 1127,1586 1128,1587 1132,1587 1133,1586 1155,1586 1156,1585 1158,1585 1159,1584 1161,1584 1162,1583 1164,1583 1165,1584 1167,1584 1168,1585 1169,1585 1170,1586 1173,1586 1174,1587 1184,1587 1185,1588 1188,1588 1189,1587 1227,1587 1228,1588 1238,1588 1239,1587 1245,1587 1246,1586 1255,1586 1256,1587 1273,1587 1274,1588 1286,1588 1287,1587 1292,1587 1293,1586 1302,1586 1303,1587 1358,1587 1359,1586 1363,1586 1364,1585 1372,1585 1373,1586 1380,1586 1381,1585 1384,1585 1385,1584 1388,1584 1389,1583 1395,1583 1396,1584 1402,1584 1403,1585 1405,1585 1406,1586 1411,1586 1412,1587 1417,1587 1418,1586 1445,1586 1446,1587 1450,1587 1451,1586 1455,1586 1456,1585 1458,1585 1459,1584 1461,1584 1462,1583 1476,1583 1477,1582 1483,1582 1484,1581 1485,1581 1486,1582 1490,1582 1491,1583 1495,1583 1496,1584 1507,1584 1508,1585 1509,1585 1510,1584 1524,1584 1525,1585 1529,1585 1530,1586 1537,1586 1538,1585 1543,1585 1544,1584 1545,1585 1548,1585 1549,1586 1552,1586 1553,1587 1556,1587 1557,1588 1566,1588 1567,1587 1596,1587 1597,1586 1609,1586 1610,1587 1619,1587 1620,1588 1625,1588 1626,1589 1641,1589 1642,1590 1645,1590 1646,1591 1650,1591 1651,1592 1683,1592 1684,1591 1691,1591 1692,1592 1706,1592 1707,1593 1718,1593 1719,1592 1738,1592 1739,1593 1763,1593 1764,1592 1792,1592 1793,1593 1800,1593 1801,1592 1808,1592 1809,1591 1836,1591 1837,1590 1862,1590 1863,1589 1910,1589 1911,1588 1932,1588 1933,1587 1939,1587 1940,1586 1942,1586 1943,1585 1944,1585 1947,1582 1947,1581 1948,1580 1948,1579 1950,1577 1950,1575 1951,1574 1951,1566 1950,1565 1950,1560 1949,1559 1949,1558 1950,1557 1950,1541 1951,1540 1951,1531 1952,1530 1952,1522 1951,1521 1951,1518 1950,1517 1950,1515 1949,1514 1949,1511 1948,1510 1948,1501 1949,1500 1949,1494 1950,1493 1950,1486 1951,1485 1951,1474 1950,1473 1950,1470 1949,1469 1949,1466 1948,1465 1948,1449 1949,1448 1949,1443 1950,1442 1950,1432 1951,1431 1951,1428 1950,1427 1950,1420 1949,1419 1949,1409 1950,1408 1950,1398 1951,1397 1951,1375 1950,1374 1950,1355 1951,1354 1951,1351 1952,1350 1952,1347 1953,1346 1953,1339 1952,1338 1952,1322 1951,1321 1951,1317 1950,1316 1950,1312 1949,1311 1949,1309 1950,1308 1950,1306 1951,1305 1951,1304 1952,1303 1952,1301 1953,1300 1953,1290 1952,1289 1952,1272 1951,1271 1951,1267 1950,1266 1950,1259 1951,1258 1951,1256 1952,1255 1952,1253 1953,1252 1953,1246 1952,1245 1952,1240 1951,1239 1951,1236 1950,1235 1950,1234 1948,1232 1948,1231 1946,1229 1946,1228 1942,1224 1941,1224 1940,1223 1938,1223 1937,1222 1934,1222 1933,1221 1928,1221 1927,1220 1920,1220 1919,1219 1910,1219 1909,1220 1898,1220 1897,1219 1886,1219 1885,1220 1877,1220 1876,1219 1871,1219 1870,1218 1858,1218 1857,1219 1856,1219 1855,1218 1840,1218 1839,1219 1826,1219 1825,1218 1815,1218 1814,1219 1800,1219 1799,1218 1780,1218 1779,1217 1773,1217 1772,1216 1757,1216 1756,1215 1754,1215 1753,1214 1751,1214 1750,1213 1749,1214 1746,1214 1745,1215 1744,1215 1743,1216 1742,1216 1741,1217 1739,1217 1738,1218 1734,1218 1733,1217 1732,1217 1731,1216 1730,1216 1729,1215 1727,1215 1726,1214 1722,1214 1721,1215 1720,1215 1719,1216 1717,1216 1716,1217 1705,1217 1704,1216 1680,1216 1679,1215 1664,1215 1663,1214 1660,1214 1659,1213 1658,1213 1657,1212 1655,1212 1654,1211 1651,1211 1650,1212 1648,1212 1647,1213 1644,1213 1643,1214 1626,1214 1625,1215 1623,1215 1622,1216 1620,1216 1619,1217 1614,1217 1613,1216 1609,1216 1608,1215 1601,1215 1600,1216 1586,1216 1585,1215 1578,1215 1577,1214 1567,1214 1566,1213 1561,1213 1560,1212 1556,1212 1555,1213 1553,1213 1552,1214 1551,1214 1550,1215 1549,1215 1548,1216 1532,1216 1531,1215 1526,1215 1525,1214 1519,1214 1518,1213 1506,1213 1505,1214 1503,1214 1502,1215 1500,1215 1499,1216 1496,1216 1495,1215 1493,1215 1492,1214 1490,1214 1489,1213 1452,1213 1451,1214 1410,1214 1409,1213 1387,1213 1386,1214 1363,1214 1362,1215 1347,1215 1346,1214 1339,1214 1338,1215 1323,1215 1322,1214 1315,1214 1314,1215 1302,1215 1301,1214 1293,1214 1292,1213 1287,1213 1286,1212 1223,1212 1222,1211 1186,1211 1185,1210 1177,1210 1176,1211 1171,1211 1170,1212 1166,1212 1165,1213 1162,1213 1161,1212 1156,1212 1155,1211 1147,1211 1146,1210 1100,1210 1099,1211 1085,1211 1084,1210 1045,1210 1044,1209 1019,1209 1018,1210 1005,1210 1004,1211 992,1211 991,1210 965,1210 964,1211 924,1211 923,1212 908,1212 907,1213 885,1213 884,1212 848,1212 847,1213 838,1213 837,1212 808,1212 807,1211 805,1211 804,1212 798,1212 797,1213 790,1213 789,1212 786,1212 785,1211 762,1211 761,1210 757,1210 756,1211 752,1211 751,1212 748,1212 747,1213 733,1213 732,1212 714,1212 713,1213 706,1213 705,1212 681,1212 680,1211 653,1211 652,1212 651,1212 650,1211 645,1211 644,1210 640,1210 639,1209 606,1209 605,1208 593,1208" fill="rgba(151,130,149,0.3)" stroke="rgb(151,130,149)" stroke-width="2" data-block-id="0004" data-name="b-0007" /><text x="1245" y="1408" text-anchor="middle" dominant-baseline="middle" class="block-label" fill="rgb(151,130,149)" stroke="white" stroke-width="3" paint-order="stroke">b-0007</text><polygon points="650,2235 649,2236 640,2236 639,2237 606,2237 605,2238 599,2238 598,2237 583,2237 582,2238 576,2238 575,2237 564,2237 563,2238 559,2238 558,2239 556,2239 555,2240 553,2240 552,2241 548,2241 547,2242 539,2242 538,2241 522,2241 521,2242 515,2242 514,2241 494,2241 493,2240 479,2240 478,2241 473,2241 472,2242 468,2242 467,2243 464,2243 463,2244 461,2244 460,2245 459,2245 455,2249 455,2250 454,2251 454,2253 453,2254 453,2313 452,2314 452,2332 453,2333 453,2356 452,2357 452,2378 453,2379 453,2400 452,2401 452,2424 453,2425 453,2438 454,2439 454,2445 453,2446 453,2450 452,2451 452,2472 453,2473 453,2485 454,2486 454,2493 453,2494 453,2513 452,2514 453,2515 453,2545 452,2546 452,2560 453,2561 453,2569 454,2570 454,2601 455,2602 455,2604 456,2605 456,2606 460,2610 462,2610 463,2611 466,2611 467,2612 511,2612 512,2613 536,2613 537,2614 548,2614 549,2613 556,2613 557,2614 574,2614 575,2615 629,2615 630,2614 636,2614 637,2613 647,2613 648,2612 672,2612 673,2611 681,2611 682,2612 719,2612 720,2611 732,2611 733,2612 749,2612 750,2613 791,2613 792,2612 794,2612 795,2613 835,2613 836,2612 864,2612 865,2611 875,2611 876,2610 918,2610 919,2609 930,2609 931,2610 947,2610 948,2611 954,2611 955,2612 969,2612 970,2611 974,2611 975,2612 981,2612 982,2613 1007,2613 1008,2614 1010,2614 1011,2615 1013,2615 1014,2616 1016,2616 1017,2617 1020,2617 1021,2618 1062,2618 1063,2619 1073,2619 1074,2618 1086,2618 1087,2619 1092,2619 1093,2618 1099,2618 1100,2617 1194,2617 1195,2616 1205,2616 1206,2617 1256,2617 1257,2618 1266,2618 1267,2617 1294,2617 1295,2618 1388,2618 1389,2617 1392,2617 1393,2618 1419,2618 1420,2617 1429,2617 1430,2618 1524,2618 1525,2619 1552,2619 1553,2620 1562,2620 1563,2619 1572,2619 1573,2618 1578,2618 1579,2617 1592,2617 1593,2618 1602,2618 1603,2619 1610,2619 1611,2618 1677,2618 1678,2619 1705,2619 1706,2618 1722,2618 1723,2617 1795,2617 1796,2618 1828,2618 1829,2617 1908,2617 1909,2618 1921,2618 1922,2617 1930,2617 1931,2616 1936,2616 1937,2615 1939,2615 1940,2614 1941,2614 1943,2612 1943,2611 1944,2610 1944,2601 1945,2600 1945,2577 1944,2576 1944,2569 1945,2568 1945,2561 1944,2560 1944,2550 1945,2549 1945,2544 1946,2543 1946,2522 1945,2521 1945,2513 1944,2512 1944,2499 1945,2498 1945,2467 1944,2466 1944,2454 1945,2453 1945,2446 1946,2445 1946,2431 1947,2430 1947,2427 1948,2426 1948,2424 1949,2423 1949,2422 1950,2421 1950,2419 1951,2418 1951,2410 1952,2409 1952,2408 1951,2407 1951,2400 1950,2399 1950,2388 1949,2387 1949,2383 1948,2382 1948,2379 1947,2378 1947,2375 1946,2374 1946,2359 1947,2358 1947,2331 1946,2330 1946,2317 1945,2316 1945,2311 1946,2310 1946,2304 1947,2303 1947,2296 1948,2295 1948,2286 1947,2285 1947,2281 1946,2280 1946,2265 1945,2264 1945,2262 1944,2261 1944,2259 1943,2258 1943,2257 1941,2255 1941,2254 1940,2253 1939,2253 1938,2252 1937,2252 1936,2251 1931,2251 1930,2250 1891,2250 1890,2251 1861,2251 1860,2250 1838,2250 1837,2251 1815,2251 1814,2250 1798,2250 1797,2251 1599,2251 1598,2252 1580,2252 1579,2251 1573,2251 1572,2250 1500,2250 1499,2251 1488,2251 1487,2250 1466,2250 1465,2249 1462,2249 1461,2250 1446,2250 1445,2251 1435,2251 1434,2250 1411,2250 1410,2251 1405,2251 1404,2252 1401,2252 1400,2251 1397,2251 1396,2250 1394,2250 1393,2249 1369,2249 1368,2250 1336,2250 1335,2249 1308,2249 1307,2250 1291,2250 1290,2251 1283,2251 1282,2250 1274,2250 1273,2249 1267,2249 1266,2250 1239,2250 1238,2249 1230,2249 1229,2250 1214,2250 1213,2249 1212,2249 1211,2250 1195,2250 1194,2249 1188,2249 1187,2248 1180,2248 1179,2249 1174,2249 1173,2248 1149,2248 1148,2247 1136,2247 1135,2248 1132,2248 1131,2249 1125,2249 1124,2248 1121,2248 1120,2247 1117,2247 1116,2246 1107,2246 1106,2245 1103,2245 1102,2246 1096,2246 1095,2247 1076,2247 1075,2246 1060,2246 1059,2245 1054,2245 1053,2246 1048,2246 1047,2247 1029,2247 1028,2246 1001,2246 1000,2245 963,2245 962,2244 961,2244 960,2245 954,2245 953,2246 944,2246 943,2247 939,2247 938,2248 937,2247 933,2247 932,2246 930,2246 929,2245 925,2245 924,2244 919,2244 918,2243 908,2243 907,2244 900,2244 899,2245 898,2244 868,2244 867,2243 865,2243 864,2244 861,2244 860,2245 855,2245 854,2246 848,2246 847,2245 826,2245 825,2244 821,2244 820,2243 807,2243 806,2242 799,2242 798,2241 795,2241 794,2240 789,2240 788,2239 783,2239 782,2238 767,2238 766,2239 760,2239 759,2240 751,2240 750,2239 743,2239 742,2238 738,2238 737,2237 728,2237 727,2238 719,2238 718,2237 714,2237 713,2236 705,2236 704,2237 696,2237 695,2236 691,2236 690,2235" fill="rgba(52,1,87,0.3)" stroke="rgb(52,1,87)" stroke-width="2" data-block-id="0005" data-name="b-0008" /><text x="1161" y="2394" text-anchor="middle" dominant-baseline="middle" class="block-label" fill="rgb(52,1,87)" stroke="white" stroke-width="3" paint-order="stroke">b-0008</text><polygon points="828,728 827,729 822,729 821,730 801,730 800,731 796,731 795,732 784,732 783,731 781,731 780,732 759,732 758,733 742,733 741,732 733,732 732,731 714,731 713,732 703,732 702,733 696,733 695,732 691,732 690,731 676,731 675,732 673,732 672,731 655,731 654,732 646,732 645,731 618,731 617,730 611,730 610,731 597,731 596,730 582,730 581,731 575,731 574,730 563,730 562,731 555,731 554,732 553,732 552,731 525,731 524,730 515,730 514,731 488,731 487,732 480,732 479,733 477,733 476,734 474,734 473,735 472,735 470,737 470,738 469,739 469,741 468,742 468,745 467,746 467,763 466,764 466,824 465,825 465,877 466,878 466,892 465,893 465,908 466,909 466,920 465,921 465,934 466,935 466,955 465,956 465,966 466,967 466,993 465,994 465,997 466,998 466,1035 465,1036 465,1046 466,1047 466,1052 467,1053 467,1059 466,1060 466,1063 465,1064 465,1073 466,1074 466,1085 465,1086 465,1091 468,1094 469,1094 470,1095 471,1095 472,1096 473,1096 474,1097 475,1097 476,1098 479,1098 480,1099 499,1099 500,1100 521,1100 522,1099 549,1099 550,1100 556,1100 557,1099 572,1099 573,1100 629,1100 630,1101 675,1101 676,1102 685,1102 686,1101 695,1101 696,1100 704,1100 705,1101 721,1101 722,1100 738,1100 739,1101 804,1101 805,1100 846,1100 847,1101 856,1101 857,1100 888,1100 889,1099 903,1099 904,1100 911,1100 912,1101 930,1101 931,1100 943,1100 944,1101 955,1101 956,1100 965,1100 966,1101 975,1101 976,1100 1005,1100 1006,1101 1018,1101 1019,1100 1048,1100 1049,1099 1054,1099 1055,1098 1058,1098 1059,1099 1064,1099 1065,1100 1079,1100 1080,1101 1127,1101 1128,1102 1147,1102 1148,1101 1215,1101 1216,1102 1283,1102 1284,1103 1336,1103 1337,1104 1346,1104 1347,1103 1360,1103 1361,1104 1385,1104 1386,1103 1398,1103 1399,1104 1415,1104 1416,1105 1439,1105 1440,1104 1522,1104 1523,1105 1542,1105 1543,1104 1594,1104 1595,1105 1605,1105 1606,1106 1621,1106 1622,1105 1637,1105 1638,1104 1645,1104 1646,1105 1693,1105 1694,1106 1698,1106 1699,1107 1712,1107 1713,1106 1722,1106 1723,1105 1780,1105 1781,1106 1789,1106 1790,1107 1798,1107 1799,1106 1802,1106 1803,1105 1836,1105 1837,1106 1924,1106 1925,1107 1942,1107 1943,1106 1946,1106 1947,1105 1950,1105 1953,1102 1953,1101 1954,1100 1954,1098 1955,1097 1955,1095 1956,1094 1956,1073 1955,1072 1955,1052 1956,1051 1956,1025 1955,1024 1955,958 1956,957 1956,940 1955,939 1955,888 1956,887 1956,876 1957,875 1957,865 1956,864 1956,845 1955,844 1955,831 1956,830 1956,827 1955,826 1955,781 1954,780 1954,777 1953,776 1953,773 1952,772 1952,770 1951,769 1951,764 1952,763 1952,754 1951,753 1951,746 1950,745 1950,744 1949,743 1948,743 1947,742 1946,742 1945,741 1943,741 1942,740 1938,740 1937,739 1915,739 1914,738 1893,738 1892,737 1873,737 1872,736 1866,736 1865,735 1862,735 1861,734 1838,734 1837,735 1779,735 1778,734 1708,734 1707,733 1696,733 1695,734 1669,734 1668,733 1640,733 1639,734 1638,733 1591,733 1590,732 1514,732 1513,733 1506,733 1505,732 1493,732 1492,731 1472,731 1471,732 1405,732 1404,731 1396,731 1395,732 1388,732 1387,731 1373,731 1372,732 1361,732 1360,731 1333,731 1332,732 1320,732 1319,733 1283,733 1282,734 1244,734 1243,733 1190,733 1189,732 1186,732 1185,733 1166,733 1165,732 1158,732 1157,733 1150,733 1149,732 1130,732 1129,733 1126,733 1125,732 1037,732 1036,733 1028,733 1027,732 1001,732 1000,731 993,731 992,732 952,732 951,731 947,731 946,732 909,732 908,731 904,731 903,730 896,730 895,731 884,731 883,730 836,730 835,729 831,729 830,728" fill="rgba(235,157,37,0.3)" stroke="rgb(235,157,37)" stroke-width="2" data-block-id="0006" data-name="b-0009" /><text x="1142" y="903" text-anchor="middle" dominant-baseline="middle" class="block-label" fill="rgb(235,157,37)" stroke="white" stroke-width="3" paint-order="stroke">b-0009</text><polygon points="509,1764 508,1765 483,1765 482,1766 480,1766 479,1767 477,1767 476,1768 475,1768 474,1769 473,1769 472,1770 471,1770 470,1771 469,1771 465,1775 465,1776 464,1777 464,1780 463,1781 463,1785 462,1786 462,1799 461,1800 461,1806 460,1807 460,1813 459,1814 459,1851 458,1852 458,1861 457,1862 457,1879 458,1880 458,1885 457,1886 457,1934 456,1935 456,1952 457,1953 457,1985 456,1986 456,2018 457,2019 457,2029 456,2030 456,2036 455,2037 455,2122 456,2123 456,2124 459,2127 460,2127 461,2128 464,2128 465,2129 468,2129 469,2130 476,2130 477,2131 507,2131 508,2132 560,2132 561,2131 580,2131 581,2132 609,2132 610,2133 621,2133 622,2132 663,2132 664,2133 667,2133 668,2134 672,2134 673,2135 675,2135 676,2134 680,2134 681,2133 690,2133 691,2134 700,2134 701,2135 724,2135 725,2136 748,2136 749,2135 763,2135 764,2136 794,2136 795,2135 802,2135 803,2134 811,2134 812,2133 834,2133 835,2134 852,2134 853,2133 870,2133 871,2134 882,2134 883,2135 939,2135 940,2136 946,2136 947,2137 957,2137 958,2136 975,2136 976,2137 1018,2137 1019,2136 1021,2136 1022,2137 1032,2137 1033,2138 1080,2138 1081,2139 1082,2139 1083,2138 1093,2138 1094,2139 1137,2139 1138,2138 1139,2139 1200,2139 1201,2140 1216,2140 1217,2139 1251,2139 1252,2138 1264,2138 1265,2139 1330,2139 1331,2138 1360,2138 1361,2139 1369,2139 1370,2138 1409,2138 1410,2139 1423,2139 1424,2140 1429,2140 1430,2139 1482,2139 1483,2138 1484,2138 1485,2139 1491,2139 1492,2140 1505,2140 1506,2139 1553,2139 1554,2138 1559,2138 1560,2139 1563,2139 1564,2140 1569,2140 1570,2141 1572,2141 1573,2140 1594,2140 1595,2139 1651,2139 1652,2138 1654,2138 1655,2139 1684,2139 1685,2138 1691,2138 1692,2139 1697,2139 1698,2140 1710,2140 1711,2139 1768,2139 1769,2140 1792,2140 1793,2139 1829,2139 1830,2138 1831,2138 1832,2139 1840,2139 1841,2140 1849,2140 1850,2139 1933,2139 1934,2138 1939,2138 1940,2137 1941,2137 1942,2136 1943,2136 1944,2135 1944,2134 1945,2133 1945,2128 1946,2127 1946,2117 1947,2116 1947,2084 1946,2083 1946,2068 1947,2067 1947,2018 1948,2017 1948,2002 1947,2001 1947,2000 1948,1999 1948,1988 1947,1987 1947,1975 1948,1974 1948,1965 1949,1964 1949,1950 1948,1949 1948,1942 1949,1941 1949,1925 1950,1924 1950,1896 1949,1895 1949,1874 1950,1873 1950,1863 1949,1862 1949,1827 1950,1826 1950,1817 1949,1816 1949,1785 1948,1784 1948,1782 1947,1781 1947,1779 1946,1778 1946,1777 1945,1776 1945,1775 1942,1772 1940,1772 1939,1771 1907,1771 1906,1770 1895,1770 1894,1771 1863,1771 1862,1770 1833,1770 1832,1771 1806,1771 1805,1770 1797,1770 1796,1769 1795,1769 1794,1770 1778,1770 1777,1771 1770,1771 1769,1770 1739,1770 1738,1771 1721,1771 1720,1770 1686,1770 1685,1771 1672,1771 1671,1770 1621,1770 1620,1769 1614,1769 1613,1770 1600,1770 1599,1769 1584,1769 1583,1770 1580,1770 1579,1769 1571,1769 1570,1768 1526,1768 1525,1769 1505,1769 1504,1768 1490,1768 1489,1769 1479,1769 1478,1768 1472,1768 1471,1769 1454,1769 1453,1768 1444,1768 1443,1769 1433,1769 1432,1768 1328,1768 1327,1769 1304,1769 1303,1768 1277,1768 1276,1767 1245,1767 1244,1768 1235,1768 1234,1769 1222,1769 1221,1768 1218,1768 1217,1767 1175,1767 1174,1768 1170,1768 1169,1769 1167,1769 1165,1771 1155,1771 1154,1770 1150,1770 1149,1771 1145,1771 1144,1772 1140,1772 1139,1773 1104,1773 1103,1772 1094,1772 1093,1771 1088,1771 1087,1772 1078,1772 1077,1771 1071,1771 1070,1770 1046,1770 1045,1769 1043,1769 1042,1770 1031,1770 1030,1769 1027,1769 1026,1768 1023,1768 1022,1767 1012,1767 1011,1766 955,1766 954,1767 929,1767 928,1766 891,1766 890,1765 886,1765 885,1766 871,1766 870,1765 857,1765 856,1764 848,1764 847,1765 834,1765 833,1764 826,1764 825,1765 819,1765 818,1766 816,1766 815,1765 800,1765 799,1766 796,1766 795,1767 794,1767 793,1766 789,1766 788,1765 785,1765 784,1764 761,1764 760,1765 617,1765 616,1766 599,1766 598,1765 569,1765 568,1764 564,1764 563,1765 531,1765 530,1764" fill="rgba(129,191,187,0.3)" stroke="rgb(129,191,187)" stroke-width="2" data-block-id="0007" data-name="b-0010" /><text x="1198" y="1938" text-anchor="middle" dominant-baseline="middle" class="block-label" fill="rgb(129,191,187)" stroke="white" stroke-width="3" paint-order="stroke">b-0010</text><polygon points="706,244 705,245 693,245 692,246 688,246 687,247 679,247 678,248 672,248 671,247 636,247 635,248 623,248 622,247 607,247 606,248 601,248 600,247 595,247 594,246 586,246 585,247 578,247 577,248 572,248 571,247 568,247 567,248 515,248 514,249 501,249 500,250 482,250 481,251 480,251 477,254 477,255 476,256 476,264 475,265 475,323 474,324 474,331 475,332 475,359 474,360 474,368 473,369 473,373 472,374 473,375 473,378 474,379 474,381 475,382 475,385 476,386 476,402 475,403 475,442 474,443 474,459 473,460 473,476 472,477 472,481 471,482 471,499 472,500 472,518 471,519 471,520 467,524 466,524 463,527 462,527 461,528 461,532 462,533 463,533 467,537 467,538 469,540 469,542 470,543 470,547 471,548 471,555 472,556 472,573 471,574 471,586 470,587 470,592 471,593 471,600 472,601 472,603 473,604 473,605 474,606 474,607 475,608 475,609 476,610 476,611 479,614 480,614 481,615 483,615 484,616 493,616 494,617 497,617 498,616 510,616 511,617 519,617 520,618 521,618 522,617 615,617 616,618 617,617 628,617 629,618 645,618 646,617 653,617 654,618 681,618 682,617 697,617 698,618 704,618 705,619 712,619 713,618 715,618 716,617 719,617 720,616 754,616 755,617 793,617 794,618 807,618 808,617 813,617 814,616 826,616 827,617 836,617 837,616 842,616 843,617 882,617 883,616 892,616 893,617 945,617 946,618 952,618 953,617 1005,617 1006,618 1011,618 1012,617 1028,617 1029,616 1033,616 1034,617 1042,617 1043,618 1053,618 1054,619 1064,619 1065,618 1084,618 1085,619 1122,619 1123,618 1128,618 1129,619 1134,619 1135,620 1201,620 1202,619 1230,619 1231,620 1237,620 1238,619 1244,619 1245,618 1267,618 1268,619 1339,619 1340,618 1347,618 1348,619 1367,619 1368,620 1384,620 1385,619 1410,619 1411,618 1420,618 1421,619 1458,619 1459,618 1466,618 1467,619 1525,619 1526,620 1542,620 1543,619 1548,619 1549,620 1555,620 1556,621 1573,621 1574,620 1587,620 1588,621 1602,621 1603,622 1606,622 1607,621 1616,621 1617,620 1640,620 1641,621 1665,621 1666,620 1740,620 1741,621 1754,621 1755,620 1775,620 1776,619 1780,619 1781,618 1818,618 1819,619 1853,619 1854,618 1855,618 1856,619 1861,619 1862,620 1881,620 1882,621 1898,621 1899,620 1943,620 1944,619 1949,619 1950,618 1951,618 1952,617 1953,617 1954,616 1954,615 1955,614 1955,608 1956,607 1956,600 1955,599 1955,586 1956,585 1956,570 1955,569 1955,560 1956,559 1956,548 1957,547 1957,526 1958,525 1958,514 1957,513 1957,498 1958,497 1958,473 1959,472 1959,463 1958,462 1958,440 1957,439 1957,430 1958,429 1958,377 1957,376 1957,371 1956,370 1956,365 1955,364 1955,362 1956,361 1956,355 1957,354 1957,348 1956,347 1956,337 1957,336 1957,333 1958,332 1958,327 1959,326 1958,325 1958,286 1959,285 1959,275 1958,274 1958,267 1957,266 1957,264 1956,263 1956,261 1955,260 1955,258 1953,256 1953,255 1952,255 1951,254 1932,254 1931,253 1920,253 1919,254 1917,254 1916,253 1909,253 1908,252 1898,252 1897,251 1889,251 1888,252 1862,252 1861,251 1851,251 1850,250 1841,250 1840,251 1834,251 1833,252 1812,252 1811,251 1801,251 1800,250 1757,250 1756,249 1742,249 1741,250 1719,250 1718,249 1708,249 1707,248 1696,248 1695,249 1662,249 1661,248 1647,248 1646,249 1611,249 1610,248 1600,248 1599,249 1566,249 1565,248 1551,248 1550,249 1523,249 1522,248 1512,248 1511,247 1510,248 1505,248 1504,249 1500,249 1499,250 1493,250 1492,249 1432,249 1431,248 1383,248 1382,249 1370,249 1369,248 1361,248 1360,249 1355,249 1354,248 1349,248 1348,247 1345,247 1344,246 1343,247 1339,247 1338,248 1335,248 1334,249 1309,249 1308,250 1304,250 1303,249 1287,249 1286,248 1263,248 1262,249 1252,249 1251,248 1231,248 1230,249 1222,249 1221,248 1217,248 1216,247 1194,247 1193,248 1142,248 1141,249 1136,249 1135,248 1124,248 1123,249 1110,249 1109,248 1096,248 1095,249 1083,249 1082,248 1077,248 1076,247 1071,247 1070,246 1051,246 1050,247 1043,247 1042,248 985,248 984,247 952,247 951,248 917,248 916,247 880,247 879,248 869,248 868,249 865,249 864,248 861,248 860,247 855,247 854,246 847,246 846,247 764,247 763,246 753,246 752,247 742,247 741,246 717,246 716,245 710,245 709,244" fill="rgba(20,160,203,0.3)" stroke="rgb(20,160,203)" stroke-width="2" data-block-id="0008" data-name="b-0011" /><text x="1186" y="428" text-anchor="middle" dominant-baseline="middle" class="block-label" fill="rgb(20,160,203)" stroke="white" stroke-width="3" paint-order="stroke">b-0011</text><polygon points="2157,734 2156,735 2146,735 2145,736 2141,736 2140,737 2137,737 2136,738 2135,738 2132,741 2132,743 2131,744 2131,780 2130,781 2130,809 2131,810 2131,824 2130,825 2130,844 2129,845 2129,849 2128,850 2128,857 2129,858 2129,885 2130,886 2130,894 2129,895 2129,920 2128,921 2128,946 2129,947 2129,957 2128,958 2128,984 2127,985 2127,989 2126,990 2126,994 2125,995 2125,999 2126,1000 2126,1017 2127,1018 2127,1022 2128,1023 2128,1027 2129,1028 2129,1063 2128,1064 2128,1085 2127,1086 2127,1090 2128,1091 2128,1092 2129,1093 2130,1093 2131,1094 2132,1094 2133,1095 2134,1095 2135,1096 2136,1096 2137,1097 2139,1097 2140,1098 2143,1098 2144,1099 2146,1099 2147,1100 2168,1100 2169,1099 2237,1099 2238,1098 2306,1098 2307,1099 2313,1099 2314,1100 2316,1100 2317,1101 2318,1101 2319,1102 2321,1102 2322,1103 2323,1103 2324,1104 2326,1104 2327,1105 2384,1105 2385,1104 2390,1104 2391,1105 2473,1105 2474,1104 2509,1104 2510,1105 2563,1105 2564,1106 2576,1106 2577,1105 2578,1105 2579,1106 2595,1106 2596,1105 2608,1105 2609,1106 2653,1106 2654,1107 2709,1107 2710,1106 2790,1106 2791,1105 2800,1105 2801,1106 2820,1106 2821,1105 2898,1105 2899,1104 2905,1104 2906,1105 2982,1105 2983,1106 2986,1106 2987,1105 2999,1105 3000,1106 3024,1106 3025,1105 3176,1105 3177,1104 3191,1104 3192,1105 3207,1105 3208,1106 3215,1106 3216,1105 3231,1105 3232,1104 3238,1104 3239,1105 3269,1105 3270,1104 3278,1104 3279,1105 3313,1105 3314,1104 3317,1104 3318,1103 3319,1103 3320,1102 3325,1102 3326,1101 3353,1101 3354,1102 3359,1102 3360,1103 3364,1103 3365,1104 3369,1104 3370,1105 3409,1105 3410,1104 3472,1104 3473,1103 3554,1103 3555,1104 3614,1104 3615,1103 3619,1103 3620,1104 3647,1104 3648,1103 3689,1103 3690,1102 3692,1102 3694,1100 3695,1100 3696,1099 3696,1098 3698,1096 3698,1094 3699,1093 3699,1086 3698,1085 3698,1081 3697,1080 3697,1078 3696,1077 3696,1075 3695,1074 3695,1073 3694,1072 3694,1071 3693,1070 3693,1068 3692,1067 3692,1066 3691,1065 3691,1064 3690,1063 3690,1061 3689,1060 3689,1059 3688,1058 3688,1057 3687,1056 3687,1055 3686,1054 3686,1052 3685,1051 3685,1050 3684,1049 3684,1048 3683,1047 3683,1046 3682,1045 3682,1044 3681,1043 3681,1042 3680,1041 3680,1039 3679,1038 3679,1037 3678,1036 3678,1034 3677,1033 3677,1031 3676,1030 3676,1029 3675,1028 3675,1026 3674,1025 3674,1023 3673,1022 3673,1021 3672,1020 3672,1019 3671,1018 3671,1017 3670,1016 3670,1015 3669,1014 3669,1013 3668,1012 3668,1010 3667,1009 3667,1008 3666,1007 3666,1006 3665,1005 3665,1004 3664,1003 3664,1001 3662,999 3662,998 3661,997 3661,996 3660,995 3660,994 3659,993 3659,992 3658,991 3658,990 3657,989 3657,988 3656,987 3656,986 3654,984 3654,983 3653,982 3653,981 3652,980 3652,979 3651,978 3651,976 3650,975 3650,974 3649,973 3649,971 3648,970 3648,969 3647,968 3647,966 3646,965 3646,962 3645,961 3645,959 3644,958 3644,956 3643,955 3643,953 3642,952 3642,950 3641,949 3641,947 3640,946 3640,944 3639,943 3639,941 3638,940 3638,938 3637,937 3637,935 3636,934 3636,933 3635,932 3635,931 3634,930 3634,929 3633,928 3633,927 3632,926 3632,925 3631,924 3631,923 3630,922 3630,920 3629,919 3629,917 3628,916 3628,914 3627,913 3627,911 3626,910 3626,909 3625,908 3625,906 3624,905 3624,904 3623,903 3623,901 3622,900 3622,899 3621,898 3621,897 3620,896 3620,894 3619,893 3619,892 3618,891 3618,889 3617,888 3617,887 3616,886 3616,885 3614,883 3614,882 3613,881 3613,880 3611,878 3611,877 3610,876 3610,875 3609,874 3609,872 3608,871 3608,870 3607,869 3607,868 3605,866 3605,864 3604,863 3604,862 3603,861 3603,860 3602,859 3602,857 3601,856 3601,854 3600,853 3600,851 3599,850 3599,849 3598,848 3598,846 3597,845 3597,844 3596,843 3596,842 3595,841 3595,838 3594,837 3594,835 3593,834 3593,833 3592,832 3592,831 3591,830 3591,829 3590,828 3590,826 3589,825 3589,822 3588,821 3588,819 3587,818 3587,817 3586,816 3586,815 3582,811 3582,810 3579,807 3579,806 3577,804 3577,803 3576,802 3576,801 3575,800 3575,798 3574,797 3574,795 3573,794 3573,792 3572,791 3572,789 3571,788 3571,786 3570,785 3570,783 3569,782 3569,781 3568,780 3568,778 3567,777 3567,775 3566,774 3566,773 3565,772 3565,771 3564,770 3564,769 3563,768 3563,767 3562,766 3562,765 3561,764 3561,763 3560,762 3560,761 3559,760 3559,758 3558,757 3558,756 3557,755 3557,753 3556,752 3556,751 3555,750 3555,748 3554,747 3554,746 3551,743 3550,743 3549,742 3548,742 3547,741 3527,741 3526,740 3482,740 3481,739 3418,739 3417,738 3416,738 3415,739 3375,739 3374,738 3223,738 3222,739 3221,738 3203,738 3202,739 3182,739 3181,740 3177,740 3176,741 3174,741 3173,742 3170,742 3169,743 3162,743 3161,744 3154,744 3153,745 3143,745 3142,746 3106,746 3105,747 3094,747 3093,748 3089,748 3088,747 3054,747 3053,748 3049,748 3048,749 3040,749 3039,748 3035,748 3034,747 3000,747 2999,748 2995,748 2994,747 2945,747 2944,746 2882,746 2881,747 2871,747 2870,748 2858,748 2857,747 2851,747 2850,746 2845,746 2844,745 2839,745 2838,746 2832,746 2831,747 2776,747 2775,748 2760,748 2759,749 2756,749 2755,748 2744,748 2743,749 2735,749 2734,750 2691,750 2690,751 2644,751 2643,752 2628,752 2627,753 2616,753 2615,754 2610,754 2609,755 2605,755 2604,756 2599,756 2598,755 2590,755 2589,754 2583,754 2582,753 2578,753 2577,752 2573,752 2572,751 2569,751 2568,750 2562,750 2561,749 2539,749 2538,748 2534,748 2533,747 2530,747 2529,746 2524,746 2523,745 2513,745 2512,744 2501,744 2500,745 2494,745 2493,744 2476,744 2475,743 2468,743 2467,744 2434,744 2433,743 2406,743 2405,744 2387,744 2386,743 2366,743 2365,744 2362,744 2361,743 2345,743 2344,744 2340,744 2339,743 2334,743 2333,742 2326,742 2325,741 2288,741 2287,740 2265,740 2264,739 2260,739 2259,738 2257,738 2256,737 2248,737 2247,736 2236,736 2235,735 2223,735 2222,736 2215,736 2214,735 2209,735 2208,736 2192,736 2191,735 2164,735 2163,734" fill="rgba(57,21,252,0.3)" stroke="rgb(57,21,252)" stroke-width="2" data-block-id="0009" data-name="b-0012" /><text x="3107" y="909" text-anchor="middle" dominant-baseline="middle" class="block-label" fill="rgb(57,21,252)" stroke="white" stroke-width="3" paint-order="stroke">b-0012</text><polygon points="459,2727 458,2728 457,2728 456,2729 456,2730 454,2732 454,2734 453,2735 453,2737 452,2738 452,2740 451,2741 451,2757 450,2758 450,2774 449,2775 449,2785 448,2786 448,2794 447,2795 447,2807 448,2808 448,2822 447,2823 447,2828 446,2829 446,2832 445,2833 445,2834 444,2835 444,2836 443,2837 443,2839 442,2840 442,2841 441,2842 441,2843 440,2844 440,2845 439,2846 439,2847 438,2848 438,2849 439,2850 439,2851 440,2851 444,2855 444,2856 445,2857 445,2858 446,2859 446,2862 447,2863 446,2864 446,2875 445,2876 445,2892 446,2893 446,2895 447,2896 447,2924 446,2925 446,2929 445,2930 445,2938 444,2939 444,2948 445,2949 445,2987 446,2988 446,2998 445,2999 445,3010 444,3011 444,3045 445,3046 445,3048 446,3049 446,3052 447,3053 447,3057 448,3058 448,3060 449,3061 449,3063 451,3065 451,3066 452,3066 454,3068 455,3068 456,3069 458,3069 459,3070 474,3070 475,3071 500,3071 501,3072 525,3072 526,3071 565,3071 566,3070 607,3070 608,3071 644,3071 645,3072 650,3072 651,3073 658,3073 659,3074 661,3074 662,3073 665,3073 666,3072 669,3072 670,3071 688,3071 689,3070 723,3070 724,3071 726,3071 727,3072 729,3072 730,3073 731,3073 732,3074 736,3074 737,3073 739,3073 740,3072 742,3072 743,3071 745,3071 746,3070 808,3070 809,3071 833,3071 834,3070 837,3070 838,3069 850,3069 851,3070 860,3070 861,3071 903,3071 904,3070 909,3070 910,3069 920,3069 921,3070 937,3070 938,3071 968,3071 969,3072 1000,3072 1001,3071 1004,3071 1005,3070 1013,3070 1014,3071 1097,3071 1098,3072 1151,3072 1152,3073 1166,3073 1167,3072 1173,3072 1174,3071 1177,3071 1178,3072 1230,3072 1231,3073 1234,3073 1235,3072 1242,3072 1243,3071 1280,3071 1281,3072 1300,3072 1301,3071 1309,3071 1310,3072 1315,3072 1316,3073 1337,3073 1338,3072 1384,3072 1385,3073 1397,3073 1398,3074 1411,3074 1412,3075 1417,3075 1418,3074 1428,3074 1429,3073 1433,3073 1434,3072 1523,3072 1524,3071 1725,3071 1726,3070 1871,3070 1872,3071 1899,3071 1900,3072 1906,3072 1907,3071 1929,3071 1930,3070 1931,3070 1932,3069 1933,3069 1934,3068 1936,3068 1937,3067 1938,3067 1939,3066 1939,3065 1940,3064 1940,3051 1941,3050 1941,3044 1942,3043 1942,3040 1941,3039 1941,3034 1940,3033 1940,3026 1941,3025 1941,3022 1942,3021 1942,3007 1941,3006 1941,2999 1942,2998 1942,2993 1941,2992 1941,2986 1940,2985 1940,2980 1941,2979 1941,2976 1942,2975 1942,2972 1943,2971 1943,2963 1942,2962 1942,2945 1941,2944 1941,2938 1940,2937 1940,2932 1941,2931 1941,2928 1942,2927 1942,2924 1943,2923 1943,2915 1942,2914 1942,2896 1941,2895 1941,2891 1940,2890 1940,2883 1941,2882 1941,2880 1942,2879 1942,2876 1943,2875 1943,2869 1942,2868 1942,2851 1941,2850 1941,2844 1940,2843 1940,2835 1941,2834 1941,2832 1942,2831 1942,2828 1943,2827 1943,2823 1942,2822 1942,2815 1941,2814 1941,2802 1940,2801 1940,2796 1939,2795 1939,2788 1940,2787 1940,2786 1941,2785 1941,2783 1942,2782 1942,2780 1943,2779 1943,2775 1942,2774 1942,2769 1941,2768 1941,2760 1940,2759 1940,2754 1939,2753 1939,2751 1938,2750 1938,2748 1937,2747 1937,2744 1936,2743 1936,2742 1933,2739 1932,2739 1931,2738 1930,2738 1929,2737 1927,2737 1926,2736 1919,2736 1918,2737 1917,2737 1916,2736 1855,2736 1854,2735 1825,2735 1824,2736 1811,2736 1810,2737 1754,2737 1753,2738 1741,2738 1740,2737 1727,2737 1726,2738 1720,2738 1719,2737 1696,2737 1695,2736 1677,2736 1676,2737 1659,2737 1658,2736 1569,2736 1568,2735 1552,2735 1551,2736 1490,2736 1489,2737 1485,2737 1484,2736 1454,2736 1453,2737 1441,2737 1440,2736 1426,2736 1425,2735 1414,2735 1413,2736 1404,2736 1403,2737 1400,2737 1399,2736 1385,2736 1384,2735 1363,2735 1362,2736 1324,2736 1323,2737 1314,2737 1313,2738 1299,2738 1298,2737 1255,2737 1254,2736 1242,2736 1241,2735 1220,2735 1219,2734 1213,2734 1212,2733 1167,2733 1166,2732 1158,2732 1157,2733 1150,2733 1149,2732 1145,2732 1144,2731 1137,2731 1136,2732 1133,2732 1132,2733 1130,2733 1129,2734 1125,2734 1124,2733 1121,2733 1120,2732 1087,2732 1086,2733 1076,2733 1075,2732 1058,2732 1057,2733 1055,2733 1054,2732 1034,2732 1033,2733 1032,2733 1031,2732 1023,2732 1022,2731 1020,2731 1019,2732 1014,2732 1013,2733 1005,2733 1004,2732 1002,2732 1001,2731 998,2731 997,2730 993,2730 992,2731 981,2731 980,2730 973,2730 972,2729 971,2729 970,2730 962,2730 961,2731 952,2731 951,2730 949,2730 948,2731 904,2731 903,2730 899,2730 898,2731 891,2731 890,2732 889,2731 882,2731 881,2730 870,2730 869,2731 857,2731 856,2732 852,2732 851,2733 849,2733 848,2734 846,2734 845,2735 836,2735 835,2734 811,2734 810,2733 795,2733 794,2734 792,2734 791,2733 776,2733 775,2734 763,2734 762,2733 749,2733 748,2734 744,2734 743,2733 736,2733 735,2732 732,2732 731,2733 718,2733 717,2732 714,2732 713,2731 706,2731 705,2732 699,2732 698,2733 696,2733 695,2732 672,2732 671,2731 667,2731 666,2730 655,2730 654,2731 645,2731 644,2730 622,2730 621,2729 618,2729 617,2728 502,2728 501,2727" fill="rgba(218,58,254,0.3)" stroke="rgb(218,58,254)" stroke-width="2" data-block-id="0010" data-name="b-0015" /><text x="1155" y="2875" text-anchor="middle" dominant-baseline="middle" class="block-label" fill="rgb(218,58,254)" stroke="white" stroke-width="3" paint-order="stroke">b-0015</text><polygon points="4135,2238 4134,2239 4116,2239 4115,2240 4111,2240 4110,2241 4102,2241 4101,2240 4084,2240 4083,2241 4075,2241 4074,2242 4067,2242 4066,2243 4055,2243 4054,2242 4052,2242 4051,2241 4049,2241 4048,2240 4043,2240 4042,2241 4031,2241 4030,2240 4024,2240 4023,2239 4003,2239 4002,2240 3994,2240 3993,2241 3990,2241 3989,2242 3989,2291 3990,2292 3990,2303 3991,2304 3991,2307 3992,2308 3992,2318 3991,2319 3991,2322 3990,2323 3990,2337 3989,2338 3989,2343 3988,2344 3988,2353 3989,2354 3989,2364 3988,2365 3988,2370 3987,2371 3987,2377 3986,2378 3986,2400 3987,2401 3987,2429 3986,2430 3986,2433 3987,2434 3987,2464 3988,2465 3988,2515 3989,2516 3989,2517 3988,2518 3988,2548 3989,2549 3989,2582 3990,2583 3990,2588 3991,2589 3991,2590 3994,2593 3995,2593 3996,2594 4017,2594 4018,2593 4030,2593 4031,2594 4040,2594 4041,2593 4096,2593 4097,2592 4117,2592 4118,2591 4137,2591 4138,2592 4142,2592 4143,2591 4251,2591 4252,2590 4304,2590 4305,2589 4329,2589 4330,2588 4332,2588 4333,2587 4334,2587 4335,2586 4335,2584 4334,2583 4334,2578 4333,2577 4333,2574 4332,2573 4332,2572 4331,2571 4331,2570 4330,2569 4330,2568 4329,2567 4329,2565 4328,2564 4328,2562 4327,2561 4327,2560 4326,2559 4326,2558 4325,2557 4325,2556 4324,2555 4324,2554 4323,2553 4323,2552 4322,2551 4322,2550 4321,2549 4321,2548 4320,2547 4320,2545 4319,2544 4319,2542 4318,2541 4318,2539 4317,2538 4317,2537 4316,2536 4316,2535 4315,2534 4315,2533 4314,2532 4314,2531 4313,2530 4313,2529 4312,2528 4312,2527 4311,2526 4311,2524 4310,2523 4310,2522 4309,2521 4309,2519 4308,2518 4308,2516 4307,2515 4307,2513 4306,2512 4306,2511 4305,2510 4305,2508 4304,2507 4304,2505 4303,2504 4303,2503 4302,2502 4302,2500 4301,2499 4301,2498 4300,2497 4300,2496 4299,2495 4299,2493 4298,2492 4298,2491 4297,2490 4297,2489 4296,2488 4296,2487 4295,2486 4295,2485 4294,2484 4294,2483 4293,2482 4293,2481 4292,2480 4292,2479 4291,2478 4291,2477 4290,2476 4290,2475 4289,2474 4289,2472 4288,2471 4288,2470 4287,2469 4287,2467 4286,2466 4286,2464 4285,2463 4285,2461 4284,2460 4284,2458 4283,2457 4283,2456 4282,2455 4282,2454 4281,2453 4281,2452 4280,2451 4280,2450 4279,2449 4279,2448 4278,2447 4278,2446 4277,2445 4277,2444 4276,2443 4276,2442 4275,2441 4275,2439 4274,2438 4274,2437 4273,2436 4273,2434 4272,2433 4272,2431 4271,2430 4271,2428 4270,2427 4270,2426 4269,2425 4269,2423 4268,2422 4268,2420 4267,2419 4267,2418 4266,2417 4266,2416 4265,2415 4265,2414 4264,2413 4264,2412 4263,2411 4263,2410 4262,2409 4262,2408 4261,2407 4261,2405 4260,2404 4260,2403 4259,2402 4259,2400 4258,2399 4258,2397 4257,2396 4257,2395 4256,2394 4256,2392 4255,2391 4255,2390 4254,2389 4254,2388 4253,2387 4253,2386 4252,2385 4252,2384 4251,2383 4251,2382 4250,2381 4250,2380 4249,2379 4249,2378 4248,2377 4248,2375 4247,2374 4247,2373 4246,2372 4246,2370 4245,2369 4245,2368 4244,2367 4244,2366 4243,2365 4243,2364 4242,2363 4242,2362 4241,2361 4241,2359 4240,2358 4240,2357 4239,2356 4239,2355 4238,2354 4238,2353 4237,2352 4237,2351 4234,2348 4233,2348 4230,2345 4229,2345 4227,2343 4226,2343 4224,2341 4222,2341 4221,2340 4220,2340 4215,2335 4215,2331 4214,2330 4214,2322 4215,2321 4215,2316 4216,2315 4216,2314 4215,2313 4215,2311 4213,2309 4213,2308 4205,2300 4205,2298 4204,2297 4204,2294 4203,2293 4203,2290 4202,2289 4202,2288 4200,2286 4199,2286 4193,2280 4193,2279 4192,2278 4192,2273 4193,2272 4193,2269 4194,2268 4194,2264 4193,2263 4193,2261 4192,2260 4192,2258 4191,2257 4191,2255 4190,2254 4190,2253 4189,2252 4189,2250 4188,2249 4188,2248 4185,2245 4185,2244 4184,2243 4184,2242 4181,2239 4180,2239 4179,2238 4168,2238 4167,2239 4158,2239 4157,2240 4154,2240 4153,2239 4149,2239 4148,2238" fill="rgba(34,205,80,0.3)" stroke="rgb(34,205,80)" stroke-width="2" data-block-id="0011" data-name="b-0031" /><text x="4206" y="2415" text-anchor="middle" dominant-baseline="middle" class="block-label" fill="rgb(34,205,80)" stroke="white" stroke-width="3" paint-order="stroke">b-0031</text><polygon points="3757,266 3756,267 3729,267 3728,268 3681,268 3680,269 3595,269 3594,268 3592,268 3591,269 3573,269 3572,268 3566,268 3565,269 3556,269 3555,268 3546,268 3545,267 3540,267 3539,268 3523,268 3522,269 3521,269 3520,270 3520,282 3521,283 3521,286 3522,287 3522,289 3523,290 3523,294 3524,295 3524,298 3525,299 3525,302 3526,303 3526,306 3527,307 3527,309 3528,310 3528,312 3529,313 3529,315 3530,316 3530,318 3531,319 3531,322 3532,323 3532,326 3533,327 3533,328 3534,329 3534,330 3535,331 3535,332 3537,334 3537,335 3538,336 3538,338 3539,339 3539,340 3540,341 3540,342 3541,343 3541,344 3542,345 3542,347 3543,348 3543,349 3544,350 3544,352 3545,353 3545,355 3546,356 3546,357 3547,358 3547,360 3548,361 3548,362 3550,364 3550,365 3551,366 3551,367 3552,368 3552,370 3553,371 3553,373 3554,374 3554,376 3555,377 3555,378 3556,379 3556,381 3557,382 3557,383 3558,384 3558,385 3559,386 3559,388 3560,389 3560,390 3561,391 3561,392 3562,393 3562,395 3563,396 3563,397 3564,398 3564,400 3565,401 3565,402 3566,403 3566,405 3567,406 3567,408 3568,409 3568,411 3569,412 3569,414 3570,415 3570,416 3571,417 3571,418 3572,419 3572,421 3573,422 3573,423 3574,424 3574,426 3575,427 3575,428 3576,429 3576,430 3577,431 3577,433 3578,434 3578,435 3579,436 3579,438 3580,439 3580,441 3581,442 3581,444 3582,445 3582,447 3583,448 3583,450 3584,451 3584,453 3585,454 3585,456 3586,457 3586,458 3587,459 3587,461 3588,462 3588,463 3589,464 3589,465 3590,466 3590,467 3591,468 3591,470 3592,471 3592,473 3593,474 3593,475 3594,476 3594,478 3595,479 3595,480 3596,481 3596,483 3597,484 3597,485 3598,486 3598,487 3599,488 3599,489 3600,490 3600,491 3601,492 3601,494 3602,495 3602,496 3603,497 3603,499 3604,500 3604,501 3605,502 3605,504 3606,505 3606,507 3607,508 3607,510 3608,511 3608,512 3609,513 3609,514 3610,515 3610,516 3611,517 3611,518 3612,519 3612,520 3613,521 3613,522 3614,523 3614,524 3615,525 3615,526 3616,527 3616,528 3617,529 3617,530 3618,531 3618,533 3619,534 3619,536 3620,537 3620,540 3621,541 3621,542 3622,543 3622,545 3623,546 3623,547 3624,548 3624,549 3625,550 3625,551 3626,552 3626,554 3627,555 3627,557 3628,558 3628,560 3629,561 3629,562 3630,563 3630,565 3631,566 3631,568 3632,569 3632,570 3633,571 3633,572 3634,573 3634,574 3635,575 3635,576 3636,577 3636,578 3637,579 3637,581 3638,582 3638,585 3639,586 3639,589 3640,590 3640,593 3641,594 3641,595 3642,596 3642,598 3643,599 3643,600 3644,601 3644,602 3645,603 3645,605 3646,606 3646,607 3647,608 3647,610 3648,611 3648,613 3649,614 3649,615 3650,616 3650,618 3651,619 3651,620 3652,621 3652,622 3655,625 3658,625 3659,626 3663,626 3664,627 3767,627 3768,626 3790,626 3791,625 3794,625 3796,623 3796,621 3797,620 3797,617 3798,616 3798,581 3797,580 3797,543 3796,542 3796,473 3797,472 3797,454 3798,453 3798,434 3797,433 3797,373 3796,372 3796,301 3795,300 3795,275 3794,274 3794,270 3792,268 3791,268 3790,267 3787,267 3786,266 3773,266 3772,267 3771,267 3770,266" fill="rgba(133,53,105,0.3)" stroke="rgb(133,53,105)" stroke-width="2" data-block-id="0012" data-name="b-0034" /><text x="3611" y="443" text-anchor="middle" dominant-baseline="middle" class="block-label" fill="rgb(133,53,105)" stroke="white" stroke-width="3" paint-order="stroke">b-0034</text><polygon points="3985,1775 3985,1776 3984,1777 3984,1778 3983,1779 3983,1781 3982,1782 3982,1801 3981,1802 3981,1810 3980,1811 3980,1841 3979,1842 3979,1853 3980,1854 3980,1904 3981,1905 3981,1909 3980,1910 3980,1923 3981,1924 3981,1968 3982,1969 3982,2020 3983,2021 3983,2047 3984,2048 3984,2054 3983,2055 3983,2064 3984,2065 3984,2077 3983,2078 3983,2080 3982,2081 3982,2082 3980,2084 3980,2090 3981,2091 3981,2095 3982,2096 3982,2101 3983,2102 3983,2109 3984,2110 3984,2113 3985,2114 3985,2116 3986,2117 3986,2118 3988,2120 3988,2121 3989,2122 3993,2122 3994,2123 4005,2123 4006,2124 4013,2124 4014,2123 4035,2123 4036,2122 4049,2122 4050,2123 4053,2123 4054,2124 4058,2124 4059,2125 4060,2125 4061,2124 4065,2124 4066,2123 4068,2123 4069,2122 4100,2122 4101,2123 4112,2123 4113,2122 4122,2122 4123,2121 4128,2121 4131,2118 4131,2117 4132,2116 4132,2106 4131,2105 4131,2102 4130,2101 4130,2100 4129,2099 4129,2097 4128,2096 4128,2095 4127,2094 4127,2092 4126,2091 4126,2090 4125,2089 4125,2087 4124,2086 4124,2085 4123,2084 4123,2083 4122,2082 4122,2081 4121,2080 4121,2079 4120,2078 4120,2076 4119,2075 4119,2073 4118,2072 4118,2071 4117,2070 4117,2069 4116,2068 4116,2067 4115,2066 4115,2065 4114,2064 4114,2063 4113,2062 4113,2061 4112,2060 4112,2058 4111,2057 4111,2055 4110,2054 4110,2051 4109,2050 4109,2048 4108,2047 4108,2046 4107,2045 4107,2044 4105,2042 4105,2041 4104,2040 4104,2039 4103,2038 4103,2036 4102,2035 4102,2033 4101,2032 4101,2030 4100,2029 4100,2027 4099,2026 4099,2024 4098,2023 4098,2021 4097,2020 4097,2018 4096,2017 4096,2014 4095,2013 4095,2012 4094,2011 4094,2010 4093,2009 4093,2008 4092,2007 4092,2006 4091,2005 4091,2004 4090,2003 4090,2001 4089,2000 4089,1998 4088,1997 4088,1995 4087,1994 4087,1993 4086,1992 4086,1991 4084,1989 4084,1988 4083,1987 4083,1986 4082,1985 4082,1984 4081,1983 4081,1982 4080,1981 4080,1979 4079,1978 4079,1977 4078,1976 4078,1975 4077,1974 4077,1973 4076,1972 4076,1971 4075,1970 4075,1969 4074,1968 4074,1966 4073,1965 4073,1964 4072,1963 4072,1961 4070,1959 4070,1958 4069,1957 4069,1955 4068,1954 4068,1953 4067,1952 4067,1951 4066,1950 4066,1949 4065,1948 4065,1947 4064,1946 4064,1945 4062,1943 4062,1941 4061,1940 4061,1939 4060,1938 4060,1936 4059,1935 4059,1933 4058,1932 4058,1929 4057,1928 4057,1926 4056,1925 4056,1923 4055,1922 4055,1920 4054,1919 4054,1917 4053,1916 4053,1915 4052,1914 4052,1913 4051,1912 4051,1910 4050,1909 4050,1908 4049,1907 4049,1905 4048,1904 4048,1903 4047,1902 4047,1901 4046,1900 4046,1899 4045,1898 4045,1896 4044,1895 4044,1894 4043,1893 4043,1892 4042,1891 4042,1890 4041,1889 4041,1888 4040,1887 4040,1885 4039,1884 4039,1882 4038,1881 4038,1879 4037,1878 4037,1876 4036,1875 4036,1874 4034,1872 4034,1871 4033,1870 4033,1869 4032,1868 4032,1866 4031,1865 4031,1864 4030,1863 4030,1861 4029,1860 4029,1859 4028,1858 4028,1857 4027,1856 4027,1855 4025,1853 4025,1851 4024,1850 4024,1849 4023,1848 4023,1847 4022,1846 4022,1845 4020,1843 4020,1842 4019,1841 4019,1840 4018,1839 4018,1838 4017,1837 4017,1835 4016,1834 4016,1832 4015,1831 4015,1829 4014,1828 4014,1827 4013,1826 4013,1824 4012,1823 4012,1822 4011,1821 4011,1820 4010,1819 4010,1818 4009,1817 4009,1816 4008,1815 4008,1814 4007,1813 4007,1812 4006,1811 4006,1809 4005,1808 4005,1807 4004,1806 4004,1804 4003,1803 4003,1802 4002,1801 4002,1800 4001,1799 4001,1798 4000,1797 4000,1796 3998,1794 3998,1793 3997,1792 3997,1791 3996,1790 3996,1789 3995,1788 3995,1787 3994,1786 3994,1785 3992,1783 3992,1782 3990,1780 3990,1779 3988,1777 3988,1776 3987,1776 3986,1775" fill="rgba(4,233,230,0.3)" stroke="rgb(4,233,230)" stroke-width="2" data-block-id="0013" data-name="b-0054" /><text x="4049" y="1960" text-anchor="middle" dominant-baseline="middle" class="block-label" fill="rgb(4,233,230)" stroke="white" stroke-width="3" paint-order="stroke">b-0054</text><polygon points="4345,2708 4294,2708 4293,2709 4272,2709 4271,2710 4243,2710 4242,2709 4220,2709 4219,2710 4211,2710 4210,2709 4178,2709 4177,2710 4166,2710 4165,2711 4163,2711 4162,2712 4161,2712 4159,2714 4159,2715 4158,2716 4158,2717 4156,2717 4155,2716 4154,2716 4152,2714 4151,2714 4150,2713 4149,2713 4148,2712 4146,2712 4145,2711 4130,2711 4129,2712 4086,2712 4085,2713 4010,2713 4009,2714 4001,2714 4000,2715 3999,2715 3998,2716 3997,2716 3995,2718 3995,2720 3994,2721 3994,2724 3993,2725 3993,2728 3992,2729 3992,2739 3991,2740 3991,2756 3992,2757 3992,2760 3993,2761 3993,2785 3994,2786 3994,2795 3993,2796 3993,2809 3994,2810 3994,2827 3993,2828 3993,2832 3992,2833 3992,2835 3991,2836 3991,2851 3992,2852 3992,2854 3993,2855 3993,2859 3994,2860 3994,2880 3995,2881 3995,2889 3994,2890 3994,2895 3993,2896 3993,2918 3992,2919 3992,2923 3993,2924 3993,2929 3994,2930 3994,2970 3993,2971 3994,2972 3994,2998 3995,2999 3995,3014 3994,3015 3994,3030 3995,3031 3995,3036 3996,3037 3996,3040 3997,3041 3997,3042 3998,3043 3999,3043 4000,3044 4001,3044 4002,3045 4006,3045 4007,3046 4044,3046 4045,3045 4048,3045 4049,3046 4089,3046 4090,3045 4098,3045 4099,3046 4115,3046 4116,3045 4123,3045 4124,3046 4134,3046 4135,3045 4171,3045 4172,3044 4187,3044 4188,3045 4191,3045 4192,3044 4206,3044 4207,3045 4224,3045 4225,3044 4246,3044 4247,3043 4249,3043 4250,3044 4253,3044 4254,3045 4259,3045 4260,3046 4264,3046 4265,3045 4274,3045 4275,3044 4322,3044 4323,3043 4333,3043 4334,3042 4348,3042 4349,3043 4361,3043 4362,3042 4374,3042 4375,3041 4393,3041 4394,3042 4407,3042 4408,3041 4481,3041 4482,3040 4489,3040 4490,3039 4492,3039 4496,3035 4496,3033 4497,3032 4497,3027 4496,3026 4496,3024 4495,3023 4495,3020 4494,3019 4494,3017 4493,3016 4493,3014 4492,3013 4492,3010 4491,3009 4491,3007 4490,3006 4490,3004 4489,3003 4489,3001 4488,3000 4488,2998 4487,2997 4487,2995 4486,2994 4486,2992 4485,2991 4485,2989 4484,2988 4484,2986 4483,2985 4483,2983 4482,2982 4482,2980 4481,2979 4481,2977 4480,2976 4480,2974 4479,2973 4479,2971 4478,2970 4478,2969 4477,2968 4477,2966 4476,2965 4476,2964 4475,2963 4475,2962 4474,2961 4474,2959 4473,2958 4473,2956 4472,2955 4472,2953 4471,2952 4471,2950 4470,2949 4470,2947 4469,2946 4469,2943 4468,2942 4468,2940 4467,2939 4467,2937 4466,2936 4466,2934 4465,2933 4465,2931 4464,2930 4464,2928 4463,2927 4463,2926 4462,2925 4462,2922 4461,2921 4461,2919 4460,2918 4460,2917 4459,2916 4459,2914 4458,2913 4458,2912 4457,2911 4457,2910 4456,2909 4456,2908 4455,2907 4455,2905 4454,2904 4454,2902 4453,2901 4453,2899 4452,2898 4452,2896 4451,2895 4451,2893 4450,2892 4450,2890 4449,2889 4449,2887 4448,2886 4448,2885 4447,2884 4447,2882 4446,2881 4446,2880 4445,2879 4445,2878 4444,2877 4444,2875 4443,2874 4443,2873 4442,2872 4442,2869 4441,2868 4441,2867 4440,2866 4440,2863 4439,2862 4439,2860 4438,2859 4438,2857 4437,2856 4437,2853 4436,2852 4436,2850 4435,2849 4435,2847 4434,2846 4434,2844 4433,2843 4433,2841 4432,2840 4432,2838 4431,2837 4431,2835 4430,2834 4430,2833 4429,2832 4429,2830 4428,2829 4428,2828 4427,2827 4427,2826 4426,2825 4426,2823 4425,2822 4425,2820 4424,2819 4424,2816 4423,2815 4423,2812 4422,2811 4422,2808 4421,2807 4421,2805 4420,2804 4420,2803 4419,2802 4419,2800 4418,2799 4418,2798 4417,2797 4417,2796 4416,2795 4416,2794 4413,2791 4412,2791 4409,2788 4408,2788 4406,2786 4405,2786 4404,2785 4401,2785 4402,2784 4402,2783 4403,2782 4403,2781 4404,2780 4404,2777 4405,2776 4404,2775 4404,2771 4403,2770 4403,2769 4402,2768 4402,2767 4401,2766 4401,2764 4400,2763 4400,2762 4399,2761 4399,2760 4398,2759 4398,2757 4397,2756 4397,2755 4396,2754 4396,2752 4395,2751 4395,2749 4394,2748 4394,2747 4393,2746 4393,2744 4392,2743 4392,2741 4391,2740 4391,2738 4390,2737 4390,2735 4389,2734 4389,2729 4388,2728 4388,2722 4387,2721 4387,2717 4386,2716 4386,2715 4385,2714 4385,2713 4384,2712 4383,2712 4382,2711 4381,2711 4380,2710 4379,2710 4378,2709 4376,2709 4375,2708 4368,2708 4367,2707 4346,2707" fill="rgba(83,91,110,0.3)" stroke="rgb(83,91,110)" stroke-width="2" data-block-id="0014" /><text x="4309" y="2876" text-anchor="middle" dominant-baseline="middle" class="block-label" fill="rgb(83,91,110)" stroke="white" stroke-width="3" paint-order="stroke">b-0014</text><polygon points="3816,731 3820,1023 3653,739 3742,712" fill="rgba(102,179,92,0.3)" stroke="rgb(102,179,92)" stroke-width="2" data-block-id="0015" data-name="b-0017" /><text x="3757" y="801" text-anchor="middle" dominant-baseline="middle" class="block-label" fill="rgb(102,179,92)" stroke="white" stroke-width="3" paint-order="stroke">b-0017</text><polygon points="2105,237 3381,241 3540,638 2112,634" fill="rgba(102,179,92,0.3)" stroke="rgb(102,179,92)" stroke-width="2" data-block-id="0016" data-name="b-0016" /><text x="2784" y="437" text-anchor="middle" dominant-baseline="middle" class="block-label" fill="rgb(102,179,92)" stroke="white" stroke-width="3" paint-order="stroke">b-0016</text><polygon points="3824,2147 3832,1743 2112,1758 2112,2163" fill="rgba(102,179,92,0.3)" stroke="rgb(102,179,92)" stroke-width="2" data-block-id="0017" data-name="b-0017" /><text x="2970" y="1952" text-anchor="middle" dominant-baseline="middle" class="block-label" fill="rgb(102,179,92)" stroke="white" stroke-width="3" paint-order="stroke">b-0017</text></g>
</svg>