<?xml version='1.0' encoding='utf-8'?>
<svg xmlns="http://www.w3.org/2000/svg" xmlns:atlas="http://example.com/atlas" width="4912" height="3256" viewBox="0 0 4912 3256">
  
  <metadata>
    <atlas:source>
      <atlas:jp2-path>/Users/pwright/workspace/atlas/media/v2/p20.jp2</atlas:jp2-path>
      <atlas:volume>unknown</atlas:volume>
      <atlas:plate-id>p20</atlas:plate-id>
      <atlas:image-width>4912</atlas:image-width>
      <atlas:image-height>3256</atlas:image-height>
    </atlas:source>
  </metadata>

  
  <image id="background" href="file:///Users/pwright/workspace/atlas/media/v2/p20.jp2" width="4912" height="3256" opacity="0.5" />

  <style>
    .block-label { font-family: sans-serif; font-size: 14px; font-weight: bold; }
  </style>

  
  <g id="blocks">
    <polygon points="3789,2201 3788,2202 3786,2202 3785,2203 3783,2203 3782,2204 3781,2204 3780,2205 3779,2205 3778,2206 3775,2206 3774,2205 3773,2205 3772,2204 3770,2204 3769,2203 3767,2203 3766,2202 3764,2202 3763,2203 3761,2203 3760,2204 3759,2204 3758,2205 3757,2205 3756,2206 3755,2206 3754,2207 3747,2207 3746,2206 3741,2206 3740,2207 3739,2207 3738,2208 3737,2208 3735,2210 3734,2210 3731,2213 3730,2213 3729,2214 3722,2214 3721,2215 3717,2215 3715,2217 3714,2217 3712,2219 3711,2219 3710,2220 3708,2220 3707,2221 3703,2221 3702,2220 3698,2220 3697,2219 3689,2219 3688,2220 3673,2220 3672,2219 3670,2219 3669,2220 3642,2220 3641,2221 3620,2221 3619,2222 3613,2222 3612,2223 3594,2223 3593,2224 3580,2224 3579,2223 3524,2223 3523,2224 3487,2224 3486,2223 3480,2223 3479,2224 3472,2224 3471,2225 3446,2225 3445,2224 3419,2224 3418,2225 3397,2225 3396,2224 3350,2224 3349,2223 3338,2223 3337,2224 3332,2224 3331,2225 3320,2225 3319,2224 3307,2224 3306,2223 3290,2223 3289,2224 3260,2224 3259,2223 3245,2223 3244,2224 3229,2224 3228,2223 3222,2223 3221,2222 3218,2222 3217,2221 3215,2221 3214,2220 3208,2220 3207,2219 3198,2219 3197,2218 3194,2218 3193,2217 3191,2217 3190,2216 3181,2216 3180,2215 3168,2215 3167,2214 3122,2214 3121,2215 3093,2215 3092,2216 3078,2216 3077,2217 3072,2217 3071,2218 3063,2218 3062,2219 3059,2219 3058,2220 3057,2220 3056,2221 3055,2221 3054,2222 3053,2222 3052,2223 3051,2223 3050,2224 3048,2224 3047,2225 3041,2225 3040,2224 3035,2224 3034,2225 3030,2225 3029,2226 3024,2226 3023,2227 3022,2227 3021,2226 2982,2226 2981,2227 2967,2227 2966,2226 2963,2226 2962,2227 2921,2227 2920,2226 2915,2226 2914,2227 2898,2227 2897,2226 2891,2226 2890,2227 2841,2227 2840,2228 2830,2228 2829,2227 2817,2227 2816,2228 2808,2228 2807,2227 2795,2227 2794,2228 2784,2228 2783,2227 2732,2227 2731,2226 2728,2226 2727,2227 2710,2227 2709,2226 2703,2226 2702,2227 2690,2227 2689,2226 2645,2226 2644,2225 2613,2225 2612,2224 2599,2224 2598,2223 2583,2223 2582,2224 2577,2224 2576,2225 2566,2225 2565,2224 2559,2224 2558,2223 2553,2223 2552,2222 2539,2222 2538,2223 2533,2223 2532,2224 2527,2224 2526,2223 2519,2223 2518,2222 2512,2222 2511,2221 2488,2221 2487,2222 2482,2222 2481,2223 2479,2223 2478,2224 2476,2224 2475,2225 2473,2225 2472,2226 2471,2226 2468,2229 2467,2229 2464,2232 2464,2233 2463,2234 2463,2235 2462,2236 2462,2237 2461,2238 2461,2240 2460,2241 2460,2247 2461,2248 2461,2251 2462,2252 2462,2262 2461,2263 2461,2268 2462,2269 2462,2271 2463,2272 2463,2275 2464,2276 2464,2281 2465,2282 2465,2288 2466,2289 2466,2295 2467,2296 2467,2309 2468,2310 2468,2330 2467,2331 2467,2356 2468,2357 2468,2383 2467,2384 2467,2387 2468,2388 2468,2435 2467,2436 2467,2444 2468,2445 2468,2476 2467,2477 2467,2495 2468,2496 2468,2535 2469,2536 2469,2538 2468,2539 2468,2547 2467,2548 2467,2557 2466,2558 2466,2560 2465,2561 2465,2562 2464,2563 2464,2564 2462,2566 2462,2567 2461,2568 2461,2569 2459,2571 2459,2572 2458,2573 2458,2575 2457,2576 2457,2578 2456,2579 2456,2581 2455,2582 2455,2585 2454,2586 2454,2603 2455,2604 2455,2613 2454,2614 2454,2623 2455,2624 2455,2626 2456,2627 2456,2630 2457,2631 2457,2638 2456,2639 2456,2642 2457,2643 2457,2644 2458,2645 2458,2646 2464,2652 2464,2653 2465,2654 2465,2655 2466,2656 2466,2659 2465,2660 2465,2685 2466,2686 2466,2711 2465,2712 2465,2715 2466,2716 2466,2761 2465,2762 2465,2764 2466,2765 2466,2790 2465,2791 2465,2892 2464,2893 2464,2906 2463,2907 2463,2910 2462,2911 2462,2914 2461,2915 2461,2917 2460,2918 2460,2919 2459,2920 2459,2921 2458,2922 2458,2924 2457,2925 2457,2930 2458,2931 2458,2936 2459,2937 2459,2939 2458,2940 2458,2944 2457,2945 2457,2950 2456,2951 2456,2974 2457,2975 2457,2976 2458,2977 2458,2978 2460,2980 2460,2981 2466,2987 2466,2988 2470,2992 2471,2992 2472,2993 2476,2993 2477,2994 2487,2994 2488,2995 2496,2995 2497,2994 2499,2994 2500,2993 2502,2993 2503,2992 2505,2992 2506,2991 2507,2991 2508,2990 2509,2990 2510,2989 2512,2989 2513,2988 2514,2988 2515,2987 2516,2987 2517,2986 2518,2986 2519,2985 2522,2985 2523,2984 2526,2984 2527,2983 2531,2983 2532,2982 2534,2982 2535,2981 2537,2981 2538,2980 2540,2980 2541,2979 2549,2979 2550,2978 2556,2978 2557,2977 2561,2977 2562,2976 2572,2976 2573,2977 2581,2977 2582,2976 2592,2976 2593,2977 2597,2977 2598,2978 2603,2978 2604,2977 2609,2977 2610,2976 2620,2976 2621,2977 2645,2977 2646,2978 2650,2978 2651,2977 2664,2977 2665,2978 2693,2978 2694,2979 2704,2979 2705,2980 2768,2980 2769,2981 2801,2981 2802,2980 2815,2980 2816,2981 2890,2981 2891,2980 2917,2980 2918,2981 2928,2981 2929,2982 2950,2982 2951,2981 2954,2981 2955,2982 2963,2982 2964,2983 2968,2983 2969,2982 2998,2982 2999,2981 3000,2982 3007,2982 3008,2983 3047,2983 3048,2984 3055,2984 3056,2985 3063,2985 3064,2986 3069,2986 3070,2987 3072,2987 3073,2988 3074,2988 3075,2989 3076,2989 3077,2990 3079,2990 3080,2991 3097,2991 3098,2992 3102,2992 3103,2993 3150,2993 3151,2994 3154,2994 3155,2993 3164,2993 3165,2992 3169,2992 3170,2991 3172,2991 3173,2990 3175,2990 3176,2989 3197,2989 3198,2990 3199,2989 3203,2989 3204,2988 3206,2988 3207,2987 3209,2987 3210,2986 3213,2986 3214,2985 3216,2985 3217,2984 3219,2984 3220,2983 3223,2983 3224,2982 3245,2982 3246,2983 3252,2983 3253,2982 3262,2982 3263,2981 3267,2981 3268,2980 3288,2980 3289,2981 3310,2981 3311,2980 3317,2980 3318,2979 3324,2979 3325,2980 3337,2980 3338,2981 3363,2981 3364,2980 3371,2980 3372,2981 3386,2981 3387,2982 3392,2982 3393,2981 3430,2981 3431,2982 3449,2982 3450,2981 3466,2981 3467,2980 3470,2980 3471,2981 3501,2981 3502,2980 3521,2980 3522,2981 3526,2981 3527,2982 3536,2982 3537,2981 3555,2981 3556,2980 3568,2980 3569,2981 3590,2981 3591,2980 3616,2980 3617,2981 3634,2981 3635,2980 3667,2980 3668,2979 3699,2979 3700,2980 3712,2980 3713,2981 3720,2981 3721,2982 3729,2982 3730,2983 3732,2983 3733,2984 3734,2984 3735,2985 3736,2985 3737,2986 3738,2986 3739,2987 3742,2987 3743,2988 3780,2988 3781,2989 3785,2989 3786,2990 3795,2990 3796,2989 3802,2989 3803,2988 3805,2988 3806,2987 3808,2987 3809,2986 3810,2986 3811,2985 3812,2985 3814,2983 3815,2983 3821,2977 3821,2976 3822,2975 3822,2974 3823,2973 3823,2972 3824,2971 3824,2968 3825,2967 3825,2959 3826,2958 3826,2931 3825,2930 3825,2913 3824,2912 3824,2911 3822,2909 3822,2908 3821,2907 3821,2906 3820,2905 3820,2904 3819,2903 3819,2899 3818,2898 3818,2889 3817,2888 3817,2882 3816,2881 3816,2776 3817,2775 3817,2771 3816,2770 3816,2759 3815,2758 3815,2728 3814,2727 3814,2709 3813,2708 3813,2699 3812,2698 3812,2693 3811,2692 3811,2686 3810,2685 3810,2678 3811,2677 3811,2676 3812,2675 3812,2674 3813,2673 3813,2672 3814,2671 3814,2668 3815,2667 3815,2661 3816,2660 3816,2655 3817,2654 3817,2651 3818,2650 3818,2648 3819,2647 3819,2645 3820,2644 3820,2642 3821,2641 3821,2640 3822,2639 3822,2637 3823,2636 3823,2634 3824,2633 3824,2612 3825,2611 3825,2607 3824,2606 3824,2602 3823,2601 3823,2590 3824,2589 3824,2572 3823,2571 3823,2566 3822,2565 3822,2562 3821,2561 3821,2560 3820,2559 3820,2558 3819,2557 3819,2556 3818,2555 3818,2553 3817,2552 3817,2550 3816,2549 3816,2536 3815,2535 3815,2534 3814,2533 3814,2531 3813,2530 3813,2529 3812,2528 3812,2526 3811,2525 3811,2519 3810,2518 3810,2496 3809,2495 3809,2477 3808,2476 3808,2464 3809,2463 3809,2460 3810,2459 3810,2455 3811,2454 3811,2443 3810,2442 3810,2438 3809,2437 3809,2435 3808,2434 3808,2428 3809,2427 3809,2425 3810,2424 3810,2423 3811,2422 3811,2410 3810,2409 3810,2400 3809,2399 3809,2395 3810,2394 3810,2391 3811,2390 3811,2352 3810,2351 3810,2331 3809,2330 3809,2323 3810,2322 3810,2298 3811,2297 3811,2288 3812,2287 3812,2264 3813,2263 3813,2258 3814,2257 3814,2255 3815,2254 3815,2252 3816,2251 3816,2249 3817,2248 3817,2235 3816,2234 3816,2230 3815,2229 3815,2227 3814,2226 3814,2225 3813,2224 3813,2222 3812,2221 3812,2220 3811,2219 3811,2218 3810,2217 3810,2216 3809,2215 3809,2214 3808,2213 3808,2212 3807,2211 3807,2210 3800,2203 3799,2203 3798,2202 3793,2202 3792,2201" fill="rgba(121,210,214,0.3)" stroke="rgb(121,210,214)" stroke-width="2" data-block-id="0001" data-name="b-0005" /><text x="3178" y="2592" text-anchor="middle" dominant-baseline="middle" class="block-label" fill="rgb(121,210,214)" stroke="white" stroke-width="3" paint-order="stroke">b-0005</text><polygon points="2079,2180 2078,2181 2076,2181 2075,2182 2072,2182 2071,2183 2068,2183 2067,2184 2060,2184 2059,2185 2043,2185 2042,2184 2035,2184 2034,2183 2002,2183 2001,2184 1994,2184 1993,2185 1969,2185 1968,2184 1963,2184 1962,2185 1917,2185 1916,2186 1904,2186 1903,2185 1880,2185 1879,2186 1859,2186 1858,2185 1837,2185 1836,2186 1832,2186 1831,2185 1817,2185 1816,2184 1741,2184 1740,2183 1717,2183 1716,2184 1687,2184 1686,2185 1665,2185 1664,2184 1586,2184 1585,2183 1573,2183 1572,2184 1561,2184 1560,2183 1544,2183 1543,2184 1540,2184 1539,2185 1538,2185 1537,2186 1536,2186 1533,2189 1532,2189 1532,2190 1530,2192 1530,2193 1529,2194 1529,2197 1528,2198 1528,2201 1529,2202 1529,2215 1530,2216 1530,2219 1531,2220 1531,2222 1532,2223 1532,2226 1533,2227 1533,2229 1534,2230 1534,2239 1533,2240 1533,2242 1532,2243 1532,2245 1531,2246 1531,2248 1530,2249 1530,2252 1529,2253 1529,2255 1528,2256 1528,2258 1527,2259 1527,2261 1526,2262 1526,2264 1525,2265 1525,2267 1524,2268 1524,2278 1525,2279 1525,2283 1526,2284 1526,2288 1527,2289 1527,2304 1526,2305 1526,2310 1527,2311 1527,2316 1528,2317 1528,2320 1529,2321 1529,2325 1530,2326 1530,2355 1531,2356 1531,2376 1530,2377 1530,2399 1531,2400 1531,2490 1530,2491 1530,2512 1531,2513 1531,2583 1532,2584 1532,2615 1531,2616 1531,2628 1532,2629 1532,2639 1531,2640 1531,2689 1530,2690 1530,2710 1531,2711 1530,2712 1530,2762 1531,2763 1531,2806 1532,2807 1532,2848 1531,2849 1531,2856 1530,2857 1530,2862 1529,2863 1529,2870 1528,2871 1528,2877 1527,2878 1527,2883 1526,2884 1526,2885 1527,2886 1527,2893 1528,2894 1528,2898 1529,2899 1529,2910 1528,2911 1528,2915 1527,2916 1527,2918 1526,2919 1526,2923 1525,2924 1525,2930 1526,2931 1526,2939 1527,2940 1527,2946 1526,2947 1526,2952 1525,2953 1525,2958 1524,2959 1524,2962 1523,2963 1523,2968 1522,2969 1522,2978 1521,2979 1521,2992 1520,2993 1520,3018 1521,3019 1521,3022 1522,3023 1522,3024 1523,3025 1523,3026 1525,3028 1526,3028 1527,3029 1533,3029 1534,3030 1570,3030 1571,3029 1578,3029 1579,3028 1585,3028 1586,3029 1590,3029 1591,3030 1598,3030 1599,3031 1612,3031 1613,3030 1625,3030 1626,3031 1655,3031 1656,3030 1668,3030 1669,3031 1706,3031 1707,3032 1729,3032 1730,3031 1751,3031 1752,3032 1757,3032 1758,3031 1783,3031 1784,3032 1802,3032 1803,3031 1846,3031 1847,3030 1854,3030 1855,3031 1867,3031 1868,3032 1869,3031 1882,3031 1883,3030 1924,3030 1925,3029 1930,3029 1931,3030 1961,3030 1962,3029 1997,3029 1998,3028 2009,3028 2010,3029 2018,3029 2019,3030 2033,3030 2034,3029 2049,3029 2050,3030 2058,3030 2059,3031 2088,3031 2089,3030 2094,3030 2095,3029 2108,3029 2109,3030 2116,3030 2117,3031 2124,3031 2125,3030 2137,3030 2138,3029 2146,3029 2147,3028 2154,3028 2155,3027 2184,3027 2185,3028 2223,3028 2224,3027 2233,3027 2234,3026 2236,3026 2240,3022 2240,3021 2241,3020 2241,3015 2242,3014 2242,2994 2243,2993 2243,2970 2242,2969 2242,2953 2243,2952 2243,2941 2242,2940 2242,2935 2241,2934 2241,2928 2240,2927 2240,2922 2241,2921 2241,2913 2242,2912 2242,2895 2243,2894 2243,2875 2244,2874 2244,2861 2243,2860 2243,2815 2242,2814 2242,2809 2243,2808 2243,2798 2244,2797 2244,2784 2243,2783 2243,2727 2244,2726 2244,2706 2243,2705 2243,2652 2244,2651 2244,2628 2243,2627 2243,2576 2244,2575 2244,2565 2245,2564 2245,2555 2244,2554 2244,2469 2243,2468 2243,2460 2244,2459 2244,2411 2245,2410 2245,2402 2244,2401 2244,2376 2245,2375 2245,2329 2246,2328 2246,2306 2245,2305 2245,2298 2244,2297 2244,2223 2243,2222 2243,2200 2244,2199 2244,2198 2243,2197 2243,2193 2242,2192 2242,2191 2241,2190 2241,2189 2236,2184 2234,2184 2233,2183 2222,2183 2221,2184 2214,2184 2213,2183 2145,2183 2144,2182 2128,2182 2127,2181 2116,2181 2115,2182 2110,2182 2109,2183 2105,2183 2104,2184 2097,2184 2096,2183 2093,2183 2092,2182 2089,2182 2088,2181 2085,2181 2084,2180" fill="rgba(74,202,87,0.3)" stroke="rgb(74,202,87)" stroke-width="2" data-block-id="0002" data-name="b-0006" /><text x="1838" y="2607" text-anchor="middle" dominant-baseline="middle" class="block-label" fill="rgb(74,202,87)" stroke="white" stroke-width="3" paint-order="stroke">b-0006</text><polygon points="868,687 867,688 834,688 833,689 780,689 779,690 777,690 776,691 774,691 773,692 772,692 771,693 770,693 765,698 765,699 764,700 764,729 765,730 765,742 764,743 764,751 765,752 765,760 764,761 764,773 765,774 765,778 766,779 766,786 765,787 765,798 766,799 766,803 767,804 767,806 766,807 766,812 765,813 765,820 766,821 766,825 767,826 767,831 766,832 766,836 765,837 765,880 764,881 764,916 765,917 765,930 764,931 764,1000 763,1001 763,1011 764,1012 764,1020 763,1021 763,1042 764,1043 764,1045 765,1046 765,1047 766,1048 766,1050 768,1052 768,1053 769,1053 770,1054 774,1054 775,1055 782,1055 783,1056 788,1056 789,1057 807,1057 808,1058 814,1058 815,1059 819,1059 820,1058 824,1058 825,1057 847,1057 848,1056 852,1056 853,1055 865,1055 866,1056 869,1056 870,1057 873,1057 874,1058 893,1058 894,1057 918,1057 919,1056 927,1056 928,1057 939,1057 940,1056 943,1056 944,1055 945,1055 946,1054 949,1054 950,1055 952,1055 953,1056 956,1056 957,1057 977,1057 978,1058 983,1058 984,1057 988,1057 989,1056 998,1056 999,1057 1080,1057 1081,1058 1203,1058 1204,1059 1223,1059 1224,1058 1255,1058 1256,1059 1282,1059 1283,1058 1338,1058 1339,1057 1353,1057 1354,1056 1373,1056 1374,1057 1386,1057 1387,1056 1403,1056 1404,1055 1413,1055 1414,1054 1419,1054 1420,1055 1433,1055 1434,1056 1453,1056 1454,1057 1474,1057 1475,1056 1476,1057 1484,1057 1485,1058 1493,1058 1494,1057 1506,1057 1507,1056 1527,1056 1528,1057 1542,1057 1543,1056 1579,1056 1580,1057 1586,1057 1587,1056 1616,1056 1617,1057 1662,1057 1663,1058 1681,1058 1682,1057 1685,1057 1686,1056 1690,1056 1691,1057 1695,1057 1696,1058 1705,1058 1706,1059 1777,1059 1778,1058 1787,1058 1788,1059 1802,1059 1803,1058 1808,1058 1809,1059 1822,1059 1823,1058 1856,1058 1857,1059 1871,1059 1872,1058 1884,1058 1885,1059 1893,1059 1894,1058 1904,1058 1905,1059 1928,1059 1929,1058 1956,1058 1957,1059 1962,1059 1963,1058 2022,1058 2023,1057 2031,1057 2032,1056 2044,1056 2045,1057 2087,1057 2088,1058 2098,1058 2099,1059 2101,1059 2102,1058 2159,1058 2160,1057 2161,1058 2173,1058 2174,1057 2191,1057 2192,1058 2197,1058 2198,1057 2211,1057 2212,1056 2227,1056 2228,1055 2230,1055 2231,1054 2232,1054 2236,1050 2236,1043 2237,1042 2237,1023 2236,1022 2236,1014 2237,1013 2237,1008 2238,1007 2238,1001 2237,1000 2237,973 2238,972 2238,955 2237,954 2237,950 2236,949 2236,943 2237,942 2237,938 2238,937 2238,898 2239,897 2239,893 2240,892 2240,874 2241,873 2241,871 2242,870 2242,868 2243,867 2243,864 2244,863 2244,862 2243,861 2243,822 2244,821 2244,811 2243,810 2243,794 2242,793 2242,778 2243,777 2243,759 2242,758 2242,749 2243,748 2243,747 2242,746 2242,724 2241,723 2241,712 2240,711 2240,708 2239,707 2239,705 2238,704 2238,702 2237,701 2237,700 2234,697 2233,697 2232,696 2222,696 2221,695 2219,695 2218,696 2215,696 2214,697 2212,697 2211,698 2210,698 2209,699 2208,699 2207,700 2194,700 2193,699 2174,699 2173,698 2165,698 2164,697 2158,697 2157,696 2153,696 2152,695 2138,695 2137,696 2133,696 2132,695 2126,695 2125,694 2120,694 2119,695 2106,695 2105,694 2094,694 2093,695 2027,695 2026,696 2024,696 2023,697 2022,697 2021,698 2019,698 2018,699 2015,699 2014,698 2011,698 2010,697 2007,697 2006,696 1955,696 1954,695 1930,695 1929,696 1925,696 1924,697 1921,697 1920,696 1915,696 1914,695 1888,695 1887,696 1882,696 1881,697 1878,697 1877,698 1872,698 1871,697 1855,697 1854,696 1852,696 1851,697 1835,697 1834,698 1827,698 1826,697 1820,697 1819,696 1795,696 1794,697 1788,697 1787,698 1781,698 1780,697 1779,697 1778,696 1777,696 1776,695 1775,695 1774,694 1771,694 1770,693 1767,693 1766,694 1724,694 1723,693 1708,693 1707,692 1681,692 1680,691 1674,691 1673,692 1653,692 1652,691 1649,691 1648,692 1639,692 1638,691 1632,691 1631,690 1627,690 1626,691 1599,691 1598,692 1590,692 1589,691 1584,691 1583,690 1582,690 1581,691 1577,691 1576,692 1571,692 1570,693 1568,693 1567,692 1556,692 1555,693 1552,693 1551,694 1549,694 1548,695 1547,694 1544,694 1543,693 1541,693 1540,692 1538,692 1537,691 1505,691 1504,692 1494,692 1493,691 1461,691 1460,692 1418,692 1417,691 1384,691 1383,690 1362,690 1361,691 1356,691 1355,690 1339,690 1338,689 1334,689 1333,690 1320,690 1319,691 1306,691 1305,690 1290,690 1289,691 1284,691 1283,690 1270,690 1269,689 1263,689 1262,688 1255,688 1254,687 1250,687 1249,688 1229,688 1228,689 1222,689 1221,690 1213,690 1212,689 1208,689 1207,688 1199,688 1198,689 1186,689 1185,688 1181,688 1180,689 1173,689 1172,690 1169,690 1168,689 1162,689 1161,688 1153,688 1152,689 1131,689 1130,690 1115,690 1114,689 1105,689 1104,690 1093,690 1092,691 1071,691 1070,690 1046,690 1045,691 1022,691 1021,692 1014,692 1013,691 1001,691 1000,692 996,692 995,693 994,693 993,692 989,692 988,691 985,691 984,690 975,690 974,691 969,691 968,690 964,690 963,689 956,689 955,690 953,690 952,691 950,691 949,692 945,692 944,691 943,691 942,690 939,690 938,689 930,689 929,688 913,688 912,689 885,689 884,688 880,688 879,687" fill="rgba(52,1,87,0.3)" stroke="rgb(52,1,87)" stroke-width="2" data-block-id="0003" data-name="b-0009" /><text x="1504" y="840" text-anchor="middle" dominant-baseline="middle" class="block-label" fill="rgb(52,1,87)" stroke="white" stroke-width="3" paint-order="stroke">b-0009</text><polygon points="884,210 883,211 881,211 880,212 877,212 876,213 873,213 872,212 857,212 856,213 848,213 847,212 833,212 832,213 829,213 828,212 824,212 823,211 810,211 809,212 783,212 782,213 778,213 777,214 774,214 773,215 771,215 770,216 769,216 768,217 768,218 767,219 767,220 766,221 766,223 765,224 765,227 764,228 764,233 763,234 763,246 762,247 762,253 763,254 763,261 764,262 764,268 763,269 763,283 762,284 762,299 761,300 761,332 762,333 762,334 761,335 761,341 760,342 760,365 759,366 759,372 760,373 760,378 761,379 761,393 762,394 762,397 763,398 763,400 764,401 764,404 765,405 765,411 764,412 764,420 765,421 765,436 764,437 764,447 763,448 763,456 762,457 762,461 761,462 761,478 762,479 762,485 763,486 763,559 764,560 764,562 765,563 765,565 766,566 766,567 767,568 767,569 769,571 770,571 771,572 773,572 774,573 777,573 778,574 785,574 786,575 806,575 807,576 832,576 833,577 838,577 839,578 842,578 843,577 846,577 847,576 849,576 850,575 887,575 888,576 898,576 899,575 908,575 909,574 924,574 925,575 930,575 931,576 937,576 938,575 939,575 940,574 941,574 942,573 943,573 945,571 949,571 950,572 952,572 953,573 956,573 957,574 967,574 968,573 975,573 976,574 985,574 986,573 995,573 996,574 1003,574 1004,575 1015,575 1016,576 1046,576 1047,575 1049,575 1050,574 1054,574 1055,575 1056,575 1057,576 1058,576 1059,577 1062,577 1063,578 1067,578 1068,579 1072,579 1073,580 1092,580 1093,581 1097,581 1098,582 1099,582 1100,581 1103,581 1104,580 1105,580 1106,579 1108,579 1109,578 1125,578 1126,577 1129,577 1130,576 1132,576 1133,575 1156,575 1157,576 1163,576 1164,575 1195,575 1196,576 1214,576 1215,575 1218,575 1219,576 1223,576 1224,577 1227,577 1228,578 1233,578 1234,579 1240,579 1241,580 1264,580 1265,579 1271,579 1272,578 1280,578 1281,579 1291,579 1292,580 1315,580 1316,581 1327,581 1328,580 1332,580 1333,579 1339,579 1340,580 1369,580 1370,579 1374,579 1375,578 1379,578 1380,577 1383,577 1384,578 1386,578 1387,579 1391,579 1392,580 1396,580 1397,579 1401,579 1402,578 1434,578 1435,579 1444,579 1445,578 1448,578 1449,577 1457,577 1458,578 1461,578 1462,579 1533,579 1534,580 1542,580 1543,579 1575,579 1576,580 1599,580 1600,579 1621,579 1622,580 1635,580 1636,579 1646,579 1647,580 1660,580 1661,579 1666,579 1667,580 1669,580 1670,581 1673,581 1674,582 1678,582 1679,581 1681,581 1682,580 1684,580 1685,579 1686,579 1687,578 1689,578 1690,579 1693,579 1694,580 1700,580 1701,581 1702,580 1714,580 1715,581 1718,581 1719,582 1726,582 1727,581 1729,581 1730,580 1731,580 1732,579 1734,579 1735,578 1738,578 1739,579 1744,579 1745,580 1755,580 1756,579 1762,579 1763,580 1770,580 1771,579 1773,579 1774,578 1777,578 1778,577 1812,577 1813,578 1841,578 1842,577 1857,577 1858,578 1872,578 1873,577 1879,577 1880,578 1893,578 1894,577 1901,577 1902,578 1903,578 1904,579 1905,579 1906,580 1908,580 1909,581 1918,581 1919,580 1924,580 1925,579 1929,579 1930,578 1932,578 1933,577 1938,577 1939,576 1948,576 1949,577 1955,577 1956,578 1973,578 1974,579 1981,579 1982,580 1986,580 1987,581 1990,581 1991,582 2020,582 2021,581 2024,581 2025,580 2029,580 2030,579 2035,579 2036,580 2046,580 2047,581 2058,581 2059,580 2079,580 2080,579 2090,579 2091,580 2093,580 2094,581 2097,581 2098,582 2104,582 2105,583 2117,583 2118,582 2143,582 2144,583 2209,583 2210,582 2216,582 2217,581 2230,581 2231,580 2235,580 2236,579 2238,579 2242,575 2242,573 2243,572 2243,554 2242,553 2242,544 2243,543 2243,541 2244,540 2244,537 2245,536 2245,532 2244,531 2244,526 2243,525 2243,516 2242,515 2242,502 2241,501 2241,500 2242,499 2242,495 2243,494 2243,490 2244,489 2244,485 2243,484 2243,460 2242,459 2242,449 2243,448 2243,444 2244,443 2244,426 2243,425 2243,419 2242,418 2242,411 2241,410 2241,404 2242,403 2242,401 2243,400 2243,398 2244,397 2244,386 2243,385 2243,377 2242,376 2242,368 2241,367 2241,362 2240,361 2240,358 2241,357 2241,356 2243,354 2243,353 2248,348 2248,346 2249,345 2249,341 2248,340 2248,335 2247,334 2247,332 2246,331 2246,330 2245,329 2245,327 2244,326 2244,324 2243,323 2243,321 2242,320 2242,319 2241,318 2241,316 2240,315 2240,314 2239,313 2239,310 2240,309 2240,308 2241,307 2241,305 2242,304 2242,302 2243,301 2243,297 2242,296 2242,294 2241,293 2241,291 2240,290 2240,283 2241,282 2241,269 2240,268 2240,263 2241,262 2241,261 2242,260 2242,258 2243,257 2243,256 2244,255 2244,249 2243,248 2243,245 2242,244 2242,242 2241,241 2241,238 2240,237 2240,233 2239,232 2239,230 2238,229 2238,228 2235,225 2234,225 2233,224 2232,224 2231,223 2227,223 2226,222 2198,222 2197,221 2189,221 2188,222 2178,222 2177,221 2172,221 2171,220 2170,220 2169,221 2165,221 2164,222 2158,222 2157,223 2156,222 2139,222 2138,223 2133,223 2132,222 2106,222 2105,221 2094,221 2093,222 2081,222 2080,221 2070,221 2069,222 2058,222 2057,223 2048,223 2047,224 2037,224 2036,223 1999,223 1998,224 1991,224 1990,223 1966,223 1965,222 1954,222 1953,223 1947,223 1946,224 1945,224 1944,223 1930,223 1929,224 1923,224 1922,225 1921,224 1916,224 1915,223 1893,223 1892,222 1884,222 1883,223 1872,223 1871,222 1868,222 1867,221 1862,221 1861,222 1858,222 1857,223 1843,223 1842,222 1841,223 1835,223 1834,224 1827,224 1826,223 1825,223 1824,222 1823,222 1822,221 1821,221 1820,220 1814,220 1813,221 1811,221 1810,222 1806,222 1805,223 1802,223 1801,222 1789,222 1788,223 1781,223 1780,222 1779,222 1777,220 1776,220 1775,219 1774,219 1772,217 1768,217 1767,218 1766,218 1765,219 1764,219 1763,220 1761,220 1760,221 1745,221 1744,222 1742,222 1741,223 1740,223 1739,224 1732,224 1731,223 1729,223 1728,222 1726,222 1725,221 1722,221 1721,222 1718,222 1717,223 1714,223 1713,224 1706,224 1705,223 1688,223 1687,222 1686,222 1685,221 1683,221 1682,220 1681,220 1680,219 1678,219 1677,218 1676,218 1675,219 1673,219 1672,220 1671,220 1670,221 1668,221 1667,222 1664,222 1663,223 1660,223 1659,222 1649,222 1648,223 1641,223 1640,222 1638,222 1636,220 1634,220 1633,219 1632,219 1631,218 1626,218 1625,219 1623,219 1622,220 1620,220 1619,221 1611,221 1610,220 1604,220 1603,221 1599,221 1598,222 1591,222 1590,221 1588,221 1587,220 1585,220 1584,219 1581,219 1580,220 1578,220 1577,221 1576,221 1575,222 1573,222 1572,223 1550,223 1549,224 1548,224 1547,223 1546,223 1545,222 1544,222 1543,221 1542,221 1541,220 1540,220 1539,219 1537,219 1536,218 1533,218 1532,219 1529,219 1528,220 1523,220 1522,221 1520,221 1519,220 1506,220 1505,221 1500,221 1499,220 1496,220 1495,219 1493,219 1492,218 1484,218 1483,219 1481,219 1480,220 1476,220 1475,221 1474,221 1473,220 1461,220 1460,221 1457,221 1456,222 1450,222 1449,221 1446,221 1445,220 1437,220 1436,221 1433,221 1432,222 1423,222 1422,221 1417,221 1416,220 1411,220 1410,219 1402,219 1401,218 1381,218 1380,217 1372,217 1371,216 1363,216 1362,217 1359,217 1358,216 1352,216 1351,215 1322,215 1321,216 1318,216 1317,217 1315,217 1314,218 1311,218 1310,219 1309,218 1307,218 1306,217 1303,217 1302,216 1297,216 1296,217 1291,217 1290,218 1284,218 1283,217 1273,217 1272,216 1268,216 1267,215 1264,215 1263,214 1259,214 1258,213 1246,213 1245,214 1237,214 1236,215 1229,215 1228,216 1224,216 1223,217 1221,217 1220,218 1215,218 1214,217 1211,217 1210,216 1208,216 1207,215 1203,215 1202,216 1196,216 1195,217 1189,217 1188,216 1180,216 1179,217 1167,217 1166,216 1162,216 1161,215 1152,215 1151,216 1134,216 1133,215 1126,215 1125,214 1113,214 1112,213 1098,213 1097,214 1090,214 1089,215 1082,215 1081,216 1070,216 1069,215 1025,215 1024,214 1008,214 1007,213 1004,213 1003,214 991,214 990,213 987,213 986,212 984,212 983,211 974,211 973,212 963,212 962,211 960,211 959,212 953,212 952,213 949,213 948,214 946,214 945,213 942,213 941,212 905,212 904,211 895,211 894,210" fill="rgba(235,157,37,0.3)" stroke="rgb(235,157,37)" stroke-width="2" data-block-id="0004" data-name="b-0010" /><text x="1541" y="373" text-anchor="middle" dominant-baseline="middle" class="block-label" fill="rgb(235,157,37)" stroke="white" stroke-width="3" paint-order="stroke">b-0010</text><polygon points="802,1165 801,1166 776,1166 775,1167 769,1167 768,1168 767,1168 764,1171 764,1172 763,1173 763,1186 762,1187 762,1243 763,1244 763,1269 762,1270 762,1302 763,1303 762,1304 762,1340 763,1341 763,1358 762,1359 762,1365 763,1366 763,1393 764,1394 764,1404 763,1405 763,1412 764,1413 764,1443 763,1444 763,1445 764,1446 764,1511 763,1512 763,1515 764,1516 764,1521 765,1522 765,1524 766,1525 766,1526 767,1527 768,1527 769,1528 772,1528 773,1529 780,1529 781,1530 798,1530 799,1531 861,1531 862,1530 890,1530 891,1529 898,1529 899,1528 901,1528 902,1529 918,1529 919,1528 980,1528 981,1527 1054,1527 1055,1526 1071,1526 1072,1527 1093,1527 1094,1528 1103,1528 1104,1527 1109,1527 1110,1526 1204,1526 1205,1525 1219,1525 1220,1526 1235,1526 1236,1527 1242,1527 1243,1526 1248,1526 1249,1525 1289,1525 1290,1526 1413,1526 1414,1525 1422,1525 1423,1526 1462,1526 1463,1525 1469,1525 1470,1526 1483,1526 1484,1525 1489,1525 1490,1526 1506,1526 1507,1527 1523,1527 1524,1526 1530,1526 1531,1525 1554,1525 1555,1524 1611,1524 1612,1525 1624,1525 1625,1524 1637,1524 1638,1525 1642,1525 1643,1524 1659,1524 1660,1525 1682,1525 1683,1524 1687,1524 1688,1525 1691,1525 1692,1526 1695,1526 1696,1527 1700,1527 1701,1528 1713,1528 1714,1527 1726,1527 1727,1526 1737,1526 1738,1527 1754,1527 1755,1528 1758,1528 1759,1527 1768,1527 1769,1526 1782,1526 1783,1527 1801,1527 1802,1528 1805,1528 1806,1527 1818,1527 1819,1526 1820,1527 1861,1527 1862,1526 1867,1526 1868,1527 1881,1527 1882,1528 1904,1528 1905,1527 1909,1527 1910,1526 1914,1526 1915,1525 1919,1525 1920,1524 1929,1524 1930,1525 1944,1525 1945,1524 1950,1524 1951,1525 1976,1525 1977,1524 2030,1524 2031,1523 2046,1523 2047,1522 2051,1522 2052,1521 2058,1521 2059,1522 2065,1522 2066,1523 2068,1523 2069,1524 2103,1524 2104,1525 2140,1525 2141,1524 2154,1524 2155,1525 2191,1525 2192,1524 2193,1525 2232,1525 2233,1524 2235,1524 2239,1520 2240,1520 2241,1519 2241,1518 2243,1516 2243,1513 2244,1512 2244,1498 2243,1497 2243,1488 2242,1487 2242,1481 2241,1480 2241,1478 2242,1477 2242,1471 2243,1470 2243,1452 2242,1451 2242,1446 2241,1445 2241,1442 2240,1441 2240,1439 2239,1438 2239,1437 2238,1436 2238,1435 2237,1434 2237,1429 2238,1428 2238,1426 2239,1425 2239,1422 2240,1421 2240,1416 2239,1415 2239,1406 2240,1405 2240,1402 2241,1401 2241,1399 2242,1398 2242,1388 2243,1387 2243,1357 2242,1356 2242,1353 2241,1352 2241,1345 2242,1344 2242,1335 2243,1334 2243,1313 2242,1312 2242,1284 2243,1283 2243,1272 2242,1271 2242,1263 2241,1262 2241,1247 2240,1246 2240,1236 2241,1235 2241,1214 2240,1213 2240,1207 2239,1206 2239,1201 2238,1200 2238,1181 2237,1180 2237,1175 2236,1174 2236,1172 2233,1169 2232,1169 2231,1168 2229,1168 2228,1167 2227,1167 2226,1168 2212,1168 2211,1167 2191,1167 2190,1166 2133,1166 2132,1165 2118,1165 2117,1166 2091,1166 2090,1165 2089,1165 2088,1166 2069,1166 2068,1167 2048,1167 2047,1168 2041,1168 2040,1169 1976,1169 1975,1170 1963,1170 1962,1169 1956,1169 1955,1170 1948,1170 1947,1171 1945,1171 1944,1170 1933,1170 1932,1171 1928,1171 1927,1172 1922,1172 1920,1170 1919,1170 1918,1169 1917,1169 1916,1168 1914,1168 1913,1167 1892,1167 1891,1168 1709,1168 1708,1167 1699,1167 1698,1168 1694,1168 1693,1169 1690,1169 1689,1170 1601,1170 1600,1171 1540,1171 1539,1170 1504,1170 1503,1169 1485,1169 1484,1170 1419,1170 1418,1169 1405,1169 1404,1168 1363,1168 1362,1167 1337,1167 1336,1166 1324,1166 1323,1167 1306,1167 1305,1166 1267,1166 1266,1167 1265,1166 1221,1166 1220,1167 1202,1167 1201,1166 1185,1166 1184,1167 1166,1167 1165,1166 1138,1166 1137,1167 1111,1167 1110,1166 1092,1166 1091,1167 968,1167 967,1166 948,1166 947,1167 932,1167 931,1166 885,1166 884,1165 872,1165 871,1166 866,1166 865,1167 861,1167 860,1166 844,1166 843,1167 839,1167 838,1166 826,1166 825,1165" fill="rgba(129,191,187,0.3)" stroke="rgb(129,191,187)" stroke-width="2" data-block-id="0005" data-name="b-0011" /><text x="1615" y="1368" text-anchor="middle" dominant-baseline="middle" class="block-label" fill="rgb(129,191,187)" stroke="white" stroke-width="3" paint-order="stroke">b-0011</text><polygon points="2825,689 2824,690 2820,690 2819,691 2815,691 2814,692 2804,692 2803,691 2797,691 2796,690 2783,690 2782,691 2757,691 2756,690 2755,690 2754,691 2746,691 2745,692 2740,692 2739,693 2725,693 2724,692 2702,692 2701,693 2675,693 2674,694 2665,694 2664,695 2642,695 2641,694 2639,694 2638,695 2631,695 2630,696 2626,696 2625,697 2621,697 2620,698 2617,698 2616,699 2612,699 2611,700 2608,700 2607,701 2605,701 2604,702 2602,702 2601,703 2598,703 2597,704 2594,704 2593,705 2590,705 2589,706 2588,706 2587,707 2585,707 2584,708 2583,708 2582,709 2575,709 2574,708 2571,708 2570,707 2567,707 2566,706 2560,706 2559,705 2546,705 2545,704 2540,704 2539,703 2536,703 2535,702 2532,702 2531,701 2528,701 2527,700 2522,700 2521,699 2506,699 2505,698 2495,698 2494,697 2474,697 2473,698 2453,698 2452,697 2445,697 2444,698 2440,698 2439,699 2437,699 2436,700 2434,700 2433,701 2431,701 2430,702 2429,702 2427,704 2427,705 2425,707 2425,708 2424,709 2424,711 2423,712 2423,715 2422,716 2422,729 2423,730 2423,802 2424,803 2424,824 2425,825 2425,857 2426,858 2426,863 2427,864 2427,868 2428,869 2428,881 2427,882 2427,902 2428,903 2428,919 2429,920 2429,939 2430,940 2430,961 2429,962 2429,967 2430,968 2430,978 2431,979 2431,989 2432,990 2432,1003 2433,1004 2433,1028 2434,1029 2434,1032 2435,1033 2435,1035 2436,1036 2436,1039 2437,1040 2437,1042 2439,1044 2439,1045 2442,1048 2443,1048 2444,1049 2445,1049 2446,1050 2448,1050 2449,1051 2451,1051 2452,1052 2455,1052 2456,1053 2459,1053 2460,1054 2463,1054 2464,1055 2469,1055 2470,1056 2477,1056 2478,1057 2486,1057 2487,1058 2488,1058 2489,1057 2505,1057 2506,1058 2514,1058 2515,1059 2529,1059 2530,1058 2534,1058 2535,1057 2541,1057 2542,1056 2544,1056 2545,1057 2550,1057 2551,1058 2555,1058 2556,1059 2570,1059 2571,1058 2582,1058 2583,1059 2585,1059 2586,1060 2588,1060 2589,1061 2592,1061 2593,1062 2596,1062 2597,1063 2613,1063 2614,1062 2622,1062 2623,1063 2634,1063 2635,1064 2642,1064 2643,1063 2683,1063 2684,1062 2690,1062 2691,1061 2700,1061 2701,1062 2708,1062 2709,1063 2718,1063 2719,1062 2722,1062 2723,1061 2727,1061 2728,1060 2744,1060 2745,1061 2757,1061 2758,1060 2763,1060 2764,1059 2769,1059 2770,1058 2779,1058 2780,1059 2799,1059 2800,1058 2839,1058 2840,1057 2848,1057 2849,1056 2855,1056 2856,1055 2860,1055 2861,1054 2865,1054 2866,1053 2871,1053 2872,1054 2877,1054 2878,1055 2883,1055 2884,1056 2907,1056 2908,1057 2940,1057 2941,1058 2947,1058 2948,1057 2960,1057 2961,1056 2977,1056 2978,1055 2987,1055 2988,1056 2997,1056 2998,1057 3037,1057 3038,1056 3107,1056 3108,1055 3156,1055 3157,1056 3162,1056 3163,1055 3174,1055 3175,1056 3186,1056 3187,1057 3197,1057 3198,1056 3200,1056 3201,1055 3203,1055 3204,1054 3206,1054 3207,1053 3209,1053 3210,1052 3213,1052 3214,1051 3216,1051 3217,1052 3223,1052 3224,1053 3233,1053 3234,1054 3263,1054 3264,1055 3287,1055 3288,1054 3294,1054 3295,1055 3338,1055 3339,1054 3372,1054 3373,1053 3431,1053 3432,1052 3454,1052 3455,1053 3493,1053 3494,1052 3526,1052 3527,1051 3566,1051 3567,1050 3611,1050 3612,1049 3639,1049 3640,1050 3668,1050 3669,1049 3676,1049 3677,1050 3681,1050 3682,1051 3687,1051 3688,1052 3721,1052 3722,1051 3766,1051 3767,1052 3773,1052 3774,1051 3823,1051 3824,1052 3825,1052 3826,1051 3830,1051 3831,1050 3833,1050 3834,1049 3835,1049 3836,1048 3837,1048 3843,1042 3843,1040 3844,1039 3844,1038 3845,1037 3845,1035 3846,1034 3846,1032 3847,1031 3847,1030 3848,1029 3848,1015 3847,1014 3847,1004 3848,1003 3848,1001 3849,1000 3849,997 3850,996 3850,994 3851,993 3851,991 3852,990 3852,977 3851,976 3851,967 3850,966 3851,965 3851,942 3852,941 3852,913 3851,912 3851,904 3850,903 3850,897 3849,896 3849,887 3850,886 3850,881 3851,880 3851,866 3850,865 3850,860 3849,859 3849,852 3848,851 3848,850 3849,849 3849,834 3848,833 3848,830 3847,829 3847,828 3846,827 3846,825 3845,824 3845,822 3844,821 3844,818 3843,817 3843,810 3844,809 3844,805 3845,804 3845,801 3846,800 3846,787 3845,786 3845,776 3844,775 3844,743 3843,742 3843,721 3842,720 3842,715 3841,714 3841,710 3840,709 3840,705 3839,704 3839,701 3835,697 3834,697 3833,696 3832,696 3831,695 3826,695 3825,694 3824,695 3794,695 3793,694 3757,694 3756,695 3697,695 3696,696 3664,696 3663,695 3646,695 3645,696 3609,696 3608,695 3600,695 3599,694 3577,694 3576,695 3534,695 3533,694 3457,694 3456,693 3399,693 3398,692 3382,692 3381,693 3372,693 3371,694 3361,694 3360,693 3353,693 3352,692 3335,692 3334,691 3330,691 3329,692 3314,692 3313,693 3304,693 3303,692 3278,692 3277,693 3211,693 3210,694 3172,694 3171,693 3081,693 3080,694 3077,694 3076,695 3075,695 3074,696 3072,696 3071,697 3070,697 3066,701 3066,706 3065,707 3065,725 3066,726 3066,738 3065,739 3065,742 3064,743 3064,745 3062,747 3060,745 3060,744 3058,742 3058,741 3057,740 3057,704 3056,703 3056,701 3055,700 3055,699 3052,696 3051,696 3050,695 3049,695 3047,693 3045,693 3044,692 3042,692 3041,691 3008,691 3007,692 3002,692 3001,691 2993,691 2992,690 2983,690 2982,689 2980,689 2979,690 2884,690 2883,691 2864,691 2863,692 2844,692 2843,691 2839,691 2838,690 2834,690 2833,689" fill="rgba(20,160,203,0.3)" stroke="rgb(20,160,203)" stroke-width="2" data-block-id="0006" data-name="b-0012" /><text x="3050" y="874" text-anchor="middle" dominant-baseline="middle" class="block-label" fill="rgb(20,160,203)" stroke="white" stroke-width="3" paint-order="stroke">b-0012</text><polygon points="3315,1164 3314,1165 3309,1165 3308,1166 3299,1166 3298,1165 3286,1165 3285,1166 3281,1166 3280,1165 3270,1165 3269,1166 3266,1166 3265,1167 3262,1167 3261,1168 3241,1168 3240,1167 3222,1167 3221,1168 3163,1168 3162,1169 3150,1169 3149,1168 3128,1168 3127,1167 3122,1167 3121,1166 3109,1166 3108,1167 3103,1167 3102,1166 3077,1166 3076,1167 3047,1167 3046,1166 2992,1166 2991,1165 2987,1165 2986,1166 2959,1166 2958,1167 2949,1167 2948,1166 2941,1166 2940,1165 2939,1166 2933,1166 2932,1167 2922,1167 2921,1166 2917,1166 2916,1167 2898,1167 2897,1166 2892,1166 2891,1167 2885,1167 2884,1168 2875,1168 2874,1167 2870,1167 2869,1168 2856,1168 2855,1167 2850,1167 2849,1166 2845,1166 2844,1167 2821,1167 2820,1168 2809,1168 2808,1167 2804,1167 2803,1166 2795,1166 2794,1167 2709,1167 2708,1166 2705,1166 2704,1167 2674,1167 2673,1168 2668,1168 2667,1167 2657,1167 2656,1168 2649,1168 2648,1169 2595,1169 2594,1170 2590,1170 2589,1171 2564,1171 2563,1170 2543,1170 2542,1169 2510,1169 2509,1168 2490,1168 2489,1167 2445,1167 2444,1168 2436,1168 2435,1169 2433,1169 2431,1171 2431,1172 2430,1173 2430,1177 2429,1178 2429,1187 2428,1188 2428,1193 2427,1194 2427,1200 2428,1201 2428,1212 2427,1213 2427,1220 2426,1221 2426,1242 2425,1243 2425,1255 2426,1256 2426,1264 2427,1265 2427,1272 2426,1273 2426,1280 2427,1281 2427,1309 2426,1310 2426,1330 2427,1331 2427,1375 2428,1376 2428,1382 2429,1383 2429,1393 2430,1394 2430,1395 2429,1396 2429,1404 2428,1405 2428,1428 2429,1429 2429,1464 2428,1465 2429,1466 2429,1476 2430,1477 2430,1515 2431,1516 2431,1520 2432,1521 2432,1523 2435,1526 2437,1526 2438,1527 2448,1527 2449,1528 2487,1528 2488,1529 2519,1529 2520,1528 2561,1528 2562,1529 2571,1529 2572,1528 2607,1528 2608,1529 2626,1529 2627,1530 2633,1530 2634,1531 2641,1531 2642,1530 2660,1530 2661,1529 2677,1529 2678,1530 2685,1530 2686,1529 2690,1529 2691,1528 2698,1528 2699,1527 2713,1527 2714,1528 2724,1528 2725,1529 2731,1529 2732,1528 2735,1528 2736,1527 2739,1527 2740,1526 2760,1526 2761,1527 2779,1527 2780,1526 2783,1526 2784,1525 2785,1525 2786,1524 2790,1524 2792,1526 2793,1526 2794,1527 2796,1527 2797,1528 2801,1528 2802,1529 2818,1529 2819,1528 2867,1528 2868,1529 2881,1529 2882,1528 2901,1528 2902,1527 2918,1527 2919,1526 2928,1526 2929,1525 2932,1525 2933,1524 2937,1524 2938,1523 3027,1523 3028,1522 3051,1522 3052,1523 3064,1523 3065,1524 3071,1524 3072,1523 3081,1523 3082,1522 3112,1522 3113,1523 3147,1523 3148,1524 3166,1524 3167,1525 3170,1525 3171,1524 3241,1524 3242,1523 3263,1523 3264,1522 3326,1522 3327,1521 3329,1521 3330,1522 3334,1522 3335,1523 3338,1523 3339,1524 3349,1524 3350,1523 3419,1523 3420,1522 3426,1522 3427,1523 3440,1523 3441,1522 3445,1522 3446,1521 3455,1521 3456,1522 3459,1522 3460,1521 3481,1521 3482,1520 3516,1520 3517,1519 3541,1519 3542,1518 3545,1518 3546,1517 3549,1517 3550,1516 3555,1516 3556,1515 3568,1515 3569,1514 3578,1514 3579,1515 3583,1515 3584,1516 3588,1516 3589,1517 3594,1517 3595,1518 3612,1518 3613,1517 3632,1517 3633,1518 3635,1518 3636,1517 3641,1517 3642,1516 3646,1516 3647,1515 3656,1515 3657,1514 3682,1514 3683,1515 3685,1515 3686,1516 3688,1516 3689,1517 3694,1517 3695,1518 3699,1518 3700,1517 3719,1517 3720,1518 3727,1518 3728,1519 3734,1519 3735,1518 3745,1518 3746,1519 3755,1519 3756,1520 3795,1520 3796,1519 3827,1519 3828,1518 3839,1518 3840,1517 3846,1517 3847,1516 3848,1516 3849,1515 3850,1515 3852,1513 3852,1506 3853,1505 3853,1497 3854,1496 3854,1483 3855,1482 3855,1474 3856,1473 3856,1458 3855,1457 3855,1452 3856,1451 3856,1439 3855,1438 3855,1432 3854,1431 3854,1403 3855,1402 3855,1398 3856,1397 3856,1394 3855,1393 3855,1388 3854,1387 3854,1383 3855,1382 3855,1380 3856,1379 3856,1377 3857,1376 3857,1374 3858,1373 3858,1369 3857,1368 3857,1361 3856,1360 3856,1357 3855,1356 3855,1353 3854,1352 3854,1337 3855,1336 3855,1329 3856,1328 3856,1321 3855,1320 3855,1311 3854,1310 3854,1299 3853,1298 3853,1293 3852,1292 3852,1289 3853,1288 3853,1285 3854,1284 3854,1281 3855,1280 3855,1276 3854,1275 3854,1270 3853,1269 3853,1261 3852,1260 3852,1243 3853,1242 3853,1235 3854,1234 3854,1218 3853,1217 3853,1214 3852,1213 3852,1211 3851,1210 3851,1203 3852,1202 3852,1174 3849,1171 3848,1171 3847,1170 3843,1170 3842,1169 3835,1169 3834,1168 3826,1168 3825,1167 3817,1167 3816,1168 3810,1168 3809,1167 3797,1167 3796,1166 3773,1166 3772,1165 3764,1165 3763,1166 3759,1166 3758,1167 3756,1167 3755,1168 3746,1168 3745,1167 3732,1167 3731,1166 3729,1166 3728,1167 3715,1167 3714,1168 3698,1168 3697,1167 3695,1167 3694,1168 3687,1168 3686,1169 3651,1169 3650,1168 3616,1168 3615,1167 3596,1167 3595,1166 3586,1166 3585,1167 3581,1167 3580,1168 3574,1168 3573,1169 3557,1169 3556,1168 3511,1168 3510,1167 3494,1167 3493,1166 3483,1166 3482,1165 3478,1165 3477,1166 3470,1166 3469,1165 3453,1165 3452,1166 3444,1166 3443,1165 3438,1165 3437,1164 3409,1164 3408,1165 3368,1165 3367,1164 3364,1164 3363,1165 3325,1165 3324,1164" fill="rgba(57,21,252,0.3)" stroke="rgb(57,21,252)" stroke-width="2" data-block-id="0007" data-name="b-0013" /><text x="3223" y="1343" text-anchor="middle" dominant-baseline="middle" class="block-label" fill="rgb(57,21,252)" stroke="white" stroke-width="3" paint-order="stroke">b-0013</text><polygon points="2849,219 2848,220 2845,220 2844,221 2843,221 2842,222 2841,222 2840,223 2839,223 2837,225 2836,225 2835,226 2824,226 2823,225 2818,225 2817,224 2808,224 2807,223 2800,223 2799,224 2793,224 2792,225 2733,225 2732,226 2727,226 2726,225 2717,225 2716,226 2709,226 2708,227 2702,227 2701,228 2694,228 2693,229 2684,229 2683,230 2670,230 2669,231 2666,231 2665,232 2663,232 2662,233 2659,233 2658,234 2634,234 2633,235 2622,235 2621,236 2617,236 2616,237 2614,237 2613,238 2609,238 2608,239 2603,239 2602,240 2598,240 2597,241 2592,241 2591,242 2588,242 2587,243 2585,243 2583,245 2582,245 2582,246 2580,248 2580,250 2579,251 2579,253 2578,254 2578,256 2577,257 2577,258 2575,260 2570,255 2570,254 2568,252 2568,251 2565,248 2565,246 2564,245 2564,244 2563,243 2563,242 2562,241 2561,241 2559,239 2557,239 2556,238 2555,238 2554,237 2543,237 2542,236 2537,236 2536,235 2533,235 2532,234 2520,234 2519,233 2516,233 2515,232 2513,232 2512,231 2510,231 2509,230 2506,230 2505,229 2492,229 2491,228 2487,228 2486,227 2482,227 2481,226 2476,226 2475,225 2469,225 2468,226 2466,226 2465,227 2463,227 2462,228 2454,228 2453,227 2445,227 2444,228 2442,228 2441,229 2439,229 2438,230 2437,230 2436,231 2435,231 2434,232 2434,233 2432,235 2432,237 2431,238 2431,240 2430,241 2430,244 2429,245 2429,248 2428,249 2428,256 2429,257 2429,259 2430,260 2430,262 2431,263 2431,268 2430,269 2430,286 2429,287 2429,292 2428,293 2428,296 2427,297 2427,300 2428,301 2428,302 2429,303 2429,304 2430,305 2430,306 2431,307 2431,308 2432,309 2432,316 2431,317 2431,321 2430,322 2430,339 2429,340 2429,349 2430,350 2430,351 2431,352 2431,353 2432,354 2432,355 2433,356 2433,362 2432,363 2432,366 2431,367 2431,384 2430,385 2430,390 2429,391 2429,393 2430,394 2430,397 2431,398 2431,399 2432,400 2432,402 2433,403 2433,409 2432,410 2432,412 2431,413 2431,435 2430,436 2430,442 2431,443 2431,446 2432,447 2432,457 2431,458 2431,461 2430,462 2430,470 2431,471 2431,497 2430,498 2430,505 2429,506 2429,514 2428,515 2428,525 2429,526 2429,531 2430,532 2430,537 2429,538 2429,540 2428,541 2428,546 2427,547 2427,560 2428,561 2428,563 2429,564 2429,567 2430,568 2430,569 2431,570 2431,571 2434,574 2436,574 2437,575 2447,575 2448,576 2451,576 2452,577 2454,577 2455,578 2457,578 2458,579 2459,579 2460,580 2462,580 2463,581 2466,581 2467,582 2470,582 2471,583 2490,583 2491,582 2496,582 2497,583 2500,583 2501,584 2504,584 2505,585 2530,585 2531,586 2537,586 2538,587 2545,587 2546,588 2558,588 2559,587 2566,587 2567,586 2570,586 2571,585 2572,585 2573,584 2574,584 2575,583 2578,583 2579,584 2580,584 2582,586 2583,586 2584,587 2585,587 2586,588 2588,588 2589,589 2594,589 2595,590 2602,590 2603,589 2604,589 2605,588 2606,588 2608,586 2609,586 2611,584 2612,584 2613,583 2615,583 2616,584 2622,584 2623,585 2626,585 2627,584 2640,584 2641,585 2646,585 2647,586 2665,586 2666,585 2672,585 2673,586 2676,586 2677,587 2696,587 2697,586 2710,586 2711,585 2751,585 2752,584 2759,584 2760,583 2764,583 2765,582 2775,582 2776,583 2791,583 2792,582 2794,582 2795,581 2796,581 2797,580 2798,580 2799,579 2822,579 2823,578 2824,579 2833,579 2834,580 2840,580 2841,579 2853,579 2854,580 2863,580 2864,579 2876,579 2877,580 2909,580 2910,579 2912,579 2913,578 2915,578 2916,577 2919,577 2920,578 2922,578 2923,579 2925,579 2926,580 2953,580 2954,579 2967,579 2968,578 2975,578 2976,577 2980,577 2981,576 2984,576 2985,575 2987,575 2988,574 2991,574 2992,575 2998,575 2999,576 3004,576 3005,577 3008,577 3009,578 3016,578 3017,577 3020,577 3021,576 3024,576 3025,577 3027,577 3028,578 3029,578 3030,579 3032,579 3033,580 3039,580 3040,579 3043,579 3044,578 3050,578 3051,579 3054,579 3055,580 3065,580 3066,579 3074,579 3075,580 3080,580 3081,581 3084,581 3085,580 3089,580 3090,579 3092,579 3093,578 3094,578 3095,579 3097,579 3098,580 3099,580 3100,581 3102,581 3103,582 3115,582 3116,581 3137,581 3138,580 3143,580 3144,581 3162,581 3163,580 3168,580 3169,581 3182,581 3183,580 3192,580 3193,581 3208,581 3209,580 3261,580 3262,579 3273,579 3274,578 3285,578 3286,579 3291,579 3292,580 3295,580 3296,579 3298,579 3299,578 3300,578 3301,577 3303,577 3304,576 3314,576 3315,577 3324,577 3325,576 3331,576 3332,577 3336,577 3337,578 3358,578 3359,579 3362,579 3363,580 3364,580 3365,579 3368,579 3369,578 3370,578 3372,576 3373,576 3374,575 3375,575 3376,574 3378,574 3379,575 3380,575 3381,576 3383,576 3384,577 3386,577 3387,578 3388,578 3389,577 3393,577 3394,576 3397,576 3398,575 3402,575 3403,576 3405,576 3406,577 3419,577 3420,576 3433,576 3434,575 3441,575 3442,574 3449,574 3450,575 3451,575 3452,576 3453,576 3454,577 3456,577 3457,578 3464,578 3465,579 3519,579 3520,580 3523,580 3524,581 3529,581 3530,582 3532,582 3533,581 3568,581 3569,582 3574,582 3575,583 3580,583 3581,582 3596,582 3597,581 3614,581 3615,582 3620,582 3621,583 3631,583 3632,582 3651,582 3652,581 3658,581 3659,582 3664,582 3665,583 3697,583 3698,582 3699,582 3700,581 3701,581 3702,580 3703,580 3704,579 3708,579 3709,580 3711,580 3712,581 3713,581 3714,582 3717,582 3718,583 3720,583 3721,582 3726,582 3727,581 3732,581 3733,580 3737,580 3738,579 3742,579 3743,578 3777,578 3778,577 3784,577 3785,576 3795,576 3796,575 3802,575 3803,576 3827,576 3828,575 3831,575 3832,574 3835,574 3837,572 3838,572 3839,571 3839,569 3840,568 3840,566 3839,565 3839,558 3838,557 3838,549 3837,548 3838,547 3838,544 3839,543 3839,541 3840,540 3840,538 3841,537 3841,530 3842,529 3842,524 3841,523 3841,518 3840,517 3840,515 3839,514 3839,510 3838,509 3838,504 3837,503 3837,497 3838,496 3838,493 3839,492 3839,480 3838,479 3838,469 3839,468 3839,461 3838,460 3838,449 3839,448 3839,435 3838,434 3838,431 3837,430 3837,407 3838,406 3838,403 3839,402 3839,398 3840,397 3840,389 3839,388 3839,372 3840,371 3840,368 3839,367 3839,353 3840,352 3840,319 3839,318 3839,307 3840,306 3840,268 3839,267 3839,263 3840,262 3840,255 3841,254 3841,249 3840,248 3840,239 3839,238 3839,235 3838,234 3838,231 3837,230 3837,229 3835,227 3834,227 3833,226 3830,226 3829,225 3821,225 3820,224 3772,224 3771,223 3760,223 3759,224 3739,224 3738,225 3721,225 3720,224 3717,224 3716,225 3710,225 3709,226 3667,226 3666,227 3659,227 3658,228 3657,228 3656,227 3616,227 3615,228 3596,228 3595,227 3535,227 3534,226 3527,226 3526,227 3506,227 3505,226 3495,226 3494,225 3485,225 3484,224 3481,224 3480,225 3476,225 3475,226 3470,226 3469,227 3454,227 3453,226 3450,226 3449,225 3447,225 3446,224 3444,224 3443,223 3441,223 3440,222 3437,222 3436,221 3429,221 3428,220 3410,220 3409,221 3406,221 3405,222 3403,222 3402,223 3398,223 3397,222 3392,222 3391,221 3386,221 3385,222 3379,222 3378,223 3375,223 3374,222 3368,222 3367,221 3351,221 3350,220 3345,220 3344,219 3339,219 3338,220 3335,220 3334,221 3329,221 3328,222 3324,222 3323,221 3298,221 3297,222 3292,222 3291,223 3284,223 3283,224 3281,224 3280,223 3255,223 3254,222 3240,222 3239,223 3214,223 3213,222 3204,222 3203,221 3200,221 3199,222 3197,222 3196,223 3195,223 3194,224 3192,224 3191,225 3188,225 3187,226 3186,225 3184,225 3183,224 3181,224 3180,223 3179,223 3178,222 3172,222 3171,223 3148,223 3147,224 3139,224 3138,225 3109,225 3108,224 3101,224 3100,225 3018,225 3017,226 3007,226 3006,225 2952,225 2951,224 2938,224 2937,223 2915,223 2914,224 2909,224 2908,225 2891,225 2890,224 2885,224 2884,223 2878,223 2877,222 2872,222 2871,221 2869,221 2868,220 2861,220 2860,219" fill="rgba(235,88,48,0.3)" stroke="rgb(235,88,48)" stroke-width="2" data-block-id="0008" data-name="b-0014" /><text x="3049" y="415" text-anchor="middle" dominant-baseline="middle" class="block-label" fill="rgb(235,88,48)" stroke="white" stroke-width="3" paint-order="stroke">b-0014</text><polygon points="755,1695 744,2093 2262,2089 2266,1691" fill="rgba(102,179,92,0.3)" stroke="rgb(102,179,92)" stroke-width="2" data-block-id="0009" data-name="b-0044" /><text x="1506" y="1892" text-anchor="middle" dominant-baseline="middle" class="block-label" fill="rgb(102,179,92)" stroke="white" stroke-width="3" paint-order="stroke">b-0044</text><polygon points="2411,1691 3884,1691 3872,2093 2415,2093" fill="rgba(102,179,92,0.3)" stroke="rgb(102,179,92)" stroke-width="2" data-block-id="0010" data-name="b-0040" /><text x="3145" y="1892" text-anchor="middle" dominant-baseline="middle" class="block-label" fill="rgb(102,179,92)" stroke="white" stroke-width="3" paint-order="stroke">b-0040</text></g>
</svg>